<svg xmlns="http://www.w3.org/2000/svg" width="277" height="392" viewBox="-0.5 -0.55 276.55 391.5"><path fill="#0d131a" d="M229.65 283.9q1.65-.9 1.95-.7.65.4-.8 3.9l-4.75 9.95-3.85 7.85 7.9-.3q7-.25 8.6.15 1.65.4-2.25 2.35l-5.95 2.85 21.2-1.8 4.8-.2q.05.3-3.05 2.25-3.65 2.35-17.35 9.15l13.15 6.3 20.6 10.1q6.2 3.1 4.15 3.45-1.9.25-12.3-1.7-6.1-1.1-12.65-3.1l-9.5-2.75 6.4 4.05 7.8 5.25q5.4 3.8 4.6 4.15-.45.25-5-1.15l-54.4-15.9 6.45-27.5 10.8-7.6q11.25-7.85 13.45-9.05"/><path fill="#00273c" d="m227.8 288.35-3.8 8.9-3.95 9.05q-.1.5 8.35-.1l7.95-.4-5.75 2.85q-5.3 2.55-5.7 3.1l11.65-.45 12.8-.85q.55.3-7.5 4.4l-9 4.55q-.6.35 16.1 8.35 16.85 8.05 16.8 8.3-.05.4-14.05-2.85l-16.65-4.05-2.65-.4 2.1 1.75q.9.65 8.3 5.3 6.4 4 6.75 4.55.65 1-48.8-13.35l5.95-25.5 10.7-6.95q10.4-6.65 10.4-6.2"/><path fill="#00273c" d="m235.05 329.15-2.65-.4 2.1 1.75q.9.65 8.3 5.3 6.4 4 6.75 4.55.65 1-48.8-13.35l.35-1.4 22.7-6.6 22.65-6.6q-4.5 2.5-13.6 7-.6.35 16.1 8.35 16.85 8.05 16.8 8.3-.05.4-14.05-2.85z"/><path fill="#0d131a" d="M69.4 137.65q2.85-2.35 6.3-2.5 3.05-.15 4.5 1.35 5.5 5.75 7.1 23.1 1.55 16.9-2.15 20.9-7.2 7.8-22.45 16.8-6.45 3.8-17.05 9.1l-4.9 3.25-3.75 2.6q-.3-.05-.85-.85-.65-.9-1.1-2.2-2.65 3.35-4.05 3.05-.85-.2-1.1-2.8l-1.7 1.7-1.1.3q-.4-.1-.75-1.1-.35-1.05-.3-2.3l-2 1.1-1.25.2q-.85-.4-.15-5.05.75-5.15 2.95-9.2 3.2-5.85 20.15-28.55 18.15-24.3 23.65-28.9"/><path fill="#ffee7d" d="M79.55 137.15q2.95 3.05 4.6 11.35 1.45 7.35 1.45 16.05 0 6-.75 10.45-.75 4.65-2.1 6.15-3.55 3.95-20.15 13.9-13.8 8.25-18.45 10.45-1.05.5-4.05 2.75l-2.85 1.95-.95-1.6-.95-1.6q-.2 0-1.85 1.75l-1.9 1.85q-.25.05-.55-1.5l-.4-1.7q-.15-.1-1.6 1.45l-1.6 1.55q-.2 0-.45-1.9l-.3-1.95q-2.75 1.6-3.05 1.5-.45-.2.35-4.05.9-4.45 2.75-7.85 3.1-5.65 21-29.15 18.95-24.95 24.45-29.5 4.2-3.55 7.35-.35"/><path fill="#dccd6c" d="M85.35 170.6q-.55 8.3-2.6 10.55-3.55 3.95-20.15 13.9-13.8 8.25-18.45 10.45-1.7.85-6.45 4.5 2.85-5.5 3.95-6.3z"/><path fill="#0d131a" d="M181.05 151.6q8.65 7.45 14.65 16.45 10.7 16 17.25 34.7 6.1 17.25 3.1 18.9l-1.45.05q-1.35-.15-2.25-.75.35 2.25 0 3.9-.3 1.2-.75 1.5-.55.35-1.5 0-1.15-.35-2.4-1.5 0 3.2-1 3.75-.35.15-1.5-.55-1.25-.75-2.1-1.85l-.4 1.75q-.5 1.3-1 1.45t-1.7-1.5q-1.45-1.85-2.35-4.45-.5.75-1.75 1.15l-1.75.15q-.7-.25-.55-2.9.15-2.7.4-2.45-5.85-7.85-11.8-14.35 6.95 12.6 14.05 37.9 6.7 23.9 10.45 29.6 6.1 9.3 18.9 23.95 10.35 13.5 12.95 28.35 1.6 9-3.1 20.3-3.85 9.35-7.75 12.45 5 6 8.85 12.95 3.9 7.05 4.25 10.8.15 2.05-.4 2.95-.65 1-1.9.15.8 2.85.85 4 .1 1.25-.55 1.6-1.5.9-5.9-3.25-.2 2.25-2.55 1.25-4.05-1.7-15.8-12-7.7-6.7-16.6-12.25-8.35-5.15-9.1-5.9-3.55-1.85-12.8-4.4-11.35-3.15-23.5-4.95-34.35-5.05-57.2 2.9.3 1.55-4.4 4.4-5.4 3.2-19.1 9.2Q59.7 370.35 45 378l-2.95 1.15-1.35-.15q-.8-.8-.05-2.85-3.85 3.1-5.2 2.25-.5-.25-.1-1.75.45-1.95 2.25-4.7l-1.95.85-.9-.1q-.85-2.1 4.35-9.05 5.25-7.05 10.8-11.1-10.15-11.95-5.8-33.5 4.3-21.3 21.1-44.35 7.3-10.05 10.5-35.3 3.5-28.1-2.1-52-2.55-10.8-3.4-15.75-2-11.55-1.55-20.15.6-12.25 2.55-20.1 2.65-10.55 8.3-16.6 5.25-5.65 15.55-7.75 10.3-2.05 22.85 0 15 2.5 27.65 10.55 14.6 9.25 20.8 23.05 9.6 6.5 14.7 10.95"/><path fill="#ffee7d" d="m165.85 140.6.2.2 13.15 11.35q10.9 10.4 18.8 22.9 7.55 12 13.55 29.15 5.4 15.55 3.9 16.3-.4.2-2.35-.8l-1.95-.95.05 3.25q.1 3.15-.25 3.25-.35.15-2.1-1l-1.85-1.1-.3 2.2q-.15 2.1-.45 2.2l-1.9-1.4-1.75-1.55q-.1 0-.5 1.55l-.65 1.7-1.25-1.6-1.9-3.3-.45-.7q-.2-.1-.6.3l-1.7 1.05-1-.05q-.2-.3-.05-1.9l.65-3.3q-6.5-8.7-17.25-19.95-9.3-9.8-12.6-12.25-1.55-1.15-1.8-.65-.25.45.95 1.75l15.55 16.3q6.75 13.4 14.3 40.35 6.9 24.55 10.9 30.7 4.45 6.8 17.15 21.65 11.1 14.85 13.85 30.05 1.2 6.75-2.1 16.85-3.4 10.3-8 12.8-1.6.9-5.05 1.75l-6.3 1.15q-1.2.15-1.2.45 0 .35 1.25.5 3.5.35 10.65-1.5 2.15 1.15 7.3 9.55 5.1 8.2 6.6 12.65.6 1.7.2 2.45-.35.75-1.45-.15l-1.9-3.65q-1.25-2.2-1.85-1.95-.55.25.55 2.5 1.25 2.35 2.35 5.45 1.2 3.15.85 3.35-.45.3-1.75-.5-1.6-1-3.75-3.5l-1.6-3.1q-1.3-2.15-2-1.8-.7.3.6 2.4 1.25 2.05 1.7 3.45.35 1.15.05 1.25-.9.25-3.9-2.1l-6.9-5.9-4-3.55q-7.75-6.8-14.65-11.7-6.75-4.8-10.9-6.55 5.85 1-1.45-1.7-6.75-2.45-13.2-4.15-27.95-7.35-52.65-6.65-24.2.65-38 8.7-2.15 1.3-2.45 1.7-.35.55 2.15-.3l7.9-2.5v.1q-.55 1.5-7.65 5-4.1 2-14.55 6.6-9.35 4.1-20.05 10l-6.65 3.55q-2.75 1.35-3.2.85-.4-.45.5-2.25 1.05-2.05 3.2-4.05 1.3-1.25 1.15-1.95-.2-.75-1.8.75-.95.85-1.55 1.6l-1.45 2.2q-1.4 1.25-3.15 2.3-1.8 1.1-2.1.85-.3-.35 1.2-3.25 1.65-3.05 3.45-5.35 1.3-1.65.8-1.9-.5-.3-1.9 1.2l-2.45 2.45q-1.4 1.3-1.4 1 0-1.1 1.95-4 2.15-3.2 5.45-6.65 3.8-3.95 8.05-7.05 3.25 3 6.6 4.35 3.6 1.45 8 1.25l4.9-.8q1.25-.4 1.75-.8.6-.45-.55-.3-13.35 1.65-20.45-6.85-6.2-7.4-6.25-20.3-.05-21.6 21.7-54.25 11.9-17.85 11.9-59.9 0-10.75-1.95-22.05-1.05-6.1-2.2-10.05-1.65-5.65-2.8-13.6-1.5-9.95-1.5-19.2 0-24.65 10.35-35.8 5.05-5.4 15-7.35t22.15.05q15.05 2.5 27.4 10 14.75 8.85 20.65 22.2"/><path fill="#dccd6c" d="M71.1 363.7q-9.35 4.1-20.05 10l-6.65 3.55q-2.75 1.35-3.2.85l-.1-.15q8.2-5.85 19.75-12.1l14.5-7.45q1.5-.8 5.4-4.5 4.05-3.85 7.9-6.1 13.15-7.75 39.15-7.75 13.4 0 30.65 3 9.35 1.6 29.05 6.05 17 3.85 24.5 4.8 11.55 1.45 17.2-.8-1.7 2.1-3.1 2.85-1.6.9-5.05 1.75l-6.3 1.15q-1.2.15-1.2.45 0 .35 1.25.5 3.5.35 10.65-1.5 1.3.7 3.75 4.15-11.65.45-20.15 6.4-11.55-9.2-18.05-11.95 5.85 1-1.45-1.7-6.75-2.45-13.2-4.15-27.95-7.35-52.65-6.65-24.2.65-38 8.7-2.15 1.3-2.45 1.7-.35.55 2.15-.3l7.9-2.5v.1q-.55 1.5-7.65 5-4.1 2-14.55 6.6"/><path fill="#00273c" d="M181.65 243.4q4.6 2.25 9.45 4.05-1.4-7.75-4.8-20.05-3.75-13.5-8.1-25.75l1.8 1.9q6.5 12.95 13.2 36.45 6.95 24.35 9.65 30.2-4.3-4.55-10.55-9.05-4.95-3.6-9.45-6.05 7.1 1.15 10.9 2.45-8.45-10.45-12.1-14.15"/><path fill="#dccd6c" d="M117.4 173.65q-2.25-2.9-3.65-8.75-1.4-6 .65-5.45 10.9 2.95 16.15 6.55 4.85 3.35 5.1 7.55.15 2.7-1.05 5.5-1.35 3.15-3.3 3.15-7.25 0-13.9-8.55"/><path fill="#0d131a" d="M29.1 197.75q.55-1 .9-.9.3.05-.05 1.1-.35 1-.8 3.1-.4 2.05-.25 2.15.25.1 4.45-2.35l.9-.15q.2.2-.45.9-1.15 1.15-3.2 2.2-1.9.95-2.3.75-.8-.4-.45-2.85.35-2.4 1.25-3.95M176.2 3.85q3.5-4.4 4.3-3.75.75.6-.7 6.7l-15 60.05 17.1-15.1q5-4.5 5.5-4.1.55.5-2.2 7.45l-13.45 33.5 1.65-1.2 2.8-2.3q3.8-3.2 4.25-2.65.5.55-1.85 5.9l-3.1 6.55q22-15.8 35.4-25.8 6.15-4.6 6.9-4.2.85.45-3.65 7.75-8.75 14.15-33.4 52.1l5.25-3q5.5-3.05 6.05-2.5.6.55-3.6 6.3l-10.8 14.8 8.25-3.6q7.35-3.25 11.7-5.05 5.75-2.35 6.25-1.6.55.85-4.45 6.35l-18.5 19.9 1.5 8.1q.75 4.35.3 4.7-.6.35-3.35-4.1l-4.45-7.1-1.6 2.1q-2.4 3.3-2.8 3.1-.35-.1-.1-3.65l.35-5.25-2.25.15-2.25-.15q-.1-.35 2.25-2.2l1.6-1.35-11.1-9.75-22.9-37.15-51.45 7.3-13.35 25.95-2.45 24.85q-1.25 8.35-1.9 8.2-.55-.1-1.5-7.75l-.45-4-1.25 2.7Q60.6 167.8 60 167.4q-.5-.35-.05-7.2l.45-7.25-6.15.85-9.8 1q-4.45.4-4.4-.5.05-.85 3.85-2.7l8.15-3.8q-22.3-9.55-42.55-17.9-4.9-2.15-4.4-2.95l5.65-.3 33.25 2.4-11.15-7.15q-4.05-2.6-3.65-3.3.35-.65 5.15.6l13.55 3.65-42.6-34.4q-5.8-4.7-5.25-5.4.6-.8 8 2.05 13.15 5.05 41.3 16.35L44.7 94q-2.6-4.05-2.1-4.3l5.6 1.7q7.75 2.75 17.45 6.55L30.8 38.85q-4-6.7-3-7.25.95-.6 7.05 4.6L67.3 63.65q-.7-3.25-2.75-9.2-1.95-5.7-.85-6.3 1-.55 4.8 3.8 4.1 4.65 12.75 13.3-10-44.45-11.45-53.1Q68.5 4.3 69.7 4q1.05-.25 5.45 6.1 5.35 7.7 29.8 45.75l2.05-21.3q.95-11.75 3.9-.25l6 23.5 14.65-39.55q2.25-5.95 3.35-5.8t1.45 6.8q.55 10.45.95 36.5 1.55-2.65 18.55-25.25z"/><path fill="#fcd13e" d="M169.75 39.4q-7.65 30.95-7.4 31.4t10.1-8.2l12.45-11.1-8.95 22.1q-7.55 18.75-7.4 19.35.1.55 3.9-2.65l5.75-4.9-6.1 13.7q-.35.75 42.35-30.15L194.5 100.3q-17.35 27.35-17.15 27.7.15.35 5.8-2.8 5.6-3.1 5.6-2.9l-7.8 10.65q-7.7 10.4-7.35 10.6l13.65-5.75q13.15-5.8 13.2-5.35.05.85-21.75 23.75l-3.45-2.05q-.3-.3-3.9 6.6l1.05-5.1q.65-2.65.45-2.9-.3-.5-3.75.45.65-.45 2.65-1.65 1.6-1 1.1-1.5l-12.75-10-23.25-37.8-53.25 7.55-15.45 41.85-1.3 14-.7-13.05-5.05 10.8.85-12-17.8 2q4.05-1.75 11.55-5.6L9.25 128.05l20.8 1.65 18.3 1.65 2.15.2-1.75-1.55q-1.65-1.15-6.95-4.4l-8.95-5.4 17.9 4.9q3.05.85 3.25.45t-2.55-2.5L28.8 105 4.45 85.4 30.7 95.75l21.85 8.45q.75.1-2.3-4.8L46 92.55l24.55 9.9-39.25-66.7L51.7 53.2q16.65 14.15 18 14.25 1.3.1-.7-6.15-2.5-7.15-2.9-8.9l9.4 9.55q7.35 7.45 8.05 7.55.55.1-5.95-30-6.5-30.25-6.1-30.45.45-.3 17.25 25.2 16.9 25.6 17.15 25.65.4.1 1.55-10.9L109 33.85 113.1 50q3.05 12.05 3.55 12.3.5.3 8.4-20.4l9.4-24.9.3 21.65q.2 18.15.4 20.3.2 2.75.75 2.45l2.25-3.25Q140.4 54.5 178.5 4z"/><path fill="#e50012" d="M4.45 85.4 30.7 95.75l21.85 8.45q.75.1-2.3-4.8L46 92.55l24.55 9.9-15.6-2.65 6.45 6.65-6.45-.2 9.7 5.65-27.45-5.65 26.85 13.35-12.3-.85 9.45 9.5-9.65.2 19.35 12.1 1.1.8-3.85 10.3-1.3 14-.7-13.05-5.05 10.8.85-12-17.8 2q4.05-1.75 11.55-5.6L9.25 128.05l20.8 1.65 18.3 1.65 2.15.2-1.75-1.55q-1.65-1.15-6.95-4.4l-8.95-5.4 17.9 4.9q3.05.85 3.25.45t-2.55-2.5L28.8 105zm157.9-14.6q.25.45 10.1-8.2l12.45-11.1-8.95 22.1q-7.55 18.75-7.4 19.35.1.55 3.9-2.65l5.75-4.9-6.1 13.7q-.35.75 42.35-30.15L194.5 100.3q-17.35 27.35-17.15 27.7.15.35 5.8-2.8 5.6-3.1 5.6-2.9l-7.8 10.65q-7.7 10.4-7.35 10.6l13.65-5.75q13.15-5.8 13.2-5.35.05.85-21.75 23.75l1.15 3.2q1.25 3.85 1.9 7.4-2.45-4.25-4.65-8.85l-1.85-3.8q-.3-.3-3.9 6.6l1.05-5.1q.65-2.65.45-2.9-.3-.5-3.75.45l2.95-2.15.3-.5-.35-.5-11.9-10-15.85-25.8q2.5-7.15 7.9-21.5l4.85-12.9-5.8 5.15q10.85-25.3 16.6-37.85-5.65 23.2-5.45 23.65m-64.25.5-5.9-3.8 3.05 14.3q3.45 16.2 5.15 25.65l-5.3.25q-3.35-5.9-11.7-19.1l-7.65-12 4.3 24.15-12-16.05 2.5 13.2-6.2-5.95-33.05-56.2L51.7 53.2q16.65 14.15 18 14.25 1.3.1-.7-6.15-2.5-7.15-2.9-8.9l9.4 9.55q7.35 7.45 8.05 7.55.55.1-5.95-30-6.5-30.25-6.1-30.45.35-.25 9.4 13.35l16.55 25 5.4 21.05L94.3 56.1z"/><path fill="#00273c" d="m146.1 121.65-.4 1.25h-.05v.15l-.85-.4.1-.45.25-.7z"/><path fill="#0d131a" d="m148 163.2.2-.95q2.35 2.8 2.35 3.5.05 1.25-2.95 3.95-3.05 2.7-3.85 1.75-.45-.55 1.7-4.6 2.15-4.1 2.55-3.65"/><path fill="#fff" d="m148.05 163.6 1.9 2.8-2.8 2.65-2.85 2q-.15-.15 1.6-3.25z"/><path fill="#ffee7d" d="M125.6 122.1q10.75-6.65 21.4-7.65 11.1-1.05 13.6 5.05 5.05 12.4 4.95 21.4-.15 8.7-5.3 21.4-1.85 4.5-5.65 7.4-3.65 2.8-5.65 1.65-.8-.45-1.4-1.8l-1.15-2.7q-1.75-3.7-6.05-4.6-1.9 1.2-4.05 8.95-1.95 6.95-4 6.85-.95-.05-3.9-1.95-2.85-1.75-4.65-3.35l-4.05-4.15-5.45-7.05q-8.6-11.25-4.15-22.6 3.8-9.6 15.5-16.85"/><path fill="#0d131a" d="m159.75 119.75 1.05-.9q4.5 5.35 4.9 17.85.5 13.5-4.55 25.85-2.2 5.4-6.9 8.15-4.05 2.3-5.75 1.3-.9-.55-1.9-3.05l-1.65-3.4q-1.7-1.95-4.75-2.7-1.85 1.45-3.35 7.45-1.35 5.25-2 6.5-.85 1.6-2.7 1.5-3-.15-8.6-5.25-5.8-5.2-9.8-11.55-1.55-2.45-.95-2.2.55.2 1.75 1.8 6.35 8.4 11.35 12.7 4.05 3.5 6.3 3.65 1.1.05 1.6-.55l.85-1.7q-1 1-2.15 1-1.7 0-4.15-2-2.25-1.8-3.65-3.9-2.2-3.4-4.55-12.1l-1.85-8q-2.15-2.7-1.7-3l1.05.8 1.5 1.75q3.45 4.1 9.4 7.5 5.55 3.15 10.3 4.15l1.45.3q3.75.8 5.6 2.8.6.65 1.8 3.45 1.1 2.55 1.65 2.9 1.4.85 4.85-1.65 3.85-2.8 5.6-7.1 4.8-11.7 4.45-24.95-.3-12.3-4.5-17.4"/><path fill="#922f00" d="M119.65 151.7q3.55 3.7 9.4 6.85 5.35 2.9 9.85 4-1.6 2.15-2.45 5.4-.95 3.75-1.9 5.5t-2.1 1.8q-1.3.1-3.15-1.3-1.85-1.35-3.15-3.35-2.3-3.5-4-9.05-1-3.15-2.25-8.8z"/><path fill="#0d131a" d="M138.1 168.95q.4.8-1.6 2.3t-3.15 1.25q-.5-.1-.35-1.1l.55-2.75.6-.15H136q1.9.05 2.1.45"/><path fill="#fff" d="M137.45 169.25q.15.35-.9 1.2-1.15.95-2.55 1.2l.45-2.45z"/><path fill="#0d131a" d="m119.35 152.9.5-.4q.6-.3 1.25.35 4.4 4.2 9.45 6.35 2.5 1.1 4.15 1.35 1.05 5.1.2 9.1-.9 4-3.1 3.75-.95-.15-2.4-1.45l-2.9-2.85-3.7-3.25-.15-.05-.1-.2q-1.1-2.75-1.95-6.7z"/><path fill="#ed8599" d="M119.6 151.6q1.9 2.6 5.2 4.9 3.9 2.7 9 4.3.6 3 .6 5.05 0 3.55-1.95 6l-.45.25q-.75.05-2.2-1.15l-2.65-2.5q-2.65-2.65-3.75-3.3-1.8-4.5-3.5-12.4z"/><path fill="#ce7486" d="m119.9 152.75-.3-1.15q1.9 2.6 5.2 4.9 3.9 2.7 9 4.3.6 3 .6 5.05v.05q-2.65-1-4.95-.85-1.85.15-4.55 1.2l-1.5-1.1q-1.8-4.5-3.5-12.4"/><path fill="#0d131a" d="M129.2 168.85q.2.25-.35 1.8-.6 1.65-1.3 2.35l-2.8-3.4q.95-.4 2.6-.65z"/><path fill="#fff" d="M128.65 169.25q.1.2-.4 1.4l-.9 1.5-1.6-2.2 1.65-.5z"/><path fill="#0d131a" d="M166.45 82.05q2.15.1-.55 22.25-2.7 22.35-5.85 27.55-1.05 1.75-2.75 1.1-2.3-1.05-6.95-12.2l-4.15-10.9q2.7-8.5 11.3-18.85 7.45-9 8.95-8.95"/><path fill="#00273c" d="M163.65 106.45q-2.7 21.45-4.7 24.75-.55.85-1.1.55-1.45-.65-5.45-11.15l-3.65-10.35q2.3-7.2 9.55-17.25 6.7-9.35 7.35-8.35.6 1.05-2 21.8"/><path fill="#0d131a" d="M166.3 133.7q.15 7.55-1.05 14.1-1.25 6.65-3.7 11.2-.8 1.5-2.5 2.4-1.6.8-2.95.65-1.85-.25-4.5-4.85-5.55-9.5-14.6-17.7-7.65-6.9-14.15-9.95-1.45-.7-6.75-2-4.1-1-6.5-3.05-6.25-5.85-8.25-7.55-3.15-2.7-5.4-2.05-8.8 2.6-17.5 16.6-8.5 13.65-8.95 25.05-.2.85-.5.7-.65-.25-1.15-5-.5-5 .8-14.75 1.05-8 1.9-10.8l-5.35-1.95q-4.55-1.75-4.3-2l10.75-.95-6.9-5.45-2-1.5q-.3-.55 2.6.25 4.45 1.15 8.65 1.6-1.55-2.35-5.65-6.6-2.6-2.5 2.05-.65 1.9.8 4.2 2.05 1.9 1.05 2.25 1.15 7.95-13.45 20.9-21.1 11.15-6.6 20.85-6.45 24.4.4 36.95 16 10.3 12.8 10.75 32.6"/><path fill="#00273c" d="M119.05 86.8q12 .25 20.75 4.25 8.65 4 15.8 12.55 7.15 8.65 8.6 27.3 1.4 18.7-4.5 27.45-1.65 2.45-3.5 2.2-1.4-.1-2.8-3.05-4-8.25-13.45-17-8.65-8.05-16.7-11.95-1.7-.85-6.4-1.95-3.75-.9-5.6-2.5l-8.35-7.55q-3.75-3.3-5.5-3.25-5.45.15-14.35 9.8-10.5 11.3-13.35 25.1.4-8.2 1.7-15.65l1.3-5.95.2-.6-5.05-2.35 4.3-.4 2.5-.5q0-.4-6.75-5.75l5.05 1.05 3.25.1q.35-.45-.85-2.25l-2.25-3.15q3.6 1.5 4.25 1.35l.3-.05.15-.3q2.75-4.75 8.1-10.5 4.75-5 8.4-7.7 6-4.3 12.45-6.6 6.35-2.2 12.3-2.15"/><path fill="#00273c" d="M105.65 89.35q6.9-2.6 13.4-2.55 12 .25 20.75 4.25 8.65 4 15.8 12.55 6.35 7.7 8.25 24.15 1.9 16.25-2.15 26.65 1.6-11.7-2-23.9-3.55-12-11.3-21.65-8-10-18.65-15.1-11.45-5.55-24.1-4.4"/><path fill="#00273c" d="M101.9 94.7q-1.25-15.75.4-16.25 1.5-.4 12.25 14.85 10.5 14.85 12.25 19.15.75 1.8-2.05 3.15-2.5 1.25-6.75 1.6-10.35.9-12.65-2.9-2.2-3.7-3.45-19.6"/><path fill="#0d131a" d="M102.1 77.75q1.7-.55 9.25 9.2Q120 98 127 111.7q1.3 2.5.65 2.5t-1.45-1.5q-6.35-11.75-15.15-23.4-7.5-9.9-8.25-9.6-1.1.45-.35 12.9.7 12.5 2.15 17.95.65 2.4.05 2.35-.6 0-1.2-2.15-2.05-7.85-2.45-20.3-.4-12.25 1.1-12.7m20.2 59.5-.75-.95 1.3.2q4.05 1.2 9.1 6.15 4.55 4.5 6.35 8.25l.55 1.65-.9-.2-4.3-1q-4.45-1.3-7.95-3.85-1.6-1.2-2.25-5.3l-.6-4.3z"/><path fill="#fff" d="M123.85 137.9q10.05 7.2 13.45 13.45-1.6-.2-4.25-1.2-3.85-1.4-6.65-3.45-1.8-2.1-2.55-8.8"/><path fill="#e50012" d="M137.3 151.35q-2.45-.35-5.8-1.75 0-2.6 1.25-4.25 2.75 2.75 4.55 6"/><path fill="#0d131a" d="m149 162.7.1-.3.4.3q.7.9.45 1.95-.1.6-.4.6-.3.05-.4-.5l-.05-.9zm-14.4-15.3q.45 0 .75.45l.25.9-.3.85-.7.4q-.4 0-.7-.35-.25-.35-.25-.9 0-1.35.95-1.35m3.45-4.05q-.4-.7-.15-.8.3-.05.9.5 2.9 2.85 1.95 6.35-.15.65-.4.55-.25-.05-.25-.8-.1-2.55-2.05-5.8m38.7 56.35.65.15q.7.2.8.45 4.35 12.2 8.15 25.15 3.55 12.3 5.1 20.2.4 2.1.1 2.35t-2.3-.55l-4.75-2 8.05 9.55q1.95 2.35 1.75 2.8l-2.95-.3-4.85-1.05q10.95 6.4 17.3 13.45.75.8 1.3 4-6.35-8.2-18.9-16.05-4.15-2.55-3.95-3.05l5.05.4 4.5 1-7.9-9.6q-2.7-3-2.5-3.3.25-.3 4.05 1.25l4.75 1.8q-1.65-8.35-5.15-20.7-3.9-13.8-8.3-25.95m-19.95 82.85q1.55-2.6 1.95-2.45.4.2-.9 2.95-3.6 7.5-4.25 17.15-.55 8.75 1.45 15.45.6 1.9.2 2.05-.45.15-1.2-1.75-2.7-7-2.25-15.8.5-9.85 5-17.6M133.3 145.3q-.7.3-1.2 1.7-.6 1.7.05 3.15l-.9-.15q-.6-1.55-.15-3.05.4-1.5 1.65-2.2z"/><path fill="#fff" d="M133.4 146.45q.35.1.5.4.2.35.05.65l-.45.5-.6.05-.4-.4-.1-.6.4-.5z"/></svg>