<svg xmlns="http://www.w3.org/2000/svg" width="180" height="198" viewBox="0 -1.4 180.15 198.3"><path fill="#59c2e1" d="M178.5 149.65q-.15 1.2-3.4 4.05-4.4 3.8-15.15 8.35-10.6 4.45-17.15 5.35 1.3 2.7 13.7 15.55.75.7.7 3.8 0 3.1-.7 4.15-1.2 2-17.15 3.6-16.65 1.75-23.55-.35-.7-.2-1.25-3.75-.45-2.95-.45-5.2 0-1.4.55-7.7l.5-6q-9.05.95-20.3-.4l-9.45-1.55-.3 1.3q-.35 1.35-.9 1.85l-5.4 3.1q-5.45 2.95-6.6 3.7-8.05 5.15-10.65 5.8-4.85 1.2-18.25-.4-12.7-1.55-14.7-2.95-1.1-.75-1.1-4.7-.05-3.85.9-4.8.75-.7 4.6-1.95l5.75-1.7q2.7-.85 13.4-5.2Q40 156.55 39.7 142.45q-.1-6.25 2.6-11.7 2.85-5.65 8.1-8.9.3-3.25 2.1-8.85l1.8-5q-10.55-1.15-14.75-6.75l-12.05-3.6-5.5-.45q-.5-.3.4-2.2l.95-1.8q-3.6-1.7-3.75-2.7-.1-.6 1.45-1.85l1.55-1.1Q19.85 85 19.85 84.2q0-.45 2.05-1.5l2-.95q-1.4-3.6-.85-4.45l2.35-.1 1.95.5.4-1.65q.45-1.7.95-2t2.7 1.55l2.05 1.9 5.25.85q1.7-4.95 5-11l4.35-7.9q1.05-2.15 1.2-4.35l-.05-1.8-8-1.1-9.35-1.15q-1.4 0-8.15 3.35-6.35 3.2-10 2.55-2.15-.35-6.8-4.75-4.95-4.7-5.95-7.95-.95-3.2 2.1-10.1Q6.6 26.1 12.3 24.6q1.8-.45 5.65.8l4.85 1.8q1.3.35 4.9-.55 3.35-.85 6.85-2.3 2.2-.9 4.8-4.35l4.8-6.95Q50.55 3.6 55.9 2.8q3.45-.55 7.9 1.2 2.25.85 3.75 1.8 8.3-7.2 17.95-4.15 9.4 2.95 15.85 14.05 4.05 7.1 7.8 18.9 5.55 17.3 9.6 42.25 8.85 1.8 25.45 7.45l3.45-.35q3.55-.25 3.9.35.55.95-2.5 5.25l2 .6q2.05.7 2.1 1.25.15.85-3.2 3.35l1.55.65q1.55.75 1.55 1.5 0 1.2-3.9 3.25l1.05.85q1.05.95 1.05 1.5 0 .9-5.95 2.95-1.95 5.6-3.15 5.7-.75.05-2.85-2.05l-2-2.15-8.65-.1q3.6 11.15 16.8 22.45 12.9 11.05 28.45 16.7 4.8 1.75 4.6 3.65"/><path fill="#ed8599" d="m134.45 80.9-16.1-4.1q-5.5-31.2-7.8-37.15 24.8 7.35 24.9 8.45T124.7 60.6q23.8 3.5 24 4.5.25 1-14.25 15.8m33.45 62.2-6.1-2.75q-6.75-3.35-9.9-6.1 3.7-6 9.6-13.5 6.85-8.6 8.35-8.1 1.7.55.2 14.3zM76.15 64.85l-7.8 23.4q-3.1 8.6-8.65 12.5-4.85 3.4-9.15 2.1-4.4-1.3-6.2-7.3-2.1-6.95.05-18.3 1.9-10.3 13.75-23.45 15.1-1.05 23.85-2.9-1.6 1.25-5.85 13.95"/><path fill="#ce7486" d="M79.35 55.75q-1.3 3.2-3.7 10.35-4-3.5-13.6-2.6-10.6.95-15.6 7.5 2.55-4.95 5.7-9.7 3.5-5.2 6-7.5 15.1-1.05 23.85-2.9-1 .8-2.65 4.85m49.7 23.8L148.4 65.6l-14.1 15.5zm-4.3-18.9-.7 3.35-.75-2.2q-.7-2.45-.3-3.8.25-.85 6-5.35l6.4-4.8zm45.6 53.5q.65 2.3-1.1 16l-1.85 13.25-3.6-2.15z"/><path fill="#4da9c3" d="m136.9 107.05-33.45-2.4q-2.8-.65-5.35-3.45-2.3-2.55-2.45-4.35l23.2 2.95q19.15 2.7 20.2 4.1 1.3 1.65 3.1 7.25zM21.4 97.2l2.85-1.25q2.95-1.25 3.55-1.25l5.15.9 4.45.85 1.6 5.05-11.35-3.65zm27.85-43.9 3.35.2 6 .1q-2 2.05-4.25 4.8-4.5 5.5-5.8 9.1l-4.45-.55 3.3-5.55q3.05-5.95 1.85-8.1m-8.85 93.35q.9 1.35 2.3 2.35 4.5 3.3 11.95 2l1.7 2.4q2.3 2.9 5.35 5.5 9.75 8.35 23.35 10.6l-.1 1.75q-.3 1.9-1.6 2.45-9.2 4.05-11.5 6.05-2.85 2.45-5 3.55-4.2 2.25-9.25 2.35l-17.2-1.25q-11.4-1.45-12.2-2.75-.85-1.3-.95-4.7-.1-3.35.6-4.15.4 1.6 12.95 3.45l19.1.55q5.25-1.2 6.15-4.95.95-3.9-5-5.3-9-2.15-13.7-6.5-5.3-4.9-7.6-14.55z"/><path fill="#4da9c3" d="M74.35 156.6q13.15 1.4 20.2-3.15l.8 1.9q1.2 2.35 3.05 4.6 5.9 7.1 16.4 10.2v1.4q-18 1.05-31.15-2-24.2-5.7-31.6-24.2 7.25 9.65 22.3 11.25"/><path fill="#4da9c3" d="M145.45 143.7q.2 5.2-.7 9.7-2.8 14.45-15.45 17-13.2 2.65-24.1-4.45-10.6-6.85-12.35-18.25 2.9 3.65 10.7 5.35 7.55 1.65 16.25.8 9.25-.9 15.85-4.35 7.4-3.85 9.4-10.05z"/><path fill="#4da9c3" d="M168.6 157.95q-9.05 5.3-25.85 9.5l-2.45-3.35q4-6.55 4.4-9l12.5-.5q13.75-1.05 20.05-3.95-3.55 4.25-8.65 7.3m-54.2 28.1q1.05 2.85 21.65 1.7 20.6-1.2 20.8-4l.25 3.15q.05 3.35-1 4.15-3.3 2.55-20.3 3.8-17 1.3-19.7-.85-.6-.45-1.2-4.05-.6-3.3-.5-3.9"/><path fill="#922f00" d="M43.25 89.5q.7 9.05 5.55 12.9l-3.5-.9q-3.6-3.5-4.55-6.85-1.6-5.35 1.3-13.65l1.5.25z"/><path fill="#fff3c2" d="M101.1 78.45q-1.5 1.05-3.05 3.5-3 4.8-2.9 11.55.1 6.7 5.05 9.75 2.45 1.55 4.9 1.7-12.7 3.2-26.9 14.4-7.1 5.6-11.65 10.55-7.05-2.35-10.85-10.35-1.2-2.5-1.9-5.3l-.5-2.25 1.8-4.1q7.4.8 12.65-2.4 6.35-3.9 11.45-14.45z"/><path fill="#4da9c3" d="M83.65 75.75q.7 6.65.05 13l-5.2 3.4q3.05-6.75 5.15-16.4"/><path fill="#dbd2a9" d="M78.4 105.1q-3.75 6.1-9.15 9.1-5 2.75-9.5 1.9-4.6-.85-6.4-5.1l1.05-3.15 2.4.55 6-.4q9.6-2.55 15.7-15.85l5.2-3.4q-1.05 9.45-5.3 16.35"/><path fill="#fff" d="m12.7 56.8 5.9-.3q0 6.2-.9 6.35-.9.1-5-6.05M24 54.7l7.3-3.65q.45 10.05-.7 10.75-.7.45-3.75-3.3zm24.4 12.9-2.15 4.5q-6.65-4.1-6.1-5.25.3-.55 4.3.05zm-3.55 8.55L43.6 82q-6.75-4.4-6.4-5.55.2-.7 3.95-.6zM35.3 92.6q-3.8-4.4-3.4-5.15.45-.8 5.75 1.2 5.1 1.85 5.55 2.5l1 4.35-.75 1q-1.05.95-2.25.8-1.95-.15-5.9-4.7m27.95 5-3.35-5.25Q56.6 87 57.1 86.6q.8-.65 4.95.95 2.2.85 5.4 2.35zM71 80.5l-3.3-2.85Q64.4 74.7 64.6 74l4.3-.3 4.1.55zm3.35-10.95-3.5-2.4q-3.45-2.5-3.35-3 .15-.75 3.35-.75l5.4.15z"/><path fill="#0d131a" d="M18.55 90.3q-.05-.6 1.5-1.8l1.5-1.05q-3.1-2.7-2.95-3.55.1-.55 2.1-1.55l2-.85q-1.35-4.05-.8-4.95l2.55-.1 2.15.6.4-1.95q.55-2 1.25-2.1 1.25-.1 5.6 3.7l1.35.3 2.85.15.55.95.5.95-3.8-.45-1.85-.4-2.3-1.65q-1.9-1.45-2.35-1.35-.35.1-.65 1.5l-.3 1.95-1.95-.5-2.25-.3q-.25.2.45 2.35l.7 2.1-1.95.7q-1.95.8-2.05 1.35-.2.85 2.8 3.3l-1.45.95q-1.45 1.05-1.5 1.5-.05.7 3.85 3l-1 1.5q-1 1.5-.8 1.7.6.65 4.85.5l4.75 1.3q5.1 1.55 6.95 2.5.6 1 1.25 1.6l1.45 1.35-14.3-5.1-3.5-.1q-2.95-.2-3.3-.85-.25-.5.55-2.1.75-1.5 1.25-1.95-4.05-2.15-4.1-3.15m31.5-37.2q.95 1.95-.65 5.65l-4.2 8.05h-2.3q3.65-5.75 4.75-8.7 1.15-3 .35-5.1z"/><path fill="#0d131a" d="M84.75 69.45q1.4-2.25 2.35-2.75 1-.5-.5 2.25-1.05 2-2.4 7.7-3.95 16.4-9 23.6-6 8.6-16.4 8.95-10.2.35-16.25-3.8-6.1-4.15-6.8-12.05.65 1.05 2.15 1.9 1.45 6.4 7.4 9.3 5.35 2.6 13.8 2.2 8.35-.4 14.05-7.6 5.9-7.4 9.3-22.5l.85-3.5q.6-2.35 1.45-3.7m-45.1 9.45q-1.7 4.85-2.05 9.65L35.85 88q.5-5.2 2.25-10.2.4.35 1.55 1.1m3.8-8.8L40.7 76h-2q1.05-2.85 3-6.8zm93.4-22.45q.05.45-1.15 2.1l-5.45 6.15-5.05 5.6q-.25.3-.55 1.85-.55 2.25-1.1-.2-.5-2.45.35-3.4l6.2-6.55q4.05-4.3 3.95-4.7-.25-.8-22.45-7.45l-.65-2.6q3.15.8 13.25 4.2 9.25 3.1 10.8 3.75 1.75.75 1.85 1.25"/><path fill="#0d131a" d="M147.85 63.8q1.85.45 2 1.15.15.5-.9 1.85L135.55 81q-1.8-.2-2.35-.6 14.2-14.3 14.1-14.65-.05-.4-11-2.3l-12.3-1.9 1.3-2q1.2 0 11.15 1.95zM83.6 49.7q5-1.1 6-.8 1.05.3-3.45 1.8-4.65 1.55-14.3 2.75L52.2 54.5l-12.1-1.6-8.05-1.1q-.75.1-7.4 3.1-6.3 2.9-10.1 3-3.35.1-8.8-4.95Q0 47.6 0 43.25q0-6.8 4.25-13.2 4.4-6.65 9.55-6.65 1.7 0 5.4 1.4 3.7 1.35 4.9 1.35 4.1 0 14.65-3.95l8.95-3.55 1.2-.3q.3.2-.35.7-3.95 3.25-12.9 6.3-8.1 2.75-11.75 2.75-1.45 0-4.9-1.3-3.4-1.3-5.4-1.3-4.05 0-7.7 5.65-3.7 5.7-3.7 12.1 0 3.65 5.5 8.45 4.9 4.3 7 4.35 3.4.05 9.7-2.95 6.8-3.25 7.1-3.3 1.35-.25 10 1.25l10.7 1.65 16.25-.8q9.3-.95 15.15-2.2"/><path fill="#0d131a" d="M63.35 2.7q2.05.8 5.45 2.8-1.3.7-1.9 1.15-1.9-1.2-4.3-2-2.5-.8-4.45-.8-6.95 0-12.5 8.55l-4.7 7.05Q38 23.25 34.6 25l-3.1-.15q3.85-1.5 7.1-5.45l5.15-7.55Q46.8 7.1 49.4 5q3.65-3.05 8.5-3.35 2.45-.15 5.45 1.05m110 141.95q4.9 2.05 5.8 3.5 1 1.7-1.6 4.55-4 4.4-13.15 8.55-9.1 4.15-21 7.05l-1.35-1.75q12.05-2.85 21-6.95 9-4.1 12.2-8.25 1.7-2.1 1.15-2.85-.4-.55-4.15-2.15-17.7-7.6-28.7-17.55-10.1-9.15-16.3-22h2.4q6.05 12.2 15.85 21.05 10.85 9.7 27.85 16.8M48.4 130.7q0-10.65 5.3-23.1l2.2.2q-1.95 3.35-3.6 10.55-1.65 7.15-1.65 12.15 0 22.95 20.1 33.15 16.8 8.5 44.05 6.9v2.1q-27.15 1.6-44.75-7.15-21.65-10.8-21.65-34.8"/><path fill="#0d131a" d="m115.6 55.4 4.4 21.5-2.45-.5-4.15-20.35Q107.35 24.9 97.35 11.8q-7.3-9.65-17.1-9.65-9.65 0-17.95 11.2l-6 8.65q-3.25 4.55-5.75 5.95-2.8 1.55-13.15 3.15-9.8 1.55-12.7 3.7l-3 1.95q-1.2.55 1.1-1.95 3.1-3.4 12.45-4.95 11.1-1.85 14.35-3.5 2.1-1.05 5.15-5.6l6-8.9Q69.5 0 80.25 0 93.5 0 102.7 16.15q7.8 13.65 12.9 39.25M16.2 41.55q.55 0 .8.5.3.55-.2 1.25-.75.95-.95 2.65l-.2 1.55-.5-1.2q-.4-1.4-.35-2.45 0-2.3 1.4-2.3M41.75 80.4q.2.65.95.85-1.85 4.15-1.85 8.2l-1.35-.25q.3-4.4 2.25-8.8"/><path fill="#0d131a" d="M77.05 64.45q-1.8 5.6-5.3 17.7-3.3 10.3-6.95 15.25-4.75 6.5-11.6 6.5-9.2 0-12.35-6.75l1.9-.3q3.2 5.2 10.45 5.2 9.25 0 16.5-20.3 6.9-23.7 10.6-30.5l3.5-.65q-3.55 4.1-6.75 13.85"/><path fill="#0d131a" d="M44.6 98.8q-2.75-4.65-2.45-12.15.75-17.7 15.55-33.35l1.75.2q-14.1 14.6-15.3 32.15Q43.65 93 46 97.6q2.4 4.7 6.85 4.7l-.15 1.25q-5.2 0-8.1-4.75m39.6-24.2 1.35-.75 1.8-1.65q1.2-1.65 1.2-.6 0 1.1-1.3 2.65-1.85 2.25-4 3.55zm19.8 1.7-4.05 3.55q-6.7 3.85-11 6.45Q81 91.1 76.6 95.05q.5-1.65 2.1-4.15 3.25-2.8 11.55-7.45 6.5-3.65 13.75-7.15m-37.85 30.3q-.5 4.6-.05 11.45.35 5.35 1.2 10.6l-2.25.15q-1.05-2.75-1.25-9.6-.15-6.2.45-12.3l.95.1z"/><path fill="#0d131a" d="M54.3 109.45q-.2 6.8 3.85 12.3 3.45 4.7 8.2 6.4 9.5-9.2 19.25-15.15 7.35-4.55 16.95-8.3l4.35.85q-9.95 2.15-23 11.3-9.85 6.9-15.35 12.85-1.4 1.5-1.95 1.55l-2.4-.95q-3.35-1.8-6.35-5.45Q53.6 119.6 52.7 113zm-1-95Q57.95 8 65.35 8.5l-1.8 2q-2.75-.05-5.05 1.15-1.9 1.05-4.3 3.55-1.35 1.35-1.7 1.1t.8-1.85"/><path fill="#0d131a" d="M109.95 74.7q4.45 0 9.05 1.15 4.9 1.2 25.4 7.45l4.6-.2q3.05.15 3.55 1 .35.5-1.1 2.8l-2.3 3.1-1.05-.3q2.95-4.25 2.65-4.85-.25-.55-6.55.15-10.7-3.65-20-5.95-9.85-2.5-14.15-2.5-5.15 0-8.9 3.45-3.35 3.05-4.6 7.9-1.25 4.7.05 8.75 1.4 4.35 5.2 6 3.85 1.7 18.4 2.75l17.65.75q3.65 3.9 4.2 3.75.4-.05 1.2-1.55l1.45-3.3q5.2-2.15 5.45-2.9.1-.25-1.15-1.05l-2.35-1.35q-1.9-.9-1.45-1.25.45-.3 2.45.5 1.8.75 3.3 1.85 1.35 1.05 1.4 1.5.15 1.3-6.55 3.8l-1 2.7q-1.2 2.7-2.25 2.85-1 .2-3.55-1.85l-2.4-2.05-14.8-.35q-15.75-.7-20.4-2.4-4.4-1.6-6.35-6.6-1.8-4.7-.65-10.25 1.2-5.75 5-9.4 4.25-4.1 10.55-4.1"/><path fill="#0d131a" d="m147.1 88.9 4.05.75q2.75.8 3 1.55.2.5-.9 1.65l-2.6 2.1q-.8.5-1.5.25-.7-.3.1-.8l2.15-1.7q.85-.8.75-1.15-.05-.3-2.25-1-2.05-.7-3.15-.85-1.3-.25-1-.55.3-.25 1.35-.25"/><path fill="#0d131a" d="M149.15 93.9q1.85.6 3.25 1.4 1.55.85 1.65 1.5.2 1.2-4.15 3.7l-1.15-.1q-.65-.4-.15-.75l3.3-2.65q0-.5-4.05-2.2-2.55-1-1.75-1.35.75-.35 3.05.45M92.4 134.85q2-9.6 7.4-14.1 1.7-1.4 2.05-.95.3.45-1.25 2.1-4.5 4.75-6.25 13.55-1.75 8.45.15 14.75 2.8 9.35 11.9 15.2 7.1 4.55 13.75 5.1 2.3.2 2.2.8-.15.65-2.45.45-9.4-.7-17.15-6.5-7.95-5.95-10.25-14.5-1.95-7.05-.1-15.9m46.05 42.7q.4-.2 1.6 1.2l3.5 3.85 2.6 3.1q.4.9.2 3.7l-.3 4-1.6.5.05-4q-.1-2.75-.4-3.55l-2.15-3.1-2.9-3.95q-1.05-1.5-.6-1.75m-8.05 7.15.9 1.65q.45 1.8-.7 8.1l-.9.15-.9.1q.35-1.45.4-4.25.05-2.85-.25-3.65l-.8-2.3-1.15-3q-1.05-2.35-.6-2.6.4-.25 1.75 2.1z"/><path fill="#0d131a" d="M115.45 169.9q.9.25.85.55-.95 8.65-.8 15.05l.5 4.65q.45 3.1.75 3.15 5.65 1.85 20.9.55 15-1.3 18-3.7.45-.4.5-3.15t-.5-3.3l-5.6-5.8q-6.2-6.85-10.4-13.25-.1-.2.4-1 .55-.8.7-.6 5.3 7.2 10.9 13.45l5.5 5.75q1 1.05.7 4.8-.25 3.55-.95 4.4-2.3 2.7-20.7 4.1-18.25 1.35-20.9-.7-.8-.6-1.45-4.4l-.7-4.6q-.2-.9.4-7.3.5-5.8.95-8.7z"/><path fill="#0d131a" d="M143.8 140.15q-3.15-18.95-20.1-25.3-3.05-1.15-2.85-1.75t3.35.35q8.75 2.7 14.55 10 5.25 6.6 7 15.45 1.7 8.45-.25 16.1-2.05 7.9-7.35 11.95-2.05 1.55-2.2 1t1.7-2.25q3.95-3.6 5.65-10.7 1.75-7.15.5-14.85M41.4 145.6q.9 6.85 5.05 11.95 4.65 5.65 12.35 7.9 4.1 1.2 2.75 1.65t-5.8-1q-7.25-2.4-11.65-8.3-4.1-5.45-4.85-12.6-.75-7 1.9-13.45 2.8-6.7 8.6-10.75.35-.2.3 1.1-.1 1.25-.65 1.65-4.55 3.35-6.75 9.4-2.15 6-1.25 12.45m18.9 25.65q.3.2-1.7 1-9.05 3.55-9.75 4.45-.15.15-.35 3.8l-.05 4.75-1.7-.9q-.3-5.75-.15-6.9.1-1.3.35-1.6l1.9-1.05q6.05-2.4 9.1-3.2z"/><path fill="#0d131a" d="M27.6 171.45q.45-.35 2-.8l13-4.1q6.25-2.1 8.8-3.5l1.3.35q1 .5.75.6-3.7 2.05-14.2 5.65-9.8 3.35-10.1 3.65-.65.55-.7 3.45-.05 3 .75 4.4.5.9 11.9 2.35l16.4 1.05 5.45-.75q3-.9 6.85-3.85 1.65-1.25 6.95-4.15l6.05-3.45q.9-.7 1.15-1.45.2-.65.05-1.65l1.7.6q.25 1.3 0 2.15-.35 1.1-1.55 2l-5.45 2.9q-4.95 2.45-7.1 4-5.25 3.85-8.35 4.95-1.95.75-5.7.95l-13.85-1q-10.5-1.25-14.35-2.6l-1.35-.7q-.4-.4-.75-1.5-.45-1.6-.65-3.9-.2-2.45.1-3.85.3-1.3.9-1.8"/><path fill="#0d131a" d="M37.45 175.3q-.4.2-.45 3.5-.1 3.1.1 5.05l-1.7-.45q-.5-4.75-.3-7.65.05-.95.4-1.3l1.2-.65 5.05-1.8 6.1-1.85q2.55-.65 2.75-.35.25.3-2.05 1.05l-6.2 2.35q-3.45 1.4-4.9 2.1m20.4-88.35q-.2.35 2 4.05 2.15 3.65 4.05 6.1.25.35-1.05 1.2l-4.15-6.35q-3.1-5.2-2.5-6.1.55-.8 5.45 1.05 3.85 1.4 6.8 2.95l-.3.5q-.45.45-.6.35-1.9-1.1-5.65-2.55-3.85-1.5-4.05-1.2M73 73.5q.3.05.05.7t-.5.55l-3.85-.5-3.45-.15q-.2.3 2.4 2.8l4.05 3.5q.35.25-.15 1.45L65.85 77q-2.75-2.65-2.4-3.5.25-.5 4.05-.45zm-3.75-6.85q-2.95-2.45-2.7-2.95.35-.6 4.45-.85 3.7-.25 5.1-.05l-.05.75-.4.7-4.45-.35-2.75.25 2.25 2 3.9 2.9q.35.25-.2 1.45zM36.2 87.4q4.6 1.35 5.7 2.1 2.7 1.95 2.75 5.05.05 3.2-3.15 3.3-2.05.05-6.5-4.95-4.4-4.9-3.9-6.15.25-.75 5.1.65m-.05 5.25q3.95 4.4 5.6 4.15 1.55-.25 1.6-2 0-1.65-1.35-3.3-.75-.9-4.9-2.5-4.1-1.55-4.35-1.2-.4.6 3.4 4.85M38 76.5q-.1.3 2.45 2.25l3.7 2.55-.3 1.4L39 79.15q-3-2.5-2.65-3.1T40 75.4l4.85.25L44.6 77l-3.9-.55zm2.75-9.3q-.1.35 1.75 1.65 1.75 1.3 3.55 2.25l-.2 1.45q-1.85-1-4.45-3.2-2.7-2.35-2.5-3l4.15-.2 5.35.75q-.25.35-.35 1.3-1.2-.4-4.2-.85zM14.3 60.25 11.05 56l3.15 1.35 1.9 2.8L17.55 62q.25-.15.35-2.35l-.05-2.8.6-.65q.6-.55.65-.4.45 1.5 0 4.5-.4 2.85-.9 3.25-.8.55-3.9-3.3m18-9.2q.2 1.5-.15 6.2-.45 5.15-1.2 5.35-.85.2-3.8-2.7-2.8-2.8-4.15-4.9-.05-.1.85-.5.95-.4 1-.3L28 58.7q1.95 2.4 2.35 2.25.35-.15.25-4.2-.05-3.8-.3-5.2-.05-.35.95-.65t1.05.15"/><path fill="#515457" d="M91.75 39.95q-4.75 3.8-12.25 3.6-7.5-.25-14.55-2.5-6.7-2.1-7-3.85-.1-.4 1.95-3.65 2.3-3.8 5.15-7.25 8.45-10.25 15.1-9.9 8.3.45 12.9 5.5 3.8 4.2 3.5 9.05-.4 5.45-4.8 9"/><path fill="#fff" d="M82.25 43.25q-6.4.4-12.7-1.05-4.05-9.95-1-20.2 3-10 9.35-9.95 6.2.05 9.5 9.4 3.45 9.85-.05 21.1z"/><path fill="#a41e3a" d="m82.4 42.95-5.25.35Q74.6 39.1 74.4 32q-.15-5.7.8-9.2 1.2-4.15 3.75-4.2 2.2-.05 3.75 3.55 1.55 3.65 1.7 9.55.15 6.8-2 11.25"/><path fill="#0d131a" d="M79.05 26.05Q80.3 26 80.6 31.8t-.9 5.8q-1.3 0-1.6-5.7-.25-5.7.95-5.85"/><path fill="#0d131a" d="M83.2 21.95q1.65 4 1.9 9.4.15 3.35-.4 6.55-.6 3.2-1.65 5.2l-1.6.05q1.1-1.65 1.7-4.55.65-3.3.45-7.15-.35-5.75-1.65-9-1.25-3.15-3.05-3.05-1.65.1-2.7 3.05-1.25 3.45-1.1 9.3.05 3.65 1 6.9.8 3 2 4.55l-1.5.05Q75.35 41.2 74.55 38q-.8-3.15-.85-6.1-.2-6.3 1.45-10.35 1.5-3.7 3.75-3.8 2.5-.05 4.3 4.2"/><path fill="#fff" d="M77.3 24.5q-.05-1.6.35-2.6.45-1.1 1.25-1.15.75 0 1.25.95t.6 2.55q.1 1.95-.35 3.1-.45 1.1-1.2 1.1-.9 0-1.45-1.35-.45-1.15-.45-2.6"/><path fill="#0d131a" d="M83.75 13.9q3 2.8 4.8 7.55 4.1 11.1-.9 21.05-.1.25-.95.5t-.65-.1q4.05-9.35.8-20.15-1.4-4.7-3.85-7.45-2.55-2.85-5.55-2.5-6.3.8-8.5 11.15-2.2 10.2 1.75 18.25l-1.15-.05q-4.8-6.85-2.5-18.25Q69.4 12 77.25 11.3q3.4-.3 6.5 2.6"/><path fill="#0d131a" d="M85.1 16.2q5.2 1.2 8.8 5.45 3.5 4.1 3.65 8.8.2 5.95-4.5 9.8-4.5 3.75-11.4 3.95-7.25.2-16.2-2.35-8.55-2.45-8.6-4.25-.1-1.75 3.45-6.7 3.8-5.4 8.5-9.4-.4 1.4-.7 3.25-3.8 3.65-6.6 7.55-2.7 3.75-2.45 4.9.25 1.35 8.1 3.45 8.25 2.2 14.4 2 6.2-.2 10-3.45 4-3.35 3.85-8.7-.1-3.8-2.7-7.15-2.5-3.2-6.25-4.8zm85.45 95.3q1.45.65.4 13.35-.75 9.65-2.2 19.05l-2.35-1.2.05-.05q1.3-5.45 2.55-16.75 1.3-11.65.5-11.95-.85-.35-8 8.8-7.1 9.1-8.65 12.4l-.9-.8-.85-.8q3.3-5.95 10.05-14.05 7.4-8.9 9.4-8"/></svg>