<svg xmlns="http://www.w3.org/2000/svg" width="123" height="252" viewBox="-2 -1.05 122.55 252.05"><path fill="#0d131a" d="M84.8.45q4.25 1.85 5 7 .75 5.5-2.5 15.3-1.3 3.9-3.9 9.6-2.8 6.2-4.95 9.6-3.1 4.95-5.05 7-2.7 2.75-5.15 2.55-3.65-.25-5.15-9.65-1.25-7.8-.45-13.85.35-3 1.4-7.15 1.15-4.5 2.45-7.55 3.3-7.8 9.45-11.35 5.3-3 8.85-1.5"/><path fill="#60615f" d="M84.8 3.05q6.55 3.3.9 20.35-2.2 6.6-7.05 15.25Q72.9 48.9 69.9 48.9q-3.75-.05-5.25-7.9-1.2-6.35-.5-12.4.35-2.9 1.2-6.6 1-4.25 2.1-6.9 3.2-7.55 8.6-10.9 4.9-3.1 8.75-1.15"/><path fill="#0d131a" d="M83.9 11.6q2.1 1.95 1.55 6.95-.45 4.2-3.05 12.15-1.75 5.15-5.5 11.75-2.7 4.75-5.5 7.3-2.15 2-3.4 2.05-2.6.15-2.35-5.15.05-1.85 1.25-8.9.95-5.75 2.4-11 2-7.05 4.25-10.5 2.9-4.4 5.6-5.55 2.6-1.1 4.75.9"/><path fill="#f09cb4" d="M82.95 12.95q1.8 1.3 1.45 5.95-.35 4.1-2.3 10-1.9 5.55-5.3 11.85-4.95 9.15-8.35 9.35-2.15.1-1.35-6.15l1.7-9.3q.7-4.1 2.1-8.8 1.6-5.4 3.1-7.9 4.75-7.9 8.95-5"/><path fill="#0d131a" d="M47.85 146.55q.1 4.35-.8 7.65-1.35 5.05-4.8 6.15-5.75 1.95-9.6-2.75-3.9-4.75-2-12.05 1.3-5.3 4.6-7.95 2.8-2.25 5.65-1.7 3.05.65 4.6 2.5 2.15 2.6 2.35 8.15m26.95-.45q-.4-7.9 1.65-11.7 1.65-3.05 4.65-3.05 2.75 0 6.55 5.3 4.15 5.8 4.15 11.8 0 4.05-1.95 7.5-2.45 4.4-6.75 4.65-5.35.35-7-3.95-.9-2.3-1.3-10.55"/><path fill="#b1826f" d="M76.4 147.6q-.15-3.25.05-5.05.7-6.1 2-7.95.9-1.3 3.2-1.3 2 0 4.8 4.05 2.85 4.1 3.65 8.45.4 2.3.2 4.25l-.75 1.6-1.15 1.45-.1-1.05q-.1-.5-.45-.3-.6.4-.5 2.2l-.65.45q-.6.4-2.2.9.15-1.35-.05-2.3-.25-1.1-.85-1-.15.05-.35 1.3l-.4 2.45-1.7.35h-2l-1.5-.15q-.55-1.35-.9-3.55-.25-1.95-.35-4.8"/><path fill="#956e5d" d="m86.7 154.4.65-.45-.25 1.85-.5 1.55-.45.75q-1.4.95-3.45 1.05l.6-.75 1-1.9.2-1.2q1.6-.5 2.2-.9m1.7-1.3 1.15-1.45.75-1.6q-.35 3-2 5.5v-.5l.15-1.3zm-8 5.9q-1.85-.35-2.75-3.05l1.5.15h2l1.7-.35-.35 1.1q-.45.9-1.25 1.6z"/><path fill="#b1826f" d="M46.25 147.75q-.05 3.9-.65 6.15l-1.4 1.15-1.8 1.05-2.95.65-1.6.1-.45-1.3q-.1-.85.1-2.55.15-1.25-.1-1.3-.55-.1-1.05.8-.55 1.1-.45 3.1l.25 1.2-2.95-.65v-.05l-.55-.85v-2.65q.05-.9.4-1.85l.2-.85-.45.05q-.35.3-.65.95-.25.55-.4 1.95-.55-2.65.05-6.15.75-4.1 3.4-6.8 2.3-2.35 4.5-2.35 2.65 0 4.3 1.8 2.3 2.6 2.25 8.4"/><path fill="#956e5d" d="M40.4 159.3q-.35.1-1.2-.7l-1.35-1.75 1.6-.1 2.95-.65 1.8-1.05 1.4-1.15-.05.3q-1.25 4.45-5.15 5.1m-2.95.05q-2.65-.75-4.25-3.2l2.95.65q.3.95.9 1.9z"/><path fill="#0d131a" d="M49.35 40.45q-.25 8.95-3.85 9.8-2.45.6-5.2-1.25-2.2-1.55-5.8-5.65-2.65-3-6.4-8.7-3.45-5.2-5.35-8.85-4.8-9.25-5.05-14.6-.25-5.2 3.6-7.6 3.35-2.1 9.15 0 6.85 2.45 11.35 9.55 1.7 2.7 3.6 7.15 1.6 3.9 2.5 6.95 1.7 5.7 1.45 13.2"/><path fill="#60615f" d="M44.1 48.85q-2.95.5-10.3-8.75-6.15-7.75-9.4-13.95-8.25-15.9-2.3-20.2 3.5-2.5 8.85-.25 5.85 2.45 10.2 9.4 1.55 2.45 3.2 6.5 1.45 3.55 2.2 6.3Q48.2 33.8 48 40.2q-.2 8-3.9 8.65"/><path fill="#0d131a" d="M47.75 45.65q.9 4.85-1.7 5.15-1.3.15-3.75-1.35-3.3-2.05-6.65-6.3-4.1-5-6.8-10.3-3.9-7.6-4.95-11.2-1.35-4.55.35-6.75 1.85-2.4 4.6-1.95 2.95.45 6.45 4.25 2.8 3.05 5.85 9.7 2.25 4.85 4.1 10.45 2.15 6.35 2.5 8.3"/><path fill="#f09cb4" d="M46.05 43.5q1.75 6.1-.35 6.3-3.4.4-9.75-7.85-4.35-5.75-7.1-10.9-2.85-5.55-3.8-9.45-1.1-4.45.5-6 3.7-3.6 9.6 3.35 1.9 2.25 4.3 7.3 2.15 4.5 3.45 8.4z"/><path fill="#b1826f" d="M51.3 143.6q-1.85-3.05 8.3-3.5 10.3-.5 10.2 1.9-.25 3.3.2 8.15.6 6.6 2.2 10.65 8.65 21.95 10.85 38.15 2.25 16.25-1.8 28.2-3.95 11.8-13.6 18Q58.5 251 47.6 249.9q-12.35-1.25-19.55-10.3-8-10-5.15-25.15 1.4-7.6 7.4-16.55 4.85-7.3 11.7-14.05 5.6-5.55 8.25-11 2.5-5.2 3.25-12.3.45-4.6-.35-10.05-.7-5.1-1.85-6.9"/><path fill="#60615f" d="M41.1 191.5q8.05-4.05 17.55-3.55 13.1.7 20.35 12.1 2.9 4.6 3.95 9.75 1 4.85 0 8.35-.55 6.7-4.3 13.85-3.15 6-7.45 10.25 2.05-2.3 3.3-5.75 1.65-4.55 1.55-9.85-.3-10.4-7.85-17.35-7.15-6.55-16.45-6.45-10.4.15-17.3 5.55-6.65 5.2-9.05 14.4-1.15 4.2.15 9.45 1.25 5 3.95 8.4-4.65-4.3-6.35-10.55-.5-1.85-1-7.05-.45-5.5 1.25-10.95 1.9-5.95 6.15-11.2 4.95-6.1 11.55-9.4"/><path fill="#4a4b4a" d="M81.75 223q-2.4 11.2-9.3 17.55 2.95-3.9 3.55-10.1.5-4.8-.4-7.35 4.75-10.15 5.45-19.45l1.4 3.5q.85 2.5.65 4l-.25 4.2q-.3 4.1-1.1 7.65M27.7 203.15q-1.75 4.1-2.2 9.85-.4 5 .35 8.3-1.2 5.1-.65 9.65.4 3.25 1.8 6.65-4.45-4.7-4.75-15.7-.3-11.9 5.45-18.75"/><path fill="#60615f" d="M50.75 171.8q3.75-2.7 4.7-3.15 3.8-1.95 8.6-1.8 4.05.1 8.05 2.75 3.35 2.2 4.35 4.2 3.35 6.75 5.45 18.95-1.5-5.1-5.9-9.35-5.5-5.4-12.95-6.1-6.65-.65-12.3 1.7-1.6.7-7.05 4 5.7-7.85 7.05-11.2M51.8 145q-.25-.9 2.7-1.9 2.8-.95 6.5-1.35 9.7-1.05 9.2 2.6-.6 4.8-.15 7.75l1.85 7.5q-1.9-1.6-3.95-2.35-2.5-.9-5.85-.85-2.3.05-4.7 1.35-2.25 1.15-3.7 2.9.55-6.1-1.9-15.65"/><path fill="#956e5d" d="M81.9 192.3q1.45 3.85 1.9 11.45.35 6.95-.25 7.8-.75-4-2.35-7.35l-.15-5.8q-.15-5.75-1.4-10.75 1.1 1.5 2.25 4.65m-10.35 49.15q-4.7 4.5-11.2 6.75-5.8 2-11.35 1.8-12.55-.5-20.85-10.95-1.95-2.5-2.85-9.1-.9-6.7.45-9.3 1.4 6.9 8.4 11.5 6.1 4 13.85 4.85 7.5.8 15.25-2.75 8.55-4 12.3-11.35 1.2 4.55-.1 10.4-1.3 5.7-3.9 8.15"/><path fill="#0d131a" d="M75.15 236.5q-1.6 3.35-3.9 5.85l-1.65 1.35-1.8.85q3.05-2.85 5.05-6.7 2.35-4.6 2.35-9.25 0-8.95-5.35-15.8-6.15-7.85-16.65-8.8-12.15-1.1-20.2 6.85-7.6 7.4-6.8 17.35.7 9.2 7.5 16.4l-1.7-1.2-1.6-1.45q-2-1.5-3.9-5.6t-2.3-8q-1.05-10.8 7.3-18.85 8.8-8.5 22.05-7.5 11.2.85 18 9.65 5.95 7.7 5.65 16.95-.15 3.85-2.05 7.9"/><path fill="#0d131a" d="M59 187.3q10.65.55 18 8.75 6.7 7.45 6.55 15.5l-.55 5.4q.5-11.15-7-19.35-7.25-7.95-17.5-8.6-11.05-.7-20.2 5.15-8.3 5.3-13.4 14.65l1.6-3.6q.65-1.65 1.15-2.35 5.3-7.75 12.2-11.6 8.1-4.5 19.15-3.95"/><path fill="#0d131a" d="M42.7 183.45q3.9-3.35 7.7-4.95 5.45-2.3 12.1-1.85 8.15.55 14 6.3 4.95 4.9 5.15 9.4l.15 1.6q-1.05-4.8-5.6-9.35-6-5.95-13.8-6.5-6.25-.45-11.45 1.55-4.8 1.85-9.85 6.2zm29.8-14.55q3 1.95 4.1 4.25.95 1.9.6 3.8-1.1-3.55-5.05-6.25-4.2-2.9-9.05-2.9-4.15 0-7.1 1.2-3.2 1.3-6.2 4.5.5-1.5 1.2-2.55 1.6-1.9 4.15-3.1 3.5-1.7 8.1-1.65 5.2.05 9.25 2.7m-3.7-12.25q2.45 1.1 3 2.65l.65 2-.4-.45q-1.15-1.7-3.6-2.7t-5.35-.95q-2.9.1-5.4 1.4-2.4 1.25-3.8 3.2-.55.8-.6-.1-.1-.9.25-1.45 1.25-1.9 3.85-3.15t5.6-1.45q3.15-.2 5.8 1"/><path fill="#0d131a" d="M70.9 144.15q-.65 5.65 1.35 13.5 1.1 4.2 4.9 15.05 7.7 21.95 7.7 36.05 0 20.1-9.7 31.25-9.5 10.95-26.2 10.95-10.6 0-19.05-8.1-8.85-8.55-8.85-20.3 0-11.25 5.5-20.7 4.25-7.3 15.4-18.7 5.45-5.6 8.4-13.15 3.1-7.85 2.5-15.5-.55-6.15-1.7-9.2-.5-2.45.4-2.05.95.4 1.4 2.15 1.1 3.9 1.55 8.9 1.5 16.55-11.65 30.25-9.8 10.15-14 17.6-5.55 9.85-5.25 20.7.3 11.25 8.55 18.95 7.6 7.15 16.9 7.15 15.7 0 24.7-11.65 8.45-10.9 8.65-28.55.15-14.3-6.8-35.35-3.8-11.4-4.7-14.85-2.1-7.85-1.9-13.6.1-2.65 1-2.05t.9 1.25"/><path fill="#0d131a" d="M92.45 73.45q6.25-1.2 12.1-.05 7.5 1.4 10.45 6.2 5.55 9.1-.6 20.75-6.35 11.9-21.9 20.15-5.55 13.75-14.7 20.5-9.3 6.85-21.1 5.45-12.25-1.4-20.2-8.35-8.2-7.15-13.05-21.25-7.7-2.45-16.05-12.8Q-2 92.35.45 83.3q2.05-7.55 12.6-9 5.3-.7 10.15.1Q27.75 62.65 33.55 56q9.4-10.75 23.1-10.75 12.7 0 22.75 9 8.35 7.5 13.05 19.2"/><path fill="#b1826f" d="m91.4 75.25 9.1-.3q9.6.35 12.65 5.15 5.75 9.15-1.6 21-6.8 11-20.55 18.35-4.9 13.7-15 20.3-8.6 5.7-18.6 4.95-10.2-.25-20.15-9.15-10.1-9.15-12.35-20.6l-.9-4.8q-.3-1.2-.7-1.05-.3.1-.3.4v.35q-5.75-2.65-11.95-8.6Q6.1 96.5 1.75 90.6q-.7-3.6.25-6.75 1.65-5.25 7.95-6.95 4.35-1.2 11.95-.8.75.05.45 1.55t.15 1.55q.85.1 2.3-3.95 4.3-11.5 10.8-18.45 9-9.65 21.45-9.65 11.85 0 21.95 9.55 8.2 7.8 12.4 18.55"/><path fill="#956e5d" d="M23.15 115.05q-6.05-2.25-12.95-10-7.15-8-8.45-14.45 4.25 5.8 9.3 10.55 6.15 5.85 11.9 8.55 0 2.45.4 4.55.15.95-.2.8M78.1 138.7q-7.15 5.75-15.95 6.4-9.15 1.05-18.05-3.6-11.85-6.15-17.75-20.65-1.4-3.25-2.05-9.4l6.9 10.8q8.45 11.8 15.85 15 10.9 4.75 23.05-.15 14.25-5.7 18.3-22.15 18.7-10.4 27.15-25.2-.8 10.05-10.55 19.55-6.65 6.5-14 10.15Q86.55 132 78.1 138.7"/><path fill="#0d131a" d="M46.45 59.55q0 1.2-.4 2.05-.45.85-1 .85t-1-.85q-.4-.85-.4-2.05t.4-2.05q.45-.85 1-.85t1 .85q.4.85.4 2.05m18.95-.5q0 1.2-.4 2.05t-1 .85q-.55 0-1-.85-.4-.85-.4-2.05T63 57q.45-.85 1-.85.6 0 1 .85t.4 2.05M76.95 88.9q8.2 8.5 8.2 20.75 0 12.3-8.2 21.05-8.3 8.8-20.1 8.8-11.9 0-20.15-9.15-7.95-8.8-7.95-20.7 0-12.3 8.1-20.75 8.15-8.5 20-8.5 11.9 0 20.1 8.5"/><path fill="#fff" d="M75.8 90.1q7.6 8.1 7.6 19.65 0 11.65-7.6 19.9-7.65 8.3-18.75 8.3t-18.8-8.3q-7.6-8.25-7.6-19.9 0-11.6 7.6-19.65Q45.9 81.95 57 81.95t18.8 8.15"/><path fill="#0d131a" d="M65.45 98.9q3.9 4.8 3.9 11.45 0 6.75-3.9 11.75-3.95 5.05-9.35 5.05-5.35 0-9.2-5.05-3.85-5-3.85-11.75 0-6.65 3.85-11.45t9.2-4.8q5.4 0 9.35 4.8"/><path fill="#956e5d" d="M10.8 85.8q1.35-.65 1.7-2.55.3-1.4.95-1.2.75.25.95 2.25.2 1.95-.4 3.35-1.05 2.4-3.15 3.3l-3.95.25q-2.45-.55-3.95-2.95-.55-.95-.35-1.35l1.35.1q.6.3 2.75 0 2.4-.35 4.1-1.2m100.65 1.9q1.75-.05.05 1.6t-4.15 1.45q-2.75-.25-4.25-3.6-1.5-3.3-.3-3.3.75 0 1.5 1.05.85 1.3 2.1 1.8 2.8 1.15 5.05 1"/><path fill="#b1826f" d="M67.75 110.65q0 6.3-3.4 10.8-3.4 4.45-8.2 4.45T48 121.45q-3.4-4.5-3.4-10.8 0-6.35 3.4-10.8 3.35-4.45 8.15-4.45t8.2 4.45 3.4 10.8"/><path fill="#0d131a" d="M13.6 82.95q.2 3.85-2.15 5.75-1.85 1.45-4.4 1.1-1.65-.2-4.2-1.9-.75-.45-.4-1.05.3-.6.9-.25l1.85 1q1.05.55 1.9.7l2.85-.35-.2-.45-.65-.8-1.55-1.1q-.7-.4-.2-.7l.85-.05q.9.3 1.45.75l1 .95.45.45q1.15-.9 1.15-2.9 0-.5-.8-1.15t-2.5-.75q-.45 0-.45-.2l.05-.15.4-.35 1.45-.1q1.2.05 1.8.7-.4-1.05-1.5-1.7-1.35-.75-3.35-.5-.65.1-.45-.4.2-.55.9-.75 2.2-.55 3.95.8 1.75 1.3 1.85 3.4m96.1-4.45q.65.4.65.95.05.6-.6.3-1.85-.85-3.35-.55-1.2.2-1.9 1.1l.5-.15 1.4.05 1.35.55q.4.5.25.65h-.5l-2.55-.05q-.9.3-1.15.85-.65 1.8.15 3.1l.6-.25 1.25-.65 1.6-.25q.6 0 .8.35.35.35-.4.6l-1.85.5q-.45.25-.9.6l-.3.35q1 1 2.65 1.25l2.05-.1 2-.4q.7-.1.8.55.1.7-.75.9l-4.55.5q-2.55-.45-3.85-2.45-.8-1.25-.8-3.05-.05-1.5.55-3.05.75-1.95 2.85-2.65 2.1-.75 4 .45"/><path fill="#922f00" d="m57.9 66.35-.25 2.15-.45 1.75q-.95-1.15-2.8-1.15l-1.65.3q-.75.3-1.1.75l-.5-1.55q-.4-1.15-.35-1.65.3-.55 1.75-1.55t2.1-1.05q.7.2 1.9.95z"/><path fill="#ed8599" d="M51.65 70.2q1.3-1.3 3.55-.9 2.05.4 2 1.05-.1 1.05-.55 2-.75 1.5-2.2 1.5-1.5-.05-2.35-1.75-.8-1.5-.45-1.9"/><path fill="#0d131a" d="m58.2 66.8-.1 1.7-.35 2.3q-.7 3.5-3.15 3.65-1.1.05-2-.85-.95-.95-1.3-2.6l-.85-4.1 1.85-1.4q1.4-1.15 1.95-1.2.65-.1 2.05 1.1zm-2.1-1.2q-1.2-.9-1.6-.9-.5.05-1.85.95-1.3.9-1.3 1.15l.35 2.15q.4 2.3.75 3 .85 1.65 2.2 1.6 1.75-.1 2.35-3.4l.25-3.65z"/><path fill="#0d131a" d="m49.85 66.45 2.65-1.5q1.4-.85 1.8-.85.9 0 4 1.9 1.55.7 1.4 1.1-.15.3-.5.25L58.05 67l-3.6-1.8q-.25 0-2.2 1.05l-2.2 1.2-.95-.1q-.15-.45.75-.9m1.6 3.55q.8-1.25 2.8-1.3 2.1-.05 2.95 1.35l.15.9q-.15.35-.4-.2-.65-1.15-2.55-1.15-1.9-.05-2.7 1.2-.2.35-.35-.05-.1-.4.1-.75"/></svg>