<svg xmlns="http://www.w3.org/2000/svg" width="183" height="219" viewBox="-0.45 -0.4 183.1 218.7"><path fill="#a3611c" d="M126.45 62.05q8.7 9.75 13.3 22.15 4.7 12.8 4.25 26.3-1 28.6-18.45 46.15Q109 173.35 85 173.35q-26.4 0-45.3-17.4-19.5-17.85-20.45-44.8-.5-13.2 3.7-25.85 4.2-12.55 12.3-22.45Q53.2 41 80.85 41q13.25 0 25.25 5.7 11.55 5.45 20.35 15.35"/><path fill="#a3611c" d="M29.4 144.3q-5.7 7.8-16.7 9.2l-7.45-.2q-3.1-.7-3.3-2.1-.35-2.65 6.9-12.55Q16.3 128.5 21.3 125.4q.55 5.9 8.1 18.9"/><path fill="#fdebd1" d="M51.05 118.9q9-3.65 19.65-3.65 15.5 0 28.85 4.5 12.7 4.35 20.1 11.6 7.5 7.45 7.15 15.75-.35 8.95-9.9 16.85-6.85 3.9-11.6 5.75l5.25 7.95-12.5-4.5L96.2 181l-10.95-6.2-6.15 7.6-4.4-8.25-13.65 5.45 1.85-6.9-9.6 2.05-.9-.25q-.15-.4.25-.95l4.3-5.95q-7.25-3.3-18.45-12.5-5.85-6.6-5.9-13.9-.05-6.8 5-12.85 4.95-5.95 13.45-9.45"/><path fill="#c18963" d="m79.1 182.4 6.35-7.9 7.1 4.25q-.15 7 .2 8.6.2.95 1.85 1.95l3.25 1.65q3.55 1.85 12.05 2.3 2.6.15 4.6 4.35 2.15 4.5-.05 7.95-1.8 2.85-4.55 3.45-2.5.55-5.2-.85-.7 5.35-10.85 4.9-1.45-.05-3.4-1.9l-1.7-1.8q-6.05-.9-11.55-.1-1.3 1.7-4.45 2.8-3.65 1.25-7 .45-3.7-.85-4.95-2.3-1.35-1.45-.35-3.7-9.5 0-9.55-5.4-.05-3.5 2.05-6.65 2.4-3.55 5.95-3.55h6.05l4.55-.5q1.7-.55 3.2-1.7 1.35-1.1 1.5-1.85l.4-6 .2-6.2z"/><path fill="#fff" d="m59.3 204.55-4.8 2.8q-4.65 2.65-5.35 2.15-1.1-.7.4-4.95 1.6-4.6 4.55-6.3 2 1.2 3.5 2.85 1.75 1.95 1.7 3.45M71 208.4q.9 2.25-3.65 5.9-4.5 3.55-5.05 2.95-1.65-1.65-1.05-6.4.6-4.65 2.25-5.5 2.5-1.25 5 .35 1.85 1.2 2.5 2.7m23.15 1.15q-.35-3 2.75-4.3t4.85.9q.7.9.45 3.45-.25 2.3-1.1 4.5-1 2.75-1.85 2.8-.65.1-1.75-1.55l-1.9-2.9q-1.35-2.2-1.45-2.9m17.15-3.4q-.9-1.5-.15-3.85.75-2.45 2.55-2.9t4.2 2.8q2.2 2.95 2.95 6 .45 1.75-.05 2.15t-2.45-.45q-6.5-2.85-7.05-3.75"/><path fill="#a3611c" d="M115.65 164.65Q111 167.5 106 169.4zm-66.25-1.3q-4.9-3.1-8.8-6.55z"/><path fill="#fdebd1" d="m38.5 155.1-1.15-1.35 3.25 3.05z"/><path fill="#804a0c" d="M16.75 148.15q7.1-4.2 9.2-8.15 1.6 1.45 3.45 4.3-4.1 5.65-11.4 8.25-7.5 2.65-15.4 1 6.85-1.05 14.15-5.4"/><path fill="#986c4c" d="M58.9 190.9h6.05l4.55-.5q1.7-.55 3.2-1.7 1.35-1.1 1.5-1.85l.4-6 .2-6.2 4.3 7.75 6.35-7.9 7.1 4.25q-.15 7 .2 8.6.2.95 1.85 1.95l3.25 1.65q2.15 1.1 3.85 1.35l4.15.3q-9.3 5.35-24.25 4.8-14.9-.6-22.7-6.5"/><path fill="#dbdcdc" d="M59.3 204.15q.05.4-4.6 3.15-4.8 2.75-5.55 2.2-.6-.35-.25-2.3 5.3-1.1 8.65-5.95 1.7 2.15 1.75 2.9M71 208.4q.9 2.25-3.65 5.9-4.5 3.55-5.05 2.95-1-1-1.15-3.45 3.15-.2 5.65-1.75 2.6-1.7 3.7-4.5zm23.7-1.4q1 2.9 2.25 4.4 1.65 1.95 4.3 2.25l-.15.45q-1 2.75-1.85 2.8-.65.1-1.75-1.55l-1.9-2.9q-1.35-2.2-1.45-2.9-.15-1.45.55-2.55m16.9-5.8q.95 3.25 3.6 5.3 2.45 1.9 5.8 2.35.25 1.3-.3 1.55t-2.35-.5q-6.5-2.85-7.05-3.75-.5-.9-.45-2.35.1-1.45.75-2.6"/><path fill="#804a0c" d="M22 127.95q4.2 5.35 10.95 9.65-1.7 8.4 4.4 16.15Q26.5 142.7 22 127.95m103.95 13q6.55-3.2 12.45-7.65l.45 1 .7.8q-9.15 20.05-22.25 28.5 6.35-5.4 8.5-11.35 2-5.65.15-11.3"/><path fill="#daccb6" d="m49.4 163.35-8.8-6.55-3.25-3.05q-6.1-7.75-4.4-16.15 18.85 12.7 45.4 13.4 25.75.7 47.6-10.05 1.85 5.65-.15 11.3-2.15 5.95-8.5 11.35l-1.65 1.05-9.65 4.75-.7.3 5.25 7.95-12.5-4.5L96.2 181l-10.95-6.2-6.15 7.6-4.4-8.25-13.65 5.45 1.85-6.9-8.7 1.9-1.45-.15q-.45-.35 0-.95l4.2-5.9q-3.4-1.5-7.55-4.25"/><path fill="#986c4c" d="m61.6 202.35-.05 1.5q.15 1.6.85 2.4l-1 4.2q-1-1.15-1.05-3.65l-4.05-.45 2.6-1.55q.7-.25-.1-2.6l.7.2q1.05-.15 3.05-1.7zM52.4 197q.25 1.2 1.1 1.6l-2.6 2.95q-.15-.85 0-2.05.3-2.5 1.7-4.45-.4.8-.2 1.95m32 11.65-7.25.55-1.8 1.7q-2.55 1.75-6.25 1.9 2.4-2.45 2.3-3.55l2.55.1q2.9-.45 4.95-2.9 4.05-2.8 8.4 1l1.85 1q2.4 1 4.85.8l2.1 3.9-1.8-.2q-2.1-.45-3.5-1.7l-2.45-2.2zm19.9 1.25q-1 1.75-2.4 1.7l.15-3.8q.9-.3 1.7-1.6.95-1.55.9-3.6l1.45 1.5q2 1.35 4.7.7l.25 1.15q.5 1.25 2 1.55-1 .9-2.5 1.4-3 1.05-5.5-.75z"/><path fill="#0d131a" d="M123.25 2.9q3.5-1.8 4.05-1.45.6.45-.35 4.9-5.9 26.65-7.05 27.6-1.35 1.2-14.05 2.05-6.9 9.45-13.25 16.9 10.15-1.6 18.6 6.05 8.5 7.7 8.85 19.25l-.05 2.4 9.8 2.55-.8 6.45-9.75-3.35q-.9 3.65-2.65 6.9l11.65 7.85-4.85 6.8-10.55-9.55q-2.65 2.9-6.35 4.65l4.3 9.3-7.1 2.4-3.2-9.85-2.35.25q-9.7.4-17.05-7.05-7.5-7.55-7.95-18.6-.05-1.25-3.05 1l-3.05 2.5q-2.2 10.5-8.65 15.95-6.05 5.1-13.1 3.65l-.6-.15-4.25 9.15-5.75-3.55 5-8.1q-1.75-1.35-3.2-3.3l-7.9 8.2-4.2-5.45 9.15-8.35q-.55-1.45-.95-3.55l-7.9 3.6.75-6.2L32 82.4q-.15-3.95.75-8.25Q35 63.55 42.6 57.9q6.75-4.95 13.15-3.55l-7.3-13.75q-12.05-4-13.15-5.5-.65-.95-1.65-9.9L32 10.35q-.6-5.25.35-5.95.95-.75 4.8 2.05 6.35 4.6 13.3 10.15 7.85 6.25 8.45 7.35.55 1-2.05 7l-2.65 5.8 7.45 11.8 9.75 15.7q4.7-6.4 28.95-31.75l-1.5-6.85q-1.35-7.05-.9-8.35.65-1.7 25.3-14.4"/><path fill="#ec6d45" d="M83.25 65.05q4.2-6.2 11.05-6.95 7-.8 12.75 4.65 6.1 5.75 6.85 15.2.65 7.5-3.5 13.25-4 5.6-10.4 6.65-7.85 1.25-13.55-3.65-5.75-5-6.65-14.3-.8-8.55 3.45-14.85M38.7 88.55q-2.3-5.7-.95-13.1 1.5-8.1 7-12.85 5.4-4.65 10.95-3.05Q60.8 61 63 67.6q2.2 6.75-.05 14.75-1.9 6.95-7.6 11-5.25 3.7-9.45 2.45-4.9-1.5-7.2-7.25"/><path fill="#0d131a" d="m52.1 47.35.7 1.6Q45.3 53.15 39 59.6q-9.5 9.9-14.6 23.55t-4.6 28q.5 12.9 5.7 24.35 5.25 11.45 14.55 20.05 8.25 7.5 18.35 11.8 2.6 1.1 1.8 1.55-.75.4-3.3-.7-15.75-6.85-25.95-19.85-12.5-15.9-13.1-37.2-.65-21.9 9.4-39.35Q36.4 55.85 52.1 47.35m39.7-6.5-.95 1.8q-7.5-1.3-13.85-.9-8.5.5-17.25 3.9l-.6-1.55Q68 40.65 77.6 40.05q7.55-.45 14.2.8m7.55 3.9.75-1.55q18.2 6 31.3 24.15 14.25 19.8 13.45 43.1-.65 18.15-8.45 33.05-10.65 20.45-32.2 27.45l-2.35.05q.05-.75 2.7-1.7 18.95-6.85 29.1-25.2 8.3-15 8.95-33.6.8-22.15-12.7-41.6-12.8-18.4-30.55-24.15"/><path fill="#0d131a" d="M28.85 143.9q.2-.2.75.35t.4.8q-4.9 6.75-12.75 9.15-6.5 2.05-12.45.6-1.6-.4-3.15-1.45-1.5-1.1-1.65-1.95-.45-3.45 7.5-13.6 7.75-9.8 13.1-13.3l.95 1.25q-5.1 3.65-12.3 13.55-6.95 9.55-6.65 11.8.2.9 2.55 1.45 5.25 1.3 11.8-.6 7.7-2.3 11.9-8.05m82.1-74.8q-1.95-4.05-5.25-6.75-5.2-4.35-11.3-3.65-6.7.75-10.75 6.85T80.4 79.8q.45 4.7 2.3 8.45 1.85 3.7 4.85 6.05 5.25 4.1 12.35 2.95 6.2-.95 10.1-6.55t3.35-12.7q-.4-4.85-2.4-8.9m-4.45-7.65q3.5 2.9 5.6 7.1 2.2 4.3 2.6 9.35.6 7.6-3.55 13.7t-10.8 7.2q-9.15 1.5-15-4.45-5.25-5.35-6.1-14.4-.15-1.25-.15-2.5 0-7.85 4.25-13.6 4.3-5.85 10.85-6.6 6.35-.65 12.3 4.2m-68.15 14.1q-1.3 7.15.85 12.7 2.2 5.55 6.85 6.95 3.2.95 7.4-1.4 4.55-2.55 7.1-7.15-.25 1.35-.35 2.9-2.55 3.5-6.05 5.5-2.2 1.2-4.7 1.55l-4.15-.2q-5.1-1.5-7.35-7.5-2.2-5.9-.75-13.55.85-4.8 3.3-8.75 2.5-4.05 5.95-6.2 4.85-2.95 9.4-1.6 4.85 1.4 7.2 7.25 2.35 5.8 1.2 13.05l-1.45 1.35q1.6-7.25-.5-13.1-2.05-5.9-6.75-7.25-4.25-1.2-8.45 1.5-3.3 2-5.6 5.7t-3.15 8.25"/><path fill="#0d131a" d="M126.4 6.2q.9-4.1.7-4.25-.1-.05-3.55 1.45-4.9 2.15-14.95 7.9-9.7 5.5-10.1 6.2-.35.95.55 6.1.75 4.15 1.85 8.75l-.15.55q-22.8 23.85-28.4 31.05l-1 .9q-.3-.05-.9-1l-9.7-15.65-7.05-11.15q-.15-.3 0-.6l3.45-7.7q1.5-3.85 1.25-4.5-.5-.95-7.95-6.9L36.8 6.95q-3.4-2.5-4.1-2.1t-.1 5.4q2.5 23.5 3.2 24.5.45.6 4.45 2.25 3.75 1.5 8.4 3l.35.3 7.3 13.8q.35.7.15.85h-.8q-2.6-.6-5.65.1-3.1.7-5.95 2.55-4.05 2.6-6.8 6.9-2.8 4.3-3.95 9.75-.75 3.85-.7 7.25 0 1.05-.2 1.25l-1 .45-5.4 1.95-.55 4.8 6.4-3.05q.85-.4 1.05-.3l.35.95.65 2.45.35 1.2-.95.9-8.1 7.2 3.45 4.5 6.95-7.3q.75-.8 1-.75l.65.7 2.3 2.45.7.85-.5 1-4.25 6.95 4.65 2.9 3.55-7.85q.4-.85.65-1l1 .1h.1q3.9.8 7.85-.7 4.1-1.6 7.25-5.4L61 97.4q-3.25 3.7-7.4 5.2-4.1 1.45-8.45.55l-.35-.1-3.85 9.05q-.25.6-.85.25L34 108.4l-.4-.3q-.1-.2.1-.55l5.15-7.5q-1.45-1.15-2.55-2.6l-7.2 8.05-.95-.05-4.2-5.85-.25-.5q-.05-.2.25-.45l8.9-7.75q-.45-1.4-.75-2.8l-7.05 3.4-.8.2q-.3-.1-.2-1.05l.85-6q0-.35.35-.45l6.15-2.25q-.05-3.85.75-7.9 1.2-5.7 4.1-10.2 2.9-4.45 7.2-7.2 2.7-1.75 5.7-2.55l5.55-.45-6.85-12.6-7.55-2.35q-4.95-1.7-6.05-3.25-.55-.75-1.95-14.4-1.35-12.8-1.35-14.3 0-4.15.7-4.3.9-.2 6.05 3.55 5.95 4.3 12.9 9.7 8.55 6.7 9.25 7.95l.1.7q0 1.7-1.7 6.1l-2.95 6.6L71.55 62.8q3.4-4.4 15.1-16.9L99.5 32.3l-1.7-6.55q-1.3-5.25-1.3-7.4 0-.85.15-1.25.6-2.25 26.35-15.15 4.8-2.35 5.4-1.7.5.6-.65 6.2-5.8 27.5-7.05 28.55-.9.75-6.75 1.4l-7.7.6-12.1 15.05q4.35-.35 8.7 1.15 4.35 1.45 8.05 4.55 4.55 3.8 7.15 9.05t2.8 11.2v2.2l9.1 2.4.45.2v.45l-.8 6.4-.25.75-9.45-3.55q-.85 3.35-2.4 6.25l11.1 6.8q.6.4.6.65l-.25.55-5.1 7.45-.85.05-9.9-9.5q-2.45 2.45-5.85 4.2l4.45 8.65q.35.7-.35.9l-7 2.6q-1 .35-1.2-.3l-2.95-9.75-2.05.15q-4.55.2-8.9-1.45-4.45-1.65-8-4.9-1.55-1.45-3.75-4.7l.25-1.75q2.1 3.3 4.55 5.55 3.35 3.1 7.5 4.7 4.05 1.55 8.35 1.4l1.65-.15h1.15l.4.95 2.75 8.65 5.85-2-3.75-8.05-.35-.95q.05-.25.85-.7 2.9-1.45 5.4-3.95l1-.65.8.7 9.4 8.65 4.1-5.75-10.45-7-.85-.65q-.15-.3.3-1.15 1.45-2.8 2.2-6.05.2-.8.55-.9l1 .25 8.4 3.15.6-5.2-8.4-2.3-1-.35q-.35-.25-.3-1.1V78.2q-.2-5.7-2.65-10.8-2.5-5.1-6.85-8.75-3.8-3.15-8.3-4.5t-8.95-.7q-1 .2-1.1 0-.1-.15.55-.95 6.25-7.3 13.25-16.85l.4-.25 8.9-.85q4.25-.55 4.8-1 1.2-1.75 6.9-27.35"/><path fill="#0d131a" d="M94.6 67.15q1.75-.05 3.05 1.35 1.3 1.45 1.35 3.5.1 2.35-1.35 3.95Q96.5 77.2 95 77.2q-1.75.1-3.05-1.35-1.3-1.4-1.4-3.5-.05-2.05 1.1-3.6 1.2-1.5 2.95-1.6m-45.4 4.8q.45-1.7 1.8-2.8t2.55-.75q1.15.25 1.7 1.3.95 1.5.3 3.95-.5 1.85-1.75 2.9-1.3 1.05-2.6.65-1.05-.2-1.65-1.3-.95-1.7-.35-3.95M62.75 172.1l.8.05-.05.7-1.25 4.65q-.2.8-.05.9l1.1-.3 11.15-4.5.5-.1.25.4 3.25 6.05q.5.95.75 1l.95-.8 4.65-5.9.35-.25.4.15 8.85 5.15q.95.55 1.2.45l.55-1.15 1.3-5.6.25-.5.55.1 9.65 3.6 1.2.35q.25-.1-.5-1.05l-3.95-5.3q-.15-.1.35-.35l.65-.05 4.45 5.55q3.45 4.5-2.3 2.25l-9.25-3.6-1.05 5.25q-.45 2.45-1 2.55-.4.1-2.8-1.35l-8.3-4.9-4.2 5.55q-1.65 2.15-2.3 2-.6-.15-1.75-2.75l-2.45-5.2L62.9 180q-2.05.9-2.55.6-.7-.35.1-2.8l1.3-4.2-6.3 1.35-4.3.2q-.4-.55 1.75-3.4 3.35-4.5 3.75-4.7.2-.05.55.35l.2.5-3.7 5.2q-.8 1.15.55.85zm-2.65 34v1.15l-4.55-.6 1.4-.9z"/><path fill="#0d131a" d="M53.25 192.2q2.25-2.3 5.25-2.4 8 .75 10.8-.15 1.65-.55 3-1.6l1.25-1.4q.25-1.2.2-6.2l-.1-5.8q0-.25.9-.25.85 0 .85.25l-.2 6.15-.4 6.2q-.25.95-1.8 2.15-1.6 1.25-3.35 1.8l-3.35.5-4.3.05h-3.1q-2.45 0-4.35 1.95-2.65 2.65-3.05 6.9l-1.35 1.7-.1-1.05q-.05-2.3.8-4.75.9-2.5 2.4-4.05m18.3 4.75 1.85-.15q.25.35-1.3 1l-5.25 1.4q-3.35.9-4.15 2.6-2.25 4.7-1.55 7.2l.35.8v1.85q-1.3-.9-1.65-2.25-.55-1.95.15-4.85.6-2.35 1.45-3.8 1.25-2.05 4.5-2.7zm6.9 9.5q.85-1.55 1.15-1.05.25.5-.55 2.1-1.6 3.3-4.25 4.65-2.25 1.1-5.95 1.15 1.15-.5 1.5-1.25 2.1-.2 4.3-1.65 2.45-1.55 3.8-3.95m10.1 3.75q-1.3-1.5-2-3-.9-1.85-.7-2.35.15-.5 1.2 1.2.65 1.2 2.2 2.85 1.6 1.8 2.85 2.65 1.1.75 3.3.9.05.65 1 1.3-3.55.1-5.1-1-1.45-.95-2.75-2.55m7-12.6q-1.6-1.15-1.45-1.6.15-.5 1.85.6.75.5 5.05 2.35 3.3 1.5 3.95 2.6 1.05 1.8.85 4.45-.15 2.15-1.05 4.2-.65 1.6-3.15 2.6l.4-1.45q1.35-.7 1.7-1.65.75-1.7.8-3.6.1-2.25-.85-3.75-.6-1.05-3.45-2.35zm-3.6-18.85.7.1.7.55-.15 4.85q-.1 2.2.1 2.95.2.85 1.95 1.8l2.9 1.45q2 1 5.85 1.4l6.25.35q1.2.05 2.55 1.45 1.25 1.25 2.2 3.25.7 1.2 1 2.75-.6-.4-1.5-.45l-.65-1.65q-.85-1.55-1.95-2.6-1.15-1.05-2.05-1.1-8.6-.45-12.25-2.35l-3.05-1.4q-2.1-1.2-2.4-2.6-.35-1.75-.2-8.75"/><path fill="#0d131a" d="M112.45 207.15q.25.3 1.05.55-1.8 1.7-3.6 2.05-2.25.45-5.25-1l.05-.65q.1-.6.3-.5 4.5 2.35 7.45-.45m-35.7-24.3q-1-.85-.95-1.2.1-.4 1.2.25 2.5 1.5 6.45 1.6 3.75.05 6.45-1.15 1.3-.55 1.4-.2.05.35-1.35 1.15-2.85 1.65-6.95 1.5-4-.2-6.25-1.95m-.05 6.6q-1.4-.8-1.6-1.45l.9-.05q2.7 1.45 6.7 1.6 3.85.1 6.8-1l1.9-.2q-.1.55-2.05 1.4-2.7 1.25-6.45 1.15-3.75-.05-6.2-1.45m-24.35 8.45 2.05.05q1.6.35 3.4 2.3 1.9 2.1 1.9 3.9 0 .95-.45 1.5t-.4-.4q.1-1.75-1.85-4.05-1.9-2.2-3.65-2.65-1.55-.35-1-.65"/><path fill="#0d131a" d="m53.45 198.15.65.2q.45.35.3.45-2.05 1.15-3.5 3.8-1.2 2.2-1.5 4.4-.25 1.7.2 1.9.3.1 1.75-.6 3.05-1.5 7.65-4.3.65-.35.55.25l-.25.7-4.6 2.85-3.3 1.85q-2.05.9-2.65.65-.6-.3-.55-2.25.1-2.45 1.25-5.1 1.5-3.3 4-4.8m17.1 11q0-1.45-2.2-2.8-2.45-1.55-4.6-.45-1.1.55-1.75 3.75-.55 3.1-.1 5.3.25 1.3.7 1.45.35.1 1.4-.55 3.25-1.9 4.8-3.4 1.75-1.7 1.75-3.3m-9.6.35q.75-3.7 2.35-4.5 2.15-1.1 4.95.1 2.7 1.2 3.3 3.2.65 2-1.9 4.7-1.6 1.7-3.95 3.2-2.8 1.85-3.4 1.85-.95.05-1.45-2.45-.55-2.75.1-6.1m22.85-1.3 5.05.55q.25.05.25.75 0 .75-.25.65-5.45-1.75-11.8-.15-.25.1.2-.65t.65-.8zm17.8 1.2q.2-2.25-.35-2.9-.7-.9-1.95-1.05l-2.2.3q-1.1.45-1.75 1.35-.75 1.05-.6 2.35.1 1.05 3.2 5.6.85 1.25 1.25 1.15.55-.1 1.35-2.3.85-2.25 1.05-4.5m.45-3.55q.9 1.15.65 3.95-.25 2.35-1.05 4.55-1.4 3.85-2.25 3.9-.6.05-2.4-2.55l-2-3.35q-1.15-2.15-1.25-2.95-.15-1.35.5-2.55.75-1.45 2.3-2.1l2.9-.4q1.6.25 2.6 1.5m15.35 4.25q-1.9-.6-3.65-1.45-2.3-1.1-2.9-2.05-1.15-1.75-.35-4.4.9-2.8 3.1-3.35 2.05-.5 4.5 2.55 2.05 2.6 3.1 5.9.95 3 .2 3.45-.65.4-4-.65m-5.55-8.1q-.4.95-.4 2.15 0 1.5.35 2.05.5.8 5.9 2.8l2.3.55q.55-.1.25-1.2-.75-3-2.8-5.85-2.2-2.9-3.6-2.55-1.3.3-2 2.05"/><path fill="#a3611c" d="M172.95 152.75q-6.65.25-13.65-2-19.85-6.4-24.7-26.45-1.05-3.45-.95-4.7.05-.3.85-1.85t3.95-1.75l3.3.2q12 4.35 26.15 17.05 14.35 12.9 11.9 17.65-.85 1.65-6.85 1.85"/><path fill="#a3611c" d="M172.95 152.75q-6.65.25-13.65-2-19.85-6.4-24.7-26.45-1.05-3.45-.95-4.7.05-.3.85-1.85t3.95-1.75l3.3.2q12 4.35 26.15 17.05 14.35 12.9 11.9 17.65-.85 1.65-6.85 1.85"/><path fill="#804a0c" d="M171.65 153.25q-6.4.1-13.15-2.25-19.05-6.65-23.9-26.7 7.65 10.85 22.8 19.45 13.35 7.5 20.85 7.7-.85 1.65-6.6 1.8"/><path fill="#0d131a" d="M166.4 129.7q11.8 9.95 14.7 17.4 1.55 3.95-.25 5.55-2.8 2.55-13.7 1.3-9.35-1.1-17-5.7-12.8-7.7-16.2-23.15-.6-2.6.05-3.1.65-.45 1.25 2.15 3.6 14.75 16 22.15 7.55 4.55 16.4 5.55 4.6.55 8.15 0 3-.45 3.4-1.25.5-1-.25-3.05-2.6-6.55-15.15-16.85-12.55-10.35-22.3-13.9-2.3-.8-1.95-1.35l2.7.1q11.55 3.4 24.15 14.15"/><path fill="#f7c6bd" d="M69.5 75.9q3.75 0 6.2 4.8 2.3 4.4 2.25 9.85 0 6.15-2.6 10.45-2.35 3.9-5.2 4-1.95.05-4.05-1.6-1.85-1.45-2.4-2.8-2.2-.1-3.1-3.75-.8-3.2-.3-7.7.6-5.2 3.05-9Q66 75.9 69.5 75.9"/><path fill="#d5aba4" d="m77.3 96.5-1.7 4.05q-2 3.9-4.25 4.45-2.25.5-3.95-.55l-1.7-1.35-2.05-2.25 4.15-4.05q4.25-4.2 5.5-3.95l2.5 1.45q.95.55 1.75.6.2.95-.25 1.6"/><path fill="#0d131a" d="m76.85 95.3-1.75-.95q-1.25-.85-2.05-.75-1.6.15-4.7 3.6-3.2 3.55-3.8 3.7.8 1.25 2.25 2.3 1.75 1.25 3.3 1.2 1.9-.1 3.8-2.45 2.1-2.6 2.95-6.65m-.6-11.85q-1.15-3.35-3-5.25-1.7-1.7-3.75-1.7-3.15-.05-5.7 4-2.3 3.7-2.9 8.7-.35 3.4 0 6.1.4 2.75 1.4 3.95.6.7 1.4.75.7.05 4.25-3.8 3.6-3.9 5-4 .75-.05 2.15 1 1.4 1 1.95.95l.35-3.6v-.1q0-3.6-1.15-7M59.5 92.6l.25-4.3q.6-5.3 3.15-9 2.8-4 6.6-4 2.65 0 4.55 1.9 2.1 2.1 3.4 5.7 1.4 3.7 1.4 7.45-.05 6.25-2.45 10.8-2.5 4.7-6.1 4.9-2.05.05-4.3-1.8-1.9-1.55-2.75-3.2-1.3-.2-1.85-.85-1.9-2.25-1.9-7.6"/></svg>