<svg xmlns="http://www.w3.org/2000/svg" width="475" height="379" viewBox="-0.3 -0.05 475.05 379.05"><path fill="#0d131a" d="M161.05 342.25q-2-1.6-2.15-2.5-.2-.95 1.45-2.5 11.35-9.85 35.4-32.75l26.6-25.75q3.15-3.15 21.55-7.25 16.5-3.7 21.4-3.7l2.8.25q1.5.5 1.85 1.9 3.15 12.6 7.3 51.2 4.15 38 2.8 39.4-2.65 2.75-34.45 10.65-31.55 7.8-35.25 6.95-3.55-.8-21.35-14.15-12.35-9.25-27.95-21.75"/><path fill="#49312a" d="M266.75 272q2.8 5.7 6.45 45.6 3.65 39.65 1.8 40.85-3.1 2.05-32.75 9.45-29.85 7.4-31.95 6.5-2.15-.95-20.85-14.75-18.55-13.7-25.05-19.15l-.65-.7.55-.85q6-6.25 33.4-32.4l30.4-28.9q2.65-2.55 18.25-5.15 13.05-2.25 18-2.3.95 0 1.45.35l.45.5z"/><path fill="#3a251d" d="M253 285.4q9.5-5.05 14.8-9.95 1.4 6 3 18.95-14.4 8.2-28.35 11.95-13.85 3.7-26 2.7l-6.1-1.6q-4.9-1.65-9.7-3.75l13.9-13.2 10.95 1.45q6.4.45 10.85-.2 6.5-.95 16.65-6.35"/><path fill="#0d131a" d="m252.3 286.45-2.35 81.15-2.35.65-2.25.6q.75-2.7 2.5-39.65 1.65-36.3 1.4-40.7 1.4-.5 3.05-2.05m-25.25 6.8-20.2 33.25q-18.7 30.4-20.65 32.55l-1.45-1.2-1.25-1.05 20-30.8 20.85-33zm-8-130.1q3.55 2.7 3.4 7.1-.35 10.8-24 30.75-11.95 10.1-25.1 18.85l-.3.2-7.25-.35-9-1.15q-.9-.2-.95-1.25l.35-2.85 1.45-13-9.2 15.3q-.85 1.45-8.5-.35-6.65-1.6-8.65-2.7-.75-.45-.75-1.8l.45-3 .7-4.4q-2.65 8.1-3.45 8.9-.7.7-2.65.35-3.6-.6-13.2-3.8-9.5-3.15-11.15-4.3l-1.45-1.25q-.35-.55-.25-1.4.3-2.3 4.45-11.15l2.35-5-4.8 6L95 201q-2 2.25-3 2.45-2.35.45-15.05-9-12.45-9.35-14.2-12.5-.5-.85-.5-1.45 0-2.05 3.25-6.4 2.2-2.95 9.3-11.15l3.15-3.65-5.9 2.95-14.55 7.05q-4.85 2.05-6.2 1.6-1.1-.4-17.85-15.45-2.6-2.55-2.9-3.45-.5-1.3 1.6-2.7.65-.45 8.8-4.4l14.65-7.15q-7.6 1.3-17.25 3.5l-9.1 2.15-2.05.2q-2.25-.1-3.35-1.55-1-1.35-4.7-12.4l-3.75-11.6q-.4-1.45-.3-2.2.1-.95 1-1.25 5.15-1.9 20.5-4.85l16.55-3.25-17.85-1.7-20.1-1.3q-1.85-.05-2.75-.55-.75-.45-1.05-1.35l-3.9-7.2Q3.55 86.85 3.55 85l.6-1.05.7-.95q.45-1 1.65-1.15 17.55-2.75 43.85 2.3 25.3 4.9 55 16.25 63.05 24.1 113.7 62.75"/><path fill="#a3623c" d="M220.25 170.2q-.3 9.85-23.3 29.6-7.95 6.8-16.2 12.75-7.35 5.25-8.35 5.25l-10.5-.9-2.6-.5q-.7-.45-.6-1.85l1-10.6q.9-7.05.1-7.6-.45-.3-2.3 2.05-1.7 2.15-2.9 4.35l-7.8 12.45-6.7-1.1q-5.2-1.2-7.3-2.2l.7-5.6.75-6.1.7-4.55q.55-3.25.25-3.4-.4-.2-1.3 1.2-1.2 1.8-2.05 4.95l-2.45 6.75-2.65 6.5q-2.35 0-12.7-3.7-10.4-3.7-12.25-5.2.1-.7 3.75-9.05l4.35-10.4q.5-1.6 1.8-3.55.95-1.4.75-1.9-.25-.7-2.5 1.4l-4.5 4.7-7.8 9.5q-5.75 6.9-6.9 6.7-1.25-.25-11.95-8.55-10.1-7.8-11.55-9.25-2.3-2.3-1.15-3.95l7.8-10 8.1-10.1 2.9-2.75q1.9-1.8 1.9-2.5 0-.75-3 .8l-5.45 2.85Q52.8 169.5 52 168.75L34.45 152.4q-.55-.5 5.7-3.45L51.5 143q9.65-5.15 11.8-5.9 4.3-2 4-2.8-.3-.75-4.7 0l-34 5.95q-1.75.3-2.35-.5-.65-.95-3.7-10.25-2.7-8.05-3.9-12.25 1.35-.6 6.9-1.95l10.65-2.45q17.85-4 21.7-5.35 2.15-.75 2.1-1.25 0-.45-1.75-.9l-7.1-1.1-18.95-1.75-18.5-1.7-1-1.95q-6-11.35-6-14.25 0-.4.15-.55 17.35-2.7 43.4 2.35 25.1 4.85 54.55 16.15 62.55 24 112.9 62.4 2.55 1.95 2.55 5z"/><path fill="#804b2b" d="M217.7 164.95q2.55 1.95 2.55 5v.25q-.2 5.85-8.8 15.55-6.85 7.8-18.1 17.05-8.2-3.3-14.05-7.55-15.3-9.3-35.55-23.55l-34.7-24.35q-15.4-11.1-26.1-24.8-8.05-10.3-17.35-27.6-.9-.9-1.7-2.2-1.25-2-1.25-3.65Q99.7 98.25 141 118.25q42.6 20.65 76.7 46.7"/><path fill="#0d131a" d="M195.45 150.65q2.65 3.35 2.05 8.75-.55 5.1-3.35 7.5-1.45 1.15-3.15 1.15-2.65 0-5.3-3.05-31.5-36.15-77.2-56.75Q63.8 88.1 11.8 85.6l-4.15.3-3 .8Q.9 87.8.15 85.3q-.45-1.65.3-3.95.65-1.85 5.9-3.45l5.1-1.25Q61.85 72 114.2 93q52.45 21.05 81.25 57.65"/><path fill="#49312a" d="M188.45 163.3q-32.2-36.95-78.15-57.9-45.9-20.95-97.35-22.25-4.45-.1-7.85 1.2-1.25.45-1.9-.45-.7-.95.55-2.7.6-.65 2.2-1.15l4.4-.9q20.8-2.1 46.95 2.2 26 4.25 51.9 13.9 26.9 10.05 48.55 24 23.25 15.05 37 32.55 2.05 2.6 1.6 7.05-.4 4.3-2.55 6.1-2.25 1.9-5.35-1.65"/><path fill="#0d131a" d="M170.85 184.35q.45-1.05 2.45-3.15 2.3-2.5 4.5-3.7t2.15-.6q0 .5-1.15 1.5l-2.65 2.15q-2.35 2-3.9 4.2-.85 1.2-1.35.85-.45-.3-.05-1.25m-8.35-1.1q.5-1.25 3.05-3.75 2.9-2.95 5.65-4.4t2.7-.75q0 .6-1.4 1.8-1.8 1.3-3.35 2.55-2.95 2.4-4.9 5-1.05 1.4-1.65 1.05-.55-.4-.1-1.5m16.7 5q.2-1.15 1.65-3.65 1.7-2.95 3.6-4.65 1.85-1.65 1.95-1.1t-.8 1.75l-2.1 2.7q-1.8 2.5-2.85 5-.5 1.35-1.05 1.15t-.4-1.2"/><path fill="#0d131a" d="M171.75 79.8q6.25-7.75 15.65-13.4 9.7-5.8 21.15-8.35 13.65-3.05 28.2-.95 14.95 2.2 24.35 8.95 32.8 23.6 37.55 84.9 2.4 31.5-3 68.5-2.2 15.5-8.35 30.5-8.2 20.1-20.15 29.05l-4.15 2.9q-11.85 8.5-22.5 11.25-16.7 4.35-33.55-3.6-14.25-6.7-22.2-15.75-10.2-11.65-12.75-29.5-.5-3.5-.5-8.15-.05-3.75.25-6.45 1.7-16.2 8.5-30.15 6.5-13.25 15.85-21.2-3.45-.95-8.45-3.4-6.55-3.15-10.15-6.45-10.25-9.4-15.25-22.05-4.3-10.9-4.3-23 0-12.4 3.85-24.35 3.75-11.55 9.95-19.3"/><path fill="#a3623c" d="M190.15 69.5q10-5.8 21.35-8.45 27.05-6.25 46.1 7.5 32 23 37.1 87.25 1.65 21 .15 43.9-1 15.45-2.4 22.6-2.65 13.7-7.35 25.3-8.15 20.2-20.55 29l-1.65 1.25q-10.25 7.3-23.95 10.75-17.55 4.4-29.9-1.65-17.65-8.65-26.75-23.1-9.05-14.5-7.3-31.25 1.75-16.7 8.45-31.35 6.7-14.7 15.8-21.8l3.8.6 1.7-.15q.35-.35-1.3-.95l-4.15-1.5-4.8-2q-9-4.35-15.2-10.05-20.45-18.85-19.05-45.15 1.15-21.4 14.55-38.05 5.65-7.05 15.35-12.7"/><path fill="#804b2b" d="M242.35 85.1q-9.9-8.8-22.15-13.45-12.55-4.85-25.55-4.55 15.35-7.6 31.4-7.85 18.2-.3 31.55 9.3 32 23 37.1 87.25 1.65 21 .15 43.9-1 15.45-2.4 22.6-2.65 13.7-7.35 25.3-8.15 20.2-20.55 29l-1.65 1.25q-9.6 6.9-22.65 10.4-16.55 4.45-28.7-.25 5.15-.6 10.05-2.45l6.6-3.5q3.45-2.1 5.7-4.3 19.95-21.75 23.7-46.25 3.95-26.15-11.45-51.25-1.2-2.45 5.15-9.6 7.95-8.95 9.35-12.15 4.45-12.05 4.45-27.85-1.45-26.7-22.75-45.55"/><path fill="#0d131a" d="M464.75 9.3q1.1 0 1.9.75 1.1 1.15 1.95 5.55l.95 6q.4 2.55.4 5.65.05 4.15-.75 6.05-.75 1.8-3.9 3.1l-20.5 7.7 13.55.7q8.95.95 14.75 3.55 1.45.65 1.65 1.5l-.3 2.9q-.5 2.9-7.8 22.65-1 2.2-2.8 2.8-1.5.5-4.15 0-10.65-2.05-26.55-1.05-12.3.75-16.75 2l7.45.55q12.55.65 22.3 3.75l3.55 1.3q1.05.75.7 2.6-.5 2.7-9.85 23-1.3 2.05-3.4 3-2.2.95-4.35.4-3.4-.85-13.85-1.85-13.65-1.35-21.45-.5l12.85 3.6q12.6 3.55 13.95 4.2l2.8 1.35q.85 1.1-1.25 4.2l-8 12.3q-6 8.8-8 9t-14.75-5.6l-13.25-6.3 9.5 6.85q8.9 6.45 9.8 7.6 1 1.2.25 2.35l-2.15 2.15q-1.55 1.55-9.35 7.4-8.85 6.7-12.5 8.5-.9.4-2.05-.3-1-.6-1.85-1.75l-5.55-6.45-4.25-4.6 5.4 9.7q.55 1-.05 2.05-.65 1.15-2.7 2l-11.35 5.1q-1.7.75-3.7-2.65l-2.1-4.1.55 3 .85 3.4q.45 1.05-.4 1.95-.9 1-3.5 1.95l-7.4 2.95q-4.85 1.85-5.5 1.35-.7-.5-1.8-4.1l-1.1-3.75q-.15 9.4-1 9.75-10.3 4-14.7 5.85-.95.45-1.85-.85-.75-1.05-3.15-6.05l-.1-.25 1.8 8.25-.3.65q-2.7 2.2-6.6 3.8-3.25 1.35-8.5 2.65-.85.25-1.45-.8l-.1-.3q-1.55-5.95-2.8-9.15l.3 9.6q0 2.7-.75 3.45l-1.1.45-7.95 3.25q-7.95 3.1-9.85 2.55-1.95-.6-4.65-3.65-3-3.4-5.35-8.2-6.15-12.75-4.35-27.4 4.45-36.1 24.4-66.15 20-30.05 54-51.8 26.95-17.25 60.4-28 33.5-10.75 67.5-13.1"/><path fill="#a3623c" d="M451.85 38.35q-14.4 5.8-15.7 6.8-2.75 2.15 4.6 1.1 3.3-.5 14.5 1.05 11.95 1.65 16.1 3.65v.1q0 2.3-3 12.2-2.75 9.1-3.75 11.25-.45.95-1.15 1.15l-3.8-.25q-13.8-2.65-31.5-.45-13.45 1.65-20.3 4.35-4.1 1.65-3.15 2.3l3.6-.1q2.3-.65 19.4 1.55 17.2 2.2 18.3 3.45.95 1.1-3.4 10.75-3.7 8.05-5.45 10.85-2 3-5 2.25l-18.2-.95q-16.3-.3-21.55.55-5.05.85-4.5 1.5.45.6 3.4.6 2.5 0 17.6 4.7 15.3 4.75 15.15 5.75-.2 1.15-7.45 10.75-7.3 9.7-8.2 9.75-.7.05-14.35-5.9-16.15-7.05-17.9-7.75-4.1-1.65-4.1-1.25-.05.3 2.6 2.5l13.2 10.75q9 7.35 9.75 8.4-1.65 2.2-10.45 9.1-9 7.05-11.2 7.7l-6.5-7.6q-6.45-7.55-9.2-10.05-3.1-2.8-3.35-1.95-.2.7 1.35 3.05 1.5 2.25 4.4 8.5 3.1 6.7 3.1 8.25l-.05.4q-1.05 1.1-10.65 5.05l-4.4-6.05q-4.15-5.6-4.95-5.3-.35.15.9 6.55 1.3 6.7 1.15 7.15-.25.75-6.6 3.4-6.3 2.7-6.3 2.25l-1.85-4.8-2.75-7.35q-2.1-7.1-2.6-5.75-.25.8.1 5.85.9 11.85.5 13.55-.25 1.1-6.35 3.4-6.05 2.3-6.7 1.65-.6-.6-2.9-4.85l-3.7-7.15q-1.3-2.8-1.8-1.05-.45 1.7.35 4.8l1.6 7.55q.9 4.65.55 5.1-.45.6-5.65 2.9-5.35 2.35-6.7 2.3-1.9-7.45-3-9.8l-2.1-3.5q-1.2-2.3-1.5-1-.2.8-.1 3.75.25 12.85-.15 13.85-.25.75-9.65 4.05-9.6 3.4-11.3 2.9-4.2-1.25-8.25-8.85-5.5-10.3-3.8-24.35l3.55-4.8q4.4-35.6 24.1-65.2 19.7-29.65 53.3-51.15 26.7-17.1 59.9-27.75t66.95-12.95l.15.05q.75.8 1.05 10.8.3 9.7 0 10.15z"/><path fill="#804b2b" d="M408 21.5q5.4 9.4 1.1 22.3-3.75 11.2-12.5 19.95l-45.55 47.65Q324.8 138.35 303 157.35q-8.7 6.85-5.9 17.45 2.3 8.7 11.05 17.1l-6.05 2.8q-4.05 1.7-5.15 1.65-1.9-7.45-3-9.8l-2.1-3.5q-1.2-2.3-1.5-1-.2.8-.1 3.75.25 12.85-.15 13.85-.25.75-9.65 4.05-9.6 3.4-11.3 2.9-4.2-1.25-8.25-8.85-5.5-10.3-3.8-24.35l3.55-4.8q4.4-35.6 24.1-65.2 19.7-29.65 53.3-51.15Q369 32.45 408 21.5"/><path fill="#0d131a" d="M446.9 7.45q24.5-2.5 25.25 1.1l.4 2.7q-.1 1.35-1 2.55-1.55 2.05-4.95 2.75l-16.55 1.75q-78.5 6.65-128.15 49.5-42.6 36.7-53.05 99.8-1.8 10.8-6.7 12.5-1.4.5-3.4 0t-3.25-1.65q-2.4-2.15-3.5-5.25-1.25-3.55-.7-7.7 4.9-34.35 21.2-62.05 14.65-24.9 39.35-45.7 24.35-20.4 58.65-33.15 34.2-12.75 76.4-17.15"/><path fill="#49312a" d="M448.65 15.05Q369.1 22.7 321.9 63.45q-22.25 19.15-36.4 45.05-14.2 25.9-19.3 56.7-1 5.85-2.85 8.9-1.25 2-2.6 2.45-1.7.55-3.3-.95-1.6-1.4-2.35-3.95-.85-2.75-.3-5.65 6.85-35.45 22.85-62.5 14.8-24.95 38.85-45.15 24.1-20.25 56.45-32.3T447.1 9.7l14-1.1q4.5-.15 6.1.55 1.5.6 1.35 2-.1 1.3-1.2 1.7l-7.25 1.05z"/><path fill="#0d131a" d="m192.4 193.1.75-1.7q.45-.45 1.2.15 1.15.95 5 3.4 4.3 2.7 5.05 2.75.8 0 .9.9.05 1.35-17.9 25.7-1.05 1.4-1.5 1.15l-.3-.8q-.9-4.95 2.65-18.15 1.95-7.15 4.15-13.4"/><path fill="#3e2f33" d="M198.7 196.9q2.9 1.65 4.7 2.25-1.7 3.6-16.3 23.25 0-7.9 6.9-28.8z"/><path fill="#0d131a" d="M233.8 203.3q-.85 3.6-7.95 19.35-7.35 16.4-9.05 17.6-.5.3-.9-.2l-.55-.95q-1.55-2.75-4.65-19.05-2.95-15.5-3.1-19.8-.05-1.45.35-1.9l1.2-.1q5.45 1.65 7.25 1.9l11.4 1 5.1-.15q1-.05 1.15.5z"/><path fill="#3e2f33" d="M209.15 200.05q3.2 1.15 11.45 2.05l11.85.5q-1.3 4.3-7.5 18.2-6.1 13.8-8.25 17.25-1.5-3.8-4.5-18.85-2.95-15-3.05-19.15"/><path fill="#0d131a" d="M256.35 191.05q.7-.6 1.3 0 1.5 1.4-.3 21.9-1.8 20.45-3.55 22.45-.5.6-1.15.25-1.9-.85-8.25-15.75-6.35-14.95-6.05-17.9.05-1 .85-1.15 1.85-.45 7.85-3.7 6.75-3.65 9.3-6.1"/><path fill="#3e2f33" d="m255.95 193.6.5-.05.15 1.8q.45 6.5-.95 20.7-1.4 13.95-2.75 17.6-2.25-3.05-7.55-15.9t-5.35-15.4q1.85-.6 8.75-4.45 6.6-3.7 7.2-4.3"/><path fill="#0d131a" d="M179.7 233.1q-.4-1.8-.2-3.1.25-1.4 1.1-.65l5.5 4.1 6 4 2.55 1.3q1 .8.65 2.55-4.65 25.25-5.9 26.9l-.45.5-.6-.15q-.65-.25-1.4-2.5-1.4-4.05-4.05-15.7-1.15-4.95-2.1-11z"/><path fill="#3e2f33" d="m181.25 231.85 6 4.25q5.1 3.45 6.6 4.15v.25q0 2.4-2.05 11.95-1.9 8.8-3.2 13.25-1.6-4.85-4.9-19.55-3.35-15.1-2.45-14.3"/><path fill="#0d131a" d="M203.9 244.1q-1.25-4.45 1.2-3.2 1.35.7 8.8 2.6l10.6 2.35q.55.1.8.65.55 1.6-3 15.65-3.55 14.1-4.9 15.6-.45.5-1 .3-1.45-.4-6.85-16.15-4.1-12.2-5.65-17.8"/><path fill="#3e2f33" d="M223.75 247.45q-.05 2.55-2.9 13.6-2.8 11-4.25 14.6-1.8-4-6.9-18.9-5.2-15.15-4.4-14.4.75.65 8.7 2.75z"/><path fill="#0d131a" d="M256.8 244q.35-.35.75-.4l.45.05q.8.3.65 1.95-7.1 33.25-9.5 33.8l-.65.15-.3-.55q-3-7.35-5.7-14.9-5.4-15.15-4.3-17.15.35-.6 1-.6h.95q14.7-.05 16.65-2.35"/><path fill="#3e2f33" d="M187.1 222.4q0-3.75 1.75-11.3 2.25-2.1 6.55-5.05l6.8-4.85q-3.95 6.25-15.1 21.2m44.6-17.7q-2.35 6.3-7.7 18.2-5.4 12.15-7.3 15.15-1.5-3.8-4.55-19.1 2.5-2.3 9.9-6.8 6.7-4.05 9.65-7.45m21.05-9.1 3.2-2 .5-.05.15 1.8q.45 6.5-.95 20.7-1.4 13.95-2.75 17.6-2.05-2.85-6.55-13.5 8.6-13.6 6.4-24.55m-62.35 42.6q2.65 1.7 3.45 2.05v.25q0 2.4-2.05 11.95-1.9 8.8-3.2 13.25-1.35-4-4.2-16.45 5.75-6.15 6-11.05m28.5 8.15 4.85 1.1q-.05 2.55-2.9 13.6-2.8 11-4.25 14.6-1.6-3.6-5.85-15.75 6.55-6.8 8.15-13.55m24.5 15.25q-3.75-11.05-3.75-13.45V248h.5q13 0 16.8-2.05-.45 3.8-3.5 15.35-2.9 10.95-4.5 15.4-2.3-5.5-5.55-15.1"/><path fill="#0d131a" d="M147.7 220.4q1.45.75 2.5 1.8 1 1 1.1 1.8.1.65.55 1.75.5 1.2 1.05 1.75 2.15 2.15 4.35 5.15 2.9 4 4.5 7.8.8 1.8 3 9.05l2.65 7.65q1.55 4.05 2.35 4.65l3.1-.45q2.45-.8 4.4-2.2 1.65-.9 3.85-.5 2 .4 3.7 1.65 2.05 1.6 3.1 4.35 1 2.8.35 5.25-.55 2.2-1.7 3.8-1.15 1.55-3.55 3.35l-4.1 2.75q-2.7 1.8-2.9 2.45-.4 1.05.5 3.9.6 1.8 2.15 5.45l2.5 6.6q1.8 5.7 1.75 9 0 5.05-3.35 9.55-2.25 2.95-6.5 3.35-5.4.5-13.2-3.4-3.55-1.8-4.85-4.6-1.35-2.95.7-5.1l1.7-1.5.5-.3q.45-2 1.55-3.95l1.9-3.1q1.05-1.8.7-2.3-1.4-2.1-5.05-4.1-3.55-1.9-8.55-3.35-1.05-.3-4.85 1.1l-7.15 2.7-5.4 1.8q-2.35.75-4.8 2.45l-3.5 2.6q-1.85 1.2-3 1.55l-3.5.25q-1.1-.05-2.7-1.1-1.55-1.1-2.55-2.5-2.2-3.1-3.25-7.95-1.1-5.15 0-8.9 1.25-4.3 5-5.35 2.9-.8 6.4.4l2.4.3 9.65-.5q6.6-.75 9.4-1.65-4.4-2.3-8.7-3.7-6.5-2.15-9.6-.9-2.8 1.1-5.45-.55-2.25-1.4-4.8-5.1-2.1-3.05-.7-8.9t4.95-9q2.9-2.55 6.45-2.1 3.4.45 7.05 3.65 1.3 1.05 16.2 10.4-2.25-5.8-4.1-8.15-2.5-3.25-5.2-5.6-3.05-2.55-5.05-2.75-3.95-.3-5.2-4.15-.4-1.15-.4-2.7 0-2.9 1.45-5.95 1.45-3.1 3.9-5.2 3.4-2.9 5.9-3.7 4.75-1.6 10.4 1.2"/><path fill="#d4c79f" d="M140.75 240q.3-.75-3.85-.5-1.45.1-4.6-1.1-3.4-1.25-3.75-2.35-.75-2.3.35-5.55 1.2-3.5 3.95-5.9t5.85-3.15q4.8-1.15 9 2.15 1.4 1.1 1.55 4.1l-.2 4.05q-.15 1.45 1.05 1.15 1.15-.35 1.55-2.65 5.4 5.55 8.15 11.9l2.85 8.05 4.4 12.8q1.7 4.55 2.75 5.25 1.6 1 2.1.2.5-.75-.25-3.1l5.85-2.9q3.75-1.95 5.95-.4 2.45 1.8 2.9 3.75.3 1.3-.25 3.55-.35 1.45-2.55 3.5l-4.25 3.4-3.65 2.4q-1.8 1.2-2.15 2.2-.6 1.6.5 5 .5 1.6 2.55 6.6l2.5 6.4q1.55 5 1.45 7.95-.15 4.2-3.15 8.2-4.3 5.75-16.5-.3-2.85-1.45-3.15-4.35-.35-3.35 4.85-4.2 1.6-.25.85-1.05-.75-.85-2.4-.65-1.35.15 1.4-4.5l3.8-5.95q1.3-2.35.05-2.05-1.2.3-2.75 2.6-3.05-4.55-17.55-9.4-2.55-.85-2.65-.2t2.15 1.9q-3.6.4-12.3 3.65l-8 3.15q.25-1.95-.05-2.35-.35-.45-1.5.7-.75.8-1.35 2.9-1.1 1.95-5.4 3-.65.15-1.95-.45-1.45-.65-2.1-1.5-1.9-2.65-2.85-7.1-1-4.65-.05-7.85.85-2.85 3.15-3.45 1.65-.45 5.75.1l2.55.35 10-.8q8.6-1.15 11.6-2.45l2.9.25q.8-.15.3-.65-2.3-2.3-10.45-5.65-9.35-3.9-12.65-2.25-1.8.9-4.2-.05-2.75-1.1-4.95-4.3-1.6-2.3-.5-6.95 1.1-4.85 4.1-7.55 2.35-2.1 5.15-1.8 2.75.25 5.7 2.85 2.15 1.9 19.25 12.35l1.05 1.95q1.15 2 1.75 2.35 1.05.6.2-3.1-1.55-4.2-3.8-8.8-4.5-9.15-8.3-12 2.05-.85 2.25-1.4"/><path fill="#b7ad8a" d="M147.2 230.3q.55-5.35.15-6.95l.35.25q1.4 1.1 1.55 4.1l-.2 4.05q-.15 1.45 1.05 1.15 1.15-.35 1.55-2.65 5.4 5.55 8.15 11.9l2.85 8.05 4.4 12.8q1.7 4.55 2.75 5.25l1.05.45-.5 2.35q-7-3.85-10.55-15.05l-2.9-9.4q-1.85-5.45-4.35-9h-4.5q-1.3-2.65-.85-7.3m-27.75 36.3q-2.35-.7-4.4-3.05 2.35.45 5.55-.95l6.3-2.7q1.1 2.9 4.15 4.4 1.5.75 6 1.95 3.95 1.05 5.65 2.3 2.65 1.9 3.1 5.5-3.35-2.65-10.75-5.65-8.85-3.55-12-1.95zm23.9 8.25-1.7.75-1.7.05 3-.9zM124.1 291.1q2.1-3.1 3.9-4.45 8.65-4.8 15.65-5.05 9.15-.25 13.05 7.85-3.75-1.9-10.75-4.3-2.55-.85-2.65-.2t2.15 1.9q-3.6.4-12.3 3.65l-8 3.15q.25-1.95-.05-2.35-.35-.45-1.5.7-.35.35-1 2.15-.55 1.5-2.1 2.4zm61.75-26.55q.65 1.1.65 2.4l-.4 2.4q-.35 1.45-2.55 3.5l-4.25 3.4-3.65 2.4q-1.8 1.2-2.15 2.2-.6 1.6.5 5 .5 1.6 2.55 6.6l2.5 6.4q1.55 5 1.45 7.95-.15 4.2-3.15 8.2-3.45 4.55-11.8 1.65 1.05-1 5.25-3.8 3.1-2.05 4-3.9 3-5.4-1.5-13.95-2.75-5.1-3.35-6.75-1.45-3.9-.7-7.2 1.1-3.8 7.4-8.25 7.25-5.2 9.2-8.25"/><path fill="#0d131a" d="M176.85 128.9q13.1 2.3 15.6 3.95t2.25 8.2q-.25 6.4-2.75 10.2-2.45 3.75-7.5 5.15-5.15 1.4-11-.25-6.55-1.9-11.95-13.2-1.95-3.95-2.8-7.8-.95-4.35-.05-6.65.3-.65 1.25-.95 3.4-1.05 16.95 1.35"/><path fill="#d4c79f" d="M191.55 134.25q1.7 1.15 1.45 6.85-.25 5.85-2.45 9.25-2.1 3.25-6.55 4.25-4.5 1.05-9.85-.5-2.95-.85-5.9-4t-5.25-7.85q-1.5-3-2.3-6-.85-2.9-.85-5 0-1.1.35-2 1.55-1.15 15.4 1.15 13.6 2.3 15.95 3.85"/><path fill="#0d131a" d="M165.45 130.75q1.3-.8 11.75 1.3 10 2 11.3 2.8 1.45.95-1.2 10.25-.95 3.35-4.5 4.6-3.85 1.3-8.8-.85-5.05-2.2-7.85-9.8-2.55-7.1-.7-8.3"/><path fill="#fff" d="m170.25 132.75 8 .45q7.2 1.3 8.2 1.9.7.45.75 2.9.1 2.55-.7 4.45-1.1 2.65-4.2 3.55-3.25.95-6.45-.7-3.6-1.8-5.15-6.4-1.4-4-.45-6.15"/><path fill="#0d131a" d="m178.1 131.4 4-.2q2.4.8 3.85 2.75 1.4 1.75 1.4 3.9 0 1.15-.6 2.2l-1.3 1.65-1.5 1q-.8.45-2.05.5l-2.3-.25q-2.45-.85-3.7-3.4-1.25-2.6-.4-5.15.7-2.1 2.6-3"/><path fill="#e50020" d="M180.4 140.9q-1.65-.55-2.5-2.35-.85-1.7-.3-3.4.45-1.3 1.45-1.75l2.3-.1q1.7.55 2.55 2.3.85 1.8.3 3.45-.45 1.3-1.5 1.75z"/><path fill="#0d131a" d="M180.65 139q-.85-.3-1.25-1.15-.45-.9-.15-1.75.25-.65.75-.85l1.15-.05q.75.2 1.25 1.15.4.9.15 1.7-.2.65-.75.9z"/><path fill="#fff" d="M178.65 138.5q-.75-.25-1.05-1-.35-.65-.1-1.45.1-.45.6-.75l.9-.05q.75.25 1.05 1 .4.75.15 1.45l-.65.75z"/><path fill="#0d131a" d="M211.55 119.6q14.65-11.6 17.25-10.2 4.65 2.45 9.05 6.95 6.15 6.3 7.15 12.8 1.5 9.7-5.15 16.35-5.25 5.35-14.05 6.55-8.9 1.25-16.55-2.45-3.85-1.85-7.8-5.4-4.2-3.8-5.4-6.9-.85-2.2-.1-3.6.8-1.4 5.65-5.75 4.55-4.1 9.95-8.35"/><path fill="#d4c79f" d="M236.45 117.45q5.7 5.9 6.6 11.95l.15 2.1q0 7.1-5.25 12.4-4.3 4.35-11.55 5.85-8.45 1.7-16.85-1.65-3.6-1.45-7.35-5.1-3.6-3.5-4.6-6.25-.5-1.5-.15-2.25 1.6-2.9 14.9-13.4 13.55-10.65 15.7-10.2 4.3 2.25 8.4 6.55"/><path fill="#0d131a" d="M221.9 115.7q1.25-.1 4.1 2.1 3.15 2.4 5.5 5.6 6.55 9 1 16.3-3.6 4.7-10.9 5.5-6.7.7-12.4-2-3.7-1.7-6.45-5.35-2.35-3.1-2.45-5 .8-1.45 10.05-9.1 9.6-7.9 11.55-8.05"/><path fill="#fff" d="M219 120.55q5.5 2.4 7.05 6.95 1.4 3.95-.65 7.65-2.3 4.05-7.25 5.3-4.6 1.1-8.4-.7-2.9-1.35-4.95-4.25-1.9-2.6-1.4-3.5.6-1.1 7.35-6.4 7.1-5.55 8.25-5.05"/><path fill="#0d131a" d="M210.1 123.9q2.75-.7 5.35.85 2.55 1.5 3.55 4.4 1.2 3.45-.1 5.85-1.2 2.35-3.8 3.05-2.7.7-5.5-.8-2.8-1.6-3.75-4.45-1.1-3.1.4-5.8 1.25-2.4 3.85-3.1"/><path fill="#e50020" d="M216.9 129.85q.7 2.3-.25 4.1-.85 1.55-2.5 1.95-1.85.5-3.7-.6-1.8-1.1-2.5-3.2-.3-.9-.3-1.8 0-1.25.55-2.25.85-1.55 2.5-2 1.85-.5 3.7.65 1.8 1.1 2.5 3.15"/><path fill="#0d131a" d="M214.05 129.55q.4 1.1-.15 2.05-.4.75-1.25 1-.9.25-1.8-.35-.9-.55-1.3-1.55l-.15-.9q0-.6.3-1.15.4-.75 1.25-1 .95-.2 1.85.35t1.25 1.55"/><path fill="#fff" d="M208.7 128.7q.75-.2 1.5.25.8.4 1.05 1.2.3.75-.1 1.5-.3.55-1 .75l-1.55-.25q-.75-.4-1.05-1.2l-.1-.65.2-.85q.45-.6 1.05-.75"/><path fill="#0d131a" d="m246.85 30.25 4-4.5q3.9-4.55 4.8-4.25 1.15.5 1.45 1.8.3 1.6.2 7.1-.1 5.6-1.7 28.3-1.7 23.6-2.75 32.05-.2 1.85-.7 2.85l-1.45 1.85q-11.05 11.6-33.35 27.6-20.3 14.55-24.2 15.3-2.75.55-25.9-6.25-21.45-6.3-33.15-10.6-1.75-.65-2.25-1.45-.45-.65-.95-3.15-1.7-8.45-6.25-37.5l-4.2-27.35q-.25-2.4 1-3.2 1-.6 3.85 1.4l5.05 3.6q3.85-20.15 4.75-22.8l.9-3.35q.65-2.1 1.45-2.15.8 0 2.2 3.25l1.5 3.85 2.7 7.1q2.9 7.4 3.7 8.95l2.8-3.25q2.65-2.9 3.45-2.65.9.3 1.45 5.35L161 104.9l6.35 3.3q7.8 3.75 9.5 4.65.2-5.1 2.05-14.65 2.1-10.8 3.7-11.1 1.3-.25 8.75 9.1l8.55 10.95 6.55-6.8 5-5.6q.2-.75.2-13.7v-20.9l.15-31.3q.15-2.65 1-3.3.75-.55 1.8.6l3.2 4.2q2.3 3.15 2.65 3.1.4-.05 5.6-12.45 5.75-13.55 6.6-15.15l2-3.75q1.3-2.15 1.95-2.1.9 0 1.5.4.95.65 1.75 2.4 6.55 27.3 7 27.45"/><path fill="#d4c79f" d="m253.85 30.45-1.45 26.7q-1.45 26.35-2.2 33.25l-.45 2.05-1.3 1.6q-10.4 10.35-32.5 26.6-20.4 15-23.2 15.55-2.75.55-24.05-6-21.5-6.6-33.35-11.65l-1.25-.75q-.45-.6-.75-2.25-1.45-7.55-5.8-36.1-4.15-26.85-4.15-27.4-.1-.8.6-.3l6.05 4.2q-.25 1.6.3 2.55.2.5.6.5.5-.05.7-1.05l5.6-26.2q.2-1.05 1 .65l.75 1.9q3.6 9.95 6.75 16.8-1.05 2.55-.7 3.2.25.65 2.25-1.75l3.55-4.25.65-.5.35 1q6.45 55.3 7.3 57.75.15.35 6.9 3.35 8.1 3.55 10.6 4.9 0 2.65.6 2.9.5.2.85-1.05.65-2.05 1-5.4.3-2.9 1.95-11.15 1.7-8.65 2.1-8.65t7.45 8.55l7.6 9.25q-1.1 1.8-1.35 3.05-.3 1.4 1 .3l8.5-8.55q7.05-7.4 7.25-7.95l.15-12.3.1-23.6-.05-18.85q0-10.9.8-10.2l3 3.25 2.65 2.8q.65.4 1.35-.25.7-.6 1.15-1.9.35-1.05 6.25-14.9l6.35-14.8q.9-2.15 1.6.5.6 2.35 3.95 13.5 3.65 12.3 4.35 13.5.65 1.1 1.6.65l.35-.2 2.1-1.95 3.75-4q.4-.5.65.4.3.95.15 2.7"/><path fill="#b7ad8a" d="M137.5 31.4q.2-.35.9 1.25l.6 1.65q3.6 9.95 6.75 16.8-1.05 2.55-.7 3.2l.1.1-.4.45Q140.2 42.7 137.5 31.4m112 5.6q-.25-.3-3.05 3.8-2.9 4.3-3.65 4-1.65-.55-7.15-40 .8-1.2 1.3 1.05.6 2.35 3.95 13.5 3.65 12.3 4.35 13.5.65 1.1 1.6.65l.35-.2 2.1-1.95 3.75-4q.4-.5.65.4.3.95.15 2.7l-1.45 26.7q-1.45 26.35-2.2 33.25l-.45 2.05-1.3 1.6q-10.4 10.35-32.5 26.6-20.4 15-23.2 15.55h-.6q1.5-2 4.2-4 48.7-37.95 49.55-42.5 1.1-5.85 2.55-29.2 1.5-22.8 1.05-23.5m-67.05 56.9.7-2.45q.4 0 7.45 8.55l7.6 9.25-.8 1.45-.75-.25-6.75-7.45q-4.75-5.1-7.45-9.1m-5.65 22.9q-6.15-1.9-12.5-4.6-7.7-3.25-7.95-4.65-1.7-10.35-3.85-29.05-2.15-19.05-2.7-28.95l1.05-1.25.65-.5.35 1q6.45 55.3 7.3 57.75.15.35 6.9 3.35 8.1 3.55 10.6 4.9 0 1.35.15 2"/><path fill="#0d131a" d="M193.4 159.7q-1.1-1.05-.95-2.6.25-1.8 2.4-3.85 1.6-1.5 3.6-2.6 2.35-1.25 5.85-.05 3.05 1.05 4.45 2.85 3.45 4.3 1.9 10.65-.7 2.8-2.25 5.15-1.6 2.4-3.2 3.05l-2.75.05q-.85-.5-1.2-1.8l-.5-2.7-.35-2.5q-.25-1.25-1.35-2.2l-2.55-1.55q-2.3-1.15-3.1-1.9"/><path fill="#922f00" d="m199.5 152.6 4.25.15q2.35.9 3.3 2.1 1.6 2.05 2.15 5.6.4 2.95-.05 4.8-.6 2.55-2.1 3.9-1.3 1.2-2.7 1.1l-.6.1-.15.1q-.35-.25-.6-2.85l-.4-2.7q-.35-1.95-2-3.35l-3.1-1.9-2.6-1.6-.25-.55v-.15q.15-.95 1.7-2.45 1.4-1.35 3.15-2.3"/><path fill="#0d131a" d="M188.35 137.8q4.5-2.85 10.25.05 2.15 1.1 5.05 4.65 3.5 4.4 6.35 10.65l.55 1.2q.7 1.25.4 2.15-.2.6-.6.7l-1.35-.1-4.7-.7q-.5 0-.6.4-2.2 4.9-4.25 7.2-2.15 2.4-4.15 2.2-2.2-.25-5.05-3.8-5.1-6.4-5.7-14.05-.65-7.7 3.8-10.55"/><path fill="#fad9c7" d="M197.75 140q2.75 1.75 5.7 6.3l5.05 8.75q-2.55-.75-5.65-.75-.45 0-.55.35l-1.55 3.25-1.85 3q-1.65 2.6-3.4 2.7-.65.05-1.65-.6-1.2-.75-2.2-2.2-4.1-5.65-4.65-12-.55-6.2 2.65-8.7 1.6-1.25 4.15-1.15 2.35.05 3.95 1.05"/><path fill="#0d131a" d="M202.15 174.2q-1.3-1.65-2.05-3.85-.65-2-.25-2.05l1.55.25q.9.3 1.1.6l.8.5.9.3 1.7-.5 1.4-1.05q1.3-1.55 1.35-4.3l-.5-4.6q-.5-2.8-.2-3.75v.15q.25-.85 1.25-1.35l1.1-.15q2.1 2.3 4 7.9l1.45 5.1q.8 4.25.65 6.2-.2 3.4-2.55 4.7-2.7 1.5-5.95.3-3.15-1.15-5.75-4.4"/><path fill="#fad9c7" d="M210.2 158.4q2.3 5.25 2.95 8.65l.15.95q.55 2.9.55 4.4 0 2.8-1.45 3.6-2 1.05-4.65-.05-2.45-1-4.2-3.2l-.45-.85 1.05.25q1.35.05 2.8-.7 1.3-.65 2.05-1.6 1.85-2.25 1.85-5.9l-.5-4.8z"/><path fill="#d8bcad" d="m196.9 139.55.85.45q2.75 1.75 5.7 6.3l5.05 8.75q-2.55-.75-5.65-.75-.45 0-.55.35-.7 2.15-2.95 5.55-2.6-5.35-3.45-10.55-1.1-6.35 1-10.1m16.95 32.85q0 2.6-1.25 3.45-.25-3.4-3.4-6.3 1.65-2.2 1.65-5.6l-.5-4.8-.15-.75q2.3 5.25 2.95 8.65l.15.95q.55 2.9.55 4.4"/><path fill="#0d131a" d="M101.15 286.65q3.55-3.1 10.55-5.35l2.2-.05 2.8 3.15q2.45 4 .85 8.25l-.7.6-1.85.4-7.8 1.45q-5.6 1.7-8.45 5.6-1.3 1.8-1.9 1.85T96.1 301q-.9-9.05 5.05-14.35"/><path fill="#fad9c7" d="M113.2 283.05q1.45 1.25 2.25 2.95 1.3 2.65.35 5.55l-1.3.25q-4.05.4-6.8 1.25-5 1.55-9.65 5.9-1.15-6.8 4.8-11.2 3.35-2.45 10.35-4.7"/><path fill="#d8bcad" d="M104.6 290.3q1.9-1 11-3.95 1.1 2.5.2 5.2l-1.3.25q-4.05.4-6.8 1.25-5 1.55-9.65 5.9l-.1-.75q1.05-5 6.65-7.9"/><path fill="#0d131a" d="M105.7 246.7q4.5-1.25 11.8-.2l2.05.9 1.1 4.1q.45 4.65-2.85 7.75-.3.3-.9.25l-1.8-.45-7.7-2.1q-5.75-.95-10 1.35-1.95 1.05-2.5.8-.55-.2 0-1.75 3.15-8.5 10.8-10.65"/><path fill="#fad9c7" d="M118.1 248.7q.8 1.75.75 3.65 0 3-2.15 5.15l-1.25-.3-6.65-1.9q-5.2-.85-11.3 1.05 1.95-6.55 9.25-7.95 4.1-.75 11.35.3"/><path fill="#d8bcad" d="M97.75 255.7q3.1-4.05 9.45-4.2l11.65 1.25q-.15 2.7-2.15 4.75l-1.25-.3-6.65-1.9q-5.2-.85-11.3 1.05z"/><path fill="#0d131a" d="M130.6 216.55q4.45 1.35 10.1 6.15l1.2 1.85-1.2 4.05q-2.1 4.15-6.6 5l-.9-.25-1.3-1.35-5.3-5.9q-4.4-3.9-9.2-4.25-2.2-.15-2.6-.65-.35-.5.95-1.5 7.25-5.45 14.85-3.15"/><path fill="#fad9c7" d="M140 224.9q-.25 1.85-1.3 3.5-1.65 2.45-4.6 3.15l-.9-.95-4.6-5.15q-3.9-3.45-10.1-5.15 5.2-4.5 12.1-1.75 3.85 1.55 9.4 6.35"/><path fill="#d8bcad" d="M129.3 221.35q1.75 1.05 9.15 7.35-1.55 2.2-4.35 2.85l-.9-.95-4.6-5.15q-3.9-3.45-10.1-5.15l.6-.45q4.8-1.75 10.2 1.5"/><path fill="#0d131a" d="m161.6 312 .95-1.6q.4-.45.8-.45 4.55-.1 7.5 3.5 1.5 1.8 2.1 3.65l-.8 2.1q-4.4 5.9-8.5 8.2-6.95 3.85-15.2.05-1.45-.7-1.2-1.2.25-.55 2.35-1.2 4.6-1.35 8.05-6.15z"/><path fill="#fad9c7" d="M151.05 326.3q5.65-2.95 8.75-7.2l3.35-6.05.65-1.1q3.05.05 5.2 2.15 1.3 1.3 2.05 3.1-4.45 5.85-7.85 8.2-6.15 4.2-12.15.9"/><path fill="#d8bcad" d="m151.7 326.65-.65-.35q5.65-2.95 8.75-7.2l3.35-6.05.65-1.1q2.9.05 4.85 1.85-5.85 7.75-7.3 9.15-4.6 4.35-9.65 3.7"/><path fill="#0d131a" d="M216.9 187.2q.15-.8 1.05-2.45 1.1-1.95 2.25-3t1.2-.65q.05.3-.5 1.15l-1.3 1.75q-1.15 1.65-1.8 3.35-.35.9-.65.75-.35-.2-.25-.9m-8.9.05 2.05-2.3q1.95-1.8 3.75-2.65 1.85-.85 1.8-.4l-.95 1.05-2.2 1.55q-1.95 1.5-3.25 3.05-.7.85-1.1.6-.4-.2-.1-.9m26.6 1.2q-.45-.7-.9-2.75-.5-2.4-.35-4.25.15-1.8.5-1.55.3.2.45 1.3l.25 2.75q.25 2.1.85 3.8.4 1 0 1.15-.35.15-.8-.45m-10.05-.25q-.05-.8.55-2.85.75-2.35 1.75-3.85 1.05-1.5 1.2-1.1.15.35-.25 1.35l-1 2.25q-.9 2.1-1.2 4-.15 1.05-.6 1-.35-.05-.45-.8m56-18.35q2.4.75 5.15 2.8 2.4 1.7 3 2.65.55.85.15 1.25t-1.45-.6q-1.95-1.85-4.65-3.4-2.55-1.3-3.05-1.6-1.3-.8-1.4-1.25zm16.4 1.8q.7 1 .2 1.45-.6.45-2-.7-2.55-2.1-6.15-3.8l-4.05-1.8q-1.7-.85-1.85-1.4l3 .2q3.2.85 6.85 3.05 3.2 1.95 4 3M280.8 182.6q.35.95-.15 1.25t-1.3-.9q-1.45-2.3-3.7-4.35l-2.6-2.25q-1.1-1.05-1.1-1.55 0-.6 2.15.7t4.4 3.85q1.9 2.2 2.3 3.25m-35.75 64q1.2-4.45.95-4.65-1.95-1.35-2.5-4.45-.4-2.1-.1-3.35.45-2.05 2.35-4.1 1.8-2 3.45-2.5 4.6-1.4 11.55.2 6.35 1.45 8.3 3.55 5.05 5.3 5.05 8.05 0 2.2-1.25 4.3-1.15 1.9-2.85 2.95l-.8 1.2q-.6 1.05-.85 1.9l-3.8 7.3q-6.7 17.2-6.7 19.85l.05.35-.25 5.75-.95 10.4.1 3.35.35 4.55 1 3.5q.7 2.25.7 3.6 0 1.9-.65 4.45-.65 2.5-1.6 4.3-1.95 3.9-8.4 4.75-5.8.75-11.25-1.25-3.75-1.35-5.35-2.65-2.05-1.6-2.5-4.35-.5-3.5-.2-4.85.15-.65 1.5-2 1.45-1.45 1.9-2.45 2.05-4.8 2.05-5.6v-.05q-3.3-1.3-6.2-3.8l-4.5-4.55-4.25-4.3q-4.9-4.7-9.55-8.1-6.85-5-10.5-4.9-4.65.15-7-1.15-1.35-.75-4.15-3.9l-.2-.25q-3.65-4.1-2.8-10.1.4-3.2 2.15-6.05t4.25-4.5q4.95-3.15 8.5-2.55 2.4.45 5 3.05l1.55 1.95q1 1.3 1.5 1.6l8.55 6.3q7 5.55 9.8 7.25-.8-3.35-3.9-9.4-3.25-6.3-4.6-6.65-7.05-1.35-8.6-8.5-.2-.7-.2-3.25 0-3.85 5.55-9 2.65-2.4 5.5-4.05 3.5-2 5.2-1.45l1.75.25q4.45.3 6.65 2.2 3.9 3.3 4.5 12.2.1 1.55 4.7 17.75.4-2.25 2-8.15"/><path fill="#d4c79f" d="M250.45 243.6q.45-.5-1.15-1.85-1.6-1.3-2.4-3.05t-.6-3.55q.15-1.65 1.5-3.55 1.2-1.7 2.05-1.95 3.95-1.2 10.35.25 5.7 1.35 7.25 2.95 2.8 2.95 2.8 6.55 0 1.8-1.2 3.85-1.3 2.15-3 2.7-3.45 1.15-3.3 2.55.1 1.4 2.35.7l-2.65 7q-3.75 9.6-5.25 14.1-1.55 4.7-1.55 6.6l.2 1.15-1.35 15.05-.1 2.1q0 2.3.55 6.35l.65 6.9q0 3.75-1.35 6.45-1.6 3.2-7 4.25-5.15.95-9.55-.6-2.65-1-4.2-2.8-2.25-2.55-1.45-6.1.15-.5 1.55-1.9 1.5-1.4 1.8-2.4 1.95-5.5 1-7.65l-1-1q-3.15-1.2-6.35-4.45-2.75-2.75-3.65-4.9-.5-1.1-.95-3.9-.4-2.4-.95-3-.95-1.1-1.55.9-.65 2-.05 3.45l-7.3-5.9q-8.7-7.25-11.85-7.3 3.1-.8 2.9-1.55t-2.05-.4l-4.85.35-4.45-.35q-1.25-.4-4.1-4.85-3.1-4.7-2.8-6.85.4-2.75 1.85-5.2 1.45-2.4 3.55-3.8 3.95-2.5 6.7-1.75 1.65.5 4.4 3.2 2 2 3.15 2.65l9.1 6.6q8.65 6.25 11.2 7.5l.55 2.1q.25.95 1 .25 1.5-1.4-1.95-9.5l-4.9-10.75q3-.3 2.55-1.35t-5.8-.95q-2.15.05-4.75-3-2.85-3.25-2.55-6.55.2-2.2 1.2-3.9.95-1.6 3.4-3.9 2.7-2.45 5.55-4 2.45-1.3 3.15-1.1l2.2.3q3.85.25 5.6 1.9 3 2.75 3.55 10.45.1 1.2 2.85 11.1 2.75 9.85 2.75 10.8-.9 4.45-.4 5.7.45 1.05 1.5-.65.8-1.2 2.8-10.05l2.35-10.6z"/><path fill="#b7ad8a" d="M230.55 233.15q0-1.75-2.6-3.95-1.3-1.15-5.55-4 1.8-.95 2.4-.7l2.2.3q3.85.25 5.6 1.9 3 2.75 3.55 10.45.1 1.2 2.85 11.1 2.75 9.85 2.75 10.8l-.35 2.25q-4.65-9.05-6.7-13.7-3.5-8.05-4.15-14.45M198.75 270l-4.45-.35-.2-.1q2.65-.1 6.1-1.25l4.7-1.7q3.35-1.35 6.1 1.95l2.35 3.2q1.5 1.95 2.85 2.95.8.55 5.65 2.2 3.1 1.1 3.1 3.05l3.1 11.2q-2-2.2-2.65-3.8-.5-1.1-.95-3.9-.4-2.4-.95-3-.95-1.1-1.55.9-.65 2-.05 3.45l-7.3-5.9q-8.7-7.25-11.85-7.3 3.1-.8 2.9-1.55t-2.05-.4zm69.65-36.05q1.85 2.5 1.85 5.45 0 1.8-1.2 3.85-1.3 2.15-3 2.7-3.45 1.15-3.3 2.55.1 1.4 2.35.7l-2.65 7q-3.75 9.6-5.25 14.1-1.55 4.7-1.55 6.6l.2 1.15-1.35 15.05-.1 2.1q0 2.3.55 6.35l.65 6.9q0 3.75-1.35 6.45-.85 1.75-3.05 2.9-2.05 1.05-4.8 1.45 8.55-4.15 6.45-11.45-3.9-12.35-1.85-27.15 1.7-12.05 7.4-26.3.65-2.55-.7-6-1.55-3.95-1.55-5.15 5.6 0 7.8-.85 3.75-1.4 4.5-5.85z"/><path fill="#0d131a" d="M217.9 216.3q8.4 4 10.9 11.9l-.15.8q-3.3 5.5-7.9 7.55l-4.2.9-.8-.65q-1.05-5.1-6.25-11.35-5.65-6.85-11.15-8.2-2.1-.55-1.05-1.3l1.5-.65q10.15-3.3 19.1 1"/><path fill="#fad9c7" d="M214.3 228.45q-2.45-3.5-5.75-6.75-3.35-3.25-6.45-5.15 6.8-1.3 13.1 1.2 5.85 2.35 9.2 7.1 1.2 1.7 1.95 3.85-2.2 3.55-5 5.3-1.8 1.1-3.5 1.3-.9-3.15-3.55-6.85"/><path fill="#d8bcad" d="M203.45 216.35q7.4-.2 12.25 5.3 3.3 3.7 6.5 11.75-2.2 1.65-4.35 1.9-.9-3.15-3.55-6.85-2.45-3.5-5.75-6.75-3.35-3.25-6.45-5.15z"/><path fill="#0d131a" d="M167.1 256q-2.15.6-1.6-.6l1-1.3q7.25-7.8 17.2-8.4 9.3-.55 15.3 5.1l.25.75Q199.05 258 196 262q-1.55 2.05-3.2 2.85l-1.05-.2q-3.4-3.95-10.95-6.9-8.25-3.2-13.7-1.75"/><path fill="#fad9c7" d="M186.45 258.05q-3.9-1.9-8.3-3.1-4.5-1.25-8.15-1.35 5.3-4.5 12.05-5.35 6.3-.8 11.5 1.75 1.8.9 3.6 2.45-.25 4.2-1.85 7.05-1 1.85-2.45 2.85-2.3-2.3-6.4-4.3"/><path fill="#d8bcad" d="M171.1 252.75q6.35-3.75 13.3-1.35 4.7 1.65 11.35 7.15-1.1 2.55-2.9 3.8-2.3-2.3-6.4-4.3-3.9-1.9-8.3-3.1-4.5-1.25-8.15-1.35z"/><path fill="#0d131a" d="M254.75 205.65q-1.05-1.95.25-1.65.65.15 1.5.65 9.3 5.15 12.3 14.65 2.8 8.9-1.3 16.05l-.65.45q-6.3 1.35-10.95-.65l-3.5-2.4-.1-1.05q3-4.25 4.05-12.3 1.15-8.8-1.6-13.75"/><path fill="#fad9c7" d="M257.45 224.95q.9-4.2 1-8.8.1-4.65-.65-8.25 5.6 4.1 8.05 10.4 2.3 5.9 1.1 11.55-.45 2.2-1.5 4.1-4.1.8-7.25-.05-2.1-.6-3.4-1.7 1.6-2.45 2.65-7.25"/><path fill="#d8bcad" d="M258.9 208.8q5.15 5.25 4.5 12.55-.45 5-4.2 12.75-2.7-.45-4.4-1.9 1.6-2.45 2.65-7.25.9-4.2 1-8.8.1-4.65-.65-8.25z"/><path fill="#0d131a" d="M222.1 334.35q5.25-2.45 9.45-10.05 3.8-6.95 3.7-11.95l.7-.8h4.4q5.15.9 9.8 5.35l.3.75q-.65 7.9-8.3 13.4-8.1 5.95-19.15 5l-1.65-.3q-1.3-.45.75-1.4"/><path fill="#fad9c7" d="M235.7 320.5q1.85-4.1 2-7.2l3.9.45q3.2 1.05 6.3 3.9-.3 2.1-1.1 4.05-2.3 5.15-7.7 8.6-5.8 3.7-13.05 3.9 2.75-2.45 5.4-6.2 2.6-3.7 4.25-7.5"/><path fill="#d8bcad" d="m227.5 334.1-1.45.1q2.75-2.45 5.4-6.2 2.6-3.7 4.25-7.5 1.85-4.1 2-7.2 2.3-.25 4.9.85-1.35 8.2-3.85 12.4-3.7 6.15-11.25 7.55"/></svg>