<svg xmlns="http://www.w3.org/2000/svg" width="226" height="325" viewBox="-0.2 -0.55 225.5 324.95"><path fill="#e50044" d="m136.55 273.5 5.7-4.3q4.75-2.5 10.55-2.4 4.35.1 7.85 3.15 3.4 3 5.1 8.05 3.8 11.55-3.3 24.15-6.75 12-17.35 17.25-9 4.5-14.85 2.1-5-2.1-6.45-7.05-1.55-5.3-.05-17 1.25-10 8.2-18.85 2.15-2.75 4.6-5.1"/><path fill="#fff" d="M66.3 177.65q2.95.4 12.35 4.3 4.7 1.95 8.8 3.8-4.5 15.2-1.95 27.8 1.3 6.3 3.45 9.55l-1.8 3.15q-2.5 3.8-5.95 7-4.2 3.9-6.2 5.05-3.9 2.35-9.1 2.45-4.95.1-10.3-3.45-5.25-3.5-8.45-8.9-5.6-9.4-7.45-20-1.9-10.8 1.6-14.95 2.3-3.2 5.75-5.85 2.2-1.7 6.15-4.05 4.35-2.6 9.15-4.5 2.4-.95 3.95-1.4"/><path fill="#fff" d="M47.4 192.25q5.2-.3 8.6 3.8 1.75 2 2.4 4.1 3.8 9.3.7 16.25-1.55 3.5-3.85 5.15-1.85 6.2-5.25 9.1-2.2 1.9-3.95 1.9-4.75.45-9.05-1.2-8.45-3.2-9.9-13.65-1.65-12.3 6.1-19.45 6-5.55 14.2-6"/><path fill="#e50044" d="m33 120.65 9.3 4.55-1 26.1h-3.35q-19.1-9.4-34.6-16-2.1-.9-2.05-4.1.05-4.05 5.6-7.15 5.95-3.25 10.8-4.25 7.3-1.5 15.3.85"/><path fill="#ffe792" d="M3.35 135.3q2.7-2.65 7.5-4.6 9.7-3.95 20.55-.6 6.6 2.05 9.05 7.85 2.25 5.3.85 13.35l-4.7-.7q-5.5-2.85-12.4-6.15-13.8-6.7-20.85-9.15"/><path fill="#fff" d="M32.1 187.75q-6.2-1.5-9.45-8.55-3.55-7.85.2-16.65 3.4-7.85 10.95-10.35 3.75-1.25 6.85-.9 13.65 3.75 14.95 10.05.5 2.25-.4 5.75l-1.5 6.05q-.85 5.05-3.1 7.6-1.15 1.3-2.1 1.55-1.6 4.6-6.25 5.85z"/><path fill="#30353a" d="M46.05 169.95q0-1.8 1.4-3.5 2.8-3.45 9.85-3 7.9.45 18.9 4.35 9.85 3.45 16.25 7.35L87.7 186.2q-2.6-1.5-6.7-3.4-8.3-3.7-16.05-5.4-10.7-2-13.75-2.95-4.55-1.4-5.15-4.5"/><path fill="#fff" d="M211.35 157.6q8.3 2.15 9.5 4.7 3.7 7.95-.15 22.1-2.7 9.7-8.55 21.15-5.8 11.3-15.3 18.95-10.85 8.75-21.1 7.5-11.55-2.35-16.2-4.8l-2.05-1.45-.3-.5q2.1-3.35 3.55-9 2.85-11.25-.55-22.65-6.6-19.3-24.35-27.45-5.55-2.55-11.5-3.7l-4.9-.6 22.8-4q27.55-3.8 51.15-2.85 9.7.4 17.95 2.6"/><path fill="#e50044" d="M96.1 168.95q3.3-.45 8.2-3.5l4.2-2.95 3.65-.35q7.45-1.2 16 1.3 8.45 2.5 15.8 7.95 16.8 12.5 18 30.85 1.2 18.2-9.75 31.4-10.15 12.15-23.55 12.9-14.3.8-25.7-6.45-13.45-8.6-16.85-25.75-3.1-15.45 3.15-32 1.95-5.15 4.6-9.8z"/><path fill="#ffe792" d="M101.4 172.35q2.1.2 7.6-1.15 9.85.3 19.25 6.15 8.35 5.2 12.9 12.25 4.7 7.3 7.2 21.2 2.4 13.55.55 20.4-1.55 5.8-6.95 9.95-5.35 4.15-12.75 5.3-17.45 2.75-31.75-11.25-12.65-12.45-12.7-31.5-.05-6 1.2-11.9l1.25-4.7q2.65-7.3 8.7-11.75z"/><path fill="#e50044" d="M212.05 130q-49.2 13.8-61.25 24.75-8.55 2.7-21.4 5.25l-11.15 1.95q1.3-12.45 6.55-27.2 10.6-29.6 30.7-41.3 13.8-8 31.4-2.95 18.9 5.45 30 23.55 3.55 5.75 2.3 10-1.2 4.3-7.15 5.95"/><path fill="#ffe792" d="M207.65 131.2q-12 3.1-23.1 7.05-21.45 7.6-35.15 17.6l-25.8 4.9q1.05-5 3.2-11.4 4.25-12.7 9.7-19.35l7.55-10q5.4-6.85 10.25-10.9 14.3-12 31.65-6.7 13.35 4.05 20.95 12.45 3.8 4.25 4.95 7.65l.1 3.65q-.65 3.9-4.3 5.05"/><path fill="#30353a" d="m84.75 201.05.7 11.5q-7.1-2.3-11.7-2.45-4.55-.2-13.95 1.55-6.45 1.15-8.1-3.45-.65-1.9.4-3.8 1.15-2.05 4.05-3.15 11.05-4.3 20.95-2.65 4.95.8 7.65 2.45m17.2 43.7q-8.6 3.45-8.15 17.1l-9.05-11.25q.95-2.9 2.8-6.15 3.7-6.5 8.05-8.05 4.75-1.7 9.45 1.2 4 2.5 5.6 6.45-4.4-1-8.7.7"/><path fill="#e50044" d="M83.15 279.8q-6.15 1-12.75-.65Q53.45 275 42.45 256.9q-1.3-2.85-1.9-6.45-1.2-7.15 2.35-10.65 4.85-4.9 12.65-4.7 9.45.2 20.9 8.3 12.35 8.7 16.75 18.35 4.35 9.55-1.45 14.5-3.1 2.65-8.6 3.55"/><path fill="#30353a" d="M96.6 168.7q3.3-1.3 7.65-4.25l3.7-2.75 2.25 2.3q1 3.85-1.9 7.35-1.65 2.05-4.5 2.25l-2.5-.15z"/><path fill="#c6003a" d="M56.05 247.4q7.35 2.15 13.3 6.45 6.85 5.05 11.6 11.4 5.7 7.65 3.25 11.5-1.55 2.4-5.5 2.95t-9.35-.9q-7.2-1.85-13.55-6.15-8.6-5.75-11.75-13.85-.75-2.15-1-4.7-.5-5.1 2.2-6.9 3.05-2.1 10.8.2m66.6 59.1 2.3 3.7q3.35 3.95 8.8 5 6.8 1.35 16-4.5 9.65-6.2 15.45-16.5l-1.95 4.85q-2.6 5.8-6 10.4-10.95 14.75-25.7 12.1-6.95-2.35-8.6-8.95-.55-2.05-.45-4.3zm24.75-67.95.6-4.05q.65-.8 1.15-4.05l.4-3.1q7.5-6.25 12.45-17.1-3 18.5-14.6 28.3"/><path fill="#dbc77f" d="M134.65 245.3q-10.75 3.05-22.55-.8l-1.55-.5-1.05-1.85q-1.4-2.2-3.45-3.8t-5.65-2.25l-3.25-.35q-4.2-4.05-6.7-9l-1.65-4.2 1.45 1.95q2 2.35 4.55 4.35 8.25 6.45 19.4 7.15 13.45.8 22.2-1.75l-1.1 4.25q-1 4.7-.65 6.8"/><path fill="#dbdcdc" d="m22.1 172.65 4 3.8q5.2 3.7 11.45 3.25 6.3-.45 9.35-2.95l1.85-2.35 4.55 1.15-1 2.75q-1.45 2.95-3.85 3.8l-1.7 3.55Q44 189.15 38.7 189q-6.95-.25-11.6-4.2-5.3-4.5-5-12.15M43 232.9q-7.3-.6-11.55-6.5-4-5.4-3.75-12.8l2.8 3.55q3.8 3.6 8.8 3.9 5.7.3 10.55-2.45 4.5-2.5 6.2-6.3l4.15-.7-.75 3.8q-1.45 4.2-4.85 6.05l-.4 1.9q-.55 2.3-1.6 4.15-3.25 5.95-9.6 5.4"/><path fill="#30353a" d="M100.2 247.25q-6.6 5.6-6.05 16l-3.5-5.45q.3-3 1.15-6.3 1.6-6.6 4.1-8.1 3-1.85 6.1-2.4l7.05-.35 1.45 3.2q-4.9-1.2-10.3 3.4m-14.7-35.4q-2.45-1.25-6.65-2-8.4-1.45-17 1.35-5.1 1.65-7.65.1l-1.65-1.7q1.85-.95 6.5-2.2 6.2-1.75 11-1.8 6.3-.1 11.4 1.2 2.55.65 3.8 1.35zm-39.2-41.8 15.05 2.2q17.15 3.5 27.85 9.9l-1.4 2.9q-15-5.95-23.4-7.85l-13.15-2.3q-4.95-1.2-4.95-4.85"/><path fill="#0d131a" d="M89 179.8q2.2-4.65 5-8.8 1.45-2.1 2.65-3.5.25-.3.95.3.7.55.45.85L95.6 172q-2.65 4-4.65 8.5-6.4 14.1-4.75 28.45.95 8.4 4.45 15.35 3.6 7.1 9.55 12.1l-3.3.15q-5.45-5.25-8.8-12.2-3.45-7.05-4.35-15Q82.1 194.5 89 179.8m45.85 66.15q-6.2 1.85-14.2 1.2-7.3-.6-12.35-2.85l1.7-2q5.45 2.35 12.75 2.8 7.2.4 12.3-1.3zm-26.2-84.35q14.6-2.45 27.65 3.8 14.35 6.8 22.5 22.35 6.5 12.45 3.75 27.15-2.9 15.65-15.15 24.95l.35-3.3q11.05-10.05 12.8-24.75 1.45-12.75-4.05-23.1-8.1-15.2-22.3-22.05-12.6-6.05-24.6-3.55l-.8-.65q-.5-.8-.15-.85"/><path fill="#0d131a" d="m107.65 172.4 1.45-1.55q17.15 1.8 27.6 12.45 7.05 7.15 10.55 17.95 3.05 9.35 3.1 19.65.05 9.3-2.25 15.85l-.65-3.7q1.6-5.25.85-14.7-.8-10.55-4.25-19.5-5.05-13.2-17.3-20.7-10.15-6.2-19.1-5.75m-1.95.2-1.1.2q-6.95 1.65-11 5.65-3.25 3.15-5.65 9.05l-.75.05q-.6-.35-.5-.7 2.05-5.75 5.25-9.1 3.95-4.1 10.95-6.2z"/><path fill="#0d131a" d="M102.65 172.4q.1-.35.85-.25.7.1.6.45-5.9 21.55.5 42.45 6.95 22.8 25.3 30.75.35.1-.1.65l-.75.4q-17.65-6.45-25.55-27.95-8.05-22-.85-46.5m62.25-81.2q-18.3 4.85-31.2 27.3-10.8 18.8-14.55 42.75-.05.4-1 .5t-.9-.3q3.85-24.4 13-42.05 12.9-24.85 34.05-30.45 13.5-3.6 28.55 3.05 14.3 6.25 23.3 18.5 4.75 6.4 4.35 11.75-.45 6.15-7.8 8.15-16.3 4.45-27.25 8.55-20 7.55-37.65 18.65-.3.2-.3-1 0-1.15.2-1.3 19.4-12.3 38.7-19.15 6.1-2.15 26.1-7.45 5.35-1.4 5.95-5.9.6-4.45-3.7-10.3-8.9-12.15-22.35-18.3-14.3-6.55-27.5-3"/><path fill="#0d131a" d="M210.5 123.25q-1.15-7.05-9.2-12.8-8.35-5.95-17.15-7.95-10.75-2.45-20.05 1.7-12.85 5.7-24.7 22.8-11.55 16.6-15.1 33.5-.05.3-.9.4-.8.05-.75-.25 4.1-19.55 15.2-35.7 11.3-16.45 25.5-22.75 9.35-4.15 20.45-1.7 9.35 2.1 18.1 8.3 8.95 6.35 10.6 13.65 1.5 6.45-2.9 8.15l-3.75 1.05q5.7-1.7 4.65-8.4"/><path fill="#0d131a" d="M208 156q11.15 1.85 13.05 4.95 4.25 7 1.7 20.25-2.45 12.75-9.95 25.45-7.85 13.4-17.9 20.55-11.25 8.05-22.2 5.6-4.6-1-8.55-3-2.75-1.35-6.8-4.05-.3-.2-.2-1.05.05-.85.4-.65l7.6 3.8q3.95 1.7 8 2.55 10.55 2.2 21.1-5.7 9.2-6.95 16.45-19.9 6.7-12.05 9.1-24.1 2.45-12.3-1-18.2-4.05-6.95-39.1-6.1-31 .7-57.75 5.85-.4.1-1.75-.55t-1-.75q26.2-7.1 62.4-6.8 15.75.1 26.4 1.85M40.15 193.95l-1.7.25q6.6-8.8 26-17.75.35-.15 1 .65.7.8.35.95-7.7 3.5-11.75 5.9-7.2 4.2-11.75 9.15-.3.3-2.15.85m15.8 40.95-3.95.45q-2.35-1.8-3.8-3.65-.2-.3.4-.9.6-.65.85-.4 2.55 2.5 6.5 4.5m32.85-12.35q.25-.25.9.3t.45.85q-4.4 6.4-7.9 10.1-5.45 5.65-10.7 7.1l-3.85-1.55q5.55-.55 11.85-6.45 2.65-2.5 9.25-10.35M35.15 121.7q-.3.9-.65.8-8.85-3.75-17.95-1.5-5.9 1.45-10.95 5.05-3.8 2.75-3.35 5.3.5 2.75 6.05 4.8 8.75 3.3 16.4 6.85 9.35 4.3 14.15 7.7.2.15-1.05.6l-1.55.25q-3.6-2.55-12.95-6.7L6.75 137.8Q.2 135 0 131.25q-.2-3.65 5.35-7.65 5.05-3.6 11.15-4.95 9.15-2 18.6 2 .35.1.05 1.05"/><path fill="#0d131a" d="M31.5 130.6q-7.4-2.15-14.45-.8-7.05 1.3-13 5.9-.25.25-.85-.2-.6-.4-.35-.65 6.7-5.8 14.1-7.05 6.45-1.1 14.65 1.2zm23.95 31.7q9.05.6 20.2 4.1 11.05 3.5 17.25 7.7.3.2-.3 1.25-.65 1-.95.8-6.4-4.4-17.1-7.8-10.75-3.4-19.7-3.85-2.5-.15-4.5.6-1.95.8-2.9 2.25-1.2 1.85-.25 3.6.7 1.3 2.45 2 1.45.6 4.5 1 8.1 1.15 16.1 3.45 9.95 2.9 17.55 7.05.3.2-.15 1.1-.4.9-.75.7-7.5-3.65-18.55-6.85-9.4-2.75-13.95-3.2-6.8-.65-8.75-4.4-.65-1.2-.45-2.85.15-1.5 1-2.85 1.25-1.9 3.75-2.95t5.5-.85m28.9 37.05q.35.1.3 1.15t-.4.95q-7.45-2.3-15.75-1.9-7.35.4-12 2.6-3.5 1.65-3.9 3.95-.3 1.5.6 2.65.6.85 1.65 1.4 1.5.75 3.4.5l1.3-.35q6.85-1.55 10.9-1.8 7.8-.5 14.2 2.15.35.15.65 1.4t-.05 1.1q-10.15-4.15-25.55-.8l-1.15.25q-2.75.6-4.9-.7-1.6-1-2.2-2.5-1.25-2.8 0-5.45 1.35-2.7 5.15-4.4 5.2-2.25 11.9-2.55 8.1-.4 15.85 2.35m3.55 42.3q4.35-6.7 9.95-7.1 5-.35 9.45 3.35 3.85 3.2 3.85 5.6 0 1.55-1.4 1.3-6.1-1.1-10.65 5.2-4.6 6.35-4.25 15.35 0 .35-1.05-.75l-1.1-1.5q-.3-6.1 3.9-12.75 5-8.05 12.6-7.25-.9-1.8-3.9-3.85-3.7-2.55-7.35-2.55t-6.85 3.4q-3.85 4.1-5.5 11.95-.05.35-.85-.5-.75-.85-.7-1.2.95-4.15 3.85-8.7"/><path fill="#0d131a" d="M89.3 276.55q5.25-3.2 4.1-10.3-1.3-7.75-13.6-18.05-13.15-10.95-24.75-11.95-4.8-.4-8.05 1.2-3.2 1.65-4.5 5.1-2.15 5.7 1.35 13.7 3.8 8.65 12.35 14.9 7.7 5.6 17.6 7.2 9.95 1.65 15.5-1.8m6.35-10.5q.95 7.95-4.9 12.1-5.7 4.05-16.15 2.7-10.8-1.4-20.05-7.85-8.7-6.05-12.75-15.6-4.1-9.5-.9-16.1 1.9-3.9 6.05-5.85 4.1-1.95 9.55-1.5 11.05.95 24.55 12 13.55 11.05 14.6 20.1m56.65.95q-.4-.05-.65-.95-.3-.9.05-.9 6.4.25 10.9 5.25 6.1 6.7 4.9 19.6-1.3 13.95-12.8 24.45-10.8 9.95-20.5 8.55-5.55-.85-8.7-3.8-3.45-3.35-4.4-9.75-1.55-10.35 3.95-22.4 5.55-12.35 14.25-16.7.2-.1.6.7t.2.85q-7.2 3.95-12.55 16.2-5.35 12.3-3.95 21.75 1.45 9.7 10.1 10.9 8.95 1.3 18.75-7.3 10.95-9.65 12.6-24.35 2.1-18.65-12.75-22.1M34.15 153q-4.85 1.9-7.85 6.75-2.6 4.2-3.25 8.95-.65 4.7.75 9 1.1 3.25 3.25 5.65 2.15 2.35 5.1 3.5 6.85 2.45 11.45.3 3.55-1.75 4.95-6.1.1-.35.75-.25.6.05.5.4-1.9 5.85-5.45 7.55-3.35 1.6-8.1 1.2l-5.1-1.05q-3.35-1.3-5.95-4.05-2.65-2.8-3.9-6.4-1.55-4.65-.85-9.8.7-5.2 3.5-9.7 2.85-4.55 7.5-6.85 4.05-1.95 8.7-1.95 6.8 0 11.4 3.6 4.6 3.55 5.75 9.7l-2.4-.7q-.75-3.5-3.8-6.35-3.45-3.25-8.35-4.15-4.45-.85-8.6.75"/><path fill="#0d131a" d="m39.45 184.75-.85.85-.75.25q-.35-.15-.25-.75.1-.95.8-1.7.9-1.05 2.4-.9 9 .5 12.1-8.1l.8-.1q.65.25.55.6-2 6.8-7.05 8.75-2.5.95-6.5.6-.7-.05-1.25.5m10.4 6.65q4.7.9 7.55 4.75 1.45 1.95 2.05 3.9.15.35-.65.7-.85.35-1 0-.55-1.55-1.85-3.2-2.55-3.3-6.35-4.1-5.45-1.1-11 1.95-6.65 3.7-9.15 11.7-2.5 8.05.3 14.75 2.5 5.9 7.75 8.4 2.7 1.25 5.55 1.25 2.95.05 5.25-1.2 4.6-2.35 5.75-8.85.05-.35.8-.45.75-.05.7.3-.4 4.25-2.35 7.3-1.6 2.5-3.8 3.6-2.75 1.45-6.3 1.55-3.65.05-6.7-1.35-5.9-2.75-8.85-9.7-3.2-7.6-.6-16.05 2.75-8.75 10.4-12.95 6.45-3.5 12.5-2.3"/><path fill="#0d131a" d="M59.7 210.9q0-.35.7-.3.7.1.7.45 0 6.15-3.65 9.35-1.65 1.45-5.75 3-1.55.55-2.1 1.25-.6.65-1 2.4-.2.9-.65.7-.45-.15-.4-1.1.15-2.05.75-2.95.75-1.25 2.85-2 3.3-1.2 5.1-2.8 3.15-2.9 3.45-8m42.15-38.6q4.6 0 6.55-2.95.8-1.15 1.05-2.5.2-1.2-.15-2-.3-.95-2.3-2.55-.3-.25.25-.95.6-.7.85-.45l1.35 1.1q1.25 1.05 1.55 1.95 1.3 3.5-.85 6.65-2.95 4.25-8.3 3.35-.95-.15-2.7-1.6l-3-2.95 1.8-.85q3.3 3.75 3.9 3.75"/><path fill="#30353a" d="M96.6 168.7q3.3-1.3 7.65-4.25l3.7-2.75 2.25 2.3q.4 1.5-.05 3.8-.6 2.9-2.35 5.05-3.8 4.65-7.2 1.65z"/><path fill="#0d131a" d="M107 162.3q-.3-.25.25-.95.6-.7.85-.45l1.35 1.1q1.25 1.05 1.55 1.95 1.45 3.9-1.75 8.4-3.25 4.5-7.15 3.9-1-.15-3-2.45-2.05-2.35-3.3-4.9l1.35-1.35 2.3 3.8q2.05 3.2 3.2 3.3 3.55 0 5.65-3.75 1.95-3.5 1-6.05-.3-.95-2.3-2.55"/><path fill="#30353a" d="m141.5 229.2 2.85.55q1.45.45 2.15 1.55 1.75 2.7.4 12.55-1.25 9.3.95 15.35 1.2 3.2 3.35 6.25 1.2 2.8 1.2 5.05 0 3.2-2.55 4.4-4.15 1.95-7.9-.85l-2.9-3.2q-6.6-10.05-6.65-19.9-.05-3.3.7-7.5l1.05-6.15q.55-4.65 4-6.85z"/><path fill="#0d131a" d="M133.25 236.25q1.15-5.15 5.2-7.1 2.75-1.3 5.05-.9 2.6.45 4 2.35 1.45 1.85 1.45 4.8l-.55 4.6q-1.6 9.5-.55 15.1.8 4.5 4.45 10.55 1.7 2.7.8 5.95-.4 1.5-1.4 2.8l-1.8 1.65q-2.05 1.15-4.4.75-2.5-.45-4.55-2.5-8.6-8.85-9.5-21.15-.45-6.55 1.8-16.9m6.3-5.35q-3.2 1.45-4.15 5.35-2.8 11.7-1.8 19.05 1.2 9.05 8.5 17.4 1.5 1.75 3.55 2.1 1.8.25 3.4-.6 1.75-1.05 2.3-3.1.6-2.05-.95-4.65-4.15-6.7-4.95-12.4-.7-5.05.8-14.1l.5-4.3q0-4.85-3.5-5.4-1.65-.3-3.7.65"/><path fill="#e50044" d="M56.1 69q9.6-3.3 17.6-3.3 18.7.35 29.45 7.4 12.65 8.3 17.75 27.5 4.55 17.05-2.95 41.1-3.75 12.05-8.4 20.65.25-1.4-.15-3.35-.75-3.8-3.7-6.2-3.2-2.6-14.85 2.4l-11 5.55q-.9 3.95-6.55 10.15-7 7.7-13.9 7.75-10.35.15-17.45-5.1-2.2-1.65-3.8-3.65l-1.2-1.65Q22.9 154.2 20.9 132.85q-2-20.75 7.9-40.85 8.05-16.45 27.3-23"/><path fill="#ffe792" d="m80.05 165.35 5.1-.45q8.15-2.15 13.35-12.05l1.95-.35 4.2.25q5.9 1.5 4.9 9.6l-4 5.15q-5.2 5.8-11.1 9.15-8.8 5.05-19.55 5.75-12 .8-23.45-4.2l2.8.25 6.85-.7q10.85-2.5 16.9-12.7z"/><path fill="#30353a" d="M42.6 106.2q3.55-.3 5.75 1.65 2.5 2.3 3.7 7.8 1.15 5.3-.95 9.6-1.75 3.65-4.4 4.6-3.1 1.1-6.3-.75-4.2-2.45-5.35-9.25-1.2-7.45 3.05-11.3 1.35-1.2 3.05-1.9zM35.45 8.05q2.6 1.3-4.95 29.8-7.65 29-14.55 41.95L27.2 95.35l-2.85 6.05Q19 97.85 13.5 93.6 2.55 85.15 1.9 81.85q.3-12.25 14.6-41.8 11-22.8 15.8-29.5 1.3-1.8 2.35-2.35zm59.5 8.3Q104.45.55 106.55.9q1.8-.4-2.4 13.1-3.8 12.25-9.9 27.75l-5.15 13-4.85 10.95q-2.4 4.85-3.2 8.75-.75 3.45-.7 8.95.15 6.6-.15 9.8-.5 6.2-2.4 7.45-2.35 1.55-5.6-7.3-3.35-9.2-2.9-18.3.2-4.25 3.35-13.15 2.9-8 7.65-18.3 5.75-12.45 14.65-27.25"/><path fill="#9ba4a9" d="M42.15 108.1q1.25.4 1.65 2.15.35 1.7-.25 3.65-.65 2.1-1.9 3.15-1.3 1.15-2.7.7-1.35-.45-1.7-2.15-.3-1.55.4-3.65.65-1.95 2-3.1t2.5-.75"/><path fill="#f19a96" d="M39.9 95.1q-2.5-2-1.55-6.6.9-4.05 3.55-7.25 3.15-3.8 7-5.2 3.85-1.35 6.15.4 2.45 1.9 1.8 6.1-.55 4.05-3.6 7.9-3.15 4-6.8 5.4-3.85 1.4-6.55-.75"/><path fill="#c6003a" d="m34.85 160.85 3.3 3.7q4.65 4.05 11.45 5.85 7.05 1.85 15.3-1.5 5.25-2.15 10.05-6l2.8 2.1-1.55 2.45q-2.1 2.9-4.6 5.15-8.1 7.3-17.75 5.75-9.95-1.6-14.8-8.05-2.4-3.1-4.2-9.45"/><path fill="#30353a" d="M3.55 71.05q0 6.95 4.5 12.35Q12.6 88.8 26.2 98l-1.7 3.2q-5.3-2.9-10.75-6.7-10.9-7.55-11.6-12t.3-8.4zM45.2 130q-4.6.25-7-2.6-.7-.85-2.3-4.6l1.4 1.2q1.75 1.25 3.65 1.75 6.15 1.45 11.45-5.8l-.9 4.9q-1.8 4.95-6.3 5.15"/><path fill="#0d131a" d="M93.7 41.1q5.3-13.6 9.4-26.7 3.95-12.4 3.25-12.7-1.1-.55-6.85 8.4-5.75 9-12.25 21.45Q70.4 63.95 70.4 76.7q0 8 2.85 16.05 2.65 7.3 4.45 7.15.75-.1 1.1-4.25.4-4.95.6-18.45.05-2.05 4.75-13.15zm-5.6-14.35q6.5-11.6 12.05-19.4 5.6-7.9 7-7.3 1.55.65-2.45 14.1-3.6 12-9.8 28.3L85.7 65.4q-4.5 10.65-4.6 11.5-.3 2.75-.55 14.35-.55 10.25-2.75 10.5-3.55.4-7-9.95-3.5-10.55-2.1-18.8 2.8-16.75 19.4-46.25m-58.7 10.6Q35.2 14.9 35.2 8.8q0-.15-.15-.1-5.15 3.5-19.25 35.65Q1.55 76.75 3.3 81.9q1.15 3.3 10.55 10.7 8.2 6.4 11.9 8.2.3.15-.1 1.05t-.75.75q-4.65-2.3-12.45-8.3Q2.2 86.45 1.15 82q-.8-3.4 3.4-16.05Q8.5 54.25 14.9 40.1q6.6-14.6 12.15-23.65 6.25-10.2 8.9-9.35 1 .35.4 6.75-.7 6.8-2.95 16.65-5.8 25.7-16.6 49.55 6.9 7.5 10.8 15 .2.4-.4 1.35-.55.95-.75.55-2.1-4.1-4.85-7.75-2.55-3.35-7.45-8.45 8.2-16.2 15.25-43.4"/><path fill="#0d131a" d="m70.9 67.05-.8.1Q43.55 69.2 30.45 92.1q-7.6 13.2-9.1 28.85-.05.4-1 .3-1-.1-.95-.5.4-13.15 6.9-26.55 13-26.75 43.85-29.5l1.5-.1zm-19.85 50.5q-.35-5.15-2.6-8.05-2.2-2.9-5.55-2.65-2.85.2-4.75 3.25-1.9 3-1.9 7.3l.05 1.2q.35 4.65 2.75 7.8 2.35 3.15 5.4 2.9 3.4-.2 5.2-3.4 1.8-3.15 1.4-8.35m-8.3-12.4q4.2-.3 7.2 3.05 3.1 3.4 3.5 9.2.4 5.85-2.1 9.65-2.5 3.65-6.75 3.95-3.9.25-6.95-3.05-3.2-3.5-3.7-9.2-.45-5.25 2.3-9.35 2.7-4 6.5-4.25m47.1 63.6q-.1-1.15.45-1.2.5-.05.7 1.2.65 4.5-2.15 7.05-2.1 1.9-5.6 1.3-1.15-.25-1.15-.75 0-.45 1.15-.4l1.7-.05q1.55-.3 2.6-1.3 1.05-.95 1.7-2.5.7-1.65.6-3.35"/><path fill="#0d131a" d="m16.45 132.8-.1 2.35q0 8.5 3.15 15.7 4.75 10.8 15.8 15.85-1.8-4.15-4.35-14.95l-2.5-11.85q-1.45-8.1-4.35-13.65-2.6-5-4.45-4.65-1.4.25-2.4 4.6-.8 3.6-.8 6.6m101.2-37q-3.1-9.5-9-16-4.45-4.85-11.05-8.1-6.3-3.1-13.75-4.3l.5-2.4q8.3 1.55 14.85 4.65 7.2 3.4 11.75 8.4 5.6 6.2 8.5 15.2 2.6 8.3 3.35 20.45 1.1 18.45-5.85 35.45-7 17.2-19.6 26.2Q90 180.6 82 182.1q-14.4 2.8-28.25-1.6-12.85-4.1-17.1-11.2-15.6-7.1-20.6-21.75-2.4-7-1.95-14.6.15-3.15 1.35-7.15 1.65-5.5 3.95-5.75 3.95-.45 7.35 6.8 2.4 5 4.05 12.5l3.2 15q3.2 13.35 5.9 16.05 4.2 4.2 11.35 5.95 8.2 2 14.3-1.2 5.55-2.95 9.1-7.15l2.5-3.75 1.05.05q.9.4.75.75-1.85 4.4-7.75 8.75-7.6 5.65-16 5.15 4.8 1.75 10.9 2.3 7.3.65 14.35-.7 8.85-1.75 15.9-6.6 8.75-6.05 11.1-11.8 2.15-5.35-2.05-7.8-2.15-1.25-4.95-.75l-2.4.75q-.35.2-.8-.55-.45-.7-.1-.9l3.2-1.2q3.6-.85 6.35.8 1.9 1.1 2.6 2.95.6 1.65.4 4.3 5.45-9.2 8.4-21.5 2.75-11.25 2.7-21.9-.05-11.15-3.15-20.55"/><path fill="#30353a" d="m139.5 137.35 11.45 1.3q-.15 6.25-2 13.3-2.1 7.95-6.1 15.75-3.6 7.1-8.7 9.05l-5.7.2q-2.2-.9-3.05-3.5-1.2-3.6 2.85-7.55 6.15-5.95 9.3-17.85z"/><path fill="#30353a" d="M126 173.75q2.95 2.05 8.85-2.65 7.15-5.7 13.9-18.65-4.35 11.75-5.65 14.3-4.7 9.6-9.7 10.35-4.35.65-6.05-.65-.95-.75-1.35-2.7"/><path fill="#0d131a" d="M138.6 136.35q.05-.35.9-.3.9.1.9.45-.3 10.2-3.45 18.1-2.9 7.1-8.5 13.25-1.85 2-1.9 4.2-.1 2 1.25 3.3 1.5 1.45 3.85 1.1 2.75-.4 5.5-3.05 3.85-3.8 7.8-13.15 4.75-11.15 5.4-21.7 0-.35.9-.3.85.05.85.4-.2 10.8-4.75 22.25-4 9.9-8.35 14.15-3.3 3.25-7.1 3.45-3.25.15-5.35-1.85-1.85-1.8-2-4.75-.15-3.3 2.15-5.8 5.4-5.85 8-12.15 2.75-6.75 3.9-17.6"/><path fill="#30353a" d="M174.6 179.45q0 2.4 2.85 6.6l2.8 3.75q-1.4 2-6.95 5.2l-7.45 4q-3.8 2.05-11.2 2.8-9.1.95-10-3.45-.9-4.45 2.1-6.15 1-.55 8.7-2.4 5.6-1.35 12.95-6 3.65-2.3 6.2-4.35"/><path fill="#30353a" d="M172.05 195.9q-11 6.5-22.8 6l-1.95-.95q-2.05-1.4-2.55-3.6 2.25 2.6 13 .2 12.15-2.8 20.6-10.5l2.4 2.2q-3.15 3.35-8.7 6.65"/><path fill="#0d131a" d="M174.3 178.3q.3-.2.5.85.15 1.1-.1 1.35-5.95 4.9-11 7.3-5.9 2.85-14.2 4.15-2 .3-3.1 1.95-1.05 1.5-.8 3.2.2 1.75 1.75 2.8 1.8 1.25 5 .95 7.7-.6 15.75-4.4 6.75-3.2 11.65-7.5.3-.25 1 .35.65.65.4.9-5.1 4.95-12.2 8.35-8 3.8-16.2 4.45-4 .35-6.5-1.6-2.1-1.65-2.4-4.05-.35-2.4.9-4.45 1.4-2.3 4.1-2.8 6.8-1.25 13.65-4.55 6.25-2.95 11.8-7.25"/><path fill="#fff" d="M164.95 113.45q5.95 9.35 1.75 16.55-2.05 3.6-5.35 5.3-3.05 2.5-7.25 3.05-6.3.8-15.7-2.5-8.85-3.1-10.95-10.9-.7-2.45-.6-5.05l.25-2.15q-1.25-7.45 4.1-11.6 2.7-2.05 5.6-2.6l3-.65 7.35-.25q11.6 1.1 17.8 10.8m28.35 41.85q5.8 1.05 9 3.65 4 1.8 7.05 9 4.05 9.45-.95 18.45-3.25 5.85-9 7.65-3.7 1.2-7.85.55-3 .2-6.85-1.9-4.8-2.65-8.05-7.85-3.65-5.8-3-12.25l1.4-5.35q-.15-3.8 1.45-6.4 1.3-2.15 4.4-4.15 5.3-2.7 12.4-1.4"/><path fill="#dbdcdc" d="M165.2 131.55q-3.2 4.25-8.25 3.5-4.05-.6-6.2-3.1-2.1-3.25-3.8-5.05-2.45-2.6-5.05-3.4l-6.8-.45q-4.05.25-6.4-3.15-2.2-3.15-.9-5.85l1.35 3.1q2 3.1 5.35 2.95l7.85-.35q4.55.6 8.45 5.3 4.3 5.15 9.25 5.45 4.5.25 7.3-3.35-.55 2.3-2.15 4.4"/><path fill="#dbdcdc" d="m134.55 123.05 3.65-.5 4.15.45q2.35.8 4.95 4.4l3.75 5.05q1.8 1.85 4.55 2.4 3.2.65 6.9-.7-1.1 1.65-3.9 2.95-5.5 2.6-13.7.9-10.5-2.15-15.4-8.65-4.3-5.7-2.2-11.1 3.15 5 7.25 4.8m39.8 55.8q1.75 3.35 4.95 5.25 3.1 1.8 7 2.05l1.1 3.5q1.65 3.8 4.25 5.15-3.5.5-9.05-3.45-6.8-4.9-8.25-12.5"/><path fill="#dbdcdc" d="m186.4 186.05 1.65.45 5.65-.35q7.2-1.35 11.9-5.3 3.45-2.9 5.15-6.85-.15 5.5-1.2 9-2.05 7-7.45 10.05t-9.7 1.55q-3.6-1.3-5.05-4.95l-.75-2.45z"/><path fill="#0d131a" d="m127.95 119.95-.05.55q0 4.35 2.4 7.8 3.2 4.7 10.45 7.25 11.2 3.95 18.25.5l.8-.45-5.65-.35q-2.15-.8-3.75-2.45l-2.4-3.1q-2.4-3.3-4.45-4.9-1.45-1.05-3.25-1.25l-3.45.15q-2.75.3-4.15.05-2.35-.45-3.9-2.45zm36 11.65q1.2-1.4 1.9-3.5.6-1.8.6-3.25.1-5.8-3.1-10.95-3.35-5.5-8.9-7.7-8.1-3.25-15.25-1.8-6.15 1.25-9.25 5.25-1.85 2.45-1.75 5.2.05 2.75 2.05 5.35 1.15 1.55 2.95 1.9 1.2.25 3.65-.05l3.95-.15q2.25.25 4.05 1.65l2.85 2.65 2 2.55 2.1 2.7q1.25 1.25 3.15 1.95l5.8.2q1.75-.6 3.2-2m1.55-18.4q3.6 5.95 3.25 11.5-.1 1.9-.8 4-.6 1.8-2.25 3.95-2.4 3.15-5.9 5.05-3.7 2-8.9 1.9-5.2-.05-11.05-2.15-8-2.8-11.45-7.8-2.65-3.85-2.4-8.5.05-1.8.4-3.25l.3-1.15q-.55-3.55.2-6.2.35-1.3 1.3-2.75 2.65-4.1 10.45-5.55 8.75-1.6 17 2 6 2.65 9.85 8.95m35.85 46.8q-4.65-3.55-10.55-4.1-4.4-.35-7.9 1.15t-5.2 4.5q-1 1.75-.8 4.15.25 2.8 2.15 4.75l4.9 4.65q2.9 3.55 3.3 9.05.45 6.1 4.15 8.7 2.45 1.75 5.9.85 7.2-1.9 10.1-7.65 1.95-3.85 2.2-8.25.2-4.45-1.35-8.4-2.3-5.8-6.9-9.4m-19.05-5.15q4.05-1.6 9.4-1.15 6.4.55 11.45 4.4 5 3.9 7.5 10.2 3.3 8.5-.7 17.05-4 8.4-12 10.45-4.05 1.1-7.6-1.5-3.05-2.25-4.15-5.45-.45-1.35-.75-4.55-.25-3.4-2.1-6.2-1.1-1.65-4.3-4.9l-1.5-1.5q-2.3-2.5-2.75-5.4t1-5.7q1.95-3.95 6.5-5.75"/><path fill="#0d131a" d="M174.75 164q.2-.3.85 1.2.65 1.45.5 1.8-1.8 4-1.35 8.4.4 4.55 3.15 8.8 2.5 3.95 5.9 6.55 3.75 2.85 7.65 3.25.4.05 1.95.95 1.55.95 1.2.95-5.85.2-11.1-2.85-4.9-2.9-7.7-7.7t-3.05-10.7q-.3-5.95 2-10.65"/><path fill="#003856" d="M19.8 120.8q3.05-.6 6.55 8.3 3.25 8.25 6.1 22.65 1.4 6.95 3.75 13 1.15 3 2.05 4.6-3.25-.4-10-5.75-9-7.1-11.35-15.85-2.4-8.8-1.1-18.1 1.25-8.75 4-8.85"/><path fill="#005981" d="M19.45 120.95q2.65-.45 4.75 2.65 2.3 3.4 4.45 11.65Q30.5 142.3 30.3 147q-.2 4.9-2.65 5.8-3.35 1.15-6.85-2.65-3.8-4.2-5.25-11.85-1.15-6 .35-11.8 1.4-5.45 3.55-5.55"/><path fill="#003856" d="M79.25 164.95q-6.1-2.3-8.2-12.85-2.45-12.45 4.5-26.5 6.1-12.35 14.95-16.35 6.8-3.05 11.15-.55 3.9 2.25 4.7 8.75 1.05 8.5-3.5 23.3-4.4 14.4-12.3 20.85-6.35 5.2-11.3 3.35"/><path fill="#005981" d="M80.1 137.15q-2.2-6.6-.1-14.4 2.4-8.65 9.35-12.95 6.55-4.05 11.85-1.55 3.7 1.75 5 7.55 1.4 6.1-.55 14.3-1.75 7.5-7.65 12.15-5.65 4.45-10.65 3-5.1-1.5-7.25-8.1"/><path fill="#fff" d="M102.65 121.4q-1.4 4.75-4.65 6.9-3 1.95-6.25.95-3.05-.9-4.45-4.45-1.5-3.7-.3-8.05 1.25-4.55 4.85-6.9 3.4-2.2 6.45-1.15 3.55 1.2 4.65 4.75 1.05 3.4-.3 7.95m-76.5 8.85q.95 3.35-.3 6.25-1.1 2.7-3.2 3.2-2.9.7-5.25-2.1-2-2.3-2.2-4.7.1-3.05.65-6.1 1.15-6.1 3.6-6.15 2.5-.05 4.85 4.75 1.2 2.45 1.85 4.85"/><path fill="#0d131a" d="M72.05 152.85q1.05 4.45 3.45 7.65 2.05 2.8 4.1 3.55 4.05 1.45 9.7-2.65 8-5.85 12.65-20.95 3.85-12.65 3.65-20.55-.2-7.95-4.45-10.35-5.2-2.95-12.35 1.65-7.4 4.75-12.35 14.8-7.35 14.85-4.4 26.85m6.85 13.05q-7.3-2.7-9.25-14.75-2.15-13.05 4.55-26.65 5.05-10.25 13.6-15.2 8.35-4.85 14.35-1.45 4.75 2.7 5.6 10.5 1 8.85-3.3 22.7-3.95 12.85-11.75 20.15-7.5 7-13.8 4.7"/><path fill="#0d131a" d="M16.05 147.55q-2.4-7-1.95-14.6.15-3.15 1.35-7.15 1.65-5.5 3.95-5.75 3.95-.45 7.35 6.8 2.4 5 4.05 12.5l3.2 15q3.2 13.35 5.9 16.05 4.2 4.2 11.35 5.95 8.2 2 14.3-1.2 5.55-2.95 9.1-7.15l2.5-3.75 1.05.05q.9.4.75.75l-2.75 4.45q-3.8 4.9-9.75 8.05-6.65 3.5-15.6 1-7.65-2.1-12.35-6.8-.8-.8-1.85-2.45-15.6-7.1-20.6-21.75m.4-14.75-.1 2.35q0 8.5 3.15 15.7 4.75 10.8 15.8 15.85-1.8-4.15-4.35-14.95l-2.5-11.85q-1.45-8.1-4.35-13.65-2.6-5-4.45-4.65-1.4.25-2.4 4.6-.8 3.6-.8 6.6"/></svg>