<svg xmlns="http://www.w3.org/2000/svg" width="260" height="186" viewBox="-0.6 -3.35 259.55 186.2"><path fill="#8bc56c" d="m181.6 42.9-55.25 61.85q-17.85 2.35-37.3-2.05-38.9-8.75-46.8-42.4-4.35-21.75 6.8-36.85 5.6-7.6 12.05-10.8l5.15-3.05q6.6-3.45 14.15-5.7 24.1-7.25 48.15.35 25.05 7.95 38.9 20.3 7.65 6.8 14.15 18.35"/><path fill="#8bc56c" d="M211.65 61.5q7.35 6.95 11.8 23.6 2.1 7.8-1.15 16.45-3.05 8.15-10.25 15.6-15.5 15.95-37.35 18.9-23.65 3.2-40.7-6.6Q115.6 118.9 116.95 99q1.2-17.35 13.1-30.3 5.95-6.45 11.65-9.45l2.95-1.7q3.8-2.05 8-3.7Q166 48.6 178 49.2q23.6 2.85 33.65 12.3"/><path fill="#ffec60" d="M15.45 91.95Q27.6 78.1 31.8 75q4.4-3.2 9.15-2.2.9.15 7.55 3.05l13 5.05q10.4 3.95 12.75 5.05 2.8 1.3 3.5 2.85.35.8.15 1.3l-31.05 10.2q-3.45-1.45-6.15-4.1l-2.05-2.4Q34.5 98.3 24 105.2q-12.05 7.9-17.75 8.35-5.55.45-5.6-2.4-.1-2.1 2.15-4.45z"/><path fill="#ffec60" d="M88.65 91.05q4.55.4 7.4 3.85 1.45 1.7 1.95 3.35l-9.75 15.95-27.5-5.55q-10.1 23.4-22.55 33.1-8.35 6.5-14.1 5.35-2.7-.55-2.15-3.65l1.15-3L45.55 97.9q4.1-7.5 7.15-9.5 2.65-1.75 7.4-.8 8.3 1.65 28.55 3.45"/><path fill="#ffec60" d="M97.3 98.55q3.3-4.65 7.55-5.4 4.3-.75 8.5 1.25 2.15.95 3.4 2.1-.65 2.25.15 8.5.4 3.1.95 5.75-1.7 3.55-6.4 10.2-5.3 7.45-8 9.3-2.55 1.7-3.1 6.05-.25 2.2-.05 4.05.05 13-4.15 27.15-3.95 13.4-7.35 14.45-2.75.85-4.1-2.85-.65-1.8-1.15-6.05-2.25-26.95-3.65-34.2-.95-4.75-.25-8.7.5-2.9 1.3-3.7l6.1-10.35q5.9-10.4 6.7-11.45 1.85-3.6 3.55-6.1m112.15-76.9-31.85 13.8-4.55-5.7q-4.9-5.9-6.7-6.6l4.85-7.35q5.35-7.3 7.9-7.2l11 .95 9.9 1.1 9.5.5q7.5.75 7.15 3.1-.35 2.3-3.8 5.1z"/><path fill="#ffec60" d="M203.3 37.15q-8.25 14.3-9.3 15.25-8.05-2.7-11.65-2.6l-2.7-9.9-1.65-4.2 6.5-8q6.9-8.15 8.9-9.05 3.85-1.75 6.75-1.35 4.45.55 11 5.55l26.4 19.7q2.45 1.95 2.3 3.9-.25 2.75-7.2 2.4-6.9-.4-18.3-5.8-5.7-2.7-11.05-5.9"/><path fill="#ffec60" d="M247.5 81.65q-8.6-2.6-21.05-8.95l-10.1-5.85q-.45-1.8-5.15-5.6-6.85-5.45-17.75-9.5l9.35-3.35q9.6-3.35 11-3.4 6.5-.3 12.5 5.55 5.75 5.5 25.15 22.4 3.7 3.25 5.1 5.2 2.05 2.8.65 4.25-1.7 1.65-9.7-.75"/><path fill="#0a2b3c" d="M120.8 2.8q11.05 1.6 15.1 3.55-8.4.2-19.8 2.8-22.9 5.2-38.1 17.2-17.55 13.9-23.5 25.75-5.4 10.65-3.75 24.9l-3.55-1.55q-1.3-3.05-2.65-6.95-2.7-7.8-2.85-12.1.3-6.4 3.4-14.7 6.2-16.55 20.15-25.75 22.05-14.5 41.8-14.5 4.45 0 13.75 1.35"/><path fill="#0a2b3c" d="M94.8 39.4q2.8 5.5-.7 11.5-5 7.7-14.7 4.7-2.65-1.45-4.45-4.25-3.6-5.65.7-12.6 2.9-4.7 8.5-5.25 4.05-.4 6.15.85 2.65 1.4 4.5 5.05m49.55-27.75q4.3 1.8 6.25 4.75 1.5 2.3 1 3.3-1.1 2.25-2.35 3.15-3.15 2.2-8.85.55-6.25-2.8-7.95-6.6-.55-1.15-.55-2.3l.1-.9q1.85-2.8 4.55-3.3 3-.6 7.8 1.35m-11.65 34q-8.85 4.85-13.7 9.15-4.65 4.2-7.55 4.2-1.35 0-3-1.45-1-.85-1-2.7 0-3.65 4.9-8.45 6.75-6.55 12-9.85 6.7-4.2 13.5-4.9l10.8.4q3.4 1.05 2.95 3.75-.4 2.2-2.9 3.2l-5.15 1.5q-3.55 1.15-10.85 5.15M19.85 87.35 29.1 77q3.5-3.85 8-4.2l4.95.45Q43 73.3 48 75.5l4.75 2.15q2.4 2 2.3 6.05 0 2.05-.55 3.65-3.25-.3-6.75 5.85-1.75 3.1-2.85 6.2-1.65-.7-3.85-3.35l-1.9-2.5L32 99.3q-.9-8.35-6.6-11-1.8-.8-3.85-.95z"/><path fill="#0a2b3c" d="M73.6 92.3q3.15 3.9 2.2 8-1.95 8.8-7.4 10.25l-7.65-1.9-2.95 6q-3.25 6.35-4.5 7.95-.2-1.75-.95-3.8-1.6-4.15-4.55-5.7-3.4-1.8-7.35-.9l-3.25 1.3q2.95-5.9 6.25-11.95 6.5-12.1 8.05-13 1.75-1.05 3.15-1.15l4.3.3L69.4 89q1.6 0 4.2 3.3m6.4 37.25 4.05-7.3 3.25-5.65 4.35-2.4q5.3-1.95 9.75.55 4.55 2.5 5.05 7.5.3 3.1-.6 5.05l-2.3 2.5q-2.15 2.4-2.35 4.15l-1.1 13q-.7-1.75-2.25-3.55-3.1-3.55-7.45-3.85-4.35-.25-7.6 2.25-1.6 1.2-2.35 2.5-.4-3.15-.65-6.55-.5-6.8.2-8.2m113.8-111.2q-3.8 2.4-10.1 9.95-.2-2.8-2.25-5.15-4.05-4.7-13.1-2.35l3.75-5.9q4.2-6 6.55-6.2 3.8-.35 14.45 1.45l1.8 2.6q1.75 2.95 1.45 4.7-.65-.3-2.55.9"/><path fill="#0a2b3c" d="M209.4 21.55q5.55 3.6 7.3 5.05 1.1.95.75 4.7t-1.65 5.05q-1.3 1.35-4.2 2.55-3 1.25-3.95.7l-4.35-2.45-4.5 8.05q-.15-1.95-.95-4.4-1.7-4.9-5.2-7.35t-8.45-1.85l-4.3 1.15 2.05-2.4 7.4-7.95q4.55-4.75 7.9-5.45l4.25.25q1.45.15 7.9 4.35m-5.45 26.75q7.35-4.8 13.55-3.25 1.9.45 5.95 3.15 1.45 1 11.5 10.75.85 7.35-4.5 10.95-1.7 1.15-3.8 1.75l-1.75.4q-.65-1.45-4.65-3.2l-3.9-1.45q-1.35-2.35-3.75-4.65l-2.1-1.8q1.1-6.95-2.6-10.5l-2.7-1.75z"/><path fill="#78ab5e" d="M205.85 116q5.95-3 9.05-5.4l1.8 1.8q-2.35 3.25-7.25 7.4-9.75 8.3-22.45 12.95l-7.15-7.9q14.15-2.85 26-8.85m-39.05 21.3q.1.1-.25.1l-.65-.1q-30.9.6-43.3-18.1-3.85-5.85-5.4-12.9l-.8-5.9 2 3.95q2.85 4.8 6.95 8.85 13.1 12.9 33.95 13.55l4.75.05-.5.8q-.55 1.05-.65 2.2-.3 3.75 3.9 7.5"/><path fill="#011d2d" d="M50.45 75.95 46.9 74.4Q38 53.05 42.15 47.85l1.5 4.55q2.55 5.55 7.5 10.65l-.6 5.2q-.5 5.55-.1 7.7"/><path fill="#78ab5e" d="m118.4 88.2-1.55 8.75q-2.75-2.25-6.45-3.3-7.5-2.1-12.5 4-1.05-1.75-2.8-3.5-3.55-3.5-7.15-3.4l-7.15-.2-2.8-.3q.15-.8-.85-2-2.05-2.45-7.95-4.55l-11.45-4.15Q51.05 77 50.45 76q-.2-2.4.25-7.9l.45-5.05q8.25 8.6 22.9 14.75 18.35 7.75 44.35 10.4"/><path fill="#ddcc54" d="M19.7 103.65q6.65-4.35 11.5-8.3l.9 3.95q-10.8 8.55-17.8 11.9-7.45 3.5-11.3 2.2-1.9-.7-2.3-2.05 1.8.05 5.1-.9 6.55-1.85 13.9-6.8"/><path fill="#011d2d" d="m31.2 95.35 4.7-3.95q2-1.4 3-1.5 1.6-.25 3.4 1.5l4.75 3.9-2.6 4.75q-4.25-4.4-5.6-6.35L37 95.3l-4.9 4z"/><path fill="#ddcc54" d="M53.35 123.2q-2.5 4.55-6.15 9.35-3.85 5.1-7.1 7.85-6.9 5.9-10.8 6.65-2.95.6-6.65-1.8l4.1-1.05q5.1-2.05 9.9-6.95 6.5-6.65 14.45-21.05l1.2 2.75q1.15 3 1.05 4.25m16-12.8q1.7-.8 4.85-4.95l17.95 1.4-4.85 7.65z"/><path fill="#011d2d" d="m69.95 110.7-8.55-2-2.3 4.4-5.75 10.1-2.25-7q3.1-5.65 4.05-8.25 1.15-3.2 2.35-3.8 1.35-.65 5.9.1l10.8 1.2z"/><path fill="#ddcc54" d="M100 146.15q-1.45 22.75-9.25 32.95 4.95-8.85 6.1-36.9zm5.8-18.35q1-1.55.85-4.3l-.35-2.4q4.5-5.25 10.45-14.65l1.65 4.3-4.85 7.7q-5.35 7.95-7.75 9.35"/><path fill="#011d2d" d="m106.3 121.1.25 2.35q.1 2.65-.75 4.35l-1 1q-2.7 2.45-3.35 3.75-1 2.05-1.15 6.95l-.3 6.65-3.15-3.95.15-5.35q.15-4.75.5-5.8.8-2.8 4.3-5.4 2-1.45 4.5-4.55"/><path fill="#ddcc54" d="m183.75 29.35-6 6.7-1.85-2.75q-2.15-2.8-3.45-3.1l7.5-8.1 1.9 1.85q1.85 2.45 1.9 5.4"/><path fill="#011d2d" d="M183.75 29.35q-.05-3.1-1.9-5.5l-1.9-1.75 2.25-2.55q1.05-1.3 4.4-1.75 3.4-.5 7.4.15z"/><path fill="#ddcc54" d="m203.35 17.6 4.4.5q4.9.25 7.5-1.2-3.2 4.15-5.6 5.05zm-4.25 26.8-4.2 7.1-6.3-1 2.8-4.45 5.15-8.8z"/><path fill="#011d2d" d="m213.5 37.9-5.25 2.65L203 37.3l-3.9 7.1-2.55-7.15 1.65-3.05q1.85-3.65 4.65-3 1.4.35 4.85 2.9 2.8 2 5.8 3.8"/><path fill="#ddcc54" d="M213.5 37.9q11.6 7.1 24.45 10.7-2.75.75-7.8.1-10.1-1.3-21.9-8.15zm43.4 44.15q-.35.65-1.9.85-3.2.45-9.45-1.55-6.2-2-13.45-5.5l-5.95-3.15-1.3-.5q-1.2-.45-.6-.4 2.45.25 5.05-1.1l2.1-1.4q14 9.95 25.5 12.75"/><path fill="#011d2d" d="M231.4 69.3q-1.2 1.35-4.3 2.05l-2.85.45q-.95-1.45-7.15-3.85l-2.35-3.15q-2.8-3.3-4.8-4.1l3.4-1.45q4.1-.9 7.3 1.75z"/><path fill="#0d131a" d="M181.05 39.8q.15.25-.8.45l-1.15-.1q-9.75-16.6-29.75-26.9-20.3-10.45-44.1-10.75-19.65-.25-34.9 6.15-15.2 6.45-22.45 18.1-5.8 9.3-5 25 .75 14.75 6.4 24.05l-1.15-.05-1.45-.6q-5.6-9.3-6.3-23.55-.8-15.85 5.8-26.15Q53.65 13.9 68.5 7.1 84.6-.25 105.45 0q24.25.35 45.1 11.4 20.7 10.95 30.5 28.4"/><path fill="#0d131a" d="M28 77q4.95-5.25 10.1-5.5 2.7-.15 6.8 1.5l8.7 3.65q10.15 4.15 17.5 6.7 5 1.75 6.85 4.3.9 1.3.85 2.35.05.3-.9.35-.9 0-.95-.3-.05-.75-.95-1.75-1.75-2-5.75-3.05-3-.8-14.9-5.7L44 74.85q-3.55-1.45-6.1-1.2-4.45.4-9 5.25-5.6 5.9-19.55 21.8l-6.45 7.25q-.85.9-1.25 1.9-.35 1-.05 1.65.3.75 1.3 1.1l1.85.25q6.9-.4 20.55-10Q32.15 98 37.95 92.9q.45-.45.85-.4.45.1 1.1.75l2.75 2.85q1.8 1.85 2.55 2.15.3.15-.1 1.05l-.65.75q-1.2-.5-3.5-2.85l-2.25-2.45q-10.85 9.55-20.8 15-8.8 4.75-13.2 4.6-3.65-.2-4.5-2.25-.8-2 1.65-5.15l6.4-7.8Q23.75 81.5 28 77"/><path fill="#0d131a" d="M87.9 89.8q4.95.2 8.1 3.5 1.55 1.7 2.2 3.5.15.3-.3 1.2-.45.85-.6.55-.85-1.75-2.5-3.4-3.25-3.2-7.45-3.3l-13.15-1.2-13-1.85-7.15-.6q-2 .4-4.15 3.7-1.75 2.75-17.35 32l-8.05 15.45q-1.35 2.65-1.65 3.85-.25 1.2.3 2 1.4 1.8 6 .8 5.65-1.2 13.2-9.85Q51.4 125.8 59.9 108q.3-.65 1.75-.45l7.6 1.65q12.25 2.95 19.45 4.05.3.05.05.95-.25.95-.55.9-6.7-.9-15.8-3.1l-11-2.5q-7.55 16-16.6 26.55-8.35 9.8-14.8 11.4l-5.1.4q-2.2-.3-3.1-1.5-1.75-2.45 1.1-8.2l8.55-16.65q13.9-26.35 17.15-31.55 2.35-3.7 6.2-4.05l6.75.8q12.75 2.5 26.35 3.1"/><path fill="#0d131a" d="M106.9 91.25q4.2-.05 9.55 4.25.25.2.1 1.2-.2 1-.45.8-11.65-9.5-20.65 6.2l-12.8 21.95q-1.55 2.2-2 5.1-.45 2.85.1 7.05l2.2 19.85 1.75 16.9q.4 6.7 2.95 6.8.65 0 1.6-.85 3.4-3.2 6.2-12.95 3.65-12.8 4.2-31.85.1-2.7 1.25-4.5.7-1.1 2.85-3 4.75-4.4 8.55-9.95 3.75-5.4 4.8-9.35l.5 1.45.35 2q-2.15 5-7 10.9l-5.8 6.4q-2.2 1.95-2.7 2.7-1.05 1.45-1 3.7.25 14.65-3.25 28.25-3.3 13-7.95 17.25-1.5 1.3-2.65 1.25-2.5-.1-3.75-3.45-.6-1.65-1-4.85l-4.35-36.75q-.55-4.4.1-7.5.6-3.1 2.75-6.4l6.9-11.9L94 101.8q6-10.5 12.9-10.55M211.5 10.9q5 .4 5.65 2.7.4 1.35-1 3.4-1.75 2.55-5.7 5l-.9-.25q-.65-.4-.4-.55 3.6-2.25 5.45-4.35 1.6-1.85 1.3-2.95-.45-1.65-4.45-1.75l-13.8-.95-12.8-1.45-5.7-.2q-2.4.5-3.8 2.45l-8.5 11.55-.8-.7-.8-.8 9.05-11.4q1.7-2.4 4.35-2.85l6.25.35z"/><path fill="#0d131a" d="M204.55 36.7q4.7 3.45 12.15 6.75 8.9 4 15.4 4.65 6.25.65 7.1-1.35.3-.75-.2-1.7-.4-.9-1.1-1.45l-13.65-10.15L206.5 20.8q-5.25-3.5-9.85-2.45-3.6.85-6.55 4.25l-11.75 14.15q-.2.25-.95-.4t-.55-.9l4.65-5.7 7.75-8.8q3.95-4.05 8-4.7 4.65-.75 10 2.85 5.45 3.65 18.05 13.1 11.5 8.6 13.4 10.25 1.35 1.15 1.7 2.55.35 1.2-.1 2.3-.6 1.45-2.6 1.9l-5.6.15q-7.05-.45-16.5-4.6-7.8-3.5-12.3-7-5.4 11.2-8.3 14.55l-1.15-.25q-.9-.45-.7-.7 3.25-4 8.5-14.4.75-1.25 1.15-1.3.35 0 1.75 1.05"/><path fill="#0d131a" d="M246.75 80.85q4.75 1.4 7.5 1.4 2.15.05 2.55-.7.3-.45-.25-1.55-.95-1.85-4.2-4.75-15.3-13.2-23.5-21.05-6.6-6.3-12-7.8-3.45-1-6.05.1l-7.1 2.7-8.7 3.1q-.3.1.15-1.25.4-1.35.7-1.45 9.95-3.55 14.2-4.85 3.65-1.05 6.35-.5 5.55 1.1 12.5 7.75 8.2 7.85 24.1 21.5 3.3 2.95 4.55 5 1.4 2.25.55 3.75-1.65 3-11.95-.15-4.7-1.4-13.95-5.85-6.7-3.2-13.7-7L216.55 66q23.7 12.9 30.2 14.85M20.65 86.8q4.15-.7 7.3 1.85Q31.85 91.7 32.5 99l-.5.45q-.55.15-.55-.15-.25-3.05-1.45-5.55-1.15-2.5-2.95-3.95-1.3-1.05-3.35-1.55L19.9 88q-.3.05.1-.55.35-.6.65-.65M52 77.7q-.25-.15.15-.45t.65-.15l2.15 2.65q1.7 3.45.05 8.15l-.8.05q-.7-.25-.6-.5 1.4-4 .1-7.2zm-9.65 33.35q2.9-.35 5.5 1.1 3.05 1.75 4.55 5.05 1.4 3.25.85 6.8-.05.3-.65.3t-.55-.3q.5-2.95-1.05-6-1.5-3.05-4.2-4.55-2.2-1.25-4.95-.9-2.7.35-4.65 2.05-.2.2-.25-.45-.05-.6.15-.8 2.3-2 5.25-2.3M69.2 89.5q-.25-.1.55-.2l1.1.05q2.4 1 4.25 4 2.3 3.7 1.5 7.7-.9 4.7-3.65 7.45-1.35 1.4-2.65 1.9l-.8-.25q-.5-.4-.2-.5 1.15-.55 2.35-1.9 2.45-2.65 3.25-6.85.9-4.7-2.2-8.45zm33.25 24.75q4.65 2.8 4.8 8.15.1 2.65-.75 4.8-.1.3-.75.2-.6-.1-.5-.4.7-1.95.6-4.3-.3-4.65-4.2-7.25-4.25-2.75-9.55-.9l-4.7 2.6q-.2.2-.3-.45t.1-.9l4.9-2.45q5.7-1.9 10.35.9M80.6 143.9q-.55-.2-.4-.45.9-1.6 2.7-2.9 3.45-2.6 8.2-1.9t7.25 4.15q1.3 1.75 1.65 3.5.1.3-.35.7l-.5.05q-.45-1.55-1.65-3.1-2.45-3.1-6.6-3.75t-7.25 1.4q-1.6 1-2.4 2.25zm86.8-122.55 3.7-1.9q4.55-1.35 8.8 1.25 3.2 1.95 3.95 5.55.35 1.8.05 3.25l-.65.6-.55-.05q.25-1.35-.1-3-.7-3.25-3.7-5-3.75-2.2-8.15-.9l-3.85 1.9q-.2.2.05-.65t.45-1.05m24-11.15q-.25-.15.5-.4l1-.15 2.05 1.65q1.9 2.35 1.95 6.45 0 .3-.55.4t-.55-.2q-.2-3.35-2.25-5.85zm25.05 17.05q-.05-.3.5-.2.6.1.65.4l.5 3.3q.1 3.55-2.05 6.1-1.7 2.05-5.05 2.95l-3.15.55q-.3.05-.35-.55-.1-.55.2-.6l2.6-.6q2.9-1 4.35-2.75 1.8-2.2 2-5.6zm-36.4 6.45q-.25-.55-.05-.8l3.9-1.75q4.75-1.15 9.2 1.65 4.05 2.55 5.55 7.2.75 2.35.65 4.4 0 .3-.6.45-.65.1-.6-.2 0-1.8-.75-4-1.45-4.4-5-6.6-4.35-2.65-8.45-1.6-3.3 1.55-3.4 1.65-.2.2-.45-.4"/><path fill="#0d131a" d="M202.9 48.2q.8-.6 1.15-.6 1.65.1 3.3 1.3 1.7 1.15 2.85 3.1 1.05 1.75 1.3 4.35.3 2.7-.45 4.8l-1.1-1q.35-1.7-.1-3.9-.4-2.1-1.2-3.55-.85-1.5-3-2.7-1.85-1.1-3.3-1.25-.3 0 .55-.55m30.85 10.15q-.1-.25.65-.35.75-.05.85.25.9 2.5.5 5.35-.4 2.5-1.65 4.3-2.9 4.25-8.65 4.35-.3 0-.3-.7-.05-.75.25-.75 2.15-.05 4.05-1.05 1.85-1.05 3.1-2.9 1.3-1.85 1.65-4.15.3-2.25-.45-4.35M98.1 1.15q.3-.05.9.55.55.65.25.7-26.4 5.1-42.4 22.3-14.65 15.75-13.8 32.95l-.6-1-.6-1.6q-.35-7.5 3.1-15.95 3.6-8.8 10.25-15.95 6.6-7.1 16.1-12.4 11.95-6.7 26.8-9.6"/><path fill="#0d131a" d="M136.1 5.8q.3 0 .3.75-.05.7-.35.7-6.7-.1-16.75 2Q99.2 13.5 81.65 24.8q-18.4 11.9-26.1 28.35-5.85 12.55-4.2 23.05.05.3-.7.4-.7.1-.75-.2-1.55-9.4 1.4-18.95Q57.35 37.9 80.2 22.9q17.3-11.4 38.2-15.35 10.5-2 17.7-1.75"/><path fill="#0d131a" d="M94.2 48.6q1.85-4.3.1-8.6-1.45-3.8-4.9-5.3-3.7-1.6-7.45-.15-2 .8-3.65 2.4t-2.55 3.65-.95 4.5q0 2.45.85 4.55 1.25 3.3 4.6 4.8 1.65.7 3.7.75 2.25.05 4.1-.7 4.3-1.6 6.15-5.9M81.4 33.05q4.1-1.6 8.6.3 1.9.85 3.5 2.5 1.6 1.7 2.4 3.85.9 2.45.9 5.05 0 2.65-1 4.9-2.25 5.1-7.2 7-2.2.8-4.95.75-2.65-.05-4.55-.85-3.75-1.65-5.5-6-.9-2.3-.9-4.95t1.25-5.6q1-2.25 3.1-4.15 2-1.9 4.35-2.8m66.55-18q-1.75-1.4-4.2-2.4-2.55-1-4.95-1.2t-4.05.5q-1.4.55-1.8 1.65-.8 2 .9 4.2 1.75 2.2 5.25 3.65 3.9 1.6 7.35 1.2 3.25-.35 4-2.1.45-1.15-.1-2.55-.65-1.55-2.4-2.95M144.4 11q2.65 1.1 4.65 2.85 1.85 1.7 2.65 3.55.75 2 .1 3.7-1.05 2.5-5.05 3.25-4.05.75-8.35-1-3.3-1.35-5.45-3.85-2-2.4-2-4.7 0-.95.35-1.8.65-1.45 2.9-2.4 1.95-.85 4.65-.75 2.8.05 5.55 1.15m-1.1 19.05q3.6 0 5.95 1.2 2.55 1.25 3 3.7.7 4.1-5.75 5.7-14.5 3.55-28.7 16.4-2.65 2.4-5.35 2.7-2.45.3-4.35-1.15-1.8-1.35-1.8-3.55 0-2.9 1.95-5.75 7.1-10.5 19.2-15.6 8.5-3.65 15.85-3.65m5.25 2.65q-2-.95-4.9-.75-10.1.7-19.95 6.25t-14.05 12.95q-1.2 2-1.25 3.65-.05 1.6 1.05 2.45 1.25.95 3.25.55 2.2-.45 4.1-2.35 12.45-12.3 28.8-16.35 2.6-.65 4.05-1.7 1.4-1.1 1.15-2.25-.35-1.55-2.25-2.45m54.1 90.75q7.75-5.25 12.35-11.2l.55-.7 1.9 1.35-.75 1q-4.4 5.7-12.55 11.2-7.55 5-16.2 8.5l-1.3-2q8.6-3.15 16-8.15m-32.3-74.75-1.65 1.85q-6.8.8-13.6 3.2-9.15 3.25-16.75 8.9-12.65 9.45-17.7 23.55-4.6 12.75-1.35 23.55 3.45 11.45 14.1 18.4 12.45 8.15 31.6 7.35l2.05 2.2q-20.6 1.25-34.5-7.55Q120.7 122.6 117 110.4q-3.4-11.25 1.25-24.45 5.1-14.65 18.1-24.35 8.45-6.3 19.05-9.75 7.55-2.5 14.95-3.15m53.45 50.2-1.9-.95q1.5-6.3.5-13.05-2.55-16.55-15.9-25.75-10.45-7.2-24.75-8.65l.35-1.65q15 1.6 26 9.15 14.15 9.65 16.8 26.7.9 6-1.1 14.2"/><path fill="#fff" d="M177.5 41.4q1.3-1.25 2.35-1.35l.8.1q1.95.45 1.95 11.1l-.6 16.5q-.3 5.55-4.05 7.7-3.3 1.9-9.05 1.1-4.85-.65-7.4-4.9-2.2-3.75-1.4-7.2.6-2.6 8.25-12.25 6.7-8.45 9.15-10.8"/><path fill="#dbdcdc" d="M182.55 54.55q.05 14.5-.95 16.6-1.85 3.95-5.45 5.3l-3.25.6 7.9-36.75q1.7-.55 1.75 14.25"/><path fill="#0d131a" d="M180.45 40.75q-.95-.5-5.3 4.2-2.75 3-7.75 9.8-6.9 9.35-6.7 11.9.25 2.85 2 5.05 1.8 2.25 4.85 3.35 2.35.85 5.2.7 3.15-.15 5.35-1.5 2.5-1.55 2.9-4.4.35-2.85.55-10l.15-12.8q-.05-5.65-1.25-6.3M174 44q2.5-2.85 4.15-3.9 1.6-1.05 2.75-.6 1.1.45 1.6 2.25.45 1.6.65 5.3.3 5.7.2 13.05l-.45 10.2q-.2 1.7-1.45 3.45-1.2 1.65-2.8 2.65-2.45 1.5-6.25 1.55-3.3.05-6-.9-3.4-1.25-5.75-4.45-2.25-3.1-2.15-6.15.05-3.15 4.4-9.05 3.2-4.45 11.1-13.4m-39.65 48.45q6.05-4.75 13.55-4.15 7.35.6 11.5 5.9 3.75 4.75 3.3 11.8-.55 7.9-6.6 12.85-5.75 4.65-13.25 4.2-7.6-.5-11.95-6.1-4.25-5.45-3.35-12.55.9-7.35 6.8-11.95m62.5-18.1q-2.05-6.3.7-9.7 3.2-3.95 9.6-3.15 6.55.85 12.25 6.25 4.7 4.45 5.6 10.55.8 5.3-1.35 7.8-2.7 3.1-8.1 3.05-5.85-.15-11.15-4.2-5.5-4.15-7.55-10.6"/><path fill="#fff" d="M149.6 100.95q1.4 1.6 1.4 4.1-.05 2.9-2.2 4.7-2 1.65-4.6 1.4-2.65-.2-4.3-2.35-1.45-1.85-1.05-4.55t2.4-4.25q1.95-1.5 4.45-1.15 2.35.35 3.9 2.1m57.35-30.85q.7-.85 2-.95l2.65.4 2.6 1.5q2.45 2.1 2.6 4.65.1 1.45-.65 2.25-.65.8-2 .9-2.45.25-5-1.9-1.75-1.55-2.45-3.65-.65-2.05.25-3.2"/><path fill="#e63556" d="M162.1 136.9q-3.1-3.6-3.15-7.45-.05-4.05 3.55-7.3l4.4-1.9q5.35-1.05 9.8 2.9l9.2 8.45q4.5 4.1 7.55 6.2 4.65 3.2 3.1 5.5-2 2.9-14 2.3-13.45-.65-20.45-8.7M211.85 97q3.85-2.55 7.05-2.3 3.8.25 8.25 4.3 4.35 3.95 4.85 12.1.4 7.25-2.1 11.95-1.95 3.55-3.65 2.25-.75-.55-2.1-3.2-2.55-5.1-10-12.65-4.55-4.6-3.9-9 .2-1.35.95-2.55z"/><path fill="#c72b4a" d="M196.55 142.7q-.55 1.8-7.15 2.35-8.2.65-18.45-2.5-9.7-3-11.6-9.35-.6-2-.35-4.05l.4-1.7 2.2 2.4q3 2.9 6.8 5.3 12.15 7.7 28.15 7.55m15.15-41.85q1.15 1.9 3.7 3.7 4.7 3.35 8.4 9.55 4.05 6.8 2.85 11.15-.4-.1-.95-.6-1.1-.9-2-2.55-4.35-8.4-9.85-12.3-3.45-2.45-3.95-6.05-.4-3.15 1.15-4.45z"/><path fill="#0d131a" d="m164.6 122.1-1.3.8q-1.25 1-2.1 2.35-1.4 2.1-1.4 4.45 0 2.25 1.25 4.6 2.85 5.3 13.2 8.4 8.8 2.6 15.6 2.05 3-.25 4.75-1 1.45-.65 1.65-1.5.4-1.5-2.65-3.45-7.05-4.55-15.65-13.3l-.9-1q-4.3-4.35-9.35-3.5-1.6.3-3.1 1.1m4.5-3.25q5.05-.1 9.15 3.95l.95.95 8.05 8.05q3.85 3.65 7.15 5.8 3.85 2.45 3.3 5-.35 1.5-2.6 2.55t-5.6 1.3q-7.05.55-15.85-1.85-11.05-3-14.2-9-2.55-4.8-1.15-9.15.9-2.95 3-4.65 3.4-2.9 7.8-2.95m52.4-22.6q-2.6-1.05-4.55-.6-4 .8-5.55 4.5-1.8 4.35 3.3 8.65 3.85 3.25 6.85 7.5 2.25 3.15 3.3 5.7l.15.4q.85 2.2 1.9 2.3 1.1.1 2.55-2.4 2.25-3.75 1.7-10.3-.55-7.1-4.3-11.7-2.25-2.8-5.35-4.05m-4.55-2.4q6.2-.85 10.9 4.7 4.5 5.25 4.95 13.35.4 7.05-2.1 11.15-1.9 3.25-3.9 3.1-1.95-.15-3.15-3.2l-.2-.4q-1-2.45-3.35-5.6-3.05-4.05-6.85-7.05-3.6-2.9-4.25-6.4-.5-3.15 1.3-5.7.9-1.25 2.5-2.35 2-1.3 4.15-1.6"/></svg>