<svg xmlns="http://www.w3.org/2000/svg" width="282" height="282" viewBox="-0.35 -0.15 281.6 282"><path fill="#fcd25b" d="M206.3 96.95q-1.35-5.25-2.9-7.05 4.25 1.2 10.55 7.7 2.55 2.45 28.5 23.05 8.9 7 13.15 13.9 8.85 14.55 7.45 36.45l-10.35-9.3q-2.35-5.3-7.1-11.45-5.1-6.6-10.1-10.3-6.4-4.2-10.45-8.1-3.35-3.25-7.2-8.45-1.25-1.7-4.75-9.1-3.05-6.5-5.9-9.2.55-2.7-.9-8.15"/><path fill="#767cba" d="m238.6 142.2 2.35.15 5.1-.6q7.4-2.1 6.85-10.4 5.4 4.8 8.1 15.05 1.35 5.15 1.6 9.3-2.05 4.85-6.6 4.95l-2.95-.45-1.2-.45q-2.3-4.5-8-11.45zm-32.35-45.8q-1.15-4.15-2.5-6 2.45.95 5.8 3.4 2.6 1.85 4.65 3.8 3.3 3.05 14.3 11.75l.65 3.15q.1 3.75-2.7 6.85-2.75 3.05-6 3.5l-2.7-.2-4.05-7.75q-4.5-8.15-6.75-10.3.65-3.3-.7-8.2"/><path fill="#fcd25b" d="M197.7 93.45q.85-4.75 2.7-4.75 3.15 0 4.95 4.75 1.8 4.6 1.75 12.1-.05 7.45-3.85 15.7-3.85 8.4-8.9 11.8.15-4.8-.9-12.25 2.35-3.6 3.2-6.55 1.15-4 .7-9.8-.5-6.4.35-11"/><path fill="#666ba1" d="m255 160.9-3.7-1.65q-4.6-9.85-12.25-16.6l7.65-.15q6.25 8.55 8.3 18.4"/><path fill="#d9b64f" d="m255 160.9.55 3.15-4-4.25zm-15.95-18.25-2.65-2.15q-10.6-6.45-15.6-12.85-1.55-1.95-2.35-3.7l-.5-1.35 4.95-.6 9.3 7.1q5.85 4.25 7.5 5.75 3.8 3.35 7 7.65z"/><path fill="#bbd" d="M207.2 93.65q.05-.65 1.15-.3 1 .35 1.75 1.05 2.85 2.55 18.65 15.35.5 3.6-.5 6.55l-5.9-5.3-6.95-6.75q-8.45-8.65-8.2-10.6"/><path fill="#ffe9b3" d="M242.1 127.7q-8.3-6.35-13.85-11.4 1-2.95.5-6.55l10.85 8.5q8.2 5.95 13.3 12.15 0 4.05-1.25 7.1-4.85-6.15-9.55-9.8"/><path fill="#bbd" d="M258.25 147.2q-2.45-4.45-6.6-9.7 1.25-3.05 1.25-7.1 4.75 5.7 6.55 11.4 2.35 7.75 1.6 8.55-.6.65-2.8-3.15"/><path fill="#666ba1" d="M213.95 109.55q5.6 9.6 8.95 12.45-2.25 1.05-5.4.45l-4.75-8.8q-3.8-7.25-5.95-8.95l.2-3.3-.05-3.25q.95 1.05 7 11.4"/><path fill="#d9b64f" d="M201.15 88.8q3.75 1.8 5.15 7.7 1.35 5.5.3 12.8t-4.15 13.6q-3.35 6.85-8.1 10.3l-.05-6.65q7.6-6.9 9.15-20.05 1.35-11.7-2.3-17.7"/><path fill="#0d131a" d="m204.1 91.25-1.05-2.15q4.4 1.25 10.75 7.2 3.15 2.95 9.15 7.7l10.9 8.6 9.15 7.2q11.45 9.15 15.95 18.15 6.45 12.85 4.5 33l-.65-.05-.65-.65q1.1-18.45-4.95-30.65-4.85-9.85-16.65-19.3l-9.15-7.2-10.3-8.15q-5.1-4.2-8.4-7.4-4.85-4.7-8.6-6.3"/><path fill="#0d131a" d="M207.35 103.25q2.25 2.5 4.8 7.1l4.55 8.55q6.1 11.1 13.55 15.95 7.75 5.05 12.35 10.1 5.45 6 11.45 16.85l-.85.1-1.1-.35q-6.25-10.95-11.45-16.2-3.5-3.55-11.75-8.95-7.45-4.85-13-14.95l-4.3-8.25q-2.45-4.8-4.5-7.65z"/><path fill="#0d131a" d="M228.9 117.1q-1.2 2.75-3.65 4.45-1.65 1.1-3.7 1.6-2.2.45-4.2.05-.3-.75-.3-1.5 3.5.9 7.05-1.6 2.65-1.75 3.7-4.45 1.25-3.25-.4-6.6l2.1 2q.65 3.1-.6 6.05m10.8 25.85-1.25-1.7q2.9 1 5.85.4t5.1-2.6q1.75-1.6 2.35-3.65.65-2.05.1-4.2l1.55 1.3q.2 2.2-.55 4.3-.75 2.15-2.35 3.6-2.05 1.9-5 2.55-2.8.6-5.8 0m22.05 11.8.5.1q.5.35.45.65-.15 1.8-1.2 3.25-1.1 1.55-2.9 2.2l-4.05.3q-2.05-.4-3.3-1.65-.2-.2.3-.7.45-.45.65-.25 1 .95 2.55 1.15l3.2-.35q1.5-.55 2.6-1.95t1.2-2.75M196.6 95.6q.6-7.1 3.2-7.6 4.25-.8 6.75 6.75 2.55 7.85.5 17.1-1.6 7.4-4.7 12.8-2.9 5.15-8.15 10.2v-2.15q4.45-4.85 6.85-9.35 2.8-5.1 4.3-11.9 1.85-8.5-.15-15.65-1.85-6.75-4.95-6.25-1.7.25-2.05 6.9-.2 3.55 0 12.55.2 6.2-4.6 13.95l-.4-3.15q1.55-2.3 2.45-5.35.9-3 .8-5.65-.15-9.7.15-13.2"/><path fill="#fcd25b" d="M218.8 140.9q-.8-3.75-2.4-5.45 3.4.65 8.15 5.05l11.1 8.9 10.75 8.05q8.25 5.8 10.95 8.05 9.5 8.1 15.35 17.65 6.1 9.95 7.15 21.1.95 9.5-1.3 10.5-.9.45-3.25-4.1-3.4-6.45-7.8-10.55l-4.7-4.4q-5.9-5.1-11.8-8.35-10.05-5.55-20.1-21.65-9-14.45-11.95-16.5.75-4.15-.15-8.3"/><path fill="#767cba" d="m252.1 188.3 4.4-.35q4.85-.85 7.15-3.3t2.8-6.4l.1-3.45 3.95 5.4q4.5 6.8 7.3 14.05-.55 2.1-2.15 3.9-3.2 3.5-8.6 1.8l-4.75-4.6q-5.65-5-10.2-7.05m-33.05-39.85q.6-4.9.25-7.3-.45-2.75-2.5-5.25 2.55.8 6.35 3.55l5.6 4.4 7.4 5.6q4.5 3.35 5.25 4.35.8 1.15.75 3.05l-.15 1.65q-.35 5.9-4.95 8.65-1.45.85-3.1 1.3l-1.4.3q-2.15-5.05-7.55-12.7-4.6-6.5-5.95-7.6"/><path fill="#fcd25b" d="M219.35 144.75q-.25 5.85-2.85 10.45-1.9 3.35-6.1 7.45l-.9.15q-1.1-2.85-3.35-5.8 4.5-6.5 4.85-13.5.45-8.9 2.5-9.35 1.85-.4 3.75 1.95 2.35 3 2.1 8.65"/><path fill="#666ba1" d="m219.05 148.45.6-5.9 6.15 10.3q6.85 11.05 10.6 14.65l-3.85 1.25q-3.45-7.15-8.8-14.45z"/><path fill="#d9b64f" d="m267.3 199.85 4.7.65q5.55 8.05 6.25 14.4-.15.25-.75-.3-1.1-1.05-3.15-4.85-2.75-5.3-7.05-9.9"/><path fill="#666ba1" d="m260.15 193.55-6.95-5 6.6-1.1q6.7 5.15 12.2 13.05l-4.7-.65q-2.95-3.15-7.15-6.3"/><path fill="#d9b64f" d="M238 169q6.65 7.2 11.5 11.05l9.2 6.6 1.1.8-7.15.7q-6.95-3.35-14.1-11.5l-5.7-7.5 3.15-1.9 1 .85z"/><path fill="#bbd" d="M226.75 143.9q1.1-.75 5.9 2.85l9.25 6.8.3 4q.15 2.75-.3 2.95l-6.5-5.05q-3.65-3.2-5.5-5.55-4.35-5.25-3.15-6"/><path fill="#ffe9b3" d="M242.3 161.15q.4-2.15.05-4.5l-.45-3.1 6.35 4.45q3.5 2.25 8.4 6.65 5.9 5.2 10 10.1l-.3 2.95q-.2 1.8-.75 2.95z"/><path fill="#bbd" d="M271 180.7q4.15 7.05 3.3 7.55-.65.4-3.35-2.5-1.7-1.9-5.35-5.1.55-1.15.75-2.95l.3-2.95q2.6 3.05 4.35 5.95"/><path fill="#d9b64f" d="M216.05 146.9q1.75-8.15-2.15-12.7 3 .3 4.45 4.25 1.4 3.65.85 8.55-.95 8.2-8.85 15.6l-.9.05-1.55-3.2q6.35-4.1 8.15-12.55"/><path fill="#0d131a" d="M276.9 194.05q.1-.25.7-.15.65.15.6.4-.85 4.45-3.35 5.9-2.55 1.5-7.5 0-.25-.05-.05-.7.2-.6.45-.55 3.8 1.2 6.25-.25 2.25-1.35 2.9-4.65"/><path fill="#0d131a" d="m227.25 143.65-5.65-4.3-4.35-2.7-1.4-2.1q1.8.35 5.3 2.6 3.4 2.15 7.2 5.4 9.8 8.2 19.4 14.3 15.7 9.95 24.3 23.7 5.45 8.65 7.55 17.6 1.65 7 .95 12.5-.6 4.7-1.85 5-1.35.35-3.8-4.15-3-5.65-6.85-9.9-6.35-6.95-16.75-13.05-10.65-6.25-19.85-20.45l-6.5-10.45q-3.45-5.45-6.05-7.9l.15-1.7q2.8 2.1 6.35 7.3l6.65 10.45q9.55 14.7 19.9 20.8 10.55 6.2 17.1 13.75 3.7 4.35 7 10.55 1.6 2.9 2.1 2.95.6 0 1.05-3.1.6-5-1-11.55-2.05-8.6-7.45-17.15-8.45-13.55-23.9-23.25-4.2-2.7-10.25-7.5z"/><path fill="#0d131a" d="M241.65 163.9q-2.95 4.7-8.2 5.75l-.7-1.55q4.55-1.15 7.2-5.1 2.95-4.4.85-8.85-.1-.2.5-.45l.7-.05q2.9 5.15-.35 10.25m15.4 23.15q2.6-.45 4.65-2.05 2.15-1.7 3.25-4.4 1.05-2.65.8-5.6-.05-.3.6-.35t.7.2q.3 3.5-.65 6.45-1 3.2-3.35 5.05-2.25 1.75-5.5 2.1-3.1.35-6.15-.65-.25-.1-.05-.7t.45-.55q2.65.9 5.25.5m-46.8-42.95.6-6.55q.65-3.75 2.5-4 3.35-.4 5.3 3.8 2.05 4.3 1.15 10.5-.6 4.3-3 8.1-1.85 2.85-5.5 6.45l-2.2.4q4.25-4.45 5.95-6.9 2.85-4.1 3.4-8.25.75-5.4-1-9.4-1.6-3.75-3.8-3.45-1.1.15-1.5 3.75l-.5 5.85q-1 7.45-4.9 13.25l-1.15-1.4q4.15-6.3 4.65-12.15"/><path fill="#e63556" d="M174.85 133.45q14.05.2 18.75 3.55 3.85 2.75 8.35 8.15 4.9 5.85 7.55 11.25l7.35 16.95 2.3 33.15q-2.75 7.1-7.15 12.5-3.3 3.95-8.4 8.05-1.8 1.45-4.05 1.6l-4.05-.45-6.3-1.6-7.85-2.25-19.25-6.8q-4.65-2.2-7.9-8.25-2.85-5.2-3.3-10.25-.3-3.65-2.15-14.95l-3.1-19q-1.3-8.15 1.65-16.7 2.85-8.05 7.5-11.3 5.55-3.9 20.05-3.65"/><path fill="#767cba" d="M162.2 180.3q4.8-3.05 12.3 2.15 5.6 3.85 8.75 8.5 2.4 3.5 3.4 11.2 1.15 8.55-2 10.45-3.35 2-10-.05-6.45-1.95-9.2-5.5-2.95-3.7-4.5-14.15-1.6-10.85 1.25-12.6"/><path fill="#e63556" d="m193.7 141.7-.8 1.1q-8.15-4-21.4-3.25-11.15.6-15.95 3.15-3.6 1.9-6.2 7.55-1.25 2.65-3.05 8.5-.95 3.05-1.05 7.25-.1 3.9.55 7.15l4.3 23.6q-15.2-3.05-23.55-5.4Q110.6 186.9 101.2 181 83.7 170.1 74 158.15q-15.35-18.95-16.35-44.3Q56.7 88.4 72.5 70.6q7.9-8.9 16-12.7l3.4-1.9q4.55-2.15 10-3.6 17.5-4.5 37.85.3 25.75 6.1 40.85 29.15 16.3 24.8 13.1 59.85"/><path fill="#767cba" d="M217 173.8q1.95-.9 5.7 3.15 4.5 4.8 4.6 12.15.15 7.65-5.45 14.6-5.45 6.7-8.4 4.15-.45-.4.75-9.5 1.45-10.4 1.05-14.4-.2-2.4.3-5.95.6-3.8 1.45-4.2"/><path fill="#fff" d="M192.85 173.75q-2.2-3.85-.9-8.55 1.2-4.3 4-5.8 5.15-1.8 27.05-4.9 22.25-3.15 22.5-1.85.25 1.25-17.2 13.3-16.6 11.5-19.4 12.8-10.45 4.8-16.05-5"/><path fill="#3e3a39" d="M184.8 113.15q-12.65-7.05-33.7-5.6-23.05 1.55-40.15 15.5-14.1 11.5-18.45 25.55-4.8 15.8 2.3 28.4-6.1-3.9-12.95-10.55-13.7-13.25-17.5-26.7-1-6.9 1.6-16.05 5.2-18.25 23.25-29.35 17.6-10.8 35.9-14 14.2-2.5 31.5-.5 22.1 2.55 29.25 11.95l3.7 10.8q3.65 12 3.65 17.85-2.1-3.8-8.4-7.3m-39.7 48q.05 1.7 2.35 14.4l5.05 29.65q-9.45.65-16.75-5.35-9.35-7.7-6.45-22.35 1.95-9.7 7.7-17.95 4.35-6.2 10.5-11.2-2.55 8.65-2.4 12.8"/><path fill="#fcd25b" d="M102.25 52.05q-3.35.45-9.2 3.05l-5.15 2.55q-7.4-9.05-10.6-12.5.4-1.9 2.55-2.8 2-.8 4.6-.4 2.25.35 17.8 10.1"/><path fill="#3e3a39" d="M166.4 65.95q1.75 1.35 1.75 2.6l-.25 3.05-.45 1.1-6.4-.3q-3.55-.75-5.9-1.85-8.55-4.05-10.3-8.95-.6-1.55-.4-2.95l.3-1.15q1.6-2.55 3.55-2.05 2 .55 11.2 6.05 5.35 3.2 6.9 4.45M77.85 94q-6.95 4.65-10.25 1.45-4.2-4.1 0-12.6 1.35-2.65 3.35-5.4l1.75-2.25 11.45 13.45q-2.8 3-6.3 5.35"/><path fill="#fcd25b" d="M95 67.55q10.95 15.5 15.95 26.45 6.4-.35 12 1.65 3.6 1.3 7.95 4.1-5.9.05-13.8 2.8-6.6 2.25-10.5 4.75-22.85-14.5-47.05-50.9-14-21-22.3-38.6-1.9-4.05-1.8-6.3l.5-1.5H37q1.9.7 6.2 3.9Q73.05 36.6 95 67.55m99.2-54.6q.35 14.75-4.25 39.9-5.7 31.15-14.75 44.8-14.15-1.9-21.85-1.25 1-2.4 4.9-5.25 4.1-2.95 8-3.8 1.95-25.15 8.6-47.75 3.95-13.3 10.5-28.1 3.45-7.8 5.45-9.9 1-1.1 1.3-.6.45-.5.95.7.95 2.45 1.15 11.25m-122.55 107q5.65-6.7 10.7-4.75 1.65.55 2.6 2.6l.65 2 3.75 11.15q5.05 12.05 11.4 16.25l2.2 1.3q2.05 1.7 1.25 3.5-1.05 2.25-3.4 3.05-2.45.8-5-.6-4.3-2.35-7.8-6.1-5-5.35-7.2-12.6l-11.45 14.4q-12.95 15.6-20.25 21.7-7.65 6.4-18.25 13.95l-12.4 8.45q-3.05 1.9-7.6 5.55-4.8 3.75-6.3 5.5-2 2.25-2.7 2.15-1.1-.2-1.1-4.75 0-7.4 6.6-19.1 8.6-15.3 22.95-23.9 13.9-8.3 24.6-18.8 4.8-4.65 10.15-11.4 3.6-5.95 6.6-9.55m48.4 31.7q2.1 1.15 3.1 4.15.5 1.5.6 2.75l4.85 9.4q6.25 10.65 13.1 17l4.35 3.95q1.2 1 1.7 2.15.65 1.35.55 3.3-.1 2.3-1.2 3.15l-3.5-.1q-4.65-2.25-10.8-8.1-7.8-7.4-10.9-14.85l-.6 23.75q0 5.3-3.05 16.45-3.75 13.75-9 21.05-5.2 7.25-10.1 18.95-3.2 7.75-5.85 16.25l-1.45 5.45q-.75 2.8-1.45 3.55-1.75 1.95-5.8-7.95-4.3-10.6-.55-33.05 3.35-20.3 10.05-34.55 6.35-13.5 10.8-27.6 3.9-12.25 4.95-14.65 4.8-10.9 10.2-10.45"/><path fill="#767cba" d="M93.2 65.25Q82.4 62.15 77.1 69q-2.6 3.4-3.1 7.45L65.5 65.8q-8.9-11.5-10.7-15.55.25-3.95 3.35-7.5 4.7-5.4 13.25-3.5l9.9 11.15q10.25 11.75 11.9 14.85m97.25-15.95q-1.95 12.3-3.8 17.7-1.35-2.65-4.15-4.35-5.55-3.5-12.65 1.05 1.15-5.8 2.65-12.3 3.05-13 4.85-16.65l1.4-.85q1.75-.95 3.5-1.2 5.75-.8 9.8 5.4zM54.3 141.8q4.5-3.8 11.3-13.15 6.75-9.35 9.4-11.55 4.45-3.7 7.4-2 3 1.65 3.1 8.15.2 8.85-18.5 29.95-8.9.55-11.7-5.4-.85-1.85-1-4.1zm66.95 53.95q-1.05 1.25-3.6 2.15-3.65 1.25-8.35.6-4.5-.6-7.2-4.05l-1.85-3.3q2.2-4.4 3-8.6l2.1-9.75q2.1-7.7 5.65-13.7 3.45-5.85 6.4-7.2l2.3-.2q3.55 1.05 3.6 8.45.05 2.55-.9 10.2-.5 4-1.15 25.4m-111.7-16.2q2.3-3.85 10.7-11.55l7.9-6.9-.15 2.4q0 2.9.9 5.4 2.75 8.05 13 9.3l-20.6 13.75q-8.5.2-10.95-6.05-.8-2-.9-4.35zm74.7 57.75L86 226.65q2.5 5.5 7.7 8.25 7 3.8 16.1.15-2.85 3.35-12.05 22.15-7.35 3.35-11.95.15-1.45-1-2.45-2.5l-.7-1.35q-.1-4.6 1.6-16.2"/><path fill="#3e3a39" d="m70.75 121.65-5.95 6.95q.3-2.65 1.9-7.2l1.55-4.05z"/><path fill="#0d131a" d="M167.4 189.95q2.1-1.6 5.5-.1 2.9 1.3 5.2 4 2.8 3.3 3.1 7.35.25 3.75-1.6 5.1-1.75 1.3-5.2.05-3.5-1.25-5.8-4.15-2.55-3.3-2.9-7-.3-3.7 1.7-5.25m54.15 3.15q-.2 7.7-7.85 10.05l1.75-18.3q2.85.35 4.55 2.8 1.6 2.3 1.55 5.45"/><path fill="#fff" d="M172.6 193.15q-.05-1.9 1.15-3.25 1.25-1.4 3.05-1.4 1.7 0 3 1.25 1.35 1.3 1.35 3.05 0 2-1.3 3.25-1.15 1.15-2.7 1.15-1.8 0-3.1-1.1-1.4-1.15-1.45-2.95m44.25-5.5q-.05-1.55.75-2.65.75-1.1 1.9-1.1 1.2 0 2.1.9 1.05 1.05 1.05 2.8 0 1.35-.9 2.4-.85 1-2 1t-1.95-.9q-.9-.95-.95-2.45m-44.05 28.5q3.7.7 6.2 3.05 2.3 2.2 2.25 4.25-.1 5.3.6 8.65.85 3.85 3.05 6.35 1.35 1.5.8 2.25-.5.7-2.95.95-4.45.4-9.85-2.25-5.05-2.45-7.95-5.95-2.2-2.65-2.75-7.9-.5-4.55.45-8.05.45-1.75 3.35-2zm42.7-1.8q1.9-2.95 2.95-5.5 4.1 2.25 6.15 6.7 2 4.35 1.05 8.6-.85 3.7-4.75 6.55-2.65 1.95-6.4 3.3l-1.95.1q-.35-.4 0-1.65 1.5-6.2-1.95-11.9 2.65-2.75 4.9-6.2"/><path fill="#d9b64f" d="M21.85 191.9q-7.3 4.55-14.05 10.4-3.35 2.9-5.25 4.9 2.65-6.9 12.7-16.2z"/><path fill="#dbdcdc" d="M202.65 180.15q-4.6-.3-7.8-4.25l50.3-22.9-.45.85-3.35 2.95-18.8 12.5-15.95 10.4z"/><path fill="#c72b4a" d="m126.85 164.4 6.2 2q-1.55 2.45-2.6 5.2zm-5.1 25.85.05-9 .2-6.4q2.3 4.55 6.45 9.75.1 5.05 1.3 7.5-2.85-.2-8-1.85m-10-32.2-4 9.2q-4.05 10.1-4.35 14.6-2.25-1.05-4.6-2.65l-4.3-3.05q-4.4-7.1-4.2-16.3l1.05-7.75q4.4 3.7 8.6 2.9 2.1-.45 3.35-1.6 4.1 2.45 8.45 4.65M60.1 95.1l1.5 6.4q2.35 8 6.65 15.85l-1.7 4.5q-1.75 5.05-2.05 7.8l-3.85 4.55Q56.7 121 58 106.75q.4-4.5 1.3-8.5z"/><path fill="#3e3a39" d="M132.8 168.95q.4 1.9 1.55 3.75 3.6 5.95 13.3 9.4l4.85 23.4q-3.7.95-11.05-2.4-7.95-3.6-10.2-8.35-1.4-3.45-1.95-5.3-.75-2.55-.85-4.85l4.15 4.05q4.85 4.55 8.4 6.9 3.15 2.7 5.1 2.1 1.05-.35 1.85-1.95.65-1.25.25-3-.55-2.4-3.2-4.65-4-3.35-9.55-10.2l-4.75-6.15q.6-1.7 1.35-3.15l.6-1.1zM69 151.85q9.15-11.9 11.75-16l2.85 6.05q3.7 6.7 7.75 10.2l-.65 8.55q.1 9.7 3.8 15.5-5.95-3.75-15.8-12.7-5.6-5.4-9.7-11.6"/><path fill="#d9b64f" d="M148.05 195.95q-.25 1.2-1.4 1.6-2.35.9-7-2.75-7.9-5.7-13.45-13.2l-4-6.35.6-7.45 7.5 11.75q9.2 12.55 17.75 16.4m-74.1-119.7 1.45-5.2q14.75 18.75 30.6 30.7l7.55-2.55q9.1-2 17.15.6-2.2-.2-9.65 1.75-9.3 2.45-14.1 6.05-3-1.2-8.6-5.7-11.25-9.05-24.4-25.65m-17.2-30.9L55 49.75q-11.25-17.2-16.5-29.7-2.65-6.2-3.05-9l5.9 10.1q7.45 12.4 15.4 24.2"/><path fill="#666ba1" d="M73.95 76.25q-4.45-5.55-9.5-12.65-4.8-6.7-9.45-13.85l1.75-4.4Q66.2 59.4 75.4 71.05zM186.8 67.7l-1.7-1.9q3.2-9.55 5.45-17.4-1.05 9.4-3.75 19.3"/><path fill="#d9b64f" d="M186.8 67.7q-2.85 10.7-7.35 21.45l-3.95 8.65h-.05l-1.1-.1-5.7-1-14.9-.65 6.2-2.5q7.5-2.2 13.7-.55 4.75-7.25 11.45-27.2zM77.3 44.95q.55-1.75 2.3-2.6l3.1 8.25z"/><path fill="#666ba1" d="m21.85 191.9-6.6-.9q6.2-5.75 18.6-15.15l3.2 1.1 4.9 1.25-7.75 5.8q-4.4 3.35-6.7 4.6z"/><path fill="#d9b64f" d="M45 167.4q6.75-5.2 16.9-14.55l5.45.35q-12.15 13.95-25.4 25l-8.1-2.35z"/><path fill="#666ba1" d="M61.9 152.85q10.55-9.75 19.7-19.15-4.15 7.95-14.25 19.5z"/><path fill="#d9b64f" d="m121 189.4.4-4.5v4.7q-.1 5.9-.75 11.7-2.05 18.65-8.5 29.75l-2.05 3.5-5.9 1.55 3.4-5.55q7.8-11.7 11.55-29.85 1.2-5.65 1.85-11.3m-22.85 67.9q-3.55 8.3-6.1 18.5-.55 2.3-1.45 3.05l-.8.35q0-8.2 4.3-20.6z"/><path fill="#666ba1" d="m104.2 236.1 5.9-1.55q-8.6 14.85-11.95 22.75l-4.05 1.3q4-11.9 10.1-22.5"/><path fill="#ffe9b3" d="M103.3 195.95q1.2 1.05 3.1 1.65l3.65.75q-2.65 9.75-8 18.3-5.6 9-8.2 18.6-3-1.55-3.95-2.55 1-7.35 2.3-11.65 1.5-5 4.65-10.65 3.55-6.45 6.45-14.45"/><path fill="#bbd" d="M89.9 232.7q.95 1 3.95 2.55l-.4 1.45q-1.65 6.7-3.05 4.65-1.4-2-.6-7.95zm17.95-50.8q1.9-6.5 3.45-7.1 1.75-.7 1.25 8.65-.4 7.45-2.5 14.9l-3.65-.75q-1.9-.6-3.1-1.65z"/><path fill="#ffe9b3" d="M28.45 169q-.6-2.05-.4-4.4.2-2.3 1.15-4.35l12.5-8.3q7.55-4.9 12.65-9.7-.4 3.95 1.75 7.1Q46.05 159.4 28.45 169"/><path fill="#bbd" d="M29.2 160.25q-.95 2.05-1.15 4.35-.2 2.35.4 4.4l-4.1 2.2q-6.35 3.3-6.15.75.2-2.3 4.9-6.65 3.05-2.8 6.1-5.05m39.5-28.4q-3 5.5-5.65 9.3-3.05 4.35-6.95 8.2-2.15-3.15-1.75-7.1 6.9-6.55 13.3-16.25 3.8-5.7 4.4-3.65.6 2.1-3.35 9.5"/><path fill="#ffe9b3" d="M54.9 31.2q.6-.7 3.35 1.5Q60.9 34.75 65 39q-2.6.8-5.35 2.45-5.8-8.9-4.75-10.25"/><path fill="#bbd" d="M59.65 41.45Q62.4 39.8 65 39q7.05 7.3 14.75 16.95l6.2 8.1q-4.45.75-7.15 3.2l-5.5-6.9q-8.85-11.5-13.65-18.9"/><path fill="#ffe9b3" d="M85.95 64.05Q92.3 72.7 95.7 78.7q3.7 6.5 2.45 7.4-1.15.8-6.1-4-5.15-4.95-13.25-14.85 2.7-2.45 7.15-3.2m91-3.3q3.8.1 5.4 1.75-2.1 7.9-3.85 12.55-1.95 5.1-2.9 4.8-1-.3-.6-5.85.45-5.25 1.95-13.25"/><path fill="#bbd" d="M184.15 32.35q2.35.3 4.1 1.65-1.1 8.1-3.35 18.05l-2.55 10.45q-1.6-1.65-5.4-1.75.9-4.9 1.95-9.45 2.4-10.35 5.25-18.95"/><path fill="#ffe9b3" d="M188.3 24.1q1.3.3-.05 9.9-1.75-1.35-4.1-1.65 2.95-8.55 4.15-8.25"/><path fill="#d9b64f" d="m82.7 132.55 1.45 3q1.9 3.55 4.15 6.7 7.1 9.9 14.7 11.15-1.05 1.35-3.25 1.6-4.35.55-9.8-4.85T82.2 139.5l-1.2-4.2z"/><path fill="#dbdcdc" d="M174.05 216.4q3.75 1.05 5.4 2.9 1.75 2 1.7 5.45-.05 3.6.65 7.25.75 3.7 1.75 4.85 2.05 2.3 2.4 3.85-7.15-1.45-10.3-9.8-2.7-7-1.6-14.5m41.15-1.6q2.8 4.05 2.6 9.5-.2 6.45-5.2 9.85-.25-.75.4-3.95.25-1.5-.15-3.75-.6-3.05-2.3-5.8z"/><path fill="#c72b4a" d="M151.7 202.65q-1.25-9.55-2.05-12.65 4.55 13.2 25.25 22.1 7.3 3.15 14.95 5.05 6.5 1.6 8.85 1.35 3.05-.3 7.6-4.1 4.65-3.95 7.05-8.5-.6 2.05.9 2.55 1.7.6 4.9-2.05-1.55 5.7-7.9 13.35-6.6 7.95-11.2 8.9-1.85.4-8.6-1.15l-10.3-2.75q.25-2.25-1.15-4.35-1.95-3.05-6.65-4-5.25-1.05-7.8-.65-2.5.4-2.85 2.3-4.7-2.1-7.9-7.25-2.6-4.2-3.1-8.15"/><path fill="#0d131a" d="M171.2 132.65q12.55-.45 19.75 2.15 5.55 2 11.05 8.55 4.9 5.8 8.4 13.4l-1.5.15q-3.65-7.1-8.35-12.35-5.25-5.9-10.45-7.85-7.3-2.7-19.2-2.3-13.15.5-17.4 5.15-3.25 3.55-5.5 10.65-2.7 8.35-1.35 15.3 4.45 23.85 5.5 33.9.55 4.95 3.25 9.65 2.85 4.95 7.3 7.95l-.5 2.15q-5.4-3.2-8.55-8.45-2.95-4.85-3.6-10.95-.5-4.75-2.4-15.8l-3.25-18.1q-1.35-7.35 1.85-16.5 2.6-7.35 6-11.1 4.65-5.1 18.95-5.6m32.5 93.05q4.2-3.3 7.15-6.65 4.75-5.4 7.5-12.05l1.9-1q-3.5 12-15.5 21.3-2.4 1.85-4.5 2.25l-4.9-.3q-5.9-1.25-14.05-3.5v-2l14.4 3.7 4.1.2q1.95-.4 3.9-1.95"/><path fill="#0d131a" d="M165.7 216.5q-1.85.3-2.1 1.15-1.1 3.7-.3 8.45.75 4.7 2.7 7 2.9 3.4 7.75 5.65 4.65 2.2 8.35 2.2 2.6 0 2.8-.65.2-.5-1.1-1.95-4-4.45-3.5-14.05.15-3.2-2.85-5.25-2.5-1.65-6.75-2.35zm-4.25 10.05q-.9-5.3.3-9.7.4-1.5 3.2-2.05 2.65-.5 6.1.05 5.1.8 8.1 3.15 3.3 2.6 3 6.35-.3 3.7.45 7.25.85 3.85 2.7 6.2 1.85 2.3 1.3 3.25-.6 1.1-4.5 1.3-3.85.2-9.15-2.1-5.55-2.45-8.55-5.95-2.15-2.5-2.95-7.75m63.7-12.2q1.9 3.4 1.7 7.8-.15 4.65-4.05 8.2-3.2 2.95-7.65 4.2l-3.05.3q-.7-.5-.1-3 1.35-5.35-2.2-10.5l1.35-1.5q1.85 2.55 2.5 6.2.6 3.55-.2 6.1-.45 1.25-.15 1.45l1.6-.4q3.75-1.35 6.7-4 3.7-3.35 3.5-7-.25-4.05-1.6-6.6-1.6-3.1-5.55-5.85l.95-1.8q4.35 3 6.25 6.4M182.6 192q-3.25-5.7-9.45-9.35-6.45-3.85-10.35-1.7-2.7 1.5-1.1 11.75 1.6 9.9 4.5 13.5 3.05 3.75 8.8 5.7l9 .25q2.35-1.25 1.95-8.1-.45-6.95-3.35-12.05m-20.5-12.5q4.5-2.5 11.8 1.6 6.95 3.85 10.4 9.95 3.1 5.3 3.4 12.8.3 7.8-3 9.45-4.05 2.1-10.65 0-6.3-2-9.4-5.85-3.25-4-4.8-14.45-1.7-11.3 2.25-13.5m-32.2 6.7q.95 7.8 6.75 12.85 6.1 5.35 15.7 5.85.25 0 .2.65t-.3.65q-10.2.1-17.3-6-7.7-6.55-7.4-16.95zm17.3-36.4q-5.4 4.85-9.45 11.1-3.95 5.95-6.05 12.25l-1.45-2.7q5.3-14.5 18.2-23.85-.35 1.55-1.25 3.2m70.05 23.7q1.85-.4 4.1 1.3 2.55 1.95 4.5 5.25 2.4 4 2.65 8.3.35 5.7-2.8 11.35-2.7 4.8-6.75 7.8-2.55 1.9-4.45 1.65t-1.9-2.65q0-1.25.5-4.6 1.4-10.25 1.65-17.65.25-6.8.9-8.95.45-1.6 1.6-1.8m.2 1.3q-.8.1-1.15 9.9-.35 8.45-1.6 16.95l-.65 4.25q-.2 1.65.25 1.8 1.15.5 3.85-1.5 3.65-2.7 5.95-7.25 2.6-5.1 2.3-10.55-.25-4.1-2.05-7.7-1.6-3.15-3.8-4.85-1.75-1.35-3.1-1.05"/><path fill="#0d131a" d="M198.15 159.7q-3.4.8-4.65 3.6-1.05 2.25-.9 5.05.1 2.4.95 4.1 1.15 2.35 3.05 4 1.85 1.6 4.1 2.25 3.7 1.05 6.35-.5 5.7-3.2 21.5-13.55 16.7-11.05 16.35-11.75-.4-.75-20 2.15-18.8 2.85-26.75 4.65m1.05 20.4q-5.1-2-7.25-6.7-1.65-3.65-.75-8.2 1.1-5.75 6.45-7.05 4.45-1.1 22.35-3.75l20.65-2.7 5.8.4q.45.6-2.95 3.65-3.5 3.05-16.7 12-13 8.8-18.95 12.2-3.7 2.1-8.65.15m-18-94 .95-3.25q6.7 10.95 10.1 25.2 3.4 14.4 3.05 30.6-1.15-.55-1.8-1.4.15-30.05-12.3-51.15m-12.5-15.8q-4.05-3.8-8.6-6.95-15.1-10.3-33.5-12.05-18.35-1.7-34.85 5.65L88.8 58.4l-1.5-1.65q21.75-11.65 48.15-6.1 10.7 2.25 20.1 7.1 8.65 4.5 13.75 9.9zm-47.4 120.9v-2.15q5.4 1.8 9.05 2.3.25.05.2.75-.1.75-.4.75-3.05 0-8.85-1.65M70 150.45q6.35 9.45 15.6 17.6 8.25 7.3 18.05 12.95l-.3 2.35q-9.9-5.3-18.7-12.95-9.45-8.2-16.2-17.9zM62.75 89.7q-3.6 10.5-3.8 22.15-.2 11.55 2.95 21.85l-2.15 1.85q-5.2-16.05-2.15-34.45 3-17.9 12.3-29.65l1.4 1.85q-5.4 7.15-8.55 16.4"/><path fill="#0d131a" d="M174.2 107.85q16.3 4.1 19.35 13.85l-.2 1.6q-3.4-9.55-19.65-13.4-16.3-3.9-34.35.5-16.05 3.95-27.85 13.45-10.1 8.1-15.6 18.8l-1.3-1.75q5.15-10.65 16-19.25 12.3-9.65 28.15-13.4 19-4.45 35.45-.4m-82 44.65q-1.6 7.1-.3 14 1.2 6.65 4.6 10.35.2.2-.2.65-.35.4-.55.2-4.35-4.2-5.8-11.2-1.45-7.1.45-15.15zm-1.7-58.1q-7 4.6-11.9 9.7-4.9 5.15-8.45 11.7-2.7 5.1-4.15 11.85l-2.65 3.1q.95-8.3 4.9-15.85 6.6-12.65 20.2-21.95zm76.2-11.5q-15.1-4.15-32.85-2.65-14.4 1.2-26.6 5.7l-1.3-1.7q7.15-2.65 12.8-3.9 6.5-1.45 15.5-2.2 8.6-.75 17.25 0 8.25.8 15.4 2.85zm13.15 4.65.5-2.15q4.15 2.95 5.65 6.35l.2 2.1q-1.85-3.45-6.35-6.3M162 71.45l5.95.4q-.25.75-.35 1.7l-6.2-.25q-3.55-.6-6.55-1.9-3.9-1.65-6.75-4.35-2.75-2.55-3.8-5.2-1.2-3.1-.15-4.95 1-1.85 3.5-1.25l1 .6 1 .55q-2.9-1.05-4 .45-1 1.35-.05 3.8.9 2.35 3.55 4.55 2.65 2.25 6.45 3.85 3 1.3 6.4 2m-78.45 16 1.4 1.7Q80.4 94.4 75.2 96.4q-5 1.9-7.95-.25-1.9-1.4-2.3-4.15-.5-3.35 1-7.7 1.5-4.45 4.45-8.3l1.65-1.9.9 1.7-1.1 1.35q-2.85 3.7-4.3 7.75-1.45 4-1.05 7.1.3 2.2 1.55 3.05 2.4 1.8 6.85-.4 4.5-2.2 8.65-7.2M192 37.15l-.5 1.55q-.6-1.55-2.2-2.8t-3.75-1.85l-4.5-.35q-2.2.3-3.6 1.4l.25-1.75q3.9-2.3 8.2-1.05 4.05 1.1 6.1 4.85m-120.05 3.4q-2.25-1.2-5.05-1-2.8.15-5.35 1.65-2.65 1.6-4.15 4.15-1.5 2.5-1.5 5.4l-1.2-1.65q.35-2.9 1.9-5.35 1.6-2.6 4.1-4.1 2.2-1.3 4.8-1.6l4.75.4zM94 257.8q2.35-.5 3.4-1.5.2-.2.4.4l.05.8q-1.4 1.4-3.95 2.05-2.75.7-5.2.1-2.35-.55-4.05-2.35-1.6-1.65-2.25-3.85-.05-.25.55-.45l.7.1q1.15 3.65 5.45 4.7 2.3.55 4.9 0M9.25 180.35q.1-.3.7-.4.65-.1.6.15-.4 2.3.15 4.5.6 2.25 2 3.7 1.55 1.55 4 2.3l4.9.3q.25-.05.15.6-.15.6-.45.65-2.9.45-5.35-.1-2.75-.55-4.4-2.25-1.65-1.65-2.2-4.3-.55-2.45-.1-5.15"/><path fill="#0d131a" d="M120.2 95.8q-5.25-1.3-8.8-.85-.6.1-.75-.35-4.65-9.3-13.6-22.4-7.45-10.85-13.8-18.65-9.6-11.7-25.45-26-13.7-12.4-19.85-16.2-1.25-.75-1.65-.6-.35.1-.2 1.05.65 4.45 10.7 22.15Q56.25 50.6 62.55 59.2 74.4 75.55 86 88.2q13.15 14.4 21.05 18.25 5.45-3.2 9.3-4.5 5.05-1.75 12.9-2.6-4.15-2.25-9.05-3.55m-8.6-2.6q3-.5 9.4 1.3 6.85 1.85 10.15 4.55.65.55.6.8 0 .3-.8.4-7.95 1.2-13.25 2.95-4.05 1.35-9.8 4.25l-1.35.45q-.45 0-1.4-.6Q83.4 93.5 58.2 56.2q-9.75-14.4-16.55-27.45-6.45-12.4-6.85-16.95-.35-4.5 5-1 17.15 11.55 34.05 29.05Q98 64.9 111.6 93.2m81-90.6q-.3-1.15-.7-1.25t-1.05.75q-5.15 6.85-13.4 33.4Q168 66.05 166.9 87.65l-.1.45-.45.15q-2.5.3-6.1 2.55-3.9 2.5-5.35 5.1 9.65-.85 19.65 1.05 8.4-14.55 13.95-42.9 4.75-24.3 4.75-42.15 0-6.65-.65-9.3M190.7.55q.95-.7 1.5-.5.6.2 1.2 1.5 1.6 3.55 1.3 14.9-.25 11.55-2.35 25.75-5.2 35.55-16.05 54.75l-.85 1.15h-1.25q-10.75-1.45-20.75-1.25-.95 0-.9-.4l.4-.7q1.85-2.9 5.8-5.65 3.95-2.8 6.95-3.25Q166.9 61 176.8 30.9q3.85-11.75 7.95-20.45 3.8-8.2 5.95-9.9"/><path fill="#0d131a" d="M186.1 68.15q-.9-2.4-2.95-4-2.1-1.6-4.9-2.1l-4.95.35q-2.5.85-3.95 2.8l.75-2.55q1.6-1.45 3.85-2.05l4.75-.25q5.3.85 8 5.85zM85.4 63.5q3.5-.35 6.8.8l.6.8q.35.65.1.6-2.95-1.05-6.6-.55-3.8.45-6.4 2.4-2.45 1.8-3.8 4.3t-1.3 5.1l-1.3-1.2q.2-2.8 1.55-5.35 1.4-2.7 3.8-4.45 2.85-2.05 6.55-2.45M81 135.2q2.35 6.35 7.45 12.1 5.45 6.15 10.1 6.85 1.75.3 3.1-.65 1.2-.8 1.7-2.15.25-.7-.2-1.4-.45-.75-1.55-1.15-3.95-1.5-7.95-7.75-4.5-7-8.2-18.6l.05-4.95q8.15 26.1 17.4 30.3 1.25.55 1.8 1.6.5 1.1.15 2.35-.5 1.8-2.4 3-2.1 1.35-4.4 1-5.4-.85-10.7-6.65-5.05-5.6-7.45-12.7zm40.85 19.65.75-1.65q3.9 11.15 10.75 20.85 6.2 8.7 13.7 14.85 1.9 1.6 2.1 4.1.25 2.3-.95 4.1-.65.9-1.7 1.25-1.6.55-3.6-.5-5.4-2.95-10.7-7.95-7.1-6.7-10.35-14.1l.4-2.95q2.9 7.45 10 14.7 6.05 6.15 11.6 8.95 2.4 1.15 3.25-.15.8-1.2.5-3.35-.3-2.2-1.4-3.05-7.75-6.2-13.2-13.45-7.2-9.55-11.15-21.65m-67.9-12.75.7-.1q.65.15.55.4-.4 1.75.3 3.7.75 1.95 2.4 3.55 1.9 1.85 4.3 2.55l4.6.15.25.5-.25.6-5.3.2q-2.85-.65-4.95-2.65-1.85-1.8-2.5-4.35-.65-2.4-.1-4.55M28.3 160.75l.65-.05q.5.15.4.4-1.05 2.5-.6 5.3.5 2.85 2.35 5.35 2.05 2.7 4.9 4.1 2.9 1.45 5.65 1.1.25-.05.3.55.05.55-.2.6-3.3.45-6.6-.9-3.45-1.4-5.6-4.3-2-2.7-2.25-6.1-.25-3.1 1-6.05m71.6 31.45q-.05-.25.55-.45l.7.1q.55 2.05 3.25 3.75t6.25 2.2q2.95.45 5.4-.1 2.95-.65 4.15-2.65.1-.25.7.15l.4.55q-1.4 2.2-4.2 3.3-2.95 1.15-6.6.6-3.5-.5-6.55-2.55-3.35-2.2-4.05-4.9m-13.6 33.65q0-.25.65-.45l.6.1q-.1 2.6 1.7 4.95 1.8 2.45 5.05 3.9 3.95 1.75 8.45 1.45 4.4-.35 6.5-2.35.2-.2.35.5l-.1.8q-2.6 2.5-7.45 2.8-4.55.35-8.45-1.4-3.55-1.6-5.5-4.5-1.9-2.75-1.8-5.8"/><path fill="#0d131a" d="M77.65 116.2q-2.7 1.3-5.65 4.8l-4.8 6.45q-5.55 7.95-9.75 12.45-7.2 7.65-17.2 14.05-14.3 9.2-21.7 16.5-5.35 5.3-10.65 13.7-3.4 5.4-5.2 11.7-1.45 5.3-1.3 8.9.1 2 .55 2.1.55.1 2.2-1.85 5.4-6.45 13.55-11.7 15.05-9.65 22.45-15.35 9.25-7.15 17.6-16.2l3.15-3.45q8.7-9.35 12.8-14.4 6.7-8.35 9.3-14.75 1.95-4.75 1.55-8.55-.35-3.45-2.35-4.6zm-7.1 3.8q4.1-4.85 8.05-5.85 2.65-.7 4.4.4 2.7 1.65 3.25 5.75.5 4.3-1.75 9.45-2.95 7.75-12.35 18.8l-13.2 15q-5.65 7.2-17.25 15.95-9.1 6.85-22.95 15.4-8.9 5.45-13.6 10.95-2.45 2.85-3.7 2.5-1-.3-1.3-2.75-.5-4 1.05-10.25 1.75-7.15 5.3-12.7 5.25-8.3 10.75-13.65 7.35-7.2 21.95-16.55 9.85-6.3 16.85-13.75 4.15-4.45 9.6-12.15 3.35-4.75 4.9-6.55m46.3 33.25q-2.15 1.65-4.6 6.15-2.55 4.7-4.25 9.75-1.05 3.05-2.65 9.1l-2.4 8.35q-1.55 4.8-3.75 9.2-5.7 11.55-8.6 19.8-4.15 11.7-5.85 24.55-1.15 9.15-1.15 16.1 0 13.55 3.75 19.95 1.85 3.15 2.6 2.65.65-.4 1.4-4.35 1.5-7.15 3.85-13.55 4.35-11.6 13.05-26.15 6.2-10.4 8.85-19.65 3.1-11.05 3.35-27.1.1-7.8 1.3-18.05l.9-9.3q0-3.05-.9-5.4-.95-2.45-2.3-2.85-1.15-.35-2.6.8m-5.9 4.4q4.25-7.95 8.9-6.9 2.95.65 3.8 5.6.45 2.65.25 6.1l-.55 7.75q-.6 5.15-.85 18.3-.25 16.3-3.4 27.45-2.65 9.4-9 19.95-8.5 14.25-12.8 25.4-1.4 3.65-4.1 13-1.85 6.2-3.1 6.7-1.3.5-4.15-4-2.75-4.45-3.8-12.6-1.4-10.9.65-26.7 1.65-12.65 6.15-24.3 2.25-5.8 9-19.45 2.05-4.15 3.45-8.8l2.15-8.05q2.95-11.15 7.4-19.45M81.1 42.85q-2.95.65-3.15 3.35l-1.3-1.4q.4-2.6 3.85-3.45 3.5-.85 6.95.85 2.6 1.3 8.1 4.5l8.4 5-3.2.65Q89.65 45 86.7 43.6q-2.85-1.35-5.6-.75"/></svg>