<svg xmlns="http://www.w3.org/2000/svg" width="314" height="206" viewBox="0 0 314 205.9"><path fill="#65a9dc" d="M292.3 57.6q8.05-5.45 10.9-3.8 2.9 1.6-.5 9.55-8.15 18.95-11.25 28.85-5.8 18.2-4.1 29.1 4.45 3 4.15 12.8-.25 8.2-3.35 16.9-2.35 6.6-14.35 7.25-11.05.6-18.45-3.5-13.8 3.8-25.3 11.35-5.05 3.35-17.8 13.9-10.2 8.5-17.95 12.25-11.2 5.45-25.75 6.4-26.25 1.65-53.05-15.05L95.65 170q-10.95-7.55-17.8-10.15L60.9 153.8q-9.55-3.45-14.9-6.4-14.65-8.15-15.7-22.8-.65-9.4 5.95-20.3 6.6-10.85 18.65-20.2 12.7-9.85 28.4-15.6 17.2-6.3 35.2-6.55 31.45-.4 56 14.15 18.2 10.8 33.75 30.9 27.35 35.3 38.55 33.9 6.1-6.1 10.4-22.6 5.55-21.1 17.95-40.4 9.95-15.45 17.15-20.3"/><path fill="#ffec60" d="M104.15 97.95q7.3 5.45 7.75 15.6.4 7.6-7 14.6-8.7 8.25-23.05 9.05-11.6.65-26.2-1.7-17.05-2.8-25-8.2-1.15-4.8.25-10.6 1.75-7.2 7.45-16.8.5 5.35 1 6.6.85 2.25 3.85 3.25 5.4 1.9 17.35-5.45 10.9-6.65 14.55-8.15 5.6-2.3 14.35-2.6 8.45-.3 14.7 4.4m179.8 46.25q6.8-9.05 3.55-23.15 6.65-4.2 13.25-5.55 7.9-1.55 10.4 2.55 2.3 3.7-6.1 13.3-9.8 9.9-11.55 12.1-2.5 3.15-1.15 7.3 1.3 3.9 5.1 6.4 3.45 2.3 5 5.1 1.4 2.5.9 4.6-.85 3.15-6.2 6.1-6.1 3.35-7 4.65-1.65 2.45-.4 7.65.7 2.9 2.55 8.5.95 3.3-.95 5.35-1.8 2.05-4.55 1-4.05-1.55-8.8-7.4-2.55-3.15-8.75-12.4Q256.9 161.85 248 157q4.45-2.1 13.75-2.65 15.25-.85 22.2-10.15"/><path fill="#ed8599" d="M67.65 138.05q-1.6 3.35-4.9 5.15-2.9 1.55-5.8 1.25-2.85-.25-7.5-3.5-5.05-3.55-8.5-8.3 5.5 1.75 14.05 3.4 7.6 1.5 12.65 2"/><path fill="#922f00" d="M52.45 135.5q-4.7.6-7.1 2.25-2.3-2.3-4.4-5.1z"/><path fill="#bad4ee" d="M37.45 176.25q-.3-3.75 2.15-6.4 2.4-2.6 7.1-3.55 4.9-.95 11.75-3.8 7.25-3.05 11.05-5.95L79.85 161q4.95 2.1 8.1 3.9-17.25 20.65-34.7 20.85-6.65.1-11.25-2.95-4.25-2.8-4.55-6.55"/><path fill="#e95532" d="M79.7 105.7q1.95-1.7 4.8-2.15 1.95-.3 5.05-.05 4.9.4 7.6 7.9 2.65 7.2.4 11.65-.45.9-6.75 1.7l-9.4.8q-2.2-2.9-2.85-8.35-.65-5.9 1.15-11.5"/><path fill="#fff" d="M78.7 115.85q.5 6.65 3 9.85l-7.1-.25q-4.8-.55-5.15-2.05-.8-3.1 2.05-8.7 3.15-6.3 8.35-9.5-1.6 4.3-1.15 10.65"/><path fill="#ffec60" d="M138.8.95q5.05 0 8.15 3.95 2.65 3.3 2.9 7.6.2 3.8-2.9 7.35-3.3 3.75-7.6 3.75-4.85 0-8.15-2.45-3.7-2.7-4.15-7.5-.5-5.6 3.45-9.35 3.55-3.35 8.3-3.35M21.1 37.7q6.65.55 11 5.35 4.4 4.85 4.75 12.2.4 7.2-5.1 12.6Q26.5 73 19.45 73.2t-12.4-4.55q-5.6-5-5.8-12.5-.2-7.9 5.6-13.45 5.9-5.65 14.25-5"/><path fill="#65a9dc" d="M127.6 16.45q-7.1 2.15-13.25 8.45-7 7.2-8.8 16.2l5.8 10.35q4.3 8.05 5.2 11.45.9 3.05 1.95 3.8 1.6 1.1-7.4 1.2-8.95.1-7-1.1 1.55-.95 1.75-1.95.25-.9-.4-3Q101.6 48.8 93 39.2 81.75 26.75 67.4 27.65q-12.05.8-21.5 6.5Q38.8 38.4 33.7 45l-2.35-2.6q5.7-8.3 14.65-14 10.55-6.7 21.8-6.8 11-.05 20.15 4.15 7 3.2 12.35 8.55 3.65-7.25 11.8-13.6 8.05-6.25 15.05-7.45z"/><path fill="#a1b8ce" d="M43.25 184q-2.7-1.7-6-7.3 7.6 5 21.55 1.2 14.3-3.85 25.9-14.65l3.7 1.95q-6.65 7.75-13.85 13.1-10.25 7.6-18.65 7.85-8.7.25-12.65-2.15"/><path fill="#5892bf" d="M204.7 185.8q-12.15 9.75-28.55 12.3-20.05 3.15-42.9-5.45-17.75-6.65-25.1-13.15l-5.8-5.35q-3.8-3.25-9.25-6.2-8.95-4.85-14.8-7.65-9.55-4.6-18.45-7.6 23.65 3.2 64 20.25 17.8 7.45 34 7.05 12.7-.25 29.1-5.85 9.6-3.3 30.4-11.15 19.7-6.65 38-8.7-11.35 3.35-24.1 11.65-9.6 6.2-26.55 19.85"/><path fill="#ddcc54" d="M260 154.8q4 9.95 15.5 26.3 12.55 17.85 16.1 15.65.65 2.45-.3 3.25-.55.5-1.9.4-4.65-.35-9.85-5.9-3.4-3.65-9.4-12.65-6.85-10.3-10.05-14.2-6-7.4-11.6-10.4 1.1-.65 4.35-1.45 3.9-.95 7.15-1"/><path fill="#dbdcdc" d="M69.3 122.6q-.1-3.95 2.4-8.45 2.8-5.1 7.75-8.45-.55 2.8-.9 6.5-5.85 4.35-9.25 10.4"/><path fill="#ca4829" d="M78.55 112.2q.35-3.7.9-6.5 1.95-1.45 4.45-2l4.5-.4q3.4 0 7.3 4.4-3.6-.65-8.4.55-5.15 1.3-8.75 3.95"/><path fill="#ddcc54" d="M144.65 3.65q2.05 1.5 3.2 3.75 1.2 2.3 1.2 4.9 0 4.45-3.15 7.55-3.15 3.15-7.6 3.15-2.4 0-4.55-1.05-2.1-1-3.65-2.8h.3q7.05.45 11.3-4.25 4.15-4.65 2.95-11.25"/><path fill="#fff" d="M137 9.4q-.4 1.25-1.35 1.9-.95.7-1.85.4-.95-.3-1.3-1.4-.4-1.1 0-2.35t1.35-1.9q.95-.7 1.9-.4.9.3 1.3 1.4.35 1.1-.05 2.35"/><path fill="#ddcc54" d="M27.35 40.45q4 2.2 6.35 6.15 2.4 4.05 2.4 8.8 0 7.1-5 12.1t-12.1 5q-4.7 0-8.7-2.35-3.9-2.3-6.15-6.25 2.75 1.05 4.55 1.35l5.5.15q2-.15 4.75-1.7 3.3-1.8 5.65-4.65 6.45-7.75 2.75-18.6"/><path fill="#fff" d="M13.85 46.95q.4 1.5-.35 3.1t-2.15 2.35q-1.45.8-2.75.3-1.3-.55-1.65-2-.4-1.5.35-3.05.75-1.6 2.15-2.4 1.45-.75 2.7-.25 1.3.5 1.7 1.95"/><path fill="#5892bf" d="m127.25 15.1.35 1.2q-8.3 2.75-14.75 10.95-5.7 7.2-7.15 14.45 4 5.85 7.75 14.85 2.8 6.75 4.8 7.9 2.35 1.1 2 2.1-.3.9-2.3 1.35-1.95.4-3.75 0-2.05-.45-2.45-1.75-2.85-9.3-7.3-16.15-1.65-2.5-2.05-3.55-.6-1.7-.15-4.05 1.4-9.1 8.85-16.9 7-7.35 16.15-10.4"/><path fill="#0d131a" d="M147.2 21.25q-3.5 3.35-8.75 3.35-5.3 0-8.8-3.35-3.6-3.4-3.6-8.6t3.7-8.95Q133.5 0 138.7 0t8.65 3.75q3.4 3.65 3.4 8.95 0 5.15-3.55 8.55m1.85-8.95q0-4.45-3.15-7.6t-7.6-3.15q-4.4 0-7.55 3.15t-3.15 7.6 3.15 7.55Q133.9 23 138.3 23q4.45 0 7.6-3.15 3.15-3.1 3.15-7.55M19.4 36.4q8 0 13.4 5.5 5.35 5.45 5.35 13.5 0 8-5.6 13.5-5.55 5.5-13.6 5.5t-13.5-5.3T0 55.8t5.7-13.7 13.7-5.7M6.9 43.3q-5 5-5 12.1t5 12.1 12.1 5 12.1-5 5-12.1-5-12.1q-5-5.05-12.1-5.05T6.9 43.3m285.85 49.5q-4.9 15.6-4.85 26.9 6.85-3.9 13.25-5 4.35-.8 7.4.15 2.75.8 3.75 2.85 1.7 3.65-3.65 10.95-3.85 5.2-9.15 9.85-6.9 6.05-6.45 10.75.4 4.3 4.7 7.1 3.3 2.15 5.05 5 2.05 3.2 1.3 6.3-.75 2.85-3.75 4.7l-5.55 2.7q-3.15 1.65-4.05 4.05-1.25 3.15.65 8.75 3.55 10.55-.55 13.15t-11.7-5.9q-3.2-3.55-8.5-11.15l-8.85-12.45q-10.65-14.15-17.35-13.1l3.05-1.55q6.1.25 16.45 14.35l8.5 12.05q5.05 7.1 8.05 10.5 5.55 6.25 8.95 5.65 3.85-.65.1-11.25-2.3-6.35-1.25-9.8.8-2.65 4-4.25 1.8-.9 5.8-2.6 3.2-1.75 4.15-4.85 1.2-4-5.45-8.8-2.8-2-4.2-3.85-1.65-2.1-1.85-4.5-.55-6.25 7.75-13.1 9.3-7.65 11.4-14.2 2.25-7.15-7.7-5.8-3.9.55-8.15 2.2-4.45 1.7-5.65 3.3.45 4.35-.3 4.65t-1.8-5.85q-1.3-7.95 3.15-24.2 4.05-14.85 10.95-29.9 4.55-9.95 2.2-12.05-2.05-1.85-8.3 3.2-23.15 20.9-33.55 52.7-2.55 7.75-6.1 19.85-3 8.7-6.95 10.8l-3.4-.2q4.5-1.65 7.45-9.3l5.7-18.35q9.75-31.05 31-52.85 10.2-10.5 14.7-7.7 4.4 2.75-.65 14.55-6.6 15.6-9.75 25.55m-225.8 44.7 1.95.15q-3.7 7.65-11.1 7.7-4.5 0-10.6-5.05-4.2-3.5-7.75-8.05l2.3.6q3.45 4.1 7.2 7 4.9 3.75 8.5 3.75 6.25-.05 9.5-6.1"/><path fill="#0d131a" d="M88.65 92.55q9.95-.45 17.1 5.9 7.05 6.25 7.05 15.1 0 14.05-15.3 20.6-10.25 4.35-23.3 4.35-13.45 0-26.65-3.3-12.75-3.2-16.6-7.15l-.05-2q3.85 4.15 16.95 7.3 12.95 3.15 25.5 3.1 17.7 0 27.65-6.5 9.3-6.15 9.3-16.15 0-8.6-5.85-13.9-6-5.4-15.7-5.15-7.6.2-14.75 3.5l-14.8 7.9q-10.8 5.65-16.1 4.5-5.15-1.2-5.4-9.05.95-1.5 2-2.7-.25 10.55 6.2 10.15 3-.15 12.15-4.85l15.25-8q7.25-3.25 15.35-3.65"/><path fill="#0d131a" d="M55.65 136.45q-6.65-.25-9.7 1.55l-1-.75q2.35-1.65 6.7-2zm-19.15 41.8q-1.6-4.25 1.05-7.85 2.9-3.95 9.8-5.25 9.7-1.85 21.45-8.65l2.1.7q-5.75 3.7-12.6 6.55-6.3 2.6-11.15 3.55-5.05 1-7.2 4.2-2 2.95-.7 6.35 1.3 3.45 5.35 5.35 4.6 2.15 11.15 1.35 9.6-1.15 18.3-7.6 4.25-3.15 13.3-12.35l1.95.75q-8.85 9.5-15.25 14.2-9.1 6.6-17.65 7.45-7.65.75-13.25-2-5-2.45-6.65-6.75m54.9-63.4q0 2.25-.85 3.85t-2 1.6q-1.2 0-2.05-1.6t-.85-3.85.85-3.8q.85-1.6 2.05-1.6 1.15 0 2 1.6.85 1.55.85 3.8"/><path fill="#fff" d="M87.3 109.7q.35.75-.05 1.85-.45 1.2-1.45 1.65l-2.1-.1q-.95-.5-1.35-1.6-.3-.75.05-1.65.4-1 1.45-1.45l2.1-.1q.95.4 1.35 1.4"/><path fill="#0d131a" d="M80.9 125.55q-2.35-2.6-3.25-7.8-1.05-6.5 1.8-12.05l1.95-1.1q-2.85 4.2-2.05 11.45.65 6.4 2.9 9.2z"/><path fill="#0d131a" d="M73.75 112.15q-2.3 3.3-3.3 6.65-1 3.25-.25 4.55 1.25 2.05 13.7 1.3 12.4-.7 13.5-2.6.5-.9.3-3.65-.25-3.05-1.3-5.95-2.9-8.05-9.2-8.4-7.55-.45-13.45 8.1M68.9 123.9q-.9-1.75.05-5.35.95-3.65 3.35-7.25 6.1-9.15 14.95-8.9 7.4.2 10.8 8.9 1.35 3.35 1.5 6.8.2 3.35-.75 4.95-1.45 2.45-14.75 3.3-13.55.8-15.15-2.45M197.1 96Q184.25 82.45 170 74.9q-17.95-9.5-41.25-11.5-5.8-.5-12.35-.25l-.2-1.85q8.5-.4 12.8-.05 23 1.95 40.15 10.35 13.85 6.85 26.2 19.35 4.45 4.55 19.95 23.15 11.9 14.3 21.4 21.75 10.9 8.6 20.9-.25 1.35-1.2 1.65-.55.3.6-1 1.95-4.55 4.95-9.75 5.4-5.6.55-12.3-3.95-8.3-5.55-19.3-18.9Q200.45 99.5 197.1 96"/><path fill="#0d131a" d="M235.85 164.05q-9.35 5.7-26.9 19.8-20.95 16.85-48 16.1-31.15-.85-60.95-25.8-7.8-6.55-20.95-12.1l-22.2-8.5q-12.25-4.95-18.2-10.15-7.8-6.8-9.05-16.9-1.25-10.3 4.4-21.05 5.4-10.2 16.2-19.3Q73.1 66.9 105.1 62.3v1.95q-30.85 4.75-53.4 24-10.4 8.85-15.65 18.6-5.5 10.2-4.35 19.4 1.15 9.7 8.2 15.75 5.3 4.6 16.9 9l21.7 8.1q13.4 5.65 22.65 13.2 19.3 15.75 39.25 22 37 11.6 67.05-12.3 17.7-14.15 26.8-19.65 15.65-9.6 25.4-8.3 1.45.25 1.55.8t-1.35.6q-10.2.15-24 8.6"/><path fill="#0d131a" d="M106.4 62.45q.55 1.8-.3 3.1-.75 1.2-2.3 1.5l-1.25-.15q-.4-.35.35-.75l1.35-1.05q.6-.9.15-2.45-4.8-15.85-14.15-24.6-9.35-8.8-21.85-9.25-7.95-.3-17.55 3.95-10.95 4.85-16.8 13.1l-.8-1.35q6-8.35 17.25-13.5 9.95-4.5 18-4.25 12.9.45 23 9.9 10.15 9.55 14.9 25.8"/><path fill="#0d131a" d="m127.05 12.25.2 1.55q-8.05 1.9-15.55 8.1-6.9 5.7-10.65 12.65-.55 1.05-1.35.25-5.85-5.85-14.05-9.1-8.1-3.2-17.1-3.3-11.45-.15-21.95 6.35-8.75 5.45-14.8 14.05l-.95-1.15q6.25-8.8 15.25-14.45 10.9-6.85 22.45-6.7 9.2.15 17.3 3.25 8.45 3.2 14.35 9.15 4.45-8 11.85-13.55 7-5.25 15-7.1"/><path fill="#0d131a" d="m127.6 15.8.4 1.6q-7.45 2.4-13.7 9.3-6.7 7.5-8.3 16.6-.3 1.75-1 1.65-.7-.05-.5-1.8 1.2-9.45 8.35-17.45 6.6-7.3 14.75-9.9"/><path fill="#0d131a" d="m105.65 42.8.35-2.5q2.75 4.2 5.95 10.4 3.45 6.7 5.2 11.6.55 1.6 2.25 2.65.9.55.8.9l-1.75.15q-1.95-.4-2.6-2.1-6.85-15.75-10.2-21.1"/><path fill="#bad4ee" d="M173.2 190.5q-13.45-3.7-24.05-14.05-7-6.85-14-18.25-1.45-2.35-.1-5.05 1.15-2.4 4.05-4.25 2.75-1.8 5.45-2.1 2.95-.3 4.2 1.45 6.6 9.15 42.85 15.15 11.15 1.85 13.95 9.75 2.25 6.45-1.35 12.1-2.6 4.1-10.75 6-9.5 2.2-20.25-.75"/><path fill="#a1b8ce" d="M201.75 186.45q-5.3 4.75-15.4 5.55-10.25.8-21.5-4.9-12.7-6.45-23.15-19.7 17.1 11.65 32.05 15.4 18.7 4.6 32.3-3.7-.75 4.15-4.3 7.35"/><path fill="#0d131a" d="M167.05 156.8q10.55 3.05 23.45 4.85 11.35 1.55 15.35 10.6 1.55 3.55 1.4 7.2-.15 3.45-1.7 5.4-4.2 5.25-10.85 7.3-7.05 2.15-17.35.8-13.05-1.7-26.2-13.3-11.25-9.95-16.55-20.85-.85-1.8-.4-2.85.45-1.1 2.05 2 5.3 10.2 16.55 19.7 13.05 11 25.55 12.6 7.35.95 13.3-.25 7.3-1.55 11.3-6.3 3.95-4.6.8-10.95-3.45-7-13.1-8.75-19.55-3.5-29.7-7.15-9-3.2-11.8-7-1.7-2.3-.95-2.45.7-.15 2.35 1.6 3.8 4.15 16.5 7.8"/></svg>