<svg xmlns="http://www.w3.org/2000/svg" width="140" height="125" viewBox="-0.35 -0.2 139.65 125.05"><path fill="#f7c6bd" d="M113.8 44.95q4.8 3.05 10.2 15.5 5.2 12 4.75 17.6 3.05 3.45 5.2 7.95 2.55 5.5 1.25 7.95-2.3 4.25-13.6 6.5-10.85 2.15-17.15.3-5.75 4.95-13.6 8.25-4.85 2.05-8.7 2.85-.85 3.5-4.8 7.45-3.85 3.8-6.35 3.85-3.05.05-8.85-3.15-6.25-3.5-12.5-9.2-16.2-14.75-21-33.3-3.1-11.9-1.4-27.4 1.9-17.05 8.8-26.55-3.5-3.25-5.2-6.55-1.7-3.25-1.35-6.15.35-3.25 3.25-5.7Q36.5 2 43.9 1q9.05-1.2 18.8 2.2 7.1 2.45 12.1 6.2 3.65-1.4 8.3-2.5-3.4 4.3-2.1 12.55 1 6 3.6 11.05 4.25 8.4 13.1 13.5 7.1 4.1 12.75 4.25z"/><path fill="#524423" d="M33.55 28.1q-4.35 7.8-6.1 20.9-1.75 13.4.65 22-6.5 1-16.6-4.2Q1.05 61.45.7 56q-.15-1.9 3.05-6.25Q7 45.4 11.9 40.8q12.35-11.6 21.65-12.7m48.8-20.7q.5-1.2 6.85-2l14-.55q20.1.55 22.05 6.25 2.55 7.4-4.95 23-2.85 6-5.95 10.25-3.05 4.3-4.3 4.05-16.4-3.15-24.65-16.95-3.6-6-4.4-12.4-.8-6.45 1.35-11.65"/><path fill="#ed8599" d="M57.05 68.35q1.4-1.6 3.3-2.6 2.2-1.1 4.35-.95.85 5.35-1.75 6.3-1.05.4-2.75-.45-1.55-.8-3.15-2.3"/><path fill="#922f00" d="M64.7 64.8q-2.15-.15-4.35.95-1.9 1-3.3 2.6-2-1.8-2.8-3.6L59.6 63l4.15-1.95z"/><path fill="#f7c6bd" d="M129.15 78.65q-.4-5.3-3.2-13.15-2.85-7.9-6.2-13.15 4.55-.95 8.55.5 4.6 1.7 7.4 6.35 2.25 3.7 2 9.9-.35 7.95-5.55 13.45-1.55-2.45-3-3.9"/><path fill="#ed8599" d="M37.9 67.65q.75-.55 2.7-.95l3-.05q1.05.3 1.2 1.1.2 1.5-3.5 2.3l-2.9.05q-.95-.3-1.1-1.05-.2-.85.6-1.4M80.2 54.1q.85 1.7-3 3.55-3.85 1.8-4.7.2-.9-1.7 3.05-3.55 3.85-1.9 4.65-.2"/><path fill="#d5aba4" d="M70.75 123.45q2.3-2.7 3.75-5.55 1.4-2.8 1.6-5.05l-4.35.75-2.9.25q8.6-2.8 17.45-6.65 10.3-4.5 14.9-7.85.75.6 1.75.85.95.2 1.45.75-2.25 2.65-10.05 6.45-7.85 3.85-11.9 4.2-5 10.25-11.7 11.85"/><path fill="#3e3315" d="M1.05 57.7q6.7 4.25 25.9 4.95.55 2.6.7 5.3.2 3.4-.55 3.45-4.35.2-14.45-4.3-11.2-5-11.6-9.4M98.2 44.55q6.9-3.6 15.15-12.65 8.9-9.85 12.1-18.5 1.55 5.45-4.9 19.3-6.05 12.85-9.45 15.15-1 .7-5.4-.4-4.4-1.15-7.5-2.9"/><path fill="#d5aba4" d="M137.05 65.65q2.25 5.2-2.15 13.55-.8 1.55-2.7 3.45l-2.3-3.2q6.1-5.05 7.15-13.8M46.35 28.3q4 .45 7.5-1 2.7-1.05 3.35-3.7.65-2.5-.7-6.1 2.7 2.3 2.85 6.3.25 4.4-3.45 6.2-4.7 2.35-11.05.4-5.9-1.8-9.6-6l.7-.85q5.05 4.1 10.4 4.75"/><path fill="#0d131a" d="m33.6 27.3-.45 1.1Q22 32.45 11.6 42.05 1.75 51.15 1.9 56q.15 4.2 7.5 8.6 7.55 4.45 17.75 6.15 2.15.35.65 1.6-11.9-1.75-20.1-6.9Q.3 60.8 0 56.3q-.35-5.85 11.25-16.1 11.9-10.5 22.35-12.9m35.75 86.2q10.3-1.45 17.85-4 9.8-3.25 16.9-8.85.3-.25.85-.25.6.05.25.45-4.5 5.15-15.45 9.25-11.05 4.2-20.55 4.2-.9 0-.85-.3 0-.35 1-.5m44.7-69.15q6.7 6.35 11.3 17.6 4.05 9.85 4.2 17.1.05.85-.35.2t-.65-1.8q-1.7-9.15-5.8-17.95-4.25-9.15-9.15-13.6-.75-.75-.3-1.25.5-.55.75-.3"/><path fill="#0d131a" d="M128 78.05q-2.5-2.95-1.6-2.65.9.25 2.75 2.2 3.25 3.45 5.45 8.45 2.65 5.9.95 8.6-2.75 4.35-14.2 6.6-12.05 2.4-19.5-.9-1.3-.6-1.15-.95l1.65.15q7.6 2.65 18.85.3 11.1-2.3 13.15-6.65 1-2.1-.75-6.3-1.75-4.3-5.6-8.85m-5.85-51.7q3.8-11.3 1.5-15-2.75-4.55-15.8-5.6-12.3-.95-24.35 1.7-2.15 3.75-1.65 9.8.45 6.15 3.45 12.2 7.35 14.8 22.85 17.65l2.55-.05q1.05-.55 2.7-2.9 5.2-7.3 8.75-17.8m3.4-16q2.45 4.15-1.8 16.6-4.25 12.35-10.6 19.9-.95 1.1-2.1 1.5l-3.6.1Q90.55 45 83.5 29.4q-2.7-6-3.15-12.3-.45-5.8 1.1-9.2-3.1.75-6.05 1.95l-1.3-.7q12.85-5.6 30.7-5 17.45.6 20.75 6.2"/><path fill="#0d131a" d="M119.25 51.75q4.95-1.2 9.25.35 4.9 1.75 7.55 6.75 3 5.55 2 12.65-1 7.35-5.6 12.05l-.55-1.25q3.9-4.45 4.85-10.8.95-6.6-2-11.65-5.1-8.75-14.7-6.65zm-21 16.7q5.95-15.35 1.5-17.6-2.35-1.15-6.35 1.4-4.05 2.6-6.45 6.9-.6 1.05-.9.65-.3-.45.15-1.5 1.9-4.65 6.45-7.55 4.95-3.15 8.55-1.1 2.4 1.4 1.9 7-.5 5.65-3.75 12.8-1.25 2.8-1.8 2.6-.6-.2.7-3.6m-32.1-8.9q.6.25.5.55-.05.35-.55.25l-1.1.1-1 .85q-.75.65-2.9 1.65l-3.35 1.35-4.65.75q-1.8.1-2.3.6-.35.4-.65.25t0-.6q.8-1.15 1.5-1.15 2.8.1 5.8-.9 1.55-.45 3.7-1.55 2.35-1.25 2.9-2.05.2-.35.85-.35z"/><path fill="#0d131a" d="M63.4 61.5q-.1-.25.35-.6l.5-.05q1.4 3.9 1.3 6.95-.15 3.4-2.35 4.1-2.05.7-5.35-2-2.75-2.25-4.6-5.05-.1-.2.5-.3l.75.1q1.8 2.6 3.95 4.3 2.5 2.05 4.2 1.65 2-.5 1.75-4.3-.2-2.3-1-4.8"/><path fill="#0d131a" d="M64.5 64.3q.5.05.5.55t-.4.45q-1.7-.1-3.45.65-2.05.85-3.7 2.7l-.65.1q-.3-.3.05-.75 1.65-2.15 3.4-2.95 1.75-.9 4.25-.75"/><path fill="#0d131a" d="m35.3 23.1 1.2 1q-7.55 11.1-8.7 28.65-1.1 17.05 4.3 32.5 3.95 11.3 15.5 22.7 10.85 10.65 20.55 14.15l3.45.3q1.5-.35 3.15-1.7 4.95-3.85 6.85-8.8l1.15-.35q-1.65 5.25-7 10.2-3.25 3.1-8.2 1.4-8.3-2.75-18.9-12.4Q35.85 99.1 30.6 85.7q-5.55-14.15-4.5-32 1.15-18.75 9.2-30.6"/><path fill="#0d131a" d="M77.65 11.2q.85.8.65 1.05-.25.3-1.15-.45Q65.7 2.3 50 1.5q-6.85-.35-11.85 1.45-5.2 1.8-6.9 5.4-2.05 4.4.75 9.45 2.6 4.6 7.95 7.6 4.75 2.65 10.2 2.05 5.5-.6 6.45-4 .65-2.25-.15-4-.75-1.55-2.45-2.2l-2.55-.15q-1.45.3-2.35 1.3l-.75.4q-.3-.1 0-.75.75-1.45 2.75-2 1.85-.5 3.3 0 2.4.8 3.45 3.05 1 2.2.25 4.8-1.15 4.1-7.45 4.9-6.05.8-11.4-2.05-5.9-3.1-8.85-8.6-3.1-5.75-.8-10.5 1.75-3.8 7.3-5.85 5.4-2 12.6-1.75Q66.3.6 77.65 11.2M49.7 57.95q.4 2.15.15 3.75t-1 1.7q-.75.15-1.55-1.25-.85-1.4-1.25-3.55-.4-2.1-.15-3.7t1-1.75 1.55 1.25q.85 1.4 1.25 3.55M66 47.8q.9 1.35 1.3 3.5t.05 3.75q-.3 1.6-1.15 1.75t-1.75-1.25q-.9-1.35-1.25-3.5-.4-2.1-.1-3.75.3-1.6 1.15-1.75T66 47.8"/><path fill="#fff" d="M46.75 56.4q-.2-.8-.1-1.45t.5-.75q.4-.05.8.45l.6 1.3.05 1.5q-.1.65-.5.7-.4.1-.75-.4zm17.2-7.95q.1-.7.5-.8.4-.05.85.45l.65 1.4q.25.85.1 1.55t-.55.8-.85-.45q-.4-.55-.65-1.4-.2-.85-.05-1.55"/><path fill="#f7c6bd" d="M20.05 78.75q.4-2.5 6.25-2.95 5.45-.45 8.25.95 2.4 1.2 3.85 8.05t-.8 6.6q-3.45-.4-10.25-4.45-7.85-4.7-7.3-8.2"/><path fill="#0d131a" d="m31.35 76.45-7.5.4q-2.45.7-2.7 1.6-.7 2.7 4.5 6.35 4.4 3.1 10.45 5.3 1.9.65 1.6 1l-1.85-.05q-7.1-1.95-11.95-5.55-5.15-3.85-4.5-7.2.5-2.45 4.75-3.2 3.7-.65 7.2.15 2.9.7 2.95 1.1z"/></svg>