<svg xmlns="http://www.w3.org/2000/svg" width="189" height="246" viewBox="0 -0.1 188.95 245.8"><path fill="#bae2f8" d="M.85 143.15q0-6.45 4.7-11.05 4.65-4.6 11.25-4.6t11.3 4.6q4.65 4.6 4.65 11.05 0 6.5-4.65 11.05-4.7 4.6-11.3 4.6t-11.25-4.6q-4.7-4.55-4.7-11.05"/><path fill="#57c2e9" d="M6.15 143.8q0-4.2 3.05-7.2 3.1-3 7.4-3t7.35 3 3.05 7.2q0 4.25-3.05 7.25t-7.35 3-7.4-3q-3.05-3-3.05-7.25"/><path fill="#eaf5fc" d="M6.5 137.45q0-2.2 1.6-3.8t3.9-1.6 3.9 1.6q1.65 1.6 1.65 3.8 0 2.25-1.65 3.85-1.6 1.55-3.9 1.55t-3.9-1.55q-1.6-1.6-1.6-3.85"/><path fill="#485157" d="M153.65 40.1q-1.7-5.1-5.45-6.05l.25-2q3.65.45 8.3 2.4 5.45 2.3 5.3 4.35-.2 2.7-2.2 6.55-2.05 4-5.3 7.7.8-7.85-.9-12.95"/><path fill="#f09dc1" d="M148.2 34.05q3.75.95 5.45 6.05t.9 12.95q-3.8 4.3-8.15 6.85.75-3 0-8.2-.75-5.65-2.55-7.8 3.25-4.15 4.35-9.85m-74.55 17.4q3.4 3 4.95 8.35 1.45 5.05.7 10.1-.75 5.25-3.7 8.05-6.25-.4-11.85-2.1 4.55-4.4 2.7-12.1Q64.6 55.9 58 54.9l3.05-2.95 3.75-3.35q5.05-.55 8.85 2.85"/><path fill="#d2ecfa" d="M147.2 18.85q5 18.3-5.75 27.3-4.35 3.65-10 4.3-5.55.6-10.05-2-2.25 6.2-8.25 8.9-6.75 3-15.5 0-3.05 2.85-6.9 2.6-3.3-.25-5.7-2.65-2.35-2.4-1.95-5.1-4.15 1.05-7.7-1.35-3.45-2.3-4.3-6.4-1.1.5-5.55 3.9-4.25 3.25-5.55 4.5-2.15-1.45-2.9-5.1-.65-3.45.2-7.45 1.95-9.6 8.5-11.35 2.35-14.5 14.85-20.55 5.2-2.6 11.05-2.85 5.6-.3 10.2 1.65 2.7-2.95 7.85-3.1 5.35-.15 8.95 2.95 1.8-4.55 6-5.55 3.85-1 8.65 1.15 4.65 2.1 8.4 6.35 4 4.5 5.45 9.85"/><path fill="#485157" d="M83.1 52.2q-.4 2.7 1.95 5.1 2.4 2.4 5.7 2.65.35 3.8-.3 8.05-.95 6.2-3.8 8-2.8 1.8-6.5 2.1l-4.55-.15q2.95-2.8 3.7-8.05.75-5.05-.7-10.1-1.55-5.35-4.95-8.35-3.8-3.4-8.85-2.85 3.8-3 6.3-4.15.85 4.1 4.3 6.4 3.55 2.4 7.7 1.35M58 54.9q6.6 1 8.45 8.85 1.85 7.7-2.7 12.1-4.5-1.25-6.8-2.45-4.7-2.45-5.45-5.95-.55-2.35 1.45-5.85 1.7-3.1 5.05-6.7"/><path fill="#f09dc1" d="M170.7 99.3q1.95 2.75-6.8 12.85-9 10.4-17.8 14.55l-3-4 .25-3.1q6.8-3.25 10.75-9.45 3.8-6.1 2.9-11.55l8.35-.8q4.35.05 5.35 1.5m-61.95-2.65q-8.6-2.9-14.9-7.7-6.9-5.3-9.05-11.55 3.5-.95 5.05-6.05 1.45-4.75.9-11.4 3.85.25 6.9-2.6 8.75 3 15.5 0 6-2.7 8.25-8.9 4.1 2.4 8.75 2.3 4.6-.05 8.6-2.45 6.75 9.9 6.95 24.65.25 16.3-8.95 23.3-4.2 3.2-12.1 3.2-7.55 0-15.9-2.8"/><path fill="#485157" d="M138.75 48.3q2.9-1.7 5.1-4.4 1.8 2.15 2.55 7.8.75 5.2 0 8.2l-2.35 1.25q-2-8.05-5.3-12.85"/><path fill="#f09dc1" d="M38.85 175.45q-2.6 4.95-1.85 8.6-6.1-5.55-10.65-11.7.2-3.25 2.65-6.15 2.35-2.7 4.7-2.9 4.65 3.5 10.3 6.05-2.75 1.5-5.15 6.1"/><path fill="#fff" d="M185.4 149.15q2.2 1.2 2.25 6.45 0 4.8-1.7 11.9-4.05 1.95-8.5.9-4.5-1.05-7-4.55 1.8-4.45 7.5-10.05 5.65-5.65 7.45-4.65m-103.55 75.4q5.75-1.45 10.75 1.05 5.05 2.5 5.4 7.15Q84.6 244.4 74.45 242q-3.85-.95-.9-6.25 1.7-3.15 8.3-11.2"/><path fill="#f09dc1" d="M170.45 163.85q2.5 3.5 7 4.55 4.45 1.05 8.5-.9-2.8 11.6-7.8 21-5.45 10.25-9.7 10-1.35-.05-3.35-1.35l-3.95-2.65q-5.9-3.7-12.15-3.25-6.85 6.55-18.45 9.8-9.35 2.6-18.35 2.35-.6 2.9-.8 9.4-.15 5.6-.6 6.2-6.25 8.1-12.8 13.75-.35-4.65-5.4-7.15-5-2.5-10.75-1.05l6.05-7.7q-16.9-7.5-20.95-23.25-4-15.4 5.9-32.25-.15-2.85.55-9.55.8-6.95 1.6-9.1 10.05-2.9 15.95-6.7 4.75 5.45 13.35 4.65 8.85-.85 14.6-8 7.95 5.15 16.6.75 3.6-1.85 5.7-4.8 2.2-3 1.9-5.9l4.55 6.85q4.05 6.35 5.4 9.4 7.4 0 13.2 7.6 4.75 6.3 6.25 13.95z"/><path fill="#d2ecfa" d="M84.8 77.4q2.15 6.25 9.05 11.55 6.3 4.8 14.9 7.7 8.35 2.8 15.9 2.8 7.9 0 12.1-3.2 8.8-6.65 9-21.5 7.1.85 9.5 6.95 2 5.15.45 13.35 2.7 4.4.45 11.2-2.8 8.55-12.8 13.35.65 8.75-6.45 13.15-7.6 4.6-18-.1-7.15 8.95-17.7 8.05-4.5-.4-7.9-2.75-3.55-2.45-4.75-6.15-6.45 1.2-10.75-2.7-4.1-3.7-3.65-9.25-5.95 2.8-11.8 7.45-4.15-2.5-5.8-7.1-1.55-4.3-.25-8.45-3.85-1.55-6.05-5.7-2.1-4-2.05-8.95.05-5.15 2.45-9.4 2.7-4.65 7.55-6.95.9-4.05 2.8-5.8 4.35 1.6 10.85 2.55 8.2 1.15 12.95-.1"/><path fill="#f09dc1" d="M71.4 143.8q-14.1 3.7-21 1.4-5-1.65 4.9-11.45 9.3-9.2 18.85-13.9-.45 5.55 3.65 9.25 4.3 3.9 10.75 2.7.85 2.4 2.4 4.2-7 4.5-19.55 7.8m-3.7 29.05q-2.25 7.3-1.85 14.25.45 6.85 3.4 12.75-8.15-.5-17.05-5.05-2.5-3.65-.95-11.3 1.55-7.6 5.15-10.35 6.25 1 11.3-.3"/><path fill="#485157" d="M33.7 163.3q-2.35.2-4.7 2.9-2.45 2.9-2.65 6.15-6.55-8.9-7.4-14.8-.4-2.6 1.8-3.8 2.2-1.25 4.6.4 2.25 4.55 8.35 9.15m3.3 20.75q-.75-3.65 1.85-8.6 2.4-4.6 5.15-6.1 6.35 2.85 12.4 3.8-3.6 2.75-5.15 10.35-1.55 7.65.95 11.3-7.9-4.1-15.2-10.75"/><path fill="#ed8599" d="M109.15 96.8q-.35-.55-.45-1.8l.1-2.3q3.65 2.65 8.8 4.65 5.5 2.15 9.15 2.1l-10.7-.9q-6.5-1.05-6.9-1.75"/><path fill="#27333a" d="M162.05 38.75v.05q-.2 2.7-2.2 6.55-2.05 4-5.3 7.7.3-3.1.2-6.2 3.95-3.6 7.3-8.1"/><path fill="#d087a7" d="M146.4 59.9q.65-2.45.15-6.95 4.35-2.6 8.2-6.1.1 3.1-.2 6.2-3.8 4.3-8.15 6.85M65.85 72.75q6.9-.1 13.2-1.45-.95 4.25-3.45 6.65-6.25-.4-11.85-2.1 1.15-1.05 2.1-3.1"/><path fill="#b6ccd9" d="M122.8 42.75q3.2 3.05 7.6 3 4.05-.05 8.1-2.7 9.05-5.95 10.05-17 1.3 14.4-8.45 21.15-4.1 2.85-9.05 3.25-4.85.45-8.9-1.6 1-4.2.65-6.1"/><path fill="#27333a" d="M90.55 67.3q-.85 6.85-3.9 8.7-2.8 1.8-6.5 2.1l-4.55-.15q2.5-2.4 3.45-6.65 6.1-1.4 11.5-4m-24.7 5.45q-.95 2.05-2.1 3.1Q57.5 74.1 54.7 72z"/><path fill="#d087a7" d="M143.35 119.6q2.45 2.1 9.85-1.45 6.75-3.2 12.5-8.35-2.15 4.5-9.8 10.45-6 4.65-9.8 6.45l-3-4z"/><path fill="#27333a" d="m144.05 61.15-1.85-5.95 4.35-2.25q.5 4.5-.15 6.95z"/><path fill="#b6ccd9" d="M62.35 127.3q-3.1-1.85-4.85-5-1.65-2.95-1.75-6.3 2.8 4.15 5.85 5.9t6.7 1.2q-3.2 2.05-5.95 4.2m94.55-23.75q-.55 4.6-3.85 8.7-3.45 4.2-9.1 7.05-.2-4.3-2-7.1 2.3 1.3 7.25-1.45 5.1-2.8 7.7-7.2m-24.65 26.55q7.45-2.65 11.1-7.95-1 10.9-12.5 12.95-4.5.8-8.3-.4-3.85-1.25-4.55-3.8 6.55 1.95 14.25-.8m-43.4 1.05q4.35 5.8 14 5.7 8.6-.1 15.8-4.35-8.15 9.15-18.4 8.35-4.45-.35-7.55-2.85-3.15-2.6-3.85-6.85"/><path fill="#d087a7" d="M74.25 142.8q-11.95 3.4-19.85 3.1 20.55-3.55 30.75-13.85l3.4-.25q.85 2.4 2.4 4.2-5.65 3.6-16.7 6.8M50.7 188.55q8.1 1.9 15.5 1.6.75 5 3.05 9.7-8.15-.5-17.05-5.05-1.5-2.15-1.5-6.25"/><path fill="#27333a" d="M50.7 188.55q0 4.1 1.5 6.25-7.9-4.1-15.15-10.7 7.3 3 13.65 4.45"/><path fill="#dbdcdc" d="M175.85 167.9q2.9-5.75 5.85-9.4 3.2-3.95 5.85-4.5.45 5.05-1.6 13.5-2.35 1.15-5.05 1.25-2.65.05-5.05-.85"/><path fill="#d087a7" d="M175.85 167.9q2.4.9 5.05.85 2.7-.1 5.05-1.25-2.7 11.05-7.4 20.25-5.15 10-9.35 10.7-2.1-3.45.1-12.9 2.05-8.8 6.55-17.65M73.7 149.55q.7-5.25 1.3-6.85 10.05-2.9 15.95-6.7l.35.35q-6.25 8.75-17.6 13.2m59.45 46.35q10.65-3.65 19.85-10.2-7.1 10.7-20.7 15.05-9.35 3-20.1 2.65h-.05q-.65-.3-.05-1.7l1.3-2.7q8.75.65 19.75-3.1"/><path fill="#d087a7" d="M163.35 191.45q2.15 1.8 3.2 1.6 1.35-.25 2.05-3.65 2.4 4.4 1.05 7.2-1.2 2.45-2.8 1.6-3.95-3.75-10.5-5.95-6-2.05-6.95-1l1.75-2.55 1.8-2.75q2.9.1 5.95 2.05zm-66.4 37.5q7.3-6.8 15.2-17.3 0 5.65-.5 7.2-7.4 8.3-13.7 14.45.4-1.95-1-4.35"/><path fill="#dbdcdc" d="M96.75 229.15q1.1 1.75 1.25 3.6Q84.6 244.4 74.45 242q-1.1-.3-1.7-.95 10.2.95 24-11.9"/><path fill="#b6ccd9" d="M113.7 57q-6.7 3.3-15.5.55.6-1.25 1.9-2.8 15 3.75 22.4-10.35-1.7 9.1-8.8 12.6"/><path fill="#0d131a" d="M138.1 49.1q-.2-.25.8-.85.95-.6 1.15-.3 6.1 8.7 6.65 23.8.55 17.6-9.45 25.15-4.4 3.35-12.55 3.5-7.75.1-16.25-2.65-8.75-2.9-15.15-7.8Q86.35 84.5 84.15 78q-.1-.3.8-.75t1-.15q2 5.85 8.5 11 6.05 4.75 14.3 7.7 8.1 2.85 15.4 2.9 7.8.1 12.05-3.15 9.45-7.1 8.55-23.8-.75-14.2-6.65-22.65"/><path fill="#0d131a" d="M84.7 76.35q6.35-3.1 5.25-16.45v-.1q0-.35.7-.15l.75.55q.65 7.4-.8 11.65t-5.2 6.05q-2.15 1.05-7.6 1-5.55-.1-11.4-1.25-14.9-3.05-16.35-9.7-1.15-5.2 7.7-14.15 7.75-7.85 12.95-9.85.35-.15.5.7.15.9-.2 1-4.9 1.9-11.9 9.2-7.75 8.1-6.8 12.45 1.15 5.1 13.6 8.2 11.95 2.95 18.8.85M148.65 33q-.35 0-.35-1.1.05-1.1.4-1.05 3.45.25 8.55 2.65 5.85 2.8 5.65 5.4-.4 5.2-5.4 12.15-5.65 7.8-12.9 11-.35.15-.8-.75-.5-.9-.2-1 6.9-3.05 12.35-10.25 4.85-6.5 5.25-11.3.1-1.35-4.5-3.4-4.55-2.1-8.05-2.35"/><path fill="#0d131a" d="M57.65 55.9q-.35-.05-.25-.9t.45-.8q7.6.8 9.55 9.45 1.85 8.45-3.3 12.9-.25.25-.8-.4t-.3-.9q4.5-3.9 3-11.25-1.5-7.6-8.35-8.1m7-6.45q-.35.1.3-.85t1-.95q5.05-.05 8.7 3.55 3.3 3.25 4.8 8.6 1.4 5.1.65 10.05-.75 5.2-3.55 8l-1.15-.1q-1-.3-.7-.5 2.8-2.35 3.7-7.3.9-4.8-.4-9.7-1.35-5.25-4.55-8.15-3.65-3.3-8.8-2.65m78.65-4.85q-.25-.25.35-.95.55-.7.75-.4 1.95 2.4 2.75 8.6.7 5.5 0 7.8l-.9.1q-.8-.2-.75-.55.6-2.15.1-7.3-.6-5.8-2.3-7.3m4.6-9.7q-.35-.1.1-.7t.8-.55q3.85.95 5.6 6.4 1.75 5.35.85 13.2-.05.35-.9.25t-.8-.45q1.9-16.35-5.65-18.15"/><path fill="#0d131a" d="M83.85 51.1q2.25-.8 1.9.1-.4.9-2.65 1.7-4.35 1.55-7.95-.45-3.35-1.9-4.65-5.9-1.3-4.05.25-8.15 1.7-4.55 6.55-7.35 1.8-1.05 2.7-.9.85.15-.9 1.2-4.9 2.85-6.55 7.05-1.5 3.65-.15 7.25 1.3 3.45 4.4 5.05 3.3 1.75 7.05.4"/><path fill="#0d131a" d="M99.75 53.25q.85-1.75 1.35-1.05.45.7-.5 2.4-4.4 7.95-12 6.05-3.1-.8-4.8-3.05-1.8-2.4-1.05-5.25.1-.35.75-.25.7.05.6.4-.55 2.05 1.15 3.9 1.6 1.75 4.3 2.35 6.8 1.4 10.2-5.5"/><path fill="#0d131a" d="M118.5 34.05q-1.4-1.9-.6-1.85t2.2 1.95q3.3 4.65 3.1 10.2-.15 5.3-3.45 9.45-3.45 4.3-9 5.6-6.15 1.45-13.35-1.3-.35-.1 0-.9.3-.8.6-.7 6.65 2.5 12.25 1.05 5-1.35 8.1-5.5 2.9-3.95 3-8.85.15-5.15-2.85-9.15m-52.8-6q.35-.05.4.8.05.9-.3.95-5.75 1.45-7.7 10.6-.8 3.85-.25 7 .55 3.35 2.5 4.5.3.2-.45.75-.8.6-1.05.35-5.15-4.2-2.55-13.7 2.55-9.55 9.4-11.25"/><path fill="#0d131a" d="M105.3 7.85q6.3 4.7 6.7 14.1.2 4.35-1.4 8-1.65 3.6-4.75 5.9-6.75 5-13.45 1.65-6.55-3.25-6-10.35.2-2.85 1.7-4.95 1.4-2.05 3.5-2.6l2.2.1q.55.55-1.25 1.05-2.05.55-3.3 2.4-1.15 1.65-1.3 3.75-.45 6.15 5.4 8.9 5.9 2.85 11.5-1.3 2.8-2.05 4.2-5.35 1.45-3.25 1.25-7.15-.35-8.05-5.55-12.1-5.2-4.1-14-3.25-10.4 1-17.75 9.25-7.55 8.5-6.55 18.85.25 2.6-.55 1.8T64.95 33q-.45-10.4 7-18.95 7.6-8.65 18.5-9.7 9.05-.85 14.85 3.5"/><path fill="#0d131a" d="M101.55 6.8q2.8-3.55 8.2-3.75 5.65-.25 9.8 3.6.25.25-.35.9-.6.6-.85.35-3.2-2.95-8.35-3-5.05-.05-7.2 2.65l-.85-.1q-.6-.4-.4-.65"/><path fill="#0d131a" d="M126.95 0q7.25.25 13.2 5.9 5.45 5.25 8 13.35 2.6 8.15 1.05 15.65-1.65 8.2-7.75 12.85-4.5 3.4-10.25 3.75-5.75.4-10.4-2.4-.35-.2.1-.9.45-.75.75-.55 4.25 2.5 9.2 2.1 4.95-.35 9-3.45 5.9-4.5 7.55-12.15 1.5-6.95-.8-14.45-2.3-7.4-7.3-12.25-5.35-5.2-11.85-5.4-6.1-.2-8.2 5.9-2.15 6.25.95 13.45 3.15 7.35 8.55 7.4 2.3.05 3.9-1.85 1.4-1.65 1.7-4.15t-.7-4.4q-1.1-2.05-3.35-2.35-1.9-.2-1.5-.75.35-.55 2.25-.3 2.65.35 3.9 2.85 1.2 2.25.75 5.25-.4 3-2.2 5-2.05 2.25-5.05 2.2-6.55-.05-10.15-8.1-3.45-7.75-1.05-14.65 1.25-3.6 3.65-5.6Q123.5-.1 126.95 0M60.9 74.35q.3-.2.75.55t.15.95q-2.6 1.6-3.05 6.5-.5 4.95 1.75 7.8 1.1 1.45.25 1.35-.8-.05-1.9-1.5-2.6-3.4-1.9-8.55.75-5.1 3.95-7.1"/><path fill="#0d131a" d="M57.65 80.2q.35-.15.7.5.35.7.05.8-4.55 2.05-7.05 6.45-2.25 4-2.35 8.9-.1 4.75 1.9 8.45 2.15 3.95 5.8 5.3.35.1.05.9t-.6.7q-4.6-1.65-7.05-6.1-2.25-4.1-2.05-9.3.2-5.25 2.85-9.65 2.85-4.75 7.75-6.95"/><path fill="#0d131a" d="M59.6 106.2q1.8-1.05 2.5-.9t-1.05 1.25q-4.95 3.1-4.15 10.1.8 6.95 6.2 9.85.3.2-.1.9l-.7.6q-6.2-2.65-7.3-10.55-1.05-7.95 4.6-11.25"/><path fill="#0d131a" d="M73.85 118.85q.3-.15.45 1 .2 1.15-.15 1.3-7.4 3.35-14.55 9.6-6.45 5.7-8.85 10.1-1.05 1.95-.7 2.75.3.85 2.4 1.2 6.7 1.05 18.75-1.95 12.1-3.1 19.15-7.7.3-.2.8.55.45.7.15.9-7.95 5.2-19.1 8-11.4 2.85-19.9 1.6-3.2-.45-3.9-1.8-.7-1.4.85-4.35Q52 134.8 59 128.65q7.25-6.35 14.85-9.8"/><path fill="#0d131a" d="M76.55 113q1.3-1.4 2.15-1.5.9-.1-.4 1.3-2.75 3-3.05 6.7-.3 3.45 1.55 6.45t5.1 4.35q3.5 1.45 7.55.45 2.5-.65 1.95.15-.6.75-3.1 1.4-3.95 1-7.6-.55-3.45-1.45-5.55-4.6-2.1-3.2-1.85-6.85.25-4 3.25-7.3"/><path fill="#0d131a" d="M87.7 131.9q-.1-.35.7-.6l.95.1q1.15 3.65 4.5 5.95 3.25 2.2 7.55 2.55 9.9.75 16.3-7.5l.9.05q.75.3.55.6-7.05 9.05-17.9 8.5-4.8-.25-8.4-2.75-3.8-2.55-5.15-6.9"/><path fill="#0d131a" d="M128.2 111.05q1.8-2.3 5.15-2.65t6.25 1.5q7.35 4.65 3.75 16.4-2.7 8.7-13.45 9.7-4.4.4-8.15-.95-3.9-1.4-5.3-4.1-1-1.9-.9-2.7.05-.75 1.2 1.1 1.6 2.7 5.35 4 3.55 1.25 7.7.8 9.75-1.15 11.85-8.9 2.9-10.55-3.4-14.35-2.5-1.5-5.4-.95-3 .6-4.9 3.1-.9 1.2-.75.15t1-2.15"/><path fill="#0d131a" d="M147.85 90.55q-1.9-.45-1.55-.85.35-.45 2.25 0 5.7 1.4 8.15 5.35 2.25 3.65 1.3 8.55-.95 4.8-4.65 9.2-3.9 4.65-9.7 7.3-.35.15-.65-.45-.3-.65 0-.8 4.9-2.25 8.45-6.5 3.35-4.1 4.4-8.6 1.05-4.7-.85-8.15-2.05-3.8-7.15-5.05"/><path fill="#0d131a" d="M145.6 75.6q-.35-.05-.25-.9t.45-.8q7.7.85 10.2 6.55 2.2 5.2.3 14.95-.05.35-.7-.4t-.6-1.05q1.3-7.85-.9-12.6-2.4-5.1-8.5-5.75m19.2 21.2q5.45-.15 6.85 1.8 2.4 3.4-6.35 14.1-9.1 11.15-18.5 14.35l-.8-.5q-.45-.65-.1-.8 7.95-3.55 17-13.8 8.75-9.85 7.1-12.15-.75-1.1-4.35-1.15l-8.5.85q-.35.1-.5-.75t.2-.9q4.5-.9 7.95-1.05m-90.7 45.95 1-.2q.95 0 .8.3-.85 1.75-1.75 8.75-.85 6.8-.6 8.7.1.35-1 1.45-1.05 1.1-1.15.75-.3-2 .7-9.5 1.05-7.5 2-10.25"/><path fill="#0d131a" d="M73.5 159.15q2.05-2.95 3.1-3.6 1.1-.7-.9 2.25-11.95 17.45-7.95 34.35 3.85 16.1 19.8 23.6.95.45 1.1.8.2.5-.45 1.35l-7.45 9.55q-6.4 8.25-7.2 10.25-.65 1.5-.5 2.2.2.9 1.6 1.25 9.4 2.25 22-8.35 7.15-6 13.45-14.3.75-1 .75-8.15 0-7.35 1.9-10.4 1-1.65 1-.8l-.6 2.9q-.55 1.95-.55 9.55-.05 6.9-.9 8.15-5.1 7.6-14.15 14.95-13.45 11-23.55 8.55-2.15-.55-2.6-2.05-.5-1.55.65-4.3.75-1.9 7-9.75l7.85-9.85q-16.6-6.5-21-23-4.65-17.3 7.6-35.15"/><path fill="#0d131a" d="M82.4 223.9q6.25-1.35 11.15 1.25 4.75 2.45 5 6.6l-.75 1.1q-.75.7-.75.35 0-4.2-4.8-6.75-5.05-2.7-11-.85-.35.1.2-.75.6-.9.95-.95m69.45-37.25q1.5-2.1 1.3-.95-.2 1.2-1.65 3.35-6.5 9.3-19.65 13-9.2 2.65-19.7 2.2-.35 0-.35-.85.05-.85.4-.85 9.75.4 19.9-2.75 13.5-4.2 19.75-13.15m-9.45-63.4q-.2-.25.35-1.1.6-.8.8-.55 7.2 8.25 11.45 18.9 4.2 10.5 4.2 19.8 0 2.3-.65 2.85-.7.6-.8-1.65-.9-18.85-15.35-38.25"/><path fill="#0d131a" d="M173.1 158.65q.1.35-.6 1.55-.65 1.25-.75.9-1.35-7.75-6.25-14.1-5.7-7.45-12.85-7.2-.35.05-.4-.85 0-.85.35-.85 8.15-.3 13.8 6.3 4.75 5.55 6.7 14.25"/><path fill="#0d131a" d="M188.1 151.95q.85 3.7 0 10.3-.65 4.9-1.75 8.8-2.9 10.3-7.45 18.65-5.6 10.2-10.25 9.95-1.2-.05-2.8-1.1l-2.8-2.1q-6.5-4.7-14.75-3.9-.35.05.1-.95.5-1 .85-1.05 4.9-.5 9 1.2 2.2.95 5.8 3.55l2.4 1.65q1.15.65 2.05.7 3.25.2 7.95-7.9t7.85-19.35q1.65-5.95 2.25-10.7.55-4.7-.05-7.35-.5-2.1-1.65-2.4-1.05-.25-2.85 1-4.1 2.9-8.75 9.9-4.9 7.45-6.35 13.6-.55 2.45-.95 1-.35-1.5.35-3.8 1.95-6.4 6.45-13.05 4.35-6.35 8.35-9.1 2.45-1.7 4.2-1.3 2.05.5 2.8 3.75"/><path fill="#0d131a" d="M170.05 164.15q-.2-.3.4-.7l.75-.1q2 3.1 6.55 4.1t8.15-.85q.3-.15.3.7l-.25.9q-4.55 1.95-8.7 1.05-4.5-.95-7.2-5.1M85 162.05q-2.05-.4-1.3-.75l2.8.05q7.15 1.3 13.05 10.6 1.25 1.95 1.3 2.65.1.7-1.2-1.05-3.35-4.55-7.35-7.7-4.05-3.2-7.3-3.8m-66.9-4.35q-.55-3.55 3.15-4.75 3.6-1.25 4.85 1.2 4.05 8.15 17.25 14.1 13.95 6.35 24.1 3 .35-.1.55.9.2 1.05-.15 1.15-10.85 3.55-25.25-3.4-13.3-6.4-17.85-15.1-1.9-1.2-3.6-.2-1.65.95-1.35 2.85.65 4.45 5 11.15 4.55 7.05 11.2 13.45 16.75 16.15 33.75 17 .35 0 .5 1.3t-.2 1.3q-17.5-.9-35-18.05-6.95-6.8-11.7-14.25-4.55-7.05-5.25-11.65"/><path fill="#0d131a" d="m33.05 162.75.7.7q.4.75.05.8-2.55.1-4.55 2.7-1.95 2.6-1.8 5.5l-.85-.15q-.85-.5-.85-.8.2-3.25 2.45-5.85 2.2-2.6 4.85-2.9M39.3 176q-2.2 5.05-1.3 8.65.1.35-.75.2-.8-.1-.9-.45-.95-3.7 1.65-9.05 2.55-5.25 5.5-6.4.35-.1.7.5.4.65.05.75-2.8.85-4.95 5.8m17.05-3.25q.35-.15 1.05.4t.35.65q-4.25 1.2-5.8 9.65-1.5 8.35 1.65 11.8.25.25-.7.25l-1.15-.3q-3.25-3.55-1.5-11.9 1.8-8.25 6.1-10.55m-24.45-29.6q0-6.1-4.4-10.45-4.45-4.35-10.7-4.35T6.1 132.7q-4.4 4.35-4.4 10.45 0 6.15 4.4 10.5 4.45 4.3 10.7 4.3l2-.15.5 2.05-2.3.15q-6.9 0-11.95-5T0 143.15q0-6.7 5.15-11.65 5.05-4.85 11.65-4.85 6.95 0 11.95 5.1 4.95 5.1 4.95 11.95 0 3.95-1.8 7.45-1.75 3.35-4.85 5.6l-1.3-1.7q2.85-2.05 4.45-5.1 1.7-3.2 1.7-6.8M108 93.1q.15-1.7 1.5-.75 3.65 2.55 8.6 4.45 5.25 2 8.65 1.95-2.45.95-4.3.5-8.3-2.05-13.35-5.85.1 2.05.75 3.2-1.1.75-1.25.4-.65-2.3-.6-3.9m30.75-4.15q-.25-.75.1-1.75t.85-.85-.05 1.15zm-8.1.15q.45-.35 1.1.6.65.9.5 1.15-.5-.1-1.25-.7-.8-.7-.35-1.05m-33.6-16.2q-.85-2.3-.05-4.55.8-2.3 2.85-3.2 2.1-.9 4.2.25 2.05 1.1 2.85 3.55.75 2.35-.15 4.55t-2.95 2.95q-2 .75-3.95-.3t-2.8-3.25"/><path fill="#fff" d="M100.3 69q-.25-1.05.2-2 .45-1 1.35-1.25 1-.25 1.9.45.9.65 1.15 1.9.2 1.2-.35 2.15T103 71.3q-.9.1-1.7-.55-.75-.65-1-1.75"/><path fill="#0d131a" d="M136.4 63.75q-1.05-1.9-1.1-4.25-.1-2.4.95-3.7 1.2-1.5 2.85-.55 1.6.9 2.5 3.5.75 2.15.45 4.25-.3 2-1.35 2.8-.95.75-2.2.2-1.2-.6-2.1-2.25"/><path fill="#fff" d="M137.5 59.3q-.45-.75-.5-1.65-.05-.95.4-1.5.5-.65 1.25-.35.75.25 1.2 1.25.4.9.3 1.8-.05.85-.6 1.25l-1.05.1q-.6-.2-1-.9"/></svg>