<svg xmlns="http://www.w3.org/2000/svg" width="231" height="324" viewBox="-0.25 0.15 230.55 324.45"><path fill="#0d131a" d="M202.7 110.6q4.8-4.55 11.5-4.55t11.4 4.55q4.7 4.6 4.7 11.2 0 5.8-4.5 10.45-4.8 5-11.6 5-5.8 0-10.75-4-5.6-4.55-5.6-11.45 0-6.6 4.85-11.2"/><path fill="#e50012" d="M204.15 131.45q-4.1-4.05-4.1-9.8t4.1-9.85 9.85-4.1 9.8 4.1q4.1 4.1 4.1 9.85t-4.1 9.8q-4.05 4.1-9.8 4.1t-9.85-4.1"/><path fill="#c6000b" d="M225.25 113.5q2.65 3.65 2.65 8.15 0 5.75-4.1 9.8-4.05 4.1-9.8 4.1-4.95 0-8.85-3.15 4.65.8 8.5-1.75 3.45-2.3 5.5-6.65 1.95-4.15 1.85-8.4-.1-4.45-2.5-7.1 4.15 1.4 6.75 5"/><path fill="#ffe45f" d="M217.1 137.35q-.3 55.9-23.25 92.4-16.65 26.4-44.85 42-1.65.9-4.6-1.95l-4.05-4.45q-6.7-6.6-7.7-21.8-1-14.75 3.85-24.65 27.7-2.1 48.05-26.5 19.4-23.15 26.35-58.95.1-.4.9-1.25.95-.95 1.5-.9 1.2.15 2.45 1.85 1.35 1.9 1.35 4.2"/><path fill="#3e4e57" d="M213.7 131.35q1.15.1 2.2 1.9 1.15 1.9 1.15 4.3l-.2 13q-.25 5.4-1.25 11.8-1.1-1.85-2-2.7-1.1-1.1-2.65-1.5l-3.45-.9-3.35-.45 4-11.6q1.4-4.8 2.8-12 .05-.3 1.1-1.1 1.1-.8 1.65-.75m-30.1 61.8 8.1.95q5.15 1.2 7.15 3.5 1.45 1.75 3.25 5.3 1.95 3.8 2.55 6.4l-4.3 9.5q-2.5 5.3-4.75 8.6.75-6.7-.75-11.3-1.15-3.45-3.75-6.2-2.45-2.6-6.75-3.7-4.5-1.15-12.15-.9 8.25-7.9 11.4-12.15m18.3-10.7q-1.35-.65-4.5-1.15l-4.5-.35q3.75-6.5 6.1-11.65l3.9-.2 4 .35q4.45 1.2 7.25 6.4l-1.6 7.9q-.95 4.65-1.9 7.5-1.45-3.1-3.3-5-2.1-2.2-5.45-3.8"/><path fill="#dcc552" d="m209.4 188.65 1 1.45.25 1.4-2.85 8.95q-1.65 5-3.2 8.3l-1.9-5.5q3.9-6.1 6.7-14.6m-62.5 84.7q-1.75.9-3.8-.35l-3.2-2.8q-3.4-3.4-5.1-7.9 14.35-4.95 32.05-19.45 16.2-13.25 27.85-28.2.95 3.05 1.05 6.1.1 2.55-.4 7.3-8.1 15-24.1 28.7-12.45 10.65-24.35 16.6"/><path fill="#27333a" d="M202.7 203.1q.95 1.3 1.25 2.7l.7 3.5-4.55 9.4q-2.55 5.1-5.1 9.25 1.1-4.4.7-7.45-.3-2.25-1.7-5.2 5.15-6.6 8.7-12.2m6.65-14.3q1.65-3.15 2.85-6.85.45.55.7 1.4l-.85 4-1.2 3.65-.6-1.2z"/><path fill="#0d131a" d="M196.35 225.95q-.15.75-1.4 2.9-1.25 2.2-1.1 1.5 2.6-13.45-2.8-19.15-5.45-5.75-20.3-5-.4 0 .8-1 1.15-.95 1.55-1 13.7-1.45 19.8 5.55 5.2 6.05 3.45 16.2m-14.4-31.85q-.35 0 .45-.9.85-.95 1.2-.95 9.3-.5 14.8 3.6 5.9 4.4 6.85 13.75l-.55 1.45q-.6 1.1-.65.7-1.5-9.6-7-13.75-5.1-3.8-15.1-3.9m8.9-11.8q-.35.05.3-.8t1.05-.95q6.35-1.6 12.4 2 5.95 3.5 6.85 8.9l-.4 1.7-.55.95q-1.15-6.25-6.95-9.55-5.55-3.2-12.7-2.25m7.45-11.75q-.35.1.1-1.1.45-1.15.8-1.25 5.2-1.2 9.5.85 4.4 2.1 5.8 6.6l-.25 1.4q-.35 1-.45.65-1.3-4.6-6.15-6.55-4.4-1.75-9.35-.6m5.6-14.3q4.05-.75 7.5.9 3.65 1.65 4.5 5.05l-.1 1.75-.3 1q-1-3.95-5.15-5.75-3.5-1.5-6.95-.9-.35.1-.1-.95.25-1 .6-1.1"/><path fill="#0d131a" d="M213.65 130.55q1.75.15 2.85 1.85 1.3 1.85 1.35 5.15 1.1 54.65-23.6 93.35-18.15 28.4-44.3 41.5-2.25 1.15-5.85-1.25-2-1.35-5.1-4.45-7.3-7.25-9.25-22.75-1.95-15.45 3.05-25.7 31.3.15 53.85-30.7 17.4-23.9 23.4-54.55.25-1.1 1.2-1.8 1.05-.8 2.4-.65m-2 2.85q-7.05 36.1-26.3 59.95-20.55 25.35-48.05 27.4-4.95 10.05-4.25 23.75.65 14.3 7.3 20.85l4 4q2.85 2.4 4.55 1.45 28.15-15.6 44.4-41.45 22.6-35.95 22.9-91.85.05-2.35-.8-3.8-.8-1.35-1.95-1.45-.6-.05-1.2.4-.55.4-.6.75"/><path fill="#f19975" d="M213.7 118.1q-.95 1.95-2.9 2.7l-3.7-.1q-1.8-.85-2.4-2.85t.35-3.95 2.85-2.7l3.75.15q1.8.85 2.4 2.85t-.35 3.9"/><path fill="#ffe45f" d="M54.25 188.2q-6.8 12.5-21.1 23.65-13.15 10.2-17.1 8.65-2.2-.9-.7-8.05 1.5-7.35 5.85-16.05 11.4-23 27.3-27.7z"/><path fill="#dcc552" d="M48.75 169.8 54 190.85q-2.4 4.3-11.2 12.7-11.95 11.4-23.15 15.8 10.45-8.05 15.25-18.8 5.4-12.1 2.35-25.25 5.5-3.45 11.5-5.5"/><path fill="#0d131a" d="m50.15 167.25 5.95 23.8-.15.35q-2.25 6.25-18.8 18.95-17.05 13.05-21.35 10.4-2.2-1.35-.95-8.55 1.25-7.5 5.4-16.1 11-22.75 28.9-28.2zm-1.4 2.55q-15 5.1-26.15 26.7-4.15 8.05-6 15.2-1.75 6.8-.25 8 2.3 1.85 18.3-10.45 16-12.25 19.35-18.4zm44.75 83.35.05.1q.85 1.9-.25 4.2-.65 1.45-3.05 4.5-4.05 5.3-4.75 8.15-1.2 4.95 3 10.85 1.25 1.75.4 4.7t-3.6 6.4q-7.75 10-25.05 15.2-16.85 5.1-26 1-6.1-2.75-5.5-8.05.45-3.9 4.5-7.95 4.5-4.5 11.8-7.2 7.35-2.7 14.15-4.4 3.7-.95 3.6-3.9-.1-2.85-3.65-5.45-12.55-9.2-19.1-19.65-6.55-10.4-6.1-20.4.7-17 19.65-27.65.45-.2.85-.45z"/><path fill="#ffe45f" d="M83 291.15Q76.8 299 62.55 304.2q-14.9 5.4-25.25 2.7-3.05-.8-4.8-2.5t-1.6-3.75q.25-3.5 4-7 3.9-3.7 10.8-6.55 6.05-2.5 13.95-4.55 4.9-1.2 5.25-5.1T61 270.1q-24.4-19.95-24.4-37.05l.05-1.45q.35-8.1 4.8-14.95 4.45-6.8 12.45-11.55l37.65 49.15.15.75q0 1-.95 2.55l-2.2 3.1q-2.7 3.45-3.9 5.7-1.95 3.65-1.95 7.15 0 2.5 2.05 6 2 3.3 1.8 4.95-.3 2.5-3.55 6.7"/><path fill="#dcc552" d="m91.55 254.25.15.75q0 1-.95 2.55l-2.2 3.1q-2.7 3.45-3.9 5.7-1.95 3.65-1.95 7.15 0 2.5 2.05 6 2 3.3 1.8 4.95-.3 2.5-3.55 6.7-6.1 7.7-20.1 12.9-14.65 5.45-25 3 10.95-3.4 22.05-10.35 11.3-7 11.7-10.85 1.05-10.4-11.85-23.75-4.65-4.8-20.65-17.65-2.55-5.8-2.55-11.4l.05-1.45q.35-8.1 4.8-14.95 4.45-6.8 12.45-11.55z"/><path fill="#0d131a" d="M41.9 300.6q2.8 1.95 3.95 4.6.35.8.3 1.7-.05.95-.6 1.5-1.15 1.15-4.65 1.15-4-.05-7.4-1.9-2.75-1.5-3.85-3.85-1.15-2.35.05-4 .5-.75 1.9-1.25l2.9-.4q4.15.15 7.4 2.45"/><path fill="#e5e3da" d="m42.6 307.5-4.25-.1q-2.4-.6-4.5-1.8-1.25-.8-2-2-.75-1.3-.4-2.3.15-.45 1-.8l1.65-.3q3.7.1 6.65 2.1 2.65 1.75 3.05 3.6.2 1.2-1.2 1.6"/><path fill="#c1bfb8" d="M41.85 303.35q1.65 1.25 1.95 2.55.2 1.2-1.2 1.6t-3.5.05q-1.95-.35-3.85-1.25 4.3-.65 6.6-2.95"/><path fill="#0d131a" d="M64.15 45.65q7.6-2.9 12.15-.55 2.35 1.25 3.35 2.95 1.55 2.65.65 7.05-5.15 26.4-2.95 48.4 1.85 18.4 8.5 31.45 5.8 11.35 15.95 21 5.65 5.4 19.85 16.05 14.45 10.9 21.4 18 10.8 11 15.35 22.95 5.1 13.35 5.25 26 .1 13.85-5.9 23.5-5.1 8.2-14.85 12.95-8.6 4.15-20.25 5.45-32.25 3.6-52.35-11.35-20.2-15-28.65-49-4-16.1-1.3-37.45.95-7.3 6.05-29.35 4.9-21.25 5.7-29.2 2-20.3 1.45-29-.8-13.6-6.95-24.45-2-3.5-.4-8.45 1.55-4.6 5.65-8.9 5.15-5.35 12.3-8.05"/><path fill="#ffe45f" d="M75.35 46.9q3.7 1.9 2.4 8.5-4.9 24.9-3 46.6 1.8 20.25 9.1 34.4 6.1 11.75 16.6 21.7 5.75 5.45 20.2 16.3 14.7 11.1 20.65 17 10.25 10.2 14.65 21.7 4.6 12.15 3.8 24.45-.8 12.35-6.85 22-5.15 8.3-13.4 13.2t-18.6 5.85q-11.2 1-19.5.2-11.35-1.1-20.65-5.65-26.3-12.95-36.4-53.75-4-16-1.5-36.3.85-7.15 6.05-28.55 5.05-20.75 5.9-29.55 1.9-19.2 1.35-30.1-.8-16.05-6.45-25.95-2.1-3.65-.4-7.9 1.15-2.95 4-5.95 4.9-5.05 11.65-7.55t10.4-.65"/><path fill="#dcc552" d="m117.1 171.7 3.55 2.7q14.3 10.75 20.55 17.05 10.15 10.15 14.75 21.65 4.95 12.5 4.05 24.75-.9 11.8-7.1 21.7-5.15 8.3-13.4 13.2t-18.6 5.85q-.8.05 2.5-1.7 5.75-3.1 8.6-4.8 13.85-8.35 16.05-14.95 2.95-19.4 1.1-32.95-1.6-11.5-7.05-20.75-3.45-5.8-11.8-15.25-9.1-10.3-13.2-16.5"/><path fill="#ffe45f" d="M76.05 111.9q-10.2 2.75-20.2.5l.2-3.45.9-1.25q10 1.25 18.3-1.05zm-13.2-63.45q5.4-2.55 9.55-2.3-4.35.05-9.75 2.5Q60 49.9 57.7 51.4q2.4-1.7 5.15-2.95m11.75 51.2q-4.9 1.55-11.7 1.4 6.45-5.85 11.45-5.7zm-19.85 26 .55-5.75 11.55 1.15q5.05-.05 10.85-1.25l1.6 5.5q-7.05 1.9-14.15 1.75-5.7-.1-10.4-1.4"/><path fill="#dcc552" d="m56.15 107.55.8.15-.9 1.25zm6.5-58.9q5.4-2.45 9.75-2.5 1.85.15 2.95.75 3.7 1.9 2.4 8.5-4.1 20.85-3.4 39.95-5-.15-11.45 5.7l-6.6-.7q-.1-18.05-5.35-29l-1.25-2.4q-2.1-3.65-.4-7.9 1.15-2.95 4-5.95 3.8-3.9 9.35-6.45"/><path fill="#3e4e57" d="M56.95 107.7q2.4-3.4 5.95-6.65 6.7.15 11.7-1.45l.7 7.05q-8.35 2.3-18.35 1.05m5.95-6.65q-3.55 3.25-5.95 6.65l-.85-.15.15-7.2zm14.85 18.75q-5.8 1.2-10.9 1.25-5.4.05-11.6-1.15l.6-7.5q9.95 2.25 20.25-.5.65 4 1.65 7.9m-24.2 13.7 1.15-7.85q4.75 1.3 10.45 1.4 7.15.15 14.2-1.75 1.3 4.1 3.1 8.1-13.8 4.75-28.9.1"/><path fill="#0d131a" d="M40.7 191.65q.65-10.5 2.9-22.7 1.75-9.8 2.8-12.55l2.95-7.65q2.75-4.55 8.15-4.8 5.85-.25 14 10.25 5.9 7.6 14.2 22.75 10.95 19.85 18.3 31.6 13.4 21.4 22.95 30.4 11.3 10.45 26.55 21.4l.05 1.5-.45.6q-5.5 7.9-13.7 12.45-8.15 4.55-18.35 5.45-23.95 2.2-39.4-4.85-28.4-13-39.05-55.7-1.1-4.4-1.7-11.45-.75-8.6-.2-16.7"/><path fill="#fff" d="M48.2 158.25q1.45-5.35 3.05-7.85 2.3-3.6 6-3.85 5.05-.3 12.25 9.25 5.15 6.8 13.8 22.35 11.55 20.8 19 32.55 13.45 21.25 23.35 30.6 10.75 10.1 25.7 20.9-5.35 7.3-13.05 11.5-7.75 4.25-17.4 5.15-11.25 1-19.5.2-11.45-1.1-20.75-5.7-26.35-12.95-36.55-53.9-1.7-6.7-2.15-24.4-.15-5.55 2.45-19.3 2.1-11.25 3.8-17.5"/><path fill="#dbdcdc" d="M120.9 278.85q-11.25 1-19.5.2-11.45-1.1-20.75-5.7-18.8-9.25-29.4-32.85 9.85 14.4 23.7 20.95 12.15 5.7 25 4.55 11.75-1.1 19.9-7.4 8.2-6.3 8.6-14.7 10.1 9.05 22.9 18.3-5.35 7.3-13.05 11.5-7.75 4.25-17.4 5.15"/><path fill="#ffe45f" d="M127.45 205.35q5.75-4.15 18.65 6.25 5.2 4.25 9.25 9.15 4.1 5.05 5 8.4 4.6 17.6-.85 34.3-2.9 8.95-10.8 21.1-1.05 1.65.65 4.35l3.9 5.4q5.2 7.8-1.35 14.5-11.65 11.9-27.6 14.2-6 .9-11.45.2-4.7-.65-7.05-2.1-5-3.15-3.35-8.6 1.5-5.1 7.45-8.9l10.3-6.55q5.15-3.5 6.35-5.25 3.6-5.35.65-13-5-9.95-7.5-16.8-6.45-17.7-4.9-32.5 1.7-16.15 12.65-24.15"/><path fill="#dcc552" d="M146 211.5q5.5 4.4 9.65 9.15 4.45 5.05 5.3 8.35 4.4 17.75-1.3 34.75-3.3 9.8-11.1 20.95-1.1 1.55.65 4.15l3.95 5.2q5.3 7.7-1.25 14.75-8.2 8.75-20.95 12.45-10.75 3.05-21.05 1.8 5.1-1.85 17.15-5.45 10.6-3.95 15.75-10.35 6.9-8.55 3.1-13.85-2.2-2.45-2.9-3.65-1.25-2-.05-4.15 10.75-16.5 10.4-36.35-.3-14.15-7.35-37.75"/><path fill="#0d131a" d="M126.75 205.4q2-1.9 2.4-1.3.45.6-1.05 2.15-8.45 8.95-10.85 22.9-2.7 15.65 3.5 32.5 1.35 3.75 4.95 10.85 3.5 6.8 4 11.2.65 5.5-2.85 9.35-2.45 2.75-8.15 6.25-7.2 4.4-8.85 5.65-7.15 5.6-6.25 11.4.55 3.35 5.4 4.9 3.6 1.1 9.2 1.15 8.35 0 16.65-3.25 9.8-3.8 16.2-11.05 3.6-4.1 3.4-8.15-.25-3.95-4.1-8.15-3.2-3.5-2.6-6.6.3-1.6 2.9-5.55 6.75-10.1 9.15-21.45 3.05-14.4-.35-32.7-1.3-6.9-.15-7.15t2.5 6.2q3.1 14.75 1.35 28.45-2.05 15.75-10.25 26.45-3.15 4.15-3.3 6.45-.15 2.15 2.4 5.05 4.8 5.5 4.6 10.35-.15 3.8-3.55 7.9-6.2 7.4-16.45 11.55-9 3.65-18.15 3.75-6.2.1-10.75-1.6-5.65-2.1-6.35-6.35-.6-3.25 1.3-6.65 1.85-3.35 5.95-6.45 1.25-.9 8.55-5.5 5.55-3.45 8.3-6.25 2.85-2.8 2.05-7.65-.6-3.6-3.8-10.65l-2.6-5.3q-1.75-3.45-2.65-5.95-5.65-15.75-4-30.4 1.75-16.25 12.3-26.35"/><path fill="#0d131a" d="M102.45 314.25q.4-.9 1.5-1.6 1.1-.75 2.5-1 4.8-.8 8.8 1.55 3.65 2.1 4.65 5.45.45 1.35-.1 2.6-.5 1.15-1.65 1.8-2.2 1.3-5.5.85-3.25-.4-6.75-2.35-2.2-1.15-3.2-3.4-1-2.2-.25-3.9"/><path fill="#e5e3da" d="M106.75 320.15q-1.55-.9-2.25-2.3-.7-1.3-.35-2.4.55-1.55 2.65-2 3.6-.65 6.9 1.05 3.05 1.55 4.05 4.15 1.05 2.65-2.25 3.4l-3.85-.2q-2.95-.55-4.9-1.7"/><path fill="#c1bfb8" d="M115.5 322.05q-.95.2-2.8 0l-3.9-.95q5-.65 8.65-3.15l.3.7q1.05 2.65-2.25 3.4"/><path fill="#0d131a" d="M1.95 1.95Q2.35.4 2.8.15L5.6.3q13 2.55 20.9 10 7.5 7.1 8.4 16.6l.05.4L18.6 44.2l-.5-.15q-10.2-3-14.75-12.6-3.05-6.5-3.3-13.8-.3-6.95 1.9-15.7"/><path fill="#ffe45f" d="M5.35 30.2q-3.5-7.45-3.5-16.5 0-6.8 2.15-12 10.1 1.25 18.8 8.35 9.25 7.55 10.3 16.65l-15 15.5q-8.4-2.65-12.75-12"/><path fill="#dcc552" d="M1.9 15q2.8 7.4 7.7 14.05 4.65 6.35 10.85 11.45l-2.35 1.7q-8.4-2.65-12.75-12Q2.15 23.4 1.9 15"/><path fill="#3e4e57" d="M17.9 6.65Q6 10.1 2.4 20.35q-.55-3.45-.55-6.65 0-6.8 2.15-12 7 .9 13.9 4.95M31.95 22.1q-5.3 1.35-10 6.3-4.85 5-7.65 12.4-2.7-1.9-5.35-5.15-2.4-2.95-3.6-5.45l-.15-.3q3.35-6.5 9.05-11.1 6.05-4.95 12.05-5.45 3.9 3.75 5.65 8.75"/><path fill="#27333a" d="M2.35 20.35q-.4-2.35-.5-5.2L3.3 18.1zm2.8 9.55q1.05-2 2.7-4.25 3.15 4.6 8.3 10.15-1.95 3.3-2.45 4.65-3.2-2.25-5.15-4.75-1.65-2.1-3.25-5.5z"/><path fill="#0d131a" d="M50.05 15.95Q63.5 16.1 72.35 26q8.55 9.55 8.75 23.25.35 22.45-17.5 40.85-7.65 7.9-16.75 12.55-9.05 4.6-16.95 4.6-2.25 0-5.45-1.9-4-2.4-7.25-6.8-9.1-12.3-9.1-34.95 0-7.2 2.55-15.15 2.7-8.65 7.7-15.6 12.2-17.15 31.7-16.9"/><path fill="#ffe45f" d="M78 41.25q2.8 12.6-1.6 24.3Q68.9 85.4 51.5 97.3q-6.85 4.7-13.5 6.75-6.15 2-9.65.95-4.25-1.25-7.85-5.35T14.45 89.1q-4.7-12.2-3.9-26.7t6.65-23.95q6.6-10.7 15.55-16.15 13.75-8.45 29.55-1.45 12.4 5.5 15.7 20.4"/><path fill="#dcc552" d="M71.5 27.7q6.35 7.4 7.35 18.95.85 10.15-2.45 18.9Q71.7 78 62.65 87.75q-7.7 8.25-17.1 13.15 9.15-9.25 13.25-14.2 6.5-7.85 9.95-15.35 8.35-18 2.75-43.65"/><path fill="#0d131a" d="M63.7 64.9q0 2.4-1.6 4.15-1.6 1.7-3.9 1.7t-3.9-1.7q-1.65-1.75-1.65-4.15 0-2.45 1.65-4.15Q55.9 59 58.2 59t3.9 1.75q1.6 1.7 1.6 4.15"/><path fill="#fff" d="M60.45 62.45q0 1.05-.7 1.8T58.1 65t-1.65-.75-.7-1.8q0-1 .7-1.75t1.65-.75 1.65.75.7 1.75"/><path fill="#0d131a" d="M19.75 61.75q0 2.3-1.45 3.9-1.4 1.6-3.4 1.6t-3.45-1.6q-1.4-1.6-1.4-3.9 0-2.25 1.4-3.85 1.45-1.6 3.45-1.6t3.4 1.6q1.45 1.6 1.45 3.85"/><path fill="#fff" d="M17.1 59.7q0 1-.65 1.75-.65.7-1.55.7t-1.55-.7q-.65-.75-.65-1.75t.65-1.75q.65-.7 1.55-.7t1.55.7q.65.75.65 1.75"/><path fill="#ffe45f" d="M83 13.45q6.75-2.9 14.05-3.8 7.2-.85 12.1.55-.4 15-7.85 26.75-9.2 14.65-25 14.2-4.7-.1-7.9-4.75-3.65-5.15-3-13.1Q66.45 20.6 83 13.45"/><path fill="#dcc552" d="M83.6 42.65q18.5-13.25 25.25-28.25-1.6 14.45-8.9 24.6Q90.9 51.55 76.3 51.15q-3.9-.1-1.6-2.15 1.55-1.35 8.9-6.35"/><path fill="#3e4e57" d="M83 33.6q6.6 8.45 13.4 9.55-6.25 6.3-14.7 7.65-5.9-3.45-9.9-9.5-3.9-5.9-5.2-13.1 2.65-6.7 10.3-11.5-.7 8.1 6.1 16.9m6.3-22.35q5.5-1.55 10.8-1.85 5.3-.25 9.05.8-.15 5.65-1.6 11.65-1.65 6.6-4.5 12.1-6.05-4.2-9.7-9.85-4-6.25-4.05-12.85"/><path fill="#27333a" d="m84.9 41.8 3.5-2.65q4.2 3.4 8 4-6.25 6.3-14.7 7.65-2.55-1.45-4.85-3.6 3.75-2.1 8.05-5.4m23.75-25.95q-1.35 9.9-5.6 18.1l-4.65-3.8 3.85-5.35z"/><path fill="#0d131a" d="M109.75 10.05q.25.35.15 1.95-.45 8.6-3.6 17-3.75 10.05-10.1 16.05-3.8 3.6-10.45 5.45-5.7 1.55-9.5 1-1.8-.3-1.95-.8-.2-.5 2-.4 2.7.15 8.4-1.65 6.85-2.15 10.3-5.4 6.05-5.7 9.65-15.3 3.2-8.45 3.55-17.05-6.2-1.5-15.4.4-9.65 2.05-16.85 6.85-4 2.65-6.75 7.3-2.55 4.2-2.95 7.9-.15 1.55-.7 1.25t-.45-1.65q.3-4.25 2.55-8.35 2.55-4.65 7.05-7.8 7.25-5.1 17.1-7.1 9-1.85 15.85-.4 1.8.35 2.1.75m-49.5 70.3q-.2-1.55.5-1.75.7-.25 1.1 1.5.45 2.2-.1 6.2-.65 4.6-2.25 6.25l-1.5-.1q1.5-1.5 2.1-5.5.55-3.5.15-6.6m-14.9-56.7q4.2 4.25 4.2 10.2 0 6.1-5.1 10.1-4.4 3.45-9.3 3.45-6.1 0-10.45-4.25-4.2-4.05-4.2-9.3 0-5.95 4.35-10.2 4.35-4.2 10.3-4.2t10.2 4.2"/><path fill="#e50012" d="M43.75 42.25q-3.65 3.65-8.8 3.65t-8.8-3.65q-3.65-3.7-3.65-8.85t3.65-8.8 8.8-3.65 8.8 3.65 3.65 8.8q0 5.2-3.65 8.85"/><path fill="#c6000b" d="M45.05 26.1q2.35 3.25 2.35 7.3 0 5.2-3.65 8.85t-8.8 3.65q-4.4 0-7.9-2.85 8.3 1.45 12.5-7.5Q41.3 31.8 41.2 28q-.1-4-2.2-6.4 3.7 1.3 6.05 4.5"/><path fill="#0d131a" d="M76.05 105.7q.3-.1.4.5.05.65-.25.75-4.65 1.7-10.3 1.95-5.55.25-11.25-.95-.3-.05-.2-.65.05-.55.35-.5l11.25.65q5.5-.3 10-1.75m-.5-6.7q.05.65-.2.75-3.75 1.85-9.95 2.1-6.1.3-10.45-1.15-.3-.1-.15-.65.1-.55.4-.5 4.15 1.1 10.3.75 6.1-.35 9.7-1.85.25-.1.35.55M53.5 119.95q-.3-.05-.2-.6t.4-.5q7.05 1.65 12.8 1.65 5.65.05 12.15-1.55.3-.05.6.45.25.5-.05.55-6.65 1.8-12.55 1.85-6.35.05-13.15-1.85m23-8.85q.3-.05.5.55t-.1.65q-5.55 1.8-11.55 1.95-6.1.15-10.85-1.45-.3-.1-.35-.7t.25-.55q4.65 1.25 10.65 1.1 5.85-.15 11.45-1.55m-8.65 25.2q-8.35.05-15.8-2.5-.3-.1-.15-.7.15-.55.4-.45 6.95 2.2 15.4 2.15 8.4-.05 15.1-2.3.9-.3 1.2.25t-.65.9q-7.05 2.65-15.5 2.65m-2.15-8.55q-7.25-.15-12.7-2-.4-.15-.2-.7.25-.6.55-.5 5.05 1.65 11.9 1.8 8.2.15 15.35-2.15.3-.1.55.45.25.6 0 .7-7 2.5-15.45 2.4M81.8 49.8q.3.15-.05.75l-.65.5q-5.95-2.6-10.05-8.7-4.15-6.1-5-13.45-.05-.35.55-.7.55-.35.6 0 1.15 6.8 5.45 13.1 4.25 6.35 9.15 8.5m.95-17.9q5.7 8.1 13.55 10.55.35.1.1.75l-.55.55q-8.55-2.7-14.4-10.65-6-8.2-5.3-17.1.05-.3.7-.4.7-.15.7.2-.5 8 5.2 16.1m6.05-21q0-.35.7-.3.65 0 .65.35-.1 6.25 3.55 12.25t10.25 10.35q.3.2-.15.75t-.75.35q-7.25-4.75-10.7-10.4-3.7-5.95-3.55-13.35M20.05 5.95q.35-.05.5.5.15.5-.2.55Q13.7 8.1 8.9 12.2q-4.75 4.15-6.65 10.35l-.75.1q-.6-.2-.55-.55Q3 15.3 7.75 11.2q4.95-4.35 12.3-5.25m7.4 6.85q.35 0 .4.55.05.5-.3.55-6.5.45-12.75 5.45t-9.15 12.1q-.15.3-.65 0-.45-.3-.35-.65 2.85-7.85 9.15-12.75Q20 13.2 27.45 12.8"/><path fill="#f19975" d="M33.7 29.75q-.45 1.75-1.9 2.65-1.45.95-3.05.55-1.6-.35-2.45-1.85-.85-1.55-.4-3.25.4-1.75 1.85-2.7t3.05-.55 2.45 1.9q.85 1.55.45 3.25"/><path fill="#ffe45f" d="M89.45 172.8q3.7-6.2 9.9-3.7 5.75 2.3 6.85 7.8 4.05 20.65-3.1 43.7-2.75 8.75-6.2 14.75-3.3 5.65-5.25 5.65-3.45 0-6.2-7.35-2.75-7.15-3.6-17.9-2.1-26.45 7.6-42.95"/><path fill="#dcc552" d="M105.55 176.9q2.4 7.85 2.2 17-.15 6.95-1.85 15.75-4 16.6-8.85 25.15-3.95 6.85-6.8 6.3-.45-.1 2.1-5.3 3.85-7.85 6.15-13.85 9.2-23.8 7.05-45.05"/><path fill="#0d131a" d="M81.7 190.45q2.05-11.9 7.15-17.6 1.7-1.85 2.15-1.3.4.5-.6 1.85-9.55 13.25-7.5 40.7.8 10.8 3.25 18.45 2.45 7.7 5.15 7.7 1.85 0 4.95-6.1 3.2-6.3 5.85-15.35 6.75-23.5 3.3-41.1-.65-3.25.15-3.2.75.05 1.35 2.8 4.25 19.05-2.8 42.7-2.8 9.55-6.5 15.75-3.65 6.25-6.45 6.25-3.6 0-6.55-8.55-2.8-8.15-3.7-19.95-.95-12.55.8-23.05"/></svg>