<svg xmlns="http://www.w3.org/2000/svg" width="169" height="165" viewBox="0 -1 168.5 165.4"><path fill="#00aeeb" d="M86.2 35.7q20.15-8.05 40.35 3.15 14.05 7.75 22.8 20.45 15 21.75 8.95 43.2-5.95 21.15-29.1 31.05Q114.1 140 99.7 139q-13.7-.9-24.45-8.3-10.65-7.35-16.15-19.55-5.7-12.7-4.6-28.2 1.15-16.7 9.25-29Q72.1 41.35 86.2 35.7"/><path fill="#fff" d="M86.1 76.85q8.5-5.75 18.1-8.1 8.6-2.1 17.9-1.2 9.35.95 17.15 4.7 17.95 8.7 18.7 26.45.3 7.2-6.4 18.45-4.2 7.2-14.5 13-10.05 5.7-21.8 7.75-13.4 2.35-27.1-1.1-15.1-3.85-19.6-12.65-4.25-8.25-3.05-17.45 1.15-8.45 6.8-16.45 5.4-7.75 13.8-13.4"/><path fill="#00aeeb" d="M76 41.5q-1.4.7-4.65 3.7-2.75 2.6-4.45 4.55.45-6.6-2.7-12.4Q60.45 30.4 53.7 30q-5.2-.3-10.5 3.45-5.75 4.05-7.9 10.5-3.15 9.7 2.25 17.4 6.15 8.75 19.8 6l-.4 1.35-.3 1Q44.9 73 37.3 66.7q-6.8-5.6-7.65-15.95-.85-10.65 5.85-19.5 6.65-8.85 16.15-9.85 8.2-.85 14.45 3.15Q74 29.65 76 41.5m65.95-34.65q4.55 3.7 7.2 9.35 2.6 5.65 2.5 11.6-.2 13.85-13.05 19.2l-2.85-2.05q5.45-1.9 8.8-6.2 3.15-4 3.65-9.15.55-5.1-1.75-9.75-2.4-4.95-7.4-8.05-6.7-4.15-13.25-2.95-6.45 1.2-10.25 7.05-2.45 3.8-1.9 9.35.65 6.05 4.65 9.95l-5.9-1.35-5.75-.95q-3.2-7.1-1.85-14.35 1.1-5.95 4.65-9.9 6.7-7.4 15.95-7.7 8.85-.3 16.55 5.9M99.4 138.6l5.9.35 6.6-.5q-.7 1.3 1 5.9 2.05 5.55 2.15 8 .15 5.35-3.15 8.65-2.8 2.75-5.35 2.35-5.3-.75-7.45-5.9-1.8-4.3-.75-8.4l.85-5.55q.45-4.1.2-4.9"/><path fill="#e9545d" d="M54.45 30.25q6.2.55 9.65 6.55 3.2 5.5 2.9 13.3-3.75 3.85-6.15 8.25-2.3 4.3-3 8.5-4.85 1.6-9.75.85-4.95-.8-8.45-3.7-8.25-6.95-3.95-20.25 1.65-5.2 6.7-9.35 5.8-4.75 12.05-4.15m72.35 8.6q-5.7-3.15-8.8-3.65-3.25-4-4-8.85-.85-5.3 1.7-9.7 3-5.15 8.1-6.8 4.05-1.3 8.5-.2 5.65 1.4 10 5.5 4.45 4.1 5.9 9.4.75 2.85.05 6.45-.9 4.45-3.95 8.35-2.15 2.75-4.85 4.2l-3.65 1.35q-3.6-3.05-9-6.05"/><path fill="#00aeeb" d="M38.25 74.7q6.4 6.4 6.4 15.4 0 9.05-6.4 15.4-6.35 6.4-15.4 6.4-9 0-15.4-6.4-6.4-6.35-6.4-15.4 0-9 6.4-15.4t15.4-6.4q9.05 0 15.4 6.4"/><path fill="#922f00" d="M103.9 57.65q-2.25-1-5.1-.05-2.65.85-4.25 2.75-1.35-1.65-1.85-3.7 2.1-1.7 4.85-2.5 3-.9 6.05-.55.55 1.85.3 4.05"/><path fill="#ed8599" d="M94.55 60.35q1.6-1.9 4.25-2.75 2.85-.95 5.1.05-.25 1.85-1.1 3.15-.85 1.4-2.05 1.75l-3.35-.1q-1.6-.6-2.85-2.1"/><path fill="#9ed8f5" d="M21.25 81.85Q19.2 84 16.4 84.45q-2.6.4-4.4-.85t-1.9-3.95q-.1-2.85 1.75-5 2.1-2.35 5.15-2.75 2.7-.35 4.35.85 2.15 1.55 2.1 4.2 0 2.6-2.2 4.9"/><path fill="#0098cd" d="M99.15 144.1q.8-4.6-.55-7.3l6.25.2 6.25-.35q-.3 2 1.35 6.8 1.8 5.25 1.85 6.65-1.25-2.3-2.3-3.35-2.35-2.3-5.85-2.25-6.1.1-8.4 5.95zM65.75 38.3q2.1 1.65 5.1.3 2.9-1.35 2.95-3.75 1.8 3.75 1.4 7.35-1.6.85-4.15 3.4-2.4 2.35-3.6 4.15.25-2.45-.3-6t-1.4-5.45M105.1 26q1.15 1.9 4.2 2.25t4.55-1.2q.3 1.7 1.7 4.4 1.25 2.4 2.25 3.7-2-1-5.9-1.75l-4.85-.5q-.85-1.05-1.5-3.45-.55-2.25-.45-3.45M8.35 105.3q11.2 3.2 22.2-1.8 11.75-5.35 13.1-16.3 1.25 6.8-1.6 12.65-2.45 5.05-7.15 8.05-7 4.5-15 3.4-7.4-1-11.55-6"/><path fill="#dbdcdc" d="M158.3 99.8q-2.6 13.3-12.35 22.7-9.7 9.35-26 14.25-12.7 3.8-26.55 1.15-13.9-2.65-21.65-10.4 8.35 3.3 20.6 3.3 12.35 0 24.9-3.35 29.7-7.9 41.05-27.65"/><path fill="#c94850" d="M41.45 40.8q-5.3 5.6-6.25 12.85-1-3.35-.2-7.6.65-3.5 2-5.65 2.15-3.45 5.05-5.85Q46.8 30.6 52.6 30.5q7.3-.15 11.35 6.4 3.5 5.65 2.85 12.35-.2 2.15-.7 1.55-.35-.4-.55-1.55Q63 35.05 52.6 35.2q-5.9.1-11.15 5.6m89-27.5q-7.5-.6-11.45 5.7-1.45 2.35-1.8 6.8-.4 4.8.9 8.85-3.2-3.15-4.15-8-1.3-6.4 2.75-12.05 1.9-2.65 4.9-4.15 4.95-2.5 11.45-.8 7.45 1.95 11.7 7.6 4.9 6.5 2.85 15-.5-8.7-5.7-13.85-4.65-4.65-11.45-5.1"/><path fill="#0d131a" d="M45.7 22.15q11.95-5 21.25 1.8Q75.4 30.1 76.45 41q.1.8-1 1.35t-1-.65q.3-3.55-1.6-7.55-2-4.15-5.55-7.2Q58.5 19.5 47 23.8q-8.05 3-12.45 10.55-4.15 7.05-3.8 15.6.5 11.65 8.85 17.2 7.75 5.1 16.8 2.1l-.35.9-.3.65q-9.7 3.05-17.75-2.65-8.5-6-8.95-18-.35-8.8 3.45-15.95 4.35-8.35 13.2-12.05M142.1 8.4q-5-4.7-11.1-6.1-6.75-1.55-13.45 1.4-8.8 3.85-11.35 13.5-2.25 8.5 1.2 15.1.45.85-.45.8t-1.1-.5q-4.15-10.3-.25-19.4Q109 5.1 116.4 2q7.2-3 14.35-1.55 6.6 1.35 11.95 6.15 5.15 4.6 7.75 11.15 2.65 6.75 1.75 13.6-.95 7.35-6.15 12.1-3.7 3.4-7.2 4.05-.5.1-.85-.3-.3-.4.05-.65l2.15-1.05q2.15-1.15 3.85-2.55 5.45-4.45 6.65-11.85.95-5.85-1.45-12.1-2.35-6.1-7.15-10.6"/><path fill="#0d131a" d="M53.9 29.1q7.05.2 11.2 6.95 3.85 6.15 2.55 12.3-.2 1.1-1.05 2.1-.9 1.05-.75-.15 1-7.3-2.5-12.7-3.55-5.4-9.8-6.1-6.4-.75-12.1 4.9-5.9 5.8-6.15 14-.3 8.7 5.5 13.45 6.2 4.95 16.6 2.9l-.1 1q-11.1 2.75-17.9-3.1-6.2-5.25-5.95-14.35.25-8.7 6.3-15.05 6.1-6.35 14.15-6.15m81.45 15.35q7.1-1.55 10.6-9 3.6-7.65-.05-14.75-3.85-7.45-11.9-10.05-7.8-2.45-13.4 1.35-5.85 4-6 11.65-.2 6.95 3.7 10.45 1.6 1.4.4 1.5-1.25.1-2.1-1.05-4.4-5.9-3.55-12.9.85-7.15 6.7-11.1 6.5-4.4 14.85-1.55 8.25 2.85 12.55 10.75 4.1 7.55.25 15.9-3.7 8-10.9 9.45-1.55-.5-1.15-.65m-51.6 10.1q-1.2 1.9-3.1 2.65-2 .75-3.85-.25-1.8-1.05-2.3-3.1-.45-2.05.6-4 1.1-2 3.2-2.8l4.05.15q1.85 1 2.2 3.35.3 2.2-.8 4m30.55-14.7q1.4 1.35 1.7 3.3.3 2.05-.95 3.3-1.6 1.7-3.95 1.65-2.3-.05-4.1-1.7-1.75-1.65-1.65-3.95t1.9-3.5q1.65-1.15 3.8-.75 1.9.4 3.25 1.65m-7.8 13.2q-.6.5-1.65.65l-4.9.5q-1.95.15-5.5 2.15-2.45 1.35-3.4 1.45l-1.85-.25-.6-.55q0-.3.6-.25l1.75-.05q.75-.25 2.9-1.5 2.9-1.8 5.75-2.25l2.7-.15 2.35-.1 1.5-.4.8-.05q.15.3-.45.8"/><path fill="#0d131a" d="M103.15 53.95q-.05-.75.5-.8t.6.65q.6 8.2-3.35 9.4-2.35.7-4.95-1.05-2.6-1.7-3.9-4.9-.15-.35.4-.6l.65.1q1.15 3 3.55 4.4 2.1 1.25 3.8.7 3.4-1.2 2.7-7.9m-5.8-3.7q.15.6-.9.95l-.85.05-.45-.3q-.15-.6.95-.95l.8-.05zm13.3 87.95q.4-.85 1.45-.75t.35 1.15q-.65 1 1.7 6.75 2.55 6.3 1.45 10.45-2.2 8.45-8.8 8.55-6.6.05-8.75-8.45-1.15-4.7.05-9.85 1.05-4.55.15-6.5-.4-.85.25-1.3t1.15.4q1.2 2.05.15 7.85-1.15 6.25-.05 9.3 2.35 6.4 7 6.5 4.7.1 6.85-6.25 1.45-4.3-1.05-10.6-2.45-6.1-1.9-7.25m-62.05 2.45 13.25-7.05q1.65-.85 2.45.4l7.5 11.55.6.65 1.05-.1 14-8.8 5.85 1.45-19.8 11.9q-.95.55-1.8.3-.9-.2-1.5-1.15L63 138.6q-.5-.8-1-.9-.4-.05-1.15.4l-14.25 8.15q-.85.5-1.4.25-.6-.25-.7-1.2L43 133.25q-.15-1.05-.85-1.1l-9.05-.25q-1.2-.05-1.1-1.55l.95-9.6q0-.5-.55-.5l-5.2.6q-1 .15-1.05-.95l.05-8.7 3.05-.4-.4 6.5q0 .4.5.35l5.5-.25q1.2-.05 1.1.95l-.55 9.05q-.05.75.05 1 .15.35.75.4l8.65.25q.7.05.95.7l.25 1.6.95 8.25q.25 1.9 1.6 1.05"/><path fill="#fff" d="M81.45 51.3q-.65.65-1.55.65t-1.55-.65-.65-1.55.65-1.55 1.55-.65 1.55.65.65 1.55-.65 1.55m30.1-10q0 .9-.65 1.55t-1.55.65q-.95 0-1.55-.65-.65-.65-.65-1.55t.65-1.55q.6-.65 1.55-.65.9 0 1.55.65t.65 1.55"/><path fill="#0d131a" d="M112.05 34.45q-9.45-1.85-17.45-.3-21.2 4.15-31.85 23.2-10.75 19.3-5.6 44.9 3.6 17.7 18.5 27.75 14.85 10 33.75 7.65 22.7-2.8 36.4-16.05 13.65-13.25 12.95-31.65-.5-13.75-8.6-27.25-8.2-13.6-20.85-21.6-7.65-4.8-17.25-6.65m-18.2-1.75q9-1.8 18.25.05 9.2 1.85 17.9 7.1 13.5 8.2 22.05 22.6 8.25 13.95 8.8 28.35.65 18.05-12.65 31.55-14.15 14.35-38.65 17.35-19.85 2.45-35.35-8.05-15.55-10.5-19.1-28.9Q49.7 75.1 62.2 55q11.4-18.3 31.65-22.3"/><path fill="#0d131a" d="M139.85 121.7q-.75-4 .3-9.2 1.1-5.4 3.75-10.15 3.75-6.7 8.3-6.05 4.6.7 4.25 8.3-.25 5.65-2.05 11.6-2.15 7.05-5.3 9.6-3.05 2.45-5.8 1.15-2.7-1.25-3.45-5.25"/><path fill="#00aeeb" d="M164.5 72.1q-2.25 1.9-5.75 1.55-2.25-.2-6.6-1.75-4.35-1.6-5.65-1.7-1-.1-2.5.65l-1.8.9q-.65.2-2.5-1.65-2-1.95-2.35-3.6-.45-2 .6-4.2.85-1.95 2.05-2.65 4.6-2.75 10.75-3.3 5.9-.6 9.65 1.15 2.45 1.2 4.45 3.55 2.6 3.05 2.2 6.15-.35 3.15-2.55 4.9M84.95 87.6q3.45 2.6 3.3 6.85-.15 3.8-2.7 5.95-2.75 2.3-6.75 2.1t-7.95-2.85q-3.3-2.2-5.15-7.05-1.9-4.8-1.15-9.1.25-1.2 1.4-2.8 1.2-1.8 2.55-2.7 1.65-1.1 3.8-1.35 2.25-.25 2.75.9.2.55.2 2.45.2 2.05 1.7 3.75 1.05 1.2 3.6 1.9 2.9.85 4.4 1.95"/><path fill="#0d131a" d="M37.55 75.25q-6.1-6.1-14.75-6.1-8.6 0-14.75 6.1Q1.95 81.4 1.95 90q0 8.65 6.1 14.75 6.15 6.1 14.75 6.1l2.55-.2q7.75-1 13-6.85 5.3-5.9 5.3-13.8 0-8.6-6.1-14.75m-15-7.65q9.85 0 16.3 6.25 6.5 6.3 6.5 16 0 7.7-5 14.1-5.65 7.2-14.95 8.35l-2.85.15q-9.75 0-16.15-6.45Q0 99.6 0 89.85q0-8.8 6.2-15.35 6.6-6.9 16.35-6.9"/><path fill="#00aeeb" d="M141.35 114.85q.4-3.6 1.65-7.05 1.45-3.95 3.7-6.7 2.6-3.2 5.05-2.8 2.25.4 3 3.35-.65-1.65-2.2-2.1-2.4-.65-5.95 4-3.5 4.5-5 9.95z"/><path fill="#0098cd" d="M155 105.1q-.8 6.7-1.55 9.6-1.35 5.05-4.4 9.1-2.05 2.7-4.55 1.95-2.6-.75-3.2-4.8-.35-2.4-.05-5.55l.35-1.9q1.5-5.45 5-9.95 3.55-4.65 5.95-4 1.55.45 2.2 2.1.5 1.6.25 3.45M65.4 90.05q-.7-2.8-.6-4.5 2.35 9.1 11.4 12.75 3.55 1.45 6.55.8 2.45-.55 3.95-2.25-.85 3.65-5 4.6-3.3.7-6.45-.4-4-1.4-6.65-4.6-2.4-2.85-3.2-6.4"/><path fill="#0d131a" d="M81.8 85.35q4.6 1.35 6.45 5.65 1.95 4.5-1 8.45-2.6 3.55-7.15 3.7-3.6.1-7.3-1.75-4.75-2.35-7.2-7.2-2.3-4.6-1.65-9.6.15-1.25.7-1.2.5.1.4 1.5-.3 4.4 2.1 8.7 2.4 4.35 6.25 6.2 4.55 2.2 8.3 1.15 3-.8 4.4-3.15 2.15-3.55.15-7.15-1.8-3.2-5.1-4.05-3-.75-4.55-2.1-1.95-1.75-2-4.75 0-1.35.5-1.4.5-.1.6 1.2.3 4.1 6.1 5.8"/><path fill="#0098cd" d="M162.2 70.7q3.15-1.2 3.85-4.05.7 2.1-.45 4.2-1.25 2.25-3.9 2.65t-8.65-1.35l-6.5-1.8q-1.75.1-3.75 1.25-1.4.75-1.4-.15t1.55-1.8q3.6-2.2 10.25-.25 7.1 2.05 9 1.3"/><path fill="#0d131a" d="M166 71.7q-1.8 2.45-5.1 2.7-3.7.25-10.1-2.2l-3.45-1.15q-1.95-.35-3.65.45t-1.9.3q-.25-.5 1.7-1.4 2-.9 3.8-.65.9.1 3.75 1.1 5.85 2 7.85 2.15 3.9.35 5.9-2.55 2.05-2.9.55-6.45-1.3-3.05-4.3-4.8-4.35-2.6-10.7-1.9-5.45.55-10.95 3.25l-1.35.25q-.25-.35 1.25-1.4 2.95-2.1 8.45-3.2 7.75-1.55 13.55 1.4 4.85 2.5 6.05 6.7 1.15 3.95-1.35 7.4m-62.35-14.55q.55.2.45.65t-.55.3l-4-.2q-2.75.7-4.45 2.55-.4.45-.65.2-.25-.3.2-.85 2-2.4 4.65-3.1 1.85-.45 4.35.45"/></svg>