<svg xmlns="http://www.w3.org/2000/svg" width="276" height="295" viewBox="0 -0.85 275.6 294.6"><path fill="#0d131a" d="M89.85 212.8q12.9 0 17.05 9.2 2.15 4.8 2.15 11.15 0 5.35-.6 9.55-.65 4.45-1.7 5.65-2.75 3.1-5.9 4.55-3.4 1.5-8.8 1.8-3.85 4.3-3.85 8.75 0 2.1 1.95 5.95 1.9 3.85 1.9 5.15l-.45 3.1q-.55 1.8-1.5 2.95-4.6 5.45-16.9 8.15-12.05 2.6-19.3.1-2.7-.95-4.3-2.8-1.65-1.95-1.5-4.4.25-5.15 7.1-9.65 7-4.55 19.75-7.6-.8-5.1.25-8.35 1.1-3.55 4.75-6.65-9.85-8.45-5.8-21.7 2.05-6.95 6.6-11.05 4.25-3.85 9.1-3.85"/><path fill="#bf794e" d="M104.2 246.75q-2.6 3-4.75 4.3-3.05 1.8-7.85 2.45l-.55.3q-3.85 4.2-4.3 8.35-.5 4.15 2.25 9.65 1.8 3.55-.9 6.75-4.15 4.95-15.15 7.3-10.6 2.25-17.5.2-4.3-1.3-4.65-4-.3-2.65 3.55-6 6.15-5.25 21.25-10.4 1.8-.6 1.45-1l-.8-.6q-.6-3.3.65-6.9 1.35-4 4.55-6.75 1.6-1.25 1.25-1.85l-1-.15-.75.2q-4.45-3.8-5.35-9.95-.8-5.45 1.3-11.35 2-5.65 5.7-9.35 3.9-3.9 7.95-3.9 5.55 0 9.1 2.2 3.5 2.1 5.5 6.55 2.75 5.95 1.8 14.5-.8 7.2-2.75 9.45"/><path fill="#965e3a" d="M85.2 233.95q.45-3.3 1.65-1.65.95 1.3 4.15 8.65.35 4.3 7.35 5l4.45.25q1.8.05 1.4.55-2.6 3-4.75 4.3-3.05 1.8-7.85 2.45l-.55.3q-3.85 4.2-4.3 8.35-.5 4.15 2.25 9.65 1.8 3.55-.9 6.75-4.15 4.95-15.15 7.3-10.6 2.25-17.5.2l-1.95-.75q8.8.3 14.55-1.2 7.35-1.9 14.75-7.6 1.25-.95.9-2l-1.4-2.5q-2.7-4.6-.9-11.35.45-1.8 3.45-5.7 2.65-3.5 2.55-4.95l-1.9-6.6q-1.45-5.4-.3-9.45"/><path fill="#0d131a" d="M132.65 226.7q2.25-5 6.55-7.55 4.45-2.7 10.45-2.35 6.85.35 11.65 8.9 4.15 7.4 4.15 14.6 0 7.35-3.8 11.8 2.3 3.15 2.95 7.4.7 4.15-.5 7 11.8.8 21.15 5.9 10.6 5.75 9.85 13.4-.2 2.35-1.05 3.55-.95 1.35-3.25 2.3-5.1 2.1-13.05 1.6-7.4-.45-14.9-2.95-7.55-2.5-12.25-6.1-5.05-3.9-5.05-7.85 0-1.65 2.25-5.15t2.25-5.85q0-3.35-2.35-5.95-4.8-.05-8.35-1.55-3.35-1.4-6.55-4.55-1.1-1.05-1.75-5.7-.55-4.2-.55-9.75 0-6.35 2.15-11.15"/><path fill="#bf794e" d="M132.6 242q-.95-8.55 1.8-14.5 4-8.8 15.25-8.8 2.55 0 5.45 3.1 2.9 3.05 4.95 7.95 2.4 5.7 2.55 11.15.15 6.5-3.3 10.05-.55.55-.15 1.1 4.5 7.25 3.55 14.2-1.7-.1-1.9.5-.15.6 1.65.95l5.5.95q17.6 2.7 22.65 11.15 1.8 3.05 1.4 6-.3 2.6-1.85 3.3-6.5 2.95-20.55 0-14.3-3-19.65-8.8-3.05-3.25-1.35-6.65l.95-1.95q2.2-4.15 2-7.2-.3-3.6-3.85-7.55-.5-.6-.7-.35-.2.3.2 1.45-4.75-.65-7.5-2.4-1.65-1.1-4.35-4.2-1.95-2.2-2.75-9.45"/><path fill="#965e3a" d="M132.6 242q-.95-8.55 1.8-14.5 4-8.8 15.25-8.8 2.55 0 5.45 3.1 2.9 3.05 4.95 7.95 1.5 3.5 2.15 7.2.7 4.1.15 7.5-5.3-2.4-11.8 2.35-3.4 2.45-9.75 9.55-1.55-.8-2.95-2.15l-2.5-2.75q-1.95-2.2-2.75-9.45m17.35 38.3q-.85-.95-1.35-1.9 6.85 3.15 12.3 4.75 6.5 1.9 12.25 1.9 4.4.55 8.15-3.05 3.85-3.6 3.35-7.9 6.35 3.95 7.3 9.25.8 4.55-1.8 5.75-6.5 2.95-20.55 0-14.3-3-19.65-8.8"/><path fill="#0d131a" d="M29.8 81.9q1.05-.9 2.45-.8 2.35.1 5.15 3.1 4.8 5.1 7.8 4.95 2.3-.1 6.85-4.3 4.1-3.8 7.05-1.65 1.5 1.1 1.9 3.35.4 2.1-.4 3.65l-1.05 1.85q-1.7 2.75-2.15 4.35-.75 2.65.75 4.55 1.85 2.35 17.7 12.1l21.6 12.8q3.35 1.9 10.15-.55 3.6-1.25 5.85 1.55 2.2 2.7.1 10-1.65 5.8-4.3 10.15l-1.75 3.7q-.9 1.95-1.5 1.85l-.8-.15q-.45-.25-.55-1.1-.45-3.3-3.8-6.7-3.25-3.25-7.65-5.1l-4.4-1.75-4.3-1.95q-5.65-3.2-17.7-11.3-11.95-8-14.5-10.3-3.5-3.15-6.75-3.2-1.6-.05-9.5 1.6-7.25 1.55-9.3-4.1-.4-1.2.1-2.45.8-1.95 3.75-3.5 3.7-1.9 4-3.7.15-.95-1.35-2.95l-3.4-4q-2.4-2.6-2.1-5.65.2-2.6 2.05-4.35"/><path fill="#bf794e" d="M36.05 85.5q5.35 5.7 9.2 5.55 3-.15 8.1-4.8 2.9-2.75 4.6-1.55.85.7 1.15 2.2.25 1.5-.2 2.45l-1 1.7q-1.95 3.3-2.4 5.1-.9 3.35 1.15 5.95 2.25 2.9 21.6 14.75 9.65 5.95 19.15 11.4 2.5 1.45 6.1.95 2-.25 5.05-1.35l2.95-.2q.5.25.85 1.05l.3 2.2q0 3.9-2.3 10.35-2.2 6.15-3.8 7.6-.55-3.75-4.65-6.9-3-2.35-8.45-4.65-5.1-2.15-6.9-3.2-5.5-3.1-18.25-11.4-12.7-8.3-15.15-10.4-2.95-2.55-5.2-3-3.05-.65-9.55.7-3.75.8-6.75-.05-2.6-.7-3.1-2.1-.3-.8.5-1.8.75-.95 2.45-1.8 4.5-2.3 5-5.05.5-3.05-3.8-7.7-1.95-2.15-2.35-4.8-.3-2.4.75-3.4l2.05-.05q1.35.6 2.9 2.25"/><path fill="#965e3a" d="M32.7 91.5q-1.95-2.15-2.35-4.8-.3-2.4.75-3.4l2.05-.05q1.35.6 2.9 2.25 5.35 5.7 9.2 5.55 3-.15 8.1-4.8 2.9-2.75 4.6-1.55.85.7 1.15 2.2.25 1.5-.2 2.45l-1 1.7q-1.9 3.1-2.4 5.05-1.3.8-1.3 1.45-1.85 4.35 0 7.1 1.2 1.8 5.7 5.7 10.25 8.05 26.8 17.4 13.45 7.6 16.35 11.1l2.65 3.35q.95 1.5.95 3.45-.4.85-.1 2 .2 1 0 1.2-.55-3.75-4.65-6.9-3-2.35-8.45-4.65-5.1-2.15-6.9-3.2-5.5-3.1-18.25-11.4-12.7-8.3-15.15-10.4-2.95-2.55-5.2-3-3.05-.65-9.55.7-3.75.8-6.75-.05-2.6-.7-3.1-2.1-.3-.8.5-1.8.75-.95 2.45-1.8 4.5-2.3 5-5.05.5-3.05-3.8-7.7"/><path fill="#0d131a" d="M243.35 89.6q2.15.6 2.55 2.65l.3 1.75q-.1 1.3-1.75 2.65l-6.3 5.05q-3.15 2.8-3 4.35.1.85 2.1 2l4.05 2.05q3.05 1.55 3.3 3.35.1.6-.55 2.15-.7 1.95-2.6 2.8-2.25.95-5.8.1-5.7-1.35-11 .4-4.3 1.45-8.8 5.1l-.55.45q-1.5 1.25-7.65 4.45l-12.5 6.2-11.65 6.25q-7.05 3.7-12.05 9.1-4.25 4.5-6.25 9.25-.35.8-1-.15l-1.2-1.4q-3.25-1.35-7.2-11.65-4.15-10.75-2.3-15.3 1.7-4.1 5.85-2.5l4.65 1.55 5.45.35q3.9-.7 21.35-9.25 17.95-8.8 20.25-11.6 2-2.4 1.4-7.15-.4-3.55-1.8-6.55-.85-1.8 1.15-4.9 1.9-2.95 4.35-4.2 1.25-.65 2.5-.45 1.9.35 3.3 2.8l1.8 2.25 1.85 4q1.05 2 2 2.15.9.15 3.3-2.05l4.35-4.3q2.5-2.5 4.65-2.55.8-.05 3.45.8"/><path fill="#bf794e" d="M242.8 91.4q1.1.4 1.25 1.15.25 1.4-1.9 3.05-4.6 3.65-6.45 5.85-2.2 2.65-2 4.85.3 2.95 5.35 5.5 1.8.9 2.65 1.85.75.8.6 1.3-.3.8-2.15 1.1l-5.65-.4q-5.75-1.35-11.95 1.6-3.3 1.55-7.95 5.3l-.5.45q-2.3 1.85-19.8 10.4l-10.8 5.4q-15.9 8.4-19.7 17.4l-.1.15q-.95-.25-2.9-3.6-2.15-3.75-3.85-8.75-2.05-5.9-2.05-9.7 0-2.4.85-3.2.85-.75 2.9 0 7.15 2.8 11.85 1.95 4.3-.8 21.7-9.95 17.7-9.35 20.3-12.5 2.3-2.85 2.25-7.15-.1-3.55-1.7-7-.5-1.05.75-3.85 1.4-3 3.25-3.95 1.8-.9 3.25 1.6l1.5 2.8q1.5 2.95 2.3 4 1.4 1.75 3.05 2 3 .45 7.8-4.35 2.2-2.25 4.55-3.05z"/><path fill="#965e3a" d="M213.05 96.45q-.5-1.05.75-3.85 1.4-3 3.25-3.95 1.8-.9 3.25 1.6l1.5 2.8q1.5 2.95 2.3 4 1.4 1.75 3.05 2 3 .45 7.8-4.35 2.2-2.25 4.55-3.05l3.3-.25q1.1.4 1.25 1.15.25 1.4-1.9 3.05-4.6 3.65-6.45 5.85-2.2 2.65-2 4.85.3 2.95 5.35 5.5 1.8.9 2.65 1.85.75.8.6 1.3-.3.8-2.15 1.1l-5.65-.4q-5.75-1.35-11.95 1.6-3.3 1.55-7.95 5.3l-.5.45q-2.3 1.85-19.8 10.4l-10.8 5.4q-15.9 8.4-19.7 17.4l-.1.15q-.95-.25-2.9-3.6-2.15-3.75-3.85-8.75-2.05-5.9-2.05-9.7 0-2.4.85-3.2.85-.75 2.9 0l5 1.75 6.85.2 2.35 1.05q1.8.35 5.35-.85 9.8-3.35 37.8-20.45 4.05-2.5 3.05-5.4-.7-2.15-4.35-4.8-.3-3.15-1.65-6.15"/><path fill="#0d131a" d="M1.4 73.55q0-8.65 6.15-14.8t14.8-6.15 14.8 6.15 6.15 14.8-6.15 14.8-14.8 6.15-14.8-6.15-6.15-14.8"/><path fill="#00a63c" d="M4.05 73.1q0-7.55 5.35-12.95 5.4-5.35 12.95-5.35 7.6 0 12.95 5.35 5.35 5.4 5.35 12.95T35.3 86q-5.4 5.35-12.95 5.35T9.4 86q-5.35-5.35-5.35-12.9"/><path fill="#009233" d="M32.3 64.25q.25-2.65 1.8-3.05l2.4.35q4.15 5.05 4.15 11.55 0 7.55-5.35 12.9-5.4 5.35-12.95 5.35-5.6 0-10.25-3.15-4.5-3.05-6.6-8.05Q18.7 88.6 26.25 80q5.15-5.8 6.05-15.75"/><path fill="#0d131a" d="M84.2 57.35q6.15 6.15 6.15 14.8t-6.15 14.8-14.8 6.15-14.8-6.15-6.15-14.8 6.15-14.8 14.8-6.15 14.8 6.15"/><path fill="#00a63c" d="M81.95 84.6q-5.35 5.35-12.9 5.35T56.1 84.6q-5.35-5.35-5.35-12.9t5.35-12.95q5.4-5.35 12.95-5.35t12.9 5.35q5.35 5.4 5.35 12.95t-5.35 12.9"/><path fill="#009233" d="M82.8 59.7q4.5 5.15 4.5 12 0 7.55-5.35 12.9t-12.9 5.35q-4.9 0-9.1-2.45-4.1-2.35-6.55-6.4 9.05 3.75 16.15-2.7 6.25-5.6 7.85-15.3.55-2.8 2.1-3.45 1.05-.4 3.3.05"/><path fill="#0d131a" d="M0 118.25q0-8.65 6.15-14.8t14.8-6.15 14.8 6.15 6.15 14.8-6.15 14.8-14.8 6.15-14.8-6.15T0 118.25"/><path fill="#00a63c" d="M2.4 117.7q0-7.55 5.35-12.95 5.4-5.35 12.95-5.35t12.9 5.35q5.35 5.4 5.35 12.95t-5.35 12.9q-5.35 5.4-12.9 5.4t-12.95-5.4q-5.35-5.35-5.35-12.9"/><path fill="#009233" d="M32.25 103.55q3.15 2.6 4.9 6.2 1.8 3.75 1.8 7.95 0 7.55-5.35 12.9-5.35 5.4-12.9 5.4-6.3 0-11.25-3.9-4.85-3.8-6.45-9.75 2.9 2.35 8.6 4.3 8.3 1.8 12.9-7.85 1.35-2.9 2.65-7.4l1.4-4.75q1-1.85 2.1-2.55.55-.35 1.6-.55"/><path fill="#0d131a" d="M255.15 62.45q4.2.1 8 1.8 3.75 1.7 6.65 4.75t4.35 6.9 1.35 8.05-1.8 8q-1.65 3.75-4.7 6.65t-6.9 4.4q-3.85 1.45-8.05 1.35-8.7-.25-14.65-6.55-2.9-3.05-4.35-6.9-1.5-3.85-1.4-8.05.25-8.65 6.55-14.65 6.3-5.95 14.95-5.75"/><path fill="#00a63c" d="M266.65 96.65q-5.45 5.2-13.1 5.05-7.6-.25-12.75-5.7-5.2-5.45-5.05-13.1.25-7.55 5.7-12.75 5.5-5.2 13.05-5 3.65.1 7 1.55 3.3 1.45 5.8 4.1 5.25 5.55 5 13.1-.05 3.6-1.55 6.95-1.45 3.3-4.1 5.8"/><path fill="#009233" d="M267.3 70.8q5.25 5.55 5 13.1-.05 3.6-1.55 6.95-1.45 3.3-4.1 5.8-5.45 5.2-13.1 5.05-7.6-.25-12.75-5.7-2.3-2.45-3.5-5.35 6.2 1.7 10.65 1.05 5.6-.8 7.15-5.45.8-2.15 1.25-5.5l.65-5.5q.95-6.25 4.85-8.35 3.15 1.45 5.45 3.9"/><path fill="#0d131a" d="M195.05 65.1q3.05-2.9 6.9-4.35 3.9-1.5 8.05-1.4 8.65.25 14.65 6.55t5.75 14.95q-.2 8.65-6.55 14.65-6.3 6-14.95 5.75-4.15-.1-7.95-1.8-3.75-1.7-6.65-4.75t-4.35-6.9q-1.5-3.85-1.4-8.05t1.8-8q1.65-3.75 4.7-6.65"/><path fill="#00a63c" d="M202.45 62.75q3.4-1.3 7.05-1.2 7.55.2 12.75 5.7 5.25 5.5 5.05 13.05t-5.7 12.8q-5.5 5.2-13.05 5-7.65-.25-12.8-5.7-2.5-2.65-3.8-6.05-1.3-3.35-1.2-7t1.55-7q1.45-3.25 4.1-5.8 2.65-2.5 6.05-3.8"/><path fill="#009233" d="M195.75 92.4q-2.9-3.05-4.15-7.1 7.3 2.35 16.8.85 3.55-.65 5.25-3.1 1.25-1.75 2-5.35 1-4.7 1.45-5.9 1.15-3.15 3.65-4.7l1.1-.25q2.65 2.65 4.05 6.05 1.5 3.55 1.4 7.4-.2 7.55-5.7 12.8-5.5 5.2-13.05 5-7.65-.25-12.8-5.7"/><path fill="#0d131a" d="M226.35 125.7q.25-8.65 6.55-14.65 6.3-5.95 14.95-5.75 8.7.25 14.65 6.5 2.9 3.1 4.4 6.95 1.45 3.85 1.35 8.05t-1.8 8q-1.7 3.75-4.75 6.65-6.25 5.95-14.95 5.7-4.2-.05-8-1.75-3.75-1.7-6.65-4.75t-4.35-6.9q-1.5-3.85-1.4-8.05"/><path fill="#00a63c" d="M234.35 112.4q5.5-5.2 13.05-5 3.6.1 6.95 1.55 3.3 1.45 5.8 4.1 5.2 5.45 5.05 13.1-.25 7.6-5.7 12.75-2.65 2.5-6.05 3.8t-7.05 1.2q-7.55-.2-12.75-5.7t-5-13.05 5.7-12.75"/><path fill="#009233" d="M238.15 141.65q-3.75-2.05-6.2-5.55 13 3.8 20.4-5.35 4.8-5.95 5.5-13.2.3-2.8 1.45-2.8l2.65.5q3.4 4.95 3.25 10.9-.25 7.6-5.7 12.75-2.65 2.5-6.05 3.8t-7.05 1.2q-4.4-.1-8.25-2.25"/><path fill="#bf794e" d="m167.65 100.8-.65 45.4q0 20.6-6.55 52.8-6.4 31.2-12.25 41.8-5.2 9.35-13.7 13-12.65 5.45-31.95-1.7-3.6-1.35-6.55-3.65-12.25-9.75-7.1-35.35 2.6-12.65 11.8-34.9 4.5-11.05 5.45-40.8.8-25.9-1.25-47.15-1.7-17.65 1.05-24 2.35-5.5 11.65-8.95 4.8-1.75 14.35-2.05 6.5-.25 12.4.2 11.05.7 16.25 4.9 3.9 3.2 5.95 10.15 1.45 4.85 1.1 30.3"/><path fill="#965e3a" d="M165.15 66.55q.8 1.75 1.4 3.95 1.45 4.85 1.1 30.3l-.65 45.4q0 20.6-6.55 52.8-6.4 31.2-12.25 41.8-9.5 17.2-30.1 15.1 9.55-4.2 14.7-10.55 6.6-8.15 11.75-25.7 5.6-19.15 10.75-59.6 5.2-40.85 4.55-61.55-.75-23.35-.35-26.6.4-3.35 1.7-4.5 1.2-1.05 3.95-.85"/><path fill="#bf794e" d="M104.9 90.25q-1.7-17.65 1.05-24 2.35-5.5 11.65-8.95l4.55-1.15q-11 5.65-7.75 8.85l3.2 2.6q1.65 1.6.5 3.45-.75 1-3 2.1-2.6 1.25-3.65 2.2-4.25 3.8-3 14.6 1.5 13.3.9 24.05-.65 10.95-3 10.7 0-19.65-1.45-34.45m.9 55.5.85-.1h.85q4.25 7.8-1.65 29.85-4.25 15.55-9.8 27.55-1.65 3.5-5.5 14.8-2.35 6.75-2.35 3.25.5-10.95 5.05-24.2 1.25-3.7 7.45-18.7 3.85-9.25 5.1-32.45"/><path fill="#0d131a" d="M166.8 88.2q-.1-13.85-1.15-17.45-1.95-6.6-5.4-9.5-5-4.15-15.95-4.85-7.95-.55-14.9-.05-7.2.45-11.45 1.85-8.9 2.95-11.15 8.2-2.65 6.15-.95 23.75 1.7 17.3 1.45 39.1-.05 2.35-.7 2.35-.7 0-.75-2.35-.15-9.2-1.1-21.35L103 89.15q-1.7-17.8 1-23.9 2.4-5.35 12.3-8.75 4.15-1.4 12.85-1.95 8.2-.55 15.25-.05 11.3.75 16.85 4.5 4.9 3.4 7.05 10.65 1.05 3.5.25 34.3L167.6 134q-.05 2.95-.8 2.95-.7 0-.65-2.95l.3-16.4zm-.75 60.05q.05-1.75.75-1.8.65 0 .7 1.75.15 17.3-3.3 38.8-3.65 23-9.6 38-.85 2.15-1.4 1.9-.6-.2.05-2.4 4.8-16.3 8.5-37.65 4-23.05 4.3-38.6m-69.8 100.9q-1.15-.95-.75-1.4.45-.5 1.6.35 9.65 7.15 22.75 7.35 12.95.15 20.75-6.55 1.45-1.25 1.85-.8.45.45-.95 1.7-9.1 8.45-22.4 7.95-12.65-.5-22.85-8.6m9.3-106q.15-1.45.75-1.45.65.05.6 1.5-1.2 25.35-5.35 35.4l-5.7 15.1q-5.95 16.9-7.05 26.1-.25 2.05-.85 2-.6-.1-.55-2.15.45-10.3 6.15-27.05l5.6-14.75q4.25-10.35 6.4-34.7m25.1.15q1.85-3.8 3.75-3.55 1.8.25 2.9 4.45 1.15 4.25.75 9.4-.35 4.7-2.3 8.8-1.9 4.05-3.6 3.8-2.1-.25-3.15-4.05-1.15-3.9-.65-9.6.45-5.35 2.3-9.25"/><path fill="#fcd13e" d="M136.75 146.8q.4 3.1.1 6.65-.25 3.5-1.15 6.45-.95 2.9-2.1 4.1-.8.75-1.35.6-.75-.1-1.25-.95-.95-1.4-1.4-4.5-.4-3.1-.1-6.65.4-4.7 1.75-8.05 1.4-3.3 2.9-3.1.7.1 1.2.9 1 1.45 1.4 4.55"/><path fill="#0d131a" d="M118.8 180q-.35 4.8-2.1 8.45-1.65 3.4-2.95 3.2-1.7-.25-2.75-3.95-1.1-3.85-.7-8.75.4-5.65 2.2-9.05 1.55-2.95 3.2-2.75 1.65.25 2.6 4.05.9 3.8.5 8.8"/><path fill="#fcd13e" d="M114.25 169.15q.5-.6 1.1-.5 1 .1 1.7 2.4.75 2.4.75 6l-.1 2.65q-.25 3.3-1.1 6-.8 2.7-1.85 3.75-.5.6-1.1.5-1.2-.15-1.9-3.2-.75-3.3-.4-7.85.2-3.3 1.05-6 .8-2.7 1.85-3.75"/><path fill="#0d131a" d="M143.8 174.1q.25-3.3 1.4-5.6 1.1-2.35 2.3-2.2 1.05.15 1.8 2.4.85 2.55.55 6.05-.3 3.3-1.35 5.5-1 2.2-2.25 2.05-1.15-.15-1.9-2.35-.85-2.45-.55-5.85"/><path fill="#fcd13e" d="M147.35 167.45q.35 0 .75.55.95 1.45.95 4.85l-.05 1.65q-.3 2.95-1.15 4.9-.8 1.8-1.65 1.7l-.75-.6q-.55-.85-.8-2.65t-.05-3.85q.25-2.95 1.1-4.85.8-1.8 1.65-1.7"/><path fill="#0d131a" d="M129.4 197.25q2.1-3.95 4.4-3.65 2.2.25 3.4 5.15 1.25 4.85.7 11.4-.45 6.15-2.65 10.65-2.1 4.4-4.2 4.15-2.25-.3-3.65-5-1.4-4.85-.9-11.25.6-7.15 2.9-11.45"/><path fill="#fcd13e" d="M133.3 195.2q1.85.25 2.8 4.55 1 4.35.55 10.1-.4 4.3-1.45 7.8-1.1 3.55-2.5 4.95-.9.8-1.7.75-1.8-.2-2.75-4.55-1-4.35-.55-10.1.35-4.3 1.45-7.8 1.05-3.5 2.5-4.95.85-.9 1.65-.75"/><path fill="#0d131a" d="M103.25 213.25q1.9-.3 3.55 4.1 1.7 4.5 2.2 11.4.5 6.65-.5 11.4-1 4.8-2.9 5.1-1.75.25-3.45-2.85-2.2-4-2.8-12.05-.45-6.55.75-11.7 1.2-5.1 3.15-5.4"/><path fill="#fcd13e" d="M104.4 215.45q1.3 1.25 2.3 4.95 1 3.6 1.35 8.25.45 6.15-.45 10.6-.85 4.1-2.3 4.35-.5.1-1.15-.55-1.3-1.25-2.3-4.9t-1.35-8.3q-.45-6.15.5-10.6.8-4.1 2.25-4.3.5-.15 1.15.5"/><path fill="#0d131a" d="M131.5 83.7q.05 2.25-.5 3.75t-1.45 1.5-1.45-1.4q-.6-1.4-.6-3.85 0-4.9 2.1-4.9 1.8 0 1.9 4.9"/><path fill="#fff" d="m130.5 80.8-.25.95-.7.4q-.4 0-.7-.4-.25-.4-.25-.95t.25-.95q.3-.4.7-.4l.7.4z"/><path fill="#0d131a" d="M149.3 83.8q0 4.95-1.9 5.15-.85.1-1.45-1.25-.65-1.45-.65-3.8 0-5 2-5.1 1.95 0 2 5"/><path fill="#fff" d="m148.25 80.8-.3.95q-.25.4-.65.4l-.7-.4q-.25-.4-.25-.95t.25-.95q.3-.4.7-.4t.65.4z"/><path fill="#bf794e" d="M164.75 32.6q-17.6 6.5-19.2 8.75-2.15 3.15-2.55 9.4-.35 5.35.5 7.6.75 1.95-5.8 1.85-6.45-.1-5.95-3 .95-5.25.45-10.9-.7-8.3-4.7-11.3-2.75-2.05-9.95-5.25-8.75-3.9-11.45-5.4-7.9-4.45-8.35-6.8-.9-5.05 3.9-11.7 4.9-6.7 8.2-4.2 9.4 7.1 17.35 15.3l9.75 10.15q2.85 2.55 5.45 1.6l5.85-3.95 14.5-11.6Q172.5 5.4 174.3 5.4q1.7 0 4.15 1.55 2.65 1.6 4.5 4.05 4.95 6.35.95 12.5-1.7 2.65-19.15 9.1"/><path fill="#965e3a" d="m178.85 20.75 1.4.65 4.4-.3q-.1.75-1.1 1.9-1.95 2.35-6.3 4.45-5.9 2.9-20.4 8.05-9.35 3.35-11.6 6.55-1.9 2.7-2.35 7.95-.3 4.05.2 7.15 7.6 1 7.9 4.3.15 1.6-2.8 2.5l-4.9.7q-1.9 0-3-3.45-1.1-3.25-.95-7.95.4-11.75 6.55-15.8 6.15-4.9 16.05-8.8 11.55-4.5 16.9-7.9m-50.1 11.75q3.7 1.5 4.6 5.05.8 3.05-.6 7.15-1.25-6.8-5.1-9.5-3.1-2.2-8.25-4.6l-11.25-5.1q-5.35-2.45-8.5-5.7-3.05-3.1-1.05-2.55l4 .4 1.35-.4q5.85 5.3 11.7 8.65z"/><path fill="#0d131a" d="M184.25 10.65q2.6 3.75 2.85 7.4.25 4.15-2.7 6.85-2.1 1.9-9.6 4.95l-13.95 5.2q-6.4 2.35-8.7 3.35-3.45 1.5-5.25 2.95-1.95 1.55-2.9 7.35-.9 5.75.2 9.35.4 1.25 0 1.4-.45.15-1.1-1-1.55-2.8-.85-8.9.75-6.35 3.2-9.05 2.25-2.4 14.6-7.5 4.9-2 14.3-5.7 7.25-3 8.8-4.95 3.25-4.1-1.25-10.55-4.5-6.35-8.7-4.8-1.9.7-5.35 3.55l-8.6 7.15-10.9 8.35q-5.85 4-8.1 3.6-2.25-.45-4.15-2.35l-8.95-8.95q-7.35-7.15-16.45-15-1.65-1.4-4.25.05-2.35 1.3-4.5 4.3-2.2 3-2.85 5.95-.75 3.2.8 4.85 3.15 3.25 15.3 9.35l12.85 6.4q4.45 3.35 5.2 11.95.65 7.15-1.1 11.5-.55 1.45-1.05 1.3-.45-.15-.2-1.7 3.1-16.4-3.55-21.5l-15.3-7.5q-13.9-6.75-14.8-8.9-1.4-3.3-.2-7.55 1.1-3.85 3.9-7.1 2.75-3.3 5.75-4.35 3.35-1.1 5.6.95 7.9 7.25 14.55 14.15l10 10.55q2.05 2.15 3.65 2.15 2.2 0 7.8-4.4l10.1-8.5 8.05-6.9q3.4-2.8 5.9-3.9 2.65-1.1 6.15.8 3.3 1.8 5.75 5.35"/><path fill="#0d131a" d="M101.45 17.45q3.3.3 6.5-4 3.25-4.35 2.3-8.15-.25-1.05-.1-1.2.2-.15.75.85 2.2 3.8-1.6 8.95-3.85 5.2-8 4.15l-.6-.4q.15-.3.75-.2m81.15 4.5q-4.15 1-7.95-4.2-3.8-5.25-1.65-9 .6-1.05.75-.9.2.15-.1 1.2-.95 3.8 2.3 8.2 3.2 4.35 6.5 4.05.65-.05.75.2t-.6.45M121.9 96.4l16.85 1.05 16.55-.95q2.1-.35 2.85.65t0 3.1q-2.3 6.25-8.2 9.6-5.4 3.15-12.05 3t-11.75-3.45q-5.55-3.6-7.25-9.75-.5-1.85.25-2.7.8-.9 2.75-.55"/><path fill="#922f00" d="M154.85 97.9q2.15-.4 1.65 1.55-1.1 4.9-6.05 8.1-4.65 3-10.75 3.4-6.35.35-11.35-2.35-5.65-3-7.85-9.1-.35-.9.1-1.35.4-.45 1.4-.25l16.3.95z"/><path fill="#ed8599" d="m124.15 98.2 14.4.65 14.45-.7 2.8 3.4q-1.8 4.05-6.4 6.6-4.4 2.45-9.75 2.75-12.7.75-18-8.95z"/><path fill="#0d131a" d="M124.35 97.4q1.6.5 1.2.75-3.1 1.9-3.95 5.85-.05.35-.45-.4-.45-.8-.35-1.15.85-2.75 3.55-5.05m27.1.65q-.2-.15.45-.35l.8-.1q2.75 1.9 3.5 4.4.15.45-.2 1.2t-.45.4q-.45-1.4-1.65-3.05z"/></svg>