<svg xmlns="http://www.w3.org/2000/svg" width="187" height="285" viewBox="-0.55 0 187.25 284.65"><path fill="#0d131a" d="m85.45 227.75 6.2 10.05q3.3 5.75 2.15 6.8-.9.7-1.85.35-2.65-1.05-10.15-2.3l-10.55-1.25 5.1 13.4q4.3 12.15 4.8 18.1.6 6.7-3.05 9.85-2.3 1.9-6.45 1.5l-5.2-1.25q-5.8-1.8-18.2-11.4-13.5-10.5-15.1-11.3-3.55-2.65-4.3-4.95l-.55-4.85q-.6-4.5 3.55-9.75 2.5-3.15 5.8-3.7l5.05.4-2.15-7.45q-1.65-6-2.1-9.85-.55-4.9 2.5-8.45 3.25-3.85 9.8-4.7 2.7-.35 9-.1l8.55.7.4-.1q5.15 1 10.55 9.15 2.85 4.35 6.2 11.1"/><path fill="#6eb944" d="M81.1 240.65q-8.25-1.55-11.9-1.55h-1.05l2.15 5.55q7.7 17.7 8.65 28.55.55 5.6-2.05 7.7-1.9 1.6-5.5 1.4l-4.55-.8q-1.75-.5-9.75-6.25L41.9 264l-3.85-2.9q-7.6-5.75-8.2-10.8-.5-3.9 3.25-8.6 2.6-3.2 7-3 2.2.1 3.95.85l1.45.55-.4-1.45q-3.75-12.5-4.3-19.1-.3-4 2.6-6.9 2.85-2.85 7.8-3.45 2.7-.35 8.95-.1l8.5.65q4.7.9 9.7 8.25 1.9 2.85 5.6 10.15 1.3 2.6 6 9.6 3.4 5.15 2.8 5.7h-.2q-3.25-1.3-11.45-2.8"/><path fill="#0d131a" d="m45.6 240.05.35-2q4.4 1.05 10.75 5.3 5.95 4 8 6.8 1.85 2.5 1.3 2.75t-2.55-1.8q-2.45-2.55-7.7-6-6.2-4.1-10.15-5.05m16.5 24.4q4.9.1 9.2 3.15 3.2 2.25 5.25 5.15 2.2 3.05 2.2 5.75 0 1.65-.9 3.05-2.05 2.9-6.9 2.8-4.95-.1-9.2-3.15-4.35-3-6.35-6.8-2.25-4.25-.2-7.15t6.9-2.8"/><path fill="#fff362" d="M62.35 279.95q-4-2.8-5.8-6.25-1.8-3.5-.35-5.55 1.6-2.3 5.95-2.05 4.3.2 7.95 2.75 4 2.8 5.8 6.3 1.8 3.45.35 5.5-1.6 2.3-5.9 2.05-4.3-.2-8-2.75"/><path fill="#ded255" d="M76.25 280.65q-1.6 2.3-5.9 2.05-4.3-.2-8-2.75l-1.85-1.45q3.95 1.5 6.9 1.7 3.1.2 4.4-1.15 2.5-2.5 0-8.9 3.2 2.75 4.45 5.7 1.3 3 0 4.8"/><path fill="#0d131a" d="M20.15 247.2q2.75-2.75 6.6-2.75 3.8 0 6.55 2.75 2.7 2.7 2.7 6.55t-2.7 6.55q-2.75 2.75-6.55 2.75-3.85 0-6.6-2.75-2.7-2.7-2.7-6.55t2.7-6.55"/><path fill="#fff362" d="M19.15 253.65q0-3.1 2.2-5.3t5.3-2.2 5.3 2.2 2.2 5.3q0 3.05-2.2 5.25t-5.3 2.2-5.3-2.2q-2.2-2.15-2.2-5.25"/><path fill="#ded255" d="M32.3 248.75q1.85 2.1 1.85 4.9 0 3.05-2.2 5.25t-5.3 2.2q-1.9 0-3.65-.95 5.4.7 6.85-5.05 1.4-5.55-2.1-8.85 2.7.4 4.55 2.5"/><path fill="#0d131a" d="M41.9 234q2.75-2.7 6.6-2.7t6.6 2.7q2.7 2.75 2.7 6.6t-2.7 6.6q-2.75 2.7-6.6 2.7t-6.6-2.7q-2.7-2.75-2.7-6.6t2.7-6.6"/><path fill="#fff362" d="M40.8 240.55q0-3.1 2.2-5.3t5.3-2.2 5.3 2.2 2.2 5.3-2.2 5.25q-2.2 2.2-5.3 2.2t-5.3-2.2-2.2-5.25"/><path fill="#ded255" d="M51.3 233.65q2 .9 3.25 2.7 1.25 1.9 1.25 4.2 0 3.1-2.2 5.25-2.2 2.2-5.3 2.2-3.3 0-5.5-2.45 4.4 2.15 8-1.65 3.8-4.05.5-10.25"/><path fill="#0d131a" d="m68.25 239.4-.8-2.85q-.2-1.1.3-1.2t1 .9l1.55 3.15zm-47.6.15q0-4 2.9-6.7 2.8-2.7 6.9-2.7 4.05 0 6.85 2.7 2.75 2.65 2.75 6.7t-2.75 6.75-6.85 2.7-6.9-2.7q-2.9-2.7-2.9-6.75"/><path fill="#fff362" d="M22.45 239.5q0-3.2 2.3-5.45 2.25-2.25 5.45-2.25t5.45 2.25q2.3 2.25 2.3 5.45t-2.3 5.5q-2.25 2.25-5.45 2.25T24.75 245q-2.3-2.3-2.3-5.5"/><path fill="#ded255" d="M35.65 234.05q2.3 2.3 2.3 5.45 0 3.2-2.3 5.5-2.25 2.25-5.45 2.25-3.25 0-5.45-2.3 4.35 1.15 8.25-1.55 4.5-3.15 2.65-9.35"/><path fill="#0d131a" d="m7.7 163.7 6.25-.15q18.15-25.35 50.85-11.5l.2.1q5 2.1 8.7 8.7 3.2 5.75 3.6 11 .4 4.5-1.95 5.95-2.25 1.45-6.15-.9-8.9-5.3-19.55-5.85-11.65-.65-17.35 5.2 3.4 2.05 3.85 6.9.5 4.95-2.75 7.9-2.65 2.45-6.7 2.65-4.2.2-7-2.35-3.35 2.5-7 2.65-3.85.15-7.05-2.45Q3 189.45 2.5 186q-.45-3.35 1.3-5.55-2.95-1.7-3.65-5.35-.7-3.75 1.45-7.1 2.15-3.3 6.1-4.3"/><path fill="#6eb944" d="m8.3 165.45 5.75-.35.65.15.4-.5q9.55-11.85 21.25-14.65 12.2-2.95 27.75 3.65l.2.1q4.35 1.85 7.8 7.9 3 5.4 3.4 10.2.25 3.45-1.1 4.3-1.35.8-4.25-.95-10.3-6.05-21.2-6.45-12.7-.5-19.25 7.65-.75.9-.6 1.55.15.55.75.3.75-.35 1.4-1.1 2.65 2.15 3 5.8.35 3.7-2.05 6.2-2.15 2.2-5.6 2.5-3.8.25-6.4-2.35l-.55-.45-.55.4q-2.45 2.25-5.95 2.5t-5.9-1.65q-2.35-1.8-2.7-4.9t1.55-5.1q-3.4-2.1-3.9-5.7-.4-3.05 1.3-5.55 1.75-2.55 4.8-3.5"/><path fill="#5ea13a" d="M14.15 189.6q-.3-1.3.3-2.4 9.9-18.5 22.75-24.05 10.3-4.5 33.4-3.75l1.95 3.25.75 1.55 1.2 3.15.15.4.7 2.95.15 1.25-.05 2.25q-.2 1.45-1.05 2.05-1.35.8-4.25-.95-10.3-6.05-21.2-6.45-12.7-.5-19.25 7.65-.75.9-.6 1.55.15.55.75.3l1.35-1 .1-.05q2.6 2.2 2.95 5.75.35 3.7-2.05 6.2-2.15 2.2-5.6 2.5-3.8.25-6.4-2.35l-.55-.45-.55.4q-1.6 1.45-3.65 2.05-1-.5-1.3-1.8"/><path fill="#fff362" d="M15.1 164.75q1.8-2.3 4.55-5.05-.8 5.9 2.8 9.75 3.2 3.5 9.4 4.8-1.25 1.1-2.15 2.25-.75.9-.6 1.55.15.55.75.3.75-.35 1.4-1.1 2.65 2.15 3 5.8.35 3.7-2.05 6.2-2.15 2.2-5.6 2.5-3.8.25-6.4-2.35l-.55-.45-.55.4q-2.45 2.25-5.95 2.5t-5.9-1.65q-2.35-1.8-2.7-4.9t1.55-5.1q-3.4-2.1-3.9-5.7-.4-3.05 1.3-5.55 1.75-2.55 4.8-3.5l5.75-.35.65.15z"/><path fill="#ded255" d="M31.25 177.25q2.65 2.15 3 5.8.35 3.7-2.05 6.2-1.8 1.85-4.7 2.35-3.1.55-5.65-.95 2.45-.1 4.3-1.75 1.9-1.65 2.55-4.3.7-3.05-1.05-5.95-1.7-2.85-4.55-3.75 1-2 2.1-3.2 2.45 1.5 5.8 2.35l.85.2-.05.05-2.1 2.2q-.75.9-.6 1.55.15.55.75.3.75-.35 1.4-1.1"/><path fill="#0d131a" d="M4.1 180.05q1.9-2.5 5.25-2.7 1.3-.05 1.45.4.2.4-1.3.85-1.75.55-2.7 1.2-1.2.8-1.85 2.2zm12.95 6.65q-.25-2.05.65-3.7.5-.9 1-.85.6.05.25 1.6-.9 3.9 2.05 6.35l-1.55.7q-2.15-1.3-2.4-4.1M24.8 22.4q2.2-1.2 5.1-1.2 5.1 0 8.6 3.7 3.4 3.55 3.5 8.5.1 6.55-4.7 11t-11.9 4.5q-9.35 0-15-6.25-5.95-6.5-5.95-17.95 0-11.05 8.5-17.95Q21.2 0 33.85 0q18.7 0 30.45 16.05Q77.8 34.5 76.15 68.1h-11.7q4.5-34.7-8.75-50.7Q46.9 6.75 33.75 6.5q-9.75-.15-16.1 5.55-6 5.4-6.3 13.2-.15 5.35 2.9 10.4 3.55 5.8 9.35 6.6 2.95.4 5.6-.55 2.6-.95 4.35-3.1 3.15-3.8 1.5-7.05-1.4-2.8-4.95-3.35h-4.7q-2.7-.25-2.8-2.9-.05-1.65 2.2-2.9"/><path fill="#4b91ad" d="M56.15 14.75Q47 5.15 33.8 4.9q-6.95-.15-12.35 2.35T12.9 14.5q-2.95 4.45-3.3 9.95-.4 5.5 1.9 10.6 1.55 3.55 4.8 5.95 3.2 2.4 7.1 2.9 3.35.45 6.3-.65 2.95-1.05 4.95-3.5 3.5-4.25 2.05-8.4-1.45-4.1-6.65-4.85l-3.8.2q-1.85.15-2.2-1.05-.35-1.15 1.65-2.25 2-1.05 4.25-.85 5.6.55 8.45 5.1 2 3.25 1.65 7.15t-2.95 7q-2.55 3.1-6.25 4.45-3.7 1.4-7.85.85-4.75-.65-8.65-3.55t-5.8-7.2q-2.6-5.8-2.15-12.15.4-6.35 3.8-11.5 3.65-5.45 9.75-8.3t13.9-2.75q7.15.1 13.4 2.9 6.25 2.75 11.2 7.95 15.5 16.25 15.5 46.1l-.3 8.75-6.5.25q.55-8.1.55-14.25 0-14-2.75-23.2-2.75-9.05-8.8-15.4"/><path fill="#0d131a" d="M81.3 58.35q21.9 3.35 43.8 18.95 21 14.95 36.15 36.85 15.55 22.45 20.15 45.45 5 24.95-4.2 44.8-4.45 24.25-22.3 35.65-20 12.8-54 7.2-14.25-2.35-23.2-11.95-8.4-9-12.8-25-2.75-10.15-1.9-24.45.4-7.15 2-16.85-24.9.75-34.05-10-8.7-10.05-2-28.3l-.65-.85q-8.15-9.45-11.35-17.15-6.05-14.35.15-27.85 6.75-14.8 25.5-22.3 18.25-7.3 38.7-4.2"/><path fill="#6eb944" d="M79.8 60.7q20.95 3.15 42 17.75 20.35 14.1 35.25 34.95 15.3 21.45 20.45 43.9 5.55 24.4-2.3 44.7-2.8 21.5-18.85 33.85-20.25 15.7-54.85 8.5-26.9-5.55-33.85-33.55-4.5-18.05-.35-42l.05-1.95q-20.5 1.1-30.8-5.95-12.4-8.5-6.5-27.45.75-2.3.7-2.85-.05-.45-.85-1.55-9.25-12.6-11.55-18.65-4.7-12.45 1.5-25.15Q27 70.7 46.45 64.05q16.85-5.8 33.35-3.35"/><path fill="#5ea13a" d="M161.2 155.55q-4.95-23.6-16.95-46.75-10.45-20.2-19.45-28.25 30.45 22.4 45.55 55.85 16.25 36 4.85 65.6-2.15 16.35-12.55 28.05-12.75 14.25-34.25 16.2 24.85-13.85 32.5-40.05 6.4-21.95.3-50.65"/><path fill="#fff362" d="m30.75 130.65 65.6-4.05 16.3 13.8q.7 5.8-4.65 12-10.65 12.4-40.65 14.45-20.5 1.1-30.8-5.95-12.4-8.5-6.5-27.45z"/><path fill="#0d131a" d="m60.95 169-4.1-1.05q-3.8-1.05-2.25-1.1 29.05.8 44.95-8.85 6.4-3.9 9.65-8.95 2.9-4.5 2.65-8.9l.85-.65q.2-.2.65 0 1.35 5.45-2.15 10.85-3.4 5.25-10.7 9.5-16 9.25-39.55 9.15m25.6-95.55q5.05-1.6 12 1.45 6.4 2.85 9.75 9.6 4.05 8.2-.15 17.15-1.2 2.55-3.7 4.6-2.35 1.9-5.05 2.7-6.1 1.95-12.4-1.85-6.4-3.85-8.65-11.05Q77 91.7 77.4 87.1q.35-4.3 2.15-7.7 2.35-4.5 7-5.95"/><path fill="#fff" d="M107.9 94.3q-.25 3.7-1.85 6.7-2.3 4.45-7 5.9-5.55 1.75-11-1.55-5.5-3.4-7.6-10-1.25-4.15-1.15-8.15.15-4.05 1.7-7 2.05-3.9 6.1-5.2 5.1-1.55 10.85 1.35 3.25 1.75 5.65 4.5 2.35 2.8 3.4 6.15 1.15 3.65.9 7.3"/><path fill="#dbdcdc" d="M107 87q1.15 3.65.9 7.3-.25 3.7-1.85 6.7l-1.2 1.9q.55-10.15-4.2-18.15-4.05-6.95-10.6-10.25 4.05-.15 7.9 1.85 3.25 1.75 5.65 4.5 2.35 2.8 3.4 6.15"/><path fill="#0d131a" d="M84.85 75.35q5.55-2.75 12.35 1.7 7.05 4.65 7.05 12.2 0 5.65-3.05 9.1t-7.9 3.45q-6.5 0-10.8-4.85-4.25-4.75-4.25-11.5 0-3.15 1.9-5.95 1.8-2.65 4.7-4.15"/><path fill="#ab010b" d="M101.45 93.65q-1.25 3.8-4.6 5.5-3.3 1.65-7.1.4-2.4-.8-4.4-2.6-1.95-1.75-3.2-4.25-2.35-4.6-1.25-9.2 1.05-4.6 4.85-6.5t8.1 0q4.3 1.85 6.65 6.45 1.25 2.5 1.5 5.15.25 2.7-.55 5.05"/><path fill="#0d131a" d="M87.6 95.65q-4.8-1.5-7.4-6.3-1.25-2.35-.95-6.15.35-5.2 4.45-7.15 3.85-1.85 7.95-.6 4.25 1.25 6.4 5.35 2.55 4.7.95 9.4-1.25 3.55-4.45 5.1-3.15 1.55-6.95.35"/><path fill="#fff" d="M91 84.6q0 2-1.4 3.45t-3.25 1.45-3.25-1.45q-1.45-1.45-1.45-3.45 0-2.05 1.45-3.5 1.4-1.45 3.25-1.45t3.25 1.45 1.4 3.5"/><path fill="#0d131a" d="M63.8 193.45q.4-9.75 9.6-16.9 10-7.85 25.5-8.1 12.8-.2 23.9 8 10.25 7.5 23 25.2 7.75 10.75 12.6 18.9 5.15 8.65 5.35 11.55l.05.35-.25.25q-9.85 9-23.05 12.8-17.45 5.05-39.3.5-20.15-4.2-29.6-20.85-7.2-12.7-7.8-31.7"/><path fill="#fff362" d="M73.2 179.15q6.35-5.1 15.95-7.4 8.85-2.1 15.7-.85 22.6 4.1 41.4 29.4 6.75 9.15 11.5 19.05 4.05 8.45 4.5 12.5-9.6 8.7-22.55 12.35-16.95 4.75-38.2.35-19.5-4.05-28.7-20.3-6.95-12.35-7.55-30.8.4-8.25 7.95-14.3"/><path fill="#ded255" d="M145.25 199q7.15 9.35 12.25 19.8 4.25 8.8 4.75 13.05-9.6 8.7-22.55 12.35-16.95 4.75-38.2.35-9.25-1.95-16.1-6.55 12.05.65 18.7.15 9.7-.7 16.65-4.05 16.7-8 24.5-35.1"/><path fill="#0d131a" d="M98.7 178.45q7.6 0 12.95 4.75 5.9 5.2 5.7 13.55-.15 5.6-3.65 9.4-3.5 3.65-8.5 3.85-3.05.15-5.15-.95-2-1.1-2.15-2.8-.25-2.7 3.1-3.8 5.75-1.95 5.55-7.15-.15-3.5-3-5.6-2.4-1.75-5.15-1.8-3.6-.1-6.35 2.35-2.85 2.6-4 7.35-1.15 4.9.5 10.55 1.65 5.6 5.7 10.45 8.2 9.8 18.05 14.15 16.7 7.3 43.7 4.1l.5 1.25q-15.4 10.2-36.3 9.95h-.15l-4.35-1q-19.5-6.85-30.75-21-9.75-12.35-9.6-24.55.1-9.55 6.5-16.15 6.65-6.9 16.85-6.9"/><path fill="#6eb944" d="M86.2 196.5q-1.25 5.25.6 11.6t6.1 11.4q9.25 11.05 19.7 15.35 15.15 6.25 40.5 3.7-14.2 8.25-32.8 8.15l-3.4-1.2q-16.85-5.9-23.4-11.25-10.1-8.2-15.25-25.8-.8-2.9-.8-6.1 0-10.1 6.1-16.2 5.75-5.75 14.5-5.85 8.55-.1 13.4 5.55 4 4.65 4 10.75 0 5.3-3.65 8.85-3.1 3-6.65 3.2-5.3.2-5.55-2.25-.3-2.45 3.95-3.6 2.6-.7 4.1-3.55 1.65-3.15.15-6.55-1.15-2.7-3.8-4.5-2.95-2.05-6.35-1.9-4.25.2-7.55 3.45-3 2.9-3.9 6.75"/><path fill="#5ea13a" d="m120.3 246.7-3.4-1.2-11.25-4.15q-5.75-2.45-9.75-5.1 11.7 1.8 19.7-.3 14.55 4.95 37.5 2.6-14.2 8.25-32.8 8.15"/><path fill="#0d131a" d="M24.45 83.15q-.1-.8.55-1.4.7-.6 1.1.35l.4 1.65q.1.9-.15 1.05-.3.15-1.05-.4-.8-.6-.85-1.25m13.5.85q-.25-.2.5-1.25.8-1.1 1.6-1.55.65-.35 1.2.2.5.6-.05 1.3-.45.7-1.8 1.1z"/><path fill="#6eb944" d="M119.95 189.25q1.15-7.95-.05-16.7-.95-7.3-3.05-12.35l28.45 34.1q-2.45 17.45-16.2 29.2-9.55 8.15-22.25 12.1-1.2 7.2-8 8.8-6.85 1.65-9.35-5.2-5.65 1-9.05-1.05-2.9-1.75-3.5-5.2-.6-3.15 1-6.1 1.7-3.1 4.7-3.9-1.95-1.75-1.35-5.4.6-3.8 3.25-5.15 4.7-2.35 9.25-.55 4.3 1.7 5.2 5.55 17.95-6.8 20.95-28.15"/><path fill="#5ea13a" d="m140.05 188 5.25 6.3q-2.4 17-17.85 29.55-9.75 7.9-20.6 11.6-.3 6.75-6.75 8.75-6.6 2.1-10.9-4.6l18.15-8q9.4-4.35 14.9-8.7 13.95-11.05 17.8-34.9"/><path fill="#fff362" d="M93.65 211.7q3.9 1.65 5.5 5.8l4.05-1.25q-1.25 4.95 1.3 10 3 5.95 9.7 6.5-2 1.1-7.45 2.8-.1 3.4-2.4 5.9-2.1 2.25-5.15 2.95-3.1.7-5.7-.55-2.8-1.4-3.85-4.75-5.6 1.35-9.05-.45-3.05-1.6-3.75-5-.65-3.2.95-6.25 1.65-3.2 4.85-4.2-2-1.8-1.65-5.15.4-4.05 4.75-6.15z"/><path fill="#ded255" d="m89.65 239.1-6.35.4q-3.15-.9-4.8-3.15-1.85-2.5-1-5.9-.5 3.7 4.6 4.95 5.05 1.25 9.25-1.55 3.95 2.05 8.7.7 2.8-.8 8.65-3.55 2.4 1.4 5.05 1.7l.4.1-4.05 1.6-3.35 1.15-.05.15-.25.1q-.15 3.25-2.05 5.55-3.3 3.65-8.1 3.25-5.05-.45-6.65-5.5"/><path fill="#0d131a" d="M115.95 160.5q-.9-2.45.1-2.45t1.65 1.8q7.2 19.65 1.6 36.75-5.5 16.7-20.1 21.7l-3.35.3q-.75-.55.25-.9l1.55-.8q-.75-2.75-4.65-4.2-4-1.5-7.15 0-2.7 1.35-3.5 3.95-.7 2.4.5 5.15l.75 1.65-1.85 1.05q-2.45 1.3-3.5 4.3-1.1 3.1.3 5.65 1.5 2.75 4.85 3.8l6.3-.15h.5l.3.45q.6 2.7 3 4.05 2.25 1.3 4.75.85 2.2-.35 4.45-2.05 2.75-2.05 3.2-4.9l-1.35.3q-1.1.25-1.5-.4-.4-.7 2.6-1.55 10.65-3.05 19.7-9.7 16.4-12.05 19-31l1.85.25q-2.5 18.1-17.1 30.3-9.75 8.1-21.45 11.5-.25 3.25-2.9 6.15-2.55 2.75-5.4 3.25-7.7 1.4-10.25-5.3-2.85 1.25-6.45.05-3.9-1.4-5.9-5.1-1.95-3.6-.2-7.6 1.65-3.75 5-4.85-2.1-3.65-.65-7.2 1.25-3.1 4.1-4.4 4.45-2 8.75-.4 4.2 1.55 5.75 5.6 12.85-3.65 17.9-21.1 5-17.3-1.45-34.8M183 181.95l-.5 5.85q.1 2.6-1.45 4.4-1.5 1.8-4.45 2.55-7.3 1.85-18.2-2.35-11.25-4.3-14.5-10.85l-2.35-.2q-1.85-3.7-.4-15.05 1.65-13.1 7.2-19.95 3-3.65 7.25-5.35 4.55-1.85 9-.65 18.4 4.85 18.4 41.6"/><path fill="#6eb944" d="M176.15 192.95q-5.35 1.35-19.3-5.45l-12.9-7.1q-1.7-3.3-.05-14.35 1.8-12.65 6.95-19 5-6.1 13.1-4 10.95 2.9 14.55 16.25 2.1 7.65 2.1 23.6l.05 4.95q.1 4-4.5 5.1"/><path fill="#5ea13a" d="m180.6 182.9.05 4.95q.1 4-4.5 5.1l-10.8-.4q5.85-12.65 5.1-27.25-.8-16.05-9.7-22.75l3.2.5q10.95 2.9 14.55 16.25 2.1 7.65 2.1 23.6"/><path fill="#0d131a" d="M162.2 174q6.1.9 11.15 6.9 7.75 9.2 6.9 26.25-.85 16.65-6.55 27.45-5.55 10.4-12.9 10.4-5.15 0-8.15-4.2-4.35-6.05-5.9-21.75-.55-5.55-2.2-12.2L142 196.7q-1.5-6.8-1.6-10.35-.05-3.85 1.4-6.1 2.65-4.15 9-5.8 5.25-1.35 10.55-.6z"/><path fill="#6eb944" d="M171.7 183.1q6.6 7.65 5.85 23.6-.65 13.45-4.3 22.6-3 7.55-7.4 10.9-2.15 1.7-4.35 1.25-6.1-1.35-8.15-4.35-3.05-4.55-4.65-18.9-.6-5.7-1.75-11.25l-2.1-9.15q-1.65-7.35-2-10.2-.55-4.35.55-6.05 1.85-2.9 6.7-3.9 4.9-1 11.9 0 5.7.8 9.7 5.45"/><path fill="#0d131a" d="M149.75 229.55q0-6.25 3.2-11 3.2-4.7 7.3-4.7t7.05 4.7q2.9 4.65 2.9 11 0 6.25-2.9 10.7-2.95 4.45-7.05 4.45-4.15 0-7.3-4.45-3.2-4.5-3.2-10.7"/><path fill="#fff362" d="M151.95 229.1q0-5.45 2.4-9.3 2.35-3.85 5.7-3.85t5.7 3.85 2.35 9.3-2.35 9.3-5.7 3.85-5.7-3.85q-2.4-3.85-2.4-9.3"/><path fill="#ded255" d="M160.05 242.25q-2 0-3.7-1.5-1.7-1.4-2.85-3.9 6.05 1.9 10.25-3.95 4.05-5.7 2.4-12.4 1.95 3.75 1.95 8.6 0 5.45-2.35 9.3t-5.7 3.85"/><path fill="#0d131a" d="M133.45 185.55q0-4.2 2.85-7.1 2.8-2.95 7-2.95 4.25 0 7.35 2.95 3.15 2.95 3.15 7.1 0 4.25-3 7.2-2.95 3-7.2 3-4.2 0-7.15-3-3-2.95-3-7.2"/><path fill="#fff362" d="M135.15 185.4q0-3.45 2.45-5.85 2.4-2.45 5.85-2.45 3.4 0 5.85 2.45 2.4 2.4 2.4 5.85 0 3.4-2.4 5.85-2.45 2.4-5.85 2.4-3.45 0-5.85-2.4-2.45-2.45-2.45-5.85"/><path fill="#ded255" d="M139.1 192.45q-1.9-1.15-2.95-3.15 6.95 3.8 10.55-1.6 1.4-2.15 1.6-4.95.2-2.75-.9-4.65 1.95 1.05 3.1 3 1.2 2 1.2 4.3 0 3.4-2.4 5.85-2.45 2.4-5.85 2.4-2.35 0-4.35-1.2"/><path fill="#0d131a" d="M165.95 186.95q0-4.25 3.05-7.3t7.3-3.05q4.3 0 7.35 3.05 3.05 3 3.05 7.3t-3.05 7.3q-3.05 3.05-7.35 3.05-4.25 0-7.3-3.05-3.05-3-3.05-7.3"/><path fill="#fff362" d="M167.85 186.75q0-3.4 2.45-5.85 2.4-2.45 5.85-2.45 3.4 0 5.85 2.45 2.4 2.45 2.4 5.85 0 3.45-2.4 5.9-2.45 2.4-5.85 2.4-3.45 0-5.85-2.4-2.45-2.45-2.45-5.9"/><path fill="#ded255" d="M183.05 182.25q1.35 2.05 1.35 4.5 0 3.45-2.4 5.9-2.45 2.4-5.85 2.4-3.45 0-6-2.55 4.45 1.3 8.3-1 4.65-2.7 4.6-9.25"/><path fill="#0d131a" d="M164.75 165.9q3.25 3.1 3.25 7.5 0 4.45-3.15 7.6-3.2 3.15-7.65 3.15t-7.65-3.35q-3.15-3.3-3.15-7.8 0-4.4 3.1-7.3 3.05-2.85 7.55-2.85t7.7 3.05"/><path fill="#fff362" d="M163.3 179.65q-2.6 2.55-6.2 2.55t-6.15-2.55q-2.6-2.6-2.6-6.2t2.6-6.15q2.55-2.6 6.15-2.6t6.2 2.6q2.55 2.55 2.55 6.15t-2.55 6.2"/><path fill="#ded255" d="M163.75 167.8q2.1 2.5 2.1 5.65 0 3.6-2.55 6.2-2.6 2.55-6.2 2.55-3.9 0-6.5-2.95 5.3 2.05 9.85-1.65 4.7-3.8 3.3-9.8"/><path fill="#922f00" d="M36.6 90.55q17.75 3.65 38.55 18.25 16.4 11.45 20.85 18.05-4.95 11.6-14.85 19.85-8.8 7.35-19.45 10.5-10.15 3-18.1 1.15-8.2-1.9-10.5-8.2-1.35-3.65-.7-9.45.6-5.45 2.75-10.8-5.6-5.1-9.65-12.55-3.85-7.1-5.3-14.35-1.5-7.65 3.55-11 4.65-3.1 12.85-1.45"/><path fill="#6a1a00" d="M52.3 111.8q3.55-5.15 9-6.7 5-1.4 9.9.5 2.8 1.75 5.2 3.65l4.9 3.95q7.45 5.65 11.65 10.1 3.15 3.35 3.15 4.4v.05q-3.15 5.2-15.1 12.85-15.2 9.75-30.65 12.3-7-28.2 1.95-41.1"/><path fill="#ed8599" d="M70.55 122.05q11.35-.95 22.1 1.25l3.5 3.85Q86.6 145.7 69.3 153.9q-16.1 7.55-29.9 2.6-3.25-17.1 8.35-26.55 8.15-6.6 22.8-7.9"/><path fill="#ce7486" d="M43.8 133.3q7.25-5.65 7.65-5.9 8.4-4.85 21.45-5.5 10.15-.55 19.75 1.4l3.5 3.85-2.75 4.8q-2.4 4.25-5.05 7.2-8.55-5.9-21.5-7.9-13.95-2.2-23.05 2.05"/><path fill="#0d131a" d="M77.6 122.75q-10.75.3-19.35 3.3-23.25 8.15-17.8 30.6l-1.75-.25q-5.9-21.9 15.35-31 8.35-3.55 19.2-4.25 9.9-.65 18.05 1.25l1.75 1.8q-6.1-1.7-15.45-1.45"/><path fill="#0d131a" d="M35.9 91.75q-8-1.6-11.85 1.45-4.1 3.2-2.55 10.95 1.15 5.85 4.65 12.1 2.95 5.25 8.05 11.6l1.55 2.1q.2.6-.55 2.2-2.6 5.75-2.2 12.35.5 8.25 6.3 10.85 5.1 2.3 12.75 1.8 7.75-.55 15.75-3.95 19-8.1 27.2-26.05-11.9-12.75-28.8-22.8-16.5-9.75-30.3-12.6m-11.6-1.4q5.55-2.6 15-.15 18.05 4.75 36.95 18.15 14.1 9.95 20.15 17.5l.15 2.15q-7.35 18.7-27.5 27.4-8.65 3.7-17.05 4.15-8.45.45-14.2-2.55-5.6-2.9-6.55-11.1-.9-7.85 2.75-15.65-6.35-7.65-8.95-11.95-5.25-8.65-6-17.1-.7-8 5.25-10.85"/><path fill="#0d131a" d="M121.6 119.2q2.3 5.3.6 11.15-1.9 6.55-7.15 9.6-5 2.9-10.25 1.25-5.65-1.7-8.25-6.8-2.8-5.4-.75-12.05 1.75-5.7 7.05-8.9 5.35-3.2 10.75-1.55 5.55 1.7 8 7.3"/><path fill="#f4b1b1" d="M98 123.2q1.55-5.1 5.8-7.85 4.45-2.9 9.35-1.4 4.5 1.35 6.45 6.1 1.85 4.6.3 9.8-1.6 5.25-5.9 8t-8.9 1.35q-5.2-1.55-7-6.75-1.55-4.45-.1-9.25"/></svg>