<svg xmlns="http://www.w3.org/2000/svg" width="273" height="190" viewBox="-0.7 0 273.45 189.9"><path fill="#0d131a" d="M86.2 166.25q0-10.15 3.9-16.05 4-6.05 10.95-6.05 7 0 12 7.05 5 7 5 16.9 0 10.4-4.6 16.3-4.05 5.2-10 5.2-6.45 0-11.55-6.15-5.7-6.85-5.7-17.2"/><path fill="#6cba5a" d="M88.45 165.1q0-8.9 3.5-14.2 3.5-5.35 9.4-5.35 5.95 0 10.2 6.3T115.8 167q0 9.3-3.2 14.55t-8.85 5.25q-6.1 0-10.7-6.5-4.6-6.55-4.6-15.2"/><path fill="#5da24d" d="M112.9 181q-5.2-5.2-10.9-7.95-6.5-3.1-13.05-2.75-.5-2.85-.5-5.2 0-8.9 3.5-14.2 3.5-5.35 9.4-5.35 5.95 0 10.2 6.3T115.8 167q0 8.75-2.9 14"/><path fill="#0d131a" d="M166 154.6q4.55 5.8 4.55 14.7 0 9.45-3.6 15-3.6 5.6-9.75 5.6-6.5 0-11-6.55-4.4-6.4-4.4-15.5 0-9.15 3.4-14.05t9.8-4.9q6.55 0 11 5.7"/><path fill="#6cba5a" d="M165.45 182.4q-2.9 4.7-8 4.7-5.45 0-9.6-5.85-4.1-5.85-4.1-13.65 0-8 3.15-12.75 3.15-4.8 8.4-4.8 5.35 0 9.2 5.65 3.8 5.6 3.8 13.6 0 8.35-2.85 13.1"/><path fill="#5da24d" d="M164.5 155.7q3.8 5.6 3.8 13.6 0 8.45-3 13.25-6.65-2.75-18.5-3.05-3.05-5.5-3.05-11.9 0-8 3.15-12.75 3.15-4.8 8.4-4.8 5.35 0 9.2 5.65"/><path fill="#0d131a" d="M255.1 76.95q8.3 5.2 12.9 10.65 4.75 5.65 4.6 10.6-.2 8.7-15.25 16.95-19.2 10.55-37.85 8.7-13.1-1.3-19.75-6.8-1.95-1.65-6.8-10.2-5.3-9.3-9.8-19.55-12.25-28.25-7.45-37.9 1.15-2.25 4.1-3.05 3.45-1 8.55.2 10.5 2.45 36.15 14.6 22.15 10.55 30.6 15.8"/><path fill="#6cba5a" d="M268.5 97.6q-.25 7.7-13.05 14.7-17.4 9.55-34.45 8.75-13.2-.6-19.6-5.95-1.85-1.5-6.5-9.85-5-8.9-9.35-18.95-11.8-27.2-7.55-35.75 1.9-3.75 9.65-2Q197.8 50.9 223.4 63.6q21.2 10.5 30.4 16.2 14.95 9.35 14.7 17.8"/><path fill="#5da24d" d="M201.4 115.1q-1.9-1.55-6.7-10.15-5.15-9.3-9.55-19.55 20.8 14.45 41.3 19.65 24.75 6.3 41.2-3.75-2.55 5.7-12.2 11-17.4 9.55-34.45 8.75-13.2-.6-19.6-5.95"/><path fill="#0d131a" d="M207 67.7q13.05 12.1 20.1 26.35 7.5 15.1 6.65 29.5-1.45 24.55-25.2 38.6-22.85 13.55-58.55 13-36.95-.55-64.3-16.05-29.8-16.9-29.8-42.7 0-12.35 6.35-25.2 6.1-12.4 17-23.2 13.15-13 30.6-20 17.55-7 36.3-6.8 15.75.15 32.15 7.5 15.7 7 28.7 19"/><path fill="#6cba5a" d="M225.55 97.85q5.4 12.55 4.7 24.05-1.45 24.05-22.9 37.5-21 13.1-56.2 13.1-35.8 0-62.7-14.95-29.1-16.15-29.1-40.9 0-12.1 5.65-24.35 5.7-12.25 16-22.5 12.8-12.65 29.8-19.45 17.05-6.85 35.3-6.65 16.75.2 33.6 8.25 16.85 8 29.95 22.05 10.5 11.35 15.9 23.85"/><path fill="#5da24d" d="M81.85 76.75q3.7-3.65 8.3-7.2 8.7 7.4 8.35 19.25-.35 10.9-7.75 20.5-2.9 3.75-14.35 11.2-11.45 7.4-14.05 10.8-1.35-3.1-2.1-6.55l-.05-1.2q0-12.1 5.65-24.35 5.7-12.25 16-22.45M209.65 74l.15.2q-10.6 8.1-27.15 11.25-15.75 3-33 .8-17.5-2.15-31.55-9-15.05-7.35-22.6-18.4 11.15-7.05 24.1-10.7 13-3.65 26.5-3.55 18.25.25 36.4 8.7 15.25 7.95 27.15 20.7m18.95 52.75 1.65-4.8q-1.45 24-22.9 37.45-21 13.1-56.2 13.1-18.95 0-37.25-5.25 61.35 8.55 104-26.4 7.2-5.9 10.7-14.1"/><path fill="#6cba5a" d="m92.25 46.25 4.45 2q5 2.85 7.8 7.05 8.85 13.4-8 35.25-14.45 18.7-27.6 27.35-9.75 6.45-16.5 6.2-11.25-.45-23.6-6.7-10.6-5.35-18.9-13.25Q.3 95 1.95 87.65q1.5-6.9 13.5-14.75 13.5-8.85 36.25-16.4 19.85-6.55 40.55-10.25"/><path fill="#0d131a" d="m92.05 45.55.4 1.95q-30.1 4.75-56.4 16.1-30 12.95-32.1 25.9-.45 2.85 3.35 7.9 3.75 5.05 10.25 10.15 15.8 12.45 31.8 14.2 9.5 1.05 20.5-6.95 9.55-6.95 25.7-25.1 3.6-4.05 3.9-2.75.3 1.2-2.25 4.4-15.15 18.7-23.15 25.2-12.7 10.35-25.45 9-16.25-1.75-33.1-14.4-7.6-5.75-11.75-11.6Q-.7 93.3.1 88.45q2.35-14.25 36.75-27.8 27-10.65 55.2-15.1m32.4 65.85q.3-3.05 2.45-5.05 2.2-2.05 5-1.95 3.1.05 5.1 2.5 1.95 2.4 1.8 5.6-.15 3.4-2.1 5.55-2.05 2.35-5.3 2.25-3.3-.05-5.35-2.85-1.95-2.65-1.6-6.05"/><path fill="#ef8200" d="M126.15 112.15q.1-2.75 1.75-4.45 1.65-1.65 4-1.6 2.15.1 3.7 2 1.6 1.9 1.5 4.35-.05 2.5-1.65 4.3-1.65 1.85-3.95 1.75-2.25-.05-3.85-1.95-1.55-1.9-1.5-4.4"/><path fill="#0d131a" d="M185.9 111.35q-.4-3.45 1.35-5.85 1.6-2.25 4.45-2.65 2.7-.35 5.1 1.8 2.3 2 2.75 4.75.6 3.5-.95 5.95-1.5 2.35-4.4 2.85-2.8.5-5.35-1.55t-2.95-5.3"/><path fill="#ef8200" d="M187.6 111q-.3-2.6.95-4.45t3.4-2.1q2.1-.2 3.85 1.4 1.65 1.6 2.05 4t-.6 4.2q-1.1 1.95-3.45 2.4-2.1.35-3.95-1.25-1.95-1.65-2.25-4.2"/><path fill="#6cba5a" d="M203.8 145.25q2.25-3.25 6.25-6.25 4.15-3 7.4-3.7 3.7-.8 4.6 1.9l4.45 13.65q1.7 8.5-3.25 12-4.5 3.2-11.3-1.65-5.6-3.95-9.4-10.35-1.2-2 1.25-5.6"/><path fill="#0d131a" d="M222.3 140.4q-1.3-3.5-.4-3.6t2.2 2.8q3.55 7.6 4 14 .55 7.7-3.9 10.45-4.7 2.95-10.75-.4-5.5-3.05-9.6-9.55-2.05-3.2-1.3-3.55.75-.4 3.4 3 4.15 5.3 8.55 7.6 4.55 2.35 7.9.75 2.75-1.35 3.05-6.25.35-5.9-3.15-15.25"/><path fill="#6cba5a" d="M113.4 148q4.9 3.25 7.35 6.95 2.75 4.1.5 6.3l-4.6 5.05-4.65 4.5q-5.45 4.1-10.7-.25-4.55-3.8-4.45-9.5.05-1.6 2.35-13.4.75-3.8 5.25-3.35 3.9.4 8.95 3.7"/><path fill="#0d131a" d="M98.6 147.35q1.25-3.55 1.95-3.25.75.3-.15 4-2.2 9.25-1.1 15.3 1 5.55 4.55 7.3 3.2 1.55 8.05-1.4 4.95-3 8.4-8.9 1.35-2.25 1.9-1.7t-.55 3.25q-2.25 5.35-7.25 9.2-6.1 4.6-11.45 2.25-5.3-2.35-6.4-9.95-1.05-7.25 2.05-16.1m104.25-21.25q1.5-2.75 2.2-2.15.6.55-.1 2.5-1.15 3.25-6.35 5.4-5.65 2.3-12.6 1.65-3.95-.3-9.65 2.25l-3.85 1.6q-2.45.85-5.35 1-5.8.3-11.5-1.7-6.9-2.35-13.5-1.1-7.85 1.5-15.1-.35-7.4-1.9-9.6-6.05-.85-1.65-.05-2 .8-.4 2.2 1.35 2.45 3.15 8.85 4.35 6.15 1.2 13.6.15 7.4-1 14.15 1.45l5.25 1.15 5.6.2q3.9-.3 8.7-2.5 5.4-2.5 10.5-2.05 6.3.6 11.4-1.45 4.1-1.65 5.2-3.7"/><path fill="#fff" d="M133.5 109.65q-.05 1.05-.85 1.8t-1.8.75q-1-.05-1.75-.8-.8-.85-.75-1.9t.85-1.85q.8-.75 1.8-.7t1.75.85q.8.8.75 1.85m60.4-1.75q.05 1.05-.7 1.8-.65.7-1.6.75-1 .05-1.7-.6-.8-.65-.85-1.7t.65-1.8q.7-.65 1.65-.75.95-.05 1.7.6.8.7.85 1.7"/><path fill="#ffe45f" d="M164.5 24.95q-7.3 6.5-12.5 9.35l-3.25 1.9q-2.15 1.3-3.8 1.05-1.75-.25-5.15-2.35l-.95-.8q-4.8-3-12.8-13.8-7.8-10.55-7.9-13.6l1-1.7q1.55-1.6 7.1-2.65 5.85-1.15 13.2-1.1 11.05.1 21.2 2.2 9.9 2.1 12.35 4.75l1 1.9q.45 1.3.25 2.15-.9 4.75-9.75 12.7"/><path fill="#0d131a" d="M164.9 26.3q-7.25 6.15-13.05 9.3l-2.15 1.2q-2.85 1.75-4.55 1.7-2.15-.05-6.25-2.65-4.8-3-12.95-13.6Q117.65 11.4 117 6.8q-.1-.75.05-1.15l.6-.8q2.4-2.5 9.75-3.85l12-1q11.05.1 21.2 2.3 10.7 2.35 13.8 5.75 1 1.05 1.25 2 .35 1 .05 2.4-1.05 5.55-10.8 13.85m7.4-17.25q-2.35-2.6-12.05-4.45-9.65-1.9-20.9-1.95l-12.85.8q-5.25.9-6.75 2.45l-.05.4q.1 3.05 7.9 13.65 8.05 10.85 12.85 13.85 3.35 2.05 4.55 2.2 1 .1 3.2-1.25l2.25-1.3Q156 30.4 163.1 24.4q9.05-7.65 9.95-12.35.3-1.8-.75-3"/><path fill="#ffe45f" d="m132.9 37.75-8.6-1.35q-17.4-2.75-25.7-4.8-15.7-4-15.85-8.45L83 20.9q.25-1.75 1.8-3.8 1.6-2.1 4.1-3.8 5.4-3.75 14.85-6.5 8.65-2.45 12.55-2 4.55.55 13.8 11.75 9.55 11.5 9.75 17.7 0 1.4.75 2.7l-.9 1.7zm76-7.25q-.2 8.5-43.85 9.65l-8.25.1q-4.85.25-5.65.1l-1.8-.8 1-1.85.8-2 .9-1.7q1.2-6.05 11.55-15.15Q173.65 10 178.3 10q4.75.05 12.8 3.7 8.2 3.7 12.9 8.1 2.2 2 3.6 4.5 1.35 2.45 1.3 4.2"/><path fill="#0d131a" d="m141.5 35.85.65 1.4q.2.9-.35 1.55-.7.85-2.4.9l-6.85-.85-7.7-1.25q-16.95-2.65-24.45-4.35Q88.35 30.5 84 27.1q-3.15-2.5-2.55-6.35.65-4.2 5.75-7.75 6.05-4.25 15.85-7.05 8.85-2.5 13.2-1.95 5.85.7 15.2 12.25 9.4 11.6 9.6 18.55zm-2.4 1.2q-.8-1.5-.8-2.15-.2-6.25-9-17.45-8.65-11-13.15-11.55-3.75-.5-11.95 2-8.85 2.7-14.35 6.5-5 3.6-5.55 7.05v.45q.15 4.5 15.55 8.45 8.4 2.1 25.45 4.8l7.85 1.3 6.05.75zm70.85-5.6q-2.05 5.7-15.25 7.8-8.4 1.35-30.15 1.9l-7.85.25q-4.8.3-6.6-.05-1.35-.25-1.95-1.2-.65-1.1.8-2.9.25-.3.05-.95h.6q1.35-6.9 12.15-17.15 10.75-10.25 16.6-10.2 5.1 0 12.8 3.15 8.6 3.5 14.05 8.6 2.6 2.45 4.05 5.6 1.4 3.2.7 5.15m-7-8.8q-4.8-4.45-12.4-8.1t-12.25-3.7q-4.55-.05-14.85 9.75-10.55 9.95-11.75 16.1l-1.15 2.05-.15.15q1.4.25 6.15 0l7.95-.25 26.55-1.6Q207.2 35 207.3 30.3q.1-3.55-4.35-7.65"/><path fill="#ffe45f" d="M132 42.3q-8.15 5-27.15 8.45-20.95 3.8-30.9.25-2.75-1-4.15-5.6-1.4-4.65-.05-8.75 1.85-5.6 7.8-9.45 6.8-4.4 15.5-3.7 14.2 1.15 28.5 6.9 13 5.25 13.95 8.7l-.6 1q-.95 1-2.9 2.2m87.4 5.1q.6 4.35-1.4 9.15t-4.8 5.65q-7.7 2.35-26.8-3.2-20.35-6-30.95-15.25l-1-1.45q-.25-.2.55-1.8 1.55-3.25 14.95-6.35 14.7-3.4 28.95-2.5 8.8.55 14.6 5.6 5.1 4.4 5.9 10.15"/><path fill="#0d131a" d="M135.45 41.75q-12.9 8.05-34.3 11.05-20 2.8-27.75-.9-3.65-1.75-5.05-5.9-1.45-4.35.2-9.45 2.1-6.4 7.95-10.2 6.8-4.45 16.7-3.65 18.5 1.45 31.9 7.95 10.05 4.8 11.75 8.65.6 1.2-1.4 2.45m-1.35-2.55q-1-3.45-13.15-8.35-13.55-5.4-27.75-6.55-8.65-.7-14.6 3.35-5 3.45-6.9 9.15-1.35 4.15-.5 7.9.9 3.75 3.5 5 7.15 3.4 26.45.6 20.55-3 32.75-10.6zm86.3 8.45q.75 5.45-1.05 9.85-1.9 4.5-5.65 5.65-8.3 2.55-27.8-3.15-20.8-6.15-32.05-15.95-.95-.9-1.05-2.05 0-.6.3-1.3 2.1-4.25 16.3-7.3 14.35-3.15 29.5-2.5 9.7.4 15.25 4.95 5.25 4.25 6.25 11.8m-7.9-9.45q-5.1-4.85-13.85-5.4-14.2-.9-28.5 2.55-12.9 3.1-14.55 6.35-.1.3.15.5 10.6 9.25 30.4 15.15 18.5 5.5 26.2 3.15 2.8-.8 4.35-4.4t.95-7.9q-.8-5.9-5.15-10"/><path fill="#ffe45f" d="m139.4 46.7-3.2 3.1q-2.3 2.65-5.2 7.45-3.35 5.55-7.8 9.15-5.7 4.6-11.2 4.2-7.1-.5-17-3.9-11.05-3.8-13.5-7.55-.5-.8-.3-2.2l.45-1.4q4.4-8.95 26.05-12.3 17.5-2.75 28.4-.85 1.8.3 3.25 1.2l1.25 1.05q.25.65-1.2 2.05m35.85 27.75q-9.15-.3-15.5-15.05l-2.35-4.3-2.5-3.85-2.15-3.4q-.75-1.5-.35-2.15.2-.3 1.45-.75l3.55-.75 2.25.1q9.25-.5 26.75 5.5 18.9 6.55 23.4 13.45l.3 1.45q.1 1.25-.2 1.7-2.15 3.25-15.2 5.9-11.95 2.45-19.45 2.15"/><path fill="#0d131a" d="m141.55 46.95-3.65 3.75q-3.75 4.25-5.5 7.15-4.45 7.3-9.2 10.7-4.95 3.55-10.55 3.15-8.15-.6-18-3.75-11.55-3.7-14.35-8-1.3-2-.35-4.15t4.5-5.1q9.2-7.5 29-9.35 14.35-1.3 23.25.25l3.2.6q1.8.55 2.3 1.85.6 1.45-.65 2.9m-5.4-3.45q-10.9-1.9-28.05.7-21.35 3.2-25.75 12.15-.55.9.35 2.25 2.45 3.75 12.95 7.05 9.15 2.9 16.5 3.45 9.85.75 17.85-12.45 1.6-2.6 5.7-7.5.85-1 2.95-2.65 1.25-1 1-1.6-.35-.9-3.5-1.4m29.7 28.1q-4-3.75-7.5-11.8-1.1-2.6-4.4-7.75L151 48q-.95-1.6-.15-3 1.25-2.1 5.9-2.35l.05.55q9.5-.55 28.3 5.4 21.05 6.7 26.1 14.4 1.65 2.55 0 4.65-1.5 1.9-6.2 3.95-5.7 2.5-15.65 3.5l-14.05.45q-5.45-.2-9.45-3.95m28.2-.4q12.3-2.4 14.45-5.65.5-.75.1-1.35-4.5-6.9-24.15-13.5-18.2-6.1-27.5-5.55-3.2.15-3.7 1-.3.6.65 1.7l2.4 2.95q3.3 5.15 4.6 8.05 3.2 7.4 6.6 10.7 3.35 3.3 7.9 3.5 7.6.3 18.65-1.85"/><path fill="#ffe45f" d="M170.4 74.95q-1.75 2.45-8.8 3.65l-18.95.85Q135 79.2 129.6 77.5q-5.25-1.6-6.65-4.05-2.4-4.15 5.45-15.5 4.95-7.15 9.7-10.55 4.8-3.35 8.75-2.5 5.1 1.15 10.65 5.4 6.35 4.9 10.3 11.95 3.6 6.55 3.75 9.5 0 1.4-1.15 3.2"/><path fill="#0d131a" d="m164.1 79.75-21.1.9q-8.9-.35-14-1.85-5.35-1.55-7.1-4.55-1.85-3.25.4-8.45 1.3-3.1 5.45-9.15 5.1-7.4 10.8-10.95 5-3.15 8.6-2.35 4.3.95 10 5.3 7.3 5.65 11.9 13.8 2.55 4.5 3.3 7.15 1.05 3.9-.65 6.3-1.9 2.7-7.6 3.85m2.8-16.2q-4.05-7.2-10-12.15-5.45-4.5-10.4-5.6-3.95-.85-8.05 2.1-4 2.9-9 10.1-3.75 5.45-4.95 9.05-1.15 3.6.15 5.8 2.75 4.8 18.15 5.3 23.4.8 26.7-3.9.75-.95.65-2.4-.05-2.65-3.25-8.3"/><path fill="#0d131a" d="M166.85 32.15q6.6 4.15 6.3 8.9-.2 4.3-6.9 7.75-7.95 4.1-20.3 3.6-12.8-.55-20.1-5-6.25-3.85-6-8.65.3-5.15 7.3-8.5 7.75-3.8 20.35-3.25 11.9.5 19.35 5.15"/><path fill="#fff" d="M162.85 47.85q-7.35 2.9-17.15 2.5-6.7-.3-12.3-2.1-5.65-1.85-8.7-4.7-2.65-2.4-2.5-5.05.25-4.4 7.55-7.3 7.35-2.9 17.15-2.5 6.65.25 12.35 2.1 5.65 1.8 8.7 4.65 2.6 2.45 2.45 5.05-.2 4.4-7.55 7.35"/><path fill="#dbdcdc" d="M167.95 35.45q2.6 2.45 2.45 5.05-.2 4.4-7.55 7.35-7.35 2.9-17.15 2.5-6.7-.3-12.3-2.1-5.65-1.85-8.7-4.7l-1.35-1.5q13.3 5.4 27.8 2.8 14.9-2.7 13.85-11.5 1.75 1 2.95 2.1"/></svg>