<svg xmlns="http://www.w3.org/2000/svg" width="303" height="173" viewBox="-1.35 -0.75 302.85 173.35"><path fill="#fff" d="M249.65 80.3q16.45-5.65 26.3-6.75 25.55-2.8 21.3 7.95-7.9 19.65-56.5 31.85-16.55 4.15-35.55 6.85l-21.55 2.3 4.45-1.1q4.7-1.25 6.2-2.1 1.45.65 3.1.6 2.6-.05 4.3-1.9 7.5-2.1 12.95-9.6 5.5-7.55 5.85-16.35 14.45-6.7 29.15-11.75"/><path fill="#f2984f" d="M247.15 95.55 260.4 76.9q9.35-2.65 15.55-3.35L286.4 73q-27.35 32.85-30.25 35.95-10.4 3.45-22.9 6.2z"/><path fill="#0d131a" d="M276.05 74.15q-9.9 1.1-26.4 6.75-14.6 5.05-28.9 11.65-.2.1-.45-.65-.3-.7-.05-.8 14.6-6.8 29.2-11.9 16.9-5.85 26.8-6.95 18-2 21.65 2.75.85 1.15.95 3.15.1 1.95-.6 3.8-8.15 20.1-56.2 32.15-16.55 4.15-35.7 6.75l-22.65 2.25q-.25 0-.3-.6 0-.6.25-.6l21.5-2.3q19.05-2.7 35.4-6.8 20.4-5.15 33.95-11.85 17.85-8.85 22.2-19.7 1.2-3.05-.15-4.75-3.1-4.25-20.5-2.35"/><path fill="#0d131a" d="m259.55 76.85 1.8-.35-27 38.3-1 .3-.7-.1 12.55-18.25q12.3-17.7 14.35-19.9M286 72.5l.95-.1.6.35q-23.15 28.35-30.6 36.4-.35.35-1.25.3-.9 0-.65-.2l15.4-18.1z"/><path fill="#fff" d="M204.5 130.2q-11.2-1.25-23.05-4.45l2.45-3.85 2.25-3.6q40.6-9.8 59.6-9.7 13.6.1 15.45 5.25 1.95 5.4-4.4 10.45-7.65 6.1-23.5 6.7-16.1.55-28.8-.8"/><path fill="#f2984f" d="m237.2 130.9-3.9.1-13.1.3q14.1-19.5 16.3-22.35 5.15-.45 11.85-.1l5.95.4z"/><path fill="#dbdcdc" d="M201.95 129.95q-10.4-1.5-20.5-4.2l2.2-3.25q.3-1.05 1.75-2.7 1.55-1.85 2.55-2 6.4 4.4 25.35 13z"/><path fill="#0d131a" d="M235.55 109.15q.2-.2 1.15-.3l.8.05-8.1 11.25q-7.65 10.75-8.5 11.55h-.75q-.65-.1-.5-.3l7.6-10.75zm2.15 22.25-.75-.1q-.55-.3-.35-.45.85-.7 16.4-21.35.2-.2 1.05 0 .85.15.65.35-15.35 20.25-17 21.55"/><path fill="#0d131a" d="M233.4 131.85q-15.25.55-27.65-.75-12.25-1.3-25.05-4.75-.25-.05.3-.6.5-.5.65-.45 12.45 3.3 24.75 4.5 11.8 1.15 26.9.6 10.1-.35 17.05-3.25 7-2.85 9.2-7.55 2.65-5.55-2.75-8.25-5.65-2.85-19.1-1.8-11.7 1-28.25 4.35l1.95-1.75q14.9-2.95 26.15-3.95 16.95-1.6 22.45 2.9 4.1 3.35 1.3 9.25-1.85 3.8-6.95 6.65-7.8 4.35-20.95 4.85"/><path fill="#fff" d="M139.85 95.75q-5.6 1.6-9.7 4.7l-3 2.75Q103.7 92.05 81.6 79.95 45 60 30.6 47.05q-8.8-7.9-14.3-17.9Q11 19.4 11.1 11.9q.15-8 6.65-10.05Q25.1-.5 39 5.5q26.75 11.55 54.95 37 24.8 22.4 44.9 49.95z"/><path fill="#f2984f" d="M30.6 47.05q-4.3-3.85-8.05-8.55l.65-1.5 7-17.8 5.75-14.95L39 5.5q12.7 5.45 25.9 14.25L51.6 49.7l-4.45 9.8Q37 52.8 30.6 47.05"/><path fill="#dbdcdc" d="M115.35 97.65q-8.6-4.2-19.9-10.25l23.2 1.35 16.6-.8q1.9 1.85 2.7 3.2 1 1.65 1.8 4.5-6.15 1.55-10 4.7l-2.6 2.85z"/><path fill="#0d131a" d="m138.65 90.95.55 3q-19.6-27-44.05-49.45-29-26.6-56.35-38.45-9.7-4.15-16.3-4.2-6.55-.1-9.15 4-4 6.2 1.4 18.6Q20.1 36.8 31 46.6q14.95 13.45 54.4 34.7 21.55 11.65 42.25 21.45.25.1-.35.6t-.85.4q-23.85-11.3-45.4-23Q43.9 60.6 29.3 47.5 17.85 37.25 12.4 24.35 6.95 11.5 11.2 4.8 13.7.85 19.9.15q7.95-.9 19.7 4.15 26.9 11.6 54.6 36.6 25 22.55 44.45 50.05"/><path fill="#0d131a" d="m35.25 3.9.75-.05q.7.2.6.4Q23.9 37.2 23.05 38.8q-.1.25-.65 0-.5-.25-.4-.5l6.1-16.25Q34.15 6 35.25 3.9m29.1 15.65q.1-.2.75 0t.55.4L47.8 59.75l-.65-.05q-.5-.3-.4-.5L55 40.3q8.35-19.05 9.35-20.75"/><path fill="#fff" d="M1.7 44q3.65-7.95 15.55-7.55 11.3.35 24.45 7.85 24 11.65 57.8 34.2 25.85 17.25 30.45 21.4-2.2 2.4-3.55 4.5-1.45 2.2-2.3 4.5-58.5-10.3-95.55-31.25-17.45-9.9-24.1-19.4Q-1.2 50.2 1.7 44"/><path fill="#f2984f" d="M24.8 37.4q8.05 2.85 13.25 5.15 6.6 2.95 13.85 7.35l-7.05 16.8-6.65 16.05q-4.85-2.45-9.65-5.1-8.85-5-15.25-10.25L19 52.45z"/><path fill="#dbdcdc" d="m103.1 97.6 19.3-3.1 7.55 5.4q-2.4 2.4-3.8 4.5-1.4 2.15-2.05 4.5-10.8-1.95-44.4-9.9 10.2.35 23.4-1.4"/><path fill="#0d131a" d="m23.9 37.65.9-.05q.8.15.7.4L13.7 68.1q-.05.25-.6-.15-.5-.4-.45-.65 1.05-3.65 6-16.45zm14.7 45.7-.65.05q-.55-.25-.45-.45 1-2.9 4.6-11.2l9.5-22.05q.1-.25.65.2.6.4.5.6z"/><path fill="#0d131a" d="M24.6 38.35q-6.65-1.95-12.8-.65-7.05 1.45-9.05 6.7-2.3 6.1 3.3 14.1 6.6 9.45 22.8 18.65 36.75 20.8 95.55 31.15.25.05-.05.6l-.5.55q-28.75-4.5-53.45-12.5-24-7.75-42.5-18.2Q8.4 67.7 2.4 56.4-1.35 49.3.6 44.1q2.55-6.7 10.45-8.35 6.45-1.4 13.9.8 16.65 4.8 48.15 23.8 30.15 18.15 57.65 39.35.25.2-.25.85-.55.6-.8.4-27.2-20.9-57.35-39-31.2-18.7-47.75-23.6"/><path fill="#e95550" d="M73.3 129.5q-5.15-.65-8.6-3.4-3.35-2.8-3.25-6.15-12-1.1-21.3-3.7-12.1-3.4-11.75-7.7.3-3.55 14.15.55l20.5 7q1.8-1.9 5.05-2.7l7.2-.35q5.8.7 9.1 3.75 8.2-1.55 13.65-1.15t6.45 2.7q.75 1.8-4.65 2.5-5.25.7-13 0l.05 1.75q-.45 3.55-4.3 5.55-3.95 2-9.3 1.35"/><path fill="#e95550" d="M184.4 120.95q-1.5 4.05-5.95 7.25-4.55 3.3-9.05 3.45l.05.05q-.65 1.9-4.1 2.7l-8.25.45q-3.5.35-15.95 4-11.05 3.25-19.05 3.25-11 0-24.2-3.65-12.9-3.6-20.7-8.65-3.65-2.35-4.4-4.75-.7-2.15.95-3.7 1.6-1.5 4.4-1.8 3-.25 5.8 1.05 6 2.85 18.3 3.4 16.2.75 21.35-6.85-1.25-7.95 4.1-14.25 5.3-6.15 14-7.3l26.35 13.35z"/><path fill="#fff" d="M78.75 113.75q-2.9-1-4.6-.65-.1-1.5-1.15-3.7-.85-1.95 3.65.4 4.3 2.2 4.65 5zm-11.8.15-1.85.85q-1.65.9-2.35 1.45l-2.1-1.05q-.3-2.5.85-4.35 1.15-1.8 1.9-.7l1.35 1.5z"/><path fill="#6fb92c" d="M163.35 52.65q5.3-.35 11.9 3.1 7.65 4 11.35 10.85 5.95 10.95 8.2 12.65 4.95 3.7 12.7-4.1 2.6-2.55 3.3-7.25l.15-4.15q5.55 4.65 8.2 12.9 2.6 8.05 1.45 16.6-1.2 9.05-6.3 15.5-5.7 7.2-15.1 9.55l-30.95-7.15q-2.35 1.1-4.65 1.3-11.7.95-19.6-9.2-8-10.3-5.65-24.25 2-12 9.85-19.25 6.7-6.25 15.15-7.1"/><path fill="#e95550" d="m167.3 111.5 3.25-1.55q3.6-1.95 5.05-4l2.9-.05 4.2-.15q2.8-.25-.25 3.9-3.1 4.2-7.65 5.85l-5-.25q-2.65-1.25-2.5-3.75m54-76.45q1.4.95-2.95 12.65-3.75 10.25-7.25 17.05-.2 5.35-3.5 10.25-4.05 6-10 5.25-3.1-.4-4.85-2.85-.7-.95-2.9-5.8-4.5-9.85-14.5-15.4-4.15-2.3-8.3-3.15l-3.15-.4q2.9-1.65 5.5-2.45 2.85-.9 6.4-1.2-.6-9.35.3-17.6.8-7.55 1.95-7.7 1.3-.2 4.85 7.25 3.65 7.65 7.55 19.05 3.25.85 5.4 1.8 2.3 1.05 5.25 3.1 6.25-7.8 11.35-13.2 7.3-7.75 8.85-6.65"/><path fill="#2f8097" d="M162.55 141.75q.5-4.55.3-7.2l1.55-.15q1.7-.25 2.7-.85l.35 12.25q.65 1.7 6.1 5.2 5.45 3.45 5.6 3.95.45 1.4-.4 4.55-.9 3.15-1.8 3.4l-1.45-2.65-1.1 1-1.65.85q-2.15-5.75-6.8-10.65-4.05-4.25-4-4.85z"/><path fill="#2f8097" d="M174.7 146.5q-.95-.7-2.85-6.15-2.05-5.85-2-9 1.05.45 4-.9-.15 2.25 1.2 6.6 1.3 4.1 2.35 5.55 1.2 1.65 7.45 4.8 7.1 3.55 9.55 5.65 2.05 1.8 3.35 6.45 1.35 4.8.2 6.95l-2.8-2.4-3.35 2.2q-2.75-8.25-8.2-13.3z"/><path fill="#2f8097" d="M186.5 145.95q-1.7-.4-5.65-7.65-4.2-7.75-5.4-8.55l1.5-.5q1.75-.8 2.8-2.15.65 2.6 3.7 7.3 2.85 4.45 4.3 5.45 2.5 1.85 13.1 5.1 9.2 2.8 14.75 3.85 2.95.55 5.7 5.55 2.65 4.8 1.9 7.2l-4.7-1.05v-.05l-.8 2.95q-.65 1.35-1.25 1.3-.9-2.95-4-6.2-2.95-3.1-5.75-4.3-16.85-7.45-20.2-8.25"/><path fill="#e95550" d="M184.45 98.4q7.85-5.65 15.8-1.9 3.85 1.8 2.85 10.6-.95 8.4-4.05 10.8-2.8 1.55-4.8 1.3-5.95 2.85-12.35 1.55-8.1-1.65-12.8-9.95 3.45-2.25 8.25-6.45 5.3-4.65 7.1-5.95"/><path fill="#c94844" d="M72.05 124.7q1 2.65 4.5 4.95l-3.25-.15q-5.15-.65-8.6-3.4-3.35-2.8-3.25-6.15l2.25.05h2.35q1.2 2.7 6 4.7"/><path fill="#5fa124" d="M166.35 107.65q5.8.35 9.1-1.7-3.65 3.6-7.65 5.35-2.3 1-4.2 1.15-5.5.45-10.8-2-5.35-2.55-9.05-7.45-8.65-11.4-4.2-28.35-.15 21.05 14.8 29.45 5.65 3.2 12 3.55"/><path fill="#1e6579" d="M168.1 146.8q-1.05 0-1.45.4-1.25 1.55-1.5 3.4l-2.3-2.35q-.95-1.05-.9-1.65l.6-4.85q.5-4.55.3-7.2l1.55-.15q1.7-.25 2.7-.85l.35 12.25zm6.6-.3q-.95-.7-2.85-6.15-2.05-5.85-2-9 1.05.45 4-.9-.15 2.25 1.2 6.6 1.3 4.1 2.35 5.55l1.6 1.55q-1.9 2.3-.5 4.9zm11.8-.55q-1.7-.4-5.65-7.65-4.2-7.75-5.4-8.55l1.5-.5q1.75-.8 2.8-2.15.65 2.6 3.7 7.3 2.85 4.45 4.3 5.45 1.55 1.1 5.85 2.7.7 4 4.85 8-9.45-4-11.95-4.6"/><path fill="#c94844" d="m195.5 117.25-1.25 1.95q-4.95 2.35-9.6 2.2-6.1-.2-10.8-4.9-2.05.55-4.35-1.15-2.3-1.75-2.2-3.85l2.35-1.05 2.85-2.05q.75 1.65 2.4 2.9 1.8 1.4 4.3 2 2.1 2.65 6.95 3.7zM77.2 129.8q-1.5-.95-3.3-2.85l-2.15-2.75q15.95 6.25 31.45 7.7 17 1.65 28.3-3.1 5.25 2.45 13.65 4.4l10.5 1.85q-2.45.35-15.35 4.05-10.35 3-18.2 3-11 0-24.2-3.65-12.9-3.6-20.7-8.65"/><path fill="#c94844" d="M179.75 127.1q-2.25 1.65-5.3 3.05-3.35 1.55-5.05 1.5-.35 3.85-12.95 3.25-13.05-.65-22.85-5.7-6.3-3.2-8.95-8.1-2.75-5.2-1.2-11.75.15 7.1 13.4 8.5l11.75.65 11 1.05q6.25 1.25 13.3 5.3 5.25 3.05 6.85 2.25m-131.65-9q-19.7-3.25-20.35-9.65 10.75 7.65 35.9 10.15l3.95.7q1.5.5.05.8-9.7-.35-19.55-2m130.95-76.9q2.45 12.25 2.3 13.45-.25 1.95-2.95.7-2.65-1.25-2.7-3.05-.05-3.95.25-11.55l.45-9.45q.15-2.3 2.65 9.9m32.75 4.55-5.6 10.5q-2.65 4.45-3.7 4.5-1 .1-2.05-1.4-1.2-1.65-.3-3.05 2.75-4.15 9.55-11.35l3-2.95q1.65-1.2-.9 3.75"/><path fill="#5fa124" d="M208.9 113.95q-4.15 3.15-7.05 3.7l.45-2.55q.35-2.8-.4-3.95 1 1.5 3.7 1.65 3.1.15 6.9-1.9z"/><path fill="#c94844" d="m86.7 119.75 8.4-.15q8.5-.55 9.1-2.25 1 1.1.2 2.1-1 1.3-4.6 1.65l-8.8.25-4.1-.25z"/><path fill="#0d131a" d="M220.25 93.4q-.85 7.25-4.15 12.15-.8 1.15-1.8 1.05-1-.15-1.7-1.55-1.75-3.55-.15-10.9 1.45-6.8 4.6-8.85 1.25-.85 2.2-.35t1.15 2.2zm-44.4-43.5q-5.9.6-10.25 2.6h-1.45l-.85-.3q5.4-2.9 12.45-3.9zm25.65 4.4-.9 1.2q-4.25-2.75-9.2-4.15l-.75-2.1q5.8 1.6 10.85 5.05"/><path fill="#0d131a" d="m210.9 64.65.35-1.3q6.1 5.65 8.85 15.55 2.75 10.1.45 19.3-2 8.15-7.55 13.65-5.4 5.4-13.4 7.45-.3.1-.35-.8 0-.85.4-.95 8.7-2.35 13.9-9.1 3.6-4.7 5.2-11 2.15-8.85-.05-18.1-2.25-9.25-7.8-14.7m-27.65 45.55.9-1.05q3.3 1.4 7.8 2.05l5.85.25q.15-.2.1.45l-.3.75q-1.45.5-5.55 0-4.95-.6-8.8-2.45m-10.2 6.55 1.55-.3q3.8 3.2 9 4 6.45.95 11.6-2.8.2-.15.1.7l-.35 1q-5.35 3.7-11.9 2.6-5.9-1.05-10-5.2"/><path fill="#0d131a" d="M186.5 105.1q.45 1.15-2.7 5.5-3.7 5-8 6.55l-3.75.2q-1.9-.35-3.4-1.5-.85-.65-1.4-1.8-.5-1.05-.55-2.15 1.35-.75 1.3-.4-.05 1.75 1.45 2.85 1.15.9 2.85 1.15l3.1-.3q3.7-1.3 6.95-5.05 2.9-3.3 2.55-4.2-.35-.75-8.75.2-.25 0 .5-.7l.8-.75 4.35-.3q4.4-.1 4.7.7"/><path fill="#0d131a" d="M217.55 47.65q4.1-11.4 3.1-12.15-1-.7-7.8 6.7-5.8 6.25-11.35 13.35-1.85 2.4-2 1.55-.15-.8 1.65-3.25 4.65-6.2 10.65-12.65 8.35-9 10-7.45 1.55 1.45-3 14.15-3.55 9.95-6.85 16.85-1.4 8.3-5.4 12.75-3.55 3.95-8 3.7-5.15-.15-8.85-7.6-6.55-13.45-16.4-18.1-8.65-4.1-16.65-.35-6.8 3.2-11.25 9.25-4.65 6.35-6.1 14.95-1.25 7.35.7 14.05 1.9 6.7 6.55 11.65 3.25 3.5 7.8 5.15 4.4 1.65 9.2 1.25 3.6-.3 7.35-2.8l6.75-5.6q6.05-5.6 8.95-7.3 5.4-3.1 10.95-1.7 2.05.55 3.55 2.1 1.45 1.45 2.15 3.6 1.45 4.4-.25 11-1.55 5.9-4.25 9.25-.15.2-.6-.2-.5-.35-.35-.55 2.5-3.1 3.9-8.65 1.6-6.2.25-10.3-1.25-3.6-4.65-4.5-5.2-1.35-10.2 1.4-3.05 1.7-8.65 6.95l-6.9 5.95q-4.1 2.85-7.9 3.15-4.9.4-9.65-1.45-4.65-1.85-8.35-5.55-5-4.95-7.25-12.1-2.35-7.35-1.05-15 3.1-18.4 18.25-25.1 9.95-4.35 19.65.8 9.85 5.25 16.25 18.65 3.2 6.7 7.8 6.3 4.05-.3 7.1-4.05 3.4-4.2 4.35-11.3 3.2-6.85 6.8-16.8"/><path fill="#0d131a" d="M177.8 22.7q2.4-.35 7.75 12.7 2.65 6.45 7.65 20.95 1.15 3.4.25 3.1-.95-.35-2.15-3.95-10.5-31.2-13.1-30.45-2.1.65-1.55 25.4.05 2.75-.75 3.15-.75.4-.8-2.9-.35-27.55 2.7-28M166 133.6q2.4-.75 2.85-2.1.1-.2.65 0 .6.15.5.4-.7 1.9-3.65 2.85-6.4 1.95-18.4-.1-12.6-2.15-19-6.95-4.05-3.05-5.8-8.05-1.8-5.05-.4-9.85 1.75-6.1 6.3-9.85 4.2-3.45 10.5-4.8l.4 1.35q-6.1 1.3-10.4 5.55-3.85 3.8-5.1 8.55-1.15 4.5.3 8.6 1.45 4.15 5.15 6.95 6.15 4.6 18.35 7 11.75 2.3 17.75.45"/><path fill="#0d131a" d="m184.3 121.1.65.05q-1.2 3.2-4 6.1-2.9 3.1-6.4 4.45-2.6 1.05-5.25 1-2.5-.05-4.55-1.05-4.1-2-8.55-2.7-6.05-1-14.55 0-5.05.6-10.5-2.55-5.55-3.2-7.2-7.75-.3-.75-.25-2.6 0-2 .1-1.4.05 4.7 6 9.2 6.1 4.6 11.75 3.7l13.9-.45q4.85.65 9.8 3.1 3.6 1.85 8.65-.15 3.1-1.25 5.75-3.6t3.85-5q.1-.2.8-.35"/><path fill="#0d131a" d="M77.5 120.25q-2.9.5-3.95 2.3-.8 1.5.2 3.25 1.05 1.75 3.75 3.5 8 5.15 20.9 8.65 12.9 3.55 23.7 3.55 5.55 0 11.75-1.35l10.4-2.85q6.95-2.05 9.95-2.6 2.4-.45 6 .65-6.1.3-15.6 3.15-6.45 2.25-10.1 3.2-6.35 1.75-12.85 1.7-10.7-.05-23.9-4-12.85-3.8-21.1-9.1-3.95-2.55-4.95-5-.75-1.75 0-3.1 1.25-2.25 4.95-3 3.95-.85 7.55.85 5.9 2.8 18.3 3.15 16.05.45 20.8-7.2.7 1.7.3 2.2-5.65 7.25-21.7 6.45-12.05-.65-18.25-3.5-3.05-1.45-6.15-.9"/><path fill="#0d131a" d="m75.25 113.65-6.85.3q-3.05.7-4.75 2.4-.9-.1-1.15-.5 1.9-2.15 5.4-3.15 3.55-1 7.7-.5 3.4.45 6.15 1.9 2.6 1.4 4.2 3.45 1.4 1.75 1.55 3.85-.65-.35-1.25-.4-.2-1.35-1.25-2.7-1.4-1.85-3.95-3.05t-5.8-1.6m1.1 15.4 1.5 1.1q-2.5.25-5-.05-7.7-.95-10.9-5-1.7-2.15-1.5-5.25l1.6.45q.1 1.95 1.45 3.7 1.5 1.9 4.15 3.2 2.6 1.35 5.75 1.7z"/><path fill="#0d131a" d="M44.6 109q8.85 2.65 17.9 6.3 2.15.8 2.65 1.6t-1.65 0q-8.9-3.4-17.4-6.05-16.85-5.3-17.1-2.25-.15 1.1.9 2.2 3.4 3.75 17.1 6.5 11.4 2.25 19.9 2.35 2.45.05 1.1.65l-3.8.55q-8.25-.1-18.9-2.35-13.2-2.8-16.9-6.9-1.85-2.05-1.7-3.4.4-4.55 17.9.8m61.25 9.1q.4.85-.15 1.6-1.1 1.55-7.05 1.95-5.25.4-11.7-.2-.25-.05-.2-.65t.3-.55q6.95.65 12.3.05 5.05-.55 4.6-1.7-.8-1.85-5.2-2.3-5.2-.55-14 1.2-.2.1-.35-.5-.1-.6.1-.65 8.7-1.75 14.45-1.25 5.8.45 6.9 3m-33.2-8.25q-.45-1.4-.3-1.55l2.4.3q2.35.6 4.55 2.3 2.5 2 2.75 4.05l-.65-.15-.85-.7q-.8-1.6-3.1-3.05-2.1-1.4-3.8-1.65.85 2.05 1 3.25l-.6.1q-.6 0-.65-.2z"/><path fill="#0d131a" d="M61.75 110q.85-.85 1.25-.8l.9.8q1.45 2.15 3.45 3.45.3.15-1.2.55-1.85-1.55-3.25-3.55l-.45.35q-1.2 1.4-1.2 3.9l.05.9q-1.3-.6-1.25-.95 0-2.95 1.7-4.65m29.65 12.65 2.15.45q1.65.65 1.15.55-2.3-.35-5.3.75-3.3 1.25-4.15 3.3-.7 1.7.4 3.75 1.15 2.2 4.1 4.15-2.9-.65-3.5-1.25-3.85-3.7-2.45-7 .75-1.8 3.1-3.15 2.1-1.2 4.5-1.55m14.95 1.45 1.65-.05.95.2q-2.75.8-4.15 2.4t-1.1 3.6q.55 3.75 5.5 7.2 5.55 3.8 12.95 4.3l-4.7.4q-6.3-1.3-10.5-4.6-4-3.15-4.55-6.9-.3-2 .75-3.75t3.2-2.8m60.15 10.05q0-.3.75-.7.7-.4.7-.15l.1 12.35q.45 1.05 2.95 2.7l4.6 2.85 3.4 2.25 1.3 1.3.2 1.3q0 1.3-.7 3.45l-1.2 3.05q-.6 1.1-1.2 1.3-.55.2-.8-.25l-1.25-2.3-2.2 1.6q-.9.45-1.15-.2-2.75-7.2-8.1-12.45l-1.95-1.95q-.85-.9-.8-1.6l.25-1.9.6-4.6q.4-3.15.25-5.1 0-.2.7-.3.65-.1.65.35 0 3.55-.85 9.65l-.2 1.8v.05q0 .45 2.2 2.75 2.6 2.55 4.15 4.6 2.6 3.4 4.15 7.3l1.8-1.15 1.25.05 1 1.75 1.05-2.65q.55-1.9.55-3.25l-.1-.9-3.85-2.7-4.9-3.25q-2.45-1.85-2.95-3.2l-.05-.2z"/><path fill="#0d131a" d="M173.2 130.8q0-.1.65-.3.6-.25.6 0-.15 2.15 1.2 6.45 1.25 3.95 2.2 5.3.75 1.05 2.95 2.35 1.25.75 4.6 2.4 7.25 3.6 9.85 5.8 2.25 1.9 3.45 6.9 1.25 5.05-.05 7.45-.35.6-.9.15l-2.7-2.4-2.9 2.3-.8.35-.5-.75q-2.4-7.2-6.35-11.75-2.75-3.15-7.45-6.2l-3-2q-1.05-.8-2.8-6-1.8-5.45-2-8.85 0-.15.6-.35l.6-.15q0 3.1 2 8.75 1.8 5.15 2.6 5.75l2.7 1.85q5 3.25 7.6 6 4.3 4.6 6.8 11.55l2.3-1.6q.4-.35.7-.35l.65.35 1.85 1.6.2-1.5q0-2.6-1.2-5.85-1.25-3.3-2.65-4.55-2.55-2.15-9.1-5.4l-4.9-2.6q-2.25-1.35-3.1-2.55-1.05-1.4-2.3-5.35-1.4-4.3-1.4-6.8"/><path fill="#0d131a" d="m179.3 127.65.55-.75q.6-.65.65-.4.4 2.5 3.45 7.35 2.8 4.55 4.15 5.5 2.45 1.8 13.15 4.85 9.05 2.6 14.85 3.65 2.65.55 5.65 5.25 1.25 2.1 1.95 4.65.75 2.7.3 4.2-.2.55-.7.4l-4.15-1.05q-.35 2-1.3 3.5-.85 1.25-1.25 1.3-.45.1-.7-.85-.5-1.55-3.6-5.1-3.45-3.95-5.85-5l-1.85-.8q-15.5-6.95-18.35-7.6-1.25-.25-2.9-2.85l-3.7-6.55q-3.2-5.9-4.8-7-.2-.1.55-.45l.95-.15q1.3 1.35 4.35 7 4.5 8.3 5.95 8.65 3.35.75 18.45 7.45l1.85.8q2.7 1.2 5.6 4.15 3.05 3.05 4.2 6l.35-.6q.45-.95.7-2.25.15-.7.45-.85l1.05-.05 3.4.8v-.2q0-1.25-.65-3.1l-1.75-3.65q-2.45-4-4.85-4.5-5.7-1.1-14.9-3.9-10.6-3.25-13.15-5.15-1.5-1.1-4.3-5.4-3-4.55-3.8-7.3m-14.8-58q3.1.15 5 4.2 1.85 3.95 1.55 9.55-.25 5.4-2.7 9.05t-5.7 3.7q-3.55.1-5.6-3.75-2.05-3.9-1.7-10.15.25-5.5 2.85-9.15 2.65-3.65 6.3-3.45"/><path fill="#fff" d="M217.85 86.75q.8.05 1.3 1.25.5 1.25.35 3.3-.15 2-.9 3.35-.75 1.25-1.5 1.2-1.15-.05-1.7-1.65-.6-1.6-.2-3.55.35-1.85 1.1-2.95.7-1.05 1.55-.95m-55-15.45q1.25.1 2.1 1.8.8 1.7.7 4.1-.05 2.35-1.05 3.95t-2.35 1.55q-1.55-.05-2.35-1.7-.8-1.6-.75-4.3.1-2.25 1.2-3.85t2.5-1.55"/><path fill="#2f8097" d="M130.2 117.6q.85-.5 1.8-.3t1.3.9q.9 1.8-3.4 4l-8.75 5.1q-5.45 3.2-9 4.1-3.5 6.2-7.2 10.7-4.25 5.15-5.55 7.2-1.35 2.15-2.05 5.15l-1.15 4.6q-2.85-1-4.1-5.65l-1.5 1.55-1.5 2q-.6-1-.95-2.45-.55-2-.3-3.75.3-2.3 2.8-4.6l8.2-7.1q3.3-3.05 6.75-8 2.65-3.75 3.55-3.9 3.2-.45 10.4-3.9 5.1-2.45 10.65-5.65"/><path fill="#1e6579" d="m92 153.75-2.95 3.95q-2.15-4.15-1.95-6.75l1.4 1.9q1.75 1.65 3.65.35l1.8 1.55q2.05 1.05 3.6-1.5l-1.45 6.25q-.65-.1-1.5-.9-1.7-1.55-2.6-4.85m25.05-24.85-.55.9-4.5 1.75-3.1 5.05q1.6-5.2 2.4-6.1.5-.55 8.25-3.85l7.6-3.15q-.35.95-10.1 5.4"/><path fill="#e95550" d="M194.4 118.8q1.3-1.2 2.85-4.8 1.35-3.2 1.95-5.85.5-2.15 2.4 1.45 2.75 5.25-.1 8.75t-7.1.45"/><path fill="#c94844" d="m195.95 116.6 3.25.1q2-.4 3.7-2.45-.2 1.4-.9 2.75-1.35 2.8-3.75 2.9l-3.35-.4-.55-.45z"/><path fill="#0d131a" d="M132.2 117.95q-.75-.2-1.75.35l-9.05 4.85q-8.55 4.3-12.2 4.8-.6.1-2.85 3.25-3.9 5.5-7.1 8.5l-5.9 5.15-3.55 3.25q-1.15 1.3-1.35 2.9l-.05 1.05q0 2.05.8 3.9 1.45-1.95 2.25-2.6.55-.4.8-.35l.65.85q1.2 3.55 2.95 4.5l.55-2.3q.85-4.25 2.45-6.85 1.65-2.6 4.5-5.95 4.55-5.35 8.25-11.95.15-.25.4-.25 2.55-.65 5.8-2.35l5.75-3.35q3.75-2.3 6.05-3.5 3.2-1.55 3.2-2.9h.05q0-.75-.65-1m-2.35-.7q1.65-.9 3.2 0 1 .65 1 1.7v.05q-.1 2.05-3.9 3.95l-5.95 3.4-5.8 3.35q-3.25 1.7-5.85 2.4-3.85 6.85-7.95 11.7-2.95 3.6-4.5 6.05-1.45 2.25-2.35 6.45l-1 3.55-.25.5-.5-.1q-2.7-1.05-4.2-5.55-.7.75-2.2 3.15-.5.9-1 0-.7-1.1-1.25-3.05-.8-2.5-.55-4.35.25-1.9 1.5-3.3l3.75-3.3 2.9-2.15 3.5-2.9q3.25-3 6.9-8.3l1.9-2.8q.9-1.15 1.65-1.25 3-.45 9.45-3.3 6-2.7 11.5-5.9m71.55-6.9-1.05-1.7q-.4-.4-.55-.35-.15 0-.2.45-.6 2.55-1.6 5.15-1.3 3.2-2.65 4.9 3.05 1.3 5.05-.6 1.45-1.25 1.7-3.4.3-2.15-.7-4.45m-3.6.55q1.35-4.25 1.75-4.25 2.1 0 3.6 4.65 1.6 5-1.65 7.95-1.5 1.3-3.55 1.4-2 .1-4-1-.15-.05-.2-.5t.05-.55q2.35-2.6 4-7.7"/><path fill="#2f8097" d="M137.15 116.35q1.85-1.8 3.1-.35 1.25 1.4-2.4 4.6-3.25 2.85-9.4 7.15-5.55 3.9-7.8 5.1-.6 3.3-3.5 10.2-3.6 8.35-4.45 11.05-.8 2.45-.9 5.5l-.1 4.7q-1.2-.15-2.55-1.5-1.3-1.3-2.35-3.3-1.7 2.15-2.6 4.25-3.25-3.25-2.85-7.95.4-4.35 3.2-7.15 4.95-5 7-8.2 2.25-3.45 3.8-8.1 1.05-3.05 2.55-3.75 4.05-1.85 9.7-5.35 6.65-4.05 9.55-6.9"/><path fill="#1e6579" d="m106.9 159.3 1.85.75q2.15-.05 3.7-4.1l-.35 8.95q-.75-.2-1.8-.95-2.15-1.45-3.65-3.95l-2.7 4.3q-1.2-1.1-2.15-2.9-1.95-3.65-.7-7.1.25 2.1 1.8 3.85 1.8 2.1 4 1.15m19.85-31.85-.35 2.15-5.65 3.5-2.5 7.1.45-4.6q.25-3.3.95-4 .35-.35 3.75-2.3z"/><path fill="#0d131a" d="M139.45 116.4q-1-.3-1.9.6-2.9 2.85-9.6 6.95-5.65 3.45-9.8 5.4-.85.4-1.35 1.25l-.95 2.3q-1.5 4.45-3.8 8.1-2.55 3.95-6.15 7.3-2 1.95-2.7 3.05-1 1.75-1.25 4.7l-.05.95q0 3.35 2.1 5.85l2.1-3.25q.75-1.1 1.45.1 2.05 3.35 3.55 4l.05-2.6q0-4 .95-7 .85-2.7 3.7-9.3l2.6-6.3 1.65-5.55.3-.45q2.15-1.1 7.75-5 6.1-4.3 9.35-7.15 2.45-2.1 2.45-3.4v-.15zm-2.75-.3q1.45-1.35 3-.7 1.4.6 1.4 1.55 0 1.8-2.85 4.3L129 128.3q-5.35 3.8-7.85 5.15-.8 4.25-4.05 11.85-2.65 6.05-3.65 9.2-.85 2.65-.85 6.6l-.05 3.55-.05.8-.65.05q-1.2-.15-2.65-1.55-1.4-1.3-2.5-3.15l-2 3.8-.35.55-.6-.35q-1.8-1.8-2.8-4-1.1-2.5-.9-4.8.3-3.15 1.65-5.15l3.1-3.3 2.8-2.8q1.9-2.05 3.4-4.4 2.15-3.35 3.7-7.8l1.1-2.65q.65-1.1 1.85-1.65 4.1-1.9 9.6-5.3 6.6-4.05 9.45-6.85"/><path fill="#2f8097" d="M145.75 112.85q.7-.7 1.6-.75.95-.05 1.25.65.9 1.8-3.7 6.05-10.45 9.75-12 10.75 1 6.05 4.45 13.55 2.35 5.05 5.2 9.5 1 1.6 4.75 6.05 1.65 2 2.1 5.35.3 2.45-1.35 4.7-1.35 1.85-2.4 2.05-.15-1.4-1.75-4.6-1.25 1.85-3 3.35-1.55 1.3-2.75 1.8-.25-5.7-1.35-10l-2.55-8.35-6.75-20.65q-1.2-3.8-.8-4.75.4-.9 4.25-3.3 3.05-1.9 8.15-5.85 4.9-3.8 6.65-5.55"/><path fill="#1e6579" d="m134.95 155.85-4.85-15.5q4.45 13 7.25 18.7 3.95 8.15 6.7 6.65l-2.3 3.1q-2.55 3.1-4.1 3.1.5-4.6-2.7-16.05m13.65-42.8q1.65 1.55-6.75 9.3-4.2 3.9-8.7 7.45l1.65 7.6-2.2-4.05q-2.05-4.25-1.25-5.2.9-1.05 9.15-8.15z"/><path fill="#1e6579" d="m143.7 165.7 2.85.55q2.15.6 2.75-2.15l.2 2.45q-.45 2.8-3.65 4.6z"/><path fill="#0d131a" d="M144.5 118.55q3.6-3.3 3.6-5.05v-.2l-.35-.35q-.85-.2-1.6.55l-6.7 5.6-8.2 5.85-.7.45q-3 1.8-3.35 2.65l-.1.55q0 .75.9 3.55l7.7 23.6 1.9 6.6q.8 3.6 1.05 8.2 2.5-1.4 4.65-4.4.75-1.05 1.35.1.95 1.8 1.4 3.8l1.75-1.9q1-1.6 1-3.25l-.05-.65q-.25-2.3-.95-3.55-.4-.85-1.8-2.4-2.15-2.35-3.95-5.2-2.4-3.6-4.75-8.55-3.95-8.15-5-14.7v-.1l.25-.5zm4.8-5.05q0 2.55-3.95 6.2-8.25 7.7-11.6 10.3 1.1 6.35 4.8 14.2 2.35 4.95 4.5 8.25 1.3 2.1 4 5.05l2.1 2.4q.9 1.4 1.2 3.85l.05.8q0 2.35-1.6 4.6-1.2 1.7-2.35 2.3l-1.1.25q-.25-.1-.4-1-.4-1.95-1.1-2.9-2.7 3.55-5.5 4.65l-.95.15-.3-.65q-.2-5.15-.9-8.9-.55-3.05-1.85-6.95l-7.75-23.65q-1.15-3.7-.65-4.85.45-1.05 3.95-3.25 13.2-9.55 15.4-11.7 1.2-1.25 2.65-.75 1.35.4 1.35 1.6"/></svg>