<svg xmlns="http://www.w3.org/2000/svg" width="275" height="328" viewBox="-2 -0.15 275.1 327.6"><path fill="#80cce3" d="M240.15 233.5q1.05 2.35-8.1 7.1-8.65 4.5-22.1 8.95-33.15 11-47.5 7.9l-.5-11.8q13.95-2.15 24.7-6.8 7.4-3.25 17.1-9.7 7.25-4.85 17.05-6.2 8.55-1.2 14 .65 1.8.65 3.9 4.1 2.2 3.7 1.45 5.8"/><path fill="#003856" d="M250.3 224.05q3.15 1.45 4.9 3.25 2.9 3.05 2.9 7.65-2.25-2.65-10.45-1.6-8.85 1.15-16.85 6.1-23.95 14.75-36.9 18.15-14.15 3.7-26.05-2.85l1.1-5 .95-5.1q8.35 6.45 18.4 4.5 13.85-2.65 37.65-20.7 7.35-4.7 12.3-5.85 6.05-1.4 12.05 1.45"/><path fill="#80cce3" d="M145.05 293.3q9.95-7.05 16.15-20 2.35-4.95 6.65-18.55 13.2 7 30.1 1.7 12.05-3.8 35.35-18 8.45-5.15 17-5.25 11.25-.15 17.55 9.45 4.05 6.15.25 15.6-4.2 10.45-16.25 19.3-14.1 10.35-31.9 14.55-15.75 3.8-35.05 2.85l-19.9-.65z"/><path fill="#6eb1c5" d="M157.8 278.6q7.05-.4 17.55 1.35 12.15 2 17 2.2 21.35.7 48.2-17.45 14.6-9.85 21.4-8.65 2.75.5 3.35 2.85.55 2.2-1.05 5.35-4.5 8.8-15.65 16.15-12.7 8.3-29.95 11.8-14.95 3.05-41.45 2.65-27.05-.95-35.1-.7 3.15-1.45 6.7-4.1 7.1-5.35 9-11.45"/><path fill="#0d131a" d="M138.3 295.85q.2-.25 3.35-1.6l3.3-1.6 26.3 1.2q15.35.8 24.85.35 27.5-1.35 49.65-14.8 13.2-8.05 19.05-18.05 5.65-9.7 2.2-17.45-3.7-8.2-14-9.25-10.1-1.05-20.3 5.2-24.85 15.15-38.25 18.6-14.85 3.85-26.65-3.2l1-2.2q10.35 7.5 28.95 1.35 13.1-4.35 34.4-17.45 9.95-6.1 21-4.75 11.45 1.4 15.9 10.25 4.05 8.1-1.1 18.7-5.7 11.85-20.55 20.65-24.55 14.55-58.1 15.2-8.85.2-26.8-.7-16.4-.85-24.2-.45"/><path fill="#0d131a" d="M254.6 226q4.8 4.15 5.05 10.05l-3.15-1.85q-.05-3.7-3.5-6.75-3.85-3.5-9.95-3.8-5.9-.3-13.2 4.15-11.25 7.7-21.55 14-11 7.25-21.3 8.4-10.25 1.15-17.05-4l.5-2.1q5.9 4.9 15.3 4.3 10.5-.75 21.6-8.35 20.25-13.85 22.45-15.1 6.8-3.95 12.9-3.55 7.1.45 11.9 4.6"/><path fill="#80cce3" d="m134.4 292.55 5.2-.45q4.9 8.15 6.75 14.8 1.45 5.5.7 9.35-.75 3.95-3.25 6.3-2.05 1.95-4.55 2.25-3.65.45-7.55-1.75-3.5-2.05-5.8-5.35-5.65-7.95-7.6-12.45-2.5-5.65-3.5-14.3 10.4 1.5 19.6 1.6m16.8-3.8q5.2-1.85 10.15-5.05 10 9.2 14.15 15.75 4.15 6.5 3.85 12.45-.15 3.25-2.55 5.85-2 2.1-4.65 3.05l-5.05-.15q-2.4-.8-4.25-2.55l.95-2.85.35-2.55q.55-4.75-4.5-12.95-3.85-6.25-8.45-11"/><path fill="#80cce3" d="m138.6 291.95 6.9-1.3 6.45-2.05q6.7 7.05 9.95 13.9 3.05 6.55 2.45 11.8-.35 2.95-2.45 5.25-2 2.2-4.9 3.25l-5.85.3q-3.2-.65-5.45-2.45l1.3-1.7q.9-1.1 1.05-2.05.65-3.15-3.15-12.05-2.75-6.55-6.3-12.9M18.8 290.3q7.85-7.9 17.1-10.2 8.35 7.1 23.25 8.3 7.5.6 13.95-.25-1.8 1.85-7.2 9.55-5.35 7.65-7.25 11.05l-4.65 7.8q-2.2 3.15-5.3 5.3-3.1 2.1-6.3 2.6l-4.7-.3q-1.35-.4-4.15-1.8-4.2 2.15-8.65 1.1-2.5-.6-4.15-2.55l-2.5-3.75q-1.35.3-3.55-.7-2-.9-3-2.05-2.5-2.95-1.95-7.7 1-8.35 9.05-16.4"/><path fill="#6eb1c5" d="M15.15 295.25q4.25-6.75 13.05-11.6l7.9-3.55q6 6.65 22.1 8 8.05.7 14.9.05l-9.3 13.15-7.25 13q.35-4.85-6-9-6-3.9-9.6-2.75-1.7-2.55-5.6-3.75-4.05-1.25-6.55.3-1.85-3.4-5.75-5-4.5-1.8-7.9 1.15m98.9-4.45 5.45.5 12.85-.45q19.65-1.6 28.3-7.15l8.85 7.8 5.8 7.05q-2.8-1.6-6.85.05-3.9 1.6-5.65 4.85-2.9-2.45-8-1.6-4.4.7-8.9 3.45-2.7-2.05-10.2-1.3-8.75.8-15.15 5.45l-2.65-6.15q-3-6.8-3.85-12.5"/><path fill="#0d131a" d="M114.8 290.95q4.3 16.6 11.6 25.45 6.55 7.9 12.95 7 5.65-.75 6.85-7.75 1.3-7.5-4.05-15.95-1.1-1.75-.15-1.7 1 .05 2.1 1.7 5.85 8.95 4.25 17.05-1.5 7.65-8.05 8.75-12.1 1.95-20.3-14.6-4.15-8.4-6.65-20.1-.6-2.65-.3-3.3.05-.2.85-.35.45-.05.6 1.3z"/><path fill="#0d131a" d="M156.6 295.5q1.15-.3 2.6 1.1 3.4 3.25 5.1 8.45 1.45 4.65 1 8.6-.95 8-7.7 10.35-6.7 2.35-12.4-3-.25-.25.3-.85.6-.65.85-.4 4.05 3.8 9.8 2.2 6.05-1.65 6.8-7.9.6-5.1-.95-9.6-1.6-4.5-5-7.3-1.55-1.35-.4-1.65"/><path fill="#0d131a" d="M157.9 280.65q10.7 7.3 16.65 15.15 6.35 8.3 6.15 15.7-.2 7.9-7.65 9.85-3.05.8-6.1.05-3.15-.75-4.9-2.85-.2-.25.45-.8t.85-.3q2.75 3.3 8.55 1.95 6.2-1.45 6.45-7.55.25-6.35-4.8-13.5-5.15-7.25-16.4-16.25-2.45-2-1.7-2.3.7-.35 2.45.85M73 287.5l1.65-.05q1.3.35.85.5-2.2.75-10.65 13.95l-10 15.85q-4.5 6.3-10.7 7.65-5.65 1.25-9.8-1.95-3.6-2.75-3.3-7.45.3-4.4 3.4-8.75 3.05-4.3 7.55-6.65 2.3-1.25 3.3-1.1 1 .2-1.25 1.45-4.7 2.75-7.7 7-2.85 4.1-3.1 8.15-.3 3.8 2.6 6 2.3 1.8 6 1.25 3.1-.45 6.15-2.45 3.05-2.05 5.2-5.05l4.55-7.4Q60 304.5 65.35 297q5.75-7.95 7.65-9.5"/><path fill="#0d131a" d="M31.6 297.9q-5.8 4.35-9.15 9.5-4.4 6.8-1.8 11.85 1.45 2.9 5.85 3.45 4.3.55 7.05-1.5.25-.2.75.45.5.7.25.9-3.45 2.55-8.95 1.8-5.45-.75-7.05-3.95-2.85-5.5 1.2-12.5 3.4-5.85 9.55-10.05 2-1.35 3.1-1.35t-.8 1.4"/><path fill="#0d131a" d="m36.2 279 .75.85q.55.85.25.9-8.95 1.6-17.55 10.45-8.15 8.4-9.05 15.5-.6 4.85 2.45 7.75 2.55 2.35 5.9 2.35.4 0 .4.85 0 .8-.4.8-4.45 0-7.7-3-3.8-3.5-3.1-9.15.9-7.65 9.1-16.1 8.75-9 18.95-11.2"/><path fill="#003856" d="M167.7 116.8q4.8 3.6 6.9 6.2 3.65 4.4 4.95 10.85.9 4.3.4 8.75-.3 2.5-1.55 7.4-1.55 5.9-1.65 9.15-.15 3.95 1.45 6.9.9 1.7 3.55 4.6 3.2 3.4 4.6 6 2.3 4.4 2.9 11 .5 5.35-1.5 11.55-1.15 3.7-4.35 10.4l-1.6 2.75-1.55 2.75q-.7-29.1-16-70.75-1.45-4.05-3.65-13.85l-3.85-18.65q-3.5-17.5-5.55-26.35-3.6-15.45-7.5-26.8l-2.15-6.35q7.5 4.1 12.6 10.05 5.95 6.85 7.5 14.95.9 4.75.4 10.9L160.7 98.4l-.65 4.2q-.75 5.15 1.65 8.7 1.45 2.1 6 5.5"/><path fill="#0d131a" d="M163.5 76.55q1.65 7.4-.6 17.85-2.25 10.4-1.6 13.3.9 2.45 3.95 5.15l6.2 4.95q8.55 6.9 9.95 15 1.2 6.85-1.45 16.4-2.65 9.5-1.95 13.35.3 1.8 1.65 3.4l2.8 2.9q3.6 3.9 5.1 6.5 2.9 5 3.55 11.9.5 5.55-2.1 12.8l-5 11.15-1.95 4.05q-.9 1.95-1.3 3.45l-.4-4.45 2.15-4.65q3.2-6.75 4.35-10.45 2-6.2 1.5-11.55-.65-6.55-2.95-10.95-1.4-2.65-4.55-6.05-2-2.05-2.85-3.35-1.35-2-1.85-4.3-1-4.7 1.35-13.7 2.4-9.15 1.15-15.4-1.55-7.55-9.75-14.75l-5.85-5.2q-2.85-2.9-3.65-5.6-.75-2.65.9-13.25 1.7-11.15.4-17.75-1.4-7.25-7.4-14.3-5.95-7.1-12.7-9.6l.05-.9.1-.95q7.6 2.35 14.25 9.65 6.75 7.35 8.5 15.35m-2.3 169.25.15-.55q.2-.25.5-.3 13.4-2.1 24.2-7.3 5.7-2.75 17-10.25 8.6-5.75 18.85-6.7 8.7-.85 14.65 1.8l-1.3.8-1.95.65q-5.55-1.45-13.35-.2-9 1.45-15.8 6-9.9 6.6-17.4 9.85-10.7 4.65-24.7 6.8-.7.1-.85-.6"/><path fill="#80cce3" d="M141.55 45.2q6.6 17.3 14.85 46.7 9.6 34.2 16.05 66.25 17.25 86.25 3.1 111.9-6.45 11.65-17.3 17.75-11.2 6.25-26.4 6.15-7.45-.05-25.7-2.8l-17.9-2.7-12.15 1.1-16.8 1.05q-28.8 0-38.05-13.85Q10.9 261.3 21 224.2q-1.45.1-4.2-1.1-5.65-2.45-9.4-7.25-2.3-2.95-4.05-9-2.2-7.6-2.15-16.3.25-24.2 17.65-47.3 11.2-15.95 9.6-32.7-1.3-14-9.95-22.25-2.6-2.45-5.15-6.4-2.45-3.85-3.8-7.3-1.3-3.5-1.9-6.65-.5-3-.55-6.95-.05-10.2 4.25-20 4.35-9.85 12.55-18Q34.1 12.8 48.35 6.85 62.7.8 76.65.95q22.4.25 39.75 12 17.35 11.85 25.15 32.25"/><path fill="#8b92c7" d="m163.25 115.55 2.9 11.7q7.35 35.2 9.75 49.5 6.85 41.05 5.5 64.15-2.05-7.25-8.25-22.1-5.4-12.95-6.35-18.2-.95-5.45 1.7-27.45 2.6-21.25 1.35-25.65-1.2-4.3-8.7-14.05-7.9-10.25-10.65-17.95-2.25-6.2-2.65-25.35l.05-28.2 6.05 19.3q3.75 12 5.25 18.4z"/><path fill="#6eb1c5" d="m106.15 291.15-17.9-2.7-12.15 1.1-16.8 1.05q-17.9 0-27.8-5.1-15.05-7.7-15.65-27.65.6 7.85 13.9 12.7 10.45 3.85 25.25 4.9 7.05.5 19.5-.3l15-.7 22.25 1.9 23.85.7q23.7-2.25 35.7-16.8 4.3-5.2 7.45-12.45l4.1-11.1q-1.1 28.05-14.15 42.7-13.1 14.65-36.85 14.55-7.45-.05-25.7-2.8m-57.75-73.1q-2.7 5.5-10.65 3.45-1.45 2.6-4.4 4.2-5.8 3.15-13-2-3.65.15-6.05-1.1-4.15-2.25-8.75-9.55 1.7 2.25 5 2.6 3.4.35 3.25-2.2 2.65 3.6 8.1 2.75 5.45-.8 6.05-4.9 2.05 1.35 5.35 1.65 3.4.35 6.4-.65 7.65-2.5 6.3-10.8 5.2 10.75 2.4 16.55"/><path fill="#0d131a" d="M140.6 45.8q-7.8-20.45-24.85-32.15-17-11.65-39.4-11.9-14-.15-27.7 5.5Q35 12.85 24.85 23q-8.05 8.05-12.2 18-4 9.65-3.9 20 .05 7.75 2.55 14.05 2.45 6.2 7.65 11.85 10.25 11.15 11.1 26 .95 16.45-10.5 31.1Q6.8 160.25 3.4 179.9q-3.1 17.85 2.4 30.5 2.65 6.05 7 9.55 3.95 3.15 8.25 3.5.35.05.7.95l.1.15q.75.05.65.35-10.2 34-1.65 49.05 8.9 15.75 40.9 15.75l11.7-1.3 14.55-1q5.05.2 20.6 2.85 14.95 2.55 21.5 2.6 31 .15 43.75-22.9 13.1-23.7-.85-102.4-5.7-32.2-14.8-66.1-8.7-32.25-17.6-55.65m-23.55-33.85q17.9 11.9 25.8 32.65 6.8 17.9 15.05 46.55 9.85 34.3 16.3 66.1 17.5 86.4 2.2 114.15-13.5 24.25-46.7 24.05-7.15-.05-22.5-2.85L88 289.35q-4.35-.25-13.3 1.15L61.8 292q-33.05 0-42.65-15.95-9.35-15.6 1.2-50.9-4.3-.7-8.05-3.15-5.5-3.65-8.55-10.6Q-2 198.25.9 180.15q3.2-20.1 16.15-36.65Q27.7 129.9 28 115.1q.25-15.2-10.55-26.2-5.9-6-8.75-12.75Q5.9 69.4 5.8 61.3q-.05-10.55 4.35-20.8 4.5-10.35 12.9-18.7Q33.35 11.5 47.7 5.65 61.95-.15 76.35 0q23.05.25 40.7 11.95"/><path fill="#0d131a" d="M169.75 174.55q-2.35 19.2-1.85 23.25.9 7.4 6.2 19.2 5.55 12.3 7.5 25.4l-.15 3.3q-.3 2.35-.5 1.5-3.8-16.85-10.05-30.5-2.85-6.25-3.65-8.5-1.6-4.45-2.05-9.55-.4-4.45 2.3-24.85 2.45-18.45.4-27.05-.85-3.4-7.85-13-7.8-10.55-10-15.75-3.45-8.15-3.25-28.1.25-24-1.35-33-.1-.85 1 1.65 1.05 2.45 1.3 4.4.6 4.9 1.3 27.6.55 17.05 3.3 26 1.95 6.15 9.4 15.8 7.05 9.1 7.9 13.2 2.3 11.05.1 29M106.5 67.3q2.3-2.15 2.6-1.55.3.55-1.8 2.9-12.1 13.2-44.8 8-17.9-2.85-29.85-1.95-9.9.75-15.1-1.1-4.5-1.55-5.9-5.2-.95-2.5-.65-3.3t1.45 1.8q1.7 3.9 6.5 5.3 4.7 1.4 13.95.75 6.4-.45 12.7-.05 6.8.45 17.25 2.05 30.7 4.65 43.65-7.65M38.15 221q.8.3.65.6-1.1 2.7-3.4 4.3-2.35 1.55-5.5 1.7-7.7.35-13.1-6.55-4.5-5.75-6.75-15.65-1-4.35-.1-4.8t2.05 4.05q2.35 9.45 6.55 14.95 4.85 6.35 11.3 6.05 5.6-.25 7.4-4.65.1-.35.9 0"/><path fill="#0d131a" d="M33.2 155.9q.15-4 .95-3.7.75.35.6 4.95-.4 12.3 3.85 24 2.65 7.3 10.75 25.6 1.75 4.4 1 8.5-.75 4-3.55 6.25-3.6 2.95-9.35 1.05-7.25-2.4-11.4-12.2-1.75-4.15-2.95-8.85-1.2-4.75-.25-5.05.9-.35 2.2 4.25 1.4 5 3.15 9 3.45 8 9 10.6 4.85 2.2 8.3-.55 2.3-1.85 2.7-5.15.4-3.25-1.15-7.25l-4.15-10.5q-6.55-15.35-8.25-22.15-1.9-7.7-1.45-18.8M91.05 45q0-1.15.8-2 .75-.8 1.85-.8t1.9.8q.75.85.75 2t-.75 2q-.8.8-1.9.8t-1.85-.8q-.8-.85-.8-2M19.3 40q0-1.15.75-2t1.7-.85 1.65.8q.65.85.65 2 0 1.2-.65 2.05-.65.8-1.65.8-.95 0-1.7-.8-.75-.85-.75-2m30.75 22.45L49 63.3l-.75.25q-.15-.15.1-.95.3-.85.7-1.2.6-.55 1.1-.15t-.1 1.2M34.7 60.9l.6-.1.7.45q.4.5.6 1.15v.75l-.45-.1-1.05-.75-.45-.85q-.1-.35.05-.55"/><path fill="#80cce3" d="M64.45 194.6q2.35-8.1 6.85-16.6l7.25-12.6 6.05-10.65q2.4-5.15 1.95-10.1-.1-3.7-.45-5.15-1.05-4.3 7-6.05 7.5-1.6 17.1-.05 10.2 1.6 14.55 5.7 5.1 4.8-.7 11.3-.5.55-.9 2l-.65 2.1q-1.65 3.6-2.35 8-.4 2.55-.8 8.3-1.1 16.55-2.5 24.5-2.75 15.3-9.1 25.85-2.1 3.45-5.3 5.7-3.9 2.75-7.05 1.6-3.3-1.25-4.9-2.8-5.8 1.6-8.2 1.4-5-.4-8.75-5.75l-4.3-.75q-2.25-.7-3.55-2.45-2.85-3.75-2.85-11.5 0-6.25 1.6-12"/><path fill="#6eb1c5" d="M90.2 224.55q-4.05 3.65-9.8 2.2-5.65-1.45-6.3-5.9-3.55.85-6.75-1.3-6.5-4.25-5-18.95-.45 5.75 3.65 8.3 3.9 2.35 7.85 0 2.45 5.15 7 6.5 4.4 1.35 8.7-1.3 3.1 3.45 9.4 3.45 7.6-.05 13-6.5-1.15 6.85-5 12.05-4.55 6.1-10.2 5.4-3.15-.4-5.15-2.2z"/><path fill="#0d131a" d="m79.55 164.9-7.35 12.65q-4.55 8.55-6.9 16.65-1.65 5.75-1.7 11.7-.05 7.5 2.8 11.25 2.35 3.15 7.15 3.35.25.05.25.85l-.25.85q-2.45.25-4.95-.7-2.6-1-4-2.85-3.1-4.1-3.4-11.15-.25-6.15 1.6-12.7 2.35-8.25 7.3-17.4l7.75-13.3q4.45-7.75 5.85-11.15 2.3-5.6 1.85-10.35-.35-3.8.6-3.3 1 .55 1.35 4.35Q88 149 85.2 155z"/><path fill="#0d131a" d="M81.95 225.95q5.15.85 8.75-1.9.25-.2.8.45.5.7.25.9-5.5 4.2-11.75 2.25-6.15-1.9-7.3-7.9-.75-4 .1-9.65.8-5.45 3-11.4 1.05-2.9 2-2.6.9.35-.15 3.35-1.9 5.75-2.6 11.15-.7 5.25-.05 8.7 1.1 5.65 6.95 6.65"/><path fill="#0d131a" d="M120.25 171.2q-1.25 17.85-2.4 24.8-2.65 15.55-9.15 26.3-2.65 4.4-6.75 6.15-3.55 1.5-6.9.65-6.5-1.65-6.85-9.1-.35-6.7 2.85-17.6 1.05-3.75 2-3.6t-.05 3.95q-2.9 11-2.6 17.1.15 2.95 1.45 4.9 1.3 1.9 3.5 2.45 2.6.65 5.45-.75 3.25-1.6 5.5-5.35 6.4-10.6 9.3-25.65 1.65-8.8 2.7-24.35.6-8.75 2.1-13.95 1.05-3.7 3.15-7.05t3.15-3.1-1.45 4.4q-2.45 4.05-3.6 9-.95 4.05-1.4 10.8"/></svg>