<svg xmlns="http://www.w3.org/2000/svg" width="285" height="299" viewBox="-0.1 -0.35 285.4 299.45"><path fill="#d0bad9" d="M73.7 9.85q-3.1 2.7-13.7 9.75-9.9 6.6-17.85 15.3-5.9 6.45-8.4 11.1 3.35-1.8 8.2-4.05 9.65-4.45 17-6.65 6.25-1.9 13.65-1.8 6.55.05 7.75 1.25 2.6 2.6 1.55 6-1.25 3.85-6.95 5.15-16.9 3.95-25.85 7.5-12.9 5.05-19.45 12.4-6.3 7.1-8.15 20.7-.95 6.8-.95 22.5 0 12 4.55 25.5 5.6 16.6 15.65 26.05 5.3 5 16.45 12.3l-.75 2.2q-1.15 2.55-3.35 4.55-3.55 3.25-4.75 3.45l-4.65-3.75q-19.9-20.8-27.9-37Q6.2 122.85 6.2 97q0-14.6 5.8-31.7 5.55-16.4 14.95-30.85Q36.5 19.7 47.4 11.05 59.15 1.8 69.8 1.8q3.25 0 4.95 1.35Q76.2 4.25 76.2 6q0 1.65-2.5 3.85"/><path fill="#b4a1bc" d="M53.05 25.4q-5.85 5.1-9.7 9.6-3.9 4.55-6.65 9.55.3-1.35-6.15 3.6-6.2 4.7-5.55 3.55 6.15-12.45 18.5-24.95Q55.15 15 67.65 7.8q2.05-1.2 2.9-2.7.95-1.7-.05-3.35 4.4.5 5.5 3.5.95 2.7-1.1 4.15l-11.35 7.95q-6.75 4.75-10.5 8.05M81.9 37.6l.05.25q0 2.6-3.15 5-3.1 2.4-8.85 4.25l-7.1 2.25q-16.65 5.15-23.4 8.9-11.15 6.2-14.65 16.1-1.55 4.8-2.35 8.4-.45-22 18.8-30.65 5.4-2.4 17.5-5.65 11.85-3.15 16.9-5.5 3.2-1.5 3.8-3.8.4-1.5-.4-3.85 2.7 1.9 2.85 4.3"/><path fill="#0d131a" d="M82.4 212.4q6.25-.95 11.65.75 3.3 1.05 6.25 2.9 3.25 2.05 4.1 4.05 1.5 3.55-4.55 8.45l-12.6 8.65q-7.65 5.35-9.3 7.65-2.5 3.5-3.85 15.7-1.3 11.55-.15 13.6l.7 1.3 3.15 5.8q1.45 3.15.9 4.75l-.8 1.15-1.25.75q-3.2 1.4-6.65-.15-2.9-1.3-8.1-5.9-3-2.65-4.3-11.2-.85-5.25-2.1-23.35l-.7-6.45-.7-5.25q-.55-5.25 7.05-11.9 3.4-3 9.85-7.05 5.1-3.3 11.4-4.25"/><path fill="#d0bad9" d="M100.75 220.05q1.2 2.95-4.2 7.85-3.15 2.85-11 8.2-4.15 2.85-5.75 4.05-2.65 2.05-3.6 3.3-2.75 3.85-3.85 16.75-1.05 12.15.3 14.65l.75 1.3q4 7 3.3 9.05l-.65.7q-.25-1.65-1.35-3.65-1.05-2-2.3-3.1-1.25-1.05-1.4-.8-.2.2.8 1.4l1.35 2.1q.6 1.15 1.2 3.3.35 1.25-.75 1.4-1.85.2-4.1-1.2-1.75-1.05-6.1-4.65-3-2.5-4.5-13.85-.85-6.6-1.35-19.3l-.45-8q-.5-4.6 5.85-12.7 5.25-6.7 8.85-9 4.85-3.1 10.75-4 5.95-.9 11.05.7 5.5 1.7 7.15 5.5"/><path fill="#b4a1bc" d="M100.75 220.05q1.2 2.95-4.2 7.85-3.15 2.85-11 8.2l-5.9 4.15q-6.1.8-11.75 4.75-5.95 4.2-9.95 11.05l-.4-8.5-.45-8q-.5-4.6 5.85-12.7 5.25-6.7 8.85-9 4.85-3.1 10.75-4 5.95-.9 11.05.7 5.5 1.7 7.15 5.5"/><path fill="#0d131a" d="M159.75 233.35 148 228.7q-6.15-3.05-8.4-7.4-2.05-3.9 2.3-10.2 3.75-5.45 10-9.95 3.9-2.85 7.35-3.8 4.05-1.1 6.05 1l2.65 2.15q1.7 1.35 2.2 2.35 2.95 5.9 5.9 10.05 7.35 10.4 23.4 27.25 5.8 6.05 6.5 14.75.6 7.65-2.5 11.35-2.15 2.55-5.5 1.7-2.15-.55-4-3.25-2.25-3.3-3.35-9-.4-2.1-5.65-7.15-6.25-6.1-13.7-9.95-5.8-3-11.5-5.25"/><path fill="#d0bad9" d="M159.75 198.75q3.15-.8 4.55.6 1.3 1.4 2.7 4.2 2.75 5.45 7.25 11.4 7.85 10.5 23.85 27.3 5.55 5.85 6.1 13.25.4 5.9-1.9 8.6l-1.3 1.2-2.05.15q-3.95-1.1-5.75-10.3-.5-2.45-6.75-8.3-7.1-6.6-14.75-10.6-3.5-1.8-10.4-4.5-7.6-2.95-10.8-4.85-5.3-3.05-7.45-7.25-1.8-3.45 1.4-8.75 2.95-4.75 8.3-8.6 3.8-2.75 7-3.55"/><path fill="#b4a1bc" d="M160.35 231.4q-7-2.75-10.25-4.75-4.95-3-7.05-7-1.8-3.45 1.4-8.75 2.95-4.75 8.3-8.6 3.8-2.75 7-3.55 3.15-.8 4.55.6 1.3 1.4 2.7 4.2 3.45 6.75 9.85 14.75-5 1.9-9.3 5.25-4.25 3.4-7.2 7.85"/><path fill="#0d131a" d="M75.85 2.8q1.55 2.1.9 5-.65 2.95-3.1 4.4-12.45 7.55-19.6 13.6-7.95 6.7-14.6 15.6L45 38.95q16.05-6.6 28.55-6.6 7.95.05 10.2 4.6 2.2 4.6-4.35 8.25-3 1.7-15.45 4.35Q48 52.95 38 60q-9.25 6.55-12.35 15.45-9.4 26.8-.75 54.75 9 28.95 32.65 42.05l.3.15.05.3q.65 2.15-3.55 6.75l-5.6 5.2-.55.4-7-7.1-9.75-10.5q-5.95-6.5-8.55-10.2Q7.3 135 5.4 105.95q-2.2-34.3 16.7-66.5 9.5-16.15 21.95-26.7 10.2-8.6 20.45-12 3.4-1.1 6.55-.6 3.2.55 4.8 2.65m-5.15-.6q-2.4-.3-5.65.7-9.2 2.9-18.4 10.7-12.2 10.25-22.3 27.45Q7.65 69.4 7.65 99.4q0 16.3 5 31.65Q17.2 145 25.2 156.4q4.2 5.95 16.95 19.8l6.2 6.85q3.1-2.55 5.5-5.25 2.7-3.05 2.7-4.4v-.05q-25.4-13.8-34.35-44.45-4-13.55-3.65-27.95.3-14.15 4.65-26.6 3.3-9.45 13.85-16.45 9.95-6.65 24.7-10.15l9.9-2.25q4.6-1.1 6.35-2.1 4.55-2.6 3.45-5.4-1.1-2.85-6.9-3.2-10.75-.65-26.15 5.3-15.95 6.15-23.65 14.55-.7.75-1.1.5-.4-.3.4-1.8 2.9-5.15 11.55-9.95 6.3-10.1 15.6-18.35 8.4-7.5 19.95-14 4.9-2.75 2.95-6.85-.8-1.7-3.4-2"/><path fill="#b4a1bc" d="M47 167.25q4.5 3.35 9.55 6.1v.05q0 1.35-2.7 4.4-2.4 2.7-5.5 5.25l-6.2-6.85-7.9-8.7q5.9 1.3 12.75-.25"/><path fill="#0d131a" d="m185.05 167.05-1.35 1.85q-4.05 5-6.2 10.7-2.05 5.5-4.2 16.7-2.3 12.15-13.65 21.35-8.8 7.05-22.2 11.8-11.1 3.9-28.55.65-5.75-1.05-13.55-3.2l-10.85-2.95-4.95-1.15q-1.85 0-15.1 13.25-1.6 1.6-4.7 2.35l-6.35 1-8.05 1.4q-4.55 1.2-8.05 3.65-9.7 6.65-15.15 17.75-4.5 9.15-3.65 14.1.6 3.65.55 5.7-.1 2.75-1.25 3.7-1.1.95-4.3.8-3.2-.1-5.4-1.15-3.35-1.55-5.7-5.95-2.3-4.3-2.4-9-.1-4.45 5.05-20.4 5.15-16.1 7.75-18.95.95-1.1 2.2-2.05l2.15-1.65q4.05-3.25 4.9-4.25 2.45-2.95 3.8-8.5l1.35-6.05q3.65-16.4 7.35-22.85 7.4-12.65 24.55-18.75 6.6-2.35 19.2-3.4 10.55-.85 22.8-.65 11.95.25 18.8-.35 8.55-.75 12.85-3.05 7.65-4.1 12.45-10.3 4.55-5.85 7.85-15.4l.4-1.15z"/><path fill="#d0bad9" d="m183.2 167.15-.65.9q-5.8 6.7-7.7 11t-4.05 15.6q-2.25 12.05-12.7 21.4-8.9 7.95-21.15 12-8.15 2.75-28-.75-9.05-1.6-27.3-6.15l2.65-2.85q1.3-1.35.95-1.85-.8-1.1-7.85 4.9-5.75 4.9-13.1 12.25-1.4 1.4-4.3 2.2l-6.1 1.1-8.5 1.65q-5 1.35-8.7 3.9-10.15 7.05-16 19-4.85 9.9-3.95 15.25.85 5.35-1.05 6.95-.6.55-1.3.6.4-1.45-.1-3.2-.55-1.95-2-3.45-.45-.45-.7-.25-.3.2.1.7 1.9 2.45 1.5 5.1-.15 1.25-1.45.95l-1.55-.5q-2.3-.85-4.9-4.55-2.55-3.6-3.2-6.65l-.05-.65q0-4.45 5-19.9 5-15.55 7.35-18.15 1.65-1.85 4.4-4 3.45-2.75 5-4.9 2.6-3.55 4.05-9.55l1.15-5q3.35-15.2 7.9-22.55 7.8-12.65 24.6-18.6 6.2-2.2 18.85-3 7.45-.5 22.5-.65l18.35-.7q14.25-2 22.35-10.2 6.5-6.6 10.45-19.15z"/><path fill="#b4a1bc" d="M122.4 221.7q12.6 0 23.55-3.75 12.25-4.2 20.85-12.55-4.55 8-13.1 14.2-7.6 5.45-16.75 8.45-8.15 2.75-28-.75-9.05-1.6-27.3-6.15l2-2.2 1.5-1.65 1.15-.4q2.9-1 15.45 1.7 14.6 3.1 20.65 3.1m60.8-54.55-.65.9q-5.05 5.85-6.9 9.35-2.05 3.9-3.6 11.1l-.7-.6q-9.95-7.5-16-17.05-6.35-9.95-7.8-21.25 3.65-5.45 6.45-14.2z"/><path fill="#d0bad9" d="M156.15 213.45q-3.1 4.7-6 10.05-3.95 7.4-5.2 12.15-2 7.45-2.7 26.35-.75 21.65 2.7 26.2 2.05 2.65 1.35 6.2-.75 3.75-4.1 3.35-4.2-.5-7.15-4.35-1.8-2.4-3.6-7.15-2.45-6.4-3.8-21.95l-1.75-24.25q-1.25-14.55-6.1-29.8-1.7-5.3 5.25-8.35 6.25-2.8 15.5-2.4 9.4.35 14.15 3.75 5.55 3.95 1.45 10.2"/><path fill="#0d131a" d="M158.15 210.6q.25.7-1.45 3.25-2.15 3.35-5.3 9.65-4 8-5.25 12.7-2.75 10.2-3.2 25.3-.55 16.6 2.45 24.9 2.65 7.25 1.2 10.7-.85 2-3.65 1.9-3.1-.15-6.5-3.05-4.6-3.9-7.15-14.35-2.7-11.3-4.45-35.7l-.4-5.75q-1.1-12.7-2.75-20.65-1.35-6.7-2.8-8.7-1-1.4-.6-1.8.4-.35 1.5.75 2.7 2.65 4.5 11.05 1.65 7.7 2.35 19.2l.4 5.8q1.65 22.85 4.1 34.1 2.2 10.2 5.8 14 2.45 2.55 5.15 3.1 2.6.55 3-1.15.65-2.85-1.5-8.45-3.25-8.6-2.65-26 .55-15.5 3.3-25.95 1.35-5.1 5.15-12.3 3.3-6.35 6.15-10.15 2.35-3.1 2.6-2.4"/><path fill="#d0bad9" d="M277.8 72.2q1.75-.85 2.2-.4.5.55-.05 2.5-.7 2.6-3.1 6.65l-2.05 3.7q-9.25 16.8-17.55 27.35-15.5 19.6-32.3 26.3l-.45.15.2 2.35q.15 2.55-.1 3.5-2.8 11.7-14.25 20.55-11.25 8.7-22.65 8.45-4.55-.05-11.15-3.05-6.7-3-12.6-7.65-14.65-11.5-13.15-22.45.15-1.35 1.25-3.3.6-1.1-.4-2.4-2.25-3.15-5.4-6.25L125 106.7q-14.25-15-18.9-22.7-6.9-11.4-11.5-24.2-4.35-12-2.8-13.45.1-.25 1.05.4 2.3 1.55 4.35 3.6l3.15 3.4 2.55 2.8q1.4 1.35 2.85 2.15l4.5 2q14 5.8 28.85 13.95 22 12.05 34.9 23.85l1.35 1.5q.55.6 2.1 1.5 1.6.95.65-.85l-1.25-2q5.7-2.05 13.7-1.65 7.95.4 14 3 5.9 2.5 7.95 4.8.95 1.05 1.85.9.9-.2-.2-1.5l-1.65-2.1q6.3-5.5 17.35-11.45Q244.3 82.9 258.4 79.6q7.15-1.7 11.4-3.35 2.55-1 5.65-2.75z"/><path fill="#b4a1bc" d="M280.2 72.3q.35 2.45-3.35 8.65l-2.05 3.7q-8.5 15.55-16.4 25.85-14.25 18.6-29.8 26.15l-1.75-.65-1-.05-.35-3.15q5.4-7.5 13.7-15.65l14.95-13.85q18.85-17.25 26.05-31"/><path fill="#4b5170" d="m262.65 88 10-4.25q-4.15 15.6-16.35 30.6-11.6 14.2-25.55 22.1l-2.6-.05-2.65-.05q-.55-6.75-2.15-12.65-1.45-5.25-3.35-8.65 9.15-9.6 20.75-16.5 8.25-4.9 21.9-10.55"/><path fill="#393d59" d="m262.7 88 9.75-4.2q-.2 1.95-1.15 4.85-1.4 4.25-3.75 7.95-14 1.75-25.75 12.2-10.55 9.4-16.75 23.35-.9-5.3-2.1-9.95-1.35-5.05-2.6-7.25Q229.8 105 242.2 97.8q7.7-4.5 20.5-9.8"/><path fill="#b4a1bc" d="M106.1 84q-6.15-10.25-10.4-21.25 6.75 1.45 13.6 5 7.95 4.1 26.35 19.35 21.15 17.5 20.3 22.8l-2.2 17.85q-1 8.1-2.1 6.7-2.25-3.15-5.4-6.25L125 106.7q-14.25-15-18.9-22.7"/><path fill="#4b5170" d="M113.75 94.4q-6.9-9.8-10.6-17.8-3.6-7.8-2.3-9.55Q112.6 69 129.8 80.55q17.2 11.5 31.5 26.95l-.15.3q-3.15 4.95-5.55 10.15-3.75 7.95-4.3 13.45-19.8-11.75-37.55-37"/><path fill="#0d131a" d="m277.8 72.2-2.35 1.3q-3.1 1.75-5.65 2.75-4.25 1.65-11.4 3.35-14.1 3.3-28.55 11.05-11.05 5.95-17.35 11.45l1.65 2.1q1.1 1.3.2 1.5-.9.15-1.85-.9-2.05-2.3-7.95-4.8-6.05-2.6-14-3-8-.4-13.7 1.65l1.25 2q.95 1.8-.65.85-1.55-.9-2.1-1.5L174 98.5q-12.9-11.8-34.9-23.85-14.85-8.15-28.85-13.95l-4.5-2q-1.45-.8-2.85-2.15l-2.55-2.8-3.15-3.4q-2.05-2.05-4.35-3.6-.95-.65-1.05-.4-1.55 1.45 2.8 13.45 4.6 12.8 11.5 24.2 4.65 7.7 18.9 22.7l21.25 21.5q3.15 3.1 5.4 6.25 1.05 1.35.8 2.1l-1 2.95q-1.9 11 13.6 22.7 6.05 4.6 12.85 7.65 6.5 2.9 10.35 2.95 10.05.1 21.65-8.95 11.85-9.2 13.95-19.35.6-3.05.65-5.55v-.5l.45-.15q16.8-6.7 32.3-26.3 8.3-10.55 17.55-27.35l2.05-3.7q2.4-4.05 3.1-6.65.55-1.95.05-2.5-.45-.45-2.2.4m-2.5-1.1q5.05-2.7 6.6-2.4 3.4.6-2.25 11.25l-6.15 11.1q-8.95 15.15-16 23.7-14.7 17.8-31.6 24.7-.1 4.45-.65 6.9-2.45 10.8-15.25 19.75-11.9 8.4-21.75 8.3-8.55-.1-22.4-9.45-14.9-10.1-16.1-19.2-.25-2.05-.05-4.15l.2-1.7q.15-1.5 1-2.85.4-.7-.4-1.7l-6.1-6.25-21.35-21.5q-14.3-15.05-19-22.85-5.9-9.75-10.95-22.7-4.4-11.3-4.7-15.25-.3-3.75 1.6-4.15 1.3-.3 3.05.85 2.15 1.5 6.15 5.7l6 6.3 2.35 1.45 3.65 1.85q41.2 17.25 63.65 37.95 7.4-2.5 16.2-2 11.25.65 19.5 6.5l.3.2q6.45-6.4 17.9-12.55 13.45-7.2 27.95-10.6 6.75-1.6 12.15-3.95z"/><path fill="#0d131a" d="M271.35 83.45q1.85-.9 2.25-.4.35.4-.25 1.85l-4.5 10.6q-4 8.65-8.55 14.75l-.45-1.6q4.95-6.6 8.7-14.85 3-6.55 3.2-8.95l-8.55 3.7Q250.1 94 242.85 98.2q-12.35 7.05-21.7 16.95 1.8 3.2 3.3 8.9 1.55 6.1 2.1 12.85l-1.75 2.35-.05-.65q-.5-7.65-1.85-13.95-1.4-6.3-3.25-9.25l-.3-.5.4-.4q9.55-10.2 22.15-17.45 7.2-4.15 20.75-9.85 6.35-2.6 8.7-3.75"/><path fill="#393d59" d="M113.05 92.95q-5.9-7.5-9.75-16.35-3-6.95-3-9.65l.05-.2q11.75 2 29.1 13.65 17.3 11.65 31.6 27.15l-.4.8-3.4 5.4q-2.05 3.6-3.1 7.15-3.55-9.85-15.55-17.6-11-7.1-25.55-10.35"/><path fill="#0d131a" d="m101.45 68.3-.05.2q0 6.55 11.95 23.8 13.2 19.05 28.4 31.25l-1.35.05q-15.3-12.15-26.8-28.05Q102.85 80.7 99.95 69.3q-.8-3.1-.05-3.4.55-.2 4.85 1 12.05 3.35 27.1 13.85 15.7 10.95 29.9 26.4l.35.4-.75 1.25q-4.75 7.4-6.95 13.85h-1.45q2.45-7.1 7.15-14.65l.2-.25q-14.35-15.5-30.7-26.5-16.45-11-28.15-12.95"/><path fill="#d0bad9" d="M155.65 122.1q2.3-.45 1.05 5.1-1.1 5.15-3.9 10.35-3.5 6.75-7.3 10.1-4.15 3.65-10.4 4.85-.7-1.35 1.75-6.7 1.9-4.1 2.95-5.6-5.1 4.75-21.05 8.15-14.05 3-20.6 2.45 8.35-16.2 28.9-23 6.8-2.25 16.05-3.75z"/><path fill="#0d131a" d="M140.45 139.15q2.35-2.15 2.8-1.8t-1.6 2.65q-2.5 2.9-4.15 6.1-1.7 3.3-1.95 5.9 4.95-1.7 8.35-4.35 4.05-3.15 6.75-8.3.9-1.8 1.3-2 .5-.2-.4 2.5-1.45 4.5-5.35 7.95-4 3.6-10 5.55l-1.85.35q-.4-.2-.35-1.3.2-3.8 2-7.35 1.65-3.35 4.45-5.9"/><path fill="#0d131a" d="M153.1 121.8q3.05-.35 3.1.4t-3.1.95q-12.9.85-24.45 4.95-19.65 7-29.3 21.7 8.8.2 21.2-2.9 11.35-2.85 19.2-6.7-.65.95-.8 2-8.9 4.5-19.75 7.15-11.25 2.7-20.5 2.35l-1.7-.2q-.15-.25.55-1.5 8.9-16 28.6-22.95 9.55-3.4 26.95-5.25"/><path fill="#6355a1" d="M209.3 143.2q3.95-5.05 10.8-7.7 2.35 9.5-3 16.2-5.25 6.5-14.3 5.95 2.55-9.4 6.5-14.45"/><path fill="#fff" d="M207.3 145.25q.75-2 2.3-3 1.4-.95 2.75-.5 1.45.5 2.05 2.4.55 1.9-.15 3.85-.7 2-2.3 3.05t-3.2.55q-1.25-.45-1.75-2.05-.65-1.9.3-4.3"/><path fill="#6355a1" d="M179 155.35q-11.7.8-16.65-5.55-5.2-6.7-2.55-21.1 9.5 4.3 14.4 11.3 4.8 6.8 4.8 15.35"/><path fill="#fff" d="M175.4 142.35q.7 2.65-.2 4.6-1 2-3.1 2.2-2.05.2-3.7-1.3t-2-3.95q-.3-2.25.75-4.1 1-1.9 2.65-2.2 1.9-.35 3.4.95 1.55 1.3 2.2 3.8"/><path fill="#0d131a" d="M190.75 168.05q1.3.2.05 1.05-.75.6-1.6.6-.8-.1-1.65-.65l-.85-.9q0-.25 1.05-.3zM186 136.3q.1-2.9 1.95-4.8 1.95-1.95 4.8-1.95t5.15 2.15q2.25 2.15 2.25 5 0 2.9-2 4.9-2.05 2.05-4.9 2.05-3 0-5.1-2-2.25-2.1-2.15-5.35"/><path fill="#e4004f" d="M187.75 136.7q0-2.25 1.6-3.85t3.9-1.6q2.25 0 3.85 1.6t1.6 3.85q0 2.3-1.6 3.9t-3.85 1.6q-2.3 0-3.9-1.6t-1.6-3.9"/><path fill="#e4004f" d="M187.75 136.7q0-2.25 1.6-3.85t3.9-1.6q2.25 0 3.85 1.6t1.6 3.85q0 2.3-1.6 3.9t-3.85 1.6q-2.3 0-3.9-1.6t-1.6-3.9"/><path fill="#c60044" d="M192.5 141.45q2.25 0 4-1.4 1.7-1.4 2.2-3.55v.2q0 2.3-1.6 3.9t-3.85 1.6q-2.1 0-3.75-1.5 1.35.75 3 .75"/><path fill="#0d131a" d="M181.2 142.1q-.25-.9.45-1.15.7-.3.95.8.3 1.25.45 4.65.05 1-.4.95t-.55-1.3l-.4-2.25zm20.6 1.45-.65 1.65-.6 2.15q-.25 1.3-.7 1.3-.4 0-.3-1 .6-3.7.9-4.55.35-1.1 1-.75t.35 1.2"/><path fill="#f09b9e" d="M194.1 134.65q0 1.05-.75 1.8t-1.75.75-1.75-.75q-.7-.75-.7-1.8t.7-1.8q.75-.75 1.75-.75t1.75.75.75 1.8"/><path fill="#0d131a" d="m179.65 155.2-.2.85q-.25.2-.85.2-12.35.3-17.65-6.75-5.35-7.1-2-20.05l-.6-.2q-1.9-.55-1.6-1l2.75.1q9.2 2.25 15.05 10.6 5.4 7.75 5.1 16.25m-1.45-.4v-.45q0-8.7-6.3-16.1-5.05-6-11.6-8.35-2.55 12.05 2.1 18.4 4.55 6.25 15.8 6.5m41.25-18.3-.55.2q-4.8 1.75-8.8 6.95-4.25 5.45-6.3 13.2 7.45 1.05 12.6-5.4 5.15-6.5 3.05-14.95m2.65-1.7q-.05.5-1.3 1.15 2.7 9.25-3.15 16.45-5.9 7.3-14.85 5.65-.5-.05-.6-.3l.05-.8q2.45-9.4 6.2-14.45 4.1-5.5 10.8-7.55z"/><path fill="#d0bad9" d="M224.6 135.65q15.5 3 25.05 10.3 10.75 8.15 19.65 25.4-7.5-.05-18.6-4.5-10.2-4.15-14.3-7.95 1.45 1.6 2.2 5l.45 3.05q-6.35-2.9-10.75-6.85-5.25-4.65-6.1-9.55-.75-4.45-.15-9.55.65-5.75 2.55-5.35"/><path fill="#b4a1bc" d="M224.85 145.65q.55-2.25.65-6.1 2.6 2.85 3.85 11.55 1.35 9.15 3.5 12.2-3.5-2.65-6.55-6.5-3.05-3.8-3.75-6.4 1.6-1.95 2.3-4.75"/><path fill="#0d131a" d="M225.5 136.6q-.7-.05-.8-.65-.05-.55.7-.45 14.3 2.05 25.15 10.05 11.65 8.6 18.75 23.65 1 2.1.65 2.6-.4.55-3.1.3-6.85-.65-15.35-4.05-9-3.55-14.35-8.1l-1.6-2.45q5.55 4.45 15.15 8.3 9.65 3.85 17.15 4.65-15.2-29.85-42.35-33.85"/><path fill="#0d131a" d="M236.55 157.2q1.9 3.25 3.1 8.45.4 1.75.1 2.05-.25.25-1.75-.3-5.4-2.15-9.65-6.15-4.55-4.3-6.8-9.8-.1-.3.35-.8.45-.55.6-.3 4.1 9.4 15.3 15.1-.75-4.15-2.7-7.9-1.15-2.3-.5-2.4.65-.15 1.95 2.05"/><path fill="#0d131a" d="M223.6 146.1q.95-2.4 1.2-1.75.25.55-.15 2.85-.6 2.65-1.65 4.9-.95 2-2.25 2.1-1.35.15-.55-1.2 2.1-3.5 3.4-6.9m.95-6.65v-3.05l-.1-3.1q.05-1.55.85-1.2.85.4.9 2.65.05 2.3-.3 4.8-.2 1.15-.8 1t-.55-1.1"/></svg>