<svg xmlns="http://www.w3.org/2000/svg" width="171" height="187" viewBox="-0.3 -1.35 171.25 187.45"><path fill="#003e6a" d="M95.55 42.6q-5.7 12.45-11.3 19.9 6.35 3.35 11.55 6.6 8.3 5.1 7.95 6.55-.45 1.9-9.65 2.2-9.85.35-18.25-2-1.85 3.8-6.35 8.05-5.45 5.15-10.85 6.35l-.25 4.7q.9-.5 2.35-.95l2.15-.5q-1.05 2.2-1.3 4.2l4.3-.85 4.55-1.3q-.3 1.4-1.6 3.75-1.4 2.45-2.55 3.55 5.15-.65 8.35 2.75 4.9 5.1 12.1 7.9 8.4 3.3 13.25.2l2.4 2q1.15 1.4 1.15 3.5-3.2 9.25-10.65 18-7.5 8.75-13.75 10.6-4 1.1-5.3 4.35-1.75-2.45-2.15-2.45l-.9.85-1.05 1.55q-1.7-3.25-5.65-3.25-8.6-.05-16.5-4.75-8.7-5.2-10.55-13.1-1.7-7.25 1-13.95 2.35-5.75 7.35-9.9-3.65-5.65-6.05-8l4.25.65 4.05.95q-1.3-2.55-1.95-6 2.35 1.35 4.95 2l.35-3.1q.15-2.2-.1-2.65-.7-1.35-1.95-2.3l-20.7-17.25 1.3-2.7q-.55-.8-1-2.6-.4-1.8-.4-3.4-5.5-2.6-13.45-7-10.55-5.85-12.9-8.2-.9-.9-.7-1.7.25-.95 2.05-1.1 5.05-.3 11.75 0L27.8 46q.45-6.8 3.05-17.9 2.6-11.15 3.8-11.25 1.1-.05 4 5.7 2.65 5.2 4 9.3 6.6-9 20.8-20.6Q77.3-.1 79.8.9q1.25.5 1.7 14.5.45 12.8-.05 19.4 4.35-1.7 10.3-3.45 7.45-2.2 8.2-1.45 1 1.05-4.4 12.7m66.85 52.1-4.45 3.45 5.6 1.8q3.3 1.2 5.2 2.55-5.15 4.25-11.25 8.35l5.5 4.1-5.25 1.25q1.9 2.8 4.05 4.7l-4.8.25-5.15-.1q1.5 1.85 2.55 4.15l-10.45-1.7q1.95 1.2 5.3 4.35-5.65.8-18.6-3.15-13.55-4.1-21.2-9.35.55-1.35-.55-3.4-1.1-2.15-2.75-2.45-.05-7.4 5.55-18.8 5.55-11.3 12.1-17.35.8 2.1 1.2 5l4.6-3.95q3.2-2.5 5.15-3.4-1.35 3.7-1.65 5.25 4.8-3.5 8.3-5.05-1.45 2.6-2.9 7.45 2.8-1.95 6.85-4.1 4.7-2.55 7.2-3.15l-1.05 2.1-1.65 2.5 3.35-.2-1.75 2.75 9.3-1.2 9-.25q-4.8 8.8-8.4 13.6l4.85.3z"/><path fill="#ffe792" d="m38.6 174.85-2.1-.65q.95-1.1-.1-2.6-1-1.5-2.55-1.3-.45-1.55-2.3-1.95.45-3.45 6.1-1.1 1.8-.35 3.9-.05l5.9-.35 5.95-1.1q2.5-.6 3.6-1.8 1.15-1.3 1.2-3.85.1-2.6-.85-12.15l6.75.9-.35 6.3-.05 6.35q.05 1.9 1.2 3.15.9 1.05 2.2 1.35 1.2-1.55 1.2-7.5l-.35-8.6 1.8 2.2q1.55-2.4 1.95-2.4.3 0 1 .85l1.15 1.6 1.45-2.25q-.75 4.25-1.25 12.65-.1 1.8.95 3.5.9 1.5 2.05 1.9 2.3.95 7.05 1.1 1.95.05 2.75 1.5.6 1.05.5 2.6-.05 1.05-.9 1.45-.75.3-1.45 0-1.5-.65-3.95-.65l-4.7.65q-2.3.65-5.25 2.8-2.65 1.95-4.35 3.95l-1.9 1.5-2.45.1q-1.65-.85-3.2-2.3-1.7-1.6-1.95-2.7-.9.2-1.9.75l-1.4 1q-1.05 1.05-2.25.95t-1.45-1.15q1.4-.35 1.9-1 .55-.8-.1-2.25t-1.9-1.7q-1.15-.2-2.55.55-.5-.75-1.45-.65-1.05.1-1.95 1.05-.6-2.05-2.1-2.15-1.45-.1-3.5 1.5"/><path fill="#e73820" d="M109.9 115.2q-1.05 1.5-4.8 3.6-1.35.7-1.5-.35-.1-1.05-.95-2.35-.8-1.25-1.55-1.7-.65-.4-.65-.85-.05-.5.6-.85l4.5-3.15q1.75-1.25 3.6 1.4 1.85 2.7.75 4.25"/><path fill="#fff" d="M34 170.35q-2.4.15-4.1 2.85l-2.65.2q.1-3.6 2.95-4.8 2.8-1.2 3.8 1.75"/><path fill="#fff" d="M35.85 174.55q-4.2 1.3-6.3 2.5-.25-2.35.4-3.75.9-2.1 3.8-2.85 1.9-.5 2.9 1.5 1.05 2-.8 2.6m1.1 5.45q-.05-1.9.9-3.65 1-1.9 2.8-2.7 1.25-.55 2.3 0 1.1.6 1.25 2l-.95 1.9q-.9.25-6.3 2.45"/><path fill="#fff" d="M47.6 175.1q-1.1.8-1.85 2.4-.7 1.5-.7 2.9-1 .35-2 1-.15-4.15 1.6-6.1 1.65-1.8 2.95-.2"/><path fill="#fff" d="M49.55 174.45q2-.25 2.65 2.2.65 2.5-1.3 2.75-1.2.2-2.6.75-1.5.55-2.1 1.15-.5.5-.8.3-.3-.1-.3-.6 0-2.6 1.15-4.4 1.2-1.9 3.3-2.15m11.4 8.75q-2.85 1.2-3.95 2.05-.6.45-1 .2-.3-.2-.3-.75 0-1.6.55-3.05.65-1.6 1.75-2.4 2.55-1.9 4.05.5 1.5 2.35-1.1 3.45m25.8-12.55q1.6.25 2.7 2t.35 2.9l-1.45.05q-1.05-.35-1.8-.95 1.4-1.6.2-4m-47.5-111.1q1.2 3.9.3 7.85-1 4.45-4.25 4.9-3.2.45-5.35-3.1-1.8-3-1.8-6.45 2-.95 5.8-1.95zm11.85-.1q4.15.85 9.15 2.6 4.3 1.55 6.55 2.7.05 3.6-2.4 6.45-2.6 2.95-6.2 2.95-4.35-.05-6.45-4.55-2.15-4.5-.65-10.15"/><path fill="#e73820" d="M39.85 66q-.05 2.1-1.05 3.75-.95 1.65-2.3 2.1-3-.6-3.85-4.55-.7-3.1 0-6.25l4.65-1.25q1.25 1.15 2 3.3.55 1.65.55 2.9m17.6-4.95q3.75 1.2 7.3 2.7.25 3.25-1.3 6.1-1.7 3-4.05 2.7-2.85-.35-3.5-4.45-.7-4.1 1.55-7.05"/><path fill="#fff" d="M36.65 63.3q.65.05 1 .85.35.7.35 1.65t-.45 1.7q-.45.8-1.15.75-.7 0-1.1-.8-.4-.75-.4-1.8 0-.95.6-1.7.55-.7 1.15-.65m23.45.8q.85-.05 1.35 1.1.45 1 .4 2.2 0 1-.8 1.95-.75.9-1.4.85-.6-.05-1.05-1.1-.45-1-.45-2.05-.05-1.3.55-2.15.55-.75 1.4-.8"/><path fill="#c82e19" d="m109.8 112.3.35.75.05 1.6q-.3.8-2.7 2.55-2.45 1.75-3.6 2l-.8-2.25q3.45-1.65 6.7-4.65"/><path fill="#8198ba" d="M35 16.85q-1.35 4.35-2.75 13.9-1.6 10.5-1.4 15.85l-2.95-.55q.45-6.4 2.75-17.2 2.65-12.15 4.35-12M80.1 1q-6.15 3.35-20.8 17.25-12.8 12.1-18.65 19.05-.85 1.05-1.8.8-.9-.25-.15-1.4 5.2-7.95 19.7-21.15Q74.25 1.15 80.1 1m5.15 32.4q13.8-4.85 14.7-3.1-4.65 1.05-16.15 5.55-10.3 4-16.05 6.75-1.25.6-1.55-.25t.5-1.3q6.15-3.3 18.55-7.65"/><path fill="#8198ba" d="M102.5 73.95q1.2.95 1.1 1.8-.1.8-1 1l-.85-.95-1.4-1Q82.3 62.05 53.45 54.15q-25.8-7.1-48.05-7.35-2.6 0-2.95 1.55-1.7-1.7-1.4-2.65.3-.85 2-1Q20 42.8 50.4 50.8q34.05 8.95 52.1 23.15m-51.9 23.8-2.7-.45 1.25 3.95q.65 1.45-.75 1-2.7-.8-5.05-.9 1.25 2.6 1.95 5.3l-2.55-3.75q-1.95-2.6-2.95-3.45l4.05.35 3.75.95-1.2-3.05-.85-3q3.5 1.8 5.15 2.05zm74.3-19.25-1.4 1.55-.45-3.3q-3.7 4.6-8.45 14.55-5.45 11.45-6.6 19.35l-.95-.85q-.55-.35-1-.4.2-7.8 6.9-20.9 6.5-12.7 10.85-15.05 1.05 3.55 1.1 5.05"/><path fill="#8198ba" d="M137.25 73.6q2.6-1.55 4.2-2.25-1.15 2-3.3 7.5 0-3.35.3-4.35-4.35 2.5-5.1 2.95l-1 .35q-.45 0-.4-.55l.1-3.05q-1.1.6-4.7 3.35l-4.6 3.6q1.65-2.6 5.7-5.85 3.5-2.9 6.3-4.35-.6 1.45-1.6 5.45 1.2-1.1 4.1-2.8m.95 5.45q3.15-2.6 8.35-5.1 4.2-2.1 6.3-2.6-2.15 3.55-3.7 5.35l.5-2.65q-1.8.6-5.5 2.25z"/><path fill="#8198ba" d="M149 76.8q.4-.75 1.35-.9l2.85.2q-2.3.5-3.25 1.35-.4.35-.8.15-.45-.25-.15-.8m1.4 2.5 1.25-.8q14.8-1.8 18.2-1.05l-9.5 1.25-9.15 1.65q-.75.2-.95-.25-.2-.35.15-.8m-83.35 32.4q-3.6 6.45-2.6 13.25 1.25 8.1 9.2 14.15-3.45-1.3-7.1-5.7-3.75-4.45-4.25-8-.5-3.35.95-7.3 1.35-3.5 3.8-6.4"/><path fill="#002e54" d="M99.95 30.3q-.45 4.75-5.8 15.4-5.2 10.3-10.2 16.95l-4.75-2.2q3.95-4.65 11.35-15.8zM88.5 77.85q-6.7-.25-12.75-2.15l-1.05 1.9-1.2 1.9q-.1-1.45-2.9-4.8-2.9-3.45-5.35-4.65l.85-1.55q1-3.15.7-3.75-.25-.5-8-3.25-7.35-2.4-7.7-2.05-.2.2-.5 2l-.2 1.75-3-.6-3-.2q-.75-1.85-1.9-1.85-.75 0-1.8.95l-.95.95-.5-2.9-7.2 1.65-3.9 1.55Q7.85 53.05 4.5 49.4q-2.4-1.7 11.8-.55 15.9 1.35 33.7 5.9 17.6 4.5 36.15 13.85 6.9 3.45 11.05 6.2 3.95 2.55 2.7 2.65zm75.2 28.65-5.95 4.2 5.05 4.1q-2.5 1.05-5.1 1.4l1.95 2.45 2.2 2.4q-2.15.25-10.05-.05l2.6 4.25-5.5-.85-5-.95 5.3 4.4q-5.8.75-19.05-3.3-13.45-4.15-20.7-9.05l.05-2.05q-.15-.95-.8-1.85 4.7 2.75 14.7 5.55 10.35 2.85 15.6 2.6-3.3-2.35-5.05-5.7 3.25.95 6.8 1.1l6.15-.15q-3.5-1.05-6.45-4.25 6.6-.4 13.65-2.65 5.95-1.9 14.15-5.85-.6 1.25-4.55 4.25m-97.8 36.25q9.8-.2 18.9-4.5 9.55-4.55 15.7-12.45-2.15 6.05-9 13.25-7.15 7.45-12.7 8.75-1.45.35-2.75 1.4-1.5 1.2-2.15 2.9l-2.05-2.65q-1.5 1.4-2.1 2.75-1-1.8-2.15-2.55-1.45-.95-3.7-.85-9.5.35-17.8-5.85-9.1-6.8-9.9-17.25 3.75 8.55 12.05 13.05 7.7 4.15 17.65 4"/><path fill="#dbc77f" d="M68.35 159.8q.2-3.3-.45-9.9l1.85 2.3q.45-.95 2.1-2.75l2.05 2.65q.45-.9 1.35-1.9-.5 2.8-1.2 10.15-.65-1.3-2.7-1.5-2-.2-3 .95m-4.6-2.1q-2.05-.9-5.45.5l-.85-10.25 6.45.85zM38.8 174.9l-2.2-.8q.75-1.2-.05-2.45.35-.8 1.6-1.3 1.2-.5 2.65-.5 2.25 0 8.35 1.1.5.1-.8.35l-1.95.45q-2.55-1.1-4.05-.6-1.55.5-1.55 2.4-.15.05-2 1.35m-6.3-6.2q.35-.6 1.25-.7.95-.15 1.65.35-.65.85-.75 1.95l-.6.1q-.4-1-1.55-1.7"/><path fill="#dbc77f" d="M43.2 173.8q.55-.7 2.4-.3l-.15 1.05-1.15.85-.4-.9zm3.45.65q.4-.8 1.25-1.25.95-.45 2.15-.4-.4.8-.4 1.65-.9.1-1.85.65-.75-.65-1.15-.65m5.3 1.4q1.15-1.55 3.65-1.4 3.4.15 6.7-1.05 2.45-.95 5.5-2.95-1.1 1.85-4.35 3.45-2.75 1.35-4.7 1.6-1.85.2-1.65 2.45-1.3.3-2.8 1.55-1.3 1.05-2.55 1.1t-1.4-1q1.15-.2 1.65-1.2.6-1.1-.05-2.55m10.5 4.45q1.25-1.5 5.75-4.1 4.2-2.45 6.7-3.35 2.55-.95 6.2-.9 3.6.05 6.25 1-.4 2.25-2 1.7-2.2-.75-5.15-.65-3 .15-5.05 1.15-2.25 1.05-4.95 3.1-2.45 1.8-4.25 3.65-.8.85-1.8 1.15-1.2.3-2.1-.45.7-.9.4-2.3"/><path fill="#dbdcdc" d="M27.3 172.15q1.05-.75 2.65-1.15l2.4-.3q-1.9 1.3-2.35 2.45l-2.65.35q-.2-.85-.05-1.35m2.05 5.15q.8-1.7 3.25-3.6 2.45-1.95 3.9-1.9 1.1 2.25-.5 2.65-1.2.3-3.15 1.15-2.3.9-3.5 1.7m7.95 2.55q.75-1.55 3.05-3.25 1.9-1.45 3.45-2.05l.5.85-1.05 2.1q-4.45 1.65-5.95 2.35m5.85.05 1.1-1.65 1.6-1.35-.7 3.2-1.9 1.2zm2.05 2.05q.95-2.3 2.8-4.05 2.05-1.95 3.85-1.8.75 1.05.5 2-.3 1.05-1.8 1.35-2.95.7-5.35 2.5m10.7 3.85q.55-1.65 2.45-3.65 1.75-1.85 3.4-2.75.75.5.75 1.65-.05 1.3-1.35 1.95-3.65 1.75-5.25 2.8m31.45-12.85 1.35 1.2 1 1.65q-1.2-.1-3.2-1.15z"/><path fill="#0d131a" d="M89.45 78.5q-8.35-.3-13.9-2.15l.45-1q5.25 1.55 12.7 1.9 7.9.35 12.85-.95l1.4-.8q.1-.45-.75-1.1Q86.4 62 56.05 53.05q-30.5-8.95-52.65-7.6-1.35.1-1.55.6t.7 1.25q3.4 2.75 12.3 7.75 7.45 4.2 13.9 7.3l-.7 1.1Q21.65 60.4 14 56.1q-8.95-5.05-12.4-7.85Q-.3 46.7.1 45.5q.4-1.25 3.15-1.4 23.7-1.4 53.55 7.4 29.5 8.75 46.3 21.9 1.55 1.25 1.45 2.3-.2 1.2-2.65 1.85-4.5 1.2-12.45.95"/><path fill="#0d131a" d="M42 32.6q-1.2-3.55-3.85-9.05-2.8-5.75-3.4-5.7-.8.1-3.2 10.25-2.6 10.95-2.9 18.1l-1.4-.1q.25-7.95 2.9-18.8 2.65-11 4.45-11.2 1.4-.15 4.45 5.6 2.55 4.9 4.1 9.55z"/><path fill="#0d131a" d="m82.05 34.9-1.15.4q.3-8.15-.3-20.7-.55-12.45-1.2-12.85-1.9-1.1-15.15 9.75Q49.3 23.7 39.3 37.05q-.5.65-.8.5t.2-.9Q48.05 22.5 63.4 10 77.35-1.35 80.45.1q1.15.55 1.65 13.85.5 12.5-.05 20.95"/><path fill="#0d131a" d="M95.7 44.2Q89.35 57.45 84.45 63l-1.2-.65q3.75-4.1 10.35-17.6 6.55-13.25 5.65-14.3-.65-.85-12.9 3.4-12 4.15-18.95 7.55l-1 .2q-.15-.25.65-.8 6.3-4 19.15-8.45 13.05-4.55 14.35-3.1Q102 30.9 95.7 44.2M2.2 47.55q.25-1.35 2.55-1.35l14.35.9q10.8 1.05 15.75 2.4 1.05.25.9.55l-1.05.1q-5.15-1.1-15.55-2.05L4.9 47.35q-1.6 0-1.7.95zm97.7 27.3Q95.7 72 88.8 68.3q-6.8-3.65-12.25-6-.85-.4-.75-.7t1 0q5 1.8 12.1 5.6 7.2 3.85 11.4 7.05.75.6.55.85t-.95-.25m-60.15-15.3q1.3 4.9.2 8.65-1.15 3.9-4.4 4.65-2.6.6-5.05-1.9-2.85-2.9-2.85-8.05 0-.5.45-.75 1.85-.95 5.35-1.9l5.5-1.2q.65-.1.8.5m-.8 8.05q.8-3.15-.15-7.35-6.3 1.25-10.1 2.85.05 4.35 2.5 6.85 2.1 2.15 4.15 1.7 2.7-.55 3.6-4.05"/><path fill="#0d131a" d="M35.65 72.15q-2.2-.6-3.3-3.85-1.15-3.3-.2-6.95l1-.25q-1.1 3.75.2 7.15 1.25 3.4 3.5 3zm3.45-4.05q.4-1.95-.1-4-.6-2.3-2.15-3.9l1.05-.35q1.85 2.05 2.2 5.35z"/><path fill="#0d131a" d="M36.65 63.65q-.5-.05-.95.6-.4.6-.4 1.45 0 .95.3 1.6t.7.7q.55 0 .9-.65l.4-1.45q.05-.95-.25-1.65-.25-.6-.7-.6m1.25.1q.5.9.45 2.25-.05 1.1-.55 1.9-.6.85-1.45.85-.8 0-1.35-1-.5-.9-.5-2.1 0-1.15.6-1.95.65-.85 1.55-.85.75 0 1.25.9M27.65 71.3q1.15-1.7 1.4-3.3l.75 1.25-.9 2.1zm38.55-6.25q-2.55-1.25-6.9-2.75-4.65-1.6-7.85-2.15-1.2 5.45.9 9.4 2 3.95 5.95 4.05 2.95.1 5.35-2.5 2.35-2.6 2.55-6.05m-1.65 6.85q-2.6 2.8-6.25 2.8-4.75-.1-7.05-4.8-2.25-4.55-.85-10.45.15-.65.95-.5 3.25.6 8.25 2.25 4.75 1.6 7.25 2.9.45.25.45.8-.1 4.15-2.75 7"/><path fill="#0d131a" d="M65.15 63.95q.1 3.75-1.7 6.5-1.8 2.7-4.15 2.55-2.95-.15-3.9-4.55-.95-4.5 1.55-7.45l1.1.35q-2.4 2.6-1.65 6.65.7 3.95 3 4.05 1.95.1 3.5-2.35 1.55-2.55 1.35-6z"/><path fill="#0d131a" d="M61.1 65.3q-.4-.75-.95-.85-.6-.05-1.1.75-.45.8-.5 1.9-.05 1 .35 1.9.35.8.8.85.6 0 1.1-.8.55-.8.6-1.85.05-1.1-.3-1.9m.25 4.3q-.75 1-1.75 1-.8 0-1.35-1.1t-.45-2.45q.05-1.5.75-2.5.75-.95 1.65-.9.85.05 1.45 1.15.6 1.05.5 2.5-.1 1.3-.8 2.3M57.9 90q6.25-1.8 11.5-6.9 4.2-4.1 7.35-9.85.35-.7.6-.55.3.15 0 .85Q75 79.3 70.2 84q-5.55 5.4-12.1 6.85-.95.2-1-.2-.1-.4.8-.65m-8.3-1.45q1.75 1.4 1.8 2.5.3 2.65-.45 7.1-.1.7-.45.65-.3-.05-.25-.75.35-2.9 0-6.85-.1-.85-1.95-2.35z"/><path fill="#0d131a" d="M59.3 90.3q-.75 4.9-.55 7.85.05.75-.3.75t-.4-.7q-.4-4.3.15-7.75zm6.9 12.15 4.2-.25q2.45.45 4.2 2.1 7.3 6.85 14.15 9.25 6.95 2.35 11.5-.5l.2 1.05q-4.3 2.8-10.55 1.3-7.75-1.85-16.4-9.95-1.7-1.6-4.15-2l-4.05.25z"/><path fill="#0d131a" d="m104.35 111.15-3.05 2.35q2.1 1.35 3.1 5.05l2.15-1.35q1.8-1.3 2.8-2.4.85-.9-.45-3-1.35-2.15-2.65-2-.3.05-1.9 1.35m5.5-.05q1.85 2.9.35 4.5l-3.1 2.6q-2.1 1.45-3.25 1.7-.25.05-.4-.5l-.25-.85q-.9-2.7-3.2-4.5-.6-.4.25-1l3.45-2.75q1.85-1.55 2.35-1.7 2-.4 3.8 2.5m-48.2 3.05q.6-1.75 2.1-3.6 1.45-1.8 2.8-2.65.75-.5.95-.25.15.25-.55.85-1.25 1-2.55 2.6-1.35 1.7-2.1 3.35l-.65.7q-.3-.15 0-1m4.95-2.5q.55-.55.75-.35.25.2-.25.8-2.4 3.2-3.4 6.9-.9 3.2-.6 6.15.35 3.15 3.4 7.2 3.1 4.1 6.9 6.45.75.45.6.7l-.85-.05q-3.25-1.2-7.2-5.8-4.1-4.8-4.5-8.35-.3-2.7 1.15-6.75 1.55-4.35 4-6.9"/><path fill="#0d131a" d="M46.3 95.65q.85 3.3 2 5.25l.05.5h-.5q-2.55-1-6.9-1.35 2.45 2.7 4.95 7l-.05.45q-6.05 5.8-8 12.1t.4 12.4q2.8 7.05 9.95 11.5 7.15 4.5 16.05 4.65 2.2.05 3.45.85.9.6 2.1 2.25.95-1.55 1.65-2.25.3-.3.65 0 .75.6 1.65 2.15 1.7-2.95 4.1-3.7 8.4-2.5 16.05-12.4 3.25-4.15 6.15-9.55 2.35-4.4 3.5-7.6l.7 1.15q-1.25 3.45-3.45 7.7-2.7 5.1-5.8 9.15-7.8 10.25-16.75 12.9-1.1.35-2.3 1.5-1.15 1.1-1.8 2.4l-.6.05-1.7-2.4q-.9.85-1.9 2.4l-.25.15-.3-.2q-1.05-1.7-1.9-2.35-1.2-.85-3.25-.9-9.7-.2-16.95-4.65-7.3-4.5-10.5-12.3-2.55-6.2-.45-12.95t8.4-12.6q-1.9-3.3-5.65-7.35l-.2-.6.5-.2q3-.15 7.2 1.05-1-2.2-1.65-5.25-.1-.45.1-.65l.55.1 2.4 1.2 2.75.95-.1 1.25q-1.8-.45-4.35-1.8"/><path fill="#0d131a" d="M58.4 94.45q2.05-1.3 4.7-1.65.9-.15.55.6-1.1 2-1.35 3.65l4.3-.9 3.65-1.25.8-.15q.2.15.05.85-.45 2.05-2.05 4.5-1.65 2.4-3.75 4.1-.65.5-.85.3-.25-.2.35-.8 1.45-1.45 2.75-3.45 1.4-2.05 2-3.8L65.5 97.6l-4.1.7q-.4 0-.4-.4.1-1.7 1-3.7-1.85.35-3.6 1.6zm66-15.6q-.15-2.35-.85-4.5-4.55 3.8-10.35 15.25-6.35 12.45-6.4 19.9l-1.25.05q.05-8.1 6.55-20.9Q118.3 76.6 123.3 73q.75-.5 1 .15.9 2.7 1.2 4.9z"/><path fill="#0d131a" d="M153.3 71.5q-1.15 2.15-3.6 5.3-.35.5-.65.3-.25-.15.1-.7l2.4-4.1q-2.9 1.05-6.55 3-3.9 2.05-6.25 3.85-.45.35-.75.2-.3-.2-.15-.75.75-2.95 2.5-6.3-3.8 2-6.85 4.2l-.65.25q-.3-.1-.25-.7.15-.95 1.25-4-2.5 1.5-5.3 3.75-3.4 2.7-5.35 5.05-.5.65-.75.45-.3-.2.2-.85 1.85-2.7 5.95-6 3.55-2.85 5.8-3.95.6-.35.85-.15.3.2-.05.95l-1.4 3.9q4.6-3.2 7.4-4.5 1.35-.6.7.65-1.55 3.05-2.6 6.15 2.85-2 6.85-4 3.85-2 6.35-2.8l.85.1z"/><path fill="#0d131a" d="m149.95 75.55 3.3-.4q1 .1.6.9-1 1.85-2.75 3.45-.4.4-.6.2-.25-.2.1-.7l1.85-2.75-2.95.4z"/><path fill="#0d131a" d="M166.7 91.4q-3.1 3.25-7.3 6.55l5.35 1.8q3.1 1.15 4.35 1.95.45.3.5.7t-.3.7q-4.05 3.35-10.85 7.8l4.75 3.55q1.15.65-.05 1.05l-3.65.9-3.95.15-.75-.4q0-.3.75-.3 3.25-.1 6.25-1.05l-4.55-3.55q-.6-.45 0-.85 4.6-3.1 10.4-7.8-1.6-.9-4.65-2-3-1.15-5-1.6-.7-.1-.85-.5-.1-.4.5-.85l7.55-6.15-3.85-.3q-.9-.05-.45-.8 4.35-6.4 7.95-12.8l-9.05.45-8.8 1.15.7-1.1 10.3-1.4 7.8-.35q1.15.1.6 1.1-1.95 3.55-8.1 12.9 1.6.2 3.95.05.55 0 .7.3t-.25.7"/><path fill="#0d131a" d="M158.2 116.05q1.95 2.6 4 4.5 1.1 1-.55 1.15h-5.55l-5.8-.4q-.7-.1-.65-.45 0-.3.7-.25 4.1.25 10.2-.05l-3.65-4.3z"/><path fill="#0d131a" d="m143.65 122.95 9.8 1.75q-.85-1.6-2.45-3.65l1.4-.15 2.65 4.1q.3.55.05.8l-.85.15-9.35-1.65z"/><path fill="#0d131a" d="M127.3 124.15q-12.5-4.3-18.05-8.25l.4-1.2q5 3.75 17.4 8.1 13.2 4.6 20.8 4.65l-4.65-4.15q-.55-.45-.4-.7l.8.1q2.75 1.75 6.1 4.9.95.95-.5 1-8 .35-21.9-4.45M68.55 150.2l.25 6.95-.05 5.7q-.1 1.85-.8 2.95t-2.35 1.95l-5.7 2.35q-3.75 1.35-6 1.75-3.85.7-3.8 2.6h-1.05q-.05-1.55 1.2-2.45 1.05-.75 3.45-1.2l5.9-1.75q3.4-1.2 5.45-2.3 2.4-1.2 2.6-3.95l-.05-6.25-.4-7.1z"/><path fill="#0d131a" d="M51.6 176.7q-.55-1.7-2.05-1.7-1.25 0-2.45 1.25-1.55 1.6-1.5 4.3 0 .55.5.25 1.55-1.05 4.65-2 1.4-.35.85-2.1m-.4 3.2q-2.2.55-3.75 1.3l-2.2.85q-.35-.05-.45-1.7-.15-1.85.5-3.1.75-1.55 2.15-2.5 1.2-.8 2.15-.8 2.4.05 3.15 2.7t-1.55 3.25"/><path fill="#0d131a" d="M57.4 178.7q-1.55.25-2.85 1.3-1.3 1.1-2.75 1.15-1.6.1-2.1-1.2l.95-.4q.85 1.15 3.2-.45 1.8-1.3 3.3-1.55zm.65-.2q1.2-.7 2.4-.45 1.25.2 2.05 1.3.75 1 .55 2.2-.25 1.35-1.85 2.05-1.5.6-2.45 1.15-2.35 1.35-2.8 1.2-.5-.1-.65-1.45-.15-1.4.3-2.8.75-2.3 2.45-3.2m-1.85 6.3q0 .5.5.15 2.6-1.7 4.15-2.3 1-.4 1.1-1.3.15-.85-.4-1.5-.55-.7-1.35-.85-.8-.1-1.6.35-1.2.7-1.9 2.65-.5 1.5-.5 2.8"/><path fill="#0d131a" d="M75.95 149.3q-.4 1.9-.8 6.35l-.5 6.8q-.15 2.1.85 3.6.9 1.3 2.35 1.6l5.8.8q1.5.05 2.6.8t1.5 2.05q.45 1.85-.35 3.25l-.8.75q-.5.2-1 0-5.5-1.8-9.95.1-4.15 1.85-9.65 7.45-.95.95-2.4 1-1.55 0-2.15-1.05l.85-.7q.5.7 1.3.6t1.6-.9q5.05-5.05 10.1-7.25 4.9-2.2 10.45-.35.45.2.75-.3.5-.95.1-2.4-.35-1.05-1.05-1.5l-1.95-.5-5.95-.9q-1.8-.4-2.95-1.85-1.35-1.75-1.2-4.3.6-9.15 1-11.6z"/><path fill="#0d131a" d="M86.6 170.05q2.25.4 3.4 2.75 1.1 2.25-.1 3.4l-1.55-.1q-1.2-.35-2.2-1.05l.65-.9 1.55.85.9.2q.6-.2-.05-1.75-.7-1.7-2.2-2.3zm-28.55-22q1 9.45.9 13.15-.15 3.5-4.3 4.8-7.25 2.25-14.45 1.75-2.3-.15-3.7.65-1.35.8-1.35 2.1l-1-.1q-.15-1.9 1.55-2.95 1.65-1 4.45-.8l7.25-.25q3.85-.4 6.95-1.35 3.25-1.05 3.35-3.95.15-2.6-.9-13.25z"/><path fill="#0d131a" d="M34.4 170.9q-1.65 0-2.95 1.1-1.65 1.45-1.65 4.25 0 .35.35.15 3.3-1.7 5.8-2.45.9-.25.3-1.65-.65-1.4-1.85-1.4m-2.45-.35q1.3-.7 2.45-.7 2 .05 2.8 2.3.75 2.2-.9 2.7l-3.55 1.35-3.25 1.2q-.35-.1-.45-1.4-.2-1.5.4-2.8.75-1.7 2.5-2.65"/><path fill="#0d131a" d="m30.2 172.7-.4 1-2.7-.05q-.25-.15-.1-1.25.1-1.15.45-1.9 1.05-2 3.35-2.5 1.4-.3 2.5.5 1 .75 1.2 1.85l-1.1.3q-.2-.95-.9-1.4t-1.55-.3q-2.7.65-3.1 3.6 0 .35.25.3z"/><path fill="#0d131a" d="M31.05 168.5q-.05-1.55 1.25-2.35 1.25-.75 2.7-.25l5.25 1.05-2.45.65-3.25-.75q-1-.35-1.75.2t-.7 1.5zm21.65 3.15-4.9.2q-1.25.35-1.75 1.2-.45.75-.15 1.6l-.9.3q-.6-1.3.15-2.5.75-1.3 2.5-1.6l6.75.2z"/><path fill="#0d131a" d="m48.05 175-.85.55q-.2-.55-.8-.6-.65-.05-1.35.55-1.55 1.45-1.55 4.75 0 .45.3.2l1.2-.8.05 1.2q-1.8.9-2 .8-.3-.1-.4-1.3-.2-1.35.15-2.75.55-1.85 1.65-2.9 1-.95 2.2-.75 1.05.2 1.4 1.05"/><path fill="#0d131a" d="m37.95 179.1 5.5-2.25-.15 1.15-3.5 1.35-2.75.85q-.45-.3-.25-2.1.3-2.05 1.55-3.45 1.05-1.2 2.7-1.8 1.05-.35 2.15.35 1.15.7 1.5 1.95l-.85.9q-.2-1.2-.95-1.8t-1.6-.3q-3.35 1.15-3.7 4.85-.05.45.35.3"/><path fill="#0d131a" d="m38.6 175.25-2.65-.6.85-.9 2.5.45zm7.3-3.2-3.55-.35q-1.2.4-1.05 1.7l-.9.25q-.25-1 .15-1.8.45-.95 1.5-1.25l2.3.05 2.55.75zm20.85-5.75q-3.4-.35-3.65-4.8-.2-4.5.15-12.7l1.35.1q-.3 6.8-.3 12.55.05 1.8.9 2.9.85 1.05 2.25 1.05zm1.3 4q.35.2-.15.9-1 1.4-3.8 2.95-2.95 1.6-5.65 2-.7.1-.7 1.1t.65 1.75l-.85.6q-1.1-.55-1.2-2.35-.05-1.85 1.35-2.1l4.75-1.35q3.65-1.4 4.8-3.05.5-.65.8-.45"/><path fill="#ffe792" d="m37.9 65.55 2.35-3.8q1.15-1.7 2.5-1.35 1.25.35 1.85 2.3.85 2.7 2.25 5.15 1.55 2.75 3.35 4.25 7.55 6.5 8.7 8.1.75 1.05.5 1.7t-1.2.5l-5.5-.25-5.3.65q-.55.15-2.55 1.95-1.95 1.75-3.3 2.05l-4.25-.3-5.7-.3q-2.05.25-5.9 4.95-3.7 4.5-4.9 4.4-2.15-.2-4.3-4.25-2.1-4.05-1.9-7.65.15-3 1.8-6.3 1.75-3.4 4.05-4.8 1.15-.75 4.45-1l5.05-.25q3.95-.25 5.55-2.15z"/><path fill="#dbc77f" d="M15.1 87.15q1.2 2.05 2.8 3.4 1.55 1.35 2.75 1.5 1.1.1 3.05-.8 1.95-.95 3.9-2.45l-3.7 4.25q-2.25 2.35-3.2 2.3-1.3-.05-3.1-2.35-2-2.6-2.5-5.85m13.05 1.4L30 87q1.1-.8 1.7-.9l4.7.35 5.25.35q.75-.1 2.8-1.8 2.2-1.9 3.3-2.3l4.6-.45q3.15-.1 4.95.1-.4 2.35-3.25 4.25-2.75 1.75-6.45 2.3l-5.3 1.45-5 1.6-2.9.15-2-.6z"/><path fill="#0d131a" d="M36.45 68.9q-1 2.2-4.4 2.8l-5.65.45q-4.7.4-5.85 1.05-1.5.85-2.95 3.45-1.3 2.3-2.1 5.1-.35 1.25-.25 3.1.15 1.7.6 3.1.9 2.75 2.55 4.8 1.45 1.95 2.35 1.9.75 0 4.75-4.25 4.15-4.35 6.3-4.7l4.7.3 5 .15 3-1.85q2.25-1.75 3.4-2.1l5.4-.5q3.75-.1 5.1.1.3.1.4-.15l-.15-.55q-1.95-2.8-8.55-8.35-2.35-1.9-3.65-4.35-.85-1.5-2.6-6.2-.5-1.25-1.35-1.3t-1.85 1.15q-.6.75-2.05 3.05zm3.5-7.45q1.3-1.6 2.7-1.55 1.45.05 2.15 1.9 1.5 4.05 2.45 5.7 1.35 2.5 3.55 4.35l5.5 4.7q2.3 2.15 3.55 4 .85 1.2.45 1.95-.4.65-1.55.55l-5.45-.15-5.2.45q-.9.25-3.1 2.1-2.2 1.8-3.25 2.05l-4.85-.25-4.9-.45q-1.65.2-5.8 4.85-4.05 4.55-5.5 4.55-1.35.05-3.4-2.4-2-2.45-3-5.25-.45-1.35-.5-3.5-.05-2.2.35-3.85.7-2.75 2.3-5.45 1.7-2.85 3.4-3.8 1.4-.7 6.25-1.05l5.75-.35q2.9-.6 3.65-2.15l2.3-3.85q1.5-2.3 2.15-3.1"/><path fill="#0d131a" d="M38 91q2.3-.8 5.25-1.6l4.65-1.05q3.55-.6 6-2.25t3.05-3.9l.95.1q-.45 2.7-3.25 4.65-2.7 1.85-6.6 2.5-3.55.6-9.75 2.85-2.05.7-3.4.65-1.7-.05-3.2-1.15-2.5-1.95-4.05-2.85l.75-.85q1.35.75 4.1 2.55 2.2 1.55 5.5.35"/></svg>