<svg xmlns="http://www.w3.org/2000/svg" width="283" height="407" viewBox="-1.4 0 283.2 406.55"><path fill="#fff" d="M9.7 172.6q-3.15-4.5-5.8-9.65-5.3-10.3-2.85-13.7 3.8-5.3 14.4-2.8 5.3 1.25 9.85 3.55l-4.2 2.65q-4.6 3.2-6.75 6.2-2.15 2.95-3.6 8.65-.75 2.85-1.05 5.1"/><path fill="#ed8599" d="M33.9 145.4q1.7 2.1 2.15 4l1.5 7.2 12.6 9.45-1.4 2q-1.45 2.2-1.65 3.25l-.85 3.9-.9 3.3q-.35 1-4.45 6.8-1.05 1.5-2.6 4.8-1.65 3.4-2.2 5.25-.45 1.6.95 7.2l1.55 5.3Q22.65 192 19.05 187.35q-2.25-2.9-6-9.35l-3.35-5.85 1.4-5.75q1.85-6.3 4-8.9t6.4-5.3l3.8-2.2 2.2-3.4q2.4-3.45 3.45-3.45 1.2 0 2.95 2.25"/><path fill="#dbdcdc" d="M9.7 172.6q-3.15-4.5-5.8-9.65-5.3-10.3-2.85-13.7l.1-.15q5.6 9.8 10.15 16.45-.75 2.55-1.15 4.55l-.45 2.05.05.1z"/><path fill="#ce7486" d="M11.35 165.65q4 5.8 10.95 13.75 6.7 7.7 13.65 14.45-.3.55-.45 2.85-.45 1.6.8 6l1.4 4.1-8.6-8.7q-9.35-9.95-13.25-16.1l-6.1-9.75.4-2.15q.45-2.1 1.2-4.45"/><path fill="#0d131a" d="M24.65 148.2q1.1-2.15 2.8-3.85 2.1-2.15 3.85-1.95 2.55.35 4.5 4.1 1.9 3.75 2.65 9.75l6.05 4.05 6.45 4.7-.55 1.25q-.65 1.1-.9.85-1.15-1.1-6.85-5.5l-5.55-4.15q-.35-.25-.4-.6-.65-6.05-2.5-9.6-1.55-2.85-3.1-3.05-.85-.1-2.35 1.85-1.4 1.9-2.5 4.35l-.5.45h-.7q-4.35-1.95-9.3-3.05-9.95-2.2-13.65 1.85-1.2 1.3.9 7.3 2.15 6.3 6.95 14.5 12.25 21.1 30.35 36.7l1.05 1.9.55 1.45q-22-17.9-34.35-39.8-4.85-8.55-6.7-15.2-1.7-6.25-.1-8.05 3.95-4.3 12.95-3.2 5.75.7 10.95 2.95"/><path fill="#0d131a" d="M25.15 149.2q.4-.05.65.75t-.1.9q-6.05 2.05-10.35 8.5t-4.45 13.8q-.05.35-.9.35t-.9-.35q-.8-6.55 3.65-14.2 4.9-8.45 12.4-9.75"/><path fill="#fff" d="M259.35 181.85q7.85 1.75 14.1 5.7 7 4.45 7 8.85 0 3.9-9.95 8.45l-9.95 3.8q1.5-8.25 1.5-13.6 0-3.35-1.35-8.6z"/><path fill="#ed8599" d="m232.2 181.35 13.7-1.55 2.4-2.65q2.7-2.6 4.5-2.3 2.45.4 5.15 4.95 3.05 5.1 3.65 11.65.55 5.9-.2 12.15l-.85 5.05q-5.95 1.5-7.3 2.4-.85.55-22.95 19.55l-21.9 18.9-4.8-17.7 2.6-4.45q3-4.85 5.1-6.75l7.5-6.4q5.2-4.6 6.9-7.05l4.85-7.6q2.85-5.55 2.85-10.9 0-1.8-.6-4.7z"/><path fill="#dbdcdc" d="M260.55 208.65q.65-2.5 1-6.35 13.9-2.2 18.9-5.9 0 3.9-9.95 8.45z"/><path fill="#ce7486" d="m251.15 203.85 10.35-1.55-.95 6.35q-5.95 1.5-7.3 2.4-.85.55-22.9 19.85l-21.85 19.15-1.7-7.85 3.5-3.35 24.8-22.05q14.1-12.4 16.05-12.95"/><path fill="#0d131a" d="M232.05 182.4q-.35.05-.5-1.2-.1-1.2.2-1.3l13.75-1.1q1.8-2.35 2.7-3.2 2.45-2.4 4.5-2.4 3.35 0 6.9 7.55 11.5 2.45 17.25 6.95 4.95 3.9 4.95 8.45 0 5.8-9.15 9.75-12.35 4.05-18.8 6.35-2.4.85-18.95 15.25-15.35 13.4-25.85 23.5-.25.25-.55-1.5-.25-1.75 0-2 8.55-8.15 25.3-22.3 16.05-13.5 18.95-15.15 1.45-.85 5.7-2.05l7.95-2.4q10.45-3.4 12.65-7.65.8-1.55.2-3.15-1.95-5.65-11.35-9.55l-9.1-2.85q-.5-.1-.65-.5-.85-2-2.1-3.7-1.85-2.5-3.35-2.5-1.55 0-3.55 1.75-1.45 1.3-2.4 2.7l-.6.35z"/><path fill="#0d131a" d="M258.2 182q-.2-.35.6-.75.75-.45.95-.15 2.95 4.65 3.7 13.35.8 8.95-1.75 13.35l-1.15.5-.9-.1q1.75-4.45 1.15-13.5-.55-8.85-2.6-12.7"/><path fill="#fff" d="M230.05 390.3q2.4 4.85 2.4 6.25 0 2.6-2.8 4.95-3.95 3.25-11.55 3.25-3.45 0-9.35-2.1l-5.2-2.1q.45-1 1.85-2.6 2.85-3.15 7.9-6.05t10.2-4.8q2.6-.95 4.15-1.35z"/><path fill="#fff" d="M230.05 390.3q2.4 4.85 2.4 6.25 0 2.6-2.8 4.95-3.95 3.25-11.55 3.25-3.45 0-9.35-2.1l-5.2-2.1q.45-1 1.85-2.6 2.85-3.15 7.9-6.05t10.2-4.8q2.6-.95 4.15-1.35zM32.6 384.7l3.75.5q5.1 1.05 11.8 3.85 6.75 2.8 10.45 6.85 1.8 2.05 2.3 3.5l-5.3 1.35q-6.55 1.3-12.85 1.3-6.95 0-10.45-2.2-3-1.85-3-4.8 0-2.15 1.65-6.45z"/><path fill="#ed8599" d="M277.1 296.3q-3.85 8.5-17.3 23.5-9.6 10.75-19.35 17.45-4.9 3.35-7.85 4.55-3.9.45-8.9-1.25-9.9-3.45-15.05-14.3-5.5-11.65-1.15-19.55 3.5-6.35 10.15-7.1l18.95-2.75 16.35-3.1 14.95-3.4q9.3-2.05 10-1.2 1.6 1.8-.8 7.15"/><path fill="#ce7486" d="M240.45 337.25q-4.9 3.35-7.85 4.55l-5.25-.35q-6.2-1.1-11.1-5.15 20-5.75 36.2-17.85 16.05-12.05 25.9-28.5.85 2.6-2.2 8.3-4.4 8.25-16.35 21.55-9.6 10.75-19.35 17.45"/><path fill="#ed8599" d="M152.85 373.65q-2-2.6-2.35-10.85-.35-8.15 1-18 3.35-24.3 12.15-33.1 8.1-8.1 29.6-6 7.55.75 14.8 2.6 6.3 1.6 7.8 2.65 6.8 4.95 11.75 14.9 6.05 12.25 6.05 26.85 0 7.95-4.85 18.7-2.45 5.35-4.9 9.15l3.75 5.2-4.25 1.5q-5.25 2.05-10.1 4.65-4.85 2.65-8 6-1.6 1.65-2.2 2.8-5.05-1.75-8.2-3.55l-8.85-4.95q-8.35-2.25-15.7-5.55-5.1-2.3-10.55-6.5-4.8-3.7-6.95-6.5"/><path fill="#ed8599" d="M152.85 373.65q-2-2.6-2.35-10.85-.35-8.15 1-18 3.35-24.3 12.15-33.1 8.25-8.25 27.65-10.4l13.55-.45q5.8.35 7.15 1.3 10.35 7.5 16.15 18.8 6.8 13.35 6.8 31.2 0 7.95-5.5 18.95-2.8 5.55-5.55 9.45l3.75 5.2-4.25 1.5q-5.25 2.05-10.1 4.65-4.85 2.65-8 6-1.6 1.65-2.2 2.8-5.05-1.75-8.2-3.55l-8.85-4.95q-8.35-2.25-15.7-5.55-5.1-2.3-10.55-6.5-4.8-3.7-6.95-6.5"/><path fill="#dbdcdc" d="M227.85 402.7q-3.65 2.05-9.75 2.05-3.45 0-9.35-2.1l-5.2-2.1q.8-1.9 3.9-4.6 11.55 5.7 20.4 6.75"/><path fill="#ce7486" d="M152.85 373.65q-1.4-1.85-2-6.7-.6-4.7-.35-11.15l1.9-.55q8.2 10.45 19.65 19.55 11 8.75 17.6 10.5l5.1 3.45q6.4 4.1 12.6 7.15-3.1 2.7-4.25 4.8-5.05-1.75-8.2-3.55l-8.85-4.95q-8.35-2.25-15.7-5.55-5.1-2.3-10.55-6.5-4.8-3.7-6.95-6.5"/><path fill="#ed8599" d="M29.8 340.4q0-18.6 10.3-33.15 3.2-4.55 7.1-8.15l3.2-2.7q3.25-2.75 20.65 11.6l25.1 22.25q7.45 6.65 11.6 24.2 1.6 6.75 2 12.55.35 5.6-.55 7.1-4.65 7.55-20.35 15.25-7.65 3.75-18.55 7.3l-9.4 2.75q-1.5-4-11.25-9.6-3.1-1.8-10.3-3.75l-6.6-1.65q2.65-4.55 5.55-8.55l2.35-3.1q-2.7-2.9-5.4-8.35-5.45-11-5.45-24"/><path fill="#dbdcdc" d="m60.9 399.4-5.3 1.35q-6.55 1.3-12.85 1.3-7.9 0-11.35-2.85 13.3-.3 25.95-4.15 2.8 2.5 3.55 4.35"/><path fill="#ce7486" d="M86.4 380.65q13-9.45 22.15-22.5 1.05 5.7 1.25 10.25.15 4.4-.6 5.7-4.65 7.55-20.35 15.25-7.65 3.75-18.55 7.3l-9.4 2.75q-.65-1.95-3.25-4.4 15.6-4.75 28.75-14.35"/><path fill="#ed8599" d="M53.65 267.55q3.1-15.8 9-28.35 11.1-23.5 29.2-37.8 18.45-14.6 37.95-14.6 28.15 0 46.3 11.15 18.35 11.25 27.35 34.35 4.5 11.55 6.95 29.85 2.1 16.05 2.1 32.45 0 36.2-26.25 59.8-11.55 10.35-26.25 16.05-14.45 5.55-29.25 5.55-36.9 0-59.45-24.65-10-10.9-15.35-25.15-5.2-13.9-5.2-28.75 0-15.15 2.9-29.9"/><path fill="#fff1ac" d="m52.7 313.45 4.25 2.35q5.85 2.85 14.15 5.4 26.45 8.25 66.8 10.55 31.4 1.85 53.85-4.5 11.2-3.15 16.15-6.7-7.05 22.85-25.55 37.45-22.85 18.05-57.9 18.05-26.65 0-48.75-20.6-9.75-9.1-15.8-20.2-6.15-11.15-7.2-21.8"/><path fill="#dcd096" d="M125.85 376.65q-11.9 0-23.9-4.5-12.5-4.65-22.45-13.25 10.55 4.65 21.2 6.2l24.95 1.35q24.5 0 43.75-7.5 18-7.05 29.95-19.95-11.75 17.6-26 26.2-18.9 11.45-47.5 11.45"/><path fill="#0d131a" d="M129.8 187.7q-12.45 0-27.15 8.5-14.7 8.55-27.55 23.2-12.45 14.1-18.35 38.3-4.6 18.7-4.6 39.55 0 14.55 5.35 28.4 5.4 14.05 15.45 24.95 22.5 24.5 57.8 24.5 14.2 0 28.2-5.4 14.35-5.6 25.65-15.8 25.95-23.45 25.95-60 0-25.45-2.65-41.05-3.8-22.3-13.75-33.95-12.35-14.45-28.25-22.5-17.2-8.7-36.1-8.7m-29.1 6.4q14.4-8.15 29.1-8.15 46.45 0 66.45 29.6 17.3 25.6 17.3 78.45 0 37.25-26.7 61.75-11.75 10.75-26.6 16.65-14.65 5.75-29.5 5.75-16.05 0-30.9-5.9Q85.2 366.4 73.9 355.6q-11.55-11-17.9-25.55-6.65-15.35-6.65-32.85 0-23.8 7.05-45.05Q63 232.3 74.9 217q11.4-14.75 25.8-22.9"/><path fill="#0d131a" d="M52.55 314.75q-.9-.45-.95-2.05t.75-1.2q16.6 8.35 38.45 13.45 22.85 5.3 47 5.9 20.9.55 40.15-2.75 18.2-3.15 29.95-8.8 1.05-.5.5 1.3t-1.55 2.25q-11.65 5.35-29.55 8.1-18.5 2.85-39.55 2.3-24.45-.65-46.85-5.55-21.85-4.8-38.35-12.95m8.35 21.8q-.85-.4-1.4-1.85-.6-1.45.1-1.15 30.9 14.1 71.05 16.05 40.25 2 67.25-9.3.9-.35.45.9-.5 1.2-1.5 1.65-26.9 11.35-66 9.5Q92 350.5 60.9 336.55m17 21.85q-1.8-1.75-.2-1.25 27.45 8.6 52.1 10.5 24.6 1.9 43.15-3.15.75-.15-1 1.2-1.7 1.3-2.8 1.6-18.2 4.55-40.5 3-23.05-1.65-46.85-9.5-2.15-.7-3.9-2.4m-26.95-61.15q.1 1.15-.2 1.4-7.85 6.25-13 16.35-5 9.9-6.25 21.05-1.25 11.55 1.85 21.7 3.35 10.95 11.3 18.35 1.75 1.65 1.5 2.25t-2.5-.9q-7.75-5.3-11.7-15.9-3.8-10.2-3.15-22.45.75-12.55 6-23.55 5.7-11.85 15.6-19.15.4-.3.55.85"/><path fill="#0d131a" d="M30.15 385.65q3.3-7.25 9.05-12.6.25-.25 1.2.6t.7 1.1q-5.25 4.9-8.3 11.5-2.8 6.25-2.15 10.15.3 1.9 1.55 2.45 13.6 5.95 41.3-4 11.65-4.2 21.2-9.9 9.8-5.85 13.75-11.1l1.3.3q1.2.45 1 .7-6.65 9.65-28.65 18.95-21.75 9.2-37.55 9.3-7.9.05-12.5-2.05-3.8-1.75-4.25-4.35-.7-4.3 2.35-11.05m120.4-10.95q-.15-.15 1.15-1.1 1.3-1 1.5-.75 5.15 6.3 15.4 11.7 9.45 5.05 17.65 6.6l.3.15 11.45 6.25q12.85 6.15 20.4 6.15 4.75 0 8.5-1.5 4.7-1.9 4.7-5.25 0-2.75-3.45-8.4-2.35-3.9-5.25-7.5-.4-.6 0-1.1 13.15-16.9 10.05-39.55-3.2-23.15-21.6-37.8-.3-.2-.05-1.45.2-1.25.5-1.05 21.35 17 24.05 41.35 2.35 21.75-10.2 39.1 2.2 2.8 4.55 7.15 3.15 5.95 3.15 9.25 0 4.3-5.2 7.15-4.55 2.45-9.75 2.45-7.75 0-20.65-6.05-5.7-2.7-12.6-6.8-8.7-1.75-18.5-6.9-10.75-5.65-16.1-12.1"/><path fill="#0d131a" d="M255.35 291.85q23.4-5 24.05-3.45 1 2.25-1.45 8.4-2.65 6.6-8.05 14.25-13.95 19.85-35.05 31.8-.3.15-1.2-1.05t-.65-1.3q18.65-10.2 33.8-29.75 5.75-7.45 8.8-13.6 2.95-5.8 1.85-7.1-.6-.7-22.8 4.25-27.35 6.2-42.65 7.85-.3.05-.2-1.6.1-1.6.45-1.65 13.9-.85 43.1-7.05M32.6 384.7q.2-.8 1.05-.7 9.45.85 17.65 5.1 8.6 4.4 10.4 9.85l-.05.65-.5.45-.65-.05-.45-.5q-1.45-4.3-10.35-8.45-8.1-3.75-17.3-5.3-.3-.05-.1-.35zm194.5.2q.35-.05.6.8t-.1.9q-6 1.6-13.45 5.85-8.35 4.8-9.75 8.45l-1.35.05q-1.25-.35-1.1-.7 1.75-4.6 10.5-9.6 8.05-4.7 14.65-5.75"/><path fill="#e50012" d="M36.25 195.15q.1-1.35 1.5-4.4 1.25-2.75 2.2-4.1l2.8-4 2.5-3.8q.45-.8.6-3.05l.1-2.1q.8-.75 2.5-1.75 3.3-1.95 7.55-2.9l5.75-.65q4 0 7.45 1.05 12.35 3.85 33.1 8.55l.65 9.6-36.8 2.4q-4.2.4-8.5 1.75-3.25 1-5.45 2.15-4.8 2.45-8.95 8-2.05 2.8-3.15 5.05-1.7-2.2-2.9-6.35-1.05-3.6-.95-5.45m70.65 45.35q-3.9 14.6-2.4 23.9-3.45-1.75-6.4-4l-5.1-3.5q-2.8-1.75-4.15-2.35-.7-.3-10.4-2.9l-11.9-3.45q-5.5-2.15-8.25-5.55-1.05-1.35-1.55-3.15l-.3-1.55q.65-3.1 2.35-7.15 3.4-8.05 8.6-12.7 2.6-2.35 10.85-7.05l15.7-8.55 14.8-7.95 14.05 5.05-1.55 5.7q-2 6.8-4.25 12.4-1.4 3.55-5.6 11.75-3.25 6.3-4.5 11.05m65.9-58.7 1.75-16.2q29.95-1.7 36.55-1.05 4.95.5 8.25 2.1 2.85 1.4 6.4 4.7 4.05 3.8 6.2 10.1 1.5 4.55 1.5 8.05 0 3.1-3.5 11.3l-4.4-9.2q-.9-2-4.5-5.1-3.5-2.95-6.8-4.7-1.65-.85-5.3-1.5l-10.1-.65-17.3 1.15zm-21.55 32.3-9.45-14.5 17.3.4 26.25 2.6 5.05 1.8q5.65 2.4 8.95 5.35 3.25 2.95 6.15 8.85l2.25 5.3-2.65 4.15-2.4 5.05-2.4 6.05-2.45 6.15q-1.95 4.25-3.85 7.15-1.95 3.05-5.55 5.7-3.15 2.35-6.9 3.9-4.6 1.95-14.5 3.1.95-5.9.2-12.9-.8-7.95-3.6-15.55-2.45-6.7-12.4-22.6"/><path fill="#fff" d="M163.7 197.4q1.2-3.8 3.15-7.15 1.95-3.3 4.15-6.2l1.8-2.25 15.05-1.15 17.9-.85q6.85.55 14.45 5.55 3.7 2.4 6.8 9.1 1.6 3.35 2.4 6.25-3.2 5.4-5.2 8.1-1.35 1.75-5.5 5.25l-5.2 4.1q-1.05.75-3.4 3.6l-2.15 2.7q-1.75-6.65-9.25-15.55-1.05-1.25-3.55-2.8-3.1-1.9-6.3-2.7-6.7-1.6-17-2.4l-8.95-.5zm-117.5-24q.8-4.2 2.8-6.9 2.1-2.8 6.35-5.15 3.6-2 9.9-1.85l5.55.55 33.15 7.55-1.65 10.4-32.75-8-6.85-1.05-5.95-.15q-3.55.55-7.4 2.6-1.9 1.05-3.15 2m24.3 15.95 32.45-1.75 5.8 6.95L81.3 209.1q-9.15 4.75-14.05 9.5-7.4 7.4-10.8 19.35Q54.3 224 53.6 222.6q-.4-.85-3.95-4.25l-4.15-4.15-5.4-7.25q.85-2.1 2.65-4.75 3.55-5.2 8.15-7.6 11.05-5.75 19.6-5.25m52.3 10.25 18.6-.5 17.65 28.05q4.6 7.1 7.4 18.75 1.5 6.4 1.05 13.45-.25 3.5-.8 5.75-4.1 0-14.4-2.25l-11-2.3-15.3 2.85-15 2.8-4-.75-2.4-.8q-.55-5.55-.55-7.65v-4.5q.25-3.8 1.7-8.85.9-3.15 4-10.3 3.05-7.05 7-15.15 2.7-5.6 4.65-12.65z"/><path fill="#0d131a" d="M201.2 163.75q15.05-1.8 24.35 5 9.55 6.95 9.55 20.45 0 6-5.2 14.1-5.65 8.75-14.7 15.35-8.95 6.45-14.1 22.15-3.45 10.45-8.25 15.85-6.4 7.15-17.75 9.3-9.1 1.75-21.95-.85-11.7-3-13.55-3-1.05 0-11.6 2.95-10.55 2.9-17.25 2.9-5.9 0-14.2-5.85-7.55-6.1-9-6.55L71.1 252.3q-10.4-2.5-14.2-7.4-2.3-2.9-3.2-11.6-.95-9.05-1.95-10.7-1.3-2.2-4.6-5.35l-5.85-5.5q-7.15-7.3-7.15-15 0-3.6 2.2-7.25 1.5-2.45 4.75-5.9 2.45-2.55 3.35-5.8 2.4-12.5 9.15-16.7 6.1-3.8 17.6-1.7 18.2 3.45 29.15 7.05l4.25 1.5-4.95-.7-15.4-3.25-13.35-2.95q-10.7-2.1-17 2.55-5.95 4.4-7.8 14.65-.65 2.3-3.65 6.3-2.55 3.6-3.55 5.6-1.7 3.4-1.7 6.6 0 5.3 4.95 12.05 2.8 3.8 8.5 9.5l3.1 3.3q.95 1.45 1.5 4.05l.8 5.1q.6 4.45 1.1 6.55.85 3.6 2.45 5.65 3.65 4.7 12.4 7.05 5.1 1.4 16.4 3.4 1.05.35 10.1 6.55 7.9 5.5 12.45 5.5 5.3 0 16.25-3 10.95-3.05 12.4-3.05 1.75 0 15.75 3.1 12.35 2.75 18.9 1.45 10.95-2.2 16.95-8.8 4.65-5.1 7.9-15.1 5.25-16.15 14.65-23 8.65-6.3 13.9-14.6 4.7-7.5 4.7-13.25 0-12.45-9-18.9-8.55-6.05-21.95-4.9l-14.35.75-11.85.45q-1.15 0-1.15-.95.05-.9 1.25-1.1l12.65-.4z"/><path fill="#0d131a" d="M198.7 178.8q13.65-.95 20.6 3.85 6.75 4.6 11.05 17.45.1.35-.6.9-.7.6-.8.3-3.7-11.2-11-16.3-7.4-5.1-19.15-4.55l-25.75 2.1q-1.4 0-1.55-.5-.15-.55 1.4-.9l12.8-1.3zm8.15 45.5q-2.25-8.85-8.85-14.75-6-5.3-12.8-6.05l-22.05-2.35q-2.3-.2-2.05-.8.3-.6 2.45-.6l21.85 2.05q9 1.05 15.1 6.45 6.7 5.9 8 15.65l-.75.55q-.8.2-.9-.15m-51.9-5.15q8.35 9.45 12 22.1 3.5 12.15 1.75 23.85-.05.35-1.3.2t-1.2-.5q1.7-10.95-1.95-23.3-3.55-12.2-11.1-21.9-2.15-2.8-6.8-11l-5.05-8.35q-1.3-1.3-.5-1.85t1.9 1.2l6.05 9.95zm-32-18.25-2.9 9.95q-2.7 8.3-4 10.7-5.95 10.7-8.85 20.7-3.7 12.7-1.6 22.05.1.35-1.2.25-1.25-.1-1.35-.45-2.2-9.7 1.8-22.35 3.1-9.95 9.7-21 1.6-2.65 4.3-10.7l3.1-9.4q.65-1.9 1-1.8.4.15 0 2.05m-14.45-5.7q-14 8.2-25.9 14.1-10.5 5.25-16.95 12.65-6.65 7.7-8.4 17.15-.05.35-.85.2-.85-.2-.8-.55 2.2-11.85 8.25-18.8 5.65-6.55 17.7-12.05 4.75-2.2 15.3-7.6l10.8-5.75q.85-.55 1.35-.25.55.35-.5.9m-56-.2q-8.8 4.85-11.7 12.75-.1.3-.75-.4t-.55-.9q7.1-17.5 29.6-17.85l32.6-1.25q1.65-.1 1.55.35t-1.55.55l-32.3 2q-9.1.45-16.9 4.75m17-26.2 18.95 5q15.1 3.8 15 4.3-.1.7-10.05-1.45-10.5-2.3-24.45-6.25-5.65-1.6-12.4-.45-7.35 1.2-10.15 4.95-.2.3-.6.3-.2.05.05-1.25.3-1.3.65-1.65 4.8-4.25 11.1-5 5.75-.7 11.9 1.5"/><path fill="#ed8599" d="M175.7 120.35q12.75 11.45 17.8 42.85 4.3 26.65-11.85 40.65-16.8 14.6-54.7 14.6-22.8 0-37.55-11.55-14.45-11.35-14.45-28.35 0-6.85 4-23.9l5.2-20.6q2.1-3.05 4.55-6.35 4.9-6.6 6.6-7.65 9.7-6.25 18.9-8.9 8.3-2.45 18.1-2.45 30.5 0 43.4 11.65"/><path fill="#d6e6ae" d="M252.3 49.6q1.5.75 2.25 5.2.8 4.75.25 11.3-1.3 16.85-9.8 31.8-11.85 20.9-25.4 30.45-4.2 3-8.1 4.5l-3.05.9-.8 6.9q-.15 1.95-3.05 5.8.65 3.35-.05 6.45-.65 2.7-2.6 6.25-1.55 2.8-4.8 5.05l-2.95 1.7-2.05-9.8-1.3-6.1q-1.05-4.3-1.95-6.55-.85-2.15-4-6.7l-4.3-5.95-5.35-5.75-4-4.1-2.95.3q-3.2.1-4.6-.7-1.35-.8-2.55-3.8l-.9-2.85q-3.3-1.9-12.25-3.55-8.9-1.65-15.7-1.65-5.6 0-14.5 1.8l-7.8 1.75-1.55 2.75q-1.9 2.95-3.55 4-1.7 1.05-3.7-.4l-1.7-1.65-2.9 2.65-4.2 4.1q-1.75 1.95-8.2 12.55l-.9 2.3q-.9 2.5-1.05 3.35l-2.75 10.9-2.65 9.85-5.5-9.4-.8-8.95q-2.65-2.45-3.8-4.5-.7-1.3-1.15-6.3l-.3-4.8q-17.2-3.35-28.85-19.15-8.9-12.1-12.05-26.9-2.65-12.7-1.5-21.8 1-7.55 3.7-8.9.35-.2 6.1 9.7 6.9 11.9 11.75 17.55 8.8 10.15 17.3 14.35 4.7 2.3 9.7 2.75l4.05.05 5.35-4.85q-.5-3.2.25-7.7.6-3.8 1.8-7.25 1.05-3.05 4.1-8.25l2.8-4.6q-.85-2.9-7.85-14.9-6.35-10.75-5.8-11.8l1.9-.2q2.75.3 8.3 2 6.1 1.85 12.1 2.75l.3-14.05q.5-14.15 1.55-14.7.5-.3 2.8 2.9l5.1 6.8q3.45 4.2 7.45 7.7 3.5-2.65 5.65-4.95 3.05-3.2 6.35-8.35l6.9-11.35q2.9-4.6 4.65-4.6 1.65 0 4.7 4.9l6.8 11.35q2.9 4.4 9.95 11.45l2.65-2.2 5-4.65q2.1-2.2 5.6-5.15 4.95-4.1 5.95-3.55 1.6.9.25 16.35-.5 5.8-.95 15.5l23.1-2q.1.45-5.15 8.75l-6.55 9.8q-1.05 1.25-3.35 5.3l-2.1 3.75 2.45 6.6 3.4 9.9q1.05 3.6.65 12l7.1-1.6q8.35-2.5 14.6-6.95 11.65-8.3 26.45-25.65z"/><path fill="#b9c897" d="m184.8 70.25 1.5 2.65q2.5 5.65 4.45 15.5l.5 4.1.35 3.8-.55 1.7q-2.75-3.3-8-7.35-10.4-8-22.55-11.55-12.05-3.45-20.7-3.9l-8.2.05-8.7.45-6.65.6 18.05-2.55q20.2-1.9 31.05 1.25 9.3 2.75 15.65-.15 2.55-1.15 3.45-2.8.55-.95.35-1.8m7.8-11.35-7.15 11.8-3.4-5.6q-1-1.55-3.9-4.6l-2.55-2.55q1.35.45 12.2-3.85 11.4-4.45 10.85-4-1.1.95-6.05 8.8m-17.2-22.45q3.15-6.65 5.05-18.3-.95 18.45-1.25 20-.25 1.5-.05 7.9L176 44.8q-2.45-1.55-2.4-3.3 0-1.35 1.8-5.05"/><path fill="#ebf3d8" d="M140.15 2q-1.6 1.35-4.3 5.9l-5.15 8.85q-7.4 12.05-14.35 14.4l-.6-1q4.45-3.45 8.45-8.6l4.15-6.05 5.1-8.35q3.85-6.05 5.35-6.05.35 0 .7.35zm-42.1 41.6q-6.25-.7-12.15-2.4-6.75-2-9.2-4.45l1.1-.25 7.7 2.15 12.8 2.95z"/><path fill="#ebf3d8" d="M116.75 31.2q-4.65.8-11.1-8.75-2.2-3.3-3.9-6.75-1.5-3.05-1.2-3.25.45-.25 2.8 3.2l5.2 7.25q3.7 4.6 8.2 8.3m51.2-8.45 7.5-6.5q4-3.35 4.65-2.9l.7 1.15q-1.55.4-4.95 4.2-4.6 5.1-8.25 8-3.95 3.1-8.25 4.5l-3.5.8 3.6-2.6zM179.6 45.1l14.05-1.4 8.45-1 .05.45-.15.4q-5.2 2.35-14.3 3.2l-8.1.35zM91.4 84.8q-5.6 2.7-8.6 5.2-1.45 1.2-1.85 1.9l-.65-.15q1.05-20.7 12.65-31 7.65-6.8 17-7.55-11.8 5.15-16.35 18.9-2.3 6.85-2.2 12.7M25.95 54.05l-.35-.75.5-.85.5-.5q.45-.25 2.8 4.5 3.45 7 6.8 12.05 10.85 16.35 22.15 23.05 7.3 4.35 17.1 5.35-6.7 2.2-16.2-2.05-19.1-8.5-33.3-40.8m220.1 2.65q5.8-7.25 6.25-7.1-4.95 19.4-21.75 35.6-14 13.55-27.1 17.55-4.6 1.45-9.55 1.15-4.45-.25-10-1.9-2.75-.8-2.65-2.3.1-1.45 2.25-1.15l8.5.4q17.45-1.5 40.1-25.85 5.95-6.4 13.95-16.4"/><path fill="#b9c897" d="M246.8 80.15q6.65-13.25 8.15-23.65.25 11.55-3.85 24.7-2.4 7.55-7.5 18.8-5.6 12.2-15.9 21.5-8.85 7.95-19.25 12.25v-2.25q-.1-2.7-1.1-5.4-.6-1.8-.4-3.25.15-1.4.95-1.9 25.65-14.3 38.9-40.8"/><path fill="#fff" d="M104.9 119q-1.7 1.05-3.7-.4l-1.65-1.6q3.6-2.65 10.45-4.75l-1.55 2.75q-1.9 2.95-3.55 4m66.05 2q-5.35.65-7.25-.45-2-1.15-3.35-6.25 5.9 2.1 10.6 6.7"/><path fill="#b9c897" d="m24.75 84.1-1.1-5.15q-.4-2.25-.5-4.75l8 18.65q4.2 8.9 8.3 14.2Q48.95 119.3 68 123q3.65.7 1.6 2.85-2 2.1-5.35 2.05-9.3-.45-20.1-9.65-14.55-12.5-19.4-34.15"/><path fill="#0d131a" d="M206.15 141.5q2.65-6.6.55-15.85-.4-1.7.1-1.85t1 1.55q2.55 8.95.45 16.55-2 7-6.5 8.85-3.1 1.25-7.1-1.25-3.85-2.4-6.7-7-10.8-17.75-22.9-25.15-12.75-7.8-32.55-7.8-33.35 0-45.95 24.65-3.75 7.25-8.25 10.15-4 2.55-7.6 1.1-3.5-1.35-5.25-5.7-1.8-4.6-.9-10.5-16.95-3.7-27.8-16.55-9-10.6-12.8-26.05-3.2-12.9-1.95-24.4 1.15-10.8 4.8-11.45.6-.1 4.75 7.3 5.55 9.95 10.25 16.3 17.5 23.55 38.45 21.7 1.95-.2 1.9.45-.05.6-1.8.85-21.6 2.7-39.35-20.75-5.15-6.9-10.15-16.35l-4-7.25q-2.9 1.35-3.3 11.6-.45 11.2 3 23.1 4.2 14.5 12.95 24.45 10.55 11.95 26.45 15.5.5.05.5.7 0 14.4 5.8 15.6 5.75 1.2 13.15-11.5 6.4-11.05 14.35-16.65Q112.3 107 132.7 107q20.85 0 34.05 8.35 11.95 7.55 23.15 25.9 2.55 4.15 5.2 5.95 2.85 1.95 5.4.95 3.6-1.5 5.65-6.65"/><path fill="#0d131a" d="M187.85 141.1q-.05-.3.65 0l.75.6q2.15 6.45 4.3 17.55 2.25 11.5 2.25 16.8 0 21.85-16.5 32.7-16.65 10.9-50.5 10.9-24 0-39.15-10.1-17.1-11.45-15.9-32.2.5-9.05 3.75-20.85 3.8-12.45 5.1-18.15.25-.85 1.55-2.55 1.35-1.65 1.2-.9l-5.4 20.75q-3.45 12.9-4.15 21.7-1.45 18.05 13.7 29.3 14.8 11 39.3 11 64.95 0 64.95-42.15 0-4.75-2.15-16.5-1.75-9.7-3.75-17.9m67.9-80.85q-.3 11.75-5.35 26.2-5.85 16.7-15.55 28.85-11.55 14.5-26.55 19.45-.45.15-.2-1l.4-1.25q14.6-6.05 25.5-20.2 9-11.65 14.5-27.35 4.55-12.95 5.4-24.05.75-10.35-2-10.35-.45 0-6.6 8.35-7.9 10.7-14.8 18.05-24.25 25.75-46.05 22.9-1.6-.2-1.55-.9t1.7-.65q21.45 1.25 45.4-23.95 6.2-6.55 14.7-17.5 6.25-8 7.1-8 4.3 0 3.95 11.4"/><path fill="#0d131a" d="M167.6 80.45Q184.1 87 191.95 98.6q.2.25-.7.35l-1.05-.1q-8.8-10.9-24.35-16.8-14.6-5.55-31.65-5.55-18.55 0-31.65 4.2Q87.7 85.45 76.8 96.35l-1.35.25q-1.05 0-.75-.35 18-21.85 59.7-21.85 17.9 0 33.2 6.05"/><path fill="#0d131a" d="M167.95 53.3q10.9 3.1 18.35 17.6 6.95 13.55 6.3 26.95-.05.7-.75.8t-.8-.65q-1.1-17.4-7.95-29.35-6.35-11.05-15.55-14.2-1.1-.35-.95-.95.1-.55 1.35-.2m-59.3.7q-10.85 1.9-18.1 10.6-8.45 10.1-9.25 26.65l-.8.8q-.75.5-.75.2 0-17.25 8.85-28.15 7.95-9.7 19.95-11.3 2.35-.3 2.4.25t-2.3.95"/><path fill="#0d131a" d="M97.75 40.15q.35.05.6.95.2.95 0 .95-7.1-.7-14.9-3.35-5.9-1.95-6.75-1.45-.6.35 5.4 10.1 6.95 11.4 8.35 15.65.1.35-.75 1.3-.9.9-.95.65-.95-5-8.15-17.2-5.95-10.1-4.45-11.3 1.25-.95 7.3.85 8.3 2.5 14.3 2.85"/><path fill="#0d131a" d="m97.65 42.2.25-17.4q.1-12.35 2.05-13.05 1.05-.4 7.4 8.35 7.05 9.7 11.7 11.5.85.3.75.75t-1 .25q-4.5-1.05-11.55-10.2-6.15-8.8-6.5-8.6-1.15.8-1.35 12.95-.15 13.7-.6 15.65-.55 2.25-.95 1.95-.45-.3-.2-2.15"/><path fill="#0d131a" d="M129.85 11.75Q134 4.85 135 3.5q2.5-3.5 4.25-3.5 2.15 0 8.65 10.65 7.75 12.8 13.3 17.55.55.45-.05.9l-1.1.05q-5.5-4-13.05-16.1-6.6-10.65-8-10.65-1.45 0-3.7 3.3l-4.7 7.85q-7.5 12.75-14.3 17.15l-1-.45q-.85-.5-.6-.7 7.05-4.4 15.15-17.8"/><path fill="#0d131a" d="M168.85 20q9.3-8.85 11.5-7.7 1.9 1 .8 14.25-1.4 16.35-1.2 18.35.25 3.1-.4 3.15-.7.05-.95-3.1-.45-5.3.95-18.95 1.1-11 .05-11.5-1.9-.75-9.1 6.3-8.9 8.75-13.3 11.1-1.85.95-2.3.4-.45-.5 1.6-1.45 1.65-.75 12.35-10.85"/><path fill="#0d131a" d="M179.5 45.75q-.25-.1-.2-.95.05-.9.35-.9l15.3-1.25q7.2-.95 7.95-.15 1 1-6.25 12Q187.5 68.35 186 71.45q-.1.3-.8-.65-.75-.9-.65-1.15 1.6-3.55 9.8-15.3 7.4-10.55 7.1-10.85l-7.75 1.1q-8.85 1.5-14.2 1.15m-55.3 2.95q0-3.7 4.2-6.45 4.3-2.8 10.6-2.8t10.75 2.95q4.3 2.85 4.3 6.6 0 3.65-4.25 6.05-4.25 2.35-10.75 2.35-6.4 0-10.65-2.5-4.2-2.5-4.2-6.2"/><path fill="#ba0031" d="M152.8 48.15q0 2.9-4.1 5-4.05 2.15-9.65 2.15-5.55 0-9.65-2.15-4.05-2.1-4.05-5 0-2.95 4.05-5.05 4.05-2.15 9.65-2.15t9.65 2.15q4.1 2.15 4.1 5.05"/><path fill="#990024" d="m150.75 46.8.45 1.35q0 2-3.5 3.75-3.7 1.8-8.65 1.8-3.4 0-6.4-.95-2.75-.85-4.35-2.25 3.95 1.9 9.45 1.9 5.1 0 8.85-1.6 3.7-1.65 4.15-4"/><path fill="#0d131a" d="M152.1 56.15q.85-.55 1.35 0 .5.5-.5 1.2-6.2 4.4-14.9 3.95-8.25-.4-14.05-4.75-.95-.7-.65-1.4.35-.65 1.55.25 5.35 3.95 13.45 4.15 8.05.2 13.75-3.4m2.65-12.85q-.85-.75-.45-1.25.4-.55 1.5.2 2.25 1.65 2.9 4.45.6 2.65-.55 4.95-.65 1.25-1.3.95-.65-.25-.15-1.4.7-1.5.1-4t-2.05-3.9m-30.05-2.95q1.9-.7 2.25-.35.35.4-1.35 1.55-3.1 2.1-4.1 4.05-1.05 2.1-.25 5.05.2.55-.25.95-.45.35-.85-.45-1.5-3.1-.1-6.3 1.35-3.15 4.65-4.5M69.25 143.8q.05-.5 1.1-.15 1.1.3 1.1.75.05 5.45 1.8 10.2 1.6 4.4 4.25 7.2.25.25-.05.85-.25.65-.5.45-3.75-2.75-5.85-7.95-2.2-5.35-1.85-11.35m134.7 2.1q-.05-.25.55-.9.65-.7.7-.4 1.7 6.65-1.45 13.4-3.25 6.9-9.5 9.2-.3.1-.55-.9t.05-1.1q4.45-1.6 7.75-7.45 3.45-6.1 2.45-11.85M95.65 129q4.25-7.4 11.35-7.5 6.25-.1 10 7.25 3.75 7.3 3.8 19.45.05 10-4.6 15.9-4 5.1-9.6 5.2-8.55.1-12.3-5.3-2.9-4.25-3.35-13 .2-14.2 4.7-22"/><path fill="#fff" d="M118.7 148.25q.05 9.25-3.85 14.6-3.4 4.7-8.25 4.75-5.75.1-9.3-3.45-4.5-4.5-4.35-13.25.2-13.4 4.35-20.6 3.75-6.5 9.8-6.6 4.95-.1 8.2 6.3 3.35 6.75 3.4 18.25"/><path fill="#0d131a" d="M163.35 123.2q7 1 10.05 9.65 3.05 8.6 1.35 22.3-1.2 10.1-7.35 14.55-4.8 3.5-12.35 2.05-7.8-1.45-10.55-8.8-1.75-4.75-1.45-12.85.9-13.7 6.45-20.95 5.5-7.15 13.85-5.95"/><path fill="#fff" d="M171.95 133.5q2.5 7.4.8 20.9-1.2 10.15-6.35 13.95-4.1 3.05-11.05 1.75-5.25-1-7.65-4.3-2.4-3.4-2.55-10.2l.1-5.25q.85-13.3 6.05-20 4.8-6.2 11.75-5.15 6.45.9 8.9 8.3"/><path fill="#0d131a" d="M109.3 111.9q.1-.25.8 0 .75.25.65.55-.85 3.15-2.65 5.2-1.65 1.9-3.7 2.35l-2.65-.2q-1.8-.55-2.85-1.85-.2-.25.35-.75t.75-.3q1.95 1.95 4.05 1.5 3.2-.7 5.25-6.5m54.05 7.15q2.5 1.95 6.9 1.2.3-.05 1 .75t.4.85q-2.6.4-5.15.1-2.75-.35-4.15-1.45-1.15-.85-1.9-2.55-.7-1.7-.7-3.65l.75.05q.75.4.75.7.3 2.7 2.1 4m4.8 42.05q18.9 11.55 14.6 29.3-2.65 11.1-18.55 18.7-17.05 8.15-39.15 6.5-22.35-1.7-34.45-11.8-11.6-9.65-10.3-23.7 1.2-12.9 16.95-21.75 15.15-8.45 33.35-7.8 21.65.75 37.55 10.55"/><path fill="#fff1ac" d="M180.7 190.05q-2.55 10.7-17.7 17.9-16.4 7.75-37.85 6.15-12.05-.9-21.45-4.95-9.45-4-15.05-10.65-3.5-4.15-5.1-8.85-1.65-4.75-1.2-9.5.85-8.8 9.8-16.15 7.1-5.85 17.15-8.8 9.6-2.75 20.75-2.65 22.15.4 37.8 11.1 16.5 11.35 12.85 26.4"/><path fill="#0d131a" d="m124.85 160.1.85 1.6q.35 1.25.1 1.45t-1.2-.35q-1.05-.6-1.45-1.45-.55-1.05.15-1.55.6-.6 1.55.3m12.65.6q.6-1.05 1.65-.6l.4.6q.1.55-.2 1.15l-1.15 1.1q-.95.65-1.15.5-.3-.2-.15-1.15t.6-1.6"/><path fill="#922f00" d="M165.95 188.15q-3.2 6.75-8 11.2-6.4 5.95-13.2 8.9-8.2 3.6-18.4 3.6-10.55 0-19.15-6-8.15-5.65-10.4-13.5-2.5-5.35-2.85-9l-.25-4.45.05-1.7 2.5.05 5.95-.25 27.6-2.3 8.1 1.8 8.4 2.25 16.1 3.05 5.8.5z"/><path fill="#fff" d="m99.8 177.5 9.95-.85-1.55 2.5q-1.95 2.45-4 2.45t-3.4-2.05zm50.25 2.4 9.8 1.6-1.5 1.45q-1.95 1.45-4 1.45t-3.35-2.25z"/><path fill="#0d131a" d="M164.7 181.25q2.4.2 4.8-.55 2.1-.6 3.2-1.55.55-.45.95-.2t-.05.9q-1.15 1.55-3.6 2.5-2.6 1.05-5.4.85-4.85-.35-17.05-3.65-12.6-3.4-17.4-3.9-5.4-.6-20.65 1.25l-15.75 1.7q-5.4-.8-6.6-4.15-.35-.95.15-1.2.45-.3.85.55.7 1.4 1.9 2.05 1.45.85 4 .9l14.95-1.6 21.25-1q5.8.45 17.95 3.65 12.1 3.1 16.5 3.45"/><path fill="#0d131a" d="M99.75 177.3q.75-.15.8.15.35 1.6 1.25 2.55.85.95 2.1 1 1.35.1 2.65-.95 1.5-1.2 2.4-3.75l.8-.05q.7.25.6.55-1.1 3.15-3.1 4.95-1.75 1.55-3.55 1.45-1.65-.1-3-1.75-1.2-1.5-1.65-3.65-.05-.35.7-.5m54.05 6.35q1.25.4 2.7-.3 1.45-.65 2.8-2.25.2-.25.8.25.55.5.35.75-3.85 4.45-7.1 3.55-1.5-.45-2.55-2.05-1.05-1.55-1.4-3.65-.05-.3.7-.45t.8.2q.55 3.35 2.9 3.95"/><path fill="#ed8599" d="m96.8 192.35 2.4-1.85q3.15-2.15 6.7-4 11.4-5.85 22.75-5.85 11.4 0 22.1 9.25 5.35 4.6 8.4 9.2-3 3.5-8.7 6.85-11.5 6.65-25.25 5.8-13.6-.8-22.35-10.2-2.75-2.9-4.7-6.35z"/><path fill="#0d131a" d="M167.05 182.15q.05-.35.8-.25t.7.4q-1.6 12.7-13.2 21.65-12.4 9.5-28.85 8.55-15.05-.85-24.1-10.15-9.25-9.45-9.25-24.85 0-.35.75-.35t.75.35q0 13.2 7.35 22.1 8.55 10.3 24.6 11.25 15.95.9 27.95-8.5 11-8.65 12.5-20.2"/><path fill="#0d131a" d="M96.1 192.05q7.95-6.85 17.65-10.05 9.85-3.25 19.15-1.95 7.85 1.15 15.15 6.3 7 4.9 11.8 12.3l-.45.65-.8.15q-4.65-7.05-11.4-11.7-7-4.8-14.6-5.85-9-1.25-18.45 1.75-9.4 3-17.05 9.55-.25.25-.75-.35-.5-.55-.25-.8m15.35-50.4q.1 1.05-.2 1.85-.35.75-.85.8t-.9-.7q-.4-.7-.5-1.75-.05-1.05.25-1.8t.8-.8.95.7q.4.65.45 1.7m44.2 2.3q-.1 1-.55 1.7-.45.75-.95.65-.5-.05-.8-.8-.25-.8-.15-1.85t.55-1.75q.45-.65.95-.6t.8.8q.25.8.15 1.85"/><path fill="#db8f86" d="M137.95 44.45q.1.85-.9 1.6-1.05.75-2.6.95l-2.8-.2q-1.2-.45-1.3-1.3t.95-1.6q1-.7 2.6-.95l2.75.25q1.2.4 1.3 1.25"/></svg>