<svg xmlns="http://www.w3.org/2000/svg" width="100" height="192" viewBox="0 -0.1 100.35 191.95"><path fill="#3e3a39" d="M94.95 98.7Q90.7 108 83 114.9l13.9 63.15q.85 3.9-1.3 7.25t-6 4.2q-3.9.85-7.25-1.3-3.4-2.15-4.25-6l-5.15-23.45q-4.55 4.45-10.3 6.9-5.95 2.5-12.4 2.5t-12.4-2.5q-5.75-2.45-10.3-6.9L22.4 182.2q-.85 3.85-4.2 6t-7.25 1.3-6.05-4.2-1.3-7.25l13.9-63.15Q9.85 108 5.6 98.7q-4.45-9.65-4.45-20.3Q1.15 62 11 48.95q9.65-12.85 24.9-17.5L40.85 8.9q.75-3.3 3.4-5.4 2.65-2.15 6-2.15 3.4 0 6.05 2.15 2.65 2.1 3.35 5.4l5 22.55q15.25 4.65 24.9 17.5 9.85 13.1 9.85 29.45 0 10.65-4.45 20.3M20.4 78.4q0 12.35 8.75 21.15 8.75 8.75 21.1 8.75 12.4 0 21.15-8.75t8.75-21.15q0-12.35-8.75-21.1-8.8-8.75-21.15-8.75t-21.1 8.75-8.75 21.1m29.85 39.55q-5.8 0-9.9 4.5-4.1 4.55-4.1 10.95t4.1 10.95 9.9 4.55 9.95-4.55q4.1-4.55 4.1-10.95t-4.1-10.95q-4.15-4.5-9.95-4.5"/><path fill="#fff" d="M20.4 78.4q0-12.35 8.75-21.1t21.1-8.75T71.4 57.3q8.75 8.75 8.75 21.1 0 12.4-8.75 21.15t-21.15 8.75q-12.35 0-21.1-8.75-8.75-8.8-8.75-21.15"/><path fill="#dbdcdc" d="M20.95 73.05Q22.2 86.3 30.7 94.5q7.85 7.5 18.55 8 10.85.45 19.15-6.6 9.15-7.85 11.5-22.4 2 13.8-6.6 24.3-8.8 10.65-22.7 10.65-14.15 0-22.95-10.4-8.9-10.55-6.7-25"/><path fill="#0d131a" d="M44.95 4.15Q42.5 5.9 41.8 9.05L37.1 31l-2.35.95 5.1-23.25Q40.9 4.35 44 2q2.75-2.1 6.35-2 3.5.1 6.3 2.3 3 2.35 4 6.3 3.15 12.55 5 23.15l-2.1-.55Q61.8 22.25 58.6 9.1q-.75-3.1-3.25-4.9-2.25-1.65-5.2-1.65-2.9-.05-5.2 1.6M18.35 115.9Q10.3 156.2 4.9 178.2q-.9 3.7 1.15 6.5 1.85 2.5 5.25 3.25 3.4.8 6.15-.7 3.1-1.6 3.9-5.35L24 169.4q1.55-7 3.1-12.6.4-1.55 1.15-1.4.8.15.4 1.7-1.6 7.45-4.9 25.15-1 5.2-5.05 7.5-3.55 2.1-7.95 1.2Q6.4 190 4 186.65q-2.6-3.75-1.35-8.85 6.5-26.3 13.95-63.2z"/><path fill="#0d131a" d="M38.25 164.65q5.8 2.3 12.05 2.3t12-2.25q5.85-2.35 10.35-6.75l.55 1.9q-4.4 4.5-10.45 7.05-6.1 2.55-12.45 2.55-6.4 0-12.35-2.4-6.1-2.45-10.55-7l.4-2.15q4.5 4.4 10.45 6.75"/><path fill="#0d131a" d="M71.9 157q-.35-1.75.35-1.95.75-.2 1.15 1.5 2.7 10.95 5.85 25.4.85 3.8 3.85 5.5 2.75 1.55 6.05.85t5.15-3.25q2.1-2.85 1.4-6.8-1.65-9.1-6.2-30.1-4.4-20.1-7.4-32.3l1.9-1.3L91.5 147q4.35 19.55 6.55 30.85 1 5.15-1.7 8.8-2.45 3.25-6.7 4.1-4.3.8-7.8-1.25-3.85-2.25-4.85-7.15zm-30.95-33.95q-3.8 4.25-3.8 10.35t3.8 10.35q3.85 4.25 9.3 4.25 5.5 0 9.2-4.25 3.65-4.25 3.65-10.35 0-6.15-3.65-10.35-3.7-4.25-9.2-4.25t-9.3 4.25M61.1 145.1q-4.4 5-10.85 5-6.65 0-10.9-4.65t-4.3-11.9q0-7.35 4.75-12.05 4.4-4.4 10.5-4.4 6.9 0 11.25 5.5 3.8 4.8 3.8 10.8 0 6.85-4.25 11.7M28 56.95q8.95-9.25 22.3-9.25 13.85 0 22.8 9.75 8.2 9 8.2 21 0 12.95-8.7 21.8-8.9 9.05-22.35 9.05-12.8 0-21.8-8.8-9.1-8.95-9.1-22.05 0-12.55 8.65-21.5M21.3 78.4q0 12.1 8.45 20.6 8.5 8.5 20.55 8.5 12 0 20.35-8.55 8.3-8.45 8.3-20.55 0-12.05-8.3-20.5-8.35-8.45-20.35-8.45-12.05 0-20.5 8.45-8.5 8.45-8.5 20.5"/><path fill="#0d131a" d="M60.7 78.4q0 4.35-3.05 7.4t-7.4 3.05q-4.3 0-7.4-3.05-3.05-3.05-3.05-7.4 0-4.3 3.05-7.4 3.1-3.05 7.4-3.05 4.35 0 7.4 3.05 3.05 3.1 3.05 7.4"/><path fill="#fff" d="M48.85 71.65q1.6 0 2.7 1.15 1.15 1.15 1.15 2.7t-1.15 2.7q-1.1 1.1-2.7 1.1-1.55 0-2.7-1.1-1.1-1.1-1.1-2.7t1.1-2.7q1.15-1.15 2.7-1.15"/><path fill="#0d131a" d="M12.4 48.65Q2.15 61.6 2.15 78.45q0 11.05 4.85 20.9 4.65 9.45 13.5 17.25 1.25 1.1.8 1.6-.4.45-1.65-.45-9.65-7.35-14.7-17.6Q0 90.1 0 78.35 0 60.8 10.75 47.2q10.9-13.75 28.1-17.35 1.6-.3 1.75.35.2.65-1.4 1.1-16.6 4.5-26.8 17.35m87.95 29.8q0 11.9-4.95 21.95-5.05 10.35-14.7 17.5-1.3.95-1.75.45t.85-1.6q8.95-7.75 13.65-17.3 4.75-9.8 4.75-21 0-16.8-10.45-29.9-10.35-13-26.85-17.35-1.6-.4-1.45-1.1.15-.65 1.75-.35 16.9 3.15 28.1 17.3 11.05 13.9 11.05 31.4"/></svg>