<svg xmlns="http://www.w3.org/2000/svg" width="217" height="338" viewBox="-1.45 -2.65 217.05 337.7"><path fill="#00b7de" d="M173.4 87.05q3.8 16.95 3.8 45.35 0 17.9-16.85 71.85-8.6 27.6-19.3 58.6-2.05 7-2.55 10.6-.2 1.75-.05 2.15l2.8 3.3q3.1 3.3 4.7 3.3.8 0 5.55-2.4t8.6-2.4q7.15 0 11 5 1.9 2.45 2.4 4.95 4.1 2.75 6.55 8.2 2.6 5.65 2.6 12.45 0 10.15-7.9 16.8-7.4 6.2-17.4 6.2-12.15 0-20.2-4.9-6.4-3.85-13.9-13.65-2.75-3.55-10.7-3.55-8 0-11.55 3.55l-5.6 5.75-6.85 6.7q-4.3 3.95-9.8 6.1-5.95 2.4-12.65 2.4-13.05 0-21.8-6.3-9.15-6.55-9.15-16.95l.2-5.4.2-2.6q-1.4-.95-2.8-2.9-2.85-3.95-2.85-9.05 0-8.75 5-14.3 4.85-5.35 12.2-5.35 6.35 0 13.95 5.9 2.4 1.85 4.8 3.1 2.25 1.1 3.2 1.1 3.3 0 5.25-1.85 2.05-2 2.05-5.75 0-5.8-9.7-24.85L51.7 220q-8.95-17.35-14.6-34.7-7.9-24.2-7.9-44.5 0-12.85 1.4-26.7l1.4-11.25q-3.8-1.7-7.75-3.8-7.85-4.1-8.3-5.9-2-7.25 2.8-18.5 4.9-11.5 14.75-22.15 10.85-11.7 24.4-18.55 15.5-7.8 31.95-7.8 20.25 0 38.2 7.3 18.9 7.65 30.3 21.5 10.75 13 15.05 32.1"/><path fill="#00b7de" d="M164.45 50.3 141.3 39.4q-3.45-1.85-5.2-8.25-2.05-7.45.4-15.8Q139 7 143.65 3.55q3.8-2.8 7.4-1.6 20.65 6.9 42.75 28.15 8.85 8.45 14.55 16.2 5.55 7.55 5.55 10.9 0 2.8-1.45 10.3-2.05 10.35-5.65 21.55-10.9 33.45-31.5 60.6-3.15 4.2-2.35-18.5l1.4-23.5q7.35-12.45 10.2-29.85 2.3-14.05.9-16.8-.55-1.15-21-10.7"/><path fill="#595757" d="M23.2 187.45q5 5 6.75 13l3.2 16.75q2.7 13.5 5.45 20.45 3.3 8.2 9.15 15.8 5.6 7.35 11.5 11.45 7.65 5.35 16.95 9.95l-.8 2.3q-1.1 2.4-2.65 2.75l-3 .7-2.1-.05q-.75-.25-3.85-2.35l-4.55-3.25q-1.35-1-4.5-2.5l-3.75-1.7-3-.35-2.1-.05q-20.5-9.7-33.45-30.4Q.8 221.3.8 204.15q0-8.9 2.9-14.45 3.5-6.7 10.45-6.7 4.6 0 9.05 4.45"/><path fill="#922f00" d="m85.35 83.75 5.35 2.95 4.75-3.65q4.4-3.65 4.7-3.65.35 0 5.85 2.65 5.55 2.6 5.85 2.6l5.55-3.35q5.25-3.4 5.55-3.4t4.8 2.25q4.5 2.2 4.9 2.2l4.35-2.8q4-2.8 4.55-2.8 1 0 2.4 1.65l.2 6.4.2 15.65q0 13.75-4.3 27.75-2.2 6.95-4.35 11.2-5.6-6.75-16.35-10.85-9.2-3.55-16.8-3.55-5.4 0-12.45 3.85-3.55 1.9-6 3.8-4.7-19.5-5.5-26.5-.45-4.35-.6-14.75v-9.55l.95-.5q.95-.55 1.2-.55.2 0 5.2 2.95"/><path fill="#ed8599" d="M135.7 139.4q-2.2 4.9-6.45 9.85-8.55 9.8-19 9.8-7.05 0-13.25-4.85-4.6-3.65-7.3-8.55-1.65-3.05-3.8-8.3l-1.8-4.7q3.55-2.65 7.8-4.45 6.6-2.8 13.45-2.8 8.1 0 16.45 3.8 8.65 3.85 13.9 10.2"/><path fill="#fff" d="M13.6 198.9q1.65 2.7 1.65 6.9 0 9.8-3.55 9.8-1.55 0-3.45-2.5-2.35-3.05-2.35-7.25 0-4.35 1.55-7.1 1.25-2.35 2.7-2.35 1.95 0 3.45 2.5m10.2-4.4q1.85 0 3.35 1.6 2.1 2.2 2.1 6.5 0 4.6-1.05 7.15-.9 2.3-2.25 2.3-1.6 0-3.35-2.15-2.15-2.65-2.15-6.6 0-4.1 1.1-6.6 1-2.2 2.25-2.2"/><path fill="#00a0c2" d="m169.7 52.65-17.35-8.15-11.3-5.45q-1.65-.75-3.35-3.7-1.4-2.4-1.9-4.45-.3-1.35-.3-3.5l.05-1.85q1.4 2.65 26.85 17.9 24.35 14.55 24 17.9-6.25-3.95-16.7-8.7M16.05 92.85q1.65 1.4 8.95-.1Q33.1 91 36.2 87l-1.1 3.55L33.55 96q-.65 2.55-1.55 7.35l-8.9-4.95q-2.45-1.45-5.05-3.7zm86.75 174.7-2.25 4.85-3.75-.15q-3.7-.7-8-2.25-3.85-1.4-7.3-4.7-2.2-2.1-3.5-4.1-.65-1.05-1.5-3.3l-1.2-3.95q-.35-1.6-4.3-13.3l-5.35-15.5-4.7-13.45-3.2-9.5q1.8 4.05 10.75 27.8 9.05 23.95 10.4 27.1 1.45 3.4 5.7 6.15 4.3 2.85 12.1 5.35 4.7 1.5 6.1-1.05M31.6 283.1q-.6 2.85 1.5 6.45 2.2 3.75 5.25 4.15l-3.3 8.4-1.9-2.25q-2.05-2.9-2.7-6.15-.6-3.3.2-7.25zm17.35 46.75q-5.65-2.65-8.55-6.35-3.65-4.7-4.55-10.75L35.7 308q.3 4.65 9.3 10.35 9.3 5.9 16.7 5.9 12.45 0 19.8-2.95 5-2 9.5-6.55 5.15-5.2 7.45-6.55 5.15-2.95 13.8-2.95 6.3 0 10.95 2.8 2.05 1.25 7.5 6.2 4.75 4.3 9 6.2 6.35 2.8 15.5 2.8 10.25 0 18.45-4.5 7.65-4.2 8.25-9.5l-.15 2.65q-.55 4.25-2.45 7.8-6.15 11.3-23.6 11.3-10.1 0-18.2-4.6-5.15-2.95-9.05-7.5-3.25-4.5-5.6-6.65-4.2-3.8-10.45-3.8t-10 2.7q-2 1.45-3.9 4.05l-3.25 3.6q-3.3 3.45-6.85 6.15-11.05 8.35-23.15 8.35-9 0-16.3-3.45"/><path fill="#00a0c2" d="M50.25 188.25q5.7 10.9 7.15 14.75 12.95 34.4 14.9 40.7l2.8 9.5q1.65 5.75 2.5 7.25 1 1.8 4.55 4.9 3.4 2.95 5.25 3.85 2.3 1.15 10.5 4.1-.85.6-3.45.7-3 .1-6.1-.8-8.75-2.55-12.6-11.55-3.3-7.85-10.6-29.05-8.2-23.8-10.2-29.05l-7.1-17.95-3.05-7.45zM204.3 97.9q-9.85 27.65-29 51.75l1.35-8 .3-4.4q7.75-9.35 19.3-30.5 11.9-21.85 14.1-31.65-1.1 9-6.05 22.8"/><path fill="#3e3a39" d="m2.2 193.15 1.35-1.8q-1.95 4.15-.7 12.9 1.45 9.85 6.45 20.6 13.2 28.3 42.55 45.75l-2.85-.35-3.1.1q-3.25-1-8.25-4.1-10.1-6.3-19.05-17.05-9.5-11.4-14.25-26.65-3.5-11.35-3.5-20.7 0-5.75 1.35-8.7"/><path fill="#0d131a" d="M176.85 110.9q0 2.95-1.05 2.95t-1.05-2.95q0-38.5-22.85-61-22.75-22.45-61.5-22.45-17.2 0-32.7 7.95-13.3 6.85-23.8 18.65Q24.7 64.4 20 75.65q-4.4 10.6-2.75 16.7.55 1.9 7.8 5.9l7.2 3.65q.25.1.05 1.15-.25 1.05-.5.95-4.3-1.75-8.75-3.9-8.85-4.35-9.45-6.4-1.85-6.8 2.7-18.2 4.85-12 14.5-22.95 11-12.5 25.1-19.7 16.3-8.35 34.5-8.35 39.75 0 62.65 21.9 23.8 22.8 23.8 64.5"/><path fill="#0d131a" d="M49.8 63.05q1.55-1.75 2.3-1.15.8.55-.75 2.3-8.8 10.15-14 24.7-7.05 19.7-7.05 46.45 0 36.3 23.3 85.25 5.85 12.25 16 31.95 7.3 14.75 7.3 20 0 8.65-8.3 8.65-2.2 0-9.4-5-7.2-5.05-11.6-5.05-5.55 0-9.7 3.25-4.1 3.2-5.85 8.9-1.7 5.45-.55 10.8 1.15 5.25 4.55 7.9v.8q-.1.7-.3.6-4.3-2.3-6.25-8.45-1.95-6.25-.1-12.25 4.1-13.55 18.6-13.55 5.45 0 12.5 5.4 7.05 5.35 8.1 5.35 3.5 0 4.8-1.75 1.2-1.6 1.2-5.6 0-6.2-7.45-20.85-10.4-19.35-16.3-31.3-23.8-47.65-23.8-85.05 0-24.5 5.85-42.45 5.55-16.85 16.9-29.85"/><path fill="#0d131a" d="M81 291.7q1.25-1.4 1.5-1.15.3.2-.75 1.8-1.4 2.05-2.85 3-1.45.9-3.3.9-2.3 0-10.4-5.4-8.15-5.45-11.75-5.45-6.75 0-11.7 5.85-5.5 6.5-5.5 16.95 0 11.35 8.25 17.75 8.3 6.4 22.9 6.4 8.3 0 16.9-5.35 8.4-5.2 14.6-13.95 4.3-6 13.45-5.55 8.65.4 12.45 5.4 6.8 8.85 13.05 12.6 7.55 4.45 18.3 4.45 12.3 0 19.2-7.05 6.1-6.2 6.1-15.45 0-10.4-6.3-17.25-5.8-6.3-13.4-6.3-2.95 0-6.1 1.4-3.1 1.35-7 4.4l-.8-.15-.55-.45q7.2-7.6 14.45-7.6 8.95 0 15.55 7.15 7 7.5 7 18.8 0 10.65-6.85 17.55-7.6 7.6-21.3 7.6-11 0-19.55-5.25-7.1-4.3-14.05-13.35-3-3.9-10.1-4.15-7.45-.3-11.05 4.35-8.6 10.95-18.25 16.3-8.15 4.55-15.75 4.55-17.2 0-26-8.4-7.45-7.1-7.45-18.45 0-11.7 5.85-18.45 5.4-6.15 13.65-6.15 5.15 0 12.5 5.35 7.3 5.35 9.65 5.35 3.15 0 5.4-2.6"/><path fill="#0d131a" d="M175.7 134.95q.1-3.3 1.15-3.3t.95 3.3q-.65 23.45-19.95 81.05l-13.1 39.35q-5.95 18.8-5.95 25.2 0 1.9 4.35 5.1 3.85 2.85 6.7 3.85 1.75.65 1.55 1.25l-2-.05q-4.7-1.6-8.25-4.3-4.15-3.05-4.15-5.85 0-6.55 5.85-26.4 2.35-7.9 13-41.1 19.1-59.6 19.85-78.1m-136.4 30.7q-.65-3.05.3-3.2.95-.1 1.6 2.95.95 4.35 15.45 33.2 3.65 7.3 11.85 30.7 7.2 20.45 9.15 27.4 2.05 7.4 11.8 12 3.55 1.7 6.9 2.35 3.1.65 3.75.05 3.6-3.35 1.5-16.45-2-12.5-8.4-29.35-6.6-17.45-15.45-32.9-9.75-17.05-19.7-27-2.35-2.35-1.75-3.1t2.95 1.6q9.75 9.75 19.7 26.45 9.45 15.85 16.3 33.1 7 17.6 8.8 30.6 2 14.1-2.75 18.85-.85.85-4.5.4-3.95-.5-8.1-2.2-11.4-4.7-13.5-14-1.6-7-8.75-27.5-7.85-22.5-11.95-30.4-4.5-8.75-9-18.45-5.5-11.85-6.2-15.1m-27.45 16.7q6.6-1.25 11.6 3.55 4.9 4.7 7.25 14.3 1.15 4.5 3.95 19.4 3.1 14.5 6.65 22.5 4.55 10.2 15.1 19.25 9.05 7.75 19.8 12.6.25.1.05.95-.2.8-.45.7-9.1-4.05-17.65-10.85-12.55-9.95-18.6-22.15-4.4-8.85-7.25-24.05-2.3-14.7-3.3-17.9-2.85-9.25-6.7-13.2-4.15-4.25-10.1-3.15-6.2 1.2-8.8 8.65-2.95 8.35-.05 21.95 3.7 17.5 15.55 32.65 11.8 15.15 27.25 22.3l-.5.5-.95.25q-15.6-7.5-27.4-22.45-12.05-15.2-15.75-32.55-3-14.1-.25-22.95t10.55-10.3"/><path fill="#0d131a" d="M14.35 204.45q-.4-3.85-1.75-5.85-1.15-1.7-2.45-1.45-1.5.25-2.55 2.8-1.15 2.65-.9 6.05.35 4.3 2.15 6.85 1.6 2.35 3.4 2.1 1.4-.2 1.95-3.1.6-2.95.15-7.4m-4.45-8.6q1.95-.35 3.6 1.75 1.9 2.4 2.3 6.8.4 3.6-.05 6.7-.7 4.8-3.35 5.15-2.5.3-4.55-2.25-2.25-2.85-2.6-7.7-.3-3.9 1.1-7t3.55-3.45m16.75 1.05q-1.4-1.85-2.65-1.7-1.25.2-2.2 2.55-1.05 2.75-.55 6.15.5 3.5 2 5.65 1.35 2 2.75 1.85 1.2-.15 2.1-2.8.95-2.85.5-6.3-.4-3.35-1.95-5.4m-2.85-2.95q1.9-.3 3.65 1.7 1.95 2.3 2.45 6.5t-.6 7.25q-1.1 3-3.15 3.25-2.1.25-3.95-2.1-1.85-2.45-2.45-6.3-.55-3.85.85-7 1.25-3 3.2-3.3"/><path fill="#0d131a" d="M10.55 204.3q.8-.15 1.15 1.55.25 1.75-.45 1.95-.45.05-.85-.4-.35-.45-.45-1.25l.1-1.2q.2-.55.5-.65m14.05-3.05q.4-.05.8.5l.45 1.6-.05 1.45-.5.6q-.35.05-.7-.4-.4-.5-.55-1.4-.15-.95.05-1.65.15-.65.5-.7m113.65 76.15q-.1-.15.3-1.4.45-1.25.6-1.05 1.15 2 3.4 4.05 2.3 2.2 3.5 2.2 1.15 0 5.3-2.5 4.2-2.55 9.35-2.55 4.5 0 8.45 2.8 4.65 3.3 6.35 9.3.1.25-.85 0l-1.05-.6q-1.8-4.7-5.75-7.15-3.35-2.1-7.15-2.1-4.7 0-8.55 2.3t-6.1 2.3q-1.55 0-4.05-1.85-2.35-1.75-3.75-3.75M81.75 68.55 69.9 74.2q-.45.25-1-1.9t.25-2.45Q74.1 67.8 83.9 64q-10.05-5.1-16.3-7-.75-.2.05-2.6t1.5-2.1q9.55 4.1 15.65 8.3 4.75 3.25 4.45 4.05-.15.4-7.5 3.9m63.8-20.85q.7-.2 1.45 1.55.8 1.8.1 2-5.1 1.7-10.85 5.55l-4.7 3.5q6.1 1.45 14.9 4.1.75.25-.15 2.05-.85 1.85-1.65 1.65-7.2-2-12.75-4.2-4.9-1.95-5-2.5-.25-1.3 5.9-6.3 6.8-5.5 12.75-7.4m-50.1 33.9q4.4-3.7 4.75-3.7.25 0 5.85 2.7l5.95 2.8 5.4-3.6q5.2-3.45 5.75-3.45.5 0 4.85 2.55l4.55 2.55 4.4-3q4.15-2.95 4.55-2.95 1.15 0 4.4 3.2 3.05 3 3.75 4.45 1.05 2.15.7 2.6-.3.45-1.75-1.35-1.25-1.6-3.8-3.95-2.65-2.45-3.3-2.55l-4.35 2.85q-4.15 2.75-4.6 2.75-.4 0-4.75-2.35t-4.65-2.35q-.45.05-5.65 3.55l-5.35 3.55q-.3.05-5.95-2.7l-5.95-2.85-4.8 4-4.65 3.75q-.45 0-10.85-5.95L77 84.1q-2.45 1.75-3.6 2.9-1.6 1.65-1.9 1.1-.3-.5 1-2.45 1-1.45 3.85-3.7 2.8-2.25 3.6-2.25l5.3 2.8 5.5 3.05z"/><path fill="#0d131a" d="M142.85 77.95q0-.25 1.05.45 1 .7 1 .85 3 39.05-8.45 61.95-4.9 9.75-11.85 14.95-6.5 4.9-13.7 4.9-16.25 0-25.15-20.15-8.9-20.25-8.95-57.6l1.15-.75q1.15-.6 1.15-.35 0 35.3 7.9 54.95 8.25 20.45 23.9 20.45 6.75 0 12.95-4.8 6.55-5.05 11.15-14.6 10.85-22.35 7.85-60.25"/><path fill="#0d131a" d="M125.15 129.5q6.75 3.7 10.35 9 .15.25-.2.75-.3.5-.5.3-8.25-9.9-23.6-12.35-16.05-2.55-26.3 5.9-.2.2-.65-.3-.4-.45-.2-.7 9.4-9.95 26.9-7.3 7.7 1.15 14.2 4.7m61.1-69.3q2.05 5.4-1.3 21.1-3.35 15.6-8.35 24.35-.15.2-.45-1.05l-.2-1.5q4.35-10.7 6.65-23 2.5-13.05.65-17.95Q182.7 61 161.8 50.7l-21.9-10.75q-5.15-3.05-6.4-12.65-1.2-9.5 2.35-17.2 5.95-12.75 15.5-9.4 22.75 7.9 44.65 29 8.75 8.45 14.25 16.25 5.35 7.5 5.35 11.1 0 15.95-12.15 45.9-12.95 31.85-27.95 48.6-.2.25-.15-1.25 0-1.55.25-1.85 13.25-16.4 25.45-46.75 11.75-29.4 11.75-44.2 0-3.35-5.25-10.6-5.45-7.45-14.05-15.55-21.45-20.35-43.45-28-3.7-1.3-7.05 1.9-2.1 2.1-3.75 5.6-3.35 7.35-2.8 15.75.55 8.7 5.1 11.35l22.65 10.7Q185.8 59 186.25 60.2"/></svg>