<svg xmlns="http://www.w3.org/2000/svg" width="209" height="196" viewBox="-0.1 0.15 208.75 196.4"><path fill="#f3b2c1" d="M174.8 151.25q1.75 1.05 1.65 2.5-.05 1.5-2.25 3.2-7.35 4.75-8.4 6.35-.65 1-1.1 3.25l-.55 3.15q-1.05 4.95-2.5 5.6-1.6.7-8.65-1-5.15-1.25-12.75-2.1l-12.3-.7q-.8 0-2.15 1.25l-2.55 2.45q-3.85 3.3-8.1 1.8l-10.05-5.25q-10.15-5.15-13.5-5.9-3.2-.7-12.65-.05l-10.8.65q-4.95-.35-5.4-5.55-.15-1.15 0-7.5.05-5.85-.2-6.65-.3-.8-3.1-3.35l-4.05-4q-1.4-1.65-.95-3.25.5-1.65 2.6-2.25l5.65-.7 7.6-.55 5.45-10q-6.6 1.9-16.35 1.2-10.5-.8-11.75-4.25-1.3-3.45 6.1-9.1 5.45-4.2 10.25-6.3 7.1-4.15 16.25-8.3 18.35-8.3 28.9-8.2l24.55 1.55 11.95 1.4q5.1 12.95 10.1 33.85 4.3 17.85 5 18.7t5.95 3.65q6.85 3.65 8.1 4.4"/><path fill="#7dccf3" d="m109 81.95 38.2-3.45q3.45 1.55 5.3 3.15 2.5 2.1 1.25 3.65-1.2 1.5-6.05 4.2-4.75 2.65-5.25 3.4-.75 1.05-2.65 6.4-1.45 4.15-2.8 4.3-4.05.55-8.2-1.35-4.1-1.9-5.2-1.7-.7.1-3.95 3.35-3.25 3.2-6.05 3.55-1.8.25-5.8-1.9-4.2-2.2-5.6-2.2-.5 0-4.9 2.8-4.15 2.75-5.95 2.35-2.05-.45-4.05-4.15-2-3.8-3.3-4.15l-6.1-1.4q-4.45-1.25-7.05-3.4-1.1-.95 13.95-6.65 15.7-5.95 24.2-6.8"/><path fill="#f3b2c1" d="M146.2 115.6q-.65 7.55-4.4 16.1-3.9 8.9-8.8 13.4-4.5 4-8.05 3.05-3.5-.9-4.45-6.15-1.35-7.4.75-16.35 2.2-9.6 7.5-16.85 4.9-.3 10.55 1.85 5.75 2.2 6.9 4.95"/><path fill="#7dccf3" d="M74.65 144.9q0-4 3.15-7.3 3.3-3.45 7.65-3.45 4.65 0 7.75 3.25 3 3.1 3 7.5 0 4.65-3.05 7.75-3.05 3.05-7.7 3.05-4.45 0-7.65-3.35-3.15-3.3-3.15-7.45m58.55-.8q3.1-3.35 7.85-3.15 4.45.15 7.45 3.2t3 7.4q0 3.95-2.65 6.9-2.95 3.25-7.75 3.25-4.45 0-7.6-3.05t-3.15-7.4q0-4.15 2.85-7.15"/><path fill="#fdeabe" d="m72.65 167.55 12.05-.4q8.55-.35 9.3-.15.8.2 10.65 4.95 4.95 2.35 9.7 4.65 4.75 6.8.6 11.6-3.65 4.25-11.6 4.7-2.4 2.3-6.6 2.6-4.5.35-9.4-1.75-3.55 1.1-8.55-1.45-4.35-2.3-7.55-6-3.15-3.6-2.65-9.45.5-5.7 4.05-9.3"/><path fill="#fdeabe" d="M115.45 177.3q2.45 1.45 6.5-1.55l4.1-3.6q2.1-.85 15.05 1.1l14.05 2.25q-1.65 4.45-4.95 7.15-4 3.15-9.25 2.65-5.4 2.8-10.35 2.7-4.5-.05-6.45-2.3-3.3-.85-4.95-1.8-2.05-1.25-2.8-3.3z"/><path fill="#6cb2d3" d="M83.9 96.05q1.7-.5 4.7-2.1 4.15 3.35 11.45 4.65 7.05 1.2 14.8.15 17.95-2.4 23.8-12.55 2.45 1.25 5.45 1.55 2.1.2 5.35-.1-.75 1-2.5 2.1l-2.8 1.35-3.65.25q-1.4.4-2.7 1.7-9.05 9.1-23.9 10.6-14.05 1.45-24.45-4.45-1.1-.6-2.75-.4l-3.5.85q-2.7 0-5.5-1.2-1.15-.5-2.55-1.35 5.9-.25 8.75-1.05"/><path fill="#f3b2c1" d="M146.2 115.6q-.65 7.55-4.4 16.1-3.9 8.9-8.8 13.4-4.5 4-8.05 3.05-3.5-.9-4.45-6.15-1.35-7.4.75-16.35 2.2-9.6 7.5-16.85 4.9-.3 10.55 1.85 5.75 2.2 6.9 4.95"/><path fill="#dacaa5" d="m67.95 175.85 1.95-4.5q1.75-3.85 3-4.75l10.75-.5 7.95-.25q.85.2 11.9 5.5l10.85 5.25q1.5 2.2 2.05 3.7.5 1.5.25 3.1-5.05-7.7-21.15-10.3-16.25-2.6-27.55 2.75"/><path fill="#dacaa5" d="m117.35 182.35-.95-1.75-.95-3.3q2.45 1.45 7.2-1.8 4.45-3.6 4.85-3.75 2.1-.85 14.4 1.05l13.45 2.25q-1.2 3.3-3.95 5.8-7.8-4.5-18.5-4.25-11.2.2-15.55 5.75"/><path fill="#7dccf3" d="M79.8 115.6q.95 1.75.4 4.85-.5 3.1-2.3 6.5-1.75 3.35-3.8 5.55-2.6 2.75-4.35 1.95.6-2.05 2.45-5.55l2.6-4.7q3.2-5.95 5-8.6m72.3 8.05q1.3-.1 3.35 3.15 1.95 3.2 2.6 6.25.75 3.2.65 7.7-.05 4.8-1.1 5-1.9.4-4.15-3.45-2.15-3.65-2.7-7.7-.5-3.6-.3-6.65.2-4.15 1.65-4.3"/><path fill="#0d131a" d="M74.85 97.45q.25-.05 1.35.45t.9.6q-11.9 4.95-20.85 11.4-9 6.5-7.9 9.45 1.15 3.2 11.8 3.85 10.15.65 16.1-1.4.3-.1-.55 1.05-.85 1.1-1.25 1.2-8.3 1.7-17.15.75-9.75-1.1-11.15-4.8-1.45-3.95 8.45-11.6 9.75-7.6 20.25-10.95"/><path fill="#0d131a" d="M77 121.85q-5.3 8.9-6.8 12.7-.8 2-1.15 1.05-.4-.9.4-2.85 2.3-5.65 5.95-11.85 4.1-7.05 8.5-12.35 1.3-1.55 2.05-1.55t-.45 1.6q-3.4 4.7-8.5 13.25"/><path fill="#0d131a" d="M175.15 150.35q2.55 1.55 2.75 3.4.15 1.9-2.1 3.7l-5.4 3.6q-3.55 2.2-3.95 2.85-.4.6-.8 2.95l-.8 4.85q-1 4.9-2.55 5.35-1.25.3-9-1.55-5.85-1.4-12.85-2.4l-12.5-.95q-.7.05-4.8 4.15-4.55 3.7-8.15 2.05L102.9 172q-9-4.75-11.45-5.25-3.1-.7-12.05.05l-11.3.75q-4.1-.25-5-1.1-1-1-1.45-5.6l.05-7.1-.15-6.8q-.1-.35-3.4-3.45l-3.85-3.7q-2.1-2.55-1.95-3.9.25-1.95 4.65-2.85 4.1-.85 13.6-1.35.25 0-.3.85l-.8.85-7.2.5-5.1.65q-2.55.7-2.7 1.75-.15.85 1.4 2.65l3.8 3.8q3.3 3.25 3.45 3.8.35.85.25 14.3.25 2.45 1.35 3.6 1.15 1.2 3.45 1.35l10.75-.6q10.55-.5 12.8 0 4.25.95 23.6 11.15l5.4-.25q1.45-.75 3.75-3l1.75-1.65q.9-.7 1.7-.75l12.45.8q7.5.9 12.75 2.15 7.3 1.75 8.55 1.15.8-.4 1.8-5.2.85-5.3 1.75-6.65.5-.8 4.6-3.75 2-1.45 3.95-2.8 1.9-1.45 2.15-2.4.25-1.1-1.5-2.15l-7.4-4.15-6.8-4.1q-.7-.8-1.6-4.1l-2.2-9.15q-1.5-6.4-5.4-19.55-4-13.4-6.3-19.55-.1-.15.55-.6.65-.4.75-.15 2.75 6.25 6.85 19.65 3.65 11.9 5.35 19.25l1.8 8.55q.8 4 1.3 4.55.65.8 13.8 7.85"/><path fill="#0d131a" d="M146.3 114.25q.65.7.45 2.7-.65 7.45-4.1 15.65-3.8 8.95-8.95 13.6-4.9 4.4-9.15 3.3-4.1-1.1-5.1-6.6-1.3-7.25.45-15.9 2.05-10.05 7.6-17.6 1.2-1.6 2.1-1.7.85-.1-.3 1.5-5.45 7.4-7.55 17.2-1.85 8.55-.6 15.5.9 4.9 4.1 5.65t7.3-2.95q4.85-4.35 8.7-13.4 3.65-8.4 4.3-15.65.15-2.05.75-1.3"/><path fill="#0d131a" d="M147.8 119.65q.95-1.6 1.15-.85.2.7-.75 2.25-1.35 2.15-3.25 3.75-.25.2-.15-.9.05-1.05.35-1.35zm-32 61.45q-.45-2-1.95-4.15-.15-.2.6-.15l.9.25q1.3 2.05 1.85 4.2 1.4 5.3-2.35 8.75-4 3.7-12.35 3.65l.55-1 .5-.55q6.75-.4 10.1-3.8 3.1-3.1 2.15-7.2"/><path fill="#0d131a" d="M120 185.95q-2.1-.95-3.25-3-.3-.5-.25-3.25.85 2.45 2.95 3.85 2 1.35 4.5 1.35l.7.85q.3.5.05.8-2.6.3-4.7-.6m-51.5-13.9q1.25-3.1 3.3-5.45 2.4-.25 2.2 0-2.05 2.05-3.45 5.2t-1.35 5.75q.05 4.45 2.8 8.2 2.95 4 8.35 6.2 3.75 1.55 5.25.85 1.4-.6 1.25-3.5-.05-2.2-.85-4.75-.7-2.2-1.7-4-.8-1.45-.1-1.3.65.1 1.5 1.5 2.85 4.6 3 9 .05 4-1.8 4.9-1.75.85-6.1-.65-6.5-2.25-10.1-6.75-3.4-4.25-3.4-9.4 0-2.7 1.2-5.8"/><path fill="#0d131a" d="M100.35 179.7q-1.1-1.55-.5-1.6t1.8 1.45q4.85 5.9 3.4 11t-7.95 5.55q-5.45.45-10.8-1.95.3-.8.8-1.3 4.55 1.95 9.65 1.65 5.8-.4 6.7-5 .85-4.4-3.1-9.8m40.15 4.85.6.5.25.8q-4.3 2.65-9.35 2.85-4.85.2-6.9-1.35-2-1.5-1.45-4.8.35-2.6 1.55-4.85.85-1.65 1.45-1.65.65 0-.15 1.65-.9 1.75-1.25 4.25-.35 2.45 1 3.65 1.45 1.3 5 1.35 4.25.05 9.25-2.4"/><path fill="#0d131a" d="M140.55 176.3q-.9 2.05-.55 5.1.3 2.45 2.4 2.9t5.25-1.1q4.4-2.15 6.9-7.9l.8-.15q.65.1.6.25-1.05 2.8-2.75 5.1-1.95 2.6-4.25 3.9-3.9 2.25-6.9 1.65t-3.45-3.5q-.5-2.95.35-5.35.4-1.35 1.3-1.8t.3.9m5.45-96q11.45 1.4 9.45 4.8-1.1 1.85-6.9 4.9t-6.35 4.05q-.3.65-1.15 4.65-1.05 3.95-2.65 5.25-2.25 1.85-7.9-.45-6.2-2.55-6.9-2.35-.85.2-3.8 3.55-2.9 3.25-6 3.75-1.75.25-6.15-2.2-4.45-2.45-5.45-2.3l-5 3.2q-4.25 2.8-6.55 2-1.55-.55-4-4.35-2.4-3.7-3.15-3.9-12.3-2.9-12.95-5-.9-2.85 9-7.35 11.9-5.5 29.95-7.4 23.4-2.5 36.5-.85m-6.4 17.5 1.55-4.45q1.05-1.9 6.65-4.9l5.5-3.25q.85-2.75-10.3-3.9-12.95-1.3-33.3 1.15-18.35 2.25-30.05 7.35-4.2 1.8-6.6 3.6-2.05 1.5-1.8 2.1.35.95 13.1 3.9.7.15 3.45 4.05 2.65 3.9 3.85 4.1 1.85.35 5.85-2.15 4.3-2.65 4.8-2.7 1.15-.1 5.5 2 4.45 2.15 5.8 2.1 2.55-.15 5.45-3.2 3.15-3.25 4.1-3.5 1.4-.35 7 1.85 5.05 1.95 6.85.5 1.4-1.1 2.6-4.65"/><path fill="#485157" d="M26.8 21.55q-.25 5.25 7.95 16.85 7.85 11.05 14.6 16.05L46.7 60.9q-3.9 3.65-8.3 6.4-5.3 3.35-8.1 3.25-5.3-.2-17.2-15.1Q1.5 40.85 1 34.9q-.15-2.1 7-6 7.85-4.3 18.8-7.35m174.65 8.1q-5.9 17.35-9.8 18.65-1.9.6-8.2-.75-6.05-1.3-10.35-3.15.3.5-2.8-2.6 2.65-5 6.2-19 3.7-14.55 3.8-21.55l17.95.65q7.4 1.15 7.85 3.65 1.3 6.65-4.65 24.1"/><path fill="#f3b2c1" d="M180.1 1q-.1 7.5-3.4 20.95-3.4 13.75-6.8 20l-3.95 5.6q4.45 6.3 5 14.7.45 7-1.6 10.8-5.3 10.05-14.1 13.6-8.3 3.35-16.65-.2l-49.85 7.6Q78.65 98.7 68.4 96.9 57.95 95 53.9 87.45q-2.8-5.1-2.05-18.05l1.25-11.95q-7.05-5.2-16.45-17.4Q26.55 27 26.8 21.85q11.35-3.15 22.75-4 13.45-.95 25.6 1.5 11-7.15 26.85-8.9 14.85-1.65 26.9 2.1 8.9-5 23.9-8.15 13.3-2.8 27.3-3.4"/><path fill="#f3b2c1" d="M87.6 92.35q-1.7-4.1-1.35-9.8.4-5.9 2.9-11.3 6.05-13.2 19.65-14.5 10.1-1 18.45 5.25 8.5 6.4 11.35 17.65 1.9 7.35-5.65 12.55-6.4 4.4-17.05 5.9-7.95 1.1-16.3-.05-10.2-1.4-12-5.7"/><path fill="#30353a" d="m163.1 41.2 10.7 3.65q10.55 3.45 12.25 3.5-1.75 4.75-4.45 7.7-4 4.4-10.75 6.15-.4-2.25-1.55-6-2.35-7.45-6.2-15M50.75 74.65q-2.55.7-7.6-.95-5.35-1.7-6.85-4.25Q51.15 59.2 52.2 57.3q-1.15 5.25-1.45 17.35"/><path fill="#fff" d="M130.4 54.65q.5.3.4 4.2-.1 3.7-.5 5.7l-7.55-5.4q1.55-1.4 4.3-3.05 2.85-1.75 3.35-1.45M86.55 62.2l3.6-.1 5.1.9-5.4 6.95q-1.2-1.75-2.35-4.05-1.5-3.1-.95-3.7m1.9-13.5q-1.3 5.55-6.9 7.85-5.05 2-9.15.2-3.6-1.6-4.55-6.3-.95-4.95 2.05-9.7zm52.35-18.15q3.1 2.1 3.9 7.35.9 5.75-2.55 9-3.9 3.7-9.8 2.95-6.4-.8-8.8-6.65z"/><path fill="#d29aa8" d="m115.9 98.1-13.75.6q-10.4-.65-13.85-4.8-2-2.4-2.2-5.15l.3-4.55q.6 5.2 9.35 7.45 8.15 2.1 18.45.6 10.85-1.6 17.05-6.3 7.15-5.4 5.05-13.1 1.55 2.45 2.25 6.35.75 4.3-.25 6.85-1.95 4.75-8.6 8.05-5.85 2.9-13.8 4"/><path fill="#d29aa8" d="m85.95 84.95.5 2.85q.7 3.4 1.85 6.1-.95.7-3.9 1.7-4.05 1.4-8.25 1.7-12.8.85-21.5-8.65 10.9 4.95 20.75 3.65 9.65-1.3 10.55-7.35m53.2-6.3q3.4 5.4 12.65 4 9.8-1.5 17.85-10-4.4 11.1-16.05 14.15-4.45 1.2-8.85.85-3.95-.3-6.05-1.55.45-.55.7-2.6.3-2.5-.25-4.85"/><path fill="#ccc" d="m88.45 48.7-.6 1.9q-6.5-2.9-19-7.85l1.05-2zm52.35-18.15q1 .7 1.75 1.8-4.1 2.2-9.5 6.25-4.5 3.35-8.35 6.75l-1.15-2.15z"/><path fill="#30353a" d="M40.2 66.9q-7.2 4.6-9.9 4.75-2.4.15-7.1-4.35l-4.25-4.5q2.55-.6 9.8-4.05 8.35-3.9 15.6-8.25 1.15.7 3.6 3.05l4.25 3.75-3.7 3.2q-1.45 2.05-8.3 6.4"/><path fill="#d29aa8" d="M58.1 40.5q-2.15 4.1-3.6 8.8l-2.3 8.65q-1.2-.55-3.9-3.6-2.9-3.2-3.95-3.85 9-5.35 13.75-10"/><path fill="#30353a" d="M173.6 32.5q12.5 3.4 24.85 4.85l-2.65 5.55q-3 5.5-4.55 5.5-4.85.1-12.85-1.95l-7.05-2.1q-.85-.15-1.7-1.3 3.15-6.45 3.95-10.55"/><path fill="#d29aa8" d="M173.6 32.5q-.95 4.9-4.05 11.35-.9-.5-3.4-1.45-2-.75-3.05-1.6-3.75-5.85-11.75-15.6 10.05 4 22.25 7.3"/><path fill="#0d131a" d="M136.75 15.2q2.5 1.45 2.2 2.15t-2.85-.7q-14.5-8.3-35.95-5.15-22.45 3.25-33.1 17-1.75 2.2-2.35 1.7-.65-.5 1.1-2.7Q77.2 12.8 99.65 9.45q21.45-3.2 37.1 5.75m-48.2 78.3q.25-.1.7.55.45.7.2.8-10.8 5.2-21.5 2.85-9.7-2.15-14.45-9.05-4.95-7.2-3.3-23.3 1.55-14.8 6.7-23.85 1.15-1.95 2.05-2.05.95-.15-.1 1.85-4.9 9.25-6.4 24-1.6 15.75 2.8 22.15t14.05 8.3q9.95 2.05 19.25-2.25m78.35-47.4q7.75 16 4.6 25.5-3.3 10.25-14.4 15-10.55 4.55-18.8.7-.25-.1.15-.85.35-.75.6-.65 7.55 3.2 16.95-.7 10.3-4.3 13.35-14.1 2.85-9.1-4.9-24.95-7.2-14.7-16.55-22.45-1.7-1.4-.75-1.6t2.65 1.2q9.85 8 17.1 22.9"/><path fill="#0d131a" d="M88.7 92.35q1.6 3.9 11.4 5.25 8.25 1.15 16.05.05 7.15-1 13.25-4.05 6.8-3.35 8.45-7.5 1-2.5-.25-7.35-1.4-5.25-4.75-9.95Q124 56.35 109.2 57.75 95.9 59.05 90.1 72q-2.35 5.25-2.65 11-.35 5.5 1.25 9.35m-1.5.7q-1.85-4.45-1.45-10.35.35-6.1 2.95-11.6 6.3-13.25 20.4-14.6 15.3-1.45 24.95 11.2 3.8 5 5.25 10.55 1.35 5.35-.1 8.6-2.05 4.55-8.05 7.85-6.15 3.35-15.1 4.6-8.5 1.2-17.05-.2-10-1.65-11.8-6.05M204.55 2.5q2.45 1.1 2.75 2.6 1.35 6.85-5 25-6.35 18.1-10.5 19.45-2.5.8-10.45-1.05-9.25-2.2-17.85-6.6-.5-.25-1.1-1.55-.6-1.25-.3-1.1 8.25 4.2 18.15 6.8 8.75 2.25 10.9 1.55 3.4-1.1 9.25-18.05 5.95-17.2 4.7-23.75-.25-.9-1.95-1.7-8.2-3.7-32.45-1.35-26.3 2.55-40.8 10.45l-1.05-.3-.65-.5Q143.95 3.6 170.65.85l20.45-.7q9.3.45 13.45 2.35"/><path fill="#0d131a" d="M179.4 1.35q0-.25.85-.3.8-.05.8.2-.05 9.65-3.7 23.2-3.35 12.5-7.1 19.3l-.95.05q-.8-.2-.65-.45 2.65-4.3 6.45-18.2 4.2-15.25 4.3-23.8m6.2 46.6 1-.05q.9.15.8.35-2 5.45-6.5 9.45-4.05 3.6-9.65 5.55-.25.1-.55-.8-.3-.85-.05-.95 4.75-1.85 8.65-5.1 4.6-3.85 6.3-8.45M76.4 19.1l-.5.55-1.05.45q-21.4-4.05-44.75 2-18.65 4.85-26.05 11.35Q2.6 34.7 2.6 35.4q.45 5.75 11.85 20.1Q26.1 70.05 31.1 70.25q2.4.1 10.45-5.8 6.6-4.85 11.35-9.35.25-.2-.1 1.45-.3 1.65-.7 2Q36.3 72.5 30.7 72.3q-5.45-.2-17.95-15.75Q.45 41.3 0 35.1q-.1-1.25 1.85-2.95Q4.9 29.45 12 26.3q8-3.5 17.6-5.9 25-6.15 46.8-1.3"/><path fill="#0d131a" d="M26.8 22q0-.25.75-.2.7.05.7.3-.3 4.95 8.75 17.4 8.75 12.05 15.6 16.9l-.3 1-.75.65q-9.45-6.95-17-17.45Q26.3 29.2 26.8 22m8.7 47.25q-.15-.2.7-.55l1-.1q1.45 2.45 6 4.05 4.5 1.55 7.55.7.25-.05.25 1.15t-.25 1.2q-4.9.35-9-1.35-4.25-1.75-6.25-5.1m86.4-10.6 3.95-2.6q3.7-2.15 4.65-1.6t.9 5.7l-.3 5.1q-.05.35-1.55-1.4l.45-4.75q.2-3.5-.2-3.65-.4-.2-2.9 1.4-2.45 1.55-3.85 2.85-.2.2-.8-.35-.55-.5-.35-.7M90.4 62.8l-3.05-.05v.1q0 .75 1 2.8l2.2 3.9q-.85 2-1.05 1.7-1.05-1.45-2.4-4.35-1.85-4-1-5l5.45-.3 4.65.7q.25.1-.35.7-.55.65-.8.55zm50.4-32.85.7.1q3.8 5.25 4.15 9.95.3 4.5-2.65 7.55-3.3 3.45-9.25 3.05-6.85-.5-10.7-6.65-.3-.5.15-.75t.85.15q4.6 5.5 10.1 5.8 4.55.25 7.75-2.8 5.6-5.4-1.2-15.8-.3-.4.1-.6m-10.6-4.1q1.95-.15 2.25.3.25.5-1.7.7-4.35.55-6.7 3.75-2.85 3.95-1.25 10.45.4 1.7-.15 1.45-.6-.3-1.1-2-1.7-5.75.6-9.95 2.35-4.35 8.05-4.7m-41.6 22.5q.2-.3.5-.15t.15.45Q86.1 55 81.3 57.2q-4.4 2.05-9.1.1-4.3-1.8-5-6.75-.7-4.75 2.15-10.05.25-.5.7-.2l.3.5q-2.5 5.3-1.6 9.55.85 3.95 4.15 5.35 4.3 1.8 9.05-.85 4.05-2.3 6.65-6.5M85.7 34.9q4.6 3.5 4.5 9.85-.05 1.6-.55 2.3-.5.65-.5-.9.15-6.25-4.1-9.7-4.15-3.35-9.15-1.6l-1.85.2q0-.5 1.85-1.3 5.25-2.25 9.8 1.15m29.4 12.35q.35 1.8-2.15 3.7-2.4 1.8-5.25 2.2-3.2.45-5.95-.55-2.95-1.1-3.25-3.25-.35-2.4 7.9-3.35 8.3-.95 8.7 1.25"/><path fill="#8a969d" d="M100.05 49.3q-.25-.4.8-.95 1-.6 2.3-.75 1.85-.25 1.85.8t-1.65 1.35h-2q-1.1-.1-1.3-.45"/><path fill="#0d131a" d="M128.8 39.7q-.4-.65 2.7-3T135 35q1.25 1.95 1.15 3.75-.05 1.8-1.4 2.7-1.45.95-3 .55-1.7-.4-2.95-2.3"/><path fill="#fff" d="M131.5 39.25q-.3-.4-.25-.9t.45-.8.9-.25q.5.1.8.5t.25.9l-.5.8-.85.2z"/><path fill="#0d131a" d="M76.35 43.2q.1-.2 3.5 1.25 3.4 1.5 3.3 1.85-.5 1.7-2.25 2.6-1.7.85-3.1.25-1.45-.6-1.95-2.15-.55-1.75.5-3.8"/><path fill="#fff" d="m78 45.45.65-.6q.45-.2.9 0l.6.6q.2.45 0 .9l-.65.6q-.45.2-.85 0l-.65-.6q-.2-.45 0-.9"/><path fill="#0d131a" d="M140.2 30q1.75-1.3 2.25-.9.5.45-1.25 1.75l-17.6 13.4q-1.35.95-1.75.5t.85-1.45q3.45-2.85 17.5-13.3M89.25 48q1.45.75 1.35 1.3l-1.7-.1-18.7-7.8q-1.85-.8-2.05-1.6l1.9.05 9.85 4.1q7.75 3.25 9.35 4.05"/></svg>