<svg xmlns="http://www.w3.org/2000/svg" width="218" height="329" viewBox="-0.05 -0.45 217.95 328.85"><path fill="#cea6cc" d="M191.05 181.95q-11.65 9.4-15.35 10.25 2.25 5.4 3.35 14.05.95 7.35.85 15.05 2.65 3.95 10.45 13.55 6.5 9.45 6.8 18.2.3 10.3-9.75 23.8 1.75 4.2 7.25 7.3 2.9 1.65 7.3 3.65 4.45 2.9 4.2 9.3-.25 6.7-6.3 7.75l-16.5.55q-13.9-.15-19.9-1.3-2.85-.55-5.9-2.45-3.15-1.95-3.7-3.7-.2-.7-.35-5.05-.1-4.7-.5-6.85-.6-3.35-8.35-8.85l-7.7-4.85-5.85-2.5q-3.3-1.3-6.9-2.3-4.3-.3-17.95 2.85-14.9 3.45-24.15 7.5l-2.55 2.65-4.35 3.95q-3 2.25-14.45 3.85-11.55 1.6-15.75.3-5.4-1.65-12.25-9.95-7.4-8.95-9.65-18.05-1.55-6.25-1.7-10.55-.25-4.85 1.1-9.8 2.1-7.65 7.35-16.05 4.65-7.45 13.85-20.15 7.5-10.45 9-13.6-4.4-6.7-5.75-10.6-1.65-4.8-1-10.5 1.3-11.15 26.05-33.2l3.5-6.4q2.45-4.7 3.45-8.35l19.1-11.05 54.05 14q8.25 5.35 15.5 15l7.4 10.2 5-4.25 31.9 15.95q-7.65 10-20.85 20.65"/><path fill="#30353a" d="m78.4 124.65.45-2.45 6.65-11.15 66.5 12.8q6.65 9.7 5.3 23.4-1.45 14.4-11.1 17.35-6.2 1.95-15.45 0t-19-7.2Q89.1 145.2 78.4 124.65"/><path fill="#cea6cc" d="M182.9 7.7q4.45 5.65 8.7 12.9 5.15 8.75 6.7 14.5.15.65-3.5 1.45l-8.75 1.9.65 4.1.45 4.15q4.6 6.7 3.9 6.9-1.85.45-3.75 1.25 0 4.4-.4 9.45 2.2 1.45 4 4.3 1.5 2.35 2 4.3 2.05 8.2-3.15 22.1-4.95 13.1-10.95 18.25-1.5 1.3-4.5 1.7-2.55.35-7.15.1-4.05 5-12.45 8.8-8.2 3.65-15.75 4.15-12.05.8-27.85-4.55l-10.5-3.7q-5-1.65-7.45-1.45-6.7.55-15.55 4.05-2.85 1.1-4.6 1.1-2.3 0-5.1-1.65-6.15-3.6-13.95-14.2-8.9-12.1-7.8-19.1.5-3.35 3.2-8.25 2.6-4.8 6.65-9.85l1.1-4.45q-27.7 1.9-44.45 6.2l-7.25 2q-1.85.45-2.35-.55-2-4.05-2-14.3 0-6.65 1.1-22.4.6-8.85 5.1-15.7 5.05-7.7 13.9-11.1 9.3-3.6 23.75.05 9.75 2.45 30.8 11.25 2.6-3.8 4.75-6.2 2.6-2.85 3.65-2.45 1.4.5 1.4 5.8l-.1 7 2.85 1.15q3.7-3.1 9-4.75 3.8-1.2 9.7-1.95 14-1.6 24.45 1.5Q145.15 10.15 154.3 5q7.1-4 14.95-3.7 8.9.35 13.65 6.4"/><path fill="#60615f" d="M128.9 55.85q.85-3.25 9.15-3.05 8.25.25 7.75 3.7-.45 2.85-2.65 4.8-2.05 1.75-4.3 1.75-3.35 0-6.85-2.25-3.8-2.45-3.1-4.95"/><path fill="#fff" d="M104.15 42.8q7.55 1.3 14.05 3.65 8.25 3 13.6 7.3l-1.25.55-12.65-.5q-8.4.25-14.5 1.55-2.35.4-2.45-.8l.55-2.65q1.1-5.3 2.65-9.1m40.4 5.45q3-2.5 6.95-4.7 1.9 2.3 3.35 6.6 1.2 3.5 1.1 4.3l-6.85-.2-4.25.3-4.2-1.65q.55-1.85 3.9-4.65"/><path fill="#cea6cc" d="M23.95 234.6q-3.9-7.35-5.8-11.95-2.95-7.15-2.9-11.15.05-2 1-2.95 1.2-1.2 4.15-1.05l10.1.75 10.55-1.05-9.9 14.15q-5.15 7.8-7.2 13.25"/><path fill="#30353a" d="M184.7 147.3q1.85 1.8 2.6 1.75l-.05.25q0 1.35 1.35 3.25 1.35 1.8 2.95 2.75 1.05.65 4.1.55-.35.55 2 1.35 2.65.95 2.85 1.2 1.25 1.5 4.4 2.3l6.2 1.1-7.5 9q-10 .5-18.05-9.45-3.5-4.4-4.55-8.95-1.15-4.85.9-8.35 1.15 1.65 2.8 3.25"/><path fill="#cea6cc" d="M213.3 135.3q3 4.15 3.45 9.9.25 2.9-.3 7.05-.25 2.25-1.4 4.75-1.55 3.35-3.8 4.65-2.85.15-5.9-.8-3-.9-4.55-2.3-2.7 1.5-3.8 1.8l-3.15-.05q-3.7-1.2-6.3-5.25-2.5-3.95-1.65-6.7-2.5.2-6.4-2.9-4.35-3.5-3.8-7.15-1.5-1.05-2.75-2.65-2.45-3.25-.95-6.35 2.05-4.3 8.3-7.7 6.35-3.5 11.45-2.9 5.35.6 9.25 3.3 5.45 3.7 12.3 13.3"/><path fill="#fff" d="M157.45 81.15q-4.35-5.1-8.45-7.55 7.05.3 11.9 1.9zm-49.35 7-.15-6.15q8.35-4.55 20.65-6.85l-8.45 6.05q-7.05 4.9-12.05 6.95M97.75 126.2q1.2 4.5.3 7.5-.95 2.95-3.6 3.6-2.7.7-5.5-1.7t-3.85-6.3q-.85-3.3.2-6.3 1.1-3.2 3.75-3.8 2.5-.6 4.8.95 2.75 1.85 3.9 6.05"/><path fill="#30353a" d="M85.55 164.35q-.6 10.95 7.3 17.65 8.85 7.5 28.1 9.5-.85.2-6.15 2.3-5.4 2.15-9.65 3.2-12.25-1.2-18.05-9.25-6-8.35-4.15-22.9 1-.7 1.45-.6z"/><path fill="#60615f" d="M128.05 56.3q.95-3.6 10.05-3.35 9.15.2 8.55 4.05-.45 3.15-2.9 5.25-2.25 1.9-4.7 1.9-3.7 0-7.55-2.45-4.2-2.65-3.45-5.4"/><path fill="#922f00" d="M157.45 81.15q-4.35-5.1-8.45-7.55 7.05.3 11.9 1.9zm-49 6.95-3.25-4.6q4.45-2.45 11.05-4.85 6.85-2.5 12.35-3.5l-8.25 6q-6.9 4.9-11.9 6.95"/><path fill="#fff" d="M97.75 126.2q1.2 4.5.3 7.5-.95 2.95-3.6 3.6-2.7.7-5.5-1.7t-3.85-6.3q-.85-3.3.2-6.3 1.1-3.2 3.75-3.8 2.5-.6 4.8.95 2.75 1.85 3.9 6.05m10.7-44.65q2.5-1.2 8.2-3.3-.1 1.9-1.05 4.25-1.05 2.55-2.05 2.95-.95.4-2.65-1.05-1.4-1.2-2.45-2.85m49.05-6.9q-.9 2.5-2.35 4.05-2.2-2.4-5.85-4.95l4.3.3z"/><path fill="#cea6cc" d="M26.7 269.65q3.7 6.85 9.15 12.65 5.45 5.85 8.8 6.5l6.9.4 8.7-.55q0 5.5.75 9 .25 1.15 3.1 5.95l4.1 7.25q1.25 2.7-.7 6.75-1.65 3.5-4.4 5.8-2.35 2-18 3.45-5.45.5-12.5-1.05-8.2-1.8-13.7-5.5-1.75-1.2-2.95-5.25-.7-2.45-1.4-6.75-.4-2.6 1.6-7.65 1.65-4.25 4.25-8.55 2.75-4.5 4.5-9.9 2.2-6.85 1.8-12.55"/><path fill="#b390b1" d="M106.4 270.55q-14.9 3.4-24.3 7.2l-2.8 2.7-4.55 3.95q-3 2.3-14.2 4.05l-15.45.5q-4.75-1.4-8.9-5.85-3.55-3.75-9.35-12.7-2.85-4.4-4.6-11.1-1.9-7.2-1.1-12.4 10.8 12.5 26.8 15.5 12.25 2.3 30.35-.8l29.7-6.1q16.15-2.9 24.85-.35 29.2 8.55 44.4 4.7 13.85-3.5 16.75-17.55 2.5 5.3 2.7 10.65.2 5.95-2.6 12.75-2.35 5.7-6.45 11.2l.25.95q2.9 4.35 8.5 7.7-13.55-.2-22.95 2.1-9.8 2.35-19.9 8.5-.65-8.2-1.2-11.35-.45-2.7-7.55-7.65l-6.95-4.35q-5.4-2.9-13.35-5.1-4.15-.3-18.1 2.85M16 215.75q4.4 1.1 10.1.85t9.9-1.75q-3.4 4.45-6.45 10.25l-5.1 10.4-4.2-9.25q-3.05-6.65-4.25-10.5"/><path fill="#b390b1" d="M19.05 294.8q4.7-9.2 5.75-11.95 2.65-6.95 2.05-13.05 7.4 13.65 14.8 17.5 6.3 3.25 18.15 1.45.35 6.9 1.6 9.7l.85 1.8q-8.4-4.15-20.45-5.65-11.9-1.5-22.75.2M1.65 41.7q.45-11.6 5.3-20.15 4.1-7.25 9.35-9.35 6.75-1.2 16.95 16.7 6.9 12 11.4 24.3l11.2-1.1 8.45-.5q-3.3 5.25-6.95 14.25-27.1 1.9-44.2 6.2l-7.5 2q-1.95.45-2.45-.55-2.55-5-1.55-31.8m162.7 9.15q-3.25-2.55-3.55-3.5l-.7-1.55-.55-.95 13.4-3.65q0 4.25-1.5 9.05l-1.5 4.6q-2.8-1.8-5.6-4m22.95 4-.15-8.15 3.7 6.3zM176 192.2l-5.5-14.2q2.8 3.15 12.65 3.1 8.15-.1 11.65-2.5-3 2.6-8.15 6.25zm-8.75-76.85q-2.45 2.55-7.15 5.4-9.3 5.65-20.35 7-14.15.5-30.55-4.6l-10.35-3.5q-4.6-1.6-6-1.5-5.1.3-13.9 3.5-6.85 2.5-9.15 1.25-4.05-2.15-8.45-6.15-5.5-5.05-8.25-10.35 12.8 8.05 23.5 6l8.6-2.15 9.75-.45q2.6.4 13.95 3.6 10.85 3 18.3 3.95 24.45 3.2 41.7-10.15 2.7-2.1 5.4-1.9 1.55.1 4.3.95 5.05.9 10.7-9.35l-3.7 7.85q-4.3 8.05-7.05 9.15-2.7 1.1-7.3 1.4zM52.8 190.4q-4.45-5.2-6.6-11.8-1.1-3.35-.55-6.85l.8-2.85q.1 4.8 3.15 9.65 3.2 5.15 8.7 8.7 13.25 8.55 31.45 3.75 2 2.2 6.7 3.95l7.6 2.05q-8.35 2.8-16.3 3.95-10.4 1.45-17.85-.3-10.4-2.4-17.1-10.25"/><path fill="#212226" d="m102.2 186.7 6.75 2.2q7.8 2.2 13.15 2.2-7.55 3.25-16.35 6.15-5-.5-9.4-2.2-4.6-1.75-6.85-4.15 7.15-1.95 12.7-4.2m31.95-58.8q5.35 0 12.8-1.45l6.35-1.5q3.4 10.1 3.35 11.2-.1 5.55-3.05 10.4-3.85 6.25-10.7 6.75-12.2.85-26.6-11.15-4.9-4.1-12.3-11.6l-12.2-12.2q1.9-.5 17.65 4.3 17.1 5.25 24.7 5.25"/><path fill="#b390b1" d="M195.4 157.25q4.3-1.65 9.35-4.75 10.4-6.35 11.05-9.85.95 6.25.9 7.55-.05 4.55-3.05 8.4-3.85 4.95-2.55 2.9-1 .5-2.8.4-3.65-.1-7.8-2.9-4.9 2.25-7 1.3-1.4-1.3-2.75-1.95 1.4.15 4.65-1.1"/><path fill="#dbdcdc" d="M104.15 42.8q7.55 1.3 14.05 3.65 8.25 3 13.6 7.3l-.75.3q-4.5-2.35-11.45-4.65-9.6-3.15-16.6-3.3zm47.35.75 1.55 2.4q-2.75.45-6 1.95-3.05 1.45-5.3 3.15 1.35-1.75 4.15-3.9 2.6-1.95 5.6-3.6"/><path fill="#0d131a" d="M193.8 72.2q2.1 8.4-2.75 22.55-4.7 13.7-10.95 19.05-1.7 1.45-5.2 1.9-2.95.35-7.8.1-.3 0 .35-.7l.9-.75 6.1-.2q2.55-.35 3.9-1.5 5.7-4.85 10.4-17.8 5-13.75 2.9-21.95-.45-1.95-1.55-3.9-1.5-2.7-3.5-4 .1-1.05.35-1.85 2.65 1.55 4.65 4.45 1.6 2.4 2.2 4.6m-23.6-18.25-.7 1.35q-8.2-5.05-9.95-9.15-5.85-13.7-20.15-20.6t-32.35-4.75q-9.2 1.05-18.5 6.15l-1.9-.8q4.3-2.7 9.95-4.75 5.7-2.05 10.55-2.6 19.35-2.3 33.7 5.1 13.9 7.1 20.1 21.65 1.55 3.65 9.25 8.4m-107.45-2h2.1q-3.35 5.95-6.7 15.25l-4.55 5.85q1.8-5.15 4.25-10.9 2.75-6.5 4.9-10.2M187 47.9q-.35-.55-.2-1.7t.35-.85l4.8 6.55q1.1 1.6.9 2.05-.15.4-1.9.9l-3.25.65q-.3.05-.55-.65-.2-.7.15-.85 1.6-.65 2.9-.95-.55-1.25-3.2-5.15m-26.05 27.05q.25.1 0 .8-.3.7-.6.6-4-1.55-10.3-1.95l-1.75-1.75q7.9.4 12.65 2.3m-17.7-13.45q2.15-1.9 2.6-4.65.25-1.8-4.05-2.65-4.1-.85-8.3-.1t-4.65 2.4q-.3 1.15.7 2.45 1.35 1.8 4.4 3.1 2.8 1.25 5.1 1.25 2.2 0 4.2-1.8m-1.1-8.95q5.8 1.15 5.25 4.35-.5 3.45-3.1 5.85-2.5 2.25-5.25 2.25-2.6 0-6.05-1.5-3.7-1.6-5.35-3.7-1.1-1.55-1.1-2.95 0-2.7 4.55-4.1 4.85-1.5 11.05-.2"/><path fill="#0d131a" d="M102 43.25q-2.95-.4-1.7-.95 1.2-.5 4.1-.05 17.45 2.55 27.85 10.9.25.2-.2.8-.5.6-.75.4-6.1-4.9-16-8.05-6.3-2-13.3-3.05"/><path fill="#0d131a" d="M103.8 45.6q-.9 2.9-2.15 9.25 6.05-1.35 15.35-1.7l13.65.4q.3.05-.3.7l-.9.65q-5.05-.5-13.1-.1-8.6.45-14.45 1.75-1 .15-1.5-.25-.55-.45-.35-1.5.85-4.5 2-8.1.6-1.85 1.5-2.4t.25 1.3m45.3-1.35q2.6-1.35 3.55-1.1t-1.65 1.6q-3.4 1.8-6.5 4.75-2.55 2.45-3.15 3.7-.1.3-.8 0t-.6-.6q.7-1.6 2.9-3.75 2.75-2.7 6.25-4.6m3.6 2.2q-.75-1.45.1-1.05.85.45 1.65 2.05 1.65 3.35 2.1 5.85.3 1.35-.05 1.65l-1.45.2-5.95-.2-3.55.15-.8-.55q-.45-.6-.1-.7l4-.35q3.3-.1 6.4.1-.75-3.9-2.35-7.15"/><path fill="#0d131a" d="M137.1 45.25q-1.2-2.15-.3-1.85.95.3 2.2 2.55 1.85 3.3 2.45 7.1.05.35-.7.45t-.85-.2q-.3-1.85-1.2-4.45zm-5.25 1.2q.1-2.9.7-3.1.6-.15.65 2.65l.05 2.8-.15 4.8q0 .3-.75.25-.8-.05-.75-.4zm.15 13.4q-1.4-.1-1.1-.8.25-.7 1.7-.7 2.75 0 4.1 2.05.7 1.15.35 1.7-.35.5-1.15-.55-1.2-1.45-3.9-1.7m9.6.25q.45-1.3 1.7-2.05 1.2-.7 2.9-.7.35 0 .35.85t-.35.85q-2.75 0-3.5 1.85-.5 1.3-1 .95t-.1-1.75M78 121.95l.9-.4.8.1q-.8 3-2.55 6.6l-3 5.6-3.35 2.85 1.8-3.3 2.85-5.25q1.75-3.5 2.55-6.2"/><path fill="#0d131a" d="M77.5 125.2q-.1-.25.3-1.35t.55-.85q3.45 6.6 9.5 13.7 5.55 6.5 11.6 11.5l-2.8.6Q91 144 85.9 137.7q-4.95-6.15-8.4-12.5m75.65-.9q3.65 6.2 4.55 15.05.9 8.9-1.5 15.65-2.95 8.7-10.05 10.85-4.4 1.35-11.15.5l-.55-2.4 11.15-.5q6.05-1.9 8.8-9.9 2.3-6.55 1.45-14.65-.8-8.05-4.35-13.95-.2-.3.6-.65.85-.35 1.05 0M82.6 165.4l1.75-.9q-1.6 5.65-.7 12 .85 6.25 3.85 10.6 3.85 5.65 10.9 7.95 6.45 2.1 11.05.25-3 2.05-4.35 2.15-5.6.45-10.65-1.8-5.35-2.35-8.65-7.15-3.2-4.7-4.05-11.9-.8-6.7.85-11.2"/><path fill="#0d131a" d="M63.3 171.75q-5.1 1.25-5.9.7t3.85-1.9q17.2-5.1 24.9-8-.3.75-.25 1.25l.05 1.1q-6.1 2.8-22.65 6.85m99.95-12q1.1 3.5 3.85 9.25 10.25 21.25 12.75 32.65 3.25 14.95-1.5 30.5-1.1 3.65-1.9 3.45t.15-3.9q4.15-16.1-.8-34.6-2.7-10.1-10.65-26.95-2.85-6.15-4-10.3-.8-2.95-1.35-8-.55-4.8.35-4.95.9-.1 1.45 4.8.5 4.5 1.65 8.05M52.15 190q.2-.25.9.6t.5 1.1L39.6 211.6q-10.8 15.65-14.45 23-6.85 13.7 2 32.8 3.55 7.75 8.65 13.5 5.05 5.7 9.4 7 4.05 1.25 15.15-.3 11.05-1.6 13.95-3.8 3.8-2.85 8.8-8.75 3.35-3.95 4.2-3.45.85.45-2.5 4.4l-3.9 4.55q-2.6 2.85-5 4.7-3.15 2.4-14.95 4.15-11.85 1.75-16.15.45-5.5-1.7-11.15-7.85-5.5-6.05-9.25-14.3-8.9-19.65-1.8-33.9 5.55-11 29.55-43.8"/><path fill="#0d131a" d="m179.4 222.35.25-2.8 4.55 5.8q6.9 8.45 9.1 11.95 4.8 7.7 5.05 14.65.45 12.65-11.6 26.85-2.05 2.45-3.2 2.3-1.15-.1.9-2.5 4.15-4.8 6.85-9.75 4.75-8.65 4.45-16.25-.25-6.75-4.3-13.95-2.55-4.5-8.5-11.8zM82.6 276.6q2.85-1.85 15.8-5.2 15.15-3.95 26.9-4.75l5.95.35q.9.7-4.1 1.2-12.75 1.3-29.4 5.8-15.3 4.15-18.7 6.5l1.2-1.6q1.6-1.85 2.35-2.3m101.85 15.15q-2.1-2.1-1.9-2.8t2.5 1.15q1.7 1.35 3.45 3.45 2.05 2.5 2.2 3.95.15 1.3-.45 3.55-.8 2.75-2.3 4.3l-3 .1q1.8-1.5 2.85-4.15.9-2.4.65-3.9-.45-2.15-4-5.65m14.95 3.65q-.75-2.1-4-4.85-2.25-1.85-2.5-2.85-.25-1.05 2.1.5 1 .65 3 2.55 2.75 2.6 3.3 4.1.55 1.45.25 3.7-.35 2.25-1.3 3.95-.7 1.35-2.35 2.5h-3.15q1.95-1 3.2-3.25.95-1.65 1.35-3.5.45-1.85.1-2.85"/><path fill="#0d131a" d="M154.4 292.85q.3 3.9.5 4.45.45 1.5 3.45 3.5 3.1 2.1 5.7 2.45l11.05.9 8.7.4 10.3-.2q6.85-.4 8.3-1.25 2.25-1.3 2.55-5.1.25-2.65-.6-5.15-1-2.85-3-4.1l-3.3-1.8q-4.5-2.25-6.5-3.7-3.55-2.55-4.55-5.5-.15-.55.6-1.6.8-1.1.8-.75.25 3.25 3.75 6.15 2.3 1.95 6.6 4.05l2.25.95q1.45.6 1.95.9 2.4 1.55 3.6 4.95 1.1 3 .85 6.05-.2 2.25-1.55 4.1-1.15 1.65-2.75 2.3-2.25 1-9 1.35l-9.95.35-9.3-.3-11.1-.95q-3.1-.45-6.65-2.5-3.7-2.15-4.3-4.05-.3-1.05-.55-4.8-.4-6.15-.85-8.35-.65-3.55-9-9-9.35-6.15-20.05-8.45l4.05-.8q10.1 2.75 18.5 8.65 7.95 5.55 8.7 9.65zM41.95 206.5q.3-.05-.35.85l-1.1 1q-7.6 1.35-16.75.1-4.4-.55-6 .4-2.1 1.25-.9 5.7 2.05 7.7 7.95 18.7.15.25-.5 1.7l-.8 1.2q-2.45-4.45-4.85-10.05-2.95-6.85-4.25-11.85-.8-3.3.45-5.4 1.95-3.4 8.85-2.35 10.85 1.6 18.25 0m-20.7 85.95q-2.55 4.9-3.55 7.3-1.6 3.9-1.7 6.7-.15 3.5 1.4 8.2 1.45 4.35 2.65 5.3 3.05 2.35 9.8 4.15 6.9 1.8 12.55 1.65l9.85-.7q4.35-.55 8.25-1.95 2.9-1.05 4.9-4.05 1.95-2.85 2.05-5.65.05-1.5-.95-3.65l-2.5-4.3q-2.55-3.95-3.8-6.7-.5-1.1-.85-4.8l-.3-5.15 1-.25 1 .05q-.3 1.75.15 5.25.4 3.15.9 4.3l1.95 3.55 2.05 3.3q1.95 3 2.7 4.6 1.1 2.35 1.05 4.2-.15 3.4-2.45 6.65-2.5 3.55-6.05 4.6-10.15 3.1-18.8 3.25-5.15.1-12.05-1.6-8.1-1.95-12.15-5.1-1.55-1.15-3.2-5.9-1.8-5.05-1.65-8.75.1-2.95 2.1-7.45l4.05-8q3.1-6 4.65-11.25 2-6.7 1.2-11.2l1.15 1.2q1.2 1.6 1.25 2.4.1 4.2-2.05 9.95-1.45 3.8-4.6 9.85"/><path fill="#0d131a" d="M37.2 326.85q-2.15-1.1-3.65-3-1.25-1.5-2.5-4.25-1.45-3.1 3.15-12.5 1.15-2.35 1.5-1.55.4.8-.65 3.35-3.1 7.15-1.8 10.05 1.65 3.65 4.05 5.45 2.2 1.65 5.45 2.1zm16.2-19.55q3.1 5.8 3.45 11.15.1 1.65-.45 3.55-.65 2.05-1.8 3.3l-4.45.95q2.35-1.25 3.65-3.55 1.15-2.1 1.05-4-.25-3.45-1.65-7.35l-2.05-4.8q-1.15-2.6-.3-2.5.9.1 2.55 3.25m122.25-158.1-.5.9-.7.75q-3.6-5.6-9.25-12.5-7.95-9.65-13.5-13.3-.3-.15.75-.6l1.15-.3q4.65 2.95 12 11.7 5.9 7.05 10.05 13.35"/><path fill="#0d131a" d="M179.75 144.85q-.05.35.3.75l.45.85-3.35 2.9-4.65 4.3q-1.85 2-2.5 1.9t.55-1.85q2.45-3.5 9.2-8.85m19.7 14.15q-.05-.45.6-.7l.95-.35q1.35 1.45 4.35 2.35 3.5 1.1 6.9.45l-.45 1.15-.9.65q-3.45.5-7.2-.9-3.2-1.2-4.25-2.65"/><path fill="#0d131a" d="M215.3 143.85q-.65-5.1-3.3-8.9-4.75-6.75-10.3-10.8-5.4-4-10.35-4.55-4.85-.6-11.05 2.9-6.05 3.4-7.5 7.15-.9 2.2.55 4.95 1.35 2.65 2.6 2.1.2.15 0 .7l-.5 1.6q-2.25-.9-3.7-3.85-1.65-3.4-.4-6.6 1.4-3.55 7.85-7.2 6.3-3.6 10.8-3.55 5.9.05 12.65 4.85 6.35 4.5 11.3 11.55 2.7 3.8 3.35 9.05.6 4.7-.5 9.6-2.6 11.25-18.55 25.15-12.6 10.95-22.3 15.35l-.7-2.1q14.75-7.5 26.65-19.5 10.85-11 12.85-18.75 1.15-4.5.55-9.15"/><path fill="#0d131a" d="m180.5 145.3.65.8q.25.3.75.25-2.45 6.1 4.4 14.45 7.25 8.8 17.3 9.35l-1.3 1.7q-12.4-1.55-18.75-11.25-5.55-8.45-3.05-15.3"/><path fill="#0d131a" d="M177.1 137.3q-.6 2.35 2.05 6 2.85 3.95 6.4 4.35.3.05.25.85-.1.8-.4.8-4.05-.15-7.7-4.85-3.4-4.35-2.8-7.05.55-2.2 4.4-5.4 3.6-3 8.85-5.9 2.8-1.55 4.45-1.65 1.7-.15-1.1 1.4-4.9 2.8-8.7 5.55-5.15 3.8-5.7 5.9"/><path fill="#0d131a" d="M197.85 136.7q2.35-1.3 2.9-.9.55.45-1.75 1.8-4.65 2.7-8.7 6.3-3.95 3.6-3.9 4.95.15 3.5 3 7.1 2.9 3.65 6 4 .85.1 5.7-2.8 4.1-2.4 6.1-3.9 3.85-2.75 4.05-2.35t-2.55 3q-1.7 1.65-6.2 4.55-5.45 3.5-7.55 3.45-3.25-.05-6.8-4.35-3.55-4.35-3.7-8.45-.05-2 4.35-5.95 4-3.55 9.05-6.45M89.2 119.95q-1.7.35-2.65 2.1-.8 1.4-1 3.3t.3 3.75q1 3.55 3.5 5.8t4.9 1.65q1.7-.4 2.5-1.85 1.7-2.9.25-8.3-1.05-3.8-3.4-5.5-2.05-1.5-4.4-.95m-3.95 1.3q1.35-2.25 3.6-2.8 2.85-.7 5.45 1.1 2.95 2 4.15 6.45 1.25 4.6.65 7.7-.7 3.8-4.15 4.65-3 .75-6.25-1.95-3.2-2.7-4.35-6.9-.55-2.15-.3-4.35t1.2-3.9m24-32.45-.95-1.55q3.8-1.6 9.1-5.15l7.85-5.65 3.6-2.55q9.1-5.75 16.3-3.25 7.15 2.4 15.7 13.95 1.55 2.05 1.15 2.75t-1.95-1.4Q152 75 144.85 72.8q-6.95-2.15-15.65 3.35l-3.5 2.5q-9.75 7.2-16.45 10.15M76.7 20.75l-1.05 1.6Q55.85 14.3 44.5 10.9q-15.4-4.55-27.3 2.35Q4.25 20.75 2.9 38.4q-.85 10.75-.8 20.2t1 12.7q.45 1.45 1.2 1.65l2.95-.5q10-2.8 24.05-4.9 14.4-2.1 26-2.35l-.15 1.9q-11.3.2-25.35 2.35-14.05 2.2-24.2 5.35l-4.4.35q-1.4-.6-2.05-3.2Q.05 67.4 0 57.2q-.05-9.2.7-19.3 1.5-19.55 15.5-27.2 12.5-6.9 29.15-1.95 11.85 3.55 31.35 12m8.85 5.7-.05-1.85 12 5.5q2.25 1.1 2 1.65t-2.55-.4z"/><path fill="#0d131a" d="M34.95 33.75q-7-13.8-12.15-18.3-1.15-1-.9-1.35.25-.3 1.5.55 5.85 3.85 12.85 17.3Q41 41.1 45.05 52.1l10.15-.8 12.75-.65-.15 1.95-13.25.8-10.25.85q-.4.1-.5-.3-3.55-9.7-8.85-20.2"/><path fill="#0d131a" d="M84.5 11.25q2.35.75 1.85 10.7-.8 16.3 7 37.2 7.85 21.1 18.9 32 1.25 1.2.85 1.55-.35.4-1.65-.75-11.5-10.3-19.8-32.1-8.1-21.35-7.25-38 .4-7.85-.55-8.25-.95-.35-5.4 6.1-8.7 12.7-9.95 35.6-1.2 22.45 5.4 40.9.7 1.95.1 2.2-.55.2-1.3-1.75-7.15-18.2-5.9-41.75 1.25-23.65 10.15-36.65 5.3-7.75 7.55-7m89.1 12.15q-.2-9.1 2.05-9.6 2.3-.45 6.35 7.8 5.15 10.5 5.8 28.05.7 18.4-3.95 37.15-.5 2.05-1.05 1.9-.6-.15-.15-2.25 4-19.5 3.3-36.8-.7-17.05-5.7-27.15-3.2-6.5-4.05-6.4-.95.1-.75 7.4.35 15.2-4.1 30.15-4.5 15.2-13.4 28.4l-1-1.05q8.5-13.3 12.75-28t3.9-29.6"/><path fill="#0d131a" d="M117.55 79q-5.85 2.05-11.9 5l-1-1.2q4.7-3 12.95-5.75 7.95-2.7 13.25-3.25l-3.45 2.55q-4 .55-9.85 2.65"/><path fill="#0d131a" d="M111.5 84.05q1.2 1 1.7.85.5-.1 1.25-1.85.8-1.9 1.3-4.45l1.9-.75q-.35 2.95-1.75 5.65-1.3 2.45-2.4 2.75-1.05.3-2.8-.95-1.85-1.3-3.1-3.35l1.5-.7q1.1 1.65 2.4 2.8m44-4.6-.85-1q1.1-1.4 2.3-4.05l1.55.4q-1.15 2.5-3 4.65m29.75-70.7q4 5.15 8.15 12.85 3.05 5.6 5.1 10.45.9 2.2.6 3.15-.35 1.2-2.85 1.85l-10.05 2.4-.3-1.9 9.65-2.35q1.35-.3 1.5-.8.15-.4-.45-1.9-1.85-4.45-5-10.1-4.05-7.35-8.05-12.5-5.85-7.5-14.5-7.8-7.3-.25-15.55 4.45-4.2 2.4-8.5 5.5-4.95 3.65-12.1 9.7l-2.05-.65q8.05-6.85 12.7-10.4 5.05-3.85 8.95-6.05 9-5.1 17.05-4.6 9.35.55 15.7 8.7M173.2 40.5l-.15 1.95L160 45.6l-.65-1.65q2.4-.7 13.85-3.45m-60.85 7.65q.35-1.1 1-1.1 1.35 0 1.35 3.25 0 1.55-.4 2.55-.45 1.05-1.2 1.05-.65 0-.95-1.35-.25-1.15-.15-2.45.05-1.1.35-1.95m34.85.15q.45 0 .75.95l.2 1.7-.1 2.1q-.2.7-.7.7-1 0-1.1-2.85-.1-2.6.95-2.6"/><path fill="#fff" d="M113.15 48.1q.55 0 .55 1.25 0 1.4-.65 1.4-.45 0-.45-1.45.15-1.2.55-1.2m34.25 2.05q.05 1-.35 1-.35 0-.4-.95 0-1 .35-1 .4-.05.4.95"/><path fill="#0d131a" d="M168.1 113q2.6-2.8 2.7-1.85.15.95-2.45 3.8-10.55 11.65-25.7 13.7-15 1.95-35.65-5.25l-8.2-2.95q-4.15-1.45-5.55-1.35-4.45.35-8.65 1.5-2.3.6-5.95 1.95-4.8 1.75-5.95 1.85-3.15.4-6.05-1.9-6.9-5.35-12.8-12.7-7.75-9.65-8.8-17.35-1.45-10.7 15-28.1 2.05-2.15 2.5-1.5.4.65-1.55 2.95-7.25 8.55-10.45 14.6-3.4 6.55-2.8 11.6.7 6.05 6.85 14.75 6.05 8.6 13.3 13.95 2.65 2 5.25 1.75 1.35-.1 5.4-1.55 7.25-2.7 14.55-3.35 1.75-.15 5.5.95l8.15 2.7q19 6.6 33.95 5.15 16.8-1.65 27.4-13.35"/><path fill="#cea6cc" d="M117.05 191.2q-4.8-.15-13.4-3.65-9.7-3.9-13.75-8.4-2.95-3.3-4.1-9.5-1.2-6.35.35-11.55 1.15-3.9 5.7-6.95 3.95-2.65 7.05-2.9 2.5-.1 9.2 3.3 2.5-1.35 9.9 1.8 7.3 3.05 7.45 5.1l4.4 1.5q4.55 1.7 5.45 3.75 1.1 2.4.75 7.5-.35 5-1.85 8.8-1.65 4.25-5.75 7.45-5.1 3.9-11.4 3.75"/><path fill="#b390b1" d="M86.35 169.1q6.2 9.3 25.5 11.45 7.85.9 14.3-.05 6.6-.95 8.6-3.4-.55 4.95-4.45 8.9-4.4 4.4-11.05 5-5.75.55-16.95-4.15-11.65-4.9-13.7-9.4-1.25-2.7-1.85-5.8z"/><path fill="#0d131a" d="M106 151.7q1.1-1.75 4.7-1.65 3.3.1 7.2 1.6 3.95 1.55 6.3 3.7 2.65 2.35 2.1 4.5-.8 3.25-2.8 8.2l-3.05 6.65q-1.7 2.9-2.2 2.5-.55-.45.75-3.55l3.4-8.6q2.15-6.05 1.8-6.95-.75-2.1-7.25-4.4-6.4-2.3-8.25-1.3-1.25.7-3.85 6.8-1.7 4-3.5 9.1-1.05 3-1.6 2-.5-.95.35-4.15 2.5-9.3 5.9-14.45"/><path fill="#0d131a" d="M99.05 147.25q1.6-.1 5.25 1.1 4.1 1.35 5.2 2.9l-1.55.75q-1.55-1.05-4.95-2.05-3.05-.95-3.95-.85-2.75.15-6.45 3-4.1 3.2-5.2 6.85-1.5 5.1-.6 10.9.9 5.75 3.65 8.8 3.85 4.2 12.25 7.7 9.5 3.9 19.05 4.1l-1.8 1.45q-11.2-.6-20.1-4.8-6.65-3.15-10.5-7.45-3.2-3.5-4.45-9.65-1.35-6.35.25-11.75 1.25-4.15 6.25-7.7 4.4-3.1 7.65-3.3"/><path fill="#0d131a" d="M74.55 133.2q2.25-1.85 2.05-.65t-2.4 3.1q-12.8 11.15-19.8 20.1-8.4 10.65-7.85 17.35.65 8.25 5.3 14.35 4.9 6.5 14.45 10.95 5.2 2.45 15.75 1.9 9.95-.5 21.1-3.45 11.5-3.05 19.55-7.4 8.85-4.85 10.85-10 1.15-2.95 1.45-8.4.25-5.35-.55-7.1-.5-1.1-4.3-2.8-3.75-1.7-5.3-1.6l-.05-.7q.05-.75.25-.75 2.3 0 6.05 1.7 3.9 1.7 4.95 3.35 1.25 2 1.15 7.5-.1 5.65-1.6 9.45-2.1 5.4-11.25 10.55-8.35 4.65-20.25 7.95-11.65 3.15-22.15 3.75Q70.8 203 65 200.4q-10.95-4.85-16.5-13.85-4.6-7.5-4.1-14.9.6-8.65 10.8-20.25 6.7-7.6 19.35-18.2"/></svg>