<svg xmlns="http://www.w3.org/2000/svg" width="136" height="195" viewBox="-2.95 -0.7 136.45 194.75"><path fill="#f29739" d="M36 190.75q-3.4-.35-6.85-2.55-4.4-2.75-4.05-6.5.5-4.9 5.7-8.4 2.05-1.3 3.1-1.55 5.3-1.5 10.1-2.35 8.7-1.6 10.45.05 1.45 1.3.2 6.35-1.3 5.2-3.95 7.85-4.6 4.6-7.25 5.95-3.15 1.65-7.45 1.15"/><path fill="#d18331" d="M26.35 178.5q4.8-5.6 6-6.65 1.4.75 2.35 1.1l4.65 1 6.95-.2q4.85-.6 7.95-1.9.05 3.1-1.8 7.25-1.7 3.85-3.85 6 0-2.1-2.65-4.3-2.55-2.05-6.3-3.35-9.15-3.05-13.3 1.05"/><path fill="#0d131a" d="M34 171.95q.95.3.3.55-3.8 1.5-5.95 5.1-1.55 2.6-1.95 5.6-.35 2.55 3.9 4.85 3.95 2.15 7.15 1.95 6.5-.4 11.65-6.45 4.75-5.55 4.6-10.75-.05-.75 1-1.15 1-.4.95.65-.25 8.95-7.8 14.7-5.75 4.35-10.9 4.65-3.5.15-7.55-2-4.5-2.4-4.85-5.65-.3-2.85 1.6-6.4 2.25-4.15 6.1-5.65.8-.3 1.75 0"/><path fill="#0d131a" d="M24.4 180.55q2.55-.8 4.25 2.25 1.65 3.05.05 5.45-.8 1.15-5.5 1.55-4.8.45-5.2-1-.5-1.6 1.55-4.45 2.2-3 4.85-3.8"/><path fill="#fff" d="M24.35 182.2q2-1 3.2 1.35 1.15 2.25.1 3.9-.35.55-4.05.9l-3.9-.1q-.6-1 1.05-3.05 1.6-2.05 3.6-3"/><path fill="#0d131a" d="m37.5 193.85-5.1.2q-1.05-.95.2-4.9 1.4-4.45 5.05-5.3 2.35-.55 4.55 2.05 2.3 2.7.75 5-1.2 1.75-5.45 2.95"/><path fill="#fff" d="M36.85 192.65q-2.75.7-3.25.05-.8-1 .6-3.9 1.5-3.1 3.85-3.6 1.6-.35 3.1 1.75 1.55 2.2.1 3.5-1.5 1.45-4.4 2.2"/><path fill="#f29739" d="M54.15 172.95q4.55-1.85 10.8-1.4 3.15.25 5.35.85 1.6 3.55 6.65 3.4 2.5-.05 4.7-.85l-2.95 2.95q-4.4 2.95-11.35 2.95-7 0-10.8-3.95-1.2-1.25-1.9-2.7z"/><path fill="#d18331" d="M55.05 174.35q3.4 1.85 9.2 2.3 6.1.5 11.05-.9 3.25.6 5.65-.55l1.65-1.2-2.35 2.85q-3.9 3.15-11.3 4.1-4.4.55-9.25-2.3-4.2-2.5-4.65-4.3"/><path fill="#0d131a" d="M53.85 173.25q-.1-.25.4-.55l.65-.05q1.45 3.15 4.55 5.05 3.05 1.9 7.2 2.25 4.85.4 9.2-1.4 4.4-1.75 6.5-4.9l.55.05q.3.35.2.6-1.85 3.45-6.6 5.55-4.8 2.1-10 1.75-4.55-.4-7.95-2.6-3.45-2.3-4.7-5.75"/><path fill="#f29739" d="M47.25 26.3q-2.05 10-9.75 13.35-12.4 5.45-20.25 3.5-4.3-1.05-11-6.7Q.95 31.9 1 23.05q.05-9.8 7.75-16.25Q17.25-.4 28.3 1q10.9 1.4 16.9 10.2 4 5.85 2.05 15.1"/><path fill="#f29739" d="M98.35 62.65q3 8.3 3.3 17.6.3 7.5-1.1 13.35-2.05 8.7-9.25 15.15-5.75 5.15-12.55 7.2-2.65.8-.05 5.6 1.4 2.65 4.3 6.95 3.75 7.4 5.6 14.3 2.35 8.85.8 14.75-2.75 10.4-8.9 13.25-5.4 2.5-18.65.95-1.65-.2-9.05 1.7-7.35 1.8-12.9 1.2-12.25-1.4-19.65-14.3Q12.6 147.1 16.3 132l2.9-9.6q2.35-7.2 3.45-10.05.45-1.1-1-3.3-1.2-1.8-2.8-3.2Q10.1 98 6 84.9q-4.35-14.1.1-25Q15.4 37.25 37.25 32q14.55-3.5 28.65.8 24.35 7.5 32.45 29.85"/><path fill="#f29739" d="M110.45 34.9q8.7.55 15.5 8.8 7.55 9.2 5.25 20.85-2.55 12.8-13 16.15-8.4 2.7-15.6-1.1-3-1.6-7.05-7.25-4.6-6.45-6.35-12.8-2.8-10.15.85-16.8 4.85-8.85 20.4-7.85"/><path fill="#d18331" d="M78.8 116.25Q68.25 119.7 58.7 120q-9.75.35-20.7-2.55 5.1 1.05 13.9-.2 11.15-1.6 19.25-6.35 9.85.1 18.5-5.3 8.6-5.35 11.1-12.95-1.05 6.55-7.1 13.45-6.55 7.45-14.85 10.15M36.7 174q-4.2-1.35-5.6-3 6.5 2.3 14.4.75l14.6-3.25q2-.25 8.6-.2 5 0 7.85-1.1 5.65-2.2 9.8-7.3 3.6-4.4 3.45-7.15-.15-2.5.35-2.15.55.35.5 1.7-.6 8.45-4.2 13.45-2.35 3.25-6.55 5.45-3.6 1.85-10.2 1.2l-9.45-.55-7.1 1.6-9.2 1.65q-3 .25-7.25-1.1M97.25 74q2.7 3.55 9.7 4.6 6.45.9 10.65-.85 8.95-3.75 11.05-14.45 1.8-9.15-1.7-16.95 6.1 10.55 3.15 20.85-2.65 9.05-9.8 12.35-7.9 3.7-15.55.4-5.7-2.5-7.5-5.95M42.1 25.75q5.05-5.8 4.65-12 .9.75.9 7 0 6.65-1.6 8.9-.3.5-5.9 1.35-5.9.9-6.9 1.45l-2.1.75q-.8-.05 1.05-.65 5.45-1.7 9.9-6.8"/><path fill="#0d131a" d="M16.85 128.75q.55-1.3.9-1.25.4.1-.05 1.7-3.65 13.15.9 25.15Q23 166 32.75 171.05q5.6 2.9 10.3 3.05 4.45.15 12.45-2.05l13.45-.45q6.5.9 11.55-1.8 9.35-5.05 8.5-19.55-.3-5.6-2.15-11.15-1.75-5.1-3.9-7.8-1.4-1.75-.85-2.4t2 1.45q8.1 11.45 6.3 24.95-.75 5.65-3.2 9.95-2.35 4.25-5.6 5.9-6.15 3.1-13.55 1.95-8.2-1.3-11.95-.05-8.55 2.95-14.65 2.45-4.45-.35-9.5-2.95-11.8-6-16-19.5-4.05-12.8.9-24.3m84.45-49.5q-.05-1.1.75-1.05.85 0 .9 1.05 1 15.65-7.75 26.6-9.2 11.6-25.45 12.3-1.45.1-1.4-.5 0-.55 1.35-.65 13.15-.55 22.65-11.6 9.75-11.3 8.95-26.15m-11.9-34-.5 1.85Q78.65 36.8 64.8 33q-17.85-4.9-34.35 2.3Q13.5 42.7 7.6 58.95q-4.1 11.2-.45 24.9 4.15 15.4 16.6 25.45l3.95 3.5q.05.3-3.55-1.95-12-7.6-17.85-22.15Q0 73 5.3 58.4q6.2-16.95 23.75-24.8t36.55-2.2q13.25 3.95 23.8 13.85"/><path fill="#ffe792" d="M10.9 78.1q3.65-8 14.15-8.95 9.7-.9 23.9 4.3 14 5.15 21.4 14.75 7.9 10.15 3.7 19.8-4.1 9.35-15.45 10.7-8.65 1.1-22.25-2.5-3.85-1-9.1-4.2-6-3.65-10.45-8.35Q4.95 91 10.9 78.1"/><path fill="#0d131a" d="M9.75 86.75q1 16 22.3 26.8 9.05 4.6 21.25 4.3 13.9-.35 18.8-7.9 3.75-5.85 1.9-13.05-1.55-5.9-5.75-10-1.3-1.2-1.25-2.05.1-.9 2.5 1.35 4.8 4.5 6.3 10.8 1.65 7.15-2 13.55-4.55 7.95-17.95 9.05-12.7 1-24.3-4.4-8.65-4-15.3-11.2-8.1-8.65-8.15-17.45-.1-7.4 4.1-12.3Q16.6 69.2 23.8 69q1.6-.05 1.25.75-.3.75-1.35.75-6.75.15-10.8 5.7-3.55 4.9-3.15 10.55"/><path fill="#fffac6" d="M68.5 45.1q-4.2-2.5-7.9-2.2-6 .45-9.6 3.5-3.65 3.1-4.7 8.65-1.1 5.85 3 10.7 3.85 4.55 10 5.8 7 1.45 11.3-2.7 1-.95 1.5-.5.5.4.1 1.5-2.4 6.3-8.8 9.05-6.25 2.7-14 1.15Q39.4 78 33.6 70q-5.8-8.1-4-17.8 1.85-9.85 10.45-15.6t18.5-3.6Q73.7 36.3 77.3 49.95q.55 2.15-.3 2.65-.85.45-2.1-1.4-2.3-3.65-6.4-6.1"/><path fill="#0d131a" d="M58.95 33.9q-9.65-2-18.15 3.6-8.45 5.55-10.25 14.9-1.85 9.25 3.8 17.15 5.6 7.9 15.35 9.8 7.55 1.45 13.65-1.2 6.1-2.7 8.5-8.7.2-.55-.05-.65-.3-.1-.95.4-2.6 2.2-5.25 2.9l-6.35.25q-6.85-.85-11-6.15t-2.9-11.75q1.3-6.65 6.6-9.9 5.45-3.4 12.9-1.65 2.65.65 5.45 2.75 2.9 2.15 4.7 4.9 1.2 1.75 1.7 1.65.5-.15-.05-2.15-3.5-13.1-17.7-16.15m9.55 11.95q-3.55-2.25-8.65-2.1Q49.4 43.95 47.2 55q-1.1 5.6 2.55 10.2 3.55 4.5 9.7 5.7l6.25-.15q3.15-.85 5.2-3 .75-.85 1.6 0t.2 2.4Q69.85 77 63.35 79.8q-6.25 2.65-14.3 1-10.55-2.2-16.55-11-5.7-8.35-4-17.3 1.95-10.15 10.9-16.2 9.05-6.1 19.55-4.05 8.55 1.7 13.6 7.05 4.6 4.9 5.6 12.15.25 1.6-.85 2.2t-2.1-.8q-3.6-5.05-6.7-7"/><path fill="#0d131a" d="M72.05 85.4q-1.1 2.9-3.9 4.15l-5.7.2q-2.9-1.1-4.2-3.9t-.2-5.75q1.15-2.9 3.95-4.15l5.7-.2q2.9 1.15 4.15 3.95 1.3 2.8.2 5.7m-34.4-9.05q.65-1.75 3.1-2 2.25-.25 4.45.75 3.05 1.45 4.2 3.5.95 1.75.25 3.05-.8 1.45-3.3 1.6-2.25.1-4.15-.8-2.8-1.35-4-3.25-1-1.6-.55-2.85"/><path fill="#515457" d="M38.8 76.75q.3-1.05 1.9-1.25 1.85-.25 4.35 1 4.5 2.3 3.55 4.55-.45 1-2.25 1.05-1.8 0-3.8-.9-2-.95-3.05-2.15-1.05-1.25-.7-2.3"/><path fill="#fff" d="M69.15 81.4q-.5 1.25-1.7 1.8l-2.45.05q-1.25-.45-1.75-1.65-.55-1.2-.1-2.45.5-1.25 1.7-1.8l2.4-.1q1.25.5 1.8 1.7t.1 2.45"/><path fill="#0d131a" d="M37.85 94.6q2.3.95 3.9 1.25-1.1.65-1.85 2.4l-1.1 3.45q-.55 2-2.3 2.85l-3.9.25q-3.55-.95-2.9-5.5.65-4.65 5.15-6.4.65.7 3 1.7"/><path fill="#ed8599" d="M40.05 96.05q-.85.45-1.45 1.8l-.85 2.7q-.45 1.6-1.75 2.3-1.3.75-3 .3-2.6-.7-1.8-4.35.85-3.7 4.2-5.05 1.9 1.55 4.65 2.3"/><path fill="#0d131a" d="M33.95 70.6Q32.8 73.55 30 74.85l-5.8.15q-2.9-1.1-4.2-3.95-1.3-2.8-.2-5.75 1.15-2.95 4-4.25l5.75-.15q2.9 1.1 4.2 3.95 1.3 2.8.2 5.75"/><path fill="#fff" d="M31.15 66.7q-.5 1.25-1.65 1.75l-2.45.1q-1.25-.45-1.75-1.65-.55-1.2-.1-2.45.5-1.2 1.7-1.75l2.4-.05q1.25.45 1.75 1.65.55 1.15.1 2.4m11.7 10.5-.5.35-.65-.05-.45-.5v-.6q.25-.5 1-.25.85.45.6 1.05"/><path fill="#0d131a" d="M37.6 93.8q3.1 1.6 6.2 1.6 1.65 0 1.5.6-.1.65-1.5.6-8.6-.05-11.45-6-.75-1.45-.15-1.8.55-.35 1.15.95 1.1 2.35 4.25 4.05"/><path fill="#515457" d="M64.95 88.05q-.2.5-.85.65l-1.4-.15-1.15-.8q-.4-.5-.2-1t.85-.65l1.35.1q.75.25 1.15.8.45.55.25 1.05M27.05 73.5l-.85.65-1.35-.15q-.75-.25-1.15-.8-.4-.5-.2-1 .15-.5.8-.65l1.4.1 1.15.8q.4.55.2 1.05"/><path fill="#0d131a" d="M120.9 38.05q6 3.9 9.1 10.3 3 6.25 2.6 13.4-.4 7.4-4.6 12.8-3.85 4.95-9.8 6.95-5.9 1.95-11.7.35-6.15-1.65-10.15-6.9-1-1.3-1-2.5 0-1.25 1.25.3 4.55 5.6 10.55 7.3 5.55 1.55 10.95-.55 5.3-2.1 8.6-7 3.55-5.25 3.7-12.1.1-5.05-1.85-10-2.65-6.55-8.2-10.6-4.65-3.35-10.5-4.1-5.5-.65-10.55 1.15t-7.95 5.45q-3.05 3.9-2.65 8.9.1 1.35-.55 1.4-.65.1-.9-1.8-.6-4.45 2.15-8.65 2.75-4.05 7.7-6.35 11.75-5.5 23.8 2.25"/><path fill="#0d131a" d="m118.05 58.1-.5.05.2.55q1.35 1.55 1.85 3.3 1.05 3.7-1.05 7.05-1.65 2.55-4.4 4.05-3.8 2.1-7.5 1.45-3.55-.6-5.9-3.4-3.25-3.9-.5-9.15 2.65-5.1 8.15-6.7 4.25-1.25 8.45.35 4.05 1.6 5.4 4.85.2.55-.15.8-.4.25-.8-.4-1.3-1.95-3.25-2.8M41.3 8.05Q33.2-.15 21.8 1.9q-4.55.8-8.55 3.2Q9 7.65 6.05 11.55-1 20.85 3.8 30.85 8.15 40 17.4 42.15q.4.1.2.85-.25.75-.7.65Q6.05 41.25 1.65 30.9q-4.6-10.7 2.6-20.15Q10.5 2.5 21.3.45 27.35-.7 33.1 1q5.7 1.65 9.75 5.55 9.15 9 4.55 22.7-.25.8-1.1.85-.9 0-.65-.75 4.2-12.6-4.35-21.3"/><path fill="#0d131a" d="m14.1 17-3.05.1q-.8.2-1-.3-.2-.45.4-.75 2.7-1.6 6.15-.85 4.3.95 7.1 5.55 2.85 4.65 1.6 9.85-1.3 5.4-6 6.2-3.35.6-6.25-1.15Q10 33.8 8.55 30q-1-2.75-.6-5.6.55-3.65 3.55-5.6 1-.7 2.95-1.2l.1-.3z"/><path fill="#f29739" d="M71.75 148.1q2.55-2.7 5.35-3.75 2.65-.95 6.8-.7 4 .25 6 1.35 2.8 1.5 4.65 3.75 1.9 2.25 2.1 4.45.7 8.65-12.65 19.7-3.55 2.95-7.75 3.7-4.95.85-8.25-2.15-3.05-2.8-3.05-8.8 0-5.55 2.4-10.8 1.75-3.95 4.4-6.75"/><path fill="#d18331" d="M77.45 176.15q-3.05.65-6.15-.5-2.95-1.05-3.5-2.75-1.75-5.5 3.15-14.1 5.2-9.15 12.5-10.3 2.95-.45 8.2 2.2 5.35 2.7 5.05 4.8-.65 5.5-8.05 12.85-6.85 6.85-11.2 7.8"/><path fill="#0d131a" d="M79.05 145q-1.4.15-2.05.6-4.4 2.95-7.3 7.6-2.5 4-3.35 8.35-1.45 7.9 2.25 11.7 3.1 3.2 7.95 2.35 5.7-1 12.75-9.05t6.35-12.8q-.45-3.4-3.4-6-2.95-2.55-6.85-3.05-2.1-.25-1.85-.65.2-.3 1.65-.6 3.65-.55 7.8 2.5 4.3 3.2 4.7 7.25.6 5.75-6.45 13.9-6.85 8-13.2 9.7-5.95 1.6-10-1.95-4.75-4.1-3.6-13.25.6-4.6 3.45-9.25 3.3-5.5 8.05-7.9 3.7-1.9 5.9-.95.5.15.55.65.05.55-.65.6z"/><path fill="#0d131a" d="M87.7 147.8q-1.25 1.8-5 1.15t-4.45-2.75q-.75-2.35 2.85-6.45 3.45-4 4.75-3.5 1.45.5 2.15 5.3.75 4.75-.3 6.25m13 .65q-1 4.2-2.8 5.65t-4.85-1.1q-3.1-2.55-2.25-5.2.5-1.6 5-3.25 4.4-1.65 5.1-.9.8.8-.2 4.8"/><path fill="#fff" d="M92.3 148.15q.6-1.2 3.85-2.3 3.05-1.1 3.55-.6.5.55-.6 3.8-1.2 3.4-2.3 3.9-1.35.65-3.35-1.15-2.05-1.9-1.15-3.65m-7-10.25q.95.15 1.4 4 .4 3.75-.3 5-.9 1.65-4.1.75-3.25-.9-2.4-3.25.5-1.55 2.65-4.1 2.05-2.5 2.75-2.4"/><path fill="#0d131a" d="M74.7 171.9q-2-1.3-2.4-4.5-.4-3.6 2.1-6.75 2.25-2.8 5.65-3.5 3.6-.7 6.3 1.45 2.15 1.75 1.9 5.05-.2 3.5-3.2 6.15-2.75 2.5-5.8 2.95-2.65.4-4.55-.85"/><path fill="#dcd8ac" d="M75.85 170.9q-1.7-1.15-1.9-3.55-.25-2.75 1.9-5.4 1.75-2.2 4.4-2.95 2.85-.8 4.9.75 1.75 1.25 1.65 3.9-.1 2.55-1.9 4.45-2.4 2.45-5.05 3.2-2.45.65-4-.4"/><path fill="#f29739" d="M70.8 134.7q-1.65-1.4-.95-5 .7-3.4.5-3.5-4.9-2-8-6.3-3.45-4.75-3.15-10.35.2-3.75 3.15-6.3 3.7-3.15 9.85-1.75 4.3 1 8.65 4.95 4.6 4.2 6.1 9.15 1.45 4.7.8 9-.65 4.15-3 6.55-2.65 2.75-6.3 4.15-4.7 1.85-7.65-.6"/><path fill="#fff" d="M54.6 103.8q.4-.7 3.6-.5 3.25.2 2.85.6-.7.7-1.55 2.9-1.1 2.85-.75 5.1-.6-.25-2.5-3.8-2-3.6-1.65-4.3m8.95-7.65q.55-.1 2.65 2.1 2.05 2.15 2 2.75l-3.05.75q-2.2.8-3.1 1.75-.2-.45.4-3.8.65-3.4 1.1-3.55M73.8 98.9l1 3.1q-.65-.4-2.65-.8l-2.95-.3q.1-1 1.4-2.95 1.25-1.85 1.6-1.9.45-.05 1.6 2.85"/><path fill="#d18331" d="M78.85 135.1q-4.5.4-11.45-7.25-7-7.7-7.55-13.95 2.15 3.55 6.6 7.1 5.8 4.55 11.8 5.4 4.2.5 6.45-1.9 2.45-2.7 1.75-8.4 1.9 5.05 1.35 9.2-.4 3.05-1.8 4.55l-3.3 3.35q-2.1 1.75-3.85 1.9"/><path fill="#0d131a" d="M76.25 102.2q7.35 4.1 11.05 11.85 2.6 5.5 1.3 11.5-1.65 7.6-9.65 10.25l-1.55-.1q-.1-.6 1-1.05 6-2.3 7.95-7.6 1.9-5.3-.8-12.05-1.65-4.1-5.2-7.45-2.5-2.4-5.5-4-6.7-3.6-11.45-.05-4.05 3.1-3.6 7.45.7 6.05 4.1 9.8 2.4 2.6 7.65 5.25 1.7.85 1.6 1.35l-2.3-.05q-4.05-1-7.75-4.8-4.75-4.85-5.05-11.45-.35-6.6 6-9.45 6.15-2.75 12.2.6"/><path fill="#0d131a" d="M72.25 95.45q1.15.2 3.7 7.05l-1-.15-1.05-.85-1-3q-.5-1.25-.75-1.25-.3-.05-1.1 1.15-.8 1.3-1.1 2.45-.1.25-.9.3-.85.1-.8-.3.15-.8 1.65-3.05 1.6-2.45 2.35-2.35"/><path fill="#0d131a" d="M65.95 97.2q1.8 1.8 3.1 3.85.15.25-.6.45-.75.15-.95-.2l-2.2-2.85-1.4-1.35q-.3.1-.65 1.75-.35 1.85-.35 3.85 0 .5-.65 1.05-.65.6-1-.3-.3-1 .7-4.4 1-3.35 1.6-3.45t2.4 1.6"/><path fill="#0d131a" d="M61.65 104.5q-.7.65-1.4.3-1.6-.7-3.2-.8l-1.55.2q-.15.3.95 2.6 1.1 2.35 1.95 3.45.4.55.5 1.65.15 1.2-.45.85-1.4-.9-3.15-5-1.65-3.85-1.35-4.5.3-.55 3.4-.5 3.15.05 4.35.75.6.35-.05 1"/><path fill="#fff" d="M17.3 87.05q.75-.1 2.5 2.25t1.05 2.2l-2.8.2q-1.75.4-2.75 1.15-.25.2.55-2.8.8-2.9 1.45-3m4.6 4.75q.75-1.45 3.35-2.95 2.45-1.4 2.9-1 .55.4.55 3.05 0 2.95-1 4.4-.8-1.15-2.9-2.25-1.7-.95-2.9-1.25m7 5.2 2.95.05q3.2.4 3.4.85t-2.15 3.35q-2.4 2.95-2.35 2.3.05-1.25-.7-3.65z"/><path fill="#f29739" d="M14.2 93.4q3.85-2.6 7-1.95 9.4 2.1 9.7 13.5.25 8.65-3.1 14.4-.5.95-.55 2.65 0 1.45.3 2.75.4 1.8-.45 3.85-1.05 2.5-3.5 4.05l-8.75.25Q9 131.3 6.95 128q-3.45-5.45-3.7-9.8-.35-4.9 2.7-13.1 3-8.15 8.25-11.7"/><path fill="#d18331" d="M29.85 101.7q1.4 1.35-.25 10.8-1.7 9.95-4.85 15.25-2.2 3.2-3.55 4.45-2.1 1.9-4.45 1.75-2.75-.2-7.5-4.5-5.1-4.7-4.7-8.15 4.3 6.2 9.25 6.25 2.45.05 4.75-1.5 5.05-3.35 8.3-11.65 2.65-6.75 3-12.7"/><path fill="#0d131a" d="M26.05 93.15q4.15 3.05 5.15 7.45 1.65 7.5-.55 14.3-1.9 5.8-5.85 9.45-1.8 1.6-2.25 1.05-.4-.55 1.2-2.1 3.9-3.75 5.5-10.5 1.6-6.65.05-12-1.25-4.4-4.35-6.65-3.7-2.65-8.65-.65-4.1 1.6-7.3 7.8-3 5.7-4 12.85-.9 6.05 1.7 11.3 2.95 5.95 9.05 7.25 1.75.35 1.85 1 .1.6-1.7.35-8.4-1.2-11.45-8.95-2.25-5.7-1.2-12.4 1.2-7.45 4.45-13.15 3.05-5.35 6.6-7.1 6.45-3.1 11.75.7"/><path fill="#0d131a" d="M18.75 88.9q-.95-1.25-1.35-1.2-.45.05-.9 1.7-.4 1.6-.4 3.15 0 .4-.75.55-.75.1-.8-.35-.1-1.35.8-3.85.95-2.6 1.85-2.65t2.45 1.8q1.45 1.8 1.85 3.25.15.6-.5.7t-.9-.7q-.4-1.15-1.35-2.4"/><path fill="#0d131a" d="M27.85 88.45q-.4-.3-2.15.7-1.85 1.1-3.35 2.7-.35.4-1.05.3t-.35-.7q1-1.65 3.65-3.15 2.7-1.55 3.85-1.1 1.05.4.8 4.4-.25 3.8-1 4.7-.35.45-.85-.3-.55-.8-.2-1.45.65-1.15.9-3.5.25-2.3-.25-2.6"/><path fill="#0d131a" d="M35.95 97.55q.25.7-1.8 4.1-2 3.2-2.55 3.5-.5.3-.65-.75-.2-1.05.4-1.55l2-2.45q1.25-1.9 1.15-2.15-.2-.35-1.95-.7l-3.1-.25q-.65 0-1.25-.8-.65-.75.3-.8l3.9.55q3.3.65 3.55 1.3"/></svg>