<svg xmlns="http://www.w3.org/2000/svg" width="246" height="267" viewBox="-1.75 0.15 245.9 266.75"><path fill="#e50044" d="m79.25 138.5-5.15-6.65q-1.75-2.3-2.1-8.15-.3-4.25.15-7.25.5-3.15 2.85-4.1l7.3.2q2.5.65 11.45 6.35 10.1 5.35 20.15 4.95l5.65-.8q-.45 2.25-1.95 4.45-2.7 3.9-8.95 7.1-7.7 3.95-9.6 5.6-.5 2.9 0 5.85t1.8 4.85q-4.6 6-4.6 7.05 0 1.2 2.05 8.1 2.2 7.35 3.2 8l10.05.65-2.05 5.6q-1.4 4.05-1.2 4.65.35 1.1 5.9 5.1 4.95 3.65 7.45 5l-1.9 1.35q-.65.3 1.2 4.4 1.8 4 2.75 4.9.75.8 7.65 2.7 6.7 1.85 7.45 1.7.65-.1 2.75-2.25 2.15-2.1 3.2-3.7l.5-1.5 2.45-1.2.5 5.15.35 5.7q0 .45 10.75-15.1.2-.35.05 3.45l-.25 4 1.45-1.55 1.6-2.05q.1-.25.65 1.55l.55 1.85 2.4-2.85 1.55 2.85.6-3.1 1.85-.55q-1 1.25-.85 1.55.15.65 1.75 2.25l1.8 1.55q8.4.45 9.05-.05l3.15-3.35 3.9-5.15q.1 1.75.8 4.85.05.7 4.45 2.65 3.4 1.55 5.7 2.3.8.3 3-1.05t2.4-2.25q.4-1.5.6-4.65l1.45 1.05 1.5 1.05 3.9 1.35 8.35 1.75 7.65 1.45q6.25 1.4 9.25 3.7 4.2 3.2 4.4 9.35.25 5.85-6.4 10.05-3.35 2.1-12 5.2-3 1.05-8.6 6.65-5.3 5.25-10.55 6.55-7.05 1.75-14.85.65l-13-1.45q-5 .1-10.2 3.4-6.1 3.9-11.5 4.95-6.65 1.3-15.4-.7l-15.55-3.4q-3.75-.45-8.85 1.7l-10.05 5.1q-14.9 7.65-27.95 7.2-11.6-.4-18.55-4.65-2.15-1.3-5.95-4.35l-6.65-5q-5.9-3.9-17.4-2.2l-8.85 1.35-7.85-.25q-4.1-1.1-6.7-3-4.35-3.25-3.5-8.9.75-5.05 4.8-8.8l2.95-2.4q-.9-5 4.85-8.3 5.45-3.15 8.5-1.05 22.7-16.65 27-31.7 2.4-8.4.65-17.55Q48.8 160 44 151.7q2.8 1.6 6 1.25 3.05-.35 5.85-2.4.55 6.05 4 9.4 3.7 3.6 10.3 3.55 6.4-.05 9.85-4.5t2.9-11.95q-.25-3.6-3.65-8.55"/><path fill="#e50044" d="M86.7 61.25q8.6 1.05 16.25 3.25 16.05 4.7 25.7 14.65 2.9 3 5.05 6.2 5.05 7.55 5.15 15.15 0 8.15-5.75 14.5-5.4 5.95-13.55 8.05l-5.65.8q-10.05.4-20.15-4.95-8.95-5.7-11.45-6.35l-7.3-.2q-2.35.95-2.85 4.1-.45 3-.15 7.25.35 5.85 2.1 8.15l5.2 6.75q3.55 5.2 3.8 8.65.5 7.5-3 11.85t-9.95 4.4q-6.6.05-10.3-3.55-3.45-3.35-4-9.4-1.2.85-3.15 1.7-2.25.95-3.45 1-2.65.15-4.95-2.25l-3.05-3.85q-1.6 1.75-3.8 1.45-2.05-.3-3.45-2.05-.9-1.1-1.4-3.2l-.85-3.5q-1.25-3.75-5.6-5.65-5.4-2.45-7.7-4.55-3.8-3.5-4.1-9.25-.3-6.05 4.2-18.5 4.45-12.25 4.3-14.05-2.45-16.25-2.8-24.75-.65-15.2 5.6-21.8 6-6.3 15.4-5.95 7.8.25 11.65 3.7 4.4 1.4 8.55 5.1l.05-.05q-.25-1.95-.25-4.1.05-2.55.45-4.1 1.85-6.75 9.35-8 6.95-1.2 12.85 2.8-3.95-1.2-6.75 1-4.65 3.75-.9 14.15Q79.7 55.9 86.7 61.25"/><path fill="#2f8097" d="m226.35 143.95 5.35-3.8 1.1 1.9q1.1 1.95 1.2 2.8.1 1.05-1.75 7.5-1.8 6.25-2.75 8.4-.5 1.15-2.9 2.4-2.55 1.3-3.4.55-4.45-3.8-4.45-4.95 0-.95.7-5.25.7-4.55 1.05-4.95.45-.65 5.85-4.6"/><path fill="#fff362" d="M84.15 30.55q4 1.2 8.05 5.2 9.25 9.1 10.75 22.45.4 3.15 0 6.3-7.65-2.2-16.25-3.25-7-5.35-10.65-15.4-3.75-10.4.9-14.15 2.95-2.35 7.2-1.15"/><path fill="#2f8097" d="M131.45 134.8q1-.25 5.65 2.15 4.65 2.35 4.75 3l-.3 2-.8 1.9-3.95.7-5.05.4-2.9-5.8q.1-1.2 1-2.7.85-1.45 1.6-1.65"/><path fill="#e50044" d="M61.55 114.85q1.6 2.45 1.85 7.1.2 3.8-.45 6.95-.55 2.5-3.3 5.6-3.4 3.9-4.55 6-4.75-6.55-1.7-15.3 2.7-7.9 8.15-10.35m37.5 25.2q2.35-2.05 8.5-4.85 5.4-2.45 8.4-5.85 5.75 4.8 5.7 13.7-.1 8.5-4.7 11.05-8.35 4.7-14.05-1.1-5.1-5.2-3.85-12.95"/><path fill="#2f8097" d="M102.95 64.5q.4-3.15 0-6.3h.05l10.9.4q2.65.4 9.45 5.15 6.45 4.45 7.6 6.2.5.7-.55 4.5-1 3.5-1.75 4.7-9.65-9.95-25.7-14.65m24.7 72.8q1.3 1.05 5.2 9.95 4.05 9.15 3.85 11.25-.35 3.7-3.7 9.2-3.05 4.9-4.8 5.9-2 1.2-13.65 1.35-11.55.1-13.05-.9-1-.65-3.2-8-2.05-6.9-2.05-8.1 0-1.15 4.9-7.8.4 3.85 5.65 5.3 5.35 1.4 10.15-1.25 3.05-1.65 4.4-7.75t-.55-10.3l3.55.35q2.8.4 3.3.8"/><path fill="#2f8097" d="M201.2 66.95q.5-1.85.2-3.35l4.95 3.75q5.2 4.15 6.3 5.95 1.55 4.65.1 12.3-.85 4.45-2.25 8.05-.6 1.6 1.35 4.1 1.7 2.2 2.7 2.4 2.55.55 10.7-2.55l2.15 6.9q2.25 9.35 2.7 20.1-1.85.5-13.95 5.5-8.3 3.45-10.35 1.9l-.45-1.7-.5-1.45q.25-.3-5.2-8.6-5.6-8.6-7.4-9.7-.6-.35-6.9.85-6.2 1.15-7.15 1.7-.7.35-4.2 6.15l-4.9 8.5q1.45-15.45 1.15-18.3-.2-1.65-5.3-9.3l-5.9-8.3q-.75-.9-5.2-1.85l-5.05-.5q-.7.35-4.6 4.65-4.05 4.4-5.35 6.35-.1-7.6-5.15-15.15-2.15-3.2-5.05-6.2.75-1.2 1.75-4.7 1.05-3.8.55-4.5-1.15-1.75-7.6-6.2-6.8-4.75-9.45-5.15-.25-.05.05-.65.35-.7.95-1.1 2.65-1.75 7.85-4.1 3-.6 10.3-.1 7.7.5 8.9 1.7l6.35 6.7q5.15 5.45 5.8 5.8l3 .2 3.3-.6q.75 1.85.65 2.7 0 .3-1.2.5-1.45.3-2 .8 2.45.9 7.2 5.05 5.15 4.6 5.6 7.1-.3 1.65-2.3 4.3-1.9 2.45-1.9 3.4 0 1.5 1.4 2.35 1.4.9 2.45 0l2.15-2.25 2.3-2.3q1.65 3.55 2.35 14.2-.1 1 1.9 2.65 2.05 1.7 4.2 2.3 1 .25 5.55-2.65 4.55-2.95 4.9-4.2l1-4.45q.6-3.35.25-4.25-.6-1.7-3.3-5.45-2.5-3.5-3.3-4.1-.6-.45-3.15-.35l-2.85.2-.25-2.6q-.1-1.2.2-1.45.45-.4 8.85-2.7 7.6-2.1 8.6-4.4 1.15-2.45 1.5-3.9"/><path fill="#2f8097" d="m211 71.7 2.4.25q2.05.35 2.6.8 1.6 1.35 6 8.8 4.45 7.5 4.45 9 0 1.3-1.2 6.95-1.25 1.3-5.2 2.15l-5.5.5q-1-.2-2.7-2.4-1.95-2.5-1.35-4.1 1.4-3.6 2.25-8.05 1.45-7.65-.1-12.3zm-67.6 32.6q2.75 2.45 2.9 3.9.35 4.35-2.7 15.8-2.35 8.7-4.4 14.05-2.25-1.3-4.55-2.3-2.55-1.1-3.2-.95-.75.2-1.6 1.65-.9 1.5-1 2.7-.75-1.5-1.2-1.85l-6.85-.6q-.6-1.9-1.75-3.65l-2.5-3.35 1.7-3.2q1.05-2.25 1.3-3.45 8.05-2.05 13.45-7.9 5.75-6.3 5.8-14.3 2.55 1.65 4.6 3.45"/><path fill="#2f8097" d="M164.95 100.15q5.1 7.65 5.3 9.3.15 1.3-1.3 19.4-1.45 18.3-1.4 19.55l-.85-.1-4.9 4q-4.1 3.45-4.2 3.85-.35 1.35.8 2.85.9 1.25 1.65 1.4l3.25.2 3.4-.1 1.7-.65q1.35-.55 1.9-1.1 1.1 1.35 7.7 6.15.65 25-.25 26.55-.95 1.8-3.85 4.9l-4.15 4.45-1.85.55q-.5 2.55-.65 2.2l-.75-1.3-.6-.9-2.55 3.1-.55-1.85q-.55-1.8-.65-1.55l-1.6 2.05-1.45 1.55.4-4q.4-3.8.2-3.45-11.15 15.55-11.15 15.1l-.35-5.7-.5-5.15-2.45 1.2q.85-3.2 1.55-9.85.75-6.55.35-7.3-.6-1.25-4.25-3.4-4-2.45-5.6-1.35l-.65.55-2.9-5.5-3.05-5.05q2.1-3 3.8-6.3 2-3.9 2.2-5.95.1-1.1-1.5-5.35l-3.45-8.2 5.05-.4 3.95-.7.8-1.9.3-2q-.1-.45-2.65-1.9 2.05-5.35 4.4-14.05 3.05-11.45 2.7-15.8-.1-1.35-3.8-4.65l-3.65-3.05q1.3-1.95 5.35-6.35 3.9-4.3 4.6-4.65l5.05.5q4.45.95 5.2 1.85z"/><path fill="#2f8097" d="M114.2 190.05q-5.55-4-5.9-5.1-.2-.6 1.2-4.65l2.05-5.6 10.65-.3 6-.8q.8-.4 2.5-2.85l3.05 5.05 2.9 5.5-6.9 6.5-8.1 7.25q-2.5-1.35-7.45-5M174.75 88.1q.35-.25.45-.25l3.15.3q2.65.15 3.35-.95 1-1.8.6-5.2l2.85-.2q2.55-.1 3.15.35.8.6 3.3 4.1 2.7 3.75 3.3 5.45.35.9-.25 4.25l-1 4.45q-.35 1.25-4.9 4.2-4.55 2.9-5.55 2.65-2.15-.6-4.2-2.3-2-1.65-1.9-2.65-.7-10.65-2.35-14.2m-49.4-40.5q1.8-1.5 12-2.85 9.85-1.35 12.85-.8 3.55.6 7.05 3.25l1.3 1.25 1.25.95q2.25 2.35 3.45 6.05-.9.05-2.85-.95-1.8-.9-3.15-1.95L158 55l.5 1.45-2.45-1.4-1.7-1.15q4.35 7.9 6.05 12.55l-3.3.6-3-.2q-.65-.35-5.8-5.8l-6.35-6.7q-1.05-1.05-10.45-1.45l-9.2-.2 1.3-2.4q1.4-2.45 1.75-2.7"/><path fill="#2f8097" d="M165.6 49.9q1.1 5.3.55 7.2-.15.55-2.25-1.2-1-3.25-4.1-6.5zm-18.45 135.6q.4.75-.6 8.9-1.05 8.25-1.8 9.75-.8 1.6-3.1 3.8-2.1 2-2.85 2.15t-7.45-1.7q-6.9-1.9-7.65-2.7-.95-.9-2.75-4.9-1.85-4.1-1.2-4.4l17.55-15.65q1.6-1.1 5.6 1.35 3.65 2.15 4.25 3.4m42.1 10.25q.85-1.45 4.9-2.65 4.1-1.25 7-.85.6.1 2.35 1.55 1.8 1.55 1.9 2.2l-.1 4.15-.4 3.95q-.2.9-2.4 2.25t-3 1.05q-2.3-.75-5.7-2.3-4.4-1.95-4.45-2.65l-.35-3.25q-.2-2.65.25-3.45"/><path fill="#e50044" d="M173.55 210.85q.9-.85 2.55-.95 1.95-.15 3.6.95 1.5 1.05 1.85 3.55.2 1.75-.15 3.15-.25 1.15-2.85 2.7-2.75 1.6-3.85.85-2-1.35-2.45-4.95t1.3-5.3"/><path fill="#2f8097" d="M167.55 148.4q-.1-2.15 1.55-20.65l4.9-8.5q3.5-5.8 4.2-6.15.95-.55 7.15-1.7 6.3-1.2 6.9-.85 2.1 1.3 6.35 7.45 4.3 6.25 6.25 10.85l-2.9 4.7q-.2.3-.2 9.3-.05 9.2-.55 10.5-.75 2.05-6.45 7.1-5.55 4.95-8.35 6.25l-.55-1.65q-.4-.6-3.9-.65-3.5-.1-3.95.5-6.6-4.8-7.7-6.15l.4-.55.95-3.85q.55-3.15-.05-3.75-1.45-1.45-4.05-2.2"/><path fill="#2f8097" d="m204.85 128.85.35 1.5q.25 1.4.6 1.65l1.45.35 3-.15q3.7-.9 20.55-7.75 1.2 1.75 1.25 7.3l-.35 8.15q-1 1.25-6 4.8l-5.2 3.85q-.35.4-1.05 4.95-.7 4.3-.7 5.25 0 .65 2.3 2.8t2.9 2.1l2.2-.4q-2.4 5.6-5.45 10.75-7.1 11.3-16.45 18.95l-.5.35-1.35-.65-1.25-.4q-2.5-.35-6.25.7-3.65 1-5.4 2.4.2-3.1-.9-13.55-1.15-10.8-2.2-15.1 2.8-1.3 8.35-6.25 5.7-5.05 6.45-7.1.5-1.3.55-10.5 0-9 .2-9.3z"/><path fill="#2f8097" d="M185.85 165.05q.75 1.15 2.5 14.6 1.75 13.8 1.1 16.25-.4 1.5-3.8 5.65-3.1 3.75-4.15 4.55-.65.5-9.05.05l-1.8-1.55q-1.6-1.6-1.75-2.25l3.9-4.25q4.2-4.5 5.1-6.2.55-1 .35-13.85l-.3-13.05q.05-.65 3.7-.7 3.7-.05 4.2.75M168.8 149q2.1.9 2.8 1.6.9.95-1.3 8.15l-3.6 1.75-3.4.1-3.25-.2q-.75-.15-1.65-1.4-1.15-1.5-.8-2.85.1-.4 4.2-3.85l4.9-4z"/><path fill="#e50020" d="M184.1 19q3.2-4.35 9-9.4 6.6-5.85 11.8-8.25l-4.05 11.35q-3.95 11.05-5.3 16.2 1.3-1.5 3.05-2.75l-1 5.25q4.9-3.4 5.3-3.55-.3 2.55-2.15 6.35l-3.05 6.2q-1.7 3.7-2.3 6.45-.65 3.15.65 6.6l3.05 6.05q3.1 5.85.6 11.35-1 2.3-8.35 4.3-8.15 2.25-8.6 2.65-.8.65-.45 4.2.4 3.4-.6 5.2-.7 1.1-3.35.95l-3.15-.3q-.1 0-.45.25l-2.3 2.3-2.15 2.25q-1.05.9-2.45 0-1.4-.85-1.4-2.35 0-.95 1.9-3.4 2-2.65 2.3-4.3-.45-2.5-5.6-7.1-4.75-4.15-7.2-5.05.55-.5 2-.8 1.2-.2 1.2-.5.1-.85-.65-2.7-.8-2.25-3-6.15l-3.35-5.85q.45.3 4.45 2L158 55l-.75-2.45q1.3 1.05 5 2.8 3.75 1.8 3.85 1.35.55-1.75-.5-6.8v-.05l-2.35-9.75q-1.4-5.85-1.45-9.9.45 1.45 1.8 3.1 1.25 1.5 2.65 2.45-.15-.65.5-2.65l2.1 1.75q1.8-5.2 6.2-12.35 4.1-6.7 8-11.2l.45 3.7z"/><path fill="#fff362" d="M33.4 53.35q.5-9.7 6.9-13.35 6.25-3.6 13.95-.4 7.7 3.25 12.95 11.7 5.3 8.55 4.75 18.3-.55 9.95-7 13.3-6.7 3.45-14.8-.3-7.95-3.65-12.55-11.95t-4.2-17.3"/><path fill="#efe908" d="m178.6 48.45 1.6-8.05q.4 1.1 1.6 2.7 1.2 1.65 1.8 1.75.25-3.5 1.05-7.8.95-5.3 1.9-6.5L188 33.1q.8-.65 1.4-3.7l.65-5.3q.75.75 1.7 3.3 1 2.8 1 4.5l5.85-5.8-.9 5.25 5.2-3.5q-.3 2.55-2.15 6.35l-3.05 6.2q-1.7 3.7-2.3 6.45-.65 3.15.65 6.6l3.05 6.05q3.1 5.85.6 11.35-1 2.3-8.5 4.35-7.9 2.1-8.15 2.4-.8.95-.9 2l.15 2.4q.4 3.4-.6 5.2-.7 1.1-3.35.95l-3.15-.3q-.1 0-.45.25l-2.3 2.3-2.15 2.25q-.6.5-1.75.4-1.2-.1-1.8-.6l4.55-4.05q2.2-2.35 2.3-3.35.3-2.55-1-7.35-1.35-4.8-.7-11.4 1.2 2.95 2.6 4.25.3-2.45-.6-5.1-1.2-3.5-1.3-4.3-.9-6 .65-10.6 1.2 6.05 3.65 10.55 3.1 5.8 7.2 6.25-3.55-5.25-1.3-7.65-4.45-5.7-4.2-11.25"/><path fill="#c6003a" d="M61.65 152.45q4.1 1.8 8.2 1.4 10.55-1.05 10.5-13.8 2.1 2.45 2.55 8.15.5 7.25-3.85 11.55-3.75 3.7-8.9 3.75-6.05.05-9.9-3.55-4.55-4.2-4.4-12.15 1.75 2.9 5.8 4.65m-34-61.1q-.95 3-4.5 7.25-4.4 5.35-6.5 9.15l4.1-10.7q2.35-6.55 2.1-9.2l-2.25-14.5q-1.7-12.1-.95-19 .9 9.65 5.65 22.8 3.65 10.1 2.35 14.2m45.1 22.1q.4-3.25 5.1-4.6 5-1.45 10.2.85 20.45 9.3 33.95 6.25 11.55-2.55 16.75-13.6-.65 7.55-6.25 13.3-5.3 5.45-12.95 7.4l-5.65.8q-10.05.4-20.15-4.95-8.95-5.7-11.45-6.35-6.3-1.5-9.55.9"/><path fill="#ec6d45" d="M219.4 153.25q.2 3.15 4.85 4.6l6.5.25-1.25 2.65q-.5 1.15-2.9 2.4-2.55 1.3-3.4.55-4.45-3.8-4.45-4.95z"/><path fill="#c6003a" d="M61.55 114.85q1.6 2.45 1.85 7.1.2 3.8-.45 6.95-.6 2.75-2.45 6.05l-3.65 6.45q-5.4-5.05-4.15-13.95 1.25-9.2 8.85-12.6m39.8 23.65q1.75 5.4 7.55 8.35 5.35 2.8 11.7 2.3l-1.65 2.65q-1.2 1.75-2.2 2.3-8.35 4.7-13.95-1-5-5.15-3.75-12.9l.95-.9z"/><path fill="#ec6d45" d="M114.55 174.95q-11.55.1-13.05-.9-1-.65-3.2-8-2.05-6.9-2.05-8.1 0-.6 1.5-2.6l2.5-3.25q.95 6.65 3.1 10.95 2.1 4.25 4.45 4.3l13.75-1.7 13.6-1.15q-1.5 2.7-4.25 6.05l-2.7 3.05q-2 1.2-13.65 1.35m100.2-44.3q-7.05 2.8-8.95 1.35l-.45-1.7-.5-1.45q.25-.3-5.2-8.6-5.6-8.6-7.4-9.7-.6-.35-6.9.85-6.2 1.15-7.15 1.7-.7.35-4.2 6.15l-4.9 8.5q1.25-13.7 1.2-17.2 3.15-4.15 8-6.25 2.2 2.2 4.9 2.95.6.15 3-1.15 2.3-1.2 4.45-2.8l4.4.95q3.1.7 4.15 1.5 8.15 9.8 15.55 24.9m-4.25-37 .65-2q1.95.05 5.65 2.95t8.3 3.05q-1.4 1.2-5.2 2.05l-5.35.45q-1-.2-2.7-2.4-1.95-2.5-1.35-4.1m-67.75 17.9q0-.55 1.55-2.25 1.6-1.85 2.3-1.6-1.2 13.9-7.4 30.35-2.25-1.3-4.55-2.3-2.55-1.1-3.2-.95-.75.2-1.6 1.65-.9 1.5-1 2.7-.75-1.5-1.2-1.85-.5-.4-3.2-.7l-3.45-.25q-.35-1.5-1.75-3.45t-3.3-3.55l10.15 1.6q6.7.7 9.3-.65 1.6-1.25 4.1-6.35 3.25-6.6 3.25-12.4"/><path fill="#ec6d45" d="M164.95 100.15q5.1 7.65 5.3 9.3l.05 3.4q-2.8-2.15-6.85-6.6l-6.65-7.15q-1.55-1.5-4.35-1.8-2.5-.25-3.5.5l-2.95 3.1q-1.65 2.05-2.5 3.6l-3.1-2.75-1.55-1.25q1.3-1.95 5.35-6.35 3.9-4.3 4.6-4.65l5.05.5q4.45.95 5.2 1.85zm-.4 81.8q6.25 1.15 10.1 4.05 4.2 3.15 2.7 6.55l-7.6 8.25-1.85.55-.65 3.05-1.65-2.65-2.25 2.7-.55-1.85q-.55-1.8-.65-1.55l-1.6 2.05-1.45 1.55.25-3.95q.15-3.75-.05-3.4l-10.75 15-.35-5.7-.5-5.15-2.45 1.2 2.05-13.2q.65-5.05 6.05-7 4.7-1.65 11.2-.5m-54.3-3.95q5.45-.55 9.5 3.85 2.35 2.6 6.55 9.25l-4.65 3.95q-2.5-1.35-7.45-5-5.55-4-5.9-5.1-.25-.75 1.95-6.95m76.4-81.7q1.85-.15 3.7.9l3.65 1.85-.35 1.35q-.35 1.25-4.9 4.2-4.55 2.9-5.55 2.65-2.15-.6-4.2-2.3-2-1.65-1.9-2.65l-.15-2.3q2.25-1.25 4.8-2.3 3.15-1.25 4.9-1.4"/><path fill="#ec6d45" d="M123.4 193.2q4.25 1.8 9.4 2.75 5.55 1.05 8.3 2.1 1.4 1 2.7 3.35 1.2 2.25.95 2.75-.8 1.6-3.1 3.8-2.1 2-2.85 2.15t-7.45-1.7q-6.9-1.9-7.65-2.7-.95-.9-2.75-4.9-1.85-4.1-1.2-4.4zm80.9 11.85q-.5.75-1.6 1.5-1.25.9-2.4 1-1.2.05-6.05-2.25-4.8-2.3-4.9-2.85-.05-.8 1.35-2.1 1.45-1.3 3.15-2l7-.25q5.15.85 4.65 3.55l-.4 1.6z"/><path fill="#c6003a" d="M172.15 216.8q2.05 1.6 4.6 1.2 2-.35 4.85-2.1.65 2-2.55 4.05-3.1 2-4.35 1.15-.55-.4-1.4-1.75l-1.1-2.2z"/><path fill="#ec6d45" d="M201.15 192.25q-2.5-.35-6.25.7-3.65 1-5.4 2.4.3-5.4 5.05-7.75l5.3-2.35q3.7-1.8 6.75-4.1 6.1-4.65 10.5-10.35 3.9-5.1 4.5-8.15l1.9.85q1.85.7 2.85 0-3.15 7.25-5.2 10.7-6.6 10.5-16.8 18.9l-1.45-.35zM164.8 156.7q2.7 1 5.9.95l-.4 1.1-3.6 1.75-3.4.1-3.25-.2q-.75-.15-1.65-1.4-1.15-1.5-.8-2.85.05-.25 2.65-2.5 1.7 2.05 4.55 3.05"/><path fill="#c6003a" d="m115.1 252.75-10.05 5.1q-14.9 7.65-27.95 7.2-11.6-.4-18.55-4.65-2.15-1.3-5.95-4.35l-6.65-5q-5.9-3.9-17.4-2.2l-8.85 1.35-7.85-.25q-4.1-1.1-6.7-3-3.4-2.55-3.6-6.7-.25-3.75 2.05-7.5-2.7 8.35 4.75 11.4 6.5 2.65 16.95.3 14.75-3.3 21.85-.6 3.95 1.45 10.2 8.5 6.75 7.55 19.15 8.2 12.8.7 23.6-6.65 7.25-5 8-5.45 4.5-2.75 8.5-3.55l10.2.4q3.5.75 10.75 3.05 8.75 2.85 15.75 2.35 7.6-.5 12.4-4.85 4.7-4.2 9.2-4.9 4.3-.7 12.3 1.4 19.65 5.2 25.55-4.95 1.95-3.4 3.9-5.15 1.85-1.75 4.6-2.8 11.75-4.65 15.25-8.1 4.75-4.65 1.1-11.55 4.2 3.2 4.4 9.35.25 5.85-6.4 10.05-3.35 2.1-12 5.2-3 1.05-8.6 6.65-5.3 5.25-10.55 6.55-7.05 1.75-14.85.65l-13-1.45q-5 .1-10.2 3.4-6.1 3.9-11.5 4.95-6.65 1.3-15.4-.7l-15.55-3.4q-3.75-.45-8.85 1.7M79.6 138.1q-2.75-2.5-5.5-6.25-1.75-2.3-2.1-8.15-.3-4.25.15-7.25.5-3.15 2.85-4.1l7.3.2q2.5.65 11.45 6.35 10.1 5.35 20.15 4.95l5.65-.8q-.45 2.25-1.95 4.45t-4.3 4.25q.7-1.9-3.15-2.85l-9.4-.35q-14.6 1.4-21.15 9.55m68.1 63.35.75 9.25q-3-1.1-6.7-3l3-3.55.5-1.5z"/><path fill="#c6003a" d="m149.55 211.15 5.85-8.15 4-5.85-.05 3.45-.25 4.05 1.45-1.55 1.6-2.05q.1-.25.65 1.55l.55 1.85 2.2-2.7.75 1.1.9 1.55q.15.3.7-3.05l1.85-.55q-1 1.25-.85 1.55.15.65 1.75 2.25l1.8 1.55q8.4.45 9.05-.05l3.15-3.35 3.9-5.15q.1 1.75.8 4.85.05.7 4.45 2.65 3.4 1.55 5.7 2.3.8.3 3-1.05t2.4-2.25q.4-1.5.6-4.65l1.45 1.05 1.5 1.05 3.9 1.35 4.35 1.05q-7.5 5-16.55 7.95-8.8 2.9-18.35 3.6l-.3-2.45q-.45-1.6-1.65-2.35-1.15-.7-2.7-.65l-2.55.15q-.75 0-1.6 1.75t-1.05 3.65q-11.7-.55-22.4-4.45M58.2 155.6q-1.5 1.85-4.3 2.65-3.2.95-6.05-.3l-1.1-3.1-1.4-2.95q1.9 1.1 5.4.55 3.2-.5 5.1-1.9.15 1.7.7 2.7zM86 61.1h-3.6l-3.75-.4q-.95-.2-2.9-4.35-2.1-4.45-3.25-9.3-3.1-13.65 4.8-16-5 6.2-.95 15.85Q79.2 53.7 86 61.1m14.2 150.5q1.55 3.15.3 4.95L97.3 219q-2.65 1.7-6.7 1.75-4.15.05-5.95-1.75 6.2.15 10.5-2.1 3.8-2.05 5.05-5.3m31.9 19.25q-3.5 9.15-14.95 10.25-9 .9-13.85-2.1-1.65-1.05-2.7-2.7-1.15-1.75-.2-1 12.1 2.3 23.25-1.9 5.55-2.05 8.45-4.3-.6.95-.35 1.45.1.25.35.3M6.05 229.3l3.3-4.85q3.3 3.3 9.5 1.8l2.2.05q.5.55-1 1.7-3.55 2.7-7.8 3.55-5.05 1-6.2-2.25"/><path fill="#1e6579" d="m185.85 164.55-7.4-.3-.25 1.05-7.9-6.55 1.15-2.4 2.5 2.25q2.95 2.3 5 2.7l3.75.25 4.8-.4q3.1-.65 7.1-3.85 3.85-3.1 7.05-7.4l-.4 3.75-5.1 5.95q-5.85 6.15-9.55 7.25zM134.15 47.9q7.55 1.1 9.4 2.15 1.3.75 6.4 7.55 4.95 6.5 5.55 6.6 1.3.25 3.6-.55l1.05 2.6-2.25.85-3.85.2q-1.15-.45-6.3-6.6-5.25-6.25-5.75-6.5-1.2-.6-8.5-1.4l-11.2-.4.9-2.15q1.15-2.25 2.35-2.9z"/><path fill="#ec6d45" d="M186.85 197.25q1.45 1.5-.8 4.1-3.2 3.8-4.1 5.4l-9.5-.6q-3.65-3.05-3.95-4.2l3.5-3.85 4.1-.95 6.6-1.1q2.95-.1 4.15 1.2m-58-58.1 2.9 1.45q4.05 1.25 9.85.15l-.1 1.45q-.3 1.55-1.25 1.9l-8.45.75z"/><path fill="#c6003a" d="M61.35 115.15q-7.55 5.05-9.05 13.55-.75 4.3 0 7.55-2.6-9.85-1.1-17.1 1.6-7.75 7.2-7.4 2.35.2 2.9 1.8.25.85.05 1.6m-4.9 28-.6 7.4q-.9.75-2.35 1.4-3 1.3-6 .9t-4.95-3.1l-1.4-2.6-1.7 1.25-3.75.2q-2.55-1.3-4-6.65-1.5-5.7-2.75-6.7l1.9 1.3q2.1 1.9 3.4 5.05.7 1.65 2.5 2.1 2.1.5 4.15-1.35 1.15 4.65 7.5 4.4 6-.25 8.05-3.6m4.05 99.55q1.3 2.2 6.55 2.05 5.15-.15 6.6-2.2l-.9 2.4Q71 247.25 66.8 247q-4.25-.3-5.7-2.3zM214.2 225q2.1 3.2-.3 5.8-2.65 2.85-9.95 3.2-6.45.3-8.45-2.6-.6-.95-.7-2.05l.05-.95q2.8 4.15 11 2.3 8.05-1.85 8.35-5.7"/><path fill="#cc5d3b" d="m96.6 158.85 2.15 5.8q2.8 5.9 6 6.35l11.9.4q8.1-.15 10.35-1.1 3.15-1.3 6-3-3.3 6-5 6.45l-13.35 1.05q-12.2.6-13.35-.05-1.05-.6-3-8.3zm13.05 20.65.45 2.25q.65 2.35 1.55 2.9l12.6 7.6-1.55 1.75 1.15 4.3q1.3 4.3 2.3 4.55.8.25 6 2.25 5.05 1.85 6.05 1.5 1.55-.55 5.6-1-4.2 4.85-5.45 4.85-1.15 0-7.65-1.9-6.7-1.95-7.3-2.65-.75-.9-2.35-4.55-1.7-3.9-1.5-4.8.15-.8 1-1.35l.85-.35q-3.5-2-7-4.2-6.95-4.45-6.75-5.4.15-1 1.1-3.45zm36.85 18.9q2.25-2.1 11.55-2.1 9.75 0 13.5 2.85l-1.9 2-1.45-.2-1 3.4-1.55-2.75-2.4 3.3-1.2-3.85-2.9 3.85v-7.25L148.7 212.3l-.55-10.85-2.35.7z"/><path fill="#cc5d3b" d="M184.8 203.25q-2.05 3.25-3.1 3.3h-4.75l-4.5-.3q-.8-.2-2.35-2.2l-1.4-1.95 1.6-1.9 1.1 1.65q1.25 1.7 1.9 1.75l3.8.2 3.45-.25 6.05-3.5zm19.6 1.65-2.35 1.35q-1.95 1.1-2.7 1.15-1.2.05-8-2.95l2.9.25 6-.35q1.45-.3 3.2-1.2 1.8-.9 1.95-1.45-.35 2.8-1 3.2m14.25-47.45q1.45 1.95 4.35 3.15 3.85 1.65 6.9-.2-.4 2-1.15 2.1l-2.45.9q-2.05.7-2.6.45-1.45-.6-3.1-2.15-2.35-2.25-1.95-4.25m-52.85 3.45-5.6-.4q-3.25-1.65-2.6-4.3l2.7 1.9q3.95 1.7 10.1.8-3.85 2-4.6 2m-35.7-18.75 4.6.8q5 .4 6.8-1.55l-.55 2.4-8.85 1.45zm63.5-42.55-.1 1q-.45 1.25-2.25 2.35l-4.7 3q-2.65 1.65-3.3 1.65t-3.65-2.3l-2.85-2.35-.25-1.95.25.15 3.05 1.05q3.3.95 4.85.6 2.45-.5 8.95-3.2m16.45-6.9q1.95 4.05 7.85 5.3l5.5.4-8.9 1.95q-.95 0-2.45-2.05-1.2-1.75-1.7-3.15-.35-.85-.35-1.75zm-4.15 39.4q-.1-1.25-5.9-11.25-6.05-10.4-7.55-10.75-1.7-.4-7.95.9-6.15 1.25-6.6 1.95l-8.8 14.5.5-6.75 2.7-4.45q2.95-4.6 4.3-5.25 3.2-1.5 9.15-2.7l8.65-.3q4.1 2.1 10.1 11.95 5.3 8.8 5.85 12.05zm-11.2 60.5q4.3-1.6 9.75-4.85 10.95-6.55 16.8-14.95-1.45 3-4.35 7-5.85 8.1-13.1 13.4-.8-.6-2.35-1-3.1-.75-6.75.4"/><path fill="#0d131a" d="M85.15 61.75q-2.55-.25-1.5-.8l3.6-.25q33.7 3.5 47.95 24.7 4.3 6.4 4.85 13.45.55 6.75-2.5 12.65-6.65 12.95-23.65 13.6-7.8.3-15.1-2.65-3.9-1.55-10.45-5.65l-3.5-2.2q-1.9-1.2-2.75-1.4-4.75-1.2-6.9-.15-1.7.85-2.15 3.5-1.05 6.7.15 11.2.75 2.65 5.65 8.85 4.45 5.6 5 10.45.85 7.7-3.5 12.7-4.15 4.75-10.7 4.7-7.05-.05-11.4-5.5-3.75-4.7-3.55-9.8.3-6.2 3.35-11.35 3.6-6.1 4.25-9.05 1.5-7-.15-11.55-1.55-4.2-4.65-4.1-1.5.05-1.35-.55.15-.55 1.7-.85 3.75-.65 5.55 4.5 1.8 5.3.2 12.85-.7 3.25-4.2 9.55-2.7 4.9-2.55 10.4.15 6.6 4.25 10.35 3.55 3.2 8.55 3.35 5.05.15 8.75-3.6 4.35-4.35 3.5-11.7-.5-4.65-4.65-9.9-4.6-5.8-5.65-9.75-1.15-4.2-.1-11.4.65-3.95 2.65-5 2.25-1.25 7.85.15 1.05.25 2.85 1.3l3.5 2.2q6.35 3.9 10.5 5.55 7.45 2.95 15 2.65 7.05-.3 12.8-3.65 5.6-3.25 8.65-8.6 6.8-12.1-2.15-25.25-13.85-20.35-48-23.95"/><path fill="#0d131a" d="M61.15 113.95q.25-.05.65.9.4 1 .15 1.1-5.95 2.5-8 10.55-2.2 8.45 3.05 14.1.2.2-.3 1.2-.45.95-.65.75-5.7-5.45-3.85-15.55 1.8-10.1 8.95-13.05m-19.2 25.35q-.4 6.65.8 8.75 2.55 4.35 7 4.1 4.1-.2 5.9-3.55.15-.25.25.7l-.05 1.25q-1.7 3.65-6.9 3.55-5.5-.15-7.75-5.05-1.7-3.65-.9-10.05.8-5.85-1.8-9.9-1.1-1.7-.45-1.8.6-.15 1.7 1.55 2.6 4 2.2 10.45"/><path fill="#0d131a" d="M40.7 34.3q8.5.45 13.1 4.6l-1.5-.15-2.4-.7q-5.05-2.45-11.2-2-7.65.55-12.55 5.7-6.1 6.45-5.25 23.85.45 9.25 2.6 22.2.3 3.15-4.25 15.35-4.55 12.3-4.25 17.2.35 5.45 4 8.8 2.25 2.15 7.4 4.45 3.5 1.55 5.05 3.85 1.1 1.6 1.5 4.4.6 3.95 2.9 5.25 2.2 1.15 5-.5.25-.15.6.75.4.85.15 1-3.75 2.35-6.55.6-2.55-1.6-3.6-5.9-.85-3.6-1.55-4.7-1.3-1.95-5.1-3.65-6.7-3.05-9.6-6.5-2.65-3.2-2.6-7.45.05-6.25 4.65-17.9 4.55-11.5 4.5-14.5-2.15-11.7-2.85-21.6-1.35-19.2 5.5-26.4 6.25-6.6 16.3-6.05"/><path fill="#0d131a" d="M36.2 70.95q-4.7-8.55-3.85-18.25.95-10.2 7.6-13.5 7.25-3.6 15.2.05 7.5 3.4 12.6 11.7 5.8 9.35 4.85 19.65-.95 9.95-7.3 13.25-6.85 3.55-15.55-.3T36.2 70.95m17.9-30.7q-7.4-3.15-13.5.3-3.3 1.9-5 5.75-1.55 3.6-1.55 8.4 0 3.9 1.1 8 1.05 4.1 3 7.6 4.5 8.15 12.35 11.7 7.9 3.55 14.15.3 5.95-3.05 6.65-12.45.7-9.5-4.7-18.2-5.05-8.2-12.5-11.4m33.45-8.85q7.35 4.2 12.2 13.25 5.3 10 3.8 19.8-.05.3-.7.2t-.6-.35q1.2-9-3.9-18.7-4.8-9.1-11.7-13-5.75-3.25-9-.65-2.6 2.15-2.5 6.45.1 5.5 3.7 12.1 3.55 6.65 8.3 10.15.2.2-.75.35h-1.2q-4.7-3.85-8-10.45Q73.9 44 73.8 38.4q-.1-4.9 3.2-7.5 4-3.2 10.55.5"/><path fill="#0d131a" d="m84.2 30.1-.85.25-1.45-.05q-7.2-3.9-13.9-.4-7.35 3.9-6.05 14.1.05.3-.95-.35-1-.7-1-1-.4-10.75 7.25-14.75t16.95 2.2m34.6 93.25 2.35-.25q-1 5.05-6.25 8.8-1.8 1.3-9.9 5.45-4.6 2.35-6.5 3.65-3.15 2.1-4.3 4.25-1 1.8-1.4 1.2-.4-.55.55-2.5 1.15-2.35 4.35-4.35l6.7-3.45q6.35-3.25 9-5.3 4.35-3.35 5.4-7.5m-10.4 134.1q-8.5 4.5-13.65 6.3-9 3.15-18 2.85-9.45-.35-15.85-3.3-3.75-1.8-9.75-6.65-7.45-6-11-7-4.15-1.1-14.75.65l-7.45 1.15q-4.4.35-8.1-.75-11.6-3.5-9.6-13.6.8-3.9 3.5-7.4 2.6-3.35 5.5-4.55l.45 1.15.3 1.05q-7.6 4.6-7.8 11.7-.2 7.7 9.8 10.25l6.1.35 6.9-.95 15.05-.6q5.15 1.15 12.8 7.3 5.6 4.5 9.2 6.1 5.85 2.55 15.05 2.9 8.8.3 17.45-2.65 5.05-1.75 13.25-6.1 9.55-5.05 14.35-5.35 3.05-.15 13.2 2.45 10.55 2.7 16.8 2.2 6.55-.6 13.55-5.05 5.05-3.25 9.2-3.7 3.55-.4 11.55.9 11.5 1.9 17.85.1 5.7-1.65 11.15-7.55 2.3-2.5 4.25-3.85 1.85-1.3 4.5-2.3 7.55-2.85 10.1-4.4 7.25-4.35 7.05-9.95-.25-7.4-7.2-10.6-2.85-1.35-12.05-2.95l-9.45-1.9q-6.15-1.65-7.2-3.75v-1.3q.1-1.05.25-.8 1.3 2.4 6.95 4.15 4.15 1.35 10.05 2.15 8.55 1.15 12.9 3.1 8.55 3.9 8.3 12.05-.3 10.45-18.45 15.4-4.1 1.2-8.2 5.9-6.6 7.45-12.95 8.95-5.55 1.35-18.05-.7-8.15-1.35-11.6-.95-3.3.4-7.8 3.1-8.6 5.05-13.2 5.9-7.05 1.25-18.8-2.2-8.65-2.5-13.2-2.1-4.95.45-13.25 4.85m-63.05-106.4q11.3 22.55 3.15 40.4-6.05 13.2-24.8 26.3-.25-.6-2.95-1.05 19.7-13.6 25.55-25.2 8.9-17.7-3.9-41.9-.15-.25 1.35.45z"/><path fill="#0d131a" d="M22.55 216.35q4.05 1.75 3.15 6.05-.25 1.35-1 1.55-.8.2-.45-.95 1.15-3.55-2.4-5.05-3.6-1.5-7.75 1.45-4.9 3.5-3.95 7.25.9 3.65 5.3 3 2.15-.35 1.4.4-.7.7-2.8.9-6 .55-6.2-4.55-.15-5.05 5.5-8.7 5-3.2 9.2-1.35M66.8 239.2q-4.05.35-5.15 2.8-1 2.25 1.05 3.1 1.1.45.55.9l-1.55-.1q-3-1.45-1.5-4.7 1.55-3.35 6.4-3.8 4.8-.45 6.9 2.9 2.05 3.3-1.45 6-1.25.95-1.85.55t.7-1.25q2.95-1.95 1.2-4.35-1.75-2.3-5.3-2.05m59.2-19.85q5.05 2.05 6.7 6.9 1.2 3.4-.55 6.95-1.9 3.95-6.75 6.15-1.5.7-2.1.35-.65-.3.85-1.05 4.15-2.1 6-5.35t.7-6.6q-1.25-3.85-5.85-5.55-4.25-1.6-9.55-.85-5.4.8-9.2 3.7-4.25 3.25-4.85 8-.3 2.4.5 4.3.8 2 2.35 2.65 1.5.7.95 1.05-.55.3-2.1-.35-2.1-.95-3.15-3.45-1.1-2.85-.3-6.35 1.05-4.35 5.7-7.6 4.4-3 10.15-3.85 5.95-.85 10.5.95m-24.05-6.6q.5 1.25.05 2.7-.65 2.05-3.15 3.65-1.5.9-2.25.6t.8-1.15q1.9-1.1 2.65-2.4.8-1.35.35-2.65-1.65-4.65-8.7-3.55-6.9 1.1-7.85 5.3-.3 1.15.1 2.25.4 1.15 1.4 1.8 1.4.95.9 1.35-.45.35-1.8-.65-2.7-1.85-2.15-5.3.45-2.75 3.2-4.6 2.55-1.65 6.05-2.05 3.5-.35 6.3.8 3.05 1.25 4.1 3.9m20.1-75.4q1.45 4.6.4 9.2-1 4.6-4.05 7.4-3.3 3-7.95 2.9-7.3-.15-10.4-5.85-2.5-4.6-1.6-10.6.05-.25.9-.45l.85.1q-1.05 5.4 1.3 10 2.8 5.55 9.25 5.4 4.2-.1 6.9-3.1 2.45-2.7 3.1-7 .65-4.2-.7-8.25-1.4-4.3-4.5-6.8-.25-.15.3-.85.5-.7.7-.5 4 3.4 5.5 8.4"/><path fill="#0d131a" d="M124.8 135.9q2.65.4 3.25.9 1.45 1.15 5.6 10.5 4.2 9.5 4 11.6-.3 3.25-3.5 8.65-3.1 5.15-5.3 6.7-1.35.9-13.7 1.65-12.55.75-14.15-.3-1.3-.85-3.65-9.05-2.2-7.45-2.2-8.6 0-1.05 5.8-8.6l.75 1.95-2.7 3.5q-2.05 2.75-2.05 3.15 0 1.15 2 7.9 2.1 7.05 2.9 7.65l12.9.5 13.1-.95q1.3-.7 4.5-6 3.4-5.75 3.7-8.6.15-1.75-3.8-10.8-3.95-8.95-5.05-9.85l-2.35-.4-3.65-.1-.4-1.75zm19.45-32q2.55 2.55 2.7 4.25.45 5.4-2.15 15.65-2.2 8.7-4.6 14.15-.1.25-.95 0t-.75-.5q1.6-3.7 4.25-13.15 3.25-11.65 2.9-16.05-.2-2.15-7.05-6.55-.25-.15.1-1 .35-.9.6-.75 2.8 1.85 4.95 3.95"/><path fill="#0d131a" d="M111.7 174.4q.55.35.5.4l-2.05 5.5q-1.2 3.55-1.2 4.4v.05q.4.95 5.95 5 5.25 3.85 7.1 4.75l-.3.75-.7.5q-2-.95-7.35-4.7-6.1-4.2-6.55-5.6-.3-.95 1.75-6.1l2.15-5.05zm18.35-3.4q-.2-.15.3-.65.55-.5.75-.35 1.25 1 3.5 5.25 2.2 4.15 2.6 6 .05.3-.6.45l-.7-.15q-.15-.9-2.75-5.5-2.55-4.5-3.1-5.05"/><path fill="#0d131a" d="m137.7 181.3-5.6 5.15q-8.8 8.6-11.85 10.35.05.95 1.6 4.3 1.5 3.3 2.3 4.15.65.6 7.05 2.4 6.25 1.75 7.5 1.8l2.5-2.15 3-3.5q.65-1 1.55-7.85.85-6.45.85-9.35l-.05-.8q-.3-.65-2.6-2.25-2.6-1.85-4.5-2.3zm-18.95 15q.15-.4 1.95-1.75l8.8-7.65 7.4-6.65q1.05-.75 2.9-.3 2.6.7 4.9 2.2 2.25 1.5 3.05 3.05.55 1.15-.3 9.7-.9 8.55-1.75 9.85l-3.45 3.9q-2.55 2.45-3.45 2.65-1.3.2-7.95-1.85-6.75-2.15-7.85-3.25-1.8-1.8-3.65-7.45-.7-2.05-.6-2.45m86.1 24.15q8.85-.5 10.75 5.45 1.25 4.15-3.6 6.65-1.45.75-2.15.55-.7-.25.75-1 1.95-1 2.8-2.55.9-1.5.4-3.1-.75-2.5-3.6-3.6-2.6-1-5.95-.55-3.3.4-5.65 1.95-2.55 1.7-2.75 4.1-.15 1.55.6 2.8t2.05 1.6q1.35.4.8.8l-1.95-.05q-1.85-.6-2.8-2.5-.95-2.05-.25-4.35.85-2.7 3.95-4.4 2.9-1.6 6.6-1.8m-23.85-6.1q-.35-2.15-1.75-3-1.6-.95-3.4-.65-1.95.35-2.6 2-.7 1.85-.2 4.3.55 2.55 2.05 3.55.65.45 2.7-.65t2.75-2.25q.8-1.25.45-3.3m-7.6-4.1q1-.9 3.25-.9 2.25-.05 3.65.85 1.3.9 1.85 3.4.45 2.25 0 4-.5 1.8-3.15 3.2-2.9 1.55-4.9.25-2.3-1.55-2.6-5.1-.35-3.6 1.9-5.7m27.65-17.35q-2.7-.4-6.4.7-3.65 1.1-4.35 2.35-.4.65-.4 3.55l.1 2.8q.45.6 4.2 2.3 3.35 1.5 5.5 2.2.6.1 2.5-1.05 1.9-1.2 2.05-1.8.45-1.55.6-4.4.1-2.85-.2-3.95l-1.5-1.5q-1.4-1.1-2.1-1.2m-11.9 2.4q1.25-1.65 5.15-3.05 4.1-1.5 7.1-1.05 1.1.15 2.95 1.65 1.8 1.45 2.05 2.25.35 1.3.1 4.45l-.75 4.75q-.3 1.15-3.05 2.8t-3.75 1.3l-5.25-2.15q-5.2-2.4-5.35-3.55-.1-6.25.8-7.4m-86.3-137.95 5.95-.3 5.2.3q2.85.45 9.9 5.6 6.6 4.75 7.85 6.65.7 1.05-.25 5.5-.9 4.1-1.6 5.15-.2.3-1.85-1.45.6-.9 1.6-4.45t.75-4.05q-1.1-1.7-7.4-6.05-6.7-4.6-9.2-5l-5.2-.5q-3.4-.15-5.6.1-.25.05-.35-.75-.1-.75.2-.75"/><path fill="#0d131a" d="M118.55 55.45q-3.6 1.95-4.55 3.15l-1.3-.15q-1.1-.35-.95-.6 1.2-1.4 5.55-3.95 3.85-2.25 4.9-2.5 2.5-.7 10.45.15 8.3.9 9.75 2.35 11.35 12 12.05 12.4l2.65.2q1.9-.2 2.6-.6.25-.1.6.55.35.7.1.8-1.15.6-3.25 1l-3.55-.1q-.75-.45-12.15-13.3-1-1.05-8.8-1.55-7.65-.5-10.1.15-1.05.3-4 2"/><path fill="#0d131a" d="M165.05 56.3q.1.25-.95-.3-1.1-.5-1.2-.75-3.65-7.3-10.35-9.95-2.8-1.1-13.4.2-8.05.95-12.25 1.95-1.1.25-2.3 1.95-1.1 1.6-1.7 3.5l-.75.05-.55-.45q2.25-6.55 5.05-7.2l11.95-1.7q11.25-1.2 14.45.05 7.9 3.15 12 12.65"/><path fill="#0d131a" d="m165.4 49 .25 1.6-5.4-.5-.5-.8q-.35-.8-.1-.75zm50.2 24.25q-1.05-.85-2.95-.95 2.55 3.4.75 12.8-.9 4.75-2.3 8.75-.3.75.3 2t1.8 2.45l1.5 1.2q2.75.6 10-2.2l.7-2.85.4-3.9q0-1.25-4.35-8.65-4.35-7.35-5.85-8.65m-14.55-8.85q-.1-1.7-.6-2.85 5.5 3.65 10.95 9.25 3.45-.35 5.05 1 1.7 1.4 6.55 9.15 4.95 7.9 4.95 9.55-.7 7.8-2.15 8.35-8.2 3.45-11.4 2.75-.65-.15-2-1.85-1.25-1.55-2.05-3.05l-.9-1.85q-.4-1-.15-1.6 1.75-4.75 2.65-9 1.45-7.05-.05-10.75-3.2-4-10.85-9.1"/><path fill="#0d131a" d="M224.5 98.15q-.15-.25.7-.55l.95-.1q2.55 4.9 3.9 12.4 1.35 7.85.75 14.65l-.75.25q-.8 0-.8-.25.3-5.7-1.1-13.65-1.4-8.35-3.65-12.75"/><path fill="#0d131a" d="m222.35 128.3-6.45 2.8q-3.8 1.55-5.95 2.05-3.6.85-4.9-.4-1-1-.45-3.3.1-.35 1.5 1.9l4 .2q3.45-.8 11.7-4.45 4.2-1.85 7.65-3 1.7-.6 2.3-.45t.8 1.3q1.1 6.9.25 16.3-.5-.8-1.75-.9.45-4.5.35-9.65-.1-5.2-.7-5.5-.55-.3-8.35 3.1m-19.5 64.45q14.4-10.8 22.05-28.7l2.6-1.45q-8.05 20.45-22.9 31.7-.2.15-1.05-.65z"/><path fill="#0d131a" d="m207.5 132.4-1.1-.05q-1.15-.3-1.2-.55-.4-2.9-5.6-11t-7.65-9.65l-6.8.95q-5.75 1.1-6.65 1.55-.7.45-4.2 6.7-3 5.25-4.85 8.9-.2.3-.2-1.7-.05-2.05.3-2.65l4.45-7.5q3-4.65 3.85-5.1 1.1-.6 7.4-2 6.7-1.5 7.6-.95 2.8 1.7 8.35 10.25 5.75 8.75 6.3 12.8"/><path fill="#0d131a" d="M204.25 128.5q.15-.2.6.25l.45.55-2.75 4.5-.1 9.6q-.1 9.4-.4 10.15-.95 2.55-6.45 7.85-5.75 5.55-9.05 6.65-.25.1-.35-.85-.1-1 .15-1.05 1.7-.25 7.5-5.5 5.9-5.3 6.75-7.55.25-.65.1-9.75-.2-9.15-.05-9.6.35-1.05 3.6-5.25"/><path fill="#0d131a" d="m182.1 165.05-3.5.25.25 17.4v6.7q-.05 2.4-.3 2.8-.85 1.7-4.95 5.9l-4.05 4.15 1.4 1.75 1.65 1.5 8.55.05 4-4.45q3.3-4 3.65-5.35l.05-1q0-4.35-1.3-15.75-1.35-11.95-2.2-13.5zm-4.85-.65q.7-1.2 4.75-.8 3.85.35 4.3 1.05 1.2 1.9 2.9 15.3 1.65 13.55.9 16.15-.55 1.75-3.75 6.25-3.1 4.4-4.1 5-.85.5-10.05-.15-.6 0-2.35-2.25-1.65-2.1-1.85-2.9-.15-.45 4.25-4.85l5.15-5.6q.45-1.05 0-13.9-.5-12.7-.15-13.3"/><path fill="#0d131a" d="M170 159.35q-.15-.25.3-.7t.6-.2l4.05 3.3 3.65 2.75q.2.2-.3 1.15l-.75.85-3.55-3.25zm-4.25-59.85q4.95 8.05 5.15 9.85.2 1.6-1.1 19.95-1.3 18.5-1.25 19.35l-.9.1q-.95-.2-1-.45-.05-.9 1.45-19.2 1.45-18.1 1.25-19.6-.15-1.5-4.95-8.75-4.2-6.45-5.85-8.45-.55-.7-4.55-1.55-4-.9-4.9-.65-.75.55-4.55 4.65-4 4.4-5.25 6.2-.2.3-.25-.95 0-1.25.35-1.7l5.3-5.8q3.1-3.2 3.75-3.55l5.8.15q4.95.7 5.85 1.8zm-36.15 35.6q.95-1.35 1.7-1.55 1.8-.45 9.8 4.9 1.3.9 1.4 1.45l-.3 2.4q-.4 1.7-.95 2.35-.4.5-9.1 1.4-.25 0-.5-.9-.2-.85.05-.9l8.6-.85.6-1.5.3-1.65v-.05q-.7-.75-4.7-2.8-4.1-2.1-4.9-1.95-.5.1-1.25 1.5-.85 1.45-.85 2.45 0 .3-.7-.55-.7-.8-.55-1.2.45-1.3 1.35-2.55m103.15 7.55-1.2-1.65q-1.5 1.45-6.8 5.15-3.5 2.45-3.7 2.75-.3.55-.95 4.8l-.7 5 2.05 2.35q1.85 1.7 2.5 1.9l2.8-.7q1.7-.7 2.15-1.8.95-2.2 2.7-8.2 1.75-6.1 1.75-7.25v-.1q-.1-1.15-.6-2.25m-7.4 1.1 6.2-5 .45.5.45.75q1.25 1.25 2 2.7.6 1.25.65 2.2.1 1.45-1.9 8.3-1.75 6.1-2.7 8.35-1.05 2.5-6.6 3.2-.8.1-3.25-2.35-2.55-2.5-2.55-3.65l.4-5.2q.5-4.7.9-5.3z"/><path fill="#0d131a" d="m163.35 160 3.1-.1.55-.25q2.85-.9 3.1-1.65 1.15-3.55 1.15-6.15l-.15-.8q-.8-.8-2.3-1.45l-1.85-.65q-7.8 6.3-8.75 7.45l-.05.4q0 .95.9 2 .75.85 1.15.95zm2.95-12.2q1-.35 2.95.5 1.75.75 2.8 1.8.9.9.2 4.7l-.9 3.6q-.55 1.6-3.9 2.75l-.5.2q-.65.25-3.7.05l-3.4-.35-1.2-.75-1.2-1.5q-.85-1.5-.5-2.8.2-.75 4.25-4.3t5.1-3.9m-7.15 49.05q.55-.75.65-.55l.1 1.35-.3 6q2.35-3.2 2.55-3.15.3 0 1.35 3.4 1.85-2.8 2.3-2.75t1.35 2.25q.25-2.25.75-2.85.3-.35 1-.25l1 .15q.3.05-.75.9l-.8.1-.45 2.4-.6 1.2q-.2.05-.8-1.2l-.85-1.65-1.15 1.85q-.95 1.55-1.35 1.45-.35-.05-.65-1.35l-.5-2.4-.8 1.35-1 1.5q-1 1.45-1.3 1.1-.2-.25-.3-2.4l.3-4.5-5.25 7.85q-3.85 5.5-4.65 6.25-.65.6-.9.3t-.25-1.4l-.35-9.6-1.85 1.25q-.25.3-.15-.8.1-1.05.7-1.4l1.1-.4 1.05-.15q.45.2.6 4.45l.15 5.45 5.85-7.9zm25.5-177.45q-.35.45-.7.45-.35-.05-.5-.75l-.9-6.15q-3.7 4.5-7.35 10.6-4 6.55-5.75 11.5l-.45.65-.65-.4-1.25-1.1-.2 1.55-.2.75q-.2.2-.85-.2-1.35-.95-3.15-3.3.5 3.65 2.15 10.4Q167 52.6 167 55.5q0 1.95-.7 2.05-.45.05-2.55-.9l-5.35-2.55.55 1.55q.55 1.6.4 1.75l-1.55-.55-1.6-.95q5.5 10.5 5.5 13.15 0 .75-.8 1.05l-1.55.35q3.4 1.9 7.2 5.5 4.35 4.1 4.75 6.55.2 1.25-2.55 4.95-1.2 1.55-1.4 2.4-.45 1.5 1.1 2.4l1.45-.15 1.65-1.7q2.8-3.15 3.6-3.2l1.25.1q4.05.6 4.7-.45.95-1.55.4-6-.25-2.3.75-3.25 1.15-1 5.55-2.15l5.5-1.5q3.1-1 4.55-2 2.1-1.45 2.25-5.25.15-4.45-2.85-9.45l-1.95-3.55q-.85-2-.85-3.75v-.15q.05-2.95 1.45-6.6.85-2.4 2.95-6.5 2.45-5.1 3.1-7.5-.85.55-3.55 2.4l-1.2.85q-.45 0-.2-1.45l.85-3.4-1.3 1.2-1.55 1.05q-.4-.1-.1-1.15 1.55-5.9 8.85-26-4.95 2.65-10.9 8-5.3 4.8-8.2 8.7M206.05.15q.2.4-.3 2-7.7 19.5-9.4 25.4l1.5-1.55q.9-.85 1.15-.7.3.1.1 1.4l-.85 3.6q2.7-1.95 3.8-2.6 1.35-.9 1.7-.7.4.25-.1 1.85-1.2 3.9-3.35 8.25-2.75 5.55-3.35 7.15-1.3 3.25-1.15 5.7.1 1.95 1.1 3.75l2 3.1q2.9 4.75 2.95 9.2.1 4.7-3.2 7.1-1.85 1.35-6.2 2.5l-7.25 1.9q-1.45.45-1.9.9-.65.7-.45 2.3l.35 3.65q.05 2.2-.65 3.35-.8 1.4-3.85 1.3l-3.4-.5-3.35 3.7q-2.35 2.75-4.2 1.65-3.9-2.35-.3-7.2l1.45-1.8q.8-1.1 1-2-.75-3.2-4.45-6.35-2.5-2.1-7-4.6l-2.1-1.45q-.05-.35 1.6-.9l2.65-.7q-.1-1.35-2.25-5.65l-4.6-8.55q-1-1.75.85-.8l3.35 2-1.15-2.95q-.6-1.55.55-.95L164 55.6l1.15.5q.55.1.55-.6 0-1.95-1.15-6.65l-1.95-7.35q-1.65-7.15-1.65-11.45 0-.85.5-1t.95.95q1 2.25 3.3 4.4l.45-1.55q.3-.85 1-.3l1.3 1.05q2-5.75 6.35-13 4-6.55 7.75-10.9.5-.55.8-.4l.35.8 1 7.05q4.2-5.2 9.25-9.55 5.7-5 10.7-7.3z"/><path fill="#0d131a" d="m174.6 88.15.7-.1q1.9 3.45 2.45 14.25v.05q0 .65 1.75 2.1 1.9 1.6 3.85 2.15 1.1.05 5.25-2.7 4.2-2.75 4.4-3.65l1.05-4.7q.5-2.9.2-3.65-.6-1.6-3.15-5.25l-3.2-4q-.85-.4-5.05 0l-.2-1.8q4.85-.15 6.05.75l3.75 4.15q2.9 3.7 3.55 5.35.7 1.9-1.5 9.5-.4 1.5-5.25 4.9-4.85 3.45-6.15 3.1-2.3-.65-4.7-2.75t-2.35-3.4q-.25-10.7-1.9-13.75-.15-.2.45-.55M141.95 76.1q-.4-.6.1-.9.45-.3 1 .4 1 1.2 1.15 3.15.05 1.15-.3 1.25-.4.15-.65-.95-.5-1.95-1.3-2.95m6.35-1q-.35-.8-.05-1.15l.85.1q.75.6.95 2l.05 1.95q-.1 1.4-.5 1.55t-.45-1.2q-.1-1.55-.85-3.25m4.25-1.15q-.4-.45-.25-.85.15-.45.9-.2 1.15.4 1.35 2.5.2 2.3-.7.35-.45-.95-1.3-1.8M220 108.4l.65.05q0 .5-.7 1.2l-1.35.95-1.5.1q-.55-.35-.4-.7t.9-.45q1.05-.2 2.4-1.15m-.7 4.95.85.05q.05.4-.65.75l-1.75.45-1.35-.1q-.75-.25-.5-.9.2-.6.95-.35zm-4.15 51.4q-.45-.45 0-.9l.9-.05 1.7 1.25q.85.5.5.75l-1.3-.15q-1.4-.5-1.8-.9m-8.25 11q-.2-.6.35-.95t.85.45l.35 1 .25 1.1q.25.8 0 1.1-.25.35-.6-.3-.95-1.6-1.2-2.4m-2.4 2.9q0-.7.4-.75.4-.1.75.7.35 1.05 1.05 2 .5.65 0 .55-.55-.05-1.2-.65-1-1-1-1.85m-34.85 4.75q.1-1.05.8-1 .7.1.55 1.1l-.9 3.15q-.35 1-.7.85-.35-.1-.15-1.15zm-6.25 2.15 1.15-2.2q.45-.85.65-.55.25.25 0 1.2l-.6 2.15q-.3.7-.9.4t-.3-1m-2.75.05q-.35.7-.8.2-.5-.45.05-1.3l1.25-1.4q.75-.9.95-.65.15.2-.45 1.4zm-4.45-4.45q1.25-1.25 1.65-1.05.35.2-.2.8l-1.2 1.65q-.55.75-.95.2t.7-1.6m-42.35-14.6q.55-.75 1.2-.7t.15.85l-.9 1.95-.7 1.75q-.4 1.2-.7.55t.05-2.25q.2-1.1.9-2.15m8 .55q-.35-1.25.3-1.1.7.1 1.15 1.3.35 1.15.2 2t-.55-.05l-.6-1.15zm3.15-2.65q-.45-.7.05-1.15.45-.4 1.1.45l.75 1.7.05 1.1q-.25.25-.65-.5zM56.75 55.15q1.1-.5 3.1 2.95.95 1.5 1.2 2.7.3 1.15-.2 1.4-.4.25-1.1-.3-.95-.75-2.05-2.55-1.05-1.85-1.25-3-.15-1 .3-1.2m33.35-11.6q.8-.55 2.55 2.2 1.75 2.85.9 3.3-.85.55-2.7-2.4-.85-1.35-1-2.2-.1-.7.25-.9"/></svg>