<svg xmlns="http://www.w3.org/2000/svg" width="153" height="202" viewBox="-0.6 0.4 153.2 202"><path fill="#c6dcdb" d="M84.7 74.35q10.95-.6 19.2 2.6 9.15 3.5 13.05 10.95 3.85 7.4 3.4 16.1-.5 9.5-6.15 17.75Q100.35 142.1 63.05 147q-26.1 3.45-46.05-7.5-7.4-4.05-12.15-9.25Q.7 125.7.6 122.7q-.15-6.05 3.65-12.7T14.7 98.1Q30.2 85.8 49 88.55q5.7-6 15.6-9.9 9.65-3.75 20.1-4.3"/><path fill="#0099a9" d="M116.1 86q.75 1.4 1.7 4.05l1.2 3.55q-7.25 4.8-21.3 7.3-12.8 2.3-19.3.95-3-.6-1.65-2.35 2.8-3.8 16-8.9 14.55-5.7 23.35-4.6m4.15 18.55q-.05 3.6-1.5 8.1-5.45 3.9-16.15 6-11.1 2.15-17.75.25-1.2-.3-1.5-1.15-.35-.85.25-1.8 2.35-3.55 15.55-7.8 13.55-4.35 21.1-3.6"/><path fill="#c6dcdb" d="M126.4 38.4q-7.15 18.85-5.95 31.8.3 3.45-.15 7.95-.55 5.25-1.9 7l-1.85 1.75q-1.15-2.4-3.85-4.7 2.35-6.35 2.7-18.7.35-12.95 8.35-30.95Q134.05 9.3 150 .9l1.45-.1q.25.55-.75 1.4-15.7 13.45-24.3 36.2"/><path fill="#fff" d="M148.4 4.35q-6.55 16.5-5.55 35.3.85 14.8 4.8 21.45 1.5 2.55.7 4.8-1.2 3.2-2.1 9.2-.75 5.3-.9 9.5-4.55-2.35-11.8-1.65-6.05.6-10.45 2.7l-2.95 1.45q-1.7.75-3.2.8l-.4-1 1.85-1.75q2.65-3.8 2.05-17.35-.7-14.75 7.5-33.5 8.25-19 20.45-29.95m-25 122.85q4.05-2.1 9.95-2.95 5.95-.85 6.5.65.3.8-1.25 2.9l-2.2 2.9q-1.65 2.85-.95 8.55.55 4.85 2.5 9.75 2.3 5.9 1.85 11.95-.5 5.9-3.8 13.85-2.35 5.7-.65 14.1 1.3 6.2 3.2 9.25 1.1 1.8.55 2.8t-2.55.35q-7.95-2.45-14.8-11.25T111.6 169.3q-2.25-8.2-6.75-16.2-5.2-9.25-11.55-14.35l6.3-3.55 5.95-4.05 9.4-.25q3.55-1.1 8.45-3.7m-79.2 20.25q4.4.45 12.25.15 7 3.2 9.1 10 2.1 6.65-2.5 9.1-6.7 3.65-13.3-4.25-6.15-7.4-5.55-15m-36.65-14.5 6 4.6q-2.85 2.25-6.5 2.5-3.4.2-4.1-1.25-.65-1.4.7-3.25 1.45-2 3.9-2.6"/><path fill="#dbdcdc" d="m44.25 147.5 5.9.4 6.15-.25q4.45 1.75 7.95 7.15-3.65 1.4-9.6 1.25-6.65-.15-9.6-2.4l-.6-3.3q-.25-1.95-.2-2.85m-41.2-9.95 2.95-2q1.8-.95 3.25-1.2 2.45 2.1 4.35 3.25-3.35 2.6-7.2 2.55-3.85-.1-3.35-2.6m110.9-6.25q-2.2 4.4-.4 19 .95 7.7 2.85 18.7.85 6.85 4.5 15.4 3.9 9.2 8.05 12.8-5-2.6-10.75-12.3-5.4-9.1-6.45-15.35-1.05-6.35-7-16.65-6.4-11.1-11.7-14.15l5.3-2.75q4.5-2.65 6.9-4.7l4.05.55zm6.35-52.5q.4-3.3.35-8.8l.1-8.7q.25-2.7.95-6.9 1-5.55 2-8.05.1 11.95 9.25 23.15l7.15 8q3.85 4.25 5.1 6.7-4.4-1.25-9.35-1.25-6.3-.05-11.3 2.05l-3.7 1.8q-2.75 1.25-3.9 1l-.35-.75 1.95-2.5q1.35-2.35 1.75-5.75"/><path fill="#a7bab9" d="M48 136.9q14.1-1.15 28.3-5.95 14.05-4.8 24.65-11.95 4.4-.8 9.4-2.55 4.75-1.6 8.25-3.45-3.7 10.8-14.05 18.9-12.25 9.55-31.95 13.65-22.6 4.7-42.5-.6Q7.9 139.05.75 122.9q14.5 16.65 47.25 14m72.3-32.35-4.2-.1q2.5-4 3.45-7.85 1 3.6.75 7.95"/><path fill="#008290" d="m116.1 104.45 4.2.1q-.25 4.2-1.7 8.45-3.5 1.85-8.25 3.45-5 1.75-9.4 2.55 10.2-6.75 15.15-14.55"/><path fill="#a7bab9" d="M51.15 86.6q3.8 1 8.05 3.75 4.95 3.3 6.55 6.85-2.55-3.05-6.5-5.3-5-2.9-10.55-3.35zm63.75-2.25q1.7-3.1 2.45-7.9.5-3.05.7-8 .25-6 2.35-15 2.95-12.55 7.8-20.4-3.35 7.9-5.45 16.45-2.7 11-2.2 19.25.85 14.4-3.95 18.3z"/><path fill="#0d131a" d="M117.6 87.5q8.45 18.3-2.85 34.65-12.5 18.15-44.5 24.55-11.05 2.2-20.9 1.9-11.75-.4-23.9-4.4-10.35-3.35-18.15-10.6-6.95-6.5-7.3-11.1-.6-9.3 7.6-18.7 6.8-7.75 16.1-12.25 9.75-4.75 22.15-3.9l2.55.25q7.35-6.85 18-10.65 10.15-3.6 20.95-3.6 10.7 0 18.7 3.5 8.45 3.7 11.55 10.35M87.25 75.15q-10.3.1-20.2 3.45-10.05 3.45-17.1 9.55 10.75 1.7 15.75 8.7.4.55.15.75-.3.2-.7-.35Q59 89.6 45.7 88.8q-12-.7-21.4 3.9-8.85 4.3-15.55 12-7.95 9.1-7.35 17.7.3 4.35 7 10.45 7.5 6.8 17.5 10.1 10.25 3.35 21.65 4 11.35.6 22.5-1.6 31.85-6.25 43.75-24.15 10.4-15.6 2.45-33.1-2.9-6.35-11-9.8-7.65-3.25-18-3.15"/><path fill="#0d131a" d="M.8 121.8q3.95-2.2 9 .15 5.3 2.45 6.9 7.8.25.8-.1.85-.3.1-.55-.65-1.75-4.85-6.85-7-4.9-2.1-8.25 0z"/><path fill="#0d131a" d="M61.8 136.2q12.55-.95 28.95-5.45 18.95-5.2 24.4-10.85l-1.25 2.3q-6.75 5.45-25.75 10.35-15.9 4.1-26.65 4.85-.35 0-.55-.25-4.5-5.9-8.65-12.65-1.35-2.1-4.05-1.85-2.45.2-11.85 2.45l-10.95 2.05-9.7 1.2-.55-1.05 9.35-1.25 11.65-2.25q8.95-2.15 12-2.45 3.35-.25 5.1 2.55 3.1 5 8.5 12.3m-57.5-.45q-1.3 1.7-.75 2.8.7 1.3 3.85 1 3.25-.35 5.75-2.2l.75.65q-2.8 2.2-6.45 2.6-3.75.45-4.9-1.55-.9-1.6.6-3.65 1.5-2.1 4.1-2.75l.75.75q-2.35.55-3.7 2.35m52.8 11.9q6.75 2.85 9.1 10t-2.75 9.75q-6.65 3.4-13.3-3.45-6.5-6.8-6.4-16.5l.95.05q0 8.4 5.85 15.05 6.1 7 12.3 3.65 4.75-2.55 1.9-9.25-2.85-6.75-9.55-9.15z"/><path fill="#0d131a" d="M50 147.8q1.2 5.15 5.85 11.6 4.9 6.8 8.2 6.8l-1.1.8q-3.85-.65-8.45-7.6-4.3-6.4-5.35-11.65z"/><path fill="#0d131a" d="M65.45 157.45q-5.05-1.8-13.8-4.1l-.35-1q8.5 2.15 13.9 3.95zm50.8-70.8q-7.65-1.2-21.85 3.95-13.15 4.75-16.95 8.8-.65.7-.5 1.2.1.45.7.6 5.5 1.65 20.1-1 15.05-2.75 21.1-7l.2.95q-6.55 4.75-21.65 7.35-14.45 2.55-20.15.6-1.2-.4-1.35-1.4-.15-.95.8-1.9 4.6-4.7 17.1-9.25 13.5-5 21.9-3.9zm3.8 18.4q-5.9-.95-19 3.05-13.15 3.95-16.7 7.75-.85.9-.5 1.7.3.75 1.55 1.15 5.65 1.7 17.35-.65 11.7-2.4 15.85-6.1l-.4 1.6q-4.8 3.65-16 5.7-11.25 2.1-17.1.3-2.2-.65-2.5-1.85-.3-1.1 1.05-2.5 4.2-4.45 17.05-8.35 12.85-3.85 19.4-2.7zm17.2 25.35q-1.95 2.3-1.55 7.75.4 4.95 2.4 9.75 5.3 12.5-.85 25.45-2.7 5.7-1.85 13.15.75 6.5 3.75 11.75 1.2 2.1.5 3.2-.7.95-2.6.6-7.7-1.45-15.05-10.35-7.8-9.4-10.95-22.35-1.8-7.5-7.2-16.8-5.9-10.2-11.3-13.55l1.05-.6q5.55 3.65 11.45 14 5.3 9.25 7.15 16.7 2.9 12.1 10.8 21.65 7.35 8.95 14.25 10.25 2.6.5 1-2.3-3.1-5.4-3.9-12.25-.9-7.75 1.85-13.6 5.85-12.5.75-24.6-2.1-4.95-2.35-10.25-.3-5.7 1.8-8.2 3.4-4.05 2.9-4.65-.7-1.15-6.1-.3-5.4.9-9.5 2.9-5.5 2.75-8.75 3.7-5.55 1.6-10.25.4l.6-.9q4.45 1 9.7-.75 2.65-.9 8.2-3.8 4.7-2.4 10.55-2.95 5.65-.5 6.5 1.1.35.65-.1 1.7-.6 1.4-2.9 4.15"/><path fill="#0d131a" d="m136.15 144.35-16.65.5q-13.05-1.7-21.85-8.5l.9-.65q7.65 5.8 19.6 7.85 10.55 1.8 17.8-.05z"/><path fill="#0d131a" d="M109.25 141.7q2.35 2.85 4.75 7.65 2.15 4.25 3.6 8.65 3 8.65 8.1 16.2 5.05 7.55 9.1 9.4l-.1 1.05q-4.9-2.1-9.8-9.25-4.8-7.1-8.2-17.1-1.6-4.65-3.95-9.2-2.65-5.15-5.1-7.85zM131.5 28.2q-10.9 21.05-10.4 42.9.15 6.15-.55 9.7-.95 5-3.7 6.65l-.6-1.1q3.9-2.4 3.55-15.15-.5-22.25 10.3-43.2 8.85-17.1 20.6-26.25.6-.45.45-.7-.2-.2-.9.2-12.6 6.65-22.05 23.45-9.3 16.65-11.85 36.5l-.7 9.75q-.7 7.95-2.25 11.75l-1.05-.95q1.3-3.6 1.95-11.3l.7-9.4q2.55-19.95 12.25-36.9Q137 7.2 149.8.4l2.25.05q.55 1-.8 2.05-11.05 8.85-19.75 25.7"/><path fill="#0d131a" d="M143.55 31q-.7 18.55 4.95 30.45l.75 1.95q.2 1.15-.2 2.4-1.1 3.6-2 8.35-1.15 6.1-1.1 10.45l-.25.6q-.25.2-.55 0-2.8-1.4-7.15-1.6l-8.05.6q-5.75 1.1-12.5 5.1l-.5-1.4q7.05-3.95 12.65-5.1l8-.6q4.3.15 7.25 1.5 0-7.75 3.05-18.1.35-1.1.15-2l-.7-1.7q-5.9-11.5-5.25-29.7.65-16.65 5.9-27.65l1.7-1.25q-5.45 10.2-6.15 27.7"/><path fill="#0d131a" d="M116.4 86.7q4.4-5.45 15.3-13.55 9.95-7.45 16.45-10.75l.4.95q-5.85 2.95-16.4 11.05-11.1 8.5-15.1 13.45z"/><path fill="#c6dcdb" d="M38.15 97.05q.75 2.1-9.75 4.25-10.45 2.15-10-.7.95-6.8 5.05-15.4 3.9-8.2 7.1-10.95 1.45-1.2 2.35-1.1 1.1.1 1.85 2.05.95 2.5 1.7 7.9.7 4.9.85 9.45.1 2.4.85 4.5"/><path fill="#fff" d="M48.7 135.55q1.15-2.1 14.2.3 13.1 2.4 15.65 5.55 1.8 2.15 1.45 6.2-.35 4.1-2.65 5.1-3.6 1.65-16.8-6.7-13.1-8.25-11.85-10.45M43.05 115q1.85 4.1 1.5 9.1-.4 5.05-3.15 8.7-2.75 3.7-6.05 3.6-3.8-.05-5.95-4.9-1.9-4.35-1.55-9.7.3-4.4 3.1-7.9 3-3.75 6.65-3.55 3.45.2 5.45 4.65"/><path fill="#a7bab9" d="M34.65 86.4q.15-3.35-.45-7.45-.75-4.6-1.95-5.75 1.95-.45 3.35 4.3 1.2 4 1.2 7.95 0 2.35.35 5.35.4 3.5 1.05 5.65.4 1.25-.6 1.5-.95.25-1.55-.95-.55-1.15-1.05-4.85-.45-3.65-.35-5.75"/><path fill="#dbdcdc" d="M48.85 135.4q4.05 4.35 14.25 9.55 9.7 4.95 12 4.45 1.6-.35 2.8-1.55 1.5-1.5 1.85-4 .6 2.7-.1 5.6-.75 3-2.25 3.3-4.8.95-16.8-6.5-11.85-7.4-11.75-10.85"/><path fill="#0d131a" d="M42.3 114.85q-1.9-3.7-4.8-3.9-3.25-.2-5.85 2.8-2.95 3.4-3.3 9.35-.3 5 1.9 8.85 2.2 3.8 5.3 3.8 3.2 0 5.75-3.6 2.5-3.65 2.7-8.5.2-5.05-1.7-8.8m-.4 18.05q-2.95 4.1-6.4 4.1-3.6 0-6.1-4.35-2.45-4.25-2.1-9.6.3-5.5 3.1-9.35 2.95-4.1 7.15-3.9 3.3.15 5.5 4.2 2.25 4.05 2 9.7-.2 5.1-3.15 9.2"/><path fill="#0d131a" d="M36.7 119q1 .1 1.5 1.5.45 1.3.35 3.15-.1 1.8-.85 2.95-.75 1.2-1.8 1.15-.8-.05-1.35-1.35-.5-1.25-.45-3 .1-1.9.85-3.2.75-1.25 1.75-1.2"/><path fill="#fff" d="M36.65 119.85q.45.05.75.5.35.5.3 1.25 0 .65-.4 1.15-.4.45-.95.4l-.7-.5q-.25-.5-.25-1.15 0-.7.4-1.2.35-.45.85-.45"/><path fill="#0d131a" d="M37.6 89.25q.2 5.3.65 7.15.25.85-.05 1-.3.1-.6-.75-.7-1.95-1.1-7.4-.55-7.3-1.25-10.75-1-4.8-2.65-4.8-2.25.05-7.1 8.75-5.25 9.4-6.7 17.7-.2.95-.5.95-.25-.05-.2-1 .65-8.6 6.15-18.3 5.15-9.1 8.35-9.2 2.3-.05 3.65 5.3 1.05 4.3 1.35 11.35m11.65 46.6q-.55 2.05 11.9 9.85 12.65 7.9 16.05 6.45 1.9-.75 2.25-4.75.3-4-1.5-5.75-3.85-3.7-16.35-5.55-11.95-1.75-12.35-.25m-1.1-.4q.8-2.25 13.35-.5 12.95 1.8 17.35 5.8 2.4 2.15 1.95 6.8t-3.2 5.8q-4.3 1.8-17.45-6.65-13-8.35-12-11.25"/></svg>