<svg xmlns="http://www.w3.org/2000/svg" width="291" height="254" viewBox="-0.9 -0.25 290.8 254"><path fill="#0d131a" d="M5.45 191.55q3.1-13.6 12.25-24.35 10.05-11.75 25.5-17.6 11.2-4.25 14.25.35 2.65 4-1.55 11.55l-.9 1.6q-3.9 6.95-5.05 10.7-1.95 6.2-.7 12.75 1.45 7.6 16.95 5.85 5.95-.65 10.75-4.65 2.8-2.3 7.1-7.9l3.85-5.25q2.2-2.75 4-3.25l.65-.3q2.75-.75 5.75.95 2.6 1.45 5.7 5 7.8 8.85 11.85 26.45 4 17.55.25 26.55-.75 1.8-.8 5-.5 2.15-4.25 1.35-6.85-1.5-12.9-.7-6 .75-13.5 4-20.2 8.7-37.25 7.9-16.85-.8-28.85-10.8Q9.4 229.1 5.9 216.7q-3.4-12.1-.45-25.15"/><path fill="#e50012" d="M13.1 177.95q7.8-14.45 21.6-21.9 10-5.45 15.7-6.3 3.65-.6 5 .75 1.25 1.25.65 4.25-.5 2.65-2.15 5.65l-.9 1.55q-4 7.2-5.25 11.2-2.1 6.75-.75 13.85l.4 1.45q1.2 5.5 7.35 9.75 5.65 3.9 12.85 4.95 3.5.5 3.8 0 .35-.5-3.75-1.4-3.55-.75-7.6-2.8-4.6-2.35-7.4-5.3 4.9 2.05 13.8 1.05 6.6-.75 12-5.2 3.15-2.65 7.75-8.65l3.45-4.2q1.8-1.9 3.25-2.3 4.5-1.3 9.35 4.15 7.35 8.3 11.25 25.3 3.95 16.95.45 25.3-.65 1.6-3.7 2.4l-7.05 1.05q-9.4 1.1-14.35 2.7-2.75.85-7.75 2.95-11.95 4.9-19.45 6.25-12.95 2.35-25.45-1.6-12.8-4.05-20.5-13.25t-8.95-21.9q-1.45-15.35 6.35-29.75"/><path fill="#ec6d45" d="M38.75 161.85Q21.9 177.65 17.3 196.4q-4.5 18.25 2.9 37.75-5.8-4.95-9.2-11.65-3.45-6.75-4.25-14.8-1.45-15.35 6.35-29.75 7.8-14.45 21.6-21.9 10-5.45 15.7-6.3 3.65-.6 5 .75 1.25 1.25.65 4.25-.5 2.65-2.15 5.65l-.9 1.55q-3.1 5.6-4.25 8.4l.05-5q.05-5.1-.55-5.65-.6-.6-3.45 3.35l-3.9 5.25q-.55.6-.45-3.7.1-4.4-1.7-2.75"/><path fill="#c6000b" d="M96.1 205.4q4.9 5.55 14.35 11.8 3.15 2.65 4.05 5.05 1.1 2.95-.55 6.85-.65 1.6-3.7 2.4l-7.05 1.05q-9.4 1.1-14.35 2.7-2.75.85-7.75 2.95-11.95 4.9-19.45 6.25-12.95 2.35-25.45-1.6-1.35-.4-3.95-1.4 22.95 2.95 45-17.55 4.5-4.2 12.85-13.7 5.1-5.8 6-4.8"/><path fill="#0d131a" d="M6.8 174.7q5.35-3.65 11.8-2.4 6.2 1.2 9.6 6.4 3.45 5.25 2.2 11.65-1.25 6.55-6.5 10.1-5.05 3.35-11.15 2.2Q6.3 201.4 2.65 196-.9 190.8.3 184.5q1.25-6.25 6.5-9.8"/><path fill="#fcd13e" d="M28.15 189.6q-1.1 5.7-5.7 8.8-4.3 2.95-9.6 1.95-5.55-1.05-8.8-5.8-3.1-4.65-2.1-10.05 1.1-5.4 5.65-8.5 4.75-3.2 10.35-2.1 5.45 1.05 8.35 5.55 2.95 4.5 1.85 10.15"/><path fill="#d9b536" d="M21.65 175.2q3.8 2 5.6 5.9 1.8 3.95.9 8.5-1.1 5.7-5.7 8.8-4.3 2.95-9.6 1.95-1.9-.4-3.55-1.2 8.7.7 13-6.75 4.45-7.8-.65-17.2"/><path fill="#0d131a" d="M41.2 229.95q0 2.2-.5 4.15-1.6 6.5-7.15 9.85-5.65 3.35-12.05 1.75-7-1.7-10.9-8.1-3.85-6.4-2.15-13.45 1.65-6.5 7.2-9.85 2.65-1.6 5.8-2.05l6.2.3q3.4.85 6.25 2.95 2.8 2.1 4.65 5.2 2.65 4.3 2.65 9.25"/><path fill="#fcd13e" d="M21.7 243.6q-6.25-1.45-9.7-7.25-3.45-5.6-1.9-11.95 1.4-5.65 6.25-8.6t10.55-1.55q6.2 1.55 9.7 7.25 3.45 5.8 1.9 12-1.4 5.6-6.25 8.6-4.9 2.95-10.55 1.5"/><path fill="#d9b536" d="M36.6 221.5q3.45 5.8 1.9 12-1.4 5.6-6.25 8.6-4.9 2.95-10.55 1.5 7.15-1.1 10.45-8.7 3.65-8.55-1.55-19.15 3.8 2.15 6 5.75"/><path fill="#e50012" d="M184.55 20.65q11.9 7.4 19.6 19.3 8.65 13.4 9.8 30.55 1.1 16.25-4.7 32.2-1.4 3.85-5.95 11.3-4.1 6.7-7.15 10.55l-8.65 9.95q-4.95 6.1-5.6 10.7-.8 5.95 2.9 13.7 1.35 2.95 8.55 14.85 6.5 10.85 8.2 19.35 2 10-2 19.25-4.25 9.7-12.5 16.6-8.3 6.85-18.3 8.95-28.75 6-50.9-.4-23.15-6.7-31.3-25-3.7-7.45-3.35-16.1.4-9.95 6.1-22.25 7.25-13.75 9.65-20.4 4.15-11.45-1-17-2.55-1.65-9.95-4.25-6.95-2.45-11.4-3.45-7.95-1.7-11.35-3.1-5.45-2.15-8.25-6-3.3-4.6-4.65-11.05-1.3-6.6.3-11.2 1-2.8 3.2-5 2.25-2.15 4.95-2.9 12.35-2.95 15.45-4.5.05-8.25 2.3-18.95 4.5-21.3 15.4-33.25 10.75-11.8 27.3-17.15 16.9-5.5 38.1-3.8 13.3 1.1 25.2 8.5"/><path fill="#c6000b" d="M170.25 21.55q-3.55-3.9-7.55-6.6l-3.7-2.2q15 1.15 25.15 7.15 10.6 6.25 19.15 19.55 8.9 13.85 10.75 29.1 1.8 15.4-3.75 30.75-1.6 4.5-6 12.4-4.65 8.45-7.65 11.95-8.6 9.85-11.2 13.7-3.75 5.5-3.85 10-.15 4.45 3.15 11.2 2.1 4.2 9.95 17.2 6.35 10.5 7.75 19.1 1.65 9.6-2.45 19-4.15 9.55-12.75 16.3-8.3 6.55-18.5 8.7-10.1 2.1-21.9 2.1-14.05.05-26.05-3.05-12.25-3.15-19.5-8.05-8.5-5.75-12.85-15.5 19.9 12.2 31.4 14.7 18.15 3.9 38.75-6.5 17.5-8.8 20.3-21.1 2.15-9.15-4-22.45-7.9-14.45-10.4-20.7-4.25-10.65 1.35-15.95 7.75-7.3 14-19.65 5.95-11.75 9.1-25.05 3.15-13.4 2.55-24.45-.7-11.8-5.7-18-4.35-21.35-15.55-33.65"/><path fill="#ec6d45" d="M112.55 25.45Q96 35.6 91.1 47.15q-.5-1.55-2.1-2.05-1.45-.45-3.45.05 3.6-6.7 8.55-12.15 8-8.75 24.65-15.6 16.35-6.7 21.9-4.05-14.45 3.7-28.1 12.1M90 71.05q6.5-9.4 10.9-12.5 5.15-3.6 12.8-3.05-.35 1.6-2.3 3.35l-4.35 3.5Q100.25 67.8 97.5 75q-1.45 3.7-12.65 10.7-9.7 6-8 8.2 1.15 1.45.5 1.55l-2.65-.55Q68.45 93 65 93.7q-8 1.6-9.85 10.3-1.95 9.45 5.75 20.15l-1.75-.75-1.3-1.45q-3.4-4.65-5-12.05-1.65-7.6-.05-12.2.95-2.75 3.15-4.75 2.1-1.95 4.9-2.7l2.6-.7q6.95-1.9 11.6-3.9 4.55-2 8.1-5.7 2.55-2.7 6.85-8.9m87.9-21.2q-8.4.25-15.05 7.55-7.2 7.9-6.4 18.3-5.05-1.45-10.6-2.6l-6-1.2q1.55-14.95 15-22.1 5.85-3.15 11.95-3.2 6.35-.05 11.1 3.25"/><path fill="#fff" d="M85.25 77.45q-3.2 3.55-7.8 6.3-.3-.8-.45-4.15V76q2.3-2.7 10.85-6.3 1.6 3.1-2.6 7.75"/><path fill="#0d131a" d="M210.3 95.6q3.8-14.8 1.9-29.4t-9.1-25.75q-7.65-11.9-19.05-18.85-11.25-6.85-24.65-7.95-21.35-1.7-37.6 3.4-16.1 5.05-26.8 16.7-11.25 12.35-15.15 30.5-2.7 12.5-1.35 20.2l-2.7-.55q-1.15-9.6 1.7-21.35Q81 48.3 89.35 37.2q22.4-29.8 70.5-25.95 25.6 2.05 41.5 22.75 16.5 21.45 13.25 51.55-1.35 12.35-7.9 24.9-6.6 12.7-17.9 24.45-7.2 7.55-6.15 14.8.9 6.4 9.9 20.05 8.45 12.85 10.8 22.85 2.55 10.95-1.65 20.6-4.55 10.45-12.5 17.5-8.3 7.3-18.65 9.45-10.4 2.2-23.3 2.05-18.15-.1-31.6-4.4-14.5-4.6-22.65-13.75-10.05-11.3-10.8-25.2-.7-13.45 7.2-27.95Q97 157 98 154.5q3.85-9.8.6-16.65-.3-.55 1.25.3l1.65 1.25q2.1 6.6-1.6 15.75l-9.7 19.15q-5 9.75-5.5 19.9-.55 10.45 3.85 19.35 10.05 20.4 40.25 25.35 10.3 1.7 21.8 1.2 9.6-.4 18.15-2.2 10-2.1 18.3-8.95 8.25-6.9 12.5-16.6 3.95-9.05.5-21.35-2.75-9.95-10.05-21.2-8.75-13.4-9.3-20.9-.65-8.05 7.25-16.2 6.65-6.85 13.15-17.35 7.1-11.45 9.2-19.75"/><path fill="#0d131a" d="m87.25 70.4 2.05-.8q-.55 3.95-2.15 7.2l-.65-.5-.55-.5q.8-1.85 1.3-5.4M73.8 106.2q.95 4.2-.45 7.85-1.45 3.8-4.55 4.5-3.15.7-6.35-2.05-3.15-2.75-4.05-6.9-1-4.45-.2-7.45.9-3.45 3.9-4.1 3.3-.75 7 1.7 3.85 2.5 4.7 6.45M166.55 78q13.5 4.5 18.8 8.05l.35.25v.4q0 8.8-6.95 15.4-7 6.6-16.3 6.6-10.85 0-16.45-10.35-5.4-10.05-4.15-26.35l.8.1q9.85 1.25 23.9 5.9"/><path fill="#fff" d="M183.65 87.2q-.2 7.75-6.55 13.65-6.4 5.9-14.65 5.9-6.6 0-11.45-5.3-3.6-3.9-5.5-9.95-1.9-5.95-1.9-13.45l.15-3.9q9.4 1.3 22.25 5.6 12.35 4.1 17.65 7.45"/><path fill="#0d131a" d="M132.8 14.3q1.55 1.7 2.3 4.3.75 2.55.55 5.5-.25 3.65-1.9 7t-4.3 5.6q-3.05 2.6-6.65 3.9-3.5 1.25-6.95 1-5.75-.55-9.55-5-4.15-5-3.6-11.6.7-7.25 6.35-12.05Q114.5 8.4 121.4 8.8q6.85.4 11.4 5.5"/><path fill="#fcd13e" d="M121.95 38.45q-3.2 1.15-6.25.9-4.9-.4-8.15-4.25-3.6-4.3-3.15-10.2.55-6.3 5.65-10.7 4.85-4 10.95-3.7 6.1.35 10.1 4.85 2.6 2.95 2.3 8.3-.2 3.3-1.7 6.3-1.45 2.95-3.8 5-2.75 2.35-5.95 3.5"/><path fill="#d9b536" d="M131.1 15.35q2.6 2.95 2.3 8.3-.2 3.3-1.7 6.3-1.45 2.95-3.8 5-2.75 2.35-5.95 3.5t-6.25.9q-2.2-.15-4.15-1.15 11.15-.95 15.75-10 4.35-8.5-.25-16 2.25 1.2 4.05 3.15"/><path fill="#0d131a" d="M166.15 3.6q5.5 4 5.3 10.7-.05 2.7-5.8 4.1-5.05 1.25-11.05.85-5.75-.4-10.35-2-5.55-1.95-5.75-4.7-.35-4.7 5.55-8.8 5.75-4 11.7-3.7t10.4 3.55"/><path fill="#fcd13e" d="M164.05 16.7q-4.25 1.1-9.7.75-5.5-.35-9.3-2t-4.6-3.95q.7-3.55 4.8-6.55 4.55-3.4 10-3.1 3.6.2 6.95 1.75 3.3 1.5 5.2 3.8 1.9 2.35 1.9 5.05l-.1 1.1q-.95 2-5.15 3.15"/><path fill="#d9b536" d="M167.4 7.4q1.9 2.35 1.9 5.05l-.1 1.1q-.95 2-5.15 3.15-4.25 1.1-9.7.75-4.2-.3-7.4-1.3 7.2.4 11.75-1.95 5.5-2.85 5.75-9.35 1.95 1.25 2.95 2.55"/><path fill="#0d131a" d="M157.95 76.7q1.75.45 3.6 1.35l.15 2.2q0 2.5-.6 4.15-.6 1.75-1.55 1.75-1 0-1.55-1.75-.55-1.6-.55-4.15 0-1.9.5-3.55M81.8 80q-.6 0-1.05-1.35-.45-1.4-.45-3.35l.1-1.7 2.6-1.1.35 2.8q0 1.95-.45 3.35Q82.45 80 81.8 80"/><path fill="#e50012" d="M84.4 47.2q2.65-2.5 5.3-2.15 2.35.3 1.3 9.8L88.75 68.9q-2.3.2-8.45 4.75-5.35 3.95-5.5 3.15-.35-2 1.1-9.55 1.7-8.8 4.35-14.15 1.8-3.75 4.15-5.9"/><path fill="#ec6d45" d="M91.05 45.9q-3.65 1.05-7.6 10.25-4.15 9.75-3.25 17.4l-2.9 2.4q-2.15 1.6-2.55 1-.6-.9.25-7.85.9-7.55 2.75-11.6 3.75-8.25 7.5-11.25 3.35-2.7 5.8-.35"/><path fill="#0d131a" d="M89.3 45.8q-1-.65-3.3 1.05-3.9 3.15-6.7 9.85-3.3 7.9-3.95 18.6-.05 1.15.55.7 1.4-1.45 5.4-3.95 3.85-2.4 6.25-3.4 1.2-5.05 2.1-11.5 1.4-10.2-.35-11.35m-6.55 1.6q1.55-1.95 3.85-2.85l3.6-.15q2.15 1.15 2 7.8-.1 6.95-2.75 17.5-2.75 1.15-7.05 3.7-4.45 2.65-5.85 4.05-1.35 1.4-2.5.65-1.05-.7-.95-2.55.8-17.1 9.65-28.15"/><path fill="#0d131a" d="M188 56.35q7.55 9.4 7.55 22.4 0 16.65-9.65 28.35-10.05 12.25-25.5 12.25-10.15 0-18.7-9.25-9.25-10-11.6-26.05-2.2-15.25-6.65-21.6-4.45-6.3-12.95-6.3-5.8 0-11.55 5.65-3.1 3-8.5 10.7l-4.55 6.3q-3.3 4.15-7.85 6.5-4.5 2.3-14.45 5l-2.05.55q-5.5 1.6-7.5 7.25-1.6 4.65-.5 10.8t4.4 10.7q2.8 3.8 7.7 5.7 2.9 1.1 10.85 2.65 10.55 2.1 18.1 5.95 7.7 3.9 10.4 8.75 2.15 3.9 1.15 3.95-.95.1-2.85-2.7-3.65-5.25-10.35-8.45-6.5-3.1-19.45-5.95-10.9-2.4-15.4-6.3-4.75-4.1-6.75-13.35-1.75-8.05.4-13.55 2.3-5.9 8.7-7.55 12.8-2.95 18.4-6.6 5.65-3.6 10.8-12.3 10.5-15.45 20.6-15.45 9.55 0 14.4 6.15 4.95 6.35 7.3 22.3 2.25 15.25 10.45 24.9 8.25 9.7 19.3 9.7 12.15 0 21.7-10.55 10.3-11.45 10.3-28.45 0-11.25-6.5-19.9-6.7-8.95-17.3-10.7-11.7-1.9-21.15 8.1-3.6 3.85-5.85 8.5-2.1 4.25-2.1 7.05 7.4.1 22.85 5.15 16.7 5.4 24.85 11.25 1.4 1 .7 1.35-.65.35-1.95-.5-10.05-6.6-26.4-11.1-13.3-3.7-21.35-3.95-1 0-.95-1.6.15-3.55 2.45-8.35 2.5-5.25 6.5-9.45 10.15-10.9 22.8-8.7 10.55 1.85 17.7 10.75m29.05 139.1q-5.85-4.75-3.9-8 2.2-3.65 8-6.85 6.85-3.8 14.3-4.1 7.4-.25 14.1 3.45 8.8 4.85 17.3 16.75 3.7 5.2 4.6 8.45 1 3.6-1.1 5.5-5.4 5.1-25.3-1.35-18.35-6-28-13.85"/><path fill="#e50012" d="M234.6 178.6q7.05-.25 14 3.4 9.05 4.8 17.1 16.05 5.95 8.3 3.1 10.95-4.25 4-22.75-1.85-18-5.75-27.55-13.5-4.3-3.5-3.4-5 2.1-3.4 6.85-6.3 5.9-3.5 12.65-3.75"/><path fill="#c6000b" d="m218.5 193.65-1.95-1.8q24 1.6 33.75-8.9 8.2 5 15.4 15.1 5.95 8.3 3.1 10.95-4.25 4-22.75-1.85-18-5.75-27.55-13.5"/><path fill="#0d131a" d="M260.6 192.8q6.25 1.8 11.55.6 4.45-1.05 10.55-4.95 4.45-2.9 5.5-2 1.7 1.5.95 12.1t-7.1 19.45q-4.7 6.55-11.95 11.6-11.1 7.65-17.2 8.85-7.55 1.45-21.4-2.8-10.65-3.3-14.05-5.05-5.45-2.85-6.8-7.4-1-3.65 1-7.7 1.9-3.8 7.9-10.55l.65-1.1q7.75-8.9 15.2-11.65 10.15-3.75 25.2.6"/><path fill="#e50012" d="M274.7 194.45q3.9-1.15 9.25-4.55 2.3-1.6 2.95-1.65.45.55.45 3.55l-.25 6.35q-.7 10-6.2 18.05-4.15 6.1-10.7 10.65-8 5.5-17.65 7.6-9.6 2.15-16.9-.05l-1.9-.6q-9.9-2.9-13.7-4.7-6.1-2.85-7.15-6.5l-.25-1.9q0-5.9 9.1-16.2 6.7-7.55 14.05-10.3 10.35-3.95 24.15.05 7.75 2.25 14.75.2"/><path fill="#c6000b" d="M280.9 216.2q-4.15 6.1-10.7 10.65-8 5.5-17.65 7.6-9.6 2.15-16.9-.05l-1.9-.6q-9.9-2.9-13.7-4.7-6.1-2.85-7.15-6.5l-.25-1.9q0-3.35 2.85-8 3.95-2.1 9.25-.8l10.85 3.05q17.2 3.35 42.35-11.55 5.65-3.35 9.35-8.75l-.2 3.5q-.7 10-6.2 18.05"/><path fill="#0d131a" d="m250.7 219.5 11.7-.4q4.9 1.1 6.5 3.95l.1.2.05.2q.95 5.3-2.5 9.8-3.75 4.95-11.2 6.5-5.8 1.2-11.8-1.4-6.4-2.8-6.6-7.7-.15-3.2 4.25-6.6 4.15-3.2 9.5-4.55"/><path fill="#fcd13e" d="M251.45 221.15q4.95-1.2 9.1-.55 4.7.75 6.45 3.65l.1 1.5q0 4.2-2.95 7.55-3.25 3.7-9.05 4.85-3.05.65-6.3 0-3.25-.6-5.75-2.3-3.25-2.15-3.85-5.35.15-2.95 3.95-5.7 3.45-2.45 8.3-3.65"/><path fill="#d9b536" d="m267 224.25.1 1.5q0 4.2-2.95 7.55-3.25 3.7-9.05 4.85l-4.45.25q4.8-.3 7.7-4.75 3.45-5.3.75-13.2 5.85.45 7.9 3.8"/><path fill="#0d131a" d="m285.15 202.9.2.05.15.15q3 2.55 3.65 6.85.7 4.65-2.1 8.45-1.9 2.65-6.65 4.05-5.55 1.7-8.6-1.2-2.05-1.95-1.25-5.85.7-3.45 3.2-6.85 2.3-3.1 5.85-4.8 3.45-1.7 5.55-.85"/><path fill="#fcd13e" d="M285.75 216.65q-1.15 1.6-3.35 2.8-2.2 1.15-4.55 1.4-3.2.4-4.9-1-.65-.95-.65-2.3 0-3.5 3.1-7.7 2.05-2.75 4.45-4.25 2.7-1.65 4.85-.95 2.8 2.55 2.8 6.6 0 2.9-1.75 5.4"/><path fill="#d9b536" d="M284.7 204.65q2.8 2.55 2.8 6.6 0 2.9-1.75 5.4-1.85 2.5-5.7 3.75 3.05-1.8 3.95-5.95 1-4.75-1.7-9.9z"/><path fill="#0d131a" d="M178.5 159.25q-2.7-8-.25-9.6 2.55-1.65 13.3 1.9 12.45 4.15 22.2 14.7 13.6 14.75 13.6 35.7 0 20.2-9.1 34.05-11.15 17-32.8 17-18.05 0-29.7-8.75-14.35-10.8-14.35-32.35 0-8.8 4.9-14.25 5.6-6.15 16.15-6.15 3.7 0 7.9 1.3 3.35 1 6.25 2.55 4.05-4 4.85-13.75.9-10.75-2.95-22.35"/><path fill="#e50012" d="M166.25 194q5.05.9 9.05 2.95-1.8 1.7-4.55 3.3-2.6 1.5-4.15 1.85-2.1.45-2.35 1.4t2.7.4q2.75-.5 6.3-2.85 3.5-2.25 5.4-4.65 3.75-4.25 4.65-15.15.8-9.3-.65-15.5l-2.25-7.5-1.3-4.35q-.5-2.1 0-2.6 1.35-1.35 10.95 1.85 11.7 3.95 21 13.1 17.25 16.9 13.8 43.25-3.35 25.45-20.5 36-7.65 4.7-16.85 5.4-9.15.7-18.55-2.6-8.2-2.85-13.95-7.8-6.15-5.3-9-12.65-2.65-6.85-2.6-13.95 0-7.1 2.7-12.2 3.2-5.8 9.2-7.45 4.8-1.35 10.95-.25"/><path fill="#ec6d45" d="M190.2 154.95q-1.4-.05 0 2.3l3.45 5.75q.75 1.5-.15 1.15l-2.4-1.5q-4.05-2.6-3.4.35.55 2.6.35 8-.2 6.65-1.55 12.55-3.8 16.7-14.6 18.35 4.5-2.6 6.75-5.5 3.75-4.25 4.65-15.15.8-9.3-.65-15.5l-2.25-7.5-1.3-4.35q-.5-2.1 0-2.6 1.35-1.35 10.95 1.85 2.5.9 4.45 1.8z"/><path fill="#c6000b" d="M155 240.5q-6.15-5.3-9-12.65l3.35 2.85q4.75 3.85 9.9 6 17.2 7.1 34.4-5.55 13.4-9.85 19.1-26.35 5.35-15.35 3-33.25 12 15.7 9.1 37.95-3.35 25.45-20.5 36-7.65 4.7-16.85 5.4-9.15.7-18.55-2.6-8.2-2.85-13.95-7.8"/><path fill="#0d131a" d="M211.8 172.8q6.15-2.05 11.95.8t7.8 8.9-.85 11.7q-2.95 5.8-9.15 7.9-5.9 1.95-11.3-.75-5.7-2.85-7.8-9.15-2.05-6.2.65-11.8t8.7-7.6"/><path fill="#fcd13e" d="M228.8 192.95q-2.55 5.1-8 6.9-5.05 1.7-9.8-.65-5-2.55-6.75-8-1.85-5.45.5-10.3 2.3-4.85 7.55-6.6 5.35-1.75 10.45.7 5.05 2.45 6.8 7.75 1.7 5.3-.75 10.2"/><path fill="#d9b536" d="M229.55 182.75q1.7 5.3-.75 10.2-2.55 5.1-8 6.9-5.05 1.7-9.8-.65l-.9-.5q7.45 1.15 12.45-5.05 5.55-6.8 2.35-17.35 3.3 2.55 4.65 6.45"/><path fill="#0d131a" d="M211.7 219.65q6.3 2.75 8.5 9.5 2.15 6.6-.8 13.35-2.9 6.6-9.75 9.05-6.35 2.2-12.1-.3-6.25-2.75-8.6-9.6-2.2-6.55.4-12.5 3.1-7 9.95-9.7 6.4-2.5 12.4.2"/><path fill="#fcd13e" d="M217.6 241.05q-2.55 5.8-8.2 8.25t-11.1.05q-5.15-2.25-7.35-7.7-2.35-6.1.35-12.15 2.65-6 8.65-8.45 5.5-2.1 10.65.15 5.45 2.4 7.5 8.2 2.05 5.85-.5 11.65"/><path fill="#d9b536" d="M216.2 225.8q2.3 3.15 2.7 7.2.4 4.15-1.3 8.05-2.45 5.55-7.75 8.05-5.35 2.5-10.65.6 9.6-.75 14.5-8.6 4.5-7.25 2.5-15.3"/></svg>