<svg xmlns="http://www.w3.org/2000/svg" width="237" height="308" viewBox="-0.7 -0.15 236.65 307.65"><path fill="#fff095" d="M106.95 275.8q3.85-3.5 8.4-4.6l6.65-.2q3.85.6 5.6 1.55 3.1 1.7 4.05 5.55 1.55 6.3-1.45 15.95-2.85 9.3-6.7 12.1-.35.25-5.65-4.6-5.35-4.95-5.8-4.8-13.35 4.95-13.8 4.6-1.85-5-.5-10 1.15-4.35 4.3-9.35 2.7-4.2 4.9-6.2"/><path fill="#dccf81" d="M104.55 282q-2.65.65.45-3.3 3-3.8 5.1-4.85 5 1.25 10.45 1.45 6.1.2 10.55-1.1 1.15.25 1 7.95-.15 7.6-1.5 5.05-1.85-3.45-11.4-5.1-9-1.5-14.65-.1"/><path fill="#0d131a" d="M96.05 296.75q-.35-5.35 2.35-10.9 1.65-3.5 4.3-6.85 2.45-3.1 5.1-5.2l3.15.1q2.35.7 1.1 1.4-9.35 5.4-12.55 15.05-1.1 3.4-1.1 6.4-.05 2.6.65 2.95 1.15.6 6.25-1.9 4.45-2.15 8.1-4.7 1.95 3.9 5.75 7.65 3.4 3.35 4.35 3.2 2.25-.35 4.7-10.05 2.65-10.3 1.75-18.65-.2-2.05 1.35-2.35 1.5-.3 1.65.9 1.35 12.65-2.95 24.05-1.7 4.35-3.7 7.1-1.9 2.55-3.05 2.35-1.55-.25-4.85-2.85-4.2-3.35-5.9-7.25-3.6 2.6-9.05 4.2-4.95 1.45-5.7.8-1.45-1.2-1.7-5.45"/><path fill="#e9eff8" d="M160.25 219.4q11.5-12.55 21.9-15.5 8.4-2.45 12.25 1.7 7.85 8.3 11.9 23.7 4.7 17.7-1.3 28.9-6.65 12.35-17.75 18.55-11.9 6.65-28.3 5.9-9.65-.45-17.85-4.75-7.8-4.1-8.85-8.65-3-12.85 8.85-28.8 3.95-5.35 10.3-11.95z"/><path fill="#c9cfd7" d="M156.6 252.55q4.4 5 12.2 7.85 7.5 2.8 15.65 2.7 8.4-.05 14.5-3.2 6.75-3.4 9-9.75-2.3 18.2-21.1 27.05-7.4 3.5-16.05 4.8-7.75 1.2-14.05.35-7.6-.95-17.3-5.05-9.35-3.95-6.85-4.4 8.3-1.5 15.4-8.35 5.5-5.35 8.6-12"/><path fill="#0d131a" d="M141.25 279.6q-6-2.65-8.95-5.2-1.75-1.45-.5-2.65 1.2-1.15 3.4 1.05t7.25 4.5q14.05 6.65 32.4 2.35 20.05-4.65 27.7-19.7 7.1-13.95 2.35-31.6-4.15-15.45-14.4-25.5-2.75-2.75-2.95-4.1-.2-1.3 1.95.5 17.1 14.5 19.8 35.2 2.1 16.25-4.25 27.65-7.6 13.75-25.35 19.45-19.25 6.25-38.45-1.95"/><path fill="#e50012" d="M120.95 76.8q-.5-3.75-.5-19.15 5.1-1.95 11.85-2.1 6.4-.15 10.3 1.35 5.35 2.05 7.65 3.35 4.15 2.25 6.05 5.15-3.55 2.1-16.8 6.65-14.35 4.9-18.55 4.75"/><path fill="#0d131a" d="M120.35 56.3q10.2-3.35 21.55-.6 12.1 2.95 17.75 11.35 1.2 1.8.1 1.8-1.15.05-2.5-1.65-4.7-6.05-14.5-9.15-11.55-3.6-22.45.3l.2-.85q.1-.55-.15-1.2"/><path fill="#e50012" d="M1.8 79.5q5.3-5.05 27.6 6.3 22.2 11.3 49.2 32.7 1.55 1.2-3.4 10.3-4.2 7.8-6.85 10.95-4.8 5.75-6.15 6.5-2.1 1.15-8.8.95-8.85-.25-19.7-10-9.3-8.35-18.1-21.75-8-12.15-12.15-22.8Q-.7 81.85 1.8 79.5"/><path fill="#c6000b" d="M1.7 81.55Q4.15 87.8 11.95 97.8q7.7 9.8 17.55 19.35 23.8 23.05 37.1 24.05l-2.75 4.2q-10.9 3.9-22.95-3.15-10.2-6-20-18.95-8.4-11.1-14.05-23.8Q1.5 87.55 1.7 81.55"/><path fill="#0d131a" d="M.95 86.9q-1.6-6.25-.45-8.7 1.1-2.4 5.25-1.95Q19.7 77.8 44.6 92.7q22.2 13.3 35.05 25.6.5.45-.75.7l-1.75-.2q-15.3-12.5-33.5-23.6-24.5-14.95-37.9-16.25-2.9-.25-3.45 1.6-.45 1.6.75 5.8 2.25 7.8 7.4 17.75 6.05 11.65 13.4 20.85 19.5 24.35 39 20.65 1.45-.25.15.8-1.25 1.1-2.35 1.4-17.35 4.75-37.1-18.85-8-9.5-14.3-21.45-5.9-11.25-8.3-20.6"/><path fill="#e50012" d="M135.1 193.2q-.95-7.05.35-17.8.95-8.2 2.55-14.2l1.3-6.25q.8-3.45 1.8-4.85 2.85-3.85 11.35 2.45 21 15.3 35.25 39.35 6.1 10.35 8.55 18.85 2.55 8.65.55 12.8-1.3 2.7-10.85.75-9.1-1.85-20.5-6.85-12.2-5.35-20.3-11.4-9.3-6.95-10.05-12.85"/><path fill="#e50012" d="m70.95 135.7 7.95-4.2q5.2-2.7 9.4-4.05 12.1-4.05 24.7-.35 9.7 2.8 21.1 12.2 12.7 10.55 19.1 22.95 3.9 7.6 5.15 27.35l.7 14.3q.4 7.3.95 9.85 2.45 10.7 1.05 22.7-2.05 17.85-12.85 27.9-15.45 14.35-36.65 9.95Q93 270.45 75.1 253.95q-2.4-2.25-12.95-4.05-14-2.45-22.15-13.25-6.4-8.4-7-18.95-.35-5.75 1.65-18.8 2.2-14.55 13.25-32.3 7.95-12.85 23.05-30.9"/><path fill="#c6000b" d="M123.25 173.45q7.4 1.85 39.4 25.8 31.9 23.9 29.15 25.15-3.65 1.75-14.3-1.8-9.05-3.05-17-7.55 1.35 6.55.95 11.95-1.15 2.35-7.3-1.9-6.3-4.4-8.2-9.75-.65-1.8-14.1-23.8-11.55-18.85-8.6-18.1m-1.95 102q-13.05-.6-21.3-4.2-9.05-3.95-22.6-15.65-2.2-1.9-3.8-2.75-1.95-1.1-4.25-1.4-8.8-1.35-16-4.4-13.85-5.9-15.9-16.2 7 7.95 19.8 12.65 4.25 1.55 15.25 4.15 1.2.3 5.7 3.7 5.85 4.4 10.25 6.95 16.65 9.75 36.9 9.4 9.65-.15 18.45-5.4 8.5-5.1 13.75-13.45-2.3 10.2-14.2 18.75-11.65 8.35-22.05 7.85"/><path fill="#0d131a" d="m69.75 136.3 2.45.15q-17.35 20.75-24.9 33.6-12.1 20.65-13.55 40.7-.95 13.7 6.05 23.4 5.2 7.2 14.05 11.35 4.3 2 14.4 4.55 6.55 1.6 12.25 6.75 5.85 5.25 10.45 8.2 4.75 3.05 10.75 5.45 14.9 5.8 28.05 2.35 13.05-3.45 22.3-15.5 5.05-6.55 7.15-18.7 2.15-12.15.1-23.2-.2-1.25 1.05-.95t1.35 1.2q1.95 12.05-.2 23.8-2 11.05-7 18.95-4.8 7.55-13.25 12.35-8.6 4.8-18.9 5.55Q98.5 278 79.1 258.6q-4.15-4.15-12.3-6.55l-13.05-3.9q-13.9-5.8-19.4-15-4.85-8.05-4.05-20.45 1.35-20.7 13.1-41.35 8.8-15.4 26.35-35.05"/><path fill="#0d131a" d="M79.8 213.65q1.65 2.7 1.7 6.5.05 4.2-1.75 7.45-2.05 3.65-5.45 3.65t-5.7-3.45q-2.2-3.35-2.05-7.9.15-4.5 2.75-7.2 2.2-2.3 4.85-2.3 3.6 0 5.65 3.25"/><path fill="#e9eff8" d="M70.55 214.25q1.75-2.05 4-1.95 2.15.05 3.45 2.5 1.25 2.25 1.15 5.4l-.2 2.5q-.85 1.75-1.9 2.5-1.55 1.05-4.35 1.1-2.1.05-3.4-1.8-.7-2.1-.7-4.55 0-3.45 1.95-5.7"/><path fill="#c9cfd7" d="M74.3 229.45q-1.3.15-2.65-1.05-1.4-1.35-2.35-3.9 1.3 1.85 3.4 1.8 2.8-.05 4.35-1.1 1.05-.75 1.9-2.5-.45 2.95-1.7 4.75-1.25 1.75-2.95 2"/><path fill="#e9eff8" d="M176.5 45.2q12.15-15.25 12.8-15 .7.2.25 8.3-.45 7.9-1.25 11.6 9.85-1.65 28.15-1.05 17.2.55 17.35 1.7.2 1.3-13.55 7.9-6.9 3.2-13.85 6.35l12.2 6.5q12.15 6.75 12.15 7.7t-22.35 6.05L182 91.2l5.5 6.4q4.55 5.4 4.3 6.35-.25.9-5.85 1.2l-5.25.3q1.05.7 3.15 8.5 2.05 7.7 1.45 8.3-.45.4-5.25-1.5-5.2-2.05-5.85-2.05-1.65 12.6-8.85 19.45-6.7 6.4-18.6 8.05 6.45 5.25 6.2 6.8-.25 1.35-12.6 2.65 10 12.3 8.9 13.9-.75 1-7.35 0-6.45-1-7-1.75 3.9 9.4 5.65 14.5 3.45 10.1 2.15 11.8-.85 1.15-6.6-3.9l-10.1-9.15q-3.75 10.3-9.7 21.3-5.45 10.15-6.4 9.75-1.9-.8-3.65-11.25l-1.35-10.25q-6.15 5.6-19.25 15.1-13.4 9.7-14.65 9.25-2.6-.9-3.85-16.05-1.15-13.6-.35-20-3.55 2.9-9.85 5.7-5.55 2.45-8.1 2.8-.85-8.15 6.9-23.45 8.2-16.1 19.8-27.3-12.05-.15-12.2-1.15-.05-.65 4.65-4.65l4.7-3.85q-4.7-4-5-5-.25-.75 4.4-1.8l9.55-1.85q-7-11.2-4.1-25.4Q80 81.2 86.85 74.1l-3.25-1.9q-1.95-1.35-1.95-1.85t5.15-1.6l7.9-1.35q-2.95-8.65-6.85-21.6-5-16.25-4.65-17.7.15-.85 7.1 1.55 7 2.4 7.1 2.05 3.05-9.5 9.35-20.4 6.05-10.5 7.3-9.25.95.95 1.7 15.25l.55 14.05 7.85-5.4q8.2-5.2 9.9-4.5 1.65.7-5 11.6-7.25 11.25-7.65 12.2-.5 1.35-.7 15.05-.25 12.9 0 16.95 2.25 0 21.1-6.2 19.2-6.35 20.8-7.95 2.55-3.7 13.9-17.9"/><path fill="#c9cfd7" d="M92.05 118.45q2.1-4.15 11.8-2.7 8.65 1.25 12.35 4.2 3.05 2.45-.5 6.15-3.6 3.8-9.35 2.75-4.4-.8-9.8-5.05-5.15-4.05-4.5-5.35"/><path fill="#0d131a" d="m116.45 14.95.85 15.55q0 .85-.95 1.6t-1-.55l-.8-16.95q-.6-10.95-.85-11.05-.45-.2-2.8 3.15-2.55 3.65-5.25 8.6-7.45 13.7-8.8 24.15-.15 1.15-.65 1.35-.55.2-.5-1.9.25-10.9 8.9-25.8 3.2-5.5 6.35-9.5Q113.9-.15 114.7 0q.75.15 1.75 14.95"/><path fill="#0d131a" d="M190 28.65q1.4.45.75 9.4-.6 8.8-2.45 16.25-.55 2.25-1.45 2.4-.9.2-.4-3.35 3.05-20.65 2.05-21.1-.65-.3-11.9 14.25l-14 17.65q-1.25 1.25-21.45 7.95-20.05 6.7-21.1 6.4-.6-.2-.65-15 0-14.95.7-17.8 3.9-5.75 8.4-13.75 4.55-8.1 4.2-8.85-.35-.9-7.6 3.4-7.7 4.5-11.2 8.35-1 1.1-1.5.95-.55-.15.45-1.7 3.45-5.35 12.55-10.25 8.1-4.35 9.55-3.65 1.4.7-3.5 10.15-4.55 8.8-9.35 15.55-.8 2.9-.85 16.35-.05 13.3.6 13.65.6.25 18.6-5.85l21.15-7.15q8.5-11.65 16.4-21.5 10.6-13.25 12-12.75"/><path fill="#0d131a" d="M201.9 65.8q2.2-1.3 16.95-8.05 13.75-6.25 13.8-6.6.05-.75-12.45-1.05l-31.5 1.3q-.95.1-1.15-1.05-.2-1.1.8-1.2 22.4-1.4 36.25-.6 11.35.65 11.35 2.15 0 1.1-12.65 7.1-8.7 4.2-19.5 8.9-4.15 1.8-4.65 1.45t2.75-2.35m-52 28.05q3.35 4.2 3.9 10.6.5 6.15-1.75 11.9-2.35 6.1-6.95 9.5-5 3.7-11.25 3.5-5.65-.25-11.05-3.55-5.2-3.2-8.45-8.2-3.4-5.2-3.45-10.55 0-1.6 1.15-2.3 1.55-.95 1.95-1.65 4.7-8.2 12.25-12.1 6.8-3.5 13.8-2.6 6.15.75 9.85 5.45m-46.5 3.75-2.5 2.35q-2 1.4-5.2 1.45-5.5.1-8.5-2-3.25-2.15-3.2-6.5.15-10.1 8.8-16.7 3.55-2.75 7.15-3.5 3.65-.8 5.7.7 4.1 3 2.6 12.45-1.35 8.85-4.85 11.75"/><path fill="#fff" d="M90.85 91.2q1.3-6.45 6.7-9.95 4.8-3.05 7.3-1.55 2.4 1.5 1.1 8.2-1.15 6.05-2.95 8.05-.55.6-1.5.8l-3.35.5-3.05.9q-1.45.45-2.55-.6-2.45-2.35-1.7-6.35m51.05 7.45q3.25 5.45 2 12.7-1.3 7.6-6.85 11-5.75 3.55-13.3-.75-7.7-4.35-8.2-11.95-.1-1.7-.5-1.8-.2-.05.05-1.05.9-3.85 4.35-7.25 3.25-3.25 7.55-4.85 4.5-1.65 8.35-.85 4.25.95 6.55 4.8"/><path fill="#0d131a" d="M171.55 93.6q-4.3.5-4.85-.1-.6-.65 5.05-1.65 8.55-1.5 32.65-7 24.4-5.6 24.5-6.2.15-.5-10.1-5.9-9.3-4.9-14.2-7.2l2.35-1.6 15.6 8.55q10.2 5.7 10 6.75-.3 1.25-26.9 7.4-26.25 6.15-34.1 6.95"/><path fill="#0d131a" d="m179.7 91.4 2.8-.6q4.2 3.35 7.8 8.35 3.3 4.6 2.8 5.5-.4.85-4.65 1.35l-9.25-.4q-1.3-.3-1.45-1-.2-.7 1.65-.55 3.2.3 7.3.1l3.9-.5q.2-.4-3.3-4.6-3.95-4.65-7.6-7.65"/><path fill="#0d131a" d="M185.15 115.45q1.3 7.35.5 7.65-.85.4-4.25-.7-3.9-1.2-8.3-3.55-2.5-1.35-2-1.95.5-.55 2.55.25l5.55 2.3q4.55 1.8 4.9 1.5.45-.35-1.2-6.75-1.7-6.45-2.95-9.05-.25-.5 1.05-.4 1.3.05 1.55.5 1.3 2.85 2.6 10.2"/><path fill="#0d131a" d="M166.85 137.7q-7.85 8.2-19.3 8.95-.7.05-1.45-.65t-.35-.8q12.8-1.95 20.45-10.3 6.5-7.2 7.15-16.2.05-.6 1.05-.3 1 .25 1 .55-1.05 10.95-8.55 18.75m-41.5-27.9q1.85-4.2 4.8-6.2 2.85-1.95 5.5-.95 2.65 1.05 3.15 5.15.5 3.9-1.3 7.35-1.85 3.6-4.45 5.15-2.8 1.6-5.65.35-2.55-1.1-3.05-4.4-.5-3.1 1-6.45"/><path fill="#fff" d="M129.8 110.85q.55-1.3 1.5-2.05.9-.65 1.45-.4.7.3.85 1.25.2 1.05-.35 2.3-.55 1.2-1.4 1.9-.85.65-1.5.4-.7-.25-.85-1.3t.3-2.1"/><path fill="#0d131a" d="M141.8 142.85q-1.3-1.05-1.05-1.6.25-.6 2.3.75 4.2 2.85 8.15 7 3.7 3.95 3.3 4.7-.3.6-4.85 1.6l-8.5 1.25-2.45-1.55 8.05-1.25q4.75-1 4.75-1.3 0-.4-2.4-2.85z"/><path fill="#0d131a" d="M147.9 168.8q.25-.65-2.95-5.2-3.3-4.7-6.9-8.6-1.55-1.65-.7-1.8.8-.1 2.6 1.45 4.45 3.9 8.1 9.55 3.45 5.2 2.85 6.35l-6.5.25q-6.05-.55-9-1.6-.35-.15-.8-1.05-.45-.95-.2-.85l7.85 1.45q5.4.7 5.65.05"/><path fill="#0d131a" d="M134.15 168.05q-1.1-3.05 0-2.75 1.15.3 2.5 3.4 3.6 8.05 6.1 17.75 2.4 9.2 1.45 9.9-1.05.8-8-4.7-6.65-5.35-10.3-9.65-2.2-2.65-2.3-4.1-.1-1.5 2.1.95 3 3.15 9.3 8.75 6.35 5.55 6.7 5.35T139 182.9q-2.95-9.75-4.85-14.85M75.2 125.8l-5.75 5.15q-4.3 3.8-4.2 4.05l4.05.5 6.25.4q.6.1.15.9t-1.1.8l-6.95-.6q-5.5-.65-5.6-1.15-.15-.65 4.3-4.45 4.1-3.5 7.6-5.9 1.5-1.05 2.15-1.1.7-.1-.9 1.4"/><path fill="#0d131a" d="M97.4 31.05q.75.5.55 1.35-.2.9-.95.5-1.85-1-7.3-2.65-5.5-1.65-5.85-1.3t4.7 16.4q4.15 13.35 7.2 22.35l-6.8 1.4q-5.55 1.25-5.6 1.55t1.8 1.4l3.4 1.95q-9 8.15-10.4 21.35-1.3 12.05 4.05 20.95 1.2 1.95.45 2.5l-3.75.85q-9.6 2-9.95 2.5-.3.5 4.3 4.3.35.3.2.75-.2.45-.6.3-1.75-.6-4.25-2.95-2.4-2.3-2.3-3.1.1-.7 4.25-1.9 4.45-1.25 9.95-2.05-6.6-10.25-4.45-23.55Q78 81.6 85.7 74.35l-3.55-1.95q-2.5-1.45-2.35-2.15t5.95-2.05l7.75-1.75q-3.9-10.7-7.75-22.65-5.15-15.95-4.25-16.85.95-.95 7.45.9 6.1 1.75 8.45 3.2M66.1 176.3q.8-3.6 1.4-3.5t.45 2.95q-.65 11.75.55 24.55 1.2 12.75 2.95 13.2 1.35.35 17.8-12.05l16.6-12.35q.45 5.05 1.65 12.05 1.45 8.65 2.4 8.7 1 .05 6.1-9.7 5.5-10.6 9.35-21l1.55 1.7q-4.2 12.1-9.45 22.25-5.65 10.85-8.15 10.65-1.45-.1-2.9-7.15-1.35-6.3-2-14.25-8.2 7.2-18.95 15.3-13.5 10.15-15.3 9.25-2.8-1.4-4.25-16.95-1.5-15.4.2-23.65"/><path fill="#0d131a" d="M75.9 134.55q1.85-1.85 2.55-1.7t-.85 1.95q-12.85 14.85-18.8 25.75-6.05 11.05-9.05 25.5 10.95-3.4 17.25-8.4.35-.2.2 1l-.3 1.35q-1.25 1-4.9 3-4.35 2.4-8.6 4.15-4.6 1.9-5.45.95-.85-1.05.4-7.05 2.4-11.3 10.3-24.35 7.5-12.45 17.25-22.15m24-46.45q1.75-1.65 3.8-1.55 2.25.1 2.4 2.55.05.55-.7 2.85-.8 2.5-1.55 3.85.55-1.4.5-2.65-.1-1.25-.85-1.5-.7-.3-1.65.6-.85.8-1.35 1.95-.65 1.55-.65 2.8-.05 1.1.35 1.45.3.25 0 .75-.25.5-.75.45-1.5-.15-2.45-.75-1.15-.65-1.15-1.6-.05-2.05.8-4.25 1.05-2.85 3.25-4.95m52.15 62.3q23.35 16.3 37.75 43.35 5.65 10.65 7.9 19.45 2.1 8.45.1 11.25-1.2 1.7-7.5 1.3-6.65-.45-14.9-2.95-21.45-6.6-33.35-20.25-1.85-2.05-1.55-2.95.3-.85 2.15 1.15 9.8 10.75 30.4 18.45 8.5 3.15 14.9 4.1 6.55.95 7.95-.9 1.3-1.7-.4-8.5-1.95-7.65-6.65-16.85-12.9-25.1-36.8-43.95-.4-.35-.45-1.7 0-1.35.45-1"/><path fill="#c9cfd7" d="M119.35 192.95q-2.4-5.6-1.1-6.7 2.85-2.5 9.95-3.6 6.85-1.05 10.05.2 8 3.25 14.5 16.2 5.15 10.25 5.65 16.6-14.55 2.6-23.65 5.55-13.75 6.5-13.45 5.35l.95-5.9.8-6.45-6.9-4.75q-6.95-4.7-6.95-5.45 0-1.6 4.75-2.6l8.75-.95z"/><path fill="#e9eff8" d="m155.45 204.05 1.8 7.05q.95 4.6.3 3.75-6.4-8.2-12.3-14.05 1.5-3-.95-13.75 9 9.75 11.15 17"/><path fill="#0d131a" d="M118.4 193.9q-2.75-6.15-1.75-7.5 2.85-3.8 11.05-5 6.7-.95 10.2.05 5.5 1.45 12.35 11.2 7.5 10.75 8.3 21.1.15 2.05-.4 2.35-.65.35-1.45-2.9-2.6-10.55-7.25-18-4.95-8-11.55-11.4-2.75-1.4-9.95-.25-7.55 1.2-8.45 4-.45 1.35 2.15 7.5l2.65 5.9-.7.35q-.35.2-1.2-.5-1.35-1.1-4-6.9"/><path fill="#e9eff8" d="M122.5 213.9q-.3-.85-6.75-5.35-6.05-4.2-5.55-5.2 1.1-2 7.55-2.6 6.05-.55 8.4.55l4.8 3q4.1 2.8 4.45 3.55l-.3.65q-.55.6-.45 1.8.1.95 1.25 3.4.95 2.1.75 2.9-.45 1.55-2.8 3.85-3.3 3.2-7.65 4.4l-2.25.85-2 .35q-1.35-.3-.3-5.5 1.1-5.9.85-6.65"/><path fill="#0d131a" d="M146.4 191.25q1.8 6.15 0 9.55-.75 1.4-3.9 3.95l-6.2 4.25q-1 .6.25 3.65 1.4 3.4.75 4.6-1.3 2.4-3.6 4.4-2.35 2.05-4.4 2.5l-3 .35q-.9-.1.85-.75 3.5-1.25 5.95-3.75 2.75-2.9 1.9-5.55l-1.65-3.95q-.75-1.85.25-2.6l6.55-4.55q2.9-2.1 3.9-3.8 2.2-3.9-2.3-13.9-.65-1.35.1-1.5.65-.1 1.6.75 1.45 1.25 2.95 6.35"/><path fill="#0d131a" d="M128.85 222.35q6-2.4 11.55-4.15 15.85-5.05 21.55-2.45l1.15.65-.4-.1q-.95-.45-7.55.85-6.25 1.25-14.05 3.3-5.35 1.4-13.45 5-6.25 2.8-7 2.45-.95-.4.3-6.55l1.15-6.65-6.6-4.65q-6.5-4.4-7.1-5.7-1.25-2.6 6.1-3.8 7-1.2 10.95.05 2.4.8 2.75 1.45l-2.05.15-7.45-.4q-5.25.3-6.85 2-.4.4 5.3 4.45 6.2 4.4 6.7 5.95.4 1.3-.65 6.45-.95 4.55-.55 4.35 1.65-.85 6.2-2.65"/><path fill="#dccf81" d="M115.65 115.65q-2.6 4.15-7.7 5.4-4.65 1.15-10.3-.25-5.45-1.4-9.9-4.65-4.65-3.4-6.5-7.65L93.9 112q13.05 3.25 21.75 3.65"/><path fill="#fff095" d="M77.3 106.95q-1.9-.65-1.45-2 .55-1.6 4.45-3.5 14-7 26-4.65 5.95 1.2 9.05 7.7 2.5 5.3 1.9 9.9-.4 2.95-18.65-1.45-12.45-3-21.3-6"/><path fill="#0d131a" d="M116.25 114q.6-4.35-1.8-9.25-2.95-6-8.6-7.15-11.4-2.2-24.85 4.3-6.7 3.3-2.55 4.7 6.4 2.15 19.8 5.4 17.7 4.25 18 2m-1 2.35q-1.5.7-9.4-.7-9.75-1.75-23.2-6 2.35 3.4 6.4 6.25 5.4 3.75 11.3 4.4 5.3.6 9.5-.6 3.95-1.1 5.4-3.35M90.15 96.7q8.9-2.05 16.3-.75 6.4 1.15 9.7 8.55 2.85 6.35 1.6 10.85-1.1 3.95-7.15 5.9-5.3 1.7-10.6.95-7.15-1-13.35-6.05-4.3-3.55-6.55-7.35l-2.5-.95q-2.55-1.05-2.75-2.35-.25-1.55 3.05-3.85 4.4-3.1 12.25-4.95M43.2 217.35q3.35 14.8 2.8 23.65-.55 8.2-4.25 9.65-4.35 1.7-12.1-5.7-8.35-8-12.5-19.6-2.4-6.7-2.9-12.65-.55-5.95 1.15-7.25 1.25-1 4.1.45 2.3 1.15 5.15 3.6 1.65-6.35 4.25-10.2 1.9-2.8 3.15-3.1 2.35-.55 5.75 5.85t5.4 15.3"/><path fill="#dccf81" d="M41.15 221.25q3.85 17 1.55 23.95l-.6 1.5-1.1 1.1q-1.45.6-3.95-1-11.5-7.25-17.25-21.75-4.3-10.8-3.45-16.35l.05-.35q.4-1.05 1.65-.35 2.6 1.25 7.25 5.1l.3.25q.7-2.6 2.95-7.05 1.7-3.4 2.85-5.2l.15-.2q1.25-1.85 2.75.25 3.3 4.75 6.85 20.1"/><path fill="#fff095" d="m25.3 213.1-.8 2q-6-5.4-8.1-6.75.4-1.05 1.65-.35 2.6 1.25 7.25 5.1m15.85 8.15q3.85 17 1.55 23.95l-.6 1.5-1.1 1.1q3-2.55-1.8-23.1-4.6-19.8-7.8-23.6l.15-.2q1.25-1.85 2.75.25 3.3 4.75 6.85 20.1"/></svg>