<svg xmlns="http://www.w3.org/2000/svg" width="319" height="331" viewBox="-0.45 -2.7 319.25 331.1"><path fill="#133732" d="M179.7 122.15q1.4-.15 4 1.2l3.8 2.4q5 3.95 11.65 10.95 6.25 6.55 10.25 11.95 2.55 3.45 3.75 6.7 1.3 3.4 1.4 7.45.4 15.85 8.35 33.7 6.85 15.4 16.9 27.5 2.65 3.25 2.3 8.15-.1 1.5.4 6.4l.7 8.3 5.45 30q1.7 5.5 2.9 8.3 1.55 3.55-.3 7l-7.35 12.05q-1.05 1.9-2.65 2.65l-2.85.15-4.3-1.6-4.75-.3-4.75-1.15q-.75-.25-1.45-1.5l-2.4-.35-5.7-1.9q-1.3-1-1.6-2.65-.4-2.15 1.75-4.05 2.7-2.35 5.3-6.25 2.9-4.4 3.3-7.45l-2.1-30.4q-.05-2.4-.7-7.2l-1.15-7.45q-1.15-5.2-5.45-6.95-5.95-2.35-15.35-9.95-8.9-7.2-13.5-12.95-1.1 3.9.55 15.35.4 3.05-1.15 11.1l-2.3 10.75-5 27.9q-.3 3.5.8 12.45.4 3.1-1.85 4.9-1.9 1.5-5.35 1.8-4.55.35-12.45 3.1-6.1 2.1-10.85 4.3-.65-1.8-.75-3.7 2-.55 2.6-6.05.6-5.25-.45-6.5.5-.9.6-4.3v-4.5l6.85-5.2 4.55-26.95q1.7-4.95 1.4-9.15-.15-2.35-1.45-6.6-1.15-3.75-6.25-15.3-4.9-11-8.2-17.4-16.3 9.95-38.25 10.95-20 .9-33.1-5.65-3.65 4.1-4.65 12.5-.2 1.7-1.75 6.3l-2.15 5.85q-1.9 4.35-2.65 9.3-.65 4.5-.05 7.1.6 2.35.35 5.35-.25 2.85-1.1 5.1-2.2 5.8-5.05 14.35L53.2 288.7q0 2.65 1.1 7.05.55 2.05-1.1 4.15-1.45 1.85-4.1 3.2-2.55 1.35-6.7 4.4l-7.9 6q-1.95 1.5-4.45 1.55-2.1.05-5.45-.95l-8.7-5.25-5.15-1.9-2.95-1.7-2.5-4.8q0-1.65.5-3.35.45-1.6 1-2.05.4-.4 4.95-1.45l6.6-1.55q2.35-.65 6.2-3.25 4.15-2.8 5.1-4.8l8.3-25.15q2.35-8.95 2.9-13.2 1.15-8.75-.85-15.4-3.35-11.1-2.65-36.3.65-24.7 4.25-35.7 1.5-4.4 1.2-8.7-.15-2.15-1.2-6.85l4.35-20.95q.8-4.45 1.4-10.6.6-6.4.6-10.75 0-4.25-1.75-7.35-1.65-2.8-4.3-4L30 51.9q3.75-14.4 18.45-20.85 13.75-6.1 26.65-1.4 13.3 4.8 18.65 16.55Q98.7 57.15 97 74.6L95.6 90q-.75 9.7-.2 12.55 1.3 7.45-1.05 15.65l50.6-1.55z"/><path fill="#ec6c1f" d="M37.25 46.65q1.65.1 2.95 3.1 1.25 2.75 1.75 6.85.5 3.7 1.5 5.25.9 1.4 3.15 2.3 4 1.5 9.5 6.2 6.1 5.15 5.9 8.1-.2 3.7-3.3 7.3-3.5 4.05-7.55 3.7-21-1.5-26.9 1.45-2.8 1.45-5.45.7-3.65-.95-7.3-6.05-2.55-.65-5-2.35-2.6-1.8-3.3-3.65l-.55-5.6q.1-1.1 1.1-1.95.8-.7 2.75-1.7l8.45-4.8 8.75-5.15q2-1.3 3.6-3.25 1.6-1.9 2.25-3.7 1.95-2.8 3.95-4.65 2.35-2.15 3.75-2.1"/><path fill="#fff" d="M59.4 53q.35 3.35-1.8 5.35-2.4 2.2-7.65 3.15-5.2.9-5.75-.7-.5-1.5 4.45-5.9 4.6-4.1 9.1-6.7 1.35 2.4 1.65 4.8"/><path fill="#e50012" d="M51.35 52.8q1.85.55 1.95 3.45.15 2.9-1.6 4.9l-3.35.55-3.05-.25q-1.9-.4-.9-2.1.85-1.35 3.25-3.55 2.25-2.05 3.7-3"/><path fill="#133732" d="M295.75 44.5q-2.95 1.95-7.05 4.15 7.3 4.9 13.35 12.6 6.45 8.2 9.45 17.1 7.3 21.6-8.2 36.4-12.1 11.55-29.35 11.6-14.4 0-33.3-8.05-11.75-5-25.15 1.2-12.25 5.65-17.4 15.9l-3.9-4.1-4.5-4q12.4-14.2 26.1-18.4 13.35-4.15 27.4 1.45 19.2 7.65 33.2 6.85 13.3-.8 21.6-9.15 12.25-12.4 6.5-29.3-4.95-14.5-19.55-25.1-2.1 3.35-4.2 8.6l-7.9-14.1-8.9-15.35q5.6 1.25 17.5 5.85 9.15 3.5 14.3 5.85"/><path fill="#0d131a" d="M9.9 73.3q1.2-.25 2.15.4.8.5 1.15 1.4.35.85.2 1.35-.15.75-1.2 1.45-1.25.8-3.7 1.4l-4.65.5q-1.45-.1-2.1-1.3-.6-1.05-.6-2.75.05-.75.5-1.3.6-.7 1.55-.6l3.2-.05z"/><path fill="#a4abc8" d="M80.85 6.3Q72.8 10.45 66.5 17.65q-5.75 6.6-6 10.55-7.15-.15-14.65 3.95-6.4 3.55-10.3 8.45-3.15-6.8-2.9-13 .3-9.75 8.65-17.45Q50.7 1.5 63.1.95 74.3.45 80.85 6.3M47.6 105.45q.2 3.05-.2 7.05-.35 3.85-.95 6.1-1.3 5.15-.55 13.9.8 9.3 3.35 14.05-.5 1.1-1.65 1-1.05-.1-2.25-1.05-3.45-2.7-6.15-7.85-3.2-6.05-3.6-12.5-.45-7.4 2.95-13.65 3.55-6.6 9.05-7.05m13 35.1q4.1-.05 6.7 3.6 2.45 3.4 2.55 8.4.15 4.65-2 8.5-2.6 4.7-7.35 5.05-3.3.25-5.95-3.35-2.5-3.45-3.15-8.65-.7-5.6 1.9-9.5 2.65-3.95 7.3-4.05m15.6 7.35q-.35-1 .95-1.85 7.95-5.1 14.05-18.1 5.9-12.75 4.7-21.3-.75-5.1-.35-11.35 6.75 1.65 10.2 9.3 3.05 6.8 2.55 15.75-.6 10.55-9.7 19.5-9.35 9.15-20.25 9.05-1.8 0-2.15-1"/><path fill="#a4abc8" d="M128.15 118.9q5.8 6.05 7.9 16.5 2.3 11.15-1.35 20.35-.8 2-1.7 1.7-.85-.35-1.15-2.4-1.85-11.85-8.75-21.35-6.85-9.45-15.2-11.75.4-1.85.4-5.2l-.35-5.35q5.85.1 10.15 1.4 5.95 1.8 10.05 6.1"/><path fill="#a4abc8" d="M123.9 115.6q5.45-4.95 14.2-4.15 8.2.8 12.8 5.8 5.75 6.25 7.1 14.95 1.5 9.5-2.65 19.6-.55 1.35-1.3 1.4-.9.05-1.05-2.05-.75-9.95-6.75-19.4-7.1-11.15-16.15-10.2-2.6-3.5-6.2-5.95"/><path fill="#a4abc8" d="M169 129.6q-7.2-10.15-15.25-8.9-3.05-3.9-5.95-5.75 3.85-4.7 10.7-5.5 7.65-.85 14.1 4.4 6.85 5.55 8.9 13.95 2.3 9.35-2.35 19.2-.55 1.2-1.35 1.3-.9.15-1.25-1.55-1.7-8.9-7.55-17.15M38.2 258.4q-.05 1.3.85 2.1 1.5 1.35 6.3 2.5 5.15 1.3 9.5 1 3.3-.25 4.55-4.65 1.5.3 2.1 1.3.65 1.05.65 3.35 0 2.8-.95 6.4-1.15 4.25-2.75 5.6.95 1.25.55 5-.25 2.8-.95 4.95-.7 2.3-3.45 2.65l-12.3-.5q-7.1-1.15-11.4-3.35l-2.65-1.6q-1.1-1.05-1.15-2.8-.05-2.3.95-5.55 1.1-3.6 2.45-4.25-1-1.65-.3-6.4.55-3.95 1.5-6.15.7-1.65 2.7-2.15l4.3.2q-.5 1.65-.5 2.35m116.95-11.9q.35-3.3.95-5.8.3-1.1 2.05-1.5l3.2-.15q-.15 2.15 2.8 3.75 2.3 1.25 7.5 2.55 4.4 1.15 7.8.1 3.2-1 3.35-3.15 1.65.2 2.55 1.4.8 1.05.8 2.55 0 2.65-1.1 6.2-1.2 4.05-2.6 4.4 2.15 1.85.6 6.95-1.4 4.5-2.8 5.4-2.8 1.75-13.95-.25t-12.35-4.45q-.95-1.95-.55-6.6.4-5 2.25-5.6-.95-1.05-.5-5.8m88.2-1.65 3.55.45q1.15.6 1.7 2.05.6 1.55.75 5.7.2 4.4-.3 8 2.45.9 2.45 7-.05 5.7-1.55 7.75-2.05 2.7-14.4 3.95-12.1 1.25-14.45-.55-2.2-1.7-2.65-7.55-.5-5.85 1.5-7.45-1.65-1.15-2.5-6.35-.65-4-.55-6.7.05-1.55 1.5-2.5 1.2-.75 2.9-.9.35 4.55 11.15 3.2 5.75-.7 8.3-2.15 2.7-1.45 2.6-3.95"/><path fill="#fff" d="M10.3 304.05q-.7.6-4.85 2.15-4.3 1.6-4.65 1.2-.4-.45 1.15-2.9 1.5-2.45 2.9-3.55 1.35-1 2.85-1 1.25 0 2 .6t1 1.7q.25 1.15-.4 1.8m7.3 3.25q-.45 1.05-4.25 2.9t-4.3 1.35q-.6-.65 1.4-3.85 2.05-3.25 3.65-3.85 1.3-.5 2.65.9 1.35 1.35.85 2.55m5.85.65q1.2-.4 2.6 1.15 1.35 1.45 1.05 2.5-.55 1.6-4.25 3.2-3.6 1.55-4.1.75-.5-.85 1.35-3.95 1.85-3.2 3.35-3.65m196.8-5.55-3.1 2.35q-2.2 1.4-2.7 1.15t.05-3q.55-2.55 1.2-3.9.6-1.15 1.7-1.35 1-.15 2.15.6 1.05.7 1.3 2.1.2 1.35-.6 2.05m11 .65q-.55 1.25-3.55 3.1-2.95 1.9-3.55 1.45-.4-.25.3-2.95.75-2.95 2.05-4.2t3.3.2q1.85 1.45 1.45 2.4m8.75 2.45q-1 1.15-3.55 2.45-2.45 1.2-2.8.85-.25-.25.25-2.25.5-2.05 1.2-3.3 1.25-2.3 3.85-.95 2.65 1.35 1.05 3.2M50.8 54q.45-.05.8.3.4.35.35.9 0 1-1.05 1.1-.45.05-.8-.3l-.35-.75q-.05-.5.3-.85.3-.35.75-.4"/><path fill="#8e94ae" d="M49.3 30.7q.25-6.15 6.3-11.15 6.3-5.2 13.3-4.4-6.65 6.95-8.35 12.7Q53.9 28.9 49.3 30.7m-3.2 116.45q-4.05-3-7.15-8.75-4.2-7.9-3.2-16.5.9 5.6 3.6 9.95 2.95 4.75 7.2 6.4.95 4.75 2.7 8.1-.15 1-1.05 1.3-.95.35-2.1-.5m5.2 4.3q1.6 7.4 8.25 8.7 6.35 1.2 10.15-4-1.2 4.35-3.5 7.05-2.75 3.15-6.45 3.1-3.75-.05-6.4-5.25-2.4-4.8-2.05-9.6m26.65-6.1q9.85-2 18.85-11.85 9.6-10.5 10.95-22.7 3.3 13.4-6.15 25.7-9.5 12.4-23.35 12.4-1.9 0-2.15-1-.3-1.15 1.85-2.55"/><path fill="#8e94ae" d="M136.85 144.7q.15 2.75-.45 5.9-.7 3.4-2 5.65-.75 1.25-1.4 1.2-.8-.1-1.1-2.05-1.85-11.05-8.25-20.75-7.1-10.65-15.5-12.65v-2.7q7.85 1.3 15.15 8.25 6.55 6.3 9.35 13.55.7 1.75 1.9 2.9 1.3 1.2 2.3.7m-8.6-25.6q8.45-1.1 15.95 4.55 6.85 5.15 10.05 13.55.6 1.6 1.75 2.55 1.15 1 2.05.55-.15 2.7-.9 6-.8 3.3-1.7 5.2-.85 1.75-1.6 1.55-.8-.15-.9-2.25-.6-9.15-6.15-18.35-6.95-11.45-16.65-11.05zm40.2 9.75q-6.9-9.65-14.5-7.95l-2.1-2.8q7.15-2.15 15.45 3 7.35 4.55 10.4 11 .5 1.05 1.55 1.65 1.2.75 2.65.45.1 2.35-.7 6.25-.8 4.3-1.9 6.05-2.05 3.4-3-.2-2.4-9.85-7.85-17.45m-106.35 134q.35 2.45-.75 7.05-1.2 4.85-2.65 5.7-1.35.8-5.75.7l-6.35-.55q1.35-.25 2.1-1.2l.8-1.75 1.3-5.35q.35-1.5.2-2.25-.25-1.15-1.45-1.55 2.8.45 6.25.05 2.75-.3 3.6-4.25 2.2.2 2.7 3.4"/><path fill="#8e94ae" d="M46.6 275.75q6.45.95 11.75.25 1.35 1.35.5 6.3-.8 4.85-2.3 5.8-2.1 1.35-13.65-.55 2.05-.2 3.2-2.65l.85-2.75.4-2.4q.7-3.35-.75-4m114.4-22.2-.05-2.2.95-6.8q.15-.7.9-1.15l1.75-.15q6.5 2.95 12.7 2.4 6-.5 5.25-3.4 1.95 0 2.9 1.45.75 1.1.7 2.65-.1 2.4-.75 5.3-.8 3.65-1.95 4.5-2.55 1.95-10.45 1.25-6.5-.55-10.95-2.1-.75-.25-1-1.75"/><path fill="#8e94ae" d="M160.5 267.6q-1.45-1.15-1.35-3.65.1-3.25.45-6.05.15-.7.7-1.45.6-.85 1.4-1.05 5.45 1.75 11.15 2.1l9.95-.65q1.8 2 .15 7.15-1.5 4.7-2.85 5.35-2.4 1.15-9.9.1zm82.65-22.65 3.3.2q1.85.65 2.4 2.4.6 2.05.55 7.25-.05 5.25-.7 6.25-.65.9-3.95 1.75l-5.65.95q1.55-.6 1.55-3.05l-.2-4.2-.4-4.25q-.15-.75-.65-1.35-.65-.75-1.5-.7 6.05-1.85 5.25-5.25"/><path fill="#8e94ae" d="M248.7 261.05q2.65.25 2.65 6.75 0 6.1-1.45 7.85-1.05 1.25-4.15 2.25l-5.6 1.15q1.25-.55 1.35-3.25l-.5-9q-.1-2.7-1.75-2.8 6.7-1.05 9.45-2.95"/><path fill="#0e2c27" d="M168.05 178.95q-3.95 1.65-9.8 4.9-5.95 3.35-10.1 6.25-6.35 4.5-17.95 7.9-13.4 3.95-26.3 3.85-21.7-.15-36.4-10.1-14.55-9.8-18.75-26.9 16.65 21.7 50.8 21.25 29.3-.4 64.75-16.35 1.85 5.5 3.75 9.2"/><path fill="#cc5d18" d="m166.65 175.75 1.45 3.45q-6.2 1.8-18.5 10.1-18.05 12.05-43.2 12.75-26.95.7-42.9-13.15-.65-3.45.45-6.6t3.25-4.05q1.65-.65 5.05.65 3.35 1.3 6.75 3.9 7.65 5.95 18.75 7.9 11.35 2 22.3-.95l24.25-7.85q16.65-5.5 22.35-6.15"/><path fill="#ec6c1f" d="M65.9 179.15q.6-.6 1.3-.9 1.65-.65 5.05.65 3.35 1.3 6.75 3.9l2.35 1.7q-8.4-1.75-15.45-5.35"/><path fill="#0e2c27" d="M51.2 172.5q5.35 9.45 11.4 15.15 5 4.6 12.7 8.65-2.8 2.95-4.15 10.75Q70.1 214 67.2 220.4q-1.65 3.7-2.5 10.5-.75 6.1-.3 7.95.4 1.55.2 3.95-.15 2.45-.85 3.95-.9 2-5.25 15-.5 1.25-2.65 1.75l-4.1.35q2.2-6 3.25-14.65.95-7.95.4-12.35-1.05-8.3-1.2-11.85-.3-6.9 1.2-11.4 2.8-8.55.75-22-1.55-9.95-4.95-19.1m127 23.7q-.75 5.9-.35 10.45.5 5.9 2.85 11.2 2.45 5.5 2.95 10.45.6 5.85-1.05 13.4-.4 2-1.45 2.9-1.05.85-3.3 1.05-4.95.4-11.1-1.9-6.5-2.4-5.4-5 1.3-3.15 1.5-6.85.2-4.45-1.4-8.35l-6.85-15.6-7.75-17.45q16.4-10.05 21.2-11.55 4.7 9.3 10.15 17.25"/><path fill="#0e2c27" d="M180.6 192.05q10.45 12.3 19.7 18.9 7.4 5.25 17.55 5.5 6.35.2 9.55 3.45 3 3 3.95 9.55.75 5.15 1.3 11.7.55 6.35.55 9.9-3.6.25-6.7-.05-4.8-.5-4.95-2.35-1.05-12.25-1.55-14.3-.5-2.15-1.75-3.6-1.5-1.8-4.5-3.15-12.05-5.3-27.35-21.9-17.4-18.85-22.1-35.95 7.1 11.5 16.3 22.3M313.05 96.5q-2.45 12.5-13 21.05-9.9 8-25.5 8.75-15.15.7-28.2-5.6-13.15-6.3-25.45-3.2-13.55 3.45-22.9 17.8l-2.5-2.85q10.45-15.35 23.35-18.9 12.45-3.4 28.6 3.8 12.35 5.5 26.5 5.35 15.95-.15 24.9-8.1 7.4-6.55 10.85-15.7 4.6-12.45-.45-25.6 6.25 10.95 3.8 23.2M27.4 286.6l2.1-2.6q3.9 2.7 11.5 4.1l12.05.4q.3 4.8.95 6.7.55 1.8-.45 3.75-1.15 2.15-3.7 3.45-2.4 1.2-7.25 4.9-4.3 3.2-7.25 5.8-1.7 1.5-4.55 1.8-3.15.35-6.45-.9 3.1-1.65 2.95-3.35 1.5-.05 3.55-.95 2.2-.95 3.35-2.15t4.95-4.05q3.65-2.8 5.4-3.85 2.25-1.35 1.95-3.95-.35-2.6-2.6-3.2-11.95-3.2-16.5-5.9m-10.15 18.85q.75.55 2.2.65 1.6.1 2.95-.5-.6 1.85-.45 3.05l-1.75 2.75-2.3-1.15-1.95-1.5q.9-.5 1.35-1.4.5-1-.05-1.9m-5.35-3.75q.15 1.35 1.75 1.95l-1.45 1.6L11 307q-1.6-.75-3.15-1.85.95-.15 3-1.2.1-1.25 1.05-2.25m147.45-9.6q-7.15 2.35-11.6 4.3l-.7-3.7q1.95-.55 2.65-6 .7-5.3-.5-6.6.55-.65.7-1.8l.05-2 5.5-4.4q3-2.7 4.25-4.4l9 1.65 8.8.75q-.1 1.7.15 4.95l.8 6.85q1.05 6.5-7.2 7.3-3.45.3-11.9 3.1m89.45-15.35q.45 2.15 2.75 8.25 1.35 3.85-.35 6.85l-3.65 6.1-3.7 6.35q-.85 1.65-2.5 2.25l-2.7.15q1.8-1.1 1.7-2.45-.1-1.25-1.65-2.15l-2.6-.05q-1.1.7-1.7 2.5-1.05-.75-.9-2.3.15-1.45 1-2.2.2 1.45 3.35.9 3.05-.55 4.1-1.9 1.45-1.9 2.4-5.1.85-2.8.9-4.95.1-2-1.3-3.3-1.45-1.4-3.95-1.35l-8.6-.4q-5.75-.55-8-1.75l.3-2.55q7.45.65 14.8-.35 6.2-.85 10.3-2.55m-24 22.75q.4.9 1.1 1.3-.6 1.2-1.15 3.2l-.75-.5-.6-.95q-1.7-.1-2.6-.65.25-.6.15-1.4-.15-.8-.5-1.3l2-.2q1.2-.6 2-1.65-.05 1.2.35 2.15"/><path fill="#0e2c27" d="m230.75 301.4 2.65.1q-.2.75 0 1.6.15.9.7 1.35l-.1.95q-2.8.4-4.6-.45 1.25-.85 1.7-1.8.45-1.05-.35-1.75m-17.2-3.55q-.3-1.85 1-3.25.1 2.65 1.55 3.7l-.95 1.75q-1.3-.5-1.6-2.2"/><path fill="#cc5d18" d="M8.6 79.3q.95 2.6 7.55 3.55 7.05 1 14.1-1.15-5.9 3.55-14 3.95-9.9.45-12.65-5.95z"/><path fill="#cc5d18" d="M37.6 88.85q-8.95.25-11.6 1.25-6.5 2.55-9.05.8-2.45-1.7-5.35-5.35l7.5-.3q5.5-.7 8.9-2.35 1.3 1.15 6.4 1.65t9.4-.1q2.3-.3 4.6.8 2.75 1.25 4.25 4.05z"/><path fill="#0e2c27" d="m41.4 88.9 6.1.15 5.15.25q1.6 3 1.4 7.45-.3 5.95-3.85 14.9-3.65 9.25-4.1 14.55l1.15-14.05q.9-10.55.7-12.7-.25-3.35-1.85-6.25-1.85-3.55-4.7-4.3"/><path fill="#dbdcdc" d="M.8 307.55q1.3-1.45 4.5-3.75l4.45-3.05q.6.65.75 1.7.2 1.1-.25 1.6-.5.55-3.95 1.8-3.45 1.3-5.5 1.7m8.55 3.85 7.1-6.8q1.3 1.5.8 2.8-.25.8-3.25 2.45-3.2 1.8-4.65 1.55m9.45 4.05 4.3-3.25 3.05-3.2q1.6 2.1.2 3.5-1.45 1.35-3.75 2.4-2.65 1.2-3.8.55m195.6-9.5 2.35-3.85q1.75-2.7 2.75-3.75.95.85 1.35 1.75.5 1.2-.35 2l-3.15 2.35q-2.05 1.3-2.95 1.5m15.3-5.4q.75.45 1.15 1.1.45.7.25 1.35-.35 1.05-3.1 2.9-2.75 1.8-3.8 1.75l2.5-3.65q1.85-2.4 3-3.45m9.25 1.8q.7.25 1.25 1.2t.25 1.45q-.75 1.15-3.3 2.6-2.45 1.3-3.5 1.35 2.35-3.65 5.3-6.6"/><path fill="#0d131a" d="M51.5 149.25q1.95.55 3.55 3.05 1.6 2.4 1.85 5-2.8.45-4.95-.9-1.15-4.1-.45-7.15m18.05.3.05 3.05q-1.45 2.15-4 3.55-2.45 1.35-4.3 1.15-.25-3.6 2-5.9 2.4-2.45 6.25-1.85m-10.9-101.2q1.65 2.85 1.4 6.05-.25 3.65-3 5.35-2.75 1.75-6.55 2.4l-4.95.15q-1.45-.2-2.05-1-.55-.8-.05-1.8 1.45-2.9 7.1-7.15 5-3.8 9.35-5.85l1.3-.15q.2.4-.85 1zm-.15 5.75q.15-2.6-1.1-5l-5.8 4.15Q45.95 57.6 44.75 60q-.4.8.95 1.05l5.35-.45q3.05-.8 5.3-2.15 2-1.3 2.15-4.35"/><path fill="#0d131a" d="M50.6 61.25q2-1.7 1.9-4.6-.1-2.85-1.8-3.4l1.1-1q1.95.9 2.3 3.55.3 2.85-1.75 5.3zm-1.85-6.35q.75-.05.95 1.6l-.1 1.15q-.25.6-.7.65-.4.05-.7-.55l-.25-1.15q-.05-.65.2-1.15t.6-.55M12.2 73.05q1.05.55 1.55 1.65.35.8.3 1.6-.1.9-.65 1.35Q12 78.9 9.55 79.7q-2.3.75-4.5.75-2.65 0-3.45-1-.6-.8-.85-2.1-.2-1.3 0-2.55.35-1.55 2.9-1.45L10 72.8zm.4 2.1q-.75-1.7-2.45-1.35l-6.7.65q-1.4 0-1.6.8l.05 1.8q.15 1.05.6 1.6.5.65 2.5.65l4.15-.65q2.15-.6 3.4-1.6.6-.5.05-1.9"/><path fill="#0d131a" d="M40.2 48q2.3 4.8 2.55 9.95.15 1.95.85 3.1.9 1.45 2.9 2.1 3.4 1.15 8.1 4.7 5.05 3.8 7.6 7.45 1.1 1.6 1.25 3.25.1 1.7-.9 3.8-1.55 3.4-4.8 5.8-3.4 2.5-6.45 2.25-6.95-.6-14.45-.35-8.55.25-11.7 1.55-2.85 1.15-4.75 1.15-2.05.05-3.85-1.1-3.1-1.9-6-6.3l1.65-.05q2.2 2.95 5.2 4.85 1.25.8 2.7.7 1.6-.05 4.45-1.2 3.25-1.3 12.1-1.65 7.6-.25 14.75.25 2.45.2 5-1.75 2.5-1.95 3.9-5 1.4-2.95-.05-5.05-2.5-3.6-7.15-7.3-4.35-3.45-7.2-4.35-2.3-.7-3.4-2.4-1.1-1.6-1.3-4.35-.15-2.15-.8-4.8t-1.45-4.4q-.55-1.1-1.45-1.35-.95-.3-2 .45-2.2 1.55-6 6.65l.65-3.3q2.4-3.1 4.7-4.75 1.5-1 3-.65 1.55.4 2.35 2.1"/><path fill="#0d131a" d="M47.55 93.05q1.5 2.9 1.45 6.85-.15 11.05-1.55 18.6-1.3 6.65-.7 14.95.65 9.25 3.4 13.75.6.95.25 1.15-.4.2-1-.65-3.45-4.95-4.3-15-.65-8.25.5-14.5 1.15-6 1.3-18.3.05-3.5-1.55-6.25-1.95-3.35-5.9-4.4l3.85-.45q2.75 1.35 4.25 4.25"/><path fill="#0d131a" d="M77.9 146.5q-2.05 1.65.55 1.7 8.75.2 17.4-7.3 7.75-6.8 9.9-14.2 3.05-10.55.05-19.2-2.8-8.2-9.5-11-.25 6.4.3 9.65.6 11.5-4.3 22.15-4.95 10.6-14.4 18.2m16.9-57.7 1.25-13.45q1.5-19.2-3.65-29.7-5.25-10.8-18.7-14.8-7.25-2.15-14.4-1.55-7.35.6-13.5 4.05-11.7 6.5-15.2 19.55-1.25 4.55-5.7 7.5Q19.4 64.15 5 72.15 2.2 73.7 3.25 77.5q1.05 3.7 4.7 5.95 3.55 2.2 10.6 1.3Q24.6 84 28.7 81.9q4.15-2.05 10.15-1.9 5.5.15 7.65 1.8.75.6.5 1.1-.2.35-1.15.35L44 82.9l-1.9-.9q-1.3-.65-2.35-.75l-5.3.3q-2.95.55-5 1.6-4.5 2.3-10.25 3.1-7.4 1-11.9-1.65-4.85-2.85-5.7-7.35-.8-4.35 2.65-6.3 15.2-8.5 19.9-11.75 3.9-2.6 5-6.7 1.9-7.1 5.75-12.2 3.9-5.1 10.05-8.6 6.4-3.55 14.1-4.35 7.75-.8 15.1 1.35 14.5 4.35 20 15.15 5.55 10.8 3.95 31.55l-.75 7.05-1 12.15q7.5 2.25 11.05 11.55 3.7 9.75.45 21.05-2.4 8.3-10.75 15.25-9.05 7.55-18.7 7.3-2.6-.05-3-1.4t1.55-2.95q8.65-7 13.6-18.05 4.8-10.8 4.15-21.1-.85-4.8.1-17.45"/><path fill="#0d131a" d="M47.75 106.3q-3.75.45-6.8 4.8-3 4.3-3.9 10.35-2.2 15.1 9.05 24.75 1.05.95 1.8.85t.85-1.15l.7 1.05q.1 1.05-1.3 1.4-1.55.35-3-.85-6.1-5.15-8.75-12.7-2.35-6.75-1.5-13.8.85-6.75 4.3-11.3 3.6-4.7 8.65-5.05zm13.1 35.2q-3.85 0-6.35 2.9-2.75 3.2-2.35 8.5.35 4.8 2.55 8.5 2.4 3.95 5.5 3.95 3.85 0 6.4-4 2.3-3.75 2.3-8.65 0-4.95-2.25-8.05-2.25-3.15-5.8-3.15m6.9 1.7q2.85 3.75 2.85 9.5 0 6.05-2.9 10.15-3 4.25-7.55 4.25-3.85 0-6.65-4.2-2.7-4-3.15-9.9-.5-6 2.8-9.85 3.1-3.6 7.75-3.65 4.05 0 6.85 3.7"/><path fill="#0d131a" d="m51.35 149.9.3-1.15q2.35.65 4.05 3.45 1.5 2.5 1.75 5.25 0 .45-.35.5l-2.4.1q-1.65-.2-2.7-.95l-.2-1.7q.95.9 2.3 1.3l2.25.25q-.45-2.3-1.8-4.35-1.5-2.2-3.2-2.7m18.4 3.5q-1.65 2.4-4.65 3.7-2.4 1-4 .8-.35-.1-.35-.4-.6-4.1 2.3-6.75 2.75-2.55 6.3-1.8l.2 1.2q-3.05-.8-5.55 1.25-2.55 2.15-2.3 5.45 1.95.1 4.65-1.7 2.7-1.85 3.2-3.65zm6.35 43.3q-3.1 3.2-4.05 10.5-.85 6.55-4.5 15.45-1.3 3.2-1.9 8.55-.6 5-.1 7.8.8 4.2-1.15 8.75l-2.55 6.75q-2 5.5-2.55 7.65-1.15 4.2-12.2 2.25-4.4-.75-7.35-2.2-3.2-1.6-2.85-3.2 2.65-11.8 3.2-16.1.4-3.25.25-5.75-.2-2.6-1.1-5.35-2.95-9.2-2.95-32.9-.05-26.05 4.4-40.55 2.75-9.15-1.15-18.05l2.9 2.95q2.55 7.8.2 15.6-4.4 14.4-4.4 40.1.05 23.3 2.95 32.45 1 3 1.15 5.55.1 2.35-.35 6.15l-1.3 7.85-1.55 7.7q-.6 2.45 8.6 4.05 9.25 1.6 10.05-1.35l2.35-7.55q1.7-5.15 2.35-6.7 1.4-3.35.6-7.9-.5-2.75.25-8.2.7-5.55 2.15-8.95l2.95-7.8q1.2-3.8 1.65-7.25.95-6.95 4.85-11.35z"/><path fill="#0d131a" d="M32.65 258.55q-1.05 2.35-1.6 6.3-.6 4.1.15 5.05 1.9 2.4 13 4.35 10.85 1.95 13.9.75 1.25-.5 2.1-4.55.7-3.2.85-6.65.05-1.75-.45-2.65-.45-.85-1.5-1.15l.45-1.5q3.75 1 3.6 5.45-.05 3.4-.95 6.9-1.2 4.85-3.4 5.95-3.05 1.45-14.7-.6-12.1-2.15-14.5-5.35-1.05-1.35-.45-6.25.5-4.45 1.5-6.85.8-1.85 2.85-2.55 2.2-.75 5.15.1l-.4 1.6-3.25-.3q-1.65.3-2.35 1.95"/><path fill="#0d131a" d="M28.35 282.15q2.8 3.3 13.2 5.2 10.3 1.9 14.4-.05 1-.45 1.7-3.5.6-2.7.65-5.5.1-1.7-.8-2.05l1.55-.65q1.15.8 1.25 2.75.05 2.5-.9 5.95-1.1 4.05-2.6 4.75-5.05 2.35-15.95.35t-14.25-5.95q-1.05-1.25-.25-5.75.6-3.3 1.45-5.5.75-1.6 2.55-2l1.05 1.25q-1.3.1-1.85 1.55-.9 2.3-1.35 5.1-.55 3.25.15 4.05"/><path fill="#0d131a" d="M7.55 295.6q-1.35.8-1.35 4.55l-1.55.75q-.3-5.4 1.7-6.7.6-.4 5.8-1.6 5.45-1.3 6.8-1.95 4-1.95 6.2-3.4 2.85-1.85 4-3.55l1.3.7q-1.7 2.35-4.85 4.5-2 1.35-5.8 3.4-1.7.9-6.8 1.95-5 1.1-5.45 1.35m46.4-6.9q.1 1.95 1.2 6.55 1.25 4.8-4.35 7.85-2.75 1.55-5.85 3.6-4.55 2.95-6.45 4.85-1.5 1.5-3.65 2.95-2.55 1.65-3.95 1.75-3.95.25-7.75-1.7l1.85-1.2 5.8.55q1.25-.1 3.25-1.25l3.35-2.45q1.95-1.9 6.65-5.1l5.8-3.75q2.05-1.25 2.8-2.6.8-1.45.35-3.25-.6-2.25-.8-6.9zM168.4 180q-4.7 1.7-9 4.1-3.45 1.9-9.3 5.85-7.3 5-17.55 8.55-9.8 3.4-18.45 4.2-22.8 2.2-39.65-5.6-20.5-9.5-26.2-32.05-.2-.85.2-.9.4-.1.7.7 7.75 22 27.2 30.6 15.65 6.95 37.55 4.7 8.9-.9 17.9-3.8 9.9-3.2 17.25-8.05 5.6-3.7 9.55-5.8 4.3-2.35 8.9-4.1zm47.9 113.8q-1.65 1.55-1.85 3.2-.25 1.7 1.2 2.65l-.6 1.45q-2.2-1.25-2.35-3.8-.15-2.6 1.95-4.6 3.6-3.5 5.45-6.45l1.9-3.1q.9-1.8 1-3.65l1.55.1q-.15 3.25-2.85 7.55-2.25 3.5-5.4 6.65m7.25 9.45q-1.8 0-3.2-.75l.85-1.15q.95.4 1.7.4zm10.5 2.7-2.65.25q-1.5-.1-2.7-.65l1.15-1.1q2.45.6 4.55 0zm15.5-29.55q.75 2.6 3.25 9.25.55 1.6.35 3.5-.15 1.85-1 3.15l-7.6 12.5q-1.05 2-3.3 2.7-1.95.6-3.75-.05l1.4-1.3q1.55.25 2.55-.3.85-.55 1.6-1.95 1.65-3.2 7.25-12.4 1.55-2.5.55-5.35l-2.9-9.05z"/><path fill="#0d131a" d="M147.95 190.2q13.65 31.05 14.4 33.35 1.5 4.45 1.65 7.1.25 3.85-1.6 8.55-.5 1.35 2.3 2.9 2.65 1.4 6.55 2.25 10 2.1 10.5-2l.95-5.9 1.15-5.35q.9-3.6 1.1-7.6.15-3.65-.35-6.35t-.5-7.05q-.05-3.65.2-6.45l1.9 2.05q-.4 4.85.75 11.15.45 2.6.1 6.7-.35 4-1.3 7.95l-1.35 5.45q-.95 4.05-1.15 5.9-.3 2.75-4.25 3.5l-8.4-.3q-4.8-.95-7.8-2.9-3.35-2.1-2.5-4.25 1.8-4.6 1.7-8.1-.05-2.55-1.45-6.75l-6.05-14.1-8.3-18.75z"/><path fill="#0d131a" d="M156.05 246.6q-.35 3.6 0 4.65.95 2.75 11.8 4.65 11 1.95 15-.35.5-.35 1.35-3.75.8-3.35.9-5.55.1-1.3-.55-2.15-.65-.95-2.05-1.05l.1-1.5q2 .1 3.25 1.5 1.2 1.35 1.1 3.35-.1 2.2-1.05 6-1.1 4.2-1.95 4.7-4.55 2.6-16.45.6-11.9-2.05-13.2-5.6-.5-1.45-.15-5.6.4-3.85 1.05-6.15.35-1.25 2-1.8l4.2-.2-.2 1.55q-3.7-.5-4.15 1-.65 2.25-1 5.7"/><path fill="#0d131a" d="M155 264.05q1.85 2.55 12.25 4.25 10.2 1.65 12.55.15.75-.45 1.85-3.5 1.05-2.9 1.2-4.7.2-2.15-1.2-3.05l1.35-.6q.75.4 1.15 1.35.5 1.05.35 2.4-.2 2.05-1.3 5.35-1.3 3.65-2.45 4.45-2.3 1.6-13.75-.3-11.7-1.9-13.8-4.7-.75-1-.75-4.9 0-3.45.4-5.5.4-2.1 2.55-2.8l1 1.2q-1.3.2-1.7 1.9-.4 1.95-.3 5.05.05 3.2.6 3.95"/><path fill="#0d131a" d="M150 270.7q1.95-1.7 6.2-4.6l1.4.65q-4.25 3-7.45 6zm10 20.2q7.9-2.55 11.45-2.95 3.8-.4 5.05-1.9 1.2-1.5.6-4.95-.95-5.9-.5-11.35l1.7.1q-.25 3.7.95 11.05.7 4.1-.7 6.05-1.65 2.4-6.9 3-4.1.45-11.4 2.75-7.8 2.45-12.2 4.9l-.3-1.8q4.2-2.25 12.25-4.9m19.25-169.8q5.55-.05 17.75 11.95 9.1 8.95 14.6 16.5 4.15 5.7 4.15 12.4 0 15.2 6.85 32.05 6.85 16.8 18.4 29.95 2.25 2.55 2.1 6.3-.1 2.65.5 8.65l.65 7.65q0 4.25-11.85 5.4-4.8.45-8.2-.2-3.75-.75-3.85-2.55-.5-9.6-1.35-13.6-.7-3.1-1.3-4.1-.95-1.55-3.7-2.85-14.8-7.05-28.85-22.5-15.75-17.4-21.15-35.9-.3-.95.1-1.05.4-.15.75.75 6.8 18.4 21.9 34.95 13.85 15.15 28.05 22 3.05 1.5 4.45 3.55 1.05 1.55 1.75 4.75l1.15 7.65.55 5.85q.15 2.3 9.7 1.4 9.5-.9 9.55-3.8l-.5-7.95q-.45-5.9-.3-7.95.05-1.6-.4-2.75l-1.6-2.3q-11.85-13.5-18.75-30.6-6.95-17.05-6.95-32.7 0-3.25-.9-5.9-.9-2.7-2.95-5.45-6.55-9-14.15-16.7-10.15-10.35-15.6-10.95z"/><path fill="#0d131a" d="m243.15 244.1 3.75.35q1.65.6 2.35 1.9 1 1.85 1.15 7.9.15 6.1-.9 7.55-1.45 2.05-13.8 3.5-12.2 1.5-15.6.2-2.55-1-3.65-7.2-.8-4.8-.4-7.95.15-1.35 1.5-2.35 1.5-1.05 3.9-1.15l.05 1.75q-3.1.1-3.35 1.95-.45 3.3.2 7.6.75 4.95 2.55 5.65 3.1 1.15 14.35-.2 11.3-1.35 12.5-3.05.85-1.15.75-6.45-.1-5.25-1.05-6.95-.9-1.7-4.2-1.35z"/><path fill="#0d131a" d="M250.75 276.6q-2.15 2.65-13.35 3.95-10.9 1.2-16-.25-3.6-1.05-4.1-12.35-.05-1.3.6-2.4.65-1.15 1.65-1.55l1.2 1.05q-1.5.45-1.35 3 .45 9.85 2.55 10.4 4.75 1.3 14.8.25 10.45-1.05 12.4-3.5.8-1 .95-5.05.15-3.25-.1-5.9-.15-2.25-1.75-2.45l.85-1.25q1.2.25 2 1.2t.95 2.35q.25 2.55 0 6.35-.3 4.9-1.3 6.15m-112.9-136.8q.85 9.8-2.65 16.6-1.25 2.4-2.5 2.3t-1.65-2.7q-1.65-12.05-9.1-22.05-7.05-9.4-14.2-10.8l.15-2.1q7.85 1.5 15.2 11.15 7.8 10.35 9.5 23.3.15.85.45.9.35.1.8-.9 3-6.85 2.1-15.55-1-9.65-6.45-17.4-3.3-4.7-8.6-7.45-6.1-3.15-13.1-2.65l-.2-1.7q8.65-.3 14.65 2.65 5.4 2.6 9.25 8.15 5.45 7.9 6.35 18.25"/><path fill="#0d131a" d="M129.7 120.55q8.7-.4 15.7 8.3 7.2 8.95 8.3 22.5.05.8.3.85.3.05.6-.75 4.6-12.3 1.95-22.25-2.2-8.3-8.6-13.1-5.05-3.8-11.35-3.9-6.6-.15-11.95 3.85l-1.45-1.2q5.85-4.45 13.05-4.55 7.2-.05 12.9 4.25 6.6 5 9.05 14.3 2.85 11.05-2.25 23.2-1.05 2.5-2.3 2.5-1.3 0-1.6-3.05-1.05-12.4-7.9-21.15-6.45-8.3-13.45-8z"/><path fill="#0d131a" d="M166.55 127.95q-5.95-7.1-12.35-6.3l-.9-1.75q7.55-1.2 14.1 6.2 6.45 7.3 9.95 20.75.3 1 .8.05 4.95-10.65 2.15-20.1-2.45-8.3-9.8-13.1-5.5-3.6-11.15-3.35-6.15.3-10.3 5.1l-1.7-1.15q4.75-5.55 12.1-5.8 6.6-.25 12.3 3.5 7.6 4.95 10.25 14.25 2.95 10.5-2.5 21.4-.85 1.75-1.95 1.75t-1.65-2q-3.45-12.45-9.35-19.45M62 .1q11.65-.9 20.15 5.85l-2 1.15q-7.65-5.95-18.2-4.95Q52.25 3 44.45 9 36.4 15.2 34.4 23.35 32.5 31.2 36.35 40L35 41.8q-4.95-9.5-2.85-18.6Q34.3 14.1 43.1 7.35 51.5.95 62 .1m228.05 48.65q19.15 14.25 23.45 34 4.35 19.75-9.1 32.2-12.15 11.25-27.7 12.3-15.55 1.1-36.3-7.9-9.15-3.95-20.2-.6-13.2 4.05-21.4 17.4l-1.55-1.55q8.5-13.8 22.55-17.95 11.75-3.45 21.35.7 20.45 8.9 35.25 7.9 14.75-.95 26.7-11.95 13.25-12.3 8.35-31.6-4.75-18.8-23.25-32.3l-.4-.7q0-.4.5-.65l5.85-3.45-11.85-4.65q-8.65-3.2-16.05-5.45 5.8 9.7 14.45 25.9 2.35-5.5 3.35-7.4.55-1 1.4-.3 16.8 13.65 20.75 28.25 4.15 15.35-7.25 27.65-8.5 9.15-22.4 9.85-13.95.65-34.1-7.2-14.1-5.45-26.8-1.3t-25.2 18.3l-1.85-1.65q12.5-14.1 26.45-18.5 13.85-4.4 28.15 1.1 19.9 7.75 33.05 7.2 13.15-.5 21.45-9.45 10.55-11.3 6.8-25.55-3.55-13.75-19.3-26.65-2.8 5.2-3.7 7.7-.25.7-.8.7-.5 0-.85-.7-9.85-18.5-16.4-29.2-.6-1-.25-1.3.3-.3 1.4 0 7.65 2.25 18.4 6.4 8.15 3.15 13.15 5.4.6.3.6.7t-.55.75zm-279.2 255.7q-.9.85-5.6 2.55-4.85 1.7-5.2 1.15-.5-.8 1.3-3.85 1.8-3.2 3.7-4.35 2.15-1.3 4.4-.3 1.35.55 1.8 2.35.45 1.7-.4 2.45M8.9 300.8q-1.5-.6-3.1.3-1.45.9-3 3.2-1.5 2.15-1.25 2.5.15.2 4-1.35l4.25-1.9q.4-.4.05-1.45-.35-1.1-.95-1.3m5.7 3.65q-1.15 0-3.2 3-1.95 2.85-1.6 3.4.25.45 3.55-1.45 3.25-1.85 3.5-2.55 0-.8-.7-1.6-.75-.8-1.55-.8m3.75 2.55q0 1.6-4.75 3.8-4.65 2.15-5.3 1.35-.7-.95 1.75-5 2.55-4.25 4.6-4.25 1.3.05 2.55 1.5 1.15 1.35 1.15 2.6m2.65 4.6q-1.9 2.75-1.55 3.3.45.65 3.65-1 3.25-1.65 3.25-2.65 0-.9-.75-1.7-.85-.85-1.9-.8-.8.1-2.7 2.85m5.8-3.15q1.1 1.3 1.1 2.95 0 1.85-4.5 3.9-4.45 2.05-5.4.8-.8-1 1.5-4.85 2.3-3.9 4.2-4.05 1.85-.15 3.1 1.25"/><path fill="#0d131a" d="m22.8 308.4-1.55 1.6q-.45-1.75-.3-3.1.2-1.65 1.35-2.15 4-1.75 5.55-3.7.55-.65.85-.5.35.2-.05.95-1.05 1.9-5.25 4.4-.55.3-.7 1.05-.15.7.1 1.45m-2.75-11.8q-.75.85-3.6 2.5-2.75 1.55-3.35 2.3-1.05 1.3-1.3 2.35-.2.95.2 2l-1.3 1.4q-1.75-3.25.95-6.5.85-1.05 3.85-2.4l3.8-2.15q.75-.8 1.1-.55t-.35 1.05m-.15 15.55q-1.15-.35-2.45-1.15l-2.1-1.75 1.1-.9 1.9 1.4 2.5 1.05z"/><path fill="#0d131a" d="m10.9 307.5-2.05-.8q-1.25-.6-1.7-1.1l1.55-.7q.75.7 1.8 1zm210.8-5.9q-.25.9-3.6 3.2-3.4 2.3-4 1.95-1.2-.7-.2-5.05.95-4.4 3.05-4.7 2.2-.3 3.75 1.35 1.35 1.55 1 3.25m-2.15-2.25q-1.05-1.05-2.4-.95-.85.1-1.75 3.4-.85 3.2-.55 3.45l2.75-1.7 2.7-2.3q.3-.9-.75-1.9m10.05 1.95q-1.15-.85-1.95-.85-1.15 0-2.3 3.2-1.1 3.05-.75 3.4l3-1.6q2.8-1.85 3-2.75.1-.55-1-1.4m2.2 1.65q-.35 1.5-3.75 3.7-3.45 2.2-4.4 1.6-.9-.5.5-4.7 1.45-4.25 3.35-4.4 1.45-.1 3 1.25t1.3 2.55m2.25 5.3q.25.3 2.95-1.25 2.8-1.6 2.8-2.4 0-1.7-1.8-2.15t-2.55 1.4q-1.65 4.05-1.4 4.4m.25-5.05q1.05-2.45 3.8-1.8t2.9 3.2q.1 1.45-3.5 3.45-3.5 1.95-4.5 1.45-.55-.3.25-3.1z"/><path fill="#0d131a" d="M226.9 295.6q-3.25 3.15-3.25 5 0 .85.35 1.55.4.8.95.95l-.45 1.65q-1-.25-1.7-1.45-.65-1.2-.65-2.5-.05-2.85 3.75-6.05 1.8-1.5 2.35-3.8.25-.95.6-.95t.35 1q-.05 2.55-2.3 4.6m10.95-.95q.35 1.6-.35 2.4-1 1.05-2.05 2.6-1.4 2.05-1.4 3t.75 1.3l-.7 1.4q-.7-.35-1.15-1.2t-.4-1.5q.05-1.4 1.6-3.5l2.2-2.7q.7-.75.6-1.7-.1-.7.3-.75t.6.65"/><path fill="#a4abc8" d="M129.6 15.95q4.95 7.45 6.2 16.35 1.3 9.4-2.05 17.65-3.7 9.15-12.4 15.05-2.3 1.6-2.95.75-.6-.75.25-2.45 5.85-11.75 4.75-22.55-1.15-11.1-9.05-14-6.65-2.5-13.25 1.2-5.45 3.05-10 9.7-2.6 3.85-8.45 4.35-5.2.45-11-1.85-5.75-2.3-8.9-6-3.4-4.05-1.9-7.95Q63 20.6 68.8 15.15q5.95-5.6 13.7-9.2 18.7-8.65 34.7-1 7.3 3.5 12.4 11"/><path fill="#133732" d="M84.8 180.05q-.25-3.8 7.6-6.7 7-2.6 17.3-3.5 10.25-.9 17.15.45 7.75 1.5 7.25 5.2-1 7.7-.1 26.1.85 16.9 2.4 28 1.65 11.3 7.3 21.65 2.9 5.25 1.35 16.6l2.15 25q0 3.35 1.6 6.55.65 1.35.6 2.65 0 1.65-1.05 3.8l-4 8.2q-3.05 6.15-3.45 7.5-.55 1.7-2.4 2.4l-3.5-.2-5.65-2.35-5.35-.55-6.05-.95q-2-.15-4.4-1.05l-5.8-2.9q-1.15-3.05-.05-5.45 1-2.2 4.05-4.1 2.7-1.65 6.05-5.85 2.9-3.65 4.55-6.8l-.6-26.45q-.2-7.55-2.9-14.4-2.85-7.05-7.45-11-8.8-7.55-17.35-27.75-8.35-19.8-9.25-34.1"/><path fill="#a4abc8" d="M118.4 292.25q-1.05-.95-1.1-5.8-.05-5.05 1.75-5.65-2.8-2.25-2-11.7.3-3.2 4.7-3.55-.05 1.55.6 2.25.5.55 1.95 1.05 3 1 8.85 1 5.9 0 9.7-1.1 2.7-.75 2.7-3.75l2.85.4q1.2.55 1.45 2.3.25 2.25.15 6.2-.1 4.4-.6 6.6.95 1.15.45 5.9-.45 4.6-1.5 5.55-2.5 2.25-15.05 2.35-12.5.05-14.9-2.05"/><path fill="#fff" d="M113.95 318.35q-.9 1.5-4.2 3.1-3.1 1.55-3.55 1.2-.35-.25.15-2.45t1.3-3.95q1.45-3.2 4.75-1.95 3.25 1.3 1.55 4.05m8.2-1.5q1.25.25 1.85 1.55.65 1.3 0 2.45-.65 1.2-3.2 3.1-2.35 1.85-2.75 1.75-.25-.1-.2-2.55.05-2.3.25-3.8.2-1.35 1.35-2.05 1.2-.7 2.7-.45m13.2 6.3q-.7 1.3-2.85 3-2.1 1.7-2.7 1.5-.3-.1-.5-2.35-.2-2.4 0-4.05.2-1.6 1.75-2.15l2.75-.05q1.25.4 1.75 1.6.45 1.25-.2 2.5"/><path fill="#8e94ae" d="M83.5 41.85q-5.45 1.1-10.7-1.5 9.05-17.45 21.75-23.2 11.2-5.05 21.65.1 10 4.95 13.8 16.2 4.05 12.05-1.7 25.05l-3.65 3.85-3.35 2.75q-2.35 1.5-3 .65-.6-.8.5-2.9 6.25-11.95 4.45-23-1.65-10.1-8.2-12.65-6.05-2.35-12-.15-6.3 2.3-11.1 9.35-2.95 4.35-8.45 5.45m60.2 226.4q2.05-.85 2.05-3.4 1.35 0 2.55.8 1.35.9 1.5 2.25.3 1.9.3 6.25-.05 4.9-.65 5.85-.65 1.05-4.35 1.75l-5.85.55q1.7-.55 1.9-3.1l-.1-7.05q-.2-2.45-2.15-2.7 2.3-.15 4.8-1.2"/><path fill="#8e94ae" d="M140.45 283.85q-.3-1.2-1.2-1.55 5.7-.25 9.8-1.9 1.3.9.7 5.9-.5 4.6-1.4 5.85-.6.85-4.1 1.35l-6.45.55q1-.4 1.7-1.25.6-.8.7-1.6l.35-5.35z"/><path fill="#0e2c27" d="M137.85 236q2.45 8.95 4.5 12.45 1.7 2.85 2.45 4.95.95 2.6.95 5.05V264q-.1 2.95-.6 3.55-1.15 1.3-4.95 2.15 0-5.3-6.7-12.4-7.55-8-15-6-4.15-6.75-6.9-9.3-4.8-4.5-10.5-13.7-6.85-11.15-9.75-21.6 2.8 6.35 8.7 11.9 5.75 5.4 12.45 8.15 7.05 2.9 12.8 1.9 6.4-1.15 9.8-6.95.25 5.25 2.75 14.3m-15.45 57.7 13.25.55q7.3-.35 11.4-1.55.45 3.55 2.05 7.5.85 2.3-.4 4.8l-4.1 8.25-3.95 8.35q-.8 1.95-2.6 2.4-1.5.4-3.1-.35 1.05-1.6.55-2.85-.45-1.05-1.85-1.7l-2.45-.05q-1.05.45-1.7 1.4-.65-.95-.75-2.7-.05-1.65.35-2.55.35 1.95 3.7 2.3 3.25.35 4.55-1.2 1-1.2 2.3-4.4 1.25-3.15 1.75-5.5.65-3.25-.4-5.15-1.1-1.95-3.6-1.7l-8.15-.25q-5.85-.6-8.95-1.75z"/><path fill="#0e2c27" d="M122.15 316.9q-1.4-.25-2.55.35-1.15.65-1.45 1.95-1-1-1.1-3.2-.1-2.65 1.6-4.3-.45 2.65 3.35 4.4 3.6 1.65 6.45.75 0 .7.3 1.8.3 1.25.75 1.8l-.25.95-5.15-.55q.75-1.35.1-2.55-.65-1.1-2.05-1.4"/><path fill="#0e2c27" d="M107.25 312.05q.15-2.45 1.6-3.25-.3 2.1 2.65 3.55 3.05 1.5 6 .4-.55 1.4-.5 3.4.05 2.2.85 3.5-3-.35-4.15-.9.9-.9.75-2.05-.2-1.2-1.5-1.95-1.35-.85-2.75-.6-1.45.3-2.3 1.75-.8-1.65-.65-3.85"/><path fill="#dbdcdc" d="M106.1 322.35q2-1.5 4.1-3.9 2.05-2.3 2.8-3.9 1.1.7 1.4 2.05.35 1.6-1.15 2.65-5.5 3.95-7.15 3.1m16.5-5.2q1.25.25 1.65 1.4.35 1.2-.45 2.45-.8 1.3-2.85 2.8-2 1.55-2.95 1.6l2.75-4.05q1.45-2.45 1.85-4.2m11.5 1.9q2.1 1.25 1.6 3.15-.3 1.2-2.25 3.05-2.05 2-3.65 2.3l2.35-3.95z"/><path fill="#0d131a" d="M107.4 318.95q-.95 2.75-.65 3.05.25.25 2.7-1.15 2.5-1.45 3.65-2.55 1.6-1.55-.25-2.75l-3.6-.1q-.9.65-1.85 3.5m.95-4.7q2.7-2.25 5.6.1 2.85 2.35.15 4.95-1.45 1.35-3.55 2.5-2.15 1.15-4.3 1.65-.9.25-.85-.75.2-2.45 1.05-4.95.85-2.6 1.9-3.5m13.5 3.4q-2.35-.65-2.9 1.55l-.45 3.35q-.25 2.25-.05 2.3L121 323q2.35-2 2.7-3.05.55-1.65-1.85-2.3m.3 6.15-3.75 2.5q-.85.45-1.05-.45-.85-3.6.15-6.95 1.05-3.6 4.85-2.7t2.7 4.1q-.45 1.45-2.9 3.5m8-2.55q-.25 1.2-.25 3.3 0 2.15.25 2.25.45.2 2.15-1.25 1.85-1.6 2.6-3.2.8-1.8-1.75-2.65-2.55-.8-3 1.55m.4-2.9 3.1-.1q1.7.5 2.45 1.75.9 1.4 0 3-1.85 3.45-6 5.3l-.75.1q-.25-.1-.35-.55-.9-3.8-.4-6.9.35-1.9 1.95-2.6"/><path fill="#0d131a" d="M123.3 293.7q-1.35 3.35-4.75 7.65-3.65 4.5-6.7 6.25-2.6 1.45-3.4 3.3t0 4.45l-1 1.65q-1.65-3.55-.8-6.35.85-2.9 4.15-4.75 2.6-1.45 6.1-5.4 3.45-3.95 4.8-7zm-5.3 26.75-2.5-.35-2.25-.75.85-1.1 1.8.55 2.25.25z"/><path fill="#0d131a" d="m123.85 308.05-4.1 3.6q-1.6 1.1-1.9 3.4-.3 2.1.7 3.75l-1.25 1.3q-1.45-2.15-1.1-5.1.35-3.15 2.6-4.45l4.5-3.25q.8-.65 1.05-.3.2.35-.5 1.05m6.55 4.05 3.9-2.55q.8-.55 1.05-.25.25.25-.45.9l-3.8 2.95q-1.35 1.05-1.6 3.15-.2 2.05.65 3.45l-1.2 1.7q-1.45-2.15-1.15-4.95.25-3.1 2.6-4.4"/><path fill="#0d131a" d="m129.35 321.95-2.85.05-2.75-.55.65-1.3 2.65.45 2.55-.1zm18.5-29.55q.45 3.3 2.1 7.5 1.05 2.8-.55 6.2l-4.15 8.3q-3.6 7.05-4.05 8.3-.6 1.7-2.8 2.3-2.25.6-3.85-.6l.75-1.45q1.3.7 2.55.4 1.3-.35 1.7-1.55.7-1.9 7.9-16.35.75-1.6.85-2.75.05-1.05-.45-2.25l-1.05-3.5q-.6-2.35-.65-4.1zm-62.7-112.6q1.95 16.25 10.25 35.05 8.15 18.55 16.55 26.15 4.75 4.3 7.9 11.7 3.1 7.4 2.9 14.05-.05 2.3 10.7 2.35 10.7 0 11-2.7 1-9.85-1.2-13.85-6.3-11.65-7.8-21.4-2.05-13.4-2.5-29.15-.35-13.8.6-26.25.1-1.25.55-1.2t.4 1.25q-.4 11.1.3 25 .85 16.3 3.05 30.05 1.6 10.3 7.25 20.75 2.15 3.95 1.1 15.4-.35 3.8-12.95 3.95-5.15.05-8.7-.9-3.9-1-3.85-2.8.2-6.5-2.65-13.55-2.9-7.05-7.5-11.2-9-8.15-17.15-27.05-8.4-19.55-9.15-35.55-.05-1.15.4-1.2.4-.05.5 1.1"/><path fill="#0d131a" d="M119.9 280.4q2.9 1.7 15.2 1.25 12.3-.4 13.55-2.2.5-.75.45-5.4-.05-4.4-.45-6.5-.35-1.85-3.15-1.85v-1.6q2.05-.15 3.55.75 1.45.85 1.7 2.3.35 2 .3 6.9-.05 5.45-.7 6.45-1.95 2.85-15.5 3.15-13.3.25-16.4-2-2.8-2-2.45-12.9.05-1.65 1.75-2.75t4.05-1.05v1.7q-1.45.05-2.4.55-1.15.55-1.2 1.55l-.05 6.3q.25 4.5 1.75 5.35"/><path fill="#0d131a" d="M119.45 291.65q3.15 2.65 13.9 2.45 10.6-.2 14.2-2.75 1-.7 1.55-8.7.05-1.15-.55-1.9l1.3-1q1.25 1.1 1.1 2.95-.65 9-2.25 10.2-4.3 3.4-15.75 3.4-11.3 0-14.95-3.1-1-.85-1.35-5.2l-.2-4.8q.05-2 1.95-2.65l1.25.85q-1.05.5-1.1 2.05-.25 7.25.9 8.2m7.45-277.3q-5.75-7.15-13.45-9.65Q97.7-.5 81.85 7.35q-14.6 7.2-20 19.9-.5 1.1-.15 2.35.3 1 1.35 2.6 2.45 3.7 7.7 6.2 5.25 2.55 10.5 2.55 6.5 0 9.15-4.2Q98 24.6 109.3 24.8q5.45.1 9.3 3.5 3.7 3.3 5.25 8.9 3.35 12.25-4.45 25.9-.95 1.75-.45 2.25.55.4 1.9-.6 9-6.6 12.45-16.2 3.05-8.7 1.1-18.2-1.85-9-7.5-16m8 35q-3.8 10.05-13.5 16.6-2.4 1.65-3.65.7-1.3-1 .35-4.05 6.9-12.85 3.85-24.35-3-11.35-12.7-11.35-4.85 0-9.4 3.1-4.45 3-7.9 8.45-1.6 2.45-4.3 3.55-2.25.9-6.35 1.15-6 .35-11.8-2.55-5.6-2.8-8.65-7.35-2.55-3.75-1.15-6.95Q66 12.1 81.85 4.9 98.1-2.5 114 2.65q8.45 2.75 14.65 10.45 6 7.5 7.8 17.1 1.95 10.05-1.55 19.15"/></svg>