<svg xmlns="http://www.w3.org/2000/svg" width="262" height="378" viewBox="-0.35 -0.15 261.5 378.2"><path fill="#fff" d="M215.2 138.7q4.45.6 8.5 4.3 4.7 4.3 4.35 9.55-.1 1.55-2.7 11.8-2 8.1-1.05 15.4l1.55 11.25 1.05 9.05q.8 11.65-6.85 22.9-2.45 1.45-8.25 3.85-6.25 2.6-11.1 4.05-4.6 1.35-9.65.95-6.2-.55-11.2-3.75-.95-2.1-2.9-8.25-1.45-4.65-3.5-7.55 4.35-1.1 7.35-4.85 3.45-4.3 5.9-12.9 2.45-12.1 3.85-18.5 2.55-11.45 7.6-19.5 4.95-7.85 11.5-13.6 3.3-2.9 5.55-4.2"/><path fill="#dbdcdc" d="m186.4 196.45 2.75-13.25q2-10.05 3.7-15.65 8.2 14.1 10.35 30.8 2 16-1.75 32.25l-.75.25q-5.95 1.75-9.8 1.45-5.1-.45-11.05-4.25-.95-2.1-2.9-8.25-1.45-4.65-3.5-7.55 3.9-.95 7.65-5.5 3.8-4.6 5.3-10.3"/><path fill="#57c2e9" d="m251.4 228.8-9.7-1.25q-7.2-.5-12.85 1.55-13.8 6.4-22.55 9.1-16.05 5-25-.7l-2.45-10q3.65 3.35 9.9 4.35 8.45 1.3 17.85-3 10.3-4.75 15.7-6.75 9.35-3.5 15.8-3.85 7.35-.4 12.7 1.2 5.4 1.6 5.8 4.25.45 2.85-.55 4.05-1.2 1.45-4.65 1.05"/><path fill="#4ba9cb" d="M206.6 228.85q2.8-1.45 2.65 3-.2 4.4-3.2 6.4-15.85 4.9-24.75-.75l-2.45-10q3.8 3.5 10 4.55 8.6 1.5 17.75-3.2"/><path fill="#57c2e9" d="M230.85 93.9q-7.65 6.35-8.8 7.8-7.55 9.7-9.5 19.15-.7 3.6-.35 5.95.4 2.15 1.45 2.05 2.65-.3 8.35-5.55 6.7-6.15 14.2-9.15 9.65-3.8 16.05-7.3 3.85-2.1 6.35-.05 2.55 2.1-.4 6-1.75 2.4-9.7 5.65-10.6 4.3-13.1 5.75-6.1 3.5-16.25 11.05-10.7 8.05-14.75 12.4-5.45 5.85-9.55 14.95-4 9-5.1 17.6-1.5 11.8-5.55 20.8-4.7 10.6-10.7 11.2l-3.85-6.25q4.5-2.1 6.3-5.85 3.2-6.55 5.65-25.6 2.4-18.85 15.75-32.55 3.75-3.9 5-7.8 1-3.05 1.25-9.6.25-7.8 2.8-13.75 3.9-9.2 14.05-18.35 4.35-3.9 8.1-5.75 4.65-2.25 5.75.3 1.3 2.95-3.45 6.9"/><path fill="#4ba9cb" d="M181.6 174.5q1.85-14.1 9.75-25.35 2.8.8 3.8 4.05 1.15 3.7-.45 9.75-3.9 9-4.95 17.25-1.5 11.8-5.55 20.8-4.7 10.6-10.7 11.2l-3.85-6.25q4.5-2.1 6.3-5.85 3.2-6.55 5.65-25.6"/><path fill="#0d131a" d="M225.15 146.4q-2.35-4.75-10.4-7.1l1.3-1.3q4.5 1.35 7.1 2.8 3.35 1.9 4.6 4.4 3.35 6.6-1.45 20.4-1.75 5.1-1.1 13 .4 4.95 2.8 18.1 1.1 6-.7 13.05-1.75 6.85-5.6 12.4l-2.15.35q4.25-7.1 5.55-13.55 1.2-6 .05-12.4-1.85-9.85-2.2-16.7-.55-9.45 1.45-15.1 4.1-11.85.75-18.35"/><path fill="#0d131a" d="M251.5 227.9q2.85.3 3.75-.65.85-.85.4-3.4-.3-2.1-5.2-3.5-5.25-1.55-12.3-1.15-6.3.35-15.5 3.75-5.5 2.05-15.5 6.7l-.15.05q-9.6 4.45-18.1 3.25-6.55-.9-10.35-4.5l.95-1.65q3.6 3.3 9.7 4.15 8.05 1.15 17-2.95l.15-.1q10.45-4.8 15.8-6.75 9.35-3.5 15.9-3.85 8.05-.4 13.35 1.25 5.55 1.75 6.6 5.25.4 1.2.2 2.55-.2 1.5-1.1 2.45-1.65 1.75-5.55 1.35l-3.1-.45-9.75-.55q-6.55.2-11.35 1.95l-7.7 3.3q-12.25 5.35-19.35 6.7-11.65 2.25-19.5-2.8l1-1.55q7.3 4.6 19.4 1.85 6.95-1.55 20.1-7.3l7.25-3.05q4.95-1.85 10.95-1.75l9 .95zm-45.15-41.7 4.45-5.65q2.5-3.15 3.95-4.35 1.75-1.45 2.05-.95.25.45-1 1.9l-9 11.35q-4.15 5.2-9.7 11.05-5.25 5.5-7.8 7.5-2.25 1.8-2.35.95-.05-.85 1.55-2.15 1.65-1.35 7.45-7.7zm-1.5 27.75q7.3-3.5 11.75-7 2.7-2.15 2.35-.95t-2.95 3.4q-2.35 2.05-10.6 6.05-10.05 4.9-17.25 6.2-2.05.35-2.75 0-.75-.45 1.8-1.1 9.35-2.6 17.65-6.6m14.2-122.2q5.85-5.3 10.7-7 4.8-1.65 6.05 1.2 1 2.2-.4 4.5-1.3 2.15-5.5 5.45-4.95 3.9-7.1 6.55-5 6.4-7.6 13.1-2.05 5.3-2.2 9.5 0 1.75 1.5 1.9 2 .15 5.9-3.45l5.75-5.15q4.1-3.2 9.15-5.15 10.3-4.05 16.55-7.45 2.25-1.25 4.5-1.2 2.35.05 3.55 1.45 1.15 1.35 1.15 3.3 0 2.1-1.4 3.9-2.05 2.6-12.05 7.05-10.25 4.3-11.75 5.15-6.05 3.45-15.9 10.7-10.9 7.9-14.85 12.2-5.15 5.55-9.45 15.65-4.15 9.8-5.25 18.5-1.4 10.75-5.05 19.05-4.9 10.95-11.8 11.6l-.15-1.85q5.3-.55 9.8-10.4 4.1-8.95 5.6-20.75 1.15-8.9 5.3-18 4.1-9.15 9.6-15.1 4.2-4.5 15.05-12.6 10.15-7.55 16.2-11 1.55-.85 11.2-4.75 9.3-4 11.3-6.4 1.1-1.3 1.3-2.5t-.5-1.95q-.7-.85-2.2-.95-1.65-.05-3.35.85-6.6 3.55-16.15 7.35-4.9 1.95-9 4.85-2.35 1.7-5.85 4.95l-3.85 3.3q-2.05 1.4-4.1 1.65-1.2.1-1.9-1.15-1.6-2.9.3-10.05 2.4-8.75 9.2-17.45 1.9-2.45 6.75-6.25l4.55-4.05q1.5-1.85.8-3.5-.7-1.5-3.6-.35-3.45 1.4-8.75 6.15-10.4 9.35-14.2 18.85-2.1 5.35-2.35 12.55-.25 6.7-1.3 9.95-1.35 4.1-5.25 8.1-13.1 13.45-15.5 32-2.4 18.95-5.6 25.75-1.95 4.2-6.4 6.25l-.8-1.7q3.65-1.7 5.7-6.7 2.9-7.25 5.3-25.6 1.25-9.5 4.75-16.65t10.25-14.15q3.8-3.9 5.3-7.6 1.4-3.65 1.65-9.7.35-8.85 2.9-14.95 3.7-9 13.5-17.8"/><path fill="#4ba9cb" d="M163.7 24.8q-4.6.55-9.3 3l-7.25 4.1q-5.65 2.8-11.1 3.85-7.85 1.45-10.25-2.35-2.3-3.7 7.5-6.2 4.9-1.25 10.25-1.8 4.25-3.6 11.15-6.25 6.45-2.5 9.6-2.2 3.9.4 4.6 3.7.7 3.45-5.2 4.15"/><path fill="#57c2e9" d="M204.3 24.5q-.15 1.85-1.9 3-2 1.3-5.25 1.15-3.55-.2-8.6 1.55l-9.35 3.75q-12.65 5.1-21.1 3.25-12.25-3.65-17.65-5-9.35-2.4-14.6.45l.85-9.05q7.9-2.05 18.7 1.05l8.35 2.5q4.7 1.35 7.9 1.5 6.2.3 17.65-4.05 11.8-4.55 18.75-4.55 3.05 0 4.8 1.4 1.55 1.3 1.45 3.05"/><path fill="#4ba9cb" d="M202.85 21.45q1.55 1.3 1.45 3.05-.15 1.85-1.9 3-2 1.3-5.25 1.15-3.55-.2-8.6 1.55l-9.35 3.75q-12.65 5.1-21.1 3.25l-9.35-2.55q9.65 1.4 17.35-.6 9.15-2.4 11.9-9 7.05-2.65 9.6-3.4 5.55-1.6 10.45-1.6 3.05 0 4.8 1.4"/><path fill="#57c2e9" d="M155.7 104.6q1.9 6.95-6.85 21.3-4.85 7.9-14.5 22-4.85 8.25 1.8 17.2 3.75 5 21.8 20.95 11.8 10.5 17.2 20.3 4.25 7.7 6.65 17.75 1.4 5.8 3.35 17.3 1.2 6 .5 13.9-.4 4.85-2.35 16.05-4.4 25.65-4.15 44.1.35 26.45-6.1 40-5.85 12.2-20.05 18.9-6.75 3.2-15 2.15-7.8-.95-15.2-5.45-7.5-4.55-12.55-11.55-5.4-7.35-6.9-15.9-3.25-18.7 8.35-32.15 5-5.75 11.55-8.7 6.55-2.9 12.8-2.15-6.55-5.8-17.05-12.25-12.55-7.8-15.7-10.15-8.1-6-12.8-13.4-5.7-8.9-8.2-22.1-4.65-24.3 4.9-48.8 3.4-8.8 9.35-19.35l9.7-16.55q2.25-3.85.75-6.75-.9-1.75-4.75-4.9-1.9-1.55-9-3.25t-8.55-2.9q-5.1-4.15 0-9.7 4.55-4.95 16.6-10.35 24-10.7 54.4-15.55"/><path fill="#4ba9cb" d="M155.7 104.6q1.9 6.95-6.85 21.3-4.85 7.9-14.5 22-3.75 6.35-1.45 12.05 1.85 4.55 9.9 13.1-4.1-1.25-9.35-5.85l-9.1-8.75q-5.3-5.15-8.75-6.9-4.65-2.45-8.4-.45-2.45-4.95-9.95-7l-5.75-1.45q-3.1-.85-4.6-2.1-15.2-12.4 25.3-25.4 20.25-6.5 43.5-10.55m-10.35 184.2q-1.1-12.2-.9-14.1 15.45-13.95 19.75-36.1 3.65-19-.45-47.25 11.15 8.4 15.25 20.4 1.6 4.65 3.1 12.35l2.8 15.05q1.2 6 .55 14.3-.45 5.15-2.3 16.8-4.25 26.9-4 45.2.25 19.45-3.1 31.75-3.25 11.75-10.4 19-12.25 6.4-20.15 2.65-6.65-3.15-9.7-13.1-2.5-8.2-2.15-19 .35-9.5 2.45-15.05 2.35-6.15 9.5-11.05 2.3-1.6 2.45-2.65.25-1.45-2.3-3.95.65-3.55-.4-15.25"/><path fill="#f9be00" d="M116 188.15q1.8 4.6 10.6 34.4 9.2 29.65 14.4 38.55 5.75 9.75 7.7 22.8 1.2 8 1.2 21.25-3.85-2.3-6.35-3.3-3.55-1.4-6.45-1.3-3.6-3.85-10.65-7.85l-6.3-3.25q-10.25-7.75-17.7-16.4-10.55-12.3-13.95-24.85-3.65-13.4-1.85-30.5 1.65-15.65 6.95-28.05 3.85-9 11.9-8.9 3.4 0 6.25 2 2.95 2 4.25 5.4"/><path fill="#d7a400" d="M141.45 261.8q5.7 9.7 7.45 22.5 1 7.1 1 21-2.3-1.3-5.25-2.55-5.85-2.55-8.8-2.45-3.4-3.65-10.25-7.95 8.6.05 12-5.15 4.45-6.7 3.85-25.4"/><path fill="#fff" d="M174.7 147.15q-7.45 2.25-16.1-.2-5.25-1.5-10.3-5.05-4.9-3.45-10.5-9.4l8.3-10.95 12.4-.6q8.8.8 15 4.05 5.15 2.7 8.15 7.5 2.95 4.65 1.75 7.8-1.85 4.7-8.7 6.85"/><path fill="#dbdcdc" d="M146.65 122q4.5-1.2 11.65-.7 8.35.55 14.25 3.35-6.7 14.25-25.55 16.75-2.4-1.45-5.2-4.3-2.55-2.5-4.5-5.2z"/><path fill="#57c2e9" d="M114 29.2q-3.9-1.3-9.2-.5-6.35 1-11.25 4.7 1.25 6.7 7.3 29.15l3.05-.25 5.15-.3q2.05-5.8 4.95-32.8m51.9 51.35q4.75-.15 9.3-3.5l7.3-6.8q1.2-1.2 2.15-1t1.25 1.6q1.1 4.95 1.65 12l16.15 4.75q1.25.4 1.55 1.8.3 1.35-.5 1.95-6.95 5.8-19.75 8.05l-10.8 1.65q-6.55 1-10.8 2.2-6.55 1.85-12.15 11L146.4 123q-3.1 5.4-6.7 8.95-2.4 2.35-6.2 3.5-3.8 1.1-7.65.7-4.6-.5-13.25-3.6-6.95-2.45-8.9-1.7-4.15 1.6-15.05 7.6-9.5 5.2-15.2 8.75-2.95 1.8-6.45 2-3 .15-7.25-.85-2.5-.6-10.25-3.55-5.8-2.2-9-2-5.85.4-15.7 3.8-9.05 3.1-11.7 5.1-1.35 1-3.65.75-2.35-.2-4.3-1.5-2.65-1.7-4.1-5.9-.75-2.35 16-11.05L49 118.1q8.6-4.35 12.2-9.35 3.1-4.25 5.3-13.3 1.85-7.85 4.3-12.25 3.75-6.45 8.75-10.65 2.5-2.1 4.25-2.9.45-5.8.1-12.1l-1-10q-2.05-17-3.8-26.6l-1.9-10.1q-.5-3.5 4.75-4.7 5.15-1.2 6.25 1.45 1.05 2.65 2.25 8.7l1.65 8.5q3.75-2.5 9.8-3.45 6.2-1 12.95-.1l-.05.75q2.05-18.15 3-19.1 1.95-1.95 5-1.5 3.4.45 6.2 3.75-2.05 10-2.5 31.65-.45 20.35.75 25.45 10.8 5.9 16.2 10.05 6.3 4.8 7.95 9.25l5.25-.7z"/><path fill="#4ba9cb" d="M127.4 63.25q3.8.8 12.45 6.9 9.4 6.65 11.4 11-5.05 1.7-8.6 3.3.05-5.3-4.05-10.45-2.5-3.1-11.2-10.75m-31 34.8q7.35-8.5 15.1-10 5.15-1 8.05.75 3.9 2.35 6.8 10.6-2.55 1.55-4.85 1.95-6.9.6-11.2 1.6-5.35 1.2-10.75 3-5.5 1.8-9.05 3.55-.9-3.65 5.9-11.45m71.9 3.9q-2.95 1.2-6.2 2.75-6.5 3.1-7.8 4.95l-9.8 15.55q-6.65 9.9-11.05 11-5 1.25-13.85-1.75-10.75-3.6-13.45-3.8-2.65-.15-16.15 7.7-14.9 8.7-23.85 10.55-2.65.55-13.5-2.85l-10.3-3.5 7.45.7q8.75.5 14.95-.2 4.2-.45 17.4-8.25 14.05-8.35 21.2-10.05 5-1.2 14.45.75 9.7 2 12.9 1.4 3.65-.7 8.4-4.75l8.7-8.4q11.85-11.65 20.5-11.8m-53.75-80.7-.55 7.9q-2.65-.8-6.15-.7-3.85.1-7.6 1.4 2.9-3.4 3.4-4.65.9-2.35-1.6-3.8 6-1.05 12.5-.15"/><path fill="#fff" d="M100.4 94.35q6.85-5.85 10.25-5.45 1.7.2 4.65 5.2 2.8 4.85 2.7 6.75-11.6 2.9-20.95 5.95L90 109.3q2.55-8.25 10.4-14.95"/><path fill="#dbdcdc" d="M114.5 92.8q-3.75-.7-10.9 3.25-6.6 3.6-11.55 8.45 3.55-6.55 10.1-11.55 5.8-4.35 8.5-4.05 1.45.15 3.85 3.9"/><path fill="#e4004f" d="M104.35 97.6q2.65 2.65 2.1 6.05-10.25 2.95-16 5.45.7-4.5 5.1-9.75 2.2-2.6 4.25-4.35 2.5.55 4.55 2.6"/><path fill="#c60044" d="m99.9 95.05 1.5.2q.95.4 1.55 1.15-2.5 1.25-5.7 3.95-3.4 2.9-5.65 5.75 2.25-5 5.5-8.5 1.65-1.8 2.8-2.55"/><path fill="#0d131a" d="M126.3 32.65q2.7 1.85 7.7 1.65 4.05-.15 8.6-1.55 1.8.9 2.7.95-5.1 2.15-9.7 2.7-6.15.75-9.7-1.7zm38.35-17.15q2.1.15 4 2 1.85 1.85 1.85 3.7 0 1.35-.95 2.4-1.5 1.65-5.05 2.05-3.65.45-7.5 2l-2.75-.75q4.85-2.45 9.35-2.95 4.55-.55 4.45-2.75 0-1.15-1.15-2.2-1.2-1.05-2.7-1.2-3.05-.3-8.45 1.6-6.15 2.1-10.2 5.55l-2.55-.9q4.5-3.85 10.65-6.3 6.35-2.6 11-2.25"/><path fill="#0d131a" d="M205.15 22.2q.55 1 .4 2.55-.2 1.45-.85 2.55-.95 1.5-2.85 2.25-1.95.75-4.5.65-3-.15-6.8.95-2.8.8-7.45 2.75l-10.95 4.2q-6.4 1.85-12.8.75l-5.75-1.5-5.5-1.8q-7.35-2.3-11.8-2.75-6.1-.65-10 1.45l-.3-2.3q4.25-2.3 10.05-1.55 3.45.45 11.65 3.05l10.55 2.95 12.2-.4q3.9-.95 11.4-4.1 5.25-2.2 7.9-3 4.25-1.3 7.45-1.15l3.6-.45q1.55-.55 2.2-1.65.8-1.3.05-2.6-.5-1-1.85-1.6-1.35-.55-3.15-.55-4.5 0-9.6 1.4-2.8.8-8.85 3.05l-8.85 3.05q-4.85 1.3-9.15 1.1-4.2-.2-12.1-2.75-7.1-2.2-10.85-2.8-6.2-.95-11.75.5l.3-2.5q5.65-1.45 12.1-.05l10.75 3.2q6.75 2.15 12.45 2.4 4 .2 8.35-.95l8.15-2.8 8.95-3.3q5.25-1.6 9.85-1.6 2.35 0 4.45.95t2.9 2.4m-50.55 88.35 2.85-3.7q.2 7.75-3.45 14.6l-3.4-.25q3.1-5.55 4-10.65M92.8 189.3q2.05-4.6 5.45-7.4 3.55-2.9 7.5-2.85 3.55.05 6.7 2.65 2.9 2.4 4.35 6.1 3.75 9.4 6.4 18.65 5.7 19.55 9.35 30.6 5.9 17.9 9.8 24.55 5.7 9.7 7.6 21.4 1.55 9.55.8 22.55l-2.2-.6q.8-13.45-1.25-24.05-2.05-10.35-7.1-18.95-4-6.8-9.85-24.2-3.8-11.4-9.6-31.1-4.55-15.65-5.55-18.2-1.2-3.05-3.8-4.9t-5.85-1.95q-3.55-.05-6.45 2.15-2.95 2.2-4.7 6.25-5.15 11.9-6.8 26.55-1.95 16.85 1.75 30.5 3.25 12.15 12.6 23.75 7.45 9.3 17.65 16.95l-1.05 1.4q-10.65-7.95-18.05-16.95-9.6-11.65-12.95-23.95-3.85-14.3-2.15-30.75 1.6-15.05 7.4-28.2"/><path fill="#0d131a" d="M133.2 147.25q1.85-3.15 8-12.15.15.75.8 1.2l1.15.65q-5.9 8.55-7.7 11.6-1.65 2.85-2.15 5-.55 2.45.35 4.45 3.45 7.4 10.6 14.25l13.65 11.6q8.7 7.3 13.7 13.7 6.9 9 10.5 20.5 4.05 14.85 4.55 27 .35 9.2-1.35 20.75l-3.25 21.2q-1.7 13.9-1.25 28.45 1.1 33.8-12.8 50-10.8 12.6-28.15 12.6-6.05 0-12.9-3.4-6.85-3.45-12.6-9.35Q101 351.5 101 334.2q0-12.7 9.7-23.45 9.95-11 22.7-11.6-3.75-2.85-13.05-8.25-20.05-11.5-27.95-21.15-8.1-9.95-11.45-27.55-3.5-18 .3-33.85 4.25-17.9 19.9-44.25l4-6.75q1.3-2.25.95-4.1-1.55-6-10.55-8.55l-6.65-1.65q-3.35-.95-4.4-2.2l2.15-1.5q.75 1.05 4.1 1.9l6.8 1.7q9.35 2.9 11 9.9.65 2.7-1.15 5.8l-4 6.8Q90.85 186.5 86.75 198.4q-7.35 21.25-3.2 43.1 3.45 17.8 11.4 27.35 7.25 8.65 26.7 19.8 6 3.45 8.45 5 4.5 2.9 7.65 5.6 10.35 1.35 16.35 9.2 5.35 7.05 6.45 18.1 1.05 10.85-2.05 17.45-2.85 5.95-7.85 6-4.85.1-7.3-6.2-2.4-6.2-.4-12.65.7-2.2 1.2-2.3.5-.15.2 2.45-.75 6.55 1.35 11.15 2.1 4.65 5.85 4.65 3.5 0 5.35-5.8 1.9-6 1-15.1-1.25-12.7-8.5-19-5.8-4.95-14.25-5.25l-.9-.05q-9.85 0-19.3 8.25-11.05 9.6-11.05 23.7 0 16.4 11.7 29 11.2 12 24.45 12.1 17.7.1 27-11.75 11.75-14.95 11.2-49.8-.2-12.3 1.55-26.35l3.2-22.4q1.55-12.35 1.1-21.5-.55-11.8-4.5-23.7-3.5-10.7-10.6-19.85-5-6.5-13.85-14.5l-13.8-12.65q-7.1-7.15-10.35-14.1-1.2-5.3 2.2-11.1"/><path fill="#0d131a" d="M138.2 226.65q8-3.25 16.7-10.1 6.8-5.3 10.7-9.95 1.05-1.2 1.15-.3.05.9-1.15 2.75-2.35 3.65-8.1 8.35-8.5 6.95-18.9 10.65l-2.7.25q-.7-.45 2.3-1.65m10.5 30.7-3.15.25q-1.1-.25 2.4-1.6 11.75-4.55 18.35-9.35 4.75-3.5 12.15-11.6 1.15-1.25 1.05-.4-.05.9-1.3 3-2.25 3.7-9.8 9.65-10.1 7.85-19.7 10.05"/><path fill="#0d131a" d="M155.75 218.3q-.35-.7-.05-1.45.3-.8 1 .2 3.45 4.85 5.55 9.65 3.8 8.65 5.05 19.6-1.1 2.75-1.35 1.1-1.15-7.65-3.9-15.15-2.25-6.15-6.3-13.95m-1.05 65-2.5.05q-.4-.4 2.05-1.2 5-1.5 12.45-6.3 7.3-4.7 11.85-9.3 1.6-1.6 1.4-.55-.2.95-1.75 2.85-3.85 4.55-10.55 8.75-7.1 4.45-12.95 5.7m6.15 33.75q-1.4 0-1.4-.6 0-.65 1.3-.8 6.95-.95 15.4-6.45 1.35-.9 1.1-.15-.2.65-1.3 1.95-1.55 1.75-5.45 3.65-5.05 2.45-9.65 2.4m1.8 16.35q1.8.5 6.6.1 4.6-.45 6-1.1l1.3-.05q.05.65-1.25 1.5-1.45 1-6.05 1.45-5 .45-7.25-.6-1.1-.55-1.1-1.15.05-.65 1.75-.15M121.8 207.8l.3 1.45q-7.65-1.2-18.3-1.35l-15.85.8.65-1.8 14.5-1.1q10.8-.05 18.7 2m6.4 22.65.5 1.35q-11.35 3.85-24.6 3.85-10.35-.05-17.7-2.2l.25-1.7q6.95 1.8 17.15 1.7 12.15-.1 24.4-3M93.3 259.3q9.1 2.45 16.9 2.6 12.35.25 28.4-4.2l.55 1.35q-11.1 4.8-25 5.05-12.2.25-20.2-2.9zm20.45 24.75-1.8-2.35q7.85 2.6 16 2.8 11.1.25 20.3-4.35l.65 1.3q-9.6 4.8-19.8 5-7.75.1-15.35-2.4m59.65-160.4q6.35 3 9.25 8.35 2.4 4.45 1.5 8.1-1.1 4.55-7.7 7.5-7.1 3.2-14.8 1.5-5.9-1.3-12.05-5.1-6.8-4.25-11.6-10.2-.2-.25.45-.85.7-.55.9-.3 4.5 5.55 10.45 9.35 6.3 3.95 12.5 4.8 7.05.95 12.6-.95 5.6-2 7.25-6.1.7-1.85-1.75-6.2-3.05-5.35-8.65-8.1-5.9-2.85-14-3.45-6.9-.55-11.25.6l.3-.95q.4-.95.75-1 15.4-1.85 25.85 3"/><path fill="#0d131a" d="M141.15 130.6q-.3-.2.05-.8.4-.65.65-.45l8 4.7q5.25 2.9 7.55 3.9 2.7 1.2 2.3 1.65-.4.5-3.4-.45-4.3-1.4-15.15-8.55m20.85-.9q3.15 1.35 2.45 1.75l-2.85-.35-8.3-2.5q-5.65-1.5-9.8-1.7-.4-.05-.15-.75.3-.7.85-.65 4.8.4 9.6 1.55 4.8 1.2 8.2 2.65M89.8 97.15q1.35-3.25 4.45-6.95 3.1-3.75 5.85-5.4 1.45-.85 1.75-.55.25.25-1 1.45-2.75 2.55-5.55 5.85-2.8 3.25-4.65 6.1-1.5 2.3-1.5 1.6 0-.5.65-2.1"/><path fill="#0d131a" d="M114.2 94.65q-2.2-3.85-3.6-5.05-4.1.9-9.55 5.4-6.8 5.6-9.65 12.85 4.35-1.85 10.75-3.7 8.1-2.3 15.1-3.2-.9-2.6-3.05-6.3m-1.6-64.45q-3.65-.85-8-.1-5.25.9-9.6 3.9 1 5.1 6.85 27.15l6.2-.45q1.95-6.35 4.55-30.5m72.7 37.65q1 .1 1.35 2.05l1.7 11.95 6.5 2.1 10.35 3.55q1.6.6 2 1.5.35.8-.45 1.65-5.5 5.7-13.2 8.2-4.35 1.45-14.55 2.8-11.4 1.55-16.25 3.4-4.9 1.85-7.85 5.8l-10.15 15.55q-6.4 9.45-11.3 10.75-4.2 1.1-15.75-2.35-11.75-3.55-13.6-3.2-.95.2-16.45 8.85-15.25 8.45-21.15 9.2l-6.75-.35q-3.2-.65-8.1-2.65-5.6-2.25-8.85-2.65-2.8-.35-5.9.55-15.45 4.55-22.15 7.6-7.35 3.4-12.35-2.05-1.95-2.15-2.35-4.55-.4-2.45 1.1-3.6 5.15-3.9 20.95-11.85 19.35-9.45 28.8-14.4 6.15-3.25 8.9-6.65 3-3.7 4.5-10.5 1.15-5.05 2.5-9.6 1.35-4.5 2.2-6.1 1.85-3.25 6.15-7.4 3.6-3.55 7.35-6.25.5-.35.8-3.9.3-3.45.05-5.4-4.05-29.85-7.25-49.35 0-1.75 1.75-3.55 1.7-1.65 3.8-2.25l5.25.15q2.15.9 2.65 2.6l1.6 7.4q1.2 5.85 1.85 7.9 3.45-1.7 8.2-2.55l12.5-.35q1.05-9.35 1.7-13.1.7-4 1.5-4.85 2.2-2.1 5.3-1.95 4.3.25 7.8 4.35.55.9.05 2.75-.2.7-1.05 6.9l-1.05 8.85q-.25 2.75-1.05 2.8-.75.1-.55-2.65l1.05-16.4q.2-1.15-1.8-2.6-1.95-1.3-3.5-1.4-2-.1-3.3 1.15-.95 1.7-3.2 23-3.95 36.7-8.5 40.15-1.95 1.5-2.05 1-.1-.4.9-1.7 1-1.35 1.6-3.2l-4.9.5-1.85-.1q-.9-.4-1.3-1.85l-3.45-14.1L92.6 32.9q-.65-3.25.25-3.15.85.1 1.3 1.6 4.45-2.75 9.55-3.75 4.85-.9 9.2 0l.55-5.15-13.2.55q-4.35 1-7.45 2.9-1.5.9-1.9-.65-2.8-13.9-3.75-16.75-.3-.85-1.9-1.25-1.5-.35-2.9 0-1.4.4-2.55 1.3-1.3 1.05-1.2 2l2.95 19.1Q84.5 49 85.4 58.8q.75 7.25-.35 9.1 2.05-1.05 3.65-1.55l1.55-.2q.15.55-3.1 2.4-4.5 2.5-9.15 7.1-4.65 4.55-6.5 8.25-3.15 6.45-4.75 15.05-1.2 6.55-4.6 10.9-3.5 4.45-10.5 8.1l-18.55 9.6-16.7 8.3Q6 140.9 2.65 143.15q-1.4.95-.85 2.75.55 1.75 2.45 3.3 4.8 3.95 9.2 1.35 2.65-1.6 9.85-4.05 5.9-2 12.85-3.95 4.05-1.1 7.05-.85 3.55.3 9.45 2.7 4.7 1.9 7.2 2.55l6.25.35q7.2-1.3 21.75-9.45 14-7.9 16.45-8.1.75-.05 12.85 3.35 11.45 3.25 16.4 1.85 5.7-1.65 11.35-11.7l4.4-8.15q2.55-4.6 4.55-6.85 3.45-3.9 9.5-6.05 5.9-2.1 15.1-2.85 7.9-.6 13.85-2.7 7.1-2.45 12.15-7.2-1.35-.75-9.75-3.25-7.65-2.25-8.05-3-.5-.95-1.15-5.45l-1.15-7.15-2.25 2.1q-4.4 4.2-6.95 5.85-4.4 2.85-9.25 2.95-12.55.3-18.95 2.95-5.75 2.35-12.55 9.35-3.5 3.65-6.5 5.5-3.85 2.4-8.2 2.8-7.85.7-18.05 3.9l-11.3 3.9-1.55.25q-.35-.25.15-1.7 3.4-9.25 11.5-15.35 6.15-4.65 11.6-5.65 4.15-.7 4.3-.05.15.6-3.95 1.7 4.55 4.8 7.15 11.6 3.9-.35 7.3-2.75 2.15-1.55 5.9-5.5 4.25-4.4 6.95-6.45 4.55-3.45 10-5.05-1.55-3.45-8.3-8.6-6.05-4.6-10.75-6.65-2.75-1.2-3.75-2.5-.95-1.15-1.1-3.2-.6-7.55-.7-14.5-.2-9.55.75-14.3.45-2.1.85-2.2t.5 2.2v9.3q.15 10.05 1 18.45.2 2.1.65 2.8.5.75 2.45 1.6 6.7 2.9 12.65 7.45 6.45 4.8 8.75 9.05l4.85-.65 8.6-.3q4.95-.1 9.75-3.85l6.2-5.55q2.2-1.7 3.2-1.65"/><path fill="#0d131a" d="m99.6 95.85 1.05-1.1q3.15.4 5.2 3.05 2 2.6 1.55 5.55l-1.9.5q.5-3-1.35-5.4-1.8-2.3-4.55-2.6M5.05 143.6q1.4-.1 3.9 1.3 2.6 1.5 3.2 2.9.55 1.2-.45 1.85-1.65 1.15-5.75-1.35-3.15-1.95-2.8-3.45.2-1.05 1.9-1.25m88.75-40.85q1-1 2.55.55 1.5 1.5 1.2 3.2-.75.75-6.95 2.25 2.1-4.9 3.2-6"/></svg>