<svg xmlns="http://www.w3.org/2000/svg" width="207" height="212" viewBox="-0.1 -2.5 206.85 211.5"><path fill="#57c2e9" d="M165.05 81.4q10.3-6.6 24-8.7 12.75-2 14.85 1.3.65 1-.25 4.2-1.05 3.6-3.65 7.85-7.1 11.5-20.9 20.3-12.15 7.85-26.05 11.7l-9.15 2.45q-4.45 1.25-6.85 2.8-4.75 3.05-9 7.65l-5.55 6.3-8.65-15.2 8-2.95q5.85-2.35 11-5.1 3-1.6 6.35-5.5l6.35-8.25q9.35-12.35 19.5-18.85"/><path fill="#4ba9cb" d="M193.9 95.3q-5.1 5.45-13.45 10.8-12.15 7.85-26.7 11.85l-9.65 2.5q-4.65 1.3-7.05 2.85-4.75 3.05-9 7.65l-5.55 6.3-8.65-15.2 8.45-2.65q6.35-2.2 11.1-5.25l3.85-2.7q16.1 1.6 31-4.25 16.75-6.6 33.05-23.05-2.7 6.1-7.4 11.15"/><path fill="#d2ecfa" d="M171.45 78.3q8.45-3.8 21.2-5.55 9.85-1.35 11.2 0 1.4 1.4-10.65 4-9.65 2.1-16.8 5.35-10.45 4.75-21.3 13.95-9.7 8.25-11.35 8.25-1.55.05 4.15-7.1 10.35-12.95 23.55-18.9"/><path fill="#0d131a" d="M197.85 71.35q6.45.05 7.7 2.5 1.2 2.2-1.45 7.85-3.05 6.5-8.1 12.4-6.4 7.45-15.35 13.2t-17.45 8.85q-5.7 2.1-13.55 3.7l-6.25 1.35q-1.9.6-5 2.5-2.85 1.8-7.4 6.8l-6.25 7-1.75-2.2 5.8-6.1q4.15-4.15 8.6-7 3.1-2 5.8-2.8l6.5-1.6q8.05-2.1 13.1-4.1 8.3-3.25 16.85-8.75 9.65-6.15 16.05-14.2 4.8-6.05 6.7-11.7 1.15-3.25.6-4.25-.6-1.2-4.05-1.45-6.45-.45-13.7 1.1-10.35 2.2-19.6 8.1-8.3 5.35-14.4 12.1-1.85 2.05-8.4 10.75l-4.05 5.4q-1.55 1.7-5.05 3.95-3.65 2.35-18 5.45l-1.2-3.35q11.5-1.2 17.65-3.45 2.95-1.15 4.55-2.95l4.2-6.05q6.4-9 10.55-13.45 5.25-5.65 12.25-10.15 9.15-5.85 19.4-8.1 6.65-1.4 14.7-1.35"/><path fill="#d2ecfa" d="M178.6 80.2q3.6-1.6 6.5-1.95 2.85-.4 3.35.65.5 1.15-1.6 3.35-2.2 2.3-5.65 3.85-3.45 1.5-6.65 1.6-3 .1-3.5-1.05-.5-1.05 1.75-2.95 2.2-1.9 5.8-3.5"/><path fill="#e30077" d="M174.95 52.35q-2.5 11.35-13.9 18.35-7.45 4.55-24.6 9.8-5.05 1.55-7.55 5.9-3.1 5.3-5.2 18.55 17.65 16.8 21.4 36.95 2.95 15.85-2.8 25.8-8.4 14.55-28.8 17.1-21.75 2.75-44.6-10.5-22.65-13.1-30.7-33.85-7.4-19.3 1.1-34.05 6.1-10.5 26-14.2 18.95-3.5 35.6 1.45l4.4 1.1q1.75-.35 3.7-5.1 1.8-4.4 1.5-8.15-.4-4.7-4.25-7.15Q91.05 63.4 85.8 55.4q-6.05-9.25-4.3-21.6 2.35-16.6 18.85-26.3 16-9.45 34.1-6.2 20.85 3.75 32.45 17.4 12.3 14.5 8.05 33.65"/><path fill="#57c2e9" d="M75.9 125.9q9.55.8 17.55 5.45 7.2 4.15 12.35 11.95 4.75 7.15 6.7 15.65 1.85 8.4.4 15.25-1.55 7.3-6.45 10.65-15.1 1.85-37-10.45-21.95-12.3-27.75-25.95-.25-7.05 4.65-12.7Q51 130.5 59 127.8t16.9-1.9"/><path fill="#c60068" d="m69.7 173.3.4-5.45q25.8 14.9 47.6 6.8 9.1-3.4 15.3-10.25 5.95-6.6 7.6-14.5 0-2.05-2.8-1.5-2.1.4-4.05-.9-2-1.3-2.85-3.7-2.1-5.95 4.05-11.85 2.2-2.1.9-8.3-1.1-5.5-3.9-10.1 3.25 4.05 6.35 9.3 2.9 5 4.7 9.3 3.9 10.45 3.2 21.15-.65 9-4.05 14.9-8.35 14.35-28.35 16.35-21.05 2.05-44.1-11.25"/><path fill="#f09cbb" d="M138.6 8.85q2.7 2.3 2.45 3-.2.65-2.9.45-9.6-1.45-16.65-1.6-30.6-.75-39 24.85l.35-2.25Q86.05 15.4 101 6.75q14.65-8.5 34.95-4.85 12.95 2.3 24.3 11.7-9.5-5.75-17.85-7.1l-4.5.1q-1.2.65.7 2.25"/><path fill="#f9dbe8" d="M153.15 9q-5-2.75-15.75-4.75-11.55-2.2-7.7.2 4.05 2.55 2 2.9l-9.05-.15q-20.3-.35-32.35 7.45 8.3-8.4 20.65-11.75 12.25-3.35 25.55-1 4.85.9 9.45 3.1z"/><path fill="#c60068" d="M117.7 97.2q-6.1-2.35-8.25-10.25 2.7-6.55-1.2-11.1-1.5-1.75-4.75-4.2l-6.3-4.75q3.7 2.45 10.8 4.75 8.5 2.7 17.45 3.7 24.35 2.6 40.75-8.65-6.05 6.45-18.75 10.6l-9.1 2.75q-4.6 1.4-6.4 2.7-2.65 1.9-4.2 5.4-.9 2.05-2.25 6.25-.9 2.35-3.1 3.1z"/><path fill="#f09cbb" d="M82.5 91.05q13.2.55 23.1 3.9l-2.45 2.2-10.05 1.8q-3.55.8.55 2.95 2.8 1.45 3.85 4.15 1.15 2.8-.3 5.45-3.7 6.8-20 7.15-14.75.3-19.3-5.75-1.9-2.5-1.35-5.5.55-2.85 3.15-5.2 3.85-3.5 3.15-4.05-.65-.6-6.4 1-4.8 1.35-10.4 4.7-4.65 2.8-5.3 3.85l-.8-3.65q16.15-14.1 42.55-13"/><path fill="#c60068" d="M41.75 133.05q1.4 3.1 2.75 5.4-2.1 4.4-2.7 10.3-3.15-4.75-6-14.35 1.1-1.05 2.4-3.25 1.45-2.5 1.4-3.6.7 2.3 2.15 5.5"/><path fill="#4ba9cb" d="M68.75 174.15Q61.1 169.9 53.8 163q-7.1-6.75-12-14.25.6-5.9 2.7-10.3 10.15 17.3 31.8 29.05 21.6 11.75 36.8 8.35-.6 2.45-2.5 5.25-2.15 3.05-3.9 3.25-8.05.95-15.3-.7-9.55-2.15-22.65-9.5"/><path fill="#0d131a" d="M65.3 127.05q-13.2 2.25-19.55 11.45-3.45 5.05-2 12.3l-1.5-2.1q-.9-1.2-1.25-2.15-.1-5.1 2.3-9.05 5.85-9.8 20.65-12.4 16-2.85 30.75 5.65 12.1 7 17.85 21.55 5.85 14.75.65 26.45-1.75 3.9-6.2 6.6l-4.8-.35q5.4-2.25 8-6.7 5.25-8.95-.05-24-5.35-15.2-16.45-21.6-14-8.1-28.4-5.65"/><path fill="#d2ecfa" d="M75.45 130.25q9.8 1.3 11.05 5.35.5 1.65-1.6 2.5l-6.95.3q-8.4-1.1-9.65-5.15-.5-1.65 1.25-2.55 1.95-.95 5.9-.45m-12.7 6.3q-1.6-.05-2.8-.65-1.25-.55-1.35-1.3-.15-.7.9-1.2 1.05-.45 2.65-.4l2.8.65q1.25.55 1.35 1.3.1.7-.95 1.2z"/><path fill="#0d131a" d="m105.6 94.3-1.3 1.3q-18.65-6-38.45-2.45-19.45 3.5-25.15 13.35-8.5 14.75-1.4 33.45 7.75 20.3 30.4 33.35 22.65 13.1 44.05 9.65 19.8-3.2 28.3-17.95 5.5-9.55 1.35-26.1-4.65-18.55-19.3-32l-.1-2.7q15.55 12.85 21.2 32.55 5.35 18.45-1.15 29.65-9.15 15.85-29.65 19.05Q92.25 188.9 68.2 175q-23.95-13.8-31.65-34.9-7.1-19.35 2.1-35.3 5.7-9.95 25.55-13.55 20.9-3.85 41.4 3.05m62.2-69.7q4.3.45 6.7 6.85 2.35 6.35 1.45 14.7-1.05 9.5-5.85 16.65-4.95 7.35-10.2 6.4-4.7-.85-7.4-6.9-2.7-6-1.85-13.65 1.15-10.4 6-17.4 5-7.35 11.15-6.65"/><path fill="#fff" d="M167.65 26.8q4.15.8 6.05 7.45 1.85 6.55.4 14.2-1.6 8.9-5.4 13.95-3.8 5.15-8.55 4.65-3.9-.45-6-6.35-2.3-6.55-.45-15.7 1.8-8.65 5.35-13.65 3.9-5.4 8.6-4.55"/><path fill="#0d131a" d="M162.2 36.75q1.9.25 2.75 3.15.9 3 .2 7.35-.65 4.35-2.55 6.9-1.65 2.2-3.25 2.05-1.9-.2-2.7-3.2-.8-2.9-.2-6.95.75-5.1 2.5-7.5 1.45-2 3.25-1.8"/><path fill="#fff" d="M158.1 45.95q.25-1.75.9-2.65.55-.85 1.25-.75t1.1 1.05q.35 1 .15 2.7-.25 1.75-.95 2.65-.6.8-1.25.7t-1.05-1.05q-.35-1.05-.15-2.65"/><path fill="#0d131a" d="M96.45 14.05q5.35 1.2 7.5 8.8 1.95 7.05.5 16.55t-6.4 14.55q-4.5 4.55-9.35 3.35-5.05-1.3-7.25-10.7-2.05-8.75-.2-16.15 1.75-7.05 6.05-12 4.6-5.45 9.15-4.4"/><path fill="#fff" d="M96.05 16.2q3.55.6 5.35 5.45 1.95 5.35 1.1 14.15-.95 9.75-4.8 15.25-3.7 5.4-8.4 4.2-4.3-1.05-6.2-6.65-2.2-6.3-.25-16.1 1.45-7.2 5.3-12.05 3.9-4.9 7.9-4.25"/><path fill="#0d131a" d="M99.5 37.3q-.7 4.7-2.35 7.05-1.45 2.05-3.15 1.7-1.8-.35-2.7-3.6-.85-3-.4-6.45.55-4.35 2.35-6.9 1.7-2.45 3.75-2.1 1.65.25 2.35 3.2.75 3 .15 7.1"/><path fill="#fff" d="M98 36.7q-.25 1.7-.95 2.6-.65.75-1.25.6-.6-.1-.9-1.2-.35-1.1-.15-2.5.25-1.8.95-2.55.6-.65 1.2-.5.6.1.9 1.15.35 1.05.2 2.4"/><path fill="#57c2e9" d="M169.4 186.4q-3.2 9.95-13.65 16.2-8.6 5.15-20.3 3.45-11-1.65-14.6-7.25-4.6-7.15-.85-16.75 3.8-9.65 13.35-14.55 10.35-5.25 21.75-3.1 9.85 1.8 13.05 6.75 4.05 6.3 1.25 15.25"/><path fill="#d2ecfa" d="M164.6 196.3q3.85-12.95-1.05-21.3-5.35-9.25-20.85-11.5 10.5-.15 15.8 1.3 6.15 1.65 9.15 6.35 3.4 5.2 1.95 12.65-1.1 5.8-5 12.5"/><path fill="#4ba9cb" d="M121.6 178.05q-.75 7.2 3.05 12.95 3.55 5.35 10.1 8.2 6.5 2.8 13.85 2.3 7.8-.55 14.3-4.7-.95 2.75-6.25 5.5-5.35 2.8-12 3.9-17.1 2.8-23.8-7.65-2.55-3.95-2.3-9.9.25-5.85 3.05-10.6"/><path fill="#d2ecfa" d="M160.3 186.35q.45 1.5.2 2.75-.3 1.25-1.15 1.5-.9.25-1.8-.6-.95-.9-1.4-2.4-.5-1.45-.2-2.7.3-1.3 1.15-1.55t1.8.6q.95.9 1.4 2.4m3.85-2.95q-1.6.9-3.8-.4t-3.7-4.05q-1.55-2.75-1.5-5.3t1.6-3.45q1.6-.85 3.75.45 2.2 1.3 3.75 4.05 1.55 2.7 1.5 5.25 0 2.6-1.6 3.45"/><path fill="#57c2e9" d="M35.55 96.6q6.05 8.45 5.55 20.05-.45 9.8-5.8 17.7-5.7 8.5-13.2 8.3-8.5-.2-14.5-7.7-6.35-8-6.05-20 .2-9 5.9-17.35 6.65-9.6 15.8-9.1 6.8.35 12.3 8.1"/><path fill="#d2ecfa" d="M36.4 96.6q-3.85-3.05-9.55-3.15-5.55-.1-10.95 2.65-12.8 6.4-14.2 20.8l-.05-2.55q.25-11.2 6.45-18.4 6.45-7.5 16.5-6.9 5.5.25 11.8 7.55"/><path fill="#4ba9cb" d="M40.7 110.55q.55 3.1.45 6.4-.25 10.75-5.85 18.2-5.65 7.55-13.4 7.15-7.1-.4-11.2-3.7-4.55-3.65-6.7-11.65 2.05 4.5 7.1 7.1 5.1 2.65 10.75 1.9 14.2-2 18.35-22.1z"/><path fill="#d2ecfa" d="M12.2 110.35q-1.25.9-2.5 1.05-1.3.1-1.8-.65-.55-.7-.05-1.9.55-1.15 1.8-2.05 1.3-.95 2.55-1.05 1.3-.15 1.8.6.55.75 0 1.9-.5 1.15-1.8 2.1m12.15-14.7q.85 1.6-.6 3.75-1.4 2.15-4.2 3.55t-5.35 1.2q-2.55-.15-3.35-1.8-.8-1.6.6-3.75 1.4-2.1 4.2-3.5T21 93.9q2.55.15 3.35 1.75"/><path fill="#0d131a" d="M35.6 98.7q-5-8.5-12.45-8.9-8.1-.45-14.25 7.4-5.95 7.6-6.15 17.75-.25 11.5 5.6 19.05 5.55 7.1 13.7 7.35 7.1.25 12.25-7.05 5.1-7.2 5.6-17.7.45-9.85-4.3-17.9M22.65 87.85q8.6.5 14.5 9 5.85 8.45 5.6 19.9-.2 11.2-6.4 19-6.05 7.65-14.2 7.55-9.1-.15-15.45-7.65-6.6-7.8-6.7-19.7-.1-11.25 6.8-19.9 6.95-8.7 15.85-8.2M167.8 186.8q3-8.6-.6-14.45-3.7-6-13.45-7.35-10.55-1.45-20.55 4.05-9 4.95-12.1 14.15-2.95 8.65 1.05 14.85 3.8 5.95 13.9 7.1 10.65 1.2 20-4.2 8.55-5 11.75-14.15m.75-15.95q4.8 7.45 1.55 17.15-3.35 9.9-13 15.4-9.2 5.3-20.75 4.1-11.7-1.15-16.05-8.2-4.4-7.15-1.45-16.7 3.05-9.85 11.95-15.15 11.15-6.65 23.15-4.65 10.55 1.75 14.6 8.05m.5-150.4q11.8 15.85 6.1 34.1-4.2 13.3-19.75 20.3-4.4 1.95-11.95 4.25-6.85 2.15-8.65 3.1-5.3 2.85-7.95 10.95-1.95 5.8-2.75 15.3-.25 3.1-1 3.8-.85.75-.7-6.15.15-7.7 2.8-14.85 3.45-9.25 9.6-11.1 17.35-5.15 24.5-9.55 9.35-5.8 13.3-16.3 6.35-16.8-5.55-32.65-11.65-15.5-32.1-19.15Q117-.7 101.2 8.25q-17.1 9.65-18.95 27.5Q80.7 50.9 93.3 62.65q2.4 2.25 9.95 8.05 5.4 4.15 6.85 6.55 2.5 4.1.75 9.9-1.3 4.5-4.2 7.95-3.8 4.5-5.5 4.8-1.75.3 2.5-4.3 3.65-4.05 5-8.6 1.4-4.9-.4-8.65-1.25-2.55-6.65-6.65-8.05-6.05-10.15-8-13.1-12-11.2-28.8 2.2-19.2 20.4-28.8 16.3-8.6 34.9-5.25 21.75 3.9 33.5 19.6"/><path fill="#57c2e9" d="M103.3 55.7q.95-4.9 7.75-7 6.75-2 15.85-.25 11.25 2.2 16.15 6.6 3.85 3.45 3.1 7.3-.7 3.45-6.65 5.15-6.85 1.95-16.85 0-9.35-1.85-14.3-4.55-5.85-3.15-5.05-7.25"/><path fill="#d2ecfa" d="M120.4 56.6q-8.4-1.25-10.85-3.3-2.15-1.75.55-3.55 2.1-1.45 7.25-1.75l10.6.65q13.8 2.25 16.35 8.25-2.1-2.7-7.65-4.35-5.75-1.75-13.25-1.7-3.9 0-2.6 1.35.7.7 4.4 2.75 3.1 1.65 2.75 2.1z"/><path fill="#4ba9cb" d="M108.65 58.35q4.4 3.4 15.35 5.1 10.85 1.65 16.3-.35 4.9-1.8 4.4-6l1.1.95q.95 1.35.45 3.45-.95 4.2-6.55 5.75-5.9 1.6-16.2.05-10-1.55-15.4-4.75-5.9-3.55-4.75-8.4.5-2.1 2.05-3.1.75-.5 1.4-.55-2.5 4.5 1.85 7.85"/><path fill="#0d131a" d="M104.6 55.45q-.75 3.75 5.15 6.95 5.3 2.9 13.55 4.15 8.2 1.25 14.3.15 6.75-1.25 7.5-5 .85-4.25-5-7.85-5.25-3.25-13.4-4.65-8.25-1.35-14.35.1-6.85 1.6-7.75 6.15m3.2 7.75q-6.5-3.85-5.5-8.45 1.15-5.15 8.85-7 6.95-1.65 16.1-.15 9.2 1.55 15 5.35 6.45 4.25 5.45 9.4-.9 4.45-8.55 5.9-6.95 1.35-16.15-.1-9.3-1.5-15.2-4.95"/></svg>