<svg xmlns="http://www.w3.org/2000/svg" width="347" height="387" viewBox="-0.35 -0.15 346.85 387.35"><path fill="#e5e3da" d="M329 227.5q4.55.75 6.1 7.6 1.4 6.05-5.6 17.3-3.5 5.65-7.3 10.1 1.2 4.6 8.05 6.4 4.35 1.1 9.1.9 3.25-.15 4.9 3.3 2 4.1-2.3 9.35-2.4 3-7.55 3.65-4.35.5-5.6-.45-1.95-1.35-5.15-2.35-6.5-2.1-12.45.15-8.3 3.1-15.75.85-2.3-.7-4.25-1.9l-1.5-1q-31.1 5.4-56.45-8.65-7.95-4.35-14.35-10.15l-4.8-4.95q-4.45-2.85-2.7-12.05l2.7-8.6 3.65-1.3q18.8 22.25 44.15 27.15 12.7 2.4 21.65.4.55-3.05 4.4-7.75l3.8-4.15q2.3-3.45 2.15-11.25l-.55-7.05q-1.55-1.4-2.2-3.3-1.25-3.75 3.5-6.05 4.8-2.3 8.45.2 1.85 1.3 2.7 3 5.05 9.9 3.4 18-.8 4.05-2.65 6.15 4.1-2.2 9.9-11.2 2.9-4.5 5-8.55 3.35-4.45 7.55-3.8"/><path fill="#c1bfb8" d="M328.4 282.65q6.5 4.45 12.4.7-3.5 3.4-8.1 3.2l-3.9-.9q-1.95-1.35-5.15-2.35-6.5-2.1-12.45.15-8.3 3.1-15.75.85-2.3-.7-4.25-1.9l-1.5-1q-31.1 5.4-56.45-8.65-7.95-4.35-14.35-10.15l-4.8-4.95Q211.5 256 211 252q19.75 16.45 37.25 22.3 17 5.7 38.3 3.5l4.9 2.7q5.65 2.6 9.7 2.3 4.55-.35 12.75-3.2 7.55-1.6 14.5 3.05"/><path fill="#e5e3da" d="M153.1 344.55q2.45-7.65 11.5-9.1 2.45-2.8 4.5-7.65 4.1-9.65 2.1-19.6l23.3-1.45.5 3.05q.45 3.9.05 8.15-1.3 13.5-10.25 25.1l6.7 5.5q8.55 5.75 18.05 7.1l2.65.05q3.15.25 5.8 1.15 8.4 2.85 8.4 11.1 0 9-12.55 14.8-5.25 2.45-10.75 3.15-5.6.7-9.35-.65-6.65-.5-15.15-4.95-17-8.85-26.15-28.45-.6-3.5.65-7.3"/><path fill="#e5e3da" d="m151.3 252.95 33.1-31.45 4.5.4q5.45.65 10.05 1.95 14.6 4.2 15.15 13.15l.5 9.5q.3 11.55-.9 21.7-3.8 32.45-20.8 38.95-14.2 5.4-32.65-2.85-7.1-3.15-12.3-7.35-4.9-3.95-5.45-6.5-2.7-4.75-2.95-11.8-.55-14.15 11.75-25.7"/><path fill="#c1bfb8" d="M147.95 296.95q-4.9-3.95-5.45-6.5-2.65-4.6-2.95-11.55-.6-13.8 11-25.2-6.4 12.5-5.9 24 .5 13.1 10.15 19.2 11.65 7.4 23.7 9 11.45 1.5 20.75-2.5-2.85 2.4-6.35 3.75-14.2 5.4-32.65-2.85-7.1-3.15-12.3-7.35"/><path fill="#e5e3da" d="M235.25 124.9q11.95 3.7 22.1 9.95 9.45 5.8 15.55 12.6 8.75 9.8 8.9 20.15 0 8.8-4.45 16.55-4.4 7.75-12.75 13.5-9.75 6.7-24.2 10.2t-32.5 3.5q-10.45-.05-19.95-3.95-9.55-3.9-16.45-11-5.85-5.95-8.85-13.3-3.05-7.3-2.85-15.05.25-20.35 13.75-32.75 13.45-12.4 37-14.05l3.05-.1q9.75 0 21.65 3.75"/><path fill="#c1bfb8" d="M165.75 159.2q-1.45 8.85-.05 15.6 1.35 6.45 6 13.9 3.45 5.55 12.4 16.95-7.3-3.7-12.6-9.25-5.85-5.95-8.85-13.3-3.05-7.3-2.85-15.05.25-18.75 11.8-30.85-4.5 13.95-5.85 22"/><path fill="#852a18" d="M258.05 132.75 269 135.6q10.95 3.6 11.15 7.5.1 1.95-2.85 4.15-2.55 1.9-3.6 1.9l-6.55-6.85q-7.25-7.05-10.7-8.25zm-71.2 2.45q-2.7 7.2-8.8 14.6-12.2 14.85-29.25 16.05-6.6.55-13.45-.05-13.8-1.15-15.25-6.7-1.7-6.4 11.9-18.85 13.1-12 23.1-14.7l2 .1q3.5.95 11 5.05l7.45 2.35q8.1 2.35 11.3 2.15"/><path fill="#852a18" d="M231.75 135.55q-.2 7.25-1.95 13.35-5.75 19.55-25.65 20.3-4.8.25-10.35-2.15-11.1-4.8-14.85-17.9l7.75-12.3.3 3.95q.55 4.75 1.9 8.6 4.4 12.25 15.4 10.85l3.2-.35q3.85-.8 6.95-3.2 9.9-7.7 8.9-28.5l8.2 1.3z"/><path fill="#fff" d="M221.5 144.5q-4.4 16.2-17.2 15.75-12.9-.45-16.15-11.15-1.05-3.35-1.25-8.45l-.3-6.3 3.05-3q3.9-3.45 8.15-5.55 13.55-6.75 25.55 2.4l-.1 5.1q-.35 6.15-1.75 11.2"/><path fill="#e5e3da" d="m210.75 95.55 5.25 6.4q11.2 1.35 21.85 4.7t17.3 7.65q4.3 2.8 6.1 6.4 1.85 3.6.8 7.1-.8 2.85-3.15 4.65-2.3 1.75-5.1 1.75-.85 0-6.55-2.25-6.05-2.4-7.35-2.6l-4.55.1-5.05.25-3.7-.6-4.15-1.05q-4.7-1.8-8.3-2.3-3-.4-6.65 0-2.4.25-10.4 4.75-7.8 4.45-9.15 4.45h-.1q-8.05 0-18.25-4l-8.7-4.1q-2.35-1.3-5.8-1.3-2.05 0-3.4.55-.7-.85-.5-2.65.25-2 1.6-3.25 7.9-7.1 19.25-11.95t23.55-6.35l2.95-6.3q3.05-6.3 4.65-6.5 2.1.05 7.55 6.45"/><path fill="#852a18" d="M206.25 231.9q-10.2-5-22-4.25l-2.75-3.05q-3.2-3.2-5.6-3.85l-5.45-2.65q-1.45-3.3-.8-7.25 1.4-7.85 12.1-10.9l3.55-.85 9.4-.25q15.6 1.7 28.7 15.6l1.1 2.6q1.1 3.25 1.1 6.25-.1 9.65-11.5 13.7-2.75-2.65-7.85-5.1"/><path fill="#e5e3da" d="m111.9 139.3 1.05 12.15q.85 12.5-.05 13.95l3.75 5.15q4.95 6.4 10.8 12.8 18.75 20.55 39.8 33.45l7.25 3.3q7.85 4.25 11.05 9.3l-.25 2.1q-.4 2.55-1.4 4.45-3.15 6.2-10.65 4.3-10.05-3.85-24.3-13.5-28.5-19.3-49.65-48.35l-3.2.35q-3.95-.1-7.8-2.25 1.8-4.7 3.45-11.3 3.35-13.25 2.7-22.95-2.65.75-5.45.5-5.5-.5-5.95-5.35-.55-5.9 4.05-11.55 4.65-5.75 9.4-4.55 5.65 1.4 9.15 4.9 4.45 4.45 6.25 13.1m-31.95 8.5q-3.7-1.35-7.4-4.4-7.45-6.15-7.55-14.75t5-12.2q1.6-1.15 3.5-1.65l1.6-.25 3.15 14.1q2.9 14.95 1.7 19.15"/><path fill="#852a18" d="m253.05 261.9 10.4 1.2q-4.45 7.15-2.55 13.95 1 3.4 2.85 5.35l-6.7-.8-5.15-.8q-4.1-6.2-1.9-13.2.7-2.15 1.95-4.15zm22 1.75 8.5-.4-.05 6.75q.9 7.6 5.75 11.95l-14.2.45q-1.65-1.8-2.45-5-1.65-6.5 2.45-13.75"/><path fill="#e5e3da" d="M140.55 241.5q.65 6.8-4.45 14.85-2.55 4.05-5.2 6.75l-1.65 1.95q-2 2.5-3.65 5.4-5.35 9.15-5.35 18.4 0 24.25-11.45 23.9-9 .2-16.1-11.8-7.4-12.6-7.6-30.7-.05-6.05 1.15-13.4 2.5-14.7 9.1-21.3 4.8-4.85 11.75-7.25 6-2.1 12.7-2.15 6.3 0 12.7 4.05 7.4 4.65 8.05 11.3"/><path fill="#e5e3da" d="m152.15 276.7 3.25 20.5q-4.2-3-10.9-3.95-13.35-1.95-25.75 8.2-.9-4.7-.9-10.1 0-10.75 4.6-14.05l2.3-1.95q3-2.15 6.35-3.25 10.7-3.55 21.05 4.6"/><path fill="#852a18" d="m102.2 274.95 1.1.3q1.3.5 2.4 1.6 3.45 3.35 3.25 10.85l-.8 5.7q-1.6 5.7-5.65 5.7-1.5.1-3-1.25-3-2.7-3-9.85-.05-3.25.65-6.5 1.4-6.55 5.05-6.55"/><path fill="#e5e3da" d="M103.65 31.55q-.05 16.7-1.6 23.85-2.05 9.5-5.75 17.7-4.4 9.65-10.65 16.4l-1 2.35q-.9 2.9-.15 5.45l6.05 20.15q4.9 19.55 3.45 32.4l-.3 6.35q-1 8.1-4.25 16.9Q79.1 201.3 49.8 226l-5.6 4.95q-6.65 6.25-12.15 12.75-17.4 20.75-15.95 35.95l.45 4.8q1.25 5.75 5 10.8 12.1 16.1 45.2 18.65 10.25 1.85 25 .1 29.45-3.45 51.75-21.2l11.15 8.8Q148.3 309 134 316.05q-28.55 14.05-68.1 12.2-16.05-.7-32.2-7.15Q1.3 308.3.55 279.9q.3-7.15 3.4-16.75Q10.1 243.95 24 231.9l14.35-14.65q10.5-8.65 20.9-21.65 20.9-26 20.7-47.8 0-7.9-1.45-17.9-2.95-19.95-10.25-30.4-8.35-5-15.95-13.5-15.25-17.1-11.6-34.85 1.25-8.4 7.45-18.7 12.4-20.6 37.1-29.95l-2.5 8.1 11.1-5Q105.8.9 110.1 2.5q-6 10.4-6.7 13.8.3 6.9.25 15.25"/><path fill="#598b1f" d="m85.25 2.5-2.5 8.1 11.1-5Q105.8.9 110.1 2.5q-6 10.4-6.7 13.8.3 6.9.25 15.25-.05 16.7-1.6 23.85-1.6 7.65-4.5 14.8-2.65 2.7-5.75 5 .15-2.6-.1-7.1l-.25-4Q90.4 66.15 86.7 70l-1.75-6.05-1.15-2.9q-1.55 4.6-5.95 10.3l-4.05 4.8q-1.95-3.55-2.4-8.95v-4.7q-.95.45-3 3.15l-1.85 2.55q-.65-1.95-1.35-9.2l-.6-6.85Q62.15 53.8 59.4 61q-1.35 3.6-2.25 6.85l-.7-2.9L56 62.7l-2.25 3.55q-.4-1.1-.85-6l-.35-4.7q-3.05.8-5.55 6.6-1.75 4.05-3.35 11.1-5.25-11.15-2.95-22.1 1.25-8.4 7.45-18.7 12.4-20.6 37.1-29.95"/><path fill="#adc186" d="M48.75 40.6q1.3-4.05 5.7-9.7 4.25-5.45 7.65-7.6 2.75-1.75 3.15-1.2.35.45-1.55 2.85-1.45 1.8-5.85 8.5L52.1 42.2q-1.75 2.55-3 1.95-1.3-.6-.35-3.55"/><path fill="#c1bfb8" d="M152.45 351.85q-.55-3.25.5-6.9 3.1 10.65 9.1 17.85 9.2 11.1 27.3 18.35 6.6 2.65 11.45 1.8 4.05-.7 5.7-3.5l.3 1.25 4.15-.3q4.85-1.15 8.45-5.55l.15 1.15q1.15-.4 2.5-1.35 2.7-1.8 3.85-4.35-1.25 7.2-11.2 12-10.15 4.9-20.95 2.95-6.65-.5-15.15-4.95-17-8.85-26.15-28.45"/><path fill="#691b07" d="M122.75 150.65q-.3 9.5 16.1 11.45 13.65 1.6 27.7-2.05-8.2 5.1-17.75 5.8-6.6.55-13.45-.05-13.8-1.15-15.25-6.7-.85-3.15 2.65-8.45"/><path fill="#c1bfb8" d="m241.2 134.45-9-3-9.75-3.4q-4.55-1.75-8.3-2.05l-6.65.2q-2.35.25-10.35 4.55-7.85 4.2-9.2 4.2h-.1q-8.05 0-18.25-4l-8.7-4.1q-2.35-1.3-5.8-1.3-2.05 0-3.4.55-.6-.7-.55-2.15.05-1.55.9-2.85 6.4-1.9 15.1 2.75 6.85 3.6 13.7 4.7 6.5 1.05 9.95-.6 11.15-5.45 19.1-6.1 7.25-.65 14.35 2.55 14.9 6.8 25 7.35 9.85.5 13.05-5.05l-.25 1.1q-1.35 4.65-6.6 6.4-5.35 1.75-14.25.25m-38.05-44.8q-.75 2.55-1.35 6.85-.55 3.9-.45 5.05l-5.1.25 2.7-5.75q2.9-5.85 4.2-6.4"/><path fill="#691b07" d="M175.05 209.65q-.35 4.2.9 11.15l-.05-.05-5.45-2.65q-1.45-3.3-.8-7.25 1.4-7.85 12.1-10.9l.65-.2q-3.55 1.85-5.55 4.85-1.6 2.45-1.8 5.05"/><path fill="#c1bfb8" d="M131.7 289.5q13.95-1.9 24.2 8.1-4.3-3.2-11.05-4.3-13.6-2.25-26.1 8.15l1-8.05 3.35-1.6q4.2-1.7 8.6-2.3"/><path fill="#852a18" d="M125.85 296.55q-5 2.6-6.65 4.05l.9-10.2q1.15-10.7 2.35-13.1l3.2-1.9L127 277q1.6 2.05 2.65 4.25 3.5 7.1.85 13.05z"/><path fill="#691b07" d="M123.3 291.75q4.1-1.65 8.3-2.25-.1 2.4-1.1 4.8l-4.65 2.25q-5 2.6-6.65 4.05l.6-7.2q1.5-.85 3.5-1.65"/><path fill="#c1bfb8" d="m171.2 308.2 7.05 1.2.1 3.5q-.1 4.35-1 8.4-2.9 12.95-12.65 18.3l-.8-1.35q-.5-1.6.7-2.8 2.5-2.85 4.55-7.7 4.1-9.65 2.05-19.55"/><path fill="#852a18" d="m170.05 326.8 1.4 1.5q1.85 1.75 4.1 3.05 7.1 4.2 15.15 2.45l-3 5.1q-3.95 5.75-8.45 8.85-3.55-.2-7.25-1.7-7.45-3-8.25-9.6l2.5-2.8q2.7-3.45 3.8-6.85"/><path fill="#691b07" d="M173.95 330.35q-3.35 6-9.25 9.25l-.05.05q-.7-1.45-.9-3.2l2.5-2.8q2.7-3.45 3.8-6.85l1 1.1zm77.95-49.55q-1.8-2.75-2.35-5.5l11.5 2.15q1 3.15 2.7 4.95l-6.7-.8zm23.15 1.6q-1.35-1.45-2.2-4.05l13.1-.5q1.4 2.4 3.3 4.1z"/><path fill="#c1bfb8" d="M294.1 224.6q-1.05 1.85-.6 3.5l2.05 4.35q1.55 3.3 1.75 6.6.55 3.35-1.95 8.2-2.55 4.95-5.95 6.9l2.3-3.2q2.25-4.2 2.25-9.25.1-1.95-.2-4.4-.55-4.9-2.3-7.3-.35-1.15-.05-2.6.55-2.9 3.85-4.3zm30.4 7.15q-3.6 8.4-8.05 13.6-4.85 5.75-11.4 8.5l.35-.85 1.15-1.95 5.95-5.7q6.45-7.2 9.2-14.4l2.45-2.5q2.85-2.25 5.05-1.15-.75.2-1.75.8-1.95 1.3-2.95 3.65m-230.05-89.5-1.55.3q3.45-.9 5.75-2.95l1.6-1.9-1 12.2q-1.55 13.55-4 20.1-1.05 2.75 1.3 5.05 2.7 2.7 8.1 1.1l3.9 6.15q5.25 7.7 12.15 15.4 22 24.6 51.8 39.95 1.15.6 1.85 1.6.65 1 .05 1.25l-1.15-.25q-10.05-3.85-24.3-13.5-28.5-19.3-49.65-48.35l-3.2.35q-3.95-.1-7.8-2.25 1.8-4.7 3.45-11.3 3.35-13.25 2.7-22.95"/><path fill="#852a18" d="m128 184 7.9 7.9q-.9 9.7-6.4 13.15-2.75 1.7-5.3 1.5l-8.35-8.5q4.8.1 8.65-5.7 3-4.5 3.5-8.35m-20.95 4.55L99.3 178.4q1.6 0 4.1-1.65 5.05-3.3 9.5-11.35l6.75 9.35-.4 2.05q-.55 2.4-1.65 4.5-3.5 6.7-10.55 7.25"/><path fill="#691b07" d="M128.3 205.65q-2.25 1.05-4.1.9l-8.35-8.5q2.1.05 4.15-1.15 3.7 4.15 8.3 8.75m-24.25-29.35.6-.15 1.8 3 5.55 8q-2.4 1.2-4.95 1.4L99.3 178.4q1.85 0 4.75-2.1"/><path fill="#c1bfb8" d="M79.45 135.55q1.4 9.05.5 12.25-2.4-.9-5.3-2.85-5.8-3.95-8.15-9.35 5.25 4.45 8.4 4.35 3-.1 4.55-4.4m7.7 6.85q-4.1-1.65-4.45-5.9l.15-.95q.5 2.75 5.3 4.2 4.85 1.45 9.45-.7 2.3-1.1 3.6-2.5-2.95 5.15-8.8 6zM85.1 270.25q-.05-6.3 1.2-13.8 2.55-14.95 9-20.85-4.75 11.25-5.65 21.95t1.55 27.15q1.9 13.25 9.6 20.75 6.75 6.65 13.65 5.45-2.4 1.9-5.65 1.85-9 .2-16.1-11.8-7.4-12.6-7.6-30.7"/><path fill="#c1bfb8" d="M60.3 93.7q-8.95-7.45-14.15-15.85Q54.7 85.3 59.9 89.1q5.15 3.75 9.6 5.75 3.85 1.75 6.9 9.45 2.7 6.65 4.9 17.05 3.05 14.55 3.05 28.8 0 8.4-6.55 23.15-9.25 20.85-26.55 37.2-25.15 23.8-34.1 36.6-13.85 19.85-11.3 38.4 2.2 16.05 19.25 26.5 15.6 9.6 36.4 10.7 34.4 1.8 56.6-4.85 18.7-5.55 33.3-18.8l3.25 2.55Q148.3 309 134 316.05q-28.55 14.05-68.1 12.2-16.05-.7-32.2-7.15Q1.3 308.3.55 279.9q.3-7.15 3.4-16.75Q10.1 243.95 24 231.9l14.35-14.65q10.5-8.65 20.9-21.65 20.9-26 20.7-47.8 0-7.9-1.45-17.9-2.95-19.95-10.25-30.4-3.45-2.05-7.95-5.8"/><path fill="#e5e3da" d="M71.45 166.1q-3.5-.2-5.95-2.4-3-2.75-3-7.55 0-4.95 2.9-7.45 2.6-2.15 6.8-2.05 4.35.15 7.05 2.5 3.2 2.9 3.2 8.5 0 4.5-5.45 6.9z"/><path fill="#c1bfb8" d="M63.1 159.95q5.45 3.45 10.15 2.6 4.8-.85 9.15-6.35l.05 1.45q0 4.5-5.45 6.9l-5.55 1.55q-2.65-.15-4.8-1.55-2.55-1.65-3.55-4.6m20.65-20.05 2.85 2.05q3.7 1.75 7.85.3l.3 3.6-6.15-.2q-5.95-1.1-4.85-5.75"/><path fill="#0d131a" d="M78.95 163.3q-3.55 12.55-12.7 25.35-9.05 12.7-24.9 27.45-20.25 18.85-28.05 30.55-11.55 17.25-11.05 36.5.05 17.55 18.3 29.45 16.7 10.9 43 13.8 26.15 2.85 50.25-3.45 26.15-6.85 40.15-22.3.25-.2 1.15.55.95.75.7.95-14.15 15.5-40.85 22.65-24.95 6.7-51.7 4-27.2-2.8-44.35-14.15Q.05 302.2 0 283.15q-.35-19.4 9.35-35.05 7.95-12.85 30.25-33.6 14.55-13.55 23.4-25.9 8.6-12 12.5-23.65zM110.3 1.35q1.6.25.8 1.35-3.5 5.35-8.3 15.9-4.8 10.5-7.45 18.7-.8 2.5-1.15 2.3-.35-.15.2-2.65 1.5-7.65 6.25-18.8 4.35-10.3 7.6-14.9Q102.9 3 92.55 7.1q-8.1 3.2-10.2 4.7-1.1.6-1.3.5-.25-.2.3-1.5l3.1-7.45q-19.15 9.1-30.2 22.15Q44 37.6 42.15 51.3q-1.85 13.2 4.4 25.15 6.3 12.1 19.45 20.2 2.6 1.6 3.65 2.6 1.65 1.55 2.55 3.9 5.3 14.2 7.5 25.4 2.3 12.05 1.45 22.5l-2.35-2.5q.75-10.2-1.6-21.75-2.05-10.1-6.9-23.1-.75-2.05-2.3-3.35l-3.55-2.45q-14.1-9.25-20.65-22.1-6.45-12.75-4.2-26.4 2.3-14.2 13.65-26.55Q65.45 9.55 86.3.3q.95-.45 1.2-.25.2.15-.15 1.15l-3.4 7.75q8.5-4.35 15.55-6.3 6.6-1.85 10.8-1.3"/><path fill="#0d131a" d="M141.95 292.75q.3-.3 1.5 0 1.15.3.95.5-11.25 10.35-28.45 16.3l1.4-2.75q14.55-5.3 24.6-14.05M95.8 141.8l.05 2.95q0 24.45-12.7 45.25-8.35 13.6-27.25 31.7l-14.2 13.6q-7.75 7.65-12.4 13.65-12.05 15.6-12.05 32.15 0 9.1 7.7 16.35 7.2 6.8 19.95 10.95 12.35 4.05 27.35 4.75 15.35.75 30.05-2.2l3.3 1.55q-15.4 3.6-31.75 3.15-15.95-.45-29.25-4.7-13.7-4.35-21.45-11.75-8.35-7.95-8.35-18.1 0-17.1 12.6-33.3 4.75-6.15 12.7-13.95l14.3-13.7Q72.95 202.3 80.95 189q12.05-20 12.1-44.15l-.05-2.3zm6.55-112.15.15-6.3q.2-6.05.5-8.6.05-.5 1.05-1.95 1-1.5.95-1.15-.55 4.35-.4 18.3.75 17.3-2.6 30.5-4.05 15.95-14.4 27.9-2.15 2.5-2.5 4.95-.25 2 .7 4.85 4.65 13.55 7 23.7l-2.2.9q-2.3-11.15-6.75-24.15-1-3.05-.75-5.35.35-3 2.9-5.9 9.75-11.05 13.75-27.9 3.25-13.6 2.6-29.8m56.7 133.7 2.3-.45-.3 5.15q-.3 9.05 4.7 17.9 4.85 8.6 13.45 14.8l-2.75 1.3q-8.4-6.25-13.05-15-4.8-9.05-4.6-19.05zm95.7-29.1 2.15-.85q11.6 6.9 18.3 15.25 7.45 9.3 7.6 18.95 0 16.75-14.4 28.45-16.25 13.2-46.5 15.7l-1.8-1.85q30.05-2.15 46.05-14.8 14.15-11.2 14.15-27.5-.1-9.25-7.5-18.35-6.65-8.25-18.05-15m-132 144.6q-.15.15 0-1.15.1-1.35.4-1.6 7.3-6.25 13.2-6.25 5.55-.05 14.6 5.6 2.3 1.4 2.05 1.85-.3.4-2.55-.9-7.85-4.55-14.15-4.25-7.15.3-13.55 6.7"/><path fill="#0d131a" d="M137.8 292.15q10.15-.9 17.3 4.45 1.6 1.2 1.45 1.6-.2.4-1.85-.75-7.3-4.95-17.3-3.7t-18.25 8.2l.05-1.05q.15-1.05.35-1.2 8.15-6.6 18.25-7.55M206 140.9q.65.1 1 1.4.45 1.5.15 3.85-.3 2.4-1.05 3.7-.6 1.05-1.3 1-.75-.1-1.05-1.4-.35-1.4-.05-3.85.3-2.4 1.1-3.7.6-1.1 1.2-1"/><path fill="#fff" d="M205.85 142.3q.75.1.5 1.7-.15 1.5-.85 1.5-.3-.05-.45-.5v-1.15q.05-.75.35-1.2z"/><path fill="#0d131a" d="m289.6 280.9.9.95q.6.95.3 1-24.5 3.1-40.45-1.65-17.8-5.3-36.3-23.2-.2-.2-.3-1.45-.05-1.25.15-1.05 18.45 17.85 37.7 23.5 16.05 4.65 38 1.9m-191-101.85q-.2-.25.65-.55l1-.1q12.7 17.05 31.35 33.35 20.7 18.1 39.7 27 2.9 1.35 2.6 1.85-.3.55-3.25-.75-21.5-9.4-40.1-25.6Q114.3 200 98.6 179.05m-23.45-64.3q.1 1.25-.25 1.3-8.05 1.15-8.85 8.55-.7 6.95 3.25 13.2 4.05 6.5 10.9 8.7.35.15-.5 1.95-8.25-2.7-12.55-10.2-3.8-6.65-3.1-13.8.35-3.9 2.9-6.85 3-3.4 7.8-4.05.3-.05.4 1.2m49.8 161.1q-.2-.2.45-.65.6-.45.8-.25 5.25 5.75 6.25 10.65.9 4.55-1.75 9.35l-.95.2q-.85-.05-.7-.3 2.35-4.25 1.45-9-1-5-5.55-10m65.95 56.45q.3-.1.05 1.15-.2 1.25-.55 1.3-5.85 1.05-11.45-.9-5.9-2-9.35-6.6-.2-.25.2-.9.45-.6.65-.35 3.55 4.5 9.25 6.1 5.3 1.5 11.2.2m-4.15-198.6q.15-.3.85 0 .65.3.55.55-8.85 21.45-25.5 29-11.55 5.25-28 3.9-11.85-.95-14.85-6.25-2.85-4.95 2.65-12.05 5.7-7.3 15.4-14.4 9.4-6.95 16.4-9.2.3-.1 1.1.45.75.55.45.65-6.3 1.55-16.15 8.95-9.9 7.4-15.75 14.95-4.85 6.2-1.45 10 3.1 3.45 12.35 4.15 16.65 1.35 27.55-3.4 15.85-6.9 24.4-27.3m97.15 128.7q.3-.05.4.8.05.85-.25.9-19.5 2.1-32.55-2.45-16.65-5.85-34.7-25.15-.2-.2.45-.75.65-.6.85-.35 16.85 18 34 24.05 13.75 4.85 31.8 2.95m-171.6-96.3q-.2-.25.25-1.1t.65-.6q8.3 12.6 25.9 29.1 16 15.05 25.75 20.85 5.1 3.05 11.9 5.85 5.1 2.55 8.5 7.8 1.15 1.8.75 1.95-.45.15-1.7-1.45-3.15-4-9.1-6.95-7.15-3.1-11.1-5.45-11.55-6.85-26.55-21.05-16.2-15.3-25.25-28.95"/><path fill="#0d131a" d="M193.5 305.85q0-.2 1.05-.55l1.05-.1q1.05 11.85-.75 19.65-2.8 12.3-12.9 21.75-2.2 1.85-3.4 1.9-2.7.15-5.8-.8-2.7-.85-4.65-2.15-3.45-2.3-4.7-5.5-1.2-3 .35-4.7 4.45-5 6.25-12.5 1.75-7.4.3-14.65-.05-.3 1-.25t1.1.35q1.4 6.95-.35 14.25-1.9 7.8-7 13.55-.75 1-.35 1.95 1.5 3.7 4.5 5.75 3.6 2.5 9.45 2.5 1.05 0 2.1-.9 7.05-6.45 10.2-14.8 3.8-10.2 2.55-24.75m29.2-90.4q-4.5-7.05-17.75-12.4-12.25-4.9-22.5-1.95-8.25 2.4-10.35 7.35-2.05 4.65-.6 10.6.05.25-.8 0t-.9-.7q-1.3-6.1.35-10.5 2.5-6.4 12.8-8.9 11.15-2.7 22.8 2 14.05 5.65 18.9 13.8 4.05 6.85 1 13.8-1.2 2.8-3.5 4.95-2.55 2.35-6 3.45l-2.05.35q-.85-.1-1.95-.85-6.35-4.3-14.8-6.55-7.35-2-13.25-1.8-.3 0-.5-.7-.2-.75.1-.75 8.85-.25 14.9 1.4 7.5 2.05 15.45 7.9 6.8-1.75 9.75-8.25 2.75-6.3-1.1-12.25m8.75-109.35q-14.1-3.55-26-3.55-14.55 0-28.7 5.15-13.95 5.1-23.35 13.55-.85.7-1.25 2.05-.4 1.3-.1 2.05 2.65-.8 4.25-.65 2 .15 4.8 1.7 4.05 2.25 9 3.95 9 3.05 17.85 3.1 2.75 0 8.55-3.65 6.2-3.9 10.75-4.5 9.3-1.2 19.7 2.8l7.95 3.3q4.5 1.8 7.65 2.35l12.2-.35q4.35-1.7 5.4-6.75.6-3-.5-5.7-1.3-3.2-4.8-5.45-8.6-5.65-23.4-9.4m10.05 29.3q-2.45-.4-6.5-1.9l-7.65-2.95q-10.55-3.75-19.75-3.05-4.3.35-10.5 4.45-5.95 4-9.15 4-9.05 0-18.3-3.65-3.1-1.25-9.25-4.6-1.65-.9-4.3-1.1t-4.2.45q-.45.3-.8-.15-1.25-1.25-1.1-3.25.15-2.3 2.15-4.2 9.65-8.7 23.95-13.85 14.55-5.3 29.35-5.3 12.2 0 26.35 3.6 14.9 3.8 23.9 9.6 4.5 2.9 6.4 6.45 1.7 3.15 1.15 6.35-1.1 6.4-6.15 8.55-5.1 2.15-15.6.55"/><path fill="#0d131a" d="m230.65 134.55-.1-3.9q-.05-.4 1.3 0 1.3.4 1.3.9.6 15.2-5.7 25.7Q219.7 170.05 204 170q-10.35 0-17.85-6.45-6.95-5.95-7.75-13.8-.05-.25 1.2-1.35 1.2-1.1 1.2-.8 0 8.35 6.9 14.55t16.25 6.2q13.6 0 20.6-10.35 6.1-9 6.1-23.45"/><path fill="#0d131a" d="m222.35 127.65 1-.05q1 .1 1 .3.55 13.65-3.9 22.5-5.4 10.7-16.95 10.7-9 0-13.65-7.15-4.05-6.3-4.05-16.95 0-.3.9-1.55.9-1.3.9-.95-.1 11.45 3.25 17.7 4 7.35 12.65 7.4 11.1-.05 15.85-10.9 3.55-8.25 3-21.05m-13.7 64.25q-2.2-4.85-1.2-10.55.25-1.55.85-1.5t.5 1.6q-.95 11.45 8.1 16.4 9.65 5.25 23.85-1.3 2-.95 2.3-.35.3.65-1.7 1.6-15.1 7.65-25.85 1.55-4.65-2.65-6.85-7.45m54.2-26.8q1 .9 1.65 2.2l.6 1.8q0 .8-.65.8-.65-.05-.85-.75-.8-2.8-1.35-3.65-.35-.55-.15-.75.25-.15.75.35m13.7.7q.5-.75.7-.65l-.05 1-1.15 3.35q-.2.7-.9.5-.7-.15-.55-.85.35-1.25 1.95-3.35M146.2 293.3q4.7 5.4 13 9.4 31.15 14.85 44.85-8.75 10.1-17.3 9.5-51.65-.05-1.45.65-1.45.65 0 .7 1.45 1.85 45.4-14.55 60.95-15 14.2-42.05 1.3-10.15-4.9-15.4-11.55zm-5.05-21.35-2.6-.8q1.7-6.25 6.1-12.4 4.25-5.9 10.45-10.95 10.3-8.35 11.95-10.4l.85.15.55.5q-5.2 6.15-11.4 11.15-6 4.85-10.1 10.65-4.25 6-5.8 12.1m165.4-14.8q-.65-.85-.2-1.35.5-.5 1.3.3 2.7 2.7 1.55 7.6-1.1 4.6-4.15 6.7-1.1.8-1.4.45-.25-.3.75-1.25 2.8-2.2 3.3-6.45.5-3.95-1.15-6m18-29.85q3.4-1.95 6.65-.2 3.65 2 4.55 6.45 1.15 5.45-2.8 13.8-3.45 7.3-10 15.25.55 2.6 3.55 4.3 3.6 2.1 9.7 2.1 5.6 0 8.05 3.25 2.25 2.9.9 6.8-1.95 5.55-7.8 7.35-5.45 1.75-10.2-.75-7.75-3.95-15-1.6-11.05 3.65-18.85.8-8.2-3.05-10.15-12.65-1.8-8.8 1.85-14.35 1-1.55 3.3-4 2.2-2.3 2.95-3.6 1.4-2.25 1.9-8.25.6-7.1-1.8-10.15-1.75-2.25-1.05-4.8.6-2.3 2.9-3.95 2.35-1.65 5.1-1.7 3.05-.05 5.35 1.95 5.6 4.9 6.5 13.85.8 7.9-2 11.85v.05l4.75-5.7q3.7-5.05 5.85-9.35 2.45-4.85 5.8-6.75m9.25 6.55q-.75-3.6-3.5-5.1-2.05-1.15-4.8.35-3.1 1.7-5.1 5.8-2.35 4.85-6.8 10.35-4.4 5.55-7.4 7.45-1.2 1.7-1.4 1.3-.35-.55.8-2.85l1.15-2.6q2.85-5.8 1.15-13.05-1.65-6.8-5.95-10.5-3.5-3-7.65-.35-4.15 2.7-1.55 6.05 2.65 3.45 2.1 10.8-.45 6.3-2.3 9.5-4.35 4.9-6.15 7.75-3.15 5.05-1.55 13.15 1.65 8.15 9.9 11.1 7.7 2.7 16.95-.35 8.15-2.7 16.3 1.55 4.2 2.2 8.45.85 4.75-1.5 6.6-6.9 1.15-3.3-.9-5.5-2-2.15-5.95-2.15-7.5 0-11.5-2.95-3.05-2.2-3.3-5.1l.15-.55q5.25-6.1 8.85-13.3 4.6-9.1 3.4-14.75m-198.95-42 .75-.1q.75-.1.75.15-.3 6.95-3 10.85-2.95 4.3-8.55 4.4l-.35-.75q-.2-.75.05-.75 3.65.15 6.9-4.1 3.35-4.35 3.45-9.7m-18.95 5.4h.25q3.2.05 6.85-4.4 3.7-4.55 4.05-9.25l.7.05q.7.3.7.6-.45 5.85-3.5 9.8-3.3 4.25-8.4 4.65l-.5-.7q-.4-.8-.15-.75m-8.65-9.8q3.7.9 7.4-3.35 3.6-4.2 4.25-9.8.05-.3.8-.2t.7.4q-1.05 8-4.9 11.9-3.7 3.75-8.65 2.5-.3-.05-.1-.8.2-.7.5-.65m-6.15-49.55q-2.9 4.75-9.25 5.7t-8.95-3.2q-3-4.7.5-11.25 3.25-6.15 8.85-8.5 4.15-1.75 9.9 1.25 6.35 3.35 8.7 10.3 1.25 3.8 2.3 13.05 1.05 9.35 1.05 16.9 0 2.95-1.75 6-1.55 2.55-5.85 7.45-3.35 3.8-8.45 4.4-5 .55-10.4-2.25-.35-.2.05-1.4.4-1.25.7-1.1 10.95 5.8 16.8-.85 4.2-4.75 5.6-7.1 1.55-2.6 1.55-5.15 0-7.05-1.3-16.7-1.2-9-2.45-12.8-1.95-5.8-7.15-8.65-4.8-2.55-8.55-1-5.3 2.15-7.9 7.2t-.25 8.7q2.15 3.4 7.25 2.85 5.1-.5 7.95-4.4 1.3-1.7 1.75-1.5.45.25-.7 2.05"/><path fill="#0d131a" d="M80.7 157.75q.75-3.7-.55-6.3-1.55-3.2-6-3.9-5-.75-8.1 1.75-2.7 2.2-2.8 5.75-.05 3.85 1.7 6.45 1.65 2.35 4.15 2.85 3.45.7 6.85-.8 3.95-1.8 4.75-5.8m-15.55-9.95q3.7-3.05 9.2-2.2 5.35.7 7.7 4.9 1.95 3.45 1.1 7.55-1 4.9-5.6 7.3-4.15 2.15-8.75 1.25-3.25-.7-5.45-4.4-2.1-3.5-1.8-7.25.3-4.4 3.6-7.15m193-16.15q9.1 1.8 15.15 4.3 8.35 3.45 8.4 7.4-.05 3-7.35 6.5l-.5-.7q-.4-.8-.15-.9 2.45-1.15 3.75-2.45t1.25-2.45q.05-2.8-6.5-5.6-5.55-2.35-14.35-4.15-.3-.1-.15-1.05.1-.95.45-.9M253 261.1l.95.15q.7.35.5.6-3.4 3.95-3.9 8.4-.6 4.95 2.35 9.85.15.25-.7.3l-.95-.15q-5.8-10.35 1.75-19.15m11.15 2.5q-2.7 4.9-2.8 9.65-.05 5.25 3.3 8.5.2.2-.65.4l-1 .05q-3.85-4.25-3.7-9.2.15-4.15 3.3-9.75l.95-.1q.75.2.6.45m10.25.25.9.05q.8.15.65.35-2.7 3.55-2.8 9-.1 5.5 2.55 9 .2.25-.65.35l-1-.05q-2.8-4.15-2.7-9.2.1-5.1 3.05-9.5M95.65 287.8q-.2-5.45 1.75-9.5 2-4.25 5.25-4.3 3.15.05 5.35 4.2 2.05 3.85 2.05 8.5 0 5.75-1.8 9.25-2.05 4-5.9 4-3-.05-4.9-3.95-1.65-3.4-1.8-8.2m1.5.05q.1 3.95 1.55 7.05 1.55 3.35 3.65 3.3 3.4-.05 4.8-4.45.9-2.8.9-7.05.05-4.3-1.7-7.6-1.65-3.15-3.7-3.1-2.15-.05-3.8 3.2-1.8 3.55-1.7 8.65"/><path fill="#0d131a" d="M132.6 234.15q-5.2-.15-10.1 5-4.75 4.95-7.15 12.65-.5 1.6-.9 1.5-.35-.1 0-1.7 2.15-9.4 7-14.45 5.15-5.4 12.5-4.95-2.5-2.45-7.4-3.7-3.7-.95-7.35-.95l-4.15.65q-3.75 1.1-7.15 5.5-3.9 5.05-6.35 13.4-.45 1.5-.8 1.4t-.05-1.6q2.6-13.9 10.4-18.95-9.55 1.4-16.4 10.4-8.15 10.65-8.15 27.55 0 21.45 7.45 34.7 6.75 12 15.15 10.8 4.8-.7 6.8-3.85 1.6-2.5 2.25-8.2.6-7.35 1.25-11.8 1.15-7.95 3.85-14.65 1.65-3.95 8.95-12.95 6.15-7.5 7-13.8.8-5.5-1.05-8.7-1.8-3.2-5.6-3.3m3.1-3.2q6.8 6.1 5.45 15.5-1 6.8-7.25 14.5-7.35 9-8.75 12.5-2.6 6.45-3.8 14.6-.7 4.55-1.45 12.3-.85 6-2.75 8.8-2.45 3.5-7.8 4.25-8.85 1.2-16.3-10.4-8.75-13.6-8.75-37.1 0-19.65 9.4-30.15 9.05-10.15 25.6-10.45 9.95-.2 16.4 5.65M152.65 355q-3.4-7.75.7-13.65 3.7-5.3 11.85-7.2.3 1.45-.1 1.55-6.65 1.7-9.95 6.65-3.5 5.3-.85 11.45 5.6 12.95 18.8 22.2 12.85 9 24.6 8.9 3 .05 5.45-1.75 2.85-2.05 2.9-5.4 0-7.6-7.2-8.05l-4.95-.7q-1.85-.5-3.3-1.65-1.1-.85-.9-1.2t1.4.3q2.65 1.45 7.8 1.75 4.4.25 6.75 2.75 2.4 2.45 2.4 6.8 0 4-3.4 6.7 6.05-.75 10.15-4 4.2-3.4 3.85-7.6-.55-5.3-4.1-7.9-2.95-2.1-7.1-1.95-2.8.1-5.2-.65-1.65-.5-1.7-1 0-.5 1.9 0l5.1.3q4.9-.4 8.45 2.15 4.05 2.95 4.65 8.9.2 2.8-1.65 6.1 2.5-1.15 4.35-4.55 1.8-3.3 1.8-6.5 0-5-3.8-8.1-4.1-3.35-11.35-3.4-6.8-.05-16.05-5-8.45-4.6-10.25-8-.1-.3.55-.85.7-.5.85-.25 1.25 2.75 9.3 7.4 9.05 5.2 15.6 5.2 7.35 0 12.1 3.4 5.05 3.6 5.05 9.6.05 7.2-8.1 12.85-8.7 6-21.35 6.05-12.8-.05-26.05-9.3-13.35-9.35-19-22.35M203.2 88.1q2.2.1 6.65 4.7 4.6 4.65 7 9.45.1.3-.95.45l-1.2-.15q-1.85-3.65-6.1-8.1-4.05-4.15-5.2-4.1-.75.05-2.5 3.95-1.65 3.55-3.3 8.4l-1.4.05q-1.3-.2-1.2-.5 1.75-5.2 4.25-9.6 2.6-4.6 3.95-4.55"/></svg>