<svg xmlns="http://www.w3.org/2000/svg" width="201" height="212" viewBox="-1.3 -0.2 200.55 212.05"><path fill="#ffe100" d="M149.05 81.45Q162.5 101 158.4 123q-4.15 22.15-23.9 34.35-18.85 11.6-40.65 5.55-21.95-6.1-34.65-26.7-7.4-12-9.25-24.85Q48.2 99.6 51.3 88.6q3.4-12.2 8.85-18.9 4.15-5.15 13.3-10.95 17.5-11.1 38.3-5.55 22 5.9 37.3 28.25"/><path fill="#ffe100" d="M168.3 52.6q.7 5.65.1 9.65-.55 3.85-2.2 5.6-1.5 1.55-4.05 2.65l-3.6 1.5q-.95.55-4.4 4l-5 4.75-3.05-3.5q-1.9-2.5-1.15-2.9 1.95-1.2 4.3-3.2 3.2-2.8 1.95-3.35-4.1-1.75-19-18.7Q116.3 31 113.6 23q-1.75-5.1.2-11.3 2.15-6.8 7.4-8.85Q126 1 128.95.95q3.65-.05 8.3 2.25 9.3 4.65 20.1 23.3 9.8 16.9 10.95 26.1m-63.55 132.05q4.35-6.7 9.75-9.25 4.65-2.2 8.6-.75 5.4 2 6.7 9.45 1.1 6.15-.75 12.55-1.55 5.3-8 9.25-7 4.25-13.15 1.95-4.9-1.9-6.15-9.05-1.3-7.55 3-14.15"/><path fill="#515457" d="M112.15 165.1q2.4-.8 6.8-1.5 4.9-.75 3.1.55-2.75 2-4.7 4.75-2 2.8-1.85 4.6.1 1.5 2.15 2.8l3.2 1.55q3.35 1.5 1.15 8.75-.8 2.85-4 4.25-3 1.35-5.85.65-2.6-.6-3-4.5-.2-1.65.15-5.3-3.15-4.4-3.3-7.4-.05-2.45 1.95-5.45 2.05-3 4.2-3.75"/><path fill="#fff" d="M99.15 89.9q.9-.2-1.1 3.55-2 3.8-4.8 4.85-4.1 1.5-8.75.9-4.95-.65-6.25-3.3l11.55-3.45zm12.6-7.4 5.15-8.4q4.5-7.1 4.9-7.4.55-.4 1.1 3.95.6 4.55-.35 6.75-1.25 2.95-3.15 4.15-1.8 1.15-4.9 1.25l-1.75-.1z"/><path fill="#ffe100" d="M26 39.7q-.15-2.5 1.9-4.4 1.15-1.05 10.45-3.9 9.35-2.85 10.6-2.4 1.2.45 15.4 23.5 14.1 22.9 14.1 24.05 0 1.45-25.3 7.6-.9.2-14-21.5Q26.15 41.1 26 39.7m20.4 9.25q-.6-2-1.2-3.05l-1.65-2.05q-1.4-1.4-1.8-1.2-.75.45-.45 2.45.25 1.7.85 2.8.75 1.35 1.85 2.4 1.4 1.3 2.55 1.05.5-.15-.15-2.4m24.1-38.9Q79.7 7.1 80.95 8.6q28.6 49.35 26.85 52.1-1.7 2.75-29.95-2.75-1.7-.55-19.05-38.35-.45-1.2-.3-2.7.25-1.85 1.5-2.75 2.1-1.5 10.5-4.1m5.1 11.65q-1.45-1.45-1.9-1.2-.3.1-.25 1.8.05 1.95.9 3.5.5.95 2 2.25 1.55 1.35 2.15 1.05.55-.25-.1-2.4l-1-2.7z"/><path fill="#dcc200" d="M149.85 135.75q9.35-11.55 9.35-21.15.2 10.9-3.1 18.65-2.6 5.95-9.85 14.75-9 10.9-24.55 14.8-18.65 4.7-38.9-4 4.65 1.3 14.7.1 11.1-1.3 25.15-5.15 16.25-4.45 27.2-18m-108.15-93q-.45 1.05-.4 2.45.05 1.8 1.1 3.3.9 1.35 2.5 2.25 1.3.7 2.05.75l-.3 2.75q-.45 2.15-1.5 2.45-2.45.8-5.05-1.15-2.2-1.65-3.45-4.25-1.15-2.5-.95-5.3.2-2.45 1.2-3.5.55-.6 2.05-.7 1.75-.15 2.75.95m29.4-23.3q1.8-.1 2.75 1.05-1.2 2.75.75 5.65 1.15 1.75 2.05 2.35t2.5.7l-.25 2.6q-.4 1.95-1.45 2.25-2.45.8-5.25-1.25-2.45-1.75-3.3-3.9-1.05-2.6-.9-5.3.15-2.45 1.1-3.5.55-.55 2-.65"/><path fill="#0d131a" d="M92.45 30.95Q84.3 15.5 81.5 11.3q-1.25-1.9-1.7-2.15l-2.45-.2q-2.95.4-8.25 2.25-4.4 1.55-7.7 3.1-1.55.75-1.8 2.8-.25 1.45.7 3.3l7.2 14.95q5.65 11.55 9.65 19.15 1.1 1.9-.8 3.1-4.35 2.9-5.75 4.6-.6.8-1.2-.1-.55-.9.3-1.9 1.15-1.35 2.35-2.2l2.35-1.5q1.05-.65.3-1.95-2.35-4.5-9.15-18.8L58.7 21.3q-1.4-3.1-.75-5.55.5-1.65 1.85-2.45 2.6-1.6 10.05-4l8.1-2.4Q81 6.1 83 9.65q24.1 43.85 24.8 45.55 1 2.2 1 3.15l-.8 3.25q-.6 1.9-1.35 2-.7.1-.4-1.45.5-2.55.25-4.1-.15-1.1-.95-2.45z"/><path fill="#0d131a" d="M48.25 28.35q2-.15 3.55 2.8L64.75 52.2 78.1 73.85q1.3 2.2 1.3 3.5l-.6 2.7q-.7 2.5-1.4 2.15t-.25-2.5q.3-1.3.2-2.05-.25-1.55-1.65-3.85L50.25 32.05l-1.15-1.4-1.6-.3q-3.3.1-9.7 2-6.95 2.05-10 4.2-.45.35-.75 1.6-.35 1.45.1 2.4Q29.9 45.9 40 62.1q8.75 14.1 13.1 20.55l-.3 1.55-.45 1.2Q25.8 42.4 25.5 41.25q-.45-1.9-.05-3.55.35-1.55 1.3-2.45 1.7-1.75 10.2-4.3 7.85-2.35 11.3-2.6m38.4 29.75q3.65-.65 8.55 1.1 4.85 1.75 6.95 4.35 1.2 1.5.7 2.1-.45.55-1.65-.8-2.4-2.7-6.45-4.25-4.3-1.65-8.55-1.15-.95.1-.8-.5.1-.65 1.25-.85"/><path fill="#0d131a" d="M72.55 82.75q.55.5.15.8-.4.35-1.1-.25-1.6-1.45-4.65-2.6-4.6-1.8-8.75-.7-1.2.35-1.05-.3.1-.7 1.15-.95 3.25-.8 6.95.1 4.1 1 7.3 3.9m38.8-.9 10.7-17q.4-.7.95-.35.5.35 0 1.1l-10.65 16.7q-.4.75-.95.65-.6-.1-.05-1.1M99.2 90.6l-13.65 4.1-9.05 2.45q-1.6.3-1.6-.45t1.2-.95l11.85-3.1 11.25-3.3q.65-.25.8.35t-.8.9"/><path fill="#0d131a" d="M113.45 83.1q-.7-.1-.55-.4t1.05-.25q6.5.45 8.25-5.85 1.4-5.15-.5-8.85-.65-1.2-.3-1.45.35-.3.85.5 2.65 4.25.8 10.35-2.1 7-9.6 5.95m-14.1 8.6Q97.7 97.25 92 99.35q-5.8 2.1-11.75-.95-1-.5-.7-.95l1.05-.05q4.45 2.3 9.8.95 6-1.5 7.95-7.05.3-.85.75-.55.45.25.25.95m21.15-4.45q-.1-.9.55-1.25.55-.1.75.8.55 2.95.5 4.45 0 .6-.65 1l-1.3.25-3.45-1-9.4 6.15-.55 4.05q-.1.75-.85 1.15l-1.4.1-4.1-1.8q-.45-.25-.25-1.05.3-.6 1.05-.3l3.05 1.35q.35.2.65 0l.3-.6q.55-3.6.7-3.65l10.4-6.9 1.35.25 2.3.75.6-.1.25-.6z"/><path fill="#0d131a" d="M114.95 79.35q-.3-.7-.25-1.35.1-.6.5-.8l1 .15q.5.35.8 1.05.35.7.25 1.35-.05.6-.5.8l-.95-.15q-.5-.35-.85-1.05M88.9 95.5q-.35-.75-.25-1.45.1-.65.6-.9.5-.2 1.1.15l.9 1.1.25 1.4q-.1.7-.6.9l-1.05-.15q-.6-.35-.95-1.05m19.25 86q-2.3 2.6-4.35 7.65-2.45 5.95-1.45 10.9 1.15 5.35 6.05 7.4 5.45 2.25 10.7-.7 5.15-2.85 7.55-8.95 3.25-8.25 1.5-15.35-1.6-6.5-5.7-7.4l-3.2-.2-2.75.5-.5-.9q.9-.7 2.85-1l4.1.15q5.2 1.55 7.05 8.45 1.95 7.3-1.25 16.3-2.6 7.25-8.85 10.4-6.2 3.1-12.55.45-5.05-2.1-6.5-8-1.45-6 1.5-12.95 2.3-5.2 4.6-7.75 1-1.15 1.6-.55l.3.55z"/><path fill="#515457" d="M126.05 102.5q.25-.1.3.25l4 14.65q.25.7.45.75h.55q3.85-1.55 8.45-3.2l.65-.15.15.7q1.05 3.25 1.7 12 .75 9.3.1 14.4l-.35 1.15-.3-1-2.2-5.15q-1.6-3.35-3.05-5.35l-.35-.25-.5.15-13.75 5.7-.9.1-.45-.45-8.2-24.4q-.15-.5 0-.75 0-.25.35-.45l12.95-8.5z"/><path fill="#0d131a" d="M140.2 8.85q-.55 2.25-3.9 4.3-3.3 2.05-4.85 1.3-1.25-.6-1.45-3.55-.2-3.05 1.05-5 2.1-3.25 6-1.65 3.9 1.5 3.15 4.6m-15.05 8.65q.3 1.45-2.35 4.25-2.8 2.9-5.1 3-3.45.15-4.65-3.45-1.25-3.65 1.7-6.05 1.55-1.25 5.85-.3 4.25.95 4.55 2.55"/><path fill="#fff" d="M118 23.05q-2.45.4-3.45-2.1-1-2.55 1.25-4.55.7-.6 4.1 0 3.55.6 3.6 1.65.05.9-2.05 2.85T118 23.05"/><path fill="#0d131a" d="m41.8 43.05-1-.5-2.75.1q-1.25.85-1.5 3.1-.25 2.8 1.65 5.8 3.45 5.6 6.6 4.15 1.75-.8 1.65-3.7-.05-2.45-1.15-4.75-1.25-2.6-3.5-4.2m-.95-1.4q3.15 1 5.3 5.1 1.7 3.2 1.55 6.2-.2 3-2.2 4.1-2 1.05-4.6-.45-2.65-1.45-4.35-4.65-1.7-3.15-1.5-6.15t2.2-4.1q1.5-.8 3.6-.05"/><path fill="#0d131a" d="M42.7 47.7q1.55 2.65 3.6 3.35l.35.3q.1.2-.2.25-2.65.6-4.75-3.45-2.1-4-.1-5.85.25-.25.65.25-1.3 2.15.45 5.15m30.2-27.4-2.75.05q-1.25.9-1.45 3.15-.25 2.8 1.6 5.8 2 3.2 4 4.1l2.6.05q1.75-.8 1.7-3.7-.1-2.45-1.2-4.75-1.2-2.55-3.2-4zm-3.55-.85q1.45-.8 3.6-.05H73q3.05 1 5.3 5.1 1.7 3.2 1.5 6.2-.2 2.95-2.2 4.05t-4.6-.4q-2.6-1.45-4.3-4.65t-1.55-6.2q.2-3 2.2-4.05"/><path fill="#0d131a" d="M78.6 29.3q-2.7.65-4.8-3.4t-.1-5.85q.2-.15.5 0 .25.1.15.25-1.3 2.15.45 5.1 1.6 2.65 3.65 3.4.25.1.3.25z"/><path fill="#515457" d="M163.95 130.1q-3.55-.45-6.65 2.1-1.65 1.35-.3-2.95l2.15-5.85q.7-1.65 2.7-2.7 1.55-.8 2.85-.85 1.1-.05 2.55.65 1.65.8 2.4 1.95.55.8-.1 6.15-.6 5.4-1 4.6-1.2-2.65-4.6-3.1"/><path fill="#fff" d="M138.6 8.8q-.6 1.7-3.1 3.3-2.45 1.5-3.4.9-.9-.55-.75-3 .1-2.4.9-3.4 1.55-2 4.3-.9t2.05 3.1"/><path fill="#0d131a" d="M114.35 163.75q2-.45-.7 1.25-5.95 3.7-6.45 8.5-.4 4.15 3.2 8.1-1.2 2.2-.5 5.4.75 3.4 3.05 3.85 3.65.75 6.55-2.35 2.9-3.05 2.5-7.15-.1-1.15-2-3.15-7.8-1.75-4.6-8.35 3-6.15 9.5-8.15l1-.1q.5.1-.25.6-8.75 5.8-9.15 10.4-.3 3.95 4.3 4.25 2.75 1.3 2.95 4.9.25 4.55-3.2 8-3.55 3.6-7.9 2.6-2.9-.7-4.05-3.75-1.1-3 .1-6.45-3.25-3.25-3.4-7.7-.15-5.2 4.75-8.7 2.25-1.6 4.3-2m55.75-39.15q-.7-1.9-2.4-3.1-1.85-1.3-3.8-.95-5.05 1-6.5 12-.1.8-.3-1.5-.25-2.3-.2-3.65.05-2.3 1.85-4.95 2.2-3.25 5.55-3.65 3.45-.4 6.35 2.95.9 1 .35 2.35-.55 1.4-.9.5"/><path fill="#0d131a" d="M169 136.15q-2.15-5.3-6.6-5.3-4.95 0-8.75 7.75-.4.9-1.05.65-.6-.2-.3-1.1 1.25-3.75 4.3-6.5 3.05-2.8 5.95-2.8 3.2 0 5.8 2.9 2.05 2.3 2.5 4.4.35 1.85-.15 2.35-.55.5-1.7-2.35m-37.4-17.65q-.65.25-1.1 0-.45-.2-.8-1.2l-3.85-14.1-12.5 8.35 8.1 24.35 6.95-3q7.15-2.95 7.85-2.8 1.8.4 5.6 10.1l.15-4.1q0-5.55-.65-11.95-.65-6.35-1.4-8.7zm-6.3-16.65.75-.3q.75 0 .95.75l4.25 14.4 8.3-2.65 1.25-.1q1.55.2 2.55 13.65 1.05 13.9-1.3 17.4-4-10.35-6.05-13.25l-.05.05-13.8 5.7-1.35.1q-.65-.1-.85-.8l-8.2-24.45-.15-.65.1-.5q.2-.55.6-.8z"/><path fill="#515457" d="m127.55 44.25-9.1-12.6q1.75 1.1 7.55.6 7.5-.7 12.85-4.9 5.5-4.3 7.05-9.5 1.2-3.95-.05-6.7 2.7 2.7 8.75 10.8.2 2.4-.7 5.7-1.9 6.6-7.6 11.2-5.9 4.75-11.5 5.65zm35.25-.5q-1.7 5.9-6.9 9.9-7.55 5.9-14.95 4.3l-6.3-6.65q1.85.6 7.6-.7 7.25-1.6 10.7-5.4 3.9-4.25 5.35-7.8 1.35-3.3 1.15-7.5 1.85 3.35 4 8.7z"/><path fill="#0d131a" d="M167.8 60.35q.5-5.95-1.95-13.75Q162 34.45 153.75 22q-8.15-12.2-15.6-17.25-2.9-2-6.15-2.6-4.65-.95-9.25 1.1-4.65 2.05-7.2 6.95-3.25 6.2-.6 13.65 2.65 7.65 18 24.65 14.4 15.95 20.3 19.3.8.45-2.95 3.65-4.4 3.55-5.3 4.4l-.85-2.15q4.65-3.7 5.5-4.8.8-.95.2-1.25-6.15-3.45-19.7-19.2-14.25-16.6-17.2-25.05-2.55-7.25.5-13.6 2.65-5.7 8.15-8.1 4.55-1.9 8.65-1.65 4.75.3 9.3 3.55 8.7 6.2 16.25 17.9 7.35 11.35 11.65 24.9 2.6 8.3 1.85 14.9-1 8.9-8.35 10.35-3.35.65-11.1 10.3L148.7 80q3.05-3.8 6.4-6.75 3.4-2.95 5.15-3.3 6.75-1.35 7.55-9.6"/><path fill="#0d131a" d="M121.5 10.2q-3.5-1.35-4.15-3.7-.8-2.8 1.6-4.7Q121.2 0 123.5.9q2.4.95 3.2 4.8.8 3.7-.4 4.65z"/><path fill="#fff" d="M121.85 8.8q-2.6-1.05-3.15-2.5-.75-2 1.1-3.4 1.75-1.35 3.4-.7 1.55.65 2.25 3.5.65 2.8-.2 3.45t-3.4-.35"/><path fill="#0d131a" d="m153.7 20.4 1.35 1.55q1.55 8.2-6.45 16.2-4.15 4.15-9.3 6-5.35 1.95-10.6.9l-1.25-1.45q5 1 10.25-.85 5.2-1.8 9.5-6.1 3.75-3.75 5.5-8.1t1-8.15m-9.35-10.8 1.6.75q1.95 2.6.95 6.85-1 4.2-4.3 7.85-3.75 4.15-8.75 6.4-6.95 3.2-14.3 1.45l-1.4-2.15q5.95 1.9 12.25 0 6.15-1.8 10.45-6.6 3.25-3.55 4.4-7.2 1.3-4.35-.9-7.35"/><path fill="#0d131a" d="m158.8 29 1.3 1.5q.35 4.35-1.15 7.95-1.45 3.4-4.9 6.8-7.85 7.7-18.55 6.6l-1.15-1.25q5.05.55 10-1.2t8.6-5.35q3.2-3.15 4.7-7 1.5-3.9 1.15-8.05"/><path fill="#0d131a" d="m162.5 37.2 1.35 1.35q.65 3.6-.6 6.85-1.2 3.1-4.3 6.4-7.45 8-17.3 6.95l-1.15-1.3q4.65.45 9.3-1.4 4.7-1.8 8.05-5.45 2.8-3 4.05-6.5 1.2-3.5.6-6.9"/><path fill="#515457" d="M63.2 142.25q3.25 1.55 6.95 1.5 6.75-.05 18-4.3 10.95-4.1 16.6-6.7l4.45-2.35q1.1.4 3.15 3.4 2 2.85 1.9 3.55Q88 152.8 71.5 150.4q-1.75-1.1-5.2-4.75z"/><path fill="#515457" d="M76.1 154.9q2.75 1.55 9.4 1.15 9.85-.55 21.45-5.95 10.5-5.3 11.1-5.4 1.25-.3 2 .4l1.65 2.6q2.4 2.65 2.1 3.45-.25.65-3.55 2.4-5.5 2.9-11.7 5.05-10.35 3.6-17.6 3.15-5.45-1.7-10.85-4.5zm76.95-56q1.65-2.9 2.55-6.55l3 11.75q-2.45 5.35-7.1 9.6-3.6 3.35-5.75 3.95-1.7-2.7-2.65-5.15-.95-2.6-.45-3.4 7.3-4.85 10.4-10.2m6.55 11.05v10.65q-1.05 3.1-3.45 7.15-2.65 4.4-4.45 5.5-.6-.9-1.8-4.35l-1.25-4.1q3.6-1.95 7.15-7.6 2.2-3.5 3.8-7.25"/><path fill="#0d131a" d="m154.7 91.7 1.1 1.85q-.7 4.55-4.7 9.35-3.5 4.15-8.2 7.15l3.1 7q3.8-2.65 7-6.25 4.35-4.85 5.1-9.1l.5 2.4q-.6 3.3-4.6 7.85-3.7 4.25-7.8 6.8l-.75.1q-.4-.15-.6-.5l-3.5-7.85q-.3-.85.5-1.45 5.45-4.4 7.95-7.15 5-5.55 4.9-10.2m.4 25.5q3.5-4.85 3.95-7.75l.25 2.4q-.45 3.15-3.95 7.5-2.75 3.4-6.1 6.15l2.55 6.7q2.05-2 4.4-6 2.3-3.95 2.95-6.5l.15 2.1q-.6 2.5-3.05 6.55-2.35 3.9-4 5.3l-.75.2-.6-.4-2.8-7.25-.15-.6q-.1-.6.25-.9 3.6-2.95 6.9-7.5m-80.8 37.25q-.35-.35.15-.9.45-.6.85-.3 6.7 5.2 25.6-1.75 9.45-3.45 17.55-8 .65-.3 1.25.15l.8.85 3.55 5.05q.75.95.6 1.75-.1.65-.75 1.05-9.5 5.6-18.65 8.2-8.65 2.45-15.5 1.85-.75-.05-.7-.75.05-.75.8-.8 7.95-.1 15.45-2.15 8.85-2.4 17.8-7.65l-4.1-5.85q-10.2 5.45-19.5 8.8-18.1 6.45-25.2.45"/><path fill="#0d131a" d="M63.4 143.1q-.25-.2-.4-.95t.1-.55q4.15 3.45 20.65-1.45 14.55-4.3 25.55-10.6l1-.15q.45.1.7.5l3.9 6.25q.45.55.3 1.3-.15.8-.8 1.1-11.7 6.25-21.75 9.7-14 4.85-21 2.7l-.6-.85q-.35-.75-.05-.7 6.7 1.95 21-2.9 10.65-3.6 21.3-9.3l-3.8-5.75q-10.55 6-24.5 10.25-16.7 5.05-21.6 1.4"/><path fill="#0d131a" d="M105.5 52.4q-.8-.15-.95-1.05-.1-.9.7-.75Q119.6 53.1 132 61.9q12.9 9.2 20.7 23.15 12.45 22.2 5 44.65-3.35 10.1-10.4 18.1-7.1 8-16.7 12.45-21.55 9.9-43 1.8-21.8-8.2-32.3-31.05-5.85-12.65-6.35-25.7-.5-12.6 4.05-23.95.35-.95 1.15-.55.35.15.2.65l-.4 1.15q-4.15 10.45-3.3 22.75.85 12.1 6.5 24.35 10 21.7 31 30.05 20.85 8.25 41.1-1.05 20.3-9.35 26.75-30.3 6.6-21.25-5.05-42.05Q143.5 73 131.3 64q-12-8.85-25.8-11.6"/><path fill="#ffe100" d="M17.6 86.6q2.85-.45 7.35 1.05 5.6 1.9 7.5 5.6 19.8 39.95 20.75 41.35 1.15 1.65 4.35 1.5 2.6-.15 4.55-1.1 2.45-1.15 4.6-4.1 1.95-2.6 2.2-4.25.2-1.4 3.25.35 3.1 1.8 3.7 3.9.65 2.3.15 5.55-.5 3.45-1.8 3.45-2.25 0-5.45 1-4.3 1.35-6.05 3.65-1.4 1.95-2.7 4.8l-1.7 3.15q-2.3 2.35-6.6 3.3-5.2 1.1-11.35-.5-4.55-1.2-10.85-4.95-7.1-4.3-13.05-10.1Q.75 125.1.6 108q-.05-7.8 5.3-14.25 5.15-6.2 11.7-7.15"/><path fill="#0d131a" d="M5.8 112.95q-3.7.05-4.65-3.75-1-3.85 2.35-5.95 2.2-1.4 5.6-.05 3.35 1.3 3.9 3.45.45 1.75-2 4-2.55 2.25-5.2 2.3"/><path fill="#fff" d="M5.75 111.35q-2.6.1-3.2-2.5-.6-2.65 2-4.25 1.6-1 4.1 0 2.25.95 2.75 2.2.45 1.2-1.75 2.9-2.1 1.55-3.9 1.65"/><path fill="#515457" d="M35.75 109.1q.75-1.85.75-7.75l3.35 7.05q1.85 3.85 2.15 5.05-.25 4.45-2.65 8.1-3.35 5-10.95 8.75-6.45 3.25-12.9 2.3-3.65-.55-6.25-2.15-.85-1.15-3.95-7.5l-2.95-6.1q3.35 3 8.6 4.15 8.15 1.75 16.1-3.15 7-4.8 8.7-8.75"/><path fill="#515457" d="M43.25 125.4q2-4 1.6-6.85.65.95 3.95 8.1-.3 3.15-.85 4.95-1.55 4.85-5.35 8.45-5.25 4.45-12.4 5.4-6 .85-7.9-.75l-4.8-4.5q-3.4-3.3-2.95-3.2 12.9 4.4 22.8-4.05 3.8-3.3 5.9-7.55"/><path fill="#0d131a" d="M41.1 113.4q.1-1.1.8-.9.75.2.65 1.35-.5 6.25-4.75 11-4.15 4.7-11.15 7-5.7 1.85-10.9 1.5-5.15-.4-7.25-2.85-.7-.8-.2-1.25.5-.4 1.2.4 1.55 1.75 6.3 1.95 5.05.2 10.45-1.6 6.05-1.95 10.2-6.55 4.2-4.65 4.65-10.05m-5.75-13.2q-.3-.65.15-.85t.8.45q2.5 5.05-.6 10.7-2.85 5.2-9.1 8.65-6.15 3.4-12.55 3.3-7.1-.1-12.1-4.7-.4-.35-.25-1.15.15-.75.55-.4 4.7 4.1 11.55 4.3 6.3.2 12.15-2.85 5.7-3.05 8.5-7.85 2.95-5.1.9-9.6M48 126.6q-.05-.8.6-.85.7-.05.75.75.35 5.1-2.5 9.7-3 4.8-8.75 7.7-4.9 2.45-9 2.8-4.35.35-7.3-1.75-1.05-.75-.65-1.15.35-.45 1.5.15 2.55 1.25 6.25 1 4.05-.3 8.1-2.35 5.5-2.75 8.45-7.1 2.9-4.3 2.55-8.9"/><path fill="#0d131a" d="M44.2 118.7q-.05-.85.65-.9.65-.05.7.8.2 4.35-2.2 8.75-2.5 4.6-7 7.65-5.35 3.65-11.55 4.35-6.35.7-10.8-2.15-.95-.55-.7-1.1l1.25-.1q4.75 2.15 10.3 1.5 5.5-.7 10.5-4.1 4.3-2.9 6.65-6.9 2.4-3.95 2.2-7.8"/><path fill="#0d131a" d="M4.25 97.65q-3.85 7.65-1.9 16.2 3.5 15.05 18.5 28.25 13.55 12 24.2 12.95 6.5.6 10.3-1.7 3.4-2 4.45-6.05.8-3.2 4.5-5.5 3.15-2 6.8-2.5l1.85.1q1 .25.95.75-.05.65-1.3.55-3.35-.15-6.65 2-3.55 2.35-4.2 5.6-.8 3.9-4.6 6.4-4.55 2.95-11.5 2.3-12.1-1.1-26.1-13.05Q3.7 130.45.5 113.85q-1.8-9.4 2.6-17.6 4.15-7.8 11-9.8 5.7-1.7 11.6.6 6.45 2.45 8.9 8.25 3.05 7.2 10.5 22.15 7.05 14.1 8.4 16.1 2.5 3.55 7.3 1.45t6.55-7.65q.5-1.7 1.05-1.6.85.1 1 1.15.15 1.1-.65 2.5-2.95 5.3-7.85 7.15-4.95 1.8-8.4-1.25-1.35-1.25-8.6-16.15-6.85-14.05-10.15-21.85-2.3-5.4-7.8-8.1-5.35-2.65-10.35-1.3-7.4 2-11.35 9.75"/><path fill="#0d131a" d="M12.9 89.05q1.65.7 3.25 4.2 1.65 3.5.65 4.65-1 1.2-4.55.8-3.4-.35-4.9-1.6-2.8-2.3-.45-5.9 2.4-3.65 6-2.15"/><path fill="#fff" d="M12.2 90.65q1.25.6 2.65 3.05 1.45 2.55.85 3.2-.8.85-3.4.4-2.35-.45-3.7-1.3-1.85-1.15-.4-3.85t4-1.5"/><path fill="#0d131a" d="M30.65 90.7q-.05 2.6-2.05 5.6-2 3.05-3.75 2.85-1.3-.1-2.75-3.65-1.45-3.5-.95-5.4 1-3.85 5.3-2.95 4.25.9 4.2 3.55"/><path fill="#fff" d="M29.2 90.65q-.05 1.95-1.4 4.4-1.4 2.45-2.45 2.35t-2.05-2.75q-1-2.75-.45-4.6.75-2.55 3.6-1.9 2.8.6 2.75 2.5"/><path fill="#ffe100" d="M189.35 108.9q5.3 1.55 7.25 8 1.95 6.4-.55 13.7-2.6 7.55-8.5 12.9-6.15 5.55-10.85 3.85-4.55-1.7-6.3-9.8-1.6-7.4 0-14.05 1.7-6.9 6.65-11.35 5.7-5.15 12.3-3.25"/><path fill="#dcc200" d="M177.7 146.95q-2.25-3.7-2.25-9.7-.05-5.9 2.1-11.55 5.1-13.75 15.9-13.45 3.95 5.5 3.8 10.65-.1 2.6-2.35 9.45-1.8 5.6-6.9 10.4-5.6 5.3-10.3 4.2"/><path fill="#0d131a" d="M195.3 117.7q-1.75-6.45-7.4-7.85-4.8-1.25-9.2 2.05-4.35 3.25-6.75 9.7-2.2 5.95-1.1 13.65 1.2 8.5 5.9 10.45 4.65 1.95 9.75-2.45 5.2-4.45 8.1-13 2.3-6.7.7-12.55m-6.45-10.3q6.65 2.15 8.6 9.15 1.8 6.4-.95 14.5-3.05 9.2-9.25 13.95-5.8 4.4-11.05 2.65-5.15-1.75-7-10.35-1.9-8.75 1.15-17.65 2.35-6.8 7.55-10.35 5.4-3.7 10.95-1.9M45.75 34.95q1.25.6 8.65 12.7 6.7 10.9 11 18.85 1.05 1.85.6 2t-1.25-1.25L53.3 48.5Q45.95 36.75 45 36.15q-1.55-.8-14.95 3.1l-1.2.1q-.15-.25 1-.75 2.65-1.15 8.3-2.6 6.4-1.65 7.6-1.05M84.9 23.9q6.25 11.45 11.6 22.35 1.8 3.65 1.45 4-.35.3-2.25-3.25L84.9 26.9q-7-12.95-7.9-13.85-.85-.4-6.05.8-5.3 1.2-8.65 2.55l-1.65.25q-.15-.35 1.35-1 4.15-1.8 9.1-3.1 5.8-1.45 6.8-.45 1.1 1.1 7 11.8"/></svg>