<svg xmlns="http://www.w3.org/2000/svg" width="112" height="214" viewBox="-1.6 -0.85 111.75 213.7"><path fill="#0d131a" d="M24.05 145.9q-.55 1.2-5.95.7t-5.45-1.55q-.05-1.25 3.5-3.3 3.15-1.85 4.25-1.95 1-.05 2.45 2.85 1.4 2.7 1.2 3.25"/><path fill="#fff" d="M13.85 144.75q.6-.75 2.75-2.1 2.15-1.3 2.75-1.35.9-.1 2.65 1.8l.2.2q1.2 1.4 1.3 2.1l-4.75.15z"/><path fill="#dbdcdc" d="m21.7 142.8.5.5q1.2 1.4 1.3 2.1l-3.35.2-4.6-.45q3.7-.4 6.15-2.35"/><path fill="#eb6d65" d="M41.55 135.25q-6.85 9.5-12.9 10.65-7 1.35-10-3.5-.5-.85.15-2.65.6-1.8 1.8-3-2.35-2.4-4.25-5.65-3.9-6.5-1.6-10.2 2.3-3.75 7.05-7.6 6-4.95 15.25-9.45 6 3.1 7.7 4.45 5.45 4.3 4.7 9.55-1.2 8.15-7.9 17.4"/><path fill="#cb5d57" d="M34.95 118.4q.75 1-.8 7.25-.8 3.25-.8 7.35l.15 6.1q-.05 5.85-4.85 6.8-7 1.35-10-3.5 4.5 1.2 7.15-.15 3.4-1.75 5-7.9-.3-.4-.65-2.3-.35-2-.55-4.3-.5-7 1.65-8.25 3.15-1.85 3.7-1.1"/><path fill="#0d131a" d="M37 104.5q-11.65 7.05-14.35 9-7.25 5.4-7.5 9.75-.2 3.5 1.6 7.3 1.85 3.95 5.15 6.35 3.45 2.55 2.85 2.8-.6.2-3.6-1.7-3.6-2.3-5.9-7.25-1.95-4.3-1.8-7.6.2-4.6 8.45-10.75 3.95-2.95 14.7-9.25z"/><path fill="#0d131a" d="M21.55 137.5q-3.8 2.7-1.35 5.8 2.5 3.15 8.4 1.6v.75l-.15.75q-5.2 1.2-8.95-1.8-4.1-3.25 1.3-8l.4.45zM33 127.05l-1.45-5.3q-.45-1.35-.2-1.8.3-.55 1.45 1.9 1.25 2.75 1.35 3.8zM85.55 34.9q6.05.05 10.85 4.8 5.75 5.65 5.15 15.1-.65 10.6-9.25 15.65-8 4.65-14.5 1l-.75-.2Q70.6 68.3 68.4 61.4q-2.1-6.8.75-14.4 2.15-5.75 6.65-8.95 4.4-3.15 9.75-3.15"/><path fill="#eb6d65" d="M98.95 46.4q2.4 6.85-.2 13.7-1.25 3.4-3.6 6-2.3 2.55-5.35 3.95-2.85 1.3-5.85 1.35-3.05 0-5.85-1.3-6-2.7-8.4-9.5t.15-13.7q2.6-6.85 8.65-9.8t12.05-.25q5.95 2.75 8.4 9.55"/><path fill="#cb5d57" d="M99.9 55.4q-.3 2.25-1.15 4.7-1.25 3.4-3.6 6-2.3 2.55-5.35 3.95-2.85 1.3-5.85 1.35-3.05 0-5.85-1.3-2.2-1-3.85-2.55.8.05 2.15-1.05 1.4-1.1 2.15-1.15 8.75-.45 13.6-2.85 4.1-2.1 7.75-7.1"/><path fill="#0d131a" d="M49.4 16.3q0-5.5 4.15-9.55 4.15-4 9.9-4 5.35 0 9.35 3.6 4.3 3.9 4.3 9.95 0 5.5-4.05 9.4-4.1 3.9-9.8 3.9-5.75 0-9.8-3.9t-4.05-9.4"/><path fill="#eb6d65" d="M46.1 42q-14.5 2.95-16.5-.25-1.35-2.15 2.1-9.8 3.8-8.5 3.8-9.1 0-4.6 11.35-11.65 10.85-6.75 16.4-6.75 5.1 0 8.75 3.45 3.6 3.5 3.6 8.4 0 5.85-3.65 13.45-4.1 8.55-8.75 8.55z"/><path fill="#eb6d65" d="M59.35 9.6 34.1 30.15q-4-3.2-5.55-8-1.6-4.9-.05-9.8 1.95-6.1 7.6-9.5Q42.25-.85 49 1.3q3.1 1 6 3.35 2.8 2.25 4.35 4.95"/><path fill="#0d131a" d="M51.85 1.85Q56.8 4.3 59.7 9.2q.9 1.5.55 1.8-.4.3-1.45-1.1Q51.5.25 41.55 2.05q-9.4 1.65-12.35 10.9-1.45 4.6 0 9.05t5.4 7.6q.55.45.1 1-.4.6-1.05.15Q24.7 23.7 27.3 13.5q1.55-5.95 5.75-9.55Q36.9.65 42.1.1q5.1-.55 9.75 1.75"/><path fill="#eb6d65" d="M109.25 132.45q-.9 14.1-9 24.35-7.1 9-16.05 11.2.95-4.85.75-9.5-.25-5.5-2.1-9.75 5.35-.2 11.75-5.6 3.8-3.15 9.5-9.8 3.4-3.95 4.35-4.2 1-.2.8 3.3"/><path fill="#cb5d57" d="M85 160.7q5.45-1.6 9.6-4.3 7.55-4.95 13-14.15-2.9 10.25-9.95 17.5-6.3 6.45-13.45 8.25.75-3.65.8-7.3"/><path fill="#eb6d65" d="M22.8 166.4q-4.15-10.7 4.9-24.8-2.95 13.85 4.85 23.9 3.9 5.05 8.4 7.3l-.95 1.45q-1 1.75-1.2 3.1l-.5 6.6q3.4 3.25 1.25 9.65-2.2 6.55-8.5 10.2-5 2.9-13.2-2.25-2.75-1.7-5.15-3.9-2.1-1.9-2.05-2.2.75-4.5 6.6-8.1 3.75-2.25 12.4-5.45.4-4.75-.35-6.5-4.35-3.55-6.5-9"/><path fill="#cb5d57" d="M33.6 166.95q1.75 2.6 7.35 5.85l-.95 1.45q-1 1.75-1.2 3.1l-.5 6.6q2.4 2.35 1.8 7.4-.2 1.75-4.55 1.75-3.95.05-8.75-1.2-5-1.35-6.9-3-2.15-2 1.2-3.55 2.65-1.25 8.55-3.45.4-4.75-.35-6.5-2.15-1.95-4.05-4.55-3.75-5.15-3.7-11.5 1.7 7.75 12.05 7.6"/><path fill="#eb6d65" d="m66.7 100.3 15.45 4.55q16.25 5.6 18.5 11.15 1.8 3.1.35 8.5-1.25 4.9-4.7 10.15-3.4 5.1-7.25 8.2-4.15 3.3-7.2 2.75 3.35 9.4 2.9 16.1-.4 5.65-3.25 8.25-4.15 3.8-12.05 5.3l-13 1.1q-8.3.1-15.9-3.9-8.8-4.65-12.15-13-3.2-7.95.1-17.8l3.35-9.4q2.1-6.25 3-12.05l14.7-10.2q12.8-9.15 17.15-9.7"/><path fill="#cb5d57" d="M68.55 120.25q-1.3-2.2-.25-3.05l3.15-.2q2.2.6 3.65 2.05 1.75 1.7 1.4 3.65-.9 5.45-1.75 7-3.5-5.05-6.2-9.45"/><path fill="#eb6d65" d="M35.6 16.9q3.6 3.5 5.15 8.15l-11 24.05q-6.9 2.9-14.1.75-8.2-2.4-12.35-9.7Q-.85 32.9 1.5 25t9.75-11.75q7.45-3.85 15.6-1.4 5.05 1.45 8.75 5.05"/><path fill="#cb5d57" d="M.35 30.25q3.6 6.2 15.4 7.45 10.75 1.15 19.1-2.15l-3.1 3.5q-2.25 2.5-3.5 3.15-6.4 3.4-11.55 4.25-5.45.95-9-1.15-2.85-1.65-4.9-5.85t-2.45-9.2"/><path fill="#0d131a" d="M41.2 24.8q.85 2.1.3 2.2-.55.05-1.3-1.7-2.95-6.95-8.75-10.5-5.2-3.25-11.45-2.95-6.05.3-10.85 3.75-5 3.7-6.8 9.65-2.2 7.5 1.75 14.45 4 6.95 11.8 9.25 6.9 2.1 13.5-.7.35-.15.7 0l.5.5q.35.85-.5 1.2-7.15 3.05-14.75.8-8.5-2.55-12.7-10.25-4.25-7.7-1.8-15.95Q2.7 18.25 8.1 14.3q5.15-3.75 11.65-4.05Q26.45 9.9 32 13.4q6.15 3.85 9.2 11.4"/><path fill="#eb6d65" d="M94.35 43.25q-6.15 5.9-14.9 5.9-7.45 0-13.35-4.6l-6.5-22.2q2.15-6.05 7.55-9.8 5.5-3.85 12.3-3.8 8.75 0 14.9 5.9 6.15 5.95 6.15 14.3t-6.15 14.3"/><path fill="#cb5d57" d="M100.15 23.6q1.15 4.15.55 8.35-.65 4.35-3.1 8-4.65 7-13.05 8.5-8.4 1.55-15.65-3.3-5.35-3.55-7.85-9.3l3.4 1.45 3.35 1.25q9.85 4.45 19.8-.15t12.55-14.8"/><path fill="#0d131a" d="M94.65 13.8q6.8 6 6.8 13.95 0 9.45-5.8 15.65-6.05 6.5-15.9 6.5-3.9 0-7.55-1.15-3.8-1.2-6.65-3.5-1.2-.95-.65-1.5.6-.6 1.75.35 5.25 4.15 12.8 4.15 8.3 0 14.2-5.65t5.9-13.65-5.9-13.65-14.2-5.65q-6.4 0-11.5 3.35-5.05 3.3-7.55 9.05-1.15 2.65-1.5 2.3t.45-2.5q2.25-6.35 8-10.15Q72.95 8 80.05 8q8.05 0 14.6 5.8M29.2 139.7l-.5 1.1-.3 1.1q-2.95 3.25-4.75 9.1-1.75 5.6-1.35 10.1.5 5.15 2.85 8.5l3.4 3.75q2.1 2.7 1.9 7.35-.1 2-2.75 2.8-5.2 1.55-9.3 4-5.55 3.25-6.1 6.7-.25 1.55 1.8 3.75 2.05 2.15 5.2 3.8 7.95 4.1 12.65.5 3.7-2.8 5.75-6.05 2.05-3.35 1.95-6.6-.05-1.65-.95-4-.9-2.45-1-3.4-.2-2.3.3-4.8.65-3 2.25-5.1l1.55.65q-1.6 1.6-2.25 3.65-.65 1.8-.8 4.9 0 .85 1.05 3.55.95 2.7 1 4.45.05 3.75-2.3 7.55-2.2 3.65-6.2 6.65-4.65 3.5-13.55-.7-8.85-4.25-8-9.25.55-3.2 5.4-6.4 4.45-2.95 10.7-4.75 1.4-.45 1.85-1 .4-.5.4-1.6 0-3.8-1.8-5.55-3.3-3.3-4.75-6.4-1.4-2.9-1.7-6.85-.45-6.2 2-12.4 2.4-6.05 6.35-9.1"/><path fill="#0d131a" d="M8.85 194.3q4.75-5.4 6.9-4.4 1.4.7 1.25 4.6-.15 3.85-1.4 4.85-.85.7-4.8 1.25-4.15.65-5.25 0-1.45-.9 3.3-6.3"/><path fill="#fff" d="m15.7 194.35-.05.15q-1.1.95-3.85 2.55-2.55 1.45-3.7 2.55H6.65q.75-1.8 3.25-4.55 2.95-3.25 5.25-4.1.55.75.55 3.05z"/><path fill="#dbdcdc" d="M11.8 197.05q2.75-1.6 3.85-2.55-.05 3.1-1 3.8l-2.65.75-3.9.55q1.15-1.1 3.7-2.55"/><path fill="#0d131a" d="M22.9 197.7q2.3-.75 3.3 0 1.25.9 1.85 3.1.45 1.85.3 3.4-.15 1.9-5.85 3.65-5.45 1.65-6.65 1.05-.65-.35.2-3 1-2.95 2.9-5.45 1.5-1.95 3.95-2.75"/><path fill="#fff" d="M26.4 204.75q-1 .85-5.2 2.15-4.2 1.25-4.5.9-.4-.4.95-3.15 1.45-3.05 3.3-4.65 1.1-.95 2.45-1.3l1.95.15q1.15.75 1.55 2.95.4 2.15-.5 2.95"/><path fill="#dbdcdc" d="M17.95 207.75q2.15-2.35 5.3-4.7 3.3-2.5 3.5-1.75.65 2.5-.35 3.45-.75.65-3.75 1.65zM12.6 196q2.9-2 3.05-1.5-.05 3.1-1 3.8l-2.65.75-3.9.55q1.9-1.75 4.5-3.6"/><path fill="#fff697" d="M62.2 142.25q4.3 4.85 5.65 7.65-4.85 9.7-5.3 11.55-1.7 7.05 3.3 14.45-20.2 2.35-31.5-7.9-10.9-9.9-6.75-24.75Q33.1 135 39.5 129q8.25-7.75 16.1-9.75-.45 2.7-1.9 7.8-1.25 4.55-1.4 6.05 4.95 3.6 9.9 9.15"/><path fill="#ddd583" d="M28.3 158.1q6.15 8.45 21.25 7.7 15.05-.8 22-9.75-1.85 3.75-7.15 8.45-3.25 4.45 1.45 11.4-18 2.1-28.65-5.6-7.2-5.2-8.9-12.2"/><path fill="#0d131a" d="M55.85 118.55q.8.2-.15 3.25-.9 2.85-1.7 6.85l-.75 4.1Q59 137.1 66 146.05l-.75.95q-4.85-6.3-11.85-12.05l-1.45-1.35q-.35-.6-.2-1.8.8-6.35 3-11.65-5.35.55-14.7 9.25-10 9.35-12.95 18.2 0-.55.7-3.05l.7-3.05q2.05-4.7 8.1-10.85 6.75-6.8 13.6-10.1 4.75-2.3 5.65-2"/><path fill="#0d131a" d="M28.55 138.85q4.25-12 4.55-13.65 1-5.2 1.75-5.8.75-.65.15 4.35-.5 4.05-4.65 14.8-3.3 8.65-2.4 15.05 1.65 12 13.3 18.25 11.05 5.9 24.6 3.5l1.05.85q-15.25 2.85-26.9-3.45-11.75-6.4-13.6-18.9-.95-6.3 2.15-15m76.55-7.65q2.55-3 3.75-2.6 1.3.35.95 4.3-1 11.65-6.25 20.05-6.5 10.3-19.7 16.3l.4-1.5q11.45-5.45 17.35-14.15 5.75-8.4 7.15-21.05.3-2.65-.5-2.5-.8.2-3.5 3.35-5.85 6.9-9.05 9.7-6.15 5.35-12.2 6.35l-.5-1.15q5.05-.8 11.05-5.8 4.65-3.85 11.05-11.3"/><path fill="#eb6d65" d="M76.45 144.65q6.1 2.3 6.65 4.75 2.4 10.3 2.05 14.85-.5 6.95-6.35 14.45l-.35 5.3q-.15 1.55.3 1.8l6.65 2.5q5.9 2.7 8.35 4.7 2.95 2.4 3.55 5.75.45 2.45-2.95 4.9-1.7 1.25-3.5 2-3.75 2-8.15 2.35-5.75.45-9-2.7-4.6-4.4-5.6-10.15-1-5.55 2-8.9.15-.7-.6-2.85l-1.6-4.25q-6.35-5.6-7.35-14.3-1.2-10.6 7-20.8 2.65-1.75 8.9.6"/><path fill="#cb5d57" d="M60.75 164.85q1.1 5.7 10.85 4.9 9.25-.8 13.85-5.5-.35 5.25-2.85 9.1l-3.45 4.25q-.8 1.25-.9 4.5-.1 3.35.9 3.85l8.25 3q3.35 1.35 1.05 2.95-2.05 1.4-7.05 2.25l-8.85.4q-4.4-.55-4.45-2.7-.35-3.35 1.85-4.9.4-1.85-.45-5-.55-1.9-1.05-2.5l-2.85-2.7q-2.3-2.2-3.7-6.15-1.25-3.45-1.15-5.75"/><path fill="#0d131a" d="M66.2 144.7q1.9-2.4 2.35-2 .45.45-.95 2.4-5.65 7.9-6.15 16-.6 9.1 5.55 16.05l2.25 2.45q.85 1.35 1.25 4.7.2 1.7-.5 3.1l-1.05 2.25q-.85 3.3.85 7.95 1.9 5.15 5.9 8.2 4.65 3.55 13.05.15 8.3-3.4 7.5-7.6-.6-3.3-6.15-6.75-4-2.55-9.6-4.6-2.95-1.1-3.05-3.5 0-2.45.4-4.05.55-2 1.9-3.4 5.9-6.2 4.7-17.5-1.55-14.7-15.2-36.15-1.95-3.05-1.8-4.15.2-1.15 2.1 1.95 13.75 22 16.15 36.05 2.25 13.2-5.35 20.8-1.5 1.5-1.5 6.1 0 1 .35 1.5.4.6 1.55 1.05 6.55 2.65 10.8 5.4 5.85 3.7 6.45 6.95.9 4.95-8.3 8.65-9.3 3.8-14.9.25-3.5-2.2-5.8-7.55-2.45-5.7-1.2-9.95l.95-2q.75-1.6.65-2.8-.15-2.55-1.15-4.1l-2-2.1q-6.7-6.6-6.4-16.75.35-9.45 6.35-17"/><path fill="#0d131a" d="M100.55 199.55q4.4 5.95 2.9 6.6l-5.5-.45q-4.2-.95-4.9-1.7-1.65-1.6-.95-5.55.6-3.7 1.85-4.15 2.2-.7 6.6 5.25"/><path fill="#fff" d="m94.1 195.95.25-.4q1.85.1 5.2 4.65 3.3 4.45 2.25 4.9h-.1q-1.2.05-4.2-.85-2.95-.85-3.5-1.4-.85-.85-.55-4l.05-.35q.1-1.3.6-2.55"/><path fill="#0d131a" d="M85.5 202.45q2.2 3 2.9 6.5.6 3.25-.5 3.55-1.35.35-6.4-2-5.15-2.4-5.1-3.75.1-2.1 1.45-4.25 1.4-2.25 2.9-2.45 1.05-.2 2.5.55 1.4.75 2.25 1.85"/><path fill="#fff" d="M87.2 211.05q-.85.1-3.85-1.2-3.35-1.4-4.9-2.85l-.7-.9v-.25q.1-1 .85-2.15.7-1.15 1.7-1.95.8-.6 2.4 0 1.6.7 2.5 2.1 1 1.5 1.6 3.35.6 1.75.65 3l-.05.35z"/><path fill="#dbdcdc" d="M93.45 198.85q.1-1.2 3.8 1.8 3.6 2.9 4.45 4.45-1.2.05-4.2-.85-2.95-.85-3.5-1.4-.85-.85-.55-4m-9.95 7.75q3.75 4.55 2.6 4.25l-3.9-1.5q-2.5-1.2-3.75-2.35l-.7-.9v-.25q.15-1.45 1.5-3.05.55-.7 4.25 3.8"/><path fill="#eb6d65" d="M75.8 144.75q-3.8-2-1.95-12.4l2.65-10.05q-.9-.85 2.8-4.7 3.6-3.75 5.55-4.5 6.45-2.3 9.25-2.3 5.4.1 7.15 6.05 1.9 6.6-4.9 17.35-6.25 9.95-11.2 11.65l-4.95-.15z"/><path fill="#0d131a" d="m69.35 101.6.55-1.6q6.1 1.85 12.45 4.2 9.6 3.6 14.5 6.6 2.85 1.75 4.05 3.9 1.5 2.75 1 7.3-.7 6-5.6 13.55-5.55 8.5-11.8 10.65l-4.65.2q-2.9-.35-4.1-1-3.55-1.9-3.15-8.1.3-3.95 2.85-13.05.8-2.75 1.2-2.65.45.15 0 3.45L74.3 135.5q-1.1 6.9 2.2 8.65.95.5 3.45.9l3.95.1q6-2.05 11.35-10.65 4.55-7.4 5.15-12.85.4-3.6-.45-5.5-.85-1.95-3.8-4.15-3.75-2.8-14.75-6.8-10.3-3.8-12.05-3.6"/><path fill="#0d131a" d="M83.95 144.6q.2-1.85 3-3.1 2.8-1.3 4.35-.3.7.4 1.9 3.2 1.3 2.9 1.1 3.85-.15.95-5.35-.6-5.15-1.6-5-3.05"/><path fill="#fff" d="M85.5 145.15q-1.6-.8 1-2.4 2.6-1.55 4-.6.5.3 1.6 2.65 1.1 2.4.8 2.6l-3.05-.6q-2.8-.85-4.35-1.65"/><path fill="#dbdcdc" d="m85.5 145.15 3.85.55 3.1-.05q.7 1.6.45 1.75l-3.05-.6q-2.8-.85-4.35-1.65"/><path fill="#0d131a" d="m73.75 142.2 3.55.15q2.75 1.2 4.1 3.1.45.6.7 2.65.25 2.2-.4 2.35-1.7.3-5.3-3.25-3.65-3.6-2.65-5"/><path fill="#fff" d="m80.5 145.7.45 1.95q.15 1.25-.1 1.4-.4.25-3.15-2.1-2.85-2.5-3.1-4.05.9-.4 3.3.9 2.2 1.15 2.6 1.9"/><path fill="#dbdcdc" d="m79.15 148.05-2.9-2.5q2.2 1.35 4.65 1.75.25 1.5-.05 1.75-.2.15-1.7-1"/><path fill="#3e4e57" d="M69.8 98.65q-.25 4.95-5.75 9.85-6.25 5.5-14.2 5.5-6.2 0-9.95-4.05-3.4-3.7-2.55-7.75.65-3.1 3.75-4.9 3.55-2.05 9.9-2.05l13.3-.85q5.75-.05 5.5 4.25"/><path fill="#27333a" d="m44.85 96.25 16.4-1.35q8.8-.45 8.55 3.75-.2 3.5-2.9 7.1-2.5 3.3-5.45 4.65-4.95-.35-11.3-7.3z"/><path fill="#0d131a" d="M68.9 98.95q.05-4.3-5.15-4.4l-12.75.7-9.8.45q-3.05.65-3.65 3.25-1 4.6 2.2 9.1 3.55 5.05 9.75 5.05 7.75 0 13.85-5.1 5.5-4.6 5.55-9.05M51 93.5l13.2-.25q5.6.5 5.85 5.3.3 5.55-5.8 10.7-6.3 5.3-14.25 5.3-6.2 0-10.15-4.25-3.85-4.15-4-10.55-.15-6.1 3.7-6.65z"/><path fill="#eb6d65" d="M88.15 69.4q-.1 14.4-10.65 23.75-10.45 9.25-26.25 9.25-18.6 0-28.05-9.8-8.45-8.7-8.45-23.65 0-17.4 9.2-28.8Q33.6 28.25 49.45 28q6.8-.15 14.8 5.9 3.65 2.75 13.1 12 5.8 5.7 8.3 11.2 2.55 5.5 2.5 12.3"/><path fill="#cb5d57" d="M53.85 95.35Q73.9 93.8 84 85.85q-6.8 8.95-14.95 12.9-7.6 3.65-17.8 3.65-21.4 0-30.6-12.8 12.35 7.35 33.2 5.75"/><path fill="#0d131a" d="M88.6 60.9q2.3 17.9-7.55 29.8-10.35 12.4-29.65 12.4-18.2 0-27.85-9.1-10.15-9.6-9.8-28.15l1.8.6Q15 83.15 24.4 92.5q9.45 9.35 27 9.35 17.6 0 27.5-10.95 10.1-11.15 7.8-29 1.3-.5 1.9-1"/><path fill="#fff" d="M38.5 56.9q1.55 8.6 1.8 14.15.3 4.7-.85 7.4-1.3 2.95-4.5 3.9-3.45 1-5.8-1-2.5-2.1-3.3-7.3-.2-1.45-.05-4.9.15-3.1.25-3.3l3.35-1.5q4-2.1 9.1-7.45m21 23.1q-3.3-2.8-3.25-13.5 0-6.75.95-12.1 3.3 3.8 7.3 6.3 4.35 2.7 8.35 3.15 1.35 1.3.75 7.8-.65 6.8-3.05 8.8-1.85 1.6-5.15 1.6Q61.9 82 59.5 80"/><path fill="#0d131a" d="M33.85 81.8q2.35.05 2.2.55-.2.55-2.6.6-4.95.1-7.15-4.75-2.05-4.6-1-12.15l.75-.15.7-.3q-1.15 6.65.7 11.25 1.95 4.85 6.4 4.95m31 .55q-2.75-.2-2.35-.65t2.15-.35q3.85.3 6.25-3.4 3-4.7 1.1-13.95l1.75.35q1.5 9.45-1.1 14.1-2.4 4.35-7.8 3.9m-27.9-20.2q1.25-.15 2.25 2.1 1 2.3 1.2 5.65.3 4.05-.55 6.35-.65 1.9-1.8 2-1.3.1-2.35-2.15-1.1-2.25-1.3-5.6-.3-4.75 1.1-7.25.6-1 1.45-1.1M59.05 61q.8-.15 1.6.8 1.75 2.05 2 7.25.2 3.6-.6 6.2-.8 2.55-2.15 2.75-.8.15-1.55-.75-.85-1-1.4-2.95t-.65-4.35q-.2-3.55.6-6.15t2.15-2.8"/><path fill="#fff" d="M60.15 69.5q0 1.75-.35 2.95-.3 1.2-.8 1.25-.5 0-.85-1.2t-.4-2.9q0-1.75.35-2.95.3-1.25.8-1.25.5-.05.85 1.15zm-21.05.75q.1 1.75-.2 3t-.8 1.25q-.5.05-.9-1.15-.35-1.25-.45-3-.05-1.75.2-3 .3-1.25.8-1.25.5-.05.9 1.2.4 1.2.45 2.95"/><path fill="#fff697" d="M38.25 79.7q4.9-4.7 10.35-4.85 4.5-.1 11 5.6 7 6.2 6.9 12.05-.15 5.6-5.95 9.9-4.7 3.45-8.65 3.75-8.45.7-13.85-3.6-4.95-3.85-5.15-9.6-.3-7.8 5.35-13.25"/><path fill="#ddd583" d="M51.9 106.15q-6.75.55-11.7-2.2-4.5-2.45-6.35-6.75 5.25 4.25 14.3 3.65 10.55-.7 18.35-8.35.25 5.25-5.75 9.7-4.95 3.65-8.85 3.95"/><path fill="#0d131a" d="M34.45 86.7q-1.55 4.35-.2 8.65 1.3 4.25 4.95 7.05 3.85 2.9 9.2 3.25 5.8.4 11.4-3.95 5.7-4.35 5.55-9.2-.15-4.65-4.05-9.25-3.5-4.1-8.3-6.3-2.9-1.3-6.15-.95-3.25.4-6.05 2.5-4.7 3.45-6.35 8.2m-1.85 8.6q-1.3-4.8.6-9.55 2.05-5.05 7.25-8.5 3.3-2.2 6.8-2.6 3.35-.4 6.35.95 5.55 2.55 9.5 7.3 4.35 5.25 4.05 10.2-.35 5.7-6.5 9.95-5.85 4.05-12.05 3.75-6.3-.25-10.65-3.6-4.05-3.1-5.35-7.9"/><path fill="#922f00" d="M46.75 93.45q3.25-.05 5.45.85l-.2 1.3-.8 1.35q-2.2-1.15-4.7-.35-2.05.65-3.65 2.25-1.05-.7-1.9-2.1L39.9 94.7q3.2-1.25 6.85-1.25"/><path fill="#ed8599" d="M42.95 98.7q2.15-1.75 5.2-2.1 2.6-.25 3.05.35-.05.8-1.35 2.3-1.55 1.7-2.9 1.65t-2.85-1.1q-1.4-.9-1.15-1.1"/><path fill="#0d131a" d="m51.55 94.7-5.1-.45q-3.25.1-5.6.9 2.4 5.15 6 5.05 3.15-.05 4.7-5.5m1.15-.65q.4 1.75-1.15 4.25-1.8 2.9-4.6 3.05-2.95.15-5.55-2.95-2.25-2.65-2.05-3.75.1-.5 1.75-.95 2-.6 4.95-.7l4.85.25q1.7.3 1.8.8"/><path fill="#0d131a" d="M51.5 96.65q.2.15-.1.45-.35.3-.5.2-2-1.05-4.25-.4-1.95.55-3.25 2l-.55.15q-.25-.15 0-.55 1.2-1.85 4.05-2.45 2.8-.55 4.6.6"/><path fill="#eb6d65" d="m37.25 36.1 1.5 22.3q-2.95 4.35-7.6 6.9Q26.3 68 21 68q-8.35 0-14.25-5.7-5.9-5.65-5.9-13.7 0-8 5.9-13.7 5.9-5.65 14.25-5.65 4.7 0 9.05 1.85 4.2 1.8 7.2 5"/><path fill="#cb5d57" d="M1.55 53.65q4.85 8.3 16.8 9.85 11.85 1.55 20.25-4.9-2.95 4.25-7.55 6.8Q26.25 68 21 68q-6.95 0-12.35-4.1-5.35-4-7.1-10.25"/><path fill="#0d131a" d="M0 48.6q0-6.55 3.85-11.75 3.7-4.9 9.6-7.2 6-2.3 12.2-1 6.7 1.45 11.7 6.8 1.6 1.75 1.2 2.35-.4.65-2-1.1Q32 31.8 25.8 30.4q-5.75-1.3-11.35.7-5.6 1.95-9.05 6.45-3.65 4.8-3.65 11.05 0 7.65 5.65 13.05t13.6 5.4q4.9 0 9.6-2.45 4.5-2.35 7.8-6.45 1.2-1.55 1.7-1.2.45.4-.6 1.95-3.05 4.55-8.35 7.2Q26 68.7 20.4 68.75q-8.7.05-14.7-6.2Q0 56.6 0 48.6"/><path fill="#eb6d65" d="M96.05 42.95q1.45 7.9-3.35 14.55t-13 8.15q-6.4 1.15-12.5-1.35-6.1-2.45-9.4-7.55-2.6-4.75-2.2-11 .45-6.7 4.35-10.85 6.15-6.6 12.85-7.8 8.15-1.5 15 3.25 6.8 4.7 8.25 12.6"/><path fill="#cb5d57" d="M57.15 56.1q6.5 5.75 18.1 5.55 12.2-.2 19.6-7.35-6.95 12.6-21.3 11.2-5.7-.55-10.4-3.3-4.6-2.7-6-6.1"/><path fill="#0d131a" d="M82.6 26.65q5.45 1.7 9.35 6 4 4.45 5.05 10.25 1.45 8.15-3.4 15.05-4.7 6.7-12.35 8.1-6.8 1.25-13.7-1.1-7.15-2.5-10.55-7.7-1.15-1.75-.75-2.2.4-.5 1.9 1.4 3.75 4.7 9.7 6.95 6 2.25 12.1 1.15 7.8-1.4 12.2-7.65 4.4-6.2 3-13.75-1.05-5.9-4.95-9.95-3.75-3.9-9-5.15-5.35-1.3-10.65.5-5.65 1.9-9.9 6.95-2.2 2.6-2.4 1.75-.15-.9 1.6-2.95 5-5.8 11.3-7.7 5.7-1.7 11.45.05"/></svg>