<svg xmlns="http://www.w3.org/2000/svg" width="417" height="399" viewBox="-0.2 0 417.3 398.8"><path fill="#ffe100" d="M243.15 239.95q2.35 2.7 3.2 4.75.8 1.9.55 6.35-.25 4.95-1.7 11.05-3.4 14.3-4.5 23.15-1.8 14.4.35 24.8.75 3.75-8.05 8.05-3.2 1.55-6 2.35l-2.6.05q1.3-6.15-2.3-11.95-3.05-4.95-6.15-5.7-3.8-6.4-8.8-6.5-1.6-1.85-4.6-2l-4.2.25q9.25-3.55 12.8-13.7 3.1-8.85 1.2-20.6-1.05-6.55-3.6-10.05-1.05-1.45-6.3-6.15l5.2-13.75q1.5-3.95 1.75-8.2 2-1.95 11.55-4.65 7.8-2.25 9.55-2.4l1.45 2.35q1.2 10.3 6.85 17.5z"/><path fill="#b6aed1" d="M284.6 39.15q8.35 0 14.9 4.55 6.15 4.3 9.25 11.65 3.1 7.3 2.2 15.55-.9 8.8-6.2 16.5 5.65 4.35 7.8 11.25 2.3 7.35-.1 15.5-7.95 26.9-45.45 23.35-5.75-.55-15.35-4.25-11.25-4.6-17.15-6.7-22.15-7.9-36.45-1.4 2.5-9.7.8-17.75 4-4.1 4.65-5.3l-5.6 1.35q-3.75-13.9-11.2-25.65l5.9-13.65 3.9-9.95q13.05-6.35 23.35-6.85 6.85-.3 16.55 2.4 4.35 1.35 12.8 2.5l10.5.85q2.25-8.2 11.8-11.7 5.95-2.25 13.1-2.25"/><path fill="#b6aed1" d="M285.3 28.4q.85 6.4-1.45 10.8-10.05.1-16.3 3.8-6.05 3.6-7.85 10.1-4.55.35-8.6-.1l-7.65-1.3-7.05-1.95-1.15-.65q-5.9-3.5-8.1-10.95-2.1-6.95-.3-14.9 2.05-9.3 8.35-15.3 6.95-6.7 16.85-6.7 18.8 0 28.45 14.65 3.9 5.95 4.8 12.5"/><path fill="#e6ebee" d="M198.85 107.4q1.3 6.3-.25 14.05-1.55 7.95-5.5 14.35-9.6 15.6-25.05 11.1-1.8-6.95-1.95-9.35l16.1-14.3z"/><path fill="#b6aed1" d="M234.65 48.6q-9.65-3.3-24.05.5-13.05 4.5-15.1 4.3-8.9-4.2-8.85-15.4.05-10.9 7.95-17.45 7.7-6.3 17.15-5.15 8.8 1.1 15.1 7.85-1.8 8.05 0 14.65 2 7.2 7.8 10.7"/><path fill="#e6ebee" d="M92.85 60.55q2.6 7.7 5.2 13.6 2.75 6.35 4.45 8.1 1.65.1 5.35 1.35-.95 2.75-1.3 7.45-.3 4-.15 7.55-18.15-10.55-22.15-12.25 2.5 5.5 16.1 22.15 12.9 15.9 18.3 20.7-2 2-5.5 6.4-3.4 4.2-6.2 8.15-5.8.7-13.45-1.2-16.7-4.1-25.05-15.7-10.85-15.2-2.25-38.75 2.9-7.85 10.7-15.35 6-5.8 15.95-12.2M164.8 32.5q1.1 5.2-2.75 9.55.85 2.45 4.7 8.85 3.55 5.95 3.8 7.45-7-5.95-13.05-8.4-5.6-2.25-13.5-2.65.65-5.2-.2-10.4-.8-5.05-2.95-9.2 3.65-5.25 9.2-5.75 4.95-.5 9.35 2.75 4.4 3.15 5.4 7.8"/><path fill="#e6ebee" d="M138.6 24.3q7.1 9.05 5.4 23-7.75-.35-15.05 1.85t-12.6 6.55q-2.4-2.05-7.1-5.2 6.8-4.25 9.45-6.9-3.65-.35-6-3.55-2.3-3.05-2.3-7.25-.05-4.45 2.45-8.1 2.85-4.1 8.25-6 10.3-3.6 17.5 5.6"/><path fill="#b6aed1" d="M173.8 39.5q5.1-5 13.25-3-.1 5.1 1.8 9.55 2 4.55 5.65 7.3-4.95.8-11.7 2.8-6.1 1.8-9.9 3.45l-3.2-4.1q-1.35-10.65 4.1-16"/><path fill="#fff" d="M173.45 93.9q-.05 8.95-2.55 13.4-3.15 5.7-11.4 7.2.95-3.65 2.35-7.25 1.9-3.85 5.2-7.55 2.95-3.3 6.4-5.8"/><path fill="#ffe100" d="M173.45 93.9q3.2-2.35 5.7-3.3.75 4 .1 10.55-.65 6.45-2 9.35-12.8 5.1-18.85 9.3.65-3.95 1.4-7.1 7 .95 10.55-4.95 3.05-5.05 3.1-13.85"/><path fill="#fff" d="M118.15 96.6q-1.15-4.75-.25-8.7 6.75 3.5 11.2 7.65 5.45 5.05 6.85 10.5.7 2.95 1 6-4.7-1-8.65-3-3.8-1.95-6.15-4.5-2.8-3.05-4-7.95"/><path fill="#ffe100" d="M106.4 98.6q-.15-3.55.15-7.55.35-4.7 1.3-7.45 5 1.65 10.05 4.3-.9 3.95.25 8.7 1.2 4.9 4 7.95 2.5 2.7 5.7 3.9 3.7 1.35 8.95.95.4 3.85.4 7.2z"/><path fill="#efeddf" d="M148.4 179.35q-1.25 0 .1-16.75 1.1-12.95 2.5-23.95 6.85 7.5 11.5 12.2-1.6 5.25-6.95 16.5-5.7 12-7.15 12"/><path fill="#686d70" d="M171.85 60.1q5.1-2.55 12.7-4.65 7.1-1.95 12.4-2.4-14.85 34.35-16.65 37.2-10.75 3.7-16.85 14.2-5.2 9-5.65 19.8-1.85 1.8-10.65 6.2-1.95-1.1-5.05-3.75-3.25-2.75-5.05-4.95l-.3-7.85q-.45-6.5-.8-7.85-2.15-8.4-15.6-16.55-11.6-7-17.85-7.25-3.55-3.7-9.45-21-5.7-16.85-6.1-23.8 3.85 1.1 15.7 8.75 10.5 6.75 13.7 9.5 11.2-9.2 27.45-8.5 17.25.75 28.05 12.9"/><path fill="#e6ebee" d="M179.2 91.3q1.6-.55 3.85-5.2l3.65-8.3q7.45 11.75 11.2 25.65-9.35 2.5-20.65 7.05 1.4-2.95 2.05-9 .65-6.25-.1-10.2"/><path fill="#efeddf" d="M4 341q2.9-5.4 7.5-9.6 10.85-9.95 20.95-5.85-8.9-.05-17.85 8.8-8.75 8.6-10.2 18.05v.1l-2.3-.3q-1.2-.25-1.15-.75Q1.1 346.55 4 341"/><path fill="#59c2e1" d="M187.75 118.65q-9.9 9.05-21.65 18.9.1 1.15 2.5 10.55 2.45 9.55 3.15 11.2-1.3-.9-13.1-13.05l-12.2-12.6q-1.15.1-21.75 7.6l-21.3 7.8q.6-1.15 6.85-9.35 6.55-8.65 8.4-10.5-5.4-4.8-18.3-20.7-13.6-16.65-16.1-22.15 4 1.75 52.95 30.25l-.15 5.15q1.8 2.2 5.05 4.95 3.1 2.65 5.05 3.75 8.8-4.4 10.65-6.2.15-2.2.6-4.45 5.7-3.9 22.55-10.4 16-6.1 22.55-7.3-1.95 3.9-15.75 16.55"/><path fill="#efeddf" d="M295.15 344.55q-.3-4.9 1.8-9.5 2.2-4.8 6.05-7.15 4.3-2.6 9.45-1.2-4.5 3.05-7.35 9.8-2.9 6.9-3.45 16.35-1.9 1.35-3.25-.05-2.9-3.1-3.25-8.25"/><path fill="#efeddf" d="M332.55 331.6q-3.15 1.25-7.7 8.55-4.55 7.25-5.2 11.95-4 2.2-10.55 3.6-7.65 1.65-7.55-1.2.25-6.2 2.1-13 3-10.9 8.8-14.8 10.15-6.75 20.1 4.9"/><path fill="#ffe100" d="M327.7 250.65q2.85 1.7 3.3 2.55.7 1.3 2.15 8.4 2.05 9.95 3.75 16.4 6.85 26.35 19.95 49.95 2.3 4.1-1.75 8.65-2.6 2.95-7.4 5.6-.2-3.35-4.7-7.15-5.05-4.2-10.3-3.5-5.4-5.5-10.8-6.65-5.05-1.1-9.45 1.8-5.3-1.4-9.65 1.7l4.5-7.9q2.95-5.1 3.15-7.1.95-8-5.35-19.85-2-3.85-9.7-15.35-1.8-2.7-18.9-14.35-17.35-11.8-22.2-18.6-2.2-3.15-6.85-16-3.9-10.65-4.45-13 0 .95-1.6 8.35l-3.45-9.6-3.15-9.25-1.1 14.45-7.6-12.55-8.6 1.8-9.5.55.95 5.65q.55 4.55.45 6.5-.15 2.55-10.15 31.5-3.45 11.05-4.35 22.6-.8 10.65.8 17.95l-.7 1.9-1.8 3.25-5 6.9q-3.4 5.1-5.9 10.7-10.15 22.3-8.2 56.7.15 2.6-3.35 7.25-3.9 5.25-8.75 7.35 2.25-2.75-1.55-10.4-3.95-7.75-8.65-8.7-7.65-9.95-16.95-9.2-6.85-1.4-12.85 1.25-.1-3.25 3.25-6.25 6.15-5.6 7.4-7.15 7.2-9.05 12.55-32.6 2.7-12 2.45-21.5l-1.4-15.35q-.1-1.15 1.5-6.6 2.05-7.2 2.95-11.75 3.6-18.2-1.35-32.9-28.15-10.9-39.4-30.9-12.3-21.9-.8-49.35l10.85-4.2q-.2 3.7.6 18.7 1 18 2.65 18 .9 0 3.95-8.9 3.3-9.55 5.45-19.25 4.75 1.65 9.55 2.1l7.2-.25q-2.6 26.3-1 26.3 1.45 0 7.15-12 5.35-11.25 6.95-16.5 6.6 6.6 9.25 8.45-1.35-3.25-3.7-12.4 11.65 3.35 21-6.2 6.85-7.05 9-15.55 11-4.25 22.8-2.3 7.65 1.25 20.75 6.65 14.4 5.85 20.9 7.4 12.1 2.85 23.1.1 7.45 4.3 11.7 19.85 1.75 6.45 3.05 16.45l2.6 27.3q2.2 21.35 3.8 25.4 5.35 13.2 14.75 20.5 2.2 1.7 6.2 4.15"/><path fill="#e6ebee" d="m109.15 146.85 10.85-4.2q-.2 3.7.6 18.7 1 18 2.65 18 .9 0 3.95-8.9 3.3-9.55 5.45-19.25 4 1.35 7.85 1.9.4 8.55 2.15 17.2 1.95 9.85 4.85 15.4l.3 5.6q.15 6.35-.6 10.05-.8 4.05-.8 9.4.05 4.55.55 7.4l.6 3.4q.35 2.7.3 4.95-27.4-11.15-38.25-30.9-11.8-21.7-.45-48.75M234.3 214.6l.5-8.85 2.8 8.55z"/><path fill="#59c2e1" d="M415.4 81q.65.5-5.35 14.5l-8.7 20.45q2.25.65 13.25 4.95l-17.1 4.4-4.4 20.05q-2.55-11.55-3-16.6-1.8 2.05-7.75 7.5l-7.6 6.65q1.15-3.1 4.35-10.1 3.85-8.4 5.35-10.45l-13.55-7.5 6.9.25 7.85.55q-5.6-8.2-25.35-25.1t-28.2-20.7q7.15 19.9 3.7 69-1.45 21-4.6 38.9-3.3 18.6-7.25 27.45l-22.05-34.45q1.95-4 2.65-8.95 1.6 2.55 7.9 11.05L319.9 183q6.3-34.9 6.35-67.85.05-29.25-4.9-60.85 18.9 8.45 39.4 25.8 18.2 15.4 27.3 28.5l4.1-15.8 1.4 5.85 1.95 9.55 10.1-14.65q9.15-13.05 9.8-12.55"/><path fill="#e6ebee" d="M285.6 137q8.2-1.4 14.15-5.3 5.95 9.65 5.55 23.15-.35 12.05-4.95 18.45-1.55-12.9-2.5-16.35-3.3-11.75-12.25-19.95"/><path fill="#efeddf" d="M130.2 160.15q-4.6 19.2-6.95 19.2-1 0-2.55-14.5-1.55-14.7-1.2-22 .05-.2 14.8-5.5.3 4.45-4.1 22.8"/><path fill="#e6ebee" d="M134.3 137.35q9.65-3.5 12.15-3.7l4.55 5-1.6 14.4q-2.65.7-7.55.15-5.2-.55-10-2.2 1.7-7.4 2.45-13.65"/><path fill="#efeddf" d="M199.7 295.15q4.6-1.65 7.45 1.2-5.8-.15-12.25 7.7-5.65 6.85-9.25 16.2-1.1.25-2.05-.75-.95-.95-1.3-2.55 2.5-5.6 5.9-10.7l5-6.9q3.2-2.95 6.5-4.2"/><path fill="#e6ebee" d="M207.65 230.35q1.5-3.95 1.75-8.2 4.65-4.55 19.45-6.8-1.15 3.65.95 11.85 2.2 8.35 2.1 8.8l-2.05 9.7q-2.45 8.3-6.9 11.15-1.4.9-8.9-4-7.8-5.1-11.45-9.8l2.45-6.25z"/><path fill="#efeddf" d="M118.8 370.8q-7.05 10.15-8 24.25v.05q-1.85.2-3.2-.05-1.75-.3-1.85-1.2-1.85-15.6 8.05-26.2 4.4-4.65 9.95-6.75 5.65-2.1 11.1-.95-9.05.75-16.05 10.85"/><path fill="#e6ebee" d="M209.4 222.15q.2-3.55-.45-7.9L208 210l9.5-.55 8.6-1.8 4.4 7.45-1.65.25q-14.8 2.25-19.45 6.8m-71.4-.25q-8.15 6.4-15.55 18.15-6.5 10.3-10.45 21.2l-5.3 2.4q-3 1.05-3.5.05-.65-1.35-3.4-4.35-2.65-2.9-2.8-3.4l-1.1-15.55q-.85-13.2-3.8-16.45-1.9-2.05 4.1-22.9 5.6-19.55 7.9-23.4 1.6 13.65 10.3 25 8.65 11.3 23.6 19.25"/><path fill="#ffe100" d="M93.5 142.55q7.65 1.9 13.45 1.2-2.65 3.65-3.55 5.3l5.75-2.2q-6.75 16.05-5.05 30.8-2.3 3.85-7.9 23.4-6 20.85-4.1 22.9 2.95 3.25 3.8 16.45l1.1 15.55q.15.5 2.8 3.4 2.75 3 3.4 4.35.5 1 3.5-.05l5.3-2.4q-3.3 9.05-3.3 13.9 0 2.6-3.15 6l-7.65 7.75q-12.75 13.25-18.95 31.6-2.65 7.85-2.75 18.95-.05 10.2-.6 11.15-1.35 2.4-9.75 5.05Q57.5 358.3 52.4 358q2.85-1.8.6-9.7-2.15-7.7-5.55-9.55-2.45-6.75-6.5-10.1-3.7-3.05-8.5-3.1-2.95-1.2-6.2-1.2.55-1 4.1-3.4 4.8-3.2 7.65-5.7 11.45-10 17.6-27.15 2.8-7.8 4.2-14.55 1.45-6.7 1.7-14.65l.15-4.15q.15-1.85.65-3.15.55-1.35 3.85-6.9 3.5-5.9 5.55-10.4 7.15-15.5 6.35-31.6-.75-16.7 2.05-29.55 3.55-16.2 13.4-30.6"/><path fill="#efeddf" d="M110.8 395.05q.6-8.8 4.5-17.25 3.9-8.5 9.7-13.4 6.25-5.3 12.85-4.55 7.4.8 13.95 9.3-8.15.45-16.65 12.25-3.15 4.35-4.9 8.4-1.7 3.9-.85 4.55l-2.85.95-6.4 1.55q-9.4 1.65-9.35-1.75zm102.1-95.75q3.4 2.9 2.05 3.55-6 2.75-10.55 8.15-4.15 4.85-6.35 10.85l-7.9.85q-5.45.1-4.55-2.3 2-5.3 6.9-12.6 7.9-11.65 14.65-11.45 2.3.05 5.75 2.95M10.8 339.25q5.45-6.9 12.3-10.55 7.55-4 13.65-2.1 7.1 2.25 10.7 12.15-7.05-1.8-18.7 4.75-11.7 6.55-10.75 11.85l-8.65-.4q-5.05-.8-4.95-2.45v-.1q1-6.3 6.4-13.15"/><path fill="#30353a" d="M235.5 141.4q-5.45-9.15-6.4-12.05l-5.45 13.8q-5.2 13.95-5.9 20.35 4.75 12 5.05 22.8-6.1-12.6-15.3-25.2-10.05-13.8-18.05-19.5 3.7-3.8 6.3-9.6 8.1 6.4 14.75 17l8.3-12.45 8-12.25 4.85 1.55 6.9 7.35 7 6.9q1.1-5.55 2.15-8 6.85 2.7 11.7 3.95-2.55 5.8-7.8 21.35-5.8 17-7.5 24.8-2.25-9.9-.5-28.2-2.9-3.8-8.1-12.6M73.75 249.7q-1.7 5.35-6.1 12.95-4.45 7.55-7.85 10.9 1.45-6.7 1.7-14.65l6.8-5.35q4.7-3.55 5.45-3.85m99.55-53.05q7.25-16.8 9.8-20.45l-3.6 24.3q-2.95 20-2.85 23.2 2.7 5.25 7.95 12.55 4.85 6.75 6.05 7.4 1.7-1.6 6.75-10.1l5.55-9.55q-.5-4.4-4.65-27.5l-4.05-23.15q4 8 8.15 19.25 3.75 10.15 5.6 17.4l.95 4.25q.65 4.35.45 7.9-.25 4.25-1.75 8.2l-4.9 13.2q-2.15 5.8-3.5 10.1l-5.5 8.9-3.55 5.45q-4.05-4.65-15.25-22.25-10.65-16.8-11.8-19.8 1.65-9.6 10.15-29.3m134.95 47.45q.2-1.65 1.95-10.8 2.25 4.2 4.9 7.5-.1 7.75-.55 14.9-5.55-2.75-19.2-11.65l-16.7-11.35q8.3.3 29.6 11.4"/><path fill="#30353a" d="M261.05 186.95q2.95-20.8 5.75-29.4 0 5.25 1.6 20.05 1.35 12.7 2.45 20.25 1.4 2 10.65 9.25 10.6 8.35 18.05 12.25 1.1-3.8 2.95-16.15.85 11.7 2.9 18.7l-1.35 12.3q-40.2-21.35-45.5-25.25 0-4.35 2.5-22m-66.6 90.45q-.4 6.65.55 13.05l-4.55 5.25-4.35 4.75q-13.05-32.45-13.2-37.7 2 2 7.25 10.55 4.8 7.85 7.45 13.05 1.45-2.4 6.85-8.95"/><path fill="#efeddf" d="M34.6 359.1q-16-.5-16.6-3.75-.35-1.95 2.45-5.15 2.7-3.1 7.15-6 10.85-7.1 19.05-5.75 4.05.65 6.4 9.2 2.3 8.45-.65 10.35-2.4 1.6-17.8 1.1m117.2 10.05q4.75.65 8.65 8.55 3.85 7.75 1.55 10.55-1.95 2.5-16.2 5.15-14.25 2.7-16.4.95-.85-.65 1.2-4.85 2.05-4.25 5.5-8.9 9.15-12.35 15.7-11.45m63.15-66.3q1.55-.6 3.85 1.55 2.15 2.05 3.85 5.4 4.25 8.25.6 11.4-3.2 2.75-14.7 3-11.45.25-10.6-2.1 5.65-15.15 17-19.25m117.75 28.7q5.25-.7 10.3 3.5 4.5 3.8 4.7 7.15.2 2.75-9.05 8.1-10.2 5.9-18 4.8-3.65-.5 2.5-11.8 6.2-11.25 9.55-11.75"/><path fill="#e50012" d="M122.15 94.75q1.1-1.9 2.9-2.65 5.5 3.55 8.2 7.85v.35q.1 2.45-1.35 4.2-1.6 1.85-4.1 2-2.45.15-4.4-1.7-2.05-1.95-2.25-5.05-.2-2.9 1-5"/><path fill="#686d70" d="M144.1 84.1q0-3.4 2.15-5.8t5.2-2.4 5.05 2.3q2 2.35 1.85 5.6-.2 3.4-2 5.8-2 2.65-4.9 2.65-3.05 0-5.2-2.4t-2.15-5.75m-3.95-26.25q0-3.6 2.8-6.15 2.75-2.6 6.7-2.6t6.7 2.6q2.8 2.55 2.8 6.15 0 3.75-2.5 6.65-2.6 3.05-6.35 3.05-3.95 0-7.05-3.05-3.1-3-3.1-6.65"/><path fill="#e50012" d="M162.3 107.05q.55-1.6 2.95-4.8 2.4-3.1 4.25-4.8 1 4.65-.55 8.8-1.5 3.95-3.7 3.9-.85-.05-1.75-.9-1-.95-1.2-2.2"/><path fill="#30353a" d="M301.3 190.7q0 .55-7.6-15.55-8.05-16.9-9.15-17.8 2.8 1.05 8.15 4.3 5.55 3.3 6.65 4.7 1.55 6.3 1.9 15.4z"/><path fill="#9b94b3" d="M289.3 129.65q18-6.4 23.95-28.1 1.05 6.3-.8 12.6-7.95 26.9-45.45 23.35-4.1-.4-9.55-2.2-3.75-1.2-10.45-3.9 28.15 3.3 42.3-1.75M285.45 29.6q.5 5.65-1.6 9.6-4.55.05-10.05 1.6-4.8 1.4-8.15 3.25 4.15-6.9 5.1-9.2 4.25.5 7.75-4.15 3.7-5 3.4-12.4 3 5.6 3.55 11.3"/><path fill="#c1c6c9" d="M166.65 140.85q9.8-1.1 18.45-6.7 8.65-5.65 13.8-14.3-2.15 13.15-9.85 21.2-8.9 9.35-21 5.85zm-91.9-7.35q-9.55-7.8-11.7-19.55 8.7 11.5 22.6 17.6 14.15 6.2 27.5 4l-6.2 8.2q-5.8.7-13.45-1.2-10.95-2.7-18.75-9.05"/><path fill="#dbdcdc" d="m117.5 91.05.4-3.15q3.95 2.05 7.15 4.35-1.35 1.25-2.55 1.6z"/><path fill="#dcc200" d="m117.9 87.9-.4 3.15q-4.65-2.45-10.35-4.55l.7-2.9q5 1.65 10.05 4.3"/><path fill="#c9c8bc" d="M1.8 346.45q2.35-.45 5.15-1.7-1.95 4-2.55 7.65v.1l-2.3-.3q-1.2-.25-1.15-.75.1-2.35.85-5m298.25 0q1.3-1.1 3.15-4-1.25 4.9-1.55 10.4-1.9 1.35-3.25-.05-1.85-1.9-2.75-5.05 2.4.4 4.4-1.3"/><path fill="#c9c8bc" d="m301.55 354.5.4-4.35q6.2-.4 11.95-2.7 5.95-2.45 10.5-6.6-4.15 6.85-4.75 11.25-4 2.2-10.55 3.6-7.65 1.65-7.55-1.2"/><path fill="#c1c6c9" d="m234.3 214.6.5-8.85 2.8 8.55z"/><path fill="#4da9c3" d="m301.9 170.75.5-1.2 12.15 15q6.95 8.8 11.2 15.4l-1.8 5.25zm28.6-104.7q12.2 4.9 29.45 20.2 16.65 14.8 24.05 26.65-9.45-11.05-28.35-25.95-16.7-13.25-23.7-16.7-.65-2.8-1.45-4.2"/><path fill="#c1c6c9" d="M297.55 159.5q2.65.25 4.75-3.55 2.1-3.7 2.55-9.3 1.1 7.75-.3 15.45-1.35 7.2-4.2 11.2-1.3-10.7-2.8-13.8m-164.4-14.7q6.4 4.35 16.85 2.3l-.6 5.95q-2.65.7-7.55.15-5.2-.55-10-2.2z"/><path fill="#c9c8bc" d="m182.3 316.95 1.1-2.35q2.95-.65 5.8-2.05-2.05 3.7-3.55 7.7-1.1.25-2.05-.75-.95-.95-1.3-2.55"/><path fill="#dcc200" d="M240 301.25q.15 4.55 1.05 8.8.75 3.75-8.05 8.05-3.2 1.55-6 2.35l-2.6.05q.9-4.4-.8-8.9 12.8-2.2 16.4-10.35m-31.85-52.7h-.85l-4.85-4.45.3-.8q1.95 2.4 5.4 5.25m35-8.6q2.35 2.7 3.2 4.75.8 1.9.55 6.35-.25 4.95-1.7 11.05l-1.95 8.6q-6.95-11.15-17.05-17.05 2.65-3.7 4.3-10.25l1.4-7.4q.1-.45-2.05-8.75-2.15-8.1-1.05-11.8l1.7-.35 1.45 2.35q1.2 10.3 6.85 17.5z"/><path fill="#c1c6c9" d="M228.8 215.45q-1.1 3.7 1.05 11.8 2.15 8.3 2.05 8.75l-1.4 7.4q-1.65 6.55-4.3 10.25-8.5-5.05-18.05-5.1-3.45-2.85-5.4-5.25l4.9-12.95q1.5-3.95 1.75-8.2 1.7-1.65 8.95-3.9 4.85-1.5 10.45-2.8"/><path fill="#c9c8bc" d="m105.7 385.65 3.7-.15 3.75-2.45q-1.15 3.2-1.65 5.7-.45 2.3-.7 6.3v.05q-1.85.2-3.2-.05-1.75-.3-1.85-1.2-.5-4.2-.05-8.2"/><path fill="#c1c6c9" d="M209.4 222.15q.2-3.55-.45-7.9L208 210l9.5-.55 8.6-1.8 4.4 7.45-1.65.25q-14.8 2.25-19.45 6.8m-110-31.45q3.5-10.95 4.7-13.05 1.6 13.65 10.3 25 8.65 11.3 23.6 19.25-10.65 8.35-19.75 25.35-8.45-20.4-24.8-35.75 2.15-9 5.95-20.8"/><path fill="#dcc200" d="M65.55 342.8q6.3-3.05 10.8-7.6l-.1 9.8q0 4.45-.65 5.6-1.35 2.4-9.75 5.05Q57.5 358.3 52.4 358q1.55-.95 1.5-4.25 0-2.95-1.25-6.7 6.95-1.3 12.9-4.25M93.5 142.55q7.65 1.9 13.45 1.2-2.65 3.65-3.55 5.3l5.75-2.2q-6.75 16.05-5.05 30.8-1.2 2.1-4.7 13.05-3.8 11.8-5.95 20.8-7.1-6.75-15.5-12.1-.45-15.5 2.55-27.95 3.65-15.25 13-28.9"/><path fill="#c9c8bc" d="M110.8 395.1v-.05q.15-2.15.45-3.15l1-3.2q3.85 2.15 10.85-.4 5.3-1.95 11.6-6.25-2.95 4.2-4.55 8-1.55 3.7-.75 4.3l-2.85.95-6.4 1.55q-9.4 1.65-9.35-1.75m75.5-76.3q7.85.55 14.2-2.25-1.35 2.4-2.45 5.3l-7.9.85q-5.45.1-4.55-2.3zM5.8 347.45q1.7 2 7.1 1.95 4.2-.05 9.15-1.25-4.6 4.2-4.05 7.2l-8.65-.4q-5.05-.8-4.95-2.45v-.1l.45-2.45q.3-1.15.95-2.5"/><path fill="#c9c8bc" d="M34.6 359.1q-16-.5-16.6-3.75-.2-1.4 1.2-3.6 10.1 1.8 18.15-.05 9.4-2.15 13.8-8.9 2.15 4.1 2.65 8.95.5 5-1.4 6.25-2.4 1.6-17.8 1.1m97 28.45q8.55.75 15.75-1.25 7.9-2.2 13.6-7.55 1.35 3.05 1.7 5.6.35 2.7-.65 3.9-1.95 2.5-16.2 5.15-14.25 2.7-16.4.95-.5-.4.1-2.3.6-1.85 2.1-4.5m80.9-69.9q6.65-2.1 10.4-7.35 1.65 3.4 1.85 6.2.25 3.2-1.5 4.7-3.2 2.75-14.7 3-11.45.25-10.6-2.1.45-1.4 1.4-3.4 7.4.75 13.15-1.05m131.3 18.1q1.7 1.65 2.8 3.4 1.05 1.75 1.1 3.05.2 2.75-9.05 8.1-10.2 5.9-18 4.8-2-.3-.65-4.7 7.95-.55 14.2-4.2 6.65-3.9 9.6-10.45"/><path fill="#c6000b" d="M122.7 93.95q1-1.3 2.35-1.85 2.55 1.65 8.2 8.2.1.9-.15 1.65-4.55-4.35-10.4-8"/><path fill="#515457" d="M146.25 89.8q3.4.6 6.75-1.4 3.75-2.25 5.35-6.75.65 4.15-1.25 7.3-2 3.3-5.65 3.3-3.1 0-5.2-2.45m-4.75-26.75q4.9 2.95 10.7.5 5.6-2.4 6.95-7.25-.1 4.75-2.6 7.95-2.5 3.3-6.25 3.3-2 0-4.3-1.05-2.8-1.25-4.5-3.45m23.75 34.6q6.4-6.7 16.25-9.75l-1.2 2.35q-10.75 3.7-16.85 14.2-5.2 9-5.65 19.8-1.85 1.8-10.65 6.2-1.95-1.1-5.05-3.75-3.25-2.75-5.05-4.95v-1.6l6.6 5.1q2.6 1.95 3.4 1.95 1.15 0 3.6-1.3 2.8-1.55 4.5-3.6 1.15-15.35 10.1-24.65"/><path fill="#4da9c3" d="m171 156.9.75 2.4q-1.3-.85-13.65-13.15l-13.05-13.1q2.8-.95 3.95-.65.65.15 9.9 10.9 10.15 11.75 12.1 13.6"/><path fill="#dcc200" d="m244.75 221.65-1.75-5.4q0 .95-1.6 8.35l-3.45-9.6-3.15-9.25-1.1 14.45-7.6-12.55-8.1 1.65q-6.15 1.25-9.25.8-.9-3.9-2-5.85Q217 202.6 227 199.9q7-1.85 12.1-3.75.05 1 2.4 10.5 2.55 10.35 3.25 15"/><path fill="#c1c6c9" d="M146.8 202.75q0 7.55.3 12 .45 6.8 1.7 12.15-19.6-7.7-31.2-20.25-12.3-13.3-13.75-30.1 16.4 19.15 42.95 26.2"/><path fill="#dcc200" d="m174.35 362 .4 4.1q.35 3.35-.05 8.45l-3.65 6.2q-3.8 5.4-8.25 6.7.9-1.75-.4-6.55-1.4-5.25-4-7.35 3.75-.4 6.45-1.95 4.6-2.7 9.5-9.6m179.5-39.4 2.4 4.3q2.2 3.75 2.2 5.2 0 2.05-3.05 5.15-3.3 3.4-7.4 4.7 0-1.55-1.05-3.45-1-1.8-2.65-3.3 4-1.65 6.1-3.8 3.2-3.35 3.45-8.8"/><path fill="#dbdcdc" d="m173.45 93.9-.1 3.2-3.55 2.3-.3-1.95q-2.85 2.5-5.8 7.05l-.8.8q3.85-6.45 10.55-11.4"/><path fill="#dcc200" d="M179.5 94.1q-2.7.9-6.15 3l.1-3.2q3.2-2.35 5.7-3.3z"/><path fill="#c6000b" d="M169.8 99.4q-3.65 2.65-6.1 5.1 2.95-4.55 5.8-7.05z"/><path fill="#9b94b3" d="M308.65 58.55q3.55 10.3 1.75 17.25-1.2 4.65-6.4 11.05-1.05-1.45-5.85-3-6-1.95-11.7-1.1 22.2-4.15 22.2-24.2"/><path fill="#9b94b3" d="M277.35 74.55q10.1-.7 20-8.2-4.6 10.75-16.25 12-11.3 1.25-18.7-7.05 6.8 3.8 14.95 3.25m14.45 46.8q-4.65 2.2-9.8 1.65-5.2-.6-9-3.75-4.05-3.4-5.3-8.9 5.65 6.5 15.3 7.3 9.05.75 16.6-3.55-2.85 4.9-7.8 7.25"/><path fill="#0d131a" d="M164.35 103.9q0-.25.7-1.15.85-1.05 1.6-1.45.8 2.15.25 4.05-.5 1.7-1.25 1.5-1.3-.3-1.3-2.95"/><path fill="#fff" d="M167.65 100.75q.55 0 .85.35l.3.75-.3.9q-.3.35-.8.35-.45 0-.75-.3-.35-.35-.35-.8 0-.5.35-.9.35-.35.7-.35"/><path fill="#0d131a" d="M124.25 91.85q.45.65.95.85-1.55.7-2.6 2.7-1 2.05-.9 4.3.15 2.4 1.95 4.35 1.9 2.05 4.15 1.9 2.2-.15 3.6-1.75t1.3-3.9l.6-.05q.65.15.75.55-.05 2.55-1.85 4.35-1.75 1.75-4.35 1.95-2.75.15-5-1.95-2.3-2.2-2.5-5.4-.15-2.75.85-4.75 1-2.05 3.05-3.15"/><path fill="#0d131a" d="M127.35 96.15q1.1 0 1.75.85.7.9.7 2.4.05 1-.5 1.75-.6.75-1.6.8-1.1.05-1.8-.75-.65-.8-.75-2.05-.05-1.3.65-2.2.7-.8 1.55-.8M92.3 59.85l.7 1.85q-9.65 6.25-15.5 11.95-7.55 7.25-10.45 14.8-3.8 9.95-2.85 19.9 1 9.75 6.35 17.55 5.5 8 14.55 12.3 9.65 4.65 21.8 4.3.4-.05-.05.95t-.8 1q-12.35.35-22.35-4.05-9.65-4.25-15.55-12.15-6-8-7.05-18.25-1.15-10.8 3.3-22.4 3-7.85 11.35-15.5 6.05-5.55 16.55-12.25m29.3-22.15q.7.45.1 2.85-.6 2.3-3.75 5.05-2.6 2.25-7.6 5.35l-1.6-1.15q5.15-3.2 7.75-5.4 3.25-2.7 3.75-4.7.65-2.45 1.35-2"/><path fill="#0d131a" d="M139.35 23.5q7.7 9.75 5.9 23-.05.4-1.15.6t-1.05-.2q1.7-12.5-4.9-21.5-6.85-9.3-16.75-5.85-10.5 3.65-10.25 13 .1 3.75 2.2 6.55 2.2 2.9 5.4 3.3.4.05-.1 1.1t-.9 1q-3.7-.5-6.15-4-2.4-3.4-2.45-7.95-.1-4.85 2.55-8.8 3.05-4.5 8.95-6.55 10.7-3.75 18.7 6.3"/><path fill="#0d131a" d="M163.95 36.4q.55-2.7-.5-5.5-2.65-6.8-9.65-8.3-7.4-1.6-12.1 5.45-.2.3-1.15-.4-1-.75-.8-1.05 5.65-8.45 14.5-6.65 8.25 1.7 11.25 9.5 1.2 3.15.6 6.45-.65 3.35-3.05 6.3 1.5 4.15 4.35 8.5 2.15 3.3 6.05 8.1-.85.15-1.8.65-3.9-4.85-6.1-8.3-2.85-4.45-4.35-8.8-.2-.45.15-.9 2.05-2.3 2.6-5.05m34.15 71.75 1.9-1.85q1.75 7.4-.7 17.75-2.95 12.55-10.8 19.6-4.35 3.9-9.75 4.9-5.2.95-10.65-.95-.35-.1-.05-.95t.65-.75q9.9 3.5 18.1-3.85 6.2-5.6 9.5-15.55 3.25-9.9 1.8-18.35m-12.2-30 1.1-1.85q8.25 12.3 12.2 26.85l-2 1.05q-3.7-14.05-11.3-26.05"/><path fill="#0d131a" d="M188.55 71.4q4.35-9.95 7.05-17.25-5.75.7-13.6 3.05-7.45 2.2-9.75 3.7-.3.2-.8-.55-.5-.8-.15-1 2.45-1.55 10.2-4 8.35-2.7 14.2-3.45 1.8-.25 2 .55.15.6-.6 2.7-3.05 8.75-8.45 21.6-6.2 14.65-7.45 14.85-7.45 1.25-14.25 9.85-7.85 9.9-8.25 22.9-.05.65-5.6 4-5.55 3.3-6.1 3.15-2.25-.6-6.7-4.85-4.2-4.05-4.15-4.95.6-8.7-1.1-15.4-2.5-10.05-17.2-17.2-8.9-4.35-15.7-5.5-3.65-.65-9.65-19.35-5.25-16.5-6.35-25.45-.2-1.7.45-2.05.5-.25 1.9.35 4.9 2.2 14.1 7.7 10.1 6.05 14.1 9.5.25.25-.2 1.3-.5 1.05-.75.8-3.95-3.4-13.85-9.6-9.45-5.9-13.9-7.95 1 8.05 6.4 23.5 5.45 15.5 8.6 19.1 6.9.75 17.6 6.85 13.8 7.9 16.2 17.55.6 2.25.95 8.55l.2 7.05q1.7 2 4.55 4.45l4.7 3.5q7.9-3.95 9.75-5.6 1.35-15.85 10-25.45 5.15-5.7 12.7-8.85 3.3-5.15 8.9-18.1"/><path fill="#0d131a" d="M173.85 61.5q1.4 2 1.35 3.15-.1 1.2-1.5-.8-9.65-13.65-27.45-15.55-17.2-1.85-29.35 8.1l-1.25-.1q-.3-.35-.45-.95-.15-.65.1-.85 12.55-10.3 30.45-8.5 18.4 1.85 28.1 15.5m30.45 39.95q.7.4-.95 2.4-4.65 5.65-15.85 16.35-12.45 11.85-20.45 17.7.25 2.35 1.7 8.1 1.45 5.8 2.8 9.9 1.05 3.5.7 4.2-.45.8-2.95-1.2-6.4-5.3-23.2-24.3-2.2.35-20.55 7.45l-20.7 7.8q-2.8.8-2.65-.25.1-.7 2.2-3.8 2.55-3.8 6.5-8.8 4-5.15 6.45-7.75-7-6.6-16.65-18.35Q90 97.95 84.6 88.8q-3-4.95 2.4-2.1 11 5.9 49.75 29.7.35.2.25 1.35-.1 1.2-.45 1-42.85-26.6-50.1-30.35 4.15 6.7 15.15 20.25 10.55 12.95 16.3 18.65 1.25 1.2 1.35 1.75.15.65-1 1.9-2.6 2.85-6.5 7.85-3.8 4.95-6.15 8.45l19.7-7.6q18.35-6.95 21.05-6.9.65 0 9.5 9.5 10.25 11.1 14 14.35-1.5-4.8-3.05-11.35-1.9-7.85-1.25-8.4l19.1-17.05q12.65-11.75 16.65-16.3-8.95 2.1-22.4 7.5-14.35 5.7-20.3 10-.35.2-.35-1.05-.05-1.2.25-1.45 5.95-4.25 20.2-9.7 12.8-4.9 22.3-7.1z"/><path fill="#0d131a" d="M107.35 83.5q.15-.35 1 0 .8.4.65.75-1.15 2.7-1.6 6.95-.4 3.75-.1 7.1.05.4-.85.45-.9.1-.95-.3-.3-3.6.1-7.55.5-4.5 1.75-7.4m70.75 7.75q-.05-.35.8-.6l.95.1q1.1 4.1.3 10.8-.8 6.55-2.5 9.25l-1.25.3q-1 0-.8-.3 2.1-2.7 2.85-9.25.75-6.3-.35-10.3m-26.45 9.25q-.3 7.1-1 13.4-.8 6.85-1.9 10.25-.7 2.25-1.35 2.35t0-2.15q1-3.5 1.85-11.2.7-6.85 1-14.15.1-2.95.85-2.2.7.8.55 3.7m-2.75 51.45q.35-.15.75.7.35.8 0 .95-2.7 1.2-7.55.95-5.2-.3-10.35-2.1l.8-2.2q4.95 1.65 9.75 2.15z"/><path fill="#0d131a" d="M133.8 137.75q.05-.35 1.05-.65l1 .05q-.95 9.75-5.5 26.2-4.8 17.2-7.1 16.9-2.2-.25-3.75-15.3-1.4-13.75-.85-21.1.05-.4 1.1-.75l1.1-.05v.05q-.4 5.45.55 17.55.95 11.75 2.05 16.8 2.25-4.75 5.6-16.65 3.9-13.9 4.75-23.05m28.85 13.3q.95.1.85.45-.9 4.5-6.65 16.55-6.4 13.45-8.8 12.35-1.8-.8-.05-20.35 1.15-13.6 2.3-21.15.05-.35.9-.3.9.1.9.45v.1q-1.1 7.7-2.3 21-1.35 14.7-1 17.75 2.3-2.65 7.5-13.6 5.15-10.7 5.4-13 .05-.35.95-.25"/><path fill="#0d131a" d="M109.05 146.4q.2-.35 1 0t.65.7q-11.25 25.05-1.55 45.75 10.05 21.35 40.3 32.9.2 2.45-.25 2.3-31.75-12-42.6-34.9-10.55-22.3 2.45-46.75m-17.8-3.65q3.8-.85 3.5-.45-10.45 14.95-13.95 31.95-2.6 12.25-1.8 28.45.6 13.45-4.1 26.3-2.7 7.35-8.7 17.35-2.8 4.7-3.15 5.85-.55 1.5-.65 5.9-.1 6.45-.85 11.35-1.35 8.5-5.1 18.95-5.4 15.05-13.75 24.2-4.6 5.1-11.6 9.35-2.6 1.5-3.1 2.25l-2.55.5-2.2-.15q.45-.7 2.2-2.2 1.75-1.55 3.1-2.35 7.8-4.7 12.05-9.1 8.5-8.8 13.75-23.4 3.55-9.95 4.25-18.55l.1-10.95q.05-3.6 1.15-6.45.85-2.2 3.55-6.75 6.05-10.15 8.65-17 4.75-12.6 4.15-25.7-.95-20.15 1.3-30.3 2.85-13.2 13.75-29.05"/><path fill="#0d131a" d="M137.2 221.1q.3-.2 2.2.9 1.95 1.05 1.6 1.25-11.3 6.8-21.45 25.65-9.25 17.25-8.95 26.35.1 2.85-1.55 5l-5.55 5.3Q96.85 291.4 92.15 298q-6.95 9.65-11.35 22.7Q79 326 78.7 333v10.55q.1 6.5-.85 8.3-1.9 3.35-11.1 5.8-8.95 2.4-14.65 1.4-.35-.05 0-1.05.3-.95.65-.9 4.3.75 12.6-2 8.15-2.65 9.45-4.9.6-1.15.5-7.1-.05-6.55.3-10.5.6-6.75 2.5-12.4 4.45-13.1 11.7-23.1 4.1-5.6 11.55-12.9l4.7-4.95q1.75-2.25 1.75-4.1 0-9.5 8.35-26.35 9.4-18.9 21.05-27.7"/><path fill="#0d131a" d="M50.8 344.85q-2.25-5.15-4.3-5.5-7-1.2-16.6 4.5-8.85 5.2-10.75 9.95-.65 1.55.25 2.1 2.05 1.4 13.9 1.9 11.6.55 18-.35 1.7-.2 1.7-3.4.1-4.1-2.2-9.2m-3.9-7.75q2.95.5 6 6.65 2.9 5.9 2.85 10.3-.05 2.7-1.7 4.3-1.2 1.15-2.55 1.3-6.4.85-18.3.3-12.8-.55-15.35-2.3-.75-.45-1.05-1.65-.4-1.45.25-3.15 2.2-5.45 12-11.05 10.4-5.95 17.85-4.7"/><path fill="#0d131a" d="M48.5 338.5q.1.35-1.1.35t-1.3-.35q-2.15-6.15-6.3-9.2-3.7-2.7-8.25-2.3-9.7.85-19.35 12.5-3.8 4.55-5.5 8.55-1.7 4.05-.25 5.1 2.3 1.7 11.8.5.35-.05-.1 1.25t-.8 1.4l-9.05-.35q-5.2-1.1-4.8-3.7 1.5-9.4 10.2-17.95 8.7-8.6 17.55-9.4 13.25-1.2 17.25 13.6"/><path fill="#0d131a" d="M15 327.1q4.65-3.1 9.8-3.65 5.1-.55 9.45 1.5.35.15-.25.9-.65.7-1 .55-7.7-3.05-16 2.3-6.2 4.1-10.8 11.5-4.1 6.55-4.35 11.1l2.7.65q.3.05.4.95.05.9-.3.8l-2.05-.3q-2.5-.6-2.55-1.95-.25-5.05 4.1-12.4Q8.7 331.3 15 327.1m131.65-134.4q.5-5.05.25-8.75-.15-2.3.8-.95.9 1.35 1.05 3.8.25 4.2.1 7.5l-.5 6.1q-.65 8.3-.3 13.2.6 8.15 3.7 19.15 3.55 12.6-.1 29.1-1 4.4-2.95 10.7-1.55 4.9-1.55 5.75 0 5.25.75 16.75.35 10.95-1.8 20.35-5.35 23.65-12.75 32.95l-6.8 6.4q-3.75 3.3-3.45 5.5.05.4-1.55 1.35-1.55.9-1.65.55-.85-3.25 3.25-7.95l6.95-7.25q8.55-10.7 13.25-31.7 2.1-9.15 1.35-21.05-1.2-11.9-1.2-16.1 0-1.05 1.6-5.95 2.1-6.4 3.05-10.5 3.9-16.05.5-28.45-3.05-11.05-3.45-19.15-.2-3.9.55-13.1zm-16.6 200.9v.1q2 1.25 13-.5 11.85-1.9 17.95-5.2.85-.5.85-2.4-.05-1.95-1-4.55-1.7-4.7-4.75-8.05-3.25-3.55-5.95-3-4.15.85-9.15 5.9-4.45 4.5-7.95 10.55-3 5.15-3 7.15m19.75-25.35q3.35-.65 6.7 2.15 2.95 2.5 5.05 6.9 2 4.15 2.2 7.75.25 3.9-1.85 5-6.15 3.35-18.9 5.45-12.7 2.1-15.05.2-.9-.7-.4-2.75 1.5-5.95 7.95-14 7.45-9.35 14.3-10.7"/><path fill="#0d131a" d="M118.05 373.65q-5.5 9.3-6.35 21.45-.1 1.45 6.85 1 7.05-.5 10.4-2.5.3-.2 1.2.7.95.85.6 1.05-5.1 3-13.15 3.25-8.35.2-8.1-3.5.9-12.7 7-22.85 6.15-10.1 14.5-12.8 5.95-1.9 12.8.9 7 2.8 10.25 8.65.2.35-.85.65l-1.25.05q-4.6-5.5-9.9-7.55t-10.65-.35q-7.85 2.55-13.35 11.85"/><path fill="#0d131a" d="M104.45 394q-1.45-16.25 8.85-27.55 10.7-11.7 25.15-7.15.35.1-.2.85-.6.8-.95.7-12.85-3.25-22.7 7.75-9.65 10.75-7.95 25.15.05.6 1.45.65l2.5-.25q.35-.05.55 1 .15 1.05-.2 1.1-1.25.3-3.4-.05-2.95-.5-3.1-2.2M208.4 222.6q3.95-5.9 21.8-8.4l.7 1.95q-8.4 1.4-14.2 3.85-5.55 2.3-7.35 5-.2.3-.7-.9-.45-1.2-.25-1.5m25.55-8.85 3.2-.3q.1 1.1.5 1.8l-3.7.45z"/><path fill="#0d131a" d="M233.8 207.55q.2-3.05 1-2.95.7.05 1.4 2.4l2.2 6.85 2.85 8.7.25-7 .1-6.9.85 1.35q.8 1.6.8 2.55.1 8.1-.35 11.95-.3 2.75-1.15 2.2-.75-.45-1.85-3.35l-4.45-12.75-.5 8.15q-.3 2.8-1.05 2.75-.65-.1-2.15-2.6l-4-6.95q-3.1-5.6-4.15-8-.95-2.2-.6-2.45.4-.3 1.8 2l8.4 14.3z"/><path fill="#0d131a" d="M236.85 193.9q-.4-4 .2-5.15.65-1.2 1.8 3.05l6.6 25.05q6.4 23.05 9.6 27.85 3.75 5.65 21.9 18.35 17.9 12.5 19.2 14.65 6.25 9.05 8.8 13.7 7.4 13.55 6.4 22.1-.15 1.4-3.6 7.65l-3.9 7.15q-.15.35-1.85.5l-1.6-.15 4.2-7.6q3.65-6.6 3.8-7.75.95-8.45-5.6-20.6-1.95-3.5-8.35-12.85-1.05-2-19.25-15.1-18.75-13.5-22.65-19.05-3.5-4.95-9.65-26.9-5.45-19.45-6.05-24.9m-35.05 51.65.45-1.8q.5-1.7.75-1.45 4.9 5 7 8.55 2.4 4.05 3.25 9.3 1.6 9.85-.55 18.2-3.55 13.7-16.55 17.7-.35.1-.4-1.1 0-1.2.35-1.3 9.2-2.85 13-11.65 3.7-8.5 1.7-20.8-1.6-9.9-9-15.65m42.55 16.35q2.45-10.4 1.8-14.4-.6-3.65-5.3-8.7-5.05-5.45-6.9-9.4-2.15-4.65-3.05-12.9-.05-.35 1.6 1.3 1.6 1.7 1.65 2.05.75 6.85 3.05 10.85 1.15 2.05 5.1 6.35 5.75 6.25 6.35 8.9.9 3.8-1.95 15.7-3.2 13.45-4.35 22.5-1.95 15.15.25 25.75.85 4.3-7.6 8.65-7.6 3.9-11.8 3.55-.35-.05.1-1 .45-1 .8-.95 3.75.25 10.2-3.85 6.3-4 5.85-6.05-2.2-10.8-.25-25.9 1.15-8.6 4.45-22.45"/><path fill="#0d131a" d="M214.65 302q1.25-.45 3.4.85 2.25 1.35 4.2 3.85 4.95 6.45 3.45 13.75-.85 3.95-13.85 4.7-12.65.7-14.85-1.75-.7-.7-.35-1.6 1.9-5.35 5.55-10.2 5.35-7.05 12.45-9.6m8.45 17.95.3-3.05q0-3.75-1.85-7.25-1.45-2.75-3.45-4.5-1-.9-1.9-1.25l-.95-.2q-6.5 2.35-11.3 8.95-3.15 4.3-5.1 9.6 1.15 1 7.6 1.05 6.85.1 12.05-1.1 4.3-1 4.6-2.25"/><path fill="#0d131a" d="M206.65 295.25q3-.3 5.55 1.6 2.35 1.75 4.6 5.65.2.3-.9.3-1.1-.05-1.25-.3-3.7-5.75-8.25-5.25-6.65.75-14.05 11.9-2.6 3.9-4.45 7.9-1.7 3.55-1.5 4.1.5 1.4 11.5-.2l-.15 2.25q-11.3 1.5-13.1-.75-.85-1.05.95-5.3t5.05-8.95q8.5-12.25 16-12.95"/><path fill="#0d131a" d="M182.1 317.2q.05-.65 1.2-1.75t1.05-.65q-1 3.1-.35 4.05.55.8 1.6-.3.25-.25.4.85t-.1 1.25q-1.75 1.05-2.8.2-1.05-.9-1-3.65m25.85-21.55q.25.25-.75.6l-1.2.2q-2.7-1.65-6.65-.05-3.05 1.2-5.7 3.75-.3.3-.05-1.15.3-1.4.8-1.8 3.5-2.65 6.85-3.4 4.35-1 6.7 1.85m120.7-46.15 2.7 1.3q1.35.7 1.7 1.4.45.8.85 3.4l.95 5.75q3.2 15.6 6.95 27.5 6.5 20.55 16.85 39.15 4 7.15-10.65 15.35-.35.2-.8-.7t-.1-1.1q4.85-2.7 7.35-5.5 3.6-4.05 1.6-7.65-10.4-18.8-16.8-39.05-3.6-11.35-6.9-27.2-1.6-7.5-2.15-8.55-.35-.7-3.1-2.1-14.4-7.55-20.3-23.35-4.55-12.1-5.9-35.85-1.2-21.2-3.4-30.7-3.65-16.05-12.9-24.25-.25-.25 1.35-.55l1.9-.05q9.4 9.25 12.7 24.4 1.85 8.35 3.1 30.85 1.35 23.8 5.35 34.85 5.5 15.2 19.65 22.65"/><path fill="#0d131a" d="m346.65 343 .2-.55q0-1-.95-2.7-1.85-3.15-5.25-5.3-4.1-2.6-8-2-3 .5-7.65 8.7-4.6 8-4.55 12.1 0 .95.35 1 6.2.85 14.9-3.4 7.75-3.8 10.95-7.85m-14.15-12.7q7.55-1.2 13 4.9 2.2 2.45 2.95 5 .75 2.6-.35 3.95-3.55 4.4-11.75 8.65-9.55 4.85-16.3 3.95-1.9-.35-1.9-2.8-.05-4.6 5.15-13.65 5.35-9.4 9.2-10"/><path fill="#0d131a" d="M333.35 330.8q.2.3-.4.9-.65.6-.9.35-4.15-4.35-8.25-5.9-4.1-1.5-7.9-.1-5.65 2.15-9.35 10t-4.1 18.45q-.05 1.9 7 .25 6.6-1.55 10-3.55.3-.15.4.8l-.1 1.05q-5.9 2.95-12.05 4.2-7.6 1.5-7.45-1.95.4-11.35 4.75-20.3 4.35-9 10.6-11.35l7.95-.3q5.45 1.5 9.8 7.45"/><path fill="#0d131a" d="M294.3 344.55q-.25-5.3 2-10.3 2.4-5.25 6.6-7.7 4.75-2.8 10.45-1.1.3.1-.55 1.1-.9.95-1.15.9-4.45-1-8.25 1.6-3.4 2.35-5.4 6.9-1.9 4.35-1.7 8.8.2 4.7 2.75 7.4.9 1.1 2.55-.4.25-.25.3.9.05 1.1-.25 1.25-2.25 1.25-3.95-.5-3.1-3.3-3.4-8.85m.15-263q12.05 1.7 17.5 11.9 5.2 9.7 1.7 21.6-4.5 15.4-18.55 20.95-10.85 4.25-27.7 2.65-5.35-.55-12.5-2.95-4.1-1.4-12.45-4.9-13.65-5.75-22.15-7-12.75-1.9-22.9 3.55-.35.2-.2-1.25t.5-1.6q10.5-5.15 23.2-2.85 7.45 1.35 22.25 7.45l12.15 4.75q6.55 2.25 11.8 2.75 15.5 1.5 26.15-2.6 14-5.4 18.3-20.1 3-10.25-1.65-19.1-5-9.5-16.05-11.05Q283.6 82.3 276 88.5q-7.85 6.45-7.4 17.1.2 5.5 3.05 9.6 2.75 4 7.1 5.65 10 3.8 19.3-5.75 2.15-2.25 2.3-1.4.1.85-2 3.2-4.1 4.6-9.65 6.2-5.25 1.55-10.3.05-5.1-1.6-8.3-5.85-3.5-4.65-3.75-11.35-.45-11.4 8.9-18.85 8.85-7 19.2-5.55"/><path fill="#0d131a" d="M211.3 103.2q-2.35.85-1.45-.2.95-1.1 3.3-1.95 21.85-8.2 35.4-6.95 10.6.95 19.05 8.45.2.2.05 1.05t-.4.6q-5.9-5.75-16.4-7.35-16.25-2.4-39.55 6.35m48.5-37.3q.4.1.8 1.4.4 1.25 0 1.15-12.35-3.8-21.45-3.9-9.3-.15-14.6 3.55-2.55 1.8-2.25.7.3-1.15 2.9-2.9 5.65-3.95 13.8-3.95 8.1.05 20.8 3.95"/><path fill="#0d131a" d="M284.95 37.9q8.35 0 15.15 4.7 6.45 4.45 9.85 11.9 3.45 7.6 2.7 15.95-.8 9-6.35 16.7-.2.3-1.35-.2-1.1-.5-.9-.8 5.3-7.35 6.1-15.75.8-7.85-2.35-14.9-3.1-6.9-9.1-11.05-6.3-4.35-14.1-4.35-13.45 0-19.85 6.1-6.85 6.5-4.15 18.55 1.45 6.5 6.6 9.75 4.5 2.85 10.85 2.65 5.95-.15 11.1-2.85 5.25-2.8 7.15-6.95 1.25-2.7 1.6-2.1.35.55-.8 3.3-2.1 4.9-7.75 7.95-5.45 2.95-11.8 3-6.75 0-11.65-3.35-5.45-3.8-7.1-11.05-2.9-13.1 5.2-20.5 7.35-6.7 20.95-6.7"/><path fill="#0d131a" d="M272.3 31.25q1.55-2.95 1.6-1.5.1 1.45-1.45 4.45-8.35 16.25-18.15 19.5l-2.15-.7q-1.5-.35-2.2-.7 12.1-1.25 22.35-21.05"/><path fill="#0d131a" d="M286.8 28.05q.85 6.55-1.85 10.85l-1.5.1q-1.25-.25-1.05-.55 2.55-4.1 1.95-10.25-.6-6.25-4.3-11.95-9.05-14.1-28-14.1-9.2 0-15.75 5.85-5.85 5.25-8.15 13.65-2.25 8.05-.3 15.45 2 7.75 7.85 11.25l1.85 1-4.5-.65q-5.65-4.4-7.55-12.65-1.85-8 .55-16.2 2.5-8.65 8.75-13.95Q241.85 0 251.9 0q19.8 0 29.95 15.2 4.15 6.15 4.95 12.85"/><path fill="#0d131a" d="M212.05 14.4q9.1 1.5 15.45 8.85.25.3-.45.9-.65.6-.9.3Q220.3 17.7 212 16.4q-9.15-1.45-16.8 4.85-7.6 6.25-7.4 16.3.15 9.85 7.35 14.8.3.25-.2.95l-.85.55q-8.1-4.35-8.55-15.65-.5-11.6 8.1-18.7 8.3-6.85 18.4-5.1"/><path fill="#0d131a" d="M172.65 38.9q5.05-5.45 14.05-3.05.35.1.1 1-.25.85-.6.75-7.85-2.1-12.4 3.6-4.4 5.55-3 14.55.1.4-.95-.25-1-.7-1.05-1.05-1.05-10.25 3.85-15.55m126.2 93.05q-.2-.3 1-.75l1.45-.15q4.4 6.8 5 20 .65 14.95-5.45 23.1-.25.3-.45-.9-.25-1.25-.05-1.6 4.8-7.9 3.45-21.9-1.2-12.05-4.95-17.8"/><path fill="#0d131a" d="M413.15 81.7q2.5-3.35 3.2-2.7.75.65-1.05 5.5l-6.4 15.95-6.35 15.3 9.65 3.3q3.2 1.15 3.6 1.85.4.85-2.6 1.6-12.25 2.8-14.9 3.55l-3.75 17q-.75 3.4-1.45 3.85-.75.5-1.35-2.3-2.35-9.2-2.9-13.15l-11.35 10.7q-2.95 2.65-3.65 2.1-.7-.6.9-4.25l7.85-17.55-11-6.1q-2.5-1.45-2.2-2.05.25-.65 3.45-.75l5.5.3 5.3.7q-6.65-8.5-24-23.2-17.2-14.55-26.45-19.65 6.2 20.55 3.9 64.2-2.4 44.05-11.25 67.45-1.2 3.15-2.05 3.25-.95.1-2.85-2.85L301 171.3l1-.15q.75-.45.55-.8l21.2 32.9q9.3-23.15 11.2-69.7.8-19.65-.2-36.55-1.05-17.05-3.55-25.4-.65-2.3 0-2.8.6-.5 2.6.6 9.4 5.25 27.15 20.5 17.8 15.3 24.4 23.8 1.2 1.6.9 2.25-.35.6-2.45.4l-10.15-.95 9.3 5.1 2.05 1.35q.4.6-.35 1.85-1.4 2.3-4 7.8l-4.2 9.1q7.5-6.75 11.65-11.05 1.65-1.65 2.15-1.65.6 0 .85 2.1l2 11.1 3.55-15.95q.1-.5.6-.7l14.25-3.7-9.3-3.25q-1.35-.45-1.6-1.2-.3-.75.35-2.3l12.85-30.25-16.85 24.9q-.9 1.25-1.6 1.15-.8-.1-1.1-1.8l-2.3-11.95-2.7 11.5q-.45 1.7-1.1 1.8-.65.05-1.6-1.25-9.05-12.6-26.4-27.3-19.8-16.8-38.1-25.35 5.15 33.85 5.05 64.3-.1 30.4-5.5 61.6-.45 2.6-1.25 2.95-.9.3-2.45-1.9l-13.7-19.45q-.3-.5.25-2.05t.7-1.15q.9 1.85 14.2 21.55 5.5-31.1 5.85-59.45.4-30.15-4.8-65.05-.5-3.2.35-3.8.8-.6 3.6.75 18.5 8.95 37.4 25.45 16.05 14.05 25.85 27.3l2.75-11.45q.9-3.65 1.65-4 .75-.4 1.5 2.65l1.35 5.7 1.35 6.3 8.7-12.45zM157.4 83.75q.15-2.8-1.35-4.8-1.65-2.15-4.6-2.15-2.65 0-4.55 2.15-1.85 2.1-1.85 5.15 0 3 1.85 5.15 1.9 2.1 4.55 2.1 2.55 0 4.25-2.45 1.55-2.15 1.7-5.15m-.1-5.8q2.15 2.5 1.95 5.9-.25 3.65-2.25 6.3-2.25 2.95-5.6 2.95-3.45 0-5.9-2.55-2.5-2.6-2.5-6.3t2.65-6.3q2.6-2.6 6.05-2.6 3.35 0 5.6 2.6m.95-20.1q0-3.25-2.5-5.55-2.55-2.3-6.1-2.3t-6.1 2.3q-2.5 2.3-2.5 5.55 0 3.35 2.9 6.05 2.85 2.75 6.35 2.75 3.3 0 5.65-2.65 2.3-2.65 2.3-6.15m-1.15-6.7q2.9 2.65 2.9 6.6 0 4.3-3.05 7.4-2.9 2.95-6.65 2.95-4.35 0-7.8-3.05-3.5-3.1-3.5-7.15 0-3.9 3.3-6.7 3.2-2.7 7.6-2.7 4.3 0 7.2 2.65m-82.65 197.6q.45.45-.35 2.75-2.7 7.65-5.95 13.45-3.95 7-7.95 9.95-.3.2-.65-1t-.15-1.35q2.7-2 6.65-8.55 3.7-6.2 5.95-12.1-7.2 5-9.65 7.3-.25.25-.9-.4-.6-.65-.35-.9 1.2-1.15 5.1-4.05l5.95-4.25q1.85-1.2 2.3-.85M173.1 268q-1-3.85-.45-5.2.5-1.35 2.2.85 2.4 3.2 6.55 9.95l6.3 10.95q3.65-5.4 5.75-7.9.25-.25.75.8t.25 1.35l-5.2 6.65q-.85 1.3-1.6 1.15-.9-.1-2.05-2.15-6.05-11-11.05-18.1 1.55 5.55 5.95 17.35l5.9 15.15 8.15-9.15q.25-.3.7.5.5.8.25 1.1l-7.6 8.6q-1.55 1.65-2.05 1.7-.65.05-1.4-1.75l-5.8-15.05q-4.15-11.3-5.55-16.8"/><path fill="#0d131a" d="M206.2 229.85q2.15-5.7 2.15-11.3l-.3-4.2q-.65-4.3-4.05-14.45-3.6-10.8-7.75-20.15l3.75 21.2 3.85 22.95v.1q-10.4 18.25-12.6 20.3-.5.5-1.05.15-1.4-.75-6.4-7.75-5.25-7.3-7.95-12.6-.55-1.05 5.6-42.95-4.95 9.85-9.7 21.55-6.2 15.2-7.65 23.15 1.45 3.25 11.15 18.6 10.3 16.3 14.85 22l4.2-7.1 4.05-7.65q5-14.35 7.85-21.85m-12.1-52q-.75-4.2.2-4.45.95-.2 2.5 3.15 10.15 22 12.7 32.2 2.95 11.9-.55 21.15-8.4 22.35-10.75 32.6-3.95 17.3-.9 31.55.25 1.25-.75 3l-2.85 4q-8 10.55-12 22.9-6.8 20.65-5.15 50.2.2 2.9-5.8 9-6.05 6.25-9.75 6.45-.35 0-.2-.7.1-.65.35-.8 2.5-1.1 7.25-6.7 4.8-5.65 4.8-7.65l-.05-.05q-1.1-20.2 2.45-37.75 4.35-21.5 15.25-35.95l2.3-3.2q.95-1.45.95-2.2-.75-9.45-.75-14 0-9.7 2.9-21l-3.95 6.7q-1.35 2.25-2.3 2.15-.75-.05-2.15-1.9-5.25-7-15.1-22.05-9.8-15-10.85-17.6-1.05-2.75 8.45-25.1 7.2-17 10.35-23.1 1.5-2.9 2.4-2.8.95.1.45 3.4-6 40.55-6 44.15 2.45 4.75 7 10.85 3.45 4.65 5.85 7.2 4.8-5.7 11.05-16.75l.55-.95-3.4-20.2zm16.7-31q13.55-20.05 15.55-23.5l.95.1q.8.45.6.8l-7.3 11.4-8.6 13.05q-.7 1.05-1.3 1.1-.65.05-1.3-.95-6.4-10-14.35-16.1-.2-.15.3-.9t.8-.5q8.55 6.5 14.65 15.5"/><path fill="#0d131a" d="M236 144.5q-4.55-7.2-6.9-12.75l-4.4 11.95q-4.55 12.8-5.75 19 3.6 9.7 4.5 19.9.3 3.35-.55 3.7-.9.3-2.45-2.65Q214.2 171.6 205.3 160q-9.45-12.25-16.95-17.5-.35-.2.35-1.15.65-.95.95-.75 7.4 5.15 16.8 17.55 8.55 11.35 15.1 23.75-.7-7.15-3.5-15.25-.8-2.4-.9-3.45-.05-1.2.55-3.75 1.7-6.85 6.25-19.3l4.25-11.05q.4-1 .95-.95.5.05.8.9.8 2.4 5.2 10.05 4.25 7.25 7.6 12.15l1.3 2.15.2 1.9q-.45 6.6-.4 13.1 0 6 .45 9.35 2.55-9.4 7.5-23.85 4.65-13.75 6.7-18.15.15-.35 1.25-.25t.95.45q-2.2 4.7-7.5 19.95-5.75 16.4-8.1 25.3-.65 2.55-1.4 1.5-.65-1-1.25-4.95-1.4-9.65.05-23.75-3.1-4.1-6.5-9.5"/><path fill="#0d131a" d="m235.8 131.65-6.4-7 1.15-.05q1.45.3 2.05.95 6.7 7.5 12.35 12.75 1-4.75 2.1-6.95.15-.3.9.2.8.45.75.6-1.35 2.8-2.4 7.4-.25 1.1-.65 1.3-.45.15-1.15-.5-3.1-2.85-8.7-8.7m50.85 25.45q3.25 1.7 7.7 4.75 4.15 2.9 5.85 4.55.25.25-.25 1.1-.55.85-.8.6-1.7-1.7-5.45-4.35-4.1-2.95-7.2-4.5 4.15 7.45 8.95 16.85 5.7 11.25 6.9 14.85-1.05 3.4-1.2 2.9-1.15-3.5-6.65-14.95-5.25-10.85-8.95-17.65-2.15-3.9-2.15-4.7 0-1.1 3.25.55m-21.35 1.25q.85-3.05 1.75-3t1.05 3.2q.3 6.8 1.6 19.9 1.2 11.65 2.15 18.25 1.95 2.45 10.1 9.2 9.85 8.15 17 12.05.65-2.7 1.5-8.6l1.15-8.6q.05-.55.7 1.95t.5 3.6l-1.8 10.9q-.55 2.6-1.15 2.85t-3.2-1.25q-7.3-4.25-16.8-11.8-8.4-6.7-9.75-8.65-3-26.1-3.7-36.95-2.3 10-4.7 27.45-2.05 14.85-2.25 19.65 5.85 4.1 43.85 24.3 1.05-8.9 1.05-13.7 0-.35.85.95l.8 1.7q0 2.9-.8 10.4-.25 2.65-1.25 2.7-.6.05-3.4-1.5l-27.6-14.7q-15.9-8.5-15.9-9.55 0-3.65 2.65-21 2.95-19.7 5.6-29.75"/><path fill="#0d131a" d="M314.4 240.95q0-.35.95-.35.9 0 .9.35L316 254.6q-.1 1.9-.75 2.15t-2.7-.9q-5.8-3.2-17.2-10.7-8.75-5.8-15.75-10.7-1.55-1.1-.65-1.65l3.35-.15q5.25.85 14 4.6 6.15 2.7 11.25 5.45l1.75-10.65 1.5 2.95-1.4 7.75q-.25 1.5-1 1.75-.8.2-2.7-.8-5-2.55-10.6-4.95-7.8-3.35-12.7-4.55 21.8 15 31.35 20.05zM116.95 87.6l1 .05q1 .25.9.45-1.2 5.25.1 9.75 1.3 4.35 4.95 7.55 2.5 2.15 5.35 2.95l7.15.25q.25-.05.35.85.05.9-.2.9-4.65.2-7.9-.75-3.05-.9-5.7-3.05-4.2-3.35-5.75-8.15-1.55-4.85-.25-10.8m55.9 6.05q0-.25.9-.15.9.05.9.3 0 10.35-4.65 15.85-1.85 2.2-4.05 3.05t-5.75.7q-.25-.05-.05-.65.15-.65.4-.65 2.8.35 4.8-.55 2-.85 3.65-3 3.85-5.15 3.85-14.9"/><path fill="#0d131a" d="M170.35 97.15q1 4.75-.9 9.3-1.85 4.3-4.2 4.3-1.2 0-2.2-.95-1.1-1.05-1.35-2.65l1.2-.2q.15 1.05 1.05 1.85.75.7 1.35.7 1.6 0 3-3.55 1.45-3.85.7-7.65l-1.15 1.25 1.1-1.95.05.7q1.25-1.35 1.35-1.15"/><path fill="#fff" d="M124.35 95.05q.6 0 1 .5.4.45.4 1.05 0 .55-.4 1-.35.4-.85.4-.6 0-1-.4t-.4-1q0-.65.4-1.1.35-.45.85-.45"/><path fill="#0d131a" d="m248.05 51.6 11.65.45q.4-.05 0 .85l-.8.9-11.6-.4q-3.2-.55-9.05-2.3-9.2-2.85-15.5-2.7-10.35.25-25.85 6.55-.35.15-.65-.9-.25-1.1.1-1.2 16.7-6.85 25.65-7 5.05-.1 16.8 3.5 5.25 1.65 9.25 2.25"/><path fill="#0d131a" d="m260.3 49.75-.65 3.15-3.7-.2z"/></svg>