<svg xmlns="http://www.w3.org/2000/svg" width="368" height="437" viewBox="-0.15 -0.35 367.5 436.55"><path fill="#a3611c" d="M149.55 235.85q6.1-5.1 7.75-8.15-1.05 3.7-1.9 14.3-.7 9.2-2.95 13.95 6.9-.25 12.8-3.65 6.05-3.5 9.1-9.2.15 4.2-.6 9.85-.7 4.8-1.8 9 2.9-1.3 8.35-5.8 6.1-5.05 8.5-8.7.8 2 1.2 5.35.4 3.4.15 6.3l2.9-3.85q1.1 6.75 5.45 17.4 4.5 11.2 8.15 15.3-.35-.4-5.45 27.6-8.55-4.6-21.95-6-12.9-1.35-22.9.95.75-4.3-1.25-14.5l-4.35-20.25q-5.9-28.25-1.2-39.9m71.2 41.75q3.25 6.3 8.75 13-5.9.55-12.8-.05-7.5-.7-9.2-2.2 4.1-1.1 13.25-10.75"/><path fill="#a3611c" d="M189.1 83.8q-3.95 2.65-12.55 2.85-8.65.25-14.1-2.2 10.1-2.5 16.7-11.35l12.95 11.7 8.85 7.9q.75 5.9 1.1 39.15.35 33.7.6 36.35l8.75-19.1q7.4-16.5 9.7-16.75-.45 11.7-8.35 35.1-9.6 28.2-10.95 34.55-.7 3.3-.65 11.2 0 10.45-.3 14.55-1.25 19.55-10.7 31.35.25-2.9-.15-6.3-.4-3.35-1.2-5.35-2.4 3.65-8.5 8.7-5.45 4.5-8.35 5.8 1.1-4.2 1.8-9 .75-5.65.6-9.85-3.05 5.7-9.1 9.2-5.9 3.4-12.8 3.65 2.25-4.75 2.95-13.95.85-10.6 1.9-14.3-.8 1.5-9.05 8.65l-9.45 8.05q.7-11.2 8.65-27.05 8.65-15.5 10.45-19.95-6.15 4.95-14.15 7.55-7.55 2.4-11.4 1.2 2.9-1 6.35-3.2 4.45-2.8 8.5-6.75l-6.15 1.5-6.8.7q4.65-1.85 9.95-9.15l7.65-10.35q-4.2 1.8-8.45 2.85-4.65 1.2-7.6 1 4.25-3.2 22.65-28l20.85-28.6q-2.05 1.7-4.15 2.65l-4.45 1.4q2.45-2.45 5.4-7.55 2.75-4.7 4.25-8.6-2.2 2.25-6.25 4.7-5.1 3.05-8.8 3.3 10.45-8.9 16.4-21.1 3.25-6.6 7.4-17.15"/><path fill="#e6e0b6" d="M231.95 136.25q-.9-9.35-1.35-16.8l3.4 4.1 2.95 2.85q1.75 1.3 9.3 1.75 7.45.45 8.8-.6 2.2-1.7 5.35-5.3-.95 12.25-4.15 27.3 9.1-9.45 13.15-16.2-.85 6.4-4.2 41.25-3.95 36.25-9 57.75l-3.15 4.7q-2.4 3.15-3.8 4.2l.05-4.25-.1-3.7-3.45 5.25q-3.1 4.5-5.25 6.8.45-13.55 0-16.7-1.55 1.55-4.75 8.4-3.3 7.05-4.55 11.7-1.35-2.1-2.45-4.7-1.15-2.7-1.5-4.6-1.05 5.35-2.2 7.4-1.8-2.05-4.4-10.1-2.6-8-3-12.75-1.7 2.4-3.8 7.2-2.25 5.2-3.2 9.2-3-4.1-5.9-14.6-3.15-11.25-3.4-20.7.45-5.35 10.3-33.5 9.55-27.45 9.95-38.8 4.55 10 11.95 17.4-.75-5.5-1.6-13.95"/><path fill="#a3611c" d="m197.7 61.55-11.95.5q1.9-3.25 3-4.65 1-1.35 1.95-2.15l-9.4-.7q-5.35-1-7.95-2.35 3.55 0 9.55-2.65 5.5-2.45 8.95-5.2 1.85 5.85 5.85 17.2"/><path fill="#ec6d45" d="M219.65 70.4q-1-4.7.85-8.15 4.3 2.25 8.45 5.75l.1 3.75q-.25 2.6-1.9 4.45-3.3-.65-5.8-1.6-1.3-2.2-1.7-4.2"/><path fill="#fff" d="M221.35 74.6q-3.7-1.45-5.35-3.6-.9-1.15-1.75-4.8-.85-3.6-1.05-6.9 3.45.95 7.3 2.95-1.85 3.45-.85 8.15.4 2 1.7 4.2m7.6-6.6q4.45 3.7 6.6 6.55l-3.25 2.55-5.15-.9q1.65-1.85 1.9-4.45z"/><path fill="#a3611c" d="M228.3 12.15q8.05 1.15 11.35 6.8-6.15 15.5-8.8 25.55-5.5-1.8-12.75-2.4l-6.35-.8q-2.05-1.95-6.25-7.9 7.6-9.65 22.2-8.9-1.95-3.25-6.15-6.95-3.8-3.3-7-4.9z"/><path fill="#e6e0b6" d="m236.95 126.4-2.95-2.85-3.4-4.1q-.35-6.85-.2-10.45 3.2-2.8 9.05-6.7 5.85-4 7.15-4.2 2.9 1.55 7.55 5.45 4.05 3.45 6.55 6.2.2 5.45-.3 12.5-3.15 3.6-5.35 5.3-1.35 1.05-8.8.6-7.55-.45-9.3-1.75"/><path fill="#a3611c" d="m302.55 64.9-11.5-1.2q.85-3.8 6.25-20.05 1.95 3.6 7.35 7.4 4.7 3.3 7.1 3.7-6.15 1.55-14.9-.25 3.1 2.85 5.7 10.4"/><path fill="#93aec1" d="M246.1 81.35q1.75-.65 4-2 3.5-2.15 5.15-4.45 1.8.6 4.05 2.55l.15 2.15q.1 2.2-.15 3.15l7.65 4.75q6.45 3.8 8.3 5.8 2.65 21.4-3.1 34.9-3.75 8.7-15.9 21.35 1.4-6.75 3.05-20.95 1.85-16.2 1.3-21.3-1.6-2.45-6.95-7.25-5.25-4.7-7.2-5.5-2.15.75-8.15 4.9-5.6 3.9-7.25 5.55-.3.5.75 20.3 1.1 20.15 1.75 24.9-9.95-9.95-14.75-24.7-5.35-16.4-2.2-33.25 2.4-2.15 7-5.05 4.8-3 7.5-3.9l-.1-2.45.1-2.65 4.4-3.6q1.05 1.5 5.2 4.15 4.15 2.6 5.4 2.6"/><path fill="#fff" d="M274.5 70.4q-1.05 1.85-4.65 3.85 1.6-3.95 1.2-6.1l-.7-2.25-.7-1.85q4.5-1.85 7.15-2.75.05 2.15-.75 5.1-.75 2.7-1.55 4"/><path fill="#a3611c" d="M283.6 30.95q2.4 1.9 3.25 3.25-5.6 6.1-7.15 6.5l-9.85 2.15-13.4 2.35q-.55-3.1-3.7-12.5-2.95-8.6-5.9-16.15 1.4-3.4 1.85-6.35.6-4.2-.3-9.3 4.2 2.15 6.8 7.7 2.95 6.3 1.75 13.65 3.6-1.6 6.1-6.35 1.2-2.35 2.8-7.3 1.65 3.5 1.4 7.85T265 22.9q4.6-2.5 9.75-1.55 5.85 1.05 10.8 6.35l-6.5.6q1.95.65 4.55 2.65"/><path fill="#93aec1" d="M344.95 73.5q1.4-.75 2.25.4.75.95.45 1.75l-45.95 62.4q-1.15-6.15-1.55-11.45-.4-4.75.2-12.1l1.1-13.15q41.85-26.95 43.5-27.85"/><path fill="#dce5dd" d="m187.65 58.5-1.9 3.55-16.25 1.65q4.45 4.6 9.65 9.4-6.6 8.85-16.7 11.35 5.45 2.45 14.1 2.2 8.6-.2 12.55-2.85-4.15 10-7.25 16.3-5.7 11.55-15.3 21.3 3.75-.25 7.75-2.45 3-1.7 5.15-3.8-1.55 4.05-3.8 8.05-2.6 4.6-4.95 7l4.45-1.4q2.1-.95 4.15-2.65l-6.05 8.65-6.5 9.6q-4.2-11.9-13.45-36 2.15-1.65 2.4-3.5.35-2.15-1.7-4.8-6.25-8.2-7.35-12.05-1.8-6 2.1-14.1 2.05-4.35 5.95-7.3 3.65-2.75 9.85-4.9 2.1-.7 11.05-2.45 7.05-1.35 11.9-4l2.1-.05z"/><path fill="#d06306" d="M290.4 39.6q5.95-4.45 10.6-6.65l-5.1 15.35q-4.4 13.5-4.85 15.4l14.1 1.9q12.7 1.9 14.5 2.5-2.1 2.15-14.9 12.75l-15 12.15q0 8.8-2.05 36.8-2.05 28.3-3.2 34.35-13.25-26.5-15-31 4.45-7.55 5.9-16.5 1.5-9.75-.15-23.35-1.85-2-8.3-5.8l-7.65-4.75.2-2.75-.15-2.3q4.4-.55 8.45-2.25 4.9-2.1 6.7-5.05.8-1.3 1.55-4 .8-2.95.75-5.1l6.4-2.15q1.6-.55 3.85-6.6 2.3-6.15 3.35-12.95"/><path fill="#ec6d45" d="M261.45 72.45q-.3-1.95.05-4.15 3.35-2.25 8.05-4.15 1.3 2 1.35 4.85.05 2.7-1.05 5.25-2.65 1.45-5.9 2.45-.95-.6-1.65-1.8t-.85-2.45"/><path fill="#93aec1" d="M239.45 102.3q-5.85 3.9-9.05 6.7.15-3.15.65-4 1.65-1.65 7.25-5.55 6-4.15 8.15-4.9 1.95.8 7.2 5.5 5.35 4.8 6.95 7.25l.1 2.45q-2.5-2.75-6.55-6.2-4.65-3.9-7.55-5.45-1.3.2-7.15 4.2"/><path fill="#fff" d="m259.35 77.7-.05-.25q-1.3-1.1-4.4-2.05l.55-.9q1.75-3.2 6.05-6.2-.35 2.2-.05 4.15.15 1.25.85 2.45t1.65 1.8z"/><path fill="#d06306" d="M191.85 44.35q-2.35-7.55-3.15-11.85 4.75 2.1 11.1 5.35.45 7.15 2.45 12.6 2.3 6.2 6 7.9 2.3.2 4.95.95.2 3.3 1.05 6.9.85 3.65 1.75 4.8 2.2 2.9 7.6 4.45 2.3.7 8.7 1.65l-1.2 1.1-.1 2.65.1 2.45q-2.7.9-7.5 3.9-4.6 2.9-7 5.05-1.55 8.35-.8 17.55.8 10.05 4.25 19.2l-8.8 20.75q-7.2 16.75-8.75 19.5-.25-2.65-.55-36.85-.25-33.8-1-39.7-28.9-26.35-31.45-29l13.6-1.2 14.6-.95q-4-11.35-5.85-17.2"/><path fill="#3e4e57" d="m151.5 339.3-1.3 4.9q-2.2-.6-4.8-2.5-2.5-1.85-3.5-3.5-.2-4.4 1.05-12.45 1.2-7.8 2.1-9.05 2.6-4.45 11.75-6.3 8.35-1.7 19.4-.75 10.95.9 19.7 4 9.4 3.3 12.6 8l-2.15 18.25q-1.25 2.55-3.65 4.05-2.45 1.55-5.5 1.6l.15-2.15q-4.35-4.45-22.75-6.05-18.45-1.65-23.1 1.95m77.25-23.35q1.65 12.35-5.25 18.7-6.45 5.9-16.85 3.9 1.6-9.35 1.85-14.8 5.2 2.85 11.5-.2 5.3-2.55 8.75-7.6"/><path fill="#a3611c" d="M206.45 288.95q2.95 1.25 10.35 1.7 7 .45 12.7-.05 4.35 5.35 7.4 7.7-2.8 11.5-10.05 19.6-8.85 9.9-18.35 5.85v-2.1q-2.3-3.4-7.3-6.1 1.15-6.3 3.05-15.6z"/><path fill="#93aec1" d="M322.85 425.35q-3.25 2.9-8.55 3.35-5.15.4-10.25-1.65-2.45 3.15-8.6 3.55-7.8.5-19.3-3.9-5.1-1.9-9.4-9.35-4.55-7.8-5.2-16.9 8.4-3.6 11.1-5.35l-2.15 7.8q4.1-1.5 12.1-4.8 10.1-4.2 12.1-5.6 2.45 2.9 5.9 5.2 3.65 2.45 6.75 3.05l-.2-1.55q6.4-1.35 10.9.75 6.45 3 8.2 13 1.4 8.1-3.4 12.4m-112.2-48.6q.75 1.6 3.7 3.8 2.85 2.15 5.6 3.2l1.35-7.85q3.1 3 9.1 5.4l1.8 2.6q5.9 2.5 6.1 10.55.15 6.8-6.05 8.6-4.75 1.35-9.75-.4-3.45 1.9-9.05 1.8-5.35-.15-6.2-1.85 3.05-3 2.35-8.35-.6-4.75-3.55-8.6.45-1 2.25-4.2z"/><path fill="#a3611c" d="M204.05 342.8q2.2-2.1 2.6-4.25 7.3 1.45 12.65-.8 1.2 4.2 4.15 22.05 3.65 17 9.5 22.35-1-.25-5.3-2.45-5-2.45-6.35-3.8l-1.35 7.85q-2.75-1.05-5.6-3.2-2.95-2.2-3.7-3.8-1.2 3.25-4.75 9.3-2.5-2.35-4.95-6.75-3.15-5.65-3.7-10.8-1.05-9.9-.05-22.95 4-.05 6.85-2.75"/><path fill="#93aec1" d="m203.35 392.35 5.8.75q.9 4.9-.4 7.75-1.45 3.1-5.45 3.4-1.9-2.6-3.65-6.55-1.7-3.7-2.8-7.45 2.2 1.25 6.5 2.1m102.5-3.1q2.7 2.85 8.4 5.9 4.95 2.65 8.5 3.65l-1.5-5.4q7.1 0 11.55 3.2 5.4 3.9 6.35 12.35.9 7.9-5.5 13.1-5.75 4.7-10.8 3.35 4.8-4.3 3.4-12.45-1.75-10-8.2-13-4.45-2.1-10.85-.75zm27.5-232.65q13.85-.8 18.7-.5 1.15.05 1.5 1 .3.85-.5 1.45-6.5 4.65-42.1 19.2-.95-5.2-3.1-13.85l7.2-6.1z"/><path fill="#93aec1" d="M343.1 128.3q1.2-.1 2 1.25t0 2.15l-37.25 32.2-3.1-12.1q-1.75-6.95-2.75-12.1 4.35-1.6 17.85-5.4 13.25-3.8 20.05-5.4z"/><path fill="#93aec1" d="M365.5 105.7q.6 1 .1 1.55l-11.05 9.55-14.65 12.1q-6.8 1.6-20.05 5.4-13.5 3.8-17.85 5.4l-.3-1.65 11.45-15.4 29-10.4q20.6-7.25 21.75-7.45 1-.15 1.6.9"/><path fill="#a3611c" d="m157.8 391.75-11.1 4.05q-10.35 3.65-13.35 4l7-9.25q-4.15 1.45-9.45 1.95-5.55.55-10.4-.2 2.45-1.35 6.65-5.1 4.1-3.6 5.9-5.85 6.45-8.15 12.5-23.8 3.9-10.1 5.95-18.25 4.65-3.6 23.1-1.95 18.4 1.6 22.75 6.05l-.35 10.15q-.2 10.45.25 14.95.45 4.35 4.1 11.4 2.55 5 7.8 13.2l-5.8-.75q-4.3-.85-6.5-2.1.9 3.1 4.3 9.5 3.05 5.7 3.65 6.3-5.4.1-10.2-2.6-5.2-2.9-7.3-7.95-.25 1.15-.1 3.95l.25 4.35q-1.25-.6-6.75-4.6-5.65-4.15-6.65-5.25-11.45 7.05-19.4 7.45zm146.15-152.3q2.95-7.95 3.9-17.3 4.4 18.7-1.75 48.65l-4.85 23.3q-2.35 13.05-2.05 22.4-8.7-1.8-21.3-1.35-12.85.45-21.5 3 .8-5.2-1.8-17.2-3.55-16.35-3.8-18.4l2.3-4.15 6.45 10.15q4.25 6.95 4.85 6.95 2.25 0 8.65-12.8 6.15-12.45 7.6-19.05 5.5-6.9 7.2-15.75.2 1.95-.7 6.55-.95 4.5-2.45 9 3.45-3.4 6.45-8.75 4-7.15 4.3-13.45 1.35 4.2 1.35 10.7 4.2-4.5 7.15-12.5m31.35 152.1q-2.25.4-7.3.05l-7.45-.95 2.2 8.15q-3.55-1-8.5-3.65-5.7-3.05-8.4-5.9l1.55 11.55q-3.1-.6-6.75-3.05-3.5-2.35-5.9-5.2-2.05 1.35-12.1 5.55l-12.1 4.85 2.1-7.85q-1.4.9-10.45 4.8-9.05 3.95-10.3 4.15 2.35-3.85 4.25-10.2l-11.3 3.95 4.45-7.4 5.15-8.95.45-14q.5-14.05 1.4-20.05l.15.05q4.55-2.9 24.65-3.4 19.55-.45 22.9 1.55 2.75 4.35 9.95 18.4 6.7 13.05 6.95 13.3l5.6 6.05q5.6 5.9 8.8 8.2"/><path fill="#93aec1" d="m245.75 238.55 3.45-5.25.1 3.7-.05 4.25q1.4-1.05 3.8-4.2l3.15-4.7q-4.25 18.15-9.35 26.4 1.55-.75 4.95-4.65 3.05-3.55 5.45-7.05-1.5 12.3-3.25 19.1 4.35-1.45 8.3-4.8 2.75-2.4 7.35-7.75.15 3.25-.4 9.4-.65 6.55-1.6 11 8.05-4.25 13-10.35-1.45 6.6-7.6 19.05-6.4 12.8-8.65 12.8-.6 0-4.85-6.95l-6.45-10.15-6.4 10.9q-6.15 10-7.75 10.05-3.05.1-9.3-7.9-5.45-6.95-8.9-13.85-9.15 9.65-13.25 10.75-2.9-1.55-8.2-14.2-5.1-12.1-6.25-18.9 6-9.05 7.05-24.2.25-17.4 1.25-25.95.25 9.45 3.4 20.7 2.9 10.5 5.9 14.6.95-4 3.2-9.2 2.1-4.8 3.8-7.2.4 4.75 3 12.75 2.6 8.05 4.4 10.1 1.15-2.05 2.2-7.4.35 1.9 1.5 4.6 1.1 2.6 2.45 4.7 1.25-4.65 4.55-11.7 3.2-6.85 4.75-8.4.45 3.15 0 16.7 2.15-2.3 5.25-6.8"/><path fill="#a3611c" d="m289.75 93 16.5-13q2.55 15.1.35 19.2-1.2-3.25-2.8-6.4-1.55-3.1-2.5-4.05.15 1.95-.65 17.6-.75 15.9-.5 20.25.4 6.75 3.65 19.95l5.85 23.65q6.8 29.9.25 40.9-1.4-4.3-3.6-8.8 3.55 12.8.65 26.95-2.8 13.35-10.35 23.9.45-4.3.2-6.9-.3-2.85-1.5-5.15-.5 6.35-4.3 13.5-3.05 5.65-6.3 8.85 1.5-4.5 2.45-9 .9-4.6.7-6.55-1.75 8.85-7.25 15.65-5 6.25-12.95 10.45.95-4.45 1.6-11 .55-6.15.4-9.4-4.6 5.35-7.35 7.75-3.95 3.35-8.3 4.8 1.75-6.8 3.25-19.1-2.4 3.5-5.45 7.05-3.4 3.9-4.95 4.65 7.55-12.35 13.35-50.6 1.95-12.75 4.75-35.5l4.6-37.15 6.8 12.85 8.15 15.8q1.15-6.05 3.2-34.35 2.05-28 2.05-36.8"/><path fill="#dce5dd" d="M70.15 187.95q-.75-9.25 8.2-15.9 8.55 4.5 25.55 11.75 13.9 5.95 22.5 9.2-12.35 18.85-15.3 38.5-1 6.5-1.5 17.05l-1 17.5q-5.05 4.45-12.7 4.1-8.5-.35-13.35-6.95-4.25 3.7-11.5 5.05-6.9 1.25-14.25.05-7.55-1.2-12.75-4.6-5.7-3.7-7.05-9.05-.75-3.05 1.6-6.6l4.8-5.9q2.8-3.35 2.85-5.45.05-2.9-4.4-5.4-2.15 3.55-6.25 4.75-3.85 1.2-9.1.1-4.4-.9-4.75-3.55l.6-5.85q.2-2.85-4.75-4.45-3.45-1.1-7.35-1.25-5.55-.15-7.6-1.65-1.35-1-1.85-3.55-.3-1.45.2-2.05.6-.65 2 .15 3.95 2.25 8.25 2 1.5-.1 8.2-3.05 5.2-2.3 10.05-.8 3.25 1 3.6 2.9.25 1.2-.9 3.5-1.2 2.4-1.15 3.15 0 1.45 2.7 1.85 3.45.45 4.55-1.05l1.2-3.65q1.75-5.5 13.45-4.55 9.05.75 10.6 7.8 1.3 6-3.05 14.95-1.5 3.1.55 5.3 1.95 2.05 5.15 1.55 3.3-.5 5.4-3 2.4-2.85.7-6.1-4.6-8.9-3.4-16.35 1.45-8.7 10.85-14.45-8.9-7.15-9.6-16"/><path fill="#93aec1" d="M49.35 114.35q-.65-.8.25-2.4.95-1.6 2.05-1.3 4.35 1.3 40.95 18.65 35 16.6 38.2 18.45-2.8-8.05-8.2-21.8l-4.95-12.45q-.25-1.1 1.05-2.1 1.2-.9 2.35-.95l.7.2 18.35 20.05q18.2 20.05 20.3 22.75-7.7 10.85-13.1 17.45-6.8 8.35-11.5 11.85 3.2.2 8.05-1.1 5-1.3 8.55-3.4-3.85 4-6.5 8.15l-4.25 6.4-7.05 1-5.55.15q-6.4-1.8-28-11.1-24.05-10.4-29-14.65-.8-.65-.35-1.9.45-1.3 1.35-1.2l19.15 1.95 19.85 2.2q-56.1-46.55-62.7-54.9"/><path fill="#a3611c" d="M126.4 193q2.2.8 6.2.8l9.05-1q-2.65 3.35-7.4 5.6 7.55.35 12.75-2.8-3.35 4.25-8.05 7.25-3.3 2.15-6.6 3.3 3.85 1.2 11.35-1.2 7.95-2.55 14.05-7.45-1.8 4.4-10.4 19.9-7.85 15.8-8.55 27l4.5-3.55 6.25-5q-3.55 15.25-.8 30.7.85 4.5 3 12.95 2.25 8.65 3.1 13.15-2.9 9.15-7.1 16.05-5.4 8.75-12.45 12.65-5.8 5.8-12.65 7.35-6.45 1.4-12.15-1.3-5.7-2.75-8.75-8.9-3.25-6.55-2.5-15.35 6.25-14 8.4-30.4.8-6.1 1.9-27.6.85-16.25 3.55-26.15 3.85-14.05 13.3-26"/><path fill="#93aec1" d="M196.05 404.05q1.75 4.8 1.8 11.4.05 7.65-2.5 12.8-1.55 3.1-5.85 4.65-4.05 1.45-8.8 1-4.9-.5-8.2-2.7-3.65-2.5-4-6.45-1.1-12.95 1.45-18.2 2.9-6.1 12.05-6.05l5.45 3.3-.25-4.35q-.15-2.8.1-3.95 2.35 5.55 8.75 8.55"/><path fill="#dce5dd" d="m142.95 113.7.55 20.35-10.4-11.4q.8-2.85 3.7-5.2 2.15-1.8 6.15-3.75"/><path fill="#93aec1" d="M74.2 67.95q-.55-1 .9-1.95 1.5-.95 2.45-.15L95.7 84.8q18.8 19.6 25.35 25.65-1.15.05-2.35.95-1.3 1-1.05 2.1l4.95 12.45q5.4 13.75 8.2 21.8-4.05-2.3-15.75-8.1l-22.35-37.6Q74.95 71.7 74.2 67.95"/><path fill="#3e4e57" d="M89.05 294.5q6.25-6.3 16.05-8.3-2.2 8.15-5.85 16.95-.75 8.75 2.85 15.3 3.3 6.05 9.45 8.7 6.1 2.65 12.75 1 7.15-1.7 12.75-7.8.85 7-2.9 13.4-3.65 6.3-10.25 9.7-7.05 3.55-15 2.55-8.85-1.15-16.95-7.95-6.6-5.55-9.35-13.7-2.65-7.85-1-15.85 1.7-8.2 7.45-14"/><path fill="#dce5dd" d="m104.5 163.2 7.55 6.05-23.15-2.6q6.85-2.35 15.6-3.45"/><path fill="#a3611c" d="m57.7 388.9 3.5-5.65 4.1-7.25-9.5.15 8.5-8.2q3.95-4.45 5.55-9.05l5.25-19.7q4.05-15.5 6.15-17.9 2.1 9.5 10.7 16.75t18.5 7.95q9.05.6 16.3-4.25-2.2 8.7-.65 20.7 1.65 13.2 6.95 18.9l-5.35 5.75-4.8-4.15q-2.6-2.5-3.35-3.85-2.5 3.1-5.4 5.9-2.8-3.3-4.85-7.4-.2 1-1.8 3.8l-2.85 5-4.75-3.5-5-4.65q-1.2 1.25-6.2 4.75-4.85 3.35-5.25 3.35l-.9-6.2z"/><path fill="#93aec1" d="M182 400.5q-12.45-.1-14.05 13.1-.55 4.55.35 9.7.7 4.2 1.55 5.6-1.2 4.2-10.6 4.7-9.5.45-15.4-3.8-1.75-1.25-3.15-6-1.55-5.25-1.15-10.4 1.15-14.2 16.15-14.8l-1.05 2.8q7.95-.4 19.4-7.45 2.45 2.75 7.95 6.55m-73.1-9.8q.9-4.6 7.2-5.7 6.4-1.05 10.65 2.95-3.15 2.65-6.25 4.35 3.65.55 9.1.2.55 1.55.8 3.7-3.4 2.3-5.65 5.9-2.15 3.55-3 7.85l-6.8.35q-4.45-.7-6.05-2.2 3.05-3.45 3-8.25-.05-4.75-3-9.15"/><path fill="#93aec1" d="m147.15 395.4 11.55-4.45-1.55 4.15-1.45 3.5q-14.15.55-16.1 14.9-.75 5.35.65 10.4 1.35 4.85 3.6 5.9-7.3 3.1-14.6-.85-7.65-4.1-8-12.65-.25-6.85 2.75-12.85 4.4-8.85 14.45-10.3l-5.1 6.65q3-.35 13.8-4.4m-64.6-15.25.6 5.65q2.95.3 5.9 3 3.5 3.2 4.05 7.65.85 7-3.5 11.8-4.95 5.5-13.2 2.45-5.75-2.1-8-8.9-2.3-6.95-.2-16.5z"/><path fill="#93aec1" d="m94.9 378.25 5 4.65 4.75 3.5 2.85-5q1.6-2.8 1.8-3.8 2.05 4.1 4.85 7.4 2.9-2.8 5.4-5.9 1.7 3 5.9 6.35-8.1-.7-11.35.05-4.35 1.05-5.2 5.2 2.6 3.85 2.7 8.9.15 5.3-2.7 8.5-3.4 3.9-10.65 3.25-6-.55-8.4-2.6 4.15-4.3 3.25-12.3-.55-4.55-3-7.4-2.35-2.65-5.75-3.15l5.75-3.8z"/><path fill="#fcd13e" d="M290.4 30.95q.6 5-1.2 14.95-2.15 11.95-6 13.25-12.65 4.25-18.55 7.6-6 3.45-9.75 8.65-2.65 3.6-8.8 5.95-1.05 0-5.85-3.35l-4.7-3.45q-4-5.25-11.35-10-8.55-5.55-15.95-6.2-6.4-2.95-8.1-15.85-1.45-10.8.6-17.05.85 1.8 5.5 8.45 4.6 6.5 5.5 7.4l6.35.8q7.25.6 12.75 2.4 1.65-7.85 5.75-19 4.25-11.7 7.25-15.9 2.8 4.6 7.2 16.45Q254.9 36.4 257.4 45l12.95-2.25 9.35-2.05q.8-.2 5.65-4.75z"/><path fill="#3e4e57" d="M308.05 321.15q.9 2.55 1.3 8.9.35 5.8.15 11.3-.35 1.4-2.15 2.85-1.7 1.3-3.1 1.6-1.1-1.35-21-1.65-21.25-.3-26.8 3.3-6.55-1.45-7.95-2.6-1-.75-1.55-9.7-.55-8.7 0-10.75 1.15-3.7 10.25-6.4 8.3-2.45 19.75-3.15l20.05.8q9.4 1.7 11.05 5.5"/><path fill="#804a0c" d="M220.75 277.6q3.25 6.3 8.75 13-5.9.55-12.8-.05-7.5-.7-9.2-2.2 4.1-1.1 13.25-10.75m-8.85-129.65q7.05-15.4 9.2-15.6-1.15 6.4-1.95 11.75-.65 3.65-2.6 10.6l-7.05 8.85q-4.15 4.8-6.9 4.9z"/><path fill="#c1bd9a" d="M220.9 130.9q2.3 5.15 5.45 10.05 3.55 5.6 7.2 9.25-.75-5.5-1.6-13.95-.9-9.35-1.35-16.8l3.4 4.1 2.95 2.85q1.75 1.3 9.3 1.75 7.45.45 8.8-.6 2.2-1.7 5.35-5.3-.95 12.25-4.15 27.3 9.1-9.45 13.15-16.2l-.75 6q-.15 1.85-.15 4.85-2.25 2.55-7.4 6-5.35 3.55-7.3 3.6-1.15-1.45-.15-8.55 1.3-9.3 1.2-11.9l-8.8.55q-6.95-.3-9.1-2.2-1 2.8.05 11.65 1.2 9.9.95 12.1-1.65.4-6.45-3.55l-7.4-6.7q-1.65 11.25-10.05 33.45-7.65 20.15-12.65 28.8.1-6.55 10.35-38.55 9.9-30.85 9.15-38"/><path fill="#c1bd9a" d="M236.95 126.4q-1.95-1.4-5.2-5.45 10 2.5 16.4 1.8 8.75-1 12.6-8.05l-.35 7.55q-3.15 3.6-5.35 5.3-1.35 1.05-8.8.6-7.55-.45-9.3-1.75"/><path fill="#748999" d="M224.8 138.85q2.15-.25 4-4.4 1.95-4.45 2.3-10.9.35 6.05 1.25 15.65l1.2 11q-4.9-4.9-8.75-11.35M277.15 107q-1.9 15.95-8.05 26.65-3.7 6.4-12.85 15.9.75-3.35 1.95-15.8 5.3-2.2 10.9-10.65 4.75-7.2 8.05-16.1m-37.7-4.7q-5.85 3.9-9.05 6.7.15-3.15.65-4 1.65-1.65 7.25-5.55 6-4.15 8.15-4.9 1.95.8 7.2 5.5 5.35 4.8 6.95 7.25l.1 2.45q-2.5-2.75-6.55-6.2-4.65-3.9-7.55-5.45-1.3.2-7.15 4.2"/><path fill="#27333a" d="M228.75 315.95q1.65 12.35-5.25 18.7-6.45 5.9-16.85 3.9 1.6-9.35 1.85-14.8 5.2 2.85 11.5-.2 5.3-2.55 8.75-7.6"/><path fill="#804a0c" d="M206.45 288.95q2.95 1.25 10.35 1.7 7 .45 12.7-.05 4.35 5.35 7.4 7.7-2.8 11.5-10.05 19.6-8.85 9.9-18.35 5.85v-2.1q-2.3-3.4-7.3-6.1 1.15-6.3 3.05-15.6z"/><path fill="#93aec1" d="M210.65 376.75q.75 1.6 3.7 3.8 2.85 2.15 5.6 3.2l1.35-7.85q3.1 3 9.1 5.4l1.8 2.6q5.9 2.5 6.1 10.55.15 6.8-6.05 8.6-4.75 1.35-9.75-.4-3.45 1.9-9.05 1.8-5.35-.15-6.2-1.85 3.05-3 2.35-8.35-.6-4.75-3.55-8.6.45-1 2.25-4.2z"/><path fill="#748999" d="M225.65 396.3q1.15 1.1 5 1 3.95-.1 7.6-1.4-.55 5.8-6.5 7.25-4.65 1.1-9.25-.5-3.45 1.9-9.05 1.8-5.35-.15-6.2-1.85 1.65-1.6 2.25-4.25 1.55 1.65 7.5.95 6-.75 8.65-3"/><path fill="#804a0c" d="M204.05 342.8q2.2-2.1 2.6-4.25 7.3 1.45 12.65-.8.7 2.5 2.05 10.65-15.2 6.65-24.35 17.3-.65-9.3.2-20.15 4-.05 6.85-2.75"/><path fill="#93aec1" d="m203.35 392.35 5.8.75q.9 4.9-.4 7.75-1.45 3.1-5.45 3.4-1.9-2.6-3.65-6.55-1.7-3.7-2.8-7.45 2.2 1.25 6.5 2.1"/><path fill="#748999" d="m209.4 398.25.05.05q-.75 5.55-6.15 5.95-1.7-2.35-3.25-5.7zm117.15 18.7q3.4.5 6.75-1.6 3.55-2.15 5.85-6.4 1.6 7.75-4.35 13.1-5.65 5.05-11.95 3.35 3.55-3.25 3.7-8.45"/><path fill="#804a0c" d="M146.45 355.15q3.45-9.4 5.05-15.85 4.65-3.6 23.1-1.95 18.4 1.6 22.75 6.05-.3 2.9-.4 13.35-12.5-7.05-25.35-7.8-14-.85-25.15 6.2m135.2 1.65q-16.1 6.1-26.95 17.4.5-19.5 1.6-26.8l.15.05q4.55-2.9 24.65-3.4 19.55-.45 22.9 1.55l4.15 7.3q-11.25-1.9-26.5 3.9"/><path fill="#748999" d="M142.5 92.15q0-1 1.6-1.65 1.6-.7 2.3.5l9.6 24.75 10.75 28.65-6.35 9.05q-3.9-5-16.9-19.4z"/><path fill="#93aec1" d="m166.75 144.4-3.8 5.45L143.4 90.9q.75-.6 1.6-.6.95-.05 1.4.7l9.6 24.75z"/><path fill="#748999" d="m196.4 248.9 5.35 20.05q3.9 11.4 10.55 16.6-2.9 2.35-4.8 2.8-2.9-1.55-8.2-14.2-5.1-12.1-6.25-18.9 2-3 3.35-6.35M49.35 114.35l-1.2-1.35q-.45-.55.5-.25 6.6 2 84.3 42.2l-9.55-26.2q-5.95-16.4-5.7-16.8 1.95-.2 18.8 21.8l18.85 25.1q-4.6 5.95-10.65 14.5-4.75 6.25-8.9 9.4 3.2.2 8.05-1.1 5-1.3 8.55-3.4-3.85 4-6.5 8.15l-4.25 6.4-7.05 1-5.55.15q-6.3-1.75-31.15-12.85-26.6-11.9-26.5-14.1l24.65 4.7q21.85 4.15 23.6 3.25l-29.9-24.15q-32.25-25.9-40.4-36.45"/><path fill="#804a0c" d="m152.45 282.2 2.4 10.45q-2.9 9.15-7.1 16.05-5.4 8.75-12.45 12.65-5.8 5.8-12.65 7.35-6.45 1.4-12.15-1.3-5.7-2.75-8.75-8.9-3.25-6.55-2.5-15.35 2.6-5.8 4.35-11.6 4.6 3.95 11.5 5.6l14 .45q16.45-2.45 23.35-15.4"/><path fill="#748999" d="M180.7 433.9q-4.9-.5-8.2-2.7-3.65-2.5-4-6.45l-.35-2.2-.3-1.95q7.25 3.6 16 1.15 9.25-2.55 13.75-10.45 1.1 10.15-2.25 16.95-1.55 3.1-5.85 4.65-4.05 1.45-8.8 1m-58.1-307.95q5.4 13.75 8.2 21.8-4.05-2.3-15.75-8.1l-22.35-37.6Q74.95 71.7 74.2 67.95q.2-1.25 20.7 21.8 21.05 23.75 22.75 23.75z"/><path fill="#27333a" d="M137.05 320.35q.85 7-2.9 13.4-3.65 6.3-10.25 9.7-7.05 3.55-15 2.55-8.85-1.15-16.95-7.95-5.6-4.75-8.45-11.45-2.75-6.5-2.45-13.45 3.9 9.15 12.1 12.8 8.05 3.65 17.45.75 6.2 3.05 13.2 1.55 7.4-1.6 13.25-7.9"/><path fill="#804a0c" d="M81.25 321.3q2.1 9.5 10.7 16.75t18.5 7.95q9.05.6 16.3-4.25-1.75 6.95-1.05 16.65-12.4 3.45-27.95-2.9-15.4-6.3-22.7-17.65 3.4-13.3 6.2-16.55"/><path fill="#748999" d="M169.95 407q-2.65 4.95-2.05 12.9.5 6.6 1.95 9-1.2 4.2-10.6 4.7-9.5.45-15.4-3.8-1.55-1.15-2.7-3.2-1.5-2.75-1.85-6.6 5.9 4.15 15.3.55 9.8-3.7 15.35-13.55m-43.9-14.35 3.55-.15q.55 1.55.8 3.7-3.4 2.3-5.65 5.9-2.15 3.55-3 7.85l-6.8.35q-4.45-.7-6.05-2.2 3.45-3.9 2.95-9.4 8.6-.15 14.2-6.05"/><path fill="#748999" d="M143.85 429.8q-6.55 2.75-13.45-.3-7.15-3.2-8.75-10.35 5.3 1.65 10.35-.15 5.5-1.95 7.9-7.3-1.2 5.7.2 11.45 1.3 5.5 3.75 6.65M93.1 396.45q.85 7-3.5 11.8-4.95 5.5-13.2 2.45-5.65-2.05-7.9-8.7 6.8.4 13.05-1.9 6.45-2.4 10.6-7.05.75 1.75.95 3.4"/><path fill="#748999" d="M93.05 401.65q5.8.1 10.15-1.45 5-1.7 7.6-5.4 1.1 3.65.7 7.15-.45 3.75-2.6 6.15-3.4 3.9-10.65 3.25-6-.55-8.4-2.6 2.6-2.7 3.2-7.1"/><path fill="#d9b536" d="M207.2 57.75q14.45-.45 25.1 8.1 7.85 6.3 10.85 14.35l-4.75-3.5-2.85-2.15q-4-5.25-11.35-10-8.55-5.55-15.95-6.2-.7-.3-1.05-.6m44.15 20.9q3.8-10.55 13.85-16.2 9.2-5.15 19-3.9l-1 .6q-12.65 4.25-18.55 7.6-6 3.45-9.75 8.65-1.15 1.6-3.55 3.25"/><path fill="#af5200" d="m259.3 82.75.2-2.85q10.75-3.05 27.7-6.6 22.3-4.75 32.25-5-2.55 2.5-15.05 12.85-11.65 9.6-14.65 11.85v.05l-7.6-.45-8.1-.4q-2.25-1.85-8.1-5.3zM169.5 63.7l.05-.05q22.05 5.1 61.45 16.9l.1 2.75q-2.7.9-7.5 3.9-4.6 2.9-7 5.05l-15.6.9-.05-.45q-28.9-26.35-31.45-29"/><path fill="#27333a" d="m151.5 339.3-1.3 4.9q-2.2-.6-4.8-2.5-2.5-1.85-3.5-3.5v-.65q8.85-7.35 32.1-6.05 22.95 1.25 31.95 9.15-1.4 2.25-3.6 3.5-2.35 1.35-5.15 1.4l.15-2.15q-4.35-4.45-22.75-6.05-18.45-1.65-23.1 1.95m157.9 2.3q-.45 1.35-2.2 2.7-1.6 1.2-2.95 1.5-2.6-2.05-21.7-2.1-20.3 0-26.1 3.75-6.55-1.45-7.95-2.6l-.05-.05q7.45-5.9 29.2-7.05 21.8-1.2 31.75 3.85"/><path fill="#748999" d="M223.85 274.35q3.6 6.2 8.25 12.7 5.9 8.2 9.1 10.35-1.5 1.85-2.25 1.95-3 .1-9.15-7.65-5.25-6.7-8.85-13.7zm27.65-32.4q-.9 1.65-2.45 3.2-1.6 1.55-1.95 1-.65-.9-.65-5.35-1.1 2-3.8 5.7-3.25 4.55-3.95 4.15-.6-.35-.35-4.95l.15-6.65q-.35.4-3.2 7.8l-2.95 7.25q-.35 0-1.95-2.25-1.65-2.35-2.45-4.2l-.5 3.8q-.35 1.95-1.1 2.25-.95.35-4.65-8.05-3.85-8.65-4.2-13-1.05 1.55-2.35 8.85-1.2 6.7-1.75 6.85-1.3.35-6.3-6.8-5.65-8-6.75-14.85l.3-10.55q.2-6.15.75-10.5.2 9.4 3.35 20.7 2.9 10.45 5.9 14.6.95-4.05 3.25-9.25 2.1-4.85 3.8-7.15.4 4.8 2.95 12.75 2.6 8.05 4.45 10.1 1.2-2.3 2.15-7.4.3 1.6 1.5 4.25 1.15 2.55 2.4 4.5 2.1-5.5 5.1-11.8 3.15-6.65 4.3-7.75.4 3.1 0 16.7 2.1-2.3 5.25-6.85l3.4-5.2.1 3.65-.05 4.3q1.45-1.1 3.8-4.25l3.15-4.65q-2.1 9-3.8 13.95-1.95 5.95-4.55 10.2 1.7-.85 4.45-3.55 2.85-2.85 5-5.95-1.45 11.95-3.3 19.1 4.35-1.45 8.3-4.8 2.85-2.45 7.35-7.7.15 3.2-.4 9.35-.65 6.55-1.6 11 8.1-4.25 13.05-10.35-1.05 4.75-7.75 10.2-6.15 4.95-7.15 4.15-.4-.4.75-7.7 1.25-8.2 1.15-10.2-3.1 3.85-9.85 6.75-5.8 2.45-6.8 1.95-.3-.2 1.25-5.1 1.9-5.95 2.2-8.85-1.85 2.95-6.05 5.5-3.95 2.35-4.7 1.65-.4-.4 2.4-6.65 3.75-8.3 5.35-13.9"/><path fill="#804a0c" d="M303.95 239.45q2.95-7.95 3.9-17.3 1 4.4 1.8 14.95.75 9.5.7 14.85-.85.55-6.55 8.7l-12.95 17.85q-20.25 26.45-34.5 33.05-.85-3.3-3.25-16.15l-2.3-12.85 2.3-4.15 6.45 10.15q4.25 6.95 4.85 6.95 2.25 0 8.65-12.8 6.15-12.45 7.6-19.05 5.5-6.9 7.2-15.75.2 1.95-.7 6.55-.95 4.5-2.45 9 3.45-3.4 6.45-8.75 4-7.15 4.3-13.45 1.35 4.2 1.35 10.7 4.2-4.5 7.15-12.5"/><path fill="#748999" d="m252.5 279.05 1.6-2.7 1.05-1.25q3.05 3.4 6.5 10.8 3.5 7.6 2.7 9.5L256.9 285z"/><path fill="#804a0c" d="M147.75 243.25q.45-4 1.8-7.4 6.1-5.1 7.75-8.15-1.05 3.7-1.9 14.3-.7 9.2-2.95 13.95 6.9-.25 12.8-3.65 6.05-3.5 9.1-9.2.15 4.2-.6 9.85-.7 4.8-1.8 9 2.9-1.3 8.35-5.8 6.1-5.05 8.5-8.7.8 2 1.2 5.35.4 3.4.15 6.3l2.9-3.85.5 1.85.7 2.2q-.45 2.55-1.55 4.15-1 1.5-2.25 1.8-.8.2-2.95-2.05-2.25-2.25-2.95-2.2l-4.7 2.1q-4.65 2.1-8.3 2.1-2.4 0-5.4-3.75-2.7-3.4-5-2.7-9.5 3-12.95 5.1-.95.6-1-7.45-.05-7.5.55-13.15"/><path fill="#b9c1bb" d="M82.35 253.75q4.5 6 12.95 5.1 8.45-.85 14.2-7.95l-.9 15.15q-5.05 4.45-12.7 4.1-8.5-.35-13.35-6.95-4.25 3.7-11.5 5.05-6.9 1.25-14.25.05-7.55-1.2-12.75-4.6-5.7-3.7-7.05-9.05-.45-2 .25-3.9 7.7 8.75 21.4 9.95 14.1 1.2 23.7-6.95"/><path fill="#748999" d="M345.8 73.25q1-.1 1.6.9.5.9.25 1.5l-45.95 62.4q-.75-4.1-1.15-7.6zm-2.3 55.1q1.1.2 1.7 1.4.65 1.2-.1 1.95l-37.25 32.2-1.1-4.35zm22-22.65q.6 1 .1 1.55l-11.05 9.55-14.65 12.1-14.75 3.9 37.95-27.75.8-.25q1-.15 1.6.9m-13.45 50.4q1.15.05 1.5 1 .3.85-.5 1.45-6.5 4.65-42.1 19.2l-1.45-7 42.1-14.65z"/><path fill="#804a0c" d="m289.75 93 16.5-13q2.55 15.1.35 19.2-1.15-3.15-2.75-6.15-1.5-2.8-2.5-3.8l.1 3.3-.4 8.75q-1.15 13.95-4.8 32.5-3.55 18-7.4 30.15-1.7 5.4-3.35 5.75-1.75.3-4.85-4.35l-7.45-10.2q-3.65-5.15-5.2-8.2l2.05-12.1 14.45 29.3q1.15-6.05 3.2-34.35 2.05-28 2.05-36.8"/><path fill="#d9b536" d="M283.5 49.3q4.15-8.2 6.8-17.8.9 4.55-1.05 12.85-1.95 8.2-5.2 14.1l-5.55 2.05-4.8 1.5q4.85-2.9 9.8-12.7"/><path fill="#748999" d="M322.85 425.35q-3.25 2.9-8.55 3.35-5.15.4-10.25-1.65-2.45 3.15-8.6 3.55-7.8.5-19.3-3.9-2.8-1.05-5.6-4.1t-4.95-7.4q8.35 7.05 23.4 7.05 6.4-.05 11.25-1.6 5.05-1.65 6.6-4.45.5 1.55.35 2.6l-.55 1.8q14.5 2.75 18.5-11.9 3.85 11.15-2.3 16.65"/><path fill="#0d131a" d="M222.5 69.35q0-1.05.7-1.9.6-.75 1.2-.75.65 0 1.2.65.55.8.55 2 0 1.1-.5 1.9t-1.25.8q-.8 0-1.35-.75-.55-.8-.55-1.95"/><path fill="#fff" d="M219.95 66.2q.2-.95.85-1.4.65-.4 1.45-.25.85.15 1.25.85.35.7.15 1.75-.2 1-.9 1.5l-1.5.15q-.75-.25-1.1-.9-.4-.75-.2-1.7"/><path fill="#0d131a" d="M264.2 70.75q0-1.1.6-1.95.55-.8 1.2-.8.85 0 1.4.8.5.75.5 1.85 0 1.15-.55 1.9t-1.35.75q-.75 0-1.25-.7-.55-.75-.55-1.85"/><path fill="#fff" d="M264.4 68.3q.6.35.75 1.05.15.75-.3 1.5-.55.95-1.4 1l-1.25-.35q-.45-.35-.6-1-.15-.75.3-1.45.35-.6 1.1-.85z"/><path fill="#0d131a" d="M188.2 35q-.6-2.7-.15-3.15.55-.55 3.05.65l9.35 4.65q.4.2-.1 1.1-.45.95-.85.75-6.8-3.5-9.4-4.7 1.85 8.05 7.45 23.9 1.05 2.9.7 3.6-.4.7-3.15.75l-23.4 1.9q2.25 2.35 17 15.65 13.2 11.95 13.25 12.5.45 3.75.95 36.6l.45 36 9.05-20.75 6.8-16.15q.2-.35 1 1.05t.7 1.75q-6.1 14.7-12.25 27.1-5.5 11.2-6.15 11.05-1.1-.25-1.8-34.55-.65-32.9-.2-40.75l-12.7-11.1Q174.55 71 169.85 65.5q-1.5-1.5-1.15-2.15.3-.55 2.45-.9l11.7-1.2 13.15-.6Q190.55 45.5 188.2 35"/><path fill="#0d131a" d="M177.9 66.2q-2.25-.45-1.7-.9.5-.45 2.8 0l16.1 4.15q14.7 3.95 16.65 4.7 2.4.9 2.9 1.55l-2.45.05zm121.6-33.9q1.95-1.05 2.3-.25.35.7-.6 3.4-6.65 19-8.85 27.3l14 1.3 12.6 2.4q1.95.4 1.9 1.15-.05.8-2.25 2.95-5.25 5.1-15.9 13.5l-11.8 9q.35 12.5-2.45 41.95-2.8 28.95-4.15 29.1-.55.05-7.15-13.3-6.3-12.65-7.75-16.25-.2-.45.25-1.65.45-1.25.6-.8.95 3.15 13.7 28.65 1.3-10.25 3.05-35.3 1.7-24.75 1.7-32.45 0-.7 12.25-10.55 13.95-11.15 16.7-13.85-4.05-1-12.6-2.25L292.4 64.8q-1.8-.15-2.1-.75t.3-2.65q2.15-7.75 8.55-26.35-3.9 2.2-8.35 5.55-.3.25-.4-1.25-.05-1.55.2-1.75 2.9-2.1 8.9-5.3"/><path fill="#0d131a" d="m270.35 77.75-3.3.55q-.1-.4 3-1.6 4.2-1.7 16.55-4.25 13.2-2.75 22.4-3.55l4.05.15q1.65.4-.65.6-8.4.75-24.1 4-12.45 2.55-17.95 4.1m17.85-32.7q.85-3.25 1.5-7.9.7-4.8.3-5l-4.4 4.5q-4.5 4.75-5.65 5.05l-12.15 2.25-10.8 1.7-5.75-16.7-4.5-11.5q-2.55-5.95-3.15-5.95-.45 0-3.4 7.05-2.9 6.95-4.7 12.25l-3.1 10.05-1.25 4.45-3.65-.55-7.45-1.3-9-1.4q-1.55-1.55-5.1-6.55l-3.2-5.2q-1.9-3.2-2.15-3.15-.25.1-.25 3.75.05 3.85.4 7.55.65 6.8 2.35 11.45 2.1 5.85 5.5 7.5 9.2.85 18.8 8.05 6.55 4.95 9.3 8.95.9 1.3 4.65 3.55 3.55 2.2 4.65 2.3 2.2-.8 4.25-2.05 3.05-1.95 4.3-4.2 3.5-6.35 15.3-11.45 9.3-4.05 12.8-4.05.9-.35 2.55-4.25 1.7-4.1 3-9.2m-3.9-9.35q2.15-2.15 4.05-3.85 2-1.8 2.3-1.75.85.2.9 4.7.05 5.25-1.5 10.95-1.45 5.35-3.3 9.45-1.95 4.15-3.2 4.55-6.1 1.75-12.25 4.4Q259.05 69.4 256 74.9q-1.5 2.7-5.35 4.95-3.2 1.85-4.65 1.85-1.15 0-5.35-2.4-4.35-2.5-5.45-4.1-4.95-7.1-13.8-11.6-6.9-3.55-13.2-4.35-2.55-.35-4.75-3.8-2-3.2-3.3-8.35-1.05-4.15-1.4-10.3-.4-6.3.3-9.25 1.05-4.5 3.65-.2 2.45 4.1 5.5 8.15 2.65 3.5 4.2 5l6.9 1.05q7.35 1.15 10.8 2.2 2.6-10.65 7.55-23.05 4.7-11.75 5.9-11.65 1.05.15 5.1 9.5 4.65 10.8 9.4 25.5l12.65-2.35 8.7-1.95q1.3-.35 4.9-4.05"/><path fill="#0d131a" d="M243.25 20.25q-.05-2.7.5-2.65.6.05.65 2.75l2 54.3q-.05 3-.45 2.55-.35-.5-.75-3.65-.25-1.55-1.95-53.3m9.65 53.2q3.45-7.3 13.25-12.15 9.35-4.65 16.85-3.75.85.1.75.8t-.95.6q-7.1-.9-16.55 4-9.85 5.1-13.15 12.1-.85 1.85-.95 1.05t.75-2.65M207.85 57.4q10.25-.35 18.05 3.65 7.5 3.85 13.65 12.3 1.05 1.45 1.25 2.6.15 1.15-.9-.3-6.65-8.7-12.5-12.5-7.2-4.65-16.15-4.3-1.5.1-3.2-.65-1.65-.7-.2-.8"/><path fill="#0d131a" d="M275.45 61.55q-.05-.35.8-.5t.9.2q.2 2.4-.45 5.4-.6 2.8-1.45 4.2-1.65 2.65-6.45 4.8-4.75 2.15-9.45 2.4-.35 0-.35-.75.05-.7.4-.75 4.45-.2 8.85-2.35 4.15-2 5.55-4.25.7-1.25 1.25-3.7.55-2.65.4-4.7m-63.15-2.1q0-.35 1-.35 1-.05 1.05.3.05 3.3.8 6.75.7 3.3 1.5 4.35 3.1 4.05 15.35 5.6.35.1 0 .85l-.65.65q-6.7-.85-10.35-2.3-3.65-1.4-5.45-3.8-1.2-1.55-2.2-5.2-1-3.7-1.05-6.85m27.25-41.6q.2.3-.3 1.3-.5.95-.7.6-2.4-4.95-9.25-6.6l-13.4-.4q3.65 2.05 7.25 5.2 3.85 3.3 5.45 6.05.5.8.45 1.1-.15.5-1.4.45-7.25-.4-12.45 1.7-5.25 2.1-9 6.9-.2.25-.7-.5-.5-.8-.3-1.15 5.7-8.6 21.75-8.55-2.3-2.85-6.6-6.35l-4.4-3.3-2.5-1.85q20.25-4.35 26.1 5.4m44 6.65q3.4 2.75 2.95 3.65l-1.95.2-3.1.3q3.95 2 6.1 5.05-1.65 1.3-1.9.75-.35-.9-2.35-2.45-2.1-1.7-4-2.5-1.5-.6-1.55-1.35 0-.7 1.75-1.05 2.25-.35 5.15.1-4.25-3.55-8.85-4.65t-8.7.5q-4.35 1.7-2.05-1.9 1.45-2.25 1.55-5.85.05-2.85-.7-5.55-.85 3.7-2.55 6.95-2 3.85-4.55 5.65-1.75 1.25-2.35.95t-.35-2.45q.55-5.15-.85-9.8-1.75-6-6.45-9.45 1 3.75.8 7.9-.15 4.6-1.8 7.7-.2.35-.7-.5-.45-.85-.3-1.2 1.85-3.85 1.6-10l-.5-5.45q.75-.4 3.65 2.3 3.35 3 4.55 6.45 1.15 3.25 1.6 6.9.3 3 .1 5.3 2.5-2.1 4.5-5.75.9-1.55 2.2-5 1-2.85 1.25-2.85 1.1-.1 1.95 5.4.85 5.85-.95 8.75 4.45-1.85 10.3-.65 3 .8 6.5 3.6m13.35 20.55q-.15-.25.3-1.05.4-.85.6-.45 1.2 2.55 5.85 5.8 3.9 2.7 7.1 4 2.1.95 2.05 1.65-.1.75-2.65 1.1l-10.45.4q2.2 3.05 4 7.45l-2.5-.2q-1.65-4.4-3.9-7.3-2.7-3.4 1.3-2.7l9.4.55q-3.25-1.75-6.15-4.1-3.45-2.7-4.95-5.15M301.05 88q.85-.55 2.2 1.65 1.55 2.45 3.25 6.8l-.15-5.45-.95-9.7 2.3-2.4q.9 9.55.4 15.6-.4 4.55-1.1 4.65-.35.05-2.15-2.7l-2.4-4.05q.25 3.6-.8 17.25-1.05 13.9-.9 17.1.3 6.65 2.55 15.75l4.15 15.65q5.35 20.85 6.2 26.85 2 14.25-1.95 25.5-1.6 4.55-3.2-.1-3.25-9.3-6.4-12.85-2-2.25-.9-2.1 1.15.15 3.15 2.4 1.65 1.9 2.85 4.2 1.3 2.4 2.85 6.7 2.7-10.05 1.3-22-1.05-9.2-5.9-28.05-3.15-12.3-3.95-15.95-2-9.1-2.4-16.1-.3-6 .6-19 .9-12.95.7-16.5-.15-2.6.65-3.15m-61.7 15.75q-5.7 4.1-8.45 6.7-.3.25-.55-.55-.3-.85 0-1.1 2.7-2.55 8.8-6.8 6.2-4.35 7.35-4.35 1.1 0 7.3 5.4 6.05 5.25 7.4 7.15.25.35-.3 1.2-.5.9-.75.55-1.5-2.15-5.65-6.2-4.9-4.75-8.05-6.5-1.5.5-7.1 4.5"/><path fill="#0d131a" d="M258.4 83.4q-.15-.1-.05-2.55l.05-2.8q-1.8-1.25-3.5-1.6-.4-.1-.15-1.35t.65-1.1q4.65 2.1 4.9 3.2l.15 2.45-.05 2.65q1.05.75 8.65 5.15 7.15 4.3 7.3 5.55 2.5 20.1-1.75 31.9-3.6 10-16.25 23.3l-2.5 2q-.75.05-.25-2.6 5.05-24.65 4.05-40.45-1.65-2.35-6.45-6.75-4.75-4.25-6.8-5.35-2.25.95-7.7 4.9-5 3.65-6.75 5.35-.95 1.95 0 17.3.85 13.75 2.2 24.45.45 3.55-.35 3.4l-3-2.65q-10.65-10.95-14.45-27.05-3.35-14.35-.65-28.95.15-.95 5.65-4.4 5.5-3.5 8.7-4.75 0-4.45.35-4.95l2.25-2.15 2.4-2q.3-.2.85.7.5.9.25 1l-2 1.6-2.05 1.8.15 3.05q.05 2.35-.45 2.5-2.55.85-7.2 3.7-4.6 2.75-7.05 4.85-2.05 11.55.1 23.9 3.1 17.6 14.45 30.4-1.25-10.8-2.1-23.35-1.1-17 .15-19.2.5-.9 7.45-5.8 7.3-5.1 8.75-5.1 1.5 0 8.35 6.05t6.95 7.6q.45 7.75-.65 18.8-1.05 9.85-3.1 20.25 11.7-12.45 15.15-24.1 3.3-11 1.2-28.4-1.15-1.15-8.3-5.65z"/><path fill="#0d131a" d="M230.1 120.35q-.2-.35.55-1.4.7-1.05.9-.7 1 1.8 2.95 4.15 1.95 2.4 3.05 3.2 1.55 1.1 8.65 1.5l8.2-.35 2.85-2.85 2.6-3.25q.25-.35.85.6.6.9.35 1.3l-2.6 2.95q-1.75 1.8-3.1 2.85-2.2 1.75-9.4 1.25-7.1-.5-9.6-2.35l-3.15-2.9q-2.05-2.15-3.1-4M182.9 48.3q5.65-2.7 8.05-5.65.25-.3.9 1.05.65 1.4.5 1.6-2.3 2.1-6.55 4.2-4.35 2.15-8.3 3.1l6.7 1.35 6.4.25 1.6.15q.6.45-.8 1.65-1.95 1.7-4.25 5.7h-2.35q2.05-3.8 3.6-5.75l-7.95-.7q-4.35-.7-6.75-1.75-1.95-.8-2-1.5t1.75-.85q4.05-.3 9.45-2.85m-4.6 24.2 1.3 1.65q-5.7 7.4-13.95 10.35 4.95 1.35 11.25 1.15 6.35-.2 10.15-1.9 1.55-.7 2.35-.5.95.3.1 2.05-1.05 2.1-2.85 6.65-3.35 8.5-6.1 13.4-4.7 8.15-11.7 14.8 5-1.85 9.7-5.85 1.45-1.25 2.25-.85t-.05 2.35q-2.95 6.9-8.45 13.4 3.7-1.85 5.7-3.15 1.9-1.15 2.5-1 .75.15-.7 2.05L161.1 154q-13.4 18.95-22.3 27.5 5.75-.85 11.85-3.55 2.15-.95 2.65-.25.5.75-1.15 2.45-4.1 4.1-6.65 8.55l-2.8 4.4q-1.8 2.3-4.3 4.05 3.9-.45 7.15-1.7l2.8-.1q.65.75-1.05 2.25-5.25 4.65-10.9 7.8 4.05-.4 9.25-2.45 5.55-2.15 10.15-5.45 2.45-1.75 3.2-1.3.7.45-.55 2.95l-4.2 7.85q-5.75 10.35-8.5 16.55-4.55 10.35-5.6 18.5 12.25-9.55 15.1-13.15 1.6-1.95 2.3-1.65.75.35.15 3.25-.7 3.4-1.1 9.55l-.75 7.45q-.65 4.1-1.9 7.25 5.6-.5 10.4-3.2 4.85-2.65 7.75-6.8 1.75-2.4 2.5-2.3.85.1.8 3.25-.2 6.85-1.95 14.2 3.2-2.05 7.05-5.3 4.25-3.6 6.55-6.5 1.25-1.6 1.95-1.5.7.05 1.2 1.75.9 3.1 1.05 7.6 5.05-7 6.85-16.85 1.05-5.95 1.4-18.65.3-12.55 1.3-18.6.95-5.8 3.5-13.85l5.2-15.3q5.05-14.4 7-21.25 3.2-11.55 3.2-19.35 0-.15.6.3l.6.85q.7 10.35-7.8 36.25l-6.4 18.95q-3.25 9.75-3.9 13.7-.6 3.75-.75 9.45l-.15 9.45q-.35 15.45-1.05 19.1-1.65 9.45-8.4 17.75-1.9 2.35-2.7 2.55-.75.15-.85-1.65l-.15-4.4q-.15-2.65-.7-4.05-2.5 3.1-6.85 6.55-3.6 2.85-7.1 5-3.75 2.35-2.75-1.8 2.1-9 2.3-14.1-3.2 5-9.15 8.15-5.45 2.95-11.6 3.5-1.65.15-1.7-.75 0-.5.9-2.8 1.15-2.9 1.75-6.85l.7-7.35q.4-5.5.85-8.05-3.2 3.4-13.9 11.7-2.25 2-3.05 1.7-.95-.35-.65-4 .8-9.8 9.05-25.65l8.8-15.15q-5.15 3.35-11.85 5.45-6.3 1.95-9.75 1.6-3.1-.3-3-1.05.15-.7 3-2.15 5.75-2.8 10.6-6.7-6.55 1.8-9.2 1.85-2.4 0-2.5-.7-.15-.7 1.95-1.85 3.45-1.85 5.6-4.35 1.3-1.5 3.2-4.85 2.55-4.35 4.55-6.6-6.6 2.35-11 2.9-3.2.35-3.4-.5t2.25-2.95q5.55-4.75 22.45-27.3l17.95-24.45q-2.65 1.5-4.55 2.1l-2.25.1q-.4-.6 1.3-2.65 4.45-5.35 8.05-12.4-4.85 4.25-9.5 5.75-7.1 1.9-1.35-3.55 10.4-9.9 18.45-32.15-4.85 1.75-12.2 1.85-7.6.1-12.55-1.75-1.65-.6-1.15-1.45.55-.85 2.85-1.6 8.85-2.6 14.7-10.55m89 65.4q.05-.4 1.65-2.65 1.6-2.2 1.6-1.85v.15q-3.6 38.95-6.85 62.25-5.95 41.95-13.3 58.3l4.35-5.35 3.15-4.75q1.45-2.75 1.6-1.4.1 1.4-1.35 4.15l-3.55 5.45q-2.6 3.45-5.1 5.8-2.35 2.15-3 1.45-.6-.75.85-3.8 9-18.2 14.1-57.5 1.75-13.3 3.45-32.3z"/><path fill="#0d131a" d="M303.95 199.9q-.1-.25 1.35.75 1.4.95 1.6 1.6 3.9 13.1 1.8 25.65-2 11.9-9.3 22.25-3.9 5.65-3.7.9l-.15-4.85q-1.15 4.5-3.95 9.45-2.25 3.95-4.8 7-1.85 2.25-2.6 1.9-.75-.4 0-2.8l.85-2.85q-3 5.6-8 10.25-3.7 3.45-7.55 5.6-2.05 1.2-2.55.45-.45-.6.05-3.2 1.9-10.85 2.1-16.55l-6.3 6.55q-3.6 3.15-7 4.55-1.95.8-2.45.3-.5-.45 0-2.4 2.3-9.35 3.15-16.55.2-1.4 1.3-2.3.55-.45 1.05-.6-.1 2.45-1.15 8.45l-2.2 10.85q3.2-1.4 6.25-4 2.5-2.1 5.8-5.85 1.8-2.05 2.45-1.85.75.15.7 3.2-.2 8.25-1.65 16.25 13.55-7.7 17.25-22.05.8-2.95 1.8-2.65 1.05.25.7 3.35-.35 2.95-1.6 8.1 5.9-8.4 6.9-15.55.4-2.95 1.25-3.6.9-.75 1.55 2.35.85 3.6.85 7.45 7.35-12.1 8.85-25.8 1.4-12.85-2.65-23.75m-48.4 31.5q.25-.5.5 1.15t-.3 2.4q-2.6 3.95-4.95 6.3-1.6 1.55-2.05 1.45-.55-.1-.5-2.4l.15-4.6-2.8 4.45-3.15 4.55q-1.8 2.15-2.45 1.75-.55-.4-.5-2.95l-.15-6.1-.2-3.8q-4.85 8.6-6.55 14.15-.65 2.05-1.3 2.15-.6.05-1.5-1.5l-2.35-5.85-1 3.15q-.8 2.15-1.45 2.2-.65.1-1.65-1.7-1.6-2.75-3.55-9.3-1.7-5.8-2.65-10.95-1.25 2.3-2.75 6.1-1.45 3.7-2.35 6.95-.75 2.65-1.35 2.85-.6.25-1.8-1.8-3.6-6.25-5.4-12.85-1.85-7.05-2.45-17.45-.15-2.5 1.25-7.5 1.4-5.1 1.4-4.25l-.3 2.75q-.35 3-.35 4.6 0 8.25 2.35 18.2 2.15 9.05 4.9 14.25 1-3.35 2.7-7.15 1.6-3.6 3.05-6.05 1.2-1.95 1.65-2.05.55-.15 1 1.85 1.15 5.3 2.75 10.8 1.95 6.75 3.4 9.5l1.15-4.3q.45-2.1 1.15-2.05.65 0 1.35 2.1 1.35 3.7 2.45 5.75 1.35-4 3.6-8.9 2.2-4.9 3.95-7.65 1.5-2.35 2.25-2.25.8.05.9 2.6l-.05 12.45 5.95-8.45q1.1-1.75 1.8-1.8.85-.05.9 2.25l.25 3.8q3.8-4.35 5.05-6.85M132.3 121.5q.85-3.8 4.3-6.15 1.85-1.25 7.15-3.35v2.35q-4.15 2-6.2 3.9-2.7 2.5-2.9 5.7 0 .4-1.25-.85-1.2-1.25-1.1-1.6m54.55-66.7 1.4-.05q.95.25.15.8-2.95 2.15-7.3 3.25l-8.15 1.5q-7.9 1.45-13.9 4.85-6.8 3.85-9.4 9.2-4.25 8.8-1.25 15.95 1.05 2.5 3.15 5.2l3.25 4q2.2 2.85 2.05 5.05-.15 2.25-2.85 4.35l-.65-2q1.4-1.3 1.35-2.75 0-1.45-1.5-3.4l-3.8-4.6q-2.35-3-3.45-5.6-3.2-7.45 1.4-17.1 2.8-5.85 10.6-9.8 6.25-3.2 14.75-4.8l8.15-1.4q3.2-.75 6-2.65m5.8 201q-.1-.35.6-.95t.75-.2q.85 6.1 5.8 18.1 5.05 12.2 7.85 14.45 4.15-1.55 13.75-11.8 1.65-1.8 2.45-1.75.65 0 1.6 1.6L234.8 290q2.25 3.05 2.55 4 .35 1-1.95-1.15-2-1.9-6.65-9.35l-4.85-7.75-6.45 6.45q-6.75 6.35-9.7 7.15-2.85.8-7.3-8.85-4.65-10.05-7.8-24.7"/><path fill="#0d131a" d="M195.85 248.25q-.05-.35.85-.35.85 0 .85.35.05 5.9 3.9 17.1 3.3 9.5 5.8 13.8 1.4 2.35.3 1.85t-2.5-3.15q-2.95-5.55-5.8-13.95-3.35-9.95-3.4-15.65m57.9 27.1q.8-1.2 1.2-1.1.35.05 1.4 1.45 1.8 2.3 3.95 6.2 1.9 3.5 2.7 5.7.6 1.6.25 2.35-.35.7-.95-.95-.65-1.85-2.95-5.8-2.35-4.05-4.1-6.4l-7.6 13.9q-6.05 10.55-8.7 10.65-2.5.1-9-8.4-6.1-7.9-9.6-15.05-.2-.4.4-.95.55-.55.75-.15 3.35 6.75 9.75 14.3 5.9 7.05 7.65 7.2 1.75-.05 7.9-10.65z"/><path fill="#0d131a" d="M279.35 265.15q.1-.4 1.7-2.05 1.65-1.6 1.6-1.2-.8 6-7.5 19.75-7.2 14.85-10.75 14.85-.8 0-1.9-1.45l-4.4-6.85q-4.6-7.6-5.95-8.9-.3-.3.45-1 .7-.75 1-.45 1.4 1.35 6.25 9.3l4.7 7.2q2.1-1.2 7.65-11.95 5.6-11 7.15-17.25M79.3 172.6q-9.1 6.7-7.95 16.25 1.05 8.8 9.4 14.6.35.25-.55.8t-1.25.3q-9.95-7.3-10.3-17.45-.35-9.85 8.25-15.95.75.8 2.4 1.45m23.6-10.25q.5-.05 1.5.85 1.05.9.6.95-7.65.95-13.45 2.7l-2.75-.3-2.8-.1q7.05-2.7 16.9-4.1"/><path fill="#0d131a" d="M83.25 202.3q.8.35-1.9 1.85Q71.1 210 69.85 219.1q-.95 6.9 3.35 15.15 1.6 3 .15 5.8-2.05 4.15-6.7 4.8-4.5.65-6.75-2.35-1.9-2.65-.3-5.95 4.75-9.85 2.65-15.45-1.95-5.2-9.35-5.85-7.5-.6-10.4 1.15-1.7 1.05-2.35 3.95-.6 2.35-1.45 3.2-1.55 1.45-5.1.95-3-.4-3.5-1.95-.4-1.35.95-4.1 1.2-2.35 1.1-3.2-.2-1.35-2.95-2.15l-6.25-.35q-1.75.4-5.1 2-4.5 2.2-7.8 2.25-4.05.05-8.6-2.85l1.35 3.75q1.65 1.95 7.5 2.15l4.85.6q5.15 1 7.1 3.15 1.25 1.35 1 3.6l-.5 4.5q0 1.3.8 2 .9.8 3.15 1.25 10.3 2.1 14.3-4.4l.6-.45.75.1q5.05 2.85 4.85 6.35-.15 2.9-4.45 7.75-2.8 3.2-3.7 4.8-1.6 2.75-1.05 5.1 1 3.85 4.45 6.85T51.5 266q8.2 2.65 16.9 1.6t13.5-5.2q.3-.25.75-.2.5.05.75.4 4.55 6.2 12.75 6.5 7.7.3 12.3-4.35l-.4 2q-.3 1.5-.25 2-5.45 4.15-12.65 3.1-7.6-1.1-12.9-7.55-5.4 4.15-14.6 5.3-9.4 1.2-17.7-1.45-11.85-3.75-14.15-13-.55-2.35.4-4.7 1.15-2.9 5-7.3 3.6-4.1 3.95-5.9.45-2.35-3.1-4.6-2.45 3.35-6.5 4.65l-9.4.25q-5.9-1.2-5.65-6l.45-3.65q.25-1.9-.45-2.7-1.2-1.4-5.2-2.2l-6.15-.7q-5.35-.15-7.2-2.35Q1 218.8.35 215.2q-.5-2.85-.2-3.15.35-.3 2.45 1 6.55 4.05 14.4.25 4.25-2.1 5.9-2.6 3.9-1.15 7.55-.05 3.55 1.1 3.85 3.6.25 1.85-1.4 5.15-.95 1.9-.8 2.4.15.4 1.8.65 2.4.35 3.25-.3.55-.45 1-2.3.9-3.75 3.35-5.3 3.55-2.2 11.7-1.55 9.55.8 11.5 7.6 1.8 6.35-3.25 16.85-1.35 2.8.55 4.25 1.7 1.3 4.7.9t4.5-2.2q1.8-2.15.2-5.2-5.55-10.8-3.7-18.25 1.9-7.75 12.05-13.5 2.65-1.55 3.5-1.15"/><path fill="#0d131a" d="m123.85 192.3 1.9.35 1.7.6q-10.3 15.65-13.95 31.2-2.2 9.4-3 27.1-.65 15.15-2.05 23.65-2.25 14.1-8.2 28.15-.75 9.05 2.6 15.25 3.05 5.6 8.85 7.85 5.5 2.1 11.7.6 6.35-1.55 11.2-6.45 7.2-4.6 12.5-13 4.55-7.3 7.15-16.5.1-.45.8 1.85.65 2.25.45 2.8-2.8 8.5-8.2 15.9-5.55 7.6-11.35 10.5-6.15 6.1-13.35 7.65-6.75 1.4-12.7-1.55t-9.1-9.35q-3.35-6.85-2.55-15.85 8.15-16.25 9.7-52.05.85-19.35 2.5-27.25 3.25-15.85 13.4-31.45m-50.4 147.4q4.6-17.9 7.1-20.55.25-.3 1.15 1.1.7 1.25.55 1.5v.05q-1.75 1.45-6.5 18.7l-4.95 18.75q-1.5 4.3-4.95 8.45-2.25 2.7-7.4 7.45l7.15-.2q.45 0 .2 1.15-.3 1.1-.7 1.1l-4.25.05-4.1-.05q-2.25.05-2.05-.95.15-.8 1.9-2.2 2.65-2.1 6.15-6.1 4.75-5.45 6.15-9.4zm52.55 2.2q.1-.4 1.2-.65 1.1-.2.95.2-2.6 8.2-.8 20.4 1.85 12.55 6.9 18.1.25.3-.9 1.3-1.2 1.05-1.5.7-5.1-6.05-6.8-19.2-1.7-12.7.95-20.85"/><path fill="#0d131a" d="M148.25 236.9q.1-.4 1.6-1.3 1.45-.95 1.45-.6v.25q-2.45 9.55-2.45 18.6 0 6.45 1.25 13.45.8 4.45 2.9 12.5 2.95 11.6 3.7 16.7.85 5.75.65 13.6l-2.05.35q.25-7.6-1.45-16.15l-3.45-14.2q-3.65-14.5-4.2-19.35-1.2-11.05 2.05-23.85m57.4 50.9q.1-.5 1.55-.4 1.4.1 1.25.85-3.3 12.65-6.05 28.1l-1.1-.45-.9-.65q2.95-18.2 5.25-27.45m-55.9 52.3q1.95 0 2.75-.55-9.9 39.35-28.7 51.95l8.2-.3 6.55-1.2 2.6-.05q.55.5-.85 2.45l-4.35 5.75 9.65-3q7.1-2.3 10.5-3.6 2.5-.95 3.05-.8.7.15-.1 2.1l-2.85 7.35q7.45-1.05 17.3-7.1.8-.45 1.3.15 1.4 1.55 4.8 4.1l6.45 4.2q0-5.25.25-6.25.3-1.25.8-1.35.6-.15 1.15 1.2 1.75 4.15 6.2 6.85 3.75 2.3 8.1 2.9-3.6-4.85-6.25-12.95-.6-1.7-.2-2.2l2.3.15q3.8 1.55 9 2.05-9.2-12.25-11-22.45-1.25-6.85 0-26.6l2.5 2.25q-1.5 17.7 0 25.1 1.75 8.95 10.3 20.7 1.45 2 1 2.7-.4.6-2.35.4-5-.4-9.35-1.95 2.7 7.85 6.05 12.1 1.2 1.5 1.05 2.3-.2 1.15-2.95.8-4.75-.65-7.75-2.2-3.7-1.95-6.7-6l.2 3.8q.1 1.45-.45 1.75-.6.3-2.15-.55-5-2.7-11.85-9.4-5 3-8.15 4.5-5.15 2.45-9.1 3.05l-2.9-.1q-.35-.35.3-2.1l2.15-6.45q-15.25 5.3-20.1 6.65-3.25.85-3.6 0-.3-.65 1.15-2.55l4.1-5.4-7.85 1.35-9.25.25q-2.05-.2-1.65-1.25.35-.85 2.05-1.85 18.3-10.95 28.65-50.7m100.45-56.6q0-.4 1.05-1.55 1.05-1.1 1.05-.65 0 .8 3.45 17.55 3 14.65 1.7 19.5-.1.4-1.1.2-.95-.25-.9-.65 1-4.45-2-17.35-3.3-14.1-3.25-17.05m5.4 63.6q.1-.4 1.05-.3t.95.5v.2q-1.3 6.45-2.1 34.05-.05.75-8.35 14.6l8.5-3.2q.35-.25.5 1.25.1 1.45-.25 1.65l-3.85 1.25-5.85 1.6q-1.7.35-2-.25-.35-.75 1.1-3.2l3.9-7.1 3.85-7.85q-.35-3.8.6-15.95.95-12.2 1.95-17.25"/><path fill="#0d131a" d="M255.8 391.2q.45-2.25.85-1.65.4.65.15 3.1-.5 4.8-2.85 9.75l8.5-3.4 8.2-3.9q2.05-1.1 2.65-.8.55.3.1 1.95l-1.4 5.35 12.3-5.1q8.1-3.6 9.85-4.8l.75-.2q.4.05.6.4 2.1 2.5 5.05 4.55 2.9 2 5.6 2.85l-1.05-8q-.35-2.4.3-2.75.6-.4 2.4 1.15 2.5 2.15 6.6 4.35 3.65 2.05 6.85 3.2-1.75-6.85-2.2-10.7-.3-1.85.4-2.05.75-.25 1.35 2.1l2.4 10q.55 2 .15 2.65l-2.6-.05q-3.15-1.15-6.75-3.05-4.05-2.15-6.8-4.3l.95 7q.3 2-.2 2.5l-2.95-.2q-6.7-2.45-10.6-6.75-2.6 1.45-10.7 4.65l-11.35 4.3q-2 .75-2.5.4-.5-.4.05-2.35l1.15-4.2q-12.55 6.5-17.55 8.15l-2.75.05q-.25-.65 1.05-3.3l2.45-5.75z"/><path fill="#0d131a" d="m326.6 381.55 8.4 7.95q1.95 1.7 1.6 2.6-.3.85-2.8.85l-7 .05-5.8-.55q-.2-.05-.4-1.6-.15-1.55.2-1.4l4.8.9 7.05.4-7.75-7.65-4.7-5.05q-.45-.4-8.15-15.25-8.05-15.4-9.5-17.5l1.55-.1 1.85.25q1.75 2.8 8.85 17.15l6.85 14zm-19.1-156q-.15-.85.45-4.1t.75-2.8q3.65 12.55 3.05 26.5-.45 10.4-3.6 24.7l-5.4 23.6q-2.65 13.3-2.3 23.05 0 .4-1 .45t-1.05-.35q-.55-7.3 1.6-19.9l4.7-23.75q6.35-31.9 2.8-47.4m-89.3 112.8q-.05-.15 1.15-.55l1.3-.1q.8 2 1.75 7.95l1.8 11.8q2.9 16.4 8.45 23.15 1.3 1.6 1.1 2.3l-2.65-.1q-5.3-1.95-9.1-4.95l-.85 4.8q-.25 1.6-.9 1.85-.7.3-2.45-.6-1.85-.95-3.9-2.55l-3.15-2.95-3.9 8q-.25.6-.8.65l-.85-.25q-1.95-1.65-2.6-2.6l-.65-1.15q-.25-.35-.15-1.75.15-1.4.4-1.05l3.35 4.15 3.65-6.9q.6-1.25 1.25-1.35t1.65 1q2.4 2.45 6.9 4.6l1.05-4.7q.3-1.5.95-1.75.7-.3 2.05.75 2.4 1.95 6.6 3.8-4.45-5.9-8-23.35-2.85-16.8-3.45-18.15m-11.6-49.65q-.3-.2.25-.65.6-.45.7-.4 2.4 1.3 8.9 1.85 6.55.55 12.2-.1.4-.05.65.6.2.65-.2.7l-12.4.75q-6.5-.4-10.1-2.75m-102.05-3.6q.4-.05.6 1.15.2 1.25-.2 1.3-7.75 1.3-13.7 6.95t-8.15 13.75q-2.3 8.45.8 16.75 2.9 7.65 9.6 13.15 6.6 5.4 14.6 6.65 8.5 1.35 15.9-2.7 5.8-3.2 8.7-8.85t2.05-12.15q-.05-.4 1.35-.85l1.45-.05q.95 7.15-2.6 13.7-3.5 6.5-10 10-7.75 4.25-16.95 2.7-8.65-1.4-15.95-7.35-7.35-5.95-10.6-14.3-3.5-9.05-1-18.25 2.3-8.5 9.05-14.4 6.55-5.75 15.05-7.2"/><path fill="#0d131a" d="M98.15 292.15q2.4-1.15 4.1-.9 1.75.3-.9 1.1-9.35 2.9-10.1 15.35-.75 12.2 7.1 19.65 7.7 7.35 18.85 7.45 10.25.15 15.1-5.3 1.75-2 1.8-.95.05 1.1-1.9 3.05-5.35 5.35-15.9 5-11.5-.35-19.35-7.8-8.1-7.65-7.85-20.05.25-12.5 9.05-16.6m46 24q3-5.05 12.35-7.15 8.55-2 19.75-1 11.05.9 20 4.3 9.6 3.65 13.1 8.8.55.8-.4 10.15l-1.1 9.2q-1.5 3-4.4 4.9-2.95 1.9-6.3 1.9-.4 0-.5-1.35t.3-1.35q2.75 0 5-1.35t3.45-3.7l1.25-9.05.85-8.4q-3.45-4.9-12.8-8.1-8.5-2.9-19.15-3.6-10.55-.7-18.65 1.05-8.65 1.85-11.05 5.9-1.1 1.55-2.1 10.3-.9 7.55-.85 10.25 1.2 1.85 3.2 3.2 2.15 1.5 3.9 1.5.45 0 .4 1.15-.1 1.2-.55 1.15-5.05-.45-8.5-6.2-.7-1.15.05-10.15.85-9.7 2.75-12.35"/><path fill="#0d131a" d="M152.25 340.05q-2.6 1.35-2.85.4-.3-.95 2.35-2.45 7.2-4.1 23.8-2.55 16.85 1.55 22.3 7.2 1.95 2.05 1.1 2.2t-3.2-1.7q-4.5-3.6-20.25-5.1-16.5-1.55-23.25 2M65.2 374.8q1.3-2.45 2.2-2.65.9-.25-.15 2.05-1.9 4.4-7.15 12.85L81 379.2l2.25-.05.45 2.25.4 3.45 4.8-3.15 4.5-3.45q.95-.8 1.45-.85.55-.05 1.3.7 4.2 4.3 8.15 6.9l1.85-3.6 2.1-4.6q.8-2.05 2 .35 1.5 3 4 6.3l4-4.35q.75-.9 1.25-.9.6-.1 1.35 1 1 1.5 3.25 3.6 2.05 1.95 4.1 3.45.35.25-.5 1.1-.8.8-1.15.55-1.95-1.4-3.9-3.4-1.95-1.95-3.15-3.7l-3.95 4.25q-.85.85-1.4.85-.65 0-1.5-1.1-1.65-2.15-3.2-4.85l-3.65 6.5q-.55 1-1.15.95-.5-.05-1.75-.9-5.85-3.9-8-6.05-3.15 2.3-8.9 5.45-1.55.85-2.7.6-1.2-.3-1.3-1.6l-.35-3.35-10.6 3.85-11.95 4.15-3.35.65q-1.1-.15-.15-1.6l4.9-6.85q3.6-4.9 4.7-6.95"/><path fill="#0d131a" d="M66.8 385.9q.1-.4 1.45-.65 1.35-.2 1.25.2-2.2 9.2-.25 15.7 1.9 6.55 7.5 8.6 7.35 2.7 11.85-1.35 4.4-3.95 3.45-11.8-.7-6.05-4.85-8.55-4.05-2.45-8.85-.15-1.95.95-1.8.25.1-.7 2.1-1.6 6-2.65 10.5.5 4.2 2.95 4.95 9.3 1.15 9.7-4.8 14.2-5.65 4.2-13.65 1.25-6.45-2.35-8.85-9.1-2.4-6.9 0-16.8"/><path fill="#0d131a" d="M92.65 385.45q7.5-2.6 13.7 1.7 3 2.05 4.8 6.1 1.7 3.9 1.6 8.1-.3 10.05-9.15 11.45l-8.7-.3q-4.55-.95-6.4-2.95-.25-.3 1.05-1 1.35-.65 1.5-.3l4.75 1.55q5.45 1.3 9 0 5.35-1.95 5.6-9.8t-5.15-11.6q-2.9-2-7-2.1-3.4-.15-6.7 1-1.95.65-1.4-.25.6-.9 2.5-1.6"/><path fill="#0d131a" d="M116.5 386q-5.85.8-6.45 5-.05.45-.85.15-.75-.35-.7-.75.8-5.7 7.9-6.65 6.95-.9 11.6 3.7l-1.75 1.55q-3.9-3.8-9.75-3m12.15 6.9q.95-.35 2.2-.6.45 1.6.45 3.55 0 .4-1 .5-1 .05-1.05-.35zm-6.85 16.95q.45 1.05.1 1.3-2.3 1.55-7.45.45-5.15-1.15-6.15-3.4-.2-.4.75-.8l1.1-.05q.55 1.2 5 1.9l5.9-.25q.35-.2.75.85"/><path fill="#0d131a" d="M138.65 391.75q.4-.05-.1 1.1l-.85 1.2q-7.35 1.7-11.5 7.7-4.2 6-3.9 14.5t8.05 11.95q6.85 3.05 12.45.25.4-.2.85.75.5.95.1 1.1-8.45 3.75-16.25-.75-7.65-4.45-7.95-12.75-.35-9.55 5.05-16.6 5.4-7 14.05-8.45"/><path fill="#0d131a" d="M165.05 431.35q3-1.3 3.1-3.15l1.2.1q1.15.5 1.1.95-.2 3-3.85 4.65-3.35 1.55-8.5 1.45-11.95-.15-17.45-6.35-2.05-2.35-2.65-7.5-.65-5.4.7-10.6 3.55-13.55 16.5-13.05.4.05.3.9t-.5.85q-10.65-.4-13.75 11.6-1.2 4.7-.6 9.55.55 4.7 2.45 6.95 4.7 5.4 14.9 5.05 4.15-.2 7.05-1.4"/><path fill="#0d131a" d="M195.3 404.05q1.15.2 1.25.6 5.25 15.4.3 24.7-1.85 3.45-6.7 5.2-4.55 1.65-9.8 1.15-5.45-.5-9.05-3.1-4.05-2.9-4.45-7.6-1.1-13.1 2.2-19.2 2.9-5.35 9.35-5.5 2.05-.05 3.1.6 1.05.7-1.1.65-6.6-.05-9.25 5.85-2.6 5.75-1.6 17.25.3 3.8 3.7 6.15 3.05 2.1 7.55 2.5 4.4.4 8.15-1 4-1.5 5.5-4.5 2.55-5.15 2.2-12.7-.25-6.55-2.3-10.9-.2-.4.95-.15m30.3-79.55q1-1.45 1-.45.05 1-1 2.35-2.95 3.85-8.5 4.9-5.85 1.15-9.65-1.9-.3-.25.35-.9.6-.65.9-.4 3.15 2.55 9.15 1 5.6-1.5 7.75-4.6"/><path fill="#0d131a" d="M237.9 298.95q-.65 3.05-3.2 8.55-2.8 5.9-4.9 8.25 2.15 11.3-3.9 18.4-6.6 7.75-19.4 5.3-.4-.05-.2-1.05t.6-.95q12 2.3 17.4-5.4 3.9-5.45 3.55-13.65-4.4 5.65-10.5 7.45-6.3 1.85-9.55-1.95-.25-.35.3-1.25.6-.9.85-.55 2.65 3.1 8.6 1.25 6.4-1.95 10.25-8.5.9-.9 3.95-7.75 3.05-7 3.65-9.55.1-.4 1.35.3t1.15 1.1m68.9 44.35q1.4-1.15 1.65-2.15-.4-16.9-1.35-19.65-1.05-2.95-10.1-4.35l-19.6-.8q-11.45.45-19.5 2.55-9.05 2.3-9.95 5.75-.4 1.4-.1 9.35.35 8.45 1.35 10.1.9.7 3.1 1.45l4 .85q5.4-2.9 24.35-3.8 19.45-.95 23.7 2.1zm-3.35 3.15q-5.8-1.4-19.75-1.45-17.65-.05-27.3 3.45l-4.8-.85q-2.85-.85-4-1.8-1.45-1.15-1.75-10.8-.35-9.25.45-11.05 2.1-4.65 11.8-7.5 8.65-2.55 20.45-2.9 11.5-.35 20.05 1.5 9.2 2.05 10.45 5.75.95 2.85 1.5 9.2.55 6.3.3 11.55-.05 1.2-1.85 3.05-1.95 2.05-3.95 2.45l-.85-.15zm-97.95 39.8q-.35-.3.3-.75.6-.45.9-.15 1.25 1.15 2.45 4.45 1.3 3.55 1.5 6.95.45 9.1-7.4 8.65-.4-.05-.35-1.05.05-1.05.5-1 5.3.3 5.15-7.3-.15-7.05-3.05-9.8"/><path fill="#0d131a" d="m213.05 383.8 5.45-.35q2.4.3 4.1 1.75 4.7 4.05 4.25 13.75-.25 5.65-9.8 6.5l-6.75-.35q-3.15-.6-3.6-1.75-.15-.35.8-.75.9-.35 1.1 0 1.15 1.55 8.15.65 7.3-.95 7.45-4.45.4-8.95-3.3-12.1-2.75-2.45-8.1-1.45-2.3.4-2.2-.3.15-.75 2.45-1.15"/><path fill="#0d131a" d="M224.8 383.7q-2.15-.05-1.4-.65.8-.6 3.2-.75 12.6-.8 12.9 12.55.15 6.05-5.25 8.75-5.3 2.6-12.1.15-.35-.15.25-1.25.6-1.15.95-1 5.45 1.95 9.55.3 4.55-1.8 4.4-7.3-.15-6.05-3.5-8.55-2.8-2.1-9-2.25m80.35 22.95q2.75 4.1 2.85 11.2.05 7.75-3.65 11.3-3.7 3.5-12.5 2.95-7.8-.5-16.5-3.85-5.3-2.05-9.7-10.3-4.25-8.05-5-16.9-.05-.45.9-.65.95-.25 1 .2.7 8.45 5.15 16.15 4.25 7.3 8.85 9.05 8.15 3.1 15.75 3.5 7.65.4 10.25-2.1 3.1-2.95 3.15-9.65.05-6.3-2.25-9.75-2.75-4.1-8.3-4.5-3.1-.2-8.65 1.05-2.3.55-2.45-.25-.15-.75 2.15-1.5 4.55-1.6 9.4-1.1 6.5.6 9.55 5.15"/><path fill="#0d131a" d="m307.2 398.25 7.4-.4q3.45.45 6 2.15 5.65 3.75 7 12.95 1.45 9.65-4.25 14.25-3.45 2.8-8.85 3.1-5.4.35-10.75-1.85-.4-.2.05-1.5.4-1.35.8-1.15 4.8 2 9.55 1.75 4.8-.25 7.75-2.65 4.75-3.75 3.35-12.1-1.3-7.95-6.2-11.25-4.3-2.9-11.4-1.3-.4.1-.65-.9-.2-1 .2-1.1"/><path fill="#0d131a" d="M321.4 394.55q-.4 0-.4-1 0-1.05.4-1.05 8.5-.05 13.4 4.05 4.95 4.15 5.85 12.3.95 8.35-5.2 14.45-6.25 6.1-13.5 3.8-.4-.1.45-1.35t1.25-1.15q4.5 1.45 9.75-3.5 5.5-5.2 4.75-12.05-1.65-14.65-16.75-14.5m-153.65-251.5q.15.4-.9 1.4t-1.2.6q-2.4-7.1-10.7-29.3-8.55-22.75-9.4-24.2l-1-.05q-.85.25-1 .7l1.3 42.55v.1q0 .4-1 .4-1 .05-1.05-.35l-1.3-42.75q0-1.75 2.3-2.6 2.4-.9 3.5.95 1.05 1.7 10 24.9z"/><path fill="#0d131a" d="M163.5 148.7q.15.35-.45 1.15t-.75.5q-1.55-3.85-8.6-25.5-6.85-21-7.95-24.95-.95-3.5-.6-3.7.4-.25 1.6 3.15l8.2 24.35q7.3 21.9 8.55 25M73.3 68.45q-.6-1.5 1.4-3.1 2.05-1.55 3.5-.25l25.55 25.3 30.75 30.05q.3.3-.6 1.4t-1.2.85q-4.55-4.15-30.6-30.45l-25.25-25.6q-.25-.25-1 .2-.7.5-.65.9.65 3.25 20.95 37.75l20.2 33.85q-3.65-.85-4.35-2L91.95 103.2Q76.55 76.4 73.3 68.45"/><path fill="#0d131a" d="M77.8 71.2q-.9-1.45-.6-1.6t1.35 1.25q2 2.65 17.4 19.65 16.5 18.15 21.25 22.45 1.1 1 1.4 2.35.35 1.35-.4.65-5-4.5-22.2-23.75-16.65-18.55-18.2-21m61.25 67.9q-16.4-21-17.3-22.45-1.35-2.05-.8-2.3t2.1 1.7L156.6 159q.2.25-.45.7l-.9.1z"/><path fill="#0d131a" d="M57.4 117.25q-2.25-1.35-2.7-1.9-.5-.6 1.55.2 3.6 1.4 35.6 17.7Q122.8 149 131.8 153.9q-1.8-5.75-8.75-23.9l-6.65-17.15q-.2-.85 1.85-2.3t3-.7q2.25 1.75 18.55 18.8 17.35 18.15 21.55 23.65.25.35-.7 1.4t-1.2.7q-4.15-5.5-21.05-23.7-16-17.3-17.95-18.85-.5-.15-1.2.4t-.6.95l6.45 16.55q6.8 17.65 8.55 23.3.85 2.75-.2 2.95-.65.15-2.65-.95L92.15 135.1z"/><path fill="#0d131a" d="M48 114.55q-.6-.75.65-3.1 1.3-2.4 2.9-1.9 6.85 2.05 38.05 16.2 31.35 14.25 39.75 19.15.35.2 1 2.15.65 2 .25 1.75-8.4-4.85-40.35-19.95-32.55-15.35-38.9-17.25l-.6.85-.6 1.1q0 1.95 26.8 25.15 26.1 22.55 41.25 34 2.7 2.05 1.25 2.05-1.5 0-4.65-2.2-13.15-9.4-36.25-29.25-24.5-21.05-30.55-28.75"/><path fill="#0d131a" d="M62.1 123.65q-2.45-2.25-2.4-2.65.1-.4 2.35 1.35l34.5 26.05q32.35 24 43.35 30.55.3.2-.1.95-.45.75-.75.55-10.5-6.25-43-30.65-29.55-22.15-33.95-26.15m9.75 45.15q-.85-.7-.5-2.45.3-1.75 1.5-1.6l21.65 2 17.25 1.9q.45.1 1 1.2.5 1.1.1 1l-17.8-2.35-22-2.4-.35 1.35q4.1 3.5 29.2 14.35 22.75 9.85 27.4 11.15l6.3-.15 6.45-.9q.4-.15.2.75-.2.85-.6 1-1.65.6-6.5 1.2l-6.55.2q-4.35-1.2-27.2-11.3-25.15-11.15-29.55-14.95"/><path fill="#0d131a" d="M77.15 168.4q-2.3-.7-1.6-.8l3.35.35 35.3 6.15q2.4.4 1.9.9l-3.05.25-17.75-3.15zM344.5 72.6q1.75-.95 3.25.65 1.4 1.5.85 2.75-.45 1.25-46.25 64.45-.25.3-.75-1l-.45-1.6L346.7 75.3l-.45-.65q-.45-.4-.8-.25-38.4 24.5-43.9 28.8-.35.25-.55-1.25t.15-1.75q3.3-2.6 22.6-14.75 18.2-11.5 20.75-12.85"/><path fill="#0d131a" d="M338.8 80.8q2.45-2.8 2.75-2.4.25.4-1.75 3.5-2.4 3.7-30.95 39.5-1.75 2.05-2.5 2.2-.8.2.6-2 2.55-3.95 15.85-20.9 12.4-15.75 16-19.9m4.7 46.4q1.4-.1 2.45 1.85 1.05 1.9.2 2.75l-19.35 17.55-18.65 16.3q-.35.25-.85-1-.55-1.25-.2-1.5l17.95-15.25L344.4 131l-.45-.9-.75-.8q-2.7.25-20.45 5.2-17.85 5-20.3 6.25-.4.2-.85-1t-.05-1.4q2.55-1.3 20.85-6.1 18.15-4.8 21.1-5.05"/><path fill="#0d131a" d="M337.4 133.05q2.15-1.7 2.45-1.2.3.55-1.55 2.3l-13.1 11.55-11.7 9.85q-2.4 1.75-3.15 1.45-.8-.3 1.35-2.2l12.35-10.55q10.65-9.1 13.35-11.2m28.95-27.9q1 1.75-.05 2.8l-9.8 8.8-13.7 11.55q-.55.45-2.95.6-2.4.2-2.05 0 1.65-.85 13.5-10.75l13.45-11.55-.65-.8q-1.6.4-25.55 9.4-24.5 9.25-27.5 10.7-.4.2.7-1.7 1.05-1.9 1.45-2.1 4.55-2.25 51-18.4 1.15-.25 2.15 1.45"/><path fill="#0d131a" d="M355.85 109.75q2.2-1.6 2.3-1.05t-1.9 2.45q-3.3 3.15-16.55 12.4-13.35 9.3-15.55 9.95l-1.9.3q0-.25 1.8-1.55zm-22.75 45.7q13.8-.7 19-.35 1.85.1 2.3 1.8.45 1.65-.75 2.45-4.1 2.95-18.1 9.45-12 5.55-24.45 10.6l-.25-2.9q34.85-13.95 41.6-18.8l-.05-.3-.45-.25-19.35.65-17.6 1.35q-.4.05.1-1.25t.9-1.35z"/><path fill="#0d131a" d="M334.1 161.65q2.9-.8 2.65-.35-.3.4-3.2 1.65l-11.9 4.45-11.7 4.1q-.3.1-.6-.7t.05-.9l11-3.9q8.75-3 13.7-4.35M271.7 69.1q-.05 1.7-.65 3.3l-1.45 2.45-.6-.1q-.4-.3-.25-.55 1.3-1.8 1.45-5.15.05-2.7-1.65-4.4-.2-.2.65-.65.8-.45.95-.25 1.6 2.4 1.55 5.35M260.9 68l.75-.1q.65.15.6.4-.5 2.5.05 4.65.65 2.35 2.3 2.95.25.1 0 .65l-.5.45q-2.25-.8-3.1-3.6-.7-2.5-.1-5.4m-32.65-.3q-.05-.25.65.15.75.4.75.55.4 2.5-.3 4.5-.75 2.2-2.6 3.25-.25.1-.75-.35t-.3-.6q1.65-.85 2.35-3.05.65-2.1.2-4.45m-7.75-5.45.85.2q.65.35.45.55-2.05 1.8-1.95 5.1.1 1.9.6 3.55.55 1.7 1.45 2.55.2.2-.2.6l-.6.25q-1.15-1.05-1.9-2.95-.75-1.95-.8-4.15-.1-3.5 2.1-5.7"/></svg>