<svg xmlns="http://www.w3.org/2000/svg" width="346" height="409" viewBox="-0.1 -0.4 345.9 409.3"><path fill="#97ae79" d="M137.85 209.3q-26 15.8-28.5 16.55l-2-3.15q5.65-2.55 12.3-6.3 13.3-7.45 18.4-13.15z"/><path fill="#b4ce8e" d="M240.25 146.65q11.45 8.05 22.65 20.1 12 13 19.65 26.45 8.65 15.1 9.85 27.85 3.25 25.75 3.25 27.95l-.25 11.5q-.8 14.15-3.6 27.25-8.9 41.95-34.3 57.8-14.3 8.95-36.35 15.35-24.45 7.1-51.1 8.75-66.6 4.1-119.45-25.85l-24-1q-13.1-.95-13.1-1.7l5.7-7.1q5.9-7.1 7.15-7.25-5.25-4.75-10.6-10.3-10.65-11-10.95-14.7l3.75-2.5-4.15-11.2Q.5 276.55 1.6 275q39.6 15.1 41.85 15.1-.75-4.9-.6-9.95.3-10.15 4.8-11.1l8.85 11.6q9.25 11.65 11.45 11.95H79.3q8.55-4.65 17.05-11.8 17.05-14.25 17-26.5l6.3-18.3q6.65-18.7 8.65-20.9 20.2-21.5 40.75-40.65 40.6-37.8 52.6-36.55 7.15.75 18.6 8.75"/><path fill="#97ae79" d="M221.65 137.9q2.85.3 6.35 1.8l-3.65 8.6q-12.2 19.7-38.5 48.6-24.25 26.7-42.4 41.8-.9.75-2.05.65-1.05-.1-2.6-1.05-2.45-1.55-2.95-4.2-.6-3.35-.6-9.5l.2-10.5-11.2 9.75q3.35-8 4.05-8.75 20.2-21.5 40.75-40.65 40.6-37.8 52.6-36.55M26.6 342.8q-13.1-.95-13.1-1.7l5.7-7.1q5.9-7.1 7.15-7.25-5.25-4.75-10.6-10.3-10.65-11-10.95-14.7 66.9 41.8 141.05 45.2 31.65 1.45 60.8-4.6 27.1-5.6 48-16.75l23.55-1.6q-8.55 14-20.7 21.55-14.3 8.95-36.35 15.35-24.45 7.1-51.1 8.75-66.6 4.1-119.45-25.85z"/><path fill="#b4ce8e" d="M243.3 46.5q-.35 0-.6.25-.4.4-.15 1 8.65 15.7 18.75 42.45 10.65 28.25 14.05 45.95 1.2 6 4.55 14.05 2.25 5.35 4.9 10.45 2.1 4.1 8.65 20.35l1.7 4.15q2.8 6.3 14.45 45.15l-.8.75-1.5.5-.4-.05-.3-.25Q293.2 221 288.3 215.7l-.65-.25h-.2q-.5.2-.6.65-1.4 6.95-3.8 13t-4.95 8.95l-1.45 1.05-1.6.45h-.25q-11.3-26.7-31.45-59.4-13.95-22.65-20.15-30.45l-1-.55q-.55 0-1.05.65l-1.45 1.95q-19.9 26.8-42.5 50.55-17.2 18.05-34.8 33.1h-.1q-.9 0-2.3-.9-1.35-.9-1.4-1.45l-.3-23q0-.5-.45-.75l-.4-.1-.5.2q-3.6 2.95-14.6 9.65-10.6 6.45-12.35 7-.55-.2-1.55-1.45-1.1-1.35-1.1-1.9 6.25-6.3 16.45-24.7t21.95-44.7q9.3-20.8 16.45-39.65 7.15-18.95 8.55-26.45.15-.65-.45-.9l-5.5-2.7q-2.8-1.25-4.15-2.1-2.05-1.3-3.35-3.05-.85-1.1 1-5.7l.9-3.05.4-5 .9-11.1q.35-6.6.1-10.85-.3-4.35-4.75-14.1-3.65-8.15-5.8-11.3-1.3-1.9-1.35-4.4 0-2.65 1.6-4.25 2.55-2.45 8.45-5.25 6.05-2.9 9.6-3.2L169.8.2q7.3 0 19.6 2.65 13.25 2.9 19.25 6.35 9.45 5.4 28 23.1Q253 47.85 255.7 51.9l.1.3-.25.05q-1.6-.3-11.85-5.65z"/><path fill="#b4ce8e" d="M70.4 180.9q3-5 14.55-13.65 11.6-8.65 29.1-18.95 14.7-8.7 27.3-14.85 12.6-6.2 15.65-6.2l.25.05q1.5.55 2.55 3.15 1 2.6 1.3 6.8 1 12.2-3 27.1-4.35 16.15-10.9 19.7-4.55 2.5-60.35 16.05l-.3.1-3 .35q-4 0-7.9-1.9-4.3-2.05-6.25-5.55-3.1-5.4 1-12.2m256.4 89.3-.75 1.5 2 2.2 2.25 2.05 3.9.45q3.3 1.85 5.95 10.05 2.35 7.4 1.75 10.15-.05.2-.55.2l-2.75-.25q-.5-.05-1.45 1.15-.95 1.15-.5 1.3l2.3 1.05q3.35 1.9 3.85 3.05 1.1 2.55-.55 11.75-2.1 11.65-7.9 20.55l-.1.35q-1.05 7.75-5.3 14.65-4.2 6.85-10.45 10.9-.6.35-.35 1 1.5 3.9 4.95 7.5 2.5 2.55 6.75 5.6 2.7 1.9 7.45 6.4 5 4.8 6.65 7.15l.7 1.4-2.25.3-6.95-.75-.1-.05-19.2.5-.35.1q-2.2.95-3.85.95l-.6-.05h-.1q-.4 0-.65.35l-18.5-.25q-9.5-.15-20.55-5.3-10.75-5-10.9-8.9.05-1.7 3.35-4.6 3.6-3.25 6.4-9.95.25-.6-.3-1-14.25-9.5-16.65-28.1-1.85-13.95 2.85-26.9 1.85-5.15 5.55-11.5l.1-.35q.8-14.5 13.6-32.1 5.35-7.4 10.7-12.05 5.55-4.8 9-4.8 1.65 0 5.2 2.85 3.2 2.55 5.6 5.35.25.3.6.3h.25l3.65-.8.25-.05q2.9 0 9.8 5.65 6.6 5.4 7.1 7.25 0 1.7-.9 3.75m-189.6-23.55q4.05 3.55 8.5 9.65 9.45 12.85 15.15 28.4 6.25 17.15 4.35 28.95l.05.35q1.85 6.3 1.6 11.7-.65 12.1-10.3 24.75-9.1 12-15.95 12.25-.35 0-.6.25l-3.1 3.05q-.45.45-.2 1 1.35 2.75 2.3 10.15.8 6.4.75 11.05l.15.4q2.2 3.95 3.35 8.9 1.15 4.75.5 6.35h-.1q-2 0-8.55-3.15-6.05-2.85-8.35-4.55l-.5-.15-.25.05-3.45.4-4.15-.5-.25-.05q-.5 0-.75.45-2 3.6-4.95 7.65-3.05 4.25-4.1 4.7-1-.65-3.45-5.6-2.35-4.75-3.85-8.85-.15-.55-.8-.55h-.1l-1.05.05q-3.35 0-6.95-1.2l-.25-.05-.5.15q-2.4 1.8-8.8 4.4-6.85 2.75-9.85 2.75l-.85-.1-.2-.1q-.85-1.55 2.65-8.35 3.8-7.4 8.05-9.85l.45-.65q.3-3.35 4.2-9.5 3.6-5.6 7.1-9 .45-.45.2-.9-2.8-7.85-4.95-17.05l-.45-.55q-2.95-1.4-5.9-4-3.3-2.95-3.9-5.1-1.4-4.95-2.55-12.25-1.1-6.8-.9-7.85.6-2.25 4.4-6.1l.25-.45q.35-2.7 1.7-7.9.2-.75-.5-1-1.2-.45-2.55-1.3l-1.6-1.25q.05-1.4 2.5-8.2 2.45-6.95 3.5-8.1 1.5-1.6 6.95-2.5l.6-.4q2.3-3.7 4.55-6.15.4-.4.15-.9-.6-1.35-.4-3.1.2-1.55.9-2.45.95-1.25 6.65-5.7 5.9-4.65 7-4.75h.55l2.25.2.15.05.6-.25q5.4-5.55 9.7-8.65 4.3-3.05 6.7-3.05l.45.05q2.9.4 7 4"/><path fill="#0d131a" d="m338.4 296.45.2 3.75-2.4-1.35-.4-2.4zm-8.7-20.75-14.25 1.2 3.3-2.95q3.8-3 6-3zm-238.75 1.65 1.95-3q2.05-3 2.6-3.15l1.1-.3q1.5-.2 3.45 0 6.2.65 14.75 5.6z"/><path fill="#b4ce8e" d="M334.95 188.5q-3.45 6.7-14.8 3.9l-27.4-13q-6.6-13.35-12.7-27.95-12.25-29.15-9.9-35.25l9.1 6.35q11.05 7.95 20.7 16 30.85 25.75 36.2 42.65.55 3.95-1.2 7.3"/><path fill="#b4ce8e" d="m285.5 127.1 13.25-5.1q13.65-4.7 15.95-2.65l-3.1 5.8q-4.2 7.35-9.8 14.95zm6.5-37.15q-2.3 11.85-10.15 34.15l-11.7-7.9-5.3-15.5 12.95-9.45q13.3-9.3 14.95-8.7l.05 1.5q-.05 2.2-.8 5.9"/><path fill="#b4ce8e" d="m285.5 127.1-3.65-3 2.5-7.25 10.4 6.1zm27.55-38.65q0 1.35-22.95 11.25l-23.6 4.45-11.55-28.9L284 81.1q29.05 6.15 29.05 7.35m-69.95-39.4 28.15 5.45q28.25 5.8 28.45 7.55l-45.55 11.1zm-30.2-36.8 18.5 8.45q20.45 10 30.3 17.95L242.25 38z"/><path fill="#fff" d="m185.1 9.45 8.6 2.95q9.85 3.75 16.05 7.95l-11.4 1.2-7.15-5.6q-6.95-5.75-6.1-6.5"/><path fill="#922f00" d="m191.4 42.25 2.75 9.9q-2.7 6.6-8.35 12.95-11.25 12.7-25.8 11.3-.1-19.8.35-24.4 1-9.1.65-10.5-6.7-18.45-9.8-21.9l-1.2-3.35.45-1.5q.95-1.55 3.5-1.7l5.05-.45q5.35-.25 6.55.45l11.75 8.85q10.3 8.1 10.8 9.2.45 1 3.3 11.15"/><path fill="#fff" d="M163.4 12.8q2.4-.2 4.4 1.15l1.5 1.45q-2.55 5.8-3.35 5.65-.5-.05-1.55-4.15zm-12.85 1.15q2.05-1.4 4.45-.8-2.15 7.8-3.45 7.8-.6 0-.85-3.5z"/><path fill="#ed8599" d="M191.15 40.7q2.95 9.45 3 11.55-3.2 6.9-9.05 13.35-11.7 12.95-25.1 10.8-.95-7.9 2.1-17.45 6.05-19.1 26.1-27.25z"/><path fill="#fff" d="m167.9 76.15-.85-3.65q-.8-3.75-.25-4.15t4.25 2.4l3.55 2.9q-4.95 2.5-6.7 2.5m-7.9.25-3.65-3.15q-3.5-3.35-2.9-4.4.65-1.1 3.55-.3 1.45.45 2.75 1.05l.05 3.2q.05 3.3.2 3.6"/><path fill="#97ae79" d="m171.45 86.65-8.4 25.9-5.1.65-6.6-6.25L170.3 86.3z"/><path fill="#b4ce8e" d="M143.4 133.2q-2.8-10-5.35-20.2-5.1-20.35-3.85-21.05 1.2-.7 14.4 12l12.95 12.9-3.6 11.05zm-18.95 9.9-6.55-11q-6.35-11.15-5.65-11.95t15.1 6.45l14.25 7.4z"/><path fill="#fff" d="M79.9 187.45q3.9-3.65 5.45-3.45 1.65.25 2.75 3.15 1.1 2.8.2 4.1-.75 1.1-6.3 1.1-5.4 0-5.55-.6-.3-.7 3.45-4.3m-20.3.5q-.35-.45 5.2-2.6 5.4-2.15 6.5-2.15 1.05 0 .5 3.95-.55 4-1.65 4.1-1.1.15-5.55-1.25-4.5-1.4-5-2.05"/><path fill="#dbdcdc" d="M70.15 203.3q-.4-.5 1-3.9l1.5-3.35 6.4 3.45-4 2.3q-4.2 2.15-4.9 1.5"/><path fill="#fff" d="m333.9 190.15 2.6-7.7q4.2 8.25 3.9 9.5-.1.65-6.5-1.8"/><path fill="#dbdcdc" d="M326.6 193.7q-.5 4-1.15 4.1-.45.05-2.3-2.35l-1.8-2.4z"/><path fill="#0d131a" d="M195.4 12.55q-.45.9-2 1.9-1.7 1.05-2.95 1.05l-4.15-3.75q-.15-.65 0-1.5.1-.75.3-1l3 .95q3.5 1.15 5.8 2.35"/><path fill="#fff" d="M187.7 10.5q.4-1.25 1.65-.9.5.15.7.6.25.45.1.95-.15.55-.7.8l-.85.05q-.5-.1-.75-.55t-.15-.95"/><path fill="#ce7486" d="m188.2 31.7 2.95 9q2.95 9.45 3 11.55l-3.2 5.7Q180.9 39.5 163.2 55.9q6.65-16.7 25-24.2"/><path fill="#97ae79" d="m162.3 82.3 3.45.65q4.35.55 8.75.15 14.05-1.25 23.35-11.8 7.5-8.45 9.05-6.4 1.7 2.15-1.5 17.8-.85 4.2-7.6 8.25-6.4 3.85-11.3 3.85-1.15 0-3.05-1.45-2.6-2.1-4.25-2.9-8.45-4.05-16.9-8.15m99.4-43.65L242.25 38 230.2 27.25l6.55 1.1 10.3.9q14.85 8.25 14.65 9.4m30.7 44.3q20.65 4.5 20.65 5.5 0 1.35-22.95 11.25l3.5-16.3zm-29.15 13.1q8.45-7.95 13.25-16.5l15.25 3.25L265 100.3zM281.4 66.5q1-4.9.75-9.65 17.35 3.85 17.55 5.2zm4.1 60.6-3.65-3 2.5-7.25 10.4 6.1zm34.65 65.3-27.4-13q-8.55-17.35-15.25-34.05 11.2 12.5 27.65 26.75 14.6 12.65 25.65 20.25-4 1.7-10.65.05"/><path fill="#fff" d="M333.15 194q-.4.4-5.45-1.8-5.1-2.2-5.25-2.95-.4-1.55.65-3.45 1.45-2.55 4.95-1.8l2.65 3.35q2.6 3.85 2.45 6.65"/><path fill="#dbdcdc" d="M333.15 193.7v.3q-.4.4-5.45-1.8-5.1-2.2-5.25-2.95-.3-1.15.35-2.8 4.15 3.15 10.35 7.25m2.65-7.55 1.55 1.85q1.75 2.25 2.9 4.25l-3.15-1.05q-3.15-1.1-3.3-1.5z"/><path fill="#97ae79" d="M277.05 276.35q2.7-3.3 8.25-2.3 5.8 1.05 10.5 6.25 5.5 5.95 7.1 15.25 1.9 10.95-2.05 24.75l-.8.2q-.95.4-1.55 1.6l-2 3.7q-2.2 4.2-3.7 8.25-4.75 13-1.85 21.25 1.6 4.55 6.75 8.65l2.85 2.35q.95.95.3 1.5-5.35 4.75-7.1 9.15-2 4.85 1.7 6.8l-2.65 2.75q-2.3 3.1-.7 4.95-9.5-.15-20.55-5.3-10.75-5-10.9-8.9.05-1.7 3.35-4.6 3.6-3.25 6.4-9.95.25-.6-.3-1-14.25-9.5-16.65-28.1-1.85-13.95 2.85-26.9 1.8-4.95 5.4-11.3 3.65-5.2 7.95-10.3z"/><path fill="#fff" d="M310.25 391.95q3.5 9.45 3 12.05-2.65-.2-11.6-5.8-8.95-5.65-10.05-7.8l-.05-.05q-.4-1.65 1.5-4.25 1.7-2.15 4.15-3.75 2.75-1.75 5.1-1.75l1.65.3q2.65 1.2 6.3 11.05m13.2-13.95q2.3.05 6.9 6.4 4.35 6 7.1 12.5l.35 1.25-.8-.15q-2.05-.4-10.05-3.25-8.75-3.05-10.4-4.3-.8-.55-.9-2.15t.55-3.55q.9-2.8 2.75-4.65 2.05-2.1 4.5-2.1"/><path fill="#fff" d="M327.5 381.9q.05-1.3.45-2.65.75-2.7 2.35-3.1l7.2 6.4q7.15 6.6 7 7.85l-3.8.2q-4.4-.05-7.25-1z"/><path fill="#97ae79" d="m275.6 263.85 5.2.6q5.5-.15 11.2-2.9-2.55 1.6-6.25 4.85-10.85 9.65-23.05 27.9-.65-2.3.6-7.25 2.55-9.9 12.3-23.2"/><path fill="#dbdcdc" d="m295.45 383.75 3.7 5.6q5.45 7.05 14.35 14.4-5.3-2.3-10.7-5.2-10.85-5.8-11.4-8.65.3-1.3.95-2.75 1.3-2.85 3.1-3.4m21.95-1.45 8.4 6.65q9 6.95 12.1 8.5-4.1-.75-8.9-2.1-9.65-2.65-13.15-5.45l.05-3.45q.3-3.55 1.5-4.15m11.25-3.5 3.6 3.85q5 4.5 11.95 7.75l-10.6-.65q-4.05-6.9-5.9-8.5z"/><path fill="#97ae79" d="m83.4 280.25.7-.4 1.9-.45q.45 10.65 6.9 18.35 8.25 9.85 24.2 11.15 18.85 1.5 31-5.55 3.8-2.2 6.5-5l1.9-2.35-7.45-10.7q3.35-2.2 4.85-4.4 1.85-2.85 2.15-7.4 5.3 10.8 7.75 20.9 2.7 11.1 1.4 19.25l.05.35q1.85 6.3 1.6 11.7-.65 12.1-10.3 24.75-9.1 12-15.95 12.25-.35 0-.6.25l-3.1 3.05q-.45.45-.2 1 1.35 2.75 2.3 10.15.8 6.4.75 11.05l.15.4q2.2 3.95 3.35 8.9 1.15 4.75.5 6.35h-.1q-2 0-8.55-3.15-6.05-2.85-8.35-4.55l-.5-.15-.25.05-3.45.4-4.15-.5-.25-.05q-.5 0-.75.45-2 3.6-4.95 7.65-3.05 4.25-4.1 4.7-1-.65-3.45-5.6-2.35-4.75-3.85-8.85-.15-.55-.8-.55h-.1l-1.05.05q-3.35 0-6.95-1.2l-.25-.05-.5.15q-2.4 1.8-8.8 4.4-6.85 2.75-9.85 2.75l-.85-.1-.2-.1q-.85-1.55 2.65-8.35 3.8-7.4 8.05-9.85l.45-.65q.3-3.35 4.2-9.5 3.6-5.6 7.1-9 .45-.45.2-.9-2.8-7.85-4.95-17.05l-.45-.55q-2.95-1.4-5.9-4-3.3-2.95-3.9-5.1-1.4-4.95-2.55-12.25-1.1-6.8-.9-7.85.6-2.25 4.4-6.1l.25-.45q.35-2.7 1.7-7.9.2-.75-.5-1-1.2-.45-2.55-1.3l-1.6-1.25q.05-1.4 2.5-8.2 2.45-6.95 3.5-8.1"/><path fill="#fff" d="M80.15 383.1q2.7-2.5 5.05-2.6 2 .15 4.1 3.3 1.5 2.1 2.2 4.6.7 2.45.3 3.9-1 1.3-8.15 4.3-7.65 3.2-10.9 3.2l-.85-.1-.2-.1q-.3-.6.45-3.1.9-3 2.8-6.45 2.45-4.4 5.2-6.95m38.1 11.5q-.65 2-4.6 7.75-4.05 5.8-5.3 6.35-1.25-.85-4.55-7.9-3.15-6.8-3.25-8.25.05-2.9 3.6-5.95 3.25-2.8 5.6-2.85 1.45.05 3.15 1.15 1.7 1.15 3.1 3.05 1.35 1.8 1.95 3.65.65 1.8.3 3m21.65-6q2.2 3.95 3.35 8.9 1.15 4.75.5 6.35h-.1q-2.05 0-9.25-3.5-6.7-3.25-7.9-4.4-.45-1.1.05-3.2.5-2.3 1.9-4.55 1.3-2.15 2.95-3.3 1.65-1.2 3.3-1.25 2.4 0 5.2 4.95"/><path fill="#0d131a" d="M87.9 297.4q6.35-1.65 9.3-.95l-7.75 4.8q-8.05 5.2-9.35 7.2l2.05-9.2z"/><path fill="#97ae79" d="m1.6 275 6.15 8.4q8 9.3 17.1 13.75-11.55.6-16.3 2.1-2.4-5-4.45-10.55Q0 277.6 1.6 275m157.6-115.45q-1.85 8.95-4.8 15.35-3.3 7.05-7.2 9.15-4.55 2.5-60.35 16.05l-.3.1-3 .35q-3.25 0-5.45-.7-2.7-.9-4.95-3.05 16-1.3 40.45-11.95 24.2-10.5 45.6-25.3"/><path fill="#dbdcdc" d="m59.85 187.4 5.75.6q5.05.35 6.1 0-.6 3.15-1.75 3.2l-4.55-.95q-4.75-1.25-5.55-2.85m22.25 4.8q-5 .35-5.4-.65l5.1-1.3q5.25-1.55 6.15-2.8 1.15 3 0 3.75-1.1.7-5.85 1"/><path fill="#3396cd" d="M236.65 169.7q16.1 24.05 24.45 41.5-4.55 11.6-11.7 26.15-14.3 29.1-27.1 43.75-8.2-8.75-18.45-22.4-20.55-27.35-30.95-52 5.95-5.85 15.1-16 18.25-20.25 34.2-41.55z"/><path fill="#2880ae" d="m222.2 149.15 1.65 2.1q-7.45 11.65-22.1 28.4-10.35 11.8-27.65 29.85l-1.2-2.8q5.95-5.85 15.1-16 18.25-20.25 34.2-41.55"/><path fill="#97ae79" d="M201.2 169.85q18.5-21.75 21.55-26.65l5.95 8.15q7.45 10.35 14.55 21.5 22.75 35.6 34.3 65.6l-2.6 1.35q-6.85-14.8-16.9-33.55-20.05-37.45-35.85-57.1-11.55 14.55-27.25 32.6-31.4 36.1-52.15 53.55l-2.1-.65q-2.1-.8-2.1-1.7 4.7-3.45 12.65-10.5 15.85-14.05 32-31.85zm85.95 44.7 1-4.65q19.45 18.8 21.75 20.3l-2.95 1.5z"/><path fill="#97ae79" d="M257.15 231.05q-8.55 18.65-20.2 35.55l-6.15 9q-6.55 9-8.4 8.9-3.85-3-10.5-10.35-13.3-14.75-27.2-36.55-13.85-24.65-15.1-27.6l3.3-3.3 4.4 8.35q5.6 10.3 11.5 20.1 18.8 31.35 33.5 45.95 4.9-5.35 12.2-16.75 14.55-22.8 26.6-53.15l2.25 4.55z"/><path fill="#a9cae7" d="m240.85 181.75 9.5 14.25.6 2.2q.7 2.95 1 6.5.95 11.45-2.2 25.05-2.35 6.8-11.6 22.6l-8.75 14.5q4.1-8.35 7.55-23.2 6.95-29.65 3.9-61.9"/><path fill="#97ae79" d="M202.8 139.5q-.7 2-20.55 9.85l-2.3.95-1.45.3q-1.65 0-2.45-1.55-1.65-3.35-2.35-9.05-.65-5.3.05-6.25 1-1.15 5.2-1.15 5.85 0 13.7 2.1 7.8 2.1 9.85 4.2zm31.9-13.25q-1.3 0-1.65-.6-.45-.85.75-2.9 2.6-4 11.35-11.65 9.45-8.35 12.8-8.4 2.2.1 5.4 4.6 3.3 4.7 4.4 9.75 1.2 5.8-1.95 7.35l-13.6.8-16.4.95zm7.4 10.7q15.15-1.9 21.65-1.9l3.6.35q.75.5.85 2.45 0 3-1.75 6.85-1.75 3.9-3.75 5.3l-1.3.45q-.9 0-2.05-.8l-9.65-5.95q-6.1-3.5-8-4.35-1.8-.75-1.65-1.4.1-.75 2.05-1m-32.25-10.1-2-.25q-7.25-1.4-22.15-1.85l-11.25-1.05q-.8-.6-.65-2.95.1-2.65 1.4-6.5 2-5.8 5-10 2.95-4.2 5.1-4.2 3.75.1 13.45 8.75 9.95 8.8 12.25 14.5.9 2.4.4 3.1-.3.45-1.55.45"/><path fill="#0d131a" d="M235.75 126.15q-2.2.2-2.55-.5l.05-.75q3.75-4.9 13.05-11.7 9.45-6.85 12.25-6.55 2.45.3 5.15 7.1 2.65 6.7 2.1 10.65l-14.5.75zm-25.3.5q-.2.55-1.7.25-4.2-1-15.85-1.8l-14.35-.65q-2.7 0-3.95-.9l-.65-.9q.5-4.6 4.55-11.2 4.15-6.9 7-6.9 4.05 0 11.9 7.05 7.6 6.85 13.05 15.05m-34.3 16.25q-.9-5.9-.2-6.75 1.35-1.6 10.55-.35 8.75 1.2 16.3 3.7-2 2.45-13.55 6.95l-11.2 4.05q-1-1.8-1.9-7.6m77.45-5.35q11.35-.2 11.9.25.85.7-1.35 5.55-2.15 4.85-4.05 6.35l-19.35-11.55z"/><path fill="#97ae79" d="M139.75 119.55q8.5-4.95 17.05-7.55l4.75 4.85-3.6 11.05-14.55 5.3zm-10.95 7.8 12.8 6.65-17.15 9.1-3.65-6.05q2.7-5.05 8-9.7m156.7-.25 2.8-1.15 6.75-2.65q6.35 7.65 9.2 13.35l-2.45 3.45zm-20.65-26.4 2-1.5q8 3.55 18.75 13.9l-3.75 11-11.7-7.9zm-126.75 108q-26.7 17.05-28.55 16.7-1.15-.2-1.8-1.45l-.4-1.25q5-2.4 11.3-6 12.6-7.15 19.25-12.85z"/><path fill="#0d131a" d="M239.05 44.5q-.2-.3 1.5.35 1.7.6 1.85.9 8.6 15.05 19.25 43Q272.7 117.9 276.2 136q1.9 9.85 9.3 24.25 1.9 3.65 6 13.7l4.45 10.85q2.8 6.35 14.5 45.3.25.9-1.4 1.8-1.7.95-2.6.3-14.65-11.25-19.5-16.7-.2-.25-.05-1.55.2-1.35.4-1.1 4.1 5.1 19.55 18.05l1.05-.2.8-.55q-12.05-38.95-14.6-44.65-7.35-18.65-10.35-24.45-7.45-14.4-9.5-24.75-3.5-17.95-15.4-48.45-11.25-28.9-19.8-43.35m71.35 73.25q4.05-.3 4.8.5.8.8-.75 3.95-1.6 3.2-5.8 9.7-4.65 7.2-6.1 8.2l-.95-.55q-.75-.7-.5-.9 1.4-.8 7.2-9.45 5.9-8.75 5.35-9.65-.7-1.2-11.65 2.1-10.95 3.35-15.85 6.3-.3.2-.85-.65-.6-.85-.3-1.05 3.7-2.2 13.25-5.3 9.05-2.95 12.15-3.2M129.15 189.6q-6.75 12.7-11.3 20.1-5.65 9.2-9.65 13.35l.5 1.05q.65.85 1 .75 1.45-.3 14.4-8.15 13.2-8.05 14.05-9.5.2-.3.25.85l-.1 1.3q-2.3 2.3-14.75 9.5-12.1 6.95-13.85 7.3-.8.15-2.25-1.55-1.45-1.75-.75-2.4 3.7-3.7 9.05-12.55 4.3-7.1 10.9-19.75zm40.9-103.25q.05-.25 1.1.2l1 .7q-1.6 10.15-14.05 40.7l-2.4-.1q5.8-14.3 9.7-25.5 3.9-11.3 4.65-16"/><path fill="#0d131a" d="M221.25 148.3q.55-.75.85-.8l.85.7q9.1 10.3 27.9 42.75 18.75 32.35 24.5 47.55l.7-.4.8-.65q8.4-11.3 10.95-30.85.3-2.15.8-2.15t.35 2.15q-.6 9.55-3.75 19.05-2.95 8.95-6.5 12.95-.85 1-2.5 1.6-1.75.6-2.15-.3-11.05-26.15-30.9-58.55-14.3-23.3-20.6-31.1l-.35-.25-.4.3q-13.1 17.3-23.9 29.8-26.65 30.9-55.45 55.55-.8.6-2.5-.45t-1.8-2.2l-.9-32.25q.05-2.05.45-2.05.4-.05.6 1.95l1 17.5.5 14.65q.7.95 2.1 1.5 27.3-23.15 54.9-55.35 15-17.55 24.45-30.65m-78.05-15.05q.25.2-.9.85l-1.3.5q-2.55-1.5-12.5-6.6l-11.8-5.9q-3-1.25-3.4-1-.45.25.95 2.9l5.45 9.05q4.45 7.15 5.85 9.05.2.3-.9.85t-1.25.35l-5.75-9.65-4.95-8.9q-2.45-5.1-1.55-5.9.9-.75 6.35 1.65 3.75 1.65 13.1 6.2 10.85 5.25 12.6 6.55"/><path fill="#0d131a" d="M137.45 94.75q-2.1-1.75-2.55-1.6-.45.2-.05 2.55.35 2.25 4.5 17.55 4.2 15.7 5.6 19.65.1.35-1.2.5l-1.35-.15q-1.4-3.95-5.3-19.7-3.7-14.85-4.15-17.65-.85-4.85.6-5.35 1.3-.45 5.2 2.55 2.25 1.85 22.75 22.55.2.25-.95 1.85l-11.2-11.15zm51-64.5q2.05 3.25 4.75 13.85 2.55 10.15 2.8 14.85.05 1.25-.35 1.3-.4 0-.65-1.2-1-4.6-3.75-14.35-3.3-11.5-4.5-13.3-.9-1.5-9.9-8.65-8.6-6.9-11.1-8.4-2.05-1.35-11.1-.55-2.2.15-2.9.55-.8.45-1 1.75-.05.5-.6-.15t-.3-1.35l.5-1.1q.55-.75 1.45-1.1 2.7-.7 7.25-.9 5.6-.25 7.55.85 3.15 1.9 11.65 8.75 8.9 7.15 10.2 9.15m-20.9 39.25-.35-.15v.5l.9 3.25.9 2.7q.1.35-.9.55l-1.1-.1q-1.05-3.45-1.2-5.8-.15-2.15.55-2.6.95-.6 4.4 1.7 2.9 2 4.35 3.6.2.25-.8.7l-1.15.15q-3.75-3.45-5.6-4.5"/><path fill="#0d131a" d="M165.2 49.05q4-6.9 9.9-11.6 5.75-4.65 12.15-6.3.35-.05.55.75.25.8-.1.85-5.7 1.45-11.45 6.6-5.5 4.9-9.55 11.8-4.65 7.9-5.9 16.9-.95 7-.2 7.55l2.7.25q9.4.05 19.1-8.55 9.5-8.45 11-17.45.1-.35.7 1.35.65 1.65.55 2-2.8 9.55-13.75 17.5-11.55 8.4-21.25 6.25-.6-.15-.65-.75-.6-5.6.65-12.15 1.55-8.15 5.55-15m3.5-33.6q.8.3.75.65-.35 2-1.5 3.7-1.1 1.55-1.9 1.55-1.1 0-2.1-2.7-.95-2.65-1-5.45l.7-.2q.65-.1.65.2 0 1.9.6 4.35.65 2.5 1.15 2.5.4 0 .9-1.15.55-1.3.9-3.4zm-17.1 6.35q-1.6 0-1.6-7.25 0-.35.65-.5.6-.15.6.2l.15 3.45q.1 2.75.25 2.75.4 0 1.25-2.1.95-2.45 1.1-4.9.05-.35.75-.3t.7.4q-.05 3.1-1.5 5.85-1.35 2.4-2.35 2.4"/><path fill="#0d131a" d="M152.95 19.7q3.15 5.65 5.6 11.4 3.25 7.65 3.45 11.65.2 4.25-.65 13.3L160 69.8l-1.65-.1 1.4-13.1q.9-8.9.6-13.85-.2-3.3-3.1-10.45-2.3-5.75-5.15-11.25z"/><path fill="#0d131a" d="m243.8 40.9-11.7-11.45q-13.9-13.35-24.95-19.3-5.1-2.75-17.7-5.65-13.7-3.15-21.45-2.65-2.55.1-8.9 3.05-6.2 2.85-7.65 4.4-1.25 1.25-1.4 3.35-.2 2.2.95 3.9l-.05 2.8q-2.55-2.75-2.85-5.65-.3-3 2-5.35 2.6-2.5 8.25-5.2 5.95-2.8 9.75-3.1 6.75-.45 20.05 2.25 14.15 2.85 20.55 6.5 12.95 7.5 30.75 25.2 6.25 6.15 11.1 11.7 4.35 4.9 4.1 5.2-.55.7-3.8-.4-4.45-1.5-12.9-6.05-10.9-5.85-22-12.55-2.2-1.35-2-1.75t2.5.8q33.9 18.25 34.5 17.6.2-.3-7.15-7.65m-75.3 43.55 4.5 2.15q3.9 1.9 7.6 4.2 2.4 1.5 2.3 1.85-.15.35-2.7-.9l-6.95-3.2-5.3-2.5L161.6 83q-3.2-1.7-5-4-.95-1.3.3-4.9l1.25 1.25q-.4 1.25-.2 2.05.5 2.15 10.55 7.05"/><path fill="#0d131a" d="M221.85 27.9q1.4 1.15 1.2 1.55-.2.35-1.65-.7-11.1-8.15-22.7-13.65-12.05-5.75-19.35-6.05-1.8-.05-1.8-.5t1.85-.5q9.2-.2 20.1 5.05 10.1 4.85 22.35 14.8m108.9 165.5q-4.4 2.2-10.1.2-3.8-1.35-14-6-10.95-5-13.1-6.55-.5-.35-.9-1.9-.45-1.55-.15-1.3 1.6 1.5 13.5 7 11.25 5.2 14.9 6.45 3.35 1.15 6.45.75zm1.95-1.15-.8-2.35q2-1.85 2.7-4.6t-.15-5.6q-2.7-9.2-20.8-27.4-19.85-20-43.35-34.85l-.6-1.85q-.45-1.7-.2-1.55 22.05 13.85 43.15 34.35 20.9 20.35 24.15 31 1.05 3.5-.1 7.05-1.15 3.6-4 5.8m-265.1-1.3 2.4.15q1.75 4.35 8.05 6.7 5.4 2.05 8.75 1.15 57.55-14.35 59.6-15.5 4.45-2.6 7.95-11.35 3.05-7.65 4.55-17.85 1.45-9.65.9-16.95-.6-7.65-3.1-8.5-1.45-.5-13.65 5.6-12.4 6.15-27.05 14.7-38.6 22.55-44.6 32.8l-.75 1.3-2.55.4q.65-1.65 1.55-3.15 6.7-11.05 45.45-33.75 15.3-8.95 27.65-14.85 12.7-6.1 14.8-5.35 3.45 1.2 4.3 9.55.8 7.75-.8 18.25-1.7 10.75-5.05 18.9-3.8 9.1-8.4 11.6-4.95 2.65-60.85 16.2-5.15 1.35-11.15-1.45-6.5-3.05-8-8.6M169 85.35q2.6.65 2.35 1.05-1.65 2.7-9.65 11.15-7.5 7.95-9.85 9.8l-.7-.5q-.6-.6-.35-.8 1.9-1.5 9.25-9.75 7.55-8.5 8.95-10.95m-5.55 25.35q.35-.1 0 1-.35 1.15-.7 1.25l-4.75 1-.8-.75q-.7-.75-.4-.75l3.35-.8zm121.05 5.15q1.1.25 6 3.15 4.75 2.75 5.5 3.45.2.2-.45.75-.6.6-.75.45l-.05-.05q-.7-.55-5.4-3.05-4.9-2.6-5.5-2.6-.35-.05 0-1.1.3-1.05.65-1m-23.05-79q1.95 1.65 1.75 2.35-.15.7-2.4.7l-18.55-1.5-1.45-1-.75-.9 20.4 1.7Q226.5 17.8 209.9 11.35q-.4-.2-.85-1.25-.5-1.05-.15-.95 11.45 4.15 29.45 13.8 16.85 9 23.1 13.9m-6.55 39.6q-.35-.05-.5-1.2-.1-1.15.25-1.15 5.85.4 30.1 5.7 22.85 5 26.25 6.25 2.95 1.05 3.05 1.9.15.85-2.45 2.4l-22.3 10.85q-.1.05-.1-1.25 0-1.35.15-1.4l12.5-5.55q10.05-4.45 10-4.75-.1-.5-25.4-5.9-26-5.55-31.55-5.9m-31.45 68.8-.55-.5-.55.55Q208.45 163 193 180.6q-30.2 34.5-53.55 53-.25.25-.75-.45t-.2-.9q23.45-17.55 54.4-53.25 15.25-17.65 29-35.8.55-.75.85-.75l.9.7q12.15 14.1 30.2 45.75 17.45 30.75 24.05 48.75-1 .95-1.15.6-11.35-28.25-31.4-60.9-15.55-25.4-21.9-32.1"/><path fill="#0d131a" d="m262.7 213.6.65.85.45 1.35q-4.55 16.4-21.3 43.45-6.8 10.9-12.45 18.3-5.75 7.55-7.5 7.65-1.4.05-6.9-5.6-5.95-6.15-13.25-15.6-19.4-25.1-33.25-53.35l.5-.55q.5-.5.6-.25 23.25 47.5 51.95 73.9 1.35-.05 7.1-7.5 6-7.85 12.6-18.35 17.55-27.85 20.8-44.3m65.25-21.9q4.35 1.9 4.55 1.55.35-.6-1.75-4.4-2.25-3.95-3.7-4.2-2.35-.3-3.35 1.4-.75 1.35-.45 2.55.25 1.15 4.7 3.1m5.7.7q.45 2.1.1 2.35l-2.3-.3q-2.8-.65-5.85-2.1-3.7-1.8-4-3.4-.5-2.9 1.35-4.7 1.8-1.7 4.45-1.25 2.2.5 4.25 4.25 1.55 2.8 2 5.15m-45.55 16.35q2.05 2.6 9.75 10.05 7.3 7 11.95 10.95.25.25-.15.55l-.55.15-11.75-10.55q-7.6-7.15-9.7-9.8l.1-.8q.15-.8.35-.55M154.15 69.25q-.4.35 1.7 2.8 2.25 2.55 4.35 3.55.4.2-.65 1.3-2.9-1.35-5.15-4.5-2.25-3-1.45-4.1.5-.55 3.2-.4 2.75.15 4.1.95.3.15-.1 1.05l-.75.75q-.95-.6-3-1.15zM291.1 219.3q-.1-.35 1.1.4 1.15.7 1.2 1.1.8 4.2 1.9 13.15 1.05 9 1.1 11.95 0 .15-1.15.5l-1.2.15q.05-3.05-1.1-13.85-1.2-11-1.85-13.4M137.5 370.55l-.75-2.65 18.55.55q37.15 0 64.45-7.35 23.4-6.3 37-17.2.25-.2.8 1 .5 1.25.25 1.45-13.8 11.1-37.6 17.4-27.4 7.25-64.9 7.25-9.3 0-17.8-.45M44.35 340.3q-4.25-2.95-4-3.5.25-.6 4.8 2.3 23.9 15.05 49.3 22l.35 1.25-1.35.95q-26.8-7.5-49.1-23m25.5-47.15q-5.85-.25-7.45-.1l-1.6-.15q-.1-.35 1.35-.75l7.9-.85q5.85-.3 9 .05.35.05.05 1.2-.35 1.2-.7 1.2h-.1zM20.5 291.4q2.7-3.25 7.65-5.8.3-.2 1.4.3 1.15.5.8.6-5.2 1.9-8.2 5.1-2.9 3.05-3.25 6.75-1.8.45-1.7 0 .75-3.95 3.3-6.95"/><path fill="#0d131a" d="m49.8 342.6 2.4 1.5 1.8 1.35-24.05-1.5q-17.3-.65-17.2-2.85.05-2.1 5.7-8.3 5.15-5.7 7.3-7 .2-.1 1.15.65 1 .75.7.9-2 .75-7.35 6.4-5.25 5.55-5 6.3.3.85 14.9 1.5zm210.5-133.35q.1-.35.9.8t.7 1.5q-3.75 14.5-20 42.55-15.85 27.35-19.85 27.65-1.25-.15-7.4-7.45-6.4-7.65-14.1-18.35-20.2-28.05-28.75-48.2l.95-.8q1-.8 1.1-.5 8.35 19.75 28.5 48.3 7.05 10 13.45 18.05 5.7 7.2 6.25 7.2.85.05 6-7.6 5.45-8.05 11.65-18.7 16.55-28.55 20.6-44.45m15.4 56.35q-13.1 18.7-12.95 29.95l-.85 1.35q-.8 1-.85.65-.65-14.8 12.9-34.1 5.65-8 11.5-13.1 6-5.3 9.8-5.3 2.15 0 6.5 3.7 3.85 3.2 5.75 5.9.2.25-.65.5l-1.1-.05q-1.4-2-5.35-5-3.85-2.9-4.85-2.9-3.25.05-8.95 5.45-5.35 5.05-10.9 12.95m55.45 10.15q.15.3-.6.7l-.9.05q-4.35-4.7-5.2-4.75-1.65-.05-4.75 2.35-2.75 2.15-3.75 3.7-.1.2-.85-.25-.7-.4-.55-.7 1.3-1.95 4.4-4.25 3.45-2.55 5.5-2.5 2 0 6.7 5.65"/><path fill="#0d131a" d="M327.9 266.75q.1 1.05-.2.85-2.8-2.2-9.05 2.2-6.1 4.3-5.35 5.7l.8.7.8.55q4.7-1.1 10.65-1.6l9.05.45q3.65 2.05 6.35 10.65 2.35 7.6 1.75 10.55l-.45.75-.9.1-4.75-.3q-.15.1.05.5l.25.35q1.45.5 3.55 1.75 2.55 1.6 3.1 2.8 1.3 3.05-.7 13.35-2.6 13.25-9.85 22.7-.3-2.4.2-3.15 5.6-8.3 7.7-19.75 1.6-8.75.65-12.2-.2-.7-2.4-2.25-2.1-1.6-2.9-1.7-.8-.25-1.3-1.9-.5-1.7.55-2l3.15-.15 2 .05q.55-.9-2.2-8.9-2.9-8.35-5-9.2l-9-.4-9.55 1.2q-.85-.1-1.95-.9-1.3-.9-1.35-1.95 0-3.7 6.2-7.65 6.25-4 9.8-2.3zm-217.85-11q-.9.05-6.45 3.95-5.7 4.05-6.85 5.65-.6.9-.65 2.5-.05 1.7.65 2.6.2.3-.5.8-.65.5-.85.2-1.2-1.6-1-3.95.15-2 1.1-3.25t6.7-5.8q6.1-4.9 7.55-5 6.25-.4 16.45 6.95 9.8 7.05 19.45 18.4 10.1 11.85 16 23.8 6.55 13.3 6.05 23.15-.7 12.8-11.2 26.15-4.55 5.75-9.15 8.9-4.8 3.3-8.05 2.65-.3-.05.3-.85l.8-.75q6.1.15 15-11.95 9.4-12.7 9.95-24.2.5-10.2-6-23.2-5.7-11.45-15.65-22.8-9.2-10.6-18.65-17.35-9.55-6.8-15-6.6"/><path fill="#0d131a" d="M95.65 265.7q.05-.95.25-.95 2.95-.6 8.25 1.55 7 2.9 12.1 9.3 1.2 1.45 1.05 1.9t-1.95.35q-9-.45-17.25.15-11.2.8-13.7 3.25-1.1 1.1-3.5 7.65-2.4 6.45-2.1 7.2.3.65 1.85 1.55 1.5.85 2.25.95.9.05-.45 1.6-1 0-3.35-1.4-2.4-1.4-2.5-2-.2-1.15 2.4-8.4 2.6-7.35 3.8-8.7 2.5-2.8 14.5-3.55 7.65-.45 17.25 0-4.65-5.55-11-8.25-5.25-2.25-7.7-1.4-.3.1-.2-.8M333.7 390.45q-.35-.1-.7-1.05-.35-1 .1-.8l5.4.95q3.95.4 4.2 0 .25-.5-5.3-6.1t-8-7.35q-4.6-3.25-7.3-5.95-3.65-3.6-5.55-7.6-.15-.3.95-.8 1.15-.55 1.25-.2 1.35 3.85 4.6 7.3 2.6 2.75 7 5.85 2.75 1.95 7.55 6.55 5.1 4.8 6.75 7.2 1.15 1.65.75 2.3-.45.75-3 .75l-5.5-.5z"/><path fill="#0d131a" d="M80.1 309.65q-.95.7-.9.35.45-3.75 2.25-10.9l.9-.1q.8.2.7.55-1.6 6.5-1.95 9.05zm-34.55-39.7q1.15-1.2 1.95-1.2 1 .15 8.45 9.8 8.2 10.6 13.2 13.7.3.2-1.2.35l-1.8-.05q-3.55-2.1-11.3-12.25l-7.4-9.6q-1.95 0-3.1 5.25-1.85 8.1 1.95 23.4.4 1.45.2 1.7l-1.95.05q-12.45-2.85-25.9-1.95-11.75.8-12.65 2.8-.6 1.3 5.7 8.9 7.95 9.5 20.1 18.9 2.3 1.75 1.8 2.15t-2.8-1.15q-11.9-7.85-20.2-18.05-7.3-9-6.1-11.5 1.2-2.4 11.95-3.85 13.2-1.8 27.7 1.4-3.85-15.8-1.1-24.3.9-2.9 2.5-4.5m84.85-25.55q-1.8-.3-6.65 2.95-4.35 2.95-10.15 8.05l-1.35.1q-1.05-.2-.8-.45 5.05-5.35 9.4-8.8 6.25-4.9 9.45-4.45 4.85.7 11.85 8.7 6.85 7.8 12.85 19.15 6.4 12.1 9.4 23.6 3.3 12.95 1.35 22.05l-.75-.45q-.65-.8-.6-1.1 1.4-7.4-1.9-19.25-2.95-10.75-8.85-22.35-5.75-11.25-12.05-18.9-6.6-8.05-11.2-8.85m-35.1 25.8q.25-.25.85.35t.35.85q-2.5 2.6-4.9 6.5l-1.3.5-.9-.1q2.85-4.9 5.9-8.1"/><path fill="#0d131a" d="M115.8 275.85q.2.1-.1.9l-.5.65q-14.8-7.45-19.6-5.8l-.1-.5q-.05-.5.25-.6 5.65-1.9 20.05 5.35m-18.2 19.5q.35.05.3.85-.05.85-.4.85l-7.45.5q-4.9.8-7.5 2.7l-.45-.65q-.35-.7-.1-.9 1.45-1.4 6.15-2.4 4.85-1.1 9.45-.95M298.95 137.8l.9.25q.85.3.85.6-.3 7.2-4.45 14.65-4.35 7.8-10.15 10.6-.15.05-.55-.7-.45-.7-.15-.85 4.5-1.95 8.9-9.85 4.45-8.05 4.65-14.7m12.4 11.95h.05l.85.1.8.55q-.6 11.6-4.65 18.85-4.1 7.3-12.65 11.7l-.9-.4q-.8-.45-.55-.6 7.1-3.65 11.9-12.05 4.85-8.5 5.15-18.15M288.8 83.2q3.2-1.6 4.45-1 1.25.65.65 3.95-.9 4.75-3.9 15.65-3.85 13.9-7.25 22.5-.1.2-1.2-.5-1.15-.65-1-.95 2.2-4.2 7.35-21 5.35-17.4 4.2-18.1-.9-.55-12.95 8.2-11.2 8.05-13.7 10.4-.25.25-.7-.85-.45-1.05-.2-1.3 6.4-5.45 24.25-17m46.55 98.75q-.2-.25-.1-1.6.1-1.4.3-1.15 2.15 2.45 3.3 4.9 1.15 2.4 2 6.15.4 1.8 0 2.2l-2.35-.05q-1.1-.25-3-1.05l-2.45-.95q-.3-.1 0-.95.25-.85.55-.65.9.65 3.55 1.7l2.65.95q.25-.25-1.4-4.1-1.8-4.05-3.05-5.4m-10.2 14.9q.4.05.6-3.95 0-.35.85-.35.8 0 .8.35-.15 2.75-1.05 4.55l-1 .65q-.35-.05-1.35-.75-1.05-.75-2.3-2.3-1.3-1.6-2-3.05l.9-.05q1.05.25 1.15.45l1.7 2.5zM80.4 187.9q-3.4 3.15-3.2 3.55l4.65.1q4.6-.3 5.5-1 .8-.65-.15-3.2-1-2.55-2.5-2.6-.85-.05-4.3 3.15m-4.55 4.35q-.65-1.45 2.65-4.95 3.25-3.45 5.8-4.2 1.8-.45 3.7 2.3 1.95 2.85 1.05 5.7-.85 1.95-6.75 2.3-5.75.35-6.45-1.15m-5.85-.3q-2 .3-6.15-.9-4.9-1.4-4.95-3.4-.05-1.25 4.9-3.3 4.8-2.1 7.1-2 2.2.1 1.8 4.65-.45 4.6-2.7 4.95m.75-7.9q-.35-.1-5.15 1.55-4.85 1.7-4.85 2 0 .5 4.15 1.7 4.1 1.15 4.9.95.75-.2 1.15-3.15.35-2.95-.2-3.05m1.1 11.2q.2-.3 1.05.2.9.5.7.8l-1.65 3.35q-1.35 3-1.2 3.15.25.2 4.15-1.8 3.9-1.95 4.25-2.45.2-.25 1 .3.85.6.65.9-.95 1.15-5.5 3.15-4.9 2.1-5.75.95-.8-1.05.55-4.7.85-2.3 1.75-3.85m32.75-39.7q-.35-.05.2-.75t.9-.65q11.8 2.35 14.8 12.75 2.9 9.8-2.5 25.2l-.9.05q-.8-.25-.7-.6 5.3-15 1.15-25.2-3.7-9.2-12.95-10.8m16.35-9.95.4-.7q.4-.7.7-.65 14.1 2.55 18.65 15.75 4.15 12.05-1.2 26.45-.1.3-.9 0t-.65-.6q5.1-13.7.3-25.7-4.95-12.3-17.3-14.55M252.5 51.3l-9.65-1.55q-.2 0-.95-1.5t-.45-1.45L253 48.9q11.75 2.15 26.65 5.85 12.85 3.2 18.3 5.05 3.25 1.1 3.25 2 0 .8-2.95 1.75Q258.6 73.6 254.3 74.1l-.5-.95q-.4-.95-.1-1 3.15-.4 23.85-5.2 20.9-4.8 20.8-5.2-.15-.4-14.65-3.8-15.4-3.65-28.4-6.15zM22.55 284.2q-17.4-7.1-19-7.6-1-.3-1.2 0-.2.25-.05 1.5.55 5.05 7.6 21.05.1.35-.9.65-1.05.3-1.15 0-1.85-4.1-3.75-9Q.3 281 .05 276.85q-.15-2.45.9-2.9.9-.35 3.05.5l15.05 6.4q13 5.35 24.4 8.8.35.1.55 1.2.2 1.15-.15 1.05-5-1.05-21.3-7.7m308 58.9q5.35-14.15.5-21.85-2.55-4.1-9.85-4.75-7.5-.65-17.65 2.55-.35.1.9-1.1l1.65-1.3q7.9-2.1 14.15-1.9 8.9.35 12.25 5.6 5.8 9.3.55 23.45-5.4 14.55-17.9 20.3-4.85 2.2-4.85 1.7 0-.45 4.7-3 10.1-5.45 15.55-19.7m-21.25 49.35q-3.55-9.4-5.8-10.15-3.15-1.25-7.5 2.15-4.15 3.25-3.6 5.7 1.25 2.45 10.3 7.6 8.65 4.9 9.2 4.55.85-.65-2.6-9.85m-5.05-12.3q3.3 1.4 7.2 12.5 3.8 10.8 2.4 12.05-1.2 1.15-11.45-5.05t-11.55-8.85l-.05-.15q-1-3.4 4.2-7.7 5.3-4.4 9.25-2.8m19.3-.95h-.05q-3.8.15-5.95 4.8-1.95 4.35-.7 5.75.7.8 9.9 3.9 9.05 3.1 9.3 2.85.45-.45-4.7-8.85-5.35-8.6-7.8-8.45m-7.5 11.95q-2.75-2-.15-7.9 2.65-6.1 7.55-6.1 2.85.05 7.8 7.05 4.3 6.1 6.95 12.4.65 1.6.35 2.1l-1.75.15q-1.95-.35-10.05-3.25-8.9-3.15-10.7-4.45m-176.65-60.2q4 7 5.6 14.45 1.6 7.25.3 11.6-.9 2.8-6 7.85-4.7 4.75-7.9 6.5-3.2 1.8-3.5 1.5-.3-.25 2.6-2.55 3.1-2.45 7.2-6.75 4.8-5 5.25-6.85 1.15-3.75-.25-10.4-1.4-7-4.9-13.55-9-16.75-23.45-17.5-10.65-.65-18.55 7.2-2.95 2.95-4.8 6.45-1.6 3.1-1.6 5-.05 3.8 2.85 15.85 2.8 11.45 4.65 16.1 1.7 4.25 1.15 4.35-.55.15-2.6-4Q93 361.35 90 350.15q-3.05-11.35-3.1-15.8.05-7.1 7.65-13.95 8.5-7.65 19.75-7.35 15.15.4 25.1 17.9"/><path fill="#0d131a" d="M97.25 295.15q1.35.5 1.35 1t-1.25 1.1q-7.85 3.85-14.25 10.1-5.25 5.05-6.05 7.65-.35 1.05.7 7.55 1.05 6.65 2.45 11.75.55 2.15 4.4 5.35 3.2 2.65 5.05 3.4.4.2.7 2.1-1.85-.15-6.3-3.55-4.85-3.75-5.7-6.7-1.4-5.05-2.65-12.5-1.15-7.05-.85-8.05.95-3.3 6.75-8.5 6.1-5.5 13.75-9.5L87 295.9q-5.8.2-8.95 1.25-.45.15-.1-1.75 3.6-1.05 9.9-1.15 6.45-.15 9.4.9M91 392.05q.55-1.85-1.7-6.3-2.3-4.5-4.15-4.4-4.05.25-8.6 8.4-4.2 7.55-3.5 8.8.4.6 9.05-2.5 8.65-3.15 8.9-4m-5.85-12.35q3.05.15 5.75 5.1 2.65 4.85 1.65 7.85-.75 1.7-10.45 5.5-9.95 3.9-11.1 1.85-1.4-2.45 3.65-11.05 5.35-9.1 10.5-9.25m31.9 14.8q.6-2.3-1.9-6.15-2.6-4.05-5.4-4-2.15 0-5.1 2.95t-2.95 5.1q0 2.1 3 8.3 2.9 6.15 3.7 6.15.95 0 4.45-4.9 3.5-4.95 4.2-7.45m-7.3-11.6q3.6.05 6.9 4.55 3.25 4.35 2.4 7.4-.6 2.05-4.95 7.9-4.5 6.15-5.85 6.15-1.4 0-5-7.5-3.45-7.1-3.55-8.8.05-3.2 3.85-6.55 3.5-3.05 6.2-3.15m31.05 10.25q-2.75-8.7-6.15-8.65-2.65.05-5.45 4.7-2.65 4.4-2.05 6.05.1.3 7.7 3.9 7.65 3.55 7.75 3.35.7-1.35-1.8-9.35m-6.15-10.35q4.2-.05 7.9 9.6 3.55 9.3 1.8 12.1-1 1.1-9.65-3.05-8.45-4.05-8.95-5.05-1.3-2.8 1.6-8 3.1-5.55 7.3-5.6m3.2-180.45q.25-.25.35.6.1.9-.15 1.2-2.6 3.55-14.85 10.85-10.35 6.15-15.6 8.3-.1 0-.05-.65 0-.65.15-.7 5.45-2.35 15.5-8.65 11.3-7.05 14.65-10.95m-11.4 14.2q.1-.2 1.8-1.35 1.65-1.15 1.45-.85-2.7 4.55-8.05 18.75-5.5 14.55-6.25 19.6l-1.2 1.2q-1.2.9-1.2.55.05-4.25 5.7-19.3 5.05-13.55 7.75-18.6m64.85-72.05q10.55-4.35 10.6-5.05.05-2.15-13.05-4.55t-13.95.3q-.6 1.9.05 6.55.65 4.55 1.75 6.8.45.9 1.3 1.1l1.4-.25zm-18.2-11.35q2.85-3.1 16.85 0 13.85 3.1 13.7 6.35-.05 1.75-10.75 6.4l-12.6 5.15-2.7.25q-1.5-.35-2.3-1.85-1.75-3.55-2.45-9.45-.75-5.75.25-6.85m-4.65-127.5q.95 0 .95.6t-.9.6q-2.5 0-4.5.75-.9.35-1 0-.15-.35.75-.85 1.95-1 4.7-1.1M202.9 20.4l6.3-.7q.35-.05 1 .7t.35.85l-12.75.85q-1.85-.75-7.3-5.65-4.85-4.4-7.75-7.6l1.2.05 1.4.2q4.15 4.2 8.75 8.1l4.25 3.3zm-6.15 160.9q-.35-.05-.2-.9.1-.8.45-.75l24.7 1.3q18.75.35 22-.55.35-.1.55.7t-.1.9q-6.3 1.7-22.3 1.3-14.6-.4-25.1-2m63 35.65q.35-.1.1.9-.25 1.05-.6 1.15-13.75 3.45-38.5 3.3-23.25-.1-43-3.15l-.8-1.15q-.6-1.1-.3-1.05 17.1 2.7 43.25 2.85 27.6.2 39.85-2.85M199.9 253.7q-.2-.05-.25-.95-.1-.9.2-.85 10.2 2.9 21.9 2.9 13.3-.05 21-4.2.25-.15-.2 1l-.6 1.2q-16.25 8-42.05.9m128.6 12.5q.3 1.1-.15 2.65-.55 1.6-1.7 3.1-.2.3-.85-.2-.65-.55-.45-.85l1.15-2.1q.6-1.45.4-2.05-.45-1.6-7.45-6.75-7.2-5.25-9.2-4.9-17.85 3.1-35.55 24.45-6.4 7.7-11.6 16.4-4.25 7.2-5.7 11.4-4.6 13.75-1.55 29.05 3.45 17.3 15.45 24.5l4.45-.1q2.25-1.9 3.7-8.25 4.75-20.05 17.35-31.25 11.55-10.2 26.1-10.25 7.55 0 13 5.15 1.65 1.55 1.4 1.85-.2.3-1.95-1.1-4.45-3.65-12.45-3.65-12.55-.05-24.45 10.25-13.15 11.35-17.35 29.35-2.1 9.05-5.55 10.8-2.2 1.15-5.3-.9-14.75-9.4-17.55-27.95-2.25-14.45 2.8-28.45 5.4-14.95 19.4-30.8 17.55-20 35.55-22.85 2.85-.45 10.3 5.55 7.15 5.65 7.75 7.9"/><path fill="#0d131a" d="m270.05 361.3 2.15 1.2q-2.6 6.85-7.45 11.25l-2.1 2.2q-.6.85-.6 1.25.3 3.35 9.9 7.75 10.25 4.65 19.5 4.65.35 0 .85 1.35.55 1.35.2 1.35-9.8 0-21.2-5.35-11.3-5.3-11.45-9.65v-.1q.05-1.95 3.55-5.2 3.7-3.2 6.65-10.7m67.5-64.85q-.1-.35.65-.35.8 0 .9.35.55 1.5.7 3.8l-.85-.1q-.85-.4-.9-.65zm-7.3 78.95q1.65 1.05 1.2 1.15-2.95 1.55-2.5 5.4.05.3-.85-.35l-.9-.9q0-1.9.95-3.4.85-1.35 2.1-1.9m-14.45 14.1q.3-.15.7.6.35.75.05.9-3.2 1.55-6.1 1.1-.35-.05-.55-1.25-.2-1.15.15-1.1l3.15.2zm-220.85-26q-2.9 2.35-6.75 7.9-4.2 6.05-4.55 9.25l-.85.5-.85.05q.05-3.95 4.9-11.25 4.35-6.55 7.75-9.25.25-.2.45 1.2.15 1.4-.1 1.6m42.2 2.5q1.65 2.6 2.75 11.5.95 8 .65 11.95 0 .45-1.65-2.15 0-4-1.4-11.2-1.35-7.25-2.45-8.8-.2-.3.85-.95t1.25-.35m-36.8 26.8.65.6q.4.7.1.9l-4.6.1q-2.9-.45-5.05-1.2-.3-.15 0-.95.3-.75.65-.65l4.25.85zm17.05 2.75q.35-.75.65-.6l3.95.4 4-.2q.3-.2.75.5.4.7.15.9-1.3.75-4.55.7-3.3 0-5.05-.8-.3-.15.1-.9M234.5 123.2q-.75 1.25-.75 1.85l.1.3.7.1 1-.1 15.45-.95 14.45-.75q3.75-1.9.25-10.45-3.45-8.45-7.4-8.95h-.05q-2.8 0-12.15 7.6-9.1 7.45-11.6 11.35m1.4 3.8q-2.85.45-3.6-.95-.7-1.35.8-3.75 2.6-4 11.3-11.7 9.8-8.7 13.55-8.75 2.05.1 4.7 3.2 2.6 3 4.4 7.1 4.45 10.35-.85 13l-13.95.9zm30.25 15.4q1.55-5 .25-6-.7-.5-12.85.3l-12.15 1.1 6.7 3.95q8.2 4.55 11.65 6.95.85.6 1.35.65l1-.3q2.45-1.55 4.05-6.65m-24.8-2.25q-2.35-1.05-2.15-2.35.25-1.35 2.8-1.65 12.45-1.6 19.3-1.85l6.45.35q2.4 1.65.5 7.8-1.9 6-5.1 8.25-1.9 1.25-4.25-.35-3.15-2.2-9.7-5.95-6.15-3.55-7.85-4.25M208.1 125.8l2.6.25q.35-.35-.5-2.45-2.1-5.5-11.8-13.75-9.4-8-12.75-7.9-2.75.1-7.05 7.9-4.1 7.55-4.05 11.3 0 1.25.4 1.55v.05h.05l1.15.25 3.05.3 9.25.55q14.6.85 19.65 1.95m3.65-2.8q1.15 2.9.25 4-.95 1.1-4.3.45-7.2-1.45-20.9-1.85-11.5-.35-12.8-1.2-3.2-2.5 1.75-13.85 5-11.35 9.55-11.35 4.05.1 14 8.9 10.05 8.95 12.45 14.9"/></svg>