<svg xmlns="http://www.w3.org/2000/svg" width="454" height="481" viewBox="-0.05 -1.15 453.5 480.55"><path fill="#0d131a" d="M131.85 161.7q-8.75 7.85-15 16.25l-1.75.15q-2.05-.8-7.6-4.85l-.55-.35.2-.6q5.25-16.05 9.7-25.9 10.15-22.45 21.7-32.05 2.55-2.1 5-2 2.4.05 3.35 2 3.35 6.5 4.25 18.05.95 12.75-3.25 16.35l-3.6 2.85q-7.45 5.6-12.45 10.1"/><path fill="#1d2087" d="M109 172.2q4.1-12.05 9.8-23.95 10.1-21.1 20.35-30.4 1.75-1.6 3.4-1.7 1.6-.1 2.25 1.25 2.25 4.35 3.6 14.95 1.55 12.2-1.7 15.15l-3.45 2.7q-7.4 5.55-12.45 10.1-8.7 7.85-15.05 16.2-1.4-.55-6.75-4.3"/><path fill="#0d131a" d="M444.45 80.45q6.4.65 8 4.1 1 2.15.2 5.75-.7 3.25-2.55 6.35-2.65 4.55-7.1 9.8-6.1 7.05-11.75 10.5-4.35 2.65-11.5 3.45-7.45.8-18.6-.25-8.2-.65-22.5-3.6-12.15-2.45-13-2.25 1.65 3.5 11.6 9.05 12.6 6.95 25.65 7.55 15.05.75 15.05 9.45 0 1.9-2.5 6.5-2.7 4.9-6.5 9.55-10.1 12.35-18.55 11.8.85 5.55-10.3 15.1-11.3 9.7-19 9.25l-.4 2q-.65 2.2-2 3.3-5.2 4.35-11.6 7.15-5.8 2.5-10.65 2.95-10.55.9-24.9-8.9l-13.55-9.8q-9-6.4-16.5-10.6-10.4-5.85-23.25-9.75-16.2-4.95-30.95-4.9-14.65.1-29.3 4.9-16 5.3-28.15 15.15-.95.8-19.95-14.5l-18.8-15.45 38.85-33.3q40.55-34.25 49.25-39.15 12.4-7 27.05-10.6 16.75-4.15 42.8-5.65l27.35-3.05q24.25-2.6 30.3-1.55l46.65 9.85q41.75 8.9 51.1 9.8"/><path fill="#e9eff8" d="M446.95 95.5q-2.25 3.3-7.05 8.4-6.55 6.85-12 10.15-8.15 5-26.8 2.8l-6.55-1-21-2.95q-7.8-.8-9.2.05-.65.65-.45 1.45.4 1.5 3.4 4.35 3.4 3.2 8.1 6.1 12.75 7.85 26.4 8.45 9.15.45 11.4 4.45 1.7 2.95-.7 7.5-4.55 8.85-11.5 14.7-7 5.85-13.05 5.9l-2.85.85.5.85q.35.55-.05 1.7-2.65 8.2-12.9 15.1-10.15 6.9-16.5 4.95l.75 1.4.25 1.7q-.2 1.9-2.2 3.55-6.15 5.2-11.9 7.35-4.65 1.7-9.85 1.7-7.25 0-28.2-14.5-13.7-9.5-16.55-11.35-9.05-5.9-14.7-8-10.05-3.75-15.1-5.2-14.35-4.1-27.55-4.65-15.4-.7-30.45 3.4-18.3 5-32.25 16.35-1.7 1.35-12-7.2-9.5-7.9-20.8-19.5l17.3-14.8q24.4-21.25 38.05-32.5 22.6-18.6 31.75-23.45 11.4-6.05 22.8-9 13.6-3.55 34.35-4.85l14.55-1.55 30.25-3.25q17.8-1.5 24.2-.45 9.45 1.55 35.6 7.35l31.05 6.6q16.7 3.3 27.25 4.35 4.25.4 5.75 3.6.9 1.85.5 4.3-.45 2.4-2.05 4.8"/><path fill="#c9cfd7" d="M383.15 133.8q3.85 1.35 17.35 3.3 11.75 2.4 12.5 7.05l-.5 1.1q-4.55 8.85-11.5 14.7-7 5.85-13.05 5.9l-2.85.85.5.85q.35.55-.05 1.7-2.65 8.2-12.9 15.1-10.15 6.9-16.5 4.95l.75 1.4.25 1.7q-.2 1.9-2.2 3.55-6.15 5.2-11.9 7.35-4.65 1.7-9.85 1.7-7.25 0-28.2-14.5-13.7-9.5-16.55-11.35-9.05-5.9-14.7-8-10.05-3.75-15.1-5.2-14.35-4.1-27.55-4.65-15.4-.7-30.45 3.4-18.3 5-32.25 16.35-1.35 1.1-8.85-4.7-6.85-5.3-16.3-14.4 17.55-18.9 41.85-35.95 26.4-18.5 42.2-21.15 13.35-2.2 28.3-1l21.95 1.75q6.85 0 25.1-.6 16.15-.35 21.5.55l26.55 3q20.1 2.3 20.95 4.15v.05l-7.3.2q-.65.65-.45 1.45.3 1 1.95 2.85 1.8 2 4.55 4.15-1.25 3.95-3 7.8-1.8 4-3.45 6.2l7.3-8.6 2.6 2.35q3.7 2.75 9.3 4.65m17.95-16.95-6.55-1-17.4-2.5.8-1.9 1.1-6 32.25 3.75 21.75 1.15q-2.85 2.35-5.15 3.7-8.15 5-26.8 2.8"/><path fill="#e9eff8" d="M376.2 102.5q2.35 2.9 2 7-.2 2.85-5.85 13.25-6.05 11.15-9.8 14.15-5.2 4.1-11.95 5.05l-9.5-.45-10.95-2.7q-8.05-1.85-10.45-1.7l-7.25.85-4.45.7-15.25-41.05q7.45 1.1 15-.05l12.15-2.15q3.45-.5 9 .9l8.45 2.15 16.35 1.4q12.75.65 16.35.15 3.7-.45 6.15 2.5"/><path fill="#c9cfd7" d="m319.7 137.1-7.25.85-4.45.7-12.4-33.45q22.4-.7 28.55.35l26.55 3q20.1 2.3 20.95 4.15 1 2.25-1.85 10.55-2.8 8.05-5.85 12.15l2-2.3q-2.1 2.75-3.4 3.8-5.2 4.1-11.95 5.05l-9.5-.45-10.95-2.7q-8.05-1.85-10.45-1.7"/><path fill="#0d131a" d="M378.25 99.75q2.6 1.95 3.1 5.65.65 4.7-4.5 15.6-5.6 11.85-12.3 17.2-5.8 4.65-12.4 5.85-6.2 1.2-11.3-.9l-13.1-3.75q-4.4-1.05-7.8-.85l-5.5.3-5.85.5-7.3-.25q-1.4-1.15 5-1.8l13.35-1q3.8-.25 8.85.85 4 .85 12.8 3.55l9.8.3q6.2-1 10.9-4.75 5.3-4.25 10.8-15.65 5.3-11 4.65-15.45-.3-2.1-2.2-3.35-2.1-1.35-5.1-.95-3.7.45-16.45-.2l-16.5-1.35-6.85-1.7q-6.05-1.5-7.85-1.5l-12.75 1.65-15.95.8q-3.2-.4-3.45-1.3t3.2-.55q4.5.45 15.8-1.7 12.05-2.35 13.15-2.35 2 0 9.15 1.7l7.85 1.9 16.25 1.6q12.8.9 16.25.45 3.7-.5 6.25 1.45m-43.1 49.9q-3.9-1.3-3.2-2.35.65-1 4.55.25l7.1 2.4q6.65 2.3 8.85 3.35 12.2 5.55 18.5 8 11.6 4.5 17 4.55.9 0 .9.85l.25.95q.15.6-.15.6-9.85 0-37.95-12.9-2.15-1-8.75-3.3zm11.55 34.3q5.85 4.5 9.45 5.35l2.65.8q2.3.8 2.25 1.1l-.55.85-.85.55q-5.25-.3-12.65-5.5l-13.35-10.4q-4.6-3.55-9.2-6.55-4.35-2.85-5.95-3.45-3.55-1.3-3.25-2.35.35-1.05 3.65 0 5.05 1.7 16.3 10.35zM150.9 92.5l.85-.15 15.85 8.3q15.6 8.65 15.3 10.95-.35 2.5-.6 8.05-.3 6.3.05 7.8.4 1.6-.65 2.55-.5.5-2.8 1.65l-2.9 1.6-.2.05-12.65-.4q-2.7-1-15.75-25.2l-.15-.25.05-.3q2.05-13.6 3.6-14.65"/><path fill="#922f00" d="M167.35 102.4q12.55 7.05 13.35 8.6-.2 1.45-.2 6.3 0 7.95.5 10.1l.05.35q0 .55-.7 1.1l-2.25 1.25-2.6 1.45-6.2.2-5.5-.45q-1.05-.55-5.65-8.1-4.2-6.95-9.1-16.05 1.55-10.5 2.7-12.95 4.1 1.75 15.6 8.2"/><path fill="#0d131a" d="M150.45 102.45q3.85-2.15 9.65-.9 5.55 1.2 10.6 4.9 5.25 3.95 7.65 9 2.65 5.65.8 11.2-3.4 10.4-14.55 1.7-4.2-3.3-8.45-8.45-3.75-4.65-5.55-8.2-3.7-7.25-.15-9.25"/><path fill="#ed8599" d="M152.15 110.9q-1.05-2.1-1.45-3.75-.65-2.5.6-3.2 1.95-1.1 4.75-1.2 2.8-.15 5.95.7 4.3 1.2 7.85 3.8t5.4 5.85q4.1 7.35 2.3 13.05-1.3 3.9-5.35 5.7-1.9.85-8.95-6.25-7.45-7.45-11.1-14.7"/><path fill="#ce7486" d="M151.55 109.6q-2.05-4.6-.25-5.65 1.95-1.1 4.75-1.2 2.8-.15 5.95.7 4.3 1.2 7.85 3.8t5.4 5.85l1.85 4.15q-11.45-6.85-25.55-7.65"/><path fill="#0d131a" d="m190.75 51.05-.65-2.25-.2-1.75q1.9-4.85 4.3-14.35 2.35-9.15 3.2-14.8.1-.7.45-.75.35 0 .6.7 5.5 10.75 8.6 28.9 3.15 18.4 1 28.35-1.6 7.55-4.2 7.7-2.2.1-4.65-5.25-3.5-7.4-8.45-26.5"/><path fill="#1d2087" d="m197.6 27.6 1.05-4.85q2.5 7.1 4.7 17.3 3 14.3 3 25.8 0 5.4-.7 9.8-.5 3.35-1.2 4.75l-.65.75q-1.15.05-3.25-4.55-3.4-7.6-8.2-25.95l-.5-1.8q2.05-5.3 3.65-11.55z"/><path fill="#0d131a" d="M7.85 125.25q1.35-2.9 5.65-4 4.35-1.1 9.95.1 20.05 4.3 42.5 21.55 9.85 7.6 23 20.75l.65.7-.75.6q-7.45 6.1-10.55 7.95-1.75 1.05-2.4.8-12.15-5.1-37-9.35l-23.35-3.5q-6.1-1.35-8.9-14.1-2.85-12.75 1.2-21.5"/><path fill="#1d2087" d="M10.8 126.7q.6-1.35 3.25-2.35l7.45-.3q19.3 4.35 41.45 20.05 13.3 9.45 24.05 20.1-8.9 7.25-10.65 7.8-12.85-5.3-29.5-8.95-9.55-2.05-23.55-4.1l-6.55-1.05q-2.85-.6-5.1-5.1-1.4-2.85-2.2-6.7-.85-3.95-.85-8 0-6.7 2.2-11.4"/><path fill="#15126f" d="M46.85 163.05q-9.55-2.05-23.55-4.1l-6.55-1.05q-2.85-.6-5.1-5.1-.8-1.7-1.25-3.15 6.05 3.5 32 9.5 27.75 6.4 37.35 10.7l-3.4 2.15q-12.85-5.3-29.5-8.95"/><path fill="#0d131a" d="M0 200.05q.15-5.3 8.4-7.9 7.85-2.55 21.25-2.15 29.55.95 60.35 13.2l.9.35-.45.85q-4.5 8.75-6.65 11.95-1.4 2.1-2 2.1-13.7.15-30.2 3.55-7.5 1.55-22.85 5.65l-6.55 1.65q-8.3 1.6-15.85-11.3-2.85-4.85-4.7-10.3-1.7-5.05-1.65-7.65"/><path fill="#1d2087" d="M10.25 194.25q6.75-2.4 17.9-2.45 27.4-.15 60.3 12.65-5.25 10.2-6.7 11.4-13.85.15-30.65 3.45-9.3 1.8-23.25 5.55l-6.4 1.6q-4.85.95-11.45-8.8-6.55-9.75-6.35-17.5.1-3.6 6.6-5.9"/><path fill="#15126f" d="M21.45 226.45q-3.25.6-7.8-4.2l10.8-1.15q5.25-.9 8.35-2 6.3-2.35 16.75-5.1 12.05-3.2 16.45-3.2 4.85 0 17.7 2.2l-1.95 2.85Q67.9 216 51.1 219.3q-9.3 1.8-23.25 5.55z"/><path fill="#0d131a" d="M63.35 238q18.75-4.35 30.95-4.65l1.15 1.45-.15 2q-1.2 16.35-2.55 17-12.05 5.3-32.05 20.9-10.1 7.8-18.45 15-2.45 1.65-5-.05-2.6-2.3-3.75-2.8l-2.45-.9q-3.2-.7-10.4-7.85-7.1-7-8.5-10.5-.8-2.15.65-5.35 1.65-3.7 5.5-6.3Q35.55 244.4 63.35 238"/><path fill="#1d2087" d="M91.8 250.75q-12.65 5.6-26.8 15.2-7.95 5.4-19.2 14.2l-5.3 4q-2.35 1.6-3.75 1.75-.9.05-2.55-.65-1.35-.65-2.8-.95-2.65-.6-9.45-7.3-6.9-6.75-8.15-10.05-.15-.35-.15-.95 0-1.85 1.15-3.95 1.5-2.7 4.45-4.65 16.4-11 43.1-16.2 15.8-3.05 31.15-3.55-.85 11.35-1.7 13.1"/><path fill="#1d2087" d="M91.8 250.75q-12.65 5.6-26.8 15.2-7.95 5.4-19.2 14.2l-5.3 4q-2.35 1.6-3.75 1.75-.9.05-2.55-.65-1.35-.65-2.8-.95-2.65-.6-9.45-7.3-6.9-6.75-8.15-10.05-.15-.35-.15-.95 0-1.85 1.15-3.95 1.5-2.7 4.45-4.65 16.4-11 43.1-16.2 15.8-3.05 31.15-3.55-.85 11.35-1.7 13.1"/><path fill="#15126f" d="m92.5 247.35-.7 3.4q-12.65 5.6-26.8 15.2-7.95 5.4-19.2 14.2l-5.3 4q-2.35 1.6-3.75 1.75-.9.05-2.55-.65-1.35-.65-2.8-.95l-2.15-1.1q7.9-4 19.15-12.05l14.75-10.9q5.9-4.25 13.35-7.7 8.55-3.95 16-5.2"/><path fill="#0d131a" d="m122.45 265.85.9-.25.15.95q1.1 9.6 1 13.25-.05 2.05-.6 2.4-11.05 7.7-22.85 20.35l-15.55 17.9-4.5 5.05q-2.25 2.25-4.65 2.5l-3.95-.45-2.55-.35q-3.3-.1-11.75-5.75-8.3-5.5-10.3-8.7-1.25-1.9-.45-5.35.95-3.95 4.2-7.2 27.75-27.6 70.9-34.35"/><path fill="#1d2087" d="M122.7 280.9q-11.4 8-23.4 20.1-6.95 7-16.1 17.65l-4.45 4.95q-2 2-3.35 2.4l-2.6-.15-2.9-.4q-2.75-.05-10.75-5.35t-9.9-8.25q-.45-.7-.45-2.05 0-4.45 4-8.4 14-13.95 39.2-24.15 14.95-6.1 29.85-9.5.95 7.95.95 11.9z"/><path fill="#15126f" d="m122.75 278.05-.05 2.85q-11.4 8-23.4 20.1-6.95 7-16.1 17.65l-4.45 4.95q-2 2-3.35 2.4l-2.6-.15-2.9-.4q-1.1-.05-3.6-1.2 5.4-3.35 12.7-10.75 8.1-8.5 12.3-12.4 7.85-7.3 15.2-12.95 9.65-7.35 16.25-10.1"/><path fill="#0d131a" d="M309.25 242.1q6.55 1.1 10.7 6.25 6.25-1.45 11.9 5.3 5.7 6.75 4.35 14.4 5.7 2.35 5.7 11-.05 8.95-6.9 12.55-21.75 11.45-45.4 31.45l-15.55 13.65q-7.4 6.55-10.4 8.45-3.15 2-7.05 2.25-4 .3-6.45-1.35-10.2-7.15-9.1-30.6-3.5 5.65-14.05 6.85-10.75 1.3-16.9-3.65-4.6-3.7-8.5-19.9-4.15-17.3-3.85-35.4.25-16.4 3.95-28.4 5.25-17.35 16.8-22.3 8-3.4 17.35-1.6 8.75 1.75 16.7 7.6 7.85 5.85 12.55 14.1 4.95 8.7 4.95 17.9 0 8.2-.75 13-.95 6.25-4 14.5 12.45-25.8 29.8-33.7 7.5-3.4 14.15-2.35"/><path fill="#e9eff8" d="M306.2 245.2q6.9.4 11.4 5.4l.35.4.5-.15q6-1.75 11 4.65 4.95 6.45 3.5 14.25l2.3 1.2q2.4 2.05 2.95 6.15.55 3.9-.5 7.4-1.2 3.85-3.85 5.15-18.7 9.2-36.9 23.3-10.4 8.05-24.75 21.35-7.65 7.05-9.4 8.05-5.9 3.35-10.7 1.05-3.55-1.6-6.1-8.95-2.9-8.25-3.15-20.25l-.35-2.6q-.65-2.9-2.05-4.55-1.15-1.4-1.95-1.25-.8.2.2 1.7 1.7 2.8 1.8 5.5-15.15 10.95-29.7 4.15-4.25-2-7.9-18.15-3.8-16.9-3.5-35.65.25-16 3.75-27.65 5-16.8 16-21.5 5.55-2.35 13.7-.65 8.1 1.75 15.7 6.85 8.15 5.5 12.9 13.25 5.4 8.75 5.4 18.7 0 13.35-4.8 29.45-4.4 14.6-8.45 18.75-1.65 1.8-1.3 2.1.35.25 2.3-1.2 2.3-2.2 4.2-5.4l3.05-6.2q4.5-10.5 14.25-23.3 10.5-13.8 18.65-18.55 5.4-3.1 11.45-2.8"/><path fill="#c9cfd7" d="m205.15 230.1 6.8-4.15 21.8 6q8.55 0 15.45 10.7 6.85 10.6 6.85 23.4 0 11.75-1.75 22.95-1.55 9.95-3.2 12.55-1.45 2.4 2.4 1.25 3.8-1.2 5.65-3.9l5.15-7.75q4.4-6.4 10.1-13.6 6.85-8.7 17.55-16.85 10.75-8.25 15.35-8.25 4.3 0 9.2 2.9 4.55 2.75 4.55 4.55l1.3-.3q1.6-.2 3.05.55 4.7 2.3 6.15 12.75l1.05.5q1.25.7 2.15 2.05 2.8 4.2 1.1 12.6l-2 1.6q-18.7 9.2-36.9 23.3-10.4 8.05-24.75 21.35-7.65 7.05-9.4 8.05-5.9 3.35-10.7 1.05-3.55-1.6-6.1-8.95-2.9-8.25-3.15-20.25l-.35-2.6q-.65-2.9-2.05-4.55-1.15-1.4-1.95-1.25-.8.2.2 1.7 1.7 2.8 1.8 5.5-15.15 10.95-29.7 4.15-4.25-2-7.9-18.15-3.8-16.9-3.5-35.65.35-20.15 5.75-33.25"/><path fill="#0d131a" d="M362.15 379.05q5.15-9.05 10.25-15.2 4.9-5.85 6.65-5.3.9.3.9 20v20.1q.3.65-2.2 3.05l-13.6 11.75-14.5 11.8-1.8 1.4 1.05-4.85q-.25-18.8 13.25-42.75"/><path fill="#1d2087" d="m376.5 396.65.2 3.1q-.65 1.35-8.8 8.35l-17.45 14.4.05-.35q2.45-11.6 5.15-20.1 5.15-16.05 12.8-28.3 7.3-11.75 8.55-11.35.8.4.8 5.45l-.1 3.9-.1 1.65q-1.1 17.1-1.1 23.25"/><path fill="#15126f" d="m375.2 383 1.75-20.55.05-.05q.8.4.8 5.45l-.1 3.9-.1 1.65q-1.1 17.1-1.1 23.25l.2 3.1q-.45.9-3.35 3.5z"/><path fill="#0d131a" d="m363.3 440-4.85.15 1.2-1.9 11.1-17.25q8.1-12.25 10.9-15.95 2.05-2.65 2.8-2.45 11.1-.6 31.05-4.45 16.15-3.1 16.45-2.45.4.85-3.55 5.85-4.85 6.15-12.2 12.35-21.95 18.45-52.9 26.1"/><path fill="#1d2087" d="M376.05 416.05q6.75-9.9 8.1-10.6 3.65.45 30.45-4.55 11.3-2.75 12.85-2.35-.5 1.2-8.65 8.3l-5.25 4.65Q402 421.75 385.6 429q-9.25 4.1-21.8 7.75l-1.55.5q7.55-12.1 13.8-21.2"/><path fill="#15126f" d="m363.8 436.75-1.55.5 3.7-5.9q17.55-3.85 32.8-12.35 15-8.4 26.35-20.35l2.35-.1q-.5 1.2-8.65 8.3l-5.25 4.65Q402 421.75 385.6 429q-9.25 4.1-21.8 7.75"/><path fill="#0d131a" d="M161.4 13.1q19.9 9.85 32.1 23.8 15.05 17.15 16.85 39.1 2.8 33.6-13.4 48.8l-3.95 2.95q-1.65.9-2.4.75-1.05-.15-1.5-1.05l-.45-2q-.85-5.75-6.2-10.95-5.4-5.2-13.3-7.8-3.65 2.35-4.95 2.9l-1.35.05q-.4-.5-.55-3.1l-.25-4.75-3.35-2.15q-1.8 4-1.8 7.15l.05.45q2.5 5.5 6.75 13.25 4.8 8.75 6 9.4l6.95.55q5.55-.1 7.2-1.25 1-.7 1.7-.35.65.4.7 1.15.05 1.05-1.15 2.6-1.3 1.7-3.15 2.8-1.35.8-8.6.8-7.8-.05-10.4-1.45-1.55-.85-10.1-13.4l-9.2-13.4q-3.25-3.15-10.7-1.8-7 1.2-10.85 4.75-2 1.9-2.35 12.15-.4 11.6 3.8 17.1 5.65 7.35 20.9 17.45 11.85 7.8 25 14.55 14.65 7.55 33 21.25 23.2 17.3 28.95 28.8 6.5 12.95 9.5 30.6 3.2 18.65-.3 27.95l-1.9 5.4-3.45 10.8q-2.25 6.9-4.5 11.55-6.35 13.4-17.25 19.45-1.6.85-3.25 3.25-1.9 2.65-2.55 5.55-3.55 15.7 1.55 33.8 5.05 17.7 17.1 33.1 12.55 16 29.45 25.3 18.4 10.15 38.65 10.4 16.75.25 34-7.8 17.55-8.15 32.6-23.5 11.45-11.7 27.2-21.7 11.85-7.6 13.05-6.3.4.4-7.55 13.55-9.45 15.65-12.75 23.25-12.8 29.95-43.95 46.8-29.1 15.75-64.65 15.3-62.95-.75-100.3-37.95-36.1-36-49.6-107.5-1.4-7.4-10-22.6-11.65-19.6-18.35-31.45-26.55-47.1-32.1-85.55-1.95-13.55-2.3-18.35-1.2-15.7.75-31.6 4.65-37.5 18.5-57.6 13.55-19.65 39.75-28.1l9.3-3.35q4-2.05 5.15-5.6 3.95-12.4-7.1-31.35-2.95-5.2-7.85-11.95-3.6-5-3.45-5.3 1.05-1.85 15.05 1.25 16.2 3.6 31.55 11.15"/><path fill="#e9eff8" d="M136.75 50.05q.35-.9.5-2.35l.3-2.65q1.45-11.85-8.15-27.7-2.9-4.85-6.75-9.8l-3.25-4.1q1.05-.6 8.7.85l12.05 3.25q14.15 4.55 26.2 11.25 38.2 21.3 41.1 56.15l.45 10.4q0 13.55-3.3 23.5-2.55 7.75-6.95 12.85-2.15 2.45-4.4 3.95-1.7 1.15-2.45 1.2-.3-.05-.5-1.65l-.55-2.75q-2.15-7.7-11.25-13.25-2.9-1.8-6.2-3.1l-3-1.1-.7.1q-4 2.6-4.35 2.4-.3-.2-.4-2.35l-.15-3.85v-.4l-4.7-3q-1-.65-1.45.3-2.4 5.45-2.3 9-.05 1.75 5.8 12.5 6.05 11.2 8.15 11.75 3 .85 7.9.7 5.05-.2 7.25-1.4-.75 1.6-2.85 2.85l-7.55.75q-6.9.1-9.15-1.1-1.4-.75-10.3-13.15l-9.7-13.35q-3.55-3.4-10.7-3.2-7.65.25-13.1 4.85-6.45 5.45-6.5 6.95-.1 1.4 4.25-1.9-1.95 6-1.6 13.95.35 9.3 4.05 14.15 5.75 7.45 21.75 17.6 11.2 7.1 25.75 14.5 14.45 7.4 32.65 20.95 22.9 17.05 28.55 28.3 6.75 13.5 9.55 31.1 2.85 17.6-.4 26.15l-1.95 5.5q-5 14.55-9.35 22.25-7.55 13.4-18.35 19.35-3.65 2.05-5.25 9.15-2.95 12.8 1.65 31.55 5 20.75 17.05 37.65 5.2 7.3 13.6 14.55 9.95 8.5 21.35 14.05 14.55 7.05 29.65 8.35 15.2 1.35 29.85-3.2 19.9-6.2 30.6-14.05 4.05-3 8.4-7.4l7.65-7.95q7.05-7.15 11-10.65 6.8-6.05 14.3-10.85 6.1-3.8 7.55-4.35l-2.9 4.55-5.45 8.7-5.05 9.15q-7.3 13.5-11.65 20.35-7.45 11.55-14.5 17.85-20.95 18.6-48 26.2-24.45 6.9-51.3 4.2-24.8-2.5-47.2-12.6-21.7-9.8-35.75-24.2-18.75-19.3-31.85-46.4-13.15-27.15-19-58.7-1.9-10.25-7.9-22.45-3.65-7.5-13-23.25-14.3-24.1-21.25-39.2-12.05-26.15-18.3-54.75-.7-3-1.1-8.85-.5-6.45-.5-14.15 0-16.45 2.25-32.15 3.05-20.45 9.7-36 8.8-20.55 23.2-30.85 5.95-4.25 12.85-7.25 4-1.7 11.15-4 7.15-2.35 9.8-3.85 4.2-2.4 5.7-6.4"/><path fill="#c9cfd7" d="M232.8 297.4q-4.1 9.9-8.9 16.6-6.3 8.75-14.5 13.25-3.65 2.05-5.25 9.15-2.95 12.8 1.65 31.55 5 20.75 17.05 37.65 5.2 7.3 13.6 14.55 9.95 8.5 21.35 14.05 14.55 7.05 29.65 8.35 15.2 1.35 29.85-3.2 19.9-6.2 30.6-14.05 4.05-3 8.4-7.4l7.65-7.95q7.05-7.15 11-10.65 6.8-6.05 14.3-10.85 6.1-3.8 7.55-4.35l-2.9 4.55-5.45 8.7-5.05 9.15q-7.3 13.5-11.65 20.35-7.45 11.55-14.5 17.85-20.95 18.6-48 26.2-24.45 6.9-51.3 4.2-24.8-2.5-47.2-12.6-21.7-9.8-35.75-24.2-18.75-19.3-31.9-46.4-13.15-27.15-18.95-58.7-.7-3.85 2.3-13.8 3.6-11.75 10-21.75Q154.8 269 183.85 273q28.3 3.9 41.45 14.55 6.6 5.3 7.5 9.85"/><path fill="#e9eff8" d="M136.75 50.05q.35-.9.5-2.35l.3-2.65q1.25-10.1-5.65-23.25-4.05-7.8-10.75-16.1 16.7 4.05 32.2 18.1 14.4 13.05 24.8 31.85 10.2 18.45 13.65 37.15 3.65 19.55-1.1 34-.2-.2-.4-1.6l-.55-2.75q-2.15-7.7-11.25-13.25-2.9-1.8-6.2-3.1l-3-1.1-.4-.1-.3.2q-3.1 2.05-4.35 2.4-.35-1.45-.55-6.2v-.4l-5.7-3.65-1.4 3.4q-1.4 3.9-1.35 6.55-.05 1.75 5.8 12.5 6.05 11.2 8.15 11.75 3 .85 7.9.7 5.05-.2 7.25-1.4-.75 1.6-2.85 2.85l-7.55.75q-6.9.1-9.15-1.1-1.4-.75-10.3-13.15l-9.7-13.35q-3.55-3.4-10.7-3.2-7.65.25-13.1 4.85-6.45 5.45-6.5 6.95-.1 1.4 4.25-1.9-1.95 6-1.6 13.95.35 9.3 4.05 14.15l.8.95q6.45 10.55 22.5 23 1.9 1.5 21.3 13.2 18.6 11.25 31.1 21.45 40.55 33.1 43.5 74.05-.5 3.75-1.35 5.95l-1.95 5.5q-5 14.55-9.35 22.25-7.55 13.4-18.35 19.35-3.65 2.05-5.25 9.15-2.95 12.8 1.65 31.55 5 20.75 17.05 37.65 5.2 7.3 13.6 14.55 9.95 8.5 21.35 14.05 14.55 7.05 29.65 8.35 15.2 1.35 29.85-3.2l4.65-1.5q1.8.35 1.7 1.55-.15 1.25-2.25 2.95-11 9.1-28.35 14.35-18.65 5.65-40.8 5.65-43.3 0-79.75-37.1-14.2-14.45-25.8-33.1-9.8-15.8-15.7-31.15-3-9.75-5-18.9l-.05-.9-.3-.5-1.5-7.5q-1.9-10.25-7.9-22.45-3.65-7.5-13-23.25Q89.9 265 83.2 250.85 71.8 226.7 65.4 200.8q-1.2-14.65-1.2-25.95 0-12.9 4.75-30.35 4.45-16.2 11.9-32.45Q88.2 95.95 96.2 85q8.45-11.65 15.2-14.15 17.65-6.55 22-16 2.3-1.95 3.35-4.8"/><path fill="#c9cfd7" d="M220.4 284.15q8.5 5.1 11.55 11.15l-1.15 6.65q-8.5 18.2-21.4 25.3-3.1 1.75-4.8 7.35-10.75 5.45-23.1 5.45-17.15 0-30.7-10.25-13.35-10.05-18-25.85 7.9-15.1 19.2-23.25 14.15-10.15 31.85-7.7 23.35 3.2 36.55 11.15"/><path fill="#0d131a" d="M111.95 179.5q.85-.15 17.7 4.35 18.25 4.9 23.05 5.55l.85-9.4.75-11.3q.05-.9.25-1.1l1.15.1q41.45 12.75 65.4 37.4 24.65 25.4 24.7 57.35.1 28.45-15.8 45.65-15.9 17.15-39.95 14.65-34-3.5-64.05-38.4-11.45-13.3-19.45-28.05-7.2-13.3-8.45-21.55-.75-5 4.8-29.35 5.75-25.3 9.05-25.9"/><path fill="#5084c4" d="m121.8 184.75 13.35 3.1q18.8 4.45 19.5 3.05.45-.9 1.1-8.8l.75-12.25h.05q13.65 4.25 28.5 12.45 25.65 14.15 41.2 33.7 15.6 19.6 15.6 46.25 0 29.45-15.25 45-14.3 14.6-37.2 12.5-32-3-61-37.2-10.85-12.75-18.5-27.1-6.9-13.05-8.1-21.1l-.1-1.1q0-7 4.95-27.8 5-20.85 7.05-22.1 1.15-.15 8.1 1.4"/><path fill="#4573ab" d="M226.7 294.25q11.8-8.2 14.6-21.45-2.7 24.35-17.35 36.9-13.9 11.95-34.55 10.05-27.65-2.55-52.85-28.25 13.35 7.8 30.4 11.15 16.85 3.25 32.5 1.2 16.45-2.1 27.25-9.6"/><path fill="#0d131a" d="M139.4 228.5q9.2-1.75 18.3.6 9.25 2.45 16.75 8.75 17.05 14.35 18.7 41.55 1.2 19.1-4.55 31.75l-4.1 8.5q-1.95 4.45-1.95 8.65 0 2.5-12.5 1.95-12.75-.5-22-3.6-16.85-5.7-24.65-12.15-11.2-9.25-14.2-26.15-4.15-23.05 3.25-39.05 7.9-17.1 26.95-20.8"/><path fill="#c9cfd7" d="M126.1 237.05q6.05-5.25 13.65-6.9t15.9.4q8.3 2.1 15.4 7.45 15.5 11.65 18.5 36.9 1.25 10.55-.15 21.1-1.4 10.15-4.85 17.45l-2.6 5.6q-.9 3.6 1.35 8.45.8 1.7.25 3.4-.45 1.5-1.75 2.75-3.15 2.9-10.55 2.8-7.35-.05-16.25-3.05-15.3-5.1-26.55-15.8-13.4-12.7-16.4-29.45-1.85-10.15-.8-19.9 1.1-9.75 4.9-17.85 3.85-8.15 9.95-13.35"/><path fill="#e9eff8" d="M116.15 250.4q3.85-8.15 9.95-13.35 6.05-5.25 13.65-6.9 10.7-2.35 22.05 2.5-18.4 2.45-30.85 19.35-12.55 17-12.55 39.9 0 8.05 1.8 16.1-6.2-9.15-8.15-19.85-1.85-10.15-.8-19.9 1.1-9.75 4.9-17.85"/><path fill="#0d131a" d="M120.1 232.25q-2.45-12.7 3.25-20.65 4.6-6.4 10.75-6.4 1.1-7 9.7-10.3 7.15-2.75 12.15-1.45 3.55-5.4 12.1-6.25 8.5-.8 12.5 3.7 1.95 2.3 2.45 7.6l.05 4.85q-1.55 77.35 1.7 86.65 2.4 6.7 1.45 12.3-.85 5.3-4.35 8.45-3.55 3.15-8.7 3.25-5.45.1-11.4-3.3-13.75-7.8-24.7-28.15-11.3-20.9-16.95-50.3"/><path fill="#e9eff8" d="m134.9 207.9.65-.15q.4-1.25 1.25-2.8 1.7-3.1 4-4.7 5.65-3.95 11.05-4.35l4.25.4q2.05-3.65 8.8-5.65 7-2.1 11.55.2 2.1 1.05 3 4.25.85 3.1.75 8.85-1.5 74.8 2.1 85.25 4.35 12.3-2.4 18.55-6.75 6.2-17.4.15-12.55-7.15-25.3-31.55-13.3-25.5-14.7-48.1-.65-10.6 4.65-16.1 3.2-3.4 7.75-4.25"/><path fill="#c9cfd7" d="M131.85 251q-5.1-25.2 2.95-32.75 2.5-2.35 6-2.65l3.05.15q3.4-10.5 12.65-12.3l8.55.25q4.2-5.65 8.7-6.45 3.9-.75 6.35 2.25l.1 4.45q-1.5 74.8 2.1 85.25l.75 2.4q.55 7.35-2.7 11.4-2.95 3.7-8 3.7-3.4 0-8.65-3.15-6-3.55-11.65-9.85-14.85-16.45-20.2-42.7"/><path fill="#0d131a" d="M142.8 321.15q-1.8 5.35-5.6 9-4.15 3.95-8.25 3.25-3.3-.55-11.5-8.55-5.6-5.45-17.1-18.1l-8.9-9.4-.9-1.45q-.3-.85-.15-1.15.5-.8 18.75 4.5 16.85 4.9 24.95 7.8 11.95 4.3 8.7 14.1"/><path fill="#e9eff8" d="M135.3 328.85q-2.8 3.45-6.05 2.9-3.1-.5-12.2-9.6-4.95-4.9-15.5-16.5l-7.9-8.55q3.4.75 18.45 5.95l20.95 7.35q6.5 2.3 7.55 5.35.75 2.15-1.3 6.2-2.6 5.15-4 6.9"/><path fill="#0d131a" d="M60.8 146.55q4.35 1.45 9.25 4.75 8.2 5.5 7.5 29.3-.25 9.4-1.95 18.15-1.7 8.55-3.85 12.15-1.9 3.1-4.05 2-1.25-.6-3.5-1.1l-4.55.25q-.25.15-.7 1.95l-.4 2.55q0 8.7 3.65 21.3 4.15 14.55 11.85 28.9Q82 281.45 93.2 294.2q14 15.8 30.8 25.7 3.45 2.05 26.6 9.95l23.2 7.95q3.65 2.3 3.6 8.8-.05 5.75-2.75 13.25-2.6 7.05-6.35 12.4-3.9 5.6-7.1 6.35l-8.95.45q-7.5-.75-18.3-4.6 7.9 4.05 11.25 7.45 2.9 3 5.9 9.45 5.4 11.8-1.8 25.8-2.9 5.7-7.2 10-4.15 4.15-8 5.45-.9 10.35-7.45 15.95-6.25 5.4-15.85 5-4.6 3.6-9.55 5.55-4.8 1.85-9.05 1.9-17.1.15-34.15-20.25-15.6-18.65-28.35-50.9-12.25-30.85-18.75-65.9-6.65-35.75-5.35-65.4.9-19.55 12.9-54.9 11.05-32.5 19.75-46.05 3.1-4.85 7.05-8 3.8-3.1 7.45-3.85 3.5-.7 8.05.8M115.85 31.7q32.35 12.25 53 36.15 9.3 10.75 13.4 21.3 4.15 10.7 2.05 19.05-4.2-3.55-18.25-12.35-13.5-8.45-18.65-10.95-3.7-11.4-12.25-25.25Q127.2 46.75 119 37.9l-4.55-4.9q-1.25-1.4-.65-1.7.55-.25 2.05.4"/><path fill="#1d2087" d="M138.4 60.6q-7.9-12.65-20.25-26.15 30.8 13.6 49.75 36.1 8.2 9.7 12.1 19.05 3.85 9.1 2.8 15.8-9.2-8.35-22.25-15.75L149 83.75Q146.1 73 138.4 60.6"/><path fill="#0d131a" d="m162.25 76.8 3.3 1.8q7 4.7 11.1 12.05 3.5 6.25 3.85 12.05l.1 1.2-1.15-.35q-2.2-.7-12.1-7.9l-4.6-3.3-.3-.15-.8-.7q-.4-1.45.15-5.45.6-4.25 1.65-6.15.25-.4-.65-1.75-.8-1.3-.55-1.35"/><path fill="#fff" d="m178.85 101.8-8.1-5.4-6.95-4.9q-.7-3.75.25-7.8.7-2.9 1.2-3.4 2.85 1.45 6.35 5.75 3.25 4.05 5.35 8.35.8 1.75 1.3 4.1z"/><path fill="#dbdcdc" d="M178.85 101.8q-1.95-5.15-3.95-8.4-4.2-6.85-10.55-10.8l.9-2.3q2.85 1.45 6.35 5.75 3.25 4.05 5.35 8.35 1.75 3.7 1.9 7.4"/><path fill="#0d131a" d="m176.15 92.85.5 1q-.5 1.8-1.45 3.15-1 1.35-1.75 1.25l-.65-.45q-1.05-1.4-.5-4.75.45-2.6 1.6-3.9l1.3 2.05q-.55.8-.75 1.6-.15.55 0 1.05.15.45.55.55.55.1 1.15-1.55"/><path fill="#fff" d="M175 94.4q-.4-.1-.55-.55-.15-.5 0-1.05.2-.8.75-1.6l.95 1.65q-.6 1.65-1.15 1.55"/><path fill="#0d131a" d="m317.1 248.6 1.05-.05q.75.15 1 .45 7.3 7.65 1.45 14.75-2.9 3.5-16.75 12.55-2.8 1.85-3.3 1.15-.5-.75 2.3-2.6 13.55-8.55 16.55-14.05 2.45-4.55-1.45-9.8l-.65-1.2q-.45-1-.2-1.2m15.85 21.15q.2-.3 1.8-1.15t1.45-.55q-1.95 5.6-12.05 11.95-5.85 3.7-8.35 6-3 2.75-3.55 2.1-.6-.65 2.4-3.4 2.85-2.65 8.6-6.15 7.6-4.75 9.7-8.8M134.9 207.9h-1.15q-.85-.1-1-.4-.1-.35.45-1.3.55-1 .9-1 7.55-.6 10.4 7.3 1.85 5.1 3.25 21.7.3 3.5-.55 3.6-.9.05-1.2-3.45-1.4-11.65-3.1-17.2-2.95-9.7-8-9.25m21.2-11.6q-1.05-.25-.7-1.55l.55-1.3q3.4.25 6.75 2.75 3.25 2.4 3.75 4.85.45 2.35.65 11.4l.25 10.05q.25 2.6-.6 2.7-.9.1-1.15-2.5l-.55-9.9q-.6-8.7-1.5-10.85-.6-1.6-2.7-3.25-2.3-1.85-4.75-2.4"/><path fill="#e9eff8" d="M21.9 203.1q10.9-30.95 19.7-44.65 5.8-9.1 12.1-10.4 3.05-.65 6.95.65 3.3 1.1 8.45 4.05 16.4 9.3 14.55 32.8-.65 8.4-3.6 17.35-2.3 7.1-4.85 11.3-.3.5-3.05-1.25l-3.15-2.1-2.6-1.5-5.75-.2q-.6.25.7-4.35 1.3-4.5-.65-3.55-.7.3-2.4 6-1.7 5.55-1.8 7.35-.55 11.3 3.8 26.05 4.35 14.9 12.7 29.9 19.3 34.6 47.85 51.4 3.2 1.9 23.1 8.8 25.65 8.9 27.75 9.7 2.25 1.4 2.05 6.7-.15 4.85-2.3 11.15-5.05 14.85-11.65 17.1-3.2 1.1-13.1-1-9.2-2-18.8-5.55l-20.5-13.3q-2.95-2.5-3.55-1.85-.55.7 2.4 3.2l10.55 8.05 13 9.5q10.65 6.2 15.5 12.75 4.4 5.9 4.35 12.45-.1 10.5-6.85 20.55-6.5 9.6-12.1 9.35-7.05-.3-21.55-14.65-13.85-13.7-23.35-28.8-1.85-3-2.5-2.6t1.05 3.5q10.05 18.7 23 32.2 14.35 14.85 23.9 13.85-2.05 8.55-7.25 12.8-5.05 4.05-13.45 4.35-8.05.25-23.7-14.1Q71.5 422 67.4 411.3q-1.2-3.2-1.95-2.9t.35 3.5q4.3 12.35 16.15 24.7 12.55 13.05 24.65 16.3-3.25 2.35-6.6 3.35l-6.15.9q-16.8.9-33.55-19.25-15.2-18.35-27.75-50.6-12-30.8-18.35-65.85-6.5-35.65-5.2-64.9.85-19.25 12.9-53.45"/><path fill="#c9cfd7" d="M49.2 236.95q-5.6-22.35.85-41.6 1.4-4.1 7.3-7.1 5.7-2.9 11.95-3.1 6.7-.15 10.05 3.15 3.85 3.8 1.7 11.4-2.6 9.1-5.85 14.5-.3.5-3.05-1.25l-3.15-2.1-2.6-1.5-5.75-.2q-.6.25.7-4.35 1.3-4.5-.65-3.55-.7.3-2.4 6-1.7 5.55-1.8 7.35-.55 11.3 3.8 26.05 4.35 14.9 12.7 29.9 19.3 34.6 47.85 51.4-11.6-3.4-26.25-15.8-15.35-13.05-27.2-30.3-13.3-19.45-18.2-38.9"/><path fill="#0d131a" d="m174.25 124.85.7-.1q.4.15.4.6.2 2.05-1.3 4.2-1.3 1.8-2.5 2.2l-.25.05q-1.65-.15-2.75-1.2-.85-.85-1.05-1.8l.1-.55q.15-.2.45-.3 2.95-.4 6.2-3.1"/><path fill="#fff" d="M173.75 126.95q-.35 1.2-1.25 2.25l-1.25 1.15q-1.45-.15-2.1-1.2 2.4-.65 4.6-2.2"/><path fill="#0d131a" d="M185.15 122.7q.45 0 .65.3 1.15 1.7.85 4.35-.25 2.25-1.05 3.15l-.25.15q-1.75.8-3.5-.05-1.7-.8-1.15-1.25 2.15-1.65 3.9-6.2.15-.35.55-.45"/><path fill="#fff" d="m185.2 125.15.15 1.2q0 2.1-.7 3.05l-2.45-.05q1.65-1.5 3-4.2"/><path fill="#c9cfd7" d="M113 99.9q5.25-4.15 15.65-2.25 10.6 2 15.4 8.4v.05q-3.95-2.95-10.65-2.5-7.25.45-12.4 4.8-6.45 5.45-6.5 6.95-.1 1.4 4.25-1.9-1.95 6-1.6 13.95.35 9.3 4.05 14.15-5.55-5.7-9.4-10.65-5.3-6.8-5.3-9.7 0-6.7.65-10.25 1.4-7.6 5.85-11.05"/></svg>