<svg xmlns="http://www.w3.org/2000/svg" width="465" height="502" viewBox="-0.2 0.25 465.3 501.8"><path fill="#fff" d="m353.5 47.15 1.9 11.6q1.8 12.3 1.5 15.7l3.9 6q3.9 7.1 3.9 12.45l4.15-38.75 22.9 17.45q-2.9 26.8-3.9 29.65 11.4-19.5 13-23.95l16.1 24.45q-12.2 36.4-13.5 39 15.05-19.25 18.95-26.5l8.6 34.3q-15.85 26.55-18.45 29.15l4.85-2.45q6.55-4.3 15.15-13.45l.25 35.4-8 8.65q-8.85 9.15-13.05 11.6l.35.2 2.45-.5q5.45-1.75 18.8-9.05l-5.2 32.5q-15.1 7.3-22.65 9.4l4.85-.6q6.75-1.05 16.5-3.3l-11.45 26.25-9.15 2.2q-10.05 2.2-14.25 2.2l2.9.85 16.35 2-12.75 21.35-8.55-.35q-9.15-.6-12.25-1.75l6.55 2.85 9.3 4.2-20.8 16.1-14.05-5.7 10.95 7.8-17.45 12.75-11.95-5.5 8.3 8.1-18.95 7.8q-8.6-4.7-10.7-6.5l5.75 7.8L290.6 361l-8.1-9.1 3.9 9.1-17.4 2.35q-3.55-5.4-7.25-12-7.35-13.2-7.85-19.2 13.85-14.75 29.15-33.15 30.65-36.8 37.95-55t11-79.35q1.85-30.55 2.25-57.45.65-5.5-1.8-36.45l-2.6-29.85zm-223-22.5-.6 8.85L92.6 135l-10.85-22.6-1.25-19.95q1.55-6.7 7.3-16.95 2.85-5.1 5.4-8.9l.45 6.35 3.1-3.25 6.05-22.45zm-7.15 168.3q-1.8 14.05-.1 21.25l2.8-11.4q3.1-11.9 4.7-14.5l15.85 17.9-2.35 12.85q-2.3 13.6-2.2 17.4l3.2-8.15q3.85-9.2 6.9-14.6l11.3 15.1-3.25 11.7q-3.2 12.95-3 18.9l13.7-18.25 9.4 13.75-7.65 14.6 11.15-9.55 9.05 16.35-8 17.2 11.3-9.75 5.4 12.35-3.3 5.55q-5 .8-11.05 2.8-12.1 4-17.3 10.1t-25.05-17.45q-6.2-7.35-13.1-16.85l-5.7-7.95q-5.9-18.35-10.55-40.7-9.25-44.7-2.85-64.7l12.9 13.4z"/><path fill="#f9be00" d="m381.75 335.45 7.65.8 1.8 3.6-3.9 5.2-12.6-3zM341.05 392l18.85 19.6-14.3 18.7-19.65-18.3-.75 2.2 7.15 15.45-21.95 13.4-6.65-11.7-18.05-60.05 21.55-16.25 47.2-1.15 14.3 1.6q15.45 2.05 21.05 4.5l-5.1 20.4-18.45-5.45q11.7 7.4 12.75 8.3l-12.6 20.05-40.45-27.2zm-69-173q-2.85 37.95-4.3 44.05L246.8 290.6l-17.85 15.25-2.55-3.9q-6-11.65-15.45-34.8l-8.3-20.85 16.45-12.7 25 53.5 4.45-5.4q-.95-10.55-1.65-22.85-1.45-24.55-.25-33.1zm6.85 177.85q5.4 1.35 5.4 2.45l3.6 49.3-11.05.5-3.4-53.4zm-102.75-5.9 3.65 2.45-1.6 16.5q-4.3 2.8-14.8 5.35l-9.65 2.05-5.95-12.3q4.3-3.05 16.75-8.85z"/><path fill="#f9be00" d="m263.4 391.8 13.4-6.25 1.95 28.55 2.2 37.1q.35 8.55-.5 13.45-.85 4.8-2.6 4.8-1.45 0-2.95-2.55l-1.2-2.6q-3 5.4-4.2 5.4-1.35 0-2.3-2.55-1.45-4.05-2.45-15-.9-10.35-1.2-36.4z"/><path fill="#fff" d="M174.15 387.8q-5.3-6.35-8.35-14.15l-2-6.55 82.95-35.1 21.95.65 17.8 41.9q-3.3 5.35-11.2 11.65-3.95 3.15-7.25 5.25l.05 5.6q-.2 6.8-1.45 12.5Q262.7 427.9 249.8 429q-14.35.95-21.45-10.85-2.2-3.7-3.45-8.2l-.75-3.8q-33.05 1.95-50-18.35"/><path fill="#f9be00" d="M388.1 346.1q0 1.3-2.75 2.6l-2.75 1.1 2.9 1.6q2.85 1.8 2.6 3.1-.15.85-4.75 2.05-5.05 1.4-12.2 2.3-19.45 2.4-38.6-.45l-11.95-15.05 1.5-.85 6.25 4.75 18.2-9.5-5.35-6.1 11.7 5.95 29.65 5.75q5.55 1.5 5.55 2.75m-187.5-64.6q-2.75-8.7-1.35-9.55.9-.55 3.05 1.3l1.95 1.9q-.5-.85-.8-2.1-.6-2.45.55-4.3t12 15.45l10.65 17.7-16.8-.85q-6.15-9.45-9.25-19.55"/><path fill="#8cc456" d="M277.6 374.1q-1.5-.15-5.7-6.5l-3.9-6.3q7.9-.4 17.3-2.35l4.7 8.7q.85 1.45.9 2.85.05 1.5-.9 2.25-.9.75-5.8 1.2-4.4.35-6.6.15m48.95-24.35q3.8 3.7 5.5 6.05l2.95 4.45q.15 2.05-5.65 4.7-5.55 2.55-14.65-4.55-2.85-2.2-5.7-5.15l-2.3-2.45q8.1-2.75 16.35-6.25zm18.7-13.8 12.9 10.7 1.25 1.95q.6 2.25-2.6 3.95-6.6 3.5-9.7 3.5-3.2 0-12.5-5.35l-8.65-5.4q10.3-4.55 19.3-9.35m25.05 8q-3.05.15-13.25-4.5l-9.6-4.65.5-.25q10.2-5.5 19.4-12.05l14.8 10.4 1.3 1.55q.8 1.85-1.6 3.55l-6.45 3.95q-3.7 1.95-5.1 2m-.7-23.1q10.45-7.75 19-16.6l24.5 9.8 1.95 1.4q1.25 1.9-1.95 4.25-3.55 2.6-11.1 6.35-7.15 3.45-8.55 3.6-1.85.2-13.05-4.3zm66.35-26.7q-4.25 5.85-6.95 6.4-3.75.8-36.85-.05 9.05-10.05 16.05-21.5l11.5.55 14.95.55q4 0 5.25.7 1.7 1 .95 4.15-.85 3.65-4.9 9.2m21.85-51.75q-.95 5.45-4.15 10.8-3.15 5.3-6.85 7.75-4.55 3.05-20.45 8.05l-14.95 4.45q6.85-12.4 11.35-26.55l11.8-3.2 15.2-4 6.25-1.8q2.65-.15 1.8 4.5m6.75-47.7q0 6.85-2.2 15.3-2.45 9.4-5.6 11.65-4.35 3.55-19 12.65L424 242.7q4.4-15.65 5.8-32.85l9.75-5.65q10.3-6.15 13.15-8.7 4.6-4.05 7.65-4.95 4.2-1.25 4.2 4.15m-6.45-49.3q1.2 7.1 1.3 11 .2 6.95-2.1 10.85-3.5 5.9-26.85 32.75l.05-1.2q1-18.05-.55-34.5l8.95-9.3 12.2-12.3q3.25-3.05 4.7-2.5 1.5.55 2.3 5.2m-16.45-51.7q2.65 5.75 3.85 12.5 1.55 8.7-.6 13.9-3.25 7.8-16.5 31.85-2.8-18-8.95-33.35l16.8-27.6 1.7-.9q2-.1 3.7 3.6M426.6 71.85q-1.35 6.5-11.95 36.1-6.8-13.65-16.6-24.95 11.3-22.7 12.65-26.5 1.1-3 2.85-3.3 1.95-.4 5.2 2.5 9.45 8.3 7.85 16.15m-32.1-25.3q-.25 9.95-3 29.5-10.15-10.05-22.9-17.5l2.5-28.15q.25-2.75 1.9-3.75 2.15-1.3 6.15 1.05 7.1 4.15 10 7 5.55 5.35 5.35 11.85m-46.05-23.7q2.45 8.35 5.95 28.5-8.25-3.5-16.6-5.75l-7.95-1.8-1.35-12.4-1.6-13.4q-.4-2.1.75-3.85 1.7-2.65 6.55-1.8 6.7 1.2 9.05 2.65 3.55 2.15 5.2 7.85M201.7 279.15l1.75-.8q1.85-.35 2.4 1.9l1 4.6q.2 2.2-1 4.2l-5.35 9.3q-2.35-6.4-5.65-13.45zm-9.9-.5q-3.95-7.75-9.3-16.7l9.7-8.7 1.9-.85q1.95-.35 2.4 2.1l1.35 6.75q.55 4.2-.8 6.4-2.15 3.4-5.25 11m-6.1-33q-2.15 3.45-6.25 11.25l-9.15-14.1 10.35-14.05 1.6-1.35q1.75-.75 2.55 2.4 1.4 5.6 1.75 8.55.55 5.05-.85 7.3m-34.2-61.05q-1.3 5.6-5.25 25l-15.85-19.95 6.85-19.45q.3-1.35 1.1-2.1 1.6-1.6 4.1 1.2l5.6 6.25q4.25 5.55 3.45 9.05m5.1 21.9q5.7-9.65 7.5-9.65 1.95 0 4.6 4.8 2.4 4.4 2.6 6.9.1 1.7-1.25 4.4l-2.2 4.6-5.05 14.35-11.55-15.8q2.5-4.8 5.35-9.6M116 157.75q3.65-11.35 5.2-11.7 2.15-.4 6.4 5.85 4.35 6.5 3.35 10.4L125 183.2 112.65 169q1.5-5.6 3.35-11.25M90.7 44.65q2.4-2.8 3-.4.3 1.15.15 2.9l-.75 20.7Q87 79.2 80.95 93.95 80.1 72.9 79.7 68.3q-.3-3.2 3.95-11.85 3.9-8.05 7.05-11.8m37.75-15.95q-7.5 4-13.4 9.3-7.7 6.9-14.8 17.7 3-9.25 7.35-19.65 8.75-20.8 15.7-26.65 7.7-6.5 14.05-8.15l3.8-.15q1.3.55.7 2-1.55 3.85-13.4 25.6"/><path fill="#ffe792" d="m204.65 213-.1-2.5q.05-2.55.75-2.75 2.05-.6 10.15 17.2 4.05 8.9 7.7 17.9l-2.2-2.05q-1.45-1.1-2.55-.65-.9.4-1.3 2.15-.45 1.75-1.15 2.1-.75.35-2.6-.55-2.15-1.05-3.5-.85-1.5.25-1.05 4.8.45 4.65 0 4.75-1 .25-2.35 0l-1.15-.3q-3.65-8.85-6.55-18.2-5.85-18.65-2.25-20.9.8-.5 2.6 1.1l1.6 1.65-.8-2.75q-.6-2.9.35-3.6.9-.7 2.75 1.3zm60.25-20.05q1.25.15 1.9 6.35l1.1-1.05q1.25-1.05 2.05-.85t1.05 15.85l.1 15.55q-1.7-4.75-4.25-4.75-.9 0-1.65 1.2-.7 1.15-1.35 1.15-.6 0-1.8-1.65-1.25-1.65-2.65-1.65-1.5 0-3.3 3.35l-2.1 3.45q-.45.05-1.1-1.35-.65-1.45-1.4-1.5-1.65-.1-3.05 3-1 2.15-1.4 4.4-.1-9.85.85-19.9 1.95-20 7.3-20.8 1.1-.15 3.8 5.4l2.45-3.15q2.65-3.15 3.45-3.05m56.9 236.95q.4-4 1.25-4.2.9-.25 2.65 1.75 1.7 1.95 2.85 1.55 1.1-.35 1.05-2.3l-.55-3.6 11.3 23.15q11 23.9 9.55 27.45-1.1.8-2.95-.55l-1.65-1.5.25 5.6q.05 5.65-1.05 6.15t-4.7-3.5l-3.4-4.15.45 3q.2 3-.8 3.2-1.3.3-4.4-3.05-3.55-3.85-7.2-10.3-3.25-5.75-11.5-21.8l-7.35-14.4q.8 1.4 2.6 2.6 2.3 1.55 3.75 1 1.1-.45 1.05-2.25-.1-1.8.55-2.05.5-.15 2.6 1.8t3.7 1.2q1.55-.65 1.95-4.8m34.35-19.55-.65-3.1 15.75 18.2q15.55 18.6 14.25 20.45-.8 1.1-3.85.95l2.1 3.9q1.8 4.25.6 6.1-.8.9-5.55-1.45l-4.6-2.5.6 1.55q.35 1.8-.75 2.9-2.1 1.3-15.95-13.15l-13.45-14.65.3-3.85q4.95 2.4 5.75 1.6t-2.1-6.65q1.65-.95 1.4-3.95-.25-3.1.25-3.5l2.3.1 2.7-.05q1.2-.8.9-2.9m10.2-14.45q-.45-1.7-.05-2.15.3-.3 2.4 0 1.95.25 2.65-1.05t-.5-3.4q-1.15-2.05-.75-2.55.4-.55 2.1-.5 1.7 0 2.4-.95.8-1.15.1-3.05l-1.3-2.55 9.25 6.2q10.1 6.9 14.25 10.25 5.1 4.15 10.65 10.2 5.6 6.1 5.25 7.3-.3 1-1.75 1.1l-1.4-.15.75 1.25q.65 1.5.05 2.7t-2.9.65l-2.2-.8.7 1.05q.65 1.2.25 2-.6 1.15-3 .55-3.7-1-14.3-6.15-9.85-4.75-19.8-11l-7.95-5.35 2.8.15q1.7-.1 2.25-1.05.5-.95.05-2.7m19.8-32.3q1.1-1.5-.7-3.15l-3.05-2.1 9.4 2.15q10.85 2.75 18 5.95 7.45 3.35 12 6.8 3.4 2.6 3.4 3.55 0 1.6-3 1.6-1.6 0-2.55.5-.3.25-.65.45l2.45 1.4q2.35 1.75 2.15 3.35-.25 2.05-5.1 2.45-5.45.35-14.6-1.65-8.05-1.8-19.3-4.95l-9.7-2.85 2.3.4q2.4.1 2.85-1.35.4-1.3-1.25-2.7-1.6-1.35-1.35-1.95.25-.65 3.35-.7 3-.05 3.25-1.2.25-1.1-1.8-2.6-2-1.45-1.75-2.1t2.6-.55q2.45.1 3.05-.75m.1-18.85q-.2-.6-1.2-1.7-.85-.85-.8-1.55.05-.65 1.95-1.05 1.95-.45 2.05-1.05.15-1.2-4-2.6l12-.4 21 .8q7.85 1.05 11.1 3.05 2.4 1.4 2.1 3-.2 1-3.7 1.9l-3.45.65 1.3 1.25q1.2 1.55.9 2.75-.3 1.25-17.3 2.35l-20.8.8q-3.2-2.7-4.8-3.15l2.85-1.4q2.85-1.65 2.75-2.75t-1.05-1.1z"/><path fill="#8cc456" d="M71.3 87.85q.9-.65 3.8 7.1l2.75 7.85q-1.65 2.05-3.95 10.25-1.15 4.1-1.95 7.75-1.45-5.4-2-8.4-.45-2.75-.05-13 .4-10.85 1.4-11.55m42.55 52.65q-1.35 2.2-3.25 10.1-1.7 6.95-2.15 10.8-.2-5.95-.15-12.9.1-13.85 1.2-18.8l2.9 4.2q2.65 4.55 1.45 6.6"/><path fill="#ffe792" d="m285.25 442.95 1.5-3.9 1.5 10.05q1.45 11.9 1.3 20.85-.15 12.25-1.15 19.9-1.2 9.1-3.3 9.4-1.85.25-4.65-5.5l-2.4-5.8-.7 2.55q-1 2.5-2.55 2.5-1.5 0-2.9-12.2l-1.15-12.25 3.05-3.85.9 2.4q1.2 2.4 2.75 2.65 2.55.15 3-13.55v-13.75q2.8 3.7 4.8.5m-76.5-24.7 4.8-2.45q-2 4.35-5.9 14.45-4.45 11.75-3.95 12.45l2-.05 1.4-.9-.4 2.65q-.3 2.75.4 3.15 1.05.7 4.15-3.5l-.2 1.8q-.05 1.9.75 2.3 1.2.6 10.1-11.55l1.8 1.85q-9.15 26.3-14.75 37.45-3.5 7.05-4.85 6.8-.65-.15-.3-2.95l.9-5.95q.4-2.65.15-3.7l-.35-.55-3.6 6.75q-3.8 6.65-5.1 6.4-1.25-.3-1.25-5l.25-4.7-1.5 2.25q-1.8 2.15-3.35 1.75-1.9-.45-1.2-8.05.75-7.9 3.65-14.15l9.7-21.55zm89-212.35q-1.05 12.45-10.25 29.35-4.65 8.4-9.05 14.35 1.2-8.2 2.75-17.4 3.15-18.35 5-23.4 1.9-5.05 3.1-6.15.6-.6.8-.15 1.7.3 2.5 3.95.75 3.45 1.25 3.3l3.3-4.85z"/><path fill="#f9be00" d="m248.6 281.35-13.45 16.5q-2-5.05-4.2-20.1-2.05-13.9-2.05-19.8 0-5.15.45-8.4.45-3.3 1.2-3.45.45-.1 1.25.7l.7.8 1.2-2.7q1.3-2.75 1.9-2.75t1.4 2.6l.7 2.6 1.8-3.3q1.95-3.25 2.8-3.15.3.05 1.25 11.95 1.25 15.45 5.05 28.5m25.15-38.9q.95 0 2.05 5l.9 4.95q-5.6 6.95-15.65 16.75 4.8-13.85 8.55-21.05 2.9-5.65 4.15-5.65"/><path fill="#ffe792" d="m191.75 420.85 5.35 1.05-27.85 27.65v-6q0-.75 8.5-9.1 8.35-8.25 10.1-9.45 1.3-.9 2.7-2.6z"/><path fill="#f9be00" d="M156.5 388.1q-12.95-.5-12.95-1.25 0-.65 2-1.9l1.95-1.15q-5.95.2-6.1-.7-.35-1.75 10.2-5.7 9.35-3.55 14.15-4.4l7.9 15.3q-4.85.3-17.15-.2m57.75 26.25 9.6-8.8 6.05 14.85q-6.1 13.1-12.3 21.55-4.75 6.45-5.8 6.2-.55-.15-.6-2.15l.05-1.95q-2.95 3.9-4.15 3.5-.8-.25-.65-3.15l.25-2.9q-1.8 2.15-2.7 1.75-1.65-.7 4.15-14.9zm61.7-27.85 11.1-11.9 8.15 25.15q8.6 27.05 10.9 36.85 2.45 10.6 2.45 16.7 0 4.85-1.35 5.2-.95.25-3.5-2.55l-2.35-2.85q-.4 4.85-1.35 5.4-2.35.45-13.45-35.75zm15.15-14.3-7.15-17.85 6.35 6.6 4.45-1.75 10.65 4.75 9.45 9.05q11.15 11.6 19.75 24.45 9.5 14.2 13.6 22.2 3.4 6.6 2.5 7.65-.7.8-3.3-.35l-2.45-1.25.1 2.1q-.05 2.25-1 3-1.1.95-7.05-4.4-5.8-5.2-15.35-15.6-7.85-8.5-20-24.4z"/><path fill="#8cc456" d="M312.35 362.5q3.9 4.25-7.55 7-2.7.7-4.95 0l-1.75-.8-10.25-10.35q8.8-2 17.6-5.05z"/><path fill="#fff" d="m178.45 392.05 16.05 2.2 28 12.55-3.1 3q-3.95 3.5-8.05 6.05-13.25 8.1-23.5 3.5T177 402.95q-.2-3.7.6-7.65z"/><path fill="#e95532" d="M137.05 19.8q2.6-2.6 4.5-1.75.9.4 2.7 2.85 1.1 1.5.95 4.3-.15 3.35-2.35 6.7-4 5.95-12 24.05-10.4 23.55-15.95 43.85-7.7 28.4-7.9 54.7-.25 35.55 12.25 76.4 7.6 24.8 19.9 43.2 15.45 23.15 37.7 35.15-5.85 2.8-12.25 10.7-3.15 3.95-5.2 7.3h-1.45q-7.75-6.2-18.25-18.3l-8.95-10.85q-9-7.95-11.35-11.35-1.45-2.15.25-2.9l1.95-.35-.9-1.45q-6.5-3.05-10.65-5.95-2.95-2.05-6.25-6.95-3.1-4.6-3.1-6.4 0-1.35 4.8-1l4.75.65.15-.7q-12.15-7.95-20-15.65-2-2.05-3.8-7.55-1.4-4.2-1.95-7.95-.4-2.5.65-3.3.9-.65 2.4.25 1.8 1.05 13.35 6.65-16.05-15.5-19.45-20-3.1-4.05-5.6-9.95-3-7.05-2.85-12.2.1-4.9 1.95-4.5.6.15 3.6 2.7l15.85 12.95-.15-3.95q-8.95-7.55-17.8-19.35-5.8-7.8-10.3-15.6-2.65-4.5-2.8-13.4-.15-8.4 1.55-9.45 1.2-.75 3.45 1.9l3.55 4.75 10.9 14 9.25 12.1q-5.65-10-12-28l-6.9-20.45q-1.55-4.05-.1-10.6.95-4.4 3.55-10.65 1.65-3.95 3.3-2 .95 1.1 2.25 4.9l8.85 22.7q-1-8.35-1.55-22l-.8-19.45q-.45-6.85 3.95-13.7 3.4-5.3 5.95-6.45 1.25-.55 1.4 8.75l-.15 9.45Q105 65.5 120 42.3q9.75-15.1 17.05-22.5"/><path fill="#e95532" d="M343.8 95.9q5.9-21.35 7.7-23.15 2.1-2.1 6.15 3.05 3.25 4.1 5.1 8.65 1.25 3.1 1.45 6.05.15 2.55-.5 7.45-1.35 10.45-9.2 33.75l-7.6 21.15q3-2.55 15.1-21.55 11.75-18.45 12.5-18.75 1.5-.65 3.05.95 1.75 1.75 3.8 6.35t1.8 8.95q-.25 3.85-2.6 10.1-1.9 4.95-12.9 22.05L357.05 177q1.9-.8 16.05-10.5 13.7-9.45 15.55-9.95 2.25-.65 3.35 3.75.75 3.3.6 6.85-.35 7.45-4.9 11.3-10.1 8.45-25.2 18.65l-13.05 8.45q2.2-.1 19.45-4 17.75-4 19.9-4.25 1.75-.15 2.85 1.6 1.1 1.7 1.1 4.35-.1 6.65-5.85 10.75-5.15 3.65-24.6 11.8l-18.4 7.4 20.05-.9q20.3-.65 21.5.55 1.45 1.45-.15 6-1.6 4.65-4.75 7.8-2.7 2.7-21.95 6.6l-18.7 3.4q5.3 1.25 19.95 2 11.5.65 12.1 2.15 1.6 2.6-2.4 7.45l-6 5.9q-1.35 1.3-19.55 1.6l-17.9.1q3.3 1.7 16.55 5.5 11.85 3.35 12.65 4.5 1.3 1.85-3.9 6-5.4 4.35-10.55 4.65-4.55.3-19.1-1.65l-13.6-2q3 3 14 7.4 10 4 10.8 5.95 1.05 2.65-3.2 5.05-3.35 1.9-7.6 2.7-2.7.5-17.1-3.5l-13.85-4.1q2.45 2.75 11.8 8.75 8.25 5.3 8.8 7.1.75 2.35-4.75 5-4.9 2.3-8.25 2.45-3.5.2-24.9-8.05 1.35 1.95 9.1 7.65 7.15 5.3 7.4 6.3.35 1.6-2.75 3.7-3.2 2.2-7.1 2.8-3.35.5-12.9-3.9l-8.85-4.5q-2.6 3.3-6.3 5.5-2.7 1.6-8.3 3.85-14.25 5.75-25.85 16.2-10.15 9.15-15.75 12.9-8.3 5.55-15.2 6.05-7.55.55-13.5-5.55-1.85-1.95-3.35-4.3l-1.1-1.95-7.45 1.1q-9.05 1.5-17.2 3.75-8.85 2.45-14.8 9.2-4.3 4.9-8.95 14.75-8.05 16.95-18.6 24.6-5.3 3.8-8.95 4.2L76.9 410.3l-10.25-22.35 23.6-25.6 1.85.3 6.05.45q1.2.05 4.15.85l4.8.7q6.45-.2 15.4-8.6 8.9-8.3 23.8-19.4l13.1-9.4q15.55-23.6 44.95-26.25 14.75-1.3 26.35 2.1 3.9-7.6 22.65-26.1 20.65-20.35 28.9-32.6 10.15-15.1 17.6-47.6 2.35-10.2 4.15-20.85l1.3-8.65q7.5-37.55-.15-82.95-4-23.65-10.95-44-1.8-5.25 1.05-7.75 2.4-2.2 8.3-2.55 4.9-.35 7.2 3.05 1.05 1.55 6 13.45 6.95 16.75 14.2 46.8 3.6 15 5.8 26.65.85-1.6 7.05-24.1"/><path fill="#2f8097" d="M248.75 415.5q3.7-.5 6.65 1.65 2.3 1.65 1.3 6.2l-2.1 6q-.6 1.4-1.25 10.4l-.55 8.7 3.45-5.1q8.4-10.5 9.65-12.9 2.5-4.7 2.95-5.3 2.4-3.5 4.85-3.2 2.7.35 4.2 3.65 1.4 3 1 6.2-.25 2.4-4.2 6.4l-5.75 5.55-5.2 4.85q-3.5 3.65-4.5 7.65-.95 4-3.35 8.4l-2.65 4.6q-.65 1.35-.85 4.25-.3 3.6.55 6.35 1.3 4.45.45 7.55-1.2 4.45-6.7 4.1-5.4-.35-6.15-5.2-.4-2.5.65-7.4.45-2.15.75-7.15l.25-4.6q-4.45-5.55-5.6-11.75l-.2-5.1-6.6-8.1q-3.05-3.6-5.25-4.45t-3.8-2.4l-1.1-1.35.6-5.45q.8-5.6 1.7-6.4 2.35-2.1 5.25-.7 3.05 1.45 5.55 6.2l7.6 14.35-.85-13.6 2.7.7q-.55-1.1-.75-2.8-.4-3.45 1.3-6.65 1.9-3.6 6-4.15"/><path fill="#fff" d="M216.9 426.95q2.1-3.3 4.1-3.45 1.6-.1 2.85.75 1.15.8 1.65 2.15.5 1.3-.3 3-.8 1.75-2.2 2.4-1.15.55-3.5 2.35l-3.35 2.6q-1.75 1.25-1.65.65-.35-6.2 2.4-10.45m33.55-15.25q2.8.1 4.15 2.3 1.3 2.15.55 5.1-.7 2.65-2.3 6.15-1.55 3.2-1.85 3.2-5.35-4.2-6.15-9.8-.55-3.75 1.5-5.6 1.55-1.4 4.1-1.35m20.6 15.95q.75-3.65 4.75-3.8 3.95-.2 6 3.2 1.7 2.75 1.65 4.15-.05.7-.4.85-2.1-.7-3.5-.6l-4.05.35q-2.8.05-3.9-1.55-.8-1.15-.55-2.6M247.2 487.1q4.95.3 4.05 4.85-.55 2.8-3.6 9.1l-2-2.55q-2.1-3.15-2.6-5.9-.55-2.9 1.2-4.45 1.3-1.15 2.95-1.05"/><path fill="#2f8097" d="M179.7 418.55q4.1-4.1 6-4.8 2.6-1 5.35 1.75 2.5 2.55.45 5.95-1.05 1.75-2.6 2.95l-9.05 8q-9.25 8.55-10.4 11.55-2.05 5.3 2.35 21.2 1.15 4.2 0 6.5-.55 1.15-1.35 1.45l-2 .2q-2.55-.05-5.25-1.4t-2.85-4.8q.3-3.9.2-5.45-.15-2-1.95-3.35l-5.25-2.9q-3.2-1.7-4.5-3.05L145 447.2q-2.45-3.5-7.2-5.4-2.75-1.1-8.6-2.25l-8.25-1.9q-4.1-1.55-4.3-4.75-.15-3.35 3.95-4.5 3.55-1 7.9-.05 3.15.65 9.2 3.65l5.45 2.9q-1.65-1.95-5.05-4.6-4.5-3.45-7.95-4.6-3.35-1.1-4.95-2.35l-1.5-1.75q-.85-1.15-1.3-3.35-.5-2.4.15-3.5.95-1.7 3.2-2.6 3.05-1.15 6.15.65 3 1.7 9.6 8.05l5.95 6 .5-.4-5.55-8.9q-5.05-1.55-5.7-3.25-.15-.5.2-6.1.25-4 3.3-5.05 2.1-.7 5.1.05 1.85.45 4.55 5.25l3.85 7.95 8.25 20.45z"/><path fill="#fff" d="M142.95 407.8q.6 1.65-.55 3.3-1 1.4-2.15 1.7l-5.5 1.7q-4.6 1.45-4.8 1.2-.25-.25 1.1-2.75 1.35-2.55 2.9-4.65 1.7-2.35 2.75-2.9l3.35-.15q1.25.35 1.4.45.95.55 1.5 2.1m-21.2 6.25q3.35-1.15 5.6 2.05.85 1.3 0 3.05-1 1.9-3.35 2.45l-5.45 1.95q-3.1 1.25-3.45.75-.45-.65 2.6-5.25 3-4.6 4.05-5m.65 20.65q.2 1.2-.35 1.85l-8.3 7.2q-1.4-.7-.05-5.85 1.25-4.85 2.1-5.45 1.15-.95 2.45-1.05 1.5-.2 2.7.85 1.25 1 1.45 2.45m40.4 36.55q.3-1.15 1.85-1.7l3.35.1q1.6.6 1.9 2.65.3 1.75-.35 2.85l-3.45 4.65q-2.9 3.75-3.2 3.75-.4 0-.1-12.3"/><path fill="#08294d" d="M115.7 393.75q-1.75 5.2-5.85 9.1-6.3 5.95-16.9 7.35l-3.4-.8q-4.2-1.2-8.2-3.15t-5.2-5.2l-.45-2.8q2.4-.4 5.85-2.1 6.85-3.35 12.05-9.6 5.65-6.8 11.05-8.4 4.2-1.2 7.65.75 2.75 1.55 3.7 6.55.9 4.65-.3 8.3"/><path fill="#fff" d="M90.65 394.9q4.95-4.25 6.55-5.45 2.4-1.75 4.2-1.3 2.3.55 2.95 3.4.75 3.3-1.35 8.25-1.9 4.6-6.4 7.85-3.6 2.6-5 2.45-4.8-.6-9.9-4.3l-4.15-3.55q1-.05 4.6-1.9 4.65-2.35 8.5-5.45"/><path fill="#e9545d" d="m81.75 400.7 10-6.05q2.2 1.65 2.8 4.8.6 3.3-1 6.3-1.4 2.7-4.45 2.95-2.5.25-3.95-.85-2.1-1.7-2.95-4.15-.6-1.65-.45-3"/><path fill="#f9be00" d="m57.25 394.1 4.95-4.45q2.35-1.75 4.95-1.65 2.4.05 3.65 2.45l5.2 9.45q3.8 6 9.3 8.3 3 1.3 7.3 1.95l4.35 1.2q1.9.6 2.05 1.3.25 1.1-2.25 5.8L88 433.95q-4.7 8.35-8.55 17.05l-3.8 7.85q-1.2 1.55-12.45 8l-16.1 9q-8 4.45-9.55 2.7-.6-.7-.4-2.2.25-1.65 1.45-3.1l13.8-16.65 9.65-29.6-6.6.5q-7.3.25-15.1-.25-7.7-.55-17.65 4.4-4.65 2.3-12.3 7.5-4.8 3.3-8.6 5.1-1.8-6.95 1.05-14.4 1.15-3.1 6.4-12.05 3.05-5.2 6.9-8.55 3.4-3 6.05-3.45l9.25-.4q7.9-.1 10.95.15 2.65.2 7.5-4.2z"/><path fill="#922f00" d="M64.6 442.95q1.5-1.9 8.85-6.1l7-3.8-1.5 5.15-2.65 8q-2.45 6.15-10.55 12.9-4.5 3.75-14.25 10.15-9.75 6.35-10.25 5.85-.4-.4 4.8-6.6l8.8-10.2q2.75-3.2 5.9-8.8 3.25-5.8 3.85-6.55"/><path fill="#ed8599" d="M83.4 416.35q3.4-.85 5.35-.85l-8.2 18.1q-6.85 2.95-8.5 3.85-5.4 2.95-9.6 7.5-4.45 4.85-10.05 9.2-5.1 3.95-5.9 3.6-3.7-1.85 5.25-16.2l9.7-14q4.3-3 7.9-5.3 7.3-4.2 14.05-5.9"/><path fill="#f9be00" d="M47 315.9q3.6-7.85 11.75-7.4 4.1.25 7.45 2.05 6.05-7.8 12.6-4.35 3.3 1.7 5.35 4.95 9.85-4.25 13.9 2.8 1.5 2.6 1.8 6.1.25 3.15-.5 5.15l-4.6 11.85q-3.35 9.6-3.65 16.5-.2 6.2 2.4 10.65 2.45 4.15 2.25 5.85-.45 3.7-3.6 6.8-3.35 3.4-8.85 5.05-4.8 1.45-9.45 4.5l-3.7 2.75-8.1-.7q-2.7-1.15-6.4-3.65-7.35-4.95-12.15-11.55t-5.25-18.65l.5-10.75q-6.05-1.7-8.5-6.55-.75-1.5-1.05-3.1l-.15-1.35q.65-12.1 9.35-15.75 4.35-1.8 8.6-1.2"/><path fill="#8cc456" d="M160.2 336.4q-6.1 6.05-10.75 20.5-2.35 7.25-3.45 13.3-4.3 1.25-11.05 6.05l-5.9 4.55q.75-8.15 5.1-19.35l3.65-9.9q-.4-.7-4.6-.7l-4.1.15 14.5-12.55q8.3-2.95 13.3-2.8 2.5.1 3.3.75"/><path fill="#dbdcdc" d="M177.05 390.9q-5.35-5.4-8.8-12.05l-2.45-5.55q1.35 2.35 5.4 5.85 5.1 4.45 11.7 7.95 18.7 9.9 41.1 8.5l-.9 11.05q-29 1.5-46.05-15.75m88.85-8.35q-.35-1.55.15-3 .35-1.05.95-1.7 4.3-4.55 6.15-8.2l.9 1.25q1.2 1.45 2.7 2.4 1.55.95 5.45.85l3.65-.25-1.1 2.25q-1.45 2.75-3.35 5.2-5.95 8-13.75 10.45.25-2.45-1.75-9.25m1.55 21.6q-.45 4.35-1.5 8.3-3.4 12.5-11.1 15.75l2.3-5.9q.65-1.75-.55-3.55l-1.35-1.45q.3-.8-.25-2.15l-.65-1.25q7.7-1.9 11.3-7.8 1.15-1.85 1.75-3.9l.35-1.65zm-24 14.45q-1.15 1.65-1.35 4-.3 3.8-.05 5.8-13-3.9-16.85-16-1.2-3.75-1.35-7.9l.1-3.4q.6 3.2 5.8 7.45 6.7 5.5 15.55 6.1l-.7 2.75z"/><path fill="#dbdcdc" d="m177.7 395.5.8-2.25 4.9 3.2q6.05 3.7 11.8 6.2 5.7 2.45 17.1 3.45l10.25.5q-10.2 11.2-21.15 13.95-3.45.85-6.55.7l-2.4-.25q.3-.6.25-1.65-.1-2.1-1.9-4.2-1.85-2.05-5.1-1-1.4.75-2.85 1.45-6.65-5.6-6.15-14.55.15-2.8 1-5.55"/><path fill="#1e6579" d="M192.05 417.35q.8 1.35-.15 3.35l-1.05 1.7-9.85 8.65q-10.1 9.25-11.4 12.3-1.35 3.2-.05 10.35.7 4.1 2.6 10.75.95 3.4-.4 6.5-.65 1.55-1.5 2.45.15-2.2-2.7-3.45l-2.85-.8q-.3-.85-.3-2.8l-.05-3.4q-.15-2.05-1.1-3.05-1.4-1.45-6.3-3.55-5.8-2.5-10.2-6.9l-.3.15-.5-1-.15-.2h.05q-2.5-4.15-6.45-5.9-3.2-1.4-6.6-2.15l-4.55-.9-4.15-.65q-2.5-.45-3.15-1.2 1.55-.85 1.7-2.35.15-.95-1.15-2.55l-1.35-1.35h5.35q7.5.75 18.25 4.2l2.45 3.9.25-.2q-3.85-6.3-10.1-10.75-1.45-.95-7.1-2.65-4.25-1.3-5.6-3.8l1.75-.8q1.8-1.05 2-2.2l.2-2.35-.05-.9q8.65 1.95 17.25 9.3 3.95 3.45 7.05 8.9l.55-1.3q-7.6-12.5-10.15-14.7-1.25-1.1-3.65-1.9-2.15-.7-2.95-1.65 5.25-1.65 6.6-2.85 1.05-.9 1.2-2.2.2-1.35-.7-2.35l5.95 6.15q6.55 7.45 9.6 14.1l5.2 12.2 25.5-25.2 1.05.7q1.2 1 2 2.35m64.35 1.4q1.1 1.5.15 4.35l-2.7 8.1-1.2 17.9q9.15-13.2 12.2-17.05 3-5.15 4.8-7.35 3.2-3.85 6.5-1.1l-3.05 1.1q-2.9 1.7-1.85 4.95.75 2.35 3.45 1.95 3.6-.45 5 .45l-2.5 3.8q-3.05 4.1-5.8 5.45-2.9 1.45-6.5 5.85-2.65 3.3-4.45 6.5l-2.9 7.6q-2.15 5.75-4.05 7.25l-1.15 3.4q-2.85-2.95-6.7-2.2l-3.3 1.35-.15-4.25q-1.8-1.8-3.45-4.7-3.3-5.85-2.45-11.35-7.75-10.3-9.65-11.65l-3.8-1.85q-2.5-1.25-2.95-3.2 4.55-3.05 5.25-4.55.7-1.55 0-3.25-.95-2.25-4.2-3.15l2.85-1.7q3.35-1.1 6.1 2.2 2.7 3.25 6.85 11.25 2.1 3.95 3.6 7.3l-.85-14 2.55.85q-.25-2.25-.1-4.8.25-5.15 2.3-6.85l2.7 5.5q2.9 5.45 4.05 5.45 1.25 0 2.65-4.35 1.2-3.65 1.4-6.1z"/><path fill="#dbdcdc" d="M140.6 405.75q2.3 1.1 2.5 2.85.15 1.1-.65 2.7-.7 1.45-12.2 4.55 1.55-2.45 6.1-6.55zm-15.15 9 .95.5q1 .75 1.3 1.8.3 1.25-.5 2.45-.7 1.15-2 1.65l-10.2 3.3q1.4-1.9 5-5.3 3.8-3.6 5.45-4.4m-3.55 18q.6.85.65 2 0 1.05-.4 1.55l-8.4 7.3q.95-3.7 3.45-8.1l2.35-3.65h.85q.95.1 1.5.9m43.65 36.7q3.2.75 4.05 2.25.5.9.25 2.7-.25 1.75-7.15 9zm57.7-45 1.3.75q1.25.95 1.25 2.1 0 1.35-.8 2.4-.7.95-2.65 2.3l-7.65 5.4q.85-4.75 4.45-9.15 2.8-3.45 4.1-3.8m25.25-12.05.8.35q.95.55 1.55 1.85 2 4.1.15 13.7-1.85-1.7-3.55-4.05-3.45-4.7-2.65-7.8t2.3-3.9zm27 19.2q-1.1.4-2.75-.5-1.75-.95-1.8-2.45-.1-1.3.5-2.1l.6-.5q1.45-.85 4.65 0 4.3 1.2 6.7 5.55l-.45.3-1.8-.15q-1.35-.45-3-.45z"/><path fill="#ce7486" d="M81.1 416.9q4.7-1.35 7.6-1.35l-8.5 17.85-8.1 3.85q-4.25-1.6-11.4-.75l-6.35 1.15 6.7-10.95 1.9-.25q8.8-6.8 18.15-9.55"/><path fill="#d7a400" d="M45.3 375.05q1.65 1.55 5.05 3.05 4.9 2.1 11.2 3.15 15.95 2.55 28.85-3.35-6.65 3.95-10.6 4.95-2.45.65-6.4 3.3l-3.5 2.5q-2.2-1.8-4.95-1.2l-2.3 1Q55.1 385.5 49 379.4zm-4-31.55q-7.9.4-10.65-6.3-.85-2.05-1.1-4.6V331q.2 1.9 3.35 4.55 3.9 3.35 7.55 2.8 3.4-.55 5.9-2.4l1.8-1.75-.4 4.3q-1.4 4.4-6.45 5m21.55-19.85q.15 4.8-1.9 7.4-1 1.35-2.05 1.7l-.6-5.4q2.3-.25 3.65-2zM73 325.5q1.7 1.15 3.7-.25l1.65-1.6-1.45 3.25q-2.05 3.2-4.75 2.95zm12.6-.2 4.4-.2 1.85-1.45-1.5 2.8q-2.1 2.7-4.95 2.15z"/><path fill="#ca4829" d="M268 286.25q9.45-9.3 22.3-28.35 6.4-9.5 10.9-17.2-5.1 14.85-15.65 30.95-9.15 14.05-19.45 24.75-10.7 11.05-20.8 28.75-5.05 8.85-8 15.5 0-9 9.65-26.15T268 286.25m-121.85 84 1.8-7.4 6.45-.6 7.4-.35q6.2-.45 11.5-1.8 13.3-3.35 22.05-12.35l-5.1 5.9q-9.55 8.3-16.4 10.65-3.65 1.25-19.45 3.55-4.1.85-8.25 2.4"/><path fill="#79aa4a" d="M130.75 369.6q6.9-5.2 17.2-6.75l-1.8 7.4q-10.9 3.95-17.35 11.3z"/><path fill="#ca4829" d="m128.8 381.55-2.6 3.25-1.8 2.55q-1.5 2.25-6.9 13.7-5.95 11.4-11.45 15.65-5.7 4.35-9.6 6.1l-2.75.85q2.65-3.05 4.4-7.4l1.2-3.75q5.5-2.6 8.35-5.55 6.6-6.75 11.65-21.2 3.6-10.35 11.45-16.15z"/><path fill="#d7a400" d="m93.25 415.3-8.85.7q-3.3.4-11.95 5.25l-9.5 5.2-11.95.9q-10.35.3-14.55-.2-3.85-.45-12.7 4.2-5.8 3.05-14.95 9.05-5.55 3.65-6.9 3.6-.7-.05-.3-.8 11.4-10 15.55-13.25 4.2-3.25 9.75-5.35 7.4-2.8 13.75-1.85l13.25.75q5.85-.25 8.4-1.25l11.9-5.2q11.15-3.95 19.05-1.75"/><path fill="#0d131a" d="M337.55 119.1q0 .4-1 1.5-.95 1.15-1 .75-1.25-18.15-11.5-50.6-8.1-25.8-12.6-34.85-1.2-2.35-2.35-3.5-1.2-1.15-2.65-1.4-2.15-.35-6.35.8-4.55 1.25-5.4 2.9-.75 1.35 0 3.35 12.65 36.25 14.8 70.35 2.9 47.05-11.9 103.45-4.55 17.3-14.5 33.25-8.35 13.45-18.2 22.45-39.45 35.95-44.6 59.6-.25 1.2-.95 1.05-.65-.1-.45-1.35 2.4-12.85 13.15-27.7 10.65-14.75 30.9-33.2 9.65-8.85 17.9-22.05 9.8-15.7 14.25-32.8 14.75-56.15 12-102.65-2.05-34-14.6-69.8-.9-2.6.35-5.05 1.2-2.2 6.35-3.75 4.75-1.4 7.5-.95 4.05.65 6.85 6.2 4.8 9.7 12.6 33.9 10.1 31.45 11.4 50.1M141.85 17q1.5.8 2.7 2.85 2.95 5.4 0 11l-2.2 4.05q-13.1 23.65-20.5 45.35Q109 117.9 108.8 157.6q-.2 46.9 17.3 88.9 19.6 46.9 52.35 62.05.35.15-.35.85-.7.75-1.05.55-31.25-14.4-51-58.2-19.25-42.55-19.25-93.25-.05-39.6 13.1-78.15Q127.55 57.8 140.75 34l2.15-4q2.45-4.6.3-9.35-.6-1.3-1.75-1.95-1.15-.7-1.9 0-10.4 10.4-21 28.1-18.95 31.5-22.7 64.9-.15 1.35-.85 1.3-.65-.05-.55-1.4 3-34 22.4-66.3 6.55-10.9 13.9-19.8 5.6-6.85 7.8-8.3 1.6-1.1 3.3-.2"/><path fill="#0d131a" d="M92.15 162.95q.35-2.45.9-1.95.5.5.45 1.8-1.15 34.9 9.15 72.2 16.3 58.95 56.2 91.4.3.25-.3 1-.65.75-.95.5-41.5-33.4-57.85-94.75-5.75-21.6-7.5-43.65-1.35-17-.1-26.55m222.8 20.45q.3-3.1.95-2.4.6.7.5 3.1-.9 20.1-7.1 38.85-9.2 27.85-29.6 51.65-22.4 26.15-29.25 36.3-10.55 15.5-12.7 29.65-.2 1.15-.75 1.1-.6-.05-.5-1.25 1.55-14.8 11.8-30.55 7.2-11.15 29.15-36.9 19.7-23.1 28.8-48.2 6.5-17.9 8.7-41.35"/><path fill="#0d131a" d="M96.25 68.7q1.5-1.45 2.95-.85 1.6.6 1.65 3.3l-.2 15.5q0 .4-1.05 1.6-1.1 1.2-1.1.8l.3-8.7.2-9.6q-.05-1.1-.45-1.4-.4-.25-1.05.35-1.1.95-2.7 3.25-1.9 2.65-3.2 5.45-1.85 4.05-1.85 11.7l.55 15.3q.7 15.5 1.65 24 .2 1.8-.6 1.85t-1.4-1.25q-2.1-4.3-5.3-13.4l-3.55-10.25q-.95-2.7-1.5-3.2-.75-.7-1.75 1.2-1.05 2.1-2.45 6.3-1.2 3.65-1.7 5.8-1 4.45.2 8.6l6.05 18.15Q87.1 163.3 93 174.5q.2.35-.35 1.5-.55 1.2-.7.85-6-11.3-13.55-32.15l-6.45-18.85q-1.25-4.3-.05-9.85.5-2.15 1.75-5.9 1.45-4.3 2.55-6.55 1.4-2.8 3.25-2.45 1.7.3 2.85 2.95 1.1 2.45 3.55 9.85l3.9 11.9q-2.45-27.55-2-37.4.15-3.35.45-5.1.5-2.95 1.75-5.65 1.35-2.9 3.4-5.65 1.55-2.05 2.9-3.3"/><path fill="#0d131a" d="M62.6 145.25q.25-4.25 2.6-4.8 2.2-.55 4.15 2.1 13.4 18 21.45 28.25.25.3.35 2.2.15 1.85-.1 1.55l-10.7-14-12.5-16.9q-1.2-1.75-2.05-1.7-1.15 0-1.35 3.4-.2 3.55.3 10.95.3 4.1 2.75 8.35 4.05 7.2 10.7 15.7 7.95 10.2 16.85 18.35.25.25-.35 1.15-.65.85-.95.6-9-8.3-17.1-18.6-6.75-8.65-10.8-15.95-1.2-2.1-2-4.8-.75-2.5-.9-4.65-.6-7.25-.35-11.2m9.6 46.55q-.25-4.25 1.75-5.1 1.65-.7 3.6.95l17.85 15.1q.3.25-.25 1.25t-.85.75q-3.85-3-18.05-15.95-2.6-2.3-2.3 2.65.2 3.15 1.2 6.95.8 3 1.65 4.9l1.85 4.55q1.4 3.25 2.4 4.4 11 12.55 21.05 21.6.3.25-.2 1.15-.55.85-.85.6-10.25-9.3-21.65-22.2-1.25-1.45-2.85-5.05l-1.8-4.5q-2.15-6.45-2.55-12.05"/><path fill="#0d131a" d="M83.7 230.65q-.6-3.35 1.25-4.3 1.6-.85 3.75.5 10.75 6.35 13.3 7.25.35.1.05 1.15-.35 1.05-.7.9-2-.7-6.3-3.25l-7.3-4.5q-2.9-1.95-2.25 1.95.75 4.55 2.6 10.1 1.45 4.05 5.4 7.7 8.25 7.6 17.8 12.9.3.2.3 1.4t-.3 1q-6.1-3.4-12.05-7.85l-7.05-5.75q-4.4-4.05-5.9-8.5-1.7-4.95-2.6-10.7"/><path fill="#0d131a" d="m103.7 260.6 7.1.8-.15 1.85-7.3-1q-1.2-.05-1.75.55-.75.8.45 2.6 3.55 5.45 6.45 8.1 1.6 1.45 5.65 3.9 3.9 2.35 6.65 3.6.35.15.7 1.5.35 1.3 0 1.15-2.95-1.3-7.35-3.9-4.7-2.8-6.7-4.55-3.4-3.05-6.75-8.55-1.8-3-.55-4.75 1.1-1.5 3.55-1.3"/><path fill="#0d131a" d="M118.65 286.85q-1.7-2.65 0-3.45l2.4-.3q.5 0 .3 1.5l-.9-.15-.8.1q-.2.45.5 1.5 1.6 2.45 3.4 4.3 2.65 2.8 7.6 6.5.3.25.45 1.85.1 1.65-.2 1.4-8.45-6.4-12.75-13.25m234.1-215.5q2.8 0 4.95 2.55 3.25 3.85 5.1 7.85 2.95 6.35 2.95 10.9l-.45 4.1q-1.75 9.55-5.95 23.85-4.9 16.7-9.75 27.75l11.65-18.05 9.8-15.6q2.25-3.4 4.8-3.1 2.1.2 3.8 2.7 8.4 12.25 2.7 23.65-4.2 8.35-9.95 17.9-6.85 11.55-12.1 18.2 4.1-2.55 11.6-7.85l12.65-8.95q2.9-2 5.15-1.35 2.1.65 3.15 3.35 1.55 4 .8 9.55-.9 6.6-5 10.55-12.7 12.1-34.25 24.6l31.75-7.2q4.1-.95 6.05 1.15 1.35 1.45 1.35 3.9 0 4.1-1.15 7.05-.7 1.9-2.25 3.75-1.8 2.1-4 3.25-10.05 5.3-15.5 7.85-10.75 5.05-20.45 8.2l14.35-.3q12.8-.25 17.3-.2 2.8.05 4.05.95 1.4 1.05 1.35 3.5-.1 3.45-1.95 6.85-2.7 5.05-8.25 7.4-2.75 1.15-11.1 3-10.35 2.35-20.2 3.55l21.45 1.4q5.2.35 6.2 2.55.65 1.45-.5 3.9-1.4 3.1-3.4 6.15-2.1 3.2-5.5 4.6-2.3.95-6.05 1.3-5.05.45-28.8-.15 4 1.4 11.7 3.6l10.65 3q3.75 1.1 4.6 2.7.8 1.6-.9 3.9-2.6 3.45-5.4 4.95-2.9 1.6-4.9 2.25-3.1 1-6.6.9l-11.45-.9-14.45-2.1 17.7 8.25q5.45 2.6 3.1 6.2l-1.8 2.1-2.4 1.8q-4.6 2.5-9.1 2.2-3.35-.25-11.6-2.65-8.05-2.35-14-4.75l15.45 11.2q2.55 1.9 2.9 3.55.3 1.7-1.75 3.35-2.95 2.45-6.85 3.8-2.55.9-4.8.85l-4.35-.65q-4.2-.85-17.4-6.25l11.05 8.6q4.85 3.9 1.2 6.75l-2.65 1.8q-1.7 1-2.8 1.4-3.75 1.3-7 .55-4.2-1-9.45-3.25-6.1-2.6-9.55-5.35-.8-.65-.35-1.15l1.25.05q2.75 1.95 8.95 4.4 5.65 2.25 9.6 3.15 2.8.7 6-.5 2.65-.9 4.85-2.55.9-.65.55-1.75t-1.8-2.15l-7.05-5.15q-6.25-4.8-10-8.6-.85-.85-.45-1.35l1.45.1q3.95 2.35 12.75 5.55 7.7 2.75 11.4 3.55l4 .6q1.9.05 4.15-.75 3.8-1.25 6.15-3.1 1.25-1.05.8-2.05-.3-.8-1.9-1.95l-7.4-5.05q-7.75-5.45-12.3-9.7-.9-.85-.5-1.45l1.55-.1q4.2 1.95 15 5.1 11.35 3.3 15.25 3.55 4.4.4 7.8-1.6 7-4.1 1.25-6.7l-9.45-4.25q-8.6-4.05-13.65-7.15-1-.6-.8-1.2.25-.6 1.35-.3 12.8 3.05 31.75 3.6 3.25.05 6-.8 1.95-.6 4.5-2 2.8-1.45 4.7-4 1-1.3.35-2.2t-3.1-1.55q-17.05-4.35-27.8-8.65-1.15-.45-1-1.1.2-.65 1.4-.65h19.05l15.3-.2q2.8-.1 4.8-.95 2.7-1.2 5.05-4.1l1.9-2.75 1.2-2.2q.7-1.75.45-2.45-.55-1.4-4.2-1.55l-17.35-1.25-13.05-1.15q-1.25-.05-1.25-.9 0-.8 1.2-.95 11.65-1.15 25.25-4.15 11.15-2.5 14.35-3.85 4.85-2.05 7.2-6.2 1.5-2.6 1.8-5.55.2-1.6-.45-2.2-.7-.7-2.95-.7-4.3-.05-22.2.4l-17 .5q-1.3.05-1.4-.65t1.15-1.1q17.85-5.55 42.8-18.7 1.9-1 3.45-2.8 1.35-1.6 1.95-3.2.95-2.45.95-6.35-.1-1.55-1.35-2.45-1.45-1-3.65-.35-9.4 2.8-22.65 5.55l-15.25 2.8q-1.35.2-1.5-.45t1-1.3q8.45-4.5 21.05-13.55 11.85-8.5 18.25-14.35 3.2-2.9 3.95-9.1.55-4.75-.35-8-.55-1.95-2-2.2-1.4-.25-3.1 1-8.5 6.2-18.2 12.7-8.8 5.9-10 6.4-1.35.65-2.1.45-.85-.25.3-1.85 2.6-3.4 10.65-16.25 9.7-15.35 13.85-23.65 3-6 1.15-13.05-1.15-4.3-4-8.65-.8-1.25-1.85-1.35-1.45-.15-2.85 2.3-6.2 10.75-12.1 19.75-8.5 13.05-13.65 18.2-.95.95-1.5.55t0-1.6q4-8.35 9.95-28.25 5.5-18.55 7.35-28.55.6-3.25.25-6-.4-3.3-2.35-7.4-1.65-3.65-4.85-7.45-1.45-1.75-3.05-1.75-1.95 0-2.95 3l-5.7 21.55q-6.35 22.9-9.65 29.6-.65 1.3-1.3.95-.6-.35-.1-1.7 2.65-6.85 8.25-27.3l6.55-23.85q1.4-4.35 4.7-4.4m-240.15 69q1.1-2.85-.8-5.65l-3.25-4.65q-.2-.3.35-.8.6-.5.8-.2l1.4 1.7 2.2 2.9q1.1 1.6 1.45 2.95.45 2.05-.4 4.4-2 5.15-3.4 11.05-2.05 8.6-2.3 16.8l-1.45-5.9q1.25-11.5 5.4-22.6m5.7 7.5q1.2-2.55 3.05-2.5 1.35 0 2.9 1.45 3.2 3 6.2 8.05l1.3 2.45q.6 1.45.6 2.95 0 1.3-.85 4.05-4.05 13.05-5.95 21.95-2.2 10.35-2.2 18.3l.2 5.3q2.85-12.65 7.05-25 3.05-8.85 6-15.5 1.05-2.35 2.7-2.45 1.45-.1 3.1 1.45 5.05 4.7 7.9 8.5 1.9 2.55 2.25 4.6.3 1.75-.4 4.95l-3.25 14.8q-3.65 17.05-5.55 29.15 3.65-10.05 8.85-19.3 4.25-7.6 8.5-12.9 1.8-2.15 3.65-2.05 1.75.15 3.5 2.3 1.25 1.6 2.5 4l1.5 3.65q.85 2.65.4 5-.3 1.5-1.4 3.5-3.75 6.7-7.1 16.8-4.35 12.95-5.75 25.6l10.7-14.5q7.55-10.05 11.1-14.35 1.95-2.3 3.65-1.75 1.6.5 2.35 3.05 1.8 5.95 1.95 9.45.1 2.35-.2 3.95l-1.25 3.75q-1.55 3.5-10.4 18.95l9.55-8q4.95-4.1 6-4.9 1.75-1.35 3.35-1.05 1.5.35 2.15 1.95l1.6 5.2q.75 3.35.65 4.9-.25 2.9-2 6.5-6.15 13.25-10.4 20.7 10.05-9.2 14-12.35 2.1-1.65 3.75-1.1 1.5.45 2.2 2.55.9 2.5 1.15 4.3.45 3.25-1.15 5.75l-3.95 6.2-4.45 6.55q-.2.3-1.05-.45t-.65-1.05l8.5-12.45.9-2.05q.2-.9 0-2.25-.1-1.25-1-4.1-.35-1-1-1.25-.85-.35-2.05.65l-18.1 16.2q-1.1 1.05-1.5.55-.35-.45.15-1.45l12.85-25.95 1.45-3.6q.45-1.45.25-3.15-.4-4.5-1.85-8.15-.3-.75-.9-.85-.75-.1-1.75.7l-21 17.8q-.75.65-1 .25-.25-.35.15-1.35l6.45-11.8 7.2-13.45q.95-2.1 1.25-3.95l.1-3.05q-.1-3.2-1.7-8.6-.55-1.75-1.15-1.9-.6-.1-1.65 1.25L157.4 260.7q-.85 1.05-1.3.45-.35-.4-.35-1.1.45-12.95 5.25-27.6 3.5-10.8 7.85-18.75 1.25-2.25 1.45-3.95.1-1.2-.4-2.95-.8-3.2-3.6-7.4-1-1.5-1.9-1.6-1.05-.15-2.2 1.45-4.8 6.75-9.2 14.8-6.25 11.55-10.45 23.7-.35 1.15-1.1 1t-.7-1.35q.9-12.2 5.2-32.85l4.2-18.45q.7-2.9.05-5.1-.4-1.25-1.6-2.9-4.05-5.45-7.4-8.55-1.05-.95-1.5-1-.8-.1-1.35 1.45-3.7 9.45-6.95 19.4-4.95 14.95-7.15 25.9-.35 1.65-1 1.35-.6-.25-.8-1.35-3.55-20.3 7.25-52.05 1.4-4-.9-7.15l-2.35-3.5-3.55-4.55q-.85-1-1.45-1-.75.05-1.45 1.55-4.25 9.35-6.6 19-3.05 12.7-2.45 24.8 0 .4-.85-.75l-.9-1.55q-.6-12.3 2.45-24.3 2.25-8.7 6.65-17.95M142 .4q1.7.9.2 3.8-8.5 15.95-12.45 25.4-.15.35-1.8 1.3t-1.5.6q2.95-7 14.4-28.25.9-1.65-.3-1.65l-1.7.4q-7.2 2.45-13.7 7-1.45 1-3.25 2.95-2.05 2.1-3.3 4.1-3.8 5.7-8.2 15.35-8.05 17.5-12.55 37.6-.05.4-1.3.8t-1.2 0q4.85-21.15 13.1-39.15 4.25-9.3 8.35-15.6 1.35-2.1 3.65-4.4 2-2 3.65-3.15 3.85-2.7 8.25-4.85 3.7-1.8 5.95-2.4zM89.8 44.15q1.7-2.15 3.25-1.65 1.7.55 1.6 4-.7 21.3-.05 26.25l-.95 1q-1 .6-1.1.25-.25-2.4-.1-10L93 46.15q.05-2.25-.5-2.3-.4-.05-1.25 1.05-1.25 1.55-4 6.3-2.7 4.7-4.5 8.5-1.15 2.5-1.65 5-.5 2.65-.45 6.25.2 16.35 1.9 34 .05.4-1.15-.65t-1.25-1.45q-.9-10.95-1.45-32-.1-3.5.35-6.1.5-2.65 1.85-5.65 1.55-3.3 4.55-8.3 2.85-4.7 4.35-6.65M69.45 91.2q.4-4.6 2.2-4.2 1.6.35 2.6 3.3l4.25 12-1.85 1.05-4.3-13.3q-.45-1.35-.8-.7l-.2 1.05q-.6 6.45-.6 15.5l.05 2.95q.15 5.6 2.6 14.4l-1.8.5-1.85-7.1q-1-4.65-1.1-8.4-.15-7.4.8-17.05"/><path fill="#0d131a" d="M346.05 15.5q2.1 1.9 2.85 4.55 2.8 9.6 5.45 23.75 3.45 18.35 3.85 31.25 0 .4-1.2.2-1.2-.15-1.2-.55-.4-12.8-3.75-30.75-2.65-14-5.4-23.45-1.25-4.5-5.85-5.9-5.6-1.55-9.85-1.5-3.9.15-3.25 4.8 8.9 63.45 7.5 85.75 0 .4-.9.35-.95 0-.95-.4.45-19.3-7.5-85.5-.45-3.9 1.45-5.6 1.35-1.2 3.6-1.2 4.6-.1 10.4 1.55 2.75.8 4.75 2.65"/><path fill="#0d131a" d="m427.9 68.55-.45 3.5Q413.9 118.3 405 138.15q10.35-14 29.85-47 1.5-2.5 3.55-2.05 1.75.35 2.9 2.4 4.25 7.65 6.1 17.6.65 3.35.15 7-.45 3.1-1.5 5.3-6.55 13.55-11.15 22.15-10.55 19.75-19.45 31.8 11-8.35 35.9-34.4 2.4-2.55 4.25-2.2 1.95.4 2.95 4.05.95 3.45 1.6 8.45.65 5.15.4 7.95-.25 2.65-1.05 4.7l-2.15 4.1q-2.85 5-14.75 19.55-15.35 18.85-26.3 27.65 16.1-6.5 42.3-24.8 2.3-1.65 4.1-.85 1.9.8 2.1 3.8.3 4.1-.25 9.7-.55 5.35-1.5 8.95-1.05 3.85-2.05 5.7-.9 1.65-3.1 3.95-3.3 3.45-14.7 10.9-14.9 9.7-28.7 15.25 16.45-3.7 39.35-10.35 3.1-.95 4.45.55 1.15 1.3.5 3.8-2.35 8.3-4.3 12.15-1.35 2.75-2.65 4.35-1.65 2-4.25 3.65-4.55 2.9-15.85 6.95-16.6 5.9-33.75 8.1l38.5 2.3q4.15.1 5.2 1.75.75 1.15 0 3.45-2.75 7.8-5.45 11.7-1.85 2.7-4.1 4t-5.75 1.65l-15.8.55-28-1.75q5.5 1.95 16.6 6.6l14.05 6.1q6.1 2.85 1.95 6.1l-7.95 5.45q-4.95 2.95-8.75 4.5-2.9 1.15-4.95 1.25-2.5.15-5.75-.9-1.75-.55-9.35-3.95l-14.15-6.3q11.85 7.75 18.1 12.35 4.25 3.15 1.25 5.8-1.8 1.6-4.75 3.6-3.05 2.1-5.05 3-3.8 1.65-8.65-.05-2.2-.8-8.55-3.8-6.7-3.2-13.05-6.5 8.75 6.85 14.9 12.2 4.05 3.5.3 6.05-5.1 3.5-8.45 4.45l-2.95.55q-2.4.1-4.8-.9-3.8-1.55-9.4-4.85-6.1-3.65-11.7-7.9l7.3 7.9 6.15 6.65q1.15 1.3 1.2 2.55 0 1.55-1.65 2.55-5.65 3.35-9.1 3.65-3.3.2-6.7-1.85l-3.8-3.1-6.55-5.5 4.65 5.5q1.1 1.45 1.2 2.8.1 1.6-1.5 2.6-5.3 3.1-9.1 3.7-4 .65-7.1-2.1-1.45-1.25-11.15-11.85l5.7 11.45q.95 2.05.8 3.2-.25 1.65-2.55 2.25-6.95 1.9-10.35 1.55-1.7-.2-2.9-.85-1.25-.7-2.5-2.1-1.1-1.3-7.1-11.35l-6.7-11.65q-.7-1.6-.05-1.85.55-.25 1.4 1l6.95 11.15q6.35 10.2 7.2 11.15l1.9 1.7 2.3.65q3.9.45 9.35-1.15 1.1-.3 1.1-1.1l-.55-1.85-5.65-11.35-4.35-8.35q-.55-1.3-.05-1.65t1.35.75q2.9 3.8 9.75 10.9l7.6 7.6q2.55 2.15 5.6 1.65 1.8-.3 4.1-1.15l4.05-1.95q.85-.55.65-1.3l-.85-1.35-6.5-7.75q-6.25-7.2-7.35-9.2-.65-1.25-.4-1.65.3-.45 1.45.7l11.1 9.85 10.05 8.15q2.9 1.75 5.6 1.55l4.05-1.15 4.2-2.05q.65-.3.55-.95l-.7-1.2q-4.75-4.85-11.2-12.25-6.05-6.9-8.55-10.2-.8-1.1-.35-1.55.4-.45 1.4.5 6.15 5.75 16.65 12.1 8.3 5.05 11.7 6.3l6.65.25q3.45-.95 7.9-3.85 1.7-1.15-.4-2.9l-23.7-19.95q-1.1-.95-.6-1.45.5-.55 1.75.3 5.9 3.9 17.45 9.35 9.85 4.7 13.8 6.05 2.25.8 4.2.7l2.75-.55q1.2-.35 4.4-2.3l5-3.55q1.4-1.35-1.15-2.95l-28.8-19.15q-1.1-.75-.7-1.45.4-.75 1.6-.15 4.5 2.25 18.1 8 13.6 5.85 17 6.95 2.9.95 5.05.8 1.85-.1 4.4-1.1 7.35-2.95 16.1-9.25 1.85-1.35-1.5-2.95l-18.3-7.45q-17.9-7.25-19.4-8.15-1.75-1.05-1.25-1.55l1.8-.2q8.7 2 28.65 2.25 16.1.25 21.9-.35 3.1-.3 5-1.4 1.9-1.05 3.55-3.45 1.7-2.5 3.3-5.75 1.5-3 2.2-5.25.45-1.4-.15-1.9-.7-.65-3.4-.75l-21.45-.7q-14.8-.75-26-2.65-1.4-.2-1.35-1 .05-.75 1.45-.8 15.15-.45 36.35-7.45 16-5.3 21-8.45 2.3-1.45 3.9-3.45 1.05-1.35 2.4-3.9l2.45-5.95 1.85-5.55q.45-1.7-.25-2.1l-2.45.1q-9.15 2.85-20 5.8-21.6 5.9-31.25 6.65-1.4.1-1.55-.65-.1-.75 1.3-1.15 15.75-4.2 34.9-16.5 11.8-7.55 18.45-13.4 3.25-3 4.9-9 1.05-3.8 1.6-9.1.5-4.95.3-8.4-.25-3.75-3.35-1.55-14.8 10.4-21.3 14.35-16.05 9.85-27.2 12.7-1.4.4-1.65-.25-.3-.65.9-1.4 15.5-9.6 45.05-50.65l2-4q.8-1.95.95-4 .3-3.1-.6-9.05l-1.2-6.5q-1.15-4.2-3.95-.9-6.45 7.55-17.95 18.85-15.4 15.05-22.5 18.7-1.2.6-1.4-.2-.15-.65.25-1.2 7.1-9.65 19.3-31.9 8.8-15.95 13.45-25.6 2.35-5 1.45-11.6-.4-2.85-1.65-7.05-1.7-5.8-3.9-9.8-1.75-3.1-3.25-.35-7.55 13.7-15.7 26.7-11.45 18.25-18.3 25.55-.85.85-1.4.45-.6-.4-.1-1.5 4.4-9.2 24.3-71.55 1.2-4.75-1.25-8.5-2.3-3.65-7.5-7.95-1.45-1.15-2.4-1.35-1.4-.25-2.15 1.5-4.55 11.15-9.65 22-8.65 18.3-14.15 25.05-.65.75-1.25.45-.6-.35-.4-1.3 1.55-6.85 4.2-30.35 2.45-21.6 2.45-24.8 0-6.95-3.9-10.4-5.6-4.9-11.8-8.1-2.15-1.1-3.3-.7-1.35.5-1.65 3.05l-2.8 29.45q-2.8 28.6-4.4 37l-1.25.05q-1.15-.3-1.1-.7 1.55-8.15 4.35-35.75l3.05-30.2q.65-4.4 2.9-5.2 1.9-.65 5.25 1.1 6.45 3.3 12.2 8.35 4.8 4.15 4.8 12.15 0 4.25-1.75 20.7-2.15 19.8-4.4 29.85 4.7-8.3 12.05-23.4 6.75-13.85 8.85-19 1-2.45 3.35-2.65 2.2-.15 4.45 1.7 5.35 4.35 7.9 8.35 1.95 3.15 1.95 6.45m-166.65 126.6q2.05-3 3.55-2.8 1.45.2 2.05 2.75l.45 2.65.65-.65q.8-.7 1.7-.65 1.25 0 1.9 2.6 1.2 4.75 1.2 18.2 0 5.25-.55 14.95-.55 9.9-1.1 13.95-.05.4-1.2 1.6l-1.15.9v-.1q.55-4.05 1.2-15.15l.65-16.1q0-18.9-1.25-18.9-.6 0-1.25 1-1 1.55-1.8.9-.7-.55-.85-2.25-.3-4.05-.95-4.2-.5-.1-3.1 4-1.35 2.2-2.3 2.15-.8-.05-1.7-1.95l-1.1-2.2q-.8-1.4-1.5-1.35-1.6.25-3.7 7.45-2.7 9.45-3.1 23.95-.4 16-.15 25.9.25 10.15 1.65 29.45.05.4-.9.45-.9.05-.95-.35l-1.9-29.25q-.55-11.4-.15-25.65.35-13.8 3.35-23.95 2.75-9.35 5.7-9.6 1.8-.15 3.4 2.5l1.3 2.75z"/><path fill="#0d131a" d="M273.65 241.55q1.4.15 2.25 2.15 1.05 2.4 1.95 8.55l-2.15 1.65-1.4-8.2q-.45-2.15-.95-2.2-.55-.05-3.6 6.95-3.45 7.7-8 19.6-.15.4-1.65.85l-1.4.1q7.05-18.55 10.75-25.15 2.5-4.45 4.2-4.3"/><path fill="#0d131a" d="m293.85 208.55 1.95-3.45q2.05-3.5 2.85-3.6.4-.05.5.85.15.9-.25.95-.55.2-2.7 4.4-3.05 6.1-4.2.55l-1-4.15q-.35-.9-.85-.95-.8-.05-2.65 5.85-1.8 5.6-2.5 9.7l-2.55 14.35-3.1 17.6q-.05.4-1.2.85l-1.1.05q2.85-20.65 5.4-32.8 1.95-9.1 4.05-13.65 1.95-4.15 3.75-4 1.55.15 2.7 3.8zM244.1 247.9q.5 8.45 1.3 13.7 2.45 15.8 4.35 19.3.2.3-.8.75l-1.15.1q-2.05-3.6-4.6-19.9-.9-5.8-1.35-13.85l.05-4.2q.05-1.75-.3-1.65-.25.05-1.25 1.95l-1.25 2.55q-1 2.3-1.85 1.95-.65-.3-.95-2-.45-3.2-.85-3.25-.5-.05-1.55 3.15-.6 1.65-1.35 2.05-.7.3-.8-.45l-.35-.8q-.35-.35-.65 0-.25.25-.5 2.15-.3 2.4-.35 6.3-.05 6.15.95 14.25.9 6.95 2.15 13.55.85 4.5 2.85 13.6-2.15 1.25-2.25.8l-2.9-13.7q-1.25-6.7-2.15-13.65-.8-6.45-.7-13.9.1-7.9 1.2-10.45.8-1.75 2-1.25 1.1.45 1.1 1.35l.2-.45q.85-2.45 1.4-3.4.8-1.3 1.8-1.3 1.05 0 1.7 2.1l.5 2.1 1.45-2.55q1.55-2.6 2.6-2.55 1.6.1 1.95 2.1zm-43.25 32.05-1.7 1.3q-2.95-8.5-.1-10.25l2.05.15q1.2.75 2.15 2.4-.5-1.15-.55-2.75-.1-2.15.95-2.65 1.3-.7 3.3 1 2.75 2.35 7.05 9.3 7.25 11.7 13.25 22.7.15.35-.65.8l-1 .1q-4.2-7.75-13.45-22.5-6.45-10.45-7.75-9.75-.35.2-.25 1.1l.7 3.3q.4 1.45-.3 1.6-.55.1-1.45-.65l-1.95-1.95q-.75-.7-1.2-.6-.75.2-.5 1.9.35 2.4 1.4 5.45m3.1 12.3 1.6-1.5 5.05 9.3q-1.7 1.5-1.95 1.05l-4.55-8.45z"/><path fill="#0d131a" d="M204.55 207.1q1.85-1.1 4.5 2.9 1.4 2.15 3.55 6.45l8.55 18q7.45 16.2 8.3 19.5l-.5 2-.75 1.25q-.85-3.3-7.95-19.3-6.9-15.55-9.5-20.35-3.85-8.8-5.1-8.9-.6-.05-.65.8l.25 2q.45 2.5-.35 2.45-.55 0-1.55-1.15l-1.35-1.8q-.8-.95-1.2-.75-.65.35.7 4.85.55 1.75-.05 2.25-.55.5-1.75-.7l-1.55-1.7q-.95-.85-1.45-.65-1.5.7.65 9.7 1.85 7.65 7.2 24.35 3.25 10.2 22.7 52.95.15.35-.65.7l-1 .05q-11.8-25.05-16.75-36.35-4.2-9.6-6.6-16.55-6.7-19.65-7.9-28.25-1-7 1.55-8.2 1.95-.9 4.05 2.15-.9-2.15-.9-3.6 0-1.6.75-2.2.55-.45 1.4-.2 1 .25 1.9 1.5l.8 1.2-.3-1.8q-.2-1.9.95-2.6M141 383.65q-.45-.55-.4-1.25.35-2.3 10.5-6.05 7.95-2.9 13.8-4.15.35-.05.55.85t-.15.95q-5.85 1.25-14.6 4.6-8.75 3.25-8.55 4.1.1.4 2.1.45l2.85-.05q1.6 0 1.8.65.15.65-1.2 1.2-3.65 1.5-3.55 1.9l13.1.4q13.1.05 16.05-.35.4-.05.8.85t0 .95l-17.25.5-12.4-.7q-1.9-.4-2.1-1.3-.2-.65.7-1.45.8-.7 2.15-1.25-3.35.1-4.2-.85m35.6 6.35q.4-.1.6.8.25.9-.15.95-3.75 1.05-12.3 5.1-9.1 4.35-17 9.05-.35.2-.8-.6-.45-.75-.15-1 7.9-5.15 17.45-9.55 7.8-3.55 12.35-4.75m1.1 19.3q.35-.15.75.7.4.8.05 1-7.25 3.7-16.5 5.65l-7.8 1.25q-.4.05-.6-.85-.25-.85.15-.95l7.95-1.5q9.3-2.15 16-5.3m19.2 11.5q.3-.25.95.45.6.65.3.9l-7.2 7.35-10.55 10.9-6.95 6.75-3.9 3.65q-.3.25-.9-.4-.65-.7-.35-.95l10.5-10.55zm28 17.2-9.15 25.4q-3.3 8.7-6.3 14.25-3.7 6.8-5.7 6.15-1.05-.35-1.05-2.4 0-2.2 1.35-9.65-2.5 5.45-4.3 8.15-2.35 3.55-4 3.5-2.15-.1-2.15-4.4l.3-3.65q-2.35 3.7-4.85 2.45-3.15-1.55-.15-13.9 2.2-9.2 5.8-17.85 7.65-18.35 14.5-29.7l.95.15q.8.45.6.8-5.15 8.5-14 29.75-4.1 9.9-6.25 19.55-2.05 9.05-.75 9.7.8.4 1.9-.9l1.6-2.4q1.55-2.75 2.3-1.7.65.9.35 3l-.35 2.25-.25 2.6q0 1.85.35 2.25.55.6 2.05-1.45l2.45-4.25 2.2-4.85q1.45-3.15 2.75-2.5 1.3.6.75 3.6-1.75 9.5-1.25 9.7.5.15 3.15-5.15 2.95-5.95 5.85-13.7l9.35-25.85z"/><path fill="#0d131a" d="m212.8 414.15 1.25-.15 1.05.3-8.1 19.45q-1.1 2.65-1.95 5.5-.8 2.8-.5 3 .25.15 1.1-.7.95-1.1 1.55-1.05.65.05.65 1.25l-.35 2.65q-.3 2.4-.05 2.5.6.25 2.3-2.45 1-1.45 1.85-1.3t.6 1.55q-.35 2.55-.2 2.65.35.2 3.65-4 3.2-4.2 5.05-7.2.2-.35 1 .15.8.45.6.8l-4.4 6.2q-4.65 5.95-6.35 5.55-1.25-.25-1.15-1.85l.2-1.35-1.75 2.1q-1.1.9-1.95.5-1.6-.75-.7-5.05-.6.55-1.35.75l-1.5-.2q-1.95-1.35 1.85-10.95l3.75-9.4zm52.05 18.7-2.25 2.05-.45-14.6q0-.4 1.15-.75l1.15.05zm16.05-1.1 1.15 20.4q.5 13.85-2.75 17.35-1.1 1-1.85.95-1.35-.05-2.65-2.4l-1.15-2.3-1.3 2.5q-1.45 2.45-3.1 2.35-3.95-.2-5.3-13.5l-.55-7.55 2.15-2.2.55 9.75q.35 5.15 1.5 8.7 1 2.9 1.7 2.9.75 0 2.4-3.1 1.2-2.2 2.15-2.15.9.05 1.7 2.35l1.1 2.3q.55.8.85.75 1.15-.05 1.85-3.9.85-4.65.55-12.65l-1.15-20.65zm-5.55-45.25q-.05-.35 1-.8l1.1-.1q.65 4.3 3.05 40.15l-2.2-1.15q-2.3-33.3-2.95-38.1"/><path fill="#0d131a" d="M276.2 393.15q-.1-.35.45-2.45t.65-1.75q.75 3.5 8.3 26.95l7.65 23.85 3.1 9.5q2.85 8.35 3.5 8.3.35-.05.35-1.5l-.05-1.8q.15-2.4 1.05-2.3.75.1 1.9 2 2.7 4.1 3.75 3.8 1-.2.35-6.35-.85-8.2-4.55-22.1l-8.95-29.65-8.05-25.45q-.1-.35.9-.8l1.15-.05 8.05 25.45 9 29.7q6.65 24.9 3.8 29.65-.6.85-1.5 1.1-1.6.3-3.6-2.15l-1.7-2.3q.1 4.45-1.9 4.5-3.1.2-8.6-19.1l-7.3-22.15q-6.85-21-7.75-24.9m32.15-24.45 1.55-1.5 11.2 11.95q7.25 8.1 13.65 16.6 7.25 9.7 12.6 19.9 5.55 10.6 3.95 12.2l-3.4-.1-2.5-1q.4 3.95-1.05 4.75-2.45 1.4-12.7-8.4-6.25-6-11.3-11.8-9.5-10.9-18.55-22.6-9.55-12.35-11.5-16.45-.2-.35.35-1.6.5-1.3.65-.95 1.9 3.9 11.35 16.35 9.8 12.85 19.5 23.95 8.5 9.8 15.15 15.6 5.3 4.65 6.15 4.25.4-.2.35-1.7l-.1-1.75q0-1.3.8-1.45.65-.1 2.3.65l1.6.7q1.15.45 1.45.3.9-.45-4-9.65-5.55-10.3-12.75-19.8-6.3-8.4-13.55-16.55zm66.25-25.5q-.35-.05.5-1.1t1.2-1q8.45 1.4 11.2 3 1.5.85 1.45 2.25-.05 1.05-2.4 2.2-2.4 1-2.4 1.15 0 .2 2.45 1.3 2.4 1.45 2.35 3.05-.05 2.15-3.5 3.5-4.95 1.9-17.2 2.65-26 1.55-33.8-.65-.35-.1-.4-1.3-.1-1.2.25-1.1 3.95 1.15 13 1.4 9.1.25 20.8-.5 11.55-.75 16.4-2.25 2.85-.85 2.85-1.7 0-.45-1.2-1.25-.95-.6-2-1.05-2.65-1.2-2.45-2.25.15-1 2.7-1.85 2.65-.95 2.7-1.55.1-.9-12.5-2.95"/><path fill="#0d131a" d="M284.45 416.1q1.35 1.25 1.4 1.65 1 6.2 2.4 20.3 1.6 16.5 2.25 29.7.65 12.2-.7 21.45-1.5 10.7-5.1 11t-6.75-10.35l-.75 2q-1 2-2.4 1.9-2.9-.2-4.15-12.3l-.7-12.25q0-.35 1.1-.65l1.05.1q-.25 5.25.8 14.1 1.05 9.1 2.1 9.15.5.05.8-.8l.6-2.6q.6-2.55 1.5-2.2.9.3 1.9 3.1 3.15 9.1 4.75 9 1.7-.15 2.95-7.2 1.5-8.7.8-22.65-.65-12.9-2.5-31.35-1.65-15.95-2.65-22.05-.05-.35 1.3.95M304.6 435l-.1-5.95 9.9 18.7 9.1 16.75q6.1 10.5 9.6 14.6 2.1 2.45 2.65 2.15.8-.45-.6-5.05-.5-1.85.5-2.25 1.1-.45 2.5 1.6 4.85 6.9 5.75 6.65 1.05-.15.15-8.8-.25-2.5.6-2.9.6-.3 1.75.65l1.3 1.3q1 .95 1.55.7.7-.35-2.25-8.55-2.8-7.65-6.5-16-2.9-6.6-9.1-19.05-6.45-12.9-9.1-17.25 5.4 4.85 5.7 5.25 4.55 7.6 14.45 30 3.3 7.3 6.35 15.8 2.15 6.05 2.2 8.7.05 1.75-.85 2.4-1.75 1.25-4.25-1.35l.35 5.7q0 4.65-1.95 5.15-1.35.4-3.15-1.35-1.4-1.3-3.6-4.5.3 1.1.2 2.2-.15 1.85-1.45 2.3-1.55.5-3.7-1.4-4.1-3.65-11.1-15.65l-8.05-14.3zm8.6-70-.7-3.6q41.65 40.3 59 61.95 10.65 13.3 13.5 18.25 2.35 4.15.75 5.45-.9.7-2.7.5 1.5 2.6 2.15 4.8 1.1 3.4-.25 4.65-1.25 1.2-4.05.25-2.1-.65-5.6-2.75.75 2.75-.75 3.75-2.6 1.65-16.85-12.8l-13.85-15.1q-.2-.3.55-1.2.8-.95 1-.65 3.05 4.15 14.5 16 12.4 12.75 13.65 12.05.6-.35-.55-3.05-.6-1.55 0-1.85.6-.25 2.15.65 7.7 4.7 8.75 3.65.7-.65-.55-3.7-1.1-2.75-3.1-5.7-.6-.85-.2-1.25l1.25.05 1.95.55 1.45-.05q.75-.65-5.2-8.65l-9.65-12.3q-15.5-19.4-56.65-59.9"/><path fill="#0d131a" d="m335.25 358.7 1.5-.15 2.15.15q11.8 4.85 29.05 15.65 14.1 8.8 23.4 16.05 24.35 19.55 22.1 23.7-.8 1.45-2.9 1.35.55.85.7 1.9.1 1.25-.55 2.05-1.1 1.25-3.85.45l.55 1.25q.15.95-.45 1.55-2.05 2.05-18.5-5.9-13.85-6.65-22.25-12.15l-18.4-11.9q-13.55-9.05-22.8-16.45l-1.7-2.85-1.1-2.35q9.55 7.55 24.7 18 10.5 7.2 20.35 13.55 7.55 4.9 22.6 12.25 14.85 7.25 15.5 6.45.25-.3 0-.9l-1.2-1.5q-.75-.7-.35-1.2l1.6-.05q1.7.75 2.85.85 1 .15 1.25-.2.6-.7-.75-2.65-.75-1.1-.3-1.65.35-.45 1.2-.3l1.35.05.75-.55q.5-.9-5.3-6.65-6.55-6.55-16.5-14.3-9.35-7.35-24.55-17-18.5-11.8-30.15-16.55"/><path fill="#0d131a" d="M379.65 358.5q-.35-.05 1.2-.9 1.55-.8 1.9-.75 10.45 2.55 22.1 6.7 8.35 3.05 14.7 7.1 6.65 4.2 6.3 6.6-.15 1.4-1.75 1.95l-3.3.4q2.25 1.65 3.1 2.8 1.55 2.15-.2 3.65-1.9 1.6-8.5 1.35-6.6-.3-16.5-2.45-11.15-2.35-18.9-4.65l-12.05-4.05-3.95-3.6 14.25 4.75q10.25 3.15 21.1 5.45 9.9 2.1 17.2 2.35 6.1.15 6.5-.85.25-.65-1.35-1.95l-2.3-1.65q-1.7-1.2-1.3-2 .35-.7 2.4-.9l2.15-.2q1.45-.2 1.55-.55.4-1.05-4.9-4.4-6.25-3.9-15.1-7.1-9.05-3.35-24.35-7.1m3.85-23.1q3.25-.55 14.75-.25l14.25.7q8.05.8 12.8 2.25 6.2 1.9 5.85 4.7-.2 1.85-2.4 2.65l-4.25.95q2.3 1.5 2.15 2.9-.2 3.1-17 4.1l-13.6.55-8.05.2q-.35 0-.7-1.15-.35-1.2 0-1.2l8.4-.1 13.9-.4 11.35-1.1q3.45-.55 3.55-1.1.2-.8-1.45-1.6-1.85-1-1.45-1.75.35-.7 2.45-1.15l3.95-.85q1.4-.4 1.5-1 .25-1.2-3.4-2.45-4.6-1.55-13.8-2.45l-14.35-.45-14.75.45q-.35.1-.2-1.15.15-1.2.5-1.3M87.8 415q.2-.35 1.3 0 1.1.3.9.6-3.2 5.4-7.6 16.3-3.5 8.65-4.9 13.15-1.35 4.35-3.7 7.45-3.1 4.05-9.75 9.05-14.35 10.8-20.3 13.35-2.9 1.25-3.25.35-.2-1.3 7.55-10.05 7.7-8.75 11.4-14.5 1.85-2.95 3.95-7.65.15-.3 1.4-.45l1.2-.05q-1.9 4.2-5.3 9.35-4.75 7.15-11.35 14.4l-4.7 4.9q-2.9 3.05-2.8 3.25l9.3-5.95q9.1-6.2 11.8-8.4 6.6-5.25 9.4-8.85 2.15-2.8 3.4-6.75 1.85-5.75 4.7-13.15 4.2-11 7.35-16.35m-14.65-8.05 1.5.25q.55.3.5.55l-.35.25-1.05.1q-1.95.1-3.6 1.55l-2.75 2.3q-1.35.85-1.25.1.1-.65.65-1.25l2.2-2.2q2-1.55 4.15-1.65"/><path fill="#0d131a" d="M60.6 426.5q.25-.3 1.15.15.95.4.7.7l-4.95 6.9q-5.55 8.1-8.6 14.65-1.85 3.9-2.35 5.6-.6 2 .25 2.35 1.5.55 8.45-6.7 4.1-4.3 9.5-8.6 9.05-7.25 15.85-9.35.4-.1.3 1.05t-.5 1.25q-6.55 2.05-14.95 8.8-4.85 3.9-8.85 8.1-7.65 8.05-10.45 6.8-1.75-.8-1.25-3.4.3-1.6 2.25-6.55 2.2-5.6 8-14.15zm28.7-36.65 4.25-4.55q4.8-5.5 8.15-7.35 4.5-2.5 8.5-1.4 3.9 1 6 5.05 2.85 5.55-.05 13.45-3 8.25-9.9 11.85-3.45 1.8-7 2.6l-9.05.9q-.35 0-.45-.75t.25-.75q8.7-.15 15.4-3.6 6.25-3.25 8.85-10.5 2.45-6.95-.1-11.9-1.55-3-4.6-3.95-3.45-1.15-7.4 1-1.9 1.05-3.8 2.9l-3.4 3.65-4.35 4.7q-2.85 2.65-5.9 4.45-3.6 2.1-8.85 3.5-.35.1-.65-.55-.25-.65.1-.75 3.8-1 8.5-3.8 2.9-1.75 5.5-4.2"/><path fill="#0d131a" d="M83.95 402.4q-.4-1.15.05-2.2.4-1.05 1.35-1.35t1.9.3q.95.65 1.3 1.8.35 1.2-.05 2.25t-1.35 1.35q-1 .3-1.9-.3-.95-.65-1.3-1.85"/><path fill="#fff" d="M89 399.5q-.2-.55.05-1.1t.8-.7l1.05.1.7.85q.2.6-.05 1.1-.25.55-.8.7l-1.05-.1q-.5-.25-.7-.85"/><path fill="#0d131a" d="M94.35 390.75q5.2-5.55 8.75-3.1 3.35 2.3 2.4 8.6-.55 3.65-3.05 7-3.25 4.2-9.05 6.8-.3.1-1-.35-.7-.5-.4-.6 5.4-2.45 8.55-6.35 2.5-3.15 3-6.45.85-5.75-1.8-7-2.6-1.3-6.3 2.55-7.3 7.5-17.85 10.85-.3.1-.5-.65-.25-.7.05-.8 10.65-3.35 17.2-10.5"/><path fill="#0d131a" d="M66.3 386.85q3-.35 5.2 2.5 1.35 1.65 4 7.3l1.65 3.4q4 8.1 18.75 10.05 2.8.4 3.65 2.15 1.05 2.35-1.9 6.8-2.05 3.2-7 11.9-6.45 11.3-8.65 16.25l-3.65 8.4q-1.35 2.9-2.8 4.4-3.2 3.4-31.8 18.6-2.7 1.4-4.7 1.25-1.3-.05-2-.7-.75-.55-.7-2.05.05-2.2 2.15-4.95l5.35-7q10-12 12.3-15.6.2-.35 1.7-.9t1.3-.2q-2.75 4.3-13.85 17.9l-5.9 7.1q-1.35 1.9-1.55 3.25-.15.9.15 1.3.35.45 1.25.5 1.35 0 3.35-1.1 11.25-6.25 19.85-11.4 9.8-5.9 11.35-7.5 1.75-1.9 6.45-12.45 4.3-9.25 10-18.7l5.95-9.4 1.5-2.45q.9-1.7.5-2.55-.4-.9-2.25-1.1-7.05-1-11.5-2.85-6.5-2.75-8.95-7.65l-1.65-3.4q-2.75-5.7-3.65-7.05-1.8-2.6-3.8-2.4-2.2.25-4.05 1.9-1.05.9-4.95 5.35-4.45 5-7.75 7.45-5.1 3.7-9.65 3.45-14.85-.85-18.05.5-3.6 1.6-8.2 6.75-6.6 7.4-10.4 17.8-1.65 4.45-1.65 8.1v2.25q.05 1.2.35 1.25.4.05 4.05-2.5l7.1-5.1q4.7-3.3 10.5-5.9 7.15-3.2 12.45-3.6 2.25-.2 9.55 0l9.95.05 6.7-.7 2.8-1.7Q72.8 419 76.5 417.4q8.45-3.6 16.4-2.6 1 .1 1.05.6t-.9.5q-7.35-.15-15.7 3.6-4.25 1.9-11.25 6.35l-2.95 1.8q-1.45.65-6.05.75l-11.05-.1q-8.9-.25-9.85-.15-4.15.4-11.2 3.45-6.35 2.8-10.3 5.55-11.2 8.35-13.15 7.65-.65-.25-1-1.05-.75-1.6-.5-5.45.25-4.05 1.5-7.7 3.85-11.25 10.75-18.8 4.75-5.2 8.9-6.95 3-1.25 10.25-1.05l8.6.5q3.7 0 8.5-3.35 3.85-2.7 7.5-6.8 3.6-4.1 5.35-5.4 2.15-1.6 4.9-1.9"/><path fill="#0d131a" d="M91.05 395.25q-.25-.2.15-.65.4-.5.65-.3 2.75 1.9 3.45 5.3.65 3.35-1.05 6.55-1.3 2.65-4.2 3.25-1.5.3-3.2 0-1.6-.3-2.4-.95-2.15-1.65-3-4.2-.65-1.95-.4-3.6.05-.3.65-.25t.55.4l.3 2.3q.7 2.5 2.85 4.15.55.4 1.6.65 1.3.25 2.5 0 2.15-.55 3.15-2.5 1.5-2.85.9-5.9-.55-2.75-2.5-4.25m26.25-33.7q-4.15 3.3-7.65 4.05-1.75.35-5.2-.05l-5.05-.8-5.25-.55q-.4 0-.95-1.35-.55-1.4-.15-1.4l6.15 1.05 5.9 1.15 4.9-.4q3.2-.8 6.05-3.3l13.05-10.8 15.65-13.1q18.35-16 41.5-15 1.3.05 1.15.7-.1.7-1.4.7-11.2.15-20.85 3.85-9.85 3.8-18.8 11.6-8.15 7.1-29.05 23.65m42.75 7.3-7.35.95q-4.65.8-8.6 2.55-9.6 4.3-14.2 9.7-3.8 4.4-9.75 16.85-5.2 10.9-11.85 17.1-5.2 4.8-15 9.6-.35.15-.25-.85.05-1 .4-1.2 8.9-5.15 13.4-9.5 6.2-6.05 11.2-16.45 6-12.55 10.4-17.45 4.95-5.5 15.05-10.05 4.15-1.85 8.55-2.7l7.3-.95 8.7-1.45q5.1-1.35 10.25-4.45 8.55-5.15 14.3-10.85 1.95-1.95 5.1-6 .95-1.15 1.5-.8.6.3-.15 1.45-2.4 3.8-5 6.65-5.9 6.45-14.65 11.75-5.35 3.2-10.6 4.6z"/><path fill="#0d131a" d="M133.45 349.95q4.35-.15 5.3.8.5.45.25 1.25l-.65 1.55q-7.2 15.35-8.7 27.8-.05.5-1.95.6 1.95-12.45 5.85-22.4 3.45-7.35 3.35-7.65-.1-.35-2.8-.4l-4.65.15q-.35.05-.5-.65-.15-.65.2-.75zm10.9-10.95q-.35.1-.45-.6-.15-.75.2-.85 3.85-1.3 8.15-2 5.75-1 8.15-.05.95.35.4 1.3l-.95 1.35q-3.35 4.25-5.25 8.15-4.5 9.05-7.8 24.2-.1.5-1.8-.4 3.35-15.25 8.05-24.55 2.95-5.8 6.25-8.85l-7.25.45q-4.4.75-7.7 1.85m-106.3 4.3q.1-.35.75-.15.7.15.6.55-.95 5.65-.35 12.6.8 8.6 3.95 13.9 3.4 5.7 10.1 11.2 5.65 4.55 10.45 6.65.35.15-.2.9-.5.75-.85.6-5.15-2.2-10.95-6.75-7.05-5.5-10.6-11.4-3.6-6.15-4-16.05-.25-7.75 1.1-12.05M76.3 386q-3.9 2-5.45 3.1l-1.8-1.05 5.2-3.3q3.8-2.2 7-3.5l6.5-2.8q3.25-1.7 4.85-3.75 1.95-2.45 1.9-4.4-.05-1.45-1.5-4.35-2.9-5.6-3.2-9.45-.6-8.05 4.6-21.5l4.15-11.35q1.15-5-1.4-9-2.7-4.3-7.8-4.1l-4.65 1.05q-.35.15-.7-.4t-.05-.8q2.65-1.95 6.95-1.65 5.35.35 8.25 4.95 2.85 4.45 1.15 10.85-.95 3.7-4.1 11.25-3.5 10.25-4.05 16.2-.7 7.75 2.75 12.85 2.1 3.05 1.95 5.6-.15 2.45-2.4 5.3-3 3.95-11.95 7.4-2.4.95-6.2 2.85"/><path fill="#0d131a" d="m41 314.7 6.4-.2q3.9.55 6.7 2.55 4.75 3.4 5.4 9.4.3 2.75-.55 11-1.65 15.45-.55 22.5 2.05 13.1 12.55 18.45 1 .55.65 1.15l-1.35.1q-11.7-5.7-14.15-18.85-1.3-7.1.4-22.9.75-8.3.55-10.6-.6-5.65-4.35-8.35-2.4-1.7-5.85-2.1l-5.6.25q-4.85 1.1-8.2 5.75-3.85 5.35-2.45 11.7.95 4.15 4.4 6.35 2.25 1.4 5.1 1.75 3.35.35 5.7-1.8 2.35-2.1 2-5-.3-2.4-2.35-3.3-2-.85-3.35.6-.85.9-1.3.6-.45-.35.3-1.35 1.85-2.7 4.95-1.6t3.6 4.85q.45 3.65-1.9 6.4-2.75 3.25-8.1 2.95-3.05-.15-6.1-2.2-4.2-2.75-5.3-7.75-1.6-7.3 2.75-13.4 3.95-5.6 10-6.95"/><path fill="#0d131a" d="M69.65 315.7q-2.4-5-8.75-6.15-5.95-1.05-10.05 2.25-2.25 1.85-3.25 4.1-.15.35-.75.15-.65-.15-.6-.55.4-2.75 3.5-5.35 4.4-3.65 11.4-2.7 7.55 1.1 10.4 6.85 2.8 5.55 1.8 16.8-1.4 15.45-.2 23.75 1.85 12.8 9.85 19.2.8.65.3 1.05-.45.35-1.25-.2-9.75-7.05-11.5-21.6-.8-6.6.55-22.2.95-10.35-1.45-15.4"/><path fill="#0d131a" d="M65.85 309.85q1.4-3 4.45-4.6 3.35-1.7 7.2-.8 11.6 2.75 9.25 21.55-1.8 15-1.85 22.15-.15 15.05 4.45 21.85.65.95.05 1.15t-1.3-.65q-5.3-7-5.65-19.55-.2-7.5 1.95-25 2.1-17.2-7.8-19.6-3.6-.85-6.55 1.15-1.85 1.3-2.95 3.25l-.8-.1q-.6-.45-.45-.8M62.1 323.9q.05-.9.6-.75t.75 1.1q.45 2.2-.35 4.65-1.2 3.5-4.65 4.9-.35.15-.65-.9-.25-1.1.1-1.25 2.45-1 3.4-3.25.7-1.6.8-4.5"/><path fill="#0d131a" d="M77.45 323.95q.3-.9.9-.9t.5.95q-.2 2.35-2 4.5-2.1 2.5-4.65 2.2-.35-.05-.35-1.1.05-1.1.4-1.05 1.7.2 3.3-1.45 1.4-1.4 1.9-3.15m13.4.3q.4-1.05.9-.85.5.15.2 1.25-.55 2-1.9 3.3-1.9 1.9-4.9 1.6-.4-.05-.3-.95t.5-.85q2.1.15 3.7-1.1 1.15-.95 1.8-2.4m69.85 2.5-3.05 1.3q12.35-20.95 35.3-26.5 16.1-3.9 38.1-.05.4.1.05 1-.3.95-.7.85-48.8-7.9-69.7 23.4m106.9 66.95-.1-2.6q8.15-5.2 13.85-11.65 3.35-3.85 4.35-6l1.15-.05q1 .25.8.6-1.8 3.35-5.25 7.25-6.15 7-14.8 12.45m-88.9-2.55q17.1 16.6 45.15 13.85l.1 2.6q-29 2.85-46.8-14.95-6.35-6.3-10.4-14.45-3.1-6.2-3.85-10.85-.05-.35.85-.35.95 0 1 .35.95 4.6 3.9 10.3 4 7.65 10.05 13.5"/><path fill="#0d131a" d="m177.5 392.3 1-.1q.9.25.8.6l-.65 2.7q-.55 3-.6 5.85-.1 8.9 4.9 13.2.3.25-.3.95t-.9.45q-6.35-5.4-5.95-14.8.1-3 .9-6.1zm44.45 13.45q.25-.25.95.35.65.6.4.9-9 10.65-18.65 14.05-6.85 2.4-12.85.9-.35-.05-.15-.95.25-.9.6-.85 4.15 1 11.1-1.5 9.85-3.5 18.6-12.9"/><path fill="#0d131a" d="M222.75 395.35q.25-2.35 1.1-2.4.8-.1.7 2.35-.6 13.5 4.4 22.2 4.75 8.3 13.4 10.45.4.1.15 1-.2.9-.6.8-9.65-2.4-15-11.05-5.85-9.5-4.15-23.35m43.4-7.45q-.3-2 .35-2.15.7-.2 1.25 2.1 2.15 9.1.5 19.95-2.4 15.85-13.2 21.05-.35.15-.45-.95-.1-1.15.25-1.3 8.65-3.75 10.95-20.4 1.5-11.05.35-18.3m-81.5 25.3 3.85-.15q1.9.35 3.25 2 1.65 1.95 1.4 4.8-.2 2.75-2.75 4.95l-10.75 9.7q-8.9 8.35-9.4 9.65-.5 1.55-.35 5.05l.4 4.55.75 4.5q.7 3.3 1.35 5.05 1.1 3.15 1.05 4.95-.05 3.4-3 6-.3.25-.7-.35-.35-.6-.1-.85 1.9-1.9 1.75-4.8-.1-1.65-1.1-4.45-1.2-3.45-2-9.95-.7-7.5.2-10.3.6-1.75 10.2-10.95l10.05-9.4q2.35-1.95 2.35-3.25.2-2.2-1.05-3.65-.9-1.15-2.1-1.4-1.6-.25-3.05.55l-2.1 1.65-20.1 20.5q-.3.3-.95-.35-.6-.7-.35-.95l10.2-10.6 9.85-10.35q1.7-1.65 3.2-2.15"/><path fill="#0d131a" d="M163.95 440.1q.4 1.1-.25 1.25-.7.2-1.15-.9-6.35-15.85-11.1-25.55-3.8-7.75-5.55-9.7-1.65-1.75-4.05-1.5-1.15.1-2.2.65-1 .55-1.55 1.35-.2.35-.85-.15-.6-.45-.5-.8.45-1.25 1.85-2.2 1.45-.95 3.05-1.1 3.95-.25 6.15 2.25 2 2.4 5.9 10.95 4.45 9.85 10.25 25.45m-28.55-24.9q-.1-.1.65-.65t.8-.45q.7.85 5.2 2.45 2.55.9 7.7 10.05 4.85 8.65 5.85 13 .25 1.15-.35 1.3-.65.1-1.05-1-1.8-4.45-6.55-12.6-5.05-8.55-6.4-9.1-4.95-1.8-5.85-3"/><path fill="#0d131a" d="m133.4 415.05 2.4-.85q4.25 3.5 9.4 9.05 5.4 5.8 7.55 9.45.2.35-.55.85l-1 .15q-2.45-3.85-8.35-10-5.65-5.8-9.45-8.65m-2.35-1.45q-2.25-.7-4.6-.45-2.4.2-3.25 1.3l-.95-.1q-.7-.4-.5-.75 1.5-2.35 4.7-2.7 2.65-.3 5.6.75zm-8.2 8.65q-.1-.35.65-.5.8-.2.9.15.4 1.1 4.9 2.5 3.75 1.1 7.75 3.75 6.85 4.5 10.35 11.4.6 1.15-.05 1.5t-1.3-.8q-3.6-6.4-10.05-10.4-3.5-2.15-7.3-3.35-4.95-1.55-5.85-4.25"/><path fill="#0d131a" d="M123 426.3q3.35-.25 10.1 2.65 5.55 2.4 10.85 5.65.35.2.1.95-.25.8-.6.6-4.45-2.75-11.3-5.3-6.75-2.5-9.15-2.4-2.05.1-3.65 1.05-1.9 1.05-2.35 2.85-.05.4-.8.15-.7-.2-.65-.6.55-2.75 2.85-4.2 1.85-1.2 4.6-1.4m40.2 44.2q.35.2-.1 1-.4.8-.75.6-2.2-1.15-2.75-3.6-.35-1.75.1-4.6.35-2.35-.85-3.8-1.4-1.7-6.1-4.15-3.4-1.75-5.2-3.4-1.1-.95-2.5-2.9l-2.45-3.05q-2.4-2.45-6.25-4.05-3.45-1.4-7.45-1.9-6.4-.85-8.4-2.35l.95-1.2 3.4.85 3.85.5q4.35.55 8.4 2.15 4.9 1.95 7.6 4.75l2.65 3.2q1.2 1.75 2.25 2.65 1.55 1.45 4.75 3.1 4.9 2.55 6.35 4.85 1.1 1.7.8 4.95-.25 3.15 0 4.25.3 1.4 1.7 2.15"/><path fill="#0d131a" d="M120.45 432.85q-.55-.4-1.3-.55l-1.95.1q-1.1.45-1.55 1.55-.8 2.1-1.4 5.6-.5 3.15-.35 3.25l3.5-3.05 4.05-3.8q.6-.6.15-1.7zm2.9 1.95q.15 1.2-.8 2.25l-8.55 7.3q-.55.45-.9.15-.85-.55-.45-4.3.35-3.7 1.6-6.8.7-1.9 2.45-2.5l2.65-.15q1.25.2 1.95.7 1.8 1.2 2.05 3.35m2.2-14.6.9-1.1q.4-.85.25-1.85-.2-1.25-1.15-1.9-1.1-.75-2.2-.75-1.05 0-1.75.6-2.5 2.05-6.05 8.6l4.4-1.6 3.75-1.2zm2.6-3.9q.45 1.6-.3 3.4-.45 1.1-1.5 1.8l-2.15.95-8.65 2.6q-1.1.2-1.35-.25-.55-.95 1.8-4.95 2.4-4 4.6-5.8 1.4-1.15 3.35-.95 1.5.15 2.55.9 1.2.85 1.65 2.3m12.75-9.7q-.9-.65-1.9-.8-1.1-.1-2.05.45-1.4.9-4 4.9-2.45 3.8-2.3 4.05l9.3-3.15q2.35-1 2.35-2.85 0-1.45-1.4-2.6m.95-1.45q1.5.95 1.9 2.65.45 1.75-.35 3.5-.4.95-1.65 1.6l-2.05.85-5 1.55-4.6 1.3q-1.4.2-.85-1.2.85-2.3 3-5.75 2.5-4 4.05-4.8 2.9-1.4 5.55.3m27.4 68.05-.3-1.4q-.7-1.3-2.2-1.55-1.9-.25-2.7.55-.5.45-.5 1.35v.25q-.3 5.05-.3 9.1v.55l5.5-6.95q.5-.95.5-1.9m-6.25-3.5q1.25-1.25 3.95-.95 2.35.35 3.35 2.35 1.2 2.25-.25 4.8l-.05.05-6.15 7.7q-1.05 1-1.65.6-.4-.3-.45-1.8-.15-2.5.25-10.05-.05-1.75 1-2.7m81.25-53.25q.25-.25.75.3t.2.8q-1.3 1.2-1.85 3.5-.85 3.7.4 9.4 1.45 6.65 2.1 14.25l.35 6.35q0 1.3-.7 1.3t-.8-1.3q-1.15-11.3-3.15-20.15-2.2-10.15 2.7-14.45m10.3.85q-.25-.3.25-.85.5-.5.75-.25l1.7 1.85q.85 1.25.8 2.8-.1 1.6-1.8 6.3-1.2 3.3-1.25 3.9l-2.05 20.45q-.2 1.55-.8 1.4-.6-.1-.6-1.3l.6-10.35q.6-9.35.75-10.4l1.3-4.2q1.65-4.75 1.7-5.95.05-1.15-.3-2z"/><path fill="#0d131a" d="M245.4 447.95q.25.35 0 1.5-.2 1.2-.45.9-7-9.65-12.8-20.55l-2.75-4.9q-1.25-2-2.05-2.4-1.8-.85-3.9-.05-1.75.65-2.4 1.7l-.9.1q-.75-.2-.65-.55.65-2.1 3.3-3.2 2.8-1.2 5.45.05 1.25.6 2.65 2.65l3.1 5.45 4.55 8.55q3.3 5.8 6.85 10.75m-26.4-13.8q-.15-.35.6-.75l.85-.05q.85 2 3.25 2.9 2.65 1 5.65 4Q233.7 444.6 241 455q.7 1 .1 1.35-.55.4-1.3-.55-7.9-10.1-12.4-14.35-2.7-2.5-4.8-3.3-1.6-.6-2.45-1.75-.55-.7-1.15-2.25m49.7-10.35q1.5-2.4 4.05-2.4 2.45 0 4.5 2 .25.25-.3.65l-.85.15q-1.8-1.25-3.55-.9-1.75.3-2.7 2.05l-2.45 4.55q-2.1 3.7-4.3 6.4-4.8 5.85-10.5 14.5-.2.35-.4-1.35-.15-1.65.05-2 3.7-5.85 9.25-12.55l3.8-5.5zm9.35 7.8q0-.4.7-.35t.7.45q0 4.2-5.4 8.8-5.65 4.75-8.25 7.35-4.4 4.5-5.25 7.65-1.8 6.8-4.1 10.45l-2.45 3.3q-.45.95-.45 4.2l.1 3.95.8 4.2q.75 2.7.6 4.15-.35 2.45-3.05 5.15-.3.3-.75-.4t-.2-1q1.9-1.95 2.05-4.25.05-1.3-.65-3.95-.4-1.3-.65-3.8l-.3-4.2q-.05-3.75.95-5 4.35-5.45 6.35-13.25.9-3.45 6.2-9.05 3.45-3.6 7.65-7 2.05-1.7 3.8-4.2 1.6-2.3 1.6-3.2"/><path fill="#0d131a" d="M238.2 427.85q-.05-.35 1.1-.2 1.15.2 1.2.55l.3 3.7q.65 7.7.45 10.25-.05.4-.95.3-.95-.05-.9-.45l-.25-4.75-.65-5.65zm4.9 61.2q.4.15 0 1t-.75.65q-4.1-2-2.75-9.05l1.15-7.8q.7-5.7.3-6.55-3.85-5.75-5.1-9.8t-.15-7.15q.1-.35.8-.15.7.25.6.6-.5 2.3.75 6.25 1.45 4.45 4.65 9.25 1.35 2-.8 16.35-.45 2.65-.3 3.9.2 1.85 1.6 2.5m-23.2-64.2q-2.8 1.55-4.2 6.8-1.3 4.9-.7 5l1.45-1.4q1.85-1.75 4.55-3.35 3.5-2 3.8-4.05.3-1.75-1.7-2.95-1.45-.95-3.2-.05m-5.25 5.25q1.65-5.4 4.3-6.8 2.55-1.35 5.25.25 2.55 1.55 2.25 4.45-.15 1.65-1.1 2.8-1.15 1.3-3.7 2.5-2.25 1.1-5.3 3.9l-1.2 1-.8.05q-.45-.15-.65-1.05-.45-2.4.95-7.1m30.85-17.15q1.5-1.65 3.65-1.95 3.2-.4 5.2 1.75 1.1 1.2 1.45 3.2.3 1.55.1 3.1-.2 1.6-1.85 5.5-1.85 4.45-2.9 4.55-.5.05-1.2-.55-1.75-1.55-3.6-4.55-2.3-3.75-2.4-6.45-.15-2.7 1.55-4.6m7.5 1.15q-1.45-1.7-3.6-1.4-1.4.2-2.65 1.55-1.3 1.5-1.3 3.25v.05q.05 3.55 5.45 9.85.3 0 1.8-3.55 1.5-3.65 1.65-4.95l.05-.75q0-2.5-1.4-4.05m22.8 16.85q1.95-.45 4.6-.05l2.3.4q-.85-3.7-2.65-5.1-1.65-1.3-3.7-1.5-2.05-.25-3.15.7-.8.65-1.25 1.65-.55 1.35.05 2.55 1 2 3.8 1.35m.35-7.9q2.65.15 4.7 1.8 1.65 1.25 2.5 4 .7 2.15.5 3.05-.15.55-.6.7l-1.35-.05q-3.35-.7-5.7-.1-1.65.45-3.05 0-1.7-.55-2.55-2.2-.95-1.9-.3-3.7.5-1.35 1.65-2.3 1.6-1.35 4.2-1.2"/><path fill="#0d131a" d="M243.3 487.55q1.4-1.45 4.1-1.45 2.6.1 3.85 1.55 1.2 1.35.95 3.6-.2 1.5-1.8 5.8-1.85 4.9-2.85 4.95-1.1.05-3.2-4.15-2.15-4.15-2.25-6.6-.05-2.4 1.2-3.7m4.1.1q-1.9-.15-3 .95-.75.85-.75 2.25v.3q.1 1.9 1.5 4.9 1.1 2.3 2.25 3.9l1.9-4.3q1.2-3.1 1.35-4.6l.05-.6q0-1.1-.6-1.8-.85-1-2.7-1"/></svg>