<svg xmlns="http://www.w3.org/2000/svg" width="201" height="197" viewBox="-0.1 -0.1 200.65 196.85"><path fill="#fff" d="M155.35 89.5q-1.55 5.15-5.35 10.95-10.4 15.65-26.8 21.1l-1.75-4.1q3.9-2.7 7.8-7.15 7.85-8.85 8-17.4l7.4-5.55q7.95-5.2 10.7-3.5 1.45.9 0 5.65"/><path fill="#0d131a" d="M136.85 92.4q7.7-6.6 13.4-8.55 3.8-1.3 5.4-.4 1.85 1.1.25 6.4-1.65 5.5-5.9 11.85-11.25 16.55-26.95 20.3-.2.05-.35-.6t.05-.7q7.85-1.85 15.05-7.75 5-4.05 9.2-9.6 4.95-6.6 7.25-12.9 2.1-5.7.55-6.25-2-.7-6.15 1.45-4.7 2.45-11 7.9l-.55-.45q-.4-.55-.25-.7"/><path fill="#8bc56c" d="M78.05 141.9q4.25 3.5 5.35 6.2l3.05-1.7q3.6-1.55 6.5-.8-1.75-1.55-2.55-4.75-1.6-6.3 3.2-14.35l28.05-9.25 2.2 6.1q2.1 7.05 1.65 11.9-.45 5-3.5 10.35-2 3.45-4.3 5.95-1.65 1.75-3.05 4.95-1.75 3.9-1.3 6.4.15.8 1.75 3.95 1.3 2.45 1.3 7.25 0 7.8-4.9 14.5-5.95 8.15-15.05 6.25-4.2-.85-6.05-5.2-1.95-4.6.15-10.15 2.2-5.95 7.15-10.65 2.35-2.3 8.45-6.65 1.05-.8 1.2-4.4.15-3.55-.7-6.35-2.1-1.35-5.95-1.7-7.65-.7-16.1 4.5l-.35.9q-.5 1.05-1.55 1.85-3.3 2.55-10.35 1.5-11.6-1.65-18.95-9.05-7.3-7.35-3.25-12.7 5.05-6.75 18.35-.7 5.2 2.35 9.55 5.85"/><path fill="#78ab5e" d="M125.55 132.35q-.05 7.95-3.05 12.95-1.75 3-6.35 8.1-2.85 3.7-2.6 8.4.1 2.35.8 3.95-2.25-1.65-3.1-2.85-1.25-1.8-.85-4.2.9-5-3.75-7.2-3.45-1.65-9.7-1.65-2.55 0-6.75 1.65-4.3 1.7-6.3 3.55.5-1.45.4-2.3-.15-1.05.7-1.7 1.85-1.5 6.15-2.5 4.55-1.05 8.4-.6 13.85 1.6 21.3-6.85 3.75-4.2 4.7-8.75m-58 10.45q10.45 4.4 13.5 9.45 2.85 4.8-2.6 6.15l-8.65-.4q-6.4-1.3-11.65-4.6-3.6-2.2-5.1-5.25-1.45-2.9-.35-5.05 2.75-5.4 14.85-.3m22.2 38.65q.45 8 8.05 9.95 7.7 1.9 15.1-4.65l-1.05 1.65-3.1 3.45q-5.6 4.75-12.7 3.05-3.1-.75-5.35-4.65-2.5-4.4-.95-8.8"/><path fill="#d6e6ae" d="M115.95 25.6q14.2 19 19.7 41.95 7 29.2-8 44.45-15.65 15.85-41 14.6-11.3-.6-21.2-6.75-14.2-8.8-14.9-25.2-.45-9.9 4.1-17.95 3.65-6.4 11.4-13.05Q70.6 59.8 80.5 52.4q8.75-6.8 13.3-12.55 1.8-4.1 3.4-9.75 3.15-11.25 2-18.75L95.8 1.2l2.95 2.65q3.25 3.15 4.7 5.7l3.4 2.8q4.4 4.55 9.1 13.25"/><path fill="#d6e6ae" d="M95.1 126.45q4.5-.1 10.55-1.75l5.15-1.65q-5.8 4.6-8.9 9.45-1.55 2.45-1.95 3.95-3.75-2.2-4.65-6.35zm-39.7-16.1q3.9 6.55 11.75 10.8 3.9 2.1 7.05 2.9-9.15 1.65-21.35.9l-12.55-1.5-9.15-2.1q-7.95-1.75-11.5-1.85-3.25-.05-6.4 1.4-2.85 1.3-3.25 1.2-.9-.2-.4-2.6l.7-2.3-5.05.6q-2.8-.05-3.3-.65-.6-.8 3.9-3.35-3.5-.55-4.9-2.55-.55-.75-.25-1.15l1.5-.15 9 .85q6.55.25 9.75-.15l21-1.9q5.6 0 13.45 1.6m141.15-14q-1.15 2.1-3.55 3.3 6.2.5 6.1 1.7t-6.35 2.1q3.7 1.4 3.55 2.05-.15.55-1.85 1l-4.05.55-6.3-.1-6.35.5q-3.8.85-15.4 5.9-4.3 1.9-14 2.45-6.7.35-10.35.05l-8.6.75q-7.8 1.15-11.35 2.95 2.95-1.65 6.55-4.75 7.15-6.25 10.3-13.45l7.25-1.55 11.3-2.05 11.65-.45 12.25-.15 10.35-.85 7.85-1.4q2.1-.65 1 1.45"/><path fill="#b9c897" d="M59.6 125.25q-12.45 0-20.5-1.95l-15.35-3.5q-5.3-.6-13.45 2.05 2.25-2.4 4.45-3.5 2.5-1.25 8.75-1.25 7.1.05 14.6 2 7.2 1.85 18.95 2.15 5.85.15 10.3-.1l6.9 3q-3.85 1.1-14.65 1.1m104-12.45q-8.1 3-18.05 3.1l-16.45.65q-4.7.55-11.05 2.85l4-2.4q4.1-2.75 4.9-4.6h12.15q13.1-.35 17.95-2 8.6-2.9 13.1-4 6.4-1.65 11.45-1.7l7.5.35 7.15 1q-.5.7-6.45.95h-8.2q-4.5.1-7.85 1.35z"/><path fill="#8bc56c" d="m103.45 9.55 3.4 2.8q4.4 4.55 9.1 13.25 8.3 11.2 13.3 23.1 1.9 4.5 5.3 14.3-7.6-13.75-8.65-13.5-.6.15-.05 4.2.5 4.05.2 4.1-.8.1-2.65-6.35-1.45-5.25-2.35-1.35l-.45 5.75-.45.05q-.55-.65-.9-3.85-.35-3.5-1.1-3.1-.6.3-1.4 3-.85 2.85-1.5 3.55-.8.9-.75-2.75.05-3.35-.65-5l-.7-1q-.1 2.35-1.05 5.75-1.05-.65-1.1-5.25-.1-4.3-.5-4.3-.55 0-2.65 6.15-2.05 6.1-2.5 6.05-.4-.05-.15-5.5.3-5.35-.2-5.35-.55 0-2.55 4.05-1.95 3.95-2.2 3.9-.3-.1.05-3.1l.65-4.65q.45-5.2-1.8-2.15l-2.4 4.1q.1-1-.15-1.4-.4-.8-1.8 2.05-2.2 4.35-3.5 6-1.6 2.1-.3-2.45l1.25-5.9.55-3.5q2.95-6.55 3.8-9.35 3.05-9.95 2.6-20.55L95.8 1.2l2.95 2.65q3.25 3.15 4.7 5.7"/><path fill="#922f00" d="M85.65 121.65q-1.65.95-2.35 2.2L81.2 122l-.85-1z"/><path fill="#ed8599" d="M85.65 121.65q4.15 0 7.1-1.15-.65 2.15-2.65 3.5-1.75 1.25-3.25 1.1-1.75-.1-3.55-1.25.7-1.25 2.35-2.2"/><path fill="#fff" d="M62.9 98.65q3.2 2.75 5.9 7.55 2.25 4.05 2.6 7.9.3 3.6-1.05 4.3-1.85.95-5-.3-4.35-1.7-7.4-7-1.95-3.4-1.8-8.5.1-5.05 2.05-5.85 1.65-.65 4.7 1.9"/><path fill="#a0d7e5" d="M70.1 117.2q-1.6.6-3.95-.85-3.1-1.9-4.4-6.55-.9-3.2 0-5.85.95-2.8 3.15-2.45 2.9.4 5.55 7.45 2.65 7.15-.35 8.25"/><path fill="#00aecb" d="M70.7 115.5q-.75 1.35-3.15.15-2.8-1.4-4.15-5.55-1.1-3.35-.15-5.75.9-2.3 2.75-1.5 2.8 1.2 4.5 5.35 1.8 4.3.2 7.3"/><path fill="#0d131a" d="m113.4 22.25-.55-1.55-.3-1.3q20.65 29.05 25.1 53.5 3.8 21-4.8 33.7-6.5 9.7-18.1 15.3-11.7 5.6-24.9 5.35-11.85-.25-20.9-4.6Q59.2 117.9 54 108.9q-5.3-9.2-4.05-19.8 1.3-10.7 8.85-19.5 3.75-4.4 18.85-15.85 13-9.85 17.5-17.7l-.6 2.7q-3.35 5.95-16.25 16-14.65 11.4-17.9 15.2-7.45 8.65-8.8 19.15-1.4 10.5 3.75 19.4 4.65 8.15 13.7 12.75 9.1 4.7 20.85 4.9 11.05.2 21.7-4.3 12.75-5.35 19.75-15.85 7.7-11.45 5.2-30.1-3.15-23.85-23.15-53.65"/><path fill="#0d131a" d="M98 8.15q0-.2.4-.2.4-.05.45.15 2.4 11-1.65 24.1-3.45 11.3-9.9 19.55-1.8 2.3-2 2.1-.25-.2 1.3-2.6 6.2-9.6 9.05-18.15Q99.75 20.65 98 8.15"/><path fill="#0d131a" d="M95.45 2.55q-1.05-2.4-.5-2.5Q95.5-.1 97.8 2q9.3 8.5 13.55 23.65 4.2 15.1.95 27.85-.8 3.2-1.2 3.15-.45 0 .3-3.15 2.65-11.1-.95-25.45-4-16.1-13.85-25.75 5.25 10.55 5.15 23.1-.15 13.55-6.6 25.75-1.4 2.65-1.8 2.6-.4-.1.85-2.7 4.7-9.75 5.75-20.5 1.35-14.55-4.5-28"/><path fill="#0d131a" d="m102 8.3-.25-.75q-.15-.6.05-.5 9.75 7.35 14.95 19.75 5.55 13.1 4.3 28.1-.25 2.9-.65 2.85-.45 0-.25-2.85.8-14.25-4.45-27.2-5-12.25-13.7-19.4"/><path fill="#fff" d="M118.25 93q4 1.55 4.8 6.8.75 4.85-1.6 9.9-2.7 5.8-10 8.4-6.8 2.4-9.25.05-1.65-1.55-1.5-5.95.2-4.9 2.8-9.55 2.9-5.15 7.7-8.05 4.4-2.6 7.05-1.6"/><path fill="#a0d7e5" d="M109.05 117.85q-1.95 1.2-4.45.55-2.1-.6-2.5-1.45-2.2-4.7.1-11.05 1.95-5.4 4.15-6.45 2.2-1.1 4.9.95 3.05 2.4 3.05 7.35 0 3.4-1.55 6.2-1.45 2.5-3.7 3.9"/><path fill="#00aecb" d="M104.55 117.8q-3.55-.7-3.55-6.4.05-5.8 3.95-9.65 1.95-1.85 4.55-.3 3 1.8 2.75 7.35-.15 4.05-3 6.9-2.55 2.5-4.7 2.1"/><path fill="#008cb3" d="M102 109.1q.45-3.05 1.6-4.85 1.1-1.75 2.4-1.6 1.5.2 2.2 2.3.65 2 .2 4.7-.4 2.6-1.75 4.3-1.25 1.55-2.5 1.4-1.25-.1-1.85-2-.65-1.85-.3-4.25"/><path fill="#0d131a" d="m85.25 122.05-3.9-.45q1.35 1.55 2.95 2.35 1.5.7 2.85.55 1.2-.1 2.55-.95 1.6-1.05 2.4-2.5-2.85 1.1-6.85 1m-5.4-.85-.9-.4q-1.5-.75-1.2-.95.25-.15 1.75.4 2.6.95 6.4.9 3.65-.05 6.1-1 1.5-.55 1.75-.4.25.1-.4 1.2-1.25 2.2-3.1 3.4-1.55.95-2.95 1-4.05.2-7.45-4.15m-23.7-11.05q.25.05.2.65-.05.65-.3.55-13.2-3.5-32.25-.4-7.15 1.15-17.15.2l-4.1-.5q-1.55-.2-.65.75 1.05 1.25 3.65 1.9 1 .2 1 .4l-.8.65q-3.95 2.05-2.45 2.7 1.3.6 6.45-.05 1-.2 1.15 0l-.35 1.1q-.5 1-.5 2.25 0 .95.3 1.05l1.2-.4q3.65-1.8 7.75-1.9t10.65 1.35l10.95 2.45q7.9 1.4 16.95 1.6l16.65-.8.6.55q.4.55.15.55l-17 .95q-9.4-.15-17.3-1.5l-11.55-2.8q-5.95-1.55-10.05-1.45-3.5.05-7.7 2.3-1.25.65-1.8.55-.6-.1-.85-1.2-.4-1.7.5-3.7-4.8.65-7 .15-1.2-.3-1.3-.8-.15-.5.6-1.35 1.25-1.35 2.9-1.95-2.8-.6-4.1-2.55-.7-1.1-.55-1.5.25-.65 2.5-.3l11.5.85 9.85-.65q19.4-3.15 32.25.3m65.6 7.6q.6-.15.7 0 4.95 11.35 3.35 20.4-1.4 7.9-7.95 14.45-2.65 2.65-3.6 6.85-.85 3.65.05 4.9 4.05 5.65 2.65 13.75-1.3 7.55-6.1 12.55-5.5 5.7-12.8 4.95-7.7-.75-9.05-8.4-.75-4.5 1.65-10 3.85-8.8 14.75-15.15 1.3-1.2 1.5-4.8.2-3.85-1.25-6.05l.65.05q.7.15.8.35 1.55 2.35.95 6.55-.55 3.85-1.75 4.55-6.05 3.65-10.4 8.9-6.65 8-5.25 16 1.1 6.35 7.4 7.05 6.15.7 11.2-4.55 4.75-4.95 6.15-12.25 1.55-7.8-2.1-12.85-1.1-1.5-.4-5.4.8-4.35 3.5-7.4 6.55-7.4 7.8-14.15 1.5-8.05-3.05-20-.05-.2.6-.3"/><path fill="#0d131a" d="M194.85 94.55q3.55-.8 2.7 1.4-.8 2-3.4 3.45 6.4.45 5.8 2.05-.55 1.6-5.95 2.15 6.15 2.05.4 3.35l-6.55.5-7.3.1q-3.25.25-6.45 1.35-2.1.7-5.6 2.35-6.9 3.35-12.1 4.35l-15.9.85-13.05.9q-6.7 1.1-10.9 3.2-.2.1-.15-.35.05-.4.25-.5 5.45-2.7 10.05-3.5l12.9-.8 15.35-.9q6.5-1 12.85-4.05 3.7-1.75 5.7-2.45 3.4-1.2 6.75-1.45l6.15-.05 7.45-.45q1.5-.25 1.65-.5.1-.25-1.05-.8l-1.65-.65q-2.7-1 .2-1.25l3.8-.7q1.45-.4 1.3-.85-.15-.35-1.4-.6l-3.25-.45q-1.35-.1-1.4-.4-.05-.25 1.05-.9 2.1-1.3 2.8-2.45.75-1.3-1.5-.8-11.65 2.6-28.9 2.2L150.45 99q-8.25 1.2-16.05 3.35-.2.1-.2-.6.05-.7.25-.75 7.95-2.25 16-3.35l14.95-.9q16.9.7 29.45-2.2M50.95 135q5.45-4.45 16.75.05 11.1 4.45 16 12.45 6-4.35 12.25-1.35 1.85.85 1.65 1.1l-1.9-.45q-2.6-.95-5.5-.7-3.25.25-5.7 1.9-.9.65-1.2.6l-.75-.9q-4.45-7.1-14.8-11.5-10.75-4.55-15.7-.5-4.2 3.5-1.05 9.45 3.4 6.3 12.9 10.35 7.55 3.2 13.75 2.55 5.8-.65 6.45-4 .35-1.6.65-1.6.3-.05.3 1.35-.05 4.25-6.75 5.25-6.95 1-15.35-2.55-10.75-4.6-13.75-11.65-2.65-6.2 1.75-9.85"/><path fill="#0d131a" d="M109.55 154q-.4.3-2.3-1.25-2.95-2.3-7.1-2.45-4.9-.15-9.5 1.4-3.8 1.35-6.15 3.3-.2.15-.2-.45-.05-.65.15-.75 2.3-1.75 5.75-2.95 4.9-1.75 10.25-1.55 4.2.15 7.6 2.85 1.9 1.55 1.5 1.85m-16.2-27.65q.1-.2.65 0l.45.35q-2.95 4.45-3.45 9.95-.6 6.25 2.95 9 .2.15-.25.4l-.65.05q-4-3.1-3.6-9.05.35-5.35 3.9-10.7"/><path fill="#0d131a" d="m111.4 122.25 1.8-.1q-3.8 2.3-6.95 5.9-3 3.35-4.75 7l-1.25 1.95q-.4.2-1.5-.75-2.1-1.8-3-3.55-1.45-2.65-1.1-6.3 0-.2.55-.2l.5.2v.05q-.4 6.1 4.15 9.3 1.4-3.85 4.5-7.4 2.95-3.45 7.05-6.1"/><path fill="#fff" d="M104.15 106.95q0-1.2.45-2.05.4-.85 1.05-.85.6 0 1.05.85.4.85.4 2.05t-.4 2.05q-.45.85-1.05.85-.65 0-1.05-.85-.45-.85-.45-2.05"/><path fill="#008cb3" d="M69.55 108.65q.85 1.85 1 3.7.2 1.9-.5 2.1-.75.2-1.9-1.1-1.3-1.4-2.15-3.75-.85-2.3-.8-4.05.1-1.55.75-1.7.6-.15 1.65 1.25t1.95 3.55"/><path fill="#fff" d="M66.9 106.7q.25 1.1.1 1.95t-.65.9q-.45.1-.95-.6-.55-.75-.8-1.85t-.1-1.9q.15-.85.65-.95.45-.05.95.65z"/><path fill="#0d131a" d="M61.6 102.95q1.5-2.6 3.55-1.7l.35.75q-1.9-.8-3.1 1.55-1.25 2.45-.2 6.15 1.25 4.45 4.35 6.4 2.7 1.65 4 .5l.15.3-.25.55q-2.2.75-4.9-1-3.15-2.1-4.4-6.55-1.15-4.1.45-6.95m50.3-2.65q3.1 2.65 3.1 7.5 0 3.4-1.85 6.6-2.05 3.55-5.05 4.05l-.45-.15q-.3-.2-.1-.25 2.75-.85 4.6-4.35 1.6-3.05 1.6-5.95 0-4.7-2.9-6.95-2.6-2-4.9-.65-.2.1-.1-.25.05-.4.25-.5 2.8-1.65 5.8.9"/><path fill="#0d131a" d="M65.2 117.15q2.9 1.15 4.55.25 1.25-.6.95-3.85-.35-3.55-2.4-7.2-2.4-4.35-5.35-6.85-2.75-2.35-4.25-1.75-1.8.75-1.9 5.3-.1 4.65 1.7 7.75 2.8 4.85 6.7 6.35m-12.6-19.1q.35-6.35 3.75-7.1 3.6-.75 8.35 3.6 5 4.6 7.6 11.75 1.75 4.75 1.5 8.75-.25 3.65-1.95 4.35-3.3 1.3-8.2-1.4-5.3-2.95-8.6-8.85-2.75-4.9-2.45-11.1m65.1-3.85q-2.45-.95-6.45 1.45-4.35 2.6-7 7.35-2.35 4.2-2.5 8.65-.15 4 1.35 5.4 2.2 2.1 8.4-.05 6.65-2.35 9.1-7.6 2.1-4.6 1.45-9.05-.7-4.75-4.35-6.15m-10.05-3.65q6.95-5.2 12.8-4.35 4.45.6 6.45 6.65 1.9 5.65.55 12.3-1.65 8.15-11.75 12.9-9.4 4.45-14.65 1.7-3.05-1.55-3.9-6.75-.8-5 .9-9.95 2.5-7.25 9.6-12.5M88 121.3q.25 0 .35.25l-.15.3q-1.65.1-2.85.65-1.25.55-1.65 1.45l-.35.05-.2-.25q.45-2.2 4.85-2.45"/><path fill="#d6e6ae" d="M47.55 36.05q1.95 1.1 2.05 2.95-6.2 2.75-9.45 7.6-3.85 5.75-3.2 14.15.95 12.05 11 18.35 5.2 3.25 14.75 5.4l-.3 2.3q-7.1-.35-14.65-3.7-15-6.75-16.9-21.7-1.3-10.15 3.95-17 4.45-5.8 12.75-8.35"/><path fill="#00aecb" d="m65.65 35.95-7.6.55q-4.65.8-8.45 2.5-.1-1.85-2.05-2.95 4.7-1.4 9.65-1.4 4.8 0 8.45 1.3m52.95 1.15q-2.8.95-3.6 3.25-2.8-2.6-7.2-5.15l-8.5-4.4q11.35.6 19.3 6.3"/><path fill="#d6e6ae" d="M115 40.35q.8-2.3 3.6-3.25 5.5 3.9 8.15 9.45 2.85 5.8 2.15 12.6-.9 9.25-8.85 16.4-7.5 6.65-19.5 10.1l-1.6-2.1q5.7-2 11.45-6.05 11.55-8.1 11.9-18.45.4-11.6-7.3-18.7"/><path fill="#00aecb" d="M114.9 40.05q.4-1.35 1.55-2.2 1.05-.75 2.25-.75l.3.3q.1.3-.15.3-1 0-1.95.8t-1.3 1.95q-.05.2-.4 0zM47 36.3q-.2-.05 0-.3t.4-.2q1.2.25 1.9 1.15.65.85.5 2-.05.2-.4.2l-.35-.15q.15-1-.65-1.85-.65-.7-1.4-.85"/><path fill="#0d131a" d="M64.05 34.85q3.2.8 3.2 1.2 0 .45-3.2.5-11.3.35-18.2 5.2-8.1 5.65-8.45 16.6-.3 9.95 6.3 16.7 5.85 6 15.6 8.25 3.7.85 3.6 1.25L59 84.1q-10.35-2.25-16.55-8.85-6.7-7.05-6.4-16.9Q36.4 47 45 41q7.5-5.25 19-5.25-12.15-2.7-21.85 3.1Q31.4 45.2 31.4 58.4q0 11.2 8.35 18.85 7.6 6.95 18.85 8.45 4.15.55 3.95 1l-4.4-.2q-11.6-1.65-19.4-8.75-8.7-7.85-8.7-19.35 0-14.8 12.75-21.05 10.4-5.15 21.25-2.5m38.1-2q-4.6-1.95-4.55-2.3l5 .2q12 1.3 19.75 8.9 7.2 7.1 7.2 15.85 0 10.3-6.45 17.9-6.45 7.55-18.2 11.25-4.2 1.35-4.35.9t4.05-1.75q11.3-3.6 17.45-10.95t6.15-17.35q0-8.15-6.7-15.05-7.75-8-20.65-9.05 9.25 3.4 15.2 9.15 7.15 6.9 7.15 15.2 0 8.9-4.75 15.2T103.3 82.1q-4 1.85-4.35 1.55-.35-.35 3.9-2.4 10.1-4.85 14.55-10.85 4.4-5.95 4.4-14.65 0-7.7-6.2-14.1-5.15-5.3-13.45-8.8"/></svg>