<svg xmlns="http://www.w3.org/2000/svg" width="130" height="181" viewBox="0 0 130.05 180.55"><path fill="#009a63" d="M41.25 125.2q.15-2.75 8.15-6.8 8.25-4.25 13.2-3.35 7.1 1.35 12.55 3.35 8.5 3.1 16.85 8.85 7.85 5.4 14.1 14.7 3.1 4.7 4.65 8.25.5-3.6 2.9-5.5 2-1.6 4.4-1.6 5.2 0 8.25 4.3 3.15 4.4 3.15 12.05 0 5.85-5.95 10.05-7 4.95-19.35 4.95-9.75 0-18.05-2.55l-6.4-2.6q-5.05 2.15-13.5-1.25Q56 163.9 48.65 153.4q-8.25-11.7-7.4-28.2"/><path fill="#008756" d="M43.8 143.35q-2.65-7.8-2.65-14.35-.05-2.15 1.75-3.6 1.6-1.25 4-1.55 2.2-.3 6.15 3.75 3.85 3.95 6.05 8.5 4.55 9.7 13.5 18.3 14.35 13.8 31.75 13.8 16.95 0 21.6-8.8 1.45-2.75 1.5-6.05l-.25-2.75 1.1 2.3q1.05 2.9 1.05 5.7 0 6.6-5.45 10.8-6.55 5.05-19.75 5.05-10.8 0-18.7-2.55l-5.75-2.6q-5.1 1.85-12.8-1.15-8.5-3.35-15.6-11.2-4.6-5.1-7.5-13.6"/><path fill="#0d131a" d="M62.45 115.6q-.2-.05-.1-.55t.3-.45q18.45 3.5 29.3 11.3 12.75 9.2 21.3 28.2.9 2 .5 2.2-.45.2-1.4-1.8-8.65-18.05-21.45-27.2-10.6-7.6-28.45-11.7"/><path fill="#0d131a" d="M78.55 169.4Q67.6 163.75 62.6 154q-.5-1-.45-2.2 0-1.2.3-.6 4.3 10.4 15.4 16.35 11.15 6 26.4 6 11.35 0 17.75-3.85 6.4-3.9 6.4-10.8 0-5.9-2.6-10.2-2.9-4.8-7.55-4.8-3.5 0-5.45 2.3-1.85 2.1-1.25 4.7.05.2-.35.3-.35.05-.4-.15-.75-3.3 1.35-5.85 2.15-2.75 6.1-2.75 5.45 0 8.6 4.35 3.2 4.4 3.2 12.1 0 7.35-7 11.8t-18.8 4.45q-14.5 0-25.7-5.75"/><path fill="#0d131a" d="M40.95 125.05q0-.2.35-.15l.35.25q-.8 8.7 2.4 17.45 3 8.2 8.8 14.8 5.75 6.5 12.75 9.65 7.3 3.3 14.15 2 .2-.05.6.4t.2.5q-7.7 1.45-15.35-1.6-7.4-2.9-13.2-9.35-12.9-14.15-11.05-33.95"/><path fill="#e73820" d="M39.1 80.9 38 79.85q.95-2 3.7-5.65l3.3-4.1q1-1.1 4 .05 2.9 1.05 2.95 1.95l.3 6.2.1 7.85-2.15 4.3q-1.95-1.05-3.5-1.55l-3.25-.25-2.1.1q-.3-3.5-.75-5.4-.3-1.2-1.5-2.45"/><path fill="#8bc56c" d="M49.35.8q3.1 0 5.4 3.8 1.15 1.9 1.7 3.8 3.75-3.5 6.25-4.7 1.8-.85 3.95-.85 5.4 0 10.3 10.9 4.9 10.95 4.9 23.25 0 9.95-3.4 18.05-3.7 8.8-10.6 13.1-6.15 3.85-11.6 4.4l-4.2-.2q5.5-2.3 9.1-7.65 1.8-2.7 2.5-4.9-5.05 2.2-9.85.55l-3.75-2.1q-1.55 2.5-5.1 4.2t-7.3 1.7q-4.85 0-8.65-3.1-4.4-3.6-4.4-9.55 0-6.95 4.05-12.25 2.05-2.65 4.05-3.9.35-14.25 6.65-25.15Q44.8.8 49.35.8"/><path fill="#8bc56c" d="M59.35 75.25q1.05 2.45 1.05 4.1 0 12.4-4.65 21.15-4.8 9-12.05 9-4.25 0-7.55-3.65l-2.5-3.65q6.45-.95 9.65-2.55 2-1 5.75-7.5l3.3-6.3L52.3 78l-.25-5.65 2.25-1.2q1.65-.05 3.15 1.35 1.25 1.15 1.9 2.75m-27.1 4.45 1.6.1q2.7-1 4.9.9 2.6 2.3 2.75 7.8l-5.55.6q-1.85.2-4.55 1.2l-2.35.9q-1.45-.05-2.7-1-1.6-1.2-1.6-3.2 0-3.05 2.35-4.15l2.3-.5q1-2.3 2.85-2.65"/><path fill="#8bc56c" d="M37.9 80.1q-1.1-.75-1.7-.9l-1.45-.05-1 .1q2.1-2.1 5.5-4.25l3-1.75-2.5 3.75zm-13.15 8.25.45.65 1.15 1.3q1.05.9 2.3.95l4.15-1.35q5.2-1.35 10.5-1.35 3.05 0 5.25 1 1.1.45 1.55.95-1.1 2.2-2.95 4.75-2.2 3.1-3.65 4-1.55 1-7.25 2.2-5.55 1.2-8.15 1.2-2.55 0-4.2-1.95-1.7-2-1.7-4.85 0-2.35 1.3-5.15zM57.7 96.4l1.5 1.5q1.45 1.8 1.45 3.4 0 1.65-.95 2.6l-.95.65.1 1.3q-.05 1.55-.75 2.7t-2.4 1.3l-1.55-.05-1.15 1.05q-1.4 1-2.75 1-1.3 0-1.9-1.65l-.3-1.7q2.9-2.3 5.5-4.9 1.6-1.65 3.05-4.6z"/><path fill="#8bc56c" d="m60.4 78.35 2.55 7.25q2.55 9 2.55 17.75 0 10.5-4.95 16.9-5.9 7.55-17.7 7.55-4.1 0-6.85-3.4l-1.95-3.4 2.3 1.1q2.55 1.05 4.1 1.05 6.5 0 9.8-5.85 1-1.85 1.6-4l.35-1.85 1.95-1.65q1.7.45 3.3-.55 1.05-.65 1.25-2.75l.05-1.95q.5-.2 1-.7.95-.95.95-2.4 0-1.4-1.5-3.45l-1.5-1.8q1.8-4.3 2.55-9.05.45-2.95.35-6.2z"/><path fill="#8bc56c" d="M54 122q4.25-.3 4.3.55l.1 4.1.7 7.75q.65 6.15 1.3 9.85.65 3.6 1.65 7l2.35 7.1q1.2 3.45 3.25 6.5 1.05 1.55 1.85 2.35l1.85-.3q1.8 0 3.25 1.85 1.35 1.8 1.35 3.85 0 2.4-1.75 4.45-1.8 2.2-4.15 2.2-1.95 0-3.5-1.15l-1.2-1.2-1.25 1.5q-1.7 1.5-3.85 1.5-3.1 0-4.9-2.95l-1.2-2.95q0 2.5-2.45 4.2-2.1 1.45-4.25 1.45-1.85 0-3.85-1.3-2.55-1.7-2.55-4.3 0-1.8.9-3.25.9-1.5 3.15-3.25 1-.8 3.05-4l2.1-3.65q.7-1.5.7-9.25 0-4.15-1.3-9.95-1-4.2-2.25-7.85-.75-2.15-2.55-3.8l-1.65-1.25q-2.4.85-5.35 4-3.45 3.8-3.45 7.3 0 3.4 1.6 7.85 1.9 5.3 4.95 8 3.65 3.1 3.65 6.5 0 3.3-3.6 5.4-4.65 2.7-14.45 2.7-8.35 0-12.65-1.35l-2.65-1.4-2.85-.15-1.5-.8q-2.1.8-4.2-1.35-2.1-2.1-2.1-4.85 0-2.45 1.9-4.45 1.75-1.85 3.3-1.85 1 0 1.85.8l2.8.05q.75.35 1.25.75l1.05-.35 2.05-.4q1.4 0 2.85 1.2 3.3.65 7.25-.5l3.3-1.3q-1.4-1.6-2.75-4.2-2.8-5.15-2.8-10.2 0-5.1 2.6-9.1 2.35-3.6 8.8-9.1l1.7 1.45q2 1.55 3.35 2 1.5.55 4.5 0 2.7-.45 4.55-1.35 1.65-.85 5.85-1.1"/><path fill="#c82e19" d="m39.55 66.4-2.05-2.25 2.25-.3 4.7-1.15q2.05-.7 4-2.65l1.6-1.8 2 1.45q2.55 1.4 5.15 1.4 4.1 0 6.35-1.25l-.4 1.5q-.8 2-2.75 4.4-1.95 2.45-5.35 4.85L52 72.55q-.75.55-2.3.8l-3.65-.3q-1.7-.5-1.55-1.75l.5-1.2q-2.85-1.2-5.45-3.7"/><path fill="#e73820" d="m42.65 109.2 3.7-.1 1.55-.65.45 1.4q.55 1.45 1.15 1.75l2.7-.15q0 4.95-3.95 8.45-3.65 3.2-8.15 3.2-4.25 0-7.45-3.2-3.6-3.6-3.6-9.55l.15-7.75 4.45-.6.85 1.55q1 1.7 1.65 2.4 1.9 2.05 6.5 3.25"/><path fill="#f9be00" d="m57.2 32.85 3.5-1.45q4.35-1.45 8.45-1.45 2.65 0 4.45.6l1.25.6.05 3.1-.2 4.95q-.65 5.6-3.3 10-3 4.95-6.85 4.95-3.5 0-5.85-4.45-2.3-4.3-2.3-9.9l.25-4.15q.25-2.45.55-2.8M33.6 26.8l-.9 8.55-2.75 2.45q-.45-2.85.6-6.5.65-2.3 1.9-3.6z"/><path fill="#fdde8e" d="M64.25 36.85q-.05 1.4-.85 2.3-.75.95-1.75.9-1.05-.05-1.7-1.1-.65-1-.6-2.35.1-1.4.85-2.35.8-.9 1.8-.85t1.65 1.05q.7 1 .6 2.4"/><path fill="#78ab5e" d="m9.15 164.1-.45-1.9.75.8 2.85 1.8q5.55 2.6 15.3 2.6 9.8 0 14.3-2.35 1.85-.95 2.45-1.95l-.3.65q-.7 1.3-2.1 2.4-4.55 3.5-14.35 3.5t-14.15-1.45l-2.4-1.45q-2.2.55-4.25-.75l-1.45-.05q-1.7-.25-2.7-1.25t-1.5-2.9l-.2-1.15q.2.65 1.05 1.45 1.35 1.25 2.75 1.2l-.3-2.05 1.15 1.3q1.6 1.35 3.55 1.55m32.65 11.15q1.3 1.6 5.8 1.6 4.55.05 5.85-1.6l-.5 1.45q-1.7 2.9-5.35 2.9-3.6 0-5.35-2.95zm13.15.45q1.25 1.45 5.25 1.4 4.4-.1 5.45-1.75l-.5 1.75q-1.45 3-4.75 3t-4.95-3zm20.65-2.65-.85 3.1q-1.45 3.2-4.5 3.2-2 0-3.65-1.2l-1.25-1.25.9-2.5q.9 2.3 4.75 1.75t4.6-3.1m-34.7-44.4-1.7 1.8q-1.35 1.45-5.15 7.8 0-2.65 2.65-7.3t4.2-4.65q5.45 0 7.9 8.95l-1.95-3.6q-2.25-3.6-3.65-3.65t-2.3.65M49 108.1q.8 1.65 3.35.5 1.95-.9 2.35-2.05l-.3 2.35q-.9 2.95-3.8 2.95-1.5 0-2.3-1.55l-.55-1.55q.65-.3 1.25-.65m6.35-.95q1 0 1.95-.75 1.1-.8 1.05-2l.15 1.75q-.05 2.15-1.1 2.95-1.65 1.2-3.05.85zm2.6-5.25q.65-.1 1.3-.9.8-.95.3-2.05l.75 1.35q.6 1.55 0 2.65-1 1.8-1.45 1.55z"/><path fill="#78ab5e" d="M57.8 95.85 55 101.4q-4.9 8.1-11.05 8.1-4.8 0-8-3.65l-2.3-3.65 6.9-1.55q-1.3.45-.5 2.95.9 2.6 4 2.6 3.35 0 8.7-4.95 4.25-3.95 5.55-6.8zm2.8-8.3-.65 5.6q-.45 4-.3 4.75l-1.95-1.5z"/><path fill="#78ab5e" d="M26.05 98.4q2.4 0 5.75-.8l7.75-1.55 7.35-.55-.8 1.55q-1.15 1.7-2.95 2.4l-7.05 2q-5.2 1.2-8 1.2-3.2 0-4.7-2.9l-.8-2.7q.5 1.3 3.45 1.35m-.5-13.35q-.25 1.05 1.75 2.75 2.3 1.95 4.9 2l-2.85 1.25q-2.1.4-3.35-1.1-1.15-1.4-.9-3.35zm5.35-4.55q-.1.4.65 1.6l1.15 1.7q.5.8-3.15-1.25zm8.1 7.95-1.15.35-.1-3.55q-.15-1.2-1.15-2.95l-1-1.55q1.8.7 2.75 3.35.75 2.15.65 4.35m-5.5-3.95q2.25 2.15 2.3 4.55l-1.25.5-.55-3.2zm-7.8-29.25q.85 1.9 3 3.7 3.75 3.1 8.75 3.1 4.05 0 7.5-1.7 3.1-1.6 4.95-4.15l1.15.9q1.45 1.05 3.25 1.7 5.65 2.05 12-.4l-2.15 1.4q-2.8 1.35-6.05 1.35t-5.9-1.4l-2.05-1.45q-.9 1.45-2.95 2.95-4.05 2.9-9.7 2.9-2.9 0-5.75-1.25-3.1-1.35-4.6-3.5-.7-1-1.4-4z"/><path fill="#0d131a" d="M55.45 33.6q3.85-3.35 10.8-4 6.85-.7 9.9 1.85.5.4.3.65l-.75-.15q-3.3-1.9-9.75-1.2-6.6.65-10.05 3.45-.65.55-.85.25-.25-.3.4-.85"/><path fill="#0d131a" d="m74.4 31.35.6-.05.55.25Q76 41.75 72.5 48.4q-3.25 6.15-7.8 6.15-4.9 0-7.35-6.45-2.4-6.35-.9-14.65 1.25-.85 1.2-.55-1.55 8.05.65 14.4 2.2 6.25 6.45 6.25 3.8 0 6.75-5.75 3.35-6.55 2.9-16.45"/><path fill="#0d131a" d="M70.85 30.4q.8 3.85-.95 11.75-1.7 7.8-3.05 7.2-1.3-.55-.9-7.95t1.9-11.3l1.4-.1z"/><path fill="#fff" d="M69.8 35.1q-.25 1.75-.7 2.9-.45 1.2-.8 1.15t-.45-1.3q-.05-1.25.2-3t.7-2.9q.4-1.2.75-1.15t.45 1.3z"/><path fill="#0d131a" d="M54 2.8q2.15 2.5 2.75 5.2l-.4.45-.5.1q-.4-2.35-2.4-4.65-2.1-2.5-4.15-2.5-1.3 0-3.6 1.85-2.65 2.25-5.05 5.95-6.5 10.25-7.5 26.25l-.2.35q-3.25 2.25-5.35 6.1-2.3 4.25-2.3 9.05 0 5.55 3.5 9.05 3.55 3.5 9.35 3.5 3.35 0 6.25-1.3 3.25-1.5 5.3-4.35.35-.4.75-.1l1.2.9q1.35.9 3 1.4 5.1 1.5 10.75-1.5 1.15-.6 1.3-.35l-.95.95q-3.95 2.45-7.95 2.5-4.35.05-7.6-2.8-4.6 5.85-12.05 5.85-5.75 0-9.5-3.05-4.6-3.65-4.6-10.7 0-4.85 2.6-9.4 2.25-3.95 5.55-6.4.8-16.65 7.7-27.1 2.55-3.9 5.5-6.15 2.45-1.9 4-1.9 2.25 0 4.6 2.8"/><path fill="#0d131a" d="M73.1 8.05q-3.2-4.35-6.3-4.7-4.65-.5-11.15 6.7-7.75 8.5-10.9 21.7-.35 1.45-.7 1.4-.4-.1-.05-1.55 3.05-13.9 11.15-22.75Q62 1.4 67.05 1.95q3.45.4 6.95 4.75t5.8 11.15q5.5 16.15 1 32.5-2.45 8.9-8.45 14.75-5.9 5.75-14.35 7.7-.2.1-.6-.35-.4-.4-.2-.45 17.25-4 22.25-22 4.05-14.8-1.05-30.85-2.15-6.75-5.3-11.1m-36.6 55.8.5-.1q.7.05.8.25 3.6 4.4 9.05 6.45l.65.45-.75.05q-2.65-.6-5.55-2.6-3.05-2.05-4.7-4.5m-3-37.75.3.45-.15.55q-.95.2-2.05 3.15-1.35 3.4-1.4 7.5-.05.4-1 .85-.45-4.55 1.2-8.6 1.5-3.6 3.1-3.9m-5.3 27.05q.25-.05.65.7l.5 1.4q.15.7-.3.95-.5.3-.8-.4-.3-.8-.3-1.7-.05-.9.25-.95m7.7 1.8-.25 1.2-.7 1.35-.85.05q-.45-.35-.2-.75l1.25-1.5q.6-.55.75-.35"/><path fill="#0d131a" d="m62.95 60.2 1.7-.55q-1.2 3.3-3.8 6.45-3.45 4.1-8.4 6.65.8 8.1.5 12.2l-.65 1.25-.6.8q.35-2.75.1-8.85l-.35-5.6q-.1-.35.25-.5 4.6-2.25 7.85-6.25 2.15-2.65 3.4-5.6M33.5 79.3q3.55-1.55 6.05 1.2 2.55 2.8 2.3 8.1 0 .25-.5.2-.5 0-.5-.25.2-4.3-1.85-6.9-2.05-2.55-4.6-1.65l-.6-.25q-.5-.4-.3-.45"/><path fill="#0d131a" d="M30.75 79.6q1.25-.75 2.7-.45 2.2.45 3.55 2.9 1.55 2.7 1.25 6.85-.05.2-.45.2-.45-.05-.45-.25.2-3.45-1.2-5.9-1.2-2.25-3.05-2.6-2.15-.45-3.15 2.1-.05.2-.6 0t-.5-.35q.55-1.75 1.9-2.5"/><path fill="#0d131a" d="M25.7 83.1q1.25-1.25 2.7-1.25 2.9 0 4.75 2 2.05 2.2 1.75 5.6 0 .25-.4.25l-.45-.25q0-2.7-1.65-4.65t-4-1.95q-1.05 0-1.95 1-1.05 1.2-1.05 3.1 0 1.85 1.35 2.9 1.4 1.1 3.65.65-1.65 1-2.05 1-1.9-.15-3-1.4-1.15-1.25-1.15-3.15 0-2.4 1.5-3.85"/><path fill="#0d131a" d="M24.5 93.1q4.95-3.4 12.4-4.55 6.8-1.1 11.1.2 1.65.45 2.35 1.4-.55 1.05-.7.8-.3-.8-1.95-1.25-4-1.2-10.9-.1-7.3 1.15-11.9 4.1-.8.5-.95.2-.2-.25.55-.8m13.9-12.95-.65-.05-.5-.4q2.4-4.6 7.35-9.75.9.2.75.4-3.9 4.15-6.95 9.8"/><path fill="#0d131a" d="m33.65 79.95-.55-.2q-.5-.2-.35-.35 4.4-3.95 10.1-7.45.2-.1.25.35l-.1.55q-5.45 3.75-9.35 7.1M21.9 94.05q.6-3.25 2.8-6.5.1-.15.25.4l.1.7q-1.8 2.8-2.2 5.6t.7 4.95q1.55 2.9 5.05 2.9l8.1-1.1q4.85-1.1 6.45-2.05 2.6-1.6 6.35-8.15 3.4-5.95 4.45-9.85.3-1.1.65-1 .3.15 0 1.25-1.1 3.95-4.3 9.9-3.8 6.95-6.65 8.7-1.7 1-6.7 2.15l-8.35 1.15q-4.4 0-6.1-3.25-1.3-2.4-.6-5.8"/><path fill="#0d131a" d="M56.85 72.25q-.65-.4-.45-.65t.85.15q3.8 2.6 3.8 11.2 0 9.55-5 18.05-5.25 8.95-11.95 8.95-3.75 0-6.9-2.35-2.85-2.15-4.05-5.35-.05-.2.4-.4t.5 0q1.1 2.75 3.7 4.7 2.9 2.15 6.35 2.15 5.9 0 10.85-8.1t4.95-17.65q0-8.7-3.05-10.7"/><path fill="#0d131a" d="M53.45 103.25q-.1-.15.35-.4.4-.3.5-.1 1.25 1.95 1.3 4 .05 2.1-1.2 3.65-.9 1.15-2.4 1.7l-2.55.1-1.2-1q-.7-1-.75-2.55l.5-.35.5-.05q0 2.35 1.35 2.8l1.8-.15q1-.4 1.75-1.35 1.05-1.3 1.1-3 0-1.65-1.05-3.3"/><path fill="#0d131a" d="M55.8 99.85q-.15-.15.2-.5t.5-.2q2.05 2.05 2.65 5 .6 2.85-.45 4.65-.75 1.2-2.1 1.55l-2.9-.1q-.2-.05-.1-.5.15-.5.35-.45 2.4.7 3.55-1.2.9-1.6.5-3.95-.45-2.55-2.2-4.3"/><path fill="#0d131a" d="M57.35 96.5q-.15-.1.15-.4.25-.3.4-.2 1.9 1.35 2.8 3.15.8 1.7.5 3.35-.45 2.2-2.55 2.6-.2.05-.35-.4-.15-.5.05-.55 1.35-.45 1.65-1.95.2-1.15-.35-2.55-.65-1.65-2.3-3.05m-5.55 15.1q0-.15.55-.4l.5-.05q-.8 6.05-4.6 9.5-3.35 3.05-7.8 3.05-7.05 0-10.25-6.5-3-6.05-1.4-14.7.05-.2.5-.15l.5.3q-1.1 8.8 1.85 14.3 3 5.6 8.85 5.6 3.95 0 6.9-2.55 3.4-2.9 4.4-8.4"/><path fill="#0d131a" d="M42.6 112.45q3.55-.35 5.9-1.85.2-.1.45.3.3.45.1.55-2.6 1.6-6.35 2.1l-7.25-.45q-4.95-1.4-6.8-5.2-.1-.2.25-.5t.45-.15q.9 1.8 2.9 3.1 1.6 1.05 3.5 1.55 3.25.95 6.85.55m-8.85 8.4.45.25q.35.4.15.5-6.05 5.05-8.55 9.05-2.55 4-2.55 8.6 0 3.5 1.65 7.6 1.65 4.05 4.6 7.95.45.55.15.7t-.8-.4q-6.95-7.65-6.95-15.85 0-5 2.6-9.1 2.7-4.3 9.25-9.3"/><path fill="#0d131a" d="M42.45 127.3q1.7.65 1.45.75-4 2.15-6.5 5.25t-2.5 5.95q0 3.2 1.9 8.25 2 5.3 3.95 6.65 4.5 3.1 4.5 7.3 0 3.25-3.25 5.5-4.55 3.1-14.7 3.1-10.6 0-14.95-2-4.3-1.95-4.3-6.85 0-3.55 2.1-5.7 1.85-1.95 4.4-1.95 3.45 0 5 3.2T19 162.6q-.5.65-.8.5-.35-.15.05-.85 1.4-2.45.05-5-1.3-2.5-3.75-2.5-1.9 0-3.4 1.55-1.75 1.85-1.75 4.9 0 4.15 3.25 5.75 3.9 1.95 14.65 1.95 9.55 0 13.7-2.65 2.9-1.9 2.9-4.8 0-3.6-3.75-6.55-2.25-1.7-4.3-7.2-1.9-5.2-1.9-8.45 0-2.5 1.5-5.05 2.1-3.7 7-6.9"/><path fill="#0d131a" d="m27.7 153.3.45.25.15.55q-1.3.9-4.35 1.5l-5.75.2-.5-.55q-.25-.5-.05-.5 2.7.3 5.65-.1 3.05-.4 4.4-1.35m-15.6 1.6-.3.45-.55.1q-1.25-1.75-3.7-.4-2.6 1.4-2.6 4.95 0 3.4 2.4 5.25 1.6 1.3 3.55 1.2l.8.4q.55.4.35.45-3.05.7-5.55-1.1-2.85-2.05-2.85-6.2 0-4.6 3.15-6.35 3.1-1.75 5.3 1.25"/><path fill="#0d131a" d="M0 159.8q0-4.2 3.2-6.15 3-1.8 4.75-.05l-.2.5q-.35.35-.5.2-1.15-1.15-3.4.5-2.5 1.75-2.5 5 0 2.3 1.6 4.1 1.6 1.75 3.6 1.75l.8.9q-2.75.55-5-1.45Q0 163.05 0 159.8m59.2-84.35q-.05-.2.2-.5t.3-.1q7.1 16.65 6.45 30.05-.65 13.25-8.65 18.9-.9.65-1.15.35-.2-.25.65-.95 7.25-5.7 7.8-18.4.6-12.65-5.6-29.35M40.5 126.6q.15-.3.7-.1 4.5 1.7 6.4 5.45 1.55 3.1 3.2 12.05.7 3.6.7 8.55-.05 4.35-.5 6.95-.15 1.1-1.65 3.55-1.65 2.7-3.4 4.4l-1.05.25-.75-.05q1.8-1.5 3.8-4.6 1.7-2.7 1.9-3.7.45-2.75.55-6.8.1-4.95-.55-8.4-1.65-8.9-3.15-11.95-1.75-3.55-5.75-5.1-.55-.2-.45-.5"/><path fill="#0d131a" d="M42.7 168.65q1.9-1.8 4.05-1.8.9 0 .9.35.05.35-.9.35-1.7 0-3.35 1.95-1.75 2.05-1.75 4.4 0 2.2 1.75 3.6 1.75 1.45 4.35 1.45 2.5 0 4.2-1.8 1.6-1.65 1.6-3.8 0-1.25-.45-2.3-.5-1.05-1.3-1.55-.7-.4-.5-.65l.9.1q1.1.65 1.8 1.75.75 1.25.75 2.65 0 2.55-2 4.6-2.1 2.2-5 2.2-3.05 0-5.15-1.85-2.15-1.8-2.15-4.4 0-3.2 2.25-5.25"/><path fill="#0d131a" d="m62.85 169.05-.8-.75 1.05.1q1.85.75 2.9 2.5.8 1.35.8 2.6 0 3-1.85 5.05-1.85 2-4.5 2-3.05 0-4.9-2-1.8-1.9-1.8-4.85 0-1.5 1-3 .95-1.35 2.05-1.9l.75-.05q.1.3-.5.6-.75.4-1.5 1.65-.8 1.4-.8 2.7 0 2.4 1.6 4 1.65 1.6 4.1 1.6 2.05 0 3.6-1.75 1.6-1.75 1.6-4.05 0-1.1-.55-2.25-.8-1.55-2.25-2.2"/><path fill="#0d131a" d="M68.15 167.65q2.5-2.1 5.4-.7 3 1.45 3 5.5 0 3.2-2 5.3-1.85 1.95-4.4 1.95-3.35 0-4.9-2.3-.15-.2.15-.85t.35-.4q.4 1.15 1.6 1.85t2.8.7q1.95 0 3.45-1.7 1.6-1.85 1.6-4.55 0-3.3-2.3-4.45-2.15-1.1-4.4.2l-.75.1q-.15-.2.4-.65"/><path fill="#0d131a" d="M57.8 123.15q0-.25.5-.65.45-.45.5-.25.35 15.15 3.75 27.95 3.3 12.45 7.8 16.8l-.5.45-.8.1q-4.55-4.4-7.65-16.6t-3.6-27.8"/></svg>