<svg xmlns="http://www.w3.org/2000/svg" width="108" height="169" viewBox="-0.3 -0.4 107.6 169.35"><path fill="#ffe792" d="m62.8 156.85 2.15-3.25 2.9-1.05q3.4-1.25 5.95-1.95 4.1-1.2 9.65-3.2l3.3-25.05 6.8-1.5q-4.15 24.4-3.7 25.45.3.65 2.4 0l3.55-1.15q1.4-.35 3.1 1.45l2.9 3.75q1.15 1.65-1.15 1.55l-3.6-.5-1.5.2-.4.25-5.75 4.2-6.7 5.25-4.35 4.2q-3.55 3-4.5 2.05-.9-.9-.05-3.8l1-2.75q-6.65 5.15-7.85 4.65-.7-.3-.45-2.1l.45-1.75q-2.6 1.7-4.4 1.75l-1.3-.3q-.45-2.65 1.55-6.4"/><path fill="#ffe792" d="m53.7 147.2 3.8-.45 2.75.1q3.55-.15 11.2-2.9 1.45-1.8 3.7-9.05l1.95-6.85 7-.8-6.35 16.8 4.1.2q1.4.2 1.85 1.25l-.25 1.9-7.15 2.55-6.05 1.7q-3.7 1-4.75 1.55-1.1.6-2.05 2.45l-.7 1.7q-1.35 1.7-4.7 2.4l-3.05.35q-.4-.4.1-2.05l.6-1.6q-2.5 1.45-4.35 1.9-1.75.4-2.3-.25-.45-.55.7-2.95l1.25-2.3q-.3-4.05 2.7-5.65"/><path fill="#dbc77f" d="m84.9 137.8.45-4.2 6.75-4.8-.8 5.15q-.85 2.4-2.95 3.45-1.85.95-3.45.4m-11.25-.15q2.1 0 7.05-2.1l-1.1 2.9q-1.6.7-3.95 0zm.2 29.7q2.5-2.15 3.7-3.95.7-1.15 3.1-3l5.15-3.9 4.4-3.15 4.1-3.3q.8-.8 4.1.05 2.9.7 4.05 1.5l-6.65-.3-13.15 9.7-2.5 2.95q-3.15 3-6.3 3.4m-7.15-2.05 6.8-5.9q.55-.6 4.1-2.3 3.45-1.6 5.65-4.05l-2.25 2.6q-2.8 2.95-5.1 3.7l-1.45 2.1-2.75 1.95q-3.1 1.95-5 1.9m-5.15-1.8q4.15-2.85 5.55-5.35 1.2-2.1 2.15-2.75.2-.2 2.3-1.1l-.9.55q-.95.75-1.25 1.45l-2.5 5.8-1.7.85q-2 .8-3.65.55m-7.1-3.65q1.6-.35 5.15-2.3l5.2-3.45-2.4 3.85q-1.15.9-2.75 1.55-3.15 1.35-5.2.35m-5.35-1.8q4.95-2.05 6.2-3.9 1.95-2.9 4.25-3.4l-1.2.95q-1.2 1.1-1.4 1.85-.25 1.2-1.55 3.25l-2.3 1.1z"/><path fill="#0d131a" d="M77.2 167.05q-2.9 1.9-3.85 1.2-1.1-.8-.25-4.75.9-4.15 3-5.05 1.85-.8 3.85-2.35l2.75-2.7q.75-1.05 1.05-.85t-.2 1.3q-.65 1.45-2.7 3.1-1.9 1.55-4.05 2.5-1.55.7-2.35 3.8-.8 2.95-.1 3.3.6.3 3.05-1.45t4.5-3.95q.85-.95 6.7-5.15 1.5-1.05 3.4-2.7l2.15-1.8q1.15-.9 4-.5l2.95-.1q.2-.45-1.55-2.7-1.85-2.3-3-2.55-.15-.05-3.6.95-3.2.9-3.55.35-.8-1.1 1.3-14.1L92.8 121l.75-.15q.7.1.65.3-4.25 23.4-3.95 24.8.5.2 3.05-.7 2.6-.9 3.5-.65 1.75.5 4.15 3.6 2.4 3 1.95 3.95-.15.45-1 .4l-3.85-.5q-1.85-.2-3.15.65l-5.7 4.2q-5.45 3.9-6.55 5.2-2.5 3.05-5.45 4.95"/><path fill="#0d131a" d="M79.9 150.95q.55-.45.8-.35t-.1.65l-2 1.6q-1.65.9-3.55 1.4-3.65.9-4.85 1.75-.8.55-2.1 4.35t-.85 4.15 3.35-1.35 4.2-3q.2-.15 0 .55l-.35.8q-2.95 2.95-5.45 4.25-2.2 1.15-2.85.5-1.15-1.15.55-5.85 1.6-4.4 2.9-5.3 1.1-.8 5.15-1.9 3.55-.9 5.15-2.25"/><path fill="#0d131a" d="M61.35 158.65q1.7-4.8 4.05-6.1l8.3-2.3q7.95-2.3 9.7-3.7.2-.1.15.4l-.15.65q-.5.85-8.6 3.35l-8.65 2.65q-1.85 1-3.4 4.85-1.45 3.6-.85 4.25.5.5 2.6-.4 2.1-.85 2.7-1.7 0 1.05-.2 1.25-.9 1.3-3.05 2.1l-3.05.15q-1.2-.8.45-5.45"/><path fill="#0d131a" d="M85.8 126.15q.05-.2.7-.15.7.05.65.25L83.7 148.8q-.1 1.05-.55 1-.4-.05-.35-1.2z"/><path fill="#0d131a" d="m79.95 144.6-2.75-.1q-.2-.4 2.8-8.3l3.35-8.9.65-.05.6.2-6.15 16.3 3.25-.1q1.4.2 2.15 1.45l-.1.75q-.2.6-.3.4-.85-1.7-3.5-1.65m-25.8 3.4q.55-.4 2.75-.9l5.6-1.2q7.2-1.45 8.25-2.3.9-.65 2.85-5.95l2.65-7.95q.05-.2.55-.15.5.1.5.3l-2.1 6.9q-2.4 7-3.75 7.9-1.1.75-8.8 2.35-6.95 1.4-7.75 2.05-2.3 1.85-4.05 5.1-1.6 3.05-.9 3.5.65.4 2.85-.4 2.35-.8 3.3-2.05l.05.4-.2.75Q54.7 158 51.8 158.8q-2.9.85-3.35-.3t1.3-4.7q1.9-3.8 4.4-5.8"/><path fill="#0d131a" d="M68.35 148.25q.7-.4.85-.2t-.5.8-2.55 1.35l-3.5 1q-3.45.75-4 1.1-.7.45-2.1 3.45-1.45 3.05-1.05 3.55.45.6 3.25-.4 2.9-1.05 4-2.35l-.05.6-.35.95q-1.2 1.4-4.05 2.4l-3.95.25q-.7-.5.7-4.4 1.45-4 2.9-5 .7-.45 4.5-1.25 4.05-.85 5.9-1.85m-15.6-1.2q1.7-1.05 9.1-.75l-.55.5-1.05.5q-5.1-.35-6.85.7-1.65 1-1.95 4.4l-.8 1.05-.75.6q.95-5.85 2.85-7"/><path fill="#fccf00" d="M65 12.35q.25 6.3-2.15 15-1.75 6.25-5.4 11.85-2.8 4.25-4 4.85-4.3.8-9.6 2.75-10.7 3.95-15.9 10-4.8 0-10.6-1.55Q5.8 52.1.9 44.25q.3-1.85 3.5-3.5 6.5-3.35 21.2-2.55-6.4-5.15-12.45-12.25Q1 11.65 2.6 1.7 4.35.45 8.35.75q8.05.55 19.5 8.3 6.1 4.15 11.2 12.65 4.1 6.9 3.85 8.7.55-2.15 1.75-4.85 2.45-5.7 5.8-9 4.4-4.3 7.15-6.15 3.35-2.25 6.65-2.6.6 1.4.75 4.55"/><path fill="#ef8200" d="M103.05 98.55q.9 11.25-4.25 20.75-6.1 11.25-16.65 15.9-10.3 4.55-21.45 1.4-9.15-2.55-16-14.55-2.15-3.8-3.8-8.05l-1.25-3.5q-5.35-.7-10.95-3.75-11.2-6.1-12.5-17.75-1.4-12.6 4.55-23.05 4.55-7.95 13-14.1-1.7-.3-3.8-1.35-4.2-2.15-6.05-6.05l1.6-.95 9.3.4q-1.65-2.6-2.9-6-2.45-6.8-.3-10.6l3.6 1.9q4.5 3.5 8.7 11.55.55-2.35 1.8-4.85 2.45-5 5.8-5.9l.2 3.8q-.45 5.05-3.65 11.2l3.35-.65 8.2-.7q13-.2 20.15 5.55 9.1 7.35 12.1 16.5 3.25 10.15-1.5 21.25l10.8 2.25.8 2.55q.85 3.3 1.1 6.8"/><path fill="#ffe792" d="M47.55 89.1q-.3-.2 0-.85.6-1.35 3.7-3.65 2.85-2.1 4.2-4.55 1.1-2.1 1.65-2.3 1.05-.4 3.4.45l2.15.95 3.5-.1q3.6 0 4.05.65.6.85-2.2 3-3 2.35-7.65 4.3-10.65 4.5-12.8 2.1"/><path fill="#ffe792" d="M51.65 89.75 54 89q1 1.6 3.4 3.05 2.95 1.8 4.95.9 1.9-.85 2.8-4.75l.5-3.75 1.9-1.2q.7 3.45-.85 7.95-1.6 4.5-3.55 4.8-4.3.6-8.3-2.75z"/><path fill="#ed8599" d="m54 89 6.8-2.3 4.5 1-.8 2.5q-1.1 2.6-2.65 2.9-1.9.4-4.45-.9-2.65-1.35-3.4-3.2"/><path fill="#922f00" d="m61.6 86.75 4.05-2.3q.3 1.25-.35 3.25z"/><path fill="#cf7100" d="M49.1 128.35q3.2 2.55 10.9 3.1 8.75.6 16.95-2.3 22.65-8.05 25.45-36.6 1.9 11.05-1.25 21.15-4.4 14.4-18.2 21.05-12.7 6.2-22.7 2.2-5.45-2.2-11.15-8.6"/><path fill="#dab300" d="M17.15 54.95q-11.4-3.3-16.3-10.7 19.9 11.4 31.2 8.8l-4.5 3.75q-4.7-.15-10.4-1.85M47.9 45.3q5.4-3.05 10.35-12.55 4.05-7.75 6.4-16.6-.6 7.45-4 16.25-3.65 9.45-7.4 11.75z"/><path fill="#0d131a" d="M52.05 29.3q1 .6 0 6.15-1.1 6-3.65 9.85l-.7.15q-.6 0-.5-.2 2.95-4.9 3.8-9.7.75-3.9 0-4.35-.75-.55-3 2.15-2.65 3.15-3.55 7.8-.4 2.2-1.3.15-2.85-6.6-6.85-10.45-3.25-3.1-4.35-2.4-1.45.9-.1 6.5 1.35 5.75 4.05 9.4.7.9.6 1.1-.2.25-1.55-.45-2.5-1.2-5.95-1.15-3.25.05-3.85 1.05-.45.7 2.8 3.45 3.45 3 6.15 3l-.4.35-.9.35q-2.55 0-6.5-3.45-3.95-3.4-3.2-4.65.6-.95 4.3-1.1l6.4.5q-2.65-4.65-3.6-10.15-.95-5.55.75-6.6 1.8-1.15 6.15 3.3 4.35 4.4 6.5 9.45 1.25-4.25 4.3-7.65 2.9-3.15 4.15-2.4"/><path fill="#0d131a" d="M64.65 7.25q1.1.35 1.2 4.9.05 4.65-1.1 10.45-3 15.4-10.6 21.35l-1.3.25-.9-.05q6.75-4.45 10.55-19.9 1.45-5.75 1.75-10.55.35-4.65-.55-5-2.55-1.05-10.5 7-8.2 8.35-9.7 14.6-.55 2.4-1.3.2-5.3-16.25-21.8-24.8-5.95-3.1-11.35-4.1-4.95-.85-5.7.5-1.9 3.65 4.55 14.7 7.35 12.55 19.3 21.8 1.3 1 1.05 1.3l-1.7-.25q-4.65-1.75-14.75.05Q1.75 41.55 1.75 44q0 2.8 9.05 7.45 9.75 5.05 17.25 4.6.25 0-.1.6l-.6.55q-8.85.95-18.85-4.8-3.95-2.3-6.4-4.75-2.4-2.45-2.05-3.8.8-3.25 8.7-5.5 8.05-2.3 14.7-.85-12.15-9-18.35-22-2.4-5-3.2-9.2-.7-3.8.15-5.15Q3.1-.4 8.25.15q5.6.6 11.8 3.45 16.9 7.8 22.75 24.6 2.05-7.8 10.3-15.15 7.85-7 11.55-5.8M31.2 78.7q2.55-.9 4.9.85 2.15 1.55 3 4.4 1 3.3.25 5.75-.75 2.55-3.1 3.4l-5.05-.25q-2.55-1.2-3.6-3.9-1.35-3.5-.15-6.55 1.1-2.8 3.75-3.7"/><path fill="#fff" d="M29.8 83.9q-.45-1.2.1-2.4.6-1.25 2-1.75.95-.35 2.05.25 1.15.6 1.7 1.8.5 1.2.05 2.45-.55 1.25-1.9 1.7-1.3.45-2.5-.25-1.1-.65-1.5-1.8"/><path fill="#0d131a" d="m59.8 78.8-2.2-.3q-.85.25-1.6 1.65l-1.5 2.6-4.05 3.35q-2.65 1.9-2.3 2.55.5.95 4.1.35 3.8-.65 8.7-2.75 4.15-1.8 6.6-3.75 2.15-1.7 1.75-2.5-.3-.6-2.85-.45l-4.05.05zm-2.6-1.2 2.5.2 3.05.9h4.55q3.1-.1 3.5.75.5 1.15-1.3 2.95-2.35 2.3-7.95 4.7-5.7 2.5-9.85 3.15t-4.95-.9q-.7-1.35 2.05-3.45l4.7-3.65 1.7-2.65q.85-1.5 2-2"/><path fill="#0d131a" d="M52.25 89.5q.95 2.25 4.7 4.3 3.9 2.1 6 1.25 2.15-.85 3.4-4.55 1.25-3.75.55-7-.05-.2.45-.3l.6.1q.8 3.5-.6 7.5-1.4 4.15-4.05 5.25-2.6 1.05-6.85-1.2-4.1-2.2-5.25-4.95l.45-.4q.5-.2.6 0"/><path fill="#0d131a" d="M54.5 88.9q.8 1.55 3.35 2.8t4.05.7q1.2-.4 2.35-3.05 1.2-2.8.7-4.5l.5-.35.55.05q.6 2.05-.7 5.35t-2.9 3.85q-1.9.65-4.95-.9-2.95-1.55-3.9-3.45-.1-.2.35-.45zm28.95-16.85q-.75 2.6-3.25 3.65l-5-.2q-2.55-1.3-3.7-4.4-1.25-3.3-.45-5.95.7-2.55 2.95-3.4l4.9.25q2.75 1.25 4 4.2 1.35 3.25.55 5.85"/><path fill="#fff" d="M72.9 67.6q-.7-1.45-.3-2.7.35-1.25 1.55-1.8l2.3-.1q1.1.4 1.65 1.6.55 1.1.25 2.3T77 68.7l-2.4.25q-1.25-.35-1.7-1.35"/><path fill="#0d131a" d="M100.2 89.95q-.1-.2.4-1.05.55-.85.65-.65 4.95 9.35 1.3 23.25-3.7 14.3-13.7 21.05-10.95 7.3-22.7 6.4Q53.3 137.9 46.6 127q-.15-.2.55-.75t.8-.35q7.1 10.15 18.7 11.2 10.9 1 21.45-6.05 9.1-6.1 12.8-19.75 3.6-13.2-.7-21.35"/><path fill="#cf7100" d="M69.55 106.65q.5.3-.4 1.35l-1.7 1.35-2.65.3q-1.65-.15-1.1-.95.35-.45 2.8-1.4 2.55-.95 3.05-.65"/><path fill="#0d131a" d="m61.1 86.5 2.45.2q1.55.4 1.85.8v.6q-.2.5-.35.3-.35-.45-2.1-.8l-2.55-.2q-.3.1.7-.9"/><path fill="#fccf00" d="M92.15 81.1q.3-2.05.65-2.2 5.45-2.35 6-1.9l.05 1.7q-.55 2.7-3.6 7.5l2.95-.9q3.1-.8 3.9-.45-.5 3.6-2.35 5.45l3.4 1.6q3.35 1.95 3.15 3.4t-2.6 2.65l-2.35.9 2.1 2q2.05 2.15 1.65 3.15t-3.1 1.5l-2.65.3q1.25 2.15 1.05 2.25l-1.2.3q-1.15.1-2-.5l1.85 1.55q1.85 1.7 1.7 2.3-.25 1-4.15 1.5-4.4.5-7.45-1.2l1.15 2.75q1 2.95.25 3.9-.5.65-2.7.75-2.55.1-5.15-.75-7.4-2.35-9.9-9.95l2.8 1.5q3.2 1.5 5.35 1.35.25-.65.15-1.75-.2-2.15-1.9-4.1 5.45 1.05 6.35-.5.55-.95-.8-2.35l-1.45-1.25 2.3-.5q2.25-.75 2.25-2.05 0-.6-1.75-1.45-1.65-.8-2.4-.8l3.85-4.7q3.95-5.8 4.6-11m-45.5 30.6q-.8.55-1.85 2.1-1.3 1.95-.7 2.9l2.6.1 1.85-.95q-.85 1.15-1.05 2.5-.15 1.2.15 1.25 1.05.25 2.85-1.5l1.6-1.85v.75q.05.8.5.85.65.1 2.05-1.5-.4 5.5-7.8 10.45l-5.25 2.85q-2.4 1-2.75.7-.55-.45.3-2.4l.95-1.85-3.1.9q-3.15.8-3.6 0-.4-.8 1.3-3.45l1.75-2.5-3.75.95q-3.85.75-4.1-.4-.2-1.15 2.85-3.75l3.1-2.35-3.85-.35q-3.85-.55-3.8-1.85t2.85-3.05l2.8-1.55q1.75 1.15 8.1 2.2z"/><path fill="#ef8200" d="M84 97.2q-.25 0-.05-.3l.4-.3q.85 0 2.35.75 1.75.9 1.75 1.8 0 .75-1 1.55-1.15.95-2.95 1.25.75.6 1.3 1.7.5 1.1.35 1.65-.25.85-1.8 1.1l-4.15-.15q1.15 1.7 1.5 3.45.3 1.65-.2 2.2l-3.6-.2q-3.35-.85-5-2.55-.15-.15-.2-.65-.05-.55.1-.4 1.15 1.15 4.3 2.15 3 1 3.35.5.25-.4-.2-1.95-.5-1.7-1.45-3l-.2-.55q.1-.15.75 0 5.3.95 5.7-.35.1-.5-.5-1.4-.7-1.05-1.9-1.75-1.3-.7.2-.65 1.9.1 3.2-.65 1.1-.65 1.1-1.3-.1-.6-1.2-1.25-1.1-.7-1.95-.7m-34.35 17.95q-1.1 1.35-1.5 2.6-.35.95-.15 1.25.3.4 1.65-.75 1.4-1.15 2.5-2.8t.65 0q-.25.75-.2 1.3l.2.5q.3.15 1.7-1.55l.1.9q-1.6 2.3-2.45 1.85l-.45-.85q-1.25 1.55-2.65 2.3-1.3.7-1.9.35-.35-.25-.2-1.3.15-1.15.7-2.1-1.2.65-2.5.85l-1.6-.2q-.8-1.05.7-3.55 1.45-2.4 2.6-2.4l.4.1q.15.15-.1.25-1.1.45-2 2.15-.85 1.7-.35 2.25.8.9 4.35-1.4.8-.5.9-.45z"/><path fill="#0d131a" d="m98.15 78.05-1.8.05q-1.45.4-2.7 1.2-.25.2-.5-.25-.2-.45.1-.65 1.5-1.1 3.65-1.75l2.55-.2q1.4 1.35-3.2 8.95 1.55-.6 3.8-.95 2.5-.35 2.75.25.35.8-.55 2.75-.95 1.85-2.25 3.15l-.55-.05q-.4-.15-.25-.35.8-.75 1.55-2.3.75-1.6.5-2.2l-2.15-.05q-2 .35-3.55 1.15l-1.1.35q-.15-.15.35-1.05L97 82q1.7-3.4 1.15-3.95"/><path fill="#0d131a" d="M94.6 89.6q-1.2-.2-1.2-.45t1.05-.3q3.25-.15 8.05 2.25 4.8 2.45 4.8 4.35 0 .9-1.35 1.95t-3.45 1.75q1.4.9 2.55 2.55t.95 2.55q-.2.85-1.85 1.45l-4.1.7q1.3 1.45 1.05 2-.2.55-1.95.55l1.55 1.45q.85.9.75 1.4-.25 1.3-3.7 1.9-3.75.6-7.35-.5.7 1.45 1.05 3.45.35 2.1-.2 2.55-.9.85-3.7.65-2.85-.2-5.95-1.45-7.95-3.15-9.15-9.35-.25-1.55 0-1.6t.9 1.5q2.5 6 9.5 8.55 2.5.9 4.75 1.05l2.35-.3q.4-.6-.05-2.55-.45-2.15-1.4-3.35-1.7-2.15.7-.8 2.6 1.45 6.55 1.15 3.75-.3 4-1.35.15-.45-1.25-1.6l-2.05-1.5q-1.2-.7-1.15-1l1.4.05 2.95.4q.1-.25-1.15-1.55l-.5-.65.8-.2q5.1 0 5.5-1.55.15-.5-.9-1.95-1.15-1.6-2.55-2.25-.9-.4-.95-.65 0-.25 1-.45 1.4-.2 2.95-1.15 1.65-1.05 1.65-2 0-1.15-3.9-3.2-3.95-2.1-7-2.5"/><path fill="#0d131a" d="M91 60.55q5.15 10.15 2.85 20.3-2.5 10.8-13.15 19.55-.8.7-1.05.4-.3-.3.45-1Q99.15 82 89.05 61.5q-4.7-9.55-14.8-14.2-11.5-5.25-25.5-1.65l-2.35.05q-.15-.55 2.1-1.1 14.2-3.65 25.75.85 11.3 4.4 16.75 15.1m-35.95 55.5q-.2 2.95-2.75 6.4-2.45 3.3-5.9 5.6-2.45 1.65-5.2 2.55-2.6.85-3.1.3-.3-.45-.05-1.6.2-1.05.8-2.25l-3.9.8q-2.1.2-2.4-.5-.25-.55.45-2.15.7-1.55 1.9-3.05-2.75.85-4.95.7-1.95-.15-2.2-.85-.3-.9 1.15-2.65 1.45-1.8 3.95-3.45-3.25-.15-5.3-.9-1.9-.7-1.9-1.6 0-.8 2.2-2.5t4.6-2.75q.2-.1.45.4.2.5 0 .6-2.5 1.05-3.95 2.55-1.15 1.2-.95 1.65.65 1.15 7.1 1.65l1.1.25-1 .65q-2 .95-3.95 3-1.75 1.9-1.45 2.25.4.55 2.25.4t4.45-1.05l1.3-.2-.75 1.1q-3.4 3.5-2.85 4.95.35.4 2.65 0 2.2-.4 3.4-1 1.25-.6 1.45-.4.2.25-.85 1.3-.6.65-1.05 1.55-.55 1-.3 1.3l2.2-.25q2-.7 3.8-1.9 3.75-2.55 6-5.4 2.3-2.9 2.6-5.55.2-1.65.65-1.65.4 0 .3 1.7"/><path fill="#0d131a" d="M37.1 49.25q1.9-1 2.15-.5t-1.7 1.45Q24.4 56.85 19 70.85q-5.4 13.9.7 25.55 3.75 7.15 12 10.8 8.2 3.7 19.3 3.15 1.5-.05 1.5.4 0 .4-1.55.55-12.15 1.1-20.8-2.55-8.4-3.6-12.35-11.2-6.4-12.25-1.35-26.05Q21.75 57 37.1 49.25"/></svg>