<svg xmlns="http://www.w3.org/2000/svg" width="239" height="259" viewBox="0 -0.4 238.7 258.95"><path fill="#ef821e" d="M184.4 147.2q-3.1 8.5-7.35 14.95L154.6 145l7.8-1.2 12.25-2.35q11.4-2.85 11.9-2.2.55.65-2.15 7.95"/><path fill="#ce7117" d="M184.35 147.35q-3.2 8.95-6.7 13.5L167.2 150.6l7.05-2.6q8-3.65 12.6-8.75z"/><path fill="#0d131a" d="m166.25 142.6 10.25-2.2 8.75-1.9 1.95.05q.4.4.2 1.45l-1.4 4.8q-2.2 6.65-5.6 12.65-3.7 6.65-8 10.85-.2.15-.55-.2-.35-.4-.2-.55 3.75-3.65 6.75-9 3.15-5.5 6.25-14.1l1-3q.25-1.05-.05-1.4-.5-.55-8.7 1.5l-10.4 2.15-11.8 1.8q-.2.05-.25-.5-.05-.5.15-.5z"/><path fill="#0d131a" d="M185.5 139.8q-.05-.2.3-.3l.45.05q.75 1.5-4.8 8.45-5.75 7.2-10.35 9.75-.2.1-.55-.4t-.15-.6q5.35-3.4 10.95-10.3 5.15-6.35 4.15-6.65"/><path fill="#b6ae9c" d="M79 192.6q1.1 2.35 4.65 4.7 3.45 2.3 8 3.85-5.9 3.75-8.2 7.8-.7 1.2-2.05 5.8-.6 2.05.8 5.05.7 1.5 1.5 2.6l1 1.4 1.95 2.5 1.15 1.8.1 1.55q-.1 1.2 1.05 5 .45 1.45-.35 2.4l-.85.6q.2-.5 0-1.55-.25-1.2-.8-1.9-1.3-1.6-3.2-2.25-.7-.25-1.65.5-.85.7-1.55 1.9-.85 1.55-1 4.85-2.1-.45-2.3-2.45-.1-1.3.45-2.5l.35-1.85.05-1.25q-3.55-.75-6.2-.05t-5.8 3.2l-2.95 2.9-2.95 3.1q-1.15 1.15-2.8.85l-1.4-.55q1.25-.95 1.75-2.5.6-1.65-.2-2.95-1.9-3.15-3.25-3.15l-1.5 1.1-1.1 1.1q-.2-.4.05-1.75l.3-1.3q-3.1.05-5 .95l-2.9 1.95q-1.2.9-2.1.45l-.65-.65q.75-.65.8-2.45l-.25-3.05q-.2-1.05-.95-1.75l-.7-.5q.3-1.35 1.5-2.25.95-.75 2.15-1l4.8-.5 3.85-.3q2.7-.75 6.1-2.4 6.8-3.4 10.4-8.15 3.65-4.8 7.15-12.3z"/><path fill="#b6ae9c" d="m82.95 210.05 1.65 1.7q1.6 1.9 1.65 3 .05 1.85-2.5 7.8-1.2-1.25-1.9-3.4-1.45-4.4 1.1-9.1M216.8 229.4q.75.2 1.95 1.3l1.65 1.7 3.65 2.6 1.15 1.8q-1.45-.95-2.2-1-1.55-.15-2.5 2-.95 2.05.2 3.95.6.95 1.35 1.45-.5 1.1-2.25 2.15l-1.25-2.35q-1.5-2.4-2.8-2.8-1.45-.4-3.4 1.45-1.85 1.75-2.05 3.1-.15 1 1 2.35l1.2 1.15q-2.35.75-8.6-.95l-8.45-2.75-5.4-1-2.7-.1q.05 1.7-1.95 4.2l-1.95 2.15q.2-1-.15-3.5-.4-2.65-1-3.15-1.5-1.35-3.85-.45-2.1.75-3.3 2.35-.85 1.2-.5 3.25l.5 1.8q-1.8-.15-2.9-1.1-.9-.85-.85-1.55l-.35-5.75q-3.1-1.1-4.9-2.95-1.65-1.75-1.95-3.85-.2-1.7 1.25-3.3l2.6-2.25 1.85-2.2.75-1.25q-.15-3.5-1.75-9.45-.5-1.9-2.6-5.6l-2.05-3.35 14.95-6.5.45 3.55q.6 4.25 1.35 7.6 1.2 5.35 4.2 12 .8.6 6.45 2.2 6.2 1.8 10.25 2.3l9.25.55z"/><path fill="#fff" d="M42.1 229.2q.3 2.05-.05 3.95-.2 1-4.45 3.1l-4.25 1.9q1.15-7.1 4.1-10.25l1.95-1.45.8-.25q1.55.2 1.9 3m11.95 2.95q.9-.6 2.4 1.25 1.6 1.9 1.4 4.1-.15 1.95-4 5.25l-3.8 2.9q-2.05-5.45.8-10zm29.45-.3q1.7.05 3.1 1.9 1.3 1.75 1.2 3.2-.2 2.2-1.15 4.7-1.25 3.35-3 3.4-3.65.15-4.05-6.7-.15-2.8 1.55-4.85 1.35-1.65 2.35-1.65"/><path fill="#958e80" d="M207.15 241.95q1.55-.3 2.5 1l.6 1.35q-.2 1.45 1.1 2.9l1.4 1.1q-1.95.8-9-1.1-4.7-1.25-8.45-2.7-1.45-.55-4.85-.95l-3.05-.3q.15-.95-2.95-4.2L181.3 236q5.15 4.55 14.25 5.85 6.55.95 11.6.1"/><path fill="#958e80" d="m161.9 206.4-1.35-.8 18.2-4.3 4.5 17.7 3.2 7.5q-.8.1-1.35 2.6-.6 2.65.05 4.55-.7-.1-1.5 1.2-.9 1.35-.75 2.75-2.55-1.95-7-.5-4.5 1.45-5 4.75-6.95-3.7-7-6.7-.05-1.6 3.3-5.2l2.65-2.9.8-1.1q-.9-10.6-5.6-16.55-1.45-1.85-3.15-3m41.9 28.95-2.9-.55q-3.65-1.05-7.3-3.55 7.35 3.1 18.3 3.1 3.75-.7 5.45 2.15l4.55 7.05q-1.2 1.9-2.25 1.9l-1.3-2.9.15-1.25q-.15-1.5-1.45-2.9-1.65-1.7-3.55-2.2zm-17.45 5.25q3.5 5-5.05 10.2l-7.3-.8q-3.8-1.35-2.9-5.55.35 2.05 3.25 2.5 2.6.4 6-.55 3.35-.95 5.15-2.5 1.9-1.7.85-3.3m-104.5-21.4q1 .4 2.25-1.7 1.2-2 1.6-4.35 1.85 2.15-2.05 9.3-1.8-1.9-1.8-3.25m6.45 13.3.7 2.05q.45.75.05 1.75-.4 1.05-1.15 1.1l-.05-1.2q-.35-1.55-1.9-3.2l.55-.3q.55-.5.25-1.35-.45-1.45-.3-3.05.1-1.15-1.3-3.2l-1.85-2.7 4.2 4.8.3.75.2 3.2zm-31.85 7.8 1.55-5.15q.45 2.45 3.5.05l6.2-5.35q2.15-1.6 5.45-2.2 3.05-.6 4.7 0l.25 3.7-5.2-.25-3.8 1.1q-1.15.3-5.3 4.45L59 241.2q-.85.45-1.8-.2zm-3.35-10.7q-.55.1-.8.95l-.1.8-2.8.1q-1.8.4-3.95 1.85l-1.8 1.4q-1.9.45-2.2-.75 1.2-2 .95-4.2l.75.45q1.1.25 2.95-.85.75-.45 7.3-1.1 6.25-.7 10.6-3.25l-3.1 1.9q-4 2.15-7.8 2.7m38.25-28q-7.3 4.5-9.45 10.85-1.05 3.2-.65 5.45-1.75-2.8.65-11 2.3-7.9.6-9.85z"/><path fill="#fff" d="m161.85 238-1.05 1.25-2-2.8q-.5-.8.25-2.45l1.7-2.9q.75-1.25 2.4-1.65l2.55-.3q1.3-.2 3.3-1.4l-4.2 4.95q-.85 1.2-.8 2.6.05.75.25 1.2-1.1.2-2.4 1.5m13 7.65q1.1-1.95 3.15-2.8 1.7-.7 3.3-.35 1.25.25 1.7 2.15l.45 5.15q.1 2.75-1.25 5.75l-1.35 2.4q-1.5-.5-3.15-3.1l-2.2-4.15q-.75-1.5-.9-2.95-.15-1.35.25-2.1m35.4-1.1q.45-1.45 2.95-3.65 1.3-1.2 2.9-.35 1.7.9 3.2 4 1.35 2.7 1.05 6l-.55 2.75q-6.65-3.95-8.75-6.75zm9.75-4.1q-.05-1.8.6-3.05.65-1.2 1.7-1.45 3.1-.75 7.9 8.35 1.45 2.75.55 2.85-.35.05-4.4-1.3-2.2-.7-4.3-2.6-2-1.75-2.05-2.8"/><path fill="#dbdcdc" d="m161.85 238.1-1.1 1.35-1.95-3.2q-.5-.55.65-3.2.85-1.9 2.2-3 1.3-1.1 2.35-.85 1.35.35 4.9-.9-4.25 3.35-4.9 6.15-.3 1.4.2 2.15-1.05.15-2.35 1.5m14.2 13.65q2.85 3.9 4.35 3.6.85-.15 1.7-1.45.75-1.05 1.05-2.45l-.35 2.15q-.75 3.35-1.95 4.35-.6.45-2.25-1.85-1.55-2.1-2.55-4.35m34.6-8.1q3.7 2.1 5.55 4.15 1.45 1.6 3.35 5.2-6.15-4.15-7.85-5.65-1.9-1.75-1.05-3.7m9.55-4.8q1.35.3 4.4 3l6 5.2q-6.2-2.05-7.65-2.9-3.25-1.95-2.75-5.3M41.8 233.7q-.85.85-4 2.6t-3.8 1.8l3.5-4.65q3.7-4.55 4.7-3.85l.1 1.75q.05 1.8-.5 2.35m8.7 11.95q.4-2.2 1.45-4.6 2.1-4.85 5.3-6l.4.8q.35.95.05 1.8-.4 1.2-3.05 4.3-2.9 3.35-4.15 3.7m35.25-12.4q1.9 1.3 2.1 3.4.05 3.65-1.8 6l-1.9 1.65q1.9-3.25 1.95-7.45z"/><path fill="#ef821e" d="M171.15 153.55q8 7.15 12.15 15.1 4.75 9 2.9 18.65-1.7 8.65-7.8 14.55-4.65 4.45-10.15 5.45-6.6 1.15-17.35-1.8-7.55-2.1-13.15-9.25l-4.1-6.7q-2.6-.7-6-2.65l-2.85-1.8q-5.6 14.8-20.6 16.85-5.85.85-11.8-.65-5.45-1.3-8.8-3.95Q78.05 193 75.5 186q-3.2-8.7.65-16.9 3.55-7.6 11.65-13.05l7.4-3.9 5.25-.3q.4 7.3 1.4 10.9.5 1.8.9 2.15l6.15-12.45 9.6 4.55-8.3-19.15 6.7.2q-3.65-6-6.6-12.35l-2.2-5.15q3.25.6 10.7 4.95 2.85-3.45 6.85-7l3.45-2.8-.5 19 6.95-3.35q-1.6 10.5-1.95 16.3-.2 2.9-.05 3.7l7.75-5.45q.95 3.1 4.5 8.75l3.3 5 4.65-11.3 10.2-.3z"/><path fill="#ce7117" d="M183.55 195.6q-2.6 4.55-6.6 7.7-3.5 2.75-6.45 3.3-17.05 3.3-28.8-6.5-3.65-3.05-6.4-7.05l-1.95-3.4q-1.65-.25-5.25-2.35l-3.25-2.1q-2.8 10.05-14.25 14.85-10.75 4.5-19.45 1.1-13.5-5.3-16.6-15.8 3.6 6.8 11.1 8.7 6.95 1.8 13.8-1.2 7.1-3.05 9.8-9.5 3.05-7.25-.95-16.15 8.25 9.95 16.1 10.25 6.8.3 8.9-5.85-1.2 4.55 1.55 9.4 2.6 4.55 7.9 8.15 5.35 3.6 11.6 5 6.75 1.55 12.7.05 10.1-2.55 14.7-9.5 4.65-7.05 1.9-16.25 6.8 15-.1 27.15"/><path fill="#fff" d="m34.95 60.5.6.75q.7 1.9 1.05 7.6.6 9.1 0 19.35l-1.05 1.1q-1.4 1.1-3.05 1.3-2 .25-3.05 0-1.1-.25-1.65-1.15-.35-2.05-.55-4.75-.45-5.45.15-8.9 1-5.15 2.1-7.75 1.75-4.1 5.45-7.55"/><path fill="#dbdcdc" d="M35 61.1q1.3.9 1.8 11.4l.2 10.35q-1.95.95-3.95 1.85 1.15-.8 1.8-8.25.6-7.5.15-15.35"/><path fill="#0d131a" d="M34.95 61.45q-3.75 3-5.7 8.75-1.7 5.1-1.7 11.4 0 4.05.65 7.35.25 1.35 2.75 1.2 1.85-.05 3.5-.85 1.6-.8 1.65-1.65l.25-7.75q0-6.05-.4-11.6-.45-5.6-1-6.85m-7.6 11.65q1.9-9.05 7.2-13.15l.8-.05q1.4.75 1.9 11.75.4 9.75-.1 16.1-.1 1.4-2.2 2.4-1.85.9-3.9 1.05-3.5.15-3.9-2.1-1.45-8.1.2-16"/><path fill="#fff095" d="m199.35 92.8 10.8 5.1q5.45 2.75 8.85 5.05l3.75-1.9q3.95-1.8 4.65-1.45-.5 3.7-2.55 7.25l5.65-.95q5.85-.7 6.7.45.25.6-.95 2.1-2.35 2.95-9.5 7.3L214 131.3l-4.15-1-1.05 2.4q-1.1 2.8-1.1 4.6l-12.35-4.2q-2.75 3.6-4 4.55-2.2-4-2.1-5.55-6.2 5.95-8.25 8.85-.05-1.25.3-3.7.75-4.8 2.95-10.45-3.9-1.1-8.2-1l.95-1.3q1.2-1.55 2.65-2.7-2.55-2.05-10-6.1-7-3.8-7.85-3.9-4.9-.6-13.3.3l-12.45 1.65 4.3 8.1q4.75 8.35 6.7 9.85l4.85-1.85q5.05-1.7 6.35-.9-.35 3.65-1.5 4.85l4.5-.3q4.75-.1 6 .95-2.35 1.9-5.15 3.45 10.3 7.45 10.45 9.05l-4.4.85-14.4.55q-3.65 10.45-4.7 11.3l-3.3-4.9q-3.5-5.5-4.5-8.7-6.8 5.55-7.85 5.35.25-9.9 2.25-20.3l-7.15 3.75q.8-16.8.55-19-1.2.7-3.1 2.25-3.75 3.15-7.3 7.6-8.5-4.95-10.9-5.45l.85 2.2q1.35 3.15 3.95 7.8l4.45 8-6.8-.3 8.4 19.15-9.75-4.6-6.2 12.55q-.65-.5-1.5-5.65-.8-4.95-.75-7.45l-5.95.15-7.7.7q3.25-5.6 6.45-8.55-2.65-.7-3.15-1.5-.1-.15 1.1-1.1l2.5-1.55q-4.85-4.75-5.05-6.4-.15-1.05 5.7-1.3l6.7.2q.4-10.15-.05-15.2-.85-11.05-2.65-17.35-.85-3.05-3-7.75l-3.05-6.25-2.65-6.5q-1.65-4.6-2.1-6.85-.75-3.75-.85-6.3-.2-4.35 1.1-7.5 1.45-3.65 4-6.3 2.5-2.65 5.7-3.9-2.45-.7-5-1.95-5-2.4-5.15-4.8-.05-.9 3.3-.5 4 .5 7.8 3.35-1.1-2.05-2.05-4.65-1.85-5.15-.85-7.7l2.85 2.25q3.15 3.55 4.75 10.1.4-1.85 1.15-3.9 1.5-4.05 3.15-4.75l.6 1.9q.25 2.8-1.55 7.6l4.6.2q5.5.8 10.3 3.75 4.95 3 7.9 8.7 1.95 3.65 2.35 6.45l.45 3.55q.1 2.95-.5 6.55-.95 5.3-.95 12.05-.05 7.65 1.25 13l6.55-3.1q7.95-3.6 15.15-6.3l14.25-5.4q6-2 8.3-1.3l10.05 3.6q7.95 3 13.2 5.4"/><path fill="#fff095" d="m37.4 82.55 7.05-2.3-.2 4.15q-.4 4.75-1.6 7.85l1.75 1.05q2.7 1.4 7.25 3.05 14.55 5.25 22 6.75 14.45 2.8 20.3 2.35l5.55-.15.75 4.95q.8 5.5.85 8.1-16.8 5.6-24.75 7.45l-19.3 4.1q-2.85-.65-7.75-2.55-9.8-3.8-20-10.1-7.85-4.95-9.2-7l-4.85 1.85q-5 1.95-5.45 2.25-.25-.6-.1-2.05.3-2.95 2.45-7.4-10.85-1-11.3-2.45.35-.8 1.7-1.85 2.75-2.05 7.7-3.35-1.35-1.95-2.7-4.9-2.7-5.9-2.6-10.7l3.2.95q4 1.65 8.15 5.1l1.55.75 3.2.45q2.1-.35 7.7-2.35 6.3-2.3 8.65-4"/><path fill="#fff095" d="m16.8 111.25 3.3-.9q0 .25 1.9 1.9l1.9 1.55-1.85 1.7q-2.05 1.7-3.1 1.4t-1.7-3z"/><path fill="#dccf81" d="M35.2 114.65q14.45 7 22.05 7.45 5.15.3 24.9-3.15l18.7-3.45.35 3.1q-9.25 2.8-19.5 5.6-20.5 5.65-25.35 5.75-4.8.1-19.25-8.1l-13.45-8.25-1.65 1.75q-1.9 1.7-3.05 1.6t-1.85-2.8l-.45-2.65-6.7 2.45q.75-.65 4.7-3.15 3.25-2.05 3.6-2.95.4-1 1.4-1.15.8-.1 1.4.3 4.95 3.2 14.15 7.65m144.45 7.3q-13.6-8.85-18.15-10.25l-14.5.6-11.05 1.7-3.9-.1q-.9-.9.9-1.8 3.75-1.95 15.95-4.35 12.1-2.3 14.7-1.7 2.1.45 6.6 3.95l12 9.8z"/><path fill="#dccf81" d="M172.75 147.05q-6.45-1.6-15-4.75-7.35-2.7-8.5-3.5-5.45-3.85-15.35-24.6l2.15-.65q1.6 4.8 6.6 11.85 2.5 3.55 4.7 6.1 1.45-1.05 6.4-2.1l4.65-.85q.4 1.3-1.85 5.35l5.3-.25 5.8.55q-.25.5-2.6 2.1L162 138zM88.9 134.1l2.65 2.1q2.9 2.2 4.05 2.65l-1.95 1.2q-3.95-4.25-4.75-5.95m-2.5 18.6 3.65-1q4.75-1 10.35-1.05l.25 1.1z"/><path fill="#fff" d="M207.75 139.25q.4 6.3-1 10.35l-1.25 1.75-13.8-24.6-1.35-2.7q-1.35-3.2-1.1-5.65.35-2.7 2.7-4.55 1.4-1.1 3.75.2 3.5 2 7.45 9.3 4.05 7.45 4.6 15.9m-3.4-21.25q.05-1.65.45-3.45.85-3.6 2.65-4.25 2-.65 5.9 2.8 3.45 3.1 5.85 6.95 3.7 5.9 5.7 12.55.7 2.5 1 5.75.4 4-.2 6.2-6.8-6.6-9.75-11.25-1.9-3-4.75-6.3l-3.3-3.6q-3.5-3.15-3.55-5.4"/><path fill="#fff" d="M212.95 112.65q.05-1.3.45-2.7.75-2.85 2.3-3.45 1.9-.75 4.35 1.1 2.5 2 5.95 7.15 3.2 4.75 3.85 11.5.55 5.4-.5 9.8-1.15 4.75-3.3 8 .15-3.1-.4-7.3-1.15-8.4-4.8-13.95-3.45-5.2-6-8.2z"/><path fill="#dbdcdc" d="M205.5 140.95q1.25-5.9-.4-13.7 2.7 9.8 2.7 16.4.05 6.15-2.25 8.1l-4.85-10.2q3.45 5.7 4.8-.6m16.05-17.4q3.05 6.9 3.75 14.55.4 3.85.15 6.3l-6.3-7.1q4 3.65 4.15-2.1.15-4.45-1.75-11.65"/><path fill="#dbdcdc" d="M224.25 130.05q.95 2.05 1.9 1.75.95-.35 1.55-2.7 1.4-5.65-.45-12.65 2.75 6.5 3.05 11.4.55 8-4.15 15.95l-.35-5.6q-.5-5.75-1.55-8.15"/><path fill="#dccf81" d="m189.7 123.4 5.55 9.4-2.25 3.4zm14.55-4.05 10.6 11.9-5-.95-1.5 3.5z"/><path fill="#ef821e" d="m112.6 83.4 1.45.7q.1 2.95.6 5.1.25 1.3 1.35 2.6 1.2 1.5 2.55 1.55 1.25.05 2.3-1.25.8-1 1.2-2.35l.4-2.35.1-1.3h1q.05 1.55-.8 5.45-.35 1.3-1.1 2.45-1.2 1.9-2.65 1.95-1.65 0-3.2-1.55-1.4-1.5-2.2-3.8-.6-1.85-.85-4.7z"/><path fill="#ed8599" d="M120.45 92.55q-1.2 1.15-2.4.85-2.05-.45-3.2-3.5l-.75-3q2.75.1 4.5 1.05 1.6.85 3.1 2.8-.25.9-1.25 1.8"/><path fill="#922f00" d="M114.2 87q-.2-.55-.25-1.85L114 84q3.15 1.85 8.5 2.1.1 2.05-.75 4.7-2.05-3.65-7.55-3.8"/><path fill="#ce7117" d="M114 84.1q-.15 1.65.3 3.2-.45-.55-.85-.5-.4 0-.65.5-.1.2-.25-1.6-.15-1.85 0-2.4z"/><path fill="#ce7486" d="M120.85 92.15q-.35-1.15-2-2.45-1.85-1.35-4.5-2.3l-.05-.1-.1-.35q4.55.15 7.65 3.65z"/><path fill="#ce7117" d="M120.85 92.2v-.05q1.05-1.2 1.4-2.9l.4-3.2.95.1q-.3 4.05-1.3 6.8-.35-1.6-1.45-.75"/><path fill="#ef821e" d="M100.8 63.65q5.25 5.05 6.55 7.75.6 7-.4 10.65-.7 2.6-1.75 2.6-1.6 0-3.3-1.5-2.8-2.45-3.45-7.95-.65-5.35.8-9z"/><path fill="#ce7117" d="m98.75 67.15.7-1.5q.8-1.6 1.3-1.85.35-.2 2.65 2.3 2.6 2.8 4.05 5.7-2.2-1.75-4.55-3-2.45-1.3-4.15-1.65"/><path fill="#ef821e" d="m114.5 8.4 3 6.45q2.7 8.05 1.5 16.35-.75 5.05-4.1 10.15-2.85 4.3-4.15 4.6l-4.45-.15 1.25-3.6q1.05-4.05-.1-6.1-.8.45-1.7 1.75-1.85 2.65-2.5 7.2-.75-2.75-2.1-5.75-2.65-5.9-5.55-6.85l-.35 2.45q.1 3.55 2.6 9.2-1.9-1.05-4.2-1.9-4.55-1.6-6.4-.3l1.5 2.25q2.65 2.6 8.6 4.5l-1.15.8-12.5.55q-5.15-.45-11.65-2.3-8.9-2.5-15.7-9.1-4.55-4.4-5.9-7.7l5.3-1.65q6.85-1.55 14.55-1 2.9.2 8.1 1.55 4.35 1.1 4.95 1.55l-3.2-3.8q-3.65-4.75-5.4-8.9-4.1-9.8-3.4-17.9l5.95 1.9q7.5 3.1 15.25 9.4 3.75 3.05 7.8 9.25 3.7 5.65 3.6 7.25.5-3.65 2.05-8 3.15-8.75 8.5-12.15"/><path fill="#ce7117" d="M82.05 49.9q-7.85-.75-14.5-3.95-8.3-4-13.3-9.45l-3.35-4.65Q62.7 40 74.3 44.4q12.4 4.75 22.85 4.5-7.65 1.65-15.1 1"/><path fill="#fff" d="M25.05 56.75q.5 3.8.1 10.75-.55 9.9-1.05 14.3-.7 6-1.8 6.65-1.3.8-3.45.35-2.4-.45-4.1-2.2-1.15-4.7-.85-9 .55-8.15 2.7-12.55 4.2-8.85 7.85-10.65z"/><path fill="#dbdcdc" d="M24.15 54.45q1.35.25 1.1 9.7l-.9 14.7q-.55 7.05-1.65 9.85l-2.6.35q-1.45-.15-1.75-.5 2.25-1.6 4.25-12.95 2.05-11.55 1.55-21.15"/><path fill="#0d131a" d="M24.15 55.4q-1.1.4-3 2.8-2.4 3-4.1 7.2-2.65 6.4-2.65 13.55 0 3.45.65 7 .15.6 1.7 1.5 1.7 1 3.35 1.05l1.9-.05.6-1.45q.85-2.7 1.45-10.55.55-7.4.55-13.95 0-5.45-.45-7.1m-3.75 1.45q2.7-3.25 4.25-3.1 1.65.2 1 14.6-.6 14-2.05 18.95-.65 2.35-3.55 2.25-1.9-.1-3.85-1.2t-2.15-2.2q-.7-3.55-.7-7.2 0-7.35 2.75-13.95 1.3-4.55 4.3-8.15"/><path fill="#fff" d="m12.25 63.05 2.45-2.7.8-.65.6 2.55.95 5.6.6 8.2.1 7.3-.25 5.1-9.75-6.15q-.15-3 .35-6.4.5-3.35 1.45-6.65 1.25-4.35 2.7-6.2"/><path fill="#dbdcdc" d="M15.15 59.75q1.9 4.45 2.45 13 .5 7.45-.1 15.55l-4.1-2.7q1.55-.1 2.3-7.55.8-8.35-.55-18.3"/><path fill="#0d131a" d="m15.45 59 .45-.1.25.45q1.2 5.6 1.8 13.95.7 9.25.05 15.25l-.55.1q-.5-.15-.5-.35.75-10.35-.3-19.7-.85-7.5-1.55-7.8-.25-.1-1.25.95-1.25 1.35-2.3 3.55-3.3 6.65-3.3 17.45l-.45-.05q-.5-.25-.5-.5-.5-8.45 2.35-15.5 2.5-6.2 5.8-7.7"/><path fill="#fff" d="M103.85 66.8q.4 1.4-.2 2.9t-1.7 1.5q-1.75 0-2-2.85-.3-2.8 1.2-4.45z"/><path fill="#0d131a" d="M85.75 32.5q2.65 1.75 2.35 2.15-.3.45-2.95-1.3-7.6-5-21.25-4.45l-8.85 1q-3.6.75-3.7 1.25-.15.85 2.65 4 3.5 3.9 8.4 7.05 14.7 9.4 33.4 6.9l-.4.55-.85.6Q74.1 52.7 59.7 42.35q-4.75-3.4-7.95-7.55-2.6-3.4-2.3-4.1.2-.5 3.85-1.5 4.25-1.15 9.1-1.6 14.25-1.25 23.35 4.9"/><path fill="#0d131a" d="M104.95 30.25q.5 2.25.05 2.35-.5.1-1.05-2.1Q99.2 11.7 71.9 1.6q.55 18.85 13 30.45l-.75-.05-1.05-.35q-9-8.4-11.65-20.6-.9-4.05-.9-7.7 0-3 .35-3.3.55-.45 5.05 1.3 5.35 2 10.5 5.25 15.25 9.75 18.5 23.65"/><path fill="#0d131a" d="M108.9 13.35q4-6.1 5.85-5.85.7.1 2.3 4.05 1.9 4.7 2.6 9.85 2.05 15.45-8.25 24.55-.2.2-1-.45 9.25-8.2 8.2-22.5-.4-5.05-1.95-9.3-1.4-3.8-2.45-4-1.45-.25-5.1 5.85-4.1 6.9-4.65 13.3l-.4-.35q-.4-.55-.35-.8.65-7.35 5.2-14.35m-17.8 28.7-2.95.1q-.3.75 2.25 2.65 3 2.2 7.3 3.55l-.1.3-.55.25q-5.2-1.05-8.45-3.9-2.7-2.4-2.1-3.45.7-1.3 4.85-.5 4.6.85 7.75 3.85 1.1 1.05.85 1.3-.25.3-1.5-.65-3.8-2.85-7.35-3.5"/><path fill="#0d131a" d="M95.05 31.65q1.25-.55 4.1 3.15 3.1 4.1 4 8.75.5-3.35 2.05-5.95 1.4-2.35 2.4-2.3 1.1.1.95 3.8-.25 3.9-1.95 6.8l-.85-.15q1.35-2.3 1.7-5.65.25-3-.25-3.15-.45-.1-1.45 1.85-1.3 2.45-1.95 6.15-.25 1.4-.65 1.45-.4 0-.65-1.4-1-4.85-3.55-8.65-2.2-3.2-3-2.9-.7.25.25 4.2 1 4.35 3 7.6l-.6.35q-2.95-4-3.75-9.1-.75-4.4.2-4.85m67.3 115.9q8.7-.3 9.15-.95.3-.4-2.2-2.45l-7.5-5.65q-.8-.65.05-1.1 4.45-2.5 4.35-2.85l-2.9-.4q-3.1-.1-6.45.15l-2.05-.15q-.05-.35 2.05-.7l7.7-.2q3.85.3 4.05.85.35.95-5.75 3.8 11.1 7.9 10.65 9.3-.25.95-8.05 1.5-7.25.5-11.45.2-3.8 11.6-4.9 11.65-.95.05-3.9-5.3-2.05-3.7-4.2-8.4l-6.1 4.65q-1.4.9-1.9.55-.6-.45.65-10.1l1.2-9.7q-.15-.1-2.15 1l-3.9 2.1q-.9.45-.85-.6l.45-10.4.05-7.25q-.3-.2-3.2 2.45-3.25 2.95-6.25 6.5-.3.4-.65.1-1.4-.95-5.3-2.85t-4.1-1.7q-.2.15 2.95 6.1l5.65 10.3.2.65-.7.1-2.85-.2-3-.05 1.45 3.7L116 150l2.85 6.8q.55 1.5-1 .7-8.5-4.35-8.85-4.3-.15.05-2.15 4.15l-3.2 7q-.65 1.55-1.1 1.55t-.9-1.5q-.75-2.25-1.25-6.5-.45-3.6-.4-5.5l-6.95.4-6.1.75q-1.55.2-.55-1.45 1.4-2.7 6-7.55-3.25-1.05-3.25-1.75 0-.8 5.2-3.6 1.45-.75 1.6-.4.1.3-1.3 1.25L91 142.7q.05.4 2.5 1.1.8.25.25.85-2 2.05-4.1 4.85-1.95 2.55-1.8 2.7l4.7-.4 7.5-.25q.1-1 .35-1 .35-.05.45 1.7.15 2.15.85 6.7.75 4.75.95 4.75l2.8-5.85q2.7-5.85 3.15-5.95.35-.1 4.8 2.15l4.35 2.2-4.25-9.1q-4.25-9.1-4.05-9.6l3.4-.1 3.25.2-3.75-6.65q-4.15-7.4-5.35-10.95-.3-.75.45-.55 3 .65 11.15 5.55 3.15-3.9 6.75-7.35 3.4-3.2 4-3.1 1.05.2-.45 19.65 6.9-4.1 7.25-3.75.2.2-.35 3.75l-.85 5.85q-1.3 10.25-1 10.4l6.95-4.9.5-.25.3.45q1.8 4.05 4.5 8.65 2.4 4.15 2.7 4.05.35-.15 2.25-5.35 1.95-5.15 2.2-5.25z"/><path fill="#0d131a" d="M153.35 130.05q-3.8.95-5.9 1.95l-.6-.8q3-1.6 7.35-2.55l4.9-.2q.3.35-.2 1.8-.5 1.55-1.55 3.3l-1.25.2 1.15-2.6q.4-1.3.1-1.65-.25-.35-4 .55m-45.4-83.85q-2.45.1-2.5-.35-.1-.45 2.3-.6 8.75-.5 16.45 5.55 10.1 7.95 8.05 22.9-2.1 14.75.05 25.95l-1.2.35q-2.2-11.7-.15-26.4 1.75-12.7-6.75-20.8-7.25-6.95-16.25-6.6"/><path fill="#0d131a" d="M136.85 113.6q3.7 8.35 10.1 16.95 1.45 1.85.95 2.25t-1.9-1.4q-6.95-8.9-10.7-17.6zM96.6 48.55q1.95-1 2.1-.55.15.4-1.8 1.5-8.55 4.7-9.4 13.95-.95 10.55 7.95 27.5 3.6 6.85 5.35 18.6 1.7 11.55.95 23.25-.05.55-.6.5l-7.6-.2q-3.85.3-3.95.85-.1.75 4.35 5.75-.35.9-.6.7-3-2.7-4.45-4.65-1.25-1.7-1-2.3.35-.8 3.4-1.35 3.85-.7 8.95-.15.7-11.95-.75-22.2Q98 98.8 94.25 91.7q-9.2-17.55-8.6-27.85.6-10.2 10.95-15.3M80.45 196q-7.75-7.35-7.75-18.2 0-7.85 6.4-15.3t15.85-10.6l1.9.4q-8.95 3-15.55 10.45-6.7 7.55-6.7 15.05 0 10.05 7.05 17 6.9 6.75 16.5 6.75 10.25 0 16.9-4.35 6.5-4.25 8.95-12.4.1-.2.95.3l.75.75q-2.45 8.1-9.7 12.65-7.35 4.6-18 4.6-10.15 0-17.55-7.1"/><path fill="#0d131a" d="M122.45 184.05q-2.3-2.05-2.05-2.35.3-.3 2.75 1.6 5.15 3.85 10.6 5.7.2.05.4.95.2.85 0 .75-2.85-.95-5.9-2.65-3.4-1.85-5.8-4m-11.2-11.35q-1.65-1.65-2.8-4.15-1.1-2.35-.85-2.5.25-.1 1.65 2.1l2.8 3.9q1.95 2.2 1.6 2.45t-2.4-1.8"/><path fill="#0d131a" d="M133.85 188.05q2.45 7.4 9.15 12.35 6 4.45 14.1 5.95 7.05 1.35 12.6.05l2.35-.1q.15.4-2 1-6 1.6-13.75.25-8.5-1.5-14.55-5.95-6.8-5.05-9.25-13.3-2.25-7.65-.1-15.15.7-2.5 1.15-2.4.45.05-.15 2.65-1.85 7.75.45 14.65m30.45-40.1q11.65 7.55 17.7 16.65 6.3 9.45 5.8 19.3-.25 5.75-3.4 11.2-3.05 5.25-7.95 8.95-2.05 1.55-2.25 1.1t1.8-2.05q4.45-3.65 6.95-8.5 2.6-4.95 2.9-10.6.5-9.65-5.75-19-6.05-9.1-17.4-16.5-.2-.1.6-.4zm-27.5 15.25q-.9 1.65-1.3 1.45-.4-.25.3-1.9.6-1.4 1.75-3l1.7-2.05q1.5-1.45 1.75-1.25t-1.2 1.95q-1.45 1.8-3 4.8m-84.6 67.5.25.45q0 .4-.2.4-4.85.05-8 3.2-.7.7-1.6.5-.95-.15-1.6-1.1-.15-.2.3-.45.4-.3.55-.15.8 1.15 1.7.25 1.95-1.95 3.45-2.5zm26.4-38.8q.1-.35.6.3l.45.9q-.3 1.7-3.35 7.55-3.4 6.45-6.55 10.7-3.55 4.85-9.4 8.2-5.75 3.3-10.8 3.5l-6.5.7q-1.25.5-2.25 2.55l-.65.05-.55-.3q1.2-2.6 2.75-3.35 1.8-.95 6.9-1.15 4.65-.2 10.5-3.35 6.05-3.25 9.15-7.45 3.05-4.15 6.05-10.3 2.25-4.6 3.65-8.55m-21.15 48.6q.8.15 1.45-.3l3.15-2.85q2.25-2.4 4.15-3.85 3.2-2.45 5.4-2.95 2.05-.45 6.5.15l.1.55q-.05.55-.25.5-7.45-1.05-11.4 2.9l-3.85 3.95-2.55 2.45q-.75.55-2.15.7-1.45.15-2.05-.35-.15-.15.25-.75.35-.55.55-.45z"/><path fill="#0d131a" d="M52.85 231.05q-.65.8-.85 3.35l-.55.8q-.6.6-.6.35.35-4.25 1.2-5.55.6-.9 2.5-1.25 2.6-.65 7.8-3.55 2.2-1.2 2.35-.8t-2 1.75q-4.55 2.9-7.5 3.75-1.85.6-2.35 1.15m25.7-2.4q.3 4.2-.35 5.95-1.15 3 1.25 4.05l.1.7-.3.55q-3.85-1.55-2.35-5.1.9-2.15.6-6.15-.15-2.5.35-2.55.5 0 .7 2.55m12.7-27.8q.2-.1.75.3.6.35.4.45-5.45 2.45-8.45 7.75-2.7 4.8-1.85 8.7.35 1.55 2 3.95 1.55 2.3 3.65 4.5.5.55.6 1.45l.05 2.05q0 2.05.85 3.8.6 1.35.1 2.85-.45 1.2-1.35 1.7-.15.2-.25-.3t.05-.65q1.25-1.4.3-3.35-.8-1.7-.6-3.95.1-1.9-.8-3l-3.05-3.8q-2.15-3-2.6-5.2-1-4.55 2.3-9.9 3.15-5.2 7.9-7.35"/><path fill="#0d131a" d="M82.65 210.75q-.15-.15.1-.85.2-.7.35-.55 2.95 2.95 3.45 4.45.65 1.65-.4 4.4l-1.7 5.05-.5-.6-.4-1.05 1.65-3.8q1-2.2.4-3.65-.2-.65-2.95-3.4m-16.3 10.5q-1.05 1.4-1.35 1.2-.35-.25.55-1.7l.8-1.35q.7-1.3 1-1.15.25.15-.25 1.6zm21.3-17.55-.1.6-.45.8q-3.05 1.4-7.6-.15-4.75-1.55-4.35-4.55l.35-.45q.35-.2.35 0-.35 2.7 4.05 4.05 4.35 1.3 7.75-.3m-5.85 8.1.25.55-.1.85q-3.4 2.75-8.25 2.05-4.9-.7-4.6-4.05l.4-.45.35-.05q-.25 3.2 4.35 3.45 4.4.2 7.6-2.35m-40.65 21.55q.65-.5.45-3.55-.25-3.1-1.35-3.1-2.3 0-4.6 5.25-2.2 4.95-1.7 5.4.2.2 2.6-1.1zm-.6-7.65q1.75.55 2.25 3.6.3 1.5.05 2.85-.25 1.5-1.1 2.1-4.1 3.1-8.4 4.7-.7.3-.7-.45v-.05q.45-5.2 3.3-9.4 2.65-3.9 4.6-3.35m15.55 8.35q-1.2-1.9-1.7-1.55-4.05 2.65-4.65 7.7-.5 4.35.45 4.6.6.15 3.85-3.2 3.3-3.45 3.3-4.6 0-1.1-1.25-2.95m-1.7-2.6q1.6.05 3.05 2.7 1.5 2.65.8 4.3-.75 1.9-4.45 5.4-3.65 3.4-4.05 2.65-2.4-4.55.15-10.1 2.35-4.95 4.5-4.95m31.65 2.5q-1.25-1.45-2.5-1.55-1.05-.1-2.05 1.5-1.1 1.75-1.3 4.75 0 2.7 1.05 4.2.85 1.2 2.15 1.35.9.1 2.3-2.25 1.55-2.65 1.55-5.6 0-1.05-1.2-2.4m-2.4-2.55q1.6.1 3.2 2 1.45 1.7 1.45 2.95 0 4-1.7 6.8-1.45 2.45-3.1 2.5-1.15.1-2.55-1.25-2.1-2-2.1-6.1.25-3.4 2.1-5.4 1.45-1.6 2.7-1.5m79.75-23.75q-.15-.2.55-.4.75-.2.85 0 3.25 5.1 4.3 8 1.4 3.75 2.05 10.45l-.5.45-.5-.05q-.6-6.35-2.25-10.4-1.1-2.75-4.5-8.05"/><path fill="#0d131a" d="M170.7 226.85q-1.1 1.7-3.15 3.5-3.35 2.85-2.55 5.45.5 1.5 2.15 2.9 1.25 1.05 4 2.65l.1.05q.45.3.2.7-.25.45-.7.2l-.1-.05-4.55-2.8q-2.1-1.6-2.65-3.25-.9-2.9 3.4-6.65 1.85-1.55 3.05-3.4 1.15-1.8 1.55-1.5t-.75 2.2"/><path fill="#0d131a" d="M171.3 240.5q.5 1.5.5 4.3 0 2.45.6 3.3t2.95 1.5l.3.7q.1.65-.1.55-3.55-1.05-4.25-1.9-.65-.8-.65-3.8 0-3.15-.35-4.4-.55-1.75-.1-1.9.45-.1 1.1 1.65m10.85-4.15 3.05 2.65q2.55 2.45 2.7 3.85.15 1.3-.75 3-.95 1.8-3.5 4.7-.1.15-.45-.4-.3-.55-.15-.7 3.7-4.15 3.6-6.55-.05-1.05-1.8-2.8l-3.25-3q-1.75-1.55-1.5-1.85.2-.25 2.05 1.1"/><path fill="#0d131a" d="M187.35 243q3.95-.45 12.15 2.15 6.85 2.15 9.2 2.6 2.05.45 3.45 0 .2-.05.6.5l.25.6-4.35.1q-2.65-.45-9.65-2.6-5.3-1.65-7.9-2.15l-3.8-.2q-.2.05-.2-.45.05-.5.25-.55m26.2-6.15-11.6-1.2-2.75-.7q-1.85-.8-5-2.8-1.7-1.1-1.5-1.35.25-.3 2.1.7 5 2.75 7.15 3.1l6.15.55 5.8.55q1.55.2 3.45 2.1 2.5 2.5 1.55 5.4l-.55-.45-.5-.8q.25-1.5-1.4-3.25-1.5-1.65-2.9-1.85m-27.75-12.7q1.15 2.45.75 2.65-.4.15-1.75-2.2-2.15-3.85-4.1-10.8-1.8-6.55-2.45-12.2 0-.25.65-.6l.7-.2q.65 5.8 2.5 12.75 1.85 6.75 3.7 10.6"/><path fill="#0d131a" d="m213.35 228.45 3.5.3q1.55.55 2.95 2.1 1.4 1.6 2.75 2.6 2.35 1.6 3.15 3.45l-.35.25-.5-.1q-.4-.9-1.2-1.6l-1.7-1.2-2.95-2.5q-1.1-1.25-2.3-1.65l-3.25-.35q-7.9.35-15.4-1.1-3.1-.55-8-2.15l-4.6-1.6q-.2-.1-.3-.7-.05-.65.15-.6l4.7 1.7q5.25 1.8 8.25 2.35zm-55.1 6.15q.25-.8 1.95-3.65.7-1.2 1.6-1.65.85-.4 2.85-.5 1.7-.05 4.65-1.7l.4.4q.25.45.1.55-2.95 1.5-5.15 1.65l-2.25.35-1.35 1.4q-1.85 2.95-1.85 4.1 0 .75.65 1.75.55.9.8.8l1.05-.9q1.15-.9 2.55-1.1l.3.45-.1.55q-.85.15-1.9 1.05l-1.45 1.5-.3.35-.35-.2q-1.35-1.2-2.1-2.75-.6-1.15-.1-2.45m27.4.45q.1 1.9-.2 1.8-.3-.05-.6-1.8-.35-1.9-1.45-3.4-1.05-1.3-.85-1.5.15-.2 1.65 1.15 1.45 1.3 1.45 3.75m-2.8 11.5q-.3-2.75-1.15-3.35l-3.15-.2q-2.4 1-3.15 2.75-.7 1.65.35 4.2 1.3 3.2 3.1 5.45 1.4 1.75 1.8 1.7l1-1.65q.85-1.8 1.1-3.45.45-2.65.1-5.45m-4.6-4.35q2.4-.85 4 .3 1.95 1.5 1.45 8-.2 2.75-.7 4.4-.55 1.7-1.8 3.5l-.7.15q-3.3-1.9-5.75-8.25-1.15-2.85-.3-4.95.9-2 3.8-3.15m32.75 2.5q-.05.85.5 1.55l2.45 2.1 3.5 2.65 2.1 1.4.3-2.05q.15-2.05-.1-3.25-.35-1.7-1.8-3.9-1.4-2.15-2.35-2.4-1.1-.35-2.85 1.2-1.7 1.5-1.75 2.7m-1.4.1q0-.65.6-1.6l1-1.25q1.5-1.5 2.55-1.95l2.25-.15q1.1.35 2.55 2.4 1.55 2.3 2.1 4.95l.15 3.15-.25 3.05q-.15.65-.95.4-.9-.35-6.9-4.75-3.1-2.3-3.1-4.25"/><path fill="#0d131a" d="M219.8 238q.55-1.75 1.7-2.3 2.4-1.2 5.55 2.65 1.65 2 2.95 4.45t1.65 4.35v.55l-.55.05q-3.3-.2-6.9-2.2-4.15-2.3-4.65-5.15-.2-.95.25-2.4m1.15.05q-.35 1-.35 1.85 0 3.2 9.65 6.55.25-.25-1.05-3-1.4-2.95-2.7-4.5t-2.5-2.2q-1.15-.6-1.95-.25-.7.35-1.1 1.55m-40.6-27.1.45.2.15.5q-2.1 1.75-7.05 2.2-5.15.5-7-1.2-.2-.15 0-.65.15-.5.35-.4 1.7 1.35 6.55 1.1 4.8-.3 6.55-1.75M169.8 221.1q-.2-.1-.05-.75.1-.6.25-.5 2.65 1.65 7.8 1.6 4.75-.05 5.35-1.1l.45.05.25.4q-1 1.55-6.1 1.8-5.2.2-7.95-1.5m23.15-130.2q-16.35-6.75-18.6-6.6-3.65.15-21.35 7.15-16.55 6.5-20.85 8.9-1.7 1-1.9.45-.2-.5 1.5-1.55 4.5-2.8 21.3-9.45 17.35-6.85 21.4-7.05 2.7-.15 19.05 6.75 17.8 7.45 26.1 13.2 2.1 1.45 1.8 1.8t-2.4-1q-8.35-5.3-26.05-12.6"/><path fill="#0d131a" d="M234.3 105.15q3.7 0 4.05 1.15t-4.15 4.85q-4.3 3.55-7.45 5.05-.2.05-.4-.3-.2-.4-.05-.5 3.65-2.05 7.1-4.9 3.35-2.8 3.15-3.55-.2-.7-2.6-.8-3.25-.1-8.9 1.15l-.7-.05q-.1-.15.1-.65 2.4-5.9 2.1-6.1-.15-.15-2.5.7-2.4.85-4.35 1.8l-.65-.15q-.45-.2-.25-.3 3.85-2 6.4-2.95t2.9-.45q.55.85-2.5 7.1 5.15-1.1 8.7-1.1m-63.4 10.6 9.05 5.6-.15.55-.45.3-9.15-5.3q-8.1-4.5-9.2-4.6-6.45-.8-24.75 1.95l-2.75-.1q-.05-.5 2.65-.95 18.5-3.1 25.35-2.3 1.35.15 9.4 4.85"/><path fill="#0d131a" d="M183.15 119.75q-6.05 5.1-5.85 5.45l3.65.3q3.6.3 3.9 1.05l-1.05 3.35q-1.5 4-1.95 9l2.75-3.15q3.1-3.5 4.35-4.15.55-.3.7.35 1.45 4.55 1.85 4.55.35.05 3.5-3.85.1-.15.4.25l.2.55-2.15 3q-1.45 1.75-2.15 1.75-.55 0-1.15-1.5l-1.25-3.65q-.75.5-4.3 4.85-3.2 3.95-3.85 3.95-1 0 .15-5.85 1.15-5.9 2.85-8.85l-5.2-.4-3.6-.35q-.35-.8 2.6-3.55 2.65-2.45 5.05-4 1.6-1.05 1.85-.7.3.3-1.3 1.6m31 11.1.5.6q.3.6.05.55l-4.75-.7q-.8 1.55-1.45 4.45l-.45 2.6q-.05.3-.6-1.8 0-.85.3-2.5.5-2.65 1.45-4.2.2-.4.6-.2l1.35.5z"/><path fill="#0d131a" d="M207.15 143.15q.45-9.9-3.9-18.45-5.05-9.95-9.7-10.3-2.6-.1-3.5 3.5-1 3.8 1.4 7.55l7.85 13.1q5.3 9.2 6 11.15.35 1.05 1-1 .7-2.15.85-5.55m-2.95-18.85q3.85 8.15 4.25 16.8t-2.9 11.35q-.6.5-.8-.2-.85-2.4-6.05-12-5-9.2-8.15-14.25-1.8-2.85-1.9-6.1-.05-2.85 1.1-4.85 1.5-2.4 3.9-2.35 2.5.1 5.25 3.1 2.7 3 5.3 8.5m11.7-18.65q1.55-.4 4 .95 2.45 1.4 4.5 3.95 5.75 7.15 6.35 16.55.6 9.75-4.75 17.7-.1.2-.25-.15v-.5q4.9-9.4 3.4-18.85-1.2-7.65-6.15-13.95-1.8-2.25-3.65-3.4-1.8-1.1-3-.8-1.1.3-1.7 1.2-1 1.35-1.15 4.4 0 .25-.5.2-.55 0-.5-.25.3-6.2 3.4-7.05m-111.1-31.1q.15 1.6-.15 2.8t-.85 1.25-1.05-1.05q-.5-1.15-.65-2.75t.15-2.8q.3-1.15.85-1.2t1.05 1.05.65 2.7m2.3-4.4q1.3 2.1.9 2.3-.4.15-1.75-1.8-3.2-4.45-6.95-7.75-1.2-1.05-.95-1.35t1.65.75q1.55 1.05 3.85 3.65 2.2 2.45 3.25 4.2"/><path fill="#0d131a" d="m107.25 71.15.45.45q1.15 13.45-2.75 13.45-5.6 0-7-9.3-.6-3.85.1-7.3.7-3.65 2.5-5.15.2-.1.5.25l.15.45q-3.55 2.95-2.15 11.3 1.45 8.4 5.8 8.4 1.15 0 1.75-2.55.8-3.35.2-10.05zm4.85 12.2q0-.2.5-.15l.45.2q-.05 5.7 1.9 9.1 1.7 3 3.9 2.95 1.75-.05 2.9-2.4 1.3-2.6 1.35-6.95 0-.2.45-.2.4.05.4.25-.05 4.55-1.8 7.55-1.55 2.6-3.25 2.65-3.05.1-4.95-3.7-1.9-3.7-1.85-9.3"/><path fill="#0d131a" d="M113.6 84.1q.05-.2.45-.15l.4.25q-.15 3.2 1 5.85 1.2 2.8 3.05 2.8 1.6 0 2.6-1.7 1.05-1.8 1.1-5 0-.2.35-.25.35 0 .35.2-.05 3.45-1.25 5.65-1.25 2.15-3.1 2.15-2.2 0-3.7-3-1.5-2.95-1.25-6.8m-76.35-.75L28.7 87.2q-5.05 2.1-7.7 2.3l-2.1-1.2q2.85.45 6.7-.95l11.2-4.9q2.15-1 4.45-1.8 3.1-1.1 3.6-.75.55.4.1 4.55-.5 4.25-1.55 7.85 5.75 2.8 14.4 5.7 9.75 3.25 19.75 5.45l10.2 1.2 11.35.35q.2 0 .35.5t-.05.55q-5.95.3-12.55-.1l-9.35-1.05q-8.7-1.7-19.9-5.6-9.65-3.35-15.3-6.2-.45-.2-.3-.6 1-3.15 1.55-7.2.5-3.6.2-3.85l-2.7.6zm168.5 30.4q-.65 2-.7 4.1-.05 1.4 3.25 4.9 4.55 4.9 6.5 7.9 2.7 4.2 6.55 8.55 3.45 3.95 3.9 3.8.35-.1.25-2.7-.1-3.1-1-6.7-2.75-10.85-10.85-19.5-3.75-4-6.05-3.05-1.1.4-1.85 2.7m1.3-3.85q1.45-.55 3.45.3t4.15 3q6.05 6.1 9.05 13.85 3 7.65 2.7 16.05-.05 1.8-.6 1.95t-1.7-1.1q-6.85-7.5-10.75-13.4-1.05-1.65-4.4-5.1-3.3-3.4-4.3-4.95-.15 1.55-.55 1.2-.45-.3-.55-1.8-.2-2.7.65-5.7 1-3.6 2.85-4.3m14.6 133.05q.1-.2.45.25.4.45.3.65-.65 1.35-2.65 2.15-.2.1-.4-.4-.25-.45-.05-.55 1.35-.65 2.35-2.1"/><path fill="#0d131a" d="M114.15 86.7q2.4-.2 4.55.85 2.2 1 3.1 2.9l-.1.5q-.2.3-.3.1-.9-1.7-3.1-2.8t-4.15-.95l-.2-.3zM4.65 80.9q.85-.55 5.1 1.9 3.65 2.05 6.65 4.4l1.05.75q.3.3.2.45l-.95-.05-1.05-.35-4.5-3.1q-4.7-3-5.45-2.45-.65.45.3 3.9 1.25 4.5 4.75 10.9l.2.6-.6.1q-2.3.2-5.55 2-3.1 1.75-3 2.45.05.3 4.4 1.1l6 .95q.8.05.4.7-1.2 2.55-1.85 4.8-.6 2.35-.35 3.65 2.7-2 8.9-3.8 1.05-.25 1.55.35 3.7 4.35 18.25 11.85 14.5 7.55 18.3 7.05Q65.55 128 80.75 124q14.2-3.75 20.15-6.15l.4.4q.15.5-.05.55-6.15 2.5-20.3 6.4-15.5 4.3-23.55 5.35-4.15.55-18.95-7.2-14.5-7.6-18.6-12.1l-3.5 1.15q-3.75 1.3-5.6 2.45l-1.35.35q-.55-.25-.55-1.95 0-1.5.7-3.75.75-2.3 1.85-4.15Q0 104.4 0 102.75q0-1.25 3.3-3.2 3.3-2 6.25-2.5-3.85-6.45-5-11.55-.85-4 .1-4.6"/><path fill="#0d131a" d="M20.95 115.35q1.4-.8 2.6-1.95.2-.15.55.25.35.35.2.5-3.7 3.55-5.35 3.7-1.7.2-2.6-6.4-.05-.2.45-.3l.55.15q.65 4.5 1.8 4.7.5.1 1.8-.65"/><path fill="#ef821e" d="M110.8 81.6q-.2-.45.4-.75l1.45-.3q5.4 0 11.4-2.5 3.8-1.55 6.1-3.15l1.5-1.25.65.8 1.5 2.7q1.45 3.05.45 5.15-1.55 3.3-9.05 3.8-7.2.45-11.55-1.95z"/><path fill="#ce7117" d="M133.6 77.65q2.85 3.95-.5 6-3.55 2.2-9.05 2.2l-5.3-.55q4.4.65 9.4-.95 6.35-2.05 5.45-6.7"/><path fill="#0d131a" d="M112.75 81.1q-1.1.1-1.15.45-.1.35.8 1 3.65 2.75 10.25 3 6.95.3 10.4-2.8 1.1-1 .95-2.95-.25-2.4-2.5-5.5-2.6 2.45-7.85 4.4-5.4 2-10.9 2.4m-1.5 1.9q-1.35-1.35-1-2.05.4-.65 2.55-.85 5.15-.5 10.85-2.55 6.05-2.1 7.55-4.2.25-.35.9.45 2 2.55 2.75 5.15.9 3.2-.9 4.8-4.1 3.7-12.3 2.95-7.5-.7-10.4-3.7"/></svg>