<svg xmlns="http://www.w3.org/2000/svg" width="361" height="410" viewBox="0 0.25 361.25 409.5"><path fill="#fff1ac" d="m190.45 156.05-2.1 11-4.55-10.35-15.9-10.15q-16.2-10.2-17.45-10.2t-5.8 6.85l-4.35 6.8.8 16.4-2.85-1.85 2.9 6.05-17.1 13.15-.5-11.65-2.5 13.85-12.2 10.25q-1.95-.9-1.65-11.7l.7-10.6-.85 4.85q-1.15 5.4-2.85 8.35-2.25 4-4.7.3-2.7-4.15-2.7-15.3 0-13.3 14.1-74.1 14.45-62.55 20.4-69.7 5.7-6.85 21.8-10.05 15.15-3.05 21.1-.05 24.65 12.65 71.55 71.9 22.95 29.05 39.25 62.65 6.8 14 9.85 23.95 3.05 9.85 1.3 12.15-2 2.65-10.65-6.5l-10.75-12.25q13.2 17.85 15.3 23.45.95 2.5.1 3.55-.6.7-2.65 1-2.7.4-8.5-4.7-7.35-6.5-8.85-7.3 5.45 7.25 3.8 8.55-1.15.95-6.85-1.2-3.95-1.5-42.5-30.7l-13.4-.7 2.7 8.7-6.7-4.65-1.15 10.5z"/><path fill="#dcd096" d="M170.85 70.2q3.45 3.65 1.35 9.85-1.7 5.1-7.8 13.25-5.7 7.55-10.25 9-4.8 1.5-5.15-4.95-.15-3.55-4.85-12.1-4.5-8.15-7.7-11.35l17.1-1.85z"/><path fill="#dcd096" d="M195.8 48.5q-1.55-4.25-4.65-9.6l-3.3-5.5q-1.55-2.95 8.85 7.35 10.7 10.55 25 26.3 38.8 42.5 52.55 65.4 11.95 19.9 18.35 37.05 6.05 16.1 3.55 19.35-2 2.65-10.65-6.5l-10.75-12.25q13.2 17.85 15.3 23.45.95 2.5.1 3.55-.6.7-2.65 1-2.7.4-8.5-4.7-7.35-6.5-8.85-7.3 5.45 7.25 3.8 8.55-1.15.95-6.85-1.2-3.95-1.5-42.5-30.7l-13.4-.7 2.7 8.7-6.7-4.65-1.15 10.5-15.6-20.55-2.1 11-4.55-10.35-15.9-10.15q-16.2-10.2-17.45-10.2t-5.8 6.85l-4.35 6.8.85 20.6-17.1 13.15-.5-11.65-2.5 13.85-12.2 10.25q-1.95-.9-1.65-11.7l.7-10.6-.85 4.85q-1.15 5.4-2.85 8.35-1 1.8-2.5 1.7-1.55-.1-2.9-2.1-3.4-4.95-3-16 .25-7.55 8.55-13.9 4.15-3.15 8.25-4.85 1.75-.65 4.1-3 4.7-4.7 7.8-13.3l.9 5.15q.55 3.5 1.35 2.25 1-1.45 3.55-4.1 2.5-2.6 2.15-1.95-.4.75.25 3.6.65 3 1.75 3.25.75.2 6.9-4.8 6-4.9 6.85-4.5l17.5 8.6q15.2 7.55 16.9 8 1.5.4 1.4-5.35-.1-5.55 1.05-4.75 1.6 1.05 7.25 3.35l7.3 2.7q1.4.45-1.8-6.4-3.35-7.2-3.05-7.35t7.6 1.45q6.65 1.5 5.75.55l-3.75-3.8q-3.05-2.9-5.75-4.4 8.35-10.1 5.9-25.5-2.2-13.75-14.6-39.1 10.7-.8 5.9-14.05"/><path fill="#e73820" d="m70.35 154.2 10.6-25.3 21.5 10.95 11.4-10.4 12.8-11.5q1-.8 2.8-6.35 2-6.05 2.85-7.25 1.25-1.75 5.35-3.05l7.85-1.85-8.3 12.55q-8.65 13.2-10.55 16.5t-3.05 11.05q-.55 3.9-.75 7.1L111.1 157.4l6.85.2q-9.05 10.55-11.35 11.35-1.4.45-18.95-7.1z"/><path fill="#c82e19" d="m70.35 154.2 3.85-9.25q5.75 4.3 17.8 9.8 8.65 3.95 13.5 5.6 1.95.65 7.7-6.8 7-9.55 10.35-13.55-.5 3.65-.7 6.65L111.1 157.4l6.85.2q-9.05 10.55-11.35 11.35-1.4.45-18.95-7.1z"/><path fill="#0d131a" d="M189 63.05q-1.3-2.85-.3-2.25.95.55 2.55 3.4l5.05 8.65 6.85 12-2.95.25-5.35-10.35z"/><path fill="#0d131a" d="M188.7 169.55q-.45-.35-3.55-6.45l-3.2-6.3q-28.8-18.75-31.3-19.6.1.5-4.6 6.3-4.8 5.95-5 6.7-.25 1.05.3 9.45l.6 8.2-1.8-1.15-.05-.05 2 4.15-18.45 14.3-.05-11.5-2.1 12.9q-13.05 10.95-13.65 10.7-1.1-.5-1.35-3.6-.15-1.5-.15-6.8l.05-2.9q-.95 3.45-2.6 5.25-1.45 1.5-2.65 1.15-2.4-.6-4.25-6-1.85-5.45-2.1-13-.4-11.3 10.75-60.15 11.15-48.7 19.55-72.45 2.55-7.2 6.25-11.55 3.85-4.55 10-7.2 8.65-3.7 18.55-4.55 10-.8 15.25 1.75 24.75 12.1 72.25 72.1 19.85 25.2 35.4 55 11.05 21.1 14.4 34.35 2.75 11-.35 12.5-1.75.85-4.6-1.25-2.6-1.95-8.1-7.85 11.25 13.75 6.95 16.7-4.25 3.05-14.05-5.85l-3.85-3.6q3.55 5.35 1.75 6.85-2 1.75-10.7-2.55-3.85-1.9-21.35-14.95l-19.15-14.5-11.5-1.2q-.65-.1 1.1 4.35l1.9 5.4q0 .75-3.55-2.15l-3.9-3.05-.15 5.25q-.1 5.3-.95 5.25-.8-.05-8.4-10.3l-7.4-9.8q-1.45 12.2-2.2 11.7m33.65-35.5q-1.35-1.15-1.05-1.5l1.6-.25 10.35-.15 2.75 1.65-5.35-.05q-5.45-.05-5.85.05-.2.05 4.9 4.3 5.25 4.35 4.9 4.9t-7.3.85l-6.8.45 8.15 10.3q7.8 9.95 6.3 10.1l-7-.35 21.95 16.7q12.5 9.35 15.85 11 4.4 2.15 6.3 1.25 2.3-1.05-2.45-6.65-1.85-1.4-18.3-17.65l-16.8-16.85q-3.1-3.55-2.45-3.65.65-.05 3.8 2.95l41.55 39.5q3.85 3.5 7.1 5.2 3.4 1.75 4.95.95 1.8-.95-.75-5.5-2.95-5.4-14.55-21.05l-8.3-11.85q-7.85-11.5-5.5-9.55 2.2 1.8 9.2 11.6l9.3 12.85 8.5 9.55q5.45 5.55 7.6 5.5.4 0 .6-.3 1.55-2.05-1.5-11.7-3.1-9.8-9.8-23.6-16.35-33.7-39.1-62.45-46.75-59.2-71.3-71.7-3.65-1.85-13.3-1-10.05.95-18.25 4.2-5.35 2.1-9.05 6.4-3.75 4.35-6.1 11.25-6.4 19.2-15.5 58.45-15.1 64.9-15.1 73.75 0 7.8 1.95 12.45 1.45 3.4 3 3.8 1.15.3 2.05-1.5 1.6-2.8 2.6-7.65l1.1-6.2q1.35-6.85 2.15-6.6.8.2-.75 7.75-.7 3.1-.7 12.95 0 7 .95 8.3l11.45-9.7q2.05-12.4 3.1-16.8.45-1.95.7-1.7l.35 1.9.25 13.3 15.45-11.9-.4-4.45-2.65-2.4q-2.05-1.7-2.2-1.45-2.45 4.45-7 10.3-1.45 1.85-1.75 1.7-.3-.1-.45-2.35l-.2-7.65q0-.7-.2-.75-.15-.1-.8.4l-5.95 4.3q-2.55 1.8-3.2 1.35-.5-.35.2-2.7l1.35-4.95.55-3.05q-.05-.3-1.45-.4l-3.75.1q-2.45.2-2.7-.45-.25-.6 1.45-2.05l10.85-9.55q-.15-1.35.6-7.3 1-7.5 2.75-10.1l22.7-33-3.15-7.65 1.25-1 1.2 2.45 2.4 6.35q1 3.15.55 3.7-.5.55-1.45-2.3L137.7 113.7l-10.45 15.8q-3.05 4.6-3.35 15.85.8-.35 1.6-.75 1.35-.55.3.65l-7.05 6.25-5.75 5.2 3.4-.2q3.5-.4 3.65.05t-1.05 4.3l-1.95 5.8q-.3.9-.15 1l1.05-.45 4.15-2.9 3.1-2.35q1.2-.95 1.5-.7t.3 2.15l-.2 4.85q-.1 3.25.25 3.25.35.05 3.75-5.65 3.45-5.8 3.75-5.95.6-.35 5.65 4l-.55-7.95q-.35-5.35-.15-6.1.45-1.35 3.6-6.05 3.55-5.3 5.75-7.2-1.25-.95-.65-1.3l2.15.1q3.85 1.15 15.9 8.85l16.85 11.05.1-1.15q.35-.6 1.4 2.2 3.05 7.95 3.45 8.2.2.15.95-4.7.75-5.1 1.05-5.6.35-.6 7.65 9.55l7.8 10.8q.45.4.7-4.4l.4-5.45q.15-.45 2.8 1.75l3.1 2.4q.25.05-1.3-3.8-1.6-3.85-1.05-3.85l21.15.75q.2-.2-7.1-9.65-7.2-9.25-6.45-9.35l7.15-.45 6.2-.75q.15-.3-3.55-3.4z"/><path fill="#e73820" d="m355.75 355-20.15 7 21.35 10.95-37.2-1.2 16.45 19.2-29.55-11.6 7.6 24.7L290.5 387l3.65 19.5-16.8-21.35-7 9.45-4.85-8.2-15.25 18.9.9-18.9-15.25 10.95 4.6-9.45-26.85 11.6 24.1-27.45-11.6 1.25 16.45-13.75-35.95-96.95q-1.35-3.45-22.45-26.75l-20.85-22.65-5.5 13.1-2.45-15.25-9.15 12.8.6-7.3q-35.35 31.1-36.9 32.6-.9.95-.1 2.8l1.65 3.65q3.4.5 9.6-4.75 5.5-4.65 5.95-3.8.95 1.65-3.2 16.55-4.2 15.05-6.85 18.8 2.3 12 7.3 29.95 2.55 8.95 4.6 15.5l35.95 13.1-25.3-.9 13.1 8.85-19.5-4 11.9 9.15-20.15-5.15 9.75 12.2-25.9-7.05-1.2 10.1q-7.35-5.5-8.55-6.75-.8-.75-7.5 5.8-3.35 3.3-6.55 6.7l2.75-11.25-34.15 16.75 10.05-14.65-18.25 5.5 8.5-7.6-19.5 6.1 11.6-9.65q12.15-10.3 14.6-13.55 1.8-21 1.4-69.9-.15-18.4.3-26.15.65-10.95 2.8-13.15 2.9-2.95 30-25.45l27.4-23 8.95-6.5 9.35-7.2q.15-.9-.3-9.55-.45-8.75-.3-9.95.2-1.55 5.15-8.1l4.9-6.25q.8-.55 17.25 10.05 8.25 5.3 16.3 10.7v10.05l21.65 14.35 3.15 1.95q1.25 1.1 2.65 4.45 5.75 3.6 29.6 21 2.8 2.45 14.5 5.5l13.85 3.35q2.9 1 1.1 2.6-1.95 1.65-7.8 2.3-1.4 5.25-10 7.75-6.85 2.05-12.3 1.4 3.25 4.3 11.85 14.6 7.35 9.4 8.9 14.95l4.65-7.9q2.85-5.1 3.55-4.2 1.25 1.55 3.2 13.8 2.25 13.7 1.4 21.8 4.3 9.75 31.1 55.2l32.35 4.55-14.95 4.3z"/><path fill="#c82e19" d="M262.45 222.65q-1.4 5.1-9.6 7.65-6.5 2-12.2 1.55-14.55-15.3-27-42.35 8.45 5.7 27.15 19.4 2.8 2.45 14.5 5.5l13.85 3.35q2.9 1 1.1 2.6-1.95 1.65-7.8 2.3m-114.3-18.9q0 1.65-1.15 6.1-1.25 4.75-1.45 7.85l-35.6 31.45q-.9.95-.1 2.8l1.65 3.65q3.4.5 9.6-4.75 5.5-4.65 5.95-3.8.95 1.65-3.2 16.55-4.2 15.05-6.85 18.8l3.2 13.7-.65 1.75q-.8 2.7-1.9 4.15-3.85 4.95-11.3-3.95-2.05-11.1-3.9-27.7-1.65-14.9-1.65-19.65 0-1.3 1.25-2.65l7.05-6.75 11.5-10.25 14.55-12.8q4.8-4.25 8.75-9.4 3.6-4.6 4.25-5.1m115.4 80.45q-4.4-12.4-8.75-34.1 4.85 6.75 6.1 11.25l4.65-7.9q2.85-5.1 3.55-4.2 1.25 1.55 3.2 13.8 2.25 13.7 1.4 21.8 2.2 5.1 14.25 26.2l-5.65 1.75q-2.45.4-3.45-.55-9.35-11.4-15.3-28.05m-79.8-127.1v10.05l21.65 14.35-7.45-1.45-5.1-.7q-6.2-1.8-24.75-15.2l-18.1-13q-1.15 0-4.3 3.45-2.75 3.05-5.2 6.6-.5-9.15-.35-10.5.2-1.55 5.15-8.1l4.9-6.25q.8-.55 17.25 10.05 8.25 5.3 16.3 10.7"/><path fill="#f9be00" d="M143.7 144.55q2.85-3.9 6.5-8.2.45-.3 9.85 5.55l-3.15 7.75-3.8 10.2q-2.25 0-5.9-6.45-3.5-6.15-3.5-8.85"/><path fill="#d7a400" d="M144.7 148.2q-1-2.5-1-3.65 2.85-3.9 6.5-8.2.45-.3 9.85 5.55-1.35 2.7-5.15 13.1-3.45-3.35-4.8-3.65-1.3-.25-3 1.9-1.45-2.6-2.4-5.05"/><path fill="#f9be00" d="m90.45 280.8 1.1-19.35 10.95 22.85 2.85-26.95 9.95 19.9.7 1.9 1 3.25q2.3 12 7.3 29.95 2.55 8.95 4.6 15.5l35.95 13.1-25.3-.9 13.1 8.85-19.5-4 11.9 9.15-20.15-5.15 9.75 12.2-25.9-7.05-1.2 10.1q-7.35-5.5-8.55-6.75-.8-.75-7.5 5.8-3.35 3.3-6.55 6.7l2.75-11.25-34.15 16.75 10.05-14.65-18.25 5.5 8.5-7.6-19.5 6.1 11.6-9.65q12.15-10.3 14.6-13.55 1.4-16.6 1.5-40.4l-.25-36.95 4.25 9.9 4.05 9.9 3.25-23.3 1.7-14.2z"/><path fill="#d7a400" d="m103.25 277.1 2.1-19.75 9.95 19.9.7 1.9 1 3.25q2.3 12 7.3 29.95 2.55 8.95 4.6 15.5l35.95 13.1-25.3-.9 13.1 8.85-19.5-4 11.9 9.15-20.15-5.15 9.75 12.2-10.55-8.45q-10.75-8.55-11.65-8.9l3.75-.25 6.1.05q.95-.1-2.5-3.5-4.15-4-4.5-5.2-.65-2.25-4.95-22.55-4.6-21.9-7.1-35.2"/><path fill="#958e80" d="m114.6 270.4-2.4-14.8q3.45.5 9.25-4.75 5.15-4.6 5.6-3.8.85 1.45-2.95 15.25-3.85 13.85-6.7 19.5-1.45-3.85-2.8-11.4m154.5-21.15q1.2 1.45 3.1 13.15 2.15 13.05 1.6 21.3-3.15-5.1-6.75-11.75-3.7-6.7-5.75-11.1l4.45-7.75q2.65-4.7 3.35-3.85"/><path fill="#f9be00" d="m355.75 355-20.15 7 21.35 10.95-37.2-1.2 16.45 19.2-29.55-11.6 7.6 24.7L290.5 387l3.65 19.5-16.8-21.35-7 9.45-4.85-8.2-15.25 18.9.9-18.9-15.25 10.95 4.6-9.45-26.85 11.6 24.1-27.45-11.6 1.25 16.45-13.75-20.65-56.35 11 12.35-3.5-48.8 29.75 38.6-4-23.6 16.85 18.5-2.15-21.95 1.2 1.9 2.7 3.6.75 1.7.75 1.65q4.25 9.75 29.5 52.9l32.35 4.55-14.95 4.3z"/><path fill="#d7a400" d="m355.75 355-20.15 7 21.35 10.95-37.2-1.2 16.45 19.2-3.15-1.2-17.15-16.15q-9.9-9.05-9.9-9.65 0-.55 7.7-1.1 8.1-.55 8.9-1.1t-10.5-3.95q-12.3-3.7-13.55-4.95-3.15-3.15-14.3-22.35-13.1-22.55-17.4-35.95l5.2 5.7-2.15-21.95 1.2 1.9 2.7 3.6.75 1.7.75 1.65q4.25 9.75 29.5 52.9l32.35 4.55-14.95 4.3z"/><path fill="#e73820" d="M178.5 2.85q1.2-.95 2.55-.7 1.4.2 1.2 1.35l-13.6 22.15q-14.7 23.45-18 29.4 2.55-2.95 14.85-11.3 6.15-4.15 11.75-7.75l-3.45 15.3 13.45.95-17.5 14.65 10.3 8.15q.5.3-5 .1-6.85-.25-8.75-.1-1.7 12.7-7.5 15.6-3.05 1.5-5.5.95-2.25-.5-2-1.85.85-.85-1.8-4.5-2.55-3.5-4.15-4.25-.35 1.05.2 3.65l.45 3.2q-.2.85-5.4.9l-7.1-.25q-1.55-.2-2.95-2.8l-1.1-2.55L126.3 81l-3.7.9 2.45-4.65-11.55-6.9 5.35-3.95L108.8 56l4.05-.35-13.6-11.5Q85.55 32.4 84.75 31q-.9-1.6.1-2.9.95-1.35 2.1-.55l24.15 18.1 21.15 15.95Q176.9 4.1 178.5 2.85"/><path fill="#c82e19" d="M165.5 43.75q6.15-4.15 11.75-7.75l-3.45 15.3 1.9.15q-.35 5.55-1.9 12.05l-4.05 3.4 2.6 2.1-1.85 6q-2.75-.1-4.2.05-1.7 12.7-7.5 15.6-3.05 1.5-5.5.95-2.25-.5-2-1.85.85-.85-1.8-4.5-2.55-3.5-4.15-4.25-.75 2.8.3 4.7l1.05 2.15-4.15-.3q-4.1-.85-4.25-2.1-.3-2.75-.15-7.65.2-6.65 1.35-9.5 1.3-3.45 9.4-15.15 8.25-11.95 12.4-16.25-5.85 9.55-10.65 18.15 2.55-2.95 14.85-11.3"/><path fill="#922f00" d="M161.45 75.05q-.15 4.25-2.7 8.75-3.05 5.35-7.45 6.15v-.2q.85-.85-1.9-4.7-2.65-3.65-4.25-4.45l1.85-2.4q2.45-2.6 5.55-3 1.15.7 2.8 3.4 1.5 2.35 1.75 2.3.55-.15 3.05-5.85z"/><path fill="#ed8599" d="M161.45 75.05q-.1 1.95-.8 4.35-.8 2.6-2.15 4.8-3.3 1.2-5.9-.45-3-1.85-4.15-6.85 1.85-1.45 4.1-1.7 1.15.7 2.8 3.4 1.5 2.35 1.75 2.3.55-.15 3.05-5.85z"/><path fill="#f9be00" d="M163.5 54.05q-.25 7.7-4.35 10.05-3.9 2.25-7.45.9-3.15-1.2-3.9-4 .2-.95 2.05-4.25l1.85-3.1 10.8-7.75q1.2 1.95 1 8.15"/><path fill="#007bba" d="M151.85 53.2q3.6-2.25 7.15-4.55.6 2.35.45 5.65-.2 5-2.7 6.55-2.1 1.25-4.45.5-2.25-.7-3.3-2.6.1-1.1 1.5-3.45z"/><path fill="#b6ae9c" d="m79.3 158.2-8.95-4 10.6-25.3 19.75 11.2q3.5 6.45 2.25 13.45-1.25 6.75-6.65 11.95z"/><path fill="#958e80" d="m79.3 158.2-8.95-4 10.6-25.3 19.75 11.2q1.2 2.15 1.85 4.6l-6.15 1.2-3.9.55 7.35 6.35-2.3.05-4.55.8 4.3 2.7 4.15 2.35q-.8 2-2.1 3.6l-3.05 3.2z"/><path fill="#e73820" d="m183.45 98.25 4.75-11.3 5.7-.8 9.4-1.05q3.05-.25 6 3.45 1.45 1.8 2.3 3.7l30.6 18.15 16.6-14.35 14.75 25.65q-11.7 9.85-19.25 14.75-4.4 2.85-24.9-5.95l-15.2-6.6q-7.75-3.2-10.5-3.3-1.45 2.8-2.55 5.85l-.85 2.45-8.3-5.95q-8.9-6.8-11.75-11.05-1.3-1.95 3.2-13.65"/><path fill="#b6ae9c" d="M255.9 135.35q-7.7-4-10.2-8.7-3.15-5.9-1.9-17.75l15-12.85 14.75 25.65q-10.15 8.55-17.65 13.65"/><path fill="#958e80" d="M273.55 121.7q-10.15 8.55-17.65 13.65-4-2.05-6.35-4.05 5.65-7.55 7.1-15l-6.6-.9-6.6-1.7q.1-2.45.35-4.8l15-12.85z"/><path fill="#c82e19" d="m183.45 98.25 4.75-11.3 2.4-.3Q188 90.6 186 98.7q-2 8.05-.8 9.65 1.85 2.5 6.3 5.7 5.1 3.7 5.3 1.05.15-2.45 21.75 6.15l24.55 10q2.35.65 3-.7.8-1.45 1.3-1.45 1.85 2.3 3.9 3.65l4.65 2.6-1.65 1.1q-4.4 2.85-24.9-5.95l-15.2-6.6q-7.75-3.2-10.5-3.3-1.45 2.8-2.55 5.85l-.85 2.45-8.3-5.95q-8.9-6.8-11.75-11.05-1.3-1.95 3.2-13.65"/><path fill="#fff" d="M4.8 114.9q-.6-1.55.95-5.1 1.5-3.4 2.5-3.75.8 1.3 1.95 5.85l-2.15.8q-2.3 1-3.25 2.2M28 78.4q1.35.45 3.45 2.6 2.75 2.8 2.35 5.2l-3.2-1.25-1.7-.55zm30.05 7.2q.7 1.7.55 5-.25 3.45-1.3 4.1l-1.7-3.2q-.95-1.85-2.2-2.05.4-.9 2.55-2.45zm260.8-41q-1.55-.3-4.1.5l-2.2.8q-1.85-6-2.1-7.55.95-.4 4.35 2.05 3.5 2.5 4.05 4.2M265 28.55l.95 6.3q-3.95.8-5.6 2.3-1.25-2.55.55-5.4 1.7-2.65 4.1-3.2m-19.5 23.5 2.55.75q2.65.9 3.3 1.7-1.25.6-2.15 3.25l-1.4 4.2q-1.2-.3-1.9-4.25-.65-3.45-.4-5.65"/><path fill="#00669b" d="m149 59.05 2.85-5.85 6.45-4.4 1.05 4.05q-2.5 1.25-5.7 3.1-3.6 2.15-4.65 3.1"/><path fill="#d7a400" d="m162.5 45.9.7 2.6.35 2.6q-1.65.55-4.2 1.75l-1.05-4.3z"/><path fill="#0d131a" d="m159.6 142.15 1.35.6-2.8 7.3q-2.85 7.7-3.4 10.2-.4 2-1.3 1.8-.6-.2-2.65-2.25-1.85-1.85-4.75-7.2-2.95-5.5-2.95-7.35l.85-.9q0 1.1 4.4 8 4.35 6.85 4.55 6.3zm-55.05 113.2q.25-1.85 5.95 10.1l5.65 12.35q1 4.9.4 4.15l-5.5-11.15q-5.1-10.4-5.2-9.6l-1.15 13.1q-1.1 12.2-1.55 12.9-.4.65-5.8-10.9-5.35-11.4-5.4-10.95l-.4 9.55q-.35 8.65-.85 8.75-.4.1-7.95-16.75-7.35-16.3-7.3-15.25.05 1.15-1.85 15.25l-2.15 16.9q-.2 2.9-.85 2.45-.4-.3-1.3-2.35l-3.85-9.35L62 265.9q-.1-1.35.05-2.1.25-1.45 1.4 1.6l6.15 15.25 4.25-34.6.3-3.5q.35-.95 1.85 2.95l6.85 16.55 6.75 15.45.55-11.7q.5-8.15 1.25-6 1.25 3.6 10.75 22.1z"/><path fill="#0d131a" d="m268.15 250.4-1.15 2.5q-3.6 6.6-4.75 8.1l3.5 7.35 7.4 13.5v-1.6q0-7.65-1.5-16.95-1.15-6.85-2.35-11-.7-2.45-1.15-1.9m-15.2-21.55q6.95-2.7 8.4-5.85-9.05-.3-16.05-1.85-6.5-1.4-8.15-3.05l-.5-.75 2.5.8q7 2.05 17.35 2.85 9.95.8 12.25.05 3-.95-7.7-4.25l-19.8-5.85q-9.55-2.65-13.3-4.7-3.75-2 10.45 1.9-1.2-1.35-10.1-7.2-10.4-6.8-14.15-9.75 4.95 8.8 13.3 21.25 7.1 10.65 13.1 18.6 5.45.5 12.4-2.2m-140.4 27.6q.7 2.05 2.7 11.9l2.45 11.75q2.25-4.55 5.25-15.4 2.7-9.65 3.05-13.05.3-3-.25-3.35-.6-.35-2.75 1.9-1.95 2.05-5 4-3.4 2.15-5.45 2.25m221.15 105.4q-.65-.4 7.6-3.05l11.45-3.6-30.7-5.55q-2.4-.4-2.4-.7-.05-.3 2.35-.8l5.45-1.45 6.05-1.85-26.3-3.85.2 1.8q-.4 1.1-3.25-2.35t-25.4-44.25l-21.95-40.05q-1-2-5.85-7.95l-10.7-13.3q-16.4-21-25.9-39.15-3.2-6.15-6.7-10.05-4.25-4.85-10.3-8.15-6.25-3.45-16.25-10.75-2.6-1.95-2.5-2.5.05-.5 2.7.65l1.7-7.45q-10.55-7.05-19.5-12.7-11.1-7.05-12.95-7.65-3.35 4.05-6.15 7.95-3.35 4.6-3.5 5.7l-.05 1.15.4 8.95.3 8.2.45.05q.8-.45 1.25-.55.85-.15.1.6l-3.5 2.6q-3.5 2.25-13.35 10.1-12 9.5-26 21.5l-21.85 18.35Q67.2 231.3 65.6 232.9q-1.7 1.75-2.4 10-.55 6.65-.55 19.55l.2 33.9-.25 24.7q-.25 14.15-.7 18.9l-.3 4.1q-.2 1.6-.75 2.6-.95 1.55-.8-3.55-3.15 4.05-22.2 19.75l15.8-4.95 2.25-.75q.4.05-1.55 2.05l-3.15 3-2.85 2.35 6.95-2.35 7.65-2.5q4.7-4.75 4.55-3.65-.15.85-2.05 3.4l-9.65 14L74.05 364q14.85-7.6 14.8-6.75l-2.45 10.1q7.8-8.2 10.15-10.1 2.05-1.7 2.55-.9l3.65 2.9q3.7 2.95 4.2 3.5.45.5.55-4.25.15-5.1.6-5.4.6-.35 11.25 2.75l13.3 3.9-6-6.95q-4.3-5.05-3.75-5.2.55-.2 7.9 1.8l10.85 3-4.8-3.9q-2.7-2.2-4.15-3-1.65-.9-1.25-1.25l1.85-.05 6.7 1.3 9.1 1.9-5.5-3.9q-3.55-2.55-6.65-4.3-3.65-2.05-1.7-1.8 1.8.3 5.3 1.9l19.55.7-28.3-10.35-.35 1.75q-.75.9-2.45-3.25-2.3-5.55-5.85-17.45-4.3-14.6-6.75-27.2l-2.95-14.6q-2.4-11.8-4.9-17.85-2.35-4.9.55-2.55l17.5-15.35L146 216.3l.85-6.25.8-5.3-8.2 7.75-1.55 1.3q-.25-.15.3-1.95 1.25-4.45 4.05-9.4l4.55-7.4q-7.55 4.1-13.35 8.7-2.65 2.05-2.8 1.45-.1-.3.95-2.8 1.7-3.95 6-9.35 6.3-7.85 13.25-11.05 2.1-.95 1.8-.5-.25.4-2.15 1.5-8.7 5.25-15.3 17.1 10.35-6.3 13.5-7.7 1.2-.6 1.1-.3l-.95 1.35q-.8 1.15-3.6 6.45-3.1 5.9-4.55 9.3l4.35-4.2 3.15-2.75q1.75-1.4 1.75-1.05l-.65 2.4q-.5 1.95-1.2 7.3-.75 5.5-1 9.4-.1 1 .25.8l1.6-1.85q3.35-4.65 5.7-9.05 1-1.95 1.2-1.1L157 217q.9 6.55 1.15 6.55.65.05 2.6-6.3 2.25-7.25 2.9-8.4.95-1.7.7.85l-.45 2.95 21.5 23.4q20.55 22.8 21.95 26.25Q244.3 360 244.9 362.65q.4 1.7-1.4.1l-1.85-1.9-13.1 11.4 7.05-1.2q4.55-.8 4 .05L229 383.25l-12.55 14.2 14.75-6.8q11.1-5.05 10.85-4.25l-4.15 8.6 8.3-6.3q5.75-4.35 5.8-3.85l-.9 18.15 8.05-10.4q6.25-8.05 6.45-7.55l4.85 8.2 2.5-3.9q2.15-3.35 3.15-4.5-.8-2.6-.65-2.95.25-.4 1.9 2l7.5 9.7 8 10-2.2-10.6q-1.55-7.45-1.25-7.7t10.75 7.4l12.75 9.45-4.25-13.2q-3.35-10.55-3.2-10.85.25-.45 28.2 11.05l-15.6-18.2q-2.85-3.15-1.5-2.5 1.3.6 2.95 2.3l17.55.55 16.55.8zm2.9-18.45q4.7.85 4.6 1.3-.05.3-3.35 1.25l-5.7 1.25-6.6 1.5 17.6 2.9q14.05 2.35 15.55 3.15t-8.6 3.8q-11.15 3.1-12.55 3.6l10.15 5q8.35 4.2 9.6 5.15 1 .75 3.15 1.85.8.7-3.2.55l-19.15-1.15-16.65-1 7 7.85q6.1 6.85 8.35 10.05 2.55 3.65 2.35 3.75l-3.6-1.45q-2.3-.9-14.45-6.3l-13.25-5.8 5 14.15q4.15 12 2.8 11.2-3.05-1.85-24.05-17.3l1.8 8.15q1.4 6.55 1.5 9.5l-.15 3.4-2.15-2.3q-1.55-1.6-8.1-11l-7.1-10.05-3.15 6.15q-2.55 5.15-3.15 5.05-.6-.05-2.9-4.4l-2.8-5.5-8 11q-7.25 9.7-8.05 8.9-.75-.85-.05-9.35l1-10.35-9.25 7.45q-7.6 5.9-7.15 4.4.5-1.5 2.35-5.2l2.65-5.15-24.45 11q-3.5 1.55-3.9 1.4-.6-.2 1.75-3.45 2.05-2.85 12.2-13.5L235.9 373l-6.7.8q-5 .45-6.4.15t7.75-7.25l10-7.45-35.6-96.65q-1.8-4.7-41.55-47.2l-2.8 7.3q-2.4 6-3.1 6.35-.7.4-1.7-6.15l-1.25-8.7-4.9 7.25q-3.75 5.25-4.05 4.15-.6-1.95-.3-6.3-35.25 30.95-35.1 31.15.75 1.25 1.9 4.25 1.35-.05 4-1.6 2.7-1.55 4.8-3.45 4.65-4.25 6.15-4.4 1.55-.15 1.2 3.85-.85 9.15-4.25 19.85-3 9.4-5.65 13.55 2.1 11.05 7.4 27.5l5.6 16.6 14.4 5.6q14.6 5.75 18.7 7.65 3.65 1.65 3.1 2.05l-3.5.15-21.9-1.15 5.6 3.35q3.75 2.15 5.15 3.3 1.9 1.55 1.9 2.15l-2.3-.05-7.65-1.7-8.65-1.65 5.05 3.65q3.05 2.2 4.25 3.5 1.6 1.8 1.5 2.15-.1.45-2.45-.35l-8.75-2.6-8.9-2.45 5.5 6.3q4 4.65 4.3 5.9.3 1.3-12.85-2.75l-14.45-4.6q-.1.7.1 3.9l.15 5.4q-.1 2.3-.55 2.4-.2.05-1.45-.95l-4.4-3.65-4.55-4q-.8.2-4.7 4.55l-7.35 7.7q-3.25 3.05-3.65 2.35-.25-.4.7-2.85 1.3-3.15 2.9-9.85-1.3.65-18.7 9.8-16.7 8.55-16.6 7.5.1-1 4.6-7.2l5.9-8.05-8.3 2.8q-6.1 2.1-8.55 3.15l-2.3.1q.2-.85 2.15-2.45l2.9-2.5 3.05-2.8q-11.15 3.5-16 5.35-2.45.95-2.25-.2.15-.9 1.5-2.1l11.35-9.75q11-9.55 13.55-12.8.75-9.3 1.15-41.3l.2-33.8q0-15.65.4-21.9.6-10 2.5-11.95 4.5-4.55 34.05-29l21.95-18.15q1.95-1.5 10.95-7.85l9.95-7.15v-.65l-.35-8.2-.35-8.95.05-1.4q.3-2.35 10.25-14.75l.1-.1q.7-.5 5.15 1.95 8 4.5 29.3 18.75l1.3 3.65-.4 1.9-.65 4.4q4.1 3.8 15.95 10.65 4.35 2.5 7.1 4.85 3.55 2.95 5.45 6.25l14.5 9.8 15.25 10.8q17.55 4.6 24.9 8.05 4.9 2.3 4.55 3.65-.35 1.5-2.75 2.2l-6.4.7q-7.65 10.3-20.5 9.95l4.35 5.55 8.4 9.8q4.4 5.5 5.9 9.6l4.85-8.8q1.8-3.5 2.8-3.35 1.7.2 4.25 12.85 2.75 13.7 3.15 26.95 4.2 9.45 29.6 51.9z"/><path fill="#0d131a" d="M254.4 283.25q-.55-2.75 0-2.8.4-.05 2.35 2l14.4 15.7-3.3-24.45 2.7 4.85q3.6 24.7 2.7 24.1l-7.65-8.2-9.2-10.15 4.75 21.25q.8 3.85.05 3.3l-2.8-3.3q-2.25-2.65-15.55-19.5l-13-16.85q.75 2.45 2.9 24.65 2.4 24.65 1.1 23.7-1.2-.85-7-7.45l-5.55-6.45-1.05-4.15q11.75 14.25 11.6 13.6l-2.1-20.1-2.65-26.45q-.35-3.45.6-3.5.9-.1 3.35 3.05l14.85 19.85 12.7 16.95zM138.35 84.8q-.15-.5-.05-1.3.1-1 .6-1.55.55-.6.7-.2.2.35-.15 1l-.6 1.9-.3.55z"/><path fill="#0d131a" d="M160.5 75.7q-2.6 5.8-3.2 6.25-.35.25-2.45-2.75l-2.4-3.5q-2.9 1.65-4.1 2.4-1.9 1.2-2.45 2.35 1.45.8 3.7 3.65 2.35 3.05 2.6 4.7l.05.4-.2.75.3.45q.6.45 2.9.6l3.75-.5q4.75-2.35 6.45-14.95zm-40.65-9.6-2.4 2.35Q115 70.5 115.4 70.6l5.65 3.2 5.05 3.15-2.45 4.2 2.75-1 1.85 1.05-1.75-8.35q-1-4.85-1.35-5.35l-5.4-4.7-7.5-6.45-1.4.4 4.5 4.7zm61.3-63.65q-1.2-.2-2.6 1.5L139.9 52.8l-5 6.4-3.35 4.4q-.55.45-.5-.6l.2-1.15-22.05-16.6L86.5 28.2q-.95-.65-1.4.5-.4 1.15.3 1.9l19.5 17.3 20.15 17.65 1.55 1.55.85 3.05q2.55 12.1 3.5 14.9.95 2.7 2.6 2.9 4 .5 8.65.2l4.1-.6-.75-.9-.95-1.05q-.6-3.1.1-6.1.25-1 2.75-2.6 2.05-1.35 3.75-2.05 1.45-.6 1.95-.5.45.05.9.9 1.55 2.85 3.05 4.8l2.75-5.45 4.45-.3 13.75.2-6-4.45q-3.8-2.85-3.5-3.1l8.8-7.1q8.4-6.85 7.95-7L172.85 52q4.05-14.45 3.25-14.35-.8.05-11.6 7.5-11.3 7.75-13.55 10.3l-1.6 1.55q-1.2.9.65-2.3t16.65-26.9l14.95-24q.7-1.15-.45-1.35m2.1-2.2q1 .6.75 1.85l-.9 2.15L170.5 25l-15.35 25.25 12.2-8.95q5.9-4.15 8.95-6l2.8-1.65q.65-.05-.4 2.4-.35.95-2.15 7.65l-1.8 6.9 7.15.5 7.25.5-8.95 7.6-9.25 7.7q-.3.35 4.15 3.55l5.35 3.95q1.1 1.05 1 1.3l-2.95.35-11-.3q-.75 5.45-3.1 10.15-2.2 4.4-4.45 5.5-1.35.7-4.75.5-3.55-.15-4.5-1.15-.3-.35-.25-.85 0-.45.3-.7.75-.5-1.45-3.65-2.1-3.05-3.55-4-.25 2.4.45 4.2l1.05 1.25q.7.6.3 1-1.1 1.25-5.05 1.75-4.25.5-10.25-.1-1.7-.2-2.7-3.05l-.9-3.7q-2-.75-2.45-1.05l-2.45.55-1.75-.05q-.35-.3.05-1.35l.8-2.05.8-1.75-10.45-5.5q-.85-.5-.7-1l.85-1.15 3.85-3.9-5.95-5.6q-4.65-4.5-4.15-4.7l1.8-.2 2.05-.1-.1-.05Q85.1 33.15 84.1 31.35q-1.1-1.9-1.1-2.3 0-2 .9-2.9 1.05-.9 3.45.8Q92 30.1 132.1 60.55l24.85-31.6L178 2.3q1.3-1.45 2.9-2z"/><path fill="#0d131a" d="M160.4 81.8q-2.7 6.5-7.3 8.35l-1.85.25q-.1-.4 1.7-1.25 5.6-2.55 8.15-14.5l1-.1q.3 2.3-1.7 7.25"/><path fill="#0d131a" d="M157.65 85.5q-6.25 1.3-9.6-7.8l.3-.65q.35-.45.8.4 2.15 4.05 3.4 5.25 2.2 2.05 5.45 1.4zm4.95-28.35q.9-4.6-.45-10.3l-9.4 6.8-2.55 3.9q-1.6 2.4-1.8 3.1.9 2.65 4.1 3.7 3.3 1.05 6.05-.6 3.1-1.85 4.05-6.6m.7-12q1.5 3.9 1.1 9.35-.55 7.35-5.2 10.15-3.55 2.15-7.15.85-3.1-1.1-4.45-3.75-.65.7-.9.5-.3-.2.1-1.35.5-1.35 1.7-3.65 1.35-2.55 2.25-3.7.8-1.05 1.25-1.05.25-.05.3.15z"/><path fill="#0d131a" d="m151.95 60.9 3.8-.1q2-1 2.65-4.2.7-3.25-.4-7.1l-6.15 4.2q-2.45 3.45-2.7 4.7 1.15 1.8 2.8 2.5m7.85-4.85q-.5 4-3.3 5.65l-4.5.2q-2.55-.9-3.45-2.9l2.8-5.15 7.6-5.45q1.25 4.2.85 7.65M88.95 164l-1.9-3.2q17.7 7.6 19.3 7.4 1.75-.55 10.4-10.45l2.15.35-5.5 6.4q-4.7 5.15-6.15 5.65-1.65.55-18.3-6.15m48.75-61.95q-3.7 1.2-4.8 2.75-.75 1.05-2.5 6.35l-1.7 4.85q-.85 1.95-1.6 2.55l-9.15 8.75q-8.85 8.45-12.75 11.25l-1.55-.8q20.8-19.05 22.5-20.4.55-.4 1.3-2.65l1.3-4.2 1.2-4.3q.7-2.4 1.25-3.2 1.9-2.7 9.15-4l6.85-.7-1.65 2.35q-4.2.2-7.85 1.4"/><path fill="#0d131a" d="M98.85 139.2q-1-1.65 0-1.15l1.15.8q4.8 6.05 4.45 13-.35 7.9-7.55 14.25l-1-1.15q6.45-5.65 6.5-13.6.05-6.25-3.55-12.15m-8.95-4.5q-.95-2.1-.2-1.65.8.4 1.35 1.55 3.3 6.5 2.25 14.65-1.1 8.35-5.85 10.8-2.35 1.25-3.25 1-.85-.3 2.3-2.15 4.75-2.75 4.95-12.5.2-7.95-1.55-11.7M202.05 86l-13.35 1.65q-3.3 7.3-5.55 13.65-2.45 6.8-2.45 9.25l.2.95q3.9 5.85 18.95 16.2 1.6-4.4 2.85-7-2.05-1.1-3.15-1.4-1-.25-.85-.7l1.8-.1q5.15.9 11.05 3.25l11.4 4.9q13.35 5.85 18.3 7.6 9.8 3.4 12.6 1.55 6.3-4.05 18.7-14.25L258.6 97.2l-16.3 14.1-27.65-16.2q.65 2.55-4.55-4.55-1.95-2.7-3.2-3.55-1.9-1.25-4.85-1m-14.75-.45q1.35-2.25 2.45-3.05l.85.05-1.1 3.6 5.45-.95 9-1.25q3.85 0 6.65 3.65l3.1 4.5 14.5 8.8 14.05 8.35 16.65-15.1 16.7 27.75-.5.4q-.5.05-7.75 6.15-8.4 7.05-12.5 9.7-3.25 2.1-13.15-1.5l-19.5-8.45-10.6-4.5q-5.2-2.05-7.5-2.3-1.3 2.65-2.1 5l-.55 1.85 1.05 1.2 1.6 2.25q.5.85-1.15-.2l-3.1-1.95q-3.2-1.75-9.3-6.3-8.5-6.35-11.4-10.7-1.45-2.2 2.1-12.8 3.2-9.5 6.05-14.2"/><path fill="#0d131a" d="m243 110.9.9-1.25q.85-.8.5 1.75-.5 4.25-.25 7.25.5 4.8 2.9 8.95 1.55 2.7 4.35 4.5 2.7 1.75 5.8 2.25l-1.6 1.25q-6.25-1.05-9.9-7.25-2.45-4.3-3.05-10.25-.5-4.95.35-7.2m13.75-14.1q1-1.25.45 1.15-.8 3.2-.35 10 .55 8.2 3 12.1 1.35 2.15 3.9 3.6 2.35 1.35 4.75 1.6l-1.85 1.4q-5.25-.5-8.5-5.65-2.65-4.2-3.3-11.25-.5-5.7.3-9.15.6-2.55 1.6-3.8M8.35 108.4l-.3-1.55q-.2-.7-1.9 3.3-.9 2.05-1 3.7 1.7-1.4 4.4-2.3zm-1.1-2.65 1.4.05 2 6q.45.3-.35.6-1.3.45-2.3.9-1.9.85-2.8 1.9-.4 1.4-.85-.1-.5-1.55-.05-3.9.65-3.05 2.95-5.45M33.3 85.4q.95.55-.95-2.65-1.85-3-3.7-3.4l.7 4.65zm-1.7-5.3q2.75 2.6 2.7 6.15 0 1.5-.7.4l-3.15-1.2-1.7-.6-.3-.05-.95-6.35.65-.5q1.75.55 3.45 2.15m26.3 12.3.35-2.7q0-1.3-.5-3.3-2.7 1.65-3.55 2.85 1.4.55 2.35 2.7l.8 1.9zm-.1-7.25.7.25q.95 2.15.95 4.6.05 3.3-1.9 5.15-.65.65-.95.2l-.75-2.3q-.2-.85-.95-1.85-.85-1.15-1.55-1.25l-.4-.65q.4-1 2.5-2.6zM311.1 38.9l.85 2.3q.65 1.9.9 4 3-1.2 5.1-1.2-1-1.5-4.1-3.75-3.05-2.2-2.75-1.35m-1.15-.5q-.85-1.95 2.2-.4 6.45 3.2 7.2 6.4l-.6.7q-1.45-.3-3.85.45l-2.15.8-.95.65q-1.15-7.1-1.85-8.6m-49.9-6.2q.8-1.55 2.15-2.7 1.3-1.15 2.7-1.4l.5-.15 1.1 7.3-.45.1q-4.4 1.45-5.35 2.15-.65.45-.8.3l-.25-.9q-.65-2.4.4-4.7m.95.95q-1.25 3.95.1 2.95 1-.8 4.25-1.65l-.75-5.2q-2.45.25-3.6 3.9M246 52.7l-.05.5q0 2 .5 4.45.45 2.45 1.1 3.5.3.5.55-1.6 1.1-3.85 2.45-5.05-1.3-.95-4.55-1.8m2.45-.35q2.55.95 3.3 1.85.7.35-.2.75-.65.3-1.45 1.95-.85 1.6-1.05 2.9-.45 3.35-1.2 3.35-.5 0-1.5-1.95-1.9-3.7-1.35-9.25l.65-.4zm-93.55 3.8.05 1.75q-.15.75-.7.9-.55.1-1.05-.45-.6-.6-.8-1.55-.25-.95-.05-1.7.2-.8.75-.9.5-.15 1.05.45z"/><path fill="#b6ae9c" d="m10.55 72.1 5.8 1.15 3.55.2q4.9-1 6.7 2.35 4.05 7.4.65 9.65-2.55 1.7-4.85 2.45l-3.8-.1q-1.45 4.85 6 8 3.5 1.5 5.85.8t2.85-3.45q.3-1.55-.7-6.45-.9-4.25 0-5.9 1.3-2.3 3.55-4.05 2.35-1.8 4.8-2.3 6.45-1.35 8.7-1.35 1.1 0 2.35 1.05 1.4 1.2 2.3 3.3.45.95 2.8 3.9 1.6 2.1 1.25 3.45-.75 2.6-3.25 4.5-3.15 2.45-6.45.5l-2.35.7 1.1 3.7q1 4.1.6 5.95-.3 1.3 2.75 5.9 3.25 4.9 3.25 8.15h.6l-.6 6.05q-.6 3.95-2.1 6.65-4.35 7.6-18.1 8.55l-.2-.9q-2.05-2.05-11.85-5.3-9.2-3.05-11.85-3.05-2.3 0-4.8-3.85-2.55-3.95-1.55-6.15 1.1-2.4 4.05-4.35 3.15-2.05 5.3-1.35.65-2.75-3.45-8.6-3.35-4.7-5.25-6.1-1.8-1.35-2.75-4.45-1.35-4.2 1.45-7.2 1.75-1.9 3.7-8.15 1.4-4.45 3.95-3.9"/><path fill="#958e80" d="M15.05 86.75q2.6.15 4.05-2.5 1.2-2.2 1.75-1.75 1.35 1.15 3.95-.6 2.75-1.85 2.45-4.95 3.15 6.4 0 8.5-2.55 1.7-4.85 2.45l-3.8-.1q-1.45 4.85 6 8 4.45 1.95 6.9.3-.15.95-1 1.4l-7.45.35q-3.5-.45-7.45-5.85t-.55-5.25m42-5.4q1.65 2.1 1.3 3.45-.75 2.6-3.25 4.5-3.15 2.45-6.45.5l-2.35.7 1.1 3.7q1 4.1.6 5.95-.3 1.3 2.75 5.9 3.25 4.9 3.25 8.15h.6l-.7 6.6q-.7 4.3-2.65 7.1 1.15-11.95-2.5-19.3-1.1-2.2-2.75-4.2l-1.55-2.05q-.75-2.45-.8-9.85t.8-6.8q2.35 1.75 4.65.75t2.9-.55q1.15.8 3.05-1.55z"/><path fill="#ef821e" d="M47.85 131.15q4.95-4.85 6.75-16.95l44.15 2.65-10 3 12.55 3.1-.05.9-14.2 1.7 9.7 4-2.85.95q-2.75 1-2.15 1.4l12.05 6.1 11.3 5.6-31.4-1 7.05 7-14.7-1.65L95.1 171l-22.75-10.05L77.7 169 64 161.3l8.05 23.4-16.75-19.4-.65 7.35-6.7-13.2q-6.8-13.1-7-12.5l-1.65 9.65q-4.45-15.45-5.7-21.75 9.3 1.15 14.25-3.7"/><path fill="#ef821e" d="M75.15 133.65q-15.25-6.1-22.45-10.15 1.8-4.35 1.9-9.3l44.15 2.65-10 3 11.75 2.9.1 1.15-13.55 1.65 9.7 4-2.85.95q-2.75 1-2.15 1.4l12.05 6.1 11.3 5.6-31.4-1 5.45 5.4-14.2-6.3 14-2.8z"/><path fill="#fccf00" d="m48.6 143.55 1.25 4.05q1.25 4.45 1.25 6.3-1.35-2.35-6.3-9.55-4.25-6.25-5.85-9.6 9-2 12.95-9.5 2.5-4.8 2.7-11.05l16.55.9-3.4 1.3-2 .9 10.75 1.3-13.5 1.9 19.6 8.05-12.75.55 16.45 9.05-30.65-1.65 12.1 20.9z"/><path fill="#fccf00" d="M52.35 124.3q2.15-4.7 2.25-10.1l16.55.9-3.4 1.3-2 .9 10.75 1.3-13.5 1.9 19.6 8.05-12.75.55 15.05 8.2q-16.1-4.4-32.55-13"/><path fill="#b6ae9c" d="m16.9 75.45-6.35-3.35q1-.25 3.45 1.05 2.4 1.3 2.9 2.3"/><path fill="#ef821e" d="M269 77.6q5 9.3 10.1 11.9 8.85 4.5 24-3.15 3.4 3.05 10.6 13.25l6.5 9.6-11.35-4.7 6.7 18.05-9.05-5.35q-.6-.2.15 6.2l.9 6.5-8.7-8 3.35 38.05-14.7-33.75-9.35 23.4-2-28.75-10.05 10.7 2-13.35-26.05 22.05 11.7-30.75-22.7 6.7 21.7-17.7-20.05 3.65 22.7-15.35-12.35-.35 9.85-3.8q10.85-4 16.1-5.05"/><path fill="#ef821e" d="M293.9 90.05q1.7-.5 4.05-1.7l4.65-2.45q3.35 3.1 10.8 13.5l6.8 9.8-11.35-4.7 6.7 18.05-9.05-5.35q-.6-.2.15 6.2l.9 6.5-8.7-8 3.35 38.05-14.7-33.75-9.35 23.4 9.55-33.05 5.3 10.85q0-24.9.9-37.35"/><path fill="#fccf00" d="m265.75 86-6.95-1.4 4.4-1.3q4.95-1.4 7.95-1.85 4.1 6.6 9.3 8.65 7.35 2.85 18.6-1.9 2.45 5.95 7.05 15.15l-7.45-4.55 1.65 20.55-10.2-13.3-7.6 18.85-1.9-19.1-8.4 11.5-1.65-7.9-14.5 15.4 8.9-31.2-13.75 2.5z"/><path fill="#fccf00" d="m294.85 89.75 4.2-1.55q2.45 5.95 7.05 15.15l-7.45-4.55 1.65 20.55-7.45-9.75q.55-14.75 2-19.85"/><path fill="#b6ae9c" d="M287.7 49.25q.15-2.75-1.55-6.2-1.55-3.1-3.95-5.9-2.45-2.9-3.05-2.1-1.45 1.9-3.9 2.65l-2.15.35 4.05 7.45q4.65 7.45 7.35 7.25 2.95-.25 3.2-3.5m38.8 3.85-1.25 4.95q0 3.45-10.4 10.05-2.75 1.75-7.15 8.1-4.45 6.35-5.2 9.6l-.7.5q-.85.4-.75.5-11.65 5.45-18.5 3.9-7.85-1.75-13.55-13.1l.8-.15q-1.15-3.25-.6-7.7.45-3.8 1.9-7-.2-1.75-2.4-4.4l-3.95-3.95-2.4-2q-.9-.45-2.95 0-3 4.2-7.85 3.5-4.45-.6-6.15-4.15-2.35-4.85-.15-8.35 1.25-1.95 4.15-4.35 1-1.15 2.45-4.1 1.6-2.6 4.25-3.6 2.9-1.1 5.45-.6 1.6.3 3.9 1.6-.6-1.45-.4-4.25.25-3.05 1.4-3.75l4.45-2.1q3.8-1.8 6.25-3.6 2.75-2.05 6.45-1.55 3.15.45 4.9 2.25l3.1 3.45q2.05 2.2 4.55 3.2 2.75 1.15 3.6 4.6.7 2.7.1 6.1-.45 2.5 2.3 9.1 2.55 6.15 4.05 7.6 1.35 1.35 2.9 1.05 1.75-.25 2.45-2.4-1.95-4.55 1.9-6.8 2.6-1.55 6.1-1.55 1.5 0 2.6 1.35 1.95 2.45 3.1 3.35 2 1.6 1.25 4.7"/><path fill="#958e80" d="M325.1 57.4q-.25 3.3-5.55 7.3-5.75 3.75-6.8 4.85-4 4.3-7.4 10.85-2.85 5.4-4.2 6.15-1.9 1.05-4.5 2l-2.25.7 2.4-3.35 4.55-6.9q5.75-9.45 10.5-13.55 1.7-1.4 6.3-3.8 2.35-1.25 3.45-4.4 1.05-2.95.4-5.3-.4-1.5.3-3.55.65-1.9.3-2.6 1.55 1.95 2.65 2.6 1.95 3.05 1.15 5.65zm-35.85-36.8 2.05 2.2 3.9 2.1q3.2 1.75 3.45 2.55l.95 4.75q.6 3.8.6 5.3 0 2.7 2.15 8.6 2.55 7.2 5.55 8.2 1.45.45.35.6-1.15.15-2.9-.5-5.55-1.9-7.25-7.85-1.1-3.8-1.4-7.15-.3-2.8.05-4.6.5-3 .1-4.65-.75-3.25-4.35-4.25-6.4-1.75-8.5-5.95-.65-1.25-2.4-2-1.3-.55-2.25-.55l2.85-.2q3.65.05 5 1.15zM247.3 53.8q1.75-.2 5-1.65 3.7-1.7 4.6-3.25l3.1 3.2q-3.5 4-5.65 4.15-2.8.15-5.2-1.15z"/><path fill="#0d131a" d="M2.9 88q.8-1.05 2.1-1.5l2.95.15 1.6.9-1.75.1-2.6.1q-.95.2-1.9 1-.95.75-1.05.5T2.9 88m33.3-9.7 3.6-.15q2 .55 2.55 2.1 1.1 3.2-.5 1.05-1.05-1.35-2.8-1.9l-2.65-.1-1.4.05q-.3-.45 1.2-1.05m15.3 4.85q-.05-1.1.4-.45.45.7.4 2.05-.1 1.45-.9 2.95t-1.9 2.35l-.75.35-1.65.45.25-1 .3-.25 1.05-.55q.8-.3 1.8-2.6 1-2.25 1-3.3"/><path fill="#0d131a" d="M54.75 114.95q.3 9.7-5.35 15.75-5.85 6.25-14.8 4.5l1.6 6.7 2.9 11.2q.85-5.5 1.15-6.4-1.25-4.45-1-5.35.15-.55 1 1.2l1.45 3.25q.75 1.95 12.45 24.15l.25-4.95q.05-1.05.25-1.1.2-.1 1 .95l7.1 8.2 7.3 8.15q-5.95-16.3-7.15-20.25-.25-.7-.05-.85t.85.25q2.55 1.55 11.65 6.4l-4.5-6.25q-1-1.45.8-.65l20.8 9.15q-18.6-21.8-18.2-22.05l14.4 1.65-6.8-6.85 29.8.95-11.1-5.65q-7-3.6-9.25-4.5l-5.5-2.35q-2.4-1.1-1.05-.8l5.4 1.2 2.55-.6q2.25-.4 1.8-.55l-5.8-2.15q-5-1.95-4.6-2.15l6.2-.85 9.25-1-8.7-1.95q-5.35-1.2-5-1.4l8.65-2.6zM9.6 73.35q-.85.45-1.1.75-.8.9-1.5 3.15l-1.3 3.8q-.9 2.15-2.25 3.6-1.95 2.1-1.65 4.75.15 1.65 1 3.35.8 1.6 1.85 2.45 1.95 1.7 5.2 6.4 4.3 6.15 3.8 9.1-.25 1.7-1.65 3.45-1.5 1.8-1.95 3.85-.35 1.65-.7 1.5-.25-.1-.25-1.1-.05-2.3 1.55-4.55 1.6-2.3 1.6-2.8-1.6-.9-4.35 1.2-2.65 1.95-3.65 4.25l-.2.95q0 1.85 1.7 4.5 1 1.55 2.15 2.5 1.2 1 2 1 2.8 0 12.05 3.1 9.8 3.25 12.1 5.4 6.95 2 12.95-3.3 6.4-5.65 6.5-15.8-.4-3.95-3.9-9.1l-1.85-3.1q-.75-1.55-.5-2.65.35-1.55-.4-4.95l-1.25-4.3q-.65-1.45-.6-2.25 0-.85 1.25 1.2.85.65 2.5-.7l1.15.5q1 .55 1.65.55l1.6-.45q1.6-.65 3-2.4 1.1-1.4 1.45-2.6.2-.7-.35-1.65L55.9 81.1q-1.65-2-2.25-3.35-.9-1.95-2.15-3-1.05-.9-1.85-.9-1.7 0-8.55 1.35-2.25.45-4.45 2.1-2.15 1.65-3.4 3.85-.5.95-.35 2.75l.55 3.45q.9 4.1.55 5.95-.35 2.1-2.75 3.45-2.9 1.55-6.95-.25-4.45-1.9-6.2-5.1-1.5-2.8-.2-3.6 1.25-.95 1.65-1.15.65-.3.15.8l2.4.1q1.8-.5 4.2-2.15 1.65-1.1 1.35-4.05-.25-2.55-1.7-5.2-1.6-2.85-5.9-1.95l-2.2.15-4.4-.9-1.75-.2zm-.95-1.6 2.55-.3 5.35 1.1 3.2.15q5.4-1.05 7.5 2.7 2.2 3.9 2.15 6.9 0 2.95-2.05 4.3l-2.65 1.85q-2.45 1.2-5.55.45l-.05.35q0 3.45 5.8 5.85 3.7 1.65 5.95.55 1.3-.75 1.7-2.65.25-1.5-.55-5.35-.55-2.6-.6-3.85-.15-2.1.55-3.4 1.4-2.5 3.85-4.3 2.4-1.85 5-2.4 6.75-1.35 8.85-1.35 1.3 0 2.75 1.15 1.6 1.35 2.6 3.65.45.95 2.05 3l1.7 2.35q.65 1.3.3 2.5-.45 1.6-1.9 3.45-1.75 2.2-3.7 3-1.9.75-4.85-.85l-1.35.4q1.3 2.8 1.5 6.45l-.05 3.15q0 1.15 2.2 4.3l2.35 3.95q1.2 2.45 1.4 4.6l22.3.9 21.9 1.15q3.85.3 3.6.75-.2.25-3.5 1.35l-7.35 2.2q3.55.85 9.65 2.65 2.5.6 2.45 1 0 .4-2.35.8L90 125.95q6.15 1.6 9.3 2.9l2.15 1-2.15.5-3.9.7-2.5.65q3.05 1.6 22.55 11.2l3 1.75-3.2.15-15.25-.7-14.4-.7 4.9 4.25 3.95 3.55-7.05-.75-9.6-1.55L93.65 168q2.45 3.05 2 3.5-.35.4-3.4-.9l-17.8-7.9 2.85 4.3q1.4 2 .75 2.35t-3.15-1.1l-9.55-5.35 6.2 17.65q1.55 4.35 1 4.8t-3.7-3.15L55.9 167.15l-.3 6.15q-.05 2.4-.3 2.4t-1.4-2.2q-10.25-20.85-12.55-24.8l-1.3 8.05q-.4 2.15-.7 2l-.8-1.95-2.85-9.4q-2.45-8.55-3.15-12.3-2.5-2.2-9.75-4.8-7.75-2.75-13.65-3.15-2.55-.2-4.85-3.8-.75-1.15-1.25-2.9-.5-1.7-.5-3 0-.85.3-1.55 1.05-2.35 3.85-4.35 3-2.15 5.5-1.9-.05-2.65-3.7-7.7-3.05-4.25-4.75-5.5-1.7-1.3-2.75-3-1-1.7-1-3.3 0-2.25.55-3.8.55-1.4 1.75-2.75 2.85-3.1 3.25-6.8.45-3.95 3.1-5.05"/><path fill="#0d131a" d="M10.65 72.05q1.25-.35 3.75.85 2.55 1.2 2.95 2.3.4 1.05.1 1.05l-1-.6Q11.8 72.3 10.7 72.6zm9.45 10.4q0-.95.1-.85l.6 1.3q.45 1.25-.3 3.3-.8 2.1-1.9 2.1-.85 0 0-1l1.05-2.3zM321.75 54.2q-.4-.65-1.6-.95l-2.25-.35q-1.05-.2-.8-.6.2-.4 1.1-.2l2.1.15q1.35.1 2.05.85 1.4 1.5 1.15 3.6l-.3.95q-.25.05-.35-.7-.25-1.35-1.1-2.75M288.7 32.45q1.05-1.9 3.45-2.75 2.45-.85 3.85.2l1.2 1.1-1.55-.2q-3.2-.55-6.05 2.15-.75.65-1.05.5-.3-.1.15-1m-4.95-13.65q1.5-.05 1.7.45.25.45-1.6.6-1.95.1-3.55 1.1t-2.4 2.6q-1.4 3-.8-.45.25-1.6 2.05-2.85 1.95-1.4 4.6-1.45M263.6 44.05q-.35-1.7.55-4.2 1.1-3.05 3.45-3.3 2.4-.25 1.9.25-.4.4-1.55.7-1.45.4-2.5 2.8-.9 2.1-.85 3.75.05 1.3-.35 1.25-.4-.1-.65-1.25"/><path fill="#0d131a" d="M257.6 82q-5.8 1.8-10.85 3.8l7.05-.15q4.25-.05 4 .45l-11.15 7.65-10.55 7 9.8-1.85 9.6-1.7-10.6 8.6-10.5 8.6 10.3-3.15q10.25-3.3 10.3-2.9.05.45-4.9 13.25l-6.3 16.15 25.35-21.45q.4-.2-.55 5.15l-1.4 7.8 5.45-6q3.75-4.2 4.1-4.15t1.05 11.65l.85 15.5q8.6-20.75 8.8-21.9.4 1.4 13.55 31.05-3.35-35.05-3.1-35.4l3.6 3.05 4.95 4.85-2.25-15.6q-.3-1.8-.25-2.6.05-.95.65.95l1.7 5.4q.85.3 7.75 4.7l-3.6-10.2q-2.65-7.7-2.1-7.3.75.55 9.85 4.3-11.6-17.3-16-21-2.9 3.3-9.5 4.8-6.35 1.5-10.85.2-6.85-1.95-10.8-7.4l-2.55-5q-4 .65-10.9 2.85m29.35-33.2q0-2.55-1.5-5.4-1.25-2.55-3.25-5.05-1.8-2.3-2.65-2.65-2.05 2.4-4.85 2.8 6.7 13.75 9.7 13.45 1.5-.05 2.1-1.15.45-.75.45-2m38.3 5.85q.7-2.25.7-3.25 0-1.45-1.2-2.4-1.35-1.1-2.85-3l-1-1.2q-.5-.35-1.35-.35l-3.65.55q-2.7.8-3.7 2.35-.6.9-.65 1.7-.05.9.55 2.2l.8-.3 1.45.1q.35.25-.55.45-1.4.35-1.8 1.15l-.8 1.55q-.35.45-1.2.65l-2.25.05q-1.35-.2-2.1-.95-1.65-1.65-4.25-7.9-2.8-6.8-2.3-9.5.55-3.15-.1-5.75-.75-3.1-3.1-4.1-2-.8-5.15-3.9l-2.8-2.95q-1.55-1.55-4.4-1.95-3.45-.5-5.95 1.35-2.9 2.15-8.4 4.6L266.85 25q-.95.55-1.2 3-.3 2.55.5 4.05l4.2 2.15q3 1.5 3.7 2.9 2.55-.25 4.2-2.4-1.4-.85-1.6-1.85-.1-.55.7 0l2.2 1.3q1.35.5 3.7 3.3 2.35 2.75 3.55 5.25 1.2 2.35 1.65 5.1.5 3.15-.45 4.8-.3.55-1.2.7l-2.25.2q-2.95.2-7.35-6.45-2.55-3.9-4.75-8.7l-.2-.4q-.6-.85-3.95-3L265.05 33q-2.25-1.3-3.8-1.55-2.25-.4-4.9.6-1.8.7-2.95 2.05-.7.8-1.75 2.75l-1.65 2.7-1.45 1.4q-2.45 2.15-3.15 3.8-1.15 2.8.7 6.65.7 1.55 2.35 2.6t3.6 1.2q4.1.4 6.75-3.2-1.1-.95-1.95-2.55-.8-1.45-.9-2.55-.1-1.4.25-1.55.4-.15.7 1.2.35 1.55 1.7 3.05 1.55 1.75 3.7 2.55l1.1.4 1.85 1.25 3.05 3.25 2.05 2.9 1.8 3.2q.7 1.45.55 2.2-.25 1.1-1.6-1.6-3.3 7.15-.2 14.95 3.2 8.15 11.35 10.85 5.9 1.9 12.45-.45 4.9-1.75 7.35-4.4 1.3-3.75 5.55-9.65 4.2-5.9 6.85-7.6 4.65-2.9 7.35-5.45 2.65-2.5 2.65-3.95 0-1.1.8-3.4m2.2-3.25q0 1.45-.8 3.75-.35 1.05-.55 3.25l-.2 1.4-.8 1.6q-1.4 2-9.8 7.35-2.55 1.6-6.75 7.55t-5.15 9.25q3.4 3 10.2 12.3l7.9 11.35q1.5 2.4 1.1 2.45-.15 0-2.95-1.35l-9.5-4.45 3.05 7.7 3.8 9q.85 1.9.45 2.05-.2.05-1.8-.85l-4.45-2.8-4.2-2.65v.05q0 1 .75 4.85l1.05 6.4q.3 2.9 0 3-.15.05-1.95-1.75l-7.1-7.1 1.75 16.85 1.9 19.05q.3 4.15-.35 3.55l-1.55-2.95-6.95-15.75-7.05-16.3q-6.6 16.65-8.25 21.95-1.35 4.25-1.75 4-.3-.2-.45-4.2l-1.55-27.3-5.95 6.95q-4.55 5.25-4.55 4.25 0-.95.9-6.4l1.15-7.35-14.25 12.55q-12.3 10.7-12.5 10.05-.2-.6 5.6-15.4l6.6-16.65-21.25 6.6-2.6.15q.2-.55 1.9-1.8L250 99.75l-17.35 3.85-2.6.2q.05-.2 2.25-2.25 1.5-1.45 10.1-7.1l10.65-6.95q-5.15.05-10-.25l-3.65-.55q-.2-.25 1.65-.9 1.15-.4 11.25-4.05 10.55-3.6 15.8-4.65-1.1-3.95-.35-7.9.65-3.45 2.6-6.5l-1.8-3q-1.15-1.6-2.3-2.65l-1.75-1.9-1.45-1.15-3.25-.9q-3.2 4.15-7.4 3.75-2.35-.2-4.55-1.55-2.25-1.4-3.15-3.25-2.15-4.5-1.15-7.15.5-1.35 3.3-4l2.25-2.1.95-1.55.85-1.8 1.4-2.5q1.4-1.9 3.45-2.7 2.55-1 5-.6 1.6.3 3.65 1.3-.15-.8-.15-1.75 0-4.4 1.8-5.5l2.5-1.2q5.6-2.55 8.1-4.45 3.35-2.5 7.6-1.7 4.2.8 6.85 4.5.85 1.1 2.5 2.4 1.95 1.6 3.9 2.4 5.2 2.15 3.6 11.1-.4 2.3 2 8.75 2.3 6.05 3.65 7.35 1.1 1.2 2.35.85 1.05-.2 1.6-1.7-.55-1.5-.55-2.7 0-1.55.8-2.8 2.3-3.45 8.1-3.65 2.3-.05 4.05 2.2l.8 1.15 1.35 1.35q2.2 1.7 2.2 3.85"/></svg>