<svg xmlns="http://www.w3.org/2000/svg" width="203" height="217" viewBox="0 -0.25 203.25 217.1"><path fill="#0d131a" d="M124.05.55q.2.55-.65 2.9-1.5 4-3.6 21.2-2.1 17.15-2.1 25.2 0 7.2-.75 9.2l-1.2 3.45q-6.85 19.75-12.25 29.75-7.6 14.05-14.05 12.85-3.25-.65-7-3.7-3.75-3.1-6.75-7.65-4.45-6.7-6.55-15-3.1-12.05-.25-24.8 6.6-29.4 27.3-43.7Q107.25 2.6 121.35.15q2.35-.4 2.7.4"/><path fill="#1a657e" d="M116.35 47.45v3.6q0 6.5-.45 7.6l-1.25 3.5Q99.7 105.85 89.7 104q-3.1-.6-6.65-3.55t-6.45-7.3Q69.3 82 69.3 67.7q0-6 1.45-12.55 6.3-28.1 25.75-42.4Q108 4.3 121.15 2.25q-3 11.8-4.1 25.3-.7 8.5-.7 19.9"/><path fill="#074f64" d="M114.45 27.45Q115.4 12 117.4 5.4q.5-1.65 1.15-2.65l2.6-.5q-3 11.8-4.1 25.3-.7 8.5-.7 19.9v3.6q0 6.5-.45 7.6l-.65 1.85q-1.85-14.9-.8-33.05"/><path fill="#0d131a" d="m92.95 14.45 1.8-1.4q0 10.45 2.45 25.85 3.45 22 9.75 31.75l-.65.4q-6.4-9.9-10.35-31.3-3-16-3-25.3m-8.05 41.4q8.45 17.3 14.35 22.35l-.5.55q-6.05-5.2-14.7-21.45-7.2-13.55-8.7-18.8l1.1-2.4q1.7 6 8.45 19.75m9.05 27.5-.35.65q-5.25-2.7-14.1-9.9-8.8-7.15-10.85-10.45L69 61.6q2.05 3.2 10.65 10.9 9.2 8.25 14.3 10.85M6.7 128.7q.8-9.05 3.1-13.35 2.8-5.2 8.65-5.55 6.2-.35 19.5 10.65 12.7 10.5 20.7 21.75 5.6 7.95 1.95 16.15-2.55 5.7-10.85 13.3-5.55 5.05-9.1 7.05-3.9 2.2-7.35 2-6.1-.3-12.25-7.1-7.65-8.45-11.7-22.85-3.55-12.6-2.65-22.05"/><path fill="#1a657e" d="M37.05 121.65q12.25 10 20.4 21.45 5.3 7.5 2.15 14.65-2.15 5-10.2 12.3-5.2 4.7-9.05 6.75-3.8 2.05-7.15 1.9-5.2-.2-11.1-6.7-7.4-8.2-11.05-22.15Q7.95 138 8.8 128.5q.75-8.55 2.7-12.05 2.3-4.15 7.65-4.45 5.6-.35 17.9 9.65"/><path fill="#074f64" d="M12.2 153.9q4.05 6.6 9.35 11.45 6.5 6 11.75 6 5.05 0 11.6-2.75 6.4-2.7 12.75-7.4-2.35 3.45-8.25 8.85-5.2 4.7-9.05 6.75-3.8 2.05-7.15 1.9-5.2-.2-11.1-6.7-6.15-6.75-9.9-18.1"/><path fill="#0d131a" d="M8.45 129.6q6.75-1.45 18.3 3.45 10.9 4.65 30.75 17.1l-.7.95q-23-14.4-36.2-18.4-4.4-1.3-8-1.5l-4.3-.1zm6.45 32.3q2.85 1.45 14.35.6 15-1.1 27.25-6.9l.15 1.1q-15.05 6.7-28.8 7.6-9.3.6-12.6-1zm121.25-23.75q9.6-7.15 12.95-5.85 5.2 2 4.3 11.65-.8 8.55-5.85 19.85-4.9 11-10.9 18.2-6.55 7.85-11 6.85-3.95-.95-7.6-10.85-2.75-7.45-2.75-12.2-.05-6.9 4.75-12.55 7.1-8.4 16.1-15.1"/><path fill="#1a657e" d="M148.3 134.15q2.7 1.05 2.95 4.8.25 3.15-1.25 10.35-1.7 8.1-6.05 17.4-5.15 11.05-11 16.7-4.55 4.35-7.35 3.75-3.25-.8-6.5-9.5-2.7-7.35-2.7-11.85-.05-6.45 4.5-11.85 6.8-8 15.7-14.45t11.7-5.35"/><path fill="#074f64" d="m134.6 181.6-1.65 1.8q-4.55 4.35-7.35 3.75-2.7-.65-5.35-6.7 9.15 3.65 14.35 1.15"/><path fill="#0d131a" d="m119.3 160.7-.35-.65q11.55-6.2 21.65-9.5 8.7-2.85 10.25-1.9l-.55 1.55q-1.2-.75-9.4 1.75-10.05 3-21.6 8.75m-1.05 3.4.45-.6q6.65 5.15 13.8 9 6.3 3.35 7.25 3l-.8 1.25q-1.5.6-8.4-3.55-7.1-4.3-12.3-9.1m50.6-90.6q.6-.3 2.2 0 2.4.45 5.6 1.6 3.65 1.25 5.1 2.3.75-1.4 2.6-1.5 1.85-.05 4.25 1.2 2.25 1.2 4.55 3.1 2.5 2 3.65 3.7 1 1.5 1.15 2.5.15 1.4-.85 3.25l3.6 2.9q2.55 2.4 2.55 4.1l-.1 1.15q-.8 2.9-3.15 6.75-2.05 3.25-3.65 4.9-11.65 11.85-22.6 17.65-20.25 10.65-45.3 7.85-8.9-1-13.75-3.1-4.6-2.05-4.8-4.75-.15-2.6 4-5.1 3.7-2.3 9.1-3.55 19.1-4.5 32.05-19.45 10.05-11.55 12.7-23.6.35-1.55 1.1-1.9"/><path fill="#60c0bd" d="M169.25 76.7q.3-1.45 1.4-1.6.7-.1 4 1 3.7 1.25 6.6 2.8-.45 1-1 3.15l-.6 2.7q-.15.85.15.95t.85-.95L182.2 81q1.2-2.95 1.7-3.2 1.2-.7 3.7.65 2.9 1.55 5.6 3.85 2.85 2.45 3.05 3.75.25 1.4-2.2 5.7-2.5 4.35-4.65 6.35-.85.8-.6 1 .2.25 1.15-.55L194 94.5q1.65-2.1 2.55-3.9 2.2 1.8 3.6 3.5 1.7 2.05 1.4 3.15-.75 2.7-3.65 6.85-2.25 3.3-4 5.1-10.1 10.35-23.15 16.8-20.15 10-42.05 7.45-10.25-1.2-14.7-3.4-2.9-1.45-2.95-3.05v-.1q0-1.9 3.5-4.05 3.55-2.1 8.7-3.3 19.5-4.55 32.7-18.95 10.55-11.5 13.3-23.9"/><path fill="#52a7a5" d="M201.3 95.9q.4.8.25 1.35-.75 2.7-3.65 6.85-2.25 3.3-4 5.1-10.1 10.35-23.15 16.8-20.15 10-42.05 7.45-10.25-1.2-14.7-3.4-2.9-1.45-2.95-3.05v-.1q0-1.15 1.35-2.4 22.35 9.5 46.7 3.15 27.2-7.1 42.2-31.75"/><path fill="#0d131a" d="M58.85 134.15q5.05-8.75 11.55-15 7.35-7.05 21-10.25 12.65-2.95 18.9-.45l.95.4q14.1 5.25 19.5 12 9.05 11.35 5.95 34.05-2.75 20.4-16.95 35.8-4.9 5.25-11.35 10.2l-8.9 6.25-5.55 3.2-5.25 3.15-1.3 1.35-1.65 1.1q-2.25.9-6.35-.1-4.7-1.2-6.85-4.3-1.3-1.85-2.5-6.35-1.15-4.15-1.8-8.85-1.25-8.6-2.4-10.75-6.6-5.2-9.8-11.85-3.55-7.4-3.7-18-.15-10 6.5-21.6"/><path fill="#60c0bd" d="M60.3 134.65q4.65-8.7 10.9-14.65 7.25-6.95 20.75-10 12.25-2.75 17.9-.5l1 .4q11.05 4.35 16.15 9.5 8.9 9 8.9 25.3 0 4.65-.75 10.1-3.15 22.25-23.85 41.1-10.4 9.45-20.45 14.55-1.4.7-2.95 2.25-1.3 1.3-2.3 1.7l-1.35.2q1-1.75 1.15-3.85.05-1.25-.35-1.2t-.55 1.1l-.6 2.1-.9 1.8q-2.45-.25-4.45-1.2.55-.95.75-2.65.2-1.6 0-2.8-.05-.55-.4-.45-.35.05-.35.85 0 2.6-1.15 4.45-2.25-1.2-3.5-3-1.75-2.45-3.85-14l-1.1-5.85q-.6-2.6-1.25-3.8l1 .45q1.1.45 1.75.3.55-.1-.75-.7-2-.95-2.75-1.55-6.05-5.1-9.45-12.5-3.3-7.25-3.35-15.15-.05-10.85 6.15-22.3"/><path fill="#52a7a5" d="m84.25 214.6.5-1 2.45-.2q-.75.7-1.6 1zm-14.2-18.85-1.1-5.85q-.6-2.6-1.25-3.8l1 .45q1.1.45 1.75.3.55-.1-.75-.7-2-.95-2.75-1.55l-3-2.85H83.1l3.6 1q2.8 1.3-1.15 2.6Q77.3 188.1 75.1 191q-2.15 2.9-1.65 10.45.2 3 1.6 5.7 1.2 2.4 3.05 4.1l-.7 1.5q-2.25-1.2-3.5-3-1.75-2.45-3.85-14m13.5 17.85-.55.95q-2.45-.25-4.45-1.2l.5-1.3 1.25.75q1.35.65 3.25.8"/><path fill="#52a7a5" d="m72.9 187.25-2.65-.4h.2q.55-.1-.75-.7-2-.95-2.75-1.55-5.3-4.45-8.6-10.75-3.2-6.2-3.95-13.1 2.5 6.25 9.05 11.1 6.35 4.8 11.75 4.8l12.75-.45 8.6-.5q5.65 0 10.15-1.25 4.85-1.35 5.75-3.5l.55-.75-.6 1.65q-.75 1.9-3.8 7.2-1.15 1.9-4.5 2.5l-9.1.4-7.3 2.65q-7.5 2.65-14.8 2.65"/><path fill="#0d131a" d="M123.75 114.95q5.25 2.8 6.7 6.55 1.3 3.5-1 6.5-2.25 3.05-7.1 4.15l-11.8-.45q-8.25-2.1-14.15-9.3-6.05-7.35-4.35-13.95.7-2.6 6.2-2.6 5.05.1 11.9 1.85 3.65.95 7.4 3.3z"/><path fill="#bbe1e8" d="M121.55 130.45q-4.8.95-10.55-.5-8.1-2.05-13.9-8.85-5.75-6.75-4.3-12.45.5-2.05 5.45-2.05 4.5 0 11.7 1.8 3.55.95 6.95 3.15l5.75 3.75q5 2.65 6.3 6 1.25 3.05-.85 5.65-2.15 2.6-6.55 3.5"/><path fill="#a2c3c9" d="M122.65 115.3q4.85 2.55 6.25 5.85-3.75 2.5-9.65 2.5-8.25 0-15.3-4.1-7.4-4.3-7.4-9.9 0-1.45.65-3l1.05-.05q4.5 0 11.7 1.8 3.55.95 6.95 3.15z"/><path fill="#0d131a" d="M85.1 144.3q4.05-11.05 13.9-16.45 9.65-5.25 18.65-1.9 9.1 3.4 12.8 13.6t-.25 21.05q-4.7 12.95-15.35 17.55-8.8 3.75-16.75.8-9.15-3.4-13-13.55-3.95-10.3 0-21.1"/><path fill="#f2984f" d="M117.1 127.05q8.75 3.25 12 13.05 3.25 9.75-.7 20.4-4 10.95-13.8 15.95-8.85 4.55-16.25 1.8-8.8-3.25-12.15-12.9-3.3-9.6.6-20.25 3.7-10.1 13.3-15.6 9.3-5.3 17-2.45"/><path fill="#d18344" d="M87.05 167.45q6.5 6.2 18.4 6.5 11.95.3 18.8-5.7-5.15 6.9-12.9 9.6-7.25 2.55-13 .4-7.6-2.8-11.3-10.8"/><path fill="#60c0bd" d="M30.2 64.8q1.65 1.15 4.2 5.15 5.4 8.4 18.55 20.4 18.3 16.7 35.75 23.1 4.65 1.7 4.6 5.1-.05 3.1-3.7 6.4-3.6 3.25-8.75 4.85-5.65 1.8-10.65.75-14.35-3.05-35.6-15.1-15.15-8.6-25-16.15-5.4-4.1-7.2-7.2-1.3-2.2-1.05-4.75.25-3.75 4.4-7.5-1.45-1.9.4-5 1.5-2.6 4.4-4.9 2.1-1.65 4.1-2.15l2.7-.2q.5-1.05 3.05-2.25 2.75-1.3 5.35-1.5 2.85-.15 4.45.95"/><path fill="#52a7a5" d="M2.4 92.1q-1.3-2.2-1.05-4.75.15-1.65.95-3.1 4.05 9.55 23.85 22.3 18.3 11.8 38.05 19 7.85 2.9 9.45 4.35 1.4 1.35-2.65.6l-5.8-1.4-2.3-.7-.2.05q-13.75-4.5-31.75-15.1-13.1-7.7-21.35-14.05-5.4-4.1-7.2-7.2"/><path fill="#0d131a" d="M20.65 63.5q2.45-1.1 5.35-1.25 3-.2 5.35 1.75 2.3 1.9 4.95 6.7 4.8 8.5 17.3 19.25 15.4 13.3 35.3 23 2.25 1.1 2.1 1.65-.1.5-2.55-.6-23.8-11.05-40-26.1-9.25-8.6-15.05-17.55-2.7-4.15-3.85-5.1-1.25-1-3.75-.8-11.75.7-3.8 11.6 1 1.35.55 1.55-.4.2-1.35-.75-1.95-2-3.15-4.55-1.05-2.35-1.1-4.15l-2.45.3q-1.7.45-3.6 1.95-3.3 2.6-4.4 5.2-1 2.35.1 3.8l1.2 1.8q1.4 1.95 2.45 2.9 1.25 1.05.85 1.1-.3.05-1.2-.5-.75-.4-2.15-1.55-1.6-1.35-2.25-2.25-3.35 3.2-3.6 6.5-.2 2.45 1.05 4.5 1.7 2.95 7 7 11.7 8.9 27.2 17.45Q56.8 127.2 70.3 130q2.55.55 2.35 1l-2.6.1q-15.1-2.4-35-13.35-14.1-7.8-27.1-17.75Q3 96.25 1.2 93.1 0 91 0 88.45v-.95q.2-2.25 1.85-4.7 1.15-1.7 2.7-3.15Q2.05 75.1 9.85 69q3.1-2.5 7.5-2.35.5-1.9 3.3-3.15"/><path fill="#60c0bd" d="M67.85 149.7q6.9-6.95 17-7.05 12.25-.05 20.65 12 13.05 18.7-19.4 30.4-3.55 1.3-8.1-2.95-4.15-3.8-7.6-10.5-3.4-6.7-4.25-12.65-.95-6.55 1.7-9.25"/><path fill="#52a7a5" d="M79.7 183.5q-3.25-2.3-6.4-7l1.9.15 12.75-.45 8.6-.5 7.85-.7q-5.75 5.55-18.3 10.05-2.85 1-6.4-1.55"/><path fill="#0d131a" d="M68.3 150.1q-.95.85-1.45.8-.6-.1.6-1.55 1.75-2.15 6.85-4.55 6.25-2.9 11.65-2.65 4.95.25 9.7 2.7Q101.6 148 106 154.3q5.25 7.55 3.2 14.1-1.9 6.25-11.2 11.7-6.95 4.05-12.45 5.25l-3.1.2q-1.05-.25 2.55-1.05 4.35-.95 11.55-5.05 9.8-5.6 11.6-11.35 1.9-6.05-3.1-13.15-7.4-10.6-19.1-11.25-5.2-.25-10.55 2-4.4 1.85-7.1 4.4"/><path fill="#60c0bd" d="M110.65 151.6q3.55.45 5.1 1.45 2.3 1.55 1.25 4.65l-4.25 13q-3.7 9.65-7.25 10.35l-6.5.7-7.75.7q-4.75.85-.35-9.5 4.05-9.4 7.6-12.95l6-5.6q3.9-3.1 6.15-2.8"/><path fill="#52a7a5" d="m112.45 170.95.45-.65-1.6 3.85-1.95 3.55q-1.9 3-3.85 3.35l-5.3.65-5.1.25H95l-3.75.5q-3.8.65-1.5-6.4l6.8-.35q5.65 0 10.15-1.25 4.85-1.35 5.75-3.5"/><path fill="#0d131a" d="m113.35 156.95.3-2.2-.15-2.15q-1.45-.75-3.1-.25.4 1 .1 2.65-.3 1.55-.9 2.15-.7.75-.85.5-.15-.15.2-.85.75-1.7.75-2.95.05-1.15-.5-1.3-.6-.2-2 .6-2.1 1.15-4.75 3.5-2.25 1.9-3.75 3.65-1 1.2-1.35.95-.3-.2.65-1.5 1.7-2.35 3.95-4.4 2.4-2.2 4.65-3.35 4.2-2.1 8.25-.45 4.25 1.8 2.65 6.3l-1.05 3.4q-2.9 9.45-4.25 12.75-3.15 7.45-6.4 8.1l-4.45.4-4.05-.05-4.25.35-3.15.4q-1.55.1.5-.7 1.8-.7 3.55-.95l3.3-.25 8.15-.8q2.85-.6 5.9-7.7 1.65-3.85 4.1-11.9l1.05-3.4q.5-1.5 0-2.95-.6-1.5-1.95-1.7v2.3q-.15 1.55-.5 2.15l-.7.75q-.2-.15.05-1.1"/><path fill="#bbe1e8" d="M151.25 110.8q-10.85 8.25-25.05 8.15-12.1-.1-21.25-2.2l-6.7-2.05q-9.1-3.85-15.25-10.2-6.2-6.45-8.05-14.1 47.1-4.35 88.7 1.1-2 11.35-12.4 19.3"/><path fill="#a2c3c9" d="m74.95 90.4.35-.05q7.2 17.6 32.9 23.5 11 2.5 22.4 1.85 11.35-.7 19.85-4.35-5 3.65-11.05 5.6-6.35 2.05-13.2 2-12.1-.1-21.25-2.2l-6.7-2.05q-9.1-3.85-15.25-10.2-6.2-6.45-8.05-14.1"/><path fill="#60c0bd" d="m164 88.7-.35 2.8q-41.6-5.45-88.7-1.1-.95-3.9-.65-7.65Q75.2 68.7 88.8 59q13.85-9.9 32.15-8.7 18.4 1.25 31.3 12.9 12.7 11.55 11.75 25.5"/><path fill="#0d131a" d="M120.9 50.85q-17.8-1.2-31.55 8.55-13.6 9.55-14.5 23.35-.6 9.25 6.6 18.55 6.95 8.85 17.05 12.9 1.65.65 1.15 1.05l-1.6-.05q-12.2-4.6-18.75-13.6-6.15-8.35-6.15-18.7 0-13.6 12.9-23.85 14.1-11.2 34.8-9.8 18.9 1.25 32.1 13.15 13.1 11.85 12.1 26.45-.8 12.15-11.8 21.1-11.25 9.1-27 9.55-1.8.1-2.1-.45-.35-.5 2.05-.65 15.05-.9 25.8-9.55 10.7-8.55 11.45-20.2.95-13.9-11.85-25.25-12.75-11.35-30.7-12.55"/><path fill="#0d131a" d="m163.45 84.35.4.15-.05.45q-1.75 9.75-8.25 16.55-6.55 6.8-16 8.6-12 2.35-24.15-3.95-11.8-6.15-19.1-17.9l-.35-.5.55-.3q14.7-7.05 36.5-7.55 20-.45 30.45 4.45"/><path fill="#922f00" d="M131.45 81.55q21.15-.75 31.1 3.65-1.75 9.15-7.65 15.15t-14.95 7.7q-11.7 2.25-23.5-3.3-11.8-5.5-18.85-16.55 12-5.85 33.85-6.65"/><path fill="#0d131a" d="m96.45 88.15-.2-.35.35-.2q5.7-2.9 14.7-4.7 9-1.85 19.6-2.25h.1q9.5 1.85 16.25 7.15 7.85 6.15 7.25 14v.2l-.1.1q-5.05 4.45-12 6.35-6.95 1.85-14.55.75-9.6-1.4-17.8-6.9-8.25-5.5-13.6-14.15"/><path fill="#ed8599" d="M111.75 83.55q8.8-1.75 19.15-2.15 8.45 1.65 15.4 7.5 7.4 6.2 7.45 12.75-4.85 4.3-11.6 6.1-6.75 1.75-14.2.7-9.35-1.35-17.35-6.65-7.95-5.35-13.3-13.7 5.7-2.8 14.45-4.55"/><path fill="#ce7486" d="M97.3 88.1q5.7-2.8 14.45-4.55 8.8-1.75 19.15-2.15 4.3.85 8.65 3 4.3 2.2 7.6 5.25-11.45.8-19.95 4.55-9.4 4.05-11.7 10.35-11.25-5.45-18.2-16.45"/><path fill="#0d131a" d="M91.1 61.85q6.9 0 12.15 6.95 5.25 7 5.25 16.3 0 9.2-4.45 16.45-4.8 7.7-11.8 7.7t-12.8-7.6q-5.8-7.55-5.8-16.55 0-9.15 5.3-16.2 5.25-7.05 12.15-7.05"/><path fill="#f2984f" d="M106.65 85.1q0 8.85-3.8 15.4-4.15 7.15-10.6 7.15-6.65 0-12.05-7-5.45-7.05-5.45-15.55 0-8.7 4.9-15.25 4.85-6.55 11.3-6.55 6.4 0 11.05 6.45t4.65 15.35"/><path fill="#d18344" d="M74.75 85.1q0-2 .3-3.9 9.1 13.2 28.75 17.5-1.9 4.1-4.8 6.45-3.05 2.5-6.75 2.5-6.65 0-12.05-7-5.45-7.05-5.45-15.55"/><path fill="#0d131a" d="m164.5 82.75 7.75 1.95 7.85 2.2q3.65 1.35 3.7 2.25 0 .55-1.2 1.1l-2.05.75-10.4 3.5-7.45 2.55q-.5 1.35-3.15 5.15l-1.15 1.65-.8.05q-.55-3.35.7-14.85 1.1-10.4 2.15-15.15l.3-.8.75.95q1.2 1.5 3 8.7"/><path fill="#f2984f" d="m180.15 89.95-18.3 6.2-.05.25q-.35 1-2.65 4.45l-.05-1.6q0-4.4.75-11.8.65-6.95 1.45-11.45.95 2.1 2.15 7.15l.15.55.4.05 7.1 1.95 8.7 2.6q1.5.55 1.8.85z"/><path fill="#d18344" d="m169.15 91.1 11.8-1.5-.8.35-18.3 6.2-.05.25q-.35 1-2.65 4.45l.05-5.25q3.45-3.3 9.95-4.5"/><path fill="#f2984f" d="M115.9 68.65q0-2.25 1.25-4.05 1.3-1.85 3.1-1.85 1.85 0 3.15 1.8 1.25 1.75 1.25 4.1 0 2.2-1.15 4-1.3 1.95-3.25 1.95-1.85 0-3.15-1.9-1.2-1.8-1.2-4.05"/><path fill="#0d131a" d="M120.45 66.05q.7 0 1.2.8.5.85.5 2t-.5 1.95-1.2.8q-.65 0-1.15-.8t-.5-1.95.5-2q.45-.8 1.15-.8"/><path fill="#f2984f" d="M148.85 73.8q-1.7-1.05-2.35-3.9-.55-2.2 0-4t1.9-2.2q1-.3 1.95.3 1.85 1.15 2.5 3.9.5 2.15-.1 3.95-.6 1.85-1.95 2.25-.9.3-1.95-.3"/><path fill="#0d131a" d="M151.25 68.95q.1 1.1-.25 1.95t-.9.9q-.55.1-.95-.65-.45-.75-.55-1.85t.2-1.95q.35-.8.9-.9.55-.05 1 .65.5.75.55 1.85m-17.85 8.7q-.35-.4-.1-.7l.75.05q.9.6 1.05 1.65l-.15.5q-.2.05-.4-.25zm10.35.05-.9 1.1q-.2.25-.4.15-.2-.05-.15-.45l.3-.7.6-.7q.45-.3.65 0t-.1.6"/><path fill="#fff" d="M120.05 65.95q0 .8-.55 1.4-.55.55-1.3.55-.8 0-1.35-.55-.55-.6-.55-1.4t.55-1.35 1.35-.55q.75 0 1.3.55t.55 1.35"/><path fill="#0d131a" d="M120.15 62.15q2.35 0 4 1.9t1.65 4.6q0 2.75-1.65 4.65-1.6 1.95-3.9 1.95t-3.95-1.95q-1.6-1.9-1.6-4.65t1.6-4.6q1.55-1.9 3.85-1.9m.1 12.45q1.95 0 3.25-1.95 1.15-1.8 1.15-4 0-2.35-1.25-4.1-1.3-1.8-3.15-1.8-1.8 0-3.1 1.85-1.25 1.8-1.25 4.05t1.2 4.05q1.3 1.9 3.15 1.9"/><path fill="#fff" d="M149.35 66.4q0 .7-.5 1.25-.45.5-1.15.5t-1.2-.5q-.5-.55-.5-1.25t.5-1.25q.5-.5 1.2-.5t1.15.5q.5.55.5 1.25"/><path fill="#0d131a" d="M148.4 63.7q-1.35.4-1.9 2.2t0 4q.65 2.85 2.35 3.9 1.05.6 1.95.3 1.35-.4 1.95-2.25.6-1.8.1-3.95-.65-2.75-2.5-3.9-.95-.6-1.95-.3m3.4.6q1.5 1.5 2.05 3.75.5 2.15-.2 4.15-.8 2.2-2.65 2.75-1.65.5-3.35-.85-1.75-1.4-2.35-3.9-.6-2.65.45-4.95 1.1-2.35 3.2-2.35 1.4 0 2.85 1.4"/><path fill="#f2984f" d="M83 80.3q2.6 2.2 3.05 7.1.6 6-4.4 9.45l-17.3-3.5q-7.5-1.75-7.5-2.9 0-.85 13.1-5.6z"/><path fill="#d18344" d="M85.75 91.45q-.45 2.6-1.5 4.05-1.2 1.6-2.95 1.35l-11.5-2.1-9.5-2.3q-2.3-.8-2.8-1.45 18.45 1 28.25.45"/><path fill="#0d131a" d="M81.15 80.3q1.35-.35 1.2.15-.1.55-.9.9Q62.4 88.1 59.6 89.5q-1.05.5-1.45.9l-.2.25.35.35q.6.4 2.15.9l10.25 2.2 10.7 2.2q1.55.4 1.1.85-.45.4-1.3.25-19.35-3.85-21.1-4.45-4.05-1.3-4.15-2.25-.05-.6 1.1-1.25l2.05-.95q1.95-.95 11.4-4.4z"/></svg>