<svg xmlns="http://www.w3.org/2000/svg" width="195" height="179" viewBox="-0.3 -0.6 195.1 179.35"><path fill="#0d131a" d="M87.25 139.8q2.45-9.1 4.9-12.6 2.05-2.85 4.9-4.9 3.4-2.45 5.8-1.95 2.65.55 3.5 4.25l.15.65 1.45 5.65q.8 3.85.2 5.75-.3 1.1-1.7 2.9l-2.65 3.2q-3.15 4.2-4 5.95-.4.75-1.25 3.15-1.4 4.2-2.85 5.7-2.4 2.5-6.65 1.1-2.15-.7-3-3.4-1.6-4.95 1.2-15.45"/><path fill="#adb2b4" d="M93.2 127.95q1.85-2.55 4.45-4.5 3-2.2 4.95-1.8 1.8.3 2.5 3.25l.15.65q1.35 5.55 1.35 8.65l-.25 2.2q-.5 1.65-3.55 5.55t-4.15 6.15q-.7 1.45-1.3 3.35-1.4 4-2.55 5.2-1.85 1.95-5.35.8-1.55-.55-2.2-2.6-1.5-4.6 1.25-14.75 2.4-8.95 4.7-12.15"/><path fill="#0d131a" d="m91.15 128.95.4-.85.65.7q2.25 2.55 3.6 6.4.95 2.6 1.9 7.25 2.5-2.4 7.55-3.55l1.7-.4-3.15 4.25q-3.15 4.2-4 5.95-.4.75-1.25 3.15-1.4 4.2-2.85 5.7-2.4 2.5-6.65 1.1-1.9-.6-2.8-2.8-1.75-4.2.35-13.5 1.75-7.85 4.55-13.4"/><path fill="#1d303a" d="M98.65 148.1q-.7 1.45-1.3 3.35-1.4 4-2.55 5.2-1.85 1.95-5.35.8-1.35-.55-2-2.1-.7-1.6-.7-4.4 0-4.4 1.7-10.75 1.5-5.5 3.4-9.7 1.9 2.45 3.1 6.3.75 2.3 1.7 7.1l.3 1.35.85-1.05q2-2.4 6-3.6l-1 1.35q-3.05 3.9-4.15 6.15"/><path fill="#0d131a" d="M48.25 111.55q7.05 8.5 6.2 14.85l-1.35 9.05q-.8 3.5-2.6 4.55-2.65 1.65-9.2 8.35-7.1 7.3-8 10.15-1.5 4.45-3.65 6.35-2.25 1.95-6.6 2.6l-6-.25q-1.2-.45-2.35-1.5l-3.75.4q-3.1-.25-5-2.35l-2.2-.45q-1.25-.45-1.95-1.35-1.3-1.7-1.7-4.25-.4-2.65.4-5 .55-1.55 3-2.75l4.4-1.75q3.3-1.35 4.5-2.2 2.6-1.9 8-14.75 5.9-14.05 7.65-24.7.6-3.55 3.1-4.25 1.2-.35 4 .05 6.2.95 13.1 9.2"/><path fill="#adb2b4" d="M48.2 139.25q-2.45 1.5-8.8 8.55-6.5 7.25-7.65 10-1.6 3.85-2.95 5.3-1.95 2.1-5.65 2.6l-6.45-.4-1.85-1.15-.35-.35-.45.2-2.5.55Q8.8 164.6 7 162.4l-.2-.3-.35.05q-1.6.15-2.85-1.4-1.1-1.35-1.3-3.4t.5-4.1Q3.25 152 4.9 151q1.05-.65 3.5-1.6 3.35-1.35 4.75-2.35 3-2.2 8.75-14.9 6.25-13.75 8-24.05.85-5.15 5.05-4.45 5.7.85 12.25 8.7 6.75 8.05 5.95 13.9-1.5 10.9-4.95 13"/><path fill="#838688" d="M47.2 112.35q6.75 8.05 5.95 13.9-1.5 10.9-4.95 13-2.45 1.5-8.8 8.55-6.5 7.25-7.65 10-1.6 3.85-2.95 5.3-1.95 2.1-5.65 2.6l-2.45.2.45-.8 8.3-11.8q4.6-6.65 7-11.85 2.2-5-1.95-10.95l-8.15-9.3q2.55-7.2 3.55-13.1.85-5.15 5.05-4.45 5.7.85 12.25 8.7"/><path fill="#0d131a" d="M7.9 148.2q3.3-1.35 4.5-2.2 1.75-1.25 5.5-8.45l1.25.3-.2 1.3v.1l1.3-1.45 2.5-2.95q.75-1 1.2-.9.45.05-.05 1.5l-.6 2.1-.05 1.4.05 2.75q2.8-3.05 5.6-5.15 3.6-2.7 6.45-3.25l1.35-.2-.6 1.2q-1.75 2.8-2.7 7.6l-.25 1.15q.9-.65 1.6-.9l2.85-.65 2.25-.3-.9 1.35q-1.05 1.3-2.3 4.4l-.45 1.1h.1l2.75.5 1.3.15-.85.95q-5.5 6.25-6.55 8.65-1.7 4.1-3.3 5.8-2.25 2.3-6.3 2.9-6.3.9-9.2-1.7l-3.3.45q-2.7-.2-4.6-2.3-2.1.1-3.7-1.9-1.25-1.65-1.5-4-.3-2.35.55-4.75.55-1.6 2.45-2.8 1.1-.65 3.85-1.8"/><path fill="#3e4e57" d="M13.15 147.05q1.55-1.1 4.3-6l.4 1.85.8-1.2q.75-1.15 2.55-3l.8-.9v2.2l-.2 3.5-.45 2.3 1.9-2.1 4.7-4.8q2.7-2.3 6.1-3.7-1 2.05-1.9 6.45l-.9 3.95-.15 1.2q.1.85 1.4-.8 1.45-1.8 2.5-2.4.7-.4 2.5-.8-.7.95-1.1 1.95l-.65 1.75-1.35 2.4 3.3.8q-5.1 6-5.95 8.1-1.6 3.85-2.95 5.3-1.95 2.1-5.65 2.6-5.2.75-7.7-2.4-2.3-2.9-.55-6.3.5-1.05 1.85-1.9 1.4-.9 2.95-1.1 1.55-.25 1.5-.75-.1-.5-1.4-.25-5.05.8-6.3 3.2-.9 1.8-.8 4.1.1 2 1 3.8-4.55 1.7-6.85-2.5-2.2-4-.15-6.9.95-1.35 3.4-2.05l2.3-.95q1.25-.55.9-.7-.25-.15-1.3 0l-2.25.4q-3.2.85-4.25 2.35-1 1.35-1 3.4 0 2.15 1.1 4.95-1.2-.25-2-1.35-1.35-1.65-1.35-4.3 0-1.55.55-3.2.45-1.25 2.1-2.25 1.05-.65 3.5-1.6 3.35-1.35 4.75-2.35"/><path fill="#0d131a" d="M165.05 89.3q1.3 3.35.9 3.75-.2.2-1.7-.55-3.2-1.7-5.3-1.75 3.95 2.85 6.8 8.8 2.55 5.3 3.9 12.2.1.65-1.35.3l-2.9-.1 3.3 4.95q3.8 6 6.85 8.55 3.65 3.1 8.05 2.9 2.1-.05 2.35.5.25.5-1 1.3l-2 .95-2.8.4 5.2.55q3.85-.15 6.5-1.1 2.6-.9 2.8-.6.15.25-1.3 2.05-5.35 6.75-18.55 9.6-13.25 2.9-23.25-.5-3.4-1.15-8.4-3.95l-8-4.65q-6.1-3.5-9.05-4.85-4.8-2.15-8.2-2.15-2.1 0-4.3 1.35l-4.2 3.3q-6.4 5.5-10.65 7.55-8.25 4-18.8 3.1-32.6-2.85-52.55-29.1Q8.35 87 8.15 51.05q-.1-18.1 4.3-34.8 3.9-14.85 6.8-14.85 1.95 0 5.6 3.95 4.85 5.3 10 15.45 2.75-1 6.8-1.3 3.55-.25 6.7.1 9-12.8 21.6-19.15Q72.1-.6 72.45.8q2.65 9.8 2.9 21.65.1 5.95-.3 10.05l3.5 4.4q2.85 4.25 2.9 8.25.1 3.65-.15 6.7L81 56.4q0 10.2 2.2 13.1l1.6 1.3 1.65.25q.45-.5 1.65-5.3l1.6-7.6q.5-2.85.65-2.85.2-.05 1.25 2.65L93.45 64q6.25-13.3 20.35-20.65 2.4-1.25 2.8-.85.5.4-1.25 3.05-1.55 2.3-3.2 7.2-2.05 6.15-2.05 11.1 3.7-4.7 8.15-6.9 3.55-1.8 8.1-2.25 2.05-.15 1.9.4-.2.5-1.55 1.1-1.45.7-2.95 2.1-1.95 1.85-3.25 4.45 5.4-3.7 10.1-4.95 5.75-1.5 14.4-.75 2.75.25 2.55.75-.15.35-1.85.85-1.3.35-4.85 2.7-3.45 2.2-4.2 3.1 7-.15 11.7 1.25 4.75 1.45 10.1 5.35 1.7 1.25 1.45 1.5l-1.9-.05q-2.6-.3-5.45.8 3.6 2.4 7.2 6.95 3.55 4.55 5.3 9.05"/><path fill="#adb2b4" d="m167.95 110.4-1.85-.1-1.3.35q-2-2.35-2.45-2.3-.5 0 1 2.2 1.95 2.85 4.3 7 4.05 6.35 6.4 8.55 3.6 3.45 8.4 3.75l-1.75.55-2.55.05-1.2.05.9 1.05q2.05 1.9 5.3 2.2l7-.6q-6.4 6.5-18.3 8.05-11.1 1.5-20.9-1.85-3.6-1.25-7.8-3.4-2.65-1.35-7.4-4.1-6.3-3.6-9.3-4.9-4.95-2.2-8.55-2.2-2.4 0-4.85 1.45-1.55.95-4.45 3.45-5.75 4.95-10.05 6.8-7.4 3.2-17.75 2.3-35.35-3.1-54.4-31.45-16-23.8-16-56.05 0-20.3 3.8-35.65Q17.25 3.4 19.35 3q1.2-.25 2.65 1.3 2.5 2.5 7.1 10 3.7 6.05 4.8 8.4l.85 1.5q.15.2.9.45.9.25-.05-2.15 2.65-1.05 6.8-1.4l8.45-.2-.8-.4q3.65-5.85 12.4-13.35 8.3-7.15 8.8-5.85 2.85 8.05 3 20.65.1 6.3-.4 11l.15.15 3.1 4q3.05 4.75 3.05 8.95v.35q-.35 7.25-.35 10.05 0 10.55 2.45 13.8.8 1.1 2.15 1.7l2.6.2q1.25-.7 4.1-11.75l1.35 6.15.35 1.2q.25.25.9-1 4.05-8.05 10.4-14 3.1-2.9 8.85-6.8-3 6.15-3.85 12.9-.7 5.05-.1 6.8.3.9.7.65l.4-.4q3.7-5.9 13.75-9.25-2.1 1.75-3.9 4-1.85 2.35-2.15 3.65-.25 1.1.8.85l1.05-.5q4.05-2.6 10.15-4.5 7.85-2.4 13.9-1.65-6.75 3.9-8.55 5.5-1.2 1.1-.9 1.4l1.4.2q12.35.4 19.85 5.45l-2.2.4q-1.3.4-2.35 1.35-.95.95-.5 1.1l.65-.05q2.6 1.15 6.75 6.95 3.75 5.15 5.6 9.45-1.05-.55-3.2-.65l-2.85.3q-.65.3-.65.5l.55.55q3.35 2.95 6.6 9.2 2.9 5.5 4.05 10.25"/><path fill="#838688" d="m40.9 21.3 6.35-.35q-2.5.3-7.8 3.45-4.35 2.65-4.95 1.8-7.7-14.1-12.25-21.65 2.55 2.7 7.05 10 3.65 6.05 4.6 8.15l.85 1.5q.15.2.9.45.9.25-.05-2.15 2.15-.85 5.3-1.2m16.65.4Q62.4 7.8 69.75 1.65q1.35-.7 1.5-.35 2.5 7.05 2.9 18.3.25 7-.25 13.35-7.15-7-12.5-9.65-3.75-1.25-3.85-1.6M84.4 71.95l2.6.2q1.25-.7 4.1-11.75l1.35 6.15.35 1.2q.25.25.9-1 2.75-5.45 6.5-9.85L95 69.1q-2.5 2.55-4.2 2.55 2.8 5.15.15 11.3Q88.6 88.3 82.8 93.2q-7.05 5.95-14.6 5.15-3.1-.35-16.45-5 .8-6.55 14.95-16.1 5.5-3.75 10.1-5.85 4.75-2.1 5.45-1.15.8 1.1 2.15 1.7"/><path fill="#0d131a" d="m52.45 21.2-6.25-.4 2.95-1.05 3.85.6q1.5.35 1.3.65zM40.8 119.6l5 3.55q4.1 2.55 7.35 4-.65-7.55-.75-10.7-.1-2.4.05-2.5l1.7 1.85q5.25 6.95 11.1 11.35 7.05 5.3 14.35 6.25 3.15.9 7.3-.5 4.15-1.45 7.15-4.45 3.7-4.6 4.3-6.7.4-1.35 1.1-2.65.9-1.6 1.25-1.05l2.65 3.3 3.2 3.65q.45-3.9 1.9-8.05l1.4-3.35.45.95q.8 1.55 3.15 3.4l4.7 3.25q5.35 3.45 6.85 5.3l1.15 1.45-1.7-.7q-3.8-1.45-6.55-1.45-2 0-4.35 1.8l-4.25 3.75q-5.25 4.55-10.2 6.5-7.65 2.9-18.4 1.95-24-2.1-39-13.65l-.15-.1-1.9-5.25q-1-3.1 1.15-1.2"/><path fill="#3e4e57" d="M79.4 134.35q3.4 1 7.8-.5 4.35-1.5 7.6-4.75 2.2-2.8 4.4-6.9l1.35-2.35 2.7 3.25 2.9 3.2q1 .8 1.2.5l.3-1.5 1-4.5q.85-3.85 1.3-4.95 1.65 2.35 7.7 6.2l5.1 3.6q-2.6-.8-4.85-.8-2.4 0-4.8 1.45-1.55.95-4.45 3.45-5.75 4.95-10.05 6.8-7.4 3.2-17.85 2.3-23.55-2.1-38.35-13.4l-.65-1.9-.7-2.5q5.55 4.4 12.45 7.35l.7.3-.15-11.2q4 6.7 10.8 11.25 6.85 4.6 14.55 5.6"/><path fill="#1d303a" d="M54.2 128.7v-1.3q4.55 1.45 11 1.6 6.7 4.4 14.2 5.35 3.4 1 7.8-.5 4.35-1.5 7.6-4.75 2.2-2.8 4.4-6.9l1.35-2.35 2.7 3.25 2.9 3.2q1 .8 1.2.5l.3-1.5 1-4.5q.85-3.85 1.3-4.95 1.65 2.35 7.7 6.2l5.1 3.6q-2.6-.8-4.85-.8-2.4 0-4.8 1.45-1.55.95-4.45 3.45-5.75 4.95-10.05 6.8-7.4 3.2-17.85 2.3-23.55-2.1-38.35-13.4l-1.05-3.25 4.9 2.9 1.1.4 1.05.4q2.7 1.45 5.1 2.5z"/><path fill="#adb2b4" d="M79.1 108.1q6.3-2 10.9-.7 5.05 1.35 4.95 5.95-.05 3.45 3.15 12.8 2.75 8.1 1.65 10.4-3.5 7.2-6.4 17.75l-3.15 11.4q-1.6 3.9-4.65 7.05-3.55 3.65-7.5 4.2-4.2.6-7-.55l-1.95-1.25-2.7.65q-3.1.1-5.1-2.4-4.4-.05-5.1-3.4-.5-2.55 1.15-7.3.7-1.95 3.4-2.75 3.85-1.15 5.1-2.05 2.5-1.8 4.35-8.05 2.1-7.1.75-13.3-.2-1-2.85-4.6-2.55-3.45-3.05-6.65-.95-5.95 3.6-10.85 3.95-4.3 10.45-6.35"/><path fill="#838688" d="m78.05 176.95-4.45.1q15-23.2 17.6-35.6 1-4.7.7-10l-.7-9.6q-.3-9.15 1.7-10.5.75-.45 1.4.3.65.7.65 1.7-.05 3.45 3.15 12.8 2.75 8.1 1.65 10.4-3.5 7.2-6.4 17.75l-3.15 11.4q-1.6 3.9-4.65 7.05-3.55 3.65-7.5 4.2"/><path fill="#0d131a" d="M69.2 132q2.1 3.1 2.4 4.4 1.35 6.35-.8 13.65-1.9 6.45-4.6 8.4-1.35 1-4.45 1.9-1.75.45-2.35.85-1.05.55-1.45 1.7-2.1 6.15-.55 8.35 1.05 1.45 3.9 1.5h.3l.2.25q1.8 2.2 4.5 2.15l2.55-.55.45-.2.3.35 1.85 1.15 6.5.4q3.7-.5 7.05-3.95 3-3 4.6-6.9l1.7-5.9q1.8-7 3-10.75 2.25-7.15 4.9-12.55.65-1.4-.6-5.4l-2.55-7.45q-1-3-1.55-6-.55-3.1-.2-4.05.45-1.35.8-1.6.45-.4.5 1.55t.8 4.55l1.65 5.2 2.75 8q1.2 4 .4 5.7-5.2 10.65-8.25 22.75-2.55 10.05-6.15 14.1-3.15 3.55-8.85 4.35-5.75.8-8.45-1.75-1.1.85-3.7.65-3.25-.3-4.8-2.85-4.4-.1-5.5-1.65-.45-.65-.55-1.5l-.05-1.75q0-3.75.95-6.6.5-1.55 2.35-2.35.7-.35 3.2-1.05 2.65-.7 4.05-1.7 1.8-1.3 3.3-5.9 1.65-4.95 1.65-10.15l-.45-4.7q-.45-1.95-1.8-3.9l-2.3-3Q64.5 128 64 126.55q-.65-1.8.25-2.7.85-.95 1.45 1.3.55 2.05 1.55 3.9z"/><path fill="#0d131a" d="m70.4 146.05.3-1.65 1.55 2.45 1.95 3.35 1.65-3.15 1.7-3.5q.7-2.3 1.15-.05l.6 5.85.55 5.5L81 152.6q.95-1.9 1.15-3.05.3-1.45.5-1.45.3 0 .75 1.8.65 2.5.85 6l3.15-5.65q2.6-4.85 2.65-6 .15-2.8 1.3.05l1.1 3.75 1.2 4.15.5 1.65-1.6 6.05-1.75 6.05q-1.75 4.2-4.95 7.4-3.7 3.65-7.7 4.25-6.3.9-9.2-1.7l-3.35.5q-2.7-.25-4.6-2.4-3.3-.05-4.65-2.05-.9-1.25-.9-3.35 0-2.6 1.3-6.1.55-1.55 1.9-2.35.8-.5 2.75-1.05 2.65-.7 4.05-1.7 1.35-1 2.75-4.1 1.5-3.3 2.2-7.25"/><path fill="#3e4e57" d="m76.9 147.65 1.15-2.15.4 5.6q.45 5.2 1.15 6.25l.45.35q.5.2.7-.7.6-2.5 1.3-3.9l.1-.15.55 1.8.45 1.8q0 1.3.55 1.7.7.5 2.05-2l4.85-9.65 2.2 7.3q-3.3 12.3-6.5 17.05-3.15 4.65-8.35 5.35-3.1.45-5.5-.1-1.4-.35-1.85-1.2-.4-.7-.4-2.55 0-4 1.6-5.8.7-.8 2.3-1.25l2.85-.65q1.4-.35 1.4-.6 0-.3-1.6-.35-4-.15-5.9 2-2.35 2.65-1.85 8.7l-.15.1q-4.95 2.3-6.7-2.05-1.7-4.15 1.05-8.05.65-1.05 3.15-1.4l2.6-.7q1.15-.45.85-.7l-1.1-.2-2.55.3-2.15.55q-1.25.45-1.9 1.4-.85 1.15-1.35 3.1-.55 1.95-.55 3.8 0 1.25.25 2.05-2.15-.2-3.05-1.45-.65-.95-.65-2.65 0-2.15 1.2-5.7.4-1.15 1.45-1.7.6-.4 2.35-.85 3.1-.9 4.45-1.9 1.5-1.1 2.95-4.05 1.4-2.95 2.2-6.55 1.9 2.75 2.2 4.65l.4.65q.5.45.85-.65.85-2.7 2.1-4.85"/><path fill="#adb2b4" d="M131.3 88.25q6.65 3.6 12.3 11.05 5.7 7.45 7.1 14.45l1.1 5.5q.45 2.85-.25 3.8-4.7 6.35-6.15 17.1l-.9 7.45q-.5 3.65-1.4 5.2-1.65 2.75-3.45 4.35l-6.15 5.65q-1.3 1.35-5.2.95l-3.65-.7q-1.35.7-3.05.9-3.4.4-5.2-2-4-.05-5-2.5-.85-2.05.45-6.2.6-1.9 3.35-2.95 3.8-1.5 4.8-2.3 5.8-4.55 3.8-14.4-.15-.8-2.05-2.35l-4.05-3.7q-6-6.6-7.5-18.4-.1-.95.2-3.05l.6-3.9q1.7-11.9 7.75-15.15 5.2-2.8 12.55 1.2"/><path fill="#838688" d="M150.7 113.75q1.65 2.05 1.75 5.2.05 2.8-.9 4.1-4.7 6.35-6.15 17.1l-.9 7.45q-.5 3.65-1.4 5.2-1.65 2.75-3.45 4.35l-6.15 5.65q-1.5 1.55-6.45.75 6.05-5.4 10.2-18.45 5.25-16.4.6-30.4-1.7-5.05-2.65-9.3l-2.35-9.05q2.05.95 4.85 5.5 2.95 4.85 4.1 5.65.8.55 1.45-2.25l.75-2.95 2.65 4.75q2.3 4.55 4.05 6.7"/><path fill="#0d131a" d="M151.05 122.7q.7-.9.3-3.5l-1.2-5.3-.15-.6q.1-.4 1.3.8 1.4 1.35 1.6 5 .2 3.5-.8 4.8-3.35 4.45-4.95 10.35-1 3.75-1.65 10.05l-.2 4.9q-.05 2.3-.7 3.4-2 3.4-5.2 6.1l-5.65 5.3q-1.35 1.35-4.7.9L125 164l-3.8.85q-3.35.15-5.15-2-3.85-.15-5.15-2-.7-1-.7-3.1 0-2.2.75-4.6.5-1.5 2-2.45.9-.6 3-1.35 2.45-.9 3.7-1.8 4.1-3.25 4.1-9.2 0-1.85-.5-4.6l-1.35-1.35-2.1-1.55q-4.25-3.45-5.75-5.75-3.45-5.15-4.65-14.4-.35-4.25.3-7.7.5-2.5 1.15-2.4.65.15.25 2.55-.6 3.5-.3 5.95 1.2 9 4.9 14.8 2.1 3.3 6.1 6.6l1.75 1.55q.7.75.85 1.45 2.1 10.25-4.05 14.95-1.25 1-4 2.05-1.8.65-2.5 1.1-1.1.7-1.45 1.85-1.45 4.65-.15 6.35 1.05 1.5 4.15 1.55h.3l.15.2q1.6 2.1 4.65 1.75 1.55-.15 2.9-.8l.2-.1.2.1 4.25.7q3.05.2 4.05-.8l5.25-4.95 2.15-2 2.05-2.95q.7-1.15 1.1-3.45l.65-4.85q.75-6.9 1.7-10.6 1.6-6.3 5.05-10.9"/><path fill="#0d131a" d="M135.4 135.15q.6-3.05 1-.1l.9 4.6.85 3.85q.45-1.55 2.75-6.05l2.75-5.15q1.4-2.7 1.15.25-.15 1.65.25 3.25l1 3.2.05.15-.6 5.15-.45 4.95q-.25 2.3-.95 3.5l-2.45 3.35-2.5 2.25q-1.15 1-5.25 5.5-1.35 1.35-4.9.85l-4.3-1q-1.8.75-3.6.85-3.2.15-5-2.05-3.45-.15-4.85-2-.8-1.1-.8-2.95 0-1.95.85-4.5.45-1.5 1.8-2.4.85-.55 2.85-1.3 2.45-.9 3.7-1.8 4.05-3.2 4.05-9.05l1.05-.4q1.75 1.9 2.5 4.5l1.9-7.55q1.7-6.3 2-5.45l.75 5.75.6 5.9 1.4-2.5q1.25-2.4 1.5-3.6"/><path fill="#3e4e57" d="M124.8 140.15q1.65 2.45 1.65 4.95l.3 1q.4.7.85-.75l3.4-12.05.2 4.35q.3 3.65.55 4.8l.5 1.65q.2.3.65-.85l1.6-3.2 1.35-2.45q1.4 5 1.85 8.4.2 1.4.7.75l.45-.9q.35-2.75 4.95-11.05.2 1.95 1.1 4.45l-.6 4.95-.65 4.85q-.4 2.3-1.1 3.45l-2.05 2.95-2.15 2-5.25 4.95q-1.25 1.25-5.5.65-1.45-.2-2.05-.85-.55-.65-.55-1.8-.05-4 2-5.9 1.45-1.4 4.35-1.9 1.25-.25.95-.7l-2.6-.15q-3.05.35-4.9 3-2.2 3.2-.85 7.95-5.8 2.35-6.9-1.6-1.05-3.6 2.1-8.4.6-.95 2.85-1.3l1.15-.2 1.1-.45q.6-.4.4-.8-.15-.4-.95-.3l-1.05.3-.9.25q-2.4.5-3.6 1.85-1.5 1.8-2.2 4.55-.65 2.55-.35 4.7-2.45-.2-3.35-1.5-.6-.8-.6-2.3 0-1.65.75-4.05.35-1.15 1.45-1.85.7-.45 2.5-1.1 2.75-1.05 4-2.05 3.95-3.05 4.45-8.3"/><path fill="#0d131a" d="M102.15 83.9q-2.2-1.5-1.85-1.75.4-.25 2.2.95 4 2.7 8 8.75l5.25 9q.4-1.65.6-4.6l.1-4q-.25-1.45-.15-1.65.15-.2 1.5 1.05 3.15 3 5.15 5.4 4 4.8 6.1 9.85 1.35-3.45 2.1-6.7t.45-4.1q-.65-1.25-.6-1.55.05-.45 2 .95 3.05 2.25 4.85 4.25 2.75 3.15 4.2 7.2.65-1.25.95-4.55.25-2.85.1-3.45l.2-1.95q.25-1.75.5-1.5.4.4.45 3.2.9 3.9 3.1 8.5 3.5 7.4 8.35 11.2 2.4 1.9 2.05 2.05-.4.2-3-1.4-2.6-1.55-5.85-6.35-3.3-4.85-4.55-9-.55 3.75-1.25 5.2l-.65 1.55q-.3 0-1.55-2.8-1.35-3.1-3.9-6.4-2.65-3.3-4.15-3.7-.9 6.5-2.75 11.1l-.7 1.4q-.3.15-.95-1.4-1.7-4.15-5.4-9-2.75-3.55-5.35-6.05l-.15 3.2q-.25 3.4-.85 5.4-.7 2.3-1.2 2.15-.5-.2-1.15-2.85-.6-2.6-5.25-9.3-4.65-6.75-6.95-8.3m-81-74 .3.25Q24.1 12.25 32 26.7q.55 1.65-.65 2.15-.9.45-5.25 4.1-4.5 3.75-5.8 5.3-.7.9-1-.15-1.6-5.9-1.1-14.55.5-7.8 2.25-12.8.3-.9.7-.85"/><path fill="#0d131a" d="M18.65 27.4q0-4 .7-8.1.7-4.05 1.9-7.2 2.55 2.95 9.5 15.45-2.05.95-5.7 4.3l-5 4.9q-1.4-3.75-1.4-9.35m50.7-23.5q.85-.75 1 .5.75 2.4 2 13.35 1.2 10.9.95 12.75l-.1.85q-.25.6-.95-.55-.85-1.4-5.6-4.55-4.85-3.25-7.4-4l-.65-.2.3-.6Q65.25 7.4 69.35 3.9"/><path fill="#0d131a" d="M69.15 5.55q2.6 18 2.95 23.25-2.25-2.45-5.65-4.7-3.2-2.15-5.8-3.15 5.9-12.6 8.5-15.4M86.6 71.1q1.3.3 3.85-.6 2.3-.75 3.6-1.7 1.15-.75 1.35-.35.15.35-.6 1.3-.95 1.2-3.9 2.2l-6.1.15q-2.3-.9-.45-1.05z"/><path fill="#0d131a" d="m81.25 46.1-.05.35q-.3 6.1-.3 10 0 8 1.35 11.45v.15q.75 2.55.55 5.2-.2 2.5-1.1 3.65l1.3.9q.95.6.9 1.1-.05.9-2.5 5.25l3.5 2.1q2.95 1.85 2.7 2.25l-2.5 2.05-2.8 1.95 1.5 2.3 1.65 2.75.6 1.05q.05.35-1.2.7l-6.5 1.5-1 8.65q-.15 1.65-.6 1.95l-1.6-.1q-3.1-.65-5.15-1.5-2.3-.95-4.4-2.5l-1.4 6.05-1.25 5.2q-.3 1.05-.75.85l-1.3-1q-2.6-1.8-5.5-4.5-3.55-3.25-5.8-6.3l-3.15 4.15q-2.8 3.7-3.35 4.85-1 2.1-2-.15-.7-1.7-1.45-6.55l-.7-5.25-2.2 1.3-2.4 1.65q-.75.75-1.05.8-.4 0-.5-.8-.75-4.2 1.1-7.9l-6.9-.45-2-.3q-.3-.2.8-.85l3-2.6 2.4-2.35-4.65-2.6-3-2.1Q22.1 87.5 22 87.2q-.05-.4 1.45-.55L27.3 86l3.05-.75-13.45-13.5q-.95-1.15-.7-1.55.25-.3 1.7-.5l5.1-1.15 4.95-1.15q-3-4.6-5.05-9.15-2.1-4.65-4.5-12-.5-1.55-.05-1.9l2.3.1L33.8 46.8l15.95 2.85q1.5-3.55 2.7-11.05 1-6.35.9-8.15-.1-1 .35-.9l1.55.85q5.45 3.1 9.95 7.85 4.1 4.35 6.55 9.15l3.95-2.7q2.4-1.9 3.65-3.65l.55-.55.45 1.3q.9 2.4.9 4.3"/><path fill="#3e4e57" d="M81.55 71.6q0 3.65-1.1 4.45l-.05.75 2.3 2.35-2.55 5.35 5.7 3.95-5.2 3.25 3.6 6.45-6.05 1.35-.3.05q-1.15.35-1.05 1.05l-.25 3.9-.35 5.85q-8.35-3-10.35-4.95-.65-.65-1-.5-.4.15-.6 1.25-1.3 7.5-2.45 11.5-1.85-1.2-6-5.7-3.9-4.3-4.8-5.95L50 104.55q-.2-.1-.8.6-.7.85-6.9 10.25-.85-2.25-1.25-7.1-.3-3.85-.2-5.7l-.1-1.15q-.1-.05-.85.55l-6.1 4.7q.05-1.8.75-3.9.6-1.75 1.4-3.05.75-1.05.7-1.3t-.85-.2l-7.75-.15-.7-.05 3.2-2.55 2.95-2.1.9-.6q.05-.3-1.25-.65-1.45-.4-4.35-1.95l-4.35-2.75q7.55-.8 7.9-1.8v-.35l-.15-.35-6.55-6.3q-5.85-5.7-7.4-7.85l5.95-1.25 5.15-1.2 1.2-.35q.05-.25-.95-1.4-1.2-1.3-3.15-5.2-2.15-4.3-4.25-10l-.85-2.4q-.75-2.35-.35-2.25l7.7.9q7.1.8 20.25 3.25 1.05.2 1.55 0 .65-.25 1.05-1.45 1-3.05 2-7.9Q54.7 36.1 55.1 32q5.2 2.8 10.15 8.5 4.05 4.7 5.2 7.6.3.8.9.8l1.75-.75q3.15-1.7 6.55-5.25.6 1.95.6 3.2v.3q-.35 7.1-.35 10 0 8.1 1.4 11.8z"/><path fill="#1d303a" d="M77.2 97q-2.75 1.45-6.1 1.85Q59 100.3 49.2 93.2l6 .2 7.95.25q10.4-.5 14-7.8 1.7-1.15 2.5-3.55l.95-5.3 2.1 2.15-2.55 5.35 5.7 3.95-5.2 3.25 1.1 2q-2.4 2.15-4.55 3.3m4.1-28.8.25 3.4q0 2.95-.85 4.2-4.85-7.55-4.75-10.05.1-1.45 4-5.9.25 5.4 1.35 8.35"/><path fill="#0d131a" d="m39.4 82.4-.2-1q0-2.55 2.3-6.7 1.05-2.05 1.85-.1l4.4 9.95-.65.1-3.35.1q-3.35-.35-4.35-2.35"/><path fill="#fff" d="M40.2 81.4q0-.95 1-3.65t1.2-2.45l3.85 8.45q-4.85.35-5.95-1.8z"/><path fill="#dbdcdc" d="M46.25 83.75H44.2q-1.7-4.45-2.05-8.25l.25-.2z"/><path fill="#0d131a" d="M75.25 75.4q2.1-.05 3.15.7.8.55.85 1.3.15 3.5-1.65 5.55-1.5 1.75-3.85 2-2.5.25-5-1.35-2.55-1.65-2.6-3.75 0-1.7 3.4-3.1 3-1.25 5.7-1.35"/><path fill="#d83338" d="M78.25 77.45q.25 2.6-1.1 4.45-1.35 1.8-3.5 2.05-1.95.2-3.8-1.2-1.8-1.4-1.85-3.1 0-1.8 5.05-2.8t5.2.6"/><path fill="#0d131a" d="M38.2 81.35q-.4-1.2-.25-1.65.15-.55 1.25 1 2.75 3.75 7.2 3.25 5-.7 6.3 0 2.35 1.25 6.6 2.7 4.15 1.4 5.5 1.45 4.35.2 11.45-2.65l.25-.1q1.1-.45 2.15-3.55.85-2.5 1.25-5.4.15-.85-2.75-6.05-3.1-5.55-3.25-6.25l1.9 1.75q5.8 8.85 5.5 10.7l-1.15 4.85q-1.4 4.3-3.2 5.05l-.25.1q-8.25 3.3-11.85 3.15-1.5-.05-6-1.75-4.1-1.6-6.7-2.95l-4-.15q-4.25.85-7.25-.8-2.15-1.15-2.7-2.7"/><path fill="#0d131a" d="m49.35 92.45 9.7.5 8.7-.5q2.9-.65 5.55-2.6 2.7-2 2.7-3.5h1.2q0 2.1-3 4.55-2.95 2.35-6.15 3l-7.9.45-9.35-1q-2.1-.35-2.65-.75-.5-.35 1.2-.15m29.9-42.9q.2 0 .25.35l.2.75q1 2 .9 7.75-.1 6.35-2 7.9l-3.5-.1q-.65-.5-1.25-2.15-1.2-3.3-1.05-9.2-.05-.8 2.95-3.1 2.85-2.2 3.5-2.2"/><path fill="#ffe100" d="M79 50.95q.8 1.5.8 6.15 0 2.85-.45 5.05-.5 2.55-1.45 3.35-1 .8-2.55-.5-1-1.45-1.45-5.45l-.25-4.45q.45-.85 2.6-2.55 2.2-1.65 2.75-1.6"/><path fill="#dcc200" d="M73.65 55.1q.45-.85 2.6-2.55 2.2-1.65 2.75-1.6l.6 2.6q-.75-.75-2.75.3l-3.2 2.05z"/><path fill="#0d131a" d="m77.4 51 .4-.25.05.5q1.2 4 .85 8.3-.5 5.2-3.4 6.1l-.25.05-.15-.2-.05-.05q-.9-1.3-1.55-5.75-.7-4.45-.1-5.05.05-.45 1.55-1.7 1.4-1.2 2.65-1.95"/><path fill="#d83338" d="M77.3 51.85q.85 3.95.4 7.75-.5 4.2-2.4 5.3-.95-1.5-1.4-5.5l-.25-4.3q.25-.5 1.4-1.45z"/><path fill="#b7272d" d="m77.3 51.85.2 1.45q-.75-.55-2 .7l-1.85 2.15V55.1q.25-.5 1.4-1.45z"/><path fill="#0d131a" d="M77.7 56.55q0 1.6-.6 2.75-.65 1.15-1.5 1.15-.9 0-1.5-1.15-.65-1.15-.65-2.75 0-1.65.65-2.8.6-1.15 1.5-1.15.85 0 1.5 1.15.6 1.15.6 2.8"/><path fill="#fff" d="M76.85 56.55q0 1.1-.4 1.85-.4.8-.95.8t-.95-.8q-.4-.75-.4-1.85t.4-1.85q.4-.8.95-.8t.95.8q.4.75.4 1.85"/><path fill="#0d131a" d="M40.05 72.75q-3.6-.45-5.85-2.4-5.35-4.65-4-15.9l-.45-.35q-.4-.4-.3-.55 2.8-2.05 11.85-.15 9.1 1.95 9.7 4.95.8 3.9-.45 8.6-1.25 4.65-3.15 5.2-3.9 1-7.35.6"/><path fill="#ffe100" d="M31.2 54.2q4.3-.45 11.25 1 7.3 1.5 7.65 3.3.75 3.75-.3 8.25-1.05 4.3-2.6 4.75l-6.8.45q-3.2-.55-5.35-2.4-4.1-3.65-4.1-11.45z"/><path fill="#dcc200" d="M39.6 56.75q-6-.65-8.65.55l.25-3.1q4.25-.4 11.1 1 7.15 1.45 7.75 3.2z"/><path fill="#0d131a" d="M38.95 67.3q-4.15-5.2-2.05-13.6l6.8 1.2q6.85 1.6 7.05 3.5.9 7.75-2.05 12-5.85 1.75-9.75-3.1"/><path fill="#d83338" d="M38.15 54.5q4.9.65 8.3 1.8 3.45 1.1 3.65 2.2l.3 2.95q0 5.1-1.8 8-4.85 1-7.95-2.3-2.9-3.1-2.9-8.15 0-2.35.4-4.5"/><path fill="#b7272d" d="m37.9 56.45.25-1.95q4.9.65 8.3 1.8 3.45 1.1 3.65 2.2l.15.9q-.6-1.35-5.35-2.3-4.35-.9-7-.65"/><path fill="#0d131a" d="M49.9 60.25q0 2-1.15 3.35-1.15 1.4-2.8 1.4-1.75 0-3.1-1.4-1.4-1.4-1.4-3.35 0-1.9 1.4-3.35 1.4-1.4 3.1-1.4 1.65 0 2.8 1.4t1.15 3.35"/><path fill="#fff" d="M48.65 60.25q0 1.35-.8 2.3t-1.9.95-1.9-.95-.8-2.3q0-1.3.8-2.25t1.9-.95 1.9.95.8 2.25"/><path fill="#0d131a" d="M73.9 32.95Q69.85 28 59.1 22.65q-2-1-1.95-1.2 0-.25 2.2.55 4.1 1.4 9.15 4.95 4.15 2.95 6.55 5.55z"/></svg>