<svg xmlns="http://www.w3.org/2000/svg" width="279" height="293" viewBox="-1.1 -0.35 278.85 292.95"><path fill="#0d131a" d="M41.85 161.95q-.15-4.2-.45-5.65l-.3-1.7 1.45.95q11.9 8 20.25 17.7 6.15 7.2 11.9 17.4 4.8 8.45 5.65 11.45.85 2.9-.35 6.9-1.55 5.4-3.1 12.1-2.35 10.4-2.35 14.9l.25 8.8q-.05 3.75-1.6 5.7l-7.25 8.75q-5.9 6.65-8.6 7.65-3.25 1.15-8.5-.7-5.3-1.85-7.05-4.75-4.85.7-7.95-1.2-1.95-1.15-2.9-3.1-1.3.1-2.4-.6-1.35-.75-2.45-2.45-1.25-1.85-1.7-4.05-.85-4.5 2.1-6.8 1.8-1.35 7.15-2.9 5.4-1.55 7.45-3.25 2.8-2.3 5.6-7.6 3.85-7.25 5.15-16.25 1.15-7.8-1.7-15.05-1.25-3.3-4.7-8.6l-2-3q-.45-.85-.6-5.25l-.6-11.45z"/><path fill="#30353a" d="m78.15 207.05.25.2-.35 1.25q-1.2 4-2.85 12.3-2.15 10.5-2.15 15.2l-.25 8.85q-.45 4-1.9 5.8-4.15 5.2-7.75 8.85-4.3 4.4-6.45 5.15l-7.75-.35q-5-1.4-6.15-3.9l-.25-.5-.55.1q-5.15.8-8-1.35l-1.9-2.5-.2-.7-.7.2q-.95.25-1.95-.35-1.9-1.15-2.65-5.2l-.15-1.35q0-2.9 2.95-4.6 1.75-1.05 6.55-2.4l4.2-1.35q2.1-.8 3.3-1.8 2.6-2.15 5.25-8.15 3.25-7.35 4.6-17l.35-4.85q0-2.95-.45-5.6l.2-.7q1.25-4 1.45-6.25l1.9 5.5 2 5.6q1.05 3.6 1.65 3.45.5-.15 1-3.8l.2-3.25q.05-1.8.4-3.15l.95 1.45 1 1.3q1.15 2.05 2.1 2.3 1.05.3 1.25-2l.4-3.45q1.6 2.45 2.4 5.15l1.3 5.6 1.25 4.9q.3 1.3.5 1.2l.55-1.1.2-.7q1.15-3.45 2.45-5.75 1.15-2.15 1.8-2.25"/><path fill="#30353a" d="m78.15 207.05.25.2-.35 1.25q-1.2 4-2.85 12.3-2.15 10.5-2.15 15.2l-.25 8.85q-.45 4-1.9 5.8-4.15 5.2-7.75 8.85-4.3 4.4-6.45 5.15-2.25.8-5.95.1t-6.1-2.35q4.15-5.2 13.95-9.6 4.15-1.85 5.55-2.9 2.2-1.65 2.2-3.85 0-9.9-2.9-17.4-3.2-8.15-10.2-14.65l.05-.55.35-4.85q0-2.95-.45-5.6l.2-.7q1.25-4 1.45-6.25l1.9 5.5 2 5.6q1.05 3.6 1.65 3.45.5-.15 1-3.8l.2-3.25q.05-1.8.4-3.15l.95 1.45 1 1.3q1.15 2.05 2.1 2.3 1.05.3 1.25-2l.4-3.45q1.6 2.45 2.4 5.15l1.3 5.6 1.25 4.9q.3 1.3.5 1.2l.55-1.1.2-.7q1.15-3.45 2.45-5.75 1.15-2.15 1.8-2.25m-45.65 40q1.75-.55 3-.4l-2.8 1.1q-1.15.55-1.9 3.6l-.55 2.95-1.1.95-1.45-1.15q-.75-.8-1.1-2.1 2.4-3.8 5.9-4.95"/><path fill="#30353a" d="M43.65 252.95q-.85.7-.95 2.7l.1 1.8-1.2 2.6q-4.3.6-7-1 2.7-5.4 8.4-7.5 2.85-1.05 5.15-1l-1.7.8q-1.9.9-2.8 1.6"/><path fill="#d3d9db" d="M43.1 157.75q11.1 7.7 19 17 5.85 6.9 11.35 16.6 3.1 5.5 4.3 8.35 1.1 2.75 1.1 4.6l-.1 1.45-.75-.15q-2.2.25-4.65 6.75l-.55-1.95-1.45-6.4q-.9-2.9-3.3-5.75l-.45-.6-.7-.6q-.2.05-.3.85-.65 4.15-.65 5.65l-.7-1-1.65-2.05q-1.15-1.5-1.55-2.65-.8-2.2-1.05-1.25l-.25 2.7-.45 2.85q-.45 2.15-.5 4.15-2.75-9.1-5.05-14.55-.65-1.4-.85-1.25-.4.2-.4 3.8 0 2.45-.95 5.75-1.55-5.7-5.5-11.6l-.8-1.3q-.75-1.4-2-17.2z"/><path fill="#adb2b4" d="M59.05 171.35q7.75 8.2 14.4 20 3.1 5.5 4.3 8.35 1.1 2.75 1.1 4.6l-.1 1.45-.75-.15q-2.2.25-4.65 6.75l-.55-1.95-1.45-6.4q-.9-2.9-3.3-5.75l-.45-.6-.7-.6q-.2.05-.3.85-.65 4.15-.65 5.65l-.7-1-1.65-2.05q-1.15-1.5-1.55-2.65-.8-2.2-1.05-1.25l-.25 2.7-.45 2.85q-.45 2.15-.5 4.15-2.75-9.1-5.05-14.55-.65-1.4-.85-1.25-.4.2-.4 3.8 0 2.45-.95 5.75-1.2-4.35-3.6-8.6 3.6-10.5 10.1-20.1"/><path fill="#0d131a" d="M48 250.1q4.95-1.55 6.25-2.55.9-.65 1.1-.55l-.45.75-2.7 1.85-3.15 1.45q-3.25 1-4.3 2.05-1.6 1.7-1 5.5l-1.7.1q-.65-4.1.6-5.8 1.1-1.45 5.35-2.8m-22.15-3.05 1.65-.3q1 .05 1.6.5 1.3 1.1 2 3.6.65 2.25.3 3.75-.3 1.1-1.1 1.35l-3.95 1.2q-3.2 1.05-4.75 1.9-1.4.75-1.8.55-.35-.2-.35-1.4.05-3.7 2-6.9 1.8-3.05 4.4-4.25"/><path fill="#fff" d="M26.95 248.25q.8-.45 1.65.65.7.9 1.1 2.35l.3 2.35-.15.95-3.95 1.25q-3.2 1.05-4.95 1.95.25-3.1 2.05-5.85 1.75-2.65 3.95-3.65"/><path fill="#0d131a" d="M43.15 244.95q1-.45 1.2-.35l-.75.8q-1.65 1.15-6.3 1.85-3 .4-4.1 1.2-.95.65-1.65 2.5-.7 1.9-.05 2.8l-1.25.55q-.85-1.3-.3-3.65.6-2.25 1.8-3.1.85-.6 2.4-.85l2.55-.35 3.25-.55z"/><path fill="#0d131a" d="M32.1 252.15q1.7-.8 3.85.05 2 .8 3.1 2.4 1 1.45.85 3t-1.35 2.7q-.6.55-5.7 3.15l-4.95 2.6q-1.5.9-1.9.75t-.35-1.5q.1-3.95 1.95-7.9 1.95-4.05 4.5-5.25"/><path fill="#fff" d="m33.15 253.55 2.55.1q1.3.6 2.15 1.8.6 1.05.6 1.85 0 1.1-.9 1.95l-5.35 2.9-5.05 2.7q.25-3.4 2.05-6.85 1.85-3.5 3.95-4.45"/><path fill="#0d131a" d="M38.45 271.15q-.4-.1-.35-1.75.05-4.1 1.7-8.25 1.7-4.4 4.1-5.7 1.05-.55 2.75-.4t3.05.95q1.55.95 2.6 2.4 1.2 1.65 1.2 3.2v.15q-.1 1.95-2.05 3l-4.45 2.2q-4.6 2.2-6.45 3.3-1.75 1-2.1.9"/><path fill="#fff" d="M45.45 256.75q1.4-.75 3.45.5 1.35.85 2.25 2.05.9 1.25.9 2.35l-.05.05q0 1.15-1.25 1.75l-4.35 2.2q-4.95 2.35-6.8 3.45.25-3.55 2-7.35 1.8-3.9 3.85-5"/><path fill="#0d131a" d="M165.3 159.1q.65 3.35 2.5 6l2.85 3.4q1.8 2.3 1.8 4.15l-.5 2.5-.95 3.65-2.35 9.85q-1.25 6.5-.7 11.2.85 6.8.9 9.75.15 4.75-.95 7.45-1 2.35-3.6 5-2.65 2.65-4.55 3.15-3.1.7-6.3-.5-3.45-1.3-4.55-3.9-4.45 0-8.2-1.6-2.3-.95-3.9-2.25-3.8.9-5.9-.7-1.95-1.35-1.85-4.55.05-2.95.95-4.05.65-.75 2.85-1.35 3.85-1.05 7.1-3 1.85-1.15 3-9.75 1.3-9.75-.45-18.55-.15-.85-2.4-1.7l-4.65-1.45-6.1-1.95q-3.2-1.35-4.65-3.05-1.1-1.15.3-3.7 3.2-5.65 12.25-11.25 10.15-6.25 17.55-5.1 8.4 1.45 10.5 12.3"/><path fill="#30353a" d="M166.9 188.5q-1 6.55-.4 11.5.65 5.7.65 9.05-.05 4.1-1.15 6.7-1.05 2.45-3.05 5-2.2 2.7-3.55 3-2.65.65-5.6-.5-3.05-1.2-3.75-3.4l-.15-.55h-.55q-4.8.1-8.8-1.75l-3.05-1.95-.35-.3-.4.15-1.85.3q-2 .15-3.15-.65-1.25-.95-1.25-3.2v-.15q.05-2.4.5-3.05.4-.5 2.25-1 3.8-.95 7.45-3.15 1.65-1.05 2.9-6.6 1.3-5.75 1.3-12.6 0-5.65-.95-10.6-.3-1.45-2.6-2.5-1.45-.65-5.5-1.8l-5.75-1.85q-3.05-1.25-4.3-2.7l-.1-.35q0-.6.55-1.7 2.85-5 11.45-10.5 9.85-6.2 16.85-5.1 7.4 1.2 9.3 11.15.75 3.7 2.2 6.55l2.5 3.85 1.15 1.65.45 1.5-1.1 5.5q-1.55 6.15-2.15 10.05"/><path fill="#0d131a" d="M164.95 159.2q.7 3.5 2.1 6.2.8 1.55 2.4 3.7l.9 1.2-.05 5.75-1.05-.75q-1.2-.8-1.75-1.85l-.8-1.9-.9-1.6q-.95 2.05-1.2 4.7l-.2 5q0 2.8-.35 3-.4.2-1.35-2.75-1.05-3.15-4.7-6.8-3.65-3.7-8.3-6.3l-3.8-2.25q1 4.25 1 6.7 0 4.7-3.05 6.45l-.55.25-.5-3q-.15-.95-2.35-1.85l-4.9-1.55q-4.15-1.2-6.05-1.95-3.2-1.3-4.6-2.95-.9-1.05.4-3.35 3.15-5.6 12.1-11.15 10.05-6.2 17.35-5 8.15 1.3 10.2 12.05"/><path fill="#adb2b4" d="M169.5 170.55q.5.6.65 1.7.15 1.25-.25 2.5-1.1-.8-2.45-3.55l-1.7-3-.35.7q-2 4-2.2 8.55-1.5-3.55-5.4-6.55-2.4-1.85-7.7-4.8l-5.4-3.2.2.95q1.15 4.6 1.15 7.4 0 3.7-2.15 5.35l-.3-1.8q-.25-1.3-2.55-2.3-1.35-.6-5.3-1.75l-5.85-1.85q-3.1-1.25-4.35-2.75l-.2-.6q0-.75.65-1.85 2.9-5.1 11.55-10.6 9.95-6.3 17.05-5.15 7.6 1.2 9.55 11.4.75 3.6 2.2 6.45.8 1.65 2.45 3.8z"/><path fill="#0d131a" d="M208 107.2q6.1 7.45 6.15 18.8.05 10-4.35 19.35-3.25 6.85-7.8 10.75t-9.35 3.9q-10.8 0-20.85 6.3-5 3.1-16.8 13.5l-10.25 9q-5.95 4.85-10.8 6.95-7.25 3.15-18.15 3.9-8.15.55-13.6-.2 2.05 1.85 6.25 4.5 2.15 1.4.65 1.5-1.65.1-8.25-1.7l-8.25-2.35 2.3 2.4q2.2 2.2 1.7 2.55-.45.3-3.25-.6l-14.6-4.9q-7-2.25-18.05-11.5-11.55-9.65-13.95-16.1-6-16-10.35-24.6-9.15-18.4-10.5-22-4.05-11-4.55-17.95-.45-7 2.65-10.65 4.25-5.05 16.35-4.6 7.6.3 28.45 4 28.35 5.1 44.2 6.15 27.15 1.8 49.15-3.7 18.5-4.65 30.95-1.6 9.5 2.35 14.9 8.9"/><path fill="#d3d9db" d="M208.9 144.9q-3.05 6.5-7.45 10.3-4.35 3.8-8.8 3.8-11.1 0-21.7 6.25-6.35 3.75-17.5 13.6-7.05 6.15-10.1 8.45-5.65 4.3-10.6 6.4-8.85 3.85-18.95 4.7l-16.45-.7q-1.4-.25 2.05 1.95l4.85 3.25-11.5-2.7-4.8-1.35 4.65 4.65q-6.1-2.3-11.7-3.95-6.65-1.95-18.4-12-12-10.25-14.35-16.5-1.65-4.5-10.85-22.85-8.85-17.75-10.45-21.9-4-10.65-4.5-17.4t2.4-10.2q3.95-4.8 16.15-4.2 7.55.35 27.7 3.95 28.45 5.1 44.4 6.15 27.25 1.75 49.4-3.75 18.15-4.55 30.35-1.6 9.25 2.25 14.45 8.6 5.95 7.2 6 18.25.05 9.7-4.3 18.8"/><path fill="#adb2b4" d="M213 129.95q-.75 7.85-4.1 14.95-3.05 6.5-7.45 10.3-4.35 3.8-8.8 3.8-11.1 0-21.7 6.25-6.35 3.75-17.5 13.6-7.05 6.15-10.1 8.45-5.65 4.3-10.6 6.4-8.85 3.85-18.95 4.7l-16.45-.7q-1.4-.25 2.05 1.95l4.85 3.25-11.5-2.7-4.8-1.35 4.65 4.65q-6.1-2.3-11.7-3.95-6.65-1.95-18.4-12-12-10.25-14.35-16.5l-.55-1.4q10.55 7.5 19.4 12.15 11.5 6 18.2 6 4 0 13.2-7.5 5.85-4.75 18.7-16.9 13.85-13.1 19.65-18.05 10.45-8.85 16.05-10.8 8.75-3.05 60.2-4.6"/><path fill="#0d131a" d="M165.3 134.35q7.15-2.6 16.55-2.4 10.65.25 18.1 3.3 13.45 5.6 16.4 19.65 1.05 5 6.55 7.6l3.9 1.8q1.95 1.2 2.3 3.55l.55 8.05.9 12.8q.75 8.5 2.15 13.9l1.25 3.6q2.25 4.5 2.15 8.2-.15 3.8-2.85 8.35l-1.15 1.95-3.25 6.2q-2.2 3.5-4.5 4.35-3.05 1.05-6.95-.6-3.8-1.7-5.45-4.65-4.55.65-7.7-.15-2.05-.5-3.2-1.55l-2.8.75q-2.15.25-3.7-.6-2.25-1.2-2.7-4.65-.45-3.5-.05-4.65t2.5-2.05l3.3-1.35q2.4-1.15 4.5-2.9 1.9-1.55 2-11.25.15-11.05-3.1-20.5-.3-.9-3.1-1.3l-5.6-.6-7.2-1.15q-3.95-.9-5.75-2.45-1.75-1.55-5.1-7.2l-6.6-11q-7.2-11.55-10.45-15.7l-.25-.25.1-.35q1.1-4.1 8.25-6.75"/><path fill="#30353a" d="M181.85 133.4q9.5.2 17.25 3.8 12.75 5.85 15.6 19.3.65 3.2 2.9 5.2l4.35 2.6 3.35 1.95q1.5 1.25 1.8 3.2l.5 5.6q1.3 18.95 3.7 27.95l1 3.55q1.6 5.15 1.7 7.7.2 4-2.05 7.75l-1.1 2-3.3 5.5q-2.25 3.1-4.25 3.8-2.7.95-5.9-.4t-4.4-4l-.2-.5-.55.1q-5.15.85-8.3-.2l-2.1-1.25-.35-.5-.6.25-2 .65-3.65-.25q-1.65-.9-1.95-3.55l-.15-2.05q0-1.3.6-1.85.4-.45 2-1.1 4.45-1.95 7.75-4.65 1.1-.9 1.7-4.15.6-3.2.6-7.75 0-11.65-3.45-21.5-.5-1.5-3.2-2.3l-6.3-1.15-6.7-1.15q-3.55-.85-5.2-2.25-1.85-1.65-5.35-6.8l-6.7-10.35q-7.15-11.3-10.3-15.4 1.15-3.4 8-5.7t15.25-2.1"/><path fill="#30353a" d="M224.6 194.05q-4.45-21.2-11.95-29.3-2.55-1.55-12.9-14.6-10.6-13.3-11.05-16.1 8.95 1.5 15.2 5.85 8.55 5.95 10.8 16.6.65 3.2 2.9 5.2l4.35 2.6 3.35 1.95q1.5 1.25 1.8 3.2l.5 5.6q1.3 18.95 3.7 27.95l1 3.55q1.6 5.15 1.7 7.7.2 4-2.05 7.75l-1.1 2-3.3 5.5q-2.25 3.1-4.25 3.8l-3.85.25q-2.05-.4-3.75-1.6.8-2.6 5.2-6.7 4.65-4.3 5.7-6.9.85-2.05.3-8.95-.55-7.1-2.3-15.35"/><path fill="#30353a" d="M207.8 227.35q2.85-5.9 8.45-5.9-2.8 1.8-3.6 2.75-1.7 1.9-.7 4.3l-4 .35q-.15-.5-.15-1.5m-11 .3q-1.85-3.8.75-6.35 2.55-2.45 7.8-2.35-2.9 1.3-4.5 3.65-1.1 1.7-1.95 4.85z"/><path fill="#0d131a" d="M165.55 134.6q7.2-2.6 16.3-2.4 9.8.2 17.85 3.95 13.2 6.15 16.15 20.1.6 2.75 2.45 4.45l1.2 1.1q0 1.35 1.7 4.75l1.05 1.75-1.55-.2-1.45-.15q1.95 3.7 1.95 7.55l-.1 1.4-.45 1.55-1.05-1.45q-1.55-2.8-3.75-4.95l-5.2-4.35 2.6 5.5q.95 2.15 1.6 4.7l1 3.95q0 .65-2.15-1.65-2.3-2.8-3.15-3.5-1.15-.95-3.7-1.3l1.7 1.85 1.2 2.3q.75 1.5.6 1.65-.1.1-1.5-.55-3.25-1.55-5.75-2l-6.85.2h-.1l-3.45-.5-7-1.2q-3.75-.95-5.55-2.55-1.9-1.7-5.4-6.8l-6.85-10.55q-7.55-11.9-10.5-15.7l-.1-.2.05-.2q1-3.9 8.2-6.55"/><path fill="#d3d9db" d="M181.85 133.1q9.55.2 17.4 3.85 12.9 5.95 15.75 19.5.6 2.95 2.6 4.8.15 1.9 2.95 5.9l-2.05-.05-.7.1.4.6q.75 1.2 1.35 3.25.75 2.4.75 4.5l-.1.8q-1.65-2.95-4.3-5.65l-5.75-5.1-1.9-1.45q-1.75-1.05-.85.8l3.05 6q2.2 4.25 3.05 6.55-3.5-3.4-7.5-3.9-1.45-.15-1.55.25-.15.35 1 1.3 1.3 1.35 2.4 3.6-2.75-1.25-5.3-1.45-2.8-.25-6.4.65l-3.35-.5-6.75-1.15q-3.65-.9-5.3-2.35-1.85-1.65-5.3-6.7l-6.8-10.5q-7.1-11.3-10.35-15.55 1.1-3.5 8.05-5.9t15.5-2.2"/><path fill="#adb2b4" d="M166.35 135.3q6.95-2.4 15.5-2.2 9.55.2 17.4 3.85 12.9 5.95 15.75 19.5.6 2.95 2.6 4.8.15 1.9 2.95 5.9l-2.05-.05-.7.1.4.6q.75 1.2 1.35 3.25.75 2.4.75 4.5l-.1.8q-5.55-9.85-12.95-15.2-15.7-11.3-40.75-7.8-5.05-7.95-8.2-12.15 1.1-3.5 8.05-5.9"/><path fill="#0d131a" d="m214.5 221.6 2.5-1.55 2.4-2.05q.85-1.15 1.05-.95.25.2-.35 1.2-1.05 1.8-4.65 4.1-2.2 1.45-2.6 2.3-.65 1.15.1 3.55l-.9.25q-1.45-2.5-.55-4.15.55-1.05 3-2.7m-20.95-.2 3.05-.3q1.85.15 2.8 1.05 1 .9 1.55 2.7.5 1.5.5 2.75l-.1.65q-.2.7-.75.85l-5.6 1.7-6.5 2.35q-1.45.65-1.75.5-.35-.15-.3-1.3.2-3.45 2.35-6.75 2.1-3.3 4.75-4.2"/><path fill="#fff" d="m200.55 227.6-.05.4-.1.2-5.15 1.4q-5.45 1.55-7.45 2.55.15-3.1 2.35-6.1 2.1-2.85 4.65-3.7 2.05-.7 3.7.9.9.9 1.5 2.25.55 1.2.55 2.1"/><path fill="#dbdcdc" d="M188 230.75q3.75-4.35 11.4-6.4 1.15 1.75 1.15 3.25l-.05.4-.1.2-5.15 1.4q-5.45 1.55-7.45 2.55z"/><path fill="#0d131a" d="m203.6 219.3 2.6-1.15 2.45-1.75 1.05-.8q.3 0-.35 1.05-.75 1.15-2.4 2.2-1.45.95-2.65 1.3-1.35.4-1.9.8-.9.6-1.3 2.35t.2 2.7l-.75.5q-.85-1.3-.6-3.4.3-2.1 1.45-2.9.9-.6 2.2-.9"/><path fill="#0d131a" d="M202.55 223.75q2.3-1.15 4.9-.3 2.4.85 3.5 2.9.95 1.9.95 2.7l-.35.8-.7.55-5.25 2.6-7.6 4.2-1.75.7q-.3-.1-.25-1.35.1-3.75 2.15-7.75 2.05-3.9 4.4-5.05"/><path fill="#fff" d="M205.2 232.2q-5.65 2.65-7.85 3.95.1-3.4 2.15-6.9 1.95-3.4 4.15-4.5l3.9.1q1.15.65 1.95 1.85 1 1.45 1 2.55l-.1.35z"/><path fill="#dbdcdc" d="M209.5 226.7q1 1.45 1 2.55l-.1.35-5.2 2.6q-4.95 2.35-6.35 3.15 3.6-6 10.1-9.4z"/><path fill="#0d131a" d="M209.55 240.8q-.6-3.9-.05-7.5.65-4.35 2.8-6.2 1.65-1.4 4.85-1.3 3.1.15 4.75 1.55 1.05.9 1.25 2.45.15 1.45-.55 3.05l-10.9 8.45q-.85.65-1.45.5t-.7-1"/><path fill="#fff" d="M221.8 232.35q-3.4 1.8-10.35 7.65l-.6.45-.15-2.15q0-3.15.85-6.35.8-3.05 1.75-3.65 1.6-1.1 4.05-1 2.45.05 3.85 1.2 1 .9 1 2.15 0 .75-.4 1.7"/><path fill="#dbdcdc" d="M222.2 230.65q0 .75-.4 1.7-3.55 1.9-10.05 7.4 1.05-3.7 3.6-6.65 2.55-3 5.9-4.55.95.9.95 2.1"/><path fill="#30353a" d="M156.6 209.15q.75-1.15 1-.2.25 1-.7 1.9l-2.9 2.2q-2.2 1.7-2.75 2.45-.65 1-.65 3.05h-.8q0-2.3.8-3.5.6-.9 2.9-2.65 2.15-1.75 3.1-3.25"/><path fill="#0d131a" d="M143.9 212.55q2.1-.65 3.7.5 1.35 1 2.05 3 .45 1.3.4 2.4 0 1.2-.65 1.45-4.4 1.65-8.4 3.55-1.4.7-1.7.55-.25-.1-.15-1.15.95-9.1 4.75-10.3"/><path fill="#dbdcdc" d="M144.15 213.3q1.65-.5 2.7.4l1.25 1.85q.65 1.45.65 2.8l-.15.8q-4.5 1.75-8.65 3.95.9-8.7 4.2-9.8"/><path fill="#0d131a" d="M159.95 217.05q1.45 1.65 1.05 4.35-.4 2.35-1.35 2.65-1.35.6-4.95 2.3-2.75 1.35-4.1 1.8l-2.05.4q-.6-.15-.65-1.4 0-3.45 1.05-6.8 1.2-3.85 3.1-4.75 1.7-.8 4.1-.45 2.5.4 3.8 1.9"/><path fill="#dbdcdc" d="M148.95 226.55q.1-3.25 1.1-6.05 1-3 2.45-3.7l3.45-.15q2 .5 3.15 1.8 2 2.25.05 4.05-2 1.9-9.4 4.6-.8.35-.8-.55"/><path fill="#0d131a" d="M275.7 10.4q-3.5 5.65-7.05 13-3.7 7.8-7.25 12-4.55 5.4-11.95 9.1-4.45 2.25-10.15 4l-9.25 2.45q-5.75 1.35-8 2.15-3.55 1.3-4.85 3-.15.65-.15 2.35l.05 2.75.25 7.35q0 7.9-1.95 13.5-2.7 7.75-9.7 14.25-7.1 6.65-16 6.55-7.65-.05-12.05-4.4-2.5-2.45-2.45-5.6.05-3.1 2.65-6 5.55-6.1 6.1-15.2.5-8.85-3.8-17.2-5.3-10.25-5.05-16.1.35-7.85 9.5-14.05 2.4-1.65 6.75-4.05l6.1-3.4q4.9-2.95 9-6.55 4.45-3.95 6.3-7.3T215.1.05q.45.35.05 4.35-.35 3.25-1.35 5.3l-1.65 2.7q5.05-3.35 11-5.2 6.75-2.15 12.05-1.45 5.05.7 4.35 1.3l-4.5 1.1q-4.95.95-8.35 4.9 3.7-.45 9.4-.15l9.6-.55q5.75-.8 9.25-1.95 3.5-1.2 3.85-.95T257 12.1q-4.1 4.55-8.7 6.45 6.55.6 13.85-2.4 5.7-2.3 10.45-6.1 3.9-3.1 4.5-3.05.65.1-1.4 3.4"/><path fill="#30353a" d="M248.8 43.2q-4.25 2.1-9.4 3.5l-8.85 2.1-7.55 1.85q-3.05.95-5.65 3.1-.35-3.6-1.2-4.8-.7-.95-.65 1.5l.15 3.65.05 11.15q0 8.2-1.85 14.3-2.65 8.7-9.3 14.9-6.6 6.15-14.8 6.5-7.2.25-11.05-3.55-2.05-1.9-2.05-4.4 0-2.65 2.3-5.15 3.4-3.75 5.2-8.85 1.75-4.9 1.75-10.35 0-8.05-3.7-15.15-4.25-8.25-4.25-13.9 0-4.3 2.35-7.9 2.35-3.5 7.25-6.85l10.65-6.75 7.6-4.85q3.75-2.65 6.5-5.5-.45 2.5-2 4.9l-1.4 1.85-1.65 1.8q-.95 1.4 2.6-.7 7.7-4.55 8.45-4.9 5.35-2.45 12.5-2.7-2.3 1.15-4.25 3.1-1.7 1.6-2.05 2.6l-.45 1.15 1.25-.2 10.75-.3q4.7.25 7.65.1 4.7-.25 9.85-1.5-1.8 2.35-3.3 3.2-1.4.8-5.6 1.95-5.05 1.4-3 1.55l3-.1q15.35 2.45 25.8-5.1l-3.2 6.35q-4.2 8.8-7 12.65-4.65 6.35-11.45 9.75"/><path fill="#30353a" d="M243.5 37.65q13.35-4.35 22-13.2-3.3 6.7-6.45 10.55-4.25 5.2-10.25 8.2-4.25 2.1-9.4 3.5l-8.85 2.1-7.55 1.85q-3.05.95-5.65 3.1-.35-3.6-1.2-4.8-.7-.95-.65 1.5l.15 3.65.05 11.15q0 8.2-1.85 14.3-2.65 8.7-9.3 14.9-6.6 6.15-14.8 6.5-7.2.25-11.05-3.55-1.65-1.55-1.95-3.45Q192.1 86.6 202.5 70q9.25-14.7 12.9-33.6l.95 3.2q.55 1.9 1.55 1.9 13.9 0 25.6-3.85m-221.4 41q1.15 0 3 3.45 1.8 3.35 3.5 8.55 1.45 4.4 4.2 15.25l3.25 13.6 2.7 13.95q1.95 10.75 1.95 12.35 0 3.4-.85 6.9-.55 2.25-2.1 13.1-1.7-1.65-2.75-6.95l-.75-5q-1.6 8.7-6.6 16.45-2.5 3.85-4.7 5.95 1.6-4.5 1.55-10.8l-.4-5.4q-1.3 3.5-4.35 7.6 1.45-7.2 1.5-12.3l-.25-3.6q-1.75 4.45-5 7.1-1.6 1.35-2.9 1.75 1.5-3.8 1.7-8.15l-.15-3.65q-3.85 4.3-8.55 5.65-2.35.7-3.95.5 4.85-4.3 7.55-10.6 2.7-6.35 2.7-13.3 0-3.1-1.65-10.8-1.7-7.7-1.7-9.2 0-11.35 4.25-21.85 4.25-10.55 8.8-10.55"/><path fill="#30353a" d="M11.3 95.2q2.15-7.85 5.35-12.45-2.5 5.65-3.95 12.5-1.3 6.15-1.3 10.85 0 4.25 1.85 13.8 1.85 9.6 1.85 13.8 0 3.8-2.4 8.25-2.3 4.3-6.1 7.95 2.8-4 4.3-8.85 1.5-4.9 1.5-10 0-3.1-1.65-10.8-1.7-7.7-1.7-9.2 0-7.8 2.25-15.85"/><path fill="#0d131a" d="m22.35 79.55-.85.05q-5.4 4.25-8.4 11.45-3.5 8.4-3.5 20.2 0 3.85 1.8 10.2 1.8 6.4 1.8 10.5 0 7.9-3.6 14.6-2.35 4.45-6 7.8 7.8-1.15 12.15-8.15 1.35-2.25 2.2-4.85l.65-2.4q.2-1.1.45-1.15l.85.85q4.2 6.55 7.65 7.95-5.5-8.75-8.55-19.8-2.85-10.25-2.85-19.45 0-5.35 1.05-9.35 1.05-4.15 3.05-6.2.2-.2.75.3.5.5.3.7-5.55 5.6-3.25 22.8 2.4 17.85 11.55 31.65.4.6.25.8l-.7.3q-1 .25-2.85-.75-3.2-1.75-6.7-6.8-1.15 4.2-3.9 7.85v.6q0 6.6-1.6 10.45 3.15-2.7 4.8-6.1 1.3-2.75 1.45-5.35.15-2.95.6-3.8.55-1.05.85 3.8l.3 5.75q0 5.7-1.15 10.7 2.35-4.3 2.95-7.5.2-1.25.5-1.1l.4 1.1q.55 5.3.55 7.9 0 4.85-1.15 8.75 2.7-3.15 6.1-11.15 3.15-7.3 3.35-9.75.6-5.35 1.45.1l1 6.25q.6 3.15 1.4 4.75.2-4.85 1.7-12.6l.85-5.25Q29.3 82.9 22.35 79.55M11.9 90.1q3.45-7.5 8.7-11.6 1.1-.9 2.4-.3 7.9 3.85 18.5 68l-.85 5.5q-2.15 11.15-1.8 14.75l.3 3.45q-.15.35-2-2.5-1.8-2.7-2.35-5.05l-.75-5.5q-1.35 6.2-4.5 12.25-3.15 6-6.65 9.1-1.5 1.35-1.95 1.05-.5-.35.55-2.5 1.45-3.05 2-6.15.35-2.2.35-5.5l-.05-2.45-1.65 3.45q-1.35 2.65-3.25 4.9-2.05 2.4-2.1 1.55l1-3.3q2.85-8 2.85-15.3-1.25 3.25-5.35 6.4-2.7 2.1-3.25 1.9t.6-3q1.3-3.2 1.55-8.85-5.1 5.35-12.85 5.55-2.45.05-.4-1.3 2.8-1.95 5.45-5.85 5.35-7.7 5.35-17.55 0-3.95-2.05-9.75-2.1-5.85-2.1-10.4 0-11.75 4.3-21m96.3 105.85-2.5-2.4q-1.35-2.45 16.55-12.4 17.9-10.05 20.3-7.65 2.65 2.7 2.35 8.2t1.3 9.25q.75 1.65 3.05 4.75 1.8 2.35 2.2 3.9.7 2.45-.4 6.15-1.3 4.45-2.85 22.25-1.7 20.25-.4 28.85 1.85 12.6-1.85 17.15-2.5 3.1-6.25 6.55-4.95 4.6-8.1 5.7-3.3 1.2-7.45-.6-4.1-1.75-5.85-4.95-5.4.75-9.45-.8-2.5-1-4-2.55-3 .35-5.25-1.05-2.85-1.85-3.65-5.95-.9-4.45.75-6.65 1.3-1.7 5.6-3.2l6-2.2q3.85-1.65 6.1-3.45 2.65-2.15 4.85-8.75 2.95-8.9 2.7-20.65-.3-12.15-5.4-20.45-2.9-4.65-8.35-9.05"/><path fill="#30353a" d="M112.45 181.75q7.25-9.05 13.15-9.35 6.7-.4 9.5-.15 4.5.4 6.4 2.3 2.2 2.2 1.95 7.05-.35 5.95 1.05 9.85.8 2.25 2.95 5.15 1.65 2.15 2 3.45.55 2.05-.4 5.25-1.35 4.55-2.9 22.15-1.75 20.05-.45 28.75.85 5.5.25 10.55-.6 5-2.35 7.2-2.15 2.65-5.75 5.75-4.3 3.7-7.2 4.7-2.95 1.05-6.45-.45-3.5-1.45-4.85-4.35l-.2-.5-.55.1q-5.75.9-9.8-.95l-3.1-2.15-.3-.35-.45.1-1.5.1q-1.75-.05-3.1-.9-2.25-1.4-3-5l-.2-1.8q0-2.35 1.95-3.75 1.45-1.05 5.65-2.55 3.4-1.15 5.45-2.15 3.3-1.5 5.75-3.55 2.7-2.25 4.85-9.15 2.6-8.5 2.6-19.65v-2.05q-.3-12.55-5.6-21.2-3-4.75-8.65-9.35-1.9-1.55-2.15-2-.6-1.05 1.05-4.3 1.6-3.25 4.4-6.8"/><path fill="#30353a" d="M107.7 266.7q-1.7 1-2.25 1.55-.5.55-1 2.65l-.8 3.95-.4 1.1q-1.55-.1-2.9-.9l-.95-.8q1.85-5.85 6.1-7.75l3.85-.75zm11.1 7.25q-.35 1.8-.1 5.2l-.1.05q-3.85.65-7.35-.1 1.05-3.1 1.75-3.9 1.3-1.6 5.4-4.1 4.25-2.6 6.5-3.05l-2.9 2.05q-2.95 2.4-3.2 3.85m28.05-78.2.6.85q1.65 2.15 2 3.45.55 2.05-.4 5.25-1.35 4.55-2.9 22.15-1.75 20.05-.45 28.75.85 5.5.25 10.55-.6 5-2.35 7.2-2.15 2.65-5.75 5.75-4.3 3.7-7.2 4.7l-4.55.2q-2.35-.55-4.3-2.05 1.9-1.3 12.75-7.65 6.15-3.65 6.7-5.75.3-1.3.1-7.15l-.45-13.7q-.45-22.2 2.6-41.1.95-6.1 3.35-11.45"/><path fill="#d3d9db" d="M96.65 169.3q-1.5-5.05 4.7-7.05 5.4-1.7 14.8-.65 9 1.05 16.5 4 8.1 3.15 9.9 6.9 1.05 2.15 1.35 4.1.35 1.85.25 5.05-.2 8.6 3.85 14.2 1.75 2.45 2.15 3.8.65 2.3-.4 5.9l-3.55 11.1-.4-8q-1.4.55-3.85 7.55l-.55-3.9-.9-4.35q-.85 2.95-1.45 7.8l-1.05 7.3q-1.15-5.55-3.15-9.5-2.65-4.55-4.45-8.3-.75 6.35-1.5 9.4-5.25-10.35-7-17.15-.5 2.15.05 7.2l.75 7.2q-1.05-2.1-2.1-3.45-1.1-1.5-2.85-2.9-2.65-4.6-7-8.4l-4.4-3.95q-5.5-9.8-9.7-23.9"/><path fill="#adb2b4" d="M144.15 181.65q-.2 8.6 3.85 14.2 1.75 2.45 2.15 3.8.65 2.3-.4 5.9l-3.55 11.1-.4-8q-.7.25-2.05 3.45 1.15-11.7-6.1-26.15-2.65-4.8-2.4-13.15.2-4.95 2.6-5 2.4 0 4.7 4.7 1.05 2.15 1.35 4.1.35 1.85.25 5.05"/><path fill="#0d131a" d="M95.4 165.65q.8.5 1.75 3.5.85 2.75 4.7 12.25 3.9 9.7 4.9 11.55.35.6 2.25 2.05l4.35 3.9q2.8 2.9 4.75 6.35 2.25 1.85 4.35 5.6l-.9-5.75q-.85-4.25-.6-5.35l1-3.75q.7-1.9.75.6.05 2.2 2.15 8.1 1.9 5.3 3.35 8.1l.45.9q1.1-4.25 1.1-8.35.05-1.7.55-1.2.5.4 2.25 3.55l2.75 5.05 2.6 5.75 1-5.25 1.1-5.45.4-1.8q.2-.55.55.8 1.25 5.05 1.4 7.15 1.3-3.95 2.85-5.45 1-1 1.1.7 0 1.2.35 3.5l2.6-7.3q.65-2.25.65-3.8t-.6-2.85l-1.55-2.4q-1.95-2.6-2.75-4.75-1.35-3.6-1.35-8.9v-2l-.3-4.15q-.25-1.6-1.2-3.85-1-2.3-.65-2.55.3-.3 1.5 2.1 1.15 2.25 1.45 4.35.3 1.75.2 5.05-.15 5.6 1.2 9.3.75 2.1 2.7 4.85 1.7 2.3 2.1 3.8.65 2.4-.45 6.05l-.95 3.65-2.15 6.05-1.4 1.95q-.15-.1-.15-1.9l-.2-5.5q-1.5 2.55-2.45 5.1-1.45 3.8-1.8-.35l-.65-4.2-1.1 6.9-.55 3.35q-.3 3.15-.7 3.25t-1.15-3.05q-.8-3.45-2.7-7.45l-3.6-7.25q-.05 3.8-.8 7.6-.5 2.55-.9 2.6-.4 0-1.5-2.1-1-1.9-2.95-7.45l-2.5-7.9q-.45 1.35.6 6.05 1.1 4.9 1 5.5-.35 2.1-.8 2.15-.35.05-1.3-1.5l-1.6-2.6q-.95-1.35-2.5-2.6l-.05-.05-.05-.1q-1.85-3.25-4.9-5.9l-4.45-3.5-1.55-1.2-1.95-2q-1.2-1.45-4.35-10.2-2.95-8.2-4.35-13.5-1.15-4.4-.35-3.85m24.3 108q-1.05 2.15-.4 6.05h-1.65q-.7-4.25.35-6.4.9-1.8 4.1-3.8l3.15-1.8 3-2.25 1.2-1q.15.15-.65 1.4-1 1.6-5.7 4.5-2.6 1.65-3.4 3.3m-29.85 7.75q0-4 2.2-7.65 2.15-3.65 5.45-5.25 3.2-1.5 5.7 1.05 2.35 2.4 1.6 5.25-.25.9-.95 1-.9.25-5.45 2.65l-6.75 3.7q-1.15.75-1.5.6-.3-.15-.3-1.35"/><path fill="#fff" d="M98.45 269.7q2.15-.75 3.85.7 1.6 1.55 1.6 3.6l-.05.55-.2.3q-1.15.25-5.6 2.4-4.55 2.15-6.75 3.5.15-3.65 2.4-7 2.15-3.2 4.75-4.05"/><path fill="#0d131a" d="M109.35 265.75q5.15-1.65 7.05-3.3 1.3-1.15 1.45-1 .15.1-.9 1.4-1.75 2.1-6.8 3.85-2.15.65-3.05 1.3-1.05.75-1.75 2.7-.75 2.1-.1 3.05l-1.3.55q-.95-1.4-.35-3.75.55-2.3 1.9-3.2 1.2-.8 3.85-1.6"/><path fill="#0d131a" d="M100.85 288.7q-.3-.1-.3-1.4-.05-4.5 1.5-8.9 1.65-4.85 4.2-6.1 2.65-1.3 5-.45 2.4.85 3.85 3.7.7 1.35.7 3.9 0 1.2-.6 1.55l-2.45 1.3-10.25 5.7q-1.35.85-1.65.7"/><path fill="#fff" d="M107.55 273.4q3.25-1.55 5.45 1.85 1.4 2.1 1.4 3.95l-.15.6-2.4 1.35-9.85 5.6q.05-4 1.6-8 1.65-4.25 3.95-5.35"/><path fill="#0d131a" d="M120.55 291.55q-1 1.05-1.6.95t-.75-1.55q-.35-3.65.1-7.6.55-4.4 1.8-5.9 1.55-1.85 4.6-1.8 2.85.05 4.65 1.55 1.25 1.05 1.35 2.9.05 1.75-.85 3.75l-.05.15-.65.95q-1.7.9-4.95 3.5z"/><path fill="#fff" d="M119.35 287.8q0-3.35.65-6.2.65-2.95 1.6-3.55 1.45-.95 3.45-.9 1.95.05 3.25 1.1 1.25 1.15 1.25 2.75 0 1.05-.55 2.3-2.9 1.55-8.1 6.4l-1.35 1.2z"/><path fill="#dbdcdc" d="m30 253.6-.15.95-3.95 1.25q-3.2 1.05-4.95 1.95l.3-1.8q3.35-3.15 8.2-5.4.55 1.5.55 3.05m7.55 1.45.3.4q.6 1.05.6 1.85 0 1.1-.9 1.95l-5.35 2.9-4.3 2.25q2.8-5.6 9.65-9.35m2.05 14.05.1-.85q3.15-6.2 10.6-9.9 1.75 1.65 1.75 3.3l-.05.05q0 1.15-1.25 1.75l-4.35 2.2q-4.95 2.35-6.8 3.45m52.75 11.05q4.8-6.8 10.9-8.45.65 1.15.65 2.3l-.05.55-.2.3q-1.05.25-4.85 2.05-3.95 1.85-6.45 3.25M113 275.2v.05q1.4 2.1 1.4 3.95l-.15.6-2.4 1.35q-5.25 2.75-8.25 4.6 3.8-8.4 9.4-10.55m7.9 14.5-1.35 1.2-.15-1.35q2.55-5.8 9.05-11.1 1.1 1.1 1.1 2.55 0 1.05-.55 2.3-2.9 1.55-8.1 6.4"/><path fill="#0d131a" d="M171.9 71.45q3.25-1.65 2.95-.9l-3.8 5.2q-5.3 6.95-6.4 10.5 6.25-6.85 15.55-9.5 8.95-2.6 17.8-.5l3.3.9-3.2.75q-2.6.65-6.65 2.8-3.7 1.95-5 3.1 9.85-.75 17.1.35 15.05 2.4 25.4 11.9 5.4 6.6 1.55 4.35-1.3-.75-3.55-1.5-3.85-1.3-8.55-2.1l-6.45-.5q3.85.55 7.45 1.65 5.3 1.55 8.1 3.7 3.05 2.35 2.9 2.6-.1.25-3.1-.55-2.8-.8-6.55-1.3l-5.15-.35q8.4 2.85 12.6 4.9 9.6 4.7 14.05 10.95 2.9 4.15 2.55 4.3l-4.1-2.4q-3.45-2.25-9.3-4.6-5.55-2.3-7.85-2.55 10.4 7.4 14.85 11.85 11.5 11.5 15.35 25.85 1.65 6.1 1 5.65l-3.4-4.45q-6.1-7.3-8.5-8.6 2.4 4.3 4.3 9.35 3.1 8.4 2.95 15-.1 6.45-.7 5.1l-1.15-3.9-1.25-3.1-1.35-2.75.85 4.85q.55 3.4.55 5.8l.1 4.9-.1 3.7q-.4 3.5-.7 3.45-.35-.05-1.35-4-1.65-6.3-5.1-12.4l-.25 10.8q-.15 3.35-.9 4.3t-1.3-1.85q-2.3-12.35-12.3-22.8-11.25-11.8-29.1-17.5l3.6 3.3 4.6 4.8 3.45 4.15q.2.65-4.6-2.25-6.65-3.95-11.8-6.1-7.2-3-15.1-4.15 4.9 2 6.9 3.35 2.4 1.55 4.9 4.6 2.8 3.45 2.6 3.65-.15.15-3.75-1.65-6.75-3.4-11.75-4.5-9.1-2-18.55.85 6.7.45 11 1.4 3.8.9 7.65 2.7 3.6 1.7 3.5 2.05l-3.65-.2-9.65-1.4q-7.1-.5-12.5 1.45 5.1.8 9.25 3.5 2.75 1.75-.8 1.75l-16.6-.3 7.05 2.6q2.35.85 2.4 1.25l-3.2-.1-5.6-.7h-5.3q5.2 2.3 8.95 3l3.05.6q.5.3-2.75.85-14.05 2.35-23.7.2-9.25-2.05-18.45-9.15 1.25 3.2 3.15 5.3 1 1.15 4.35 3.95 2.4 1.95 1.7 2.2l-3.85-.5q-5-.9-10.1-4.25-7.8-5.15-11.35-13.85-.5 2-.85 6.15-.45 4.95-.1 8.2.3 2.95-.6 2.65-.8-.3-2.85-3.1-1.55-2.1-2.65-5.25-1.45-4.25-1.25-8.65-1.85 3.8-3.75 5.85-1.65 1.75-6.3 5.25-2.15 1.6-2.4 1.2-.25-.25.7-2.25 1.7-3.5 3.65-10.65 2.3-8.25 2.3-12.55l-.1-1.9q-2.85 9.85-5.9 14.2-.6.85-1.2.85-.7 0-.65-1.05.35-5.65-.3-12.2-1.1-10.4-4.5-18.4-3.3-7.7-3.6-15.05-.3-8.35 3.75-12.1 7.6-7.05 28.15 3.65 9.6 5 22.05 6.2 15.15 1.5 24.9-4.5 4.75-2.95 16.35-13.15 10.85-9.6 15.95-12.25"/><path fill="#30353a" d="M164.55 83.85q-.85 2.15-1.15 3.65l-.2 1.4 1-1 2.4-2.2q3.05-2.45 6.6-4.35 11.2-6 22.6-3.7-4.7 1.55-8.25 4.05-2 1.5-2.7 2.4l-.8.9 1.2-.15q9.35-1.35 21.1 1.4 15.05 3.55 23.1 12.4-6.7-3.35-12.4-3.8-4.65-.35-7.6 1.25-.7.4-1.45.75l1.6.1 5.05.8q5.8 1.3 9.95 3.85l-8.15-.55-2.8.5-1.3.45 1.35.4 10.2 4q11.05 5.15 16.05 11.1-6.5-3.75-12.75-5.15-3.95-.9-5.25-.7l-1.45.05 1.2.75 3.95 2.9q4.7 3.6 8.85 7.7 13.3 13.05 16.85 26.1-3.6-4.1-6.9-6.25-1.7-1.15-2.7-1.4l-1.25-.35.8 1.05 2.5 5q2.7 7 4 17.4l-1.65-2.85-.85-1.1-1.05-1.15.25 1.5.65 4.85q.6 5.7.6 10.2l-.1 3.25q-1.85-4.85-3.95-8.9l-1.8-3.15-.75-1.1-.9 13q-2.7-10.1-10.45-19.1-12-13.9-32.75-19.8l-3.35-.7q-.45.15 1.35 1.4 3.7 2.7 8.95 8.6-9.7-4.65-13.75-6.2-10.65-4.1-16.8-3.55-4.3.4-2.65 1l2.5.5q6.3.45 13.8 7.55-6.2-2.7-12.65-3.5-10-1.25-18.35 2.55l-1.3.5q-.85.5 1.45.4 2.6-.15 8.1 1 5 1.05 8.2 2.2l-9.55-.45q-6.2.3-10.15 2.25l-1.45.7 1.65.15q5.3.4 10.25 3.35l-9.05-.1-9.7.1q-2.2.15-1.45.5l1.25.35 5.9 2.6q-6.95-.7-10.05-.25l-1.4.2 1.3.65q3.2 1.6 8.65 3.2-8.3 1-16.75-.15-13.65-1.9-23.4-9.15l-1.05-.75.3 1.25q1.15 4.35 6.4 10.15-5.85-1.9-10.6-5.15-7.7-5.3-10.2-12.7L91 147.4l-.4 1.35-1.05 4.15q-.95 4.6-.95 8.2 0 1.95.4 3.95-2.65-4.25-3.85-10.45-.75-4.05-.75-7.9 0-2.25-.45-2.05-.4.15-1.15 2.2-.9 2.75-3.35 6.4-3.1 4.7-6.3 6.4 1.95-4.25 3.4-11 1.4-6.6 1.4-11.4 0-2.6-.55-4.1l-.45-1.3-.4 1.35q-3.05 11.15-6.45 15.95l.05-3.55q0-15.65-5-27.3-3.55-8.3-3.55-15.85 0-7.1 3.5-10.3 3.5-3.25 10.45-2.3 6.85 1 16.7 6.1 9.9 5.2 22.45 6.55 15.5 1.7 25.4-4.4 6.8-4.2 12.2-8.45l7.6-6.6q5.35-5 9.45-7.5-3.1 4-4.8 8.3"/><path fill="#30353a" d="M239.95 117.5q-5.75-3.3-11.15-4.75l5.6-.3q3.45 2.55 5.55 5.05m-44.9 22.75-3.35-.7q-.45.15 1.35 1.4 3.7 2.7 8.95 8.6-9.7-4.65-13.75-6.2-10.65-4.1-16.8-3.55-4.3.4-2.65 1l2.5.5q6.3.45 13.8 7.55-6.2-2.7-12.65-3.5-10-1.25-18.35 2.55l-1.3.5q-.85.5 1.45.4 2.6-.15 8.1 1 5 1.05 8.2 2.2l-9.55-.45q-6.2.3-10.15 2.25l-1.45.7 1.65.15q5.3.4 10.25 3.35l-9.05-.1-9.7.1q-2.2.15-1.45.5l1.25.35 5.9 2.6-9.35-.35q-2.25.25-.15 1.25 3.3 1.55 8 2.9-8.15 1-16.5-.1-13.4-1.8-23.1-8.8-1.75-1.3-1.15.6 1.3 4.15 6.25 9.65-5.65-1.8-10.4-5-7.5-5.1-10.15-12.25-.45-1.1-.7-1.05-.3 0-.6 1.05-1.8 7-1.8 11.75 0 1.95.4 3.95-2.65-4.25-3.85-10.45-.75-4.05-.75-7.9 0-2.25-.45-2.05-.4.15-1.15 2.2-.9 2.75-3.35 6.4-3.1 4.7-6.3 6.4 1.95-4.25 3.4-11 1.4-6.6 1.4-11.4 0-2.6-.55-4.1l-.45-1.3-.4 1.35q-3.05 11.15-6.45 15.95l.05-3.55q0-15.65-5-27.3-3.55-8.3-3.55-15.85 0-7.1 3.5-10.3 3.55-3.2 10.4-2.25 6.9.95 16.7 6.05 4.6 14.75 19.55 25.7Q124 130.6 141.9 136.1q-19.1-1.15-41.4-6.75 10.95 10.35 30.25 13.3 15 2.3 34 0l-4.7-2.65q-1.9-1-3.75-1.55 13.4-4.4 34.35-.35 24.05 4.65 39.1 18.3-.5-2.5-2.8-5.65l-3.4-5q5.85 3.35 12.25 11.35 6.2 7.7 9.9 15.9l-.05 6.3q-1.85-4.85-3.95-8.9l-1.8-3.15-.75-1.1-.9 13q-2.7-10.1-10.45-19.1-12-13.9-32.75-19.8"/><path fill="#30353a" d="M106.35 98.7q6.75 2.75 14.5 3.95 8.3 1.25 13.8 0-4.55 2.9-11.25 4.8l-5.85 1.3 6.35 1.3q7.7.8 14.25-1.5-5.7 4.6-8.65 5.9-7.05 3.1-19.2 3.1-18.7-.05-39-45.85.6.3 6.6 4.45Q85.1 81 91.55 84.4q21.05 10.95 33.9 6.6-3.15 2.95-7.75 5.15-6.1 3-11.35 2.55"/><path fill="#30353a" d="M81.05 78.25Q83.65 88.8 92 97.85q8.15 8.8 18.65 12.9-2.65-1.45-4.55-3.15l-3.7-4.25q5.15 2.45 12.65 2.85 7.15.4 15.05-1.2l-8 2.45-4.55 1.3 7.3 1q8.6.5 15.2-1.8-7.05 5.75-11.65 7.25-6.75 2.2-22.55 2.2-18.75-.05-34.55-45.7l3.15 2.15z"/><path fill="#0d131a" d="M103.45 97.95q-.3-.4 3 0 3.35.4 8.35-1.45 4.35-1.65 7.65-4-11.4 2.3-26.55-4.6-8.95-4.05-21-12.5l-9.5-5.65.25-.75q.8-.45 3.4.75 4.15 1.9 6.5 4Q86.7 81.55 98 86.2q16.15 6.6 27.2 4.1l4.15-.5q.5.3-1.85 1.9-10 6.65-17.35 7.55 5.3 1.8 13.85 2.25l11.55-.4 2.75-.1-3.25 2.25q-2.35 1.6-7.05 3.35l-7.15 2.25q2.85.55 8.45.05 5.7-.45 8.85-1.6 3.35-1.2 3.75-.75.4.55-2.55 3.15-4.65 4.05-10.35 6.3-8.65 3.4-18.7 2.25-5.85-.65-5.5-1.1l5.5-.35q8.35.1 14-1.45 5.5-1.5 11.95-5.45l-11.9.75q-4.05-.3-7.05-1.2-1.95-.6-2-.8-.1-.3 2.15-.6 6.55-.95 13.4-4.2-5.3.4-14.35-1.55-7.55-1.6-10.4-2.95-2.5-1.15-2.65-1.4"/><path fill="#0d131a" d="M82.8 30.95q4.05-3.55 6.9-4.95 2.4-1.15 3.25-.6 1.1.7.45 3.6l-2 6.7q-2.05 6.85-.55 28.9l.35 6.3q.3 4.3-4.55 9.05-3.9 3.75-7.6 5.15-2.45.95-5.35-.4-2.85-1.35-5.5-4.65-1.9-2.4-2.8-4.8-1.05-2.6-.3-3.75.5-.75.15-2.3l-.8-2.7q-.85-2.9-.75-4.2.25-3.2 5.55-13.1 6.5-12.1 13.55-18.25"/><path fill="#d3d9db" d="M89.65 35.95q-2.05 6.6-.35 31.15l.15 2.05q.25 3.95-4.05 9.1-3.8 4.5-6.8 5.6-2.6 1-5.75-1.2-2-1.35-3.6-3.45-1.8-2.2-2.65-4.4-.85-2-.45-2.6.75-1.1.65-2.8l-.6-2.9q-.6-2.15-.5-2.9.2-3.1 5.25-13.15Q77.2 38 84 32.1q3.65-3.15 5.6-4.15 1.15-.55 1.5-.3 1 .65-1.45 8.3"/><path fill="#adb2b4" d="M73.05 59q-1.4 13.55 3.65 25.15-3.65-.2-7.45-4.95-1.8-2.2-2.65-4.4-.85-2-.45-2.6.75-1.1.65-2.8l-.6-2.9q-.6-2.15-.5-2.9.2-2.6 4.45-11.5 5.3-11 11.2-17.4-7 11.05-8.3 24.3"/><path fill="#0d131a" d="M50.05 64.35q12.85.1 23.8 10 12.4 11.25 12.4 28 0 7.85-3.4 13.25l-2.4 3.65q-1.05 1.95-1.05 4 0 1.85 1.55 6.6t1.55 6.7q0 3.85-3.1 7.35-3.7 4.2-9.6 4.35l-4.5-.35-.05.4q0 1.25.6 3.05l.45 2.35q0 1.65-2.05 3.1-2.45 1.75-6.45 1.75-6.4 0-14.15-5.7-7.2-5.25-13.9-14.1-6.55-8.65-10.5-17.95-4.2-9.75-4.2-17.3Q15 86.35 24.7 75.4q9.8-11.05 25.35-11.05"/><path fill="#d3d9db" d="M19.75 88.65q2.8-6.2 6.05-10.2 1.85-2.2 4.65-4.5l1.5-1.35v.05q1.6-1.8 5.3-3.45 4.2-1.95 9.05-2.6 12.95-1.75 22.75 6.35 16.75 13.75 15.1 34.2-.2 2.65-1.3 5.2l-2.2 3.95q-1.55 2.45-2.1 3.8-.85 2.2-.55 4.35l1.25 5.6q1 4.05 1.2 5.8.35 3-.7 4.25l-.8.95q-2.25 2.75-3.85 3.85-2.8 1.85-6.55 1.85-5.05 0-9.45-3.1-2.9-2.1-6.9-6.85-4.5-5.35-6.2-6.85-3.55-3.1-7.25-3.1-2.65 0-4.1 1.25-1.35 1.2-1.3 3.1.15 5.1 5.2 11.65 5.65 7.25 14 11.05 4.2 1.9 7.85 2.05 3.35.15 4.75-1.1-1.15 1.15-2.6 1.65l-5.15.55q-6.7-.35-15.7-8.15-9.2-8.05-17.15-20.8-13.05-21-4.8-39.45"/><path fill="#0d131a" d="M38.8 67.2q6.3-2.3 13.05-2.05h.2l.1.1q7 6.1 10.85 22 4.15 17.3-1.4 27.05l-.75.95q-.35 0-.8-1.1-4.15-10.35-12.65-18.6-8.35-8.05-17.95-11.3l.45-.55q1.35-1.8 1.35-4.7l-.35-3.7-.25-2.2q0-.9.35-1.3 2.4-2.65 7.8-4.6"/><path fill="#30353a" d="M31.05 83.7q1.2-1.95 1.2-4.65 0-1.6-.4-3.9l-.2-2.1.1-.55q2.2-2.45 7.4-4.35 6.05-2.25 12.5-2.05 6.4 5.75 9.75 21.95 3.35 16.25-.3 24.15-3.8-10-13.05-18.35-8.45-7.6-17-10.15"/><path fill="#0d131a" d="M72.6 90.25q-2.5-10.7-8.65-21.05l-.9-1.5 1.55.8q2.6 1.35 5.25 3.5 13.2 10.85 15.3 26.15l.05 1.55q-1.45 4.2-3.4 7.15l-5.75 7.05q-.35.5-.75.3-.45-.2-.45-.75.1-13.35-2.25-23.2"/><path fill="#30353a" d="M65.7 70.3q2.15 1.35 3.5 2.45 12.85 10.6 14.95 25.4-1.25 3.55-3.4 7l-4.55 6.45q.25-12.35-2.1-22-2.5-10.35-8.4-19.3"/><path fill="#b7272d" d="M60.55 146.2q1.75.85 3.4 1.05v.05q0 1.25.75 3.6l.45 2.05-.25.55-3.8.35q1.65-.75 1.45-3.15-.2-2.3-2-4.5"/><path fill="#ed8599" d="M59.25 146.15q2.45 2.85 2.5 5.15.1 2.25-2.05 2.5-4.3-.25-6.8-1.3-4.55-2.05-9.25-7.5-3.2-3.7-7.6-10.5-.95-1.7-.8-3.6.1-1.8.95-2.2 1.55-.75 5.3 1.05 2.05 1 5.7 3.1l1.45 1.5q3.1 4.85 5.6 7.65t5 4.15"/><path fill="#ce7486" d="M48.65 134.35q3.1 4.85 5.6 7.65t5 4.15q1.5 1.8 2.15 3.5-2.9-3.65-10.4-7-7.25-3.3-11.7-3.3l-3.25-4.85q-.95-1.7-.8-3.6.1-1.8.95-2.2 1.55-.75 5.3 1.05 2.05 1 5.7 3.1z"/><path fill="#0d131a" d="M41.35 128.45q2 .7 4.45 2.6 2.45 1.85 3.4 3.35 3.75 5.85 9.5 9.65l.85 1.95q-1.5-.3-9.45-7.95-4.25-4.25-5.5-5.05-3.9-2.55-6.15-2.75-1.95-.2-1.85 1.15.15 2.8 5.75 9.75 5.55 7 9.75 9.6 3.05 1.9 6.75 2.65 3.6.7 6.5 0l.8-.5q1.1 1.95-2.95 2.7-4.5.8-10.7-2-4.65-2.1-9.5-7.75-3.15-3.65-7.8-10.8-2.35-3.75-.75-5.7 1-1.3 3.5-1.35 1.95-.1 3.4.45"/><path fill="#30353a" d="M41.9 130.25q-2.1-1.05-3.6-1-1 .05-1.65.6-.7.55-.7 1.45 0 2.05 2.35 6.05 2.55 4.35 6.3 8.15 10.1 10.25 20.55 8.75-8.8 3.05-19.95-6.7-4.5-3.95-7.45-8.5-2.95-4.65-2.95-7.8 0-1.25.95-2.1 1.1-1.05 3.15-1.05 5.1 0 11.6 8.95l-5.35-4.85z"/><path fill="#0d131a" d="m47.55 134.9-2.5 1.65-.45.15-.15-.4-.3-4.15z"/><path fill="#0d131a" d="m50.45 138.35-2.5 1.4q-.6.3-.65-.3l-.25-5 3.5 3.35.5-.25.05.75 3.75 3.6-3.35 1.65q-.7.25-.75-.4l-.1-4.65zm15.75 9.45q.8-.55 1-.35.25.2-.1 1.05l-1.3 4.3q-.45 1.35-1.4-1.05t-.2-2.8z"/><path fill="#fff" d="M65.25 151.85q-.3.75-.6-.85-.3-1.65.05-1.8l1.8-1.05z"/><path fill="#0d131a" d="m42.85 131.85.4-.1-.55 3.05q-1.05 5.3-1.5 5.5l-.15.05-.1-.1q-1.3-.9-2.3-2.8-.85-1.65-.65-1.9l1.7-1.6q1.7-1.45 3.15-2.1"/><path fill="#0d131a" d="M49.2 142q.75-.6.65.25l-.3 7.35-.4-.35-4.05-4.35-3.9-4.5v-.1q0-.5 1.05-1.35.85-.65 1.95-1.25.6-.3.75-.25v.65l-1.05 4.75q.6-.9 2.45-2.15.55-.35.65-.25v.75l-.6 4q.5-.9 2.8-3.2"/><path fill="#0d131a" d="M52.2 143.7q.3-.85.6-.05.95 2.3 1.35 4.5.6 3.05-.4 3.75-3.9-1.95-4.6-2.95l-.1-.15.1-.15q2.2-2.35 3.05-4.95"/><path fill="#fff" d="m45.05 135.75-.35-2.65 2.1 1.75zm2.8 3.3-.3-3.5 2.5 2.45zm3.4 4L51.1 139l2.95 2.85zm-9.1-8.35-1.05 4.9-2.35-3.4q2.5-2.75 3.85-3.7zm-.5 5.6-.1-.1q.75-.75 2.75-1.85l-.8 4.2-1.85-2.2zm4.85.85-.6 4.15-1.85-2.05q1.65-1.65 2.45-2.1m2.55 7.2-2.65-2.55q1.65-2.05 2.7-2.9zm4.45 3.15-1.4-.75-2.3-1.7-.15-.25q1.5-.45 2.85-4.6 1.1 3.2 1.1 6.35z"/><path fill="#0d131a" d="m53.85 141.1.45.6 5.1 3.75-2.4 1.9-3.65 2.15-.8-.05q-.25-.25-.15-.85z"/><path fill="#fff" d="m53.7 145.4.6-3.4 3.85 3.3q-3.2 2.95-5.35 3.8z"/><path fill="#0d131a" d="m68.7 147.35.4-.2 1.85.05 2.55-.95.6.7q.75.65-1.6 2.1-2 1.2-3.75 1.8l-.9-.05q-.2-.2.05-.7z"/><path fill="#fff" d="M72.35 147.9q-1.3 1.4-3.9 2.45l.65-2.05z"/><path fill="#0d131a" d="M65.75 137.15q.75-1.2 2.65-1.55 2.2-.35 7.55.1 2.75.25 4.2 1.35 1.25.9 1.25 2.2 0 2.6-2.35 4.15-2.3 1.5-6.05 1.45-4.6-.05-6.7-2.95-1.9-2.55-.55-4.75"/><path fill="#d83338" d="M73.65 143.35q-2.5 0-4.4-.9-1.85-.85-2.4-2.15-.6-1.4.25-2.75.95-1.5 8.9-.7 2.35.2 3.55 1 1.05.65.9 1.55-.35 3.9-6.8 3.95"/><path fill="#0d131a" d="M35.5 120.55q-1.75.3-5.05 1.6-3.75 1.45-5.4 2.75-.7.55-.75-.3-.15-3.55 1.85-8.25 2.05-4.75 4.75-7.2l.5-.2q.3.05.25.55-.25 6.4 4.3 9.85l.6.7q0 .35-1.05.5"/><path fill="#30353a" d="M30.75 110.65q-.25 2.1.8 4.65 1.05 2.5 2.85 4.2-2 .35-4.35 1.3-2.6 1-4.3 2.15.25-2.8 1.6-6.3 1.5-3.8 3.4-6"/><path fill="#0d131a" d="M46.55 105.4q3.45 5.15 3.1 12.8l-.25.8q-.25-.05-.4-.8l-.25-1.2q-2.45 1.4-5.6 1.15-2.85-.25-4.75-1.55-3.25-2.3-3.6-7.15-.35-4.7 2.2-9l-.9-.65 1.35-.15q5.7.7 9.1 5.75"/><path fill="#ffe100" d="M36.5 111.05q-1.35-5 1.5-10.3 1.85.5 3.65 1.8-3.55 1.8-3.25 7.4.25 5.65 4.25 7.4-4.8-1.2-6.15-6.3"/><path fill="#d83338" d="M42.7 103.35q4.65 3.95 5.9 12.7-3.75 1.6-6.3-.05-2.75-1.8-2.75-6.65 0-1.45.7-3.05.85-2.05 2.45-2.95"/><path fill="#0d131a" d="M44.85 107.75q.65-1.25 1.35-.5.65.8.25 2l-1.4 3.4q-.9 1.7-1.3 1.5-.55-.3-.1-2.65.45-2.25 1.2-3.75"/><path fill="#878f93" d="M233.25 122.7q-.95-.1-5.55-2.85-4.5-2.65-5.75-2.65 3.7 2.65 9 8.1l4.6 4.95q-3.95-2.45-8.75-4.9-9.65-4.9-13.85-4.9l7.45 6.65q4.4 4.25 6.8 7.3-3.1-1.3-7.1-1.65l-3.4-.05 5.6 5.35q6.2 5.85 9.35 8.5l-10-3.75q-6.4-2.35-10.05-3.1.15.75 4.3 4.4l4.15 3.5q-5.25-1.95-11.85-4.05-13.1-4.15-19.5-4.65 2.05.05 1.8-.5-.2-.55-2.95-1.2-7.7-1.8-24.8-1.95 2.95-1.45 7-1.9 5.75-.6 16.15.4-1.2-1.4-9.9-3.05-7.95-1.5-11.1-1.35l12.75-.6q8.45.05 19.8 1.9-2.45-2.25-10.4-4.9l-7.5-2.2h17.9l-5.1-3.25q-5.95-3.45-10.1-4.45 2.5-.3 9.05 1.2 6.85 1.5 16.25 4.6-1.55-2-10.7-6.3-9.25-4.45-16.1-6.3 11.1 1 28.7 4.25-.95-1.35-5.5-3.55l-8.8-4.4 10.3 1.3q4.3.75 9.95 2.4-4.4-3.15-10.65-5.3 7.75.55 17.75 4.05 8.85 3.1 12.5 5.75-3.7-1.05-6.2-.8l-4.9-1-1.95-.1-1.45.05 1.2.75 5.2 4.7z"/><path fill="#30353a" d="m20.9 92.2-.95 1.05Q18.9 94.8 18.1 97.1q-2.4 7.3-.7 19.6l1.15 9.65q.2 3.1-.5 3.25-1.05.2-3.35-8.05-2.55-9.1-1.85-15.3.8-7.1 1.55-10.55.8-3.5 2.15-5.7z"/><path fill="#0d131a" d="M19.85 91.45q.2-.2.9.45.75.7.55.9-5.55 5.6-3.25 22.8 2.4 17.85 11.55 31.65l-2.05-.65q-9.4-15-11.3-32.6-1.75-16.3 3.6-22.55"/><path fill="#d3d9db" d="M2.85 32.15q1.05-5.4 2.45-6.5 1.5-1.3 2.65 3.65 1.25 5.7 7.5 18.4 6.45 13.25 8.9 14.15l4.2.3q2.15 0 4 2.2 2.05 2.45 1.9 14.1-.15 10.5-.95 12.15-.55 1.1-5.3 2.6l-5.45.2q-.4-.95-6.1-3.6-6.6-3.05-9.05-5.2Q4.4 81.85 3 59.35q-1.35-20.8-.15-27.2"/><path fill="#0d131a" d="M5 27.25Q4.15 29 3.5 32.3q-1.25 6.75.15 27.4 1.5 21.85 4.4 24.4 2.35 2.05 8.7 4.85 6.65 2.95 6.65 4.25 0 .85-.3 1-.4.2-.95-.55-1.05-1.35-5.95-3.5l-5.7-2.5q-3.7-1.7-5.2-3Q1.85 81.7 1.1 59.3q-.7-19.9.55-26.65.7-3.75 1.85-6.3 1.2-2.65 2.3-2.7 1.55 0 2.75 5.5 1.35 5.9 7.55 18.45 6.3 12.85 8.45 13.65l2.35.05 2.15-.25 2.1.1q1.1.4 2.55 2.15 3.5 4.2.4 26.85-.5 1.15-1 1.4-.55.25-.25-1.1 2.15-22.1-.8-25.65-1.2-1.4-2.25-1.8l-2.1-.15-3.55-.4q-2.7-.95-9.3-14.5-6.25-12.8-7.55-18.5-.45-2-1-2.9l-.45-.5q-.3 0-.85 1.2"/><path fill="#0d131a" d="M5.8 43.85q.1-1.95.85-1.25l.7 1.1q1.45 4.35 7.55 12.75 4.2 5.8 7.25 9.25.95 1.1 2.35 1.3 1 .2 1.45.5.85.5 1.6 1.7 1.5 2.55 1.5 7.8 0 5.45-1.8 8.75-.55.95-1.75 1-2.6.25-8.25-3.5-5-3.35-7-5.8Q8.55 75.3 7 60.6 5.55 47.45 5.8 43.85"/><path fill="#0d131a" d="M7.3 45.75Q9.4 50.3 15 57.9q3.85 5.25 6.5 8.3l1.55 1.25 1.35.35 1.2.4 1.25 1.45q1.35 2.3 1.35 7.2 0 5.45-1.7 8.5-.3.55-1.05.6-2.3.2-7.25-3.1-4.5-3-6.5-5.45-1.55-1.95-3-13.2-1.4-10.45-1.4-17.7z"/></svg>