<svg xmlns="http://www.w3.org/2000/svg" width="376" height="296" viewBox="-4.95 -1.2 376.35 296.05"><path fill="#0d131a" d="M186.1 194.3q-1.15-.9-1.7-2.9-.45-1.75-.2-2.85.75-3.4 10.85-5.7 12.15-2.75 31.25-4.35 19.45-1.6 20.85.15 1 1.35 6.45 23.25 2.2 4.8 18.75 18.5 16.65 13.75 21.25 14.4 10.35 1.55 17 5.15 6.35 3.4 8.6 8.25 1.4 3.05.35 5.05T315.7 255q-7.25-.65-12.75-3.8-6.1-3.45-13.1-11.45-1-1.15-19.75-15.75-19.05-14.8-20.5-16.3l-23.05-2.6-1.5.25q-.75.3-1.05.8l-4.15 5.1q-.75.75-1.65.85l-2.6-.45q-4.35-1.5-16.15-8.7-10.2-6.2-13.35-8.65"/><path fill="#71706d" d="M191.65 184.8q10.75-3.3 31.5-4.15 19.3-.8 20.85.75 1 1.3 6.6 16.8l1.7 4.7q2.2 4.8 19.45 18.9t22 14.95q7.7 1.4 15.2 5.3 7.45 3.85 9.1 7.25.55 1.3.1 2.15-.6 1-2.35 1.25-4.3.45-11.6-3.5-7.75-4.15-13.25-10.45-2.15-2.45-19.85-16-17.8-13.65-20.75-16.65l-.1-.1-22.8-2.3q-3.05-.35-4.25 1.05l-3.2 3.75q-1.45 1.6-2.1 1.8t-2.35-.55q-5.7-2.55-16.65-9.75-8.1-5.35-11.95-8.3-1.8-1.4-1.8-2.6v-.3q.45-2.15 6.5-4"/><path fill="#595754" d="m194.2 196.85-7.25-5.15q-1.8-1.4-1.8-2.6v-.3q.45-2.15 6.5-4 10.75-3.3 31.5-4.15 19.3-.8 20.85.75 1.05 1.4 5.75 14.5-25.55 2.75-55.55.95m96.9 42.05 12.15 7.85q8.2 4.7 14.05 5.5l-1.5.45q-4.25.45-11.5-3.45-7.7-4.1-13.2-10.35"/><path fill="#0d131a" d="m188.9 190.3-1.45-1.35 2.25.4q5.35 1.35 31.85 9.25.95.25.7 1.15-.3 1.3-3.6 3.8t-4.35 2.3q-1.35-.25-11.4-6.2-10.75-6.35-14-9.35"/><path fill="#e50044" d="m211.6 197.15 8.7 2.75h.05q0 .4-1 1.25l-2.95 2.2q-1.65 1-2.1.95-1.15-.2-9.5-4.95-9-5.1-13.4-8.35 5.3 1.45 20.2 6.15"/><path fill="#c6003a" d="M201.05 197.2q-6.45-3.8-9.65-6.2 5.3 1.45 20.2 6.15l1.05.35z"/><path fill="#0d131a" d="m192.3 189.1-1.65-.55 1.7-.4q7.2-1.7 24.5-2.7 17.6-1.05 18.8.35.3.3.15.65l-.05.15q-1.3 6.15-4.35 8.85-2.35 2.15-4.95 1.7l-15.9-3.4q-13.8-3.15-18.25-4.65"/><path fill="#008cbe" d="M234.75 186.4q-3.65 9.6-8.85 8.85l-13.75-2.6q-12.3-2.45-17.65-3.95 8.3-1.55 23.5-2.3 14.6-.75 16.75 0"/><path fill="#0d131a" d="M1.95 16.8q4.4-4.2 18.3 2 15.25 6.75 32 22.2Q72.1 59.35 87.9 84.75q18.7 30.05 29.35 66.45l.7 7.1q.1 7.45-2.65 9.5-5.65 4.2-15.5-.5-15.45-7.5-20.3-13.35-3.8-4.55-1.9-9.6.65-1.8-.8-3Q51.65 122 56.1 110.3q.6-1.7-1.25-3.8-28.5-30.7-44-56.7-15.8-26.5-8.9-33"/><path fill="#71706d" d="M12.65 37.35q-3.25-7.85-2.3-8.9 62.1 29 107.85 129.3.25 5.8-3.85 8.75-5.15 3.85-13.6-.5-13.6-7.1-18.55-12.1-4.65-4.7-3.05-9.1.55-1.55.2-2.65-.4-1.05-1.8-2.3-20.75-18.6-19.75-28.1.25-2.2-.2-3.6-.45-1.35-1.85-2.95-17.9-20.5-33.55-48.7-6.15-11.1-9.55-19.15"/><path fill="#fccf00" d="M4.7 20.35q3.85-3.1 16.55 3.3Q35.5 30.85 51.4 45.8q43.15 40.7 66.1 107.05l.75 2.7Q92.55 96.4 52.3 55.3 37 39.7 24.25 31.65q-11.75-7.4-15.15-4.7-2.05 1.65 2.45 12.95 5.5 13.8 18.05 33.35-16-23.6-22.35-38.05-5.5-12.45-2.55-14.85"/><path fill="#0d131a" d="M81.95 146.7q-.25-.85.35-1.05 1.5-.7 10.05 6.3 7.8 6.4 9.6 8.8.5.7.15 1.1-.4.45-1.65-.35-17.25-9.95-18.5-14.8"/><path fill="#fccf00" d="M100.15 160.2q-15.95-9.3-17.2-13.6 1.6.35 8.1 5.6 6.1 4.9 9.1 8"/><path fill="#0d131a" d="M66.8 121.95q1.05-2.35 8.95 4.7 8.75 7.75 23.8 25.15l-.65.75q-13.95-9.8-23.6-19.1-9.55-9.15-8.5-11.5"/><path fill="#fccf00" d="m68.05 123.05.4.05q5.35 1.3 27.45 26.05-8.75-6.55-18.25-15.5-9.4-8.85-9.6-10.6"/><path fill="#0d131a" d="M47.85 92.85Q32.2 72.7 34.15 70.95q2.85-2.6 13.6 10.25 10.1 11.95 29.5 40.35 1.45 2.1 1 2.65-.5.5-2.5-1.1-11.7-9.35-27.9-30.25"/><path fill="#fccf00" d="M35.15 71.5q4.65 1.45 20.7 22.4 9.7 12.65 20.7 28.5-9.35-7.9-25.65-28.35Q35.25 74.4 35.1 71.5z"/><path fill="#0d131a" d="M58.2 92.1Q46.8 75.9 50 73.25q7.15-6 30.75 27.4Q89.8 113.4 98.7 128.6q8.25 13.95 12.3 22.85l-.15.35-.3.05q-.5.15-1.5-1l-7.55-7.75q-29.95-32-43.3-51"/><path fill="#fccf00" d="M76.55 97.45q18.4 24.7 33.05 52.55l-6.6-7.1q-12.3-13.15-19.3-21.2-12-13.85-22.25-27.85Q50.7 79.1 50.7 75.25q0-.6.2-.7 5.3-4.45 25.65 22.9"/><path fill="#0d131a" d="M35.4 57.75q-1.6-4.55-.1-5.3 2.15-1.1 8.35 3.8 6.75 5.3 10.85 12.4l.25.7q-.15.2-.85 0-4.05-1.35-7.3-.9-3.05.45-3.3 2.1l-.35.8-.55-.6q-5.15-8.05-7-13"/><path fill="#e50044" d="M37.05 54.3q2.35-.1 7.4 4.25 5.15 4.4 8.45 9.45-8.4-2.3-10.2 1.4-6.55-10.35-6.55-13.9 0-.55.15-.8.2-.4.75-.4"/><path fill="#0d131a" d="M356.4 32.9q15 8.95 15 22.85 0 14.5-11.7 32.55-12.7 19.7-33.4 33.6-2.15 1.45-2.9 2.7-.8 1.35-1.05 4.3-1 11.25-3.75 18.65-2.55 6.7-5.45 7.7-3.35 1.15-11.25 2.9l-19.5 4.3q-5.35 1.2-8.05 3.65-2.85 2.5-4.75 8-1.85 5.45-5.95 9.25-4.05 3.7-9 4.55-10 1.7-36.1 2.1-24 .35-37.75-.55-12.5-.85-17.4-7.7-4.6-6.6-1.6-17.45 6.55-27.95 22.15-53.95 15.15-25.15 36.5-44.75Q241.85 45.9 266 35q25.1-11.3 49.5-11.3 25.4 0 40.9 9.2"/><path fill="#71706d" d="M357.9 58.25q0 15.9-12.55 36.15-10.75 17.35-22.15 25.95-1.95 1.5-2.9 3.1-.9 1.55-1.3 4.05-3.7 22.5-7.85 23.9-7.9 2.75-26.3 8.1l-6.6 1.95q-3.75 1.1-6.4 3.85-2.25 2.35-3.25 5.35-4.1 12.15-14.85 14-10.65 1.85-35.6 2.95-24.9 1.1-37.25.25-11.8-.75-16.15-7.05-1.7-2.35-2.1-3.7-.55-1.8-.25-4.9 30-71.4 73.35-105.6Q272.9 37.25 315.5 38q18.65.3 31 6.75 11.4 5.9 11.4 13.5"/><path fill="#fccf00" d="M360.95 58.15q0-10-12-16.7-12.35-6.95-31.55-6.95-49.65 0-89.35 34.3-39.4 33.95-65.65 98.65 7.55-27.3 22.4-52.45 14.95-25.45 35.15-44.85Q241 49.9 265 38.9q25.6-11.75 52.05-11.75 23.7 0 37.7 8.15 13.95 8.1 13.95 21.8 0 10.6-7.25 23.45-7 12.3-18.55 23.1 9.6-13.05 13.9-23.85 4.15-10.65 4.15-21.65"/><path fill="#0d131a" d="m187.65 184.85-1.3-.4 1.3-.55q3.85-1.9 27.25-6.7 23.6-4.8 28.3-4.6 1.55.05 2.6 1.25.85.95.85 1.65.1 2.25-4.8 5.1-5.4 3.1-12.45 3.95l-24.8 1.2z"/><path fill="#fccf00" d="M242.6 174.65q1.8.15 1.85.85.05 1.7-4.3 4.1-5.05 2.85-12 3.65l-21.5 1.35q-11.15.2-16.65-.35 7.9-2.1 27.95-5.85 21.05-3.9 24.65-3.75"/><path fill="#0d131a" d="m192 180.15-9.5.7-.1-.3.15-.25q1.9-2.95 33.85-20.3 29.75-16.1 37.6-19.4 19-8 22.75-.4 2.05 4.25-.65 9.45-2.55 4.9-7.45 7.5-20.35 10.65-54.4 18.6-12.35 2.9-22.25 4.4"/><path fill="#fccf00" d="M218.45 160.6q27.7-14.6 36.15-18.2 8.2-3.45 13.5-3.75 5.3-.25 6.7 2.65.45 1 .45 2.2 0 3-2.35 6.5-2.4 3.55-5.85 5.45-17.85 9.85-48.85 17.8-22.7 5.75-34.05 6.85 5-4 34.3-19.5"/><path fill="#0d131a" d="M254.35 90.15q3.55 2.9 3.25 8.7-.35 5.85-4.4 11.25-15.35 20.65-43.7 42.05-24.65 18.5-37.1 22.5l-5.85.3-2.15-.95-1.15-.85q4.4-9.75 19.1-31.5 15.7-23.3 27.75-37.05 11.8-13.4 25.75-16.8 12-2.9 18.5 2.35"/><path fill="#fccf00" d="M165.35 173.45q4.5-9.65 19.35-31 15.5-22.35 27.65-36.15 10.6-12.05 23.3-15.4 11.15-2.95 16.9 1.7 3.25 2.65 2.95 6.9-.35 4.25-4.15 9.35-14.8 19.9-44.55 42.4-24.3 18.35-34.75 22.45-4.05 1.6-6.7-.25"/><path fill="#0d131a" d="M326.95 84.65q1.9 3.85-2.15 11.05-4.2 7.55-13.45 15.85-8.5 7.7-28.4 15.05-18.5 6.8-50.55 14.7-1.8.45-2.05 0-.35-.5 1.05-2.25 11.8-14.95 33.75-32 25.2-19.6 44.45-25.6 5.95-1.85 11.25-.6 4.8 1.1 6.1 3.8"/><path fill="#fccf00" d="M324.8 87.95q0 3.7-4.1 9.35-4.15 5.7-11.9 12.7-8.05 7.25-31.7 15.7-13.25 4.8-35.8 11.2l-7.05 2.05q10.8-13.2 32.75-30.65 27.55-21.85 44.45-24.95l8.5-.3q3.35.65 4.4 2.75.45 1 .45 2.15"/><path fill="#0d131a" d="M264.15 63.7q11.3-3.4 17.4 1.65 5.65 4.75.8 13.6-4.9 8.95-16.95 15l-1.15.3q-.3-.2-.25-1.3.2-5.25-2.5-8.5-4.3-5.1-16.7-6.25-.65-.05-.85-.5-.15-.4.2-.85 8.55-9.7 20-13.15"/><path fill="#e50044" d="M279.9 68.2q4.35 3.65.05 11.25Q275.5 87.4 265 93q.3-7.95-3.8-11.25-4.2-3.35-15.95-4.5 6.55-6.55 15.5-10.15 12-4.85 19.15 1.1"/><path fill="#0d131a" d="M143.25 203.1q1.45.65 1.45 1.9v1.65q-.35 1.2-2.2 2.15-5.25 2.65-12.6 11.5-7.7 9.25-8 14.2-.4 5.6-2.85 10.75-2.45 5.25-5.45 6.65-1.55.65-3.25-.4-1.4-.9-1.15-4.3.2-3.5 2-7.15 2.55-5.3 6.2-8.3l4.75-7.2q3.75-5.85 7.55-11.15 4.45-6.1 6.65-8.1 1.95-1.8 3.95-2.3z"/><path fill="#71706d" d="M142.85 204.05q.85.25.85 1 .1 1.4-2.7 2.75-5.25 2.65-12.45 11.75-7.4 9.3-7.9 14.5-.3 3.25-2.65 8.75-2.5 5.95-4.6 6.9-1.3.6-1.85.35-.55-.3-.65-1.5-.15-3 2.35-8.25 2.6-5.35 5.45-7.75l4.95-7.45 7.15-11.05q4.2-6.2 6.2-8.05 1.6-1.5 3.3-1.95 1.5-.45 2.55 0"/><path fill="#595754" d="M115.05 246.05q3-3.55 4.85-8.45-1.15 3.9-2.9 7.4-2 3.95-3.6 4.7-1.9.9-2.35-.25 1.65-.65 4-3.4"/><path fill="#0d131a" d="M123.9 199.7q1.95-1.75 7.8-1.55 5 .15 7.05 1.05.9.35.9 1.05v.3q.15 14-4.05 14.95-3.45.8-6.9-2.9-3.35-3.55-5.5-9.95-.55-1.8.7-2.95"/><path fill="#dcdbd6" d="M124.75 202.15q-.35-.8.4-1.4 1.7-1.25 6.8-1 4.4.2 6.1.9v.85q0 5.55-.9 8.65-.75 2.65-1.95 2.9-3.25.75-6.25-2.9-2.55-3.05-4.2-8"/><path fill="#b4b4b0" d="M138.05 200.65v.85q0 6.85-1.35 9.9-3.65.05-7.05-3.35-3.6-3.6-3.35-7.85l6.6-.45q3.8.3 5.15.9"/><path fill="#0d131a" d="M150.5 215.75q1.4-1.8 7.45-.85 9.2 1.55 10.2 4.65.75 2.3.65 5-.15 2.75-1.2 4.15-1.5 2.1-3.65 2.1-3.05 0-7.85-5.1-4.2-4.45-5.7-7.85-.55-1.15.1-2.1"/><path fill="#dcdbd6" d="m151.75 216.85.05-.1q.25-.4 1.65-.5l4.2.25q3.25.55 5.75 1.7 2.55 1.1 2.9 2.15.65 1.85.5 3.8-.1 1.9-.95 3.05t-2.25 1.15q-2.3 0-6.45-4.15-3.85-3.85-5.3-7.05z"/><path fill="#b4b4b0" d="M158.2 223.15q-3-3.05-4.6-6.95l4.05.3q3.25.55 5.75 1.7 2.55 1.1 2.9 2.15.65 1.85.5 3.8-.1 1.9-.95 3.05l-.8.75q-3.9-1.8-6.85-4.8"/><path fill="#0d131a" d="M189.8 196.2q1.95-2.25 3.75-1.1 6.2 3.75 9.9 9.2 3.4 5 3.4 9.3-.05 2.2-.75 4-.8 1.9-2.15 2.7-3.4 2.05-8.7.2-5.2-1.75-9-6.1-1.75-2.05-.35-8.7 1.35-6.5 3.9-9.5"/><path fill="#dcdbd6" d="M192.75 196.45q5.65 3.5 8.85 8.5 2.8 4.45 2.8 8.5 0 3.5-2.1 4.75-3 1.8-7.25.4-4.2-1.4-7.6-5.25-1.2-1.45.05-7.35 1.25-6.05 3.5-8.75 1-1.2 1.75-.8"/><path fill="#b4b4b0" d="M187.45 206.15q4.25 5.75 9.4 8.55 5.35 2.9 7.4.2-.4 2.4-1.95 3.3-3 1.8-7.25.4-4.2-1.4-7.6-5.25-.55-.65-.5-2.7 0-1.95.5-4.5"/><path fill="#0d131a" d="M171.45 169.3q9.05 1.2 16.45 7.9 7.6 6.9 9.15 15.9 1.45 8.1-2.1 15-3.6 6.95-11.45 11.05-16.25 8.45-34.15-.1-6.65-3.2-12.4-8.2-4.8-4.2-7.05-7.85-3.3-4.65-3.65-9.3-.35-4.7 2.25-9.05 4.85-8.05 17.2-12.55 12.55-4.55 25.75-2.8"/><path fill="#71706d" d="M171.4 171.4q8.25 1.1 14.8 7.5 6.5 6.45 8 14.95 1 5.6-.65 10.55-1.6 4.95-5.65 8.75 2.6-4.7-4.3-8.85-6.2-3.8-17-5.5-10.95-1.7-19.75-.2-9.9 1.7-12.45 6.95l-3.2-3.45q-6.15-8.65-1.35-16.65 4.6-7.6 16.65-11.65 12.05-4.1 24.9-2.4"/><path fill="#dcdbd6" d="M147.6 200.3q8.35-1.2 18.95.8 10.35 1.95 15.95 5.6 6.2 4.05 2.75 7.85-3.2 3.6-9.3 5.1-6 1.5-13.2.6-16.5-2-26.9-13.35 2.25-5.2 11.75-6.6"/><path fill="#595754" d="M188 208.55q3.7-2.05 5.65-4.4-1.65 5.15-5.75 9 1.3-2.3.1-4.6"/><path fill="#b4b4b0" d="M163.45 215.2q12.65-.9 22.3-5.5 1.6 2.6-.5 4.85-5.8 6.55-19.1 6-13.65-.6-24.5-8.5 8.2 4.15 21.8 3.15"/><path fill="#0d131a" d="M162.35 182.4q3.7 2.3 5.45 6.3 1.8 4.15 1.3 9.4-.45 4.6-2.5 8.5-2.1 4.05-4.75 5.1l-5.35-.2q-5.25-2.6-9.35-16.8-.85-2.9.3-5.9t3.95-5.15q2.65-2.05 5.65-2.35 3-.35 5.3 1.1"/><path fill="#dcdbd6" d="M152.4 184.95q2.25-1.7 4.75-2.05 2.45-.3 4.35.85 3.25 2.05 4.85 5.9 1.55 3.9 1.05 8.75-.4 4-2.1 7.05-1.65 3.05-3.9 3.85l-4.5-.1q-2.7-1.3-4.95-5.95-1.65-3.3-3.3-9-.8-2.7.55-5.4 1.05-2.3 3.2-3.9"/><path fill="#b4b4b0" d="m161.4 209.3-4.5-.1q-1.7-.8-3.35-3.2 4.25 2.1 8.45-.95 4.2-3 5.5-9.25l-.1 2.6q-.4 4-2.1 7.05-1.65 3.05-3.9 3.85"/><path fill="#71706d" d="M171.05 3.25q5.35-2.85 8.1-1.6 2.45 1.1 2.05 4.7-.35 3.7-3.8 11.2-3.85 8.55-12.4 14.1-2.7 1.75-5.5 2.95l-2.3.9q-8.65 15.75-16.55 36.7-9.2 24.35-9.2 35.9 0 10.8 8.1 18.5 4.4 4.15 12.4 9.25 15.35 13 15.35 33.85 0 15-14.55 26.15T118.7 207q-19.4 0-29.35-11.8-8.25-9.75-8.25-24.65 0-15.3 11.5-33.1 3.7-5.75 8.5-11.55l5.15-5.95q1.75-2.1 3.9-19.3l2.75-22.05 3.5-19.45L119.3 43q.15-.7-.3-11.35-.4-10.35.6-14.4 1.25-5.15 4.45-8.85 3.2-3.6 6.25-3.6t4.15 4.5q1.1 4.45-.4 10.55-1.3 5.05-4.7 12.65l-4 8.5q-1 2.3-2 6.2-1.4 5.45-3.75 17.5-3.35 16.95-3.35 34.15.05 8.65.7 13.85 7.25-20.95 22.3-52.35 7.55-15.7 13.6-27.2.6-2.9 1.9-6.9 2.6-8 6.2-13.6 3.95-6.2 10.1-9.4"/><path fill="#595754" d="M134.75 11.1q.5 4-.7 8.75-1.3 5.05-4.7 12.65l-4 8.5q-1.1 2.5-2.4 7.75-.1-1.35.4-3.45.65-3.1 2.75-9.1l3.65-10.6q4.35-13.45 2.7-19.95 1.85 1.55 2.3 5.45m32.85 13.45q10.95-11.1 13.25-21.3.85 1.75 0 5.15-.8 3.4-3.45 9.15-3.85 8.55-12.4 14.1-2.7 1.75-5.5 2.95l-2.3.9-1.15 2.05q-.35-.8 0-1.55.8-1.9 11.55-11.45"/><path fill="#dcdbd6" d="M125 137.55q9.65-4.45 17.7-4.45 9.95 0 17.45 10.75 7.45 10.7 7.45 24.95 0 18.2-19 29.35-15.6 9.15-32.8 9.15-15.75 0-25.75-12.1-8.95-10.8-8.95-24.65 0-9.65 5.05-20.85 4.05-8.85 5.95-10.1.75-.45 1.9 2.25l2.05 5.65q2.15 6 4.95 9.8 1.4 1.85 2.4 2.55 2-4.05 6.05-10.1 4.85-7.3 15.55-12.2"/><path fill="#0d131a" d="m83.25 156.8.6-.75q.7-.75.9-.7 2.7.5 5.35 6.85 2.4 5.65 4.05 13.8 1.55 8 1.55 14 0 6.45-1.95 7.25-2.1.9-4.8-2.55-2.65-3.45-4.55-9.45-4.85-14.9-1.15-28.45"/><path fill="#009fd9" d="M84.5 156.95q1.35.3 3.3 5.1 2.55 6.1 4.2 16h-.5q1.65 9.8 1.55 14.25-.1 2.7-.75 3-.8.4-3.2-3-6.85-9.6-6.85-21.6 0-6.25 1.9-13.55z"/><path fill="#0d131a" d="M158.65 143.95q-7.6-9.7-18.85-9.7-9.7 0-19.5 6.95-10.1 7.1-14.7 17.8-1.05 2.5-1.8 2.6-.7.05-2.65-1.95-3.1-3.15-6.05-11.45-2.4-7.8-2.8-8.35l-.65.9q-8.4 14-8.8 27.4 0 18.25 9.4 28.25 9.25 9.85 26 9.85 17.95 0 32.35-9.7 15.9-10.75 15.9-27 0-15.6-7.85-25.6m14.2-121.4q3.65-4.65 5.65-11.1 2.15-6.9-.25-8.3-2.85-1.65-7.9 1.85-5.5 3.8-10.05 11.6-3.9 6.75-5.45 12.55-.75 2.9-1.15 5.15-9.9 16.85-22.95 47.35-9.35 21.85-12 29.7l-1.15 3.7q-.55 1.65-1.5 3.1-1.05 1.65-1.65 1.2-.55-.4.2-1.8l1.3-2.95q-2-8.05.35-31.05 2.45-24.65 7.8-41.35.65-2 2.6-6l2.95-5.9q2-4.05 3.35-8.3 1.5-4.75 1.1-9.2-.45-4.4-2.4-5.8-2.2-1.55-5.9 1.3-4.7 3.5-5.75 12.65-.6 5.2.1 15.35.35 6.3.05 7.7-3 14.25-5.35 29.55l-3.2 22.9-2.5 17.1q-1.3 6.65-3.15 8.6-7.95 8.45-13 16.4.85.2 4 8.35 3.5 8.9 6.4 11.75 6.2-14.7 19.6-21.85 13.2-7.1 25.55-2.85-10.3-7.25-13.9-12.6-3.9-5.75-3.9-14.7 0-12.05 7.7-32.05Q144 60.3 156.05 36q.15-.3 5.8-3.7 6.3-3.8 11-9.75M179.9.65q3.8 2 2.9 8.6-.85 6.35-5.4 12.2-7.05 9.15-13.85 12.2-3 1.1-4.05 1.55-1.7.75-2.3 2-11.85 24.1-17.35 38.7-7.5 19.7-7.5 31.5 0 9.2 5.8 15.55 2.3 2.6 12.7 10.1 8.75 6.35 12.7 12.7 5.8 9.25 5.8 23.35 0 17.85-16.1 29-14.65 10.05-34.45 10.05-18.5 0-28.6-10.3-10.05-10.2-10.05-28.75 0-10.85 6.15-22.7 6.05-11.75 18.55-25.35 1.6-1.7 2.85-8.3l2.35-16.5 3.2-23q2.4-15.25 5.4-29.6.6-2.5-.1-7.25-1.85-12.25-.25-19.55 1.55-6.8 6.35-10.4 2.6-1.95 5.1-2.15 1.9-.15 3.25.75 2.5 1.8 3.25 6.8.8 5.2-.9 10.45-1.4 4.5-3.15 7.85l-3.3 5.7q-2.3 4-3.3 6.85-4.75 14.85-7.15 37.2-2.2 20.45-.95 30.75l.05-.15q10.55-27.4 15.1-38 9-20.85 19.3-38.55l1.6-6.65q1.45-6.35 6.4-14.95 4.2-7.3 10.7-10.6 5.85-2.95 9.25-1.1"/><path fill="#0d131a" d="M147.75 151.25q5.55 0 9.45 4.45 4.3 4.9 4.4 13 .15 12.2-6.1 20.95-6.15 8.6-14.5 8.6-6.85 0-11-5.7-3.85-5.25-3.85-12.85 0-12.6 5.95-20.5 6-7.95 15.65-7.95"/><path fill="#009fd9" d="M128.55 180.85q0-11.6 4.95-19.3 5.2-8.1 13.8-8.35 5.25 0 8.65 4 3.5 4.25 3.5 11.35 0 11.05-5.15 19.3-5.45 8.75-13.7 8.75-4.75 0-8.2-3.9-3.85-4.4-3.85-11.85"/><path fill="#0d131a" d="m103.4 204.4-.6-1q-.35-.55-.35-1.25 0-1.15 1.45-2.2 1.55-1.2 3.7-1.15 5.1.1 9.3 3.5 3.85 3.05 3.05 4.7-.5 1.05-1.9 1.85-3.1 1.75-6.75 19.05-3.9 18.4-3.9 35.4 0 9.35 3 16.95 3.25 8.05 7.8 8.05 3.95 0 6.8-4.65 3.05-4.95 3.05-12.7 0-5.95-2.1-9.75-1.9-3.4-4.35-3.4-2.75 0-4.15 2.4-1.6 2.65-.75 7.05.4 2.1-.1 3.55-.45 1.3-1.5 1.7-.9.4-1.85-.55-1.15-1.05-1.7-3.45-1.5-6.6 1.7-12.05 3.05-5.2 7.8-5.2 5.6 0 9.2 5.2 3.55 5.15 3.7 13.3.25 13.85-4.5 20-4 5.1-11.75 5.1-7.55 0-12.15-7.15-6.05-9.3-6.05-29.5 0-12.15 2.8-33.2 2.2-16.9 1.1-20.6"/><path fill="#71706d" d="M117.1 206.85q-3.9 2.95-7.55 20.3-3.7 17.45-3.7 33.25 0 13.85 3.6 21.95 3.6 8.15 9.6 7.5 5-.5 7.7-5.95 2.6-5.15 2.6-13.4 0-5.9-2.25-10.35-2.4-4.7-5.7-4.7-2.8 0-4.75 3.15-2.25 3.55-1.3 8.65.65 3.9-.4 4.2-.55.15-1.15-.8-.6-1-.95-2.75-1-5.4 1.3-10 2.45-4.85 6.95-4.85 4.65 0 7.75 5.15 3 5 3.05 12.15.05 10.3-3.45 16-3.6 5.95-10.35 5.95-7.8 0-12.15-8.95-4.4-9.05-4.35-25.45 0-9.55 1.2-20.9.75-6.95 1.6-11.95 1.6-10 1.5-15.3-.1-3-.95-5.5l-.45-1.7q0-1.55 1.95-1.8 2.95-.4 6.75 1.5 3.85 2 4.2 4.3z"/><path fill="#595754" d="M117.1 206.85q-3 2.3-6.15 14.4-3.05 11.8-4.4 25.7.8-14.75 3.35-26.05 2.4-10.8 6-16.8 1.35 1.35 1.5 2.45zm-1.55 54.1q.55-3.05 2.35-4.8 1.75-1.7 3.85-1.55 5.15.35 6.65 9-1-3.6-2.8-5.8-1.95-2.35-4.2-2.35-1.75 0-3.35 1.45-1.75 1.55-2.5 4.05M105 281.2q3.45 8.2 10.85 9.85 8.55 1.85 13.55-6.45-3.6 7.7-11.3 7.7-4.95 0-8.55-3.65-2.75-2.75-4.55-7.45"/><path fill="#0d131a" d="M93.7 185.6q-4.95-.35-6.15-9.45-.45-3.65.25-6.25.8-2.8 2.7-2.8 1.45 5.75 2.3 10.7.55 3.05.9 7.8m52.2-20.35q2.2.5 3.45 3.6 1.6 3.9.1 9.65-1.2 4.65-3.95 7.25-2.3 2.15-4.75 2.15-1.9 0-3.35-2.1-2-3-1.5-9 .6-6.35 3.9-9.55 2.85-2.75 6.1-2"/><path fill="#fff" d="M151.7 161.4q.95 2.7-.1 5.65-1.1 2.95-3.55 4.45t-4.85.7q-2.45-.85-3.4-3.55-.95-2.65.1-5.65 1.1-2.95 3.55-4.45t4.85-.65 3.4 3.5m-61.8 6.95q.3 2.2-.35 3.9t-1.85 1.85q-1.15.15-2.2-1.3-1.05-1.5-1.35-3.7-.25-2.2.4-3.9t1.8-1.85q1.2-.15 2.25 1.3 1.05 1.5 1.3 3.7"/></svg>