<svg xmlns="http://www.w3.org/2000/svg" width="259" height="225" viewBox="-0.6 -0.45 258.9 225.3"><path fill="#e6d4e7" d="M32.3 166.95q-4.95 3.8-28.8 23.5 12.9-12.85 25.1-30.85 10.35-15.2 11.6-20.1l14.15 14.65Q46 156.6 32.3 166.95"/><path fill="#c7b7c8" d="m24.8 172.85 11-11q6.6-6.65 14-12.4l4.55 4.7q-5.75 1.7-13.5 6.75-6.4 4.15-16.05 11.95"/><path fill="#e6d4e7" d="M112.3 4.6q3.1 38.35 7.45 45.4l-12.45-.65q5-16.1 5-44.75"/><path fill="#c7b7c8" d="m119.75 50-4.8-.25q-1.85-12.1-.4-22.7 2.4 18.5 5.2 22.95"/><path fill="#e6d4e7" d="M179.05 162q5.95 16 23.2 38.6-25.9-28.75-33.45-31.55z"/><path fill="#c7b7c8" d="M179.05 162q2.75 7.5 8.8 17.6-5.6-3.55-11-4.95-5.3-4.6-8.05-5.6z"/><path fill="#e6d4e7" d="M199.55 93.65q7.3 12.8 6.9 25.65-.9 27.2-26.25 43.5-24.75 15.9-62.2 14.95-37.5-.95-63.3-19.35-12.55-8.95-19.2-20.5-6.95-12.1-6.6-25.6.35-13.6 7.45-25.8 6.9-11.85 19.15-20.75 26.15-18.9 62.7-17.45 16.75.7 33.2 6.95 15.8 6 28.45 16.05 12.75 10.15 19.7 22.35"/><path fill="#c7b7c8" d="m207.55 117.2-.9 7.15q-1.15 7.2-3.55 11.6-7.75 20.05-31 31.4-23 11.2-54.1 10.4-23.7-.6-43.9-8.8-20.05-8.15-31.95-21.85 26.65 20.65 62.25 24.2 38.3 3.85 68.6-14.8 9.7-5.95 18.4-16.45 5.9-7.1 16.15-22.85"/><path fill="#e6d4e7" d="M100.5 66.15q2.8 1.95-.2 4.45-2.6 2.25-8.1 3.85-5.45 1.65-9.4 1.4-4.45-.2-4.05-2.85.8-5.85-6-21.5-7.15-16.35-18.9-34.45 14.65 17.45 27.6 31.1 13.15 13.9 19.05 18m72.1 2.5q5.55-.8 26.3-13.3 19.5-11.75 31.5-20.9-13.15 12.25-26.75 28.35-13.1 15.55-15.55 21.4-1.1 2.6-4.85.9-3.3-1.5-7.05-5.45-3.7-3.85-4.95-7.05-1.4-3.55 1.35-3.95"/><path fill="#c7b7c8" d="M186.35 85.65q2.1-13 12.35-24.5 8.7-9.75 21.7-16.85-11.2 11.5-20.85 23.5-9.45 11.75-11.45 16.4-.5 1.2-1.75 1.45"/><path fill="#e6d4e7" d="M121.5 166.45q2.85-2.3 8.45-3.65 5.7-1.4 9.6-.7 4.45.8 3.8 4.1-1.1 6.1 4.85 25.65 2.2 7.1 9.45 27.8-9.5-15.65-20.3-29.85-10.45-13.75-16.35-18.6-2.7-2.2.5-4.75"/><path fill="#e6d4e7" d="M121.5 166.45q2.85-2.3 8.45-3.65 5.7-1.4 9.6-.7 4.45.8 3.8 4.1-1.1 6.1 4.85 25.65 2.2 7.1 9.45 27.8-9.5-15.65-20.3-29.85-10.45-13.75-16.35-18.6-2.7-2.2.5-4.75m99.7-23.25q13.8 10.6 32.8 22.75-28.25-14.15-33.2-16.15-15.05-6.25-25.85-5.35-5.65.5-6.25-3.3-.55-3.15 2.45-8 2.9-4.6 6.4-6.85 3.9-2.5 5.5.15 3.25 5.35 18.15 16.75"/><path fill="#c7b7c8" d="M194.95 144.45q-5.95 1.3-6.05-1.2-.05-.9.9-1.75.95-.9 2.1-.95 8.3-.2 19.75 3.95 11.25 4.1 21.5 10.95-14.7-7.2-20.5-9.15-10.15-3.5-17.7-1.85"/><path fill="#0d131a" d="m37.5 141.2 1.85 2.7q-3.4 6.6-9.65 15.85-7.45 11-15.6 20.6 12.65-10.55 19.5-15.6 9.5-7.05 16.2-10l2.45 2.3q-7.6 3.2-17.3 9.85-9.05 6.2-21.5 16.6l-9.3 7.75Q.8 194 .15 193.8q-.75-.25 2.65-4.05 8.2-9.05 17.05-20.55 14.1-18.3 17.65-28M111.45 4.6q-.05-4.1.7-4.6.75-.45.95 4.55.35 6.65 2.55 21.6 2.55 17.15 4.65 23.2l-1.85-.1q-3.2-6.8-5.7-30.85-1 18.4-4.25 29.85l-2.5.2q2.05-4.9 3.85-19.95 1.75-14.6 1.6-23.9m69.7 158.85q1.7 5.1 10.3 19.1 7.4 12.15 11.45 17.55 2.9 3.9 2.25 3.95-.6 0-3.55-2.9-7.6-8.35-14.15-15-12.65-12.9-18.4-15.35l1.4-.55 1.35-.55q7 4.5 21.75 20.25-9.8-14.4-14.3-25.25z"/><path fill="#0d131a" d="M177.4 67.1q-2.2.75-3.8.9-11.9-8.2-25.9-12.95-14.6-5-29.55-5.65-18.05-.7-34.2 3.95l-1.7-2.1q17.75-5.1 36-4.05 16.8.95 32.3 6.3 14.75 5.1 26.85 13.6M189.7 82q.55-1.85 1.25-3.3 8.8 9.25 13.35 20.15 4.45 10.75 4.3 22.05l-.35 5.35-1.05 5.1-2-1.5-1.15-.7q1.1-4.95 1.3-9.85.3-9.6-3.9-19.3-4-9.35-11.75-18M46 71.05q11.55-10.8 28.3-17.15l1.2 2.3q-15.55 6.1-26.6 16.4-9 8.45-13.8 18.55-4.85 10.15-5.1 21.2-.35 15.3 9.05 28.85 4.9 7.05 12.3 13.15 12.2 10 29.2 15.8 17.55 6 37.45 6.5 4.85.15 10.1-.1l1.85 3.2q-6.25.35-11.5.2Q97.6 179.4 79 172.7q-17.9-6.5-30.65-17.55-6.45-5.7-10.85-11.75-10.75-14.8-10.3-31.3.55-23.95 18.8-41.05m152.3 73.15h2.25l2.4-.15q-7.6 13.25-23.05 22.2t-36.1 12.15l-1.1-3.25q19.45-3.05 33.65-10.85 14.55-8 21.95-20.1"/><path fill="#0d131a" d="M100.95 65.3q1.75 1.1 1.3 1.85-.45.7-2.45-.45-7.55-4.35-17.2-14.55-5.4-5.75-20.4-23.6 9.3 15.5 13.85 26.65 5.1 12.4 3.65 17.9-.6 2.45-1.25 2.2-.6-.25-.7-2.45-.65-10.1-7.4-24.55-5.6-11.85-17.3-30.7-3.1-4.9-3-5.7.15-.85 4.55 4.5 10.1 12.25 21.3 24.65Q93.7 60.7 100.95 65.3m126.5-29.6q3.2-2.35 3.95-2.2t-1.95 2.8q-9.9 9.7-23.1 25.15-14.45 16.95-17.25 22.9-1.3 2.8-1.95 2.55-.7-.25 0-2.9 3.15-12.2 32-40.2-15.8 10.85-24.7 16.15-13.9 8.2-21.65 9.65-2.35.45-2.75-.35-.4-.85 2.3-1.6 9.05-2.4 31.3-16.25 15.8-9.8 23.8-15.7M121 172.2q-2.35-1.8-2.4-2.5-.1-.85 3.85.8 3.85 1.65 14.3 15.9 7.95 10.85 16.65 24.55-5.7-15.15-8.4-24.6-4.55-15.7-2.6-20.35 1.15-2.75 1.65-2.7.5 0 .3 3.15-.45 7.7 5.85 28.2 3.45 11.3 8.4 24.7 2 5.4 1.4 5.45-.55.05-3.2-4.6-3.75-6.6-16.3-24.1Q126 176 121 172.2m83-46.05q3.45 5.6 25.4 21.6 14.75 10.7 25.15 17.4 3.75 2.35 2.9 2.6-.8.25-5.25-1.7-11.05-5.9-22.3-10.75-22.05-9.5-35.4-9.95-2.5-.1-2.35-.65.15-.5 2.75-1.2 5.55-1.5 18.25 2.75 10.75 3.6 25.7 11-18-11.95-25.75-18.3-8.15-6.75-11-12.2-1-1.95-.8-3.2.25-1.35 2.7 2.6"/><path fill="#baa0ca" d="M43.35 137q-2.8 1.15-7.05-1-3.8-1.9-6.05-12.1-2.05-9.6-.85-15.75.95-4.85 4.45-6.55 3.35-1.6 5.25 1.05 2.8 3.85 6.1 12.5 4.15 10.75 2.75 15.45-1.5 5.2-4.6 6.4m105.25-24.05q4.55-.7 7.75 4.4 3.05 4.8 3.3 12.05.25 7.65-4.85 16.35-5.6 9.55-13.4 12.1-8.6 2.8-15.6-.9-7.3-3.8-6.85-11.7.4-7.2 10.5-18.85 10.6-12.15 19.15-13.45"/><path fill="#a28ab0" d="M44.25 111.85q2.7 6.8 3.7 12.8-3.15-6.15-8.7-11.2-5.5-4.95-9.8-5.65 2.2-7.75 6.15-7.25 2.5.3 4.6 3.2 1.75 2.4 4.05 8.1M159.5 125.2q-15.2-.5-27.85 6.2-9.15 4.9-12.15 9.8.3-5.7 9.9-15.9 10.35-11.05 19.2-12.35 3-.45 6.1 2.85 3.3 3.5 4.8 9.4"/><path fill="#e85377" d="M42.3 108.45q7.45 16.15 5.65 22.15-2.45 8.55-9.4 6.3-4.5-6.95-4.05-17.5.55-11.35 7.8-10.95"/><path fill="#c94768" d="M42.3 108.45q1.45 3.25 3.55 9.5 1.95 5.95 2.8 9.65-2.15-5.35-5.5-9.85-2.9-3.9-6.15-6.5 2.15-2.95 5.3-2.8"/><path fill="#e85377" d="M132.5 123.15q7.6-3.9 12.45-.4 4.35 3.2 4.8 10.7.4 7.5-3.45 14.45-4.35 7.8-12.2 11.05-6.65-.1-10.95-3.75-4.55-3.85-4.2-9.95.25-3.85 4.15-10.25 3.9-6.3 9.4-11.85"/><path fill="#c94768" d="M132.5 123.15q5.9-3.05 10.45-1.4 3.55 1.25 4.65 4.25-6.55 1.1-13.25 3.7-8.15 3.15-13.15 7.35 2.75-4.75 6.15-8.6z"/><path fill="#0d131a" d="M63.35 157.3Q56 142.2 60.4 122.8q4.2-18.5 16.05-29.45 3.55-3.35 4.6-3.8 1.15-.55-2.95 4-11.1 12.3-14.95 29.4-4.1 18.15 1.75 35 1.15 3.3.45 2.65-.65-.6-2-3.3m48.25-69.2q-13.75 15.6-17.65 28.85-6.45 22.1 7.6 47.4 1.6 2.9.95 2.6-.6-.3-2-2.5-14.9-22.8-9.9-44.15 3.55-15.1 18.05-31.15 1.7-1.85 3.35-2.65 1.7-.85-.4 1.6M41 136.4q2.75 0 4.55-2.4 1.75-2.35 1.75-6-.05-9-4.7-18.1-4.25-8.15-7.1-8.2-2.2-.1-3.5 2.25-1.15 2.05-1.65 4.4-1.15 5.7.9 15.1 2.1 9.95 5.5 11.65 2.6 1.3 4.25 1.3m3.8-26.85q4.85 10 4.6 18.8-.1 4.3-2.3 6.95-2.3 2.75-6.05 2.75-2.65-.1-5.1-1.65-4.1-2.65-6.5-12.95-2.2-9.6-1-15.5.75-3.75 2.8-6.2 2-2.4 4.1-2.3 4.55.15 9.45 10.1m105.75 4.5q-2.05-.4-5 1.2-8.5 4.6-16.2 12.65-9.35 9.8-9.4 17.45-.05 6 4.3 9.45 3.15 2.45 7.75 3 4.55.55 9.1-.9 7.55-2.45 12.7-11.05 4.7-8 4.6-16-.1-7.55-3.8-12.85-1.85-2.6-4.05-2.95m4.75-.2q3.2 3.8 4.65 9 1.4 5.1.7 10.4-1.1 8.85-5.6 15.6-5.15 7.65-13.25 10-7.3 2.1-14.8-.55-8.85-3.2-9.45-11.6-.55-8.1 8.4-19 9-11 20.3-15.6 2.65-1.1 4.7-.8 2.4.3 4.35 2.55"/><path fill="#0d131a" d="m42.3 107.9.3.9q-2.95-.05-4.95 3.1-2.25 3.5-2.35 9.65 0 4.25 1.5 8.9 1.5 4.7 3.4 6.25l-1.65.2q-3.6-3.9-4.75-11.7-1.3-8.4 1.8-13.65 1.1-1.85 2.9-2.8 1.75-.95 3.8-.85m106.9 26.8q0-5.35-3.1-9.35-2.9-3.6-6.15-3.7t-7.15 1.95l-.55-.95q4.1-2.5 8-2.5 4.25-.05 7.35 3.6 3.5 4.15 3.45 11-.05 8.55-5.3 16.3-5.3 7.85-11.35 7.85l-.45-.85q5.55 0 10.55-8.4 4.7-7.85 4.7-14.95"/><path fill="#fff" d="M45.2 125.9q0 1.75-.6 3-.65 1.2-1.5 1.2t-1.45-1.2q-.6-1.25-.6-3 0-1.7.6-2.95.6-1.2 1.45-1.2t1.5 1.2q.6 1.25.6 2.95m89.3 13.95q0 2.3-.9 3.9-.95 1.6-2.25 1.6t-2.25-1.6-.95-3.9q0-2.25.95-3.85t2.25-1.6 2.25 1.6q.9 1.6.9 3.85"/></svg>