<svg xmlns="http://www.w3.org/2000/svg" width="391" height="295" viewBox="-3.3 -2.85 391.25 295.4"><path fill="#8bc56c" d="M371.75 53.7q9.45-1.3 12.85 26.2 2.45 19.55 1.25 34.25-.2 3-25.3 13.2l-25.05 9.6 20.35-2.95q20.95-2.95 24.1-2.95 6.95 0 1.3 23.15-4.4 17.95-9.5 29.05-2.2 4.9-28.5 4.95l-25.85-.9q33.25 8.2 36.25 10.05 5.7 3.55-6.55 23.2-4.5 7.15-10.1 14.4-5.05 6.5-7.55 8.75-1.9 1.7-21.95-6.7l-19.65-8.75 12.45 9.8q12.4 10.9 12.4 16.35 0 5.55-27.2 15.8-19.05 7.2-31.2 10.25-3.35.8-21.15-23.6l-17.1-24.6 1.1 25.65q.8 26.3-.45 29.4-1.8 4.5-28.1 3.2l-18.45-1.7q-8.4-1.15-9.15-2.15-1.3-1.7 1.6-15.1l3.1-13.1-7.2 11.9q-7.75 12.4-10.25 14.95-2.9 2.85-29.4-6.45-26.15-9.2-28.35-13-1.7-2.95 12.4-15.2L117.35 239Q77.1 255.1 73.7 255.75q-3.05.65-17.7-10.45-15.7-11.95-21.2-21.1-5.05-8.35 19.15-14.75 12.05-3.2 25.15-4.7l-25.6 1.15q-26.35.7-30.1-1.85-2.3-1.5-6.65-11.45-4.4-10-8.2-22.5-9.85-32.1-5.3-42.55 3.15-7.2 82.2 4.9 40.9 6.25 94.35 15.9 14.85-17.45 98.85-56.45 31.5-14.6 60.05-26.25Q366 54.5 371.75 53.7"/><path fill="#78ab5e" d="M383.5 72.55q1.9 10.35 2.4 24.8.4 11-.05 16.8-.2 3-25.3 13.2l-25.05 9.6 20.35-2.95q20.95-2.95 24.1-2.95 6.95 0 1.3 23.15-4.4 17.95-9.5 29.05-2.2 4.9-28.5 4.95l-25.85-.9q33.25 8.2 36.25 10.05 5.7 3.55-6.55 23.2-4.5 7.15-10.1 14.4-5.05 6.5-7.55 8.75-1.9 1.7-21.95-6.7l-19.65-8.75 12.45 9.8q12.4 10.9 12.4 16.35 0 5.55-27.2 15.8-19.05 7.2-31.2 10.25-3.35.8-21.15-23.6l-17.1-24.6 1.1 25.65q.8 26.3-.45 29.4-1.8 4.5-28.1 3.2l-18.45-1.7q-8.4-1.15-9.15-2.15-1.3-1.7 1.6-15.1l3.1-13.1-7.2 11.9q-7.75 12.4-10.25 14.95-2.25 2.25-21.5-3.8-17.8-5.65-29.85-11.6-4.2-1.5 8.75-15 11.25-11.85 22.85-20.55-2.35-.65-6.55 1l-3.75 1.75q-41.1 18-44.5 18.65-3.05.65-17.7-10.45-15.7-11.95-21.2-21.1-5.05-8.35 19.15-14.75 12.05-3.2 25.15-4.7l-25.6 1.15q-26.35.7-30.1-1.85-4-2.65-11.6-24.1-8.1-22.7-9.6-38.65.35-8.35 18.1-9.45Q34.75 131 64.05 135l55.7 8.8q35.35 5.7 54.05 7.45 71.75-35.9 99.4-49.25 42.25-20.5 64.4-29.35 24.3-9.7 34.95-9.7 10.55 0 10.95 9.6"/><path fill="#009233" d="M57.35 208.6q1.2 4.25 13.1 16.3 13.75 13.9 27.3 21.85-21.95 8.6-24.05 9-3.05.65-17.7-10.45-15.7-11.95-21.2-21.1-3-5 4.65-9.35 5.9-3.4 17.9-6.25"/><path fill="#00a63c" d="M3.25 127.55q1.65-3.9 25.35-2.15 2.1 24.9 9.05 45.35Q43.3 187.4 54.1 205.9q-26.9.7-30.7-1.85-2.3-1.5-6.65-11.45-4.4-10-8.2-22.5-9.85-32.1-5.3-42.55"/><path fill="#009233" d="M338.7 192.8q13.2 3.5 14.95 4.55 5.7 3.55-6.55 23.2-4.5 7.15-10.1 14.4-5.05 6.5-7.55 8.75-1.25 1.15-7.9-1.15-4.85-1.65-15.15-6.15 10.5-7.3 19-19.7 6.05-8.8 13.3-23.9"/><path fill="#00a63c" d="M354.9 95q-2-18.65-8.4-32.4 20.85-8.3 25.25-8.9 9.45-1.3 12.85 26.2 2.45 19.55 1.25 34.25-.25 3.35-30.35 15.2.9-20.15-.6-34.35"/><path fill="#009233" d="M341.15 188.2q5.9-11.6 9.2-25.85 2.9-12.35 4.1-28.1l25.5-3.2q6.95 0 1.3 23.15-4.4 17.95-9.5 29.05-2.3 5.15-30.6 4.95"/><path fill="#00a63c" d="M90.5 265.85q-1-1.7 3.4-6.4 3.05-3.2 10.2-9.35 12.05 7.5 26.7 12.25 12.7 4.1 28.45 6.45-8.85 14.3-11 16.5-2.9 2.85-29.4-6.45-26.15-9.2-28.35-13"/><path fill="#009233" d="M1.95 134.45q.55-2.55 10.65-2.95l16.65.5q2.5 22.3 9.25 41.15 5.5 15.4 15.6 32.75-26.9.7-30.7-1.85-2-1.3-5.7-9.4-3.7-8-7.35-18.85-8.95-26.8-8.4-41.35m364.35-72.2q12-3.7 13.85-1.5 4.1 9.4 5.4 29.7 1 14.75.3 23.7-.25 3.35-30.35 15.2 1.7-38.05-6.5-61.1 17-5.95 17.3-6M94.35 268.6q-1.4-.85 3.95-6.8 4.25-4.75 9.6-9.4 21.15 11.9 51.35 16.4-8.85 14.3-11 16.5-2.4 2.4-23.55-4.5-20-6.5-30.35-12.2M161 286.65q-.8-1.1-.1-6.45.55-4.55 2-10.8 17.85 2.55 30.1 2.7l24.4-1.3q.2 14.3-.7 16.5-1.8 4.5-28.1 3.2l-18.45-1.7q-8.4-1.15-9.15-2.15m140.45-47.25q5.3 4.65 7.9 7.9 3.35 4.2 3.35 7.1 0 5.55-27.2 15.8-19.05 7.2-31.2 10.25-1.35.3-4.9-3.35-3-3.1-8.2-9.8 12.85-2.45 28.5-8.9 20.75-8.5 31.75-19"/><path fill="#c94768" d="M66.15 157.25q10-5.05 24.05-5.05t24 5.05 9.95 12.2-9.95 12.15q-9.95 5.05-24 5.05t-24.05-5.05q-9.95-5.05-9.95-12.15 0-7.15 9.95-12.2"/><path fill="#78ab5e" d="M79.75 164.15q4.75-2 11.4-2t11.35 2 4.7 4.8-4.7 4.8-11.35 2-11.4-2q-4.7-2-4.7-4.8t4.7-4.8"/><path fill="#c94768" d="M132.65 205.2q1.35 2.5-1.85 6.5-3.2 3.95-9.1 7.1-5.85 3.15-10.95 3.65t-6.4-2Q103 218 106.2 214t9.05-7.15q5.9-3.15 10.95-3.65 5.1-.45 6.45 2m154.4-94q15.5-4.15 28.15-1.95 12.6 2.15 14.9 9.4 2.35 7.25-7.05 15.3-9.35 8.1-24.9 12.25t-28.15 2q-12.65-2.2-14.95-9.45t7.1-15.3q9.35-8.1 24.9-12.25"/><path fill="#78ab5e" d="M289.2 121.6q7.35-2 13.2-1.35 5.85.6 6.75 3.5.9 2.85-3.65 6.3-4.55 3.4-11.9 5.35-7.35 2-13.2 1.35-5.85-.6-6.75-3.5-.9-2.85 3.65-6.25t11.9-5.4"/><path fill="#c94768" d="M272.95 171.95q-.05-3 5.25-5.45 5.35-2.45 12.95-2.9 7.65-.45 13.05 1.35 5.5 1.75 5.55 4.75.1 3-5.25 5.45t-12.95 2.9q-7.65.45-13.1-1.3-5.4-1.8-5.5-4.8"/><path fill="#0d131a" d="M383.3 77.8q-2.4-16.95-7.3-21.55-1.9-1.8-4.1-1.45-5.5.75-32.6 11.8-28.65 11.65-60.2 26.3-39.95 18.55-65.7 33.2-25.8 14.7-32.8 22.95l-.4.45-20.9-3.6-43.55-7.5q-29.55-4.95-50.7-7.85-34.4-4.7-49.9-4.6Q5.1 126 4.2 128q-4.5 10.35 5.45 42.1 3.8 12.1 8.1 22.05 4.25 9.75 6.2 11.05 2.75 1.8 26.95 1.45l28.1-.95q4.05-.35 3.65.5-.35.75-3.45 1.6-11.8 2.1-21.8 4.5-19.6 4.7-22 9.55-.9 1.8.3 3.8 5.55 9.2 20.6 20.45 13.8 10.25 17.8 10.25 2.45 0 37.5-16.2 37-17.15 39.45-17.95 4.75-1.55 4.05-.2-.6 1.2-3.8 2.9l-31.1 14.85q-11.5 8.6-20.6 17.3-9.05 8.7-8.15 10.25 1.4 2.45 20.1 9.7 19.45 7.5 30.65 9.4l4.4.25q.9-.25 2.45-1.85 2.3-2.3 15.7-24.9 1.7-2.8 2.05-2.45.35.3-.1 3.25l-2.7 12.8q-2.35 10.7-2.35 13.1l.2 1.35q2.55 1.8 22.2 3.15 20.85 1.45 28.75-.65 2.7-.75 2.9-1.55.95-2.4.55-21.1-.3-15.55-1.3-33.5l-.2-3.9 2.15 3.25q27.3 41 36.5 47 1.1.75 10.35-2 9.05-2.65 19.9-6.85 27.95-10.8 27.95-15.4 0-4.2-11.65-14.75l-12.7-10.55q-1.25-.95-1.1-1.8l2.15-.05 20.4 8.65q18.55 7.6 20.1 6.95 5.35-4.85 14.65-18.7Q354.3 208 354.3 201.2l-.05-.65q-.15-1.7-1.2-2.25-1.25-.8-14.3-4.1l-19.15-4.7-67.55-2.7-2.65-2.9q46.65 3.3 82.75 3.05 36.9-.25 38.65-4.15 4.25-9.3 8.5-25.45 5.25-19.8 2.35-24.25-.55-1-1.7-1l-21.45 2.7-22.85 3.2q-4.65.5-4.2-.45.4-.9 3.9-2Q383.8 116.9 384.8 114l.25-8.4q0-15.2-1.75-27.8m-11.7-25.15q1.6-.3 3.4.35 1.75.65 3.1 1.9 5.45 5.15 7.9 22.6 1.75 12.25 1.75 27.8l-.25 6q-.25 3.05-.65 3.85-1.45 2.9-15.05 8.9-8.55 3.7-26.2 10.35l20.45-3.15 14-1.85q1.1 0 2.35.75 1.2.7 1.8 1.65 3.75 5.8-2.05 28.1-5.45 21.05-9.75 25.4-2.6 2.55-17.3 3.55-12.6.8-26.5.2l15.85 3.9q8.5 2.1 9.75 2.85 1.05.65 1.95 2.05 1 1.45 1.15 2.75v.75q0 7.2-11.55 24.1-8.3 12.15-13.7 17.9-1.9 2.05-4.6 2.05-1.55-.05-5.05-1.15-6.25-1.95-26-10.9 17.35 13.95 17.35 21.05 0 6.95-28.55 18.05-10.8 4.2-20.8 7.05-9.8 2.75-11.9 2.25-3.6-.9-15.55-17.2-6.45-8.75-19.65-28.45l1.1 17.45q.8 13.1.8 20.75l-.3 8.65q-.35 3.75-.8 4.9-.9 2.4-8.55 3.4-10.15 1.3-25.8.45-15.85-.9-22.2-3.2-3.4-1.2-2.65-5.25 1.2-6.45 4-18.05l-7.3 12.2q-4.4 7.2-6.1 8.95-1.6 1.5-6.15.85-9.7-1.3-28.4-8.2-18.75-6.95-24.65-11.5-1.6-1.3-1.75-2.6-.1-1.2 1.1-2.9 1.4-1.95 8.8-9 8.2-7.85 14.5-12.8-3.8 1.5-21.8 9.8-14 6.4-17.2 6.8-4.6.6-18.8-10-14.95-11.25-21.6-21.6-1.65-2.6-1.5-4.3.2-1.8 2.6-4.05 2.05-1.95 9.6-5 8.25-3.3 16.2-5.05-17.2.65-23.3.6-12.5-.05-15-1.75t-7.05-12.1q-4.5-10.35-8.45-23.4Q-3.3 137 1.3 126.35q2.7-6.15 42.1-1.45 33.9 4 116.25 18.9l19.75 3.4q8.3-9.3 35.75-25.1 24.15-13.95 57.95-30 31.45-14.9 59.15-26.05 28.25-11.35 39.35-13.4"/><path fill="#0d131a" d="m346.25 63.55 1.1-.45q5.35 11.85 7.55 28 2.15 16.1 1.35 38.05l-1.4.45q.4-43.65-8.6-66.05m8.2 69.9 1.2.1q-1.65 26.4-13.05 53.3l-2.2.85q11.15-26.4 14.05-54.25M338.5 193.2l1.1.5q-6.75 15.25-15.5 26.1-6.85 8.45-17.15 16.75l-.75-.95q8.8-7.1 16.05-16.3 8.45-10.8 16.25-26.1m-37.45 46.2.75.95Q275.65 260.1 241.15 268l-.3-1.2q34.25-7.75 60.2-27.4M163.7 270.25l.15-1.2 18.75 2q17.75 1.15 34.45-.45l.15 1.2q-18.95 1.8-34.85.7zM104 251.2l.55-1.05q10.95 5.35 25.9 10.25 14.4 4.75 28.85 7.95l-.2 1.2q-30.95-5.2-55.1-18.35m-6.25-5-1.75.7q-11.8-7.3-21.7-16.8-9.45-9.1-17.8-20.85l1-.7q7.6 10.7 17.95 20.1 8.55 7.8 22.3 17.55M28.3 125.45l1.5.25q.65 14.85 4.8 31.4 6.85 27.15 21.3 48.55h-2.2q-14.5-21.55-21-48.7-3.8-15.9-4.4-31.5m28.35 44q0 6.95 9.85 11.85 9.8 4.9 23.7 4.9 13.85 0 23.65-4.9 9.85-4.9 9.85-11.85t-9.85-11.85q-9.8-4.95-23.65-4.95t-23.7 4.95q-9.85 4.9-9.85 11.85m-1.65.05q0-7.45 9.9-13 10.05-5.65 24.1-5.65 16.15 0 26.3 5.7 9.65 5.4 9.65 13.2 0 7.3-10 12.55-10.05 5.25-24.2 5.25-16.2 0-26.35-5.6Q55 176.8 55 169.5"/><path fill="#0d131a" d="M75.5 168.95q0 2.55 4.65 4.15 4.45 1.55 11 1.55 6.5 0 10.95-1.55 4.65-1.6 4.65-4.15t-4.65-4.2q-4.45-1.6-10.95-1.6t-11 1.6q-4.65 1.65-4.65 4.2m-1.4-.1q0-3 5.05-5.1 4.95-2.05 12-2.05 7 0 12.15 2.15 5.2 2.2 5.2 5.2 0 3.05-5.2 5.1-5.1 2.05-12.15 2.05-7 0-12-2.15-5.05-2.15-5.05-5.2m47.4 49.6q4.8-2.6 7.95-5.95 3.1-3.3 3.1-5.75l-.3-1.3q-1.2-2.3-6.2-1.75-4.95.55-10.55 3.55t-8.8 6.85-1.95 6.15q1.2 2.25 6.2 1.75 4.95-.55 10.55-3.55m4.5-15.85q5.8-.35 7.25 2.35l.05.05q1.45 2.7-1.65 6.95-3.2 4.35-9.25 7.6-6.05 3.3-11.75 3.65-5.65.3-7.15-2.4-1.45-2.75 1.5-7 3.1-4.35 9.1-7.55 6.05-3.3 11.9-3.65m202.5-75.75q2.4-4.3 1.2-8.1-2.25-7.05-14.75-9.15-12.45-2.05-27.8 2.05-10.75 2.9-19.05 8.05-8.3 5.1-11.45 10.85-2.35 4.4-1.15 8.1 2.25 7.05 14.7 9.15 12.45 2.05 27.8-2.05 10.75-2.85 19.05-8t11.45-10.9m2.4-8.45q2.3 7.25-5.65 15.15-8.95 8.9-26.9 13.7-16.4 4.4-29.3 1.9-12.55-2.5-14.95-10-2.15-6.85 5.75-15.05 9.15-9.6 27-14.35 15.5-4.2 28.7-1.5 13 2.65 15.35 10.15"/><path fill="#0d131a" d="M289.1 121.15q7.65-2.05 13.75-1.3 6.15.7 7.1 3.75.45 1.55-.45 3.2-1.4 2.6-5.8 5.1-4.35 2.45-10 3.95-7.95 2.15-13.6 1.7-6-.5-7.15-3.85-.65-1.8.25-3.4 1.4-2.55 5.85-5.1 4.4-2.55 10.05-4.05m13-.45q-5.75-.55-12.8 1.35-6.9 1.85-11.5 5.3-4.5 3.35-3.75 5.8.85 2.55 6.6 2.85 5.5.3 12.75-1.65 7.3-1.95 11.9-5.45 4.05-3.1 3.4-5-.8-2.65-6.6-3.2m-27.5 53.45q2.05 1.9 6.7 2.85l10.2.6q7.3-.45 12.6-2.8t5.2-5.1q-.1-1.2-1.2-2.25-2-1.85-6.7-2.8l-10.25-.6q-7.3.45-12.55 2.8t-5.2 5.1q0 1.15 1.2 2.2m2.8 3.25q-5.3-2.1-5.4-5.55v-.1q0-3.2 5.6-5.95 5.65-2.75 13.4-3.25 8.4-.5 14.15 1.75 5.3 2.1 5.4 5.25.1 3.3-5.4 6.1-5.55 2.9-13.35 3.4-8.75.5-14.4-1.65"/><path fill="#a586bc" d="m265.5 210.65-7.8 8.95 7.2 10.8-16.15 6.55 1.2 16.15-17-5.2-5.2 17.2-12.5-12.6-15.55 12-1.2-16.2-11.95 3 .6-22.7 40.65-20.95z"/><path fill="#8f75a3" d="m265.5 210.65-7.8 8.95 7.2 10.8-16.15 6.55 1.2 16.15-17-5.2-5.2 17.2-6.2-6.25 6.25-51.2z"/><path fill="#ffee7d" d="M107.55 62.85q6.1 5.1 12.5 12.75 7.35 8.7 10.25 15.4 5.2 11.85-.7 16.35-7 5.3-26.85-5.6-25.3-13.9-37.25-33.25-5.1-8.15-5.75-14.7-.7-6.5 3.2-9.3 6.75-4.85 21.5 2.6 10.7 5.4 23.1 15.75"/><path fill="#dccd6c" d="M90.05 67.8q11.25 7.75 22.4 18.4 11.5 10.95 17.95 20.4-2.9 3.1-9.3 2.25-7.25-1-18.35-7.1-15-8.25-26-19.3-9.8-9.85-14.3-19.6.2-6.9 8.35-5 7.35 1.7 19.25 9.95"/><path fill="#a586bc" d="M180.1 62.25q18.75 11.25 41.55 39.4 20.05 24.7 21.95 65.7 1.25 27.2-4.8 51.4-3.85 15.45-13.8 20.35-9.8 4.8-25.85-.55-18.8-6.3-37.9-28.5-23-26.75-33.35-63.9-9.2-33.05-.6-61.8 3.45-11.55 9.05-19.4 5.25-7.35 10.45-9 15.05-4.65 33.3 6.3"/><path fill="#a586bc" d="M221.65 101.65q20.05 24.7 21.95 65.7 1.25 27.2-4.8 51.4-3.85 15.45-13.8 20.35-9.8 4.8-25.85-.55-9-3-19.2-10.75-11.2-8.5-21.25-20.8-13.05-26.65-18.7-54.95-4.95-24.5-3.85-47.45 1-20.2 6.15-34.35 4.9-13.35 11.2-15.55 14.1-1.15 30.75 10.2 17.05 11.65 37.4 36.75"/><path fill="#8f75a3" d="M166.75 55.7q12.45 4.55 23 12.5 16.35 12.35 28.4 28 13.3 17.3 20.05 37.15 5.05 14.85 5.55 40.05.6 27.85-5.55 46.95-3.45 10.8-9.85 16.4-3.15 2.8-5.65 3.45 4.45-7.1 6.35-12.75 2.25-6.8 2.15-15.15-.15-16.65-11.3-54.7-10.15-34.8-34.5-70.65-9-13.25-17.8-23.4-7.75-8.95-11.15-10.8z"/><path fill="#0d131a" d="M267.9 209.9q.1.35-4.15 4.75l-4.9 5.05 4.4 5.6q3.85 5 3.65 5.6t-8.3 3.55l-8.9 3.1 1.35 9q1.2 8.15.6 8.35t-8.2-2.45l-9.9-3.45q-4.55 18.35-5.1 18.6-.35.15-6.45-6.5l-6.85-7.4-8.5 7.1q-7.7 6.35-8.15 6t-.65-8.2l-.15-9.15-6.95 1.95q-5.8 1.55-6.45 1.15-1-.65 1.85-20.7l1.75 1.45q-.15 5.7-1.25 17.3l6.8-2.15q5.5-1.65 5.85-1.25.6.7 1.15 15.55l7.85-6.4q6.35-5.1 7.05-5.05t5.75 5.4l6.25 6.7 2.4-9.1q2-7.3 2.6-7.5.65-.2 7.9 2.15l8.7 2.9q-1.7-14.85-1.15-15.5.55-.6 15.75-6.4l-4-5.4q-3.25-4.45-2.95-5 .3-.6 3.1-3.7l3.95-4.45-22.85-1.85.6-1.75zM108.05 61.45q4.25 3.55 9.65 9.75 5.8 6.65 9.7 12.75l-.4 2.7q-3.7-6.1-9.9-13.1-5.45-6.1-10.1-10-10.8-9-20.55-14.4-16-8.9-22.95-3.95-3.3 2.3-2.95 7.7.6 10.05 11.6 23.15 12.15 14.5 31.05 24.9 12.4 6.85 19.95 7.15l.45 2.65q-6.65-.2-21.25-8.2-19.4-10.7-32-25.35-11.2-13-12.95-23.8-.55-3.25.2-6.35.85-3.25 2.75-4.65 7.5-5.35 24.4 3.35 11.6 5.95 23.3 15.7"/><path fill="#0d131a" d="m89.7 50.6 1.3.35q2.05 3.25 2.1 8.35 0 5.7-2.8 10.2-2.7 4.3-7.45 6.35-4.75 2-10.5 1.35L71 76.05q6.25.7 11.35-1.85 4.15-2.05 6.2-5.4 2.6-4.1 2.8-9.9.2-5.4-1.65-8.3m34.2 30.2 1.4 1q1.35 4.45.3 9.4-1.1 5.1-4.3 8.5-2.9 3.05-7.05 4.2t-8.6.1l.3-1.35q8.4 1.9 13.8-3.85 2.95-3.15 4.2-8.55 1.15-5.35-.05-9.45m-14.1-15.7 1.55.8q1.65 4.7 1.05 10-.7 5.55-3.8 9.9-3.05 4.2-7.95 6.55-4.7 2.25-9.85 2.2V93.1q4.7.1 8.85-2.1t7.05-6.2q2.95-4.05 3.8-9.8.8-5.55-.7-9.9"/><path fill="#0d131a" d="M184.2 62.6q19.95 13.25 38.7 37.2 18.5 23.75 21.55 62.6 2.35 30-4.3 56.6-1.9 7.6-5.5 13-3.55 5.4-8.4 8.05-5.1 2.8-12 2.6-6.6-.15-15.45-3.1-18.6-6.2-37.75-28.15-23.6-27-34.2-65-4.5-16.25-4.75-32.05-.25-16 3.9-29.95 3.65-12.1 8.9-20.6 5.85-9.5 11.9-11.3 15.3-4.6 37.4 10.1m57.45 100.1q-3.2-38-20.85-60.4-22-27.95-43.1-39.95-17.95-10.25-29.6-6.4-4.4 1.45-9.5 8.55-5.7 7.9-9.35 19.1-9.5 29.15-.3 62.25 10.4 37.4 33.55 64 18.75 21.55 37 27.65 16.3 5.45 25.8.2 8.85-4.85 12.45-19.25 6.4-25.65 3.9-55.75"/><path fill="#0d131a" d="M167.95 186.75q-10.6-5.7-17.8-13.85 4.1 3.1 14.55 6.55 11.45 3.85 16.2 2.8 5.7-1.2 14.1-11.4 4.2-5.1 7.25-9.95l-1.15 4.35q-1.45 5.2-3.2 9.7-5.55 14.4-11.6 16.05-6.8 1.9-18.35-4.25"/><path fill="#0d131a" d="M230.55 183.25q10.5-12.3 11.55-23.25l1.4 2.1q-1.05 11.25-11.2 23.05-10.85 12.65-26.3 18.6-13.15 5.1-26.05 3.5-17.2-2.1-32.45-16l-.15-1.85q15 13.65 31.6 15.95 12.65 1.75 25.3-3.15 15.1-5.8 26.3-18.95"/><path fill="#0d131a" d="m242.85 192.8.85 2.2q-.8 8.15-7.8 16.2-7.7 8.85-19.7 13.6-12.15 4.85-25.1 2.45-13.05-2.4-23.8-11.65l-2.55-3.15q12.4 10.7 27.35 13.15 12.45 2.05 22.2-1.85 11.65-4.65 20.05-14.25 7.7-8.85 8.5-16.7"/><path fill="#0d131a" d="M224.25 232.55q5.55-2.75 9.7-7.55 4.1-4.8 4.8-9.15l-.25 1.85q-.7 4.75-4.2 8.9-3.55 4.25-9.35 7.15-8.65 4.35-18.6 4.5-9.9.1-17.7-4.05l-.5-1.7q7.7 4.05 17.6 4.15 10.15.1 18.5-4.1"/><path fill="#e85377" d="m168.4 218.05 2.7 2.15 11.6 10.55q4.2 3.9 4.8 7.8.55 3.45-1.65 6-2.05 2.4-5.35 2.85-3.4.45-6.15-1.55-4.95-3.7-6.35-14.5-1.2-9.2.4-13.3"/><path fill="#c94768" d="M182.7 230.75q3.85 3.6 4.7 7.25.7 3.2-1 5.8-4.65 1.75-9.7-1.45-2.1-1.3-7.95-6.85-1.2-4.85-1.15-10.45 0-4.9.8-7l2.7 2.15z"/><path fill="#e85377" d="m154.15 202.65 3 2.7 13.1 13q4.7 4.8 5.4 9.7.55 4.2-1.9 7.35-2.3 3-5.95 3.55-3.85.55-6.95-1.95-5.65-4.55-7.2-17.9-1.35-11.4.5-16.45"/><path fill="#c94768" d="m163.1 211.15 7.15 7.2q6.45 6.65 5.35 12.95-1 5.55-6.4 7.3-5.5-4.5-7.25-12.6-1.75-8.05 1.15-14.85"/><path fill="#e85377" d="M245.1 198.9q5-.4 7.55 3.65 2.7 4.45 3.05 9.1.45 6.05-2.5 15.2-3.5 10.9-11.85 9.45-3.3-.55-5.45-3-2.25-2.45-1.95-5.35.55-5.1 3.45-12.15 2.5-6.3 2.5-11.25 0-5.2 5.2-5.65"/><path fill="#c94768" d="M246.4 205.1q1.85 4 2.1 8.2.3 5.4-1.7 13.65-2.35 9.8-7.9 8.5-2.2-.5-3.65-2.7-1.5-2.2-1.3-4.8.4-4.7 2.6-10.1 2-4.85 2-9.25 0-4.75 3.15-5.95 3.1-1.15 4.7 2.45"/><path fill="#ffee7d" d="m125.5 137.4 1.65 3.9q2.5 4.5 6.7 7.2 3.4 2.2 11.5 5.3 6.8 3.55 8.75 10.6 2.9 10.4 2 15.35-1.15 6.55-8.75 4.9-7.4-1.55-13.95-11.05-5.05-7.35-7.2-15.1-2.95-10.85-3.2-14.2-.3-4.4 2.5-6.9"/><path fill="#dccd6c" d="M154.1 164.4q2.25 8.05 2.2 12.75 0 6-3.6 7.4.1-4.65-2.55-13.3-2.7-8.7-5.25-11.85-1.4-1.65-7.65-5.35-4.25-2.5-3.4-5.55 3.4 2.2 11.5 5.3 6.8 3.55 8.75 10.6"/><path fill="#ffee7d" d="M212.5 116.75q1.75-.45 4.85 2.45 4.25 3.9 8.25 12.25 7.85 16.25 5.35 28.35-2.65 12.7-15.65 14.15-10.8 1.2-19.7-10.55-3.2-4.2-5.25-9-1.8-4.2-1.65-5.9.25-2.95 10.85-17.05 10.6-14.15 12.95-14.7"/><path fill="#dccd6c" d="M207.1 122q4.2-4.95 5.4-5.25 1.75-.45 4.85 2.45 4.25 3.9 8.25 12.25 7.85 16.25 5.35 28.35-2.65 12.7-15.65 14.15-4.05.45-7.85-1-12.45-15.1-13.6-22.45-.55-3.7.8-8.05.75-2.6 3.9-9.65 4.65-6.3 8.55-10.8"/><path fill="#ffee7d" d="M239.05 32.9q-4.9 27.85-22.15 51.25-15 20.4-25.6 19.6-4.6-.3-6.7-5-2.1-4.75-1.1-12.6 1.3-9.8 4.5-22.35 3.45-13.55 6.65-20.55 8.35-18.3 18.3-29.8Q224.8-.3 233.55 2.75q4.75 1.65 6.2 10 1.4 8.15-.7 20.15"/><path fill="#dccd6c" d="M208.45 47.8q17.95-29.4 31.8-29.9.5 13.55-5.35 31.2-6.45 19.4-18 35.05-10.7 14.5-19.7 18.45-8.2 3.5-11.95-2.6 7.55-26.55 23.2-52.2"/><path fill="#e85377" d="M235.6 192.1q-2.8-5.35 1.6-10.95 4.3-5.5 8.65-3.6 5.75 2.5 9.45 10.45 3.75 7.95 3.6 17.45-.25 14.15-9.3 14.85-3.45.25-6.6-1.75t-3.9-4.9q-.75-2.95-.7-10.4.05-5.7-2.8-11.15"/><path fill="#c94768" d="M235.6 192.1q-1.6-3.1-.55-6.8 1-3.35 3.65-5.8 1.7-1.5 5.95 8.1 4.6 10.45 4.75 20.75.05 5.05-1.6 8.1-1.55 2.7-3.8 2.7-2.25.05-3.85-2.65-1.75-3.05-1.8-8.2V201q-.35-4.3-2.75-8.9"/><path fill="#0d131a" d="M173.25 246.75q-3.05-2.25-4.75-7.15 1.55.2 2.15-.85 1.7 4.5 4.25 6.35 2.55 1.9 5.7 1.4 2.9-.5 4.65-2.6 1.5-1.8 1.5-4.1 0-4.05-4.65-8.4l-6.7-6.15q-.25-1.6-1.1-3.4l4.05 3.7 5.65 4.85q4.75 3.8 5.15 8.7.35 4-2.1 6.9-2.1 2.5-6.25 2.8-4.35.35-7.55-2.05"/><path fill="#0d131a" d="m176.75 228.15 3.9-.1-.2 1.15-3.7.15z"/><path fill="#0d131a" d="m158.2 208.35-3.55-4.1q-.55 2.65-.55 7.35 0 7.55 1.55 13.85 1.95 7.8 5.75 10.85 2.75 2.25 6.15 1.75 3.05-.4 5.1-2.7 2.15-2.4 2.15-5.8 0-6.2-5.2-10.55-7.45-6.25-11.4-10.65m-4.85-7 4.45 4.45q5.85 5.65 13.05 11.95 5.7 4.95 6.15 11.15.4 5.2-2.65 8.55-2.65 2.9-7.4 2.9-4.55-.05-7.75-2.65-5.8-4.7-6.95-18.85-.95-11.85 1.1-17.5"/><path fill="#0d131a" d="M157.75 219.4q-1.1.9-1.8 3-.65 1.85-.65 3.35l-1.1-1.75q0-1.7.65-3.35.75-1.9 2.05-2.95 2-1.65 5.3-2.15l5.9.15-.25 1.2-5.3.2q-2.9.75-4.8 2.3m94.6 7.2q1.55-4.9 2.2-8.95l2.1-2.85-.45 5.7q-.5 3.65-1.55 6.95-1.95 6.1-6.4 8.7-3.7 2.15-7.65 1.3-3.45-.75-5.9-3.95-2.35-3.15-2-6.3.35-3.3 1.55-6.45l2.1-4.85q1.55-3.75 2.1-6.15l1 3.1-1.45 3.75q-1.3 3.3-1.85 5.05-.95 3.1-1.3 6.4-.25 2.4 1.6 4.55 1.8 2.1 4.7 2.75 3.65.8 6.65-1.55 3-2.3 4.55-7.2"/><path fill="#0d131a" d="M236.2 219.35q.95-1.45 3.55-3.1l.6.75.65.45-2.55 1.3q-1.85.9-2.25 1.5zM125.15 139.1q-1.25 1.7-1.25 4.25 0 2.15.85 5.85l2.35 9.1q2.05 7.4 6.95 14.65 6.3 9.3 13.5 10.85 4.45.9 6.25-1.05 1.6-1.6 1.6-5.65 0-4.65-2.15-12.45-1.45-5.2-5.4-8.2-2.35-1.8-7.85-4.05-4.4-1.7-6.65-3.15-5.9-3.8-8.2-10.15m-.45-3.65 1.7 1.75 1.6 3.75q2.4 4.25 6.35 6.8 1.9 1.25 6.3 3 6.3 2.55 8.35 4 4.4 3.15 5.95 8.8 4.8 17.3.65 21.7-2.25 2.4-8.15 1.05-7.7-1.65-14.8-12.2-5.55-8.2-7.7-16.1-2.95-10.75-3.15-14.65-.25-5.05 2.9-7.9"/><path fill="#0d131a" d="M144 162.1q1.75 2.55 2.15 5.05.35 2.55-.9 3.55l-3.35-.15q-2.1-1.1-3.85-3.7-1.75-2.55-2.1-5.05t.9-3.5q1.2-1 3.3.15 2.15 1.1 3.85 3.65m.35 14.7q1.55 2 1.9 4t-.75 2.8q-1 .7-3.6-.7-2.4-1.3-2.9-2.3-1.6-2.05-1.9-4.05-.3-1.95.8-2.75l3 .1q1.9.9 3.45 2.9m-14.6-19.5q.7 2.5.3 4.45-.45 2-1.75 2.3-1.5-2.55-2.65-6-1.45-4.3-1.5-7.7 1.3-.3 3.1 2.1 1.75 2.25 2.5 4.85m95.05-25.5q-3.9-8.1-8.05-11.9-2.8-2.6-4-2.3-2.2.7-12.55 14.55-10.4 13.85-10.65 16.45v.2q0 2.4 2.65 7.55 3.1 6.05 7.45 10.35 7.35 7.25 15.55 6.35 9.05-1 12.9-8 3.2-5.8 2.35-14.6-.9-8.8-5.65-18.65m-12.5-16.5q3-.75 6.55 2.75 3.85 3.85 8.1 12.65 4.85 10.1 5.55 19.85.7 9.5-2.75 15.75-2.25 4.1-5.6 6.6-3.7 2.8-8.4 3.3-8.6.95-16.95-7.3-4.7-4.6-8.5-11.7-3.5-6.5-3.25-8.95.3-3.25 11.35-17.7 11.05-14.5 13.9-15.25"/><path fill="#0d131a" d="M222.35 135.5q.55 3.2-.5 5.8-1 2.55-3.05 2.9t-3.85-1.7q-1.85-2.05-2.4-5.3-.55-3.2.5-5.75t3.05-2.9 3.85 1.7q1.85 2 2.4 5.25m-15.4 9.75q1.85 2 2.5 5.2t-.35 5.8q-.95 2.6-2.95 2.95-2 .4-3.9-1.6t-2.55-5.2q-.65-3.25.35-5.8.95-2.6 3-3 2.05-.35 3.9 1.65m18.2 13.9q.3 3-.9 5.25-1.25 2.25-3.25 2.4-2 .2-3.6-1.85-1.6-2-1.9-5t.9-5.25 3.2-2.4q2-.2 3.65 1.85 1.6 2 1.9 5m10.7-116.45q5.9-21.3 2.3-32.9-1.55-5.05-4.9-6.2-8.1-2.8-20.65 11.7-11.3 13.1-17.15 28.3-3.9 10.2-6.9 21.95-2.9 11.3-4.15 20.7-.8 6.3.55 10.55 1.35 4.15 4.55 5.45 4.15 1.65 10.5-2.25 7.55-4.7 16.15-16.35 13.4-18.2 19.7-40.95M234.3.6q6.85 2.4 7.2 13.9 1.2 36.25-23.9 70.2-8.35 11.25-16 16.4-7.7 5.15-13 3-3.75-1.5-5.35-5.85-1.6-4.5-.7-11.35 3.2-23.95 10.45-43.7 6.3-17.05 17.9-30.5Q224.3-2.85 234.3.6"/><path fill="#0d131a" d="m206.15 23 .9-1.05q-.05 3.9 3.85 8.4 3.9 4.55 9.25 6.65 5.2 2 10.25 1.05 4.95-.95 8-4.4l.45 1.35q-3.45 3.8-8.35 4.85-5.1 1.1-10.65-1.05-5.85-2.3-9.8-6.85t-3.9-8.95M185.2 75.05l1-.45q.35 3.9 3.2 7.4 2.8 3.45 7.25 5.4 4.7 2.05 9.95 1.45t9-3.55l-.15 1.25q-4.15 3.25-9 4-5.05.8-10-1.35-4.75-2.1-7.85-5.95-3-3.85-3.4-8.2m7.9-27.95 1-.75q.2 4.7 3.95 9.5 3.9 4.95 9.75 7.6 5 2.25 11.3 1.95 6.6-.3 10.05-3.25l.1 1.3q-2.95 2.95-9.2 3.7-6.8.8-12.9-1.85-5.5-2.45-9.4-7.15-4.45-5.3-4.65-11.05m45.55 133.7q-2.1 2.2-2.8 5.05-.8 3.15.55 5.8 2.05 4 2.6 7.5.35 2.1.25 5.85v3.9q.15 2.3.75 4.55.7 2.65 3.7 4.45 3.05 1.85 6.15 1.45 3.75-.4 5.9-4.05t2.25-9.85q.15-9.15-3.4-16.9-3.6-7.75-9.1-10.2-1.45-.65-3.35.05-1.85.65-3.5 2.4m-1.3-1.2q2.1-2.2 4.6-2.95l4.5.15q6 2.65 9.95 11 3.9 8.3 3.75 17.95-.15 8.55-3.95 12.85-2.55 2.85-5.95 3.25-3.75.45-7.6-1.95-3.85-2.45-4.7-5.75-.6-2.3-.6-4.95l.1-4.25q.1-3.5-.2-5.5-.55-3.3-2.45-6.95-1.65-3.2-.7-6.95.8-3.35 3.25-5.95"/><path fill="#0d131a" d="M244.65 195.95q3.9-1.45 7.65-.7 2.8.55 4.8 2.35 1.95 1.75 2.35 4l-1.15.25q-.35-1.85-1.85-3.1-1.5-1.3-3.95-1.8-4.3-.9-8.2.6-3.65 1.45-5.65 4.5l-.25-1.25q2.1-3.3 6.25-4.85"/></svg>