<svg xmlns="http://www.w3.org/2000/svg" width="285" height="164" viewBox="-0.65 -1.05 285.15 163.5"><path fill="#0d131a" d="M283 50.9q-.4 5.95-6.2 11-13.5 12-51.5 17.75-38.05 5.75-84.7 2.85-27.95-1.7-53.5-6.4T41.6 64.35q-20.15-7.1-30.95-15.55Q-.1 40.4.4 32.15q.3-5.35 5.3-9.4 4.8-3.9 16.35-8.4l1.6.3 1.5.7q1.3.85 1.65 4.05l.5 9.2q.4 8.95 1.15 10.9 2 3.65 54.35 16.8 52.35 13.1 60.85 12.1h.15l.05-.3q0-2.9-19.15-23l-19.15-19.55-.8-12.9q0-8.75 2.05-10.9 1-1.05 3.15-1.2 25.9-1.6 56.65 1.55 30.35 3.15 56.65 10.1 27.6 7.25 43.25 16.85Q283.65 39.5 283 50.9"/><path fill="#6cba5a" d="M275.8 60.8q-13.3 11.8-51.05 17.45-37.7 5.65-84.05 2.75-57.1-3.5-98.4-18-19.4-6.8-29.85-14.6Q1.55 40.3 2 32.4q.25-4.75 5.05-8.5 4.35-3.45 15.35-8.2.65-.25 1.55.55.9.6 1.15 4.35l.25 7.55.3 6.75q.2 3.45.7 4.85 1 2.5 22.45 8.9 14.1 4.2 33.4 9.05 21.25 5.3 38.15 8.75 19.35 3.95 23.5 3.45 1.05-.05 1.4-1.1l.05-.4q0-4.35-17.25-22.55-14-14.7-20.7-20.3l-.15-5.5-.2-6.95.2-5.8q.3-2.8 1.15-3.85.55-.6 1.65-.85l3.4-.35q8.55-.3 16 0l15.75.9q57.15 3.55 97.4 17.7 18.9 6.65 29.05 14.35 10.55 7.95 10.1 15.85l-.15.95q-.15 2.4-1.6 4.5-1.2 1.65-4.15 4.3"/><path fill="#5da24d" d="M279.5 49.15q.7 2.9-.4 6.3-1.05 3.4-3.3 5.35-13.3 11.8-51.05 17.45-37.7 5.65-84.05 2.75-55.55-3.45-94.3-16.25-39.75-13.2-42.8-30.2-.6-5.6 9.6-12.15 3.7-2.35 7.4-3.9 3.45-1.45 4-1.05l.55 4.8.2 5.9.3 6.75q.2 3.45.7 4.85 1 2.5 22.45 8.9 14.1 4.2 33.4 9.05 21.25 5.3 38.15 8.75 19.35 3.95 23.5 3.45 1.05-.05 1.4-1.1l.05-.4q0-4.35-17.25-22.55-14-14.7-20.7-20.3l-.15-5.5-.2-6.95q0-3.7.4-6.05l.25-1.35q.2-1 1-1.1 10.2-1.3 29.35-.25 19.95 1.05 41.75 4.3 53.95 7.95 81.55 22.6 6.95 3.65 10.45 6.5 6.25 5.15 7.75 11.4"/><path fill="#0d131a" d="m67.8 105.25.9-.35 7.7 20.8-.95.3q-7.1 2.25-12.5.65-4.9-1.5-6.25-5.35-1.45-4 1.5-8.6 3.15-5 9.6-7.45"/><path fill="#0098c7" d="M59.4 120.3q-.4-1.1-.4-2.3 0-2.95 2.1-5.75 2.3-3.05 6.5-4.85l6.3 17.05q-6 1.65-10.05.15-3.4-1.3-4.45-4.3"/><path fill="#0d131a" d="m205.5 129.8.6.7q5.2 5.75 6.05 11.55.75 5.3-2.2 8.1-3 2.95-8.4 2-5.9-1-11.55-6.5l-.7-.7z"/><path fill="#00aee5" d="M207.95 148.2q-2.45 2.35-6.5 1.75-4.65-.65-9.4-5l13.25-12.4q4.65 5.45 4.65 10.4 0 3.35-2 5.25"/><path fill="#0d131a" d="M219.15 101.65q.4 26.95-19.5 43.55-20.45 17-55.1 17-31.2 0-54.35-17.2-23.1-17.2-25.45-42-2.5-26.15 17.7-39.85 20.3-13.8 60.85-13 38.4.7 57 13.4 18.5 12.65 18.85 38.1"/><path fill="#00aee5" d="M202.65 138.35q-9.8 9.95-25 15.45-15.2 5.45-33.1 5.45-30.5 0-52.45-16.1-21.95-16.05-24.25-40.1-1.9-19.6 9.6-32Q95.4 51.6 143.3 52.5q37.5.7 55.6 12.7 18.05 12 18.4 36.45.15 10.6-3.55 19.95-3.75 9.35-11.1 16.75"/><path fill="#0098c7" d="M202.65 138.35q-16 4.8-33.05 1.3-15.7-3.25-28.75-12.65 17.7 6.95 36.25 6.2 17.95-.75 35.25-8.6-3.6 7.65-9.7 13.75m14.05-27.95q-24.3 7.7-57.05 6.55l-26.5-1.4q-15.5-.7-26.35.05-12.65 1.1-16.65 1.95-8.85 1.85-15.4 6.7-5.85-10.05-6.9-21.2-1.9-19.6 9.6-32Q95.4 51.6 143.3 52.5q37.5.7 55.6 12.7 18.05 12 18.4 36.45.05 4-.6 8.75"/><path fill="#00aee5" d="M79.65 145.2q-4.65.55-7.7-2.4-3.05-3-2.55-7.8.55-5.35 5.6-10.7l7.65 5.6q7.5 6.3 6.8 9.75-4.65 4.9-9.8 5.55"/><path fill="#0d131a" d="M70.65 143.45q-3.2-3-2.45-8.25.85-5.7 6.1-11.55 1.3-1.45 2.2-.9.85.5-.85 2.2-4.9 4.9-5.4 9.55-.4 4.05 2.45 6.8 2.7 2.55 7 2.1 4.55-.5 9.05-4.4 2.1-1.85 2.5-1.05.4.75-1.1 2.35-4.35 4.5-10.45 5.35-5.9.8-9.05-2.2"/><path fill="#00aee5" d="M92.65 141.35q1.1-1.95 5.05-1.55 3.6.4 7.95 2.45 4.3 2.05 6.65 4.5 2.6 2.75 1.35 4.8-4.6 6.2-10.05 8.1-4.9 1.75-8.8-.35-3.85-2.15-4.65-6.85-.85-5.1 2.5-11.1"/><path fill="#0d131a" d="M91.8 140.9q.85-1.35 1.65-.9.75.4-.5 2.4-1.55 2.45-2.05 6.3-.6 4.3.85 6.85 2.1 3.85 7.85 3.95 3.35.05 7.9-3.25 3.7-2.65 5.65-5.3 1.55-2.1 2.6-1.5 1 .6-.9 3.05-2.5 3.25-6.7 6.25-5.15 3.7-8.95 3.65-3.05-.05-5.55-1.5-2.5-1.4-3.9-3.9-1.2-2.15-.8-6.9.4-5.4 2.85-9.2m43.45-28.15q0-4.5 3.5-7.75 3.5-3.2 8.15-3.2t8.1 3.2q3.5 3.25 3.5 7.75 0 4.45-3.5 7.7-3.45 3.2-8.1 3.2t-8.15-3.2q-3.5-3.25-3.5-7.7"/><path fill="#fff" d="M137.45 112.9q0-3.9 2.8-6.65t6.8-2.75 6.8 2.75 2.8 6.65q0 3.85-2.8 6.6-2.85 2.75-6.8 2.75t-6.8-2.75q-2.8-2.75-2.8-6.6"/><path fill="#0d131a" d="M149.9 114q0 .95-.65 1.6t-1.55.65q-.95 0-1.6-.65t-.65-1.6q0-.9.65-1.55t1.6-.65q.9 0 1.55.65t.65 1.55m55.2-15.15q2.55-2.05 5.6-1.75 3 .3 5.1 2.9 2.7 3.4 2.15 8.15-.45 4.7-3.85 7.5-2.7 2.05-5.6 1.75-3.5-.4-5.6-3.65-2.15-3.25-1.7-7.45.55-4.8 3.9-7.45"/><path fill="#fff" d="M208.9 115.8q-2.9-.35-4.7-3.15t-1.45-6.45q.45-4.2 3.4-6.6 2.15-1.7 4.65-1.45 2.5.3 4.25 2.45 2.35 2.9 1.9 7.15-.45 4.2-3.4 6.55-2.1 1.75-4.65 1.5"/><path fill="#0d131a" d="m212.05 109.35-.65 1.45q-.6.6-1.3.5-.65-.05-1.1-.75-.4-.7-.35-1.55.1-.85.7-1.45.55-.55 1.25-.5.65.1 1.1.75.45.7.35 1.55m4.7 5.05.35-.4.5.25q3 1.5 4.9 4.1 2 2.75 1.65 5.35-.45 3.35-4 6.4-4.9 4.2-14.4 6.2-19.3 4.15-36.2 1.45-16.65-2.65-30.4-11.8-1-.65-.9-1.05.05-.4 1.35-.35 41.1 1.65 63.15-4.05 11.05-2.85 14-6.1"/><path fill="#ffe792" d="M205.35 133.85q-36.2 7.7-62.85-7.7 36.65 1.45 57.6-3.05 14.05-3 17.25-7.25 2.25 1.3 3.3 2.8 1.25 1.85 1.05 4.45-.2 3.55-4.6 6.4-4.3 2.75-11.75 4.35"/><path fill="#0d131a" d="M260.8 52.9q14.6 9.55 16.9 20.7-.35 5.85-6.15 11-13.15 11.65-49.7 17.25t-81.15 2.75q-26.9-1.7-51.3-6.2-24.3-4.5-43.05-11.2Q27.8 80.55 18 72.5q-9.4-7.7-9.85-15.95-.35-7 9.5-13.65 4.9-3.3 9.9-5.25l52.15 11.6 52.4 11.55q-.8-1.65-13.6-18.35l-12.9-17 1.35-.7q67-1.55 116.2 12.3Q246.8 43.7 260.8 52.9"/><path fill="#6cba5a" d="M270.65 83.5q-12.95 11.5-49.25 17-36.25 5.5-80.6 2.7-54.6-3.45-92.9-16.9-18.15-6.35-28.1-13.7Q9.55 64.95 9.55 57.25l.05-.6q.25-4.6 4.8-9.05 4.45-4.45 12.4-8.1L82 51.65q51.65 11.4 52.45 11.25l.7-.55.05-.25q0-1.25-3.55-6.1L118 38.65l-9.75-12.5q18.35-.4 36.85.8 54.55 3.45 92.9 16.9 18.1 6.35 28.05 13.75 10.25 7.65 10.25 15.3v.65q-.3 5.2-5.65 9.95"/><path fill="#5da24d" d="M265 87.5q-4.45-25.55-60.95-40.35-38.45-10.05-89.75-13.2l-6.05-7.8q18.35-.4 36.85.8 54.55 3.45 92.9 16.9 18.1 6.35 28.05 13.75 10.25 7.65 10.25 15.3v.65q-.3 5.2-5.65 9.95-2.45 2.15-5.65 4"/><path fill="#0d131a" d="M216.5 35.7q12.3 2.95 24.2 8.1l2.05 1.15-30.4 4.9q-35.2 5.15-59.1 6.65-.6 0-.65-.5-.1-.45.35-.9 4.55-5.05 12.9-12.55 9.35-8.45 15.85-13l3.05.4q20.8 3.1 31.75 5.75"/><path fill="#007b36" d="m218.3 47.1-30.85 4.5-32.3 3.15q5.35-5.65 17.1-15 7.15-5.6 10.95-9 20.45 3.05 31.45 5.6 12.95 3 24.15 7.7z"/><path fill="#00662a" d="M209.85 48.4q-19.2-5.4-38.45-7.95l.85-.7q7.15-5.6 10.95-9 20.45 3.05 31.45 5.6 12.95 3 24.15 7.7z"/><path fill="#0d131a" d="m225.6 89.35-4.65 1.4q-13.15-5.7-32.45-12.15-19.85-6.7-38.1-11.45-1.95-.5-1.85-.85l2 .2q20.8 5 40.55 10.9 22.4 6.7 34.5 11.95m17.95-44.5 2 .65q13.65 6.2 22.4 13.4 9.9 8.2 9.5 14.7l-.5 2.75-.1.35h-.35l-39.4-1.45-34.3-2.65-.6-.35q-.05-.25.35-.55 20.1-15.2 23.7-17.65 7.75-5.25 17.3-9.2"/><path fill="#007b36" d="m252.8 75.05-22.45-1.75L205 71.4l6.8-4.95q11-8.1 16.5-11.7 8.5-5.45 16.3-8.75 12.85 5.85 21.8 12.95 10.1 8.1 10.1 14.2v.4l-.4 2.2z"/><path fill="#00662a" d="M244.25 64.2q-5.8-4.7-16.15-9.3 8.45-5.55 16.5-8.9 12.85 5.85 21.8 12.95 10.1 8.1 10.1 14.2v.4l-.4 2.2q-10.1.05-21.95-.6-5.2-7.15-9.9-10.95"/><path fill="#0d131a" d="m101.7 66.65-7.5 8.1-12.85 9.5q-7.7 5.55-11.55 9.4l-.65.15-.25-.05Q47.75 88.4 33.2 81.6q-14.55-6.85-20.7-14.35l-.85-1 .7-1.05q20.4-.65 87.75.4 1-.05 1.5.4.4.35.1.65"/><path fill="#007b36" d="m91.75 73-12 9.9q-6.4 5.4-10.85 9.85Q48.55 87.6 34.4 81.1q-14.15-6.55-20.5-13.7 21.65-.65 65.75-.45H99.2z"/><path fill="#0d131a" d="m98.25 86.25 27.6-5.35q17.75-3.2 31.85-4.6 1.15-.05.45.75l-5.45 7.05-8 8.85q-4.55 5.05-7.1 8.7l-.2.25-14.65-1.8L97 96.5Q84.35 94 80.85 90.25l-.6-.65.85-.15z"/><path fill="#007b36" d="M98.45 87.2q16.6-3.25 26.65-4.95 16.5-2.75 30.8-4.2l-4.6 5.25q-10.2 11.8-14.35 17.6l-14.1-1.75-24.25-3.3q-12.5-2.35-16.4-5.6z"/><path fill="#0d131a" d="M259.45 66.85q12.15-4.1 18.5-11.05 3.15-3.5 3.9-6.15l-.75-5.7q3.4 3.25 1.55 17.05-1.4 10.7-3.45 16.2-2.4 6.55-13.9 12.55-11.55 6-30 10.25-41.75 9.65-95.4 6.25-53.6-3.4-92.9-17.55Q7.9 74.6 3.6 57.35.05 42.95 0 35.95q-.05-6.7 3.1-10.15l.55 1q-4.3 9 2.1 16.05 2.9 3.25 13.7 9.75 22.3 13.45 67.5 21 25.65 4.25 56.85 6.25 31.5 2 63-1.55 31.45-3.55 52.65-11.45"/><path fill="#6cba5a" d="M281.7 49.4q.1 6.9-1.65 15.7-1.35 7-3.05 11.55-2.25 6.1-13.45 11.8Q252.3 94.1 234.7 98q-19.75 4.4-44.2 5.85t-50.5-.2q-57.3-3.6-95.8-18.25-16.9-6.45-27-14.05-9.8-7.4-11.6-14.6-2.85-11.6-3.2-13.6-1.2-6.9-.1-12.3 1.3 5.35 5.4 11.5 4.8 7.2 10.7 10.7 22.55 13.6 68.05 21.6 27.6 4.85 57.25 6.7 31.7 2 63.3-1.55 31.7-3.55 53-11.55 8-3 12.6-6.95 5.95-5.05 7.15-12.25-.05-1.75.95-1.4.95.4 1 1.75"/><path fill="#5da24d" d="M147.75 95.2q11.1 6.55 18 9.35l-25.75-.9q-57.3-3.6-95.8-18.25-16.9-6.45-27-14.05-9.8-7.4-11.6-14.6L3 46.1q-1.2-5.5-1.2-9.55 6.05 22.25 64.1 35.8 31.05 7.25 65.15 10.05 2.7 4.6 16.7 12.8"/><path fill="#0d131a" d="M275.15 41.6q-1.15-1.4-.7-1.5l1.85 1.5q2.65 3 3.35 6.8.6 3.2-.35 5.1-4.4 9.15-19.35 14.65-21.35 8-52.95 11.55-31.65 3.6-63.3 1.55-29.65-1.85-57.2-6.7Q40.95 66.6 18.45 53q-7.2-4.35-10.8-8.9Q4.2 39.8 3.7 35q-.25-2.3.85-4.95 1.05-2.55 2.7-3.8 1.15-.85 1.4-.6.25.3-.65 1.1-1.45 1.2-2.2 3.65-.65 2.25-.4 4.4.45 4.35 3.75 8.3 3.45 4.15 10.35 8.25Q41.85 64.85 87 72.6q26.85 4.65 56.8 6.55 31.65 2 62.75-1.4 31.35-3.45 52.5-11.35 5.8-2.15 9.45-4.45 6.05-3.75 8.5-8.8 2.85-5.75-1.85-11.55"/></svg>