<svg xmlns="http://www.w3.org/2000/svg" width="252" height="303" viewBox="-1.05 -4.5 251.95 303.35"><path fill="#0d131a" d="m87.85 271.95 2.55.3q.15.2-.1 1.65-.3 2.25-1.2 5.45-.85 3.3-1.2 3.35-.75.3-2.15-.65-1.95-1.25-3.7-3.45-2.05-2.6-2.25-4.85l-.1-.75 3.25-.5z"/><path fill="#ee848c" d="M88.45 273.7q-.4 6.35-1.05 7.5-1.05-.25-3.05-2.3-2.35-2.35-2.9-4.55z"/><path fill="#ce737b" d="M87.4 281.2q-1-.2-3-2.25l4.05-4.85q-.35 5.85-1.05 7.1"/><path fill="#0d131a" d="M135.25 230.15q13.05 2.55 17.7 5.8 1.75 1.3 1.75 2.55l-.05.3q-.2 1.6-3.2 2.55-6.75 2.15-11.45 9.55-4.5 7.1-5.45 16.05.35.75 3.6 4.4 2.75 3.6 1.15 5.05-1.15 1.1-6.8 3.7-5.5 2.55-11.75 8.6-2.2 2.15-14.4-4.95L94.6 276.2q0-1.65 2.25-3.8l4.35-3.5q1.4-14.7 7.5-26.7 5.1-10.15 10.2-12.9 3.25-1.7 16.35.85"/><path fill="#6cba5a" d="M150.7 236.95q1.85.95 1.95 1.55-.2.45-1.8.95-8.8 2.8-14.15 12.25-2.95 5.2-4.15 10.7-.6 2.75-.55 5.45.1 3.5 1.7 1.8l1.55 1.4 1.25 1.7q.95 2.1-4.05 5.05-9.15 5.35-12 7.6-1.65 1.35-9.6-1.75-7-2.7-11.7-5.65-1.35-.9-1.35-1.8-.1-2.25 4.2-5.55l.45.35q.5.05.7-1.5 1.9-15.2 8.6-27.55 4.95-9.1 8.1-10.85 2.3-1.25 13.75.85 11.7 2.15 17.1 5"/><path fill="#5da24d" d="M120.45 285.4q-.5.5-1.9.4 2.65-3.2 4.2-4.6 1.25-1.15 6.15-3.5l7.8-3.85q-.2 1.65-5.3 4.5-7.5 4.3-10.95 7.05m30.25-48.45q1.85.95 1.95 1.55-.2.45-1.8.95-8.4 2.65-13.7 11.5-3.1 5.15-4.5 11-.85-7.8-7-14.4-5.75-6.15-12.65-7.8 2.1-3.5 4.2-6.05 1.75-2.1 2.65-2.6 2.3-1.25 13.75.85 11.7 2.15 17.1 5"/><path fill="#0d131a" d="M96.25 273.6q1.3-.45 3.4.8 1.9 1.15 3.05 2.85.85 1.35 1.1 2.6.25 1.35-.3 1.95-1.1 1.15-5.15 1.95l-5.05.7q-2.35.2-1.65-2.15 2.4-7.95 4.6-8.7"/><path fill="#ee848c" d="M97.15 274.95q.55-.15 1.95.9 1.5 1.15 2.6 2.75.75 1.25.75 1.9l-.05.3q-.55.65-4.75 1.35l-4.35.4q-.2-.25 1.5-3.75 1.7-3.6 2.35-3.85"/><path fill="#ce737b" d="m101.6 278.5.1.1q.75 1.25.75 1.9l-.05.3q-.5.55-4 1.2l-4.7.6q4.25-1.75 7.9-4.1"/><path fill="#0d131a" d="M103.15 279q2.35-1.7 6.65 1.15 4.3 2.8 3.2 4.8-.85 1.5-3.25 3-1.9 1.25-5.7 3l-2.7.9q-.4-.05-.4-1.35 0-2.85.35-5.85.6-4.75 1.85-5.65"/><path fill="#ee848c" d="M103.35 288.7q0-3 .3-5.3.35-2.5.9-2.95.5-.35 2.15.25 1.8.6 3.3 1.8 1.4 1.05 1.4 1.75l-.05.1q-.35.9-3.95 2.85-3.6 2-4.05 1.5"/><path fill="#ce737b" d="M111.35 284.35q-.3.75-3.25 2.45t-4.25 1.95q4.35-3.5 6.75-5.75.8.8.8 1.25z"/><path fill="#0d131a" d="M111.45 282.9q1-1.6 6.15-.25 5.2 1.35 4.45 3.75-.5 1.75-2.65 3.65l-5 4.1q-1.9 1.5-2.4 1.2-.35-.2-.65-2.35l-.6-5.05q-.3-3.9.7-5.05"/><path fill="#ee848c" d="M114.75 283.65q1.85.25 3.6 1.1 1.75.8 1.75 1.45l-.05.05q-.15.9-3.25 3.6t-3.6 2.55q-.45-.15-.75-2.8l-.2-3.9q0-1.45.35-1.8.35-.45 2.15-.25"/><path fill="#ce737b" d="M120.05 286.25q-.15.8-2.95 3.3-2.7 2.45-3.7 2.8l5.6-7.25q1.1.65 1.1 1.1z"/><path fill="#0d131a" d="M102.55 192.45q1.7-8.25 1.7-13 0-6.1.55-10.25l.1-.6.55-.2q7-2.6 14.6-4.15l2.1-.4q11.2-2.15 21.25-2.1 24.65 0 42.2 14.5 17.75 14.7 17.75 35.85 0 5.45-1.75 9.65 13.75 10.4 18.8 25.75 2.2 6.75 2.6 16.2 9.5 6.6 9.5 9.2-4.2 3.45-20.55 10.2l-3.2 1.35-2.5-.1-4.05-1.85q-3.85-1.9-5.35-2.3l-2.9-.75-2.85-.8q-1.15-.5-1.55-1.3l-.2-.9q0-.65.35-1.35 1.75-3.8 1.75-7.8 0-6.25-4.25-14.4-2.15-4.15-7.9-5.7-3.8-1.1-16.45-2.3l-22.2-2.5q-16.7-2.35-27.25-11.85-11.4-10.3-12.25-26.15-.25-4.25 1.4-11.95"/><path fill="#6cba5a" d="M187.35 182.2q6.05 6.3 9.4 14.15 2.85 6.75 3.5 14 .45 5.05-1.25 9.85-1.65 4.65-4.9 7.9-1.4 1.45-.95 1.85.5.45 1.9-.45l3.5-2.8 2.05-2.85q10.6 9.3 15.5 20.7 2.15 5.05 3.9 14.1l.6 4.9q.35 3.35.75 3.65.7.55 1.25-1.1l4.75 3.8q1.9 1.85 2.25 2.75-1.45 1.55-18.4 8.6l-3.3 1.4q-.55.15-4.8-1.9-3.9-2-5.7-2.5l-2.95-.75q-2.9-.65-3.1-1.05l.15-.5q1.95-4.05 1.95-8.6 0-8.45-3.7-15.55-2.45-4.7-9.15-6.55-4.05-1.05-17.6-2.35l-22.1-2.5q-22.8-3.25-32-18.6l.1-1.5-.9-11.6q-1.85-19.2-1.85-29.25 0-5.4.5-9.35 6.2-2.25 13.45-3.8l-.35 2.75q2.5 23.95 9.75 35 9.75 14.65 31.2 14.4 9-.1 16.65-9.65 8.4-10.4 9.9-26.6"/><path fill="#5da24d" d="M107.05 196.6q-.8-10.15-.8-17.15 0-5.4.5-9.35 6.2-2.25 13.45-3.8l-.35 2.75q1.75 16.35 5.25 25.8-11.3-1.3-18.05 1.75m80.3-14.4q6.05 6.3 9.4 14.15 2.85 6.75 3.5 14 .45 5.05-1.25 9.85-1.65 4.65-4.9 7.9-1.4 1.45-.95 1.85.5.45 1.9-.45l3.5-2.8 2.05-2.85q9.9 8.7 14.65 18.9-6.95-7.65-17.55-10.05-3.35-.75-6.6-.85h-2.65q-.25-4.55-5.6-9.45-5.6-5.05-12.95-6.8 6.65-4.05 11.25-12.3 5.1-9.15 6.2-21.1"/><path fill="#0d131a" d="m108.6 167.25 1.55-.6-.25 1.7q-1.55 10.6-.8 21.7.4 6.45 2.1 16.6l1.65 9.2q.55 4.15-.65 5.8-.5.65-1.9.95l-2.4.3-2.85-6.1q-2.95-6.9-3.5-10.75-6.8 11.5-12.95 36.5-5.2 21.1-5.2 28.3l.05.65q.35 1.65 3.1 5.75l4.1 5.8.65.85q.6 1.05.5 1.8-.4 2.5-8.2 1.6l-4.5.2q-17.2 4.9-30.55 1.4-8.85-2.35-12.95-6.85-3.1-3.4 2.05-21.9Q42 244.7 46.7 235q8.85-18.35 18.85-32.65 15.85-22.7 31.55-30.55 2.6-1.35 11.5-4.55"/><path fill="#a3d5c0" d="M102.55 188.95q-.05-2.25-.7-2.2-.7 0-1 2.05-.3 1.85-.25 6.55 0 4.95.35 7.9-9 13.9-14.95 38.85-4.6 19.3-4.6 28.9l.35 1.6q.4 1.65 3.9 6.45 3.35 4.6 3.4 5.2.05.85-2 1l-3.5.05-4.8.2-.05.05q-16.5 4.7-28.5 1.05-7.3-2.2-11.55-6.85-.7-.75-.7-3.3 0-6.25 3.95-19.8 3.75-12.9 7.65-21.05 8.7-18.05 18.55-32.2 15.65-22.4 30.95-30.1 1.95-.95 8.7-3.6-.9 7.05-.9 13.3 0 6.3.8 13.15.45 4.05 1.55 10.8 1.2 7.3 1.2 9.55 0 2.3-.75 3.4-.5.6-1.4.8-5.4-9.8-5.7-31.75"/><path fill="#a3d5c0" d="M102.55 188.95q-.05-2.25-.7-2.2-.7 0-1 2.05-.3 1.85-.25 6.55 0 4.95.35 7.9-9 13.9-14.95 38.85-4.6 19.3-4.6 28.9l.35 1.6q.4 1.65 3.9 6.45 3.35 4.6 3.4 5.2.05.85-2 1l-3.5.05-4.8.2-.05.05q-16.5 4.7-28.5 1.05-7.3-2.2-11.55-6.85-.7-.75-.7-3.3 0-6.25 3.95-19.8 3.75-12.9 7.65-21.05 8.7-18.05 18.55-32.2 15.65-22.4 30.95-30.1 1.95-.95 8.7-3.6-.9 7.05-.9 13.3 0 6.3.8 13.15.45 4.05 1.55 10.8 1.2 7.3 1.2 9.55 0 2.3-.75 3.4-.5.6-1.4.8-5.4-9.8-5.7-31.75"/><path fill="#8cb9a7" d="m81.5 283.2 7.55 1.2q-.15.75-2.15.85l-3.35.05-4.8.2-.05.05q-16.5 4.7-28.5 1.05-7.3-2.2-11.55-6.85-.7-.75-.7-3.3t.8-6.95q3.45 6.65 15.65 10.55 11.05 3.5 20.6 2.55zm26.25-113.5q-.9 7.05-.9 13.3 0 6.15.8 13.35-2.55 1-4.7 2.6l-.4-10q-.05-2.25-.7-2.2-.7 0-1 2.05-.3 1.85-.25 6.55 0 4.95.35 7.9-9 13.9-14.95 38.85-4.6 19.3-4.6 28.9-3.25-8.05-.4-27.05 3.25-21.95 13.35-44.6 2.15-4.9-1.55-9.4t-9.9-4.5q8.3-8.25 16.15-12.15 1.95-.95 8.7-3.6"/><path fill="#a3d5c0" d="M181.85 193.65q-3.2 9.85-8.65 15.55-5.85 6.2-13.45 6.25-20.7.25-29.4-14.5-6.2-10.5-8.65-35.6 11.9-2.25 23.3-1.55 16.15.95 28.65 7.8 5.95 3.25 10.8 7.65v.15q0 6.25-2.6 14.25"/><path fill="#8cb9a7" d="M184.45 179.4q0 6.25-2.6 14.25-3.2 9.85-8.65 15.55-2.6 2.75-5.6 4.25-8.7-6.85-18.95-11.55t-21.15-6.85q-2.3-5.75-3.75-13.85-1.15-6.35-2.05-15.85 11.9-2.25 23.3-1.55 16.15.95 28.65 7.8 5.95 3.25 10.8 7.65z"/><path fill="#0d131a" d="M204.4 33.35q22.05 16.25 35 37.5 6 9.75 8.8 19.9 2.7 9.85 1.05 14.75-2.7 8.2-7.7 18.8-5.55 11.85-8.45 14.25-10.15 8.45-27.75 14.55-16.2 5.65-20.95 4-.95-.35-7.35-4.95-6.9-4.9-8.6-5.85l1.35 7.05q1.05 5.15.5 5.6-1 .75-20.7-2.85-23.05-4.2-44.45-10.3-65.9-18.7-92.6-46.1Q6.3 93.25 2.4 70.9-1.05 51.1.25 43.3 1.5 35.65 11.2 27.15q10.1-8.85 25.85-15.5Q75.6-4.5 121.65 1.6q48.5 6.4 82.75 31.75"/><path fill="#6cba5a" d="M202.4 37.45q21.75 16.2 34.55 37.05 4.65 7.65 7.5 16.75 2.35 7.6 1.95 9.7-.35 2-4.45 12.3-4.7 12-8.2 18 .8-9.35-5.25-20.8-6.1-11.6-17.75-22.7-26.8-25.55-66.35-35.45-28.15-7.05-54.55-5.9-23.6 1.05-42.6 8.35-17.55 6.8-27.15 17.2-9.45 10.2-8.1 20.5-4.15-7.55-6.65-22.7-2-12.35-2-22.4l.2-3.7q.65-3.9 8.1-10.9 9.2-8.65 22.65-15.25Q50.2 9.65 69.05 6.35q24.75-4.4 52.45-.55 47.25 6.6 80.9 31.65"/><path fill="#5da24d" d="M228.15 118.3q2.05 4.95 2.7 9.95.6 4.85-.45 7.8l-.45.35q-13.25 8.9-27.65 14-11.35 4-17.8 4.1-2.65-2.75-9.75-6.95l-6.95-3.85-1.6-.8.85 13.55q-7.65-.55-23.5-3.65-21.5-4.1-41.85-10.15-60-17.85-86.3-44.85l-.55-.55Q12.8 84.35 21.9 75 36.85 59.65 68 53.2q30.15-6.25 59-1.1 41.6 7.45 70.75 29.8 22.55 17.3 30.4 36.4"/><path fill="#0d131a" d="M224.75 273.8q1.05-1.65 2.3-2.8 1.65-1.55 2.8-1.2 1.5.5 3.15 3.25 1.55 2.5 2.15 4.95.3 1.35.1 1.55l-1.4-.05q-7.85-.75-9.3-2.3-1.15-1.15.2-3.4"/><path fill="#ee848c" d="m225.65 276.2-.1-.3q0-.5.5-1.3.65-1.05 1.8-1.8.85-.6 1.65-.8.85-.2 2.85 3.15t.8 2.95l-4.5-.8q-2.45-.55-3-1.1"/><path fill="#ce737b" d="M226.35 274.15q3.4 2.25 6.7 3.95l-4.45-.8q-2.4-.55-2.95-1.1l-.1-.3q0-.5.5-1.3z"/><path fill="#0d131a" d="M218.6 277.6q1.5-1.25 3.8-1.85l3.55.15q1.25.85 2.2 3.5.8 2.2 1.1 4.65.25 1.8-.25 2l-1.65-.25q-1.85-.35-5.15-1.75-4.15-1.75-4.75-3.05-.3-.65-.15-1.45.25-1.05 1.3-1.95"/><path fill="#ee848c" d="M218.8 280.35v-.05q0-.45.95-1.2 1.3-1.1 3.15-1.75l2.2-.25q.55.4 1.65 3.8 1.05 3.35.55 3.15-3.1-.9-5.55-1.95-2.65-1.15-2.95-1.75"/><path fill="#ce737b" d="m220.45 278.6 6.55 5.35-5.35-1.9q-2.55-1.1-2.85-1.7v-.05q0-.45.95-1.2z"/><path fill="#0d131a" d="m213.65 278.55 3.85.2q1.15 1 1.85 3.8.6 2.45.6 5.1 0 2.05-.65 2.1l-2.25-.85q-9.05-3.35-9.75-5.35-.2-.5.5-1.45.7-1 1.85-1.8 1.6-1.1 4-1.75"/><path fill="#ee848c" d="M209.65 282.45q0-.3.85-.9 1.45-1.05 3.55-1.55l2.5-.1q.55.45 1.2 3.9.6 3.45-.3 3.2-1.2-.35-4.25-2.05-3.3-1.85-3.55-2.5"/><path fill="#ce737b" d="M210.55 281.5q3.1 2.65 6.95 5.5h-.05q-1.2-.35-4.25-2.05-3.3-1.85-3.55-2.5 0-.3.85-.9z"/><path fill="#0d131a" d="M201.7 288q-1.6-1-3.25-3.5-1.8-2.8-2.05-5.2l-.05-.65.6-.15q10.05-2.6 11.1-1.35.5.7-.55 4.35l-1.2 4.7q-1.05 3.5-1.95 3.8l-1.25-.75z"/><path fill="#ee848c" d="M198 279.8q6.85-1.7 8.05-1.15l.05.2q0 1.2-1.25 4.35-1.25 3.1-2 3.7-.9-.25-2.5-2.4-1.85-2.45-2.35-4.7"/><path fill="#ce737b" d="m205.95 278.6.1.05.05.2q0 1.2-1.25 4.35-1.25 3.1-2 3.7-.7-.2-2-1.7z"/><path fill="#0d131a" d="M144.4 282q1.7-2.2 9.25 1.15 13.35 13.2 8.3 13.5-5.8.3-12.95-1.65-7.3-1.95-8.9-4.35-1.05-1.55 1.1-4.65l3.2-3.95z"/><path fill="#8cb9a7" d="M150.55 284.05q4.2 1.5 7.55 3.9 3.4 2.45 3 3.7l-.35.75q-.95.6-4.45.8-5.25.3-9.45-1.45l-3.9-2.25q-.65-.4.4-2.35.85-1.65 2.65-3.9.8-.5 4.55.8"/><path fill="#a3d5c0" d="M139.05 182.2q.5-2 4.2-3.15 3.4-1.1 7.9-1 4.6.05 7.6 1.25 3.35 1.35 3.25 3.6-1.1 23.05 16.55 58.6 7.95 15.95 23.05 39.45 4.75 7.35-.7 10.9-5 3.2-19.8 4.05-15.2.85-21.85-.55-8.05-1.75-13.25-8.15-2.65-3.25-5.3-14.95-2.7-11.85-4.15-27.15-3.65-38 2.5-62.9"/><path fill="#8cb9a7" d="M159.25 295.35q-8.05-1.75-13.25-8.15-1.95-2.4-3.95-9.65-2-7.2-3.6-17.4 1.95 5 2.6 8.75 1.3 7.35 10.4 12.2 7.8 4.1 19.85 5.85l20.2.65q9.45-.85 11.65-3.35l.1-.1q2.15 5.6-3.7 8.45-5.35 2.55-18.45 3.3-15.2.85-21.85-.55m-4.75-101.7q-1.35-4.05-6.9-6.05-6.15-2.2-10.1 1.95l1.55-7.35q.7-3.4 4.6-5.2 3.5-1.6 8.15-1.35 4.55.2 7.45 2.05 3.25 2.05 2.75 5.2-2.5 16.5 7.8 41.1 6.05 14.5 19.9 37.9-12.05-12.1-21.65-32.2-7.1-14.95-13.55-36.05"/><path fill="#0d131a" d="M138.05 182q.35-1.3 1.3-1.05.95.2.65 1.5-4.7 21.3-1.6 60.2 1.3 16.25 3.55 28.35 2.35 12.5 4.85 15.55 5 6.25 12.75 7.9 6.2 1.3 20.85.5 19-1.05 22-6.1 1.05-1.7-1.65-6.85l-2.85-4.75q-13.55-19.85-22.45-38.75-14.95-31.8-14.95-56.8 0-2.75.95-2.8t1 1.35q1.1 25.95 15.5 57.45 9.2 20.25 21.6 38.4l3.85 4.55q3.85 6 2 9.7-1.6 3.1-7.5 4.85-5.8 1.75-16.9 2.5-17.05 1.15-23.65-.8-6.2-1.8-12.15-9.1-2.6-3.2-5.35-15.35-2.8-12.3-4.35-27.95-3.9-39.2 2.55-62.5m28.75-70.65q6.7 9.7 6.85 19.9.05 6.05-1.7 12.1-1.7 5.6-4.75 10.6-6.85 11.1-23.85 19.05-19.25 8.95-42.65 8.95-27.9 0-47.5-13.55-8.5-5.9-13.3-13.2-4.65-7.15-4.65-14.1.05-6.65 7.55-12.6 1.2-6.4 3.95-16 3.55-12.55 6.3-16.55 5.15-7.6 18.65-12.3 12.15-4.2 24.65-4.2 14.1-.05 28.1 4.1Q138.1 87.6 149.2 94.8q11.2 7.35 17.6 16.55"/><path fill="#a3d5c0" d="M100.85 82.8q-.95 6.6 9.5 10.85 12.8 5.2 22.15 12.95 15.05 12.6 15.05 28 0 18.25-17.95 32.15-7.6 5.85-16.7 9.25-8.9 3.35-16.7 3.35-19.3 0-37.9-11.45Q39 156.05 39 142.5q0-4.1 2.1-7.85 1.8-3.2 4.6-5.25l.3-.25.1-.4q1-5.55 3.6-15.55 3.05-11.65 4.75-14.65 2.2-3.95 9.9-8.3 7.1-4 14.2-5.8 10-2.45 22.3-1.65"/><path fill="#8cb9a7" d="M100.85 82.8q-.95 6.6 9.5 10.85 7.95 3.2 15.15 7.85 10.9 7.05 16.5 15.5-27.1-17.4-49.5-20.3Q71.4 94 52.35 104q1.35-4.15 2.1-5.45 2.2-3.95 9.9-8.3 7.1-4 14.2-5.8 10-2.45 22.3-1.65"/><path fill="#0d131a" d="m74.3 84.55 1.45.25q-.3 6.85-13.25 14.6-6.45 3.9-12.85 6.4l.8-2.35q.55-1.75 1.75-3.6l1.6-2.25q2.2-3.95 8.35-7.65 5.2-3.05 12.15-5.4"/><path fill="#5da24d" d="M73 86.25q-1.95 4.3-6.75 7.85-3 2.2-9.9 5.8l-3.2 1.75 1.3-3.1q1.8-3.25 7.35-6.8 5-3.2 11.2-5.5"/><path fill="#6cba5a" d="M170.1 133.3q0 10.75-5.4 19.45-5.7 9.25-19.25 16.3-15.15 7.9-34.75 9.8 17.6-4.8 28.3-15.65 12.3-12.55 11.75-30.2-.45-15.15-15.85-27.85-9.6-7.9-22.5-13.15-5.45-2.2-7.8-5.05-1.65-1.95-1.65-4v-.05q14.95 1 29.35 6.75t24.35 14.7q6.9 6.2 10.35 14.05 3.1 7.15 3.1 14.9"/><path fill="#5da24d" d="M167 118.4q3.1 7.15 3.1 14.9 0 2.7-.5 6.05-10.75-11.3-21.65-18.1-4.8-10.6-17.6-19.55-8.25-5.75-17.95-9.7-5.45-2.2-7.8-5.05-1.65-1.95-1.65-4v-.05q14.95 1 29.35 6.75t24.35 14.7q6.9 6.2 10.35 14.05"/><path fill="#0d131a" d="M68.5 104.3q2.45-.9 2.15.3-.25 1.15-2.15 1.95.6 8.5-3.25 14.5-3.55 5.45-8.6 5.95-7.15.6-8.25-9.05l-.2-1.65q5.45-6.7 20.3-12"/><path fill="#fff" d="m66.2 107.2.05.95q0 7.25-3.3 12.15-2.85 4.3-6.5 4.7-2.5.25-4.2-1.85-1.65-2-2.2-5.9 2.25-2.55 7.3-5.6 4.8-2.95 8.85-4.45"/><path fill="#0d131a" d="M137.6 121q.6.65.35 1.1l-.9 1.1q-3.1 4.2-9.85 6.25-7.35 2.2-13.65-.2-6.45-2.45-10.15-8.75t-3.4-14.2l-3.05-1.25q-.8-.3-.85-.9-.05-.7 1.65-.55 10.8.75 22.75 6.2 11.2 5.1 17.1 11.2"/><path fill="#fff" d="M125.4 127.5q-6.25 1.4-11.95-.75-7.9-3.7-10.15-12.35-.75-2.7-.8-5.6l.05-2.4q9.8 2.15 17.45 5.85 7.05 3.4 15.45 9.7-3.9 4.2-10.05 5.55"/><path fill="#0d131a" d="M162.05 115.75q6.85-2.8 11.9 2.05 5.15 5 5.35 15.1.1 6.65-3.8 11.45-3.7 4.5-9.05 5.35-2.35.35-4.65-3-1.85-2.7-2.9-6.3-2-7.25-1.45-14.65.65-8.35 4.6-10"/><path fill="#a3d5c0" d="M164.15 146.05q-1.45-2.15-2.6-6.3-2-7.25-1.75-13.9.25-7.1 3-8.2 4.8-2 8.65 1.55 3.35 3.05 4.7 8.8 1.35 5.7-.1 10.75-2.3 7.75-9.9 8.95-.85.15-2-1.65"/><path fill="#8cb9a7" d="M162.8 117.65q4.8-2 8.65 1.55 2.35 2.1 3.75 5.75 1.4 3.5 1.55 7.45-1.35-3.45-6-4.55-4.95-1.15-10.95 1.15-.25-4.45.5-7.45.75-3.2 2.5-3.9"/><path fill="#0d131a" d="M44.8 127.45Q52.25 122.7 63 121q10.7-1.7 21.7.1 11.6 1.95 20.55 7.4 9.85 6 14.85 15.35.8 1.5-1.05 2.5l-4.95.25-15.95-5.35Q83.9 136.4 83.2 136.4q-1.15 0-7.75 4.5-6.65 4.5-8.9 4.5-1.65 0-7.6-3.9-5.9-3.9-6.85-3.9-2.65 0-13 7.75-1.85-3.05-.75-6.85.9-3.15 3.4-7.1 2.15-3.35 3.05-3.95"/><path fill="#ee848c" d="M78.65 122.75q11.8 1.1 21.55 5.95 10.85 5.35 17.05 14.3l.7 1.35-1.7.1q-3.5-.25-17.1-5.35-13.3-5-16.05-5-2.45 0-9.35 4.6t-7.3 4.6q-.85 0-6.6-3.8-5.75-3.85-7.5-3.85-3.55-.05-13.35 7.1-.45-1.65.4-4.6 1-3.6 3.35-6.05 5.1-5.35 15-7.9 9.75-2.5 20.9-1.45"/><path fill="#0d131a" d="M61.7 112.1q-.65.1-1.15-.4-.55-.45-.65-1.2t.3-1.35q.4-.55 1.05-.65t1.15.35q.55.45.65 1.2t-.3 1.35zm61.8 4.1-1.35-.05q-.7-.3-1-1-.25-.7.05-1.4t1-.95l1.4.05q.7.3.95 1t-.05 1.4-1 .95"/></svg>