<svg xmlns="http://www.w3.org/2000/svg" width="461" height="317" viewBox="-0.35 -0.8 460.75 317.2"><path fill="#eeeeef" d="m184.95 155.15 23.15 41.1q23.95 42.95 28.15 52Q184 282.7 99.3 263.1q-26.45-6.15-53-16.95-8.25-3.4-15.6-6.85l-5.65-2.75q11.1-.6 25.05-2.8-8.75-2.2-21.3-6.75-15.65-5.7-23.85-10.55 8.05 1.05 28.8-.75l19.15-2q-13.95-2.8-21.2-5.05l45.15-4.45q2.5-.7 15-13l15.1-15.4q12.2-12.9 46.3-18.05 17.1-2.6 31.7-2.6"/><path fill="#c8c9ca" d="m184.95 155.15 23.15 41.1q23.95 42.95 28.15 52Q184 282.7 99.3 263.1q-26.45-6.15-53-16.95-8.25-3.4-15.6-6.85l-5.65-2.75q11.1-.6 25.05-2.8-8.75-2.2-21.3-6.75-15.65-5.7-23.85-10.55l7.4.4q8.8 1.9 24.85 2.2 13.05.2 16.9-.4 1.4-.2-2.05 2.05-3.6 2.35-2.15 2.35 7.4 0 18.75-5.2 9.9-4.5 13.45-8.05 2.1-2.1.5 1.65-1.9 4.3-1.2 4.05 3.35-1.25 14.55-17 10.35-14.6 18.35-28.55 14.9-9.25 44.25-12.95 14.7-1.85 26.4-1.85"/><path fill="#965e3a" d="m263 292.25 1.1-18.95 44.6 8.35-8.4 20.1-28.95 2.75z"/><path fill="#bf794e" d="M275.8 174.65q10.3 3.8 17.6 10 8.9 7.5 14.7 19.55 7.7 15.9 2.95 26.6-3.05 6.85-11.3 11.3-4.55 2.45-8.3 6.5l-2.85 3.55 3.35 1.65q21.75 21.2 23.4 23.95 1.1 1.75-.15 6.65l-1.8 5.8q-.35 1.1-14.85 3.35l-16.05 2.05q-1.4 0-13.6-14.6L257 266.35q.95-7.55 2.1-9.75.7-1.45 4.1-2.3l5.35-1.05q-.75-4.45-4.6-8.7-3.2-3.55-5.4-4.1 3.2-13.65 6.95-28.7 7.5-30.15 10.3-37.1"/><path fill="#965e3a" d="M275.8 174.65q6.8 2.5 12.45 6.15-6.75 10.2-7.2 25.2-.45 12.8 3.7 26.9 1.85 7.5 8.35 14.05-1.85 1.7-3.35 3.65l-1.15 1.55 3.35 1.65 10.6 10.5q-7.85.55-16.6 4.85-8.85 4.35-7.25 7.15 2.1 3.7 4.9 7 1.15 1.35.55 2.8-.4.05-1 4.8l-.65 4.7q-1.4 0-13.6-14.6L257 266.35q.95-7.55 2.1-9.75.7-1.45 4.1-2.3l5.35-1.05q-.75-4.45-4.6-8.7-3.2-3.55-5.4-4.1 3.2-13.65 6.95-28.7 7.5-30.15 10.3-37.1"/><path fill="#009844" d="M356.05 125.6Q382 105.7 419 112.8q-4.2 10.15-15.45 20.5-11.35 10.5-24.65 16.3 21.1.9 44.6 14.6 25.9 15.1 34.55 35.55-22.25 8.8-54 1.95-27.45-5.95-43.55-18.1 8.85 10.05 12.35 27.3 3.2 16.05 1.05 34-6.65-.75-15.75-6.95-10.5-7.15-17.85-17.95-19.85-29.1-6-67.05 1.75-4.8 6.35-11.3 6.55-9.25 15.4-16.05"/><path fill="#00863c" d="m379.8 149.2-13.1.7q15.2-4.4 35-21.3 9.85-8.4 17.3-15.8-4.1 9.95-15.1 20.15-11.05 10.3-24.1 16.25m-36.15 19.7q19.85 13.95 49.25 23.2 26.4 8.35 53.75 10.95-25.6 5.05-53.35-2.9-31.2-9-49.65-31.25"/><path fill="#00863c" d="M338.4 145q3.95-6.3 9.25-11.85-7.75 10.3-11.15 18.7-4.4 10.65-3.4 21.15 1.55 18.35 11.65 37.3 7.55 14.15 22.45 32.7-7.95-3.3-15.65-10.2-9.1-8.1-14.8-18.65-14.85-27.35-2.45-61.2 1.2-3.3 4.1-7.95"/><path fill="#bf794e" d="M386.7 121.75q-7.7 8.75-18.45 17.15-12.15 9.45-14.45 6.8-2.4-2.85 11.9-13 14.1-10.1 21-10.95M402.85 178q-10.2-.4-29.2-5.95-20.1-5.85-19-9.25 1.2-3.65 22.6 3.1 21.4 6.8 25.6 12.1m-59.15 15.7q-4.85-15.4-1.4-16.7 3.35-1.2 7.9 15.75 4.35 16.25 3.8 23.65-5.6-7.75-10.3-22.7m-16.25-36.75q-7.3-2.2-10.65-2.6-2.95 4.15-8.9 7.65-7.85 4.65-15.95 4.3-7.65-.35 2.1-23.9 3.05-7.35 7.5-16.15l3.8-7.3q4 1.7 7.35 6.4 4.7 6.55 6.8 17.45 13.4 4.5 20 5.7 1.85 2.6.8 6.8-1.2 4.55-5.2 4.1z"/><path fill="#965e3a" d="M340.5 154.25q-.35 2.4-1.65 3.8-1.45 1.6-3.75 1.35l-7.65-2.45q-7.3-2.2-10.65-2.6-2.95 4.15-8.9 7.65-7.85 4.65-15.95 4.3-4.85-.2-2.6-10.05 1.7-7.45 7.3-19.8 2.95 6.15 8.15 9.45 6.25 3.95 14.55 2.65 7.05 2.4 21.15 5.7"/><path fill="#bf794e" d="M324.65 48.35q-5.95 33.4-18.5 51.05-6.45-.4-11.1-9-5.35-9.8-2.9-23 2.55-13.85 15.6-34.35 5.55-8.75 10.2-13.8 5-5.45 7.05-4.5 2.15 1 2.05 10.7-.1 9.8-2.4 22.9"/><path fill="#965e3a" d="M294.7 89.75q-4.95-9.65-2.55-22.35 1.55-8.55 8.4-21.85-3.2 14.55-2.35 27.5 1 14.5 7.1 26.25-6.35-1.1-10.6-9.55"/><path fill="#0d131a" d="m107.7 176.5-13.65 15.15Q80 206.6 73.8 209.85q-3.25 1.7-4.45 1.3-1.25-.4 0-1.05l5.7-3.7-37.6 2.75q9.65 2.45 15.65 3.5 5.5-1.15 7.45-.15 1.85.95-7.55 2.2l-21.1 2.45-22.2.7q9.05 4.55 19.35 8.35 8.05 2.95 19.25 6.2 8.65 2.55 6.55 3.4l-7.05-.2-10.15 1.2-8.7.5q11.9 5.75 26.15 11.1 22.5 8.55 44.45 13.65 35.2 8.15 65.95 6.6 40.45-2.05 69.4-20.8-4.7-9.75-26.65-49.15l-23.9-42.5q-17.1.3-33.9 3.1-31.4 5.2-42.75 17.2m77.25-22.4h.65l.3.55 23.3 41.5q23.85 42.75 28 51.65l.35.8-.75.5q-47.9 37-136.5 16.5-27.2-6.3-51.9-15.85-17.1-6.6-24.85-11.15-4.45-2.6-4.45-3.6 0-.95 4.45-.6l8.1.4 12.2-1.15q-12.35-3.6-19-5.95-12.3-4.4-20.9-9.4-4.3-2.5-3.95-3.2.35-.6 4.45-.05 5.8.85 20.25.1l21.7-1.75-8.25-1.8-6.75-1.95q-3.2-1.05-3.75-1.45-.8-.65 4.3-1.3l44.65-3.75q2.15-.65 12.9-11.1 8.5-8.3 16.7-17 12.25-13 45.8-18.25 16.95-2.65 32.95-2.7M261 291.85q-.3-1.45.85-17.05l3.05 2.5-.6 9.05q-.4 5.4-.25 5.6 7.2 11.25 7.8 11.45l13.95-1.1 13.8-1.55.7-2.25q.7-2.8 1.55-4.85l3.2-.6q-2.7 9.15-3.55 9.95-.55.6-15 2.05l-15.45 1.1q-.95-.25-5.4-6.75-4.35-6.35-4.65-7.55"/><path fill="#0d131a" d="M299.25 241.2q12.6-6.65 12.6-19.3 0-7.55-4.65-17.25-10.1-20.85-30.8-28.65-4.35 11.9-16.65 63.8 3.55 1.75 6.85 6.05 4.35 5.6 3.35 10.95-.65 3.65-1.7 3.05-1.1-.6-.55-2.45.25-.8.15-2l-.15-1.05q-6.95 1.15-7.7 2.7-.65 1.3-1.25 5.15-.65 4-.2 4.6 22.55 26.95 24.05 27.3 1.05.3 15.2-1.9l14.7-2.6q.55-.35 1.65-4.25l1.15-5q.15-1-.85-2.25l-2.4-2.7-10-10.55-9.15-9.35-1.4-.9-2.2-.7q.25 2.35-1.05 2.45-1.3.15-1.85-2.2-.65-2.65 1.6-5.2 2.85-3.3 11.25-7.75m-23.1-67.5q11.75 4.25 19.8 11.1 8.5 7.25 13.8 18.2 2.35 4.8 3.7 10.5 1.3 5.3 1.3 9.55 0 6.55-3.85 11.6-3.5 4.55-10.65 8.4-6.4 3.4-10.65 7.2-1 1.55-.3 1.75 4.2 1.4 5.65 2.9l9.8 9.85 10.95 10.9q2.05 2.05 2.45 3.45.2.8-.15 2.65l-1.2 4.7-1.6 4.75q-.45 1.1-1.9 1.55l-4.5.7-14.2 2.15-12.5 1.5q-1.25-.25-13.8-14.35-12.45-14-12.8-15.2-.3-1.05.5-5.5t1.7-6.3q.7-1.55 5.1-2.7l4.35-.85q-1-3.8-4.3-7.35-2.8-2.95-4.6-3.4zm102.95-25.3q11.95-4.45 23.1-14.8 10.6-9.8 15.3-20-30.6-5.45-54.1 8.45-17 10-25.8 26.2l-2-.65q9.2-17.25 27.2-28.45 24.8-15.4 54.75-8.65 3.5.8 3.6 1.6l-1.5 3.05q-6.6 12.05-15.65 20.1-8 7.1-21.1 13.65 22.55 2.5 40.25 12.3 22.65 12.5 36.05 36.35 1.2 2.15.6 3.05-.55.8-3 1.4-27 6.85-53.25 1.3-20.05-4.25-38.55-15.45 5.55 8.6 8.25 17 3.05 9.7 3.6 22.95.15 3.5-.1 8.35-.3 5.05-.85 7.5-.55 2.55-1.5 3.05-1 .45-3.35-.6-11-4.8-17.05-9.1-10-7.2-17.3-18.9-6.75-10.9-8.6-24.3-2.35-16.8 3.4-35.75l2 .75q-3.65 12-3.65 23.5 0 19 9.8 34.8 6.9 11.1 17.4 18.8 8.9 6.5 15.9 7.75l.85-6.75.45-6.65q0-12.45-4.85-26.65-3.15-9.1-7.1-16.15-10.3-6.6-14.65-12.85-1.5-2.1-.9-2.15.65-.05 2.65 2.5 2.65 3.35 12.3 9 11.55 6.75 25.05 11.5 38.15 13.4 69.8 3.7-5-11.35-15.3-21.25-10.2-9.9-23.9-16.75-30.05-15.05-62.15-10.3-1.6.25-.15-.35 1.55-.65 4.6-1.25 9.25-1.8 19.45-.85"/><path fill="#0d131a" d="M368.35 137.8q8.85-7 16-14.7-7 2.3-17.6 9.75-10.8 7.55-12.3 11.4l-.1.6.05.35.8.25q3.4.05 13.15-7.65m18.25-16.85 1.45-.7q1.1-.2-.75 2-6.85 8.05-15.45 15.35-11.15 9.45-16.65 9.45-1.3-.05-2-.85-.8-1-.2-2.5 2.1-5.45 14.25-13.65t19.35-9.1m-30.25 41.65q-.95.2-.95.45v.05l.15.4q2.25 3.2 18.9 8 15.75 4.5 26.2 5.55-6.05-4.65-22.75-10.05-16.5-5.3-21.55-4.4m-2.1 1.8q-.65-1-.35-1.85.4-1.2 2.2-1.5 6.95-1.25 22.2 4.05 15.3 5.25 25.2 12.4 2.1 1.55.95 1.55l-1.6-.25q-9.05-.4-26.85-5.3-19.1-5.3-21.75-9.1m-12.2 11.9q.95-.4 2.1.4 4.3 3.25 7.85 18.35 3.2 13.65 2.8 21.45-.15 2.85-.8 1.9l-.65-1.5q-5.6-7.85-9.95-20.3-4.55-13.1-2.9-18.45.45-1.5 1.55-1.85m1.15 1.65-.65-.2q-.3.15-.55.85-.25.85-.25 1.9 0 5.2 3.65 15.85 3.65 10.6 7.8 17.4-.45-8.15-3.7-20.5-3.45-13.15-6.3-15.3m-7.9-19.55q2.15.15 3.35-1.75.6-1.15.85-3.5.25-2.8-.75-3.75-7.75-1.5-18.5-5.1.4 1.7-.2 2.45-.4.55-.6-.35l-.5-3.3q-.8-7.3-5.9-14.9-4.15-6.2-7.25-7.85-6.25 11.55-10.75 22.35-5.4 13.05-5.4 18.75 0 1.7.55 2.8.55.95 1.8 1 7.55.35 15.85-4.45 6.7-3.9 8.5-7.05l1.6-2.55q.35-.35.8-.35.6 0-.55 2.8 4.55.5 17.1 4.75m4.4-10.95.4.05.25.35q1.3 1.85 1.3 4.95 0 2.75-1.2 4.9-1.85 3.15-5.5 2.75h-.05l-1.9-.6q-10.9-3.65-15.8-4.35-3.35 4.25-8.95 7.55-7.95 4.7-16.35 4.3-2.4-.1-3.5-2.05-3-5.35 5.45-25.15 4.25-10 10.55-21.7l.45-.85.9.4q3.9 1.6 7.25 5.95 5.1 6.65 7.4 18.05 13 4.3 19.3 5.45"/><path fill="#0d131a" d="m312.8 127.2 1.65.3q2.9 7.2 1.4 16.1-2.15 12.6-13.5 21.45l-.9-1.15q12.1-9.45 12.95-23.95.3-4.55-.6-9.05zM298 93.05q-2.1-2.7-3.45-6.25-2.1-5.4-2.1-11.65 0-2.15.25-4.35L304.6 98q-3.55-.95-6.6-4.95m28-68.45q0-4.85-.65-7.25l-.5-1.35-.25-.3-1.3.3q-5.9 3.1-16.55 20.65-11.25 18.5-13.6 30.9-.3 1.65-.45 3.25l-2.25-5.1q2.3-12.4 14.05-31.25 11.35-18.2 18.1-21.65 1.8-.95 3.15-.35 1.3.6 1.9 3 1.2 4.45.7 14.8-.55 11.15-2.8 23.65-5.9 32.15-18.5 49.7L304.6 98l1.1.2q9.4-13.55 15.3-37.75 5-20.5 5-35.85"/><path fill="#fff" d="m268.8 145.05 17.3 21.2-41.1-.45 9.05-22.5z"/><path fill="#bf794e" d="m184.8 159.3 6.25 2.2q7.7 2.55 15 4.35 23.5 5.75 34.6 1.7t31.75-3.95l18.45.9q-6.65 11.7-8.4 16.9-4.65 13.7-.45 26.3 3.65 10.95 2.4 16.45-1.55 7.05-11.5 14.85-10.55 8.3-28.7 9.65-18.05 1.35-29.8-5.15z"/><path fill="#965e3a" d="m184.8 159.3 16.65 5.35q19 5.2 31 4.45-5.45 7.1-7.4 17.15-1.85 9.75.1 19.6 1.95 10.15 7.35 17.65 5.85 8.15 14.6 11.4 7.3 3 13.1 3.9 5.45.8 12.7.2-10.55 8.3-28.7 9.65-18.05 1.35-29.8-5.15z"/><path fill="#bf794e" d="M166.35 191.55q9-11.35 22.8-18.65 10.15-5.35 16.2.35 3 2.85 4 6.75 14.5 13.5 16.4 33 .75 7.7-.75 14.5-1.35 6.3-4.05 9.45-7.6 8.95-19.15 15l-6.45 3.25q-2.35 1.35-2 2.25l3.65 2.4q3.05 1.85 3.2 2.25l2.6 11.4q2.2 10.4 2.5 13.9.35 4.1-3.05 12.65-.35.9-4.8.9-2.75 11.7-3.45 12.45-1.35 1.45-16.05.1-14.35-1.3-16.05-2.4-1.05-.6-1.5-14.6-4.45-1.65-4.9-2.15-.7-.7-1.45-4.15-.7-3.3-.9-6.55-.1-2 6.1-12.75 4.7-8.2 7.7-12.7.85-1.3 5.6-2.15 3.8-.7 3-2.95-8.4-6.4-13.1-13.15-6.65-9.55-6.7-20.35-.05-14.65 10.6-28.05"/><path fill="#965e3a" d="M154.25 280.35q1.9-4.25 6.85-12.6 3.65-6.2 5.85-9.55.85-1.3 5.6-2.15 3.8-.7 3-2.95-8.4-6.4-13.1-13.15-6.65-9.55-6.7-20.35-.05-14.2 10.1-27.4.9 18.25 11.4 34.2 10.05 15.25 26.35 24.6-3.15 1.75-7.75 3.95-2.85 1.5-2.5 2.5l3.65 2.4q3.05 1.85 3.2 2.25.7 2.2 2.65 11.65-9.95-4.1-24.95-1.2-11.05 2.15-23.65 7.8m6.15 16.15q-4.45-1.65-4.9-2.15-.65-.6-1.3-3.3-.6-2.5-.9-5.5 23.15 5.25 52 2.55.1 4.1-3.05 11.95-.35.9-4.8.9-2.75 11.7-3.45 12.45-1.35 1.45-16.05.1-14.35-1.3-16.05-2.4-1.05-.6-1.5-14.6"/><path fill="#bf794e" d="M196.3 300.95q-8.1-.35-20.75-2.25l-14.45-2.65z"/><path fill="#0d131a" d="m286 172.3 2.05 2.05q-4.65 7.9-6.25 14.1-2.2 8.4.35 15.75l2.75 7.25q1.6 4.7 1.6 8.45-.05 10.65-12.8 20.05-11.2 8.25-30.5 9.9-19.55 1.65-31.6-5l3.3-2.25q11.35 6.25 29.3 4.4 17.65-1.9 27.95-10.05 10.45-8.3 11.2-16.75.35-4.3-3.25-14.55-3.25-9.15-.55-18.9 1.6-5.95 6.45-14.45"/><path fill="#0d131a" d="M160.95 298.1q.15 2.65.85 7.05.65 4.35 1 4.75.45.55 14.65 2.15l15.4.85q.55-.4 1.55-4.85l1.3-6.15-15.9-1q-12.05-1.05-18.85-2.8m5.55-108.45q10.8-12.3 22.2-17.7l.9 1.9q-9.5 4.5-20.3 17.2-13.15 15.55-12.5 28.4.5 9.7 5.85 18.2 4.6 7.35 13.5 14.6 1.8 1.5 1.25 5.6-.4 2.8-1.3 4.8-.45 1-1.95.85t-.95-1.05q2-3.2 2.3-6l-4.1.55q-2.95.45-3.35 1-1.3 1.85-7.15 12.15-6.7 11.75-6.7 13.35v.05q.25 3.65.75 6.35.55 2.85 1.25 3.65.7.85 7.75 2.25l14.3 2.15 14.35 1.2 7.55.25q.4-.2 2.25-5.75 1.85-5.6 1.8-6.8-.15-3.55-2.3-13.7-2.1-9.75-2.65-10.55-.45-.65-2.7-2-2.05-1.2-3.35-1.75-1.3 1.8.1 5.95.45 1.4-1.1 1.2t-1.9-1.65q-.3-1.4.15-3.65.35-1.9 1.05-3.55.55-1.25 2.2-2.25.55-.35 4.15-2.15 6.2-3 10.15-5.65 6.9-4.6 12.15-10.8 2.05-2.45 3.35-7.2 1.4-5.15 1.4-11.2 0-9.6-3.55-18.6-4.15-10.6-12.7-18.55l1.4-1.5q9.15 8.45 13.95 19.4 4.3 9.8 4.3 19.4 0 6.35-1.75 11.85-1.55 4.75-4 7.6-5.4 6.35-12.95 11.25-3.8 2.45-10.85 5.9-3.7 1.85-4.2 2.4l3.45 2.3 3.2 2.4 3.25 13.25q2.7 11.8 2.55 13.15-.15 1.75-2 7.45-1.95 5.95-2.6 6.15l-1.8.2h-2.3l-2.35 9.4q-1.1 3.85-1.9 4.2-2 .85-17.25-1-14.85-1.8-16.15-2.65-.35-.2-1.55-5.7-1.1-5.35-1.55-8.7l-2.35-.9-1.35-.8q-.7-.5-1.9-6.4-1.2-5.85-.95-7.35.25-1.3 7.3-12.9 6.85-11.2 7.85-12.35.65-.75 4.85-1.65l4-.85q-10.25-7-15.35-14.35-5.3-7.7-6.15-17.5-1.45-16.3 13-32.8m85.75-25.8q4.9-1.65 13.55-1.65 8.15 0 13 1.35l1.35 2q-4.95-1.4-13.85-1.5-9.2-.15-13.55 1.3zm4.9-8.7 6.65-.75q3.65-.1 7.15.75l2 2-10.65-.8q-3.3.15-6.85 1.6z"/><path fill="#eeeeef" d="M282.6 28.2q2.6 21.35 9.25 38.9 4.05 10.7 14.35 32.75 5.6 12.75 3.2 22.5-.9 3.6-3.15 7.9l-4.1 7.25q2.9 8.7 10.3 47.25l-10.4-11.8.15 8.85-7.7-20.75q-8.45-21.75-12.1-26.45-3.9-5.1-8.6-4.05-3.8.9-6.45 5.05-1.8 2.9-13.55 26.2l-11.4 22.7-3.45-9.3q-2.75 4.8-7.6 9.8-9.75 10-20.25 11.1 3.6-6.7 5.05-10.3 2.1-5.05 2.5-9.45-2.9 1.1-10.15 4.15l-6.65 2.8 1.15-30.15q-26.25 3.35-50.45 2.6-48.4-1.4-38.25-21.7 3.85-7.75 8.8-15.25l8-12q-3.95 1.55-7.6 4.1-2.35 1.65-8.05 6.3 11.75-23.55 29-35.9l-10.75 3.3q-5.8 1.95-10.7 4.2 9.35-18.8 33.6-29.55-7.2 0-16.5 2.05-11.05 2.4-17.4 6.35 26.75-26.35 65.3-30.4 14.45-1.5 27.65.5 11.45 1.8 16.9 5.25 0-4.35-1.45-11l-1.45-5.8 4.2 3.2q4.95 4.05 8.55 8.4 0-6.2-3.35-15.75l-5.9-15.55q9.65 5.65 22.3 18.9 11 11.55 18.85 22.85 2.4-7.95 3.7-11.55 2.75-7.35 4.6-8.5"/><path fill="#0d131a" d="M300.45 116.6q1.25 1.65-.4 8.05-1.6 6.2-3.8 9.4-2.45.3-5.65-.1 2.75-3.45 3.6-6.1 1.2-3.55-.35-7.1 4-3.35 6.6-4.15"/><path fill="#ffe792" d="M295 119.95q2.9 6.7-2.9 14.1-6.05-.7-7.65-1.4 1.5-3.2 4.75-7 2.65-3.05 5.8-5.7"/><path fill="#dbc77f" d="m294.8 119.8.85 1.95.55 1.9q-5.05 1.7-11 8.75 2.4-6.6 9.6-12.6"/><path fill="#ffe792" d="M244.55 117.2q13.5 7.7 17.65 14.95l-5.4 1.5-8.3 1.75q-6.75-11.2-3.95-18.2"/><path fill="#dbc77f" d="M244.1 116.55q5.7 3 10.35 7 4.85 4.2 7.05 8.35l-8.6-4.85q-6.1-3.5-8.9-4.3l-.1-3.05z"/><path fill="#0d131a" d="M238.65 126q-2.6-7.05-2.25-12.65 3.1 1 8.15 3.85-1.05 4.6.55 9.75 1.1 3.7 3.85 8.4l-3.5.5-2-.1q-2.85-4.45-4.8-9.75"/><path fill="#bf794e" d="M262.4 145.65q-.5-.9 1.1-4.25 1.75-3.5 4.35-6.4 7.25-8.15 12.9-2.9 5.45 5.1 13.85 27.05 5.4 14 8.5 24.55 2.75 9.2-3.35 2.85L280 165.2z"/><path fill="#965e3a" d="M262.4 145.65q-.45-.85 1.15-4.3 1.75-3.75 4.35-6.6 7.4-8.1 14.15-.75-3.55-.5-6.5 2.25-2.8 2.65-2.85 5.95.35 3.3 6.5 15.25 5 9.7 10.15 18.25l-17.05-18.75z"/><path fill="#0d131a" d="M247.8 43.35q-.55 1.35-4.15-2.85-6.5-7.55-11.4-11.4 2 7.8 2 15.85 0 4.5-1.05 4.15-1-.4-1.2-5.2-4.25-2.45-14.5-4-12.35-1.9-25.8-1-37.25 2.5-63.05 24.75 7.85-3.1 12.7-4.15 6.35-1.35 15.25-1.3 3.2.05 2.15 1l-1.7 1q-22 9.8-31.65 26.45 4.75-2 9.9-3.85 6.1-2.15 8.8-2.55l2.7.2q0 .4-1.75 1.7-5.45 3.9-13.75 13.7-8.45 9.9-12.55 17.3l6.2-4.75q3.4-2.35 6.05-3.5 2.7-1.2 2.5-.75l-4 6.9q-2 3.55-7.2 11.5-4.6 7-7.1 11.95-3.05 6.25-.1 10.45 7.4 10.4 48 9.85 20.4-.25 39.75-2.65-.25 28.3.1 29.55.2.75 6.45-2.15 8.4-3.95 8.9-4.15l1.25-2.7q1.05-1.65.15 3.75-1.05 6.6-2.15 10.05-1.15 3.6-3.75 8.55 9.5-1.85 17.05-10.5 4.35-4.95 6.75-10.3l1.3-2.7q.45-.4 1.1 2.15 1.2 4.45 2.55 8.15l18.7-38.3q2-3.85 2.2-1.75.25 2.1-1.3 5.1l-7.5 16.6-9.55 20.6q-1.85 3.65-2.5 3.8-.45.1-1.15-2l-2.75-8.35q-5.3 8-7.45 10.15-6.95 7-18.3 10l-4.15.75q-.7-.35 1.4-2.85 2.15-2.65 4.3-8.05 2.1-5.3 2.8-9.55-2.65 1.05-7.4 3.7-4.45 2.5-6.5 3.2-2.9 1.05-3.4.65-.35-.3-.05-2.9l1.1-14.5.85-13.8q-23 2.7-43.65 2.6-37.35-.25-44.85-10.8-1.85-2.6-1.85-5.8 0-3.1 1.8-6.8 3.1-6.15 6.55-11.75l6.1-9.25 2.15-3.25q-2.15 1.15-6.3 4.4l-5.75 4.35q-2.2 1.45-2.15-.1.1-1.5 2.2-6.65t8.15-12.4q6.4-7.65 15.1-15-10.1 3.1-16.1 6.85-3.15 2-2.9.25.2-1.1 2.4-5.45 4.3-8.2 11.75-14.5 6.85-5.8 16.9-10.45-6.45.6-15.15 3.3-8.6 2.7-12.75 5.35-3.9 2.45-4.15 1.6-.2-.8 2.55-3.95 11.95-13.65 32.95-22.2 16.5-6.75 33-8.5 13.4-1.4 25.8.25 11.25 1.45 17.75 4.75-.3-4.1-1.3-8.8l-1.5-5.9-1.55-3.85q-.45-1.4 2.45.75l5.6 4.4 6.05 6q-.5-4.3-4.95-15.35-3.2-8-5-11.6-1.15-2.35-1-2.7.35-1.05 5 1.2 6.35 3.05 17.1 13.6 12.5 12.3 21 25.75 1.7-5.6 4.15-11.5 1.95-4.55 3.4-7.3 1.1-2.05 1.8-1.3.6.65.95 3.5 1.45 10.8 6.55 27.9 5.35 17.9 11.3 30.85l5.65 12.55q4.85 11.1 4.85 17.1 0 5.05-2.4 10.1l-4.75 8.25-1.6 2.8q2 6.15 5.9 24.85 3.25 15.6 4.4 22.55.55 3.6.2 3.65-.25.05-2.35-2.55-5.7-7.45-8.25-10.35l.1 5.05q-1.55-3.35-2.25-7.1 0-2 .15-2.65.35-1.3 1.3-.15l3.6 4.5 4.6 5.7-6-26.5q-4.55-19.45-4.55-20.05 0-1.1.65-.85.7.3 1.2 2.15l4.85-8.6q1.45-2.65 2-5.5.4-2.45.3-5.7-.35-7.8-3.85-15.85L299.6 87.7q-7.55-16.5-10.55-25.4-4.9-14.35-7.2-31.65-1.5 2.45-3.35 7.85l-3 9.45q4.1 8.85 2.65 7.45l-4.7-6.55Q265.3 37.05 255.9 27q-10.3-11.1-19.45-17.2l3.75 9.8q3.25 9.75 3.7 16.95 4.45 5.45 3.9 6.8"/><path fill="#0d131a" d="M256.75 103.75q-1.45-1.3-1.65-2.15-.2-.9 2.4.75 3.8 2.4 8.45 8.75 5.45 7.45 4.8 11.95-.25 1.85-.8 1.95-.55.05-.75-2.15-.45-4.9-5.9-11.95-3.4-4.3-6.55-7.15m21.3 9.15q-.3-2.25.4-2.4.7-.2 1.1 2.05.5 2.4.25 6.3-.25 4.1-1.15 5.4-.9 1.25-1.15.9-.3-.35.15-1.6.45-1.05.55-4.75.1-3.55-.15-5.9m22.15 5.9-.15-1.15q-3.2 1.35-7.2 5.05-4.75 4.4-7.3 9.45 2 .65 4.85 1l5.35.15q1.7-2.55 3.1-7.25 1.35-4.5 1.35-7.25m-8.8 2.6q3.25-2.95 8.1-5.35 1.65-.85 2.25-.3.5.45.45 2.45-.1 2.8-1.3 7.15-1.25 4.55-2.8 7.35-1.4 2.3-3.9 2.25-6.25-.3-9.5-1.4-1.4-.45-.5-2.3 3.05-6 7.2-9.85m-54.2-6.85-.05.9q0 8.1 7 19.4l8.3-1.05q4.6-.95 8.4-2.1-3.75-5.85-11.95-11.15-5.95-3.85-11.7-6m4.05 19.25q-2.1-3.1-4.2-8.95-2-5.55-2.35-8.7-.35-2.9 0-3.5l1.95-.15q6.95 2 14.25 6.95 7 4.85 10.5 9.8 1.4 1.95 1.2 2.8-.25.85-2.3 1.5-7.25 2.35-14.45 3.15-1.85.05-2.65-.45-.65-.45-1.95-2.45"/><path fill="#0d131a" d="M263.35 145.1v.1q1.05 1.45 17.6 19.5l19.55 21.1q1.2 1.25 1.8 1.05.7-.25-.2-2.85-5-14.9-9.2-25.6-7.9-20.3-12.8-24.95-3.6-3.35-7.25-1.3-3.5 1.9-6.7 6.85-2.8 4.25-2.8 6.1m6.65-13.6q3.1-2.35 6.05-2.4t5.4 2.25q5.85 5.5 14.8 29.2 4.5 11.85 7.85 22.85l1.25 5.05q.25 2.15-.6 2.65-.8.45-2.4-.7l-3.35-3.15-19.5-20q-18.3-18.85-18.95-20-.95-1.75 2.5-7.35 3.35-5.6 6.95-8.4m-21 3.75q-2.95-2-4.65-6.75-1.95-5.5-.7-11.6l1.6.35q-1.15 5.55 1.15 11.35 2.1 5.3 4.45 5.65zm45.3-14.8 1.2-1q1.6 2.05 1.1 6.5-.6 5.15-4.2 7.85l-2-.45q2.65-.25 3.8-6.1 1.1-5.5.1-6.8m-35.75 8.65q0 1-.35 1.65l-.85.7q-.5 0-.85-.7t-.35-1.65.35-1.65q.35-.65.85-.65t.85.65.35 1.65m31.3-.85-.4 1.1-.7.4-.6-.55-.15-1.2.4-1.1q.3-.45.7-.4t.6.55q.25.5.15 1.2"/><path fill="#bf794e" d="M208.9 125.05q8.6 7.8 8.6 19.65 0 12.1-8.1 20.65t-19.55 8.55q-8.55 0-15.6-4.25-6.8-4.1-11.8-11.9l-8.4 1.1q-5.4 1.15-9.3 3.25l-2.4-8.05q-1.35-4.7-2.05-8.05l9.2-.9q5.95-1.15 10.35-3.55 1.6-10.3 10.1-17.25 8.35-6.8 18.85-6.8 11.8 0 20.1 7.55"/><path fill="#965e3a" d="M167.1 154.15q12.7 9.85 26.75 11.5 11 1.3 17.15-2.2-3.85 4.9-9.3 7.65-5.6 2.8-11.85 2.8-8.55 0-15.6-4.25-6.8-4.1-11.8-11.9l-8.4 1.1q-5.4 1.15-9.3 3.25-.35-1.15-.15-3.25.15-2.1-.2-3.3 17.7-5.35 22.7-1.4"/><path fill="#bf794e" d="M186 36.45q-2.15-14.9-1.05-24.75 1.1-9.95 4.9-8.45 20.55 8.2 32.35 47.8 4.45 14.85 6.4 30.25 1.75 13.95.7 20.85-.7 4.75-7.9 1.5-6.8-3.15-13.1-10.2-8.6-9.7-14.7-26.35-5.25-14.35-7.6-30.65"/><path fill="#965e3a" d="M184.85 25.75q.75-5.95 1.25-7.15 1.1-2.75 4.15-1 17.75 11.8 25.3 37 6.75 22.65 3.3 47.7-5.5-3.25-10.55-8.85-10.15-11.45-16.65-32.2-5.55-17.6-6.8-35.5"/><path fill="#eeeeef" d="M218.05 96 216 87.3l4.4 5.65q5.95 6.95 13.5 13.3t-12.65 1.5l-21.7-6.15-4.05-15.35 9.7 9.75-4.6-17.95z"/><path fill="#009844" d="M59.2 126.45q-11.85-12.7-17.95-25.35 37.45-6.45 66.95 15.7 9.4 7.05 18.25 17.35l9.4 11.4 4.45.45q1.55.15 3.5 6.15 2.1 6.35.95 9.95-2.35 1.25-4.05 2.8 3.2 35.1-7.65 64.8-9.45 25.7-25.7 39-9.5-14.6-9.2-43.05.15-12.1 2.3-22 2.25-10.2 5.85-14.55-22.55 9.8-48.4 11.85-25.05 2-38.1-4.25 5.7-11.45 27.4-25.85 21.95-14.55 43.75-21.05-17.05-7.65-31.75-23.35"/><path fill="#00863c" d="M141.3 174q-1.75-6.8-1.45-10.7.45-5.6 4.85-7.6.8 4.1.05 6.4-2.35 1.25-4.05 2.8zm-91.45-58.85q17.3 13.35 29.2 20.15 17.4 9.95 31.4 11.45L90.35 150l.6-.2q-12.4-5.55-23.8-15.65-9.6-8.45-17.3-19M19.8 196.7l19.55-1.55q21.95-1.95 33.2-4.7 18.05-4.4 31.65-8.5 18.8-5.7 25.2-9.75-7.6 9.4-9.7 12.35-5.45 7.5-9 15.15-9.2 19.8-10.3 50.55-3.5-16.8-1.6-35.7 1.85-18.6 7.5-25.45-22.55 9.8-48.4 11.85-25.05 2-38.1-4.25"/><path fill="#bf794e" d="M85 123.15q6.95.15 22.05 8.7 15.25 8.65 13.15 11.7-2 2.9-15.1-5.25-11.55-7.2-20.1-15.15m23 45.1q-18.8 6.3-28.95 7.15 3.95-5.45 25.05-13.15 21.1-7.65 22.45-4.05 1.25 3.35-18.55 10.05m18.3 28.15q-3.8 15.2-8.9 23.3-1-7.4 2.3-23.9 3.5-17.2 6.9-16.15 3.55 1.05-.3 16.75"/><path fill="#0d131a" d="M187.85 4.9q-1.95 2.8-2.3 11.65-.35 8.9 1.15 20.1 3.65 27.6 14.05 44l2.1 5.8q1.4 3.9-1.3.35-6.7-8.75-10.65-19.55-3.1-8.55-5.7-22.3-2.3-12.35-2.55-23.45-.25-9.15.85-14.2 1.05-4.85 2.1-6.25 1.45-1.85 4.3-.4 12.15 6.05 21.25 21 7.05 11.6 11.95 28 4.45 14.9 6.5 30.75 1.85 14.7.75 21.9l-.05.2-1.85-2.05q.65-7.55-1.2-21-2.1-15.2-6.4-29.4-11.55-37.9-31.4-45.85-.9-.3-1.6.7"/><path fill="#0d131a" d="M193.5 28.8q7.65 2.95 17.15 29.6 3.85 10.85 5.55 19.5 1.75 9.2.1 11.25-1.6 1.95-4.9-2.95-3.05-4.7-6.2-13.2-7.75-20.85-6.2-33.7-.4-2.65-4-7.45-2.6-3.45-1.5-3.05"/><path fill="#0d131a" d="m199.85 78.25-.8-3.2q-.05-.95 1.25.35l16.3 18-.7-2.7q-.25-1.1-.25-2.65 0-2.7.25-3.15.55-.85 2.5 1.9 2.8 3.95 6.9 8.95 5.15 6.25 9.1 9.9 2.6 2.35 1.4 2.3-1.15-.1-3.55-2.1-2.1-1.75-6.95-6.85-4.6-4.85-7.15-8 .6 2.5.85 5.15.3 3.2-.35 3.05-.45-.1-8.1-9.35-7.5-9.1-7.9-8.95-.35.1 2.15 9 2.45 8.75 1.9 8.7-.65-.05-4.85-4.1l-6-5.95q.55 2 2.45 7.1l2 5.75q.4 1.45-.4 1.45-.75 0-1.45-1.5-1.35-2.9-4.1-10.15-3.4-9-2.45-8.8t5.55 4.7l6.3 6.3zm16.6 66.45q0-11-8-18.55-8.05-7.6-19.65-7.6-10.1 0-18 6.3-7.75 6.25-9.6 15.45l.95.25q.5.55-1.8 1.9-4.15 2.5-12.75 4.15l-9.45.4q.15 4.3-2.75.7l-4.1-6q-14.75-18.45-29.25-27.75-26.7-17.1-59.2-12 6.4 12.45 16.5 23.45 14.2 15.4 31.75 22.8 11.8-1.65 19.85-1.8 8.15-.15 10.4 1.3 1 .7-.25.8l-4.5.05q-10.05-.15-17.55 1.15-23.6 4.15-48.2 19.7-22.55 14.25-29.55 26.8 6.4 2.75 19.1 3.5 13.6.8 28.3-1.15 37.3-5 56.35-23.35 3.15-3.05 3.55-2.75.4.2-1.1 2.25-1.85 2.65-7.65 7.2-6.85 5.4-12.75 7.9-2.8 2.65-5.25 13.9-2.55 11.7-2.55 23.55 0 11.65 2 21.7 2.15 11.05 6.3 18.1 13.95-11.9 22.85-33.7 9.9-24.35 9.9-53.25l.1-6.5-.3-8.05q-.35-4.65.7-4.9.4-.1.6.6l-.05 1.6q4.85-4.25 11.9-5.5l9.15-.65q2.45-.1 2.1.65l-.9.75q9.5 14.75 26.2 14.75 11 0 18.8-8.25t7.8-19.9m-6.3-20q8.75 8.25 8.75 20.05 0 12.8-8.15 21.75-8.45 9.25-21.25 9.4-8.25.1-15.4-4.55-6.75-4.3-12.15-12.5-4.85.2-9.9 1.6-6.65 1.8-10.25 4.95.85 9.45.85 16 0 59.8-31.95 87.4-2.4 2.1-3.4 2-1.1-.1-2.55-2.75-3.3-6.05-5.65-16.85-2.55-11.6-2.55-22.75 0-10.8 2.05-21.25 1.95-10.2 5-15.9-22.25 8.95-42.8 11.05-20.95 2.1-41-2.9-2.3-.55-2.5-1.7-.25-1.25 1.75-3.95 11.8-15.8 30.1-27 15.9-9.75 39-17.2-16.9-8.25-29.15-19.85-12.6-11.95-19.4-26.6-.8-1.8.15-2.75.95-1 4.1-1.45 33.6-4.95 60.1 12.8 9.3 6.2 17.85 15.4 3.75 4.05 11.1 13.25l3.6 4.25q2.1.75 8.5.05 8.1-.8 13.95-3.85 1.9-10.9 9.6-17.8 8.35-7.45 20.4-7 12.55.4 21.2 8.65"/><path fill="#0d131a" d="m140 146.5 1.7-.05q2.75 2.15 3.8 7.2 1.05 5.15-.65 8.4l-1.9-.35q1.4-2.7.25-8.25-1.15-5.35-3.2-6.95m29.05-21.4 1.4-1.05q4.95.8 8.45 6.55 3.25 5.25 3.95 12 .8 7.75-1.8 14.4-3.05 7.8-9.7 10.35l-1.5-.95q6.05-2.35 9-9.8 2.55-6.55 1.8-13.75-.7-6.85-4.2-12.05-3.4-5.05-7.4-5.7m36.75 3.85q3.5 7.65 3.7 16.3.2 8.45-2.9 15.75-3.05 7.2-8.4 11.2l-3.15.7q5.2-3.95 8.7-11.3 3.7-7.8 3.5-15.7-.2-8.3-3.55-16.3-3.25-7.65-7.2-10.15-3.15-2-1.45-1.85l2.35.55q5 3.45 8.4 10.8m-86.25 14.15.05-.2-.2-.7q-1.9-3.65-13.4-10.05-11.35-6.35-18.55-7.85 7.9 6.9 17.45 12.95 10.45 6.6 13.85 6.2.65-.05.8-.35m-36.3-20.35q-.7-.95 1.75-.4 10.45 2.25 21.7 8.15 11.6 6.05 14.1 11 .75 1.5 0 2.5-.6.9-1.85 1.05-4.25.5-16.45-7.5-10.6-6.9-18.05-13.8zm20.25 40.65q-16.45 6.05-22.3 10.95 10.35-1.45 25.95-6.65 16.45-5.5 18.55-8.8l.15-.35v-.1q-.15-.3-1-.35-5.1-.7-21.35 5.3m-24.4 12.8-1.5.2q-1.2-.1.6-1.65 8.95-7.7 24.75-13.6 15-5.6 22.1-4.65 1.8.3 2.25 1.4.35.9-.3 1.85-3 4.8-20.9 10.45-16.2 5.1-27 6m48.3 7.8q0-1.75-.4-2.85-.2-.65-.6-.75-.15-.15-.6.25-2.7 2.3-5.35 15.5-2.45 12.3-2.45 20.6l.05.25q3.5-6.7 6.45-17.1 2.9-10.3 2.9-15.9m-2.65-4.55q.95-.85 2.1-.6 1.1.35 1.65 1.75 1.85 4.85-2.5 20.1-4.15 14.55-7.95 19.4-1.05 1.35-1.35.65l-.1-.95q-.95-7.15 1.55-21.45 2.65-15.55 6.6-18.9"/></svg>