<svg xmlns="http://www.w3.org/2000/svg" width="527" height="298" viewBox="-0.9 -4.8 526.75 298.3"><path fill="#0d131a" d="M365.75 135.25q2.25 3.35 3.1 10.6.95 8.05-.35 17.55-3.35 24.65-19.5 45.25-4.65 5.95-16.5 7.35-11.9 1.35-28.85-2.1-36.85-7.6-69.1-28.65-34.95-22.85-41.65-48l-6.45-23.8q-8.05-29.1-8.8-37.1-1.05-10.9 5.55-15.7 3.35-2.45 4.05-6.75.85-5.2-2.75-11.3-2.6-4.3-5.95-8.65-2.8-3.75-3.45-5.3-1.05-2.45.1-4.55 2.1-3.85 9.45-8.8Q193.1 9.65 204 5.85q29.35-10.2 59.7-1.45 39.5 11.4 52.4 28l1.1 1.65q2.3 4.25 1.35 6.35-1 2.05-6.1 3.9-11.35 4.1-19.85 16.6-9.6 14.15-5.55 27.25.95 2.95 3.75 5.6 3.2 3.1 7.85 4.85 3.35 1.25 4.95 2.95 1.05 1.15 4.1 6.25 11.8 19.7 24.2 25.6 11.85 5.6 29.7.8l1.9-.3q1.4.1 2.25 1.35"/><path fill="#eef3f6" d="M364.45 145.15q1.1 5.2 1.1 11.25 0 11-3.5 22.1-4.7 14.9-15.3 28.4-4.1 5.3-15.25 6.35-11.1 1.1-27.25-2.2-36.15-7.4-67.8-27.95-34.25-22.2-40.75-46.6l-6.45-23.8q-7.7-27.9-8.6-35.45-1.25-10.3 4.25-14.3 4.3-3.1 5.2-8.6.95-6.25-3.15-13.2-2.5-4.2-6.1-8.95l-2.9-4.25q-.75-1.5-.2-2.5 1.6-2.9 8.1-7.4 7.95-5.45 18.05-9.15 28.5-10.45 59-1.7 23.35 6.75 36.75 15.75 7.35 5 12.7 11.85l1 1.25q2.7 3.3-1.45 4.75-13.15 4.6-22.2 18.35-10 15.2-5.4 29.85 1.15 3.55 3.2 5.8 2.4 2.7 7.35 5.3 3.8 2 5.1 3.15 1.4 1.25 3.25 4.4 12.3 21.25 27.75 28.6 13.9 6.6 30.7 2.1l1.15 1.7q.95 1.95 1.65 5.1"/><path fill="#cacfd2" d="M347.45 169.25q13.95-5 18-10.1-.4 10.65-4.1 21.35-4.75 13.8-14.6 26.4-4.1 5.3-15.25 6.35-11.1 1.1-27.25-2.2-15.45-3.15-31.5-9.45-16.2-6.35-30.55-14.9l2.7-18.45 26.7-.45q.15-1 1.25-1.5l2.4-.1q3.35.95 3.95 6.05.6 5.25 12.65 6.2 10.75.85 26.9-1.9 15.75-2.65 28.7-7.3"/><path fill="#0d131a" d="M301.8 20.45q6.9 4.9 12.8 12.6l.95 1.15.85 2.25q.2 1.9-2.8-.15-22.3-15.05-44.6-17.55-22.75-2.55-41.6 8.45-13 7.65-20 19.4-6.95 11.8-5.6 23.9l.05.3-.1.3q-.95 2.9-7 3.7-4.35.55-15.45.3l-1.75-.05-.05-1.4q-.1-4.6 1.25-7.7t4.45-5.3q3.4-2.45 4.1-6.4.9-4.9-2.65-10.95-1.6-2.7-4.2-5.8-2.45-3-4.6-4.9-2.8-2.4-3.25-4.5-.45-1.85.9-4.3 2.1-3.8 9.8-8.8 8.85-5.7 20.2-9.5 30.55-10.3 60.9-1.55 23.8 6.85 37.4 16.5"/><path fill="#00aeeb" d="M263.55 15.55q-22.15-.85-38.85 8.95-12.4 7.25-19.35 18.85-6.65 11.1-6.65 23.4l.2 3.55q-1.25 2.4-18.45 1.9.1-3.25 1.15-5.4 1.05-2.2 3.3-3.85 2.45-1.75 3.85-4.5 1.5-2.95 1.5-6.5 0-5.25-3.3-10.8-2.5-4.2-6.1-8.95l-2.5-3.55q-.85-1.4-.85-2.25l.25-.95q1.6-2.9 8.1-7.4 7.95-5.45 18.05-9.15 28.5-10.45 59-1.7 29.95 8.65 43.45 21-20.15-11.8-42.8-12.65"/><path fill="#0098cd" d="M186.95 41.15q-2.3-3.9-5-7.5 14.25 2.55 31.1-.1-7 7-10.7 15.7-3.65 8.55-3.65 17.5l.2 3.55q-1.25 2.4-18.45 1.9.1-3.25 1.15-5.4 1.05-2.2 3.3-3.85 2.45-1.75 3.85-4.5 1.5-2.95 1.5-6.5 0-5.25-3.3-10.8"/><path fill="#0d131a" d="M250.75 251.95q6.6 1.45 10.7 4.7 4.05 3.3 5.1 8 1.5 6.7 1.5 10.85 0 6.45-1.45 8.2-1.95 2.45-5.9.4l-.9 4.65q-.7 2.35-1.95 3.05-1.65.95-4.7-.05l-6.45-2.9q-4.7 4.65-13.4-5.65-5.25-6.25-10.35-15.6l-.2-.4q-1.35-2.35-1.35-4.65 0-2.4 1.6-4.7 3.35-4.5 12-6.1 7.95-1.45 15.75.2"/><path fill="#0098cd" d="M258 257.8q4.75 2.9 5.75 7.45 1.45 6.65 1.55 10.95.05 3.15-.6 4.2l-1.5 1.5q-1.25.6-3.15-.7-1.8-1.2-2.05-.75-.15.25.05.75l-.05 1.35q-.3 4.35-2.1 5.3-2.35 1.35-8.3-1.8l-.55-.25-.55.15q-6.3 7.2-21-19.7l-.25-.45q-1.9-3.5.1-6.25 2.6-3.45 10.05-4.9 7.45-1.4 14.75.15 4.6 1 7.85 3"/><path fill="#0d131a" d="M243.65 282.05q3.2 3.5 5.45 5 2.5 1.65 2 2.55t-3.15-.55q-2.35-1.25-6.05-6.1-2.9-3.75-4.25-6.25-.85-1.6-.2-1.6t1.95 1.8zm8.65-7.4q-1.05-1.9-.65-2.1.4-.25 2.2 1.8l3.35 4q1.8 2.1 3.35 3.15 1.75 1.2.95 1.85l-2.05.05q-1.05-.45-3.65-3.7-2.5-3.15-3.5-5.05m33.8-47.1q6.35-1.35 14.05.55 14.05 3.45 20.3 15.15 4.4 8.3 5.3 22.4 1 15.95-3.25 18.05-.9.45-2.45 0l-2.8-1.25q-.05 3.55-.7 5.55-.75 2.25-2.45 3-3.85 1.7-11.05-4.4-.35 1.3-1.4 1.95-.8.55-1.7.55-5.65.1-13.65-10.1t-12.85-23.75q-2.4-6.7-1.75-12.4.6-5.75 4.2-9.75 3.85-4.25 10.2-5.55"/><path fill="#0098cd" d="M317.95 244.65q4.05 7.65 4.9 21.15.5 7.5-.55 11.25-.6 2.25-1.6 2.75-1.35.7-4.05-1.65L314 275.9l.25 3.5q.6 7.1-1.8 8.2-1.5.65-4.35-.95-2.45-1.35-4.35-3.4l-1.65-1.8-.8 2.3q-.6 1.85-2 1.85-4.2.05-11.05-8.2-7.85-9.35-12.6-22.6l.5-.5-.85.2q-2.05-5.8-1.2-11 .8-4.95 3.95-8.45 3.3-3.65 8.9-4.75t12.5.6q12.85 3.2 18.5 13.75"/><path fill="#0d131a" d="M291 269.9q-1.35-2.4-.75-2.5t2.7 2.35l6.05 7.8q4.2 5.5 5.3 6.25l-1.65 2.4q-3.05-2.4-6.95-8.35zm13.2-5.7q-1.65-2.95-.75-3t2.85 2.8l5.55 8.2q4.05 5.65 6.2 7.2l-2.15 2.35q-2.5-1.85-6.5-8.4zm-180.65-31.25q8.65-3.85 17.8-5.55 11.9-2.25 14.6 1.95 4.1 6.2-12.8 22.5-25.75 24.85-49.4 26.35-15.7 1-26.2-7.55-1.4-1.15-.8-5.2.7-5.15 17.2-14.1 11.9-6.5 35.45-16.65z"/><path fill="#0098cd" d="M153.55 230.95q.85 1.3-.85 4.4-2.85 5.1-12.15 13.55-25.65 23.35-47 24.85-13.8.95-23.5-6.95-.5-.35-.5-.8l.05-.15q1-7 50.95-28.5l4.15-1.8q8.75-3.85 17.75-5.45 9.5-1.65 11.1.85"/><path fill="#0d131a" d="M131.35 223.05q2.55 4.2-1.15 10.6-3.9 6.65-14 14.65-28.25 22.3-53.7 25.7-10.4 1.4-18.75-.7-7.6-1.9-11.9-6.2-.8-.8-1.35-2.8-.7-2.3-.3-4 1.05-4.75 18.3-13.65 13.45-6.95 51.4-23.45l3.45-1.5q7.35-3.25 15.8-3.3 9.4 0 12.2 4.65"/><path fill="#0098cd" d="M128.1 230.65q-3.3 6.05-14.4 14.8-26.9 21.25-51 24.4-9.7 1.3-17.55-.65-7-1.75-10.9-5.65L34 263v-.2q.7-3.6 13.5-11.1 16.9-9.95 53.55-25.85l3.45-1.5q6.6-2.95 14.3-3.05 8.1-.1 10.1 3.25 1.35 2.15-.8 6.1"/><path fill="#0d131a" d="M86.9 183.7q1.15-2.45 3.4-3.65 2.3-1.2 5.5-1 6.8.5 13.75 6.35 7.45 6.25 9.75 14.45 1.85 6.55.15 12.85-2.6 9.35-12.85 16.7-39.25 27.95-72 33.55-12.85 2.2-22.15.3Q4.1 261.6 1.3 257.3q-2.2-3.45-.8-8.45Q1.8 244 10.75 238.7q2.75-1.65 19.95-10.15 23.75-11.75 36.65-21.75 14.15-10.95 19.55-23.1"/><path fill="#00aeeb" d="M95.6 181.95q5.95.45 12.25 5.8 6.7 5.65 8.7 12.85 1.65 5.95-.45 11.7-2.8 7.55-11.9 14.05-28.45 20.25-54.55 28.85-21.75 7.1-35.35 4.55-6.4-1.2-8.5-4.4-1.8-2.9-1.1-5.4 1.15-4.1 9.15-9.15 4.85-3.05 18.15-9.65 22.4-11.1 32.8-18.5 17.95-12.7 24.7-27.75 1.5-3.3 6.1-2.95"/><path fill="#0098cd" d="M104.5 185.3q4.2 2.65 7.35 6.55 3.4 4.2 4.7 8.75 1.65 5.95-.45 11.7-2.8 7.55-11.9 14.05-28.45 20.25-54.55 28.85-21.75 7.1-35.35 4.55-6.4-1.2-8.5-4.4l-.15-.25q.85-2.6 2.5-4.15 2-2 5.9-3.3 20.1-6.6 44.95-22.6 29.6-19.1 45.5-39.75"/><path fill="#0d131a" d="m330.4 195.75 15.45-.75q6.45.35 8.25 3.55 1.65 3-.7 8.5-2.4 5.45-9.3 14.6-14 18.5-35.9 31.2-21.85 12.6-48.85 17.8-18.55 3.55-40.2 3.55-77.7 0-120.75-45.9-38.2-40.8-51.9-121.5-1.05-6.2 2.45-9.35 4.1-3.7 14.9-3.7l16.2.9 14.4.85q9.95 0 29.65.7 16.15.25 22.7-1.95 3.1-1.05 5.35-2.45 1.85-1.1 3.8-2.95h-.25q-2.4 0-13.75 2.5-11.4 2.45-19.3 2.45-8.2-.1-15.3-3.5-17.15-8.15-47.1-7.15-8.5.3-12.65-.9-4.6-1.35-5.4-4.85-1.55-6.75 15.55-10.8 17.7-4.15 50.45-2.55l28.6 1.65 29.95 1q5.75 0 11.9-4.3 6.1-4.3 8.7-10l.25-.65.7-.15 6.1-.65q5.6.05 7.3 3.05l3.6 6q2.5 3.65 5.15 5.4l.35.35q6.7 3.9 18.7 7.9l18.85 6.25 13.75 5.35q5.6 2.4 7.6 4.3 3.35 3.2 5.55 13.1 2.15 9.9 2.4 23.35.7 31.65-8.3 58.35 11.25 10.15 29.95 12.15 11 1.15 31.1-.75"/><path fill="#ffe45f" d="M351.55 199.95q2.25 4.05-9.75 19.95-13.7 18.1-35.1 30.5-21.45 12.35-47.9 17.45-26.55 5.05-55.4 2.25T147.05 257q-47.5-17.8-75.75-79.6-9.6-21.05-15.55-44.2-4.45-17.4-4.8-25.8-.2-5.15 2.35-7.6 3-2.85 9.6-2.85l22.7.85 23.7.85q30.95.1 38.15-1.6 2.7-.6 6-2.85 2.55-1.7 6.2-5 4.15 0 9.75 1.85 3.35 1.1 10.85 4.1 15.9 5.9 31 5.9 19.05 0 32.25-.9 12.05-.8 15.4-2.05 3.05-1.1 2.85-1.75l-3.05-.2-17.65 1.1q-16.45.7-29.55.7-10.05 0-28.4-6-18.3-6.05-26.2-6.05l-6.7.5-3.6.75q-14.6 3.1-20.3 3.35-8.75.35-16.7-3.45-17.65-8.4-47.8-7.4l-11.15-.7q-2.65-.65-2.8-1.4-.15-.7 2.1-2.3 3.3-2.3 10.1-4.6 8.15-2.8 32.9-3.05 21.85-.2 63.7 1.6l10.1.4q7.75-.8 14.25-5.6 5.55-4.1 8.55-9.7 2.35-1 5.75-.65 3.5.4 4.4 1.9l3.65 6q2.3 3.25 5.1 5.1l.55.55q5.75 4.2 17.8 8.55l19.45 6.75q7.4 2.8 13.5 5.9 6.25 3.1 7.55 4.7 4.65 5.75 6 20.85 1.35 14.55-.75 32.9-2.2 19.05-7.4 35.8-5.7 18.35-13.75 29.45-3.3 4.6-2.4 4.75.85.2 4.75-4 3.15-3.45 7.65-11.4 4.35-7.65 6.95-14.05 13.25 12.45 31.8 13.5l15.7-.55 14.8-1.7 13.7-.85q6.05.1 7.2 2.15"/><path fill="#dcc552" d="M261.35 94.3q2.2-.6 2.4.5t-2.15 1.9q.4-.5-.4-.65l-2.5.1-17.65 1.1q-16.45.7-29.55.7-10.05 0-28.4-6-18.3-6.05-26.2-6.05l-6.7.5-3.6.75q-14.6 3.1-20.3 3.35-8.75.35-16.7-3.45-17.65-8.4-47.8-7.4l-10.4-.55q-2.65-.5-3.45-1.3 9.65-2.2 18.35-2.2 23.8 0 39.7 5.8 3.95 1.45 9.7 4 4.5 1.8 7.6 1.8 2.8 0 14.6-2.45t19.25-2.45q6.25 0 25.85 6.45t28.5 6.45q46.75 0 49.85-.9m90.2 105.65q2.25 4.05-9.75 19.95-13.7 18.1-35.1 30.5-21.45 12.35-47.9 17.45-26.55 5.05-55.4 2.25T147.05 257q-20.45-7.65-37.7-24-14.9-14.2-27-34.45 20.5 14.15 47.9 20.65 27.3 6.5 54.25 3.75 28.35-2.85 49.65-15.5 23.3-13.75 34.3-37.05-6.25 26.85-17.05 41.7-3.3 4.6-2.4 4.75.85.2 4.75-4 3.15-3.45 7.65-11.4 4.35-7.65 6.95-14.05 13.25 12.45 31.8 13.5l15.7-.55 14.8-1.7 13.7-.85q6.05.1 7.2 2.15"/><path fill="#0d131a" d="m172.4 90.75 16.15 5.55q10.9 3 23.3 3l10.45.3q6.7.3 9.55.2l-4.5 1q-2.7.75-4.05 1.3-12.8 5.45-21.4 7.95-9.6 2.8-16.8 2.8-6.15 0-16.95-3.1-10.75-3.15-18.45-3.15-8 0-19.2 2.85-11.25 2.85-21.9 2.85-9.15 0-20.2-4.25-11.1-4.25-15.85-4.25l-6.15.4-4.7.85-2.95.1q-.05-.65 2.1-2.1 2.7-1.75 7.8-2.05l8.8.6.9-.25Q84.7 99.6 91.9 99.7l13.65 1.25 15.8 1.5q9.2.3 26.2-4.05 13.15-3.3 24.85-7.65"/><path fill="#922f00" d="M173.6 92.55q11.5 4.4 15.8 5.55 10.6 2.95 21.85 2.95l7.3-.05q-9.6 4.05-15.3 5.75-8.9 2.65-16.5 2.7-6.9 0-17.6-2.75-10.75-2.8-18.3-2.8t-19.25 2.85q-11.75 2.85-21.15 2.85-13.8 0-26.9-6.25 5.45-1.05 10.7-1.05l11.05.8 15.95 1.5q10.05.35 27.7-4.2 13.55-3.55 24.65-7.85"/><path fill="#eef3f6" d="M348 163.95q24.2 12.4 50.5 19.25 32.3 8.45 67.95 23.55 39.7 16.85 49.9 28.6 9.5 11 5.3 17.05-2.25 3.25-11.5 6.55.45 4.9-3.65 7.45-4.55 2.8-15.4 3.2 3.05 4.95.7 8.3-2.7 3.9-12.5 4.9-24.6 2.45-87.55-13.75-57.2-14.75-88.8-51.85-11.3-13.35-18.2-28.3-5.1-11.15-6.6-20.15-1.1-6.45 3.55-13.35 4.15-6.2 11.45-10.7 7.2-4.45 13.85-5.15 7.2-.7 10.7 3.5 7.65 9.35 30.3 20.9"/><path fill="#cacfd2" d="M482.95 282.25q-10.5 2-31.2-.75-23.8-3.15-60-12.45-57.2-14.75-88.8-51.85-11.3-13.35-18.2-28.3-5.1-11.15-6.6-20.15l-.2-3.1q26.1 51.05 86.65 79.75 24.15 11.45 57.45 21.25 20.5 6 60.9 15.6"/><path fill="#0d131a" d="M347.4 161.05q27.15 14.4 51.45 20.75 32.25 8.4 68.15 23.65 40.05 17 50.4 28.95 7 8.1 7 13.8l-.3 2.3q-.9 3.55-4.95 6.1-2.45 1.55-7.5 3.35-.1 3.5-2.1 5.75-3.95 4.45-16.2 5.2.9 2.2.9 3.8 0 2.3-1.4 4.15-5.75 7.85-30.6 6.8-27.45-1.15-69.35-13.1-45.15-12.9-74.55-38.35-30.65-26.6-41.4-64.45-1-3.45-.05-4.3t2.6 2.85q8.3 18.55 13.55 27.75 8.6 15.25 19.45 26.65 27 28.5 79.6 44.95 50.85 15.85 77.7 15.5 16.5-.25 20.75-6 1.9-2.6-.7-6.8l-1.3-2.1 2.45-.1q12.95-.45 16.4-4.35 1.6-1.8 1.3-4.75l-.1-1.1 1.75-.6q4.75-1.7 6.75-2.9 3.5-2.05 4.2-4.7 1.35-4.9-6.05-13.45-10.1-11.65-49.7-28.4-35.5-15-67.4-23.3-25.4-6.65-52.25-20.65-24.5-12.75-29.3-19.9-2.6-3.95-1.95-5.15t4.1 3.2q5 6.45 28.65 18.95M254.3 64.9q-.3 2.8-1.4 2.9-1.05.05-1.15-2.55-.35-14.3-2.8-22-3.65-11.35-12.3-12.1-7.65-.65-12.35 6.15-5.65 8.15-6.85 26.6-.2 2.55-1.4 2.55-1.15-.05-1.25-2.6-.6-18.25 6.3-28.15 6.2-8.85 16-8.05 11.45.95 15.55 14.6 3 9.85 1.65 22.65"/><path fill="#0d131a" d="M245.45 49.95q0 2.4-.45 3-.8 1-9.45 1-8.7 0-9.3-1-.35-.65-.25-3.05.1-2.8.9-5.35 2.35-7.4 8.75-7.35 6.8.05 9.05 7.4.75 2.6.75 5.35m-.6 6.2q.3-.1.25 2.15 0 2.6-.7 4.95-2.15 7.15-8.75 6.75-6.35-.35-8.7-7.05-.8-2.25-.9-4.55-.05-2.05.35-2.05l8.5.3z"/><path fill="#dcc552" d="M199.55 72.3q-6.25 2.5-6.9.65-.6-1.8 2.55-6.7l5.75-8.5q1.7 3 3.15 4.85 1.95 2.45 4.35 4.05l.55.55.7.5z"/><path fill="#0d131a" d="M200.7 73.25q-2.9.55-4.05-.4t2.5-2.05q3.3-1 5.85-2.55l3.3-2.3 2.75.1q1.4 1.05-.1 1.85l-4.55 2.85q-3.55 2.1-5.7 2.5m251.95 126.4h.2l.15.05q18.8 7.35 33.8 14.75 23.25 11.5 30.6 19.95 5.75 6.6 7 12.15.95 4.25-.75 7.5-1.75 3.5-5.9 5.2-3.6 1.5-7.7 1.15-4.25-.35-13.1-2.55-10.85-2.7-21.2-6.55-29.3-10.8-40.35-25.15-8.75-11.65-3.25-20.05 5.45-8.35 20.5-6.45"/><path fill="#00aeeb" d="M433.55 214.4q0-3.1 1.5-5.75 2.15-3.7 6.55-5.45 4.4-1.8 9.9-1.15 24.35 9.5 40.85 18.4 16.5 8.85 22.25 15.45 6.6 7.6 6.6 13.15 0 1.8-.75 3.3-1.25 2.45-5.4 3.35l-6.9.3q-12.2-1-32.65-8.35-27.95-10.05-38.45-23.65-3.5-4.8-3.5-9.6"/><path fill="#0098cd" d="M521.2 249.05q0 1.8-.75 3.3-1.25 2.45-5.4 3.35l-6.9.3q-5.4-.45-16.25-3.3-13.9-3.65-25.7-8.75 21.55 5.7 30.85 6.4 18.1 1.3 21.6-8.95 2.55 4.3 2.55 7.65"/><path fill="#0d131a" d="m410.3 244.55-.2-.1-.2-.15q-4.3-3.45-6.7-8.35-2.5-5.1-1.75-9.55 2.15-13.35 18.2-14.8 13.6-1.25 34.7 6 18.7 6.45 35.45 16.65 16.55 10 20.3 16.95 2.6 4.85 2.7 9.1.05 4.55-2.9 6.85-10.25 8.2-31.05 3.5-17.8-4-56.5-21.1-6.85-3-12.05-5"/><path fill="#00aeeb" d="M438.25 216.8q13.4 2.7 29.35 9.7 14.25 6.25 25.7 13.65 11.2 7.3 13.6 11.75 1.4 2.55 1.7 5.1.55 4.05-1.95 6.75-4.95 5.35-20.15 3.5-22.3-2.75-63.6-20.95-7.2-3.15-11.95-5-3.05-2.5-4.85-5.95-1.75-3.4-1.75-6.8 0-.95.15-1.85 1.05-6.65 9.25-9.65 9-3.35 24.5-.25"/><path fill="#0098cd" d="M500.2 259.45q6.1-3.3 6.7-7.55 1.4 2.55 1.7 5.1.55 4.05-1.95 6.75-3.45 3.8-12.4 3.95-12.45.2-34.2-6.9 27.95 5.35 40.15-1.35"/><path fill="#0d131a" d="M430.15 234.65q19.7 5.9 37.8 15.55 17.7 9.45 24.45 17.35 2.75 3.2 2.8 7.55.05 3.55-1.35 5.45-5.85 7.75-32 5.65-26-2.1-68.95-13.65-4.3-1.15-10.5-3.75l-4.75-2.4-.15-.1q-6.65-4.85-9.25-12.2-2.6-7.45.45-13.25 5.85-11.05 23.85-12 15.55-.85 37.6 5.8"/><path fill="#00aeeb" d="M442.95 242.45q16.6 6.4 30 14.35 13.15 7.8 16.25 12.9 2.65 4.45.55 7.2-3.65 4.9-19.55 5-26.2.2-77.95-13.7-4.05-1.1-9.35-3.25l-4.4-1.7q-3.9-2.85-6.15-6.95-2.3-4.1-2.3-8.2l.05-1.45q.9-7.85 10.2-11.8 10.5-4.5 28.5-1.8 15.55 2.25 34.15 9.4"/><path fill="#0098cd" d="M392.25 268.2q-4.05-1.1-9.35-3.25l-4.4-1.7q-3.9-2.85-6.15-6.95-2.3-4.1-2.3-8.2v-.15q34.2 14.9 65.2 22.75 38.25 9.7 55.4 3.85-.1 1.3-.9 2.35-3.65 4.9-19.55 5-26.2.2-77.95-13.7"/></svg>