<svg xmlns="http://www.w3.org/2000/svg" width="201" height="159" viewBox="0 -0.5 201.05 158.7"><path fill="#0d131a" d="M54.3 125.8q3.1-5.75 9.85-6.4 6.7-.65 15.15 3.95 8.8 4.75 11.85 11.9 2.7 6.35-.05 11.4-3.4 6.25-11.05 8.35-7.75 2.15-15.1-1.45-8.25-4.05-11.3-12.9-2.9-8.35.65-14.85"/><path fill="#007b36" d="M78.15 124.75q4.6 2.5 7.7 5.85t4.15 6.9q1.3 4.5-.85 8.35-2.95 5.4-9.05 7.2-7.05 2.1-14.25-1.85-7.05-3.85-10.25-11.35-3.2-7.6-.15-13.2T65.4 121q5.85 0 12.75 3.75"/><path fill="#00662a" d="M71.15 133.7q-4.1-6.4-11.4-11.4 3.65-1.85 8.85-1 4.6.8 9.55 3.45 4.6 2.5 7.7 5.85t4.15 6.9q1.3 4.5-.85 8.35-2.95 5.4-9.05 7.2-2.7.8-5.7.65 1.3-2.35 1.3-4.65 0-8.2-4.55-15.35"/><path fill="#0d131a" d="M131.05 119.2q6.05 2.7 9.75 9.5 3.25 5.95-.35 13.8-3.55 7.85-11.6 12.25-6.3 3.45-13.05 2.85-6.2-.5-11.2-4.25-4.9-3.65-6.9-9.05-2.1-5.8-.15-11.7 2.45-7.45 12.55-11.9 12.2-5.45 20.95-1.5"/><path fill="#007b36" d="M138.25 141.75q-3.45 7.1-10.75 11.1-7.05 3.8-15.3 1.75-7.8-1.95-10.9-7.4-4.5-7.95-2.4-14.3 2.2-6.7 11.55-10.85 11-4.9 18.8-1.8 5.9 2.35 9.55 9.05 2.9 5.3-.55 12.45"/><path fill="#00662a" d="M138.8 129.3q2.9 5.3-.55 12.45-3.45 7.1-10.75 11.1-3.45 1.9-7.45 2.3l1.65-2.05q4.7-7.7 1.2-17.25-3.25-8.8-11.3-14.3 10.5-4.3 17.95-1.15 5.7 2.4 9.25 8.9"/><path fill="#0d131a" d="M98 48.5q27.95 0 47.75 13.65 19.8 13.6 19.8 32.85 0 19.3-19.8 33.2-19.9 14-47.75 14-27.8 0-47.7-14Q30.5 114.3 30.5 95q0-19.25 19.8-32.85Q70.1 48.5 98 48.5"/><path fill="#007b36" d="M143.3 64.1q19 13 19 31.3t-19 31.3q-19.05 12.95-45.85 12.95T51.6 126.7q-19-13-19-31.3t19-31.3q19.05-13 45.85-13t45.85 13"/><path fill="#00662a" d="M97.45 51.1q26.8 0 45.85 13 19 13 19 31.3t-19 31.3q-19.05 12.95-45.85 12.95l-9.7-.45q3.25-6.25-8.25-22.55-13.2-18.75-40-41.1Q47.6 64.5 63 57.9q15.75-6.8 34.45-6.8"/><path fill="#0d131a" d="M103.15 11.2q0 3.35-1.4 5.9-1.5 2.6-3.85 3.35-2.35.7-4.65-.6-1.65-1-2.85-2.9t-1.7-4.3q-.85-4.15.5-7.75 1.4-3.7 4.3-4.65 2.55-.75 4.65.55 1.65.95 3 3.1 1.25 2.05 1.75 4.45z"/><path fill="#b4a258" d="M93.95 18.7q-3.05-1.85-4-6.3-.7-3.6.5-6.7 1.15-3.1 3.6-3.85 1.85-.55 3.55.5 3.05 1.75 4 6.3.7 3.6-.45 6.7-1.2 3.05-3.65 3.8-1.7.6-3.55-.45"/><path fill="#0d131a" d="M123.75 7.3q.35 3.5-1.45 6.65-1.8 3.1-4.8 4.3-3.05 1.15-5.5-.25t-2.95-4.6 1.25-6.3q1.05-1.8 2.65-3.2 1.7-1.5 3.3-1.95 2.6-.7 4.7.4 2.4 1.4 2.8 4.95"/><path fill="#b4a258" d="M122.5 8.9q0 2.3-1.25 4.45-1.55 2.65-4.05 3.75l-4.6-.1q-2.05-1.15-2.4-3.9-.4-2.75 1.15-5.4 1.8-3.15 4.9-4.05 2.15-.55 3.75.4 1.2.65 1.85 2 .65 1.25.65 2.85"/><path fill="#0d131a" d="M29.1 84q1.45-.3 2.45.9 1.15 1.4 1.15 4.1-.05 2.6-1.2 5.4-1.15 2.65-3.1 4.45-2.8 2.6-6.8 2.9-10 .85-15.45-5.8-3.65-4.4-1.6-7.85 2.55-4.35 14.15-3.5z"/><path fill="#b4a258" d="M30.5 85.2q.85 1.05.85 3.55 0 2.65-1.1 5.15-1 2.35-2.7 3.95-2.5 2.3-6.05 2.6-4.85.4-8.9-1.7-3.45-1.8-5.3-4.8-2.15-3.45.55-5.8 3.3-2.9 12.75-2.25 5.15.35 8.75-1.15.65-.15 1.15.45"/><path fill="#0d131a" d="M168.9 80.5q5.45 3.35 9.95 5.1 4.4 1.7 9.05 2.4 4.7.75 7.25 2.85 2.65 2.2 2.1 5.25-1.2 6.3-14.6 8-7.8.95-16.8 3.75-5.35 1.65-13.9 4.9-8 3-10.2 3.45-1.4.3-4.25-.55l-6.75-2.45q-19.35-7.5-33.95-9.3-25.9-3.2-52.25 6.5-12.95 4.75-26.35 6.2-15.4 1.7-17.8-3.3-.4-.8-.4-1.9 0-3.6 9.3-10.2 4.25-3 9.95-6.3l6.5-3.55q-2.3-23.3 14.3-44.75 16.2-21 39.55-26.65 1-.25 1.45-1.3l.3-1.75q0-3.45-2.7-7.65-2.9-4.75-.5-6.75 1.75-1.45 5.2-1.05 3.5.45 6.6 2.5 4.3 2.85 6.35 6.15 2.1-3.65 4.75-6 4.1-3.65 8.05-2.4 5.85 1.85 6.95 10.4 10-5.9 15.4-3.5 2.3 1.05 2.3 3.7-.1 2.25-3.5 4.9-3.85 2.9-4.5 4.7-.6 1.5 2 2.9 17.25 9.05 27.1 21.85 10.7 13.85 14.05 33.85"/><path fill="#b4a258" d="M194.55 95.7q-.05 2.6-3.25 4.5t-8.85 2.6q-7.85 1-16.95 3.75-5.3 1.65-14.05 4.95-7.3 2.8-10 3.4-1.05.25-3.8-.65l-6.4-2.3q-19.55-7.55-34.3-9.35-26.2-3.2-52.85 6.55-12.85 4.7-26.1 5.75-13.25 1-15.15-2.55-1.3-2.5 3.95-7.05 6.5-5.6 23.25-14.75 2.15-1.2 1.65-1.5t-1.7.35l-2.15.9q-2.25-21.75 15.4-43.5 7.75-9.6 17.6-16.4 9.9-6.8 19.55-9.15 1.6-.35 2.4-2.1.75-1.85.05-4.75-.7-2.85-2.7-6-1.6-2.45-.2-3.85 1.25-1.2 3.65-1.1 2.75.15 5.55 2 4 2.65 5.6 5.35.55.9 1.6 4.15.55 1.7 1.3 1.35.7-.3.45-1.65l-.6-2.25-.35-1.1 3.4-4.6q4.1-4.3 7.7-3.1 4.3 1.45 5.8 6.25 1.1 3.5.65 8.1-.1.65.45.9.55.2.7-.75.5-2.4.45-4.5 1.55-1.35 6.3-2.85l7.95-.2q2.25 1.65-1.3 4.9-4.85 4.4-5.4 6.55-.7 1.85 1.6 3.55 17.6 8.9 28.25 23.65 10.95 15.15 13.85 35.4.3 1.85.85 2.05.5.15.65-.95l-.05-2.1-.1-1.15q5.5 3.4 10.05 5.05 4.05 1.5 9.55 2.4 2.6.4 4.35 2.1t1.7 3.7"/><path fill="#978949" d="M167.55 84.6q.3 1.85.85 2.05.5.15.65-.95l-.05-2.1-.1-1.15q5.5 3.4 10.05 5.05 4.05 1.5 9.55 2.4 2.6.4 4.35 2.1t1.7 3.7q-.05 2.6-3.25 4.5t-8.85 2.6q-7.85 1-16.95 3.75-5.3 1.65-14.05 4.95l-2.2.85q-4.55-5.45-5.95-7.85-1.6-2.7-1.2-7.35.8-10.25.8-12.95 0-14.35-12.9-35.3-3.5-5.7-9-13.45-4.3-5.95-4.45-6.65-1.55-5.95 9.55-12.6 1.35-.8 2.6-2.1 1.55-1.55 2.25-3.2 1.55 1.55-1.95 4.75-4.55 4.15-5.15 6.35-.7 1.85 1.6 3.55 17.6 8.9 28.25 23.65 10.95 15.15 13.85 35.4"/><path fill="#978949" d="M179.2 98.95q10.55 4.45 14.05 6.55 7.1 4.35 5.85 8.35-2.55 8.1-18.15 8.6-15.05.4-28.1-6.15-7.4-3.7-13.9-8.3l-5.05-3.9 28.3-15.5q3.5 4.55 17 10.35"/><path fill="#0d131a" d="M163.45 89.4q.9 1.45 7.1 4.75 5.55 3 11.45 5.45 9.45 4 12.55 5.85 5.55 3.3 5.95 6.9.55 5-4.3 8.05-5.25 3.3-14.5 3.1-13.7-.25-33.4-8.3l.45-1.25q19.6 7.45 32.25 7.65 8.7.1 13.4-3.15 3.5-2.5 3.5-5.85-.05-3.1-5.05-6.25-3.45-2.2-11.35-5.55-16.25-6.75-19-10.45-1.7-2.2-.9-2.4.8-.25 1.85 1.45"/><path fill="#b4a258" d="M91.7 91.4q40.55-3.95 50.25 4.85-.45 1.95-.15 4.2.2 1.65.65 2.9 1.2 3.25 6 8.65l8.25 9q4.35 5 4.75 7.85.6 3.55-4.6 4.95-9.45 2.55-20.9-4-9.3-5.3-21.1-17.45 3.1 6.4 2.25 11.5-.95 6-7.35 5.8-11.6-.4-20.8-9.2-3.05-2.9-6.15-7l-3.85-5.3q-6.65 8.45-19.1 13.6-13.2 5.5-21 1.8-5.15-2.4 0-9.95 7.45-8.85 9.95-12.5 1.7-2.4 14.45-5.3t28.45-4.4"/><path fill="#0d131a" d="m80.3 111.2-1.4-1.95q-7.2 8.65-19.75 13.85-13.3 5.45-21.1 1.8-3.05-1.4-3.45-3.3-.6-2.7 3-7.7l6.8-8.35 3.85-4.8q.55-.85 1.25-.75t-.15 1.45l-1.8 2.5-2.1 2.5q-4.15 4.85-5.9 7.5-2.95 4.4-2.4 6.75.3 1.45 2 2.25 7.45 3.5 20.3-1.75 12.35-5.05 18.95-13.45l-.85-1.6q-.3-.65.2-1.1.45-.5 1.2.8 3.5 6.15 10.35 12.7 10.55 10.1 20.45 10.45 3.95.15 5.7-2.45 2.65-4.05-1.2-13.95-1.4-3.65-.55-3.45.85.15 2.1 2.9 3.95 5.55 15.4 13.3 15.2 10.3 24.65 7.75 4.7-1.25 5.4-3.5.6-1.8-2-5l-6.1-6.6-6.7-7.8q-3.75-4.7-4.6-6.55-.85-1.8-.15-1.9.65-.1 1.3 1.3.6 1.2 4.5 5.85 3.65 4.4 6.8 7.8l7 7.35q2.95 3.65 2.25 6.4-.35 1.35-2.15 2.65t-4.15 1.95q-9.7 2.6-21.85-4.35-9.6-5.5-18.75-15.6 1.3 3.8 1.3 6.8 0 3.9-1.2 5.8-2.15 3.2-7 3.05-10.5-.4-19.05-7.55-4.65-3.9-10.4-12"/><path fill="#978949" d="M88.35 50.7q24.8.6 32.95 6.55 1.1.8.45 1.2l-2.45-.2q-6.55-2.3-15.7-3.6l-15.3-1.3q-19.45-.5-24.4.5l-2-.1q-.85-.35-.1-.85 1.4-1.1 9.1-1.75 8-.7 17.45-.45"/><path fill="#0d131a" d="M119.5 56.85q-9.85-4-27.15-5.4-17.55-1.45-28.25 1l-3.7.35q-.2-.45 3.5-1.65 7.6-2.5 26.8-1.3 20.3 1.25 29.4 5.65 3.85 1.9 3.6 2.4-.25.55-4.2-1.05M89.6 63.4q2.4.45 8.9 5.65 5.9 4.7 10.95 9.75 1.2 1.2.95 1.55-.25.4-1.5-.7-4.95-4.5-10.8-8.8-6.65-4.95-8.85-5.35-1.35-.25-10.45 4.9-7.6 4.3-10.35 6.25-1.15.85-1.35.6-.2-.2.85-1.3 2.4-2.45 11.4-7.6 8.95-5.2 10.25-4.95"/><path fill="#0d131a" d="M105.95 58.3q.05 3.45-1.15 3.45-1 0-1.15-3.45-.1-3.45 1.15-3.45 1.15 0 1.15 3.45M78.4 56.65q.05 3.45-1.15 3.45-1 0-1.15-3.45-.1-3.45 1.15-3.45 1.15 0 1.15 3.45m-49.1 14.1q.95-5.8 4.55-9.35 3.8-3.75 8.65-3 4.45.7 7.2 5.6 2.85 4.9 1.9 10.55-1.05 6.55-4.8 9.9-3.65 3.35-8.7 2.5-4.9-.75-7.4-5.6-2.35-4.6-1.4-10.6"/><path fill="#007b36" d="M34.7 62.3q3.45-3.3 7.45-2.65 4.05.7 6.3 4.9 2.25 4.25 1.4 9.55t-4.3 8.65q-3.5 3.3-7.5 2.65-4.05-.65-6.3-4.9t-1.4-9.55 4.35-8.65"/><path fill="#0d131a" d="M131.5 77.9q0-6.55 3.85-11.5 4-5.25 9.95-5.25 6.15 0 10.15 5.2 3.75 4.95 3.75 11.75 0 6.75-4.05 11.55-4.05 4.75-9.85 4.75-5.7 0-9.75-4.75-4.05-4.8-4.05-11.75"/><path fill="#007b36" d="M133.6 77.65q0-6.15 3.5-10.5 3.5-4.4 8.4-4.4 4.95 0 8.45 4.4 3.5 4.35 3.5 10.5 0 6.2-3.5 10.55-3.5 4.4-8.45 4.4-4.9 0-8.4-4.4-3.5-4.35-3.5-10.55"/><path fill="#00662a" d="M145.5 62.75q4.95 0 8.45 4.4 3.5 4.35 3.5 10.5 0 6.2-3.5 10.55-3.5 4.4-8.45 4.4l-2.5-.35q.3-5.1-.95-13.25-1.3-8.3-3.3-13.55 3.4-2.7 6.75-2.7"/><path fill="#0d131a" d="M130.85 31.65q2.45-1.6 6.3.1 3.85 1.75 8.65 6.65 3.3 3.35 3.55 8.25.25 5-3 7.2-3.3 2.25-8.2.7-4.85-1.55-7.65-5.7-3.5-5.15-3.25-10.1.2-4.75 3.6-7.1"/><path fill="#00662a" d="M148.15 47.6q-.4 3.85-2.95 5.55-2.1 1.4-5.1.8-2.35-.45-4.65-2.05-2.25-1.6-3.8-3.85-2.65-3.95-2.6-8.8t2.8-6.7q4.3-2.9 13.35 6.4 1.6 1.7 2.4 3.95.8 2.3.55 4.7"/><path fill="#0d131a" d="M69.1 39.05q-3.25 3-6.95 3.6-3.1.45-4.3-.8-1.3-1.3-.55-4.45.8-3.5 3.75-6.25 2.85-2.6 6.2-3.3 3.2-.65 4.65.85 1.55 1.55.65 4.8-.9 3.15-3.45 5.55"/><path fill="#007b36" d="M58.75 40.8q-.8-.9-.75-2.35.05-1.6 1-3.4t2.5-3.3q1.65-1.5 3.55-2.4t3.4-.85q1.3.1 2.1.8.85.95.85 2.35v.1q-.1 3.1-3.25 6.05-1.8 1.7-3.9 2.7-2.1 1.05-3.65 1-1.15-.05-1.85-.7"/></svg>