<svg xmlns="http://www.w3.org/2000/svg" width="229" height="300" viewBox="0 -1.5 229.45 299.95"><path fill="#39992d" d="M44.55 115.75q0 5.65-3.95 9.6T31 129.3q-5.6 0-9.6-3.95-3.95-3.95-3.95-9.6 0-5.6 3.95-9.6 4-3.95 9.6-3.95 5.65 0 9.6 3.95 3.95 4 3.95 9.6"/><path fill="#44af35" d="M25.1 96.75q3.95 4 3.95 9.6 0 5.65-3.95 9.6t-9.6 3.95q-5.6 0-9.6-3.95-3.95-3.95-3.95-9.6 0-5.6 3.95-9.6 4-3.95 9.6-3.95 5.65 0 9.6 3.95"/><path fill="#39992d" d="M11.35 110.95q5.9 4.7 14.7 3.9-1.9 2.35-4.6 3.7-2.8 1.35-5.95 1.35-5.6 0-9.6-3.95-3.95-3.95-3.95-9.6 0-5 3.2-8.75.15 8.5 6.2 13.35"/><path fill="#44af35" d="M59.5 111.35q0 5.6-4 9.55-3.95 4-9.55 4t-9.6-4q-3.95-3.95-3.95-9.55t3.95-9.6q4-3.95 9.6-3.95t9.55 3.95q4 4 4 9.6"/><path fill="#39992d" d="M43.25 117.4q6.45 2.4 14.05 1.25-1.85 2.85-4.8 4.55-3.05 1.7-6.55 1.7-5.6 0-9.6-4-3.95-3.95-3.95-9.55l.1-1.65q4.5 5.4 10.75 7.7"/><path fill="#44af35" d="M186.1 164.7q6.9 7.25 13.2 20.95 7.15 15.55 6.9 26.6-.25 10.55-4.95 19.5-4.35 8.25-10.15 11.35-7.3 3.85-9.8 6.05-3.9 3.4-1.9 6.35 2.05 2.95 7.6 3.8 6.25.9 7.45 1.85 1.25 1 1.7 3.95.5 2.85 0 5.85-1.3 7.7-6.35 6.3l-15.15-2.65q-9.65-1.7-9.65-3.7 0-2.95-1.4-10.8-1.5-8.5-2.65-10.3-1-1.65.9-3.9l2.8-3.15q3.15-5.95.2-11-2.95-5-10.75-7-3.7-.95-1.15-12.35 2.45-10.6 8.6-23.6 6.5-13.65 12.85-20.6 7.35-8.05 11.7-3.5"/><path fill="#39992d" d="M186.1 164.7q5 5.25 10.2 15 5.75 10.65 8.3 20.55-5.5-6.5-18.6-9.95-4.95-1.3-23.15-4.1 6.35-12.6 12.3-18.75 6.85-7.05 10.95-2.75m-32 60.05q-1.55-.4.95-5.3 3.8-7.25 4.65-10.6 9.25 19.25 12.9 24.6 8.75 12.75 17.3 10.3-5.1 2.75-7.5 4.5-3.3 2.5-3.65 4.65-4.6 3.15-4.25 8.1.2 3.5 4.2 14.3l-7.9-2.05q-5.8-1.65-5.8-2.35 0-2.95-1.4-10.8-1.5-8.5-2.65-10.3-1-1.65.9-3.9l2.8-3.15q3.15-5.95.2-11-2.95-5-10.75-7"/><path fill="#e85377" d="M195.65 256.7q6.35 1.5 16.5 7.35 8.7 5 11.1 7.45 3.9 4.05 3.5 5.35-.4 1.2-5.15 1.45-11.35.6-21.45-.3-13.6-1.2-14.75-4.75-1.25-4.05 2.85-10.65 4.05-6.65 7.4-5.9"/><path fill="#c94768" d="M200.15 278q-13.6-1.2-14.75-4.75-.8-2.8 1.1-7.25 7.35 2.9 24.9 7.25 15.25 3.8 15.15 3.95-.75.85-4.95 1.1-11.35.6-21.45-.3"/><path fill="#e85377" d="M188.45 258.85q5.15 1.65 16.3 7.95 10.15 5.7 12.5 7.75 3.3 2.9 3.4 4.4.2 1.95-4.75 2.3-8.7.65-22.7-1.1-14.75-1.9-15.5-4.25-1.2-4.05 3.15-11.05 4.35-7.05 7.6-6"/><path fill="#c94768" d="M180.25 265.8q8.05 5.45 18.85 9.2 8.3 2.85 20.6 5.4-1.2.7-3.8.85-8.7.65-22.7-1.1-14.75-1.9-15.5-4.25-.5-1.75.25-4.6.7-2.65 2.3-5.5"/><path fill="#eee4b7" d="M26.75 136q-1.4-12.85-.45-20.55 1.1-8.55 4.4-8.35 1.15.05 2.15 1.15.9.95.85 1.55-1.25 9.7 1.35 21.25Q38 144.3 45.1 155.2q18.3 28.05 55.6 29.6 7.95.35 12.4 7.75 4 6.65 3.5 15.65-.5 9.05-5.3 14.3-5.35 5.95-13.95 3.85-45.1-11.15-62.65-56.95-6-15.65-7.95-33.4"/><path fill="#c8c09a" d="M33.7 109.8q-1.45 11.15 2.05 24.3-2.2-1.4-5.05 1.95-2.85 3.3-3.3 7.55-1.15-6.65-1.35-16.95-.1-8.1.25-11.2 1.1-8.55 4.4-8.35 1.15.05 2.15 1.15.9.95.85 1.55m67 75q7.95.35 12.4 7.75 4 6.65 3.5 15.65-.5 9.05-5.3 14.3-5.35 5.95-13.95 3.85-14.25-3.55-25.7-10.55 5.35-1.8 7.3-5.6 1.25-2.4 1.7-7.95.55-6.15 1.65-9.2 1.95-5.4 7.05-9.45z"/><path fill="#44af35" d="M40.3 87.45q4.45 4.45 4.45 10.75 0 6.35-4.45 10.8-4.5 4.45-10.8 4.45T18.75 109q-4.5-4.45-4.5-10.8 0-6.3 4.5-10.75Q23.2 83 29.5 83t10.8 4.45"/><path fill="#39992d" d="m14.25 98.2.1-1.45q3.6 6.8 10.15 10.05 6.9 3.4 15.7 2.25-4.4 4.4-10.7 4.4T18.75 109q-4.5-4.45-4.5-10.8"/><path fill="#0d131a" d="m40.65 123.9 2.45.75q-1.4 1.85-3.85 3.25-2.3 1.3-4.85 1.95-.75-1.15-.65-1.8 4.15-.9 6.9-4.15m-15.2 3.2-.1 1.4q0 .85.15 1.4-3.6-1.35-5.7-4.2-1.7-2.3-2.75-6.05l1 .15 1-.05q1.65 4.95 6.4 7.35"/><path fill="#0d131a" d="M4.75 96.3q4.7-4.45 10.75-4.45h.2l-.2 1.9q-5.2 0-8.9 3.7t-3.7 8.9 3.7 8.9 8.9 3.7q3.25 0 6.1-1.55 2.75-1.5 4.45-4.15l2.25-.15q-1.85 3.6-5.3 5.9-3.65 2.4-7.7 2.4-6.05 0-10.65-4.3Q0 112.7 0 106.75T4.75 96.3m41.2 2.4-.55.05-.8-1.85 1.35-.05q6 0 10.35 4.3 4.4 4.3 4.5 10.3.05 6.75-4.35 10.9-4.15 3.95-10.35 3.95-4.15 0-7.8-2.45-3.5-2.4-5.3-6.1 0-2.85.45-4.65.65 4.6 4.2 7.7 3.55 3.15 8.3 3.15 5.2 0 8.9-3.7t3.7-8.9q0-5.25-3.7-8.95t-8.9-3.7m133.7 64.15q4.15-1.9 7.15 1.2 7.5 7.9 14.05 21.5 7.6 15.8 7.1 26.75-.6 12.75-4.5 20.1-3.6 6.7-11.5 11.35l-8.05 4.5q-3.65 2.25-4.2 4.6-.4 1.8 2.45 3.6 2.45 1.5 5 1.9l-2.2 1.5q-1.75-.4-3.7-1.6-1.9-1.2-2.65-2.25-.55-.85-.75-2.15v-1.45q.65-2.5 3.95-5 2.8-2.1 8.9-5.15 6.7-3.35 10.55-11.35 3.9-8.1 4-19.3.15-10.45-6.85-25.6-6.25-13.55-13-20.65-2-2.15-4.95-.8-8.05 3.6-18.3 25.3-10.05 21.25-9.2 31.1.2 2.6 1.4 2.9 4.4 1.15 7.5 3.35 3.05 2.2 4.4 5.25 1.1 2.55.4 6.7-.75 4.25-2.85 6.05-1.45 1.2-1.9 2.05-.55 1-.15 2.05 1.2 3.05 2.55 9.1 1.6 7.35 1.65 12.5 0 1.25 10.9 3.1l.3 1.2.35 1.25q-13.45-2.2-13.45-5.55 0-2.35-1.8-10.95-1.7-8.2-2.55-10.45-.65-1.75.15-3l2.6-2.65q1.5-1.35 2-4.9.45-3.5-.5-5.65-2.15-4.85-11.5-7.3-.75-.2-1-1.35l-.4-3.55q-.85-9.95 9.2-31.65 10.5-22.6 19.4-26.6m15.8 94.8q-1.55-.4-4 2.2-2.15-.9-2-1.05 1.55-1.65 3.35-2.5 1.75-.8 3.05-.5 6.35 1.5 16.45 7.3 8.35 4.8 11.8 7.85 5.35 4.65 4.5 6.7-.35.9-4 1.35l-4.05.3q-.4-.4.1-1.2.45-.7.9-.75 3.35-.2 3.85-.95.7-1.1-2.85-4.25-2.65-2.4-10.8-7.15-10.1-5.9-16.3-7.35"/><path fill="#0d131a" d="M183.35 260.15q3-3 5.4-2.2 5.2 1.7 16.4 8 10.3 5.8 12.7 7.9l4.1 3.65q2.35 2.3 1.9 3.3-.4.85-2.95 1.1l-4.95.3-22.4-.95q-16.25-1.75-17.2-4.85-.85-2.95 1.55-8.25 2.25-4.95 5.45-8m4.8-.45q-1.25-.4-3.5 1.75-2.4 2.35-4.25 6.15-1.95 3.95-1.95 6.7 0 .75.15 1.35 1 1.8 14.9 3.55l22.35 1.15 4.15-.65q1-.9-3.35-4.4-2.45-2-12.25-7.55-11.15-6.4-16.25-8.05M25.8 112.95l1.8.4-.35 2.25q-.9 7.5.4 20 1.9 17.75 7.9 33.45 8.65 22.6 24.25 36.75 15.55 14.2 37.75 19.65 8.4 2.05 13.45-4 2.25-2.7 3.5-6.7 1.2-3.9 1.2-8.3 0-6.1-2.2-11.1-2-4.45-5.3-6.95-3.3-2.45-7.55-2.65-32.85-1.35-51.5-23.45-8.4-10-12.85-23.15-3.95-11.65-3.95-22.95l.1-3 2.3-.55q-1.4 10.5 2.55 23.5 4.3 14.25 13.3 24.95 17 20.1 51.1 21.55 8.35.35 13.5 11.95 3 6.85 2.2 14.95-.8 8.15-4.95 13.1-3.2 3.8-4.95 4.95-3.75 2.35-8.9 1.15-26.25-6.05-44.15-24.25-13.7-13.95-21.15-33.45-6.05-15.9-7.75-34.65-1.15-12.95-.15-21.05z"/><path fill="#0d131a" d="M39.6 88.1q-4.2-4.2-10.1-4.2t-10.1 4.2-4.2 10.1q0 5.95 4.2 10.1 4.2 4.2 10.1 4.2 5.95 0 10.1-4.2 4.2-4.15 4.2-10.1 0-5.9-4.2-10.1M13.25 98.35q0-6.65 4.9-11.4T29.9 82.2q6.9 0 11.8 4.75 4.85 4.7 4.85 11.4T41.7 109.8q-4.9 4.75-11.8 4.75-6.85 0-11.75-4.75t-4.9-11.45"/><path fill="#39992d" d="M190.8 162.35q2.2 1.65 7.3 5.1 4.05 3.05 4.4 4.95.2 1.15-2 3.7-2.25 2.65-5.1 4.55-7.7 5.05-9.25-1.65-1.8-7.85-.35-13.5 1.5-5.75 5-3.15"/><path fill="#e85377" d="M192.25 186.65q-5.6-4.75-3.6-9.75 1.65-4.1 6.95-6.35 3.8-1.65 8.5.3 3.55 1.45 5.35 3.6 2.9 3.5 3.95 11.35 1 7.3-.35 10-1.2 2.5-7.45-.3-6.2-2.75-13.35-8.85"/><path fill="#c94768" d="M192.25 186.65q-4.7-4-4-8.25.55-3.5 4.45-6.25 2.7 11.4 8.5 21-4.4-2.65-8.95-6.5"/><path fill="#44af35" d="M179.75 155.3q14 18.75 12.45 38.8-1.55 20.1-18 31.1-4.75 3.2-13.35 5.5-9.55 2.5-19.1 2.45-25.05-.15-35.2-17.1-12.35-20.6-3.95-43.65 3.4-9.45 9.95-17.7 6-7.6 13.1-12.45 3.15-2.1 8.85-3.45 6.85-1.65 13.9-1.15 19.25 1.35 31.35 17.65"/><path fill="#39992d" d="m179.75 155.3 2.4 3.4q-34.45-12.7-54 1.55-8.3 6-11.8 15.8-3.35 9.5-1.45 20.1 3.95 21.9 22.45 28.35 11.6 4.05 34.15 2.3-5.85 2.95-14.2 4.75-9.4 1.95-18.3 1.5-22.95-1.1-32.45-17-12.35-20.6-3.95-43.65 3.4-9.45 9.95-17.7 6-7.6 13.1-12.45 3.15-2.1 8.85-3.45 6.85-1.65 13.9-1.15 19.25 1.35 31.35 17.65"/><path fill="#44af35" d="M223 21.25q4.9 9.75-1 25.05-6.25 16.05-25.85 33.15-20.65 18.05-43.5 25.65-25.75 8.6-41 4.45-17.4-4.7-17.4-25.45 0-23.3 11.95-44.75 9.15-16.4 20.55-25.1Q140.4 4 163.7 1.9q21.9-1.95 38.55 4.05 15.9 5.7 20.75 15.3"/><path fill="#39992d" d="M218.15 14.9q5.95 5.6 6.9 13.25 1 7.75-3.05 18.15-6.25 16.05-25.85 33.15-20.65 18.05-43.5 25.65-25.75 8.6-41 4.45-17.4-4.7-17.4-25.45 0-1.95 2.45-9.15 2.95-8.55 6.25-13.7-7.55-5.15-2.05-8.65 5-3.15 11.35-1.95 20.45-25.55 51.85-36.3 14.85-5.05 28.6-5.05 14.4 0 25.45 5.6"/><path fill="#c8c09a" d="M216.15 39q-4.2 16-23.15 32.4-19.35 16.75-42.5 26.45-23.5 9.8-36.1 6-6.2-1.9-8.25-8.25-1.95-6.05.25-14.75 5-19.35 23.85-35.7Q170.9 10 207.3 19.8q6.3 1.7 8.55 6.9 2.2 5 .3 12.3"/><path fill="#0d131a" d="M190.25 163.1q-1.15-.85-1.95-.35-1.25.8-1.8 3.9l-1.2-2.75q.8-1.9 2-2.7 1.8-1.3 4.1.4l3.4 2.4q6.15 4.2 7.65 6.2l-3-.45-5.7-4.2z"/><path fill="#0d131a" d="M191.95 187.6q-.15-.8.15-1.4t.75-.25q6 5.1 11.45 7.9 4.9 2.5 7.1 2.1l.8-.55q1.25-2.4.25-9.5-1.05-7.6-3.75-10.85-1.65-2-5.05-3.35-4.3-1.7-7.7-.25-1.9.8-3.5 2.1-1.85 1.5-2.75 3.25l-.5-2.65q2.2-2.8 6-4.45 4.2-1.8 9.5.15 4.1 1.55 5.9 3.75 3.05 3.65 4.1 12.15.95 8-.6 11.1-.7 1.25-2.15 1.55-2.7.55-8.4-2.6-5.45-3-11.6-8.2"/><path fill="#0d131a" d="m198.55 169.8 1.35-.35q4.9 3.65 8.25 9.65 4.1 7.3 5 16.65l-1.35.95q-.85-9.1-5.05-16.9-3.6-6.6-8.2-10m-9.1 7q-3.1-11.05-10.45-20.95-11.9-15.95-30.9-17.2-6.85-.45-13.55 1.15-5.5 1.3-8.35 3.25-17.1 12.25-23.5 30.65-7.5 21.6 4.65 41.9 7.15 11.9 22.45 15.3 11.6 2.6 25.35.1 12-2.2 18.55-6.55 6.95-4.7 11.3-11.4t5.75-15q1.75-10.25-1.3-21.25m-8.95-22.05q7.7 10.35 11.2 22.1 3.65 12.1 1.85 22.6-1.5 8.75-6.55 16.25-5.15 7.55-12.75 12.15-6.7 4.1-19.8 5.85-14.45 1.9-26.55-.8-7.75-1.7-13.25-5.95-4.95-3.85-8.95-10.4-13.45-22.3-4.8-45 6.95-18.35 24.25-30.05 3.4-2.3 9.25-3.7 7-1.75 14.25-1.2 19.45 1.45 31.85 18.15m40.6-108.8q5.55-14.4 1.4-23.6-4.45-9.7-20.6-15.55-16.55-5.95-38.05-4.05-23 2.05-36.5 12.25-11.8 8.95-20.95 25.9-11.25 20.9-11.25 43.2 0 7.25 2.25 12.7 2.3 5.4 6.7 8.6 14.1 10.2 48.25-1.2 22.75-7.55 43.4-25.75 19.35-16.95 25.35-32.5m-4.3-34.5q6.4 4.1 8.65 9.05t1.75 11.75q-.5 6.55-3.5 14.3-6.15 15.85-25.8 33.05-21.1 18.45-44.95 26.4-15.55 5.2-26.55 6.35-15.65 1.65-24.1-4.45-4.65-3.35-7.25-10.45-2.5-6.65-2.5-14.7 0-22.75 11.55-43.8 9.25-16.85 21.4-26.1Q139.3 2.4 163.05.4q22.05-1.9 39 4.2 9.3 3.35 14.75 6.85"/><path fill="#0d131a" d="M211.1 48.65q6.45-11.45 4.6-19.4-1.5-6.65-8.65-8.55-18.15-4.9-37 1.35-18.9 6.25-39.15 23.8-13.4 11.6-20.1 25.95-6.1 13-4.2 21.9 1.55 7.25 8.1 9.25 12.15 3.7 35.2-5.85 23.1-9.55 42.5-26.4 12.3-10.65 18.7-22.05m-3.55-30.45q4.1 1.1 6.9 3.75 2.9 2.65 3.75 6.4 2 8.55-4.85 20.6-6.75 11.95-19.7 23.15-19.85 17.15-43.6 27-23.85 9.9-36.4 6.05-6.95-2.1-8.9-11.05-2-9.55 4.15-22.85 6.8-14.75 20.75-26.8 20.85-18.05 39.95-24.6 19.45-6.65 37.95-1.65"/><path fill="#0d131a" d="M167.85 32.95q0-3.9 3.2-8.15 3.15-4.25 7.65-6.4l1.45.35q-4.25 2.05-7.8 7.1-3.35 4.75-3.35 8.1zm45.95-9.15 1.6 2.45q-19.8 0-32.95 12.9l-1-1q8.85-8.7 20.25-12.3 6.55-2.05 12.1-2.05m-6.4 23.55 5.15-.25-.7 1.65-4.35.2-7.05.4q-4.1.45-6.05 1.55l-.7-1.2q3.45-2 13.7-2.35m-67.5-10.3 1.8-1.5q2.55 1.3 5.3 4.45.55.65-.1 1l-.95-.05q-1.25-1.45-3-2.45zm-21.7 21.5 1.25-2.45q4.2-1.75 4.85-1.95 2.5-.75 7.1-.8.9 0 .5.7t-1.25.8q-4.75.4-7.65 1.5zm-12.9 27.1q3.45-5.05 7.6-8.05 5.3-3.9 14.2-6.7l.4 1.35q-8.45 2.7-14 7.05-4.05 3.2-7.6 8.35zm20.15 7.75q2.8-4 6.2-5.85l.7 1.25q-3 1.6-5.55 5.55-3.15 4.95-2.7 10.2l-1.75-.2q-.5-5.7 3.1-10.95"/><path fill="#44af35" d="M95.7 191.9q3.3-9.45 13.85-15.7 7.9-4.65 14.45-5.35 7.85-.85 12.3 3.6 6.55 6.55 8.8 25.5 1.85 15.8-4.1 25.05-3.6 5.6-11.45 9.9-6.5 3.65-14.05 6.35-4.25 1.95-4.25 6.15 0 3.1 4.25 12.35l5.45 12.35q1.05 3.35-14.7 2.9-12.4-.4-18.05-1.5-1.95-.4-.35-13.35 1.65-12.85 3.4-14.4 4.6-4.05 6.05-7.9 1.55-4.3-1.05-7.65-3-3.9-3.5-15.5-.55-12.7 2.95-22.8"/><path fill="#39992d" d="M139.05 227.6q-3.35 3.95-9.5 7.3-6.5 3.65-14.05 6.35-4.25 1.95-4.25 6.15 0 3.1 4.25 12.35l5.45 12.35q1.05 3.35-14.7 2.9-12.4-.4-18.05-1.5-1.95-.4-.35-13.35 1.65-12.85 3.4-14.4 4.6-4.05 6.05-7.9 1.55-4.3-1.05-7.65-2-2.6-2.95-9.6-1.05-7.35-.3-15.35 2.95 16.85 15.1 23.2 12.7 6.65 30.95-.85"/><path fill="#e85377" d="M106.8 271.55q1.7-5.9 6.05-11.25 4.2-5.25 5.85-3.9 10.8 8.95 14.7 20.6 3 8.9 1.1 13.05-5.2-2.35-13.45-7.95-7-4.8-14.25-10.55"/><path fill="#c94768" d="M106.8 271.55q1.15-4 3.8-8.15 2.45-3.8 4.9-5.9 1.95 8 6.5 15.8 2.75 4.65 11 16.05-10.1-5-26.2-17.8"/><path fill="#e85377" d="M99.3 256.3q4-.2 6.6 4.5 1.95 3.55 3.55 10.8 2.6 11.75-5.4 25-7.05-4.35-12.4-10.2-3.4-3.65-7.6-9.85-3-4.4 3.3-12.3 6.1-7.65 11.95-7.95"/><path fill="#c94768" d="M93.15 258.75q-.15 8.8 2.2 18.45 1.9 7.95 5.9 17.55-5.8-4-10.45-9.3-2.8-3.2-6.75-8.9-2.2-3.25 1.05-9 2.95-5.3 8.05-8.8"/><path fill="#0d131a" d="M110.35 177.1q-10.05 6.15-13.75 15.15-4.4 10.75-3 24.05 1.05 10.2 3.4 13.35 1.8 2.35 1.8 5.1 0 5.65-6.9 11.7-.9.85-1.9 6.05-.95 4.7-1.5 10.35l-2.85 2.85q.55-7.5 1.4-11.95 1.3-6.3 3.6-8.7 3.9-4.05 5.15-6.45 2.3-4.35-.3-7.8-4-5.4-4.9-16.25-1-12.05 3.1-22.05 4.55-11.05 15.5-17.4 7.55-4.4 14.7-5.2 8.55-.9 13.35 3.85 6.8 6.6 9.05 25.55 1.9 16.55-4.25 26.5-3.65 5.8-11.1 10-2.9 1.6-6.75 3.1l-5.3 1.95q-4.15 1.65-5.2 2.6-1.5 1.25-1.5 3.95 0 1.25 1.6 4.2l2.9 5.65-2.1 1.5-2.9-6.4q-1.4-3.3-1.4-4.95 0-3.5 2.05-5.3 1.35-1.2 5.9-3 6.15-2.4 10.85-5 7.25-4 10.75-9.65 5.8-9.35 3.95-25.15-2.1-17.9-7.8-23.95-4.05-4.35-11.9-3.6-6.05.65-13.75 5.35"/><path fill="#0d131a" d="m110.2 275.4-.15-2.5q5.3 4.1 12.75 8.9l10.05 6 1 .15q.3-.3.25-1.55-.1-5.8-3.15-12.7-4.15-9.5-12.5-16.4-.55-.45-4.1 3.4-3.8 4.15-5.4 7.75-.7-1.6-.8-2.7-.1-1.3 3.55-5.55 3.7-4.25 5.5-4.85 1.25-.35 2.1.3 10.75 9 14.75 17.8 3.4 7.55 2.25 16.1-.2 1.65-1 1.6l-2.8-.95q-2-.75-9.3-5.6-7.25-4.8-13-9.2"/><path fill="#0d131a" d="M106.2 263.05q-1.55-3.85-2.4-4.7-1.3-1.35-4.45-1.15-3.3.25-7.5 3.75-4.25 3.55-6.4 7.95-1.3 2.5-1.3 4.65 0 1.4.7 2.45 6.1 9.1 12.65 14.85 3.95 3.45 6.25 4.4.8.35 2.9-5.8 2-6.1 2.1-8.8.15-3.05-.55-8.4-.75-6.15-2-9.2m.65-2.95q1.8 3.4 3.55 11.3 1.3 6.05.3 13.1-1.05 7.15-4 11.7-1.45 2.25-2.15 2.25-.35 0-2.7-1.5-6.6-4.25-12.2-10.65-4.7-5.4-6.35-9.25-1.35-3.05-1.15-4.75.1-1.25 1.6-4.25 2.3-4.6 7-8.55 4.95-4.15 8.95-4.35 4.45-.25 7.15 4.95"/><path fill="#e85377" d="M118.85 185.4q-2.4-6-1.55-13.6.65-6 4.5-10.4 3.35-3.9 7.55-5 4.3-1.1 10.15 1 5.75 2.05 7.45 5.1 3.9 6.9-3.1 16.3-6.35 8.6-15.05 11.75-6.9 2.45-9.95-5.15"/><path fill="#c94768" d="M143 159q-7.15.25-13.65 3.05-6.65 2.8-11.75 7.85 1.1-5.25 4.7-9.1 3.25-3.4 7.05-4.4 2.9-.75 6.85.05 3.75.8 6.8 2.55"/><path fill="#e85377" d="M119.05 45.15q-2.65 6.7-8.5 9.9-5.55 3.05-10.45 1.3-4.7-1.7-6.1-7.2-1.4-5.55 1.2-11.9 2.65-6.45 7.65-9.65 4.4-2.85 8.55-2.2 5.65.9 8 6.7 2.4 5.95-.35 13.05"/><path fill="#c94768" d="M107.6 47.85q2.75-3.2 5.45-4.25 3.5-1.3 5.9 1.75-2.65 6.6-8.5 9.75-5.5 3-10.35 1.25-3.35-1.2-5.1-4.55l5.8.2q4-.9 6.8-4.15"/><path fill="#eee4b7" d="M169.4 32.8q9.85.5 21.3 13.45 7.35 8.25 12.1 17.05 3.05 5.6 3.6 11.55.7 7.55-3.8 10.2-8.15 4.15-10.2 5.85-2.9 2.5-2.6 8.25.25 4.85-4.75 7.55-4.7 2.55-11.4 1.85-2.1 2.1-3.7 7.65-1.2 4.2-1.9 9.15 2.65 3.5 8.65 5.75 3.05 1.15 9.3 2.55l10.25 1.25q7.25 1.15 10.7 4.45 3.75 3.6-1 7.3-4.2 3.25-8.5 3.15 12.2 9.5 8.2 14.9-3.35 4.55-12.95 3.45-6.5-.7-13-7.05-2.4-2.35-9.85-11.75 1 10.85-3.15 16.05-4.15 5.1-12.95 4.1-7.8-.9-9.4-10.95-1.3-8.25 1.55-15.5-13.75 11.9-24.75 13.3-8.45 1.05-13.15-3.9-3.55-3.75-1.65-7.25 1.8-3.3 7.95-5.5-8.25-.95-9.25-5.55-.95-4.3 4.55-7.2 3.25-1.75 15.8-2.1l19.8-.6q2.3-2.05 3.35-5.3.95-3.05.9-7.7 0-3.5-2.8-7.05-2.65-3.4-9.05-8.4-5.45-4.25-8.8-15.85-2.6-9.2-2.4-14.65.1-2.45 4.65-7.95 4.6-5.45 11.2-11Q158.9 32.3 169.4 32.8"/><path fill="#c8c09a" d="M132.8 134.6q-3.5 2.1-9.95 4.35-7.35 2.5-9.15 3.4-4.1 2-4.7 4.7-.7 3.2 3.25 8.3-2.5-1.05-4.25-2.9-3.55-3.75-1.65-7.25 1.8-3.3 7.95-5.5-8.25-.95-9.25-5.55-.95-4.3 4.55-7.2 3-1.65 15.5-2.2l20.1-.55q-1.65 2.6-4.55 5.05-2.9 2.4-7.85 5.35m59.9 33.55q-6.1-.7-12.15-6.25-3.3-3.05-9.35-10.85 7 6.3 15.25 10.2 8.55 4.1 17.35 5.1-2 1.25-5.1 1.7-2.9.45-6 .1M148.25 162q2.75 5.1 12 7.25l-6.5.25q-6.15-.7-8.6-6.75-2.55-6.4-.35-17.5 1.65 13.35 3.45 16.75m59.3-16.95q-1.35 1.75-4.15 3.15-2.55 1.2-4.9 1.5l-7.15-3.65q-4.85-2.45-6.35-4.45 3.35.55 9 3.05z"/><path fill="#922f00" d="M170.9 81.75q1.3.95 15.45-2.35 14-3.2 16.05-1.2 1.25 1.25-.7 3.05-2.05 1.9-8.95 5.6-4.45 2.45-5.95 6.7-.7 2.2-.7 4.3-18.25-18.25-15.2-16.1"/><path fill="#c8c09a" d="M166.95 107.85q.65-1.25 6.4 1.1-1.85 2.15-3.35 7-1.15-.2-2.25-3-1.1-2.85-.8-5.1M181.2 37.5q-9.9.9-19.2 6.3-9 5.2-15.45 13.5-6.6 8.4-9.05 18.15-2.6 10.35.1 20.35-5.45-4.25-8.8-15.85-2.6-9.2-2.4-14.65.1-2.45 4.65-7.95 4.6-5.45 11.2-11Q158.9 32.3 169.4 32.8q5.55.25 11.8 4.7"/><path fill="#ed8599" d="m169.05 81.45 4 .5q4.4.3 6.45-.75 3.05 2.8 4.65 5.55 2.45 4.15 2.25 9.1-.2 4.75-2.6 6.45-2.4 1.75-5.4-.9-2.3-2.05-5.35-10.4-3.15-8.65-4-9.55"/><path fill="#ce7486" d="M179.5 81.2q2.85 2.6 4.4 5.15 2.35 3.8 2.5 8.3-2-2.8-5.95-3.25-3.9-.4-6.55 1.8l-2.65-7.15q-1.4-3.7-2.2-4.6l4 .5q4.4.3 6.45-.75"/><path fill="#8a969d" d="M165.55 63.9q-.45 2.2-1.95 3.65t-3.15 1.25q-1.6-.2-2.45-1.9t-.35-3.9q.5-2.25 1.95-3.7 1.5-1.45 3.15-1.25 1.65.25 2.45 1.95.85 1.7.35 3.9"/><path fill="#fff" d="M167.95 54.65q0 1.6-1.15 2.7-1.15 1.15-2.75 1.15-1.65 0-2.8-1.15-1.15-1.1-1.15-2.7t1.15-2.7 2.8-1.1q1.6 0 2.75 1.1 1.15 1.15 1.15 2.7"/><path fill="#0d131a" d="m138.3 150.7 2.45-.1q0 .25-1.9.95-3.95 1.2-5.95 1.95-3.55 1.35-4.25 3.15l-1.75 1.05q-1.6.7-.7-1.25 1-2.05 5-3.75 3.25-1.35 7.1-2"/><path fill="#0d131a" d="M121.2 191.35q-3.2-2.5-4.4-9.15-1-5.35-.45-10.5.7-6.15 4.65-10.8 3.55-4.2 8.1-5.4 3.1-.8 7.4.1 4.15.9 7.4 2.85l.7 2.75q-2.7-2.25-7.05-3.45-4.6-1.3-7.95-.45-4.05 1.05-7.25 4.85-3.5 4.15-4.15 9.75-.45 4.6.4 9.2 1.1 5.8 3.85 7.95 2.4 1.85 6 .6 5.1-1.85 10.3-6.6 5.6-5.15 7.65-10.65 1.15-3.15.85-5.95.75.85 1.9 1.7-.1 2.5-1 4.9-2.25 6-8.2 11.65-5.6 5.25-11.1 7.2-2.4.85-4.15.8-1.95-.1-3.5-1.35"/><path fill="#0d131a" d="M129.7 163.85q1.55-2.75 3.55-4.75 2.65-2.7 4.85-2.65l-.05 1.4q-1.4-.05-3.2 1.65-1.8 1.75-3.55 4.8-3.75 6.35-5.4 14.1-1.8 8.35.4 12l-1.6.1q-2.5-4.2-.5-12.85 1.75-7.4 5.5-13.8M92.35 45.05q.3-4.15 1.95-8.15 2.75-6.65 8.05-10.1 4.8-3.15 9.35-2.4 5.75.95 8.2 5.2 1.8 3.2 1.9 7.65t-1.5 8.6q-2.8 7.15-9.35 10.8-6.15 3.45-11.35 1.6-4.35-1.65-6.2-5.8-1.35-3-1.05-7.4m3.7-7.45q-1.45 3.55-1.6 6.95-.15 3.45 1.1 6.15 1.55 3.6 4.85 4.75 4.55 1.65 9.75-1.2 5.55-3.05 8-9.45 1.45-3.7 1.4-7.3-.1-3.65-1.7-6.45-2.25-4-6.6-4.7-3.95-.65-8.1 2.15-4.6 3.1-7.1 9.1"/><path fill="#0d131a" d="M104.7 39.5q-.9 1.45-2.05 1.9t-1.85-.35q-.7-.75-.4-2.5.25-1.65 1.2-3.1.9-1.4 1.9-1.75 1.05-.35 1.75.45t.55 2.35q-.15 1.6-1.1 3m64.55-5.75q-1.65-.3-1.9-.95t2-.4q12.4 1.35 23.75 14.4Q199 53.6 204 63q3.4 6.25 3.9 12.2.65 7.55-4.2 10.35l-5.55 3q-5.25 2.75-6.3 4.15-1.35 1.7-1.1 6.4.1 2-.5 3.9-.7 2-2.05 3.35-2.15 2-6.05 2.8l-8.05.35q-1.75 1.95-3.2 6.75-1.15 3.95-1.85 8.8 4.45 4.3 10.05 6.1 3.25 1 11.95 2.2l9 1q5.45.95 8.15 3.65.55.55 1 1.85.5 1.45.4 2.55-.35 2.85-3.65 5.15-2.5 1.75-6.25 2.9 5.25 4.4 6.95 6.75 2.75 3.95.9 7.45-1.6 2.9-6.1 4.1l-8.65.5q-6.25-.7-12.4-6.25-3.7-3.3-9.45-10.75.5 19.1-13.95 19.4-7.75.2-11.95-6.15-1.55-2.45-1.8-8.05-.3-6.05 1.15-12.45-12.6 10.25-23.4 12-9.6 1.6-14.75-3.8-1.4-1.5-2-3.55-.55-1.9-.25-3.5.35-1.85 2.1-3.3 1.7-1.4 5.05-2.8-2.95-.75-5-2.6-1.95-1.8-2.35-3.9-.7-3.65 2.9-6.2 4.1-2.9 12.6-3.3l12.95-.3 12.3-.65q1.9-1.8 3-4.9 1.05-3.1 1-6.75-.05-3.35-3-6.9-2.55-3.1-9.15-8.4-5.75-4.55-8.25-12.2-2.3-7.05-2.3-18.15 0-2.7.55-2.5t.6 2.4q.1 9.55 3.15 17.55 3.05 7.8 8.05 11.8 6.35 5.05 8.95 8.3 3.25 4 3.25 7.9.05 4.6-1.05 7.8-.9 2.55-2.8 4.95-4.35 5.4-4.7 4.15-.1-.6.65-1.8l.75-1.1-10.95.4-13.15.45q-6.85.45-9.1 1.65-4.4 2.35-3.7 5.75.45 2.1 3.35 3.75 2.5 1.4 4.7 1.5 4.2-.75 10.7-3.5 3.95-1.65 2.85-.35-1.4 1.65-5.9 3.25l-7.45 2.45q-3.25 1.15-5.35 2.75-2.1 1.65-2.5 3.4-.6 2.4 1.95 5.05 1.05 1.1 3.75 2 3.6 1.2 7.85 1 12.2-.55 24.55-12.2 1.05-3.95 2.3-6.05 1.3-2.15.25 3.15-1.7 8.8-2 13.1-.5 7.8 1.85 11.5 2.7 4.15 8.35 4.4 7.05.4 10.25-3.75 3.55-4.6 3.1-15.55-.25-5.55.7-5.1.95.4 1.2 4.3 4.7 7 9.55 11.65 6.6 6.3 12.4 6.95 4.15.5 7.7-.5 3.95-1.05 4.85-3.4 1.05-2.55-3.4-7.65-5.2-5.9-15.6-11.9-5.05-2.9-6.4-4.55-1.35-1.55.95-.35 6.95 3.65 16.55 10 3.75-.65 7.1-3.25 4.1-3.2 1.5-6.1-2.3-2.55-7-3.35l-8.2-.9q-9-1.2-12.35-2.25-5.65-1.7-9.7-5.7-.2 4.5-1.25 3.65-1.25-.95-.45-7.85.9-8.05 4.8-13.65-3.6-.65-5.45-1.65-1.15-.6 1.65-.55l5.65.35 6.85-.55q4.3-.9 6.15-2.7 2.25-2.1 2.1-5.15-.25-5.3 1.8-7.85 1.45-1.75 6.6-4.5l4.85-2.65q4.2-2.45 3.35-9.7-.65-5.55-3.45-10.75-4.4-8.1-11.05-15.65-11.1-12.65-21.7-14.35"/><path fill="#0d131a" d="M197.6 83.45q2.7-1.25 3.95-2.7 1.1-1.2.65-1.85-.9-1.3-6-.55l-5.8 1.35-8.9 2.15q4.15 4.15 5.3 8.95 1.45-2.05 4.75-4.1zm-18.3-1.15-8.45.4 2.3 5.8q2.85 8.05 5.5 11.2.9 1.05 2.25 1.45l2.35-.05q1.1-.45 1.7-2.35.55-1.65.55-3.6-.05-3.55-2.1-7.35-1.7-3.3-4.1-5.5m-7.95 6.85q-1.8-5.25-3-7.05-.75-1.2-.75-1.6l2-.1q3.9 1.25 11.4-.25l8.95-2.25 6-1.4q4.9-.75 6.9.95 1.3 1.15.25 2.9-1.15 1.9-4.8 3.95-6.1 3.45-8.5 5.95-2.45 2.55-2.45 5.65-.2 5.65-3.85 7.2-2.7 1.25-5.75-1.45-1.7-1.5-3.5-5.2-1.2-2.6-2.9-7.3m-2.3-28.45q-1.25 4.4-4.05 6.9-2.8 2.55-5.55 1.8-2.7-.8-3.75-4.4-1.05-3.65.2-8.05 1.25-4.35 4.05-6.9 2.75-2.55 5.5-1.8 2.75.8 3.8 4.45 1.05 3.6-.2 8"/><path fill="#0d131a" d="M163.15 68.4q3.75-2.1 5.45-7.85 1.15-4.15.2-7.65t-3.5-4.2q-2.5-.7-5.15 1.75t-3.8 6.65q-.8 2.65-.65 5.2.15 2.5 1.15 4.3 1.05 1.8 2.75 2.35 1.7.45 3.55-.55m6.5-15.95q1.15 3.8-.15 8.35-.8 2.85-2.4 5.1-1.55 2.2-3.5 3.3-2.25 1.25-4.25.65-2.1-.6-3.3-2.8-1.1-1.95-1.25-4.65t.65-5.55q1.3-4.55 4.25-7.2 3-2.65 5.9-1.85 2.9.85 4.05 4.65"/><path fill="#8a969d" d="M164.6 64.85q-.35 1.8-1.6 2.95-1.2 1.15-2.55 1-1.3-.15-1.95-1.5-.65-1.4-.3-3.2.4-1.8 1.6-2.95 1.2-1.2 2.5-1.05 1.35.15 2 1.55.7 1.4.3 3.2"/><path fill="#fff" d="M167.95 54.65q0 1.6-1.15 2.7-1.15 1.15-2.75 1.15-1.65 0-2.8-1.15-1.15-1.1-1.15-2.7t1.15-2.7 2.8-1.1q1.6 0 2.75 1.1 1.15 1.15 1.15 2.7"/></svg>