<svg xmlns="http://www.w3.org/2000/svg" width="297" height="157" viewBox="-0.35 -4.55 296.75 157.25"><path fill="#dbdcdc" d="M28 98.1q-8.7-2.65-17.1-8.1-7.75-5.05-5.95-5.05 3.9 0 10.2-1.25z"/><path fill="#fff" d="M25.25 73.3 21.3 88q-7.65-.8-14.6-6.25L1.25 76.4l8.5-.65q9.65-.9 15.5-2.45"/><path fill="#dbdcdc" d="m1.25 76.4 1.05-.05Q10.9 82.2 22.65 83l-1.35 5q-7.65-.8-14.6-6.25z"/><path fill="#dbd5ca" d="M255.2 49.5q-1.1-5.1-7.15-9.45-5.7-4.15-13.65-6.1-8.15-2.05-15.25-.9-7.8 1.2-11.95 6-7.35 8.55-15.65 5.6-3.55-1.25-5.55-4.4-2.1-3.25-1.7-7.45.4-4.6 6.25-11.2 6.3-7.15 15.5-12.35 24.2-13.8 49.15-4.6 24.55 9.05 34.4 32.9 4.3 10.4 4.4 21.25.1 10.75-3.9 19.4-8.25 17.7-23.9 28.75-17.6 12.3-47.5 18.65-24.8 5.25-55.2 5.15l-23.7-.4q-13.45-.2-22.5.45-13.8 1-41.1 8.05-10.8 2.75-15.65 3.45-7.05 1.05-10.25-.55-8.5-4.3-10.75-6.9-3.45-4.05-.55-10.45 1.15-2.55 14.05-9.7 12.95-7.15 24.8-11.75-9.35-3-25.65-2.3-8.45.35-12 .2-6.55-.2-11.6-1.85-3.8-1.2-6.75-6.6-4.15-7.55.95-16.35 2.4-4.15 14.25-7.6 13.1-3.8 16.35-6.75 1.75-1.6 6.2-7.75 5.65-7.85 8.85-11.65Q81.5 26.6 95 22.85q15.1-4.2 42.15 1.95 30.1 6.8 49.75 22.1 19.55 15.2 29.45 20.45Q224 71.4 230.2 71.4q10 0 17.6-4.7 9.85-6.1 7.4-17.2"/><path fill="#b3aea6" d="M97.25 91.2q3.65-.8 26-8.25-4.45 5.75-21.95 12.15-18.9 6.1-23.45 7.85-9.35-3-25.65-2.3-8.45.35-12 .2-6.55-.2-11.6-1.85-3.8-1.2-6.75-6.6-4.15-7.55.95-16.35-.95 5.25 1.9 10.6 3.25 6 8.9 5.85 4.15-.1 18.35-3.45 14.15-2.35 22.5 1.35 9 3.95 22.8.8m109.45 26.9q13.05-.1 23.8-2 31.6-5.5 53.7-27.45-8.95 13.3-23.95 22.05-16.3 9.55-41.55 14.9-24.8 5.25-55.2 5.15l-23.7-.4q-13.45-.2-22.5.45-13.8 1-41.1 8.05-10.8 2.75-15.65 3.45-7.05 1.05-10.25-.55-1.45-.75-1.75-2.95-.25-2.1.6-4.25.9-2.2 2.5-2.95 1.85-.85 4 .7 4.25 3.1 8.3 2.5 2.7-.4 11.05-4.1 21.3-9.4 49.95-11.55l29.1-1 34.75-.2zm40.7-93.5q8.4 3.7 13.1 12.45 4.9 9.05 2.55 17.8-1.25 4.6-5.05 9.6-4 5.2-9.25 8.7-12.9 8.7-23.75 1.95l-3.8-2.6q-1.85-1.45-3.1-3.35l-.95-1.4q4.15 2.1 7.45 2.95l5.6.7q10 0 17.6-4.7 9.85-6.1 7.4-17.2-1.1-5.1-7.15-9.45-5.7-4.15-13.65-6.1-8.15-2.05-15.25-.9-7.8 1.2-11.95 6-3.4 3.95-7.5 5.45-3.7 1.35-7.25.45 6.05-16.9 22.3-22.45 15.6-5.4 32.65 2.1"/><path fill="#806047" d="M130.45 25Q120 26.85 110.1 33.15 92.3 44.45 77.55 68.4q-1.15-2.1-.85-6l.55-3.45-3.45 3.2q-3.5 3.35-3.9 4.1-.6 1.25 1.85-8.85l-4 4.6 7.75-13.4q8.25-14 10.9-16.9 4.2-4.45 5.55-6.95 2.3-4.2 2.1-10.15l4 8.85-.65-11.6 9.2 6.4-4-10.7 1.85 2.25q2.4 2.75 5.25 5.05 9.2 7.45 19.55 8 1.5 1.25 1.2 2.15"/><path fill="#806047" d="M166.85 39q-8 1.05-17 4.25Q124.7 52.3 107.5 72.4q-.55.2-.8-1.9l-.1-2.1-7.95 8.6 1.55-9.5-5.55 3.35q4.15-6.65 11.05-14.7 13.75-16.15 27.5-23.2-.2-1.7-3.15-8.05l-2.95-6 8.85 4.55-2.15-7.65 5.05 2.95q5.35 3.3 6.9 5l.3-5.5 4.9 5.8q5.15 5.9 6.4 6.45 8.55 3.65 18.35 8.55-2.05-.95-8.85-.05"/><path fill="#fff" d="M41.2 125.75q5.1-1.7 8.6 5.45l-13.45 12.3-1.75.9-7.45 4.15q.4-6.25 5.6-14.15 4.85-7.4 8.45-8.65"/><path fill="#dbdcdc" d="m48.9 129.55.9 1.65-13.45 12.3-1.75.9-7.45 4.15q.1-1.3.35-2.45 3.35-5.55 9.15-9.9 5.4-4.1 12.25-6.65"/><path fill="#fff" d="M52.65 130q5.5 1.3 6.25 6.25.7 4.7-2.6 5.85-4.75 1.65-12.2 4.65-8 3.25-10.85 4.8 1.95-9.6 8.85-16.4Q48.3 129 52.65 130"/><path fill="#dbdcdc" d="M47.7 140.4q5.2-4 10.75-5.75.95 2.3.25 4.6-.65 2.25-2.4 2.85-7.7 2.65-17.55 6.9 4.7-5.35 8.95-8.6"/><path fill="#0d131a" d="M8.15 85.15q-1.9-.05-1.75.5.4 1.1 5.65 4.25 6.4 3.8 13.2 5.85l2.55 3.1q-8.75-2.65-14.15-5.45-5.2-2.75-10.15-7.1-1.45-1.25-.6-1.95.6-.5 2.2-.65l2.2.1h2.25l1.65 1.35z"/><path fill="#0d131a" d="M3.75 74.65q3.8.4 8.85 0 6.2-.5 12.45-2.1l-.85 2.35q-4.55 1.65-11.85 1.75l-9.3-.1q1 2.45 5.4 5.55 5.45 3.85 11.65 4.45l1.1 2.25q-8.15-.8-13.6-4.75Q4.8 82 .65 76.85q-1-1.2-.45-1.8.6-.75 3.55-.4"/><path fill="#0d131a" d="m92.75 22.5-.7 2.35q-9.3 3.6-18.35 13-5.1 5.3-12.9 16.05-4.9 6.85-6.75 8.5-2.35 2.15-6.7 3.85L39 68.9q-6.5 1.85-9.25 3.05-4.6 2-6.1 4.6-4.2 7.25-1.75 13.65 1.25 3.15 3.85 5.65 1.95 1.85 3.15 2.2 4.8 1.55 10.9 1.8 3.8.2 11.3-.15 8.8-.35 13.15-.1 7.55.4 13.9 2.45l.05 1.85q-12.25 4.7-25.15 11.95-12.15 6.75-13.15 8.95-.75 1.75-1.05 3.15Q37.15 129 36 130q.1-3.15 1.45-6.15 1.2-2.7 13.75-9.5 11.6-6.3 23.5-11.2-5.45-1.35-11.95-1.65-4.1-.15-11.55.15l-11.85.3q-6.6-.15-11.55-1.75-1.7-.5-3.95-2.7-2.75-2.7-4.05-6.15-1.45-3.8-1.25-7.7.25-4.25 2.5-8.1 1.75-3.05 7-5.25 2.6-1.05 10.4-3.3l8-2.55q4.2-1.6 6.25-3.5 1-.9 2.8-3.7l3.35-5.35q7.7-11.35 13.35-16.95 9.35-9.25 20.55-12.45m182.5-4.3q-8.7-8.35-20.35-12.65Q239.85 0 224.35 3.3q-10.75 2.25-20.4 8.35-7.95 5-13.3 11.4-5 5.9-5.35 9.85-.35 3.55 1.3 6.45t4.7 4.15q3.25 1.4 7 .4 4.45-1.15 8.15-5.5 4.6-5.3 14.05-6.6 8.15-1.15 16.15.9 7.4 1.9 12.9 6.25 6 4.65 7.2 10.35.9 4.1.3 7.3-.6 3.25-2.9 6.05-3.9 4.85-11.95 7.55-6.35 2.15-12 2.15-6.6 0-14.9-4.45-9.75-5.3-29-20.25-12.8-9.9-27.05-15.5l-1.7-1.55-1.85-1.4q21 7.55 32.55 16.5 20 15.55 28.8 20.35 6.35 3.45 11.9 3.45 6.5 0 12.35-1.6 7.3-2 10.45-5.9 4.1-5.05 2.5-12.3-1-4.6-6.45-8.65t-13.35-6.1q-7.6-1.9-14.35-1.05-8 1-12.15 5.8-4.2 4.9-9.3 6.15-4.35 1.1-8.15-.5-6.5-2.8-7.2-12.65-.3-4.65 4.75-11.05 5.25-6.7 14.05-12.3 9.7-6.1 21.5-8.35 16.3-3.05 31.95 2.7 12.2 4.5 21.65 13.25 9.65 9 14.45 20.55 4.4 10.6 4.6 21.8.15 11.2-3.95 20.1-8.55 18.5-26.7 29.95-17.5 11-46.65 17.2-18.7 4-36.15 5.15-12.5.85-30.6.45l-17.3-.4q-10.45-.15-16.9.3-16.35 1.2-39.45 7.2L64.4 143.3q-7.15 1.8-10.3.35l2.3-1.9q3.55-.15 9.5-1.45l12.15-3 16.8-4.55q10.1-2.5 19-3.15 6.7-.45 17.2-.4l17.6.35q20.65.4 32.25-.15 19.55-.95 37.6-4.75 28.15-6 45.2-17.25 17-11.3 25.5-29.6 3.95-8.6 3.8-19.2t-4.35-20.8q-4.7-11.3-13.4-19.6"/><path fill="#0d131a" d="M116.25 89.6q-4.15 2-18.95 7.25l-18.65 6.85-2.7.05 1.65-1.5 18.55-6.95q22.45-7.95 27.3-13.25 1-1.1 1.25-.75.2.4-.6 1.9-1.9 3.55-7.85 6.4m12.85-67.55.4 2.3-.6-.75q-7.65-.5-14.75-4.65-4.95-2.95-9.2-7.4l1.35 4q.6 1.8 1.05 2.45.8 1.1.8 1.7 0 .75-1.75-.3l-4.35-3.1-3.75-2.9.4 5.1.15 4.9q-.15 1.6-.6 1.6-.45.05-.95-1.2l-2.55-5.75q-.45 4.6-1.5 6.9-.75 1.8-2.7 3.7-5.2 5.05-13.25 17.9-8.2 13.05-5.85 10.5 1.35-1.4 1.6-1.05.25.3-.55 1.6-.6 1-.9 3l-.5 3.1q.9-.9 3.05-2.85l2.55-2.5q1.05-1.15 1.4-1 .4.2-.1 1.75-.4 1.45-.4 4.25-.05 2.4.15 3.25 9.8-15.55 21.05-25.75 14.7-13.3 30.75-16.45l.9 2.95q-16.15 3.1-31.9 17.05-12.6 11.15-20.35 24.45-.85 1.5-1.25 1.5-.45.05-.6-1.6L76 65q-.15-2.3.05-3.9-2.4 2.2-5.45 5.55-1.2 1.25-1.5 1.15t-.05-1.45q.4-2.75 1.15-5.95l-1.85 2.1q-.7 1.05-1.35.85-.7-.15.05-1.75Q70.55 54 75.9 45q6.6-11.2 11.75-16.9 2.45-2.7 3.65-5.1 1.75-3.6 1.95-8.4.1-2.35.4-2.25l1.15 1.9 2.2 5-.7-5.65q-.3-3.15.65-3.25t3.65 2.15l4.35 3.65-1.45-3.25q-.75-1.55-1-3-.25-1.5.25-1.85t1.4.65q2.95 3.2 7.75 6.4 8.45 5.65 17.2 6.95"/><path fill="#0d131a" d="m132.2 22.45-3.3-1.75 3.2 6.35q1.85 4 1.9 5.8 0 1.75-.75 1.75l-.75-.4q-18.1 9.3-35.15 34.1l3.9-2.4-1.4 8.65 3.25-3.9 2.9-3.35 1.3-.05.1 1.15.2 2.7q14.85-17 35.95-26.15 15.7-6.8 27.95-7.1-7.9-3.8-14.45-6.65-1.7-.7-10.35-10.85-.1 2.75.2 4.8t-1.75-.85q-1.3-1.85-10.05-6.85l1.6 5.8.8 2.65q-.05.25-1.9-1.15-1.7-1.35-3.4-2.3m43.85 15.9 1.15 2.1q-3.3-1.55-13.55.55-9.45 1.95-16.85 5.15-18.3 7.95-31.3 19.45-8.8 9.15-9.1 8.3-.35-1-.4-1.85l-.1-1.7-4.65 5.45q-3.35 3.9-3.8 3.65-.4-.25.45-4.5l1.2-5.9q-2.6 1.35-4 2.5l-1.75 1.1q-.55 0 .65-2.2 4.45-8 11.15-16.25 12.3-15.15 26.05-22.4-.35-1.6-2.25-6.3l-2.55-6.25q-1.45-3.8 1.8-1.5 4.8 3.3 6.5 4.15l-1.65-5.85q-.5-1.5-.05-1.55.3-.05 2 .95l4.5 2.7 5.55 3.9q.05-.9-.3-2.2l-.7-2.75q-.6-3 2.6.65 9.9 11.55 11 12 8.5 3.65 18.4 8.6M40.9 124.3q5.55-1.85 9.55 6.15l-2.2.7q-1.7-3.3-3.1-4.35-1.5-1.05-3.7-.3-3.05 1.05-7.5 7.5-4.85 7-5.85 13.1l6.3-3.5 1.65-.8.6 1.45-9.1 5q-1.5.8-1.85.25-.2-.35.05-1.45 1.95-8.2 6.85-15.55 4.6-6.9 8.3-8.2"/><path fill="#0d131a" d="M56.05 141.35q.95-.35 1.55-1.45.6-1.15.6-2.55V137q-.45-5-5.75-6.2-2.25-.55-6.05 1.9-3.65 2.3-6.75 6.5-3.65 4.95-5.2 10.85 3.8-1.8 10.7-4.55 6.75-2.75 10.9-4.15m-3-12.55q3.4.75 5.6 3.5 1.95 2.4 2.05 4.9.1 1.95-1.25 3.6-1.2 1.45-2.9 2.05-3.45 1.2-11.65 4.65l-11.3 4.75-1.65.45q-.35-.1-.1-1.3 1.1-5.2 5.25-11.7 4.1-6.4 7.9-8.85 2.05-1.3 4.35-1.85z"/><path fill="#dbd5ca" d="M168.1 52.3q7.15 2.75 10.1 6.9 4.45-7.95 16-12.35 5.75-2.15 10.65-2.75l-4.15 12.15q1.85-2.95 11.05-6.1 4.6-1.55 8.8-2.5l-3.25 3.45q-3.75 4.2-5.95 8.1 3.15-1.5 7.5-1.65l3.75.15-.85 1.3-1.5 2.85q7.7 2.55 14.3 9.8 7.85 8.6 10.25 20.4 3.5 16.95-6.95 29.1-11.05 12.95-33.6 14.75-26.6 2.1-41.6-6.35-13.45-7.6-15.55-22.4-1.5-10.55 4.6-24.05 1.85-4.25 4.3-8.25l2.05-3.2q-1.2-.9-3.3-1.85-4.2-1.85-8.85-2 5-3.55 12.5-3 3.7.25 6.45 1.2l-5.55-6.05q-6.2-6.55-9.55-8.75 9.3-2.35 18.35 1.1"/><path fill="#b3aea6" d="M169.7 68.35q-2.95 3.15-5.3 6.85-4.55 7.15-5.85 18.35-1.05 8.95.6 14.7 2.2 7.8 10 15.3 7.75 7.4 20.3 9.4 8.5 1.4 27.35.8-5.95 1.65-12.55 2.15-26.6 2.1-41.6-6.35-13.45-7.6-15.55-22.4-1.5-10.55 4.6-24.05 1.85-4.25 4.3-8.25l2.05-3.2q-1.2-.9-3.3-1.85-4.2-1.85-8.85-2 5-3.55 12.5-3 3.7.25 6.45 1.2l-5.55-6.05q-6.2-6.55-9.55-8.75 2.25-.6 11.8 6.5 9.9 7.3 8.15 10.65m29.65-9.05q-2.7 2.05-3.65 1.1-1.15-1.15 3.9-8.85 2.5-3.85 5.25-7.45l-4.15 12.15q1.85-2.95 11.05-6.1 4.6-1.55 8.8-2.5l-3.25 3.45q-3.75 4.2-5.95 8.1 3.15-1.5 7.5-1.65l3.75.15-.85 1.3-1.5 2.85q6.65 2.25 12.5 7.95-7.95-5.1-14.2-6.15-6.3-1.1-14.65 1.25-1.1.3 1.75-5.2 2.85-5.45 1.95-5.1-3.9 1.45-8.25 4.7"/><path fill="#b3aea6" d="M224.35 103.4q.85 2.6-2.1 5.25-2.8 2.55-7.75 4.15-11.95 3.85-19.6-.95-3.9-2.4-3.65-6.15.25-3.2 3.35-6.3 3.15-3.1 15.4-2.1 12.7 1.1 14.35 6.1"/><path fill="#fff" d="m196.25 33.7-4.15 13.35-4.4 5.65q-4.65 6.15-5.95 8.55-1.55-5.25-.7-14.45.8-9.1 3.05-12.5 2-2.95 6.45-2.6 3.65.25 5.7 2"/><path fill="#dbdcdc" d="M192.65 32.05q2.4.6 3.6 1.65l-4.15 13.35-4.4 5.65q-4.65 6.15-5.95 8.55l-.4-1.6q2-4.3 5.6-13.85 3.45-9.05 5.7-13.75"/><path fill="#fff" d="M203.75 32.7q2.9 1.1 4.3 2.7 1.55 1.7.05 2.75-1.95 1.4-8.9 10.55l-8.85 11.65q-1.2-3.95.5-12.55 1.3-6.55 3.65-13.2.8-2.35 3.7-2.75 2.45-.3 5.55.85"/><path fill="#dbdcdc" d="M203.2 32.55q3.1 1.05 4.7 2.7 1.75 1.8.2 2.9-1.9 1.4-8.7 10.35l-8.9 11.7q7.15-17.25 12.7-27.65"/><path fill="#922f00" d="M218.8 115.65q-.9 2.9-4.45 6.5-4.75 4.75-10.2 5.25-4.2.4-8.4-2.1-3.4-2.05-5.4-5l5.8-2.7q4.65-1.85 9.35-2.4 3.6-.45 7.6 0z"/><path fill="#ed8599" d="M209.85 119.8q1.95 1.35 3 3.7-4.2 3.5-8.7 3.9-4.2.4-8.4-2.1-3.4-2.05-5.4-5l3.8-1.85q2.9-1.3 5.7-2.1 6.85 1.2 10 3.45"/><path fill="#ce7486" d="M200.9 120.6q-3.25 1.85-5.1 4.7-3.45-2.1-5.45-5l3.8-1.85q2.9-1.3 5.7-2.1 4.8.85 7.8 2.2-3.6.3-6.75 2.05"/><path fill="#806047" d="M197.6 86.8q1.35 7.4-2.45 14.75-3.6 7.1-11.6 9.85-7.95 2.7-14.5-.7-6.45-3.3-7.95-10.7-1.5-7.25 2.5-14.35 4.05-7.1 12.3-10.1 8.1-2.95 14.05.15 6.3 3.35 7.65 11.1m37.3-5.95q3.45 5.85 2.95 11.75-.55 5.95-4.8 7.6-4.55 1.7-9.4-.1-5.25-2-8.55-7.5-3.5-5.85-3.25-12 .25-6.2 4.2-8.55t9.65.35q5.75 2.65 9.2 8.45"/><path fill="#fff" d="M182.85 93.15q4.75-3.4 9.25-5.65 1.5 2.3 1.5 5.05 0 4.1-3.15 7.05-3.2 2.9-7.65 2.9-2.15 0-4.45-.9-2.3-.85-3.75-2.15z"/><path fill="#f09cb4" d="M182.8 82.55q2.9 0 5.45 1.35 2.45 1.35 3.85 3.6-11.7 7.5-17.3 11.8-2.85-2.5-2.85-6.75 0-4.15 3.2-7.1 3.15-2.9 7.65-2.9"/><path fill="#fff" d="M219.25 82.35q8 2.2 14.75 6.7-.25 2.35-1.4 4.05-1.25 1.8-3.15 2.5-2.95 1.05-5.9-.7-3-1.8-4.3-5.4-1.4-3.85 0-7.15"/><path fill="#f09cb4" d="M233.35 84.4q.9 2.35.65 4.65-4.1-2.75-7-4.05-4-1.8-8.05-2.05.55-1.45 1.7-2.75 1.2-1.4 2.55-1.9 2.9-1.05 5.9.75t4.25 5.35M226.1 98q.7 3.85-3.35 7.8-4.2 4.15-10.75 5.5-6.95 1.45-11.85-.2-5.2-1.75-6.2-6.4-.95-4.8 3.05-9.2 4.05-4.35 10.75-5.75t12.1 1.05q5.35 2.4 6.25 7.2"/><path fill="#d0879d" d="M205.4 107.9q8.1 1.2 18.45-3.3-1.9 2.35-4.9 4.1-3.2 1.85-6.95 2.6-6.95 1.45-11.85-.2-5.2-1.75-6.2-6.4-.65-3.4 1.3-6.8.9 8.65 10.15 10"/><path fill="#fff" d="m194.45 118.55 7.05-2.45q-3.05 5.15-3.6 5.55-.35.25-1.75-1.15z"/><path fill="#dbdcdc" d="M200.1 118.4q-2.8-.1-5.1.85l-.55-.7 7.05-2.45z"/><path fill="#fff" d="m216.7 115.55 5.25.25-3.45 3.85q-.4.25-1.1-1.6-.6-1.6-.7-2.5"/><path fill="#dbdcdc" d="m220.25 117.85-1.5-.5-1.5-.3-.55-1.5 5.25.25z"/><path fill="#0d131a" d="m180 95.2 6.1-4.45q1.6 1 1.6 2.9-.05 1.75-1.3 2.85-1.65 1.55-3.75 1.15-2.1-.45-2.65-2.45"/><path fill="#fff" d="M183.05 93.4q1-.95 2-1.4.8.7.8 1.6 0 .85-.75 1.4l-1.7.2q-1-.35-1.05-1.2z"/><path fill="#0d131a" d="m223.8 83.65 6.35 2.7q-.1 2.3-2.75 2.85-1.45.3-2.65-.5-1.25-.75-1.55-2.25-.35-1.55.6-2.8"/><path fill="#fff" d="M225.95 87.15q-1.5-.75-.5-2.6l2.2.7.75.65q-.15.95-.85 1.3z"/><path fill="#0d131a" d="m203.75 43.25 2-.4q.85.05-.05 1.75-.85 1.65-1.5 3.9l-1.35 4.5q3.65-2.3 9.3-4.3 3.85-1.4 7.2-2.15 4.25-.95 1.85 1.8l-3.1 3.35q-2.35 2.6-4.4 5.6l4.95-1.05 3.95-.35 2.1.1-1.2 1.6-1.1 1.95-.8 1.8q8.55 3.65 15 10.65 7.85 8.45 10.1 19.6.8 3.95.8 7.9 0 11.55-6.6 20.35-5.5 7.3-14.7 11.75-9.3 4.45-21.25 5.4-25.75 2.05-41.5-5.5-16-7.7-18.25-23.7-.3-2.1-.3-4.3 0-8.9 5-19.7 2.7-5.9 6.75-11.9-1.35-.8-4.95-1.9-3.9-1.2-5.85-1.25-1.9 0-1.85-.35l1.35-1.45q2.6-2.45 8.25-3l8.35.3L155 57.2q-4.6-4.45-5.8-5.2-1.25-.75-1.2-1.1.1-.3 1.5-.65 9.8-2.45 18.2.5 6.25 2.25 10.4 6.8 1.05-1.65 2.55-3.25.3 1.1.75 2.05-1.4 1.65-2.35 3.3l-.95.95q-.45.05-.7-.85-.65-2-7.85-5.35-9-4.15-17.4-2.65 7.1 5.75 13.45 13.6 2.45 3.05.95 2.65l-2-1.05-5.1-1.05q-5.9-.65-10.3 1.25 3.95.65 5.45 1.3l4.05 2.4q2.4 1.55 1.1 2.1l-1.75.25-5.15 9.3q-5.05 11.05-5.05 20.55l.25 4q2.2 15.25 16.85 22.5 14.65 7.3 39.25 5.35 11.6-.9 20.35-5 8.7-4.05 13.9-11 6.25-8.3 6.25-19.15 0-3.8-.8-7.5-2.3-11.3-9.15-19.4-6.15-7.2-13.9-9.8l-1.15.05q-1-.25-.3-1.65l1.5-2.9q-3-.15-9.05 1.55l-2 .2.7-1.6q.55-1.15 3-4.4l3.9-4.85q-3.8 1.05-9.55 3.8-5.1 2.5-6.3 3.5-1 .85-1.55.7-.55-.2-.25-1.55l1.65-5.05 1.95-5.5-1.15.2z"/><path fill="#0d131a" d="M182.6 33.45q2.15-3.2 6.5-3.35 4.3-.15 7.8 2.85l-1.85 1.25q-1.95-1.65-5.25-1.55-3.45.1-4.85 2.2-1.35 2.05-2.3 7.25-.9 5.05-.9 10.4 0 3.4.45 6.15 3.05-4.6 9.15-12.2l-.8 4.25-5.8 7.75q-2.5 3.5-3.4 3.3-.9-.25-1.3-4.4-.6-6.4.05-13.35.7-7.8 2.5-10.55"/><path fill="#0d131a" d="m207.55 37.35.25-.55q-.35-1.2-3-2.5-2.85-1.45-5.45-1.5-3.2-.05-3.95 2.15-1.75 5-3 10.35-1.55 6.7-1.55 11.05l.05 1.7 3.95-5.2q10.2-13.7 12.7-15.5m-1.75-4.8q3.25 1.7 3.9 3.65.5 1.75-1.05 2.75-2.1 1.55-12.25 15.1l-2.85 3.9q-2.45 3.25-3.45 3.15-1.15-.1-1.35-4.1-.3-6.1 1.85-14.55.8-2.95 2.7-8.55 1.15-3.2 6.05-3.1 3.25.1 6.45 1.75m10.15 83.35.5.45-10.85-.55q-4.1.4-8.25 1.95-2.05.8-5.55 2.55l-.45.2q2 2.65 5.1 4.45 3.8 2.15 7.6 1.8 4.15-.35 7.95-3.35 2.85-2.25 4.85-5.4l.85 1.1q-2.35 3.6-5.2 6.05-3.95 3.4-8.2 3.8-4.4.4-8.85-2.7-3.45-2.35-5.6-5.6l5.35-2.5q6.15-2.6 10.25-3.1l9.95.35z"/><path fill="#0d131a" d="M210.65 119.3q2.45 2.1 2.65 3.9l-1 .05-.65-1.2-1.75-1.7q-4.35-3.4-9.5-2.6l.75-1.15q5.9-.4 9.5 2.7"/><path fill="#0d131a" d="m200.9 115.9.9.4q-1.75 4.3-3 5.9-.5.6-1.15.6-.8-.05-1.85-1.35l-1.55-2.25-.4-.65.8-.55.45.6q1.8 2.65 2.55 2.65l.35-.2q1.2-1.45 2.9-5.15m20.75-.7.8.55q-2.05 3.55-3.35 4.5-.5.4-.9.2-.5-.15-.95-1.2l-.7-2-.7-1.55.7-.7.9 1.95 1 2.05.05-.05q1.2-.85 3.15-3.75"/><path fill="#0d131a" d="M229.55 109.95q.75-1.25 1.15-1.05.45.2-.05 1.7-.75 2.4-2.6 4-2.7 2.3-7 1.85-11-1.1-17.9.05-4.85.8-12.15 3.9l-.85.4q-5.85 2.5-10-2.7-.8-1.05-.55-1.55t1.5.65q1.9 1.85 3.4 2.45 2.55.95 5.75-.4l.9-.4q7.5-3.2 11.65-3.9 6.25-1.1 17.5.05 5.9.6 9.25-5.05m-53.6-33.65q-7.85 3-11.7 9.7-2.05 3.7-2.6 7.7t.55 7.6q1.75 6 7.15 8.75 6.35 3.2 13.85.65 7.55-2.55 11.1-9.1l-.1 2.85q-4.4 6-11.95 8.25-7.75 2.3-13.95-.9-5.65-2.95-7.7-9.65-1.15-3.9-.5-8.4t2.85-8.45q4.1-7.25 12.6-10.4 8.5-3.2 14.75.15 4.5 2.4 6.7 7.3 2.15 4.8 1.55 10.55-1.15.9-1.8 1.75 1.1-5.75-.6-10.5-1.85-5.25-6.55-7.8-5.75-3.05-13.65-.05m47.15-5.65q3.55.9 6.9 3.55t5.5 6.3q2.2 3.7 2.85 8.15.6 4.4-.55 7.7-1.35 3.85-4.15 4.9-3.1 1.2-8.3.1l.7-1.4q3.55.75 6.75-.45 2.65-1 3.7-4.15 1.05-2.95.45-6.8-.65-3.8-2.7-7.3-2-3.4-5.15-5.85-3.1-2.45-6.4-3.3-3.7-1-6.3.6-2.5 1.45-3.4 5-1.3 5.15 1.15 11.25h-1.6q-2.25-6.05-.85-11.35 1-4.2 4.15-6.1 3.1-1.85 7.25-.85"/><path fill="#0d131a" d="M192.95 92.55q0-3.85-2.95-6.6-3-2.75-7.2-2.75t-7.2 2.75-3 6.6 3 6.55q3 2.75 7.2 2.75t7.2-2.75q2.95-2.7 2.95-6.55m-22 .1q0-4.4 3.55-7.7t8.3-3.3q4.65 0 8.05 3.4 3.3 3.3 3.3 7.75 0 4.35-3.5 7.45-3.5 3.05-8.25 3.05-4.7 0-8.1-3.15-3.35-3.1-3.35-7.5m48.15-2.55q-1.8-5.1-.25-8.5 1.4-2.9 4.1-3.9 2.75-1 5.65.35 3.75 1.8 5.4 6.15.7 2 .7 3.9 0 2.8-1.35 5.05t-3.7 3.05l-4 .2-.8-1.6 4.4.2q2.65-.95 3.7-4 1-3.05-.2-6.4-1.3-3.8-4.7-5.4-2.35-1.05-4.65-.3-2.3.85-3.4 3.25-1.5 3.3-.15 7.15l.6 1.25z"/><path fill="#0d131a" d="M179.7 94.25q6.35-5.2 12.15-7.35l.45.9q-2.75 1.3-10.25 6.75l-7 5.25-.6-.8zm39.5-11.55q3.3-.4 6.65.8 3.7 1.3 8.1 4.7l-.6.8q-3.5-2.7-7.95-4.25-3.9-1.35-6.05-1.1zm5.9 15.5q-.6-3.4-3.85-5.5-2.6-1.75-6.05-2.4-3.7-.7-7.3.05-6.3 1.3-10.3 5.65t-3.05 8.75q.4 2.25 3.5 4.25 2.25 1.55 5.9 1.9l7.85-.55q6.2-1.3 10.2-5.15 3.75-3.65 3.1-7m-17.95-9.3q4.15-.8 8.05-.2t6.8 2.5q3.9 2.6 4.65 6.75.85 4.4-3.6 8.75-4.45 4.3-11.2 5.7l-8.65.55q-4-.4-6.65-2.15-3.2-2.15-3.95-5.8-1.1-5.15 3.2-9.9 4.25-4.7 11.35-6.2"/><path fill="#0d131a" d="M207.35 103.35q-.2-.7-.05-1.9l.25-1.9q.05-.8.65-.65.6.1.65.8.15 2.65-.2 3.5l-.65.8q-.45.15-.65-.65m8.75-5.45q-.4-.7 0-.85.45-.2 1.05.55 1.3 1.65 1.5 3.2.1.65-.4.75-.45.1-.85-.45l-.5-1.25z"/></svg>