<svg xmlns="http://www.w3.org/2000/svg" width="405" height="315" viewBox="-2.15 -1.05 404.85 314.8"><path fill="#eeeeef" d="M342.85 79.6q-.5-6.6 3.45-17.05 3.95-10.35 7.75-12.6 2.75 2.65 2.25 16.45-.45 13.15-2.6 17.75 9.05-2.35 22.85 1.05 13.4 3.35 15.9 7.95-1.25 3.75-14.25 6.05-11.3 1.95-19.45 1.4-5.05-12.55-15.9-21"/><path fill="#e5d8b2" d="m204.9 78.75.3 7.95-8.45-4.95q3.25-1.1 8.15-3m150.05 115.5.05-5.4-.1-6.9q-3.45-.25-11.3 3.8-7.9 4.1-10.15 7.4l-8.25-5.65-9-6.55q-1.3 2.45-2.3 8.8l-1.2 8.5q-1.35-.75-10.45-4.2 2.95-14.9 19.05-24.05 15.2-8.6 32.85-7.4Q358 153.4 360 145q9.85 6.2 11.4 9.05 1.25 2.4 2.8 9.3 1.7 7.4 1.1 9.85-.55 2.2-3.6 8.8-3 6.65-4.65 9.25-9 1.25-12.1 3M232.6 98.5q-.15-.35-1.2-.35l-2.65.45q1.9-1.95 8.15-3.3 5.95-1.25 9.05-.6-2.15 11.15 6.5 18.3 8.5 7.1 19.9 4.3l4.1 4.2q-1.85 4.6-.8 10.7 1.1 6.4 5.05 11.95 9.85 13.7 29.75 13.5-1.6 3.3-6.7 15.45-5.3 11.9-10.05 17.95l-2.9-.9.1 5.8q-20.05 4.45-38.95-3.2-17.55-7.05-29.2-22.25-11.6-15.15-13.05-32.7-1.55-18.85 9.4-34.5 1.6 5.5 5.4 12.45 3.5-3.05 6.25-9.9 2.4-6.1 1.85-7.35"/><path fill="#eeeeef" d="m244.15 76.65 3.25 6.6q-.35 1.45 1.1 4.45-1.9 3.65-2.55 7-3.1-.65-9.05.6-6.25 1.35-8.15 3.3-5.2 1.35-9.75 4.4-10.45 15.65-9.2 34.5 1.2 17.85 12.25 33.05Q233.25 186 250.7 193q18.95 7.65 40.2 2.95v5.1q-4.95 3.05-16.1 11.45 7.05 5 12 7.85-.45 1.4-1.55 7.25l11.1 1.45 12.05 22.55-2.9 9.35q-2.4-1.05-5.45-3.7-2.65-2.35-3.65-3.9-2.9 9.25-9.55 18.3l-1.8-3q-9.45-16.05-10.65-21.95-3.7 5.2-10.25 12.45-6.65 7.4-9.1 8.95-3-3.85-7.3-16.1-4.05-11.55-4.45-16.15-4.15 5.15-11.25 11.1-6.9 5.85-11.6 8.35l-3.1-16.5-2.9-15.1q-3.75 2.25-10.6 5.65-6.9 3.4-8.35 3.75-.3-8.1.5-11.35-2.5 2.15-6.7 4.85-4.1 2.6-5.45 2.95.75-10.85 2.55-23.1 2.15-14.45 4.1-18.5-5.25 3.45-13.2 6.25-7.1 2.5-10.55 2.65.65-2.6 2.65-8.45l2.3-6.8-5.2-2.2-4-1.5q3-3.85 9-9.1-19.05-10.2-22.3-12.95.25-.55 7.35-6.3l12.3-9.65q-1.95-1.6-4.35-6.1-1.35-2.45-3.95-8.05h4.3l7.6.4q-1.2-4.6-3.15-14.45-1.9-9.3-2.45-13.2l20.65 3.55q-.1-4.55.15-12.7.3-8.35.7-11.85.75.3 9.8 5.35l9.4 5.25q1.6-3.45 3.65-13.7 1.85-9.45 2.3-9.95 1.6 1.6 10.05 16.3 10-6.8 11.95-7.8l.45 5.5.2 5q1.3-.5 8-6.8"/><path fill="#fff" d="M291.15 161.85q.9.25 1.8 5.35.9 5.25.4 8.2-6.85-1.25-15.35-6.05 2.8-2.7 7.6-5.3 4.55-2.5 5.55-2.2m-60.4-56q-2.75 6.85-6.25 9.9-3.8-6.95-5.4-12.45l-.1-.3q2.7-1.9 6.75-3.75 6-2.75 6.85-.75.55 1.25-1.85 7.35"/><path fill="#806047" d="M280.7 144.15q-3.95-5.55-5.05-11.95-1.05-6.1.8-10.7 9.5 9.8 20.15 19.2 11.2 9.8 17.45 13.75l-1.75.55q-.65.3-1.85 2.65-19.9.2-29.75-13.5m-8.35-26.85q-7.45 1.8-13.65-.35-5.6-2-9.1-6.85-3.35-4.7-3.7-10.65-.35-6.15 2.6-11.75 3 6.15 23.85 29.6"/><path fill="#eeeeef" d="M358.75 100.6q6 15.05 3.85 32.45-1.65 13.15-8.45 29.55-17.65-1.2-32.85 7.4-16.1 9.15-19.05 24.05l-8.55-3q4.95-6.35 11.15-19.2L312.3 155q3.4-1.5 11.9-.45l10.85.95q4-3.6 7.65-13.15 4.1-10.55 4.9-21.85 2.25-30.4-19.6-44.3-15.6-9.95-33.85-11.9 26.7 1.5 43.65 11.95 14.9 9.2 20.95 24.35"/><path fill="#e5d8b2" d="m126.85 106.2 7.85.65 7.85.4q-.2 3.1-1.25 3.75-10.2 5.7-12.25 10.4-1.4 3.25-.7 6.6.75 3.7 3.85 4 2.95.35 8.8-1.15-4.25 13.25 1.5 30.9 5.95 18.15 17.55 24.95-6 17-1.1 34.85 4.6 16.65 17.6 30.8 12.8 13.9 30.35 21.8 18.25 8.25 37.1 7.8-32 8.85-60.65 3.1-31-6.15-54.6-28.85-11.1-10.65-18.85-26-7.7-15.3-10.85-32.7-6.9-38.5 9.75-69.6 5.35 3.3 10.25 4.4 5.55 1.3 7.35-1.2 2.45-3.4-.3-8.05-2.05-3.45-5.25-5.65.4-1.95 2.5-5.55zM30.5 214.8l-6.7 5.2-5.85 4.55 5.95 2q4.2 1.45 4.95 2-.5 3.2-5.35 10.35l-5.3 7.5q6.1.9 14.55 3.45l-.95 3.3q-6.7.4-14-1.25-8.5-1.85-12.45-5.6-5.1-4.8-2.6-25.15 1-8.4 3-14.7 2.15-6.75 4.5-7.9 2.45-1.25 7.5-1.4 5-.15 8.25.9l-.25.05q.1 3.35 2.2 9.95 1.85 5.9 2.55 6.75"/><path fill="#806047" d="m325.2 187.5 8.25 5.65q2.25-3.3 10.15-7.4 7.85-4.05 11.3-3.8l.1 6.9-.05 5.4q3.5-2 11.2-3.15l13.2-.6q-2.1 1.85-5 5.05l-3.75 4.2q6.5 3.5 7.55 5.15l-3.2 3.8-3.8 3.5q10.85 17.05 20.2 42.75 9.35 25.8 8.25 35.8-1.05 9.3-14.85 14.45-13.7 5.15-36.25 4.85-23.7-.3-51.5-6.55-30.4-6.8-60.7-19.7l7.7-1.85q22.3-.5 41.05-13.3l1.8 3q6.65-9.05 9.55-18.3 1 1.55 3.65 3.9 3.05 2.65 5.45 3.7l2.9-9.35-12.05-22.55-11.1-1.45q1.1-5.85 1.55-7.25-4.95-2.85-12-7.85 11.15-8.4 16.1-11.45l-.1-10.9q20.6 7.35 21.9 8.1l1.2-8.5q1-6.35 2.3-8.8zm-244.6-6.15-1.45 1.1q.75 1.55 1.55 4.4 3.5-.8 6.9-.85l-3.4-3.3q-1.95-1.9-2.1-2.4-.5.25-1.5 1.05M24.45 144.3q1.9-13.7 10.1-24.1 7.4-9.4 30.9-18.35Q81.4 95.7 100.5 91.2q-4.1 9.55 5.75 15.9-5.4 9.9-4.65 13.6.6 3.05 7.2 7.2-16.65 31.1-9.75 69.6 3.15 17.4 10.85 32.7 7.75 15.35 18.85 26 14 13.5 32.5 21.2-18.9 6.7-46.15 2.8-27.3-3.9-49.3-16.4l-6.85 3.65-7.9 3.9q-.65-.75-1.75-2.9-1.05-2.15-1.55-3.7l-4.2.35-4.8-.1q0-5.4-.5-8.05L30.8 256l.95-2.85 1-3.3q-8.45-2.55-14.55-3.45l5.3-7.5q4.85-7.15 5.35-10.35-.75-.55-4.95-2l-5.95-2L23.8 220l6.7-5.2q-.8-1-3.05-6.85-2.55-6.75-2.65-10 11.65-1.9 14.2-4.1-1.85-2.35-3.55-3.6-2.35-1.6-5.85-2.45l.25-1.85q.15-1.1-.15-1.45-10.7-3.25-12.65-5.5l4.7-4 4.6-4.7q-3.55-13.7-1.9-26"/><path fill="#e5d8b2" d="M99.75 98.15q-.75-4.5 1.8-9.1-2.9.75-5.05-3.55-2.25-4.6.2-9.5-.7-3.3-.85-7.4-.15-5.2 1.05-6.85 1.15-1.65 6.5-4.85 5.55-3.3 11.2-5.65 9.55 7.6 13.7 12.15-7.3 21.35-8.9 24.75.8-.15 8.45-.05l10 .4q-1.8 3.2-2.75 12.95l7.55-1.3 7.05-.8q-.2.8-1.15 14.4 1.7-1.25 4.8-2.75l5.1-2.3 1.7 2.75q-.65 3-3.2 7.65-2.4 4.3-4.6 6.8-2.1 2.4-9.6 4.5-7.1 1.95-10.55 1.6-3.1-.3-3.85-4-.7-3.35.7-6.6 2.05-4.7 12.25-10.4 1.05-.65 1.25-3.75l-7.85-.4-7.85-.65-3.5 5.65q-2.1 3.6-2.5 5.55 3.2 2.2 5.25 5.65 2.75 4.65.3 8.05-3.15 4.4-13.85-1.2-4.15-2.15-7.4-4.9t-3.55-4.3q-.75-3.7 4.65-13.6-5.6-3.65-6.5-8.95m-77.4 89.2q2.45-1.15 8.4.9 6.15 2.15 8.2 5.3-3.65 1.9-12.1 3.15l-8.95.85q.2-3.7 1.5-6.7 1.35-3 2.95-3.5M328 76.2q8.6 5.45 13.7 15.15 4.8 9.15 5.75 20.55.9 11.2-2.1 22.3-3.05 11.45-9.75 20.45l-9.05.25-12.5-.45q-13.2-8.5-38.25-34.7-24.3-25.45-28.85-34.7.65-8.95 10.3-14.8Q267.3 64.2 283.3 64q12.5-.15 22.7 2.45 11.25 2.9 22 9.75"/><path fill="#fff" d="m286.9 132.15 15.65 14.45q-6.4 4-11.4-1.85-4.5-5.25-4.25-12.6m-20.5-20.95q-7.1 1.75-11.15-3.5-3.95-5.1-1.9-12.6z"/><path fill="#f09cb4" d="M235 110.35q6.2-5.65 14.2-1.3 7.4 4 9.95 12.2 14.45.65 20.05 12.25 2.35 4.8 2 9.9-.35 5.15-3.35 8.65-5 5.75-15.05 4.85-11.1-1.05-22-10.25-10.55-8.95-11.4-20.45-.75-10.1 5.6-15.85"/><path fill="#806047" d="M271.85 65.25q-9.35 2.05-15.75 6.55-6.85 4.75-8.7 11.35v.1l-3.25-6.6q-6.7 6.3-8 6.8l-.2-5-.45-5.5q-1.95 1-11.95 7.8-8.45-14.7-10.05-16.3-.45.5-2.3 9.95-2.05 10.25-3.65 13.7l-2.35-1.4-.6-19.35q-6.9 7.9-11.9 12.2-3.2-1.6-4.35-2.05-.4 3.5-.7 11.85-.25 8.15-.15 12.7l-20.65-3.55q.95 6.1 3.65 19.2l-3.85 4.65-8.2-13.65-5.1 2.3q-3.1 1.5-4.8 2.75.95-13.6 1.15-14.4l-7.05.8-7.55 1.3q.95-9.75 2.75-12.95l-10-.4q-7.65-.1-8.45.05 1.6-3.4 8.9-24.75-4.15-4.55-13.7-12.15l-5.4-4.55q10.55-3.35 20.4-5.85-1.9-1.6-4.65-6.55-2.05-3.65-3.6-7.35 3.35.3 11.7 2.8 6.9 2.1 11.45 3.85 12.5-11.45 34.75-22.1Q201.9.65 212 1.7q6.15.6 14.35 5.55 8.4 5.05 16.8 13.35 19.65 19.4 28.7 44.65"/><path fill="#e5d8b2" d="m168.8 139.9-12.25 9.65q-7.1 5.75-7.35 6.3 2.3 1.95 10.65 6.6l11.65 6.35q-5.75 4.9-9 9.05l4 1.5q3.2 1.25 5.2 2.25l-2.3 6.8q-2 5.9-2.65 8.45 3.45-.15 10.55-2.65 7.95-2.8 13.2-6.25-1.95 4.05-4.05 18.5-1.75 12-2.6 23.1 1.35-.35 5.45-2.95 4.2-2.7 6.7-4.85-.8 3.25-.5 11.35 1.45-.35 8.35-3.75 6.85-3.4 10.6-5.65l2.9 15.1 3.1 16.5q4.65-2.45 11.6-8.35 7.05-5.95 11.25-11.1.4 4.6 4.45 16.1 4.3 12.25 7.3 16.15 2.45-1.55 9.1-8.95 6.55-7.25 10.25-12.45 1.2 5.9 10.65 21.95-20.9 14.35-47.25 13.1-24.4-1.15-45.6-14.95-21.3-13.8-30.45-34.5-9.9-22.45-1.7-45.65-11.6-6.8-17.55-24.9-5.75-17.65-1.5-30.9 8.2-2 11.25-4.75 4-3.7 7.9-14.65 3.05 4.65 6.5 10.9l3.85-4.65q1.1 5.35 1.95 8.45l-7.6-.4q-3.6-.15-4.3 0l3.9 8.05q2.45 4.5 4.35 6.1"/><path fill="#c0b697" d="M299.1 182.65q-2.85 5.1-5.4 8.4l-2.9-.9.1 5.8q-24.6 5.5-46.7-6.85-20.6-11.5-29.75-32.7 16.15 15.35 39.2 22.35 22.6 6.9 45.45 3.9M128.75 256.2q-11.1-10.65-18.95-26.2 15.45 12.9 31.3 18.7 15.6 5.65 36 5.95 12.95 11.45 31.15 19.25 19.65 8.4 35.75 8.05-32 8.85-60.65 3.1-31-6.15-54.6-28.85m.3-134.8q-.9 2.1-.9 4.65l-.8.1q-.55-2.55-2.8-5.3-1.8-2.15-3.7-3.45.4-1.95 2.5-5.55l3.5-5.65 7.85.65 7.85.4q-.2 3.1-1.25 3.75-10.2 5.7-12.25 10.4M25.4 236l-4.55 6.65-2.65 3.75q6.1.9 14.55 3.45l-.95 3.3q-6.7.4-14-1.25-8.5-1.85-12.45-5.6-1.85-1.8-2.75-6.7 12.65 2.3 22.8-3.6"/><path fill="#684e39" d="m285.05 268.65 1.35 2.25-3.5-.85zM365 280.7q12.1-3.45 18.6-12.75 6.4-9.25 5.4-21.4 6.55 17.95 9.2 30.55 1.9 9.25 1.4 13.65-1.05 9.3-14.85 14.45-13.7 5.15-36.25 4.85-23.7-.3-51.5-6.55-30.4-6.8-60.7-19.7l7.7-1.85q17.95-.4 28.75-7.05 11.25 4.9 28.8 8.7 13.2 2.8 25.75 4.25.6.1-3.75-7.85-4.4-7.9-3.9-7.85 8.65 7.1 20.15 9.5 12.35 2.6 25.2-.95"/><path fill="#c0b697" d="m280.25 260.1 4.8 8.55q-14.65 10.05-32.5 12.5-16.55 2.2-33.6-2.4-16.45-4.45-30.3-14.35-13.9-10-22.3-23.5 18.4 10.8 40.75 16.4 21.85 5.45 44.85 5.25 1.65 3.65 3.1 5.55 1.8-1.15 6.2-5.8 9.4-.6 19-2.2"/><path fill="#684e39" d="M92.9 262.2q7.4-.9 17.4-3.55l16-4.35q3.85 3.55 15.65 12.7l16.55 12.4q-29.65 8.75-63.6-2.3-24.4-7.95-40.65-21.15 17.65 8.85 38.65 6.25m-12.2-75.35-1.55-4.8-2.6 1.2q-2.9 1.35-4.25 2.35-3.75-5.15-3.75-7.1 0-2.4 8.9-13.35 9.7-11.9 15.05-12.15-1.55 2.75-2.9 7.85-1.45 5.5-2.1 11.75-.25 2.75-.2 8.3l-.1 6.05q-.45-.95-3.55-.65z"/><path fill="#d0879d" d="M277.85 152.05q-4.8 5.55-14.45 4.9-10.7-.75-21.3-9.2 11.25 4.1 21.3 3.8 11.75-.35 17.65-6.95-.55 4.35-3.2 7.45"/><path fill="#684e39" d="M204.65 68.95q1.9-3.15 4.35-6.5 3.05-4.25 5.45-6.7 1.95 2.6 4.5 9 3.05 7.65 4.75 15.9l-6.5-9.75-3.95-5.95-2.3 10.6q-1.85 9.25-3.4 12.55l-2.35-1.4z"/><path fill="#c0b697" d="M128.45 125.9q3.05 2.15 12.5.2 9.5-2 15.5-6.2-2.2 3.8-4.1 6-2.1 2.4-9.6 4.5-7.1 1.95-10.55 1.6-1.5-.15-2.55-2.35-.8-1.55-1.2-3.75m-.5.65q.1 1.55-1.45 3.75-1.5 2.1-2.55 2.3-6.15 1.05-14.2-3.8-7.45-4.5-8.15-8.1 2.8 2.2 13 4.95 11.1 3 13.35.9"/><path fill="#684e39" d="m41.7 264.7-3.25-.35q2-.45 8.2-3.3 6.4-2.95 8-4.2 1.95 1.55 10.4 6.65L51 272.15l-3.25-7.4q-2.35.3-6.05-.05"/><path fill="#c8c9ca" d="M360.8 141.7q-2.55 13.4-6.65 20.9-19.6 0-35.1 8.85-9 5.15-13.55 14.25-1.45 2.85-2.25 5.75-.45 1.45-.55 2.35l-8.35-2.65 5.85-8.8 5-4.75q5.4-5.7 10.2-9.1 4.5-2.8 14.1-5.4 8.85-2.4 12.15-5 5.9-4.85 11.55-14.45 5.35-9.1 9.6-20.8.25 7.25-2 18.85"/><path fill="#c0b697" d="M126.9 130q.8-1.45.75-2.9l1.4 2.2q1.55 2.3 2.55 2.9l3.8.3 6-.9-1.55 7.05q-10.15-1.75-20.3-.85-9.85.85-17.8 4l6.1-13.95 4 2.4q4.85 2.4 9.15 2.5 4.3.15 5.9-2.75"/><path fill="#c0b697" d="m167 122.15 3.35-3.7 2.1 7.7-7.85-.4h-4.05l1.05 5.05q-10.65 1.05-21.2 5.5l.5-5q9.05-2.65 11.3-4.4 1.55-1.2 4.5-7.25 2.65-5.4 3.45-8.2z"/><path fill="#c8c9ca" d="m217.55 164.75 2.3 3.25q3.05 4.05 6.75 7.85 11.8 12.2 25.5 17.6 13.75 5.4 27.7 4.1 7-.65 11.2-2.35l-.1 5.85q-4.8 3.55-10.5 7.1-34.05 1-50.2-16.25-9.25-9.9-12.65-27.15"/><path fill="#c0b697" d="M18.4 194q3.5 1.05 8.45-.6 4.4-1.4 8-4.2l4.05 4.3-2.1.35-15.15 4.5-3.75-.8zm336.55.25q-.35-10.05-.75-12.4-10.85 2.4-20.75 11.3l-4.55-3.45q2.5-3.8 10.85-8.1 7.95-4.1 13.85-5.05 5.65-.9 12.2-4.1 6.6-3.25 8.8-6.3l.4 1.65q.4 2 .4 3.85 0 1.95-3.25 9.8-2.75 6.75-4.4 9.8-3.55.4-8.55 1.75z"/><path fill="#c8c9ca" d="M392.45 93.15q-4.85 4.9-15.4 6.75l-18.3.7-2.6-5.55 14.2.7q12.65-.2 22.1-2.6"/><path fill="#684e39" d="M311.1 257.55q3.15 6.6 5.2 9.9l5.05 8.9 7.6 12.75q-8.85.45-30.85-4.1-22.85-4.7-27.75-8.6l14.7-7.75 2.2 3.5 3.55-6.1 2.55-5.3 3.05-7.4 3.4 3.2q3.75 3.45 5.7 4.4l2.9-9.35zM201.65 71.15l-8.95 8.4-4.35-2.05-.85 24.55-20.65-3.55 3.65 19.2-3.5 4.45-8.55-13.45-9.9 5.05 1.15-14.4q14.75-9.05 36.3-24.4 16.5-11.8 28.05-20.7l-4.45 6.9q-5 7.4-7.95 10"/><path fill="#c0b697" d="m122.55 88.8 5.05-.2 9.3-.2-1.2 6.3q-12.35 2.35-13.95 1.55-.95-.5-.2-4zm15.5 12.15 11.65-1.6-.1 3.95q-.35 4.4-1.35 6.5-1 2.2-3.5 1.65-2.35-.55-2.35-1.65l.15-2.55-4.9-.4zm12.95 12.2 2.55-1.65q2.95-1.85 4.9-2.8l1.7 2.75-.5 3.05-2.85 1.2q-3.15 1.15-4.6.8-.6-.15-.9-1.25z"/><path fill="#0d131a" d="M246.2 93.7q.4.1.2 1.05-.2 1-.6.9l-8.85.25q-5.3 1-7.1 2.6l-2.9.3-2.25-.25q4.7-3.25 11.65-4.55zm80.95-17.5q.4-.05 1.15.65.75.65.35.65-13.2.65-30.25 12.55-17.05 11.95-26.3 27.1-.2.35-.8-.35-.55-.75-.35-1.1 9.1-14.9 25.8-26.65 16.75-11.8 30.4-12.85"/><path fill="#0d131a" d="M330.2 70.75q17.3 8.5 25.55 21.9 8.3 13.5 8.5 31.4.15 18.45-8.3 38.55l-1.75.25q-1.65-.15-1.45-.55 8.4-20.05 8.8-37.85.35-17.95-7.55-30.75-7.4-12-21.6-19.2-14.25-7.25-34.35-9.15-3.1-.3-5.3-1.3-2.25-1 .2-1.15 19.25-1 37.25 7.85"/><path fill="#0d131a" d="M356.25 52.35q.95 3.75 1.3 8.65 1 13.4-3.3 23.5l-1.05.1-.85-.4q2.3-5.55 2.8-17.8.45-11.95-1.25-15.05-3.55 3.1-7.15 13.65-3.55 10.5-2.7 14.85-1.85.55-1.95 0-1.7-8.45 3.75-20.05 5.1-10.7 8.7-11 .75.15 1.7 3.55"/><path fill="#0d131a" d="M351.7 85.85q-2.15.9-1.45-.3t2.9-2q11-3.9 27.1 1.25 6.3 2 10.35 4.55 4.05 2.6 3.5 4.2-1.65 4.95-15.1 7.65-12.9 2.55-20.05.25-.4-.15-.55-1.1-.2-.95.2-.9 6.75.9 18.35-1 12.45-2.05 14.35-5.2-3.25-4.5-17.15-7.5-14.65-3.15-22.45.1m-17.05 68.95q0 .4-1.25.6t-1.2-.2q.3-10.15-3.95-18.75-4.15-8.5-11.9-13.75-17.3-11.7-41.85-2.95-.35.15-.55-.7t.15-1q12.4-4.45 23.9-3.65 10.95.8 19.45 6.15 8.4 5.25 12.9 14.05 4.65 9.05 4.3 20.2m-79.4-82.2q-.4-.05.3-1.05t1.1-.95q11.65 2.3 15.45 16.45 3.55 13.05-1.25 27.4l-1.05.05q-.95-.3-.85-.7 4.3-12.8 1.1-25.1-3.5-13.85-14.8-16.1m25.55 73.7.8-3.2q4.35 6.15 11.15 9.6 7.75 3.95 17.55 3.75.45 0 .35 1.05-.15 1-.55 1-9.95.2-17.75-3.3-6.95-3.15-11.55-8.9"/><path fill="#0d131a" d="m276.4 129.1-2.15-1.85q.25-3.65 1.3-6.25l1.1-.05q.95.4.75.8-1.25 3.05-1 7.35M244.45 98q0-5.7 3.05-11.35.2-.4 1.2.45t.8 1.2q-2.85 5.3-2.75 10.7.1 5.05 2.75 9.25l-2.45-.35q-2.6-4.6-2.6-9.9m27.45 18.35q.4-.1.65.85.2 1-.2 1.1-8.3 1.9-15.7-1.6-.7-1.4-.95-2.5 7.15 4.2 16.2 2.15m-51.7-13.4q2.4 8.55 9.15 18.9l-.5 4.15q-8.5-12.75-10.8-23.25-.05-.4 1-.3t1.15.5m54.35 66.2Q265.5 164 256 156h4.3q8.95 7.4 17.3 12.1 8.8 4.95 15.75 6.2 2.2.4 1.25 1.15-.9.8-3.05.4-7.5-1.3-17-6.7"/><path fill="#0d131a" d="M227.05 97.6q5.8-1.1 6.5.55t-1.85 8.05q-2.8 7.1-6.55 10.1-.3.25-.9-.55-.55-.85-.35-1 3.25-2.6 6-8.8 2.45-5.7 1.8-6.8-.65-.6-4.7.7-4.5 1.45-7.1 3.85l-.15.05-.15.35q-9.55 14.5-9.05 31.55.45 17.1 10.8 32 11.6 16.7 30.4 23.95 18.75 7.3 38.6 2.75.4-.05.7 1.45t-.1 1.55q-20.2 4.65-39.7-3.15-19.05-7.6-31.7-24.65Q207.8 153.7 208 132.5q.2-19.6 9.6-30.1 3.2-3.6 9.45-4.8m51.6 72.6q-.3.3-1.5-.55t-.9-1.15q2.7-2.7 8.25-5.4 5.4-2.65 6.9-2.2 1.65.45 2.55 6.1.85 5.3.25 8.15-.1.35-.95.5t-.85-.2v-.2q.4-1.85-.2-6.85-.65-5.15-1.45-5.55-.8-.3-5.05 2.2-4.55 2.65-7.05 5.15m-26.3-76.05q.1-.35 1 .2t.8.9q-1 3.75-.4 7 .6 3 2.5 5.2 1.8 2.05 4.45 2.85t5.5.1q.35-.05.55.75t-.15.85q-3.3.85-6.4.05-3.15-.8-5.25-2.95-2.4-2.5-3.1-6.45-.7-4.05.5-8.5m33.75 37.95q0-.35.85-.3.8.05.8.4-.15 3.45 1.2 6.95 1.3 3.55 3.6 5.7 1.85 1.75 4.65 2.05 2.8.35 4.95-1 .3-.2.95.65t.35 1.05q-3.1 1.9-6.6 1.45-3.25-.45-5.55-2.75-2.6-2.5-4-6.7-1.35-3.85-1.2-7.5m74.8 31.1q2.3.55 2.9 1.3.6.8-1.7.25-18.15-4.25-35.95 4.25-17.8 8.55-21.95 23.55-.6 2.1-1.6 1.9-.95-.2-.7-2.35.9-7.15 6.65-13.65 5.45-6.15 14.15-10.4 19-9.35 38.2-4.85"/><path fill="#0d131a" d="m355.2 159.55 3.3-.65 2.75-.2q2.15 0 2.65.65.55.6-1.55.6l-3.95.65q-2.9.85-3.8 2-.35.4-.15-1.3.2-1.6.75-1.75"/><path fill="#0d131a" d="M359.4 145.85q-.35-.2.2-1.05.5-.85.85-.65l8.35 5.3q3.2 2.25 3.95 3.6 1.25 2.4 2.65 9.75 1.55 7.9.85 10.6l-3.05 9.3q-2.55 6.9-3.8 8.5l-2 .05q-1.7-.2-1.5-.55 1.25-1.55 4.55-8.5t3.85-9.25q.55-2.2-1.05-9.35-1.5-6.7-2.75-9.05-1.25-2.55-11.1-8.7M334.65 296.5q1.95 2.75.6 2.4-1.3-.3-3.45-3-5.55-7.05-19.9-33.55-13.85-25.55-16-32-1.1-3.35-.85-4.4.3-1.1 1.8 1.85 2.9 5.85 17.7 33.15 16.65 30.65 20.1 35.55"/><path fill="#0d131a" d="m324.25 184.45 9.05 7.4q3.7-4.25 10.6-7.7 6.9-3.5 11.05-3.2 1.3.1 1.3 4.6l-.25 7.15q5.85-2.55 16.6-3.25 10.4-.7 9.05.75l-9.45 9.3 5.15 2.9q2.65 1.6 2.65 2.3 0 .65-3.2 3.85-3.1 3.1-4.65 4.2-.3.25-.85-.6t-.3-1q3.1-2.25 5.85-6.2l-3.9-2.55q-3.25-2.05-3.35-2.5-.05-.35 3.3-4.1l4.05-4.4-11.05 1.1q-7.15 1.2-11.5 2.85-.55.2-.55-4.9l.05-7.45q-6.1 1.05-13.75 6.2l-6.55 4.9q-.3.1-6.6-4.1-6.65-4.45-10.45-7.4-.65 1.8-1.75 9.55-.9 6.65-1.65 7l-8.8-3.15-12.5-4.5.05 9.6q-.05.8-6.2 5.05l-9.2 6.3q4.95 3.55 11.25 7.2.2.1-.5 3.35l-.8 3.75 10.1 1.5q.35.05.2 1-.15 1-.45.95l-7.6-.3-5.55-.75q-.25-.4 1.05-4l1.5-4.3-7.7-4.6q-5-3.1-5-3.75 0-1.2 16.95-12l-.65-6.15q-.5-5.4 0-5.7.95-.5 10.8 3.25 7.3 2.8 11.8 4.85.1-5.25.95-11.05 1.05-7.65 2.55-7.9.55-.1 8.85 6.65"/><path fill="#0d131a" d="M369.3 211.15q-1.55-2.35-.55-2.45 1.05-.05 2.75 2.2 12.05 16.1 21.9 43.65 9.3 26.2 8.05 37.2-.35 3.35-3.65 7.15-3.1 3.5-7.5 6.05-8.75 5.05-23.9 6.9-15.7 1.9-35.5-.05-45.45-4.45-94.35-26.2-.4-.2 1.1-1.45 1.45-1.3 1.85-1.1 48.05 20.65 92.4 24.9 40.1 3.85 58.3-6.7 7.65-4.5 8.4-10.6 1.15-10.15-8.55-36.5-9.75-26.35-20.75-43"/><path fill="#0d131a" d="M139.95 131.5q.15-.35 1.5-.55 1.35-.15 1.2.2-4.55 12.35.7 29.75 5.5 18.05 17.2 24.9.7.45.45 1.2-6.85 19.45.7 39.9t27.1 35.35 43.25 17.8q28.4 3.45 52.05-13 .35-.2.95 1.55t.25 2q-22.65 15.8-53.6 12.05-26.8-3.25-46.35-18.15-22.05-16.85-28.3-40.85-4.95-19.2.95-36.7-14.1-8.8-18.65-27.2-3.95-15.85.6-28.25"/><path fill="#0d131a" d="M184.4 159.1q1 .35-.85 1.5-2.85 1.75-8.65 6.6-7.05 5.85-10.75 10.25.7.35 5 1.9 3.85 1.6 3.5 2.55l-4.55 13.75q4.1-.65 10.05-2.85 7.05-2.55 11.8-5.65.9-.6 1.45-.35.65.3 0 1.6-1.8 3.7-3.8 16.7-1.7 11.4-2.6 22.85 3.5-1.75 7.8-5 3.25-2.4 3.6-2.2.5.3.25 4.15-.35 4.9-.15 6.8 3.35-1.25 11.7-5.95 6.45-3.7 6.85-3 1 1.85 3.5 15.7l2.65 15.25q4.8-2.8 11.1-8.3 6.45-5.55 10.2-10.2 1.55-1.8 1.8.55.4 4.1 4.05 14.9 3.95 11.55 6.95 16 2.9-2.35 8.85-9 6-6.75 9.45-11.5.75-1.05 1.1-1 .4.05.65 1.35.75 3.55 5.1 11.85 3.05 5.85 6.5 11.5 3-3.75 6.45-11.8 2.7-6.2 3.1-5.65.85 1.2 3.4 3.45 2.8 2.45 4.95 3.65l2.45-8.55 1.05-.1q.95.3.85.7l-2.6 10.6q-.4 1.35-3.55-.9-2.95-2.1-6.3-5.85-1.75 4.85-5.4 12-3.7 7.05-4.4 7-.9-.05-5.9-9.9-5-9.8-6.65-14.75-7 8.8-12.5 14.35-6.4 6.5-7.6 5.3-3.15-3-7-14.5-3.05-9-4.65-16.8-5 6.8-14.05 13.85-9 7-9.5 4.5l-5.35-31.2q-17.9 10.05-18.95 9.3-.45-.3-.8-2.55-.45-2.9-.1-6.75l-6.3 4.4q-3.6 2.25-4.8 2.55-1.7.45.15-14.55 1.9-15.55 5.35-26.45-5.65 3.65-15.3 6.05-9.35 2.35-8.65.5l2.85-6.9 3.25-8.7q-1.35-.65-6.1-1.9L159.7 179q-1.35-.55 6-7.2 7.75-7.05 15.75-11.95 1.95-1.15 2.95-.75"/><path fill="#0d131a" d="M170.05 137.5q2.4-1.7 4.05-1.8t-.4 1.7l-10.7 8.5q-10.1 7.9-12.25 9.85 4.2 3.05 21.7 12.35l-.95 1.75-18.2-9.25q-7.5-3.8-7.1-4.65.45-.9 11.2-9.05 9.65-7.35 12.65-9.4"/><path fill="#0d131a" d="M178.6 126.1q2 .8 2.55 1.8.5 1.05-1.55.4-3.4-1.1-8.8-1.45-2.65-.15-8.75-.15l2.65 5.9q2.4 4.7 4.55 6.3.25.2-.15 1.1t-.75.7q-2.5-1.25-6.4-8.35-3.4-6.2-3.55-7.55l8.75-.35q8.75.6 11.45 1.65"/><path fill="#0d131a" d="M187.15 75.65q.55-.6 10.7 4.9 9.75 5.25 10.4 5.9.25.25-.5 1.55t-1.1 1.05l-6.85-4.3Q193 80.7 189.2 79q-.2 2.7-.45 14.25-.25 9.2-.65 9.55-.5.45-9.3-1.1l-10.75-1.95 2.6 13.4q1.9 9.2 2.9 12.7-3.3.5-3.4-.05l-5-28.85q-.05-.45 8.35 1.25l12.95 2.6V87.75q.15-11.45.7-12.1"/><path fill="#0d131a" d="M244.55 74.45q.4.05 1.5 2.75l1.8 4.65q.2.45-.6 1.5-.75 1.05-.85.6-.2-1.4-2.5-5.65l-4.6 3.9-3.45 2.65q-.65.2-.8-2.95l-.35-7.35-6.55 4.4q-4.4 2.9-4.85 2.8-.6-.15-4.65-7l-4.85-8.2-2.05 10.35q-2.15 10-4 13.55-1.05 2.1-1.5 1.15t.4-3.2q1.2-3.15 3.55-15.5 2.15-11.2 2.45-11.2.8 0 4 5.05 3.4 5.3 7.15 12.5l7.1-5.3q5.15-3.75 5.4-3.5.6.5.75 4.85l.05 6.3 4.55-4.55q2.55-2.65 2.9-2.6m-41.5-4.5q0-.5 1.4-1.8 1.35-1.35 1.35-.9l.45 19.7-1.2.1q-1.2-.25-1.2-.5-.75-12.15-.8-16.6"/><path fill="#0d131a" d="M194.4 80.15q-.35.25-1.5-.55-1.15-.85-.85-1.1 4.8-3.95 11.65-11.7 7.2-8.15 10.25-13.35 1.1-1.85 1.35-.95t-.85 2.75q-10.5 17.65-20.05 24.9"/><path fill="#0d131a" d="M217.4 56.9q1.4-1.1 1.2-.1-.2.95-1.6 2.05-2.95 2.25-6.7 2.45-.4.05-.45-.95t.35-1.05l4.1-.9q2.15-.75 3.1-1.5m-20.15 25.95q-.4.1-1.3-.9-.85-1.05-.45-1.15l4.6-1.9 4.6-2.05q.4-.15.8 1.3.4 1.4.05 1.6zm-84.4-32.6q.4-.1 1.6 1.05 1.15 1.2.75 1.35-5.9 2.25-11.3 5.3-5.1 2.85-6.2 4.4-1.15 1.6-.95 6.35.2 4.2.85 5.35.2.35-.65.85l-1.1.15q-.9-1.6-1.45-6.55-.6-5.85.95-8.05 1.4-1.9 6.35-4.85 5.15-3.05 11.15-5.35"/><path fill="#0d131a" d="M104.1 65q1.65-1.4 2.55-1.35.85.05-.65 1.55-2.65 2.65-5.45 6.55-3 4.1-3.5 6-.65 2.35-.2 5.25.5 3 1.95 4.25l2.85.15q.35-.2.8.75.45.9.05 1.05-2.8 1.4-4.95-.4-1.95-1.65-2.75-5.55-.75-3.75.05-6.6.65-2.35 3.5-5.85 2.6-3.15 5.75-5.8"/><path fill="#0d131a" d="M106.6 80.3q1.55-1.55 2.8-1.5 1.2.05-.25 1.75-2.7 2.85-4.9 6.15-4.3 6.5-3.7 11 .6 4.8 6.3 8.75.35.25-.2 1.05t-.95.6q-3.4-1.65-5.45-4.15-1.95-2.4-2.35-5.3-.8-6.45 3.1-12.2 1.1-1.65 5.6-6.15"/><path fill="#0d131a" d="M110.9 98.3q1.65-1.65 2.75-1.75 1.05-.1-.45 1.65-2.7 3.15-6.2 9.6-5.05 9.45-4.45 12.7.45 2.35 5.95 6 5.7 3.75 11.05 4.9 3.6.8 5.5-.6 1.9-1.35 1.35-4.2-.4-2.35-2.5-5-1.7-2.1-3.6-3.4-.55-.3-.4-1 .3-1.6 3.2-6.7l2.85-4.8q.4-.55 1-.5l7.9.6 7.35.3q.4 0 .4 1.3t-.4 1.3l-14.85-1.45-2.25 4.45q-2.05 4.15-2.45 5.55 5.2 4 6 8.35.65 3.65-2.2 6.15-3.2 2.7-8.5 1.55-5.8-1.25-11.75-5-6.35-4.05-6.8-7.5-.6-4.55 4.25-12.7 3.8-6.4 7.25-9.8"/><path fill="#0d131a" d="M142.1 103.15q.85.6 1.05 2.15.8 5.35-1.35 6.55l-5.3 3.2q-5.1 3.5-6.5 6.75-1.35 3.15-.4 6.2.9 2.85 2.7 3 3.3.35 10.2-1.55 7.2-2.05 9.1-4.2 2.35-2.75 4.7-7.05 2.55-4.75 2.65-7.25 0-.4 1-.4 1 .05 1 .45-.1 2.95-2.85 8.45-2.6 5.15-5.1 8-2.55 2.95-9.7 4.95-7.05 2-11.4 1.05-3.3-.7-4.55-5.2-1.15-4.3.5-8.05 1.5-3.4 7.35-7.05 2.95-1.85 5.6-3.05.45-.3.7-2.3.25-2.05 0-3.7-.2-1.55.6-.95m-35.25 24.1 1.65.1q1.45.5 1.25.85-16.95 31.5-9.55 70.15 3.3 17.05 11.05 32.15 7.65 14.85 18.2 25 22.3 21.4 55.55 27.7 29.35 5.55 57.5-1.85.85-.25 4.45.05l3.2.45q-29.5 11.65-61.25 6.9-34.45-5.15-59.75-28.4-11.05-10.2-19.3-25.9-8.25-15.85-11.95-34-3.85-19.05-1.85-37.3 2.1-19.7 10.8-35.9"/><path fill="#0d131a" d="M90.85 155.1q1.5-3 2.65-3.7 1.1-.7-.4 2.3-2.3 4.6-3.55 14.85-1.25 10.3-.4 17.45.05.4-1.4.3t-1.55-.5q-.85-7.3.7-16.7 1.4-8.9 3.95-14"/><path fill="#0d131a" d="M88.45 185.4q2.3.15 3.3.8 1.05.65-1.1.8-14.1.85-25.65 8.45-11.5 7.65-17.25 19.95-1.2 2.55-1.65 1.6t.7-3.55q6.1-13.75 17.6-21.4 11.25-7.5 24.05-6.65m11.7-95.8q.4-.1.75 1.35.35 1.5-.05 1.6-17.9 4.1-32.95 9.6-24.95 9-32.6 18.7-8.6 10.85-10.05 25.85-1.45 14.95 4.55 31.3.75 2.1-.45 1.35-1.25-.75-2-2.8-6.2-16.9-4.8-31.8 1.4-14.95 10.3-26.25 8.6-10.95 32.65-19.4 12.15-4.3 34.65-9.5M140.9 280q12.8-.5 18.65-3.9.35-.25 1.3 1.55.9 1.75.55 1.95-6.55 4.25-20.5 4.8-13.4.5-29.65-2.5-16.65-3.1-30.95-8.9-15.5-6.3-24.5-14.4-1.9-1.75-2.15-3.05-.25-1.25 1.75.25 21.25 16.1 57.45 22.1 15.35 2.55 28.05 2.1"/><path fill="#0d131a" d="M25.6 169.05q.2-.3.95 1.05l.65 1.45-3.5 3.5-5 4.05q1.8 1.3 5.7 2.75 3.35 1.25 5.5 1.7 1.05.25.95 1.15l-.3 1.65-.45 1.25-1.35-.5q-.1 0 .1-.85l.05-.85q-5.7-.95-10.7-3.3-5.15-2.35-3.45-3.45 1.8-1.15 6.2-5.05z"/><path fill="#0d131a" d="M16.55 197.6q-.1-3.1 1.5-6.75 1.7-4.05 4-5 2.75-1.05 8.55 1.05 6.4 2.35 9.5 6.55l-1.95.45q-1.85-2.65-7.3-4.7-5.5-2.1-7.9-.9-1.5.75-2.6 3.4-1.1 2.8-1.05 5.8.05.4-1.35.45t-1.4-.35"/><path fill="#0d131a" d="m23.4 196.4 16.65-3.6q1.7-8.55 2.2-9.85.25-.5 2.6 2.8l3.3 5.05q2-1.15 9.85-8.25l8.5-7.55q.7-.4 2.95 3.75l2.95 5.4 3.1-1.9q2.25-1.35 3.3-1.7.95-.35 1.95 2.5.85 2.5.85 4.15 0 .4-1 .4t-1-.4l-.4-1.75-.8-2.25q-2.15.95-5.7 3.1-.7.55-1.3-.15l-2.9-3.8-2.1-2.95q-12.05 10.25-18.3 14.1-.45.25-1.8-1.9-1.85-2.9-2.7-3.75l-1.15 3.8q-.85 2.75-1.3 2.9-10.75 3.65-14.3 4.4.25 2.7 1.95 8.3l2.55 7.4q.25.55-3.2 3.25L20 224.2l7.9 2.85q1.65.65 1.9 1.3.15.6-.55 2.3-2.2 5.15-9.05 15 3.9.7 8.9 2.05 3.65 1 5.7 1.75 1.9.65.8 1.35-1.1.65-3.05 0l-9.3-2q-7.1-1.4-7.25-1.75l4.6-6.3q5.2-7 6.65-11.9-7.05-2.15-9.5-3.1-3-1.2-2.2-1.75l7.3-5.1 6-4.4q-1.65-3.75-3.8-9.85-2.75-8.1-1.65-8.25"/><path fill="#0d131a" d="m31.65 249.65 1.05-.05.95.4-1.45 5.15 6.25.85q.85.15 1.1 2.35l.2 5.75h4.45l3.3-.35q.95-.15 1.2.7.95 3.05 2.7 5.6 3.45-1.65 8.1-4.1l5.7-3.2q.35-.25.7.9.35 1.1 0 1.35-4.25 2.95-9.75 6.1-5.6 3.2-5.8 2.8-.8-1.35-3.25-8.05l-6.2.9-4.5-.2.7-4.05q.45-3.25.25-4.7l-6.25.2q-2.85.2-2.7-.45 3.05-6.65 3.25-7.9"/><path fill="#0d131a" d="M9.6 196.55q1.85-.9 7.45-.65 5.25.25 8.95 1.25.4.1.15 1.1-.3.95-.7.85l-8.2-.65q-4.95.2-6.55 1-2.05 1.05-3.95 7.6-1.8 6.15-2.75 14.4-2.35 19.95 2 24.1 4.1 3.85 12.45 5.45 7.1 1.4 13.3.65.4-.05.3 1.15-.1 1.15-.5 1.2l-14.45-.45Q7.85 252 3.5 247.9q-5.65-5.4-2.55-27.15 1.25-8.95 3.6-15.7 2.5-7.2 5.05-8.5M299 142.1q.45.55.4 1.2 0 .65-.5 1.05l-1.2.4q-.7-.05-1.15-.55t-.4-1.3q.05-.75.55-1.15.55-.4 1.2-.3t1.1.65m-38-33.35q-.5-.5-.45-1.3.1-.8.6-1.25.7-.7 1.9.6 1.15 1.3.45 2-.45.4-1.25.4-.85 0-1.25-.45m-32.7 16.15q-.1-8.2 4.15-14 4.15-5.6 9.75-5.6 5.25 0 10.5 4.55 5.1 4.45 7.2 10.5 4.7.4 9.45 2.65 4.95 2.3 8.2 5.9 5.35 5.95 5.35 13.25 0 6.4-3.75 10.75-5.3 6.2-16.15 5.1-11.75-1.15-22.85-10.6-5.6-4.75-8.7-10.55-3.05-5.85-3.15-11.95m14.35-16.6q-4.9 0-8.6 4.95-3.8 5.05-3.7 11.6.1 5.7 2.95 11.15 2.85 5.4 8.15 9.9 10.3 8.7 21 9.9 9.9 1.1 14.6-4.4 3.5-4.1 3.1-9.9-.4-6.15-5.1-11.35-3.2-3.5-7.4-5.6-4.25-2.1-8.55-2.3-.65 0-.9-.7-1.7-5.55-6.25-9.4-4.5-3.85-9.3-3.85"/><path fill="#0d131a" d="M258.4 145.75q-.7-.6 1.5-2.95 2.15-2.3 3.5-2.65 1.35-.4 2.2.75.9 1.15-.4 2.6-1.15 1.3-3.55 2.1zm-19-17.25q-.35-.4.25-2.35.6-2.2 1.7-3.3 1.25-1.2 2.4-.5 1.1.7.85 2.15-.25 1.4-2.35 3.05t-2.85.95m89.15-53.15q9 5.75 14.35 15.65 5 9.4 6.05 21 1 11.4-2.05 22.7-3.15 11.65-9.95 20.85-.9 1.2-4.05 1.05l-6.75-.85q-9.25-1.2-13.25.6-.4.25-6.3 15.3-6.75 15.8-11.5 19.8-.3.25-1.45-.3-1.1-.55-.85-.85 4.6-5.4 11.7-21.25 6.3-13.95 6.85-14.75-4.95-3.6-16.15-13.6-13-11.7-22.7-21.75-12.35-12.85-19.3-22-8.15-10.8-7.15-14.45 1.45-5.35 5.65-9.55 4.4-4.45 11.25-7.05 13.85-5.3 30-3.5 18.35 2 35.6 12.95m12.15 16.3q-4.95-9.35-13.25-14.6-15.6-9.9-33.95-11.8-16.25-1.65-28.85 3.2-13.8 5.3-16.25 14.05-.8 2.7 7.05 13 6.9 9.05 18.65 21.65 9.85 10.5 22.3 21.95 11.05 10.15 17.05 14.5 4.5-.95 12.95.15l5 .5q2.6.15 3.05-.45 13.85-18.7 11.9-42.25-.95-11.05-5.65-19.9"/><path fill="#0d131a" d="M272.75 64.45q.1.4-.8 1-.95.6-1.1.2-8.8-24.9-28.4-43.95-8.25-8.05-16.6-13-8.05-4.8-14.05-5.4-9.9-.95-32 9.3-22.05 10.3-34.6 21.7-.5.45-1.05.2l-9.95-3.35q-7.3-2.25-11.2-2.95 1.6 3.45 3.85 7.15 2.4 3.95 3.85 5.4.65.7-5.7 2.55l-13.85 3.85 11.25 9.3q6.9 6 6.9 6.95l-3.55 10.3-4.8 13.4 9.5.05 8.05.45q.55.1-.5 3.25-1.6 4.75-1.75 9.3l7.5-1.15 6.4-.7q.7-.05.3 5.55l-.75 7.95q3.45-2 6.15-3.15 2.9-1.25 3.35-.75l3.9 6.15 3.9 6.65 2.45-3.85.7 2.1-3.25 4.4q-.3-.1-4.35-6.1-4.05-6.05-4.5-7.25l-10.35 5.9q-1.3.65-.55-5.5l1.4-10q-1.9 0-9.1 1.65-5.85 1.35-5.95.6-.1-1.2.85-6.05.95-4.9 1.7-6.75-1.85-.15-11-.2l-7.95-.35q-.3-.35 3.95-10.85l5.7-14.65q-2.75-2.95-13-10.55-8.2-6.05-7.3-6.65 2.75-1.85 10-3.65l10.45-2.45q-4.6-7.1-6.45-11.2-1.75-3.8-.6-3.8 3.55.05 12.65 2.45 7.9 2.1 12.25 3.75 11.9-11.7 34.3-22.2 22.4-10.55 33.2-9.45 6.3.65 15 5.9 8.85 5.35 17.6 13.95 20.6 20.35 27.9 44.55"/></svg>