<svg xmlns="http://www.w3.org/2000/svg" width="498" height="310" viewBox="-0.4 -0.4 498 310.4"><path fill="#eef3f6" d="M425.9 18.7q27.4-8.3 45.6-12 19.25-3.9 19.55-.8.25 2.4-8.4 19.6-8.8 17.55-20.5 37.65-30.95 53.3-43.45 59.85-14.6 7.65-27.15 12.95-13.75 5.75-28.75 10.35 20.45-1.35 38 .1 7.75.65 8.55 4.9.8 4.4-6.4 11.3-11.1 10.6-27.15 22.95Q355 201.6 348 202.2q-9.35.7-31.9-2.65-25.2-3.7-38.35-9l-14.85-33.5q1.75-6.35 7.15-18.85 6.55-15.3 14.4-29.55 22-40 42.7-51.65 32.7-18.35 98.75-38.3"/><path fill="#cacfd2" d="m277.75 190.55-14.85-33.5q1.6-5.65 6-16.15 13.3 9.45 24.3 25.7 8.5 12.65 17.2 32.05-21.3-3.5-32.65-8.1"/><path fill="#adb2b4" d="m147.75 207.45 8.85 3.55-7.55 6.95q-8.3 7.1-12.2 7.95-4.3.95-8.25-2.3-1.5-1.3-1.85-2.4-.3-1.15 1-1.3 2.45-.3 9.85-5.05 6.7-4.35 10.15-7.4"/><path fill="#838688" d="m147.75 207.45 8.85 3.55-5.85 5.5q-6.7 5.9-10.9 8.2 1.3-6.1.15-11.45 5.45-3.75 7.75-5.8"/><path fill="#eef3f6" d="M18.55 98.5Q9.3 80.9 5.3 68.95.7 55.25 4.6 53.2q3.95-2.05 19.6 4.45 14.3 5.95 33.7 17 19.2 10.9 35.05 22.05 17.05 12 23.65 19.65l-5.4 21.5q-5.1 21.45-3.8 21.1l20.95 41.1q-25.4-1.45-43.5-8.8-14.9-6.05-20.35-13.75-3.85-5.4 8.1-10 7.3-2.85 24.15-6.25-36.95-10.1-47.25-16.45-4.25-2.6-13.45-16.5-8.9-13.4-17.5-29.8"/><path fill="#3e4e57" d="M268.1 164.7q8.4 13.3 8.4 24.7l3.1 2q1.85 1.65 3.2 4.6-6.05 28.65-31.95 38.9-12.7 5.05-35.4 5.7-32.3-8.6-59-28.65l74.5-80.85q25.3 14.9 37.15 33.6"/><path fill="#27333a" d="M276.95 212.2q-9.8 18.2-31.95 24.7-10.7 3.15-29.55 3.7-32.3-8.6-59-28.65l68.75-74.6q30.5 29.45 51.75 74.85"/><path fill="#3e4e57" d="M282.95 238.9q-2.65 5.35-6.45 6.25l-11.35 1.25q-10 .45-21.1-.6 24.65-7.4 42.2-19.3-.95 7.55-3.3 12.4"/><path fill="#27333a" d="m276.5 245.15-11.35 1.25q-10 .45-21.1-.6 21.65-6.55 37.6-16.35l2.25 7.15q-2.8 7.5-7.4 8.55"/><path fill="#ffe792" d="M285.85 207.3q1.6 9.1.4 19.2-7.05 9.7-20.45 14.55-8.1 2.95-21.75 4.75-14.75-1.5-28.6-5.2l19.95-2.55q11.8-2 20-5.7 21.9-9.85 27.4-36.35 1.8 4.15 3.05 11.3"/><path fill="#dbc77f" d="M278.35 211.4q1.55 2.35 3.1 8.7 1.65 6.5 2.95 8.7-7.15 8.35-19.85 12.65-7.6 2.6-20.5 4.35-14.75-1.5-28.6-5.2l16.8-2.05q10.45-1.55 17.95-4 20.7-6.7 28.15-23.15"/><path fill="#adb2b4" d="M121.7 221.85q2.15-3.4 5.65-1.9 5.05 2.15 7.55 6.45l6.35 13.95q5.05 11.25 16.75 27.9 12.4 17.55 18.2 20.55l1.5.15q4.5 4.4 6.25 6.5l-.2.45q-1.55 4-7.5 6.1-5.9 2.1-13.85 1.5l-11-1.4q-4.9-1.1-8.35-3.8-7.1-5.5-14.7-25.05-9.35-24-8.95-40.8.15-7.25 2.3-10.6"/><path fill="#838688" d="M154.25 288.6q.45-10.45-6.4-36.05Q155 264.55 163 275q8.8 11.55 13.2 13.8l1.5.15q4.5 4.4 6.25 6.5l-.2.45q-1.55 4-7.5 6.1-5.9 2.1-13.85 1.5l-9.1-1q-4.25-.75-7.2-2.25 7.75-1.4 8.15-11.65"/><path fill="#dbc77f" d="M183.95 295.45q-1.75-2.1-6.25-6.5l9.15-1.45z"/><path fill="#e85377" d="m7.5 73.05 13.45 4.25q10.1 3.25 13.4 4.7-2 3.35-15.6 15.95L12.5 85.9q-6.05-12.2-5-12.85M34 124.1 18.75 97.95l15.35 3.7q13.05 3.3 15.8 4.25-1.95 2.95-15.9 18.2"/><path fill="#e85377" d="M49.5 144.8 34 124.1l29.5 7.3zM482.15 25q-1.3 4-13.55 28.5l-21.25-19.55q2.75-1.15 17.9-4.95z"/><path fill="#e85377" d="m450 84-21.55-17.55 39.45-14.6zm-41.25 29.25-8.1-6.7Q447.05 86.35 450 84q-2 5.2-12.45 19.3-12.2 16.45-18.7 18.85-1.65-1.85-10.1-8.9"/><path fill="#0d131a" d="M2.5 50.25Q6.8 48 23.1 54.9q14.65 6.15 34.8 17.85 19.55 11.3 35.9 22.95 17.35 12.3 23.8 19.8l-1.95 1.65q-6.7-7.8-23.7-19.75-15.65-10.95-34.7-21.8-19.05-10.8-33.1-16.75-15.3-6.4-18.95-4.5-1 .45-1.1 2.8-.4 12.1 19.3 47.55 7.95 14.4 15.5 25.45 7.8 11.4 11.25 13.55 7.05 4.3 28.35 10.95 10.7 3.3 20.2 5.8l-.65 2.45q-10.15-2.65-20.85-6-21.1-6.55-28.4-11-3.8-2.35-12.05-14.3-8-11.6-16.45-26.65Q-.4 68 .05 55.3q.1-3.8 2.45-5.05"/><path fill="#0d131a" d="m7.95 74.45-1.3-2.5q9.8 2.1 32.4 10.2 25.8 9.25 29.8 13.55 4 4.25 19.1 25.1 15.15 20.9 15.95 23.3l-.95 3.6q-.7-2-15.85-23.35-15.5-21.75-19.55-26.1-3.7-4-27.85-13.25-22.3-8.5-31.75-10.55"/><path fill="#0d131a" d="M18.7 97.05 34.25 82.4l1.15.3-5.7 6.5-7.1 7.8 25 6.95q25.4 7.5 35.25 12.45l.9 2.75q-10.15-5.4-28.2-10.9-10.35-3.15-27.45-7.4l-9-2.3z"/><path fill="#0d131a" d="m48.85 106 1.2.25-12.7 17.1 26.25 6.25q26.2 6.7 36.45 11.7l.2 2q-9-4.15-25.65-8.6l-27-6.4-13.45-3.15-.4-1.35z"/><path fill="#0d131a" d="m48.9 144.2 13.75-12.9 1.2.3-12 13.9zm108.65 67.75L151 218q-7.45 6.35-14.2 9.8l-1.6-1.3q-1.45-1.4-1-1.5 3-.6 10-5.45 6.3-4.4 10.1-8.05l-6.35-2.55-8.35 6.1q-5.9 3.9-9.4 5.35-.35-.3-1.65-.65t-1.7-.65q2.5-.55 9.75-5.2 6.95-4.45 10.25-7.4zm-83.65-43.9q-7.8 2.75-8.95 5.65-.5 1.45.6 3.05 5.3 8 19.4 13.65 16.45 6.6 40.65 8l2.3 1.7q-25.4-1.1-43.75-8-16.1-6.05-21.65-14.35-1.9-2.85-.85-5.45 1.45-3.7 9.9-6.55 3.05-1 15.75-4.05l4.95-1.2.65 2.45-5 1.25q-9.45 2.25-14 3.85"/><path fill="#0d131a" d="m74.7 185.9-2.35-1.05q5.65-3.1 12.2-4.85 4.35-1.2 10.15-2l.3-.05.3 2.6-9.45 1.3q-5.9 1.15-11.15 4.05m37.25 4.05 1-.1.15 1.65-.65.6-6.3.6q-3.6.7-7.6 2.95l-1.6-1.1q4.45-2.5 8.25-3.55 2.75-.75 6.75-1.05M230.3 132.2l1.3-2.25q45.2 25.7 46.15 58.7 3.5 1.9 5.55 4.85 3.45 4.95 5.05 14.45.95 5.5.65 11.7-.75 12.75-2.2 18.05-2.2 7.9-7.45 9.15-5.9 1.4-17.35 1.55-15.1.25-30.6-2.25Q186.85 239 155.65 213l3.3-.9q30.3 22.4 71.95 29.9 14.9 2.65 28.8 2.95 11.25.2 16.5-1.05 5.6-1.35 8.1-13.25 2.3-11.3.3-23.15-1.5-8.85-3.95-12.8-1.45-2.3-4.25-3.85l-1.2-1.45q0-9.65-6.4-21.1-11.25-20.05-38.5-36.1"/><path fill="#0d131a" d="m286.05 220.1 1 3.4q-1.6 4.55-2.4 5.95-2 3.7-5.85 6.35-10.4 7.3-37.5 9.7l-2.8-1.6q26-2.3 37.9-10.75 6.8-4.8 9.65-13.05"/><path fill="#0d131a" d="m281.6 195.35 1.7.9q-.2 5.9-2.4 11.95-3.4 9.3-10.95 16.3-9.95 9.15-23.1 12.9-13.8 3.95-34.35 3l-4.05-2.45q41.1 1.9 59.75-15.35 7.1-6.55 10.7-15.65 2.55-6.35 2.7-11.6"/><path fill="#0d131a" d="m256.45 216.15 1.8 1.85q-12.4 11.8-41.8 13.55-11.15.65-22-.4-9.75-.9-14.6-2.65l.85-2.4q4.7 1.7 14.15 2.6 10.55 1 21.3.4 28.4-1.6 40.3-12.95"/><path fill="#0d131a" d="M275.6 187.65q.55-3.1 1.25-.55l.6 3.15q-2.6 11.1-9.4 20.15-7.55 10.15-17.55 13.45-10.6 3.55-24.95 2.6-9.3-.65-26.75-4.05l-3.3 8.45-2.3-1.15q1.35-2.75 3-9l1.4-.9q16.6 3.25 27.3 3.8 14.8.8 25.3-2.75 9-3 17-14.6 6.9-10.05 8.4-18.6"/><path fill="#0d131a" d="m181.4 208.9 2.05-1.55q1.8 2.4 7.2 6.9 5.25 4.35 8.15 5.95l-1.25 2.25q-3.1-1.7-8.55-6.25-5.7-4.7-7.6-7.3M496 1.6q1.6 1.9.15 5.5-12.65 31.45-37.9 70.6-24.75 38.45-36.05 45.05-14.05 8.2-27.95 13.95-11.55 4.8-27.65 9.7l-9.55-.3q15.6-4.75 33-11.7 18.9-7.5 28.75-13.2 7.5-4.35 17.75-18.95 8.3-11.85 24.3-39.45 12-20.65 20.8-38.2 7.85-15.6 8.1-18.4-2.4-1.65-21.45 2.55-18.85 4.2-44.45 11.95Q360.1 40 327.8 58.1q-20.25 11.35-42.2 51.25-7.8 14.15-14.4 29.4-5.35 12.4-7.1 18.65l-1.95-3.65q2-7.2 7.05-19.3 6.25-14.95 13.75-28.65 20.8-38.1 41.55-49.75 31.6-17.7 84.35-35.55Q461.2 2.85 489.75.05 494.3-.4 496 1.6"/><path fill="#0d131a" d="M459.8 29.3q17.45-4.6 21.8-5.05l.2 1.65q-4.45.45-21.8 5.25-19.5 5.4-38.95 12-54.45 18.45-64.3 30.95-11.25 14.35-23.9 36.5-12.2 21.45-14.2 29.65l-5.9 3q2-8.2 15.85-32.1 14.15-24.3 25.6-38.9 10.35-13.15 66.05-31.3 19.6-6.4 39.55-11.65"/><path fill="#0d131a" d="m448.85 83.15.95 1.35q-9.15 6.4-77.05 35.25-72.05 30.65-106.65 41.5l-1.2-2.55Q302 145.95 373 116.6q68.55-28.4 75.85-33.45m-2.4-48.6 2.65-.3L469.6 51l-2.55 2.55q-14.35 4.7-68.8 26.6Q366.3 93 334 106.3l3.5-4.95q17.65-7.2 60.8-23.9 50.8-19.7 66.95-25.05z"/><path fill="#0d131a" d="m427.1 67.45 2.15-.65 22 13.8-1.45 3.9zm-27.6 39.65 1.5-.95 10.05 6.45q8.85 6.1 9.7 9.1l-2.85 1.5q-.65-2.35-7.8-8.2zm4.85 56.8q-11.5 11.05-26.4 22.85-21.2 16.8-28.55 17.4-9.2.75-30.75-2.25-24.6-3.4-37.95-8.75l-2.8-3.65q13.2 5.25 38.6 8.9 22.55 3.2 31.4 2.5 6.6-.55 26.7-16 16.1-12.35 27.45-23.25 3.4-3.25 5-6.05 1.5-2.75.9-4.55-1-2.8-7.25-3.35-54.6-4.65-132.35 17.8l-.7-2.45q39.2-11.35 73-16.05 34.35-4.75 61.55-2.45 4.45.4 7.1 2.05 2.1 1.35 2.75 3.15.9 2.55-1.3 6.4-2 3.6-6.4 7.75"/><path fill="#0d131a" d="m397 166.45-.05 1.65q-22.05-.55-48.15 0-52.1 1.05-75.25 6.3l-.65-2.85q23.25-5.3 75.65-5.75 26.3-.2 48.45.65"/><path fill="#0d131a" d="m368.45 190.35-2.65 2.7q-43.45-6.25-46.6-7.7-1.9-.85-6.65-9.1l-4.4-8.1 2.2.05 4.2 7.15q4.4 7.3 5.45 7.75 1.65.75 48.45 7.25m-228.35 50.5-2.7-6.15q-2.95-6.9-4.45-8.95-2.05-2.9-6.1-4.6-1.95-.8-3.35.45-3.55 3.55-2.6 16.55 1.1 15.3 8.65 34.65 7.5 19.25 14.5 24.6 3.3 2.55 8.05 3.55l10.4 1.25q7.5.55 13.05-1.3 5.6-1.9 7.05-5.55l1.25-2.55q1-2.25 1.05-3.6-7.7 1.6-9.3.75-6.05-3.1-18.6-20.95-11.8-16.75-16.9-28.15m-18.4-21.05q1.25-1.25 3.3-1.65l3.8.25q5.8 2.25 9.45 10 2.05 4.4 5.3 13.55 3.45 7.7 15.05 24.4 12.8 18.5 18.15 21.3l3.6-.25 4.95-1 2.6-.4q.5.2.3 1.5-.4 2.35-1.45 5.05l-1.8 3.85q-1.8 4.5-8.05 7.05-6.45 2.7-14.7 2.05l-11.75-1.4q-5.3-1.15-9-3.85-7.8-5.65-15.4-25.15-7.6-19.45-8.3-36.1-.6-14.75 3.95-19.2"/><path fill="#0d131a" d="M173.65 288.55q-2.35-1.8-1.15-2.15 1.2-.4 3.95 1.15 4.05 2.3 5.75 5.35 1.45 2.6.75 4.6-.6 1.85-3.25 3.4-2.6 1.5-.75-1.55 1.75-2.85-.45-6.05-1.35-2-4.85-4.75"/><path fill="#ffe792" d="m237.6 134.2 7.9 2.05q8.45 2.8 11.3 6.7 6.2 8.4 5.45 22.15-.4 7.25-1.3 8.65-1.75 2.6-7.9-.75-5.45-2.95-10.25-11.55l-6.85-11.85-7.5-24.6q3.9 3 10.85 13.75 6.75 10.4 7.1 13.4.3 2.95 2.9 4.85 2.65 1.9 2.95-1.1.3-3.1-1.05-7-1.35-3.8-3.55-6.35-1.85-2.1-4.65-3.55l-2.45-1.05z"/><path fill="#dbc77f" d="M228.45 125q3.9 3 10.85 13.75 6.75 10.4 7.1 13.4.4 3.5 4.35 6.05 4.1 2.7 4.9-3.1l.95-8.75-.05-5.05q2.6 4.4 4.3 11.6 1.65 7.05 1.4 12.2-.4 7.25-1.3 8.65-1.75 2.6-7.9-.75-5.45-2.95-10.25-11.55l-6.85-11.85z"/><path fill="#838688" d="M204.55 244.9q-3.55.45-15.65-9.6-8.65-7.1-9.7-11.1-.95-3.45 3.45-2.95 2 .25 9.55 5.35l1.25-.7q1.5-.4 2.8 1.15l4 4.4q2.75 3.3 4.45 7.2 2.5 5.95-.15 6.25m48.8-2.25q-5.05-2.85-10.8-8.35-5.8-5.55-8.85-10.5-3.1-4.95-1.7-6.4t6.45 1.4q5.05 2.9 10.85 8.4 5.75 5.5 8.85 10.45t1.7 6.4q-1.45 1.45-6.5-1.4"/><path fill="#ffe792" d="M220.5 101.25q2.9 12.65 3.75 14.65.65 1.55 3.75 6.7 3 4.9 4.55 8.8 5.2 12.7 2.9 29.75-3.05 22.3-22.35 34.6-6.5 4.1-15 7.15l-10.95 3.45q-2.6 4.85-17 6.1-14.25 1.25-18.55-2.65-18.35-2.75-31.2-11.15-14.7-9.6-19.1-24.8-4.1-14.2 4.65-35.45 2.7-6.65 6.4-13.2l3.15-5.2q1.4-5.35 3.25-11.1 3.7-11.6 5.9-13.8 1.8-1.8 7.8 5.8 6.2 7.95 8.5 6.9 12.8-5.85 34.85-3.75 11.05 1.05 19.5 3.25l8.25-6.95q8.9-7 12.05-7.3 3-.3 4.9 8.2"/><path fill="#dbc77f" d="M224.25 115.9q.65 1.55 3.75 6.7 3 4.9 4.55 8.8 5.2 12.7 2.9 29.75-3.05 22.3-22.35 34.6-6.5 4.1-15 7.15l-10.95 3.45q-2.15 4.05-13.4 5.7-10.8 1.6-18.15-.4 5.7-4.9 7-9.85 1.55-5.8-1.95-14.35 1.65-.95 6.25-2.25l8.4-2.4q10.4-3.3 9.65-7.15-1.75-7.6-2.5-18.6-.7-10.85.45-12 7.35-7.35 16.85-21.6 10.85-16.3 17.55-31.7 1.15 2.25 3.35 11.45 2.3 9.7 3.6 12.7m-66.6-12.1q-14 6.6-22.5 25.95-1.95 4.45-4.35 10.55-1.65 3.45-2.9 1-4-7.45-4.15-27.35-.05-6.65.35-13.1.3-5.5.55-5.75 1.8-1.8 7.8 5.8 6.2 7.95 8.5 6.9 6.9-3.15 16.7-4"/><path fill="#3e4e57" d="M171 146q-1.5 6.3-6.85 9.55 9-.15 22.3 1.85 10.2 1.55 16.7 3.25.25 3.45-.55 20.55-9.7-2.4-25.9-3.5-32.45-2.2-65.15 4.3-2.05-3-1.5-11.65l.95-8.1q2.55-1.25 10.15-2.85l13.1-2.25q-5.5-6.25-1-15.9 4.45-9.4 13.25-11.85 7.4-2.05 13.2-1 6.9 1.3 10.05 6.85 2.7 4.8 1.25 10.75"/><path fill="#27333a" d="M133.25 141.25q4.45-9.4 13.25-11.85 10.5-2.95 17.3.35-4.85-.8-10.85.6-6.35 1.55-10.85 5-11.45 8.8-3.3 22.95.95 1.55-6.6 3.35-14.15 3.3-21.9 5.9l.7-5.3q2.55-1.25 10.15-2.85l13.1-2.25q-5.5-6.25-1-15.9m61.3 22.15q-5.65-2.8-18.25-7.25l15.9 2.2q6.7 1.2 10.95 2.3l-.1 9.3q-1.8-3.25-8.5-6.55"/><path fill="#838688" d="M162.95 191.25q-1.3-3.45.1-4.15l12.2-1 27.9-1.95q6.85-.8 12.05 1.25 5 2.05 4.25 4.95-1.1 4.45-11.55 9.5-10.4 5-21.85 6.75-10.15 1.55-18.6-8.2-3.2-3.65-4.5-7.15"/><path fill="#adb2b4" d="M135.55 187.6q-.45 3.45 6.1 12.3 7.05 9.55 13.7 12.3-9.45-2.05-19.75-5.85-20.65-7.55-24.85-16.35l11.45-1.4z"/><path fill="#838688" d="M142.9 201.55q6.55 8.2 12.45 10.65-9.9-2.15-20.45-6.1 5-1.4 8-4.55m97.35-12.95q.7.55 10.6 12.65 8.6 10.55 10.65 10.05 1.25-.3 1.45.75.15 1.05-.7 2.6-2.25 4.05-6.6 4.7-3.95.6-10.95-10.9-3.15-5.2-7.15-13.5-1.55-3.25-.65-5.75.9-2.55 3.35-.6"/><path fill="#ffe792" d="m231.15 296.85-1.9-2.8q5.6-1.4 8.05-2.55-.15 4.55 1.25 10.4-4.6-1.85-7.4-5.05"/><path fill="#adb2b4" d="M258.3 213.5q2.8-2.65 6.75-.95 4.05 1.7 7.65 7.4 8.85 13.95 8.55 38.95-.2 21.25-4.7 30.1-3.65 7.2-15.55 14.2-6.75 3.95-12.5 3.8-6.1-.15-9.45-4.9l-.5-.2q-1.4-5.85-1.25-10.4l1.05-.7q4.35-4.8 9.75-25.6 5.1-19.7 5.85-32.05.05-10.75.25-13.1.3-2.95 4.1-6.55"/><path fill="#838688" d="M258.3 213.5q2.8-2.65 6.75-.95 4.05 1.7 7.65 7.4 8.85 13.95 8.55 38.95-.2 21.25-4.7 30.1-3.65 7.2-15.55 14.2-6.75 3.95-12.5 3.8-6.1-.15-9.45-4.9l-.5-.2q-1.4-5.85-1.25-10.4l1.05-.7q4.35-4.8 9.75-25.6 5.1-19.7 5.85-32.05.05-10.75.25-13.1.3-2.95 4.1-6.55"/><path fill="#adb2b4" d="M249.85 258.05q9.25 3.6 8.35 20.8-.75 14.35-6.95 28-8 1.1-12.2-4.75l-.5-.2q-1.4-5.85-1.25-10.4l1.05-.7q2.65-2.9 5.9-12.55 3-8.7 5.6-20.2"/><path fill="#0d131a" d="M249.9 155.25q.6.7 1.1-.45t-1-5.15q-1.55-4.15-3.35-6.25-2-2.3-5.25-3.75l3.85 6.1 2.35 4.65q1.65 4.05 2.3 4.85m-17.3-21.9-3.4-9.35 9.45 8.4q3.15.5 7 1.95 7.4 2.85 12.2 7.85 3.35 3.45 4.55 7.65 1.3 4.35 1.2 12.55-.1 13.4-4.35 15-2.1.75-7.05-2.25-5.25-3.15-10.9-12.85-4.8-9.5-5.55-10.35l-.3-6q.8.95 6.6 11.65 6.5 10.95 11.65 14.3 3.9 2.55 5.7-.8 1.4-2.6 1.75-9.6.4-9.85-5.35-17.8-2.05-2.75-7.7-5.4-5.3-2.45-7.3-2.1l.5.65q4.3 1.45 7.3 4.85 2.2 2.5 3.6 6.2 1.35 3.6 1.35 6.9l-.3 2.5q-.65 2.05-2.35 1.6-1.85-.5-3.45-2.75-1.25-1.85-2.15-4.5-1.55-4.45-5.15-9.75-3.8-5.65-7.55-8.55m-33.3 98.35-3.4-4.2q-1.05-.7-1.85-.65l-.6.15 8.9 8.8zm5.2 11.9q.5 0 .65-.6.3-.95-.55-3.1l-9.25-8.35q-8-7.2-12.85-9l-1.45-.1-.7.5q-.35 1 1.45 3.45 2.4 3.35 7.9 7.9 7.9 6.55 12.05 8.6 2.15 1 2.75.7m1.4-5.45q2.45 5.8.15 7.5-1.6 1.2-4.85-.25-4.5-1.95-13.15-9.1-11.95-9.9-10.05-14.35 1.05-2.35 4.8-1.95 2.15.25 9.4 5.05.95-.55 1.9-.5 1.75 0 3.1 1.7l1.65 1.75 3.5 4.05q2.15 2.85 3.55 6.1m47 2.75-.35 2.8q-5.4-3.15-10.9-8.5-4.05-3.9-7.4-8.8-3.15-4.7-3.95-7.7-.95-3.55 2.95-3.05 2.9.45 7.85 3.55 4.9 3.05 9.1 7.05l3.1 3.2v3.8q-2.25-2.65-8.6-7.85-8.2-6.75-11.8-7.1l-.05.4q-.6 2.05 8.7 11.65 8.5 8.75 11.35 10.55"/><path fill="#0d131a" d="M218.25 97.85q-1.2-3.65-2.5-3.5-2.2.25-9.75 5.75-6.35 4.7-8.55 6.9l-2.15 1.55-2.35-.3q-8.35-2.35-19.1-3.25-19.85-1.75-32.4 3.95-2.15.95-4.9-1.4-1.65-1.4-5.1-5.8-4.45-5.75-5.7-5.85-.1 0-.15.1-1.65 1.65-4.5 9.9-2.25 6.55-4.35 14.4l-.05.2-.1.2-3.15 5.3q-3.65 6.45-6.35 13-8.5 20.8-4.55 34.5 4.95 17.1 21.75 26.45 10.9 6.05 25.3 8.15l2.9 1.4q2.05 1.8 8.7 2.05l13.55-.95q4.4-.8 7.45-2.1t3.85-2.75l.2-.45 3.15-.95q16.15-4.75 25.3-11.2 16.65-11.8 19.45-32.2 1.9-13.85-1.2-24.55-1.75-6.15-6.8-14.4l-3.05-5.55q-1.45-3.3-3.05-11.25zm-1.15-7.5q2.8-.3 4 3.8.75 2.45 1.85 9.5l1.05 6.2q.65 3.75 1.45 5.55l2.9 5.3 6.7 11.05Q239 140.1 239.3 151q.05 2.45-1.4 13.25-2.85 20.75-25.25 33.85-11.25 6.6-22.25 9.1-.5 2.25-4.3 4-3.95 1.85-10.5 2.6l-15.4.8q-6.35-.55-10-3.9-20.1-3-33.05-12.45-12.9-9.45-17.1-24.05-1.35-4.6-1.35-10.1 0-12.9 7.3-29.2 3.8-8.45 8.35-15.45 1.65-7.05 3.25-12.8 3.15-11.15 5.45-13.45 1.55-1.65 2.55-1.6 1.45.1 3.75 3l4.15 5.55q5.5 7.1 6.9 6.45 12.4-5.65 32.85-4.15 11.35.85 21.7 3.4 5.4-4.75 10.35-8.55 8.65-6.65 11.8-6.95"/><path fill="#0d131a" d="M125.75 138.6q-3-5.95-3.3-20.6-.25-12.8 1.05-17.05.95-3 1.45-2.6.45.3.2 2.9-.65 8-.6 15.05.05 14.1 2.65 21.5 1.4 3.95.5 3.55-.75-.4-1.95-2.75m87.35-41.4q1-1.2 1.5-.8.55.35-.05 1.65l-5.1 9.9q-5.65 10.6-9.5 16.9-8.75 14.4-14.2 18.55-2.4 1.8-2.95 1.4-.55-.5 1.95-2.7 2.45-2.2 11.15-15.8 8.25-12.9 13.35-22.15l1.4-2.85q1.6-3.05 2.45-4.1"/><path fill="#0d131a" d="m111.15 166.8.65 13.85q-1-2.3-1-7 0-3.6.35-6.85l-.2-4.7q2.9-1.45 9.6-3.2 6.55-1.75 11.65-2.5-1.5-2.2-2.05-4.45-.85-3.45.2-7.85 1.25-5.45 5.5-9.7 4.15-4.1 10.35-6.45 8.05-3.05 15.6-.75 7.25 2.2 9.95 7.95 2.8 6.05 1 11.8-1.45 4.5-5 7.6 9.1.15 21.1 1.85 9.4 1.4 14.75 2.75l.3.85.1 2.9-.55 18.35-.05 1-1-.25-6.85-.6-19.05-1.95q-33.1-2.25-64.6 4.05l-.1-2.85.2.45q29.95-5.9 60.2-4.45 17.05.8 29.6 3.5.55-11 .55-17.3l-.05-1.55q-5.35-1.3-16.65-2.7-12.9-1.55-21.6-1.55-1.4 0-1.65-.45-.35-.6 1.3-1.75 4.4-3.1 5.95-8.85 1.55-5.7-.85-9.9-3.35-6-11.1-6.9-5.2-.6-10.95 1-4.6 1.3-8.5 5.3-3.85 3.95-5.35 9-.7 2.5-.7 4.65 0 1.95 1.05 4.45.8 2.05 1.6 3l1.25 1.4q.3.65-1.6.85-4.95.5-12.55 2.2-7.7 1.7-10.4 2.9zm70.9 17.15q2.95-.15 12.3-.2l8.6-.4.35 1.6-19.5 1.35-18.05 1.05q-1.45.1-1.9.75-.45.7.2 2.3 2.4 5.95 8.8 10.6 7.35 5.35 14.6 4.2 2.95-.5 1.2.8l-2.35 1.35q-7.35 2.4-14.75-3.25-6.75-5.1-10.75-14.3-1-2.4-.2-3.6.3-.4 1.6-1.05 1.05-.55 6.1-.75zm-70.45 7.4-.95-2.5q3.25-.9 11.1-1.8l10.15-.95q2.6-.1 3.3.55.55.55 1.6 3.9 1.4 4.25 6.75 10.75 6.5 7.85 12.8 10.5l-4 .3q-6.55-2.7-13.15-11.25-6-7.8-6.55-12.45l-10.9.95q-6.6 1-10.15 2"/><path fill="#0d131a" d="m117.4 196.7 7.9 1.1 14.15.9 2.3 2.3-14.35-.8-6.75-1.35zm49.4.8q10.3-.75 22.2-3.05t18.45-4.8l2.4.9q-7.6 2.9-18.4 5.45-12.6 2.95-22.5 3.65zm69.7-1.85-.1-.15q-1.8-3.8-1.2-7.5.7-4.4 5.85-.45 4.45 3.45 8.4 8.4 3.5 4.35 8.5 9.55 4.8 4.95 6.55 5.85l-1.1-.05q-2.3.05-3.05.5-1.95-1.05-5.4-4.9l-8.3-10.05-4.2-4.65-3-2.6q-1.15-.9-1.4 1-.2 1.9.7 3.8l.05.15q4.9 10.4 9.2 16.65 3.8 5.55 6.3 6.65-.5 1.15-.65 2.45-6.8-2.55-17.15-24.65"/><path fill="#0d131a" d="M252.55 221.35q.15-7.5 4.05-10.15 3.45-2.3 9.05.15 7.05 3.05 12 14.9 5.7 13.65 5.5 32.8-.25 21.95-4.55 31.05-3.7 7.85-15.45 14.8-7.8 4.55-13.9 4.45-6.9-.1-10.95-6.15-3.7-1.25-7.3-4.55-3.1-2.85-3.55-4.4-.3-1.05.1-1.2l2.95-.65 3.9-1.15 3.05-1.3q3.8-7.3 8.85-26.7 4.8-18.4 6.35-30.2zm3.1-3.55q-.2.7-.2 4.35v3.9l-.2 7.15q-.75 12.5-5.9 32.35-5.45 21.1-10 26.15-1.25 1.3-8.15 3.2 2.65 3.95 8.3 6l.35.15 1.15.75q5.85 8.2 19.35.3 11.5-6.75 15.05-13.8 4.35-8.6 4.6-29.4.2-19.1-5.2-32.1-4.4-10.55-10.2-13.1-4.25-1.75-6.25.1-2.25 2.15-2.7 4"/><path fill="#0d131a" d="M236.05 295.55q.05-3.8 1.4-5.7 1.6-2.3 3.5-3.4 2-1.15.5 1.8-2.1 4.2-2.3 6.95-.35 4.2 2.75 7.7 2 2.25-.7 1.4-2.65-.9-3.9-2.9-1.3-2.1-1.25-5.85"/><path fill="#e85377" d="M116.55 169.6q.5 8.55-3.25 14.85-3.75 6.25-9.5 6.55-5.75.35-10.2-5.5-4.4-5.8-4.9-14.35-.45-8.55 3.3-14.8 3.75-6.3 9.5-6.6 5.75-.35 10.15 5.5 4.4 5.8 4.9 14.35"/><path fill="#c94768" d="M116.55 169.6q.5 8.55-3.25 14.85-3.75 6.25-9.5 6.55-.8.05-3.95-1.5l-3.9-1.9q8.3 1.95 14.4-4.45 5.25-5.55 6.2-13.55"/><path fill="#e85377" d="M228.2 155.15q4.45 6.7 3.9 15.8-.55 9.05-5.8 15.25-5.3 6.2-12.15 5.85t-11.3-7-3.9-15.75 5.85-15.3q5.25-6.2 12.1-5.85t11.3 7"/><path fill="#c94768" d="M229.5 157.45q3.1 6.05 2.6 13.5-.55 9.05-5.8 15.25-5.3 6.2-12.15 5.85-6.05-.3-10.3-5.7 5.05 2.75 10.15.15 4.8-2.45 8-8.55 3.2-6.25 3.25-13.6.05-8.15-3.9-15.1 5.15 2.25 8.15 8.2"/><path fill="#0d131a" d="M110.8 156.2q-4.05-5.45-9.25-5.15-5.2.25-8.6 6.15T90 171.1t4.45 13.45q4.05 5.45 9.25 5.2 5.2-.3 8.6-6.2t2.95-13.9-4.45-13.45m2.05-2.4q5.05 6.15 5.55 15.15.5 9.05-3.9 16.05-4.35 6.95-10.65 7.3-6.25.35-11.1-5.85-4.8-6.15-5.3-15.2-.5-9.1 3.65-15.95 4.2-6.9 10.45-7.25 6.35-.35 11.3 5.75"/><path fill="#fff" d="M112.15 168.45q.15 3.6-1.5 6.2-1.6 2.65-4.05 2.75t-4.3-2.35-2-6.05 1.45-6.2q1.6-2.65 4.05-2.75t4.3 2.35 2.05 6.05"/><path fill="#0d131a" d="M200.25 169.35q-.3 4.9 1.05 9.35 1.35 4.5 4.1 7.55 3.8 4.25 8.85 4.5 6.3.35 11.15-5.5 4.9-5.85 5.4-14.4.35-4.85-1.05-9.35-1.35-4.5-4.1-7.55-3.8-4.25-8.8-4.5-6.35-.3-11.2 5.55-4.85 5.8-5.4 14.35m16.7-22.95q2.95.15 6 1.75 3 1.6 5.25 4.1 3.1 3.5 4.65 8.4t1.2 10.35q-.6 9.65-6.45 16.55-5.9 6.95-13.25 6.55-3-.15-5.85-1.55t-5.05-3.85q-3.1-3.45-4.65-8.75-1.5-5.2-1.1-10.75.6-9.65 6.25-16.4 5.7-6.75 13-6.4"/><path fill="#fff" d="M202.55 169.15q.2-3.8 2.4-6.4 2.25-2.6 5.15-2.5t4.8 2.9q1.95 2.8 1.75 6.6t-2.4 6.4-5.1 2.5-4.85-2.9q-1.95-2.75-1.75-6.6"/></svg>