<svg xmlns="http://www.w3.org/2000/svg" width="207" height="244" viewBox="-2.1 -1.75 207.3 244.25"><path fill="#0d131a" d="M30.9 122.55h1.15l.75 30.35-1.5-.35q-5.2-1-11.1-3.35Q8.6 144.55 3 137.45q-1.45-1.8-1.8-3.9-.4-2.05.4-3.7 2.45-5 16-6.65z"/><path fill="#d0bad9" d="M5.6 136q-1.45-1.85-1.45-3.25 0-.65.3-1.25 1.55-3.2 10.45-5.2 7.2-1.65 14.95-1.8l.55 25.9q-5.9-1.6-11.4-4.3-8.85-4.35-13.4-10.1"/><path fill="#b4a1bc" d="M6 136.45q10.15 6.1 24.2 5.75l.2 8.2q-5.75-1.6-11.15-4.2Q10.6 142 6 136.45"/><path fill="#0d131a" d="M129.4 180.2q9.5-13.1 19.7-15.35 12.55-2.75 20.7 13 7.05 13.65 7.85 27.05.8 13.6-5.05 23.2-4.2 6.9-11.25 10.7-6.9 3.7-15.05 3.7-13.6 0-20.35-11.4-6.35-10.7-5.55-29.3v-1.3q.35-8.35 9-20.3"/><path fill="#d0bad9" d="M149.6 167.15q10.8-2.4 18.35 12.2 6.7 13 7.35 25.2.6 12.15-5 21.35-4 6.55-10.3 10.15t-13.8 3.6q-9.15 0-14.95-6.05-6.05-6.3-8.15-18.3-1.2-6.85-.9-13.6.35-7.75 8.8-19.55 9.25-12.95 18.6-15"/><path fill="#b4a1bc" d="M167.95 179.35q4.55 8.85 6.3 17.5-5.6 18.2-23.6 24.75-7 2.55-14.45 2.7-6.75.15-11.25-1.65-1.95-5.7-2.55-12.9-.35-4.3-.2-8.05.35-7.75 8.8-19.55 9.25-12.95 18.6-15 10.8-2.4 18.35 12.2"/><path fill="#0d131a" d="M146.15 241.45q-10.3 0-16.65-6.85-6.4-6.9-8.45-20.25v-1.15q11.4-8.45 26.55-8.65 16.4-.2 28.45 9.95l.75.75-.3 1.35q-2.95 11.55-11.05 18.2t-19.3 6.65"/><path fill="#ffe792" d="M148.45 207.25q14.55.3 25.8 8.55-2.45 10.75-10.15 17.3t-17.9 6.55q-10.65 0-16.75-8.15-4.65-6.2-6.4-16.8 10.85-7.8 25.4-7.45"/><path fill="#ffe792" d="M148.5 207.1q14.65.2 25.85 8.45-2.5 10.75-10.2 17.4-7.8 6.7-17.95 6.7-10.65 0-16.75-8.15-4.65-6.2-6.4-16.8 10.9-7.85 25.45-7.6"/><path fill="#dbc77f" d="M123.05 214.7q9.1-6.5 20.85-7.55 11.8-1.05 22.5 3.8-8.45 9.45-22.05 12.35-11.55 2.4-19.35-.65-1.3-3.8-1.95-7.95"/><path fill="#0d131a" d="M100.95 52.85q0 2.1-3.75 5.45-3.6 3.25-8.35 5.7-6.5 3.4-12.95 4.25Q67 69.4 60.25 65.2q-18.6-11.55-21.1-23.6-1.4-6.8 3.1-15.9 5.05-10.1 17.2-15.8 11.7-5.45 20.15-2.55 13.65 4.7 18.55 20.7 2.8 9.15 2.8 24.8"/><path fill="#d0bad9" d="M85.05 63.25q-5.7 2.5-10.8 2.95-7.45.75-12.65-2.9-12.7-8.9-17.15-18.35-4.45-9.4-.1-18.2 4.55-9.15 16.15-14.5 11.15-5.15 19-2.6 11.75 3.75 16.65 20.5 3 10.2 3 22.7-.15 1.25-4 4.3-4.5 3.65-10.1 6.1"/><path fill="#b4a1bc" d="M82.25 22.05Q89.8 28.75 93 40.3q2.95 10.7.5 18.1-4.1 2.95-8.45 4.85-5.7 2.5-10.8 2.95-7.45.75-12.65-2.9-12.4-8.7-16.95-17.9 11.95.5 21.45-6.2 7.05-5.05 16.15-17.15"/><path fill="#d0bad9" d="M82.7 9.55 84.25 11q1.8 1.95 2.85 4.05 3.5 6.85-1.15 13.55Q78.55 39.2 65 48.9 47.2 61.7 27.2 65.75 16.5 67.9 9.85 63.5q-6-4-7.4-12.4-1.35-8.05 2-17.3 3.5-9.6 11-16.95Q30.15 2.45 48.5 1.1 65.3-.1 82.7 9.55"/><path fill="#b4a1bc" d="m87.25 26.45-1.3 2.15Q78.55 39.2 65 48.9 47.2 61.7 27.2 65.75q-11.25 2.3-18-2.7-6.1-4.55-7-13.7 1.35 4.7 7.2 7.2 4.7 2 10.65 2 11.1 0 30.55-9.5 18.2-8.9 36.65-22.6"/><path fill="#0d131a" d="M85 9.6q4.25 2.75 5.75 5.3.55.95.4 1.3t-.85-.2q-3.45-2.55-8.2-5.45Q65.6.6 47.85 2.45 29.9 4.3 16.25 17.7q-8.7 8.55-11.8 19.95T5.6 57q2.75 5.2 8.25 7.2 5.5 1.95 13.1.4 21.5-4.35 38.65-16.85 12.25-8.95 19.15-19.3Q86.5 25.9 87 26.5q.45.6-1.05 3.15Q79.5 40.35 66.3 50.1 48.7 63.05 26.55 67.55 18.6 69.15 12.4 67q-6.6-2.25-9.8-8.25-4.7-8.8-1.15-21.1Q5 25.45 14.8 15.8 28.55 2.3 47.65.3 67.45-1.75 85 9.6"/><path fill="#0d131a" d="M42 7.9q16.85 1.15 28.75 10.35Q77.2 23.3 79 29.05q1.85 5.75-1.35 11.2l-.05.1-.1.1Q57.3 60.85 27.45 66.9q-8.4 1.7-14.6-.55-6.15-2.3-9.35-8.25-4.55-8.6-1.35-20.8 3.25-12.15 12.5-21.25Q24.15 6.7 42 7.9"/><path fill="#ffe792" d="M75.7 38.95Q56 58.75 26.95 64.6q-7.6 1.55-13.1-.4-5.5-2-8.25-7.2-4.25-7.95-1.15-19.35t11.8-19.95Q26.2 8.15 42.9 9.55q15.3 1.3 26.85 10.3 3.05 2.35 5.1 5.45 2.5 3.95 2.5 7.85 0 2.85-1.65 5.8"/><path fill="#dbc77f" d="M77.3 33.45q-.1 2.8-1.6 5.5Q56 58.75 26.95 64.6q-7.6 1.55-13.1-.4-5.5-2-8.25-7.2-1.1-1.95-1.7-4.35 2.45 3 7.35 4.6 4.15 1.3 8.8 1.3 9.55 0 25.65-7.2 15.1-6.8 31.6-17.9"/><path fill="#0d131a" d="M179.85 21.5q8.25 6.25 13.65 15.6 11.7 20.25 6.55 36.8-5 16-22.85 20.3 3.6 7.45 6.45 18.15 4 15.05 4 29.05 0 36.05-21.8 58-21.1 21.15-54.4 21.5-15.9.15-30.85-4.25-16.55-4.85-29.05-14.5-30-23.15-29.7-67.05.25-39.85 24-64.25 11.1-11.4 25.9-17.35 14.9-6 31.85-5.75 8.5.15 16.6 1.9 7.45 1.6 13 4.2-2-8.9-2-16.15 0-12.25 5.75-18.6 3.8-4.2 9.45-5.6 5.7-1.45 13.95-.3 10.45 1.45 19.5 8.3"/><path fill="#d0bad9" d="M174.75 95.1q2.9 5.35 5.65 15.85 3.6 13.9 3.85 27.65.75 39.85-26.3 62.7-14.55 12.3-34.8 15.55t-41.55-3.3q-19.7-6.05-33.75-18.8-14-12.7-18.4-28.5-4.3-15.55-4.15-31.5.15-15.9 4.7-30.15Q35.05 88.9 44.9 77q9.85-11.95 23.8-19.3 15.3-8.1 36.65-7.3 18.25.7 28.9 6.55l2.35 1.25-.65-2.55q-6.05-25.3 2.75-35 6.75-7.4 22.1-5.3 16.55 2.3 27.9 19.3 9.6 14.35 9.75 27.3.2 13.7-8.85 22.55-8 7.8-18.6 8.3-4.35.2-3.55 1.15t7.3 1.15"/><path fill="#b4a1bc" d="M184.85 79.05q-7.2 8.45-17.5 8.9-8.9.4-18.3-5.1Q140.5 77.9 135 70.4q-5.55-7.55-4.7-13.3l5.05.4 1.25.7-.2-.85 18.5-3.05 7.55.45q8.85.9 15.1 2.85 20.1 6.35 7.3 21.45m-10.35 15.5q2.9 5.35 5.65 15.9 3.65 14 3.95 27.85.9 40.15-26.15 63-14.55 12.3-34.8 15.55t-41.55-3.3q-20.15-6.25-34.25-19.25 1 .25 8.95 3 9.55 3.05 19 4.65 30.15 5.1 56.55-4.4 27.2-9.75 36.85-42.6 4.3-14.45 3.95-30.75-.35-15.7-4.9-30.1-.6-.3-.2-.65l.2.65 1 .25z"/><path fill="#0d131a" d="M193.25 59.75q.1 8.55-3.3 13.95-2.85 4.6-6.25 7.3-4.85 3.8-11.5 4.45-10.55.95-20.7-3.65-12.2-5.5-19.55-17.45-7.3-11.85-7.2-23.8.1-10.4 5.5-17.75 4.8-6.4 13.6-8.9 6-1.65 9.85-1.1l2.3.1q23.85 7.4 33.3 29.15 3.85 8.9 3.95 17.7"/><path fill="#ffe792" d="M171.9 82.8q-9.5.85-19.55-4-11.8-5.7-17.6-16.65-7.3-13.7-6.95-24.4.3-8.15 4.9-14 4-5.15 11.1-7.8 6.6-2.5 11.35-1.3 13.55 2.85 25.1 17.8 11.6 15.05 10.65 28.9-.8 11.25-7 16.7-4.6 4.05-12 4.75"/><path fill="#dbc77f" d="M166.7 78.4q9.4 3.25 15.1 1.2-4.05 2.65-9.9 3.2-9.6.9-19.85-4.05-11.65-5.65-18-16.5-10.15-17.35-4.8-32.2-1.25 10.7 4.6 21.3 5.1 9.3 14.65 16.9 8.75 6.95 18.2 10.15"/><path fill="#d0bad9" d="M159.85 137q2.2 2.5.9 7.2-1.15 4.3-4.55 8.5-3.45 4.25-7.15 5.85-4.2 1.8-7-.7-6.3-5.6-9.7-13.8-3.65-8.8-.95-14.25 3.35-6.7 13.8-2.75 8.85 3.35 14.65 9.95"/><path fill="#b4a1bc" d="M142.6 158.6q-3.95-3.8-6.9-8.55-3.2-5.15-4.3-9.9Q142 153.6 150.25 154q2.05.1 4.65-.75l1.95.1q.95 2.35-5 5.25-6.15 3-9.25 0"/><path fill="#0d131a" d="M136.15 124.6q4.95-.65 12.6 3.35 7.05 3.6 11.9 8.55 2.15 2.2 1.75 2.8-.4.65-3.4-1.85-4.9-3.95-10.05-6.65-7.5-4-12.35-3.45-3.1.3-4.45 3.05-2.25 4.45 2.6 14.45 3.95 8.2 8.05 12.4 2 2.05 1.7 2.75t-2.9-1.55q-5.55-4.8-9.9-14.05-4.85-10.3-2.3-15.5 1.85-3.6 6.75-4.3m-63.7-20.1q3.55 1.35 6.4 1.35l3.55-.45 3.2-1.25q4.5-2.15 6.7-2.75 2.85-.8 5.4-.05 2.4.65 3.7 2.35 1.35 1.8 1.45 4.65.05 2.75-1.1 4.55-1.85 2.95-2 4.9-.15 1.6.75 5.35l.5 2q.65 2.75.1 5.2-.5 2.2-1.6 3.1-1.9 1.5-5.25 1.25-2.85-.25-5.45-1.5-3.6-1.75-6.9-1.75-3.5.05-8.9 2.1-7.25 2.8-10.15-.1-1.3-1.3-1.6-3.65-.3-2.25.45-4.35l.6-1.55q1.15-2.85 1.2-4.35.15-2.55-1.6-5.65-1.4-2.5-1.8-4.9-.4-2.55.5-4.15 1.35-2.35 4.6-2.45 1.45-.05 3.65.7z"/><path fill="#922f00" d="m78.75 107.6 3.85-.6 3.4-1.45q3.85-1.75 6.1-2.4l4.4.2q1.75.75 2.9 2.25 1.15 1.55 1.3 3.3t-.75 3.2q-1.9 3.05-2 5.5-.05 1.6.95 5.7l.5 1.95q.9 3.8-1.45 5.7-1.6 1.3-4.35 1.4-2.5.05-4.5-.9-3.85-1.9-7.75-1.6-3.25.2-8.55 2.25-2.7 1-4.95.85t-3.6-1.5q-1.05-1.05-1.3-2.6-.3-1.55.35-3.2l.55-1.45q1.2-2.95 1.3-4.65.1-2.8-1.75-6.15-2.45-4.25-.85-7.1 1.1-1.85 3.45-1.95l3.05.4q1 .3 3.2 1.15 4.3 1.7 6.5 1.7"/><path fill="#0d131a" d="M73.2 133.2q-.65.25-2.15-1-1.45-.9-1.95-2.45-.6-1.9.4-4.35 1.3-3.2 4.1-5.65 2.6-2.25 6.1-3.45 4.35-1.55 9.55-1.05 5.1.45 9.6 2.8l.3.15v.35q.1 1.35.9 4.5l.45 1.95q1.1 4.65-1.8 6.9-1.9 1.55-4.95 1.65-2.85.05-5.15-1.05-3.45-1.65-6.7-1.5-3.3.15-8.7 2.2"/><path fill="#ed8599" d="M71.1 129.75q-.3-.75-.3-1.6 0-1.2.6-2.55 2.6-5.6 8.85-7.8 4.1-1.45 8.9-1.1 4.75.3 8.9 2.3l.85 4.35.5 1.9.25 2q0 2.35-1.7 3.7-1.6 1.3-4.35 1.4-2.5.05-4.5-.9-3.85-1.85-7.65-1.6-3.2.2-8.4 2.15-1.35-.65-1.95-2.25"/><path fill="#0d131a" d="M15.25 189.65q-1.4-8.7 1.05-15.5 1.9-5.2 4.75-8.45 3.15-3.6 7.9-5.35 12.65-4.6 25.95 3.5 11.4 6.85 19.95 20.45 6.2 9.85 7.35 19.4 1.1 9.3-2.7 16.45-2.45 4.65-6.75 7.3-4.25 2.65-9.55 2.85-13.2.5-24.15-5.85-10.9-6.25-17.7-18.2-4.7-8.15-6.1-16.6"/><path fill="#b4a1bc" d="M31.4 162.4q11.5-4.25 25.35 6.25 9.8 7.45 15.95 17.25 5.65 9.05 6.9 17.85t-2.15 15.3q-2.15 4.1-5.95 6.4-3.75 2.35-8.4 2.5-12.7.45-23-5.45-10.3-5.85-16.85-17.35-4.35-7.55-5.5-15.75t1.2-14.65q3.3-9 12.45-12.35"/><path fill="#d0bad9" d="M60.1 171.4q7.75 6.85 12.6 14.5 5.65 9.05 6.9 17.85t-2.15 15.3q-2.05 3.85-5.55 6.15-3.5 2.35-7.85 2.7 12.9-7.7 4.3-28.65-8.05-19.6-28.75-38 9.75.7 20.5 10.15"/><path fill="#0d131a" d="m17 193.4-.35-.25-.1-.5q-2.5-11.75 1.15-20.35 3.7-8.75 12.9-12.1 8.95-3.3 20.55 2.25 10.75 5.1 17.9 14.5l.2.25v.35q.85 7.65-2.15 13.2-2.3 4.3-6.65 6.9-8.85 5.2-22.2 3.5Q25.8 199.6 17 193.4"/><path fill="#dbc77f" d="M17.4 184.4q0-7.5 3.1-13 3.6-6.3 10.9-9 8.15-3 19.1 2.3 10.1 4.9 16.85 13.7l.15 2.6q0 9.9-8.05 14.65-8.2 4.8-21 3.25-11.9-1.4-20.25-7.15-.8-3.85-.8-7.35"/><path fill="#ffe792" d="m67.35 178.4.15 2.6q0 6.1-3.05 10.2-5.1-11.25-13.3-18.75-8.95-8.25-19.6-10.1 8.15-2.9 19 2.4 10.05 4.9 16.8 13.65"/><path fill="#0d131a" d="M63.15 207.15q1.75-.8 3.2-.9 1.4-.1 2 .6 1.8 2-2.15 8.45l2.2 2.6q2.05 2.5 2.05 3.2v.35q-.3 1.15-2.3 1.5l-3.3-.25-4.35-1q-5-1.15-5.5-.85-4.15 2.35-6.25 3.1l-3.6.1q-.45-.35-.45-2.2 0-1.05.55-2.85-.2-.5-3-2-3.35-1.8-4.5-2.75-2-1.55-1.55-2.85.3-.8 1.7-1.25l2.9-.35 6.35 1.35 6.1 1.2q1.1-.05 9.9-5.2"/><path fill="#dbc77f" d="M67.1 208.1q1.05 1.25-2.45 6.95-.35.6.25 1.35l1.65 1.65q2.45 2.35 2.3 2.85l-.1.5-.8.5-2.95-.55-3.9-1.15-4.35-.9-2.4.05-4.3 2.5q-2.75 1.4-3.5.8-.95-.8-.2-3.35.25-.8-.7-1.6-.7-.55-2.85-1.75l-3.2-1.85q-1.75-1.1-1.55-1.9.1-.4.85-.65l2-.15 5.9 1.05q4.6 1.35 6.4 1.15 2.2-.2 6.25-2.7l4.35-2.25q2.6-1.25 3.3-.55"/><path fill="#0d131a" d="M117.35 86.9q0 2.05-.55 3.75-.55 1.8-1.3 1.8-.7 0-1.25-1.75-.5-1.75-.5-3.75 0-1.95.55-3.35t1.3-1.4q.75-.05 1.25 1.35.55 1.4.5 3.35m-3.15 11.45q.6-1.8 1.3-1.8.75-.05 1.25 1.75.55 1.7.5 3.75 0 1.95-.5 3.35-.55 1.4-1.3 1.4t-1.25-1.4q-.55-1.35-.55-3.35.05-2.05.55-3.7m-6.85-5.45 4.05.45q1.9.5 1.9 1.15 0 .7-1.9 1.2l-4.05.55-3.6-.5q-1.5-.45-1.5-1.15t1.5-1.2zm12.3 2.75q-1.95-.5-1.95-1.2 0-.65 1.95-1.2l4.05-.5q2.1-.05 3.6.45t1.5 1.2-1.5 1.2l-3.65.5zm-62.9-5.05Q56.6 92.4 56 94q-.65 1.65-1.25 1.7t-.9-1.5-.15-3.35q.2-1.8.75-3.1.55-1.25 1.2-1.3t.95 1.15.15 3m-1.3 13.65q-.15 1.75-.7 3.05t-1.2 1.35q-.65.1-.95-1.15-.35-1.25-.15-3 .15-1.85.75-3.45t1.2-1.65.95 1.55q.3 1.5.1 3.3M47.9 96.6l3.35.15q1.55.35 1.5.95t-1.7 1.2q-1.55.55-3.45.7l-2.95-.2q-1.25-.3-1.2-.95.1-.65 1.4-1.2t3.05-.65m13.65-1.1 3 .2q1.25.3 1.2.95t-1.4 1.2l-3.05.65-3.35-.15q-1.55-.35-1.5-.95t1.7-1.2q1.6-.6 3.4-.7m17.9-41.45q.3.8-1.5 2.15t-4.65 2.5-5.1 1.45q-2.25.25-2.55-.55t1.5-2.15q1.75-1.35 4.65-2.5 2.85-1.15 5.1-1.4 2.2-.3 2.55.5"/></svg>