<svg xmlns="http://www.w3.org/2000/svg" width="257" height="279" viewBox="-1.3 -0.6 257.4 278.9"><path fill="#eef3f6" d="m231.9 197.8-6.05-3.05.4-8.55q1.85-1.2 6.3-3.05 1.1-.45 2.6 0 1.95.55 3.25 2.6 1.1 1.7.85 3.8-.25 1.6-1.15 2.75l-3.4 3.25z"/><path fill="#718bc6" d="M248.85 84.6q3.5 5.25 4.2 11.65.95 8.1-2 20.9-3.05 13.3-8.05 24-4.65 9.9-8.75 13-3.35 2.5-19.35 4.85l-17.8 1.95-5.75-11.05-1.5-18.7 16.85-4.45q-.4-5.85-.1-18.5.3-11.4.75-17.3l-2.3-.8q-2.85-1.25-2.6-7.5.2-5.8 1.65-7.1 2.75-2.45 8.25-4.45 6-2.2 10.05-1.8 4.65.45 13.85 5.55 9.7 5.4 12.6 9.75M14.8 197.75q-1.4-1.65-2.65-6.65-1.7-6.85-.15-12.95 1.75-6.9 15.7-17.55 10.7-8.2 16.7-10.9 4.8-2.2 24.95-2.2l10.1 10.85-5.7 13q-6.25 0-7.4.9-.6.5-4.4 6.4-3.6 5.55-4.45 7.1.65 0 2.15 2 1.75 2.35 1.75 4.65 0 3.5-3.8 8.85-3.15 4.35-6.2 6.85-2.1 1.75-5.55 1.15-2.95-.5-5.15-2.25l-.6-.65q-2.45 1.6-8.15-.25-4.85-1.55-6.8-3.35-.7-.6-1.35-2.35-2.65.25-5.6-.8-2.6-.85-3.4-1.85"/><path fill="#718bc6" d="M204.95 7.45q10.45 6.65 15.3 18.85 4.85 12.35 1.2 25.05-3.5 12-12.5 18.4-8.3 5.9-19.3 6.15-10.3.2-19.1-4.5l-.7 2.45q2.8 2.45 7.1 9.05 5.6 8.7 10.35 19.95 13.6 32.05 15.15 72.05l12.2 7.3q3.2-.3 7.85 2 6.3 3.15 8.55 9.25 2.55 6.9.35 16.75-2.15 9.45-8.1 19.15-7 11.5-16.3 16.5-10 5.35-18.55.65-5.6-3.05-9-9.5-3.1-2.2-7.95-4-6.3-2.3-13.4-2.95-6.5-.6-16.9 2.4-11.85 3.85-17.6 5.35-4.7 1.25-7.5 1.4l-1.15 1.65 1.05 4.1 1.05 6.7q.35 3.7-.35 5.5-.85 2.1-3.85 4.1L98.5 271.1q-3.5 2.35-5.9 2.95-1.7.35-3.65-.05l-15.05-4.6q-1.95-1.15-6.15-2.65-3.85-1.35-5.8-1.75l-7.1-12.4q-.55-2.55 1.7-4 1.1-.75 5.9-3.35 5.5-3 8.6-4.4-3.35-4.45-4.2-9.85-1-6.15.2-10.75 1.05-4 3.55-6.15l11-43.05L61.8 98.3q-.3-3.75-3.05-8l-2.7-3.5q-7.35 3.9-16.6 4-7.35.1-13.9-2.1-6.4-2.15-11.55-6.4Q7.55 77 4.4 69.25.5 59.55 2.15 49.2 4 37.5 12.6 29.9t18.35-9.6q10.45-2.15 21.25 2.4 9.4 3.95 14.9 13.25 2.65 4.45 4.05 9.8 1.4 4.55 1.45 11.15.1 11.65-5.05 20.75l2.05 2.55q2.35 2.55 4.15 2.75Q85 69.35 107.9 64q11.35-2.65 24.05-2.05 12.4.6 21.75 4.05l2.9-4.65q-5.3-8.4-6.2-18-.65-7.15 1.2-14.4 1.85-7.6 7.3-14.2 9.55-11.5 26.05-12.7 10.35-.75 20 5.4"/><path fill="#922f00" d="m166.8 104.1 4.25 76.85-4 24.05-78.2 7.1-8.45-6.45q1.4-14.45-6.3-53.2l-7.95-35.85 10.25-6.7 60.35-8.45 16.25-7.8z"/><path fill="#fff" d="M125 88.5q-.15-2.65.7-5.5 2.25-7.8 9.5-9.55 4.7-1.1 8.8 1.85 4.15 3 4.15 7.75-1.7 3.3-3.2 3.3-.95 0-3.55.95l-2.45.95q-3 .5-8.3 2.4-3.7 1.3-4.65.75-.8-.45-1-2.9m-41.45 5.8q.25 4.8-1.05 5.75l-3.35.2-5.25-.6-5.4-.1q-2 0-2.7-.6-.7-.65.05-3.7.8-3.5 3-6.6 2.5-3.5 6.2-4.1 3.85-.65 6.35 2.35 1.9 2.35 2.15 7.4"/><path fill="#0d131a" d="M38.05 29.65q7 .75 12.7 5.45 6.6 5.4 9.05 14.55 1.5 5.4 1.2 10.6-.25 5.55-2.55 9.95-3.6 6.75-11.35 9.75-6.7 2.55-13.65 1.55-6.9-1-12.8-5.55-7.3-5.65-9.25-14.6-1.5-6.85-.3-12.65 1.05-5.4 4.35-9.35 4.1-4.95 9.55-7.55 6.15-2.9 13.05-2.15"/><path fill="#ed85ad" d="M33.45 72.95q-3.8-1.45-6.2-3.85-3.3-3.25-4.55-8.8-1.2-5.1.85-10.4 3-7.55 10.3-9.35 7.5-1.85 13.4 4.2 3.6 3.7 4.65 8.9 1 4.9-.45 10.3-1.9 7.15-8.1 9.25-4.9 1.65-9.9-.25"/><path fill="#0d131a" d="M37.9 60.75q-.8-2.15-.05-4.6.7-2.3 2.4-3.6 1.9-1.45 4.1-.75 3.05 1 3.5 4.4.2 1.6-.25 3.55-.4 1.45-1.45 2.65-1.85 2.05-4.5 1.5-2.85-.6-3.75-3.15m164.85-42.2q8.75 6.5 9.8 18.05 1.6 17.5-13.9 26.65-5.3 3.15-13.35 2.95-10.3-.3-17.65-7.05-6.5-6-8.05-14.05-1.15-6.15.6-13.05 1.9-7.25 8-12.65 6.65-5.9 15.05-6.3 11.35-.6 19.5 5.45"/><path fill="#ed85ad" d="M185.25 25.05q7.05-.35 11.9 3.3 5.3 3.9 5.9 11.1.6 6.55-2.55 11.4-2.15 3.25-5.75 5.35-3.25 1.95-8.25 1.85-6.4-.15-10.95-4.35-4.05-3.75-5-8.8-.7-3.8.4-8.05 1.15-4.5 4.95-7.85 4.15-3.65 9.35-3.95"/><path fill="#0d131a" d="M191.05 49.05q-2.65 1.3-5.3 0-2.25-1.15-3.2-3.3-.75-1.65-.3-3.9.55-2.75 2.8-4 1.6-.9 3.7-.6 2.2.35 3.8 2 1.8 1.9 1.5 5.05-.25 3.4-3 4.75"/><path fill="#ffe792" d="m174.8 145.2 1.25 30.25q.85 21.2.55 25.6-.45 7.35-2.85 11.6-1.85 3.25-6.55 7.05-3.75 2.95-8.6 2.75-2.5-.1-10.25-2.1-5.6-1.45-16.85-1.2-10.5.2-19.05 1.65l-14.9 3.5q-8.25 2-13.4 1.45-5.95-.6-9.2-3.6-2.4-2.2-4-6.5-2.05-5.45.1-9.55l5.5-13.55q-2-19.95-5.5-36.85l-5.05-21 6.95-3.55q3.6 13.05 5.7 23.1 4.35 21.35 5.5 42.55l.1.15q4.5 2.55 6.7 8.95l27.7-1.55q24.3-1.75 26.3-3.05.45-1.5 1.35-3.25 1.85-3.5 4.4-4.8l11.6-1.95q1.7-1.65 2.8-5.3 1.75-5.9 1.35-15.35-.45-9.75-2.6-32.3l-2.85-26.8-1.65.7-13.5-.3q-3.35-1.3-6.4-3.8l-2.35-2.25q-5.3 1.4-32.25 5.55L79 115.35l-2.4 3.05q-.9.85-2.55 1.5l-13.5 4.25q-3.6-.55-6-2.8Q52 119 51.2 115.1q-1.15-5.25 2.35-10.7 3.25-5.1 7.05-5.65 3.05-.45 5.6 1.3 1.4.95 3.15 3.15.7.9 12.25.05 11.75-.85 21.2-2.5l19.25-3.55q9.9-2.1 11.7-3.4 1.35-1 5.5-5.7 4.7-4.3 10.2-4.85 7.15-.7 16.3 8.4 8.55 8.5 9.3 14.75.5 4-1.6 8.05l.5 10.3z"/><path fill="#0d131a" d="M151.25 145.15q-3.35-.7-8.3.7l-6.2 2.2-5.45 2.55q-5 1.75-11.7 1.05t-10.85-.1l-2.75.75q0-7.45 2-12.2 3.15-7.45 11.75-11.3-.85 2.45-.15 4.5 1.85 5.55 11.25 4.05 3.05-.55 5.1-2.15 2.1-1.65 2.75-4.15.55-2.1-.45-4.55 6.95.25 13.45 4.9 9.4 6.65 11.45 19.85-1.1-1.3-3.1-2.7-4.1-2.85-8.8-3.4"/><path fill="#ed8599" d="M164.15 188.25q-1.25 3.2-2.25 3.05l-6.05.35-5.05.45q-15.45-3-33.05-.3-5.5.85-12.25 2.45l-8.1 1.85q-5.45.95-8.4-1.65-2.65-2.4-2.8-7.1-.15-3.7 1.8-9.9 1.8-5.8 4.45-10.95 4.95-9.55 11.5-13.2 4.2-2.35 8.5-2.05l13.45.4q4.75-.4 9.4-2.9 6.7-3.5 13.7-3.45 9.4.1 15.75 7.2l1.1 12.2q1 12.9.3 16.25-.95 4.5-2 7.3"/><path fill="#eef3f6" d="M73.6 118.05q.15 2.4-.1 6.55l-.25 4.6q-.05 2.05-1.7 3.45-1.55 1.4-3.95 1.65-2.1.25-3.9-1.15-1.6-1.2-1.9-2.65-.4-1.9-.85-5.1-.55-4.1-.55-6.35 0-2.65 1.6-4.35 1.7-1.8 4.55-1.85 2.15-.05 4.05.85 2.85 1.35 3 4.35m79.1-16.65q3.2.2 4.95 1.85 1.65 1.5 1.8 3.85.2 2.6-.85 9.9-.35 2.7-1.4 3.85-1.3 1.4-4.25 1.4-2.85 0-4.55-1.55-1.35-1.25-1.55-2.85-.85-7.2-.85-10.95 0-2.8 2.15-4.3 1.9-1.3 4.55-1.2m-78.45 92.15q2.8-.75 4.55.3 1.25.75 2.3 2.75l1.45 3.85 1.05 3.9q.3 1.9-.6 3.55-1.15 2-3.85 2.6-5.3 1.2-7.05-1.9-.75-1.25-1.15-3.6l-.7-4.25q-.45-2.5.35-4.3.95-2.15 3.65-2.9M162 190.6q1.25 3.4 1.45 6.95.2 2.65-1.25 4.25-1.55 1.7-4.55 2-2.6.25-4.45-.8-1.75-.95-2.05-2.45-.25-1.6-.2-4.1l.1-4.4q0-4.55 5.05-5.25 4.35-.65 5.9 3.8m-96.6 72.15-3.2 1.95-4.75 2.4q-2.35 1.2-4.4.85-2.25-.35-3.7-2.65-2.4-3.85.3-7.05 3.8-4.6 6.95-6.05 1.95-.9 4.7.05 2.75.9 4.2 3.05 1.35 2 1.15 4.35-.15 2-1.25 3.1m16.1-1.2q1.95-.9 4.8 0 2.9.95 4.3 3.1 1.55 2.4 1.2 4.85-.3 2-1.5 3-1.95 1.6-7.75 3.95-2.55 1.05-4.65.65-2.45-.4-3.85-2.7-1.45-2.3-.7-4.5.35-1.05 1.4-2.3 4.05-4.8 6.75-6.05m120.95-72.85q-3-1.75-3.8-3.95-.7-1.95.4-3.65 4.1-6.6 4.95-7.5 1.4-1.5 3.5-1.7 2-.15 4.2.85 2.05.95 2.85 2.85.7 1.75.25 3.75-.6 3.05-2.25 7.7-1.05 3-4.05 3.35-2.7.3-6.05-1.7"/><path fill="#ffe792" d="M218.65 205.8q7 4.1-1.6 20.4-3.15 5.75-7.3 8.7-4.7 3.25-8.8 1.3-3.95-1.9-3.2-8.5.6-5.2 3.5-10.8 3.2-6.15 7-9.45 5.35-4.6 10.4-1.65"/><path fill="#cd7497" d="m22.8 60.85-.1-.55q-1.2-5.1.85-10.4 2.3-5.85 7.6-8.35Q36.4 39 41.8 41.1q-6 .95-11.5 5.55-7 5.85-7.5 14.2m156.4-30.1q-3.2 1.8-5.5 5.95-2.6 4.65-2.7 9.95-1.45-4.65-.05-9.8 1.15-4.5 4.95-7.85 4.15-3.65 9.35-3.95 7.1-.3 12.05 3.4-5.75-1.45-9.55-.95-3.55.5-8.55 3.25"/><path fill="#6a1a00" d="M163.15 151.25q-2.05-13.2-11.45-19.85-6.5-4.65-13.45-4.9 1 2.45.45 4.55-.65 2.5-2.75 4.15-2.05 1.6-5.1 2.15-9.4 1.5-11.25-4.05-.7-2.05.15-4.5-10.5 4.7-12.95 15.05-6.75-2.85-18.6-5.25l-13.85-2.3-1.4-5.15 1.1-11.25q1.65-.65 2.55-1.5l2.4-3.05 25.85-3.9q26.95-4.15 32.25-5.55l2.35 2.25q3.05 2.5 6.4 3.8l.2 3.75q.45 4 1.75 5.05 1.75 1.4 4.85 1.45 3.4.1 4.8-2 1.3-1.85 1.7-5.1l.2-2.85 1.65-.7 4.3 40.95z"/><path fill="#ce7486" d="M164.75 152.4q.45 2.1 1.7 13.45-4.15-4-15.9-4.45-11.9-.45-18.85 3.3-6.2 3.3-10 2.7l-8.75-3.25q-5.55-2.1-11.65-1.15-5.65.9-9.3 3.9l1.45-2.7q1.95-3.3 4.65-6.45 2.9-3.4 6.95-5.05 3.15-1.25 6.45-1.3l6.2.3q4.65.25 9-.15 3.2-.3 10.55-3.55 6.8-3 11.6-2.95 5.5.05 11.25 3.7 2.9 1.85 4.65 3.65"/><path fill="#cacfd2" d="M69.3 113.2q2.25.6 3.5 1.7l.75 1 .05 5.15-.2 7.55q-.25 2.25-1.55 3.6-1.15 1.1-3.35 1.9l-3.3.1q-1.25-.5-1.55-1.35-.25-.8.35-1.7.75-1.05 2.15-1.3l3.8.15zm86.85-11 1.95 1.45 1.35 1.4q.5.5.2 5.2-.35 4.75-1.15 7.5-.75 2.65-2.2 3.65-1.1.75-3.1.75-1.75 0-3.55-.8t-1.65-1.4q.4-1.55 3.75-1.7l3.3.15zm-77 94.3q.85-.85.85-1.75l2.25 3.9q2.2 4.45 1.8 7.05-.35 2.6-3.4 4-1.55.7-3 .9L75.1 198q2.75-.15 4.05-1.5m77-4.95q2.1.1 3.75-.85 1.5-.9 1.3-1.65l1.4 3.2q1.3 3.75.9 6.75t-3.45 4.2l-3 .6zM200.2 187l7.45-12.6 2.75 1.7q3.05 1.4 4.4 0 .6.55-.35 4.65-.85 3.8-1.7 5.45l-1.85 3.1q-1.65 1.6-4.65 1.1-2.9-.5-4.75-2zm36.65-2.5 1.4 1.3q1.25 1.75.75 4.3-.35 1.75-3.45 4.95l-3.05 2.8q0-2.45-1.8-5.75l-1.8-2.8z"/><path fill="#6279ac" d="M229.75 196.2q3.3 6.8.2 16.85-4.15 13.5-13.45 24.7-11.35 13.6-21.65 10.25-10.2-3.3-7.65-19 2-12.2 7.8-20.6 6.5-9.4 10.8-13.25 9.8-8.6 19-4.4 2.9 1.35 4.95 5.45"/><path fill="#dbc77f" d="M218.65 205.8q7 4.1-1.6 20.4-3.15 5.75-7.3 8.7-4.7 3.25-8.8 1.3-3.95-1.9-3.2-8.5.6-5.2 3.5-10.8 3.2-6.15 7-9.45 5.35-4.6 10.4-1.65"/><path fill="#6279ac" d="m125.3 237.7-5.8 1.6-3.65.35q-1.8 3.65-7.65 6.9-2.95 1.65-5.5 2.55 3.75-3.35 3.05-7.8-.4-2.6-2.3-5.35l-3.4-2.8q-.8-.75-.65-1.25.2-.65 1.7-.35l10.05.85q7.2-.15 13.4-2.45 16.9-6.25 22.95-7.3 15.05-2.6 29.5 3.45l.4 4.4q.7 4.75 2.05 6.5-3.4-2.15-8.65-4-10.5-3.7-19.55-2.25-9 1.45-16.65 3.85zm-57.85 21.5 11.25 4.25-2 2.25q-2.15 2.5-2.8 3.7L61.95 265q3.55-1.55 4.15-2.75z"/><path fill="#6279ac" d="M117.85 254.35q-.4 4.2-1.8 5l-6.1 4.45-10 7q-4.35 2.8-8.1 3.25l-2.9-.05q2.55-1.6 2.75-5.2l-.25-3.25q1.15-.25 9.55-5.25l10-6.15q2.15-1.45 3.8-3.5 2.05-2.55 2-4.65 1.5 3.8 1.05 8.35"/><path fill="#cacfd2" d="M66.9 257.4q.3 1.5-.2 3.2-.45 1.6-1.15 2.15-.7.6-4.15 2.35-3.7 1.9-5.4 2.45l-4.2-.15q-2.35-.95-2.9-2.9-.6-2.15-.3-3.2.35-1.2 1.8-1.55 1.25-.3 3.45 1.2l1.9 1.6zm24.8 9.6q.3 1.45-.2 3.2-.45 1.55-1.1 2.1-.7.6-4.2 2.35l-5.4 2.5-4.2-.2q-2.3-.95-2.85-2.9-.6-2.15-.3-3.2.35-1.2 1.8-1.55 1.25-.3 3.4 1.25 1.1.75 1.9 1.6z"/><path fill="#6279ac" d="M65.55 172.1q.6-1.8 2.1-4.15 2.05-3.1 4.45-4.8l1.65 8.6zm-39.1 24.7q5.5 2.85 11.75 1.7l4.75 1.8q5.05 1.7 6.75 1.3 1.6-.35 5.85-6.55 4-5.9 4.15-7.1l1.65 1.85q1.25 2.6-.55 6.35-2.5 5.1-6.05 9.3-3.5 4.1-5.05 4l-5.25-.6q-3.95-.75-5.15-2.35-3.35 1.6-11.45-1.25-1.95-.7-3.45-2.85l-1.1-2.05-4.2-.5-4-1.15q-1.05-.45-2.25-4.5l-1.05-3.9q1.05.9 4.1 1.95 3.3 1.15 6.3 1.5zM204.3 75.6q.2.65 3.85 1.8 4.1 1.25 7.2 1l2.85 2.3q4.15 2.4 10.5 3.2l3.45 2.75q4.2 2.85 7.9 3.15 1.6.1 2.2.65.7.65.75 2.45.15 4.65-.75 7.4-1.35 4-4.85 3.55l-4.25-.35q-4.45-1.35-5.5-6.25l-6.35-.2q-6.6-1.2-7.65-6.35l-4.2.55q-4.45.1-5.75-2.05-1.75-3.6-.75-8.95zm38.2 62.85 4.1-5.35-3.95 9.5q-4.75 9.95-9.05 12.45-4.5 2.6-18.55 4.65-13.9 2.05-19.95 1.05-5.4-.85-4.7-2.35.6-1.25 4.35-2.1l15.1-2.65q16.25-3.25 21.8-6.25 5.6-2.95 10.85-8.95M6.4 73.5q3.7 4.55 13.1 8.65 10.95 4.75 20.1 3.8 6.7-.7 10.5-1.85 1.4-.4 3.2-1.3 1.4-.65 1.85-.65 1.6-.05 3.5 1.9 2.1 2.05 4.7 5.75 2.35 3.3 2.75 4.4l-.45 2q-.35 2.15 0 2.95-1.9-1.25-3.95-.7-.05-1.85-.75-4.15-1.45-4.65-4.9-6.95-3.6 1.9-9.35 3-11.5 2.15-22.3-2.05T8.9 78.35q-1.45-1.75-2.1-3.5zm165.65-6.75q10.7 5.1 22.95 3.75 16-1.8 24.65-15.35-1.25 3.95-4.65 8.35-6.8 8.85-17.55 11.2-10.7 2.4-19.9-.1-2.85-.8-5.25-1.95l-1.8-1.05-.95 4.9q-1.25 4.8-2.6 4.2-1.65-.75-.8-11 .25-2.45 1.85-3.25 1.65-.8 4.05.3"/><path fill="#dbc77f" d="M163.4 109.85q-2.45 2.15-4.05 2.4l.1-3.7q-.1-3.8-1-4.45l-2.45-1.65q-1.75-.85-4.2-.85-2.55 0-4.3 1.5-1.5 1.25-1.5 2.45l-.15 6.4-3.35-1.8q-3.7-2.2-5.4-4.25-51.85 9.5-58.1 9.45l-1.55 2.2q-1.85 2.25-3.4 2.35l-.45-2.45q-.7-2.55-2.1-3.2-3.05-1.45-6.2-1.45-1.35 0-2.95 1.25-1.85 1.45-1.85 3.3l.25 6.2-1.6-.05q-1.9-.35-3.2-1.8-3.15-3.5.05-7.75 3.15-4.2 8.9-4.7 2.05-.2 4.9.1 3.55.35 6.5 1.35 1.8.6 26.8-3.05 25.2-3.75 31.9-5.65 2.9-.8 8.05-3.55 5.1-2.15 11.05-1.45 6.85.85 10.25 4.3 2.65 2.7 1.95 4.85-.45 1.55-2.9 3.7m-3 112.25q-3.75.1-12.55-1.45l-17.9-.75q-11.1.5-21.5 2.65l-17 3.35q-7.1.9-12.05-.9-4.65-1.7-7.25-7.1l-1.55-4.8q.65 1.55 4.2 3.3 4.7 2.25 9.8 1.55l19.8-2.75q15.8-2 25-2l17.8.75 8.95.7q4.85 0 9.55-2.05 7.95-3.45 10.55-11.65l-.8 6.55q-1.65 7.3-5.8 11.1-3.35 3.35-9.25 3.5"/><path fill="#0d131a" d="M135.05 72.45q2.45-.6 5.1.05 2.6.6 4.7 2.25 1.85 1.45 2.95 3.75 1 2.2 1 4.55l-.65.25q-.7 0-.7-.25 0-4.25-3.5-6.95-1.9-1.45-4.15-2-2.3-.5-4.45 0-4.85 1.2-7.45 5.55-1.65 2.7-2.05 5.8-.35 2.15-.15 3.9.15 1.45.5 1.65l1.8-.2 2.85-1 3.8-1.3q2.55-.85 4.6-1.2.25-.05.2.75-.1.85-.4.9-3.2.55-7.75 2.15l-3.35 1.05-2.3-.15q-.95-.55-1.35-2.6-.3-1.85 0-3.95.5-3.55 2.35-6.65 3-5.05 8.4-6.35m-53.15 14q1.2 1.5 1.9 3.95.75 2.45.7 4.85-.05 1.9-.55 3.45-.45 1.35-1.05 1.9-.5.5-2.05.45l-3.9-.35-3.1-.35-4.55-.15-2.3-.05q-1-.15-1.65-.7-1.05-.95-.3-4.35.75-3.6 2.95-6.7 1.45-2.05 3.7-3.3 2.2-1.25 4.4-1.35 3.5-.1 5.8 2.7m.9 10.9q.3-2.55-.2-5.45-.55-3.1-1.75-4.55-2-2.55-4.75-2.5-1.8.05-3.65 1.25-1.75 1.15-3.05 2.95-2 2.85-2.85 6.1-.7 2.65-.3 3.3.4.3 1.1.4h1.95l4.65.15 3.2.35 4.95.15q.45-.3.7-2.15m6.45-.3q.25-3 3.9-6.05 3.8-3.1 8.5-3.95 5.95-1.1 10.8.65 3.9 1.45 6 4.1.8 1 .45 1.2-.3.25-1.25-.65-2.2-2.15-5.65-3.2l-10-.4q-4.3.8-7.9 3.65-3.05 2.45-3.9 4.75-.35 1-.7.95-.3-.05-.25-1.05M205.6 5.3q11.05 6.7 16.1 19.5 5.15 13 .8 26.7-3.9 12.4-12.85 18.75Q201 76.4 189.7 76.6q-10.05.2-18.65-4.05l-.6 2.65-.8 3.05q-.4 1.3-.95 1.25t-.45-1.4q.15-2.2.85-5.1l.65-2.6q.3-.95 1.15-.45 8.2 4.35 18 4.25 10.95-.15 19.45-6.15 8.25-5.85 11.85-17.85 3.75-12.65-.7-23.6-5.1-12.4-15.55-18.8-9.2-5.65-18.95-4.95-16.1 1.2-25.4 12.3-5.25 6.25-7.25 13.95-1.8 7.3-1.1 14.35.85 9.3 6.05 17.45.25.45 0 .85-2.95 5.2-4.25 6.2-1.05.8-1.2.4-.15-.35.5-1.4l3.35-5.6q-3.45-4.4-5.3-11.5-1.55-5.95-1.55-11.65 0-5.45 1.4-10.9 1.95-7.8 7.85-14.6Q168.2 1.1 185.6.05q10.35-.65 20 5.25"/><path fill="#0d131a" d="M52.75 21.25q8.4 3.5 14.1 11.5 4 5.5 5.75 11.55 2.75 9.4 1.35 18.7-1.25 8.3-5.45 14.65.8 1.3 2.45 2.8 1.95 1.7 3.2 1.85.3.05-.2.8-.45.75-.8.7-2-.2-4.25-2.8-1.25-1.45-2.05-2.95-.25-.4 0-.8 4.6-8.5 4.75-19.35.1-6.4-1.3-12.2-1.15-4.9-5-10.65-5.55-8.3-13.4-11.6-11.7-4.9-22.8-1.9-8.4 2.3-16 8.95-8.4 7.4-10.2 18.85-1.6 10.1 2.25 19.6Q8.5 77.2 15.7 82.65q4.7 3.5 10.1 5.3Q32.5 90.2 39.9 90q8.8-.2 15.75-3.95.55-.25.95.15l3.15 3.3q2.9 4.05 2.85 8.75 0 .35-.8.4t-.8-.3q-.4-5-5.2-10.6-7.25 4.05-16.65 4.4-7.95.25-14.8-2-5.75-1.95-10.55-5.6-7.55-5.65-11.05-14.3-4.05-10-2.2-20.95 2.05-12.5 11.3-20.85 9-8.15 19.65-9.95 10.45-1.8 21.25 2.75"/><path fill="#0d131a" d="M85.4 71.3q9.95-6.5 22.4-9.45 11.5-2.65 24.1-1.95 12.7.75 22.25 4.65.3.15-.15 1.2-.45 1-.8.9-9.35-3.5-21.65-4t-23.5 2.1q-24.65 5.8-35.75 21.4-.2.3-1 .2-.85-.1-.7-.4 5.05-8.3 14.8-14.65m95.6 20q-6.5-12.05-11.25-16.15-.25-.25.15-1.45.35-1.25.6-1.05 6.3 5.9 12.85 17.45 9.5 16.8 14.6 38.35l-2.7.55Q189.9 107.9 181 91.3m19.7 69.5 2.45-.1.45 6.55.3 6.75-1.1.8-1.15.1q-.3-7.7-.95-14.1M96.55 97.15q0 .85-.55.85t-.55-.85q0-.8.55-.8t.55.8m12.95-2.2q.1.75-.4.9-.5.1-.7-.7t.4-.9q.55-.1.7.7M134.05 83q.05 3.55-1.2 3.55-.45 0-.75-.85-.35-1.05-.4-2.9-.05-3.6 1-3.6.5 0 .9.9.4 1.05.45 2.9M78.2 93l-.5 2.15-.7.6q-.9-.1-.65-3.1.2-2.8 1.1-2.8.4.05.6.85.25.85.15 2.3m-13.25 41.45q-.05-.3.85-.3.95 0 1 .35l4.2 18.7q4.55 22.2 6.3 39.65.05.35-.85.45t-1-.25q-2.2-17.55-6.6-39.85zm7.45-2.2 1.25-2.65q3.95 13.9 6.1 24.3 4.5 21.95 5.4 43.4l-.9.1q-.85-.2-.9-.55-1.7-32.05-10.95-64.6"/><path fill="#0d131a" d="M82.75 196.9q-1.1-.45-.85-.95l1.4-.05q2.5 1 4 2.4 3.1 2.9 4.5 8.55.25 1.1-.2 1.3-.5.2-.85-.85-1.55-4.8-4.45-7.8-1.75-1.8-3.55-2.6"/><path fill="#0d131a" d="M150.6 192.65q.3-.15.55.55.2.65-.1.8-2.3 1.15-4 4.45-.9 1.6-1.3 3.05l-.35.45q-2.85 1.9-25.8 3.75l-28.05 1.1q-.35-.05-.55-.8-.25-.8.1-.8l27.15-1.6q23.25-1.75 26.05-2.9.3-1.85 1.4-3.7 1.75-2.95 4.9-4.35m14.7-86.1q.95-1.3 1.5-1.15t.05 1.65q-.55 1.6-2.5 3.5-2.3 2.2-5.1 3.2-.35.1-.4-1-.1-1.15.25-1.25 2.45-.9 4.1-2.45zm-85.85 9.55q-1.4 2.5-2.6 3.5-1.1.85-3.05 1.3-.35.1-.35-.8-.05-.85.3-.95 1.45-.6 2.25-1.35l2.35-2.95q.2-.3.55-.3l26.05-3.9q26.75-4.15 31.95-5.5.5-.15.85.25l2.25 2.15q2.95 2.4 6.15 3.65.35.1.3.9 0 .85-.3.75-3.5-.9-6.35-3.15-1.15-.9-2.95-2.9-8.1 2.3-29.1 5.7-21.4 3.55-28.3 3.6"/><path fill="#0d131a" d="M176.2 105.7q.85 5.1-1.9 8.85l1.35 30.6.6 15.75q1.25 29.9 1.25 36.75l-.1 3.45q-.5 7.9-2.9 12.55-2 3.85-6.5 7.45-3.55 2.85-9.6 2.6l-8.5-1.45Q144 221 132.45 221q-11.5.05-19.55 1.35-2.9.5-10.85 2.45l-8.95 2.1-8.7.4q-6.15-.6-9.9-3.95-2.85-2.55-4.55-7-1.05-2.8-.95-5.65.15-2.75 1.35-5l.85.1q.75.4.55.7-2 3.85-.05 8.85 1.55 4.1 3.7 6.1 3.1 2.9 8.85 3.5l8.35-.45 8.7-2q7.35-1.9 11-2.5 8.7-1.45 19.05-1.5 11-.1 18.65 1.45l8.05 1.35q5.45.3 8.65-2.25 4.2-3.4 5.9-6.8 2-4.05 2.5-11.55.35-5.85-1.2-40l-.6-15.8-.5-19.9-.2-10.1.15-.85q1.95-3.8 1.5-7.6-.7-5.8-8.9-13.65-8.8-8.4-15.7-7.75-4.25.45-7.7 2.8-2.15 1.45-4.9 4.55l-2.8 2.4q-1.75 1.25-13.8 3.85l-17.4 3.3-19.4 2.05q-13.9 1-14.95-.25l-.05-.1q-1.65-2.05-2.9-2.95-2.3-1.55-5.05-1.15-1.45.2-3.05 1.45-1.65 1.25-3 3.2-1.8 2.55-2.5 5.4t-.15 5.35q.7 3.5 2.95 5.7t5.7 2.7q.35.1.25.8t-.45.6q-4-.6-6.8-3.05-2.9-2.55-3.75-6.45-.6-2.9.1-6.05.75-3.25 2.7-6.05 1.55-2.2 3.8-3.7 2.15-1.5 4-1.75 3.25-.45 6.05 1.55 1.5 1 3.35 3.35l13.75-.6 19.1-2.45 17.7-3.1q11.25-2.15 12.8-3.3l2.2-2.25q3.2-3.6 5.35-5.2 3.95-2.9 8.6-3.25 8.8-.7 17.8 8.4 7.85 8 9 14.85"/><path fill="#0d131a" d="m78.2 148-.7-.1q-.7-.45-.65-.8 1.6-14.15 8.95-24.2 5.55-7.5 12.8-11 .3-.15.7.6.35.75.05.85-5.65 2.75-11.65 11.1-7.65 10.65-9.5 23.55m67.75-36.85q.35.05.25.85-.05.8-.4.75-12.05-1.2-24.25 3.1-10.7 3.75-17.3 9.95Q99.8 130 97 136.55q-5 11.8-2.25 26.85.1.35-.65.7l-.85.05q-3.6-15.35 1.65-28.3 3.05-7.6 7.7-11.95 6.75-6.4 18.25-10.15 12.9-4.25 25.1-2.6"/><path fill="#0d131a" d="M134.15 122.5q-1-.8-.55-1.2.4-.4 1.5.3 2.35 1.55 3.8 4.15 1.6 2.95.9 5.6-.75 2.75-3.05 4.65-2.35 2-5.65 2.55-5.6.9-9.05-.9-2.6-1.45-3.5-4.1-1.6-4.85 4.4-10.9.9-.95 1.45-.55.5.45-.35 1.4-5 5.6-3.65 9.55 1.7 4.95 10.3 3.45 2.85-.45 4.75-1.95 1.85-1.45 2.45-3.7.55-2.1-.65-4.6-1.15-2.3-3.1-3.75M164.5 151q1.15 1.25 1.1 2.2t-1.2-.3q-6.85-7.25-16.45-6.85-6.25.25-12.25 3.45-4.7 2.5-9.45 2.9-3.25.3-12.9-.3l-.95-.05q-4.4-.25-8.55 2.25-6.05 3.6-10.65 12.55-2.55 4.95-4.35 10.6-2 6.25-1.85 9.9.25 5 2.8 6.65 2.8 1.85 7.55 1.3l5.7-1.3 4.85-1.5q5.25-1.55 10.55-2.4 16.95-2.75 32.5 1.2.35.1.2.85-.15.8-.5.7-13.15-2.5-27.75-.75-8.85 1.1-19.7 4.05-6.2 1.7-9.9 1.15-2.45-.35-4.55-2-1.6-1.3-2.55-3.35-1-2.15-1.1-4.7-.15-4 1.65-10.3 1.7-6 4.25-11 4.9-9.45 11.8-13.2 4.75-2.6 9.7-2.3l.95.05q9.5.6 12.65.3 4.4-.35 8.85-2.75 6.25-3.3 13-3.65 9.95-.5 16.55 6.6M61.45 114.1q2-1.95 5.05-2.05 2.7-.05 4.95 1.1 3.05 1.55 3.2 4.7l-.15 5.35-.55 6.05q-.3 2.8-1.95 4.2-1.5 1.25-4.35 1.55-2.45.25-4.3-1.1-1.75-1.3-2.2-3.25-1.8-8.3-1.8-11.65 0-2.95 2.1-4.9m1.15 1q-1.55 1.5-1.55 3.95 0 2.15.6 6.15l.85 5.15q.25 1.4 1.6 2.4 1.5 1.1 3.4.9 4.5-.55 5.1-4.45.4-2.5.4-9.05l-.05-2.05q-.15-2.9-3.15-4.05l-3.2-.55q-2.5.1-4 1.6"/><path fill="#0d131a" d="M63.75 131.25q.2-1.1 1.45-1.65l3.35-.15q.7.2.65.55-.1.35-.8.3-2.85-.3-3.85 1.1l-.6.45q-.3-.05-.2-.6m89-30.5q3.6.2 5.7 2.1 1.85 1.7 2 4.1.15 1.65-.35 5l-.8 5.15q-.5 2.7-1.5 3.95-1.55 1.9-4.85 1.9-3 0-4.9-1.75-1.45-1.35-1.9-3.25-1.3-5.85-1.3-10.65 0-3 1.6-4.6 1.05-.95 2.85-1.5zm6 6.4q-.15-2.25-1.75-3.6t-4.3-1.45q-2.9-.15-4.7 1.55-1.35 1.2-1.35 3.25 0 6.2.85 10.85.3 1.55 1.35 2.5 1.45 1.35 4.1 1.35 2.55 0 3.7-1.3.85-.95 1.3-3.4 1.05-6.6.8-9.75"/><path fill="#0d131a" d="M148.8 120.55q0 .25-.5.15l-.5-.35q.05-1.3.85-2.05 1.1-1 3.85-1.15l2 .3q.95.25 1.4.6.75.5.55.8-.25.3-1.1 0l-2.8-.35q-3.65.15-3.75 2.05M74.05 192.9q3.05-.85 5.05.35 1.45.85 2.6 3.05l1.7 3.95q1.15 2.9 1.3 4.05.4 2.25-1 4.3-1.55 2.2-4.45 2.85l-5.6-.25q-1.65-.75-2.45-2.1-.55-1-1-3.85l-.6-4.4q-.45-3.45.65-5.4 1.1-1.8 3.8-2.55m6.45 4.05q-.95-1.85-2-2.5l-4.1-.25q-2.6.7-3.2 2.75-.4 1.25-.1 3.7.75 6.2 1.55 7.65 1.55 2.65 6.35 1.55 2.4-.5 3.4-2.2.85-1.45.55-3.2l-1.05-3.8zM156 186.1q3.15-.45 5.05 1.35 1.15 1.05 1.7 2.8 1.5 4.1 1.7 7.8.2 2.95-1.55 4.75-1.7 1.75-4.95 2.05-3.1.3-5.25-.75-2.25-1.1-2.65-3.3-.35-1.9.2-8.8.25-2.7 1.6-4.1 1.4-1.4 4.15-1.8m5.4 4.7q-.65-1.8-1.6-2.55-1.35-1.15-3.65-.8-4.45.6-4.45 4.6l-.05 2.75q-.1 4.15.15 5.65.25 1.2 1.8 2.05 1.7.85 4 .65 2.65-.25 4-1.7t1.2-3.9q-.15-2.7-1.4-6.75"/><path fill="#0d131a" d="m162 111.35 3.05 26.5q2.4 22.85 2.85 32.6.4 9.75-1.45 15.6-1.35 4.2-3.55 5.85-.25.2-.8-.35t-.35-.8q1.55-1.6 2.55-5.05 1.75-5.8 1.35-15.05-.45-9.9-2.6-32.4l-2.8-26.35q-.05-.35.85-.6zM61.5 251.3q3.15.95 4.65 3.2 1.5 2.15 1.45 4.9-.05 2.6-1.35 3.9-.8.8-8.5 4.4-2.9 1.35-5.2.85-2.4-.45-3.9-2.8-1.15-1.85-1.1-3.9.05-2.2 1.55-4 4.4-5.25 7.1-6.5 2.25-1 5.3-.05m3.45 4.35q-1.35-2-3.95-2.8-2.45-.8-4.1 0-3.05 1.35-6.75 5.85-2.35 2.8-.25 6.2 2.55 4 7.25 1.6l1.4-.7q5.7-2.85 6.35-3.5 1-1 1.1-2.8.15-2.05-1.05-3.85"/><path fill="#0d131a" d="M55.55 261.3q1 1.45 1.1 3.25.05 1.95-1.2 3.3l-.6-.05q-.4-.25-.25-.45.95-1.15.75-2.75-.1-1.4-.9-2.5-1.5-2.05-3.7-1.75-.65.1-.75-.3-.15-.35.5-.55 3.1-.8 5.05 1.8m35.7 2.6q1.7 2.65 1.45 5.55-.2 2.55-1.6 3.7L87.85 275l-5.05 2.1q-3.05 1.2-5.5.6-2.4-.6-3.85-2.95-2.3-3.85.75-7.55l3.2-3.7q2.1-2.15 3.8-2.95 2.3-1.05 5.4 0 3.15 1.05 4.65 3.35m-1.4 8.1q1-.85 1.25-2.55.35-2.25-1.1-4.45-1.25-1.95-3.95-2.8-2.55-.85-4.25-.05-2.65 1.2-6.55 5.9l-.1.1q-1.35 1.65-1.35 3.2 0 1.4.85 2.7 2.35 3.9 7.65 1.75 5.8-2.35 7.55-3.8m112.05-82.35q-4.4-2.65-4.55-6.35-.05-1.5 2.8-5.65 2.25-3.3 3.55-4.65 3.1-3.2 8.3-.85 2.1.95 3.05 3 .95 2 .45 4.35l-1.5 6q-1.5 4.4-4.05 5.5-3.2 1.45-8.05-1.35m-1.3-9.8-.95 1.6q-.85 1.25-.45 2.65.55 2.25 3.6 4 4.1 2.45 6.65 1.4 2.9-1.25 4.7-10.3.4-1.7-.2-3.2-.7-1.8-2.55-2.65-2.05-.95-3.9-.75-1.8.2-3 1.5-.7.7-3.9 5.75"/><path fill="#0d131a" d="M206.7 174.3q-.55-.8-.15-1 .4-.15 1.15.5 3.6 3 6.9 1.95l.5.5q.15.55-.1.65l-4.75-.1q-2.4-.85-3.55-2.5m28.7 8.2q2.15.7 3.6 2.9 1.25 1.9.95 4.35-.2 2-1.25 3.25l-3.4 3.5-2.85 2.55-.7-.75q-.45-.85-.25-1.05l2.75-2.25 3.3-3.15q.8-.95 1-2.4.25-1.8-.7-3.3-1.2-1.85-2.95-2.35-1.25-.35-2.1 0-3.9 1.55-6.2 2.95-.2.15-.85-.5-.6-.7-.4-.85 1.15-.75 6.95-3zm-165.3 31q.2-.2.75.4t.3.8q-2.55 2.15-3.45 6.45-.95 4.25-.05 9.7.8 4.95 4.35 9.6 2.2 2.95 5.2 5.4 1.05.8.6 1.25-.4.4-1.55-.3-3.35-2-6.25-5.5-4.1-4.85-4.95-10.25-1.2-7.25 1.15-12.45 1.4-3.05 3.9-5.1"/><path fill="#0d131a" d="M70.75 240.1q.3-.15.65.6.3.75 0 .9-3.05 1.4-8.55 4.35l-5.9 3.3q-1.75 1.15-1.3 3.2.05.35-.65.75-.7.45-.8.1-.5-1.7.05-3.15.5-1.35 1.85-2.25 1.15-.75 5.95-3.4 5.55-3 8.7-4.4m-9.45 25.75q-.3-.1.3-.9.55-.75.9-.7l5.7 1.75q4.05 1.5 6.1 2.7.3.2-.1.85-.35.65-.7.55zm53.1-23.75q-.1-.35.65-1.1t.85-.45l1.4 4.35q1.1 3.95 1.4 7.05.4 3.95-.4 5.95-.95 2.25-4.2 4.4l-14.3 9.85q-3.65 2.5-7.15 2.95-2.7.35-4.8-.55-.3-.15.35-.8.6-.65.9-.55 1.85.4 3.4.05 2.25-.55 5.55-2.8l14.35-9.9q2.8-1.85 3.55-3.65.65-1.65.3-5.2l-.95-6.2z"/><path fill="#0d131a" d="M133.05 234.1q8.45-2.75 12.8-3.7 7.1-1.6 12.3-1.15 6.95.65 12.7 2.65 4.8 1.7 8.2 4.1l.45 1.2q.2 1-.05.8-3.05-2.15-8.45-3.85-5.85-1.8-12.8-2.45-4.95-.45-11.9 1.15-4.25.95-12.55 3.65l-9.75 2.95q-12.75 3.35-20.95-2.95-1.55-1.15-1.3-1.75.2-.6 1.9.25 4.35 2.2 7.75 2.8 5.35.95 12-.8z"/><path fill="#0d131a" d="m115.4 238.85.9.05q.7.35.55.65-1.35 2.7-3.8 4.95-4 3.75-9.75 5.2l-2.2.05q-.3-.45 1.55-1.2 4.95-2.05 8.95-5.45 2.95-2.55 3.8-4.25m70.65-67.7q3.9-1.35 7.3-1.2 3.15.15 6.25 2.1 2.4 1.5 3.55 3.1.2.25-.35.8-.55.6-.8.35-1.05-1.05-3.05-2.15-2.9-1.55-5.7-1.7-3.2-.15-6.6.8-3.45.9-5.8 2.55-1.15.8-1.45.15-.35-.65.75-1.6 2.1-1.9 5.9-3.2m12.25 10.65q.35-.15.2.9-.1 1-.4 1.15-3.35 1.75-7.85 7.1-5.75 6.8-7.65 14-.4 1.4-1 1.15-.6-.2-.25-1.65 2.2-9.85 8.25-16.35 4-4.3 8.7-6.3m16.25-.85q3.4-.3 8.55 2.3 6.9 3.45 9.3 9.85 2.6 6.9.65 16.95-2 10.25-8.05 20.2-6.95 11.45-16.65 16.75-10.95 6-20.5.75-6.7-3.7-9.7-11.35-2.15-5.6-1.95-11.55.05-1.45.65-1.5.55-.05.6 1.35.2 5.9 2.25 10.75 2.9 6.95 9.15 10.35 8.55 4.7 18.4-.95 8.7-5.05 15.35-15.95 6-9.8 8.05-19.2 2.1-9.45-.35-15.95-2.15-5.8-8.15-8.8-4.35-2.2-7.45-1.95-.35.05-.4-1-.1-1 .25-1.05"/><path fill="#0d131a" d="M208.9 205.4q5.2-3.35 10.35-.75 3.9 2 3.7 8.05-.2 6.25-4.75 14.25-3.75 6.6-8.4 9.4-4.9 2.95-9.45.65-4.4-2.25-3.5-9.8.6-5.3 3.25-10.8 3.7-7.8 8.8-11m.6 28.7q3.85-2.8 6.8-8.3 3.3-6.05 4.25-10.6 1.4-6.5-2.35-8.7-3.5-2.1-7.8.6-4.6 2.85-8.4 10.2-2.05 3.95-3 8-1.05 4.55-.1 7.3.65 2 2.4 2.9 3.8 1.8 8.2-1.4M205.75 91l1.25.05q1.25.3 1.25.65-.5 6.1-.8 17.05-.35 12.25.05 17.95.1.7-.6.85L190.05 132q-1.95.45-2.1-.55t1.75-1.65q7.65-2.5 15.2-4.55-1.3-23.6.85-34.25"/><path fill="#0d131a" d="M250.1 83.3q4 5.85 4.9 12.4 1.1 8.35-2 21.8-3.15 13.7-8.8 24.95-5 10.05-9.25 13.2-3.55 2.7-20.15 4.65l-17.7 1.5q-1.7 0-1.7-.75t1.7-.9l18.05-2.05q15.45-2.25 18.6-4.6 3.85-2.95 8.4-12.5 5-10.6 8.1-24 2.9-12.45 2.1-20.25-.65-6.45-4.2-11.7-2.75-4.15-12.3-9.5-9.1-5.05-13.5-5.45-3.95-.4-9.8 1.8-5.35 1.95-7.9 4.25-.6.6-1.1 3.7-.6 3.6-.1 6.3.55 2.65 1.9 3.25 2 .9 3.8.95l3.8-.3.35 1.55q-4.2 1.9-8.75-.1-1.15-.45-2.15-2.15-.95-1.65-1.25-3.55-.45-2.95.2-6.9.6-3.8 1.6-4.65 2.75-2.45 8.9-4.65 6.55-2.3 10.85-1.9 4.75.45 14.3 5.65 10.05 5.5 13.1 9.95"/><path fill="#0d131a" d="m230.6 71.55.35 1.6q-7.15 1.55-10.2 2.85-3.95 1.6-4.65 3.9-1 3.3-1.3 6.55-.3 3.5.4 5.45.65 1.75 2.1 2.7 1.4.95 3.9 1.4l4.2.45q1.45-.05 2.4-.6.25-.2.8.4.5.6.25.8-2.3 2.1-8.65.95-5.6-1.05-7.25-5.35-.85-2.25-.45-6.35.3-3.55 1.35-7.1 1-3.4 5.5-5.1 2.8-1.05 11.25-2.55"/><path fill="#0d131a" d="M243 91.4q.7-.15.9 1.55.3 2.25.3 7.15-.15 3.05-2.95 4.1-2.6.85-5.45.7-3-.2-5.3-1.8-2.35-1.6-3.5-4.35-1.05-2.6-.55-8.55.5-5.2 1.35-7.3.8-1.95 5.95-3.55 3.65-1.15 7.6-1.65.35-.05.95.8.6.8.25.85-4 .5-7.85 1.8-4.05 1.4-4.5 2.5-.85 1.9-1.25 6.9-.4 5.45.5 7.6.95 2.3 2.45 3.35t4.05 1.15l4.7-.4q1.4-.6 1.45-2.3l.2-6.65q0-1.75.7-1.9M43.7 147.8q4.7-2.1 24.8-2.1.35 0 .75 1.3.45 1.3.1 1.3-19.9 0-24.65 2.15-6.15 2.8-16.75 11-13.45 10.4-15.15 16.9-1.5 6 .2 12.75 1.15 4.6 2.4 6.15.75.85 2.9 1.6 2.65.95 5.1.7.35-.05.4.75.1.8-.25.85-2.8.3-6-.7-2.95-.9-3.9-2.05-1.6-1.85-2.9-7.25-1.7-7.1-.15-13.3 1.85-7.2 16.15-18.55 11.2-8.9 16.95-11.5"/><path fill="#0d131a" d="M20.45 188.15q-.1-1.4.45-1.4.5-.05.7 1.35.75 5.35 1.95 9.35 1.15 3.75 2.15 4.7 1.85 1.7 6.2 3.2 5.1 1.75 7.25.4.25-.15.7.55.45.65.15.85-3.15 2-8.95.2-4.7-1.45-6.95-3.5-1.55-1.45-2.6-6.95-.8-4.1-1.05-8.75"/><path fill="#0d131a" d="M37 192.05q.25-1.55.8-1.55t.55 1.55q0 3.55.7 7.85.8 5.4 2.15 6.45 2 1.6 4.75 2.1 3.1.55 4.95-.95 3.1-2.55 6.1-6.85 3.55-5.1 3.55-8.25 0-1.85-1.5-4.05l-1.55-1.8q-.3-.05-.3-.8 0-.8.3-.8 1.15 0 3.05 2.4 2.1 2.7 2.1 5.25 0 3.7-4.1 9.55-3.3 4.7-6.35 7.25-2.35 1.9-6.6 1-3.6-.8-6.05-2.7-2.05-1.65-2.55-8.2-.35-4.7 0-7.45"/><path fill="#0d131a" d="M65.45 170.85q.85-.65 4.65-.55l3.65.2q.35 0 .3 1.15 0 1.15-.35 1.15l-3.95-.1-2.85.2q-.6.55-4.5 6.75l-4.75 7.8q-.85 1.6-1.6 1.2-.7-.45.2-2l4.4-7.9q4.1-7.3 4.8-7.9m10 98.45q3-.8 5.05 1.95 2.2 3.1-.1 6.05-.2.2-.65 0t-.3-.45q.95-1.15.8-2.65-.15-1.25-.9-2.35-1.45-2.1-3.7-1.8-.65.1-.7-.25-.1-.3.5-.5M36.7 55.8q.95-3.1 3.6-4.35 2.25-1.1 4.3-.45 3.05 1 4 4.1.7 2.4 0 4.85-.65 2.1-2.25 3.5-2.1 1.8-4.85 1.25-3.1-.65-4.45-3.2-1.3-2.55-.35-5.7m1.7.75q-.8 2.6.45 4.5 1.1 1.65 3 2.05 2.5.5 4-1.45 1.25-1.7 1.3-4.25.05-1.55-.6-2.75-.8-1.55-2.45-2.1-1.6-.5-3.05.3-1.85 1-2.65 3.7m148.3-7.95q2.05.7 4-.3 2.05-.95 2.5-3.45l.1-1.15q0-2.45-1.35-3.9-1.4-1.5-3.4-1.75-1.75-.25-3.1.5-1.95 1.1-2.4 3.55-.3 1.85.25 3.35.85 2.2 3.4 3.15m-5-2.45q-.9-2.05-.35-4.55.7-3.05 3.3-4.5 1.8-1 4.2-.65 2.65.4 4.4 2.25 1.1 1.15 1.55 2.85.45 1.75.1 3.5-.55 3.3-3.45 4.7v.05l-5.5.25Q183 49 181.7 46.15"/></svg>