<svg xmlns="http://www.w3.org/2000/svg" width="516" height="521" viewBox="-0.9 -0.95 515.7 520.65"><path fill="#f19963" d="M255.25 465.05q-1.05 7.75-10.95 25.45l-12.8 21.3q-1.8 3-8.1 4.1-5.7 1-13.25.25-7.45-.75-13.25-2.8-6.3-2.25-8.05-5.1l-20.05-1.2q-17-2.05-20.1-6.75-6.65-10 13.9-33.5 11.4-13.05 25.45-24.7l30.85 8.7q31.75 9.65 36.35 14.25m197.35-65.5q11.9 4.7 19.05 11.4 7.6 7.05-6.45 17.9-5.25 4.1-11.65 7.1-6.05 2.85-8.95 2.85-.55 2.75-13.6 6.45-11.95 3.4-16.7 3.4-3.25 0-10.15-11.8-4.85-8.2-9.55-18.55l47.55-22.15z"/><path fill="#d18456" d="M255.25 465.05q-.7 4.9-4.95 13.95-55.65-6.95-100.2 5.4 5.55-11.1 20.9-26.6 9-9.1 17.05-15.7l30.85 8.7q31.75 9.65 36.35 14.25M451 398.95q10.3 3.85 17.4 9.25-24.3 10.8-31.8 14.45-17.95 8.8-30.5 17.45-5.8-9.25-11.5-21.8l47.55-22.15z"/><path fill="#00568a" d="M481.2 366.35q-7.9 16.35-21.95 29.35-17.75 16.45-40.85 22.5-28.05 7.35-61.5-1.55l-.1-.5q-16.25 31-48.75 44.85-35.75 15.3-79.85 4.05-29.8-7.6-48.4-24.65-15.55-14.2-22.4-34.05-5.5-16-4.6-32.9.7-14.05 4.8-21.1l98.95-54.55 75.7 1 153.8 48.5q1.95 5.05-4.85 19.05"/><path fill="#00426f" d="M365.25 383.2q2.05-15.5 2.05-34.35 2.9 12.6 10.55 23.1 7.9 10.8 19.6 17.6 26.5 15.35 61.95 6-17.65 16.45-40.65 22.55-28 7.45-61.3-1.3 5.4-15.25 7.8-33.6m-212.45-9.75q.7-14.05 4.8-21.1l98.95-54.55 9.45.15q-15.3 14.75-19.7 49.5-1.9 15.1-.9 29.9.95 14.9 4.6 25.75 6.35 20.1 26.55 37.9 18.5 16.3 33.85 18.95-17.35 7.95-37.45 9.45-21.5 1.55-44.75-4.35-29.8-7.6-48.4-24.65-15.55-14.2-22.4-34.05-5.5-16-4.6-32.9"/><path fill="#f19963" d="M502 65.9q.6 3.65-9.25 11.55-9.9 7.95-23.25 14.45-2.15 31.75-28.95 46.15-10.35 5.55-22.6 7.4-10.8 1.6-19.25-.1-12.8-2.55-19.15-20-2-5.45-3.1-11.7l-.7-5.2q-1.75-2.3-8.25-6-13-7.3-36.7-14.1-6.55-1.85-.8-14.55 4.9-10.8 14.35-21.75 4.4-5.05 25.25 8.2 10.45 6.65 20 14.3-1.6-5.25-5.4-13.4-7.5-16.25-18.3-30.6-2.05-2.75 1.2-7.2 3-4.05 9.65-8.55 14.6-9.95 28.5-12.1 5.65-.85 18.6 29.85 6.45 15.35 11.8 30.9l5.65.25 11.6-14.35q12.6-14.75 17.7-16.8 3.05-1.2 7.85.9t9.6 6.75q11.5 11.05 13.95 25.7"/><path fill="#d18456" d="M488.45 55.35q1.45 4 .2 7.4-.75 2-4.05 6.65-1.1 1.55-14.8 11.2-12.35 8.7-13 12.7-3.3 22.05-9.2 32.8-5.1 9.3-15.85 15.85-8.75 3.15-18 3.95l-15.05-.55q-12.8-2.55-19.15-20-2-5.45-3.1-11.7l-.7-5.2q-1.75-2.3-8.25-6-13-7.3-36.7-14.1-5.4-1.55-1.55-11.8 3.4-8.85 7.3-12.4l6.1-5.3q3.85-2.6 6.55-1.05l21.65 13.25Q389.2 82.15 388.6 81q.9.7 1.05-2.8l-.05-3.65q-1.6-5.25-5.4-13.4-7.5-16.25-18.3-30.6-3.15-4.25 7.65-12.8 9.85-7.7 14.7-8.45 4.45-.7 8.55 1.25 5.6 2.6 9.4 9.65l13.85 28.25q10 20.6 11.45 21.65 1.55 1.1 3-2.65l1.15-4 5.65.25 11.6-14.35q12.6-14.75 17.7-16.8.85-.3 8.5 9 7.95 9.75 9.35 13.8"/><path fill="#fcd13e" d="M441.2 155.4q22.5 6 36.15 16.4l-16.45 12.4q-14.65 10.9-17.45 13.35l34.5-2.8q25.85-1.35 27.7 1.55 4.2 6.5 5.95 35.05 1.75 28.35-1.6 32.15-2.25 2.55-22.5 3.15-26.25.7-39 3.15 11.35 7 34.75 27.8 24.75 21.9 23 24.9-7.55 12.85-25.55 28.95-15.75 14.15-36.05 27.75-18.8 12.65-33.8 19.8-15.35 7.35-18.85 5.15-1.65-1-5.85-9.75l-9.4-20.25q-14.95-32.15-25.6-46-.45 6.45-12.4 43.75-12.05 37.7-14.6 39.8-2.75 2.3-18.1-.3-14.7-2.45-33.6-8.05-20-5.9-34.9-12.5-16.9-7.5-22-13.7 5.9-18.05 17.05-42l10-20.35 162.35-131 14.65-32.05 6.8.55q7.05 1.05 14.8 3.1"/><path fill="#d9b536" d="M353.1 252.3q-12.7 15.5-14.45 18.05-7.35 10.65-8.05 19.2-26.65 20.55-44.8 39-23.15 23.6-45.25 55.95-.85 1.25-1.2 3.1-.35 1.95.15 3.2-9.7-4.25-14.6-6.9-6.8-3.65-9.35-6.75 5.9-18.05 17.05-42l10-20.35 119.3-96.25q5.45 7.4 2.15 16.55-2.35 6.6-10.95 17.2m-1.95 75.85q-.05.7-6.7-10.35-6.5-10.8-5.1-10.35 10.6 3.25 32.2 42.7 5.7 10.4 14.6 28.1 7 13.85 8.1 15.35 2.65 3.7 5.45 4.45 3.05.85 3.65 1.55.8.9-.2 2.45-.95 1.5-2.9 2.6-5.05 2.9-8.25-.5-1.25-1.3-5.45-10.25l-9.45-20.15q-14.85-31.15-25.95-45.6m94.3-61.65q-1.4-.65-3.05-2.3 6-2.15 37.7-3.85 28.1-1.5 29.8-4.95 2.15-4.2 1.65 1.25-.55 5.75-1.55 6.85-2.25 2.55-20.7 3.1-25.4.75-36.6 2.45-5.6-1.75-7.25-2.55M419.6 151.75q1.75-.6 12.95 1.65 13.7 2.75 25.65 7.7-8.5 1.2-22.9 8.45-16 8-33 20.45z"/><path fill="#e5e3da" d="M391.9 129.6q14-10.1 24.25-6 11.55 4.6 8.95 18.3-2.5 13.2-19.9 42.85l-29.2-8-.85-30.35q6.6-9.5 16.75-16.8"/><path fill="#c1bfb8" d="M375.15 146.4Q381 138.05 390 131q12.3-9.65 22.05-8.45-24.9 20.15-33 55l-3.05-.8z"/><path fill="#0d131a" d="m252.55 469.6 3.25-.35q-7.5 25.5-17.8 39.2-5.55 7.45-12.15 9.9-3.45 1.25-9.4 1.3-8.3.05-17.05-2.65-9.05-2.75-12.15-6.55-11.25 1.85-23.8-.3-13.8-2.4-17.6-8.1-5.5-8.3 2.85-21.5 8.8-13.85 35.05-36.75l1.8 2.4q-14.25 12.4-24.15 24.35-12.8 15.45-12.8 24.15 0 2.85 1.35 4.75 2.4 3.6 17.15 5.95 13.35 2.1 19.5 1.2-.8-8.4 6.45-17.9 2.7-3.55 5.45-5.7 2.6-2.05 3.35-1.45.55.45-1.35 2.8l-4.55 5.8q-6.8 9.6-4.9 18.05.7 3.1 8.9 5.05 7.5 1.8 16.7 1.7 5.05-.05 9.1-2.05 3.6-1.85 6.7-5.55 3.3-3.9 10.1-16.35 7.35-13.45 10-21.4m221.4-60.2q4.35 4.45 3.3 9.9-.9 4.95-5.95 9.75-4.8 4.55-11.75 7.6-7.1 3.15-14 3.55-3 4.15-16 8.45-13.05 4.35-19 3.15-3.8-.75-8.1-9.05-4.05-7.75-7.2-19.55l3.1-.45 8.35 17.05q3.9 6.75 7.6 7.35 3.9.6 16.4-3.25 12.35-3.8 12.45-5.45.4-4.95-6.4-11.8l-4-4q-1.45-1.6-.3-1.8 2.85-.5 8.3 5.35 5.65 6.05 5.65 10.55 12.75-3.45 20.9-11.45 8.4-8.2 3.35-13.25-5.7-5.75-17.4-10.6l2.8-2.1q6.2 2.05 10.1 4.15 4.4 2.4 7.8 5.9"/><path fill="#0d131a" d="M484.2 364.85q-6.8 16.5-17.8 28.7-16.95 18.9-44.55 26.5-31.75 8.75-65.35-1.95l.8-2.9q38.6 10.25 69.9-1.45 21.75-8.2 37.5-25.75 10.75-11.95 16.55-25.4 4.75-11.15 3.4-14.75l3.7-2.9q1.95 5-4.15 19.9"/><path fill="#0d131a" d="m364.8 352.25 3.4 2.7q4.5 27.65-4.05 52.4-8.4 24.4-27.6 41.05-19.8 17.15-47.25 22.6-29.3 5.85-62.9-2.7-29.4-7.45-48.45-24.7-14.4-13.05-21.7-30.45-7.3-17.3-5.9-37.45 1.15-15.8 5.95-24.15l2.6 1.55q-4.3 7.4-4.7 22.5-.5 18.55 6.6 35.4 6.95 16.65 20.85 29 18.25 16.3 46.9 23.6 32.2 8.2 60.55 1.45 26-6.2 45.15-24 18.15-16.9 26.35-40.55 8.2-23.7 4.2-48.25M504.55 62.3q.75 4.6-.55 6.95l-4.25 5.1q-6.4 7.5-28.85 18.5-2.05 25.95-16.7 39.85-11.95 11.4-30.45 13.45l.5-3.55q17.55-3.7 28.5-15.4 11.6-12.3 15.25-32.85-1.9.95-3.8 1.3-1.5.25-2.35-1-.85-1.3.65-1.9 10.85-4.35 24.85-14.3 13.6-9.7 13.15-12.3-1.65-9.95-8.05-18.7-5.65-7.75-12.55-11.6-5.65-3.15-8.75-1.9-4 1.6-15.1 14.5l-12.2 14.8q-3.35 3.95-3.75 3.15l.3-1.6h-4.15l-.35 1.45q-.6.85-1.7-2.3-4.55-13.55-11.85-30.8Q410.85 6 406.05 5.4q-10.05-1.2-23.7 6.9-12.6 7.55-15.35 14.25-.75 1.85.1 3.1 11.2 14.9 18.35 29.7Q390.8 70.5 391 74.1q.15 2.05-.65 2.35-.65.25-1.7-.75-5.9-5.35-22.6-14.7Q348 50.9 345.5 53.05 342 56 335.25 68q-7.3 13-6.15 16.9.45 1.55 2.1 2 24.95 7.15 34.8 12.3 4.1 2.15 10.95 8.35 2.8 2.5 1.75 2.85l-1.55-.15 1.55 8.45q2.4 9.55 6.8 15.75l-3.05 2.55q-4.3-6.65-6.5-16.8-.95-4.45-1.65-11.1-2.8-2.9-10.1-6.65-12.65-6.6-33.8-12.65-4.4-1.25-5.15-3.75-.3-1.1-.3-2.45 0-6.05 6.3-16.9 5.2-9.1 11.6-16.5 7-8 43.55 19.95-3.05-7.9-7.4-16.1-6.35-12-14.3-22.6-2.35-3.15-.85-6.65 3.2-7.9 13.8-15 12.7-8.45 28.75-9.8 6-.95 16.6 24.55Q427.4 35 436.7 62l3.9.2 12.6-16.55q11.15-13.75 16.1-15.75l5.9-.3q3.8.65 7.1 2.5 7.15 4 13.75 12.55 7.15 9.25 8.5 17.65"/><path fill="#0d131a" d="M430.95 197.3q0-.45 1.5-.65 4.1-.65 10.05-.2 2.95-2.6 32.35-24.55-11.1-7.95-28.05-13.3-12.05-3.8-22.7-5.15.6-1.5.45-2.9 11.3 1.4 20.65 3.95 13.9 3.8 27.5 10.9 4.9 2.55 6.25 4.35 1.65 2.2-.75 4.6-2 2-14.55 10.6l-15.3 10.6q21.05-2.1 36.65-2.25 17.25-.15 21.9 2.2 4.45 2.25 6.9 35.15 1 12.9 1 23.35 0 10.8-1.05 12.2-1.5 2-9.1 2.45l-18.2.4-16.4.25-17.5 1.4q13.9 9.75 31.95 25.65 13.9 12.25 20.05 18.75 4 4.25 4.5 6.5.5 2.2-1.65 5.55-11.7 18.1-52.25 47-17.3 12.3-32.7 21.1-16 9.15-24.25 11.15-2.2.55-4.7.05-2-.4-3.35-1.25-1.65-1-4.45-6.4-2.1-4.05-7.5-15.9-11.95-26.1-25.5-49.05-3.4 14.5-13.1 45.15-10.4 32.75-12.95 34.85-3.55 3-11.75 2.25-24.85-2.35-55.7-12.95-31.95-10.9-43.05-21.65l-2.45-2.6q-.75-1.4-.1-4.4 2.8-12.75 14.6-36.4l11.45-21.4 4.3-1.2-9.9 20.15q-10.95 23.4-16.8 41.1 8.65 9.55 43.35 21.25 32.6 11 53.5 13 4.65.4 7.2.1 1.5-.2 1.85-.55 2.5-2.65 14.25-39.3t12.25-43.2q-4.55-6.6-9-14.55-3.05-5.4-.9-4.4 1.95 1 4.7 4.7 3.35 4.6 16.85 28.05 14.8 25.75 20 37.1l7.5 17.35q3.95 7.5 8.65 6.35 7.95-1.95 26.35-13.25 17.2-10.55 36.4-24.7 19.65-14.55 31.85-25.9 13.5-12.6 12.75-16.8-1.05-5.65-29.1-28.65-23.2-19-41.05-31.3-4-2.75-2.15-2.95 1.8-.2 5 1.7l12.4 7.6q8.7-1.65 18.85-2.45l17.6-.8 14.6-.65q6.7-.6 7.95-2 1.4-1.6.3-32.2-1.15-31.4-4.8-33.15-3.45-1.6-25.5-.5l-36.6 2.2q-6.3.3-9.85-.7-1.45-.45-1.5-.85"/><path fill="#0d131a" d="M373.35 144.2q6.5-9.35 17.45-16.6 14.75-9.85 25.9-5.4 11.75 4.7 10.35 18.4-1.6 15.25-19.4 45.55L403.9 184q16.45-28.05 18.75-42.45 2.05-12.95-7.1-16.55-9.95-4-23.7 6.45-9.45 7.15-15.45 15.8zm72.25 70.65q18.05-2.65 25.55-2.7 5.2-.05 5.35.75.2.8-5.45 1.5-41.4 4.8-50.8 7.5l-.65-2.15q7.65-2.25 26-4.9m17.4 16.8q4.75.25 5 1.1.25.8-5 1.15l-23.3 2.45q-18.8 2.4-26.95 4.4l2.55-3.45q8.6-2.2 26.15-4.15 16.5-1.85 21.55-1.5m-60.75 36.75 1.55-3.4q7 2.65 27.45 20 16.15 13.7 26.8 24.15 6.7 6.6 4.8 6.3-1.85-.35-6.35-4.65-6.55-6.3-25.65-21.8-22.7-18.4-28.6-20.6m-11.1 18.1 2.25-2.45q7.05 7.05 20.3 22.8 14.15 16.8 17.55 22.65t2.25 5.6q-1.05-.2-4.2-4.5-3.2-4.35-17.35-20.8-14.95-17.45-20.8-23.3m-25.8 4.1 3.25-.3q5.6 6.95 18.1 30 11.45 21.15 14.5 28.8 2.25 5.8 1.3 5.25-.7-.4-3.4-4.4l-14.9-27.5q-13.95-25.85-18.85-31.85m-66.45 68q-1.55 5.15-2.45 4.7-.85-.45.25-5.3 1.8-7.55 10.65-35 10-30.95 12.95-35.2l4 .8q-2.7 3.85-13.5 34.6-9.3 26.55-11.9 35.4m-12.25-63.5 3.7-2.35-9.7 21.4q-10.4 23.15-13.85 32.05-2.8 7.15-3.5 6.5-.65-.6 1.45-7.35 5.35-17.3 14.15-35.5z"/><path fill="#e5e3da" d="M390.15 180.6q12.25 2.45 23.7 9.55 10.9 6.7 11.4 11.2.75 6.8-14.5 45.55-15.45 39.3-20.05 39.85-48.85 6-91.8-1.9-35.45-6.5-63.9-21.8-22.9-12.25-36-26.9-5.35-6-7.5-10.75-2-4.55-.45-6.5 5.15-6.35 12.8-12.35 4.15-3.25 10.4-7.6z"/><path fill="#c1bfb8" d="M315.7 221.05q-8.7 7.25-16 17.15-17.1 23.2-18.35 47.8-31.5-13.15-63.85-38.45-13.25-10.35-20.7-18.35-7.5-8.15-5.75-10.3 5.15-6.35 12.8-12.35 4.15-3.25 10.4-7.6l19.9.75 43 2.25q61.6 4.05 54.8 9.25-7.75 2.75-16.25 9.85"/><path fill="#f19963" d="M371.7 234.7q11.65-2.5 24.4.85 10.45 2.75 17.25 7.85l-20.6 42.8-23 2.2q-25.95 1.7-40.4-.75 10.45-46.25 42.35-52.95"/><path fill="#e5e3da" d="M370.65 186.9q-31.5 31.5-79.3 29.85-17.4-.6-33.4-5.65-13.6-4.3-19.2-9.15-5.1 4.6-14.4 2.15-10-2.6-14.45-11.55-2.7-5.4-2.6-10.5.1-4.8 2.65-8.05t6.85-3.95q4.6-.75 10.05 1.75 1.25-2.5 2.5-6.25l144.4-10.7.65 3.15q9.15-5.2 14.9-1.45 5.1 3.25 4.55 10.25-.65 8.55-6.2 15.45-7.05 8.8-17 4.65"/><path fill="#c1bfb8" d="m373.75 154.85.35 1.75q-18.35 10.75-34.15 25.25-16.6 16.35-26.55 24.85-4.3-20-15.6-46.2z"/><path fill="#c1bfb8" d="M209.9 192.55q-2.7-5.4-2.6-10.5.1-4.8 2.65-8.05t6.85-3.95q4.6-.75 10.05 1.75 1.25-2.5 2.5-6.25l91.55-6.75q-27.55 5.55-40.5 9.3-22.1 6.45-35.65 18.45-2.25 2.25-4.2 6.8-1.95 4.6-2.6 9.2-5.5 3.95-14.3 1.4-9.45-2.8-13.75-11.4m177.95-28.05q.45 5.75-4.35 12.7-5.05 7.25-9.4 4.8.7-9.55 9.7-19.4 3.2.2 4.05 1.9"/><path fill="#fff" d="M256.05 191.45q-3.95-4.7-6.1-10.6-1.8-4.85-1.65-8.25l23.65 15.25 14.1 14.4q-19.1 2.05-30-10.8"/><path fill="#dbdcdc" d="m277.65 196.6-8.05-6.55q-10.3-8.05-19.7-9.85-1.75-3.3-1.6-7.6l23.65 15.25 14.1 14.4h-.55q-3.2-1.85-7.85-5.65"/><path fill="#fff" d="M345.15 189.1q-9.15 12.25-28.05 12.85l17.3-20.05 17.5-14.8q.3 12.6-6.75 22"/><path fill="#dbdcdc" d="m351.9 167.1.1 3-.5 3.35q-11.2 5.45-23.3 15.65l6.2-7.2z"/><path fill="#00568a" d="M377.15 149.2q1.5 3.4-2.05 4.55-26 8.8-49.15 37.5-13.55 16.75-19.6 29.85-1.25 2.65-2.45 2.4-1-.25-2.8-3-8.4-12.95-17.55-22.1-19.8-19.65-47.45-30.15-6.5-2-8.6-2.95-3.35-1.5-3-4.3.3-2.25 5.35-8.2 6.2-7.35 15-13.75 25.65-18.65 58.6-18.65 26.75 0 47.3 8.6 14.1 5.9 21.2 13.45 4.15 4.45 5.2 6.75"/><path fill="#00426f" d="M236.1 168.25q-6.5-2-8.6-2.95-3.35-1.5-3-4.3.3-2.1 4.9-7.7 5.75-6.9 13.85-13 23.6-17.95 54-19.7-3.65 19.4 1.3 54.65l3.95 26.95q2 14.7 1.9 23.65l-3.3-5.35q-8.4-12.95-17.55-22.1-19.8-19.65-47.45-30.15"/><path fill="#e5e3da" d="M340.3 129.65q.6 7.2-16.6 38.1-6.95 12.4-12.8 21.15-6.15 9.25-7.75 9.25-1.15 0-7.05-7.15-6.15-7.45-12.85-17.2-18.05-26.05-20.15-38.9-.8-4.75 1.5-12.3 2.45-7.95 7.25-15.15 12.25-18.3 29.85-18.1 16.25.2 28.25 16.45 4.5 6.15 7.45 13.3 2.55 6.3 2.9 10.55"/><path fill="#c1bfb8" d="M277.9 100.05q-3.05 18.05 3.85 44.9 7 27.4 21.65 53.15l-.25.05q-1.15 0-7.05-7.15-6.15-7.45-12.85-17.2-18.05-26.05-20.15-38.9-1.35-8.25 3.5-18.25 3.85-8.05 11.3-16.6"/><path fill="#0d131a" d="m215.15 200.15-3.2 2.3q-5.9 4.2-9.35 7.05l-.2-5.1 10.95-6.65zm174.75-18.1.55-2.95q12.7 2.55 24.45 8.75 12.3 6.5 12.75 11.65 1.1 12.35-13.95 50.6-6.25 15.9-11.9 26.65-6.05 11.65-8.75 12-48.5 5.95-92-2.05l3.95-2.45q40.35 6.55 85.45 1 4.15-1.85 18.7-37.8 14.65-36.2 14.65-45.45l-.05-.5q-.4-3.65-10.55-10-11.25-7.05-23.3-9.45"/><path fill="#0d131a" d="m414 242.5-1.35 1.8q-7.55-5.65-19.35-8.1-14.6-3.1-27 1.45-12.6 4.65-21.6 18.15-8.7 13-13.25 32.95l-3.5-1.3q3.65-21.15 13.6-35.35 9.55-13.6 23.25-18.6 13.15-4.8 28.25-1.1 12.55 3.1 20.95 10.1m-187.95-72.55 1.3-3.25.6-1.65 2.8.95q-.95 3.15-2.25 5.75l3 2.7q2.9 2.85 2.35 3.55-.5.65-2.8-1.25-3.35-2.75-4.85-3.55-2.95-1.6-7.35-1.5-4.8.15-7.1 2.5-2.8 2.95-2.95 7.75t2.45 9.95q2.15 4.3 6.1 7.2 3.95 2.95 8.8 3.9 3.6.7 7.1.1 3.6-.65 4.5-2.25l1.3-2.8q.5-.9 1.1.3.2.45-.4 2.5 6 5.2 20.95 9.5 17.7 5.05 36.45 4.85.45 1.6 1.2 3l-7.05.05q-18.45-.65-33.85-4.95-15.1-4.25-18.7-9.5-6.05 4.3-12.5 3.1-6-1.15-10.85-4.15-5.45-3.35-7.75-8-2.95-5.85-2.25-12.5.65-6.45 4.2-10.1 2.85-2.95 7.25-3.55 4.3-.55 9.2 1.35m164-14.75q2.75 1.75 4.15 4.9 1.45 3.15 1.15 6.8-.35 5.1-3.05 10.7-3.25 6.9-8.3 10-5.8 3.55-13 1-9.6 11.95-27.75 19.7-15.2 6.5-33.35 8.9l1.3-3q34.6-4.6 58.35-28.35l-.85-1.6q-.65-1.85.3-3.1.4-.5 1.1 1.3 1 2.6 2.7 3.85 1.6 1.15 4.4.7 2.65-.4 5.2-2 4.2-2.55 7.15-8.6 2.45-5.15 2.8-9.7.25-2.85-.8-5.25t-3.1-3.7q-2.5-1.6-5.65-1.3-3.3.35-7.65 2.85-3.7 2.15-3.3.45l1.2-2.1-.75-2.5 2.95-.55.25 1.2q5-2.4 9.25-2.2 3 .15 5.3 1.6"/><path fill="#0d131a" d="M220.45 184.35q0-1.5.6-3.4l-1.95.3q-1.3.4-2 1.6-.55.9-1.05 2.85l-.75 2.65q-.35.55-.9-1.85-.6-2.6.9-4.95 1.35-2.1 3.55-2.85 2.85-1 6.4.4 3.3 1.3 5.75 4.1 2.85 3.3 3.9 6.55 1 3.2-.15 5.05-1.45 2.1-4.85 1.1-6.05-1.95-8.3-6.6-1.15-2.25-1.15-4.95m164.3-23.1q2.05.15 3.6 1.75 1.4 1.45 1.7 3.35.3 1.7-.25 1.85-.5.1-1.05-1.15-.5-1.35-1.55-2.3-1.2-1.15-2.6-1.25l-1.95.3q.4 1.35.4 3.45 0 3.8-1.2 7.25-1.5 4.3-4.55 6.6-2.7 1.95-4.45.45-1.75-1.45-1.4-5.45.35-3.7 2.2-7.55 1.55-3.25 4.8-5.35 3.2-2.1 6.3-1.95M256.7 194.8q-5.2-4.85-7.7-11.95-2-5.55-1.8-10.25l2.55 1.4q-.15 3.55 1.85 8.25 2.6 6.2 7.85 11.1 8.9 8.3 26.1 7.95l.6 2.05q-9.65.1-16.55-1.7-7.8-2.1-12.9-6.85m93.95-27.1 2.25-1.55q1.25 16.1-6.35 24.65-8.5 9.6-29.45 11.4l1.1-2.05q17.5-.5 25.9-10.85 6.85-8.45 6.55-21.6"/><path fill="#fff" d="M275.4 192.1q0 1.35-.55 2.3t-1.35.95q-.75 0-1.3-.95t-.55-2.3.55-2.3 1.3-.95q.8 0 1.35.95t.55 2.3"/><path fill="#0d131a" d="M271.35 195.65q-1.45-1.6-1.85-4.25-.45-2.85.5-4.75l2.4 2.35-.05.7.1 1.2q.2 1.35.7 2.25.4.8.75.8.55 0 .55-2.15l-.05-.75 2.85 2.55q-.25 1.3-.8 2.05-.85 1.15-2.05 1.3-1.65.3-3.05-1.3"/><path fill="#fff" d="M331.9 189.7q0 1.5-.65 2.55t-1.55 1.05q-.95 0-1.55-1.05-.65-1.05-.65-2.55t.65-2.55q.6-1.1 1.55-1.1.9 0 1.55 1.1.65 1.05.65 2.55"/><path fill="#0d131a" d="M331.05 188.1q0-1.3-.45-2.1l2.25-2q1.55 2.05 1.1 5.6-.4 2.65-1.8 4.25-1.35 1.65-3.05 1.4-1.2-.15-2-1.25-.7-.95-.95-2.35 1-2.25 3.45-4.7-.45 1.15-.55 1.95l-.1 1.05q0 2.25.6 2.25.4 0 .8-.8l.6-2.25zm8.05-64.7 1.25.35.2 3.2-.45-.15z"/><path fill="#0d131a" d="m373.05 140.75 5.45 5.8q2.65 3.3 2.15 5.3-.4 1.7-5.05 3.35-26.35 8.9-49.65 38.4-11.7 14.8-18.25 28.1l-1.3 3.4q-1 2.3-2.05 2.35-1.15.1-2.45-2.25l-2.05-3.9-.55-.8q-22.35-35.05-63.7-50.85l-4.5-1.5-7.7-1.9q-3.9-1.4-2.5-4.8 2.05-5.15 11.65-14.3 13.3-12.7 30.2-19.95-.4 1.45-.65 3.6-15.1 6.95-26.5 18-9 8.7-9.6 12.4l-.05.4q0 1.1 1.3 1.85 1.1.65 4.75 1.85l4.65 1.55q42.2 16.05 65.2 52l.55.85q1.2 1.9 1.7 2.2l.9-1.45q6.7-13.6 18.65-28.75 23.9-30.2 51-39.35 1.3-.45 1.4-1.05l.05-.3q0-1.25-2.1-3.9l-3.15-3.65q-3.1-3.2-8.3-6.6-9.5-6.15-22-9.9l-.2-3.2q13.5 3.9 23.75 10.2 6.1 3.75 8.95 6.8"/><path fill="#0d131a" d="M338.8 130.15v-.35q-.35-3.95-2.8-9.95-2.85-7-7.2-12.9-11.55-15.95-27.1-16.1-7.85-.1-14.9 4-5.4 3.15-9.95 8.5-5.65 6.55-9.2 15.15-3.25 8-3.25 13.9l.2 2.25q2 12.25 18.65 36.6 6.15 9 12.35 16.7 5.65 7.1 7.6 8.5 4.7-3.15 20-30.95 15.6-28.45 15.6-35.35m-7.95-26.95q4.9 6.35 8.15 13.85 2.85 6.6 3.25 11.3.6 6.95-14.65 35.1-14.35 26.6-21.3 34.2-1.85 2-3.15 2-1.9 0-8.4-7.5-6.25-7.3-13.55-17.85-18.25-26.35-20.25-38.65V135q-1-6.2 2.15-15.65 3.45-10.5 10.2-18.35 5.2-6 11.25-9.7 8.15-5 16.7-4.9 16.8.2 29.6 16.8"/><path fill="#f19963" d="M182.8 118.25q14.5 1.25 17.4 4.4 4.8 5.25 2.7 50.55-.95 19.15-4.1 56.8 3.8 1.25 12.05 5.7 9.35 5.05 13.6 8.8l25.8-17.85q19.65-12.8 27.9-13.7 8.85-.95 22.05 22.6 5.15 9.25 9.25 19.35 3.95 9.6 5 15.25 1.8 9.35-31.7 27.25-20.45 10.9-47.85 22.05-5.2 7.4-16.75 15.1-23.05 15.3-54.65 16.6-27.55 1.15-50.55-15.6-8.85-6.4-15.1-14.2-5.55-6.9-6.95-12.05-27.55-7.15-54.35-20.6Q8 274.35 3.5 263.9q-2.2-5.1 2.05-17.75 3.7-11 11.3-25.2 7-13 14.15-23.05 7.25-10.25 10.6-11.55 5.8-2.2 34.9 25.9Q98.2 233.2 110.85 248l7.2-6.05q5.45-4.65 6.65-5.05l-8.2-39.45q-8.1-39.75-7.7-56.1.25-9.4 13.5-15.5 11.2-5.15 29.6-7.1 16.15-1.75 30.9-.5"/><path fill="#d18456" d="M149.8 125.2q-16.4 6-22.1 11.7-4.75 4.75-.1 36.6 3.6 24.35 8.6 43.3 3.7 13.95 4.3 21.3.8 9.5-2.6 14.85-2.15 3.4-3.65 13.35-1.7 11.6-.8 23.85 2.4 34.1 22.7 51.45 3.9 3.3 9.45 5.4l8.45 3.3-10.55.85q-27.55 1.15-50.55-15.6-8.85-6.4-15.1-14.2-5.55-6.9-6.95-12.05-27.55-7.15-54.35-20.6Q8 274.35 3.5 263.9q-3.05-7.2 6.25-28.45 8.1-18.4 19.55-35.15 10.3-4.25 16.8 3.1 12.65 14.2 35.95 35.15 23.05 20.7 28.4 22.85 4.9 1.95 5.4-2.25.4-3.7-2.6-9.35.95-4.4 5.5-8.7 3.55-3.4 5.95-4.2l-8.2-39.45q-8.1-39.75-7.7-56.1.3-11.25 22.35-18.05 20.85-6.45 47.9-5.35-13.1 1.35-29.25 7.25m100.45 101.45q19.65-12.8 27.9-13.7 5.4-.55 12.8 8.6Q275.15 224 247.5 242l-17.2 11.45q-7.4 4.7-8.55 3.85l-13.2-8.55-11.25-7.4q-.7-.7.45-7.35 1.4-7.95 1.05-4 3.8 1.25 12.05 5.7 9.35 5.05 13.6 8.8z"/><path fill="#d9b536" d="M234.3 322.35q-3.5 7.55-16.9 25.05-13.55 17.75-16.45 18.2-2.25.35-12.8-4.95-8.8-4.45-17.3-9.55 17.25-1.1 37.9-11.15 18.6-9.1 25.55-17.6"/><path fill="#0d131a" d="M198.55 124.15q-2.15-2.05-10-3.3t-18.4-1.25q-25.45.1-43.4 6.85-15.45 5.8-15.7 14.95-.3 11.7 8.35 53.1 4.4 21.25 9.95 46.2 1.1 6.15-1.45 2.9l-2.8-4.5-6.3 5.2-5.45 4.8 1.8 4.9q.55 3.3-6-4.55-10.2-12.2-34.95-35.2-27.65-25.75-32.05-24.6-3.85 1.5-13.65 16.35-10.7 16.1-17.6 32.5-5.85 13.85-5.85 21.1 0 2.2.55 3.45 3.9 9.15 34.9 23.9 25.6 12.15 50.95 20.15 8 2.55 6.55 3.4l-3.1.4q1.35 4.85 6.4 11.15 5.75 7.1 13.9 12.9 21.3 15.1 48.2 14 30.45-1.3 54.9-17.25 12.2-7.95 18.3-15.7 36.2-14.75 56.55-27 20.3-12.2 19.1-18.45-2.35-12.4-15.1-33.45-12.9-21.25-18.75-21.9-5.1-.55-22.85 11.5-5.5 3.75-27.5 19.95-9.2 6.8-9.1 4.65t4-5.1q-2.4-2.65-11.1-7.35l-11.45-5.8q-1.8 7.3-2.8 7.55-1.45.4-.7-14.7 2.4-35.5 3.4-57.4 1.85-40.9-1.75-44.35m-31.1-9.05q23.75-.45 33.4 5.1 4.9 2.85 5.4 12.7.25 5.85-.7 19.6-.4 13.65-4.35 76 4.8 1.95 12.05 5.9 8.35 4.55 12.7 8 10.8-8.1 21.85-15.55 21.8-14.75 28.85-15.5 10.25-1.1 25.35 23.85 5.7 9.3 10 19.15 4.05 9.2 4.4 12.9.45 4.85-.25 7.25-.9 3.05-4.4 6.8-8.9 9.4-31.15 20.55-15.1 7.55-44.25 19.45-7 9.15-19.65 16.9-22.65 13.95-53.1 15.2-25.9 1.05-46.85-11.4-20.35-12.15-27.4-31.6-23.2-6.2-50.95-19.15-26.25-12.3-33.35-19.4-5.95-5.9-4.9-16.4.7-7.2 4.9-17.1 9.7-23 19.4-37.5 9.2-13.75 15.6-15.75 6.2-1.95 28.5 17.75 19.85 17.5 41.85 42.35 2.45-2.65 7.15-6.25 3.2-2.45 5.6-4-4.55-21.15-8.75-42.15-8.4-41.7-8.05-49 .35-8.45 5.05-13.45 4.15-4.5 13.75-8.1 17.85-6.7 42.3-7.15"/><path fill="#0d131a" d="M221.2 346.1q-15.1 20.6-19.15 21.45-4.4.95-16.5-5.05-9.1-4.5-19.5-11.25l7.45-.9q7.2 4.5 15.95 8.7 9.7 4.6 11.7 3.95 2.6-.85 13.9-15.75 8.65-11.4 14.9-20.7l10.9-9.65q-6.55 11.35-19.65 29.2"/></svg>