<svg xmlns="http://www.w3.org/2000/svg" width="167" height="136" viewBox="-2.65 -2.15 166.95 135.6"><path fill="#0d131a" d="m84.25 87.8-14.2 27-6.35-37.6-12.5 16.3-3.05-25.25-8.7 4.8L37.35 61l.8-.55 2.3 10.35 9.2-5.9 2.7 22.9 13.2-17.2 6 34.1L83.3 79.65l7.55 9.2-1.75 7.35-4.4-7.65zm18.35 28.15q6.1-1.7 10.9-.55 4.85 1.15 5.8 4.5.65 2.3-.75 4.9-1.3 2.35-4.1 4.25T108 132q-4.55 1.3-9.3 1.2-4.7-.15-7.35-1.65-1.95-1.05-2.4-2.7-.55-1.95.7-4.05 1.5-2.7 5.15-5.15 3.6-2.5 7.8-3.7"/><path fill="#00aeeb" d="M113.1 116.35q4.35.9 5.15 3.6.5 1.9-.65 3.85-1.15 2.1-3.7 3.8t-5.85 2.65q-4.25 1.2-8.65 1.15-4.4-.1-6.75-1.45-1.4-.7-1.8-1.9-.35-1.35.6-3 1.35-2.45 4.7-4.7t7.25-3.4q5.3-1.45 9.7-.6"/><path fill="#0d131a" d="M163.3 125.85q1 2.25.3 4.1-1.2 3.1-7.3 3.3-5.55.2-12-1.95-4.4-1.55-7.55-3.85-3.2-2.35-4.4-4.95-1.15-2.4-.3-4.55 1.3-3.3 7.55-3.8 5.9-.5 11.6 1.7 4.1 1.6 7.45 4.35 3.4 2.8 4.65 5.65"/><path fill="#00aeeb" d="M157.35 120.65q3.15 2.6 4.25 5.15.75 1.75.3 3-.95 2.5-6.5 2.55-5.2.05-10.85-1.95-4.1-1.4-7-3.5-2.95-2.1-4-4.45-.5-1-.5-2.1 0-.8.25-1.35 1-2.55 6.4-3 5.45-.45 10.75 1.6 3.8 1.5 6.9 4.05"/><path fill="#0098cd" d="M118.25 119.95q.5 1.9-.65 3.85-1.65 3-5.9 5.05-.3-2.9-6.45-5.95-5.8-2.9-9.15-2.55 3.35-2.25 7.3-3.4 5.3-1.45 9.7-.6 4.35.9 5.15 3.6m37.25-.65q-7.3-.1-11.85 2.65-3.7 2.25-4.2 5.15-4.45-2.55-5.9-5.65-.5-1-.5-2.1 0-.8.25-1.35 1-2.55 6.4-3 5.45-.45 10.75 1.6 2.6 1.05 5.05 2.7"/><path fill="#0d131a" d="M154.65 35.05q6.05 5.15 6.95 13 .95 8.15-4.45 13.75-2 2.05-4.95 3.25-2.9 1.15-6.1 1.2-4.2 0-8.75-2.2-4.3-2.05-7.75-5.5-5.65-5.65-5.65-12.85.1-8.2 4.45-12.5 4.75-4.7 12.55-4.05 7.55.65 13.7 5.9"/><path fill="#00aeeb" d="M158.65 43.3Q160 46.55 160 50q0 6.15-4.2 10.5-3.65 3.9-9.65 3.9-4.1.05-8.35-1.8-4.2-1.8-7.35-4.95-4.9-5-4.9-12 .05-3.25 1.25-6.3 1.25-3.05 3.45-5.25 4.5-4.45 12.1-3.15 7.1 1.2 12.2 6.35 2.65 2.65 4.1 6"/><path fill="#0098cd" d="M125.55 45.65q.1-4.3 1.95-7.8-1.5 12.7 8.3 23.8-2.9-1.55-5.35-4-4.9-5-4.9-12"/><path fill="#0d131a" d="M137.8 38.8q1.75-1.05 4.2-.45 2.1.5 4.15 2.05 2 1.6 3.2 3.65 1.3 2.2 1.3 4.65l-.2 1.75q-.6 2.15-2.5 3.2-2.45 1.4-5.2.4-2.75-1.05-5.1-4.15-1.25-1.7-1.75-3.8t-.15-4q.45-2.35 2.05-3.3"/><path fill="#e9545d" d="M148.4 44.65q1.7 2.95 1 5.65-.45 1.8-2.05 2.7-2.15 1.2-4.55.25-2.4-.9-4.5-3.8-1.15-1.55-1.6-3.45-.5-1.85-.15-3.6.4-1.95 1.6-2.7 1.5-.85 3.5-.35 1.9.5 3.75 1.95 1.9 1.45 3 3.35"/><path fill="#c94850" d="M141.65 39.35q1.9.5 3.75 1.95 1.9 1.45 3 3.35l.7 1.5q-2.75-2.8-5.95-4.05-3.85-1.5-6.6.3.4-1.95 1.6-2.7 1.5-.85 3.5-.35"/><path fill="#0d131a" d="M84.05 88.65q0-15.6 9.85-27.15Q104.55 49 121.1 49q15.65 0 28.05 12.05 12.4 12.1 12.4 27.6 0 15.2-11.6 26.1-11.55 10.85-27.5 10.85-15.85 0-27.15-10.85-11.25-10.85-11.25-26.1"/><path fill="#00aeeb" d="M121.3 50.5q14.9 0 26.4 11.5 11.5 11.45 11.5 26.3 0 14.5-10.7 24.8-10.75 10.3-25.85 10.3-15.15 0-25.85-10.3-10.75-10.3-10.75-24.8 0-14.85 9.35-25.85 10.15-11.95 25.9-11.95"/><path fill="#0098cd" d="M86.05 88.3q0-8.9 3.75-17.05 3.9-8.4 10.75-13.8Q92.7 67.2 91.4 82.2q-1.35 15.1 5.1 24.3 8.95 12.75 24.35 15.1 7.7 1.2 13.9-.15-5.95 1.95-12.1 1.95-15.15 0-25.85-10.3-10.75-10.3-10.75-24.8"/><path fill="#00aeeb" d="M101.75 48.05q1.9 5.15 1 11.3L91.75 76q-3.85 2.1-8 2.3-4.3.15-8.05-1.8-6.3-3.25-7.85-11.3-1.5-7.8 2.3-15.1 3.75-7.2 11.15-10.2 7.45-3.05 13.8.25 4.6 2.4 6.65 7.9"/><path fill="#0098cd" d="m92.05 75.55-.3.45q-3.85 2.1-8 2.3-4.3.15-8.05-1.8-4.25-2.2-6.45-6.9-2.05-4.45-1.75-9.9 1.75 8.6 8.1 13 6.75 4.7 16.45 2.85"/><path fill="#0d131a" d="M81 38.85q7.95-3.1 14.5.3 4.75 2.45 6.85 7.6 2.2 5.45 1 12.7-.25 1.35-.85 1.45t-.4-1.65q.65-5.75-1.2-10.9-2-5.5-6.05-7.65-6.15-3.15-13.3-.3-7.15 2.9-10.85 10-2.05 3.9-2.5 8.4-.45 4.45.8 8.45 1.95 6.1 7 8.7 3.3 1.7 8.1 1.4 4.25-.3 7.35-1.9 1.8-.9 1.75-.2t-1.15 1.3Q88.2 78.65 83.5 79q-5 .4-8.65-1.5-5.75-3.05-7.7-9.25-1.35-4.15-.75-9.4.55-5.15 2.75-9.35Q73.1 41.95 81 38.85"/><path fill="#0d131a" d="M91.75 50.35q2 1.8 2.25 5.25l.05.75q0 2.1-.75 4.15t-2.05 3.55q-1.15 1.3-2.85 2.1-1.65.85-3.35.9-2.7.15-4.55-1.6-2.3-2.1-2.25-5.75t2.45-6.95q2.3-3.3 6.05-3.7 3-.4 5 1.3"/><path fill="#e9545d" d="M81.35 64.9q-2.05-1.85-1.95-5.15.05-3.3 2.25-6.35 2.15-2.9 5.45-3.3 2.6-.3 4.2 1.05 1.75 1.55 2 4.6.1 2.15-.55 4.25-.7 2.1-2 3.55-1.05 1.15-2.55 1.9t-3 .8q-2.35.1-3.85-1.35"/><path fill="#c94850" d="M92.4 52.55q-1.9-.6-4.15-.45-4.3.3-8 3.8.6-1.4 1.4-2.5 2.15-2.9 5.45-3.3 2.6-.3 4.2 1.05z"/><path fill="#0d131a" d="M113.55 66.75q.3 2.6-.45 4.6-.75 1.95-2.05 2.1t-2.45-1.65q-1.1-1.75-1.4-4.4-.25-2.65.5-4.6.75-2 2.05-2.1 1.3-.15 2.45 1.6 1.1 1.8 1.35 4.45"/><path fill="#fff" d="M111.5 63.85q.1 1-.25 1.75t-1 .8q-.6.1-1.1-.6-.55-.65-.65-1.65-.05-1 .3-1.75t.95-.85q.65-.05 1.15.65.55.65.6 1.65"/><path fill="#0d131a" d="M143.2 62q1 2.2.9 4.05-.05 1.9-1.15 2.4-1.05.45-2.35-.95-1.2-1.25-2.3-3.6-1-2.25-1.05-3.85-.05-1.65 1-2.15 1.1-.5 2.55.7 1.4 1.2 2.4 3.4"/><path fill="#fff" d="M141.3 60.25q.35.8.25 1.6-.1.7-.6.95l-1.15-.2-1-1.25q-.35-.85-.25-1.55.1-.75.6-1l1.15.2z"/><path fill="#0d131a" d="m119.55 71.7-.1-.4.35-.15q4.25-2.25 10.65-2.9l8.8.5.3.1.4 2.8q.4 3.4.2 6.3-.5 9.25-6.3 10.25-5.9 1.05-9.3-3.4-2.95-3.8-5-13.1"/><path fill="#922f00" d="M139 71.8q-4.7-2.6-9.3-2.45l8.9.25z"/><path fill="#ed8599" d="M129.7 69.35q4.6-.15 9.3 2.45.9 6.35-.7 10.6-1.6 4.1-4.95 4.6-4.6.7-7.55-2.8-2.6-3.1-4.7-10.5 2.15-2.75 5.4-3.8z"/><path fill="#922f00" d="m121.1 73.7-.5-1.85q2.55-1.25 5.9-1.95-3.25 1.05-5.4 3.8"/><path fill="#fff" d="M114.45 85.25q0 3.6-2.2 6.2-2.2 2.55-5.35 2.55-3.1 0-5.35-2.55-2.2-2.6-2.2-6.2 0-3.65 2.2-6.2 2.25-2.55 5.35-2.55 3.15 0 5.35 2.55t2.2 6.2"/><path fill="#0d131a" d="M43.05 1.7Q55.1 5.75 61.2 17.15q6.85 12.8 2.15 26.3-4.8 13.7-18.7 19.3-12.5 5.05-24.9-.25Q7.4 57.2 2.35 44.7q-5-12.5.25-24.9Q7.9 7.4 20.4 2.35q11.2-4.5 22.65-.65"/><path fill="#00aeeb" d="M60.75 44.1q-5 11.7-16.8 16.4-11.75 4.75-23.45-.25-11.65-5-16.4-16.8-4.7-11.8.25-23.45 5-11.7 16.75-16.4 5.7-2.3 11.75-2.25 6.1.05 11.7 2.5 5.65 2.4 9.9 6.75 4.25 4.3 6.55 10 4.75 11.8-.25 23.5"/><path fill="#0098cd" d="M62.9 27.9q1.4 10.3-3.8 19.4-5.25 9.25-15.15 13.2-6.9 2.75-14.3 2.05-7.15-.65-13.25-4.45 17.45 4.6 30.9-3.95Q61 45.45 62.9 27.9"/><path fill="#9ed8f5" d="M44.55 3.85Q52.35 7.2 57.3 13.9q-9.65-7.45-20.1-8.45-9.75-.9-18 3.85Q11.1 14 6.95 22.7q-4.4 9.15-3.1 20.15-4.4-11.7.6-23.15Q9.5 8.25 21.1 3.6q5.7-2.3 11.75-2.25 6.1.05 11.7 2.5"/><path fill="#9ed8f5" d="M32.75 9.1q1.25 3.05-.6 6.3-1.9 3.25-5.75 4.8t-7.45.5-4.85-4.1q-1.2-3.05.65-6.3 1.9-3.25 5.75-4.8t7.45-.5 4.8 4.1"/><g transform="translate(86.05 50.45)"><mask id="a"><path fill="#fff" d="M73.15 37.8q0 14.55-10.7 24.85-10.75 10.3-25.9 10.3-15.1 0-25.85-10.3Q0 52.35 0 37.8q0-14.85 9.35-25.85Q19.45 0 35.25 0q14.9 0 26.4 11.5 11.5 11.45 11.5 26.3"/></mask><g mask="url(#a)"><path fill="#fff" d="M71.35 24.5q1.3 2.65.9 5.45T70 34.15q-1.85 1.35-4.1.5-2.25-.9-3.55-3.5t-.9-5.45q.4-2.8 2.25-4.15 1.85-1.4 4.1-.5 2.25.85 3.55 3.45"/></g></g><path fill="#0d131a" d="m121.15 74.45-.5-.4q3.55-4.4 8.45-5 5-.65 10.4 2.7l-.2.55q-10.75-6-18.15 2.15"/></svg>