<svg xmlns="http://www.w3.org/2000/svg" width="281" height="298" viewBox="-1.3 -3.5 280.6 297.5"><path fill="#ffe792" d="m13.9 103.4 3.35-.95q3.2-.4 2.5 2.35-7.15 18.45-2.45 36.05 4.2 15.55 15.4 24.2 8.5 6.6 20.45 8.15 5.95.8 10.2.25l-1.35 2.4q-2.6 3.25-9.15 7.8Q16.9 174.5 10.8 141q-2.05-11.35-.3-23.85 1.3-9.35 3.4-13.75"/><path fill="#dbc77f" d="M18.65 107.85q-4.2 1.9-7.65 6 1.25-7.2 2.9-10.45l3.35-.95q3.2-.4 2.5 2.35zm31.3 64.85 9.55.9 3.85-.15-1.35 2.4q-2.6 3.25-9.15 7.8-9.65-2.45-17.05-6.7 3.8.45 7.45-.75 3.1-1.05 6.7-3.5"/><path fill="#796bae" d="M32.95 67.4q2.4-2.5 3.85-3.2 4.15 9.5 2.5 21.15-1.7 12.15-8.6 16.1-8.9 5.1-16.4 2.7-6.75-2.2-10.45-9.65-3.45-7-.8-16.3 2.65-9.4 10.3-16.95 1.6-1.55 4.3 5.55l4-4q4.25-4 5.35-3.8 1.55.25 2.85 5.5l1.05 5.2z"/><path fill="#695c97" d="M3.5 76.85q1.1 14.8 10.1 20.5 7.65 4.8 19.4 2.35l-2.3 1.75q-8.9 5.1-16.4 2.7-6.75-2.2-10.45-9.65-1.8-3.7-1.9-8.3-.05-4.5 1.55-9.35"/><path fill="#ffe792" d="m83.4 219.15 23.1 4.95-1.55 21.55q-1.65 22.45-2.3 26.9-.3 2.05-1.9 1.7-1.55-.35-3.55-2.7-4.95-5.75-6.35-14.55l-2.95-18.7q-2.25-13.1-4.5-19.15"/><path fill="#dbc77f" d="M87.9 238.3q-2.25-13.1-4.5-19.15l23.1 4.95-1.7 23.5q-3.7 1.65-7.25 6l-5.6 8.05-1.1-4.65z"/><path fill="#ffe792" d="m162 156.85 8.2 21.65q3.15 9.15 1.1 27.45-.55 5-4.25 26.55l-2.85 17.2q-1.2 11.55.3 24.5.7 5.8-2.55 5.9-3.2.1-6.1-5.35-6.8-12.75-10.95-26.9-1.9-6.55-3.4-17.1l-1.15-9.25q-2.85 1.75-6.65 2.7-3.35 8.45-5 12.95-3.65 10.2-4.6 16-.65 3.95-3.15 24-1.55 12.25-2.85 14.2-1.75 2.65-5.6-1.65-4.1-4.5-6.05-12.3-1.85-7.25-4.1-26.75-2-17.35-5.3-27.1l-8.1-1.85-8.6-2.8q-.55.5-5.1 12.1-4.6 11.75-8.4 15.55-5.3 5.2-8.95 15.95l-4.3 15.6q-1.4 5.3-4.45 4.75-2.65-.5-4.45-4.6-1.6-3.75-2.45-13.65-.75-8.9-.3-13.75.15-1.85 3.35-14.8Q48 224.9 47.75 217q-.35-12.1 1.4-20.8 2.35-11.6 8.75-19.95 6-7.95 18.55-10.55l10.95-2q6.6-1.35 11.35-3.4 11.1-4.85 20.6-5.25l6.55-.25q3.45-.3 6.6-1.6 4.15-1.7 5.4-6.9.65-2.65.75-9.85l19.4 2.5q.15 7.5 3.95 17.9"/><path fill="#dbc77f" d="M137.9 146.3q.65-2.65.75-9.85l19.4 2.5q.05 4.4 1.4 9.9 4.2 10.95 1.55 15.8-.8 1.45-3.35 4.05-2.7 2.8-4.05 4.9 2.5 2.4 1.15 4.6-1.15 1.9-4.8 3.25-3.4 1.25-7.2 1.35-3.95.15-5.9-1.05-4.05-2.45-5.95-14.75-1.9-12.35 1.6-13.8 4.15-1.7 5.4-6.9m19.55 58.45-3.1 9.55q-3.3 9.95-3.4 18.7-.2 10.55 2.45 27.55 1.35 8.4 2.45 14.2-6.8-12.75-10.95-26.9-1.9-6.55-3.4-17.1l-1.15-9.25q-2.85 1.75-6.65 2.65.2-2.4 1.05-4.45.55-1.25 2.05-3.8 7.7-.95 15.15-7.1l4-3.55q1.45-1.25 1.5-.5"/><path fill="#dbc77f" d="M166.9 189.55q6.45 4.2 5.15 8.05-1.05 3.25-5.2 4.1-4.15.9-9.45-1.1-7.35-2.75-18.8 1.3-12.4 4.35-15.75 12.9-5.95 15.55-9 32.9-2.95 16.75-2.95 33.9 0 2.6.9 7.3-3.65-4.5-5.35-11.5-1.85-7.25-4.1-26.75-2-17.35-5.3-27.1l-8.1-1.85-8.6-2.8-1 1.7Q67.5 218.75 61 230.75q-1.8 3.35-4.8 11.15-2.85 7.55-4.7 10.8-2.3 3.45-3.1 8.15-.75 4.25-.1 8.7.55 6.4 2.55 13.05-1.55.85-3.35-.5-1.7-1.3-2.8-3.85-1.6-3.75-2.45-13.65-.75-8.9-.3-13.75.15-1.85 3.35-14.8Q48 224.9 47.75 217q-.35-14.1 0-17.95 1.05-10.5 6.2-16.65 2.25-2.7 7.6-1.1 3.1.95 11.1 5.05 8.15 4.2 12.4 5.55 6.95 2.2 11.55.35 5.95-2.4 3.95-14.75-1.15-5.95-1.35-8.15-.4-3.55 1.15-3.6 1.7 2.3 6.9 3.6l10.45 1.75q14.4 1.95 16.5 6.2l10.75 1.45 10.75 1.45q2.35 3.65 11.2 9.35"/><path fill="#796bae" d="m131.35 121.4 1.15.6q1.35.95 2.55 2.4 3.7 4.75 3.8 13.35.1 8.75-1.75 11.55-.45.75-2.55 1.5.55 2.85 3 6.6l7.15 9.9q4.45 5.95 3.8 13.35-.5 6.45-4.3 10.5-5.05 5.45-13.95 5.3-10.95-.2-20.9-10-16.5-16.3-5.9-43.1 2.9-7.3 8.7-12.55 7.55-6.8 19.2-9.4"/><path fill="#695c97" d="m131.35 121.4.95.65 2.15 2.4q3.3 4.75 4.4 13.3.75 6.3-1.45 10.25-1.15 2-2.45 3.2-2.95-3.9-6.7-4.75-3.65-.9-6.75 1.35-7.4 5.25-5.95 20.6.95 10.35 8 19.1 6.3 7.75 11.45 8.25l.1.2q-5.8 1.25-11.95-.7-7.2-2.35-13.8-8.8-16.5-16.3-5.9-43.1 2.9-7.3 8.7-12.55 7.55-6.8 19.2-9.4"/><path fill="#796bae" d="M172.6 127.85q8.05 2.35 14.55 11.15 8.85 12 7.45 29.6-1.05 13.75-12.15 22.7-4.25 3.45-9.1 5.35-4.35 1.7-7.25 1.55-6.5-.4-10.9-4.4-5.65-5.05-5.95-14.75-.2-6.9 4.3-14.35 5.3-7.65 6.95-11.2.4-.9-.05-1.95l-1.2-2.3q-1.9-3.85-.85-9.55 1.15-6.2 7.8-9.65 3.3-1.7 6.4-2.2"/><path fill="#695c97" d="M166.2 130.05q3.3-1.7 6.4-2.2 3.2.95 7.1 3.75 5.25 3.85 8.6 9.15-7.05-1.35-13.2 5.45-7.1 7.85-14.45 27.95-3.35 9-3.65 11.8-.9 7.25 4.6 11.45-5.15-1.6-8.3-5.6-3.8-4.85-4.05-12.75-.2-6.9 4.3-14.35 5.3-7.65 6.95-11.2.4-.9-.05-1.95l-1.2-2.3q-1.9-3.85-.85-9.55 1.15-6.2 7.8-9.65"/><path fill="#796bae" d="M244.55 17.4q9.6-6.05 12.85-8.65 5.4-4.35 6.2-2.9.6 1.05-1.4 7.25-2.1 6.55-7.75 20.35-7.4 18.1-15.3 34.15-23.15 46.95-40 55.05-14.55 7.05-23.6 10-10.1 3.25-18.25 3.2t-17.2-3.4q-8-2.95-20.5-10Q106 114.8 94.95 93.8q-5.35-10.25-17.1-40.6-2.95-7.75-9.15-19.85L61.45 19.3q-2.85-6.15-2.1-7.65.8-1.5 5.1 1.35 22.35 14.5 44.8 24.5 27.6 12.3 46.5 13.55 23.15 1.55 62.65-18.7 13.1-6.75 26.15-14.95"/><path fill="#695c97" d="M264.75 5.4q-2 9.9-9.8 27.45-1.3.05-3.2-.8-2.3-1.05-1.95-2.45.35-1.45 6.3-10.9zM249.9 44.45q.65.65-2.5 5.5-11.75 26.4-22.75 44.2-14.35 23.15-25.5 28.5-14.55 7.05-23.6 10-10.1 3.25-18.25 3.2t-17.2-3.4q-8-2.95-20.5-10Q106 114.8 94.95 93.8q-5.35-10.25-17.1-40.6-.6-1.65-2.45-4.45l-2.55-4.05q-1.95-3.6 4.5-.45 8 3.9 19.6 11.8 11.75 8.05 21.1 16.05 11.45 9.8 18.45 14.1 8.5 5.2 14.7 5.2 19.85 0 50.55-23.1 7.8-5.85 15.95-10.85 12.25-7.55 21.5-10.75 9.65-3.35 10.7-2.25"/><path fill="#796bae" d="m239.4 23.6-14.05 6.75q1.2-19.7 2.4-24.3 1-3.9 3.05.4l4.1 8zm11.45 8q2.85 1.6 14.7 2.6 10.65.9 10.45 1.55-.8 2.2-8.45 6.6-8.8 5-23 10.65.25-6.05 1.2-11.75 1.8-11.45 5.1-9.65"/><path fill="#695c97" d="M246.55 44.25q16.55-5.75 30.4-8.15-.8 2.1-9.05 6.45-8.75 4.65-23.35 10.45-2.4-1.15-3.4-2.85-1.9-3.35 5.4-5.9"/><path fill="#796bae" d="M83.55 27.15q.4-5.95 1.7-13.8 1.45-9.2 2.4-8.05.85 1 5.35 14.65l5.1 15.25zM63.85 43.5Q52.7 37.25 51.8 36.15t6.75-1.1l11.35.2 7.2 15.45q-3.55-1.75-13.25-7.2"/><path fill="#695c97" d="M51.9 36.25q12.25 2.2 21.3 6.1 4.4 1.85 4.6 5.3.1 1.7-.7 3.05-3.8-1.9-12.95-7-10.9-6.1-12.25-7.45"/><path fill="#0d131a" d="M15.05 133.9q-1.8-14.15 3.6-28.55l1.7.1q-6.05 15.9-2.45 32.7 3.6 16.9 15.2 25.9 6.4 4.95 15.5 7.05 6.1 1.4 12.3 1.35l-2.35 1.95q-6.15-.1-11.95-1.65-8.15-2.2-14.4-7.05-6.55-5.05-11.05-13.05-4.8-8.6-6.1-18.75"/><path fill="#0d131a" d="M8.55 127.25q.3-13.85 4.4-23.75l1.45.7q-1.95 4.45-3.05 12.7-1.5 10.7-.2 20.65 1.15 9.4 4.75 17 9.95 21.3 36.8 28.2l-.2.75-.55 1.35q-13.5-3.45-23.3-10.75-9.75-7.25-14.45-17.3-6-12.9-5.65-29.55"/><path fill="#0d131a" d="M37.3 63.3q.65.25 1 1.1 2.5 6.1 3.1 13.15.55 6.9-.95 12.5-2.45 9.35-9.8 13.55-7.35 4.15-16.35 1.4-8.4-2.55-12.1-9.8-3.5-6.9-1.5-15.7 1.05-4.65 3.85-9.3 3.05-5.1 7.65-9.25 2.5-2.3 3.55-.55l.95 1.75 1.25 3.2q7.15-7.5 9.2-7.15 2.7.4 4.3 9.65l2.55-2.5 2.15-1.8q.6-.45 1.15-.25m-7.2 6.5-1.65-6.85q-.9-3.05-1.55-3.15-.75.05-3.1 2.2l-5.55 5.35q-2.8 2.7-2.35 1.5l1-1.8-2.1-4.8q-.3-.6-1-.4-.6.25-1.15.95-5.9 8.1-8.1 13.55-2.4 6.1-1.6 12.2.4 3.05 1.65 5.6 1.75 3.55 4.35 5.95 2.65 2.4 5.85 3.35 7.1 2.15 15.5-2.7 5-2.85 7.25-10.95 2.05-7.5.95-16l-.95-5.2q-.7-2.9-1.15-3.25-.35-.3-2.65 2.25l-2.2 2.6-.25 1.75q-.45 1.05-1.2-2.15m56.05 165Q84 224.95 82 219.55l2.8.8q1.85 5.05 3.55 14.8l2.45 16.15.85 5.6q1.2 8.85 5.25 13.95 1.6 2.05 3.05 2.5 1.4.45 1.95-.9.55-1.45.8-4.75l.45-5.95q.55 1.2.75 3.05l.2 3-.45 5.1q-.2 1.45-.9 2.3-.55.7-1.1.7-4 0-7.3-5.8-3.05-5.3-4.3-12.95l-.85-5.6q-1.25-8.25-3.05-16.75m53.45-96.65-.45 8.5q-.85 4.35-4.25 6.3l-.8-2.6q2.65-1.75 3.4-5.05.4-1.7.5-7.2zm18.7 2.25q.05 3.15 1 6.5.5 1.95 2.1 6.25l-1.65 1.65q-2.9-7.95-3.05-14.35z"/><path fill="#0d131a" d="m170.8 197.5 1.35-.5 1.3-.5q-.25 6.95-1.65 15.9l-2.6 14.55-2.15 10q-1.65 8.65-2.05 15.8-.6 10.05.8 21.75.65 5.5-2.2 6.4-1.9.6-4.5-.85-2.75-1.6-4.3-4.55-2.25-4.15-4.85-10-3.55-8.05-5.8-15.05-1.5-4.55-2.2-8.15l-1.2-7.5-1.6-10.45-2.25.7-3.2.7-3.75 10.4q-3.85 11.05-4.65 16.1-1.05 6.25-2.35 20.3l-1.4 13.1q-.7 5.7-1.85 6.9-.8.8-1.65.9l-3.2-.5q-2.6-.75-5.05-4.4-2.75-4.1-4.35-10.45-2.15-8.5-3-15.45l-.7-8.15-.75-8.2q-1.35-10.65-4.4-21.35l-6.1-1.4-6.3-2-3.2-1.4Q76.7 232 73.6 238.1q-2.95 5.8-6.2 9.05-4.5 4.45-7.6 13.45-1.2 3.55-3.85 14.4l-.95 3.7q-.85 3.25-2.1 4.55-1.25 1.35-3.2 1.05-4.1-.55-6-5-2.3-5.2-3.1-17-.95-13.8 1.9-22.5 3.55-11.15 3.15-23.85Q45.1 199.8 46.9 192q1.85-7.85 8-15.95 4.4-5.85 12.05-8.7 4.4-1.7 14.05-3.35 11.6-2.05 18.85-5.2l-.15 1.15-.45 1.25q-3.7 1.6-8.55 2.65l-8.45 1.55q-8.3 1.45-12.8 3.35-6.25 2.65-10.95 7.95-6.9 7.8-8.95 20.05-1.1 6.6-1 20.25.1 8.55-.65 13.2-.65 4.1-3 10.45-2.05 5.55-1.65 19.6.35 13.5 2.2 17.7.8 1.9 2.05 3.05 1.2 1.2 2.3 1.1 1.95-.15 3.05-4.2l.95-3.65q2.3-9.35 4.3-14.55 3.4-8.95 8.2-13.7 2.75-2.7 6.45-11 3.05-6.8 6-15.65l-11-4.2q-1.5-.6-1.45-1.1l2.25-.1q3.25.7 13 4.45 8.6 3.3 14.65 3.95-1.2-3.4-1.6-5.6-.3-1.6.45-1.55.7 0 1.55 1.55 1.95 3.35 4.05 15.1 2.05 11.25 2.85 22.1 1 12.55 3.7 23.25 1.7 6.75 4.75 10.65 3.2 4.15 6.15 2.7.75-.4 1.4-6.1l1.25-12.55 2.55-18.85q1-7.8 6.25-21.8 3.7-9.95 5.75-14.1.8-1.5 1.6-2t.45.8l-2.4 7.35q8.3-2.95 13.05-6.8 4.6-3.8 7.8-10.2 1.65-3.35 2.1-2.95.45.35-.7 3.75-3.85 11.15-15.45 15.85 1.1 10.15 1.65 13.4.9 5.9 2.95 12.9 3.85 13.15 10.2 25.1 1.4 2.65 3.15 4 1.5 1.2 2.65.9.85-.3 1.25-1.6.35-1.35.1-3.35-1.35-11.55-.55-21.8.45-5.95 2.3-15.85l1.65-9.15q3.25-17.3 3.7-30"/><path fill="#0d131a" d="m122.2 123.5 1.3 1.15q-8.25 3.4-13.55 9.45-3.8 4.3-5.75 9.55-4.8 13-3.3 23.9 1.45 10.9 9 18.35 10.15 9.9 21.15 9.7 3.8-.05 7.1-1.4 3.35-1.3 5.45-3.6 3.45-3.7 4.05-9.8.7-7.2-3.6-13.05l-1.45-1.9q-6.65-9-8.1-11.85-2.3-4.6-.85-8.4.75-2 1.55-2.15.85-.15.05 2.3-.85 2.65 1.1 7.1 2.1 4.7 7.55 12.05l1.45 1.9q4.8 6.5 4.25 14.7-.5 7.15-4.25 11.2-2.35 2.5-6.05 4t-7.8 1.6q-4.75.1-10.3-2.25-6.95-2.9-12.95-8.8-8-7.85-9.75-18.9-1.8-11.25 3.15-24.6 1.85-5.15 6.35-10.15 5.85-6.5 14.2-10.1"/><path fill="#0d131a" d="M180.25 131.3q7.15 5.6 11.3 13.45 5.55 10.6 4.55 23.65-1.1 13.7-12.55 23.15-9.2 7.6-17.15 7.95-6.05.25-10.65-2.7-7.05-4.65-7.4-15.95-.25-9.4 7.7-21.15l4.6-7.2q1.8-3.7.35-6.35-.95-1.8-.65-2.55t1.45 1.1q2.5 4.05.55 8.75l-4.95 7.95-5.15 7.85q-2.5 4.8-2.35 9.75.3 10.55 6.9 15.35 4 2.9 9.35 3.25 7.25.4 16.1-6.95 10.7-8.8 11.75-22.1 1.05-13.15-4.15-23.55-4-7.95-10.8-13.1zM83.7 23.2l.15 2.4Q69.7 17.65 64 13.65q-3.85-2.7-4-1.45-.1.9 2.35 6 3.2 6.15 5.05 10.3l2.75 5.95h-2.2q-7.55-14-10.85-22.25-1.8-4.6.9-4 1.55.35 5.35 2.8 9.6 6.25 20.35 12.2m141.95 3.3v2.9Q206.6 39.85 190.6 45.55q-20.55 7.3-34.9 6.3-12.1-.8-28.1-6.25-14.25-4.85-30.5-13l-.55-2.65Q112.8 38.1 127.15 43q16.05 5.5 28.05 6.3 14 .9 34.85-6.5 16.3-5.85 35.6-16.3m19.65 26.2 3.45-1.4q-11.3 25.75-22.25 43.05-14.35 22.7-27 29l-.7-1.45q10.75-5.15 24.4-26.9 10.65-16.95 22.1-42.3M77.5 50.15l3.15 8.05Q90.7 84.4 96.9 95.65q10.35 18.9 23.1 26.1l-1.1 2.95q-13.15-7.4-23.25-26.3-6-11.15-16.5-39.6l-2.05-5.3-1.75-4.4zm185.85-47.4q3.45-1.95 3.75-.8.45 1.85-3.65 12.65l-6.7 17.55-2.55-.15q5.4-13.4 7.25-19.15 1.6-5.4 1.5-6.35l-.05-.25q-1.15 0-5 3.15-7.75 5.5-19.1 12.4l-.85-2.3q12.65-7.55 18.1-11.7 4.35-3.4 7.3-5.05"/><path fill="#0d131a" d="M230.6 7.6q-1.15-2.45-1.7-2.1-.4.25-.75 2.9l-.7 10.3q-.55 8.45-.9 10.15-.45 2.2-1.55 2.3-1.15.1-.85-1.9l1.3-12.4 1.3-14.5q.45-5.85 4.85 3l8.6 17.05q1 2.05-.1 1.85t-1.9-1.85zm24.25 25.65q-2.55-.4-1.95-1.45.55-1.1 2.35-.75l8.8 1.35q8.1 1.25 12.25 2.25 2.85.7 2.95 1.4.05.85-3.35 3-2.3 1.45-15.4 8.05-13.45 6.75-15.9 7.6t-1.75-.35q.75-1.25 3.15-2.45l16.45-8.15q13.1-6.6 12.85-7.3-.25-.65-9-1.8zM85 5.55q.65-2.4 1.95-2.55 1.4-.15 2.85 2.55Q91 7.9 94.6 19.3l4.25 13.55q.8 2.45-.4 1.95-1.3-.5-1.65-1.95Q88.6 7 87.4 6.1t-2.8 20.35q-.15 1.85-.85 1.15-.75-.75-.75-2.35 0-1.95.7-9.45.75-8.2 1.3-10.25m-35.3 28.1q2.25-.15 9.9.15l9.55.45q2.25.15 2.7 1.15t-1.7.85l-9.6-.35q-7.35-.1-6.45.55 1.4 1 23.45 12.45 3 1.65 2.55 2.55t-3.35-.75L66.1 45.5q-9.35-4.55-15.2-8.25-2.15-1.35-2.75-2.25-.75-1.2 1.55-1.35m158.75 34.1q12.05-8.35 17.3-11.45 8.4-4.95 13.1-5.35l.4-.05.2.35q1.6 3.35-10.5 25.05-12.6 22.6-23.05 33.35-7.45 5.45-18.7 10.55-22.45 10.15-41.2 8.2-16.95-1.75-31-16.15-4.35-4.55-7.9-9.75l-2.7-4.35Q94.05 83.2 88.25 68.25q-4.55-11.8-4.05-16.1l.1-.8.8.35q2.6 1.2 7.65 5.15l10.5 8.55q15.4 12.85 23.7 18.55 14.2 9.8 22.6 10.6 11.75 1.1 29.25-8 10.2-5.35 29.65-18.8"/><path fill="#ffe792" d="M177.95 87.45q8.85-4.6 15.4-9.65 3.15 2.45 5.8 10.25l3.45 12.6q1.25 5.1 6.15 15.5 4.8 10.2 6.9 12.4 1.95 2.05 1.6 2.75-.3.65-2.9.35l-13.85-1.7-15.75-.65q-1.8.3-5.85 2.35l-8.2 4.2q-12.15 5.7-22.15 5.35-10.6-.4-21.05-6.85-3.5-2.2-7.5-5.4l-5.45-4.4q-3.7-2.85-12.95-3.95l-12.35-.85q-3.6-.3-4.65-.9-.95-.6.15-1.25 1-.6 8.35-8.4l11.15-12.25q3.4-3.9 6.8-12.25 2.75-6.85 3.25-10.1l2.95 2.7q3.75 3.3 7.8 6.15 13 9.3 24.15 11.25 11.15 2 28.75-7.25"/><path fill="#dbc77f" d="m114.3 74.6 4.9 4.25q6.05 4.95 11.9 8.45-7.65-1.6-18.25 4.1l-8.6 5.55q3.4-3.9 6.8-12.25 2.75-6.85 3.25-10.1m102.95 56.1q.45 1.35-2.9.95l-13.85-1.7-15.75-.65q-1.8.3-5.85 2.35l-8.2 4.2q-12.15 5.7-22.15 5.35-10.6-.4-21.05-6.85-3.5-2.2-7.5-5.4l-5.45-4.4q-3.7-2.85-12.95-3.95l-12.35-.85q-3.5-.25-4-.7-.35-.3.85-1l7.55-.35q7.8-.2 11.6 0 8 .35 16.1 7.1l8.05 7.1q6.05 4.3 15.2 5.3 11 1.45 23.3-4.15 3.2-1.45 8.6-4.25 4.4-2.15 6.75-2.5 5.1-.7 18.1 1.3 10.4 1.6 15.9 3.1m-23.9-52.9q2.35 1.8 4.5 5.85 2.9 5.45 3.4 11.9-2.4-4.1-8.5-7.55-7.05-3.95-12.15-2.2z"/><path fill="#0d131a" d="M198.1 87.4q-2.4-6.8-5.25-8.95l2.25-1.7q3 2.3 5.05 9.65 1.15 4.15 2.75 12.25l.45 1.8q1 4.05 5.45 13.45 4.6 9.65 7.6 13.8 3.05 4.3 2.55 4.85l-6.6-.25q-22.7-3-27.5-2.2-1.85.3-7.7 3.1-8.85 4.25-12.95 5.7-8.65 3.05-16.2 2.8-9.85-.35-19.3-5.75-4.1-2.35-12.65-9.15l-2-1.6q-3.05-2.35-9.7-3.2l-10.95-.7-5.6-.2q-3.95-.35-4.65-.95-.9-.85 1.2-3.25 14.05-14.4 19.3-20.45 3.25-3.75 6.2-12.55 2.25-6.6 2.8-10.55l2.45 1.35q-.5 3.4-3.35 10.4-3.45 8.45-6.85 12.4l-17.1 18.95q-1.65 1.85-1.15 2.25l2.65.25 3.15.2 11.85 1q7.4 1.15 10.75 3.75l2.05 1.65q7.25 5.85 12.45 8.65 9.25 4.9 18.85 5.25 7.4.25 15.55-2.4 4.75-1.55 12.5-5.25 6.2-2.95 8.15-3.3 5.15-.8 27.65 2.05l2.2.3 1.3-.15q.2-.35-.7-1.6-3-4.2-7.5-13.75-4.5-9.65-5.75-14.5l-.45-1.8q-1.85-7.65-3.25-11.65"/><path fill="#0d131a" d="M130.3 95.95q3.15 3.7 3.85 8.9.6 4.4-.65 8.45-.35 1.2-1.1 1.65l-2.5.3q-2.6-.3-5.05-1.3-2.7-1.1-4.4-2.8-2.8-2.8-4-6.5-1.15-3.75-.3-7.1.95-3.65 5.55-4.7 5-1.1 8.6 3.1"/><path fill="#fff" d="M131.85 103.5q-.05 2.2-.9 3.75T129 108.7q-1.1-.05-1.75-1.65-.7-1.55-.6-3.75t.9-3.75q.85-1.55 1.95-1.5 1.05.05 1.75 1.65t.6 3.8"/><path fill="#0d131a" d="M183.15 102.3q3.3 3.65 2.5 7.9-1 5.5-9.1 8.3-7.1 2.45-12.7 1.25-.85-.15-1.35-1-.6-.85-.6-2.2.05-8.5 4.45-13.35 3.7-4.1 8.9-4.35 4.6-.25 7.9 3.45"/><path fill="#fff" d="M166.4 107.55q.35-2.2 1.3-3.6 1-1.45 2.05-1.25 1.1.15 1.6 1.8.55 1.65.2 3.85-.3 2.15-1.3 3.6t-2.05 1.3q-1.1-.2-1.6-1.85-.55-1.65-.2-3.85"/><path fill="#0d131a" d="M146.45 121.25q-.2 1.4-3.45 1.05-3.25-.4-3.05-1.8.15-.8 3.4-.4 3.2.4 3.1 1.15m-11.35 5.65q-.75-.75-.55-1.35.2-.65.9.1 2.7 2.8 8.35 3.35t9.7-1.55q1.2-.6 1.35 0 .15.55-.8 1.05-4.85 2.5-10.45 2-5.4-.55-8.5-3.6M208.4 67q10.95-7.65 16.95-11.25Q233.3 51 238 49.9q1.15-.25 1.7 0 .65.3.5 1.6-1.2 9.05-12.25 27.55t-22.1 29.8L205 108q10.55-10.8 22.6-32.5 10.85-19.55 10.8-24.1-4.5.6-12.6 5.5-4.85 2.85-16.7 11.05-21.45 14.85-30.15 19.6-18.05 9.8-30 8.65-8.5-.8-22.5-11.05-4.15-3.05-24-19.6L92.7 57.6q-4.75-3.75-7.3-5.15l.1 1q.8 6.2 4.85 16.05 5.55 13.45 15 27.2l-.95.7Q93.95 82.25 88.45 69.1q-4.05-9.8-4.85-16.8-.2-1.75.95-1.75.6 0 1.25.35 2.45 1.15 7.3 5.15l10.1 8.55q15.4 12.85 23.7 18.55 14.2 9.8 22.6 10.6 11.75 1.1 29.25-8Q188.9 80.45 208.4 67"/><path fill="#695c97" d="M78.85 149.85q2-2.6 5.25-3t5.8 1.6q2.6 2 3 5.25t-1.6 5.8q-2 2.6-5.25 3t-5.8-1.6q-2.6-2-3-5.25t1.6-5.8m22.9 35.95q1.9 3.15 1.15 6.75t-3.7 5.55q-3 1.95-6.45 1.15-3.5-.85-5.35-4-1.9-3.1-1.15-6.7t3.7-5.55q3-1.95 6.45-1.15 3.45.85 5.35 3.95m95.9-30.9q.2-3.25 2.6-5.45 2.45-2.15 5.7-2 3.25.2 5.45 2.6 2.15 2.45 2 5.7-.2 3.25-2.6 5.45-2.45 2.2-5.7 2t-5.45-2.6q-2.2-2.45-2-5.7m-8.95 34.6q1.7-3.25 5.1-4.3 3.4-1.1 6.5.65t4.15 5.25q1 3.55-.7 6.8t-5.05 4.35q-3.4 1.05-6.5-.7-3.1-1.7-4.15-5.25-1-3.55.65-6.8"/><path fill="#796bae" d="M100 188.9q0 2.8-2 4.8t-4.8 2-4.85-2q-2-2-2-4.8 0-2.85 2-4.85 2.05-2 4.85-2t4.8 2 2 4.85m-20.8-40.25q1.9-1.9 4.55-1.9t4.55 1.9q1.9 1.85 1.9 4.5t-1.9 4.55-4.55 1.9-4.55-1.9q-1.85-1.9-1.85-4.55t1.85-4.5m120.85 1.45q1.75-1.75 4.2-1.75t4.15 1.75q1.75 1.75 1.75 4.2t-1.75 4.15q-1.7 1.75-4.15 1.75t-4.2-1.75q-1.75-1.7-1.75-4.15t1.75-4.2m.65 37.15q2.25 2.05 2.25 4.85t-2.25 4.8q-2.3 2-5.5 2t-5.45-2-2.25-4.8 2.25-4.85q2.25-2 5.45-2t5.5 2"/><path fill="#0d131a" d="M77.85 155.6q.4 3 2.75 4.85 2.4 1.85 5.4 1.45 2.95-.35 4.8-2.75 1.9-2.4 1.5-5.4-.35-2.95-2.75-4.8t-5.4-1.5q-3 .4-4.85 2.75-1.8 2.4-1.45 5.4m-1.3.2q-.45-3.6 1.8-6.45 2.2-2.85 5.8-3.3t6.5 1.75 3.35 5.8q.45 3.55-1.75 6.4-2.25 2.85-5.85 3.3-3.65.5-6.5-1.7-2.9-2.25-3.35-5.8"/><path fill="#0d131a" d="M92.9 152.8q2.95-.65 6.25-.1 3.3.5 4.5 1.8 1.1 1.2.65 1.4-.4.2-1.35-.4-1.3-.85-4.05-1.1l-5.5.35zm-2.6 30.7q-2.8 1.8-3.5 5.15-.7 3.4 1.1 6.3 1.85 3 5.1 3.7 3.15.7 5.85-1.05 2.75-1.85 3.45-5.2t-1.05-6.25q-1.75-2.95-5.1-3.75-3.15-.7-5.85 1.1m-5.15 4.8q.9-4.05 4.3-6.25 3.45-2.2 7.3-1.35 4.15.95 6.3 4.5 2.2 3.5 1.35 7.6-.9 4.05-4.3 6.25-3.4 2.15-7.3 1.3-4.1-.85-6.35-4.5-2.15-3.5-1.3-7.55"/><path fill="#0d131a" d="M101.25 184.85q1.4-.8 4.5-1.8 3.3-1.1 5.35-1.35 2.25-.25 1.7.35t-1.75.85q-1.15.25-4.35 1.45-3.65 1.35-5.15 2.2zm99.4-34.9q-2.2 2-2.4 5l.05 1.3q.35 2.6 2.25 4.4t4.55 1.95q3.05.15 5.3-1.85 2.2-2 2.4-5 .15-3.1-1.85-5.25-2.05-2.3-5.05-2.45t-5.25 1.9m-4.1 4.7q.2-3.6 2.9-6t6.35-2.2q3.55.15 6.1 2.85 2.45 2.75 2.2 6.3-.2 3.6-2.9 6-2.7 2.45-6.35 2.25t-6.1-2.9q-2.4-2.7-2.2-6.3"/><path fill="#0d131a" d="M190.25 156.65q.95-.55 3.9-1l2.85-.4.1 1.75-2.95.5-3.35.2-1.3-.1q-.35-.3.75-.95m9.75 29.7q-2.9-1.55-5.9-.65-3.2 1-4.85 4.1-1.55 3.05-.6 6.35t3.85 4.9q2.85 1.55 5.9.65 3.25-1 4.8-4.05t.65-6.4q-.95-3.3-3.85-4.9m-6.85-2.3q3.85-1.15 7.35.8 3.6 1.95 4.75 5.95 1.15 3.95-.75 7.65-1.95 3.7-5.95 4.9-3.8 1.15-7.4-.8-3.55-1.95-4.75-5.95-1.15-3.95.75-7.6 2-3.8 6-4.95"/><path fill="#0d131a" d="M184.2 183.1q-1.2-.65-1.05-.95.1-.3 1.1-.25.9.05 3.2 1.5l3.6 2.7-1.2 1.35q-2.75-2.7-5.65-4.35"/></svg>