<svg xmlns="http://www.w3.org/2000/svg" width="349" height="263" viewBox="-0.05 -7.4 349.1 262.55"><path fill="#dcdbd6" d="M272.65 204.05q2.5.8 5.05 3.05 3 2.65 4.7 6.2l-5.4 1.5-4.1.95z"/><path fill="#717071" d="m268 186.7 3.75 13.6q3.05 12.1 2.1 14.7-1.4 4-7.9 6.45-8.6 3.2-23.85 2.35-15.25-.8-21.45-4.3-4.4-2.45-4.65-6.7l-1.25-26.6 51.3-13.2.8 6.3q.7 5.8 1.15 7.4"/><path fill="#595757" d="m266.05 173 .75 7.2q-14.2 6.3-18.55 18.95-2.4 6.85-2.95 24.8l-3.2-.15q-15.25-.8-21.45-4.3-4.4-2.45-4.65-6.7l-1.25-26.6z"/><path fill="#717071" d="m268.25 156.65.9 9.65q.35 8.05-1.65 9.9-3.1 2.9-18.45 7.8-18.25 5.85-36 7.8 9.5-8.6 32.45-23.05 22.55-14.2 22.75-12.1"/><path fill="#595757" d="M269.05 164.1q-5.75 2.95-10.3 8.2-3.85 4.35-7.2 10.85-19.25 6.5-38.5 8.65 9.5-8.6 32.45-23.05 22.55-14.2 22.75-12.1z"/><path fill="#dcdbd6" d="M267.5 182.55q6.05-1.05 7.8 9.3.75 4.2.1 8.1-.65 4.1-2.5 5.8-3.95 3.55-19.65 6.6-15.1 2.95-22.85 2.2L217.9 213q-5.3-1-6.3-2.6-1.95-3.25-2-8.05-.05-6.3 5.15-6.6 25.5.15 40.5-5.05 10.9-3.8 12.25-8.15"/><path fill="#b4b4b0" d="m214.75 195.75 24.4-1.4q.25 3.25 7.75 2.35 4.9-.55 10.5-2.35 3-.95 1.75 6.6-1.2 7.5-4.35 10.8l-11.15 2.05q-7.9 1.35-13.25.75L218.3 213q-5.75-1-6.7-2.6-1.95-3.25-2-8.05-.05-6.3 5.15-6.6"/><path fill="#dcdbd6" d="M246.25 224.05q-3.35 3.65-9.35 6.25l-5.3 1.85q.2-2.7 1.3-6.3 2.2-7.25 6.8-11.8 1.8.15 4.2 4.25 2.15 3.75 2.35 5.75"/><path fill="#b4b4b0" d="M239.7 214.05q.75.1 1.6.85-5 7.8-5.7 15.95l-2.85 1-1.15.3q.2-2.7 1.3-6.3 2.2-7.25 6.8-11.8"/><path fill="#dcdbd6" d="M270.45 207.7q5.8 4.15 9.7 11.35 1.95 3.6 2.7 6.4l-7.4-.75q-7.9-1.2-10.35-3.35-.4-3.7 1.5-8.55 1.85-4.9 3.85-5.1"/><path fill="#b4b4b0" d="M265.1 221.35q-.3-2.75 1.2-7.35 1.35-4.4 2.2-4.4.75 0 4.9 7.55 4.1 7.6 3.25 7.7-1.15.2-5.45-.95-4.65-1.25-6.1-2.55"/><path fill="#922f00" d="M324.3 95.35q-16.8 16.8-27.6 19.9-6.55-6.85-17.15-21.3l-9.3-13.1q3.4-4.65 16.05-9.85 11.75-4.8 25.75-7.8 14.45-3.15 23.3-2.5 9.95.7 8.7 6.15-2.55 11.3-19.75 28.5"/><path fill="#717071" d="m319.2 148.45.05 2.1q-.1 1.2-.65 1.6-.95.65-12.15-1.55l6.2-7.15q6.55 3.75 6.55 5"/><path fill="#595757" d="m311.4 144.9 4.05 3.15q2.45 1.85 2.6 4.2l-6.7-.75-4.9-.9z"/><path fill="#0d131a" d="M278.3 209.5q-2.8-2.95-4.5-3.85l.3-.35.5-.65.45-.65q2.2 1.4 4.45 3.8 2.3 2.45 3.8 5.1.6 1.15.45 1.4l-1.1.5-1.55.35-2.45.45-1.1-1.75q3.45-.6 3.4-1.05-.1-.6-2.65-3.3m-12.55-31 1.75-1.75.75 5.65-1.65 2.05z"/><path fill="#0d131a" d="m272.2 206.65 1.65-1.65 1.05 5.9-2.15-1.45zm-26.3 18.25q.6-.65.5-1.9 12 .2 19.2-2.45.05 1 .4 1.9-7.55 2.7-20.1 2.45m-31.75-11.2-.05-1.95 2.85.9v.1q.2 2.9 2.4 4.75 4.1 3.3 15.1 4.7l-.95 1.85q-10.9-1.3-15.55-4.3-3.6-2.3-3.8-6.05m53.3-55.4-.05-.7q-4.2 1.2-22.05 12.4-19.1 12-29.2 20.45 17-2.25 33.95-7.85 14.05-4.6 16.75-7.1 1.4-1.35 1.4-6.8 0-3.7-.8-10.4m-54.3 34.5-2.95.3 2.2-2q8.8-7.95 30.9-22.1 22.55-14.4 25.15-13.4.65.2.75 1l.65 1.75q1 8.4 1.05 11.35.1 5.65-1.7 7.3-3.25 3-19.45 8-18.7 5.75-36.6 7.8"/><path fill="#0d131a" d="M274.75 197.15q.2-5.8-1.85-10.05-1.95-3.75-4.75-3.65-2.4 4.7-13.1 8.35-14.95 5.05-40.2 4.9-2.55.15-3.55 2.05-1.15 2.15-.45 6.1.55 3.3 1.6 5.05.8 1.35 6.15 2.25l11.6 1.4h.3q7.75.8 22.7-2.15 15.35-3 19.05-6.35 2.3-2.05 2.5-7.9m-65.2.7q1.55-2.85 5.25-3.1 25.65.15 40.45-5.15 10.2-3.65 11.35-7.35l.15-.55.6-.1q2.3-.4 4.5.9 2.25 1.3 3.55 3.85 2.2 4.5 1.65 10.9-.55 6.55-3.5 9.2-4.15 3.75-20.2 6.85-15.25 2.95-23.05 2.2l-.3-.05-12.95-1.6q-5.15-1.05-6.3-2.95-1.2-2.1-1.8-5.75-.8-4.6.6-7.3"/><path fill="#0d131a" d="M245.2 223.75q-.5-2.25-1.7-4.55-1.55-2.95-3.5-4-3.35 3.55-5.7 9.65-2.05 5.25-1.55 5.95.4.55 4.9-1.8 4.9-2.5 7.55-5.25m-1.4-8.15q1.55 1.85 2.45 4.1 1.1 2.7.8 4.7-.3 1.75-2.75 3.5l-4.1 2.4q-3.1 1.75-7.95 3l-1.9-.15q-.3-.5 0-2.35 1-5.8 4-11.55 4.75-9.25 9.45-3.65m26.45-6.8-.8.7q-1.4 1.7-2.45 4.95-1 3.2-1 5.85v.55q2 1.5 8.3 2.7 5.95 1.2 6.5.7.6-.65-2.5-6.05-3.6-6.1-8.05-9.4m13.55 16.4.05 1.65-1.45.05q-7.3-.5-12.8-2.25l-3.2-1.15q-1.95-.9-2.35-2.1-.4-1.15-.05-3.05l.75-3.05q1.25-4.7 3.2-7 1.15-1.45 2.4-1.55l.35-.05.3.2q10.6 7.55 12.8 18.3m31.35-79.05-4-2.8q-4.65 3.5-6.75 5.65l7.25 1.8 5.65.9q.35-.1.75-1.3.45-1.3.15-1.8zm-4.55-4.75.5-.4.6.35q5.9 3.95 7.2 5.45l1.2 1.45.2 1.15-.3 2.3q-.45 1.7-1.8 2.1-1.3.45-8.4-1.35l-6.95-1.9q-.65-.25-.8-.95-.2-1.8 8.55-8.2"/><path fill="#717071" d="M242.65 182.2q-6.15 5.8-20.4 12.4-21.75 10.1-62.55 17.55-52.9 9.65-103.25 6.3-17.15-1.1-32.05-6.4-9.95-3.55-18.2-8.65-2.8-1.75-2.95-2.9-.2-1.1 1.85-2.7 8-5.05 14.9-11.05 2.45-2.1 7.45-9 6.75-9.15 11.05-14.2 18.15-21.35 47.15-39 18.45-11.2 50.65-26.05 31.35-14.5 46.1-18.85l81.65 80.4q-16.65 17.7-21.4 22.15"/><path fill="#595757" d="m182.4 79.65 13.6 13.4q-68.55 26.7-106.1 53.75-16.7 12.05-22.75 21.35-6 9.25-.25 14 13.25 10.9 39 16.05 26.6 5.35 53.6 1.85 30.15-3.9 50.85-18.05 23.8-16.25 30.95-43.65l22.75 21.7q-16.65 17.7-21.4 22.15-6.15 5.8-20.4 12.4-21.75 10.1-62.55 17.55-52.9 9.65-103.25 6.3-17.15-1.1-32.05-6.4-9.95-3.55-18.2-8.65-2.8-1.75-2.95-2.9-.2-1.1 1.85-2.7 8-5.05 14.9-11.05 2.45-2.1 7.45-9 6.75-9.15 11.05-14.2 18.15-21.35 47.15-39 18.45-11.2 50.65-26.05 31.35-14.5 46.1-18.85"/><path fill="#717071" d="M73.65 190.1q-8.8-9.75-27.6-22.4 1.45-7.35 4.1-15.5 6.55-6.6 18.3-15.2 11.2-8.2 24.75-16.5-12.25 19.2-15.35 37.7-2.75 16.7 2.25 30.65 4.7 13 15.1 20.75 10.25 7.7 23.2 8.1-3.8 2.95-12.8 3.85-6.75.7-18.3.35-.05-16.7-13.65-31.8"/><path fill="#595757" d="M72.55 158.75q-5.6 5.5-13.3 18.35-5.05-3.9-13.2-9.4 1.45-7.35 4.1-15.5 6.55-6.6 18.3-15.2 11.2-8.2 24.75-16.5-4.95 7.75-10.55 22.65-2.8 7.45-4.6 13.35l-2.35.9q-2.5 1-3.15 1.35m3.3 33.95 6.15.65q5.3 11.05 15 17.55 9.65 6.45 21.4 6.8-3.8 2.95-12.8 3.85-6.75.7-18.3.35 0-15.3-11.45-29.2"/><path fill="#717071" d="M174.65 99.9q-6.75 10.7-11 20.65-14.2 33-4.8 63.7 3.75 13.15 18.85 18.2 5.7 1.9 11.6 2.05 5.35.2 8.15-1.1 1.75 2.05-8.5 5.9-10.45 3.9-23.2 5.7-1.15-17.6-18.15-34.2-15.75-15.4-38.4-23.9 1.55-24.15 17.3-53.05l16.45-8.25q10-4.9 16.45-7.3 17.95-6.6 21.4 1.7z"/><path fill="#595757" d="m180.8 90-4.3 6.75q-5.05 7.4-8.7 14.5-2.45.4-6.7 2.55l-4.1 2.25q-11.05 2.25-25.1 8.85-12.1 5.7-18.85 10.8l-.1.15q4.25-14.85 13.55-32l16.45-8.25q10-4.9 16.45-7.3 17.95-6.6 21.4 1.7m16.65 113.4q1.75 2.05-8.5 5.9-10.45 3.9-23.2 5.7-.7-11.3-8.5-22.75l5.25-.4q6.2 8.6 18.7 11.55 10.65 2.55 16.25 0"/><path fill="#dcdbd6" d="M164.6 31.75q16.75 14.45 18.8 15.6 7.8 4.45 1.15 25.2-3.35 10.35-8.25 19.85-24.4 5.15-64.55 28.45-1.75 1-3.35.2-1.6-.9-1.9-.75l-.9 2.25q-.8 1.75-1.85 2.35L71.1 143.15q-.9.4-2.25-.35l-1.2-.8-.45 1.7q-.55 1.9-1.35 2.7l-11.75 8.4-11.65 8.2-1.65-.1-.85-.85-.35 1.8q-.5 1.95-1.15 2.65-1.9 2.1-8.55 10.85-6 6.95-7.5 3.35-1.7-4.2.1-13.6 2.3-9.75 2.65-12.3.4-2.75-3.6-11.95-3.9-9-3.5-10.3.8-2.7 3.25-5.8 2.75-3.5 4.45-2.65l6.85 4.15q5.3 3.2 6.25 3.2 1.25 0 3.35-1.65 2.1-1.7 2.75-3.2l-6.9-14.5q-4.25-8.7-3.75-10.4.65-2.45 4.95-5.85 4.55-3.55 6.9-2.7 1.65.65 13.2 6.15 10.95 5.1 11.95 4.6 2.1-1.05 4.25-3.25 3.1-3.15 3.8-6.6.45-2.35-5-16.6-5.3-13.7-3.95-16.4 1.95-3.85 9.85-8.25 8-4.45 10.75-2.9 1.25.7 15.05 11.5 13.15 10.35 16.05 11.5 1-5.15-3.15-23.55-4.15-18.3-3.7-20.4.6-2.75 11.05-8.05 11.35-5.8 17.4-4 5.7 1.7 20.9 14.85"/><path fill="#b4b4b0" d="M93 57.05q-2.6-3.2-5.5-5.2l-2.35-1.35 2.5-.55q2.65-.45 3.35-.05 1.25.7 15.05 11.5 13.15 10.35 16.05 11.5l-.35 2.15q-.85 3.4-2.15 4.35-1.4 1-12.5-8.7Q96.9 61.8 93 57.05m-51.9 37.6q4-1.9 5.05-1.5 1.65.65 13.2 6.15 10.95 5.1 11.95 4.6 1.25-.65 2.5-1.7l-2.3 5.1q-1.2 2.2-2.95 2-.9-.1-14.5-7.35Q41.1 95 39.45 95.7q-5.65 2.45 1.65-1.05m-1 40.05q-3.5 2-8.25-1.35-5.9-5-9.9-7.4 2.3-2.6 3.8-1.85l6.85 4.15q5.3 3.2 6.25 3.2 1.1 0 3-1.4.65 3.65-1.75 4.65m143.3-87.35 1.55 1.25-1.4 1.6q-7.5.1-14.35-3.8-5.05-2.9-11.5-9.3-7.05-7.35-10.85-10.7-6.45-5.8-12.45-8.25-3.2-1.3 1.65-1.7l7.65.45q5.7 1.7 20.9 14.85 16.75 14.45 18.8 15.6m2.65 2.75-2.5.1 1.4-1.6zm0 0q3.95 6.9-2.5 25.3-3.2 9.2-7.25 17-24.4 5.15-64.55 28.45-1.75 1-3.35.2-1.6-.9-1.9-.75l-.9 2.25q-.8 1.75-1.85 2.35L71.1 143.15q-.9.4-2.25-.35l-1.2-.8-.45 1.7q-.55 1.9-1.35 2.7l-11.75 8.4-11.65 8.2-1.65-.1-.85-.85-.35 1.8q-.5 1.95-1.15 2.65-1.9 2.1-8.55 10.85-6 6.95-7.5 3.35-1-3.1 5.9-10.6 7.35-7.2 7.7-8.1 1.45-3.4 2.35-7.45l1 1.5q.85 1.35 1.65.85l10.55-7.1q9.75-6.8 10.4-8.75l1.25-6.1q.65-3.9 1.25-4.3 1.2 3.15 2.05 4.15 1.05 1.25 2.75.85 1.85-.45 14.95-8.4 13.15-8 14.8-9.65 1.05-1.05 3.15-6.3 2-4.85 3-5.4l1.95 4.75q.95 1.95 2.75.95 13.4-7.6 30.5-15.75 17.1-8.2 24.6-10.6 6.1-2 13.95-18.75 3.95-8.4 7.15-16.4"/><path fill="#0d131a" d="m2.05 197.25 5.05-2.45q4.1-2.2 7.1-4.55l6.05-5.1 1.1-1.3 1.2-1.7 1.8 1.85-1.45 2-1.45 1.6-6.45 5.3q-3.15 2.4-5.85 3.65-3.5 1.6-4.1 2.85-.65 1.35 1.85 2.9 8.7 5.5 19.6 9.15l-.65 2.65q-11.9-3.85-21.05-9.5-4.75-3.05-4.8-4.95-.05-1.25 2.05-2.4m252.1-31.4 1.9.35 1.9.35q-2.1 4.35-7.45 10.05-10.7 11.45-27.7 19.15-9.85 4.55-24.9 8.85-3.9-.95-6.15-.95 21.35-5.85 30-10.2 20.25-10.35 28.35-20 4.05-4.8 4.05-7.6M83.1 136.65l1.85.45-2.7 1.7zM49.4 159.4q-2.85 4.15-2.5 8.35h-2.2l.05-.35 1.3-5.6zm46.35 63.9-8.45-.1H87l1.5-3.3.05.7 6.9.1z"/><path fill="#0d131a" d="M79.05 156.5q-2.1 9.6-1.3 19.4l-1.95-1.05-.25-5.1q0-14.65 6.7-30.95l1.5-1.2 1.45-1.2.25.4.2.4q-4.75 10.8-6.6 19.3m16.25 52.2.15 2.6q-2.85-1.95-5.5-4.55l-.05-2.6q2.45 2.45 5.4 4.55"/><path fill="#0d131a" d="m85.65 137.2-.7-.1 1.05-.7zm-39.6 24.6.9-3.2 2.8-.4-.35 1.2zm125.1-58.65.6 4.1q-8.6 14.5-12.2 27.55-4.55 16.3-2.6 33.95-1.9-1.3-3.05-1.9-.4-3.9-.4-7.25 0-15.9 6-32.4 4.2-11.5 11.65-24.05"/><path fill="#0d131a" d="M157.6 184.6q-2.8-9.3-3.7-17.75 1.15.6 3.05 1.9.85 7.6 3.1 15.15 2.6 9.1 11.65 14.45l-.85 2.45q-10.2-5.65-13.25-16.2m-38.85-68.1 2.25-1.05 2.25-1.15q-12.2 25.9-13.45 42.55-.95-.75-1.8-.75 1.25-18.5 10.75-39.6"/><path fill="#0d131a" d="m196.9 202.2 1.05 1q1.05 1.1.85 1.55-1.1 2.85-7.7 5.35-6.7 2.55-21.15 5.55V213q9.25-1.65 16.6-3.8 8.25-2.4 7.6-3.65-4.4.6-9.8-.2-5.95-.9-11-3.25l-2.5-1.3.85-2.45 2.75 1.4q6.15 2.85 13.25 3.35 6.2.45 9.2-.9M78.45 139.35l1.65-.55q-4.4 9.65-6.2 16.95-2.2 9.1-1.15 17.1l-1.55-1.1q-1.05-8.1 1.1-16.35 1.5-5.9 6.15-16.05M171.3 93.6l.8 1q-8.55 6.6-16.7 29-8.7 23.9-6.9 41.1l-1.3.15q-1.8-17.45 7.1-41.75 8.3-22.8 17-29.5m-5.95 70.8q3.8 6.6 4.85 12.85.75 1.65-2.45-1.55 0-2.85-3.8-9.6-2.55-4.6-4.6-7.4-.8-1.2-.7-1.55.15-.4 1.5.5 2.05 1.35 5.2 6.75M87.8 211.45l.75-1.05 4.05 3.1q1.85 1.65 3.05 2.35 1.8 1 4.6 1.7l-.3 1.25q-2.95-.7-4.95-1.85l-3.25-2.45z"/><path fill="#0d131a" d="M24.7 125.3q-1.35.6-3.2 3.3-1.7 2.5-2.2 4.3-.25 1 2.95 8.25l3.15 7.7q1.35 4.05 1.05 6.1l-1.15 5.35q-1.6 6.75-2.1 10.45-.85 6.35.4 9.45l.35.45q1.85.25 9.9-10.4l3.65-4.65.65-1.5.5-2.2.3-1.85q-4.05-13.65 2.8-28.45-1.6 1.1-2.9 1.1-.9 0-2.95-1.1l-6.4-3.8-4.35-2.55zm21-30.95q-.85-.3-2.75.65-2.4 1.2-4.85 3.6-2.25 2.2-2.6 3.45-.35 1.45 5.55 13.25 3 6.05 4.4 9.65.75 2.05-.65 3.85l-.5.65q-8.5 16-3.55 31.05.5.8 2.85-.2 2.55-1.15 6.1-4 3.15-2.5 9.4-6.75l5.8-4.1q1-.9 1.5-3.65l.05-.35Q60.1 127 71.9 105.05q-1 .5-4.45-.8-3.85-1.5-14.9-6.75-5.8-2.75-6.85-3.15m65.8-3.1q4.3-5.4 6.95-10.4 2.05-4 2.75-7-3.75-1.7-20-14.6-9.25-7.35-10.85-8.2-.95-.5-3.75.35-4.25 1.3-9.05 4.55t-6 5.65q-.7 1.45 1 7.05l3.7 10.1 3.4 9.3q1.3 4.35.95 6.25-1 4.8-5.9 8.85-13.05 22.85-6.85 37.3l1.15.85q1.3.8 2.35.4 1.6-.55 31.75-17.9.85-.45 1.9-3.2l.4-1q-2.3-5.05-.85-13 1.6-8.65 6.95-15.35m71.25-42.8q-2.9-1.6-13.5-10.95-9.55-8.4-14.15-12-7.9-6.25-11.75-7.35-5.5-1.65-16.25 3.85-9.55 4.9-10.6 7.25l-.05.75q0 2.85 2.9 15.25l2.9 13.4Q123.6 66 123.6 70.1l-.25 3.05-.3 1.5-.05-.05q-1.7 6.9-9.9 17.2-5.1 6.4-6.4 14.55-1.15 7.35 1.2 12.15l1.3.9q1.15.75 1.9.3 39.95-23.1 64.3-28.4 3.95-7.8 6.9-16.2 4-11.3 4-18.2 0-6.45-3.55-8.45m-11.8-12.9q10.45 9.2 13.1 10.65 8.35 4.75 2.4 24.7-3.15 10.65-9 22.1l-.3.55-.6.1q-13.5 2.85-32.7 11.75-14.7 6.8-31.45 16.55-2.55 1.5-5.1-.1-1.15 3.15-2.9 4.2-31.05 17.6-32.8 18.3-1.4.6-3.15-.3-.7 2.25-1.7 3.25L51.2 158.4l-7.9 5.6q-.7.65-1.8.55l-.75-.25q-.5 2.1-1.35 3.05l-3.5 4.45q-4.65 6.15-6.95 8.45-3.2 3.25-5.35 2.95h-.1l-1.4-.05q-.85-.2-1.25-1.15-1.45-3.55-.3-10.8.4-2.6 2.55-11.7l1.1-5.1q.2-1.5-1.3-5.35l-3-6.85q-3.45-7.9-2.8-10.2.65-2.25 2.4-4.95 2.1-3.2 4.15-4.1 1.5-.6 2.65 0l4.55 2.7q7.25 4.4 8 4.5.7 0 2.3-1.2 1.65-1.3 2.35-2.45l-4.75-10.05q-3.1-6.15-4.25-8.9-1.55-3.65-1.55-5.35l.1-.85q.55-1.85 3.25-4.55t5.5-4.15q1.85-.9 2.45-1.1l2-.1q1.1.4 7.45 3.75 15.5 7.3 17.2 7.45 1.5-.85 3.65-2.85 2.65-2.45 3.35-4.1 1.15-2.75-4.1-16l-3.65-10.05q-1.4-4.45-1.4-6.8 0-1.45.5-2.4 1.5-3 6.9-6.65 5.15-3.5 9.7-4.9 3.9-1.2 5.8-.1l11.15 8.4q13.75 10.9 18.2 13.6l.05-.75q0-3.85-1.4-11.2l-2.8-13-2.45-9.7q-1.15-4.3-1.15-6 0-.75.15-1.3.45-2.3 8.75-7.15 14.8-8.75 21.9-6.6 4.15 1.2 12.25 7.75z"/><path fill="#0d131a" d="M157.25 67.45q4.05-.5 4.9 1.2t-1.95 4.65q-2.8 2.9-7.6 5.35t-8.85 3-4.9-1.15q-.85-1.75 1.95-4.65 2.75-2.95 7.6-5.4t8.85-3M96.8 101.6q.65 1.3-1.2 3.6t-5.05 4.3q-3.25 2-5.95 2.5t-3.35-.75q-.65-1.3 1.2-3.6 1.8-2.3 5.05-4.3 3.2-2 5.95-2.5 2.7-.5 3.35.75m-38.5 26q.4 1.15-.7 3.15-1.1 2.05-3 3.75-1.95 1.75-3.55 2.2t-2-.7q-.4-1.1.7-3.1t3-3.8q1.9-1.75 3.55-2.2t2 .7m-24.1 27.25q.25.95-.5 2.7-.75 1.7-2.05 3.2-1.3 1.45-2.45 1.85-1.15.35-1.4-.6t.5-2.65q.75-1.75 2.1-3.2 1.3-1.5 2.45-1.85 1.1-.4 1.35.55"/><path fill="#717071" d="M25.6 193.85q-.25-4.6.6-9.05.95-4.75 3.05-8.5 3.4-6 10.4-7.35 15.85-3.2 31.9 3.5 13.9 5.75 17.85 13.35 2.25 4.3 1.4 10.45-.85 6.05-3.45 7-3.2 1.25-30.6-.25L30 201.2q-2.15-.15-3.35-2.85-.9-1.95-1.05-4.5"/><path fill="#595757" d="M25.6 193.85q-.25-4.6.6-9.05.95-4.75 3.05-8.5 3.4-6 10.4-7.35l9.75-.6 9.6.4q-3.6 2.9-5.7 11.2-2.05 8.2.65 8.1 4.45-.2 16.8 3.4 14.8 4.25 18.8 9.25-1 2.1-2.2 2.55-3.2 1.25-30.6-.25L30 201.2q-2.15-.15-3.35-2.85-.9-1.95-1.05-4.5"/><path fill="#717071" d="m36.2 170.85-7.4 16.65-4.9-3.95-.2-4.1q-.15-4.2.1-4.6l2.2-1.8 1.95-1.35 2.95-.25z"/><path fill="#595757" d="m36.2 170.85-7.4 16.65-4.9-3.95-.2-4.1q-.15-4.2.1-4.6l2.2-1.8 1.95-1.35 2.95-.25z"/><path fill="#717071" d="M173.15 193.6q-1.4 8.8-5.15 9.8l-36.4-1.15L99.2 200q-2.4-.85-3.5-1.45-2.1-1.15-2.6-2.55-1.05-3-.5-9.1l1.15-8.95q.65-4.7 6.25-9.8 6.05-5.55 13.5-7 15.95-3.2 36.3 4.65 8.3 3.2 14.5 7.3 6.1 4 7.8 7.25 2.4 4.6 1.05 13.25"/><path fill="#595757" d="M93.1 196q-1.05-3-.5-9.1l1.15-8.95q.65-4.7 6.25-9.8 6.05-5.55 13.5-7 10.25-2.1 23.4.75-7.2 2.8-10.55 13.9-1.3 4.3-1.25 7.6t1.45 3.4q10.85.7 29.15 7.5 18.75 7 12.3 9.1-3.3 1.05-36.35-1.05L99.2 200q-2.4-.85-3.5-1.45-2.1-1.15-2.6-2.55"/><path fill="#922f00" d="M295.05 106.85q5.8 3.5 14.8 13.6 10.25 11.45 7.75 14.95-2.35 3.3-15.25 4.05l-12.4.1z"/><path fill="#922f00" d="m317.6 135.4-.35.35-12.8-3.9q-7.2-1.9-12.95-2.15l3.55-22.85q5.8 3.5 14.8 13.6 10.25 11.45 7.75 14.95"/><path fill="#ed8599" d="M277.6 85.7q7.45 4.45 12.65 10.65 15.4 18.15 5 41.9-3.6 8.25-16.9 4.1-10.75-3.35-18.6-10.3-7.15-6.25-13.5-15.35-7.3-10.4-9.05-18.65-2.15-9.85 4.45-14.2 7.8-5.15 27.1-2.15 3.05.5 8.85 4"/><path fill="#ce7486" d="M268.75 81.7q5.05.8 13.4 7.05 11.1 8.35 15.15 19.5-12.9-4.35-26.9-1.1-12.85 3.05-22.8 11.45-12.85-17.45-10.6-27.9 2.85-13.5 31.75-9"/><path fill="#717071" d="M242.35 95.65q-.3 4.95-.15 5.75.9 4.25 6.15 9.1 5.75 5.3 19.15 15.05 12.6 9.25 15.95 10.9 4.1 2.05 5.8 2.55l8.95.5 12.15-1.05q5.8-.9 7.1-3.1l-4.75 8.85q-4.2 6.3-9.15 7.3l-16 3.95q-11.25 2.55-16.15 1.6-2.45 1.1-7.05 4.95-4.15 3.45-5.45 3.65-2.4.4-6.7-.6-5.05-1.2-8.7-3.7-2.1-1.5-2.1-3.9 0-1.1.8-3.85 2.15-6.75 1.25-9.2-3.3.9-9.25 5.8-4.55 3.6-9.35 2.1-2.9-.9-6.3-2.55-3.75-1.85-5.15-3.2-1.2-1.15-1.55-3.1-.45-2.25.65-4.1 1.15-1.95 1.75-5 .55-3 .2-5-2.7 0-6.1 1.25-3.1 1.15-5 2.6-4.15 3.35-8.4 1.8-1.5-.4-4.4-1.8-3.95-1.85-5.35-3.45-.6-.65-.45-2.95.15-2.45 1.1-3.25 9.85-8.2 6.85-13.5-1.8-3.2 14.25-14.55 8-5.65 16.35-10.7z"/><path fill="#595757" d="M206.95 95.5q8-5.65 16.35-10.7l19.05 10.85-.3 2.95q-.15 2 .4 3.75-19.25 1.05-30.65 10.4-3.45 2.85-8.3 8.35-5.1 5.75-7.6 7.9l1.1 1 .8.85 9.4-2q7.25-1.7 2.15 1.5-9.85 6.2-12.25 5.5-9.7-3.6-11.9-6.1-.6-.65-.45-2.95.15-2.45 1.1-3.25 9.85-8.2 6.85-13.5-1.8-3.2 14.25-14.55m5.7 45.5q.3-1.35 6.65 1.9l7.75 4.4q.7.5 9.3-3.65 7.85-3.75 7.5-1.05-1.25 2.45-7.7 6.65-6.15 4-7.55 3.85-1.9-.25-7.7-2.65-6.1-2.55-7.5-3.9-1.6-1.5-.75-5.55m29.65 17.4q-.3-1.65.25-2.9.3-.75 6.15 1.75 5.2 2.2 7.65 3.7 1.25.75 10.45-3.6 7.2-3.4 4.9-1.45l-7.2 5.55-5.3 3.65-6.75-.2q-4.85-.95-7.55-2.8-2.15-1.5-2.6-3.7"/><path fill="#dcdbd6" d="M345.25 57.6q2.2 6.1-1.65 11.7 1-11.15-26.3-5.35-21.7 4.6-41.7 13.9-10 17.5-28.4 18.2-6.4.25-12.4-1.7-5.05-1.6-6.35-3.3-.85-.2-19.25 10.1-20 11.15-21.8 11.95-3.45 1.5-8.15 0-4.2-1.3-7.45-4.3-2.45-2.3 4.1-21.8 7.25-19.85 7.55-21.4.4-2.1-3.3-16.85-3.45-13.7-5.6-19.9-1.9-5.45-.95-9.55 1-4.3 4.95-6.05 45.9-20.65 100.6-2.3 19.7 6.6 36.95 17.15 14.3 8.8 19.85 15.45 7.55 9.15 9.3 14.05"/><path fill="#b4b4b0" d="M346 63.3q.1.65-.6 2.55-.8 2-1.8 3.45 1-11.15-26.3-5.35-21.7 4.6-41.7 13.9-10 17.5-28.4 18.2-6.4.25-12.4-1.7-5.05-1.6-6.35-3.3-.85-.2-19.25 10.1-20 11.15-21.8 11.95-3.45 1.5-8.15 0-4.2-1.3-7.45-4.3-2.45-2.3 4.1-21.8 7.25-19.85 7.55-21.4.25-1.4-3.85-18.05l-6.25-24.3q6.1 10.95 8.9 17.65 5.2 12.55 5.2 22.15 0 6.25-3.8 23.75-2.65 12.25.4 11.25l17.65-5.85q15.45-5.45 18.1-8.25 12.1-12.85 30.15-13.65l12.25.5q6.05.6 7.45.15 31.75-10.05 47.4-12.9Q344.1 53.2 346 63.3"/><path fill="#57c2e9" d="M247.25 90.2q-9.4-.3-13.8-6.05-1.4-1.8-2.1-3.95l-.45-1.75q4.4-3.75 15-4.85 12.75-1.35 22.95 3.65-1.55 5.3-8.75 9.35-6.8 3.85-12.85 3.6"/><path fill="#dcdbd6" d="M287.6 139.15q-6.65-1.35-4.15-4 4.75-5.1 11.15-10.75 1.2 3.6 1.65 8.35.55 5.25-.55 6.35-1.45 1.45-8.1.05"/><path fill="#b4b4b0" d="M291.2 127.15q-3.3 6.5-2.35 12.25-3.35-.5-4.95-1.5-1.9-1.25-.45-2.75 5.7-6.05 7.75-8"/><path fill="#dcdbd6" d="m310.1 132.65 3-3.6 5.35-6.95q1 1.4.55 6.7-.45 5.4-1.9 6.5-4.25 3.3-6.4 1.75-2-1.45-.6-4.4"/><path fill="#b4b4b0" d="M316.5 124.35q-2.95 4.85-3.6 7.95-.6 2.95.85 4.95-2.2 1.1-3.45-.6t-.2-4z"/><path fill="#717071" d="M75.2 197.1q7.1 2.35 9.85 4.35 2.1 1.55.6 16.8-1.55 15.4-4.4 18.25-1.45 1.45-7.85 2.9-6.5 1.5-13.95 2-19.4 1.25-23.55-4.95-2.35-5.7-4.3-17.45-2.25-13.65-.85-20.6 6.95-8.65 28.6-5.2 8.05 1.25 15.85 3.9"/><path fill="#595757" d="M49.95 192.3q11.1.25 23.8 4.3-10.25 2.65-16.85 17.45-5.45 12.15-6.7 27.4-11.35-.6-14.3-5-2.35-5.7-4.3-17.45-2.25-13.65-.85-20.6 5.2-6.45 19.2-6.1"/><path fill="#717071" d="M157.05 240.05q-11.2 5.3-30.9 2.6-8.05-1.1-14.45-3.25-6.35-2.1-8.4-4.35-2.75-3.05-4.45-18.2-1.65-14.7-.2-17.95 6.95-6.4 29.05-5.45 22.65 1 36.55 9.05 1.5 4.9-.6 15.7-2.05 10.4-6.6 21.85"/><path fill="#595757" d="M118.55 193.5q14.65-.75 29.05 2.7-15.75 6.75-16.05 21.5-.1 3.75 1.15 12.9 1.1 8.35.7 12.75-9.9-.55-18.85-3.1-8.7-2.45-11.25-5.2-2.75-3.05-4.45-18.2-1.65-14.7-.2-17.95 5.05-4.6 19.9-5.4"/><path fill="#dcdbd6" d="M36.25 224.35q1.75.05 2.45 5.5.65 5.25-.4 8.15-2.85 1.6-7.9 1.85l-4.45-.05q1-3.9 2.75-7.8 3.55-7.8 7.55-7.65m18 1.05q2.45-1.9 5.45 6.15 3 7.85 2 9.8-1 2.05-9.75 6.65-3.85-4.1-5.65-6.9-1.2-1.9 2.4-8.2 3.25-5.65 5.55-7.5m27.8-1.05q2.35-1.6 4.55 7.35 2.15 8.65 1.3 13.15l-7.25-2.8q-4.45-1.9-5.55-2.75-1.1-.9 2.1-7.4 3.1-6.3 4.85-7.55"/><path fill="#b4b4b0" d="M36.25 224.35q1.75.05 2.45 5.5.65 5.25-.4 8.15-2.85 1.6-7.9 1.85l-4.45-.05q1-3.9 2.75-7.8 3.55-7.8 7.55-7.65m18 1.05q-2.75 7.2-2.8 15.65 0 4.2.5 6.95-3.85-4.1-5.65-6.9-1.2-1.9 2.4-8.2 3.25-5.65 5.55-7.5m28.5 7.7q1.95 6.5 2.05 10.5l-5.55-2.35q-3.65-1.55-4.15-1.95-.75-.65 1.2-5.5 1.85-4.6 3.2-6.15 1.15-1.3 3.25 5.45"/><path fill="#dcdbd6" d="M102 225.9q2.55-2.2 5.8 4.75 3.2 6.8 2.2 8.35-.75 1.1-7.2 2.5-6.3 1.35-8.75 1.1.35-4.3 3.15-9.75 2.5-4.95 4.8-6.95m24.45 1.05q4.3-3.3 7.25 5.25 2.25 6.4 2.25 11.2 0 1.75-6.4 6.45l-6.45 4.35-2.5-4.65q-2.45-5.1-2.15-7.2.45-2.75 3.15-8.15 2.9-5.75 4.85-7.25m34.45 17.35q-7.3-2.3-7.45-2.95-.3-1.2 2.4-8.4 2.85-7.75 4.8-8.35 3.75-1.15 8.4 7.9 4.65 9.1 2.95 15-5.05-1.25-11.1-3.2"/><path fill="#b4b4b0" d="M102 225.9q2.55-2.2 5.8 4.75 3.2 6.8 2.2 8.35-.75 1.1-7.2 2.5-6.3 1.35-8.75 1.1.35-4.3 3.15-9.75 2.5-4.95 4.8-6.95m24.45 1.05q2.6-2.05 4.8.5-4.9 3.8-7.2 10.9-.65 2.05-2.7 12.7-3.25-6.3-2.9-8.7.45-2.75 3.15-8.15 2.9-5.75 4.85-7.25m27 14.4q-.2-.8 1.6-6.15 1.95-5.85 3.75-8.7 6.5 10.3 9.1 19.9-14.2-4-14.45-5.05"/><path fill="#dcdbd6" d="M89.65 204.05q1.75 1.35 1.15 9.55-.6 8.45-3.45 9.5-4.25 1.55-25.45 2.45-23.35.95-30.6-1.65-1.85-.65-2.75-7.55-.95-7.05.55-11.15 9.9-6.65 34.15-5.6 9.15.35 17.1 1.75 7.5 1.35 9.3 2.7"/><path fill="#b4b4b0" d="M78.35 201q-14.7 2.7-21.3 9.15-5.1 5.05-7.75 15.6-13-.1-18-1.85-1.85-.65-2.75-7.55-.95-7.05.55-11.15 7.3-4.85 23.2-5.6 12.9-.65 26.05 1.4"/><path fill="#dcdbd6" d="M134.1 199.95q11.65.55 21.75 2.25 9.9 1.65 12.65 3.45 2.35 1.55 1.5 9-.8 7.5-3.6 8.9-2.75 1.4-10.8 2.75-8.8 1.5-18.7 2-26.3 1.4-40.55-4.8-2.6-1.15-2.7-8.7-.1-7.45 1.95-9.15 8.6-7.05 38.5-5.7"/><path fill="#b4b4b0" d="M146.25 201.45q-11.2 1.55-18.05 8.7-4.6 4.75-11.4 17.9-12.45-1.05-20.45-4.55-2.6-1.15-2.7-8.7-.1-7.45 1.95-9.15 10.95-9 50.65-4.2"/><path fill="#717071" d="m120.15 160.15-2.8 6.2q-3.1 5.85-4.75 4.35-1.55-1.4-8.7-.7l-7.4.4q-.55-.55-.35-5.3l.05-6q-.2-1.15 2.95-2.5l4.1-1.5q.45-.15 6.4 2 6.8 2.5 10.5 3.05"/><path fill="#595757" d="m104.95 165.5 1.4 1.1 7.2 4.95q4.85 3.3-3.4 4.95l-9.2 1q-.15-.8-1.95-3.6l-2.5-3.5q-.55-.55-.35-5.3l.05-6q-.2-1.15 2.55-2.4l4.5-1.6q1.4-.45 1.7 4.95z"/><path fill="#b4b4b0" d="m37.8 202.2-7 16.75q-.4-.4-2.75-1.2-2.35-.85-2.6-1.1-.55-.6-.5-9.1l3.9-3.25q4.3-.5 8.95-2.1m68.25-.3q3.85 1.25 6.15 1.1l-12.6 15.4q0-.8-1.45-2.5l-2.75-3.2q-.25-2.45-.15-5.1.1-3.6.85-4.2.7-.6 3.7-1.75l2.8-1z"/><path fill="#0d131a" d="M26.5 193.8q.1 1.75 1 3.9 1.05 2.45 2.4 3-.2.35 0 .7l.25.7q-4.95-.55-5.45-8.2-.3-4.4.6-9.15l1.65 1.15q-.65 3.85-.45 7.9m13.35-24q-2.45.5-4.6 1.7l-3.85-.15q1.45-1.1 3.8-2 2.25-.9 4.3-1.3 16-3.2 32.4 3.6 14.25 5.95 18.3 13.7 1.65 3.1 1.65 7.65 0 3.85-1.1 7.3-.8 2.5-2.8 2.85-1.6.3-2.1-.45l1.15-.25q1.1-.45 2.05-2.8 1.1-2.9 1.05-6.65-.05-4.05-1.5-6.8-3.85-7.4-17.55-13-15.75-6.5-31.2-3.4"/><path fill="#0d131a" d="m28.05 170.85 2.75-.4 5.25-.45 3.15.1q.1.5-2.2 1.15l-4.5.65-3.7.2-1.95 1.25-2.1 1.85q-.5.55-.45 3.7.1 3.05.45 4.2.25.8 1.7 2l2.6 2.3q1.2 1.4.9 1.75t-1.55-.75l-4.85-4.2q-.55-.55-.5-4.75.05-3.05.25-4.75.1-.55 2.1-2zm64.2 25.45q-.9-2.65-.25-10.8l.85-7.65q.45-3.4 3.7-7.35l1.2 1.4q-2.7 3.4-3.1 6.15-1.15 16.3-.7 17.65.6 1.55 4.35 3l-.75 1.65q-4.5-1.7-5.3-4.05m80.65-16.4q1.7 3.35 1.55 9.5-.2 6.1-2.15 10.55-1.65 3.7-4.05 4.3l-3.6.25-.9-2.3 2.5.2 1.55.1q1.5-.4 2.85-3.3 1.8-4 2-9.75t-1.35-8.7q-3.3-6.3-18.55-12.8-16.55-7.1-31.45-6.75l-3.95-1.55q16-1.65 34.7 6 17.05 6.95 20.85 14.25m124.2-73q4.15 3.15 9.4 8.45 6.15 6.15 9.4 11.05l-1.2 1.2q-2.7-4.1-7.75-9.4-4.5-4.75-8.7-8.25z"/><path fill="#0d131a" d="m271.9 83.8.55-.3.75-.75q18.6 6.55 24.75 22.1 5.8 14.55-.9 31.6-.4-1.8-.5-4.55 4.5-14.85-2.5-28.25-6.9-13.2-22.15-19.85m-82.95 42.8q-.5-.35-.5-.8.05-.55 1.05-.4 1.1.2 4 1.9 2.95 1.75 3.7 2.65.7.9.15 1.1-.55.25-1.25-.4-.55-.5-3.7-2.2zm27 15.55q-.6-.3-.55-.75t.9-.45q.9-.05 4.8 2.15 4 2.25 5.15 3.5 1.1 1.25.85 1.5-.25.3-1.3-.35zm29.6 14.9q-.85-.2-.85-.75 0-.6.75-.7.9-.2 4.75 1.3 4.15 1.65 6.15 3.25 1.35 1.1.6 1.45-.8.3-1.55-.5-.55-.6-4.8-2.25-3.75-1.45-5.05-1.8m-31-109.6q.6 2.15-2.25 4.55-2.8 2.35-7.4 3.65-4.6 1.25-8.25.6-3.65-.6-4.25-2.75-.55-2.15 2.25-4.55 2.85-2.4 7.45-3.65 4.55-1.25 8.25-.65 3.65.65 4.2 2.8m52.8-3.9q0 3.45-5.55 5.9-5.55 2.4-13.45 2.4t-13.45-2.4q-5.55-2.45-5.55-5.9 0-3.4 5.55-5.85 5.6-2.4 13.45-2.4t13.45 2.4q5.55 2.45 5.55 5.85m41.3 3.1q-.2 2.4-3.65 3.8-3.45 1.45-8.15 1.05-4.65-.35-7.8-2.35-3.2-1.95-3-4.35.2-2.45 3.65-3.85 3.45-1.45 8.1-1.05 4.7.4 7.85 2.35 3.2 2 3 4.4M268 77.6q-9.85-4.65-22-3.4-10 1.05-14.4 4.55.6 3.25 3.1 5.95 4.3 4.55 12.55 4.85 5.75.25 12.25-3.35 6.7-3.7 8.5-8.6m-22.7-5.9q11.45-.9 23.85 4.95.7.35-.5 2.65-1.3 2.65-3.9 5.15-7.5 7.15-19 6.75-9.8-.35-14.1-6.65-1.45-2.15-1.95-4.5-.4-2 .05-2.4 5.65-5.2 15.55-5.95"/><path fill="#0d131a" d="m258.15 74.2.25-.65 4.15 1.35.05.4q.3 1.85 0 3.6t-1 2.6q-.45.55-1.05.55t-1.1-.65q-.8-1.1-1.25-3.15-.5-2.35-.05-4.05m36.1 51.35q-5.8 5.25-10.35 10-.45.45-.45.85l.3.55q1.45 1.45 6.25 1.9l5.25-.25q.5-.5.5-2.85 0-4.95-1.5-10.2M243.4 96.7l-.05.4q-.4 3.05.25 5.05 1.1 3.45 5.55 7.5 5.6 5.15 16.8 13.95t15.8 11.7l11.3-11.1q1.05-1.05 1.5-1 .5.05 1.05 1.1.65 1.2 1.2 6.2.6 5.55-.1 7.95 14.5-.6 19.95-2.45 1.45-.45 2.65-3.8-1.25 5.45-5.55 11.9-5.05 7.55-10 8.55l-7.55 1.8-13 3.05q-7.45 1.35-11.55.7l-6.75 4.45q-5.4 3.65-6.35 3.8l-7-.5q-4.95-1.1-8.7-3.65-2.6-1.75-2.6-4.85 0-1.35.7-3.7 1.65-5.35 1.65-7.5l-.05-.25q-4.7 2.1-8.55 5.15-2.8 2.3-5.35 2.7l-4.15-.45q-2.95-.95-6.4-2.6-3.95-1.9-5.5-3.4-2.05-1.95-2.05-5.15 0-1.9.95-3.5l1.55-3.3q.6-2 .35-4.5l-.05-.35q-2.5.25-5.55 1.3-3.15 1.1-4.65 2.25-2.4 1.9-4.25 2.35-1.95.45-4.35-.4-7.65-2.65-10.25-5.55-.9-1-.7-3.95.2-2.85 1.5-3.95l5.15-4.45q2.75-3.1 1.85-6.4 1.15-.5 2.1-1.2l.35 2q0 5.2-7.95 11.85-.35.25-.5 2.35-.15 1.95 0 2.25 1.95 2.15 9.2 4.9 3.65 1.25 7.35-1.65 2-1.55 5.25-2.85 3.45-1.35 6-1.4l.65-.9q.75-.4 1.1 2.15.8 5.7-2.15 10.65-.85 1.5-.55 3.3.3 1.6 1.25 2.5 1.25 1.2 4.8 2.9l6.2 2.55q4.25 1.35 8.25-1.9 6.25-5.1 9.7-6l.4-.9q.45-.45 1 1.6t-.35 6.45l-1.05 4q-.65 2.25-.6 3.35.15 1.55 1.65 2.55 3.4 2.4 8.25 3.55l6.25.6 5.55-3.8 7-4.9q1.8-.95 1.9-.35l-.25.8q3.6.7 10.55-.85l12.2-3.2 7.65-1.85q3.55-.7 6.7-4.5 2.2-2.6 4.5-7.2-6.55 1.6-15.85 1.9-9 .3-12.3-.8-4.85-1.6-16.7-9.95-12.45-8.8-22.3-17.85-3.85-3.55-5.45-8.05-1.35-3.7-.85-7.15v-.05z"/><path fill="#0d131a" d="M317.45 121.85q.65-1.3 1.2-1.3t.85 1.3q.55 2.15.5 5.1-.1 2.9-.7 5.25-.65 2.75-1.8 3.6-1.25.9-3 1.45l1.4-1.05q2.6-2.8 2.6-10l-.25-2.75-4.75 6.1-2.85 3.4q-.45 1.05-.3 2.1t.85 1.6q1.15.95 2.35.9-2.4.5-3.6-.4-.8-.65-.85-2.3-.05-1.8.9-3.05 6.6-8.2 7.45-9.95M85.55 226.6q-.95-1.2-1.85-1.65l.25-1.7 2.15-.3zm-10.5 13.45q-5.5 1.45-13.6 2.2.95-1.2 1.15-2.15 6.2-.65 11.45-1.9zm-45.25-42.1.15-.2q7.15-8.85 29.15-5.6 8.25 1.25 16.25 3.9 7.3 2.4 10.3 4.6.8.6 1.15 2.5l-1.8-1.2q-2.75-2-9.85-4.25-7.75-2.5-15.8-3.7-21.4-3.15-28.05 4.75-.75 3.8-.5 4.85l-1.4.6.2-4.15zm15.85 42q.05 1.1.45 2.15-6.9-1-9.9-3.75 1.35-.35 2.15-.95 2.6 1.8 7.3 2.55m73.1 2.55q-4.3-.85-9.55-2.95l1.05-1.8q3.9 1.4 9.35 2.65l-.4 1.1q-.45.7-.45 1m-17.8-18.1.55 2.95-1.65 1.9q-.75-3.1-1.15-5.65.4.4 1.05.55zm-1.4-24.85q-.3.8-.35 2.15l-1.05.45-1.05.4q.15-3 .6-4.1l.1-.15.15-.15q7.15-6.5 29.5-5.7 23.05.85 37.3 9.15l.9 1.25v.55q-.1.2-.05.5h-2.1l-.15-.7q-13.5-7.6-35.55-8.6-21.45-.95-28.25 4.95m37 44.9v-2.05q9.4.25 16.1-1.8l2.2 1.45q-7.5 2.65-18.3 2.4"/><path fill="#0d131a" d="M38.15 233.4q0-2.4-.4-4.55-.4-2.3-1.1-3.3l-.4-.4q-2.95-.15-6.85 6.75-3.8 6.65-2.95 7.4.65.5 4.6-.05 4.2-.6 6.6-1.8.5-1.75.5-4.05m-2.5-9.3 1.15.3 1.45.85q1.3 1.9 1.5 6.35.2 4.2-.7 6.65l-.1.3-.25.1q-4.7 2.65-12.75 2.65l-1.7-.3q-.3-.25-.2-1.35.35-2.95 3.25-8.35 3.9-7.35 8.35-7.2m23.75 8.85q-1.85-5.4-3.65-6.8-.55-.45-1-.15-1.95 1.5-4.9 6.4-3.1 5.2-3.1 7.45l.2.8 2.85 3.95 2.3 2.45q.55.15 4.5-2.5T61 241l.1-.65q0-2.45-1.7-7.4m-6.2-7.2q.7-.6 1.75-.65 1.1-.1 1.85.5 2.4 1.95 4.45 8.3 2 6.15 1.15 7.8-.65 1.35-4 3.65l-4.6 3q-1.25.85-1.9.7l-1.6-1.2q-1.55-1.4-4.65-6.35-1.4-2.2 2.95-9.2zm29.7-.75q-.25-.15-.4 0-1.4.95-4.15 6.35t-2.75 7.1l.05.25q.95.8 4.8 2.45 3.5 1.5 6.75 2.65l.1-1.35q0-4.45-1.4-10.3-1.45-6.1-3-7.15m-1.3-1.25 2.15-.05q2.3 1.5 4 8.6 1.6 6.6 1.4 11.6-.1 1.7-.4 1.9l-1.1-.2q-1-.15-6.3-2.4-5.6-2.35-6.75-3.3-.55-.5-.5-1.55.1-2.45 3.05-8.05 2.85-5.45 4.45-6.55m16.45 9.1q-2.55 4.95-3.1 9l8.3-1.25q5.4-1.2 6.05-2l.05-.35q0-1.9-1.6-5.95-1.85-4.5-3.75-5.8-.85-.55-1.5 0-2.1 1.8-4.45 6.35M93 241.5q.8-5.35 3.6-10.1 2.15-3.7 4.9-6.1 1.8-1.5 3.9.3 2.3 2.05 4.2 7.35 1.9 5.2 1 6.5-.85 1.35-7.65 2.7l-8.35 1.35q-1.5.25-1.75-.25-.1-.2.15-1.75m37.2-13.55q-1.8-.8-3.25.25-1.85 1.45-4.65 6.7-2.7 5.15-3.05 7.6l-.05.4q0 1.75 1.9 5.8 1.85 3.9 2.5 4 .65.15 6.1-4.05 5.5-4.3 5.5-5.25 0-3.4-1.15-8.15-1.55-6.1-3.85-7.3m-4.4-.6h2.7l3.4.35q3.05 1.5 4.35 7.95.75 3.75.75 7.75 0 1.9-5.2 6-1.6 1.3-6.7 4.8-1.4.95-2.3.55-.6-.3-1.7-1.8-1.25-1.7-2.35-4.65-1.4-3.7-1.05-6.05.45-2.8 3.15-7.95 2.8-5.3 4.95-6.95m35.1-2q-1.5.45-4.15 7.3-2.4 6.3-2.55 8.35.95.7 8.1 2.95 7.05 2.2 8.8 2.45.7.05.5-2.35l-.75-4.4q-1.9-8.1-6.6-12.7-2.05-2-3.35-1.6m-1.6-.35 2-.55q2.3-.3 3.7 1.05 4.1 3.95 6.05 7.85 2.45 4.9 3.05 12.05.2 2.25-.55 2.7-.6.4-3.05 0-3.3-.5-9.9-2.7-7.55-2.55-7.9-3.9-.4-1.55 1.9-8.4 2.45-7.4 4.7-8.1"/><path fill="#0d131a" d="M90.2 203.3q1.25.95 1.55 5.25.25 3.75-.3 7.5-1 6.85-3.8 7.85-4.2 1.6-25.7 2.15-23.4.65-30.95-2.05-1-.4-1.75-2-.65-1.3-1.25-4.65l.75.55q.4.45 1.1.65.75 3.6 1.8 3.95 7.25 2.4 30.2 2.05 22.3-.3 25.2-2.3 1.4-1 2.2-6.7.85-6.1-.15-10.8-3.25-2.45-20.3-3.85-19.3-1.55-31.3 1.7l-3.2.45-3.25.4q8.45-5.8 32.6-4.65 9.2.45 17.15 1.85 7.6 1.3 9.4 2.65m16.2-1q-1.3-.5-2.4-1.3 13.85-3.45 37.6-1.45 22.05 1.8 27.4 5.35 1.45.95 1.9 4 .3 2.05.1 4.45-.2 3.75-1.25 6.7-1.15 3.4-2.95 4.3-6.75 3.35-29.25 4.3-25.9 1-41.55-4.3-1.3-.45-1.9-2.35-.25-.85-.6-3.6-.4-2.85-.05-7.25.35-4.85 1.4-6.05l-.2 2.9q-.2 1.9.1 2.8l-.2 3.55.2 3.55q.65 4.35 1.95 4.8 13.8 4.6 39.75 3.8 23.35-.7 29.55-3.75 1.15-.6 2.1-3.35.9-2.75 1.1-6.15.2-2.7-.2-4.65-.4-1.8-1-2.2-4.95-3.2-25.6-5-22.3-1.9-36 .9"/><path fill="#0d131a" d="M101.45 189.4q3.15-1.45 9.5-2.35l15.8-.5q22.35 1.35 39.9 12.7 2.4 2.75-.9.85-18.5-11-39.9-12.15-15.95-.85-24.05 2.95-2.65 1.25-3.7 2.15-.75.6-1.3 1.7-1 1.95-1.1-.1-.05-1.05 1.55-2.55 1.65-1.5 4.2-2.7m2.1-34.85q.8 0 7.15 2.1 6.9 2.25 9.55 2.7 3.5.55 3 1.35-.55.85-3.2.3l-8.9-2.7q-6.75-2.2-7.45-2.25-1.15-.05-3.7 1.35-2.6 1.4-2.8 2.25-.3 1.55-.4 4.8-.05 3.95.65 4.7.95.95 2.3 3.4 1.5 2.7 2 4.8.5 2.05-.5 1.8-.95-.25-1.15-1.5-.15-1.05-1.95-4-1.8-2.9-2.95-4-.9-.9-.5-5.1l.5-4.5q-.3-1.4 3.35-3.55 3.4-1.95 5-1.95"/><path fill="#0d131a" d="M103.35 157.15q-.2-.45.4-.4t.85.4.5 3.4q.3 3.25.05 4.7 1.55.9 4.15 2.75l3.95 3q1.15.95 1.15 1.4l-.75-.05-9.1-5.75-2.9 1.45-2.65 1q-.9.2-1.15-.35t.6-.85l2.6-1.2 2.4-1.4zm64.05 47.8-1.3-2q10.7 5.7 26.4 4.25l-.8.95q-8.6.75-13.35.25-5.75-.65-10.95-3.45M34.25 182.7q1.55 1.05 1.45 1.5-.15.4-2.2-.65-2.4-1.35-3.2-1.75-1.25-.65-1.7-.45l-1.05.65-1.1.75-1.1.1q-.4-.3.5-.8l2.2-1.85q.2-.25.25-3.05l-.05-3.6q0-.8.5-.85.45-.05.65.55l.1 3.5q0 3.1.15 3.3l1.75 1q1.9.95 2.85 1.65m-.85 20.1 4-.7q1.25-.5 1.3 0 0 .5-.65.9l-3.9.9-4.25.7q-.75.05-2.25 1.35-1.4 1.25-1.6 1.85-.2.65-.05 4 .15 3.5.55 3.75l1.9.95q1.7.85 2.95 1.9 1.3 1.05.45 1.05l-1.7-.55q-4.6-2.15-5.1-2.9-.35-.45-.4-4.4-.1-3.65.05-4.55.1-.7 1.8-2.2 1.85-1.55 3.05-1.75z"/><path fill="#0d131a" d="m29.3 209.6-.15-3.55q.1-1.25.7-.8.55.4.55 1.55l.4 5.45 5.1 2.4q1 .6.7.9l-1.15.05-4.9-2-2.4 1.7-1.1.05q-.45-.25.15-.55l1.25-.95q.7-.7.85-1.3zm72.5-9.75 3.55.85 6.8 1.45q1.25.15 1 .7-.2.5-1 .6l-4.65-.7-4.95-1.2q-4.95 1.7-5.9 2.5-.25.25-.4 3.85v4.45l2.85 4.4q.25.55 0 1.05-.25.45-.4.2l-2.05-2.75-1.8-2.6q-.5-1.3-.45-4.9 0-4.05 1.15-5 .85-.7 3.2-1.75 2.25-1.05 3.05-1.15"/><path fill="#0d131a" d="m101.55 209.5.35-2.9.15-3.65q0-1.15.4-.95t.6 1.6l.05 2.8-.35 3.05 5.1 4.15q1.7 1.45 1.05 1.7-.6.2-2.1-.9l-4.75-3.45q-1.45.9-3.7 1.35l-1.5-.15q-.55-.35.35-.6l2.5-1.05z"/><path fill="#fff" d="m261.7 76.9-.3 1.2q-.35.5-.8.5t-.75-.5q-.35-.5-.35-1.2t.35-1.2q.3-.5.75-.5t.8.5z"/><path fill="#0d131a" d="M342.8 62.2q1.35.95 1.35 3.5.8-2 .8-3.7 0-3.4-2.55-7.75-2.15-3.7-7.35-9.95-10.6-12.75-29.6-22.4-18.4-9.3-40.75-13.85-22.75-4.65-44.6-3.25-23.2 1.45-41.1 9.5-3.35 1.55-4.25 5.3t.9 8.9q2.1 5.95 5.55 19.65 3.85 15.3 3.35 17.7l-2.45 7.05q-11.95 32.75-9.5 35.05 3 2.8 6.9 4.05 4.35 1.4 7.45 0 1.85-.75 17-9.25 20.4-11.45 23.3-12.55l1.25-.1q.55.1 1.5.8 2.15 1.6 6.75 2.8 5.55 1.5 11.25 1.15 7.25-.45 13.3-3.85 8-4.5 13.3-13.7l.2-.35.3-.15q15.7-7.3 34.6-12.6 25.7-7.15 33.1-2m5.35-4.05q.9 9-11.8 25.9-13.95 18.6-32.85 29.35l-1.9-1.5q17.95-9.7 31.2-27.55 5.25-7.1 7.45-12.65 2.2-5.5.4-6.75-6.15-4.3-28.85 1.45-19.2 4.85-35.4 12.4-5.65 9.65-14.35 14.5-6.75 3.75-14.35 4.2-6.4.4-12.4-1.5-4.75-1.55-7.15-3.65-2.7.95-23.05 12.4l-17.75 10.05q-3.8 1.65-8.75.2-4.5-1.35-8-4.6-2.1-1.95.55-12.05 2.2-8.25 8.8-26.25l2.35-6.7q.35-1.9-3.55-16.9-3.8-14.65-6.1-20.8-5-13.1 3.8-16.95Q197.8 1.4 222.85.2q22.85-1.1 46.3 4.6 21.95 5.35 40.6 15.6Q328 30.45 339 42.9q4.45 5.05 6.3 7.95 2.45 3.85 2.85 7.3"/></svg>