<svg xmlns="http://www.w3.org/2000/svg" width="183" height="198" viewBox="-0.6 0.1 183.1 197.6"><path fill="#39b382" d="m42.9 118.75-2.85-1.9-.4-7 .1-2.85q.15-1.6.35-1.7.5-.3 2.4 3.3l3.15 6.7z"/><path fill="#2f9c73" d="m43.45 118.05-.55.7-2.85-1.9-.4-6.25q1.55 4.5 3.8 7.45"/><path fill="#0d131a" d="m42.8 107.55 3.85 6.7-.65.65-.85.25q-2.65-5.6-4.1-8l-.65-.95q-.15 0-.15 1.05 0 5.9.3 9.4l-.7.15q-.7-.1-.7-.35-.25-3.35-.25-8.15 0-3.4.9-3.8 1-.45 3 3.05m81.35 7.5q1.7-1.45 7-1.5 5.95-.05 10.55 2.1 3.65 1.65 5.85 4.6 2.85 3.8 2.85 9.45 0 2-4.25 11.2-4.45 9.55-6.3 10.4l-4.65.4q-3.65-.25-6.45-1.5-3.9-1.8-5.05-5.85-1.75-6.05-1.75-16.45-.05-10.95 2.2-12.85"/><path fill="#922f00" d="M144.8 140.1q-4.45 8.8-5.9 9.45-1.35.55-3.9.6-3.2 0-5.7-1.15-3.35-1.5-4.35-5.05-1.7-5.8-1.65-16.15 0-10.35 1.7-11.8 1.25-1.05 6.1-1.15 5.65-.1 10.1 1.95 7.95 3.7 7.95 12.9 0 1.75-4.35 10.4"/><path fill="#6a1a00" d="M131.1 114.85q5.65-.1 10.1 1.95 7.95 3.7 7.95 12.9 0 1.45-3.65 8.95-1.4-2.55-5.6-4.05-4.45-1.55-11-1.55-.75 0-2.85-2.3-2-2.25-2.75-2.05-.05-4.85.4-8.3.45-3.7 1.3-4.4 1.25-1.05 6.1-1.15"/><path fill="#0d131a" d="M124.3 115.2q1.25-1.05 3.9-1.45 3.55-.5 7.9.7l.2.05.95.55q4.7 9.65 2.6 21.35-1.95 10.45-7.05 14.45l-.15.1h-.15q-6.9-.75-8.6-6.7-1.8-6.15-1.75-16.6.1-10.7 2.15-12.45"/><path fill="#ed8599" d="M136.85 142.2q-1.7 5.6-4.45 7.85-6.1-.65-7.65-6-1.7-5.85-1.7-15.95 0-4.7.45-8 .5-3.55 1.35-4.25 1.15-1 3.8-1.3 3.2-.35 7 .65 2.9 6.3 2.9 14.9 0 6.55-1.7 12.1"/><path fill="#ce7486" d="M137.9 137.85q-3.3-5.15-6.5-8.15-3.9-3.7-8.3-4.9.35-7.75 1.75-8.95 1.15-1 3.8-1.3 3.2-.35 7 .65 2.9 6.3 2.9 14.9 0 4.2-.65 7.75"/><path fill="#0d131a" d="m149.35 143.15-1.95.05q-.4-.45.1-1.9l2.25-6.25q.15-.35 1-.3l1 .15q1.85-.15 5.8 4.75l.75.7z"/><path fill="#fff" d="M151.35 135.75q.7-.05 2.2 1.3l2.45 2.65-7.5 2.65q-.4.15 1-3.1L151 136q.15-.25.35-.25"/><path fill="#dbdcdc" d="M151.35 135.75q.7-.05 2.2 1.3l2.45 2.65-3.45 1.25q-1-1.1-3.35-1L151 136q.15-.25.35-.25"/><path fill="#0d131a" d="m162.25 137.5-.1-.2.55-.45.55-.1q1.2-.1 3.4 2l2.4 2.75.85.85-9.6 3.05q-2.45.7-1.5-1.6.7-1.55 2.15-4.1z"/><path fill="#dbdcdc" d="M163.35 137.6q.7-.05 2.2 1.3l2.45 2.65q-7.9 3-8.35 2.9-.3-.05 1.5-3.3l1.85-3.3q.15-.25.35-.25"/><path fill="#0d131a" d="M133.9 140.9q1.55-.15 1.95.3.35.5-.45 1.7l-1.9 3.05-1.5 2.15q-.75.75-1.35.7-4.85-2.45-5.1-4.55-.05-.5.15-.8l.75-.7.15-1.1z"/><path fill="#fff" d="M134.35 141.95q.7-.05-3.7 5.9-4.05-2.05-4.25-3.65v-.1q0-.55.65-1z"/><path fill="#dbdcdc" d="M131.25 142.4q-2.2 2.55-1.95 4.7-2.8-1.7-2.9-2.9v-.1q0-.55.65-1z"/><path fill="#0d131a" d="M136.5 145.55q.4-1.75 1.45-1.7l7.9.15q.55.1.7.5.2.5-.25.95l-3.4 2.7q-3 2.2-4 2.55-.45.2-.95-.15t-.85-1q-1.05-2.1-.6-4"/><path fill="#fff" d="m142.35 147.2-3.85 2.5q-.35.15-.6-.55-.45-.75-.45-2.05 0-1.6.8-2.25l6.65.1q.55.05-2.55 2.25"/><path fill="#dbdcdc" d="M137.45 147.1q0-1.6.8-2.25l3 .05q-1.9 2.75-1.95 4.35l-.8.45q-.35.15-.6-.55-.45-.75-.45-2.05"/><path fill="#0d131a" d="M86.85 146.8q3.2-6.25 15.7-11.85 6.3-2.85 12.55-4.6l.6-.2.1.65q1.45 7-2.3 16.4-1.9 4.75-4.3 8.7-.85 2.7.2 10.85 1.05 8.25 2.7 11.25.3.55.55.45l4.65.2q3 .25 4.4 1 1.85 1 1.9 3.15.15 5.2-.95 7.15-.95 1.7-3.7 1.85-.4.75-2.15 1l-2.75-.35q-1.9 1.9-8.35-.6l-2.8-.75q-6.35-1.75-8.3-3-3-1.95-3-5.85 0-6.5-.9-12.1-1.2-7.85-4.35-16.35-1.25-3.5.5-7"/><path fill="#39b382" d="M87.9 147.3q2.8-5.45 13.65-10.6 6.3-3 13.15-5.05l.2 2.5q0 6.75-6.15 18.75-1.6 3-1.6 6.55 0 5.3 1.05 10.6 1.1 5.75 2.9 8.5-1.6.05-2 .85l2.7.25 3.75-.05q6.35.55 6.4 3.2l.05 2.75q0 2.55-.5 3.5-.5 1-2.2 1.45.85-1.45.6-4.05-.15-2.05-.75-3.3-.45-1-.65-.9-.25.05 0 1.05 1.15 5.35-.15 7.3-1.1 1.7-3.9.7.85-1.9.5-4.3-.25-1.8-.95-3.05l-.45-.4v.7q1 5.3-.15 6.6-1.45 1.6-7.4-.1l-2.8-.8q-6.1-1.65-7.85-2.75-2.6-1.6-2.6-4.95 0-6.6-.9-12.3-1.2-7.9-4.4-16.55-.45-1.25-.45-2.5 0-1.8.9-3.6"/><path fill="#2f9c73" d="M93.1 184.45q3.95 3.1 7.9 4.5 4.2 1.45 9.65 1.45 2.25 0 3.25-.55-.4 1.5-2.2 1.75-1.85.2-5.7-.85l-2.8-.8q-5.1-1.4-6.8-2.2-2.6-1.25-3.3-3.3m21.75 5.75 3.8-.2q-.9 2.55-4.2 1.3zm4.45.3.55-1.4 1.8-.3q-.55 1.2-2.35 1.7m-31.4-43.2q2.8-5.45 13.65-10.6 6.3-3 13.15-5.05l.2 2.5q0 6.75-6.15 18.75-.85 1.55-1.3 3.7-3.75.8-8.3 6.35-3.55 4.4-6.8 10.65-1.05-9.6-4.9-20.2-.45-1.25-.45-2.5 0-1.8.9-3.6"/><path fill="#0d131a" d="M8.05 97.45q-.55-2.75 0-3.2.7-.5 3.75 1.3 7.5 4.4 21.95 14.85l14.6 10.95q3 2.5.95 8-2.05 5.75-12 12-9.05 5.65-13.4 5.7l-2.05-.2q-1.15-.25-1.25-.55-.85-2.3-5.8-21.4-5.25-20.15-6.75-27.45"/><path fill="#39b382" d="M48.2 129q-1.85 5.35-11.5 11.35-8.8 5.5-12.8 5.5l-.7-.15q-.95-2.6-9.5-33.75l-2.05-7.5q-1.8-6.45-1-7.1.45-.3 3.25 1.75l7.1 5.15Q44.1 121 46.45 122.9q3.05 2.55 1.75 6.1"/><path fill="#2f9c73" d="M29.6 144.15q-3.95 1.7-5.7 1.7l-.7-.15q-.95-2.6-9.5-33.75l-2.05-7.5q-1.1-4.05-1.2-5.85 8.15 17.6 19.15 45.55"/><path fill="#0d131a" d="M10.1 96.6q1.15-.75 4.35 1.75l22.05 16 .45.9-6-.65 3.7 6.95q1.45 2.2.9 2.85-.55.6-2.85-.65-1.6-.85-3.95-1.8l-2.45-1.05.1 3.9.4 6.9q.3 3.15-.55 3.25-.8.1-2.6-2.3l-3.7-4.9-.45 2.8-.3 2.9-.95-1.4-7.5-27.35q-1.15-4.15-1.25-6.05-.05-1.6.6-2.05"/><path fill="#fff095" d="m33.8 113.25-5.35-.65q-.85-.1-.4.6l5.6 9.4q.4.5-.1.25l-8.6-4.85q-.65-.3-.55.3l1.05 14.45-.05.35-.3-.3-5.9-9.2q-.25-.45-.35.2l-.5 5.95-4.55-17.25Q9.95 97.6 9.95 96.85q0-.85 11.2 7.2z"/><path fill="#dccf81" d="m25 132.7-5.8-9.1q-.25-.45-.35.2l-.5 5.95q-6.85-25.6-8.2-31.75Q16.1 110.7 25 132.7"/><path fill="#39b382" d="M76.4 99.2q14.75-5.15 26.45-5.15 12.15 0 16.45 13.85 1.8 5.8 1.3 12.05-.6 6.35-3.4 10.9l-11.55 19.6-1.4-8.75q-11.8 12.5-24.3 23.15-2.8 2.45-3.55 9.85-.7 7-3.05 8.35-4.8 2.75-12.5.4-7.35-2.25-14.65-8.2-7.5-6.1-11.95-13.65-4.9-8.35-4.55-16.05.7-2.5 1.95-5.95 2.45-6.85 5-11.45 6-10.65 19.25-19.35 8.2-5.35 20.5-9.6"/><path fill="#2f9c73" d="M79.95 164.85q-2.75 2.4-5 9.8-2.05 6.95-4.45 8.35-5.4 3.1-5.3-1.45.15-4 4.3-12.35 4.05-8.1 9.45-15.5 5.85-8.05 10.2-10.85l11.6-5.95q7.1-3.75 12.45-10.25 1.6-2 3.6-.2 2.05 1.85.4 4.4l-11.55 19.6-1.4-8.75q-11.8 12.5-24.3 23.15"/><path fill="#0d131a" d="M102.7 92.65q4.7.2 8.65 2.95 3.9 2.65 6.45 7.25 3.5 6.35 3.5 14.45-.05 8.1-3.6 13.85-1.75 2.75-11.55 19.6l-1 1.55-.3-1.6-1-7.75q-3.75 5.3-16.15 16.35-13.8 12.35-23.45 17.95-3.55 2.05-7.8 1.75-4.25-.35-8.6-3-7-4.25-11.6-12.5-5.3-9.35-4.8-19.85l1.15.05q-.5 10.15 4.65 19.25 4.45 8 11.2 12.05 4.05 2.5 8 2.8 3.95.35 7.25-1.55 9.6-5.55 25.2-20.3l14.95-14.65 1.85-1.4q.4-.15-.75 1.75l1 7.1q9.3-15.9 10.75-18.2 3.4-5.45 3.4-13.35 0-7.8-3.3-13.8-2-3.65-5-5.85-3.85-2.9-8.95-2.9-11.5 0-26.1 5.05-12.4 4.25-20.5 9.55-6.15 4.05-11.2 9.15-4.95 5-7.9 10.05-1.35 2.35-2 2.75-.7.45 1-3.35 2.4-5.2 7.6-11.15 5.6-6.45 11.65-10.4 10.7-7 23.4-10.65 12.4-3.5 23.9-3"/><path fill="#39b382" d="M67.8 160.25q7.6-9.45 15.5-17.65 15.75-16.45 17.1-10.35T98 149.8q-2 5.95-5.1 13.35-1.1 3.15 0 10 1.05 6.9 2.7 7.4l6.95.25q4.95.4 5.15 3.85.35 4.95-.4 6.55-1.25 2.6-6 2.85l-8.35.35q-3.75-.2-8.25-1.9L76 189q-2.4-1.55-2.4-5.55 0-4.5-1.15-9.2-1.2-4.85-4.65-14"/><path fill="#2f9c73" d="M76.25 189.15q-2.5-1.5-2.65-4.95 7.75 5.5 16 7.3 6.45 1.4 7.5.15l-.25.45 2.65.3q2.8 0 3.55-1.45l-.2.75 1.9-.35q2.1-.55 2.95-1.6-.35 2-1.7 3-1.5 1.1-4.7 1.3l-8.35.35q-3.75-.2-8.25-1.9-8.05-3.1-8.45-3.35"/><path fill="#0d131a" d="M80.9 191.7q-4.75-1.7-6.05-2.85-1.85-1.65-1.85-5.4 0-3.7-1.5-9.05l-4.2-13.95 1.05-.4q3.45 9.2 4.65 14.05 1.2 4.8 1.2 9.35 0 3.25 1.45 4.55 1.1.95 5.65 2.6l3.6 1.35q8 2.9 10.25 1.5 1.95-1.2.85-7-.2-1.3 0-1.3.25-.05.7 1.2 1 2.85 1.05 4.45 0 1.55-.9 2.9 3.95.9 5.05-.9 1.1-1.7.2-7.15-.15-1.05 0-1.2.2-.2.7 1.1.75 1.7.85 3.95t-.55 3.65q3.2-.05 4.15-2.4.8-2.05-.1-6.05-.65-2.95-4.85-3.5l-6.85-.1-2.85-.4q-.2-.35 1.7-.45-1.6-3.1-2.35-7.95-.9-5.75.4-9.35l1.3-3.4q6.25-15.05 6.15-27.25 0-2 .3-1.95.3 0 .65 1.85.75 3.55-.55 10.25-1.5 7.95-5.45 17.55l-.9 2.7q-.85 2.6-.4 8.3.4 5.75 1.65 8.1l.65.9q7.15-.55 10.15 1.2 2.7 1.55 2.9 5.6.2 4.25-1.3 5.9-1.4 1.5-5.2 1.7-.95.75-3 .75-2 0-2.9-.65-2.3 1-5.05.6-2.4-.35-6.85-2.05zm17.7-97.8h.25l.1.25.9 1.25 1.7 2.8q-22.4 3.2-39.65 13-7.65 4.3-18.9 13.75-3.85 3.2-5.15 2.85-1-.3-.2-1.7Q46 115.3 48.2 113q2.55-2.75 8.3-6.5 16.3-10.7 42.1-12.6"/><path fill="#fff095" d="M99.8 96.6q-22.45 3.3-39.1 13.1-8.5 5-18.1 14.1-1.5 1.5-2.85 2.15-1.25.65-1.35.15 2.95-4.5 8.8-10.15 5.5-5.4 9.75-8.1 10.35-6.65 21.4-10 10.1-3.1 20.05-3.2z"/><path fill="#39b382" d="m43.6 142.5 2.05-6.65q14.95-6.75 24.3.95 7.3 5.95 8.45 16.8.7 7-5.1 15.8-3.1 4.7-8.05 10.3 5.55-1.25 11.15-1.15 6 .05 7.1 1.65 1.55 2.25 2.8 7.05 1.4 5.55-.4 6.6-2.1 1.2-8.35 1.75-6.4.6-13 .15-5.9-.45-16-3.4-7.95-2.3-12.8-4.3-3-1.2-3.45-3.2l-.3-6.2q-.1-1.3-2.2-7.95-2-6.25-1.9-10.45l-11.3-11.9-12.55-13q-2.6-2.45-2.15-3.2.4-.65 2.65-.2L24 137.1z"/><path fill="#2f9c73" d="M38.35 189.05q-4.45-1.6-5.35-3.35-.65-1.25-1-7.05-.1-1.3-2.2-7.95-2-6.25-1.9-10.45L5 137.1l22.45 16.25 16.75 12.3q.7.6-.1 3.65l-2.15 6.65q-1.45 4.55 1.3 8.3 3 4.05 10 5.55l15.1 2.75q5.3.6 5.55-.5l-.1 1.3 3.45.45q3.65.15 4.75-1.65l-.1.6 2.05.05q2.15-.15 2.9-1.05-.1 1.6-.95 2.1-2.1 1.2-8.35 1.75-6.4.6-13 .15-5.1-.35-13.6-2.7-6.55-1.8-12.6-4"/><path fill="#0d131a" d="M45.4 135.35q1.85-1.3 5.35-2.2 3.9-1.05 8.3-1.05 9.45 0 15 6.15 5.6 6.25 5.6 16.95 0 6.5-3.75 13.3-3.6 6.55-8.7 10.05l10.4-.85q5.5.15 6.65 1.85 1.25 1.75 2.6 6 1.45 4.75.95 7.05-.25 1.1-1.35 1.9-1.75 1.2-5.1 1.15-1.95 1.1-4.15 1.25l-4.2-.55q-2.65 1.35-10 .45-2.85-.3-13.4-3.05-10.85-2.8-14.3-4.15-2.9-1.2-3.85-2.85-.85-1.55-.65-4.55.3-4.5-1.6-9.95-1.2-3.5-2.15-8.1l-.7-3.95L2.7 136.1q-3.3-3.4-2.6-4.6l5.3-.2q8.05 1.8 22 5.6 12.75 3.5 16.4 4.75 1.55.55 1.45 1l-1.75.05-38.4-9.8-2.5-.1q-.3.45 1.5 2.15l11.6 11.45q9.65 9.65 12.75 12.5 3.7 3.4 3.5 3.8-.15.35-3-1.45-.2 1.05.5 4.8.7 3.6 1.55 6.4 1.45 4.8 1.65 9.35.1 2.35.45 3.2.65 1.65 2.85 2.5 4.45 1.8 12.65 4.25 9.9 2.9 15.1 3.5 7.15.8 8.75-.85 1.5-1.6-.05-7.85-.25-1.05-.05-1.05t.7.9q1.4 2.6 1.6 5.05.2 2.35-.75 3.9 11.1 1.9 5.9-10.45-.45-1.15-.2-1.1l.8.95q3.15 4.75 1.8 9.45 1.75 0 2.85-.95.75-.6.9-1.25.5-2-.75-6.15-1.1-3.75-2.2-5.3-.85-1.25-7-1.35l-11 .8-6.1 1.05q-2.1.3-1.25-.2.8-.45 4.35-1.4l3.4-.9q6.8-6.4 9.6-12.35 2.45-5.15 2.4-11.15-.05-9.05-5.25-15.2-5.25-6.2-13.1-6.25-6-.05-13.15 2.8l-2.7.85q-.35-.1 2.2-1.9"/><path fill="#39b382" d="M164.2 142.85q-1.6 0-6.35-1.8-4.8-1.85-6.1-3-2-1.85-5.4-9l-4-8.45q-1.05-1.6-7.95-2.05l-7.7.3q-1.2.6-.75 12.6.45 12.25 2.5 13.9 5 4 10.25 5.6l-5.5 1-3-.1-4.95-1.7q-3.85-1.6-5.4-3.75-1.05-1.45-2.6-6.75t-2.9-7.15l-13.9-33Q90.2 85.4 67.25 43.6 43.6.5 47.3.9q6.15.75 17.55 3.65 14.45 3.7 28.4 8.85 39.4 14.6 57.8 34.4 18.8 20.25 26.2 40.8 4.4 12.4 3.65 18.65-.2 1.5-4.45 3.25l-6.8 2.5q-.25 1.75 1.8 12.4 2 10.35 1.25 13.6-.3 1.2-3.6 2.55-3.1 1.3-4.9 1.3"/><path fill="#2f9c73" d="M164.65 139.4q6.45-.4 8.25-1.55l-.2 1.15q-.3 1.2-3.6 2.55-3.1 1.3-4.9 1.3-1.6 0-6.35-1.8-4.8-1.85-6.1-3-2.35-2.15-7.2-12.9 7.5 8.95 9.55 10.6 1.4 1.1 4.8 2.4 3.75 1.4 5.75 1.25M105.7 53.1q6.3 4.4 8.85 7.55 2.5 3.15 2.7 6.75.2 4.8-4.4 21.5-1.4 7.7-9.8 7.05-2.6-.2-5.6-1.2l-2.5-.95q-9.8-13.5-30.1-52.9Q44.1.7 47.9 1.35l19.2 19Q89.4 41.7 105.7 53.1"/><path fill="#0d131a" d="M171 113.6q-.5.15-.5.6l2.2 11.8q1.95 10.8 1.25 14.45-.3 1.5-4.4 2.45l-5.75.75q-1.75 0-6.7-1.8-5.05-1.9-6.45-3.15-1.5-1.4-5.2-9.45l-3.7-8.3q-.8-1.2-7.05-1.65-5.9-.45-7.55.1-1 2.2-.55 12.95.5 11.05 2.25 12.45 2.35 1.9 5.9 3.8 3.3 1.75 4.15 1.7t1.25.4q.35.5-.8.75l-6.85 1.4-3.1-.2q-3.65-1.1-6.55-2.9-2.5-1.55-3.55-2.95-1.15-1.65-2.6-6.6-1.3-4.35-2.85-7.75-.95-1.9-.55-2.1.4-.25 1.6 1.75 1.7 2.85 3.1 7.7 1.5 5 2.4 6.2 1 1.35 3.6 2.75 2.85 1.55 6.4 2.45l1.95.15 3-.45.75-.15q-4.25-1.75-8.1-4.85-2.5-2.05-3.2-15-.65-12.75 1-13.6l8.4.25q7.4 1 8.7 2.7l4.05 8.2q3.95 7.9 5.25 9.1 1.2 1.1 5.9 2.85 4.6 1.75 6.1 1.75 1.65 0 4.6-1.2 3.05-1.25 3.25-2.1l.2-2.4q0-3.4-1.9-13.1-1.45-7.55-1.45-9.5l.1-1.35q11.25-3.95 11.2-5.35-.55-15.45-8.85-31.25-8.8-16.55-24.75-30.8-36.85-32.7-98.5-43v.05q0 4.9 19.1 41.75 19.2 36.9 28.35 49.5l-1.15.8Q85 83.65 66 46.75 49.3 14.25 45.55 3.3 44.5.15 44.6.1l4.65.5q23.45 2.95 46.4 11.9 23.45 9.15 42.1 22.95 19.7 14.65 31.1 32.45 12.3 19.2 13.55 40.15.1 2.35-11.4 5.55"/><path fill="#0d131a" d="M171.75 100.8h1.1q.2.15.2.95.05 2.8-1.1 10.65l-.05.45-1.85.55q0 1 1.65 9.7l1.75 10.75q.35 3.45-.1 5.3-.45 1.9-3.95 3.3-3.6 1.45-4.75-.05-1.15-1.45-1.05-4.6l.25-3.35q-.1-1.7-5.2-10.15-4.9-8.25-6.15-9.25-5.35-4.45-13.65-9.15-8.75-5-19.1-9.2l-.4-.15q0 6.5-1.3 11.85-.65 2.8-3.3 1.15-40.95-25.3-46.9-31.25-3.1-3.1-13.7-24.5-10.75-21.7-13-29.9-.7-2.5-.1-3l2.85.1q35.1 9.25 62.15 31.8 23.7 19.75 42.8 51.15l10.15-1.2z"/><path fill="#39b382" d="M168.9 113.85q0 1.95 1.45 9.5 1.9 9.7 1.9 13.1l-.2 2.4q-.3.8-2.65 1.8l-3.3-.15q-.75-.7-.35-6.05.15-2.2-5.5-11.3-5.25-8.45-6.9-9.6-10.75-9-33.1-18.1l-.6-.25-1.1.1q-.7.5-.7 2.6l-.5 5.6q-.4 3.65-1.2 5.05-6.85-4-22.6-14.55-19.05-12.7-23.3-17-4.9-4.9-16.05-28-10.85-22.5-10.85-26.5 38.7 11.25 66.2 36 19.9 17.95 37.8 47.55l.05.05.05.1 4.1.25 12.85-2.15 6.5-1.15.1 1.1-.25 4.25-.15 3.4-1.6.6z"/><path fill="#0d131a" d="m172.1 104.35-.45 8.35-1.6.6v.55q0 1.8 1.4 9.3 1.9 9.7 1.9 13.35l-.25 2.6q-.3 1.25-3.3 2.6l-.05.05h-.05q-3.4.45-4.35-.4-.9-.9-.9-3.45l.2-3.55v-.05q0-1.85-5.35-10.55-5.3-8.6-6.7-9.35-10.75-9-32.75-17.9l-.65-.25q-.2.2-.2 1.45l-1.05 5.4-1.05 4.6q0 1.05-.35 1.25l-.6.05Q76.5 84.8 69.45 77.8 64.1 72.45 52.5 48.35t-10.05-26.7q.35-.5.9-.35l1.3.4 1 .55q15.95 27.9 27.2 39.4Q78 66.9 85.35 72.4l16.1 11.45q-1.55-3.45-4.4-10.9-3.1-8.2-3.7-10.75-.5-2.15 1.5-1.55 9.65 2.9 35.85 19.1l1.45 1.3q3.9 5 8 11.3l8.1 13.05q1.1.65 15.9-2.2l7.35-1.1q.6.25.6 2.25"/><path fill="#fff095" d="m171.05 108.5-.2 3.15-1 .35-.2-.4q-.4-.95-.7-.85-.35.1-.35 1.35 0 1.3.7 4.95l1.3 6.25q1.9 9.7 1.9 13.15l-.2 2.45q-.25 1.2-2.85 2.05-2.55.8-3.05.35-1.35-1.25-.9-6.85.15-1.95-5.15-10.85-5.25-8.75-6.8-9.65-5.45-4.55-14.05-9.6-9.5-5.5-19.55-9.6-1.6-.65-2.1-.2-.45.4-.45 2.25l-.55 6.15q-.6 4.9-1.2 4.55-10.5-6.4-20.85-13-20.55-13.1-24.75-17.35-4.65-4.65-15.85-27.8-10.05-20.8-11.6-26.2-.25-.9.1-1l1.4.3Q59.95 51.3 71.45 63.5q9.7 10.25 31.55 23.55 1.5.95 1.8.4.2-.45-.65-2-.85-1.5-4.45-11.3-3.35-9.1-3.75-10.55 15.45 5.65 34.85 17.6l10.3 14.4q6.65 9.55 7.2 9.85 1.3.6 22.8-2.6l.15 1.4z"/><path fill="#dccf81" d="M166.4 141.3q-.45-.4-.8-1.95 4.9-.3 6.8-1.25l-.1.8q-.25 1.2-2.85 2.05-2.55.8-3.05.35M54.2 49.35q-10.05-20.8-11.6-26.2-.2-.75 0-.9 7.65 15.8 16.2 31 9.25 16.45 12.7 19.7 3.3 3.15 18.05 12.75 8.05 5.3 27.3 17.4-.55 4.75-1.2 4.4-10.5-6.4-20.85-13-20.55-13.1-24.75-17.35-4.65-4.65-15.85-27.8"/><path fill="#0d131a" d="M131 97.5q.1-2.6 1.4-6.2 1.3-3.65 2.85-5.65l13.95 19.7-.95 2.45q-.85 1.7-1.4 2l-.75-.15q-5.45-3.55-12.85-7.2-1.05-.5-1.7-1.9-.6-1.4-.55-3.05"/><path fill="#fff" d="M136.15 88.6q6.55 8.9 11.5 17.05l-1.45 3.05q-5.15-3.25-11.25-6.65-2.75-1.4-2.05-4.9.6-2.8 1.95-5.9z"/><path fill="#0d131a" d="M152.55 92.05q-.15-1 .05-1.05.25-.1.8 1 .95 1.85 1.05 4.3.1 2.55-.8 4.4l-.7.85q-.3 0-.1-1.15.6-3.2-.3-8.35m-16.3 5.65q1.95-1.85 4.2-.6t2.4 4q.1 2.9-2.45 4.8l-3.75-2.2-2.1-1.2q-.25-3 1.7-4.8"/><path fill="#fff" d="M139.15 98.5q.4.15.5.7l-.1 1.15-.6 1.05-.75.25q-.4-.1-.5-.65t.1-1.2.6-1q.4-.4.75-.3"/></svg>