<svg xmlns="http://www.w3.org/2000/svg" width="116" height="170" viewBox="-0.85 -0.95 116.45 169.55"><path fill="#e9545d" d="m55.85 134.8 7.75-3.2q7.85-3.2 8.4-3.1.65.15 3.2 5 2.55 4.8 2.5 5.55-.05.9-8.3 4.5 5.6 8.9 5.05 10.15-.45 1-4.6 3.1-4.2 2.15-5.45 1.9-1.05-.2-3.25-5l-2-4.7z"/><path fill="#c94850" d="m59.4 148.75 1.2-1.4q3.8 9.35 4.45 9.6l4.65-1.75q4.35-1.85 4.95-1.65Q71 157.2 64.1 159zm9.5-5q-1.45-1.2 8.35-5.75l.5 1.4z"/><path fill="#f4b0a9" d="m67.6 131.8-.7-1.25q1.95-1.2 3.95-1.7l1.55-.3q-.1 1.35-4.8 3.25"/><path fill="#e9545d" d="M26.7 48q1.25 12.1-1.8 17.2-1.45.8-2.95 1.55-3.35 1.9-5.45 3.75-4-2.2-7.9-7.1Q.7 53.6.95 40.15 1.2 25.5 15.15 11.3q5.5-5.55 10.95-8.65 5.35-3 7.75-2 4.25 1.8.25 15.7-3.75 13.05-9.3 20.6zm84.7-18.4q-4.1 13.5-12.8 24-6.25 7.45-15.4 13.85-10.1 7-17.15 7.8-5.6-6.3-7.55-6.6.2-4.85 2-11.55 3.65-13.45 11.9-22.65 14.45-16.1 26.2-20.75 8.4-3.35 12.55-.4 4.2 3.05.25 16.3"/><path fill="#fff3c2" d="M16.9 70.65q-5.5-2.2-6.55-7.8-1.05-5.65 3.5-8.7 1.95-1.35 4.7-.9 2.65.4 4.7 2.2Q28.35 59.9 24.6 66l-3 1.35q-3.3 1.65-4.7 3.3m41.55-1.45.65-6.8q2-3.1 5.8-4.15 4.55-1.35 8.3 2.1 2.7 2.5 1.95 6.75-.7 4.4-4.65 6.95l-5.05 1.35z"/><path fill="#c94850" d="M35.9 5.3q.15 7.95-5.25 20.25-2.75 6.25-5.8 11.4l1.9 10.35q.55 5.75-.6 14 0-1.6-1.15-3.75l-1.15-1.8q.5-3.75.5-9.4l-.05-9.4q-.2-2.35 4.85-13.85Q34.8 10 35.9 5.3m63.35 43.2q6.55-7.65 10.8-14.25-5.9 14.4-18.4 26.15-10.85 10.15-20.7 13.45 2.35-1.5 3.2-3.25l.35-1.5q11.6-5.3 24.75-20.6"/><path fill="#fff3c2" d="M40.25 62.75q15.75 1 24.7 11.1 8.35 9.4 7.5 22.75-.55 9.3-10.2 15.55-10.4 6.65-25.15 5.2-30.85-3.1-31.7-26.6-.4-10.7 9.7-19.55 10.75-9.4 25.15-8.45"/><path fill="#fff3c2" d="m50.65 116.9 2.35 9 3.05 12.6q.65 3.25.85 9.7.2 5.65-.05 7.9-.2 2-2.05 5-2.05 3.3-4.6 5.15-2.3 1.65-3.85.25-.6-.6-1.55-2.6l-.95-1.95q-.9-1.15-2.6-1.6t-5.3-2.85l-3.25-2.3-6.75.6-6.7.65q-1.65-.25-3.75-2.8-2.2-2.65-3.35-5.95-1.05-3.1-.7-5.5.3-1.95 1.15-2.25.55-.15 2.15 1l1.45 1.15q1.95.65 6.25-.9-1.8-7.35 1.45-17.15l3.6-8.35z"/><path fill="#dbd2a9" d="M75.2 67q.1 1.45-1.25 3.95-1.35 2.45-2.45 2.9l-5.9 1.3q-2.5-2.5-2.45-3.25 0-.6 1.95-.8 6.7-.75 10.1-4.1M22.05 54.05Q24.6 56.3 25.6 59q.55 1.35.55 2.25L24.8 65.5q-3.35 2-3.8 1.95-.35 0 .4-1.85 2.65-6.4.65-11.55m0 83.85 2.9 4.25q4.2 4.85 10.9 7.9 6.8 3.1 8.25 8.1l.95 4.45q.6 2.75 1.8 4.7-1.7-1.95-3.25-5.7-8.25-3.95-10.95-6.4l-10.9 1.05-3.4-.15q-2.45-1.1-5.4-6 2.8 3.55 8.35 1.9 2.25-.65 3.45-1.9 1.3-1.3.65-2.55l-1.6-3.4q-1.65-3.9-1.75-6.25m24.75 29q2.05-1.1 5.4-5 3.95-4.55 4.75-8l-.2 2.55q-.8 3.4-4 7.6-3.05 4.05-5.95 2.85"/><path fill="#e9545d" d="M15.7 96.9q.9 2.85.45 5.8-.45 3.2-2.25 4.3-1.65 1-4.1-2.45-1.95-2.7-2.75-5.25-3-9.8.55-10.75 2.3-.6 4.9 2.55 2.2 2.65 3.2 5.8m55-2.95q2.3 1.3 1.35 5.15-.75 2.9-2.85 6.15-2.2 3.35-4.45 5.3-3.05 2.65-4.8 1.1-1.85-1.65-1.65-5.2.2-3.1 1.8-6.4 1.4-2.9 4.65-5.05 3.6-2.35 5.95-1.05m-50.85 20.5-.95.8q-1.1 1.05-1.85 2.5-2.4 4.5-.35 10.7-3.25-.6-6.55-1.95-6.65-2.65-7.05-6.1-.3-2.4 5.55-4.2 5.15-1.6 11.2-1.75M53.6 137.6q.15-2.4 1.4-5 2.55-5.2 8.35-6.25l4.2 6q3.85 6.45 1.8 8.75t-9.1-.35z"/><path fill="#fff3c2" d="m11.65 95.2 1.65 4.4-3.5 1.2 2.6 4.05-1.75.35q-1.3-.8-2.55-2.8-2.5-3.95-2.35-9.75l1.5-1 1.3 4.85zm60.45 4.1q-.65 3.45-4.4 7.95l-3.6 3.8-2.15-1.15 3.55-4.3-3.4-2.1 2.5-4.15 3.1 2.55 2.5-4.8zm-15.95 39.55 4.7 2.25q.75 5.45-1.45 7.7-1.15 1.15-2.4 1.2.2-1.65-.3-6.55zm-31.65-24.3 3.15 1.05q-2.65 5.3-5.05 14.05l-5.65-1.1q-2.1-4.7 0-9.95l2.5-4.3zm20.55 15.05 4.1-12.8q3.95.9 9.7 5.3l4.9 4.2q-5.75.3-8.5 5.9-1.35 2.85-1.6 5.6-4.75-3.05-7.15-5.95z"/><path fill="#c94850" d="M15.9 124.15q-.1 1.9 1 4.5-11.8-2.4-13.95-7.8 5.9 2.3 12.95 3.3"/><path fill="#dbd2a9" d="m24.15 124.5-1.45 5.05-5.8-.9q-1.1-2.6-1-4.5zm24.2 3.55 6.2 5.3q-.9 2.4-.95 4.25-4.25-2.65-8.15-6.9-1.45-1.55-1.15-3.75.3-2.25 4.05 1.1"/><path fill="#c94850" d="m69.2 141.5-5.6.15q-4.95-.9-10-4.05.05-1.85.95-4.25 6.6 5.25 14.65 8.15"/><path fill="#dbd2a9" d="M60.4 146.8q-1.15 2.7-3.45 3.3v-4.8q2.45.1 4.15-1.05z"/><path fill="#ed8599" d="M29.95 103.45q3.2-2.6 7.65-2.45 4.45.1 7.45 2.9-3.2 4-8.15 3.75-4.45-.35-6.95-4.2"/><path fill="#922f00" d="M41.05 99.4q3.8.15 6.5-.1l-.55 1.45q-.8 1.75-1.95 3.15-3-2.8-7.45-2.9-4.45-.15-7.65 2.45-1.15-1.8-1.8-4.1l-.45-2q5.7 1.8 13.35 2.05"/><path fill="#0d131a" d="M23.1 78.75q1.95.25 2.95 2.4 1 2.2.5 5.4-.5 2.95-2.1 4.6-1.6 1.6-3.7 1.25-2.05-.35-3.1-2.5-1.05-2-.75-4.4.35-3.1 2.15-5.1t4.05-1.65m32.4 2.9q2.25.1 3.65 2.45t1.1 5.45q-.3 2.9-1.95 4.7-1.55 1.65-3.4 1.55-2.4-.15-3.65-2.15t-1-5.1q.25-3.2 1.75-5.1 1.45-1.9 3.5-1.8"/><path fill="#0d131a" d="M64.85 74.65q-1.75-2.05-1.35-2.3.35-.3 2.2 1.7Q70 78.6 72 85.35q1.85 6.15 1.15 11.4-1.25 8.55-8.85 14.55-7.65 6-18.05 6.65-2.7.15-2.7-.35 0-.45 2.7-.7 10.95-.95 17.95-7.3 6.25-5.55 7.3-13 .75-5.05-.9-10.95-1.8-6.5-5.75-11m-41.1-9.3q3.6-1.75 7.95-2.65l8.75-.6q5.55.4 10.85 2.35 5.25 1.85 8.9 4.75 1.6 1.25 1.45 1.7-.2.45-1.8-.7-8.25-5.8-19.6-6.65-8.45-.6-16.15 2.75-2 .9-2.15.45-.2-.45 1.8-1.4m-7.15 4.2q1.75-1.25 1.95-.8.15.45-1.6 1.85-4.95 4-7.8 9.6Q6.3 85.85 6.3 91.75q0 7.35 5 13.5 6 7.4 17.4 10.2 2.4.6 2.25 1.05l-2.6-.1q-11.8-2.65-18.3-10.45-5.5-6.6-5.45-14.2 0-6.2 3.35-12.3 3.25-6 8.65-9.9"/><path fill="#0d131a" d="M97.55 13.35q10.1-4.1 13.75-.7 4.3 3.95 1.3 15.65-2.95 11.65-10.85 22.25-7.6 10.3-17.2 17.05-9.55 6.8-18.4 8.15l-.55-.5q-.4-.5-.2-.55 8.25-1.1 17.75-7.95Q92.7 59.9 100.3 49.6q8.45-11.4 11.15-22.6 2.4-9.95-.9-13-3.35-3-12.95 1.15-11.45 4.9-22.45 17.45-8.45 9.6-12.65 20.25-3.5 8.9-3.2 16.05l-.6.05q-.6-.15-.6-.35-.3-7.45 3.1-16.4 4.1-10.9 12.65-20.65 11.7-13.3 23.7-18.2"/><path fill="#0d131a" d="M64.4 57.85q4.9-1.5 8.6 1.4 3.6 2.9 2.8 8-.8 5.25-5.5 7.3-.2.1-.5-.2t-.1-.4q4.05-1.75 4.85-6.55.75-4.75-2.3-7.15-3.2-2.55-7.65-1.25-4.55 1.3-5.35 5.45-.05.25-.45.15-.45-.1-.4-.35.95-4.8 6-6.4"/><path fill="#fff" d="M23.05 79.3q1 .15 1.6 1.05.65.9.45 1.95-.15 1.05-1 1.7-.85.55-1.85.45-1.05-.15-1.65-.95-.75-.85-.5-2.15.15-1 1-1.6t1.95-.45m32.35 2.95q1 0 1.75.8.85.85.8 2.05-.05.9-.7 1.65-.8.8-1.9.75-1.1 0-1.85-.75-.85-.75-.8-1.95.1-1.05.85-1.8.8-.75 1.85-.75"/><path fill="#0d131a" d="M35.85 93.9q-.05-.55 1.35-.4t1.25.6-1.35.35q-1.15-.1-1.25-.55m-9.05 3.6q-1.45-.65-1.3-1.05l1.65.15q3.55 1.25 10.5 1.9 6.75.65 10.65.2 1.45-.15 1.55.25.05.45-1.45.7-3.8.6-10.75 0Q30.2 99 26.8 97.5"/><path fill="#0d131a" d="M27.15 97.3q-.05-.2.5-.25t.6.15q.35 3.8 2.8 6.7t5.65 3.25q2.9.35 6.05-2.1 3.1-2.45 4.25-6l.6-.05.45.35q-1.15 4.05-4.6 6.65-3.4 2.5-6.8 2.1-3.7-.45-6.4-3.35-2.85-3.1-3.1-7.45"/><path fill="#0d131a" d="M45.25 103.55q.2.15-.2.45-.35.3-.5.15-2.25-2.1-6.6-2.4-4.6-.3-7.85 1.8l-.45-.3q-.3-.4-.1-.5 3.65-2.35 8.3-2.05 4.5.25 7.4 2.85M33.8 1.6Q32.05.4 27.25 2.9 22.3 5.45 17.1 10.5 3.6 23.45 1.7 38.5q-.85 7 2.8 16.25 4.35 11 12.35 15.35.2.1-.2.5l-.55.3Q7.8 66.4 3.2 55.65-.85 46.1.15 38.1q2-15.7 16.05-28.85Q21.75 4 27 1.5q5.2-2.45 7.4-1 3.55 2.35 1.25 12.9Q33.2 24.8 25.2 37.2q2.5 8.5 2.5 16.45-.05 8-2.65 12.05l-.65.05q-.5-.1-.4-.3 2.2-3.4 2.25-10.45.05-7.1-2-17-.2-.75-.1-1.05l.55-1.1q8.05-14.6 9.95-24.75 1.45-7.9-.85-9.5"/><path fill="#0d131a" d="M23 54.35q4.15 3.05 3.25 8.2l-.45.15-.4-.3q.75-4.3-2.95-7-3.6-2.65-7.4-1.15-3.75 1.5-4.25 6.05-.55 4.45 2.45 7.35.15.15-.1.55-.3.35-.45.2-3.8-3.7-3.1-8.7.65-4.9 5.1-6.65 4.3-1.7 8.3 1.3m.5 59.6.65.65q.4.65.15.6-8-.55-14.65 1.5-6.05 1.85-6.05 3.95 0 2.25 5.2 4.55 5.7 2.5 14.5 3.6l.1.8-.35.75q-8.8-1.1-14.85-4-5.9-2.8-5.9-5.7 0-2.85 6.65-5.05 6.75-2.2 14.55-1.65"/><path fill="#0d131a" d="m20.3 114.35.05.45q-2.4 1.25-3.45 5.45-.5 2.2-.35 4.5.15 2.25.9 3.35l-.25.45-.55.15q-.95-1.4-1.25-3.75-.4-2.6.2-4.95.45-2.05 1.7-3.65 1.1-1.5 2.55-2.25.2-.1.45.25m6.6 1.4.8-.05q.65.15.55.35-5.3 10.85-5.4 19.55-.1 6 2.2 10.2 1 1.95.6 2.15t-1.6-1.75q-2.95-4.9-2.8-10.95.2-8 5.65-19.5"/><path fill="#0d131a" d="M10.95 142.15q.55-5.15 5.35-.45l3.6-.3 2.55-.9.45.6q.2.65 0 .75l-2.5.65-3.6.25q-.95-.15-1.7-.75-1.3-1.15-2.1-1-.7.15-.8 1.3-.5 4.5 2.45 9.25 2.7 4.3 4.85 4.45l5.9-.65 7-.4.7.55.25.55-7.35.45-6.6.6q-2.8-.2-5.8-4.85-3.15-5.05-2.65-10.1"/><path fill="#0d131a" d="m55.1 138.45.7.05.8.5q.8 1.9 1 7.7.2 5.35-.15 9.3-.3 3.45-4 7.95-3.75 4.65-6.25 3.95-1.8-.45-3.2-4.25-.5-1.4-4.75-3.5-5.15-2.6-7.65-5.05-1.55-1.55-1.25-1.8.3-.3 2 1.05 3.15 2.55 8.55 5.15 3.6 1.7 4.35 3.8 1 2.85 2.1 3.1 1.65.45 5.05-3.3 3.55-3.9 3.85-7.1.4-3.8 0-9.8-.4-6.05-1.15-7.75"/><path fill="#0d131a" d="M48.75 117.4q-.2-.05.5-.4.75-.4.95-.35 8.7 2.4 15.9 12.05 7.1 9.5 3.6 13-2.35 2.4-10.75-.7-8.85-3.3-13.05-9.35-1.15-1.7-.8-1.95t1.75 1.5q3.95 4.9 12.15 8.3 8 3.3 9.95 1.3 2.95-2.95-4.2-11.8-7.4-9.2-16-11.6"/><path fill="#0d131a" d="m63.1 126 .25.5-.2.45q-3.4.2-6.2 3.75-2.7 3.35-2.7 6.75l-.45.25q-.5 0-.5-.25-.15-4.3 2.6-7.65 2.9-3.5 7.2-3.8m-3.35 14.75q-.1-.2.45-.2l.65.15q1.5 2.7.5 5.8-1.05 3.15-3.9 4.05-.2.05-.3-.45-.05-.5.15-.6 2.15-.65 2.95-3.75.8-3.05-.5-5"/><path fill="#0d131a" d="M72.1 127.9q1.25.4 3.8 5.55 2.5 4.95 2.3 5.95-.1.5-3.2 2.15-3 1.6-5 2.25l3.5 6 1.65 3.9q.1 1.2-5.15 3.7-5.05 2.4-6 2.1-1.2-.35-5.45-10.35-.1-.2.5-.45l.75-.05 2.4 5.15 2.3 4.4 4.8-2q3.95-1.85 4.5-2.55-.15-1.3-4.65-9.1-.55-.9-.45-1.15.05-.2.85-.6 6.45-2.95 7.15-3.85-.1-.95-2.2-5.05-2.05-4.1-2.7-4.65-.45-.1-1.8.5-1.45.6-2.95 1.5-.2.1-.5-.5-.35-.55-.15-.65.75-.5 2.65-1.35 2.4-1.05 3.05-.85M7.95 89.15q-1.35.1-1.7 2l-.5.1q-.55-.05-.5-.25.15-1.05.9-1.95.8-1.05 1.8-1.1 1.95-.2 4.25 1.9 2.5 2.3 3.65 5.85 1.3 3.95.7 7.35-.55 3.1-2.35 4.3l-1.3.25-1.15-.45q-.15-.15 0-.6t.3-.3q.3.35.8.4l.8-.2q1.3-.8 1.7-3.5.5-3.1-.75-6.95-1.05-3.1-3.1-5.15-1.9-1.85-3.55-1.7M64.9 94q2.9-1.6 5.1-.95 1.4.4 2 1.85.5 1.15.4 2.45-.05.25-.45.2-.45-.05-.4-.3.15-2.55-1.85-3.1-1.9-.6-4.4.95-2.7 1.65-4.45 4.95-1.8 3.4-2 6.6-.15 2.95 1.1 4.25 1.1 1.1 2.25.5.2-.1.4.25l.05.4q-2.05 1.05-3.45-.35-1.4-1.5-1.5-4.6-.15-3.7 1.9-7.55 2-3.75 5.3-5.55"/><path fill="#0d131a" d="M6.7 91.55q.65-.5.85-.4l.4 1.15.8 3.55 2.1-1q.85-.35 1.05-.25l.45.95 1.05 3.05.35 1.25q-.05.25-.95.55l-2.3.75 1.85 2.7.55 1q.05.35-.7.5l-1.55.2q-.2.05-.2-.4 0-.4.2-.4l1.05-.2-1.85-2.85-.5-1.1q.05-.2 1.05-.5l2.15-.75q-.2-1.1-1.2-3.55l-1.9.75-1.2.35-.45-1q-.5-1.45-.85-3.4l-.95.7q-.15.15-.35-.15-.25-.35-.1-.5zm62.8 5.95q.4-.85.55-.9.2-.05.8.55l1.2 1.45q.1.2-.2.4l-.45.05-1.05-.95-1.85 3.55-.65.85-.95-.6-2.35-1.7q-1.1 1.35-1.8 3.25l2.2 1.4.9.75-.55 1.15-2.55 3q.55.45 1.1.6.2.05.05.4l-.35.25-1.25-.45-.95-.55q0-.2.9-1.05l2.55-3-2.65-1.55q-.5-.3-.5-.6-.05-.3.35-1.15l1.65-2.95.75-.85.75.35 2.45 2.15q1.2-1.7 1.9-3.85"/></svg>