<svg xmlns="http://www.w3.org/2000/svg" width="165" height="200" viewBox="0 0.3 164.65 200.1"><path fill="#0d131a" d="M132.55 70.95q13.75-15.2 26.4-15.2l1.25.2 1.5 1.5Q164.65 61.7 164 71q-.65 9.45-4.65 18-6.5 13.9-18.95 25.3-12.95 11.95-20.65 9.8-2.95-.85-4.15-7.8-1.2-6.8.25-14.1 3.2-16.4 16.7-31.25"/><path fill="#d2ecfa" d="M160.4 59.55q2.1 3.3 2 9.9-.1 8.05-4.05 16.5-6.15 13.2-18.9 25.9-13.2 13.1-19.35 11.1-2.4-.8-3-4.6-.55-3.85.75-10.45 2.95-14.95 12.45-29.95Q143 58 158.4 58q1 0 2 1.55"/><path fill="#b6ccd9" d="M142.8 63.7q-2 7.7-1.8 20.6.2 12.7 2.4 23.3-6.9 7.7-13.05 11.9-6.65 4.6-10.25 3.45-2.4-.8-3-4.6-.55-3.85.75-10.45 1.9-9.9 7.85-21.8 7.6-15.15 17.1-22.4"/><path fill="#0d131a" d="M48 111.65q4.65 6.65 4.5 12.65-.15 6.4-6.4 8.25-9.3 2.85-22.75-5.3-9.75-5.85-15.4-12.55-1.75-2.1-2.9-4.45-1.15-2.45-.8-3.6.3-1 1.9-1.75 1.15-.6 3.65-1.3 4.35-1.35 13.05-1.7 9.9-.45 14.85 1.2 5.65 1.9 10.3 8.55"/><path fill="#686d70" d="M45.8 131.4q-8.1 2.25-20.8-5.45-10.1-6.15-16.05-13.2-2.9-3.5-2.4-5.1.45-1.45 3.85-2.5 4.65-1.4 13-1.85 9.4-.55 13.9.95 5.25 1.75 9.7 8.1 4.4 6.35 4.25 11.95-.1 5.6-5.45 7.1"/><path fill="#515457" d="M51.25 123.85v.45q-.1 5.6-5.45 7.1-7.45 2.1-18.9-4.35-8.95-5-16.05-12.25 8.65 5.1 19.6 7.4 9.85 2.05 20.8 1.65"/><path fill="#0d131a" d="M61.6 167.45q3.95-3.2 14.35-2.5 9.4.6 14.35 3.25 2.5 1.35 2.35 2.9-1.05 10.25-5.45 19.5-4.35 9-8.15 9.4-3.9.4-9.9-7.7-6.3-8.45-9.55-19.3-.45-1.55.15-3.05.55-1.45 1.85-2.5"/><path fill="#686d70" d="M75.6 166.2q9.3.5 14.1 3.1 1.85.95 1.75 1.7-.4 3.9-3.55 11.85t-5.75 11.65q-2.35 3.45-3.75 3.6-.95.1-2.9-1.75-4.25-4.05-8.55-11.45-4-6.9-5.7-12.45-.75-2.55 1.1-4.05 3.4-2.75 13.25-2.2"/><path fill="#515457" d="M78.4 186.45q-3.7-1.9-11.95-2.4-3.75-6.6-5.2-11.6-.75-2.55 1.1-4.05 3.4-2.75 13.25-2.2 9.3.5 14.1 3.1 1.85.95 1.75 1.7-.35 3.45-3.05 10.5-2.65 7-5.2 11.4-.9-4.45-4.8-6.45"/><path fill="#0d131a" d="M141.2 149.65q2.05-.25 3.25.05 1.55.4 2.4 1.8 6.75 11.75 8.65 23.85 1.55 9.95-.45 11.65-2.15 1.95-12.15-1.75-11.1-4.1-21.2-11.9-1.15-.9-.45-3.6 1.4-5.15 7.9-12.05 6.9-7.4 12.05-8.05"/><path fill="#686d70" d="M151.2 166.65q2.75 9 2.8 14.6 0 2.55-.6 3.05l-5.25.15q-4.2-.6-13.65-5.45-8.45-4.3-11.95-7-.55-.4-.1-1.95 1.25-4.75 7.6-11.45 6.65-7.15 11.3-7.75 2.8-.35 4.2 2.05 3.05 5.3 5.65 13.75"/><path fill="#515457" d="M145.55 152.9q2.75 4.85 5.25 12.6 2.65 8.1 3.1 13.95-3.35-3.6-6.6-5.4-2.5-1.4-7.2-.7-4.6.65-10.25 3.15-5.2-2.85-7.3-4.5-.55-.4-.1-1.95 1.25-4.75 7.6-11.45 6.65-7.15 11.3-7.75 2.8-.35 4.2 2.05"/><path fill="#0d131a" d="M46.6 104.8q4.45 5.75 6.25 17.8 1.75 12.05-1.15 17.45-.9 1.65-2.45 2.9-1.45 1.2-2.35 1.1-7.15-.5-12.5-10.1-4.8-8.65-4.8-17.4 0-6.6 3.6-10.75 2.7-3.1 6.55-4.1 3.6-.9 6.85 3.1"/><path fill="#a499c9" d="M47.75 141.45q-6.6-.5-11.75-9.65-4.75-8.3-4.75-16.4 0-5.1 3.35-8.85 2.65-2.95 5.45-3.65 2.9-.75 5.6 2.65 4.25 5.4 5.95 17.15t-1 16.8q-1.1 2.05-2.85 1.95"/><path fill="#8e84ae" d="M40.7 132.3q4.35 1.1 11.5-.9-.15 5.35-1.6 8.1-1.1 2.05-2.85 1.95-4.15-.3-7.95-4.35-3.35-3.55-5.75-9.15 3.1 3.5 6.65 4.35"/><path fill="#0d131a" d="M53.25 154.8q4.2-1.7 22.7 7.35 18.55 9.1 20.75 13.95.7 1.6-.95 2.7-8.5 5.65-19.9 4.8-11.35-.85-19.35-7.65-6.55-5.55-6.95-12.85-.3-6.6 3.7-8.3"/><path fill="#a499c9" d="M75.6 163.2q18 8.9 20 13.4.3.8-.35 1.1-9.8 4.75-19.95 3.65-10.2-1.05-17.9-7.6-6-5.1-6-11.4 0-1 .15-1.75.3-1.9 1.1-3.35.65-1.15 1.1-1.3 3.85-1.6 21.85 7.25"/><path fill="#8e84ae" d="M79.75 181.55q-7.85.2-14.85-3 6.3.9 9.85-1.65 3.15-2.3 5.85-8.85l.75-1.85q12.7 7 14.25 10.4.3.8-.35 1.1-7.55 3.65-15.5 3.85"/><path fill="#0d131a" d="M64.25 169.2q-12.65-7.85-19.65-21.6-6-11.7-6.8-24.95-.7-12 2.85-19.35 4.15-8.65 29.3-10.5 20.4-1.55 39.9 1.45 14.9 2.3 15.4 5.7.3 2.05 2.75 7.35l4.8 10.5 5.7 12.8q3.25 7.6 4.5 12.25t-.6 10.4q-1.7 5.25-5.55 10.3-11.6 14.85-36.8 14.85-21 0-35.8-9.2"/><path fill="#686d70" d="M121 98.1q2.95 1.1 3.05 2.05.35 2.3 2.3 7.3l4.4 10.4 5.3 12.45q2.85 7.1 4.15 11.9 1.25 4.65-.05 9.85-1.25 5.15-4.75 9.7-4.45 5.8-11.7 9.55-10.4 5.35-24.95 5.35-17.7 0-28.9-5.8-9.4-4.9-18.9-16.85-8-10.1-10.3-28.05-2-15.75 1.1-22.1 3.85-8 28.1-9.85 20.4-1.55 39.8 1.45Q117.1 96.6 121 98.1"/><path fill="#515457" d="M124.05 100.15q.35 2.3 2.3 7.3l4.4 10.4 5.3 12.45q2.85 7.1 4.15 11.9 1.25 4.65-.05 9.85-1.25 5.15-4.75 9.7-4.45 5.8-11.7 9.55-10.4 5.35-24.95 5.35-9.6 0-17.25-1.7l4.85.35 8.8-.35q13.2-1.8 23.65-11.4 8.65-10.25 4.6-24.05-3.85-13.15-15.05-17.9-12.5-5.8.4-14.55 4.2-2.85 10-5.25 5.25-2.15 5.3-1.65"/><path fill="#0d131a" d="M64.35 95.55Q72.4 93.4 79 92.95q7.45-.55 9.25 1.55 3.4 4.05 5.3 10.45 4.65 15.95 11.15 23.85 7.85 9.45 9.55 15.25 2 6.85-3.3 11.95-7.9 7.65-24.85 7.85-18.15.2-29.2-9.4-11-9.55-13.6-28.8-.85-6.45-.65-12.9.2-5.05.7-6.5 1.05-5.4 21-10.7"/><path fill="#7fccec" d="M79.6 93.7q6.6-.35 8.05 1.35 1.2 1.35 2.35 4.5l2.1 6.6q2.25 7.6 3.85 11.5 2.8 6.8 6.55 11.3 7.8 9.45 9.5 14.95 2.05 6.6-2.95 11.45-7.35 7.05-23.05 6.95-17.05-.15-28.2-9.75-10.65-9.2-13-28.2-.75-6-.55-12.25l.35-5.2q.45-2.45 5.95-5.4 5.5-2.9 14-5.2Q73 94.05 79.6 93.7"/><path fill="#0d131a" d="m55.5 125.75 1.4-.65q1.05 6.4 5.85 16.75 6.7 14.45 15 19.9H76.4q-8.5-5.55-15.05-19.25-4.75-9.95-5.85-16.75m23.8-2.05 1.25-.55q.7 6.5 4.5 15.75 5.55 13.55 14.5 21.7l-1.05.55q-7.95-7.25-13.25-18-4.95-10-5.95-19.45"/><path fill="#0d131a" d="M64.35 95.55Q72.4 93.4 79 92.95q7.45-.55 9.25 1.55 1.3 1.55 2.5 4.7l2.1 6.7 2.4 7.55q1.55 4.45 3.25 7.85l.1.2-.1.2q-1.05 1.9-3.7 4-3.8 3.05-8.35 3.85-10.5 1.8-21-7.45-11.45 13.65-20.9 5.4l-.15-.1v-.15q-1.1-6.6-1.05-13.6.05-4.8.45-6.9.6-3.1 7.05-6.35 5.5-2.7 13.5-4.85"/><path fill="#fff095" d="M79.6 93.7q6.6-.35 8.05 1.35 1.2 1.4 2.4 4.5l2.05 6.6q3 10.1 5.55 15.3-1 1.65-3.75 3.5-3.65 2.5-7.95 3.2-10.25 1.8-20.35-7.3l-.3-.25-.3.3q-4.8 5.85-9.9 7.4t-9.95-1.4q-1-6.2-1-12.45 0-5.45.45-7.55.45-2.45 5.95-5.4 5.5-2.9 14-5.2Q73 94.05 79.6 93.7"/><path fill="#dccf81" d="M64.55 96.3Q73 94.05 79.6 93.7t8.05 1.35q1.7 2 3.75 8.8-4.75 5.95-11.5 9.35-7 3.45-14.9 3.45-11.5 0-20.7-7.1l.3-2.65q.45-2.45 5.95-5.4 5.5-2.9 14-5.2"/><path fill="#0d131a" d="M131.25 140.8q1.6-4.85 3.65-6.85 1.75-1.7 4.1-1.65 2.3.1 4.8 3.1 2.5 2.95 3.55 6.8 2 7.4-2.4 16.1-3.9 7.7-10.9 13.25-5.05 4-10.55 5.2-5.25 1.1-8.65-.75l-.65-.3-1 .1q11.8-16.1 18.05-35"/><path fill="#a499c9" d="M144.95 142.45q1.9 7-2.2 15-3.6 7.1-10.35 12.45-4.55 3.65-9 5.05l-7.35.25q4-5.55 7.7-12.45 5.6-10.35 9.3-21.5 1-3.1 2.5-4.8t3.2-1.65q1.9.1 3.55 2.15 1.7 2.1 2.65 5.5"/><path fill="#8e84ae" d="M133.05 141.25q1-3.1 2.5-4.8t3.2-1.65q1.9.1 3.55 2.15 1.7 2.1 2.65 5.5 1.9 7-2.2 15-3.6 7.1-10.35 12.45l-2.6 1.9q2.05-3.45 1.15-7.5-.9-4.2-4.6-6.7 3.95-8.15 6.7-16.35"/><path fill="#a499c9" d="M111.3 66.85q0-13.5-16.1-23.2-14.8-8.9-32.15-8.9-11.75 0-23.05 4.9-12.1 5.25-18.75 14.2-5.7 7.8-7 18.2-.65 5.2-.15 8.85l.7-.4 1.6-.4q4.65 0 9.75 6.45 5.4 6.85 5.4 14.15 0 2.6-1.8 5.5-2.25 3.6-5.7 3.6-10.35 0-17.2-12Q.9 87.4.9 75.8q0-24.25 18.75-40.7 19.45-17 50-17 25.3 0 44.6 13.3 21 14.55 21 36.85 0 14.1-9.2 24.9-9.85 11.5-24.45 11.5-8.8 0-13.1-4.6-3.75-3.95-3.75-10.8 0-8.4 5.5-13.9 5.15-5.2 12.2-5.2 1.95 0 4.4.7 3.05.9 4.1 2.4z"/><path fill="#8e84ae" d="M130.4 73.8q5.3-11.35 1.2-21-.75-1.8-.85-3.2 4.5 8.75 4.5 18.65 0 14.1-9.2 24.9-9.85 11.5-24.45 11.5-7.75 0-12.05-3.55-3.8-3.15-4.6-8.8 2.85 8.4 12.35 7.6 8.65-.7 18.4-8.25 9.95-7.75 14.7-17.85M6.85 97.8Q.9 87.4.9 75.8l.2-4.55q.8 9.8 4.9 19 3.05 6.7 8 10.3 4.4 3.25 8.8 3.1 4.3-.1 6.3-3.2 2.15-3.3.35-8.55 2.1 4.45 2.1 8.8 0 2.6-1.8 5.5-2.25 3.6-5.7 3.6-10.35 0-17.2-12"/><path fill="#0d131a" d="M102.1 69.45q6.7 0 10.5 4.2 3.75 4.15 2.4 9.85-.7 2.9-2.6 4.85-1.8 1.8-4.35 2.45-1.15.3-1.3-.25-.1-.5 1.25-1 3.6-1.3 4.8-6.3 1-4.25-2.1-8.1-3.25-4.1-8.4-4.1-5.9-.05-10.75 4.9-5.25 5.25-5.25 12.6 0 6.9 3.5 11.05 3.25 3.9 8.25 3.9 15.6 0 25.55-9.75 10.1-9.85 10.1-25.6 0-20.15-19-34.75Q95.95 19 70.9 19q-28.65 0-48.05 15-20.4 15.8-20.8 41.25-.15 12.4 5.8 22.6 6.4 10.9 15.55 10.9 4.6 0 6.25-4.1 1.8-4.55-.05-10.45-2.05-6.45-7.4-10.5-5.15-3.95-7.8-1.9-1.65 1.3-1.9 4.9-.2 3.05.45 5.05.5 1.45-.1 1.45-.65-.05-1-1-1.2-3.15-.9-6.5.3-3.8 2.4-5.45 1.55-1.15 4.5-.55 2.9.55 5.35 2.4 5.65 4.35 8.05 11.6 2.25 6.8.35 11.65-.9 2.3-2.85 3.75-1.95 1.5-4.1 1.5-10.2 0-17.3-9.8Q0 90.65 0 75.25 0 49.3 20.8 32.8 41 16.75 71.25 16.75q25.15 0 44.1 14.15 20.4 15.2 20.4 38.2 0 15.9-9.1 25.65-9.75 10.45-27.15 10.45-7.65 0-11.6-4.2-3.95-4.15-3.95-12.15 0-7.35 5.6-13.35 5.65-6.05 12.55-6.05"/><path fill="#0d131a" d="M107.7 53.7q4.7 6.8 4.7 13.7 0 20.15-15.5 33-15.25 12.55-38.15 12.25-15.4-.2-28.85-8.2Q15.45 95.9 13.55 83.8q-3.1-19.4 8.75-33.3 11.8-13.85 33.85-16.8 21.3-2.85 39.1 8.4 7.9 5 12.45 11.6"/><path fill="#7fccec" d="M95.45 97.95q-15.75 13.5-36.9 13.2-14.5-.25-27.35-8.1-13.65-8.4-15.5-20-1.25-8.1.4-15.45 1.7-7.35 6.2-13.45 5.45-7.3 14.25-12Q45.3 37.5 56.35 36q12.6-1.65 25.85 2.85 13.25 4.45 21.05 13.05 6.8 7.4 7.1 16 .55 16.8-14.9 30.05"/><path fill="#a499c9" d="M12.8 92.8q-1.2-3.85-.9-7.15.3-3.5 2.2-4.75l.7-.4 1.6-.4q4.65 0 9.75 6.45 5.4 6.85 5.4 14.15 0 2.55-1.8 5.4-2.25 3.55-5.7 3.7-2.3.1-5.95-5.55-3.5-5.45-5.3-11.45"/><path fill="#8e84ae" d="M31.55 100.7q0 2.55-1.8 5.4-2.25 3.55-5.7 3.7-1.35.05-3.35-2.1-1.8-1.95-3.75-5.35 6.3 2.95 10.55-.2 4.4-3.2 1.95-10.25 2.1 4.45 2.1 8.8"/><path fill="#a499c9" d="m107.5 90.4-2.2 13.05-3.7 1.2q-8.8 0-13.1-4.6-3.75-3.95-3.75-10.8 0-8.4 5.5-13.9 5.15-5.2 12.2-5.2 1.8 0 4.3.75 3.05.95 4.2 2.35 1.25 1.55 2.3 4.05 1.05 2.6 1.05 4.3 0 2.4-1.35 4.7-1.85 3.1-5.45 4.1"/><path fill="#8e84ae" d="m105.3 103.45-3.7 1.2q-7.75 0-12.05-3.55-3.8-3.15-4.6-8.8 2.2 6.3 8.3 7.4 5.6 1.05 13.05-2.35z"/><path fill="#0d131a" d="M10.95 85.7q.3-3.8 2.4-5.45 1.55-1.15 4.5-.55 2.9.55 5.35 2.4 5.65 4.35 8.05 11.6 2.25 6.8.35 11.65-.9 2.3-2.85 3.75-1.95 1.5-4.1 1.5-10.2 0-17.3-9.8Q0 90.65 0 75.25h2.05q-.15 12.4 5.8 22.6 6.4 10.9 15.55 10.9 4.6 0 6.25-4.1 1.8-4.55-.05-10.45-2.05-6.45-7.4-10.5-5.15-3.95-7.8-1.9-1.65 1.3-1.9 4.9-.2 3.05.45 5.05.5 1.45-.1 1.45-.65-.05-1-1-1.2-3.15-.9-6.5m91.15-16.25q6.7 0 10.5 4.2 3.75 4.15 2.4 9.85-.7 2.9-2.6 4.85-1.8 1.8-4.35 2.45-1.15.3-1.3-.25-.1-.5 1.25-1 3.6-1.3 4.8-6.3 1-4.25-2.1-8.1-3.25-4.1-8.4-4.1-5.9-.05-10.75 4.9-5.25 5.25-5.25 12.6 0 6.9 3.5 11.05 3.25 3.9 8.25 3.9 15.6 0 25.55-9.75 10.1-9.85 10.1-25.6l2.05.95q0 15.9-9.1 25.65-9.75 10.45-27.15 10.45-7.65 0-11.6-4.2-3.95-4.15-3.95-12.15 0-7.35 5.6-13.35 5.65-6.05 12.55-6.05"/><path fill="#0d131a" d="M108.45 93.4q5.6-1.7 11.35 2.35 5.9 4.1 8.1 11.5 2.7 8.85.4 15.1t-8.75 8.2q-6 1.8-12.2-2.35-6.2-4.1-8.3-11.05-2.3-7.5.2-14.4 2.6-7.35 9.2-9.35"/><path fill="#a499c9" d="M117.9 96.2q3.05 1.6 5.4 4.6 2.3 3 3.45 6.8 1.2 4.05 1 8-.25 4-1.9 7.05-2.25 4.2-6.4 5.5-5.6 1.7-11.25-1.9t-7.6-10.05q-2.05-6.8.45-13.15t7.85-7.95q4.45-1.35 9 1.1"/><path fill="#8e84ae" d="M108.9 95.1q4.45-1.35 9 1.1 3.05 1.6 5.4 4.6 2.3 3 3.45 6.8 1.2 4.05 1 8-.25 4-1.9 7.05-2.25 4.2-6.4 5.5l-5.5.3q2.75-.9 2.95-4.85.15-3.65-1.85-8.6-4.6-11.5-12.45-14.95 2.45-3.75 6.3-4.95"/><path fill="#0d131a" d="M130.2 82.45q4.95-1.7 6.3-.5 2.55 2.3.3 13.1-2.5 12.15-9.6 21.95-2.3 3.2-5.6 4.4-3.25 1.2-6.4.15-4.05-1.3-6.65-5.4-2.65-4.15-2.65-9.45 0-9.55 13.95-18.9 5.4-3.6 10.35-5.35"/><path fill="#686d70" d="M134.5 83.8q1 .6 1.15 2.45.3 4.3-1.4 11.4-2.45 10.45-8.05 18.15-2.15 2.95-4.85 4.05l-5.45.2q-3.3-1.05-5.5-4.45-2.5-3.85-2.5-9.25 0-6.75 8.85-13.9 6.25-5.1 13.45-8.2 2.9-1.2 4.3-.45"/><path fill="#515457" d="M135.65 87q0 5.15-1.7 11.8-2.5 9.75-7.75 17-2.15 2.95-4.85 4.05l-5.45.2q-1.5-.45-2.75-1.5 16.1-12.8 22.5-31.55"/><path fill="#0d131a" d="M21.25 62.4q.8-1.9 4.05-1.3 3.5.6 6.6 3.85 5.05 5.25 5.5 13.2.15 3.05-.5 5.25-.6 2.15-1.6 2.25-6 .75-10.15-5.45-2.65-4.1-3.85-9.65-1.15-5.45-.05-8.15"/><path fill="#fff" d="M25.55 78.4q-2.9-4.8-2.4-9.25.55-4.7 4.7-5.35 2.15 1.3 3.95 3.75-3.25-.3-5.2 2.65-2.2 3.2-1.05 8.2"/><path fill="#a499c9" d="M23.1 62.2q1.7-.15 3.75 1-2.4.25-3.55 1.85-1 1.35-1.3 4-.75-3.8-.1-5.9.15-.6.4-.75z"/><path fill="#009fd9" d="M34.2 84.9q-3.85 0-5.95-2.85-1.8-2.5-1.75-6.15.05-3.5 1.7-5.65 1.8-2.35 4.45-1.45 2.1 3.05 2.9 7.55.7 4.1.05 7.35l-.4.95z"/><path fill="#0d131a" d="M85.8 55.25q1.55.1 2.2.55t1 1.8q1.25 4.35.1 9.55-1.2 5.4-4.55 9.5-3.05 3.85-7.35 5.8-4.2 1.9-8.7 1.5-1.1-.05-1.65-.55-.55-.45-.8-1.45-1.8-4.7-.6-10.85 1.15-6 4.6-10.1 2.85-3.35 7.1-4.8 4-1.4 8.65-.95"/><path fill="#fff" d="M85.75 63.1q3 6-2.55 12.9l-1.65 1.85q3.35-6.4-.65-11.75-3.95-5.2-9.9-3.25Q72.95 60 76.9 58q6.1-.5 8.85 5.1"/><path fill="#009fd9" d="M78.9 66.1q1.45 1.45 2.1 4.3.65 3.1-.15 5.9-2.2 7.35-12.2 6.6-.85-.05-1.15-.3t-.45-.9q-.65-2.25-.65-4.9 0-6.7 3.55-12.35 2.25-1.15 4.7-.65 2.35.45 4.25 2.3"/><path fill="#a499c9" d="M87.85 66.35q-1-8.6-9-9.1 3.35-1.2 7.65-.75 1.1.15 1.45 1.05.65 2.05.55 4.25-.05 1.9-.65 4.55"/><path fill="#0d131a" d="M61.85 88q.85-.55 1.05-.35l.05 1.3Q62.4 95.9 60.7 100q-1.55 3.85-3.75 4.3t-5.75-3.15q-3.5-3.6-7.2-10.05-.6-1-.25-1.35.3-.3.95.15 4.55 3.4 8.85 2.45 2.8-.6 8.3-4.35"/><path fill="#922f00" d="M61.75 89.4q-1.7 12.95-5.1 13.65-3.5.75-10.9-11.45 4.35 2.85 7.5 2.4t8.5-4.6"/><path fill="#0d131a" d="M54.65 95.3q2.95-1.6 6.7-.7l.35.1-.05.4q-1.7 7.95-4.75 8.7-2.65.65-6.55-4.1l-.2-.25.2-.25q2.2-2.75 4.3-3.9"/><path fill="#ed8599" d="M60.75 95.35q-1.6 7.1-4.05 7.7-2.05.5-5.5-3.6 1.8-2.1 4.1-3.25 2.75-1.35 5.45-.85"/><path fill="#ce7486" d="M53 97.7q3.65-3.05 7.75-2.35l-.8 3Q56.3 97.2 53 97.7"/><path fill="#0d131a" d="M7.8 15.85q.15-1.9 1.2-2.2.75-.2 2.55.45 7.1 2.75 14.3 13.35 8.5 12.6 7.3 24.9-.1 1-.6 1.25-.45.2-1.9 0-9.25-1.4-16.55-13.3-7.4-12.05-6.3-24.45"/><path fill="#fff095" d="M9.6 15.1q9.1 3.75 16.3 16.9 6.85 12.45 5.65 20.45-9.55.05-17.35-16.1-3.1-6.4-4.45-12.55-1.3-6.15-.15-8.7"/><path fill="#dccf81" d="M9.1 17.35Q11.75 28.4 16.2 36q5.5 9.2 15.3 16.45-8.7-.05-16.2-14-6.8-12.5-6.2-21.1"/><path fill="#0d131a" d="m106.25.4 3.25-.1q.7.55.6 2.9-.75 15.95-13.35 30.55Q84.7 47.7 72.5 49.1l-1.85-.05q-.9-.25-1.05-1.3-1.45-13.1 7.05-26.2Q86.75 5.95 106.25.4"/><path fill="#fff095" d="M92.7 34.5q-6.15 6.55-12.2 10.3-6.1 3.75-9.1 2.7-2.5-10.9 7.25-24.4Q89.4 8.15 107.8 2.3l.15 1.75q0 14.15-15.25 30.45"/><path fill="#dccf81" d="M94.9 26.6q8.15-11.05 12.95-23.65l.1 1.1q0 13.8-14.65 29.75-5.9 6.5-11.9 10.4-6.05 3.95-9.35 3.45 12.8-7.4 22.85-21.05"/><path fill="#0d131a" d="M52.15 86.95q0 .4-1.2.4-1.15 0-1.15-.4 0-.45 1.15-.45 1.2 0 1.2.45m-18.7-10.1.05 2.95q-.2 1.3-.7 1.35-.5.1-1.05-1.05t-.8-2.9q-.25-1.7-.05-2.95t.7-1.35q.5-.05 1.05 1.1t.8 2.85m41.15-2.3q0 1.85-.45 3.15-.45 1.35-1.1 1.35-.6 0-1.05-1.35-.45-1.3-.45-3.15t.45-3.2q.45-1.3 1.05-1.3.65 0 1.1 1.3.45 1.35.45 3.2"/><path fill="#fff" d="M31.2 72.25q0 .75-.55 1.3-.5.55-1.3.55-.75 0-1.3-.55t-.55-1.3q0-.8.55-1.3.55-.55 1.3-.55.8 0 1.3.55.55.5.55 1.3m41.05-3.35q0 .75-.55 1.3-.5.55-1.3.55-.75 0-1.3-.55t-.55-1.3q0-.8.55-1.3.55-.55 1.3-.55.8 0 1.3.55.55.5.55 1.3"/></svg>