<svg xmlns="http://www.w3.org/2000/svg" width="146" height="132" viewBox="0 -0.05 145.6 131.95"><path fill="#00aeeb" d="m130.7 63.25 4.05.2q2.75.8 4.55 3.2 1.45 1.95 2.05 4.75.55 2.85 1.9 4.65 1.8 2.45 1.5 6.45-.35 5.5-5.6 9.4-2.3 1.75-5.1-2.2-2.5-3.45-4.3-9.7-1.8-6.2-1.7-10.95.1-5.25 2.65-5.8"/><path fill="#0098cd" d="M128.05 69.45q5.15-2.85 9.25.3 2.35 1.85 6.3 6.85 1.6 2.85 1.15 6.55-.65 5.1-5.6 8.75-3.45 2.6-7.4-6.3-3.7-8.35-3.7-16.15"/><path fill="#00aeeb" d="M117.4 81.45q-10.95 6.65-12.65 1.85-1.75-4.95 1.7-11.1 2.7-4.75 7.15-8.4 1.45-1.2 1.9-2.35l.55-2.6q.35-2.1 2.65-1.35 1.8.6 3.5 2.3.9.9 3.75 1.2 3 .35 4.35 1.4 2.75 2.2 3.2 4.35.4 1.85-.9 3.05-7.25 6.75-15.2 11.65"/><path fill="#00aeeb" d="M121.1 95.8q-3.6-1.2-7.1-5-2.2-2.4-2.15-4.95 0-2.75 2.6-6.65 2.45-3.7 10.3-7.2 7.35-3.3 9.75-2.6l2.1.55q1.05.6 1.35 2.7l.35 2.65q.25.85 1.55 2.8 1.8 2.75 2.3 4.05.8 2.15.15 4.15-1.8 5.65-2.05 7.65-.2 1.8-1.25 2.95t-2.15.75q-3-1.1-8.75-1.1-4.7 0-7-.75"/><path fill="#0098cd" d="M121.1 95.8q-3.6-1.2-7.1-5-1.45-1.6-2.1-4.55-.7-3-.05-5.1l12.8-4.75 9.05-3.5q2.95-1.05 4.45 1.7.2 1.3 1.7 3.5 1.8 2.75 2.3 4.05.8 2.15.15 4.15-1.8 5.65-2.05 7.65-.2 1.8-1.25 2.95t-2.15.75q-3-1.1-8.75-1.1-4.7 0-7-.75"/><path fill="#0098cd" d="M105.7 85.65q0-9.2 15.35-1.3 5.65 2.9 10.55 6.75 4.75 3.8 4.7 5.2-.1 2.35-2.35 3.85-1.65 1.05-2.7 1.05l-2.3-.7-4.15-.4-5.5-.3q-3.5-.8-6.65-2.7-3.1-1.9-5.15-5.75-1.8-3.3-1.8-5.7"/><path fill="#d6e6ae" d="M81.2 77.5q4.65 1.95 8.4 5.6 3.8 3.8 4.65 7.45 3.35 14.25-2.55 35.55-1.55 5.8-5.25-5.7l-3.25-8-2.5-5.75-3.45 6.95q-4.2 8.1-7.8 13.65-1.8 2.85-3.25-.25-1.35-3.05-2.95-13.25-1.45-9.65-.05-19.85.95-7.1 2.6-11.35 1.95-5 6.45-6.15 3.9-1 8.95 1.1"/><path fill="#b9c897" d="M81.2 77.5q4.65 1.95 8.4 5.6 3.8 3.8 4.65 7.45 2.5 10.45-.1 24.95-1-3.2-4.3-1.5-2.55 1.3-4.4 3.85l-4.75-11.2-1.65 3.35-4.15 8q-.35-4.65-5.35-10.45-4.5-5.2-7.25-5.85.25-5.45 1.6-12.05 1.05-4.85 1.9-7.1 1.95-5 6.45-6.15 3.9-1 8.95 1.1"/><path fill="#0d131a" d="m141.8 71.35.55 2.1q.45 1.2 1.3 2.35 1.75 2.3 1.85 6.45.1 5.75-4.8 9.05l.45-1.8q3.35-3.6 3.2-8.15-.1-3.15-1.45-5-1.5-2-2-4.8l-.6-2.15-1.4-2.45q-2.85-3.85-7.65-3.35l-.5-.85 4.55.1q2.75.75 4.5 3.1.95 1.3 1.45 2.9z"/><path fill="#0d131a" d="m119.6 58.6-2.15-.3q-.8.2-1.6 2.4-.95 2.6-1.95 3.45-3.9 3.2-6.45 7.35-3.35 5.35-2.7 9.9l-1-.25q-1.2-5.2 2.55-10.55 2.25-3.25 7-7.2.8-.6 1.7-3.65.8-2.65 2-2.8 1.25-.15 2.95.7 1.55.75 2.6 1.85.5.5 1.45.75l1.9.3q3.5.35 4.9 1.5 3.15 2.45 3.25 5.3.05.95-.4 1.9l-1.05-.15q.55-.7.55-1.6l-.05-.1q0-2.2-3.1-4.6-.8-.65-2.05-.95l-2.2-.4q-2.9-.3-3.85-1.3z"/><path fill="#0d131a" d="M114.85 79.5q-2.6 3.9-2.55 6.55.05 2.25 2.1 4.45 3.4 3.75 6.95 4.9 2.2.7 6.75.7 5.8 0 8.9 1.1l1.1-.15q1.35-.9 1.7-3.15.2-2.15 1.7-6.55l.35-1.2q.6-1.8-.1-3.7-.5-1.4-2.3-4.05L138 75.85q-.3-.65-.4-2.05l-.15-1.1q-.3-1.6-1.7-2.4l-1.35-.45q-2.25-.65-9.5 2.6-7.7 3.5-10.05 7.05m5.85 16.75q-4.1-1.2-7-4.85-2.25-2.9-2.25-5.65.05-2.95 2.6-6.8 2.5-3.75 10.5-7.45 7.5-3.4 9.9-2.8 1.5.35 2.3.9 1.4 1 1.65 3l.1 1.1.35 1.8 1.4 2.35 2.6 3.8q1.05 1.95.35 4.05l-.8 1.9q-1.45 4.6-1.7 6.4-.35 3.3-2 4.1-.95.45-2.05 0-2.65-1.05-8.55-1.05-4.75 0-7.4-.8"/><path fill="#0d131a" d="M111.55 97.1q-5.05-3.05-6.25-10.45l.95-.1q.4 2.45 2 5.2 1.95 3.3 4.65 4.95 3.15 1.9 6.6 2.65l5.25.3 3.25.2 2.5.65q1.4.35 2.95-.55 1.7-.95 2.2-2.8l.9.35q-.75 2.45-2.1 3.4-1.6 1.1-4.25.5l-2.3-.6-3-.2-6-.5q-4.05-.95-7.35-3m-17.8-6.4q-1.1-4.85-6.8-9.3-5.7-4.4-11.3-4.8-6.85-.45-9.4 6.1-1.15 2.95-2.1 8.05-1.2 6.8-1.15 13.75.1 8.2 1.8 16.15 1.6 7.55 2.9 7.55t7.05-10.85l5.5-10.9h.9q1.05 2.35 4.7 12.3 3.4 8.8 4.6 8.8 1.05 0 2.9-8.1 2.05-9.2 2-18.05-.05-4.35-1.6-10.7m-6.3-9.95q5.9 4.6 7.25 9.7 1.6 6.05 1.6 12.8-.05 8.3-2.2 16.9-2 8.25-3.65 8.25-1.85 0-5.55-9.35l-4.2-11.3-6 11.85q-5.25 9.65-6.95 9.65-2 0-3.95-8.3-2-8.4-2-17.3 0-6.8 1.35-13.4.9-4.55 2.2-7.9 1.55-4.05 4.75-5.65 2.45-1.3 5.6-1.05 5.8.4 11.75 5.1"/><path fill="#d6e6ae" d="M40 87.95q-3.9-1.5-3.6-4.45t3.85-1.55q6.1 2.3 11.9 1.2 2.4-.4 6.1-4.25l4.4-5.15q2.6-2.9 5.4-1.95 2.75.9 1.05 3.05-2.45 3.15-5.3 6.1-4.25 4.45-7.3 6.3-2.7 1.65-7.7 1.9-5.1.2-8.8-1.2"/><path fill="#b9c897" d="M40 87.95q-3.9-1.5-3.6-4.45t3.85-1.55l1.65.65 1.55.35q.95 1.5 1.1 3.3.15 1.95-.9 2.55zm29.1-13.1-6.3 7.1q-.05-1.75-1.2-2.55-1.25-.85-3.45-.45l2.7-3.05 1.8-2.15q2.6-2.9 5.4-1.95 2.75.9 1.05 3.05"/><path fill="#d6e6ae" d="m92.05 73.35 3.65 3.15q4 3.2 5.75 4 2.95 1.35 5.9.35l2.3-4.8 1.9 2.9q5.2-2.05 5.05-1.65l-1.4 3.2q-1.25 2.95-.9 3.2l1.85 1.3q1.35 1.15 1 1.75-.3.5-2.2.55-1.9.1-2 .4l-.5 1.7q-.4 1.15-1 .9t-1.95-1.7l-2.15-2.15q-5.7.4-8.1-.95l-4.65-3.05-2.7-2.3q-1.25-1.55-2.75-5.3-1.65-4.15-.1-3.7z"/><path fill="#b9c897" d="m89.05 71.15 3 2.2 3.65 3.15 1.25 1q-.2 4.1 2.55 8.1l-.25-.1-4.65-3.05-2.7-2.3q-1.25-1.55-2.75-5.3-1.65-4.15-.1-3.7"/><path fill="#6cba5a" d="M83 64.2q3-1.8 8.05-1.35 7.45.7 12.6 7.3-3.05 2.45-5.35 3.1-4.75 1.3-11.4-1.25-5.75-6.65-3.9-7.8"/><path fill="#5da24d" d="M94.55 63.55q.15 5.55-3.2 9.75-1.8-.35-4.45-1.3-5.75-6.65-3.9-7.8 1.45-.9 4.25-1.25 3.75-.5 7.3.6"/><path fill="#6cba5a" d="M69.9 63.95q4-.15 3.65 2.35-.3 2.15-4.3 8-5.1 3.25-9.9 3.25-4.25 0-9.4-2.55 1.75-6 10.15-9.05 5.05-1.8 9.8-2"/><path fill="#5da24d" d="M69.55 73.8q-5.1-3.05-8.8-8.05 4.9-1.6 9.15-1.8 3.9-.15 3.65 2.25-.25 2.05-4 7.6"/><path fill="#0d131a" d="M39.9 88.35q-2.35-.75-3.4-2.5-.95-1.65-.4-3.1.4-1 1.4-1.35l2.85.2q5.3 2 11.55.85 2.4-.4 6.6-5.1l1.9-.05q-4.9 5.75-8.15 6.35Q46.2 84.7 40.1 82.4l-2-.25q-.85.15-1.15.95-.4 1.1.45 2.35.9 1.35 2.75 2.05 3.55 1.4 8.5 1.2 5-.2 7.6-1.85 4.2-2.6 9.8-9.15l-.2 2.15q-5.6 6.25-8.85 8.2-2.7 1.7-7.85 1.7-4.9.05-9.25-1.4M91.3 73.4h1.5l3.15 2.8q3.2 2.7 4.7 3.55 1.65.9 2.45 1.05l3.55-.2q1.75-4.05 2.5-4.95.45-.55 1.45.85l1.15 1.85q3-1.2 4.15-1.4l1.05-.05q.35 0 .25.6l-.35 1.15-1.3 2.55q-1.05 1.95-.85 2.2l1.85 1.45q1.65 1.25 1.7 1.8.1.6-2.3.95l-2.6.35q-.7 3.95-1.35 3.7l-2.6-2.35-2.25-2.35q-5.6.35-8.1-1.05l-5.25-3.45-.25-1.4q2.7 2.2 5.95 4.05 1.45.8 4.3 1.1h3.45q1.05-.2.7.4l1.85 1.85.5.45 1.4 1.05.35-1.05q.25-1.1.45-1.4.2-.35 1.05-.55l1.65-.3 1.25-.2q.35-.15-.25-.65-2.45-1.95-2.45-2.3 0-.95 1.75-4.25.7-1.35-.3-1.1l-2.05.85-1.75.5-.9-1.35-.8-1.15q-.3.1-1.75 3.75l.25.2q0 .25-1.2.45l-5.75-.25q-1.4-.6-5.25-3.7l-2.95-2.5z"/><path fill="#0d131a" d="M101.75 70.95q1.35-.7 1.2-.85-5-5.75-12-6.55-5.05-.6-7.7 1.05l-.25.35v.15q0 1.7 4.15 6.5 5.2 2.2 11.05.65 1.95-.5 3.55-1.3m2.3-1.4q.6.65.5.95l-1.2 1.05q-3.2 2.05-7.7 2.5-5 .45-8.9-1.6l-.15-.05-.05-.1q-4.8-5.55-4.5-7.5.1-.7.7-1 3.1-1.85 8.05-1.45 7.3.6 13.25 7.2m-35.15 4.4q4.2-6.2 4.2-8.1l-.15-.65q-.55-.9-3-.75-7.8.1-14.5 4.9-2.4 1.7-3.85 3.45-1.35 1.6-1.05 1.95 1.05 1.05 6.1 1.55 6.8.65 12.25-2.35m1-10.45q3.1-.15 3.85 1.25.7 1.25-.4 3.7-.95 2.1-3.75 6.1l-.05.1-.05.05q-4.3 2.75-10.2 2.85-5.3.1-9.35-1.8-1.15-.55-.3-1.85 4.2-6.55 12.6-9.15 4.2-1.25 7.65-1.25"/><path fill="#6cba5a" d="M83 65.1q4.35 2.75 7.65 8.9 3.6 6.7 4.75 15.45 1.1 8.4-4.2 17.65l-7.25 9.9q-2.05-.45-6.7-4.95-6.5-6.25-10.3-15.05-3.85-8.8-.95-19.35 1.65-6.1 5.05-11.4 1.7-2.6 4.7-3.05 3.35-.55 7.25 1.9"/><path fill="#5da24d" d="M83 65.1q3.45 2.2 6.3 6.6-3.1 3-8.7 3.55-3.35.35-10.3-.2-2.15 4.6-3.15 9.7-.8 4.15-1.05 10-2.7-8.3.15-18 1.65-5.45 4.8-10.5 1.7-2.6 4.7-3.05 3.35-.55 7.25 1.9"/><path fill="#ffe792" d="M82.75 65.55Q86.8 73 87.4 82.35q.5 8.45-1.9 14.2-3.7-12.65-7.6-21-3.1-6.6-5.7-9.3l3.4-.5z"/><path fill="#dbc77f" d="M82.75 65.55q2 3.7 3.15 7.85-2.8 1.6-8.35 1.4-2.9-5.9-5.35-8.55l3.4-.5z"/><path fill="#6cba5a" d="M64.75 24.1q-.65-2.35.4-11.3l1.25-9.25q.15-.95.6-1.2.6-.35 1.35.85 1.55 2.5 5.1 9.35 4.3 8.15 4.3 9.3 0 1.9-5.9 3.95-6 2.05-7.1-1.7"/><path fill="#5da24d" d="M64.75 24.1q-.7-2.4.4-11.55 1.6 7.9 4.2 13.85-3.8.45-4.6-2.3"/><path fill="#0d131a" d="m95.1 92.25-.2-2.75q-1.2-9.1-4.95-15.8-3.15-5.65-7.2-8.2-3.85-2.4-7.1-1.8-2.7.5-4.2 2.8-2.2 3.5-3.75 7.5-2.45 6.35-2.45 12.35 0 9.75 8.1 20.55 3 4 6.15 6.8 2.95 2.6 4.1 2.6 2.35 0 6.7-7.9 4.8-8.7 4.8-16.15M83.25 64.7q4.2 2.65 7.55 8.15 3.95 6.55 5.15 14.95 1.35 9.35-4.25 20.05-2.15 4.05-4.55 6.85-2.3 2.65-3.5 2.7-.95 0-4.05-2.4-3.55-2.8-6.75-6.65-9.15-11-9-22.5.1-6.1 2.8-12.4 1.4-3.3 4-7.45 1.7-2.6 4.7-3.2 3.65-.75 7.9 1.9"/><path fill="#0d131a" d="M85.5 94.8q1.45-4.35 1.5-9.85.1-5.35-1-9.9-1.1-4.4-3.55-9l-9.35.55q2.3 2.75 4.85 8 3.9 7.95 7.55 20.2m-2.3-29.45q4.3 7.9 4.9 15.3.55 7.15-2.15 16.05l-.55 1.4q-.25.15-.7-1.5-3.35-12.7-7.8-21.8-3-6.05-5.05-8.2zm-6.75-42.5L74.6 24q-2.95 1.7-5.6 1.95-2.85.3-3.65-1.6l5.6-.55zl.8-1q0-1.05-4.1-8.95l-5.2-9.45-.7-.7q-.25 0-.4.85-.85 5.35-1.4 10.6-.85 7.7-.25 9.8l.15.35-1.65.15q-.6-5.2 1.8-20.9.6-3.45 1.1-3.6.45-.05 2.3 2.95l4.95 9.1q4.35 8.5 4.35 9.8 0 .5-1.75 1"/><path fill="#e9545d" d="M34.85 65.85q3 3.15 4.85 6.15 3.9 6.25 1.95 10.15-1.65 3.3-2.35 3.75-1.8 1.15-5.65-1.4-2.8-1.85-3.8-3.1l.7 1.2q.15 6.3-1.9 8.75-1.3 1.6-5.05 2.6-2.35.6-6.35-.6l-2.3.95-2.2 1q-1.35.8-5.2-1.9L2.6 89.5Q1.2 88.45.75 87.45q-.55-1.1-.1-2.5.7-2.1 1.95-9.9.35-2.55 2.4-3.9l-.45-1.1q-1.05-1.9-.8-2.7.15-.55 1.25-.95l4.85-2.7q3.65-2.25 7-3.35 5.2-1.65 9.45 1.05l3.25.5q1.85.4 5.3 3.95"/><path fill="#c94850" d="M3.75 68.2q3.55-1.5 6.35-1.75l4.45.35q-1.8 1.35-4.45 2.65L5.4 71.6l-.85-1.55q-.65-1.15-.8-1.85"/><path fill="#c94850" d="M5.35 70.95Q4.8 72.25 4.6 76l-1.7-2.15q.65-1.85 2.45-2.9m4.05 18.7 4 1.8 4.05 1.9q-3.95 1.5-4.7 1.95-1.05.65-3.6-.85.4-2.5.25-4.8"/><path fill="#e9545d" d="M11.9 94.25q1-4.2 12.9-9 12.1-4.9 15.35-1.35 2.9 3.2-.25 8.1-1.95 3.1-6 6.35-2.1 1.65-8.4 1.4l-8.25-1q-1.6-.35-2.7.5l-1.6.15q-1-.7-1.2-2.55-.15-1.5.15-2.6"/><path fill="#c94850" d="M39.9 92q-1.95 3.1-6 6.35-2.1 1.65-8.4 1.4l-8.25-1q-1.6-.35-2.7.5l-1.6.15q-1-.7-1.2-2.55-.15-1.5.15-2.6l.25-1.1q.2-.6.95-1.25 1.75.7 7.65 2.25 4.9.9 7.7-2.9 2.2-3.1 2.4-8 7.15-1.7 9.3.65 2.9 3.2-.25 8.1"/><path fill="#c94850" d="M20.05 84.9q.25-3.35-.85-4.1-2.45-2.7-5.4-3.4-2.45-.6-6.8-.05l.25 2.2q0 1.4.55 2.2.8 1.25 1.75 1.9.7.55 2.45 1.3l3.15 2.45q2 1.65 3.3 1.25 1.35-.35 1.6-3.75m5.35-18.15q3.15 2.05 4.45 4.2Q31 72.8 29.7 76.2q-1.2 3.3.25 5.25l.6 1.15q.2 5.55-1.45 8.2.35-4.8-4.3-14.9l-1.35.95q-1.15.55-1.25 1.05-.25 1.2.25 4.75.4 3.1-.25 4.35-1.55 3.05-8.25 4.95l-2.7-1q-1.45-.6-3.5-2.3-2.15-1.75-3.6-3.5-.7-.9-.3-3.1.35-2.25 1.7-4.3 3.45-5.4 8.9-3.3 1.75.65 3.8 2.7 1.85 1.75 3.35 2.05l-2.1-3.05q-1.1-1.8-2.25-2.6-2.35-1.65-5.6-2.1-3.4-.5-6.35.6.6-.7 3.55-2.05l3.9-2.25q1.2-1.2 3.35-2.4 2.2-1.3 3.3-1.4 3.05.9 6 2.8"/><path fill="#c94850" d="M39.3 85.9q-1.8 1.15-5.65-1.4l-2.1-1.5q3.3-5.95 1.4-12.05-1.85-5.95-7.7-9.55l4.3.5q1.85.4 5.3 3.95 3 3.15 4.85 6.15 3.9 6.25 1.95 10.15-1.65 3.3-2.35 3.75"/><path fill="#d6e6ae" d="M98.95 43.1q.4 9.25-5.85 16.15-6.4 7.05-16.2 7.5-9.85.45-17.1-5.9t-7.65-15.5Q51.7 36.1 58.05 29q6.5-7.2 16.3-7.65t17.05 6.1q7.15 6.4 7.55 15.65"/><path fill="#b9c897" d="M52.15 45.35q-.2-3.35 2.2-2.1t2.9 4.3q1.5 8.7 6.75 13.75 4.9 4.65 12.4 5.45-9.7.25-16.8-6.05-7.05-6.3-7.45-15.35"/><path fill="#6cba5a" d="M97.05 45.7q-.65-3.4-2.65-6.05-.25 1.85-1.4 4.3-1.3 2.8-2.65 3.85-1.7-3.15-4.25-6.75-3.15-4.55-5.45-6.4l-3.3 7.45L74 48.75q-7.65-6.55-8.6-7.8-5.55 7.9-6.3 11.05.05 2.65 1.65 5.85l3.3 5.95q-5.2-2.85-8.4-7.7-3.25-4.95-3.5-10.75-.45-9.25 5.9-16.35 6.5-7.2 16.3-7.65t17.05 6.1q7.15 6.4 7.55 15.65.2 4.35-1.3 8.65z"/><path fill="#5da24d" d="M52.8 38.75q.55-2.1 3.05-2.75 2.55-.65 2.9 1.4l-.3 5.6q-.35 4.7.65 9 .05 2.65 1.65 5.85l3.3 5.95q-5.2-2.85-8.4-7.7-3.25-4.95-3.5-10.75-.2-3.3.65-6.6"/><path fill="#6cba5a" d="M61.55 27.7q1.6.55 1.05 2.9-.55 2.05-2.4 4.6-1.9 2.5-3.85 3.65-2.15 1.35-3.25.2l-7.85-9.35L39 21.55q-.65-1.25-.25-1.8.35-.45 1.4-.15l9.45 3.55z"/><path fill="#5da24d" d="M51 30.9q7.6 5.45 7.6 6.1.1 1.15-1.75 2.6-1.9 1.5-2.8.6l-8.3-9.9Q39.7 22.8 39 21.55l-.15-.3Q42.05 24.5 51 30.9"/><path fill="#6cba5a" d="m85.5 24.6 8.5-6q7-5 7.7-5.2 1.1-.3 1.4 0 .5.4.05 2.15L100.3 24q-2.55 6.85-4.1 9.85z"/><path fill="#0d131a" d="m26.55 61.05-2.25-.1q-3.5-1.4-7.3-.15t-7.85 3.7l-4 2.35q-1 .25-.85 1.3l.65 1.7.8 1.6-.95.6-.45-1.85-.95-1.85q-.25-.75-.1-1.25.25-.6 1.5-1.15L9 63.5q4.2-2.5 7.5-3.75 2.65-1.05 5.6-.5 2.4.45 4.45 1.8"/><path fill="#0d131a" d="m4.6 70.85.4.9q-1.55 1.1-1.95 3.35-1 7.2-1.95 10-.35 1.15.05 2.1.4.9 1.75 1.9l4.25 3.25q4.4 3.1 5.35 2.55l4.35-1.85 1.1.45q-2.9.95-4.95 2.2-1.2.7-6.15-2.35l-4.65-3.2Q0 88.5 0 86.2l.2-1.4q.8-2.35 1.95-9.35.25-1.85.6-2.65.55-1.4 1.85-1.95"/><path fill="#0d131a" d="m11.4 97.35-.15-2.1.95.25q-.1 2.7 1.05 3.5.3.2.45.2l.45-.25q1.45-1.05 3.2-.65l8.6 1q5.75.2 7.65-1.35 7.1-5.75 7.45-10.2.2-2.05-.75-3.25l.35-.75q1.5 1.8 1.35 4.1-.25 2.85-2.95 6.35-2.05 2.6-4.8 4.8-3.6 2.85-16.35.2l-1.95-.05q-.85.1-1.2.45-.75.7-1.15.75l-1.2-.5q-.7-.5-1-2.5"/><path fill="#0d131a" d="M20.5 63.65q3.25.6 6.6 3.7 2.6 2.35 3.3 3.95.4.9.25 3l-.4 3-.6 2.3q0 .9.85 1.85l3.4 2.7q3.45 2.2 4.75 1.85 1.05-.3 2.55-4.05 1.85-3.65-1.9-9.7-1.8-2.8-5-6.1-3.4-3.5-5.1-4.05l-4.3-.35q-2.95.2-4 1.15-.35.35-.4.75m4.35-2.75q2.95-.1 4.85.55 1.95.65 5.45 4.2 3.2 3.3 4.95 6.1 4.05 6.45 1.95 10.6l-.4.9-1.15 2.15q-.75 1-1.75 1.25-1.9.6-5.35-1.75-2.65-1.75-3.75-3-.95-1.15-.95-2.25l.6-2.6.45-2.9.05-2.5q-.2-.95-3.45-3.7-3.75-3.2-6.65-3.55-.55-1.05.55-2.2 1.2-1.2 4.6-1.3"/><path fill="#0d131a" d="m6.25 70.65 2.4-1.1q3.1-1.5 3.75-2.15 1.25-1.25 3.95-2.5 2.85-1.35 3.9-1.05l-.55.6q-.6-.2-2.95 1.05-2.4 1.3-3.7 2.6-.8.8-4 2.35l-2 .85q-.95.5-1.55 1.3-.65.85-.6 2.75 0 1.8.45 2.15l1.55-1.8.45.4-1.95 2.95q-1.1 2-1.35 3-.45 1.65.45 2.8Q7.25 88.2 12 90.8q2.5 1.3 5.3 2.15 3.9 1.15 6.2.55 3.5-.9 4.85-2.6 2.1-2.65 1.95-8.75l.75.45q.15 6.4-1.55 8.85-1.25 1.85-5.1 2.8-2.5.65-7.15-.6-3.3-.9-5.65-2-1.55-.75-3.8-2.45-2.6-2-4-3.75-.85-1-.85-2.35 0-.95.9-3l.95-2.05-.5-.3q-.5-.55-.45-1.65.15-2.85.9-4.1.5-.8 1.5-1.35"/><path fill="#0d131a" d="m13.4 92.25-.05-.55q3.6-.65 8-4.2.55-.4.55-1.85l-.2-2.85q-.4-3.1-.05-4.4.5-1.95 3.7-3.25 2.6-1.05 4.45-1.05l.1.55q-1.5 0-4.05 1.15-2.9 1.3-3.3 2.8-.3 1.2.1 4.1l.2 3.3q-.1 1.6-.9 2.25l-3.8 2.35q-2.55 1.25-4.75 1.65"/><path fill="#0d131a" d="m5.65 78.15-.5-.45q1.9-3.3 5-4.05 2.65-.65 5.1.65l3.5 2.65q2 1.9 3.2 2.35l-.35.9q-1.25-.5-3.5-2.55l-3.3-2.5q-2.2-1.15-4.45-.65-2.8.65-4.7 3.65"/><path fill="#0d131a" d="M9.55 84.2q-2.3-1.05-2.85-4.1-.4-2.35.2-4.35l.55-.35q-.55 1.7-.05 4.1.6 2.95 2.55 3.85 2 .85 3.5 2.3 2.05 1.9 3.5 2.5l3.05.4.15.95q-1.7.25-3.7-.75L12.9 86.4q-1.95-1.55-3.35-2.2"/><path fill="#0d131a" d="M12.6 85.85q-.3-3.95 1-7.1 1.05-2.65 2.6-3.4l.3.4q-1.15.6-2.2 3.4-1.2 3.35-.9 7.05zM98.5 43.1q-.25-4.6-2.25-8.55l.5-1.1q2.85 5.25 3.05 9.85.45 9.65-6.65 16.65-6.8 6.65-16.2 7.1-10.1.45-17.65-5.8-7.6-6.3-8-15.7-.15-3.95.7-7.35l1.1 1.25q-.65 3.05-.5 5.9.4 9.1 7.55 15.2 7.1 6.15 16.75 5.7 8.9-.4 15.2-6.55 6.85-6.7 6.4-16.6M86.95 23.7l-1.15.5q-5.45-2.65-11.45-2.35-7.95.4-13.9 5.45l-.95-.4q2.4-2.7 6.25-4.4 3.85-1.65 8.15-1.9 3.4-.15 6.85.65 3.6.85 6.2 2.45"/><path fill="#0d131a" d="m96 34.15.2-.65.2-.7q2.75 4.75 3.05 10.25.1 2.3-.35 5.05-.4 2.8-1 3.8-1.5 2.45-1.15.8.3-1.35-.25-5.2-.65-4.5-2.05-6.65-.45 1.7-1.5 3.8L91.05 48q-.65.85-1.1 0-1.05-2-5-7.35-3.95-5.3-4.1-5l-6.1 12.95-.35.7q-.25.2-.7-.2-7.75-7.4-8.25-7.4-.3 0-3 4.75-2.6 4.65-2.9 5.6.05 2.15 2.3 6.75 1.75 3.75 2.7 4.95.45.55-.1.55l-.6-.1q-5.45-2.95-8.7-7.95t-3.5-10.9q-.15-3.55.8-7.1l.7.95q-1.65 7.15 1.65 14 2.8 5.85 7.9 9.2l-.05-.1q-1.95-2.8-3.25-5.9-1.3-3.15-1.1-4.45.2-1.1 2.9-5.65l3.25-5.15.75-.8.6.35q2.1 1.6 5.4 4.7l2.75 2.4q.35-.1 6.05-13.3.35-1.15 1.25-.2 1.6 1.6 4.6 5.75 3.05 4.2 4.65 6.95 1.05-1 2.25-3.8l1.2-3.6q.2-.95.35-1.05l.55.55q1.65 2.9 2.35 5.2.7 2.35.7 4.9 1.8-7.4-1.9-15.05"/><path fill="#0d131a" d="M50.65 22.9q8.85 3.6 10.85 4.6 1.15.6.85.75l-1-.15L40 20.05l-1.25-.2q-.1.25.65 1.45 1.1 1.65 14.05 17.4.85 1 .75 1.3-.15.35-1.45-.85l-7.3-8.25-6.95-8.6q-2.5-3.4-2-4.05.4-.5 3.1.4 2.2.7 11.05 4.25m50.95-9.95q1.85-1 2.45-.6.4.35.3 1.3l-.5 1.95-3.5 9.6-3.7 8.85q-.65 1.1-1 .7-.35-.35.15-1.15l3.45-8.5 3.45-9.7.15-1.3q-.15-.3-.95.15l-8.4 5.55-7.7 5.2q-.7.35-.95 0-.25-.3.4-.8zM75.25 52q.35-.5.7-.2.3.3.05.65-2.15 3.15-5.45 3.45-2.7.35-5.6-1.8-.45-.35-.35-.8l.65-.05 2.25 1.2q1.75.7 2.9.55 2.85-.45 4.85-3"/><path fill="#0d131a" d="m68.45 56.95.3-1.3.45.15-.3 1.25-.35.35q-.25-.1-.1-.45m3.9-2.1.4-.2.65 1.45q.2.4 0 .5l-.4-.3zM92.15 51q.8-.75 1.05-1.5t.5-.55 0 1.05q-.15.75-1.05 1.65-.95 1-1.9 1.25l-3-.15q-1.1-.35-1.8-.9l-.4-.7q.05-.35.5-.15 2.6 1.5 4.45 1 .8-.2 1.65-1"/><path fill="#0d131a" d="m92.6 51.3.4-.25.8 1.3q.15.25-.05.35t-.35-.1zm-4.1 2.75.35-1.45.45.1-.3 1.45-.3.25q-.25-.05-.2-.35m-6.95 8.1q1.75-.15 2.6-.75.8-.55.8-.3l-.45.7q-1 .95-2.9 1.15t-3.1-.5q-.65-.4-.55-.6l.9.1z"/></svg>