<svg xmlns="http://www.w3.org/2000/svg" width="209" height="182" viewBox="-0.2 -0.7 208.85 182.35"><path fill="#0d131a" d="M50.2 117.3q6.4 6.15 8.35 12.1l1.2 4.3q.25 2-.85 3.1-7.5 7.8-8.8 23.95l-.35 4.75q-.2 1.95-.9 2.55-3.25 2.7-11.55 3.7-8 .95-14.9-.35-2.95-.55-5.65-1.95-3-1.5-3.9-3.15-.65-1.25.05-7.5.75-6.65 2.6-14.55 4.85-20.9 12.2-30.6l.5-1.5q2.65-3.45 9.25-2.3 6.05 1 12.75 7.45"/><path fill="#f2984f" d="M56.7 135.9q-4.65 4.8-6.7 12.65-1.15 4.4-1.85 12.5-.4 5.55-1.05 6.1-2.85 2.4-10.5 2.95-7.2.5-14.05-.8-7.2-1.45-8.4-3.65-1.55-2.8 3.45-21.65 5.5-20.85 12.65-30.25 2.5-3.25 7-2.5 5.7 1 12.05 7.1 6.05 5.85 7.9 11.5 1.45 4.05-.5 6.05"/><path fill="#d18344" d="M57.2 129.85q1.45 4.05-.5 6.05-4.65 4.8-6.7 12.65-1.15 4.4-1.85 12.5-.4 5.55-1.05 6.1-2.85 2.45-10.65 2.95 1.1-1.7 1.65-8.15.65-6.95.25-15.05-1.15-21.45-8.4-32.8l.3-.35q2.5-3.25 7-2.5 5.7 1 12.05 7.1 6.05 5.85 7.9 11.5"/><path fill="#0d131a" d="m50.95 146.2 1.05-.35-.35 1.05q-.85 2.45-1.4 6.7l-.15 1.2-.4.05q-10.75 2.5-19.8.6-9.35-2-14.2-8.25l-.2-.2 2.1-7.95.7.7q5.25 5.35 15.5 7.15 9.7 1.7 17.15-.7"/><path fill="#686d70" d="M18.4 141.35q5.5 5.1 14.45 6.75 8.7 1.6 17.4-.55-1 3.65-1.3 6.35-9.85 1.9-18.3.3-9.25-1.8-13.8-7.4z"/><path fill="#515457" d="m38.5 154.9-.15-6.2q6.3.25 11.9-1.15-1 3.65-1.3 6.35z"/><path fill="#0d131a" d="M13.45 158.1q.7-.2.9.6l1.15 4q.8 3.4.8 5.05l-.25 1.2q-.25.35-.65.35l-6.15.45q-1.65.05-1.75-.5 2.5-9 5.95-11.15"/><path fill="#eeeeef" d="M13.35 159.85q1.85 6.3 1.85 7.95l-.05.4q-4.75.35-5.8.05.05-1.05 1.1-3.6 1.35-3.2 2.9-4.8"/><path fill="#c8c9ca" d="M13.7 161q1.5 5.3 1.5 6.8l-.05.4q-4.75.35-5.8.05l.3-1.35q2.95-3.75 4.05-5.9"/><path fill="#0d131a" d="M18.6 160.75q.75-.25 1 .6l1.35 3q1.2 3.5.35 6.05-7.5 3.05-8 2.75l-.35-1q-.4-2.45 1.95-6.85 2.25-4.2 3.7-4.55"/><path fill="#eeeeef" d="M14.55 171.1q0-2.1 1.6-5.35 1.45-2.95 2.45-3.75l1 2.15q.9 2.55.8 4.95l-.05.35-2.9 1-2.85.95z"/><path fill="#c8c9ca" d="M19.4 163.7q1.15 2.65 1 5.4l-.05.35-2.9 1-2.75.9q1.6-4.25 4.7-7.65"/><path fill="#0d131a" d="M29.9 163.6q.75.7 2.2 3.4 1.55 2.95 1.5 4.2l-.4.85q-5.1 3.65-8 4.55l-.5-.35q-.3-.5-.25-1.25.1-4.35 1.45-7.7 1.2-3 2.75-3.8z"/><path fill="#eeeeef" d="M26.2 173.85q0-2.55 1.15-5.9 1.1-3.15 1.8-3.45 1.35 1.15 2.4 3.45.95 2.05.95 3.1l-.05.15q-4.05 2.9-6.2 3.45z"/><path fill="#c8c9ca" d="m32.5 171.05-.05.15q-3.65 2.6-6 3.4 1.35-5.5 3.85-8.85.9 1.25 1.6 2.95.6 1.55.6 2.35"/><path fill="#0d131a" d="M171.4 65.55q4.6-2.3 5.75-2.55 3.7-.9 5.45 2.3 3.15 5.6 5.2 10.95l.35.75-18.4 1.9-.75-12.35.45-.1z"/><path fill="#515457" d="M171.9 66.55q3.6-1.75 5.45-1.9 2.7-.25 4.1 2.25l4.95 9.15-15.6 1.6-.65-10.3z"/><path fill="#0d131a" d="M175.2 93.25q3.55-7.15 8.25-12.9 5-6.15 7.7-6.15 1.9 0 4.7-1.6 2.4-1.3 6.75-4.6 2.3-1.8 3.3-2.05 2.75-.7 2.55 4.45-.35 9-9.5 22.6-10.4 15.4-21.5 17.35-3.65.65-5.25-1.4-1.7-2.25-.3-7.45 1-3.6 3.3-8.25"/><path fill="#f2984f" d="M191.15 75.3q4.5 0 13.05-6.45 1.15-.85 1.4-.6.55.3.55 2.6 0 2.1-2.3 7.7-2.55 6.3-6.2 12.3-10.05 16.55-20.4 18.35-3 .6-4.1-.9-1.2-1.6-.4-5.45.8-3.9 3.45-9.1 3.55-7.1 8.15-12.8 4.6-5.65 6.8-5.65"/><path fill="#d18344" d="M193.25 75q.6 3.75 6.3 2.1 2.9-.85 5.8-2.5-3.2 10-10.15 20.05-9 12.95-17.95 14.55-3 .6-4.1-.9-1.2-1.6-.4-5.45.8-3.9 3.45-9.1 3.55-7.1 8.15-12.8 4.6-5.65 6.8-5.65z"/><path fill="#0d131a" d="M201.65 154.8q-.4 2.7-3.9 5.35-4.2 3.2-13.7 3.8l-12.45-.4q-9.65-1.35-9.65-5.7l.45-10.65q.25-11.35-.5-14.95-9.25 7.85-31.35 14.4-25.65 7.55-48.05 5.95-14.35-1-28.4-8.7-15-8.15-25.25-21.65l-.3-.35q-2.1-2.6-1.55-6.55 1-6.95 10-16.75 7.3-7.95 16.15-14.15 5-3.55 24.55-4.9 17.1-1.2 39.05-.4 22.25.85 38.75 3.4 19.55 3.05 24.15 7.6 8.55 8.55 16.1 32.75 7.1 22.6 5.9 31.9"/><path fill="#f2984f" d="m162.8 129.55-.9.85q-7.85 7.5-30.65 14.45-26.2 7.9-48.65 6.3-14.25-1-29.25-9.9-13.7-8.15-23.4-19.85l-.25-.4q-1.75-2.2-1.3-5.45.9-6.15 8.95-15.2 7.3-8.2 16.6-14.75 4.4-3.05 21.9-4.45t40.85-.55q24.3.9 41.15 3.8 16.85 2.85 20.8 6.8 8.15 8.15 15.3 32.2 6.7 22.3 5.55 31.4-.4 2.55-2.6 4.2-3.95 3.05-13.1 3.55l-12-.4q-7.95-1.1-7.85-4.85l.1-2.05q.9-16.35-.95-24.5z"/><path fill="#d18344" d="M189.15 141.6q-6.55-6.9-12.25-8.6-5.6-1.65-8.85-.55-2.25.75-4.15 3.3l-.8-5-.3-1.2-.9.85q-7.85 7.5-30.65 14.45-26.2 7.9-48.65 6.3-14.25-1-29.25-9.9-13.7-8.15-23.4-19.85l-.25-.4q-1.75-2.2-1.3-5.45.9-6.15 8.95-15.2 7.3-8.2 16.6-14.75 4.4-3.05 21.9-4.45t40.85-.55q24.3.9 41.15 3.8 16.85 2.85 20.8 6.8 8.15 8.15 15.3 32.2 6.7 22.3 5.55 31.4l-.1.4q-5.15-8.15-10.25-13.6"/><path fill="#0d131a" d="m162.9 142.95-.2-6.7.9.45q6.15 3.05 16.1.95 10.8-2.3 15.85-9.1l.7-.9 1.2 4.2 1.15 4.3.05.35-.25.2q-6.1 6.85-17.45 8.7-11.05 1.85-17.8-2.3z"/><path fill="#686d70" d="M163.95 138.1q7.8 2.45 17 .5 10.1-2.15 14.8-8.55l.6 2.15 1.05 3.85q-6.1 6.1-16.65 8-10.4 1.9-16.7-1.8z"/><path fill="#515457" d="m196.35 132.2 1.05 3.85q-3.35 3.35-8.55 5.6l-4.1-4q7.3-2.65 11-7.6z"/><path fill="#0d131a" d="m169.55 155.85 1.25-.05q1.05.6 2.3 3.55 1.15 2.8 1.05 3.95-.05.85-1.1 2.4l-1.6 2.2q-.55.75-1.1.65-.5-.15-1.3-1.2-1.95-2.5-2.3-4.1-.25-1.1.7-3.7.95-2.75 2.1-3.7"/><path fill="#eeeeef" d="M167.85 162.95q-.1-.1.7-2.7.9-2.8 1.65-3.45.8.25 2.6 5.75l-1.05 2.6q-.95 1.65-1.2 1.55l-1.4-1.6z"/><path fill="#c8c9ca" d="M170.9 157.65q.85 1.6 1.9 4.9-.15 1.2-1.5 3.35z"/><path fill="#0d131a" d="M182.25 155.7q1.2.8 2.3 3.25l1.3 3.8q.25 1.2-.55 2.9l-1.45 2.45q-.45.9-.9.9l-.75-.4q-.7-.4-2.25-2.5-1.8-2.45-1.6-3.55.3-1.6.85-3.25 1.05-3.3 2.1-3.75z"/><path fill="#eeeeef" d="M179.45 162.75q-.1-.8.8-3.5.9-2.75 1.4-2.6 1.15.35 2.1 3.4l.75 3.05-.45 2.15q-.45 1.45-.9 1.9t-2.05-1.6q-1.5-1.95-1.65-2.8"/><path fill="#c8c9ca" d="M184.5 163.1q0 1.15-.8 3.15l-1.5-9.25q1.45 1.4 2.3 6.1"/><path fill="#0d131a" d="m192.65 154.2.95.05q1.2.8 2.3 2.6 1.15 1.85 1.25 3.3.15 2.05-.15 4.1-.2 1.8-.6 2.7-.25.7-.95.45l-1.45-.85-2.55-2.15q-1.75-1.7-1.5-2.45l.85-4q.8-3.25 1.85-3.75"/><path fill="#eeeeef" d="M191.05 162.1q-.25-.7.65-3.75.85-3.1 1.4-3.05t1.75 1.95q1.2 1.95 1.35 3 .15 1.15-.2 3.3-.35 2.25-.75 2.25l-2.15-1.5q-1.85-1.55-2.05-2.2"/><path fill="#c8c9ca" d="M196.2 160.25q.25 1.5-.4 4.35-.95-4.55-2.65-9.25.6.15 1.75 2t1.3 2.9"/><path fill="#0d131a" d="M167.25 121.2q-2.15 6.5-5.05 12.2-2.55 5.1-4.05 6.4-17.75 10.25-35.75 14.65-15.7 3.85-30.55 3.05-.2 0-.85-.45l-.85-.45q-13.05-.9-23.1-4.65-9.15-3.45-13.45-8.3l-.95-1.5 1.65.65q14.5 6.05 27.45 5.65 12.9-.4 21.9-7.1 9.4-7 13.3-20.1 3.95-13.15 2.05-31.4-.55-5.35 8.7-7.3 10.45-2.2 24.5.75 15 3.1 17.15 9.2 3.75 10.8-2.1 28.7"/><path fill="#686d70" d="M164.8 121.9q-4.3 12.7-9.05 17-22.05 13.9-47.95 16-16.7 1.35-32.2-2.2-6.8-1.55-12.1-3.8-4.65-2-7.2-4.1 14.15 5.35 26.65 4.75 12.5-.65 21.35-7.25 9.7-7.2 13.7-20.6 4.05-13.4 2.15-31.95-.25-2.45 2.35-4.1 2-1.25 5.45-1.95 10.5-2.2 24.3.7 14.2 3 16 8.45.85 2.8.85 6.55 0 9.75-4.3 22.5"/><path fill="#515457" d="M164.8 121.9q-4.3 12.7-9.05 17-22.05 13.9-47.95 16-16.7 1.35-32.2-2.2-6.8-1.55-12.1-3.8-4.65-2-7.2-4.1 14.15 5.35 26.65 4.75 12.5-.65 21.35-7.25 9.7-7.2 13.7-20.6 4.05-13.4 2.15-31.95-.25-2.45 2.35-4.1 2-1.25 5.45-1.95 10.5-2.2 24.3.7 14.2 3 16 8.45.85 2.8.85 6.55 0 9.75-4.3 22.5"/><path fill="#0d131a" d="m123.15 84 .6-.25.2.6q4.9 15.1 3.8 29.05-1.15 14.35-8.5 24.25-6.35 8.55-16.95 12.95-10.35 4.3-23 4.05h-.05l-.05-.05q-10.2-1.9-17.45-5.2-6.35-2.95-8.15-5.75l-.95-1.5 2.7.3q6.45 4 21.45 4.5 16.9.5 25.1-5.6 9.1-6.75 13.85-20.3 5-14.3 3.25-31.2-.35-3.7 4.15-5.85"/><path fill="#515457" d="M120.1 89.3q0-2.25 2.95-3.9 3.45 10.9 3.45 21.4 0 8.6-2.25 16.2-2.35 7.7-6.8 13.7-6.35 8.5-16 12.8-9.7 4.25-22.05 4-8.05-1.5-14.45-4-5.75-2.25-8.7-4.7 33.4 10.15 50.85-6.55 16.4-15.7 13.05-48.5z"/><path fill="#0d131a" d="M162.65 129.45q1.95-.75 4.75-4.2l3.65-4.95q1.15-1.55 1.4-1.1t-.45 1.7l-2.9 5q-3.1 4.25-7.55 6.35zm6.45-68.8q5.15 5.3 6.55 9.1l11.95.75 6.2-.5 2 4.45-9.3 27.9-12.3-8.8-12.55 18-13.75-9.4-12.6 14.2-22.6-18.7-33.65 10.1-.3-.45L60.05 81q-5.2 1-9.05 0-3.9-1-5.6-3.75-3-5 3.25-14.35 7.6-11.4 21.7-18.3 17.2-8.4 41.6-8.55 21.55-.15 43.65 13.8 7.8 4.95 13.5 10.8"/><path fill="#686d70" d="m194.25 74.6-8.5 25.45-11.9-8.5-12.55 18.05-13.65-9.35-12.5 14.1-22.1-18.25-33.45 10-18.65-26.3-.25-.4-.45.1-8.5.25q-3.6-.8-5.15-3.25-1.45-2.35-.6-5.7.8-3.35 3.75-7.05 8.45-10.6 21.5-17 17.15-8.35 40.7-8.5 22.45-.15 42.25 13.15 14.65 9.85 21.4 21.2.4.7 1.05.85.65.1.55-.35l-.45-1.65q3.75.9 9.7.8l6.85-.4z"/><path fill="#515457" d="m193.3 71.85.95 2.75-8.5 25.45-11.9-8.5-12.55 18.05-13.65-9.35-12.5 14.1-19.5-16.1 5.2-.1 5.1-.4q3.4-.85 4.85-9.2 1.5-8.3.15-18.6-1.45-11.45-5.9-19.6-5.2-9.5-13.3-12.1h.2q22.45-.15 42.25 13.15 14.65 9.85 21.4 21.2.4.7 1.05.85.65.1.55-.35l-.45-1.65q3.75.9 9.7.8z"/><path fill="#0d131a" d="M93.35 43.25q6.1-2.45 8.5-2.85l.15 1.1q-2.7.45-9.2 3.25-7.35 3.2-14.7 7.5-20.05 11.65-26.6 23.2l-.95-.55q7.4-13.2 28.1-24.65 7.25-4 14.7-7m76.85 38.9-1.05.75Q158.6 64.85 138.95 52q-13.7-8.9-23.25-11.15l.25-1.15q13 3.05 27.5 13.5 17 12.3 26.75 28.95m-8.2-21.4 5.4 1.6q3.45 1.35 5.45 3.3l-.8.8q-2.9-2.9-10.3-4.6l-1.8-.5.35-1.05z"/><path fill="#0d131a" d="m112.05 72.25.25-.2.3.1q7.9 2.75 18.25 9.05 7.55 4.6 14.6 9.85l.25-10.65V70.3l-.1-1.5h1.15l.05 1.45q.7 13.9-.05 22.35l-.1.95-3.3-2.3Q124.25 77.5 112.5 73.3L94.85 85.6l-14.4 9.75-1.9-.1L72.8 80q-6.2-15.55-8.5-17.25L54.15 64.2l-7.35 1.3-.2-1.15 7.75-1.3 10.1-1.45h.2l.15.1q2.6 1.75 6.8 11.25 2.45 5.6 6.4 16.3l1.85 4.7q26.3-17.35 32.2-21.7"/><path fill="#0d131a" d="M164.7 84.85q4.5-2.4 8.3-5.95 3.15-2.9 3.45-4.05.2-.8.8-.6.55.2.3.85-.75 2-3.95 5.25-3.95 3.95-8.8 6.55-16.35 8.8-39.6 11.75-30.4 3.9-55.9-6.05l.4-1.05q25.15 9.8 55.55 5.45 22.8-3.25 39.45-12.15m-85.5-26.9-.1.2-3.3 5.35q-3.15 4.55-6.05 6.65L53.6 71.8l-.25-.45-2.1-6.9 6.7-5.8q7-6 8.6-6.9h.05l.05-.05 11.1-.7.55.45.55 2.65q.45 2.75.35 3.85"/><path fill="#e9545d" d="m75.75 56.7.5 3.9q-3.9 5.6-7.25 8l-8.4.85L59.55 66q-.15-.35.25-.7l8.9-7.7.6-.25 5.95-.85q.45-.05.5.2"/><path fill="#0d131a" d="m106.8 43.25 1.05-.45q.7 1.8 4.35 22.85 3.8 22 4.5 29.5l-2.15-1.35q-.7-7.7-4-28.95-3.2-20.2-3.75-21.6"/><path fill="#0d131a" d="m195.7 71.7 1.15 1.6v1.9q-5.8 29.05-9.3 30.9l-6.4-3.85q-6.45-3.85-6.8-3.85-.25 0-6 8.5-5.8 8.55-6.2 8.6t-6.9-3.85q-6.55-3.95-6.8-3.95l-6.9 6-7.2 6.05q-.5.05-11.95-8.75l-11.65-8.95-16.4 5.6q-16.15 5.6-16.5 5.45-.6-.3-18.3-28.8-.1-.2-2.95.85l-2.85 1.1-1.3-9.2 4.6-1.25q4.65-1.25 5.15-1.15.45.1 9 14.15l8.8 14.25q.3.2 16.6-5.6 16.45-5.85 16.8-5.85l10.15 8.35 9.75 8.3 5.5-4.35 7.65-6q-3.15-2.1-2.65-2.4.5-.35 3.85 1.65l5.85 3.45 5.6 3.15 5.15-6.45q5.5-7.25 6.95-8.85-3.55-1.65-3.1-2.15.45-.45 4.25 1.15L180.3 91l5.15 2.15q7.6-20.15 7.75-22.05.1-1.2.5-1.2l.75.3z"/><path fill="#515457" d="M195.55 74.15q-1.9 9.65-4.05 17.85-2.7 10.1-4.3 11.5l-6.35-3.65-6.15-3.65-.55-.3q-.3 0-.6.4-11.35 16.65-11.8 16.75-.2.05-7-3.65t-7.05-3.6l-6.85 6-7 6q-.65.15-22.45-17.7l-16.35 5.3q-16.45 5.3-16.7 5l-9.25-14-9.2-13.95q-.2-.15-2.35.85l-2.85 1.35-1-6.75 4.25-1.05q3.55-.85 3.75-.55 17.25 27.6 17.85 28.1.35.3 16.7-5.25l16.75-5.8 20.15 16.8 7.15-5.65 7.2-5.75q1.25.9 6.15 3.8 5.3 3.1 5.7 3.05.3-.05 6.6-8.25l6.5-8.3 6.85 3.05 5.85 2.75.85.35.4-.6q6.95-16.25 7.85-22.3z"/><path fill="#0d131a" d="m109.45 56.45.25-.2.3.1q1.15.4 5.4 2.8l5.35 3.1q.6.35.7.85l1.65 6.1 1.9 8.55q.1.7-.25 1.05l-5.8 4.5-4.4 3.15q-12.45-3.95-14.45-4.9-.45-.25-.4-1l.3-7.45.15-7.95q0-.35.15-.55.1-.15.65-.6z"/><path fill="#e9545d" d="M105.65 70.1q0-.35.25-.6l4.75-5.05.75-.1 5.7 3.65.45.65 2.15 12.4-5.3 3.7-9.15-2.9z"/><path fill="#0d131a" d="M162 61.25v.1q.7 2.6-.5 9.45l-15.4 1.25-9.65-13 .85-9.3 5.45.25 6.9.7h.1l.1.05q2 1.4 6.2 4.95 5.2 4.25 5.9 5.5z"/><path fill="#e9545d" d="m156.35 64.1.1.25-1.15 5.25-2.6.3-6 .6-5.1-6.7q-3.35-4.55-3.8-5.5l.35-2.45L147.9 57l.5.2z"/><path fill="#686d70" d="M68.85 56.5q-.4.05-.65.25l-9.6 8.15-.3.35.05.4 1.35 3.85-5.4.6-.8-5.65V64l.35-.45q11.4-9.75 13.2-10.75l10.25-.65q.75 3.4.75 5.3v.3l-.9 1.65-.6-3.9q-.05-.15-.4-.15z"/><path fill="#515457" d="M68.85 56.5q-.4.05-.65.25l-9.6 8.15-.3.35.05.4 1.35 3.85-5.4.6q-1.55-3.6-1.75-4.8v-.5l.35-.45Q65.2 53.8 67.05 52.8l10.25-.65-.75 3.35q-.05-.15-.4-.15z"/><path fill="#686d70" d="m111.15 62.85-.7.05-5.8 6.25q-.15.25-.15.45l-.35 11.95q-2-.55-3.05-1.1l.3-7.65.15-7.6 8.45-7.35q2.15.85 10.15 5.55 2.5 8.75 3.45 14.45l-2.9 2.3-2.15-12.2-.3-.45z"/><path fill="#515457" d="m110 57.85.45 5.05-5.8 6.25q-.15.25-.15.45l-.35 11.95q-2-.55-3.05-1.1l.3-7.65.15-7.6z"/><path fill="#686d70" d="m160.95 61.7.2 2.2q0 3.4-.7 5.25l-4.05.35 1.15-5.65-.15-.35-8.6-7.55-.7-.2-9.8-1 .6-3.8 5.4.25 5 .55q2.05 1.5 6.1 4.85 4.85 4 5.55 5.1"/><path fill="#0d131a" d="M51.05 18q1.3-4.05 4.2-4.6 1.8-.3 3.6.9 4.95 3.35 6.15 9.65.9 6.6-.65 10.65-1.4 3.65-4.35 4.4-1.75.4-3.6-.95-1.95-1.35-3.5-4.2-1.5-2.85-2.15-6.4-1-5.35.3-9.45"/><path fill="#d18344" d="M55.45 14.5q1.35-.2 2.75.75 1.8 1.25 3.2 3.9 1.4 2.6 2.05 5.95.85 4.75-.2 8.55-1.1 3.8-3.45 4.2-1.3.25-2.75-.75-1.8-1.2-3.2-3.85t-2-6q-.9-4.7.2-8.5 1.05-3.8 3.4-4.25"/><path fill="#0d131a" d="M61.9 24.4q-.8.2-1.1-.4-.25-.65.4-.9 1.3-.45 2.65.3l.05 1.25-.9-.35z"/><path fill="#f2984f" d="M49.75 7.8q8.8 8.2 11.6 17.6 1.8 6.1.95 12.2-.6 4.55-2.05 6.25-1 1.25-3.7 2Q56.6 47 54.6 49.3q-2.3 2.6-5.3 4.15Q48.55 64.4 59 86.5q.2.45-.2 2.25-.4 1.65.2 2.25 2.4 2.5.9 10.2-1.45 7.5-5.5 14.8-4.5 8.05-9.65 10.95-6.1 3.45-11.55-1.4-11.25-10.05-19.5-28.4-5.65-12.55-9.05-26.9-3-12.55-2.75-26.05.3-17.45 6.45-28.9 6.4-12 20.4-13.55 12.95-1.5 21 6.05"/><path fill="#d18344" d="M43.8 47.2q4.95 1.6 6.1.8l3-2.25q1.8-1.3 3-1.55 1.25-.2 3.05-1.35l2.65-1.75q-.7 2.35-2 3.4-.9.75-3.05 1.35.05 1.15-1.95 3.45-2.3 2.6-5.3 4.15Q48.55 64.4 59 86.5l2.4 4.2q1.75 3.15.75 2.6-7.6-4.2-17.1-19.25-8.25-14.65-9.2-15.65-.65-.7-7.6-2.85-7.05-2.2-9.7-4.7-1-1-.3-2.05.55-.75 2.4-1.9 2.5-1.55 8.05-2 4.9-.45 8.75.15 1.15.2 6.35 2.15"/><path fill="#0d131a" d="M50.7 7q9.75 8.9 12.15 20.45 1.25 5.8.45 10.8-.6 4.45-2.25 6.2-1 1.05-3.9 1.95-.55 2.3-1.55 3.85-1.85 2.8-5.75 5.05-.3 3.45 4.25 16.5 3.85 10.95 5.55 14.35 1.05 2.15.8 3.05-.3.95-2.05-2-2.6-4.45-6.3-14.8-4.4-12.4-4.4-18.55 3.55-1.55 6.2-5.1l2-3.2q.55-.45 2.9-1.55 2.25-1.8 2.8-6.5 2-15.8-12.35-29.2-3.85-3.6-9.8-5.15-5.95-1.5-12.05-.5Q21.35 3.6 16.55 7q-4.75 3.35-7.6 8.65Q3.1 26.55 2.6 43.1q-.4 13.8 2.75 27 3.25 13.85 10.4 28.6 8.8 18.2 19.75 28.8 4.85 4.7 2.85 3.9T33 127.25q-11.95-11.9-20.2-29.1-6.35-13.2-9.75-27.55-3.25-13.65-3-27.15Q.4 26.8 6.3 15.75q3.1-5.8 8.5-9.95Q20.45 1.4 26.7.35q6.3-1.05 13.15.9Q46.5 3.15 50.7 7"/><path fill="#0d131a" d="m3.9 69.8 1.5 1.55q6.25 6.45 14.75 9.15 8.55 2.7 16.2.65 5.6-1.5 9.3-5.3 3.7-3.75 5.1-9.35l.5-2.05.6 2q1.25 4.5 2.8 8.65l.1.2-.05.15q-1.1 6.35-6.9 10.95-5.45 4.3-13.05 5.6Q26.6 93.4 19 90.5q-7.8-3-11.75-9.3l-.05-.05-.05-.1q-1.7-5.1-2.7-9.2z"/><path fill="#686d70" d="M37.25 82.7q5.45-1.45 9.2-5.25 3.75-3.75 4.85-8.9l2.25 6.75q-1.9 5.75-7.05 9.75-5.1 4.05-12.05 5.2-7.7 1.3-14.75-1.3-7.05-2.55-11.5-8.35l-2.1-7.05q5.7 6.2 14.75 8.75 8.8 2.45 16.4.4"/><path fill="#515457" d="M53.55 75.3q-1.15 3.4-3.4 6.15L47.1 76.8q3.25-3.65 4.2-8.25z"/><path fill="#0d131a" d="m50.7 8.05.25.95q-5.7-1.9-18.65-1.4-15.35.6-22.8 5.15l1.05-1.55q7.6-4.65 22.2-4.95Q44.65 6 50.7 8.05m3.05 38.65 1.2-.9q.35-.25 1.35-.55 1.2-.35 1.35.25.2.55-.95.9-.95.3-1.35.55l-.9.7-3.2 2.7Q49.15 51.8 47.9 52q-1.6.3-3.85-.95-3.3-1.8-8.6-2.85-5.9-1.15-12.95.25l-2.45-.1q-.2-.5 2.3-1.3 2.25-.75 6-.8l7.2.55 5.35 1.3q2.25.75 3.55 1.45 1.75.95 3.85.5 1.45-.35 2.65-1.15z"/><path fill="#f2984f" d="M3.65 21.85q2.5-5.3 5.9-6.4 2.2.35 4.5 3.6 1.9 2.75 2.5 5.2l.8 5.95q.7 6.9-1.25 11.5-1.6 3.65-4.7 5.5-2.9 0-5.8-3.6-3.3-4.05-3.95-10-.65-6.1 2-11.75"/><path fill="#d18344" d="M3.95 42.2q4.45 1.75 8.5-2.05 4-3.65 4.9-9.95.7 6.9-1.25 11.5-1.6 3.65-4.7 5.5-2.3 0-4.25-1.3-1.9-1.3-3.2-3.7"/><path fill="#0d131a" d="M9.15 14.3q2.7-.25 5.4 3.85 2.25 3.4 2.55 5.95.15 1.25-.25 1.2-.4 0-.7-.95-.85-2.65-2.55-5.15-2.15-3.15-4-3.15-2.55 0-5 5-2.5 5-2.5 10.35l.1 2.1q.7 6.1 3.45 9.75 2.5 3.35 5.6 3.35 2.1 0 3.95-4.55 2.15-5.15 1.55-11.8-.05-1 .5-1.05.55-.1.65.95.9 7.65-1.35 13.1-2.05 4.95-5.4 5.45-2.6.4-5.95-3.3Q1.25 40.95.55 34.1q-.7-6.3 2.45-13 2.95-6.5 6.15-6.8"/><path fill="#0d131a" d="M1.85 29.9q3.1-3.25 8.55-4.1 5.1-.8 6.7.95.7.75.5 1.05l-1.05-.05q-3.8-1.3-8.3-.2-3.55.9-5.35 2.45-1.3 1.15-1.65 1.05t.6-1.15m36.4 27.6q-2.25.15-2.65-.6-.45-.75 2.8-1.05 4.3-.45 6.95-1.25 3.15-.9 6.35-2.95 2.9-1.8.8.6L49.85 55q-.9.8-4 1.5zM36.7 41.9q0-.85.6-1.45.55-.6 1.4-.6t1.45.6.6 1.45-.6 1.4q-.6.6-1.45.6-.8 0-1.4-.6-.6-.55-.6-1.4"/><path fill="#0d131a" d="M37.5 41.75q0-.45.35-.75.3-.35.75-.35t.8.35l.3.75-.3.8-.8.3q-.45 0-.75-.3-.35-.35-.35-.8m15.55-1.5q0-.8.55-1.35t1.35-.55 1.35.55.55 1.35-.55 1.35-1.35.55-1.35-.55-.55-1.35"/><path fill="#0d131a" d="m53.9 40.15.25-.7q.25-.25.65-.25l.65.25.3.7-.3.65-.65.25-.65-.25q-.25-.25-.25-.65"/><path fill="#f2984f" d="M81.65 115.95q4.45-3.65 11.2-5.65 7.45-2.2 13.35-.85 6.95 1.55 9.75 7.9 10.1 23.05 11.4 40.35.95 12.85-2.2 15.6-2.45 2.2-18.55 2.45-16.8.3-18.35-3.6-1.5-3.75-4-23.9-2.35-19.25-5.8-26-1.35-2.6 3.2-6.3"/><path fill="#d18344" d="M111.7 143.25q-1.55-12.9-4.05-22.3-2.75-10.45-5.55-12.1-.7-.4.25-.45l1.1-.25q4 .35 7.3 2.75 3.45 2.45 5.2 6.45 10.1 23.05 11.4 40.35.95 12.85-2.2 15.6-.8.75-5 1.4l-9.5.9q2.25-.7 2.4-10.6.2-9.05-1.35-21.75"/><path fill="#0d131a" d="m80.4 135.45-2.6-12.9q-.5-1.85.1-1.95t1.15 1.35q1.5 3.8 3.4 13.05 1.95 9.15 2.95 17.3 1 8.2 1.55 11.3.9 5.65 1.95 8.3.5 1.3 4.1 2.15 6.5 1.5 18.7.8 11.4-.7 13-2.05 2.65-2.4 1.9-13.7-1.1-16.9-11.6-42.3-.65-1.65.05-1.55.75.1 1.55 1.8 10.45 22.45 12 40.15 1.25 14.25-2.7 16.85-3.1 2.05-14.4 2.85-11.75.8-18.75-.85-5.2-1.3-6-3.2-1.85-4.55-3.65-19.95-.95-7.45-2.7-17.45"/><path fill="#0d131a" d="m124.45 143.6.7-.05.25.75q1.4 4.1 1.4 6.4v.15l-.25.55q-3.6 5.65-17.05 6.7-14.05 1.1-24.95-4.45l-.4-.6-.95-10.5.75.7q5.25 5.7 18.9 5.8 13.6.15 21.6-5.45"/><path fill="#686d70" d="m85.35 152.4-.95-7q6.25 5.15 19.1 5.3 13.15.1 21.05-5.35 1 3.35 1.1 5.15-3.3 4.6-15.8 5.85-13.8 1.4-24.5-3.95"/><path fill="#515457" d="M121 153.7q-3.45 1.45-8.15 2.25l-.45-6q7.4-1.35 12.15-4.6 1 3.35 1.1 5.15-1.25 1.75-4.65 3.2"/><path fill="#0d131a" d="M92.1 165.15q.35-.3.85-.15.95.35 2.35 3.65 1.1 2.7 1.85 5.6.45 1.7-3.05 5.85-.75.9-1.1.85l-1.05-.95q-.9-1-3.7-5.75-.5-.9 1.1-4.55 1.55-3.6 2.75-4.55"/><path fill="#eeeeef" d="M92.85 166.4q.45.15 2.9 8.05.05.55-1.05 2.25-1.1 1.8-1.65 1.9t-2-2.05q-1.35-2.05-1.45-2.65-.1-.55 1.4-4.05 1.55-3.55 1.85-3.45"/><path fill="#c8c9ca" d="m93.3 167.2 1.55 4.15.9 3.1-.6 1.55-1.35 2q.25-3.9-.5-10.8"/><path fill="#0d131a" d="m107.1 165 .9.1q1.1.8 2.7 4.55t1.6 5.45l-.85 2.3-1.45 3q-.7 1.05-1.3 1.15-.75.1-1.75-1l-2.6-2.8q-1.6-1.8-1.4-2.8.3-1.55 1.45-4.9 1.55-4.55 2.7-5.05"/><path fill="#eeeeef" d="M104.45 175.3q-.15-.75 1.2-4.95 1.35-4.3 1.9-4.1.6.2 2.15 4 1.55 3.75 1.45 4.65-.1 1-1.3 2.95-1.3 2.05-1.85 1.55-3.25-3.05-3.55-4.1"/><path fill="#c8c9ca" d="m108.25 167.15 1.9 4.3q1.05 2.75 1 3.45l-.55 1.65-1.2 2-.35-5.7z"/><path fill="#0d131a" d="M118.8 176.6q-1.75-1.7-1.65-2.7.2-1.35 1.55-4.8 1.6-4 2.75-4.55l.95.05q1.1.7 2.4 3.35 1.3 2.6 1.3 4.1l-.2 2.75q-.25 2.75-.65 3.95-.45 1.5-1.15 1.65-.7.2-2.1-1z"/><path fill="#eeeeef" d="M118.3 174.05V174q.15-1.3 1.5-4.55 1.35-3.4 2.05-3.8.85.6 1.7 2.85.75 1.9 1 3.55.2 1.3.05 3.15l-.5 2.9q-.25.95-1.25.35l-1.55-1.35-1.8-1.6q-1.2-1.05-1.2-1.45"/><path fill="#c8c9ca" d="M124.55 172.05q.25 1.6-.1 4.3l-.65-4.8-1.05-4.8q1.25 2.2 1.8 5.3"/><path fill="#0d131a" d="M94.9 42q0-1.95 4.05-3.2 3.65-1.15 8.3-1.15 4.7 0 8.25 1.05 4.05 1.2 4.05 3.1 0 1.95-4.05 3.15-3.6 1.1-8.25 1.1-4.75 0-8.3-1Q94.9 43.9 94.9 42"/><path fill="#515457" d="M96.75 41.85q0-1.1 2.8-2.05 3.15-1.05 7.7-1.05t7.7 1.05q2.8.95 2.8 2.05t-2.8 2.05q-3.15 1.05-7.7 1.05t-7.7-1.05q-2.8-.95-2.8-2.05"/><path fill="#0d131a" d="M95.6 41.85q0-1.95 3.7-3.15 3.35-1.05 7.95-1.05t7.95 1.05q3.7 1.2 3.7 3.15 0 1.75-3 2.9l-.2.05-.2-.05q-3.75-1.4-8.35-1.4-4.9-.05-7.45 1.55l-.25.15-.25-.1q-3.6-1.2-3.6-3.1"/><path fill="#515457" d="M96.75 41.85q0-1.1 2.8-2.05 3.15-1.05 7.7-1.05t7.7 1.05q2.8.95 2.8 2.05 0 .85-2.1 1.75-4.05-1.85-8.75-1.7-4.45.1-7.55 1.9-2.6-.9-2.6-1.95"/></svg>