<svg xmlns="http://www.w3.org/2000/svg" width="241" height="254" viewBox="-0.4 -1.1 240.9 253.65"><path fill="#f6c8dd" d="M49.55 107.7q13.2-5.15 25.85-.9-2.1 1.8-4.15 4.35l-3.7 4.95q-9.25-1.4-18.2 4.45-8.5 5.55-12.85 14.85-5 10.75-2.05 23.5 3.3 14.45 15.4 19.3-.75 5.25 1.1 10.9-6.1-.9-11.65-4.65-6.8-4.55-11.75-12.7-5.05-8.25-5.1-20.45 0-14 7.15-26.55 6.75-11.9 19.95-17.05"/><path fill="#d5adbf" d="m71.6 110.75-4.05 5.35q-9.25-1.4-18.2 4.45-8.5 5.55-12.85 14.85-2.45 5.3-2.9 12.05-.5 7.05 1.4 13.45-.2 7.5 4 14.15 4.15 6.6 10.9 9.75.4 2.25 1.05 4.3-6.1-.9-11.65-4.65-6.8-4.55-11.75-12.7-2.5-4.1-3.85-9.7-1.4-5.95-1.2-12.45 6.4-18.1 17.75-27.7 12.45-10.55 31.35-11.15"/><path fill="#f6c8dd" d="M66.2 119.3q-1.3 3.6-1.1 10.2-4.2 1.25-7.4 5.2t-5.1 10.15q-2.05 6.65-1.25 13.4l.7 13.85q-1 2-2.7 7-7.4-9.2-8.35-22.6-.9-12.55 4.1-21.75 3.9-7.2 9.6-11.2 5.35-3.75 11.5-4.25"/><path fill="#d5adbf" d="M48.8 138.85q6.2-8.75 16.3-12v2.65q-4.2 1.25-7.4 5.2t-5.1 10.15q-2.05 6.65-1.25 13.4l.7 13.85q-1 2-2.7 7-6.55-8.1-8.05-19.7 1.6-12.2 7.5-20.55"/><path fill="#b4a1bc" d="m220.75 106.8 7.1.05q3.7 6.65-.65 4.5-2.3-1.15-6.45-4.55"/><path fill="#b4a1bc" d="m224.8 106.15 8.4-2.6q4.1 8 .85 7.9-2.7-.05-9.25-5.3"/><path fill="#d0bad9" d="m231.3 105 2.05-4.3q2.2-4.5 2.8-5.25 4.35 12.35 2.7 14.15-1.45 1.5-7.55-4.6"/><path fill="#b4a1bc" d="M233.9 99.55q1.5 4.75 5.35 8.35-.05 2.7-2.2 1.75-1.95-.85-5.75-4.65z"/><path fill="#71706d" d="M175.4 72.7q7.75-4.7 16.6-7 13.95-3.6 22.6 2.15 11.85 7.95 18.1 17.1Q240.2 96 234.55 103q-5.1 6.35-14.55 4.95-5.95-.9-11.45-4.2l-8.05-5.4-5.9-4.1q-3.15.2-8 2.55-9.7 4.75-18.2 15.7-4.6-8.05-4-19.45.8-14.1 11-20.35"/><path fill="#595754" d="M164.65 90.3q10.75-3.65 20.25-5.65 10.75-2.2 15.85-1.45 4 .6 9.55 7.3 6.55 8 9.25 9.65 5.7 3.55 11.25 3.25l3.75-.4q-5.1 6.35-14.55 4.95-5.95-.9-11.45-4.2l-8.05-5.4-5.9-4.1q-3.15.2-8 2.55-9.7 4.75-18.2 15.7-2.15-3.8-3.3-9.55-1.25-6.6-.45-12.65"/><path fill="#71706d" d="M152.75 228.4q4.25 6.95 5.25 10.2 2.05 6.7-3.25 8.95-9.9 4.2-20.85.95-13-3.85-23.8-17.5-3.35-4.25-1.75-8.55 1.35-3.85 5.7-5.85l-1.6-2.85-1.1-2.05q14.35-16.85 29.85-31 31.05-28.3 36.75-14.65 11.7 27.9-.3 46.05-4.6 6.9-12.1 11.4-6.35 3.8-12.8 4.9"/><path fill="#595754" d="M124.15 197.55q15.15-15.95 26.75-25.15.2 2.65 3 12.8 2.5 9.25 2.4 14.85-.25 17.95-25.2 24.25-5.2 1.3-3.95 3.9.55 1.15 5.7 5.95 3.6 3.35 4.7 6.75.95 2.85.75 8.6-15.55-2.4-28.2-18.5-3.35-4.25-1.75-8.55 1.35-3.85 5.7-5.85l-1.6-2.85-1.1-2.05q5.25-6.15 12.8-14.15"/><path fill="#d0bad9" d="M148.4 246q.2-3.9 3.65-7.9 3.3-3.8 5-2.9 3.35 1.85 6.15 5.2t3.95 7q-4.8 1.2-12.25.05z"/><path fill="#b4a1bc" d="M151.7 238.55q2.8 2.9 7.05 5.15 3.3 1.7 8.3 3.3l.1.4q-4.8 1.2-12.25.05l-6.5-1.45q.2-3.55 3.3-7.45"/><path fill="#d0bad9" d="M154.1 243.05q3.25 3.4 4.35 6.9l-13.1.55-7.3-.95q.2-3.9 4.1-8.3 3.7-4.3 5.4-3.35 3.6 1.95 6.55 5.15"/><path fill="#b4a1bc" d="M141.2 242.35q2.8 2.9 6.8 5 3.05 1.55 7.75 3.1-4.8.65-11.7-.05l-6-.85q.15-3.2 3.15-7.2"/><path fill="#71706d" d="M200 16.5q-2.45 3.95-3.55 8.9-1.2 5.25-1.2 12.8 0 4.8-1.95 10.3-2.1 5.9-5.55 9.85-2.35-1.05-3.7-5.3l-2.4-9.2q-4-13.95-15.25-20.05 4.9-5.4 14.2-11.35 10.9-7.05 19.4-8.8 4.25-.85 4.35 2.45.05 3.4-4.35 10.4"/><path fill="#0d131a" d="M48.95 119.85q9.45-5.9 19.1-4.25l-.55 1.1q-9.1-1.4-17.95 4.45-8.35 5.5-12.5 14.5-2.8 6.05-2.95 13.9-.2 8.95 3.35 16.15 1.8 3.7 4.75 6.6 2.6 2.65 5 3.6l.95 1.3.95 1.3q-8.45-3.55-12.7-12.25-3.8-7.65-3.8-15.45 0-4.35.85-8.7.85-4.25 2.25-7.25 4.3-9.35 13.25-15"/><path fill="#0d131a" d="M74.25 107.1q-12.2-3.7-24.85 1.35-12.8 5.15-19.3 16.6-7.05 12.4-7.05 26.1-.05 12.05 5 20.3 4.95 8.1 11.65 12.6 5.45 3.6 11.35 4.45l.2 1.25q-7.5-1.05-13.05-4.85-6.3-4.3-11.7-13.15-5.15-8.5-5.15-20.75.05-13.95 7.25-26.65 6.8-11.95 20.45-17.2 13.45-5.15 26.2-1z"/><path fill="#0d131a" d="M51.8 144.6q2-6.45 5.5-10.5 3.4-3.95 7.8-5.2l.1 1.2Q57 132.75 53.15 145q-1.25 4.25-1.4 8.85l-.25 2-.3 2.05q-.7-1.2-.7-3.2 0-6 1.3-10.1"/><path fill="#0d131a" d="M66.25 119.9q-5.95.45-11.05 4-5.6 3.9-9.55 11.15-4.45 8.1-4.45 18.7 0 6.55 1.85 12.6 2 6.45 5.9 11.4l.45 2.45q-8.25-9.3-9.55-23-1.2-12.9 4.1-22.65 3.85-7.1 10.1-11.35 6-4.1 12.6-4.5zm161.9-11.15 1.6.7q.9 2.55.15 3.2-1.45 1.25-9.25-5.15l1.9-.05q5.35 4.25 6.35 3.8l.05-.2q0-.65-.8-2.3"/><path fill="#0d131a" d="m234.25 107.4 1.65 1.2.35 2.1q.1 1.05-.35 1.4-1.95 1.6-9.35-3.85l1.05-.75q2.8 2.05 4.75 2.9 1.75.75 2.3.35l.2-.85q0-.9-.6-2.5"/><path fill="#0d131a" d="M240.15 107.55q.35 2.65-.6 3.3-1.95 1.2-8.35-5.05l1.1-.65q2.9 2.85 4.6 3.8 1.05.55 1.4.3.4-.25.4-1.4 0-2.45-1.95-8.65l.55-2.2q2.45 7.2 2.85 10.55"/><path fill="#0d131a" d="M194.4 95.05q-6.15 1.75-9.25 3.55-6.75 3.9-14.25 12.95l-.95-2.15q6.35-8.15 13.45-12.1 4.75-2.65 11.15-3.85l3.65.15-1.2 1.05 5 3.6 7 4.8q4.45 2.8 10 3.95 9.75 1.95 14.95-4.5 2.75-3.4 2.05-8.1-1-6.4-8-14.1-5.9-6.45-13.85-11.75-8.9-5.9-23.55-1.65v-1.65q15.7-4.45 24.45 1.4Q223.1 72 229.3 79.1q7.2 8.25 8.25 15.05.85 5.35-2.35 9.3-5.7 7.15-16.2 5.15-5.35-1.05-10.85-4.15l-7.25-4.85zM113 216.3l-1.6-2.8-.55-1.1h1.75l.25.4 1.2 2.45q1.2 2.05 3.15 3.8 2.15 1.95 2.05 2.45-.15.45-1.75-.65l-2.45-1.9-1.05-1q-5 1.85-5.2 6.45-.15 3.55 1.95 6.1 13.05 15.95 27.45 18.15l-.15 1.55q-7.4-1.2-14.55-5.65-8.1-4.95-14.7-13.35-2.35-3-2.4-6.55-.05-5.5 6.6-8.35m65.7-50.55q3.4 8.15 4.85 13 2 6.65 2 11.9 0 10.45-4.9 19.3-4.25 7.8-12.55 13.1-6.75 4.3-14.1 5.85l2.2 3.15q1.45 2 2.1 3.5l-1.1-.2-1.35.05q-1.15-2.4-3.3-5.8l-6 .65q-6.1.45-6.55-.6-.15-.35 2.95-.5 4.85-.25 9.65-1.55 18.6-5.1 25.85-18.45 9.3-16.85-.9-41.95l.35-2.95z"/><path fill="#0d131a" d="M156.75 235.7q-.4-.25-1.45.35-2.2 1.3-4.15 4.3l-1.5-1.3q.85-1.3 2.55-2.5l2.5-1.55q1.65-.85 2.6-.35 4.15 2.25 5.8 3.85 2.45 2.45 4.85 7.8.65 1.45.5 1.7-.3.4-2.85.7l-3.6.05-4.2-.35q-.4-.7-.45-1.25l9-.25q-1.2-3.35-3.8-6.4-2.65-3.1-5.8-4.8"/><path fill="#0d131a" d="M145.85 238.8q-2.15 1.2-4.35 4.2-2.4 3.25-2.75 6.1 12.3 1.85 18.9.4-1.25-3.3-4.45-6.5-2.8-2.85-5.95-4.6-.4-.2-1.4.4m-.6-1.05q1.55-.95 2.6-.4 3.9 2.15 5.85 3.9 2.8 2.5 5 6.6 1 1.9.8 2.5-.2.65-2.05 1-5.95 1.2-13.1.15l-6.4-1.35-.5-.1v-.5q.2-3.6 1.9-6.35 1.9-3 5.9-5.45M205.6 3.65q1.05 1.5-.4 5.05-1.15 2.85-4.5 8.25-2.35 3.7-3.35 9.5-.95 5.2-.95 12.95 0 4.9-1.95 9.95-2.1 5.35-5.8 9.15l-1.3-.9q3.25-3.8 5.25-9.4 1.85-5.3 1.85-10 0-7.5 1.2-12.8 1.15-5.25 3.7-9.3 3.3-5.3 4-8.45.4-1.95-.15-2.75-.65-.95-3.05-.5-8.15 1.7-18.75 8.45-9.15 5.8-14.15 11.2l-1.5-.7q5.15-5.65 14.5-11.85 11.05-7.25 19.5-9 1.75-.35 3.45-.05 1.8.35 2.4 1.2"/><path fill="#d0bad9" d="M164.8 23.5q9.9 5.2 16.1 16.3 5.6 10.1 5.85 20.45.3 10.45-5.15 14.65-8.55 6.6-11.95 11.05-3.45 4.5-3.5 9.25-.05 3.85 2.4 10.85l5.75 16.05q11.5 34.85-5.25 60.7-6.7 10.3-17 17.5-9.15 6.45-18.7 8.85-20.2 5.15-37.55.75-22.95-5.85-33.05-27.65-10.2-22.05-2.7-47.2 3.05-10.15 8.55-19 5-8.05 10.6-12.85 11.3-9.7 17.05-23.3 3.65-8.7 5.65-21.45 2.3-14.5 12.25-24 9.4-9 25.2-13.25 13.9-3.75 25.45 2.3"/><path fill="#b4a1bc" d="M96.25 79.9q3.65-8.7 5.65-21.45 3.6-22.85 25.95-33.1-5.15 29.5 3.8 46.35 5.85 11.05 16.8 15.25 1.6.65-.25 2.35l-6.15 4.55q-13.4 9.1-20.4 16.55-28.2 30.2-3.55 71.25 4.45 7.4 17.8 12.4 13.05 4.95 20.85 2.65-5.5 4.65-11.8 7.95-5.85 3.05-11.6 4.5-20.2 5.15-37.55.75-22.95-5.85-33.05-27.65-10.2-22.05-2.7-47.2 3.05-10.15 8.55-19 5-8.05 10.6-12.85 11.3-9.7 17.05-23.3m75.95-12.15q4.6 1.75 7.65 4.05 3.1 2.35 1.75 3.1-11.05 6.35-19.05 4.35-7.8-1.95-6.05-9.75 3.25-6.5 15.7-1.75"/><path fill="#71706d" d="M62.75 182.25v-.05q8.3 5.4 19.1 6.5 11.4 1.15 23.5-2.75 28.15-9.1 50.6-41.1 5.95 13.85 7.65 25.1 2.05 13.2-1.8 22-6.3 6.6-14.1 11.2-7.2 4.25-14.35 6-20.2 5.15-37.55.75-22.95-5.85-33.05-27.65"/><path fill="#595754" d="M62.75 182.25v-.05q10.55 6.85 24.65 6.75 15.2-.15 30.6-8.5 11.45 20.25 38.95 16.1-5.55 4.75-11.85 8.05-5.95 3.1-11.75 4.55-20.2 5.15-37.55.75-22.95-5.85-33.05-27.65"/><path fill="#0d131a" d="M181.25 42.25q-4.6-9.35-12.3-15.2-12.7-9.55-29.4-5.05-32.5 8.75-36.85 36.6-1.9 12.15-5.2 20.3-5.9 14.7-17.8 24.95-5.25 4.5-10.05 12-5.7 8.95-8.8 19.4-3.15 10.45-3.1 20.85.1 13.6 5.7 25.8 10.95 23.65 36.7 28.15 15.6 2.75 33.05-1.65 9.85-2.55 19.4-9.45 11.5-8.4 18.05-20.4t7.3-26.3-4.4-29.9l-3.85-10.8q-2.5-6.75-3.3-9.7-1.2-4.4-1-7.65.3-4.15 3.9-8.8 3.8-4.9 11.85-11.1 4.85-3.75 4.9-13.05t-4.8-19m-15.1-18.8q10.6 6.15 16.55 18.1 5.15 10.45 5.35 19.9.2 9.75-5.15 13.55-7.2 5.1-11.7 10.65-4.15 5.15-4.25 8.3t1.1 7.65q.9 3.35 3.15 9.4l3.85 10.85q5.35 16.15 4.9 30.65-.5 14.9-7.15 27-6.75 12.35-19.05 21.3-10.45 7.6-20.9 10.25-17.25 4.35-33.5 1.1-26.05-5.2-37.3-29.6-5.85-12.6-6.2-26-.25-10.5 2.85-20.9 3.2-10.65 9.35-20.25 5.15-8.1 10.6-12.8 11.65-9.95 17.4-24.35 3.2-8.05 5.05-19.9 4.65-29.4 37.6-38.2 14.9-4 27.45 3.3"/><path fill="#0d131a" d="M155.8 146.05q-21.75 30.55-47.75 40.15-24.05 8.85-43.85-2.45 11.3 22.4 36.65 26.6 15.4 2.55 32.4-1.75 7.45-1.9 14.8-6.35t13.25-10.65q2.4-5.55 2.4-13.05 0-13.75-7.9-32.5m8.8 22.4q2.95 14.55-2.25 23.75l-.05.1-.05.05q-6.1 6.35-13.6 10.9t-15.15 6.5q-17.75 4.5-33.75 1.65-26.35-4.65-37.55-28.9l-.85-1.9 1.7 1.1q8.65 5.6 19.7 6.55 11.4.95 23.55-3.25 27.4-9.4 49.2-40.5l.6-.85.4 1q6.25 14.45 8.1 23.8m-4.05-154.7q2.2 2.2 2.2 5.3t-2.2 5.3-5.3 2.2-5.25-2.2q-2.2-2.2-2.2-5.3t2.2-5.3q2.15-2.2 5.25-2.2t5.3 2.2m23.7 19.3q0 3.1-2.2 5.3t-5.3 2.2-5.25-2.2q-2.2-2.2-2.2-5.3t2.2-5.3q2.15-2.2 5.25-2.2t5.3 2.2 2.2 5.3"/><path fill="#71706d" d="M128.35 25.3q2 3.45 2.3 5.45.75 4.35-2.2 9.6-2.45 4.4-3.95 11.25l-2.6 12.85q-1.5 6.5-5.5 9.05-3.55 2.2-8.3.9-6.4-1.75-10.95-11.95Q93 53.2 92.8 43.35q-.15-7.25-3.65-15.7Q84.6 16.7 84.1 14.5q-1.35-5.65-.25-9.15 1.2-3.7 4.95-4.5 8.9-1.95 23.2 8.4 12.2 8.8 16.35 16.05"/><path fill="#595754" d="M96.8 7.85q11.35 7.7 18.65 23.25 3.15 6.65 4.75 8.55 2.75 3.35 7 3.25-1.75 3.9-3 10.15l-2.3 11.4q-1.5 6.5-5.5 9.05-3.55 2.2-8.3.9-6.4-1.75-10.95-11.95Q93 53.2 92.8 43.35q-.15-7.25-3.65-15.7Q84.6 16.7 84.1 14.5q-1.5-6.15 0-9.7 2.85-1.2 5.35-.65 2.75.6 7.35 3.7"/><path fill="#d5adbf" d="M89.55 8.05q1.75 0 5.4 2.65 3.8 2.75 7.35 6.7 9.2 10.15 7.9 17.5-1.5 8.4.05 16.8.45 2.5 2.8 10.25 1.45 4.75-.85 6.9-2.4 2.3-6.6-2.15-4.55-4.9-6.05-12.65-.35-1.95-1.05-11.85-.4-5.75-2.45-11l-3.85-8.35q-2.05-4.55-2.75-8.95-.6-3.9.1-5.85"/><path fill="#fff" d="M146.25 48.3q5.85 4.7 5.05 12.95-2 2.15-5.3 2.75-3.4.65-6.4-.7-7.55-3.55-5.85-16.25 6.65-3.45 12.5 1.25"/><path fill="#f6c8dd" d="M179.1 54.75q10.8 1.45 12.65 8.75.8 3.05-.5 5.9-1.3 2.9-4.15 4.45-8.1 4.35-20.15 2-5.75-1.15-7.7-5.1-1.6-3.2-.5-7.2 1.35-4.85 7.3-7.35 5.8-2.45 13.05-1.45"/><path fill="#d5adbf" d="m171.15 74 16.7-.6-.75.45q-8.1 4.35-20.15 2-4.95-1-7.1-4.1-1.8-2.55-1.5-6.1Q162 72.7 171.15 74"/><path fill="#fff" d="M159.9 83.6q-1.7.45-4.45-.85-2.25-1.1-4.35-2.95-1.9-1.65-1.95-2.2-.05-.65 1.95-.5l6.3 1.25 8.4 1.25q-3.35 3.35-5.9 4"/><path fill="#0d131a" d="M161.2 140.65q2.7 3.1 2.7 7.45 0 4.4-2.7 7.45-2.75 3.1-6.6 3.1t-6.6-3.1q-2.7-3.05-2.7-7.45 0-4.35 2.7-7.45 2.75-3.1 6.6-3.1t6.6 3.1"/><path fill="#fff" d="M176.85 31.15q-.55.95-1.5 1.35l-1.7.15q-.75-.35-.9-1.2-.1-.9.45-1.85.5-.95 1.45-1.35l1.7-.15q.75.35.9 1.25.15.85-.4 1.8m-21.1-14.6q-.5.95-1.45 1.35l-1.7.15q-.75-.35-.9-1.2-.15-.9.4-1.85t1.5-1.35l1.7-.15q.75.35.9 1.25.1.85-.45 1.8"/><path fill="#8a969d" d="M156.8 144.6q-.2 1.55-1.45 2.45-1.25.95-2.8.7-1.55-.2-2.5-1.4-.95-1.25-.75-2.8.25-1.55 1.5-2.45t2.8-.7 2.5 1.45q.95 1.2.7 2.75"/><path fill="#71706d" d="M100.2 74.05q13.45 9.5 8.45 19-2.05 3.95-7 6.5-4.9 2.55-10.9 2.85-4.2.2-15.1-2.5L59.4 96q-3.8.65-12.75 7.7-9.35 7.4-17.45 9.45Q17.25 116.2 9.1 110q-8.05-6.15-7.85-17.8.2-9.15 21.35-22.1 8.75-5.4 17.7-9.1 9.15-3.75 14.75-4.25 9.2-.8 25.05 6.25 11.9 5.25 20.1 11.05"/><path fill="#595754" d="M53.3 91.7q4.4-3.75 8.75-3 2.4.4 6.15 2.15 1.75.5 12.3 5.5 11.5 4.6 19.65 3.95-4.35 1.9-9.4 2.1-4.2.2-15.1-2.5L59.4 96q-3.8.65-12.75 7.7-9.35 7.4-17.45 9.45-10.2 2.65-17.85-1.65-7.5-4.2-9.5-13.15 11.05 7.8 25.5 5.7Q41.25 102 53.3 91.7"/><path fill="#d0bad9" d="M6.15 91.05q7.45-1.4 14.7 3.3 7.55 4.85 7.55 12.15-4.9 7.1-9.6 8.8-4.05 1.5-4.4-1.15-4.75 3.1-6.7 2.25-2.25-.9-2.85-7.15-2.2 1.8-3.15-.15-.85-1.7-.45-5.5.9-9.4 4.9-12.55"/><path fill="#b4a1bc" d="M28 103.4q.4 1.6.4 3.1-4.9 7.1-9.6 8.8-4.05 1.5-4.4-1.15-4.75 3.1-6.7 2.25-2.25-.9-2.85-7.15-1.55 1.3-2.75-.4-1.05-1.45-1.25-3.95.75 1.4 1.35 1.8 1 .6 2.5-.25 2.1 4.5 4.3 5.4 2.35 1 5.75-1.7 2.35 7.4 13.25-6.75"/><path fill="#71706d" d="M65.15 130.65q6.25-4.75 13.5-5.45 6.75-.6 10.85 2.45 17.75 13.2 17.2 40.85-.2 11.15-3.6 21.45-3.25 9.85-8.05 15.05-4.7 5.1-11.25 6.65-7 1.7-13.4-1.3-15.9-7.5-18.75-37.7-2.85-29.5 13.5-42"/><path fill="#595754" d="M53.55 184.6q10 7.3 17.9 7.3 6.75-.05 18.55-5.95 4.9 2.1 10.8-5.85 4.15-5.55 5.9-10.7-.35 10.9-3.7 20.9-3.25 9.6-7.95 14.7-4.2 4.55-10 6.3-6.1 1.9-12 .05-14.3-4.45-19.5-26.75"/><path fill="#71706d" d="M50.5 188.9q-2.1-13.35 1.8-17.7 4-4.55 19.15-5.05 12.8-.4 16.5 10.1 2.35 6.75.75 13.65l-4.9 17.55q-2.75 6.35-7.5 9.05-4.8 2.75-9.85.9-12.15-4.45-15.95-28.5"/><path fill="#595754" d="M50.5 188.9q-.7-4.5 1.45-7.75 3.2-4.9 11.85-3.7 9.8 1.35 13.45 3.25 3.5 1.75 4.25 5.55l2.1 10.4q1.85 5 4.55-4.75 1.15 7.9-2.55 13.9-2 3.3-6 8.1-3.45 3.55-7.7 4.1-4.4.55-8.55-2.2-9.65-6.6-12.85-26.9"/><path fill="#d0bad9" d="M62.05 151.2q3.1 3.75 5.35 11.55 1.9 6.6 1.65 8.75-.3 2.1-7.35 2.25-7.15.1-7.95-2.55-.95-3.2 2.5-12.85 3.55-9.85 5.8-7.15"/><path fill="#b4a1bc" d="m57.55 155.35-.25 6.2q-.25 3.85 0 5.7.8 5.75 7.95 6.15-3.6.65-7.1.1-3.9-.55-4.4-2.3-.35-1.2 1.05-6.75 1.2-4.5 2.75-9.1"/><path fill="#d0bad9" d="M72.6 150.55q2.3-2.65 6.75 7.4 4.35 9.85 3.5 13.1t-7.95 3.2q-7.05-.05-7.35-2.25-.35-2.55.9-9.7 1.55-8.7 4.15-11.75"/><path fill="#b4a1bc" d="M67.55 172q-.1-1 .7-6.8.85-6.2 1.75-10.15.4 3.05.4 11.15.75 6.85 5.45 8l-5.55-.5q-2.6-.65-2.75-1.7"/><path fill="#fff" d="M149.2 55.2q-.2 1.45-.75 2.4-.6.95-1.25.85-.65-.05-.95-1.15-.35-1.05-.15-2.5t.8-2.4q.55-.95 1.2-.9.65.1.95 1.15.35 1.1.15 2.55"/><path fill="#0d131a" d="M150.4 14.2q-2 2-2 4.85t2 4.9q2 2 4.85 2 2.9 0 4.9-2 2-2.05 2-4.9t-2-4.85q-2-2.05-4.9-2.05-2.85 0-4.85 2.05m4.85-3.25q3.35 0 5.8 2.55 2.4 2.55 2.4 5.9 0 3.3-2.4 5.55-2.4 2.2-5.8 2.2-3.35 0-5.9-2.4-2.55-2.45-2.55-5.75t2.55-5.7q2.55-2.35 5.9-2.35M168.4 33q0-3.3 2.5-5.7 2.5-2.35 5.85-2.35t5.75 2.55q2.35 2.5 2.35 5.85 0 3.3-2.35 5.55-2.35 2.2-5.75 2.2-3.35 0-5.85-2.4t-2.5-5.7m13.25-4.8q-2-2.05-4.9-2.05-2.85 0-4.85 2.05-2 2-2 4.85t2 4.9q2 2 4.85 2 2.9 0 4.9-2 2-2.05 2-4.9t-2-4.85M124.5 48.25q1.3-4.75 3.25-8.3 2.65-4.7 2.2-8.55-.25-2.25-2-5.15l-.3-.55q-4-7-15.95-15.7Q97.65-.25 89 1.6q-2.4.5-3.65 2.45-2.1 3.25-.5 10.25.85 3.45 3.6 9.65 2.5 5.65 3.45 8.8Q93.5 38 93.6 43.3q.2 9.9 4.3 19 4.4 9.65 10.4 11.35 4.3 1.15 7.5-.75 3.85-2.25 5.3-8.6l1.45-7.2q1.15-5.95 1.95-8.85m5.2-24.1q2.05 3.85 2.2 6.8.3 4.4-2.75 9.8-1.9 3.4-3.1 7.9-.8 2.9-1.9 8.75l-1.5 7.25q-1.6 6.95-6.05 9.6-1.95 1.2-4.25 1.65l-4.85-.2q-6.75-1.85-11.35-12.95Q92.2 53.2 92 43.35q-.1-5.1-1.7-10.2-.9-3-3.35-8.6-2.65-6-3.6-9.85-2-8 .2-11.75Q85.1.3 88.65.05q11.8-.8 26.25 9.6 11.5 8.3 14.8 14.5"/><path fill="#0d131a" d="M90.9 9.35q-.8.15-.25 5 .6 5.25 2.6 8.85 5.2 9.45 5.85 18.95l.15 2.6q.3 6.75 1.2 10.35Q102 61.3 106 65.6q1.8 1.9 2.9 2.6 1.35.85 2.25.3 1.8-1.05 1.8-3.5l-.45-2.85-.5-1.6q-1.35-4.1-2-7.1-1.15-5.2-1.15-10.3 0-3.9.75-8.4l.15-1.6q0-6-6.65-13.95-3.15-3.75-7.55-7.1-3.85-2.9-4.65-2.75m-1.8-1-1.15-.8q-.9-.8.05-.7 3.6.5 8.1 3.85 3.95 3 7.95 7.75 3.65 4.45 5.2 7.2 2.85 5.1 2.15 9.05-2.35 13.05 1.7 25.5l.5 1.6q.8 2.6.35 4.85t-1.95 3.1q-2.85 1.65-6.85-2.65-4.2-4.5-5.8-11.25-.95-3.95-1.3-11.05l-.15-2.55q-.3-4.75-1.75-9-.8-2.4-2.95-6.9l-1.55-3.3q-2.1-4.6-2.7-8.85-.6-3.8.15-5.85m55.95 39.8q-2.55-1.7-5.3-2-2.85-.35-5.45.95l-.25 4.05q0 5.05 2 8.25 1.45 2.25 3.75 3.3 2.8 1.35 6.05.7 3-.55 4.85-2.45l.1-1.3q0-3.55-1.5-6.6-1.55-3.05-4.25-4.9m-11.55-1.6q3.05-1.65 6.25-1.55 3.35.05 6.1 1.95 3.25 2.15 4.85 6.1 1.6 3.85 1.2 8.25l-.05.2-.1.15q-2.2 2.35-6.2 2.85-3.9.55-7.05-.95-7.1-3.4-5.35-16.55l.05-.35z"/><path fill="#0d131a" d="M144.9 47.05h.65q3.25 2.15 4.8 5.95 1.4 3.65 1 8.15l-4.5 2.75q-4.1-.25-5.45-5.7-.8-3.1 0-6.1.85-3.4 3.5-5.05"/><path fill="#0d131a" d="M142.55 57.9q-.35-1.5-.35-2.8 0-4.6 3.05-6.8 2.65 1.9 4.1 4.85 1.45 3 1.45 6.5l-.1 1.3q-1.25 1.35-3.55 2.15-1.75-.15-3-1.8-1.1-1.35-1.6-3.4m48 11.55q1.25-2.55.75-5.3-.65-3.45-3.9-5.8t-8.35-3.05q-7.2-.95-12.85 1.45-5.6 2.4-6.85 6.95-1.2 4.25.7 7.35 2.1 3.25 7 4.2 11.9 2.35 19.75-1.9 2.5-1.4 3.75-3.9M188.3 57.6q3.6 2.65 4.3 6.55.6 3.2-.6 6-1.2 2.9-4 4.45-8.2 4.45-21.15 1.8-6.1-1.15-8.4-4.8-2.15-3.5-.8-8.25 1.4-4.9 7.65-7.6 6.25-2.6 13.9-1.6 5.5.7 9.1 3.45m-32.55 24.6q2.5 1.2 4 .85 1.8-.45 4.65-2.95l-8.85-1.55-4.5-.85h-1.2q.25.5 1.65 1.65 2 1.75 4.25 2.85m12.6-3.35 3-.25q-.1.25-1.55.8-2.2.85-3.95.9-3.8 3.55-6.25 4.15-3.2.8-8.9-4.2-2.85-2.4-2.45-3.3.25-.7 2.9-.45l4.65.9 5.55 1.3q3.9.7 7 .15"/><path fill="#0d131a" d="M172.7 62.25q.7.2 0 4.45-.7 4.2-1.45 2.95t0-4.45q.7-3.15 1.45-2.95m11.85-.5q.6-.05 1.05 3.05.5 3.15-.45 4.2-1 1-1.05-3-.1-4.15.45-4.25m-23.8 79.3q-2.55-2.9-6.15-2.9t-6.15 2.9q-2.55 2.95-2.55 7.05t2.55 7.05q2.55 2.9 6.15 2.9t6.15-2.9q2.55-2.95 2.55-7.05t-2.55-7.05m-16.05 7.05q0-4.6 2.95-7.95 3-3.35 7.1-3.35 4.05 0 7 3.45 2.9 3.4 2.9 8.05 0 4.6-3 8.05-3 3.4-7.1 3.4-4.05 0-6.95-3.5t-2.9-8.15"/><path fill="#8a969d" d="M176.85 31.15q-.55.95-1.5 1.35l-1.7.15q-.75-.35-.9-1.2-.1-.9.45-1.85.5-.95 1.45-1.35l1.7-.15q.75.35.9 1.25.15.85-.4 1.8m-21.1-14.6q-.5.95-1.45 1.35l-1.7.15q-.75-.35-.9-1.2-.15-.9.4-1.85t1.5-1.35l1.7-.15q.75.35.9 1.25.1.85-.45 1.8"/><path fill="#0d131a" d="M100.65 73.45q7.05 4.95 9 10.8 1.3 3.95.2 7.7-1.45 5.05-6.15 7.9-4.85 2.95-12.9 3.35-3.1.15-8.95-1.05l-11.15-2.7q-7.75-2.05-11.25-2.65-2.45.45-5.4 2.35-1.85 1.15-5.55 4.1l-8.25 6.05q-5.3 3.25-10.85 4.65l-8.4.95 1.65-1.6q3.15-.05 6.35-.9 5.3-1.35 10.15-4.45l7.7-5.85 5.9-4.55Q56 95.25 59 94.2q2.75-1 5.7-.85.5.05-1.75.85-2.3.8-1.65.95l3.75 1.05 6.05 1.7 10.8 2.6q5.85 1.25 8.85 1.1 6.5-.3 11.6-3.35t6.35-7.45q1.15-3.9-1.15-8.05t-7.8-8.05q-8-5.65-19.8-10.9-15.75-7.05-24.85-6.25-5.75.5-14.8 4.35-8.7 3.7-17.3 9.15Q2.55 84 2.35 92.75q0 1.9.15 3.6-.85.95-1.15 3.3Q.4 96.2.45 92.2.65 82.4 22.3 69q8.85-5.5 18-9.3 9.2-3.85 14.7-4.3 9.2-.8 24.9 6.35 11.8 5.35 20.75 11.7"/><path fill="#0d131a" d="M22.45 96.25q-3.35-2.8-7.75-4.05-4.35-1.25-8.3-.55-1.95 1.6-3.35 6-1.35 4.15-1.35 7.9l.1 1.85q.3 1.8 1 2.05.6.25 1.65-.65l.35-4q.6-4.1 1.9-4.7.7-.3.6.1l-.6 1.6q-1.5 3.65-1.3 7.4.15 2.3 1 4.1.75 1.65 1.75 2.1l2.2.1q1.45-.35 3.75-1.85-.25-1.55-.2-3.55.1-3.95 1.65-6 .95-1.25.55.3-.85 3.15-.9 4.95-.05 2.6.4 4.1.4 1.15.85 1.25 1.7.4 4.25-1.1 3.45-2.05 7.1-7.25-.15-5.8-5.35-10.1M6 90.5q3.5-1.15 8.55.15 5.15 1.25 8.7 4.25 2.7 2.2 4.4 5.55 1.55 3.1 1.75 5.95.2 2.25-.3 2.1l-.5-.6q-3.8 5.45-7.3 7.65-2.85 1.7-5.15 1.15-1.2-.25-2.05-1.65l-3.7 2.15-2.4.05q-1.25-.6-2.25-2.35-1.1-1.95-1.4-4.6-1.65.8-2.15.75Q.5 111 .1 108q-.5-3.45.85-8.55 1.45-5.25 3.7-7.8L4 91.5q-.2-.3 2-1m74.45 35.4q-5.95.05-11.65 3.25-6.9 3.9-11.25 11.65-6.7 12-5.25 30.4l-1.45 1.45q-1.85-19.7 4.75-32.2 4.3-8.2 11.45-12.2 6.15-3.5 13.05-3.7 6.4-.15 9.9 2.45 8.6 6.4 13.3 16.35 3.75 7.95 4.6 17.05 1.25 13.6-2.2 26.4-3.15 11.7-8.7 17.7-3.15 3.4-7.6 5.6-4.4 2.2-9 2.65l1.15-1.5q7.5-.95 12.9-6.8 5.45-5.85 8.75-17.5 3.65-12.85 2.45-26.05-.85-9.15-4.1-16.65-4.35-9.9-12.5-16-3.25-2.4-8.6-2.35"/><path fill="#0d131a" d="m84.7 171.95-2.1-2q-.25-1.35-.15-2.05 2.6.75 3.9 2.4 3.35 4.05 3.7 11.3.25 5.25-.7 8.25-.6 1.85-1.15 2.05-.55.25-.25-2.2.55-4.9.3-8.05-.5-5.95-3.55-9.7M49.55 189q-1.05-6.8-.85-10.7.3-4.9 2.5-7.6l.9-.7 1-.65.55 1.6-.95.95q-1.85 2.25-2.15 6.15-.35 3.85.75 10.75 1.95 12.5 6.7 20.05t11.15 8.35q3.9.5 8.5-3.2 4.15-3.35 5.45-6.9 1.1-2.85 1.7-2.05.6.85-.25 2.7-2.5 5.45-6.65 8.65-4.4 3.35-9 2.75-6.95-.85-12.15-8.95-5.15-8.05-7.2-21.2"/><path fill="#0d131a" d="m63.35 173.05 3.7-.7.45.6.45.55q-2.65.9-4.8 1l-6.1-.35q-3.65-.8-4.2-2.7-.8-2.6 2-11.3 2.9-9 5.5-10.4 1.1-.6 2.05.6 3.35 4.1 5.8 13.15l-.8 1.7q-2.3-9.4-5.8-13.6-.4-.45-.8-.2-2.15 1.15-4.75 9.25-2.5 7.9-1.75 10.35.4 1.15 3 1.75z"/><path fill="#0d131a" d="M79.7 160.35q-3.3-8.3-5.7-9.55-.55-.3-.95.15-2.6 3-4 11.6-1.2 6.9-.9 9.4.1.45 1.5.9 1.6.6 3.9.75l5.55-.45q2.75-.7 3.15-2.25.65-2.45-2.55-10.55m-12 1.9q1.75-9.4 4.5-12.6.95-1.2 2.45-.45 2.95 1.55 6.45 10.55 3.45 8.65 2.7 11.4-.55 2.15-3.85 3.25-2.9.95-6.35.75l-3.75-.5q-3.05-.7-3.25-2.1-.3-2.6 1.1-10.3"/><path fill="#fff" d="M149.2 55.2q-.2 1.45-.75 2.4-.6.95-1.25.85-.65-.05-.95-1.15-.35-1.05-.15-2.5t.8-2.4q.55-.95 1.2-.9.65.1.95 1.15.35 1.1.15 2.55"/></svg>