<svg xmlns="http://www.w3.org/2000/svg" width="477" height="214" viewBox="-0.4 0 477.25 213.9"><path fill="#3f3927" d="m197.6 126.95-7.05 3.25-21.75-4.85-14.15 26.6 5.45 2.7q2.4 1.2 1.45 3.6-.9 2.4-3.1 1.3-3.95-1.95-10.7-2.3-7.75-.35-14.8 1.75-4.05 1.25-5.3-.5t2.05-3.8q2.7-1.7 10.85-2.65l7.6-.65 17.9-34.75z"/><path fill="#3f3927" d="m166.05 116.65 15.6 5.1.9 6.65-13.75-3.05-11.25 21.2-4.25-5.1z"/><path fill="#3f3927" d="m170.55 132.95-6.35 4.45-19.85-.65-11.55 28.45 3.1.1 5.7.8q3.25.9 2.1 3.4-1.15 2.45-3.7 2-12.85-2.15-27.3 4.55-4.15 1.95-5.6-.15t1.9-4.4q4.45-3.05 11.35-4.8 3.4-.85 5.95-1.15l15.3-35.35z"/><path fill="#3f3927" d="m170.55 132.95-6.35 4.45-19.85-.65-8.6 21.25-3.5-6.15 9.35-21.65zM255 36.8q.95 2.25.6 2.95-.4.8-2.8.4l-15.85-2.35q-13.5-2.1-14.35-2.65-1.2-.85-10.3-14.8-9.25-14.15-8.65-14.85t18.7 2.3q17.9 3 19.25 3.85 1.2.8 6.2 10.2 4.9 9.25 7.2 14.95"/><path fill="#00a63c" d="M247.75 32.8q.6 1.6.35 2.1-.3.6-1.95.3l-11.3-1.65q-9.65-1.5-10.25-1.95-.9-.7-7.35-10.5-6.55-10.05-6.2-10.7.4-.65 13.2 1.5 12.65 2.15 13.9 2.9 1.1.6 4.6 7.3 3.2 6.2 5 10.7"/><path fill="#eeed80" d="M258.5 19.6q3.45-5 6.05 5.9 1.95 8.1 2.85 21.35 1.3 17.65-1.3 44.3-3.6 37.45-13.6 56-14.15 26.1-37.95 25-8.75-.4-16.6-4.5-6.95-3.6-9.35-7.75-5.65-9.9-3.55-17 2.45-8.35 17.15-22.9 26.3-26 42.35-63.35 4.35-10.15 9.1-24.3 3.75-11.15 4.85-12.75"/><path fill="#cdcd6f" d="M262.9 20.4q1.65 3.5 2.95 11.85 1 6.65 1.55 14.6 1.3 17.65-1.3 44.3-3.6 37.45-13.6 56-5.1 9.5-11.6 15.6-6.5 6.15-12.85 7.5-6.7 1.35-11.8-3.05-5.65-4.8-8.6-15.9 9.05-6.4 16.45-9.1 5.2-3.1 15.1-19 11.95-19.2 17.6-44.4 5.45-24.15 6.1-58.4"/><path fill="#3f3927" d="M247.1 142.8q7-4.65 20.85-10.05 13.7-5.35 15.45-4.2 2.25 1.4 6.75 10.25 5.85 11.3 12.15 29.4 3.7-.3 8.95 1 5.05 1.2 8.9 3.2 2.85 1.5 1.75 3.7-1.15 2.25-5.35.9-8.25-2.7-15.8-2.7-6.5-.05-11.7 1.9-2.25.8-3.25-1.55t1.4-3.5q4.25-2 8.6-2.45-3.55-11.55-9.5-24.2l-5.2-10.3q-3.4 0-11.95 3.45-9.4 3.85-19.55 9.75-3.15 1.85-4.55-.2-1.45-2.05 2.05-4.4"/><path fill="#3f3927" d="M281.1 134.2q-3.4 0-11.95 3.45-9.4 3.85-19.55 9.75-3.15 1.85-4.55-.2-1.45-2.05 2.05-4.4 7-4.65 20.85-10.05 13.7-5.35 15.45-4.2 1.5.95 4.25 5.6 3.35 5.7 7.25 14.8-2.4 1.95-4.45 4.95-2.95-7.2-6.45-14.15z"/><path fill="#3f3927" d="M233.05 156.35q7.3-3.65 21.3-7.7 14.1-4 15.8-2.9 4.15 2.55 13.45 34 3.5-.3 9.25 1.05 4.9 1.1 9.2 2.8 1.35.55 1.95 1.8.6 1.2.15 2.3-1.1 2.8-6.25.85-8-2.95-16.6-2.75-7.05.15-12.6 2.25-2.25.8-2.8-1.7-.5-2.5 1.9-3.65 3.1-1.45 9.2-2.25-2.95-11.75-6.9-21.4l-3.4-7.3q-2.75 0-12.2 2.95-2.45.75-18.95 6.25-2.95 1-3.5-1.45-.55-2.4 1-3.15"/><path fill="#3f3927" d="M235.55 160.95q-2.95 1-3.5-1.45-.55-2.4 1-3.15 4.15-2.1 11.7-4.65 7-2.4 13.85-4.2-1.9 2.9-2.15 6.6zm61.35-127.7q-.95.6-15.45 2.9l-16.9 2.6q-2.5.4-2.95-.35t.75-3.3q2.7-5.75 7.9-15.8 5.2-10 5.95-10.85.7-.85 20-4.05 19.2-3.2 19.5-2.65.25.6-8.7 15.7-9.05 15.15-10.1 15.8"/><path fill="#00a63c" d="M294.3 29.4q-1.1.55-27.25 4.6l12.6-22.15q.2-.45 14.35-3.1l14.15-2.4Q295.4 28.85 294.3 29.4"/><path fill="#0d131a" d="m165.75 115.85 31.15 10.1-1.3 1-29.2-9.55-8.65 16.5q-8.4 15.95-8.85 17.05l-.75 1.3-1.35-.05-9 .95.4-1.7 9-1zm29.85 11.1.25.1-.9.4z"/><path fill="#0d131a" d="m168.45 124.6 22 4.95 4.5-2.1-4.35 3.45-21.45-4.85-13.6 25.6 4.85 2.45q2 1 2 3.1l-.35 1.55q-.55 1.1-1.5 1.5l-2.35-.1q-3-1.45-9.1-1.85-6.7-.4-13.15.85l.55-1.7 12.75-.7q5.9.5 9.5 2.25 1.4.65 2.15-.8.35-.8.15-1.55-.25-.9-1.25-1.4l-6-3zm-37.1 30.35q-2.4 1.2-2.75 2.5-.15.7.15 1.15l1 .25-.9 1.7q-1.3-.2-1.9-1.2-.35-.55-.35-1.05 0-2.95 4.05-4.85l1.05-.45z"/><path fill="#0d131a" d="m164 136.75 4.8-3.35-26.8-2.5q-14.2 32.15-14.7 34.25-.25 1.15-.95 1.05-2.55.3-5.9 1.15-6.75 1.75-11.05 4.7-2 1.35-2 2.75l.2.65q.4.7 1.6.8 1.4.05 3.2-.8 14.65-6.8 27.7-4.55 1.05.2 2.05-.5.9-.7 1.1-1.6.35-1.45-1.8-2.1l-5.55-.8-3.05-.05-.5-.05q-.45-.2-.15-1l11.7-28.7zm8.35-4.3-7.95 5.6-19.65-.65-11 27.15q5.4 0 8.6.95 1.4.4 2.1 1.4.6.85.6 1.85l-.05.65q-.3 1.4-1.65 2.35-1.45 1.05-3 .75-6.2-1.05-13.55.2-7.25 1.25-14.3 4.5-2.3 1.05-4.25.55-1.6-.45-2.3-1.75-.3-.5-.3-1.25 0-1 .6-2.1.7-1.3 1.95-2.15 4.2-2.85 10.7-4.35l6.95-1.2 14.5-34.8.85-.6zm75.3-93.7 3.45.5-.45 1.25-2.85-.4-18.25-2.65-7.5-1.5q-1.1-.75-10.2-14.2Q202.6 8 201.5 5.15 201.1 4 202.7 4q2.95.1 20 2.9l11.55 2.25q6.9 1.5 7.7 2 1.15.7 4.9 7.55 3.4 6.2 6.5 12.75l-.45 2.05q-2.8-6.25-6.8-13.5-3.95-7.2-4.85-7.8-1.55-.9-17.55-3.55-15.95-2.65-19.3-2.6.95 2.65 9.35 15.35 8.1 12.3 9.2 13.2 1.2.65 24.7 4.15"/><path fill="#0d131a" d="m246.2 34.75 1.5-.05q.2-.2-.4-1.75-1.8-4.5-5.05-10.8-3.4-6.45-4.3-6.95-1.3-.75-12.8-2.7t-13.55-1.75q.6 1.75 6.6 10.9 5.85 8.9 6.7 9.6l17.6 2.95zm-2.95-12.55q3.2 6.2 4.9 10.45l.5 1.85-.25.8q-.5.65-2.35.35l-3.7-.55q-17.1-2.45-18-3.15-.65-.45-7.4-10.45-7.1-10.55-6.5-11.55.55-.75 13.9 1.5 12.7 2.2 14.05 2.95 1.2.7 4.85 7.8"/><path fill="#0d131a" d="M260.45 18.9q-.3.1-1.1 1.3-1.15 1.65-4.2 10.85-7.85 23.4-16.05 39.5-14.7 28.95-36.2 50.2-14.6 14.45-16.9 22.65-1.9 6.65 3.45 16 2.4 4.2 9.75 7.8 8.4 4.1 17.45 4 15-.2 26.2-12.15l5.05-2q-6.95 9-16.35 12.6-6.45 2.45-15.25 2.55-9.85.1-18.35-3.8-7.65-3.5-10.2-8-6.05-10.5-4.2-17.6 2.15-8.45 16.7-22.85 21.35-21.15 36.5-50.05 9.15-17.5 16.5-39.5l2.45-7.45 1.75-4.75q.75-1.75 1.65-2.7 1-1.05 1.85-.8 3 .8 5.15 12.6l-1.65 2.55q-1-5.75-2.3-9-.85-2.3-1.7-1.95m-8.85 127.75.4-.7 3.25-1.35-2.05 4.2-3.45 1.05zM265.75 39.1l1.05-.25 1.1-.3q1.3 18.8 1.45 26.9.25 17.25-2.05 29.35l-1.45 1.45-1.45 1.4q2.55-14.4 2.5-31.95-.05-8.45-1.15-26.6"/><path fill="#0d131a" d="M220.9 98.25q3.4-2.4 10.9-2.7 8.2-.3 15.3 2.5 5.15 2.05 9.05 5.7 4.95 4.65 6.15 10.55l-1 .2q-1.1-5.6-5.5-9.65-3.4-3.05-8.4-5.05-6.85-2.7-15.75-2.6-8.35.1-11.45 2.35zm16.75 17.4q1.7 1 4 3.1l-.95 1.2-3-2.45q-7.15-4.45-16.3-5-8.45-.55-13.8 2.35l.4-1.1q5.7-3.1 13.6-2.85 8.85.2 16.05 4.75m-5.45 24.5q-8.2-11.6-22-12.8-6.15-.55-11.5 1.15-4.75 1.5-7.4 4.1l-.7-.75q2.95-2.95 7.9-4.75 5.85-2.1 12.15-1.55 5.8.5 11.2 3.35 6.85 3.65 11.75 10.55 4.95 7.05 4.95 14.05l-1.4 1q.15-7.05-4.95-14.35m3.85 20.35h1.25q-1.7 4.7-5.1 8.1l-.75-.7q3.05-3.05 4.6-7.4m9.5-15.25q-.4.9 0 1.55t1.4.7q1.1.1 2.35-.65 10.1-5.95 19.5-9.75 8.7-3.55 12.3-3.55h.35l5.8 11.65q6.35 13.55 9.15 23.3.3 1-1.2.85-3.65.45-7.75 2.4-.95.4-1.2 1.25-.2.65.1 1.4.3.7.95 1.05l1.55.15q4.65-1.7 10.45-1.9 8.3-.3 17.45 2.7l3.2.35q1.1-.2 1.4-1 .3-.65-.1-1.4-.4-.85-1.4-1.4-4.1-2.1-8.65-3.3-4.85-1.3-8.2-1-1.15.4-1.3-.25-3.05-10.65-10.45-25.3-6.5-13-8.2-14.05-1.65-.85-14.85 4.3-13.75 5.35-20.75 10-1.4.9-1.9 1.9m38.55-17.9q2.35 1.5 7.05 10.95 5.6 11.3 11.85 29.05 3.65-.2 8.75 1.1 5.05 1.25 9.05 3.3 1.35.7 1.9 2.2.5 1.4 0 2.6-.5 1.25-1.9 1.7l-4.2-.25q-9-2.95-17.1-2.85-5.9.05-10.2 1.65-1.4.5-2.7 0t-1.75-1.6l-.25-1.35q0-.95.45-1.9.55-1.1 1.55-1.55 4.2-2 7.95-2.6-3.25-10.4-8.55-21.5l-5.65-11q-3.75.2-11.85 3.45-9.1 3.65-18.55 9.25-1.75 1-3.35.75-1.5-.2-2.15-1.3-.65-1-.2-2.3.5-1.55 2.5-2.9 7.05-4.7 20.95-10.4 14.3-5.85 16.4-4.5"/><path fill="#0d131a" d="M232.75 159.7q.55 1.35 2.6.65l5.2-1.75q11.35-3.8 16-5.2 7.65-2.3 10.15-2.3l.55.3 3.9 9.15q4.25 10.7 6.35 19.15.3 1.15-.45 1.4-5.85.7-9 2.15-1.1.55-1.45 1.65-.3.9.05 1.7.5 1.3 1.85.85 5.8-2.15 13.1-2.3 8.6-.1 16.5 2.8 2.35.85 3.85.6 1.25-.2 1.65-1.15.3-.8-.2-1.75-.5-1-1.6-1.45-4.55-1.85-8.95-2.85-5.05-1.25-8.35-.95-1.35.25-1.5-.45-1.25-6.75-6.55-20.05-5.15-12.7-6.6-13.6-1.5-.85-15 2.95-14.05 3.9-21.5 7.65-.45.25-.65 1.15-.25.9.05 1.65m3.05 2.5q-1.95.25-3.4-.5-1-.55-1.3-1.2-.5-1.2.1-2.95.55-1.75 1.5-2.25 7.1-3.55 21.25-7.65 14.8-4.25 16.85-2.95 4.65 2.9 13.95 34.2 3.75-.15 9.3 1.15 4.6 1.05 8.5 2.6 1.55.65 2.35 2.4.85 1.7.3 3.1t-2.25 1.9q-2 .55-4.95-.5-7.8-2.85-16.2-2.9-7.35-.05-12.85 2l-2.4.05q-1.25-.4-1.7-1.45-.3-.6-.3-1.4 0-1.15.6-2.2.6-1.15 1.75-1.7 3.5-1.65 9.1-2.35-4.1-15.95-10.05-26.95-9.6 1.65-22.65 6.75zM314.75 2.4l-20.3 3q-16.4 2.8-17.8 3.55-.8 1-5.8 10.7-5.15 9.9-7.9 15.75-1.1 2.3-.75 2.65l2.25.05 3.2-.5q27.25-4 28.85-4.9 1-.8 8.8-13.8 7.75-12.9 9.45-16.5m-18.8.95 12.25-2.1L316.85 0q.5.05.65.45.15.3-9.35 16.65-9.6 16.4-10.35 16.9l-7.85 1.55-22.1 3.4-3.2.45q-2.8.5-3.55-.55-.8-1.05.65-4 2.7-5.8 7.85-15.85 5.35-10.45 6.15-11.35.25-.3 5.25-1.45 6.4-1.5 14.95-2.85"/><path fill="#0d131a" d="M307.3 6.95 292.6 9.5q-11.55 2.2-12.6 2.7l-11.75 21 25.8-4.2q.75-.6 6.3-9.95zm-13.15 1.1 14.45-2.4.35.05.1.35q.15.6-6.65 12-6.85 11.4-7.6 11.75-.85.45-27.7 4.7l-.95.15 13.05-23q.6-1 14.95-3.6"/><path fill="#3f3927" d="m189.7 130.85-2.85 3.7q-30.7-11.05-62.55-23.2-63.65-24.3-69.25-29.85l-16.3-15.4q-9.4-8.95-8.25-10.3 1.25-1.55 53.85 2.85Q136.8 63 139.4 64.7q2.15 1.45 24.4 31.15 18.15 24.15 25.9 35"/><path fill="#00a63c" d="m182.35 128.85-9.6-.75q-25.05-9.2-51-19.4-51.95-20.3-56.5-25L50.6 69.6l-9.2-8.5 46.05 3.2q46.45 3.45 48.15 4.6 1.85 1.3 22.8 28.35 19.95 25.8 23.95 31.6"/><path fill="#3f3927" d="M192.35 133.65q2.95 3.3 2.8 4.15-.15 1.05-4.2 1.45-11.65 1.1-57.7-.15l-49.1-2.45q-5.2-1.45-80-53.95-2.95-2.2-2.6-3.35.45-1.3 4.85-1.1l106.25 4.9q3.15.9 36.5 21 36.5 22 43.2 29.5"/><path fill="#00a63c" d="m136.45 134.2-51-2.45q-1.55-.7-71.05-48.35l96 4.65q2.6.8 39.4 22.7 37.6 22.4 37.05 23.8t-50.4-.35"/><path fill="#fff" d="M194.7 130.8q4.1 4.15 4.45 7.75.35 3.35-2.55 4.65-3.25 1.4-9.1-.35-6.35-1.9-6.35-5.75 0-4.9 5.05-7.35 5.1-2.45 8.5 1.05"/><path fill="#dbdcdc" d="M182.95 132.3q1.85 5.05 4.4 7.35 2.8 2.55 8.45 3.8-3.8.95-8.95-.8-5.7-1.95-5.7-5.55 0-2.6 1.8-4.8"/><path fill="#00a63c" d="M184.9 173.7q0 8.35-6.05 14.3-6.05 5.9-14.6 5.9-8.65 0-14.65-5.45-6.15-5.6-6.15-13.85 0-8.45 6.15-14.75 6.15-6.35 14.65-6.35 8.55-.05 14.6 5.9 6.05 5.9 6.05 14.3"/><path fill="#009233" d="M184.9 173.7q0 5.9-3.25 10.85-3.2 4.85-8.5 7.35-11.5-12.05-29-22.65 1.85-6.75 7.35-11.15 5.7-4.6 12.75-4.6 8.55-.05 14.6 5.9 6.05 5.9 6.05 14.3"/><path fill="#eeed80" d="M226.5 171.5q0 12.4-11.45 21.15t-27.65 8.75q-16.15 0-27.6-8.75t-11.45-21.15 11.45-21.2q11.45-8.75 27.6-8.75 16.2 0 27.65 8.75 11.45 8.8 11.45 21.2"/><path fill="#cdcd6f" d="M177.55 193.35q11.9-.25 22-5.25 10.55-5.3 15.5-14.05 5.45-9.65 2.65-21.45 4.2 3.95 6.45 8.7 2.35 4.95 2.35 10.2 0 12.4-11.45 21.15t-27.65 8.75q-9.8 0-18.35-3.5-8.3-3.4-13.7-9.3 9.9 5.05 22.2 4.75"/><path fill="#00a63c" d="M201.75 155.6q6.7-4.9 13.65-2.9 7 2 10.2 9.65 3.15 7.65.7 16.5t-9.15 13.75q-6.7 4.85-13.7 2.9-6.95-2-10.15-9.65-3.15-7.65-.7-16.55 2.5-8.85 9.15-13.7"/><path fill="#009233" d="M199.65 166.65q-5.1.1-6.9 2.15 2.6-8.65 9.2-13.35t13.45-2.75q7 2 10.2 9.65 3.15 7.65.7 16.5-1.5 5.2-4.5 9.1 1.85-13.5-11.75-19.15-5.15-2.2-10.4-2.15"/><path fill="#3f3927" d="M424.1 65.05q-16.9 22.15-25.2 28.8-7.6 6.1-80.45 22l-71.35 14.7-18.65 1.8q6.5-7.2 41.5-41.05 36.1-34.85 39.1-36.4 3.25-1.65 66.55-7.8 63.3-6.1 63.9-4.85.75 1.55-15.4 22.8"/><path fill="#00a63c" d="M416.3 65.15q-13.25 16.9-20.15 22.6-6.2 5.15-74.65 20.85l-67.15 14.65-13.95 4.55q4.95-5.55 36.8-35.85Q309.45 61.35 312 60q2.7-1.4 59.15-7.4t57.15-4.95q.75 1.2-12 17.5"/><path fill="#3f3927" d="M469.5 93.2q-4.5 2.9-56.3 27.55-50.85 24.15-53.8 25.1-1.85.6-64.4-.75-65-1.45-67.2-1.35-5.4.25-6.35-1.35-1.05-1.65 3.05-4.9 8.5-6.75 60.3-35.6 51.05-28.45 54.85-29 3.15-.45 63.95 5.45l65.45 6.8q5.15.9 5.35 2.8.2 1.95-4.9 5.25"/><path fill="#00a63c" d="m402.35 83.8 60.7 6.05-50.8 25.05q-51.3 25.2-54.1 25.75-4.25.85-64.5-.15-61.2-1.05-61.8-2.75-.6-1.65 52.55-30.45 52.2-28.25 55.25-29.05 1.65-.4 62.7 5.55"/><path fill="#fff" d="M227.55 128.95q8.25.35 9.2 6.55.95 6.15-5.95 9.4-4.95 2.35-11.95 2.7-7.9.35-8.2-3.2-.3-3.65 6.75-9.75 6.85-5.85 10.15-5.7"/><path fill="#dbdcdc" d="M212.3 146.65q7.65-.75 12.95-3.3 6.65-3.25 10.85-9.8 1.45 2.95.05 6.15-1.45 3.35-5.35 5.2-3.65 1.75-9.4 2.45-6.3.75-9.1-.7"/><path fill="#fff" d="M147.1 168.9q-.35 1.55-1.1 2.55t-1.45.85q-.65-.15-.95-1.35-.25-1.2.05-2.8.35-1.55 1.1-2.5.75-1 1.45-.85t1 1.35q.25 1.2-.1 2.75"/><path fill="#0d131a" d="m189.65 129.15-1.3-.35-1.3-.4-27-36.4Q140.85 66.6 139 65.35q-3-1.7-53.05-5.85-50-4.15-54.8-3.15.25 2.05 15.1 15.75l7.65 7.2-2.9-.55-6.8-5.95q-9.85-9.1-12.9-12.5-3.7-4.15-2.55-5.55 1.4-1.7 54.8 2.8l34.7 3.3q20.15 2.2 21.55 3.25 4.4 3.35 25.4 31.5z"/><path fill="#0d131a" d="m179.35 123.7-2.45-1.65-24.5-31.9q-15.55-19.95-17-20.95-1.35-.9-33.5-3.4l-59.45-4.25 20 18.8-1.65-.15-19.85-18.1q-1-1.1-.8-1.45.15-.35 1.75-.35 91.45 6.4 94.2 8.3 1.85 1.25 18.55 22.6 16.65 21.25 24.7 32.5"/><path fill="#0d131a" d="M182.4 138.9v1.5q-19.95.45-57.55-.65l-41.3-2.2q-5.3-1.45-80.85-54.8Q-.4 80.45.1 79t5.7-1.45l57.05 2.1 49.95 2.6q.95.25 12.15 6.6l24.3 14.2q27.05 16.35 38.6 25.55l-1.45.75q-12.15-9.45-44.05-28.3L112.5 83.9l-51.55-2.6L6.4 79q-4.35.1-3.95 1.25L4.6 82.1q74.8 52.45 79.75 53.8l40.35 2.1q38.45 1.3 57.7.9"/><path fill="#0d131a" d="m182.15 134.55-.4.8q-15.45.2-53.8-.95l-42.6-2.05q-1.2-.25-35.15-23.2-33.8-22.8-36.3-24.95-.9-.8-.7-1.1l1.25-.2 96.1 4.7q.95.25 13.05 7.25 11.9 6.8 25.5 14.9 27.25 16.2 35.2 21.9l-.65.7q-8.5-5.95-35.05-21.75l-26.2-15.3-12.1-6.75-35.55-1.95-58.6-2.65q67.6 46.45 69.5 47.3l16.1 1 34.05 1.4q35.05 1.25 46.35.9"/><path fill="#0d131a" d="M180.4 137.1q0-2.75 1.4-5.05 1.45-2.55 4.05-3.6 2.4-1 5.1-.4 2.6.55 4.3 2.25 2.7 2.75 4.1 5.5 1.45 2.9 1.05 5l-.85 1.95-2.5-.7q1.05-.75 1.3-2.1.35-1.7-.75-4-1.1-2.25-3.45-4.6-1.3-1.35-3.2-1.65-1.95-.3-4 .55-2 .8-3.35 2.6-1.45 2-1.45 4.35 0 2.05 2.1 3.4l.25.15-2.1.35q-2-1.75-2-4m-30.8 23.8q-2.55 2.75-3.95 6.25-1.45 3.6-1.45 7.45 0 6.2 4.15 11.2 3.9 4.8 9.8 6.45l2.25 2.1q-9.25-1.45-14.05-7-4.4-5.1-4.4-12.7 0-6.2 3.15-11.3 2.9-4.7 7.8-7.6-2.45 3.25-3.3 5.15"/><path fill="#0d131a" d="M221.5 155.25q-2.4-1.45-4.75-2.2-5.35-4.9-12.85-7.65-7.8-2.85-16.5-2.85-15.75 0-26.9 8.5t-11.15 20.45q0 10.8 10.5 19.5 11.35 9.4 27.55 9.4 10.85 0 19.8-4.2l3.6.4q-10.5 5.8-23.4 5.8-16.35 0-28.15-8.3-12.5-8.85-12.5-22.45 0-12.75 12.05-21.95 12-9.15 28.6-9.15 10.6 0 19.8 4.05 8.9 3.95 14.3 10.65"/><path fill="#0d131a" d="M197.5 160.95q-2.85 3.8-4.2 8.6-2.35 8.55.65 15.9 3.05 7.45 9.7 9.3 5.55 1.6 11.15-1.55 3.8-2.15 6.6-5.95t4.15-8.6q2.4-8.55-.65-15.95-3-7.4-9.7-9.3-5.5-1.55-11.1 1.6-3.8 2.15-6.6 5.95m-6.5 8.2q2.8-9.9 10.45-14.75 7.25-4.6 14.8-2.5 7.45 2.15 11.15 9.6 3.85 7.75 1.25 17.15-3.45 12.35-12.95 16.8-6.75 3.1-12 1.6-7.4-2.2-11.25-10.45-3.95-8.45-1.45-17.45"/><path fill="#0d131a" d="M217.65 177.45q-.55 4.25-3.3 6.8-2.75 2.6-6.05 2t-5.2-4-1.35-7.65 3.3-6.8q2.75-2.6 6.05-2t5.25 4q1.9 3.4 1.3 7.65m222.8-136.1.4.15.15.3q.55 1.15-5.8 10.05L425 65.4l-11.8 14.45-1.8-.2q8-9.45 18.1-23.45 9.25-12.7 9.1-13.35-.2-.6-63.2 5.35-63.35 6-66 7.4-2.5 1.3-34.2 31.8-30.5 29.3-43.25 42.35l-1.9-.2q14.05-14.5 42.2-41.9 32.65-31.8 36.8-34 3.2-1.75 65.75-7.55 62.45-5.85 65.65-4.75"/><path fill="#0d131a" d="m410.2 48.3 16.35-1.4 2.95.05q.8 1.15-7.5 12.05-7.85 10.35-16.5 19.95l-1.15-.15q7.25-8.2 15.25-18.75 7.55-10.05 8.15-12-5.35-.4-59.25 5.35t-56.25 7q-2.1 1.15-30.5 27.95-28.2 26.6-38.45 37.1-1.8 1.35-3.3 2.15l.05-.1q4.75-5.35 36.5-35.6Q309 61.05 311.8 59.6q1.45-.75 22.6-3.35l36.7-4.1z"/><path fill="#0d131a" d="M476.35 87.45q.5 2.35-5.6 6.3-4.4 2.85-56.55 27.7-51.2 24.4-54.3 25.4-1.25.4-25.4-.1l-60.65-1.4-40.95-.85 1.2-1.45 39.75.8q82.85 1.9 85.3 1.25 3.05-.95 53.85-25.15 51.7-24.55 56.1-27.4 4.9-3.15 4.55-4.6-.3-1.3-4.7-2.05-6.3-1.05-65.65-6.8-60.55-5.85-63.55-5.45-3 .45-43.4 22.65-41.3 22.7-61.7 35.35l-1.25-1q20.6-12.8 62.05-35.85 40.95-22.7 43.9-23.15 3.3-.5 64.15 5.45 59.45 5.8 66.35 6.95 2.8.45 4.55 1.35t1.95 2.05"/><path fill="#0d131a" d="M462.55 88.9q1.5.2 1.75.5.3.45-1.25 1.45-2.35 1.55-51.6 25.4-50.25 24.3-53.2 24.9-1.65.35-21.3.3l-43.3-.45-56.35-1.9v-.95l57.55 1.85 42.4.45q19.2.05 20.8-.3 2.25-.45 39.7-18.7l63.55-31.3q-118.75-11.9-121.55-11.4-1.05.3-17.65 9.05-17.55 9.2-36.35 19.35-36.2 19.5-49.05 27.5l-.35-.9q11.65-7.4 48.95-27.5 19-10.3 36.1-19.25 17-8.95 18.1-9.2 1.95-.5 48.7 3.75z"/><path fill="#0d131a" d="M209.9 144.5q-.15-1.7 1.25-4.2 1.2-2 3-3.9 4-4.15 5.85-5.55 3.3-2.5 6.95-3 3.75-.5 7.05 2.15 2.9 2.3 3.4 5.05.65 3.25-.5 5.85-1.3 2.85-4.6 4.45-4 1.9-10.5 2.65-7.15.85-10-.75-1.75-1-1.9-2.75m1.5-.15q.05.9 1.15 1.6 2.45 1.4 8.65.65 5.7-.7 9.3-2.4 3.15-1.5 4.35-4.25 1-2.25.5-4.75-.5-2.35-3.25-4.05-2.5-1.55-4.8-1.55-2.05 0-5.45 2.4-3.25 2.2-6.7 5.8-3.95 4.3-3.75 6.55"/><path fill="#fff" d="M201.2 163.45q1.35-1.6 3.1-1.45 1.7.1 2.85 1.9 1.1 1.8.95 4.15-.2 2.4-1.55 4t-3.1 1.5q-1.75-.15-2.85-1.9-1.15-1.8-.95-4.2t1.55-4"/><path fill="#eeed80" d="M165.15 154.6q2.35.15 4.35 2.25 1.9 2 2.3 4.45.45 2.65-1.2 4.2-8.8 8.2-27.25 17.95-16.6 8.75-28.6 12.55l-4.1-.1q-.85-1.2 3.2-3.15 11.75-5.65 27.35-18.1 13.7-10.95 19.1-17.55 2.15-2.65 4.85-2.5"/><path fill="#eeed80" d="M175.45 159.35q.85-2.75 3.75-4.5 2.75-1.65 5.6-1.55 3.05.05 4.3 2.15 1.5 2.35-.1 6.65-4 10.75-16.25 26.15-11.9 14.9-21.7 22.05-2.8 2.05-4.05 1.4-1.25-.7 1.65-3.75 6.4-6.75 16.1-25.2 8.4-16.05 10.7-23.4"/><path fill="#cdcd6f" d="M167.6 163.75q1.7-1.4 3.25-.7 1.6.75-.25 2.45-8.8 8.2-27.25 17.95-16.6 8.75-28.6 12.55l-2.35.45q16.15-6.7 33.25-17.3 13.6-8.45 21.95-15.4m17.5 1.25q1.25-1.95 2.5-1.75t-.4 3.4q-3.5 6.8-8.05 13.25-4.6 6.55-11.5 14.4 5.3-7.5 11.35-18.25z"/><path fill="#0d131a" d="M170.1 165.35q1.1-1.05 1.5-.8t-.75 1.45q-6.85 6.95-24.35 16.8-18.45 10.4-31.5 13.95l-4.15.7q-2.3.1-2.65-.75-.55-1.55 5.3-4.65 9.8-5.1 22.75-14.45 12.15-8.75 19.5-15.7 1.5-1.4 1.95-1.15t-1.15 1.8q-7.4 7.35-19.5 16.35-13.4 9.95-22.9 14.5-3.05 1.5-2.8 2.1l.95.2 2.25-.4q13.1-4.2 29.85-13 18.05-9.5 25.7-16.95m2.85 0q1.05-2.6 1.6-2.4.55.15-.5 2.75-3.95 10-11.15 22.5-7.55 13.15-13.7 20.25-2 2.3-1.75 2.55l1.05-.1 2.1-1.25q7.95-5.75 18.25-18.1 10.5-12.6 17.25-24.8.85-1.55 1.35-1.3.5.3-.3 1.85-6.4 13.1-17.1 25.95-9.7 11.7-18.35 17.95-1.65 1.2-3.75 1.9-2.35.8-3.05 0-.55-.6.55-2.35.9-1.5 2.65-3.3 5.45-5.7 13.4-19.55 7.25-12.5 11.45-22.55"/></svg>