<svg xmlns="http://www.w3.org/2000/svg" width="249" height="166" viewBox="0 -0.2 248.55 165.65"><path fill="#0d131a" d="M226.75 98.15q-1.4-2.15-.9-3.25.4-.85 7.45-3.85 7-2.95 9.55-3.4l1.8.1q1.8 2.1-2.35 18.5-2.35 1.25-6.15-.3-3.3-1.35-6.25-4.15-2-1.8-3.15-3.65"/><path fill="#007b36" d="M243.2 91.2q0 3.1-.75 8.15-.75 5.15-1.35 5.85-1.95 1-5.1-.5-2.65-1.25-5.3-3.75-1.8-1.65-2.85-3.25-.95-1.4-.95-2.1l.05-.1q1.1-.85 7.85-3.35 6.85-2.55 8.25-2.5z"/><path fill="#00662a" d="M242.3 100.6q-.65 4-1.2 4.6-2.6 1.35-7.15-1.65 5.25-4.1 9.15-10.25-.2 3.5-.8 7.3"/><path fill="#0d131a" d="M209.9 115.8q2.45-1.1 5.85.7 2.9 1.5 5.65 4.5 1.85 2 2.9 3.85 1.2 2.25.65 3.3-.5.85-7.1 3.6-6.6 2.8-8.75 3.05l-1.45-.3q-.45-.45-.45-4.05 0-2.45.5-6.2.4-3.15.9-5.45.55-2.65 1.3-3"/><path fill="#00662a" d="m220.5 121.8 2.6 3.4q.85 1.45.85 2.15l-.05.2q-1.1.85-7.4 3.1-6.45 2.25-7.75 2.15l-.2-1.95q0-3.25.65-8.2.65-5.1 1.25-5.8 2-.85 5.05.85 2.6 1.45 5 4.1"/><path fill="#0d131a" d="M181.1 93.8q-1.3-.95-1.7-3.05-.35-2.05.35-4.25 1.05-3.4 4.1-5.45 3.1-2.05 7.4-2.3 10.25-.55 26.6 6.35 19.7 8.35 26.85 21.1 3.85 6.85 2.95 14.2-.9 7.55-6.3 11.65-5.3 4-12.6 3.15-8.75-1.05-16.9-9.2l-7.55-7.9-6.8-7.35-8.85-9.7q-4.55-4.9-7.55-7.25"/><path fill="#8bc56c" d="M201.15 81.8q7.6 1.95 15.25 5.1 20.5 8.55 26.95 20.05 3.55 6.25 2.5 13-1.05 6.8-6.1 10.6-5.4 4.05-12.45 2.35-7-1.7-14.15-8.8-6.35-6.35-13.95-14.6l-9.2-9.65q-4.7-4.7-7.95-7.25-.9-.7-1.15-2.3t.3-3.3q.75-2.3 2.55-3.95 2.8-2.55 7.6-2.8 3-.15 9.8 1.55"/><path fill="#78ab5e" d="M182.05 92.6q-.9-.7-1.15-2.3t.3-3.3q.75-2.3 2.55-3.95 2.8-2.55 7.6-2.8l2.15.1q-.3 11.5 7.75 21.7 7 8.9 21.8 18.3 4.4 2.8 12.65 4.4 6.85 1.3 8.25.9-1.6 2.9-4.2 4.9-5.4 4.05-12.45 2.35-7-1.7-14.15-8.8-6.35-6.35-13.95-14.6l-9.2-9.65q-4.7-4.7-7.95-7.25"/><path fill="#0d131a" d="m183.85 82.85.2-.75q4.2 1.1 12.45 5.3 9.15 4.65 18.05 10.5 23.7 15.7 29.75 29.3l-.75.9q-5.2-11.75-29.6-28.45-9.2-6.3-18.3-11.3-8.4-4.6-11.8-5.5"/><path fill="#0d131a" d="M226.05 115.5q1.6-4.9 5.55-7.1 3.65-2.05 7.3-.8 4 1.4 6.1 7.2 2.05 5.65-.05 8.1-1.45 1.75-7.7 2.75-6.65 1.05-9.25-.7-1.45-1-2.1-3.75-.7-2.95.15-5.7"/><path fill="#007b36" d="M238.75 108.95q2.2.75 4.15 5.8 2 5.25.35 7.3-1.5 1-6.5 1.9l-8.15-.25q-1-.55-1.4-2.85-.4-2.45.25-4.7 1.25-4.2 4.9-6.25 3.35-1.9 6.4-.95"/><path fill="#0d131a" d="M168.15 33.6q3.9-2.05 11.8-4.75 8.4-2.85 9.7-2.35.6.25.6 1 .4 2.45-2.05 12.8-2.35 10.15-3.25 10.9l-3.8.1q-2.25-.75-5.05-2.45-4.25-2.6-7-5.8-3.1-3.6-3.1-6.65l.1-1.2q.2-.7 2.05-1.6"/><path fill="#007b36" d="m188.55 28.1.1.8q0 3.05-1.85 11.8-1.85 8.6-2.6 9.7l-2.55-.15q-2.2-.65-4.95-2.35-3.95-2.4-6.6-5.4-3-3.35-3-6.05 0-.5.15-.95.75-1.15 10.15-4.4t11.15-3"/><path fill="#00662a" d="M174.6 46.5q8.65-5.15 13.2-10.85L185.85 45q-1.15 4.7-1.65 5.4l-2.55-.15q-2.2-.65-4.95-2.35z"/><path fill="#0d131a" d="m185.05 53.6 9.6-.8 8.15.45q.35.25.3.8-.15 1.5-4.75 8.45-4.5 6.8-5.4 7.2-1.9.8-5.45-3.25-2.2-2.55-3.45-5.35-1.4-3.1-1-5.3.15-.8.55-1.55.3-.45 1.45-.65"/><path fill="#007b36" d="M201.5 54.4q-.35 1.5-4.4 7.7-3.9 5.95-4.7 6.55-.35.2-1.4-.5-1.25-.85-2.65-2.45-2.05-2.35-3.2-5-1.3-2.85-1-4.75l.4-1.05q.95-.55 8.15-.75z"/><path fill="#00662a" d="m188.35 65.7-1.75-2.3q7.3-1.25 12.1-3.8l-3.85 5.85-2.45 3.2q-.35.2-1.4-.5-1.25-.85-2.65-2.45"/><path fill="#0d131a" d="m131.85 4.05 6.5 7.5q9.25-6 12.05-7.6 2.45-1.45 2.85-1.05 1.25 1.25-2.25 9.4-1.75 4.25-6.3 13.35l-.15.35-41.9 9.2-.3-.25-9.6-7.85q-6.45-5.55-8.1-8.8-.35-.7-.1-1.15t.95-.4l5.7 1.4q5.3 1.45 8.2 2.6l1.85-8.7Q102.6 6.3 103.7 6q.85-.2 5.65 2.9l9.05 5.95q2.8-6.7 4.05-9.25Q125.1.25 126.5 0q1.35-.2 5.35 4.05"/><path fill="#fcd13e" d="m143.5 24.65-40.45 8.9q-5.3-4.5-9.5-8.55-4.45-4.3-5.1-5.65.95-.2 4.2.7 3.2.9 7.05 2.45l.8.35.2-.9q1-4.6 2.1-8.35 1.15-4.1 1.75-4.8.95.2 5.2 2.6l8.6 5.25.75.5.35-.85q2.05-5 4.1-8.9 2.25-4.3 3.1-4.6.9.05 4.35 3.3 3.3 3.1 6.65 6.95l.45.5.55-.35q9.8-6.4 12.35-7.45 0 1.7-2.3 7.45z"/><path fill="#d9b536" d="M102.8 13.55q.95 6.85 11.6 9.95l18.95 3.4-30.3 6.65q-5.3-4.5-9.5-8.55-4.45-4.3-5.1-5.65.95-.2 4.2.7 3.2.9 7.05 2.45l.8.35.2-.9q.75-3.65 2.1-8.4"/><path fill="#0d131a" d="M171.25 119q6.6 2.85 6.6 7.1l-.35 1.9q-1.75 5.1-14.5 17.3-12.55 12-15.05 11.6-2.8-.5-11.2-8.9-8.8-8.8-11.8-14.75-1.6-3.3-.75-5 4.9-9.55 21.75-11.75 14.95-1.9 25.3 2.5"/><path fill="#007b36" d="M162.2 143.65q-11.55 10.65-14.05 11.05-2.4-.5-10.4-8.2-8.6-8.3-11.4-13.95-.95-1.85-.95-2.9l.15-.7q4.4-8.55 20.2-10.85 14.6-2.1 24.9 2.3 5.65 2.4 5.65 5.75l-.25 1.35q-1.65 4.85-13.85 16.15"/><path fill="#00662a" d="M170.65 120.4q5.65 2.4 5.65 5.75l-.25 1.35q-.75 2.2-4.2 6.3-8.3 2.65-14.9 7.85-7.25 5.7-9.8 12.6-3.8-2.15-10.6-8.95-7.65-7.65-10.2-12.75-.95-1.85-.95-2.9l.15-.7q4.4-8.55 20.2-10.85 14.6-2.1 24.9 2.3"/><path fill="#0d131a" d="M179.5 37.5q18.6 18.6 18.6 44.8 0 26.25-18.6 44.85t-44.85 18.6q-26.2 0-44.85-18.6-18.6-18.6-18.6-44.85 0-26.2 18.6-44.8 18.65-18.6 44.85-18.6 26.25 0 44.85 18.6"/><path fill="#8bc56c" d="M196.25 82.1q0 25.3-17.95 43.2-17.9 17.95-43.2 17.95T91.85 125.3q-17.9-17.9-17.9-43.2t17.9-43.2q17.95-17.95 43.25-17.95t43.2 17.95q17.95 17.95 17.95 43.2"/><path fill="#78ab5e" d="M92.15 38.6q-12.7 36.45-4.55 57.35 7.9 20.2 38.05 32.45 13.75 5.6 25.55 6.2 7.05.4 17.35-1.35-15.25 10-33.45 10-25.3 0-43.25-17.95-17.9-17.9-17.9-43.2 0-12.5 4.9-23.95 4.7-11.05 13.3-19.55"/><path fill="#0d131a" d="m157.15 36.45-1.35.95q-.4 0-2.05-1.05-5.5-3.55-14.8-7.6-9.2-4-11.8-4-2.5-.05-16.8 3.85L96.5 32.45q6.65-6.05 17.75-9.55 10.2-3.25 20.4-3.25 10.8 0 20.5 3.45 6.2 2.2 12.8 6.25-3.1 1.35-10.8 7.1"/><path fill="#007b36" d="M126.9 22.95q-3.05.15-11.8 2.4l-11.05 3.15q14.25-8.1 30.6-8.1 9 0 17.75 2.6 7.55 2.25 13.25 5.85-1.95 1-6.35 3.9l-3.95 2.65q-4.9-3.35-14.65-7.8-10.5-4.75-13.8-4.65"/><path fill="#0d131a" d="M88.75 30.1q9.95 2.6 11.4 4.15 1.4 2.9-.15 6.9-1.35 3.55-4.5 6.6-2.35 2.3-5.45 3.75-3.3 1.5-4.7.8-.95-.5-5.35-10.25-4.4-9.85-4.75-12.4-.25-1.75 2.3-1.85 1.9-.1 11.2 2.3"/><path fill="#007b36" d="M99.15 34.75q.45 1 .45 2.1 0 2.3-1.7 5.2-1.5 2.5-3.85 4.75-2.4 2.35-4.65 3.5-2.05 1.1-2.85.65-1.05-.95-5-9.75-4.1-9-4.1-10.9v-.1q1.6-.5 11.15 1.5 9.6 2 10.55 3.05"/><path fill="#00662a" d="m94.7 46.1-.65.7q-2.4 2.35-4.65 3.5-2.05 1.1-2.85.65-.8-.75-3.85-7.15-3.05-6.55-4.5-10.65 6.25 8.55 16.5 12.95"/><path fill="#0d131a" d="M60.75 60.6q.45-1.15 9.45-2.95 9.05-1.75 9.75-.65l1.5 3.45q.9 4.4-2.05 9.15-1 1.55-2.65 2.75-1.55 1.1-2.55 1.1-.95-.05-7.35-5.9-6.5-5.9-6.1-6.95"/><path fill="#007b36" d="M79.1 58.05q.8 1.65.8 3.7 0 3.8-2.15 7.25-1.85 3-3.2 2.9-1.15-.35-5.95-4.7-5.1-4.6-5.15-5.95.95-.85 7.65-2.25 6.75-1.35 8-.95"/><path fill="#00662a" d="M65.75 60.3q5.5 4.05 13.25 6.05L77.75 69q-1.85 3-3.2 2.9-1.15-.35-5.95-4.7-5.1-4.6-5.15-5.95.5-.45 2.3-.95"/><path fill="#0d131a" d="M144.1 43.55q1.3 5.6-1.55 9.85-2.85 4.15-8.15 4.55-6.5.55-10.9-2.15-4.45-2.75-5.7-8.35-1.3-5.6 2.05-10.6 3.3-4.95 8.55-5.5 5.2-.6 9.8 3 4.65 3.55 5.9 9.2"/><path fill="#fff" d="M139.75 40.85q2.15 3.1 2.1 6.5-.05 3.5-2.5 5.6-2.6 2.2-6.5 1.65-4-.55-6.05-3.55-2-3-1.4-6.65.65-3.55 3.35-5.6 2.4-1.8 5.8-1.15 3.45.65 5.2 3.2"/><path fill="#0d131a" d="M139.8 46.35q0 1.9-1.35 3.2-1.3 1.35-3.2 1.35-1.85 0-3.2-1.35-1.3-1.3-1.3-3.2t1.3-3.2q1.35-1.35 3.2-1.35 1.9 0 3.2 1.35 1.35 1.35 1.35 3.2"/><path fill="#fff" d="M137.75 44.9q0 .65-.4 1.1-.45.45-1.05.45t-1-.45q-.45-.45-.45-1.1t.45-1.1q.4-.45 1-.45t1.05.45q.4.45.4 1.1"/><path fill="#0d131a" d="M117.55 59.95q3.1.65 4.75 3.65 1.7 3 .95 6.6t-3.45 5.7q-2.75 2.15-5.8 1.5-3.1-.65-4.8-3.65-1.65-3-.95-6.6.75-3.65 3.45-5.75 2.75-2.1 5.85-1.45M188.8 70q-1.95-3.2-2.6-6.95-.7-4 .85-4.9 1.45-.85 3.4 2.1 1.85 2.7 2.75 6.45.55 2.2.45 3.95-.15 1.6-.8 2.15-.65.6-1.75-.15-1.15-.75-2.3-2.65m-41.3 3.55q-.6 5.35-4.35 8.75-3.7 3.45-8.4 2.9-4.7-.5-7.6-4.65-2.9-4.2-2.3-9.5.6-5.35 4.35-8.75 3.7-3.4 8.4-2.9 4.7.55 7.6 4.7t2.3 9.45m24.5-1.9q.45 5.75-2.5 10.15-2.9 4.35-7.5 4.7t-8.2-3.5q-3.55-3.85-4-9.65t2.5-10.15 7.55-4.7T168 62t4 9.65m14.55-3.85q1.1 4.7-.1 8.45t-3.95 4.4q-2.8.7-5.55-2.15t-3.85-7.55.1-8.45 4-4.4 5.5 2.15q2.75 2.85 3.85 7.55"/><path fill="#0d131a" d="m134.55 84.05 1.35.3q-1.75 17-8.7 30.45-7.15 13.8-18.95 22.15l-.8-.3Q117.7 128.9 125 115.6q8.1-14.8 9.55-31.55m47.7-4.15.95-.85q4 10.2 3.45 22.7-.7 14.05-7.25 24.3l-.8-.25q5.3-8.35 6.45-21.95 1.15-13.85-2.8-23.95m8.4 13.7q2.15-7.55 2.6-7.7.4-.15 2.15 1l1.65 1.15q0 3.6-1.45 9.05-1.15 4.5-2.95 9.05l-.65.65q-3.15-4.25-3.35-5.1-.1-.65 2-8.1"/><path fill="#007b36" d="M193.8 87.25q.2-.05.9.5l1.25 1.15q-.35 6.6-3.95 15.9l-1.85-2.95q0-.4 1.75-7.45z"/><path fill="#0d131a" d="M182.2 42.45q2.4 4.35 1.55 8.45-.8 4.1-4.4 5.25-4.05 1.3-7.8-.35-3.95-1.75-5.9-6.1-1.95-4.45-.95-8.95.95-4.25 3.7-5.75 3.2-1.8 7.4.65 3.95 2.3 6.4 6.8"/><path fill="#fff" d="M171.35 39.3q3.1.05 5.5 2.9 2.35 2.85 2.45 6.55.1 2.35-1.55 3.85-1.6 1.5-4 1.45-2.8 0-4.75-2.45-1.95-2.5-2.05-6.1-.05-2.5 1.4-4.4 1.4-1.8 3-1.8"/><path fill="#0d131a" d="M168.5 47.05q-.35-1.6.4-2.9.7-1.3 2.15-1.55 1.45-.2 2.75.75 1.25.95 1.65 2.55t-.4 2.9q-.75 1.35-2.2 1.55-1.45.25-2.75-.75-1.25-.95-1.6-2.55"/><path fill="#fff" d="M169.85 45.5q-.05-.5.2-.95l.8-.5q.5-.05.9.25.45.35.5.85.1.55-.2.95l-.8.5-.9-.25q-.4-.35-.5-.85"/><path fill="#0d131a" d="M133.65 123.3q7.25 2.6 8.4 7.85 1.2 5.4-3.5 19.4-4.5 13.3-6.7 14.3-1.35.6-5.05-1.85-7.5-5-17.05-14.35-10.65-10.55-10.3-14.05.55-5.15 6.45-8.95 5.65-3.6 13.1-4.15 8.2-.55 14.65 1.8"/><path fill="#007b36" d="M140.75 133.6q0 6.05-4.25 17.2-3.9 10.2-5.6 11.4-.6.15-2.25-.65-2.45-1.1-5.75-3.75-7.5-6.05-14-13.05-6.85-7.45-6.8-9.85.2-5.25 5.75-8.55 4.6-2.7 11.3-3.3 7.55-.7 13.7 1.5 6.7 2.35 7.7 6.9z"/><path fill="#00662a" d="M111.6 124.65q.2 10.7 5.55 20.65 5 9.25 13.8 16.85l-.05.05q-.6.15-2.25-.65-2.45-1.1-5.75-3.75-7.5-6.05-14-13.05-6.85-7.45-6.8-9.85.15-3.65 2.9-6.4 2.45-2.35 6.6-3.85m115.7-7.9q6.55 5.25 14.75 5.25l1.25-.05-.05.1q-1.5 1-6.5 1.9l-8.15-.25q-.9-.5-1.35-2.6-.4-2.15.05-4.35"/><path fill="#0d131a" d="M171.05 100.8q8.1 9.75 7.2 11.2-3.5 5.8-11.7 11.75-7.1 5.2-11.85 6.65-1.95.6-9.95-8.2-7.9-8.75-7.9-11.2 0-1.25 11.5-10.35t13.2-9.3q1.45-.2 9.5 9.45"/><path fill="#007b36" d="M166 122.25q-8.35 6.3-11.45 7.3-1.05-.15-8.75-8.65-7.7-8.55-8-9.9.5-1 11.25-9.4 10.85-8.55 12.1-8.75 1 .1 8.6 8.85 7.55 8.7 7.65 9.8-2.4 3.95-11.4 10.75"/><path fill="#0d131a" d="M107.5 93.95q9.15-4.65 10.85-3.4 1.15.85 3.75 8.6 2.6 7.9 1.95 9.15-1.2 2.25-9.2 6-7.9 3.7-8.95 2.95-1.7-1.25-4.6-7.7-2.95-6.65-2.9-9.75.05-1.3 9.1-5.85"/><path fill="#007b36" d="M117.45 91.75q.9.7 3.25 8.05 2.25 7.3 2 8.25-.5 1-8.05 4.6-7.5 3.55-8.25 3.2-.8-.55-3.65-7.2-3-6.85-2.95-8.7.25-.55 5.3-3.15 5.3-2.75 8.95-4.15 3.1-1.2 3.4-.9"/><path fill="#0d131a" d="M20.9 109.75q3.45 3.1 3.45 7.35 0 2.9-1.65 5.75-1.6 2.7-3.95 4.2t-4.05.9q-1.05-.35-7.3-6.3-6.45-6.2-7.2-7.85l-.2-.7.3-.6q1.25-1.25 6.75-2.25l9.15-1.15q3.6-.2 4.7.65"/><path fill="#007b36" d="M20.15 110.6q3.3 2.95 3.05 7-.15 2.45-1.5 4.7t-3.35 3.65q-1.95 1.35-3.25.95-1.15-.55-6.8-6.35-5.85-5.95-6.25-7.3 1.55-1 9.05-2.3z"/><path fill="#00662a" d="m2.05 113.25.75-.35 19.9 1.3q1.5 3.85-1 8.1-1.35 2.25-3.35 3.65-1.95 1.35-3.25.95-1.15-.55-6.8-6.35-5.85-5.95-6.25-7.3"/><path fill="#0d131a" d="M42.8 130.3q.25 1.2-1.3 9.65-1.65 8.85-2.85 10.1-.4.4-.8.3-1.3-.2-6.45-5-5.1-4.8-7.1-7.7-1-1.45-1-2.35v-.25q.85-4.35 4.35-6.65 2.95-1.95 6.9-2 3.15-.05 5.5 1.05 2.4 1.15 2.75 2.85"/><path fill="#00662a" d="M41.7 130.65q0 1.8-1.55 9.1-1.6 7.65-2.45 8.65-1.75-.65-7.35-5.95-5.9-5.55-5.9-7.1v-.1q.85-4.55 4.8-6.5 2.3-1.2 5.3-1.25 2.7 0 4.8.9 2.05.85 2.35 2.1z"/><path fill="#0d131a" d="M89.35 78.75q5.55 3.4 6.95 9.45 1.1 4.9-.7 8.95-1.75 3.9-6 6.55-9.45 5.95-17.2 12.5-5.55 4.65-12.3 11.5l-6.4 6.9q-3.7 3.95-6.4 5.95-10.4 7.75-21.65 6.95-9.8-.7-15.85-7.1-5.65-5.95-5.95-14.35-.4-10.25 8-20.4 11.3-13.7 31.5-21.85Q60.1 77.05 77.1 76q6.9-.45 12.25 2.75"/><path fill="#8bc56c" d="M94.6 88.55q2 8.9-6 13.6-7.5 4.5-13.5 9.4-6.35 5.25-16.1 15.1l-6.25 6.2q-3.35 3.1-6.25 5.25-9.9 7.35-20.05 6.85-8.95-.4-14.55-6.35-5.2-5.4-5.2-13.4 0-9.55 8-19.2 10.45-12.6 30.75-20.4 15.95-6.1 31.85-7.4 8.35-.7 13.1 3.4 3.25 2.75 4.2 6.95"/><path fill="#78ab5e" d="M94.9 93.75q-.85 5.2-6.3 8.4-7.5 4.5-13.5 9.4-6.35 5.25-16.1 15.1l-6.25 6.2q-3.35 3.1-6.25 5.25-9.9 7.35-20.05 6.85-8.95-.4-14.55-6.35 9.1 3.2 18.3-1.6 6.4-3.35 17.45-13.8 14.1-13.35 20.3-18.1 13.2-10.1 27-14.55.15 1.8-.05 3.2"/><path fill="#0d131a" d="m95.55 92.8-.2 1.35q-4.5 1.65-21.15 13.8-17.5 12.75-23.8 19.55-5.45 5.85-12.1 9.4-8 4.3-15.35 3.7-5.15-.4-9.65-3.45-4.7-3.15-6.75-7.95l-.55-2q3.2 4.8 7.65 7.9 4.7 3.3 9.35 3.65 7.15.6 15.15-3.6 6.6-3.55 11.7-9.05 6.9-7.45 24.15-19.85Q90.65 94.3 95.55 92.8M14.7 85.55l.9-.2q2.05.3 9.05 5.85 6.85 5.5 8.4 7.95 1.1 1.7-2.25 4.65-3.55 3.15-8 4.55-5.1 1.6-7.75-.6-.8-.65-.95-6.3L13.9 93q-.05-6.7.8-7.45"/><path fill="#007b36" d="M24 92.5q6.5 4.8 8.1 7.25l.05.3q0 1-2.1 2.9-3.2 2.85-7.3 4.2-4.65 1.6-6.95-.25-.55-.8-.55-7.05 0-4.05.25-7.55.25-3.8.7-4.5 1.5.15 7.8 4.7"/><path fill="#00662a" d="M19.8 89.65q3.5 2.2 7.15 5.1 4.05 3.25 5.15 5l.05.3q0 1-2.1 2.9l-1.55 1.2q-2.25-7.45-8.7-14.5"/><path fill="#0d131a" d="M47.7 119.45q.95.05 2.25 1.6 2.35 2.7 5.9 9.25 3.5 6.55 3.4 7.9l-.45.7q-2.3 1.25-20.65-2.25-1.9-.95-2.6-3.35-.7-2.35.1-5.2 1.05-3.85 4.05-6.25 3.4-2.7 8-2.4"/><path fill="#007b36" d="m47.75 136.85-9.1-1.2q-1.5-.8-2.05-2.8-.5-2 .15-4.45.95-3.4 3.5-5.55 3-2.55 7.35-2.25 1.45.1 5.5 7.45 3.9 7.05 4.15 9.05z"/><path fill="#00662a" d="m46.6 134 10.6 2.95.05.15-9.5-.25-9.1-1.2q-1.25-.65-1.8-2.1-.6-1.45-.4-3.4 3.8 2.05 10.15 3.85"/></svg>