<svg xmlns="http://www.w3.org/2000/svg" width="219" height="313" viewBox="-0.6 -1 218.75 313.35"><path fill="#0d131a" d="M101.95 255.1q1.9 8.8-2.25 13-7.5 7.55-11.3 16.05-3.25 7.25-2.85 12.55.15 1.85-.45 2.45l-2.25 1.05q-3.85 1.65-16.25 3.6-13.1 2.1-19.15 1.7l-1-.35q-.1-.25.2-1.15.25-.8 1.45-2.5l-5 1.7q-2.6.85-4.85 1.15l-3.1.4q-.45-.15.2-1.95.6-1.75 1.2-2.8l1.35-2-5.2.7q-1.4.25-.9-1.3.4-1.25 1.8-3.15 3.45-4.8 8.45-8.95l5.6-4.2Q40.7 266.75 41 255.95q.25-8.2 3.25-16.1 2.3-6.15 5.2-9.8 11.25-7.95 24.35-4.45 11.15 3 19.3 12.6 6.9 8.15 8.85 16.9"/><path fill="#fff" d="m83.05 295.7.1 2.65q-5.85 2.75-33.75 5.4-1.55-.2.2-2.35l.5-.6q1.5-1.85 6.95-6.6 1.35-1.2.75-1.2-.65-.05-1.85.9-2.6 1.85-6.4 5.6-4.1 1.5-7.55 2.4l-4.7.75q.1-1.15 2.7-4.75l1.35-1.7 3.9-4.35q2.6-2.75 4.4-4.1 1.95-1.45 1.25-1.5t-3.05 1.35q-2 1.25-5 4.5-2.05 2.25-3.4 4.05v.05l-5.1.5q.5-1.5 5.35-6.7 5.35-5.7 8.75-7.45 1.25 1.3 1.85 1.1.4-.1.2-.45l-1.35-2.25q-2.1-3.9-3.9-11.5-1.9-8-1.7-13.3.25-8 2.95-15.4 2.15-5.75 4.9-9.15l.25.2q10.75-7.6 22.55-4.5 10.05 2.65 17.8 11.8 4.45 5.25 6.9 11.1 2.35 5.6 2.25 10.25-.15 4.3-2.45 6.65-15.3 15.5-15.65 28.6"/><path fill="#dbdcdc" d="M91.9 258.95q9.35-1.9 9.25 1.5-.15 4.3-2.45 6.65-7.55 7.6-11.65 15.2-6.85-11.6-16.3-21.95-3.9-4.3.1-3.15.35.1 8.15 3.35 1.75.7 12.9-1.6"/><path fill="#0d131a" d="M62.5 106.2q5.55-2.75 8.55-.3 5.95 5 .15 31.8-3.15 14.7-12.15 43.8-2.7 8.7-3.3 11.05-1.7 7.35-4.45 27.35-2.55 18.45-2.5 20.45.05 1.75-.55 2-.55.2-1.45-.9l-4.4-4.7q-2.9-2.95-4.45-5.15-2.7 4.35-9.65 8.25-3.55 2-6.85 3.25l-1.15.5.8-7.75-5.65 3.9-4.6 3q-.3-.1-.35-4.35v-5.6q-2.9 1.55-7.55 3.35l-2.6.65q-.95-.15.6-2.2 5.55-7.45 8.7-18.45Q17.35 189.4 30 166.2q6.35-11.7 15.05-23.75L36 145.9q-.7.2 2.05-2.75l4.15-4.4-3.6.75-4.35.55-2.25-.25q-.1-.3 1.6-1.5l9.85-8.7q7.85-7.2 11.1-10.4l-5.05.1q-1.6.05-1.75-.35-.15-.35.9-1.4 8.2-8.55 13.85-11.35"/><path fill="#fff" d="M70.1 107q2.8 2.3 2.55 10.75-.35 11-5.9 32.25-3.1 11.85-9.05 31.05l-3.3 11.15q-2.3 9.95-7.55 47.15-6.55-7.65-8.2-10.4l-.7-1.05-.55 1.15q-3.05 6.1-15.4 12.25l.8-8.1-10 6.05-.3-9.65-1 .6q-4.1 2.25-7.7 3.55 1.85-2.85 3.8-7.1 2.25-4.9 3.8-10.05 9.05-29.55 23.4-55.2 4.55-8.05 9.05-14.75l3.7-5.25 1.2-1.6q.95-1.45-.45-.65-3.6 1.95-7.55 3.35l2.15-2.2 3.3-3.05q2.05-1.9.15-1.35l-2.3.9q-3.7 1.1-7.8 1.35 4.05-3.15 12.4-11.2l8.05-7.9.65-.75q.4-.7-.85-.55l-2.8.1-2.65-.2q7.9-8.1 12.1-10.2 4.7-2.4 6.95-.45"/><path fill="#0d131a" d="M31.3 178.65q1.6-2.4 1.9.15l1.1 5.55 1.1 5.6q9.95-11.8 11.9-15.95l.1 2.15q.5 5.5 2.45 11.7 1.4 4.4 4.25 11.25l.05.1v.15q-2.7 14.9-6.4 41.7l-.1.95-.65-.7q-6.45-7.4-8.95-11.1-2.55 4.4-9.7 8.9-3.6 2.25-7 3.75l-.7.3.8-7.8-9.75 5.9-.3-9.7q-5.45 3-9.25 3.95l-1.25.3.8-1q1.5-1.9 3.7-6.4 2.75-5.75 4.75-12.15 5.8-18.85 14.5-37.5l.5-1.15.45.1 1.05 4.95q.35 2.15.35 4.55l2.3-4.75z"/><path fill="#e85377" d="m31.9 180.8 1 4.85 1.25 6.35q.1 1.1.35 1.2l.95-.8 4.15-4.6q4.5-5.35 7.1-10.25.65 5.25 2.55 11.1 1.35 4.35 4 10.65-1.7 9.5-6.25 40.65-6.8-7.95-8.6-10.85l-.4-.65-.35.7q-3.15 6.3-16 12.6l.85-8.05-9.95 6-.3-9.65-.6.35q-4.7 2.6-8.45 3.85 1.85-2.8 3.85-7.15 2.45-5.2 4.1-10.55 5.6-18.4 13.75-36.2.6 2.8.8 5.1v6.45q.15.65.85-.75 2.75-5.75 3.95-7.8z"/><path fill="#c94768" d="M53.25 199.3q-1.7 9.5-6.25 40.65-6.8-7.95-8.6-10.85l-.4-.65-.35.7q-3.15 6.3-16 12.6l.85-8.05-.1.05q2.3-3.3 3.35-9.3 1.1-6.2 2.25-8 2.25-3.05 6.05-5.45 5.05-3.1 5.95-3.9 6.45-5.6 7.75-23.75 1.55 6.5 5.5 15.95"/><path fill="#0d131a" d="M42.8 204.1q1.3-.85 2.6-.6 1.3.3 2.1 1.65 1 1.6 1.4 4.4.4 2.95-.2 5.65-.9 4.05-3.45 6.65-2.45 2.5-4.65 2-2.1-.45-2.8-4-.65-3.35.3-7.6.65-2.8 1.9-5 1.25-2.15 2.8-3.15"/><path fill="#d0879d" d="M41.2 222.35q-1.7-.35-2.4-3.3-.65-2.95.15-6.6.6-2.6 1.75-4.65 1.2-2.1 2.55-2.95 1.05-.65 1.95-.45.8.15 1.55 1.2.85 1.4 1.05 3.75.15 2.35-.4 4.95-.8 3.65-2.65 6.05t-3.55 2"/><path fill="#0d131a" d="M14.25 223.65q1.45-1.45 4.05-1.95 2.55-.55 5 .1 1.95.5 3.4 2.3 1.2 1.5 1.8 3.5l.05.15-.55 1.9q-1.6 5-2.4 9.3-1.4 7.45-1.35 16.4v2.9l.25 6.15q.05 2.4-.65 2.6-.6.2-2-1.25-1.35-1.35-2.75-3.45-4.6-6.9-5.95-22.1-1.3-14.3 1.1-16.55"/><path fill="#595757" d="M22.65 223.85q3.65.9 4.7 3.95l-.45 1.5q-3.4 10.45-3.75 22.45l-.05 6.5v4.05l-.25 2.05q-.75-.55-2.15-2.7-3.35-5.05-5.2-15.35-1.5-8.7-1.3-16 .1-4.3.9-5.05 1.2-1.2 3.35-1.6z"/><path fill="#3e3a39" d="M21.3 244.25 23.15 224q3.25 1.1 4.2 3.8l-.45 1.5q-3.4 10.45-3.75 22.45l-.05 6.5v4.05l-.1 1.55q-2.25-8.25-1.7-19.6"/><path fill="#0d131a" d="M41.1 223.85q1.5 1.4 2.35 3.3l.05.15-.3 1.9q-.95 5.4-1.15 9.55-.4 7.65.75 16.45l.4 2.85.95 6q.35 2.3-.3 2.6-.55.25-2.05-.85-1.5-1.15-3.1-3-5.45-6.25-8.75-20.8-3.05-13.65-1-16.2 1.45-1.75 3.6-2.9 2.45-1.25 4.75-.95 2 .25 3.8 1.9"/><path fill="#595757" d="M40.8 240.4q-.2 7.2.85 14.95l.4 2.85.6 5.65-.1.45q-.8-.45-2.45-2.4-4.55-5.25-7.9-17.25-2.95-10.4-2.75-16.25.1-1.5.4-1.9 1.05-1.3 3.1-2l4.25-.35q3.75.45 5.1 3.35l-.25 1.5q-1.05 6.7-1.25 11.4"/><path fill="#3e3a39" d="m42.3 227.5-.25 1.5q-1.05 6.7-1.25 11.4-.2 7.2.85 14.95l.4 2.85.6 5.65-.1.45q-.8-.45-2.45-2.4-1-1.15-1.85-2.5-1.4-11.3-2.55-16.8-1.9-9.45-6.05-15.65l.2-.45q1.05-1.3 3.1-2l4.25-.35q3.75.45 5.1 3.35"/><path fill="#e85377" d="M41.65 199.85q2.6 1.9 1.3 9.7l-3.7 21.1q-1.75 8-3 5.85l-3.8-8.3q-3.4-7.8-5.35-13-1-2.7 1.8-7.25 2.65-4.25 6.5-6.9 4.1-2.8 6.25-1.2"/><path fill="#c94768" d="M37.95 212.65q-.9-4.15.8-9.35 1.35-4.2 5.85-12.85 1.3 1.4-1.65 19.1l-3.7 21.1q-1.75 8-3 5.85l1.25-9.8q1.2-10.45.45-14.05"/><path fill="#0d131a" d="M42.35 209.55q.2-2 .8-1.9.55.15.35 1.95-3.65 28.2-6.5 28.85l-.75-.1q-.7-.35-1.2-1.2-8.35-20.35-8.5-21.9-.15-1.25.25-1.5t.9 1.4q.45 1.65 4.3 10.55l4.65 10.35q1.1-1.25 3.4-12.95 2-10.25 2.3-13.55"/><path fill="#fff" d="M73.95 118.15q4.95-.1 9 9.05 7.9 17.8 8.8 54.2.95 37.5-6.85 58.6-9.15 24.85-26.45 10.7-21.2-24.95-11.8-69.95 2.85-13.7 9.2-31.5 6.3-17.65 6.65-19.4 5.95-11.55 11.45-11.7"/><path fill="#0d131a" d="M61.75 129.9q.65-2.75 1.15-3.65.6-1 .15 2.6-.45 3.7-1 5.6l-2.3 6.5q-5.7 15.35-7.45 20.9-4.6 14.45-6.3 27-4.8 35.1 12.05 60.7 1.35 2 .65 2.15-.7.1-1.75-1.3-17.35-23.75-13-59.45 2.3-19 13.4-48.95l2.7-6.9zM172.7 82.75q.35-3.75 1.5-4.05 1.1-.3 1.95 2.85 2.3 8.2 2.8 20.45.55 12.7-1.35 18.2l12.15-15.75q11.5-15.15 14.4-20.65.5-1.7 1.4-10.35l.6-5.8.2-.9q.15-.5.45-.45 4.45.85 7.8 12.4 3.55 12.25 2.2 25.55-3.7 35.9-20.85 61.15 2.75 10.3 4.2 20.95 1.55 11.35 1.25 20.3-.8 27.65-15.5 46.9-7.7 10.1-19.6 15.55-11.7 5.3-25.8 5.4-15.7.1-22.55-11.1-10.5-17.1.05-57.1 7.3-27.7 17.9-48.1l2.6-5.6q2.15-4.4 4.55-8.25 13.6-21.55 18.7-31.15 9.95-18.75 10.95-30.45"/><path fill="#fff" d="M207.6 70.6q2.25 2.4 4.3 8.95 2.8 8.7 2.5 18.3l-.3 4.15q-1.55 15.6-7.8 35.2-7.05 22.1-15.15 31.95-1.4 1.7-1.05 1.8.3.1 1.35-.75l2.5-2.35q4.95 18.65 4.35 37.45-.4 14.15-4.1 26.2-3.75 12.25-10.5 21.1-7.6 9.95-18.6 15.15-11 5.25-24.6 5.3-14.85.15-21.35-10.4-5.3-8.65-4.8-24.3.55-18.7 8.95-44.85 6.55-20.5 13.85-34.65 1.3-2.55 8.4-13.8 12.15-19.2 17.85-29.85 9.75-18.05 11.95-29.55 2 10.45 1.75 20.1-.15 4.95-.9 10.35-.75 5.6-1.8 9-1.75 3.55-1.3 4.05.35.35 1.65-1.2l3.35-4.65 4.95-6.6q8.55-10.35 20.75-28.3-1.9 8-7.75 21.45l-10 21.55-3.75 8.2q-1.5 3.5-2.15 6-.75 2.8-.25 2.9.4.1 1.5-2.3l2.95-6.15 4.3-8.8q9.3-19.65 12.5-28.3 7.25-19.5 6.45-32.35"/><path fill="#dbdcdc" d="M123.3 193.5q6.55-20.5 13.85-34.65.25-.55 21.55 18.55 23.45 21.1 26.55 23.5 6.15 4.7 10.35 4.75l2.7-.35q-.4 14.15-4.1 26.2-3.75 12.25-10.5 21.1-7.6 9.95-18.6 15.15-11 5.25-24.6 5.3-14.85.15-21.35-10.4-5.3-8.65-4.8-24.3.55-18.7 8.95-44.85"/><path fill="#fff" d="M72.6 126.65q11.45-17.65 28.7-20.7 6.05-1.1 11.8-.15 4.55.75 6.4 2.1 3.4 2.55 12.95 21.9 10.1 20.45 19.3 44.35 24.8 64.5 17.85 86.25-.15.55.3 8.05.1 9.85-1.8 21.35 4.7 3.8 8.35 8.9 1.8 2.55 2.65 4.3l-10.5-1.75 1.25 3.85q1.05 4.05.15 5.1-3.1-1.7-10.65-3.4l-6.95-1.4.85 1.95 1.1 3.2q-23.8-8.65-25.55-10.1-.4-.35-1.65-3.8l-3.1-7.8q-5.45-12-13.8-18.2-7.2-.7-12.65-2.25-9.8-2.8-23-9.85-13.8-7.35-20-24.2-5.5-15.05-4.4-35.85 1.05-19 7.3-38.8 6.1-19.1 15.1-33.05"/><path fill="#dbdcdc" d="M125.8 117.1q6.65 11.7 15 30.6 9.3 20.95 16.4 41.3 18.4 52.6 12.4 71.4-.15.55.3 8.05.1 9.85-1.8 21.35 5.95 4.8 9.8 11.1-1.45-1.55-3.4-3-3.8-2.9-8.05-3.35-2.05-.05-5.05-3.05-5-5.1-9.1-8.05-6-4.35-20.15-6.75-10.75-1.8-16.95-1.55-2.65-2.8-4.95-4.5l-9.45-1.45q-6.85-1.55-15.2-5.25l10.45.5q6.8-.85 14.3-5.35 15.8-9.45 15.6-45.05-.15-30.15-10.2-60.25-2.7-9.05.4-19.6 2.95-9.95 9.65-17.1"/><path fill="#0d131a" d="m118.95 108.35 1.05-.95q3.4 3.8 12.85 23.25 10.35 21.35 19.25 44.1 8.7 22.25 13.7 40.15 6.3 22.8 5.9 36.4-.15 5.5-1.45 9.3h.5l.5 4.85q.45 4.1.35 6.95-.2 6.55-2.75 17.15l5.9 5.3q2.85 3.05 5 7.85.6 1.4.2 1.55l-1.4-.2-8.5-1.35.95 2.5.7 3.5.05 2.5-1.15-.2-7.35-1.85-8.9-2 .8 1.5.65 1.55.55 2.15-3.35-.8q-24.65-7.95-26.2-9.2l-.6-1.4-.9-3.1q-3.85-10.85-4.8-12.8-4.2-8.95-10.55-13.7-9.45-.4-17.1-2.65-9.55-2.9-18.6-9.25-2.05-1.45-2.05-2.05 0-.65 2.85 1 9.5 5.5 18.2 8.45 8.55 2.9 15 2.85-2.2-2.95-2.25-3.7 0-.75 1.05.7L112 271q6.65 4.95 10.9 13.1 1.45 2.85 4.85 12.2l1.5 3.6q1.7 1.35 24 9.5l-2.05-4.5-1.5-2.3q-.55-.85.1-.7 1.15.25 2.7 2.8l6.75 1.35q7.05 1.6 10.4 3.2l.05-.45q-.95-5.3-2.9-8.95l-.8-1.5q-.15-.3.45-.1 1.05.35 2.25 2.3l9.05 1.5-2.95-4.65q-2.6-3.4-6.15-6.25-1.1 2.05-1.55 1.95-.45-.15-.35-.75l.65-2.65 1.05-7.9q.6-5.8.65-9.1l-.15-10-.1-1.95.05-.55q1.2-3.75 1.35-8.85.8-26.25-22.45-83.5-8.5-20.9-17.6-39.35-8.25-16.8-11.25-20.15"/><path fill="#0d131a" d="m67.65 138.1.95-.7.45 1.25 5.8 22.3q1.6-7.05 8.3-18.6 7.15-12.45 12.95-16.7 1.75-1.3 2.25-1.1.35.2.4 1.85.05 2.05 1.7 9.15 2.05 8.9 4.7 15.9l.15.85-.5.85q-3.4 3.05-11.8 16.2l-.75.95-.45-1.2q-1.5-4.35-2.35-9.35-5.5 7.65-11.55 23l-6.05 16.75-.55 1.55q-.25.1-.95-1.5-1.2-2.7-3.5-10.7-2.85-9.7-3.55-15.35-3.95 12.3-6.05 30.7-2.45 21.6.4 33.4.4 1.6-.2 1.3-.5-.25-1.9-2.1-2.2-2.85-5.65-9-4.05-7.25-5.4-11.6-1.3-5.35-.05-20.8 1.3-16.1 3.9-21.95 3.45-11.4 8.8-21.2t10.5-14.15"/><path fill="#e85377" d="M75.35 163.9q2.4-9.05 10.1-21.8 7.6-12.6 11.75-14.8.3 5 2.35 13.3 1.95 7.8 3.55 11.1-2.3 2.2-5.9 7.45-2.55 3.65-4.4 6.8-1.95-7.55-2.25-10.3l-.1-.85-.5.7q-5.15 6.8-11.85 22.3-3.75 8.65-7.1 17.9-1.85-5.35-3.55-11.3-2.65-9.35-3.2-14.95-.15-1.25-.4-1.2-.2.1-.85 1.35-2.8 5.4-5.35 19.65-2.4 13.35-2.7 22.8-.2 6.2.05 13.1.2 5.6.55 8.25-2.3-3.1-5.4-8.65-3.45-6.2-4.6-9.85-.75-3.1-.5-13.6.2-6.6 1.95-16.1 1.45-7.8 2.8-12.25 2.85-9.35 7.85-18.45 5.25-9.55 10.05-13.5l3.35 11.95 3.15 11.1.55 1q.25.1.6-1.15"/><path fill="#0d131a" d="M178 225.55q1.7-1.25 3.15-.35 6.6 4.2 8.7 17.6 1.8 11.35-.2 22.95-.4 2.45-1.25 4.35-.85 1.95-1.6 2-.25.05-5-10.35-5.45-11.85-10.55-16.8l-.9-1-.15-2.4q-.75-3.2 2.1-8.65 2.65-5.2 5.7-7.35"/><path fill="#595757" d="M172.15 241.4q.1-3.6 2.2-8.4 2.1-4.9 4.35-6.5 1.15-.85 1.85-.3 4.4 2.75 6.65 12.5 2.05 8.55 1.7 18.65-.05 4.2-.75 8.35-.6 3.5-1.2 3.7-.3.5-1.2-1.8l-1.55-4.1-1.25-3.25q-2.6-6.5-6.25-11.75-2.25-3.25-4.45-5.45z"/><path fill="#3e3a39" d="m172.25 243.05-.1-1.65q.1-3.6 2.2-8.4 2.1-4.9 4.35-6.5 1.15-.85 1.85-.3 3.2 2 5.4 8.05-2.75 6.15-1.35 15.15.8 5.25 3.55 16.1v.2q-.6 3.5-1.2 3.7-.3.5-1.2-1.8l-1.55-4.1-1.25-3.25q-2.6-6.5-6.25-11.75-2.25-3.25-4.45-5.45"/><path fill="#fff" d="M132.7 114.3q3.25 1.45 6.2 1.8-.85.85-3.05 1.35l-2.05.35 6.55 4.9q7.4 6.1 11.85 12.3l-14.2-3.65 2.7 2.9q3.35 3.9 6.65 8.95l-5.3-1.9-2.5-1.15 5.9 7.55q7.3 9.6 14.25 19.8 22.25 32.6 32.7 58.95-1.1-.3-3.6-1.9l-2.3-1.5.7 4.4q.5 5.35-.2 9.95l-4.45-7.55-2.15-3.3-1.8 7.6q-2.7 8.7-7.2 14.3-.5-7.25-1.9-13.3-1.5-6.35-2.85-6.05t-5.55 8.3q-4.15 7.9-4.6 10.75l-2.85-5.35-6.05 12.35q-5.7-24.75-12.45-50.7-13.5-51.85-18.65-57.8-2.95-3.45-4.1-10.45-1-6.5-.1-13.3.9-7 3.4-10.75 2.75-4.15 6.5-2.55z"/><path fill="#dbdcdc" d="m154.9 166.05-11.3-20.75q12.2 15.8 23.15 32.8 17 26.5 25.65 48.35-1.1-.3-3.6-1.9l-2.3-1.5.7 4.4q.5 5.35-.2 9.95l-4.45-7.55-2.15-3.3-1.8 7.6q-2.7 8.7-7.2 14.3-.4-5.6-1.4-10.85-1-5.35-2.15-7.45 8.15-15.85-2.3-41.95-3.6-9.1-10.65-22.15"/><path fill="#0d131a" d="m121.9 110.2.6-1.25.8.6 6.3 3.05q4.2 1.75 9.4 2.8 1.6.3 1.7.65l-.9 1q-.7.55-2.05.8l-2.1.35 7.85 5.9q6 5.05 9.3 10.5 1.4 2.35 1.2 2.45l-1.65-.65q-8.45-3.25-12.45-4.3l4.1 4.45q3.15 3.5 4.45 5.85 1.35 2.45.9 2.45l-2.2-1-5.2-1.85q15.35 19.55 27.45 37.8 19.05 28.75 24.05 45.7.8 2.65.55 3.2-.2.4-1.3-.35l-4.35-2.85q.45 2.7.3 7.6l-.35 5.2-.3 2.3-1.6-2.9-3.05-4.8-2.45-3.4q-1.35 6.85-2.05 8.95-2.35 6.9-7.25 11.35l-.8.55-.1-1.85q-.5-7.05-1.8-12.8-1.2-5.25-2.15-5.85-1.3.8-5.15 8.1-3.95 7.5-4.4 10.3l-.35 2.1-3.05-4.8-3.4 7.85q-1.15 2.55-2.7 2.85-1.7.3-2.45-2.85-4.6-20.65-11.55-48.05-11.95-46.85-17.85-58.4-1.9-3.75-1.05-3.45.75.3 2.35 2.85 5.25 8.4 17.3 53.55 6.3 23.5 13.4 53.15l5.8-11.8 2.65 5q1.55-4.55 4.9-10.7 3.7-6.8 5.3-7.15.55-.1 1.1.25 1.4 1.05 2.7 6.95 1.1 4.9 1.65 10.95 3.8-5.4 6.15-13.25l1.6-6.85.25-1.85 1.05 1.55 1.7 2.65 3.8 6.25.2-2q.1-3.35-.35-6.95l-.5-2.9-.45-1.85 1.55 1.1 4.15 2.65q-10.55-25.8-31.3-56.3-6.6-9.7-13.85-19.25L139 140.6q-1.7-2.25-.55-1.85l1.45.8 1.75.8 3.95 1.55q-2.9-4.2-5.75-7.5l-2.35-2.55-1.5-1.45q-.9-1.3 2.05-.35l12.4 3.75q-4.35-5.55-11.1-11l-5.95-4.4-1.7-.95q-1.65-.95-1.3-1l1.45.25 1.85.4 2.7-.15q1.6-.3.4-.55-4.65-1.15-13.9-5.7z"/><path fill="#0d131a" d="m167.4 178.9.7.9.4.65q15.8 25 24.15 45.9l.15.45-.45-.15q-1.85-.5-5.5-3.15.9 4.9.75 9.6l-.4 4.3-.1.65-.3-.55q-2.5-4.65-6.3-10.35-.65 4.05-2.25 8.7-2.65 7.7-6.7 12.75l-.35.45-.05-.55q-.45-6.7-1.7-12.45t-2.4-6.65l-.35-.1q-1.25.25-5.4 8.1t-4.6 10.75l-.1.7-2.9-5.55-6.2 12.5-.1-.6q-6.65-28.25-14.2-56.15l.15-.9 1.3.9 1.1.9q.5-3.1.7-10.2l.1-8.8q-.05-1.05.2-1.2.25-.1.95.45l7.25 6.5q7.35 6.8 11.6 11.9.6-3.6.85-7.9l.35-4.95q.15-1.05.6-1 .3.05 1.1.8l3.1 3q2.75 3 4.4 6.3.6-3.1.6-9.85z"/><path fill="#e85377" d="M169.05 182.65q15.45 24.55 22.95 43.4.2.45-2.05-1.1l-3.05-2.3q-.6-.6-.65-.15l.05.6.5 2.95q.5 3.6.35 7.05l.1 1.85-.05 1.9-5.95-10.65q-.2-1.5-.55-2.15-.6-1.35-1.05 2.75-.75 6.45-1.8 9.65-1.75 5.5-6.3 11.4-.5-6.45-1.65-11.95-1.25-5.9-2.6-6.85l-.7-.2q-1.4.35-5.4 7.8-3.9 7.25-4.8 10.85l-2.35-4.45-.1-.85q-.3-.5-1.15 1.45l-3.95 8.45-.95 1.45q-.4.15-.8-1.55-6.65-29.35-12.6-51.5l1.6 1.75.65.5q.25-.1.55-1.4.25-1.2.7-9.5l.4-8.35q3.1 2.4 10.3 9.45 6.4 6.3 7.6 7.8.9 1.15 1.15 1.15.3 0 .6-1.4l.75-6.4.45-6.3q4.25 4.1 7.7 9.75.6.95.9.8l.55-1.45q.4-2 .65-7.3.2-5.35 0-6.95"/><path fill="#c94768" d="m168.4 196.7.6-7.3.05-6.75q15.45 24.55 22.95 43.4.2.45-2.05-1.1l-3.05-2.3q-.6-.6-.65-.15l.05.6.5 2.95q.5 3.6.35 7.05l.1 1.85-.05 1.9-5.95-10.65q-.2-1.5-.55-2.15-.6-1.35-1.05 2.75-.75 6.45-1.8 9.65-1.75 5.5-6.3 11.4-.4-5-1.25-9.7-.9-4.9-1.9-7.35 4.45-4.05 3.85-14.4-.45-7.65-3.85-19.7"/><path fill="#0d131a" d="m154.8 247.35-.45-1.35q-.15-5.25 4.05-11.8 3.75-5.9 6.9-7.25l1.65.1q.45.2.7.5 5.95 5.95 3.7 28.9-.85 9.05-2.75 15.55-1.95 6.8-3.8 6.65-.4-.05-3.8-12.4-3.9-14.05-6.2-18.9"/><path fill="#595757" d="M156.9 246.7q.2-5 3.2-10.65 2.85-5.4 5.4-6.5l1.1.05q1.9 1.9 2.8 7.8.75 5.2.55 12.55-.25 6.45-1.15 12.55-.95 6.25-2.3 10.1l-1.3 3.15-1.1-4.35-.8-3.75q-2.45-11.15-6.4-20.2z"/><path fill="#3e3a39" d="M166.6 229.6q1.9 1.9 2.8 7.8.75 5.2.55 12.55-.25 5.9-.9 11.05.2-14.3-2.9-31.6z"/><path fill="#0d131a" d="M131.25 8.5q4.7-9.5 6-8.35.9.8.2 7.85l-2.15 15 3.95-7.6q1.75-3.6 2.2-1.95.4 1.3-.05 4.8-1.7 13.25-6.15 29.95-4.9 18.3-8.85 23.8-2.2 2.95-7.75 2.35-4.55-.55-8.75-3.05-4.7-2.8-6.35-6.7-2.1-4.95 1.6-9.8 2.2-2.9 13.55-23.3z"/><path fill="#e85377" d="M135.15 40.85q-5.1 23.15-9.9 30.35-1.55 2.25-6.4 1.7-4.2-.45-8.2-2.85-4.35-2.55-5.8-6-.65-1.5-.65-3.2.05-2.35 2.05-5.2 6.05-8.6 18.4-30.6 10.7-19.1 11.15-19.15.15.35-.9 6.9-1.25 8.05-1.55 10.65-.35 3.35.3 3.4.6.1 2.45-2.45l3.2-5.2q-1.6 10.1-4.15 21.65"/><path fill="#c94768" d="M118.85 72.9q-2.5-.25-5.1-1.3 15.55-25.4 24.2-44.65-2.4 13.2-5.1 23.65-3.95 15.1-7.6 20.6-1.55 2.25-6.4 1.7"/><path fill="#fff" d="M112.85 51.75q14.45 5.15 18.7 18 .05.8-1.65 2.25-1.45 1.2-.7 2.25 1.3 1.8 4.05 7.25 3.05 6.05 3.2 7.65.4 5.9-3.35 11.35-2.9 4.1-10.55 10.75-9.1 7.9-21.4 11.95-10.95 3.6-21.55 3.35-10.15-.25-15.5-3.8-5.65-3.75-3.25-9.55 3.5-8.35 2.3-24.95-1.05-15.2-4.9-26.35-2.7-7.8-14-31.25-10.95-22.7-11.3-24-.7-2.45 8.25 4.8l9.1 7.8q-.7-2.45-1.1-4.65-.8-4.45.85-3.2 2.95 2.25 13 14.65 12.1 14.9 19.4 27 4.4-1.6 14.55-2.25 11.05-.7 15.85.95"/><path fill="#0d131a" d="M112.6 52.45q-4.8-1.65-14.6-1.3-9.5.4-14.25 2.2l.75 1.75q.55 1.3-.1 1.35-.75.1-2.75-2.85-9.45-13.9-20.2-27.65Q51.9 13.8 49.65 12v.15q-.05 1.15 1.35 6.9l.25 1.8-1.4-1.1-7.8-6.55Q35.3 7.7 33.8 7q.8 2.05 7.5 15.9l10.05 21.05q5.7 12.25 7.55 17.75 2.55 7.3 4 15.9 1.6 9.7 1.3 18.7-.1 4.35-.8 9.5-.7 5.05-1.4 6.6-.75 1.65-1.25 1.5-.5-.1.1-2.4 2.85-11.35 1.25-26-1.35-12.05-5.25-23.4Q54 53.85 39.2 23.3L30.45 5.7q-1.15-2.3-.95-2.9.35-.9 3.75 1.3Q36 5.95 38.2 7.7L49 17.1l-1.2-5.85q-.45-1.6-.1-1.85.55-.35 2.75 1.4 4.55 3.7 14.1 15.6 10.7 13.4 18.25 25.8 15.8-5.6 29.05-2.05Q126.5 54.1 131.8 68.3q.5 1.3.2 2.4-.35 1-1.35 1.6-.85.45-1.1 1.35-.25.7.05 1.05 4.2 5.1 5.95 8 2.05 3.55 2.05 6.35 0 5.3-3.2 10.6-3.75 6.15-11.45 11.75-1.1.8-1.7.9-.7.15 1.2-1.55 13-11.25 13.3-20.15l-.05-1.4q-.1-1.45-3.1-7.35-2.7-5.35-4-7.2l-.7-1.65 1.85-1.8.9-.9q.4-.7.1-1.5-3.15-7.65-8.4-11.65-3.25-2.45-9.75-4.7"/><path fill="#0d131a" d="m112.65 51.65.1-.15.2.05q7.2 2.55 12.35 7.35.3.4.05 3.15-.2 2.9-.7 4.75l-.45 1.95q-.25.35-1.1-1.45-1.95-4.25-6.55-9.6l-5.6-6.05q-.45-.45.5-.25z"/><path fill="#e85377" d="M123.65 65.95q-2.9-6.15-9.65-13.3 6.45 2.4 10.6 6.4l.1.6q-.1 2.35-1.05 6.3"/><path fill="#0d131a" d="M116.95 67.9q-.55-1-.3-1.15.2-.15 1.15.65l6.05 5.15 9.45 8.55q3.25 6.35 3.35 8 .45 6.2-4.55 12.75l-.3.4-.85.8q-.55-7.3-3.65-14.6l-6.1-12.2z"/><path fill="#e85377" d="M134.85 94.9q-.8 2.7-2.6 5.45 0-5.45-5.3-15.85l-8.85-16.05q6.75 5.65 14.7 13.5 3 5.6 2.8 7.85-.1 2.8-.75 5.1"/><path fill="#0d131a" d="m83.25 72.05.1-.6.55.3q16.15 8.45 19.05 8.8l.85.2q.15 3-5.7 4.95-5.9 2-10.3.4-2.5-.95-4-5.65-1.55-4.7-.55-8.4"/><path fill="#f09cb4" d="M88.65 84.3q-1.95-.7-3.25-3.85-1.35-3.3-1.3-7.6 4.3 2.25 9.7 4.7 6.75 3.05 9.05 3.6-.15 1.65-5.2 3-5.4 1.45-9 .15"/><path fill="#0d131a" d="M105.9 76.55q0-1.8.25-1.85l.5 1.85q.2 1.25-.1 3.2l-.55 2q-1 .75-10.75-3.5-9.4-4.05-13.55-6.8-1.4-.9-1.25-1.2.1-.3 1.7.5 4.8 2.4 13.25 5.85 9.35 3.85 10 3.4.5-.35.5-3.45"/><path fill="#0d131a" d="m95 77.55 1.25.85.25 2.2q-.05 1.15-.45 2.05-.35.85-.75.8-.25 0-.6-.7-.4-.9-.4-2.2 0-2.2.7-3m25 5.3q-1.85-1.85-1.65-4v-.2l.15-.05q1.9-.75 11.25-6.8l.65-.35v.5q.8 3.5-.65 7.1-1.7 4.1-5.45 5.1-2.35.65-4.3-1.3"/><path fill="#f09cb4" d="M118.95 79.05q2.95-1.3 10.85-6.55v.45q-.05 2.95-1 5.35-1.5 3.75-4.8 4.65-1.9.5-3.5-.85-1.6-1.3-1.55-3.05"/><path fill="#0d131a" d="M121.05 78.4q-3.2 1.75-3.7 1.5-.25-.2-.45-1.35l-.2-2.35q.05-1.95.2-1.85l.3 1.85q.1 1.3.7 1.9.5.5 3.15-.95 3.5-1.95 6.8-4.5 2.95-2.25 3.5-3.2.6-1 .3.65-.25 1.6-1.1 2.15l-3.3 2.35q-2.95 2.05-6.2 3.8"/><path fill="#0d131a" d="M123.55 76.55q.4.95.35 2.3l-.25 1.8q-.25.75-.55.75-.25 0-.4-.75-.2-.8-.15-1.85 0-.6.3-1.8zm-7.7 14.7q.05-1.15 3.2-1.3t3.1.55q0 .75-.95 1.55-1 .9-2.15.85-1.4-.05-2.35-.65-.85-.55-.85-1"/><path fill="#f09cb4" d="m121.2 90.9-.65.75-1.25.35q-1.55-.05-2.2-.7l2-.4q1.5-.15 2.1 0"/><path fill="#0d131a" d="M113.65 98.15q3.3-2.85 4.05-2.7t1.8 1.75q.85 1.25 1.3 2.4.4.85.15 1.05l-.8-.6-1.25-1.95q-.9-1.25-1.4-1.4-.25-.05-3.55 2.8l-5 4.35q-.85.7-1.05.45t.35-.95q2.45-2.65 5.4-5.2"/><path fill="#fff" d="M95.85 79.8q0 1.25-.3 1.25-.35 0-.35-1.25 0-1.3.35-1.3.3 0 .3 1.3m27.65-1.55-.25 1.05q-.2 0-.2-1.05 0-1.1.2-1.1.25 0 .25 1.1"/></svg>