<svg xmlns="http://www.w3.org/2000/svg" width="294" height="300" viewBox="-1.2 0.15 294.25 299.6"><path fill="#0d131a" d="M210 204.8q1 1.25 4.65 8.4 3.75 7.25 5.1 9.05v.05l.05.1q.9 1.85 4.45 6.15l2.65 3.4q1.1 1.6 1.25 2.6.55 4.3 2.1 11.55.35 1.4.25 2.8-.15 1.8-1.05 2.3-1.05.55-8.45-3.35-5.7-2.95-9.9-5.6L200 234.5l-10.15-7.1q-1.25-.7-2.95-8.2-1.95-8.55-2.8-10.15-.6-1.15-.15-2.45 1.4-3.55 10.7-6.95l.4-.15.35.3q3.7 3.5 8.95 3.8 5 .3 5.65 1.2"/><path fill="#ffee7d" d="m209.35 207.3 4.1 7.5q3.45 6.3 4.95 8.4 1 1.95 4.6 6.35 3.4 4.25 3.55 5.2.6 4.9 2.15 11.7l.05.4q0 .95-1 1.5-.65.35-6.55-2.75l-7.65-4q-1.25-.55-10.7-7.65-9.35-7.05-10.65-7.55-1.4-.55-3.5-8-2.5-8.85-3.15-10.1l-.2-.6.15-.5q.6-1.6 4-3.5 2.45-1.35 5.3-2.4 4.45 3.6 9.65 4.5 4.45.75 4.9 1.5"/><path fill="#dccd6c" d="M203.6 234.5q-10.25-7.65-11.4-8.1-1.4-.55-3.5-8-2.5-8.85-3.15-10.1l-.2-.6.15-.5q.55-1.45 3.5-3.15 2.15-1.3 4.95-2.4 3.55 6.1 14.5 18.95 9.9 11.55 10.7 14 1 2.95-5.25-2.1-7.45-5.95-8.05-6-2.05-.15-2.5 2.9-.3 2.35.25 5.1"/><path fill="#0d131a" d="m215.05 215.35 3.35 6.05q3.65 6.85 5.35 11.6 1.85 5.15.25 6.2-.95.6-2.8-.25-1.7-.75-3.25-2.3-1.5-1.45-9.1-7-7.5-5.45-8.95-6.9-1.4-1.35-4.65-7.5t-4.9-7.8l.7-1.95q1.6 1.6 4.95 8.3 3.2 6.45 4.75 7.7l17.7 13.8q2.95 2.3 3.9 1.05.85-1.1-.25-4.05-1.6-4.4-4.7-10.1l-4.2-7.75q-1.3-2.8.15-1.2zm14.6-76.45q.85-.15 8.25 2.3 8.1 2.75 15.7 2.7l7.6.45 5 .5 3.8-.3 6-.15q2.15.1 7.95 2.5 5.75 2.35 7.35 3.75 1.45 1.25 1.65 2.35.1.75-.4 1.8-.65 1.25-6.3 1.9l-7.2.45q-6.7 0-17.65 4.1-8.1 3-11.95 5.3-2.85 1.7-7.65 3.55-5.7 2.2-8 1.95l-2.9-.9-3.9-1.35q-5.45-1.65-13.45-1.65l-.35-1.2-.25-.25q-.8-.95-.2-16.8l-.15-1.25q11.95-8.75 17.05-9.75"/><path fill="#ffee7d" d="M228.35 141.65q1.15-.5 5.8.9l6.8 2.05 5.55.55 7 .35 12.7.95 3.2-.3 5.5.3q5.65 1.6 8.45 2.7 6.25 2.35 6.9 4.35.35 1.15-4 1.7l-7.2.35q-6.9 0-17.95 4.05-8.3 3.05-12.45 5.55-2.3 1.4-7.95 3-5.7 1.7-7.8 1.5-1.15-.1-5.45-1.4-9.2-2.75-13.25-2.9l-.1-3.35.25-11.6 6.55-4.25q6.25-4 7.45-4.5"/><path fill="#dccd6c" d="m214.35 150.4 3.55-2.3q7.95 1.05 17.9 3.6l11.35 3q-4.15 2.5-6 4.05-3.1 2.7-1.35 4.05 3 1.9 7.9 2.85-2.95 1.4-7.85 2.75-5.05 1.45-6.95 1.25-1.15-.1-5.45-1.4-9.2-2.75-13.25-2.9l-.1-3.35z"/><path fill="#0d131a" d="m240.3 157.55-7.1-.8-10-1.5-4.7-1.3-1.8-.55-.15-.8 10.7 1.7 12.3 1.95q2.15 0 12.9-3.7 10.45-3.65 12.3-4.8.6-.35.5-.85-.1-.45-.4-.55l.2-.8 2.45.7q1.55.95-2.35 2.2L253 153.3q-10.7 4.25-12.7 4.25m-25 6.05q2.85-.6 12.5.85 10.5 1.6 12.85 3.8l-.3.7q-3.25-1.4-13.1-3.2-9.8-1.8-11.75-1.35zM99.2 180.8q.25-.2 1.6.85l2.35 1.95q2.45 1.75 4.7 6.25 2.35 4.75 1.55 7.15l-.75 2.25q-.5 1-2.15 2.35l-5.55 4.25q-3.75 2.95-5.1 5.1l-5.1 8.15q-2.85 3.4-7.3 2.95-2.5-.25-8.6 1.7-5.25 1.6-10.9 4.05-4.6 2.05-11.05 4l-3.8 1.15-3-.1q-.55-1 2.15-3.9l6.9-7 2.15-2.2q2.45-2.6 5-7.9 1.85-3.6 3-5.3 2-2.85 4.65-4.65 2.9-2 10.05-8.5 5.7-5.15 7.2-5.35 9.45-1.2 12-5.9z"/><path fill="#ffee7d" d="M101.2 184.55q.25-.25 1 .35 2.1 1.5 4.2 5.6 2.1 4.15 1.5 6-.35 1-1.75 2.35l-3.2 2.65-4.35 3.75q-2.55 2.4-4.1 4.8-3.7 5.85-5.7 7.65-2.8 2.5-6.7 2.1-2.65-.25-8.05 1.65-3.4 1.2-10.4 4.3-8.2 3.6-11.2 4.5l-2.5.4q.25-1.3 6.35-7.55l2.15-2.25q1.65-1.7 3.05-4.05l2.25-4.2q1.8-3.55 2.85-5.1 1.8-2.65 4.25-4.3l10.8-8.45q6.45-5.15 8.25-5.1 4.35.15 11.3-5.1"/><path fill="#dccd6c" d="M107.9 196.5q-.35 1-1.75 2.35l-3.2 2.65-4.35 3.75q-2.55 2.4-4.1 4.8l-.05.1q-1.25-1.95-4.6-3.7-3.5-1.85-4.5-.6-1.85 2.15-14 10.35l-10.7 1.95q1.45-2.1 3.1-5.55 1.8-3.55 2.85-5.1 1.8-2.65 4.25-4.3l10.8-8.45q6.45-5.15 8.25-5.1 4.35.15 11.3-5.1.25-.25 1 .35 2.1 1.5 4.2 5.6 2.1 4.15 1.5 6"/><path fill="#0d131a" d="m123.25 203.75 34.5 9.65.95 3.1q.6 2.6-.35 3.5l-5.3 4.1-4.45 3.3 2.05 6.25q1.95 6.1 1.6 7.95-.6 2.95-15.4 28.65-.3.55-2.35 11.05l-1.3 7.85-1.05 5.6q-.7 2.15-2 3.6-1.25 1.4-2.45 1.4-.75 0-3.3-3.5-2.45-3.35-3.1-5-.55-1.2-.35-13.6l.25-13.2-1.65-17.1Q118 233.1 118.2 231q.3-2.75 1.95-6.1 1.55-3.1 2.7-3.95l-2.45-5.4q-1.45-3.5-1.45-5.4 0-.9 2.15-3.75z"/><path fill="#ffee7d" d="M156.45 217q-.15 1.9-.9 2.7l-4.65 3.4q-3.8 2.85-3.9 4.25-.05.9 1.45 7.2 1.4 5.95 1 7.55l-.3 1.1.3-1q0 1.8-5.9 12.85l-8.05 14.4q-.35.6-2.3 9.8-1.9 9.05-2.15 11.4-.3 2.35-1.65 4-1.45 1.75-2.55.65l-2.45-2.7q-1.3-1.95-1.55-4.4-.2-2.25.2-11.55l.45-9.85q0-3.1-1.55-18.7l-1.55-15.25q0-4.95 2.35-7.5l2.45-1.65.1-2.2-3.75-9.65q0-.7 1.15-3.35.9-2.05 1.35-2.85l32.25 8.55q.25 1.3.15 2.8"/><path fill="#dccd6c" d="M156.45 217q-.15 1.9-.9 2.7l-4.65 3.4q-3.8 2.85-3.9 4.25-.05.65.35 2.5-2.4-.8-4.65-.75-2.75.05-3.45 1.45-1.7 4.95-2.75 13.15-.85 6.95-.85 12.65-4.05 2.3-6.75 15.75-2 10.1-2.65 22.6-3-2.9-3.4-6.5-.2-2.25.2-11.55l.45-9.85q0-3.1-1.55-18.7l-1.55-15.25q0-4.95 2.35-7.5l2.45-1.65.1-2.2-3.75-9.65q0-.7 1.15-3.35.9-2.05 1.35-2.85l32.25 8.55q.25 1.3.15 2.8"/><path fill="#0d131a" d="M145.55 212.95h.8q0 1.6-7.5 12.25-.9 1.3-.7 2.3.1.55 1.15 2.4 1.2 2.1-.75.35-1.2-1.3-1.95-2.6-.55-1-.35-1.85.25-.95 1.5-2.45 7.8-9.7 7.8-10.4m-9.1 32.7q.1-3.05.9-3.5.8-.4.45 3.3L136.65 257q-.5 8.1.8 10.5l-1.75 3.05q-1.35-2.5-.5-12.5zm-12.5-24.35q-.8-1.7-1.4-4.15-.6-2.55 1.25 1 2.7 5.2 3.3 7.3 1.1 3.85.2 8.8l-.8-.05q.2-3.15-.9-7.65-.85-3.65-1.65-5.25"/><path fill="#0d131a" d="M200.15 110.25q19 19 19 44.95 0 26-18.55 44.7-18.6 18.75-44.55 18.75-12.75 0-24.8-5.15-11.65-4.95-20.8-13.85-9.2-9-14.35-20.4-5.3-11.9-5.3-24.6 0-25.9 19.2-44.7 19.1-18.75 45.15-18.75 25.95 0 45 19.05"/><path fill="#ef821e" d="M216.75 155.45q0 25.3-17.95 43.25t-43.25 17.95-43.25-17.95-17.95-43.25 17.95-43.25 43.25-17.95 43.25 17.95 17.95 43.25"/><path fill="#ce7117" d="M94.35 155.45q0-16.65 8.45-30.95 8.15-13.85 22.1-21.95-7.85 20.55-6.05 40.85 1.75 19.7 12.05 34.25 10.6 15 27.65 20.65 18.35 6.1 40.65 0-8.5 8.7-19.6 13.45-11.5 4.9-24.05 4.9-25.3 0-43.25-17.95t-17.95-43.25"/><path fill="#0d131a" d="m98.05 159.75 2.15 2.9q1.85 3.2.6 4.55-2 2.2-3.55 2.5-1.55.95-8.2 1.05-1.45-.2-2.55-4-.65-2.25-.95-4.65z"/><path fill="#dccd6c" d="m87.3 162.7 10.35-1.3.05.1 1.15 2.85q.65 1.75.35 2.25-.5.85-2.8 1.7l-2.5.2-2.8-.15q-1.1.15-1.85-.35-.75-.55-.85-1.45l-.5-2.05z"/><path fill="#0d131a" d="M60.6 137.9q4.95-1 14.3 2.65 9.4 3.7 9.7 3.65 4.8-.9 8.35-2.4l3.15 3.6q3.5 4.7 5.05 10.2 1.7 6.15-.25 8.1-1.75 1.7-6.85.15-1.85-.55-8.75 2.45l-10.4 4.85q-2.35 1.1-3.95 1.05-1.3-.05-4.05-1.05-11.4-4.1-35-7.05l-24.45-2.25q-3.05-.1-5.8-3.65-2.85-3.6-1.05-5.65 1.45-1.65 7.75-3.35l11.45-3q4.5-1.4 20-4.35z"/><path fill="#ffee7d" d="m34.55 146.65 19 .45q27.2.1 29.55-.35l9.45-2.05q1.65 1.25 3.15 3.3 2.6 3.45 3.9 8 .4 1.45.4 3.9.05 2.35-.25 2.65-1.05 1.05-5.25-.25-2.35-.65-6.7.75-2.55.85-8.3 3.45-1.55.75-4.2 2.65-2.25 1.35-4.15.7-11.6-3.9-33.55-7.4-19.25-3-28.2-3.2-2.25-.05-4.05-1.7-1.05-1-2.4-3.15-.8-1.35 5.65-3.45l12.05-3.35q4.4-1.15 13.9-.95"/><path fill="#dccd6c" d="m5.95 151.9 34.55 5.7q22.2 3.85 27.15 3.2 8.75-1.1 13.95-2.95 8.3-3 14.5-9.3 2.3 3.2 3.5 7.45.4 1.45.4 3.9.05 2.35-.25 2.65-1.05 1.05-5.25-.25-2.35-.65-6.7.75-2.55.85-8.3 3.45-1.55.75-4.2 2.65-2.25 1.35-4.15.7-11.6-3.9-33.55-7.4-19.25-3-28.2-3.2-2.25-.05-4.05-1.7-1.05-1-2.4-3.15-.6-1 3-2.5"/><path fill="#0d131a" d="m64.15 138.8 8.15 2.45q7.9 2.4 10.05 3.3 2.25.95 2.75 1.45.45.45.35 1.6-.1 1.95-4.65 3.8-5.3 1.8-7 2.65l-5.15 2.6q-2.9 1.35-4.35 1.5-1.1.1-5.25-1.45-5.95-2.15-10.8-3.4l-8.5-2.05-5.05-.5-5.15-.25-5.4-.45q-2.15-.3-2.75-1.2-.6-.8.3-1.9l1-.9z"/><path fill="#ffee7d" d="M60.25 139.9q3.1-.35 10.1 1.75 4.7 1.4 8.85 3.1 3.3 1.4 3.9 1.85 1.65 1.25-.55 2.6-1.8 1.1-5.8 2.25-4.05 1.2-5.2 1.85l-3.9 2q-2.2.85-4.45.6l-6.15-1.45L48.5 152l-8.9-2.05-7.25-.9H26.5q-3.05-.05-3.55-1.1-.5-1.1 1.15-1.5l4.15-.6 15.4-2.95z"/><path fill="#dccd6c" d="m28.25 145.85 5.4-1q5.35 3.05 19.75 5.4 12.95 2.1 15.25 4.6-2.75 1.35-5.45 1.05l-6.15-1.45L48.5 152l-8.9-2.05-7.25-.9H26.5q-3.05-.05-3.55-1.1-.5-1.1 1.15-1.5z"/><path fill="#0d131a" d="M183.35 206.6q2.8.4 3.5.85.75.45.3 3.15-.45 2.45-1.05 3.4-.65.95-2.85 2.05-2.3 1.15-3.25.85-1.4-.5-4.25-2.7-.3-.05-.5-.25-.35-.35.45-.95l2.15-2.4q1.3-1.7 1.55-2.65.2-.8.8-1.3l.5-.35z"/><path fill="#dccd6c" d="m181.6 208 2.1-.2q1.9.2 2.15.6.3.45-1.1 4.7-.35 1-2.35 1.55l-2.55.3q-.45-.15-2.4-1.5 2.75-2.95 4.15-5.45"/><path fill="#0d131a" d="m207.85 120.35.85.05q8.1.2 9.65 1.35.5.5.5 1.05.15 1.45-2.3 5.4l-2.95 4.25q-1 1.05-2 .35-1.15-1.1-1.85-1.5l-1.45-1.05q-.45-.5-.45-1.35z"/><path fill="#ffee7d" d="M209.5 122.05q6.5.3 7.75.95 0 .85-1.7 3.55-1.7 2.65-2.55 3.25l-2.05-.1q-1.25-.65-1.45-1.6-.2-.75-.1-3z"/><path fill="#0d131a" d="m252.4 86.4 3.7.5q2.1.35 2.25 1.35.1.95-1.2 2.3L253.9 93q-3.85 2.1-8.35 6.2-5.45 4.9-10.35 11.4l-2.15 2.65-2.4 1.95-7.6 4.75-5.85 3.55q-2.3 1-4.55 1.6-4.6 1.3-4.6-.4t-3.8-6.65l-3.85-4.65 1.45-6.75 7.15-.9q2.85-.5 2.9-1.3.25-1.7 2.6-5.05 1.95-2.7 3.9-4.65 2.05-2 14.75-5.6 13.85-4 19.25-2.75"/><path fill="#ffee7d" d="M252.05 92.05q-4.65 2.5-18.95 17.55l-1.2 1.4-1.65 1.55q-1.4 1.2-13.6 9.35l-3.4 1.55q-3.25 1.15-3.85-.45-.6-1.55-3.75-5.65l-3.4-4.3 1.5-4.6 6.75-1q4.3-1.1 4.55-3.05.15-1.25 1.85-4.35 1.6-2.9 2.75-4.2 1.35-1.6 13.65-5 13.2-3.65 18-2.55 3.3.75 3.45 1.45.05.75-2.7 2.3"/><path fill="#dccd6c" d="M219.65 95.85q.4-.5 3.45-1.7l7.15-2.45q-7.35 5.75-13.4 16.3-1.55 2.6-5.6 5.15-4.75 3.05-5.7 4.05l-3.3-4.15 1.5-4.6 6.75-1q4.3-1.1 4.55-3.05.15-1.25 1.85-4.35 1.6-2.9 2.75-4.2"/><path fill="#0d131a" d="M205.4 105.1q1.3 3.05 1 4.6l-.05.2-.75 5.2q-.5 2.65-1.55 3.1-1.7.65-6.3-2.8l-.2-.2-.05-.25q-.75-2.8-2.45-6.45-1.95-4.05-3.05-4.45l4-1.7q4.3-1.55 6.05-1.1 1.85.5 3.35 3.85"/><path fill="#ffee7d" d="m202.55 115.85-1.6-.35-1.95-1.25q-2.05-6.8-4.05-8.9l3.85-1.45 3.4-.1q.9.8 1.8 2.9l.85 2.6-.05.1v.2q-1.15 5.8-2.25 6.25"/><path fill="#dccd6c" d="M200.8 103.45q.7 2.3-.15 4.65l-2.25 4.25q-1.65-5.1-3.45-7l2.85-1.05q1.95-.75 3-.85"/><path fill="#0d131a" d="M162.45 4.05q0-2.8 1.1-3.65l3.35-.25q4.8.9 7.15 3 1.9 1.7 1.6 3.5-.9 4.8-.45 11.7.25 3.35 2.8 11.85 2.45 8.3 4.5 12.9 1.5 3.3.45 9.5l-2.1 9.95-.45 3.05q-.35 4.55 2.1 11.45 2.25 6.3 1.9 7.3-.45 1.25-2.95 4.65-2.6 3.55-3.4 5.4-1 2.45-1.05 4.2 0 1.65.85 3.2.95 1.7.95 2.2-.05.7-1.5 1l-5.05.6-3.5.3-1.7-.35-7.3-8.3q-2.55-2.9-6.25-3.5l-6.75.4-2.5-1.6q4-1.8 6.55-6.5 2.5-4.75 1.7-9.05-.4-2.2-1.5-3.75l-2.05-2.15-2.1-1.6q-1.2-1-1.3-2.25-.15-1.35.9-4.25l2.25-5.8 2.35-5.65q1.4-3.4 1.75-5.45.6-3.35 4.85-19.2l3.25-14.05q1.55-7.4 1.55-8.8"/><path fill="#ffee7d" d="M165 4.2q.7-.6 2.7-.6 1.35 0 3.2.95 1.85.9 2.7 2 .65.8.35 2.75l-.5 3.85q0 3 .15 5.3.25 3.85 2.05 11.25 1.9 8 3.85 12.3 1.1 2.55 1.1 7.15 0 5.15-1.35 13.15l-.45 3.1-.05 1.4q0 5.05 3.05 17.55-4.45 6.55-6 10.2-.75 1.85-.75 4.2 0 1.75.5 4l-7.85 1.05-6.75-7.6q-4.05-4.75-11.15-4.1 2.25-2.1 3.45-5.4 1.15-3.1 1.15-6.6l-.3-3.4q-.5-2.55-1.75-4.35-.8-1.1-2.35-2.45l-1.35-1.35q-.6-.7-.65-1.6v-.25q0-1.75 2.75-8.9 3.05-7.85 3.65-11.4.45-2.5 4.8-19.05 5-18.5 5-20.55 0-1.95.8-2.6"/><path fill="#dccd6c" d="M164.15 47.25q.95 7.75.35 10.75-1.45 7.15-1.75 10.7-.85 9.7 1.75 15.35 1.2 2.8 5.4 1.9 6-1.35 6.9-1.2l4.1.9q-3.9 6.05-5.1 8.9-.75 1.85-.75 4.2 0 1.75.5 4l-7.85 1.05-6.75-7.6q-4.05-4.75-11.15-4.1 2.25-2.1 3.45-5.4 1.15-3.1 1.15-6.6l-.3-3.4q-.5-2.55-1.75-4.35-.8-1.1-2.35-2.45l-1.35-1.35q-.6-.7-.65-1.6v-.25q0-1.75 2.75-8.9 3.05-7.85 3.65-11.4.45-2.5 4.8-19.05 5-18.5 5-20.55 0-1.95.8-2.6.7-.6 2.7-.6 1 0 2.35.55l-2.35 14.1-2.55 13.9q-1.95 7.7-1 15.1"/><path fill="#0d131a" d="M180.9 87.95q-2.25 3.65-3.2 5.9-.9 2.15-.9 6 0 1.95.15 3.45l.15.5-8.9 1.15-.9.05q-.9-1.35-1.65-3.35l-1.15-3.45q-.85-1.8-.45-3.75.4-1.75 2.1-4.7l5.2-7.8q1.9-2.1 6.65-1.1 2.35.55 4.35 1.45l.75 2.25-.1.15z"/><path fill="#dccd6c" d="M175.45 98.75q0 1.95.6 4.35l-7.45 1q-2.65-4.05-3.35-6.2-.35-.65-.35-1.55 0-1.25.8-3.1l1.7-3.35q3.45-6.4 7.15-7.5 3.05-.95 7.6 1.6l.1.4-2.7 4.2q-2.4 3.9-3.35 6.1-.75 1.75-.75 4.05"/><path fill="#0d131a" d="M172.2 40.1q3.3-5.2 5.95-4.65l.85 1.5q-2.35-.45-5.95 4.45-2.85 3.95-5.25 9.2l-1.85 5.4q-1.9 5.8-2.3 7.85-.3 1.7-.5 4.7-.1 1.8-.5 1.85l-.5.25-.65-.05q-2.1-2-5.7-11.15l-3.15-8.75.5-2.2q7.8 18.1 8.7 19.7l1.45-6.55q1.45-6.45 2.2-7.95l1.6-3.45q3.2-7.15 5.1-10.15m-90.05 35q6.65 4.4 10.4 4.8l5.15.05q3.5.3 4.25 2.45l3.1 7.25q3.5 7.9 5.2 10.95 1.65 2.9 5.15 5.7l3.15 2.25.75.45-.5.75q.7.75-1.3 2.6l-3.7 3.3q-1.4 1.4-7 3.7l-5.3 2-3.9-8.2q-1.5-2.9-10.75-5.05l-3.75-1.05q-.95-.5-1.75-2.4-1.1-2.8-3.65-7.7-3.2-6.05-5.85-9.7l-3.95-5.6-4.75-6.55q-2.45-3.35-2.75-4.7-.5-2.4.45-5.45 1.05-3.2 2.9-4 1.15-.5 2.8.95l2.5 2.75q2.1 2.55 3.95 3.9z"/><path fill="#ffee7d" d="m104.05 91.8 4.8 9.6q2.5 4.45 8.1 8.05l-4.3 5.05q-1 1-4.25 1.95l-4.95 1.1q-3.05-3.45-4.5-6.2-.85-1.75-3.7-2.9l-4.55-1.4q-3.75-1.15-5.55-2.05-1-.5-4.5-6.65-4.55-8-7.5-12.05l-3.9-5.6q-6.1-8.85-6.6-11.1l-.15-1.1q0-1.55.85-2.95.75-1.3 1.85-1.75.45-.2 1 .25l1.6 1.7q2.4 2.75 4.3 4.1l11.5 8.2q6.6 4.25 10.25 4.1l4.7-.1q.9.15 1.8 1.95z"/><path fill="#dccd6c" d="M64.55 64.2q6.05 7.85 16.15 16l15.4 11.5q-1.6 4.15 3.5 11.45l9.65 13.05-5.8 1.35q-3.05-3.45-4.5-6.2-.85-1.75-3.7-2.9l-4.55-1.4q-3.75-1.15-5.55-2.05-1-.5-4.5-6.65-4.55-8-7.5-12.05l-3.9-5.6q-6.1-8.85-6.6-11.1l-.15-1.1q0-1.3.6-2.5.55-1.15 1.45-1.8"/><path fill="#0d131a" d="M93.5 91.45q2 .85 5.6-.8 1.25-.6 2.4-1.95l1.1-1.75.6 1.35q-.55 1.55-3.45 3.6-3.65 2.5-6.6 1.2-14.3-6.15-24.1-17.1-3.1-3.45-5.3-6.9l-1.65-2.85.35-1.95 1.65 2.85q2.25 3.55 5.35 7 9.75 11 24.05 17.3m30.45 7.8q2.05.3 3.2 4.15 1 3.3.65 5.1-.3 1.4-1.9 2.75-1.55 1.25-2.55 1.25-1.15 0-5.6-2.55l-.1-.05-5.65-5.3-.85-1.3q.65-2.15 3.1-3.25 1.75-.8 3.55-.8l1.9-.15z"/><path fill="#ffee7d" d="M123.35 110.9q-.65.05-2.05-.75l-2.7-1.55-4.7-4.45q.65-1.6 2.05-2.55 1.05-.7 1.85-.7l2.35-.2 3.3.2q.85.35 1.85 3.45.9 2.75.9 3.7v.15q-.15.8-1.1 1.75-1 .9-1.75.95"/><path fill="#0d131a" d="M60.75 167.3q4.7-1.85 11.2-1.55 5.1.2 7.5 1.25l-.35.75-8.9-.5-9.1.8zm39.5 26.7 4.55-2.8.35.7q-.45.25-1.25 1.05l-1.85 1.6q-2.8 1.85-10.4 4.9-7.1 2.85-7.85 3.5-.7.6-5.4 6.75-4.8 6.3-6.8 8.15-2.5 2.25-4 4.15-1.45 1.9-1.45 2.75v.05l-1.2 1q-1.15.8-1.2.55-.15-1.3 3.1-5.35 2.7-3.4 4.9-5.45 2.05-1.85 5.85-7.25 3.95-5.7 5.1-6.85 1.45-1.45 8-3.6 7.25-2.35 9.55-3.85M253.4 88.05l.85.75q-3.05-.5-13.8 5.55-8.45 4.75-13.5 8.5l-7.15 5q-5.5 3.6-6.6 3.8l-1.6.05q-.3-.3-.1-1.5l.95-4.3q.35-1.75 2.7-5.35 2.35-3.5 1.35.35-.8 3.1-2.7 6.8-1.3 2.45-.85 2.45.7-.05 6.9-4.2l7.65-5.25 10.85-6.75q11.4-6.5 15.05-5.9m-78.2 39.35 4.15-.1q3.65.1 4.05.85l2.35 5.4q2.2 5.6 1.65 6.9l-2.1 4.1-2.25 3.35q-.75.6-4.1 1.25l-4.05-.1q-.4-.65-1.15-3.9l-1-4.1q-.25-.55 0-1.6.1-.6.75-2.65l.85-4.6.25-3.7q-.05-.95.05-1z"/><path fill="#ffee7d" d="M177.4 128.75h2.45l2.15.2 2.4 5.7q1.5 3.9 1.5 5v.2l-1.95 3.7-2.05 3.15-3.1.45-2.85-.2-1.7-6.5v-.1q0-.65.8-3.05 1.45-4.8 1.45-6.9 0-1.75.9-1.65"/><path fill="#dccd6c" d="M176.55 129.65q1.95 6.8 2.15 9.3.5 5.25-2.35 8.15l-.4-.15-1.7-6.5v-.1q0-.65.8-3.05 1.45-4.8 1.45-6.9z"/><path fill="#0d131a" d="M173.05 165.2q5-.95 6.85-.15 1.3.6 1.55 2.55l1.6 6.2q1.3 4.95.7 6.4-1.2 2.95-7.3 8.75l-1.2.8-1.25.05-6.15-.8-1-.3q-.45-.25-.15-1 .85-1.75 2.75-9 2.3-8.65 2.05-12.05-.1-1.3.4-1.45z"/><path fill="#ffee7d" d="M178.6 166.6q.9 0 1.3 1.5 2.55 7.3 2.55 10.2l-.2 1.3q-1.1 2.75-7.45 8.3h-3.1q-2.7-.05-2.95-.6-.1-.25 2.15-7.1 2.45-7.55 2.45-11.2v-1.35q.15-.9.75-.95z"/><path fill="#dccd6c" d="M173.8 166.8q1.55 11.2.75 14.45-.6 2.35-5.15 6.45l-.65-.4q-.1-.25 2.15-7.1 2.45-7.55 2.45-11.2v-1.15q.05-.85.45-1.05"/><path fill="#0d131a" d="m161.8 211.1-1.3.2-2.9-.35q-1.4-.5-2.1-1.1l-.7-.8q-.15-.4.35-.95l8.6-9.1q1-.9 3.6-.05 2.65.8 2.65 2.2l.25 3 .05 3.4q-.2 1.65-2.8 2.5z"/><path fill="#dccd6c" d="m157 208.5 7.1-7.85q3.65.25 4.35.95.4 2 .4 3.75l-.15 2q-.15 1.4-7.05 2.15l-1.45.2q-.9.2-3.2-1.2"/><path fill="#0d131a" d="m146.15 110.15 4.35-.25q2.8.8 3.8 3.75.65 1.95.2 1.85-.5-.15-.95-1.5-.4-1.3-2.55-2.4-2.4-1.2-4.65-.7l-1.65.15q-.2-.2 1.45-.9m-3.7 5.1q-.55-1-.2-1.4.3-.35.85.95.65 1.5 3.45 2.6 3.1 1.25 6.15.6l1.35.05q.15.3-1.05.7-4.55 1.55-7.7-.4-1.8-1.1-2.85-3.1m45.7 81.75 4.65.1q.7.5.25.6l-.9-.1-1.95-.1q-1.4.4-2.7 1.5-1.25 1-1.65 2.05-.4 1.1-.8 1.1-.35 0 0-1.2.75-2.65 3.1-3.95m2.3 5.15q.8-.55 1.1-1.5.25-.75.65-.9.4-.2.15 1-.75 3.4-5.7 3.1-1.1-.05-.95-.45.2-.35 1.15-.35 2.25 0 3.6-.9m-89.65-23.5q0 .95-.35 1.1t-.45-1q-.15-1.05.2-1.75.25-.5.65-.65.75-.3 1.95.6 1.25.9 1.6 2.15.5 1.7-.5.1-1.35-2.2-2.7-1.85-.4.2-.4 1.3m4.7 4.95q0-.9.35-1.25.3-.4.45 1.2.15 1.65-.1 2.3-.2.5-.85.7-.85.3-1.85-.45-.85-.7-1.6-2-.7-1.2-.5-1.45t1.15 1q1.6 2.15 2.3 1.9.55-.2.65-1.95m73.05-43.5q6.45 1.4 8.15-.75l.6.55q-2.15 2.65-4.75 2.35l-4.3-1.4q-.65-.2-.65-.6t.95-.15m-3.45 41.55 4.2.35q2.1 0 2.85-1l.25 1q-.95 1.35-3.5 1.25-1.95-.05-3.95-.8l-1.8-.8q-.15-.2 1.95 0m-12.75 25.15 3.3.85q1.7.15 3.85-.65l-.75 1.15q-4.1 1.55-6.75-.65l-1.15-1.05q-.05-.25 1.5.35m-22.7-73.8 2.85 1.45q-2.05 4.1-5.8 24.1-4.2 22.4-4.25 35.45l-3.2-2.3q.05-13.15 4.25-34.6 3.75-19.3 6.15-24.1"/><path fill="#0d131a" d="m121.7 137.85.75 1.9q4.7 11.8 9.4 20.7 8.9 16.75 19.65 27.85l-2.2 2.05q-11-11.35-20-28.35-4.7-8.9-9.5-21l-.25-1.2z"/><path fill="#0d131a" d="m156.6 145.55 1.65 2.55Q153.8 151 136 163.95q-17.65 12.9-21.5 16.05l-1.5-2.7q3.9-3.2 21.45-15.95 17.4-12.65 22.15-15.8m46.2-4.1 3.2-.25q1.15 9.95-1.3 26.15-2.9 19.35-9.1 26.9l-3.95.15q5.65-6.95 9.1-26.45 3.1-17.3 2.05-26.5"/><path fill="#0d131a" d="M182.15 186.45q8.25-3.9 20.1-19 9.85-12.55 12.65-19.1l1.3 1.45q-3.3 7.65-12.4 19.85-11.3 15.1-19.9 19.2z"/><path fill="#0d131a" d="M198.95 168.35q-5.65-12.5-10-19.2l2.05-1.8q4.35 6.65 10 19.35 6.2 13.9 6.65 19.6l-2 1.45q-.4-5.45-6.7-19.4m-65.9-26.5q3.15-.4 6.3.55 3.2.9 5.9 3.05 3.55 2.75 5.85 7t2.95 9.25q1.15 9.15-3.35 16.35-4.5 7.15-12 8.1-7.55 1-13.7-4.85-6.15-5.8-7.3-15-.65-5 .5-9.7 1.2-4.7 3.95-8.25 2.1-2.75 4.95-4.4 2.8-1.7 5.95-2.1"/><path fill="#e50012" d="M134 160q2-.25 3.65 1.05 2.25 1.8 2.65 4.9t-1.35 5.4q-1.35 1.65-3.3 1.95-1.95.25-3.65-1.1-2.25-1.75-2.65-4.85-.4-3.2 1.35-5.4 1.35-1.7 3.3-1.95"/><path fill="#0d131a" d="M200.45 187q-4.35 1.55-8.05-.4-4.9-2.6-6.1-9.85-1.25-7.3 1.95-15 1.95-4.7 5.05-8.1 3.15-3.4 6.7-4.65 4.3-1.6 8.05.4 4.9 2.6 6.1 9.85 1.25 7.3-1.95 14.95-1.95 4.7-5.05 8.1-3.15 3.4-6.7 4.7"/><path fill="#e50012" d="m201.4 176.05-2.45-.1q-1.5-.8-1.9-2.95-.35-2.2.6-4.5 1.25-2.95 3.6-3.85l2.45.15q1.5.75 1.9 2.95.35 2.2-.6 4.5-1.3 3-3.6 3.8"/><path fill="#0d131a" d="m87.9 141.95 4.35-3.5q3.2-2.4 3.75-1.4l5.7 9.85q2.2 1.8 3.5 3.85.2.35-.2 2-.4 1.7-.95 2.3l-1.95 1.55q-1.35.7-2.3.25l-7.4-3.95-1.05-.8q-1.8-1.3-3.2-5.2-1.45-4-.25-4.95"/><path fill="#ffee7d" d="m95.45 139.25 2.05 4q1.6 3.5 2.3 4.3l2.45 2.05q1.5 1.2 1.55 2 .1 1.25-1.3 2.55-1.55 1.45-3.05.45-1.1-.7-3.55-1.75-2.25-.95-3.2-1.65-1.25-1-2.3-4.15-1.05-2.9-.85-3.95.2-.95 2.75-2.75t3.15-1.1"/><path fill="#dccd6c" d="m95.35 139.2.1.05 2.05 4q1.6 3.5 2.3 4.3l2.45 2.05q1.5 1.2 1.55 2 .1 1.25-1.3 2.55-1.55 1.45-3.05.45-1-.7-2.95-1.5l-2.85-1.3q2.05-2.5 2.55-6 .45-3.55-.85-6.6"/><path fill="#ffee7d" d="M133.35 144.25q5.55-.7 10.4 3.1 3.2 2.5 5.25 6.3 2.1 3.85 2.65 8.35.4 3.05.1 6.55-19.95-5-31-11.75.5-1.7 1.45-3.7 1-2.15 1.85-3.25 3.8-4.85 9.3-5.6M120.1 166l-.2-2.2q7.45 4.25 15.1 7 6.9 2.45 15.05 4.05-1.8 3.45-4.95 5.9-3.25 2.55-6.7 3-6.55.85-11.9-4.35-5.4-5.2-6.4-13.4"/><path fill="#dccd6c" d="M122.2 153.1q1-2.15 1.85-3.25 2.4-3 5.35-4.4-1.25 8.25.8 16.05-5.5-2.3-9.45-4.7.5-1.7 1.45-3.7m-2.1 12.9-.2-2.2q6.65 3.8 13.75 6.5l3.7 6.3q2.4 3.3 5.95 5.35-2.45 1.5-4.9 1.8-6.55.85-11.9-4.35-5.4-5.2-6.4-13.4"/><path fill="#ffee7d" d="M199.5 168.3q-8.9 2.7-11.5 2.25.8-4.85 2.05-8.05 1.8-4.3 4.6-7.4 2.85-3.1 6.05-4.25 3.5-1.3 6.4.25 4.95 2.65 5.4 11-3.25 3.2-13 6.2m.25 16.8q-3.5 1.3-6.4-.25-4.2-2.15-5.15-8.55 12.05-.8 23.65-7.55l-1.45 4.7q-1.8 4.35-4.65 7.45-2.8 3.05-6 4.2"/><path fill="#dccd6c" d="M190.95 160.6q-.9 4.85-.2 9.75l-2.75.2q.8-4.85 2.05-8.05zm-2.75 15.7 3.85-.45q1.8 5.35 5.35 9.8-2.3.15-4.05-.8-4.2-2.15-5.15-8.55"/><path fill="#0d131a" d="M107.1 193.8q1.9-.75 5.05 1.25.6.35 4 3.05l1.5 1.25.4 1.35q.1 1.05-1.15 2.1l-2.75 1.6q-1.75.75-6.15.8-4.95.05-6.35-1.35-1.45-1.45.85-5.35 2.2-3.8 4.6-4.7"/><path fill="#dccd6c" d="M111.3 196.9q3.6 1.85 4.05 2.75 1 1.95-2.7 3.4l-4.9.35q-3.05-.4-3.95-1.55-.75-1 1.2-3.7l2.4-2.8q.35-.3 3.9 1.55"/><path fill="#0d131a" d="M106.85 115.05q4.5-.15 6.35.8 1.5.75 1.75 2.35.2 1.25-.45 2.75-.6 1.3-1.6 2.3-1.2 1.25-4.05 2.2l-4.75 1.3-3.1.05q-.95-.45-1.55-1.95t-.1-4.65q.5-3.25 1.75-4.05 1.35-.95 5.75-1.1"/><path fill="#dccd6c" d="M106.85 116.65q4.1-.1 5.6.65.8.35.95 1.15v.35q0 1.7-1.65 3.35-1.45 1.45-4.15 1.4-5.55 1.65-5.85.75-.25-.9-.25-3.75 0-2.6.5-3.1 1-.65 4.85-.8"/><path fill="#0d131a" d="M119.1 164.4v-1.2q4.2 2.5 12.45 5.7 10.45 4.05 19.1 5.7l-.25 1.25q-19.5-3.65-31.3-11.45m1.2-7.25.35-1.5q4.1 2.45 13.05 5.9 10.35 4.05 18.75 5.95l-.5 1.45q-8.4-1.85-18.7-5.9-8.65-3.4-12.95-5.9m67.25 12.4q4.6-.15 11.3-2.1 8.7-2.5 14.25-6.65l.5 1.1q-5.65 4.2-14.65 6.85-6.9 2-11.55 2.15zm.25 6.2q5.25-.2 11.4-1.95 7.6-2.25 13.9-6.3l-.55 1.7q-6.4 4.1-13.6 6.1-5.55 1.55-11.05 1.75z"/></svg>