<svg xmlns="http://www.w3.org/2000/svg" width="324" height="270" viewBox="-0.5 -0.35 324.2 270.4"><path fill="#1d2087" d="M271.05 189.8q5.2 5.25 9.15 7.6t11.55 4.75q10.55 3.3 13.2 10.6 1.15 3.15-.1 5.75-1.35 2.75-5 3.95-10.7 3.55-22-.6-9.95-3.75-17.8-12.35-3.25-3.55-3.45-8.6-.15-4.55 2.1-8.45 2.2-3.85 5.5-4.8 3.6-1.05 6.85 2.15"/><path fill="#181878" d="M258.7 192.45q2.2-3.85 5.5-4.8 3.6-1.05 6.85 2.15 5.2 5.25 9.15 7.6t11.55 4.75q1.6.45 3.45 1.35-13.85 6.85-20.2 17.15-8.45-3.9-14.95-11.15-3.25-3.55-3.45-8.6-.15-4.55 2.1-8.45"/><path fill="#57c2e9" d="M167.5 9.55q9.7 1 13.75 9.55 3.8 8.1.05 16.6-1.95 4.35-7.35 9.9-5.95 6.1-13.35 10.65-19.1 11.7-35.1 6.1Q99.65 46.2 97.75 28 97 21.15 99.9 15.25q2.45-5.05 6.35-7.5 8.6-5.4 19.4-1.4 9.9 3.6 16.65 12.8l1.85-1.7q2.35-2.05 5.15-3.7 8.85-5.2 18.2-4.2"/><path fill="#4ba9cb" d="M97.85 28.95q8.6 11 19.9 19.9 11.1 8.7 24 14.75-8.8 1.4-16.25-1.25-13.35-8.3-20.4-17.5Q99 37 97.85 28.95"/><path fill="#1d2087" d="M87.95 96.5q6.3-2.95 9.9-1.15 5.1 2.55.75 14.05-1.75 4.6-4.3 7.95-2.65 3.6-4.85 3.8-5.35.55-8.8-2.8-4.05-4-1.9-11.45 2.05-7.05 9.2-10.4"/><path fill="#181878" d="M93.05 94.95q3.25-.4 4.8.4 5.1 2.55.75 14.05-1.75 4.6-4.3 7.95-2.65 3.6-4.85 3.8-3.35.4-6.45-1.15 6.75-11.15 10.05-25.05"/><path fill="#1d2087" d="M179.45 110.55q9.5 2.2 21.9 4l17.5 2.8q17.7 3.75 34.45 17 8.6 6.85 14.4 17.35 5.65 10.25 7.5 21.9 1.95 11.9-.45 22.85-2.5 11.6-9.5 20.1-7.05 8.6-21.45 14.95-13.9 6.15-31.5 8.9-17.85 2.8-35.25 1.5-18.55-1.4-32.9-7.25Q113.5 222.2 97.6 188q-6.7-14.45-9.45-30.45-2.6-15.1-1.2-28.4 2.85-27.35 19.55-50.5 10.25-14.2 23.9-24.6 8-6.05 13.55-1.8Q148.6 55.9 149 63.6q.8 14.1 5.8 25.25 7.95 17.8 24.65 21.7"/><path fill="#181878" d="M144.15 234.65q-24.95-10.1-40.5-35.35-13.4-21.85-16.45-48.5 15.4 51.35 64.15 77.85 13.15 7.4 29.2 13.45-20.8-1.05-36.4-7.45"/><path fill="#dbc77f" d="M144.15 234.65q-6.4-2.55-13.3-6.9 10.25.25 25.9-3.75 20.6-5.25 25.6-6 17.4-2.75 42.65-3.35l42.25-.8-2 2.7q-7.05 8.6-21.45 14.95-13.9 6.15-31.5 8.9-17.85 2.8-35.25 1.5-18.55-1.4-32.9-7.25"/><path fill="#1d2087" d="M100.3 179.75q1-2.6 3.95-.4 2.8 2.15 5.75 7.35 7.5 13.2 5.05 23.8-2.65 11.8-8.65 19.95-6.3 8.65-15.25 11.65-10.05 3.45-17.4 1.05-8.35-2.75-10.95-12.45-2.4-8.75 7.45-17.5 3.9-3.45 15.55-10.35 7.55-4.55 14.5-23.1"/><path fill="#181878" d="M89.7 234.35q17.55-9 25.85-28.2 0 2.35-.5 4.35-2.65 11.8-8.65 19.95-6.3 8.65-15.25 11.65-8.85 3-15.7 1.5-7.65-1.7-11.15-8.8 4.05 3.85 11 3.65 6.8-.15 14.4-4.1"/><path fill="#0d131a" d="m276.2 195.5.3-1.7q3.1 2.6 6.55 4.25 3.2 1.6 8.9 3.35 7.3 2.3 11.1 6 3.7 3.7 3.7 8.6 0 2.65-2.2 5.2t-5.2 3.55q-15.8 5.25-32.75-8.05l1.1-1.15q6.7 4.4 13.35 6.35 9.2 2.7 17.1.2 2-.65 3.55-2.8 1.75-2.35 1.7-5.1-.1-7.25-11.9-11.35-5.65-1.9-8.75-3.35-3.55-1.65-6.55-4M181.9 17.2q2.3 4 2.4 9.55.1 5.35-1.95 9.95-2.65 6-11.9 13.6-10.5 8.7-21.95 12.45l-.25-1.45Q159 57.75 168.9 49.15q8.45-7.4 11.05-13.35 1.9-4.15 1.7-9-.2-4.8-2.35-8.6-4.15-7.05-11.95-7.85-9.05-.95-16.45 3.1-2.35 1.3-4.8 3.3l-2.9 2.35q1.15 2.8.5 2.8t-2.05-2.3q-5.15-8.45-15.4-12.3-11.15-4.2-19.55 1.1-3.4 2.15-5.75 6.45-2.6 4.85-2.6 10.55v.05q.05 7.25 5.4 15.5Q110.3 51 123.4 60.05l-1.25 1.05q-14.2-9.5-21.2-20.55-5.55-8.8-5.6-16.65 0-6.05 2.8-10.95 2.4-4.15 6.2-6.55Q113.3.75 125 4.7q11.15 3.75 17.35 13.3Q154 6.6 167.1 8q4.5.45 8.55 2.95 4.1 2.55 6.25 6.25M88.05 95.6q2.55-1.1 5.05-1.45l4.25.2-.8 1.4Q93.25 95 88.7 97q-7.2 3.2-9.2 10.1-1.85 6.45 1.2 10.1 2.45 2.95 7.1 3.25l-.35 1.55-4.85-.8q-2.8-.95-4.3-2.7-1.55-1.9-2-3.75-.7-2.8.45-6.8 1.3-4.4 5.3-8.2 3-2.85 6-4.15"/><path fill="#0d131a" d="M227.9 120.85q-7.55-2.6-23.35-4.85l-11.65-1.8-13.65-2.7q-17.35-4.05-25.5-22.65-5-11.35-5.7-25.2-.2-3.65-1.7-6.7-1.7-3.55-4.45-4.8-4.55-2.1-10.9 2.7-13.9 10.5-24.25 25.15-16.05 22.6-18.85 49.25-1.3 12.45 1.05 26.85 2.5 15.4 8.65 29.45l-.85 3.75q-7.3-15.15-10.4-30.35-3.1-14.8-1.75-27.65 2.85-27.05 19.95-51 11.15-15.6 25.35-26.45 7.65-5.85 12.85-3.45 3.6 1.7 5.3 5.4 1.55 3.45 1.9 9.8.75 12.55 5.8 23.35 7.95 17 23.95 20.65 10.6 2.4 25.1 4.45 16.5 2.35 24.6 5 13 4.3 25 14 9.2 7.4 15.2 19.05 5.95 11.65 7.35 24.7 1.25 11.6-1.45 21.95-2.75 10.4-9.15 18.2-7.05 8.55-21.9 15.4-15.1 7-33.15 9.85-18.55 2.9-36.4 1.3-17.65-1.55-31.8-7.3-8.1-3.3-15.65-9-6.3-4.8-12.95-11.85l.5-2.45q12.75 14.1 29.5 20.9 13.75 5.55 31.9 7 17.2 1.35 34.9-1.3 17.65-2.65 31.5-8.6 14.55-6.3 21.7-14.95 6.15-7.5 8.8-17.5 2.6-9.95 1.4-21.2-1.35-12.7-7.15-23.8-5.85-11.2-14.85-18.3-12.8-10.15-24.8-14.3"/><path fill="#0d131a" d="M92.95 192.65q4.25-6.35 5.35-11.35.25-1.3.85-.3t.3 2.3q-1 4.25-4.45 9.95-4.6 7.6-10.65 11.7l-7.6 4.95q-4.7 3.15-7.45 5.7-7.85 7.2-5.75 14.9 2 7.65 7.9 10.85 3.7 1.95 8.7 1.95t10.75-1.9q8.2-2.8 15.95-14.1 7.05-10.2 7.45-16.85l1.55.1q-.45 7.5-6.95 17.65-7.65 11.9-18 16.3-7.05 3-12.75 2.6-4.3-.35-9-2.85-3.2-1.65-5.35-5.05-2.15-3.3-2.95-7.6-1.6-9 6-16.75 3.7-3.8 15.9-11.7 5.45-3.5 10.2-10.5m37.15 34.2q2.45.35 9 .1l8.35-.85.35.9q-3.2 1.4-8.4 1.45l-7.2-.5z"/><path fill="#57c2e9" d="M289.2 238.95q1.15 3.55-.8 5.8-1.85 2.15-5.6 2-3.95-.15-8.05-3-5.6-3.9-10.6-10.85-3.3-4.6-5.9-9.85-1.4-2.85 3.25-5.3 2.3-1.25 4.9-1.9 1.7 3.4 6.75 7.35l9.75 7.5q5 4.25 6.3 8.25"/><path fill="#4ba9cb" d="M266.4 215.85q1.3 2.6 4.1 5.15-4.5 5.4-7.25 10.55-2.75-4-5-8.5-1.4-2.85 3.25-5.3 2.3-1.25 4.9-1.9"/><path fill="#ffe792" d="m251.6 2.8 5.75 2.4q6.9 3.25 13.45 7.75 20.95 14.3 31 35.5 21.9 46.35 10.6 92.4-5 20.15-15.95 37.55-10.5 16.6-24.95 28.4-1.25 1-3.65-2-.65-.8-.55-1.75.1-1 .9-1.65 13.95-11.35 24-27.05 10.6-16.55 15.35-35.65 10.9-43.55-10.15-88.2-9.5-20.05-29.2-33.55-6.25-4.2-12.75-7.3l-5.4-2.25q-5.7-1.9-12.5-1.5-8.85.5-13.05 5.2-3.85 4.3-2.85 8.6.45 1.85 1.7 3.35 1.25 1.55 2.9 2.25 2.85 1.2 6.3-1.05 3.15-2.05 5.15-5.8.5-.85 1.45-1.15l1.85.15q.85.5 1.15 1.45t-.2 1.85q-2.8 5.25-7.55 7.95-5.2 3.05-10 1.05-2.8-1.15-4.75-3.55-2-2.4-2.7-5.4-.75-3.25.25-6.6 1.05-3.35 3.7-6.3 5.2-5.8 15.3-6.75 8.2-.75 15.4 1.65"/><path fill="#dbc77f" d="M281.1 189q0 4.35 6.25 1.95-7.35 8.95-15.85 15.85-1.25 1-3.65-2-.65-.8-.55-1.75.1-1 .9-1.65 6.75-5.5 12.9-12.4"/><path fill="#fff" d="M145.3 183.4q0 6.55-3.55 11.35-3.45 4.6-7.85 4.6-4.3 0-7.25-4.35-2.95-4.4-2.95-11t3.5-11.7q3.45-5.05 7.75-5.05t7.3 4.75q3.05 4.75 3.05 11.4m118.45-10.35q-.2-6 1.6-10.4t4.55-4.55q2.8-.15 5.15 4.3 2.4 4.45 2.6 10.45t-1.55 10.05q-1.75 4-4.55 4.15t-5.15-3.9q-2.45-4.2-2.65-10.1"/><path fill="#57c2e9" d="M254.6 195.5q10.15-3.75 15.05-3.6 5.8.15 5.7 6.25-.1 4.8-3.4 10.7-6.1 11.15-23.2 18.6-10.5 4.6-30.85 7.2-22.45 2.85-41.45.95-17.6-1.75-28.4-6.85-9.6-4.6-12.05-10.8-2.15-5.4 1.15-10.05 2.95-4.15 8.15-5.3 3.8-.85 15.95.4l19.6 2.15q11.2.95 25 .5 18.15-.65 30.1-3.75 4.4-1.15 18.65-6.4"/><path fill="#4ba9cb" d="M148.05 228.75q-9.6-4.6-12.05-10.8-.4-1.05 1.15-.8 2.3.3 8.05 4.25 8.2 5.65 24.4 8.55 15.95 2.85 34.45 2.1 19.6-.8 36.25-5.5 18.45-5.2 29.65-14.2-6.8 8.85-21.2 15.1-10.5 4.6-30.85 7.2-22.45 2.85-41.45.95-17.6-1.75-28.4-6.85"/><path fill="#57c2e9" d="M148.6 238.3q6.6-6.4 6.9-8.75l12.8 3.5q-2.05.45-6.9 8l-9.15 15q-4.85 7.75-10.5 10.55-6 2.9-10.4-1-4.1-3.6-1.3-9.3 2.2-4.55 7.55-8.6 5.5-4.1 11-9.4"/><path fill="#4ba9cb" d="M160.65 242.3q-4.7-4.45-9.1-7.05 3.75-3.9 3.95-5.7l12.8 3.5q-2.2.5-7.65 9.25"/><path fill="#57c2e9" d="M181.15 39.15q4.8 3.4 7.5 14.65 2.85 11.8 1.7 25.75-.95 11.65-4 22.75-3 11.1-5.65 12.4-2.6 1.35-7-.5t-7.05-5.2q-6.75-8.4-9.45-25.15t.65-29.35q3.2-12.15 11.1-16 6.75-3.25 12.2.65"/><path fill="#4ba9cb" d="M164.2 42.1q3.65-3.9 8.3-4.75 10.55 5 11.55 34.45.4 11.4-.9 23.25-1.2 11.05-3.2 17.1-1.05 3.2-5.95 1.7-4.6-1.4-7.35-4.85-6.75-8.4-9.45-25.15t.65-29.35q2.05-7.85 6.35-12.4"/><path fill="#ffe792" d="M190 161.6q.65.15 7.15-7.5 6.6-7.7 7.15-7.7l7.85 4.9q7.25 4.7 8.3 4.2 1.8-.9 14.6-12.45l-3.95 13.75q-4.6 14-7.65 15.15-2.5-1.8-8.25-5.15l-6.05-3.7q-.9-.75-7.95 6.5l-7.55 7.8q-.5.35-11.8-9.55l-15.3-13.25q2.75-.2 11.95 3z"/><path fill="#ffe792" d="M233.45 148.9q-2.55.15-4.95-.05l6.55-5.8zM2.05 44.7q3.1-8.3 10.8-10.5 5.75-1.7 11.55.25 18.5 6.2 26.2 35.5L57 96.8q5.75 24.9 8.75 36.05 5.25 19.3 9.7 28Q84.7 178.9 93.7 188.4q13.15 13.8 33 19.6.95.25 1.6 1.7.65 1.4.35 2.35-.25.95-2.05 1.75-1.8.75-2.75.45-20.8-6.05-34.25-21.45-7.9-9.1-18.45-29.7-4.65-9.1-10-28.7Q58.1 123 52.3 97.85L45.9 71.2q-7-26.9-23.05-32.15-3.25-1.05-6.7-.6-6.95.9-9.6 7.95-1.75 4.85.15 8.65 1.25 2.55 3.85 4.7 2.7 2.25 6 3.25 1.05.35 1.8 1.25.9 1 .6 1.9-.25.9-1.65 1.15l-2.3-.15q-4.3-1.3-7.65-3.95t-5-6.05Q-.5 51.4 2.05 44.7"/><path fill="#dbc77f" d="M126.7 208q.95.25 1.6 1.7.65 1.4.35 2.35-.25.95-2.05 1.75-1.8.75-2.75.45-7.1-2.05-13.55-5.3l9.35 1.9q5.55.6 6.8-2.95z"/><path fill="#0d131a" d="M290.15 239.4q1.2 4.05-.7 6.5-1.9 2.55-6 2.6-4.5.05-9.1-3.15-4.25-2.95-8.15-8.15-1.9-2.65-5.45-8.5l-1.6-2.9q-.95-1.85-1.45-2.25-.65-.45-.15-.85l1.3-.15q.65.2 1.15 1.25l1.15 2.25q3.4 5.55 5.75 8.7 4.2 5.55 8.3 8.35 3.95 2.7 7.75 2.85 3.5.1 5.05-1.9 1.5-1.95.4-5-1.3-3.7-6-7.75l-6.3-4.9q-9.8-7.3-9.9-9.05-.1-1 .4-1.5l.5-.35q1.2 2.45 4 5l5.9 4.65q4.15 3.05 6.4 5 5.3 4.55 6.75 9.25M283.6 21.1q11.8 11.2 18.7 25.65 11.3 23.65 14.2 47.95 2.9 24.15-2.7 46.85-4.75 19.35-14.9 36.05-10.45 17.15-24.75 28.4v-2.1q13.75-12 23.45-28.25 9.75-16.3 14.3-34.95 5.5-22.5 2.85-45.95-2.7-23.4-13.4-46.1-6.8-14.35-18.4-25.55-10.6-10.25-23.15-15.95-12.05-5.5-22.4-5.35-10.65.2-16.15 6.4-2.55 2.9-3.55 6.1-1 3.25-.3 6.4.7 2.85 2.6 5.15 1.95 2.35 4.6 3.45 4.6 1.9 9.4-.8 4.35-2.5 7.1-7.6l.35-1.65q-.05-1-.7-1.35l-1.5.15q-.8.4-1.2 1.2-2.05 3.8-5.35 5.7-3.55 2.05-6.6.75-1.8-.7-3.1-2.35-1.35-1.6-1.8-3.55-.55-2.25.15-4.65.75-2.5 2.7-4.65 4.3-4.85 13.4-5.2 6.85-.3 12.75 1.65l5.35 2.15Q262 12 268.2 16.2q19.75 13.3 29.65 34.1 20.1 42.15 11.55 83.6-7.55 36.55-34.25 61.9l-.3-.9-.3-.9q25.85-25.05 33.2-61.8 8.15-41.1-11.1-81.15-9.55-19.9-29-33.35-6.15-4.2-12.55-7.3l-5.3-2.25q-5.65-1.9-12.2-1.65-8.65.3-12.75 4.9-2.8 3.25-2.1 7.2.75 3.85 4.3 5.35 2.7 1.1 5.45-.55 2.5-1.6 4.45-5.1.65-1.3 1.85-1.95 1.35-.75 2.7 0 1.1.6 1.4 2 .3 1.45-.45 3-2.7 5.8-7.4 8.6-5.3 3.2-11.15 1.1-7.15-2.5-8.45-9.8-1.4-7.45 4.55-14.15Q225.9.5 236.9.05q10.65-.4 23.05 5.05 12.8 5.65 23.65 16"/><path fill="#fff" d="M145.3 183.4q0 6.55-3.55 11.35-3.45 4.6-7.85 4.6-4.3 0-7.25-4.35-2.95-4.4-2.95-11t3.5-11.7q3.45-5.05 7.75-5.05t7.3 4.75q3.05 4.75 3.05 11.4"/><path fill="#0d131a" d="M134.95 167.9q-4.1 0-7.35 4.95-3.3 4.95-3.3 11.15 0 6.3 2.75 10.5t6.85 4.2q4.05 0 7.3-4.25 3.45-4.55 3.45-11.05 0-6.4-2.85-10.95t-6.85-4.55m-8.95 3.75q3.7-5.6 8.6-5.7 4.75-.1 8.3 4.95 3.5 5.05 3.65 12.25.15 6.9-3.55 12.15-3.7 5.3-8.75 5.4-4.9.1-8.25-4.6-3.4-4.7-3.55-11.8t3.55-12.65"/><path fill="#0d131a" d="m133.85 185.65-.3 1.4q-.35.6-.8.6t-.75-.6q-.35-.6-.35-1.4 0-.85.35-1.45.3-.6.75-.6t.8.6z"/><path fill="#fff" d="M263.75 173.05q-.2-6 1.6-10.4t4.55-4.55q2.8-.15 5.15 4.3 2.4 4.45 2.6 10.45t-1.55 10.05q-1.75 4-4.55 4.15t-5.15-3.9q-2.45-4.2-2.65-10.1"/><path fill="#0d131a" d="M265.8 163.2q-1.65 4.2-1.45 9.8.1 3.45 1.15 6.55 1 3.05 2.6 4.9 1.75 1.9 3.45 1.85 1.65-.15 2.9-1.85 1.35-1.8 2.05-4.85.65-3.1.55-6.7-.2-5.85-2.5-10.1-2.2-4-4.6-3.9-2.45.1-4.15 4.3m-1.1-1.1q2.1-4.75 5.25-4.9 3.2-.15 5.95 4.6t2.95 11.05q.25 6.55-2.15 11.15-2.05 4-4.55 4.15-3.3.2-6.1-3.95-3-4.45-3.2-10.75-.2-6.55 1.85-11.35"/><path fill="#0d131a" d="M271.4 174.1q-.05-.75.15-1.3t.5-.6l.55.55.2 1.25-.15 1.35-.45.55-.55-.5q-.2-.55-.25-1.3m-15.1 48.7q1.65-1.1 2.75-.85 1.1.2-.7 1.45-2.75 1.85-9.3 4.8-11.55 5-30.8 7.75-22.2 3.1-41.5.9-7.85-.85-12.1-2.15-.95-.25-.35-.9t2.8-.25l9.4 1.3q18.4 1.85 40.55-.9 20.7-2.55 31.35-7.2 5.6-2.45 7.9-3.95m17.55-28.05q-1.1-1.95-4.25-2.05-3.3-.1-8.3 1.35l-9.85 3.45q-10 3.8-15.3 5.15-12.05 3.15-30.3 3.75-13.5.5-25.05-.45l-11.3-1.25-13.9-1.4q-7.3-.6-10.15.05-2.65.6-4.9 2.25t-3.45 3.9q-2.05 3.9-.4 8.15 1.6 3.9 7.35 7.9 5.55 3.8 11.2 5.15 1.35.3 1 1.2-.4.85-1.9.45-6.9-1.75-12.75-5.65-6.2-4.1-7.9-8.45-1-2.5-.95-5.4 0-3 1.15-5.15 1.35-2.4 4.35-4.4 2.85-1.85 6-2.55l10.75.4 14.7 2.05 11.2 1.2q11.45.95 24.9.5 18.05-.65 29.95-3.75 3.3-.85 8.15-2.7l7.7-3.05q6.25-2.35 10.25-3.45 5.15-1.35 8.8-1.25 3.45.05 5.15 3.1 1.55 2.7.5 7.5-.9 3.95-3.15 8-1.15 2.1-3.45 4.9l-3.05 3.25q-1.15.8-1.7.25-.55-.6 1.3-2.5l3.05-3.55 2-3.15q2.05-3.75 2.85-7.4.95-4.2-.3-6.35"/><path fill="#0d131a" d="M151.75 217.15q-1.6-.6-1.85-1.35-.2-.75 2.15-.15 24.6 6.6 55.15 5.05 34.95-1.8 53.1-14.3 1.35-.95 1.55-.6t-1 1.4q-15.4 13.1-53.25 15.35-15.95 1-31.15-.5-15.15-1.5-24.7-4.9m-14.6 29.9q4.55-2.95 9.9-8.05 5.3-5 6.85-7.8.45-.75.95-.25.5.45.15 1.35-.55 1.3-5.8 6.55-6.1 6.1-11.1 9.45-7.2 4.8-8.2 10.4-.75 4.45 1.95 6.3 5.15 3.55 11.7-.55 5.4-3.4 8.05-8.8 6.65-13.4 13.3-20.85 1-1.1 1.95-.95.9.2.5.65-5.15 6.05-8.9 13.6l-5.7 11.65q-5.05 8.8-13.5 9.65-6.35.65-9.15-2.05-3.2-3.3-2.85-7.65.6-6.5 9.9-12.65M180.7 39.7q-2.05-1.45-4.75-1.75t-5.4.65q-4.15 1.5-7.25 5.65t-4.75 10.45q-3.25 12.2-.25 29.7 2.85 17 8.9 24.15 2.7 3.2 6.75 4.9 4.15 1.75 6.45.6 2.25-1.15 5.25-11.8 3.05-11.1 4-22.75 1.15-14.1-1.75-25.8-2.7-10.75-7.2-14m-10.9-3.9q3-1.1 6.85-.55 3.85.5 6.15 2.35 5.55 4.45 8.05 16.7 2.3 11.45 1.15 25.65-.9 11-4.4 22.35-3.5 11.55-6.55 13.05-2.9 1.5-7.7-.55-4.55-1.9-7.3-5.35-6.75-8.45-9.4-26.15-2.65-17.55.75-30.4 2.05-7.95 6.05-12.55 2.85-3.3 6.35-4.55"/><path fill="#0d131a" d="M171.05 66.65q.2 4.35-.85 7.5t-2.65 3.2q-1.65.1-2.95-2.95-1.25-3.05-1.45-7.4t.8-7.5q1.05-3.15 2.65-3.2 1.65-.05 2.95 2.95t1.5 7.4m-4.9 23.4q1.25 9.2-.45 9.45-.95.1-2.1-2.7-1.1-2.75-1.55-6.2-1.1-8.1.7-8.3.95-.15 1.95 2.15 1 2.25 1.45 5.6m10.9 5.4q-.2 9.55-2.1 9.5-1.05-.05-1.8-3.05-.7-3-.6-6.55.2-8.4 2.15-8.35 1.1 0 1.8 2.5.65 2.45.55 5.95m13.05 67.25-1.3-.2-11.1-3.8-9.45-3.45 12.45 10.65 12.8 11 7.45-7.65q7.1-7.65 7.75-7.15l7.55 4.7 8 4.8q.9.45 5.15-10.85 4.35-11.45 4.7-15.85 0-.25-6.05 5.15l-7.25 6.15q-.65.35-8.15-4.15l-7.85-4.6q-.45 0-6.5 6.6l-6.95 7.55zm43.5-19.45q1.25-1.1 1.65-.75.5.4.15 2.55-.7 4.2-4.15 13.95-3.25 9.4-4.45 11.1l-1.65 2.3-1.95-.05-7.6-4.55-6.7-4.25q-.8-.05-7.7 7.1l-7.55 7.55q-1.15.5-26.7-22.15-1.3-1.35-1.2-1.8.1-.55 2.05-.3 2.75.3 15.85 4.95l6.35 2.2 6.95-7.7q6.5-7.45 7.35-7.5.7-.05 8.1 4.7 7.3 4.65 7.8 4.45.9-.45 6.65-5.6zM24.25 34.9l-10.95-.3q-7.2 2-10.7 9.75-1.1 2.5-1.1 6.15 0 3.8 1.25 6.45 1.7 3.4 4.85 6 3.4 2.75 7.55 3.75 2.9.75 2.95-.95.1-1.65-1.85-2.25-3.35-1.15-6.1-3.45-2.65-2.2-3.9-4.8Q4.3 51.2 6.1 46.2q2.75-7.3 9.9-8.25 3.65-.45 7.05.6 16.2 5.4 23.35 32.5l6.35 26.7q5.75 24.9 8.9 36.45 5.3 19.6 9.9 28.65 10.4 20.3 18.35 29.4 13.55 15.6 34.05 21.55l2.45-.05q1.6-.45 1.8-1.8.2-1.5-.4-2.35t-2.15-1.35q-19.45-6.2-32.4-19.8Q84.1 178.8 75 161.1q-4.5-8.8-9.7-28.1-3.25-11.9-8.75-36.1L50.1 70.1Q42.5 41 24.25 34.9m-.4 5.3q-4-1.2-7.4-.8-6.6.75-9.15 7.2-1.7 4.4.3 8.45 1.05 2.2 4.25 4.6 2.75 2.15 4.8 2.8 4.65 1.5 3.3 4.15-1.3 2.7-6.2 1.25-4.15-1.25-7.25-3.7-3.2-2.55-4.85-5.95Q.2 55.2 0 51.55q-.15-3.8 1.2-7.35 2.85-7.5 9.55-10.8 6.65-3.25 14.05-.75 18.5 6.15 26.35 36.1 2.3 8.8 6.85 28.5 5.4 23.65 8.7 35.65 5.15 18.85 9.6 27.65 9.4 18.35 21.3 29.6 12.4 11.75 29.25 17.35 3.55 1.2 3 5.35-.3 1.6-2.05 2.4l-4.05.1q-18.1-5.3-29.5-16.35t-23.7-35.15q-4.65-9.15-10-28.85-3-11.2-8.85-36.6-3.65-16.35-6.35-26.6-3.4-13-9.25-21.4-5.6-8.15-12.25-10.2"/></svg>