<svg xmlns="http://www.w3.org/2000/svg" width="119" height="180" viewBox="0 -0.85 118.55 180.15"><path fill="#c6dcdb" d="m47.7 40.45 4.4-2.1q5.6-2.15 11.65-2.1 6.75.05 10.8 1.15 3.25.9 6.55 3.05l-5 1.4q-6.15 1.45-11.85 1.55T52.55 42z"/><path fill="#0d131a" d="M46.35 126.75q5.25-2.05 13.75-.35 7.55 1.5 10.8 4.1l1.45 1.1q.75.65.7 1.05-.5 3.15-6.3 19.2-6.15 17-9.5 23.7-1.85 3.75-3.15 3.6-1.35-.15-3.15-4.55-2.15-5.2-6.35-18.45-5.6-17.75-5-21.75.35-2.25 2.4-4.5 1.95-2.25 4.35-3.15"/><path fill="#c6dcdb" d="M71.1 132.35q-.4 2.6-7.35 21.45-6.75 18.4-8.05 20.8-1.15 2.1-1.75 2.05-.5-.05-1.45-2.2-2.55-5.65-6.5-20.9-4.05-15.4-4.05-19.75l.05-.5q.3-2.4 1.55-4.8 1.45-2.85 3.35-3.55 11.75-4.65 17.85-2.25 5.15 2.05 5.55 8.55.05.55.4.8l.4.25z"/><path fill="#a7bab9" d="M56.1 136.35q1.45 2.9 4.7 4.4 4 1.85 8.6.3L64.6 153l-5.2 12.35q-.8-6.35-3.75-10.3-3.8-5.05-10.6-5.2-1.65-6.7-2.15-9.5 1.6 2.25 3.6 2.2 3.6-.15 9.6-6.2"/><path fill="#0d131a" d="M81.6 62.3q5.55-5.55 13.35-5.55t13.4 5.7q5.6 5.65 5.6 13.5 0 12.8-12.45 17.35 4.4 4.55 4.4 10.9 0 3.45-.9 5.75 5.75.45 9.55 4.6 3.9 4.3 3.95 10.85.05 8.45-6.4 13.55-6 4.7-14.8 4.7-6.7 0-11.7-7.75-4.7-7.25-4.7-15.5 0-.3 1.75-.8 1.8-.5 1.8-.75-4.5-1.75-7.25-5.8-2.75-4-2.75-8.85 0-4.4 2.35-8.2 2.3-3.75 6.2-5.8-3.3-2.7-5.1-6.5-1.85-3.8-1.85-8.1 0-7.8 5.55-13.3"/><path fill="#c6dcdb" d="M94.95 57.7q7.3 0 12.3 5.3 4.9 5.25 4.9 12.7 0 11.7-11.2 16.6-.75-.8-2.05-1.6l-1.1-.05q-.15.6.95 1.35 4.85 3.45 5.6 10.6.75 7.55-4.35 12.25-1.3 1.2-.95 1.6.3.4 1.7-.8 2.55-2.2 3.8-4.7 5.15.65 8.6 5 3.35 4.3 3.35 10.05 0 7-5.9 11.6-5.7 4.5-13.95 4.5-4.5 0-8.1-8.35-3.2-7.35-3.2-13.35l.1-1.8.05-.4-.35-.15q-4.35-1.55-7.05-5.4t-2.7-8.45q0-4.35 2.35-8 2.4-3.65 6.35-5.45l.75-.35-.7-.5q-3.4-2.55-5.25-6.3t-1.85-8q0-7.4 5.25-12.65t12.65-5.25"/><path fill="#a7bab9" d="M94.05 134.4q7.6 2.65 14.75-.95 6.6-3.3 7.65-8.65l.05 1.2q0 7-5.9 11.6-5.7 4.5-13.95 4.5-4.4 0-8.05-8.2 2.75-.4 5.45.5M108 63.9q-11.4-1.3-18.85 3.05-7.05 4.15-11.3 14-.8-2.7-.8-5.35 0-7.4 5.25-12.65t12.65-5.25q3.9 0 7.35 1.7 3.3 1.6 5.7 4.5"/><path fill="#0d131a" d="M18.85 45.45q3.85-3.8 9.2-3.8t9.2 3.8q3.8 3.85 3.8 9.2 0 3.75-2.15 7.1 4.85 5.5 4.85 12.65 0 4.75-2.35 9-2.3 4.2-6.35 6.85 2.1 2.1 3.3 4.8 1.15 2.75 1.15 5.7 0 3.55-1.65 6.75-1.6 3.15-4.5 5.25 1.55 3.25 1.55 6.75 0 6.9-4.4 13-4.7 6.5-10.9 6.5-9.55 0-14.8-4.65Q0 130.1 0 123.2q0-6.3 3-11.05t7.8-6q-1.75-2.8-1.35-7.35.5-5.75 4.9-8.75-4.05-2.7-6.4-6.75-2.45-4.2-2.45-8.85 0-5 2.8-9.5 2.7-4.4 7.2-6.95-.45-2-.45-3.35 0-5.35 3.8-9.2"/><path fill="#c6dcdb" d="M36.55 46.2q3.5 3.5 3.5 8.45 0 3.8-2.2 6.85l-.2.35.25.3q4.85 5.1 4.85 12.25 0 4.75-2.3 8.8-2.3 4.1-6.4 6.55l-.6.35.5.4q2.15 2 3.35 4.7 1.2 2.65 1.2 5.55 0 3.4-1.6 6.45t-4.45 5l-.35.25.2.35q1.6 3.2 1.6 6.7 0 6.4-4.3 12.2-4.6 6.1-10.45 6.1-7.35 0-12.45-4.55-5-4.4-5-10.3 0-5.65 2.9-10.2 2.65-4.2 6.6-5.75 1 2.2 3.35 3.8.75.5 1 .15.25-.4-.55-1.1-3.25-3.1-3.65-8.95-.45-7.45 6.05-12.25.7-.55.4-.65l-.85.15-1.75.95q-3.9-2.45-6-6.4-2-3.8-2-8.55 0-4.85 3.75-9.9 3.65-4.95 8.05-6.4 1.55-.5 1.6-1 .05-.45-.8-.25l-1.9.6-1.15.5q-1.35-4.05 2.5-9.5 4-5.55 8.8-5.55 4.95 0 8.5 3.55"/><path fill="#a7bab9" d="M1.9 120.25q1.5 5 8 9.55 7.4 5.15 16.2 5.45-3.25 2.55-6.95 2.55-7.35 0-12.45-4.55-5-4.4-5-10.3zM19.25 48.2q4-5.55 8.8-5.55 4.95 0 8.5 3.55 3.5 3.5 3.5 8.45 0 3.8-2.2 6.85l-.2.35.25.3q4.85 5.1 4.85 12.25 0 4.15-1.9 8.05Q34.4 71.7 30.4 67.05q-7.05-8.05-15.75-6.7 2.1-1.7 4.35-2.5 1.55-.5 1.6-1 .05-.45-.8-.25l-1.9.6-1.15.5q-1.35-4.05 2.5-9.5"/><path fill="#0d131a" d="M83.3 65.05q10.95 10.55 11.05 25.7.1 15.35-11.1 25.35-10.7 9.5-26 9.5-14.95 0-25.65-9.75-10.9-9.95-10.9-24.5 0-15 10.4-25.8 10.7-11.05 26.1-11 15.2.05 26.1 10.5"/><path fill="#767cba" d="M91.95 90.75q0 14.2-10.35 23.8-10.2 9.4-24.75 9.4-14.5 0-24.4-9.4-10-9.55-10-23.8 0-14.35 10.2-24.55T57.2 56t24.55 10.2 10.2 24.55"/><path fill="#767cba" d="M91.95 90.75q0 14.2-10.35 23.8-10.2 9.4-24.75 9.4-14.5 0-24.4-9.4-10-9.55-10-23.8 0-14.35 10.2-24.55T57.2 56t24.55 10.2 10.2 24.55"/><path fill="#666ba1" d="M90.95 82.55q1 4.1 1 8.2 0 14.2-10.35 23.8-10.2 9.4-24.75 9.4-9.55 0-17.45-4.35 7.55 1.2 16.75-.35 9.9-1.65 17.8-5.95 19.9-10.7 17-30.75"/><path fill="#0d131a" d="M81.25 79.85q4.1 5.6 3.05 12.6-1.65 11.4-10.65 14.05-9.35 2.75-18.8-7.15-4.2-4.45-7.5-4.7t-7.25 3.4q-5.2 4.8-11.45 3.1-5.7-1.55-6.85-6.3-.75-3.25.1-8.9.85-5.85 2.75-9.2 1.05-1.9 3.25-3.05 2.35-1.3 5.15-1.15 3 .2 5.7 2.65 2.6 2.4 4.2 6.1 1.45 3.35 5.1 3.4 3.8.05 6.5-3.95 5.7-8.25 14.85-7.45 7.55.65 11.85 6.55"/><path fill="#a499c9" d="M22.75 95.5q-.3-2.3-.3-4.75 0-7.4 3.05-14.3 1.7-1.2 3.7-1.8l3.4-.45q6.15.3 9.35 7.75 1.75 4.05 5.85 4.3 4.45.25 8.05-4.9 5.3-7.6 14.6-6.35 5.45.75 9.3 5.55 4 4.9 3.3 10.6-1.4 11.65-10.25 14.1-8.8 2.4-17.1-6.45-4.5-4.8-8-5.1-3.55-.35-8.4 3.7-4.1 3.45-8.7 2.9-4.5-.6-7.85-4.8"/><path fill="#0d131a" d="M47.1 103.85q5.9.4 8.9-3.95l.85.9q-3.45 4.95-9.95 4.4-6.5-.6-8.65-6.05l.85-.7q1.95 5.05 8 5.4"/><path fill="#c6dcdb" d="M47.9 130.65q2.05 3.95 2 7 0 3.5-2.75 6.65-3.9 4.5-9.95 5.45-5.5.85-13.1-1.15-7.45-1.95-11.8-10.85-4.5-9.2-1-17.2 3.6-8.25 12.3-11.45t16.25.95q6.3 3.4 8.2 9.15 1.65 5-.15 11.45"/><path fill="#a7bab9" d="m48.7 142.1-1.55 2.2q-3.9 4.5-9.95 5.45-5.5.85-13.1-1.15-7.45-1.95-11.8-10.85-4.5-9.2-1-17.2l1.7-3.1q1.05 1.05.55 2.45-2.5 7.25 0 13.15 2.25 5.35 8.15 8.6 5.65 3.05 12.85 3.25 7.45.2 14.15-2.8"/><path fill="#0d131a" d="M41.4 119.95q.05.5-.5.85-2.85 1.75-2.85 5.25 0 2.75 1.35 4.6 1.45 1.85 3.75 1.85t3.7-2.4q1.45-2.35 1.45-6.2 0-6.2-5.05-10.65-4.95-4.45-11.6-4.4-8.2 0-14.05 5.7-5.95 5.85-5.95 14.5 0 8.5 6.2 14.25Q24 149 33 149q4 0 7.6-1.35 3.6-1.3 6.15-3.7 1-.95 1.35-.6.3.35-.55 1.25-5.7 6.15-14.55 6.15-10.05 0-16.65-6.3-6.5-6.2-6.5-15.4 0-8.85 6-15.2 6.1-6.5 15-6.5 8.55 0 14 5.25Q50 117.55 50 124.5q0 4.3-1.8 6.85-1.9 2.6-5.25 2.6-2.9 0-4.65-2.35-1.55-2.1-1.6-5.1 0-4.8 3.9-6.7.7-.35.8.15"/><path fill="#c6dcdb" d="M67.5 131.6q-5.1-6.4-3.05-12.45 1.85-5.45 8.85-9.3 7.2-3.9 15.3-.2 7.85 3.6 11.45 11.8 3.75 8.55.65 17.45-3.3 9.6-12.9 12.95-7.45 2.65-14.45 0-7.8-2.9-11-11.2-1-2.65-.1-4.65 1.15-2.35 5.25-4.4"/><path fill="#a7bab9" d="M62.35 140.65q2.35 3.2 6.05 4.75 4.3 1.8 11.1 1.8 8.45 0 15.05-5.5 6.35-5.3 6.35-11.4 0-1.45.95-2 .85 7.55-2.6 13.9-3.8 7-11.45 9.65-7.45 2.65-14.45 0-7.8-2.9-11-11.2"/><path fill="#0d131a" d="M73.5 110.3q-6 2.4-8.1 7.15-1.95 4.55.1 10.1 1.45 3.75 4.8 4.6 2.7.65 4.4-.55 2.15-1.55 2.45-4.05.2-2.2-1-3.85-.95-1.25-2.55-1.6l-2.1.05q-.6.3-.85-.15t.4-.8l3.6-.15q1.95.7 3 2.35 1.35 2.05 1 4.75-.4 3.1-2.95 4.75-2.65 1.7-5.7.95-3.5-.85-5.5-4.75-2.6-5.1-.6-10.95 2.1-6.3 8.25-8.9 8.75-3.65 17.2.25 8.1 3.65 11.15 11.75 4.05 10.85 0 20.3-3.85 9-12.2 11.1-9.3 2.4-16.9-1.25-7.35-3.45-9.5-10.55-.2-.7.2-.95t.7.55q2.2 6.35 9.6 9.55 7.5 3.3 15.25.85 9.3-2.9 12.05-12 2.3-7.6-.45-15.95-2.35-6.95-9.6-11.15-8.1-4.65-16.15-1.45"/><path fill="#a7bab9" d="M83.6 35.8q3.3 2.2 3.05 3.45-.25 1.4-.2 3.15-.3.65-3.1-1.4-9.35-6.9-22.4-5.6-11.3 1.15-16.3 6.5Q42.7 44 39.5 43q-2.1-.65-3.3-3-1.25-2.45.65-3.25 20.5-8.65 37.05-4.8 5.8 1.3 9.7 3.85"/><path fill="#c6dcdb" d="M46.75 40.15q6.6 2.85 15.2 3.2 10.4.4 20.2-3.2-8.4-5.55-19.6-4.85-9.65.55-15.8 4.85m35.4-36.9q15.3 3.55 22.6 10.4 5 4.7 2.75 6.4-2.25 1.65-8.05-1.1Q93 15.9 77.1 15.25q-16.95-.75-24.7 2.65-5.4 2.35-8.1 4.45-2.6 2.05-3.6 4.55 5.25-2.2 12.1-3.45 8.25-1.5 17.85-1.35 20.75.35 33.8 6.3 12.2 5.6 12.45 13.45.15 5.6-6 10.85-10.95 9.2-30.5 12.05-18.1 2.65-35.35-.95Q28.7 60.35 18.95 53 9.1 45.65 7.65 35.75 6.2 25.9 18.2 15.6 30.1 5.4 46.1 2.5q18.4-3.35 36.05.75"/><path fill="#a7bab9" d="m85.45 38.65-4.2 1.85q-7.55-5-18.35-4.35-9.3.5-14.9 4.25-4.85-2.05-6.05-3.4l5.35-2.85q7.35-2.85 17.25-2.85t16.4 3.7q3.25 1.8 4.5 3.65m7.85 15.4q16.25-3.7 23.55-10.9-.55 4.95-5.95 9.55-10.95 9.2-30.5 12.05-18.1 2.65-35.35-.95-14.45-3.05-23.85-9.2-9.35-6.1-12.4-14.45 4.85 7.5 19.7 12.1Q42.25 56.5 60.25 57t33.05-2.95"/><path fill="#0d131a" d="M108.9 19.7q-.95 1.4-4 1.05l-6.3-1.45Q84.95 15.2 73.75 15q-11.75-.25-21.6 3.8-6.35 2.6-9.55 6.55Q54.9 21 68.55 21q21.75 0 36.3 6.55 13.35 5.95 13.35 13.4 0 10.95-14.7 18.3-15.4 7.7-40.35 7.7-20.7 0-38.35-8.9Q6.1 48.6 6.1 36q0-14.6 16-25.25Q38.15 0 60.3 0q13.4 0 25.65 3.5 12.45 3.5 19.1 9.3 2.6 2.3 3.6 4.2.9 1.75.25 2.7m-5.5-6.35q-5.25-4.55-15.05-7.7-12.4-4-27.8-4-20.65 0-36.35 9.95Q8.15 21.8 8.15 35.65q0 11.5 17.45 20.65 17.25 9 38.4 9 23.8 0 38.75-7.8 13.55-7.05 13.55-16.45 0-6.9-14.75-12.6Q86.8 22.7 69 22.7q-7.8 0-15.7 1.45Q46 25.5 41.1 27.6l-.4.75q-2.3 4.9 3.4 8.85 4.7 3.25 12.05 4.4 5.1.8 13.1.2 9.6-.8 16-3.45.9-.4.95.1.05.45-.55.8-14.9 7.25-30.3 4.3Q49.5 42.4 44.95 40q-4.05-2.15-5.2-4.3-1.25-2.25-1.4-3.85-.15-1.45.6-3.5Q41.15 22.2 50.9 18q10.3-4.5 24.5-4.25 12.75.2 23.85 4 6.25 2.15 7.5.9t-3.35-5.3m-65.05 74.5q0 2.65-1.7 4.5-1.7 1.9-4.1 1.9t-4.1-1.9q-1.7-1.85-1.7-4.5t1.7-4.55 4.1-1.9 4.1 1.9 1.7 4.55"/><path fill="#fff" d="M36.85 86.5q0 1.15-.75 2t-1.85.85q-1.05 0-1.8-.85t-.75-2q0-1.2.75-2 .75-.85 1.8-.85 1.1 0 1.85.85.75.8.75 2"/><path fill="#0d131a" d="M60.3 90.45q0-2.85 2.05-4.85 2-2.05 4.85-2.05t4.85 2.05q2 2 2 4.85t-2 4.9q-2 2-4.85 2t-4.85-2q-2.05-2.05-2.05-4.9"/><path fill="#fff" d="M62 88.7q0-1.25.9-2.15t2.15-.9q1.3 0 2.15.9.9.9.9 2.15 0 1.3-.9 2.15-.85.9-2.15.9-1.25 0-2.15-.9T62 88.7"/><path fill="#0d131a" d="m48.7 40.35-1.3-.5q5.9-4.65 16.95-4.6 11.15 0 17.65 4.9l-1.5.25q-5.7-3.2-14.8-3.3-9.45-.15-17 3.25"/></svg>