<svg xmlns="http://www.w3.org/2000/svg" width="256" height="268" viewBox="-0.5 -0.25 255.5 268.2"><path fill="#0d131a" d="m192.6 159.65 1.2-1.9 1.6 3.75 8.65 31.8q5.9 21.55 7.1 23.1l3.25 2.2 6.3 4.35q2 1.55 2.2 2.45l.05.35-.35.95q-.55.7-2.2.95l-4.55.1h-.65l.75 4.1.9 5.2q0 1.1-.5 1.55-.55.55-1.25.4-1.25-.35-4.95-3.25l-.9-.75-.25 1.35q-.45 2.7-.9 3.75-.75 1.85-2.15 1.95-.95.05-1.8-1l-1.7-2.75q-2.45-4.35-4.35-6.25-2.15-2.1-7.45-11-5.05-8.4-9.55-17.1-5.05-9.7-6-10.95-1.5-2 5.2-13.7 3.8-6.65 12.3-19.65"/><path fill="#39b382" d="M177.6 191.15q0-2.1 4.75-10.7 4.4-8 10.7-17.75l.1.35q8.05 29.15 11.8 41.55 3.75 12.45 4.85 13.35l3.5 2.35q6.2 4.15 7.25 5.2l-4.65.2h-1.45q-.6.1-.95.5-.35.55-.35 1.3 0 1 .8 4.75l.8 4.35-3.3-2.45-1.9-1.45-1.2-.1q-.6.25-.9 1.1l-.5 2.3q-.5 3.4-1.1 3.9l-1.65-2.6q-2.35-4.4-4.65-6.7-2.85-2.75-15.45-27.25-5.65-10.8-6.45-11.9z"/><path fill="#2f9c73" d="m193.05 162.7 4.15 15.05q-8.45 15.45-7.35 36.65l-5.75-11.05q-5.65-10.8-6.45-11.9l-.05-.3q0-2.1 4.75-10.7 4.4-8 10.7-17.75"/><path fill="#0d131a" d="M205.4 220.8q4.75-1.15 12.45.2l.2.05.2.15q4.3 2.95 5.5 4.6.65.9.25 1.35-.5.65-2.9.7l-5.25-.1h-.65q.25 2.15.75 4.1 1.1 3.75 1.2 6 .05 1.55-.35 1.95-.35.35-1.65-.35-1.9-.95-5-3.7l-.9-.75-.25 1.35-.9 4.3q-.75 2.35-2.1 2.45-.9.05-1.85-1.5l-1.7-3.3q-2.45-4.35-4.35-6.25l-1.85-2.3.15-.5q2.1-6.85 9-8.45"/><path fill="#f2e100" d="m213.95 232.25.8 4.35-3.3-2.45-1.9-1.45-1.2-.1q-.6.25-.9 1.1l-.5 2.3q-.5 3.4-1.1 3.9l-1.65-2.6q-2.35-4.4-4.65-6.7l-1-1.25q1.75-5.05 5.75-6.7 4.6-1.9 12.95.35 2.7 1.85 3.3 2.55l-4.65.15h-1.45q-.6.1-.95.5-.35.55-.35 1.3 0 1 .8 4.75"/><path fill="#0d131a" d="m139.6 117.4 1.9-3.05 14.9 37.7-23.35 5.55-31.5-15.8q-2.2-1.15-1.3-1.7l4.2-.25 17.75 1.55-6.3-18.3q-.35-1.35.25-1.45.6-.15 2.55 1.05l8.1 4.85q6.2 3.6 7.2 3.8.8-.7 2.5-5.1 1.65-4.1 3.1-8.85"/><path fill="#39b382" d="m140.75 120.65 12.85 30-20.25 4.8-24.35-12.8 16 .95-5.25-17.1q12.5 6.95 14.45 6.95 2.35 0 6.55-12.8"/><path fill="#0d131a" d="M148.2 243.4q1.2-3.3-.65-6.25-2.75-4.3-11.9-8.45-2.9-1.35-2.8-3.55.2-4.35 14.9-11.15 8.35-3.9 18.75-7.45l.6-.2 1.9-.1q4.95 5 7.6 11.2 2.65 6.25 2.2 11.9-.55 6.7-4.1 12.05-3.15 4.8-9.05 9.05.65.9 6.35 3.45l3.85 1.9q1.25.75 1.25 1.55l-.05.3q-.2 1.15-2 1.45l-4.8.15h-1.6l.1 1.05.2 1.9q0 1.45-.95 1.85l-2.6-.15-3.8-1.45-1.55-.6-.7 1.25-1.4 2.25q-1 1.1-2.2.75-.75-.2-1.8-1.1l-2.3-2.25q-4.2-4.4-7.55-6.7-1.85-1.2-2.05-2.25t.9-2.5l2.2-2.8q2.4-3.3 3.05-5.1"/><path fill="#39b382" d="M145.85 217.2q9.1-4.45 20.7-8.5 4.4 4.6 6.8 10 2.45 5.45 2.45 10.6l-.05 1.7q-.9 10.35-11.35 17.85-.9.6-.9 1.55v.15q.15 1.2 2.2 2.5l5.45 2.75 3 1.35q-1.4.2-3.85.05l-2.6.05q-1.1.15-1.1 1.7l.3 3.15q-1.2-.05-4.5-1.55l-2.15-.8q-.9-.25-1.6.55-.45.5-1.15 1.9l-1.2 1.95-3.2-2.85q-4.65-4.75-7.9-6.95-.55-.35-.55-.7v-.15q0-.95 2.1-3.75 1.55-2.05 2.7-4.3 1.75-3.4 1.75-5.95 0-3.6-3.8-6.6-3.1-2.55-10.9-6.05-1.6-.75-1.6-1.55v-.05q.15-2.7 10.95-8.05"/><path fill="#2f9c73" d="M134.9 225.25q.15-2.7 10.95-8.05 9.1-4.45 20.7-8.5 4.1 4.3 6.55 9.4-7.2.5-13.2 10.2l-4.25 6.95q-2.3 3.4-4.45 4-.1-3.5-3.9-6.45-3.1-2.45-10.8-5.95-1.6-.75-1.6-1.55z"/><path fill="#0d131a" d="m145.95 257.15 2.85.25q6.5.9 10.45-.15 4.5-1.2 6.7-5.2l.5-.9.9.55 4.65 2.2q3.6 1.65 4.55 2.2 1.7 1.05 1.55 1.95-.25 1.1-2.55 1.25l-5.3-.05h-1.6l.1 1.05.3 2.2.1 1.45q-.05.75-.5.95-.8.3-2.9-.55l-4.15-1.9-1.55-.6q-.2.25-.7 2.4l-.75 2.6q-.5 1.1-1.65.8l-2.4-1.9-2.9-3z"/><path fill="#f2e100" d="M151.3 259.55q11.75.2 15.85-5.7l4 1.95 3 1.35q-1.4.2-3.85.05l-2.6.05q-.55.05-.7.45l-.1 1.05.35 3.75q-.7-.05-4.85-1.95l-2.15-.8q-.9-.25-1.6.55-.45.5-1.15 1.9l-1.2 1.95-3.2-2.85z"/><path fill="#0d131a" d="M49.55 90.2q10.95 0 17.45 5.9 6.2 5.6 6.2 14.3 0 6-4.05 10.1-4.15 4.2-10.65 4.2-4.8 0-8.65-3.2-3.6-2.95-4.2-6.6-.65-3.9.5-6.65 1-2.35 4-5.15-2.75-.25-5.3.75-2.6 1.05-4.5 3.15-2.8 3.15-3.35 7.25-.55 4.45 1.6 8.7 2.6 4.95 7.55 7.3 4.15 2 9.45 1.95 9.65-.05 17.3-8.85 7.1-8.25 7.1-17 0-8.25-6.8-16.1-7.5-8.65-17.35-8.65-14.45 0-24.3 8.15-11.85 9.75-11.85 28.2 0 12.5 6.3 23.6 6.05 10.7 17.05 18.55 23.4 16.7 55.6 14 1.1-.1 1.8 1.25l.85 1.9q2.95 4.25-3.9 22.55-3.5 9.4-8.7 20.2l-.4.85-2.3.7q-33.3-11.9-55.6-32Q.55 162.65 0 127.7q-.5-28.45 12.6-44.65 13.65-16.8 39.3-16.85 18.7 0 30.55 11.6 11.45 11.25 12.4 29.1.8 15.1-8.95 26.85-10.35 12.4-26.25 12.4-16.2 0-26.5-8.65-9.8-8.25-9.8-20.2 0-12.25 6.6-19.45 7-7.65 19.6-7.65"/><path fill="#39b382" d="M56.05 79.55q-18.9 0-29.3 11.25-9.55 10.3-9.55 27.15 0 12.8 6.1 24.45 6.05 11.45 16.95 19.9 23.85 18.35 57.95 15.55.95-.1 1.4.55.6.85.6 2.65 0 5.1-4.35 17.05-3.65 9.85-8.6 20.2-32.2-11.8-53.05-29.9-29.9-25.85-30.9-60.65 0-27.5 12.2-43.2 12.75-16.35 36.1-16.3 16.5.05 28.45 11.85 11.8 11.65 12 27.6.15 13.15-8.65 23.95-9.9 12.15-25.2 12.1l-4.85-.4q-8.35-1.3-14.7-5.65-6.3-4.3-9.55-10.9-2.75-5.65-2.6-11.75.15-6.05 3.2-11.5 5.05-9.05 15.45-10.9 7.6-1.35 12.5.9 4.65 2.1 7.45 4.65 3.8 3.45 5.05 8.25.85 3.25-.05 6.3-.95 3.35-3.8 5.8-5.45 4.65-11.85 2.05-5.55-2.25-6.25-6-.6-3.25.7-6.5 1.45-3.5 4.3-4.85 2.7-1.35-.35-1.8-8.95-1.55-14.05 4.2-3.05 3.45-3.6 8.15-.55 4.75 1.55 9.9 2.6 6.6 9.65 9.2 5.2 1.95 11.65 1.3 5.65-.6 9.95-2.8 3.65-1.9 7.45-6.9 4.5-5.9 5.95-12.4 2.7-12.1-5.1-22.3-7.9-10.25-20.25-10.25"/><path fill="#2f9c73" d="M61.6 121.1q-4.55 1.25-9-1.4-3.9-2.35-4.4-5.1-.6-3.25.7-6.5 1.45-3.5 4.3-4.85l.25-.1q-3.25 5.6-.75 11.3 2.55 5.8 8.9 6.65m-4.4 22.6-3.85-.35q-8.35-1.3-14.7-5.65-6.3-4.3-9.55-10.9-2.65-5.6-2.6-11.35 1.75 9.3 10.5 17.45 8.95 8.35 20.2 10.8m37 58.7q-3.2 8.15-6.95 15.9-34.3-12.65-55.5-32.05 13.55 8.7 29.95 12.85 15.85 4 32.5 3.3"/><path fill="#0d131a" d="M170.45 1.4q1-1.65 1.65-1.35.65.25 1.55 2.5l7.25 19.95 18.25-15.55q1.15-.95 1.9 22.6l.5 23.75h-1.1l-22.4 1.4q-23.85 2.6-32.85 8.45l-1.6 1.05q-.45-15.75-.55-31.1-.2-30.7 1.6-28.65l13.95 16.6 5.9-9.7z"/><path fill="#2f9c73" d="m197.75 12 1.65 39.3-23.7 1.6q-20.6 2.45-30 7.6l1.4-49.55 11.5 14 13.1-19.3 8.4 20.25 7.85-6.1z"/><path fill="#0d131a" d="M205.45 33.75h.2l.1.05q6.2 2.65 12.75 13.15 7.5 11.95 9.5 26.1.7 4.35.7 9.15 0 15-4.85 26.3-6.9 15.9-24.55 29.65l.05 2.95q1.2 16-5.35 34.9-8.1 23.35-25.2 39.95-17.3 16.85-39.95 17.3-16.25.3-28.7-6.65-3.65 3.05-5.45 5.4-2.9 3.7-3.8 8.2l-.05.25.3 1.65.35 2.1-.2 1.05q-1.15 2.85-3.1 5.7l-2.85 3.25-1.3.2q-.7-.2-1.25-1.15l-1.1-2.4-.95-2.1q-.85.3-4.05 1.85l-6.95 3.05q-2.15.8-3 .35-.85-.5-.85-1.45 0-1.1 1.75-4.7l1.1-2.45-4.45.05-5.85.05q-1.95-.1-2.55-.75-.35-.45-.35-.85l.05-.25q.15-.8 1.6-1.7 1.3-.8 5.6-2.8 5.65-2.6 6.2-3.2l-.4-1.4q-3.65-8.25-2.3-18.45 1.3-9.85 6.8-18.3.9-10.85 12.05-22.05 11.35-11.5 26.7-16.5 22.55-7.3 33.15-12.55 9.3-4.6 12.45-9.3-16.8-5.5-28.7-13.6-13.55-9.2-15.5-18.5l3.05-11.7q3.3-12 4.35-13.55 11.45-16.7 20.7-23.9 18.5-14.45 43.75-12.45 1.2-.1 5.85-3.45 4.6-3.3 7.15-4.6 4.25-2.25 7.35-1.9"/><path fill="#39b382" d="M216.7 48q7.35 11.6 9.3 25.3.65 4.45.65 8.9 0 13.45-5.9 26-7.25 15.5-23.15 28.7l-.4.3v.55l.1 3.4q0 15.9-6.15 33.3-8.15 22.95-24.65 39-16.85 16.4-38.2 16.65-13.85.1-27.15-6.2l-.55-.25-.5.4q-4.3 3.5-6.45 6.15-3.75 4.5-4.75 9.6l-.1.65.35 2.1.3 1.65v.3q-1 2.4-2.65 4.8l-2.25 2.9-.95-2.1-1.15-2.5q-.7-1-1.6-.95-.65 0-5.05 2.1l-7.75 3.3 1.4-3.3q1.45-2.9 1.45-3.85 0-.7-.45-1.1t-1.7-.45l-4.55.05-5.55.05q.55-.3 5-2.45l5.15-2.5q1.7-.95 2.1-1.65l.2-.8-.55-2.15q-3.4-9.75-.8-21.1 2.45-10.75 9.1-18.45 1.35-1.5.55-1.8-.8-.25-2.75 1.5 2.35-9.8 14.45-20.5 12.85-11.4 27.55-14.95 19.25-4.65 31.05-11.55 7.5-4.45 10.4-8.6l3.9.85q2.35.55 2.7-.2.35-.8-6-2.65-11.4-3.3-25-11.8-16.35-10.2-19.2-19.1L118.05 87l4.25-5.75q10.7-15.6 20.6-23 17.7-13.3 42.25-12.5h.1q1.15-.1 3-1.2l3.9-2.65q4.25-3.05 6.55-4.25 3.8-2.1 6.4-1.9 5.45 2.45 11.6 12.25"/><path fill="#2f9c73" d="M101.45 219.85q4.6-.85 3.45.85l-1.4 2.5-2 .85-.9-.4-.5.4q-4.3 3.5-6.45 6.15-3.75 4.5-4.75 9.6l-.1.65.35 2.1.3 1.65v.3l-1 2q-4.05-7.35-2.55-14.15 1.65-7.45 9.5-10.8 2.05-1 6.05-1.7M164 139.3l.9.1q-3.95 5.45-12.65 6.05 5.5-3.65 7.85-7z"/><path fill="#2f9c73" d="M182.7 179.8q9.05-13.6 13.8-27.25-2.1 15.35-8.5 29.75-8 18-21.5 31.15-16.25 15.85-36.8 16.6-13.7.5-27.15-5.5l2.95-3.25q27.35 8.25 55.8-16.7 11.8-10.4 21.4-24.8"/><path fill="#0d131a" d="m89.65 241.55 1.2-.75.35 1.4.45 1q.2.6-.35 2.05-1.5 4.2-6.05 9.4-1 1.2-2 .1-.45-.45-1.4-3.15l-1.1-2.85-6.9 3.2q-6.55 2.95-7.25 2.6l-.85-.4q-.45-.35-.3-1.2.1-.7 1.65-3.95l1.65-3.6-4.45.05-6 .15q-2.1-.1-2.7-.7-.45-.55-.4-.9.2-.8 1.8-1.85 1.65-1.05 5.8-3 3-1.4 6-2.85l.5 1.75q.85 2.05 2.6 3.4 5.5 4.3 17.75.1"/><path fill="#f2e100" d="M89.45 244.5q-1 2.4-2.65 4.8l-2.25 2.9-.95-2.1-1.15-2.5q-.7-1-1.6-.95-.65 0-5.05 2.1-5.2 2.45-7.6 2.95l.9-2.95q.8-2.45 1.15-3.1l.25-.65q.05-.55-.65-.7l-6.05-.35q-4.05-.1-4.3-.65-.25-.65 4.05-2.5l4.35-2.05q2.55 4.7 7.35 6 5.4 1.4 14.05-1.55l.15 1z"/><path fill="#0d131a" d="m177.55 193.25.5.95.45 2.2.55 5.15.05.4-.25.3q-4.65 6.4-10.1 11.8l-.95.95-.65-1.15q-.6-1.1-1.7-1.5l-11.95 7.25-5.5-7.95-15.95 4.95-1.9-9.9-19.8 1.25 4.65-19.2-14.1-2.9-.1-.65q-2-9.9-2-16.4l.1-2.4 18.8-8.6 6.2-1.1q-1.15 5.45-3.85 15l16.65 3.55-3.05 20.3 26.9-5.85 3.85 10.55z"/><path fill="#b50029" d="m121.25 158.3-3.45 13.85-.3 1 16.4 4.1-2.65 20.8 27.9-5.25 4.2 10.2 12.85-5.9q.5 1.5.8 4.25-3.95 5.35-8.9 10.45l-.8-1.65-.45-.6-12.35 6.65-5.8-6.9-15.1 4.7-1.8-9.35-18.05.35 3.65-17.85-14.75-3.05q-1.8-9.9-1.8-15.3l.05-1.25q6.1-3.75 13.85-6.85z"/><path fill="#8f001a" d="m154.5 216.2-3-3.55q6.35-4.05 11.85-9.65l12.85-5.9q.5 1.5.8 4.25-3.95 5.35-8.9 10.45l-.8-1.65-.45-.6z"/><path fill="#39b382" d="m131.85 165.3 31.1-2.2q-5.25 7.3-12.9 28-9.4 25.35-10.2 42.8-.25 5.8 3.8 10.9l4.35 5q.2 1.1-3.8.4-3.8-.65-4.95-1.45-.7-.55-3.15 2.45l-3.1 3.3q-1.5.3-2.9-2.85l-1.5-4q-.25-.5-3.85 1.6-3.95 2.3-4.9 2.15-1.85-.35 3.45-12.2 1-2.2.3-7.85l-1.85-11.85q-1.5-10.35 0-23.4 2.1-18.7 10.1-30.8"/><path fill="#0d131a" d="M162.15 162.5q1.6-2.05 2.35-1.4.75.6-.7 2.6-5.3 7.55-12.85 28-9.3 25.1-10.1 42.25-.15 4.25 2.15 8.1 1.3 2.2 4.15 5.1 1.7 1.8 1.85 2.45.15.95-.65 1.5-1.15.7-4.7.05-3.15-.6-4.7-1.45-.45.25-2.75 2.95l-1.75 2.05q-.7.7-1.25.8-1.85.4-3.3-1.95-.8-1.35-1.8-4.35l-.2-.5q-.45.2-2.55 1.35l-3.4 1.85q-1.4.65-2.25.5-.8-.15-1.1-.8-.55-.95.05-3.3.8-3.1 3.7-9.55.65-1.4-.3-7.3l-2.25-15q-1.6-13.35.6-25.85 2.65-15.2 10.6-25.85 1.7-2.3 2.3-1.45.6.8-.6 2.55-5.25 7.65-8.15 20.9-2.45 11.15-2.45 21.65 0 6.4.65 10.95l.9 5.85q1.25 7.25 1.25 10.35 0 2.55-.65 4.05-3.9 8.55-3.9 10.7.75-.15 4-2 2-1.15 2.75-1.5l1.65-.25.75.6.55 1.4q1.65 4.95 2.65 4.95l1.95-2.15q1.85-2.35 2.75-3.05 1.45-1.15 2.45-.4.6.45 2.95 1l3.7.55-.85-.85q-2.95-3.1-4.3-5.3-2.55-4.15-2.55-8.7l.05-.75q.8-18.1 9.3-41.95 7.45-20.95 14-29.4"/><path fill="#0d131a" d="M127.45 242.9q2.4 1.35 4.9 1.5 2.35.15 4.75-.85 2.15-.9 3.9-2.45l1-.9.6 1.15q1.4 2.65 4.55 5.8 2.45 2.55 2.55 3.1.25 1.05-.45 1.45l-5.15-.25q-3.5-.85-5.15-1.75l-1.4 1.5-1.55 1.95-2.05 2.5-1.5 1.3q-1.7.4-3.25-3.8l-1.3-4.45q-.45.2-2.55 1.35l-3.6 2.45q-1.8 1.15-2.55 1.05-.5-.1-.95-1.1-1.1-2 3.6-12.5l.65-1.45 1.05 1.2q1.7 1.95 3.9 3.2"/><path fill="#f2e100" d="M127.1 246.8q-.75.35-2.75 1.5-3.25 1.85-4 2 .15-2.05 2.8-8.2 3.8 3.5 9.1 3.8 5.2.3 9.15-2.6 1.25 2 4.25 5.3l.85.85-3.7-.55q-2.35-.55-2.95-1-1-.75-2.45.4-.9.7-2.75 3.05l-1.95 2.15q-1 0-2.65-4.95l-.55-1.4-.75-.6z"/><path fill="#0d131a" d="m100.6 223.65 5-4.25q1.3-1.2 1.7-.7.35.45-.6 1.95-1.55 2.45-5.1 5.05zm145.95-158.2q6.8 2.7 7.6 3.2.85.5-7.25 8.4l-9.4 9.05 7 3.75q5.9 3.1 6.7 3.8.85.7-8.6 5.7l-9.95 5.05q-2.05 4.95-5.55 9.05-5.55 6.6-13.3 9.05l-14.5 15.65-2.1-.95q12.1-8.3 19.7-23.05 7.3-14.1 7.3-27.7 0-17.6-7.5-31.9Q209.6 41 202 41q-2.7 1.9-7.15 7.25-4.25 5.1-6.25 8.7 12.9-.55 20.7 8.3 7.9 9 7.85 24.75-.05 13.35-7 22.95-7.5 10.3-19.25 10.3-6.65 0-12.65-4.25-5.65-4.05-9.55-11.05-8.55-15.4-4.2-32.65-8.4 1.1-17.6 7.95-8.15 6-11.3 11.85 11.85 4.8 22.65 12.1 9.25 6.25 12.95 10.75 1.5 1.8 2.6 3.95 1.2 2.45 1.2 4.05 0 2.15-.8 3.15-.95 1.1-3.45.7-2.85-.45-7.05-2.9-11.95-6.8-22.55-11.75-16.55-7.7-25.65-8.85l-7.05-1.2q-2.8-1-3-3.2-.05-.6.35-1.4.45-.95 1.15-1.4-2.1-.1-3.4-1.25-1.25-1.15-.95-2.7.65-3.9 9.25-5.7 1.25-10.1 11-22.95 9.25-12.15 18.7-17.5-.4-8.25-.35-17.5.1-18.3 2.5-26.1l2.75 2.75q1.8 9.6 8 37.55-2.2 2.8-6.75 9.75l-6.9 10.9q5.1-2.85 13.1-5.45 9.35-3 16.5-3.5 4.15-9.7 15.65-23.75 14.05-17.2 27.35-24.5 2.2-1.2 2.45-.85l.05 2.95-.2 8q-.05 5.7.2 7.1L227.25 23q9.85-2.75 9.5-1.6l-3.55 10.25q-3.2 9-3.45 9.95l20.7 1.15q1.2.05-4.8 9.15l-7.05 10.35z"/><path fill="#f2e100" d="m226.6 43.9 19.45 1.05L235.3 63.5l14.45 6.05-15.9 16.9 12.55 7.6-15.25 8.9-.15.25q-1.65 2.9-4.15 6.2-4.9 6.55-9.2 9 4.25-5.85 7.15-15.95 2.7-9.5 2.7-17.05 0-18.2-8.15-32.75-7.9-14.2-17.15-14.2l-1.05.65q-3.3 2.1-8.7 8.8-5.25 6.5-6.5 9.8l-.6 1.55 1.65-.2q5.8-.65 11.4 1.65t9.5 7q3.15 3.8 4.9 9.35 1.7 5.45 1.65 11.65-.1 14.75-6.7 23.35-6.6 8.65-17.65 8.65-6.55 0-12.2-4.9-5.1-4.45-8.45-12.05-3.2-7.3-3.9-15.3-.7-8.2 1.5-14.55l.5-2.15q-12.75 3.05-21.9 9.4-8.2 5.7-12.15 13.05-.95 1.9.25 2.35 13.8 5.35 24.1 12.4 7.75 5.35 11.8 10.3 1.75 2.15 2.4 4.45.6 2.2-.15 3.05-.45.55-1.7.5-2-.15-5.45-2.1-12.05-6.85-22.9-11.9-16.8-7.85-26.1-9-4.3-.55-6.25-1.65-1.1-.6-1.3-1.25-.15-1 1.6-2.05l-.6-1.9q-1.4.05-2.3-.55-.8-.55-.9-1.35v-.15q0-1.2 1.65-2.3 1.85-1.2 5.2-1.7l.7-.1.15-.7q2.2-9.85 11.65-22.55 9.5-12.7 18.25-17.45l.55-.3-.1-14.35q0-13.05 1.05-22 5.05 26.5 6.8 31.55-3.05 4.05-8.95 13.35-5.35 8.35-6.6 10.8-.95 1.9-.55 2.15.35.25 1.9-.7 3.9-2.45 12.55-6.05 12.6-5.2 20.85-5.6l.6-.05.3-.55q3.85-8.1 13.9-20.7 13.5-16.9 26.7-25.1.15 8.9 1.2 14.75l.6 1.1 17.1-4.2z"/><path fill="#0d131a" d="M168.1 121.65q1.65 1.4 1.1 2.05-.55.6-1.9-.45-15.75-12.25-28.9-17.65-12.95-5.35-28.6-6.15l-.6-.05-1.35-1.95 2.05-.05q15.6.8 31.2 7.4 15 6.4 27 16.85m11.15-50.6q3.35-3.2 7.75-2.95 9.5.4 15 6.75 5.55 6.3 5.55 16.75 0 9.05-4.9 15.7-4.95 6.6-11.65 6.6-6.75 0-12.25-7.45Q173.2 99 173.2 89.9q0-6.25 1.6-11.15 1.55-4.95 4.45-7.7"/><path fill="#39b382" d="M200.55 76.2q4.95 5.7 4.95 15.4 0 8.25-4.3 14.25t-10.2 6q-5.55 0-10.55-6.55-5.2-6.85-5.2-15.4 0-5.85 1.4-10.35 1.45-4.6 4.05-7.05 2.65-2.55 6.2-2.4 8.75.4 13.65 6.1"/><path fill="#0d131a" d="M196.3 89.7q0 3.65-1.95 6.2t-4.7 2.55-4.7-2.55-1.95-6.2 1.95-6.2q1.95-2.6 4.7-2.6t4.7 2.6q1.95 2.55 1.95 6.2"/><path fill="#fff" d="M190.6 87.85q0 1.25-.7 2.1-.65.85-1.6.85-1 0-1.65-.85-.7-.85-.7-2.1 0-1.2.7-2.05.7-.9 1.65-.9t1.6.9q.7.85.7 2.05"/></svg>