<svg xmlns="http://www.w3.org/2000/svg" width="130" height="190" viewBox="-1.5 -0.4 130 190.45"><path fill="#567c9d" d="M31.35 157.05q-1.45 1.8-18.75 7.45 8.65-6.6 15.3-10.85 13.3-8.5 3.45 3.4M102 176.7q-4.35-1.7-9.6-4.95-4.9-3.1-7.9-5.85-1.45-1.3.65-1.2t5.45 1.45q9.25 3.9 11.4 10.55"/><path fill="#6791b9" d="M2.15 137.55q1.05-6.6 4.2-10.7 4.8 2.2 13.1 2.8 2.2-4.65 3.1-6.15 2.35-4.05 3.8-3.45 8.5 3.5 30.8 8.65 24.15 5.6 32.8 5.3 8.05-.3 9.65 3.1.6 1.15.5 3.15l-.15 3.2q3.85 3.35 8.55 5.8 4.35 2.3 4.8 2.75 2.85 3-.1 12.15-2.9 8.95-7.1 11.85-2.9 1.95-4.95.5-1.1-.8-3.95-4.95-1.9-2.7-10.25 2.85-4.75 3.15-14.7 10.7-6.15 4.3-13.5 2.85-5.85-1.15-12.95-6.15-5.5-3.85-10.65-10.9-3.8-5.15-6.7-10.95-1.95-3.85-5.8-2.05l-8.55 5.95q-4.4 3.15-8-2.65-2.7-4.3-3.8-10.5-1.2-6.75-.15-13.15"/><path fill="#567c9d" d="M29.45 130.1q2.55.65 4.5-2.5 2.15-3.45 3.9-3.55 12.1 3.8 27.6 6.9 16.8 3.35 24.5 3.05l6.05.5q.85 2.8.15 7.4 3.5 2.1 3.7 7.2.2 4.45-2 9.2-2.15 4.65-5 6.25-3.15 1.75-5.2-1.7-3.2-.85-9.7 2.25-7.2 3.45-10.65 3.4-6.85-.15-11.35-4.6-3.15-3.05-6.1-9.55-3.6-7.95-4.55-9.35-2.75-4.15-6.75-3.9-5.65.35-8.85-5.55-1.15-2.2-1.25-3.95t1-1.5"/><path fill="#6791b9" d="M99.2 44.65q0 5.45 1.6 8.95 1.4 3.15 4.4 5.15 11.3 7.7 16.6 20.1 5.3 12.45 2.5 24.7-2.75 12.2-12.45 20.7-9.45 8.3-22.95 10.9l-38.8-5.75q-19.05-8.1-25.35-22.6-5.05-11.6-1.55-25.95 2.75-11.1 11.3-19 8.5-7.95 21-10.95 5.3-1.3 7.35-2.1 4.65-1.8 6.6-4.6 8.2-11.65 19-31.3 3.45-6.3 5.1-8.4 2.2-2.8 4.05-2.5 1.55.25 2.05 2.1.45 1.7.35 6.5-.8 16.7-.8 34.05"/><path fill="#567c9d" d="M43.6 121.3q14.9 9.1 36.1 11 12.75 1.1 22.5-2.65 8.85-3.45 16.2-11.4-2 3.95-8.15 8.3-8.85 6.2-21.35 8.6l-38.8-5.75q-13.75-5.85-20.85-15.1-6.2-7.95-7.25-18.1 6 15.65 21.6 25.1"/><path fill="#0d131a" d="M44.55 126.75q.2.3 1.6.9-3.5 6.55-9.55 8.9l-1.75.2q-.55-.3 1.05-1.45l4.65-3.8q2.95-2.75 4-4.75m16.4 45.2q-3.55-3.25-5.05-10.75-1.2-6.1-.6-11 .2-1.55.55-1.7.4-.15.35 1.75-.05 3.35 1.1 8.65 1.6 7.4 4.8 12.25 1.1 1.65.65 1.85t-1.8-1.05"/><path fill="#0d131a" d="m99.05 16.9.35-11.1q-.15-2.7-1.5-2.95-1.7-.3-4.2 3.05-2.05 2.65-5.75 9.4l-6.9 13q-5 9.05-10.25 16.55-1.95 2.7-6.35 4.3l-8 2.25Q43.7 55.15 35.3 62.6 26.5 70.4 23.9 81q-2.95 12.15 1.85 24.1 6.3 15.85 24.6 23.65 3.2 1.4 2.35 1.8-.9.4-2.9-.5-16.95-7.5-24.35-20.9-7.1-12.9-3.95-28.55 2-10 10.35-18.2 9.3-9.15 23.7-13.05l7.95-1.95q4.5-1.4 6.1-3.85 5.2-7.95 10.45-17.7l7.15-13.5q3.95-7.25 6.2-9.85 2.55-2.9 5-2.45 2.35.4 2.75 4.3.35 2.75-.1 12.85l-.5 11q-.3 7.7-.3 15.45 0 10.2 5.6 14.25 12.95 9.3 18 21.9 4.65 11.75 1.75 24.25-2.75 11.7-11.55 19.9-8.75 8.1-21.85 11.2-3.15.75-3.25.05-.05-.7 3.05-1.5 12.3-3.1 20.7-11.15 8.45-8.1 10.9-19.15 2.75-12.15-2.45-24.3T104.8 59.35q-3.3-2.25-4.8-5.75-1.5-3.55-1.5-8.95 0-13.55.55-27.75"/><path fill="#0d131a" d="M78.85 43.65q1.55-2.45 1.95-2.4t-.7 2.55q-1.75 4.05-3.8 7.2-3.15 4.8-6.2 5.95-1.55.6-1.95-.15-.4-.7.9-1.45 3.95-2.3 9.8-11.7m13.3 5.65q.3-3.4.6-3.95.4-.85.8 4.25l.6 6.4q.5 4 1.45 5.75 1.1 1.95.05 1.85t-2-2q-1-1.95-1.35-6.55-.3-3.6-.15-5.75m4.8 123.55q-1.15-1.5-3.15-1.15 1.6 1 3.95 2.25zm-70.45-14.1-.9-.7q-1.25-.25-3.2.8-1.4.75-4.05 2.7zm-5.05-35.15q3-4.9 6.2-3.55l5.1 1.75 5.6 1.4 3.25 2.35q-5.8-1.1-10.65-2.7l-4.6-1.7q-1.05-.35-2.45 1.5-1.6 2.25-2.6 6.6l1.25.2 2.6.2q1.5 0 .85.3l-3.45.55-8.3-.7-6.9-1.35q-1.45-.35-3.25 5.1-1.75 5.4-1.75 10.05 0 3.6.65 7 .75 4.15 2.4 7.85 2.05 4.5 4.5 5.5 1.8.75 3.75-.7 4.65-4.2 9.7-6.85 1.9-1.2 6.6-3.7l5.8-3.3q2.55-1.6 2.75-1.15.2.4-1.85 2.25l-4.1 2.95-5.2 2.9q.8.55 1.8 2.7Q36.8 174.6 46.2 181.2q7.75 5.45 14 6.25t11.65-2.95l6.3-4.6 8.2-6.3q4.35-3.2 6.75-3.95-2.85-2.3-5.2-5.4-1.85-2.5-1.7-2.7.2-.2 2.5 2.1l5.2 4.35 3.85 3.15 3.7 4.05q2.1 1.65 4.25.2 2.55-1.75 4.9-7.1 2.3-5.25 2.85-10.2.4-4.45-.65-5.6l-8.7-5q-9-5.15-11.7-7.4-1.7-1.45-1.6-1.95.15-.5 2.3.95l5.6 3.45.35-3.25q.1-2-.7-2.8-1.85-1.95-7.9-1.8l1.75-.65 1.75-.65q4.4.5 5.85 2.2 1.05 1.25 1 4.5l-.25 3.25q2.75 1.9 8 4.65l5.5 2.95q.85.55 1.3 2.45.4 1.8.25 3.6-.8 7.15-3.3 12.75-2.45 5.5-5.65 7.65-1.6 1.05-2.8 1.1l-2.55-.65q-4.35-1.95-8.95-5.7-4.55 2.25-13.35 8.9l-3.6 2.8-3.4 2.55q-5.25 3.65-11.9 3.1-7.05-.6-14.35-5.75-6-4.25-11.8-12.6-3.55-5.05-6.15-10.25l-.45-.95q-11.05 4.8-13.75 5.65-3.45 1.15-5.1.3-2.85-1.5-5.2-6.5-1.9-4-2.6-8-2.2-12.35 2.3-21.35 2.15-4.25 5.85-3.35l5.1 1.25 5.05.95q.95-2.8 2.45-5.3M34.8 88.1q3.3-8.95 13.2-9.25 7.8-.25 14.75 5.35 4.5 3.65 7.95 9 2.85 4.45 4.25 8.85 1.25 4.1.55 5.6-.65 1.2-2.85 2.55-2.6 1.5-6.15 2.4-4.95 1.3-10.2 1-8.05-.5-14.45-4.85-7-4.75-8-11.95-.6-4.4.95-8.7"/><path fill="#7fccec" d="M38.55 98.8q-1.5-3.9-.3-7.85 1.1-3.7 4.05-5.8 3.15-2.2 6.8-1.5 8.65 1.65 16.1 10.8 2.95 3.65 4.4 7t.75 4.75q-1.65 3.2-9.65 3.8-8.85.65-15.6-3.7-4.8-3.1-6.55-7.5"/><path fill="#6791b9" d="M59.35 88.95q5.35 4.45 8.75 9.95 3.3 5.35 2.25 7.3-1.3 2.5-7.35 3.5-6.6 1.1-12.85-1-3.4-5.35-.2-12.65 3.25-7.45 9.4-7.1"/><path fill="#fff095" d="M69.9 102.25q1.15 2.7.45 3.95-.6 1.2-2.7 2.2-2.1.95-5.05 1.4-3.2-3.45-2.3-8 .9-4.75 5.9-5.65 2.6 3.35 3.7 6.1"/><path fill="#0d131a" d="m116.65 90.9 5.05-.25q1.6.6 2.3 1.6.75 1.1.75 3.35l-.4 4.1q-.65 4.35-1.75 7.25l-3.15 6.65-.85 1.6q-2.9 2.2-7.05 2.6-3.65.3-6.95-.8-1.9-.65-3.15-1.65-1.3-1-1.55-2.05-.65-2.45 2.6-8.2 3.35-5.95 8.15-10.3 3.15-2.8 6-3.9"/><path fill="#7fccec" d="M123.8 95.8q1.3 2.05 1.1 5.4-.45 7.85-6.95 12-3.9 2.5-9.5 1.85-5.5-.65-5.9-3.4-.3-2.55 5.9-9.75 6.65-7.75 11.3-8.1 2.65-.2 4.05 2"/><path fill="#6791b9" d="M116.55 106.8q.25 6.3-2.75 8-3.9.8-7.4-.15-3.6-.95-3.85-3-.2-1.6 2.6-5.85 3-4.55 6.85-7.85 4.3 2.2 4.55 8.85"/><path fill="#fff095" d="M107 103.25q2.9 2.4 2.45 6.5-.5 3.95-3.15 4.85-3.45-1-3.75-2.95-.1-1 1.1-3.35 1.3-2.45 3.35-5.05"/><path fill="#c6e7f9" d="M116.55 107.55q.1-3.9-1.6-6.7 1.75-.85 3.1-.7 1.35.1 1.7 1.15.45 1.15-.45 2.95-.95 1.75-2.75 3.3"/><path fill="#b6c6dc" d="M108.95 105.95q1.9-2.45 4.15-4.05.85-.65 1.85-1.05 1.7 2.8 1.6 6.7l-1.05.8q-3.45 2.45-6.4 2.85.85-2.65-.15-5.25"/><path fill="#fffbd0" d="M108.95 105.95q1 2.6.15 5.25-1.85.35-2.2-.6-.5-1.4 2.05-4.65"/><path fill="#c6e7f9" d="M44.7 93.9q.45-1.05 2.4-1.25l4.5.45q-2 2.7-2.7 6.2-2.3-1.4-3.45-2.85-1.15-1.5-.75-2.55"/><path fill="#b6c6dc" d="M55.05 94.25q3.45 1.4 7 4.05-1.9 2.05-1.9 5.1-4.2-.8-7.95-2.4-1.8-.75-3.3-1.7.7-3.5 2.7-6.2z"/><path fill="#fffbd0" d="M65.75 102.95q-.6 1.35-5.6.45 0-3.05 1.9-5.1 4.25 3.3 3.7 4.65"/><path fill="#0d131a" d="M80.75 128.6q-11.2-1.65-17.65-8.85-.6-.75-.45-1.15.2-.45 1.2.4 4.65 3.9 10.2 6.05 5.65 2.15 11.5 2.25 4.4.1 8.65-1.65 2.6-1.05 4.45-2.5.95-.75 1.2-.3.25.4-.45 1.1-6.95 6.4-18.65 4.65m-32.8-51.2q8.3-.25 15.65 5.6 4.75 3.8 8.3 9.4 3.05 4.7 4.45 9.35 1.4 4.6.4 6.55-.8 1.65-3.5 3.2-2.75 1.55-6.4 2.5-5.3 1.35-10.7 1-8.45-.5-15.15-5.1-5.95-4.05-8.1-10.05-2.2-6.1.15-12.5 3.55-9.55 14.9-9.95M34.8 88.1q-1.55 4.3-.95 8.7 1 7.2 8 11.95 6.4 4.35 14.45 4.85 5.25.3 10.2-1 3.55-.9 6.15-2.4 2.2-1.35 2.85-2.55.7-1.5-.55-5.6-1.4-4.4-4.25-8.85-3.45-5.35-7.95-9Q55.8 78.6 48 78.85q-9.9.3-13.2 9.25"/><path fill="#0d131a" d="M39.1 90.2q-1.45 3.7-.25 7.6 1.5 4.75 6.55 8 4.5 2.9 10.35 3.55 4.85.5 9.15-.6 4.05-1.1 4.95-2.8l.15-.8q0-1.5-1.25-4.15-2.5-5.1-7.4-9.8Q55.3 85.45 49 84.25q-3.05-.6-5.85 1.05-2.75 1.65-4.05 4.9m-1.65 7.7q-1.55-4.55.05-8.5 1.45-3.55 4.85-5.3 3.25-1.7 6.85-1.05 6.6 1.25 12.9 7.25 5.1 4.85 7.7 10.15 2.05 4.2 1.1 6.05-1.2 2.2-5.7 3.35-4.5 1.2-9.6.65-6.15-.65-10.85-3.7-5.5-3.55-7.3-8.9"/><path fill="#0d131a" d="M59.15 89.55q-6.2.6-9 6.95-2.8 6.3.4 11.7 6.15 2.05 12.5.95 5.65-1 6.8-3.2l.15-.8q0-2.35-2.95-6.75-3.2-4.9-7.9-8.85M47.5 97.7q2.1-8.35 11.9-9.35l6.8 7.1q6.4 7.75 4.7 11.05-2 3.7-11.8 3.5l-9.45-.95q-1.6-1.65-2.25-4.8-.7-3.35.1-6.55"/><path fill="#0d131a" d="m69.85 105.95.15-.85q0-2.85-4.05-8.25-3.7.85-4.85 4.2-.4 1.2-.4 2.4 0 3.15 2.15 5.7 2.85-.45 4.8-1.4 1.7-.85 2.2-1.8M61.6 97.2q1.8-1.6 4-1.95l3.05 4.9q2.9 5.15 2.25 6.35-.6 1.1-4.7 2.5l-4 1.2q-1.85-1.2-2.8-4.1-1-3.05-.25-5.35.7-2.05 2.45-3.55m60.6-7.9q2.75 1.05 3.5 3.35.8 2.35.05 7.25-.7 4.5-1.85 7.55l-3.2 6.8-1 1.9-.1.1q-3.35 2.6-8.05 3-3.9.3-7.45-.9-4.8-1.65-5.6-4.7-.75-3.05 2.7-9.2 3.5-6.2 8.5-10.7 7.1-6.45 12.5-4.45m-5.55 1.6q-2.85 1.1-6 3.9-4.8 4.35-8.15 10.3-3.25 5.75-2.6 8.2.25 1.05 1.55 2.05 1.25 1 3.15 1.65 3.3 1.1 6.95.8 4.15-.4 7.05-2.6l.85-1.6 3.15-6.65q1.1-2.9 1.75-7.25l.4-4.1q0-2.25-.75-3.35-.7-1-2.3-1.6z"/><path fill="#0d131a" d="M119.75 94.35q-2.2.2-5.3 2.5-3.1 2.35-6.3 6.25-2.35 2.9-3.8 5.5-1.3 2.25-1.2 2.95.15 1.15 1.95 2 2.45 1.15 6.05 1 3.85-.2 6.5-1.85 3.15-2 5.2-7.1 2.05-5.05 1.05-8.15-1.05-3.25-4.15-3.1m-7.25 2.6q4.1-3.5 7.2-3.75 1.85-.15 3.25.9 1.4 1 2.05 3 1.3 3.9-.5 8.7-1.9 5.15-6.25 7.9-2.95 1.85-7.1 2.05-3.85.15-6.55-1.15-2.35-1.05-2.6-2.9-.15-1.2 1.5-4.05 1.5-2.55 3.75-5.25 2.6-3.15 5.25-5.45"/><path fill="#0d131a" d="M104.2 113.05q1.45 1.05 4.1 1.35l5.3-.2q1.75-1.05 2.1-6.25.45-6.05-3.65-9.25-3.55 3.1-6.35 7.35-2.55 3.8-2.55 5.35v.15q.05.75 1.05 1.5m3.95 2.55q-2.9-.4-4.6-1.6-1.55-1.1-1.55-2.3-.1-2.7 5.05-8.75 2.6-3 5.2-5.5 5.5 3.1 5.3 10-.2 6.25-3.45 7.85l-.1.05h-.1z"/><path fill="#0d131a" d="m108.75 110.2.15-1.4q0-2.75-1.85-4.65-1.85 2.45-2.95 4.65-.95 1.85-.95 2.65v.1q.25 1.55 3.1 2.4 1.95-.7 2.5-3.75m-4.15-3.6 2.75-3.8q1.8 1.45 2.6 3.7.7 2 .35 3.9-.3 1.7-1.45 3.05-1.05 1.25-2.4 1.7l-.15.05q-4.1-1.95-4.3-3.5-.15-1.1 2.6-5.1"/></svg>