<svg xmlns="http://www.w3.org/2000/svg" width="262" height="289" viewBox="-0.1 -0.45 262.45 288.5"><path fill="#ffee7d" d="M214.3 244.05q-1.4 6-2.3 7.25-1.45-.2-6.15-2.7l-4.4-2.5-10.85 6.05-2.25-7.7-1.8-5.6-2.9.3-1.45-12.75 2.3-1 2.35-1.3q-.2-2-.25-9.25l-.05-7.55 11.85 6.4 5.9-3.4q6-3.4 6.55-3.55 1.45 3.45 3.2 14.65l5.15 2.6q5.45 2.95 7 4.75-.9 1.45-10.7 9.55z"/><path fill="#dccd6c" d="m188.35 244.45-1.8-5.6-2.9.3-.45-4.05q4.2-1.5 9.2-1.05 4.05.35 6.6 1.55 2.05.95 6.45 4.75 4.55 3.9 7.85 7.65-.75 2.6-1.3 3.3-1.45-.2-6.15-2.7l-4.4-2.5-10.85 6.05z"/><path fill="#888" d="M14.7 193.15Q23 177.4 31.55 167.6q8.9-10.1 29.45-7.9l23.45 1.3 21.45-.95 3.4-3.95q1.3-1.85 2-4.65l14.7.7 10.9 11.65 14.65 16.5q19.05 22.85 26.55 40.85 7.55 18.05 1.95 39.65-2.9 11.15-9.1 22.15-1.9 3.25-8.6 3.75l-8.3-.55q-1.6-.45-1-2.05l1.35-2.6q.5-1-5.25-10.8-5.7-9.7-6.6-10.05l-17.95-3.2-4.85 5.15-9.2 10.3q-3.7 4.4-9.9 5.15l-9.1-.5q-2.95-.45-2.15-2.6l1.4-2.05q-1.8-2.85-4.3-8.75-5-11.8-8.6-26.85-3.7-15.45 4.75-38.05 5-13.4 12.85-26.25l-23.15 1.95Q64.7 176.2 64 180.7l-5.45 33.85q-5.2 28.55-9.05 31.75-2.25-1-6.8-4.6l-6.85-5.1q-2.4-1.55-8.1 1.3l-7 3.75q-1.5.45-3.8-4.5-2.3-5.55-3-6.65-.85-1.25-4.95.4-6.25 2.5-7.65 2.8 1.9-18.8 13.35-40.55"/><path fill="#595757" d="M46.35 222.75q3.05-2.4 5.9-8.8L57 201.4q3-7.95 5.7-12.1-7.85 52.55-13.2 57-2.25-1-6.8-4.6l-6.85-5.1q-2.4-1.55-8.1 1.3l-7 3.75q-1.5.45-3.8-4.5-2.3-5.55-3-6.65-.85-1.25-4.95.4-6.25 2.5-7.65 2.8l.4-3.05q9.2-6.3 16.7-8.25 9.75-2.55 18.95 1.25 5.15 2.05 8.95-.9M95.5 173q-.6-6.2-6.55-9.8l-5.3-2.35q5-.1 12.2.2 5.8.1 10.05-1l3.4-3.95q1.3-1.85 2-4.65l14.7.7 10.9 11.65 14.65 16.5q19.05 22.85 26.55 40.85 7.55 18.05 1.95 39.65-2.9 11.15-9.1 22.15-1.9 3.25-8.6 3.75l-8.3-.55q-1.6-.45-1-2.05l1.35-2.6q.5-1-5.25-10.8-5.7-9.7-6.6-10.05l-17.95-3.2-4.85 5.15-9.2 10.3q-4.65 5.55-13.25 5.25 4.3-1.8 6.5-10.8 2.45-9.9-1.3-17.6l12.05.65q9.55-.15 17.6-1.85 22.85-4.8 23.95-19.85.85-11.2-2.4-21.6-3.4-10.9-10.7-18.85Q126.1 169.8 95.5 173"/><path fill="#888" d="M198.35 65.05q6.7 6.65 12.55 15.9 17.3 27.35 26.15 75.45 4.8 1 12.7 3.65 9.65 3.2 9.85 4.75.2 1.6-5.4 19-5.35 16.6-7.6 22.05l7.75 7q5.2 5.2 4.1 7.2L242.8 245.5q5.8 12.15 6.1 13.6.25 1.15-.2 1.15-.6-.05-3.3-1.7-2.8-1.75-9.2-8.3t-6.4-7.65q0-.9 3.2-10.65l3.15-9.6-5.05-.55q-5.1-.75-5.65-1.45-.6-.85 2.05-10.5 2.55-9.3 6.15-19.65-1.85-.75-13.9-1.95l-11.95-1.5q-.25-.25-3.6-10.3-3.75-11.15-6.25-16-2.7-5.25-12.35-17.2l-9.05-10.9L190.15 58z"/><path fill="#595757" d="m190.15 58 6.1 5.1q4.95 4.5 9.35 10.25-2.2 22.75 4.55 47.4 6.35 22.95 18.95 42.65 2.65 4.15 16.55 6.55l8.5 1.75q3.5 1.15 2.9 3l-5.8 18-4.65 13.15 7.75 7q5.2 5.2 4.1 7.2L242.8 245.5q5.8 12.15 6.1 13.6.25 1.15-.2 1.15-.6-.05-3.3-1.7-2.8-1.75-9.2-8.3t-6.4-7.65q0-.9 3.2-10.65l3.15-9.6-5.05-.55q-5.1-.75-5.65-1.45-.6-.85 2.05-10.5 2.55-9.3 6.15-19.65-1.85-.75-13.9-1.95l-11.95-1.5q-.25-.25-3.6-10.3-3.75-11.15-6.25-16-2.7-5.25-12.35-17.2l-9.05-10.9z"/><path fill="#888" d="M48.4 42.9q1.55-1.95 15.4-.35 12.9 1.45 20.4 3.8L50.5 77.8Q49 71 48 58.65q-1.1-13.85.4-15.75"/><path fill="#595757" d="M50.5 77.8Q49 71 48.15 59.25q-.95-13.65.8-16.75Q51.4 56 60.5 68.05z"/><path fill="#888" d="m174.9 49.05-3.85 2.55q10.5-6.1 14.85-4.85 9.35 14.2 8.65 39.35-.6 20.2-5.75 32.25-5.55 13.1-20.75 22.95-23.3 15.05-59.7 12.9-34.9-2.1-51.15-21.3-14.4-17.05-10.8-42.4 3.15-22.05 23.2-36.35 9.1-6.5 26.25-13 5.35-12 14.45-24.95 8.9-12.65 13.25-14.8Q127.2-.45 133.9 15q4.75 10.9 8.7 24.15l14.15 3.45q8.85 2.5 18.15 6.45"/><path fill="#595757" d="M163 56.7q4.3-3 8.2-5.2l-11.7 7.75zm25.8 61.65q-5.6 13.2-20.75 23.15-23.3 15.25-59.6 13.05-31-1.9-47.5-17.6-14.75-14-15.2-35.8 5.1 26.15 25.6 37.85 17 9.65 45.75 9.8 26.9.15 44.4-7.65 16.4-7.3 27.3-22.8"/><path fill="#888" d="M254.3 95.75q0 4.55-.75 7.95-1.95 8.3-8.6 23.3-10.25 22.9-18.5 33.1-12.7 15.65-29.3 16.15-15.5.45-36.15-.5l-17.6-1-12-12.5q10.8.8 24.55-.4 17-1.45 21.45-5.35 7.3-6.4 14.5-30.35 7.4-27.85 11-38.65 3.05.55 9.05 4.35 5 3.2 6.05 2.5 1.1-.7 7.35-6.25 5.85-4.95 6.3-3.85l3.1 8.75q3.05 7.25 5.5 6.35l8.5-3.4q5.55-2 5.55-.2"/><path fill="#595757" d="M204.15 111.05q.9-1.05 4.7-1.65 4.6-.75 7.3-2.15 2.55-1.35 6.85-5.55 3.9-3.8 6.1-4.5 2-.65 4.6 5.6 2.75 6.55 5.65 6.25 3.7-.35 7.6-2.3 2.15-1.1 6.8-4.15-1.75 8.6-8.8 24.4-10.25 22.9-18.5 33.1-12.7 15.65-29.3 16.15-15.5.45-36.15-.5l-17.6-1-8.1-6.3-3.9-6.2q8.8 3.7 25.85 3.5 17.45-.2 22.35-4.45 6.35-5.6 13.55-20.6 6.85-14.3 11-29.65"/><path fill="#ed85ad" d="m59.05 94.55.85.8 2.4 2q4-1.8 14.05-5.45l-.6 14.3 5.85 5.4q-1.3 3.4-5.15 5.75-5.35 3.3-11.75.3-6.5-3.05-7.35-12.15-.7-7.65 1.7-10.95"/><path fill="#cd7497" d="m59.05 94.55.85.8 2.4 2q4-1.8 13.5-5.1l-.35 11.1q-2.25-.95-5.6-.5-2.55.3-3.5.85-.55.3-3.85-1.05t-5.05-2.6q.75-4.4 1.6-5.5"/><path fill="#ed85ad" d="M162.9 110.15q-1.3 10.3-11.15 12.95-12 3.25-19.15-3.05-2.25-2-3.7-4.7l-1.05-2.3q1.2-.2 5.8-2.45 1.55-4.4 3.25-8.8 3.3-8.75 3.8-8.5l5.85 5.05 6.4 6.05q2.25-1.2 9.25-4.05l.6 2.95q.5 3.6.1 6.85"/><path fill="#cd7497" d="m162.2 100.35.45 1.65q.45 2.1.45 4.25-2.25 1.55-6.65 2.6l-5.35.85q-.85 0-3.1-1.25-2.25-1.3-2.9-1.3-1.1 0-2.95 2.1-2 2.3-2.5 4.8-.25 1.25-3.65 2.4l-5.45 1.45q-1.25-1.15-2.1-3.1l-.6-1.75q1.2-.2 5.8-2.45 1.55-4.4 3.25-8.8 3.3-8.75 3.8-8.5l5.85 5.05 6.4 6.05q2.25-1.2 9.25-4.05"/><path fill="#ffee7d" d="M162.6 134.35q-4.1 3.3-10.6 5.9-8.9 3.55-19.35 4.35-14.8 1.15-30.2-.4-19.45-1.9-28.5-7.45-8.7-5.35-12-8.5-1.5-1.45-2.3-3.35-.35-.85-.1-3.65l.3-2.6 5 3.4q5.75 3.6 9.5 4.85 6.25 2.05 32.5 3.35 24.35 1.15 34.25.45 6.4-.4 14.55-2.75 6.5-1.95 10.4-3.85l-.8 5.25q-.85 3.55-2.65 5"/><path fill="#dccd6c" d="M140.5 130.8q6.05-.3 14.65-2.75 7.05-2.05 10.9-3.95-1.5 9.7-52.4 9.7-17.5.05-29.5-2.25-13.7-2.65-16.7-7.85 7.1 5.25 37.6 6.8 21.2 1.05 35.45.3"/><path fill="#dccd6c" d="m59.85 118.65 7.95 5.6-1.5 3.2q-.7 1.7-1.05 3.7-3.95-2.8-4.95-4.35l-.65-1.9q-.35-.85-.1-3.65z"/><path fill="#ffee7d" d="m65.65 122.45-3.05 7.65q-3.2 8.35-4 11.95l-4.85-3.85-3.5-3.65q1.4-4.25 5.85-9.95l4.2-4.9z"/><path fill="#fff" d="M75.8 105.75q0 2.5-1.65 4.25t-3.95 1.75-3.95-1.75-1.65-4.25 1.65-4.3q1.65-1.75 3.95-1.75 2.35 0 3.95 1.75 1.65 1.8 1.65 4.3m77.55 7.1q0 2.75-2.05 4.65-2.05 1.95-4.95 1.95t-5-1.95q-2.05-1.9-2.05-4.65t2.05-4.7 5-1.95q2.9 0 4.95 1.95t2.05 4.7"/><path fill="#0d131a" d="M210 205.8q1.65-.75 2.3-.4.55.3.9 1.95.45 2.15 1.7 13.45 5.4 2.55 8.95 4.65 4.05 2.4 4.1 3.3.05 1-3.1 3.85-3.5 3.1-8.5 6.2l-2.7 12.45q-.45 1.65-.85 1.8-.35.1-2.05-.6-1.6-.65-4.9-2.65l-4.4-2.65q-3.75 2.2-9 5.75-1.4 1-1.8.85-.3-.05-.95-1.4l-1.9-5.7-1.9-6.25-1.35-.15-.8-.2-.2-1.85 6.65-.2q2.9-.25 1.65.8t-3.5 1.3q2.35 9.65 3.25 10.4.35.25 4.8-2.6 4.55-2.9 5.05-2.9.55.05 5.25 2.75 4.55 2.6 4.85 2.45.25-.1 1.35-5.6 1.2-5.75 1.65-6.5.4-.6 5.55-4.85 4.85-4 4.8-4.45t-5.7-3.6q-5.8-3.25-6.05-3.65l-1.25-7.2q-1-6.55-1.6-6.3l-6.15 3.55q-5.6 3.25-6.2 3.05l-5.2-2.95q-4.55-2.65-4.85-2.5-.4.2-.5 5.45-.1 4.45.05 8.2l3.35-.2q-.1.75-2.9 2.05l-5.4 2.6-.6-1.75q.7-.25 3.4-2.05-.15-2.55-.15-9.1 0-6.2.15-7.5.1-1.2.65-1.45t1.8.55q9 5.7 10.65 6.6l6.1-3.65zm-81-52.05 8.6 9.1-3.4-.35-7.7-8.2z"/><path fill="#0d131a" d="M12.5 193.8q7.6-14.75 18.2-26.9 5.1-5.85 10.05-7.5 6.2-2.1 19.35-.95l23.25 1.25q17.05.5 22-.6 2.95-2.85 4-5.3h2.35q-.65 1.7-1.7 3.15l-2.35 2.85-1.15 1.25-.35.1-21.75.95-23.55-1.3q-10.25-1.15-16.7.7-6.8 1.95-11.9 7.85-7.15 8.2-16.6 26.3-11.8 22.4-13 36.55-.05.65 1.55-.15l2.65-1.45 4.7-1.95q2.2-.6 3.1.75l1.95 4.2q2.85 6.75 3.9 6.95l3.05-1.6q4.35-2.5 6.7-3.3 3.95-1.4 6.2 0l6.4 4.65q5.45 3.9 6.4 3.95 1 .05 7.75-32.75l6.55-32.8q.8-3.3 5.95-4.5l15.55-1.55 8.25-.6q3-.25 3.45-.05.55.2-.35 1.6-5.5 8.85-11.25 23.75-9.7 25.15-6.2 39.7 3.5 14.8 8.45 26.45 2.5 5.85 4.35 8.8l-1.1 1.35q-1 1.55-.3 2.25 1.3 1.4 8.05.9 7.8-.6 11.35-4.6l11.9-13.75q-6-1.55-9.6-2.85-4.65-1.65-8.8-4.1-1.85-1.1-2.2-2.25t2.8.6q3.4 1.9 11.4 4.35 11.05 3.4 22.8 4.9 5.5.7 8.35 4.35t5.7 8.9l2.85 5.95.7 2.1-.1 1.05-1.05 1.9q-.7 1.35-.15 1.75 1.15.9 7.25.5 6.8-.45 8.4-3.2 6.8-11.95 9.65-24.65 4.35-19.75-2.55-36.2-8.25-19.7-31.25-46.2l3.95.2q9.65 10.5 16.4 20.1 8.75 12.35 14.05 24.8 7.2 16.9 2.3 37.5-3 12.7-10.35 25.55-2.1 3.7-9.45 4.55l-9.15-.35q-3.15-.95-3.05-2.55.05-.8 1.35-2.55l1.3-2.15q0-.5-3.2-6.05-3.15-5.55-5.7-9.55-1.2-1.8-2.6-2.65-1.35-.8-3.7-1.05l-13.7-2.1q-10.55 13.05-12.6 14.9-3.55 3.15-6.7 4.55-3.35 1.45-7.4 1.45-7.05 0-9-2.15-1.65-1.85.85-5.05-3.25-5.8-5.4-10.8-4.8-11.05-8-24.4-1.15-4.65-1.15-10.1 0-21.6 18.55-53.2l-8.25.6-14.45 1.1q-4.55.8-5.05 3.95l-4.3 24.05q-7.5 43.6-10.75 44.8-1.8.65-7.35-4.15l-8.05-7.1q-1.95-1.4-8.15 2.15-3.1 1.8-6.4 4-2.65.75-5.3-5.6L13 231.1q-.2-.35-2.35.6l-3.45 1.6-4.6 2.4Q0 236.75 0 233.9q-.1-4.7.75-8.25 4.1-16.85 11.75-31.85M202.45 71.55q-4.15-4.65-10.55-9.8l-1.05-4.6 1.2.95q7.2 5.85 11.3 10.45 8.75 9.85 15.85 24.55-1.05.8-2.15 1.15-6.6-13.55-14.6-22.7m-23.6 61.35 7.4 9.05-1 2.95-6.25-7.35-2.8-3.15zm58.55 16.95q.25 4 .55 5.65l13.5 3.4q10.65 3.1 10.9 5.3v.15q0 2.3-6.25 19.45l-8.25 21.75 1.35 1.15 7.65 6.75q3.5 3.4 3.5 5.5 0 .75-.35 1.3l-15.7 24.9q2.05 4.35 4.2 10.7 2.05 6.1 1.7 6.35-.6.4-2-.4l-3.35-2.35q-3.9-2.95-9.65-8.7-6.5-6.5-6.5-8.15 0-.95 2-7.85 1.85-6.5 3.35-10.95-8.1-.8-9.45-2.65-.25-.3-.25-1.25 0-3.5 2.95-14.55 2.45-9.1 4.2-14.15l-13-1.6-11.45-1.5q-1.1-.95-2.4-5.6l-1.4-5.35 2.1-.75 3.2 9.5 11.7 1.5 13.8 1.8q2.3.4 1.35 1.3l-1.35.85q-3.3 9.45-5.6 18.35-2.05 7.8-2.05 9.95l.05-.55q0 1.05 2.35 1.75l7.4 1.45q2.95.45 2 1.05l-1.55.45-3.7 11.4q-1.9 6.25-2.05 7.3.75 1.65 8.8 9.65 8.15 8.1 7.85 6.4-.25-1.6-1.85-5.1l-3.1-6.5-.65-.25q-.45-.45.35-1.4l7.45-12.3 7.75-13.45.1-.4q0-1.15-2.95-4.4-2.9-3.2-7.8-7.4l-.95.1q-.85-.2-.25-1.8 13.55-39.3 12.85-40.65-.45-.85-8-3.45-7-2.4-12.25-3.75-1.35-.35-1.85-.8-.45-.45-.65-1.55l-1.3-6.55 2.4-4.5q.35 1.65.55 5.45M84.5 45.4l-2.75 1.85q-7.8-2.4-19.5-3.8-11.85-1.35-13.1.05-1.2 1.5-.05 13.45 1.05 11.1 2.7 18.3L49.55 78q-1.5-6.6-2.5-18.9-1.25-14.5.6-16.8 2-2.5 16.65-.75 12.75 1.55 20.2 3.85"/><path fill="#0d131a" d="M165.15 43.75q5.7 2.1 9.3 3.9 4.8-2.25 6.6-2.85 3.65-1.2 5.2-.05 5.5 4.1 8.55 20.85 3.25 17.65.3 33.4-2.95 15.65-6.8 23.4-4.85 9.8-15.35 17.6-7.5 5.6-19.8 9.7-13.7 4.5-27.35 5.05-2.1.05-2.8-.7-.75-.8 1.05-.9 45.65-3.5 62.35-33.7 3.2-5.85 5.2-16.25 2.05-10.55 2.05-21.7 0-10.15-2.3-20.35-2.55-11.25-6.15-13.4-2.5-1.5-13.1 4.6-7.8 4.45-11.95 7.75-1.7 1.35-2.15.3-.45-1 .8-2l4.8-3.75q4.4-3.25 8.5-5.4-11.7-4.85-18.65-6.65l-9.5-2q.5 1.35-.4 1.55-.9.15-1.65-2.3-2.5-8.1-8.1-21-4.7-10.75-6.3-13.4-2-3.4-3.5-2.95-.75.2-4.15 3.45-4.2 4.1-11.85 15.95-10.15 15.8-14.05 28.85-.6 2-1.65 2.8-1 .8-.8-1 .2-1.5 1.55-5.7l1.3-3.95q-16.8 6.1-24.55 12-3.35 2.6-4.5 2.5t1.75-2.9q5-4.75 14.2-8.9Q83.9 44.4 94 40.65l1.05-.35q5.8-13.7 13.15-24.1Q115.4 5.95 123.05.4q1.15-.85 2.6 0 3.85 2.4 9.95 16.2 5.25 11.95 7.85 21.65 10.35 1.35 21.7 5.5m-104.75 94 .6-2.45q8 7.9 20 12.4 12.1 4.6 27.45 5.4l2.25.05q1.8.1 2.2.55.65.6-.4 1.15l-4.2.4q-31.35-2.05-47.9-17.5m-16.05-46.2Q45.6 82.8 49.5 75q3.4-6.85 8.4-12.1 1.5-1.55 1.95-.65.5.9-.8 2.45-3.1 3.7-6.3 10-4.2 8.4-5.25 15.95-3 20.8 6.7 36.25-1.05.85-1.6 1.75-8.95-12.8-8.95-27.5 0-5.05.7-9.6"/><path fill="#0d131a" d="m243.15 97 4.75-2.1q3.75-1.65 5.05-1.85 2.75-.35 3 2.75.9 9-8.65 30.35-11.1 25-18.65 34.85-12.45 16.3-28.95 16.75-15.9.5-35.65-.7l-19.75-1.75q-1.1-.2-1.55-.95-.45-.8.75-.7l18.25 1.05q19.95.9 35.35.45 15.9-.45 28.2-15.45 8.5-10.35 18.65-33.1 6.25-13.95 8.45-22.9 1.7-7 .45-7.65-.6-.2-5.7 1.8l-6.5 2.55q-1.45.5-2.4 0-.75-.4-1.5-1.75l-3-6.85q-2.45-5.7-2.8-5.8-.4-.1-6.15 4.35l-6.2 4.9q-.95.65-7.85-2.9-6.95-3.6-7.15-3.5-.4.2-2.35 7.3l-3.3 12.45q-5.5 20.45-8.65 29-5.35 14.6-11.2 19.7-4.7 4.15-22.4 5.65-14.5 1.25-23.5.3-1.45-.15-1.8-1.05-.4-.85 1.35-.75l21.75-.75q19.2-1.55 23.2-5.05 5.4-4.75 10.5-19.75 2.2-6.45 8.15-28.5 3.85-14.1 5.8-19.85.55-1.55 1.35-1.75.7-.15 2.35.55l6.5 3.75q5.25 3.15 6.05 3.3.6.15 6.9-5.35 6.3-5.45 7.4-5.05 1.9.7 6.6 13.65.65 1.75 2.15 1.5zm-182.5.4-1.35-1.45q-1.2 3-1.2 7.2 0 2.8.65 5.4 1.6 6.15 6.3 8.3 4.95 2.35 9.3.6 3.65-1.5 5.85-5.75-4.75-3.3-5.35-5.15-.25-.9-.1-6.45.1-5.45.35-6.35.1-.35-4.2 1.35l-5.2 2.15-1.95.9-1.65.4q-.5-.05-1.45-1.15m-6.45-7.6q.15-.75 1.85.85l6.4 5.7q5.6-2.7 11.05-4.75 3.65-1.35 3.5 1.05-.15 1.5-.35 13.2 1.7 2.5 6.5 6.05 2.5 1.8 2.5 2.6-.05.8-3.85-1.6-1.35 2.3-2.45 3.4-1.65 1.65-4.35 2.75-4 1.6-9.3-.15-7.05-2.45-8.95-10.55-.85-3.45-.5-7.6.35-4.05 1.55-5.65L55 91.7q-.95-1.15-.8-1.9m91.55 8.6q-4.5-4.1-4.65-3.6-3.5 10.9-5.5 14.9l-.7 1.3-.95.85-2.15.85-2.8.9q5.25 12.55 19.75 9.4 7.8-1.7 11.3-7.25 3.55-5.7 1.7-13.85l-7.25 3.1-1.8.1-1.55-1.45zm21.35-.7q2.3-1 2.35-.45t-1.25 1.4l-4.15 2.45q1 10.15-2.5 15.65t-12.45 7.85q-7.25 1.95-13.55-1.1-6.25-3-8.15-9.25l-3.9.95q-1.15.2-1.35-.35-.15-.65 1.5-1.4l5.15-1.85 4.15-1.6q.7-.45 3.55-8.25l3.1-8.7q.45-1 .95-1.1.65-.1 1.85 1l7.05 6.45q3.85 3.5 4.25 3.6.75.2 13.4-5.3"/><path fill="#0d131a" d="M164.3 124q4.4-2.25 4.8-1.85.25.25-.35 1l-1.8 1.55q-.5 4.55-1.15 6.45-.95 2.65-3.15 4.4-3.9 3.15-12 6.15-9.45 3.55-18.15 4.2-15 1.2-30.65-.4-19.15-1.95-28.25-7.5-5.45-3.35-10.9-7.9l1.05-1.45q3.3 2.85 10.65 7.35 8.85 5.4 27.85 7.35 15.5 1.55 30.35.4 11.35-.9 20.75-5.05 5.35-2.35 8.7-5.05 1.4-1.1 2.15-3.7l.75-4.45-5.65 2.55q-2.95 1.15-8.35 2.2-10.9 2.15-39.65 1.25-28.8-.95-37.25-3.75-5.3-1.75-13.5-7.55l-.35.55-1.45-.2v-1.45q-1.2-.8-1.35-1.75-.15-.8.55-.8.85.05 2.45 1.4l5.8 4.1q4.55 2.75 8.4 4.05 7.75 2.55 36.15 3.55 28.75 1 39.85-1.1 4.5-.85 7.6-1.9z"/><path fill="#0d131a" d="m64.85 122.1 1.6.7-6.1 18.3q-.5 1.6-1.1 1.8-.45.2-1.85-.5-2-.9-7.25-6.15-.7-.7-.85-1.35-.2-.85.3-2.25 1.2-3.15 5.65-8.55l4.4-5 1.25 1.2-4 4.65q-4.2 5.4-5.65 9.45 3.05 3.5 6.85 6.2 1.1-3.95 3.9-11.4zm37.3 22q-.35-1.95-.5-6.3-.2-4.8.1-7.1l1.5-.25q-.25 2.4-.3 7.1 0 4.8.3 6.35zm16.5.4q-.3-1.35-.45-6.85-.15-5.25 0-6.85h1.55q-.2 1.85-.25 6.9-.05 5.4.2 6.6zm15.5-13.6 1.6-.25-.15 9q-.15 4.05 0 4.35l-1.05.4q-.4-1.05-.4-13.5m16.45-1.6 1.45-.3q.45 10 0 10.85l-1 .6q.3-.65-.45-11.15m-64.55 0h1.1v1.45q-.35 9.05.15 10.2l-1 .45q-.35-.8-.5-4.25-.2-3.55-.1-7.75zm-12.65 7.6q-.2-.7-.1-5.15.05-4.35.2-5.3l1.4.55q-.15 1-.35 5-.2 4.1-.1 4.6zm74.75-16.05q-1.85.2-3.45-8t.25-8.45q1.85-.2 3.4 8.05 1.6 8.2-.2 8.4M68.1 113.9q-1.45-.65.35-8.65 1.8-7.95 3.4-7.75 1.85.3-.05 8.75-1.95 8.45-3.7 7.65"/></svg>