<svg xmlns="http://www.w3.org/2000/svg" width="274" height="233" viewBox="-0.15 0 274.2 233.3"><path fill="#0d131a" d="m260.6 83.15 8.5-1.6q3.6-.35 4.4 1.05.55.95-.5 2.85l-3.2 4.3q-7.35 8.6-15.8 13.15-3.7 2-9.8 3.85-7.3 2.3-6.8 4.25.25.8 2.8 2 1.8.75 1.3 2.35-1.2 4-10.75 7.7-11 4.2-22.15 2.25-8.45-1.5-18.7-9.7-11.4-9.05-12-17.35-.35-5.25 3.25-9.6Q185 84 192.6 81.5q6.8-2.2 15.75-1.2 5.2.6 15.55 2.75L237.25 85q11.45.75 23.35-1.85"/><path fill="#716f5f" d="M268.2 88.4q-7.1 8.35-15.15 12.75-4.25 2.3-9.35 3.6-4.35 1.05-6.6 3.15-1.45 1.35-1.85 2.8-.35 1.25 2.2 2.8 1.95 1.15-.25 2.9-4.55 3.55-11.3 5.6-8.7 2.7-16.95 1.25-7.8-1.35-17.6-9.1-10.85-8.5-11.4-16.05-.5-8.5 13.85-13.15 6.75-2.15 14.9-1.8 4.9.25 14.85 1.95l17.1 2.2q9.25.55 20.35-2.1 7.9-1.95 8.95-.55.65.9-1.75 3.75"/><path fill="#3e392d" d="M179.95 98.1q-.25-3.25 1.8-5.95 2.65 4.3 5.2 7.15 9.25 12.4 23.75 17.05 15.4 4.9 27.3-2.5.6.5.5 1.05-.15.65-1.3 1.5-4.55 3.55-11.3 5.6-8.7 2.7-16.95 1.25-7.8-1.35-17.6-9.1-10.85-8.5-11.4-16.05"/><path fill="#0d131a" d="M170.2 0q8 0 13.1 3.55 2.2 1.55 1.55 2.85-.75 1.45-5.15 2.15-7.85 1.15-10.4 5.15-1.4 2.2-.8 6.8l1.2 8.45q.9 10.9-10.1 15.05 25.85 15.75 39.6 36.25 13.55 20.25 13.95 43.15.4 24.55-11.65 41.2-12.6 17.4-39.25 26.75-10.1 5.3-20.3 8.5-9.7 3-20.95 4.5 6.85 11.85 5.75 18.95-.55 3.65-4 6.85-2 1.8-5.45 2.25-4.2.6-9.5-1.05-8.15-2.5-11.3-2.75-3.55-.3-8.35 1.35-9.65 3.35-16.1 2.85-7.75-.6-11.45-6.75-3.45-5.7-5.4-6.85-2.5-1.45-9.5-1.2-9.7.3-17.8-1.25-12.65-2.4-18.05-8.8-4.45-5.35-5.25-8.75-1.1-4.6 7.1-.85 8.9 4.05 13.8 1.65 2.85-1.4 6.4-7.3l3.65-5.9q2.55-3.35 6.1-4.75-5.5-3.85-8.9-9.75-2.05-3.55-3.95-9.4l-.05-.1q-9.05-2.25-12.85-5.85-2.95-2.75-3.4-7.05-.05-4.95-.45-7.3-.6-4.05-3.85-6.45-3.75-2.85-5.25-4.85-3.1-4.15-2.9-9.75.35-9.35 8.9-18.1 7.6-7.85 17.85-11.65Q39.4 68.6 56 56.9q12.35-8.65 31.1-13.15l1.5-.5q3.35-4.3 7.9-7.6 6.6-4.9 13.55-5.7 5.75-4.85 12.5-6 2.2-.35 8.85-.2 4.9.15 8.95-1.5 4.35-1.85 5.95-5.2 3.35-6.95 10.4-12T170.2 0"/><path fill="#716f5f" d="M170.4 2.05q5.25-.55 8.7.7 2.75 1 2.9 2.25.1 1.1-2.55 1.5-8.4 1.1-11.85 6-2.9 4.1-1.55 10.5 1.9 8.65-.45 13.25-2.3 4.6-9.45 6.4l-2.35.6-6.05.15q-4.65-.45-4 .45.6.9 3.85 1.4l8.6-.5q22.4 14.15 35.75 31.1 13.3 16.95 16.5 35.45 2.65 15.1-.4 29.2-3.25 15.05-12.7 27.15-8.4 10.7-34 21.65-23.05 9.9-42.8 13.2-7.35.6-16.25-.3-8-.85-11.75-2.2l-3.15-.05q-.15 1.05 2.55 1.85 8 2.35 14.5 3.1 6.85.75 13.8 0 4.45 8.1 5.2 11.95.65 3.3-.05 6.3-.75 3.05-2.7 4.85-4.1 3.9-12.3 1.4-8.4-2.6-11.85-2.85-3.9-.35-9.05 1.45-8.1 2.85-14.1 2t-10.8-5.45q-1.05-1-2.25-3-1.9-3.05-4-4.1-3.4-1.8-10.7-1.55-12.05.4-21.15-2.05-9.05-2.5-13.05-7.25-3.2-3.8-3.65-5.75-.55-2.3 3.25-.55 9.8 4.6 15.5 1.65 3.25-1.7 7.15-8.2 2.3-3.85 3.9-5.55 2.7-2.85 6.45-4 1.55 1.1 5.8 3.3 2.6 1.45 3.75 1.05 1.15-.35-2.95-2.7l-2.7-1.6q-6.45-4.05-10.9-10.6-3.8-5.6-5.1-11.2l-2.8-2.6q-7.65-2.65-10.75-6.1-2.3-2.55-2.7-6.45l-.7-6.55q-.95-3.7-4.75-6.35-2.15-1.5-3.5-3.8-1.5-2.55-2.25-6.5-.3-1.8-.3-3.6 0-8.05 6.45-15.4 5.85-6.7 14.95-10.6-1.3 2.85-1.65 5.85l-.15 2.5v.1l.05.1 1.9 5.05q3.05 5.45 8.95 9.1 2.65 1.6 3.55 1.35 1-.25-2.55-2.95-5.35-4.1-8.15-8.7-.9-1.55-1.9-4.25v-.3q0-.85.65-3.35.75-2.95 1.8-5.45l.1-.05.2-.35q13.2-22.1 29.65-33.6 10.2-7.15 28.1-13.3-6 7.3-11.3 16.55-4.35 7.65-6.15 12.55-1.8 5-1.45 5.95.4 1.05 3.2-5.6 7.4-17.25 19.4-30.7l.2-.25q8.25-9.1 17-11.5-5.6 5.35-6.8 9.6-.85 2.85-.55 3.35.35.6 2.2-2.55 1.9-3.25 4.3-5.9 2.1-2.35 5.45-5.15l4.1-2.9q5.15-3.05 10.6-3.55l5.15-.3q6.6-.35 9.1-1.3 3.7-1.45 7.35-6.2l1.4-1.85q5.15-6.85 8.35-9.4 5.25-4.2 12.7-5.05"/><path fill="#3e392d" d="M33.7 193.75q2.3-3.85 3.9-5.55 2.7-2.85 6.45-4 1.55 1.1 5.8 3.3 2.6 1.45 3.75 1.05 1.15-.35-2.95-2.7l-2.7-1.6q-6.45-4.05-10.9-10.6-3.8-5.6-5.1-11.2l-2.8-2.6q-7.75-2.7-10.85-6.2-2.25-2.55-2.6-6.55 5.3 6.5 18.3 8.8l16.95.5q4.3-.85 3.75.4-.5 1.15-3.75 2.75 27.5 26.15 58.85 32.55 27.75 5.6 55.75-4.65-11.65 5.3-24.55 9.4-12.5 3.95-22.5 5.65-7.35.6-16.2-.3-8-.85-11.75-2.2l-3.15-.05q-.15 1.05 2.55 1.85 8 2.35 14.5 3.1 6.85.75 13.8 0 4.45 8.1 5.2 11.95.65 3.3-.05 6.3-.75 3.05-2.7 4.85-4.1 3.9-12.3 1.4-8.4-2.6-11.85-2.85-3.9-.35-9.05 1.45-8.1 2.85-14.1 2t-10.8-5.45q-1.05-1-2.25-3-1.9-3.05-4-4.1-3.4-1.8-10.7-1.55-12.05.4-21.15-2.05-9.05-2.5-13.05-7.25-3.2-3.8-3.65-5.75-.55-2.3 3.25-.55 9.8 4.6 15.5 1.65 3.25-1.7 7.15-8.2"/><path fill="#0d131a" d="M75.85 53.75q-2.7 4.85-3.65 7.35 1.3.5 1.8 1.35.55.9.55 2.65 0 1.4-2.05 5.7-2.65 5.45-5.5 5.25l-3.9.5-3.2.55q-8.95 5.6-11.15 6-4.95 1.05-4.95-4.05 0-2.7 2.35-6.45t5.6-6.15q.55-2.05 3.05-5.35 1.4-1.8 4.5-5.25l21.15-8.65q-1.45 1-4.6 6.55"/><path fill="#e6e2c8" d="M72.3 56.2q-1.8 3.55-2.25 5.1l-.15.55.55.1q2.35.45 2.35 3.95l-.05.75Q72.5 69.4 71 71.6q-1.7 2.3-3.9 2.35l-4.4.5-3.3.4-.15.05-3.85 2.75q-3.7 2.9-6.2 3.55-2.85.75-3.5-1.65l-.1-.9q0-2.3 2.3-5.6 2.35-3.35 5.75-5.75l.2-.15v-.2q.45-1.95 2.3-4.5 1.2-1.65 3.7-4.4 2.5-1.55 5.75-3.4 6.6-3.65 10.7-5.1-1.85 2.35-4 6.65"/><path fill="#0d131a" d="M36.35 88.55q-3.55 6.2-5.8 5.9-1.4-.2-1.7-3.9v-.15l.05-.15q4.4-7.1 12.1-16.65l1.2-.35q-2.1 8.75-5.85 15.3"/><path fill="#e6e2c8" d="M39.9 76.6q-2.65 7.7-5.45 12.25-2.45 3.95-3.7 3.8-.7-.1-.85-2 3.3-5.3 10-14.05"/><path fill="#0d131a" d="M28.55 159.85q2.9 1.2 9.1 1.15 6.15 0 9.95-1.25 3.6-1.15 3.55-.25-.1.85-2.8 1.95-5.2 2.2-11 2.35-5.1.15-8.6-1.35zm146.4 23.45-.9 1.75q-11.15 5.3-21.2 7.35-9.3 1.9-19.55 1.4-3.2-.2-3.95-.75-.85-.6 5.1-.75 8.8-.2 17.95-1.9 12.5-2.35 22.55-7.1"/><path fill="#0d131a" d="M197.95 157.1q-1.35 2.1-7.1 8.3 5 7.7 3.3 10.45-1.6 2.55-6.3 5.55-4.35 2.7-6.55 3.1-3.25.55-8.25-7.6l-4.7 1.65.4 6.2q0 2.85-.75 4.15-1.3 2.15-10.85 3.2-9.25 1.05-11.65-.2-2.95-1.45-2.95-11.35l.05-1.35-3.6-.15q-.15 2.9-.65 5.65-.75 3.95-1.85 5.3-1.5 1.9-3.7 2.05-4.7.3-11.25-1.25-7.15-1.65-9.65-4.1-1.05-1-1.05-4.25 0-2.3.95-5.85-27.2-8.95-27.2-40.25 0-29.95 16-53.3 16.1-23.5 40.7-29 10.2-2.15 2.95 1.3 28.1 4.1 46.25 32.55 7.5 11.85 11.25 25.2 3.6 12.85 2.65 23.25-1.1 12.3-6.45 20.75"/><path fill="#e6e2c8" d="m188.65 165.85 1.75 2.8q1.8 3.1 2.35 5l-.35 1.1q-1.3 2.1-5.65 4.85-4 2.55-5.8 2.85-.85.15-2.95-2.25-1.95-2.25-3.6-5.1l-.45-.8-.85.35-5.35 1.9-.9-2.45q-.4-1.05-1-.85t-.35 1.2l.85 5.4q.6 6.7-.15 8-1 1.3-9.45 2.25-8.45.9-10.35-.05-.95-.45-1.45-4.2-.45-3.5-.25-7.55l.05-1.05h-5.8q.15-2.8-.75-3.15t-1.2 3.8q-.5 8.75-2.15 10.8-1.15 1.25-9.7-.1-9-1.4-11.8-4.15-.6-.6-.35-3.2.25-2.35 1.05-5l.35-1.1-.2-.05.9-2.55q.6-1.7.1-2.05-.5-.3-1.1.9l-1.6 3.25q-5.65-1.8-10.9-6.5-8.8-7.9-12.05-21.2-3.8-15.5 3.4-37.4t21.2-37.3q10.45-11.45 24-15.35l2.95.05 2.85.45q21.15 3.05 38.35 24.1 17 20.85 19.15 45.85 1.45 16.35-5.4 28.3-3.45 6-7.25 8.85l-.6.6z"/><path fill="#c1bea9" d="M183.5 151.75q-1.85 7-11.3 14.55-9.75 7.7-22.6 11.9l.5 5.6q.6 5.45.05 6.7l-3.75-.45q-.8-.4-1.3-3.35-.45-2.75-.45-6.35l.1-3.1h-5.8l.05-.4q-.05-2.6-.85-2.75-.85-.1-1.15 3.8-.5 8.75-2.15 10.8-1.15 1.25-9.7-.1-9-1.4-11.8-4.15-.55-.45-.55-1.8 0-1.4.7-4.55.7-3.45 1.6-5.55.7-1.7.15-2-.55-.35-1.15.85l-1.6 3.25q-5.65-1.8-10.9-6.5-8.8-7.9-12.05-21.2-1.15-4.7-1.25-10.5-.1-15.35 7-33.1 7.2-18.05 18.85-30.9 10.45-11.45 24-15.35l2.2-.05Q150.5 63 159.75 73.3q9.45 10.45 15.85 23.15 14.75 29.15 7.9 55.3"/><path fill="#0d131a" d="M151.4 106.7q7.3 9.65 7.5 25.9.3 25.4-25.75 30.4v-.05l-.8.1q-16.6 2.5-24.75-6.05-7.5-7.8-7.5-24.4 0-14.8 9.4-25.5 9.15-10.45 21.05-10.45 13.2 0 20.85 10.05"/><path fill="#f9dbe8" d="m145.35 111.05-.6.1q-6.95 1.6-11.2 6.75-4.25 5.2-4.25 12.25 0 7.1 4.1 12.1 4 4.95 11 6.6l.6.15-.25.5-2.9 5.25-.2.3-.35-.1q-8.5-1.8-14-9.05-5.35-7.1-5.35-15.85 0-8.7 5.1-15.45 5.25-6.9 14.2-9.45l.3-.05.2.25q2 2.65 3.3 5.1z"/><path fill="#f9dbe8" d="M130.85 143.5q4.9 6.2 11.95 7.6l-1.6 2.75q-7.95-1.95-13.1-8.8-5-6.7-5-15 0-8.2 5.15-15 5.15-6.85 12.95-8.85l.75 1.55.6 1.55q-7.45 1.7-12.05 7.6-4.55 5.8-4.55 13.15 0 7.3 4.9 13.45"/><path fill="#f3b3cf" d="M136.8 130.05q0 4.4 2.9 7.7 2.85 3.25 7.1 3.85-.9 3.95-2.6 7.8-6.7-1.5-11.05-6.9-4.45-5.45-4.45-12.45 0-7.1 4.5-12.55 4.45-5.4 11.25-6.85 1.75 3.55 2.75 7.75-4.4.55-7.4 3.85-3 3.35-3 7.8"/><path fill="#fff" d="M136.8 130.05q0-4.45 3-7.8 3-3.3 7.4-3.85 2.55 11.15-.4 23.2-4.25-.6-7.1-3.85-2.9-3.3-2.9-7.7"/><path fill="#f9dbe8" d="M169.6 115.05q4.95 6.7 4.95 15.05 0 4.4-1.5 8.65-4.1-9.7-3.45-23.7"/><path fill="#0d131a" d="m170.05 116.65-.05 2q0 10.35 3 18.45 1.05-3.65 1.05-7 0-7.2-4-13.45m-.9-1.6.05-1.35.8 1.05q5.05 6.9 5.05 15.35 0 4.45-1.55 8.85l-.45 1.15-.45-1.15q-4.2-10-3.45-23.9m17.2 47.85q-.8-.75-.45-1.1.4-.35 1.3.2l1.85 1.7.95 1.4-.15 2q-2.4-3.15-3.5-4.2m-39.1 14.35 2.3.15q.5.2.75.9l.55 3.05.35 5.25q.05 2.6-.4 2.2-.45-.35-.85-2.2l-.65-4.2-.45-3.4-4.45.1-2.85-.1 1-1.6zm-16.3-79.4-1.8-.7q18.75-.4 25.05 16.8 3.55 9.65 2.85 24.9-.4 8.7-7.05 15.45-6.7 6.75-16.85 8.7l-.15-2.15q12.45-7.1 12.95-26.45.25-11.95-2.65-20.8-3.75-11.4-12.35-15.75"/><path fill="#c1bea9" d="M155.9 132.35q0 11.8-5.25 18.8-4.9 6.55-14.8 9.25 12-9.05 12-29.1 0-10.35-2.95-18.5-3.55-9.75-10.8-14.55 12.2 1.75 17.75 13.45 4.05 8.55 4.05 20.65"/><path fill="#0d131a" d="M198.65 119.85q2.3 11.9.5 19.95-1.95 8.5-8.25 11.6-6.65 3.3-13.85-3.4-7.5-6.95-9.25-19.45-1.85-13 1.45-24.45 3.15-11.15 8.2-11.55 6.95-.55 12.7 6.7 5.9 7.45 8.5 20.6"/><path fill="#c1bea9" d="M178.1 94.4q5.65-.75 10.75 6.45 4.95 6.95 7.3 18.3 2.35 11.15 1 19.2-1.4 8.65-6.8 11.35-1.85.9-3.2 1.05-1.65.25-3.1-.5 3.65-2.8 5.4-8.65 1.6-5.45 1.1-11.9-.85-11.1-3.6-18.5-4-10.6-12.3-15.1.9-1.4 3.45-1.7"/><path fill="#f9dbe8" d="m170 118.65.05-2q3.15 4.9 3.85 10 .65 4.95-.95 10.45-2.95-8.2-2.95-18.45"/></svg>