<svg xmlns="http://www.w3.org/2000/svg" width="433" height="424" viewBox="-0.1 -2.1 433.45 423.8"><path fill="#e8b67d" d="m28.45 333.65 3.75-2.85q2.2-1.8 3.7-3.75-.8-3.75-1.05-9.35-.25-6.25.45-10.2 2.3 14.45 9.45 29.3 6.75 13.9 13.15 19.25 9.4-5.05 32.2-21.35 23.15-16.55 29.9-23.15 9.5 11.3 33.8 29.55 26.85 20.2 38.45 22.2 6.55-15.35 8.65-39.75 2.5-28.8-4.25-48.75l1.75.5q7.4 10.8 29.8 32.75 22.5 22 35.85 31.35 4.1 10.75 4 26.25-.1 12.15-2.65 25.05-1.8 9.05-6.9 13.8-4.95 4.6-12.05 4.5l-42.35-3.05-.1-.3-.1-4q-8.1.4-23.3-.2l-24.8-1.6q-62.05-6.35-91.75-28.25 1.45 7.9.1 14.65-1.4 7.15-5.5 10.9-2.4 2.2-10.8 3.45-8.3 1.2-12.45.1l-19.3-9.05q-7.9-13.7-5.7-28.85 2.5-17.4 18.05-29.15"/><path fill="#ffee7d" d="M17.1 391.05q3.45-2.85 8.8-2.95 4.3-.1 7.75 2.6 3.65 2.8 3.2 6.45-.7 5.65-12.05 5.65-3.7 0-7.1-1.7-3.65-1.9-3.65-4.4 0-3.1 3.05-5.65m207.15 14.3q.15 2.8-2.7 4.45-3 1.75-8.25 1.45-3.65-.2-6.35-1.7-2.75-1.55-2.85-3.6-.1-2.5 2.7-4.25 2.85-1.85 7.55-2.2 3.25-.25 6.4 1.5 3.3 1.8 3.5 4.35"/><path fill="#ffee7d" d="M244.6 403.65q2.95 2.7 1.85 5-.7 1.6-4.2 2.45-3.5.9-8 .6-4.35-.35-7.15-2.45-2.9-2.1-2.55-4.75.25-1.85 3.25-3.15 3.8-1.7 9.65-.95 4.2.55 7.15 3.25"/><path fill="#00a63c" d="M173.05 84.7q-7.45-2.8-21.3-6.35-16-4.1-22.2-4.1-4.3 0-5.6-2.35-1.75-3.35-3.65-7.7-11.6 1.6-24.45-1.5-12.45-2.95-17.6-8.1-.75-.75-.9-1.65-.2-1 .4-1.8 1.85-2.3 7.25-6.9 5.65-4.75 9.35-6.95-10.4-.4-30.2-.6-22.65-.3-28.2.1-2.05.15-2.55-1-.4-1.05.6-2.85Q42.45 18.6 58.35 9.8 75 .6 93.5 1.2q19.3.65 36.6 10.1 15.1 8.25 27.05 22.2 10.6 12.4 16.4 26.35 5.45 13.2 4.55 22.5-.2 2.15-1.5 2.7-1.2.55-3.55-.35"/><path fill="#e8b67d" d="M87 59.9q7.25 3.2 14.65 4.2-5.05 2.85-13.35 3.2-7.8.35-16.2-1.5-8.5-1.95-14.6-5.45-6.55-3.8-8.35-8.5-7.25 0-5.5-2.95 1.4-2.45 10-12.2 30 0 40.7.6-7.1 4.55-16.2 13.15-.9.85-.9 2 .05 1.1 1 2.15 2.35 2.5 8.75 5.3"/><path fill="#fff" d="M94.35 37.3q-2.4 1.35-6.35 4.45l-5.65 4.55q-4.35-.7-6.8-3.65-2.2-2.6-2.1-5.8 5.65-.2 20.9.45"/><path fill="#ffee7d" d="M91.55 66.95q7.65-.9 10.55-3l9.85.7 9.05-.7q-.95 7.25-3.85 16.5-3.15 10.05-6.75 16.3-2.4 4.15-6.5 6.75-4.1 2.65-8.05 2.55-3.85-.05-5.9-2.45-1.95-2.35-1.7-6.2-4.8 4.1-11.1 5.15-6 1.05-10.4-1.15-1.85-.95-2.1-3.7-.25-2.4.7-3.95 1.6-2.35 7.65-8.9l-6.45 1q-4.1.2-5.55-2.9-1.35-2.9.5-4.95 2.05-2.2 15.75-11.05 6.95.8 14.3 0"/><path fill="#e8b67d" d="M178.45 127.25q-2.3 23.65-10 49.5-7.7 25.8-18.55 46.3-11.5 21.75-23.65 31.9-8.45 7.15-30.65 15.3-23.8 8.8-30.05 5.05-1.85-1.1-2.8-10.05-.8-7.85-.35-12.85l8.85-9.2 9.25-9.7q13.65-14.75 22.5-27 9.1-12.65 18-29.4 10.65-20.1 13.6-44 3.8-31-7.5-59.05 9.65.55 27.7 5.2 15.15 3.85 21.8 6.5 4.35 16.35 1.85 41.5"/><path fill="#00a63c" d="M53.65 36.7Q49.5 40.85 46.4 45q-3.4 4.45-2.95 5.55.35 1.05 5.7 1.3 2.3 5.25 10.65 9.6 7.9 4.05 17.45 5.5l-7.9 5.2Q64.4 75.65 61.9 78q-1.6 1.5-1.35 3.55.25 1.9 1.85 3.2 1.45 1.15 4.75 1.05l5.85-.95L69.3 89l-3.95 4.75Q64 95.6 64.45 98q.45 2.35 2.3 3.4 3.4 1.9 8.3 1.55 5.1-.3 9.4-2.95 6.5 14.75 13.35 47.8 6.9 33.05 8.05 55.05-5.35 8.15-17.95 22.2-10.2 11.45-17.05 18.05-22.8-25.7-43.95-75.45-8.9-21-14.95-40.7Q6 107.6 4.6 95.2q1.9-1.1 8.85-3.65-2.4-1.55-6.05-4.3-4.05-3.1-6.35-5.15 0-2.8.6-7.5.6-4.85 1.4-8.4 6.1 2.05 9.5 2.45-2.35-5.8-9.4-15.75 1.15-2.45 4.9-8.75 4.4.65 13.55 4.35-1.2-3.3-2.35-7.55-1.15-4.35-1.65-7.2l4.2-1.6q3 3.3 7.9 11.35.85-3.35 3.5-8.4.55 1.4 3.75 1.6 3.6.25 16.7 0M352.1 89.3l14-19.55q6.25-.45 11.05-.1-1 12.6-1.95 19.8 6.25-4.75 21.6-15.2 4.15 2.4 6.3 5l-8.45 10.6-7.4 8.8 11.8.7 10.7.35q.25 5.95-.45 12.9-6.9 2.8-17.1 5.95 7.85 2.85 11.9 3.75l-7.6 10.95q-7.05-.55-11.8-1.7l6.7 6.65q-3.75 6.2-6.4 11.65-2.75-1.1-5.9-2.05l-5.25-1.15 1 4.75q.55 2.75.6 4.7-9.75 10.35-31.3 27.1-21.9 17.1-47.5 34.15-62.35 41.6-96.8 51.55-3.6-.85-5.65.1t-1.4 3.25q-5.85-1.4-21.05-9.1-16.3-8.3-21.85-13.4 32.9-51.55 93.75-105.45 24.55-21.7 48.3-38.9 22.1-16 36.4-22.95 3.8 6.15 5.35 9.75 3.7-7.25 9.05-18.9h7l1.1 8.25z"/><path fill="#00a63c" d="m358 384.05-1.65-6.5q-1.15-4.35-1.9-6.15l-1.05 5.5-1.55 6.25q-2.2-1-9.9-2.85-.15-2-1.1-5.8-1.1-4.15-2.05-5.95-.85 2.85-4.05 9.5Q297.2 365.7 256.2 333q-34.6-27.65-57.8-57.7-1.95-.15-3.7-1.35-1.85-1.2-1.9-2.6-.05-1.35 1.25-2.05 1.25-.7 3.45-.7 5.15 0 11.4 1.7 5.2 1.45 10.35 3.8 27.3 12.6 100 44.3 76.95 33.55 90.3 38.35 2.25.8 3.25 2.65.4.7 1.4 3.95 3.25 4.2 9.3 14.3 5.7 9.55 8.4 15.15L426 394l-6.4.3-6.05-7.6q-4.45-5.4-6.4-7.15 2.4 4.85 5.95 15.05l-6.5.5q-4.85.2-5.6-.1-2.8-1.2-14.2-14.9l2.2 7.45 1.85 8.05q-4.75-.3-16.7-4.55-11.7-4.15-16.15-7"/><path fill="#00a63c" d="M141.25 237.15q1 2.7 3.95 6.7l4.4 5.3q4.3 4.5 20.7 12.95 15 7.75 22.5 10.15.45.95 1.8 1.75 1.25.75 2.05.8 5.4 13.85 4.75 39.7-.7 28.65-9.3 48.35-13.55-3.55-37.9-21.5-21.5-15.9-34.8-29.95-7.75 7.8-29.75 23.45-19.35 13.75-31.75 21.2-7.7-7.15-14.65-22.45-7.15-15.7-7.35-26.95.2-11.45 9.4-29.6 8.75-17.3 17.1-24.65-.8 4.45.4 13.2 1.2 8.8 2.75 9.7 6.05 3.45 27.85-4.35 19.45-6.95 31.65-14.8 2.95-1.9 8.15-7.9 5.35-6.25 8.05-11.1"/><path fill="#dbdcdc" d="m94.3 37.4-4.5 3.15-15.45.05q-.65-1.6-.85-3.8 16.35.25 20.8.6"/><path fill="#0d131a" d="m88.2 41.7-4.2 4q-1.5-.45-2-2-.5-1.5.3-2.95.6-1.25 1.75-1.85l2.55-.15q.7.3 1.15 1 .5.85.45 1.95"/><path fill="#fff" d="M84.8 39.6q.45 0 .8.4l.3.85q0 1.25-1.1 1.25-.35.05-.7-.35t-.35-.9.35-.9q.3-.35.7-.35"/><path fill="#009233" d="M112.3 56.5q10.6-1.55 18.2-4.85 8.2-3.6 10.05-8.15 1.75 7.05-3.05 12.8-4.95 5.95-14.35 7.4-13.8 2.15-27.6-.9-14.3-3.2-18.4-10 5.15 3.5 15.25 4.4z"/><path fill="#c39969" d="M36.35 393.95q-1.1-2.85-4.65-4.5-3.45-1.65-7.55-1.35-4.4.3-7.7 2.9-2.95-4.05-4.7-10.55-1.65-6.4-1.25-11.65 1.6 6.75 6.85 9.9 4.75 2.8 12.25 2.5 8.85-.35 15.45-6.6 7.4-6.95 6.15-17 1.9 3.65 6 7.9 3.3 3.45 7 6.25 1.4 7.25.3 13.6-1.2 7-5.3 11.4-2.35 2.55-10.35 3.75-7.9 1.2-13.5-.05 2.25-3.4 1-6.5"/><path fill="#c39969" d="M96.7 375.7q25.15 5.5 55.35 5.75 27.7.25 52.65-3.85 24.45-4.05 37.45-10.75 10.7-5.55 12.15-15.25 1.45-10-8.3-17.65-10.85-8.5-25.15-24.7-16.85-19.1-24.2-33.7h1.95q11.35 14.8 31.4 34.45 20.9 20.5 34.35 29.5 3.8 14.25 3.55 31.4-.25 17.05-4.35 25.8-3.1 6.75-7.25 9.65-3.95 2.75-9.85 2.75.6-3-2.4-5.8-3-2.9-7.25-3.15-5.35-.35-8.2.7-3 1.1-4.2 4.05-1.2-2.85-4.25-4.3-2.8-1.35-6.1-1.05-3.95.35-6.5 1.7-2.6 1.35-3.35 3.65l-.15-3.25q-52.3.9-91.9-9.1Q66.5 381 51.2 357.6q17.25 11.95 45.5 18.1"/><path fill="#dccd6c" d="m83.25 67.35 6.55.05-8 8.15q-3.4.4-6.95-1.2Q71.45 72.8 71 71l6.5-4.35zm-1.15 8.1 7.7-8.05q2.95 0 7.3-1.25 3.6-1.05 5.75-2.15l3.85.65-5.1 8.7q-3.95 2.35-10.7 3-6.65.7-8.8-.9"/><path fill="#dccd6c" d="m101.05 74 2.95-4.8 2.85-4.85 6.9.2 6.9-.4.45 1.9-2.45 10.25q-3.9 2.1-10 1.35-6.2-.75-7.6-3.65"/><path fill="#c39969" d="M54 36.65q4.55-.15 19.5.15.2 2.2.85 3.8-17.65.1-24.7.6l2.1-2.35zM87.35 60.3q6.95 2.75 14.2 3.7Q94 68.75 80 67.25q-13.05-1.4-22.6-6.95 10.4 2.1 18.25 1.9 5.9-.2 11.7-1.9"/><path fill="#009233" d="M124.25 72.4q-2.4-4.45-3.6-8.25 9.1-1.5 14.45-5.7 6.15-4.95 6.55-13.1 2.4 7.9-3.15 16-5.25 7.65-14.25 11.05"/><path fill="#c39969" d="m176.55 85.55 1.1 5.5q-7.75-3.95-24.1-8.25-16-4.2-24.75-4.7l-1.2-3.65q7.65-.6 27.2 4.75z"/><path fill="#009233" d="M4.7 49.55q3 3.5 6.2 10.4 3.55 7.6 3.9 12.5-1.7-3.8-5.65-10.25-3.9-6.45-6.1-9.2zM1.55 77.2q1.85 2.9 6.25 7.65 4.05 4.4 6.8 6.6-1.75-.65-6.65-4.1Q3 83.95 1.2 82.2q.05-2.85.35-5m9.4 46.15Q5.3 104.1 5.1 94.6q2.55 11.65 9.95 32.25Q22.75 148.3 32.4 170q24.15 54.35 41.4 69.7l-2.5 3.4q-23.15-24.75-45.45-78.25-9.15-21.95-14.9-41.5M33.5 62.3q8.55 19.85 30.3 83.75 21.3 62.4 25.15 78.05L87.4 226q-8.55-27.25-27.7-84.2Q38 77.3 32.25 63.9zm341.9 93.35q-4.15 6.1-25.5 22.9-21.8 17.2-48.9 35.65-69.65 47.4-101.15 54.7-2.8-.7-5.05 0-2.3.75-2.3 2.5l-2.9-.75q-2.2-.6-3.4-1.15 35.2-8.85 104.15-52.95 28.15-18 51.25-35.35 23.05-17.3 31.3-26.6.95-3.4.45-8.1l1.4 5.2zm16-17.55q-4.35 7.45-6.4 11.75l-11.8-4 5.4.15 4.6.5 3.25-5.4 2.9-5.3zm-7.9-7.55q3.6.15 11.45-.1l3.6-4.65 2.9-4.4 2.7.8-3.7 5.6-4.05 5.25-6.35-.8q-4.35-.8-6.55-1.7m7.8-12.35 8.2-3.85q5.95-2.8 6.7-3.35.9-2.4 1.65-5.8l1.05-5.6q.25 1.8.3 6.65l-.05 6.25q-2.5 1.2-8.25 3.1-6.15 2-9.6 2.6m-34.15-2.15q-20.6 14.9-95.9 72.8-75.5 58.05-92.9 72.4l-2.7-1.6q27.75-22 99.05-76.7 76.85-58.9 91.65-69.1zm-22.4 261.9Q301.35 367.1 263 338.4q-38.85-29.1-64.4-62.85h3.2l3.3.4q16.65 23.7 45.75 45.2 27 19.9 59.95 34.5 31.95 14.2 61.75 20 30.6 6 51.25 1.6l4.35 8.05 3.45 7.4q-7 1.85-12.15 1.85l-5.55-7.15q-4.3-5.5-6.05-7.15 3.4 8.8 5.2 14.25l-6.85.65-5.25-.25q-1.05-.45-6.6-6.4l-7.15-7.95q2 6.4 3.5 14.9-5.5-.6-16.6-4.3-11.5-3.9-16.3-7.05-.4-2.65-1.4-6.5-1.05-3.85-1.8-5.3-.6 1.6-2.7 10.65-3.45-1.3-9.7-2.3-.45-2.6-1.5-6.5-1.15-4.4-1.85-5.45z"/><path fill="#009233" d="M413.8 363q-12-3.7-101.45-42.2-84.15-36.25-96.05-42.05-3-1.45-8-2.65-5.4-1.3-7.85-.9-3 .5-5.6-1-2.9-1.7-1.75-4.5.6 1.15 2.5 1.85l3.55.6q8.75 0 17.95 4.3 10.45 4.8 96.75 42.05 86.7 37.4 99.45 42.55z"/><path fill="#dccd6c" d="M14.4 396.9q-.3-2.6 1.6-4.8 0 4.3 8.4 5.45t11.95-2.5q1.1 1.45-.1 3.7-1.25 2.45-4.3 3.3-4 1.1-8.5.6-4.55-.45-7.15-2.3-1.65-1.15-1.9-3.45m190.1 6.5q1.5 3.25 9.4 3.4 7.7.2 9.95-2.5.75 3-1 4.6-2.05 1.85-7.55 2.15t-8.6-1.65q-3.4-2.15-2.2-6"/><path fill="#dccd6c" d="M225.05 403.3q1.6 3.35 9.75 4.35 8.1.9 11.65-1.7 1.35 6.1-10.3 5.6-5.75-.25-9-2.2-3.85-2.3-2.1-6.05"/><path fill="#0d131a" d="M121.95 30.35q-11.35 0-21.9 5.1Q89.4 40.6 78.85 51.3q-.85.9-.75 1.5l1.2 1.45q7.6 6.4 22.45 8.5 14.45 2.05 25-1.25 7.85-2.45 11.05-7.85 2.6-4.45 1.75-9.85-.9-5.6-5.05-9.25-4.8-4.2-12.55-4.2M142.2 43.5q1 6.3-1.9 11.2-3.65 6.1-12.95 9.05-10.9 3.4-25.55 1.3-15.65-2.3-24-9.55-1.85-1.6-1.9-2.7-.05-.95 1.3-2.45 10.45-11 21.85-16.75 11.45-5.75 22.85-5.75 9.2 0 14.6 4.8 4.65 4.15 5.7 10.85"/><path fill="#0d131a" d="M174.15 86.2q-9.95-3.5-22.1-6.65-15.8-4.1-23-4.1-2.6 0-3.9-.6-1.45-.65-2.35-2.45-2-4.05-3.65-8.15l2.4-.15q1.9 4.75 3.25 7.45.5 1.1 1.6 1.45l2.6.35q7.4.2 23 4.1 13 3.25 22.45 6.55 1.4.45 1.9 0 .5-.4.6-2.1.45-8.35-4.25-20.3-5.15-12.85-14.3-24.55-23.2-29.5-56.6-33.85Q81 .55 63.5 8.4q-17.6 7.9-28.45 24.85-.8 1.3-.45 1.8.4.55 2.35.5 5.75-.15 26.75.1 22.3.25 32.55.7l-2.85 1.7q-9.15-.3-29.8-.35-18.75 0-26.65.15-3.85.05-4.85-1.55-.95-1.5.75-4.1Q43.95 14.85 62.5 6.4 81.1-2.1 102.2.65q34.05 4.4 57.75 34 9.6 12 14.85 25.35 5 12.6 4.45 22.05-.2 2.9-1.65 3.95z"/><path fill="#0d131a" d="M81.85 46.95q-3.8-.4-6.75-3.5-3-3.15-2.55-6.6l1.95-.05q-.4 3.2 2.3 5.85 2.7 2.7 6.6 2.9zm-30.65 2.3q-.2-.2.05-.8.2-.6.5-.8.3-.15.6 0l.2.55-.6.75q-.55.45-.75.3"/><path fill="#0d131a" d="M56.1 36.75q-2.75 2-6.7 6.35-3.6 4-4.8 6.1-.65 1.2.7 1.35l16.6 1.1q9.65.3 15.15 0l.2 1.8q-6.5.5-16.25.25l-16.25-1.3q-2.2-.35-2.65-1.25-.4-.8.6-2.55 1.45-2.55 4.3-5.9 3.15-3.75 6.1-6.1z"/><path fill="#0d131a" d="M104.5 64.3q-4.9 2.85-12.9 3.75-8.05.9-16.5-.45-20.2-3.35-27.55-15.9l2.3-.05Q56.9 61.8 74.3 65.2q16.2 3.15 26.65-1.55zm15.65-.05 1.4 2.8q-1.25 7.9-3.65 15.6-3.25 10.25-7.45 16.35-4.1 5.95-10.25 7.7-5.2 1.5-9-.35-2.45-1.2-3.5-3.7-1.1-2.75-.1-6.1 1-3.25 7.6-14.6 5.4-9.25 10.8-17.65l1.9.2q-4.7 7.35-10.5 17.65-6.55 11.6-7.55 14.9-.7 2.35-.1 4.15.65 1.85 2.6 2.75 3.55 1.75 8.1.15 4.9-1.7 8.2-6.5 4.35-6.3 7.8-17.35 2.6-8.55 3.7-16"/><path fill="#0d131a" d="M88.35 98.45q-5.1 4.6-11.45 5.55-5.85.9-10.55-1.4-2.95-1.45-3.4-4.1t1.8-5.6Q67.7 89 76.1 80.25q7.05-7.45 12.95-13.15l2.65-.05Q86.2 72.35 78 81.2T66.65 94.15q-1.3 1.7-1.1 3.35.2 1.75 1.9 2.55 5 2.45 10.5 1.3 5.4-1.2 10.95-5.85z"/><path fill="#0d131a" d="m76.7 66.55 2.85.4q-3.75 1.8-9.35 5.85-4.95 3.55-7.6 6-1.7 1.55-.7 3.6 1.1 2.1 4.1 2.25l4.3-.4 4-1-1.75 2.85q-3.85 1-6.75.9-4.55-.15-6.15-3.4t1.45-6.35q1.95-1.9 6.65-5.15 5-3.45 8.95-5.55m52 7.85q15.75 41.25 1.85 83.4-14.1 42.8-59.05 86.9-23.75 23.25-31.95 49.05-7.4 23.25-.25 40.35.5 1.15-.05 1.4-.6.25-1.15-.8-8.75-16.7-1.5-40.95 8-26.7 32.85-51.05 44.1-43.3 58.35-85.9 14.2-42.35-1.65-82.45z"/><path fill="#0d131a" d="M177.65 84.8q3.95 18.8 2.1 42.85-1.8 23.1-8.55 47.05-6.75 24.05-17.25 44.35-10.9 21.15-24.05 34.55-8.7 8.9-33.9 17.9-25.6 9.15-31.25 4.7-1.85-1.5-3.05-9.55-1.15-7.75-.55-13l2.75-3.05q-1.1 5.3 0 14 1 8.5 2.65 9.8 4.5 3.45 29.05-5.7t32.25-17.05Q140.25 239 151 217.9q10.3-20.15 17.2-44.2t8.9-46.75q2.1-23.75-1.65-41.3z"/><path fill="#0d131a" d="M178.85 114.6q-6.65-4.5-20.6-9.5-14.1-5.05-24.3-6.5l-.15-2.2q10.4 1.05 24.05 5.7 14.35 4.9 21.1 10.1zM98.7 146.2q7.5 34.85 8.15 55.25l-2.2 3q-.55-19.95-7.75-54.65-7.15-34.25-13.65-49.2l2.45-1.25q5.95 14.05 13 46.85M16.75 33q2.05-1.05 4.7-1.85l.65-.05.5.4q3.95 4.5 6.65 10.2 1.25-4.05 3.5-8.25l1.1 2.6q-2 3.55-3.7 8.1-.2.65-.65.7-.4.05-.7-.5-4.1-7.2-7.35-10.7-1.8.55-2.85 1.1 1.25 6.5 3.9 13.95.5 1.7-1.15.95Q16 47.25 8.6 45.2 6 48.85 4.25 53q3.15 4.3 6.1 9.45 3 5.3 4.3 9 .5 1.5-.05 1.7t-1.2-1.2q-1.6-3.75-4.85-9Q5.5 58 2.3 53.75q-.5-.7-.2-1.4 1.6-3.95 5.15-8.95.35-.45 1.15-.25 6.25 1.5 11.65 4-2.35-6.45-3.85-13.1-.1-.65.55-1.05"/><path fill="#0d131a" d="M3.75 67.4q-.7 3.1-1.15 7.5-.45 4.25-.35 7.05 6.5 5.25 12.1 9.15 1.5 1.1-.2 1.55-3.75.9-8.35 3.05 5.8 35.95 27.25 82.5 20.75 45 39.1 64l-1.95 1.75q-8.5-8.45-19.3-26.4-10.45-17.35-20.4-39.15Q8 129.15 3.55 95.3q-.15-.8.6-1.15 3.8-1.75 7.35-2.75Q5.25 87 .7 83.3q-.65-.55-.65-1.35-.15-2.9.45-7.85t1.55-8.3q.3-1.2 1.5-.65 3.75 1.6 8.9 2.85l.7 2.1q-5.95-1.25-9.4-2.7m29.6-3.45Q44.3 92.9 61 141.75q18.45 54.05 27 83.65l-1.7 1.65Q77.55 197.9 59 142.5 41.95 91.75 31.95 64.25q-.65-1.75 1.7-2.65 2.4-.85 3.05.9 15.6 41 30.3 83.05 14.1 40.45 25.05 75.4l-1.75 1.55q-10.8-34.5-25.05-76-14.5-42.35-29.65-83.35-.25-.7-1.4-.35-1.15.4-.85 1.15"/><path fill="#0d131a" d="M53.55 124.25q-4.3-2.8-10.95-5.95-6.8-3.2-12-4.85-1.4-.45-1.25-1.05t1.6-.25q4.95 1.15 11.5 3.95 6.1 2.65 10.7 5.4zm7.8 22.25q-2.75-1.6-8.8-3.6-5.8-1.9-10.5-2.9-1.45-.3-1.35-.9.15-.6 1.6-.4 4.1.6 9.65 2.05 5.75 1.55 8.8 2.95zm15.45-7.45q-3.5 6.75-7.55 16.65l-1.15-3.1q3.3-7.3 7.5-14.15.7-1.2 1.3-.95.55.3-.1 1.55m.8 41.15q4.1-8 7.8-13.4.85-1.2 1.4-.85.5.3-.25 1.55-3.75 6.15-8.1 15.6zm.05 15.45q-4.05-1.75-9.85-3.55-5.65-1.8-9.6-2.55-1.25-.25-1.15-.9.1-.6 1.35-.45 3.9.5 9.3 1.95 5.05 1.3 9.3 2.9zM409.95 358q-22.6-8.7-98.2-41.75-51.75-22.65-96.05-42.4-3.4-1.55-9.5-2.8-6.05-1.3-9.8-1.3-2.85 0-2.65 1.4.15 1.2 1.8 2.05 1.9 1 4.75.85 6.8-.45 14.75 3.1l96.55 42.25q85.85 37.3 101.05 42.5-.55-1.85-1.1-2.65-.55-.85-1.6-1.25m3.65 6.2q-12.55-4-100.2-41.8-62.65-27-99.15-43.15-4.6-2.05-8.35-2.7l-5.65-.3q-3.5.2-6-1.3-2.45-1.45-2.75-3.7-.25-1.6 1.1-2.65 1.35-1.1 3.85-1.1 3.75 0 10.25 1.45 6.3 1.4 9.9 3 48.7 21.75 95.95 42.55 75.65 33.2 98.1 41.9 3.2 1.25 4.25 6.45.45 2-1.3 1.35"/><path fill="#0d131a" d="M355.25 370.75q2.05 6.15 3.6 12.8 6.35 3.2 15.1 6.4 9.8 3.6 15.8 4.55-1.75-8.6-3.6-14.45-.3-.95.1-1.15.4-.25 1.05.5 7.45 9.15 13.7 14.65l6 .15 4.95-.45q-3.3-9.25-6.05-15.3-.45-.95 0-1.25.4-.25 1.15.55 7.5 8.2 13 15.55 5.65-.05 10.2-1.2-3.6-7.4-8.55-15.55-5-8.25-9.05-13.45l1.5-1.4q4.25 5.4 9.55 14.2 5.4 8.9 8.95 16.35.7 1.35-.55 1.65-5.2 1.4-12.55 1.6-.55.05-1.05-.65l-3.75-5.1-5.3-6.75q2.8 5.85 4.8 11.45.5 1.3-.75 1.4-8.2.9-12.65.3-.65-.1-1-.45-5.3-4.75-11.2-12.5 1.95 6.4 3.15 12.45.3 1.25-1.05 1.05-6-.75-16.85-4.55-9.85-3.45-16.35-6.75-.65-.35-.9-1.4l-.75-4.3-1.2-5.2-1.8 9.05q-.3 1.1-1.15.7-3.65-1.45-10-2.65-.75-.1-.8-.95l-.8-5.1-1.3-5.15-3.2 8.1q-.45 1-1.45.65-37.2-12.9-72.35-39.65-34.5-26.25-65.25-64.55l2.95.15q30.35 36.75 64.95 62.9 34.65 26.15 69.85 38.8 1.9-3.7 3.85-8.7.25-.7.7-.65l.65.65q2.35 5.25 3.35 11.6l8.4 2q1.85-7 2.4-10.85.15-1.1.7-1.1.5-.05.85 1"/><path fill="#0d131a" d="M282.1 345.6q-.55 2.4-1.85 4.8l-1.7-1.15q1.35-1.85 2.3-4.1.4-1 .95-.8t.3 1.25m2.75 8q1.55-2.95 2.55-6.25.35-1.25.9-1.15.6.1.4 1.4-.5 3.5-2.1 6.9zm-136.3-107.65q3.4 3.95 8.3 7 9.15 5.7 18.6 10.5 10.5 5.3 17.2 7.3l1.45 3.1q-14.6-4.1-38.55-18.4-5-2.95-8.6-6.95-3.8-4.15-6.6-10l1.9-2.6q2.75 5.95 6.3 10.05m-56.9 25.4q11.05 24.85 45.95 55.1 14.85 12.85 29.4 22.3 14.65 9.55 24.35 12.6 7.9-20 8.8-46 .8-24.75-4.9-41l2.25.4q6.25 15.75 5.3 41.75-1 27.1-9.45 47.05-.5 1.1-1.8.75-10.5-3.05-25.5-12.55-14.95-9.4-29.95-22.4-35.05-30.35-46.6-57.2z"/><path fill="#0d131a" d="M160.4 256.4q7.5 16.1 5.3 44.5-2.05 26.35-9.95 41.15l-2.3-1.4q7.2-13.65 9.4-41.4 2.3-29.9-4.9-44zM36.35 302.25q.35 13.9 7.9 30.75 6.7 15.1 13.85 21.9 15.55-10.05 33.75-23.25 19.15-13.9 27.35-21.3l1.55 1.8q-9.05 8.4-27.75 22.05-18.6 13.55-34.25 23.25-.8.5-1.5-.2-6.9-6.3-13.4-18.95-7.4-14.45-9.05-28.25z"/><path fill="#0d131a" d="M66.65 275.9q-9.5 11.15-12.65 34.6-3.4 25.8 5 45.65l-2.15-.55q-8.45-19.9-5.3-45.05 2.9-23.5 13.45-36.2zM18.7 345q-7.15 9.65-7.15 22.8 0 7.05 1.6 13.25 1.6 6.3 4.3 9.75l-1.85 1.65q-2.9-3.65-4.8-10.5Q8.9 375 8.9 367.8q0-13.55 7.95-24.25 4.55-6.15 13.5-12.8 2.9-2.25 5.25-5.05l.6 2.85q-1.5 2.1-4.55 4.4-9 6.7-12.95 12.05"/><path fill="#0d131a" d="M18.3 391.4q-3.5 2.45-3.05 5.85.5 3.7 9.35 4.25 8.8.5 10.75-2.8 1.55-2.55-1.2-5.9-2.85-3.5-7.6-3.7-4.8-.2-8.25 2.3m18 .55q3.25 4.4 1.1 8.05-1.2 2.05-5.05 3.1-3.6 1-7.9.75-10.5-.7-11.25-6.4-.65-4.7 3.7-7.75 4.1-2.85 9.8-2.6 6.15.25 9.6 4.85"/><path fill="#0d131a" d="M65.45 372.45q1.2 6.35.55 11.85-.8 7.1-4.6 12-3.25 4.2-13.05 5.55-8.6 1.15-14.45-.35l1.95-1.75q5.6 1.05 12.85-.25 8.15-1.4 10.9-4.9 3.55-4.5 4.15-11.1.5-5.45-.95-12.8z"/><path fill="#0d131a" d="M51.85 357.5q15.9 24.25 70.6 35.85 21.1 4.5 44.85 6.3 20.55 1.6 36.55.8l.1 2.4q-16 .9-36.4-.5-24.25-1.65-45.55-6.15-56.15-11.75-71.3-38-.7-1.25-.15-1.55.5-.35 1.3.85"/><path fill="#0d131a" d="M214.85 400.7q-4.1-.05-7.05 1.5-2.75 1.5-2.75 3.25 0 1.95 2.65 3.2t6.7 1.3q3.85.1 6.15-.85 2.7-1.1 2.7-3.3 0-2.1-2.15-3.5-2.35-1.55-6.25-1.6m7.4-.2q3 2.05 3.1 5.4.1 3.2-3.15 4.9-2.95 1.55-7.85 1.5-5.05-.05-8.1-1.9-3.1-1.85-3.15-4.9-.05-3 3.35-4.95 3.35-2 8.4-2 4.5 0 7.4 1.95"/><path fill="#0d131a" d="M204.8 388.65q-.35 5.6.15 14.75l-1.85 2.1q-.3-3.65-.2-8.45t.55-8.45q.2-1.4.8-1.35.65 0 .55 1.4m39.7 23.05q-3.1 1.3-8.75 1-5.35-.3-8.7-2.1-3.65-1.95-3.6-5.25.1-3.05 3.6-4.85 3.6-1.85 9.05-1.4 4.7.35 8.05 2.7 3.6 2.5 3.55 6-.05 2.65-3.2 3.9m-8.55-10.5q-4.05-.35-7.1.7-3.45 1.2-3.5 3.5-.05 1.95 3 3.45 3 1.4 7.35 1.65l6.95-.6q2.9-.75 2.9-2.1 0-2.4-2.9-4.35-2.85-1.95-6.7-2.25"/><path fill="#0d131a" d="m228.7 410.35-7.5-.2 2.25-1.9 2.65.05zm36.75-70.55q2.6 7.3 3.6 16.15 1.05 9.15.25 18.9-1.6 19.25-6.9 27.15-5.4 8.1-17.25 8.25l1.35-2.2q9.55-.7 13.95-7.95 4.5-7.4 5.95-25.45.8-10.05-.4-20.15-1.15-9.8-3.95-17.05zm67.7-246.9q-2.15-4.55-4.9-9.05-20.6 10.6-47.4 31.3-25.3 19.45-51.35 44.15-25.8 24.35-46.3 48.1-21.4 24.7-32.25 43.15L149 248.8q26.2-43.05 81.35-94.45 25.55-23.85 50.7-42.65 26.15-19.6 47.05-30.15.85-.45 1.4.5 2.35 4.1 4.65 9.35z"/><path fill="#0d131a" d="M350.95 72.9q.6 7.9 1.8 15.4l-1.55 1.95-1.35-8.4q-.75-4.8-1-7.55l-5.5.1q-5.2 11.45-9.95 20.05-.7 1.25-1.3 1-.6-.2.05-1.55 4-7.95 9.4-21.3.3-.7 1.2-.7H350q.85-.05.95 1"/><path fill="#0d131a" d="m348.75 92.75 16.45-23.5q.45-.6 1.05-.65 5.9-.45 11.2-.05 1.1.1.95 1.3l-2.1 17.75 19.65-14.25 1.35-.1q4.8 2.9 7 5.45.65.75 0 1.4-9.75 12-15.3 17.85l10.65.6 10.05.25q1.15 0 1.15 1.15.2 5.05-.55 12.4-.1.9-.85 1.15-7.95 3.05-14.9 5.2 3.65 1.25 9.95 2.65.65.15.9.6.2.45-.15 1-5.4 8.1-7.75 10.85-.5.7-1.35.6l-9.45-1.75 3.1 2.7 2.3 2.25q.65.7.2 1.5-1.85 3-6.45 11.5-.4.75-1.4.35-5.8-2.45-9.7-3.35l1.75 8.15q.15.75-.4 1.35-9.6 10.5-32.05 27.95-22.3 17.35-48.7 34.9-63.55 42.25-93.9 49.7l-7-.75q29.65-5.6 96.45-49.5 27.1-17.75 50.6-35.75 23.2-17.75 32.95-28.05l-1.55-8.9q-.3-1.2.9-.95 4.35.7 10.6 3.05l2.8-5.25 2.9-5.15q-2.85-3.2-6.5-6.5-.75-.65-.55-1.05t1.05-.25l11.85 1.55q2.9-3.45 6.8-9.35-5.25-1.35-10.95-3.45-.8-.25-.8-.75t.9-.75l8.3-2.85 7.95-3.05q.6-5.6.45-11.25l-10.3-.45-11.3-.75q-.75-.05-.9-.45-.15-.35.35-.9l8.25-9.6 7.2-8.95q-1.8-1.95-5.15-4.05L375.7 90.2q-1.6 1.15-1.3-.75l2-18.9-9.75.3-16.8 22.65q-1 1.35-1.55 1-.55-.4.45-1.75"/><path fill="#0d131a" d="M357.7 116.8q-33.2 24.65-98.65 75.2-48.15 37.2-89.45 69.55l-2-1.1q32.2-25.9 89.4-69.8 61.3-47.05 99.35-74.75.5-.35-.2-1.6-.7-1.3-1.15-1.05-22.25 15.7-90.85 67.85-70.2 53.3-100.15 77.4l-1.9-1.15q31.5-25.65 99.1-76.8 66.7-50.45 93.6-69.1 1.1-.7 2.5 1.95t.4 3.4"/><path fill="#0d131a" d="M295.4 145.75q-.45 6.95-1.25 11.65l-2.5 1.9q.9-4.7 1.8-12.45.8-7.45 1-12.3.05-1.55.7-1.55.6 0 .65 1.55.05 4.8-.4 11.2m17.35-2.25q1.65-4.15 3.65-12.85 1.75-7.6 2.55-12.95.25-1.45.85-1.4.65.1.5 1.55-2.1 16.65-4.65 23.65zm15.2-5.85 15.5.95q8.95.2 14.6-.35 1.45-.15 1.5.45t-1.35.85l-15.95.95-16.25-1zm-2.1 34.85-20.8 1.35q-13.4.15-22.45-1.25l2-1.85 20.4 1.15 20.7-.7q1.65-.15 1.75.45.05.65-1.6.85"/><path fill="#e8b67d" d="M103 362.3q.95-2.5 8-4.3 6.75-1.65 15.45-1.8 9.25-.1 16 1.7 7.7 2.1 9.7 6.25 3.65 7.5 4.35 18.3.55 8.9-.9 18.45-1.5 9.75-12.3 15.1-10.35 5.15-20 2.35l-23.05-8.3q-2.35-7.9-1.25-24.5 1.1-15.85 4-23.25"/><path fill="#ffee7d" d="M121.95 408.85q3.5 3.05 3 6.55-.4 2.65-4.35 3.9-3.95 1.3-9.95.75-4.05-.3-7.4-2.4-3.6-2.25-3.45-4.8.25-3.3 4.2-5.3 4-2.05 9.75-1.85 4.7.15 8.2 3.15"/><path fill="#c39969" d="M152.15 364.05q4.2 6.65 4.45 20.85.25 14.35-3.85 23.1-2.35 5.1-10.5 8.55-9.2 3.8-19 1.9 1.6-1.35 1.5-4.4-.1-3.3-2.55-5.45l10.8-.45q6.3-1.15 10-3.95 5.15-3.9 8.1-17.5 2.85-13.2 1.05-22.65"/><path fill="#dccd6c" d="M123.5 417.4q-1.6 2.1-5.05 2.6-4.2.65-8.9-.15-5.2-.85-7.6-3-1.85-1.65-2.05-3.8-.15-1.7.75-3.05.3 4.2 9.75 5.3 9.5 1.1 14.05-2.55.55 2.7-.95 4.65"/><path fill="#0d131a" d="M122.25 410.5q-2.55-3.1-7.85-3.7-4.25-.5-8.65 1-4.85 1.7-4.95 4.45-.15 5.2 10.15 6.4 4.1.5 7.6-.1 3.65-.6 4.45-2.05 1.7-3-.75-6m3 7.25q-1.2 2.25-5.55 3.2l-9.05.3q-5.15-.7-8.35-2.9-3.6-2.45-3.5-6.1t4.9-5.9q4.75-2.25 10.95-1.6 6.8.8 9.85 5.1 2.8 4 .75 7.9"/><path fill="#0d131a" d="M100.15 387.3q-.5 13.75 1.4 21.9l-2.2 2.5q-2.3-8.95-1.7-23.65.6-16.05 4.45-25.15.6-1.4 1.15-1.15.5.2.1 1.65-2.75 9.7-3.2 23.9m57.6-3.65q.8 12.7-2.5 22.05-3 8.6-13.95 12.45-10.1 3.55-19.8 1.05l1.8-1.7q7.2 1.9 16.45-1.3 10.4-3.65 13.1-11.3 3.1-8.85 2.6-21.4-.5-11.65-3.6-18.75-.55-1.2 0-1.5.55-.25 1.15.9 3.95 7.35 4.75 19.5"/></svg>