<svg xmlns="http://www.w3.org/2000/svg" width="182" height="191" viewBox="-0.3 -0.2 182.15 190.65"><path fill="#d3ebf3" d="M168.2 168.45q2.75 1.35 5.05 3.35l4.25 3.9q4.35 3.75-2.6 4.9-5.05.85-10.9.2-2.6-.25-7.15 1.7l-8.2 3.45q-3.65 1.15-9.4.75l-7.15-.75q-1.5-.15-8.2 1.5l-7.35 1.5q-1.05-.1-4.1-3.7L107 178.5q-2.1-2.55-9.2-3.35l-16.15-1.75q-9.8-1.6-20.7-8.1-11.3-6.65-19.55-16.1-7.9-9.1-15.7-23.95-7.35-14-7.55-19.1-.1-3.95 4.1-6.6l6.85-3.4q2.25-1.2 2.55-4.7.25-3.4-1.45-7.55l7.05-.05q-.15 3.6 2.3 7.05 2.25 3.15 4.9 4.1 1.65.6 8.1 1.4 6.25 1.1 8.8 3.5 1.25 1.2 5.8 10.4 5.5 11 14.75 23.1 11.2 14.6 24.05 20.1 9.2 3.95 35 8.25 20.25 3.35 27.25 6.7"/><path fill="#e85377" d="M179.55 177.45q1 3.4-5.55 3.85l-10-.5q-2.6-.25-7.15 1.7l-8.2 3.45q-3.65 1.15-9.4.75l-7.15-.75q-1.5-.15-8.2 1.5l-7.35 1.5q-1.05-.1-4.1-3.7L107 178.5q-2.1-2.55-9.2-3.35l-16.15-1.75q-4.15-.7-8.7-2.35l2.3-3.1q.8-.8 2.25-.9 1.3-.05 2.25.45l1.7 1.25q1 .8 1.95 1.1 2 .7 4.3-.3 2.2-1 2-2.3-.1-.45-1.8-1.6l-1.8-1.55q-.7-.95.05-1.7.45-.7 2.5-1.1l3.7-.65q1.3-.2 2.15-1.1.75-.8.75-1.65.1-2.3-1.5-3.45-1.6-1.1-3.95-.5t-3.1-1.6q-.7-2.05.4-3.1 1-.45 1.6-.75 1.1-.55.85-1.65-.2-.9-.05-2.15l.25-2.3q8.9 8.8 20.85 12.85 8.3 2.85 30.35 6.5 20 3.35 28.3 7.6 3.05 1.6 5.75 3.9z"/><path fill="#c94768" d="m169.9 181.3-5.9-.5q-2-.2-4.7.75-1.25.4-5.15 2.15-.4-5.7-5.4-10.9l-2.15-2.35q-.35-.7 1.5-.6 4 .2 10.6 3.75 6.35 3.4 11.2 7.7"/><path fill="#e85377" d="m79.45 168-2.75.15q-1.5.8-2.9 3l-.9-.45q1.45-2.6 3.25-3.55 1.85-.95 3.6.05l1.75 1.25q1.05.75 2.05 1.1l2.85.15q1.45-.3 2.35-1.05.65-.55.45-1.3-.2-.85-1.6-1.65t-1.9-1.7q-.5-.95.05-1.75.45-.6 1.95-1l3-.55q2.35-.35 3.2-.9.85-.5.95-1.8.25-1.95-1.25-3.1-1.5-1.2-3.75-.6-2.45.65-3.4-1.05-.75-1.25-.3-2.75.45-1.55 1.75-1.9 1.6-.4 1.45-1.7-.2-1.55-.05-3.2l.2-1.3 1 .7q-.25 1.9.1 4.2.25 1.4-2.3 2-.85.2-1.15 1.25t.25 2q.3.55 1.15.75h1.4q2.65-.7 4.4.75 1.65 1.3 1.65 3.7.05 1.45-1.1 2.45-1.3 1.2-3.7 1.25-3.75.1-4.6 1.2-.3.55.15 1.3.45.8 1.35 1.3 1.65.95 1.9 2.15.3 1.15-.65 1.9-1 .85-2.65 1.2-1.8.4-3.2-.05l-2.05-1.15z"/><path fill="#b6ccd2" d="M37.25 83.85q-.15 3.1 1.7 6.1-2.3-1-3.65-1.3-2.3-.45-3.7.35-.3-2.6-1.4-5.1z"/><path fill="#0d131a" d="m177.15 176.1-2.5-2.3q-4.2-3.95-8.75-5.75-7.2-2.8-25.05-5.8l-19.85-3.5q-9.25-1.9-15.3-4.4-13.35-5.5-24.25-20.65-11.2-15.6-16.4-26.6L63 103.05q-1-1.75-2.05-2.75-1.8-1.7-5.5-2.7l-6.55-1.2-4.65-.9q-2.6-.95-4.9-4-2.55-3.45-2.65-7.15l-5.75.05q1.25 3.3 1.25 6.15 0 4.55-2.85 6.1l-2.5 1.15q-3.85 1.7-5.45 2.95-2.7 2.15-2.7 5.15v.25q.15 4.9 7.45 18.8 7.75 14.85 15.65 23.9 8 9.15 19 15.75 11 6.65 20.95 8.25l11.45 1.35 8.35.75q3.7.7 6.65 3.4 2.45 2.2 5.4 6.5 2.4 3.45 3 3.6l2.7-.3 3.55-1q6.8-1.6 9.3-1.75l7.5.55 8.8-.5 7.45-3.3q4.35-2.05 8.15-1.85 13.5.55 14.5-1.8l.05-.3q0-.85-1.45-2.1m-12.45-9.9q5.35 1.8 10.45 6.4l4.4 4.1q1.45 1.55 1.15 2.3-1 2.55-7.45 2.75l-9.3-.4q-4.4-.15-9.45 2.95-3.15 1.9-5.9 2.75-3.1 1-7.7.6l-6.85-.95-2.9.05q-3.85.35-8.5 1.9-5.25 1.8-6.85 1.6-.9-.15-2.75-2.5l-4.2-6q-2.3-3.45-5.65-4.7-2.45-.9-10.1-1.8l-6.1-.7-6.8-.9q-9.95-1.65-20.6-8.25-10.35-6.45-18.6-15.85-8.2-9.4-16.15-24.4-7.5-14.2-7.7-19.3-.15-3.5 3.15-5.9 1.4-1.05 6.1-3.1l2.45-1.15q2.1-1.15 2.25-4.85.15-3.8-2.05-6.9l.35-.6 8.4-.05.85.85q-1.2 2.3 1.25 6 2.25 3.45 4.7 4.35l4.45.85L56 96.4q4 .9 5.95 2.75 1.05 1 2.25 3.25l2.2 4.6q5.3 11.1 15.9 26.05 9.75 13.7 23.3 19.6 10.2 4.35 35.45 8.6 17.75 2.95 23.65 4.95"/><path fill="#ffe792" d="M52.8 14.05q0 4.95-4.75 8.5-4.6 3.45-11.9 4.3 0 2.9.6 4.9.45 1.55-3.95 1.55-4.6 0-3.95-.85 1.1-1.45.85-5.45-7.9-.55-13.15-4.1-5.35-3.65-5.35-8.85 0-5.65 6.1-9.7 6.1-4 14.7-4t14.7 4q6.1 4.05 6.1 9.7"/><path fill="#dbc77f" d="M52.8 14.05q0 4.95-4.75 8.5-4.6 3.45-11.9 4.3 0 2.9.6 4.9.25.75-.9 1.2l-2.75.35q-.2-2.45-.75-3.65-.8-1.7-2.6-1.95l-.05-.7q-6.1-.35-10.9-2.8-2.2-1.65-1.25-2.55 1-.9 4.7-.35 5.8.85 11.95-.65 8.8-2.2 13.5-8.75 1.35-1.9 3.15-1.15 1.85.7 1.95 3.2z"/><path fill="#fff4cc" d="M25.95 6.4q.5 1.25-.7 2.9t-3.4 2.75q-2.25 1.1-4.2.95-1.95-.1-2.5-1.35-.5-1.25.75-2.9Q17.1 7.1 19.3 6q2.25-1.1 4.2-.95 1.95.1 2.45 1.35"/><path fill="#0d131a" d="M53.7 13.95q0 5.2-4.8 8.9-4.85 3.7-12.75 4.55l-.2-1.05q7.2-.8 11.75-4.2 4.6-3.4 4.6-8.1 0-5.45-5.95-9.3T32 .9 17.65 4.75t-5.95 9.3q0 4.85 5.1 8.35 5.05 3.5 12.7 4.05v1.1q-8.3-.5-13.75-4.2-5.55-3.8-5.55-9.1 0-5.85 6.1-10Q22.35.15 31.2 0q9.15-.2 15.85 3.95 6.65 4.1 6.65 10"/><path fill="#0d131a" d="M35.9 24.7q.2-.95.55-.85.3.15.2.95-.25 3.3.85 7 .25.7-1 1.4-1.35.75-4.4.6-3.05-.1-3.65-.8-.35-.4 0-.9.45-.65.75-2.65.35-2.25 0-3.9-.2-.8.2-.85.4-.1.6.65.35 1.45.35 2.95 0 2.4-.85 4.1l3.2.4 3.4-.55.15-.35q-.5-1.6-.55-4-.05-2.1.2-3.2"/><path fill="#d3ebf3" d="M59.95 74.95q2 8.75-1 8.95l-5.7-.4q-3.35-.5-5.55-1.15-1-.3.6-2.1 1.5-1.65 4.1-3.5 6.85-4.75 7.55-1.8"/><path fill="#b6ccd2" d="M53 76.35q.8 4.4 7.4 6.35-.4 1.15-1.45 1.2l-5.7-.4q-3.35-.5-5.55-1.15-1.05-.3.8-2.25 1.7-1.9 4.5-3.75"/><path fill="#0d131a" d="M58.2 74.55q-2.5.35-6.4 3.35-3.7 2.8-3.9 3.95l5.45 1.1 5.6.4.7-.4q.5-.6.5-2.5 0-2-.75-5.35-.15-.7-1.2-.55m1 10.25-5.9-.6-5.75-1.3q-.85-.25-.75-1.1.2-1.7 4.55-4.9 4.4-3.3 7-3.45 1.85-.1 2.1 1.4l1 5.4q.2 2.1-.3 3.55-.3.95-1.95 1"/><path fill="#d3ebf3" d="M35.2 31.4q14.25 0 24.4 7.7 10.1 7.7 10.1 18.5 0 11.05-9.35 18.6-9.75 7.8-25.4 8.2-15.45.4-25-7.65Q1 69.2 1 57.9q0-10.85 10-18.65 10-7.85 24.2-7.85"/><path fill="#b6ccd2" d="M59.5 39.05q4.8 3.65 7.45 8.35 2.75 4.9 2.75 10.2 0 11.05-9.35 18.6-9.75 7.8-25.4 8.2-7.95.2-14.65-1.95-6.25-2.1-10.75-6.05 10.85 5.5 26 2.55Q51.15 75.9 57.5 66.1q4.85-7.35 4.9-15.45.05-6.65-2.9-11.6"/><path fill="#ed8599" d="M14.6 53.55q4.4 2.7 9.55 3.15 7.3.6 15.05-3.5-.6 6.3-2.25 9.05-2.9 4.85-10.2 4.75-5.5-.05-9.05-5.45-2.5-3.8-3.1-8"/><path fill="#922f00" d="M22.7 56.5q-3.45 2.25-4.4 5.9-1.55-2.1-2.6-4.85-.8-2.15-1.1-4 3.75 2.25 8.1 2.95"/><path fill="#dbc77f" d="M14.65 49.25q.85 1.1.75 2.55t-1.15 2.35q-1.05.95-2.4.85t-2.2-1.2q-.85-1.15-.75-2.6.15-1.4 1.2-2.35t2.35-.85q1.35.1 2.2 1.25M44.15 48q1.2.95 1.35 2.5t-.85 2.75-2.55 1.35q-1.55.1-2.75-.85-1.2-1-1.3-2.55-.15-1.55.85-2.75t2.55-1.35q1.55-.1 2.7.9"/><path fill="#e85377" d="M57.05 46.5q1-.65 2.8.85l2.6 2.35q.9.65 1.9-.6l1.6-2.35q2.15 1.8 3.15 5.85.85 3.45.4 5.45l-.95-.7-.95-.65q-.7-.35-1.95.9L64 59.55q-.4.55-2.65-1.1-2.15-1.55-2.65-2.4-.3-.6-3.15 2.35l-3.55 4q-.75.9-2.35-.85t-1.4-2.65q.25-.95 3.85-6.2 3.8-5.5 4.95-6.2m-54.2 6.25q.65-.15 1.45 1.05l2.15 2.65q1.2 1.4 1.1 1.7-1.05 3.9-1.7 3.5l-1.25-1.4q-1-1.2-1.45-1.3t-1.2.4l-.6.5.5-6.35z"/><path fill="#ffe792" d="M14.35 49q.8 1 .7 2.3T14 53.45q-1 .85-2.25.75T9.7 53.1q-.8-1.05-.7-2.35t1.05-2.15q1-.8 2.25-.7t2.05 1.1m29.25-1q1.1.85 1.2 2.2.15 1.4-.8 2.45-.9 1.05-2.3 1.15-1.45.1-2.5-.75-1.1-.85-1.25-2.25-.1-1.35.8-2.4.95-1.05 2.35-1.15 1.4-.15 2.5.75"/><path fill="#fff4cc" d="M12.3 49.45q.3.35.25.8l-.35.75q-.35.3-.8.25l-.75-.4q-.3-.35-.25-.8.05-.4.4-.7t.8-.25.7.35m28.05-.85q.4-.05.75.25l.4.7-.25.8-.75.35q-.4.05-.75-.25-.35-.25-.4-.7t.25-.8q.3-.3.75-.35"/><path fill="#0d131a" d="M26.75 66.65q6.85.05 9.7-4.35 1.7-2.7 2.3-8.5-7.3 3.7-14.25 3.25-5.05-.35-9.35-2.75.85 4.3 3.25 7.65 3.35 4.65 8.35 4.7m12.1-13.75.65.65q-.4 6.3-2.35 9.5-3 4.8-10.15 4.65-5.65-.15-9.35-5.6-2.6-3.9-3.3-8.3l.45-.55q4.2 2.5 9.5 2.95 7.4.6 14.55-3.3"/><path fill="#0d131a" d="M18.15 62.6q.05-2.45 1.8-4.35 1.55-1.75 3.3-1.95l.05.45q-1.35.2-2.95 2.15-1.7 2-1.75 3.75zM14.4 49.35q-.75-1.05-2-1.15-1.25-.05-2.15.8-.95.85-1.05 2.15-.1 1.35.65 2.35.75 1.05 2 1.15 1.2.1 2.1-.75.95-.9 1.05-2.2.1-1.35-.6-2.35m-4.65-.85q1.15-1 2.75-.85 1.45.1 2.4 1.35.95 1.2.85 2.8-.15 1.6-1.3 2.65t-2.65.9q-1.5-.1-2.5-1.3t-.85-2.85q.15-1.7 1.3-2.7m34.15-.35q-1.1-.9-2.5-.8t-2.3 1.2-.75 2.55q.1 1.45 1.15 2.35 1.1.9 2.5.8 1.4-.15 2.3-1.25.85-1.05.75-2.5t-1.15-2.35m-2.5-1.5q1.75-.15 3.05.95 1.35 1.15 1.5 2.9T45 53.55q-1.15 1.35-2.85 1.5-1.75.15-3.1-.95-1.35-1.15-1.5-2.9-.15-1.7 1-3.05 1.1-1.35 2.85-1.5"/><path fill="#e85377" d="M57 45.85q.75-.45 1.55 0l2.65 2.25 1.15.95.95.65 2.55-3.45.35.65-1.45 1.8q-1.1 1.45-1.4 1.5-.25.05-.95-.45l-1.25-1.1q-2.8-2.7-3.9-2-1.15.7-4.85 6.05-3.7 5.25-3.7 6.15 0 .85.7 1.9t1.65 1.5l.9-.05 2.4-2.9q2.6-3 3.9-3.6l.95.05q3.1 3.65 4.6 3.65l1.55-1.55q1.5-1.55 1.95-1.5.4.05 1.4.75l.9.85-.1.7q-1.65-1.85-2.25-1.85-.3 0-1.65 1.75t-1.7 1.75q-.75 0-2.95-2l-2.3-2q-.6 0-2.6 2.1l-3.7 4.35-1.5.05q-1.3-.8-2.1-2.05-.75-1.25-.55-2.2.5-2.2 4.05-7.1 3.35-4.75 4.75-5.6m-55.05 7.3.5-.55q.3-.3.6-.3.6-.05 2.7 2.75 2 2.7 1.95 3.2l-.5 2.2q-.55 1.7-1.05 1.7-.55 0-1.6-1.4-1.05-1.45-1.5-1.55-.6-.1-1.6.85l-.15-.45.6-.6q.6-.45 1.15-.35.7.15 1.8 1.6l1.1 1.2.8-1.6.55-1.7Q3.85 53.15 3 53l-.7.45-.55.45z"/><path fill="#c94768" d="m64.7 48.75 1.45-1.8q1.05.95 2.05 3 .95 2.45 1.25 4.65.3 1.85.1 3.2l-1.1-.85q-.85-.55-1.15-.6-.45-.05-1.95 1.5L63.8 59.4q-.9 0-2.5-1.45 1.2-4.05 1.1-8.25.7.6.95.5z"/><path fill="#c94768" d="m61.15 58.5.15-.55q1.6 1.45 2.5 1.45l1.55-1.55q1.5-1.55 1.95-1.5.3.05 1.15.6l1.1.85.05.15-.1.7q-1.65-1.85-2.25-1.85-.3 0-1.65 1.75t-1.7 1.75q-.65 0-2.75-1.8m4.7-12.25.35.65-.05.05-1.45 1.8-1.35 1.45q-.25.1-.95-.5l-.05-.05v-.6l.95.65z"/><path fill="#0d131a" d="M35.2 31.95q-13.9 0-23.8 7.6Q1.55 47.2 1.55 57.9q0 4.8 1.9 9.3 1.9 4.4 5.45 7.9 4.6 4.45 11.3 6.7 6.75 2.3 14.7 2.05 15.15-.4 24.7-7.7 9.55-7.35 9.55-18.55 0-10.6-9.95-18.15-9.95-7.5-24-7.5M10.4 39q10.4-7.95 24.8-7.95 14.55 0 25 7.8Q70.7 46.7 70.7 57.7q0 11.85-9.4 19.2-9.7 7.55-26.35 8.05-8.3.25-15.3-2.05-7.2-2.3-11.9-6.85Q4 72.45 2 67.85 0 63.2 0 58.1 0 46.95 10.4 39"/><path fill="#0d131a" d="M20.4 82.35q.6-2.45 10.85-2.8 10.7-.35 15.25 3.2l-.75.45q-2.9-2.7-13.65-2.4-10.4.25-10.85 1.9z"/><path fill="#d3ebf3" d="m4.15 63.9 7.15 11.95q-9.7 1.5-10.2-2.95-.25-2.35 3.05-9"/><path fill="#b6ccd2" d="M61.75 61.9q3.5 2.55 5.4 4.7 2.3 2.7 1.15 3.85-2.85 2.8-8.55 3.7z"/><path fill="#d3ebf3" d="m61.75 61.9 3.45 2.85 2.85 2.95q-1.6-.35-3.6-1.5T61.6 64q-1.35-1.7-1.1-2.4.2-.75 1.25.3"/><path fill="#b6ccd2" d="M1.3 73.75q-.1-.55 3.5-.35l5.7.7q1.8.35 1.95 1.05l-.15.65q-4.7.7-7.65.1-2.7-.55-3.35-2.15"/><path fill="#0d131a" d="M3.5 64.35q.8-1.25.9-.8.15.45-.3 1.5L2.4 69.2q-1.2 3.65-.25 4.95.75 1.05 3.7 1.4 2.5.25 5.45-.1 1.5-.15 1.35.35-.15.45-1.3.6Q2.85 77.55.95 75-.3 73.25.7 70.05q.75-2.3 2.8-5.7m57.35-3.15q.05-.45 1.2.25 2 1.15 4.3 3.3 3.1 2.85 3.25 4.55.1.9-.5 1.55-1.25 1.25-4.65 2.55-2.95 1.15-4.65 1.3l-1.65-.1q-.2-.3 1.55-.75 2.3-.6 4.4-1.5 2.65-1.15 3.8-2.3.3-.25.2-.65-.05-.95-2.85-3.75l-3.55-3.3q-.9-.7-.85-1.15"/></svg>