<svg xmlns="http://www.w3.org/2000/svg" width="266" height="295" viewBox="-0.15 -1.55 266.4 295"><path fill="#0d131a" d="M202.85 219.8q.9 1.8 1 4 .1 2.4-.85 3.55-1.15 1.4-2.45 1.15l-7.15-.7-10.35.7-1.2.1q-.2-.2-.05-1.05.75-4.6 6.2-7.5 5.3-2.8 12.6-2.8 1.05 0 2.25 2.55"/><path fill="#005e96" d="M200.65 218.7q.8 0 1.5 1.45.75 1.6.9 3.6.1 2.15-.65 3.1-.6.65-1.55.45-11.55-2.35-17.1-.2 0-3.65 6.7-6.25 5.5-2.15 10.2-2.15"/><path fill="#0d131a" d="M.05 211.7q.65-5.5 6.75-9.95 5.95-4.3 12.3-4.35 1.2 0 2.85 3.2.95 2.05 1.1 4.45.1 2.55-.9 3.8l-1.05 1.55q-.9 1.15-1.75.95l-8.5-.5q-5 .4-8.7 2.05-1.35.6-1.8.4-.5-.2-.3-1.6"/><path fill="#005e96" d="M18.9 198.8q1.25 0 2.3 2.15.9 1.85 1 4 .15 2.35-.7 3.4-.55.8-1.8.55-3.6-.8-8.95.15-4.85.9-9.15 2.85.75-4.85 7.15-9.15 5.8-3.95 10.15-3.95"/><path fill="#004c7e" d="M7.2 209.9q6.65-4.5 14.9-5.95.45 3.15-.6 4.4-.55.8-1.8.55-5.05-1.15-12.5 1"/><path fill="#0d131a" d="m173.9 171.05.6-.9q.65-.8 1.15-.2.8 1-1.25 9.75l-2.1-.45q-2.3-.95-3.25-3.15l-.1-.25z"/><path fill="#004c7e" d="M174.5 171.9q-.1 1.5-1.4 6.45-2.05 0-3.15-2.35z"/><path fill="#0d131a" d="M226.1 172.1q.75-1.45 1.4-1.25.75.25 1.1 2.45.45 3.05.3 12.15l-7-3.95-.65-1.5z"/><path fill="#005e96" d="m226.95 173.05.45 10.6-4.45-2.45z"/><path fill="#004c7e" d="M183.8 226.6q8.05-6.2 18.55-6 .65 1.6.7 3.45.05 1.95-.65 2.8-.6.65-1.55.45-11.55-2.35-17.1-.2zm43.15-53.55.45 10.6-1.55-.9q.2-2.45 0-7.4z"/><path fill="#0d131a" d="M162.7 172.55q6.25.75 4.15-.85l3.8 2.75q4.1 3.1 4.6 4.05.95 1.8.55 7.1-.45 5.8-2.4 10.5-.2.5-1.45 9.3-1.1 8.25-2.2 9.3-1.85 1.9-5.6 2.35-4.2.55-7.95-1.25-1.5-.7-4.6-1.85-4.85-1.85-6.7-3-3.1-1.9-3.1-4.15 0-1.7 2.8-5.3 2.05-2.7 7.15-8.2 5.2-5.6 5.7-6.75.8-1.85-.25-4.45t-3.65-5.2q-1.85-1.85.05-3.95 1.2-1.4 9.1-.4"/><path fill="#cacfd2" d="M172.2 195.1q-.95 1.95-2.1 9.65-1.15 7.2-1.85 8.15-1.35 1.75-4.45 2.45-3.7.9-7.05-.7-2.15-1-4.7-1.9-4.3-1.65-6.05-2.65-2.95-1.65-2.95-3.3 0-1.45 3.3-5.5 1.85-2.25 6.35-7.15 5.4-5.8 5.95-7.1.9-2.25-.2-5.2-1.15-3-4-5.85-.95-.95.1-2.2 1.55-1.8 5.05-2.35 3.9-.65 6.5 1.3l4.7 4.05q1.9 1.8 2.75 2 .4.65.4 4.05 0 3.5-.4 6.75-.5 3.8-1.35 5.5"/><path fill="#0d131a" d="M158.6 220.55q-4.15 1.75-5.65 1.1l-.15-.1-.05-.15q-.5-1.55 0-3.65.5-2.05 1.95-4.25 1.4-2.5 2.15-3.4 1.25-1.55 3.4-1.7 1.3-.05 2.6.9 1.25 1 1.7 2.35.55 1.7.05 3.9-.5 2.1-1.55 2.8-1.9 1.15-4.45 2.2"/><path fill="#004c7e" d="M160.2 209.9q2.1-.2 2.75 2 .55 1.5.2 3.4-.3 1.8-1.1 2.3-2.3 1.5-4.65 2.45-2.75 1.2-3.9.9l-.2-1.2q0-2.65 2.1-5.8 1.15-1.75 2.45-2.85 1.35-1.1 2.35-1.2"/><path fill="#0d131a" d="M146.9 208.5q-1 2.6-2.15 2.4-2.85-.45-10.8.05l-7.35.6q-.75.1-.9-.25-.1-.3.45-1.2 1.55-2.75 5.35-5.6 3.85-2.9 7.1-3.75 3.4-.95 7.2 1.7 1.3.9 1.55 2.75.25 1.65-.45 3.3"/><path fill="#005e96" d="m144.75 209.75-6.75-.45-7.55.4-1.85.15q1.4-2.45 4.05-4.4 2.7-1.95 5.85-2.75 4.5-1.15 6.85.4 1.1.75 1.25 2.4.05 1.35-.45 2.7-.65 1.65-1.4 1.55"/><path fill="#004c7e" d="M145.35 203.1q1.1.75 1.25 2.4.05 1.35-.45 2.7-.65 1.65-1.4 1.55l-6.1-.45-6.6.3q4.3-3.85 10.75-7.35 1.55.15 2.55.85"/><path fill="#0d131a" d="M263.45 24.65q2.3-.95 2.55-.35t-1.35 2.25q-11.05 11.7-19 31.55-7.45 18.75-7.45 32.2-10.25 4.1-20.05 11.5-11.8 8.9-14.85 17.3l-2.4.95h-2.05l-.75-.55q-1.05-8.85 2.7-22.25 3.95-14.15 11.6-26.9 9.3-15.55 23.9-28.25 13.5-11.7 27.15-17.45"/><path fill="#005e96" d="M244.5 54.85q-8.75 18.65-8.9 33.9-10 4.4-18.3 10.3-13.4 9.5-17.25 19.7l-.15-2.65q0-8.55 4.15-20.5 4.15-12.1 11.2-23.85 9.1-15.2 21.05-26.6 11.85-11.3 25.2-17.55-9.85 11.95-17 27.25"/><path fill="#004c7e" d="M235.6 88.75q-8.75 3.85-16.45 9-12.2 8.2-17.25 17.05 14.1-38.75 43.25-61.4-9.4 19.55-9.55 35.35"/><path fill="#0d131a" d="M22.1 192.15q6.3-6.55 10.9-8.95 6.05-3.1 21.75-4.9l18.7-2q1.75-.35 2.75-1.8.8-1.15 1.65-4.05 1.6-4.95 2.7-6.8 1.5-2.6 4.6-2.2 5.5.75 13.65 10 7.6 8.55 9 13.85.45 1.55-.45 2.9-2.25 3.25-5.75 4.85-4.25 2-11.1 2l-9.65.4-7.35.65q-10.3 2.25-14.9 5.25-3.75 2.4-4.9 6.2-1 3.3-2.05 5-1.3 2.1-3.35 3.1-2 1-4.65 1.15-2.75.15-4.85-.65-3.1-1.1-8.05-1.5l-4.1-.65-3.7-.85q-2.05-.45-4-1.75-2.15-1.45-3.2-3.35t-1.3-3.1q-.35-1.5.2-2.85 1.3-3.55 7.45-9.95"/><path fill="#eef3f6" d="M35.2 184.2q2.8-1.6 11.35-2.85l15.85-1.8 11.2-1.2q2.25-.3 3.6-2.55.8-1.4 1.9-5 1.3-4.35 2.55-6.5 1.1-1.85 3.35-1.55 5.05.7 12.95 9.6 7.3 8.3 8.65 13.25.25 1.05-.35 1.85-1.5 2.2-8.7 3.65L83.8 193l-10.5 1.4q-10.85 2.4-15.6 5.4-3.95 2.45-5.2 6.55-1.6 5.45-5.5 7.3-3.7 1.85-7.75.35-2.55-.95-9.2-1.35l-6.85-.75q-1.55-.35-3-1.55t-2.35-2.9q-1.7-3.1-.75-5.65 1-2.7 8.2-9.45 6.8-6.45 9.9-8.15"/><path fill="#cacfd2" d="M51.2 194.1q-.25-2.45 4.8-4.2l7.95-2.3q6.3-2.5 5.7-4.55-2.1-2.4-2.65-3.95l6.6-.75q2.25-.3 3.6-2.55.8-1.4 1.9-5 1.3-4.35 2.55-6.5 1.1-1.85 3.35-1.55 5.05.7 12.95 9.6 7.3 8.3 8.65 13.25.25 1.05-.35 1.85-1.5 2.2-8.7 3.65L83.8 193l-10.5 1.4q-10.85 2.4-15.6 5.4-3.95 2.45-5.2 6.55-1.6 5.45-5.5 7.3l-2.2.75q.55-3.25 3.8-11.25 2.85-6.95 2.6-9.05"/><path fill="#0d131a" d="M170.65 113.15q1.7-.3 9.6-3.25 8.2-2.7 13.05-2.05 15.3 2.1 23.6 21.05 8.8 20.15 4.25 48.7l3 2.05 4.6 2.4q2.5 1.9 2.8 5.6.55 6.4 0 12.35l-1.25 10.4q-.9 8.65-.9 10.6.05 8.2-1.85 12.6-1.8 4.15-4.95 4.15-1.75 0-8-2.05l-5.5-2.05q-3.25-1.2-4.65-1.2-3.45 0-6.2-2.85-2.6-2.75-2.6-5.9 0-.85 1.1-2.3l3.2-4q8.55-10.8 11.5-17.1 2.35-5 1.95-9.4-8.1-2-11.85-4.35-3.8-2.3-5.45-6.25l-4.45-10.75q-3.9-8.8-6.1-10.55-17.95 25.15-38.5 32.6-17.85 6.5-31.9-1.6-13.05-7.55-15.4-25.7-2.1-16.5 5.05-33.35 5.4-12.7 13.35-18.85 7.95-6.2 15.95-3.9l13.6 3.4q14.95 3 22.95 1.55"/><path fill="#eef3f6" d="M212.55 125.85q10.3 19.45 7.35 52v.2l.1.15 1.55 1.45 2 1.15q2.75 1.4 3.95 2.6 1.9 2.05 2.1 5.35.3 5.35-.1 11.45l-.95 10.05q-.8 6.95-.8 10.15 0 5.8-1.75 10.55t-3.9 4.75l-3.2-.6-4.4-1.4-5.45-1.75-4.6-.8q-2.85 0-4.7-2.15-1.7-2.05-1.7-4.75 0-.95 4.05-5.95 5.95-7.45 8.65-12.25 4.55-8 4.45-14.6 3.1.2 1.45-.85-.45-.25-2.6-.95l-2.85-1q-5.05-1.75-7.8-3.85-3.15-2.35-5.4-6.7-1.65-3.1-3.75-8.3-1.95-4.75-3.65-7.3-2.35-3.55-6.55-6.75-1.85-1.4-2.65-1.3t.85 1.65l2.25 1.95-4.3 4.55q-15.05 16.35-26.4 23.1-20.75 12.35-38.2 2.2-12.6-7.25-14.7-24.45-1.9-15.55 5.1-32 5.15-12.2 12.75-18.15 7.55-6 15-3.85l14.6 3.75q15.4 3.1 23.55 1.2l5.15-1.55 7.15-2.1q4.25-1.05 7.7-1.05 5.3 0 10.6 3.95 5.85 4.25 10.05 12.2"/><path fill="#cacfd2" d="m220 178.2 1.55 1.45 2 1.15q2.75 1.4 3.95 2.6 1.9 2.05 2.1 5.35.3 5.35-.1 11.45l-.95 10.05q-.8 6.95-.8 10.15 0 5.8-1.75 10.55t-3.9 4.75l-3.2-.6-4.4-1.4-5.45-1.75-4.6-.8-1.3-.1q11.75-6.3 18.3-23.95 2.35-6.4 3.4-12.65.9-5.5.4-7.5-.6-2.45-5.3-3.75-5-1.35-5.95-3.5-.55-1.2.15-4.95l1.8-8.8q2.9-14.65 1.55-27.05 4.45 16.65 2.4 38.95v.2zm-36.25-31q.95-.2.85.35l-.65 1.7q-1.4 3.55.3 6.7l-.2-.2q-1.85-1.4-2.65-1.3t.85 1.65l2.25 1.95-4.3 4.55q-15.05 16.35-26.4 23.1-20.75 12.35-38.2 2.2-12.6-7.25-14.7-24.45-1.9-15.55 5.1-32 5.15-12.2 12.75-18.15 7.55-6 15-3.85l4.2 1.25 9.35 2.3q1.7 5.8 8.95 9.05 6.1 2.7 13.3 2.7l-5.25 3.95q-3.45 2.1-6.9 1.9l3.85 9.05q1.7 5.55-.35 10.7-.6-2.9-3.45-4.55-2.75-1.55-6.5-1.55 4.85 7.1 4.8 12.9l-5.25-.8q-2.45-.1-4.65 1l4.9 2.95q.9.6 2.3 1.05 8.55 2.15 14.35-.4 3.8-1.6 7.25-5.95 5.7-7.2 9.1-7.8"/><path fill="#0d131a" d="M29.55 214.05q-2.05 1.05-7.55 6.1-5.5 4.95-8 7.95-.8 1-1.45.95-.7-.1-1.15-1.45-1.95-6.15-.2-12.3 1.7-6 6.55-10.65 1.35-1.3 3.7-1.5l3.25.4q3.75 1.55 5.35 5.55 1.5 3.85-.5 4.95"/><path fill="#005e96" d="M27.5 207.9q1.35 1.75 1.45 3.15v.1q0 .75-.5 1-2.1 1.15-7.8 6.75-5.55 5.45-7.8 8.45-.75-2.15-.75-4.4-.1-6 2.85-11.2 1.85-3.25 4.45-5.65 2.1-1.9 4.8-.8 1.85.75 3.3 2.6"/><path fill="#0d131a" d="M44.9 209.35q2.35 2.8 1.2 5.55-1.6 3.9-4.65 14-.5 1.35-.95 1.4-.4.1-1.25-.9-3.6-4.45-5.4-9.6-1.65-4.65-1.05-7.3.45-2.1 2.55-3.8 1.95-1.65 3.8-1.85 3.35-.35 5.75 2.5"/><path fill="#005e96" d="m41.2 224.5-.95 3.95q-2.2-2.9-4.05-7.55-1.8-4.55-1.8-7.1 0-.7.15-1.15 1.55-3.8 4.7-4.1 1.45-.15 2.8.5 1.4.65 2.2 1.85.65 1 .65 1.95l-.45 1.55q-1.75 3.2-3.25 10.1"/><path fill="#004c7e" d="M28.95 211.05v.1q0 .75-.5 1-1.6.85-5.65 4.65l-7 7.05q3.5-10.55 10.6-17.15 2.4 2.2 2.55 4.35m13.35-1.9q1.25.7 1.95 1.75.65 1 .65 1.95l-.45 1.55q-1.75 3.2-3.25 10.1l-.95 3.95-.1-.1q-2.25-11.75 2.15-19.2"/><path fill="#0d131a" d="M204.2 222.6q3.15.35 5.25 2.7 1.3 1.45 1.9 4.05.55 2.45 0 3.6-.35.7-1.65.8-4.05.3-11.7 3.05l-6.8 2.7-1.35.2q-.35-.2-.25-1.15 1.3-10.6 8.5-14.6 3.05-1.7 6.1-1.35"/><path fill="#005e96" d="M209.6 232.2q-3.7-.2-9 1.6-2.9 1-7.5 3.15l-1.5.65q1.25-10 10-13.05 4.2-1 6.7 1.8 1.25 1.4 1.85 3.1.55 1.6.2 2.35-.2.45-.75.4"/><path fill="#0d131a" d="M217.15 227.4q1.95-1.35 4.4-1.25 2.4.1 3.45 1.45 3 3.85 2.05 9.4-.95 5.6-5.35 9l-.95.5-.45-.8q-.95-2.7-3.75-7.7l-2.65-4.4q-.6-.95.5-3.05 1.1-2.05 2.75-3.15"/><path fill="#005e96" d="m216.3 234.5-1.1-1.55-.05-.35q0-.7.8-1.75.85-1.15 2.15-2.05 1.15-.8 2.35-1.05 1.85-.45 2.9.95.8.95 1.35 2.7.7 2.05.7 4.15l-.15 1.8q-.6 3.9-3.95 6.5-.9-2.7-2.45-5.45z"/><path fill="#004c7e" d="M208.5 226.6q1.15 1.35 1.7 3 .5 1.5.15 2.2-.2.45-.75.4-3.7-.2-9 1.6-2.9 1-7.5 3.15l-1.5.65q2.85-4.3 7.35-7.2 4.5-2.95 9.55-3.8m14.85 2.1q.8.95 1.35 2.7.7 2.05.7 4.15l-.15 1.8q-.6 3.9-3.95 6.5l-.7-1.9q.45-5.05-.35-14.15 2-.55 3.1.9"/><path fill="#0d131a" d="M161.6 214.5q-1.3 4.35-4.85 12.75l-5.25-6.6.35-3.2q1.1-.8 3.8-2.1l4.55-2.25q1.6-.9 1.8-.7t-.4 2.1"/><path fill="#004c7e" d="M160.8 214.15q-1.8 3.45-5.15 11.95-.4-.55-1.7-4.05l-1.5-3.75q1-.75 4.25-2.25z"/><path fill="#0d131a" d="M83.85 258.35q7.05-3.55 14.75-2.8.55.05.5 1.05-.05 1.4.3 2.1 1 2.05 1.15 4.6.1 2.7-.95 4.05-1.75 2.15-2.9 1.9-12.1-2.55-19.5-.85-1.05.2-1.3 0-.2-.15-.1-1 .85-5.45 8.05-9.05"/><path fill="#005e96" d="M96.6 257.1q1.15 0 2.1 1.95.9 1.9 1 4.2.15 2.5-.75 3.6-.55.8-1.8.55-4.05-.9-8.25-1.25-7.35-.6-11.45 1 .8-4.45 8-7.5 5.95-2.55 11.15-2.55"/><path fill="#004c7e" d="M81.15 266.25q3.75-1.65 9-2.55l9.5-1.05q.35 2.95-.7 4.2-.55.8-1.8.55l-6.35-1.1q-5.6-.65-9.65-.05"/><path fill="#eef3f6" d="M135.4 180.9q-1.55-3.75 2.35-8.35 3.45-4 9.25-6.85 5.75-2.8 9.3-2.4 4 .5 2.5 5.05l-3.2 9.7q-.2 1 .65 2.35l3.1 9.2q1.9 6.3.85 9.05-3.05 7.8-4.45 14.7-1.9 9.65.95 12.1 0 1.85-5.55 8.65l-8.55 10.55q-3 4.15-4.45 8.45-1.4 4.3-2.95 13.75-1.3 8.35-5.8 11.4-2.85 1.95-8.1 1.95-2.95 0-6-1.25l-7.1-2.8-9.05-2q-4.4-1.2-5.55-4.5-1.8-5.2.1-8.95 1.95-3.7 6.85-4.5 4.25-.65 11.65-6.85 3.9-3.25 10.1-9.45 2.75-2.75 8.2-16.45 5.65-14.95 7.45-18.85 2.35-5.1 1.65-10.45-.6-4.7-4.2-13.25"/><path fill="#cacfd2" d="m156.25 180.4 3.1 9.2q1.9 6.3.85 9.05-3.05 7.8-4.45 14.7-1.9 9.65.95 12.1 0 1.85-5.55 8.65l-8.55 10.55q-3 4.15-4.45 8.45-1.4 4.3-2.95 13.75-1.3 8.35-5.8 11.4-2.85 1.95-8.1 1.95-2.7 0-5.2-.95l-5.4-2.25q18.65-5.15 19.4-20.3.45-7.75 7.45-19.75 8.45-14.35 9.9-19.05 1.8-4.95-.65-9.95-2.5-5.15-7.7-6.45 1.2-4.15.25-9-.85-4.3-3.95-11.6-1.55-3.75 2.35-8.35 3.45-4 9.25-6.85 5.75-2.8 9.3-2.4 4 .5 2.5 5.05l-3.2 9.7q-.2 1 .65 2.35"/><path fill="#0d131a" d="M160.8 166.25q.45.3-.5 1.8-1.75 3-2.8 6.55-1.15 3.85-.6 5.6l1.3 3.9 2.8 7.35q1.35 4 .45 6.25-3.3 8.4-4.8 15.55-1.7 8.35-.05 11.05l.8 1.25q.3.6.05 1.25-.9 2.1-7.2 10.1l-7.05 8.8q-2.8 3.85-4.2 8.8-1.05 3.8-2.7 14.1-1 6.25-4.7 9.55-3.55 3.15-9.2 3.15-4 0-8.55-1.95-3.2-1.4-5.7-2.15-1.7-.5-5.35-1.25-4.2-.75-6.45-1.8-3.2-1.55-4.2-4.35-.95-2.75-.75-5.5.2-2.65 1.4-4.65 1.05-1.8 3-3.05 2-1.35 4.3-1.7 4-.6 11.05-6.4l9.8-8.9q1.9-1.7 5.95-10.65 3.15-7 5.2-12.65 2.1-5.95 5.15-12.6 2.1-4.55.65-12.7-1.15-6.65-3.05-9.75-2.5-4.25 1.15-.65 2.65 2.65 3.75 10.6 1.15 8.55-1.25 13.65-1.35 3.05-4.4 11l-5.9 14.8q-3.3 7.55-5.45 9.7l-.2.25q-6.3 6.3-10.3 9.6-7.3 6-11.6 6.65-4.3.7-6.15 3.75-2.15 3.65-.3 8.8.8 2.35 3.25 3.45 1.45.7 5.45 1.45 3.25.55 5.5 1.25 2.4.75 5.85 2.2l3.3 1.3 3.75.5q4.8 0 7.35-1.6 4.6-2.85 5.95-11.2 1.5-9.5 2.95-13.85 1.5-4.4 4.55-8.6l7.35-9.3q6.45-8.15 6.6-9.35-1.7-1.75-1.7-5.75 0-5 2.35-13.05 1.4-4.65 2.9-8.45.35-.85.35-2.25 0-2.15-1-5.7l-1.95-5.9q-1.45-3.6-1.55-5.5-.3-5.9 3.35-11 1.55-2.1 2-1.8"/><path fill="#0d131a" d="M106.65 263.15q2.5 1.85 3.9 4.95 1.45 3.1.85 5.45-.65 2.7-3.75 3.1-3.8.55-9.55 2-6.2 1.6-9.45 3l-2.95 1.15-1.3.2q-.25-.1-.15-1.05.75-6.9 6.15-13.05 5.15-5.8 10.8-7.15 2.7-.6 5.45 1.4"/><path fill="#005e96" d="M108.15 270.55q.65 2.75-.1 4-.3.6-.95.45-3.2-.5-9.65 1.65-3.6 1.15-9.75 3.85l-1.7.75q.85-6.75 6.6-12 4.1-3.7 8.55-5.25 2.65-.9 4.7 1.7 1.65 1.95 2.3 4.85"/><path fill="#0d131a" d="m114.15 292.85-.95.6q-.25 0-.55-.6-3.35-7.6-.6-15.85 2.65-7.95 8.65-10 2.15-.75 4.85.55t3.8 3.65q.95 2.1.65 4.95-.25 2.8-1.45 3.9l-5.7 4.5q-4.05 3.15-8.7 8.3"/><path fill="#005e96" d="M112.3 285q0-3.55 1.55-7.25 1.35-3.2 3.6-5.75 2.05-2.3 3.8-2.9 2.3-.8 4.05.5 1.1.85 1.85 2.45.85 1.85.85 3.8 0 2.25-1.1 2.9-2.7 1.65-7.1 5.8-4.05 3.9-6.2 6.7-1.3-3.1-1.3-6.25"/><path fill="#004c7e" d="M89.6 279.7q4.55-4.3 8.3-6.95 4.7-3.35 9.25-5 .95 1.9 1.2 3.9.25 1.95-.3 2.9-.3.6-.95.45-4.75-.75-17.5 4.7m30.2 4.85q-4.05 3.9-6.2 6.7l-.15-.35q2.8-14.3 13.25-19.7l.45.85q.85 1.85.85 3.8 0 2.25-1.1 2.9-2.7 1.65-7.1 5.8"/><path fill="#0d131a" d="M167.45 111.55q2.65 0 .6 1.9-2.25 2.05-4.65 3.05-2.95 1.2-7.1 1.3 2.25 1.1 6.25 1.35l6.35-.35 2.3-.1q-.05.45-2.3 2.45-2.45 2.15-7 3.25-5.15 1.25-11.25.6 3.05 2.85 4.5 6.05 1.8 3.75 2.7 10.3l.45 3.9q-.15.7-2-1.65-1.55-1.95-3.1-3.1-1.7-1.3-4.35-2.4 6.4 12.3.4 25.85-1.55 3.4-2.35 4.2-.95.85-1.2-1.5-.6-6.2-4.3-11.45 1.05 7.45-1 13.95-2 6.35-7.45 13.2-1.5 1.85-2.1 1.8t-.6-2q0-4.95-.8-8.45-2.05 3.55-3.8 11.45-1.95 8.9-1.2 14.75.1.9-.25.9-.4 0-1.25-1-3.2-3.6-3.85-9.5-3.6 5.8-3.85 12.85-.25 7.2 3.15 13.05l1.7 3.15q-.1.65-3.3-.75-4.9-2.1-7.75-6.55l2 4.35 2.8 4.5q1.65 2.45 1.45 2.95-.15.45-2.1-.3-11.8-4.7-20.15-15.7-8.55-11.2-11.55-26.5-.5 2.15.2 6.8.35 2.3-.15 2.15-.4-.1-2.15-2.35-5.4-7.05-7.5-13.05-2.25-6.6-2.7-17.7-1.3 1.35-2.95 5.7-1.5 3.95-2.45 7.95-.65 2.75-1.15 2.9-.55.1-1.6-2.35-2.95-6.9-3-13.2 0-7.4 3.95-15.1-3.25 2.3-4.65 4.7-1.55 2.65-1.85.1-.75-5.2.2-9.35.95-4.2 4.05-8.9-5.15 3.25-9.45 10.05-3.25 5.1-4.15 4.75-.8-.3-.25-5.7.8-7.8 3.15-12.6 2.45-5 8.1-10-3.2 1-8.25 4.65-2.15 1.6-2.65 1.2-.45-.4.3-2.9 2.6-8.4 6.35-13.5 4.1-5.55 11.3-9.55l-6.85-.25q-4.3-.1-4.4-.9-.1-.75 4.05-2.3 4.95-1.8 13.45-8.05 3.1-2.4 8.6-4.75 7.4-3.15 15.15-4.1 22.15-2.7 38.85 13.4 1.4 1.35 5.55 3.7 3.5 2 4.5 3.65 4.8 7.8 9 10.85 5.8 4.2 15.35 4.25"/><path fill="#eef3f6" d="M140.2 98.85q6.3 7.3 10.1 9.9 6.15 4.15 15.25 4.5-2.05 1.5-5.3 2.4-3.8 1-8 .7l-2.45-.2 2.05 1.35q2.95 2 6.35 2.7l8.15.45q-3.2 1.8-8.1 2.4-4.95.55-10.8-.25l-1.25-.05q-.95.2.8 1.25 2.3 1.4 4.95 6.05 3 5.2 4 10.7-5.05-4.6-9.3-5.75l-1.65-.45.95 1.4q3.05 4.65 3.05 13 0 6.6-1.9 14.35-.85-3.45-2.95-7.4-2-3.8-3.75-5.55l-1.5-1.5.45 2.1q.75 3.7.75 7.55 0 6.75-2.6 13.2-1.55 3.7-5 9.25l-.7 1.2v-1.6q0-7.25-1.2-10.85l-.45-1.25-.7 1.1q-6.75 10.45-6.75 25.7l.05 1.9q-2-3.5-2.15-7.25l-.15-2.55v-2.4q.3-3.75-.15-3.45-.3.2-.8 2.85l-.45 2.55q-5.55 8.1-5.55 16.55 0 6.2 3.35 13.55-5.3-2.4-9.05-10.25l-2.8-7.35q-1 .25.25 6 1.6 7.45 7.4 15.95Q96.9 214.05 88.2 195q-4.85-10.5-6.2-20.4l-.35-2.25-.9 2.1q-1.2 2.8-1.2 6.75 0 2.25.6 5.75-5.05-7.55-7.4-16.85-1.4-5.45-2.15-13.6l-.4-6.85-.35.45q-.4.85-.6 2.8-2.7 2.75-4.35 6.8-1.6 4-2.5 10.1-1.95-5.9-1.95-11.8 0-4.5 1.85-11 1.15-4.25 2.25-6.8l1.2-2.25q.6-1.3.4-1.7t-1 .75l-1.35 2.1q-1 .5-2.7 1.9-2.2 1.8-4 4.1v-.15q0-3.7 1.9-9.1 1.65-4.8 4.25-9.5l.7-1.25-1.4.35q-2.65.6-7.6 5.75-4.65 4.9-7.6 9.8.65-8.75 5.35-16.2 3.4-5.4 9.95-11.3l1.5-1.35-1.95.25q-2.75.3-6.45 2.2-3.7 1.85-7.6 4.95 2.55-9.3 10.9-16.9 4.9-4.45 10.45-7.3 2.15-1.1 1.1-1.25l-1.45.05q-6.8.55-12.5.3 6.1-1.85 14-7.4l.65-.4q12.85-8.8 32.55-7.2 18.85 1.5 28.3 10.6 3.15 3.05 8.05 8.8"/><path fill="#cacfd2" d="M132.15 90.05q3.15 3.05 8.05 8.8 6.3 7.3 10.1 9.9 6.15 4.15 15.25 4.5-2.05 1.5-5.3 2.4-3.8 1-8 .7l-2.45-.2 2.05 1.35q2.95 2 6.35 2.7l8.15.45q-3.2 1.8-8.1 2.4-4.95.55-10.8-.25l-1.25-.1q-.9.1.8 1.3 2.45 1.75 5 6.2 2.95 5.1 3.95 10.55-5.05-4.6-9.3-5.75l-1.65-.45.95 1.4q3.05 4.65 3.05 13 0 6.6-1.9 14.35-.85-3.45-2.95-7.4-2-3.8-3.75-5.55l-1.5-1.5.45 2.1q.75 3.7.75 7.55 0 6.75-2.6 13.2-1.55 3.7-5 9.25l-.7 1.2v-1.6q0-7.25-1.2-10.85l-.45-1.25-.7 1.1q-6.75 10.45-6.75 25.7l.05 1.9q-2-3.5-2.15-7.25l-.15-2.55v-2.4q.3-3.75-.15-3.45-.3.2-.8 2.85l-.45 2.55q-5.55 8.1-5.55 16.55 0 6.2 3.35 13.55-2.65-1.7-4.55-8.6-3.5-12.7-.9-36.1l-1.65 9.5q-1.15 6.7-.65 11.55-2.65-8.6-3-19.7-.2-6.8.6-19.75l-2 13.6q-1.4 7.95-4.45 12.95 2.7-10.2 1.55-23.3-.75-8.3-3.95-23.35.5 5.55-1.6 12.8l-4 12.15q0-24.45-2.95-39Q84.9 98 72.85 85.65q13.05-7.9 32-6.1 18.2 1.7 27.3 10.5"/><path fill="#0d131a" d="M127.65 1.1q3.6.55 3.55 1-.1.4-2.8.7-17.5 1.85-32.8 10.95-13.15 7.9-22.95 20.1Q64 44.65 60.4 55.6q-3.45 10.55-.65 15.95 1.2 1.45 3.5 2.5 3.2 1.45 7.05 1.15l.75-1 .85-2.15q3.5-8.5 8.3-12.25 8.7-6.8 24.4-3.95 9.5 1.7 15.5 6.85 4.6 3.9 6.9 9.5 3.2 7.65 2.4 16.1-.7 7.9-4.5 13.4-5.55 8-15.45 13.6-9.05 5.15-14.7 4.7-3.7-.3-9.15-3.5-4.2-2.5-10.6-7.45-2.7-2.05-3.75-4.7-.8-2.1-.8-5.25 0-4.1.7-7.35-3.65-5.1-14.4-8.15l-5.7 3.8q-2.2 1.1-3.8.6-3.35-1-6.05-8-2.85-7.4-2.85-16.55 0-14.7 7.05-27.55 6.8-12.45 19.15-21.25Q77 5.8 92.95 2.2q16.7-3.75 34.7-1.1"/><path fill="#005e96" d="M119.25 63.65q4.4 3.7 6.6 9.05 2.95 7.15 1.65 15.35-1.1 7.2-4.95 12.75-4.85 6.95-11.5 11.5-6.7 4.5-14.3 5.95-3.6.7-8.95-2.4-3.05-1.8-11.1-8-3.4-2.6-4.25-6.8-.55-2.5-.25-7.75l.1-2.3-.15-.15q-1.65-2.5-5.45-4.9-4.35-2.8-9.8-4.35l-.3-.1-.2.15-5.4 3.6q-2 1.05-3.35.6-1.4-.4-3.25-4.1-4.95-10.5-3.25-23.8Q43 43.25 52.75 29.5 63.95 13.65 86.6 6.05 106.8-.7 124.65 2.1q-40.1 6.85-58.6 36.75Q59.6 49.3 57.45 60q-1.9 9.2.1 11.65 1.45 1.8 4.3 3.35 4 2.2 8.15 1.85.9-.05 1.65-1.25l1.45-3.1q3.4-8.3 8-11.85 8.2-6.3 23.3-3.55 9.1 1.65 14.85 6.55"/><path fill="#004c7e" d="M81.1 60.65q8.2-6.3 23.3-3.55 9.1 1.65 14.85 6.55 4.4 3.7 6.6 9.05 2.95 7.15 1.65 15.35-1.1 7.2-4.95 12.75-4.85 6.95-11.5 11.5-6.7 4.5-14.3 5.95l-2.2.1q-2.6-2.4-1-9.3 2.2-6.9 2.2-7.9 0-1.1-3.9-2.15-5.45-1.5-8.95-4-9.45-6.8-13.85-18.1l.95-.05q.9-.05 1.65-1.25l1.45-3.1q3.4-8.3 8-11.85M56.9 81.6l-.3-.1-.2.15-5.4 3.6q-2 1.05-3.35.6-1-.3-2-1.95l2.75.2q1.3-.15 2.05-.65 2.9-1.8 4.15-2.45 2.75-1.35 4.15-1 2.4.55 7.75 4.3 6.05 4.25 5.8 6.7l-.15-.15q-1.65-2.5-5.45-4.9-4.35-2.8-9.8-4.35m67.55-79.5h.2q-37.1 6.3-55.9 32.75Q61.9 44.4 58.7 55.1q-2.65 8.75-1.95 14.15-3-6.1.45-16.8 3.55-10.95 12.3-21.6Q79.25 19 92.35 11.65q15.05-8.45 32.1-9.55"/><path fill="#0d131a" d="M76.6 98.85q-2.4-2.95-1.8-8.2l.95-.45.35.1q4.2 1.15 6.4 3.85 2.15 2.7 2.5 7.25l-.05.55-.75.15q-5.2-.25-7.6-3.25"/><path fill="#fff" d="M77.75 91.75q-1.55 2.7-.45 6.1-1.2-1.75-1.4-3.7-.25-1.75.35-2.95z"/><path fill="#e50044" d="M78.8 92.6q2.8 1.4 4 3.85.65 1.3 1.3 4.5l.05.3q-2.65 0-4.5-1.65-1.85-1.6-1.85-3.95 0-1.25 1-3.05"/><path fill="#c6003a" d="m77.85 96.1-.05-.45q0-1.25 1-3.05 3.6 1.8 4.7 5.6-2.7-1.4-5.65-2.1"/><path fill="#fff" d="M81.1 94.15q1.6 1.5 2.35 3.9l-.05.05q-1.3.1-1.9-.5-.8-.9-.8-2.2zm31 3.65-4.2 1.5-2.75.45-2.35.05-2.1.35q0-.75.4-1.95.8-2.45 3-4.8 2.15-2.35 4-3.55.95-.6 1.45-.75l5.2 3.3-.25 2.25q-.6 2.35-2.4 3.15"/><path fill="#e50044" d="m103.15 95.05.9-1.25 2.1-2.3q1.7-1.35 3.65-2.25l3.05 2.05q.35 2.05-.4 3.9-.9 2.45-3.3 3-2.35.6-4.2-.8-1.35-1-1.8-2.35"/><path fill="#c6003a" d="M112.85 91.3q-2.95.65-5.45 2.35-1.9 1.3-3.25 3-.8-.9-1-1.6l.9-1.25 2.1-2.3q1.7-1.35 3.65-2.25z"/><path fill="#fff" d="M110.3 89.4q1.3 1.7 1.1 3.25-.2 1.4-1.35 1.85l-2.15-.2q-1.1-.7-1.5-2.2-.2-.8 1.65-2t2.25-.7"/><path fill="#0d131a" d="m113.85 86.9.1.4q1.25 4.7 1.2 6.6-.05 3-2.45 4.6-3.2 2.05-8.15 1.85l-3.7.25q-.55 1.7-.6-.15-.05-4.1 4-8.2 4-4.05 9.2-5.25zm-8.8 6.5q-3.8 3.9-3.9 6.35l2.9-.35 3.65-.4q2.15-.4 3.65-1.35 2.6-1.7 2.6-5.15 0-1.75-.7-4.55-4.25 1.35-8.2 5.45"/><path fill="#0d131a" d="m102.55 95.6.95-.6q.25 1.25 1.55 2.15 1.35.85 3.2.9 2.3.05 3.5-2.6 1.1-2.4.4-4.45l.9.25q.6 3-.6 5.2-1.25 2.5-4.2 2.65-2.2.05-3.8-.95-1.5-1-1.9-2.55M89 112.95l3.35-.25q2.9.05 3.3.65.4.55-.45 1.7l-1.5 1.35q-1 .6-1.65.4-.85-.25-2.2-1.2-1.5-1.15-1.5-1.9 0-.6.65-.75"/><path fill="#0d131a" d="M94.6 113.9q0 .5-.95 1.45-.9.8-1.35.65l-1.9-1.05q-1.15-.8-1.25-1.2l.05-.05 2.85-.15zm13.35-24.65-.65-.15q-.25 0-.55.3-3.2 2.8-7.3 4.7-5.6 2.55-11.15 2.5-9.4 0-16.5-5.95-7.5-6.35-7.5-15.7 0-14.15 11.05-22.7 11.15-8.6 29.75-8.6 18.85 0 31.65 12.4Q150 68.9 149.8 88.7q-.1 11.75-6.65 22.45-5.75 9.5-14.9 15.7-1.5 1.05-2.05.8-.55-.2-.55-1.85.1-13.7-4.25-22.95-4.5-9.55-13.45-13.6"/><path fill="#eef3f6" d="M106.15 88.2q-2.75 2.45-6.8 4.25-5.25 2.35-10.55 2.4-9.2.05-15.8-6Q66.75 83 66.75 75.5q0-13.6 11.55-21.95 10.55-7.65 25.5-7.65 18.4 0 30.7 11.55 12.7 11.9 12.7 30.5 0 12.6-7.4 24.15-5.95 9.3-12.35 12.7l.1-2.75q0-26.15-19.7-34.25-.85-.35-1.7.4"/><path fill="#cacfd2" d="M107.85 87.8q-.85-.35-1.7.4-2.75 2.45-6.8 4.25-5.25 2.35-10.55 2.4l-6.15-.75q4.35-.2 9.6-2.35 5.15-2.05 8.9-5.05 3.25-2.65 7.55-2.55 2.85.1 8.05 1.7 6 1.85 8.35 2.2 4.75.75 8.45-.85 5.25-2.2 8.05-6.7 2.6-4.2 2.45-9.25 3.15 7.7 3.15 16.7 0 12.6-7.4 24.15-5.95 9.3-12.35 12.7l.1-2.75q0-26.15-19.7-34.25"/><path fill="#0d131a" d="M85.9 59.45q2.3 0 4.1 4.45 2 4.9 1.75 12.05t-2.2 11.8q-1.75 4.2-4.05 4.55-2.5.45-5.25-3.7-2.85-4.3-3.6-10.25-.9-7.25 2.55-13.35 3.15-5.55 6.7-5.55"/><path fill="#005e96" d="M85.35 91q-2.2 0-4.4-5.5-2.25-5.45-2.2-10.65.05-5.4 2.35-9.6 2.15-4 4.55-4 1.6 0 2.75 3.75 1.25 4.2 1.05 10.85-.25 7.15-1.3 11.1Q87.1 91 85.35 91"/><path fill="#004c7e" d="m89.4 70.9.05 4.95q-.25 7.15-1.3 11.1Q87.1 91 85.35 91q-1.55 0-3.2-2.95 2.9 1.25 5-4.65Q89 78.25 89.4 70.9"/></svg>