<svg xmlns="http://www.w3.org/2000/svg" width="414" height="348" viewBox="-0.25 0.65 414.4 347.55"><path fill="#30353a" d="M368.8 234.75q-12.05 35.2-41.5 61.4-28.9 25.75-66.8 36-39.55 10.7-78.75 1.55-76.7-17.95-105.25-67.25-23.4-40.4-15.85-106.25 3.45-30.15 17.5-56.35Q101.55 60.2 149 40q23.9-10.15 43.05-12.95 22.1-3.2 44.1 2.15 49 11.95 85.2 45.25 37.8 34.8 50.1 82.7 10.25 39.9-2.65 77.6"/><path fill="#30353a" d="M408.25 19.55q-2.9 10.5-6.15 17.55-2.2 4.85-10.35 29.05-8.2 24.3-10.6 29.65l-5.55 12.75q-2.75 5.9-7.05 12.7-2.45 3.85-17.4-5.1-14.35-8.55-29.95-22.5-16.9-15.15-24-26.9-8.3-13.75.35-18.15 15.4-7.8 38.25-18.9l25.75-12.45q5.15-2.5 15.7-5.9l15.05-4.7q9-2.75 12.1-3.3 6.65-1.1 6.65 2.2 0 3.9-2.8 14"/><path fill="#9ba4a9" d="M390.65 6.95q-2.6 5.15-8.65 11.55-5.55 5.9-10.1 8.85-3 1.9-12.9 11-10.55 9.6-13.35 11.65-4.3 3.1-5.2 2.35-.8-.7 1.55-3.5 1.55-1.85 9.55-15.25 8.6-14.35 10-16.35zm1.95 54.75q-8.4 5.9-13.7 10.9-5.55 5.3-8.1 7.05-4.05 2.8-3.1-.9 1-4.05 8.8-17.65 7.55-13.35 11.9-18.95 7.4-9.55 16.75-17.05 2.85-2.25-4.55 16.95-3.7 9.6-8 19.65M368 89.1q2.15-1.7-1.2 8.95-2.85 9.2-7.05 19.5-3.85-2.2-5.8-3.4-3.35-2.15-5.05-4.2.3-.45-.65-2.05-.9-1.55-.65-1.8 4.1-3.95 10.95-9.5z"/><path fill="#30353a" d="m81.75 36.3 13.9 7.1 23.1 11.3q3.4 1.6 4.35 2.25 2.45 1.55 3 3.55 1.4 4.95.85 12.4-.55 8.1-3.25 15.35-4.25 11.35-11.35 22.7-7.55 12-15.9 20.05-6.95 6.7-14.1 9.9-7.15 3.25-13 2.35-2.65-.4-4.6-2.5l-3.9-5.35Q45 111.05 34.65 92.1q-7.65-14-14.7-29.8-5.5-12.45-11.1-32.05-5.3-18.4-5.1-22.75.2-3.7 11.15.9 9.6 4.05 21 11.4 7.35 4.75 23.35 9.1 17.3 4.65 22.5 7.4"/><path fill="#9ba4a9" d="M47.55 25.6q10.75 4.9 16.6 5.1 3.3 1.15 11.25 13.4 7.95 12.2 5.5 11.75-2.05-.35-23.1-9.35Q38 38.05 32.55 35.45 28 33.25 15.7 21.5 3.25 9.55 3.75 7.5q.75-2.9 7.85-.05 4.55 1.75 16.5 8.2 13.35 7.2 19.45 9.95m-28.4 35.3q3.35-.15 21.8 18.4t23.45 27.15q5.9 10.1 6.95 13.1 1.4 4.15-3.6.9-4.9-3.25-13-6.2-7-2.5-9.9-2.75l-13-23.5q-12.9-24.15-12.7-27.1"/><path fill="#d3ebf3" d="M348.3 97.25q-2.35 10.25-.65 12.35 2.95 3.5 9.65 6.4 8.5 3.65 14.15.65 2.95 1.95 5.65 5.7 3.3 4.6 2.95 8v13.6q0 10.45-1.5 13.2-.7 1.2-7.7 7.25-6.1 5.25-7 9.95-1.45 7.85-1.1 12.95.45 6.75 4.15 5.75 3.45-.95 6.4-3.6l2.2-2.45.7.25q.85.4 1.5 1.35 2.15 2.9 1.85 9.5l.2 11.5q.05 4.7-1.75 9.25-1.2 3-.5 7.3.45 2.55-3.5 5.35-6.65 4.75-9.3 7.1-4.35 3.8-7.4 8.6-3.9 6.05-4.35 9.4-.55 3.95 4.35 2.2 2.85-2.55 4-4.3l.55-1.25 1.95 3.55q1.9 4 1.6 6.55-.55 4.2-3.15 10.2-3.15 7.35-6.5 9.05-2.1 1.05-7.2 1.2-3.8.1-4.9 2.35-1.85 3.7-5.35 8.15-4.2 5.4-8.35 8.5l-9.4 7.8q-5.7 4.1-9.8 2.85l-12.5-4.75q-8.4-3.15-11.8-2.85-4.95.45-8.65 4.05-4.2 4.1-1.45 8.6 3 4.9 2.65 7.2-.3 2.25-4.15 4.95l-13.25 9.55q-10.3 6.5-15.1 4.6-6.6-3.15-9.5-4.15-4.75-1.65-10.2-.4l-15.55 3.7q-10.2 1.8-16.35-.15-12-2.8-18.45-4.85-11.7-3.8-13.9-9.8 4.15-2.05 6-3.35 3.3-2.4 1.05-5.25-3.05-4-9.5-7-7.35-3.35-12.25-1.6l-9.5 4.4q-5.4 2.2-10.7.65-3.85-1.15-9.5-4.4-4.65-2.65-8.75-3.2-6.25-.85-17.15-9.2-11.8-9.1-15.7-17.6-3.45-7.6-1.6-10.9.6-1 1.65-1.5l.95-.25 2.7 3.45q2.95 3.4 3.9 3.1 2.95-1 3.95-2.25 2.25-2.85-.95-8.35-3.7-6.3-5.75-8.6-1.85-2.1-5.35-4.05L65.2 248q-8.1-4.15-10.9-7.9-2.85-3.75-3.85-11.5-.7-8.75-1.2-12.3-.9-6.1.95-10.9 2.2-5.85 8.15-8.3-.5 3.55 2 8.4 2.75 5.4 6.6 5.75 6.2.55 8.45-.55 4.15-2.05 3.15-10.05-.45-3.65-.4-8.2l.05-6.4Q78 180 74 177.9l-10.2-4.45q-5.85-2.65-8-6.7-2.65-4.95-2.65-14.8t2.65-12.5q2.2-2.2 3.85-3.35l1.2-.7 2.85 4.05q3.4 4.05 6.25 4.05 5 0 15.55-5.2 11.95-5.8 10.25-10.5-3.8-10.7-4.9-14.4-3-9.65-2.7-12.9.4-3.55 8.25-10 7.6-6.2 10.5-6.2 2.05 0 8.8 2.1l8.4 2.45 1.2-15.3.8-13.05q0-1.25-7.55-5.05l-7.6-3.55q1.3-3.45 3.9-5.2 3.8-2.55 15.3-6.4 8.35-2.8 27.85-10.4 16.2-5.85 20.2-4.3 4.9 1.9 6.9 4.95 1.95 2.95 4.25 11.75l2.05 8.45q1.35 4.7 3.5 7.75 5.65 7.95 22.4 11.7 5.7 1.25 12.2-3.4 3.25-2.35 5.35-4.95.45-4.8-.95-11.6-2.75-13.65-11.7-23.6 0-4.6 5.8-4.85 4.95-.15 12.95 2.8 4.8 1.8 21.4 8.35 15.45 5.9 21.1 6.85 8.4 1.4 11.7 2.65 4.8 1.8 4.45 4.9l-.95 5.65q-.65 4.75-.15 8.45 1.4 11.4 13.25 15.25l10.65-6.25q8-4.1 10.6-2.85 7.05 3.55 12.35 7.15 9 6.15 7.4 9.05-2.25 4.05-4.45 13.45"/><path fill="#b6ccd2" d="M222.2 26.65q0-4.6 5.8-4.85 4.95-.15 12.95 2.8l1.6.6q4.15 12.9 3.45 20.25-1.05 10.5-11.15 16.3.45-5.15-1.1-12.2-2.85-13.2-11.55-22.9m-59.75 15.5q.9 7.55-.4 13.85-3.2 15.75-16.55 12.3-10.75-2.75-12.95.05l-1.7 1.85q-1.5.65-5.3-.45l.55-9.25q0-1.25-7.55-5.05l-7.6-3.55q1.3-3.45 3.9-5.2 3.8-2.55 15.3-6.4 4.7-1.55 14.2-5.2 10.6-4.1 14.7-5.55 2.5 5.35 3.4 12.6m169.8 107.5q5.4 2 9.7 11.5 4.1 9.1 5.4 20.9 1.4 12.4-1.1 22.1-2.8 10.95-9.85 15.2-19.2 11.6-36.1 14.15-15.25 2.3-21.4-3.4-3.9-3.55-3.15-14.3.75-9.9 5.05-22.2 4.3-12.35 10.15-21.35 6.45-9.85 12.4-11.85 4.35-1.45 12.15-8.5 7.85-5.55 16.75-2.25"/><path fill="#b6ccd2" d="M372.95 222.1q5.4-4.1 5.05-3.25-1.2 3-.5 7.3.45 2.55-3.5 5.35-6.65 4.75-9.3 7.1-4.35 3.8-7.4 8.6-3.9 6.05-4.35 9.4-.55 3.95 4.35 2.2 2.85-2.55 4-4.3l.55-1.25 1.95 3.55q1.9 4 1.6 6.55-.55 4.2-3.15 10.2-3.15 7.35-6.5 9.05-2.1 1.05-7.2 1.2-3.8.1-4.9 2.35-1.85 3.7-5.35 8.15-4.2 5.4-8.35 8.5l-9.4 7.8q-5.7 4.1-9.8 2.85l-12.5-4.75q-8.4-3.15-11.8-2.85-4.95.45-8.65 4.05-4.2 4.1-1.45 8.6 3 4.9 2.65 7.2-.3 2.25-4.15 4.95l-13.25 9.55q-10.3 6.5-15.1 4.6-6.6-3.15-9.5-4.15-4.75-1.65-10.2-.4l-15.55 3.7q-10.2 1.8-16.35-.15-12-2.8-18.45-4.85-11.7-3.8-13.9-9.8 4.15-2.05 6-3.35 3.3-2.4 1.05-5.25-3.05-4-9.5-7-7.35-3.35-12.25-1.6l-9.5 4.4q-5.4 2.2-10.7.65-3.85-1.15-9.5-4.4-4.65-2.65-8.75-3.2-6.25-.85-17.15-9.2-11.8-9.1-15.7-17.6-3.45-7.6-1.6-10.9.6-1 1.65-1.5l.95-.25 2.7 3.45q2.95 3.4 3.9 3.1 2.95-1 3.95-2.25 2.25-2.85-.95-8.35-3.7-6.3-5.75-8.6-1.85-2.1-5.35-4.05L65.2 248q-8.1-4.15-10.9-7.9-2.85-3.75-3.85-11.5-.7-8.75-1.2-12.3-.9-6.1.95-10.9 2.2-5.85 8.15-8.3-.5 3.55 2 8.4 2.75 5.4 6.6 5.75 6.2.55 8.45-.55 4.15-2.05 3.15-10.05-.45-3.65-.4-8.2l.05-6.4Q78 180 74 177.9l-10.2-4.45q-5.85-2.65-8-6.7-2.65-4.95-2.65-14.8t2.65-12.5q2.2-2.2 3.85-3.35l1.2-.7 2.85 4.05q3.4 4.05 6.25 4.05 5 0 15.55-5.2 11.95-5.8 10.25-10.5-3.8-10.7-4.9-14.4-3-9.65-2.7-12.9.1-1.05 2-1.55l4.15-.1q6.05 1.1 7 6.75.5 2.95 4.45 8.65 4.15 6 10.25 12.05 15.5 15.5 30.8 19.75 7.15 2 15.3 1.75l12.75-.8q6.85-.3 11.65 1.55 6.2 2.35 12.1 8.9 5.7 6.35 7.15 12.3 1 4 .1 9.1-.95 5.4-.7 6.8.55 3.15 4.85 5.3 12.15 6.05 14.85 27.8l1.5 12.35q1 4.45 3.85 2.2 6.05-4.75 10.7-5.45 3.05-.45 8.9 1 9.2 1.75 18.8 10.25 8.9 7.85 15.35 18.85 4.05 6.85 11.45 3.95 4.95-1.9 14.65-10.35 11.35-9.85 15.35-12.35 8.35-5.25 13.55-2.15 2.25 7.65 21.4-5.55 4.15-2.85 12.6-9.4M333 67.6l.6.3q1 2.2-.15 4-1.05 1.6-4.55 3.75-11.5 6.2-20.95 12.25-5.8 3.75-14.35-8.55-5.95-8.5-11.55-21.8-3.3-7.85-1.9-13.5 1.2-4.6 3.3-4.25 8.4 1.4 11.7 2.65 4.8 1.8 4.45 4.9l-.95 5.65q-.65 4.75-.15 8.45 1.4 11.4 13.25 15.25l10.65-6.25q8-4.1 10.6-2.85"/><path fill="#30353a" d="M237.65 104.45q21.9 16.2 33.55 31.4 6.35 8.25-3.2 18.2-7.65 8.1-14.85 14.05-12.1 9.95-17.6 8.8-6.75-1.4-33.95-18.2-3.35-4.7-5.55-7.25l-1.55-1.65q1.8-5 6.1-12.9 8.65-15.8 21.35-30.3 2.75-3.1 6.15-4.15 4.85-1.5 9.55 2m-111.7 77.8q4.7-14.65 8.9-21.05 2.9-4.35 8.05-4.6 3.45-.2 10.15 1.75 6.35 1.85 34.05 22.15 27.6 20.2 29.5 24.25 1.9 4.1-2.7 12.5-4.75 8.6-11.55 12.5-6.65 3.8-23.65 3.2-15.7-.55-30.6-4.3-13-3.25-18.75-8.8-4.55-4.4-6.95-13.3-1.95-7.2 3.55-24.3"/><path fill="#00b8ee" d="M150.95 178.9q1.25-6.45 3.7-11.65 2.3-4.8 3.8-5 2.3-.3 27.75 18.4l25.05 18.75q.3 1.15-.2 4.3-.65 3.75-2.1 7.15-4.2 9.7-12.35 10.65-10.65 1.25-19.45-1.65-10.85-3.55-20.5-13.65-9.1-9.55-5.7-27.3"/><path fill="#00a0cf" d="M153.2 173.6q.95-4.15 2.1-6.7 1.3-2.9 3.15-4.65 1.65-1.55 27.4 17.65 12.85 9.6 25.4 19.5.4 1.4-.35 5.2-14.15-10.35-26.45-17.3-16.25-9.15-31.25-13.7"/><path fill="#30353a" d="M328 158.35q5.05 8.15 6.75 13.9 7.7 26.15-3.2 40.7-6.45 8.6-28.1 14.05-7.9 1.95-15.3 2.85l-8.35.25q-2.35-.85-8.4-5.05-6.95-4.8-9.8-8.15-4.25-4.95-4.75-6.75-.95-3.7 3.3-9.7 4.65-6.45 30.35-28.25 25.4-21.55 28.9-22.4 2.9-.75 8.6 8.55"/><path fill="#00b8ee" d="M316.9 196.55q-3 15.65-19.3 20.5-10.9 3.25-21.75 1.25-5.7-1-10.9-6.1-5.05-4.9-5.85-9.6 7.15-8.15 16.35-17.35 18.4-18.4 28.6-23.7 1.1-.55 3.75 1.5 3 2.35 5.4 6.4 6.7 11.4 3.7 27.1"/><path fill="#00a0cf" d="M304.05 161.55q1.15-.6 3.05 1.3l3.5 3.85q-11.15 4.5-32.65 21.25L264.6 198.6q-5.45 4.4-5.5 4 7.15-8.15 16.35-17.35 18.4-18.4 28.6-23.7"/><path fill="#30353a" d="M127.35 279.7q-7.25-8.8-12.2-21.3-5.45-13.8-1-16.55 3.65-2.2 10.05-.8 8.9 1.95 20.65 10.8 11.9 9 16.4 15 3.25 4.4 3.25 8.55 0 4.5-4.4 11.85-5.1 8.4-10.6 8.85-7.1.6-11.95-3.95-1.8-1.7-4.65-5.4zm205.25-43.55q2.55.4 2.4 7.7-.15 7.45-3.1 19.1-2.5 10.15-8.7 18.75-4.2 5.85-7.7 8.35-1.55 1.1-3.85.35l-4.4-1.75q-2-.7-3.4-9.35l-1.55-11.75q-.45-2.65 8.05-12.85l10.5-12.1q2.15-2.8 5.2-4.7 3.6-2.25 6.55-1.75m-49.1 34.3q2.35 8.1.55 17.8-14.25 14.3-22.1 19.4-13.1 8.5-26.4 7.05-11.65-1.25-24.25-11.3-12.5-9.95-20.05-23.7 4.35-9.6 24.35-28.2 10.35-9.6 23.15-20.35 7.4-6.7 19.55 3.9 6.75 5.9 16.85 19.65 6.25 8.55 8.35 15.75"/><path fill="#fff" d="M245.85 228.5q4.15.4 10.95 5.7 6.75 5.2 13.2 13 15.75 19 15.15 33.2-5.05 5.5-15.55 10.25-13.7 6.2-29.45 6.9-14.5.65-29.55-8.3-12.15-7.25-16.1-14.2 1.35-2.15 7.75-9.4 7.35-8.45 14.9-16.05 21.55-21.75 28.7-21.1"/><path fill="#dbdcdc" d="M245.85 228.5q4.15.4 10.95 5.7 6.75 5.2 13.2 13 15.75 19 15.15 33.2-2.1 2.3-5.4 4.55-16-33.75-41.15-31.35-19.3 1.85-42 24.35-1.6-1.95-2.1-2.9 1.35-2.15 7.75-9.4 7.35-8.45 14.9-16.05 21.55-21.75 28.7-21.1"/><path fill="#0d131a" d="M223.5 29.25q-9.85-1.7-19.2-1.2-8.45.45-19.55 2.95l-2.15-1.65-2.05-1.7q21.5-5 41.55-2.65zm151.65 131.5q1 5 1.55 12.65l.65 12.65-4.15 2.85-.35-12q-.3-7.1-1.3-12l1.8-2.05q1.35-1.8 1.8-2.1M135.35 318.2q.55-.35 2.05-.75l2.05-.75 11.15 5.25q6.55 2.9 14.2 4.95l-3.45 2.15q-8.65-2.3-15.2-5.4zM81.9 271.65l3.85 5-2.7-.85-2.7-.9q-4.25-5.95-7.3-11.6-3.05-5.75-5.75-12.75l2.4.6 2.4.55 2.7 7.15q1.6 4.2 3.1 6.8zM57.95 172.1l3.75 1q-1.35 18.35-.2 34-2.3-4.15-4.1-7.9-.5-12.7.55-27.1M303.5 310.6l3.4 1.7q-6.8 5.3-13.9 8.85-5.65 2.75-14.05 5.55l-.15-3.45q13-5.3 24.7-12.65m67.5-77.5-4 11.5q-2.2 5.5-5.3 11-.7.35-3.25 2.35l-3.25 2.15q6.65-11.1 11.2-23.6z"/><path fill="#0d131a" d="M44.5 84.55Q32 71.8 22.1 63.1q12.15 26.85 24.5 47.85 4.3.95 10.15 3.2 7.1 2.7 11.45 5.6 1.9 1.2 2.65 1.35l.05-.1q0-1.85-7.2-14.15-3.9-6.7-19.2-22.3M74 43.9q-5.85-8.5-9.7-12l-2.5-.65-14-4.1q-7.65-2.65-12.8-6-10.65-6.9-19.85-10.9Q7 6.7 5.35 7.6l.05 1q3.85 5.45 13.65 14.8 9.9 9.4 13.85 11.3 5.45 2.6 24.05 10.55 19.65 8.45 23.45 9.6Q79.55 52 74 43.9m21.1 44.95q7.85-7 11.35-7 1.45 0 5.2 1.35l6.8 2.35 4.2 1.3 1.35-14.5q.85-9.8.5-11.45-.4-1.65-18.2-10.6L81 37.7q-4.55-2.35-13.65-4.95 5.05 5.65 10.35 13.6 5.8 8.75 5.05 10.4-.3.8-1.25.65-2.25-.45-24.25-9.55-20.7-8.55-25.4-10.75-3.55-1.7-12.35-10.5-8.05-7.95-13.6-14.75 1.55 8.3 5.65 21.9 4.55 15.3 9.05 25.95 10.6 8.65 22.25 19.35 17.45 16.1 21.65 23.3 5.1 8.7 7.6 14.85 2.4 6 1.35 7-1 .95-6.75-2.75-4.05-2.65-9.75-5.15-5.2-2.3-9.15-3.35 7.2 12.1 13.65 20.55l.15-.05.65 1.15q1.5 2.6 3.5 4.7 2.45 2.55 4.2 2.55 3.25 0 11.65-3.55 9.45-4 12.05-7.7.8-1.2.6-2.25l-.45-1.2q-3.6-10.1-5.2-15.55-2.35-8.1-2.05-11.3.45-4.25 8.55-11.45m272.4 1.55q-2.9 1.95-9.15 7.2-6.25 5.2-9.8 8.6 0 1.85.35 2.35 1.2 1.4 4.1 3.3 3.45 2.25 7 3.45 1.2-4.4 3.55-12.2 2.7-9.1 3.95-12.7M351.3 83v-.45q-.65-2.2-6.6-6.3-5.35-3.65-12.4-7.2-.85-.45-12.35 5.4L307.05 81q-1.5.65-2.15-.25-.6-.9.35-1.85 1.2-1.2 3.3-2.1-11.45-3.7-12.6-13.6-.4-3.35.4-7.8l1.35-6.2v-.3q-.4-1.65-2.45-3.4-4.05-3.5-12.1-4.1-4.4-.35-14.75-4.2l-18.2-7.25-9.8-3.8q-5.6-2.05-9.7-2.55t-5.8.65q-.8.5-.95 1.95 12.15 14 12.15 32.4 0 .8 1.5-1.6l2.9-4.6q1.2-1.8 1.2-.55l-.45 2.9q-.55 2.6-3.7 6.6-3.65 4.85-6.65 7.35-6.4 5.25-12.75 3.85Q202.25 69 195.4 61.4q-4.45-4.95-6.7-14.9l-.9-3.8q-2.2-8.45-4-11.15-1.75-2.7-6.15-4.4-2.7-1.05-12.5 2.05-5.45 1.7-18.35 6.65l-16.15 5.95q-9.1 3.05-12.9 5.05-3.25 1.7-4.4 3.65l3.75 2.05 6.75 3.5q1.55-2.05 2.85-1.2 1.2.7 1.35 2.85.7 9.2-.1 18.4l-1.35 11.25 1.25.6q1.45.65 2.6.9 1.4.3.85 1.5t-2.15.8l-11.65-2.5q-8.75-2.75-10.6-2.75-2.35 0-9.45 5.85-7.35 6-7.65 8.9t3.55 15.3q3.45 11.15 4.85 13.9 1.1 2.15.5 3.85-.6 1.75-2.5-.55-3.15 4.45-13.35 8.45-8.85 3.5-12.9 3.5-4.65 0-9.65-7.5l-3.35 3q-1 1-1.6 4.25-.55 3.05-.55 7.15 0 4.2.6 7.8.65 4 1.85 6.2 1.45 2.75 4.7 4.65 1.9 1.15 6.55 3l6.3 2.8q3.05 1.65 4.15 4.65.85 2.2.85 6.45l-.05 5.55q0 3.75.4 7.35l.25 3.1-.05 5.05q-.2 2.8-1.2 3.85-1.8 1.85-5.65 1.7l-6.3-.7h-.4q-2.8-.25-5.95-4.2-3.25-4.05-4-9.55-6.25 3.9-6.25 12.9 0 2 .25 3.5l.55 5.9q.5 6.3 1.1 9.3 1 5.05 3.1 7.85 2.05 2.75 7.45 5.85 3.15 1.8 9.05 4.55l9.8 3.75q4.25 2.35 5.6 3.8 1.55 1.65-2.3.75 1.2 2.05 3.25 7 2.2 5.3 2.2 6.6l.2 1.65q.2 1.2 0 1.6-.7 1.85-2.9 2.6l-3.05.7-.25.05q-1 .35-2.15-.4-2.15-1.3-5.5-5.75-.4.25-.65.65-.45.9-.45 2 0 2.7 2.1 7.35 3.75 8.25 15.4 17.1 10.55 8.05 16.25 8.8 2.95.4 5.55 1.5l4.35 2.3q2.9 1.65 8.15 3.25 3.85 1.1 7.4.5 2.85-.5 6.45-2.35 3.85-1.9 5.75-2.6 5.3-1.9 13.2 1.55 6.45 2.8 9.3 6l3.25 3.5q1.2 1.6 1.7 3.8.15 1-.5 1.7-.8.85-2.45-2.25-1 1.4-2.55 2.5-1.15.8-3.5 2l-1 .55q2.2 3.8 9.4 6.6 4.25 1.65 13.45 3.85l7.8 2.05 13.15.45q4.75-.65 13.4-2.9l4.45-1.1 8.9-.25q2.5.55 7.15 2.75l4.65 2.1q3.55 1.45 11.65-3.3 4.35-2.5 11.95-8.25l3.2-2.45q3.25-2.25 3.5-3.7.3-1.8-2.45-6.25-1.35-2.25-1.7-3.55-.45-1.8.4-3.55 1.5-2.95 5.55-5.4 3.8-2.3 7.1-2.6 2.8-.25 7.85 1.35 3 .9 9.65 3.55l7.4 2.75q2.8.85 6.55-1.4 2.3-1.35 6.8-5.3l4.45-3.65q3.9-2.9 7.95-8.1 3.4-4.4 5.25-8.05-1.95-1.7.8-2.55l5-.6q5.1-.15 7.05-1.1 2.8-1.4 5.7-8.2 2.55-5.85 3-9.8l.05-.55q0-2.25-2-6.15l-3.45 3.55-.2.25-.3.1q-4.2 1.45-5.85-.6-.75-.95-.75-2.45 0-3.8 4.65-11 3.7-5.65 9.3-10.25l5.05-3.75q3.05-2.3 4.4-4.4 1.3-2.05 1.85-5l.8-5.25q1.85-9.1 1.5-14.4l-.5-4.55-.6-4.55-.7-2.9q-.75-2.55-1.05-2.2l-3.25 3.4q-2.65 2.4-5.45 3.15-2.35.65-4.25-1.1-1.95-1.85-1.95-9.2 0-4.5 1.2-11.25 1.35-7 8.85-13.05l3.5-2.45q2.05-1.35 2.5-2.2 1.3-2.3 1.3-12.6l-.1-10q0-2.25.15-3.6v-.45q0-2.35-2.15-5.55-1.85-2.85-4.3-4.95-.4.75-2.15 1.3-2.3.8-5.15.45-8.45-.9-18.25-10.3-2.15-2.05-1.95-6.95.35-7.7 6.8-20.7m20.15-56.35q3.65-2.35 8.4-7.1 5.2-5.15 8.3-9.95-19.1 5.85-25.9 9.15l-1 .5q-2.7 4.15-7.65 12.5-9.1 15.35-11 17.65-1.1 1.35-1.45 2.25 1.3-.4 4-2.3l12.3-10.7q10.65-9.8 14-12m25.7 6.5q-4.15 4.35-8.1 9.5-4.3 5.6-11.85 18.8-7.7 13.55-8.7 17.5l-.15 1v.1q1.7-.1 10-8 5.05-4.8 13.25-10.6 6.75-20.05 9.05-25 1.85-4.2 3.75-9.85-3.15 2.3-7.25 6.55m12.3-27.6-.2-.5q-1.95-1.4-15 2.7L391.2 8.8q-2.95 5.1-9.15 11.15-5.4 5.3-9.7 8.05-3.05 2-13.8 11.85-9.4 8.55-12.45 10.8l-4.7 3.1q-2.15 1.15-2.75.45-.65-.7.1-2.5.6-1.45 1.75-2.8 1.2-1.4 4.8-6.9l6.9-11.05 6.3-10.4-57.45 28.1-.2 1.1q-.95 5.35-.95 8.45 0 12.55 11.7 16.7l.15-.1q8.15-5.15 12.9-7.2 6.35-2.8 9.1-1.45l11.45 5.7q8.4 4.7 9.45 8.25.3.9 0 2.65l-.6 2.1q-1.5 2.7-3.15 8.8-1.6 5.95-2.15 10.45 7.05-6.6 12.65-11.25 8-6.7 8.95-5.85.85.8-3.2 12.55l-5.6 16.2q5.3 1.35 8.9-.4 2.05-3.8 6.55-14.15l2.65-6.05q2.2-4.9 10.55-29.5l.5-1.6q-2.7 2.05-11.75 10.7-5.4 5.1-8.45 6.9-2.55 1.5-3.8.75-.7-.4-.35-1.95l.6-1.85q1.05-4.25 8.85-18.3 7.75-13.95 12.15-19.65 4.2-5.45 9-10 4.25-4 7.8-6.25 4.7-15.7 4.7-18.85m3.2-4.9q1.5 1.05 1.5 3.1 0 4.1-3.15 15.55-3.25 11.9-6.6 19.15-2.15 4.65-4.9 11.5-3.55 8.8-6.25 16.75-8.2 24.25-10.65 29.8l-2.65 6-5.95 12.35q3.5 2.9 5.65 5.8 2.95 4.1 2.6 7.55-.7 7.15-.65 9.95l.4 12.15q.1 5.55-1.05 7.6-1.5 2.65-6.75 6.95-3.8 2.85-5.45 4.35-2.75 2.55-3.3 5.45-1.3 6.8-1.15 11.55.1 4.15 1.2 5.15l.95.15q3.05-.85 5.65-3.2l2.05-2.2 2.4-3.3q1.8-1.3 3.15 1.4.7 1.4 1.05 3.2.7 3.15 1.1 9.15l.7 9.25q.8 6.1-.55 10.6-.95 3.2-2.35 9.55-1.6 5.35-4.9 8.3l-8.55 6.3q-5.1 3.7-7.55 7.5-2.2 3.45-3.3 6.1-.9 2.1-.9 3.15l.1.4h.45l1.45-.35q3.35-3 3.8-4.35l1.1-1.75 1.1-1.45 1.1.95q1.2 1.75 2.4 4.4 2 4.45 1.65 7.3-.65 5-2.8 11.05-3.05 8.45-6.9 10.4-2.75 1.35-8.5 1.5l-2.95.25q-.95.3-1.4 1.2-5.05 10.1-12.25 15.5l-7.95 7.6q-4.2 3.7-7.55 5.1-4.25 1.75-8.35.45l-7.45-3.25-8.25-3.35q-4.45-1.65-6.65-1.45-2.55.25-5.25 1.8-2.85 1.65-3.9 3.8-1.2 2.3.3 4.6l4.45 7.45q.75 2.5-3.2 5.25l-5.55 3.7q-8.25 6.35-13.8 9.3-9 4.85-13.75 2.95l-4.85-2.15q-3.9-1.85-6.75-2.3-3.45-.55-7.7.45l-3.85.65q-8.95 2.7-13.45 3.65-7.85 1.6-13.3-.1l-9.15-3.15-15.4-3.9q-8.8-2.95-11.5-7.45-3.1-5-2.1-5.85.65-.45 3.4.75l3.05-.6q4.35-2.1 4.6-3.35.15-.5-.55-1.45-2.85-3.6-8.85-6.4-6.75-3.2-11.1-1.65-1.7.65-5.35 2.45l-6.75 3.75q-4.15 1.75-8.45.5-2.5-.75-5.6-2.85l-4.3-2.9q-4.5-2.65-9.9-3.35-6.8-.9-17.8-9.4-11.8-9.1-15.85-17.95-4-8.75-1.85-12.45.9-1.55 2.5-3.35l1.7-1.6 1.6 1.95.5.75q3.6 4.95 5.2 5.85 2.6-.85 3.2-2.3l.2-1.15q0-1.75-1.7-4.7-3.6-6.15-5.55-8.3-1.7-1.95-4.95-3.75l-4.5-2.15-9.3-4.1q-5.25-2.65-7.55-5.75-4.6-6-5.7-20.35l-.6-5.75q-.85-5.95-.85-7.95 0-4.75 2.3-8.45 2.85-4.45 8.85-6.95l1.45 1.1.6 3q-.25 1.8.75 4.75 1 3.1 2.65 5.2 1.9 2.25 3.75 2.4l.4.05 4.6.15q2.5-.15 3.6-1.35 2-2.05 1.25-7.65-.5-4.35-.4-10.9.1-5.15-.35-6.95-.6-2.45-2.95-3.7-2.45-1.3-5.95-2.6-5.2-1.7-7.65-2.85-4.2-1.9-5.95-5.15-2.8-5.25-2.55-16.1.25-11.05 3.5-14.3 2.25-2.25 3.85-3.35-11.9-15.8-25.4-40.7Q23.95 77.35 18.95 66 13.15 52.9 6.4 31.2-.25 9.95 0 5.55q.1-1.8 1.7-2.65Q5.75.85 21.55 9.35q7.95 4.3 15.25 9.1 4.85 3.15 12.25 5.65 4.25 1.5 13.55 4l9.15 2.15q4.45 1.05 7.8 2.85L95 41.25q8.95 4.7 13.5 6.85 1.2-2.2 6-4.15 1.95-.8 15.15-5.2 4.05-1.35 16-5.9 14.9-5.75 22.5-7.9 9.8-2.8 13.2-1.5 4.8 1.85 6.35 5.9 1.1 2.8 3.2 12.55l.95 3.9q2.2 9.55 5.65 13.35 5.55 6.2 20.15 9.45 4.55 1 9.9-2.45 3-1.95 5.75-4.95v-1.15q0-6.5-1.9-13.3-3.1-10.9-10.4-19.05l-.4-.45-1.55-1.05q0-2.7 4.8-6.05 2.65-1.85 8.05-.45l9.6 3.4 9.85 3.8 17.8 6.85q10.2 3.75 14.55 4.45 7.6 1.25 10.85 2.3 5.25 1.75 6.35 4.6l30.55-15.55q22.7-11.7 25.3-12.95 4.6-2.2 15.85-5.75L388.9 6l4.4-1.35L405 .85z"/><path fill="#0d131a" d="M226.5 89.05q5.15-1.9 13.05 3.05 6.6 4.15 9.45 8.6 2 3.1 1.05 3-.9-.05-2.3-1.95-1.9-2.75-8.3-6.7-7.8-4.8-11.95-3.3-4.2 1.55-11.8 8.5l-8.85 8.3q-2.15 1.65-2.3 1.45-.2-.2 1.1-2.55 1.75-3.05 8.4-9.35 7.65-7.3 12.45-9.05"/><path fill="#0d131a" d="M236.7 105.75q-4.25-3.15-8.45-1.65-2.75.95-5.05 3.55-11.05 12.6-19.15 26.4-4.75 8.15-7.6 15.1 3.9 4.25 6.6 8.55 9.25 5.75 17.9 10.55 11.35 6.3 14.9 7.05 3.7.8 12.15-5.3t18.85-17.05q8.5-9.05 3.1-16.1-6.75-8.7-17.4-18.25-7.5-6.65-15.85-12.85m-15.55-1.6q3.3-3.7 7.6-4.15 4.85-.55 9.9 3.15 23.95 17.8 34.75 31.8 7.1 9.2-3.15 20.15-9 9.5-17.65 15.9-11.65 8.7-17.4 7.5-6.1-1.3-29.3-15.25l1.2 3.5q.9 3.45.1 4.15-.75.7-1.35-.8-2.35-6.55-7.65-13.45-3.85-5-10.4-11.6l-4.2-4.2q-2.5-2.35-4.6-3.65-2.65-1.6-2.65-2.25-.05-.65 3.6.95 2.15.95 5.9 3.7 4.2 3.15 8.15 7 3.2-7.75 8.45-16.6 8.05-13.65 18.7-25.85m12.2 81.65-1.85-1.65q-.95-.9-.75-1.2.15-.2 3.5 1.35 3.85 1.7 5.45 1.9 3.35.4 9.35-2.8 5.4-2.85 6.05-2.3 1 .85-2 2.5-3.6 1.8-4.55 2.4-2.3 1.5-4.1 2.1-2.2.7-4.45.4l-2.8-.6q-1.8-.55-2.65-1.1zm50.8-37.95q2.15-1.9 3.1-1.6.95.25-1.85 2.6-2.45 2.1-6.7 11.45-2.25 4.85-4.9 11.4l-1.4 2.65q-.25.05-.2-2.95.15-3.9 3.3-10.9 3.75-8.3 8.65-12.65M124.9 226.4q1.95.55 1.95 1.05l-2.75.3q-8.6-.7-12.85-7.6-3.3-5.45-3.25-12.9.05-3.6.7-3.8t.9 3.8q.35 5.45 3.6 10.6 4.3 6.7 11.7 8.55m33.95-63.35q-5.3 7.15-7.35 18.35-2.75 15.25 5.75 24.2 8.7 9.2 18.15 12.8 9.5 3.65 21.15 2.3 5.8-.6 9.6-6.35 2.1-3.1 3.35-7.45.95-3.35 1.05-6-8.6-7.4-24.95-19.45-17.15-12.6-26.75-18.4m-6.25-3.15q-6.35-1.85-9.45-1.7-4.45.2-6.95 3.9-4.05 6.1-8.7 20.6-5.35 16.65-3.55 23.4 2.15 8.25 6.1 12.25 5.5 5.55 18.4 8.75 14.75 3.7 30.25 4.25 16.6.6 22.8-3 6.4-3.7 10.95-11.85 4.25-7.75 2.7-11.05-.4-.85-2.9-3.05-.1 2.95-.9 6-1 3.75-2.9 6.6-4.85 7.25-10.9 7.95-25.5 2.95-42.95-15.35-8.8-9.25-6-25.8 2.05-12.2 7.65-20.25-2.6-1.35-3.65-1.65m-32.3 12.65q-5.9 11.2-7.85 16.55-1.5 4.3-2.15 3.55t.3-4.7q1.85-7.45 7.5-18.65 5.7-11.35 8.95-13.7 3.45-2.5 9.5-2.6 7.2-.15 15.7 3.4l1.3.4q6.95 2.05 32.55 20.5 26.3 18.95 32 26.75 4.35 6.1-4.05 18.3-3.25 4.7-7.3 8.55-3.9 3.7-6.25 4.55-3.45 1.2-8.5 2.05-5.7.95-6.05 0 .1-1.1 2.3-1.45 6.95-1.25 10.2-2.4l3.5-1.9q-7.5 3.45-24.15 2.8-15.45-.65-30.1-4.3-14.3-3.6-19.7-7.9-5.7-4.5-7.85-14.5-1.65-7.8 4.15-25.7 5-15.5 9.25-21.85 1.85-2.85 4.65-4.15-2.8-.15-5.4.65-2.15.65-3.65 1.75-2.4 1.75-8.85 14m207.4 51.05q2.5-1.2 7.95-5.1 6.1-4.45 7.05-6.4 1.05-2.3 1.45-2.15t-.2 3.15q-.5 2.8-6.8 7.15-5.5 3.85-8.9 4.9l-2.55.1q-.05-.7 2-1.65m-11.6-27.2q2.7-14.1-2.4-23.6-2.8-5.15-9.05-9.8l-.3-.2q-13.05 10.55-25.8 21.95-14.1 12.55-17.1 16.65l-1.35 2.05q1.25 4.4 5.85 8.6 4.85 4.5 10.05 5.45 11.25 2.1 22.1-1.45 15.2-4.95 18-19.65m17.1-23.7q-1.7-5.7-6.65-13.6t-6.75-7.75q-1.95.65-13.35 9.7 17.25 12.8 12.85 35.95-3 15.55-19.9 21.15-12.35 4.05-24.15 1.9-5.1-.9-9.9-5.6-4.4-4.2-6.3-9.1-.8 1.75-.8 3.15 0 1.45.95 2.95l2.5 3.1 1.1 1.3q2.75 3.2 9.5 7.85 6 4.15 8.05 4.85l7.85-.3q7.2-.9 14.75-2.8 21.1-5.2 27.3-13.45 4.4-5.85 5.6-14.15 1.55-10.95-2.65-25.15m13.65.4q.45 3.45-.9 3.35-1.4-.15-1.65-3.1-.7-7.3-5.65-15.1-5.05-8-10.1-9.25-3.1-.8-6.2.05 3.9 2.55 8.8 11.45 4 7.2 5.15 11.3 4.5 15.3 3.35 26.55-.95 9.05-5.5 15.05-6.8 9.05-27.9 14.7-7.8 2.1-15.05 2.95-6.65.8-8.5.15 4.35 3.5 3 3.6-1.2.1-6-2.5-12.65-6.8-19.35-14.35l-1.05-1.25q-3.55-4-3.95-6.65-.65-4.1 3.5-10.55 5-7.7 30.75-29.25 25-20.95 29.4-22.05l.55-.05q4.3-2.9 9.35-1.65 5.8 1.45 11.2 9.25 5.6 8.05 6.75 17.35M115 243.25q-.8.4-1.05 1.95-.85 5 4.1 16 4.75 10.45 10.55 17.45l4.35 5.55q4.85 6.3 7.25 8.1 3.7 2.7 9.15 2.2 4.8-.4 9.45-8.2 4.1-6.9 4.1-10.9 0-3.65-2.95-7.6-4.3-5.75-16.05-14.65-12.25-9.25-21.1-10.7-5.1-.85-7.8.8m-8.85 3.8q3.65-5.7 7.9-7.1l1.1-.3q4.4-1.6 10.65.1 8.75 2.35 20.05 10.8 11.85 8.95 16.45 15 3.8 5 3.8 9.85t-3.9 12.3q-4.6 8.8-10.25 10.05-9 1.95-17.25.15-7.3-1.6-12.85-5.8-2-1.55-1.45-2.4.55-.9 3.2.6 3.6 2.1 7.3 3.6 5.75 2.35 9.8 2.4-2.7-1.3-5.35-4.1-1.65-1.75-4.95-6.05l-4.25-5.4q-5.7-6.85-10.55-17.2-5.35-11.45-4.9-17.85-2.2 2.8-3.4 5.65-1.4 3.35-.95 5.6.8 3.8.05 4.3-.8.5-2.15-2.75-2.2-5.05 1.9-11.45M339.3 236.1q1.8.6 2.6 4.05.65 3 .45 7.1-.2 3.4-1.25 4.5-1.1 1.1-.85-1.2.25-2.5-.35-7-.7-5.1-1.8-5.45l-2.4-.95q.9 2.1.9 5.95 0 4.85-.65 10.65-.65 5.45-1.55 9-2.3 9.15-7.95 17.5-4.05 6-8.55 9.9l6.7-.6q2.35-.5 5.2-3.3l4.05-4.7q1.65-2.05 2.15-1.7.5.4-.3 3.25-.75 2.75-4.85 5.75-3.8 2.8-7 3.45l-6.2.85q-4.55 0-8.65-2.05l-2.25-.95q-2.15-.7-3.4-5.2-1.05-3.85-2.2-13.35l-.45-3.75q-.45-2.55 2.7-7.35 3.1-4.6 11.1-13.65l5.05-5.25q1.95-2.45 4.5-4.3 2.8-2.05 5.55-2.6l6.95.4zm-5.9 6.9q0-2.35-.35-3.85-.3-1.2-.7-1.4-2.35-.4-5.4 1.5-2.75 1.7-4.85 4.35l-3.4 3.9q-14.85 16.85-14.85 19.7v.1l.55 3.95q1.65 14.6 3.45 15.85l2.45 1 2.6 1q.95.15 1.65-.35 3.25-2.35 7.35-8.1 6-8.4 8.45-18.1 3.05-12.45 3.05-19.55m-71.95-2.65q-9-9.5-15.35-10.15-3.5-.3-6.25 2.15l-4.2 3.65q-14.45 12.35-22.95 20.5-15.45 14.85-19.55 23.15 7.55 13.4 19.5 22.8 12 9.45 23.05 10.65 12.75 1.35 25.25-6.7 7.65-4.95 21.6-18.9.7-4.05.7-7.35 0-6.7-2.55-12.85-2.15-5.15-6.85-11.6-7.5-10.2-12.4-15.35M246.4 227q7.3.75 17.1 11.25 5 5.3 13.6 17.05 5.75 7.9 8.15 15.5 2.45 8.05 1.7 17.4-.45 5-1.45 3.95l-.95-2.1-10.25 10.2q-5.7 5.35-10.5 8.45-12.2 7.8-28.55 7.1-13.4-.55-25.35-10.15-10.95-8.75-19.2-23.8-1.9 4.5-3.2 5-1.95.8.55-6.6 2.4-7.2 19.9-23.95 9.25-8.85 25.6-22.8l4.1-3.55q3.85-3.5 8.75-2.95"/><path fill="#0d131a" d="m284.55 279.85 1.15 1.15q-4.1 4.2-14.6 9.25-15.3 7.4-30.9 8.1-15.05.7-28.85-7.6-9.55-5.8-17.5-15.15l1.25-1.05q7.25 8.5 17.5 14.15 13.75 7.55 28.45 6.9 15.1-.65 29.7-7.35 10.05-4.65 13.8-8.4"/><path fill="#0d131a" d="m243.1 229.6.9.55q3.25 21.25 2.8 38.6-.4 16.6-4.1 28l-2.7 1.55q3.7-11.45 4.25-28.4.6-18.15-2.55-38.95l-.2-1.1zm23.05 15.15 1.6-.1 1.45 21.15q.9 21.55-1.9 25.6l-2.8.7q2.1-3.1 2.35-20.35.15-13.05-.7-27m-47.6 5.25.1-2.1 1.6.1-.1 2.1q.25 10.05-.8 22.2-1.2 14.4-3.5 19.6l-2.1-1.45q3.15-7.3 4.8-40.45m-27.35-66.15 2.5 1.95 2.3 1.9.15 3.15q0 4.3-.85 7.35t-2 3.05-2-3.05-.85-7.35q0-3.9.75-7"/><path fill="#fff" d="M195.05 190.45q0 1.1-.55 1.85-.55.8-1.3.8-.8 0-1.35-.8-.55-.75-.55-1.85t.55-1.85q.55-.8 1.35-.8.75 0 1.3.8.55.75.55 1.85"/><path fill="#0d131a" d="M283.35 179.25q.75 3.1.75 7 0 4.35-.8 7.35-.85 3.05-2.05 3.05-1.15 0-2-3.05t-.85-7.35q0-1.65.15-3.15l2.35-1.9z"/><path fill="#fff" d="M279.5 185.85q0-1.1.55-1.85.55-.8 1.35-.8.75 0 1.3.8.55.75.55 1.85t-.55 1.85q-.55.8-1.3.8-.8 0-1.35-.8-.55-.75-.55-1.85"/></svg>