<svg xmlns="http://www.w3.org/2000/svg" width="334" height="333" viewBox="-0.4 -0.15 333.7 333.45"><path fill="#0086bb" d="M8 196.55q7.65-8.2 20.85-11.85 7.5-2.05 13.1.1l3.65-3.35q8.15-6.4 18.25-6.7 7.6-.2 13.75 2.85l-20.05 31.25-19 13.7q-3.6-6.05-15.6-10.65L6.4 206.55q-2.6-.95-2.1-3.8.5-2.75 3.7-6.2"/><path fill="#006b95" d="M22.95 211.9q1.15-8.5 17.4-13.85 10.95-3.65 28.55-5.7l-11.35 16.5-19 13.7q-3.65-6-15.6-10.65"/><path fill="#eef3f6" d="M54.2 196.55q-2.25-4.85-7.2-8.5-2.8-2.05-8.65-4.95 4.4-3.1 11.6.35 6.15 2.95 10.15 8.05l-2.3 1.25q-2.5 1.65-3.6 3.8"/><path fill="#0086bb" d="M266.2 153.95q4.25 3.75 10 18.7 5.6 14.45 7.6 25.9L257 292q-30 23.4-77.05 25-17.25.55-33.45-1.95-13.75-2.15-20.2-5.25l-.35-.65-94.5-6.85q-.7-4.75 4.2-12 5.8-8.65 15.25-11.85l.25.1q-6.8-7.45-10.9-15-4.85-9.05-5.45-17.6-1.25-18.4 8.1-34.5 8.3-14.35 24.55-26.1 12.75-9.3 27.85-21.25 19.95-15.75 22.9-19.9 3.35-4.75 7.65-9.55 4.95-5.5 7.2-6.5z"/><path fill="#006b95" d="m50.9 278.45.25.1q-6.5-7.1-10.4-15-4.4-8.8-5-17.55-1.2-17.45 6.6-32.65 7.15-13.9 21.5-25.3-16.25 21.25-12.9 39 2.55 13.9 16.75 24.55 17.9 13.4 46.6 14.6 27.75 1.15 47.8-9.5-.3 3.9 1.6 6.3 1.95 2.4 5.5 2.4 5.25 5.35 16.35 7.8 10.15 2.2 22.15 1.4 11.85-.8 20.6-4.2 9.35-3.6 11.6-8.95 7.4 5.95 13 18.85 2.8 6.45 4.1 11.7-30 23.4-77.05 25-17.25.55-33.45-1.95-13.75-2.15-20.2-5.25l-.35-.65-94.5-6.85q-.6-4.1 5.15-12.15 6.45-9.05 14.3-11.7m75.95-143.9q5.1-5.45 7.2-6.4L138 147.9q2.8 18.9-3.15 14.45-9.55-7.25-13.75-8.6-7.8-2.6-16.85 2.7 11.25-9.25 13.95-12.25z"/><path fill="#0086bb" d="M100.1 214.75q16.4 6 29.6 11.7 42.1 18.25 35.55 26.55-9.25 11.8-42.35 62.5-4.3 6.65-7.25 8.6-3.75 2.5-13.3 4.15-20.3 3.5-47.65.7-25.15-2.55-35.4-7.7-5.75-2.9-4.9-5.05.65-1.65 5.7-3.55-.3-1.65 2.4-4.5 3-3.15 8.45-6.25 14.1-8.05 35.2-11.05-2.25-6.55-2.85-16.05-.7-10.75 1-21.5 4.4-27.5 22-43.45z"/><path fill="#006b95" d="M66.15 290.85q-2.6-7.65-2.55-19.7.1-14.05 4.05-27.6.05 21.9 6.05 38.65 7.15 19.75 21.95 30.25 2.25 1.6-5 2.9l-17.8 2.45q-28.25 3.75-29 9.8-17.15-2.6-24.55-6.35-5.8-2.85-5.6-4.6.15-1.65 6.4-4-.3-1.65 2.4-4.5 3-3.15 8.45-6.25 14.1-8.05 35.2-11.05"/><path fill="#0086bb" d="M325 305.25q-5.1 3.35-11.55 5.9-16.7 6.55-26.2 2.2-18.65-8.65-31-23.1-9.8-11.55-14.9-25.7l38.25-70.35q10.75 11.7 21.8 34 14.85 29.9 15.65 55l11.15 8.35q4.65 4.35 2.75 8.35-1 2.15-5.95 5.35"/><path fill="#006b95" d="M319.3 291.85q-5.6 2.4-6.75.8-1-1.45.4-4.4 2.5-5.35 3.7-10.6l.4 5.55 5.15 3.7 4.55 3.4q-1.45-.95-7.45 1.55"/><path fill="#006b95" d="m331.2 299.35-.25.55q-1 2.15-5.95 5.35-5.1 3.35-11.55 5.9-16.7 6.55-26.2 2.2-18.65-8.65-31-23.1-9.8-11.55-14.9-25.7-2.05-3.85-2.75-6.3-1.45-4.95 5.15 1.9l12.7 13.95q10.8 11.3 20.6 18.35 29.85 21.45 54.15 6.9"/><path fill="#eef3f6" d="M200.9 191.3q-17.05-.8-32.35-6.85-22.65-8.9-32.7-21.75-11.95-15.25-3.3-33.25l132.95 26.3q-1.05 11.35-10.55 20-8.9 8.1-23.4 12.25-14.35 4.1-30.65 3.3"/><path fill="#cacfd2" d="m132.55 129.45 19.7 9.6q-3.25 5.5-10.1 11.75l-9.1 7.75q-7.95-13.55-.5-29.1"/><path fill="#0086bb" d="M200.95 183.2q-20.15-.95-36.85-8.35-18.05-8-27.15-21.7-5.1-7.65-4.45-19.55.65-11.65 6.25-19.4l127 17.35q2.3 5.05 1.8 14.1-.5 9.95-4.45 15.4-8.3 11.5-25.8 17.4-16.55 5.65-36.35 4.75"/><path fill="#006b95" d="m210.35 138-38.2.1-19.9-.65q-4.4-1.45-10.05 4.5-5.65 5.85-5.25 11.2-5.1-7.65-4.45-19.55.65-11.65 6.25-19.4L265 131.55q1.35 3.2 1.6 10.1-2-3.6-56.25-3.65"/><path fill="#eef3f6" d="M254.2 146.9q-18.9 13.55-51.5 10.05-30.65-3.25-46.75-18.4-10.45-9.8-12.45-21.25l3 .1 1.6-2.1 117.65 12.6q1.35 2.8-1.5 8.05-3.2 6-10.05 10.95"/><path fill="#cacfd2" d="M156.4 139.6q-6.1-5.35-9.6-12.35-2.4-4.9-3.3-9.95l3 .25 1.85-2.6 23.15 4.75q-4.95 11.05-15.1 19.9"/><path fill="#0086bb" d="M261.8 81.2q3.75 7.4 3.3 14.05-.4 5.35-2.5 6.5 3.5 3.05 4.05 11.6.45 7.2-1.15 13.4-1.85 7.15-9.75 12.7-7.55 5.3-19.1 8.2-24.95 6.2-50.7-.9-18.25-5.05-29.5-17.55-4.45-4.9-6.6-9.8-2-4.5-1.3-7.2.25-6.9 1.65-15.95 2.85-18 8.7-28.4 3.3-5.9 18.85-7.25 13.95-1.2 32.95 1.55 18.6 2.65 32.75 7.7 15.3 5.45 18.35 11.35"/><path fill="#006b95" d="M243.45 69.85q15.3 5.45 18.35 11.35 2.5 4.85 2.95 9.85.55 6.05-2.15 10.7 4.2 3.65 4.4 12.55.1 6.2-1.5 12.45-1.3 5-5.7 9.3-1.5-10.4-5.85-14.2-3.9-3.4-11.7-2.55 4.6-3.35 4.1-8.65-.45-5.3-5.65-3.6-7.7 2.55-17.6 2.45-10.55-.1-19.15-3.25-14.85-5.45-18.55 7.9-11.95-1.25-18.55 8.25-2.35 3.3-3.6 7.4-1 3.25-.85 5.05-7.35-6-11.25-12.9-3.55-6.2-2.6-9.75.25-6.9 1.65-15.95 2.85-18 8.7-28.4 3.3-5.9 18.85-7.25 13.95-1.2 32.95 1.55 18.6 2.65 32.75 7.7"/><path fill="#922f00" d="M249.05 76.3q3.7 23.95 1.25 19.15-1.3-2.55-9.45-8.25-9.5-6.55-19.6-10.65-29.15-11.75-42.1 5.35-1.45-4.1-2.6-9.6-2.25-11.05-.7-18.2 2.1-7.05 8.3-7.95 4.15-.65 14.7 1.75 13.15 3 19.8 3.55 12.6 1 23.55-2.75 3.2 3.85 6.85 27.6"/><path fill="#eef3f6" d="m327.5 77.4-4-.9q-4.15-.55-4.6 1.4-.6 2.4.95 4.15t4.25 1.35q-.8 2.65-2.7 4.6l-1.75 1.45q-.95-.85-2.25-1.4-2.6-1.1-4.25.35-2.75 2.45-2.5 4.85.35 2.85 6.65 1.25 2.6 1.9 3.45 4.35.7 1.95.25 2.1-1.75.45-2.4 3.05-.65 2.75 1.35 4l-1.6 1.2q-.85.75-2.35 1.15-1.6.45-3.3.05l-1.4-.55q-.25-1.75-1.05-3.3-1.55-3.05-4.2-1.95-2.9 1.3-2.9 2.85 0 1.45 2.15 1.85 1.55 1.6 1.55 4.75-1.3-.65-2.65-.75-2.65-.15-2.6 2.55.05 2 3.95 4.45l-3.2 2.4q-3.55 2.3-5.2 1.8l-.15-3.2q-.15-1.9-.95-2.35-.7-.4-2 .3-1.45.8-3.05 2.8l-2.95-.4-1.35-.55q.25-1.3.05-2.6-.35-2.55-2.65-2.35-2.45.15-3.65 2.7-.8 1.7-1.1 4.85l-3.75-.95-1.45-.6 1.8-1.75q1.6-2.05.8-3.5-1-1.85-2.45-1.95-1.55-.1-2.5 1.95-1.3 2.9-2.35 3.7l-2.65-1.85.25-5.75 2.65-.3q2.5-1.15 1.8-5.2-.35-2.15-1.9-2.8l-2.55.15q-.8.5-1.25 1.35l-.3.75-1.95-5.15 1.7-43.9 43.45-.9q3.75 5.05 8.05 2.9 1.55-.75 2.7-2.25 1-1.35 1-2.25 0-1.8 2.8 3.2 2.7 4.8 1.4 5.2-3.65 1.05-4.45 1.45-2.7 1.3-1.05 3 2.7 2.7 9.7 1.3.9 2.4-.15 5.35-.5 1.5-1.2 2.5"/><path fill="#cacfd2" d="m263.75 92.45.25-2.65 1.25-31.9 32-.65q5.05-.1 5.75.05 2.15.45 2 2.9l-.65 3.1q-.9 2.95-.55 3.55l2.1 2.7q2.25 3.7.1 5.55-3.35 1.8-4.9 3.2-1.3 1.2-1.55 2.65l-.4 3.15q-.75 3.3-3.55 4.7-3.6 1.25-5.5 2.45-1.7 1.1-2.8 5-1.05 3.6-3.15 4.45-.95.4-2.8-1.05-2.15-1.65-2.95-1.7-.55-.05-3.8 1.25-2.7 1.1-3.4.2l-.9-1.25q-.55-.65-1.4-1l-3-.55q-1.8-.3-2.1-1.55-.25-.9-.05-2.6"/><path fill="#eef3f6" d="m174.7 76.6.7 3.4q.4 1.2 1.85 1.7 2.2.7 4.35 0l1.45 3.25q-3.25 1.95-2.05 5.9.55 2 1.8 3.55l-.2 1.9q-.65 2.1-2.95 3.1l-3.55.1q-1.8.85-2.45 2.75-.55 1.65 2.2 3.75 2.05 1.5 4 2.2.95.35-1.2 3.5t-2.9 2.6q-3.55-2.6-6.55-2.6t-3.25 3.8q-.1 1.95.1 4.3-.35.55-3 .5-2.8 0-4.05-.75-.25-.25-1.35-2.3-1.25-2.35-1.05-2.95 1.9-1.9.25-3.4-1.55-1.5-4.4-1.05-2.35.3-3.65 2.8-.75 1.45-1.85 4.8-2.45-.8-5.9.7l-3 1.65q-2.35-1.6-4.45-3.95.95-2.5.3-3.25-.6-.65-4.2-1.45-2.95-.65-3.2 3.55-.15 2.1.3 4.3-1.8-2.35-3.9-3.65-1.3-.8-2.65 2.25-.65 1.55-1.05 3.25-3.4-1.3-5.3-3.5 1.2-.3 2.35-2.15 1.5-2.45 1.15-5.9-.35-2.95-2.7-2l-2.3 1.5-2.6-2.6.5-2.05q.7-2.15 1.7-2.8 3.45 1.25 4.85-2.6 1.4-3.8-1.55-5.4-2.45-1.3-4.3.45-1.7 1.55-2.75 5.3-1.8-2.3-5.55-1.2l-3.35 1.5L96.7 91q2-3.5 3.85-5.6 2.2 4.6 5.4 4.6 2.8.05 4.35-2.9 1.15-2.1-.6-2.6l-2-.05q-1.85-2.6-2.6-4.15 3.9-1.2 4.8-5.05.9-3.9-2.45-5.45-2.8-1.3-2.85 1.3 0 1.35.5 2.9-4.7-.25-5.5-1.6-.05-1.55-2-3.65l-1.95-1.8.9-2.6q1.35-2.7 3.3-3.2 1.4 2.4 3.6 2.45 2.25.05 4-2.45 1.45-2.1-.3-4.8l-2.05-2.25 1.45-.8 3-2.35q2.55 3.75 5.85 3.7 3.5-.05 5.95-4.55l26.45 12.15q26.55 12.5 26.9 14.35"/><path fill="#cacfd2" d="m174.7 76.6.7 3.4q.4 1.2 1.85 1.7 2.2.7 4.35 0l1.45 3.25q-3.25 1.95-2.05 5.9.55 2 1.8 3.55.95 1.2-.3 3.2t-2.05 1.55q-5.05-3.1-7.85-2.65-1.4.2-3.85 2.35-.25.25.35 2.4.6 2.2.4 2.65l-.75 1.5q-.4.5-1.55.35-1.8-.2-4.45-2.35-2.85-2.25-4.5-2.6l-6.4.45q-3.9.3-5.5-2.4-.55-.9-.65-2.9-.15-1.75-.9-2.75-1.25-1.55-2.15-1.5l-2.45.25q-4.4-.2-6.9-1.35-3.5-1.55-4.7-5.25-.35-1.1.7-4 .8-2.3-.75-3.55-1.3-1.05-3.85-.65l-4.3.3q-1.3-.25-1.7-2.4-.5-2.75-1.1-3.45-1.1-1.25-3.15-2.45-1.25-.75-1.2-1.9.1-3 1.75-4.2 3.85-2.7 3.35-7.4l-.05-1.7 1-1.4q2.6-2.2 2.05-2.45l26.6 12.2q26.4 12.4 26.75 14.3"/><path fill="#ed8599" d="M246.75 83.15Q250.5 90 251 96.1q-.75 3.55-7.7 7.65-9.6 5.75-23.6 4.8-16.8-1.15-27.4-8.55-7.95-5.6-11.1-13.4.05-.35 1.05-1.3l1-.9-1.4-1.9q-1.3-2.05-.85-2.5 6.15-6.75 14.3-10.95 13.6-6.95 27.8-3.55 16.2 3.9 23.65 17.65"/><path fill="#ce7486" d="M246.8 83.25q3.8 6.95 4.3 13.1-.25 1.15-1.6 2.75-2.05 2.35-5.65 4.4.9-2.7-1.35-7.25-2.3-4.6-5.75-7-9.95-6.75-22.8-6.6-15.65.2-26.95 11.75l-3.25-4q-2.05-2.55-2.55-3.8.05-.35 1.05-1.3l1-.9-1.4-1.9q-1.3-2.05-.85-2.5 6.15-6.75 14.3-10.95 13.6-6.95 27.8-3.55 16.2 3.9 23.7 17.75"/><path fill="#ffe792" d="M201.85 48.9q4 12.75-1.4 47.25-4.35 27.75-8.2 38.3-1.3 3.55-2.7 3.85-1.3.3-1.5-2.55-.9-19.55-2-35.95-2.15-31.85-4.8-39.65-3.8-11.2 6.35-12.9 3.6-.6 8.25.1 3.85.6 6 1.55"/><path fill="#dbc77f" d="M186.65 47.4q6.55-1.5 15.3 1.3.95 3 1.4 8.8-14.1-8.5-20.05 12.7-1.1-7.3-2.05-10.05-3.65-10.7 5.4-12.75"/><path fill="#eef3f6" d="M285.4 3.1q1.6.9 2.85 2.35l-1.7 2.3q-1.4 2.55-.1 3.7l3.8-.1q2.25-1.55 2.45-4.6 3.4 2.35 4.45 4.45-1.75 1.05-3.2 2.55-2.85 3.1-1.25 5.55 1.7 2.55 4.15 1.6 1.55-.6 2.95-2.4.55-.2 2.95 1.95L305 22.7q-1.75.45-3.3 1.25-3.05 1.6-1.9 3.2 1.25 1.85 4.05.75 2.55-1 4.05-3.35 1.15.65 1.85 3.15l.5 2.35q-2.35.4-4.55 1.1-4.35 1.45-3.55 3.05.8 1.65 2.05 2.65l1.1.65q-1.65 1.3-2.85 2.75-2.4 2.95-.3 3.9 4.3 2 7.85-2.85 1.15-1.55 2.85 2.1l1.45 4-3.9.5q-3.55 1-2.1 3.6 1.45 2.65 3.15 3.15.85.25 1.4 0l-3.3 4.6-5.05.35q-2 .5-3.1 2.05-1.35 1.9.75 3.45 1.95 1.45 3.95 1l2.85-1q.75 2.9.2 5.8l-.75 2.3q-.5-.65-2.3-1.35l-3.25-.2q-1.75 1-2.5 2.7-.65 1.45-1.35 1.7-1.05.4-3.9-1.4l-2.6-1.9 1.75-1.1q1.3-1.35-1-2.65-2.7-1.5-5.55.5-2.85 2.05-1.25 4.25 2.1 2.85 4.2 3.9l-3.6 6.15-3.15 1.15q-3.6 1.05-5.75.55 4.3-7.4.2-7.05-2 .15-3.15 1.7-1 1.35-.8 2.75l-3.25.55-2.25-.05q.65-.6.9-1.6.5-2.05-1.65-4.2-1.7-1.65-2.45-1.2-.45.3-.95 2.05l-18.3-32.5q-1.8.75-3.8 1.95l-1.7 1.05q-7.25 3.15-15 3.25-8.2.1-21.15-3.05-15.75-3.9-21.75-.75-2.05 1.1-2.55 2.8-.4 1.4.2 2.1.75.9 3 1.35 2.25.4 2.5.75.7.9-2.35 5-.95-.2-2.25 0-2.55.4-4.05 2.35-1.45 1.95 1.15 5.75 1.35 1.9 2.95 3.4l-5.55 6.05q-.15-.8-.8-1.55-1.3-1.5-3.75-1.35t-2.65 4q-.1 1.95.3 3.85l-2.85.25q-2.85.2-2.7 0-1.5-5.25-4.4-5.5-1.65-.15-1.25 3.4.45 3.85.2 3.95-.7.35-3.65 0-3.05-.4-3.4-1.05-.35-.6 0-.95l.45-.35.2-.4.15-.2q.9-1.35-.05-2.55-1.05-1.4-4.15-1.6-2.8-.15-3.1 3.7-.2 1.95.2 3.9L139 86.65q-2.25-5.1-4.35-6.55 5.35-2.4 6.45-4.9 1.05-2.25-1.45-4.35l-4.75.1-2.35 2q-.45-1.15-.75-2.5-.65-2.6 0-3.25 3.5.2 3.7-2.2.15-2.15-2.4-5.15-1.95-2.3-4.2.1l-1.85 2.8-4.7 1.55q-.35-.45-.95-3.05-.65-2.85-.35-4 3-.75 3.4-2.6.4-1.6-1.3-3.95-1.3-1.8-3.8-1.05l-2.2 1.05-1.35-6 2.15-.25q2.45-.4 3.9-1.05 2.55 1.5 5.65-.5t2.7-4.75q-.3-2.3-4.25-2l-3.85.7q-2.15-2.75-2.1-4.45 2.85-.3 4.2-2.6 1.35-2.25-.25-3.7-1.3-1.15-3.7-.3l-2.1 1.1q-.7-1.3-1.25-2.75-1.15-2.9-.55-3.55.6-.6 3.4-1.55L125 17.2q.4 3.2 2.15 4.3 1.8 1.1 4.1-.65 1.95-1.45.65-3.65l-1.7-1.85 1.15-.9q1.5-1 3.3-1.3.6 3.25 3.7 4.15 3.2.9 5.45-1.95 1.95-2.45-1.15-3.95l-3.55-1-.5-5.25 3.25-1.45 3-.6.45 1.45q.75 1.65 2.2 2.45t2.05-2.25l.3-3.25 3.05-.8 2.7.55q-.45 1.5-.45 3.25.1 3.55 2.55 4.85t3.55-1.3q.55-1.3.6-2.9l1.65.15q1.85.6 3.15 2.7-.45 5.35 1.75 10.4 2.05 4.75 6 8.35 2.7-6.35 12.25-11.65 11.4-6.25 26.75-6.95 14.15-.6 25.95 5.75 11.65 6.25 16 16.5 6.45-4.8 9.15-8.85 3.15-4.75 3.35-11.4.3-.75 3-1.4 2.7-.7 2.6.15l-.45 3q-.05 2.15 1.9 1.65 3-.75 3.95-1.85 1.4-1.7 0-5.2 5.85-3.85 6.55-3.4"/><path fill="#cacfd2" d="M201.4 48.4q-10.5-1.95-16.95.4-2.55.9-3.6 2.25-.95 1.3-.15 2.25.75.9 3 1.35 2.25.4 2.5.75.7.9-2.35 5-.95-.2-2.25 0-2.55.4-4.05 2.35-1.45 1.95 1.15 5.75 1.35 1.85 2.95 3.35l-5.45 6.1q-.15-.8-.85-1.55-1.35-1.5-3.8-1.35t-2.65 4q-.1 1.95.3 3.85l-2.7.2-2.5-.1q-1.85-5.1-4.75-5.35-1.8-.15-1.55 2.9l.5 4.45q-.7.35-3.65 0-3.05-.4-3.4-1.05-.35-.6.15-1.25l.65-.7.1-.15q.9-1.35-.1-2.45-1.1-1.3-4.2-1.5-2.8-.15-3.1 3.7-.2 1.95.2 3.9l-6 .8q-1.55-3.5-4-6.25-.15-.15 1.55-1.05 1.65-.85 2-.95 3.3-1.25 4.9-3.7.9-1.4.85-2.65l-.8-2.85q-.8-2.15-.3-3.35.5-1.15 2.5-2.15 1.75-.85 3.9.3 2.5 1.25 4.05 1 1.25-.25 2.2-1.4l1.7-2.05q1.6-1.4 4.1-1.15l2.95-.15q1.35-1.05.95-3.05-.35-1.95-.1-2.2.8-.6 2.15-.65l2.25.15q3.05.25 5.5-2.6 3.3-3.85 4.55-4.5l.1-.1q2.3-1.15 5-1.55 2.75-.45 5.15.05l5.85 1.5zm45.15-1.8 2.2-1.2 2.3-1q1.5-.75 5.85-2.4l4.35.2q2.2.85 3.9 2.4.9.85 1.95 3.25 1.05 2.3 2.1 3.15 1.4 1.1 3.55.95l3.4-.35q2.25 0 3.3 2.45.5 1.2.05 2.85-.5 1.7-.1 2.75.5 1.5 3.45 2.15 2.75.65 2.95 2.1.15 1.05-1.15 2.3-1.45 1.45-1.65 2.2-.75 2.8 2.6 5.6l5.4 3.8-2.1 3.5q-1.65 2.3-2.6 2.8l-2.85.9-5.4.25q2.2-1.95 2.3-4.45.15-2.55-2-2.35-2 .15-3.15 1.7-1 1.35-.8 2.75l-3.25.55-2.25-.05q.7-.6.95-1.65.5-2.1-1.65-4.25-2.25-2.25-3.1-1.6-.35.25-.9 2.3l-.55-1.2-.75-1.15-3.3-5.95zm-58.5-12.4q-2.4 0-7.85-3-5.15-2.8-6.25-4.35 1.45-2.9 5.25-6.2 4.05-3.5 9.15-5.9-3.15 5.2-3.5 10-.45 5.6 3.2 9.45"/><path fill="#ffe792" d="M243.2 47.85q.6-.65 5.3-2.5 5.55-2.2 8.95-1.8 4.8.55 5.95 6.1 3.1 14.6.2 42.35-2.45 23.35-5.7 32.75-2.1 6.15-2.5 5.35l-.35-6.65q-.3-7.2-4.2-33.95-4.5-30.15-7.4-37.7-1.15-2.95-.25-3.95"/><path fill="#dbc77f" d="M243.05 47.85q.55-.7 5.1-2.5 13.25-5.3 15.25 4.3l.15.65q-5.55-2.45-10.5 2.1-4.9 4.45-6.25 12.9-1.8-9.4-3.35-13.5-1.2-3-.4-3.95"/><path fill="#0086bb" d="M222.05 23.5q7.8.75 11.8 4.3 3.5 3.15 3.9 8.25.35 4.05-3.3 5.9-3.5 1.7-11.35 1.7l-12.95-.55q-5.35-1.15-5.9-6-.55-5.25 6-9.8 6.15-4.35 11.8-3.8"/><path fill="#006b95" d="M206.6 30.55q.1 7.4 6.45 9.45 4.8 1.55 21.9 1.65-3.45 2-11.85 2l-12.95-.55q-5.35-1.15-5.9-6-.35-3.2 2.35-6.55"/><path fill="#ffe792" d="M248.45 24.9q1.2 2.05 1.8 4.35.6 2.25.4 4l-6.6 3.05q0-4.35 1.25-7.55 1.25-3.3 3.15-3.85"/><path fill="#fff" d="M248.15 24.95q1.45-.4 3.45 1.1 2.2 1.65 3.6 4.8l-4.55 2.25q.35-3.4-2.5-8.15m-49.7 11.45q-4.95.75-13.5-2.9l-7.55-3.85q1.2-4.05 4.2-6.25 2.7-2.05 6.7-2.4l1.3.3q1.55.55 3 1.8 4.55 4 5.85 13.3"/><path fill="#ffe792" d="M198.2 36.3q-3.55.65-8.05-.9l-3.8-1.65q-1.1-3.05.6-6.35 1.45-2.8 3.95-4.45l.95.25q1.1.5 2.15 1.6 3.25 3.45 4.2 11.5"/><path fill="#0d131a" d="M42.35 180.95q8.85-7 20.75-7.85 10.95-.85 16.9 3.55l-2.8 1.75q-5.85-2.95-13.35-2.75-9.8.3-17.75 6.5z"/><path fill="#0d131a" d="m38.85 183.85-3.4-.45q9.3-4.85 16.05-1.4 3.75 1.9 9.25 8.95l-1.35 1.1q-3.9-5-9.9-7.8-6.75-3.1-10.65-.4"/><path fill="#0d131a" d="M28.3 185.85q-10 2.8-16.9 8.55-6.15 5.1-6.3 9.05-.05 1.65 1.6 2.25l5.3 1.7q12.45 3.7 15.2 4.8 8.95 3.65 12.1 8.85L37.8 223q-4.85-8.15-28.55-13.1-6.25-1.3-8.2-2.9-1.45-1.2-.9-3.3Q1.9 197 9.3 191.65q7.45-5.45 18.15-7.75 10.25-2.2 16.75 1.1 3.8 1.9 10 8.85l1.65 1.8-1.3 1.2L52.9 195q-5.7-6.35-10.05-8.4-6.25-3-14.55-.75"/><path fill="#0d131a" d="M125.3 133.3q4.4-4.75 8.3-6.2l-.45 3.05q-1.9.85-6.9 6.2-4.85 5.3-8.25 10.1-2.9 4.1-22.65 19.4-13.6 10.55-27.25 20.4-16.5 12-24.45 27.2t-6.75 32.5q.95 13.15 10.1 25.75 7.7 10.5 18.35 17.4l-1.3 1.95q-12.3-5.95-20.9-18.05-9.1-12.75-10.3-27.3-1.6-19.9 6.7-34.45 7.35-12.8 25.4-25.95 9.85-7.1 29.25-22.65 20.7-16.6 23.05-19.55 6-7.6 8.05-9.8"/><path fill="#0d131a" d="m50.55 277.35.75 2.25q-7.6 2.55-13.75 10.75-5.4 7.2-4.95 10.7l-2.3 1.4q-2.9-4.6 4.25-13.35 7.1-8.75 16-11.75m76.25 31.35q6.75 3.25 20.75 5.3 16.15 2.4 33.4 1.7 46.3-1.95 75.35-24.6l2.15 2.3q-31.35 24.45-78.7 26.05-17.8.6-33.8-2.25-14.1-2.55-20.15-6.35zm138.7-153.4 1.25-3.05q5.25 4.7 11.25 18.9 6.75 16.05 7.15 29.15l-2.5-1.55q-2-11.6-7.65-25.8-5.6-14.15-9.5-17.65M147.35 278.95l.5-2.15q7.45-1.6 12.7-5.35l6.35-5.65q2.25-1.95 2-.6-.2 1.3-2 3.6-5.5 7.15-19.55 10.15m101.65.75.7 2.95q-4.05-1.15-9.05-5-4.25-3.3-5.7-5.5-1.1-1.75-.4-1.8.75-.05 1.95 1.55 1.4 1.85 4.75 4.1 3.95 2.65 7.75 3.7"/><path fill="#0d131a" d="M85.45 209.05q3.5-3.05 3.35-1.75-.2 1.35-2.65 3.6-14.5 13.3-19.05 42.2-1.75 11.1-1.55 22.05.15 9.8 1.75 15.3 1.6 5.6 1.55 6.7-.05 1.6-3.3-4.85-18.1 2.1-30.8 8.55-9.2 4.65-12.65 9.6-.95 1.4-.85 1.95l.2 1-4.65 1.9q-3.35 2.45 3 4.9 10.05 3.95 34.45 6.75 29.05 3.4 47.9.15 9.4-1.6 13-4 2.6-1.8 6.8-8.2l24.7-37.5q14.65-21.8 17.8-25.2 3.3-3.5 3.5-2.45.15 1-1.85 4.1-17 25.65-40.75 62.15-4.8 7.45-7.05 9.25-3.75 2.9-13.25 4.55-20.5 3.5-49.45.35-25.85-2.85-36.85-7.85-8.4-3.85-5.65-7.1.8-1 5.9-3.3-1.9-4.9 11.7-11.8 14.25-7.2 34-10.2-1.15-3.9-1.9-8.8-.9-5.8-.9-10.95 0-17.8 3.9-30.55 5.55-18.05 19.65-30.55m247.8 88.05q.05 1.55-1.4 3.35-7.1 8.8-21.35 13.7-14.95 5.15-24.4.8-18.35-8.5-29.6-21.7-9.3-10.9-16.25-28.35-1.3-3.2-.6-4.2.65-1 2.8 3.45 6.7 13.95 14.25 23.45 13 16.35 31.05 24.65 8.95 4.15 24.3-2.2 5.85-2.4 10.9-5.7 4.7-3.1 6.3-5.3 1.55-2.15-1.85-5.75-2.55-2.7-10-8.2-.15 4-1.2 4.75-.6.4-.75-4-.25-8.2-.65-12.3-1.85-20.65-16.95-48.55-9.65-17.9-19.15-30-1.65-2.1-1.5-3.2.2-1.2 3.25 1.6 2.6 2.45 7.55 9.15 6.65 9.15 12.3 19.6 16.7 30.8 17.85 60.4 10.45 7.75 13.55 11.3 1.5 1.75 1.55 3.25"/><path fill="#0d131a" d="M55.35 307.2q4.4.2 4.25.85t-4.4.9l-18.2 2q-15.55 2-18.75 3.3-3.05 1.25-1.1-.45l2.55-1.95q3.35-1.7 17.45-3.35z"/><path fill="#0d131a" d="M52.05 300.3q3.75-.35 4.2 0 .5.4-3.3 1.35-8.3 1.6-14.15 3.15-11.1 3-15.45 7l-2.5-1q4.65-4.25 16.5-7.55 8.6-2.35 14.7-2.95m116.8-116.7q19.65 7.75 41.6 6.8 22-.95 37.1-10.2 7.7-4.75 12.05-11t5-13.5l2-.7q-.75 8.1-5 15.2-4.65 7.65-12.4 12.45-15.45 9.45-38.5 10.55-23.15 1.05-43.1-6.85-13.15-5.2-22.1-11.85-11.9-8.95-15.45-20-4.15-13.15 1.7-25.4l1.6.75q-6.1 12.65-1.65 24 3.95 10 15.6 18.4 8.9 6.4 21.55 11.35"/><path fill="#0d131a" d="M203.9 182.1q19.4.4 35.05-5.45t23.2-16.25q2.9-4.1 3.55-13.55.6-8.9-1.1-12.7l1.45-3.05q3.4 2.45 3.4 13.05 0 11.5-5.4 17.6-9.4 10.7-24.2 16.85-16.25 6.75-35.3 6.35-22.2-.4-40.85-8.9-18.55-8.5-27.75-22.25-5.35-8-5.05-19.1.2-10.55 5.1-16.6l1.95 1.3q-3.9 5.8-4.35 15.3-.5 10.65 4.3 17.8 8.85 13.3 26.6 21.25t39.4 8.35M256 30l-1.7 1.25q-3.8-10.3-15.25-16.35-11.35-6.05-25.6-5.4-13.15.55-24.3 5.85T175.2 27.7l-1.95-1.25q3.6-7.3 13.2-12.6 11.2-6.25 26.4-6.9 14.65-.6 26.6 5.95Q251.05 19.3 256 30m-71.3 60.15v2.95q-2.15-2.6-4.15-6L182 86zm-6.2-13.9q0 2.1 1.3 5.35h-1.85q-1.2-3.35-1.2-5.35zm72.8 17.7.85 2.4q-.9 4.05-8.25 8.6-10 6.2-24.15 5.25-11.5-.75-20.85-5.65l.9-2.05q8.85 4.4 19.95 5.15 13.7.9 23.75-5.75 3.35-2.2 5.75-4.95 1.85-2.1 2.05-3"/><path fill="#0d131a" d="M183.4 75.25v1.95l-.2 1.9-1.05 1.45-1.2 1.25q-.8.4-1.4-.4l-.5-.85q1.95-3 4.35-5.3m67.8 20.1L250 96.8q-1.55-11.1-9-19.25-7.5-8.25-18.6-10.75-9.2-2.15-18.95.35V64.7q9.7-2.15 19.35 0 12.25 2.8 19.55 10.25 7.85 8 8.85 20.4M228.75 123q-3.7.45-3.75-.35-.1-.8 3.45-1.35 4.55-.7 10.65-2.9 8.95-3.2 15.05-7.85v1.6l-.2 1.55q-9.65 7.4-25.2 9.3m36.55-34.35q1 2 1 4.8-.05 4.2-2.65 8.95l-.4.7.05-4.1q2.1-5.35.6-9.15l.4-2.75q.75.75 1 1.55m58.85-29.7q3.15 5.65.6 5.75-1.65.05-3.25.85-1.5.8-1.75 1.6-.25 1.1 2.15 1.65l6.65-.25q1.85-.4 1.15 5.45-.75 6-1.95 4.75-1.05-1.1-3.9-1.4-2.75-.25-3.5.35-.6.55-.45 1.8.1 1.15.75 1.9 1.15 1.25 3.8 1.15 2.25-.05-.9 4.35-3.2 4.45-4.45 3.4-1.9-1.65-3.2-1.85-1.2-.25-2.2.7-1.2 1.05-1.75 2.25-.65 1.25-.25 2.05.35.65 1.95.7l3.05-.55q1.45-.5 3.8 3.45t1.25 4.45q-1.9.8-2.05 2.9-.1 1.75.9 3.05.6.8-.45 2.05-1.2 1.45-3.9 2.1l-3.95-.15q-2.4-.55-2.1-1.45.3-.95-.3-2.5-.6-1.7-1.65-2.25-.85-.45-1.9 0-2.3 1-2.2 2.2.05.5 1.95 1.4 1.3 1.3 1.7 4.05.35 2.75-.85 2-1.35-.8-2.55-.75-1.25.1-1.6 1.05-.7 2.05 3.35 4.4 1 .6.8.95l-.85.85q-1.15 1.15-3.85 2.6-3.65 1.9-5.65 1.2-.35-.1-.25-2.55.05-2.5-.8-2.9-.7-.35-1.65.4-1 .7-1.5 1.95-.45 1.05-3.75.5-3.25-.55-2.85-1.3.4-.85.35-2.05-.05-1.3-.6-1.95-.5-.5-1.4-.45-1.6.1-2.85 2.65-1 2.05-1.25 4.25-.15 1.65-3.8.35-3.75-1.3-2.9-2.3l2.05-2q1.15-1.35.5-2.45-.9-1.75-1.8-1.7-1 0-1.7 1.55l-1.55 3.8q-.55 1.35-2.2.35l-1.35-1.05-1.2-1.2q-.7-.6-.25-4 .4-3.4 1.35-2.8.9.6 1.55.35l1.4-1.1q1.15-1.15.7-3.95-.3-1.65-1.45-2.2l-1.95.1-.8.55-.45 1.05q-.5 1.3-1.4-.25l.4-1q.55-1 1.5-1.6l3.3-.15q1.8.85 2.2 3.25.3 1.75-.1 3.25-.35 1.45-1.25 2.3-.7.7-1.6.8l-1.5.05q-.55 0-.45 2.1l.25 2.55 1.8 1.25q1-1.25 1.8-3.05 1.05-2.35 2.9-2.35 2.05-.1 3.3 2.3.4.7.4 1.4 0 1.15-.85 2.5-.75 1.25-1.45 1.5-.4.2 1.5.8l1.8.1q-.1-1.35 1.05-3.85 1.6-3.4 4.25-3.55 1.55-.1 2.55.9.95 1.15.95 3.2l-.05 1 1.55.3 2 .1q1.25-2 2.9-2.65l2.45-.05q.95.45 1.25 1.85l.15 2.8.05 1q1.15-.05 4.1-1.65t2.3-1.8q-.95-.25-2.35-2.35-1.6-2.4-.85-3.85.7-1.4 2.45-1.4l2.55.35q-.25-2.3-1.2-3.3-2.25-.55-2.4-2.2l-.05-.25q0-2 3.4-3.5l3.15.05q1.3.7 2.05 2.2.6 1.15.7 2.3.05.85 1.55 1.15 1.35.25 2.6 0 1.15-.25 2.15-.8 1.05-.65.8-1-1-1.35-1.05-2.25v-.2q0-1.25.6-2.55.65-1.3 1.55-1.85t-.9-3.3-2.5-2.25q-1.25.95-3.55.55-2.15-.4-2.8-1.55-.7-1.35.25-3.5.8-1.8 2.25-3.1 1.65-1.45 4.05-.8 1.5.4 3 1.5 2.2-1.6 3.4-4.4-2.4-.1-3.8-1.65-1.35-1.5-1.2-3.6.1-2.05 1.35-2.7 1.35-.8 4.2-.5 2.6.2 3.4.8.65.5 1.2-2.85.5-3.4-.2-3.15l-4.05.2q-3.7-.3-5.35-1.95-.7-.75-.7-1.55l.05-.5q.3-1.15 2.7-2.3 1.6-.75 2.95-1.1.55-.1-.95-3.2t-1.95-3.2l-1.2 1.95q-1.6 2.15-4.85 2.4-1.6.15-2.9-.5-.95-.5-2.3-1.8l1-1.1q2.75 3.65 5.95 1.3 1.75-1.25 3.4-4.1 1.1-1.85 4.3 3.9"/><path fill="#0d131a" d="M295.55 8q3.25 2.95 2 3.8-2.05 1.35-2.75 1.95-1.5 1.4-1.9 3.1-.1.6 1 2.1 1.15 1.55 1.75 1.55 1.6 0 3.55-2.35.55-.7 3.95 2.05 3.35 2.75 2.05 3.2-4.55 1.5-4.95 2.65l.6.85q.75.7 1.25.7 1.25-.05 2.85-1.1 1.55-1.05 2.65-2.6 1.1-1.5 2.65 2.75t.05 4.35q-1.8.1-4.25.85-2.8.85-2.9 1.7-.15 1.2 1.55 2.5.95.75 1.1 1.3.15.65-.7 1.35-3.75 3.1-2.35 4.35 1.35 1.25 3.35.6t3.3-2.7q1.8-2.85 4.4 2.15 1 1.85 1.2 3.45.2 1.7-.8 1.65-4.55-.1-4.9 1.05-.45 1.35.6 2.9 1.05 1.65 2.7 1.85 1.6.2-.45 3.5-2.05 3.4-3 2.75-.75-.55-2.25-.4l-2.4.45q-1.85.4-2.55 1.85t.6 2.4q1.8 1.35 3.25 1.2.8-.1 2.75-1.25 1.6-.9 1.3 4.65-.35 5.55-1.9 4.6-3.05-1.95-4.45-1.5-1.4.4-3.3 3.95-.55 1.1-3.4-.05-2.35-.95-4.35-2.5-.75-.55-.65-.9.05-.3.85-.8 1.2-.65 1.3-1.3l-1.05-1q-1.35-.8-3-.4-1.55.35-2.5 1.45-.9 1-.05 2.65 1 1.85 4 3.65.95.55-1.1 3.7l-3.2 3.95q-.9.9-4.85 1.4l-4.45.15q-.85-.35.55-2.8 1.6-2.75 1.2-3.7-.25-.6-1.1-.55-1.65.1-2.6 1.4-.85 1.1-.7 2.25.1 1.35-1.25 1.45l-5.05.25q-.8-.05-.85-.6-.05-.5.5-1.05.5-.5.2-2.05-.3-1.65-1.05-2.4-1-1-1.85-1-.65 0-.75.4l-.2-1.25q-.05-1.3.5-1.45 1.3-.4 3.8 2.1 1.45 1.45 1.45 4.1v.2l-.3 1.25 2.15.15q1.2 0 1.3-.5.25-1.75 1-2.7 1.35-1.8 3.55-1.95 1.85-.15 2.55 1.4l.25 1.45q0 .65-1 2.45-.8 1.55-.55 1.65l3.1-.6q2.55-.7 3.1-1 4.75-5.05 3.9-5.25-1.25-.3-3.75-3.7-.6-.8-.6-1.85 0-1.4 1.1-2.5 1.3-1.45 3.3-1.9 2.15-.5 3.95.5 1.75 1.05 1.75 2.25v.15q-.05.45-.9 1.15-.8.6-.65.75 4.7 3.15 5.05 2.55l.85-1.6q.8-1.3 2.1-2.1 1.65-.95 3.5-.7 1.5.2 2.5 1.05.75.65.8-2.75.05-3.5-.45-2.9-.8 1-2.7.85-2-.1-3.75-1.45-1.95-1.5-1.3-3.6.65-2.2 3.6-3.05 3.5-1 5.2-.3l1.65-2.05q1.2-1.55.8-1.45-1.5.3-3.2-1.75-1.8-2.15-1.05-4.1.45-1.15 1.7-1.75 1.15-.5 3.5-.75 1.05-.1-.45-2.9-1.5-2.75-2.1-1.55-.9 1.95-3.25 2.7-2.45.85-4.95-.3-1.15-.5-1.35-1.7v-.2q0-2.2 3.95-5.35-1.95-1-2.7-2.6-.6-1.3-.25-2.05.6-1.2 4.2-2.3l3.75-1.15q.3-.3-.3-1.75-.6-1.4-1.2-2.1-1.15 1.45-2.75 2.4t-3.05 1q-1.9 0-2.95-1.45-.4-.6-.4-1.25l.1-.7q.3-.9 2.5-1.95l2.1-1.2q0-.45-1.7-1.75-1.65-1.3-1.95-1.15l-1.55 1.25q-1.55 1.1-2.65 1.1-2.05 0-3.5-2.2-.7-1-.7-2.25l.1-.9q.35-1.7 2.3-3.65 1.5-1.5 2.35-1.9.5-.2-1.2-1.9-1.7-1.65-1.8-1.1l-1.15 2.25q-1.2 1.7-2.35 2.2-2.15.95-3.7-.45-.85-.75-.85-1.8l-.05-.15q0-1.5 1.85-4.1.3-.45-.5-1-.65-.45-1.55-.75-.55-.2-2.6 1.05l-2.6 1.6q.55 1.55.55 2.7 0 1-.4 1.9-.55 1.15-2 1.85l-2.75.95q-1.25.3-2.05-.5-1.1-1.2-.4-4.4l-2.8.3q-1.4.4-1.35 1 1.05 9.8-9.95 18.7-8.9 7.2-17 8.7l-2.1-.1q.05-.55 2.1-1.2 8.1-2.55 14.9-8.2 9.5-7.9 10.7-18.45.2-1.6 3.85-2.2 3.7-.65 3.3.6-.35.9-.3 2.5.05 1.7.65 1.65 3.3-.6 3.95-1.85.35-.65.2-2.05-.15-1.35-.6-2-.4-.6 2.9-2.45 3.1-1.8 3.95-1.85.8 0 2.55 1.35 1.8 1.45 1.2 2.1-2.35 2.6-2.25 4.2 0 .35.9.85l1.75.2q.95-.4 1.7-1.6.85-1.3 1.1-2.85.3-1.65 3.55 1.3M184.3 96.85q-2.4-29.05-4.65-36l2.4-1q2.35 7.15 4.7 36.2l2.3 33.3q.4 5.75.85 6.7.45.9 1.5-1.9 2.2-5.85 5.75-24.95 4.65-25.15 4.65-43.55 0-9.95-1.1-17.05l2.45.65q3.4 19.4-1.9 51.25-3.85 22.95-7.9 34.1-.95 2.65-1.8 3.8-1 1.4-2.15 1.2t-1.7-2.5q-.45-1.95-1.05-8.2z"/><path fill="#0d131a" d="m182.2 84.8-1-2.3-4.15-.15q-1.6-.55-2.25-3.2l-.4-2.95 1 .35.55 2.45q.6 1.75 1.55 2.05 2.95.95 3.9 0 .4-.5 1.55 1.9 1.2 2.3.5 2.6-.75.35-1.3 1.1-.55.7-.7 1.55-.3 1.65.75 3.85l1.15 1.9.35.25q.3.3.25.85-.25 1.45-1.5 3.7-1.65 2.85-2.75 1.65-1.2-1.35-3.45-.2-2.25 1.2-1.55 2.45l1.45 2.55q1.3 1.6 4.35 2.7 1.25.45-1.25 4.35-2.55 3.85-3.35 3.1l-2.75-1.75q-2.2-1.05-4-1.2-1-.15-1.6.55-.65.7-.7 3.65-.05 2.25.2 3.85.15 1.05-4.5.85-4.7-.15-4.55-1.15.05-.6-1.3-3.15-1.25-2.4-.9-2.9l1-1.2q.4-.6.2-.95-.8-1.6-4.05-1.15-1.75.3-2.9 1.65-.95 1.15-1.7 3.3-.5 2.6-1.6 2.35-1.75-.35-5.15.9-3.1 1.1-3.1 1.35l-.85.05q-2.45-1.65-4.55-4.05l-.15-.75q.75-1.9.5-2.4t-3.9-1.35q-1-.25-1.55.3-.75.7-.75 3.35 0 1.95.25 3.35.15.75-.4.9-.45.15-.85-.3-1.95-2.4-3.75-3.5l-.25-.05q-.6.25-1.35 2.2-.65 1.7-.95 3.4-.2 1.4-4.1-1.55-3.95-2.95-2.55-3.2 1.5-.25 2.55-2.15 1.15-2.2.85-5.2-.25-1.4-.75-1.55-.5-.2-1.55.3t-1.5 1.15q-.6.85-1.35.15l-1.4-1.5-1.45-1.9q-.05-1.15 1.25-3.65 1.45-2.85 2.7-1.9 1.3.95 2.6-.55 1.05-1.25 1.25-2.65.4-2.25-1.55-3.3-1.4-.8-2.6-.3-2.05.85-3.5 6.05-.45 1.25-1.25.25-1.45-1.8-4.6-1.05-2.45.6-3.4 1.55-.75.8-2.35-4-1.6-4.6-1.45-5.8.1-.9 2-3.35 1.75-2.3 2.45-2.8 1.05-.8 1.3 1 .2.9 1.4 2.25 1.35 1.55 2.45 1.65 1.2.1 2.4-.65 1.25-.8 1.9-2.05.55-.95.3-1.3-.15-.25-.9-.35l-1.25.05q-.85.35-1.2-.4l-2.65-4.3q-.3-.55-.25-.7.05-.2.7-.3 1.45-.25 3.1-1.95 1.7-1.75 1.8-3.2.15-2.65-2.2-3.85-1.55-.8-1.85.7-.2 1.3.45 2.6.45.9.15 1.15l-.35.05-3.85-.45q-2.95-.45-2.9-1.05.2-1.7-1-3.3-.8-1.05-2.5-2.35l-.75-.9q-.1-.4.25-1.3 1.8-4.8 4.8-5.55l1.5 1.25q1.65 1.2 2.35 1.25 1.85.1 3.2-1.85.85-1.25.1-3.15-.7-1.95-2.35-2.85-.6-.3 2.35-2.85 2.85-2.45 3.4-1.2.4.85 1.95 2.05 1.85 1.55 3.2 1.4 1.8-.2 3.4-1.5 1.5-1.25 1.95-2.7l1.95.1q-.5 1.8-2.65 3.5-2.25 1.8-4.5 2-1.1.1-3.35-1.35l-2.4-1.8q-.35-.35-1.85.8t-1.25 1.5q2.2 2.85 2.2 4.5 0 1.3-.8 2.4-1.95 2.9-4.65 2.8-2.15-.15-3.75-2.3-2 .85-3.15 4.6 3.9 3.2 3.9 5.45v.05q.7.7 3.8 1.05-.25-.9-.25-1.9 0-1.5.75-2.15 1-.9 3.1 0 1.4.65 2.2 1.95.8 1.25.8 2.85v.45q-.15 1.85-1.3 3.5-1.3 1.8-3.4 2.65.95 1.75 2 3.15 2.3-.15 3.1.9.75 1-.2 2.8-.9 1.7-2.45 2.65-1.55.9-3.2.8-.85-.05-2.55-1.45t-2.05-2.3q-.3-.75-1.6 1.3l-1.6 2.75q1.8 7.8 2.25 7.2.5-.75 3.25-1.3 3.2-.55 4.95.8 1.45-4.4 3.85-5.45 1.85-.75 3.85.35 2.35 1.3 2.35 3.9l-.1.85q-.3 1.85-1.95 3.5-1.7 1.75-2.9 1.1-1.15-.6-2 1.35-.85 1.85-.45 2.55.45.7 1.85 1.85 2.35-1.95 4-1.35 1.35.55 1.65 2.75l.05 1.35q0 2.25-1.15 4.35-.95 1.8-1.8 2.1-.65.2 1.3 1.65 2 1.45 2.25 1.05l1.05-2.5q1-2.3 1.9-2.65l1.55.15 2.55 2.1-.05-1.35q0-3.15 1.25-4.35 1.05-1.05 2.85-.7l3.25.9q1.2.45 1.6 1.2l.25 1-.55 2.15 3.65 3.25q1.55-1.05 3.4-1.75 2.8-1 5.05-.55l.5-1.35q1-2.75 1.8-3.9 1.35-1.9 3.55-2.25l3.6.35q1.7.6 2.3 1.85l.3 1.1-.7 1.25-.6 1.05 2.35 4.05q.35.65 2.6.7l2.65-.15q.35-.05.35-1.05l-.1-1.45q0-3.35 1.4-4.85 1-1.15 2.75-1 1.65.15 3.6.9 1.85.7 2.6 1.4.6.6 2.35-1.9 1.75-2.55 1.2-2.7-.8-.15-3.05-1.9-2.6-2-3.05-3.3v-.8l.15-.8q1.05-1.9 2.75-2.85 1.85-1.05 3.75-.4 2.6-1.25 2.6-3.8l-.05-.2q-2.15-3.1-2.15-5.7l.1-1q.35-1.75 2.15-3.15"/><path fill="#0d131a" d="M259.55 44.8q-2.6-1.25-7.75.1-4.7 1.25-8.4 3.7 3.95 8.9 8.4 40.3 3.6 25.45 3.95 34.55l.15 4.85 1.35-3.75q2.2-6.45 4.45-22.6 2.6-18.55 2.6-33.6 0-11.3-1.6-18.55-.75-3.8-3.15-5m-8.7-1.25q6.4-1.8 9.3-.35 3.55 1.8 4.45 6 3.1 14.65.7 42.25-2.1 23.8-5.3 33.15-1.3 3.75-2.6 5.5-1.05 1.45-1.8 1.3-.65-.1-1.15-2.2t-.6-5.35q-.4-9.5-4-35-4.4-30.65-8.25-39.4-9.5 3.5-18.1 3.5-8.05 0-20.5-3.25-8.8-3-15.4-1.5-4.75 1.05-6.3 3.5-.45.75-.05 1.15.6.7 2.8 1.25l3.1.65q1 .3-.8 3.3-1.75 3-2.65 3.05h-2.4q-1.85.35-3.15 2.05-1 1.35 1.3 4.7l2.75 3.7q.3.65-2.5 3.9-2.75 3.2-3.4 3.2l-1.5-1.55q-1.35-1.45-3.2-1.35-.85.1-1.25.65-.85 1.3-.45 4.1l.35 2.9q-.4.65-6.85.15-.25-.05-.4-.9l-.55-1.65q-1.6-2.5-3.25-2.65-.25 0-.5.6-.35.7-.35 1.65l.6 2.8q.45 1.75-.2 2.1l-4.65.1q-3.85-.4-4.25-.95-.35-.45.75-2.3l1.1-1.95q-.8-1.55-4-1.8-1.1 0-1.55.6-.9 1.05-1.1 3-.25 2 .5 3.15.7 1.1-3.3 1.7l-4.15-.15q-.5-2.9-2.8-5.35-1.65-1.8-1.35-1.95l3.45-1.8q2.75-1.65 3.05-3 .45-1.95-1.25-3.4-1.65-1.35-3.35-.3l-2.75 2.3q-1.3 1-2.25-2.95t.45-3.75q2.6.4 3.3-1.15.4-.8-.15-2.25-.6-1.4-1.9-3-.8-.95-1.65-.85-.9.15-1.95 1.55-.75 1-1.25 2.05-4.8 2.3-5.6 2.1-.65-.15-1.65-4.45-1.05-4.3-.15-4.1t2.05-.55l1.35-1.35q.5-1.3-1.15-3.6-.5-.8-1.45-.95l-2.35.35-1.65.75q-.65.25-1.65-3.55t.3-4l2.9-.1q1.65-.05 2.45-.8.65-.65 2.45 0l2.7.1q1.3-.85 2.2-2.1 1-1.4.85-2.4-.15-1.05-2-1.3-2.1-.3-5.2.7-1.15.4-2.45-2.9t.05-3.3q2.4-.05 3.55-1.95 1.1-1.75.1-2.7-1.25-1.1-4.85.95-.7.4-2.1-2.75-1.45-3.15-1.05-4.25.5-1.3 5.5-3.25 5-2 4.85-.85-.15.9.55 2.4.75 1.5 1.55 1.85 1.35.55 3.05-.75.65-.5.65-1.4 0-.75-.65-1.45l-1.4-1.45q-.85-1 2.5-2.95 3.3-1.9 3.5-.2.1.95 1 2.2 1.05 1.4 2.2 1.65 2.65.7 4.6-1.75.8-.95.55-1.65-.5-1.25-4.8-2.2-.65-.15-1.1-2.95-.45-2.75-.05-3.45.35-.7 4-1.55l3.7-.15q.1 2.2 2.25 3.4l.3.05q.55-.3 1.05-5.35.05-.9 3.9-1.05 3.8-.2 3.2 1.4-.65 1.75-.55 3.45.15 2.7 2.3 3.85l1.7.2q.65-.4.95-1.9l.4-2.3q.35-1.05 3.5.25 3.2 1.3 2.95 3.5-.3 2.95 1.05 7.5 1.6 5.35 4.6 8.5 8.35 8.95 27.05 11.95 1.6.3 1.8.9t-1.1.45q-7.7-.85-12.9-2.45-9.45-2.9-15.55-8.9-3.8-3.75-5.7-10.4-1.6-5.65-.9-7.7.15-.5-1.3-1.3-1.15-.65-2.05-.95-.55 3.2-2.1 4.05l-3.05-.15q-2.9-1.55-2.9-5.65 0-1.4.25-2.35.1-.6-2.1-.5-2.25.1-2.05.7.2.75-.25 2.7-.55 2.2-1.5 2.75l-1.65-.05q-2.45-1.3-2.65-3.25-.1-.7-2.55 0t-2.6 1.3q-.2.75.4 4.15 4.5.85 5.35 2.95l.15.9q0 1.05-.9 2.15-1.15 1.5-2.8 2.1l-3.25.2q-1.35-.35-2.7-1.75-1.25-1.3-1.4-2.2l-1.3.1-1.6 1.15q1.85 1.85 1.85 3.45 0 1.45-1.45 2.6-2.4 1.75-4.45.9-2.1-.9-2.8-4.2l-3.85 1.3q-3.05 1.1-3.4 1.6t.35 2.25l1.05 2.5q3.75-2 5.8-.2 1 .85 1 2.2l-.25 1.25q-.35 1.15-1.85 2.45-1.45 1.25-2.35 1.35-.7.1.2 1.4l1.3 1.75 3.4-.6q2.5-.15 3.8.65 1.1.7 1.25 2 .25 1.45-.55 2.95-.8 1.45-2.4 2.45l-2.5 1.35q-1.25.25-3.6-.65-2.75 1.2-4.2 1.2l-1-.05q-.25.4.95 4.3 2.15-1.05 3.7-.85 1.45.25 2.4 1.55 1.55 2.1 1.55 3.75l-.2 1.15q-.65 1.8-3.35 2.55-.15.5.25 3.15.4 2.75.7 2.55l3.9-1.3q1.95-3.75 4.15-4.1 1.6-.25 2.9 1.35 1.7 1.95 2.3 3.75t0 3q-.4.85-3.65 1.75-.45.1-.2 2.1.25 1.95.8 1.65l1.75-1.2q1.45-.95 2.55-1.05 1.6-.15 2.95.9 1.85 1.55 1.85 3.75l-.15 1.05q-.3 1.25-3.5 3.5-2.7 1.95-2.2 2.15.7.3 1.85 2.25l1.4 2.5 2.15.05 2.55-.65q-.15-.8-.15-2.3 0-2.95 1.2-4.3.95-1.2 2.7-1.1 3.95.25 5.15 2.6l.3 1.35q0 .5-1.35 2.5l5.4.3q.3-.25 0-1.35-.35-1.5-.35-1.95 0-2.25.75-3.05.6-.75 1.6-.65 1.75.15 3.35 1.95 1.4 1.55 1.85 3.2l1.65.25 2.25-.05-.2-2.55q0-2.9 1.05-4.2.85-1.1 2.25-1.2 3.35-.25 4.55 2.4l2.7-2.7q1.8-1.85 1.55-2.35l-2.15-2.9q-1.8-2.65-1.8-4.35 0-1.2.65-2.15 1.4-1.8 3.55-2.4l2.9-.25 1.3-2q.95-1.6.45-1.7-4-.95-5.05-2.2-.5-.65-.5-1.4 0-1.5.45-2.25 1.7-2.65 6.55-3.5 6.25-1.1 16.2 1.35 12.55 3.1 22.65 2.75 9.55-.3 16.2-3.65 4.55-2.25 9.15-3.5"/><path fill="#0d131a" d="M188.95 23.05q-2.9-.6-6.4 1.6-3.15 1.95-4.6 4.6l-1.35-.95q1.8-3.3 5.05-5.7 3.85-2.8 7.25-2.1 3.3.65 5.8 4.1 3.2 4.4 4.05 12.35l-1.55-.25q-1.4-12.3-8.25-13.65m59.2.35q1.45-.3 3.15 1.05 2.05 1.7 3.75 5.5L254 31.1q-1.15-2.55-2.65-4.1t-2.55-1.3q-1.5.3-2.65 3.2-1.25 3.15-1.25 7.4l-1.65.6q0-4.8 1.15-8.55 1.35-4.45 3.75-4.95"/><path fill="#0d131a" d="M185.5 34.05q-1.2-3.5.65-6.9 1.45-2.65 4.1-4.35l1.15.9q-2.2 1.4-3.65 4.4-1.65 3.45-.7 6.2zm65.6-.5-1 .2q.6-2.2-.45-4.95-.9-2.4-2.35-3.55l.75-.7q1.7 1.35 2.65 3.5 1.2 2.7.4 5.5m-55.2-2.75q0 1.25-.4 2.2-.35.9-.9.9t-.95-.9q-.35-.9-.35-2.2t.35-2.2q.4-.9.95-.9t.9.9q.4.9.4 2.2m52.2-.3q0 1.2-.35 2.05-.3.85-.8.85t-.85-.85-.35-2.05.35-2.05q.35-.9.85-.9t.8.9q.35.85.35 2.05M205.15 37q.4 3.9 4.25 5l11 .75h2.7q10.05 0 12.7-2.85 1.25-1.4 1.1-3.8-.45-4.95-4.85-8.2Q228 24.95 222 24.35q-3.1-.3-7.1 1.4-4 1.65-6.7 4.4-3.4 3.4-3.05 6.85m8.65-13.25q3.8-1.5 7.8-1.25 7.55.4 12.45 4.95 4.2 3.85 4.6 8.55.25 3.15-1.55 5.1-1.65 1.75-5 2.6l-9 .8-2.7.05-11.6-.85q-4.85-1.5-5.4-6.5-.25-2.15.7-4.5 1-2.45 2.9-4.4 3.05-3 6.8-4.55"/><path fill="#0d131a" d="M213.55 33.15q-.6-.5-.5-1.3t1.3-.25q2.05.95 3.55 4.55.5 1.25.05 1.3-.4.05-1.05-.65zm15.4 2.4q.35-1.05 1.2-2.2.85-1.1 1.5-1.3.6-.2 1.1.3.45.5.15.9l-2.7 3.45q-.9.95-1.3.5-.35-.45.05-1.65"/><path fill="#cacfd2" d="M259.8 135.65q.75-.3 5.75-7.9 1 2.8-.95 7.55-.95 2.4-2.15 4.2z"/><path fill="#0d131a" d="M261.95 138.05q2.2-3.15 3-6 .65-2.45 0-3.75l1.65-1.3q1 2 .25 5.65-.8 3.9-3.1 7.1-5.7 8-16.45 13.2-17.9 8.65-44.3 5.8-32.65-3.45-49-20.55-9.45-9.8-11.35-20.75l1.7-.35q1.85 10.45 10.85 19.6 15.7 16 47.6 19.4 25.8 2.75 43.2-5.45 10.55-4.95 15.95-12.6"/><path fill="#0d131a" d="M221.85 151.15q-18.85 1.55-36.2-3.3-18.8-5.2-29.95-17.2-4.45-4.85-6.5-9.65-1.9-4.45-1.15-7.3l1.65-1.2q-.65 2.5 1.35 6.85 2.15 4.65 6.6 9.4 11.15 12.05 28.6 16.85 16.95 4.7 35.3 3.25 18.4-1.45 30.5-8.45 10.25-5.9 12.3-13.95.7-2.8.55-11.1-.15-10-2.4-12l1.15-3.9q3.6 3.2 4.65 13.05 1.1 9.9-1.65 14.5l-5.2 8.1q-3.5 4.6-8.25 7.35-12.5 7.2-31.35 8.7"/></svg>