<svg xmlns="http://www.w3.org/2000/svg" width="382" height="338" viewBox="-4.4 -0.65 382.3 337.8"><path fill="#00a0b6" d="M223 295.45q2.95 6.15.4 7.1-10.65 4-25.6 5.8-22.5 2.8-24.3-6.95l44.8-18.15q.45 3.3 4.7 12.2"/><path fill="#008c9f" d="M212.4 290.15q1.55 3.15 4.1 4.8 2.35 1.5 7.6 3 .7 1.9.6 2.9-.1 1.25-1.3 1.7-10.65 4-25.6 5.8-22.5 2.8-24.3-6.95z"/><path fill="#e3eff5" d="M216.4 302.85q.45-2.55 2.3-5.25 2.2-3.15 3.9-1.85 2.05 1.6 4.1 4.25 2.1 2.75 2.1 4.1l-10.75.3z"/><path fill="#c1cbd1" d="M227.7 304.45q-2.85.65-9.65-.05l-1.65-1.55q.2-1.2 1-2.95.9-1.85 1.95-3.1 2.05 4.45 8.35 7.65m-22.95 1.45q0-1.45 2.25-4.25 2.15-2.65 2.9-2.55 1 .15 5.45 3.35 4.7 3.4 4.4 4.5l-7 .7-7.1-.25z"/><path fill="#00a0b6" d="M359 234.5q-7.65 6.9-26.9 14.55-25.7 10.15-48.4 9.25l-29.8-37.6q45.6 11.9 72.75 12.65L352 232q5.5-.45 7.1 0 2.05.5-.1 2.5"/><path fill="#99003f" d="M326.2 251.85q-22.4 8.1-41.5 7.05l-6.95-11.15q13.55 1.95 31.5 1.15 20.5-1 35.55-5.35-7.4 4.25-18.6 8.3"/><path fill="#00a0b6" d="M81.5 194.4q14.4-1.35 26.4-.15l2.1 3.35-80.05 85.65q-6.3-3.55-11.85-11.15Q7 257 10.8 237.05q4.9-25.25 40.4-36.65 13.85-4.45 30.3-6"/><path fill="#008c9f" d="M29.9 216.55q-.85 5.8 8.1 8.6 9.05 2.8 23.05.95 15.6-2.1 31.15-9.45l-62.25 66.6q-6.3-3.55-11.85-11.15Q7 257 10.8 237.05q2.3-11.7 11.5-20.65 8.15-7.9 21.4-13.3-12.85 7.15-13.8 13.45m78-22.3 2.1 3.35-8.05 8.65q-.25-5.65-8.75-8.25l-14.95-3.25q16.25-1.85 29.65-.5"/><path fill="#99003f" d="M15.1 247.25q4.3 14.45 17.15 22.4l-.75 3.65-2.55 9.45q-8.3-5.3-13.85-14.6Q9.6 258.9 9.35 250q-.2-7.4 2.25-16.15l2.5-7.3q-2.3 9.7 1 20.7"/><path fill="#ba004f" d="M205.85 2.65q22.25 1.9 32.05 9.4-38.35 14.1-62.5 41.15-20.1 22.5-29.4 52.75-7.35 23.95-7.15 49.45.2 20.2 4.3 31.25-15.15 3.15-26.4 6.8l-8.25 3.05q-9.2-14-25-17.05-14.4-2.8-31.05 3.9-16.05 6.4-28.85 19.35-13.3 13.45-18.45 29.4-7.75-46.05 2.3-86.15Q18.65 101.2 52.4 61.9q19.3-22.5 48.5-37.4 25.5-13.05 55.2-18.7 26.65-5.1 49.75-3.15"/><path fill="#99003f" d="m202.7 2.45 15.95 4.7q10.75 3.4 7.25 4.2-3.95.85-11.45 4.3-11.1 5.1-21.7 12.8-31.95 23.15-48.25 61.2-8.05 18.75-9.8 43.65-2 28.3 5.2 54.45l-8.8 1.95-7.6 1.9q-5.3 1.7-10.55 3.65l-4.25 1.6q-9.75-14.9-25.85-18.05-14.45-2.8-31.15 4.25-15.8 6.7-28.55 19.95-13 13.55-18 29.1-7.75-46.05 2.3-86.15Q18.65 101.2 52.4 61.9q27.7-32.25 74-48.25 39.3-13.5 76.3-11.2"/><path fill="#c1cbd1" d="M207.15 309.55q1.1 1.45-5.3 1.15-6.3-.3-10.25-1.8-2.05-.8 1.8-4.45 3.8-3.6 6.2-2.05 3 1.95 4.95 3.95z"/><path fill="#00a0b6" d="M264.9 232.2q7.5 7.8 13.05 16.15 5.85 8.85 8.55 16.85 2.4 7.25 5.7 15.15 2.4 5.65 4.35 9.6l3.35 5.7q1.6 3.3-.15 5.3-4.3 5.05-9 7.55-9.05 4.95-21.7 3.45-12.85-1.45-16-5.75-1.2-1.65-2.25-5.4l-2.4-7.65q-2.95-7.75-6.65-11.75l-13.95-13.45q-8.95-8.85-4-42.7 1.55-10.55 4.3-22.35l2.45-9.7q.85 4.3 14.1 18.3 7.2 7.65 20.25 20.7"/><path fill="#008c9f" d="M258.5 266.4q5.95 9.55 12.8 25.35 6.3 12.45 16.25 18.25-8 3.2-18.5 1.95-12.85-1.45-16-5.75-1.2-1.65-2.25-5.4l-2.4-7.65q-2.95-7.75-6.65-11.75l-13.95-13.45q-3.45-3.4 1.45-12.35 6.4-9.95 7.75-13.5 3.15.55 10.15 8.7 6.25 7.35 11.35 15.6"/><path fill="#99003f" d="M250.5 282.4q-1.15 1.6-7.6 1.6l-15.55-17.05q1.1-1.55 2.3-4.3 2.35-5.45 2.9-11.15l2.8-4.45 6.05 7.25q6.4 8.8 8.4 16.85 2.25 9.05.7 11.25"/><path fill="#00a0b6" d="M209.35 144.35q20.35-12.05 27.4-14l13.3 4.2-6.15 23q-7.4 25.2-13.7 35.9 2.25 2.7 4.5 10.7 2.45 8.55 3.3 17.8 2.2 24.45-7.8 32.5-9.6 7.75-27.55 7.5l-15.6-1.15-15.15-1.6q-10.75-.85-25.25-7.75l-8.05-3.8q-3.1-1.25-3.45 0-1.95 7.45-6.5 14.75-2.3 3.65-10 13.8-6.4 8.45-12.75 26.6-1.9 5.4-6.95 22.45Q85.8 334.2 69 333.7q-11.7-.4-19.6-4.3-4-2-2.85-6.7l1.95-4.3-22-3.7.25-7.85q.45-9.5 1.55-17.8 1.35-9.5 3.35-15.3 1.75-5 5.4-10.85 3.85-6.2 17.95-22.65 15.05-17.6 22.4-23.65 10.4-8.6 22.35-15.05 16.4-8.9 32.65-12 15.45-2.9 27.35-10.8 6.95-4.55 19.45-14.9 11.45-8.4 30.15-19.5"/><path fill="#008c9f" d="M222.4 136.95q10.05-5.4 14.35-6.6l13.3 4.2-19.4 49.05q-4.95-17.6-13.85-27.45-7.9-8.8-14.5-7.5 11.05-6.8 20.1-11.7m-138.95 93.5q3.45-.45 9.85-2.7 3.55-2.9-5.1 12.25-12.95 22.55-15.9 28.75-4.05 8.5-6.95 23.2-1.35 6.9-5 30.95-.3 2.05.15 6 .25 2.2-1.15 2.65l-6.45-.9q-1.7-.35-3.5-1.25-4-2-2.85-6.7l1.95-4.3-22-3.7.25-7.85q.45-9.5 1.55-17.8 1.35-9.5 3.35-15.3 1.75-5 5.4-10.85 3.85-6.2 17.95-22.65 15.05-17.6 22.4-23.65 5.4-4.4 11.65-8.65l-8.6 9.75q-3.6 5.1-2.05 11.2.55 2.15 5.05 1.55"/><path fill="#e3eff5" d="M305.05 296.95q3.65 2.8 3.65 4-2.3 1.55-7.95.95l-4.7-2.55q1.3-7.55 3.3-6.35z"/><path fill="#c1cbd1" d="m30.05 314.5-1.2 1.5-5.35.25q-3.85-.05-4.65-.75 0-1.05 2.65-3.1l4.1-3.25q1 0 2.55 1.7 1.65 1.85 1.9 3.65"/><path fill="#c1cbd1" d="m36.65 316.45-2.85 3.05-5.3.55-5.2-.35q-.25-1.05 4.2-4.55 4.05-3.2 4.9-3.4.65-.15 2.4 1.5 1.85 1.8 1.85 3.2"/><path fill="#c1cbd1" d="M44.85 314.5q3.2 3.45 1.85 4.05-4.4 1.95-9.15 2.6-4.35.6-4.65-.3-.3-.75 2.2-3.55 2.15-2.4 5-4.9 1.55-1.35 4.75 2.1"/><path fill="#e3eff5" d="m51.65 329.55-1.2.45-6.05 1.05q-4.15.6-5.2-.1 0-1.35 2.9-4.75 2.55-3 4.85-4.85 1.7-1.35 3.15 2.3 1 2.4 1.55 5.9m13.1 1.65-.7 1.65-7.55.7-7.45-.25q-.3-1.2 4.9-5.65 4.95-4.25 5.9-4.4.75-.15 2.8 3.05 2.1 3.25 2.1 4.9"/><path fill="#c1cbd1" d="m61.1 324.2-5.1 4.2q-2.75 2.6-4.15 5.25l-2.8-.35q-.3-1.2 4.9-5.65 4.95-4.25 5.9-4.4z"/><path fill="#e3eff5" d="M77.75 334.4q-3.7 1.5-9.8 1.9-5.9.35-6.35-.65-.35-.9 2.8-4.05 3.1-3.1 6.7-5.55 2.1-1.5 5.2 3.05 3.15 4.6 1.45 5.3m211.55-27.95q0-1.45 2.8-4.4 2.7-2.85 3.5-2.7 1.05.2 5.65 3.3 4.95 3.3 4.65 4.4l-7.8.9q-5.95.35-7.9 0z"/><path fill="#e3eff5" d="M288.3 313.25q-6.45.3-10-1.05-1.75-.65 1.2-4.7t5.55-3.25q3.45 1.1 6.6 4.1 2.7 2.55 2.75 3.65.1.95-6.1 1.25"/><path fill="#c1cbd1" d="m304.25 302-3.5-.1-4.7-2.55.8-3.7q2.65 3.95 7.4 6.35m-2.9 5.75q-8.2.7-11.15.2l-.9-1.5q0-.95 1.35-2.7 1.15-1.55 2.7-2.95 1 2.55 3.25 4.35 1.7 1.3 4.75 2.6m-8.05 4.85-7 .7q-5.15 0-8-1.1-1.1-.4.2-3 1.25-2.6 3.3-4.1 5.3 4.85 11.5 7.5"/><path fill="#ba004f" d="m238.35 152.85 16.75 4.2 10.3 13.25q-11.1 3.25-21 9.95-12.2 8.3-17.55 18.9l-5.2 11q-2.8 6-4.65 9-5.05 8.3-11.55 8.6-7.55.4-11.15-2-3.55-2.3-5.95-9.2-1.2-3.45 2.2-11.7 3.5-8.35 10.25-17.9 16.75-23.7 37.55-34.1"/><path fill="#99003f" d="M231.45 192q-7.7-3.35-8.5-14.1l-.2-8.2q-.15-4.35-1.15-6.1 6.65-5.65 16.75-10.75l16.75 4.2 10.3 13.25q-8.95 2.65-17.45 7.7-10.25 6.15-16.5 14"/><path fill="#00a0b6" d="M336.15 209.95q-5.7-4.15-15.75-16.45l-8.85-11.5 5.1-18.75 4.15.6q3.45 8.6 8.15 21.9 7.05 19.85 7.2 24.2"/><path fill="#008c9f" d="m317.05 189.25-5.5-7.25 1.45-5.4q2.4 6.5 6.95 13.8 2.85 4.5 8.8 12.7-5.2-5.5-11.7-13.85"/><path fill="#ba004f" d="M317.45 93.3q-18.05-2.15-34.5.7-47.05 8.05-84.3 56.3l.2.25-45.25 32.05q2.2-14.2-2.7-21.05-4.7-6.55-12.55-2.25-.5-10.85.4-15.3.45-6.35 1.7-14.35 2.5-15.65 9.4-37.8 13.75-13.2 33.95-22.2 22.4-9.9 46.95-11.75 27.8-2.1 54.45 6.7 30.15 9.95 56.55 33.3-16.8-3.7-24.3-4.6"/><path fill="#99003f" d="M335 92.15q3.75 3.1 6.75 5.75-16.8-3.7-24.3-4.6-18.05-2.15-34.5.7-47.05 8.05-84.3 56.3l.2.25-13.3 9.4q24.4-48.6 70.45-65.6 19.65-7.3 40.95-7.6 19.85-.3 38.05 5.4"/><path fill="#00a0b6" d="m365.25 110.6-19.75 21.75-5.85-14.65q12.5-7.75 22.1-12.9 10.5-5.7 12.25-5.4.25 1.05-8.75 11.2"/><path fill="#008c9f" d="M365 108.4q-12.35 11.1-20 19.6l-5.35-10.3q12.5-7.75 22.1-12.9 10.5-5.7 12.25-5.4.2.75-9 9"/><path fill="#00a0b6" d="M342.35 152.05q5.2 2.3 19 11.15 14 8.95 15.65 11.15-11.65-.85-33.35-5.25l-26.6-6z"/><path fill="#008c9f" d="m376.35 173.7.65.65q-11.65-.85-33.35-5.25l-26.6-6 5.05-2.2q29.05 9.05 54.25 12.8"/><path fill="#ba004f" d="m346.55 133.15-32.25-22-5.8-6q4-.55 10 .95 6.45 1.65 12.25 4.95 14.85 8.55 15.8 22.1"/><path fill="#00a0b6" d="M348.85 146.3q-.35 1.8-2.75 3.8-1.55 1.3-13.35 5.9-12.6 4.95-13.7 5.55-2 1.15-3.7 7.75l-2.3 10.15q-1.1 4.2-4.35 6.8-3.75 3-9.85 3.3-6.65.35-15-3.15-8.6-3.6-12.65-8.7l-15.35-19.1-35.75 29.65q2.2-5.8 6.85-15.4 9.4-19.25 21.95-38.35-35.85-12.7-58.65-22.3l-15.65-7.05 27.2 3.05q31.3 3.8 51.65 7.5-4.1-5.65-16.7-30.7-13.9-27.65-13.6-32.75 4.55 2 32 29.85l31.35 32.25 27.35-3.9q7.9.9 19.45 9.45 12.2 8.9 14.15 16.45 1.9 7.25 1.4 9.95"/><path fill="#008c9f" d="M242.35 95.45q-12.9-23.75-17.95-37.8 1.35-.35 18.1 18 22.8 25 29.9 32.1 1.85 1.85 3.2 1 1.55-.95.15-5.25l10.75 10.85 8.8 1.75q11.1 2.8 22.45 7.9 3.25 1.95 2 6.55-1.3 4.6-5.35 4-4-.6-18.55 2.75-13.95 3.2-26.4 7.4-6.15 2.2-13.05 8.25l-6.8 6.7q-.95.95-6.5-1.7-4-1.9-6.4-3.5 5.6-9.95 12.2-19.95-30.95-10.95-52.5-19.75-13.05-5.3-20.35-8.85 3.55 1.2 36.4 7.75 35.2 7.05 56.75 10.55 2.15.7 4.75-1.15 2.6-1.9-.3-2.65l-11.2-2.35-8.2-1.65q-5.45-9.05-11.9-20.95m86 21.1q8.95 5.5 14.45 11.85-7.05-5-15.45-8.55l-7-2.55q-3.2-4.1-6.7-6.8l.2-.05q5.7.7 14.5 6.1"/><path fill="#e3eff5" d="m271.2 177.7-15.6-19.45q3.7-3.5 9.45-8.1 5.6-4.5 7.3-5.45 6.1 9.15 24.35 22.6l11.6 8.3q4.85 3.45 4.75 3.85-1.1 4.2-4.35 6.8-3.75 3-9.85 3.3-6.65.35-15-3.15-8.6-3.6-12.65-8.7"/><path fill="#fff" d="M295.65 116.2q8.4 1.05 17.85 5.65 4.75 2.3 7.8 4.4l-14.25-1-7.75-1.3q-3.05-4.3-3.65-7.75"/><path fill="#ba004f" d="m287.85 114.8-15.6-15.6q3.25-2.1 13.65-1.4 11.65.8 19.4 5.1 7.2 3.95 12.45 11.5 4.3 6.15 5.85 12.3-10.7-4.95-20.8-8.5-12.1-4.3-14.95-3.4"/><path fill="#99003f" d="M319.95 122.75q1.6 1.7 2.15 2h.9l.6 1.95q-10.7-4.95-20.8-8.5-12.1-4.3-14.95-3.4l-15.6-15.6q1.7-1.1 6.5-1.4.35.55.3 1.4.25.7 2.4 1.3 7.95 2.3 15.45 5.8 14.4 6.85 23.05 16.45"/><path fill="#922f00" d="M333 139.1q5 2.1 10.85 5.55 2.85 1.45 3.25 2.45.2.55-.45 2.5l-27.6 12.2-3 4.7-3.85 14.5q-3.25 5.1-12.25 4.25-8.7-.8-14-5.9-4.55-4.45-10-19.05-5.1-13.85-4.05-15.4 1.2-1.65 15.45-5.35 16-4.1 27.2-4.25 9.05-.1 18.45 3.8"/><path fill="#ed8599" d="M296.2 146.6q6.1 4.85 9.3 10.9 8.15 15.4-6.65 27.25-5.05-.6-7.9-1.85-3.5-1.6-6.6-5.4-3.25-4-8.45-17.75-5.15-13.7-3.95-15.15 1-1.15 7.05-2.75l5.8-1.4q5.7 1.55 11.4 6.15"/><path fill="#ce7486" d="M271.95 144.6q1-1.15 7.05-2.75l5.8-1.4q7.6 2.1 14.5 8.85 7.55 7.4 8.75 15.7-8-8.9-18.85-10.2-9.05-1.1-14.25 2.85-1.75-5.1-2.6-8.65-.9-3.8-.4-4.4"/><path fill="#fff" d="M287.6 180.3q5.65-3.75 6.6-5.9.3 1.6-.25 5l-.7 3.95q-.2 1.15-5.65-3.05m18.55 3.95q-.25-.4-.35-.95-.15-1.15.55-1.85 1.2-1.15 4-6.3l.5 2.5q.5 2.75.45 4.05t-2.6 2.05zm14.45-49q.15-1.1 3.25.15l3.05 1.5q-4.95 9.85-5.45 8.4-.4-1.05-.7-4.9-.35-3.85-.15-5.15m21.6 8.95q0-1.05 2.25.8l2.2 2q.2 1.55-1.45 4.3t-2.35 2.2q-.55-1.05-.65-4.65z"/><path fill="#dbdcdc" d="m292.25 176.55-.8 2.95q-.45 1.75-.35 3.2l-3.5-2.4zm16.3 1.7q-.65 3.55-.4 5.65l-2 .35q-.25-.4-.35-.95-.15-1.15.55-1.85zm13.6-39.4q-.7 1.1-1.65 4.15-.6-5.05-.3-7.25.15-1.4 5.3 1.1-2.05-.15-3.35 2M345.6 146q-1.3.1-2.1 1.35l-1.2 2.25-.1-5.4q0-1.35 3.4 1.8"/><path fill="#e3eff5" d="M213.1 289.5q-3.65 3.35-13.8 6.45-10.9 3.35-21.05 3.65l33.5-49.1q18.6-3.45 20.15-1.35 1.7 2.25-1.35 11.45-1.25 3.7-7.5 14.45-6.8 11.6-9.95 14.45"/><path fill="#c1cbd1" d="M206.4 285.85q11.05-3.15 14.65-7.45-5.45 8.9-7.95 11.1-3.65 3.35-13.8 6.45-10.9 3.35-21.05 3.65l7.75-11.4q9.05.9 20.4-2.35"/><path fill="#e3eff5" d="M126.55 307.75q-4.05-.85-6.35-2.45l-1.5-1.4 52.65-49.2q2.5-3.5 4.25-5.35 3.25-3.35 7-3.65l17.75-.7q13.3-.05 13.3 1.75 0 2.15-1.7 8-1.8 6.05-3.8 10.35-7.5 16.3-12.4 20.15l-10.45 9.3q-8.3 6.9-14.3 8.6-7.45 2.15-23.45 3.85z"/><path fill="#c1cbd1" d="M136.8 287.3q2.25 4.75 24.55 4.55 18.4-.15 29-2.25l-9.2 7.85q-5.95 4.55-10.15 5.7-7.45 2.15-23.45 3.85l-21 .75q-4.05-.85-6.35-2.45l-1.5-1.4z"/><path fill="#e3eff5" d="M151.3 245.7q12.25 2.35 18.25 5.75 2.25 1.3 1.35 3.6-.75 1.95-4.45 6L156.2 272.3q-7.9 8.25-13.7 12.6l-15.55 12.05q-9.05 6.9-11.05 7.2l-6-.25-3.65-.65q.5-2.3 1.55-5.55 2.1-6.6 4.9-11.55 2.6-4.7 8.75-13.15l8.6-11.85q2.6-3.95 4.45-9.9l1.3-5.15q2.35-2.85 15.5-.4"/><path fill="#c1cbd1" d="m112.7 286.15 2.45-4.15q3.85 3.3 9.45 5.4 4.2 1.55 10.85 2.95l-11.9 9.15q-6.05 4.4-7.65 4.65l-6-.25-3.65-.65q.5-2.3 1.55-5.55 2.1-6.6 4.9-11.55"/><path fill="#0d131a" d="M309.65 121.6q0-.8 1.5-.8.65 0 1.1.45.4.45.4 1.1 0 1.15-.45 2.2-.45 1.1-1.05 1.1-.65 0-1.05-1.1-.45-1.1-.45-2.95"/><path fill="#fff" d="M310.7 123q0-.7.45-.7.35 0 .35.8 0 1-.35 1l-.3-.35z"/><path fill="#0d131a" d="m222.25 295.45-.65-1.35-2.4-5.2q-1.2-3.1-1.55-5.55l1.05-1.6q.3 2.25 2 6.3l2.85 6.1 1.75 3.2q-1.5-1.3-3.05-1.9M191.9 308.4l1.75 1.65q-10.95.6-16.55-2.75l-2.8-2.15q-1.05-1.2-1.35-2.95l2.35-.7q.45 2.75 4.15 4.8 4.25 2.45 12.45 2.1"/><path fill="#0d131a" d="M220.7 294.9q1.05-.4 2.3.35 2.45 1.45 4.95 5t1.85 4.6q-.3.5-3.8.6l-7.55-.45-.95-1.25 6.85.3 3.7-.35q.3-.4-1.85-3.2-2.25-2.85-4-4.2l-1-.15q-1.25.5-2.65 2.95-1.2 2.2-1.5 3.9l-1.3-.25q.35-1.9 1.65-4.25 1.6-2.95 3.3-3.6"/><path fill="#0d131a" d="M213.35 300.1q3.1 1.9 5.45 4.05 2.4 2.1 2.05 2.9-.3.65-3.25 1.05-6.3.75-10.8.15l-.85-.6-.5-.6q1.8.3 7.4.1l6-.65q.45-.4-3.7-3.5t-5.3-3.2q-1.1-.15-3 2.85-1.8 2.9-1.8 4.3l-1.2-1.4q0-1.35 2.2-4.2 2.3-3 3.75-3 .75 0 3.55 1.75m124.2-91.2q.6 2.45.35 3.1-.4.95-2.6-.95-7.5-6.55-16.35-17.6l-7.5-9.85 1.1-1.35 10.85 13.05q11.2 13.35 11.85 13.05.7-.3-6.5-20.65l-8.65-23.6 1.35-.5 6.3 15.75q6.8 17.85 9.8 29.55m-12.6 23.15H337l11.3-.55 10.25-.8q3.6-.1 4.05.95.4.95-2.65 3.8-7.55 6.85-26.75 14.5-25.8 10.3-48.85 9.4l-.6-1.7q14.3.6 30.15-3.4 12.8-3.15 25.35-8.95-14.45 3.7-32.35 4.35-16 .55-29.2-1.35l.15-1.05 23.8 1.35q14.6-.2 27.65-2.25 10.05-1.55 16.95-4.5 6.8-2.85 12.3-7.85l.9-1.15q-.7-.85-12.2.2l-9.9.75q-6.05.35-10.7.2-28.85-.8-72.7-12.25l-2.05-2.55q46.5 12.1 73.05 12.85m-219.85-39.1 2.7 2.2q-14.85-1.5-32.75.9-21.5 2.9-36.75 10.45-17.8 8.75-22.25 20.8-3.55 9.7 1.2 22.4Q22.2 263 32.9 269.6l-.25 1.45q-10.6-6.55-15.8-18.25-4.35-9.75-4-20.1-.75 2.4-1.15 4.5-3.7 19.35 6.8 34 5.3 7.35 11.45 10.9l-.4 1.95q-6.9-3.75-12.85-11.4-11.85-15.3-7.95-35.4 5-26 40.65-37.8 13.8-4.6 30.1-6.25 14.15-1.4 25.6-.25m133.3-79.75-4-.95q6.05-4.35 12.25-7.8l1.8 2.6q-5.1 2.8-10.05 6.15m-18.3 10.85 2.7 1.3q-12.35 11.1-23.5 25.55l-4.4 2.1q12.15-16.7 25.2-28.95m3.85-66.6.8 2.85q-23.25 2.65-44 12.15Q162 81 150.45 92.5l2.2-4.45q10.85-10.85 29.2-19 19.7-8.75 42.1-11.6m117.55 38.3q2.85 2.7 1.95 3.1l-4.9-.8q-10-2.4-21.9-3.65-20.9-2.15-36.6 1-5.3 1.1-9.9 2.5l-1.9-2.5q17.8-5.2 38.6-4.35 16.95.7 29.6 4.8l1.7.3-1.55-1.45q-24.35-20.15-52.55-28.9-24.8-7.75-51.05-6.25l-2.65-2.75q29.3-2.55 56.2 6 30.75 9.7 54.95 32.95M137.95 158.5q3.15-1.7 6.6-1.85 3.6-.2 5.85 1.4 7.1 4.9 4.1 24.7l-2.8.6q1.35-8.6.55-14.6-.9-6.5-4.2-8.85-4-2.75-9.25.15z"/><path fill="#0d131a" d="M234.2 7.15q6.5 2.7 6.55 4.2 0 1.45-6.35 3.75-26.05 9.35-49.5 31.6-23.4 22.15-33.9 47.4-11.35 27.3-11.65 57.25-.25 23.4 4.95 34.7l-1.6.75q-5.85-12.6-5.3-38.9.6-30.25 10.6-54.15 11.6-28 33.9-48.9 22.15-20.8 52.35-32.35 1.35-.5 1.35-.85 0-.3-1.35-.85-15.85-5.95-34.45-7.2-20.45-1.35-43.55 3.05-25.75 4.9-48.75 15.55-33.05 15.35-54.45 40.25Q27.7 91.95 15.2 124.4 2.65 156.9 2.65 193.1q0 10.35 1.1 22.65 1.05 11.85 1.8 11.95l.95-1.5q7.85-18.45 25.05-32.3 17.3-13.95 35.85-16.45 11.55-1.55 21.3 1.95 12.85 4.6 21.4 17.7l-1.85.5q-8.15-12.35-21-15.95-8.8-2.45-20.85-.8-17.85 2.4-33.45 15.4Q18 208.65 9.2 227.1q-2.85 5.9-4.15 5.75-1.2-.15-2.1-6-7.35-49.9 3.8-89.25 11.1-39.25 42.85-76.2 21.75-25.3 54.7-41.2 23.75-11.45 48.9-16.25 24-4.6 44.5-3.85 21.2.7 36.5 7.05M370.85 98.8q4.4-1.8 5.15-.75.7 1-1.8 4.55-3.2 4.65-27.8 31.05l-.8-2.85q27.5-29.3 27.3-30.55-.15-.9-9.95 4.55-9.4 5.15-22.95 13.5l-1.45-1.55 13.05-8.1q10.75-6.4 19.25-9.85m-8.65 65.6q-12.8-8.05-19.05-11.2l1.5-1.15q5.35 2.75 14.85 8.85 9.9 6.4 15.25 10.65 3.15 2.2 2.75 3.25-.45 1.05-4.5.45-18.9-2.9-35.1-6.45l-21.05-5 1.8-1.4q9.85 2.45 31.85 6.95 24.15 4.9 24.5 4.1.4-.75-12.8-9.05M206.15 309.35q.5-.45-1.9-2.65-2.4-2.25-5-3.75-1.55-.85-5.25 1.95-3.75 2.85-1.85 3.55 2.7 1 8.25 1.2zm.35-2.4q2.3 2.5 1.6 3.6-.65 1-3.85.95-8.2-.1-12.6-1.8-1.5-.6-.7-2.85.95-2.6 4.55-4.75 2.2-1.35 4.55-.55 2.05.6 6.45 5.4m23.3-113 1.35-1.1q1.05 5.15 27.15 31.25l7.8 7.8q9.4 9.25 14.6 17.95 3.9 6.55 6.95 15.7 2.6 7.85 5.95 15.6 3.1 7.3 5.7 11.85l-2-.05-1.55-2.6-4.4-9.75q-3.25-7.8-5.7-15.1-2.55-7.65-8.05-16.1t-13.3-16.6l-7.75-7.85q-12.35-12.45-17.3-17.9-8.8-9.75-9.45-13.1m8.4 85.45-7.8-7.9-3.2-2.9.8-2.05 4.3 3.75q3.6 3.2 7.65 8 6.75 7.95 9.3 14.55l2.1 6.55q1.65 6 4 7.85 3.35 2.65 13.8 3.85 4.5.5 8.4.2l.8 1.7q-4.6.4-9.4-.15-11.5-1.3-14.7-3.25-2.95-1.7-4.65-7.75-1.1-5.95-2-8.35-2.45-6.3-9.4-14.1"/><path fill="#0d131a" d="M250.65 270.9q1.3 5.25 1.45 7.95.1 2.75-.95 4.05-.95 1.25-2.85 1.5l-4.95-.15-.45-.9 4.5-.15q1.8-.25 2.5-1.1 1.5-1.95-.75-10.8-1.75-6.95-7-14.7-3.15-4.65-6.7-8.45l-1.05 2.05-1.45 2.5q-1.2 1.55-.55-2.75 2.1-3.75 3.15-6.5l1.15-2.7q.35-.55.5.85.15 2.05-.8 4.6 2.15 1.95 6.1 7.7 6.15 8.9 8.15 17m-12.6-119.3-.15 2.15q-20.4 10.65-36.05 33.5-6.15 8.9-9.65 17.05-3.25 7.7-2.75 11.15.95 6.6 5.05 9.45 4.15 2.8 11.25 1.6 6.45-1.15 11.25-9l9.25-18.65q4.5-9 14.7-16.65 9.75-7.3 23.9-12.7l1.05 1.7q-19.15 8.4-27.55 15.8-8.25 7.25-14.2 20.7-3.8 8.6-5.75 11.55-5.1 7.65-12.2 9.5-7 1.8-12.5-1.6-5.6-3.5-7-10.9-.9-4.65 2.7-13.1 3.6-8.55 10.55-18 16.6-22.7 38.1-33.55"/><path fill="#0d131a" d="M232.9 248.45q1.9 2.6-1.3 12.25-1.25 3.75-7.65 14.9-7.05 12.25-10.3 15.15-3.7 3.35-14.25 6.25-10.8 2.9-21.1 3.25l-.05-1.35q9.85-.3 20.55-3.5 10.15-3.05 13.85-6.4 3.15-2.8 9.9-14.4 6.2-10.7 7.35-14.2 1.4-4.15 1.8-7.05.4-2.85-.3-3.8-.45-.55-3.4-.5-5.1.1-16.15 2.15l.85-1.8q10.3-1.95 14.25-2.2 4.8-.3 5.95 1.25"/><path fill="#0d131a" d="M147.1 307.85q-17.45 1.55-22.5.45-4.1-.85-6.1-2.85l-1.25-1.8 1.4-.55 1.75 1.1q2.45 1.25 6.2 2.05 4.55 1 20.45-.5 15.85-1.5 23.25-3.6 4.55-1.3 14.95-9.65l9.55-8.1q4.75-3.8 12.2-19.95 2.1-4.5 4.1-10.9 2-6.6 1.35-7.05l-14.55-.5-16.4 1.05q-2.65.55-5.35 3.25-1.55 1.55-4.25 4.8-2.05 2.25-2.65 1.95-.55-.3 1.65-2.8 2.65-3.7 4.2-5.4 2.75-2.95 6.45-3.65l16.95-1.3q12.8-.2 15.4 1.75 2.25 1.7-4.35 17.9-6.8 16.6-12.5 21.2l-9.95 8.95q-10.9 9.2-15.6 10.55-7.2 2.05-24.4 3.6"/><path fill="#0d131a" d="M135.3 244.45q4.4-2.2 17.9.7 11.4 2.45 17.3 5.2 1.85.85 1.75 3.15-.05 2.15-1.65 4.5l-3.15 3.95-4.1 4.4-12.5 12.55q-11.05 10.55-16.7 14.6-16.15 11.7-18.75 12.05-2.05.3-5.75-.6l-3.5-1.05.7-2.05 3.55.65 5.75.35q1.25-.2 8-5.05l9.5-6.85q2.75-1.8 14.1-12.55 10.2-9.7 13-12.75 6.3-6.6 7.85-8.7 1.25-1.65 1.4-3.05.1-1.5-1.2-2-8.9-3.6-19.6-5.4-10.8-1.85-14.05-.2z"/><path fill="#0d131a" d="M136.1 234.9q.3-2.35 1-2.65.75-.35.8 2.75.25 12.9-4.9 22.65-2 3.8-12.2 17.2l-1.45 1.9q-5.85 7.65-12.05 25.75-4.9 14.2-5.7 19.65-.4 2.65-.8 3.35l-1.35 1.25q-4.6 3-10.3 5-5.5 1.95-10.9 2.6l-.2-1.2-.2-1.4q9.75-1.05 18.25-5.8l2.35-1.6q.7-.85 1.1-3.75.7-5.15 5.95-19.45 6.45-17.55 12.45-25.5l1.45-1.9q7.6-10 11-17.4 4.2-9.2 5.7-21.45m99.2-105.4 2.6 1.25q-7.5 2.2-27.65 14.1-18.75 11.05-30.55 19.75-2.75 1.95-8.1 6.3-9.9 8.05-16 11.45-10 5.6-23.05 8.05-16.5 3.1-33 12.2-11.45 6.3-21.6 14.65-7.25 6-22.25 23.55-13.95 16.3-17.9 22.55-3.55 5.7-5.3 10.65-1.95 5.7-3.3 15.15-1.2 8.7-1.7 20.2l-.8.15-.95-.15q.45-14.9 1.45-22.05 1.3-9.25 3.55-14.75 1.4-3.45 5.55-10.1 4.4-7.15 16.95-22.9 14.35-17.95 21.45-23.8 10.1-8.3 21.85-14.65 16.6-8.95 33.4-12.15 12.75-2.4 24.25-8.75 7.7-4.25 17.35-12.05l8.15-6.4q11.3-8.3 28.45-18.5 19.3-11.45 27.15-13.75"/><path fill="#0d131a" d="M67.7 254.95q.45-4.3 1.05-6.6.45-1.85.9-2.2.5-.4.4 1.7l-.85 5.85z"/><path fill="#0d131a" d="M91.75 228.1q2.35-1.55 2.95-1.6.7-.05-1.7 1.85-2.3 1.85-14.5 16.3-11.5 13.7-14.65 18-2.45 3.35-8.05 25.3-5.4 21.05-7.15 32.85l-2.05 1.15q2.25-18.75 7.45-38.2 4.75-17.85 7.95-22.3 4.85-6.65 13.25-16.55 11.35-13.35 16.5-16.8m206.2 63.95q1.6-.7 7.2 3.7 5.55 4.4 4.85 5.8-.35.8-3.2 1.3l-5.4.25-1.55-1.5q2.3.25 5-.05 2.85-.35 3.05-.95.25-.8-8.9-7.05-.5-.15-1.05 1.2-.7 1.55-1.25 4.7l-1.6-.4q1.15-6.2 2.85-7m-275.2 23.7 4.15-.4-1.5 1.55-1.7.2-3.65-.1q-1.5-.1-1.85-1-.4-1.05 1.15-2.6 4.35-4.2 5.95-4.95 1.35-.55 3.15 1.45 1.7 1.85 1.9 3.3l-.9.55q-.15-.95-1.5-2.65-1.4-1.75-1.95-1.55-.6.2-3 2.25l-3.5 3.4q-.45.55 3.25.55m315-201.5q5.05 3.95 7.75 9.55 2.75 5.85 1.7 10.85l-1.55-1.45q-.7-10.1-9.95-17.7-6.2-5.05-13.75-7.8-7.2-2.65-11.65-1.95l-1.25-1.45q5.25-.8 12.6 1.4 8.7 2.65 16.1 8.55"/><path fill="#0d131a" d="M348.3 136.15q1.95 7.3 1.45 10.35-.35 2.3-2.9 4.4l-1.4.8-1.15.45 1.4-2.9q2.05-1.65 2.3-3.4.35-2.5-1.4-9.3-1.95-7.4-12.7-15.5-10.2-7.7-17.7-8.6l-2.25-2.9q8.1 1 19.8 9.5 12.5 9.1 14.55 17.1m-53.45-19.75 1.8.1.6 2.15q.9 2.6 2.5 4.75l8.75 1.5 12.8.75 1.65 1.25-14.2-.6-12.1-2.15q-1.9-.5-1.5-.75l2.85-.2q-1.3-1.65-2.35-4.4z"/><path fill="#0d131a" d="M324.45 126.5q.35 1.5.15 1.6l-1.35-.6q-3.85-2.15-17.7-7.1-15.2-5.5-17.4-4.75l-1.7-2q3.1-1.05 16.05 3.55 9.85 3.45 19.7 7.9-1.9-5.75-5.75-11-4.9-6.75-11.6-10.45-7.55-4.15-18.85-4.8-9.9-.55-12.85 1.4l-1.35-1.8q3.55-2.3 14.7-1.65 12.35.7 20.25 5.05 7.65 4.25 12.6 12.25 3.75 6 5.1 12.4"/><path fill="#0d131a" d="m262.85 153.35-6 5 15.05 18.8q3.85 4.75 12.1 8.3 8.3 3.55 14.8 3.2 6.65-.35 10.2-3.9-1.95 1.05-4.55 1.35-4.8.6-10.25-1.25-5.3-1.8-8.7-5.05-4.25-4.1-9.45-16.35-5.1-12-5.05-17.2zm73.95-13.65q11.95 5.85 11.2 8.35l-1.85.95.05-.15q1-2.75-9.7-7.9-11.4-5.55-21.4-5.4-10.85.15-26.9 4.4-14 3.65-15.7 5.3l-.05.3q0 3.6 4.6 15.75 5.15 13.5 9.4 17.55 3.1 3.05 8.15 4.65t9.7 1.05q5.3-.65 7.35-3.9h.05l.5-1.45 1.05-4.6q1.2-5.8 2.1-8.45 1.4-4.3 3.25-5.35 1.25-.75 10.55-4.35l13.35-5.4V153l-12.7 5.1q-9.05 3.5-10.35 4.25-1.35.75-2.6 4.95-.75 2.45-1.85 7.65l-1.1 4.75q-1.05 4-3.9 6.75-4.05 4-11.1 4.35-7.05.4-15.5-3.2-8.5-3.6-12.55-8.7l-15.3-19.3-12 10.7-15.5 13.5q-7.55 6.3-8.5 4.9-.75-1.05 2.45-8.2 9.45-20.9 25.55-45.5l-43.8-15.65q-14.4-5.4-26.9-11.95-3.7-1.9-3.35-2.5l4.15-.25L202.3 107q25.35 2.9 49.35 7.5-8.65-14.45-13.6-23.65-10.2-18.85-16.1-34.5-2.1-5.65-.6-6.45 1.2-.65 4.4 1.75 10.1 7.35 61.35 62.05 1.6 2 1.05 2.3-.5.25-2.3-1.05l-30.3-31.45Q226.4 53.35 224.2 53.95q-2.35.65 12.3 29.1 13.7 26.65 17.7 32.15l3.35.45 6.35 1.3q3.4 1 4.35 1.9l-3.35-.1q-5.25-1.2-44.9-6.95-40.3-5.85-40.45-5.25-.3.55 36.15 14.25l41.15 15.45q4.2 1.6 3.2 1.9l-3.85-.55-6.6-1.75q-10.3 15.65-19.55 33-8.1 15.15-7.75 16.35.25.75 21.4-17.45l24-20.65q2.95-2.35 4.3-3.05 4.1-2.5 17.75-6.1 15.65-4.1 25.9-4.25 8.55-.15 21.15 6"/><path fill="#0d131a" d="m284.3 140.7.7-.9q7.3 2 13.2 7.25 5.85 5.2 8.6 11.9 2.85 7 1.45 13.7-1.55 7.4-8.1 12.9l-2.25-.65q5.35-4.6 7.5-9.8 2.25-5.35 1.05-11-1.65-7.8-8.65-14.85-6.65-6.7-13.5-8.55"/><path fill="#0d131a" d="M295.1 174.15q.6.3.1 3.4L294 184l-1.3-.8q1.65-6.85 1.2-7.3l-2.9 2.2-3.1 2.6-.9-.7q1.6-1.6 5.25-4.4 2.35-1.75 2.85-1.45m13.8 2.2q.95-1.65 1.35-1.65t1.15 1.75q.8 1.85.75 4.75l-1.2.9-.15-3.65q-.3-1.95-.6-2-.25-.05-1.55 2.25l-1.9 3.15q-.6.75-.3 1.7.25.85.85.75l-.9.7q-1-.15-1.35-1.4t.5-2.1q.9-.9 3.35-5.15m17.25-39.9 1.4.3q-1.25 4.2-3.35 7.05-1.8 2.4-2.75 2.3-.85-.1-1.65-3.35-.8-3.5-.65-7.3l1.65.1q-.15 2.5.2 5.5.35 3.15.9 3.25.4.05 1.5-1.75 1.4-2.35 2.75-6.1m15.3 6.95 1.35.8-.05 4.25q0 4.25.35 4.45.65.3 1.8-2 1.2-2.4 1.2-4.2l1.1.25q.15 1.45-1.55 4.45-1.8 3.05-3 2.65-1.3-.55-1.2-10.65m-6.45-8.45q-.5-.8.55-.25 1 .5 1.35 1.2t.15 1.2l-.6.05zm9.15 6.25.6-.7 1-.05q.6.25.25.45-2.1 1.15-1.85.3M27.65 315.85q-3.9 3.2-3.7 3.5l4.3.15 5.45-.55-.8 1.35-7.5.5q-2.4-.1-2.85-.9t1.15-2.45q2.25-2.25 5.4-4.35l3.2-1.85q1-.25 3.05 1.15 2.1 1.4 2.1 2.75l-1.35 1.3q0-1.15-1.55-2.65-1.35-1.35-2.05-1.5-.95.4-4.85 3.55"/><path fill="#0d131a" d="M46.3 318q-.1-1.25-2.5-3.4-2.45-2.2-3.55-1.6-.85.45-3.7 3.85t-2.5 3.55l4.6-.35q4.65-.75 7.65-2.05m-3.9-6.25q1.75.85 3.55 2.7 1.9 2 1.9 3.2l-.3 1.95q-5.4 1.8-12.45 2.45-5.5.6-1.85-3.6 3.6-4.15 6.4-6.55zm2 18.7 6.15-.85.55-.05q-.15-2.2-1.25-5.1-1.15-2.9-1.8-2.9t-4.65 4.4-3.55 4.7zm2.2-9.5q.9-.75 1.8-.4 1.45.55 2.75 3.8.9 2.3 1.25 4.5l-1.1.7q.7 0 .2.6l-1.05.9q-7.75 1.45-10.3 1.2-2-.15-2.3-.7-.3-.6.95-2.45l3.4-3.9z"/><path fill="#0d131a" d="m51.85 328.5 6.7-5.5q.9-.6 1.65-.4.7.15 1.55 1.1 1.3 1.4 2.4 3.15 1.55 2.4 1.55 3.85l-1.6.5q0-1.35-1.8-4.35-1.75-2.9-2.45-2.9-.8 0-5.5 4.25t-4.5 4.6q.2.3 6.2.05l7.9-.65-1.05 1.5-6.1.7q-4.45.25-7.4-.15l-1.65-.45q-.5-.35-.1-1.1.45-.85 4.2-4.2"/><path fill="#0d131a" d="M77.3 333.4q.5-.15-.5-2.05t-2.35-3.5q-1.85-2.15-3.3-1.15-2.8 1.95-5.9 5-3.3 3.2-2.65 3.55.85.5 5.5 0 5.15-.5 9.2-1.85m-5.5-8.35 2.1.4q1.75 1 3.3 3.4 1.25 1.95 1.75 3.65.4 1.3.25 1.75-.2.45-1.2.75-6.35 1.95-13.1 2.05-6.55.1-2.95-4.1 3.5-3.95 8.35-7.4.6-.4 1.5-.5m223.2-26.5.7.1q2.3.4 6.9 4 4.7 3.65 4 4.85-.5.9-5.4 1.35-4.5.4-8.9.15l-1.2-.85-.75-.85q1.8.3 8.2.05 6.5-.25 6.45-.75-.1-.6-4.25-3.6-4.25-3-5.2-3-.9 0-3.2 2.95t-2.3 4.15l-1.4-.65q0-1.35 1.85-3.85 1.5-2.05 2.75-3.1 1-.85 1.75-.95"/><path fill="#0d131a" d="M287.35 312.35q5.8-.25 5.9-.85.05-.65-2.75-3.1-3.1-2.7-5.65-3.5-1.15-.35-2.7.75-1.3 1-2.4 2.65-1.25 1.9-1.25 3.05l.05.25q2.7 1 8.8.75m-2.35-9q3.15 1 5.1 2.4 1.55 1.15 3.5 3.5 2.2 2.75 1.5 3.65-.7.85-3.75 1-9.9.75-14.45-1-.65-.2-.15-2.1.7-2.5 3.2-5.15 2.85-3 5.05-2.3"/></svg>