<svg xmlns="http://www.w3.org/2000/svg" width="162" height="196" viewBox="0 0.1 161.55 196.05"><path fill="#dcdbd6" d="m84.45 183.05 15.8 2.8 1.2 2.1 1.6 3.25q.5 1.25-7.35-2.05-8.05-3.35-11.25-6.1m70.5-8.9q-.8 1-3.85-3.05-2.55-3.35-4.05-6.4l9.05-23.2q4.2 25.95-1.15 32.65"/><path fill="#b4b4b0" d="M157.85 161.3q-2.75.9-7.2 8.95-2.4-3.15-3.6-5.55l9.05-23.2q1.95 11.8 1.75 19.8"/><path fill="#dcdbd6" d="M122.7 193.85q-11.35-2.4-18.65-7.8l27.8-8 2.4 9.75q1.45 7.1.1 7.3-3.4.5-11.65-1.25"/><path fill="#b4b4b0" d="M114.7 191.5q-6.15-2.1-10.65-5.45l27.35-7.85 1.25 4.65 1.35 6q-6.2-.55-10.05-.15-5.35.5-9.25 2.8"/><path fill="#00add1" d="M133.75 96.4q3.25 1.85 5.8 5.7l10.1 14.95q7.3 12.35 6.75 19.95-1.1 14.45-7.45 25.5-9.9 17.1-30.5 21.45-20.2 4.25-36.15-2.05-9.55-3.75-15-9.7-4.95-5.4-9.9-14.05-7.2-12.45-5.45-19.05l73.75-45.45q5.35 1.2 8.05 2.75"/><path fill="#0093b2" d="m77.05 175.25-4.3-5.55-10.55-10.55q-9.35-15.95-10.25-20.05-.55-2.55 39.4-21.35 19.95-9.35 40.05-18.25 4.15 2.8 9 9.7l6.7 10.45q.9 4.25 3.65 9.25 2.55 4.65 5.65 8.1-1.1 14.45-7.45 25.5-9.9 17.1-30.5 21.45-10.15 2.1-21.35 1.35-9.9-.7-13-2.75-2.3-1.45-7.05-7.3"/><path fill="#00add1" d="M82.05 22.95q1.2 1.2 2.9 4 1.8 3 2.25 4.7.9 3.5 2.8 8.5 2.95 7.8 6.8 14.4 3.9 6.6 16 21.9 8.05 10.2 16.2 19.9l-41.45-3.4L24 31.05Q21.85 26.3 11.35 18.4q-.85-.65-.25-4.05.6-3.3 1.75-4.95 1-1.35 15.35-4.7 13.45-3.15 15.35-3.15 8.6 6.3 24.1 14.1z"/><path fill="#0093b2" d="M82.05 22.95q1.2 1.2 2.9 4 1.8 3 2.25 4.7.9 3.5 2.8 8.5 2.95 7.8 6.8 14.4 3.9 6.6 16 21.9 8.05 10.2 16.2 19.9l-41.45-3.4L24 31.05Q21.85 26.3 11.35 18.4q17.7-6.05 29.5-6.75.75-4.35 1.75-7.6.8-2.5.95-2.5 8.6 6.3 24.1 14.1z"/><path fill="#00add1" d="m50.15 106.3 33.8-23.35 27.9 76.6q-2.3 2.3-12.65 4.6-12.4 2.75-19.85-.4-4.3.3-9.75-1.4-6.35-2-8.6-5.5-6.8-10.55-11.75-27.4-2-6.85-1.55-11.8.2-2.25 2.45-11.35"/><path fill="#0093b2" d="m53.55 141.45-3.8-9.8 2-9.35q1.2-5.35 2.15-8.7.2-1.8-.1-3.75l-.7-3.7 30.85-23.2 27.9 76.6q-2.3 2.3-12.65 4.6-12.4 2.75-19.85-.4-4.3.3-9.75-1.4-6.35-2-8.6-5.5-3.05-4.7-7.45-15.4"/><path fill="#0d131a" d="M85.25 91.75q-2.5 7.6-7.35 13.25-5.4 6.25-11.4 7.2-6.95 1.1-13.3-5.45L86.4 79.1q1.35 5.1-1.15 12.65"/><path fill="#00add1" d="M84 52.8q2.05 6.95 2.55 11.65.45 3.9-.4 10.15-.8 5.95-2 8.8-2.15 5.25-5.85 9.8-6.15 7.6-14.9 10.7-9.6 3.4-17.35 3.9-6.6.4-14.75-1.2-3.6-.75-11.25-5.65-6.65-4.25-8.8-6.4-1.7-1.7-4.75-7.4Q3.3 81.1 2 76.8q-1.2-4 .25-14.15 1.2-8.9 2.45-11.75 1.05-2.4 7.1-9.7 6.4-7.8 8.85-8.95 6.05-2.8 16.6-4.7 9.9-1.85 15.9-1.6 5 .2 14.95 7.05 8.5 5.8 11.55 9.5Q81.7 45 84 52.8"/><path fill="#0093b2" d="M86.55 64.45q.45 3.9-.4 10.15-.8 5.95-2 8.8-2.15 5.25-5.85 9.8-6.15 7.6-14.9 10.7-9.6 3.4-17.35 3.9-6.6.4-14.75-1.2-2.7-.55-8.05-3.65L14.7 97.3l9.25-.7q5.2-.85 8.05-2.95 6.45-4.75 13.5-13.9 5.4-7.05 10.55-15.8 1.2-2.55 1.65-9.2.45-6.2.05-11.7.5-3.3-.3-8.05-.75-4.8-2.45-8.8 5.4 1.25 14.3 7.6 7.6 5.45 10.35 8.7Q81.7 45 84 52.8q2.05 6.95 2.55 11.65"/><path fill="#0d131a" d="M30.9 50.25q2.75.15 7.05 3.8 3.6 3 7 7.2 2.5 3.05 2.8 10.7.2 5.35-.4 8.25-.4 2.1-3.95 6.25-4.55 5.35-9.6 6.75l-9.5.4-7.6-1.7q-2.55-.6-6.1-5.75Q8 82.3 6.15 78.1 4.7 74.9 6 67.4q1.25-7.25 3.55-10.6 1.85-2.7 9-4.85 7-2.1 12.35-1.7"/><path fill="#0d131a" d="M61.2 77.65q0 3.65-2.5 6.25t-6.05 2.6-6.1-2.6q-2.5-2.6-2.5-6.25 0-3.7 2.5-6.3 2.55-2.6 6.1-2.6t6.05 2.6 2.5 6.3"/><path fill="#e85377" d="M37.8 73.05q0 5.05-3.6 8.6-3.6 3.6-8.7 3.6t-8.75-3.6q-3.6-3.55-3.6-8.6t3.6-8.65q3.6-3.55 8.75-3.55 5.1 0 8.7 3.55 3.6 3.6 3.6 8.65"/><path fill="#00add1" d="M85.65 90.25q.75-5.2 1.85-7.15 1.25-2.25 8.1-1.7 7.45.65 13.55 4.45 7.6 1.2 17.15 8.65 7.05 5.55 11.7 11.25l.65.85 1.9 4.75q2.05 5.25 2.6 7.9 1.05 4.95-.6 17.75-.55 4.3-7.25 12.05-3.35 3.9-6.6 6.9l-6.45 2.3q-7.1 2.15-10.1 1.6Q89.5 132.8 85.8 106.5q-1.2-8.7-.15-16.25"/><path fill="#0093b2" d="M127.7 122.1q8.65 4.15 14.25 16.95-1.95 4.35-7.8 11.05l-5.45 5.85-6.45 2.3q-7.1 2.15-10.1 1.6-17-20.3-23.4-40.55-4.55-14.45-3.3-27.2 3.05 7.3 20.8 18.3 10.4 6.45 21.45 11.7"/><path fill="#0d131a" d="m82.25 182.45 2.65.1q2.4 2.1 8.95 4.85 5.9 2.5 6.9 2.45.85-.05-2.35-4.05l2.75.15 1.25 2 1.65 3.05q.35.8-.05 1l-1.85.05q-4.05-.4-9.7-3.05-5.8-2.75-10.2-6.55m73.2-40.85 1.4-1.8q4.7 25.25-.5 34.35-.95 1.7-1.85 1.65l-1.85-1.1q-1.3-1.1-3.4-4.25l-2.6-4.3 1-1.75q1.25 2.45 3.65 5.45 2.25 2.85 2.8 2.8.8 0 1.8-3 1.3-3.95 1.3-9.95 0-7.45-1.75-18.1"/><path fill="#0d131a" d="M120 194.25q-11.6-2.95-19.05-8.4l3.45-.3q6.2 4.4 15.4 6.7l9.75 1.65q1.95.2 2.8 0 1.15-.25 1.3-1.2.3-2.25-2.35-12.4l1.9-1.35q3.65 13.65 2.65 15.9-.45 1-1.5 1.2l-2.55.1q-4.1 0-11.8-1.9"/><path fill="#0d131a" d="m125.5 94.5.4-1.7q5.55 1.3 8.4 2.9 3.3 1.95 5.95 5.9l2.15 3.05q6.65 9.25 9.85 15.25 5.65 10.55 5.15 17.45-1.15 15.15-6.75 25.65-9.3 17.3-30.15 22-20.75 4.65-38.5-2.25-10.9-4.25-16.35-10.15-4.95-5.35-9.85-14.35-7.05-13.05-4.65-20.3l1.65 1.35q-1.7 6.4 5.5 18.75 4.95 8.45 9.65 13.55 5.2 5.75 14.3 9.4 15.75 6.35 36.05 2.1 20.2-4.25 29.9-21.1 6.25-10.9 7.35-25.05.5-6.5-5.15-16.8-3.1-5.7-9.4-14.5l-2.15-3.1q-2.45-3.65-5.5-5.35-2.6-1.5-7.85-2.7"/><path fill="#0d131a" d="m56.2 156.15-.55-2.8q3.6 7.2 10.75 12.15 7.3 5 16.95 6.8 6.45 1.2 14.9.3 9.4-1.05 17.95-4.35 21.6-8.45 27.95-27.2 4.2-12.25 1.8-23.1-1.75-7.8-7.6-16.55l1.6.4q5.9 8.8 7.6 16.75 2.35 10.9-1.95 23.45-6.5 19.15-28.05 27.7-17.45 6.9-32.95 4.1-21.55-3.95-28.4-17.65M83.15 21.5q1.6 1.15 2.9 3.05 1.2 1.8 1.5 3.3.85 4 3.7 11.6 3.55 9.45 7.1 15.45 3.65 6.25 14.15 19.7 8.45 10.85 17.15 21.2l-3.85-1q-22.9-28.25-29.75-39.85-4.25-7.25-7.35-15.7-1.9-5.2-2.35-7.4-.45-1.85-2-4.6-1.7-3-2.9-3.7-2.3-1.35-6.7-3.45-5.05-2.45-18.35-10.05l-13.1-7.6q-.9-.5-14.75 2.9-13.9 3.4-15 4.55-1.15 1.55-1.7 7.85l5.8 4.9q5.95 5.4 7.1 8.05l-1.55.7q-.9-2-7-7.25L9.55 18.3q-.45-.65.55-4.45 1-3.9 2.1-5.45 2-2.75 29.2-8.15L43.95.1l2.1 1q.75.4 11.55 7.15 11.55 7.1 16.5 9.5 2.6 1.25 6 2.55z"/><path fill="#0d131a" d="M40.85 10.65q.8.15 10.4 8.15 9.85 8.3 11.55 10.6l-4.7-2.3q-1.65-2.2-9.1-8.45-7.1-5.9-8.45-6.5-.95-.45-13.3 2.4Q16.1 17.1 13.3 18l-2.55.25q-.8-.35 1.2-1.1Q17.75 15 29.4 12.6q10.35-2.1 11.45-1.95"/><path fill="#0d131a" d="M41.45 6q.95-3.5 1.4-4.1.5-.65.8-.2.3.5 0 1.35l-1.1 3.8q-.8 3-.9 4.2-.1 1.35-.85 1.05t-.5-1.5q.3-1.55 1.15-4.6M86.9 87.9q-.85 4.35-.85 9.55 0 4.55.6 8.9 1.5 10.95 6.7 22.5 6.75 15.25 19.25 30.2 2.8.4 9-1.5l6.65-2.35q3.2-2.9 6.85-7.2 6.1-7.15 6.6-11.1 1.05-8 1.05-12.45 0-2.85-.45-5.05-.55-2.5-2.4-7.45l-2-4.9-.6-.8q-4.6-5.7-11.8-11.3-9.3-7.15-16.5-8.3h-.15l-.15-.1q-4.75-2.95-10.6-3.95-4.9-.85-8.1-.05-1.5.4-1.8 1-.65 1.2-1.3 4.35m2.1-7.45 9.45.3q6.15 1.3 11 4.25 7.95 1.3 17 8.2 6.4 4.9 10.65 10.15l2.3 2.8 1.95 4.85q2.1 5.4 2.65 8.05.25 1.2 0 8.05-.2 6.95-.6 10-.6 4.6-6.8 12.1-5.15 6.15-7.3 7.4-4.95 2.65-10.65 3.65-4.85.8-6.75.1-8.7-7.65-16.6-22.45-7.45-13.95-8.75-23.6-2.95-12.7-2-23.05.6-6.55 2.1-9.3.35-.6.8-.9.5-.35 1.55-.6"/><path fill="#0d131a" d="m87.6 115.2-.2-1.45q11.75 5.05 22.3 15.35 11.25 11 19.2 26.3l-1.55.7q-17.8-31.45-39.75-40.9M118 96.7q-7.75-9.55-11.8-11.55-4.35-2.15-1.45-1.5 2.85.6 5.7 2.15 2 1.1 7.6 8.25 4.9 6.35 7.75 10.95 4.85 2.3 9.75 5.7 5.75 4.05 7.2 6.75l-.05 2.05q-1.2-2.25-7.5-7.05-5.65-4.35-6.6-4.65-.45-.1-.4.9l.4 1.6 6.05 13.05q2.7 5.4 5.5 10.2l2.2 3.85-.95 1.95-2.95-5.4-5.35-10.05q-3.3-6.6-7.3-16.2-.9-2.5-7.8-11m-69.4 12.2.4-1.7 2-.7-.75 2.8q-1.65 6.55-1.8 9.45-.2 4.35 1.6 10.5Q55 145.95 61.7 156.4q2.15 3.25 8.3 5.15 5.2 1.6 9.3 1.35h.2l.2.1q7.25 3.05 19.45.3 10-2.25 12.1-4.35l1.2 1.2q-2.65 2.75-11.3 4.8-11.4 2.8-21.95-.3-3.1 1.1-9.55-1.15-6.95-2.4-9.35-6.2-7.55-11.55-12.25-27.6-1.95-6.55-1.65-10.85.15-2.95 2.2-9.95"/><path fill="#0d131a" d="m52.85 107.2 1.3-.75q0 1.45 1.35 6.9 1.7 7.15 4.4 14.5 8.05 22.05 20.6 35.95l-2.05-.1Q65.3 149.2 58 129.7q-5.6-14.9-5.15-22.5"/><path fill="#0d131a" d="M49.65 131.65q.25-3.5 1.5-9.75 1.4-7.05 2.7-9.45l.95 1.75q-1.15 2.15-2.6 9.15-1.25 6.25-1.55 10.05zM83.4 83.1q1.15-2.8 1.95-8.65.8-6.15.4-9.9-.5-4.65-2.5-11.45Q81 45.4 79 43.05q-3.1-3.7-11.5-9.45-9.65-6.65-14.35-6.8-6.1-.25-15.95 1.6-10.35 1.95-16.15 4.65-2.25 1.05-8.55 8.6-5.9 7.2-7 9.6-1.15 2.65-2.4 11.4-1.45 10-.25 13.9 1.25 4.2 4.45 10.2 2.95 5.6 4.55 7.2Q14 96.1 20.6 100.3q7.45 4.8 10.85 5.45 8.05 1.6 14.4 1.2 7.7-.45 17.25-3.85 8.25-2.95 14.2-10 3.8-4.55 6.1-10M85.15 53q2.05 7.3 2.6 12.25.45 3.95-.35 9.5-.7 5.25-1.95 8.3-2.7 6.4-6.05 10.7-5.9 7.65-14.5 10.7-9.9 3.55-18.65 4.2-7.75.55-15.8-1.05-3.7-.75-11.55-5.95-6.65-4.4-8.85-6.6-1.8-1.8-5.05-7.95Q1.6 80.75.35 76.5l-.3-1.7L0 72.6q0-5.2 1.65-13.55Q3.1 51.9 4 49.75q1.1-2.4 7.1-9.45 6.5-7.55 9.2-8.8 6-2.8 16.6-4.75 10.1-1.9 16.3-1.65 5.15.2 15.4 7.15 8.8 5.95 12 9.8 2.15 2.6 4.55 10.95"/><path fill="#0d131a" d="m5.2 49.35 1.5-.75q-.2 1.25 3.55 7.8l-.85.5-2.45-3.6Q5 50.35 5.2 49.35M31.35 93.1l1.1-.35 2.1 4.05q2.25 4.25 3.05 5.35 1.3 1.85 9.05 5.3l-1.5.6-8.9-4.65q-.55-.45-4.9-10.3M82 49.15l.9 1.3q-2.35.45-7.25 2.8-4.5 2.2-5.6 3.15-.65.6-6.35 7.65l-6.05 7.3-.85-.65 5.05-6.1q-2.5-.85-8.85-.8l-7.05.25v-1q4.1-.5 10.5-.25l6.1.05q.75-.25 3.4-3.65 2.75-3.4 2.5-3.95l-3.55-4.2-6.05-6.35-7.5-7.4q-3.05-3-3.6-3.1t-7.35 7.65l-7.65 8.9h-1.4l5.7-7.55q5.5-7.15 9.25-10.55.85-1.2 3.55-3.25 2.7-2 4.3-2.65l2.9.25q-2.65 1.05-5.45 3-3.05 2.1-2.75 3T59.6 44l10.45 10.55q.15.15 4.95-2.3 5.25-2.75 7-3.1m3.9 26.25-.35 1.9-4.6 1.7-5.4 1.75-.15.05q-3.15 2.65-6.6 6.75-5.25 6.15-6.15 10.35v.4l-.05.05q-.05 1 .4 2.65l.75 2.4-1.2.35q-.85-2.2-.95-4.85L55.4 86l.95-.3q5 10.95 5.4 10.25 1.95-3.9 7.05-10.05l4.25-5.35q-.4-.45-12.15-2.95l.2-1 14.6 2.75 5.15-1.85zM30 73.35q0 2.15-1.65 3.7-1.6 1.55-3.9 1.55t-3.95-1.55q-1.65-1.5-1.65-3.7t1.65-3.75 3.95-1.55 3.9 1.55Q30 71.15 30 73.35"/><path fill="#fff" d="M21.85 69.9q0 1.85-1.05 3.15-1.05 1.35-2.55 1.35t-2.55-1.35q-1.05-1.3-1.05-3.15 0-1.9 1.05-3.2 1.05-1.35 2.55-1.35t2.55 1.35q1.05 1.3 1.05 3.2"/></svg>