<svg xmlns="http://www.w3.org/2000/svg" width="467" height="381" viewBox="-0.15 -0.2 466.5 380.5"><path fill="#c6e7f9" d="m37.8 271.75-10.65 3.55L26 263.25l2.2-4.8 13.05-2.05z"/><path fill="#7dccf3" d="m27.15 275.3 8.25-16.85 5.85-2.05-3.45 15.35z"/><path fill="#c6e7f9" d="m22.5 223.6-.85 22.3-9.15 3.15L.3 245.3l6.35-13.35z"/><path fill="#7dccf3" d="m21.2 231.8.45 14.1-9.15 3.15L.3 245.3l5.8-6.4z"/><path fill="#6cb2d3" d="m22.3 241.75-.65 4.15-9.15 3.15L.3 245.3l9.8.95z"/><path fill="#c6e7f9" d="m130.75 125.1-5.95 76.45-42.95 50.65-60.45 6.85 2.1-55.9 79.7-73.45z"/><path fill="#7dccf3" d="m130.85 127.8-6.05 73.75-42.95 50.65-60.45 6.85 33.25-57.4 70.65-70.4z"/><path fill="#6cb2d3" d="m81.85 252.2-60.45 6.85 61.5-24.75 42.95-49.6-1.05 16.85z"/><path fill="#c6e7f9" d="m49.35 233.6 5.65-3.45 9.75 2.15 2.3 6.45-7.65 35.75-17 13.9-5.8-21.85z"/><path fill="#7dccf3" d="m55.25 230.05 9.5 2.45 2.3 6.25-7.65 35.75-17 13.9-.1-22z"/><path fill="#6cb2d3" d="m64.7 232.65 2.35 6.1-7.65 35.75-17 13.9 13-18.9z"/><path fill="#c6e7f9" d="m328.45 181.35-21.55-12.9-10.5-50.7 8.6-13.4 60.25-18.65 41.95 13.05 11.5 49.85-29.05 31.8z"/><path fill="#7dccf3" d="m328.45 181.35-21.55-12.9-8.4-39.9 36.95-11.6L365.4 85.9l41.8 12.85 11.5 49.85-29.05 31.8z"/><path fill="#6cb2d3" d="m328.45 181.35-22.05-13.9 39.05-.15 59.9-40.85 1.85-27.7 11.5 49.85-29.05 31.8z"/><path fill="#7dccf3" d="m448.4 107.6 17.9 9.05-14.05 15.75-37.85 2.8-3.6-4.35-1.05-7.15 2.05-5.4z"/><path fill="#6cb2d3" d="m464.95 117.2-12.7 15.2-37.85 2.8-3.6-4.35-1.05-7.15 34.35-8.95z"/><path fill="#c6e7f9" d="m380.55 164.5 3.45-11.45 8.25-4.35 46.7 14.4 13.25 22.1-27.6 8.6-38.85-20.5z"/><path fill="#7dccf3" d="m380.65 164.75 3.7-11.35 43.6 13.35 11-3.65 13.25 22.1-27.6 8.6-38.85-20.5z"/><path fill="#6cb2d3" d="m380.75 164.4 40.9 20 30.55.8-27.6 8.6-38.85-20.5z"/><path fill="#c6e7f9" d="m412.4 48 .4 27.65-28.7 34.9-9.2.8-11.1-6.1-1-8.8 21.15-38.55z"/><path fill="#7dccf3" d="M412.8 48.75v26.9l-28.7 34.9-9.2.8-10.3-5.85 22.25-36.8z"/><path fill="#6cb2d3" d="m412.4 48 .4 27.65-28.45 34.65-9.6 1 27-33.3z"/><path fill="#c6e7f9" d="m283.8 55.6 42.35 201.35-12 23.65-31.15 35-128.8-.9-34.3-49.3L136.15 62 207.3.7z"/><path fill="#7dccf3" d="m207.3 1.6 76.5 54.9 42.35 201.35-12 23.65-87.95-29-92.55 33.3-14.6-19.65L226.2 224.5 214.6 34.3z"/><path fill="#c6e7f9" d="M224.35 193.75v-.05l71.5-76 1.75 8.75-72.5 79.45zm-.55-9-2.3-37.65 66.45-68.45 6.9 30.25z"/><path fill="#7dccf3" d="m195.9 271.35 27.7 25.55v26.95l-28.45-22.7z"/><path fill="#ffec60" d="M222.7 60.6q0 2.45-1.8 4.2t-4.3 1.75q-2.55 0-4.35-1.75t-1.8-4.2 1.8-4.2 4.35-1.75q2.5 0 4.3 1.75t1.8 4.2m.5 20.15q0 2.45-1.75 4.2t-4.2 1.75-4.15-1.75q-1.75-1.75-1.75-4.2t1.75-4.2q1.7-1.75 4.15-1.75 2.5 0 4.2 1.75 1.75 1.75 1.75 4.2m-.75 14.55q1.75 1.75 1.75 4.2t-1.75 4.2q-1.7 1.75-4.15 1.75t-4.2-1.75q-1.75-1.7-1.75-4.2 0-2.45 1.75-4.2t4.2-1.75 4.15 1.75M202.2 79.7q1.75 1.75 1.75 4.2t-1.75 4.2q-1.7 1.75-4.15 1.75t-4.2-1.75q-1.75-1.7-1.75-4.2 0-2.45 1.75-4.2t4.2-1.75 4.15 1.75m-16.5 9.1q0 2.45-1.75 4.2t-4.2 1.75T175.6 93q-1.75-1.75-1.75-4.2t1.75-4.2q1.7-1.75 4.15-1.75 2.5 0 4.2 1.75 1.75 1.75 1.75 4.2m56.15-6.4q0 2.35-1.65 4t-3.95 1.65q-2.35 0-4-1.65t-1.65-4 1.65-4 4-1.65 3.95 1.65q1.65 1.65 1.65 4m18 4.4q0 2.25-1.55 3.85-1.6 1.55-3.8 1.55t-3.8-1.55q-1.55-1.6-1.55-3.85 0-2.2 1.55-3.8 1.6-1.55 3.8-1.55t3.8 1.55q1.55 1.6 1.55 3.8"/><path fill="#6cb2d3" d="m156.25 313.75-24.2-29.85 94.15-30.7v-28.7l100.05 34.25-12.85 23.75-30.4 33.1z"/><path fill="#c6e7f9" d="m93.85 304.9 21.9-29.9 80.15-3.65 27.7 25.55v26.95l-23.55 21.6-6.9 1.15-55.2 4.4-9.8-.2-31.35-18.95z"/><path fill="#6cb2d3" d="m117.55 307.55-1.8-32.55 80.15-3.65 27.7 25.55v26.95l-23.55 21.6-6.9 1.15-55.2 4.4z"/><path fill="#6cb2d3" d="M223.6 296.9v26.95l-28.35-21.95.65-30.55z"/><path fill="#6cb2d3" d="m117.4 304.85 78.2-2.95 28 21.95-23.55 21.6-71.9 5.35-31.35-18.95z"/><path fill="#c6e7f9" d="m156.55 313.65 43.65 11.5-1.1 14.4-31.95 39.55-45.6-44.3zm194.6 13.85-29.85 16.75-56.9 2.2-32.05-19.7V302l29.15-16.8 63.45.15 28.95 20.15z"/><path fill="#7dccf3" d="m351.15 327.5-29.85 16.75-58.45-31.35-1.35-27.7 63.45.15 28.95 20.15z"/><path fill="#6cb2d3" d="M324.65 285.35h.3l28.95 20.15-2.75 22-29.85 16.75-17.5.7q2.3-1.85 20.75-33.15z"/><path fill="#6cb2d3" d="m264.4 346.45-32.05-19.7 31.35-15.05 60.15.1 27.3 15.7-29.85 16.75z"/><path fill="#c6e7f9" d="m272.45 331.15 29.9-8.75 26.5 10.65-29.45 38.9-29.85-28.4z"/><path fill="#7dccf3" d="m199.1 339.55-31.95 39.55-10.6-65.45 43.65 11.5z"/><path fill="#6cb2d3" d="m199.1 339.55-31.95 39.55 33.05-53.95z"/><path fill="#7dccf3" d="m302.35 322.4 26.5 10.65-29.45 38.9z"/><path fill="#0d131a" d="m24.9 263.3 2.8-5.15 1.5.75-2.1 4.5.95 10.45 9.45-3.1.7 1.55q-11.6 4.55-12 4.4t-1.3-13.4"/><path fill="#0d131a" d="m29.15 268.35 5.8-10.85 1.25.65-5.8 10.75-2.6 6.65-1.3-.55z"/><path fill="#0d131a" d="m25.4 263.6 1.2-.7 3.15 5.7 7.7.9-.2 1.4-8.4-1zM7.25 230.55l7.8-4.25 6.95-3.65 1 1.9L6.5 233l-2.1 5.35-2.6 6.3L12.35 248l8.95-3.1.85 1.75-9.55 3.1-6.45-1.85q-6-1.9-6.15-2.3t2.4-6.55l2.85-6.7q.25-.6.7-.95z"/><path fill="#0d131a" d="M5.45 238.15 22 230.1l.65 1.25-16.6 8.05z"/><path fill="#0d131a" d="m4.9 239.05 1.7-7.3 1.35-.15q-1.9 6.9-1.9 7.3l3.75 6.65-1.2.25zM130.4 124.7l.55 1.8-13.05 1.9q-13.25 2-14.05 2.6-77.85 70.6-78.6 72.55-.45 1.25-1.4 26.55l-.95 27.35 17.85-2-.9 3.25-18.45 1.2-1.1-.2q-.35-.35-.35-1.45 0-4.3 1.2-27.8 1.3-26.85 2.2-27.85 1.55-1.7 78-73.3 1.75-1.3 3.1-1.55zm-6.7 75.95 1.45 2.05-42.5 50.4-3.15.6-15.55 2.2.55-3.15 16.65-1.9z"/><path fill="#0d131a" d="M82.15 251.1q-.35.85-.9.65l-.45-.4 2-18.1-28.15-30.5-31.1 1.45-.1-.6q.1-.7.95-.9l15.7-1 14.7-.75.45.05q.55.15.9.45l14.65 15.7L85 232.5q-2.2 17.25-2.85 18.6"/><path fill="#0d131a" d="m125.2 130.05 5-2.95 1.05 1.85-4.85 2.85-70.45 70.55-33.2 56.15-1.8-1.05 33.3-56.4 70.85-70.95z"/><path fill="#0d131a" d="m22.7 259.35-.8-1.95 22.15-9-.4 1.55-.9 1.4zm102.9-75.6 1 1.45-42.4 49.6-18.3 7.3q.4-1.5.4-2.7l17.1-6.95zm.6-53.85 5 4.85-1.5 1.55-4.4-4.3-22.15-1.25.1-2.1z"/><path fill="#0d131a" d="m55.2 230.65-5.25 3.05-12.25 32.95 5.3 19.9 15.4-12.65 7.55-35.05q-1.4-5.25-1.75-5.75-.4-.45-9-2.45m10.1 1.25 1.25 3.2q1.1 2.95 1.1 3.8L64 257.5l-3.65 17.6q-18 15.3-18.55 15.15-.6-.15-6.35-23.75l13.05-33.6 6.45-3.35q.55-.2 5.35.9t5 1.45"/><path fill="#0d131a" d="m36.55 267.1-.25-1.05 5.85-1.25h.15l13.65 4.25 3.85 5.15-.85.6-3.65-4.85-13.05-4.1z"/><path fill="#0d131a" d="m54.8 230.05 8.1 2.6-7.35-1.85-6.45 17.9-6.1 16.75-.05 20.75 12-17 9.1-36.2.85.25-8.6 36.55-13.35 18.15-1.05-.35-.35-22.4zm277.5-135.6 29.2-9.3 3.2-.95 2.35.25 1.5.45q-.05.65-.8 1.4l-1.05 1.3-1.45-.45-59.35 18.4-8.35 12.95-1.35-2.15 3.35-5.75q3.55-5.9 4.6-6.7 1-.8 28.15-9.45m63.3 2.15 1.15-1.15.95-1.2q5.75 1.85 10.1 3.85l1.7 5.9 3.45 13.8q-1.55.45-2.3 2.05l-4.65-20zm-36.25 85.35-31.4.05q-1.4-.2-20.35-12.8l-.25-2.5 21.2 12.9q1.15.35 30.5-.05l30-.55 2.4-2.6 3.15 1.55q-2 2.2-4.1 3.45-.7.35-31.15.55m57.8-33.75-3.25-14.25q1.55 1.1 2.9.8 2.95 13.45 2.8 14.4-.15.75-5.35 6.75l-2.6-1.65z"/><path fill="#0d131a" d="m334.8 116.15 1.25-.05 35.2 4.8q35.3 5.05 35.5 6.15.25 1.1-30.3 21.25l-30.65 19.9h-39.85v-1.4l39-.5 58.6-38.5-68.2-9.5L299 128.95l-.45-1.35z"/><path fill="#0d131a" d="m406.25 98.75 1.4.1-.75 28 6.2 10.95 6.2 10.45-1.4 1.05-12.35-20.7-.5-2.4zm-41.5-13.55 1.05-.05 1.85 1.85-1 1.15-1.4-1.45-28.7 30.1 9.25 49.65 42.45 12.15 1-3.2 1.45.35-1.55 4.6-21.55-5.85-22.65-6.3q-.85-.35-5.8-26.05l-4.8-25.6z"/><path fill="#0d131a" d="m387.3 106.7 13.2 13.75q5.75 6.2 5.75 6.65-.05.8-7.3 23.15l-1.55-.25 7.25-22.55-18.35-18.95q1-.95 1-1.8m64.45 24.65 12.85-14.4-16.3-8.25-35.7 10.5-1.9 4.25 1.1 6.95 3.05 3.7zm-5.05-23.9 2.05-.45 1.6.3q2.1 1.05 8.2 4.55 7.45 4.25 7.6 4.85.2.65-6.3 8.5-6.4 7.75-7.1 7.9l-38.6 2.35-4.05-4.45-1.1-7.75 2.5-5.4z"/><path fill="#0d131a" d="m447.8 107.65 1.2.3-4.45 6.95 2.7 12.95 5.25 3.55-.6.85-5.95-4.2-2.9-13.45z"/><path fill="#0d131a" d="m465.95 116.75-19.1 11.45-35.8 2.95-.3-1 35.65-3.3 15.35-9.2-17.6-2.15-34.2 8.4.35-1.1 33.65-8.7.1-.05zm-73.6 32.85-4.1 2.25-3.5 1.7-1.75 5.3q-1.8 5.5-1.7 5.9l2.4 4 2.4 3.75 38.6 20.15 25.9-8.05-12.35-20.6zm-1.2-.75.4-.35 1.55.1 23.25 6.75q22.4 6.4 23.3 6.85 1.35.65 12.95 21.5.75 1.45.65 2-.1.35-1 .75l-27.75 8.5q-.95.15-39.35-21.15l-2.7-4.2-2.75-4.6q-.1-.4 1.8-6.2 1.9-5.85 2.25-6.1z"/><path fill="#0d131a" d="m426.65 166.3 12.3-3.4.75 1-11.95 3.55-5.7 16.6 3.25 9.5-1.15.25-3.6-9.75z"/><path fill="#0d131a" d="M384.5 154.05q-.3.1-1.65 5.05t-1.2 5.15l39.8 19.1 26.7.45-21.3-16.3zm-4.3 10.8 4.4-11.7 42.9 13.1 24.95 19.05-31.35-.55zm31.55-89.6-.4-25.75-26.65 9.3-10.55 18.8q-10.25 18.45-10.3 19.1-.05.85.4 4.25.5 3.45.75 3.9.3.5 4.8 2.9 4.45 2.45 5.2 2.55l8.55-.75zm-.05-27.9q1.1-.25 1.5.4.35.55.35 2.05l.35 26.2-14.25 17.2-15.05 17.6-4.85.65-5.1.55q-.75.15-11.25-6.25-.35-.35-.85-4.8-.55-4.35-.35-4.95 20.2-36.95 20.95-38.05.45-.7 13.95-5.6 12.85-4.6 14.6-5"/><path fill="#0d131a" d="m407.35 76.4 5.3-1.45q1.35-.5.3 1.35l-5.45 1.35-6.15 1.25q-.85-.15-15.5-9.5-.45-.35-1.6-5.85l-1-5.45 1.4-.35 1.1 4.75q1.1 4.85 1.35 5.3.25.55 7 4.9 6.8 4.3 7.85 4.55.95.25 5.4-.85"/><path fill="#0d131a" d="m365.25 105.35 9.4 5.2L401 77.75l9.4-26.4-22.85 17.55zm37.45-27.2-12.95 16.4Q376.45 111 375 111.3q-.7.15-5.6-2.75t-5.25-3.7l22.05-37.3 26.5-19.4zM327.9 258.5l-.15.75-.35.65-12.2 22.65-7.3 2.85-2.15-1.7 7.35-3.25 11.55-22.8L281.9 57.2 207.35 3.4 137.5 63.6 121.35 266l4.4 7.85-1.7 1.05q-5.05-5.8-5.7-8-.5-1.7 7.45-101.6 7.9-100 8.8-102.1.7-1.8 35.25-31.6L205.1 1.3q1.05-1.1 1.7-1.25.95-.25 2.35.95l38.05 27.45q37.1 26.85 37.5 28.1l21.85 101.5z"/><path fill="#0d131a" d="m282.9 56.3.9 2.65-69.35-24L135.7 65.4l.5-2.9 77.85-29.65.35-.1zm43.3 201.15-1.4 2.3-98.7-35-105.5 42.3-.9-2.05 106.35-42.5zm-102.1 58.4-.2-2.6 8.45.05.25 2.6z"/><path fill="#0d131a" d="m314.55 280.35-2.2 1.7-87.2-28.3-54.95 19.6-.7-2 55.25-19.7.35-.1zM213.35 34l-6.8-31.25h1.15l7.9 31.6 1.25 19.7h-2.25zm4.35 32.75.5 8.45h-2.3l-.55-8.45zm1.25 19.75.4 6.85L217 93l-.4-6.5z"/><path fill="#0d131a" d="M217.7 104.85h2.4l7.6 119.45-.8 28.5-2.05.4.15-29.5zM103.45 288.7q10.7-14.65 11.55-15.05l38.55-1.85 39.95-1.7 3.25.2q.8.3 1.6 1.25l13.55 12.7q12.95 12.2 13.15 13.3.3 1.45.05 13.85-.25 12.65-.75 13.75-.7 1.6-23.65 21.6l-7.3 1.25-.5-2.8 6.5-1.1q22.25-19.3 22.8-20.85.55-1.6 0-25.75l-26.8-24.7-78.9 3.6-21.15 28.9L98.1 331q28.95 18.2 30.45 18.4l7.6.15 1.8 2.85q-8.4.35-10.25-.2-1.25-.35-16.45-9.45-14.95-8.95-15.7-9.6-.65-.5-2.1-14-1.4-13.4-1.05-14.65.35-1.2 11.05-15.8"/><path fill="#0d131a" d="M117.75 305.95q-1.05.35-10.5 13.3l-9.3 12.9-.8-1.3L106 317.6q9.15-13.35 10.65-13.75l39.9-1.95 38.05-1.5h.7q.9.2 1.8 1.05l13.85 11.2 12.8 10.15-.85 1.45q-6.7-5.25-13.6-10.55-13.7-10.6-14.35-10.8l-38.4 1.2z"/><path fill="#0d131a" d="m194.5 271.4 2.1.05-.35 29.8h-2.1zm-79.8 3.65 2.1-.1 1.45 29.9-2.1.1zm42.05 40.1q-1.7.5-17.15 10.1-15.8 9.75-15.55 10.6.2.75 20.85 20.3L167 377l30.75-37.95.95-12.85-21.05-5.9q-19.75-5.45-20.9-5.15m-2.95-1.75q1.5-.95 2.6-1.2l2.9.15q41.9 10.85 42.25 12.1.2.8-.4 8.3l-.65 7.35q-31.15 40.2-32.8 40.1-1.1-.05-24.35-22-22.85-21.6-23.75-22.9-.55-.8 16.05-10.95z"/><path fill="#0d131a" d="m155.85 313.95 2.05-.2 9.8 61.8 31.9-50.8 1.05 1.65-33.85 52.55zm169.55-30q1.6.45 15.5 10.45 13.75 9.9 14.55 11 .7.95-1.45 11.6-2.05 10.25-2.65 11.2-.5.85-29.9 17.8l-2.6-.25 1.85-2.9.9.3 28.25-16.55q3.5-18.75 3.1-20-.35-1.2-28.4-19.8l-62.65-.15-28.15 16.15v23.15L264.8 345l6.25-.2 1.95 2.5-8.2.3-16.3-9.75q-16.4-9.85-16.85-10.4-.55-.65-.95-13-.4-12.45.25-13.3.55-.7 15.25-9 7.35-4.15 14.6-8.15l.35-.2q62.05-.5 64.25.15"/><path fill="#0d131a" d="m324.5 310.4 26.9 16.3-1.1 1.85-26.4-16.05-60.05.25-31 14.6-.9-1.9 31.4-14.85z"/><path fill="#0d131a" d="m326.05 286-.8 25.5-1.85-.25.5-25.3zm-65.6-.7 2.1-.15 1.15 26.65-1.7-.35zm13.2 46.95-2.55 10.8 28.25 28.45q25.25-35.2 27.25-37.85l-24.35-9.75zm26.25-9.95 1.7-.4q.95-.05 2.35.55l14.05 5.1q12.35 4.6 12.15 5.25-.3.95-15 20.6-14.75 19.8-15.45 19.85-.65.05-15.55-14.1-14.7-14-15.1-14.75-.25-.55.8-6.4t1.6-6.9q.45-.9 14-4.8z"/><path fill="#0d131a" d="m301.3 322.65 1.75-.2L302 347.2q-1.25 24.75-2.3 25-1.05.2-14.55-20.2l-13.3-20.45 1.65-1.05q23.2 36.35 25.3 39.35zM221.65 60.4q0-2.05-1.45-3.45-1.5-1.45-3.6-1.45t-3.6 1.45-1.5 3.45 1.5 3.45q1.5 1.4 3.6 1.4t3.6-1.4q1.45-1.45 1.45-3.45m-5.05-6.8q2.95 0 5.05 2.05t2.1 4.95-2.1 4.95-5.05 2.05-5.1-2.05q-2.1-2.05-2.1-4.95t2.1-4.95q2.15-2.05 5.1-2.05m-6.3 27.15q0-2.9 2.05-5 2-2.05 4.9-2.05t4.95 2.05 2.05 5q0 2.9-2.05 4.95t-4.95 2.05-4.9-2.05q-2.05-2.05-2.05-4.95m3.55 3.45q1.4 1.4 3.4 1.4 2.05 0 3.45-1.4 1.45-1.45 1.45-3.45t-1.45-3.45q-1.4-1.45-3.45-1.45-2 0-3.4 1.45-1.45 1.45-1.45 3.45t1.45 3.45m7.85 11.85q-1.4-1.45-3.4-1.45t-3.45 1.45-1.45 3.45q0 2.05 1.45 3.45 1.45 1.45 3.45 1.45t3.4-1.45q1.45-1.45 1.45-3.45t-1.45-3.45m-8.35-1.5q2.05-2.05 4.95-2.05t4.9 2.05q2.05 2.05 2.05 4.95t-2.05 4.95q-2 2.05-4.9 2.05t-4.95-2.05-2.05-4.95 2.05-4.95m-12.1-14.1Q199.85 79 197.8 79q-2 0-3.4 1.45-1.45 1.45-1.45 3.45t1.45 3.45q1.4 1.45 3.4 1.45 2.05 0 3.45-1.45 1.45-1.4 1.45-3.45 0-2-1.45-3.45m-8.15-1.5q2.05-2.05 4.95-2.05t4.95 2.05 2.05 4.95-2.05 4.95-4.95 2.05-4.95-2.05-2.05-4.95 2.05-4.95m-16.8 5.95q-1.4 1.4-1.4 3.45t1.4 3.45q1.45 1.4 3.45 1.4 2.05 0 3.45-1.4t1.4-3.45-1.4-3.45q-1.45-1.45-3.45-1.45t-3.45 1.45m-3.55 3.9q0-2.9 2.05-4.95t4.95-2.05 4.95 2.05 2.05 4.95-2.05 4.95-4.95 2.05-4.95-2.05-2.05-4.95M233 85.15q1.35 1.35 3.25 1.35t3.2-1.35q1.35-1.35 1.35-3.25 0-1.85-1.35-3.2-1.3-1.35-3.2-1.35T233 78.7q-1.35 1.3-1.35 3.2t1.35 3.25m3.25-9.5q2.75 0 4.7 2t1.95 4.75-1.95 4.75q-1.95 1.95-4.7 1.95t-4.75-1.95q-1.95-1.95-1.95-4.75t1.95-4.75q2-2 4.75-2m22.3 10.7q0-1.75-1.25-3.05-1.25-1.25-3-1.25-1.8 0-3.05 1.25-1.25 1.3-1.25 3.05 0 1.8 1.25 3.05t3.05 1.25q1.75 0 3-1.25t1.25-3.05m-4.05-5.95q2.65 0 4.55 1.85 1.85 1.9 1.85 4.55t-1.85 4.55q-1.9 1.9-4.55 1.9t-4.5-1.9q-1.9-1.9-1.9-4.55t1.9-4.55q1.85-1.85 4.5-1.85M1.7 244.7l7.75.35 12.35-4.3.45 1.3-12.1 4.25-8.9-.95-.45-.65 4.75-6.75.2 1.45z"/><path fill="#0d131a" d="m8.45 245.95 1.25-.35 3.2 3.2-.2.45z"/></svg>