<svg xmlns="http://www.w3.org/2000/svg" width="387" height="290" viewBox="0 -0.75 387.3 290.25"><path fill="#e50044" d="M163.6 113.1q-3 4.5-9.05 9.45-6 4.9-11.25 7.25-5.85 2.6-7.8.5-9.65-10.2-46.5-51L51.05 37.1q-9.3-10.6-9-11.5.15-.45 11.45 5.7l11.3 6.3 4.15-2.5q4.25-2.45 4.6-2.1.55.55.15 8.8 12 .75 12.2 1.5t-5.05 4.65L123.2 75.9q9.25 6.2 21.3 14.8 16.25 11.6 20.3 15.35 2.2 2.05-1.2 7.05"/><path fill="#c6003a" d="m42.05 25.6 49.2 51.75 46 48.2-3.5 3.5-42.25-46.8q-8.3-9.6-24.2-27L48.4 34.5q-4.3-4.95-5.75-7.4z"/><path fill="#0d131a" d="m166.5 106.05-2.15 1.1q-26.5-20.55-56.7-40.5Q91.4 55.9 79.6 48.9q-.75-.5-.75-.75l.8-.75q3.8-2.25 5.7-3.75L73.5 43.2l-.8-.2v-.8l.5-7.5v-.6q-2 .85-7.8 4.55-.5.35-1.05 0-7.1-4.4-12.8-7.55-6.4-3.5-8.4-4.05 2.15 3.15 44.6 49.35l47.65 51.9-1.7 2.5-74.75-83.75Q46.45 33.35 42.7 28.7q-2.65-3.3-2.15-3.85.55-.65 6.2 1.9Q54.1 30 64.8 36.85q4.45-3.35 7.2-4.75 2.25-1.1 2.95-.7.45.25.2 3.85l-.6 6.1 11.05.75q1.35.3 1.6 1 .5 1.65-5.2 5.1 44.85 27.1 84.5 57.85"/><path fill="#e50044" d="M197.25 109.45q10.1-3.55 18.9-3.55 16.85 0 32.65 12.55 6.95 5.5 11.05 11.8 4.25 6.55 4.25 12.15 0 19.45-6.95 36.75-6.75 16.9-19.3 29.7-12.7 12.9-29.6 19.85-17.55 7.25-37.65 7.25-19.95 0-38.9-9.1-18.85-9-25.2-21.45l3.7 3.5q4.85 4.2 10.8 7.75 18.9 11.2 41.15 11.2 33.95 0 59.45-19.4 9.25-7 15.95-15.55 5.4-6.85 7.05-11.7l-4.65 1.65 4.35-6.55 2.2-4.1-4.65 1.6 3.4-6.95 1.15-3.35.45-1.7q-6.2 3.35-16.55 6.7-20.7 6.65-41.35 6.65-14.3 0-23.3-3-7.4-2.5-9.3-6.1-4.8-9.35 5.55-27.4 4.25-7.4 9.75-13.55t10-8.55q8.7-4.65 15.6-7.1m-129.95-1.9q8 7 9.75 24.15-.2 1-10.45 4.8-11.55 4.35-25.3 8.05-13.05 3.45-26.8 5.25l-12.7 1q-.95-.3-.9-4.35.05-4.4 1.3-9.85 3.4-14.9 11.85-23.05 5.6-5.35 13.35-10 9.2-5.5 14.75-5.5 14.3 0 25.15 9.5"/><path fill="#e50044" d="M207.15 103.55q3.95 1.1 5.45 2.15-4.3.7-10.25 2.4-11.85 3.35-19.95 8.25-8.05 4.95-14.95 13.45-3.45 4.3-5.3 7.55-9 6.4-30.9 24.35l-5.25-.55-3.2-.75q-.4-8.7 5.3-20.05 5.45-10.75 13.45-18.35 9.3-8.8 19.35-13.95 12.95-6.65 26.2-6.65 12.2 0 20.05 2.15"/><path fill="#d2e5f6" d="m42.6 122.35-9.9 9.6q-21.95 6.15-23.25 5.8-.95-.3-2.15-5.35-1.2-4.9-1.05-7.05 1.35-2.55 3.2-5.55 3.65-5.95 6-7.95 2.35-1.95 8.55-6.05l5.7-3.65 4.9.85q5.3 1.15 7.25 2.7l6.1 4.25q3.65 3 3.65 6.05l-3.8 2.55z"/><path fill="#d2e5f6" d="M37.6 62.05q5.1-7.7 5.95-7.7.35 0 .5 4.1.15 5.4.75 8.5l2.1-1.55q2.4-1.65 4-1.95l-.55 12.25q-.15 13.8 2.05 21.35l-4.9.35q-5.75.6-10.2 1.9-4.45 1.35-9.65 4.1l-4.35 2.5q0-3.8.65-9.1 1.25-10.6 4.4-18.1 3.35-7.9 9.25-16.65"/><path fill="#d2e5f6" d="M163.25 171.45q8.35 3.85 24.95 3.85 18.9 0 40.7-6.55 10.95-3.25 18.05-6.55-.35 3-5.1 11.6 1.95-.25 4.1-1.1-.55 2.2-3.4 6.55l-2.8 3.85q1.3-.2 4.85-1.9-1.25 3.9-6 10.4-6.35 8.65-15.1 15.85-25.5 20.8-60.75 20.8-23.6 0-42.05-12.05-5.75-3.75-10.3-8.3l-3.4-3.75q-15.5-8.75-21-11.4-3.65-1.75-18.5-9.45-13.85-7.2-16.6-8.75-1.45-.85-8.8-3.55-10.05-3.7-16.55-6.35-8.2-3.35-16.6-8.9L2.2 150.9l19.35-2q7.5-1.25 19.75-4.35l3.75 2.25q4.65 2.25 9.25 2.25t8.55-6l3.05-6 11.25-4.75q0-6.45-2.9-13-2.4-5.35-7.35-11.85-3.65-4.85-13.25-7.8L44.8 97.7l3-.3q3.7-.25 7.25-.1 5.6.25 13.5 3l3.55-3.7q5.45-5.15 14.8-12.25 9.4-7.1 18-10.85 4.3-1.85 6.75-2.3l-5.9 13q4.4-1.95 7.4-1.7 1.5.1 2.1.6-5.6 6.85-14.9 24.95-10.7 20.8-10.7 28.95 0 4.15 4.4 8.85 4.3 4.6 12.25 9.1 6.55 3.75 16.4 5.65l8.55 1.1 31.1-24.65-3.85 6.85q-3.9 8.2-3.9 15.25 0 8.3 8.65 12.3"/><path fill="#e50044" d="m263.2 104.55 5.25.4q5.35.55 5.8 1.1.85 1.05.6 6.35-.35 6.7-2.7 14.1l10.65 7.2q11.75 8.1 17.5 12.65 20.5 16.35 19.85 17.25-.55.75-8.25-1.15 2.6 4.35 1.85 4.9t-12.55-4.7q6 7.9 5.25 8.45t-9.9-2.45q.35 5.45-.6 5.45-.65 0-16-14.75-15.35-14.65-16.2-16l-11.4-9.9q-10.65-9.4-11.1-12.95-.45-3.45 4-8.9 5.55-6.85 13.8-6.85z"/><path fill="#fff" d="M44.8 129.25q4.7-8 8.25-8 4 0 8.25 4.35 4.6 4.7 4.6 10.3 0 5.5-4.65 9.65-4.05 3.6-7.85 3.6-3.55 0-8.2-1.9-5.05-2.1-5.05-4.2 0-5.9 4.65-13.8"/><path fill="#ed8599" d="m37.25 158.65 3-1 3-1.45 1.55 3.15q1.35 3.25.45 3.7t-4.55-1.9z"/><path fill="#d2e5f6" d="M160.25 199.8q8.6-3.3 18.35-3.3 9.05 0 17.2 2.95 9.4 3.35 9.4 8.45 0 5.6-8.3 10.45-8.45 4.9-18.45 4.9-9.8 0-18.7-5.2-8.65-5-8.65-10.05 0-4.65 9.15-8.2"/><path fill="#e50044" d="m147.75 233.5 6.25.85 7.5 1.15 1.1 3.5 2.9 10q1.7 6.3 2.35 17.3.65 10.8-.5 11.3-1.35.55-6.3-4.45-5.35-5.45-7.7-10.8-2.35-5.45-3.85-14.05-1.3-7.3-1.75-14.8"/><path fill="#fff" d="m168.25 268.15 2.45 2.45q2.35 2.65 1.95 3.75l-2.45-.1-2.05-1.5zm.4 6.1q2.8 6.3 2.5 6.75-.25.4-1.55-.4-1.5-.85-2.45-2.4l1.1-2zm-2.1 3.35q.2 2.1-.8 2.3-1.05.15-2.55-3.85z"/><path fill="#b5c6d5" d="m151.3 208.95 3.3 2.15q4.3 2.45 9.25 4.05 15.95 5.1 32.8-.4l2.25 2.05q-1.95 1.6-5.5 3.25-7.05 3.2-14.95 3.2-13.95 0-21.95-7.15-2.5-2.25-4.1-4.9z"/><path fill="#b5c6d5" d="m43.9 171.4-9.7-3.85q14 3.6 50.1 20.15 28.3 12.95 40.6 19.55 6.05 3.3 4.75 4.35l-5.9.15 1.5 1.3q2.35 1.55 6.65 2.85 13.7 4.1 41.35 4.1t45.45-9.9q4.1-2.3 7.05-4.6-4.95 4.35-12.05 8.7-22.85 14.05-50.95 14.05-24.5 0-42.9-12.25-5.8-3.85-10.25-8.45l-3.3-3.85L73.55 186q-6.8-3.65-18.35-9.2z"/><path fill="#c6003a" d="M121.05 220.95q-6.05-4.7-10.35-10.3l-3.05-4.7 3.35 3.5q4.55 4.15 10.45 7.65 19 11.15 44.85 11.15 32.15 0 65.5-25.2 16.65-12.65 26.9-25.25-27.9 58.15-88.1 58.15-30.1 0-49.55-15"/><path fill="#008fc5" d="m152.1 233.85 3.25-1.1q3.4-1.15 4-1.15l8.75 1.55q8.05 1.6 9 2.1l-3.6.6q-4.55.45-9.25 0l-8.9-1.3z"/><path fill="#c6003a" d="M203.85 138.45q11.05-6.15 17.85-8.65l7.35-2.75 8.4 2q8.95 2.35 14.05 6.15 4.25 3.2 4.1 5.85-.05 1.45-1.5 1.95l-4.05-.2q-16.1-4.6-42.8 1.4l-14.6 3.65q-4.8 1.15-2.8-.55 3.45-2.95 14-8.85M275 105.9l.15 2.55v6.4q-.1 3.3-1.65 8.05l-1.5 4.15-3-1.85q2.35-4.35 4.4-12.25zm-8.55 39.95-2.7-2.5-.55-3.75 14.15 13.35q15 14.3 19.2 19.1l-.6 2.05-5.7-4.75q-6.95-6.1-13.4-12.9z"/><path fill="#b5c6d5" d="m43.8 56.35.5 4.5.35 7q1.05-1.55 3.75-3.15l2.5-1.25-.15 4.45-.6 10.95q-.35 5.4.75 12.55l1.15 6.05q-6.8-.15-16.85 2.95-5 1.55-8.65 3.15.35-12.65 6-26.2 3.75-9.05 11.25-21"/><path fill="#0d131a" d="M74.9 123.5q-1.65-6.05-4.9-10.9-4.8-7.2-12.65-10.95-7.3-3.5-13.75-2.55-10.95 1.65-19.6 7.25-6.75 4.4-11.7 11-5.55 7.4-8.35 16.35-2.15 6.85-2.15 12.15 0 2 .35 3.15l.5.85q18.4 0 46.5-8.3 10.1-2.95 18.5-6.15 7.5-2.85 8.55-3.85-.05-3.55-1.3-8.05M52.55 98.35l-2.3.05q13.5 2.35 21.05 12.55 6.65 9.1 6.65 21.15 0 1.5-8.25 4.8-8.1 3.2-20.1 6.6-29.75 8.3-47.45 8.3-2.15 0-2.15-5.25 0-13.2 6.8-24.55 6.35-10.45 17.15-17.25 10.55-6.6 22.4-7.9 12.35-1.4 22.75 3.45l-.65 1.05q-2.2-1.3-6.6-2.15z"/><path fill="#0d131a" d="M45.15 106.4q6.4 4.15 7.65 8.95.35 1.2-.5 1.65-3.95 2.3-8.5 5.65-7.35 5.45-10.2 9.7-.3.5-.85.6-22.65 6.25-23.5 5.9-1.15-.4-2.25-4.35-1.2-4.4-1.05-9.35l1.25.05v1.05q0 4.2 1.1 7.7.75 2.6 1.5 3.35 2.3-.3 22.35-5.8 2.95-4.45 10.4-9.9 4-3 8.65-5.75-.9-4.15-7.45-8.2-7.1-4.45-14.8-4.45l1.1-1.35q8.15 0 15.1 4.55m-2.75 55.05q2.15 1.15 2.45.9.35-.25-1.95-5.55-1.55 1.4-4.55 2.1zm-5.65-2.2-2.25.3q-1.65.1-1.7-.35t1.55-.6q2.6-.2 5.2-1.35 2.3-1.05 3.05-1.95l.6-.5.5.65q1.5 3.2 2.1 5.45.7 2.4.1 2.75-.9.65-4.2-1.05-2.9-1.55-4.95-3.35m-9.95 6.9Q10.45 159.8 1.3 151.5l1.3-1.55q8.6 7.2 24.1 13.95 8.35 3.65 21.15 8.55 19.45 8.55 68.95 36.1 3.85 2.5 3.55 2.95-.35.4-4.25-1.3l-28.75-15.5q-30.05-16.2-40.1-21.1-11.9-4.15-20.45-7.45"/><path fill="#0d131a" d="M235.3 111.4q-9.65-4.2-18.85-4.2-15.75 0-29.25 7.4-11.6 6.35-20 17.2-7.45 9.5-10.25 19.5-2.7 9.6.1 14.4 2.35 4 12 6.2 9.55 2.2 22.85 1.9 31.6-.75 55.2-13.2 1.15-.6 1.4-.4.25.15-.15 1.35-.85 3.05-2.9 6.8l-2.8 4.75 1.8-.85 1.5-.9q1.1-.5 1.3-.3l-.2 1.35q-1.05 3.45-5.8 9.5 1.45-.55 3.2-1.7 1.3-.8 1.65-.5.3.25-.4 1.55-11.8 21.8-33.05 34.8-21.55 13.15-46.25 13.15-18.2 0-32.5-5.3-13.8-5.1-24.6-15.4 8.2 11.1 23.3 18.25 17.15 8.1 37.9 8.1 24.7 0 44.75-10.6 17.4-9.15 29.7-25.35 10.75-14.1 15.5-30.5 4.4-15.15 2.15-26.15-.65-3.3.15-3.65.8-.4 1.85 3.35 2.95 10.7-1.25 26.25-4.5 16.75-15.5 31.45-12.6 16.75-30.65 26.35-20.9 11.05-46.7 11.05-23.5 0-42.45-10.75-16.4-9.3-23.1-22.3l1.05-.75q10.8 12.2 25.55 18t34.85 5.8q23 0 44.5-12.5 21.35-12.45 32.75-32.4-2.55 1.45-3.8 1.75-2.4.45-.9-1.3 4.75-6 6-9l-3.55 1.35q-1 .15-1.1-.2-.15-.3.4-1.15 3.8-6.15 5.3-10.65-25.4 12.75-54.85 13.55-13.15.35-22.5-2.25-9.65-2.65-12.7-7.9-3.95-6.75-.55-17.6 3.3-10.5 12.15-20.7Q176.9 117.25 189 111q13.5-7 27.3-6.45 12.05.5 20.65 4.25 8.65 3.75 14.8 11.3.95 1.15.5 2t-1.9-.6q-5.9-6.1-15.05-10.1"/><path fill="#0d131a" d="M151.5 233.5q1.2-.65 3.8-1.55 3.05-1.1 4.3-1.1l9.4 1.65q9.35 1.8 9.95 2.5l-.95.4.1.1-8.95-1.65-9.55-1.2-3.8.55q-2.6.55-3.4 1zm.5-25.1q0 4.65 8.45 9.2 8.8 4.75 18.75 4.75 8.3 0 16.65-4.5 8.7-4.65 8.7-9.85 0-4.1-6.8-7.05-7.8-3.45-21.25-3.45-11.05 0-18.5 4.35-6 3.45-6 6.55m-1.25 0q0-5.05 6.9-8.95 7.45-4.2 18.85-4.2 14.05 0 22.25 4.25 7.1 3.65 7.1 8.5 0 6-9.45 11.25-8.85 4.85-17.2 4.85-10.75 0-19.7-5.05-8.75-5-8.75-10.65"/><path fill="#0d131a" d="M146.95 232.95h2.1q0 18.75 8.2 33.2 2.85 5.05 6.1 8.4 2.8 2.8 3.85 2.6 1.25-.3-.8-14.55-2.25-15.7-6.3-27.4l2.3.15q4 8.8 6.05 25.4 2 16.4-.55 17.55-1.25.6-4.45-1.6-3.75-2.6-7.05-7.4-9.45-13.75-9.45-36.35"/><path fill="#0d131a" d="M163.45 275.3q.45 1.7 1.15 3 .7 1.2 1.1 1.1.5-.2.4-1.7l1.25.2-.65 2.25-.85.7q-.6 0-1.65-1.45-1.2-1.7-1.8-3.95z"/><path fill="#0d131a" d="M168.1 273.05q.6-.25.85.3 2.35 5.3 2.85 7.2.3 1.2-.15 1.35-.55.3-1.85-.35-1.65-.85-3.15-2.95-.4-.55.15-.85.55-.35.95.15 1.3 1.9 2.7 2.65l-2.65-6.65q-.25-.6.3-.85"/><path fill="#0d131a" d="M167.85 268.15q-.45-.4-.2-1.05.2-.6.6-.3 2.5 2.25 4.05 4.9 1.25 2.1 1.25 3.2l-.3.65q-.55.4-2.2-.35l-2.85-1.9q-.4-.3-.1-.9.25-.65.55-.35 1.65 1.55 3.45 2.2-.9-2.9-4.25-6.1m106.2-155.75q.25-3.9-.45-5.1-.6-1-4.2-1.5l-6.7-.2q-.3.05-.2-.6t.5-.7l7.8-.35q4.45.25 5.3 1.75.95 1.65.7 6.1-.35 6.25-3.3 14.9 22.15 13.6 37.55 26.8 11.8 10.15 11.2 11.15l-2.85.25q-2.85-.2-6-1.1 1.25 1.95 1.4 3.25.1.95-.25 1.3l-1.65.15q-2.6-.7-10.2-4.55 3.7 4.8 4.75 6.7.75 1.25.35 1.6-.85.85-10.5-2.45.25 2.2 0 4.45-.3 2.45-.95 2.45-.85 0-14.6-13.85L264 144.75q-.2-.25 0-1.25.2-1.05.4-.85 8.2 8.5 18.75 18.65 9.95 9.6 12.6 11.65.15-.5-.25-4.45-.1-.7.05-.85l.9.05q6.6 2.4 9.3 3l-6.35-8.65q-1.15-1.45-.8-1.65.25-.2 1.7.55 10.05 5.1 13 6.15-.6-1.55-2.65-4.5-.6-.85-.4-1.1l1.2.05q5.3 1.65 7.6 1.8-3.3-3.55-17.35-14.35-16.25-12.5-30.45-21.55-2.55-1.7-2.25-2.35t2.6.8q2.1-8.25 2.45-13.5M43 53.95q.95-1 1.25-.9.25.05.25 1.3 0 3.8 1 11.4 2.3-2.2 5.35-3l.85-.05.05 1q-.6 5.25-.65 14.05-.05 13.25 2 19.7l-2 .4q-1.8-5.6-1.75-16.45.05-8.25 1.05-17.15-2.3 1-4.95 3.85l-.95.75q-.2-.05-.4-1.3-.7-4.35-.85-11.95-8.25 8.95-13.8 23.35Q23.9 93.4 23.9 105.9h-1.3q-.2-14.05 5.1-28.2Q33.3 62.6 43 53.95M88.25 82.1q14-10.3 23.4-11.9 1.55-.25.85 1.3l-7.8 16q-1.25 2.6-1.8 2.25-.5-.35.75-3l6.75-14.45q-8.75 1.85-22.75 12.55-9.3 7.1-19.4 16.85-1.65 1.6-2.1 1.25t1.05-2Q76.6 90.7 88.25 82.1"/><path fill="#0d131a" d="m115.4 82 .8.55q.4.5.05 1-7.4 10.7-13.7 22.1-11.8 21.25-11.8 31.9 0 4 5.15 8.8 5 4.65 12.95 8.5 18.75 9 33.65 5.65l3.05-.05q.1.65-2.8 1.3-7.25 1.65-16.75.3-9.1-1.3-17.55-4.9-8.7-3.7-13.85-8.65-5.65-5.35-5.65-10.95 0-10.8 11.35-31.45 6.35-11.55 14.1-22.7-1.5-.45-3.6-.05-2.75.55-5.6 2.5l.55-1.9q3.15-2.15 6-2.4z"/><path fill="#0d131a" d="M163.5 134.95q.4-.3-.2 1.2-.6 1.45-1.2 1.85l-13.9 11.1q-12.35 10-14.9 11.8-2.05 1.45-2.5 1t1.55-1.9l13.05-10.95q11.45-9.8 18.1-14.1m-27.55-8.65q1.75-1.6 2.3-1.2t-.9 1.95q-5.2 5.45-9.45 16.7-3.95 10.45-3.95 16.85l-2.25-.4q0-7.5 3.7-16.85 4.05-10.25 10.55-17.05m81.15-20.6q-2.3 1.05-2.8.9-28.45-8.1-48.05.1-5.2 2.15-5.3 1.45-.15-.7 4.95-3.2 10.05-5 23.65-4.65 13 .3 27.55 5.4"/><path fill="#fff" d="M53.3 121.15q4.15 0 8.35 4.95 4.3 5 4.3 10.3 0 3.85-4 8.3-3.85 4.3-6.9 4.3-6.1 0-10.7-2.15-4-1.85-4-3.5 0-6 4.55-14 4.65-8.2 8.4-8.2"/><path fill="#f9be00" d="M53.05 121.25q1.35 0 2.3 3.15 1.05 3.4 1.05 8.9 0 5.4-1.9 10.5t-3.9 5.1q-2.05 0-6.15-2.15-4.1-2.2-4.1-3.4 0-6 4.6-14.05 4.65-8.05 8.1-8.05"/><path fill="#e50044" d="M211.85 212.9q3.6.8 5.15 9.85 1.55 8.7 1.05 24-.45 14.25-5.7 24.95-4.45 9-7.9 9-1.15 0-2.8-2.45-1.85-2.7-3.2-6.9-3.6-11.25-1.25-25.1 2.45-14.5 7.5-24.85 4.45-9.15 7.15-8.5M368.5 24.5q-6.55 2.65-15.95 4.75 6 4.1 5.65 5.05-.25.6-3.9 1.05l-10.35 1.2-55.05 45.8q-13.05 10.95-31.9 28.2-17.35 15.9-19.55 18.5-2.05 2.5-30.4 12.55-28.4 10.1-27.1 7.2 2.2-4.85 4-7.4 2.25-3.3 5.75-6.1l35-27.15q32.95-25.35 43.95-33.3 10.55-7.6 47.6-32.35l41.6-27.65q6.65-4.4 16-9.3 9.2-4.8 9.75-4.2.95 1.15-9.3 10.15l-10.5 8.75q9.95.55 9.95 1.3 0 .8-5.25 2.95"/><path fill="#c6003a" d="M373.75 21.55q0 .8-5.25 2.95-6.55 2.65-15.95 4.75 6 4.1 5.65 5.05-.25.6-3.9 1.05l-10.35 1.2-55.05 45.8q-13.05 10.95-31.9 28.2-17.35 15.9-19.55 18.5-1.35 1.6-18.5 8.15-17.05 6.55-29.1 10.1 31.75-30.3 94.6-77.25Q349.35 21.6 380 6.25q-3.6 3.55-10.25 9.1l-5.95 4.9q9.95.55 9.95 1.3"/><path fill="#d2e5f6" d="m204.85 221-3-1.55q-3.15-1.8-4-3.2-.95-1.5-1.05-3.95-.05-2.1.4-2.8l1.4-1.75 5.5.15q3.75 1 7.1 5z"/><path fill="#fff" d="m199 274.15 2.9 5.15q-1.7 3.85-2.45 3.55-.75-.25-.45-8.7m3.85 5.85q1.15.7 1.95.7 1.3 0 2.9-1.4l-.6 4.65q-.85 4.65-2.2 4.65t-2.3-4.65l-.7-4.65z"/><path fill="#fff" d="m207.35 279.7 2.25-2.65 1.25-2.05.7-1.6 1.15 5.65q.95 5.65.05 5.9-.85.2-3.2-2.5z"/><path fill="#b5c6d5" d="m205.95 218.5-1.35 2.15q-7.3-3.2-7.95-9l2.3 2.15q3.05 2.6 7 4.7"/><path fill="#0d131a" d="M62.65 125.3q3.9 5 3.9 11.1 0 3.2-3.65 7.9-3.9 5-7.5 5.5-5.1.7-10.7-2.3-4.9-2.6-4.9-3.95 0-8.2 4.6-16 4.5-7.5 8.75-7.5 5.45 0 9.5 5.25m-17 3.75q-4.55 7.5-4.6 14.4.65 1.35 4.25 3.15 4.8 2.4 9.9 1.7 3.15-.45 6.7-4.9 3.35-4.25 3.35-7 0-4.9-3.7-9.6-3.85-4.85-8.4-4.85-3.2 0-7.5 7.1"/><path fill="#0d131a" d="m52.4 122.05.45-.45q.5-.4 1.05-.3 2.05.35 3 4.1.9 3.45.55 8.35-.8 11.8-5.8 14.9-.7.45-1.75-.35 2.3-.65 3.95-5 1.45-3.85 1.9-9.05.45-5.15-.35-8.6-.9-3.8-3-3.6"/><path fill="#0d131a" d="M50.9 125.55q2.95.35 2.05 9.2-.85 8.85-3.8 8.55-3.05-.35-2.15-9.2.9-8.9 3.9-8.55"/><path fill="#fff" d="M55.25 131.5q-.25 1.7-1 2.8-.75 1.05-1.55.95-.75-.15-1.1-1.45-.3-1.25-.05-2.95.3-1.7 1.05-2.75.75-1.1 1.5-1 .8.15 1.1 1.45.35 1.25.05 2.95"/><path fill="#0d131a" d="m205.95 220.55-.5.9q-4.9-1.7-7.05-3.7-2.1-1.95-2.25-4.9-.15-1.6.4-1.65.55-.1.85 1.45.4 2.05 2.65 4.2 2.35 2.2 5.9 3.7m5.75-7.6-.7.75q-2.7-2.85-5.85-4.4-2.75-1.35-4.5-1.2-2 .2-2.25-.35-.2-.55 1.8-.85 6.65-1.15 11.5 6.05"/><path fill="#0d131a" d="M216.7 246.2q.8-10.55-.85-21.6-1.55-10.45-3.5-10.7-2.9-.4-7.05 8.9-4.3 9.7-5.95 21.4-1.85 13.1-.15 24.35 1.7 11 5.25 11.4 3.1.4 6.65-7.6 4.3-9.75 5.6-26.15m-13.45-24.85q5-9.65 9.45-9.1 3.85.5 5.7 11.7 1.7 10.35.75 22.85-1.2 15.25-6.05 25.7-4.45 9.5-8.65 8.95-4.7-.55-7.3-11.35-2.8-11.55-.7-26.3 1.8-12.75 6.8-22.45"/><path fill="#0d131a" d="m199.8 282.4.65-1.05.95-2.35 1.25.4q-1.7 4.95-3.3 4.65-1-.2-1.25-4.75-.15-3.4.05-5.7l1.45 1.2q-.1 1.25-.05 4.4.05 3.2.25 3.2"/><path fill="#0d131a" d="M202.4 286.55q-1.4-3-1.4-5.4l1.3-1q0 1.95 1.25 5.1 1.1 2.8 1.45 2.8.3 0 1.25-3.05 1.05-3.3 1.3-5.85l.65.85q.6 1 .4 1.8-.7 3-1.55 5.05-1.1 2.65-2.05 2.65-1.2 0-2.6-2.95"/><path fill="#0d131a" d="M212.45 284.4q.2-.05-.3-3.65l-1-6 1.3-1.05q.65 3.3 1 7.55.3 4.4-.2 4.65-1.2.65-5.55-3.8-.4-.4 0-1.3.4-.95.65-.7l2.55 3q1.3 1.4 1.55 1.3m168.7-280q3.1-3.05-1.5-.7-28.85 14.4-97.5 63.2-68.7 48.8-95.25 73.75-2.8 2.6-4.25 5.5-2 4.15-2.85 3t1.15-5.3q1.4-2.9 4.45-5.8 26.15-24.55 95.85-73.25 68.7-48.05 98.1-62.75 5.6-2.8 6.8-1.85 1.15.95-3.55 5l-6.2 5.45-10.7 9.15 6.1.5q3.5.65 3.7 1.35.2.95-7.1 3.8-7.65 3-14.3 4.3 3.1 1.8 4.45 3.35 1.05 1.25.75 1.9-.2.5-2.95 1.05l-11.9 1.35q-93.2 77.6-105 91.25-1.65 1.9-2.4 1.5-.8-.35.75-2.25 11.6-14.25 104.45-91.35 1-.8 2-.9L357.2 34q-1.15-1.25-5.25-3.8-1.6-1.05.4-1.55l12.4-3.8 8.25-3q-2.75-.4-10.2-.25-1.35.05-1.35-.4t1.3-1.55z"/></svg>