<svg xmlns="http://www.w3.org/2000/svg" width="437" height="476" viewBox="-0.15 -0.2 436.75 475.55"><path fill="#ba0031" d="m352 98.35-17.4 48.55-20.15-24.4q14.4-23.65 14.4-25.4 0-1.5 1.15-15.15 1.15-14.1 1.6-17.45 3.35 2.7 7.8 7.9 6.05 7.05 9.85 14.3z"/><path fill="#db8f86" d="M328.85 97.1q0-1.5 1.15-15.15 1.15-14.1 1.6-17.45l1.6 1.35v14.6q-.2 15.1-1.1 17.6-.75 2.15-5.25 11.15l-7.55 15.5-4.85-2.2q14.4-23.65 14.4-25.4"/><path fill="#ba0031" d="M362.2 73.6q7.3 8.9 10 13.95l.9 14.15-16.5 62.3-27.15-22.5 9.5-20.9q9.5-21.35 9.5-23.5 0-1.95 2.05-17.45l2.1-16.55q3 2.55 9.6 10.5"/><path fill="#db8f86" d="M348.45 97.1q0-2.15 2.1-18.3l2.05-15.7 2.2 1.7-.95 14.3-1.45 19.15q-.45 4.05-9.85 25.6l-9.35 20.8-3.75-3.15 9.5-20.9q9.5-21.35 9.5-23.5"/><path fill="#ba0031" d="m393.25 90.3 2.75 12-11.3 58-31.25-9.85 8.75-25.05q8.7-24.8 8.7-23.35l1.9-14.95q1.9-16.8 2.2-22.45 4.75 4.2 11.2 14.35z"/><path fill="#db8f86" d="m375 64.65 2.4 2.1-.6 15.4q-.85 16.2-2.15 20.45l-6.75 22.9q-5.8 19.2-8.85 26.15l-5.6-1.2 17.45-48.4z"/><path fill="#ba0031" d="M396.3 69.25q5.75 3.7 15.9 21.45 10.15 17.65 10.7 24.85.75 10.05-5.3 38.3-3.05 14.15-6.25 26.3l-33.45-28.6 8.4-25.35q7.15-21.1 7.15-22.75 0-1.4 1.35-16.15z"/><path fill="#db8f86" d="m394.9 85.25 1.4-16 .5.1q.6.3 1.25 1.5.75 1.4.5 15.75-.3 14.1-1 17.6-.85 4.35-13.1 50.4l-6.55-3.05 8.4-25.35q7.15-21.1 7.15-22.75 0-1.8 1.45-18.2"/><path fill="#ba0031" d="M400.05 162.7q12.2 11.65 14.35 26.4-3.55 22.15-15.15 54.3-14.65 40.55-30 57.05l-32.95-154.1q5.4 2.1 16.45 3.75 16.05 2.4 31.65 1.15 10.75 6.75 15.65 11.45"/><path fill="#db8f86" d="m384.45 151.45-10.7 32.3q-8.9 24.3-17 33.9l-20.45-71.3q4.75 1.8 16.8 3.55 16.35 2.35 31.35 1.55"/><path fill="#990024" d="M410.1 173.75q2.8 5.25 4.3 15.35-3.55 22.15-15.15 54.3-14.65 40.55-30 57.05L357.8 254.6q13.35-18.4 26.8-48.05 9.1-20 17-42.3 6 4.85 8.5 9.5"/><path fill="#6c5d4e" d="M406.05 169.45q6.8 9 8.35 19.65-3.55 22.15-15.15 54.3-14.65 40.55-30 57.05l-11.9-29.95q18.15-19.25 31.6-46.9 13.6-28.05 17.1-54.15"/><path fill="#0d131a" d="m404 167.25 4.85 6.95q-4.95 23.15-23.3 59.7-9.15 18.3-17.35 31.95-1.2-7.25-2.15-10.3 6.7-10.8 21-43.35 15.25-34.65 16.95-44.95"/><path fill="#0d131a" d="m348.8 172.4 9.75 1.7q10.2 1.3 18.45.3 1.2-.15 10.9 8.95l9.45 9.1-3.95 5.7-9-8.2q-9.2-8.2-10.5-8.15-16.9.85-23.1-1.35zm26.7 46.35q-8.15-7.75-11.55-9.3l-6.8.45 1.95-7.25 6.65-.5q2.45.75 11.95 9.55l9 8.65-3.7 5.85z"/><path fill="#eeeeef" d="M399.6 184.55q3.9 0 18.1 3.4 15.2 3.65 16.65 5.7-1.9 2.55-16.85 7.75-14.35 5-17.9 5-3.1 0-5.25-3.2-2.2-3.2-2.2-7.75 0-4.5 2.2-7.7t5.25-3.2m23.3 35.95q-1.95 2.75-17.65 8.4-15.05 5.45-18.75 5.45-3.2 0-5.5-3.45-2.25-3.5-2.25-8.45 0-4.9 2.25-8.4 2.3-3.5 5.5-3.5 4.05 0 18.95 3.75 15.95 4 17.45 6.2M393.25 242q17.2 4.3 18.75 6.6-2.05 2.8-19 8.65-16.2 5.55-20.15 5.55-3.35 0-5.75-3.65-2.4-3.6-2.4-8.75t2.4-8.8q2.35-3.65 5.75-3.65 4.25 0 20.4 4.05"/><path fill="#c8c9ca" d="M392.15 195.45q0-1.1.3-3.1l25.85.85q15.95.3 16.05.45-1.9 2.55-16.85 7.75-14.35 5-17.9 5-3.1 0-5.25-3.2-2.2-3.2-2.2-7.75m-13.3 25.15 21.5.9q12.2.3 21.6-.15-4 3.1-18.35 8.15-13.7 4.85-17.1 4.85-3.2 0-5.5-3.45-2.25-3.5-2.25-8.45zm13.6 36.85q-15.8 5.35-19.6 5.35-3.35 0-5.75-3.65-2.4-3.6-2.4-8.75 0-1.7.3-3.3 19.6 2.8 46.8 1.75-2.85 2.95-19.35 8.6"/><path fill="#0d131a" d="M331.2 61.6q2.2 1.7 7.05 7.5 6.9 8.3 10.8 16.25l-.2 3.3q-3.35-6.35-9.95-14.85-5.9-7.65-6.7-7.75-.45-.05-1.15 14.15l-.95 16.9q-.1 1-4.15 8.35l-7.65 13.35q-1.35-.9-1.75-1.8l7.6-13.1q3.75-6.8 3.9-7.7l.7-16.6.85-16.4q.2-1.3.5-1.65z"/><path fill="#0d131a" d="M352.9 60.8q1.35.9 8.45 9.9 8 10.15 11.55 16.45l-.4 2.95q-2.4-4.4-10.9-15.35-8.2-10.55-8.35-10-3.65 30.65-3.65 32.6 0 2.05-6.95 18.45l-10.45 23.65-1.5-2.55q6.05-13.2 11.15-25.2 5.55-13.2 5.55-14.75 0-1.4 1.75-18.1l1.9-17.5q.15-.95.55-1.05.35-.1 1.3.5"/><path fill="#0d131a" d="M374.15 61.95q.65-.05 1.45.7 5.7 5.45 12.65 16.85 3.5 5.75 6.15 10.85l-.05 4.4q-.65-1.95-9.4-15.6-8.9-13.85-9.25-12.75l-1.15 15.55q-1.1 15.4-2.35 19.7l-6.85 20.55-9.9 28.6-2.75-.6 8.15-22.85 9.35-25.7q.9-2.35 2.1-20.6l1.1-18.4q.1-.65.75-.7"/><path fill="#0d131a" d="M394.25 67.05q.1-.85 1.05-.7.85.1 1.6.75 7.75 6.45 17.45 24.1 9.4 17.15 10 24.85.8 10.05-5.05 38-2.95 14.1-6.4 27.45l-2.05-5.85q2.9-10.25 5.7-22.4 5.65-24.25 5.65-35.3l-.1-2.35q-1.45-9.95-13.3-28.55-4.05-6.35-8.1-11.8-3.6-4.8-3.7-4.45l-.9 15.45q-.95 15.45-1.55 17.5l-14.1 47.7-3.35-.1 15.5-48.2q.35-1.45 1-18.5zM393.2 256.7l4.25-1.35q-6.1 15.25-12.8 26.9-7.45 13-14.9 20.3l-1.15-2.7q12.35-13.2 24.6-43.15M405 229l2.05-1.05-5.35 16.3-3.2-1.25 4.45-13.15zm2.5-14.2 2.75-10.5 3.2-2.1q-1.1 6-2.95 13.2z"/><path fill="#0d131a" d="m335.95 147.2-.6-2.45q6.55 2.45 20.45 4.4 16.75 2.35 27.15.8l3.6.2 6.2 3.6q6.25 4.1 10.6 9.05.95 2.55 2.55 4.85 1.65 2.25 3.3 3.35 4.45 7.65 5.8 15.65l-1 .2-.9-.1q-1.2-5.7-4.55-11.6-2.55-1.2-3.55-2.3-2-2.2-3.8-7.55-4.3-4.7-9.65-8.75-3.3-2.5-5.8-3.95l-1.25-.55-1.3.05q-11.55 1.95-27.65-.4-12.45-1.8-19.6-4.5"/><path fill="#0d131a" d="M399.6 185.25q-2.8.1-4.75 3.05-2 2.95-2 7.15 0 4.25 2 7.25 1.95 3 4.75 3 3.05 0 18.45-5.45 15.45-5.5 15.25-6.6-.15-.8-15-4.65-15.1-3.85-18.7-3.75m-8.45 10.5q0-4.8 2.55-8.35 2.5-3.55 5.9-3.55 3.65 0 15.25 2.5 13.45 2.95 19.7 5.95 1.95.95 2 1.35.05.45-1.75 1.45-8.35 4.6-20.7 8.55-10.9 3.45-14.5 3.45-3.4 0-5.9-3.25-2.55-3.35-2.55-8.1m14.65 31.7q16.15-6.15 16.05-6.95 0-.5-16-4.8-16.3-4.4-19.35-4.4-2.9 0-5 3.25-2.05 3.3-2.05 7.9 0 4.65 2.05 7.95 2.1 3.25 5 3.25 3 0 19.3-6.2m18.1-8.2q1.35.5 1.4.95.05.5-1.5 1.5-6.75 4.3-20.8 9.05-12.8 4.3-16.5 4.3-3.55 0-6.2-3.6-2.75-3.7-2.75-8.85t2.75-9q2.65-3.75 6.2-3.75 3.45 0 14.95 2.7 13.15 3.1 22.45 6.7m-9.25 29.45q-.05.6-2.25 1.85-6.8 3.85-21.85 8.75-14.2 4.6-17.95 4.6-.85 0-1.75-.5l-1.65-1.05v-1.75q1.65 1.5 3.65 1.5 3.4 0 20.75-6.15 17.25-6.15 17.4-7.35.1-.8-17.1-5.35-17.35-4.6-21.05-4.6-3.45 0-5.7 4.2l-.35-2q2.35-4 5.9-4 3.85 0 17.5 3.35 15 3.65 22.45 7 2.05.9 2 1.5"/><path fill="#ba0031" d="M59.95 292.55q1.05-2.8 1.15-8.05l-.05-4.7 56.4 1.1 46.9 48.3q1.55.5 5.7 9.95 4.3 9.85 3.2 12.85-1.1 2.95-26.5 13.75Q123.1 375.8 117.7 377q-1.85.4-12.85-4.35-10.75-4.6-23.4-11.15Q49 344.7 49.4 339.75q.35-4.4 8.75-12.4 8.75-7.55 9.55-8.7 1.05-1.4-2.65-12.2z"/><path fill="#990024" d="M117.7 377q-1.8.4-12.25-4.1-10.2-4.35-22.5-10.65-31.35-16.05-33.45-21.8 24.2-9.15 42.2-20.05 21.1-12.8 35.75-29.2l36.9 38q1.55.5 5.7 9.95 4.3 9.85 3.2 12.85-1.1 2.95-26.5 13.75Q123.1 375.8 117.7 377"/><path fill="#0d131a" d="M73.55 349.45 71.3 344q14.05-17.7 15.2-19.95.7-1.35-3.2-13.6l-4.05-12h7.9l2.95 10.65q2.95 11.4 2.95 15.2t-9.75 14.85q-4.85 5.55-9.75 10.3M96 296.9l6.1-5.7q23.25 35.8 24.9 39.65 1.05 2.45-13.5 16.65-7.3 7.1-14.8 13.7l-3.8-4.75 11.95-12.1q11.9-12.3 11.65-13.3-.45-1.6-22.5-34.15"/><path fill="#eeeeef" d="M49.4 337q4.45-.35 8.25 2.2 3.25 2.2 5.6 6.1L50.5 363.65l-11.05 3.25q-12.05 3.3-16.75 3.4 4.6-8.65 11.65-17.35 6.8-8.45 15.05-15.95"/><path fill="#c8c9ca" d="m61.6 342.95 1.65 2.35-12.75 18.35-11.05 3.25q-12.05 3.3-16.75 3.4 2.35-4.35 11.75-12.3 13.25-11.25 27.15-15.05"/><path fill="#eeeeef" d="M75.25 376.15q-5.25 3.4-19.8 8.6-13.75 4.95-21 6.35 3.95-11.25 14.65-27.35 11.3-17.1 18.05-20.65 6.4-1.1 13.15 3.4 5.45 3.65 8.5 8.8z"/><path fill="#c8c9ca" d="M34.45 391.1q.25-.6 4.55-5.15 5.35-5.6 11.55-11.2 18.8-16.9 34.75-24 2.1 2.25 3.5 4.55l-13.55 20.85q-5.25 3.4-19.8 8.6-13.75 4.95-21 6.35"/><path fill="#eeeeef" d="M117.45 375.95q-7.3 3.4-17.35 7.6-20.15 8.4-34.05 12.45.45-7.85 7.05-19.8 7.4-13.3 17.4-21.45 11.2-2.2 19.7 6.45 7.25 7.35 7.25 14.75"/><path fill="#c8c9ca" d="M107.15 358.55q4.7 3.45 7.65 8.75 2.65 4.85 2.65 8.65L99.4 383.7q-20.75 8.65-34 12.95 7.25-8.8 21.1-21.1 11.7-10.45 20.65-17"/><path fill="#0d131a" d="m107.8 267.5 4.9 16.15q-11.7 15.55-26.3 17.6-10.7 1.45-20.35-4.1-.5-.3.3 8.05l.9 8.4-7-21.35 2.3-20.15z"/><path fill="#ba0031" d="M113.5 236.7q1.95 12.9-2.45 28.1-4.15 14.2-15.95 21.75-11.05 7.05-21.85 4.35-12.15-3.1-16.75-17.1-4.4-13.4.5-28.55 4.75-14.75 17.7-23.15 13-8.45 25.2-4.55 11.2 3.65 13.6 19.15"/><path fill="#db8f86" d="M86.15 241q-.25 4.45-2.65 9.25-2.2 4.5-6.3 6.3-3.9 1.7-7 .1-3.5-1.75-3.95-6.7-.45-4.8 2.05-9.55 2.45-4.65 7-6.65 4.55-2.05 8 .05 3.2 1.9 2.85 7.2"/><path fill="#990024" d="M108.9 224.25q4.9 6.9 5.15 19.05.2 10.5-3 21.5-4.15 14.2-15.95 21.75-11.05 7.05-21.85 4.35-7.05-1.8-11.75-7.7 22.3 1.9 35.85-18.15 11.8-17.5 11.55-40.8"/><path fill="#eeeeef" d="M90.6 189.65q-.5.85-9 22.2-8.5 21.3-10.9 25.2-1.7-3.35-4.85-13.4-3.2-10.1-3.6-13.45l4.5-15.2z"/><path fill="#c8c9ca" d="m70.3 194.2 20.3-4.55q-.5.85-9 22.2-8.5 21.3-10.9 25.2-.9-1.8-2.2-5.55 1.4-8.05 1.75-18.55z"/><path fill="#968471" d="M27.8 138.55q.35-3.45 6.9-13.45l6.45-9.3 67.75 49.4q-1.25 7.05-11.3 20.6-3.8 3.45-17.7 6.8l-19.55 4q-5.65 1.15-19.2-16.65-5.25-6.95-9.2-13.55-3.95-6.65-4.15-8.95-.9-9.9 0-18.9"/><path fill="#6c5d4e" d="M40.55 142.6q2.65-4.85 11.7-18.8l57.05 41.6q-1.2 6.8-11.3 20.6-3.8 3.45-17.7 6.8l-19.55 4q-4.35.9-14.25-10.55-8.45-9.8-14.75-20.7 3.05-12.25 8.8-22.95"/><path fill="#ba0031" d="m41.15 115.8 6.25 4.55q-3.7 2.9-5.85 5.35-2.8 3.05-4.2 6.35-2.65 6.3-3.6 16.85l-1.3 18.3q-4.4-7.3-4.65-9.75-.9-9.9 0-18.9.35-3.45 6.9-13.45z"/><path fill="#eeeeef" d="M68.05 193.3q-2.4 9.25-9.05 26.15-6.4 16.25-10.1 22.85-7.35-16.2-7.2-30.45l8.95-22.75q3.45 0 7.7.9 5.25 1.15 9.7 3.3"/><path fill="#c8c9ca" d="m50.45 189.6.2-.5q3.45 0 7.7.9 5.25 1.15 9.7 3.3-2.4 9.25-9.05 26.15-6.4 16.25-10.1 22.85l-2.3-5.45 2.7-23.6q1.5-14.05 1.15-23.65"/><path fill="#eeeeef" d="M34.9 173q8.45.75 16.25 13.3l-6.5 19.9q-7.1 21-10.25 26.3-4.5-7.85-7.2-29.5-2.55-20-1.05-25 .65-2.25 2.95-3.7 2.55-1.6 5.8-1.3"/><path fill="#c8c9ca" d="M38.3 173.85q6.65 2.55 12.85 12.45l-6.2 19.05q-6.8 20.25-10.1 26.4-.15-18.8.3-28.85.7-15.9 3.15-29.05"/><path fill="#eeeeef" d="M25.4 181.45q-17.1 10.7-23.25 12.9.6-6 7.25-22.95 7-17.95 10.9-21.2 4.3-3.65 10.9-7.6 8.95-5.3 14.05-5.65 2.45 2.6 2.55 14.8.15 12.45-2.75 16.25-3.2 3.2-19.65 13.45"/><path fill="#c8c9ca" d="M45 136.95h.25q2.45 2.6 2.55 14.8.15 12.45-2.75 16.25-3.25 3.2-19.5 13.35-17.05 10.6-23.3 12.9 14.45-28.5 42.75-57.3"/><path fill="#968471" d="M128.35 189.8q2.35-5.55 2.45-12.6 0-4.35-.75-8.25l69.05-64.85L254 320.25l-17.35 33.8Q223.2 342.8 194.3 335.4q-22.45-5.75-34.85-5.75-19.55 0-26.65-7.8-4.15-4.55-13-20.55-8.75-15.9-12.55-25.55-4.2-10.75-6.65-24.55-2.75-15.3-.05-18.75 3.95-5.05 13.35-18.9 11.75-17.35 14.45-23.75"/><path fill="#6c5d4e" d="M107.25 275.75q-2.95-7.5-5.15-17.2 13.8 6.3 32.05 8.05 67.65 8.55 114.85 33.95l5 19.7-17.35 33.8Q223.2 342.8 194.3 335.4q-22.45-5.75-34.85-5.75-19.55 0-26.65-7.8-4.15-4.55-13-20.55-8.75-15.9-12.55-25.55M199.1 104.1l20.65 81.35q-22.1-10.95-44.05-12.3-24.15-1.5-45.3 8.95.95-6.75-.35-13.15z"/><path fill="#968471" d="M162.25 83.6 175 140.8q-5.9 1.1-13.6 7.05-5.65 4.4-10.3 9.6-3.15 3.6-8.6 7-5.1 3.25-8.6 4.1-3.15.8-8-1.1-4.35-1.7-7.55-4.45z"/><path fill="#6c5d4e" d="M162.25 83.6 175 140.8q-5.9 1.1-13.6 7.05-5.65 4.4-10.3 9.6-3.15 3.6-8.6 7-5.1 3.25-8.6 4.1-3.15.8-8-1.1-4.35-1.7-7.55-4.45z"/><path fill="#0d131a" d="m361.65 229.1-56.55 12.4-160-163.8L111.7 18q4.65-3.4 24.1-7.85Q158.5 5 176.65 5.3q.75.05 1.4.7.7.7 1.4.7l3.05-.45 2.95-.4q5.95.7 10.65 2.15 29.95 9.5 48.9 20.9 23.45 14.05 44.45 38.55 23.4 27.35 46.5 77.9Q360 198 361.65 229.1"/><path fill="#968471" d="M200.35 79.6q20.8 5.25 38.8 17.65 23.6 16.35 37.9 42.35 17.5 31.9 19.75 76.45l-25.75 10.9-83.8-99.25L178 77.15q6.45-1.6 22.35 2.45"/><path fill="#6c5d4e" d="M178 77.15q6.45-1.6 22.35 2.45 20.8 5.25 38.8 17.65 23.6 16.35 37.9 42.35 17.5 31.9 19.75 76.45l-25.75 10.9L223.8 171l.45-33.75q.3-20.3 3.7-33.75-11.35-6.7-21.85-11-8.7-3.55-10.5-3.2-1 .2-1.25 22.2-.3 22.45-1 23.3-.95 1.2-5.75-14.5l-4.6-15.95z"/><path fill="#ba0031" d="M333.8 183.5q4.5 14.95 4.5 19.5 3.7 1.35 13.55 9.15 10.4 8.2 13.1 12.5 1.1 6.35 1.2 19 .15 15-1.75 23.2l-59.1-52.9-.85-13.2q9.6-10.5 24.85-31.35z"/><path fill="#990024" d="m329.3 169.4 4.5 14.1q4.5 14.95 4.5 19.5 2.25.85 8.1 5 5.85 4.25 11 8.75l2.55 23.75q1.5 14.1 1.45 23.65l-56.1-50.2-.85-13.2q9.6-10.5 24.85-31.35"/><path fill="#ba0031" d="m333.2 144.65 3.25.6q3.2.7 3.85 1.05 5.8 9.45 13.9 34.85 4.05 12.7 6.9 23.5l-3.25 7.5-16.1-10.85q-2.1-11.45-7.6-26.8l-5.1-13.05zm-2.7.15-2.6 10.25q-1.05 3.95-11.2 18.3-8.85 12.55-14.2 18.8-.6-5.95-4.55-24.6l-3.8-17.45q16.9-32.2 17.35-34.35.75-3.7.9-10.4v-6l3.7-.3 6.25 11q6.85 12.65 10.15 21.15.2 4.1-2 13.6"/><path fill="#990024" d="m328.25 153.65-.35 1.4q-1.05 3.95-11.2 18.3-8.85 12.55-14.2 18.8-.6-5.95-4.55-24.6l-3.8-17.45q16.9-32.2 17.35-34.35l.35-2.25q1.9 5.75 8.65 20 5.85 12.5 7.75 20.15"/><path fill="#ba0031" d="m282.7 65.3-.95-6.5 2.15-.05q2.25.1 2.8.65l8.55 10.65q8.1 10.35 9.75 13.2 1.7 3.05 1.9 6.55.1 2.6-.7 8.6-3.1-5.6-13.6-19.9z"/><path fill="#db8f86" d="m282.7 65.3-.95-6.5 1.65-.05 2.75.35q.65 2.25.85 5.8l.15 6.25z"/><path fill="#ba0031" d="m254.55 35.3 1.85-.75q2-.7 2.45-.5 1 .4 8.55 6.8l8.8 7.75q1.1 1.1 1.05 7.4l-.1 11.15q4.6 3.9 14.3 18.4 9.65 14.45 12.9 22.15 0 3.3-7.75 19.4l-7.8 15.45q-9.4-26.1-36.45-47.3-19.75-15.5-38.95-22.2l-1.15-20.4q-.9-13.85-2.25-18.3 8.95 3.1 34.3 15.15z"/><path fill="#990024" d="M253.9 53.9q13.55 6.35 23.2 13.85 1.75 1.35 3.75 3.85l3.75 4.3 12.75 17q7.55 10.4 9.5 15.05 0 3.3-8.6 20.9l-8.6 16.95q-9.4-26-39.35-49.25-11.25-8.7-23.75-15.65-10.45-5.85-18.1-8.55l-.7-22q-.55-15.65-1.85-19.95 3.95 1.35 17.05 8.25l17.55 9.05q1.5 1.15 13.4 6.2"/><path fill="#db8f86" d="m243.55 49.35 7.7-13.7 3.5-.95 4.1-.65 1 .65q-8.65 16.45-10.4 16.85-1.1.25-3.6-.95z"/><path fill="#ba0031" d="m247.4 29.5 2.55 4.8-5.4 7.4q-33.65-16-41.4-18.8-2.8-3.05-10-9.65-7.9-7.15-9.8-8l2.55-1.35q3.3-1.4 6.75-1.4 6.75 1.45 27.15 10.15 19.05 8.05 23 10.55 1.7 1.2 4.6 6.3"/><path fill="#db8f86" d="m206.8 19.45 13.45 5.65q15.65 6.4 27.55 12.65l-5.2 8.6q-19.8-6.6-29.8-11.9-10.9-5.8-12.65-6.45-3.1-3.4-11-10.9-8.9-8.45-10.75-9.3l3.8-2.6q4.3-2.6 6.75-2.5 2.4.05 9.85 7.9z"/><path fill="#ba0031" d="M200.7 29.7q.95 2.1 3 20.4l2.25 21.1-12.9-1.65-10.6-1.15Q168.8 32.5 165.1 26q-3.45-3.25-17.25-9.6-12.8-5.85-14.3-5.85l-4.95 1.25-4.05 1.2 2.45-2.65q2.55-2.8 3.15-3.25 1.9-.7 18.35-3.15 17.3-2.6 21.25-2.4 3.65 1.1 16.85 13.4 12.8 11.9 14.1 14.75"/><path fill="#990024" d="M163.3 24.6q9.05-1.3 21.35.65 11.3 1.8 16.05 4.55 1 2.3 3 20.5l2.25 20.9-12.9-1.65-10.6-1.15Q168.8 32.5 165.1 26z"/><path fill="#db8f86" d="M168.1 22.6q1.65 1.95 6.95 16.4L180 53.05l3.3 14.85Q165.75 32.15 162 25.65q-3.4-3.2-16.1-8.8-11.55-5.05-13.1-5.05l-4.6.6-3.65.6 2.45-2.65q2.55-2.8 3.15-3.25l2-.55 3.3-.1q2.45.65 16.1 7.1 14.85 7 16.55 9.05"/><path fill="#ba0031" d="M166.6 48.25q3.7 9.9 6.85 19.5l-62.6-25.45-9.15-23.75q2.9-1.6 8.8-3.95 4.95-2 6.95-2.55 3.15.6 19.65 6.8 16.8 6.3 19.65 8.1 2.5 1.55 9.85 21.3"/><path fill="#990024" d="M166.6 48.25q3.7 9.9 6.85 19.5l-50.7-20.6q8.4-7.9 15.55-12.5 9.05-5.85 18.1-7.9l.35.2q2.5 1.55 9.85 21.3"/><path fill="#eeeeef" d="M173.85 60.4q2.85-3.65 16.15-14.5 14.3-11.6 17.3-11.5.45 5.9-4.95 22.4-5.05 15.35-7.65 18.8-2.35 3.05-7.4 3.7-5.45.65-9.55-2.35-4.15-3-5.2-8.4-1-5.15 1.3-8.15m44.7-3.8q13.3-11.6 16.05-11.55.65 5.05-4.5 22-4.8 15.95-7.2 19.35-2.2 3.05-6.9 3.7-5.05.65-8.9-2.35t-4.85-8.45q-.9-5.1 1.25-8.15 2.5-3.6 15.05-14.55"/><path fill="#c8c9ca" d="M179.8 78.1q2.75-4.5 14.4-20.7 9.05-12.65 13.1-21.2-.4 7.05-5.5 22.2-4.75 14.1-7.1 17.2-2.05 2.65-6.35 3.5-4.55.9-8.55-1m54.6-33 .2-.05q.65 5.05-4.5 22-4.8 15.95-7.2 19.35-1.9 2.65-5.9 3.5-4.25.9-7.95-.95Q223.7 68.1 234.4 45.1"/><path fill="#eeeeef" d="M309.1 137.75q17.15.25 19.2 2.25-1.3 3.4-15.85 13.25-13.95 9.45-17.75 10.35-3.5.9-7.5-1.9-4.25-3-5.4-7.95t1.3-9.8q2.35-4.55 5.8-5.4z"/><path fill="#c8c9ca" d="M327.45 139.5q.55.2.85.5-1.3 3.4-15.85 13.25-13.95 9.45-17.75 10.35-3.5.9-7.5-1.9-4.25-3-5.4-7.95-.25-1.15-.35-2.65 22.95-4.95 46-11.6"/><path fill="#ba0031" d="M369.4 290.35q0 28.85-1.1 64.95-.85 27.3-1.9 47.55-.15 2.85-14.35 7.1-12.55 3.8-31.95 7.6-18.6 3.6-34 5.4l-20.3.7q-8.55-2.6-21.95-16.1-13.65-13.75-14.55-21.25-.25-2.2 1.65-11.15l4.4-20.25q6.7-32.15 6.7-54.35 0-19.1 2.1-35.65l2.1-12.75q.7-5.05 6-12.65 5.9-8.45 14.45-15.25 22.7-18.05 48.75-13.3 28.55 5.25 41.8 26.2 12.15 19.25 12.15 53.2"/><path fill="#990024" d="M324.3 213.05q23.75 7.05 34.85 27.35 10.25 18.75 10.25 49.95 0 28.85-1.1 64.95-.85 27.3-1.9 47.55-.2 3.7-23.2 9.6-20.6 5.25-45.25 8.9-1.35-8.65-10.05-37.65-7.05-23.45-5.15-25.05 14.55-12.35 26.9-34.55 11.5-20.65 18.1-44.1 6.6-23.3 6-41.15-.65-19.05-9.45-25.8"/><path fill="#0d131a" d="M356.9 274.45q0 20.2-14.35 34.5-14.4 14.3-34.7 14.3t-34.7-14.3q-14.35-14.3-14.35-34.5t14.35-34.5q14.4-14.3 34.7-14.3t34.7 14.3q14.35 14.3 14.35 34.5"/><path fill="#ba0031" d="M350.75 272.3q0 17.95-12.55 30.6-12.6 12.7-30.35 12.7-17.8 0-30.4-12.7-12.55-12.65-12.55-30.6t12.55-30.6q12.6-12.65 30.4-12.65t30.35 12.65q12.55 12.7 12.55 30.6"/><path fill="#db8f86" d="M308.75 247.2q4.65 3.25 5.05 9.2.4 5.9-3.7 10.95-4.1 5.1-10.25 6.4-6.2 1.3-10.85-1.95t-5.05-9.15 3.7-11 10.25-6.4q6.2-1.3 10.85 1.95"/><path fill="#990024" d="M344.2 249.3q6.55 10.5 6.55 23 0 17.95-12.55 30.6-12.6 12.7-30.35 12.7-9.85 0-18.7-4.3 14.25-.55 25.55-8.4 10.6-7.3 16.25-19.25 5.65-11.9 4.85-24.9-.85-13.7-8.7-25.1 10.7 5.4 17.1 15.65"/><path fill="#0d131a" d="m272.15 391.8-8.85-20.25q-8.9-20.3-9.3-20.75-.7-.7 26.15-40.8l6.1 5.8Q266 349.1 265.5 350.75q-.25.85 7.4 18.7 8.4 19.65 9.6 23.5zm56.05-16.65 5.95 17.1-11.45 3.4-5.2-17.85q-5.2-18.1-5.4-19.55-.2-1.35.2-18.4l.45-18.95 9.85-4.1-.3 39.45q-.05 1.45 5.9 18.9m40.65-45.75.1 5.3q-.05 7-.85 15.5-.8 4-1.05 19.75l-.1 14.9-4.2 2.5q-4.5 2.45-5.8 2.2-.55-4.35 1.55-28.4 1.8-21.1 2.4-24.95.2-1.35-12.45-12.75l-13.6-12.05 6.8-4.75z"/><path fill="#eeeeef" d="M362.6 381.2q1.95.4 8.6 6.95 7.35 7.25 10.5 13 3.95 11.2 7.1 25 4.25 18.45 3.65 28.65-6.75-2.85-22-14.8-15.05-11.8-15.9-12.1l-6.4-30.55q1.95-3.45 4.7-7.2 5.55-7.5 9.75-8.95"/><path fill="#c8c9ca" d="M366.9 388.4q-4.5-7.15-4.3-7.2 1.95.4 8.6 6.95 7.35 7.25 10.5 13 3.95 11.2 7.1 25 4.25 18.45 3.65 28.65-.75-.3-6.85-20.3-7-22.85-9.8-29.45-3.15-7.45-8.9-16.65"/><path fill="#eeeeef" d="M340.95 391.5q10.45 7.8 13.5 13.6 2.8 8.85 1.75 33.7-1.05 24.95-4.55 30.55-7.45-3.5-27.8-26.7-21.05-23.95-19.85-29.6.85-4.1 9.9-15.6 8.85-11.25 12.75-13.65 4.2.15 14.3 7.7"/><path fill="#c8c9ca" d="M329.1 385.2q8.1 5.05 14.35 9.65 9.15 6.75 11 10.25 2.75 8.65 2.9 27.25.2 22.5-4.95 37-3.75-29.7-7.25-45.3-6.45-28.85-16.05-38.85"/><path fill="#eeeeef" d="M277.85 384q6.4 0 15.65 10.5 9.15 10.45 11.25 20 .45 10.9-4.2 30.55-5.15 21.8-11.25 27.6-4.85-3.15-19.15-25.95-14.2-22.6-15.8-29.4-1.4-5.85 9.45-19.25 9.6-11.85 14.05-14.05"/><path fill="#c8c9ca" d="M304.75 414.5q.4 9.65-3.5 27.5-4.3 19.6-9.75 27.85 1.55-44.2-8.8-84.4 6.6 3.4 13.4 12.25 6.9 9.05 8.65 16.8"/><path fill="#968471" d="M160.95 95.5q0 16.75-4.4 30.25-8.9 27.15-33.15 36.25-19.7 7.35-29.3 2.15-4.55-2.5-6.15-7.65-.45-1.25 22.55-33.15 23.4-32.55 27.95-35.1 4.25-2.35 13.8 2.2 4.8 2.3 8.7 5.05"/><path fill="#6c5d4e" d="M133.75 92.9q3.3-3.85 4.7-4.65 4.25-2.35 13.8 2.2 4.8 2.3 8.7 5.05 0 13.2-2.7 24.25-5.5 22.35-20.6 34.25 4.7-6.15 7.4-12.45 6.1-15.9 5.25-24.7-1.3-13.45-16.55-23.95"/><path fill="#fff" d="M143.4 90.35q-.15 7.3-3 17.95-7.3 27.6-21.55 42.1-6.4 6.4-10.6 9.1-5.6 3.55-11.4 3.5-3.35-.05-7.6-2.95l-3.55-2.9 55.3-73.4q2.6-.75 2.4 6.6"/><path fill="#dbdcdc" d="M141 83.75q2.9-.8 2.95 5.35.05 6.55-3.2 17.8l-3.4.3q-2.9.05-3.4.45-13.65 20.05-20.35 27.95-14.55 16.95-24.85 17.55z"/><path fill="#0d131a" d="M133.95 40.15q-.85 7.65-2.75 60.45-5.3 7.65-11.8 16.2-13.05 17.05-19.15 21.55-16.7-13-4.55-61.9 6.1-24.5 15.55-46.35 4 1 10.4 3.6 8.4 3.4 12.3 6.45"/><path fill="#fccf00" d="M114.3 92.1q0 6.05-3.85 10.1-3.8 4-9.25 4-5.4 0-9.2-4.35T88.2 91.4 92 80.95q3.8-4.3 9.2-4.3 5.3 0 9.25 4.65 3.85 4.65 3.85 10.8"/><path fill="#dab300" d="M100.2 77.6q3.65 0 5.45.7 2.2.95 3.9 3.7-3.05 3.4-5.3 11-2.15 7.2-2.15 12.95-5.5-.05-9.65-4.25-4.25-4.3-4.25-10.3 0-6.1 3.3-9.95 3.35-3.85 8.7-3.85"/><path fill="#fff" d="M104.4 92.55q0 1.25-.8 2.1-.75.9-1.85.9t-1.85-.9q-.8-.85-.8-2.1t.8-2.1q.75-.9 1.85-.9t1.85.9q.8.85.8 2.1"/><path fill="#ba0031" d="M177.05 70.7q2.95 4.05 8.5 27.85 5 21.35 5.7 28.55l-15.2 19.25q-.7-4.4-8.55-24.15-7.55-19-9-21.1-1.1-1.55-8.55-4.95-6.95-3.15-8-3.15-18.85 22.85-22.95 27l4.35-24.35 4.15-23.6q-9.6-14.75-10.1-16.1-.45-1.15 7.95-13.85 7.95-11.9 10.1-14.3.8-.7 2.8-.9 1.7-.2 3.35-.05 6.85 4.55 35.45 43.85"/><path fill="#990024" d="m165.45 54.95 6.45 8.1 5.1 6.3-13.15-.5-12-.7q2.15-2.7 6.7-6.7 5.05-4.45 6.9-6.5m5.25 63.6 7.6 19.3-2.25 8.5q-.7-4.4-8.55-24.15-7.55-19-9-21.1-.9-1.25-7.55-4.35-5.15-2.35-9.6-4.05.4-1.1 2-2.4 1.55-1.25 2.45-1.25.85 0 8 4.1 7.05 4.05 8.2 5.1.95.85 8.7 20.3"/><path fill="#db8f86" d="M140.8 26.75q-4.85 6.7-10.5 16.65-5.6 9.75-5.35 11l3.7 6.95q3.6 6.45 4.15 8.45.75 2.75-3.8 19.05-4.7 16.6-9.2 26.6l4.65-25.8 3.05-17.6q-9.6-14.75-10.1-16.1-.45-1.15 7.95-13.85 7.95-11.9 10.1-14.3 1.3-1.15 5.35-1.05"/><path fill="#eeeeef" d="M173.4 44.6q-7.9 17.95-11 21.25-2.9 3.15-8.55 3.25-6.05.15-10.25-3.6t-4.8-9.85q-.55-5.7 2.35-8.8 3.4-3.65 19.35-14.15 17.05-11.2 20.3-10.8.75 4-7.4 22.7"/><path fill="#c8c9ca" d="m164.4 46.3 16.2-21.7q-1.35 7-8.6 23.05-6.95 15.4-9.6 18.2-1.95 2.1-5.55 2.9l-7.4-.2q6.3-10.2 14.95-22.25"/><path fill="#ba0031" d="M82.85 23.45q.2-6.7 0-9.8.75-1.55 2.6-2.4 1.9-.95 3.5-.45 4.3 3.65 15 8.3 10 4.35 14.7 5.05 4.95.65 4.95 3.25-11.35 13.3-20.25 54.1-4.45 20.4-6.65 38.15l6.05-3.35q6.25-3.4 7.1-3.4l.15 9.9q.1 9.3-.45 11.4-.95.95-14.95 21.55-14.4 20.55-18.05 22.2Q65.4 147.5 43.9 129l-9.8-38.55-9.1-35.3q.3-2.05 1.6-3.45 1.45-1.5 3.15-1.1l5.9 1.65 6.55.9-4.6-19.9q-.05-1.85 2.05-3.45 2.05-1.55 3.85-1.15 3.05 1.7 15.4 5.6l-.35-15.55q.45-1.35 2.2-2.55 1.7-1.2 3.2-1.15 3.25 1.7 18.9 8.45"/><path fill="#db8f86" d="M34.1 90.45 25 55.15q.3-1.9 1.45-3.25 1.3-1.5 2.9-1.35 5.6 14.9 12.4 45.15l6.35 28.4q.6 1.15 13.75 19.75 13.4 20.7 15.75 33.45l-1.05.65Q65.4 147.5 43.9 129z"/><path fill="#db8f86" d="M37.6 33.25q-.05-1.85 2.05-3.45 2.05-1.55 3.85-1.15 6.25 33.95 10.2 66.6 2.9 24.1 3.45 25.15l9 17.05q7.45 15.75 6.75 22.6-1.15-4.8-11.25-22.45l-9.85-16.75-9.5-60.3q-3.3-21.8-4.7-27.3"/><path fill="#db8f86" d="M59 17.9q1.05-1.3 2.75-2.3 1.8-1 3.05-.95 1.7 14.9 1.4 59.1-.25 40.75.2 41.75 3.35 7.1 6.05 16.2 4.55 15.1 4.4 27.4-2.95-13.7-8.9-28.45l-6.65-14.9q-1.2-2.75-2.25-49.7-1.1-46.9-.05-48.15m23.85-4.25q.75-1.55 2.6-2.4 1.9-.95 3.5-.45 1.25 19.3-3.35 56.9-3 24.25-5.75 38.8-.35 1.9.3 8.85l1.5 14.55q1.9 21.05-.85 29.65-1.85-25.05-4.4-38.75-2.2-9-2.35-10.4-.1-1.35 4.4-48.25t4.4-48.5"/><path fill="#ba0031" d="M280 77.9q5.05 5.65 8.15 13.45 3.25 8.25 2.95 15.65l-2.15 12.75q-.5 3.8-3.75 9.05-2.9 4.6-6.1 7.7-11.65 11.15-27.7 9.25-15.65-1.9-27.35-15.05-11.6-13.05-11.85-29-.25-16.2 11.5-27.5 11.85-11.35 28.35-10.3 16.5 1.1 27.95 14"/><path fill="#db8f86" d="M251.95 97.7q-2 1.5-4.6 2.25-2.8.85-5.25.55l-4.1-1.1q-1.25-.3-2.9-1.5-1.4-1.05-2.3-2.2-3.35-4.15-2.25-9.4 1.1-5.05 5.75-8.5 4.65-3.4 9.9-3.05 5.3.4 8.65 4.6 3.4 4.25 2.55 9.6-.85 5.4-5.45 8.75"/><path fill="#990024" d="M281.2 79.3q4.6 5.7 7.3 13.05 2.85 7.7 2.6 14.65l-2.15 12.75q-.5 3.8-3.75 9.05-2.9 4.6-6.1 7.7-11.65 11.15-27.7 9.25-15.65-1.9-27.35-15.05-4.3-4.9-7.2-10.55 29.7 3.5 45.15-5.9 16.05-9.8 19.2-34.95"/><path fill="#0d131a" d="M249.6 86.15q.1-5.5 4-4.65 16.4 4.75 28.15 14.3 8.5 6.9 10.65 12.1-1.1 1.1-1.4 1.75-.3.7-.75 4.35-.5 4.3 0 5.85l-1.8-4.25q-2.05-4.75-12.9-13.9-11.35-9.6-18.05-11.4.7 5.25-1.4 20.15l-2.25 13.85q-1.25-.15-3-.7-3.5-1.05-6-3.1 1.65-4.8 3.35-18.65 1.4-11.85 1.4-15.7"/><path fill="#ba0031" d="m205.6 128.6 5.7.25 65.25 39.75q1.25 2.55 2.15 3.4l4.4 3.15q4.2 6.5 5.1 10.65.8 3.55-.35 7.95-.95 3.5-6.15 33.1l-5.9 33.95q-.75 4.35-5.9 10.75-3.95 4.9-8.3 8.55-3.2 2.65-61.65-15.25-58.3-17.9-59.7-21.55-2.1-5.4-4.45-14.6-2.95-11.75-2.5-16.75.55-5.35 6.45-21.15 5.7-15.1 7.8-17.85 1.45-1.85 7.85-6.35l10.35-7.5q3.6-2.9 9.25-13.8l6.8-13.5q1.6-2.75 8.4-4.35l9.45-1.85q3.15 2.7 5.95 3"/><path fill="#990024" d="m272.45 166.1 4.1 2.5q1.25 2.55 2.15 3.4l4.4 3.15q4.2 6.5 5.1 10.65.8 3.55-.35 7.95-.95 3.5-6.15 33.1l-5.9 33.95q-.75 4.35-5.9 10.75-3.95 4.9-8.3 8.55-3.2 2.65-61.65-15.25-58.3-17.9-59.7-21.55-.75-2-.5-7.6.35-6.25 1.85-12.25 4.2-16.5 13.85-17.6Q174 213.9 194.2 216.4q20.85 2.55 37.95-1.6 18.5-4.45 28.85-16 11.45-12.75 11.45-32.7"/><path fill="#0d131a" d="M197 133.75q1.15-5.4 2.65-8.15l83.45 50.65q-6.6 13.65-18.85 17.5-3.85 1.2-7.8 1.25l-3.15-.15 6.2 8.05q6.35 8.4 7.4 10.3t-2.2 26.95l-3.45 24.65-7.6-3 2.9-22.55q2.85-22.7 2.55-23.35-.65-1.35-6.45-8.4-6.75-8.3-11.25-12.3-1.35 11.15-8.3 37.95l-6.65 24.55-2.95-2.35q-3.25-2.4-4.85-2.4 4.3-11.85 9.2-36.85l4.05-22.6-11.95 4.55q-12 4.6-12.2 4.95l-14.25 46.2-8.85-4.05 8.05-23.05q8.15-23.25 8.6-24.2.85-1.55 16.2-11.45-19.75-15.1-21.5-37.55-.6-7.6 1-15.15"/><path fill="#ba0031" d="M242.4 114.1q15.7 1.45 26.7 13 11.3 11.75 11.5 27.55.25 16.05-11.35 24.5-11.7 8.55-27.55 6-15.8-2.6-26.4-14.75-10.05-11.5-11.3-25.6-1.4-15.5 9.85-23.25 13.1-8.9 28.55-7.45"/><path fill="#990024" d="M242.5 185.25q-15.25-2.2-26-13.5 7.3-.05 16.3-2.5 10.5-2.8 18.6-7.75 21.4-13.05 17.5-34.6l.2.2q11.3 11.75 11.5 27.55.25 16.05-11.35 24.5-11.35 8.3-26.75 6.1"/><path fill="#eeeeef" d="M265.6 281.2q-6.8 10.1-15.25 20.1-16.65 19.6-31.85 26.95l1.55-11.35q.95-8 1.45-9.85l16.05-46.65 11.8-5.3q9.9-4.15 11.5-2.35 2 2.35 4.15 14.4 2.2 12.2.6 14.05"/><path fill="#c8c9ca" d="M260.85 252.75q2 2.35 4.15 14.4 2.2 12.2.6 14.05-6.8 10.1-15.25 20.1-16.65 19.6-31.85 26.95 6.65-7.65 14.8-20.75 16.4-26.2 24.45-55.15 2.4-.4 3.1.4"/><path fill="#eeeeef" d="M228.8 245.85q5.15 7.1 6.35 9.9 3.6 8.5.6 17.8-4.35 13.4-15.1 32.4-12.55 22.35-22.6 30.35-.85-9.6-.6-31.2.2-20.85 1.1-30.45l4.75-18.95q6.8-5.2 14.55-8.6 8.95-4 10.95-1.25"/><path fill="#c8c9ca" d="M226.15 244.8q1.9 0 2.65 1.05 5.15 7.1 6.35 9.9 3.6 8.5.6 17.8-3.95 12-13.45 29.4-11.05 20.3-20.65 30.05 9.3-19.2 15.65-43.35 4.95-19.1 8.85-44.85"/><path fill="#eeeeef" d="M200.5 246.9q3.7 11.5 2.05 19.35-1.85 8.85-16.25 28.4-14.25 19.35-24.4 27.2-1.8-10.1.6-38 2.1-24.7 4-31.8.95-3.65 11.35-10.2 10.8-6.75 17.05-6.95 2.55 2.55 5.6 12"/><path fill="#c8c9ca" d="M194.9 234.9q2.55 2.55 5.6 12 3.7 11.5 2.05 19.35-1.85 8.75-16.2 28.3-14.15 19.25-24.3 27.2 10-17.3 18.65-42.65l13.9-44.15z"/><path fill="#eeeeef" d="M150.1 204.3q1.45-.65 3 .9 1.75 1.7 4.25 6.75 2.9 5.7 6.95 18.55 5.1 16.3 2.55 19l-18.05 16.15q-15.65 14.15-20.55 21.3-1.7-8.3-.5-28.3 1.25-21.4 4.85-31.4 2.5-6.95 8.9-14.75 5.65-6.95 8.6-8.2"/><path fill="#c8c9ca" d="M148.8 265.65q-15.65 14.15-20.55 21.3-.15-.8 1.45-8.85 2-10.2 4.95-20.25 9.2-31.15 22.9-45.55 3.35 7.3 6.95 18.9 4.85 15.65 2.35 18.3z"/><path fill="#db8f86" d="M238.9 122.55q6.2 0 10.6 3.45 4.4 3.4 4.4 8.25 0 4.9-4.4 8.3-4.35 3.45-10.6 3.45-6.2 0-10.6-3.45-4.4-3.4-4.4-8.3 0-4.85 4.4-8.25 4.4-3.45 10.6-3.45"/><path fill="#0d131a" d="M59.1 293.95q-.75-2.7.15-5.95.95-3.45.65-5v-.5q1.2 2.25 2.4 3.2l-.75 4q-.5 2.75.3 4.4 1.65 3.55 4.4 12.6 2.55 8.5 2.9 10.85.2 1.55-.15 2.1l-2.25 1.95q-3.6 2.7-7.75 6.65-4.8 4.55-6.8 7.65-2.45.15-4.15 1.45.6-3.3 3.75-7 2.15-2.5 6.6-6.35l4.75-3.7 3.6-2.85q0-1.05-3.3-10.6zm58.85 84.25-2.35-.25 1.45-2.15h.4q5.95-1.35 29.2-11.35 24.2-10.45 25.45-12.9.95-2.5-3-11.55-3.75-8.55-5.3-9.7l.15.1 3.1-.2q2.25 2.25 4.1 6.1l3.8 8.15q2.35 5.8 1.5 8.1-1.45 3.85-27.25 14.6-24.55 10.2-31.25 11.05"/><path fill="#0d131a" d="M49.3 335.75q4.45-.3 8.35 2.05 3.95 2.35 6.65 6.9l-2.1 1.25q-1.45-2.4-6.1-5.3-4.8-3-6.25-2.05-5.45 3.65-15.95 17.1-10.15 13-8.9 13.2 1.35.15 25.1-6.4l-1.55 3.45q-19.1 5.55-24.7 5.8-2.9.15-3.5-.5-.6-.75.6-2.95Q26.6 358.05 34.4 349q7.65-8.95 14.15-12.9z"/><path fill="#0d131a" d="m66.6 342 1.45-.4q6.75-1.15 13.35 3.7 5.05 3.7 8.45 9.4l-2.1 1.25q-2.65-4.5-9.3-8.65-7.2-4.55-10.55-2.55-5.45 3.3-19.35 24.15-13.55 20.4-12.1 20.5 1.45.05 17.05-5.5 16.7-5.95 21.1-8.8l-2.05 4.05q-5 2.8-19.5 7.9-13.85 4.9-17.3 5.35-3.1.4-3.55.05-.4-.35.3-2.6 2.8-8.4 14.5-25.6 12.7-18.6 19.6-22.25"/><path fill="#0d131a" d="M75.15 377.5q-3.6 6.4-6 11.65-2.25 5.1-1.6 5.15 1.55.1 23.35-8.5 21.85-8.6 25.3-10.65-.3-3.35-2.55-7.4-2.5-4.45-6.25-7.5-3.05-2.5-7.8-3.85-5.6-1.6-8.7.25-6.05 3.65-15.75 20.85m-11.7 18.35q1.25-7.1 8.15-19.3 8.35-14.8 18.1-22.75l.25-.15 1.35-.35 3.9-.25q6.75.4 14.4 5.25 4.65 2.95 7.15 8.75 1.95 4.55 1.95 8.9l-.8 1.9-16.55 7.2q-19.3 8-34.25 12.75-3.15 1-3.7.45-.3-.3.05-2.4m47-174.8-1.55 1.9-1.75 1.8q-1.6-2.05-3.2-3.3-1.85-1.35-4.3-2.15-4.95-1.6-10.2-1.2-5.55.45-10.7 3.05-.15.1-.25-1.25v-2.35q5.55-2.35 11.8-3 6.5-.7 11.15.8 6 2 9 5.7M91.8 287q8.7-4.05 14.05-13.15l1.5 2.05q-6.15 9.65-16.05 14.1-9.55 4.3-18.35 2.05-9.75-2.45-15.1-12.1-4.1-7.4-5.15-16.7-1.15-9.95 1.7-18.8 3.45-10.7 12.15-18.9l.85 1.9.9 1.85q-7.2 7.3-10.15 16.3-2.7 8.4-1.75 17.15.85 8.15 4.65 15.05 2.35 4.2 6.15 7.1 3.65 2.75 8.05 3.85 8.25 2.1 16.55-1.75"/><path fill="#0d131a" d="m89.6 189.05 3.85.1-10.35 23.4-11.15 24.85q-1.15 2-1.75 1.9l-1.15-1.4q-2.35-4-5-14.25-2.45-9.25-2.65-13.1l2.4-2.5q.15 2.75 3.35 14.9 3.2 12.2 3.65 11.45l9.4-22.65zm-60.65-50.4-.35 5.9-1.8 1.15-1.85 1q-.1-1.65.1-3.65l.45-3.55q.35-3.6 7.05-13.65l7.65-10.75 1.15 3.65-7.35 10.1q-4.75 7.05-5.05 9.8"/><path fill="#0d131a" d="M67.3 196.45q-.2-.95.05-2.35 24.5-4.75 29.4-9.15 9.15-12.4 10.8-19.05l2.45-.4q-.8 4.4-3.9 10.75-3 6.15-6.6 10.95l-1.2 1.25q-3.1 2.85-13.3 4.9zm-25.2-73 1.25 2.3-2.9 3.1q-2.95 3.55-3.35 5.95l-1.15 5.65-2.25.85 1.5-6.8q.45-2.75 3.65-7.1z"/><path fill="#0d131a" d="M68.55 192.25q.8.45.65 1.35-2.2 8.3-10.2 28.2-6.65 16.4-8.65 20.4-.95 1.95-1.75 2-.7.05-1.6-1.65-6.25-11.85-6.2-24.8.65-2.35 2.1-3.95.15 7.1 2.85 16.2 2.5 8.55 3.3 7.5 1-1.2 7.9-17.6 7.5-17.85 9.7-25.9-4.1-1.9-8.85-2.9l-7.15-.85v-2.3q10.05 0 17.9 4.3"/><path fill="#0d131a" d="m24.55 181.8 2.4-1.25-.1 2.65q-1.25 10.9 2.75 30.15 1.45 7 3 12.25 1.5 4.95 1.85 4.4.6-.9 7.55-20.65l7.85-22.85q-6.1-9.7-12.7-11.8l2.1-2.1q3.3 1.25 6.4 3.75 4 3.25 6.25 7.6.7 1.35.65 2.15l-.65 2-7.5 21.65q-7.2 21-8.45 23.65l-1.55 2.85q-.85.4-2.35-3.05-5.45-12.4-7.6-27.4-2.15-14.9.1-24"/><path fill="#0d131a" d="M45.9 143.6q-.65-4.4-1.2-5.4-.6-1-8.85 3.2-8.85 4.55-14.8 9.7-3.3 2.8-11.05 22.2-7.6 19.15-6.35 19.15 1.1 0 19.4-11.25 18.6-11.45 21.05-13.9 2.5-3.25 2.5-14.4 0-4.4-.7-9.3m-1.7-7.95q1.35-.3 2 .35.6.6 1.35 2.75 1.4 4.5 2 13.2.8 11.8-2.35 16.35-3.15 3.15-20.25 13.85-17.35 10.8-23.55 13.3-2.7 1.05-3.15.65-.4-.4 0-3.3.7-4.75 6.65-21.35 6.85-19.1 10.65-22.3 5.5-4.6 9.2-6.8 7.7-4.6 17.45-6.7m84.65 33.55 2.4-.5 1.5 7.55q.65 7.3-2.2 13.7-3 6.65-13.8 23.7-9.5 14.95-12.2 18.4-2.4 3.15-.8 17.8 1.65 14.85 5.75 25.3 4 10.25 12 25.6 8.35 16.1 12.2 20.3 6.55 7.1 25.75 7.35 16.2.25 36.8 4.8 27.85 6.2 39.7 16.8l-.1 5Q222.6 343.9 196 337q-21.35-5.55-37.1-5.65-10.9-.1-17.15-1.5-7.2-1.65-10.75-5.55-4.05-4.5-13.65-21.95-9.5-17.35-13.35-27.2-3.8-9.75-5.5-24-1.75-14.95.85-19.55 1.4-2.45 14.1-20.55 11.45-16.3 13.75-21.75 2.35-5.5 2.35-12.6 0-4.2-.7-7.5"/><path fill="#0d131a" d="M121.4 285.9q-1.95-.45-7.05-3.65-5.3-3.35-7.8-5.8l.05-3.65q2.5 2.5 8.1 6.45 5.8 4 7.8 4.45l6.15.6q17.35.2 33 1.9l-.3 3-30.3-2.3-5.75-.15zm67.5 4.55 9.15 2.1v2.7l-5.5-1.05-5.75-.9q.8-1.35 2.1-2.85M174.8 139.7l.4 2.15q-5.55 1.05-12.95 6.75-5.7 4.35-10.3 9.55-3.8 4.25-8.4 7.8-5.15 3.95-8.4 4.65-5.4 1.1-10.6-1.3-4.25-2-6.9-5.5l2.75-1.65q3.45 2.95 6.2 4.25 3.6 1.65 7.05 1.1 3.2-.5 8.35-3.85 5.1-3.35 8.3-6.95 3.95-4.4 8.65-8.3 8.95-7.4 15.85-8.7M336 195l1.8-.7q1.35 5.75 1.45 8.05 3.95 1.85 12.55 8.1 8.75 6.3 13 10.4 1.3 1.3 1.75 2.65l.5 3.2q.25 1.65.2 7.05l-.15 11.5q0 7.8-.55 13.8-.6-5.4-1.45-8.4l.1-5.35q0-15.3-1.15-20.3-.5-2.05-11.5-10.35-9.75-7.35-12.55-8.8l-2.15-1.3q-.45-.5-.5-1.55-.1-2.75-1.35-8"/><path fill="#0d131a" d="M340.55 148.35q-.85-1.2-3.1-1.75l-2.7-.55-3.65 15.6q3.45 7.45 7.8 23.35l4.2 15.4q.6 1.2 7.4 5.9 6.7 4.6 6.9 4.3 2.95-5.65 2.6-7.7-16.1-50.1-19.45-54.55m-9.2-5.05 4.35.4 4.1.75q1.15.55 1.4.95l1.95 3.3q3.85 6.95 11.65 29.85l7.6 23.05q.6 1.45.1 3l-1.4 3.3q-1.1 2.6-3.95 6.75l-16.75-12.2-12-40.8zm-33.6 18.65 4.15 20.15q-1.05.25-1.85.7L296 162.9q.7-.5 1.75-.95"/><path fill="#0d131a" d="m333.7 135.2-2.15 11.15-2.65 10.85q-.8 2.75-6.8 10.95l-11.45 15.2-2-.55q6.05-8.05 11.65-16.55 6.1-9.2 6.65-11.45l2.7-11.85q2.1-9.8 1.9-11.55t-7.2-15.25l-7.65-14.25q-.65-.85-1.7-1.35-.9-.4-1.6-.35l-.2 6.6q-.25 6.65-.8 9.15-.3 1.5-10.75 21.8l-2.15-.05 7.2-14.75 3.35-7.7q.75-3.55.45-11.3l-.45-7h2.6q2.85.25 4.3 1.6 1.5 1.45 8.2 13.5 6.1 11.1 7.45 14.1 1.1 2.5 1.3 3.9.3 1.95-.2 5.15m-47.65-75.1-1.7-.7-1.55-.3q-.2.65.8 5.8l9.3 12.35q8.85 12 12.7 18.25l.35-4.7q0-3.85-1.8-7.1-1.65-2.85-9.75-13.2zm-5.95-2.6.45-.25 1.05-.35 2.75.15q2.2.3 2.9 1 1.95 1.9 8.5 9.9 8.15 10 10.55 14.85 1.65 3.3 1.7 8.65.1 4.6-.85 7.1-.1 1.2-.95.9l-.85-.6q-3-5.45-13.55-19.05l-10-12.65-.8-1.45z"/><path fill="#0d131a" d="m260.25 35.5-4.15.5q-3.6.85-4 1.55l-3.55 5.95-3.55 5.85q-.65.85-1.85.6l-3.1-1.2-15.2-6.05q-15.85-6.6-22.5-10.6l.6.1q.5-.4.05-2.65 39.25 15.5 40.1 15.95.55.3 4.4-4.85l4.5-5.9q.8-.75 3.75-1.45l4.15-.4q1 .3 8.6 6.95l8.65 7.8q.8.8 1.45 7.55.6 6.75.35 11.4 3.95 3.55 17.4 22.6L309 107.5q0 2.55-5.55 13.15l-9.05 16.75-1.25.1q-.55.1-1 .35l8.35-16.3q4.65-9.55 4.8-12-3.3-7.65-13.85-22.85-10.4-14.95-14.95-18.8l-.7-1.55.5-11.25q0-5.05-.8-5.85l-7.85-7.2z"/><path fill="#0d131a" d="M244.8 38.95q2.65-4.95 2.55-6-.05-1.15-1.85-4.5-1.9-3.5-3.25-4.45-3.7-2.35-22.55-10.4-20.3-8.65-27.15-10.15-3.55.05-5.45.85l-3.9 2.2q4.95 3.5 21.3 21.05 6.5 2.4 37.1 16.1.5.25 3.2-4.7m-.2-16.7q2.15 1.5 4.3 5.35 2.1 3.7 2.1 5.75-7.25 13.45-8.4 14.05-1.15.55-41.9-17.6l-12.9-12.65-10.35-9.8 6.15-4.4q4-2.5 7.7-2.5l1.05.15q6.85 1.5 28 10.45 20.1 8.5 24.25 11.2m-39.9 46.1-1.55-14.1q.5-1.3.8-3.4l.4-3.55 2.15 19.9q-1.05.5-1.8 1.15"/><path fill="#0d131a" d="m170.4 0 .8.15q3.85 1.1 16.65 13.85 12.25 12.15 13.7 15.3.6 1.3 1.5 7.85l-1.8.75q-.95-6.7-1.45-7.8-1.15-2.55-13.7-14.3-12.95-12.15-16.55-13.3-4.25-.15-21.35 2.4-16.65 2.45-17.6 3.1l-1.4 1.25-1.55 1.8q1.6-.5 2.8-.5l2.45.25q1.8.25 14.95 6.2 13.6 6.1 14.95 7.6 1.25 1.4 1.8 2.75l.7 2.05-2.05 1.35q-.6-1.25-18-9.35-17.9-8.25-20.4-7.5l-2.15-.55 2.55-3.85q2.25-3.3 3.65-3.95 1.85-.9 19.45-3.3Q166.25-.2 170.4 0m27.4 71.05.55-1.85 5.3.65q-.55 1.7-.5 2.1zm-25.05-24.9q.65-1.55.8-3.2l2.7 6.1 2.6 5.9-1 .8-.9 1.1z"/><path fill="#0d131a" d="m161.35 32.75-.65.35-.6.35-1.75-4.2q-.7-1.6-1.2-1.9-2.8-1.75-20.2-8.25-16.9-6.35-18.4-6.5-1.2-.05-6.6 2.25-5.1 2.2-8.4 4.1l-2.3-1.2q10-5.75 12.85-6.75 3.75-1.3 5.95-.35l17.9 7q17.5 7 20.15 8.6.65.4 1.4 2.2zm6.75 22.35 1.35-2 3.15 9.1-2.4-1.1zM207 32.75q1.45-.7 1.75-.5.3.25.1 2.15-.8 8.9-5.9 24.55-4.7 14.55-7.2 17.8-1.7 2.2-5.8 3.4-4 1.2-7.7.65l-.75-3 7.3.2q3.55-.9 5.15-3 2.05-2.7 7.65-20.65 5.55-17.9 4.75-18.75-.6-.65-13.85 9.7-13.8 10.75-17.85 15.7-.5.6-.85 1.65l-1.3-1.85.45-1.35q3.9-5.1 13.55-13.05 11.3-9.3 20.5-13.65m27.2 11q1.2-.65 1.7-.35.55.3.3 1.85l-1.25 8.35q-1.5 8-3.85 14.65l-1.55 1.1-1.5 1.15q2.1-6.55 4.1-15.2 1.95-8.45 1.55-9.05-.35-.65-13.8 10.9-13.55 11.6-15.65 14.55-1.3 1.9-1.3 4.9 0 2.7 1.55 5.45 1.45 2.65 3.9 4.55l2.75 1.85q1.5.75 3.2.75v1.95q-4.45 0-7.8-2.65-4.15-3.25-5.3-9.3-1.1-5.85 1.3-9.2 2.45-3.4 12.6-12.25 11.75-10.25 19.05-14M309.85 139q-17.15-.4-20.75.45-3.15.8-5.25 5.05-2.2 4.5-1.1 9.05.55 2.35 2 4.4t3.6 3.35q3.3 2.05 6.15 1.4 2.85-.7 17.7-11.05 14.65-10.2 14.75-11.25.05-1-17.1-1.4m18.85-.45q1.65.25 1.6.95-.05.85-2.3 3.1-4.55 4.55-17.2 12.9-12.5 8.25-15.85 9.05-3.6.9-7.6-1.65-2.45-1.5-4.15-3.85-1.7-2.3-2.35-5.05-1.25-5.35 1.4-10.5 2.55-4.95 6.4-5.9l16.7-.55q14.4.2 23.35 1.5M235.3 341q3.15-16 4-29.35 2.5-1.5 3.9-3.65-.6 14.65-3.75 32.7-1.75 10.15-5.6 27.5l-2.45 11.4q-.95 5-.75 6.55.55 4.85 8 13.7 6.85 8.15 15.4 15-.3.7-.15 2.45l.25 2.45q-9.9-7.15-18.1-15.95-9.3-9.95-9.95-15.5-.4-3.65 3.85-22.75zm123.1-108.1q13.95 20.1 13.4 56.65-.75 47.3-2.75 96l-1.5-1.1q-1-.75-1.6-1 2.1-53.15 2.1-93.1 0-35-12.9-54.05t-39.9-24q-16.6-3-32.4 3.8l1.55-4q8.15-3.65 15.55-4.6 7.8-1 16.75.65 28.15 5.15 41.7 24.75"/><path fill="#0d131a" d="M338.9 241.05q12.85 12.95 12.85 31.25t-12.85 31.3q-12.9 12.95-31.05 12.95-15.4 0-27.45-9.7-11.8-9.6-15.3-24.4.85-1.1 1.45-2.75 2.65 14.6 14.4 24 11.75 9.35 27.25 9.35 17.5 0 29.5-11.6 12.1-11.75 12.1-29.15 0-17.45-11.9-29.3-11.9-11.8-29.3-11.8-8.7 0-16.7 3.25-7.75 3.15-13.75 8.9l.1-3.7q5.95-5.5 13.45-8.5 7.75-3.1 16.15-3.1 18.15 0 31.05 13M362.65 383q-.95-.3-6.45 5.95-5.25 6.05-6.9 9l-2.25-1.25q1.5-3 5-7.65 5.65-7.5 10.1-9.05l.7-.05q1.8.35 9.25 7.9 6.55 6.6 8.5 9.2 2.75 3.6 3.85 6.35 1.9 4.75 6.25 22.75 5.05 21.15 4.75 28.65-.15 3-.9 3.25-.55.15-3.5-1.15-5.05-2.25-19.4-13.75L356.9 431q-.35-2.35-.15-3.25l15.75 12q13.85 10.3 17.5 12.4l1.25.65q.6.05.6-1.45 0-3.3-4.55-24.45-4.8-22.2-6.8-25.2-3.15-4.8-9.35-11.3-6.25-6.6-8.5-7.4"/><path fill="#0d131a" d="M340.5 392.8q-9.35-7.05-13.55-7.65-3.65 2.55-11.5 12.45-7.95 10-9.85 14.65l-1.9-2q3.1-6.25 10.5-16.3 7.75-10.5 11.1-12.55l2.15-.3 3.4 1.55q4.2 2 8.05 4.5 12.3 7.9 16.7 17.35l.7 2.05q3.05 9.5 2.6 33.3-.45 24.15-4.1 30.4-1.4 2.35-2.15 2.5-.8.2-3.3-1.35-6.2-3.75-22.25-21.4-17.4-19.1-22.7-29.65l.65-2.9.35-2.65q2.8 7.35 22.9 30.05 19.6 22.1 22.8 22.7.9.15 2.45-14 1.55-14.7 1.55-25.85 0-16.2-1.85-22.05-2.95-5.5-12.75-12.85"/><path fill="#0d131a" d="M291.1 395.3q-9.85-10.6-12.4-9.95-2.9.65-12.65 12.25-10.6 12.5-10.6 18.25l.15 1.15q1.4 5.9 13.5 25.55 11.95 19.35 18.5 26.7 1.1.95 1.7.8l1.4-1.4q4.95-7.8 9.05-25.75 3.75-16.55 3.75-26.95l-.05-1.25q-1.8-8.05-12.35-19.4m-19.65-8.1 4-3.75 3.1-1.9q6.2 0 16 11.25 9.75 11.2 11.8 20.55l.35 2.8q.5 11.1-3.65 30.05-4.85 22.05-11.5 27.75l-1.95 1.25q-.85.15-2.25-1.15-12-11.1-23.4-31.1-9.2-16.2-11.55-25.2-1.85-7.1 10.4-21.4 3.85-4.5 8.65-9.15m-111.8-284.7 1.7 5.55q-2.05 17.95-9.15 31.1-9.8 18.2-28.2 25.1-9.5 3.6-17.2 3.95-7.3.3-12.5-2.25-1.85-.95-4.45-3.8l1.5-1.6q1.45 1.7 3.75 2.9 4.55 2.2 11.65 1.6 7.1-.65 16.25-4.1 19.4-7.25 28.85-26.7 6.7-13.7 7.8-31.75"/><path fill="#0d131a" d="m142.25 93.1 1.9.3q-1.25 14.2-6.5 28.4-6.8 18.45-18.25 30.05-5.85 5.95-10.35 8.6-5.85 3.55-12.2 3.5-3.25 0-6.5-1.8l.9-.75.6-.85q2.8 1.45 5 1.5 5.45 0 10.6-3.15 4.25-2.65 10.7-9.2 10.05-10.25 17.1-28.7 5.75-15.15 7-27.9"/><path fill="#0d131a" d="M129.25 131.8q.15-.15-2.5-5.45l-4.5-8.9 1.2-1.45 4.75 9.6q3.55 7.3 3.2 7.9-.3.55-8.6-1.15l-10.1-2.2 3.55 9.8q2.7 7.3 3.7 9.45l-.95 1.1q-4.55-1.2-15.2-5.75 4.3 13.4 5.2 14.3l-1.15.75-13.55-3.75q.85-.5 1.3-1.55l6.55 2.25q4.35 1.5 4.25 1.05l-4.7-12.9 1.95-2.25 7.95 3.45q5.8 2.45 6.15 2.3.55-.2-7.9-18.9l.05-2q19.15 4.55 19.35 4.3m12.45-29.65-7.95.65q.8-1.05 1.55-1.75l6.3-.5zm-9.55 3.4 1-1.9 3.55 7.2q2.3 4.8 2 5.35t-6.5.15l-8.5-.7.8-1.65 7.65.5 4.55.1q.15-.2-1.5-3.35zm-26.8-29.2q4.35 1.65 7.15 5.95 2.85 4.45 2.85 9.8 0 6.35-4.1 10.75t-10.05 4.4l-3.15-.4.5-2.05 2.65.35q5.05 0 8.55-3.8 3.45-3.75 3.45-9.25 0-4.25-2.65-7.95-2.45-3.4-6.05-5.15 0-.45.45-1.35z"/><path fill="#0d131a" d="M102.9 86.45q2.25.25 3.8 2.15t1.55 4.5q0 2.8-1.75 4.8-1.7 1.95-4.2 1.95l-1.25-.15.6-6.65q.25-4.15 1.25-6.6"/><path fill="#fff" d="M103.4 92q.8-.15 1.35.3t.55 1.25q0 .75-.45 1.25t-1.1.5q-1.45.1-1.75-1.2-.15-.65.25-1.3.4-.7 1.15-.8"/><path fill="#0d131a" d="M168.25 119.95q7.65 17.9 8.35 22.4l-1.5 4.15q-.7-4.3-8.25-23.25-7.35-18.3-8.85-20.4-1-1.4-7.95-5.3-7-3.95-7.75-3.45-.8.45-19.1 23.1-3.5 4.3-4.55 3.8t-.1-5.25l4.75-25.45 3.2-18-9.5-14.15q-.7-1-.45-2.7.25-1.6 1.15-3.25l7.9-13.1q7.15-11.65 8.05-12.4 1.1-.9 4.95-1.3 3.95-.45 5.15.4l3.7 4.2 6.05 7.3q0-.1-.9.6l-1.5 1q-7.9-9.55-9.2-10.75l-3.15-.15q-2.6.35-3.2 1.05-.8.9-8.5 13.15-7.85 12.55-7.85 13.25 0 .6 4.3 6.95l4.85 7.1q1.15 2.05.6 4.15-9.2 43.7-8.45 43.25l9.5-11.35 10.3-12.35q1.2-1.2 2.2-1.5.85-.3 2.05 0 1.55.35 7.2 3.55 6.2 3.5 7.5 5.3 1.7 2.35 9 19.4m16.35-21.2q-5.5-23.55-8.35-27.45l-9.9-13.5.95-1.5.85-1.7q3.35 4.2 10.5 14.4 4.9 6.9 9.6 30.15 3.3 16.5 4.35 27.6l-2.35.45q-.65-7-5.65-28.45"/><path fill="#0d131a" d="M173.3 42.4q8-18.9 6.6-19.35-1.65-.55-18.4 10.45-16.2 10.6-19.65 14-2.15 2.1-2.15 6.65v.65q.15 2.95 1.35 5.55t3.2 4.45q4 3.5 9.7 3.35 5.2-.2 7.75-2.95 3.5-3.75 11.6-22.8m8.2-23.05q1.7-.7 1.95-.45.35.25.05 2.5-1.4 9.4-9.65 26.4-7.35 15.05-10.75 18.7-3.25 3.5-9.25 3.8-6.4.35-10.8-3.6-2.3-2.05-3.7-5.3-1.4-3.15-1.55-6.5-.25-5.65 2.65-8.7 3.5-3.8 15.75-12.35 14.9-10.4 25.3-14.5m-138.15 6 6.75 3.3q6.3 2.9 8.75 3.7l.25 3.15-8.85-3.15-7-2.75q-.75-.4-2.75 1.6-1.95 1.95-1.65 2.5.55.8 7.15 37.95 6.85 38.5 7.1 45.7.15 3.95 1.65 5.9 2.7 3.3 8.55 13.6 8 14.1 10.4 23.4.85 3.4.6 3.45-.3.1-1.45-3.15-2.4-6.85-10.55-20.25-6.85-11.2-10.6-15.95-1.2-1.5-1.3-3-.45-6.6-7.6-47.25l-7.2-40.4q-.5-2.75 2.85-6.05 3.25-3.2 4.9-2.3"/><path fill="#0d131a" d="M82.4 22.05q.1.85-.2 2.65l-17.8-8.55q-.65-.3-2.7 1-2.1 1.3-2 2.1 2.8 73.55 2.8 93.5 0 2.35.3 3.4.3 1 1.45 2.75 3.3 5 7.8 18.15 4.9 14.35 5.25 22.2.25 4.75-.45 2.85l-1.3-5.05q-1.75-7.85-7.3-21.65-5.4-13.4-7.9-16.6-.75-1-.95-2.15l-.05-2.1-1.8-49.45Q55.9 19.55 56 17.3q.05-1.7 3.85-3.9t5.25-1.35l7.75 4.7q6.95 4.15 9.55 5.3"/><path fill="#0d131a" d="M124.5 23.85q.95.6.85 2.35l-.5 2.15q-12 26.3-19.7 55.3-5.05 19-7.1 34l6.75-3.9 4.5-2.55q1.8-.85 2.25-.3.35.45.25 2.95l-.35 10.75-.4 9.25-2.35 3.75-4.05 6Q97.2 155.4 88 167.25q-7.55 9.75-9.85 11.65-1.45 1.3-2.2 1.05-.6-.25-1-1.55-2.15-7.7-9.2-18.95-8.5-13.65-22.15-29.05-.75-.85-1.45-2.5l-.6-1.5q-.45-4.2-9.55-37.3l-9.55-34.45q-.45-1.9 2.15-4.5 2.6-2.5 4.35-2.1l5.55 1.75q4.25 1.4 6.25 1.6l.4 1.45.2 1.6-6.7-1.35-4.8-1.2q-.7-.3-2.3 1.1-1.6 1.35-1.4 2.1l8.6 30.45q8.6 30.95 9.4 37.25.2 1.3 1.1 3.25.95 2 1.8 2.9 10.75 11.3 21.25 30.2l8.75 16.25q.8.05 10.7-12.9 9.5-12.45 14.95-20.45l4.1-5.7q1.65-2.3 1.95-3.15.4-1.1.4-10 .05-8.85-.35-8.75-.5.2-4.65 2.5l-6.2 3.6q-1.75 1.1-2.1.95-.35-.2-.25-1.95.45-8.45 5.5-30.55 7.7-33.5 20-61 .55-1.2-.05-1.85-.6-.7-2.55-.95-4.65-.6-14.8-5-10.55-4.6-15.15-8.35-.8-.25-2.35.4-1.65.7-2.25 1.7L84 17.6q.45 9.95-3.3 44.75l-5.15 44.95q-.3 2.5.55 4.55 2.45 8.75 4.2 25.15 1.85 17.5.7 25.15-.5 3.35-1.1 3-.55-.4-.35-4.55.5-8.8-2.5-27.5-2.5-15.8-3.7-19.1-1.55-3.95-.75-9.65 1.9-13.6 4.85-42.15 4.2-41.05 3.15-50.95-.1-1.1 3.6-2.85Q88 6.6 89 7.45q4.35 3.55 15.05 9Q115 22 119.1 22.6q4.2.6 5.4 1.25m165.8 96.1q-.55 4.15-4.05 10-3.1 5.1-6.2 8.1l-1.9 1.65-1.65-2.4 1.8-1.65q4.8-4.6 7.45-11.15 2.7-6.8 1.8-12.4l1.95 3.3zm-11.15-41.3q-5.6-6.25-12.85-9.8-7.25-3.5-15.3-3.85-7.45-.25-14.3 2.35-6.85 2.55-12.2 7.7-8.7 8.35-10.25 20.2-1.45 11.25 3.85 22.7-1.75 1.05-2.6 2.15-6.15-12.4-4.65-24.95 1.5-13 10.8-21.95 5.8-5.55 13.65-8.65 8-3.2 15.85-2.85 8.55.3 16.2 4 7.7 3.7 13.6 10.3 5.85 6.55 9.05 14.75 3.6 9.2 2.45 17.2l-2.2 2.3-.3-3.3q.25-6.95-2.7-14.75-3-7.8-8.1-13.55m-75.45 47.5 4 1.05-1.8 2.7q-1.2-.1-3.65-1.3l-2.9-1.65q-.8-.55-7.9 1.5-7.45 2.15-8.55 4l-6.45 12.45q-7.05 12.9-9.9 15.2l-9.2 6.7q-7.75 5.6-8.8 6.95-2 2.55-7.65 17.65-5.8 15.6-6.3 20.65l.2 4.1q.3 3.25.75 5.45l-2.05 5.35q-1.85-3.3-2.8-6.5-1-3.4-.8-5.85.55-5.65 6.7-23.05 6.05-17 8.3-19.8 1.5-1.85 9.9-7.4l9.75-6.5q2.55-2.1 9.3-15.05l6.2-12.5q1.4-2.4 9.6-4.25l8.7-1.7 1.4-.05q.25.05 1.25.65.7.4 2.7 1.2m-40.4 125.6 3.5 1.15v2.6l-5.25-1.8zm118.85-75.7-2.65-1.25-1.8-1.6-.8-1.4 1.45-2.5.85 1.5 2 1.6 2.85 1.85.15.2q4.5 7.1 5.7 11.1 1.15 3.95 0 8.3-.95 3.5-6.35 33.15-4.9 26.9-6.25 35.1-.6 3.55-4.25 8.1l-6.75 7.3-.5-3.2q7.85-8.35 8.75-13.7l5.85-33.85q5.25-29.75 6.2-33.35.65-2.5.65-4.45 0-2.5-1.15-5.45-1.2-3.05-3.95-7.45"/><path fill="#0d131a" d="M242.45 115.4q-15.15-1.55-27.9 7.2-7.95 5.4-9.25 15.5-.95 7.55 2 16.1 3 8.55 8.95 15.4 10.3 11.8 25.65 14.35 15.35 2.5 26.65-5.8 4.6-3.35 7.4-8.55 2.75-5.15 3.3-11.4.7-8.05-2.2-16.1-2.9-8-8.8-14.15-10.6-11.05-25.8-12.55m-39.6 22.4q1.35-10.45 10.3-17.25 13.8-10.4 30.8-9 16.25 1.3 25.8 12.3 14.25 16.3 12.65 34.8-.6 6.6-3.95 12.3-3.2 5.35-8.45 9.2-12.1 8.8-28.4 6.2-16.3-2.65-27.2-15.15-6.3-7.2-9.45-16.3-3.1-9.05-2.1-17.1m45.6 115.55q11.75-5.4 13.55-2.95 1.6 2.15 4 13 2.25 10.2 2.15 12.8l-.35 3.85q-.45 1.9-1.6 3.7-7.4 11.25-11.35 16.1-13.1 16.25-28.85 26.7-6.35 4.2-7.95 3.3-1.3-.8-.45-6.75 1.95-13.8 2.7-16.35l4.05-5.25q-.5 1.8-2.2 11.9-1.85 10.75-1.6 12.05.15.8 6.65-4.65 6.9-5.75 14.6-13.2 21.25-20.6 23.2-29.55.95-4.25-1.25-13.65-2.05-8.8-3.8-10.8-1.05-.9-11.45 3.8l-10.25 4.9-1.15-3.05z"/><path fill="#0d131a" d="M215.1 247q8.05-4 11.95-3.4 1.25.2 4.05 2.3 3.25 4.15 5.85 10.3 3.25 7.45 2.8 12.4-.75 8.95-12 30.9-12 23.4-22.7 34.2-4.45 4.45-7.25 3.5-2.6-.9-2.7-5.7-.3-11.05.65-34.05l.85-18.85 3.35-3.7-.55 28.65q-.5 26.95-.3 30.15 9.65-8.8 21.2-29.5 10.05-18.1 14.25-31.05 1.3-3.9 1.3-7.9 0-5.2-3.2-11.35-1.85-3.55-3.85-6-.75-1-1.5-1.3l-2.8-.05q-2.85.7-8.45 3.2-7.25 3.3-12 6.9l-1.5-1.95q5.75-4.4 12.55-7.7"/><path fill="#0d131a" d="M198.45 245.25q-2.85-7.55-4.45-8.75-1.6-1.25-13.55 5.85-12 7.15-12.75 10-1.15 4.4-3.2 30.1-2.15 26.65-1.65 34.55.1 1.5.7 1.65.6.1 1.85-1.1 10.25-9.6 22.25-26.7 12.1-17.3 13.7-24.85.5-2.2.5-4.9 0-6.95-3.4-15.85M159.7 315.9q-.8-18.45 1.6-40.7 1.8-16.65 3.55-23.2 1.1-4.2 12.15-11.1 11.3-7.05 17.9-7.2l.9.35q2.8 2.8 6.25 12.9 4.15 12.25 2.45 20.35-1.75 8.25-13.25 25.1-11.15 16.4-21.75 26.8-5.2 5.1-7.3 4.4-2.15-.75-2.5-7.7"/><path fill="#0d131a" d="M156.3 212.5q-2.4-4.75-4.15-6.4-1-.9-1.6-.7-2.65 1.15-7.75 7.45-5.85 7.25-9.05 14.8-3.05 7.05-4.65 23.95-1.6 16.85-.3 27.3.4 2.85.85 3.15.3.2 1.25-.85 1.75-1.9 10.65-10.3l15.75-14.4 8.65-7.85q.55-.55.55-2.3 0-5.05-4.15-17.85-3.6-11.15-6.05-16m-6.4-10.55q2.25-1 4.7 2.45 1.1 1.55 3.85 7l6.9 17.55q6.15 17.95 2.95 21.35l-12.65 12.25-20.15 19.75q-4.8 4.8-7.5 4.2-2.65-.65-3.45-6.95-1.35-11.2-.65-22.35.95-15.75 6.05-29.2 2.8-7.5 9.3-15.9 6.4-8.35 10.65-10.15"/><path fill="#eeeeef" d="M322.7 185.6q16.75 3.75 18.35 6.1-2 3.05-18.25 9.7-15.65 6.4-19.5 6.5-3.6.1-6.95-3.4-3.55-3.8-3.65-8.85-.1-5.1 3.3-9.35 3.2-4.05 6.75-4.15 4.3-.1 19.95 3.45"/><path fill="#c8c9ca" d="M292.7 195.65q-.05-.85 24-2.7l24.35-1.25q-2 3.05-18.25 9.7-15.65 6.4-19.5 6.5-3.6.1-6.95-3.4-3.55-3.8-3.65-8.85"/><path fill="#0d131a" d="M323.05 186.9q-16.55-3.85-20.25-3.75-3.25.1-6.2 3.85-3.05 3.95-2.95 8.6.15 5.15 3.9 8.75 2.85 2.7 5.75 2.6 3-.05 19.75-7.15 16.6-7 16.6-8.05.05-1-16.6-4.85m18.8 3.05q1.7.85 1.65 1.75t-1.65 1.75q-7.8 4.25-21.35 9.75-13.85 5.6-17.15 5.7-3.65.1-7.1-3.15-2.45-2.3-3.65-4.25-1.55-2.45-1.6-5.05-.15-5.85 3.05-10.25 3.35-4.55 8.7-5 3.35-.25 18.25 2.9 15.75 3.3 20.85 5.85M67.4 160.8q.25-.3 1.2.75.9 1.05.65 1.35-1.65 2-6 3.55-3.85 1.4-6.45 1.4-2.3 0-2.3-.95 0-1 2.3-1 1.9 0 5.4-1.55 3.7-1.7 5.2-3.55"/></svg>