<svg xmlns="http://www.w3.org/2000/svg" width="159" height="232" viewBox="-2.05 -0.2 159.1 232.1"><path fill="#c0dc96" d="M63.6 73q12.15-.75 22.75 4.9 12.2 6.5 15.55 21.7 2.95 13.45.25 41.75-.7-2.95-4.15-4.9l-3.35-1.35Q83.7 133 77.7 144.3q-3 5.65-3.8 11.7-8.35 3.8-21.65 2.65l-11.65-1.9q-8 9.9-14.85 12.7-3.45 1.45-5.3.85-12.4-11.2-16.85-29.1-4.1-16.2-.25-30 3.05-11 23.3-23.35Q41.75 78.6 53.6 74.9l2.75-.8zM45.3 191.35q-3.45-3.7-3.75-5.4Q66.6 189 85.4 179.5q9.4-4.75 13.75-10.1 11.65 5.9 27.1 7.85l13.15.8q-1 6.3-6.45 13.3-10.9 14-33.25 17.55-25.2 2.15-43.7-9-6.3-3.8-10.7-8.55"/><path fill="#c0dc96" d="M25.35 193.65q.55-6.85 2.45-12.4l13.75 4.15q2.8 5.4 10.45 11.5 3.8 3.1 7.05 5.05.15 4.6-.55 8.1l-.75 2.6-3.8-5.8-8.65 8.25-9.4-9.2-7.55 8.45q-3.95-9.15-3-20.7m41.8 12.05 6.4 1.3-5.3 5.85q-.45-1.15-.75-3.55zm14.7-19 28.95-6.05q4.6 11.9 3.7 23.8-.45 6-1.8 9.55l-9.8 7.7-8.45-9.4-7.55 9.2-7.5-8.45q-1-7 .1-15.2.75-5.9 2.35-11.15m53.75.75q2.15-3.4 3.5-6.85l.9-2.75 3.75-.2q5.65 8.7 5.95 20.5.15 5.85-.85 10l-2.1-1.5-6 7.5-8.3-7.9-7.9 9.05-6.4-4.5-1.05-3.15q-1-3.2-.45-3.45 12.15-6 18.95-16.75"/><path fill="#d3965c" d="M107.6 36.7q.55.5-.35 4.1-.85 3.45-2 6.05-.95 2.05-7.15 18.7l-6 16.3q2.6 2.3 5.55 6.55l2.45 3.8q-4.9 10.65-5.5 10.95-.6.25-7.95-12.7-12.7 5.45-13.75 5.3t-4.85-13.9l-11.8.75-6.55.6q-.1-.75 2.45-4.7l2.6-3.85q2.6-.95 12.35-1.15l9.2-.05q2.65-1.1 12.95-14.2l12-15.8 4.15-5q1.85-2.1 2.2-1.75m-2.5 108.95-2.85-5.6 1.5-13.4q13.25 4.9 19.95 19.8 2.4 5.3 3.2 10.35.75 4.45-.15 5.4-1.3 1.35-11.25-1.6l-9.75-3.2q1.85-5.1-.65-11.75m38.85 8.55q1.95 5.6 1.75 10.3h-7.9q.1-6.65-2.75-14.15l-5.4-11.9q10.45 4.55 14.3 15.75"/><path fill="#ed8599" d="M36.6 176.6q-5.1-1.65-6.45-5.3-1-2.7-.05-3.9 2.1-.4 11.3-11 9.35 3.65 22.05 2 6.35-.85 10.8-2.4v6.45q-6.35 7.7-19.2 12.1Q43 178.7 36.6 176.6"/><path fill="#922f00" d="M29.1 168.4q.4 2.7 2.4 5.25l1.95 2q-3.4-.8-6.85-2.85l-2.75-1.95q2.65-1.2 5.25-2.45"/><path fill="#ffe33f" d="m40.6 210.25 4.65 4.45 8.7-7.85 3.75 5.45q-2.85 9.5-4.7 10.95-1.25 1-9.6 1.05l-9.75-.7q-1.2-.55-3.45-5.15l-2-4.5 7.4-8.05q.3-.1 5 4.35m32.75-2.7 5.65 1.3L80.3 220l-8.4-.6q-1.05-.35-2.35-3.65l-1.1-3.25z"/><path fill="#ffe33f" d="m86.95 221.2 7.5-8.9 8.85 9.1 9.4-7.65-2.5 7.4q-2.9 7.6-4.7 8.5-2 1.05-10.15.7-7.85-.3-9.55-1.2-1.45-.7-4-7.6-2.35-6.45-2.35-8zm38.1-6.2 7.4-8.75 8.3 7.9 6-7.5 2.15 1.85-1 6.45q-1.4 6.7-3.1 8-1.95 1.45-9.7 1.8l-10.05-.55q-2.1-.7-4.7-6.8-2.1-4.8-2.6-7.6zM3.4 154.2q-1.4-6.4.95-10.45 3.15 9.15 7.4 16.65Q18.2 171.95 23 170.5q5.55 4.75 14.7 6.15 18.35 2.75 36.55-14.2-.4-5 .85-10.75 2.55-11.5 11.1-15.25 9.65-4.25 15.7 3.75 5.7 7.5 3.7 18-.95 5.05-5.75 10.55-5.05 5.8-12.75 10.15-18.9 10.75-41.9 7.5-23-3.2-35.3-19.15-5-6.4-6.5-13.05"/><path fill="#ffe33f" d="M75.2 136.1q-2.15 7.6-6.65 12.15-4.55 4.55-8.8 3.35t-5.8-7.45q-1.5-6.25.65-13.85 2.2-7.6 6.7-12.15 4.55-4.55 8.8-3.35 4.3 1.2 5.8 7.45t-.7 13.85"/><path fill="#009f50" d="M86.45 8.4q3 4.2 7.8 14.65 3.3 7.2 2.25 19.05-.5 5.9-1.65 10.35L89.3 58.9q-3.85-.95-8.35-4.3Q71.9 47.95 68.7 36q-3.25-12.05 1.95-24.6 1.7-4.05 4-7.5 1.85-2.75 2.25-2.85 5.2 1.2 9.55 7.35m69.4 35.5q-2.75 5-7.2 10.4-8.85 10.8-17.15 12.9-10.95 2.85-19.25 2.05-9.7-.95-17.15-6.9-.25-.2 1.2-2.95 1.7-3.25 4.25-6.4 7.55-9.5 17.4-12 11-2.8 21.75-1.7 9.55.95 16.15 4.6"/><path fill="#0d131a" d="M114.8 133.45q-3.65-3.45-8.05-5.75l-3.65-1.65.7-4.05q21.05 4.45 29.95 23.6 4.45 9.6 4.65 18.25l7.05.15-.15-3.5q5.95 1.95 5.1 9.5-.45 3.75-2.1 7.1-18.2 2.2-35.5-2.55-5.4-1.45-10.05-3.45l-3.6-1.7q3.05-2.05 4.85-7l1.2-4.55q5.85 2.1 14.3 3.45l7.25.9q-.2-17.8-11.95-28.75"/><path fill="#a5be83" d="m114.3 196.1-.6-6.5q10.05-3.9 19.35-11.6l7.1-.65q-1.6 8.25-8.75 15.85-6.95 7.4-17 11.95.45-2.15-.1-9.05m-34.1-3.05-.9 6.65q-.75 7-.05 8.85.1.3-.85-.15-18.5-3.95-29.35-13.7-3.4-3.05-5.6-6.3l-1.55-2.65q6.6 1.4 19.35 1.15 8.95 4.45 18.95 6.15"/><path fill="#a5be83" d="m57.6 212.15-3.5-5.25-7.2 6.9q1.45-7.8 1.45-18.9l11.05 6.9q-.25 4-1.8 10.35"/><path fill="#dcc437" d="M57.6 212.15q-.95 3.95-2.1 7.1-1.1 3.1-1.7 3.6-1.35 1-10.2 1.85 2.1-4.4 3.3-10.9l7.05-6.75z"/><path fill="#a5be83" d="m67.15 205.7 6.45 1.7-5.25 5.45q-.85-1.3-1.1-4.35z"/><path fill="#dcc437" d="M124.95 215.2q.5 0 7.45-8.95l3.5 3.85q-.55 6.8-2.35 14.95l-3.85.05q-4.05-.15-5.1-1.1-1.25-1.1-3.45-5.15-2.65-4.8-3.85-9.25 7.1 5.6 7.65 5.6"/><path fill="#a5be83" d="M136 195.15q.6 7-.1 14.95l-3.2-3.85-7.75 8.95-7.45-5.6q-.85-3.1-.85-5.4l18.6-15.25z"/><path fill="#ce7486" d="M52.35 158.75q4.55 1.2 13.75-.9 4.6-1.1 8.3-2.4v7.05q-1.55 1.95-12.6 9.05-1.25-4.5-3.55-7.5-2.1-2.7-5.9-5.3"/><path fill="#dcc437" d="m73.6 207.4 5.35.45q-.35 2.55.85 7.8.6 2.65 1.3 4.75-7.6-.6-9.6-1.4-1.2-.5-2.1-3.6l-.6-3.05zm-40-23.95q-4.85-1.6-8.45-3.95l-2.6-2q4 2.3 13.25 3.55 11.3 1.6 22.6 0 31.95-4.55 46.85-31.65l.3 4.25q-.15 5.15-2.3 9.95-6.9 15.35-31.55 21-22.55 3.95-38.1-1.15"/><path fill="#008c46" d="m91.25 57.1-2.05 1.7q-15.15-4.9-19.85-19-1.5-4.4-1.75-9.2l.05-3.9q.35 6.05 5.1 14.15 6.8 11.45 18.5 16.25m11.5 9.45q-3.15-1.25-5.8-2.9l-2-1.35.8-2 5.55 2.2q6.2 2.15 12.6 2.6Q134.15 66.65 151 52q-2.2 3.95-6.7 8.1-8.9 8.35-20.2 9.45-11.3 1.05-21.35-3"/><path fill="#ad7b49" d="m96.7 63.65 1.8 1.2-6.45 16.95-2.45-2.05z"/><path fill="#0d131a" d="M24.35 123q-.55.8-.9.65t-.25-.65q.1-.65.55-1.7.5-1.35 1-1.75l.95-.15q.4.2.3.85l-.6 1.3zm-13.65-3.85.05-1.8q.05-.9.25-1.4.25-.55.65-.5t.55.75l-.15 2-.55 1.65-.45.35q-.35-.1-.35-1.05m59.6-3.2q-2.2-.7-5 .8-3 1.6-5.5 5.2-2.45 3.6-3.85 8.4-1.55 5.3-1.55 9.9t1.65 7.45q1.4 2.45 3.85 3.05 3.5.9 7.35-3 4.25-4.2 6.45-11.8Q76 128 74.75 122.2q-1.15-5.2-4.45-6.25m-6.25-.95q3.4-1.8 6.8-.75 4.15 1.3 5.8 7.1 1.85 6.45-.7 15.2-2.25 7.85-7.2 12.45-4.8 4.45-9.4 3.35-3.55-.85-5.3-4.1-1.7-3.3-1.8-8.2-.1-5.05 1.6-10.3 1.65-5.2 4.5-9.3 2.75-3.8 5.7-5.45"/><path fill="#0d131a" d="M58.8 131.05q1.6-5.65 4.25-8.3 2.3-2.3 4.6-1.65 1.95.6 2.4 4.35.45 3.8-1 8.8-1.4 4.85-3.85 7.65t-4.65 2.05q-2.2-.7-2.6-4.75-.4-3.8.85-8.15"/><path fill="#fff" d="M62.15 127.95q.55-1.85 1.5-2.85.85-.85 1.55-.75.8.15.95 1.6.15 1.35-.4 3.05-.6 1.9-1.6 2.95-.85.95-1.5.8-.85-.2-.95-1.7-.1-1.35.45-3.1"/><path fill="#0d131a" d="M89.95 80.95q-1.5-1.2-1.15-1.6.35-.45 1.85.6 9.3 6.2 12.4 21.25 3.15 15.45-.05 40.9-.05.4-.85-.7t-.75-1.5q2.35-24.6-.35-38.55-2.75-13.95-11.1-20.4"/><path fill="#0d131a" d="m2.75 140.6.95-.1q.9.3.8.65-2.1 6.95 1.1 15.65 3.85 10.5 14.15 18t23.65 9.5q13.9 2.15 27.3-.85 13.4-2.95 22.6-10.25 5.05-4 8-8.7 2.9-4.75 3.3-9.7.5-6.65-3.05-12.7-3.55-5.95-8.25-6.4-3.6-.35-6.6.95-2.7 1.15-5.3 3.95-4.35 4.65-5.6 9.95-1.1 4.35-.55 11.8v.1l-.25.65q-12.1 12.2-27.35 14.35-14.9 2.15-25.1-6.35-.25-.2.3-.9.6-.7.85-.5 10.25 8.55 25.3 5.5 13.6-2.8 24.45-13.15-.65-3.65-.2-8.05 1-8.65 6.65-14.75 2.8-3 6.4-4.5 3.7-1.6 7.25-1.1 6.3.9 10.2 7.65 3.7 6.35 3.1 13.8-1.35 16.45-22.05 25.8-19.65 8.9-41.85 5.5-13.95-2.1-24.5-9.6Q7.7 169.2 3.7 158.35q-1.65-4.5-1.9-9.3-.2-4.6.95-8.45M107.3 37l-4.2 5.4-5.35 7.3L86.6 64.5q-6.15 7.7-9.55 9.85l-1.45-.2q-1.2-.4-.9-.6 3.35-2.1 10.1-10 5.65-6.6 11.8-15 6.5-8.8 8.55-11.15 1.85-2.05 2.7-1.7.75.25.55 2.05-.3 2.9-2.9 10.6L103 50.3q3.65-10.15 4.3-13.3m-7.85 28.2-6.3 17.4q-.2.45-2.1-1.5 1.4-3.05 6.65-16.8zM86.3 89.35l.55-.05.4.35 7.45 12.65 2.15-4.2L98.8 93l.9.2q.85.35.8.45l-2.25 5q-2.45 4.9-3.6 4.9-2 0-8.35-12.55-12.1 6.4-14 5.35-.55-.25-1.45-2.55-1.45-3.8-3.1-11.65l-7.4.65-10.6 1.2q-.8.1-.95-.25-.1-.25.15-.95 1.25-2.95 4.5-7.4l2.45-.55-2.75 3.6Q51.3 81 50.6 82.4q3.95-.85 10.4-1.4l7.45-.3q.5.1.6.55 3 11.7 4.1 13.8 1.6-.35 13.15-5.7"/><path fill="#0d131a" d="M154.65 44.15q-7.95-3.5-17.4-4.3Q126 38.9 116.7 42.4q-6.95 2.6-12.2 7.5-5.35 4.95-8.6 11.9 7 4.85 15 6.3 7.9 1.4 15.85-.65 8.75-2.25 16.15-8.4 7.4-6.2 11.75-14.9m-16.8-6.6q10.2 1.05 18.3 5.35.9.45.35 1.65-4.5 9.4-12 15.8t-16.8 8.8q-8.4 2.15-17.05.5-8.7-1.7-16.05-6.95-.55-.4-.3-1.1 2.75-7.3 8.55-13 5.75-5.65 13.2-8.45 10.1-3.8 21.8-2.6m-42.4 1.5q0-12.8-6.2-23.95-5.4-9.7-12.1-13.1-4.05 5.55-6.25 12.2-2.2 6.6-2.2 13.3 0 6.85 2.25 13 2.45 6.7 7.55 11.4 5.05 4.6 11.25 6 .35.1-.2.8l-.9.65q-6.6-1.45-11.9-6.4-5.3-4.9-7.95-12.1-3.6-9.95-1.75-20.7 1.9-10.95 9-19.8.45-.55 1.1-.25 10.9 4.55 16.8 19.35 6.35 15.85 1.65 32.4-.15.5-1.7 1.2 1.55-6 1.55-14m2.35 131q-.35-.2.15-.95.45-.75.8-.55 8 4.4 24.7 7 16.05 2.5 22.45.9 1.25-.3 1.7-.75 1.5-2.5 1.75-6.2.2-3.7-1-6.1-.95-1.95-2.55-2.1-.35-.05-.4-.75-.05-.75.3-.7 3.05.3 4.25 2.75 1.45 2.9 1.4 7.1-.05 4.35-1.75 7.2-.65 1.05-2.8 1.55-7.4 1.8-22.25-.3-16.7-2.35-26.75-8.1"/><path fill="#0d131a" d="M104 127.35q-.25-.1.1-.95.35-.8.65-.7 13.6 5.55 19.5 18.7 3.05 6.7 3.75 15.25.25 3-.8 3.7-1.15.75-8.9-.75-8.4-1.65-13.3-4.25-.3-.15.1-.95.35-.8.7-.65 6.9 3 20.2 4.9 0-7.25-3.9-15.8-5.95-13-18.1-18.5"/><path fill="#0d131a" d="m138.8 163.3 2.85.2 3 .1q-.75-7.3-3.65-12.75-3.1-5.8-9.05-10.45 2.65 4.75 4.5 10.45 2.2 6.75 2.35 12.45m-34.85-40.8q-.35-.05-.2-.8.15-.7.5-.65 3.8.7 9.3 3.3 9.75 4.5 15.25 11.65 8.9 4.55 13.45 12.7 4 7.05 4.15 15.65.05.45-.3.7-1.15.8-8.15-.05-.7 0-.8-.8-1.2-9.05-3.65-15.3-2.2-5.5-6.65-11.7-4.55-6.3-13.9-11.05-6.45-3.3-9-3.65m26.9 69.8q6.65-7.4 7.95-14.65.1-.35.95-.2.9.2.85.55-1.45 7.95-8.55 15.95-7.3 8.2-17.4 12.8l-.05-2.55q9.45-4.4 16.25-11.9m-90.75-8.15 1.2.1q13.35 19 37.45 23.1l.2 2.75q-14.85-2.75-25.55-10.55-8.05-5.85-14.1-14.9-.2-.35.8-.5"/><path fill="#0d131a" d="m26.85 180.95.95-.1q.85.3.75.65-3.2 10.35-1.45 22.95 1.7 11.95 6.35 17.4.4.6 2.4 1.05l5.55.6 7.2-.3q2.95-.4 3.4-.95 1.45-1.7 3-5 3.1-6.6 3.7-14.75 0-.35.9-.3.9.1.85.45-.55 7.25-3 13.7-1.9 4.95-3.95 7.35-1.65 1.9-12.2 1.6-7.95-.25-9.35-2.1-4.8-5.6-6.65-17-2.1-13 1.55-25.25M81 219.1q.65 1.75.2 1.8-7.7.15-10.05-1l-.3-.25q-2.1-2.5-3.5-7.25-1.3-4.3-1.3-7.6-.05-.35.85-.25.85.1.95.45 1.45 10.2 4.15 13.65l4.3.6zm62.65-41.45q-.15-.35.65-.7l.95-.1q6.4 11.45 5.25 27.75-.95 13.9-5.1 18.7-1.65 1.95-9.45 2.55-7.85.6-11.45-.95-2.4-1-5.2-6.9-3.2-6.75-3.65-14-.05-.35.85-.5.85-.1.9.25.95 6.85 3.55 12.9 2.35 5.45 4.25 6.6 3.7 1.2 10.9.65 6.9-.5 7.95-1.75.6-.7 1.75-4.5 1.5-4.95 2.2-10.4 2-16.5-4.35-29.6"/><path fill="#0d131a" d="M110.65 181.3q-.4-1.25.1-1.45.55-.15 1.05 1.1 4.8 11.45 3.1 26.3-1.7 14.7-8.6 22.75-1.65 1.9-9.75 1.75-7.8-.15-11.4-1.7l-.3-.2q-5.3-5.85-6.6-17.95-1.45-13.05 3-25.1.45-1.25.8-1.05t.05 1.5q-2.15 9.75-2.15 16.2 0 7.85 1.55 14.55 1.65 7.15 4.5 10.2 3.55 1.4 10.95 1.4 7.15 0 8.1-1.1 5.75-6.75 7.6-20 1.95-14.15-2-27.2"/><path fill="#0d131a" d="M77.05 189.4q-.1-1.4.25-1.5.4-.1.7 1.3.6 2.65 2 4.45.25.3-.3 1.1-.5.8-.75.5-1.75-2.25-1.9-5.85m-23.7 16.85q.4-.35.6-.35l.55.5 3.4 4.95q.2.25-.2 1-.35.7-.5.45l-3.35-5.5q-2 2.65-7.85 8.45l-.5.3q-.2.05-.6-.3-5.85-5.4-8.95-9.35L30 213.65q-1 1.2-1.3 1.2-.25 0-.55-.65-.3-.6-.15-.8l2.65-3.1q2.55-3 4.65-5.05l1.1-.05 3.7 3.6 5.35 5.35zm14.75 5.9 5.15-5.45q.15-.15.6.3l.35.55-4.95 5.55q-.2.25-.75-.25-.6-.45-.4-.7m35.35 8.55 5.15-4.7 4.2-3.95q.2-.2.6.5.35.7.15.9-9.25 8.85-10.15 8.85l-1.05-.7-3.55-3.8-4.45-5.05-2.85 4-3.6 4.65-1 .75q-1.1 0-8.15-9.3-.2-.2.4-.65t.8-.25l3.2 4.2 3.65 4.45 3.5-4.65 3.05-3.95.8-.65q.45-.1 1.15.6l4.8 5.15zm40.05-10.95 2.5-3.1q.45-.5.85-.5.6 0 2.1 1.7l-.75 1.35-1.25-1.8-2.25 3.3-2.75 3.5-1.1.7q-.4 0-1-.45l-3.8-3.6-2-2.25-1.55-1.75-3.7 5-3.05 3.4q-.55.55-1 .55-.25 0-.8-.35l-3.4-2.6-3.4-2.5q-.25-.2.1-.95.35-.8.6-.6l1.25 1.1 2.35 1.95 3.25 2.5 2.55-3.4 4.1-4.85q.65-.7 1.05-.7.35 0 .95.55l3.8 3.65 3.65 3.55zM54.15 73.6q6.3-1.6 13.55-1.5 7.05.1 11.85 1.65 1.6.55 1.45 1.1t-1.85.2q-5.3-1.15-11.2-1-6.3.1-12.3 1.65-16.2 4.15-31.9 15.15-16.55 11.65-19.9 22.7-3.55 11.7 1.2 27.9 3.8 13.15 10.6 22.75 2.05 2.85 3.75 4.35 1.25 1.15 1.9 1.2 3.4.15 10.1-5.3 4.75-3.85 8.8-8.4.4-.4.9-.25 8 1.9 17.2 1.6 9.25-.3 16.25-2.7.35-.1.4.75.1.9-.25 1-7.7 2.9-15.4 3.3-8.6.5-18.1-2.1-2.55 4.1-7.55 8.3-6.8 5.65-12.4 5.6-1.55 0-4.15-2.25-2.3-2-4-4.4-6.8-9.65-10.6-23.55-4.55-16.75-.85-28.95 3.2-10.55 20.05-22.8 16.45-11.95 32.45-16"/><path fill="#0d131a" d="M29.65 166.1q.2-.35.7-.1t.35.6q-.95 1.9-.15 4.05 1.2 3.15 6.05 5.2.4.2-1.15.45l-2.1-.05q-3.05-1.9-4.1-4.7-.95-2.6.4-5.45"/></svg>