<svg xmlns="http://www.w3.org/2000/svg" width="315" height="370" viewBox="-0.2 -0.35 315.2 369.65"><path fill="#6db17f" d="M22.4 176.8q-7.05-15.25-7.4-23.6 11.6 27.45 34.75 43.95 19.1 13.55 41.25 16.9 14.35 2.15 37.4-.1l36.45-4.65q14-1.75 26.65-.1 7.85 1.05 16 3.6 9.4 3 16.1-.75-1.25 3.25-1.1 4.65.2 1.95 2.7 3.85 14.35 11 25.3 17.05 12.85 7.1 25.25 9.8 8.35 1.85 16.05.5 8.35-1.45 11.65-6.1l.6 8.9q.15 5.45-.2 8.35-.45 3.75-.85 5.1-.85 2.65-3 4.9-2.75 2.85-6.9 5.7-4.85 3.3-10.25 5.65l-3.25 1q-1.55.1-2.25-1.35l-4.75-9.4q-10.55-.95-16.9-2.9-7.05-2.15-15.55-7.3 1.05-11.3-10.95-19.4-1.7-1.15-2.95-1.35-1.65-.25-3.75.7-2.1.9-18.35 10.05l-.45 2.9q2.9 3.5 8.75 9.3 7.8 7.75 13.4 11.65-10.35 3.1-26.35 4.1-1.1 5-2.65 14.8-1.7 11-2.15 17.25-13.85 14.8-35.1 15.1-7.85.1-14.2-3.3-5.9-3.2-14.45-11.7 1.45-6.65 4.8-17.7 3.05-9.95 6.45-19.65-14.95-2.8-37.15-14.3Q83.4 247.7 71 236.7q-1.3 4.2-2.8 11.65-1.55 7.8-2.15 13.3Q60.65 267 52 269.3q-7.5 2-16.8 1.6-7.95-.35-15.75-5.65-6.75-4.65-11.7-11.65 3.4-14.55 12.15-30.65 7-12.9 15.8-24.05-6.5-7.4-13.3-22.1"/><path fill="#fccf00" d="M256.25 129.05q10.3 5.25 20.85 17.45 10.35 12 18 27.2 8 15.9 10.75 31 3.05 16.55-.85 29 2.25 9.5-9.1 13.5-9.85 3.5-19.4 1-14.65-3.8-30-12.95-8.6-5.1-21.3-14.7-2.45-1.8-2.5-3.95 0-1.4 1.4-5.3-4.15 3.65-12.25 2.45l-13-3.2q-14.6-3.4-36.75-.65l-20.85 2.8-25.15 2.35q-33.9 1.75-59.4-13.25-21.55-12.65-35.85-36.5-12.1-20.15-13.9-45.65-1.6-22.3 4.75-40.6 1.05-3.05 3-2.95 1.7.15 2.8 2.3 2.8 5.2 10.4 12.05 5.9 5.35 11.65 9.1z"/><path fill="#fff" d="M247.3 235.95q3.6 2.75 10 5.7 5.9 2.7 11.55 4.4-.05 4.7-4.6 8.45-5 4.15-10.7 1.95-5.55-2.1-6.9-9.25-1.05-5.75.65-11.25"/><path fill="#009f50" d="M244.2 21.15q5.05-3.9 7-2.75 1.95 1.1.35 7.85-1.35 6.05-4.6 13.2 11.9-6.55 14.9-4.25.95.8-.45 3.8-1.3 2.75-3.7 5.7 2.1-1 3.2-1.15 1.55-.15 2.85.9 1.3 1.1-.2 4.35-1 2.2-4.2 7 11.45-3.5 19.05-3.4 7.3.05 9.35 3.3 1.8 2.85-2.65 8.7-3.85 5-11.35 11.05l6.85-.2q3.05.15 3.25.8.2.7-1.3 2.2l-3.8 3.05q5.05.65 8.75 2.4 3.55 1.65 3.45 3-.25 2.1-7.35 3.5 6.5 1.6 12.35 5.55 6.4 4.35 6.05 7.95-.35 3.75-9.85 6.35-9.1 2.5-18.4 2 3.4 3.65 5.75 7.3 2.65 4.1 1.85 5.05-1.25 1.4-6.05-.8-3.45-1.55-8.2-4.7 3.25 9.05 2.65 13.7-.5 3.75-3.15 3.55-2-2-5.6-4.4l-5.5-3.45q-16.6-20-42.9-37.15-2.4 4-9.75 10.55 5.7-1.35 7.65-1.6 4.6-.55 6.2.95 2.25 2.05-2.15 6.95-2.25 2.5-7.95 7.2 5.95-1.3 10.25.15 4.1 1.45 4.75 4.7.6 2.9-3.3 5.75-3.15 2.35-8.35 4.1 6.05 3.65 5.8 5.75-.1 1.1-2.85 1.8l-5.3.45q3.85 4.05 6.05 7.45 2.5 3.85 1.6 5.1-1.45 2.05-9.35.95-3.7-.55-13.7-2.85l1.4 2.25q.4 1.05-.4 1.9-1.35 1.5-12.1-2.15 5.15 6.7 8.5 14.2 3.25 7.3 2 8.9-1.1 1.4-5.2-.25-2.8-1.1-8.3-4.25 1.5 2.65 2 4.85.55 2.5-.6 2.9-1.85.65-6.65-2.7-4.25-2.95-7.75-6.75-6.1 5.5-12.55 4.6-4.5-.6-8.1-3.85-9.65 5.25-19.75 4.25-9.45-.95-17.35-7-5.75 4.3-12.3 3.6-4.8-.55-9.3-3.65-6.35 8.8-8.75 7.8-1.25-.55-1.25-3.65 0-2.75.95-7-3.55 3.5-6.95 5.9-4.6 3.2-6.25 2.2-3.2-1.9 1.5-12.1-10.8 6.4-20.95 7.9-8.85 1.3-10.3-1.4-1.15-2.3 1.9-7.35 3.2-5.3 8.6-9.4l-10-.35q-5.45-.65-6-2.55-1-3.65 6.4-8.6 6.75-4.45 15.8-7.25-4.1-1.3-5.7-2.1-2.5-1.25-2.5-2.75 0-2.6 10.25-4.3-7.45-4.05-12.95-8.85-6.05-5.25-5.95-8.35.1-3 7.9-3.9l14.1.4q-7.95-7.7-7.4-10.05.35-1.55 4.2-1.55 3.45 0 8.35 1.2-6.15-7.25-9.85-14.35Q46.45 66.3 49 63.4q2.9-3.25 12.05-.35 9.45 2.95 17.7 10.1-2.1-5.15-2.8-7.7-.9-3.45 0-4.3 1.4-1.35 12 7.5-4.45-6.85-6.15-17.5-1.7-10.45 1.15-11.85 2.7-1.35 9.4 4.3Q99 49.2 103.7 56.65q-1.5-5.5-.35-6.1.9-.5 4.25 3.5-.35-2.4-.35-4.4 0-2.3.6-2.6t2 1.45l2.65 4.05q-.75-22.15 6-23.85 4.65-1.15 10.5 8.8 5.7 9.6 8.2 21.8.55-3.5 2.15-6.9-2-3.85-2.8-6.9-.85-3.4-.05-4.85l6.3.15q5.1 1.55 9.3 4.25-1.05-2.35-1.4-4.45-.35-1.9.05-2.45l2.4.2q1.9.6 3.7 1.7-2.75-7.1-3.75-13.6-1.25-8.2 1.65-9.4 3.95-1.6 10.7 4.6 6.2 5.7 11.9 15.15-.2-3.75.2-6.15.3-2.2.95-2.5.65-.35 2.25 1.45t3.7 5.35q-.7-7.5.95-13.5 1.4-5.3 3.35-5.75 1.55-.35 3.3 2.4 1.4 2.15 3.15 6.6 1.75-8.8 3.85-14.4 3.3-8.8 7.05-8.9 4-.15 8 8.15 3.5 7.25 5.4 17.15.6-3.4 1.65-5.65.95-2.2 1.8-2.4.75-.2 1.8 2.55.95 2.5 1.45 5.35 2.2-3.15 4.65-4.95 2.6-1.9 4.15-1.2 1.45.6 1.25 3.65-.15 1.9-1.25 6.15 4.65-5.55 9.2-9.05"/><path fill="#d3965c" d="M269.5 125.9q4.55 5.2 6.9 12.1 1.7 5.05 2.1 10.55-7.1-8.35-11.9-12.4 2.6-.25 3.1-3.5.3-2-.2-6.75"/><path fill="#fccf00" d="M303.45 241.8q1.35-1.55 1.8-4.4.4-2.4.1-4.6 5.9 1.25 8.65 2.4-.6 2.5-3.55 7.75-3.1 5.55-6.3 9.5.1-3.6-.7-10.65m-54.05 35.8q4.35 3 11.4 4 5.65.8 9.4-1.85 2.35-1.65 4.85-5.6l2 4.6q-1.55 2.75-4.6 4.7-2.45 1.55-5.35 2.3-8.3 2.25-21.45-1.8-21.4-6.5-41.95-30.6l.45-2.9 10.2-5.55q7.1-3.9 10.65-5.45 9.55 2.9 13.25 11.2 3.3 7.5.3 14.35 5.65 8.95 10.85 12.6"/><path fill="#fccf00" d="M265.5 286.05q4.45-1 7.1-2.8l4.3-3.9q.95 1.75 2.15 1.95l2.4-.4q3.1-.9 8.5-4.35 5.25-3.35 9.1-6.8 1.2 5.15 6.2 18.7-2.35-1.7-3.25.25-.55 1.15-.75 4.85L298 289.5q-1.45-1.45-2.85-1.3-1.4.1-3.15 4.45-1.55 3.9-2.25 7.9-2.95-1.65-4.3-2.15l-3.55-.15q-1.4.85-3.2 4.6-1.85 3.9-1.15 5.1-8.65 1.6-18.45-.25-6.85-1.3-12.6-3.9-3.5-1.6-4.5-3.95-.5-1.2-.5-4.3 0-2 1.35-12.4 15 4.6 22.65 2.9m-136.3 57.5q-1.7-4.2-1.05-14.3.6-9.35 2.8-18.7 6.95 7.55 12.15 10.65 7.15 4.25 16.5 4.35 9.95.1 19.3-4.05 8.9-3.95 15.8-11.05-.6 6.95 3.8 29.7-1.6-.05-3 2.5-1.05 1.95-1.75 4.9-3.7-5.55-5.5-7.4-1.95-2.05-3.75-1.85-1.7.2-4.9 6.4-2.95 5.65-4.75 11.25l-3.75-3.35q-2.15-1.65-3.65-1.55-1.55.1-4.6 4.2-2.85 3.85-3.6 6.15-11.6.15-20.7-6.65-7-5.2-9.35-11.2"/><path fill="#fff" d="M180.5 343q2.55-4.2 4.3-4.75 1.35-.45 4.1 2.5 2.35 2.6 4.7 6.55 1.6-6.25 4-6.95 1.7-.5 3.4 1.6 2.1 2.55 3.05 5.2.85 2.4.35 3.75-.45 1.2-2.9 2-2.15.75-5.2.95-.25 2.85-2.3 5.85-1.85 2.7-3.7 3.55-2.55 1.15-12.85-1.15-2.5 2.8-5.25 4.45-2.4 1.45-4.05 1.5-1.65.1-5.2-2.6-3.7-2.7-3.65-4.3.05-1.95 3.65-6.05 3.35-3.85 4.5-4.05.9-.2 3.25 1.4 2.2 1.5 4.15 3.5 2.55-7.9 5.65-12.95m125.8-53.6q3.35 3.1 3.4 5.7 0 1.3-1.6 2.55-1.4 1.15-3.6 1.9.5.85.45 2.2-.05 1.15-.45 1.85-.8 1.5-4.8 1.65-3.8.15-7.95-.9-.2 2.05-.85 3.25-.65 1.15-2.05 2t-6.25 0q-4.9-.9-5.35-2.15-.35-1.05.95-3.7l2.45-4.45q.9-1.75 4.2-.95 1.65.4 5.25 2 .8-5.65 2.4-9.1 1.25-2.6 2.45-3.1 1.55-.6 6.25 5.2-.15-5.45 2-5.6 1.25-.05 3.1 1.65"/><path fill="#ed8599" d="M252.85 266.65q8.15 2.7 15.8 3.8 1 1.75 1.45 4.65.35 2.6.1 5-2.65 1.65-6.8 1.65-9 0-15.35-4.95-4.55-3.55-9.95-11.95.95-1.15 2.05-4.4 3.75 3.2 12.7 6.2"/><path fill="#922f00" d="m268.55 270.5 4.1.5 2.35 3.25q-1.85 3.6-4.65 5.5.6-2.5-.05-4.95z"/><path fill="#d3965c" d="m208.45 96.15 4.15-5q29.5 17.45 49.1 45.55 19.05 27.35 21.05 53.6.15 2.8-1.65 3.4-2 .65-4.25-2.8-12-18.45-26.35-34.35-17.85-19.75-33.9-29.15 5.75-4.2 4.9-7.85-.75-3-5.05-4.1-4.35-1.15-10.85.1 7.35-5.15 10.2-8.9 2.65-3.5 1.2-5.35-1.3-1.65-5.75-1.3-3.5.3-8.4 1.7 2.7-2.25 5.6-5.55m-17.7 71q-2.7-6.8-9.25-16.5 8.05 3.05 10.65 2.55 2.5-.5.35-4.15 9.8 6.05 15.75 12.65 4.85 5.35 6.6 10.45.9 2.5-.25 3.5l-3.25-.1q-9.35-4.7-20.6-8.4"/><path fill="#fccf00" d="M1.9 289.15q-1.05-5.2.65-15.2 1.6-9.65 5.2-20.35 4.85 7.45 12.95 12.35 7.6 4.55 14.95 5.2 7.9.65 15.05-1.3 8.55-2.35 15.35-8.2-.5 3.35.65 12.5l1.65 11.9.55 6.9q-.05 3.75-1.65 5.9L63.9 297l-2.95-.25q-1.3.25-2.4 3l-1.9 5.6q-6-10.2-10.15-10.05-1.7.1-5.1 4.9-2.05 2.75-6.05 9.35l-5.15-4.65q-2.15-1.8-3.35-1.85-1.35-.05-4.35 2.25-3 2.35-4.5 4.6-12.65-3.45-16.1-20.75"/><path fill="#008c46" d="M211.6 100.15q4.5-.25 5.15.9 1.05 2-.1 4.25-2.05 4-10.65 10 5.6-1.1 10.3.1 4.9 1.25 5.45 4.15 1.15 6.25-11.25 10.35l3.8 3.05q1.95 1.8 1.45 2.85-.55 1.15-3.05 1.85l-4.45.4 5.1 7q2.7 4.05 2.15 5.1-.9 1.6-4.8 1.6-5.65 0-18.35-3.1 1 1.55 1.15 2.75.15 1.15-.5 1.65l-4.1-.25q-3.4-.7-7.65-2.15 3 3.8 6.35 9.9 3.25 6 4.4 9.75 1 3.2-1 3.85l-3.75-.35q-1.55-.55-4.65-2.3-2.95-1.7-4.6-2.95l1.85 5.1q.7 2.5-.25 3.15-1.15.8-4.95-1.6-4-2.55-9.15-7.55-4.35 3.95-10.1 4.4-6.3.5-11.15-3.75-8.95 4.75-18.05 4.4-10.05-.45-18.85-7.15-3.5 3.25-9.6 3.5-6.6.35-12-3.4-6.3 8.2-8.4 7.9-1.15-.15-1.4-3.75-.2-3.35.4-6.5-4 3.4-7.4 5.5-4.3 2.7-5.6 1.85-1.35-.9-.95-4.5.45-3.5 2.35-7.5-5.75 4.35-17.05 7-11.85 2.75-14.2-.5-1.7-2.25 2.6-8.45 3.95-5.8 8-8.3-14.4.45-16.1-3.6-1.3-2.95 6.85-8.25 8.45-5.5 17.7-7.15-1.4 3.7.5 7.7 1.9 3.95 4.85 3.95 2 0 3.1.75 1.15.75 1 2-.15 1.4 1.95 1.4 2.25 0 4.05-1.8 1.85-1.85 4.35-1.8 2.3.05 3.15 1.55 1.4 2.45 5.35 2.8 4.95.5 3.9 3.45-.8 2.1.05 4.7.9 2.75 2.95 1.3 3.2-2.5 4.75-3.65 2.75-2 3.8-1.7l2.65.75q1.5.35 2.3-.35l2.5-.15q1.5.7.7 2.1-.85 1.55 0 3.15.8 1.65 2.35.7 1.25-.75 2.75-.55l2.4.15q1.3-.35 2.05-2.6.75-2.3.1-4.05l-.8-2.35q0-.45 1.9.4 2.6 1.25 4.65 1.25 2.8.05 5-2.1 2.45-2.5 6.25-2.5 3.85 0 5.1 2.7 1.3 2.8 2.65 3.7l3.15-.05q1.6-.9 2.65-.8l3.15 1q2.15.8 4 .05 1.7-.65 2.4-2.2.65-1.5 2.2-2.9 1.65-1.45 3.15-1.8 1.55-.3 2 .3.45.55-.25 1.4-.75 1 .3 2.95 1.15 2.15 3.35 2.45 2.8.35 5.8-1.45 3.2-1.95 1.25-3.95-1.45-1.5-1.1-3 .3-1.5 2.2-2.15 3.8-1.25 11.35-1.25 1.4 0 1.45-1 0-.9-1-1.6-1.65-1.1.05-2.8t4.2-1.5q1.9.2 3.1-.85 1.2-1 .55-1.9-.45-.6.65-1.45t2.15-.9q2.25-.15 3.25-1.75 1.1-1.65.2-4.05-1.15-3-4.1-4.3-1.15-.5-1.3-1.65-.1-1.2 1.1-2.2 1.8-1.5 2.9-4 1-2.2 1.15-4.35l4.05-2.95q4.7-1.2 8.75-1.5m33.6-7.45q3-2.7 11.3-.3 4.65 1.4 7.25-2.6 2.55-3.95-.25-7.25-1.65-2 1.7-3.95 2.75-1.65 7.15-2.4l1.75-1.05q2.6-.2 5.85 0 3.55.2 3.9.75t-1.25 2.25L279 81.3q5.15.55 8.8 2.4 3.3 1.65 3.2 3.1-.1 1.2-2.15 2-1.6.65-5.6 1.35 6.25.9 12.85 5.65 6.75 4.85 5.75 8.25-1 3.5-10.75 6.15-9.8 2.7-17.75 1.6 3.2 3.05 5.9 7.15 2.9 4.4 2.1 5.45-1.05 1.45-6-.8-2.6-1.2-8.25-4.55 1.55 3.3 2.3 7.7.7 4.25.2 6.65-.4 2.2-1.55 2.75-1.05.45-2.2-.6-5.4-4.95-10.85-7.75-4.45-5.95-10.1-11.45l-10.8-9.7q2.35-.05 3.8-1.4 1.3-1.2 1.25-2.75-.05-1 .75-1.2.7-.2 1.45.25 1.6.95 2.35.4.55-.5.4-1.9l-.35-4.05q.15-2.1 1.45-3.3"/><path fill="#ad7b49" d="M220.5 96.8q-1.25 7.65 1.8 17.15 3 9.2 8.55 15.45l8.65 8.9q7.5 7.6 12.9 13.85 17.6 20.35 25.3 39.4-13.65-19.5-23.75-31.15-19.75-22.8-37.75-32.7 2.7-1.55 4.15-3.5 1.7-2.25 1.15-4.3-.7-2.7-3.3-3.95-3.7-1.7-11.6-1.05 5.85-4.25 8.7-7.65 3.3-3.95 1.8-5.95-1.35-1.9-6.35-1.3-2.75.3-7.9 1.65 2.15-1.5 5.2-4.8 2.85-3.05 4.45-5.45 3.6 1.75 8 5.4m-20.2 58q-.4 4.1.8 8.15 1.7 5.75 6.4 10.15-2.95-1.35-8.6-3.35l-8-2.7-4.6-8.75q-3.25-5.85-5.05-7.65l7.05 2.05 4.7.35q1.2-1.15-.1-3.85 2.45 1.3 7.4 5.6"/><path fill="#5e9a6e" d="M120.6 231.05q19.25 4.8 36.9 4.5-3.35 4.65-7.7 15.65-3.75 9.45-7.6 22-16.3-4.55-35.6-13.8-23.35-11.25-35.6-22.7l1.65-6.15q.8-2.9 1.55-4.65 2.35-1.55 4.6-4.75 2.5-3.6 3.2-7.1 15.35 11.25 38.6 17M16.35 156.4q4.1 8.95 9.7 16.7 6.25 8.6 15.95 17.95l-6.15 8Q28.9 191.4 22.8 177.2q-5.5-12.65-6.45-20.8M199.3 278.5l2.35-12.25 2.15-12.55q2.45 3.25 9.05 9.7 6.95 6.85 11.85 10.6-5.55 1.85-13.55 3.15z"/><path fill="#dab300" d="M280.95 281.35q3.85-1.35 9.45-4.95 5.85-3.7 8.45-6.6 1.25 2.45 3 8.5-4.9 5.65-6.5 9.5-1.35.6-2.7 3.1-1.8 3.4-2.8 9.25-3.7-1.7-5.6-1.95-3.15-.4-4.4 2.1-1 2.05-1.75 4.3-.85 2.7-.6 3.55-16.55 2-31.4-4.75-2.85-1.3-4.1-3.85-1.1-2.15-.95-4.9.05-1.8.7-5.9l.8-5.85q5.65 1.95 11 2.95l8.3.75q5.5-.3 8.65-1.85 3.3-1.6 6.55-5.8.7 1.45 1.3 2 1.05.95 2.6.4"/><path fill="#5e9a6e" d="M67.7 250.05q-1.4 7.3-1.7 11.5-2.95 3.35-8.7 5.8-3.8 1.55-8.15 2.5 6.55-6.55 12.1-14.75 6.25-9.2 9.75-18.4-1.75 5.25-3.3 13.35"/><path fill="#dab300" d="M2.65 290.95Q.45 279.85 4 267.9q4.45 9.1 14.55 12.3 9.9 3.15 18.8-1.15 4.95-2.35 11.8-9.2 6.4-1.05 10.9-3.6 2.95-1.7 5.95-4.7-.05 5.1 2.25 23.1l.8 7.85q0 4.25-1.95 6.05-3.85-2.7-6.1-1.75-1.05.4-2.2 2.75-.9 1.75-2.3 5.6-2.3-4.25-4.95-7-2.8-2.85-4.8-2.85-1.85 0-5.35 4.7-2.35 3.1-6.15 9.3l-4.35-3.95q-2.85-2.3-3.9-2.3-1.15 0-4.45 2.5-3.1 2.35-4.85 4.35-12.2-4.6-15.05-18.95m261.9-4.65q-13.2.95-27.15-5.45-18.6-8.5-33.7-28.45 12.65 9.6 21.55 14.75 11.75 6.8 23.05 9.8 4 3 9.25 4.2l6.9.6q7.35-.35 10.45-7.5l2.4 5q-1.95 2.6-5.55 4.65-3.75 2.15-7.2 2.4"/><path fill="#dbdcdc" d="M300 292.4q-1 1.25-1.4 5.8-.35 3.95-.1 7.35-4.35-.5-6.65-1.35-.15 2.45-1.4 4.1-1.5 2-4.25 1.85l-5.45-.6q-2.55-.55-3.15-1.75-.95-1.85 2.25-7.5.65-1.2 1.85-1.8 1.3-.65 2.5-.3 3.3 1 5.4 2.2 3.2-12.1 5.35-12.25 1.35-.15 2.6 1 1 .95 2.45 3.25M66 309.55q-.8.5-3.25.55l-4.65-.3q-.6 3-2.95 5.7-2.5 2.8-5.4 3.4-2.85.55-6.85-1.1-3.65-1.55-7.15-4.4l-4.35 3.3q-3.35 2.05-5.65 1.75-2.45-.35-5.3-3.75-2.7-3.2-2.5-4.65.2-1.2 4-4.15 3.8-2.9 5.05-2.85 1.8.1 8.45 6.5 3.25-6 5.45-9.1 3.45-5 5.6-5.15t5.55 3.75q2.5 2.85 4.65 6.65 2.65-8.35 4.65-9.15 1.25-.5 4.25 1.3 3.05 1.8 3.65 3.35.6 1.5-.65 4.6-1.2 2.95-2.6 3.75"/><path fill="#5e9a6e" d="M274 272.25q4.8.45 12.1-1 9.5-1.9 16.85-6.3-5.95 8.7-21.75 15.95-1.35.65-2.2.45-1.05-.25-1.8-1.75-1.45-3.05-2.25-4.1z"/><path fill="#ce7486" d="M254.6 267.15q7.3 2.5 14.1 3.6 1.65 3.3 1.65 7.3-4.15-4.1-13.75-6.65-8.45-2.2-14.85-1.85-1.7-1.85-3.5-5 1-1.7 1.75-4 6.5 3.8 14.6 6.6"/><path fill="#0d131a" d="m272.35 111.85 2.2.25 4.45 5.4q2.55 3.5 3.25 5.25.7 1.8.2 2.55-.5.9-2.55.7-2.3-.25-5.95-2-3.9-1.95-6.75-4.45l-.8-2.05q3.3 2.65 7.2 4.65 3.95 2 5.9 2l1.05-.25q.25-.3-.05-.95-.65-1.5-3.3-5.15-2.8-3.9-4.85-5.95m-8.55 132.6q0 1.55-.5 3.25-.7 2.65-2.5 4.45-1.95 1.9-4 1.45-1.95-.45-3-2.8-.95-2.15-.75-5 .2-3.05 1.4-5.8z"/><path fill="#fff" d="M260.1 242.95q.7.15 1.05 1.05.3.85.15 1.95-.1 1.1-.7 1.95-.6.8-1.25.7-.7-.15-1.05-1.05-.3-.9-.15-2 .1-1.1.65-1.85.55-.85 1.3-.75"/><path fill="#0d131a" d="M265.55 116.55q.45-.25 1.45 1.4 2.35 3.75 3.25 8.6.75 4.2.25 7.85-.25 1.6-1.35 2.2l-2.55.15-1.75-1.75 2.6.15q.85-.35 1.1-1.95.45-3 .05-6.55-.6-4.7-2.55-8.15-.95-1.7-.5-1.95m14.1-26.1q-1.8-.15-1.75-.65t1.85-.5q6.8.05 12.95 3.3 4.95 2.6 8.05 6.3 5.1 6.05-1.05 9.3-5.6 2.95-13.1 4.2-8.7 1.5-15.7-.3-1.4-.35-1.3-.85t1.5-.25l15.3-.5q6.8-1.45 12.35-4.35 2.1-1.1 2.1-2.5 0-1.35-1.9-3.6-2.95-3.5-7.4-5.95-5.45-3.05-11.9-3.65"/><path fill="#0d131a" d="M278.45 81.95q-1.45-.15-1.35-.65.05-.55 1.5-.5 3.55.1 6.95 1.2 2.95.9 4.75 2.2 2.15 1.55 2.15 2.9 0 1.15-1.5 1.9-2.75 1.4-6.6 1.5l-1.6-.85q4.45-.75 6.45-1.85.8-.45.6-1.15-.15-.7-1.1-1.3-4.35-2.8-10.25-3.4"/><path fill="#0d131a" d="m274.55 74.9 4.45-.5 3.35.1q1.95.2 2.6 1 .7.8-.45 2-2.2 2.2-5 3.9l-1.55-.2q1.6-1.1 4.85-4.4.3-.3.1-.5l-.95-.35-4.2-.1-4.95.25z"/><path fill="#0d131a" d="M258 55.7q13.15-5.15 25-4 4.85.45 6.25 3.65 1.3 3.1-1.3 7.1-2.8 4.3-6.2 7.6Q278 73.6 272.5 77q-1.25.8-1.5.4-.3-.45.85-1.3 4.8-3.65 8.3-7.4 3.2-3.4 5.95-7.6 1.8-2.75.85-4.85t-4.1-2.35q-12.35-1.1-24.45 2.85-1.55.5-1.75 0-.15-.5 1.35-1.05"/><path fill="#0d131a" d="M263.65 47.05q.55-1.75-1.2-2.5-2-.85-5.2 1.05l1-1.65q3.35-2 5.55-.6 2.05 1.3 1.25 4-1.05 3.45-5 8l-1.85.7q4.4-5.6 5.45-9"/><path fill="#0d131a" d="M258.7 33.7q2.55-.5 3.8.85 1.2 1.35.25 3.6l-1.85 3.55q-1.35 2.15-3.95 4.85-.95 1.05-1.35.75t.45-1.45l3.25-4.65 1.7-3.4q.6-1.3.05-1.9-.55-.65-2.25-.3-3.45.7-6.8 2.1-4.2 1.8-6.75 4.2l1.1-2.15q5.05-4.55 12.35-6.05"/><path fill="#0d131a" d="M248.25 17.65q5.4-3 4.95 3.55-.5 7.3-3.35 13.95-2.85 6.6-9.2 15.05-.85 1.1-1.3.8t.35-1.45q5.9-8.65 8.4-14.9t3-13.5q.1-1.35-.4-1.75-.55-.45-1.55.15-13.25 7.25-17.1 18.5-.4 1.3-.9 1.1-.5-.15-.15-1.45 3.45-12.35 17.25-20.05"/><path fill="#0d131a" d="M235.3 22.7q0-1-.6-1.4-.6-.35-1.25 0-2.15 1.1-4.2 3-1.9 1.8-2.9 3.55-.7 1.15-1.1.9-.45-.25.1-1.5 1.05-2.35 2.85-4.3 1.9-2.1 4.25-3.25 4.65-2.35 4.65 2.75 0 1.3-.4 3.25-.5 2.6-1.55 4.9l-1.7 1.8q1.85-6.25 1.85-9.7"/><path fill="#0d131a" d="M223.65 20.25q-.25-.55-.7-.4-.55.2-.9 1.1-1.7 3.85-1.95 8.35l-.8-2.35q.35-4.7 1.55-7.55.9-2.1 2-2.25t1.9 1.65q1.5 3.05 1.95 7.25l-1.1 2q-.6-4.6-1.95-7.8"/><path fill="#0d131a" d="M210.75 2.4q3.45 3.65 6.3 11.65 2.85 8.05 3.35 15.55.1 1.6-.35 1.7-.5.1-.75-1.5-1.15-7.25-3.95-14.65Q212.4 7.3 209.2 3.9q-1.5-1.6-3.25-1.25-1.85.35-3.1 2.75-3.45 6.6-5.2 12.8-2.45 8.65-2.05 17.65.1 1.8-.45 1.85-.5 0-.7-1.8-1-9.45 1.3-18.3 1.6-6.15 5.25-13.15 2.15-4 4.75-4.4 2.45-.4 5 2.35"/><path fill="#0d131a" d="M192.4 16.55q2.05 3.25 2.85 7.9l-.6 2.75q-1.75-6.2-3.6-9-1.1-1.65-2.05-1.5t-1.95 2.4Q184 26 185.4 38q.2 1.5-.3 1.55t-.8-1.45q-2.45-12.45 1.1-20.4 1.4-3.15 3.5-3.35 1.9-.15 3.5 2.2"/><path fill="#0d131a" d="m178.05 38.4-1.15-1.75q-.4-3.95-.1-6.85.2-2.4 1.55-2.85t2.75 1.5q1.6 2.1 3.25 5.8l.2 2.95-2.3-4.15-2.2-3.35q-.55-.75-1.15-.65-.55.1-.65.9-.45 5-.2 8.45"/><path fill="#0d131a" d="M170.6 25.6q5.5 6.65 8.4 13.7.6 1.4.15 1.6-.45.25-1.15-1.1-3.65-7.15-9.2-13.35-5.95-6.7-10.75-8.3L155.1 18q-.9.55-1.05 2.85-.55 9.3 4.8 21.8.7 1.55.25 1.75t-1.25-1.25q-3.3-6.2-4.9-12.65-1.35-5.55-1.1-9.8.2-3.25 2.1-4.4 1.85-1.15 4.9-.1 5.55 1.85 11.75 9.4"/><path fill="#0d131a" d="M151.5 44.75q-1.45-2.75-1.9-4.7-.7-3.45 2.15-2.95.85.1 2.35.9 1.55.85 2.7 1.8l1 2.25-3.1-2.2q-1.95-1.15-2.75-1.25-1-.1-.7 1.3l.9 3.1q.75 2.2 1.4 3.4z"/><path fill="#0d131a" d="M136.4 47.8q-.9-2.6-1.3-4.75-.75-4.6 3.9-4.2 4 .35 8.25 2.5 4.35 2.2 7.8 5.75.95 1 .6 1.35-.35.4-1.35-.5-4.4-3.85-9.3-5.75-3.25-1.2-6.05-1.4-1.05-.1-1.6.35-.65.55-.45 1.65.85 4.95 2.85 9.25l-.6 1.5q-1.6-2.45-2.75-5.75m49 39.85q-1 .95-1.35.55t.6-1.4q6.15-6.45 15.65-10.2 6.4-2.55 13.65-3.65 3.8-.55 5.6 1.3 1.9 1.95.3 5.9-6.45 16-19.8 24.5-1.7 1.1-2 .7-.25-.35 1.3-1.6Q212.1 93.95 218 79.2q.8-1.95-.25-3.25-1.15-1.35-3.65-1-18.05 2.75-28.7 12.7"/><path fill="#0d131a" d="m179.45 78.95 1.15-1.9q2.75-1.7 5.15-2.45 2.45-.8 5.45-.9 2.35-.1 3.25.95 1 1.05.25 3.25-.65 1.85-2.6 4.05l-2.15.85q2.15-2.65 2.85-4.75.35-1.05-.15-1.85t-1.45-.75q-6.6.25-11.75 3.5"/><path fill="#0d131a" d="M183.65 64.1q1.65 1.2 1.2 4.05-.45 2.65-1.75 5.7-1.5 3.3-3.6 6-.85 1.15-1.3.9-.4-.25.35-1.5 1.7-2.8 2.95-6.1 1.05-2.8 1.45-5.05.25-1.55-.6-2.25l-2.45-.1q-3.3 1.25-6.4 3.75-3.15 2.45-4.9 5.2l1.05-3.1q4.65-5.8 9.8-7.7 2.55-.95 4.2.2"/><path fill="#0d131a" d="M166.25 43.45q4.1-2.05 6.45 2.6 2.3 4.65 1 13.7-1.25 8.8-5 15.7-.65 1.25-1.15 1.05-.45-.2.1-1.5 3.35-7.5 4.25-16 .85-8.3-1.15-12.3-.7-1.4-1.45-1.65-.7-.25-2.1.35-4.1 1.65-9.05 6.4-6.15 5.95-9.45 13.3-.65 1.45-1.15 1.25t.1-1.7q2.9-7.25 8.65-13.35 4.8-5.15 9.95-7.85"/><path fill="#0d131a" d="M146.2 48.65q-.8-2.55-2.35-1.1-2.1 2-4 6-2.15 4.7-2.25 8.85-.05 1.45-.6 1.45-.55-.05-.55-1.5.05-5.05 2.1-9.95 1.75-4.2 3.95-6.25 1.85-1.75 3.25-1.35 1.35.4 2 2.65.8 2.55 1.2 6.3.4 4.15.15 8.4l-1.15 2.9q.1-4.2-.45-9.15-.5-4.65-1.3-7.25"/><path fill="#0d131a" d="M122.25 28.45q5.15 3.5 9.5 12.15 4.35 8.75 5.55 17.95l-.45 3.6q-1.2-9.4-5.9-18.85-4.65-9.45-9.75-12.9-1.65-1.15-3.35-.05-1.75 1.1-2.6 4.1-1.4 5.3-1.85 8.65-.8 6.15 0 12.55.25 1.55-.3 1.6-.5.1-.8-1.45-2.15-11.25.8-22.15 1.1-4.05 3.55-5.6 2.65-1.65 5.6.4"/><path fill="#0d131a" d="M109.2 48.85q-.45-.75-.75-.7-.4 0-.35 1.15 0 3.7.95 7.85.3 1.3-.05 1.45-.4.15-.85-1.1-.6-1.65-1.1-4.1-.45-2.35-.5-3.9-.1-2.5.85-3.25 1-.85 2.7 1.3 1.15 1.45 2.3 4.35l.15 2.85q-1.15-2.55-3.35-5.9"/><path fill="#0d131a" d="M102.25 52.4q-.35-2 .6-2.7 1-.7 2.5.95 1.45 1.7 2.6 3.8l.45 2.6q-1.45-2.45-3.8-5.15l-.85-.5q-.3.15-.15 1.2.4 2.75 1.5 6.3l-1.9-2.75q-.7-1.95-.95-3.75"/><path fill="#0d131a" d="M81.9 38.5q1.35-1.05 3.6-.2 5.5 2.05 11.25 8.25 5.8 6.15 10.1 14.55.55 1.1.1 1.35-.5.3-1.1-.8-4.5-8.1-10.05-13.7Q90.35 42.5 85 40.5q-2.25-.85-2.4 1.6-.4 7.1.8 12.65 1.55 7 6.45 16.2.55 1.1.1 1.35-.5.2-1.1-.8-5.35-9-7.25-16.25-1.6-6.1-1.2-13.2.15-2.55 1.5-3.55"/><path fill="#0d131a" d="m87.2 67.75 1.85 3.4q-4.9-5.1-10.65-8.8-1.1-.7-1.75-.3-.6.35-.4 1.2.4 2.05 1.5 5.2 1.2 3.4 2.5 5.95l-1.8-1.1q-2.85-5.55-3.7-9.95-.5-2.5.75-3.2 1.2-.65 3.3.65 4.7 3 8.4 6.95"/><path fill="#0d131a" d="M52.8 63.05q-2.3.1-3.05 1.35-.85 1.4 0 4.4 1.3 4.9 4.95 11 3.85 6.4 8.7 11.35.95.95.55 1.3-.35.35-1.35-.5-5.2-4.6-9.55-11.4-4-6.3-5.4-11.4-1.15-4.3.15-6.3 1.2-1.85 4.75-2 6.4-.25 13.85 3.2 7.95 3.65 14.5 10.4.85.9.55 1.3-.35.4-1.3-.45-6.95-6.1-14.25-9.35-7.1-3.15-13.1-2.9"/><path fill="#0d131a" d="M50.45 89.1q-2.1.4-.8 2.25l3.7 4.85 3.55 3.95-1.85-.3q-3.65-3.35-6.95-7.6-1.55-2-.85-3.25.6-1.15 2.8-1.5 2.1-.4 4.8-.05t5.1 1.35l2.35 1.95q-2.65-1.05-6.05-1.55-3.5-.5-5.8-.1"/><path fill="#0d131a" d="M54.75 120.75H52.1q-8.95-3.25-17.75-13.2-2.4-2.7-2.05-4.6.35-1.7 2.95-2.95 3.6-1.8 9.3-1.9 6-.1 12.9 1.7 1.15.35 1.05.85-.1.55-1.25.3-6.85-1.3-12.35-1-5.3.25-8.65 1.95-1.5.7-1.5 1.6-.05.9 1.4 2.75 3.1 3.95 7.3 7.45 5.45 4.55 11.3 7.05"/><path fill="#0d131a" d="m48.95 122.05-4.55 1.2q-1.25.45-1.35 1.3t1.05 1.5l3.95 1.8 4.5 1.55-2.55.45q-4.5-.9-6.85-2.25-2.7-1.5-2.25-3.4.35-1.75 2.95-2.7 5.1-1.9 11.5-1.35 1.45.1 1.45.65 0 .5-1.45.5z"/><path fill="#0d131a" d="M53.1 128.8q1.2 0 1.3.5.05.45-1.15.65-5.8.8-12.8 4.3-7.8 3.95-10.8 8.45-1.8 2.7.85 3.45 5.75 1.65 14.35 1.5l-1.35 1.25-13.45-.6q-2.55-.7-3-2.75-.4-1.9 1.05-4.15 3.3-4.95 11.5-8.85 7.6-3.6 13.5-3.75"/><path fill="#0d131a" d="M44.55 147.4q1.1-.65 1.35-.25.3.45-.75 1.2-4.3 3.05-7.15 7.05-2.75 3.8-3.6 7.6-.6 2.95 2.85 3 6.6.1 14.6-2.25 9.85-2.9 16.3-8.3 1.1-.95 1.45-.55.3.4-.7 1.4-5.95 5.8-16.4 9.05-8.55 2.7-15.35 2.55-2.9-.05-4.1-1.5-1.25-1.5-.5-4.35.95-3.65 4.05-7.55 3.4-4.25 7.95-7.1"/><path fill="#0d131a" d="m64.3 159.2 2.1-1.45q-1.5 2.4-2.45 5.35-1 3-.85 4.9.1 1.35.85 1.85l1.8-.15q7.35-4.35 11.55-8.55.9-.9 1.25-.55t-.45 1.35q-4.7 5.9-11.7 9.55-2 1-3.4.3-1.5-.8-1.7-3.25-.15-1.9.6-4.4.85-2.6 2.4-4.95"/><path fill="#0d131a" d="M75.15 172.4q-.35-1.45-.15-4.15.2-2.65.9-4.95l1.7-1.5q-.75 2.5-1 5.5-.2 2.75.15 4.1.2.85.75 1.05t1.3-.5q2.8-2.5 5.3-5.55 2.55-3.1 3.9-5.65.7-1.25 1.2-1 .45.25-.2 1.55-1.5 3.15-3.8 6.2-2.6 3.5-5.4 5.85-1.7 1.4-2.9 1.2-1.25-.25-1.75-2.15"/><path fill="#0d131a" d="m107.2 164.9 1.05.9q-4.35 4.2-11.2 4.2-6.7.05-11.8-3.85l.75-1.25q5 3.4 10.75 3.4t10.45-3.4"/><path fill="#0d131a" d="M103.7 161.55q-.45-.95-.05-1.2.45-.3 1 .55 2.6 3.95 7.1 6.65 4.45 2.75 10.05 3.75 6.45 1.2 12.95-.2 6.45-1.4 11.75-5.2 1.2-.8 1.5-.4t-.8 1.35q-4.9 4.15-11.95 5.9l-13.75.45q-5.95-1.1-10.75-4.15-5-3.2-7.05-7.5"/><path fill="#0d131a" d="m164.6 167 1.25 1.05q-1.95 2.15-4.95 3.55-3.1 1.45-6.2 1.55-3.25.1-6.25-1.1-3.15-1.25-4.95-3.5l1.05-.9q3.95 3.65 10.1 3.5 2.95-.05 5.6-1.15 2.6-1.1 4.35-3"/><path fill="#0d131a" d="M176 166.3q-.55-1.2-.1-1.4t1.15.9q2.95 4.55 4.05 9 .55 2.2-.9 3.1-1.5 1-4.2-.35-2.3-1.15-5.85-4.25-3.8-3.35-6.05-6.35-.85-1.2-.55-1.5.35-.35 1.4.7 2.5 2.65 6.05 5.55 3.55 2.85 5.6 3.85 1.6.8 2.4.45.65-.3.45-1-.7-2.95-3.45-8.7"/><path fill="#0d131a" d="M191 172.8q.65-.7.15-1.85-5.8-14.15-11.4-21.05-.9-1.15-.55-1.45.4-.3 1.4.75 6.4 6.4 12.6 21.35 1.05 2.45 0 3.85t-3.85 1.05q-1.95-.25-5-1.95-3.25-1.75-6.1-4.2l-.8-2 6.4 4q3.4 1.8 5.25 2 1.25.2 1.9-.5"/><path fill="#0d131a" d="M188.55 144.2q-.75-1.1-.35-1.35.45-.3 1.3.7 3.3 3.95 4.8 7.45.75 1.85-.25 2.75-.95.9-3.25.5-4.25-.7-9.05-3.15l-1.6-1.7q5.9 2.3 10.65 3.1 2.6.35 1.7-1.75-.85-2.05-3.95-6.55"/><path fill="#0d131a" d="m206.3 137.6 1.95.25 4.65 5.2 3.25 4.55q1.25 2.1.45 3.45-.9 1.55-4.5 1.75l-8.2-.75q-6.4-1.1-11.25-3l-.65-1.4q5.05 1.5 11.6 2.5l8.2.75q3.95-.2 2.5-2.8l-3.3-4.9q-2.8-3.8-4.7-5.6"/><path fill="#0d131a" d="m213.8 131.7 2.5 2.2q.8 1.15.3 2.35-.5 1.3-2.45 2-3.75 1.35-8.45-.3-1.55-.55-1.4-1.05l1.7-.05 4.45.35 3.05-.55 1.35-.85q.35-.6-.15-1.25l-2.55-2.3q-2.15-1.65-3.75-2.2l1.95-.3q1.45.55 3.45 1.95"/><path fill="#0d131a" d="M211.85 113.85q3.6-.05 6.95 1.45t3.85 4.25q.45 2.65-1.9 5.6-1.9 2.3-5.95 4-4.2 1.75-9.05 2.1-1.3.1-1.35-.4t1.2-.7q4.6-.65 8.4-2.5 3.55-1.7 5.3-3.85 1.7-2.1 1.25-4.1-.45-1.85-2.7-2.8-3.2-1.3-6.3-1.4-3.7-.1-9 1.4l-1.55-.1q-.2-.5 1.2-.95 5.6-1.95 9.65-2"/><path fill="#0d131a" d="M215.15 99.1q2.6.35 3.25 2.15.65 1.7-.6 4.15-2.05 4-10.5 9.6l-2.4.25q4.25-2.85 7.45-6.05 2.8-2.8 3.65-4.55.75-1.6.35-2.6-.4-.95-1.6-1.1l-5.5.15q-4.45.6-7.95 2.05l2.05-1.9q3.25-1.4 7-1.95z"/><path fill="#0d131a" d="m211.85 92.3 1.5-2q27 16.65 45.35 40.25 22.1 28.5 24.85 59.75.3 3.9-1.9 4.9-2.35 1.1-5-2.8-15.1-22.25-29.05-37.2-17.1-18.4-33.4-26.85l3.1-1.45q15.35 8.4 32.35 26.95 14.25 15.55 28.45 36.85 1.2 1.8 2.3 1.6 1-.2.85-1.85-2.45-30.25-24.65-58.55-18.35-23.4-44.75-39.6"/><path fill="#0d131a" d="M274.85 146.3q-9.9-11.25-19.85-17.65l-3.4-5.05q11.4 5.9 23.1 18.4 11.9 12.8 20.05 28.15 11.05 20.9 13.25 37.75 1.6 12.55-1.75 24.65.4 3.15.15 4.95-.4 3.25-2.55 5.95-2.1 2.7-6.15 4.35-4.15 1.75-9.6 2.1-16.95 1.1-39.25-11.55-12.5-7.15-25.85-18.2-1.75-1.5-1.4-4.45.3-2.3 2.1-5.8l1.75 1.25q-1.55 3.1-1.75 4.65-.25 1.85 1.25 3.1 12.65 10.25 25.85 17.6 22.05 12.25 36.8 10.8 10.85-1.1 14.4-5.6 1.55-1.95 2.05-3.65.6-2 .2-4.8-.1-.95.2-2.05 3.5-13.5-.1-29.65-3.25-14.3-11.9-30.1-7.5-13.65-17.6-25.15"/><path fill="#0d131a" d="m8.6 94.4 2-8.95q-4.25 33.85 7.7 61.25 11.75 26.9 37.25 43.8 21.2 14.05 51.15 15.1 16.1.55 48.15-4.05 29.3-4.2 43.85-2.45 16.35 1.95 30.4 12.7 13.35 10.2 22.95 16 9.3 5.6 19.45 9.7 11.1 4.5 20.2 2.8 9-1.6 13.25-8.75l.45 2q-4.45 7.55-13.4 9.2-9.05 1.7-21.4-3-10.1-3.8-20.25-9.95t-22.55-15.9q-12.5-9.85-27.4-12.05-15.9-2.4-45.55 2.05l-22.9 3.15-25.3 1.15q-30.1-1-52.55-15.75-24.3-15.95-36-41.05-11.8-25.25-9.5-57m272.2 86-.2-1.8q5.05.45 11.1 3.15 5.9 2.55 9.15 5.65l2 4.15q-4.45-4.45-10.25-7.45-6.05-3.1-11.8-3.7"/><path fill="#0d131a" d="M247.85 185.9q10.25-5 21-6.25l1.35 1.65q-11.2 1.5-20.25 5.8-16.8 7.9-24.5 24.05l-1.75-1.25q7.1-15.7 24.15-24M25.4 90.3q-5.8-5.7-9.2-11.65-.75-1.25-1.55-1.2-.85 0-1.45 1.45-4.8 12.3-5.35 28-.6 16.95 3.95 33.45 11.05 40 46.25 60.9Q73.7 210.6 93.5 213q19.25 2.4 44.85-1.5 26.25-4 39.5-4.25 15.25-.25 27.55 3.85 4.3 1.45 8.5 1.7 6.6.45 9.55-2.55l1.4 1.75q-3.25 3.25-10.25 3.1-4.95-.15-9.65-1.7-11.9-3.95-27.35-3.6-12.2.3-38.8 4.05-27 3.85-44.65 2.05Q74.2 213.8 57 203.95q-36.4-20.85-47.6-62.4-4.6-17.15-3.8-34.75.75-16.4 6-28.95 1.25-2.9 2.9-2.95t3.3 2.65Q21.65 83.8 28 89.5t13.65 9.55l-3.45.85q-6.65-3.6-12.8-9.6"/><path fill="#0d131a" d="m11.8 129.4-.8-3.3q2.2-8.95 9.2-15.4 5.85-5.45 13.25-7.65l.6 2.05q-7.2 1.65-13.3 7.8-6.9 6.9-8.95 16.5m28.4 50.15-2.15-1.9q-.35-4.65.85-10.85l1.8.15q-1 5-.5 12.6m45.55 5.75q1.15-10.15 4.75-17.5l1.65.75q-3.25 7.8-4.3 17.65-1.1 10.7 1.1 18.45l-2.35-.5q-2.05-8.45-.85-18.85m65.75 17.9-2 .2q-.8-15.65 10.5-32.5l2.3-.75q-5.4 8.95-7.85 15.7-3.3 8.95-2.95 17.35m116.6 43.4 1.5.45q-1.1 5.4-5.55 8.45-4.4 3-9.4 1.95-4.15-.95-6.65-4.75-2.25-3.5-2.45-8.25-.1-2.4.25-4.9.35-2.3.9-3.55l1.7.95q-.55.9-.9 2.9-.35 2.2-.2 4.5.25 4.3 2.05 7.35 2 3.45 5.6 4.45 4.35 1.2 8.4-1.95 3.9-3 4.75-7.6m9.6 2 2 .15q1.25 5.2 1.15 18.35-.05 1.15-.55 1.2t-.6-1.1l-.6-8.85q-.4-5.95-1.4-9.75m9.9 23.95-1.15 1q-.35-.05 0-1.2l1-3.15q.3-.8.95-.5.6.3.45 1.15-.3 1.45-1.25 2.7"/><path fill="#0d131a" d="m302.8 243.55 1.8-2.65q.6 4.5.6 10.5 0 5.35-.45 9.4-.6 4.9-3.5 8.15-7.25 8.3-20 13.4l-2.6.35q-1.3-.3-1.9-1.6l-1.65-4.05q-1.25-2.85-2.75-5.1-8.85-.8-16.75-3.2-9.05-2.75-15.7-7.25l.4-2.4q7.45 4.7 16.15 7.55 8.8 2.9 16.5 3.1l.5.25q3.15 4.75 5.05 9.1.5 1.05 1.6.65 5.8-1.9 11.3-5.4 5.15-3.3 8.4-6.95l1.7-2.5q.75-1.6 1.05-4.2 1.1-8.85.25-17.15"/><path fill="#0d131a" d="m275.45 274.75-1-1.4q1.85-.75 4-2.55.95-.75 1.15-.3.25.45-.55 1.3-1.7 1.8-3.6 2.95M305 233.7l.4-1.95 7.75 2.3q1.6.6 1.75 1.4.1.7-.85 2.55-1.9 3.8-5.35 8.9l-4.75 6.55.3-2.6 3.9-6.35 3.95-7.55q.45-.95-.15-1.15l-2.55-.9zm-54.05 43.7q6 3.6 12.05 3.7 4.05.1 6.95-1.9 2.95-2 4.2-5.65l1.05 2.05q-1.2 3.35-4.55 5.2-3.2 1.85-7.55 1.85-6.6 0-13.15-3.75-8.15-4.65-12.75-13.65-.2-.3.05-.55 3.95-6.55-.6-14.4-4-6.95-10.35-9.35l-2.75.2q-12.25 6.25-19.95 11.1l-.1-2.05q9.35-5.9 19.1-11.25l4.6-.2q7.25 2.75 11.4 10.45 4.45 8.35.8 15.65 4.3 8.2 11.55 12.55"/><path fill="#0d131a" d="M217.25 242.95 215.2 244q-.35-2.15 0-4.95.3-2 .75-3.6.3-1.05.75-1 .5 0 .4 1.1-.45 4.5.15 7.4m46.45 42.35q4.75-.55 8.15-2.7 2.65-1.7 4.85-4.65l1.15 1.8q-5.4 6.6-13.8 7.65-12.55 1.6-28.25-6.15-17.95-8.9-32.3-26.95l.15-2.85q13.85 17.7 32.4 27.05 15.95 8.1 27.65 6.8"/><path fill="#0d131a" d="M270.85 279.8 269 281q1.05-2.2.55-5.55-.45-2.8-1.75-5.15l1.8.35q2.3 5.05 1.25 9.15m-72.15.2.45-2.65q12.85-.6 24.85-3.95l2 1.6q-5.85 2.15-13.7 3.5zm-55.35-8.05-1.05 2.85q-15.95-3.45-36.95-14.15-20.85-10.65-34.6-22.2l.6-2.85q13.6 11.45 34.85 22.15 21.25 10.75 37.15 14.2M16 155.15q3.3 11.95 8.8 23.5 5.3 11.1 11.55 19.4l-1.45 2q-7.8-10.1-13.95-24.55-6.5-15.45-8.3-29.55z"/><path fill="#0d131a" d="m81 211.55 1.75.4q-.8 14.6-9.8 26.35l-1.55-1.45q4.6-6.55 6.85-12.8 2-5.45 2.75-12.5m23.45 28.75q-3.9-10.75-5.6-25.75h1.85q2 15.15 6.45 26.45 5.95 15.05 17.05 25.95l-4.25-1.5q-10.25-10.7-15.5-25.15M41.9 190.25l1.35 1.25q-16.9 18.8-28.3 44.6-11.65 26.25-12 47.45-.2 9.95 4.75 17.4 4.45 6.75 10.75 8.35l-.2 2.1q-8.15-2.35-13.15-9.65Q-.2 294 0 283.3q.4-21.65 12-47.35 11.6-25.75 29.9-45.7"/><path fill="#0d131a" d="M36.15 272.05q-6.95-.2-14.2-4.05-8.7-4.6-14.35-13l.55-2.4q5.5 8.55 14.05 13.25 7.1 3.85 14.05 4.05 8.25.25 15.3-1.5 10.7-2.6 14.7-9.15l-.2 2.8q-4.2 5.7-14.35 8.3-7.6 1.95-15.55 1.7"/><path fill="#0d131a" d="M73.45 226.2q.6-1.5 1.25-1.3t.15 1.75q-4.75 15.75-6.5 26.25-1.8 10.8-.75 17.9 1.6 10.75 1.95 17.15.55 9.55-1.3 11.95l-1.9-1.25q1.45-2.05.75-11.75-.45-5.75-1.85-16-1-7.9.9-18.95 2.1-11.85 7.3-25.75"/><path fill="#0d131a" d="M68.15 302q0-1-.5-1.45-1.4-1.4-4.35-3l-1.65-.15q-.8.25-1.3 1.15l-2.75 6.5q-.5 1.25-.8 1.3-.4.05-1.15-1.1-4.2-6-6.8-8.1-.95-.8-1.95-.8-1.2.05-2.15 1.1-2 2.3-4.6 6.1-2.7 3.85-4.05 6.35-.5.95-1.45.15-4.95-4.45-6.1-5.3-.85-.6-1.3-.7-.8-.2-1.75.35-3.25 1.8-6.3 4.95-1.1 1.2.15 2.8 2.7 3.35 4.35 4.3 1.25.75 2.25.9l2.3-.35q3.9-1.45 6.75-4.15l1.25-.05q2.6 2.25 5 3.45l4.15 1.45q3.75 1.05 6.85-1.1 3.6-2.4 5.1-7 .25-.8.7-.85l1.15.15 4.05.45q1.15.05 2.15-.5 1.05-.55 1.5-1.45 1-2 1.15-3.6zm-24.8-6.1q3.5-3.75 7.35-.2 3.15 2.95 5.85 7.8 1.25-3.95 2.55-6.25.65-1.25 2-1.55 1.3-.35 2.75.35 3.35 1.75 5.15 3.55.8.8.9 2.05l-.1 2.05q-.45 2.85-1.35 4.9-1.2 2.8-4.95 2.55l-4.65-.65q-1.6 4.95-5.2 7.85-1.8 1.45-4.2 1.75-2.45.35-5.05-.6t-4.05-1.8q-1.75-1.05-4.6-3.4l-2.95 2.45-3.8 2.35q-3.05 1.75-7.05-1.3-2.4-1.8-3.95-4.65-.85-1.55-.9-2.55-.1-1.05.65-2 1.05-1.45 3.1-3.2 2.2-1.85 4.3-2.95 2.25-1.2 4.25.4l5.75 5.5q5.45-9.5 8.2-12.45m100.35-30.7q5.9-19.05 11.7-28.65 5.95-9.75 14.75-14.6 1.7-.95 2-.6t-1.3 1.45q-8.4 6-13.85 15.15-5.85 9.85-11.25 28.1-2.85 9.7-10.6 33.35-6.2 22-5.45 38.4.15 3.6.85 5.75.85 2.7 3.05 5.1 4.55 4.9 9.9 7.9 7.7 4.3 15.9 3.95l.5 2.05q-8.45.85-17.25-3.45-6.7-3.35-11.1-8.1-2.7-2.95-3.75-6-.95-2.7-1.15-7.2-.7-15.9 6.1-39.3zm57.6-27.1q-3-9.75-12.45-16.1-1.25-.85-.95-1.25.25-.4 1.6.3 10.5 5.55 14 16.35 3.35 10.25.2 24.7-3.1 14.35-5.4 29.1-2.25 14.5-2.4 20.55-.15 6.75 1.45 16.45l2.15 12.6-2-.1-2.55-13.1q-1.7-9.4-1.5-15.8.15-6.15 2.45-20.8 2.3-15.1 5.4-29.4 3-13.95 0-23.5"/><path fill="#0d131a" d="M160.6 359.7q-.65 1-.6 1.6 0 .6.65 1.2 2.9 2.45 4.5 3.45 1.45.9 3 1.05t2.7-.55q3.2-1.95 6.1-5.05.15-.25.5-.15l7.75 1.4 4.45-.15q1.5-.55 2.75-2.25l1.65-2.45 1.15-2.7q.4-1.4-.5-3.45-3.05-6.9-8-11.85-.75-.75-1.75-.65-1.05.05-1.75 1.1-4.55 6.6-7.55 15.9l1.65 2.3q.7 1 .25 1.3-.45.35-1.15-.6-1.8-2.45-4.05-4.3l-2.55-1.95q-2.15-1.5-3.7-.05-1.1 1-2.85 3.25zm-1.3 3.85q-1.6-1.6 0-4.6l2.5-3.95q1.75-2.45 2.9-3.5 1.5-1.35 2.8-1.45 1.35-.05 3.15 1.2 1.9 1.35 3.25 2.85l.65.7q1.45-4.65 2.45-7 1.65-3.95 4.35-8.15 3.05-4.65 7.1-.65 4.65 4.65 8.05 12.25 1.1 2.5.4 4.45-.9 2.8-2.65 5.4-1.75 2.65-3.6 3.3-1.7.55-5.7 0l-7.2-1.55q-3.7 3.9-6.15 5.4-1.7 1.05-3.2 1-1.55 0-3.45-1.15-2.1-1.2-5.65-4.55"/><path fill="#0d131a" d="M201.7 344.9q-1.2-1.9-2.35-3-.5-.55-1.2-.55-.8 0-1.4.95-1.5 2.15-2.45 6.15l-1.2-1.75q1.1-3.95 2.35-5.9.9-1.45 2.4-1.65 1.45-.15 2.5.9 3.45 3.45 4.9 7.15 1.7 4.4-2.5 6.25-2.75 1.25-6.65.85l-.05-1.7q3.55.35 5.8-.8 1.25-.65 1.55-1.4.3-.85-.2-2.5zm-70.45-32.6.35-2.9q5.65 7.15 13.05 11 7.25 3.75 14.95 3.65 22.35-.4 35.15-15.65l-.4 3.4q-5.65 6.9-14.9 10.9-9.15 3.9-19.7 4.1-7.95.15-15.3-3.5-7.6-3.75-13.2-11m108.6-16.6q0-1.6.5-5.35l1.1-7.4 2.25.85q-1.15 9.6-1.15 12.35 0 4.95 4.95 6.85 7.9 3.1 14.15 4.15 8.1 1.4 15.7.05l1.25 1.5q-9.5 1.45-18.35.15-7.35-1.1-15.05-4.3-2.85-1.2-4.1-3.3t-1.25-5.55m59.85-26.8q1.55 4 4.15 12.85l1.7 4.6q.9 2.5.95 3.85l-2.15-1.8-2.35-6.3q-1.95-6.1-4.05-11.45z"/><path fill="#0d131a" d="M296.8 289.7q-.6-.65-1.45-.55t-1.25.85q-2.5 4.75-3.5 10.75l-.3.65-.6-.15q-1-.65-2.8-1.35l-2.95-.9q-1.6-.35-2.55.9-.7.85-1.7 2.65-1.1 2-1.5 3.4-.3.95 0 1.55.3.65 1.15.75l3.65.5 3.75.2q1.85-.2 2.65-.75 1.5-1.1 1.75-4.05.05-.65.8-.5l4.95.95 4.85-.3q1.35-.25 2-1.5t.1-2.55q-2.2-5.05-7.05-10.55m-6.1 3.75q.75-2.5 2.1-4.8.9-1.55 2.5-1.55 1.55-.05 2.85 1.4 5.6 6.3 7.7 11.15.95 2.15 0 4.05-1 2.15-3.75 2.5-2.5.35-4.8.05l-5-1.1q-.1 2.95-1.3 4.4t-3.8 1.5q-2.35.05-8.15-1.25-1.45-.35-2.15-1.3-.8-1.1-.3-2.8.55-1.6 1.65-3.9 1.15-2.4 1.8-3.2 1.8-2.25 4.55-1.25 3 1.1 4.7 2.2.6-3.7 1.4-6.1"/><path fill="#0d131a" d="M300.95 289q.2-1.5 1.35-2 1.25-.6 2.7.4l2.25 1.85 2.5 2.9q2.2 3.45-.4 5.75-1.25 1.15-4.6 2.35l-.65-1.65q2.25-.45 4-1.85.75-.6.75-1.65 0-1.15-.75-2.3-1-1.5-3.95-4.05-.4-.35-1-.15-.7.25-.8 1.05-.35 2.6-.25 4.7l-1.4-1.65zm-109.8-120.5-1.4-3.45q11.75 3.65 21.4 9.2 2 1.15 2.6.35.6-.7-.1-2.55-1.85-5-7.1-10.5-5.45-5.75-13.35-10.8l-1.1-2.6 3.15 1q17.05 11.55 20.6 22.2 1.3 3.85-.4 5.45-1.65 1.6-5.1-.25-11.05-5.9-19.2-8.05m78.45-40.65-.6-4.2q4.85 4.95 7.55 11.8 2.55 6.5 2.95 14.1l-2.05-2.55q-.65-5.2-3.05-10.7-2-4.6-4.8-8.45"/></svg>