<svg xmlns="http://www.w3.org/2000/svg" width="337" height="376" viewBox="-3.4 0.05 336.55 376.3"><path fill="#db4f03" d="M9.4 93.9q5.4-9.4 12.95-16.05 7.45-6.5 14.75-8.45 12.05-3.2 19 1.3 3.45 2.25 4.5 5.1l.3 1.6q.2 2.05-.1 3.95-1.1 6.15-7.5 9.2-14.2 6.7-22.6 14.95-14.4 14.05-10.75 31.1 4.7 21.9 33.35 35.05 33.25 15.25 93.05 15.25l-.55 13.3q-69.05-1.75-105.5-20.4-29.85-15.35-37.45-41.9-6.25-21.85 6.55-44"/><path fill="#b94100" d="M5.3 143.05q5.4 11.5 17.15 21.1 37.5 30.8 124.05 31.35l-.4 3.75q-90.7-.2-126.35-33Q8.6 156 4.3 143.7q-1.35-3.8-1.85-7.4l-.25-2.8.5 2.65q.9 3.35 2.6 6.9M59 72l.8 1.25q.95 1.8 1.2 3.75.8 6.3-5.55 11.75-3.1 2.65-7.9 5.35l-8.3 4.6q-10.35 6.25-17.3 17.45.95-3 3.75-7.2 5.55-8.35 14.85-14.25 11.6-7.3 16.15-12.75 4.85-5.8 2.3-9.95"/><path fill="#0d131a" d="M39.35 69.95q-6.4 1.3-13.2 6.35-6.95 5.15-12.45 12.85Q.7 107.4 2.45 128.9 5.7 163.2 46 181.45q22.55 10.25 53.35 14.1L112.9 197l33.2 2.25q.3.05.3.95-.05.9-.35.85l-33.35-1.85-13.5-1.6q-15.4-1.9-29.35-5.6-13.9-3.7-25.25-8.85Q3.45 164.45.15 129.3q-1.8-22.15 11.7-41.15 5.65-8.05 12.9-13.45 7.05-5.25 13.6-6.6 10.05-2.5 17 .75 4.1 1.95 5.25 4.25 1.75 2.65 1.75 5.65 0 5.65-5 10.15-2.65 2.35-6.55 4.65l-6.7 3.7q-5.55 3.1-11.25 7.8-5.25 4.35-7.8 8.55-4.2 6.95-4.45 17.15-.15 6.05 2.9 13.35 7.05 16.55 29.7 26.8 22.4 10.1 57.4 12.8l12.45.8 23.95 1.25q.3 0-.05 1.1-.3 1.1-.65 1.05l-24-1.25-12.45-.8q-35.35-2.75-58.15-13.2-22.95-10.55-30.15-27.5Q15.8 131.6 20.3 119q3.5-9.9 11.6-15.95l5.3-3.9 5.9-3.8 6.55-3.85q3.75-2.3 6.35-4.6 4.5-3.95 4.25-8.4-.1-1.4-.65-2.7l-.65-1.15q-1.1-2-4.1-3.55-5.95-3.1-15.5-1.15"/><path fill="#e50020" d="m252.95 70.3 3.4.15q5.35.85 6.65 1.45 5.8 2.7 6.45 9.95.75 8.2-.55 12.4-1.05 3.55-4.75 7.15l-4.75 4.25-1.3.85q.35-8.45-.75-10.35-2.8 4.3-5.95 9.75-6.4 10.9-8.35 16.7-3.15-6.3-7.7-13.9-9.1-15.2-15.95-21.65l-.5 15.95-9.45-6.6q-11.3-7.35-20.3-11.25l7.1 14.6-5.05-.25q-5.2-.25-5.9-.05l-28.65-3.35q-2.85-2.8-7.85-4.55-9.95-3.45-20.5 2l.25-.95q.4-1.1 1.3-2.15 2.85-3.2 9.2-4 3.4.1 3.55-1.35.15-1.5-.15-2.05-.55-1.1-2.9-1.9-5.35-1.2-8.5-2.55-5.9-2.5-5.7-6.8.9-3.65 2.5-6.1l1.4-1.7q1.15-1.95 1.65-4.4 1-4.8-2.05-7l-4.1-3.25q-2.9-2.25-5.3-3.45-7.15-3.6-15.1-.75l.85 3.55q.9 4.25.85 7.95Q106 68.45 97.1 70q-6.9 1-11.5-4.2-.75-.8-7.8-12-3.5-5.6-12.55-7l-5.9-.4-2.5.1q6.6-5.4 13.4-3.95 3.55.7 6.95 2.9 1.65.45 2.4 0 .95-.65 1.1-3.05.15-2.2-2.3-2.85l-3.55-.2-4.4.15q-2 0-3.8-1-3.65-1.95-2.7-6.7.4-6.95-10.65-11-3.4-1.3-7.6-2.1l-3.5-.6 3.45-.95 8.5-1.25q13.4-.95 20.7 5.45l1.4 1.3q1.65 1.7 2.75 3.7 1.25 2.15 3.4 2.7 1.95.5 2.65-.45l.25-4.75q.2-3.9 2.55-3.85 2.2.05 4.5 1.65l4.2 2.45 3.9-.15q1.45-1.55 2.75-9 1.2-7.05 4.4-8.6 1.55-.75 6.15-.1 4.1.65 10.35 3.55 7.5 3.55 10.6 7.45 6.15 7.7 8.9 10.35 6 5.85 9.65 4.9-2.3-1.45-4.4-4.2-4.2-5.6-3.05-12.3 1.2-7.25 4.05-11 2-2.6 5.65-4.35-1.35 1.85-1.95 5.1-1.15 6.55 2.65 13.5 4.4 7.95 9.1 10.15 4.2 2 8.2-.8 5.6-3.85 7.95-4.3 4.8-.95 9.35 4.5 5.6 6.6 7.75 7.55 2.7 1.2 7-2.05 8.1-6.05 11.4-7.15 8.6-2.9 19.65 2.55 10.7 5.25 16.9 17.9 3.15 6.35 4.1 11.6l-.05 2.15q-.6 2.3-3.25 2.85-3.05.7-3.95 1.65-.8.85-.35 2.65.35 1.5 2.95 1.8"/><path fill="#fcd13e" d="M167 49.65q5.6 3.35 8 7.25 2.4 3.95.75 7.2-1.6 3.25 1.65 7.25 3.35 4.05 8.95 5.5 4.85 1.2 5.05-.95-.65-4.55-.6-8.95.1-5.45 6.55-6.25l6.45.35q13.75 2.5 22.65 13.9 4.4 5.7 6.1 10.9.45-4.3-.6-8.45l-1.2-3.35q11.8 7 11.7 25.4-.05 9.15-2.45 16.95-5.05-10.15-13.3-20.75l-7.3-8.6-.45 15.65q-10.7-7.8-21.35-13.45l-8.45-4.1 7.1 14.6L157 96.3q-9.3-7.45-19.9-5.75-3.35.55-6.35 1.9l-2.4 1.3q1.15-3.8 4.85-5.65 2.9-1.45 6.2-1.4 2.15.05 2.9-.75.35-.4.3-.85.45-2.25-2.65-3.65l-9.55-3.05q-5.35-1.7-5.1-6.35.05-1.5.7-3.05l.6-1.3q1.8-2.3 3.15-5.15 2.6-5.65.1-8.25-6.45-9.2-16.65-10.1l-6.3.3-2.55.65q-2.05-5.65.15-7.95 2.75-2.95 13.05-2.45 9.25.45 16.65 7.7 3.65 3.65 5.5 7.2l3.35 4.1q3.8 3.65 6.35 1.55 3.1-2.45-.3-6.6l-4-3.65 11.4.4q5.15 1 10.5 4.2"/><path fill="#db4f03" d="m229.75 146.2 5.2 2.85 6.25 3.15 4.4-4.5 2 .25q2.3.1 3.85-.95l.1 3.45q-.1 4.2-.8 7.85-2.35 11.8-10.5 14-8.1 2.2-13.25.5-1.6-.55-2.75-1.4l-.8-.75q.3 1.45-.5 3-1.55 3.05-6.75 3.55-5.95.6-13.3-7.85-6.95-8-9.5-17.15l2.65 1.6q2.8 1.65 3.75 1.8l.1-8.1q.35-8.5 1.55-10.2l3.25 2.7q3.95 2.8 7.7 3.35l1.55 1.2q2 1.3 4.05 2.2 6.65 2.7 11.75-.55"/><path fill="#ed8599" d="M205.05 152.25q6.25 9.4 13.15 14.95 3.4 2.8 5.6 3.7l-.5 2.1q-1 2.25-3.35 3.15-6.9 1.25-12.15-6.45-1.65-2.45-5.1-10.7-.95-2.3.6-4.75.8-1.2 1.75-2"/><path fill="#fff" d="m205.2 152.6 1.1.5 3.2 4.95q-1.95 1.6-3.4 2l-1 .05q-.2-.5-.05-4.05zm4.1 6 4 4.25q-2.1 1.05-3 1.2l-.45-.1q-.35-.85-.5-3.2zm4.4 4.7 3.4 3.35q-.95.5-2 .45l-.85-.15q-.3-.65-.45-2.2z"/><path fill="#e50020" d="m209.4 111.25 1.95-.45q2.6-.1 5.9 1.9 8.65 5.3 18.45 15.15 4.9 4.95 8.05 8.85l6.1-11.25q6.4-11 7.95-9.7 2.7 1.95 4.3 7.15t.85 9.5q-.65 3.6-4.45 7.05l-3.7 2.75q.7-1.95.8-4.55l-.1-2.2q-2.45 3.6-8.65 10.55l-5.65 6.2q-5.45-2.1-18.8-10.85l-12.2-8.3q-1 3.2.5 7.05.75 1.95 1.7 3.25-8.1-2.5-11.35-7.25-2.5-3.65-3.4-11.2-.65-5.55 5.5-10.15 3.05-2.3 6.25-3.5"/><path fill="#fcd13e" d="m210.4 133.35 19.35 12.85q-.85.7-2.65 1.2-3.6 1-8.15-.05-6.25-1.65-8-8-.6-1.95-.6-4.2zm45.25 1.9-.1 3.35q-.4 3.75-1.7 5.9-1.95 2.8-5.15 3.3l-2.85-.05z"/><path fill="#db4f03" d="M283.5 91.05q1.65-.4 2.55 0 2.25 1.25-.15 9.15-2.35 7.8-8.15 18.45-4.8 8.8-12.6 16.3l-6.85 5.8q5.65-5.45 4.5-14.05-.35-2.7-1.35-5.4l-.9-2.15q1.6-4.6 6.85-11.65 3.15-4.25 9.25-11.45 3.55-4.15 6.85-5"/><path fill="#005b96" d="M279.7 104.55q-1.95 8.75-9.4 19.05l-7.1 8.55v-4.6q6.6-13.55 12.2-19.6 2.8-3.05 4.3-3.4"/><path fill="#fff" d="M199.05 90.25q11.6 6.35 19.9 12.45l.5-15.3 8.95 10.75q9.85 13.05 14.4 24.4l6.35-12.15q6.65-12.5 8.2-14.25l.3 2.95q.25 3.75-.3 7.85l4.75-3q5-3.2 6.55-3.95-4.75 12.1-8.05 18.35-.55-1.25-1.65-1.8-2.2-1-4.75 2.7t-6.75 10.95l-3.7 6.5q-3.55-4.4-9-9.8-10.85-10.8-20.15-15.65-.55-.5-1.6-.75-2-.55-4.3.75-4.35 2.4-7.4 5.5-4.5 4.6-3.6 8.5 2.35 10.1 3.75 12.05l-1.1 6.95q-.95 7.65-.3 11.45-5.85-2.45-10.65-7.15-9.6-9.45-4.35-20.8l-34.75-23.4 14.45-3q17.35-2.65 31.65-1.1L193.1 93q-3.4-7.3-3.95-7.85z"/><path fill="#db4f03" d="M188.35 105.45q2.95 5.8 4.05 9.9-2.95 3.65-6.2 10.6l-2.6 6.25q-6.2-4.25-12.5-11.95l-5.05-6.9q-12.75-21.8-14.35-33.6-.55-3.7.15-5.95l.75-1.5q4.85-2.5 20.75 12.75 9.1 8.7 15 20.4"/><path fill="#005b96" d="M163.25 90.95q1.4-.5 5.1 3.15 4.25 4.2 9 11.6 4.65 7.2 6.7 13.35 1.7 5.2.65 5.95-2.65 1.95-14.1-14.5-6.05-8.65-7.3-14.95-.4-2-.25-3.5z"/><path fill="#fff" d="m174.1 122.8 7.85 7.45-.25.75q-4.55-2.45-9.2-2.8l-3.75.1z"/><path fill="#db4f03" d="m244.2 170.55-.1-.25q4.4-2.6 5.95-7.2l.65-4.1q2.35-1 5.05-3.45l2.2-2.3q1.7 1.4 3.7 1.7h1.6l14.9 21.95 1.8-18.85 7.6 20.55 4.65-7.15.85 7.55 1.3 10.55q1.8 4.8 13.9 24.5l2.35 10.75q-1.1 11.35 3.35 25.2 2.25 6.95 4.7 11.6-2.7-2.2-9.05-.05l-5.75 2.6-.4-.25q3.4-3.7 1.75-7.95l-2.3-3.5-3.5 6.65q-.2-1.45-.95-3.3l-.65-1.55q-2.55 3.95-5 5.4l-1.95.7.8-2.4q.7-3.3.35-7.95-1.4-8.15-25.55-61.05-1.8-3.95-12.2-11.6z"/><path fill="#fff" d="M251 147.2q1.8-.55 3.15-2.9l1-2.3 2.05-.75.8 2.6q.75 3.2.7 6.1-.05 2.95-4.15 6.5l-4.05 3q1-2.85.85-7.85z"/><path fill="#fcd13e" d="m257.2 141.25 2.25-1.35 2.45 6.45q2.3 6.7 1.85 8.05-.45 1.3-3.3.2l-2.75-1.35q1.9-2.1.9-7.25zm70 94.75q1.8 3.65 2.9 6.6l1.45 12.6q.8 12.8-2.5 13.75-3.65 1.05-7.4-3.65-2.95-3.75-6.7-12.3-2.75-6.3-3.85-18.05l-.55-10.5-5.3-25.2 5.55 10.05 1.05-7.75L319.9 225q3.65 3.65 7.3 11"/><path fill="#005b96" d="m281.45 263.9 3.7-1.15q4-1.4 5.8-2.6l.25.2q.5.1 1.45-.55 1.6-1.1 5.15-5.55l.9 1.6q.85 1.8.7 2.85l3.5-6.05q.25-.6 1.05.35.85 1.05 1.35 2.7 1.4 4.75-1.85 8.2-4.7 5-9.8 8.05-6.45 3.85-10.15 2.05-4-1.95-4.6-5.65-.55-3.55 2.55-4.45"/><path fill="#005b96" d="M324.2 278.3q-.8.85-1.9.4l-1.15 1.55q-1.4 1.4-2.65.85l-.65 1q-1.15.85-3.35.4l-.6.6q-.95.65-2.65.7l-6 .35-5.05-.15q-1.6-.6-3.1-3.15-2.05-3.6-1.9-9l4.2-3.4 1.45-.35 2.85.2.6-4.15 5.95-2.7q6.35-2.15 8.3.55l3.4 4.1q3.9 4 6.7 3.2z"/><path fill="#db4f03" d="m116 173.85 1.95 20.85 10.25-13.75q10.85-15.05 13.7-21.85l.05 4.05q.25 4.3 1.4 5.35l.45 4.5q1.05 4.7 4 5.6 3.55 1.1 9.45 1.3l10.3-.55q-7.1 2.4-15.85 8.35-17.5 11.9-25.75 29.65-11.75 25.2-16.65 37.05-6.85 16.55-8.1 24.75l.75 4.3q.9 4.7 1.45 6.55-.95-.6-2.25-1.1-2.6-1.05-4.3-.75l-.65 3.8q-3.4-1.3-7.3-3.65l-.8.25q-.85.5-.9 1.55l-.65 3.95q-2.7 1.75-6.2 2.75-7.05 2.1-11.25-1.45 4.15-3.55 8.55-10 8.75-12.85 9.8-27.15.15-4.85-.75-8.4l-.95-2.6L94 219.45l-9.05 9.8L86 223.6l14.15-16.35q1.8-15.85 2.85-19.1l3.15 9.55 4.5-11.9q4.6-11.95 5.35-11.95"/><path fill="#fff" d="m117.95 194.7-.55-6.7 8.95-4.2zm-13.35-1.6 4.05-1.3-2.5 5.9zm-4.6 14.4-23.55-1.05 25.55-12.3zm27.1-24.6-6.25-3.65 9.15-.55zm40.55-3.2q16.75-4.8 22.4-16.9 2.8-6.05 2.25-11.15l.8.35q1.8 4.65 7.9 13.65l5.7 8.1q-6.05 3.4-8.15 7.25-1.1 1.95-.95 3.2l-5.15 5.05 8.15 3.35-4.15 2.35 13.8 7.85-12.65 1.7 4.25 10.4-12.35-5.05 1 12.5-15.7-10q-3.35 4.5-7.6 8.75l-3.5-11.7-10.75 4.05-1.45-7.85-19 1.45q6.25-10.6 21.35-20.05 7.5-4.7 13.8-7.3"/><path fill="#fcd13e" d="m189.05 164.65 2.8 1.55q2.7 2.35 2.25 6.65-.5 5.45-6.3 10.75-6.2 5.55-13.1 5.75-6.05.15-10.05-3.4l-2.85-3.55 6.85-3.25q8.95-1.6 15.6-8.2 3.3-3.3 4.8-6.3"/><path fill="#fcd13e" d="M173.45 128.5q2.6.2 6.6 2.1 2 .95 3.5 1.85-1.4 6.9 3.1 13.05 2.25 3.1 4.75 4.8l.55 1.8q.55 2.35.3 4.8-.7 8-8.55 14.7-9.05 7.65-21.6 8.45-7.8.5-14.3-1.45-2.7-.85-4.45-7.2l-1.2-6.2q-.5-2.2-.05-6.35.95-8.3 5.9-18.1t15.7-12q5.4-1.1 9.75-.25m28.75 56q-3.3 1.75-4.6-.3t3.6-6.45l5.2-4q.75 1.3 5.65 3.3-1.4 2.55-4.2 4.2l-2.55 1.15q-1.4 1.25-3.1 2.1M87 218.4l-2.05 10.85 9.05-9.8-7.45 24.75q-.75 2.25 0 3.55 1.9 16.75-5.2 30.85-3.2 6.3-10.6 14.8-2.6 2.95-6.65 3.8l-3.5.2-7.15-2.65q-1.75-.35-3.15-2.7-2.8-4.8-1-15.05 2.95-13.95 13.4-26.45 3.3-3.9 6.9-7.15l2.95-2.5q1.95-3.6 8.4-13.4z"/><path fill="#005b96" d="m52.15 294.85 3.2 1.3q3.5 1.4 5.3 1.6 2.8.35 8.85-2.4 4.35 2.95 10.9 1.35 3.3-.8 5.7-2.2l-.55 6.3 1.8.45q2 .8 2.85 2.5.6 3.15-.95 8.05-1.25 3.95-3.2 7.2-1.35 2.25-7.1 1.35l-8.05-1.9q-2.15-.5-3.35-2.35l-.75-1.75q-2.55-.55-4.1-3.05l-1.1-2.4q-1.9-.7-3.45-3.65l-1.2-2.8q-1.6-1.2-3.35-4.5z"/><path fill="#db4f03" d="m132.8 206.4 18.7-.8 1.45 7.85 4.1-1.75q5.5 3.15 8.15 13.85 1.35 5.3 1.35 9.35-.8-3.3-4.25-7.15-5.7-6.45-14.6-6.8-8.8-.35-14.55 8.25-2.9 4.3-4 8.65-2.55-3.5-2.2-13.6l.8-9.45z"/><path fill="#db4f03" d="m161.3 216.35-4.25-4.65 6.45-2.6 3.7 12 7.6-8.75 16.35 10.15-1.75-13.05 12.45 5.45-4.25-10.4 3.95-.9q24.45 11.95 39.15 26 7.35 7.05 9.8 11.65l-6.8 12.6-9.95.6q-11.35-.75-18.4-7.65-15.4-11.85-33.8-16.8-5.75-1.5-11.15-2.2l-4.2-.35q-.55-5.35-4.9-11.1"/><path fill="#fff" d="m126.8 244.2.3 3.2q.6 3.85 1.85 7.2 4.05 10.65 13.4 11.95 8.55 1.35 15.7-4.05 2.2-1.7 4.05-3.85l1.35-1.8-4 11.3-6.35 14.25q-6.35 15.75-6.55 23.15-.15 7.45 8.1 17.25 4.1 4.95 8.25 8.35-3.95-1.05-7.9-.55-2.45.35-3.6 2.7-.55 1.2-.6 2.3-1.05-1.25-4.45-1.6-2.65-.25-4.8.05-1.3.15-2.5 2.2l-.9 2-1.65-1.3q-2.15-1.35-4.45-1.35t-4.4 2.5l-1.65 2.5q-.6-1.4-3.05-2.7-2.5-1.3-4.85-1.5-1.95-.15-3.8 2.55-.9 1.35-1.45 2.7-.65-1.1-2.1-2.1-2.8-2.05-6.6-1.55-3.8.45-5.45 5.8-.8 2.7-.9 5.25l-7.9-16.85q-.5-1.35-18.65-9.05 1.25-1 3.65-1.9 2.95-1.1 5.25-.9l4.1-.3q1.55-.45 2.5-1.85.8-1.15 2.6-6.45l1.6-5.1 5 2.1q3.55-11.8 10.95-25.35 3.65-6.7 9.35-15.5 2.15-3.3 6.55-13.85z"/><path fill="#005b96" d="M86.7 293.75q.3-3.6 1.25-4.9l.95-.55 7.45 3.85.95-4.4q3.2.5 7.55 3.6l5.35 4.2 6.05 4.2.5 1.35q.45 1.6.3 3.1-.5 4.75-6.6 7.35-6.1 2.55-15.55-7.35-2.95-3.1-5.85-7.1zm38.9 46.45q.6-1.05 1.7-2.15 2.2-2.25 4.75-2.45l3.7.15q1.5.45 2.95 2.2l1.1-1.8q1.3-1.85 2.35-2.15 5.05-1.4 7.95 1.4.6-1.25 1.65-2.45 2.15-2.4 4.45-2.1 2.3-.3 3.85.05 1.45.3 2.9 1.4 1.85 1.45 11.55 11.7l.55 1.35q.5 1.65.25 3.25-.8 5.15-8.85 7.95l.35 3.85q-.6 4.25-5.2 6.25-3.7 1.4-7.3.65l-2.9-1.05-1.45 2.25q-2.1 2.2-5.5 2.2-2.8 0-6.55-1.55l-3.2-1.55-1.25 2.5q-1.75 2.65-4.15 3.1-3.8.65-8-1.2l-3.45-2-1.95 2.2q-2.65 2.2-6.05 2.1-8.9-.15-10.75-6.9-.85-3.15-1.15-12.35-.3-7.95-.1-9.05.3-2.05 1.7-4.55 2.2-3.9 5.25-3.35l3 .45q3.25.9 4.35 3.1l1.5-2.25q1.85-2.3 3.65-2.3l4.6.5q2.55.75 3.7 2.6"/><path fill="#fcd13e" d="M130.35 234.7q3.4-9.8 12-12.75 4.35-1.5 7.95-1 11.4 2.25 15.25 10.85 2.9 6.4 1.45 15.8-1.2 8.15-7.95 14-7.45 6.45-16.55 4.7-9.6-1.8-12.95-10.8-3.3-8.9.8-20.8"/><path fill="#fff" d="m159.7 266.45 5.6-.9-3-5.45 1.75-4.2 6.55 1.75-2.2-6.2 9.15 4.1 3.2-1.75q4.1-2 8.6-3.55 14.3-4.95 27.1-3l1.85 1.6q2.45 1.9 5.3 3.25 9.25 4.4 19.6 2.05l-2.95 4.75q-3.75 5.4-7.45 8.5-4.35 1.35-9.05 3.15-9.35 3.55-11 5.65l5.7 5.1-2.85 10.3q-3.55 11.05-6.95 15.1-2.45-.55-6.1-2.4-7.3-3.75-13.35-10.25-4.85-3.85-10.15-6.05l-4.35-1.4q-1.85-.5-3.8-1.9-3.85-2.75-4.15-7l-8.75-5.3z"/><path fill="#fcd13e" d="m250.9 241.3 2.05 1.15q2.25 1.65 3.45 3.95 3.75 7.35-4.75 18.55-3.95 4.8-11.6 4.05l-4.85-1-2-.7q5.45-4.8 12.15-15.9z"/><path fill="#005b96" d="M244.05 293.95q-.05.95-.5 1.75 2.15 2.15.85 5-.6 1.4-1.7 2.4 1.8.85.95 3.05-.75 1.85-2.7 3.65-1.05 1.4-6.1.55l-4.8-1.1q-1.05 2.9-3.35 3.2l-2.15-.25-15.35-5.75q4.35-6.85 7.1-16.75l1.85-8.55 9.5 2.55q9.9 2.75 12.05 3.75 2.15.95 2.55 2.45.2.75-.05 1.3 1.95.85 1.85 2.75"/><path fill="#d9b536" d="m86.35 246.1.45 2.05.3 3.45q.2 4.45-.4 9.2-2.05 15.2-11.5 28-7.35 8.4-14.05 8.7-2.1.05-3.9-.65l-1.35-.75q-1.6-.7-3.3-2.3-3.45-3.15-4-7.4l2.05 3.2q2.75 3.15 6.35 3.15 2.6.35 6.2-1.4 7.2-3.4 12.15-13.6 5.15-10.05 6.95-20.2l.75-8.2L93.4 220.8zm70.15 13.55 1.75-3.55q4.4-2.55 7.25-6.9l2-3.8-.8 3.15q-1.2 3.85-3 7.1-5.85 10.4-15.9 11.3-12.7-.25-17.5-9.35-1.45-2.85-2-6.25l-.2-2.8 2.5 3.8q3.5 4.1 8.55 5.8l1.9 2.95q2.9 2.9 7.85 2.5 4.9-.35 7.6-3.95"/><path fill="#d9b536" d="m139.3 258.45 2.75 1.5q3.45 1.4 6.65.95t6.5-2.5l2.65-1.95-2.15 3.45q-2.95 3.45-6.8 3.7t-7.1-2.4zm108.55 8.85q-6.55 3.5-14.35.2l4.95-5.85 2.8 1.45q3.4 1.35 6.6.85l1.1.8q1.55.4 3.85-1.55-1.7 2.4-4.95 4.1m77.5 1.45q-4.25-2.15-9.65-14.5-6.55-15-5.65-29.8l-4.3-24.7 8.95 27.15 1.55 13.35q2.65 14.75 8.05 21.85l2.2 2.7q2.5 2.55 4.2 1.9-.35 1-1.15 1.8-1.7 1.5-4.2.25"/><path fill="#d9b536" d="m330.6 262.35.1 1.65q-.1 1.75-1.15 2.3-2 .3-4.3-9-1.95-7.75-1.95-9.75l2.55 8q2.9 7.8 4.75 6.8m-277 11.25-.55 6.2q.1 6.25 3.05 6.65 2.95.45 7.2-3.9l3.6-4.45-3.05 7.05q-4.15 6.9-9.35 6.05-3.1-.85-2.3-9.3z"/><path fill="#dbdcdc" d="M79.1 324.65q7.85 1.95 11.65 4.25l1.15.95q1.25 1.15 1.85 2.4 1 2 5.35 9.05l-.95 2.8q-.9 3.15-.7 4.6l-8.05-16.1-7.35-4.45q-7.45-4.35-9.85-4.9zm75.05-44.6q-3.35 7.2-7.45 20.3 2.55-14.1 1.75-25.2l-1.35-8.3 5.95-1.9q6.4-2.5 8.8-5.2l-2.6 7.45q-3 8.35-5.1 12.85m4.6-9.75 6.9 2.7 1.9.95q2.15 1.35 3.4 3.4 2.55 4.25 7.85 6.3 6.3 2.45 9.3 3.95 3.4 1.75 5.65 3.75l7 6.3q5.55 4.3 10.45 5.3l-3.1 3.6q-2.85-.4-8.65-4.05-5.15-3.3-9.05-6.75-3.25-2.9-8.5-5.75-4.6-2.5-8.45-3.8-2.9-.95-5.2-4.65L166.5 278l-8.75-6.15zm80.6-10.8-6.3 7.6q-10.4 2.1-17.75 7.5-3.65 2.7-5.25 4.95 1.2-6.85 15.35-14.15 7.1-3.65 13.95-5.9m-139.1-52.65-23.4.4.6-1.3 23.2-.95zm33.3-.9 1.25-2.45 16.65-.7.45 2.55zm32.45 1.9 1.5 12.65-4.25-11.15zm10.95 2.1L190.9 222l-16.25-9.5zm11.6-4.85 13.3 9.5-12.45-4.85zm6.95-4.4 14.75 1.7-12.4 2.1zm-1.25-28.05q.95-3.8-1.95-6.6l-3.1-2.05q3.15-4.6 3.35-8.95l-.4-3.45 1.45 1.25q1.6 4.65 7.5 13.1 2.95 4.25 5.6 7.55l-5.5 3.6q-3.55-.8-5.6-2.7zm64.15-25.1q.45 1.3.25 2.75-.7 4.6-7.7 8.65l.65-6.75 2.7-1.05q2.8-1.6 3.6-4.65z"/><path fill="#dbdcdc" d="m186.25 126.9-.55 2.45q-.4 3.15.3 6.45 2.1 10.6 13.95 19.15v.85q-6.4-2.95-11.35-8.05-9.85-10.15-2.35-20.85"/><path fill="#dbdcdc" d="m195.8 149.75 1.65 1.5q1.85 1.5 2.65 1.55l-.05 3.15-2.1-2.3q-2.15-2.55-2.15-3.9m-28.2-34.5-16.65-11 13.55 5.9zm-4.3 142.55 4.55 7.3-2.55.25-2.85-4.1z"/><path fill="#d9b536" d="m187.3 167.5 1.9-3.5q5.2 2.15 5.35 5.75.1 1.8-.85 3.15-.8-3.05-3.65-4.55zm19.1 5.95q2.05 2.3 5.55 3.7l-1.6 1.95-3.3.1-1.1-.5-4-1.35zm-29.65 15.15q-9.3 1.95-15.1-5.7l3.85-1.85.9 1.35q1.25 1.55 3.05 2.55 5.9 3.3 15.5.2-3.5 2.5-8.2 3.45"/><path fill="#d9b536" d="m174.85 177.8.4 1.3q.6 1.5 1.5 2.35 2.95 2.75 8.2-1.95-.9 1.5-2.4 2.8-3 2.6-5.85 1.7-2.35-.7-2.35-3.5zm24 2.55.25 1.95q1.1 1.6 5.3-.25l.25.4-2.85 1.75q-3.05 1.45-4.1-.05t-.05-2.8zm-54.9-27-.15 3.45q.05 4.05 1.15 7.1 3.55 9.75 16.15 5.8-3.3 1.8-7.15 2.5-7.65 1.5-10.3-3.65t-1.45-10.7z"/><path fill="#d9b536" d="M165.7 179.45q-11.45 2.35-17.65-.7-3.6-3-4.6-6.55l-.25-2.95 3.55 2.7.9 1.4q1.35 1.65 3.85 2.75 8.05 3.5 24.35.4-4.45 1.8-10.15 2.95m93-29.75 1.45 1.45q1.75 1.4 3.55 1.25v1.4q-.3 1.35-2 1t-2.85-1.05l-.85-.65z"/><path fill="#b94100" d="M100.45 278.2q-1.65-1.95-1.25-6.6l.75-4.3q11.35-42.35 34.15-69.1 11.4-13.4 20.5-18.3 3.35.8 11.35.25-26.75 7.45-48.8 53.5-11 23-16.7 44.55M86.9 294.55q-2.75 1.55-6.25 2.4-7.1 1.7-11.05-1.95l5.25-4.85 4.3.5q5.05-.05 8.9-2.9l-.65 2.55q-.6 2.85-.5 4.25m11.2-11.9 4.55 4.95.4 2.55q-3.95-2.7-5.65-2.55z"/><path fill="#b94100" d="m151.75 207.85-2.7.4q-3.3.75-6.15 2.4-9.05 5.4-10.2 18.35l-1.8 3.1q-1.85 3.45-2 5.15-.95-1.5-1.55-5.3-1.1-7.6.85-19l4.5-6.5 18.75-1zm51.2-3.95 4.4 2.95q-2.95-.6-5.95 0l-2.4.7-1.15-3.4zm-13.05 9.05v-3.25l9.5 4.25 1 3.4zm-8.35 6.25 1-1.85 7.05 4.7.15 2.1z"/><path fill="#b94100" d="m245.25 251.7-1.55 2.55-7.4.85q-8.8 0-15.9-4.25-12.5-8.7-21.35-13.4-16-8.65-33.25-10.15-.55-3.1-1.95-6.55-2.7-6.9-6.6-8.8l6-2.6 3.95 12.15 7.8-8.8 7.55 4.65.95 3.4q2 3.95 7.1 6.4 21.7 9.55 32.1 17.75 9.15 7.25 16.75 7.75 3.8.25 5.8-.95m20.55-63.35q-1.6-3.05-11.9-10.8l-9.95-7.2q2.1-.5 3.6-2.7l1.1-2.15 7.55 5.6q8.3 6.95 12.1 13.9 4.15 6.55 12.3 24.45 8.3 18.3 13.75 33l1.2 6.55q.3 7.4-4.25 11.6.7-5.05.35-12.25-.2-4.6-12.1-30.9-8.9-19.65-13.75-29.1m45.7 57.2-.25-5.05q.75 5.5 3.9 12.75 2.25 5.1 4.55 8.85l-3.7-1.3q-3.35-4.95-4.5-15.25m-227.3 30.8q-2.5 10.05-7.95 16L73.9 291l4.8-7.85q5.15-9.15 6.95-15.65zm86.35-157.15q-13.85-16.45-17.3-34.35l2.8 5.75q3.5 6.95 7.25 13.2 12 19.9 21.6 24.65l-1.15 3.6q-6.25-4.65-13.2-12.85"/><path fill="#004a7e" d="M163.4 92.85q-.05-.85.25-1.4l.3-.4q10.15 7.45 16.4 20.2 3.15 6.35 4.25 11.25-2.85-8.45-12.3-19.9zm100.25 36.65-.6-1.9q2-5.35 8.8-14.55 6.4-8.6 7.25-8.4t-.4 2.9q-1.35 1.3-3.9 4.7-5.1 6.8-11.15 17.25M61.55 304.7l.35 4.25q-2.8-.65-4.05-5.4l-.65-4.6 1.35 2.6q1.6 2.65 3 3.15m-5.4-8.3 1.15 6.55q-3.5-4.7-5.15-8.35z"/><path fill="#004a7e" d="M67.05 314.35q-4.25-.45-5.4-6.35l-.35-5.85 1.25 2.5q1.95 2.55 5.3 2.9zm1.05-8.1.25 3.6q.9 3.8 4.45 4.75l10.1 2.55 1.8.35q2 .1 2.8-.9l-1.05 2.3q-1.65 2.2-4.35 1.65l-6.55-.7q-3.95-.5-6.75-2-1.45-.5-1.25-6.1zm19.4-11.85 6.8 6.1q7.9 6.15 13.25 6.7 4.55.45 7.45-.55 1.45-.5 1.95-1.1l-1.9 3.65q-3 3.6-8.2 3.15t-12.9-8.75l-6.6-8.25zm209.55-18.2 1.55 1.7q2.2 1.75 5.5 1.8l7.3.2q3.65-.25 4.7-2.2l-.75 3.05q-1.3 3.05-3.85 3.2h-7.25l-4.15-.15q-.55.15-1.2-.75-1.3-1.8-1.85-6.85"/><path fill="#004a7e" d="m316 277.15 1.35.3q1.65-.1 3.2-1.85-1.65 5.75-2.35 6.35-1.75 1.5-4.2.25zm4.65-1.1.75.05 1.95-.6-.95 3q-1.3 2.95-3.15 2.5zm4.65 1.05q-1.3 1.95-2.85 1.3l1.5-3.25.9.1 1.45-.25zm-45.85-10.95 2.4 2.65q3.05 2.55 6.4 2.1 3.3-.45 8.85-3.05l4.9-2.45q-2.4 2.55-5.55 5-6.3 4.95-10.1 4.55-4.25-.45-6.75-4.2-2.4-3.65-.15-4.6m20 2.55q1.5-.75 3.4-.55l1.6.35-.2 5.3q-.65-2.15-2.8-3.85zM118.1 364l.15 1.55q.1 1.85-.4 3.4-1.5 5-7.8 5.3-8.1 1.35-10.8-9.05-.8-3.25-1-7.25l-.05-3.4.15 2.3q.35 2.8 1.1 5.1 2.4 7.4 8.2 7.5 9.05.1 10.45-5.45m33.6-.55-.75 3.4q-1.5 3.5-5.25 4.25t-7.5-1.45l-3.05-2.4q.3-1.25-.25-3.75l-.6-2.25 2.9 3q3.9 2.95 9 2.65 2.55-.05 4.25-1.75z"/><path fill="#004a7e" d="m118.5 365.15 2.4 1.85q3.15 1.75 7.2 1.45t5.7-2.4l.9-2.05-.3 4.2q-1.35 4.4-6.65 5.2-3.1.7-6.75-1.2l-3-2.1q.95-3.8.5-4.95m32.25-4.45 2.4 1.55q3.2 1.4 7 .6 3.85-.85 5.8-2.4l1.15-1.4-.45 3.5q-1.45 3.7-6.5 4.4-4.1.55-6.75-.1l-1.8-.7zm11.4-10.75 3.9.9q4.8.25 9.35-2.75v.85q-.1 1.05-.7 2.1-1.95 3.4-7.9 5.35zm49.1-46.45 15.7 5.75 1.9.15 1.1-.55q-.35 4.3-4.2 3.8-2.45-.3-9.9-3.2l-6.95-2.8zm19.1 1.8q10.45 3.2 11.9 2.9l-1.1 1.45q-1.45 1.4-3.25 1.15l-4.95-1-2.7-.7q.35-2.3.1-3.8"/><path fill="#0d131a" d="M209.45 133q.05-.25.65-.2.6.1.55.35l.4 4.9q1.3 5.15 5.7 7.45 4.45 2.3 8.95 1.55 2.25-.35 3.8-1.3.2-.1.5.4t.1.65q-1.75 1.05-4.3 1.55-5.05.9-9.9-1.65-4.9-2.55-6.15-8.35z"/><path fill="#005b96" d="M221.55 141q.25 1.6-.85 2.8-.95 1.05-1.85 1.05-1.05.2-2.3-.5-1.7-.95-1.85-2.95-.2-1.9.85-3.05.5-.55 1.05-.75z"/><path fill="#0d131a" d="m221.25 141.45-.05-.25-4.65-3.15q-1.6.8-1.6 2.85l.05.45q.15 1.5 1.35 2.4 1.05.8 2.45.65.85 0 1.65-.85.8-1.05.8-2.1m.65-.7.05.2q.15 1.8-1 3.05-.8 1-2.2 1.2-1.4.25-2.85-.8t-1.7-2.9q-.2-2.05 1.05-3.45.65-.7 1.35-1z"/><path fill="#0d131a" d="M216.6 140.1q.6-1 1.5-1.1.8-.05 1.3.5.6.6.35 1.7-.55 1.7-2.05 1.2-1.05-.3-1.15-1.35zm35.35.7q.2 2.4-1.25 4.05-.9.95-1.95.9l-.9-.2z"/><path fill="#0d131a" d="m247.25 145.9 5.5-6.3-.1 2.25q-.35 2.35-1.45 3.3-1.2 1.05-2.7 1z"/><path fill="#005b96" d="m251.95 140.8.05 1.25q-.15 1.5-1.25 2.65l-1.4.8-1.1.05z"/><path fill="#0d131a" d="m249.05 144.55 1.7-2.15q.3 1.1-.35 1.85-.35.35-.9.35z"/><path fill="#fff" d="m250.25 142.9 1.2-1.4q.3.75-.2 1.25l-.65.25z"/><path fill="#0d131a" d="M207.35 110.65q1.85-.9 3.2-1.05 2.3-.35 4.55.85 4 2.15 11.75 8.45 10.6 8.65 16.8 16.85l5.5-10.15q4.35-7.55 6.5-9.15l.05-.05q1.4-1.25 2.7-.85 2.2.5 3.5 4.3l1.45 5.65q1.15 6-.1 9.25-1.15 2.9-4.85 5.8l-3.65 2.5q-.2.15-.35-.4l-.05-.6 3.15-2.4q3.25-2.9 4.3-5.45 1.1-2.9 0-8.6l-1.4-5.25q-.3-1.05-.95-2-.7-1.15-1.4-1.3-.55-.2-1.35.55l-.1.1q-2 1.4-6.35 8.7-3.05 5.2-5.8 10.6l-.65.65-.7-.55q-4.9-7.05-16.25-16.25-9.4-7.6-12.7-9.05-2.4-1-5.7.65l-4.1 2.75q-4.3 3.3-5.4 6.45t.55 8.65q.8 2.75 1.9 4.95l.8 1.45q1.05 1.6 2.35 2.45l4.2 2.35q2.2 1.1 5.35 2.15.3.1.1.7-.25.55-.55.45l-5.6-2-4.35-2.35q-1.6-.95-3-2.95l-1.05-1.8q-1.2-2.45-2.05-5.4-1.65-5.8-.45-9.35 1.25-3.55 5.7-7.2 2.25-1.85 4.5-3.1"/><path fill="#0d131a" d="M255.35 135.5q-.05-.25.4-.5l.4-.05-.3 4.65q-.8 4.85-3.05 7.05-2 1.65-4.55 1.8l-2.35-.2q-.25-.05-.15-.4.15-.35.4-.3.4.2 2 0 2.3-.3 3.95-1.7 2-1.95 2.85-6.3z"/><path fill="#0d131a" d="m234.5 172.95 4.75-.95q5.3-1.7 7.9-5.65 1.55-2.45 2.55-6.6 1.05-4.45 1.05-9.2l-.1-3.3.6-.2.6.1q.55 5.9-.5 11.7-1 5.35-2.95 8.4l-.05.05q-3.2 4.7-8.7 6.55l-4.9.9q-3.35.15-6.5-.9-2.8-.9-6.85-3.25-3.85-2.2-8.5-7.4-3.75-4.15-6.15-7.95-1.1-1.65-2.25-2.75l-.95-.8q-.6-.6-.5-.8.1-.35 1.65.45 1.75 1 3.4 3.3 8.1 11.15 14.05 14.6 7.3 4.2 12.35 3.7"/><path fill="#0d131a" d="M201.65 158q-.25-1.6.2-2.75l.75-1.4 1.85-2.2q.2-.25.7.2.45.45.25.7l-2 2.8-.2.55q-.2.75 0 1.85.35 2.45 2.2 6.5 2.4 5.35 5.5 8 2.9 2.5 5.95 3.05 1.5.25 2.45 0l1.65-.65q1.7-1.15 2.25-3.8.1-.3.65-.2t.5.4q-.55 3.2-2.35 4.8-1.3 1.2-2.65 1.2l-3-.3q-3.6-.8-6.5-3.3-3.25-2.8-5.8-8.4-1.95-4.2-2.4-7.05"/><path fill="#0d131a" d="M204.6 152.4q0-.25.6-.25t.6.25l-.15 3.1-.05 4.1q1.35-.5 3.3-2 .25-.15.55.3t.1.65q-1.45 1.15-2.8 1.7l-1.6.35q-.45-.25-.45-.75-.2-1.15-.15-4.3z"/><path fill="#0d131a" d="M208.7 158.85q0-.25.6-.3.6 0 .6.25 0 3.9.2 4.8l2.95-1.4.5.5q.25.55 0 .6-3.3 1.55-3.95 1.05l-.4-.85q-.45-1.45-.5-4.65"/><path fill="#0d131a" d="M213 163.1q-.05-.25.55-.3t.65.2v1.35q.05 1.55.35 2.4l2.5-.65q.25-.05.35.55t-.15.65l-2.85.3q-.5-.05-.65-.5-.4-1-.6-2.55zm-20.65-11.2q-.15-.3.9 0 1.05.25 1.15.55l4.2 8.45q5.05 9.05 9.5 12.7 3.8 3.25 8.1 2.8 2.15-.25 3.7-1.2.3-.15.75.5.4.65.1.85-1.7 1.1-4.25 1.4-5.05.55-9.4-3.15-4.65-3.8-10.05-13.45zm49.6.35q-.25.25-.75-.15-.55-.4-.3-.6.55-.4 1.45-2.2l1.25-3.45q.35-1 .7-.9.45.1-.15 2.55-1 3.75-2.2 4.75"/><path fill="#0d131a" d="m192.95 113.9.9-1.05q.8-.8 1-.65.5.3-.85 2.25-2.4 3.45-4.75 7.75-4.65 8.55-4.8 13.3v.5q0 5.15 3.55 9.7 3.6 4.6 11.75 9.75-.35-2.9-.35-4.35 0-9.9 1.45-13.65.1-.3.65 0 .5.25.3.55-.7 1.15-.95 7.25-.2 5-.05 10.65l-.3.9-.9-.25q-9.75-6-13.45-10.4-3.95-4.65-3.75-10.55.15-5 5.2-13.6 2.55-4.35 5.35-8.1"/><path fill="#0d131a" d="m196.15 149.9 1.25 1.7 3 3.75q.25.25-.45.5l-.9.05-2.75-3.7-1.1-1.75-.9-1.75q-.65-1.5-.25-1.7.35-.2 2.1 2.9m35.35 15.55.8.05.8.4 1.85 1 2.6 2q.6.6.35 1.1-.3.5-1.1-.3l-3.65-3.1q-1.75-1-1.65-1.15m10.7 3.6q-.6.6-.9.25-.35-.4.2-.95.9-.9 2.45-1.9 1.25-.6 1.3-.5l-.95.95zm-49.05-54-.65.55-.85-.1q-5.05-16-17.9-28.75-7.25-7.25-14.95-11.7-3.3-1.95-5.1-2l-1.15.3-.45 1.55q-.25 2.5.95 7.2 2.55 9.85 7.75 20.2 9.65 19.35 23.6 28.8.25.2-.2.85t-.7.45q-15.3-10.65-24.75-29.95-4.7-9.65-7.2-19.95-1.45-5.75-.7-8.75l1-1.8q.8-.7 2.75-.5 2.6.3 6.1 2.3 7.8 4.45 14.85 11.6 12.55 12.8 17.6 29.7"/><path fill="#0d131a" d="M169.15 96.1q-4.05-4.35-5.4-4.4-.25 0-.25.4 0 2.85 3.9 10.6 3.6 7.05 9.35 14.35 5.25 6.65 7.35 7.6h.25l.1-.45q0-1.9-1.85-6.6-2.1-5.35-5.45-10.85-3.45-5.8-8-10.65m-6.45-5.25q.5-.5 1.25-.4 2.25.2 7 5.25 4.6 4.9 7.85 10.3 3.35 5.65 5.4 11.1 2.1 5.8 1.35 7.8-.3.75-1 .95-2.25.7-8.75-7.25-6.1-7.6-9.8-14.9-3.75-7.4-3.75-11.25 0-1.15.45-1.6m122.4-.8q1.35.05 1.95.65 1.7 1.15.25 6.15l-1.7 5.6q-2.15 6.2-5.05 12.1-9.15 18.55-22.75 27.9-.3.2-.75-.35-.4-.55-.15-.75 12.65-9.05 21.9-27.4 4.65-9.3 7-17.55.9-2.8.7-4l-.4-.7-1.4-.25q-1.9.25-4.6 2.6-4.1 3.5-10.05 11.2-6.7 8.6-8.65 13.9-.1.3-.35-.4t-.15-1.05l1.7-4.45q1.15-2.75 2.75-4.9 3.2-4.45 7.35-9.05 3.7-4.15 6.35-6.45 3.3-2.85 6.05-2.8"/><path fill="#0d131a" d="m278.9 105.95-.05-.3-.2.1-2.15 2.4q-3.2 3.75-7.4 10.25-4.05 6.25-5.4 9.3l-.6.1q-.5-.25-.35-.55 1.45-3.4 4.9-9.1 3.85-6.4 6.95-10.05 2.45-2.85 3.65-3.7.85-.6 1.5-.4.6.25.6.85 0 1.35-1.7 5.1-1.75 3.8-5.75 10.25-5.4 8.7-9.65 13.15l-.5-.3-.25-.65q4.15-4.3 9.6-13.45 3.95-6.55 5.8-10.65zm-93.85-7.55q6.2-.5 11.05.25.35.1.3 1.05-.05 1-.4.95l-10.6-.55q-.3 0-.45-.85-.2-.85.1-.85m-16.8 16.55q.2.1 0 1.1-.25.95-.5.75l-17.8-11.8q-.65-.5-.6-.85.05-.25.85-.6l2.3-.8q3.05-.95 6.75-1.55.3-.05.55.9.25.9-.05.95-3.05.35-8.05 1.45z"/><path fill="#0d131a" d="m188.3 84.35 1.3.2 12 6q12.3 6.65 17.6 11.8.25.25-.05 1t-.55.5q-3.55-3.45-14.1-9.7-7.15-4.25-14.45-8.05 2.15 3.7 5.3 10.4l3.6 8q.75 2 .35 2.25-.3.15-1.15-1.55l-9.6-19.6q-.5-1-.25-1.25m68.55 11.25q.4-.4.65-.35l.45.7q.45 1.1.55 4.45.15 5.35-1.5 10.9l-.5 1.15-.65.55q-.4-.15 0-1.8 1.25-5.9 1.25-9.8l-.1-4.2q-2.3 3.65-13.55 25.7-.15.25-.75-.25-.55-.5-.45-.8 3.2-6.8 8.55-16.25 5-8.9 6.05-10"/><path fill="#0d131a" d="M268.75 99.1q.85-.15 1 0 .2.25-.1 1.1l-3.9 8.8q-3.95 9-4.3 10.15-.15.4-1.5-.5.3-.95 3.35-7.7l4.5-9.85q-3.55 1.95-9.9 6.65-.25.2-.7-.45t-.2-.85l5.2-3.65q4.9-3.3 6.55-3.7"/><path fill="#fcd13e" d="M197.7 61.5q-3.1-.15-4.9 2.25-1.1 1.45-1.3 3.65-.2 1.6.1 2.7l.3 1.2q1.3 4.2-.4 6.1-1.85 1.95-7.2-.65-4.3-2.15-7.4-5.05-2.35-2.2-2.35-4.85 0-1.45.85-3.65l.1-.35q.7-1.8-.2-3.75-1.65-3.55-8.15-8.4-4.7-3.55-11.5-4.7l-9.4-.3q1.85 1.05 3.35 2.7 1.55 1.75 1.9 3.3l.15 1.05q0 2.15-1.5 3.15-2.7 1.9-5.75-.4-2.25-1.7-7.1-7.9l-2.65-3.45q-4.8-6.15-13.9-8.25-6.75-1.6-10.85-.6-4.2.95-5.45 3.15-.55 1.05-.5 2.6 0 1.6.6 3.25l-.85 2.05q-2.2-5.6-.7-8.35 1.6-2.85 6.45-3.9 4.65-1.15 11.85.6 9.5 2.3 14.6 8.85l2.65 3.45q4.7 6.1 6.5 7.55 2.2 1.7 4.2.35 1.15-.8.75-2.85-.45-2-2-3.7-1.25-1.4-2.8-2.2-1-.5-1.05-.75-.05-.4.6-.6l8-.65q8.8.4 15.35 5.3 11.05 8.25 8.25 14.5l-.15.4q-.6 1.6-.4 2.75.25 1.7 2.15 3.45 3 2.85 7.2 4.9 4.3 2.1 5.3 1.1.7-.7.55-2.15l-.6-2.65-.35-1.3q-1-4.05 1.6-7.5 2.2-2.85 6.15-2.7 10.8.3 18.2 4.35 10.2 5.7 15.95 19.2 0-5.45-1.9-9.15-.55-1.1-.15-1.4l1.2.15 2.9 1.75q3.25 2.5 5.45 6.45 7.05 12.5 1.3 34.65-.1.4-1.5-.4 1.95-7.7 2.45-17.15.45-9.4-3.5-16.35-2.6-4.55-6.55-7.4 2.2 4.5 1.9 8.95l-.35 2.4q-.2 1-.7 1.05-.4 0-.8-.9Q225.65 71.9 215.4 66q-7.1-4.1-17.7-4.5"/><path fill="#0d131a" d="M138.25 22.45q-7.05-8.9-15.6-12.55-4.95-2.1-12.3-2.8-3.55-.35-5.05 2.5-1.15 2-1.8 7.45-.25 2.55-.9 5-.85 3.05-2.4 3.55-1.25.45-3.35-.4l-4.75-2.55q-3.95-2.3-5-1.75-.7.3-.95 1.55-.1.45-.05 1.45l.05 1.5q.2 3.1-1.05 4.05-1 .75-2 .55-2.05-.3-3.8-2.25l-.7-.95q-3.85-5.35-10.75-8.65-4.95-2.3-12.9-1.95-5.8.25-11.5 1.75 12.7 2.15 17.65 6 3.55 2.75 3.6 7.05l-.1 2.55q-.35 2.85 2 4.05 2.35 1.15 8.55 1.25h2.55q2.65.25 3.3 1.35.65 1.05.65 2.9 0 1.7-1.35 2.6-1.15.75-2.9.35l-1.85-.6q-3.55-1.8-6.2-2.5-2.65-.6-6.4.65-2.75.95-5.25 2.55 7.65-.5 12.6 1.2 7.15 2.45 10.15 9.45 2 4.65 4.95 7.75 3.1 3.25 6.65 4.15l4.95.2q2.45-.5 4.35-2 3.55-2.8 3.75-9.55.2-5.15-1.5-11.15-.3-1.15-.1-1.5.15-.25 1.2-.6 3.9-1.4 8.75-.85 8.3.95 15.15 7.95 4.1 3.9 3.3 8.4-.3 1.85-2 4.6l-2.4 3.95q-2 4.3-.3 6.6 1.05 1.6 4.05 2.85l2.75.9 5.95 1.85q3.85 1.7 3.55 4.1-.25 2.05-1 2.6l-2 .4h-.75q-2.05 0-4.95 1-4.15 1.45-5.55 4.05 5.5-3.1 11-3.35 9.05-.45 17.3 6.8.25.25.05 1.15t-.45.65q-9.3-8.05-19.45-6.65-3.25.45-6.2 1.8-1.2.55-2.55 1.4l-1.05.35q-.45-.3-.2-1.1.7-3.2 4.4-5.45 3.55-2.15 7.65-2.2l.9-.05.75-.15q.5-.35.55-1.5.1-1.7-8.3-4l-3.5-1.15q-3.55-1.45-4.7-3.3-2.2-3.15-.3-7.4l3.1-4.9q1.25-1.5 1.65-3.55.75-4.05-2.9-7.55-6.75-6.9-14.5-7.65-4.2-.4-7.45.9 1.9 6.55 1.65 12.35-.3 7.5-4.35 10.65-2.2 1.75-5 2.3l-5.7-.2Q83.7 68.6 79 57.4q-3.3-7.9-12.85-9.85l-6.25-.5-2.75.2q-.9.15-1.1-.3-.1-.2.1-.55l.35-.5q1.75-1.6 4.45-2.9 4.85-2.3 9.25-1.3l3.95 1.35 2.25 1q2.15.9 3.05.3.8-.45.75-1.3 0-1.65-.65-2.15-.95-.7-2.95-.5h-1.45l-6.55-.45q-4.75-.8-5.5-3.25-.3-1-.2-2.45l.2-2.1q.2-4.35-3.5-7.3-4.9-4-17-6.05-.85-.1-.85-.5-.1-.6.85-.9l9.45-2.15q10.1-1.35 16.55 1.6 4.95 2.3 7.9 5 1.4 1.3 3.35 4l1.45 1.65q1.75 1.4 3.1.45.3-.2.3-.95l-.1-1.55.1-2.75q.3-2.05 1.8-2.75 2.25-1.05 6.4 1.35 2.95 1.7 4.1 2.2 1.65.75 2.4.45 1.25-.4 1.7-2.5l.85-4.6q.65-5.7 1.9-8.1 2.2-4.2 7.1-3.65 8.3.9 13.85 3.65 7.6 3.8 14.7 12.7 6.45 8.1 10.45 10.15 2.3 1.2 4.35.25l.95-.4q1-.3 1.2 0 .2.35-1.6 1.25-2.9 1.3-5.75 0-4.3-2-10.85-10.25"/><path fill="#0d131a" d="M252.4 65.3q-1.05.2-1.6.75-.5.6-.45 1.6.15 1.35 1.75 1.9l3.55.35 6.15.45q6.45 1.55 7.85 7.05 1.55 5.9 1.3 11.3-.2 5.25-2.05 7.6-3.2 4.2-7.1 8.25-.25.25-.9 0-.65-.2-.4-.45l3.1-3.5 3.9-4.85q1.65-2.15 1.7-6.9.05-5.1-1.85-10.9-2.2-6.8-10.9-6.45l-3.55-.2q-3.6-.75-3.8-3.35-.15-1.85.95-2.95.95-.95 2.6-1.3l1.45-.15h.8q.6-.1 1-.45 1.35-1.35.55-5.9-1.2-6.7-6.5-14-6.55-9.1-16.05-13.3-10.65-4.7-19-1.45-2.6 1-4.65 2.65l-1.55 1.5-3.15 3q-2.4 1.8-4.9 2-2.95.25-5.95-2.6-1.5-1.45-3.45-4.3-1.95-2.7-3.4-4.05-1.7-1.5-3.45-1.9-3.6-.75-7.9 3.05l-3.55 2.75-2.05.8q-2.15.65-5-.55-5.7-2.4-10.25-11.25-3.25-6.35-3.25-11.45 0-3.05 1.85-6.65-2.85 1.85-4.8 4.9-2.7 4.2-2.95 9.7l-.05 1.4q0 7.05 3.9 11.4 1.95 2.25 4.1 3.1.25.1-.5.55-.75.5-1.05.4-2.4-.8-4.5-3.2-4.1-4.8-3.7-13.35.4-8.5 5.45-13.25 2.5-2.35 5-3.05l1.15.2-.05.45-.5.65q-1.3 1.5-1.75 4.35-.8 5.55 3.05 13.15 4.1 8 9.1 10.05 2.5 1.05 4.4.4l1.4-.55q1.75-.95 3.65-2.7 3.95-3.55 9-2.5 2.2.45 4.05 1.95 1.9 1.45 3.9 4.3 4.15 6.15 8 5.85 2.1-.15 4.15-1.6l2.85-2.5 1.05-1.05q4.95-4.65 11.95-5.2 6.9-.6 14.55 2.85 9.05 4.1 15.65 13.05 5.85 7.95 7.25 15.75 1 5.65-.95 7.2-.65.5-1.45.7l-1.75.25zm-9 105.9q-.3-.2.55-.95.9-.8 1.15-.6l9.5 6.55q9.45 7.05 12 11.45 3.8 6.65 14.6 31.7 11.45 26.6 11.6 30.55.15 3.55-.7 7.55l-.9 3.4q-.1.3-.55-.25-.5-.5-.4-.85 1.2-4.35 1-9.8-.15-3.7-11.8-29.8-10.9-24.45-14.7-31.05-2.4-4.15-12.05-11.4zm19.35-15.35q-.2-.25.4-1.1.55-.85.75-.6l15.3 23.75.65 1.2.15.85q-.35.35-1.55-1.05-.8-.85-8.1-11.7z"/><path fill="#0d131a" d="M283.3 164.65q2.95 7.85 4.85 15.15l.2 1.25q0 .95-.3 1-.65.15-1.4-1.8l-6.45-20.1-1.1 17.85q-.05.35-.85-.2-.85-.55-.8-.9l1.75-18.45q.1-1 .65-1.05.5-.05.9.85z"/><path fill="#0d131a" d="M291.3 171.05q.45-.9.95-.75.4.05.5 1.05l2.5 17.65q2.2 4.65 4.95 9.9 5.15 9.9 8.4 14.65.1 4.1-.15 3.75-3.4-4.95-9.55-16.95l-5.5-11.15-.05-.25-1.65-16.15-2.45 4.75-1.4 2.95q-.2.3-.8-.6-.65-.95-.5-1.25zm-34.85-29.75q-.1-.3.55-.45t.7.2l1.25 4.15q1 4.35.3 6.7-.9 2.85-4.15 5.45l-4.3 2.95-.3-1.6q6.1-4.35 6.9-7.25.65-2.05-.1-6.25z"/><path fill="#0d131a" d="M258.95 140.95q-.15-.3.6-.85.7-.5.85-.25l2.05 5q1.95 5.3 2.05 8.2.1 1.5-1 2.35-1.7 1.25-6.15-1.6-.3-.2.1-.85.45-.65.7-.5 3.95 2.45 4.85 1.85l.25-.9q-.1-2.7-2.2-7.8zm72.65 104.7q1.55 7.85 1.1 14.8-.5 8.75-4.35 9.5-3.35.65-6.8-3.5-3.6-4.2-7.75-14-4.05-9.65-4.05-26.75v-1.15l-5.35-25.6-.1-.6q0-.6.3-.75.55-.3 1.25.85l2.9 5.15 4.35 8.5q1.05 2.3.4 2.6-.3.1-.85-.55l-1.05-1.75-5.95-12.25 5.75 24.1.1 1.2q0 5.7.6 11.1 1 9.35 3.45 15.15 7.6 18.15 12.65 17 2.7-.6 2.9-7.95.15-5.95-1.35-14.85-1.05-6.25-4.7-12.9-2.7-4.9-5.6-8.25-.2-.25.05-.7.25-.4.45-.2 4.1 4.8 6.05 7.95 4.15 6.6 5.6 13.85"/><path fill="#0d131a" d="M311.55 200.75q.6-.05.9 1.05l3.4 9.5q3.55 10.15 4.4 13.5.95 2.85.35 3-.4.15-1.1-1.65l-7.55-22.45.15 7.15q0 .35-.85-.35-.9-.65-.9-1l.6-7.45q.15-1.25.6-1.3m13.3 51.75q1.7 6.8 3.05 10.4 1.15 3 1.7 2.95.35-.15.4-1.3l.05-2.85q0-3.75-1.5-10.1-3.65-15.4-5.15-14.85-.35.1-.45.6-.15.85 0 3.25.25 5.35 1.9 11.9m5.05-1q1.7 8 1.2 12.4-.25 2.2-.85 2.75-.4.4-1.1.2-2.55-.8-5.85-13.95-2.35-9.4-1.85-13.95.3-2.8 1.5-3.3l.15-.05q1.45-.25 2.85 2.45 1.85 3.7 3.95 13.45m-48.1 13.2q-1.15.3-1.75 1.1l-.4.8-.1.85q0 2.05 1.75 3.8 1.75 1.7 4.65 2.4 2.15.5 6.05-1.4 2.8-1.35 4.95-3.05l4.65-4.45q3.15-3.45 3.45-5.3l.05-.8q0-1.4-.7-3.2-.55-1.55-1.3-2.55l-2.85 6.15q-.3.85-.8.85l-.45-.3-.15-.6q-.5-2.55-1-3.75-4.45 6.15-7.05 6.6l-.7-.25-.05-.05q-1.9 1.1-5.15 2.2zm-2 7.7q-1.8-2.2-1.8-4.95l.1-1.15.5-1.35q.85-1.35 2.8-1.75l4.6-1.45q3.25-1.25 4.45-2.35h.05l.55.15.4.4q2.6-1.75 5.8-5.9.55-.55.8-.55l.55.75 1.05 3.1 2.65-5.2q.25-.65.55-.65l.7.45 1.85 2.4q1.65 2.8 1.2 5.35-.4 2.45-4.25 6.55l-4.4 4.15q-2.2 1.7-4.8 3.1-5.2 2.75-8.15 2.05-3.3-.8-5.2-3.15"/><path fill="#0d131a" d="M320.15 261.65q.25.2-.1.85-.4.7-.7.5-3.6-1.9-5.25-1.75-1.85.15-11.35 4.55-.3.15-.65-.55t-.05-.85l5.5-2.6q5-2.3 6.4-2.4 2.3-.2 6.2 2.25"/><path fill="#0d131a" d="m305.1 264.3-.1 3.85q-.1 4.3.2 6.9.15 1.65-.2 1.7-.3.05-.55-.4l-.3-.8q-.55-2.55-.7-7l-.05-4.15q0-.35.85-.4t.85.3"/><path fill="#0d131a" d="M299 267.65q5.1-1.2 5.7.9l-.5.6-.65-.05q-.1-.3-1.35-.3l-2.85.4q-.3.1-.5-.7-.2-.75.15-.85m4.95 5.15q.15-.3.6.25.5.5.3.8l-1.35 2.2q-.75 1.3-1.25 1-.15-.15 0-.75t.4-.95z"/><path fill="#0d131a" d="m317.55 261.35.95-.05q1 .3.95.65-.7 8.95-3.25 17.6-.8 2.8-1.7 3.8-.85.95-2.8 1.35l-5.35.45-5 .05q-4.15-.5-5.15-4.4l-2.15-9q2.15 0 2.05-.45l2.15 8.6q.4 1.75 1.25 2.5.7.65 2 .75l4.85.15 5.15-.25q1.3-.15 1.8-.7.65-.75 1.4-3.3 2-6.6 2.85-17.75"/><path fill="#0d131a" d="M322.7 266.85q.1-.3.85 0 .8.25.75.55l-2.65 7.9-2.75 6.65q-1 1.95-4.75 1.3-.35-.05-.2-.7.1-.65.4-.6l1.7.1q1.15-.1 1.4-.6l2.7-6.7q2.15-5.85 2.55-7.9"/><path fill="#0d131a" d="M325.75 268.7q-.1.25.65.5l.75.2-5 10.65q-.55 1.2-1.8 1.55-.95.25-1.8 0-.3-.05-.1-.65.15-.6.45-.55 1.3.3 1.75-.75z"/><path fill="#0d131a" d="m324 277.5 4-8.5h1.9l-4.3 8.8q-.5 1.05-1.65 1.35l-1.7-.05q-.35-.05-.15-.65.15-.6.45-.5 1.15.3 1.45-.45m-154.2-99.35.55.45q.2.55-.1.65-6.05 2.45-13.4 6.85-14.65 8.75-22 18.95-8.85 12.25-19.25 36.3-10.1 23.3-14.15 39.95l-.7-1.35q-.65-1.7-.6-2 3.95-16.3 14.35-39.4T134 202.8q7.55-10.5 22.35-18.55 7.4-4.05 13.45-6.1"/><path fill="#0d131a" d="M99.65 276.2q.1-1.05.45-1.15.55-.05 1.1 2.15l.85 4.4q1.05 4.85 2.2 7.55l-.5 1.05q-.6.7-.7.4-1.2-2.8-2.2-7.2l-.9-4.05q-.4-1.9-.3-3.15m-2.5 7q.4-1.05.7-1.05.25 0 .3 1.15l-.05 1.4-.3 4.05-.5 3.7q-.2.85-.9.65-2.25-.8-4.95-2.5l-2.75-1.55q-.45.3-.85 1.85-.4 1.5-.5 3.15l-.35.6q-7 4.5-13.3 3.35-1.95-.4-3.65-1.3l-1.45-.9q-.25-.2.4-1.1.7-.9.95-.7l1.2.85q1.4.9 3.1 1.3 5.35 1.2 11.55-2.65.45-4.9 2.15-5.8.7-.45 1.65 0l2.7 1.6q1.75 1.05 3.4 1.9l1-6.2z"/><path fill="#0d131a" d="M97.15 288.55q-.3-.05-.1-1 .15-.9.5-.85 2.55.6 5.8 2.75l5.05 3.7 7.15 5.05q1.8 1.4 2.3 3.1.3 1.15.05 2.95-.5 4.35-3.75 6.95-3.2 2.6-8.45 1.8-8.35-1.25-18.7-16.9l-1.6 7.65q-1.4 5.6-3.45 9.2-.85 1.55-1.45 1.25-.45-.15.3-2.1 2-5.65 3.7-12.45l1.3-5.8q.1-.45.6-.65.55-.05.85.4l5.95 8.15q7.05 8.15 12.75 9 4.55.7 7.2-1.5 1.75-1.4 2.55-3.75l.4-2.15q.2-1.8-2.1-3.85l-2.35-1.75-3.55-2.45-1.35-1-4.35-3.3q-2.85-1.9-5.25-2.45"/><path fill="#0d131a" d="m68.3 295.45 1-.1q1 .2.95.55l-1.05 7.45-1.1 8.8q-.3 4.15 1.9 4.95 6.05 2.25 10.65 2.65l3.4-.1q1.15-.1 2.85-3.85l1.65-4.15q.85-2.3 1.2-4.35.5-3.15-.7-4.05-1.5-1.05-2.75-1.35l-.95-.1q-.3.1-.45-.55-.15-.7.1-.9 1.55-.9 4.9 1.55 1.7 1.25 1.7 3.95 0 1.7-.65 3.95l-.9 2.65q-.5 2.05-1.75 4.6-2 4-4.1 4.2l-3.85.25q-5.05-.2-11.2-2.6-2.05-.85-2.55-3.4-.2-1-.1-3.45z"/><path fill="#0d131a" d="M82.15 309.7q-.05-.3.55-.95.65-.65.75-.35l.55 3.85.15 1.05q.05.75-.25.8-.6.05-.95-1.8zm-18.45 3.9q-1.7-1.35-2.4-3.8-.55-1.95-1.15-6.95L59.6 298q-.05-.35.9-.4.95-.1 1 .2l.35 4.7q.45 5 .95 6.9 1 3.6 4.6 4.45.3.1.15.75-.1.65-.45.55-2.15-.55-3.4-1.55"/><path fill="#0d131a" d="M55.95 296.55q.95-.2 1 .15l.65 3.2q.75 3.35 1.25 4.65.85 2.25 3 3.55.25.15-.1.85l-.65.5q-2.5-1.3-3.7-4.35l-1.45-4.75-.85-3.3q-.05-.35.85-.5"/><path fill="#0d131a" d="m50.7 293.85 1.05-.1q1.1.15 1.15.45l1.5 3.5q1.8 3.7 3.4 4.95.25.2-.1.75-.4.6-.65.4-2.4-1.95-4.55-6.05z"/><path fill="#0d131a" d="M86.6 217.5q.8-1.2 1.25-.95.55.35.25 1.65l-2.5 10.85q-.1.45-2.2 1.95l3.3-11.6q-3.85 6-13.6 22.35l-.2.2-3.1 2.5q-3.7 3.3-7 7.3-10.45 12.8-13.05 28.4-.45 2.25-.45 4.8-.05 4.45 2.3 7.4 1.2 1.5 2.45 2.1l2.45 1.2q2.95 1.2 5.15 1.05 3.35-.25 6.9-2.55 4.15-2.7 7.2-7.55l.95-1.5q5.25-8.85 7.4-15.65 3.65-11.65 1.3-23.35-.05-.35.7-.45.8-.15.85.15 3.4 13.3-2.65 28.9-3 7.8-6.7 12.9-3.5 5.2-8.25 8.15-4 2.45-7.7 2.7-2.5.2-5.7-1.05L53.1 296q-2.2-1-3.9-3.95-2.85-4.9-1.5-12.3 2.6-15.55 13.05-28.5 5.2-6.45 11-10.75z"/><path fill="#0d131a" d="M83.9 230.1q2.45-3.4 6-7.3l3.05-3.25q.95-.85 1.3-.65t.1 1.3l-8.25 28.55q-.8 2.15-1.55 1.75-.4-.2-.25-1.2l.3-1.05 8.55-27.35-9.05 10.55q-1.3 1.7-1.75 1.35-.3-.3 1.55-2.7M67.65 256l-2.55.65q-3.25 1.95-6.8 8.1-5.6 9.7-5.7 19l.15 2.55q.4 2.75 1.35 3.8.55.65 1.55.55 1.8-.15 3.8-1.8l1.75-1.7q1.4-1.65 3.05-4.8 3.35-6.3 4.7-14.2 1.15-6.5.35-9.75-.55-2.2-1.65-2.4m-3.3-.5q2.05-1.1 3.5-.7.95.2 1.75 1.15 1.6 2.05 1.5 6.65-.05 2.5-.6 5.8-1.35 8.25-4.7 14.6-1.7 3.2-3.25 4.85l-2.05 2q-2.4 1.9-4.65 2.05-1.25.1-2.25-.6l-.75-.8q-2.8-4.15-1.3-12.35 1.4-7.5 5.4-14.2 3.75-6.4 7.4-8.45m51-82.35q.3-.3.5-.25.55.15.55 1.15l2.1 18.5 7.15-9.45q5.6-7.6 8.6-12.45l8.3-15.15q.2-.25.25 1.95l-.15 2.5-6.95 11.95q-4.55 7.6-11.2 16.1-5.2 6.65-5.9 7.1l-1.15.8q-.15-.05-.35-1.15l-1.6-19.35-8.8 22.95q-.3.9-.8.9-.5-.05-.7-1l-1.95-8.4L101.2 207l-.2.4-6.95 8.4q-7.1 8.6-8.15 10.15-.25.35.05-2.8l7-8.85 6.75-8.25q.4-5.15 1.5-11.95l1.05-5.75q.25-1.05.75-1.1.5 0 .8 1l.85 2.5 1.45 4.75q2.7-7.95 6-15.6l2.8-6.05q.15-.4.45-.7"/><path fill="#0d131a" d="M120.95 180.2q-.95-.65-.85-1.05.1-.55 1.4-.7l8.65-.4q.35-.05-.25 1l-.95 1.05-6.35-.5 4.6 2.25q.2.1-.15.95-.35.8-.65.65zm-19.25 13.15q.3-.1.45.95.2 1.05-.05 1.15l-23.45 10.9q5.35.35 20.75.1.35 0 .35.75 0 .8-.35.75-4.1.3-14.15.1L76 207.8l-.75-.05q-.4-.1-.5-.45-.1-.45.85-1.05 2.3-1.65 14.45-7.45 6.05-2.9 11.65-5.45m6.3-2.85q.5-.15.6 1 .05 1.15-.3 1.3l-2.95 1.55q-.4.2-.9-2.1 1.8-.85 3.55-1.75"/><path fill="#0d131a" d="M117.45 188.75q-.3.15-.35-.95t.25-1.25l8.85-3.8q.3-.15-.05 1-.35 1.1-.65 1.25zm15.1 17 9-.5 9.75-.5q.35 0 .35.8 0 .75-.35.75l-10 .6-8.85.6q-.35 0-.3-.85t.4-.9"/><path fill="#0d131a" d="m152.2 204.3.35 2.95.8 5.45 11-4.7 1.85-.15q.1.25-.4.7l-1.5.95q-4.85 2.95-10.75 4.65l-.95.05-.35-.65q-.6-2.95-.95-5.9l-.2-2.45v-1.45q.15-1 .4-1.05.5-.1.7 1.6"/><path fill="#0d131a" d="M177 209.6q.25.2.1.65l-.7 1.15q-3.2 5.1-8.4 10.4-.45.6-.9.5l-.6-.8-3.8-12.15q-.1-.3.75-.55.85-.3.9 0l3.15 11.5 8.15-9.8q.95-1.2 1.35-.9"/><path fill="#0d131a" d="M188.75 204.55q.55-.05.8 1.7l2.15 16.15q.15.95-.2 1.15-.25.1-.95-.35l-16.05-10q-.25-.2.15-.85.45-.65.7-.45l14.85 9.4-1.8-15.05-.05-.85q.05-.8.4-.85"/><path fill="#0d131a" d="M195 199.95q.5-.2 1.6 1.75 2.05 3.8 5.8 12.6.3.85 0 1.15l-1.05-.1-11.8-4.85q-.3-.1-.15-.9.1-.8.4-.7L201 214l-5.8-12.15q-.7-1.6-.2-1.9m-2.95-9.8q-.25-.1.05-.8.25-.75.55-.65l8.1 3.3.9.7-.8.75-3.65 1.9-.85-.45q-.65-.6-.4-.7l3.3-1.4z"/><path fill="#0d131a" d="M200.3 196.3q6 3.1 10.05 5.85.75.5.7.85-.05.5-.95.6l-12.5 1.65q-.35.05-.4-.75-.1-.8.2-.85l11.7-1.05-14.85-8.3q-1.65-.85-1.5-1.3.2-.35 2.35.7zm-27.1-74.05q.25-.2.85.55.6.7.35.95l-5.55 5.1q-.2.2-.75-.35-.55-.6-.3-.8z"/><path fill="#0d131a" d="M162.15 127.85q10.45-1.5 17.25 1.45 3.45 1.5 4.9 3.45.2.25-.45.7l-.85.15q-1.25-1.45-4.3-2.6-6.15-2.25-15.55-1.1-7.9.95-13.95 10.85-4.05 6.8-5.55 15.15-1.4 7.5-.05 11.05 1.85 4.9 7.75 4.9 2.95.05 5.5-.95 5.1-1.4 10.45-6.05 6.9-6.05 6.2-12.45-.55-5.1-3.85-6.95-1.95-1.15-4.55-1.05-1.75.1-2.9.55-3.4 1.45-4.85 4t-.6 5.55q.85 2.55 3.35 2.95l1.45.3-.5.5-.8.15q-1.3.1-2.5-.55-1.7-.9-2.3-3-.9-3.75.95-6.9 1.85-3.05 5.7-4.45l3.3-.55q2.7-.05 4.95 1.25 4.05 2.4 4.7 8 .9 7.35-6.8 13.9-5.65 4.8-11 6.35-3 1.1-6.45 1-6.8-.25-8.75-6.2-1.45-4.5-.2-12.35 1.35-8.55 5.3-15.15 3.05-5.1 6.85-8.15 3.9-3.15 8.15-3.75"/><path fill="#0d131a" d="M190.05 149.75q-.2-.25.55-.25t.95.25l.8 1.65q.7 2 .65 4.3-.1 7.3-7.35 15.1-7.7 8.3-21.85 10-11.95 1.4-16.75-1.65-3.05-2-4.35-7.1L142 167l.6.05q.6.4.6.7l.8 4.1q1.3 4.3 3.9 6 4.35 2.75 15.8 1.2 13.45-1.85 20.65-9.6 6.7-7.2 6.9-14.05.1-2.15-.5-4.05z"/><path fill="#0d131a" d="M188.4 164.65q0-.8.8-.8 1.9 0 3.85 2.1 2.25 2.35 2.05 5.55-.3 5-4.75 10.45-5.45 6.7-13.65 7.9-7.55 1.1-12.65-2.9-1.6-1.25-2.8-2.9l-.85-1.4q-.15-.3.55-.6l.85-.05.8 1.25q1.05 1.4 2.5 2.4 4.55 3.25 11.4 2.3 7.65-1.1 12.65-7.1 4.1-4.85 4.35-9.45.2-2.45-1.55-4.4-.7-.75-1.6-1.2l-1.15-.35q-.8 0-.8-.8"/><path fill="#0d131a" d="M176.9 183.3q2.2.85 5-1.3 2.25-1.8 3.65-4.3 1-1.95 1.6-1.75.45.2-.65 2.4-1.3 2.8-3.9 4.8-3.25 2.45-6.2 1.3-2.35-.95-2.65-3.55-.2-1.9.65-4.15l.65-.05q.6.25.5.55l-.5 2.65q-.05 2.65 1.85 3.4m23.75-4.1q-3.15 3.05-2.65 4.45.25.5.6.6.85.25 2.7-.55 1.5-.65 2.75-1.6l1.4-.2.9.2-3 2q-3.1 1.7-5 1.25-1.25-.35-1.6-1.25-1.45-3.9 9.5-10.9.3-.2.6.35.25.5 0 .7-3.6 2.35-6.2 4.95"/><path fill="#0d131a" d="M211.7 176.6q.2-.3.8 0 .65.35.5.6-1.4 2.25-4.3 4.1-2.6 1.65-4.15 1.1-.7-.2-.9-.85-.35-1.05.7-2.2l2.3-1.9q1.45-.9 1.7-.45l-.35.7-.8.7q-2.6 2-2.35 2.85l.5.1q.9-.15 2.6-1.2l2.25-1.8zm-14.75 6.65q.25-.2.8.35.5.6.25.8-5.15 5.15-7.7 9.55-1.25 2.5-1.75 2.35-.55-.1.05-1.7 1.15-3.3 4.75-7.55zm-45.75 4.4.85-.1q.75.2.65.5l-1.1 3.55q-.6 1.8-1.15 1.65-.45-.1-.1-1.9zM181.75 217q.2-.25.95.2t.55.7l-1.55 2.1-3.75 3.7q-2.1 1.5-2.45 1.15-.3-.3 1.45-2.1l3.5-4zm-55.3-1.2 1.5-1.55q1.4-1.25 1.35-.9l-1.2 9.7q-.8 10.7 1.4 16.25.1.3-.6.6l-.9-.05q-2.3-5.8-2.2-15.25.05-6.05.65-8.8m30.4-3.15q-.25-.2.4-.5l.9-.05 1.6 1.35q1.75 1.75 3.2 4.2 4.65 7.75 5.15 20.3l-.8.1q-.8-.2-.8-.55-.8-10.65-5.25-18.8-1.45-2.55-3.05-4.55z"/><path fill="#0d131a" d="M152.6 222.65h-.05l-7.35-.4q-7.85 1.45-12.55 10.05-5.5 10.1-3.55 19.25 1.05 4.95 3.65 8.15 3.4 4.15 8.4 5.55 5 1.45 10.15-.25 11.3-3.6 14.55-16.45 2.2-8.6-.8-15.55-3.4-7.9-12.45-10.35m-22.05 8.3q5-9.2 13.9-10.75l8.2.3q7.75 2.1 11.95 8.35 3.75 5.55 3.75 12.8 0 3.55-.95 7.25-3.45 13.65-15.65 17.6-5.65 1.8-11.05.25-5.45-1.55-9.15-6.05-3-3.6-4.3-9-2.5-10.1 3.3-20.75"/><path fill="#0d131a" d="M157.6 244.5q-1.7-3.05-5.15-3.75h-.05q-2.25-.45-4.8.4-5 1.65-7.5 7.85-2.25 5.8.1 9.8 1 1.75 2.85 2.9 1.55.95 3.15 1.2 3 .45 5.85-1.05 3.7-1.95 5.75-6.8 1.15-2.7 1.05-5.6-.05-2.8-1.25-4.95m-10.65-5.15q2.95-.9 5.45-.4 2.05.4 3.85 1.7 1.75 1.3 2.75 3.1 1.4 2.5 1.4 5.95 0 3.05-1.1 5.9-1.85 4.75-5.85 7.05-3.55 2.05-7.3 1.5-2.1-.3-3.85-1.3-2.3-1.25-3.45-3.3-3-5.15-.5-11.4 2.75-6.95 8.6-8.8m107.45 5.3q-1.3-1.55-3.3-2.4-2.7 5.45-6.25 11.15-5.9 9.5-10.9 13.95 6.45 2.1 10.75.65 2.75-.95 5.45-3.3 4.9-4.25 6.15-11l.3-2.8q0-3.8-2.2-6.25m-4.4-3.7q.25-.65.9-.45l1.45.6q1.7.85 3 2.1 4.15 4.05 2.9 10.8-1.35 7.3-6.65 11.85-2.85 2.4-5.85 3.4-5.2 1.85-13.5-1.2l-.3-.4q-.1-.3.1-.4 5.45-4.3 12.2-15.65 3.4-5.7 5.75-10.65"/><path fill="#0d131a" d="M256.65 254.25q.3-.1.55.65.2.75-.1.85-1 .25-2.25.95-2.55 1.35-4.1 3.45-2.1 2.8-4.15 8.25-.1.3-.55.25-.4-.05-.3-.35.2-1.25.75-2.85 1.1-3.25 2.9-5.9 1.7-2.4 4.55-4.05 1.7-1 2.7-1.25m-12.9-1.25q.3-.05.2.6l-.45.75q-4.6 1.65-10.75 1.2l-5.65-.95-3.95-1.5q-3.95-1.95-9.15-5.95-16.1-11.4-33.85-16.5-5.6-1.6-10.65-2.4l-4.05-.45q-.35-.05-.35-1.15-.05-1.1.3-1.05l4.2.5q5.25.85 11.05 2.5 18.25 5.35 34.55 16.95 5.25 4.2 9.2 6.25l3 1.25 4.9.9q5.9.55 11.45-.95m7.45-11.65q.15.3-.55.65-.75.3-.85 0-4.3-9.45-26.95-24.45-7.1-4.65-15.25-9.4l-6.85-3.85q-.25-.2.95-.65l1.5-.3 6.3 3.3q7.6 4.2 14.45 8.65 21.85 14.35 27.25 26.05"/><path fill="#0d131a" d="m214.65 245.7 1.15 1.2q.85 1.2.5 1.2-16.45-1.2-29.5 4.05-4.05 1.6-7.35 3.7-1.65 1.05-2.5 1.8-1.35 1.2-1.8.75-.35-.35.7-1.75l2.45-2.1q3-2.2 6.95-4 12.35-5.55 29.4-4.85"/><path fill="#0d131a" d="M178.35 254.75q.3.15-.2 1t-.8.7l-8.15-4.1 2.5 5.4-1.75.2-2.5-6.35q-.3-.8.05-1.05l1.05.05z"/><path fill="#0d131a" d="M164.2 256.8q-.3-.1 0-.85.3-.7.6-.6l6.55 2.2q1.75.65 1.65 1.05-.15.45-1.3.15zm-1.9 5.25q-.15-.25.25-1.15.35-.85.5-.6l2.8 5.1q.15.25-.7.55l-1.05.05z"/><path fill="#0d131a" d="M160.5 267.1q-.35.05.05-.8.35-.85.65-.9l4.95-.35q1.85-.25 1.9.3t-1.6.85zm72.55-.8q.3-.1.05 1-.2 1.1-.55 1.15-3.75.8-8.85 2.9-2.85 1.15-8.1 3.65l-1.95 1.25q-2.1 1.6-2.9 3.65l-.5 1.15-.55.6q-.5-.05-.2-1.3 0-.95.75-2.4 1.35-2.55 4.35-4.2l6-3q7.1-3.25 12.45-4.45"/><path fill="#0d131a" d="M158 273.3q-.2-.1.15-.65.3-.5.55-.35l8.55 4.9.35.55 1.4 3q2.1 3.15 6 4.7 9.7 3.9 13.65 7.4l1 .9q4.45 4 7.6 6.25 5.95 4.25 11.05 5.75.9-.35 1.95-2.15l1.3-3.1q5.55-13.1 5.8-18.95-1-1.15-5.6-4.5-.2-.1.35-.9.5-.85.75-.65l2.85 2.3q2.5 2.2 3.1 3.05l.1.4q.2.85-.6 4.5-1.4 6.05-5.25 15.25l-1.5 3.25q-1.65 2.9-3.35 3.35l-1.55-.3q-5.35-1.45-10.95-5.8l-7.15-6.4-1-.9q-1.5-1.35-5.25-3.3-4-2-8.75-3.8-3.95-1.5-5.7-4.35-.7-1.15-1.35-3.65zm-62.2 32.95 1.05.15q.9.45.8.75-1.3 3.85-2.85 9-.65 2-1 1.85-.55-.15-.35-1.9.55-4.6 2.35-9.85m32.15-66.1.3 1.55.1 2.2-5.4 12.3q-5.25 12-7.6 15.7l-5 8.15q-3.85 6.05-6.3 11.3-.15.3-1.1-.35-.95-.7-.8-1 2.9-6.2 4.65-9.35l4.4-7.4q4.95-7.4 8.6-15.9 3.15-7.3 5.95-12.95z"/><path fill="#0d131a" d="M152 281.8q8.8-20.7 8.8-21.6l1.85-2.55q1.7-2.25 1.65-1.95l-1.7 6.4q-2.75 8.6-8 19.95-8.45 18.1-5.7 29.05.75 3.05 3.1 6.55 3.55 5.3 11.35 13.05l.85 1.25q.3.75.05 1.05-.15.25-1.1-.25l-1.25-.75q-8.25-7.4-12-13.3-2.1-3.25-3.2-7.15-3-10.25 5.3-29.75m-81 40.45q.95-.7 2.7-1.45 3-1.35 5.25-1.05.3.05 1.65.9 1.3.85 1 .8-2.35-.3-8 1.65 4.75 1.75 9.65 4.05 6.2 2.95 7.15 4.4 1.3 1.9 4.05 7.8l3.55 8.3q.2 5.8-.45 4.6-.6-1.1-4.25-9.9-3.4-8.15-4.35-9.55-.8-1.15-7.05-4.2-5.2-2.55-10.9-4.85l-.75-.6q0-.3.75-.9m18.15-10.05 1.75.05q2.05 0 2.05.7l-.7.55-1.3.2-1.9.3q-.25-.15-.2-.95 0-.85.3-.85m1.7-4.4q-.3-.1-.2-1.15.1-1 .4-.95l5.35 1.05q.3.1-.15 1.35-.5 1.2-.8 1.1z"/><path fill="#0d131a" d="M112.3 343.35q-1.2-3.05-4.75-3.85l-3.3-.15-1.3.3q-1.4.5-2.4 1.7-2.4 2.9-2 8.45.8 11.1 1.8 17.7l1.1 2.6q1.7 2.5 5.15 2.85l5.5-.35q2.55-.6 3.95-1.95 1.75-1.55 1.65-4.05-.1-3.4-2.75-13.65zm-8.15-6.1q4.9-.55 7.75 2.4 1.4 1.5 1.85 3.2l2.8 10q2.6 10.15 2.7 13.7.05 1.6-.6 3.3-.65 1.75-1.7 2.7-4.25 3.8-10.4 3.15-4.65-.5-6.75-3.9l-1.2-3.3q-.8-7.4-1.6-18.6l-.1-1.8q0-5.7 2.45-8.35 1.85-1.95 4.8-2.5"/><path fill="#0d131a" d="M122.75 336.45q2.9 1.4 4.45 4.75 1.8 3.85 7.65 19.5l1.05 3.95q.45 4.3-1.85 7-2.05 2.35-5.75 2.75-2.65.3-5.75-.9-2.8-1.05-5-3-.25-.2.25-.8t.75-.4q1.8 1.55 4.55 2.4t5.15.6q2.9-.3 4.25-2.2 1.7-2.35 1.45-5.85l-.55-3q-5.8-15.6-7.6-19.35-1.1-2.4-3.5-3.45-2.1-1-4.3-.65-2.1.3-3.5 2.25-.7 1-1 1.95l-.9.05q-.7-.3-.6-.6.55-1.35 1.45-2.7 1.8-2.6 4.1-3.05 2.7-.5 5.2.75"/><path fill="#0d131a" d="M130.9 336.75q-1.8.55-3 2.3-.85 1.2-.85 1.65l-.75-.05-.6-.65q.3-1.1 1.05-2.2 1.5-2.3 4.1-3 2.9-.85 5.4.3 2.35 1.1 4 3.85l6.2 11.75q4.7 9.5 5.45 12.3l.45 2.9q0 1.6-.85 2.85-1.75 2.6-5.45 3.3-2.35.45-5.65-.55-3.8-1.2-5.5-3.65-.2-.25.25-.95.45-.65.65-.4 1.4 2 5 2.85l4.75.25q3.25-.65 4.45-2.6.9-1.4.35-3.6-.65-2.65-5.25-11.8-4-8.15-6.2-11.85-2.7-4.5-8-3"/><path fill="#0d131a" d="M138.25 337.8q.25-1.15.95-2.3 1.35-2.3 3.75-2.8 2.85-.6 5.25.55 2.35 1.15 5.05 4.35l7.5 9.75 5.65 7.6q2.2 3.2 1.85 6.25-.4 2.95-3 4.9-2.9 2.15-7.15 2.25-3.7.05-6.95-1.35-.45-.2-.2-.9.25-.75.65-.6 2.8 1.2 6.05.95 3.5-.25 6.1-2.15 4.25-3.15 1.3-8.6l-5.45-7.4-7.6-9.7q-2.25-2.7-4.45-3.55l-4.6-.15q-2 .45-3 2-.55.8-.65 1.5-.05.3-.6 0-.5-.3-.45-.6"/><path fill="#0d131a" d="M153.35 330.25q2.35-1.1 5.2-.7 2.95.35 4.9 2.15l10.8 10.65q1.8 1.7 2.25 3.85.6 2.75-1.2 5.7-1.5 2.5-4.75 4-2.75 1.3-4.35 1.05-.3-.05-.3-.85 0-.75.3-.75 1 0 3.25-1.2 2.8-1.5 3.85-3.5 1.3-2.45.95-4.7-.3-1.65-1.15-2.5l-4.7-4.75-6.05-5.85q-1.5-1.4-3.9-1.45-2.15-.1-4.35.95-1.3.6-2.3 2.05l-.8 1.35q-.15.3-.85 0-.7-.35-.55-.65l.85-2q1.2-2.05 2.9-2.85m76-26.2q1.1.5 1.65 1.8.65 1.65 0 3.9-.6 2.15-1.9 3.2-1.25 1.1-2.95.85-1.7-.2-9.8-3.25l-8.25-3.2q-.35-.1.15-.95t.8-.75l9.3 3.55q6.5 2.4 7.8 2.55 2.15.3 3.15-2.9.5-1.8.2-2.55l-.8-.8-7.6-3.75-5.1-2.35-2.4-1 .35-.85.5-.8z"/><path fill="#0d131a" d="M215.7 293.25q-.3-.1.15-.95.4-.8.7-.7l24.7 9.8q2.7 1 3.3 2.75.7 1.9-.75 4.25l-1.55 1.85q-2 1.75-4.4 1.4l-5-1.05-3-.75q-.35-.1-.15-.85t.55-.7l2.9.7 5 1.1q1.3.25 2.95-1.25l1.35-1.6q.95-1.55.65-2.55-.35-1.1-2.4-1.85z"/><path fill="#0d131a" d="M217.25 288.9q-.3-.05 0-.95.25-.9.55-.85l12.85 3.6 12.15 3.55q1.4.65 2.25 2.05.95 1.6.65 3.3-.2 1.35-1.25 2.65l-1.05 1.1q-.2.25-.65-.25-.4-.45-.2-.7 1.35-1.35 1.65-3.05.2-1.15-.5-2.2-.6-1-1.55-1.45l-9.3-2.6z"/><path fill="#0d131a" d="M244.65 293.1q.3 1.25-.4 2.4l-.75-.15q-.55-.4-.35-.7.4-.65.2-1.15-.35-1.25-2.75-2.15l-22.6-6.4q-.35-.05-.1-.9t.6-.8l11.1 3.2 11.6 3.45q3.1 1.35 3.45 3.2"/><path fill="#0d131a" d="M217.95 282.05q-.35-.05-.15-.85.2-.75.55-.7l10.35 2.9 11.2 3.3q4 1.7 3.1 4.8-.05.3-.7.15l-.6-.5q.55-2-2.35-3.25-2.35-.9-21.4-5.85"/><path fill="#fff" d="m218.45 138.75.15.4v.95q-.15.6-.7.8l-.95.05-.7-.45q-.4-.5-.35-1.2.05-.6.65-1 .3-.2.6-.25z"/><path fill="#0d131a" d="M209.1 132.1q.3-.45 1.55.45l11.35 7.8q12.5 8.25 19.2 11.3l5.75-6.15q5.25-5.9 8.6-11.1 1.05-1.65 1.45-1.45.3.25-.5 1.6-3.7 6-9.6 12.7l-5.15 5.55-.7.1q-6.7-2.95-19.65-11.6l-11.8-8.15-.45-.5q-.2-.35-.05-.55m9.85-46.25q.35-.1.95.5l9.25 10.9q10 13.2 14.45 25.6.7 1.8.05 2.15-.5.3-1.25-1.5-4.05-9.7-12-21.3-5.4-7.9-10.4-13.7l-.15 7.85-.25 8.4q-.15 1.85-.55 1.8-.6 0-.6-1.55-.1-16.25.1-18.2.15-.85.4-.95"/></svg>