<svg xmlns="http://www.w3.org/2000/svg" width="141" height="192" viewBox="-0.85 -3.95 141.15 192.25"><path fill="#9ed8f5" d="M6.8 92.35q-2.05-4.95-.7-6.95 2.8-4.1 16.95 1.05Q36.25 91.3 45.2 98.3q1.45 11.25 9 18.65 7.4 7.15 17.3 7.55 9.6.4 16.75-4.9 6.9-5.15 9.55-14.1 2.4 3.45 6.55 6.3 3.7 2.45 6 2.8 2.05 22.85-10.25 35.85-12.55 13.3-35.05 10.7-21.25-2.4-30.15-16.45-3.8-5.95-4.25-12.75-.4-6.65 2.45-12.35-10-3.85-20.05-17Q8.75 97 6.8 92.35"/><path fill="#9ed8f5" d="M136.8 95.4q-1.05 4.05-4.1 8.6-7.9 11.9-22.2 17.65l-.15-7.05 3.35-20.55q6.35-3.1 13-4.5 7.7-1.55 9.85.75 1.2 1.3.25 5.1"/><path fill="#36a0da" d="M110.9 9.75q13.5 8.85 20.55 24.8 6.2 14.05 1.3 30.85-5.3 17.95-20.65 27.65 7 4.6 8.7 10 1.75 5.65-3.4 9.6-4.8 3.75-10.75.85-4.8-2.35-8.85-8-2.85 9.65-10.7 14.85-7.55 4.95-16.9 4.05-9.5-.9-16.15-7.5-7-6.9-8.9-18.3-3.2-2.75-8.3-5.45 2.7-1.95 6.4-2.5-8.55-6.9-13.15-19.2-3.25-8.6-3.9-17.45-.5-6.55 1.85-14.55 2.5-8.6 7.65-16.1Q48.4 4.8 70.05 1.8 93.8-1.45 110.9 9.75"/><path fill="#fff" d="m94.1 68.3 20.75-14.4q-.65-18.55 3.3-25.9 3.1-5.85 8.25-3.8 11.65 17.15 7.1 37.85-4.2 18.8-18 28.6Q98.95 102.4 78.9 99q-18.2-3.15-29.3-16.2-7.45-8.8-8.75-22.65-1.5-15.7 8.3-22.55 12.1-8.45 26.85 4.3 12.4 10.7 18.1 26.4m-27.15 55.6 9.3.35q5.6-.6 8.3-2.35 3.7 3.6 2.8 10.1-1.05 7.2-7.9 8.7-8.35 1.85-12.15-4.45-3.6-5.9-.35-12.35m43.25-7.9q.65 4.15.4 9.45-.3 5.85-1.65 9.8-4.4-3.6-3.75-10 .6-6.1 5-9.25"/><path fill="#9ed8f5" d="M116.5 31.6q-1.6 4.5-2.1 11.7-.4 6.7.3 11.15L93.9 68.2q-2.35-6.25-6.65-13.15-4.15-6.65-8.45-11.2l7 .3 6.75.55 2.6-8.3q1.8-5.8 2.7-7.9l6 4.95q4.2 3.7 6.3 6z"/><path fill="#36a0da" d="M21.45 111.85q6.6 5.65 11.65 7.75-2.35 4.75-2.45 12.1-11.2-1.7-16.2-4.7-5.05-3.05-4.65-7.9-5.2-4.2-7.6-9.6-2-4.5-.95-6l3.85-.15q2.85.8 6.3 2.75-1.6-3.4-1.2-7.3 3.7 6.55 11.25 13.05"/><path fill="#fcd25b" d="M118.5 64.25q-1.1-4.45-5.15-4.65-3-.15-7 1.9-3.25 1.65-5.35 4.6-2.35 3.25-4.5 9.55-4.1-7.7-.25-16 3.6-7.9 10.15-8.85 6-.85 9.85 3.75 3.7 4.45 2.25 9.7"/><path fill="#fcd25b" d="M117.75 73.5q-2.2 9.5-10.6 8.9-3.5-.3-6.65-2.35-3.1-2.05-4.25-4.7l.9-1.55q6.65 6.4 13.9 4.75 2.9-.65 4.85-2.45 1.35-1.25 1.85-2.6m-79.5 107.95q-2.2-4.05-3.1-10.25-1.9-14 3.35-22.1 2.75 3.05 7.8 5.9 3.75 2.1 7.6 3.5.75 6.65-1.35 16.2-2.7 12.15-8.45 11.5-3.4-.4-5.85-4.75m55.5-25.85q5.2 5.95 6.5 14.75 1.3 9.05-3.45 10.65-4.8 1.6-11.1-5.6-6.15-7-7.3-14.6 3.35-.3 8.25-2.05 4.5-1.55 7.1-3.15"/><path fill="#ed8599" d="M97 73.8q3.45-4.3 10.8-6.2 8.15-2.15 9.85 3.5.85 2.9-1.2 5-1.9 1.95-5.5 2.5-8.6 1.35-13.95-4.8"/><path fill="#d9b64f" d="M96.95 58.5q.7 2.2 2.6 3.7 1.8 1.4 3.85 1.65-5.9 4.95-6.35 12.35-2.1-2.35-2.3-7.45-.25-5.55 2.2-10.25"/><path fill="#d9b64f" d="M97.2 74.05q4.05 3.65 9.05 4.6 6.85 1.3 11.25-4.15-.7 3.05-3.25 5.35-2.8 2.55-6.4 2.5-4.15-.1-7.25-2.2-3.4-2.35-3.4-6.1"/><path fill="#922f00" d="M97.2 73.25Q99.35 65 107.8 60.7q3.4-1.7 6.25-1.1 3.55.65 4.55 4.7l-2.05 4.8q-7.75-5.35-19.35 4.15"/><path fill="#ce7486" d="M116.25 68.8q-4.7-.1-9.05 2.1-4.65 2.25-6.05 5.75-2.35-1.05-4.15-2.8 3.4-4.05 9.1-5.8 6.15-1.9 10.15.75"/><path fill="#2e8bbe" d="M55.3 117.85q-10-8.3-10-21.4 2.05 7.2 7.55 12.75 5.55 5.65 12.85 7.8 17.35 5.05 31.75-11-1 7.25-8.65 12.95-7.4 5.45-15.55 5.7-9.4.3-17.95-6.8m42.75-12.35q5.45 5.15 12.75 3.9 7.7-1.4 8.7-9.2 2.95 4.85.85 9.3-1.95 4.05-6.35 4.8-4.25.75-8.45-1.45-4.55-2.35-7.5-7.35M1.1 103.65q2.2 3.95 4.7 6.55 2.3 2.4 5.5 4.25-1.15 2.5-1.4 4.35-2.9-1.1-6.25-6.7-3.45-5.7-2.55-8.45"/><path fill="#2e8bbe" d="M11 114.9q.2 5.25 4.8 8.8 5 3.85 14.75 5.45v2.5q-10.95-1.75-15.3-4.2Q7.6 123.2 11 114.9"/><path fill="#88bbd5" d="M16.45 106.55Q3.5 92.9 6.3 84.95q2.95 8.7 12.1 17.65 9.8 9.6 21.6 14.2 2.75 1.05 2.35 3.55-.45 2.5-3.4 1.7-10.2-2.6-22.5-15.5m119.85-16.1q1.95 2 .15 6.7-1.65 4.35-5.9 9.55-9.95 12.15-20.05 14.65l-.1-3.65-.4-3.25q4.5.7 7.9-2.05 2.75-2.25 3.5-5.35 4.55-2.45 8.4-6.65 4-4.45 6.5-9.95"/><path fill="#88bbd5" d="M32.45 120.7q-.6 13.4 8.95 22.8 8.95 8.8 23.15 10.9 25.4 3.7 43.4-16.8-4.3 11.45-13.45 17.6-10.7 7.15-26.5 5.9-18.55-1.4-29.35-11.9-12.05-11.75-6.2-28.5"/><path fill="#d9b64f" d="M35.4 155.8q1.2-3.55 3.25-6.45 2.25 2.25 7.35 5.2 4.85 2.8 7.75 3.75.4 3.1.15 7-.25 4.15-1.05 6.35-2.55-7.2-7.8-11.6-4.7-3.9-9.65-4.25m60.75 3.65q-3.95.8-7.85 4.3-4.15 3.7-5.5 8.2-3.6-4.7-4.5-11.1 10.2-1.95 15.4-5.25 1.3 1.65 2.45 3.85"/><path fill="#0d131a" d="M124.9 39.1q1.95-.1 3.25 3.25 1.35 3.45 1.65 9.55.3 5.75-1 9.65-1.2 3.5-2.85 3.55-1.75.05-3.15-3.3-1.5-3.5-1.95-9.15-.45-6.05 1.05-10.05 1.3-3.4 3-3.5"/><path fill="#fff" d="M127.25 45q.15 2.2-.4 3.55-.5 1.3-1.45 1.3-.85.05-1.45-1.15-.7-1.3-.75-3.45-.05-1.9.55-3.15.5-1.15 1.3-1.25.8-.05 1.45 1.15t.75 3"/><path fill="#0d131a" d="M63.55 52.45q3.45-1.2 7.1 1.9 3.65 3.15 5.7 9.15 1.9 5.5.9 10.55-1 4.95-4.1 6.1-3.05 1.2-6.95-1.8-4.15-3.15-6.15-8.8-2.15-6.15-.95-11.2 1.15-4.75 4.45-5.9"/><path fill="#fff" d="M64.15 53.95q1.65-.6 3.35.8 1.65 1.3 2.4 3.6.75 2.2.2 4.25T68 65.15t-3.25-.7q-1.65-1.25-2.4-3.3-.95-2.5-.3-4.65.6-2 2.1-2.55"/><path fill="#0d131a" d="M11.65 115.15q-1.25 2.8-.9 5.35.3 2.6 2.05 4.15 2.25 1.95 7.7 3.9 5.7 2.05 10.5 2.35l-.05 1.5q-5.15-.1-10.9-1.9-5.75-1.85-8.45-4.2-2.2-1.9-2.6-5.1-.5-3.55 1.65-6.5.7-.9 1.05-.75.4.15-.05 1.2"/><path fill="#0d131a" d="M10.85 100.45q-.15 2.45 1.15 5.1.4.75.05 1.15l-1.05-.05Q7.4 104.7 4.7 104l-3 .1q-.75 1.25 1.35 5.35 2.45 4.75 7.1 8.9l.05 2.5q-5.25-4-8.3-10.3-2.75-5.55-1.65-7.4.75-1.3 3.5-.8 2.7.5 6.5 2.5-1.15-2.3-.85-6.65zm83.45-32.7.2 5.15q-5.7-17.7-18.4-29.35Q61.35 30 49.25 38.9q-6.95 5.15-7.7 16.05-.8 10.8 4.8 21.8Q53.75 91.3 71.9 96.6q17 4.95 32.45-.7Q122.5 89.25 130 70.2q7.3-18.4.15-36.05-7.05-17.45-25-26.35Q85.9-1.8 64.7 4.55q-19.25 5.75-29.35 21.3-10.15 15.5-7.2 34.55 1.75 11.5 8.1 20.7 6.45 9.45 16.3 14.4 1.2.6 1 1l-1.45-.05q-10.55-3.9-17.7-14-6.75-9.5-8.6-21.6-3.05-19.75 7.35-36.1Q43.8 8 63.95 2.35q22.65-6.3 42.7 3.75 18.6 9.3 25.85 27.35 7.8 19.25-.8 38.55-8.45 18.9-26.8 25.55-16.2 5.95-34.05.75-19-5.55-26.6-20.5-5.85-11.45-4.85-23.05.95-11.9 8.6-17.5 11.85-8.65 26.3 2.05 13.25 9.85 20 28.45"/><path fill="#0d131a" d="m125.4 23.55 1.2 2.25q-.85-.8-2.2-.9l-2.25.25q-3.55 1.5-5.55 9.95-2.05 8.55-1.1 18.5.05.6-.8 0-.8-.6-.8-1.05-.9-10.7.95-18.6 1.95-8.15 6.2-10.4.85-.45 2.3-.45 1.4 0 2.05.45"/><path fill="#0d131a" d="M84.65 43.1 92 44l2.45-8.55q1.6-5.35 2.3-6.95.8-1.9 2.4-.6 5.15 4.1 10.9 10.45l6.7-8.45-.7 3.45q-3.05 3.4-5.2 6.45-.7 1.1-1.6.15-4-4.25-11-10.3L95.9 36.9 93.35 45l-.45.65-.8.05-12.75-.95-1.95-2.25zM116 55.75q-1.65-2.35-4.35-3.45-2.65-1.1-5.6-.6-5.6.9-8.75 7.85-3.35 7.4-.15 14.7 1.3 3 4.15 5.1 2.65 2 5.4 2.25 2.95.35 5.95-1.5 2.9-1.75 3.3-3.85l2.5-3.7q-.2 4.8-3.4 7.7-3.35 3.05-8.6 2.7-3.4-.25-6.5-2.3-3.2-2.15-4.6-5.4-3.4-7.8.35-15.95 3.65-7.9 10.3-9.05 3.4-.6 6.5.6 3.1 1.25 4.95 3.9 2.15 3.05 2.15 6.85.05 4.1-2.5 7.75l-1.2-.8q1.9-3.35 1.95-6.75 0-3.4-1.85-6.05"/><path fill="#0d131a" d="M116.95 73.05q.4-2.25-1.2-3.65-2.8-2.45-8.45-.95-5.4 1.45-9.35 5.25 3.1 2.85 7.4 3.9 4.3 1 7.5-.35 3.6-1.5 4.1-4.2m-.75-11.4q-1.55-1.4-4-1.2-3.8.25-7.95 3.5-4 3.15-5.65 7.55 4.3-3.7 9.65-4.75 5.65-1.05 8.5 1.45 2.2 1.95 1.65 5.05-.65 3.6-5.15 5.5-3.55 1.5-8.2.45-4.7-1.1-8-4.25-.65-.65-.5-1.45 1.35-6.25 6.55-10.55 4.5-3.75 9.1-4.15 2.5-.2 4.3 1 1.6 1.1 2.05 2.9l-.8 2.6q-.05-2.3-1.55-3.65m-86.1 28.9q-12.55-6.2-20-5.95-5.05.15-3 5.9 2.85 8.15 10.65 16.5 9.65 10.3 21.6 14.2 1.3.4 1.15.85l-1.5.15q-12-2.8-21.75-12.65-8.5-8.65-11.65-18.5Q4.3 87 5.35 85.1q1-1.75 4.3-2.1 7.85-.8 19.55 4.7 8.05 3.75 15.85 9.4l.55 2.75q-6.2-4.7-15.5-9.3"/><path fill="#0d131a" d="m14.85 106 1.05.85-.85 1.85q-.2.5-.65.35t-.35-.65q.2-1.2.8-2.4m96.7-12.35 1.4-.85q6.6 3.75 8.6 9.5 1.9 5.5-1.3 9.3-4.25 5.05-10.85 3.7-6.75-1.4-11.3-8.55-2.45 8.05-8.3 12.85-5.95 4.9-14.8 5.8-11.75 1.2-20.9-7.1-9.45-8.55-9.35-21.6 0-1.1.5-1.15.5 0 .55 1.1.5 11.1 8.75 19.25 8.7 8.55 20.2 7.4 8.7-.9 14.15-5.3 5.2-4.25 7.95-12.1.85-2.25 2.1-.25 4.2 6.2 10.2 7.65 6.05 1.45 9.65-3.05 2.9-3.5.3-8.9-2.5-5.1-7.55-7.7"/><path fill="#0d131a" d="m114.5 94.8-1.1-1.7q8.8-4.7 18.25-4.85 4.65-.1 6.05 1.95 1.45 2.15-.4 7.05-2.6 6.95-8.1 13.1-7.55 8.35-18.6 12.55l-.15-2.3q9.75-3.75 17.15-11.7 5.6-6.05 8.15-12.3 1.45-3.55.45-5.15t-4.6-1.55q-7.3.15-17.1 4.9m-37.95 46.95q-5.1.1-8.45-3.2-3.45-3.3-3.4-8.45.1-3.9 2.1-6.35l1.2.45q-1.65 2.65-1.65 5.75 0 4.35 3 7.45 3 3.05 7.2 3.05t7.2-3.05q2.95-3.1 2.95-7.45t-3.05-7.5l1.2-.8q1.65 1.4 2.5 3.75.85 2.15.85 4.6 0 4.9-3.2 8.25-3.25 3.45-8.45 3.5M110.2 117q-1.45 1.05-2.6 3.2-1.35 2.45-1.65 5.2-.2 2.5.4 4.75.75 2.75 2.5 4.25l-.35 1.35q-2.4-1.2-3.5-4.7-.9-2.9-.65-5.8.3-3.35 2.05-6.2 1.6-2.7 3.8-3.85z"/><path fill="#0d131a" d="M31.55 140.8q-2.25-4.9-1.8-11.85.45-6.6 2.75-9.75l1.45.7q-1.9 2.55-2.3 8.8-.4 6.75 1.6 11.25 4.1 9 13.95 14.45 9.75 5.35 22.3 5.75 19.95.6 30.75-11.15 5.7-6.25 8.05-15.35 2.35-8.95 1.05-19.45l1.55.3q2.7 23-9.2 35.95-5.55 6.1-13.95 9.2-8.3 3-18.25 2.7-12.8-.4-23.25-6.3-10.5-5.95-14.7-15.25"/><path fill="#0d131a" d="M36.35 179.35q-2.8-7.65-2.65-15.95.2-9.6 4.6-14.95l1 .95q-3.65 4.75-3.9 13.65-.25 8.25 2.3 15.2 1.75 4.7 4.55 6.35 2.5 1.5 4.4-.15 3.05-2.6 4.85-9.45 2.05-7.65 1.4-17l1.75.55q.8 9.75-1.5 17.75-2 6.85-5.3 9.75-2.6 2.25-5.9.65-3.55-1.75-5.6-7.35"/><path fill="#0d131a" d="m42.3 185.6-1.65-1q1.7-3.2 2.2-10.05.1-1.2.6-1.15.5 0 .5 1.2 0 7.8-1.65 11m5.8-1.3-2.2 1.4q1.45-3 2.15-10.1.1-1.1.55-1.1.45.05.5 1.15.2 4.85-1 8.65M77.45 161l1.6-.25q.9 5.9 5 11.4 3.65 5 7.95 7.25 2.8 1.45 4.55.7 1.65-.75 2.4-3.7.8-3.35.05-7.35-1.2-6.3-6.05-12.85l1.35-.95q5.45 6.8 6.75 13.95.75 4.45-.15 8.2-.85 3.4-3.55 4.65-2.75 1.25-6-.45-4.7-2.5-8.4-7.45-4.35-5.85-5.5-13.15"/><path fill="#0d131a" d="m94.55 180.9-1.9-.3q-.65-5.2-3-10.75-.4-.95.05-1.15t.95.75q3.25 5.8 3.9 11.45m5.05-3.1-1.45 2.15q-.25-2.45-1.2-5.55-1-3.25-2.35-5.9-.5-.95-.1-1.15t1.05.65q1.35 1.8 2.5 4.7 1.1 2.75 1.55 5.1M37.9 93.25l-1.5-.9q3-1.65 6.6-2.2l1.4 1.2q-3.25.15-6.5 1.9"/></svg>