<svg xmlns="http://www.w3.org/2000/svg" width="308" height="305" viewBox="-3.45 -2.55 307.9 304.9"><path fill="#776b59" d="M37.7 77.8q14.85-5.35 31.85-1.85 16.6 3.45 31.55 14.55 15.35 11.45 25.6 28.45-1.95 3.65-7.65 10.7l-11.4 14.25q-16.2 20.85-23.95 39.55-7.7 18.65-7.95 38.35-.3 22.1 9.15 40.45-27.35-12.5-47.25-34.8Q19.7 207.3 10.2 182q-8.9-23.6-8.6-46.25.3-22.4 9.5-37.15 10.7-15.05 26.6-20.8"/><path fill="#fff3c2" d="M78.3 133.05q-7.9-2.6-14.95.65-7.25 3.3-9.45 11.15-2.5 8.8 2.65 20.3-14.05-5.75-26.05-2.7Q14.2 166.6 11.75 187l-6.4-18.05Q3.7 155.85 15.6 149.9q10.55-5.25 25.65-2.75-2.4-12.3 1.6-20.65 3.6-7.45 11.55-10.35 7.45-2.8 16.2-.75 8.9 2.1 15.6 8.4 2.7-16 14.85-20.1 7.7-2.6 14.65-.3l10.2 13q-18.55-3.2-27.05 7.5-5.75 7.15-6.7 20.35-5.3-8.4-13.85-11.2"/><path fill="#594f41" d="M11.95 152.15q-3.1 2.6-4.95 6.45-1.5 3.05-2.45 7.55-1.9-8.4-2.55-15.9 4.55 1.2 9.95 1.9"/><path fill="#dbd2a9" d="m91.7 143.8-5.35-6.45q-3.2-3.15-7-4.15 15.8-12.5 22-29 3.05-1.45 7-1.6l7.35.6q6.95 7.55 9.85 13.6-13.4-4.9-23.65 4.55-9.45 8.65-10.2 22.45"/><path fill="#594f41" d="M53 147.5q14.6-5.05 26.35-14.3 3.8 1 7 4.15l5.35 6.45q.75-13.8 10.2-22.45 10.25-9.45 23.65-4.55l.8 1.8q-10.05 14.7-17.4 24.15-17.3 22.15-25.4 42.85-16.4 42.15 2.35 76.9-21.65-8-42-28.15-21.3-21.2-32.55-47.55l1.85-6.15q1.1-3.5 2.5-5.85 6.5-10.85 17.9-13.25 10.55-2.25 23.1 3.25-2.6-5.15-3.55-8.6-1.35-4.95-.15-8.7"/><path fill="#dbd2a9" d="M33.6 161.55q-11.4 2.4-17.9 13.25-1.4 2.35-2.5 5.85l-1.85 6.15Q7 176.7 4.55 166.15q.95-4.5 2.45-7.55 1.85-3.85 4.95-6.45 10.2 1.25 20.85 0 10.3-1.2 20.2-4.65-1.2 3.75.15 8.7.95 3.45 3.55 8.6-12.55-5.5-23.1-3.25"/><path fill="#594f41" d="m104.35 92.25 3.55 3.15 7.8 7.8-7.35-.6q-3.95.15-7 1.6 2.15-5.7 3-11.95"/><path fill="#d18200" d="M196.9 105.1q14.35-1.8 24.9-7.35 5.7 7.45 14.85 7.4 7.95-.05 12.9-4.9 18.65 27.5 14.7 53.9-2 13.2-7.7 20.9 16.4 14.25 21.95 26.95 7.8 17.75.15 40.65-5.5 16.5-26.6 19.05-6.95.85-18.95.45-15.15-.45-18.6-.35-7.75.2-15.9 3.45-5.55 2.2-14.6 7.4-11.1 6.4-15.3 8.45-9.3 4.55-18.05 6.6-13 3.05-26.35.75-14.15-2.45-25.1-10.4-12.05-8.7-18.1-22.65-6.8-15.5-5.45-36.1 1.4-21.25 10.3-40.8 6.75-14.8 19.2-31.15L125 122.7q9.85-12.75 12.1-21.35.6 4.25 4.45 7.3 3.6 2.9 8.55 3.45 5.1.6 9.2-1.65 4.6-2.5 6.4-7.95 14.25 4.7 31.2 2.6"/><path fill="#ab6a00" d="M84.95 261.4q14.6 12.1 29.9 15.6 22.8 5.25 42.65-10.25 3.5 2.95 9.9.7 4.25-1.5 13.6-7.2 11.25-6.9 16.55-9.45 10.15-4.95 18.65-6 9-1.1 27.15 1.45 19.5 2.8 32.8 1.9-4 6.95-10.1 10.2-5.3 2.85-13.45 3.55-5.35.45-17.15.1-13.8-.4-20.95-.2-7.75.2-15.9 3.45-5.55 2.2-14.6 7.4-11.1 6.4-15.3 8.45-9.3 4.55-18.05 6.6-44.05 10.4-65.7-26.3"/><path fill="#fff3c2" d="M199.5 104.7q13.6-1.9 22.3-6.95 3.5 4.6 10.55 6.7 6.75 2.05 10.75.15 10.4 9.35 7.85 20.9-1.1 4.8-4.35 8.4-3.3 3.55-7.65 4.65l-1.8 19.7q-3.6 6.25-9.8 10.2-6.25 4-13.25 4.45-16.55 1.1-26.4-16.2l-3.7-12.8q-9.65-1.05-15.65-6.15-5.3-4.5-6.75-11.35-1.35-6.35 1-12.55 2.4-6.35 7.75-9.9 14.1 2.9 29.15.75"/><path fill="#776b59" d="M238.75 189q-5.8 1.6-8.25 1.5 1.5-4.2 3.6-7.5l3.65-5.55q4.8-3.45 10.05-2.3 4.65 1 5.95 4.2.55 13.4-1 15.65l-2.3-1.65-2.7-2.35-.35-.1q-1.05 1.9-2.9 3.85l-3.4 3.45zm-63.25 2.65q2.85-5.85 15.25-7.05 3.2 5.3 5.15 11.45 1.55 4.8 1.55 6.9l-3.7-1.35-2.7-1.2h-.15q-3.05 8.8-4.3 10.2l-5.6-9-8.25 5.05q-.15-9.35 2.75-15"/><path fill="#dbd2a9" d="M241.8 104.6q-10.8 10.5-28.95 14.25-24.35 5.05-49-7.2.55-1.3 2.3-3.5l2.6-3.35q.15-.15 1.6-.85 9.35 2.85 25.95.95 16.95-1.95 25.5-7.15 3.7 4.95 9.2 6.7 5.1 1.55 10.8.15"/><path fill="#0d131a" d="m256 176.2 1.25-1.9q17.25 15.1 23.3 27.75 8.85 18.55 1.2 41.6-4.75 14.25-21.5 18.25-9.7 2.35-31.45 1.55l-7.35-.45-6.95-.2q-7.85.25-17.4 4.75-3.6 1.7-16.15 9.05-8.25 4.75-14 7.3-7.85 3.5-16.35 5.5-14.95 3.5-28.25 1.05-12.8-2.35-22.85-9.9-11-8.2-17.65-21.75-7.1-14.5-7.6-32-1.25-41.65 33.2-84.1 14.5-17.9 20.25-26.35 7.1-10.45 9.7-18.75l.05 2.3q.15 2.3.6 2.4-1.45 6-10.85 19l-17.5 22.6Q75 187.7 77.5 228.95q1 16.25 7.85 29.7 5.95 11.8 14.7 18.45 10.3 7.8 23.45 10.35 13.2 2.5 26.95-.7 8.1-1.95 16.5-5.9 5.1-2.45 14.25-7.75 10.55-6.1 15.9-8.35 8.95-3.75 17.35-4 5.2-.1 14.4.25 20.85.75 29.65-1.5 14.7-3.75 19.15-17.15 7.5-22.4.05-39.45-5.3-12.3-21.7-26.7m-14.35-71q-.35-.25.8-.75 1.1-.5 1.4-.25 10.9 9.55 8.55 20.95-2.25 10.95-13.85 14.35.8-1.45.2-1.85 4.65-1.6 7.65-5.55 2.9-3.75 3.5-8.65 1.45-11.1-8.25-18.25"/><path fill="#0d131a" d="M181.35 140.6q-3.7-8.15-2.55-8.75 1.15-.55 4.8 7.6 3.05 6.75 5.55 20.05 2.6 14.2 2.4 25-.05.4-1 .2t-.95-.6q0-9.65-2.25-22.25-2.45-13.45-6-21.25m57.3-6.2q1.45-6.65 2.5-6.55 1 .1-.4 6.9-1.65 7.95-2.55 19.05-1.2 14.5.3 23.1.1.4-.8 1.15-.9.7-1 .3-1.75-8.15-.5-24.4.95-12.6 2.45-19.55m9.65-33.35q-.25-.35.45-1.15t.95-.45q19.2 25.7 16.3 52.15-1.05 9.6-4.95 18.1-3.05 6.7-6.65 10.4-.3.3-1.05-.4-.75-.75-.45-1.05 3.05-3.15 5.75-10 3.35-8.35 4.2-17.9 2.4-26.25-14.55-49.7m-73.1 90.75q.4.25-.15 1.25-.5 1.05-.9.85-14.85-6.95-25.05-23.7-11.4-18.8-11.6-42.35-.05-4.1.7-4.5t1.1 3.6q4.6 48 35.9 64.85"/><path fill="#0d131a" d="M200.65 171.2q-8.4-4.4-13.35-13.35-.2-.4 0-1.4.2-1.05.4-.7 5.05 8.6 13.2 13 7.9 4.3 16 3.1 7.05-1.05 12.65-5.8 5.75-4.9 7.85-11.9.15-.4.2 1.05l-.05 1.9q-2.15 7.15-7.85 11.8-5.3 4.3-12.15 5.3-8.75 1.3-16.9-3m36.55 5.45q2.2-2.15 5.5-2.7l6.05.4q4.1 1.15 5.5 4.55.8 2.1.65 7.9-.15 5.55-.9 8.15l-.5 1.5q-.3.55-1 .15l-3.05-2.6-2.3-2.2q-.35-.25.2-.8.5-.55.85-.3l4.1 3.25q1.35-6.3.45-14.3-.5-1.1-1.7-2-1.25-.9-2.85-1.35-5.35-1.55-9.75 1.6-1.05.9-3.05 4.45-2.1 3.65-3.4 7.05 3.35-.25 6.75-1.4 2-.6 2.55 0 .5.65-1.7 1.5-4.3 1.6-9 1.8l-.9-.25q-.35-.35-.15-.9 1.35-3.75 4.35-8.65 2.45-4.05 3.3-4.85"/><path fill="#0d131a" d="M237.85 189.4q-.1-.4.85-.7l1.1.1 1.8 7.55q2.55-2.4 4.95-5.4 1.4-1.8 2.05-1.75t-.35 1.85q-1.7 3-6.3 7.55-1.5 1.5-1.85-.15zm-47.2-5.8q.7 0 1 .5Q195 189.65 197 196q1.5 4.85 1.5 6.95 0 1.3-2.45.55-2.65-.8-5.4-2.2-.4-.2.05-.95.4-.8.8-.6l5.05 2q-.4-3.25-2.05-7.6-1.85-4.95-4.25-8.35-4.8 0-8.55 1.8-4.25 1.95-6.05 5.65-1.15 2.25-1.45 4.95l-.35 6.6 2.55-1.5 3.8-2.4q2.3-1.55 3.15-.85t-1.95 2.55q-2.25 1.45-7.45 5.1-2.65 1.65-2.55-1.55.25-5.3.75-8.2.6-3.85 1.95-6.45 1.55-3.2 6.75-5.65 5.15-2.45 9.8-2.25"/><path fill="#0d131a" d="M189.65 200.8q.6-2 1.55-2.25 1-.25.75 1.85-.1.9-1.6 4.55l-2.05 4.45q-1.1 1.65-1.8 1.75-.65.05-1.45-1.3l-4.7-7.6q-.2-.4.65-.95t1.05-.2l4.55 7.5 1.6-3.95z"/><path fill="#776b59" d="M147.8 244.85q5.9-2.6 11.35-.45 3.1 1.25 5.4 3.55 2.25 2.25 3.15 4.9 3.85-2.15 7.35-.6 3.25 1.4 5.2 5.55 4.5 9.65-1.2 20.95-6.3 12.55-18.05 17.4-11 4.55-23 .95-11.4-3.4-16-15.3-4.3-11.2.3-20.65 2.65-5.4 7.7-7.95t9.75-.85q2.45-5 8.05-7.5"/><path fill="#fff3c2" d="M160.35 267.4q4.6.55 6.55 4.65 1.8 3.8.55 8.4-1.15 4.4-4.55 7.3-3.55 3-8.15 3.2-5.25.25-8.6-2.45-3.95-3.2-3.1-9.25.9-6.25 5.85-9.5 4.8-3.15 11.45-2.35"/><path fill="#594f41" d="M121.75 281.15q10.9 11.25 30.05 10.1 8.55-.55 15.75-3.85 7.55-3.45 11.7-9.15l-.2.5q-6.45 12.9-18.05 17.65-10.75 4.35-23 .7-5.9-1.75-10.2-6.2-4-4.1-6.05-9.75"/><path fill="#0d131a" d="M120.75 283.4q-5.55-12.65-.3-23.25 4.9-9.9 14.3-10.2 2.85-.1 5.85 1.45 2.9 1.45 4.85 3.9 2 2.45 1.25 3.2-.8.7-2.7-1.75-3.3-4.2-8.35-4.05-8.5.35-12.75 8.9-4.6 9.3.55 21 2.2 5.05 6.05 8.55 3.8 3.5 8.8 5 11.9 3.55 23.3-1.4 11.7-5.1 16.55-16.45 6.25-14.75-.2-22.65-2.35-2.9-5.45-3.45-2.95-.55-4.15 1.35-.25.4-.75-.6t-.15-1.2q3.95-2.25 7.7-1.05 3.6 1.1 5.8 5 5.1 9.15-.9 22.9-5.4 12.35-16.65 17.9-11.75 5.85-25.35 1.8-5.55-1.65-10.15-5.5-4.8-4.05-7.15-9.4"/><path fill="#0d131a" d="M145.75 243.7q4.55-2.25 9.85-1.45 5.25.75 8.9 4.15 3.9 3.65 4.35 9.15.2 2.35-.75 2-.95-.3-1.3-2.65-.65-4.9-4.2-7.8-3.25-2.6-7.8-2.85-4.5-.2-8.3 1.95-4.05 2.4-5.65 6.7-.15.35-1.3-.5-1.15-.8-1.05-1 2.25-5.25 7.25-7.7m2.45 25.05q5.15-3.3 11.3-2.25 6 1 8.45 5.45 2.15 3.9.85 8.8-1.3 4.8-5.15 7.7-3.75 2.8-8.85 3.05-6.55.3-10.2-3-3.75-3.45-2.9-9.4.95-6.75 6.5-10.35m10.35-.2q-4.65-.55-8.6 1.9-4.75 2.95-5.55 8.95-.6 4.1 1.9 7.15 2.85 3.45 8.35 3.15 4.1-.2 7.25-2.8 3.15-2.65 4.25-6.75 1.05-3.95-.75-7.25-2-3.75-6.85-4.35"/><path fill="#776b59" d="M296.05 218.7q4.1-.2 5.45 4.2 1.25 4 .05 10.85-.7 4.1-3.95 9.55-3.35 5.7-7.95 10.3-11.55 11.6-21.85 8.6-9.25-2.7-11-11.6-1.55-7.65 2.55-17.25 2.4-5.45 6.25-8.8 4.2-3.65 8.7-3.45 7.4-10.15 14.2-9 5.15.85 7.55 6.6"/><path fill="#fff3c2" d="M290.55 235.85q2.85 1.5 2.1 5.9-.6 3.35-2.85 7.1-2.75 4.5-6.2 6.55-3.6 2.1-6.05.4-2.4-1.65-1.75-5.6.55-3.5 3.15-7.45 2.35-3.55 5.15-5.6 3.7-2.8 6.45-1.3"/><path fill="#594f41" d="M301.35 222.55q1.45 4.05.2 11.2-.7 4.1-3.95 9.55-3.35 5.7-7.95 10.3-11.55 11.6-21.85 8.6-5.2-1.5-8.05-5.1 9.25 1.85 17.25-1.35l.4.35.55.15q2.1 1.45 5.35-.45 3.2-1.8 5.45-5.55 1.8-3.05 2.3-5.65 4.15-5.35 7.1-12.2 2.3-5.35 3.2-9.85"/><path fill="#dbd2a9" d="M292.7 242.55q-.3 1.55-1.2 3.35l-1.7 2.95q-2.7 4.45-6.45 6.5-3.85 2.1-6.35.4 5-2.35 8.9-5.75 3.2-2.85 6.8-7.45"/><path fill="#0d131a" d="M296.6 220.1q-.4.15-.6-1.1t.2-1.35q3.85-.75 6.05 3.9 2.2 4.8.75 11.55-1.9 8.6-7.3 16-5.25 7.15-12.7 11.8-8.1 5.05-15.5 3.05-6.95-1.85-10.35-9-1.45-3.1-1.45-8.4.05-5.45 1.65-10.8 4.05-13.35 14.05-15.8l4.65-.15q2.5.5 4.1 2.3 2 2.35 1.4 3.4-.65 1.05-2.4-1.6-1.85-2.85-7.25-1.55-8.45 2.05-12.4 13.9-3.7 11-.5 17.8 2.95 6.3 9.75 7.45 6.6 1.1 13.35-3.1 6.7-4.15 12.25-11.95 5.2-7.25 6.2-12.9 1.3-7.35-.45-11.15-1.4-3.05-3.5-2.3"/><path fill="#0d131a" d="M291.55 240.9q.3-3-1.55-4-2.25-1.15-5.6 1.4-2.55 1.95-4.55 4.95-2.4 3.6-3.05 7.15-.6 3.6 1.15 4.85 1.65 1.1 4.3-.2 3.4-1.7 6.5-6.85 2.5-4.2 2.8-7.3m-7.5-4.75q4.15-2.45 7.1-.7 2.55 1.55 2.3 5.5-.3 3.8-3 8.3-3.2 5.4-7.1 7.3-3.75 1.85-6.6-.15-2.5-1.7-2-6.05.4-4.1 3.2-8.3 2.55-3.8 6.1-5.9m4.75-25.2q6.5 1.15 8.6 8.45.95 3.4.05 3.75-.85.35-1.9-2.9-2.1-6.45-6.95-7.35-5.85-1.1-12.3 8l-1.65.15q-1.4-.2-1.15-.55 7.55-10.95 15.3-9.55"/><path fill="#ab6a00" d="m170.35 103.95-3.05 2.9q-3.1 3.1-3.8 4.75l-3.45-2.05 3.45-2.9q2.05-2.25 2.25-4.6 1 .1 2.65.95z"/><path fill="#0d131a" d="m168.95 103.95 1.35.05q.95.4.6.65-7.15 6.4-8.6 13.55-1.3 6.2 1.9 12.1 2.85 5.3 8.35 8.85 5.35 3.45 10.75 3.75l.6 1.05.5.75q-5.8.3-12.2-3.25-6.5-3.6-10.15-9.35-4.05-6.45-2.85-13.25 1.4-7.9 9.75-14.9m-96.8 12.95q-8-2.1-15.35 0-8.1 2.35-12.1 9.1-4.6 7.75-2.7 19.95.3 1.75-.4 2.05l-2.6-.05q-11.65-1.9-21.4 2.45-12.65 5.7-11.7 19.85.05.6-.95-1.45t-.95-3q.65-10.75 9.25-16.25 9.7-6.15 26.95-3.6-2.6-10.9 1.3-19.25 3.5-7.55 11.4-11.1 7.6-3.45 16.4-1.85 9.25 1.7 16.35 8.5 2.4-12.8 12.15-18.1 8.5-4.65 17.65-1.6l.85 1.85q-8.15-2.7-16.35 1.35-9.6 4.7-12.45 16.5-.6 2.5-1.3 2.85-.6.25-1.65-.95-4.45-5.15-12.4-7.25"/><path fill="#0d131a" d="M77.7 133.95q-7-2-13.5 1-6.7 3.05-9.15 9.75-2.75 7.5 1.05 16.85 1.45 3.65 1.35 4.2-.2 1.15-3.95-.3-16.7-6.55-28.1.35-11.05 6.65-13.1 23.3-.05.5-.85-1.1t-.7-2.3q2.1-15.9 13.65-22.4 12.25-6.95 30.4.05-5.2-9.8-2.7-18.4 2.25-7.75 9.55-11.7 7.25-3.95 15.3-1.95 8.85 2.2 14.55 10.9.55-16 11.75-23.4 10.3-6.85 22.45-2.75l1.35 2.5q-10.6-3.85-19.6.2-11.1 5-13.55 20.7-.75 5.15-1.3 5.9-.8 1.15-2.75-2-4.55-7.25-12.15-9.4"/><path fill="#0d131a" d="M30 79.95q11.65-5.85 25.35-6.05 13.3-.25 26.7 4.85 28.5 10.9 45.25 39.05l-.8 1.4q-.65 1.05-.75 1.45-3.4-8.4-12.5-17.8-9.85-10.15-22.25-17-31.5-17.4-59.3-3.9Q14.25 90.4 7 112.55-.15 134.5 5.4 161.5q5.95 28.85 24.9 54 21.15 28.2 54.65 45.9 0 .4.35 1.4l.3 1.35q-33.75-16.3-55.9-44.45Q9.8 194.35 3 164.6q-6.45-28.25.7-51.4Q11 89.5 30 79.95"/><path fill="#d18200" d="M258.4 41.1q8.65.8 13.65 5.7 5.65 5.5 5.55 15.15-.1 9.85-6.95 16.05-6.9 6.25-17.3 5.65 1.3 5.75-.5 10.7-1.85 5.15-6.65 8.15-6.85 4.35-14.25 2.45-6.65-1.7-10.15-7.2-11.5 7.15-29.7 8-16.05.75-26.4-3.25-1.9 5.25-6.15 7.85-4.8 2.95-11.4 1.55-6.1-1.25-8.8-5.5t-1.85-11.05q-17.05-2.15-20-16.9-1.7-8.4 1.8-14.75 3.1-5.65 9.2-8.05-6.8-6.8-5.2-15.7 1.7-9.45 12.45-10.45l.45 3.45q.75 4.3 2.45 8.6 5.3 13.75 17.55 22.2-5.05 6.45-4.75 12.8.25 5.7 4.7 10.5 4.05 4.45 10.5 7 6.4 2.55 12.8 2.3 23.25-.8 34.85-10.9 12.25-10.65 3.05-25.3 12.6-12 17.35-24.85 3.85-10.35 2.4-20.4 6.25-2.05 11.65-.25 4.85 1.6 8 6 3.05 4.25 3.55 9.7.5 5.65-1.9 10.75"/><path fill="#d18200" d="M201.7 13.3q-.65 1.4-2 5.9l-2.15 7.4q-5.85-5.1-13.7-4.4-6.95.65-11.4 5l-2.3-4.4-2.6-4.6q5.75-5.65 15.05-7.3 10.1-1.8 19.1 2.4"/><path fill="#ab6a00" d="M253.25 92.15q-1.45 9.35-11.3 12.8-6.55 2.25-13.8-1.7-5.75-3.15-6.7-5.8-6.05 3.75-16.05 6.2-20 4.95-39.7-1.45-.8 3.25-3.7 6.05-5.75 5.65-16.05 3.45-5.35-1.15-7.55-7.2-1.7-4.75-.95-9.3-5.85-.25-11.4-3.55-11.1-6.5-9.55-21.4 1.7 5 6.4 7.6 4.3 2.35 10.15 2.25 5.65-.05 10.85-2.4 5.4-2.45 8.45-6.5l64.6-10.5 5.5-5q3.75 5.75 11.9 8.9 7.75 3 16.4 2.5 9.05-.6 15.2-4.85 6.9-4.8 8.25-13.05 2.85 4.2 3.5 9.9.65 6.1-1.45 11.35-5.3 13.15-23.55 13l.55 2.6q.45 3.15 0 6.1"/><path fill="#0d131a" d="M166.85 17.4q6.05-5.75 14.55-7.4 9.8-1.85 20.8 2.35.4.15.3 1.05-.1.85-.5.7-9.35-3.35-19.1-1.9-9.5 1.4-15.15 6.75-.25.25-.75-.5-.45-.8-.15-1.05m80.3-3.8q5.35 1.15 9.1 4.7 8.95 8.45 3.25 22.6-.15.35-1.25.3-1.1 0-.95-.3 5.25-11.8-1.9-20.25-3.15-3.7-7.9-5.1-5-1.4-10.35.25-.35.1-.6-.7-.3-.85.05-.95 5.2-1.7 10.55-.55"/><path fill="#0d131a" d="M256.95 40.4q8.25-.7 14.95 5.2 7.45 6.6 6.8 17.05-.75 12.1-9.25 17.95-7.75 5.35-17.95 3.3-2.8-.5-3.25-1.45-.5-.95 2.3-.4 9.55 1.8 16.85-3.1 7.85-5.3 8.7-15.85.8-9.75-5.85-16-6.3-5.95-14.95-5.15-2.4.25-1.6-.55t3.25-1"/><path fill="#0d131a" d="M251.7 82.95q-.1-.35.9-.35 1-.05 1.1.3 1.75 6.35-.6 12.5-2.5 6.6-8.45 9.25-7.6 3.4-14.75.65-6.25-2.4-9.2-7.85-1.35-2.45-.6-2.8.75-.3 2.2 2.05 2.9 4.9 9.35 6.7 6.4 1.8 11.8-.7 5.65-2.6 7.85-8.8 1.9-5.5.4-10.95"/><path fill="#0d131a" d="M221.25 96.6q.35-.2 1.25.85.9 1.1.55 1.3-11.95 6.75-30.25 7.85-17.2 1.05-27.15-3.3-3.8-1.6-3.2-2.4.55-.75 4.4.85 9.6 3.9 25.9 2.6 17.2-1.35 28.5-7.75M120.7 63.65q-4.05 6.65-2.5 14.2 1.4 6.9 6.6 11.4 5.1 4.35 12.25 5.05 3.45.35 3.1 1.25-.35.85-3.9.5-7.85-.8-13.55-5.3-6-4.75-7.5-12.05-1.55-7.8 2.75-15.05 3.95-6.7 10.1-8.9l2.85-.1q.3.8-2.25 1.75-4.55 1.7-7.95 7.25"/><path fill="#0d131a" d="M135.55 28.4q.35-.05.5 1.1t-.2 1.15q-9.1.3-11.15 8.95-2 8.35 4.05 15.4.25.25-.45.85-.65.55-.9.3-7.55-8.8-4.85-17.75 2.7-9 13-10m29.4 73.95 1 .05q.95.35.85.7-1.55 5.25-7.1 8.15t-11.8 1.85q-5.8-.95-8.8-5.3-3.3-4.75-2.5-12.7.05-.35.9-.25.9.1.85.45-.6 6.1 1.8 10.2 2.6 4.4 7.95 5.3 5.5.9 10.1-1.05 5.3-2.2 6.75-7.4"/><path fill="#776b59" d="M162.95 92.8q-9.75-4.45-11.05-13.45-1.2-8.25 3.8-15.35 5.9-8.4 19.2-12.35 15.3-4.6 30.1 1 15.05 5.65 16.55 17.1 1.3 10.05-9.15 17.8-10.45 7.65-26.55 8.6-13.75.85-22.9-3.35"/><path fill="#fff3c2" d="M209.8 4.95q9.7-6.7 18.9-2.7 5.45 2.4 7.6 9.35 2.1 6.7.6 15.5-1.55 9.1-6.4 17.6-5.3 9.25-13.3 15.65-4.15-4.95-12.35-7.85-8.1-2.9-17.35-2.8-9.8.05-17.75 3.5-8.9 3.85-13.7 11.15-16.1-11.55-20-30.3-1.7-8.3.15-15 1.95-7 7.3-10.35 6-3.75 13.7.15 9.05 4.55 14.85 18.2 4.65-5 12.6-5.35 8.4-.4 12.95 5.25 1.7-14.75 12.2-22"/><path fill="#e50012" d="M173.8 54.4q3.45-.5 5.5 1.45 1.65 1.55 1.35 2.95-.5 2.25-2.15 4.8-1.8 2.7-3.2 2.9-1.8.15-3.15-1.1-1.3-1.25-2.9-4.5-1.45-3.05.5-4.8 1.4-1.35 4.05-1.7"/><path fill="#594f41" d="M166.8 93.95q-8.2-2.7-12.7-8.55 2.75 2.7 10.8 3.65l21.65-.7q12.8-1.95 22-6.3Q219 77.15 221.4 70.5q.5 6.95-4.65 13.15-8.25 9.9-28.5 11.95-12.55 1.25-21.45-1.65"/><path fill="#fff" d="M209.75 30.75q2.5.1 4.4 3.15 1.8 2.9 2.4 7.15 1.4 10.3-4.55 14.55-3.75-1.05-6.2-2.6l-2.3-1.4q-3.45-5.45-1.35-13.15 2.15-7.9 7.6-7.7m-45.5 25.95-3.5 2.55q-1.65-.8-3.1-3.7-1.55-2.95-2.1-6.45-1.35-8.95 4.25-12.5 3.65-2.3 7.2 2.95 3.75 5.55 2.4 13.65-1.35.75-5.15 3.5"/><path fill="#0d131a" d="M206 52.05q14.55 5.4 16.05 16.35 1.6 11.4-8.7 19.4-10.3 7.9-27.85 9-15.05.9-24.5-4.45-9-5.05-10.3-14-1.35-9.35 6.9-17.6t21.75-10.95q13.4-2.7 26.65 2.25M165.6 92.2q8.8 3.3 19.8 2.65 16.25-1 25.95-8.15 9.9-7.35 8.4-17.85-1.4-9.75-14.6-15.05-12.55-4.95-25.45-2.45-12.55 2.5-20.35 10.2-7.85 7.8-6.55 16.8 1.4 9.55 12.8 13.85"/><path fill="#0d131a" d="m172.8 26.6-.7.6-.45.75q-5.2-13.1-14.15-17.7-7.55-3.85-13.6-.45-5.65 3.15-7.25 10.5-1.5 6.75.7 15.3 2.15 8.4 7.1 15.65 5.2 7.7 11.85 11.6.35.2 0 1.05-.35.8-.7.6-8.3-4.95-13.9-13.45-5.15-7.8-6.9-16.8-1.75-8.7.2-15.7 2.05-7.35 7.45-10.35 6.75-3.8 14.45-.7 10 4.05 15.9 19.1"/><path fill="#0d131a" d="M172.45 25.75q6.05-5.6 14.5-4.75 7.3.7 10.8 4.85l-.2 1.35q-.05.25-.45-.1-5.2-4.35-12.65-4.1-7.25.2-11.6 4.5-2.55 2.45-2.3 1.15.2-1.3 1.9-2.9"/><path fill="#0d131a" d="M229.1 1.65q6.25 2.75 8.5 9.95 2.15 6.7.4 15.75-1.75 8.95-6.75 17.6-5.25 9.1-12.85 15.5-.3.25-1.25-.3-.95-.5-.65-.75 7.2-5.8 12.35-14.45 4.9-8.2 6.75-16.9t.05-15.25q-1.9-7-7.5-9.65-8.45-4.05-17.4 2.1-9.8 6.65-12.3 21.35-.75 4.4-1.5 3.35t-.35-3.55q2.9-16.85 13.65-23.35 9.25-5.6 18.85-1.4"/><path fill="#0d131a" d="M209.7 30.35q2.9 0 5.1 2.9 2.05 2.75 2.75 6.95 1.55 10-4.95 15.35-.3.25-1.05-.2-.75-.5-.4-.75 5.5-3.95 4.45-13.45-.4-3.95-2.05-6.55-1.75-2.8-4.15-2.85-5-.05-6.7 7.6-1.7 7.6 1.9 12.75.3.45-1.95-.7-3.85-5.85-1.7-13.35 2.25-7.75 8.75-7.7m-39.75 23.2q-.1.4-.85.35t-.65-.45q1.75-5.7-1.05-11.65-2.8-5.85-6.5-4.9-4.65 1.2-4.75 9.3-.15 8.1 4.65 11.95.3.25 0 .9t-.65.45q-6.3-4.7-5.95-13.7.15-3.85 1.75-6.6 1.7-2.9 4.35-3.55 5.1-1.15 8.45 4.9 3.4 6.1 1.2 13"/><path fill="#0d131a" d="M206.85 48.95q.15.85-.75 1.05-.8.1-1-.8-.1-.85.75-1.05.4-.05.65.2zm-40.15 3.2-.25.65-.6.25q-.85.1-.95-.85 0-.35.25-.65t.6-.3q.85 0 .95.9"/><path fill="#fff" d="M176.3 73.85q9.2 4.65 19.15 3.3L195 86q-.45 6.7-1.3 10.9-3.35 1.65-11.3 2.4-7.6.7-12.55.05-.4-.4-2.45-7.45-1.65-5.7-2.75-10 6.55-1.2 11.65-8.05"/><path fill="#c6000b" d="M168.6 59.3q1.45 2.05 4.35 2.55 3.45.6 7.2-1.55l-1.85 3.05q-2.1 3.05-3.45 3.2-1.6.2-3.9-2.5-2.35-2.65-2.35-4.75"/><path fill="#0d131a" d="M179.55 58.4q.2-1.6-1.8-2.55-1.95-.95-4.85-.7-1.85.15-2.85 1.3-1.2 1.35-.75 3.5.35 1.8 2.25 3.95 1.95 2.2 3.3 2.05.95-.1 2.65-2.7 1.85-2.75 2.05-4.85m-6.5-4.2q3.85-.5 6.35 1t1.8 3.9q-.65 2.6-2.45 5.15-2 2.85-3.8 3.05-1.35.1-3.65-1.95-2.8-2.4-3.55-5.7-.5-2.25 1-3.75 1.45-1.4 4.3-1.7"/><path fill="#dbdcdc" d="M169.15 96.95q3.95.8 11.7.3 9.15-.65 13.45-2.95.05 2.05-1.15 3.15-1.35 1.3-11.2 2.05l-11.85-.4q-.8-.45-.95-1.35zM165.7 84.9l-.45-2.95q4.25-1 8.05-4.55l2.95-3.4q6.7 3.15 13.7 3.65l5.65-.15-.35 3.75q0 .9-14.55 2.8-14.55 1.95-15 .85"/><path fill="#0d131a" d="M168.65 98.1q-.75-1.65-2.35-7.65-1.7-6.3-1.9-8.4 0-.35.8-.45t.85.25q.65 3.6 1.8 8.15 1.45 5.65 2.7 8.35 4.95.55 11.55.05 7.25-.5 10.65-1.95l1.15-9.25.5-9.8q0-.35.95-.35.9.05.95.4.15 2.5-.3 8.35-.5 6.2-1.2 9.75l-.6 2-1.1.6q-3.9 1.4-12 1.9-7 .4-10.65-.05-.65-.1-1-.5z"/><path fill="#0d131a" d="M177.05 90.8q-.2-2.45.45-2.95.6-.5.8 1.95l.75 5.3q.55 3.45.85 4.2.15.3-.55.4l-.85-.2q-.45-.7-1-4.7zm25.05-13.95q-13.15 4.05-25.55-2-5.75 7.5-13.75 8.15-4.2.35-6.65-1.5-2.25-1.75-2.15-4.65.1-1.35.45-1.4t.55 1.45q.4 2.45 2.6 3.55 2.1 1.1 5.55.85 3.85-.3 6.5-1.9 2.6-1.65 5.45-5.5l.8-.8q.4-.15 1.15.25 10.8 5.55 22.9 2.3 5.25-1.4 8.3-4.1 3.2-2.85 2.9-6.25-.15-1.4.25-1.65t.8.9q1.35 3.9-1.65 7.3-2.8 3.2-8.45 5"/></svg>