<svg xmlns="http://www.w3.org/2000/svg" width="127" height="162" viewBox="-0.15 -0.95 127.25 162.35"><path fill="#717071" d="M65.5 5.5q2.85 3.45 1.4 7.65t-6.6 7.25q-2.55 5.2-2.35 10.55.15 4 1.65 6.95-2.15 1.4-3.5 3.35-5.1-1.7-7.95-5.6-3.3-4.55-2.9-11.1-4.3.65-7-2.9-2.05-2.7.45-7.75 2.55-5.2 8.05-8.75T57.5 1.8q5.15.2 8 3.7"/><path fill="#595757" d="M55 15.7q.35 3.5-1.5 6.7-2.4 4.05-8 6.65-.3-2.9-.2-4.7 4.4-.55 7.1-3.55 2-2.25 2.6-5.1m-7.05 19.25q2.25 1.15 5.45 1.2 3.15.1 4.95-.95l1.3 2.45Q57.1 39.5 56.2 41q-6.25-2.1-8.25-6.05"/><path fill="#0d131a" d="M65.9 4.7q3.15 3.5 1.7 8.4-1.55 5.25-7.5 7.8l-.9-.05q-.15-.35.55-.75 5.2-2.65 6.4-7.35 1.15-4.25-1.4-7.05-2.7-3-7.8-2.85Q51.75 3 46.5 6.3q-5.55 3.5-7.55 8.75-1.75 4.75.4 7 2 2.05 5.55 1.75 3.3-.25 5.8-2.35 3.95-3.2 3.3-6.25-.55-2.85-4-2.7-.85.05-.9-.35-.05-.35.8-.5 4.35-.65 5.3 3.1 1.05 3.9-3.6 7.7-3.1 2.55-6.85 2.85-4 .3-6.55-2.3-2.8-2.85-.95-8.3 2-5.95 8.3-9.9 5.7-3.5 11.65-3.45 5.75.1 8.7 3.35"/><path fill="#0d131a" d="m60.3 37.6-1 .6q-2.8-3.85-1.9-10.15.6-4.5 2.25-7.45l1.75-.75q-1.65 2.7-2.5 7.4-1.1 6.45 1.4 10.35m-3.85 2.9-.5 1.1q-6.15-1.4-9.35-6.8-2.9-4.95-2.05-10.4l1.7-.15q-.8 5.2 1.75 9.8 2.8 5.05 8.45 6.45"/><path fill="#fff1ac" d="M93.45 39.15q10.75 3.2 17.65 9.45 7.65 6.95 6.85 14.8-.75 7.3-6.55 10.5-4.6 2.5-14.05 3l-21.3 2Q62 81.1 52.6 85.8q-2.35-6.5-5.3-16.8 5.45 1.3 9.75.7 12.55 2.65 23.75.95 9.3-1.4 14.25-5 5.3-3.85 3.05-8.55-2.65-5.35-8.45-8.8-5.3-3.15-14.3-5.3t-20.1 1.45q-11.8 3.75-16.1 11.2-1.35 2.35-.8 4.8.5 2.2 1.85 2.55.1 1.65 1.7 3.15 1.6 1.45 4 2.15-1.95 1.3-6.55 5.05l-7.6 6.25q-2.1-7.35-2.35-13.35-.3-7.55 2.45-11.3 4.25-5.7 11.2-9.8 5.8-3.45 12.85-5.45 8.55-2.45 17.6-2.8 10.85-.45 19.95 2.25"/><path fill="#e7380d" d="M22.95 92.7q-1.9 5.1-2.9 10.2-.85 4.3-.7 6.55l-3.45-5.3q1.35-11.7 5.6-20.55 2.55-5.3 8.2-12.8.65 3.25 1.65 6.8-1.95 2.25-3.95 5.75-2.6 4.4-4.45 9.35"/><path fill="#fff1ac" d="M24.1 89.7q2.1-4.55 3.55-7 1.7-2.9 3.7-5.1l.6 2.05q2.3-2.05 13.95-11.35l1.4.45q3.15 10.85 5.15 16.65 10.45-4.25 17.4-5.35 1.85 9.1 1.5 21.15-.3 11-2.25 21.3-10.65-7.2-25.7-10.2-12.95-2.65-23.6-1.4l-.6-1.5q.2-3.9 1.6-9.6 1.45-6 3.3-10.1"/><path fill="#91301d" d="M60.2 67.35q-1.15 2.65-5.95 2.7-3.3.1-6.55-.9-2.9-.85-5.05-2.4-3-2.15-2.5-4.55.65-3.05 4.5-3.9 3.45-.75 7.95.45 4.3 1.1 6.5 3.85 2.05 2.55 1.1 4.75m8.6 55.05q-.65 3.95-2.95 9.65-2.05 5-4.75 9.95-11-.2-21.85-4.85-11.2-4.85-17.2-12.4.9-5.7-2.25-13.85 13.6-1.35 27.9 2.35 12.6 3.3 21.1 9.15"/><path fill="#e7380d" d="M102.4 76.45q1.8 14.75 1.85 20.5.15 12.7-3.65 23-4.1 11.1-16.65 17.25-11.15 5.5-23.1 4.8 5.9-8.05 8.4-20.15 1.95-9.65 1.95-23.4 2.9-3.3 2.55-6.95-.3-3.5-3.3-5.8 0-2.6-.65-5.55 9.8-2.15 32.6-3.7m-4.75-20q2.55 4.5-1 7.75-5.85 5.35-18.3 6.95-11.85 1.5-21-1.3 5.1-2.9 1.7-7.1-3.1-3.9-8.3-4.45-5.6-.6-8.5 1.2-2.45 1.5-2.1 3.75-1.65-1.2-1.85-3.3-.2-2.65 1.95-6Q43.25 49.3 51 46q8.5-3.55 18.55-3.5 8.8.05 16.8 4 7.95 4 11.3 9.95"/><path fill="#782310" d="M40.7 64.8q4.4 2.85 11.05 2.7 7.1-.15 8.15-4.2 1.25 3.25-.55 5.15-1.9 1.9-6.15 1.4-4.55-.55-7.35-1.65-3.05-1.2-5.15-3.4"/><path fill="#c82f07" d="m72 141.15-11.05.85q4.65-6.3 6.95-16.05 13.75-3.85 23.1-12.6 10.2-9.55 12.8-23.05 2.35 16.7-3.15 29.25-5.7 13-18.75 18.75-4.25 1.9-9.9 2.85"/><path fill="#782310" d="M44.4 128.05q11.95 1.1 23.5-2.1-2.3 9.8-6.95 16.1-11.05-.3-21.25-4.7-10.55-4.55-17.95-12.55l.4-3.25q9.95 5.4 22.25 6.5"/><path fill="#595757" d="M58.4 140.95q8.4 1.5 18.45-1-.7 6.05-3.35 12.05-3.75 8.35-8.7 7.65-5.15-.7-6.5-7.1-1-4.7.1-11.6"/><path fill="#dcd096" d="m45.85 68.6 1.55.5q2.1 8.2 3.65 12.55-3.65-2.5-8.6-3.4l-8.5-.25z"/><path fill="#0d131a" d="M45.05 49.75q1.85-.35 2.05 1.55.25 1.9-1.4 3.8-1.65 2-3.65 2.25-2 .3-2.35-1.65.85-1.75 2.25-3.25zm33.05 13.3q-.95 2-2.65 3-1.75.95-3.25.25-1.55-.7-1.95-2.65-.45-1.9.5-3.95t2.65-2.95q1.75-.95 3.25-.25 1.55.65 1.95 2.6.4 1.9-.5 3.95"/><path fill="#fff" d="m44.15 53.75-1.2 1-.8.1q-.25-.2 0-.8l.8-1.3 1.2-1q.55-.35.8-.15.6.5-.8 2.15M75.3 61.5l-.85 1.55q-.55.6-1 .45-.45-.1-.5-.9-.1-.8.2-1.8.35-.95.85-1.5.55-.6 1-.5.45.15.55.95z"/><path fill="#0d131a" d="M118.9 63.1q-.35 6.6-5.4 10.25-5.2 3.8-15.15 4.25L82 78.9q-9.1 1.05-13.95 2.2Q59.2 83.15 53.8 86l-1.5.45q-.35-.1-.75-1.1l-2.2-7.45-2.55-9.15 1.35.3q.9 3.65 2.35 8.55 1.5 5.1 2.3 7.1 5.85-2.8 15.15-4.95l14.2-2.15 16.2-1.6q8.9-.65 13.5-3.7 4.9-3.2 5.25-9.2.6-9.5-10.7-17.2-11.6-7.9-27.85-8.35-14.8-.35-28.35 5.1-13.1 5.3-17.8 13-2.75 4.55-2.35 11.05.2 3.9 2.15 11.9l6.4-5.3 6.7-5.2 1 .65q-2.6 1.7-7.1 5.55l-6.7 5.75q-1 .8-1.3-.3-2.3-8.05-2.6-13.15-.4-6.95 2.3-11.7 4.8-8.3 18.55-13.65 13.7-5.35 29.05-5 16.6.35 28.85 8.6Q119.45 53 118.9 63.1"/><path fill="#0d131a" d="M97.15 54.2q2.55 3.45 2.45 6.1-.1 2.85-3.25 5.25-6.1 4.65-17.5 6.05-11.8 1.4-23.25-1.5l1.8-.75q10.85 2.25 21.55.85 10.75-1.45 16.55-5.95 2.25-1.75 2.35-4.15.1-2.25-1.75-4.8-3.65-5.05-10.3-8.15Q79 44 70.2 43.35q-10.45-.75-19.6 3.5-9 4.15-11.15 10.45-1.25 3.5.75 5l.05 1.5q-2.05-.6-2.55-2.9-.45-1.9.25-3.95 2.2-6.35 11.35-10.85 9.75-4.85 21.15-4.15 8.6.5 15.8 3.9 7.1 3.25 10.9 8.35"/><path fill="#0d131a" d="M44.85 58.95q-3.3.75-3.95 2.85-1.25 4.35 8.05 6.75 4.6 1.2 7.55.55 2.75-.6 3.15-2.5.5-2.15-1.7-4.35-2.15-2.15-5.6-3zm7.7-1q4.25 1.1 6.6 3.6 2.3 2.5 1.75 5.3-.45 2.45-3.65 3.4l-8.65-.3q-5.1-1.3-7.4-3.65-2.2-2.2-1.45-4.85.7-2.5 4.5-3.55t8.3.05M31.5 78.35q-3.9 4.25-7.45 13.45-4.1 10.45-4.05 19l-1.4.3q-.2-9.2 4.05-19.8 3.7-9.1 8.4-14.4zm37.8 2.4 1.15-.25Q73 95.95 71.6 111.55q-1.7 19.1-9.1 29.85l-1.9-.45q7.7-11.35 9.5-30.1 1.4-14.55-.8-30.1"/><path fill="#0d131a" d="m101.7 76.65 1.4-.2q4.75 26.65-1.5 42.7-5.55 14.3-20.15 20.45-8.45 3.6-19.6 3.35-11-.25-21.1-4.15-10.7-4.15-17.3-11.25-7.3-7.9-8.2-18.05-.85-9.85 3.2-20.45 3.65-9.55 11-19l.5 1.95q-6.3 7.85-9.9 17.45-4 10.7-3.1 19.95 1 9.85 8.25 17.35 6.55 6.7 17.05 10.5 9.75 3.55 20.25 3.7 10.5.1 18.1-3.2 14.15-6.15 19.5-19.95 5.85-15.25 1.6-41.15"/><path fill="#0d131a" d="M42.9 111.45q16.15 3.05 25.9 10.15l-.45 1.35q-9.6-6.85-25.35-10.1-15.15-3.15-26.3-1.1l-.35-1.05q11.4-2.15 26.55.75"/><path fill="#0d131a" d="M30.6 89.85q2.85-7.15 7.65-15.25l2.25-1.65q-11.65 19.4-13.45 37.4H25.5q1.15-10.45 5.1-20.5m15.9-21.4 1.05.4q-4.95 5.65-9.7 18.5-4.8 12.95-5.7 23.25l-1.5-.1Q31.7 100 36.5 87.2q4.85-12.85 10-18.75m2.05 4.95.55 1.7q-3.95 8.95-6 15.6-3.35 10.75-3.85 20.8l-1.4-.25q.5-10.2 4.25-21.7 1.95-5.8 6.45-16.15m9.2 68.6q.05-.3.65-.25.6.1.5.35-1.15 6.75.75 11.7 1.7 4.5 4.7 5.05 3.3.6 6.65-4.3 3.6-5.3 5.2-14.55l1.35-.15q-1.85 10.5-5.8 16.2-3.65 5.35-7.75 4.65-3.75-.65-5.6-5.75-1.95-5.35-.65-12.95"/><path fill="#717071" d="M125.5 22q.35 5.15-2.45 7.3-2.15 1.7-5.2 1.4-3.1-.25-5.55-2.45-3.75 10.65-14.45 14.85-8.5 3.35-16.75 1.65-2.75-.6-2.9-2.1-.1-1.4 2.1-2.15 6.85-2.4 11.05-7.35 4.05-4.7 4.75-10.55-3.45-3.6-3.85-9.3-.5-6.75 4.9-10.35 5.65-3.75 12.2-1.65 5.45 1.8 9.5 6.6 6.25 7.5 6.65 14.1"/><path fill="#595757" d="M81.6 44.85q-3.5-.65-3.75-2.2-.25-1.7 4.65-2.8 2.75 1.9 10.45 1.3 7.9-.6 13.15-3.25-3.8 4.1-10.85 6.1t-13.65.85m23.75-25q.85 2.1 3.15 4.75 2.05 2.4 3.85 3.7l-1.3 3.1q-2.6-2-4-5.35-1-2.3-1.7-6.2"/><path fill="#0d131a" d="M126.05 20.45q1.05 6.55-2 9.25-2.7 2.45-6.9 1.55-4.35-.9-8.15-4.9-3.45-3.65-4.4-7.15-.9-3.4.95-4.95 1.45-1.2 3.95-.7 2.7.55 4.05 2.9.3.5 0 .75t-.65-.25q-1.4-1.8-3.45-2.25-1.95-.4-3.05.5-1.3 1.1-.5 3.75.85 3 4.1 6.4 3.5 3.65 7.2 4.35 3.45.65 5.8-1.35 2.3-2 1.45-7.5-1-6.25-5.9-12.05-4.7-5.5-10.55-6.95-5.85-1.4-10.4 1.85-4.1 2.85-4.55 8.1-.45 5.4 3.25 10.5l-.2 1.4q-4.85-5.7-4.4-12 .4-5.95 4.95-9.1 5-3.55 11.45-2.25 6.7 1.3 11.8 7.35 5 5.9 6.15 12.75"/><path fill="#91301d" d="M80.6 40.05q-2.75 1.35-2.4 2.7.3 1.15 2.55 1.85-2.1 1.95-6.6 3.85-4.45 1.95-8.1 2.5-4.1.65-7.2-.9-3.55-1.7-3.5-5.45t3.55-6.2q3.05-2.1 7.35-2.5 3.85-.35 7.6.75 3.7 1.05 6.75 3.4"/><path fill="#782310" d="M56.35 41.5q2 4.95 6.95 5.5 4.9.55 15.85-2.9l1.5.45q-4.25 3.9-10.6 5.5L60 50.5q-3.6-.85-4.45-4.45-.75-3.25.8-4.55"/><path fill="#0d131a" d="M96.2 20.9q.4 0 .45.85.35 5.45-3.7 10.85-4.55 6.05-12.1 8.3-1.85.6-1.9 1.55 0 .95 1.7 1.45l10.3.45q5.35-.85 10.1-3.55 8.15-4.65 10.35-12.95l1.55.95q-2.05 8.15-11.1 13.3-4.8 2.75-10.65 3.5-5.8.8-11.1-.55-2.8-.7-2.85-2.65-.1-1.9 2.6-2.65 6.65-1.9 11.45-7.6 4.6-5.4 4.5-10.4 0-.85.4-.85"/><path fill="#0d131a" d="M58.25 39.65q-2.8 2.65-1.65 6.3 1.2 3.75 5.55 4.2l7.5-.75q2.15-.45 5.45-2l5.25-3.05 1.15.6-5.7 3.5q-3.55 1.8-5.8 2.3-12.85 2.95-15.1-4.2-1.45-4.4 2.15-7.65 3.4-3.1 9.4-3.55l6.05.5q5.45 1.05 8.7 3.85l-1.3.75q-3.05-2.6-7.95-3.5l-5.5-.4q-5.35.4-8.2 3.1"/><path fill="#717071" d="M30.4 82.25q-.2 7.4-6.8 8.3-4.2.6-6.75-2.4-2-2.4-2.05-5.15-.05-2.65 1.5-4.95 1.9-2.95 5.45-3.3 3.6-.35 6.2 2 2.5 2.3 2.45 5.5"/><path fill="#595757" d="M15 84.25q2.85 3.3 8.15 2.6 5.05-.65 7.1-3.9.15 2.8-1.75 5.05-1.65 2-3.75 2.4-3.3.65-5.85-.7-2.95-1.6-3.9-5.45"/><path fill="#0d131a" d="M17.45 77.6q-1.9 2.1-1.9 5.25t2.05 5.2q2 2 5.15 2 3.1 0 5.1-2.2 1.9-2.15 1.9-5.1 0-3.05-2.05-5.2-2.1-2.15-4.95-2.15-3.25 0-5.3 2.2m-3.55 5q.1-3.6 2.5-6 2.5-2.55 6.25-2.5 3.65 0 6.1 2.6 2.4 2.5 2.4 6-.05 3.65-2.55 6.15-2.4 2.4-5.85 2.45-3.95 0-6.45-2.5-2.45-2.5-2.4-6.2"/><path fill="#717071" d="M73.85 92.65q0 2.55-1.7 4.7-2.05 2.55-5.65 3.15-4.2.7-7.25-2.1-2.6-2.4-3.1-5.65-.45-3.1 1.45-5.55 2.15-2.85 6.3-3.15 4.4-.35 7.25 2.2 2.7 2.4 2.7 6.4"/><path fill="#595757" d="M73.05 95.9q-1.75 3.55-5.4 4.35-3.75.8-6.75-.8-3-1.55-4.55-5.15 4.5 3.75 10.5 2.15 6.1-1.65 6.3-7.2 1.6 3.15-.1 6.65"/><path fill="#0d131a" d="M56.9 90q-.7 3.1 1 5.9 1.8 2.9 5 3.7 4.15 1.1 7.2-1.3 2.8-2.3 2.9-5.95.05-2.65-1.6-4.7-1.7-2.1-4.55-2.9-3.35-.85-6.3.7-2.95 1.6-3.65 4.55m-1.15-.3q.85-3.35 4.15-5.15t7.15-.9q3.45.8 5.55 3.25 2 2.4 1.95 5.5-.05 4-3.2 6.8-3.65 3.2-8.85 1.85-3.8-1-5.75-4.35-1.95-3.3-1-7"/><path fill="#717071" d="M19.8 110.9q2.35 5.3 2.5 10.7.2 6.35-3.3 8.15-3.45 1.8-8.9-3.1-4.8-4.25-7.05-9.25-2.4-5.3-2.35-10.15.05-6.05 4.4-7.55 4.45-1.55 8.6 2.1 3.45 3.05 6.1 9.1"/><path fill="#595757" d="M1.25 110.35q3.95 8.35 10.85 10.7 6.65 2.3 9.75-2.8 1.1 3.65-.2 7.7-1.3 4.15-3.8 4.2-3.9.05-8.75-4.35-6.4-5.75-7.85-15.45"/><path fill="#0d131a" d="M0 106.8q.2-5.75 3.9-7.7 3.55-1.85 8.2.95 5.2 3.15 8.4 10.7 3.05 7.25 2.35 13.35-.6 5.5-3.75 6.85t-8-2.25q-5.1-3.75-8.3-10.3-2.95-6.2-2.8-11.6m1.55.15q-.35 5.1 2.5 10.9 2.95 6 7.7 9.45 4.3 3.1 6.7 2.05 2.6-1.1 3.05-6.05.5-5.5-2.3-12.05-2.7-6.25-7.3-9.35-4.25-2.8-7.2-1.25-2.85 1.5-3.15 6.3"/></svg>