<svg xmlns="http://www.w3.org/2000/svg" width="263" height="301" viewBox="-0.35 -0.7 263.1 301.4"><path fill="#e7380d" d="M241.8 123q.85 1.95-.15 2.4-1.05.45-2-1.2-13.4-22.35-39.1-54.9-25.8-32.7-43.25-49.35-1.7 1.75-4.3 3-2.4 1.1-4.45 1.3.9 4.65 1.2 15.3.25 10-.2 17.6 14.35 6.35 15.85 22.9 1.5 16.3-10.55 29.05 3.85 3.35 7.4 10.55 2.5 5.15 4.15 10.65l-2.35 28.55q-1.65 1.4-4.4 5.05 4.45 12.4 6.85 29.1 2.3 16.6.95 25.75-2.7 18.3-14.4 31.05-14.05 15.2-36.8 16.6-18.95 1.15-31.95-12.3-13.2-13.7-13.05-35.15.15-20.2 15.25-40.7 10.1-13.7 24.3-24.7 11.05-8.5 16.6-19.45 5.05-9.85 3.5-16.8l-24.8-14.9-4.2-21.85q.5-2.9 1.6-5.7-.75-12.8-3.35-24.85-1.9-8.9-4.5-16.15-2.9.95-6.1-.75-2.9-1.55-3.75-3.8-1.6-4.45-.45-7.95 1.3-4.1 6.1-5.7 7.05-2.3 10.9 3.8 1.55 2.45 1.55 5.2.05 2.9-1.7 4.65 2.6 6.55 9.7 16.05 5.8 7.7 10.3 12.1l5.25-1.4 4.6-.75q1.9-4.2 4.4-15.85 2.15-10.05 3.2-17.8-4.15-3.35-3.7-10.4.25-3.8 3.4-6.85 3.45-3.3 8.5-3.5 5.25-.15 8.8 3.9 3.45 3.9 2.9 9Q180.3 29.35 206 63.95q24.55 33.1 35.8 59.05"/><path fill="#717071" d="M102.75 80.3q1.6-.15 3.05 2.95 1.4 3.05 1.95 7.4.6 4.5.3 7.5-.3 3.65-1.95 4.25-1.55.65-3.6-2.65-2-3.3-2.6-7.5-.65-4.2.3-8 .95-3.75 2.55-3.95m46.8-8.9q3.7.05 6.1 4.5 2.1 3.95 2.2 9.25.1 6.1-3.05 9.95-2.85 3.4-6.5 3.3-3.55-.05-5.85-3.95-2.25-3.9-2.25-10 0-5.45 2.6-9.2 2.65-3.95 6.75-3.85"/><path fill="#e7380d" d="M204.35 128q3.45 3.6 2 8.1 23.65 16.8 39.9 47.4 15.85 29.95 15.75 56.05 0 2.4-1.4 2.5-1.35.1-2.05-1.9-4.1-11.55-24.15-46.3-21.2-36.75-33.25-51.45-4.25 1.55-8.35-.5-4.2-2.1-4.95-6.4-.7-4.4 1.85-7.5 2.55-3.15 7.15-3.25 4.3-.1 7.5 3.25m-125.9-.65q-1.7-.15-2.8-1.05-10.9 9.35-36.9 39.25-23.9 27.45-34 41.2-1.65 2.3-2.9 2.5-1.35.2-1-2.2 1.3-9.25 8.95-23.15 7.3-13.2 18.2-26.85 11.1-13.9 22.35-23.8 12.2-10.7 21.45-13.9.15-2.45 1.65-4.45 2.05-2.7 5.7-2.75 4.4-.05 6.65 3.6 2.05 3.35.55 5.95Q89.3 124.2 100 136l13.4 15.05-8.7 7.9q-3.35-5.5-10.8-16.35-8.3-12.05-11.75-16-1.75.9-3.7.75"/><path fill="#717071" d="M87.1 166.6q1.8.95 4.95.8 2.85-.15 4.85-1-13.75 13.9-20.2 28.6-6.8 15.45-4.95 30.5-5.15 5.35-16.8 11.2-10 5.05-15.3 6.15-3.6.75-5.1.1-1.75-.8-1.45-3.7 1.7-15.4 18.95-39.4 18-25 35.05-33.25m74.8-5.3q22.65 14.05 45.2 43.1 21.5 27.7 26 46.4.65 2.8-.3 3.8-1 1-4.05.85-9.45-.5-27.2-8.25-22.9-9.95-35.15-23.95 2.75-10.05.25-29.45-2.35-17.75-7-29.9z"/><path fill="#e7380d" d="M81.6 251.05q1.1 1.95 3.65 4.3 2.2 2.1 4.25 3.4-2.1 8.75-13.6 16.55-4.65 3.1-8.55 4.35l-5.2-.15q-1.75-2.05-.9-6.3.85-4.05 3.75-8.6 6.9-10.75 16.6-13.55m65.8 4q4.2 1.7 8.15 8.35 3.55 5.9 5.85 13.85 2.25 7.7 2.35 13.5.1 6.2-2.45 7.25-3.55 1.45-8.25-1.05-4.5-2.4-8.8-7.65-9.8-12.05-10.4-26.3 3.05-1.45 7.45-4.05z"/><path fill="#717071" d="M86.8 177.7q2.35 9.15-1.4 22.3-4.35 15.05-13.85 20.3-.45-11.1 3.95-23.1 4.25-11.45 11.3-19.5m25.35 5.8q4.2 1 6.55 7.35 2.7 7.35-.15 16.6-2.95 9.5-9.6 14-5.9 4-11.75 2.45-4.95-1.25-6.1-9.05-1.05-6.95 1.2-15.7 1.95-7.5 8.85-12.35 6.3-4.4 11-3.3m51 6.85q3.2 3.35 4.25 6.6 2.3 12.2-.35 24.95-2.5 12.2-8.6 20.8-2.25 1.8-6 2.65l-5.15.5q-8.45-1.1-11.75-9-3.2-7.55-1.95-22.15.9-10.8 7.25-19.35 6.7-9.15 15.05-8.95 3.55.05 7.25 3.95"/><path fill="#fff1ac" d="M134.45 110.85q1.7 1.8 3.9 5.85 2 3.7 3.35 7.3.6 5.5-1.85 13.6-2.4 8.1-6.35 13.75-4.15 5.85-9.05 16.75-5.15 11.35-7.25 19.85-2.2-3.25-5.4-4.15-3.15-.9-6.85.55.45-4.7 8-19.75l10-19q3.65-6.95 5.85-13.75 2.9-8.85 2.55-15.15 1.3-1.25 2.15-2.85t.95-3"/><path fill="#91301d" d="M88.3 231.3q5.15 3.7 13.65 4.5 6.85.6 12-.65l1.85 5.2 1.95 4.75q-7.6 7.3-18.9 4.85Q87.7 247.6 83.2 238.3q.8-1.75 2.3-3.85 1.65-2.3 2.8-3.15"/><path fill="#c82f07" d="M101.85 48.2q4.8 13.65 5.8 20.2-3.25 3.85-4.15 6.65-.65-10.55-3.3-24.1-2.8-14.25-5.7-20.1 2.55 3.75 7.35 17.35m44.6-23.9 2.1-.2q1.2 4.45 1.25 17.1.05 10.25-.45 15.8-.2 1.85-2.75 1.2-2.55-.6-2-2.6 1.3-4.45 1.9-14.45.7-10.35-.05-16.85m-43.15-2.45q.8 1.8.35 4.4-.45 2.45-1.5 3.35l-1.05-1.95q2-2.3 2.2-5.8"/><path fill="#c82f07" d="M84.9 23.75q.8 3.8 3.7 5.8 2.7 1.75 6.1 1.45.65 1.4.95 2.9-3.6.95-6.85-1.1-4.1-2.6-3.9-9.05m156.35 101.5q-1.2-.4-2.85-3.2-9-15.2-37-51.15-30.55-39.15-44.35-51.05-3.5 4.3-8.95 4.3-6.45-.05-9.6-3.75-3.05-3.65-2.35-9.95.6 4.6 4.1 7.1 3.2 2.3 7.55 2.2 4.3-.15 7.45-2.5 3.4-2.55 3.85-6.7.65 1.95.2 4.35-.4 2.15 1.05 3.5 18.5 17.85 46.45 55.15 26.75 35.75 34.45 51.7M136.5 238.7q3.25 5.65 9.2 6.85 5.9 1.2 12.3-2.45-4.95 7.35-11.7 12.7-6.95 5.45-15.1 8.2-4.5-4.55-8.45-10.65-3.2-4.85-5.3-9.5 10-1.1 19.05-5.15m-57.3 9.5q-7.85-11.65-7.8-28.05 3.55 10.1 12.65 16.35-2.8 4.95-4.85 11.7"/><path fill="#595757" d="M158 243.1q-6.4 3.65-12.3 2.45-5.95-1.2-9.2-6.85 12.05-5.45 19.9-15 8.65-10.5 10.85-24.35 2.2 11.3-.35 22.95-2.45 11.25-8.9 20.8"/><path fill="#dcd096" d="M115.8 266.4q-11.8-.15-21.3-4.85-9.45-4.7-15.3-13.35 1.45-4.95 3.8-9.7 4.1 8.5 14.85 11.15 11.55 2.9 20.1-4.8 2.15 4.55 5.2 9.15 3.8 5.65 8.05 10-7.5 2.45-15.4 2.4"/><path fill="#782310" d="m83 238.5 1.05-2q6.7 4.6 15.5 6.5 8.6 1.85 17.9.85l.5 1q-8.55 7.7-20.1 4.8Q87.1 247 83 238.5"/><path fill="#c82f07" d="M137.5 98.3q3.25-.15 6.7-1.45 4.35 3.8 9.25-.4 5.1-4.35 4.35-12.9 2.4-4.75 3.05-9.6.6-4.95-.85-8.55 7.4 11.4 4.6 24.85-2.3 11.1-9.85 18.85-2.4-3.3-7.75-6.8-5.75-3.8-9.5-4"/><path fill="#c82f07" d="M134.65 92.4q1.1 3.2 2.95 5.95l-2.35-.3q-.85-2.95-.6-5.65m65.2 47.05q4.9 3.3 14.6 16.25 9.45 12.6 19.35 28.85 24.1 39.65 25.8 57.1-1.4-3.5-10.5-21.55-8.65-17.2-23.8-42.35-17.25-28.7-24-35.25-5.2 1.8-9.75-1.45-4.75-3.35-3.75-8.8.9 3.55 3.9 5.4 2.6 1.6 5.95 1.45 1.45-.1 2.2.35m4.7-4.55h-.05q1.15-2 1.2-4.4 1.3 2.75.7 5.55zM85.6 121.05l-.3-.2q1.05-1.2 1.25-2.75.25 1.45-.4 3.5zm-6.7 6.15q-4.2.1-5.95-3-1.4-2.55-.75-6.05.45 2.85 2.55 4.3 1.9 1.25 4.6 1.15 1.1-.1 1.55 1.05l1.2 1.8q-1.6.75-3.2.75M93 137.7q7.8 9.7 13.9 18.4l-2.15 3.05Q92 139.25 81.5 124.9q2.85 2.05 11.5 12.8"/><path fill="#c82f07" d="m73.1 124.35 1.15 1.2 1.25.85q-10.7 9.05-33.85 35.4-20.5 23.35-32.95 39.55l-3.25 4.6Q3.15 209 2.2 209.3q3.45-11.15 30.05-42.25 24.6-28.7 40.85-42.7m8.35 127q2 2.95 7.8 7.45-1.05 4.45-5.3 9.4-4.1 4.75-9.15 7.75 2.05-5.85-.05-11.3-1.7-4.5-4.9-6.4 6-5.9 11.6-6.9m73.2 11.1q-5.05 1.15-9.5 7-5.05 6.7-4.4 14.6-2.7-3.4-4.8-8.95-2.45-6.5-2.3-12.1l6.95-3.6q4.75-2.7 6.5-4.4 1.65.85 3.85 3 2.3 2.2 3.7 4.45"/><path fill="#595757" d="M51.25 238.5q-15.1 7.45-17.7 3.4 7.4-3.95 21.3-17.9 16.05-16.05 20.45-26.95-4.05 11.55-3.7 28.65-7.4 6.4-20.35 12.8m116.8-29.15q.25-9.65-1.3-16 8.35 14.6 31.25 35.1 21.4 19.2 35.05 26-.35 1.8-7.45.65-7.4-1.2-17.2-4.95-26.05-9.95-41.65-26.8 1.15-6.1 1.3-14"/><path fill="#0d131a" d="M142.15 3.45q-3.95 2.2-4.95 6.15-.95 3.7.15 7 1.1 3.25 3.75 5.1.8.6.55 1.1l-1.25-.05q-3.3-2-4.7-5.65t-.35-7.9q1.25-4.9 5.7-7.45Q145.35-.7 150.2.2q5.2.95 8 5.25 2.55 3.8 2.2 8.5l-1.65-.75q.1-3.85-2.05-6.85-2.4-3.25-6.85-4.2-3.9-.8-7.7 1.3m3.8 20.6q.05-.6 1.6-.65 2.55-.05 4.9-1.1 2.4-1.1 4-2.95l1 1.4q-3.7 3.7-9.9 3.85-1.65.05-1.6-.55m-50.5 7.55q3.05 6.95 5.7 19.15 2.75 12.6 3.2 22.65L102.7 77q-.1-9.6-2.85-24.1-2.55-13.35-5.35-20.95-.55-1.3-.1-1.5.45-.15 1.05 1.15m16.35 12.35q6.6 9.1 11.65 13.1l-2.2 1.1Q116.2 54 110 44.6q-5.6-8.45-9.05-16.35-.4-.85.05-1.1.4-.2.85.65 3.9 7.75 9.95 16.15"/><path fill="#0d131a" d="M101.5 19.5q-1.6-2.45-4.6-3.25-3-.85-5.7.3-3.35 1.4-4.7 4.65-1.1 2.75-.5 5.85.8 3.7 3.85 5.5 2.85 1.65 5.6.7l.3 1.35q-3.45 1.15-6.85-.8-3.6-2.1-4.5-6.45-.8-4.25.7-7.5 1.65-3.45 5.5-4.9 3.55-1.35 6.95-.3 3.35 1 5.3 3.9 1.9 2.9 1.8 6.35-.15 3.3-2 5.4l-.75-1.45q1.35-2 1.25-4.55-.15-2.5-1.65-4.8m38.9 2.75q-1.05 9.1-3.9 20.75-3.3 13.35-6.9 21.05-.6 1.2-1 1.05-.45-.15.05-1.45 2.9-8.05 5.95-20.75 3.05-12.45 4.45-21.8zm24.75 70.1q-2.6 9.4-9.7 17.4l-1.05-1.25q6.55-7.85 8.8-16.6 2.25-8.6.1-16.85-1.65-6.2-5.35-10.55-3.7-4.4-8.95-6.4-.65-.2-.55-.95.8-8.05.5-17.85-.25-8.4-1.2-15.2l1.55-.15q1.15 6.95 1.5 15.2.35 9.35-.45 17.5 5.4 2.15 9.4 6.9 3.95 4.8 5.65 11.1 2.25 8.55-.25 17.7m75.8 30.45Q227.8 95.35 207.1 67q-23.5-32.2-47.65-52.55-1.95-1.5-1.9-2.7 0-1.2 2.15.9 25 20.35 48.6 52.65 21 28.8 33.9 56.95 1.45 3.15-.1 3.9t-3.3-1.95q-16.1-25.3-40.9-56.7-25.25-32.05-41.2-47.05-2.5-1.9-1.85-2.55t2.8 1.4q14.75 13.1 40.9 46.15t41.45 57.9q.9 1.5 1.3 1.3.45-.2-.35-1.85M101 81.4q.5-3.8 2.15-7.4 1.8-3.9 4.65-6.6.95-.85 1.25-.6.35.3-.45 1.25-4.8 6.05-5.7 12.15z"/><path fill="#0d131a" d="M116.15 60.3q3.4-2.7 8-4.3 4.25-1.45 8.1-1.5l-.5 1.95q-7.4.25-15.05 4.7l-1.1.15q-.25-.35.55-1m89.7 75.6q.35-2.6-.7-5.05-1.1-2.4-3.25-3.8-2.75-1.8-6.05-1.5-3 .3-4.85 2.15-2.3 2.3-2.5 5.5-.2 3.3 2.05 5.95 1.7 2.05 4.7 2.85 3.05.8 5.75-.1l.85 1.15q-2.65 1.15-6.3.55-4.15-.65-6.35-3.25-2.65-3.2-2.45-7.4.25-4 2.9-6.65 2.1-2.1 5.8-2.45 4.05-.4 7.45 1.8 2.5 1.6 3.7 4.5 1.3 3.15.65 6.7z"/><path fill="#0d131a" d="M192.7 142.05q-9.4 3.9-18.5 10.05-11.3 7.7-16.5 15.5-.55.85-.95.65t.1-1.15q3.9-7.8 15.25-15.8 8.9-6.3 18.8-10.45zm12.45-7.3q22.15 14.55 38.95 42.55 18.65 31.2 18.65 61.55 0 3.75-1.95 4.15-1.95.45-3.15-2.8-4.1-11.2-24.9-47.4-22.2-38.55-33.25-51.7-.75-.9-.4-1.2.4-.3 1.2.5 12.3 12.7 34.55 51.15 20.9 36.1 24.4 48.05.6 1.85 1.25 1.6t.6-2.45q-.35-28.6-18.35-59.3-16.25-27.6-38.2-43.9-1.05-.75-.75-1.15.3-.35 1.35.35m-105.8-.7q9.1 9.7 14.7 16.65l-1.65 1.3-14.3-16.8q-9.3-10.6-12.85-13.8-.8-.75-.5-1.1t1.15.35q4.5 3.85 13.45 13.4M80.7 124.6q.35-.3 1.05.5 4.6 5.25 12.3 16.1 6.85 9.8 11.4 17.15l-1.6 1.45q-3.9-6.85-11.15-17.6t-11.75-16.45q-.65-.85-.25-1.15"/><path fill="#0d131a" d="m72.7 118.7-.55.85-1.95 1.1q-22.1 10.95-43.85 38.4-21.5 27.15-24.7 47.55-.25 1.75.35 1.8t1.65-1.5q10.9-15.8 33.4-41.45 22.9-26.15 36.8-38.4l1.45-1 1.7.2 4.75-.25.8 1.15q-1.3.7-3.2.75-2.1.1-3.8-.6-12.35 11.5-37 39.8-23.9 27.35-33.75 41-1.9 2.65-3.55 2.15-1.6-.5-1.2-3.7 3-22.5 26.25-50.7 22.65-27.4 44.7-37 .3-2.5 1.85-4.35 2.1-2.6 5.55-3 3.4-.4 6.1 1.55 1.95 1.45 2.65 3.85.75 2.55-.1 5.35l-1.2-.9q.5-2.15-.25-4.2-.7-1.8-2-2.8-2.25-1.55-4.9-1.3-2.8.25-4.65 2.5-.9 1.15-1.35 3.15m27.95-26.55q.6 4.35 2.55 7.4 1.7 2.7 2.75 2.3 2.5-1.05 1.15-11.15-.55-4.4-1.8-7.25-1.2-2.65-2.4-2.65-1.45 0-2.15 3.4-.75 3.5-.1 7.95M99.5 83.4q1.1-3.55 3.2-3.75t3.8 3.1q1.55 3.1 2.1 7.8.6 5.1.3 7.85-.45 3.8-2.6 4.55-2 .75-4.3-2.5-2.35-3.3-2.95-8.1-.65-5.25.45-8.95"/><path fill="#0d131a" d="M103.45 86.7q.9-.15 1.7 1.45.65 1.4.9 3.25.25 1.75-.1 3.55-.4 1.95-1.2 2.05-.75.1-1.6-1.8-.8-1.65-1.05-3.4-.25-1.6.15-3.25.4-1.8 1.2-1.85m35.6-2.2q0-6.15 3.15-10.15 3-3.75 7.25-3.75 4.2 0 6.8 4.3 2.5 4.1 2.6 10.3.1 6.15-3.15 10.15-3.1 3.7-7.4 3.7-4.1 0-6.7-4.15-2.55-4.05-2.55-10.4m9.3 13.2q3.55.1 6.15-3.45 2.7-3.7 2.6-9.1-.1-5.15-2.05-8.85-2.2-4.1-5.7-4.15-3.7-.05-6.05 3.45-2.35 3.45-2.35 8.85 0 5.9 2 9.55 2.05 3.65 5.4 3.7"/><path fill="#0d131a" d="M149.05 78.7q2.65-.05 3.1 6.85.15 2.55-.85 4.8t-2.4 2.25q-1.05 0-1.95-2t-1.1-4.75q-.2-2.65.7-4.8.95-2.3 2.5-2.35m-37.1 16.95q-.3 2.25.2 5.3l-1.5.25q-.25-3.25.3-5.7.25-1 .7-.95.45.1.3 1.1m24.8 2.75q-1.2-2.25-2.1-5.1-.35-1 .1-1.15.5-.2.85.8 1.1 2.95 2.85 5.55zm18.75 64.8q-1.2-.4-1.8-1.7-.65-1.25-.25-2.45.2-.65.6-.6t.4.7q0 .9.4 1.75.45.95 1.15 1.4.65.45.4.8z"/><path fill="#0d131a" d="M128.45 134.1q-4.05 8.25-13.35 17l-8.4 7.45Q99.6 165 94.2 170.9q-16.6 18.35-19.9 35.15-4.8 24.25 5.9 40.95 9.95 15.5 28.4 17.85 23.45 3 40.8-13.45 7.7-7.35 12.25-17.2 4.6-9.85 5.05-20.3.9-20-7.8-49.05l1.6-1.9q9.5 31.2 8.6 51.05-1.15 25.15-19.5 40.8-18.05 15.4-41.3 12.3-21.25-2.8-31.4-19.65-10.25-17-5.3-41.75 3.5-17.4 20.8-36.2 5.55-6.05 12.9-12.55l8.5-7.45q9-8.45 12.9-15.85 4-7.65 3.75-16.4l1.55-1.35q.65 9.7-3.55 18.2"/><path fill="#0d131a" d="M124.95 143.25q-3.1 6.65-8.75 16.95-8.15 14.75-10.6 24l-1.9.75q2.55-10.2 11-25.6 9.65-17.55 12.55-25.3l2.55-3.7q-1.5 5.55-4.85 12.9"/><path fill="#0d131a" d="M136 131.65q-1.85 7.85-7.05 17.2-7.05 12.75-9.45 17.7-4.35 8.85-6.9 17.3l-1.85-.45q2.55-8.5 7.05-17.55 2.55-5.1 9.75-17.9 5.05-9 6.95-17.25 2-8.4 1.2-17.9l1.4 1.6q.75 9.4-1.1 17.25m4.15 7.15q-2.2 6.75-6.45 13.45-4.5 7-9.15 17.5-4.95 11.15-6.9 19.4l-1.1-2.25q2-8.1 6.9-18.75 4.4-9.55 9-16.75 9.4-14.6 8.6-28.6l1.1 2.4q.35 6.4-2 13.6"/><path fill="#0d131a" d="M102.7 186.75q-6.3 4-9.15 12.3-2.8 8.15-1.65 15.05 1.15 6.85 5.6 8.7 3.8 1.55 8.95-.95 6.65-3.3 10.1-12.45 3.6-9.4 1.45-16.9-1.85-6.65-6.5-7.95-3.7-1.1-8.8 2.2m17.35 5.25q2.35 8.15-1.5 18.15-3.9 10.15-11.7 13.8-6 2.75-10.4 1.05-5.4-2.15-6.65-10.2-1.25-7.65 1.8-16.45 2.95-8.55 9.55-13.05 5.95-4 10.9-2.55 5.85 1.7 8 9.25m-32.3-14.8q2.15 11.8-1.85 24.25-4.4 13.6-14.15 20.35l-.2-2.45q8.4-6.15 12.45-18.4 3.75-11.45 1.95-22.2zM167 194.35l-.2 5.8q-.9-5.2-4.15-8.8-3-3.3-6.4-3.75-7.4-1-13.8 7-6.25 7.8-7.75 19.2-1.45 10.9.4 18.5 1.9 7.65 6.95 10.8 3.55 2.2 8.1 1.75 4.75-.45 8.7-3.55l-1.35 3.1q-4.05 2.65-8.85 2.7-4.5.1-7.85-2-5.4-3.4-7.55-11.8-2.2-8.4-.7-19.75 1.7-12.7 8.85-20.9 7.05-8.1 15.15-7.15 3.1.4 5.9 2.65 2.95 2.4 4.55 6.2M114.8 235q1.7 6.6 7.25 15.7 5.65 9.3 10.1 12.35l-2.1 1q-4.55-3.4-9.9-12.85-4.95-8.6-6.75-15.1-6.2 1.45-13.65.3-7.15-1.15-11.55-4.1-2.6 2.5-5.05 7.95-2.2 5-2.75 8.85l-1.45-2.05q.8-4.05 3.2-8.8 2.6-5 5.3-7.4l1.3-.05q4.15 2.75 11.3 3.9 7.65 1.2 13.55-.35.95-.25 1.2.65"/><path fill="#0d131a" d="M118.15 245.7q-7.8 7.4-19.6 5.1-11.7-2.3-15.85-11.75l1.1-1.65q3.75 9.25 15.2 11.6t18.5-4.8zM88.3 167.45q-16.65 7.65-33.85 30.8-16.5 22.15-20.1 39.7-.6 2.85.35 3.8.95.9 3.75.3 7.05-1.55 17.35-7.1 10.65-5.8 15.85-11.2l.35 2.9q-5.6 5.75-16.55 11.2-9.6 4.8-16.6 6.35-3.8.8-5.5-.8-1.85-1.7-1-5.8 3.6-18.2 20-40.4 16.9-22.85 33.8-30.95zm109.6 76.35q20.5 10.35 31.95 10.95 1.7.1 2.25-.75.55-.95-.05-3.1-6.2-21.75-28.4-48.8-20.75-25.2-42.45-39.95l1.25-1.5q21.7 13.4 42.95 39.25 22.65 27.6 28.55 50.6.9 3.55-.1 4.85-.9 1.2-4 1.2-11.7.1-32.35-10-21.25-10.35-31.15-21.7l.8-2.65q9.45 10.85 30.75 21.6M90.5 258.9q-3.45 10.9-14.9 18-4.55 2.85-8.6 3.85-4 .95-5.55-.45-1.9-1.7-1.3-6 .55-4.25 3.25-9.1 6.65-11.95 18.05-15.35L82.6 252q-10.1 2.45-16.75 13.25-2.65 4.35-3.45 8.15t.7 5.1q1.2 1.1 4.8-.1 3.6-1.25 7.75-4.15 10.3-7.3 12.95-16.65zm57.15-4.75q10.55 5.65 15.25 24.45 1.9 7.55 1.6 13.45-.3 6.1-2.75 7.2-3.2 1.45-8.15-.95-4.9-2.35-9.55-7.5-11.3-12.4-11.5-27.85l2.3-.55q.05 13.85 10.3 26 4.25 5 8.6 7.45 4.4 2.45 7.05 1.2 1.7-.8 1.6-6.4-.15-5.6-2.05-12.5-4.85-17.8-14.15-22.4z"/><path fill="#fff" d="M102.65 83.15q.55 0 1 .65.4.7.4 1.65.05 1-.5 1.7-.45.7-1.1.7t-1.1-.7q-.4-.7-.4-1.7t.45-1.65 1.25-.65m43.85-7.45q.75.15 1.15 1.1.5 1.15.1 2.6-.3 1.2-1.1 1.9-.85.7-1.8.5-.85-.2-1.25-1.15-.35-1-.05-2.5.3-1.25 1.15-1.95.8-.6 1.8-.5"/><path fill="#e7380d" d="M86.25 29.85q1.75 3.1 4.65 4.05-13.35 21.65-22.85 55.8-7.45 26.7-10.45 52.05-.25 1.9-1.2 2.3-1.05.45-1.2-2.2-1.75-28 8.25-61.6 9.1-30.45 22.8-50.4"/><path fill="#717071" d="M115.65 116.65q.35 6.9-2.5 20-2.9 13.55-6.3 19.25-8.45 14.4-20.15 10.7-6.05-1.9-7.5-10.65-1.35-8.4 2.65-14.05 3.6-5.05 8.95-5.3 5-.25 6.85 3.25.25-11.95 1.4-24.8.95-10.25 9.8-13.25 3.5-1.15 6.45-.35 3.05.9 3.75 3.45zm51.05 13.7q.9-2.3 3.7-4.65 2.8-2.45 5.6-3.25 5.65-1.65 10.4 1.1 5.55 3.15 7.4 11.3 2.25 10-2.55 17.35-4.5 6.9-13.05 8.65-11.4 2.35-22.3-9-9.6-10.05-12.65-22.95-.85-3.8-3.55-9.4-2.8-5.9-5.25-8.65l-8.5-7.55q.75-3.25 4.8-4.45l8.05-.25q7.25 1.2 15.6 10.1 9 9.65 12.3 21.65"/><path fill="#91301d" d="M134.55 106.95q.95 3.7-1.7 7.75-2.75 4.25-7.35 5.1-4.15.75-8.25-2-3.75-2.5-4.15-5.35-.4-2.55 1.95-4.9 2.5-2.6 7.3-3.65 4.55-1 8.25.05 3.4 1 3.95 3"/><path fill="#c82f07" d="m88.5 32.85 2.3 1.2q-12 19.2-21.4 51-8.6 29-11.75 56.3-.1 1.2-.55 1.95-.5.7-.9.45.85-23.3 9.3-54.7 9.6-35.45 23-56.2"/><path fill="#595757" d="M113.25 113.35q1 1.65 2.5 3.15-.7 18-5.4 31.4-5 14.25-12.9 18.2-6.9 3.45-12.8-.5-5.45-3.75-5.15-9.85 1.15 4.5 5.95 5.8 3.8.95 8.25-.2 7.5-2 13.2-16.1 5.6-13.95 6.35-31.9"/><path fill="#595757" d="M92.05 152q-1.65.15-2.65-.8-1.15-1.15-.95-3.45.6 2.25 4.1 1.65 3.7-.65 5.3-4.15-.05 2.6-1.9 4.65-1.75 1.9-3.9 2.1m81.2 9.15q-9.45-.45-17.8-9.5-7.3-7.9-11.1-19.1l-3.75-11q-3.1-7.8-6.2-10.65l.3-2.2v-2.25q9.45 7.65 16.45 27.8 2.95 8.45 9.45 14.45 7.2 6.65 15.4 6.5 6.75-.1 12.3-4.4 4.7-3.65 5.75-7.65-.35 7.35-6.05 12.7-6.1 5.75-14.75 5.3"/><path fill="#595757" d="M165.3 137.9q.35 2.4 2.7 3.95 2.2 1.4 5.2 1.5 7.15.15 8.6-6.05.8 3.65-1 6.65-1.95 3.25-5.8 3.45-4.1.25-7-2.55-2.95-2.9-2.7-6.95"/><path fill="#782310" d="M124.55 119.9q-4.05.2-7.65-2.35-3.65-2.6-3.8-5.8 1.9 2.5 5.5 3.8 3.15 1.15 5.8.75 2.95-.4 5.9-2.15 3.35-2 4.5-4.6-.05 3.25-3.15 6.6-3.25 3.55-7.1 3.75"/><path fill="#c39073" d="M120.55 109.05q.05.65-.55 1.1-.65.45-1.5.5-.95.05-1.55-.4-.5-.4-.55-1t.6-1.1q.65-.45 1.35-.5.9-.05 1.5.35.65.4.7 1.05"/><path fill="#0d131a" d="M110.85 100.35q3-.5 5.5.7t3.6 3.65l-1.3.65q-.85-1.9-2.85-2.85-2.15-1.05-4.8-.6-4.25.7-7.25 4.25-3.45 4-4.05 10.45-.7 7.4-1.6 24.15l-1.35-1.9q.9-17.3 1.4-22.45.65-7.1 4.35-11.35 3.3-3.85 8.35-4.7m55.25 31.7q-1.65-7.6-6.5-15.25-4.85-7.6-11.05-12.45Q141.2 98.6 134 98.9q-6.65.3-7.35 4.6h-1.7q.9-5.5 8.5-6.05 8.05-.55 16.15 5.65 6.2 4.8 11 12t6.65 14.65z"/><path fill="#0d131a" d="M78.15 150.75q.5-6.8 4.65-11.05 4.05-4.1 9.4-3.8 3.3.2 5.1 2.35 1.7 2.05 1.6 5.3-.15 3.8-2.2 6.45-2.1 2.7-5 2.7-1.9 0-3-1.3-1.1-1.25-1.05-3.2 0-.95.45-.95.4 0 .55.95.55 3.05 3.1 3 2.15-.1 3.8-2.15 1.75-2.2 1.8-5.55.05-2.65-1.5-4.3-1.45-1.55-3.75-1.65-4.85-.35-8.4 3.5t-3.95 9.75q-.4 6.55 2.6 10.95t8 4.65q12.35.7 18.75-17.5 4.45-12.5 5.85-33.2l1.55 1.35q-1.7 23.7-7.65 36.8-6.85 15.15-18.7 14.5-6-.35-9.3-5.4-3.25-4.95-2.7-12.2m100.55-17.5q.3-.4 1.05.15 4 2.95 2.75 8.3-1.35 5.5-7.25 6.5-3.8.65-6.95-2-3.3-2.75-3.8-7.4-.7-6.65 3.15-11.65 3.65-4.75 9.85-6.1 5.65-1.25 10.6 2.5 5.2 4 6.55 11.35 1.85 10.15-2.85 17.7-5.15 8.4-16.5 9.55-9.85 1-19.25-8.6-9.6-9.75-14.2-25.95-2.75-9.55-7.7-15.9l.35-2.2q2.8 3.45 5.2 8.1 2.5 4.8 3.85 9.55 4 14.1 12.3 23.65 9.25 10.6 19.25 9.55 10.55-1.05 15.3-8.65 4.3-6.85 2.55-16.55-1.2-6.5-5.65-10.05-4.4-3.45-9.5-2.35-5.85 1.3-9.05 5.7-3.25 4.4-2.6 10.4.35 3.75 3.1 6.1 2.65 2.3 5.85 1.85 5.1-.7 6.2-5.45 1-4.5-2.15-7.15-.7-.55-.45-.95"/><path fill="#0d131a" d="M122.4 104.75q-3.85.8-6.2 2.75-2.7 2.15-2.2 4.85.5 2.95 4.65 5.25 3.8 2.05 6.35 1.6 4.8-.9 7.3-4.95 2.25-3.7 1.15-7.1-.65-2-3.95-2.65zm2.8 15.9q-3.5.65-7.8-1.85-4.5-2.55-5.1-6.1-.6-3.3 2.4-6 2.8-2.5 7.45-3.5 4.35-.95 8.15-.15 4.15.9 4.95 3.5 1.3 3.95-1.4 8.3-2.95 4.75-8.65 5.8M101.5 19.5q-1.6-2.45-4.6-3.25-3-.85-5.7.3-3.35 1.4-4.7 4.65-1.1 2.75-.5 5.85.8 3.7 3.85 5.5 2.85 1.65 5.6.7l.3 1.35q-3.45 1.15-6.85-.8-3.6-2.1-4.5-6.45-.8-4.2.75-7.45 1.65-3.4 5.5-4.85 3.55-1.4 6.8-.5 3.35.9 5.4 4 1.9 2.9 1.8 6.35-.15 3.3-2 5.4l-.75-1.45q1.35-2 1.25-4.55-.15-2.5-1.65-4.8"/><path fill="#0d131a" d="M91.65 34.2Q80.5 51.55 70.1 86.1q-9.8 32.45-11.75 54.9-.3 3.7-1.95 3.85t-1.9-3.35q-2.15-27.5 8.15-61.75 9.4-31.4 23.25-50.55l.8 1.6Q73.7 49 64.35 80.75q-10 33.95-8.5 60.55.15 2.15.55 2.05t.55-2.4q1.35-22.1 11.4-55.25 10.5-34.75 21.95-52.1z"/></svg>