<svg xmlns="http://www.w3.org/2000/svg" width="387" height="420" viewBox="-2.6 -0.8 387.1 420.2"><path fill="#f9be00" d="M321.2 48.75q5.8 12.45 5.25 18.2-6.4.4-18.4-6.5l-10.7-7q-8.15 3.05-16.55 5.7-16.8 5.35-18.1 3.6-.35-4.85 5.45-16.15 2.9-5.6 5.85-10.3-8.8-17.1-10.95-27.85-1.05-5.4-.35-7.35l2.35.25q3.05.5 6.65 1.6 11.55 3.6 24.1 12.2l13.5-7.2q14.25-6.8 18.2-4.75.8 5.5-5.6 20.45-3.2 7.45-6.55 13.8z"/><path fill="#3e3a39" d="m328 86.25 20.6 9.95q10.2 4.85 15.15 8.4 6.6 4.65 10.4 11 4.1 6.9 6.15 17.8l.45 7.15q.05 8.95-2.2 18.25-7.15 29.7-34.1 51.3-3.25 2.2-10.65-1.85-2.95-1.55-4.45-3.2-1.6-1.7-.55-2.35 12.4-7.95 24.55-25.75 13.9-20.4 12.65-34.95-1.8-20.85-24.95-34.4-7.85-3.55-15.1-7.3Q311.75 93 302 84.5q-9.9-8.6-12.85-24.3-.9-4.9-1-9.95l.05-4.05-7.2-2.1 4.65-3.65-5.1-14.35 14.8 4.65 2.9-8.1L301 29l8.3-5.05L304.05 38l8.55 2.75-11.05 2.8-.3 4.4q.05 5.5 1.75 10.9 5.4 17.3 25 27.4"/><path fill="#d7a400" d="m262.4 62.25 10-3.45q10.9-4.3 15.65-8.55l.75 5.95q-5.35 2.6-11.35 4.65-11.95 4.1-15.05 1.4m50.6.8-10.05-5.65q-.7-2.05-1-6.7l-.2-4.3 6.05 6.1q8.1 7.45 18.65 14.1-2.8 1.75-13.45-3.55"/><path fill="#0d131a" d="M328.05 2.35q.45.55.45 1.9 0 5.1-3.8 15.65-3.95 11.15-8.5 17.6 4.15 5.55 7.7 14.45t3.55 13.65q0 1.55-.65 2.2-1.75 1.6-10.45-2-8.65-3.6-13.95-8.05-.25-.25.15-1.15t.7-.7q4.9 3.9 13.05 7.55 7.6 3.4 9.3 2.95l.2-.8q0-3.25-3.95-12.9-4-9.8-7.4-14.7l-.2-.5.15-.45q4.2-7.1 8.4-18.4 4-10.8 4-14.35l-.1-.8q-1.2-1.1-9.9 2.2-9.75 3.7-20.5 10.1l-.85.05-.45-.25q-17.3-8.95-25.6-12.2-5.45-2.15-6.2-1.55-.15.15-.15.8 0 4.4 10.55 30.2l1.45 3.7-.2.55q-3.05 3.95-7.2 12.3-4.45 8.95-4.45 11.85 0 .45.15.75 1.3.75 9.9-1.65 8.4-2.3 15.35-5.2.35-.15.7.7.3.8-.05.95-2.6 2.05-13.7 5.2-12.1 3.45-13.7 1-.4-.65-.4-1.65 0-4.15 3.8-11.9 3.4-6.9 7.85-13-5.6-11.9-8.85-21.75-2.9-8.6-2.9-12.15 0-1.35.5-1.9 1.2-1.45 6.65.15 9.05 2.6 27.35 13.2Q304 8.05 314.9 4.05q11.05-4.1 13.15-1.7"/><path fill="#0d131a" d="M308.4 22.95q.75-.5 1.2-.2.5.3.15 1.25l-4.85 13.7 7.9 2.25q.95.25.95.85 0 .65-.95.85l-11.15 2.7q-.35.05-.55-.8t.1-.95l3.4-.6 5.85-1.2-4.45-1.1-2.5-.55q-.95-.25-.6-1.15l4.95-12.75-6.3 4.75-.8.25q-.3-.05-.55-.65l-1.85-5.2-2.25 6.7-.4.65-.7-.1-13.8-5.05 5.3 13.7.15.55-.5.5q-2.8 1.5-4.25 2.55l6.65 1.7q.3.1.05.95t-.6.75l-7.6-2.4q-1.7-.55-.25-1.6l4.45-3.05-5.35-14.35q-.6-1.65 1.15-1.15l14.35 4.95 2.75-7.1q.4-.95.9-.85.45.05.75.8l2.3 5.35z"/><path fill="#0d131a" d="M336.1 104.05q13.3 5.6 21.2 14.35 8.05 8.95 9.55 20.2 2.05 15.1-7.8 32.15-9.7 16.8-29.45 32.9-.3.25-1.05-.65-.75-.95-.45-1.2 19.35-15.75 28.6-31.6 9.4-16.1 7.4-30.65-1.5-10.8-9.2-19.5-7.5-8.45-20.05-13.95-29.25-12.9-39.05-26.5-9.2-12.8-8.15-36.75.1-2.15.75-1.95.7.2.6 2.4-.2 23.05 9.4 35.6 9.85 13 37.7 25.15"/><path fill="#0d131a" d="M371.15 110.45q8.05 9.55 10.4 24.3 2.95 18.5-6.6 38.9-9.6 20.6-29.15 37.2-.25.25-1.4-.55-1.15-.75-.9-1 19.3-16.35 28.9-36.3 9.55-19.95 6.65-37.85-4.4-27.85-35.85-40.35-27.55-11.2-36.15-23.85-4-5.9-5.45-13.7-1.1-6.05-1.1-16.5.05-2.65.75-2.6.65.05.7 2.55.15 9.6 1.25 15.25 1.5 7.4 5.35 13.05 8.6 12.55 35.25 23.4 18.4 7.45 27.35 18.05"/><path fill="#3e3a39" d="M205.6 90.6q5.6-3.7 8.45-6.3l.2 1.35 3.4-6.35.05 4.65-.65 12.25q-1.85 20.25-8 36.7l5.7-6.7-1.1 5.45q-1.55 6.85-3.5 13.5-6.3 21.4-14.7 33.45l12.7-1q15.1-2.25 26.95-8.5-2.8 8.05-7.8 18.2-10.1 20.3-21.35 30.85 5.7-2.25 16.35-7.8-3.4 8.95-9.9 15.75-3.25 3.4-5.8 5 9.3-.85 25.85-10.2 8.3-4.7 14.7-9.2-7 21.15-24.45 36.15-8.7 7.5-16.05 10.75 6.15 2.4 16.2.85 5-.8 8.8-2.05-6.8 8.2-18.7 12.9-3.75 1.5-7.55 2.45l-3.05.65 11.2 57.6q-.85 14.55-.45 35.6l.6 18.2 7.1-3.3-9.35 21.55q-5.3 13.8-14.65 14.5l-11.2-.6-4.15-1.15q-4.5 1.55-10.5.05l-5.15-1.75q-7.7.6-12-2.9-3.85-3.05-4.4-8.8-.45-4.5 3.75-8.4 1.65-1.55 5.55-3.85l4.55-2.05q3.85-2.25 7.2-6.75 3.4-4.65 6.3-23.8 1.65-10.9 2.8-23.95.45-4.65-9.55-21.95l-10.1-16.35q-14.55 4.65-29.4-.5-4.65-1.6-8.75-4l-3.2-2.05 2.4 5.85q-3-.6-8-4.05l-4.4-3.35.4 5.85q.3 6.4-.25 9-1.7 4.8-23.1 37.9l9.15-5q-3.35 7.2-11.4 18.5l-7.4 9.8q-5.35 3.9-15.2 2.95L52 364.45q-3.1 1.3-8.15.4l-4.45-1.1q-7.8 0-10.9-3.95-2-2.6-2.35-8.1-.25-3.95 1.7-7.45 1.8-3.25 4.15-3.95 2.95-.85 14.65-7.25 6.15-3.2 17.9-22.2Q71.4 299.8 78.2 286.7q2.45-4.75 2.25-21.3l-.7-15.6-26.9-7.6q-23.05-5.15-39.45-20.9-5.1-4.95-8.95-10.35l-2.8-4.4q4.2.95 14.2-1l9.1-2.15-1.9-27.05Q1.95 164.05 1.4 130.3q-.15-10.55 1.75-22l1.95-9.35 1.75 3.8q.1-1.85.55-5.75l.45-3.55.75 4.4q1.2 5.4 3.6 10.2 7.6 15.4 23.95 19.5 11.65 2.6 20.5 1.9 4.45-.35 6.55-1.2Q65.35 91.4 85.1 67q9.85-12.15 19.3-17-.85 1.7-2.75 7.5l-1.75 5.4q3.45-8.05 13.05-14.3 4.75-3.15 8.85-4.65-3.8 9.8-3.55 24.7.4 29.75 20.45 55.3l12.55-7.2q15.3-8.2 29.2-13.15 13.9-5.6 25.15-13"/><path fill="#7dccf3" d="M97.5 272.9q2.8 4.65 7.2 9.95l3.85 4.35.45 6.2q.35 6.6-.3 8.65-1 3.25-21.9 36.7l-6.85 3.8 2.75-9.8-10.2 7.55q2.3-6.7 13.7-25.55l11.3-18.05q.55-.7 0-23.8m92.05.85 12.45-.35 4.85 24.35q5.2 25.9 7.05 33.75-.95 16.5-.6 36.45.2 10 .6 16.65l-6.9 3.45.2-6.5q.1-6.45-.55-5.9t-3.5 5.15l-2.7 4.5q0-5 2.55-26.8l2.8-23.35q.3-3.45-16.25-61.4"/><path fill="#7dccf3" d="m224.05 284.45 1.45 3.35q1.45 3.5 1.3 4.25L220 310.1l-6.65 17.1-5.7-25.85q2.3-4.75 9.55-11.3zM160.45 361q-2.65.8-5.65 0-5.95-1.5-7.45-9.15-2.6-9.05 7.45-13.25 5.2-2.15 12.55-2.95 1.6-.45 5.5-5.85l3.6-5.35 1.45 2.85q1.55 3.15 1.85 4.75.4 1.95-1.3 16.3-1.65 14.4-2.3 14.55-.9.15-5.7-1.55-2.8.45-6.7.1zm165.95-75.8 3.9 3.25q.8.95 14.55 27.65 14.1 27.45 16.65 33.45 2.85 6.7.9 15-2 8.5-7.7 12.6-4.85 3.45-12.6 1.9l-6.8-2.25q-4.25 2.15-9.05.95l-4-1.65q-8.6 2.5-13.45-3.65-3.95-5.05-3.25-11.05.45-3.8 6.95-8.2 3.2-2.2 6.35-3.65.55-11.45-11.25-32.05-3.65-6.4-8.15-13l-3.75-5.3 9.7.5q-4.5-14.85-3.3-35.05.35-6.3 1.25-12.4l.8-4.85 11.45 5.7q.55 5.15 2.75 14.6 2.2 9.5 3.55 12.3 1.05 2.3 4.5 5.2m-206.35-2.5q7.7 6.35 12 7.9-3.55-10-4.4-13l5.6 5q6.75 5.35 12.4 7.4-4.25-11.15-5-14.4l4.85 3.45q5.45 3.6 8.65 4.5l6.1 12q-14 4.25-29.1-.4-4.7-1.45-9-3.6l-3.3-1.9q-1.85-3.55-3.9-8.65l-1.7-4.4zM215 207.45l5.1 3.9q-10.55 5.8-12.55 6.35zm14.7 14q-6.7 5.1-16.8 8.6l-8.8 2.45q6.5-3.8 12.8-12.1 3.15-4.15 5-7.55zm-1.2 20.75q5.5-5.85 8.85-10.95l5.3 9.5q5.4 11.1 5.95 19.15-12.5 2.5-29.75 12.7-8.6 5.05-14.75 9.65l-2-8.35q10-1.35 20.9-9.25 5.45-3.95 8.9-7.65-11.45 3.75-19.35 2.8l-4.25-1.05-1.3-.65q10.55-4.1 21.5-15.9"/><path fill="#f9be00" d="M84.9 317.15q4.15 1.4 8.15 3.85l3.2 2.15-6.8 10.7q-.6-.8-5.7-3.8l-5-2.85zm17.55-21.05q5.15 1.8 6.5 3.9.55 1-2.65 6.6l-3.3 5.35q-6.4-3.85-11.05-5.35l2.85-4.95q2.85-5.25 2.8-6.95zm-5.05-22.2 6.15 7.6-5.95-.55zm105.95 77.25q3.95 1.85 7.4 1.1 1.75-.35 2.65-1.1l-.45 17.9q-3.15 2.15-7.65 1.5l-3.9-1.05zm1.55-33.9q3.35-.45 5.25-1.95 1.65 2.05 2.85 10.8l.9 8.35q-2.45 1.95-5.6 1.8l-2.7-.5v-2.3l-3.7-16.05zm-12.1-32.5q2.75 1.2 7.1-.8 2.15-1.05 3.75-2.3l2.95 16.9q-1.1 1.65-5.15 2.2l-3.8.25z"/><path fill="#7dccf3" d="M20.75 186q.25-5.05 2.1-8.85 1.7-3.55 4.15-4.65 3.9-1.75 9.35 1.3 2.75 1.5 4.7 3.35-1.35 6.3 1.3 17.95 1.3 5.85 2.9 10.45-1.1 5.8 1.25 11.6 1.2 2.9 2.6 4.65l-.2 1.5q-3.35-.75-7.45-2.7-8.2-3.8-11.8-9.6-9.45-12.35-8.9-25"/><path fill="#7dccf3" d="M48.6 222.3q3 1.7 6.15 2.6l-.1 3.15-4.35 1.2zm79.4-73.75 4.15-.65q5.1-.25 9.8 1.6 15.1 5.95 20.7 30.75 5.15 22.9-5.55 36.05-5.35 6.6-11.75 8.6-6.1 1.75-12.9-.25-13.7-3.95-17.45-22.6-9.45-28.85.8-44.05 3.25-4.75 8.05-7.6 2.4-1.4 4.15-1.85"/><path fill="#f9be00" d="M34.3 185.85q3.8.1 6.85 4.5l1.45 6.25q1.65 6.65 2.65 8.95l-.25 2.9q-.05 3.55.8 6.65-.85.5-2.6-.25-3.5-1.45-7.95-7.6-5.45-8.95-5.4-15.7.05-2.1.65-3.75l.55-1.2zm111.55 2.4q3.2 14.3.2 21.8-1.5 3.75-3.65 4.6-2.5.95-5.7-.65-6.4-3.15-9.95-15.8-4.15-17.25-.45-25.25 1.15-2.55 2.95-3.8l1.55-.8 1.65-.1q2 .15 3.95 1.45 6.25 4.25 9.45 18.55"/><path fill="#7dccf3" d="m108.65 204.45-.6-2.2 4.95-5.4 9.65 21.25-3.6 9.05-24.75 1.8 18.35 12.95-1.6 1.55-4.9 3.45q-8.9 4.95-20.85 4.95-2.75.3-11.45-.15-5.45-.3-10.15-2.05l-3.6-1.7-1.85-.25q-2.35-.85-4.6-4-2.3-3.1-.55-8.2l2.2-4.45 1.8 3.95q2.25 4 4.8 4.2 2.7.2 6.55-2.6 2.9-2.15 4.45-4.2.9-1.1 2.5-5.7l1.45-4.4 6.75-2.85 1.65 1.25q1.85 1.65 3.65 2.5 6.15 3.05 13.7-1.35 6.4-3.85 6.55-12.1.05-2.6-.5-5.3"/><path fill="#e50012" d="M44.75 204.9q1.2 3.55 6.05 9.65l4.55 5.4-.15 5.2Q47 223.4 45.05 214q-.6-2.95-.5-6.35zm63.4-3.05.55 2.25q.55 2.75.5 5.4-.2 8.45-6.6 12.35-7.55 4.4-14 1.45-2.05-.95-3.75-2.5l-1.25-1.35q7.8-3.2 16.95-10.75zm-52.7 28.05q4.7 4.35 12 3.2 3.55-.55 5.65-1.35l-3.8 4.55q-3.85 3.65-7.4 2.9-3.45-.75-5.3-5.1z"/><path fill="#f9be00" d="M48.6 210.85q2.1 3.95 6.45 8.75l-.1 5q-5.35-2.8-6.4-8.55-.3-1.8-.15-3.7zm43 4.35q4.15-1.8 10.7-7.55l5.75-5.4q.7.5 1.05 3.25.35 3.05-.15 6.2-1.4 8.85-7.95 10.9-5.7.85-8.1-3.2-.75-1.25-1.1-2.85z"/><path fill="#3e3a39" d="M203.65 281.65q1.75-1.85 13-7.95 5.6-3.05 10.85-5.75-4.1 6.35-3.95 12.6.05 3.15.95 5-5.3 2.7-11.6 9.55-3.15 3.4-5.25 6.25zm20.85-93.2 6.85 1.7q9.15 1.65 20.45 1.65 19.9 0 35.55 10.75 22.85 15.75 29.1 51.1l-12.25-5.95q-3.35 14.2-1.7 34.55.8 10.15 2.3 17.5-6.1.95-15.4-3.3-6.35-2.9-13.65-7.9-4.3-2.95-16.35-15.6l-11.2-12.05q-4.7-25.45-20.55-42.45-4.9-5.3-10.4-9.15l-4.45-2.75z"/><path fill="#3e3a39" d="M335.8 183.5q17.25-3.15 29.55-.55-4.7 3.4-10.45 8.35-11.55 9.9-16.75 17.75l16.6 3.8q17.9 4.75 24.1 9.45l-22.55 7.2q-23.15 7.65-26.05 10l9.7 19.25-22.3-9.95 2.9 7.3q2.95 7.85 3.05 10.6l-6.65-6.4q-.6-11.8-7.05-26.1-12.9-28.5-42.2-40.65-3.7-7.85-4.1-18.4l.35-9 5.75 7.4q6.5 8 10.35 11.15 1.65-9.3 8.25-21.2 13.25-23.8 37.95-36.65l-3.8 19.7q-3.45 23.2-1.5 40.6l4.15-1.25q5.3-1.45 10.7-2.4"/><path fill="#6cb2d3" d="m318.25 368 4.05 8.3q-11.35 1.7-15.1-5.5-1.2-2.25-1.45-5.15l-.05-2.4 2.95 2.7q4.05 2.6 9.6 2.05"/><path fill="#6cb2d3" d="M324 376.95q-3.6-2.7-5.05-7.25l-.7-4 .7 1.2q1 1.4 2.4 2.45 4.4 3.4 11.2 2.2l3.6 5.25q-1.9.8-4.4 1.2-4.95.8-7.75-1.05"/><path fill="#6cb2d3" d="m360.95 348.4 1.85 6.9q1.55 7.6-.05 11.3-2.65 5.95-6.8 9.25-5.85 4.7-13.95 3.25-7.6-1.35-9.55-7.6-.6-1.95-.55-4.15l.15-1.8 3.35 3.1q4.6 2.95 10.95 2.15 7.35-.95 11.6-8.1 4-6.65 3-14.3m-212.9 6.35q-.9-2.05-.8-4.55l.25-2.05 1.3 2.05q1.95 2 5.25 1.9l1.05 3.2q2.1 3.6 7.3 5.9-11.45.1-14.35-6.45"/><path fill="#6cb2d3" d="M156 352.65q3.15 2.7 9.45 2.05l.7 2.6q1.5 2.85 5.35 4.35-4.25.35-8.55-.95-8.6-2.6-8.9-10.85l.35.9q.6 1.1 1.6 1.9"/><path fill="#6cb2d3" d="m177.3 356.5-1.7 5.95q-8.05-1.15-9.9-6.75-.6-1.75-.5-3.75l.25-1.65 2.35 2.95q3.5 2.95 9.5 3.25m-56.05-72.4q7.95 5.95 11.55 7.35-4.1-10.8-4.65-13.05l4.75 4.4q6.1 4.8 12.75 7.1l-4.55-13.75 4.5 2.95q5.15 3.15 8.55 4.45l5.05 11.6q-10.25 4.4-25.95 0-5.25-1.45-10.15-3.65-3.95-1.8-4.65-2.5-.8-.8-2.7-5.8l-1.75-4.8zm99.8-33.85 4.75-1.2q5.9-1.15 11.8-1.05l11.4 11.9q-7 2-16.25 5.85-18.45 7.65-29.45 16.9l-1.2-8.95 10.35-3.3q11.85-4.85 19.3-12.75-3.65 1.05-8.6 1.65-9.85 1.2-16.2-.95zm-179.2-29.4q-8.95-3.8-14-13.1l3.4 1.5q3.9 1.3 6.45.4l2.3 2.4q2.9 2.55 6.05 3.35l.9 2.75q1.25 3.05 2.8 4.65-3.45-.05-7.9-1.95m51.9 24.5 5-1.2q5.85-1.85 10.05-4.95l3.8 3.1q-3.65 2.85-9 5.5-10.7 5.35-19.15 4.5l-10.25-.4q-5.1 0-10.3-2.05l-4.2-2.05 3.7-.7 2.15 1.3q2.75 1.2 5.9.75l11.5-2.25q8.4-1.75 10.8-1.55m70.35-56q.05 5.8-.9 11.15-3.1 17.05-15.5 23.1-12.15 4.2-21.05-2.15-2.8-2-4.95-4.8l-1.55-2.4q1.15.7 2.3 1.35 2.85 1.55 5.85 2.6 9.65 3.35 16.95.35 9.25-3.85 14.75-16.75 4.1-9.55 3.9-16.05z"/><path fill="#d7a400" d="M30.6 190.95q.05-1.2.45-2.45.75-2.5 2.5-2.8t5.05 1.75l2.95 2.1-.25 4q-5.1-5.7-8.4-4.75-1.05.35-1.8 1.25zm93.9-10.6q1.05-10.15 5.3-11.9 3.75-1.55 7.3 1.75 1.8 1.7 2.8 3.65-1.2-.75-2.9-1.25-3.4-1.05-5.9.05-4.2 1.95-5.1 14.15-.45 6.05-.05 11.75-2.35-8.7-1.45-18.2"/><path fill="#0d131a" d="M7.15 93q.35-1.25.9-1.2.65 0 .85 1.3 1.1 8.85 5.2 15.9 4.15 7.1 11 11.85 7.7 5.35 17.5 6.95 9.9 1.65 20.05-.8.4-.05.6 1.05.2 1.15-.2 1.2-10.8 2.55-20.85 1.1-10.45-1.45-18.3-6.9-6-4.2-10.15-10.95-3.9-6.35-5.75-14.2l-.25 5.3q0 5.3 1.1 10.35 1 4.8 2.7 8.15l.45.95q.25.65-.05.9-.4.25-1.5-1.25-3.2-4.45-4.2-13.35-.95-8.9.9-16.35"/><path fill="#0d131a" d="M4.75 97.7q.5-.05.95 1l1.7 4.6q.1.35-.55.95-.65.55-.75.2l-.95-2.8q-1.05 7.3-1.55 15.15l-.65 12.65q-.85 16.15 4.6 27.3 4.7 9.65 15.85 18.45l-.45 1.25q-.65 1.05-.95.85-15.85-12.55-19.85-27.2Q-2.6 132.75 4 98.9q.25-1.15.75-1.2m99.55-48.8q1-.55 1.45-.2.4.4-.2 1.4-2.3 4.1-4.75 12.35Q98.6 70 97.25 77.8q-.3 2.2-.95 2.15-.75-.1-.6-2.2.55-8.5 2.6-15.1 1.1-3.6 4.2-10.45-15.45 10.45-25.95 30.85-11.9 23.05-12.8 50.8-.1 1.95-.8 1.95-.55 0-.55-2.2-.15-31.2 13.35-54.85Q86.9 59.2 104.3 48.9"/><path fill="#0d131a" d="M122.7 42.15q.3.35 0 1.3-7.05 21.8.35 47.3 5.65 19.7 16.35 33 .25.3-.7 1.05t-1.2.45q-8.3-10.8-13.25-22.95-7.15-17.4-7.15-36.5 0-11 3.35-20.85-5.85 3.3-10.65 7.7-7.1 6.5-10.2 14-.1.35-.95 0-.8-.35-.7-.7 3.8-10.05 12.45-16.9 3.35-2.65 11.05-6.7.95-.45 1.25-.2"/><path fill="#0d131a" d="M121.65 43.85q.6.65.35.9-4.2 4.2-7.25 11-2.95 6.5-5.65 17.4l-.4 1.4q-.35.95-.7.9-.55-.1-.25-2.3 1.4-9.9 5-17.8 3.25-7.1 8-11.85.25-.25.9.35m90 45.4.6-2.7q-6 4.85-16.35 10.65-13.4 7.55-28.7 13.45-14.35 5.75-27.1 14.5-12.4 8.45-21.3 18.35-1.15 1.3-1.7.9-.5-.45.6-1.8 8.5-10.65 19.95-19.2 12.25-9.15 26.55-14.9 17.35-6.65 32.5-14.75 12.55-6.75 16.25-10.2.95-.8 1.25-.65.55.25.25 1.45l-.8 4.4-1.05.6z"/><path fill="#0d131a" d="M216.8 77.3q.55-1.4 1.05-1.25.7.2.7 1.5 1.1 42.6-17.65 73.05-1.2 1.9-1.8 1.55-.45-.25.3-2.05 8.45-15.55 12.85-32.85 4.35-17.1 4.5-34.9-8.7 20.8-19.15 33.9l-.85.95q-.7.65-1 .45-.45-.35.8-2.35 15.2-24.2 20.25-38"/><path fill="#0d131a" d="m213.5 129-6.65 10q-.2.3-.55-1-.3-1.25-.1-1.6l8.3-12.15q.9-1.25 1.35-1.05.55.2.2 1.9-4.2 24.35-14.9 45.4-11.4 22.45-27.2 34.9-1.35 1-1.7.6-.25-.35.85-1.65 13.9-13.15 24.7-33.05 11.15-20.55 15.7-42.3"/><path fill="#0d131a" d="M195.1 180.05q-.35 0-.15-1.25t.55-1.25q9.25-.3 20.6-3.1 11.3-2.8 18.95-6.65.95-.55 1.25-.25.45.4 0 1.3-12.3 34.75-35.3 55.9-23.55 21.7-50.35 21.55l-1.35-.1q-1-.2-1-.5 0-.6 2.25-.7 25.95-1.5 48.5-21.7 22.65-20.25 34.8-53-8.5 3.9-18.6 6.6-11.25 2.95-20.15 3.15"/><path fill="#0d131a" d="M232.8 173.3q.15-.3.95.15.8.4.6.7-4.6 8.5-9.35 13.85-5.4 6.15-12.85 10.55l-1.35.7-1.3.1q-.35-.6 1.3-1.75 7.3-4.95 12.55-10.75t9.45-13.55m-206.35-1.8q3.85-1.55 8.25.3 3.95 1.65 6.75 5.3.25.25-.45.8l-.95.25q-2.25-2.95-6-4.4l-6.6-.25q-3.6 1.7-5.05 6.4t-.35 11.3q1.85 11.15 8.85 19.95 7.75 9.7 17.95 10.9.4.05.25.8-.15.8-.55.75-10.9-1.3-19.2-11.15-7.6-9.1-9.5-20.6-1.2-7.25.6-12.8t6-7.55m102.9-24.45 9.7.35q5.1 1.25 9.35 4.4 6.7 4.9 10.9 13.55 4.25 8.65 5.5 19.9 1.1 9.7-.8 18.25t-6.35 14.05q-3.05 3.75-7.4 6.1-4.4 2.35-9.3 2.85-5.75.6-11.75-2.4-5.85-3-8.9-7.85-1.15-1.9-.55-2.25.3-.2.85.4l.8 1q3.35 4.45 8.7 6.95 5.45 2.5 10.75 1.95 9.1-.9 14.8-7.9 4.2-5.2 5.95-13.2 1.7-8 .65-17.4-1.2-10.9-5.25-19.25-4.05-8.3-10.4-13-3.95-2.9-8.4-4.05l-8.65-.3q-4.1.9-7.6 3.8-3.75 3.05-6.05 7.7-4.45 9-4.2 20.8.2 11.7 4.9 22.4.8 1.95.3 2.2-.3.15-.9-.75l-.75-1.25q-5.25-10.5-5.65-22.7-.45-12.25 4.2-21.65 2.5-5.15 6.65-8.5 4.05-3.25 8.9-4.2"/><path fill="#0d131a" d="M130.95 169.05q-2 .45-3.4 2.7-2.1 3.55-2.15 10.55 0 7.05 2.05 14.9 2.25 8.6 6.4 13.25 3.75 4.2 7.1 3.4h.05q3.65-.7 4.7-7.2 1.1-6.45-.75-16.6-1.3-7.25-3.9-12.55-2.6-5.25-5.9-7.45-2.3-1.45-4.2-1m-4.9 1.8q1.75-2.9 4.5-3.55 1.35-.3 2.95 0 1.65.3 3.05 1.2 3.65 2.4 6.4 7.95 2.75 5.5 4.15 13.2 1.2 6.55 1.2 11.7 0 6.1-1.85 9.9-1.85 3.7-5.1 4.35-4.2 1-8.6-3.45-4.95-4.95-7.45-14.35-2.15-8.15-1.85-15.7.25-7.3 2.6-11.25m-94.4 14.5q1.5-.9 3.75-.35 4.05 1.1 6.75 5.8.2.35-.55.6l-.9-.05q-2-3.45-5.7-4.6l-2.4.15q-2.25 1.35-1.4 7 1.05 6.4 5.05 12.7 4.5 7.05 9.55 8.15.35.1.15.8t-.55.6q-6-1.35-10.7-7.9-4.45-6.2-5.65-13.8-.9-7 2.6-9.1"/><path fill="#0d131a" d="M51.55 147.2q1.75-2.15 2.4-1.85t-.9 2.35q-11.8 15.9-11.1 36.6.7 20.85 13.85 35.15l.25.65q-.35 5.2-.25 7.3.05 2.35.75 4.55.5 1.6 1.95 3.65 1.75 2.5 3.2 2.75 1.75.3 4.75-1.25 2.7-1.5 4.55-3.4 1-1 1.65-2.7l1.15-3.65 1.6-4.95q.15-.4.55-.55 10.3-3.75 20.55-11.05 10.3-7.3 16.3-15.1.2-.25.7.45l.35.85q-13.75 17.9-36.65 26.25l-1.4 4.45q-1.45 5-3.5 7.2-1.95 2.1-5 3.6-3.45 1.7-5.9 1.2-2.1-.4-4.3-3.2-1.75-2.25-2.25-4.05-.85-2.6-.85-6.15l.25-5.95q-7.1-7.85-11-17.7-3.9-9.95-3.9-20.35 0-9.45 3.15-18.45 3.1-8.9 9.05-16.65"/><path fill="#0d131a" d="M46.9 219.55q-.1-.35.9 0l1.1.75 1.9 8.15 4-1.35q.35-.05.5.8.15.9-.2.95l-4.4.75-.75.05-.3-.65z"/><path fill="#0d131a" d="m43.95 203.15.9.05.9.15q-.85 8.5 1.75 14.35t7.55 6.35q.4.05.25.75-.15.75-.55.7-5.95-.65-8.85-6.8-2.95-6.1-1.95-15.55"/><path fill="#0d131a" d="M47.8 210.05q.1-.2.6-.25.55 0 .5.2-.8 4.55 1.05 8.75t5.1 5.3q.25.1.05.65-.2.6-.45.5-3.6-1.25-5.65-5.75-2-4.5-1.2-9.4m59.15-7.25q-.1-.35 1-.85l1.2-.15q2.35 7-.2 13.5t-8.5 8.8q-4.65 1.75-9.95.5-5.25-1.3-7.3-4.6-.2-.3.4-.75t.8-.15q1.6 2.6 6.15 3.7 4.8 1.1 9.1-.5 5.35-2.05 7.4-7.55 2.05-5.55-.1-11.95"/><path fill="#0d131a" d="M103 221.45q.35.5.15.65-3.65 2.35-7.95.5-4.45-1.95-4.65-6.8 0-.25.75-.55l.75-.05q.1 2.05 1.05 3.65 1 1.6 2.7 2.45 3.45 1.85 6.7-.2zm-.8-6.95q0-1.55-.95-2.4-.45-.45-.95-.4-.65 0-1.1.45-.85.9-.75 2.3 0 1.75.85 2.5.5.5 1.25.5.65-.05 1.15-.8.5-.85.5-2.15m.35-2.9q1 1.2 1.05 2.85 0 1.9-.9 3.05-.8 1.05-2.05 1.15-1.3.05-2.3-.9-1.2-1.1-1.25-3.15-.05-1.75.95-2.95.9-1.15 2.25-1.15 1.3-.05 2.25 1.1m-51.6 4.2.65-.05.55.35q-.2.8-.05 1.8.3 1.9 1.25 2.5l.9.15.35-.25q.15-.2.65.15.45.4.3.6-.5.6-1.05.65-.95.25-1.8-.3-1.3-.9-1.8-3.3-.15-1.25.05-2.3m3.45 12.8q-.15-.35.5-.6l.8.1q.85 2.2 3.9 3.4 2.95 1.1 6.85.75 3.85-.35 7-2 .35-.2.6.6t-.1.95q-3.5 1.85-7.35 2.25-4 .45-7.25-.8-3.7-1.35-4.95-4.65"/><path fill="#0d131a" d="M54.45 229.45q.1-.35.75.25.6.6.5.95l-.3.8q-2 6.3-1.8 8.7.2 2 1.6 3.55t3.75 2.35q2.05.75 4.65.05.4-.05.6.8.25.85-.15.95-3.7.85-5.9.1-3.3-1.2-4.8-2.95-1.45-1.7-1.7-4.5-.15-1.4.6-4.2l1.65-5.15z"/><path fill="#0d131a" d="m85.3 245.4 7.3-.45q1.85 0 1.85.5 0 .35-1.65.55l-7.25.9-7.95 1.8-6.95 1.15q-2.95.1-5.2-.95-3.35-1.5-4.75-6.8l-.2-1.2q-.1-.85.25-.9.6-.2 1.15 1.6.9 2.7 2.3 4.15.75.8 2.1 1.45 2.1.85 4.6.8l6.3-1.05z"/><path fill="#0d131a" d="M87.6 251.65q6 .95 9.95 2.65.6.25 1.15.65.8.55.65.85-.15.45-2.3-.25-4.1-1.3-9.8-2L75.6 253q-5.35.25-10.45-1.4-4.75-1.55-8-4.3-.25-.25.2-.75.5-.5.8-.3 2.75 2.1 7.35 3.45 5.05 1.45 10 1.2zm-34.3-9.95q.35.05.25.9-.15.9-.5.85-13.95-1.95-28.3-11.9Q10.15 221.45.3 206.6q-.45-.7-.25-1.05.2-.3 1.05-.3l7.5-.2q8.75-.6 15.6-2.9.35-.1.6.75.3.85-.05.95-10.25 4.15-22 3.25 7.6 11.35 22.35 21.75 15.65 11.1 28.2 12.85"/><path fill="#0d131a" d="m24.25 216.9 1.35.55q.85.4.75.7l-2.2.1q-6.95-1.8-15.75-6.6L.55 206.9q-.3-.2.2-.95.5-.7.8-.5l7.4 4.5q8.65 4.9 15.3 6.95m97.35.35q.1-.3.75.15l.65.55-3.2 9.5q-.15.5-.75.6l-22.4 1.65 7.8 5.4 9.1 6.25q.5.4.5.7l-.4.7q-5.9 5.25-13.3 7.6-6.75 2.1-16.35 2.3-.35.05-.45-.6t.25-.65q7.95-.25 15.2-2.65 7.35-2.4 12.3-6.45l-17.45-12.55q-.65-.55-.55-1.05.15-.45 1-.55l24-1.85zm101-8.5q1.05-.75 1.4-.4.4.3-.05 1.45-4.4 9.65-9.75 15.85-8.95 10.5-22.95 15.85l-1.65.1q-.2-.4 1-1.15 12.3-6.5 20.3-14.7 5.95-6.15 9.9-13.7-3.8 2.9-10.4 5.6l-6.05 2.2 3.65-3.15q8.8-3.75 14.6-7.95"/><path fill="#0d131a" d="M246.6 210.65q1.15-.8 1.5-.5.25.2-.1 1.5-6.05 16.2-15.05 27.55-16.1 20.25-40 24.35l-1.2.1q-.9-.05-.95-.4-.05-.3.6-.6.5-.25 1.05-.35 21.65-5.3 36.9-22.65 9.85-11.15 15.9-25.95-10 7.1-20.3 12.15-10.75 5.3-20.05 7.55-.6.15 0-1.15.65-1.3 1.5-1.6 9.75-3.2 20.35-8.4 11.7-5.7 19.85-11.6"/><path fill="#0d131a" d="M189.45 274.2q-2.5-.55-2.45-1.2l2.7-.2q11.1 1.6 22.5-3.1 9.25-3.85 17.1-11.05-7.75 2.2-12.35 2.5-5.6.35-11.45-1.6-.35-.05-.15-.95.25-.85.6-.75 5.5 1.45 11.9 1t14.25-2.8q1.45-.35 1.65 0l-.2.75-.55.7q-8.25 9.15-18.8 13.7-12.15 5.2-24.75 3m-98.2-18.1q.65-.15 1.25 2.25l1.35 4.1q1.8 4.85 4.45 9.5 8.35 14.65 21.35 21.05-2.75-4.55-4.1-7.3-2.6-5.2-3.6-9.6-.25-1.4.05-1.55.55-.25 1.45.75l5.25 5.25q6.35 5.8 12.5 9.1l-2.6-6.35q-1.35-3.7-1.7-5.45-.25-1.6.15-1.65l1.15.8 5.25 4.65q6.15 5 10.85 7.15l-2.65-6.9-2.2-6.4q-.65-2.45 1.4-.95l5.05 3.65q5.6 3.75 8.6 4.8.35.1.5 1.25.1 1.1-.25 1-4.1-1.45-12.8-7.65 1.45 4.5 4.25 11.85.45 1.25 0 1.4l-1.15-.25q-6.9-2.4-15.75-10.2 1.35 4.15 3.85 10.2.6 1.45.05 1.55l-1.25-.4q-8.85-4.15-17.1-12.4 2.65 7.05 7.3 14.7 1.2 2.15-1.1 1.3-16.55-7.05-24.85-22.45-2.65-4.85-4.1-9.95l-1-4.3-.15-1.5q-.05-1 .3-1.05"/><path fill="#0d131a" d="M118.05 289.35q-.3-.2-.15-1.25.15-1 .45-.8 9.05 6.65 21.45 8.2 10.45 1.25 20.4-1.25.4-.1.8.95.45 1.1.05 1.2-10.7 2.7-20.45 1.65-12.35-1.35-22.55-8.7m131.6-29.85q.1.4-1-.2l-1.2-1q-3.3-13.95-10.9-26.2-.2-.3.65-1.05.9-.75 1.1-.45 8.8 14.25 11.35 28.9m-28.35-45.6q-.6-.55-.15-1.5t1.05-.45q5.1 4.45 8.9 8.8.25.3-.8.85-1 .55-1.25.3-3.75-4.45-7.75-8m-7.2-5.65q-.3-.2.2-.95.45-.75.75-.55l5.8 3.85-1.65 1.25zm89.35 38.5.9.2 11.2 5.25q.35.15-.05.95t-.75.65l-10.35-5.25q-.55 3.25-1.05 9.35-.6 7.85-.6 15.35 0 13.35 3.55 26.6.15.55-.1.9l-.95.25-7.85-.8q-4.85-.95-8.3-3.15-.3-.2-.1-.95t.5-.55q2.95 1.9 7.45 2.8l7.25.8q-4.45-15.25-3.25-34.8.4-6.1 1.3-12l.85-4.75q.2-.75.35-.85m-78.1-55.55q-.35-.05.35-1.3.75-1.2 1.1-1.15l8.6 1.35 19.6.65q8.1-.3 15.4 2.55 6.35 2.45 14.15 8.2 1.95 1.55 1.55 2.05t-2.4-.9q-14.5-10.1-29.05-9.3l-20.25-.75z"/><path fill="#0d131a" d="M330.55 291.35q-1.2-2.15-3.1-3.9l-1.65-1.35q-3.2-2.05-5.85-8.15-3.8-8.85-5.7-24.85-1.1-9.3-6.3-20.1-5.25-10.75-12.9-19.55-1.65-1.95-1.15-2.2.5-.3 2.45 1.35 8.4 8 13.95 19 5.3 10.4 6.5 20.3 1.9 15.95 5.4 24.85 2.4 6 4.95 7.65 3.75 2.35 5.9 6.3 14.25 25.1 18.05 32.45 11.7 22.4 13.5 32.55.75 5.4-.15 9.55-.65 3.2-2.55 6.7-1.9 3.15-4.1 4.9-2.7 2.2-6.85 3.3l-8.5.45q-4.6-.65-7.15-2.8-3.4-2.85-4.5-6.9-1.15-4 .25-8 1.3-3.8 4.55-6.15 3.2-2.3 7.15-2.45 1.6-.1 1.85.5.2.55-1.6.7-3.4.35-6.1 2.5-2.75 2.15-3.9 5.5-1.15 3.4-.1 6.7 1.05 3.25 4.05 5.8 1.9 1.6 5.4 2l7.7-.6q6.2-1.55 9.1-6.3 4-6.9 2.8-15.2-1.25-7.55-13.85-32.1-7.8-15.25-17.55-32.45"/><path fill="#0d131a" d="m328.5 352.45 2.5.1q.35.5-2 1.25-8.35 2.45-9.8 9.15-.75 3.55.6 7.05 1.4 3.5 4.45 5.8 3.65 2.75 11.7.15.35-.15.7.75.4.95.05 1.05-9.5 3-13.95-.35-3.5-2.65-5.1-6.7t-.7-8.1q.85-3.85 4-6.55 3.05-2.6 7.55-3.6"/><path fill="#0d131a" d="M318.7 347.85q.3-.2.7.7.35.9.05 1.1l-1.65 1.05q-5.8 3.7-9.25 6.75-2.05 1.75-2.15 5.35-.1 3.55 1.8 6.95 1.65 2.95 4.3 4.65 4.35 2.75 10.05 1 .35-.1.7.85.4.95.05 1.05-5.6 1.75-10.65-.55-4.35-2-6.6-6t-2.05-8.2 2.75-6.4q2.35-2.1 5.25-4l5.05-3.25z"/><path fill="#0d131a" d="m245.65 254.65 9.1 10.6 8.5 10.05q4.9 5.5 9.35 9.55 3.1 2.8 7.9 5.65l8.75 4.75 6.15 3.25q2.7 1.5 7.5 8.45 4.8 6.85 9.15 15.4 10.9 21.5 7.35 28.65-1.05 2.05-1.8 1.9-.75-.2.25-2.25 2.7-5.4-8.2-27-10.5-20.85-15.65-23.75l-5.9-2.9-8.9-4.6q-5-2.8-8.45-5.9-4.5-4.05-9.45-9.65l-8.6-10.15-8.45-10.35q-4.7-5.6-9.15-9.95-1.7-1.7-1.3-2.1.4-.45 2.2 1.05 4.65 3.9 9.65 9.3M81.5 251.8q.9 8.35.6 18.05-.4 12.5-2.95 17.65-7 14.35-15.95 27.6-11 16.35-18.15 20.05l-5.15 2.35-5.05 2.35q-2.65 1.4-4.45 3.1-2.25 2.05-2.8 5.95t.9 7.35q1.15 2.7 3.4 4.4 3.25 2.4 8.2 2.1.4 0 .95 1 .55.95.2 1-5.75.35-9.8-1.65-4-1.95-5.65-5.9-1.7-3.95-1-8.4t3.35-6.9q1.95-1.8 4.95-3.35 1.55-.8 5.5-2.55l5-2.3q6.6-3.4 17.2-19.25 8.85-13.2 15.95-27.85 2.25-4.55 2.55-16 .2-9.25-.75-18.55-.05-.35 1.45-.5 1.45-.1 1.5.25"/><path fill="#0d131a" d="m43.35 342.55 2.45.05q.3.65-1.8 1.35-3.45 1.15-5.3 4.1-1.85 2.9-1.85 7.2 0 4.45 3.15 6.75 2.2 1.6 5.45 2t6.6-.6q.35-.1 1.05.7t.35.9q-3.9 1.15-8.15.8-4.4-.35-6.9-2.2-1.95-1.5-3-3.65-1.1-2.25-1.1-4.8.05-4.75 2.6-8.2 2.45-3.3 6.45-4.4m64.45-56.05q0 .35.9.35t.9-.4l.1 14.25q.05 2.3-4.45 9.85L94.2 328q-6.45 9.9-7.2 11.45l-.95-.05q-.8-.4-.65-.75.85-1.8 7.3-11.65l9.9-15.45q5.35-8.8 5.3-10.8z"/><path fill="#0d131a" d="M96.7 272.5q.05-.35 1.05 0 1.05.35 1.05.7v.1q-.25 2.8-.25 6.6l.15 7 .15 5q0 3.2-.45 4.85-.35 1.4-2.8 5.45l-5.75 9.05-8.95 14.2q-4.85 8.1-6.65 12.75l7.7-5.95q2.2-1.65 1.4 1l-2.45 7.85 13.4-7.45q2.5-1.25 1.3 1.15l-6.1 11.55q-5.1 8.95-10.2 15.4-2.7 3.45-7.55 4.8-4.8 1.35-12.2.7-6.75-.75-10.3-4.8-3.05-3.5-2.9-8.25.25-4.9 3.35-8.1 3.5-3.6 9.6-3.75 1.95 0 2.1.6.2.6-1.95.9-4.95.75-7.8 3.65-2.7 2.7-2.9 6.7-.15 3.9 2.05 6.75 2.7 3.4 8.05 3.9Q72.3 366.05 77 360q8.75-11.15 15.55-23.3l-12.4 6.55-1.55-.05q-.1-.35.2-1.3l2.6-7.25-8.4 6.8q-1.9 1.6-1.45-.9 1.9-7.65 16.55-30.35 7.85-12.1 8.35-14 .55-2.1.25-9.3-.45-8.95 0-14.4"/><path fill="#0d131a" d="M98.05 281.65q-.35 0-.5-.85t.2-.8l5.3.35q.4.1.25.95-.15.9-.55.8zm0 14.25q-.35-.05-.25-.85.15-.8.5-.75 2.7.4 5.45 1.4 3.8 1.4 5.4 3.35.25.25-.45.85-.7.55-.95.3-1.3-1.6-4.65-2.95-2.75-1.05-5.05-1.35m-6 11.2q-.35-.15-.15-.75t.55-.5l5.25 2.05q4.15 1.85 5.9 3.85.25.3-.45.9-.7.55-.95.3-1.3-1.55-4.4-3.25-2.65-1.45-5.75-2.6m-7.2 11.1q-.35-.1-.2-.85.2-.7.55-.6 3.85 1.15 5.95 2.15 3.6 1.7 5.45 4.05.25.3-.45.85t-.95.25q-2.85-3.65-10.35-5.85m-6.15 10.15q-.35-.1-.05-.8.25-.7.6-.6 1.95.65 5.2 2.5 3.5 1.95 5.35 3.55.3.25-.25.9-.6.7-.9.45-1.95-1.65-5.2-3.6-3.15-1.9-4.75-2.4m67.55-62.95q-.55-2.85.1-3 .7-.2 1.6 2.5 2.7 9.05 8.5 20.4 3.8 7.3 11.1 19.55 6.7 11.25 9.05 15.9 3.9 7.7 4 11.85 0 10.95-2.6 26.75-3.1 18.55-7.2 23.75-1.55 1.95-4.2 3.8l-5.1 3.15q-5.35 3.1-7.3 5-3.25 3.1-3.25 7.1 0 5.35 3.45 8.35 4.25 3.8 12.55 2.8.4-.05.5.85t-.3.95q-9.95 1.2-14.95-3.25-4.05-3.5-4.05-9.65 0-4.65 3.6-8.25 2.2-2.15 7.85-5.4l5.05-3.05q2.7-1.9 4.1-3.65 3.75-4.7 6.75-22.4 2.65-15.75 2.65-26.9-.1-3.7-4.25-11.2l-9.25-15.4q-6.8-11.4-10.8-19.75-5.4-11.3-7.6-20.8"/><path fill="#0d131a" d="M168.95 392.05q2.3-1.05 2.75-.55t-1.75 1.8q-5 3.05-6.7 7.5-1.5 3.95 0 7.6 1.6 3.95 5.9 5.85 5.1 2.3 12.35.6.35-.05.65 1 .25 1.05-.1 1.1-7.8 1.85-13.7-.55-5.45-2.15-7.55-7.15-1.75-4.05.35-9 2.25-5.35 7.8-8.2m31.8-117.75q-.05-.35 1.35-.65l1.45.1 3.6 19.8q4.05 21.2 6.35 29.7l.8 3q.7 3.5.5 6.85-.5 9.25-.7 24.3-.25 21 .85 26.5.1.35-.95.75l-1.15.05q-1.15-5.65-.95-27.05.15-16.9.65-24.75.2-3.1-.5-6.4l-.75-2.75q-2.35-8.65-6.65-29.75z"/><path fill="#0d131a" d="M199.1 386.3q.85-2.65 3.9-7.2l3.1-4.25q.55-.7 1.05-.7.55.05.55 1.2l.15 11.45q2.6-1.6 7.8-4 3.85-1.8 5.05-2.25l.5-.15.8.1q.3.35-.2 1.3l-2.45 5.85-6.85 15.75q-4.4 9.75-6.9 12.25-3.5 3.45-11.25 3.75l-9.8-.8q-4.9-1.1-7.8-5.3-2.65-3.7-2.6-7.9.05-4.5 3-7.75 2.85-3.15 7.6-4.1 2.15-.4 2.65.35.45.75-1.7 1.15-4.55 1.1-6.9 4.2-1.95 2.65-2 6.1-.05 3.65 2 6.65 2.35 3.45 6.5 4.4l7.8.35q7.5-.35 10.55-3.4 4-4 14-26.4 1.45-3.2 2.3-4.4-1.95.85-12.4 6.6-.9.55-1.25.3-.2-.15-.2-.95l.05-10.9q-3.65 5.15-5.65 9-1 1.9-1.5 1.7-.5-.15.1-2"/><path fill="#0d131a" d="M188.1 273.25q0-.15 1.05-.2 1.05-.1 1.15.2l7.2 24.35q7.4 26.15 8.95 36.65v.15l-.8 6.4-2.5 21.9q-1.9 18-1.9 21.85l-1 1.35q-1 1-1 .6 0-4.05 2-22.95 1.8-16.9 2.65-23l.75-6.15q-1.55-10.4-9.15-36.65z"/><path fill="#0d131a" d="m198.35 285.35-5.35.2q-.35-.05-.3-.75t.4-.6l4.5-.4q3.2-.9 4.65-2.4.25-.25.85.35.65.65.4.9-1.75 1.8-5.15 2.7m7.2 12.6q.25-.25.9.35.6.65.35.9-1.45 1.45-4.65 2.1l-4.5.25q-.35-.05-.25-.75.15-.7.5-.65l3.85-.35q2.65-.7 3.8-1.85M209 314.8q.25-.25.9.4t.4.9q-1.05 1.05-3.85 1.7l-4.25.45q-.35-.05-.4-.75 0-.7.35-.7 1.65.1 3.9-.6 2.25-.65 2.95-1.4m3.75 19q.3-.2.85.5.5.75.2.95-1.5 1.15-4.15 1.45l-4.1-.2q-.35-.05-.3-.75t.4-.65q1.7.3 3.85-.05 2.15-.4 3.25-1.25m-.35 16.75q.3-.2.85.5t.25.9q-1.7 1.3-4.7 1.3-2.75 0-5.15-1-.35-.15-.15-.85t.55-.55q1.95.8 4.45.75 2.65-.05 3.9-1.05M201.8 370q-.3-.2-.1-.9.15-.7.5-.5 1.9 1 5.35.85 3.3-.1 4.55-1.1.3-.2.85.5t.25.9q-1.75 1.35-5.4 1.45-3.7.05-6-1.2"/><path fill="#0d131a" d="M248.15 259.4q.4-.05 1.1.75.75.85.35.9-10.05 1.6-25.4 9.95-10.95 5.95-20.3 12.7-.3.25-.45-1.35t.15-1.85q8.8-6.35 19.65-11.95 14.5-7.5 24.9-9.15"/><path fill="#0d131a" d="M226.8 267.15q.2-.35 1.7-.35 1.5-.05 1.3.3-3.4 6.35-4.2 8.55-2.15 5.4-.65 8.1 2.45 4.5 2.75 5.55.7 2.9-1.05 7.35l-1.05 2.55-5.85 14.55q-4.2 10.6-5.85 15.45-.1.35-.75-1.3t-.55-2q2.8-8.35 10.9-27.2l1.05-2.5q1.05-2.7.7-5.3-.4-2.55-2.35-6.1-1.8-3.3-.05-8.8.95-3.15 3.95-8.85m-67.9 71.3q-5 1.45-7.05 2.85-4.1 2.9-3.75 8.05.25 3.05 1.95 5.9 1.6 2.7 3.4 3.6 1.55.8 4.25 1.25l4.85.2q.35-.05.5.85.1.85-.25.9-2.4.35-5.7-.05-3.25-.4-4.9-1.25-2.2-1.1-4.15-4.2-2.05-3.4-2.35-6.95-.45-6.15 4.5-9.65 2.95-2 8.5-3.45l8.1-1.7q2.8-.45 9.95-11.95.2-.3.95.6.75.85.55 1.15l-4.3 6.15q-4.3 5.4-6.9 5.85z"/><path fill="#0d131a" d="M153.55 346.15q1.8-3.85 7-5.75l2.65-.15q.15.65-2.05 1.6-4.35 1.95-5.7 5.5-1.1 2.9-.05 6.05 1.3 3.8 5 5.65 3.75 1.9 9.2 1.25l1.15.75q.9.85.65.9-6.6 1.55-11.8-1-4.75-2.4-6.35-7.05-1.35-4.3.3-7.75"/><path fill="#0d131a" d="m175.1 340.4 2.2.05q.5.4-1.05 1-5.8 2-7.95 4.35-2.35 2.55-2.25 7.15.1 3.85 2.4 6 1.4 1.25 3.6 1.9l4.7.5q.4 0 .45 1.05.1 1-.3 1l-4.3-.45q-3.25-.75-5.35-2.7-3.5-3.2-3.55-7.25-.15-6.15 3.35-9.25 2.7-2.4 8.05-3.35m48.65-56.4q.3-.2.7.95.45 1.1.1 1.3-3.9 2.7-8.25 6.65-6.35 5.75-8.25 9.75-.15.35-.85-.45-.7-.75-.55-1.1 2-4.15 8.2-9.9 4.5-4.1 8.9-7.2M326.2 125.25l1.2.05q.3.3.1.95l-3.2 16.85q-3.15 19.45-3.15 33.7 0 3.95.5 9.05 7.7-2.7 19.8-4.1 14.65-1.75 24.45.35.85.2.9.7.05.45-.55.85-5.65 4.25-11.8 9.4-12.15 10.25-15.1 15.45 8.25.8 16.6 3 14.1 3.7 23.65 10.15.65.45.55 1l-.75.65-18.9 6q-20.45 6.75-29.45 10.75 5.6 8.95 10.05 18.7.45 1-.1 1.3l-1.05-.05q-13.15-4.95-20.85-9.3 4.7 9.75 5.3 16.15.1 1.1-.4 1.3-.45.25-1.2-.65-3.45-4.25-7.3-7.5-.3-.25.25-1.15t.8-.65l3.1 3.15 2.65 3.1q-1.15-4-3.6-10.05l-2.3-5.35q-1-2.15 1.15-1.2l20.7 9.4-9.25-17.2q-.45-.8.4-1.2 8.8-4.75 26.2-10.4 11.4-3.75 21.35-6.3-9.8-5.65-25.3-9.4l-13.75-2.65q-1.15-.2-.75-1.25 3.1-6.45 12.9-15 6-5.2 13.4-10.3-9.95-1.45-27.2 1.45l-15.45 3.2q-1 .25-1.15-.75-1.1-6.4-1.1-11.65-.05-14.95 2.65-30.25 1.65-9.4 4.1-17.6-23.25 13.9-36 36.95-6.4 11.55-8.2 20.5-.2.95-.6 1.05t-1.1-.55q-6.45-6-15.05-17.7l-.1 3.55q0 4.3 1.05 9.95 1.2 6.5 3.3 11.4-2.65-.1-2.85-.55-3.3-7.8-3.5-17.9l.5-9.05q.2-.9.65-1t1 .6q.2.55 4.75 6.3 5.65 7.05 10.45 11.7 2.4-12.3 9.6-24 12.65-20.75 37-33.95"/></svg>