<svg xmlns="http://www.w3.org/2000/svg" width="146" height="270" viewBox="-2.05 -4.15 145.8 270.05"><path fill="#65a9dc" d="M106.25 41.35q1.35 13.35-1 24.25l-48.2-9.25L23 23.4q7.15-7.95 18.5-14.45 22.65-13.1 43.65-6.1 18.45 11.9 21.1 38.5"/><path fill="#adb2b4" d="M107.75 48.2q.8 2.3.15 9.6-1.35 14.75-7.35 25.15-10 17.15-32.05 22.15l1.25 3.35q1.8 4.05 4.65 7.7 9.05 11.6 24.95 14.6 13.55 2.6 26.85-1.55 6.7-2.1 10.65-4.7l1.9-.3q1.95.3 2.5 3 1.35 7.45-.4 20.05-2.75 19.5-12.75 35.6l-1.05 4.8 3 1.8q2.85 2.85 1.8 8.2l-1.95 9.4q-.75 3.7-.85 6.7l.1 9.8q-.3 6.65-2.9 9.75l-27.9-6.85q-.9-.7-1-2.2-.15-3 3.8-6.85 3.95-3.8 6.3-8.75l1.55-4.2-.15-.9q-4.2 1.5-9.65 2.35-10.85 1.7-16.9-1.35-6.5 1.15-15.75-.65l-8-2.05v3.55q-.2 4.3-1.35 8.2t-.7 9.4q.25 2.75.7 4.7l2.25 1.1q2.15 1.65 1.9 4.4-.25 3-2.35 5.3-1.6 1.75-4.75 3.5-2.95 1.65-6.4 4.65-4 3.5-7.65 8.1-3.3 4.15-6.15 4.65l-2.2-.35-5.2 3.5q-5.4 3.35-6.3 2.5t1-6.5l2.05-5.5q-12.25 5-13.1 3.8-.55-.8 2-5.25l2.65-4.3-6.45 1.6q-6.45 1.35-6.4-.05.1-1.35 4.4-5.15l4.3-3.5q.25-1.8 1.55-2.85.8-.65 2.35-1.2 3.05-.65 5.9-1.85 5.45-2.3 9.3-6.6t5.75-10.65l1.1-5.5-11.85-7.35q-2.4-.95-5.15-3.05-5.6-4.15-7.6-9.8-2.9-8.8 2.8-21.15 1.75-3.9 4.2-7.6l2.05-3q.65-12.35 3.05-22.3l2.25-7.5-11.7 2-5.7.2q-4.05-.7-3.4-4.6 2.1-6.45 15.15-12.6 6.5-3.05 12.6-4.85.45-1.35 1.2-2.75l.65-1.1-4.15-.65q-5.15-1.3-10.05-4.6-11.1-7-10.3-18.7.25-3.65 1.65-7.35l1.35-2.9q-.4.75-1.75.55-1.5-.3-5-6.7-1 1.4-1.7 1.5l-.5-.2q-6.9-19.7-2.45-32.2 2.25-6.25 5.85-8.55 2.4-2.65 8.25-2.65 11.75.1 29.3 13.55 5.5-4.75 11.5-9.4 11.95-9.35 14.3-9 2.35 3.65 3.8 15.85.75 6.1 1 11.45l8.45-7.4q8.95-7.4 11.55-7.4 1.85.4 2.05 11.1L98.3 53l2.7 1.25 5.85-6.9h.3q.35.1.6.85"/><path fill="#922f00" d="m25.05 72.45-3 1.25q-5.45 2.4-8.4 9.35-1.45 3.5-1.8 6.5-1.9-3.9-.4-10.8l1.85-6.1q2.7-2.05 8.95-4.5l5.7-2.05q.4 1.2 2.75 5.1-2.2 0-5.65 1.25"/><path fill="#ed8599" d="M37.15 96.7q-8.1 3.1-15.45 1.3-5.95-1.5-8.3-4.85-1.9-2.65-.7-7.25 1.15-4.6 4.85-8.95 3.05-3.6 8.4-5.05l4.75-.7q4.7 7.9 13.6 10 4.45 1.05 7.95.5l-.65 1.7q-1 2.1-2.4 4.1-4.55 6.35-12.05 9.2"/><path fill="#fff" d="m43.05 52.2 29.85-1 .05 3q-.15 3.6-1.1 6.7-3 9.85-12.7 10.7-10.3.9-14.25-9.15-1.2-3.15-1.65-7z"/><path fill="#eeeeef" d="M115.55 64.1q.4.65-.25 1.5-2.15 1.5-5.7 3.15-7.05 3.3-13.95 4.2-7.2.45-9.95-4.5-.85-1.55-1.1-3.45l-.15-1.6q-.3-1.75.1-3.85.8-4.15 4.25-5.75 4.1-2.45 11.25.3 7.3 2.75 15.5 10M104 76.3l5.95 5.25q6.1 5.7 6.95 8.25-7.05 2.7-16.05 2.65l-7.55-.55q4.3-3.3 7.95-9.8 1.8-3.2 2.75-5.8M23 245.95q1.1 1.65 1.35 3.85l.05 1.9 2.55-1.3q2.95-1 4.9.45 2.15 1.6 1.85 4.35-.25 2.4-1.85 3.85-1.45 1.35-5.6 3.5-4.35 2.2-5.95 2.25-.1-1.55.25-3.8.65-4.45 2.95-7.7-11.55 3.8-13.35 3.6 0-.55.5-2 1.05-2.9 3.7-7.35l-5.2 1.25q-5.55 1.05-7.05-.1.7-1.25 2.3-2.95 3.2-3.45 7.7-5.9l2.5.75q2.35 1.4 1.7 4.8l2.7-.7q2.9-.35 4 1.25m34.75-18.7 5.2.85q5.1 1 4.9 1.85-.6 1.55-3.9 4l-3.15 2.1q.9-3.8-.85-5.95l-1.9-1.35zm64.75 12.55q-1.75 2.4-3.35 3.55-.85.15-2.15-5.6l-1.1-5.75-2.9 4.7q-3.2 4.8-4.65 5.1-1.4.3-1.7-5.9v-6.25l-.95.35-3.5 4.2q-4 4.25-6.5 4.55-.55-1.6.75-7.2l1.45-5.25q.5-.8 1.4-1.5 1.85-1.35 4.05-.65 2.15.7 2.65 3.15.3 1.2.1 2.25.75-1.2 1.85-2.25 2.15-2.1 3.9-1.4 4.2 1.65 4.1 5.1.55-1.4 1.6-2.6 2.1-2.45 4.65-1.55 4.85 1.8 2.85 8.05-.7 2.3-2.55 4.9M6.55 125.35l-.75 1.75q-.5 2.1.7 3.8.8 1.25 3.6 1.65l2.65.15q-3.7 4.85-4.35 4.45-.4-.2 0-2.45l.45-2.15-.6-.15q-4.35 2.9-5.15 2-.5-.6.8-2.9l1.4-2.2q-4.75 0-4.35-1.1.3-.65 2.95-1.8zm20 44.95 1.3-2.75-4.5-.1q.05-.8 2.7-2.4l2.6-1.45-.55 1.85q-.25 2.15 1.2 3.6 1.45 1.4 4.6 1l2.8-.65q-1.65 5.65-2.8 5.85-1.15.25-1.8-4.8l-1-.05q-5.1 4.35-5.55 3.35-.25-.6 1-3.45"/><path fill="#65a9dc" d="M21.1 160q-.95 4.9 2.8 13.7 1.9 4.4 4 7.8-2.85 1.7-6.7 7.35-1.9 2.8-3.25 5.3-1.85-1.05-4.35-5.95l-2.1-4.75q.7-7.2 5.25-16.05zm52.4-28-17.8-6.9 9.2-10.7-5.45-7.3q2.9.1 8.8-1.9Q78 129.15 103 131.3q13 1.15 25.75-3.3l5.6-2.2q4.4-1.85 5.1-1.75 1.3.2 2.25 10.95l-8.7 4.4 2.15 12.4-8.7-.7q2.2 6.55 2.55 15.55.15 4.5-.15 7.7-.85-4.15-3.45-7.7l-2.45-2.7q-2.1 7.3-8.9 15.7-3.35 4.2-6.35 6.9-4.1-5.15-9-16.85L94.65 159q-2.1 1.9-8.8 12.55l-6.25 10.3-1.95-4.5q-2-5.15-2-8.6.9-3.1 3.35-9.6l2.25-5.85-11.95-2.25z"/><path fill="#eeeeef" d="m127.6 184.35 2.5-1.95q2.55-1.95 3-1.85.35.1-.5 4.1l-1.45 5.85-1.65-1.65q-.45-.3-1.5-.7l-1-.3z"/><path fill="#838688" d="M39.35 183.4q18 8.95 34.7 7.25l1.2 5.65q2.1 6.15 6.4 8.6-30.35 0-46.65-15.4-5.1-4.85-8.2-10.65l-2.05-4.8 3.95 3q5.05 3.5 10.65 6.35"/><path fill="#838688" d="M74 192.35q-.65-3.15-.7-6.7l.05-2.85q2.9 10.9 8.8 15.1 8.95 6.4 29.45 4.25-3.8 1.95-9.25 3.3-10.9 2.75-19.1-.3-7.2-2.75-9.25-12.8m-24.25 52.6-3.85 3.55q-2.95 2.85-4.6 5.2-2.1 2.9-4.7 4.55-2.75 1.75-4.45.9l1.05-1.9q.95-2.5.35-5.25.5 0 1.6-.8 2.15-1.5 5.1-5.15 3-3.7 6.05-5.75l4.2-2.35 5.35-2.35q3.8-2.05 4.6-5.25l.75 2.55q.35 3-1.4 5.35-1.65 2.2-5.45 4.2zm6.4-30q.55-5.45-4.45-11.95l-5.05-5.35 5 2.05 6 2.35.85.95q.75 1.2.35 2.45zm69.95 18q.4-1.6-.9-3.55l-1.35-1.65q2.2-1.55 3.8-7.1l1.15-5.25.3 7.15q-.2 7.65-3 10.4m14.4-80.65q-2.45 10.65-7.7 21.2-2.6 5.25-4.7 8.4l1.5-14.6q3.4-2.6 7.5-9.05zM5.95 129.95q2.45.4 8.05-1.3 12.05-3.55 13.4-3.2l-1.1 4.15q-8.15 1.9-10.25 1.9-1.2 0-2.3.55l-1.5.5-3.15-.1q-2.4-.5-3.15-2.5m31.75 39.2q-5.5 2.15-8.05-.2-.85-.7-1.25-1.8l-.25-.95 1.9.8 6.2-.45q6.5-1.85 14.9-7.85 11.25-7.95 16-17.75 1.55 8.65-10.55 17.8-8.35 6.3-18.9 10.4"/><path fill="#bc697b" d="M36.3 77.05q7.05 5.3 15.7 4.65l-2.25 5.05q-3.35 5.5-8.8 7.65-5.3-10.05-15.6-13.6-3.2-1.1-6.5-1.45l-2.7-.1q1.8-2.15 4.55-4.2Q26.25 71 30.95 71.6l1.35 1.75q1.75 2.05 4 3.7"/><path fill="#c8c9ca" d="M116 64.5q-2.05 2-5.9 4.05-7.6 4.1-16.25 4.4-7.2-.55-9-5.65-.55-1.65-.45-3.5l.15-1.55 2.3 2.8q3.5 2.7 9.8 2.35l13.45-1.65zM98.55 85.75l18.35 3.65q-1.25 1.05-4.85 1.85-7.15 1.6-18.7.4zM16.3 245.65l-2.25 2.05L8.2 249q-5.9 1-6.1-.3 10.15-4.05 14.15-4.8zm7.8 2.2.55 1.25q.3 1.6-.85 3.35-1.85 1.55-7.8 3.15l-5.55 1.25q3.55-3.4 8.95-6.55zm-3.55 16.95q1.5-2 3.8-4.5 4.65-4.95 8.85-7.25l.5 1.85q0 2.25-2.4 4.55-2.4 2.25-6.8 4.05zm40.3-33.6 6.85-1.35-.5 1.25q-1.4 1.9-6.05 5.15.5-3.7-.3-5.05m43.95-5.6.9.95q.75 1.2.05 2.75-4.35 6.05-7.55 8.3-1.6 1.15-2.35 1.05 2.1-3.7 5.75-8.75zm19.15 2q2.55 1.4 2.3 4.85-2.3 5.6-4.85 8.85l-2.1 2.15q2.25-5.2 3.35-10 .7-3-.2-5.1l-1.1-1.5zm-15.85 14 2.25-5.05q.9-2.35 1.6-5.35.5-2.1.2-3.85l-.4-1.35 2.2.95q2.1 1.4 1.65 3.35-.6 2.65-2.7 6.05-2.4 3.8-4.8 5.25M1.05 128.2l4.45-.55v1.45q-3.1-.25-4.45-.9M6.3 131l1.85 1.25q-2.35 1.45-3.95 1.9l-1.15.15zm4.35 1.6 2.15.3q-2.05 2.8-3.4 3.75l-1 .45 1.5-2.8zm12.95 34.65 4.5-1.45.35 1.95q-3.8.3-4.85-.5m5.65 2.05 1.9 1.15q-2.05 1.75-3.95 2.5l-1.5.4zm5.2 1 2.2-.5q-1.05 3.05-2.15 4.6l-.85.95z"/><path fill="#838688" d="m25.75 98.35 4.55 3.25q6 3.65 13.45 5.65Q39 107 33.2 105.5q-11.55-2.95-16.85-9.25l3.25 1.15q3.75 1.15 6.15.95"/><path fill="#bad4ee" d="M52.8 12.45q-.4-2.05 2.15-4.1 2.55-2.1 6.45-2.95 3.95-.8 7.1.05 3.2.9 3.65 2.9.4 2.05-2.15 4.15t-6.5 2.9q-3.9.85-7.05-.05-3.2-.85-3.65-2.9"/><path fill="#c8c9ca" d="m133.1 180.55.3 1.5-1.6 6.15-.65 2.3-1.25-1.45 1.85-4.75z"/><path fill="#e50044" d="M61.8 51.55q1.45.95 2.25 2.5.85 1.55.85 3.35 0 2.9-2.05 4.95T57.9 64.4q-2.85 0-4.85-2.05t-2-4.95q0-3.25 2.25-5.25z"/><path fill="#fff" d="M58.85 55.6q0 1.2-.85 2.05t-2 .85q-1.2 0-2-.85-.85-.85-.85-2.05t.85-2q.8-.85 2-.85 1.15 0 2 .85.85.8.85 2"/><path fill="#0d131a" d="M99.4 16q7.8 13.35 7.65 31.5 0 .3-.7.35-.7 0-.75-.3-1.05-18.5-8.3-30.85Q89.4 3.2 76.7 2.1 56.4.45 38 12.05q-9.2 5.8-14.5 12.1l-1.35-.25q-1.15-.45-.95-.7 5.2-6.65 14.65-12.75Q54.7-1.7 76.75.25 90.85 1.45 99.4 16M13.15 71.8l.75.05q.65.35.5.6-2.15 4.2-2.5 9.15-.45 5.9 2.05 10.6 5.85 11.1 27.7 14.4 2.4.35 2.3.8-.05.6-2.4.35-23.3-3.05-29.35-14.55-2.65-5-2-11.5.55-5.25 2.95-9.9"/><path fill="#0d131a" d="M27.8 65.55q.55-.15.8.4 3.8 8.9 11.9 12.85 9.2 4.45 19.9-.1 1.5-.65 1.7-.2.25.6-1.35 1.3-11.1 5.05-20.6.65-8.35-3.85-12.65-13.3-5.65 1.3-11.2 4.45-3.05 1.7-3.9 1.7-1.9-.05-4.8-5.3-2.85-5-3.95-9.8-.45-1.75 0-1.85.5-.15 1.05 1.65 1.7 5.15 4.3 9.65 2.4 4.05 3.4 4.2.5 0 3.2-1.5 6.55-3.65 12.2-4.8M92.55 92.2q.2-1 .5-.95 4.5.4 13.15-.2 8.7-.65 9.95-1.5-.15-1.2-3.95-4.9-4.2-4.1-8.95-7.25-.15-.1.25-.9.45-.8.7-.65 4.8 3.2 9.1 7.75 4.65 4.8 4 6.4-.7 1.75-11.5 2.75l-13.2.5q-.3-.05-.05-1.05"/><path fill="#0d131a" d="M20.55 98.5q-5.05-1.65-7.7-5.2-.2-.25.4-.65.55-.45.75-.2 2.4 3.15 7 4.5l10.1.4q6.45-1.05 11.85-4.75 6.45-4.5 8.8-11.35l.75-.05q.7.25.6.5-2.25 6.65-8 11.45-5.95 4.9-13.55 6.15-5.8.9-11-.8m2.15-26.05q4.2-2.15 8.1-1.85.3.05.3.65-.05.6-.35.6-3.4-.3-7.25 2.05-3.25 1.9-5.95 5.1-2.6 3.05-3.8 6.2t-.7 5.4q.1.3-.6.45l-.8-.1q-.6-2.7.55-6.3 1.25-3.8 4-7.05 2.75-3.2 6.5-5.15m-4.7-7.9q-.15-.15.65-1.35l1.25-1.65q.55-.4.8-.1.25.25-.15.8L19.2 63.7zM7.85 62.9q-.2.05-.45-.9l-.3-1.55q-.05-.6.15-.7t.45.5l.25 1.55zm64.2-11.7q0-.3.7-.3.7-.05.75.25.1 5.4-1.25 9.9-1.35 4.6-4 7.35-4 4-10.05 4-6.25 0-10.4-4.05-2.55-2.55-3.9-6.7-1.35-4.1-1.3-9.05 0-.25.7-.25t.7.25q0 9.4 4.8 14.2 3.6 3.65 9.4 3.65 5.5 0 8.95-3.6 2.5-2.5 3.75-6.55t1.15-9.1"/><path fill="#0d131a" d="M72.55 50.6q2.25 0 2.25.5l-.75.5-1.05.15-15.1.45-14.9.7q-1.85 0-1.85-.45-.05-.55 2.2-.8zm42.7 14q-.1-.35-1.75-1.7-3.8-3.25-10.3-6.55-6.95-3.55-9.85-3.25-4.05.3-6.2 3.65-1.8 2.7-1.85 6.4 0 3.3 1.65 5.7 2.05 3 6 3.5 3.5.5 12.65-2.95 8.7-3.3 9.65-4.8m1.15.2q-.15.7-1.2 1.45-3.65 2.6-10.3 5.15-7.85 2.95-12.3 2.5-4.1-.45-6.7-3.6-2.5-3.05-2.5-7.25 0-4.1 2.35-7.3 2.7-3.8 7.3-4.05 3.85-.1 11.1 3.55 6.85 3.45 10.6 7l1.3 1.4q.4.55.35 1.15M34.55 106q.15-.3.8 0 .6.35.5.6-5.1 10.4-9.25 25.35-6.05 21.95-3.4 35.65 4.35 19.5 25.4 29.7 8.35 4.1 17.9 5.85 8.6 1.6 15.55.9l1.4.7q1.1.7.8.75-9.4.95-17.5-.3-9.45-1.5-19.8-6.35-9-4.55-15.15-11.05-8.15-8.65-10.7-20.1-2.85-15.9 3.65-37.35 3.6-11.9 9.8-24.35m33.35-.15q-.05-.3.65-.45l.75.1q1.25 4.7 6.05 10.35 5.95 6.9 14.15 10.8 8.65 4.05 18.8 4.1 13.35.1 28.2-6.75 2.15-.85 3.1-.45.6.3 1.05 1.1l.7 1.95q2.4 7.6.75 20.65-2.4 18.6-13.3 35.65l-.75-.1q-.6-.35-.45-.6 10.25-17.35 12.55-36.2 1.5-11.95-.15-18.95-.45-1.9-1-2.2-.45-.2-1.95.45-14.9 7.1-28.85 7.25-10.95.05-19.6-4.05-8.55-4-14.55-11.45-4.7-5.85-6.15-11.2"/><path fill="#0d131a" d="M82.9 149.75q1.1-1.6 1.45-1.4.4.25-.5 2.05-8.55 15.3-9.55 30.15-.95 13.7 4.65 20.2 4.95 5.7 16.45 5.05 9.6-.6 16.4-4.35.7-.4 1.35-.55.7-.2.9 0 .3.5-1.5 1.65-7 4.35-17.65 4.95-12.35.7-17.7-5.5-6.25-7.55-5.05-21.85 1.3-15.25 10.75-30.4"/><path fill="#0d131a" d="M122.05 144.75q.35-.3 1.5.85l1.25 1.5q1.3 1.85 2.4 4.15 3.35 7.4 3.35 17.65 0 8.5-3.8 22.65l.1 2.25q0 6.1-2.7 10-1.85 2.65-4.4 3.65l-6.45.3q-3.45-.85-5.15-3.05-.2-.2.35-.65t.75-.25q1.3 1.7 4.05 2.35 2.95.65 5.8-.45 2.8-1.1 4.4-3.75 2.4-3.9 1.85-10.4v-.25q5.05-19.45 1.75-34-1-4.55-2.8-8.1l-1.6-2.75q-1-1.35-.65-1.7"/><path fill="#0d131a" d="M127.2 188.55q-.3-.05-.2-.65t.4-.55l1.65.5q1.8.7 2.75 2.25 1.75 2.75.65 7.7-1.4 5.95-1.95 10.9-.5 4.5-.5 10.7l.05 1.65q.05 4.45-.65 7.2-1 4.1-4 7.1-.25.2-.7-.3-.5-.55-.3-.75 2.65-2.65 3.45-6.65.45-2.3.4-7.05v-1.65q0-5.8.65-10.65.6-4.25 2.15-10.85.9-4.1-.6-6.5-.75-1.2-2.1-1.9zm-18.9 15.9q.1-.25.8 0 .65.3.55.55l-.45 1.05-2.35 5.55q-2.1 3.9-5.6 6.95-2.35 2.05-3 4.4-.55 2 .25 3 .2.25-.3.6l-.7.1q-1.25-1.55-.85-4 .55-2.9 3.35-5.4 3.4-2.95 5.5-6.55 1.15-1.9 2.4-5.15z"/><path fill="#0d131a" d="M108.1 204.25q0-.3.7-.35.7-.1.75.2.45 4.1-.35 7.85-.5 2-.95 1.9-.45-.05-.25-1.75.45-5.05.1-7.85m25.25-24.1q.6.35.45 2.05-.2 2.4-1.8 9.25-.1.4-1.2-1.2l2-9.25q-1.1.45-4.55 4.05-.2.2-.7-.3t-.3-.7q4.4-4.7 6.1-3.9M21 158.55q.15-.2.75.15.6.4.45.6-7.45 11.95-9.25 19.2-2.7 10.95 4.1 18.55 1.7 1.9 6.5 5.15 2.2 1.5 9.5 6.05l6.3 4.2 1 .8q.55.5.4.8-.3.55-2.1-.5l-6.6-3.8q-6.75-3.95-9.65-5.85-4.95-3.15-7.65-6.2-7.15-8.05-4.1-19.4 2.1-7.9 10.35-19.75M57.5 203q-.05-.25.85-.45l1 .1q.75 1.55.55 3.2l-.9 3.5q-1.4 4.85-1.75 8.15-.65 6.25.9 13.2.35 1.2-.15 1.4-.25.05-.85-1.45-2.1-7-1.8-12.7.15-3.35 1.5-8.15l.85-3.6q.25-1.8-.2-3.2"/><path fill="#0d131a" d="m35.65 211.1.95-.1q.9.2.9.5.15 7.5-4.4 13.9-3.8 5.35-9.8 8.55-2.55 1.35-7.05 2.75-2.75.8-3.55 1.3-1.1.7-1.15 2.1 0 .3-.7.25-.75-.05-.7-.35.1-2.1 1.65-3.35 1.2-1 3.8-1.75 4.15-1.2 6.85-2.6 5.6-3 9.15-8.1 4.25-6 4.05-13.1m24.8 21.6q-.4-2.9-3.45-3.75-.25-.1-.05-.8.2-.65.45-.6 1.95.6 3.15 1.85 1.3 1.3 1.5 3.05.3 2.5-.75 4.8-1.15 2.45-3.75 4.15l-3.4 2q-4.45 2.55-6.5 4.35-3.1 2.7-7.15 8.2-2.45 3.4-5.75 3.95l-2.95-.1q-.25-.1-.1-.75.2-.65.5-.6l2.3-.1q2.6-.75 4.65-3.6 4.15-5.65 7.45-8.5 2.15-1.85 6.65-4.45l3.35-2q1.95-1.2 3-3.15 1.1-2 .85-3.95m-27.1-123.45q.25-.05.3.85t-.2.95q-6.5 1.45-13.45 5.2-7.65 4.1-12.05 9-2.65 2.95-1.4 4.7.95 1.3 3.15 1.75l3.65-.1q1.95-.7 6.35-1.4l6.5-1.35q.3-.1.45.7.15.75-.1.85l-6 1.45-3.6.5-2.85.6-4.3.15q-3.15-.6-4.4-2.3-.8-1.15-.6-2.9.25-2.2 2.15-4.35 4.45-5 12.5-9.1 7-3.6 13.9-5.2M44.6 136.9q.75-1.65 1.25-1.45.2.1.05.9l-.3 1.4q-1 4.7.15 7.25l-.5.55-.8.05q-.9-1.95-.75-4.55.1-2.3.9-4.15"/><path fill="#0d131a" d="M65.8 134.4q.45-.2.85 1.25 1.35 4 1.1 8.1-.35 5.3-3.4 9.15-5.2 6.5-16.35 12.3-5.6 2.9-10.7 4.7-5.95 2.25-8.6-.5-1.05-1.1-1.25-2.75-.2-1.4.3-2.65 2.4-4.9 8.55-11.35 4.65-4.85 10.6-9.8.35-.35 1-.7.75-.4.9-.2t-.45.9l-.85.9q-16.2 15.6-18.4 20.8-.4.9-.25 1.95.15 1.1.9 1.9 1.95 2.1 7.05.2 4.85-1.85 10.25-4.75 10.65-5.8 15.65-12.1 5.15-6.5 3.1-15.65-.3-1.6 0-1.7m22.55-99.75Q94.9 30 96.6 30.8q1.9.9 2.55 9.65.55 7.8-.15 13.05l-.7.25q-.7-.05-.7-.3l.05-4.35q0-5.85-.5-10.95-.5-5.2-1.15-6-1.45.1-7.45 4.6-6.4 4.8-11.35 9.75l-.9.6q-.3-.1-.3-1-.9-9.7-2.45-17.9-1.5-7.75-2.45-8.55-1.05-.35-8.9 5.25-8.3 6-15.85 12.85l-.75.1Q27.3 24.15 17.15 24.4 6.15 24.7 3 36.85q-1.2 4.6-1.2 10.2 0 6.45 1.4 12.7 1.25 5.55 2.35 6.55l.9-.9.7.1q.55.35.35.55-1.7 2.25-2.45 1.9-2.2-.9-4-10.75-1.9-10.65-.4-19 1.45-7.65 5.5-11.65 4.05-4.05 10.55-4.2 5.1-.15 13.2 3.7Q38.15 30 45.75 36.4q4.15-4.75 13.5-11.65 10.3-7.6 12.55-6.35 1.75.95 3.55 9.55 1.75 8.5 1.9 16.5 4.5-5.15 11.1-9.8M104.2 49.2l1.65-1.95q.75-.7 1.45-.5 1.5.4 1.65 5.9l-.2 5.7q-.05.3-.75.3-.7-.05-.7-.35l-.15-.2.2-4.4q0-4.6-.5-5.45l-1.6 2.15-1.6 2.1-2.2 2.4q-.25.2-.85-.35-.65-.55-.45-.75 1.8-1.7 4.05-4.6"/><path fill="#0d131a" d="M84.8 97.3q11.2-7.2 16.7-17.9 2.2-4.3 3.6-9.2.05-.3 1.05-.5 1-.25 1 0-.85 5.05-3.85 10.8-11.45 22.45-42.65 27.2l4.85 6.15.25.45-.3.45-8.7 10.2 16.95 6.55q.5.2.4.8l-3.9 18.35 12 1.7q.25.05.05.85l-.55.8-12.45-2-.6-.25v-.65l4.3-18.65-17.65-6.55-.6-.45q0-.35.3-.65l9.3-10.55-5.5-6.65-.3-.7q.1-.4.75-.4 14.35-2 25.55-9.2m-4.35 85.05q-.2.55-.6.55-.3.05-.65-.45-5-7.6-3.55-17.05l.7-.05q.7.2.7.3l-.25 3.05q0 6.35 2.95 11.75 2.35-4.75 7-11.9 4.8-7.5 7.55-10.5.5-.5.8-.4.35.15.45.75.5 3.2 4.6 12.55 4.35 10 7.7 14.8 9.2-8.95 14.65-22.2l.45-.6q.35-.05.7.4 1.05.85 2.85 3.75 2.7 4.4 3.05 8.75.05.3-.65.35t-.75-.25q-.25-3.25-2-6.75-1.3-2.55-2.8-4.4-6.4 15.45-15.15 22.25l-1-.1q-3.35-3.9-7.65-13.25-3.8-8.25-5.15-13.3-3.15 3.85-7.8 11.1-4.55 7.25-6.15 10.85m51.65-42.6v-.1q0-.4.35-.6l8.8-4.75q.25-.15.4.5l-.1.7-7.85 4.4 2 11.8.05.25-.1.4-.7.15-8.85-.5q-.25-.05-.3-.85-.05-.85.25-.8l8.35.9zm-120.8 40.9.6-.7q.55-.4.55-.3 0 3.05 1.35 6.8 1.55 4.25 4.05 6.75 3.7-7.8 9.65-12.4.25-.2.7.35t.2.75q-1.95 1.6-4.6 4.95-3.15 3.95-5.1 7.75l-.5.5q-.2.05-.65-.3-2.95-2.65-4.65-6.5t-1.6-7.65m-4.4-56.1q.25-.1.45.5t-.05.7q-5.35 1.8-5.65 2.35l3.95.55.35.4.05.45q-2.7 3.9-2.6 4.4.9-.15 2.45-1.05l2.35-1.4q.25-.15.55.5.25.6 0 .75-5.3 2.8-6.15 1.95l-.2-.65q.1-1.35 1.9-4.15-3.5-.5-3.8-1.55l-.05-.15q0-.9 2.95-2.25z"/><path fill="#0d131a" d="m10.9 134.45 1.8-2.3q.15-.25.7.2.6.45.4.7l-2.25 2.45q-2.35 2.4-3.2 2.25l-.4-.2-.15-.15q-.5-.7.45-5.2.05-.25.7-.15.6.05.6.3L9.1 134q-.45 1.75-.45 2.7zm17.6 28.4q.25-.15.5.5.3.7.05.8-3.6 1.6-5.05 2.95l3.95-.25q.3-.05.35.7.05.7-.25.75-4.05.3-4.95-.4l-.3-.65q-.05-.85 1.95-2.25 1.7-1.25 3.75-2.15"/><path fill="#0d131a" d="M28.1 167.75q.55.2.55.4l-.1.45q-2.05 2.75-2.6 4.45 2.75-1.3 5.1-3.5.2-.2.7.3t.25.7L28.6 173q-2.85 1.75-3.45 1.1t.25-2.75q.75-1.95 2-3.6.15-.25.7 0"/><path fill="#0d131a" d="m31.85 169.9.75.1 1.15 4.75q1-1.35 2.4-5.6l.6.5q.65.2.75 0-2.15 6.1-3.65 6.2-.6.05-1-.65-.8-1.2-1.65-4.85-.05-.3.65-.45m24.1 44.2q.2-.2.65.35.45.6.25.8-4.45 5-9.85 6.25-3.45.8-6.25.05-1.95-.55-3.35-1.95-1.35-1.3-1.6-2.65-.05-.3.45-.6l.6-.05q.15.75 1.3 1.75 1.3 1.1 3 1.55l5.75.15q4.95-1.05 9.05-5.65m.75 13.45q-.15-.8.15-.85l6.25.8q5 1.05 5.15 2.35.2 2.05-7.4 7.6-.2.15-.6-.6-.35-.75-.2-.85 6.45-4.65 7.15-5.95-.85-.55-4.5-1.15l-5.55-.55q-.25.05-.45-.8m-42.35 13.5q-1.3-1-3.05-.2-1.5.65-4.8 3.65-3.35 3-3.9 4.15l5.75-.55q4.5-.8 6.35-1.8.25-.15.5.6.2.7-.05.85-2.05 1.1-6.7 1.75l-6.2.2-.75-.5q-.6-1.4 3.7-5.35 3.8-3.55 5.55-4.3 2.55-1.15 4.5.4 1.1.9 1.6 2.45.55 1.55.2 2.95-.1.25-.8.3t-.65-.25q.35-1.25-.05-2.45-.35-1.1-1.2-1.9"/><path fill="#0d131a" d="M23.25 247.4q-1.6-3.1-5.2-2.1-1.7.45-4.4 5-2.3 3.9-2.9 6.1l6.7-1.95q4.8-1.65 5.5-2.2.95-.7.95-2.25 0-1.3-.65-2.6m-5.55-3.45 4 .1q1.8.75 2.8 2.65.95 1.85.75 3.85-.15 2-1.35 2.95-.8.7-6.3 2.35-5.6 1.7-7.1 1.65l-.55-.1-.15-.15q-.4-.5.15-2.1.9-2.9 3.05-6.35 2.6-4.3 4.7-4.85"/><path fill="#0d131a" d="M32.2 257.45q.85-1.35.85-2.8 0-1.85-1.3-2.85-1.9-1.45-4-.9-2.5.55-4 3.55-1.4 2.8-2.3 6-.8 2.7-.85 4 1.8-.4 6.1-2.9 4.6-2.65 5.5-4.1m.45-6.75q1.95 1.7 1.95 4.15 0 1.9-1.1 3.55-1.1 1.75-5.95 4.35-4.45 2.3-6.5 2.65l-1.05-.15q-.8-.6.05-4.35.8-3.75 2.4-7.05 1.8-3.65 4.95-4.35 2.75-.7 5.25 1.2m64.4-23.95q1.15-3.2 4.1-3.5 1.4-.1 2.75.55 1.3.7 2.05 1.9 1.6 2.75-.1 5.35-1.8 2.65-4.95 5.35-3.05 2.65-4.5 2.9l-.7-.05-.25-.15q-.95-.75-.2-5.25.65-3.95 1.8-7.1m1.3.5q-.95 2.55-1.6 6.15-.6 3.1-.6 4.75 1.1-.35 3.75-2.8 2.9-2.7 4.6-5.2.7-1.1.7-2.1 0-.85-.45-1.6-.55-.85-1.5-1.35-1-.5-1.95-.4-2 .15-2.95 2.55"/><path fill="#0d131a" d="m114.6 231.2.2-1.25q0-1.4-1-2.3-.8-.75-1.95-.95l-2.2.25q-2 .75-2.15 3.35l-.05 3.05q0 6.7.75 7.95 1-.5 3.2-3.85 2.35-3.6 3.2-6.25m-2.5-5.9q1.55.3 2.65 1.3 1.05.95 1.4 2.3.4 1.4-.05 2.85-.9 3-3.7 6.8-2.9 3.95-4.35 3.8-2.45-.25-1.95-12.15.15-3.4 3-4.6z"/><path fill="#0d131a" d="M121.85 239.4q1.95-3.25 2.9-6.2l.25-1.7q0-1.8-1.3-3-.9-.8-2.1-1l-2.25.25q-2.3 1-2.3 4.55v.05q0 2.85.8 6.45.75 3.25 1.4 4.1.9-.65 2.6-3.5m-.05-13.3q1.65.25 2.85 1.35 1.3 1.15 1.8 2.85.5 1.75-.1 3.55-1 3.1-3.45 6.65-2.6 3.7-3.85 3.5-1.25-.25-2.4-4.5-1.05-3.95-1.05-7.25 0-4.4 3.15-5.8 1.45-.65 3.05-.35M61.15 51.8q-.25-.15.3-.55.5-.45.75-.3 1.6 1.1 2.6 2.95t1 3.75q0 3.2-2.25 5.45-2.25 2.3-5.45 2.3T52.6 63q-2.3-2.35-2.3-5.6 0-3.45 2.5-5.8l.85.05q.65.25.4.45-2.3 2.2-2.3 5.3 0 2.65 1.8 4.45 1.75 1.85 4.35 1.85t4.45-1.85 1.85-4.45q0-1.65-.8-3.15-.85-1.6-2.25-2.45"/></svg>