<svg xmlns="http://www.w3.org/2000/svg" width="323" height="367" viewBox="-0.1 -0.35 322.5 367.25"><path fill="#686d70" d="m174.6 148.55 13.6 4.5q18 5.45 27.15 10.45 5.9 3.25 18.05 12.8 14.85-4.65 26.55-11.6 8.35-2.25 16.9.4 7.05 2.25 11.3 6.65 6.75 7.05 9.45 19.4 2.5 11.3.35 19.7-10.3 19.9-25.4 37.25-16.05 18.45-34.35 30.2l-3.75 1.95q-2.8 1.25-3.8 1.85 3.2-7.85 7.85-17.35l5.3-10.65q2.95-6.3 4.05-10.15-14.4 17.65-30.1 25.45-12.55 6.25-27.7 6.8-10.25.35-17.8-3.35-8.6-4.25-11.4-13 .25 9.3 4.15 15.3 2 2.95 8.65 8.95-.25 2 1.65 6.55 1.7 4.2 4.1 8-17.3 1.35-34.7-2.55-17.9-4-32.3-12.85-25.55-15.65-38.7-42.95-13.05-27.15-9.95-57.75 1.25-12.25 6.1-27.1 2.55-7.95 10.3-27.8L83.9 119q.1 7.5 3.2 13.55 3.5 6.8 10.05 10.05 11.9 5.85 27.45 3.35 17.1-2.75 28.9-14.85h4.4q.85 3.45 2.4 6.75 1.8 3.85 3.85 5.85 2.55 1.9 10.45 4.85"/><path fill="#686d70" d="m92 94.65 2.3-7.05q1.5-4.5 2.7-7.1 3.65 8.1 9.75 15.25 6.3 7.4 14.55 13.05 6.9 4.75 12.2 6.75-8.4 5.95-17.15 7.1-9.3 1.2-16.15-3.45-5.3-3.65-7.55-10.25-2.3-6.75-.65-14.3"/><path fill="#0086bb" d="M133.65 115.6q3.9 1.3 8.8 1.9-1.8 4.1-.45 8.05 1.05 3.1 3.1 4.45 1.15 1.05 8.2 1.3-11.55 11.4-28.2 14.5-15.5 2.9-26.65-2.6-7.55-3.65-11.55-10.4-4.1-6.9-3.1-14.5l7.5-20.15q-.1 6.3 2.15 12 2.45 6.15 6.75 9.1 6.7 4.55 16 3.45 9.1-1.05 17.45-7.1"/><path fill="#515457" d="M99.55 86.3q3.75 5.95 9.55 12 6 6.25 12.2 10.5 6.9 4.75 12.2 6.75-8.45 5.95-17.25 7.1-6.7-5.5-11.45-16.35-4.3-9.9-5.25-20"/><path fill="#006b95" d="M141.45 122.45q-3.75 4.15-9.15 5.15-5 .9-9.9-1.25-3.2-1.3-6.1-3.65 9.05-1.1 17.35-7.1 3.9 1.3 8.8 1.9-1.1 2.4-1 4.95"/><path fill="#922f00" d="M148.1 117.2q-3.1.4-6.2 0-1.9-.8-5.7-4.05 1.25-2.25 1.1-6.25-.15-3.8-1.35-6.5 3.85 1.6 8.35 2.75 4.5 1.2 7.25 1.4 1.85 1.15 5.4 6.95-.2 1.2-1.35 2.45-1.1 1.15-2.7 1.9-1.95.95-4.8 1.35"/><path fill="#ed8599" d="m122.85 95.4.35-2.7q3.2 2.9 12.45 7.35 1.5 1.95 1.45 6.25-.1 4.05-1.4 6.75-4.25-4.15-8.25-9.7-3.65-5.2-4.6-7.95"/><path fill="#6a1a00" d="M154.25 115.05q-3.7-3.1-6.8-5.1-4.55-3.05-10.3-4.65-.35-3.05-1.2-4.9 3.85 1.6 8.35 2.75 4.5 1.2 7.25 1.4 1.85 1.15 5.4 6.95-.3 2-2.7 3.55"/><path fill="#ce7486" d="m122.85 95.4.35-2.7q3.2 2.9 12.45 7.35l1.05 1.8q.35.95.4 2.45-4.6-1.6-10.05-1.6-3.1-4.15-4.2-7.3"/><path fill="#686d70" d="M66.55 221.2q3.25 11.95 8.6 22.1-8.65 9.25-18.45 13.45-9.1 3.9-15.5 2.1-1.35-.4-3.25-1.8-2.15-1.5-2.9-2.85-1-9.6 7.4-26.55 8.15-16.55 20.2-30.2.55 11.65 3.9 23.75"/><path fill="#515457" d="M57.25 237.75q2.8-6.95 9.05-16.35 1.6 6.25 3.75 11.35 1.6 3.8 5 10.2-4.85 5.7-10.65 9.7-5.45 3.7-11.2 5.55.15-10.75 4.05-20.45"/><path fill="#686d70" d="M23.15 167.9q1.15 3.75 3.35 4.85-1.15 1.5-1.95 4.45l-.9 4.25-.45 2q-.55.8-4.85 3t-5.7 2.4q-.1-.35 1.25-2.8 1.35-2.35 2.15-3.4l.1-2.05.1-3.25q-1.8 1.7-2.8 2.3l-1.7 1-.65.6q-.25.45-.2 1.25.05.9.5 1.35.85.85 2.5 1.5l-.75 1.2-2.5 1.2-2.7-1.15q-2.35-1.5-3.45-4.25l-2.05.1-.95-1.15-.75-1.35q-.15-.85 0-3.5.2-3.2.85-4.25l7.55-5.7 4.2-3.9 4.65-4.1q.5-.15 3.2.05l4 .35q-3.3 4.6-2.05 9m13.5 4.85q-1.2-1.2-2.25-3.35-1.25-2.45-1.2-4.35.05-2.7 1.4-5.35t3.35-4l12.75-2.15 8.35-1.35q3.7-.8 17.2-15.5l-6.35 18.15q-3.75 11.15-5.2 18l-2.95 1.4-2.75.95-5.05-.6-8.05-1.05z"/><path fill="#0086bb" d="M36.6 155.95q-1.65 1.85-2.65 4.35-.95 2.55-1 5.1 0 4.3 2.4 7.3l-8.3.55q-2.75-1.2-3.7-4.4-.65-2.25-.05-5.1.55-2.7 2-4.75 4.3-1.6 11.3-3.05"/><path fill="#515457" d="m36.65 172.75-1.2-1.5 16.7-1.5q9.85-.9 14.45-4.4l-1.9 7.5-2.95 1.4-2.75.95-5.05-.6-8.05-1.05z"/><path fill="#eeeeef" d="M112.15 60.55q-.6 5.7-4.4 10.05-4.05 4.55-8.6 3.7Q95 73.45 78.6 57.7 62.55 42.3 63.1 41.35q.4-.75 17.55.05 17.5.8 23.1 2.1 4 1.25 6.5 6.2 2.55 5.05 1.9 10.85"/><path fill="#c8c9ca" d="M91.25 62.3q14.55 7.9 20.25 1.35-1.4 4.6-4.45 7.5-3.45 3.2-7.9 3.15-7.7-4.85-17.75-14.2L68.65 47.8Q71 49.2 79.2 54.75q7.55 5.1 12.05 7.55"/><path fill="#eeeeef" d="M72.6 97.9q1.4-.4 7.95-.05l10.15.95-5.8 16.8q-4.7-5.45-8.45-10.8-3.75-5.45-3.85-6.9"/><path fill="#c8c9ca" d="M84.45 107.35q2.3-.9 5.3-5.75l-4.85 14-6.4-7.95z"/><path fill="#686d70" d="M175.25 89.9q6 .2 7.65-1.2 7.15-5.85 10.1-16.15l2.8-1.9q-3.05 18.25-13.55 33.45-10.65 15.45-20.65 15.6l-4.55-8.3q-3.55-6.3-5.6-7.15-7.15-1.4-14.15-4.05-9-3.45-13.6-7.55-.5.55-.8 1.45l-.25.8q1.25 3.75 6.35 10.55 5.65 7.5 10.6 11.1-3.3-.2-8.65-2.4-5.05-2.15-8.9-4.75-10.65-7.3-18.2-17.7-7.65-10.6-9.65-21.05 1.75 1.35 5.3 3.4 5.05.1 8.9-4.95 4.15-5.4 4.4-13.65.8 2.45 6.15 8.95 5.5 6.65 9.55 9.9-.8 6 1.75 10.65 2.25 4.15 6.35 5.95 3.55 1.6 7.35.65 4.4-1.1 7.95-5.45l4.7 1.1 4.2.8q8.45 1.7 14.45 1.9"/><path fill="#0086bb" d="M171.05 7.25q10.6.8 13.25 3.2 1.9 1.7 3.6 8.85 1.75 7.25 2.4 16.15 1.55 22.6-5.05 32.2-2.2 3.15-9.6 5.25-7.45 2.15-15.25 1.8-.25-13.35-2.2-13.7-1.95-.4-7.3 5l-5.05 5.35q-8.5-3.7-14.8-10.5-6.45-6.85-9.55-15.9-2.15-6.3-1.7-13.05.45-6.5 3.15-11.55 2.05-3.8 8.95-7 7.1-3.35 17.25-5.1 10.85-1.8 21.9-1"/><path fill="#30353a" d="M190.85 39.65q1.6 2.55 2.75 8.35 1 5.15 1.15 10.15l-3.25.6-2.95.65q2.2-6.45 2.3-19.75"/><path fill="#eeeeef" d="M136 1.4q.9.55 3.05 3.5l3.2 4.8q-5.7 1.4-10.4 3.2.45-2.95 1.9-6.9 1.4-3.7 2.25-4.6m52.9 58.25q2.35-.8 8-1.1 5.05-.3 7.05-.05-.2 2.75-5.35 8.35-4.35 4.7-5.45 5.25-1.8.65-4.25-1.6-2.35-2.1-2.8-4.3zm15.85-20 9.1-.5q3.45 0 4 .9.5.8-1.1 2.95-9.8 13.1-12.4 15.05-5.2-.3-9.45.1-.25-8.7-2.6-17.25z"/><path fill="#c8c9ca" d="M194.6 40.6q-.6 4.8 1.8 8.7 2.45 4.15 7.15 5.4 1.55.65 3.15 1.1l-2.35 2.25q-5.2-.3-9.45.1-.25-8.7-2.6-17.25z"/><path fill="#eeeeef" d="M111.75 16.15q1.95 1.7 4.5 4.35 3.4 3.55 3.9 4.9l-.9 4.5q-1.2 2.05-4.3 3.1l-3.6.4q-2.15-.3-3.05-1.65-.4-1.55-.75-8.05l-.25-6.4q0-2.5 1.05-2.8 1.05-.35 3.4 1.65"/><path fill="#30353a" d="M185.95 66.4q.95 2.3 3.15 4.2 1.95 1.65 3.95 2.25-1.5 4.45-3.9 8.4-2.75 4.5-6.1 7.3-1.25 1.05-7.75 1.05-7.5.05-15.65-1.6-12.55-2.5-23.25-8.65-15.15-8.8-22.8-23.25-3.3-6.25-5-13.5-1.5-6.3-1.45-11.65 1.35 1.45 3.65 2.15 2.55.75 4.7 0 1.7-.55 3.85-2.7-.15 3.4.4 7.4.6 4.1 1.75 7.6Q125 55.55 133 63.1q5.95 5.6 12.55 8.4-1.05 2.6 0 5.85 1.1 3.6 4.05 4.65 5.05 1.75 8.45-.95 3.2-2.5 2.35-6.35 18.45 1.1 25.55-8.3"/><path fill="#e50044" d="m128.4 74.75 4.75 3.1 4.8 2.65q-1.25 3.6.95 4.5 2.05.85 3.5-2.1l4.7 1.85 4.55 1.5q-3.35 3.9-8.1 5.05-4.25 1.05-7.5-.4-3.65-1.65-5.8-5.85-2.35-4.55-1.85-10.3"/><path fill="#30353a" d="m123.45 9.8 9.3-.6-.5 4.25q-7.7 3.55-10 7.8-1.3 2.45-1.9 4.15-1.25-1.8-5.05-5.8l-3.55-3.65q.95-1.4 2.2-2.75 1.25-1.3 1.95-1.7 1.8-1 7.55-1.7"/><path fill="#686d70" d="M95.45 42.35Q97 37.9 100.3 32.2q3.05-5.25 6.55-9.9l.55 5.8q-.5 4 .05 9.2.55 5.5 2.1 10.55l-2.7-2.4q-1.75-1.25-3.15-1.7l-.25-.2z"/><path fill="#eeeeef" d="M63.3 325.05q1-.2 2.9.5 2.05.75 3.25 2 1.7 1.7 2.65 4.6 1.1 3.25.05 4.9-1.5 1.1-11.8 1.9-10.25.8-11.85-.05.8-2.15 6.9-7.8 6-5.55 7.9-6.05m101.45-202.3q5.3 5.05 5.55 5.75-2.5 1.25-11.25 2.2-10.1 1.05-13.7-.8-1.95-1.2-2.95-4.6-1.25-4.05.4-7.7l4.35-.3q4.65-.35 6.15-1.1l2-.95 3.75 2.25z"/><path fill="#c8c9ca" d="m169.95 128 .35.5q-2.5 1.25-11.25 2.2-10.1 1.05-13.7-.8-1.1-.7-2.05-2.45-1.05-1.95-1.35-4.2 11.7 5.45 28 4.75"/><path fill="#0086bb" d="M103.2 191.4q2.2-.1 4.85 1.2 2.65 1.25 4.1 3.1 1.85 2.4 2.3 5.7.4 3.35-.75 6.4-5.05 1.3-9.6 3.65.75-4.85-2.05-8.5-1.3-1.65-3.45-2.7t-4.55-1.3zm144.3 51.4q-.55 3.15-3.45 10.3-2.45 6-4.9 11l-5.15 10q-3.05 6.1-4.2 9.65-2.1 3.65-7.35 7.4-5.7 4.1-12.3 6.2l-5.55 1.3q1.8-1.2 3-2.55l1.1-1.7q.4-3.45-4.1-7.55-4.85-4.35-11.8-6.05-14-3.45-19.5 3.1-11.95-12.2-12.9-22.9 4.8 7.5 11.45 11.15 7.8 4.25 19.1 3.85 14.6-.55 30.5-9.15 17.55-9.6 26.05-24.05"/><path fill="#006b95" d="M225.15 273.95q4.95-3.45 9.75-8.4 5.65-5.85 8.75-11.55l-4.5 10.1-5.15 10q-3.05 6.1-4.2 9.65-2.1 3.65-7.35 7.4-5.7 4.1-12.3 6.2l-5.55 1.3q1.8-1.2 3-2.55l1.1-1.7q.25-2.65-2.5-5.9-2.85-3.3-7.6-5.6 14.35-.95 26.55-8.95m-51.85 9.95q-4.75-4.95-7.55-9.1 5.9 3.55 12.7 5.7-3.15 1.05-5.15 3.4"/><path fill="#686d70" d="M101.9 202.95q1.25 1.55 1.75 3.9.6 2.5.1 4.85l-1.5 3.85q-1.7 4.25-2.8 5.95-1 1.05-.4 1.55l1.8.05q3.75-1 4.35-.05.6 1.05-.7 2.75-1.05 1.45-2.8 2.7-1.7 1.2-2.6 1.2-1-.05-5.15-1.95l-1.55.75-1.5.45q-.7 0-2.3-.85-1.8-.95-2.85-2.05-1.45.25-4.55-1.15-2.8-1.25-3.45-2.1-.4-.55-1.45-4.3l-1.15-4.65q0-1.05 1.6-4.45 1.8-3.8 3.05-4.2l2.6-.75q7.15-1.4 11.45-5.2 2.4.1 4.65 1.1 2.2 1.05 3.4 2.6"/><path fill="#eeeeef" d="M40.1 284.2q-.9-1.65-2.05-10.55-1.25-9.5-.1-10.95.75-1 5-.25 5.25.9 10.4 4.45 4.05 2.75 7.1 7.6 2.9 4.55 2 5.9-3.9 1.85-10.35 2.95z"/><path fill="#c8c9ca" d="M55.95 269.05q3.2 3 5.25 6.75 1.95 3.55 1.25 4.6-2.7 1.25-6.95 2.25L46.9 284q10-6.4 9.05-14.95"/><path fill="#686d70" d="m230.95 283.1 2.75 2.45 2.7 1.55q1.4.5 1.4 3.95 0 2.6-.8 6-3.4 14.3-3.4 27.25 0 6.45 1.1 18.75l.35 4.5q-.2 3.3-3.15 6.85-2.85 3.45-4.85 3.05l1.45-2.65.85-2.4-1.85-2.3q-2.3-2.4-4.7-2.95-2.75-.65-5.55.45-2.7 1.05-3.3 2.8l-.3 2.75q-.15 2.2-.5 2.55-1.5-.85-2.35-2.9-3.4 3.4-6.7 2.15l3.55-3q.95-3.35-4.65-5.85-2.55-1.15-5.2-1.05-2.7.1-4.4 1.5-.55.45-1.55 2.6-1.1 2.3-1.15 3.45-.6-1.9-2-1.65l-1.85.75q0-1.45-1.45-3.65-1.45-2.3-3.4-3.65-5.9-4.1-9.4-.35-1.15 1.25-3.25 4.2l-1.65-4.65q-.15-.75.3-2.5.45-1.8 1-2.55.55-.8 5.6-3.9l5.55-3.45q2.7-2.4 7.95-10.6 6.8-10.55 8.15-18 .05-1.2 2.75-2.25l3.8-1.35q2.9-.15 8.2-1.8 5.25-1.7 12.6-7.2 6.8-5.05 7.35-6.9"/><path fill="#515457" d="M236.4 287.1q1.4.5 1.4 3.95 0 2.6-.8 6-2.9 12.25-3.3 23.7-9.95 3.7-22.2 2.55-9.6-.9-21.95-5 5.5-9 6.7-15.7.05-1.2 2.75-2.25l3.8-1.35q2.9-.15 8.2-1.8 5.25-1.7 12.6-7.2 6.8-5.05 7.35-6.9l2.75 2.45z"/><path fill="#686d70" d="M318.1 117.7q1.4.6 2 6.25.55 5.2.15 10.6-.65 7.9-2.3 17-1.85 9.9-4.3 17.9-.75-5.6-3.5-11.25-3.05-6.15-7.1-9.05-3.55-2.5-8.1-3.6l-8.3-.35q15.65-13.5 23.1-20.95l4.2-4.3q3-2.8 4.15-2.25"/><path fill="#0086bb" d="M286.15 145.85q4-1.3 8.25-.6 4.4.7 8.15 3.4 4.65 3.35 7.85 9.8 3.1 6.4 3.1 12.3-6.5 23.2-15.2 38.15 1.2-8.8-1.35-18.95-2.85-11.45-9.15-18.05-4.15-4.35-10.6-6.65-7.8-2.8-15.75-1.2 12.85-8.2 24.7-18.2m-118.6-16.7q2.35 4.6 4 7.05 1.95 2.9 3.7 3.9l7.5 3.85 14.7 7.3q10.15 5.4 15.05 9.85-4.75-1.95-12.8-4.4l-12.35-3.7q-9.25-2.8-14.65-5.05-7.45-3.15-10.55-6.3-2.45-4.6-4.55-10.5z"/><path fill="#eeeeef" d="M47.35 318.5q1.25-.2 2.95.7 1.95 1.05 3.95 3.3 1.9 2.2 1.9 4.8l-1.25 2-9.6.95q-8.25.4-10.25-.1 1.2-1.75 6.1-6.5 5.1-4.95 6.2-5.15m-6.7-5.75q1.4 1.05 2.35 3.35.8 2.05.9 4.2-2.2.4-9.75.05-7.8-.3-9.35-1 .95-1.1 5.25-4.15 4.45-3.15 5.95-3.7l2.2.1q1.4.4 2.45 1.15"/><path fill="#c8c9ca" d="M69.45 327.55q1.7 1.7 2.65 4.6 1.1 3.25.05 4.9-1.1.85-8.05 1.6l-11.7.65q8.35-2.7 10.9-4.15 5.65-3.25 5.35-8.3zM54.9 329.3l-6.75.75q5.2-5.2 3.85-9.7l2.25 2.15q1.9 2.2 1.9 4.8zm-14.25-16.55q1.4 1.05 2.35 3.35.8 2.05.9 4.2-1.85.3-7.75.15 1.45-1.45 2.55-3.35.85-2.6-.45-5.45 1.4.4 2.4 1.1"/><path fill="#0086bb" d="M82.85 255.55q4.85 6.9 9.15 11.5-3.65 5.25-11.9 9.5-8.1 4.15-15.7 4.85l-1.95-.65q.55-2.35-1.85-6.45-2.6-4.5-6.8-7.4-4.7-3.25-9.95-4.45-4.6-1.1-6.75-.15-.4-.6-.95-3.55l-.75-3.55 2.55 2q1.85 1.35 2.9 1.65 6.7 1.9 16.15-2.15 10.1-4.35 18.05-13.55 3.35 6 7.8 12.4"/><path fill="#686d70" d="M91.7 266.8q1.7 1.8 9.5 8.7l7.3 6.65q.45 1 .6 4.6.15 3.85-.5 4.45-1.8 2.05-6 13.4l-8.1 23.15-1.5 4.35q-2.45 6.1-7.05 6.35l-7 .25q-6.7.05-6.25-1.1.8-2.1-.05-4.9-.85-2.9-3-5.05-1.4-1.4-3.75-2.3-2-.7-2.4-.5l-6 4.3-1.65-.3q.2-1.55-.8-4.3-.9-2.5-1.9-3.8-1.85-2.4-4.85-2.15-2.25.15-4.1 1.5.2-1.35-1.2-4.05-1.35-2.7-2.55-3.6-1.2-.85-3.4-1l-3.2.35 1.4-1.9q1.55-1.95 2.05-2.15l5.35.35 4.2.45q2.35.15 3.65-.05 3.9-.45 11-4.8 5.85-3.6 7.65-5.5 1.25-1.4 3.25-6.25 1.85-4.45 2.55-7.35l-5.15-1.4q-4.3-1.05-5.4-1.6 7.6-.55 15.95-5.1 8.4-4.55 11.35-9.7"/><path fill="#006b95" d="M83 255.95q4.55 6.35 9 11.1-3.65 5.25-11.9 9.5-8.1 4.15-15.7 4.85l-1.95-.65q.55-2.2-1.65-6.05-2.3-4.25-6.15-7.15-1.55-4.35-1.55-9.5 13.75-4.35 22.2-14.1 3.2 5.8 7.7 12"/><path fill="#515457" d="M91.7 266.8q1.7 1.8 9.5 8.7l7.3 6.65q.45 1 .6 4.6.15 3.85-.5 4.45-2.5 2.8-10.6 26.35-10.8.6-20.45-2.7-10.2-3.5-16.8-10.7l5.4-3.55 3-2.4q1.25-1.4 3.25-6.25 1.85-4.45 2.55-7.35l-5.15-1.4q-4.3-1.05-5.4-1.6 7.6-.55 15.95-5.1 8.4-4.55 11.35-9.7"/><path fill="#eeeeef" d="M177.75 295.55q-5.3-8.5-4.45-11.45.8-2.65 5.75-3.9 5.8-1.5 13.85.5 6.9 1.7 11.95 6.25 4.65 4.15 4.3 7.1 0 .95-3.65 3.2-3.45 2.15-9.25 4.6-.25-.15-.25 0l.05.05q-3.8 1.55-6.75 2.35-3.05.85-3.85.55-2.55-1.05-7.7-9.25"/><path fill="#c8c9ca" d="M198.8 296.25q6.05-5.55 2.05-12.25 3.9 2.4 6.25 5.3 2.3 2.8 2.05 4.75 0 .95-3.65 3.2-3.45 2.15-9.25 4.6-.25-.15-.25 0l.05.05q-3.8 1.55-6.75 2.35-3.05.85-3.85.55l-.05-.05q11.65-6.9 13.4-8.5"/><path fill="#eeeeef" d="M223.2 347.4q2.4.55 3.8 1.85t2.1 3.55q-.05 2.6-5.8 7.85-5.1 4.65-7.35 5.55-.7-1.4-1.65-5.55-1.15-4.8-1.15-7.55 0-.65.35-1.9l.65-1.65q.9-1.2 3.7-1.9zm-24.55 11.15q-8.55 4.6-9.25 3.55-.6-1 .85-7.15 1.45-6.05 2.6-7.75 1.15-1.65 4.4-2.1 3.2-.45 5.45.6 2 .9 3.4 2.6 1.55 1.95 1.35 3.75-.2 1.85-8.8 6.5m-26.25-14.6q1.25-1.35 4.1-1.4 3.05-.05 5.35 1.6 2.05 1.45 3.3 3.6 1.3 2.15.8 3.45t-10.15 3.7q-9.6 2.4-11.2 1.65.15-1.15 3.15-5.95 3-4.85 4.65-6.65"/><path fill="#c8c9ca" d="M229.1 352.8q-.05 2.3-4.7 6.8-3.85 3.75-7.3 5.95 7.3-7.2 9.75-16.45 1.5 1.3 2.25 3.7m-21.65-.75q-.15 1-3.4 3.25-2.8 1.9-6.85 4 5.95-4.8 8.05-11.9 2.5 2.3 2.2 4.65m-21.5-.85q-.45 1.15-8.9 3.35-8.4 2.25-11.65 2.15 9.55-3.7 17.75-11.45 1.55 1.45 2.35 3.15.85 1.75.45 2.8"/><path fill="#515457" d="M112.4 283.25q-15.05-9.2-26.15-23-10.3-12.85-16.15-28.3 3.2 7.7 11.1 15.45 9.15 9.05 21.4 14.8 13.55 6.35 27.55 7.05 15.85.75 30.25-6 1.5 5.5 5.6 11.7 3.7 5.55 7.65 9.15-.25 2 1.65 6.55 1.7 4.2 4.1 8-17.3 1.35-34.7-2.55-17.9-4-32.3-12.85m185.9-83.7.6 9.95q-13.5 26.15-34.05 46.85-13.15 13.25-26.65 21.95l-3.75 1.95q-2.8 1.25-3.8 1.85 3.2-7.85 7.85-17.35l8.65-17.9q10.55-5.1 22.35-17.85 14.45-15.55 27.7-39.45.65 4.3 1.1 10"/><path fill="#006b95" d="M297.2 189.55q7.2-12.95 14-28.35 2.2 3.5 3.05 8.5-5.7 21.2-15.35 39.8l-.6-9.95q-.45-5.7-1.1-10"/><path fill="#515457" d="M314.25 169.7q-.85-5-3.05-8.5 4.55-10.35 8.85-21.8-1.8 15.55-5.8 30.3"/><path fill="#006b95" d="m189.15 24.15 1.05 9.3q.95 10.25.4 15.05-.9 8-2.35 12.8-1.8 6.15-4.85 8.75-2.9 2.5-10.45 3.95-7.35 1.45-13.85.95-10.55-.8-19-6.1-11.4-7.1-17.7-21.5 10.7 11.2 23.15 14.45 11.4 3 21.8-1.2 10.1-4.1 16-13.65 6.2-10 5.8-22.8"/><path fill="#eeeeef" d="M145.85 72q1.3-2.65 6.25-6.9 4.65-4 6.1-4.25 1.8 2 1.9 17.2-.25 2.05-3.55 3.5-3.35 1.45-6.05.55-3.7-1.3-4.95-4.2-1.2-2.8.3-5.9"/><path fill="#80bedd" d="M166 14.8q.5 1.55-1.5 3.85-2.2 2.55-5.85 4-3.5 1.4-6.7.6-3.1-.75-3.8-2.95-.7-2.25 1.15-4.4 2-2.4 6.2-3.45 3.5-.85 6.95.05 3.15.9 3.55 2.3"/><path fill="#515457" d="m182.75 88.55 2.25-2.5 3.25-3.85 2.45-4.1q1.5-3 2.3-5.55l2.45-2.35-.8 5.85q-1.3 7.05-3.75 13.3-2.85 7.25-9 15.55-5.95 7.9-10.55 11-3.85 2.6-7 3.15l-3.25-.2q7.65-2.05 13.7-9.95 6.55-8.6 7.95-20.35"/><path fill="#c8c9ca" d="M154.75 73.15q4.15-5.4 4.35-8.85l1 6.5q.3 1.9.15 4.45-.2 3.05-.95 4.25-.7 1.25-4.05 2.3-3 .95-4.35.75-1.25-.2-2.7-1.35-1.6-1.25-2.6-3 4.35 1.2 9.15-5.05m44.55-7.5q-5.55 6.6-6.3 6.9-.65.25-2.75-1.3t-2.75-2.85q-.6-1.1 7.35-4.6 8.2-3.55 7.75-2.75-1.4 2.45-3.3 4.6M107.55 16.6l3.55 8.2q3.3 8.25 2.35 8.35l-3-.3q-1.9-.45-2.15-1.35-.3-.8-.55-7.95z"/><path fill="#686d70" d="M113.3 197.35q-1.9-3.05-4.4-4.4-2.25-1.15-6.15-1.4l9.35-6.85 8.1-6.15q1.45-1.85 3.25-9.5-.65-3.35-.55-8.1.1-5 1-7.1.55-1.25 6.95-.35 5.9.9 11.85 2.8 5.35 1.75 10.4 5 5 3.2 5.9 5.4-2.9 8.4-12.8 21.45-9.25 12.2-13.45 14.55-1.3.75-7.7 2.55l-11.45 2.95q.9-2.15 1.05-4.45.3-3.65-1.35-6.4"/><path fill="#0d131a" d="M142.5 83q-.1 1.45-1.35 2.2-1.2.7-2.4.2-1.35-.5-1.65-2.05-.3-1.5.7-2.7.1-.15 2.4 1.05z"/><path fill="#fff" d="M140.4 81.7q1 .4.45 1.45-.6.95-1.45.55-.4-.15-.5-.6t.1-.95q.4-.85 1.4-.45"/><path fill="#0d131a" d="M90.65 97.55q.3.05 0 1-.35 1-.65.9l-8.9-.85q-5.9-.3-7.15.05.1 1.25 3.65 6.25 3.55 4.95 7.75 9.7l-.45 1.1q-.55 1-.75.8l-6.85-8.4q-6.5-8.7-5.35-10.4.7-1.1 8.85-.9zm75 24.6 3.85 3.55q2.1 2.05 1.9 2.9-.15.55-3.4 1.45-4.65 1.25-12.15 1.7-9.05.55-11.05-1.35-2.25-1.5-3.5-4.5-1.65-4 .15-8.1l.9-.95h1.8l-.95 1.55q-1.6 3.55-.35 6.95.95 2.65 2.75 3.8l.15.15q1.55 1.7 11.6.85 9.3-.8 11.55-1.95-.45-1.2-3.45-4.2-3.4-3.4-7.4-6.15-1.95-1.4-3.95-2.35l1.45-.95q3.05 1.65 6.55 4.5z"/><path fill="#0d131a" d="M96.5 77.1q.1-.3.4 1.45l.25 2.1q-3.3 12.05-8.05 25.4l-8.35 22.05q-7.3 18.7-10.1 27.55-4.55 14.5-5.8 26.9-3.1 30.5 9.95 57.35 13.1 26.85 38.7 42.55 14.65 8.95 31.25 12.8 16.35 3.8 33.6 2.35l1.8 1.8q-18.3 1.85-35.15-1.65-17.5-3.6-32.5-12.8-26.15-16-39.75-43.05-13.75-27.3-10.6-58.05 1.25-12.45 6.2-27.95 3-9.45 10.5-28.6l9-23.35Q93.2 89.3 96.5 77.1m137.65 100.3q-.45.15-1.2-.85-.8-.95-.4-1.05 17.65-5.25 35.3-17.1 18.3-12.3 39.9-33.9 4.65-4.65 7.05-6.4 2.9-2.15 4.3-1.5 3.3 1.5 2.05 18.25-3 39.5-22.35 77-22.2 43.05-58.25 65.75-5.75 3.65-10.25 6.05l.6-2.55 8.45-5.05q35.3-22.8 57.35-65.25 19.5-37.4 22.45-76.2 1.05-14.25-1.1-15.3-1.8-.8-8.8 6.2-22 22-39.85 34.35t-35.25 17.55m-67.25-47.95q-.1-.3.7-.6l1-.05q4.4 9 7.75 10.9l7.45 3.7q31.95 16.25 39.6 23.6l-1.5.2-2-.3q-7.05-6.8-37.9-22.3l-6.3-3.3q-4.15-2.35-8.8-11.85m-4.6 11q1.75 3.4 3.85 5.05 3.35 2.6 3.45 3.7.15 1.1-3.2-1.5-2.45-1.95-4.85-6.05-2.55-4.25-4.6-10.1-.1-.3.75-.3.9-.05.95.25 2.25 6.25 3.65 8.95"/><path fill="#0d131a" d="M204.5 157.45q10 3.6 17.35 8.25 19.45 12.35 28.65 37.9 1.45 3.95 1.2 4.9-.2.95-1.65-3-9.15-24.5-29.25-37.55-11.35-7.35-34.8-14.45-10.1-3.05-14.95-5.3-6.85-3.15-9.6-7.05-.2-.25-.15-.9t.25-.4q2.5 3.6 10.25 6.9 5.05 2.15 15.7 5.4zm81.05-11.75q4.45-1.65 9.15-1 4.75.7 9 3.7 5.1 3.65 7.85 9.7 2.7 5.85 2.5 12.3l-.7.75q-.75.45-.75.15.2-6.05-2.55-11.95-2.85-6-7.65-9.5-4-2.8-8.4-3.55t-8.45.8q-.25.1-.25-.6t.25-.8m-25.4 18.75q9.25-2.95 17.35-.3 6.3 2.05 11.05 7.05 7.55 7.9 10.05 20.25 2.35 11.45-.75 19.75l-.9 1.05q-.85.7-.75.4 2.95-8 .6-19.95-2.5-12.9-9.75-20.45-4.4-4.6-11.15-6.55-8.25-2.4-17.05.45-.3.05.35-.75.65-.85.95-.95M244.05 212q4.65 11.75 5.55 16.1 1.55 7.9-1 16.9-1.15 3.95-3.65 9.55l-4.85 10.15-6.75 13.55q-3.4 7.35-3.55 11.9-.15 4.2-1 4.6-.85.35-.7-3.8.15-5 3.2-12.6 1.8-4.55 6.5-14.1l4.8-10.05q2.45-5.55 3.55-9.5 2.6-9.05 1.3-17.05-.85-5.6-5.05-16.1-1.4-3.45-.55-3.2.8.2 2.2 3.65m-46.8 90.75q-1.55 7.9-8.65 18.6-5.3 8-8.25 10.65l-5.1 3.15q-4.6 2.85-5.15 3.65-.55.75-1 2.5t-.3 2.55q.5 2 1.1 3.15-.85.7-1.3 1.7-1.05-1.9-1.6-4.3-.3-1.45.35-3.6.55-1.85 1.45-3.3.8-1.3 5.5-3.85 4.7-2.4 5.05-2.75 2.7-2.4 8.95-12.35 7.5-12.05 7-17.05 0-.3 1 .35 1 .6.95.9m-7.75 47.3q.25-.15.65.5.4.6.15.75-1.35.85-5.75 1.2.95-.45 1.45-1.65 2.45-.15 3.5-.8"/><path fill="#0d131a" d="M192.6 281.6q-7.6-1.85-13-.6-4.6 1.05-5.3 3.45-.8 2.75 4.1 10.7 4.75 7.7 7.15 8.65 1.35.5 7.7-1.8 6.55-2.35 11.15-5.15 3.45-2.05 3.45-2.95.3-2.75-4.05-6.55-4.75-4.15-11.2-5.75m-19.7 2.4q1-3.2 6.45-4.65 6.05-1.55 13.8.35 6.95 1.7 12.1 6.35 4.85 4.35 4.5 7.85-.25 1.65-4.2 4.05-4.75 2.85-11.5 5.5-7.4 2.9-9.25 2.2-2.9-1.15-7.8-9.55-5.1-8.75-4.1-12.1m44.3 43.4q.7-3.25 1.6-3.8.9-.6.2 2.65-.5 2.6-1.9 6.7l-2.95 7.75q-.55 1.3-2.05 3.25-1.15 1.4-1.4 2.3-.3 1.45.2 4.05.6 2.8 1.7 4.05l.45.3v1.55l-1.55-.9q-1.35-1.55-2.15-5-.7-3.25-.35-4.9.15-.6 1.8-2.6l2-2.7q3.5-8 4.4-12.7m19.8-41.3q2.25.9 2 5.1-.1 2.1-1.15 6.35-3.1 13.2-3.25 26.4-.05 4.2.85 13.9l.85 9.35q0 2.9-2.4 6.1-1.95 2.6-4.65 4.45-1.3.9-4.35.9l1.9-2.15 1.7-.55q1.7-1.15 3.2-2.9 2.5-2.95 2.7-6l-.4-4.5q-1.05-11.75-1.05-18.75 0-13.45 3.05-26.6.85-3.55.85-6 0-3.4-1.4-3.95-4.35-1.7-5.45-4.75l-.05-.25q0-.25.65-.4.7-.15.75.15.85 2.2 5.65 4.1"/><path fill="#0d131a" d="M210.2 352.3q.2-.25.8.2.55.45.35.7l-1.5 1.5-2.25 1.35-5.3-.55 1.85-1.45 3.25.2q.65-.15 1.6-.9zm-20.6-11.25q.25-.9 3.05-3.45l2.85-2.65 5.05-11.3q.8-1.9 1.9-2.55 1.05-.65.2 1.25l-5.85 13.2-2.75 3.1q-2.6 2.8-2.8 3.45-.65 2.15-.75 4.85-.1 2.6.4 3.8-.2.55-.3 1.85l-.3-.25q-1.3-1.15-1.4-5.2-.05-3.6.7-6.1m26.7-30.25q.3-2.45 1.05-2.35t.4 2.55q-.25 2.2-1.75 4.9-1.25 2.1-2.1 2.2t.35-2.05q1.75-2.95 2.05-5.25m12.05 42.2q0-1.25-1.65-2.9-1.8-1.75-4.1-2.3-2.3-.5-5.2.7-2.65 1.1-3.05 2.25-.25.7-.25 2.1 0 2.8.9 7.15.85 3.9 1.45 5.15 1.85-.7 6.7-5.35 5.05-4.85 5.2-6.7zm1.75-.1q-.15 2.1-4.6 6.65-3.75 3.85-6.9 6.05-1.9 1.3-2.65 1.3-.5 0-.9-.8-.95-1.9-1.85-7.35-1.05-6.1-.25-8.45.6-1.8 3.9-3.15 3.4-1.4 6.1-.75 2.85.65 5 2.65 2.15 1.9 2.15 3.7z"/><path fill="#0d131a" d="M189.85 353.5q1.15-5.1 2.35-6.8 1.4-2.1 5.1-2.4 3.35-.3 6.15.95 2.6 1.15 4 3.25 1.45 2.05.9 3.85-.45 1.7-7.35 5.65-6.5 3.75-9.6 4.5l-2.35.2q-.35-.25-.3-2.35.1-2.4 1.1-6.85m12.55-7.05q-2.3-1-4.9-.75-2.8.3-3.9 1.9t-2.4 6.6q-1.25 4.8-1.25 6.85l.05.35q2.1-.4 9.1-4.4 6.95-4.05 7.4-5.15l.1-.55q0-1.25-1.2-2.65t-3-2.2m-20.75-1.5q-2.35-1.65-5.1-1.65-2.5 0-3.8 1.3-1.7 1.85-4.2 5.9t-2.65 5.2q1.45.65 9.9-1.6 8.1-2.1 9.7-3.15l.05-.2q0-.95-.95-2.55-1.15-1.95-2.95-3.25m-9.95-1.3q1.45-1.6 4.05-1.9 3.3-.4 6.75 2 2.4 1.7 3.9 4.1 1.5 2.5.75 3.75-.65 1-8.5 3.25t-11.3 2.4l-3.05-.2q-.55-.3-.05-1.65.75-2.25 3.75-6.7 2.55-3.85 3.7-5.05m-10.95-82.05q-.35-1-.15-3.65.15-2.8.25-2.15 1.4 9.35 10.1 14.5 8.2 4.9 20.1 4.45 14.55-.55 30.05-9.1 17.35-9.55 26-24.4.15-.25.4 1.15l.05 1.65q-8.8 15.1-26.15 24.35-15.35 8.2-30.35 8.75-10.95.4-18.85-3.45-8.45-4.1-11.45-12.1m69.9 19q.25-.95.05 1.6-.1 2.05-.85 3-2.95 3.85-7.6 7.2-5.35 3.85-11.35 5.8-4.25 1.35-8.75 1.5l2.65-2.05 5.45-1.3q7.7-2.5 13.8-7.4 5.75-4.65 6.6-8.35m-128-4.3q.05-.3.85.25l.85.85-.25 1.25-.7 2.35q-.7 2-1.4 1.9t0-2.1l.55-2.75zM56.3 331.45q-5.65 5.05-6.4 6.65 1.55.9 10.9.2 9.4-.7 10.9-1.85l.2-1.5q0-3.5-3.1-6.6-1.25-1.3-2.7-2-1.4-.7-2.3-.5-1.75.45-7.5 5.6m-3.7 8.85q-5.35-.1-5.1-1.35.5-2.6 7.15-8.4 6.15-5.3 8.9-6.45 1.25-.5 3.15.35 1.85.8 3.5 2.45 2.15 2.15 3.1 5t.15 4.9q-.5 1.3-3.2 1.95l-8 1.1z"/><path fill="#0d131a" d="M102.75 279.45q-.25-.1.05-.8.35-.65.6-.5 1.15.5 3.1 1.7 2.85 1.75 3.3 2.8.7 1.5.75 4.8.05 3.95-1.35 5.6-3 3.3-14.05 35.4l-1.55 4.4q-1.25 3.15-2.5 4.4-1.75 1.85-4.8 2l-6.75.45q-7.1.05-8.75-1.9-.2-.25.85-.7 1-.5 1.1-.2.3.85 6.75.8l6.4-.25q2.4-.15 3.7-1.4 1.1-1.1 2.3-4.05l1.5-4.35q11.2-32.6 14.35-36.15.6-.65.7-3.95.05-3.15-.4-4.1-.25-.65-2.4-2.15-1.8-1.3-2.9-1.85m-27.5 33.25q1.05-1.6 2.05-1.6.95 0-.95 2.55-3.55 5.05-5.95 6-5.3 2.1-6.5 3.1-1.25 1.05-1.3 3.6-.05.3-1 .25-1 0-1-.35.05-3.2 2.1-4.75 1.4-1.05 7.2-3.2 1.5-.6 5.35-5.6m7.45-16q1.2-2 1.85-1.9.6.1-.5 2.15l-1.4 3.25q-.85 2.7-1.65 2.9-.8.15.1-2.5.75-2.4 1.6-3.9m-21.35 12.45q1.4-1.2 2.4-1.2t-1.3 2.1l-3.8 2.55q-2.6 1.45-3.95 1.65l-1.4.05q-5.35 0-6.8.9-.7.45-1.25 1.95-.55 1.6-.5 3.2l-.75.6q-.8.3-.8 0-.1-1.95.65-4.15.75-2.35 1.85-3.05 1.15-.7 3.65-.9l3.95-.05h1.2q1.1-.15 3.35-1.35t3.5-2.3M58.5 328q.3-.05.25.6-.1.7-.4.75l-2.25.35-1.05-.25q-.2-.2.25-.75.4-.55.65-.4z"/><path fill="#0d131a" d="M55.1 327.25q0-2.65-1.75-4.9-2.8-3.7-6.05-3.1-1.05.25-5.65 4.5-4.55 4.3-5.5 5.9 1.8.55 9.7-.1l9.05-1.2zm-7.9-9.45q4.15-.75 7.6 3.7 1.05 1.35 1.6 3.65.55 2.35.1 4-.4.95-10.75 1.75t-11.65.05q-.55-.3.65-2l1.85-2.3q1.35-1.7 4.95-4.95 4.15-3.65 5.65-3.9"/><path fill="#0d131a" d="M36.1 312.15q-1.55.6-5.45 3.25-3.85 2.65-4.75 3.7l8.45.85 8.9-.25q-.15-4.35-3.3-6.55-2.15-1.6-3.85-1m4.75-.2q3.85 2.8 3.7 7.45l-.4 1-.6.85-8.35.25-9.75-.85q-1.45-.4-1.45-1.1.05-.7 1.65-2.3 1.7-1.7 5.35-3.95 3.1-1.9 4.6-2.5l2.55-.1q1.4.3 2.7 1.25"/><path fill="#0d131a" d="m74.25 283.55 1 .15.85.2q-.25 2.15-2.55 7.35-2.3 5.4-3.75 7-1.9 2.05-7.7 5.8-7.2 4.65-11.05 5.1-1.3.2-3.65.05l-4.2-.45-5.35-.35q-.9.4-2.2 2.05-1.15 1.45-1.55 2.4-.15.25-.8 0-.7-.3-.55-.6.6-1.35 1.7-2.9 1.5-2.15 2.7-2.65l2.2-.15 3.85.4 4.15.6 3.5.15q3.5-.4 10.45-4.9 5.8-3.75 7.4-5.55 1.65-1.85 3.45-6.6 1.65-4.2 2.1-7.1m-11.4-88.7q.25-.2.65 1.4.45 1.65.2 1.85-12.7 13.8-20.95 31.45-8.25 17.6-6.6 27.35.5 2.55 2.3 5.25-.7.7-1.05 1.55-2.55-3.7-3-6.7-1.7-10.1 6.95-29.05 8.7-19.2 21.5-33.1"/><path fill="#0d131a" d="M90.25 282.7q2.75-.6 3.35.05.65.65-2.05 1.25-7.25 1.55-15.05.9-7.95-.65-15.55-3.55 1-.5 1.6-1.6 14.6 5.8 27.7 2.95m81.15-92.2q2.3-.95 2.25-.25-.1.7-2.35 1.85-1.95 1.05-5 4.7-3 3.5-3.55 5.2-.8 2.35-1.5 2.15-.7-.25.1-2.6 1.2-3.6 3.95-6.6 2.8-3.05 6.1-4.45m-97.05 51.85q.25-.3.7.65.45.9.15 1.3-7.95 9.05-18.2 13.25-9.5 3.85-16.2 1.9-2.6-.75-4.25-2.45t-1.9-4q-.05-.3.45-.5l.55.05q.4 3.65 5.65 5.2 6.4 1.85 15.5-2.1 9.85-4.25 17.55-13.3"/><path fill="#0d131a" d="M91.15 265.65q.15-.25.8.25t.55.75Q89.9 272.6 81.45 277q-8 4.2-16.8 4.8-.3.05-.7-.65-.4-.65-.1-.65 8-.6 15.9-4.85 8-4.35 11.4-10m-53-.25q0 3.65 1 10.3.95 6.55 1.65 7.8 1.65.6 10.75-1.05t10-2.75l.05-.45q0-1.75-2.3-5.15-2.7-4-6.55-6.65-5.15-3.55-9.85-4.45l-4.45.2q-.3.45-.3 2.2m1.3 19.8q-1.05-1.2-2.2-11.05-1.2-10.2.05-11.85t6-.7q5.3 1.05 10.8 4.8 4.55 3.15 7.5 7.75 2.8 4.45 1.8 6.4-.8 1.55-8.6 3l-7.8 1.2-5.8.6zm45.75-.4q-.35-.05-.45-.65-.15-.6.15-.55l5 .75q2.5.75 2 1.4l-2.8-.15q-1.85-.65-3.9-.8m34.7-104.7-10.75 7.95q-11.55 8.65-15.7 12.3-2.6 2.3-5.9 3.55l-5 1.25-1.9.45q-1.25.4-3.05 4-1.65 3.25-1.65 4.25.15 1.1 1 4.3.95 3.4 1.35 3.9.65.85 3.35 2.25 2.75 1.4 3.35 1.1.25-.1.7.65t.2.9q-1.25.8-4.8-1.1-3.05-1.7-3.95-2.85-.6-.8-1.65-4.6l-1-4.4q-.1-1.4 1.6-5.1 1.9-4.2 3.75-4.8l2.05-.45q3.25-.6 4.9-1.2 3.3-1.1 5.65-3.2 9.1-7.95 15.3-12.6 2.2-1.65 6.5-4.6l4.15-3.05q1.35-1.3 3.05-5.8l2.75-8.45q1.65-5.45 2.35-7.1 1.15-2.5 1.8-2.2.7.3-.45 2.8l-1.1 3.3-1.3 4.35-2.65 8.5q-1.45 4.25-2.95 5.7"/><path fill="#0d131a" d="M81.75 213.85q-.15-2.45.55-1.7t1.1 3.25q1.6 8.5 2.3 9.6l2.45 1.85q2.1 1.25 2.75 1.25.8-.05 2.75-1.5l1.15 1.45q-2.2 1.7-3.8 1.75-1 .05-3.5-1.55-2.45-1.55-3.05-2.45-.55-.85-1.6-5.65-1-4.65-1.1-6.3"/><path fill="#0d131a" d="M82.2 216.9q.1-.25.75-.15.7.1.7.35l-.4 1.25-.4.75.7.7q.2.25.2 1.25-.05 1-.25.75l-2.1-2.05q-.4-.4-.15-.9zm20.6 5.25q2.25-.3 2.95.55.85 1-.9 3.5l-2.65 2.75q-1.95 1.5-3.4 1.5-1 0-4.3-2.05-3.1-2-3.6-2.7-.45-.6-1.2-6.4l-.75-6.6q-.15-2.4.65-1.25.8 1.1.95 3.5.1 1.85.7 5.45.6 3.7.9 4.4l3.25 2.3q2.8 1.8 3.45 1.85.9 0 2.3-1.05l2.5-2.55.8-1.15.15-.7q-.2-.25-1.7 0-1.45.3-2.75.75-.3.1-.55-.6t.05-.8z"/><path fill="#0d131a" d="M97.95 222.65q-1.25-.85-.8-1.4t1.7.25l1.75 2.1q.8 1.3.4 1.8t-1.2-.85z"/><path fill="#0d131a" d="M156.8 169.35q2.05-4.05 2.35-3 .35 1-1.55 5-4.05 8.3-11.3 18.3-7.7 10.6-12.1 13.3-3.6 2.15-14.8 4.85l-8.4 2.05q-4.6 1.25-7.05 2.75l-1.75 5.25q-1.4 3.65-2.8 5.05-.2.25-.8-.2-.6-.4-.4-.65.95-1.15 2.65-5.8 1.55-4.45 1.85-4.65 4.45-2.7 16.05-5.5l7.55-1.95q3.8-1.2 5.9-2.45 4.25-2.6 12.9-14.2 8.1-10.9 11.7-18.15"/><path fill="#0d131a" d="M93.7 200.05q-.3 0 .05-.7.3-.7.6-.7 5.45.1 8.4 3.85 2.85 3.6 1.7 9.05-.1.4-.8.45t-.65-.35q1.05-4.65-1.75-8.3-2.55-3.15-7.55-3.3m10.45-9.15q7.25.2 10.15 6.1 2.6 5.35.3 11.2l-1 .1q-.9-.15-.8-.45 1.25-3.15.9-6.3-.35-3.1-2.25-5.55-1.5-1.95-3.85-2.95t-4.7-.7q-.3.05.35-.7zm-27.2-56.95q.3-.35.35 1.05 0 1.45-.65 2.2-13.15 14.8-17.5 15.75l-8.35 1.35q-18.25 2.6-25.25 5.35l-3.3-.25q-3.45-.25-4.1-.05l-4.2 3.7-3.8 3.5L5.7 170l-3.1 2.3q-.65 1.05-.95 4.1-.25 2.5-.1 3.3l.65 1.1.9.95h.65l.8-.3q.25-.15.5.5.25.6 0 .75-1.75.95-2.55.55l-1.4-1.45q-.95-1.2-1-1.9-.2-1.05-.05-3.6.2-3.4 1.05-4.75l3.5-2.6 4.55-3.45 4.05-3.85q4.1-3.85 4.55-4l7.45.6q9.5-3.05 24.6-5.6l5.05-.65 4-.5q2-.4 7.6-6.05 4.55-4.55 10.5-11.5"/><path fill="#0d131a" d="M12.1 166.75q1-1.95 1.35-1.2.35.8-.75 2.7l-1.7 2-2.5 2.1-2.35 2.15q-.35.6-.6 4.2-.25 3.55-.05 4.3.3.6 2.35 2.2l2.55 1.8h.85l1.7-.65q.3-.15.25.6-.1.7-.35.85-1.95 1.05-3 .55L7 186.4q-2.4-1.85-2.85-2.85-.35-.85-.2-4.7.1-4.05.7-4.9.1-.15 2.7-2.4L10 169.4q1.4-1.25 2.1-2.65"/><path fill="#0d131a" d="M15.75 176.9q.2-.2.45.5.25.75.1.85l-4.4 3.05-.4 1.9q.9.65 3.05 1.35.25.1 0 .75-.2.7-.5.6-2.55-.85-3.4-1.7-.45-.45-.4-1.8.05-1.25.35-1.8l2.35-1.8z"/><path fill="#0d131a" d="M26.05 172.7q3.9-1.2 13.4-.65l14.7 1.45 5 .5q1.1-.2 3.3-1.15 2.15-.95 2.85-1.5.25-.2.25.8l-.2 1.25q-.85.7-2.85 1.5l-3.25 1-5.4-.5-14.15-1.65q-9.2-.75-12.95.3-1 1.3-1.5 3.6l-.55 3.6q-.4 2.2-.75 2.65-.45.6-3.55 2.35l-5.5 2.8q-2 .9-2.7.2-.6-.65.15-2.1 1.7-3.3 3.15-4.95l.1-6.2q0-1.5.65-.9.6.6.75 2.15l-.1 5.45q-3.65 4.8-3.5 5.35 1.3-.2 4.9-2.45 3.55-2.15 4.15-3l.45-2q.45-2.5.85-3.75.75-2.4 1.95-3.9z"/><path fill="#0d131a" d="M24.5 159.25q.2-.2 1-.3l.65.15q-1.45 1.8-2.05 4.45-.6 2.7 0 4.9 1 3.2 3.65 4.1.3.1-.3.5l-.95.35q-1.6-.6-2.45-1.65-.75-.95-1.35-2.9-1.6-5.45 1.8-9.6m12.05-3.35 1.45-.2q1.1.1.8.3-2.15 1.35-3.35 3.65-1.2 2.25-1.25 5.1 0 2.25 1 4.6.95 2.25 2.2 3.05.25.15-.85.3l-1.35-.05q-2.8-2.75-2.75-7.35.05-2.65 1.15-5.25 1.15-2.55 2.95-4.15m54.4-57.2q.15-1.15 1.3-3.6 1.25-2.55 1.1-1.95-2.1 8-.2 14.65 1.95 6.65 7.4 10.35 6.45 4.4 15.25 3.55t16.7-6.6q.25-.15 1.1.35.85.45.6.65-8.35 6.05-17.9 7.2-9.7 1.1-16.45-3.45-4.9-3.3-7.2-8.85-2.3-5.5-1.7-12.3"/><path fill="#0d131a" d="M124.7 145.35q16.35-2.7 27.7-14.8l1.55.1q1.3.35 1.05.55-11.75 12.5-29.45 15.6-16.1 2.8-28.15-3.1-7.65-3.75-11.35-10.35-3.65-6.5-2.8-14.55.05-.4.85-1.35l.8-.6q-1.3 8 2.25 14.7T98.3 142q11.7 5.75 26.4 3.35m-1.7 9.15q.4-2.3.95-1.25.5 1.05.3 3.5l-.5 5.15q-.2 3.3.25 5.9l-.65 1.5-.75.85q-.5-3.45-.3-8.45.2-4.35.7-7.2m40.75-42q-.55-.8-.1-1.1t1.05.5q1.1 1.45 1.1 2.35 0 1.45-.75 1.35-.7-.15-.8-1.6 0-.9-.5-1.5m-61.3-20.85q-7.15-10.1-9.55-21.6-.1-.45 1.05.2 1.15.7 1.25 1.1 2.65 10.65 9.7 20.2 7.05 9.5 17.85 16.9 8.85 6.1 17.5 7.75 7.6 1.45 12.4-.85 3.35-1.55 3.6-4.3 0-.3.25-.5t.55-.15q.75.1.65.8-.35 3.8-3.85 5.45-5.15 2.45-13.85 1-9.85-1.7-19-7.95-11.3-7.8-18.55-18.05m4.7-68.6q-7.2 9.4-10.6 19.4l-2.3-.45q3.3-9.35 12.9-21.4.2-.25.2 1 0 1.2-.2 1.45"/><path fill="#0d131a" d="m110.3 84.5 4.25-4.05q4.2-3.7 5.6-3.35 1.45.35 2.6 7.85 1.1 6.8.8 10.05 1.55 4.65 7.2 11.65 6.75 8.45 12.6 10.25l-.65.55-1.25.35q-6.15-1.9-12.45-10.3-5.05-6.7-6.9-12.15l-.15-5.95q-.55-6.7-2.3-10.8-1 .35-3.9 2.8l-5.7 5.4q-1.2 1.25-1.05.1t1.3-2.4"/><path fill="#0d131a" d="M195.15 70.4q.05-.35.85-.85t.75-.2q-2.4 19.2-12.6 34.3-10.1 14.95-21.45 16.5-.65.05-1.6-.65l-1.15-1.25q-1.3-3.55-4-7.5-2.75-4.1-4.8-5.4-6.15-.45-14.75-4.15-9.1-3.9-14-8.65-.15-.15 0-1 .1-.85.3-.7 4.65 4.55 14 8.45 8.65 3.6 14.55 3.95l.35.1q2.55 1.5 5.9 6.6 3.25 4.9 4.35 8.65 8.75.5 19.55-14.55 11.15-15.55 13.75-33.65M132.9 8.05q.35 0 .05 1-.3 1.05-.6 1l-8.85.5q-5.4.65-7.3 1.7-1.95 1.05-3.95 4.3l-1-1.1q2.1-3.3 4.2-4.5 2.2-1.2 7.95-2.1z"/><path fill="#0d131a" d="m192.25 71.7.85.15.85.05q-2.8 10.95-10.6 17.4-1.75 1.45-8.15 1.4-6.75 0-14.95-1.65-13.15-2.6-23.8-8.6-15.5-8.7-23.3-23.45-8.2-15.5-6.2-29.55.15 2.55 1 4.5-.15 11.35 6.25 23.55 7.6 14.45 22.7 23.05 10.45 6 23.15 8.5 8.1 1.65 15.05 1.5 5.9-.15 7.2-1.25 7.2-6 9.95-15.6m-1.55-32.1q-.2-.55.1-2.15.25-1.6.35-1.25 4 10.7 4.3 21.95h-1.5q-.2-9.2-3.25-18.55"/><path fill="#0d131a" d="M184.85 9.95q2.15 1.95 4.05 9.2 1.9 7.3 2.55 16.25 1.65 22.55-5.5 32.9-2.8 4.15-10.15 6.15-7 1.95-15.5 1.3l-.4-2.05q8.25.55 15.2-1.25 7-1.8 9.25-5.1 6.6-9.55 5.1-31.7-.55-8.7-2.3-15.8-1.7-7-3.55-8.75-2.65-2.4-12.95-3.15-10.8-.75-21.7 1.05-9.9 1.65-17 5.25-6.55 3.3-8.7 7.2-2.65 4.95-2.9 11.05T122.3 45q2.9 8.4 9 15.2 6.1 6.75 13.7 10.1l1.1.45-.95 1.4-.35-.15q-8.05-3.5-14.55-10.5-6.75-7.2-9.65-15.75-2.35-6.9-2.25-13.45.1-6.85 2.9-12 2.65-4.9 12-8.9 7.4-3.15 15.3-4.5Q159 5.15 170.3 6.1q11.4.95 14.55 3.85M99.55 73.3q3.45.5 7.25-3.35 4-4.05 4.5-9.4l.1-1.8q0-4.85-2.1-8.85-2.25-4.3-6-5.5-6.2-1.45-22.5-2.5-15.85-1-16.55-.25-.7.7 15.5 15.7Q96.2 72.5 99.55 73.3M85.2 40.75q13.15 1 18.45 2.25h.05q4.7 1.45 7.4 6.95 2.45 5.05 1.95 10.7-.75 7.55-5.55 11.75-4.3 3.75-8.6 2.6-3.75-1.05-17.7-13.85-10.7-9.8-14.65-14.1-4.55-4.7-4.3-6 .2-1.25 5.45-1.1h1.75z"/><path fill="#0d131a" d="m204.1 38.8 9.25-.25q5.4.05 5.8 1.25.3.75-2 4.3-2.35 3.55-6.2 8.1-4.55 5.45-6.8 6.75-.25.15-.85-.45-.55-.65-.3-.8 1.7-1 6.35-6.65l6.2-8q1.65-2.15 1.45-2.5-.2-.5-3.65-.5l-9.15.4-12.25 1.3q-.3.05-.4-.85t.2-.95z"/><path fill="#0d131a" d="m187.8 61 .7-1.95q3.05-1.15 9.15-1.55 5.45-.35 6.9.05.7.2.7.9.05 1.6-5.3 8-5.2 6.2-6.55 6.65-.9.3-2.85-.6-1.45-.75-2.7-2.05-1.45-1.5-1.9-3.05l-.1-.2 1-2.65q.05 1.1.5 2.4.35 1.25 1.55 2.5 1.05 1.1 2.3 1.7 1 .55 1.45.4 1.05-.5 5.35-5.55 4.4-5.15 5.15-6.85-2.6-.3-8.1.2-6.25.55-7.25 1.65m-30 .9q-1.45.2-5.6 3.8-4.45 3.85-5.75 6.55-.7 1.3-.7 3.1 0 1.3.5 2.5.95 2.45 3.95 3.5l3.45.3q1.9-.25 3.35-1.1 1.85-1.1 2.1-2.95l.2-3.45q0-3.55-.5-7.55-.5-3.9-1-4.7m-12.7 9.7q1.5-3 6.6-7.5 5.2-4.55 6.9-4.05 1.5.45 2.2 7.85.65 6.7.15 9.95-.3 2.4-2.8 3.9-1.7 1.1-4.15 1.35l-4.3-.4q-3.55-1.2-4.85-4.3-.7-1.75-.55-3.7.15-1.7.8-3.1m-2.5-62.75q.25.5-.45.7t-.95-.25l-2.55-4.2q-1.7-2.5-2.4-3-.8 1-2.05 4.85-1.35 4.2-1.4 6.6 0 .3-.75.3t-.75-.3q.05-2.95 1.55-7.85Q134.4.5 135.7.05q1.2-.4 3.6 3.15 1.65 2.35 3.3 5.65M108 17.7v3.55l.15 4.2q.2 4.05.65 5.65.9 1.35 2.8 1.6l3.45-.35q1.9-.7 3.15-2.1 1.45-1.65 1.45-3.85 0-1.1-3.2-4.7l-4.55-4.55q-2.4-2.05-3.15-1.95-.75.05-.75 2.5m-1.35 6.15-.1-5.25q-.15-5.25 1.5-5.5 1.2-.15 4.8 2.9l4.15 4.05q3.05 3.3 4 5.25l.05.15-.6 2.2-.35 2.3q-1.8 2.8-4.6 3.75l-4.65.35q-2.25-.5-3.35-2.25l-.1-.2q-.55-2.05-.75-7.75m21.25 49.8q.1-.3.8-.15.75.1.65.4-1.05 5.8 1.3 10.35 2.1 4 5.95 5.7 3.4 1.5 7 .6 4.3-1 7.5-5.25.2-.2.75.3.6.5.4.7-3.6 4.75-8.4 6-4.15 1.1-7.95-.6-4.25-1.85-6.55-6.5-2.6-5.2-1.45-11.55m6.9 25.7.55-.2.5.25q2.15 2.35 2.35 6.9.25 4.5-1.65 7.3-.4.6-1 .2-.65-.45-.2-1.05 1.55-2.35 1.35-6.4-.2-4-1.95-5.95l-.2-.55q.05-.3.25-.5m66.6 208.5q1.25 3.25.8 3.6-.5.3-1.8-2.9-1.05-2.4-5.15-6l1.7-.8q3.3 2.95 4.45 6.1m-42.15-41.6q-3.3-15.05.55-34.8 3.65-18.45 11.75-33.05 2.4-4.35 2.7-3.5.25.85-2 5.4-6.95 14.05-9.9 32.5-3 18.8-.2 32.15 1.75 8.6 11.55 17.95l-.55 1.95q-5.75-5.15-8.8-8.9-4.05-5.1-5.1-9.7M182.1 89.1q.05-.3.8-.5l.75.1q-.45 4.4-2.3 9.4-1.95 5.35-4.5 8.7-1.15 1.55-1.45 1.35-.35-.2.65-1.8 2.2-3.6 3.95-8.7 1.7-4.85 2.1-8.55"/></svg>