<svg xmlns="http://www.w3.org/2000/svg" width="159" height="190" viewBox="-0.15 -0.35 159 190.05"><path fill="#fbd375" d="M122.75 86.95q6.5.25 9.1-1.1 2-1.05 1.55-2.95 4.9 2.65 10.85 2.15 4.5-.35 7.95-2.25 1.4-.75 2.25-.2.8.55.95 2.2 1.15 12.1-4.9 22.8 5.6 10.15 5.95 23.1.2 6.15-1.35 17.2-.45 3.05-2.25 4.85-1.6 1.5-5.05 2.7l-8.45.6q-2.4-.2-4.05-2.3-1.4-1.85-1.5-3.9l-.5-11.5q-1.65 2.55-4.6 5.75 1.1 7-.1 17.15l-2.05 12.9q-.7 3.75-2 5.5-1.15 1.55-3.9 2.95-3.8 1.95-13.25 2.9l-9.65-6.65q-1.1-5.35-.7-12.7.3-5.5 1.3-10.3-6.1 1.05-12.1.1-4.75 2.95-12.45 3.95l-12.65.6.3-1.3 1.7-1.3 1.65-1.75q4.35.05 7.5-2.9 2.25-2.15 2.55-3.8 24.85-8.15 36.95-28.05 8.25-13.65 10.95-34.45"/><path fill="#fbd375" d="m34.8 179.7-7.5-9.55q-.5-2.65-.1-6.55.4-3.7 1.4-6.95 5.8 5.85 17.7 5.4 8.65-.35 15.45-3.15-.85 2.7-3.7 8.75l-4.15 8.1q-1.2 1.9-2.95 2.75l-3.15 1-5.55.5z"/><path fill="#71706d" d="M94.65 8.7q9.15 6.9 16.1 19.3 6.55 11.75 9.95 26.1 3.3 14.3 2.7 27.8-1.2 26.4-15.25 44.1-12.25 15.45-33.1 23.05-1.5 3.6-4.95 5.6-2.65 1.55-5.35 1.7-2.55 3.6-9.9 5.15l-14.25.55q-6.75-.75-11.2-4.65-4.25-3.7-4.05-8.1-3.45-1.15-5.05-4.05-1.25-2.25-1.25-5.35-5.3-5.3-8.25-13-2.8-7.2-3.1-15.55v-22.8q1.75-36.4 22.05-62.2 9.2-11.7 20.55-18.25 11.45-6.65 23.1-6.8 11.25-.15 21.25 7.4"/><path fill="#fff" d="M16.35 116q2.5 1.45 13.45 4.25 1.35 2.95.65 6.3-.75 3.85-3.9 5.4-1.75.85-3.65.6-2.55-.35-4.9-2.65-2.6-2.5-3-6.65-.45-4 1.35-7.25m45 5.8q4.7-.05 12.4-1.45 6.8-1.2 12.4-2.75 3.5 5.8 1.15 11.9-2.15 5.65-7.5 8.1-2.55 1.15-6.1 1-4.75-.15-7.9-3.05-3.35-3-4.3-6.55-.75-2.8-.15-7.2"/><path fill="#dbdcdc" d="M110.25 95.15q2.45 3.7.9 8.1-1.5 4.25-5.9 6.8-6.85 4-20.1 7.75-18.35 5.2-35.25 4.85Q19.3 122 5.6 109.5.65 105 1.1 96.95q.5-8.4 6.9-11.75-.5 4.45.65 7.2.9 2.2 3.15 3.85 6.95 4.9 14.3 6.9 8.95 2.45 22.35 1.95 12.85-.45 26.95-4.3 10.95-3 18.7-6.8 6.15-3.05 9.9-2.8 3.8.25 6.25 3.95M49.4 129q11.65 1.95 19.5 8.85 7.35 6.5 5.7 11.85-.8 2.5-3.5 4.5-3.05 2.35-6.3 1.95 1.2-4.8-6.4-8.95-6.25-3.45-13.35-4.4l-11.65.45q-6.55 1.5-8.05 5.8-3.15-.7-4.75-3-1.2-1.8-1.3-4.05-.3-7.4 9.75-11.25 9.4-3.6 20.35-1.75m74.1-54.3q3.4 1.3 6.55 3.9 3.8 3.2 3.25 5.55-.5 1.95-4.25 2.6l-6.3.2q.75-8.15.75-12.25m-89.8 89.5q.6 2.2 1.1 6.45.45 4.45.3 7.3-.1 2.25-2.3 3.15l-3 .5-3.4-.1q-2.1-.4-1.45-2.75.8-3.1 2.55-7.65 1.8-4.7 3.2-7.2.9-1.6 1.75-1.5.75.1 1.25 1.8m68.55.55q1.15-.2 2 1.65 2.6 5.6 3.35 16.1.3 3-1.15 4.1l-2.55 1.15-3.35.65q-3.2.3-3.4-3.3-.25-4.35.85-9.9.9-4.55 2.25-8.1.8-2.2 2-2.35"/><path fill="#fbd375" d="M63.15 132.45q1.45 2.15 2.95 3.2-13.8-8.6-28.05-6.95-7.1.8-11.5 3.35 3.6-2.4 3.95-7.15l-.45-4.45q8.5 2.7 20.55 2.35l10.35-.9q-.65 6.1 2.2 10.55"/><path fill="#bebeba" d="M41.05 45.1q3.6-3.3 6.65-1.95 2.65 1.15 2.6 6.7-.05 4.9-1.9 9.4-2.4 6-5.95 8.85-3.2 2.6-5.7 1.55-2.85-1.25-3.1-6.05-.25-4.6 1.9-10.1 2.1-5.35 5.5-8.4"/><path fill="#595754" d="M117.7 75.75q2.55-13.4 1.55-27.75 4.15 12.7 4.35 27.4.25 15.95-4.3 30.05Q108.25 139.7 75 149.7q.9-5.9-7.6-13.15 4.75 2.2 8.85 1.9 3.65-.25 6.4-2.5 4.05-3.3 5.15-7.8 1.3-5.2-1.75-10.8 7.3-1.8 13.5-4.55 6.3-2.75 8.75-5.3t3.05-5.8q.6-3.15-.8-5.85 4.75-7.25 7.15-20.1M48.1 162.4q-14.35 1-21.4-8.2 7.4 3.9 20.35 2.45 13.45-1.5 14.4-7.5 5.35 4.6 3.05 7.45-1.6 1.95-6.1 3.65-4.85 1.8-10.3 2.15"/><path fill="#d9b766" d="m74.05 160-12.8.8-.25-1.3q2.15-1 3.85-3.2 8.75-.9 9.75-6.85 20.45-7.55 32.8-21.65-3.65 5.65-6.1 14.85-1.35 5.05-2.95 13.2-6.05 1.3-12.4.2Q81.4 159 74.05 160"/><path fill="#d9b766" d="M34.85 172q-.15-4.35-1.35-8.2-.4-1.3-1.2-1.25-.65.1-1.4 1-1.45 1.9-3.5 6.4-.55-2.3 0-6.95.55-4.25 1.35-6.2 6.6 5.9 17.7 5.7 8.85-.2 15.25-3.45-5.25 14.3-9.7 19.15-2.9-1.9-7.5-3.65-5.25-2-9.65-2.55m72.65 9.15q6.85-1.05 13.35-9.85 8.2-11.1 7.85-27.15 1.6 8.45-2.35 30.35-.65 3.25-1.45 4.7-1.2 2.1-4 3.3-3.05 1.25-7.05 2.15l-6.5.9q.35-1.75.15-4.4"/><path fill="#d9b766" d="M126.2 135.35q4.85-1.95 7.9-5.85 2.7-3.4 5.1-9.9-.15 2.2-1.05 6.2 1 4.8 6.2 7.85 5.7 3.3 12.1 1.45l-1 10.1q-.8 5.15-1.65 6.35-.9 1.3-2.6 2.4-1.75 1.15-3.25 1.35-.55-3.7-1.75-8.1-1.05-3.85-1.85-5.6-.4-1-.9-1.15-.6-.2-1.05.9-1.2 2.8-2.15 7t-1.05 7.45q-1.95-.3-3.35-1.35-2.05-1.5-1.95-4.2l-.2-6.2-.35-5.6q-2.1 3.8-4.65 5.7-.6-4.55-2.5-8.8m29.2-49.2q1.15 11-4.9 21.1-4.45-7.15-6.25-9.15 3.95-.45 6.75-3.1 3.3-3.1 4.4-8.85"/><path fill="#b4b4b5" d="M43.6 122.4q-17.4-1.05-29.05-6.8Q.1 108.5 1.1 96.65q2.8 9.05 13.6 14.4 10.85 5.35 29.4 6.75 16.35 1.25 34.6-3.15 13.45-3.25 21.6-7.55 5.35-2.85 7.1-7 1.6-3.85-.2-7.95 4.3 3.35 4.45 7.9.2 6.25-8.8 11.4-10 5.7-27.45 8.85-17 3.05-31.8 2.1m31.05 25.4q-.1 2.85-1.85 4.75-1.6 1.85-4.1 2.9-2.2.95-3.85.85.45-1.85-.2-3.4-.75-1.8-3.2-3.75 2.85 1.3 6.75-.8 3.85-2 5-5.15 1.6 1.7 1.45 4.6M27.7 170.05l2.7-6q.85-1.7 1.85-1.45.85.25 1.3 1.75 1.05 3.55 1.35 9.35.25 5.15-.15 6.1-.6 1.45-5.15 1.9.2-2.9-.35-6.25-.55-3.05-1.55-5.4m77.2-1.25q1.75 4.4 2.35 10.6.45 4.95.1 6.15-.15.55-1.85 1.45l-3.3 1.35q2.3-2.5 2.8-8.1.4-4.05-.1-11.45m37.1-26.55q.8-2.25 1.55-1.95.5.2 1.35 2.1 1.05 2.35 2.1 7.1 1.1 4.9.8 6.05t-1.6 2.05q-1.2.9-2.35 1-1.3.1-2.85-.8-1.8-1.05-1.8-2.4 0-1.6.9-5.9.95-4.55 1.9-7.25"/><path fill="#0d131a" d="M102.55 165.6q-.5-.1-1.2 1.2-1.8 3.45-2.8 11.5-1 7.7-.15 8.8.5.7 3.85-.05 3.35-.7 4.3-1.85.65-.85-.25-7.5-.95-7.05-2.5-10.45-.7-1.55-1.25-1.65m0-1.8q1.2.05 2.4 2.55 1.85 3.65 2.85 11.3 1.05 7.55-.05 9-1.5 1.9-7.8 2.7-2.6.35-3.2-.35-.55-.7-.55-3.95 0-4.1 1.15-10 1.2-6.45 2.8-9.15 1.25-2.2 2.4-2.1"/><path fill="#0d131a" d="m97.85 177.95-.7 5.6q-1.85-6.85-1.05-17.35.75-9.45 3.1-16.85.5-1.55.9-1.35.45.2.1 1.8-1.3 5.95-2 13.65-.7 8.15-.35 14.5m-23.05-38.8q-7.55-.05-11.65-5.25-4-5.05-2.5-12h1.45q-1.25 5.55 2 10.45 3.6 5.45 10.55 5.45 7.95 0 11.4-7.3 3.4-7.15-1-13.2l1.65-.15q4.3 6.85.75 14.3-3.65 7.75-12.65 7.7"/><path fill="#0d131a" d="M79.95 132q-2.5 2.45-6 2.45T68 132t-2.45-5.95q0-2.35 1.2-4.35l6.05-1.25 6-1.3q1.65 1.15 2.65 2.95.95 1.85.95 3.95 0 3.5-2.45 5.95"/><path fill="#fff" d="M76.3 124.35q0 1.1-.8 1.9t-1.9.8q-1.15 0-1.95-.8t-.8-1.9.8-1.9 1.95-.8q1.1 0 1.9.8t.8 1.9"/><path fill="#0d131a" d="m29.2 120.05.9 2.45q.65 2.95-.4 5.35t-3.2 2.85q-2.1.45-4.05-1.3t-2.6-4.7q-.4-1.95-.05-3.7.3-1.75 1.25-2.95l4.1 1.15z"/><path fill="#fff" d="M26.75 122.35q.25.9-.15 1.65t-1.15.9q-.75.2-1.4-.35-.65-.5-.85-1.4t.2-1.65 1.1-.9q.75-.2 1.4.35.65.5.85 1.4"/><path fill="#0d131a" d="m6.75 110.95 1.95 1.15q2.25 17 10.9 27.2l-.7 2.45q-10-11.45-12.15-30.8M94.45 9.7q-9.1-7-18.95-7.3-24.7-.8-43.8 22.9Q12.4 49.2 8.6 86.2l-.35 3.95-.45-2.5-.1-2.25-.8.1q3.3-36.45 23-61.25 9.45-11.85 20.9-18.1Q62.75-.35 75.4.05q10.4.3 19.9 7.45 8.85 6.65 15.7 18.3 6.65 11.25 10.2 24.9 3.6 13.8 3.3 27.2-.75 33.1-19.05 53.25-12.15 13.35-30.5 19.65l.25-2.3q16.9-5.75 28.45-18.4 17.8-19.5 18.8-51.7.4-13.05-3.05-26.55-3.4-13.3-9.85-24.3-6.6-11.35-15.1-17.85"/><path fill="#0d131a" d="m99.5 91.4-2 .85q5.1-27.4-6.3-46.9-5-8.5-12.25-13.55Q71.8 26.9 64 26.3q-9.05-.7-18.05 4.2-9.05 4.9-16.1 14.4-16 21.45-14.9 53.5l-1.8-1.15Q12.4 64.95 28.8 43.1q7.35-9.7 16.6-14.75 9.35-5.05 18.85-4.3 8.55.65 16.1 5.95Q87.9 35.35 93 44.3q11.45 20 6.5 47.1"/><path fill="#0d131a" d="M106.95 93.1q-4.1-2.8-10.05.4-20.9 11.2-47.1 12.25-24.9.95-36.8-7.45-3.65-2.55-5.05-6.35Q6.85 89 7.25 86q-5.45 4.3-5.4 12.25Q1.9 108 13 113.65q16.95 8.65 41.4 7.9 24-.8 46.55-10.3 4.25-1.8 6.8-4.5 2.5-2.7 2.65-5.65.3-5.4-3.45-8M96.3 91.95q7-3.6 11.9-.4 4.55 2.95 4.3 9.2-.35 7.55-10.85 12.2-22.1 9.85-47.8 10.55-25.65.65-42.1-8.2Q-.15 108.9 0 98.15q.05-4.4 2.3-8.35 2.15-3.75 5.6-5.8l.7.45q-.3 4.3.75 7.1 1.2 3.15 4.5 5.5 11.5 8.1 35.75 7 25.4-1.2 46.7-12.1"/><path fill="#0d131a" d="M29.15 120.15q.75-.2 1.5.3 1.15 4.85-.45 8.4t-5.45 4.35q-5.5 1.1-8.85-5-3.45-6.15-.35-12 .4.6 1.25.85-2.4 4.8.4 10.25 2.8 5.6 7.5 4.55 3.35-.7 4.5-4.35 1.05-3.25-.05-7.35"/><path fill="#0d131a" d="M73.9 148.25q.4-5.6-8.1-11.65-9.4-6.65-21.8-7.2-8.75-.35-15.95 2.9-7.3 3.25-7.95 7.85-.3 2.25 1.2 4.8 1.65 2.85 4.45 3.65l-.2 1.35q-3.7-.7-5.75-4.15-1.75-2.95-1.45-5.7.45-4.85 8.3-8.8 8.1-4.05 17.3-3.7 12.65.55 22.75 7.75 9.35 6.75 8.9 13-.25 3.15-3.25 5.75-3.5 3.05-8.6 2.9l.9-1.35q3.9-.35 6.65-2.75 2.45-2.15 2.6-4.65"/><path fill="#0d131a" d="M26.05 149.65q0 4.65 5.1 8.1 4.7 3.15 10.75 3.55 7.75.5 13.9-1 6.1-1.55 8.15-4.5 1.95-2.7-4.8-7.25-7.3-4.9-16.7-5.2-7.3-.25-11.95 1.65-4.45 1.8-4.45 4.65m16.55-8.05q9.15.2 17.2 5.5 7.95 5.3 5.55 9.3-2.3 3.9-8.9 5.6-6.2 1.65-14.75 1.05-6.55-.45-11.95-4.55-5.8-4.35-5.1-9.35.4-3.25 4.9-5.4 5-2.35 13.05-2.15"/><path fill="#0d131a" d="m46.3 155.05-1.95 2q-.5.5-.95.15-.4-.4-.05-.95.65-1.1 2.4-1.9l.9-.1zm-11.1-1.45 1.25 2.25q.4.65-.15.8-.55.1-.95-.45-.45-.55-.8-2.2-.1-.6.1-.75zm-7.3 16.85-1.5 1.9q-.7-4.35-.1-8.55.4-3.1 1.85-7.65l1.2 1q-2.2 6.95-1.45 13.3"/><path fill="#0d131a" d="M32.75 163.85q-.3-.85-.65-.7-.4.15-1.25 1.6-1.75 3.15-3.6 8.5-1.75 5-1.75 6.55l.15.5 3.7.4q3.45-.15 4.45-1.15.75-1.25.3-7.3-.4-5.9-1.35-8.4m-3.6 1.45q3.25-5.9 4.85-2.15 1.1 2.7 1.65 9.3.6 7.05-.6 8.25-1.5 1.45-5.8 1.8-4.45.35-5.55-1.1-.85-1.15 1.5-7.35 2-5.25 3.95-8.75"/><path fill="#0d131a" d="m34.5 180.6.6-1.75q5.15.35 10.05 0 5.3-.4 6.4-1.45 1.65-1.45 4-6.05l5.3-12.05 1.9-.8q-2.8 7.45-5.5 13.05-2.9 5.95-4.7 7.6-1.35 1.3-7.15 1.7-5.5.4-10.9-.25"/><path fill="#0d131a" d="m60.9 161.65.4-2q11.65.5 19.8-2.35 8.35-2.9 14.6-9.85.85-.95 1.15-.7t-.45 1.35q-5.15 7.25-14.6 10.7-9.05 3.35-20.9 2.85"/><path fill="#0d131a" d="m98.75 154.8-.2 1.8-13.35.4 1.6-1.25q6.75.35 11.95-.95m27.35-18.3q-.4-1.25.05-1.4.4-.15.9 1.05 3.2 7.9 2.8 18.05-.25 6.65-2.8 21.35-.45 2.8-1.6 4.5-1.1 1.6-3.15 2.75-2.7 1.5-6.9 2.6-4.5 1.15-8.35 1.15l.35-1.9q8.9-.5 13.95-3.45 1.85-1 2.7-2.15 1.15-1.4 1.55-3.85 2.3-13.2 2.6-21.15.35-9.95-2.1-17.55"/><path fill="#0d131a" d="m129 145.45-.35-2.05q4.3-4.8 7.05-12.15 2.85-7.6 3.35-16.1.1-1.1.55-1.1.5.05.5 1.15-.05 8.85-3.2 17.3-3.1 8.25-7.9 12.95"/><path fill="#0d131a" d="m133.95 137.35.6 12.15q.1 2.9 1.6 4.25 1.25 1.2 3.1 1.35l.4 1.7q-2.7-.05-4.7-1.8-1.1-.9-1.55-2.2-.4-1.2-.45-3.15l-.3-10.5zm9.75-39.2q-.7-.95-.15-1 .55-.1 1.3.75 8.75 10.1 11.4 22.7 2.6 12-.3 26.9-.75 3.85-2.35 5.65-1.85 2-6.4 3.4l.7-1.8q3.55-1.4 4.7-2.9 1.05-1.3 1.7-4.75 2.8-14.4.25-26.4-2.6-12.2-10.85-22.55"/><path fill="#0d131a" d="M145.5 146.9q-1.4-5.4-2.25-6.05-1.1 1.15-2.25 7.55-1.05 5.9-.85 7.5.05.5 1.2 1.15 1.25.65 2.1.6 1.6-.1 2.6-1 .85-.75.85-1.45 0-2.9-1.4-8.3m-2.35-7.35q1.7-.15 3.7 6.75 1.7 6.05 1.7 8.95 0 1.55-1.85 3.05-1.75 1.4-3.25 1.35-1.05-.05-2.8-1.15-1.9-1.25-2.05-2.35-.3-2.65 1.25-9.3 1.65-7.15 3.3-7.3m-9.9-56-.7-2.25q3.05 2.75 8.7 2.95 5.65.15 10.85-2.35 3.65-1.75 4.2 1.3 1.05 5.7-.3 12.7-1.45 7.35-4.95 12.25L150 106.7q3.05-4.65 4.2-11.45 1.1-6.2.25-11.4-.05-.65-.6-.7t-1.8.55q-5.35 2.4-11 2.05-4.8-.3-7.8-2.2"/><path fill="#0d131a" d="M130.25 79.65q-2.65-2.5-6.65-4.25l-.1-2.5q4.7 1.7 8 5.3 2.95 3.15 2.95 5.55 0 2.25-3.45 3.3-3.1.95-8.1.8l.2-1.7 6.95-.6q2.8-.7 2.75-1.85-.1-1.75-2.55-4.05"/></svg>