<svg xmlns="http://www.w3.org/2000/svg" width="74" height="129" viewBox="-0.1 -0.3 74.15 128.55"><path fill="#717071" d="M60.6 2.35 56.5 8l-3.65 5.3q2.4 1.2 2.65 4.1.25 2.8-1.75 4.65 1.95 1.6 2 4.45 0 2.5-1.3 4.6 1.95 1.9 2.2 5.1.25 3.45-1.95 5.45-7.7-9.05-19.05-6.8-.2 6.45 5.65 11.75 5.25 4.8 14.35 7.85Q48.6 56.4 45 60.3q-2.5 2.75-4.8 8.65-3.85-2.3-7.9-2.75-3.3-.4-3.9.4-.5.6-.9 2.45-.4 2-.45 4.2-1.7-4.55-3.15-6.95-3.45.65-6.4 2.15 1.1-4.85.7-7.45l-3.65-.5q-.75-3.15 0-6.1.45-1.85 1.95-4.95 4.6-1.4 8.55-5.25 4-3.9 5.05-8.1l-1.8-.1q.6-2.95 4.55-6.4-.5-2.3.75-4.4.9-1.55 3-3.3-.9-2.8 1.7-5.8 2.5-2.85 5.9-3.45-2.35-5.5 4.35-9 4.5-2.3 10.8-3 1.1-.1 1.5.35.45.45-.25 1.35"/><path fill="#68ae28" d="M30.1 36.1q-1.95 6.75-9.25 11.3-7.2 4.5-10.7 1.65.9-7.05 6.75-10.2 4.75-2.6 13.2-2.75"/><path fill="#68ae28" d="M56.5 38.35q5.4 2.4 7.95 7.45 2 3.95 2.55 10.45l-4.45-.35q4.85 4.45 6 9.7.9 4-.4 8.2l2.45 4.4 2.4 4.65q-2.2 1.25-5.1 2.1 1.25 2.25 1.75 4.45.65 2.65-.2 3.9-2.15-.95-4.9-1.6.45 1.85.1 6 .7 1.7 1.2 3.95.55 2.6.5 4.55l-4.25.85q-1.65 3.65-2.85 7.9-1.45-.7-3.7-3.35-5.25 9.05-7.9 9.65.6-2.3.6-5.4-2.45 3.6-6.55 7.25-4.4 3.95-6.4 3.95-1.4-.5-3.5-3.15-2.25-2.7-4.15-6.35-1 2.95-2.9 5.1-2.6-2.95-5.3-10.4l-3.8 4.15q-1.2-2.6-1-8.65-1.3.85-2.85 1.05-2.95-2.85-4.15-7.8-1.15-4.85-.05-8.9-.75.2-2.9 1.15l.05-2.6q.15-1.55 1.1-3.3-2.15.35-5.05 1.5.35-4.1 3.25-8.7-1.45 0-3-1 .05-7.05 2.5-11.4 2-3.6 6.2-6.1.5-2.2 1.75-4 1.35-1.95 2.85-2.4-.25 1.4-.15 3.1.1 1.5.45 2.5l3.55.15q.3 1.4.1 3.5-.2 2.05-.8 3.95 3.6-1.65 6.4-2.15 1.8 2.8 3.25 6.55.1-5.25 1.5-6.4 1.1-.8 5.2 0 4.15.8 6.45 2.3 1.6-5.95 6.4-9.85 3.55-2.9 8.6-4.45Q45.4 51 40.4 46t-4.85-11.35q6.05-1.1 11.4 1.1 4.85 1.95 7.75 5.9 1.1-.85 1.8-3.3"/><path fill="#be9c59" d="M20.3 114.3q1.25 3.6 2.65 5.6l-2.3 5.25q-.45.9-1.55 1.2-1.05.3-2.05 0-1.95-.6-1.15-3zm35.25-2.9 2 2.25 3.05 10.2q.5 1.55-.2 2.15l-1.6.6-1.65.25q-.95-.25-1.5-1.85-.95-2.8-2.45-9.5z"/><path fill="#56931f" d="M48.2 116.05q-8 10.05-13.05 11-1.7-1.45-4.1-4.55-2.4-3-3.4-4.9-1.65 3.75-2.8 5.05-1.35-1.6-3-4.95-1.45-3.05-2.25-5.45-2.5 2.95-4 4-.85-2.55-1.05-8.4l4.1-3.45q2.05-2.1 3.45-4.8 2.45 1.05 5.5 1 3.4-.05 6.7-1.4 2.55 4.55 7.25 7.05 3.3 1.8 7.35 2.4 1-1.65 1.7-4.2 5 3.45 11.35 2.35l-2.6 8.15q-1.75-1.05-3.8-3.45-3.95 7.1-7.6 9.7.4-2.7.25-5.15"/><path fill="#56931f" d="M9.1 104.95q-1.75-3.8-1.85-6.3 1.1 2.4 4.55 3.85 4.35 1.85 8.95-.35-2.25 2.6-4.65 4.55-2.8 2.2-4.2 2.15-1.1-.05-2.8-3.9"/><path fill="#a5874c" d="M18.3 118.7q.9-2.15 2.1-4.15l1.15 2.85 1.4 2.6-1 2.35q-.5-1.1-1.55-2.1zm36.45 2.8-1.65-5.7 2.45-4.3 1.9 2.05.85 3.15q-.85.5-1.9 1.9-1.15 1.5-1.65 2.9"/><path fill="#595757" d="M50.2 28.45q5.95 2.65 6.4 7.25.3 3.3-1.9 6-1.4-2.25-4.55-4.35-3.35-2.25-6.6-2.85 4.65.4 6.5-1.65 1.65-1.85.15-4.4M35.45 35.7l.3 2q-2.95 0-6.5 1.05l.65-2z"/><path fill="#595757" d="M51.35 20.75q3.85 1.45 4.45 4.7.5 2.9-1.6 5.3-2.75-2.4-8.65-3.7 5.7-.45 6.8-2.8.85-1.85-1-3.5"/><path fill="#595757" d="M51.55 13.05q3.25.85 3.85 3.65.6 2.65-1.55 5.2-1.95-1.35-5.15-2 2.75-.1 3.95-2.6 1.25-2.55-1.1-4.25m-4-.95q2.8-.95 6.95-4.35 3.9-3.2 6.3-6.25-5.4 8.55-7.8 11.55-3.15-.95-5.45-.95"/><path fill="#0d131a" d="m54.05 22.4-.95-.75q2.75-2.75 1.45-5.7-1.75-3.75-8.05-3-6.2.7-8.8 4.75-1.35 2.15-.5 4.4l-1.1.45q-.6-1.45-.45-3t.95-2.75q3.3-4.85 10.45-5.25 7.1-.4 8.8 4.05.7 1.8.2 3.7t-2 3.1m-43.4 25.85q-.15.85.9 1 4.95.8 10.9-3.65 5.6-4.25 7.05-8.95-8.6.55-13.05 3.3-4.5 2.75-5.8 8.3m-1.2-.4q1.5-6.85 7.6-9.9Q21.8 35.6 30.2 35.4l.45.2.15.5q-1.45 5.9-7.5 10.5-6.25 4.75-12.2 3.85-2.15-.35-1.65-2.6M18.3 60.4l.4.35q.6 3.7-.6 7.85l-1.75.8q.75-2.25 1.05-4.5.3-2.1.05-3.3-6.05-.7-10 2.55Q4.3 66.8 2.9 71.5q-.9 2.95-1.15 7.45 2.45.75 5.45.1 2.65-.6 4.6-1.95l-.1 1.65q-2 1.45-4.95 1.85-3.2.4-6.05-.6-.3-.05-.3-.45-.05-4.4 1.05-8.25 1.45-5.3 4.9-8.2 2.2-1.8 5.4-2.55 3.1-.7 6.55-.15m4.95 60.25q-.85 2.8-2.25 5.3-1.3 2.3-4.7 1.05-1.15-.4-1.5-1.45t.15-2.05l5.1-9.9.6 1.2-4.3 8.95q-.65 1.45.5 1.85l1.85.35q.85-.1 1.45-1.15 1.75-2.95 2.4-5.3zm33.5-7.55 1.55 1.3 3.15 9.65q.4 1.5-.05 2.2-.45.85-2.45 1.25l-2.3.1q-1.05-.3-1.55-1.65-.3-.75-2.45-9.45l.85-1.3 2.75 9.95q.25.75.7.9l1.7-.1q1.35-.25 1.55-.6l-.05-1z"/><path fill="#0d131a" d="M62.1.65q.3.45-.2 1.15l-8.4 11.9-1.2-.75q4.05-6 8-11.25.25-.3-.5-.3-3.9-.1-8.35 1.6-5 1.9-6.75 4.75-1.4 2.2-.1 4.75l-1.2.4q-1.85-3.1 0-6 2.05-3.15 7.15-5.2 5.1-2 10.25-1.65 1 .1 1.3.6M54.65 31.6l-.85-.7q1.1-1.85 1.3-3.7t-.55-3.3q-1.95-3.6-9.2-3.55-7.6.05-11.05 4.8-1.55 2.2-.9 4.8l-1 .7Q31.75 29 32 27.2q.25-1.75 1.35-3.1 4.25-5.35 12.35-5.15 7.7.15 10.1 4.4.95 1.65.65 4.05-.3 2.5-1.8 4.2"/><path fill="#0d131a" d="M55.5 33.95q-1.05-2.65-3.8-4.2-2.8-1.55-6.8-1.7-7.85-.25-12.45 3-3.25 2.3-3.8 5.2l-1.2-.05q.65-4 4.55-6.65 4.85-3.35 13.1-3.05 4.25.15 7.4 2.05 3.1 1.85 4.25 4.8.9 2.3.45 4.85-.45 2.65-2.2 4.2l-.8-.95q1.4-1.4 1.75-3.45t-.45-4.05"/><path fill="#0d131a" d="m29.05 39.55.65-1.6q3.05-1.1 5.95-1.1l.2 1.25q-3.45.1-6.8 1.45"/><path fill="#0d131a" d="M51.55 39.15q-2.85-2.5-6.95-3.55l-8.6-.45q.05 6.85 7.2 12.35 5.05 3.85 12.75 6.55l-1.05.9q-8.3-2.65-13.35-6.8-6.8-5.6-6.8-13.55 0-.55.45-.6 4.85-.95 9.65.2 4.65 1.15 7.85 3.95 5.95 5.2 5.95 15.8l-1.25.1q0-9.75-5.85-14.9"/><path fill="#0d131a" d="M62.75 44q-2.15-3.15-6.7-5.05l.6-1.75q4.75 2 7.45 6.25 3.05 4.8 3.85 13.25.1.5-.4.5l-4.8-.5-1.4-1.45 5.3.55q-1.35-8.05-3.9-11.8M15.1 60.7l-1.4.25q-.8-3 .15-6.6.7-2.85 2.1-4.8l1.3-.2q-1.35 2.1-2.05 5-.95 3.65-.1 6.35"/><path fill="#0d131a" d="m10.15 61.95-1.45.45q1-5.25 5.75-8.3l.15 1.1q-3.4 2.4-4.45 6.75m2.55 18.9q.65 4.15 3.25 7.45.8 1 2.2.15 4.35-2.7 6.3-5.55 1.9-2.85 1.9-6.55 0-4.1-2.8-9.35-3.95.8-6.7 3-2.7 2.15-3.9 5.3-.8 2.15-.25 5.55M23.8 65.7q.45-.1.7.3 4.45 7.8 3 13.6-1.5 5.9-9.2 10.15-1.85.95-3.05-.45-2.9-3.4-3.95-7.45-1.05-4.1.2-7.4t4.65-5.65q3.25-2.25 7.65-3.1"/><path fill="#0d131a" d="M28.8 66.95q-.3.25-.45.9-2.1 9.2 2.35 14.2 2.35 2.55 6.3 3.6l8.7.3q1.25-.1 1.25-.8.2-4.7-2.55-9.6l1.5-.4q2.6 4.6 2.35 10.3-.05 1.5-1.85 1.7l-9.7-.3q-4.7-1.1-7.15-3.75-2.4-2.65-3.1-6.8-.7-4.3.65-9.05.55-1.85 2.65-1.85 6.25 0 10.7 2.75l-.6 1.35q-4.05-2.85-10.05-2.85-.7 0-1 .3"/><path fill="#0d131a" d="M59.8 54.2q-10.95 1.4-16.1 8.7-3.65 5.1-3.55 11 .1 1 1.3 1.15 3.5.4 7.1-1.1 3.55-1.5 6.4-4.55 3.4-3.6 4.5-8.7.8-3.6.35-6.5M39.3 75.4q-.5-.6-.5-1.35 0-8.75 5.5-14.3Q49.95 54 60.2 52.8q.7-.05.75.4.85 4.6-.4 9.2-1.3 4.7-4.4 8-2.9 3.1-7.15 4.75-4.15 1.55-7.9 1.1-1.2-.15-1.8-.85"/><path fill="#0d131a" d="m60.3 55.85.2-1.7q5.25 1.65 7.9 8.45 2.65 6.75.25 11.9l-.85-1.1q1.75-4.5-.8-10.35-2.5-5.9-6.7-7.2"/><path fill="#0d131a" d="m57.4 67.75.25-1.25q7.05.35 11.5 7.35 2.35 3.65 4.6 9 .3.3-.15.5-2.8 1.9-7.1 2.45-4.55.65-8.35-.6t-6.6-3.95q-2.75-2.75-3.9-6.3l1.25-.55q2.55 6.95 9.7 9.25 3.6 1.2 7.35.9 3.7-.3 6.3-1.9-2.2-4.6-4.5-8-4.4-6.6-10.35-6.9"/><path fill="#0d131a" d="m67.45 84.95 1.15-.4q1.15 2.1 1.65 4.65.6 2.8.1 4.55-.15.6-.85.35-2.9-1.35-4.15-1.6l.15 3.05-.35 3-.8-1.4q.15-1.6-.4-5.45-.05-.4.2-.6l.6-.1 2.2.7 2.2.9q.5-2.8-1.7-7.65"/><path fill="#0d131a" d="M64.15 98q-1.6-3.55-4.3-5.75-4.4-3.6-10.7-2.45l-.7-1.2q3.45-.65 6.7-.05 3.5.6 5.8 2.5 2.85 2.35 4.5 6.6 1.55 4.05 1.65 8.85 0 .4-.3.45-4.55 1.05-7.1 1.1-5.8.15-9.4-2.65l.65-1.5q2.6 2.05 6.25 2.5l8.65-.65q-.2-4.25-1.7-7.75"/><path fill="#0d131a" d="M32.5 93.55q.2-3.9 2.1-8.05l1.2.4q-1.45 3.45-1.6 7.4t1.1 6.4q3 5.95 13.35 8.4 3.15-6.75 1.55-13.65-1.55-6.6-5.8-7.8l1.7-.35q4.25 1.4 5.7 8.2 1.6 7.45-2.3 14.9-.2.3-.5.25-5.55-1.2-9.45-3.55-4.05-2.4-5.7-5.65-1.55-2.95-1.35-6.9M1.05 84.3q.8-1.95 2.35-4.25l1.35.25Q2.2 83.85 1.6 88.05q2.65-1.1 4.3-1.5l.75.1-.05.65Q5 90.2 5.25 92.5q1.55-1 2.7-1.3l-.05 1.1q-.95.35-2.85 1.9-.4.3-.8 0l-.35-.65q-.35-2.5.9-5.35-1.65.45-3.65 1.4l-.9-.1q-.35-.35-.25-.8.3-2.5 1.05-4.4"/><path fill="#0d131a" d="m21.65 86.65 1.15-.85q2.45 8.15.2 13.8-2.3 5.75-9.9 9.85-1.45.85-2.65-.7-5.2-7.4-4.15-14.4.9-6.25 6.35-10.45l.7 1.1q-4.65 3.5-5.5 9.25-1 6.5 3.5 13.45.6.95 1.45.4 6.7-3.9 8.75-8.9 2.1-5.05.1-12.55"/><path fill="#0d131a" d="m61.5 106.9 1.45.15q-2.4 6.05-2.8 8.45l-.5.6q-.4.15-.85-.2-1.3-.95-3.1-3.25-3.85 7.3-7.05 9.3-.65.45-1.2.3-.5-.15-.45-.65l.4-2.25.25-1.8q-2.95 4-5.45 6.35-3.25 3.05-6.6 4.2l-.95-.1q-3.15-2.2-6.85-8.9l-2.15 4.05-.8.55q-.45.05-.8-.45-3.05-4-4.75-9.75l-3.25 3.55-.85.25q-.45-.15-.6-.8-.8-3.6-.5-8.55l1.15-.7.05 3.75q.2 2.85.55 4.4l3.35-3.65q.2-.3.5-.2l.35.35q1.55 5.65 4.8 10 1.1-1.5 2.35-4.55.2-.45.55-.4l.5.4q3.3 6.25 7.1 8.95 3.55-1.25 7.25-4.65 3.05-2.85 5.3-6.2.2-.3.55-.25l.35.45-.25 4.5q3.25-2.5 6.55-8.95l.35-.3.45.15q1.75 2.2 2.95 3.15l1.2-3.6z"/><path fill="#fcd13e" d="M20.95 49.65q1.35.45 1.4 2.95 0 2.25-.95 4.05l-2.9 1.15q-.7-.7-.9-2.05-.25-1.35.15-2.8.4-1.5 1.35-2.5t1.85-.8m18.6 9.65q-1.55 0-2.25-1.85-.5-1.4-.45-3.4 0-1.6.95-2.95 1-1.4 2.3-1.35 1.55.05 2.35 1.9.55 1.4.5 3.1-.1 1.55-.9 2.9-1 1.65-2.5 1.65"/><path fill="#0d131a" d="M40.25 50.15q-1.05-.1-1.9 1.05-.9 1.2-1.1 3.1-.15 1.8.55 3.15.65 1.4 1.7 1.45 1.05.1 1.95-1.1.85-1.25 1-3.05.2-1.95-.55-3.25-.65-1.25-1.65-1.35m-.85 9.7q-1.45-.1-2.45-1.8-1-1.75-.8-3.9.2-2.2 1.45-3.65 1.25-1.4 2.8-1.25 1.45.1 2.35 1.65 1 1.6.8 4-.2 2.1-1.45 3.6-1.25 1.45-2.7 1.35"/><path fill="#0d131a" d="M40.15 54.3q-.1.95-.4.95-.4 0-.35-1.05.1-1 .45-.95.4 0 .3 1.05m-19.9-.85q-.1.9-.45.9-.35-.1-.2-1 .15-.95.45-.85.35 0 .2.95"/><path fill="#0d131a" d="M21.25 56.9h-.7q1.15-1.65 1.2-4.05T20.7 50.2q-.65-.15-1.45.7-.85 1-1.15 2.6-.3 1.3.05 2.6.3 1.2.85 1.55l-.45.65q-.95-.6-1.4-2-.4-1.4-.05-3 .4-1.95 1.55-3.1 1.1-1.05 2.2-.85 1.7.3 1.85 3.2.15 2.85-1.45 4.35"/><path fill="#0d131a" d="M24.55 55q.7-.35.9 0 .15.35-.5.75-2.85 1.55-6.35 2.4 2.05 2.7 5.4 5.05.7.5.55.8-.2.3-.95-.15-4.2-2.5-6.45-5.75l-.1-.45q.1-.3.45-.35l3.25-.85q2.4-.75 3.8-1.45"/><path fill="#0d131a" d="m18.25 58.6.2-1.05q4.75 1.2 7.05 1.25.85.05.9.35 0 .3-.85.35-3.5.15-7.3-.9"/></svg>