<svg xmlns="http://www.w3.org/2000/svg" width="178" height="249" viewBox="-0.25 -0.3 178.1 248.75"><path fill="#68ae28" d="M45.05 131.15q5.3-9.75 8.45-14.7 6.75-10.55 9.85-10.35l-1.2 4.6q-1.15 4.35-1.1 6.4.15 3.9 4.35 8.1 4.25 4.2 9.7 5.85-.35 2.95 1.15 13.9 1.65 11.8 3.3 12.2Q83 154.45 87 142.8l3.25-11.1q12-1.05 19.95-6.6 7.45-5.2 7.8-11.45l-.85-6.7q5.4 6.4 10.15 17.4 2.4 5.5 3.7 9.75l3.05 6.2q4.3 7.2 10.95 12.5.2.15 6.15-5.2l-.85 8.05-3.8-.35q-3.75-.25-3.55.05 2.4 3.5 5.8 11.7 3.55 8.55 2.9 9.95-.2.45-1.4.6l-4.55.15-4.55-.45-5.3-.65-5.35-.6.25 7.9-8.25-.55 1.2 5.75h-2.1l-2.65-.15q-.55 4.75-6.2 17.45-4.75 10.75-6.7 13.85l5.85 3.95q4.9 3.55 4.75 4.2-.2.95-10.35 2.55l.9 5.3q.8 5.6.25 7.15-2.05-.8-6.7-4.1l-4.25-3.15-12.8 10.35q-.8-.5-.2-8.5l.7-7.95q-11.25 3.2-12 2.35-.5-.55 3.5-5.4 3.05-3.7 5.4-6.1-5.35-5.15-11.2-16.85-4-8.1-6.4-15.1l-6.2.15 1.7-7.2-7.75 2q.65-7.85 2-9.85-18.55 2.5-19 1.15-.6-1.85 1.5-10.7l2.25-8.5-6.5 1.15q-4.8.6-5.25-.1-.8-1.15 1.85-6.5 8.15-7.3 11.85-11.75 2.6-3.1 5.1-7.7"/><path fill="#fff" d="M52.4 132.9q1.9-1.1 4.25-.95 3.45.25 4.55 2.35.75 1.4.45 3.3l-1.2 5.85q.7-1.05 2.3-2 1.8-1.15 3.25-1.15 1.3 0 2.45 1.1 1.05 1 1.55 2.3.85 2.35.5 5.25-.4 2.9-1.7 4.35-1 1.15-3 1.05l-3.2-.55-1.2.1.35 1.3q1.05 3.05.45 5.25-.55 2.25-4.6 1.85-3.85-.35-5.15-2.05-.95-1.3-.75-3.85.15-2.3.9-4.05l-3.8.7q-2 .1-2.85-.65-1.85-1.5-2.15-5.5-.15-1.85.1-3.45.3-2.45 1.45-2.85l3.15.25q1.7.65 2.95 1.85L50 139q-.65-2.15.5-4.4.45-.9 1.9-1.7"/><path fill="#006e38" d="M61.5 76.05q7.9.15 11.85 3.85 3.95 3.65 4.8 11.6-3.75 1.9-6.8 4.45-5.35-1.75-7.75-5.5-2.35-3.75-2.35-10.15 0-2.35.25-4.25m14.25 66.55q.75-.9 2.4-1.65 1.7-.7 3.05-.65 1.5.1 3.05 1.05 1.55.9 2.3 2.05-2.15 5.9-3.6 8.9-1.9 3.75-3.45 4.6-.75-.65-1.9-4.8-1.25-4.5-1.85-9.5"/><path fill="#717071" d="M97.55 20.9q1.1 1.35 1.1 3.45 0 4.85-5.2 13.2l-.1.35v2.9q0 10.8.85 26.7.85 16 1.75 21.6.1.45.5.55 9.45 2.05 15.65 10.3 5.2 6.9 5.55 13.8-.25 5.2-5.85 10.05-7.4 6.35-20.9 7.65l-.6.35-.4.5-3.25 10.8q-1.05-1.2-2.45-2.05-1.55-.95-3.05-1.05l-2.9.5q-1.35.5-2.3 1.4-.65-6.15-.65-10.35 0-.35-.6-.85l-.65-.45q-3.25-.85-5.9-2.55-5.55-3.6-6.7-9.6l-.05-1.6q0-8.85 6.45-16.75 6.5-8 15.75-10.1l.5-.45q1.45-6.05 2.8-35.3l.6-11.4q0-.5-.4-.65-2.4-.95-4-3.05-1.6-2.15-1.6-4.4l.25-1.7q1.15-4 4.75-7.95 3.5-3.95 6.55-4.7l2.5-.05q1.4.25 2 .9"/><path fill="#fff" d="M127.95 142.1q1.2 1.75 1.6 4.65.45 3-.4 5.3-.55 1.3-1.8 1.8l-4.8.25-3.05-.5 1.2 2.35q1.15 2.55.7 4.6-.55 2.3-3.1 3.45-1.75.75-3.85.6-2.15-.15-3.55-1.1-1.6-1.15-1.6-3.7 0-3.45 1.3-5.35.2-.3-.25-.1t-.75.55q-1.95 1.95-3.3 2.4-1.45.45-3.2-.4-.9-.4-1.7-1.85-.8-1.5-1.25-3.55-.5-2.1-.4-3.95.05-1.85.6-2.55 1.25-1.5 4.05-1l2.85.7q2.5 1.25 1.8.55l-.55-.95-.45-1.05q-1.3-2.45-1.3-4.65 0-1.35.6-2.5.8-1.5 3.1-2.65 2.35-1.15 4.75-1.25 3.3-.15 4.4 1.6 1.2 1.85 1.2 4.05 0 1.4-1.1 6.35l.9-.85 1-.8q2.15-1.95 4.3-1.9 1.05 0 2.05 1.45"/><path fill="#006e38" d="M53.65 102.9q9.05-.4 12.75-1.9-1.6 2.55-2.7 4.9-3.7 1.3-7.95 7.25-2.25 3.15-8 12.95l-7.3 11.65-4.55 6q-5 5.5-10.6 7.65l-3.35-7.2q-.8-1.85-1.15-.4l-2.2 11.05q-3.55 1.35-8.6 2.25l-9.2 1q3.9-4.1 6.7-16.7l1.4-6.6q.9-4 1.85-6.65 1-4.2 5.95-9.8 3.3-3.75 5.2-5.1 7.85-6.3 17.05-8.6 5.1-1.25 14.7-1.75m53.3-8.75q.55-8.15 6.35-11.85 3.85-2.45 9.45-2.75.95 2.55.95 5.2 0 4.45-1.25 7.05-2.95 6.35-9.4 8.6-3-3.85-6.1-6.25"/><path fill="#717071" d="M91.15 2.1q1.4-2.05 2.5-1.7 1.2.45 1.35 3.7l-.05 8.3-.3 6.9-.9.15q-1.9.5-4.65 2.5-2.75 2.05-4.55 4.25-2.8-3.4-1.1-9.35Q85.1 11 91.15 2.1"/><path fill="#006e38" d="M54.45 148.25q.1-1.1.95-1.5l.75-.2q2.7-.1 1.6 2.75-.45 1.05-1.2 1.4-.9.35-1.7-.65-.55-.75-.4-1.8"/><path fill="#fff" d="M78.1 164.2q1.8.4 2.65 1.6l1.05 1.9 1 1.95q.6-2.05 1.2-3.1l1.15-1.6q.45-.65 1.45-.9l1.8-.25q2.65-.25 5.3 2.1 2.7 2.45 2.35 5.1-.1 1.3-.4 1.95-.35.85-1.1 1.5l-2.4 1.55q-1.7.85-2.65.9.6 0 2.7 1.6 2.1 1.65 2.4 2.4.4 1.05-.45 2.9l-1.65 2.55q-.95 1.05-3.05 1.8l-3.55.55q-1.2-.1-3.1-3-1.75-2.75-1.6-3.15l-1.55 2.5q-1.15 1.45-2.2 1.85l-2.35.1-2.05-1.3q-1.1-1.1-1.8-2.95-.85-2.2-.3-3.45t1.9-1.95q.8-.45 2.55-.9l-2.85-1.85q-1.25-1.15-1.15-3.65.05-1.4.8-2.85.75-1.35 1.85-2.35.9-.8 2-1.25 1.15-.5 2.05-.3"/><path fill="#006e38" d="M112.5 148.4q.5-.65 1.4-.7 2 0 2 1.9 0 1.85-1.85 2-.75.1-1.35-.35-.65-.5-.7-1.3-.05-.9.5-1.55m55.3-12 3.05 9.6 2.85 8.75q1.75 4.8 3.25 7.1-6.95.25-14-1.2-7.15-1.5-12.65-4.4l1.05-8.3q-.05-.8-.8-.1l-4.45 4.3q-.6.5-.95.6-4.95-3.3-9.85-11.05l-3.9-7.05q-5.75-13.45-8.15-18.15-3.65-7.15-7.15-10.35-1.3-3.75-2-4.9 17.35 1.55 27.95 6.55 8.5 4.05 15.5 12.05 6.5 7.35 10.25 16.55m-87.1 41.35q-.4-.55-.25-1.6.15-1.1.7-1.65.7-.45 1.45-.3.8.15 1.35 1 .35.55.15 1.5-.15.9-.6 1.3-.8.65-1.5.6t-1.3-.85"/><path fill="#fff" d="M98.4 116.8q1.85 0 3.25 2.3 1.35 2.3 1.35 5.4 0 2.4-.85 4.4l-6.55 1.65q-1.8-2.25-1.8-6.05 0-3.1 1.35-5.4 1.4-2.3 3.25-2.3m-28.05-1.25q1.15 0 2.05 2.05 1 2.25 1 5.35 0 3.85-1.45 6.2-2.65-1.25-4.2-2.35-.45-1.7-.45-3.85 0-3.1 1-5.35.9-2.05 2.05-2.05"/><path fill="#56931f" d="m121.85 113.25 6.3 14.25q9.4 21.4 17 24.8 1.2 0 3.9-2.5l2.4-2.55-1.05 8.15-8.2-.5q-8-3.3-15.35-21.2-6.7-19.25-8.9-23.35l-.6-2.15-.85-1.5q2.15.25 5.35 6.55m-67.65 2q-6.2 17-13 28.1-8.35 13.5-15.1 13.35l.7-2.75q.7-2.3 2.3-4.7 5-2.35 13-14.1 4.9-7.15 12.1-19.9m58.4 91.95q-4.4 10-6.65 12.85 1.65.9 6.05 4.2 5 3.7 4.85 4.4-.15.65-4.5 1.45l-5.8 1.15.75 5.45q.6 4.95 0 6.6-2.3-.9-5.7-3.25l-5.4-3.9q-1.95 2.45-6.7 6.4-4.95 4.05-5.7 3.6-.6-.4-.3-8.15l.4-7.75-5.7 1.5q-5.8 1.4-6.35.85-.55-.6 3.5-5.6 3.15-3.85 5.6-6.35-4.6-5.1-9.65-13.7-5.6-9.55-7.4-16.3 9 12.5 27.65 11.45 8-.45 15.25-3.55 7.3-3.15 11.65-8.1-1.1 5.95-5.85 16.75"/><path fill="#005b2b" d="M11.55 126q-.6 4.35 1.5 7.2 2.2 2.9 6.65 3.65 10.35 1.65 26.75-8.2l-7.1 10.45q-8.2 10.8-13.6 12.25l-4.45-7.7L18.95 155l-6 1.85Q5.85 158.6.6 158.2l1.8-1.95q1.95-2.6 2.65-5.8Q6.1 145.6 8.9 135.3zm162.5 29.75q.55 1.95 2.7 5.9-9.45 1.15-18.8-1.9l-7.45-3.3.45-8.35-6 4.65q-4.35-2.9-9.2-10.45l-4-7q16 7.4 26.1 6.15 9-1.1 8.6-7.7 1.85 3.25 7.6 22m-97.25-5.6q2.05 3.35 2.9 3.25 1.15-.05 5.3-4.55-4.35 8.2-5.3 8.2-1 0-2.9-6.9m-10.15-56.7q-.4-3.95 2.4-8.15 2.95-4.4 6.15-3.5l1.35 3.2q1.35 3.8 1.3 6.5l-6.8 4.6q-.4.05-2.4-1.2zm44.15-9.15q3.55 1 5.65 4.8 2.15 3.9 1.65 8.85l-5.3 2.85-6.2-6.65q0-2 1-5 1.3-3.75 3.2-4.85"/><path fill="#595757" d="M114.6 103.65q3.35 5.95 3.4 8.95.15 5.35-4.95 10.1-2.55 2.4-5.15 3.7 6.7-7.3 5.3-18.9-.45-3.65-1.65-7.3l-1.1-2.9q1.35 1.2 4.15 6.35m-31.7-86.5q2.9 1.55 6.65-.9 3.8-2.5 5.7-7.3L94.8 19.2q-1.65.5-3.7 1.65-4.1 2.2-6.15 5.25-.9-.35-1.65-1.65-1.45-2.6-.4-7.3m14.35 13.5Q95.3 35.45 93.3 38l.5 9.75q-1.35-2.45-3.35-3.05-1.95-.65-3.1.95V42.5q-1.65-.8-3.2-2-3.1-2.4-2.55-4.45 2.9 2.2 8.4-.55 5.9-2.95 8.75-9.15z"/><path fill="#0d131a" d="m32.45 156.3 5.7-1.15q.25-.1.15.65-.05.7-.3.8l-6.75 1.25q-4.75.6-5.5-.05-1.2-1.1 2.1-8 .4-.75 1.4-1.25 1.05-.5.95-.3-.9 1.25-2.1 4.25-1.25 3-1.25 4.05l.05.1z"/><path fill="#0d131a" d="M40 152.55q-.95 2.7-3.2 11.9-2.45 9.85-2 10.4l9.05-.25 10-1.2 2.65-.05q.75.35-1.1.9-4.15 1.2-11.75 2.1-8.8 1.1-10.05-.15-1.2-1.2 1.15-10.75 2.15-8.9 4.55-14.65.9-2.15 1.25-1.5t-.55 3.25"/><path fill="#0d131a" d="M52.35 174.55q.05-.25.75-.15l.6.15q-.35.55-1 3.9-.6 3.35-.6 4.65v.05q.9-.05 3.15-.85l3-1.15 1.75-.5q.3.1-.05 1.35l-1.1 3.45-.9 3.25 6.45-.75 4.25-.2q.3.5-3.5 1.5l-5.05.9-3.6-.15q-.55-.55 1.6-7.25l-4.15 1.7q-2.6 1.05-3.15.65-.7-.45.1-4.7.65-3.45 1.45-5.85"/><path fill="#0d131a" d="m62.55 189.3 1.7-.25q3.25 9.85 9.4 20.05 5.85 9.7 10.3 13.3 1.3 1.05.45 1.1-.8.05-2.1-1-4.85-3.9-10.5-13.2-6.15-10-9.25-20"/><path fill="#0d131a" d="M81.55 220.55q.85.3.7.45-1.4 1.4-4.65 5.05-3.45 3.85-4.8 5.6l5.75-.95 5.45-1.3q.65-.2.85 0l.1.75q-.4 3-.6 9l-.05 6.05 5.4-4.05q3.85-3.15 5.25-4.75 1.2-1.35 2.1-.7 7.55 5.6 9.75 6.45v-.25l-.45-5.5-.8-5.9q-.4-2.2.1-2.3.5-.15 1.05 1.9l1.45 7q1.2 7 0 7.45-.9.35-5.65-3.1l-6.15-4.6q-11.85 11.6-13.3 10.5-.8-.6-.4-7.2.35-5.9 1.05-9.25l-7.65 1.85-5.45.35q-.1-1.25 3.5-5.5l6.4-7.2z"/><path fill="#0d131a" d="M105.35 220.5q-.2-.1.15-.75.3-.65.55-.5 2.15 1.2 6.4 4.35 5.3 3.85 5.35 4.9.05 1.35-5.55 2.55l-5.75.9q-.3 0-.45-.85t.15-.9l5.5-.75 4.1-1.1-4.65-3.85q-3.65-2.75-5.8-4"/><path fill="#0d131a" d="M118.05 189q.1-.3 1-.2.9.05.85.35-1.85 8.55-6.3 18.35-4.2 9.1-8 13.85-1.15 1.45-1.9 1.4t.35-1.5q3.5-4.35 8-14.65 4.55-10.4 6-17.6"/><path fill="#0d131a" d="m119.55 189.8-5.75-1.05q-2.05-.5-2.1-1.05-.1-.5 1.8-.2l9.15.85q-.1-2.25-.9-4.75-.3-.95.7-.85l7.65.4q.2-1.4 0-3.3l-.5-3.8h.6q.65.1.7.3l.55 3.45q.4 3.55-.1 4.6l-3.4.25-4.7-.5 1.15 3.85q.35 1.85.1 2.1z"/><path fill="#0d131a" d="m142.65 154.3 7.65.7q.3 0 .3.65t-.3.65l-6.45-.5q3.35 4.65 6.4 12.6 3 7.8 2.2 9.15-.7 1.25-10.35.75-9.2-.5-13.75-1.65-2.15-.55-2-1l2.3-.05 12.65 1.05 9.7-.35q.5-1.05-2.8-8.9-3.35-7.95-6.15-12.05-.85-1.15.6-1.05m23.1-3.45q2.25 3 4.5 5 1.75 1.5 1.3 1.8-.45.25-3.2-2-1.6-1.25-3.8-4.4l-6.1-9.1q-9.15-13.85-13.95-19.75-9.1-11.1-17.4-14.95-1.85-.9-1.65-1.25t2.1.45q8.9 3.85 17.7 14.25 6.2 7.25 14.3 20.55 3.75 6.1 6.2 9.4m-26.2-11.65q1.25-2.6 1.75-2.55.5 0-.5 2.65l-1.05 3.55-.9 3.45q0 .25-.75-.25l-.65-.8q.85-3.3 2.1-6.05"/><path fill="#0d131a" d="M166.7 132.15q1.65 3.8 4.9 14.2 3.25 10.25 5.25 13.65 1 1.75.85 2.15-.15.45-2.15.5-6.55.15-13.1-1.2-7.05-1.5-12.55-4.5-.35-.15-.35-.55l.95-7.35-5.1 4.4-.85.05q-5.15-4.1-8.35-8.4-3.15-4.25-5.8-10.65-4.5-10.9-6.85-15.75-4.25-8.8-7.4-11.9-.3-.3-.45-1.3-.2-1 0-.85 3.85 3.1 7.65 10.3 2.45 4.75 8.5 18.85l3.55 6.95q4.6 7.65 9.85 11.25l5.45-4.65q.4-.35.7-.35.4.1.4.85l-.85 7.85q11.5 6.05 25.2 5.6-1.55-2.45-3.05-6.35l-2.7-7.95q-2.9-9.25-5-13.9-3.5-7.8-8.2-12.6-8.3-8.35-15.6-11.95-10.65-5.3-28.3-6.7l-.55-.65q-.3-.7-.05-.65 18.15 1.4 29.35 6.65 8.25 3.85 16.4 12.05 4.8 4.9 8.25 12.9"/><path fill="#0d131a" d="M162.65 126.9q.45 1.1.15.9-2.6-1.8-7.2-2.6-1.85-.3-1.85-.7-.05-.4 1.85-.35 3.6.2 6.15 1.4.5.25.9 1.35m3.05 11.35q-1.8-.8-2.1-1.3-.3-.55 2.45.25 1.2.35 2.9 1.6.45.35.4 1.3t-.25.65l-1.4-1.25zM93.55 36.35q4.15-7.1 4.15-11.45 0-5.3-4.55-4.3-2.7.6-6.05 4.35-3.4 3.85-4.5 7.8-.75 2.6.3 4.85 1.1 2.45 4.05 3.8l.95.7.1 1.3-.55 10.35q-1.4 30.5-2.7 35.9l-.5.5q-9.3 2.1-15.8 9.85-6.5 7.7-6.5 16.5l.05 1.6q.6 3.65 4.05 6.8 3.4 3.1 8.6 4.7.9.3 1.05.55.2.4.2 2 0 8.05 1.4 15.95 1.25 7.15 2.4 8.15 1.35-1.1 4.1-7.6 3.3-7.75 5.25-16.3.25-.9.5-1.1.3-.3 1.25-.4 11.45-1.05 19.05-6.35 7-4.9 7.3-10.7-.35-6.8-5.65-13.6-6.2-7.95-15.7-10-.4-.1-.5-.55-.9-5.6-1.75-21.9-.85-16.1-.85-26.95v-1.9q0-.8.15-1.15zm-2.1-16.6q3.35-1.45 5.6-.3 2.4 1.25 2.4 5.25 0 3.5-2.9 9.3l-2.3 4.1q-.3 3.7.65 24.05 1 20.8 1.85 26.55 9.75 2.3 16.15 10.6 5.45 7.1 5.8 14.2-.35 6.7-8.2 12.25-8.1 5.65-19.6 6.65-1.75 8.45-5.75 17.2-3.8 8.35-5.5 8.25-2.05-.15-3.85-9.6-1.65-8.85-1.65-17.25-6-2.25-9.2-5.15-3.55-3.2-4.25-7.6l-.05-1.7q0-9.2 6.55-17.35 6.6-8.2 16.1-10.5 1.2-6.3 2.3-26.45l.9-19.55q-3.55-1.55-5.05-4.3-1.55-2.7-.7-5.8 1.25-4.5 4.4-8.1 2.9-3.3 6.3-4.75"/><path fill="#0d131a" d="M93.6.05q2.3.4 2.45 4.9.15 3.05-.1 8.7l-.4 5.9q-.05.25-1 .3l-.9-.25.55-6.05q.45-5.9.35-8.85-.1-2.4-1.2-3.1t-2.3 1q-6.05 8.6-7.2 15.35-1 5.8 1.7 7.8.2.2-.35.8-.5.65-.75.5-3.4-2.35-2.65-8.25.85-6.95 7.55-16.15Q91.55-.3 93.6.05m19.85 82.6q-5.45 3.95-5.7 12.2l-.8-.1-.8-.6q.3-8.4 5.75-12.45 3.6-2.7 9-3.2l2.05.1q.45.3.85 1.75 2.25 7.6-.8 13.1-2.95 5.25-10.2 7.6-.25.1-.45-.55-.2-.6.05-.7 7.05-2.25 9.65-8.55 2.45-5.75.2-11.6-5.1.3-8.8 3m-52.7-5.8q.1-1.1.4-1.3l1.6-.2q7.55.25 11.4 4.05 4.1 3.95 4.3 12.05l-.65.35q-.6.05-.65-.2-.65-7.6-4.3-11.2T62.1 76.65q-.75 7.3 1.05 11.5 2.25 5.3 8.75 7.25.2.1-.35.8l-.8.65Q64.6 95 62.2 90.05q-2.3-4.8-1.45-13.2m7.4 22.4-.65.95-1.15 1.25q-2.35 1.15-5.8 1.65l-6.85.55q-9.3.5-14.6 1.85-9.1 2.35-17 8.65-6.35 5.1-9.85 13.3-2.05 4.8-4.2 14.6-1.35 6.15-2.25 8.8-1.45 4.3-3.65 6.6 8.8-.45 16.15-3.2l2.5-10.7q.2-.8.6-.65l.7.9 3.65 6.9q8.75-5.3 14.35-13.7l7.25-11.8q5.55-9.5 8.25-13.15 4.4-5.8 8.3-6.9l-.15.8-.7.95q-3.8 1.3-11.8 14.3-4.15 6.75-9.15 15.65-3 4.5-6.9 8.45-4.2 4.2-8.45 6.75-.9.55-1.25.4-.45-.15-.95-1.2l-3-6.15-1.75 8.5-.45 1.95-1.55.7q-5.85 2.1-14.85 2.5L.1 158.6q-.35-.4 1.25-2.25 1.85-2.1 3.05-6.4l2-8.5q2.25-10.2 5.05-16.25 3.5-7.6 9.15-12.1 8.1-6.45 17.8-8.9 5.45-1.35 15.2-1.85l8.75-.75q3.1-.55 5.8-2.35"/><path fill="#0d131a" d="M54.8 106.85q3.1-1.1 3.8-.9.75.2-2.25 1.35-10.3 4-16.65 7.55-8.1 4.5-12.6 9.6-3 3.35-5 7.15l-2.8 6.15q-1.6 3.8-3.45 6.6-2.05 3-5 5.8-2.15 2.05-2.75 2-.65-.05 1.5-2.1 4.8-4.6 8.35-13.1 2.1-4.9 2.95-6.45 2.1-4 5.2-7.5 4.65-5.2 12.4-9.3 6.1-3.25 16.3-6.85M36.2 135.6q.05-3.1.6-3.1.5 0 .6 2.3l.05 7.65-.8.75q-.75.45-.75.2zm-19.5-8.9 2.5.15q.2.35-2.05.7-3.2.5-6.65 2.3-.25.1-.25-.55-.05-.65.2-.8 2.9-1.6 6.25-1.8m8.75-11.45 2.3.35q.55.3-1.05.45l-7.95.8q-.3.05-.35-.6t.25-.7l4.2-.35zm99.75 24.65q2.3-.25 3.5 1.55 1.85 2.75 1.65 7.5-.2 4.95-2.6 5.95l-4.25.15q-2.4-.35-4.1-1.1l-.2-.75q0-.6.2-.5 1.5.65 3.55.95l4-.2q1.7-.65 2.05-4.2.4-3.85-1.6-6.85-.8-1.2-2.5-1-1.9.2-3.75 2.05-1.8 1.8-2.05 1.3-.2-.4.6-2.75.65-2.3.5-4.5-.1-2.2-.95-3.45-1.15-1.8-5.65-.9-4.55.95-5.85 3.35-1 1.95-.05 4.95.85 2.8 2.65 4.5l-.45.15-.9-.3q-2.15-2.05-2.95-4.65-.95-2.95.3-5.3 1.55-2.9 7.1-4.15 5.6-1.25 7.2 1.2 1 1.5 1 4.4-.05 2.6-.8 4.75 2.15-1.9 4.35-2.15"/><path fill="#0d131a" d="M99.65 144.45q3.15-3.8 10.25 1.05 1 .7 1 1.2l-.95-.1q-6.9-3.95-9.05-1.3-1.05 1.25-.05 5.8 1 4.6 2.65 5.35l3.2.1q1.55-.6 3.45-2.55 1.05-1.05 1.6-1.15.55-.05-.4 1.1-2.4 3-4.65 3.95l-3.9-.2q-2.05-1.35-3.35-6.3-1.3-5.1.2-6.95"/><path fill="#0d131a" d="M119 153.7q-.95-1.55-.95-2.15-.05-.7 1.1.5 1.4 1.45 2.4 4 1.05 2.6.85 4.15-.5 3.4-5.4 4.5-4.5 1.05-6.8-.55-2.15-1.45-1.85-4.55.15-1.7 1.3-4.6l.7-.6.55-.1q-.85 2.15-1.1 4.2-.35 3.25 1.35 4.4 2.4 1.65 5.9.55 3.45-1.05 3.85-3.45.15-1.1-.45-3.05z"/><path fill="#0d131a" d="M112.6 148.55q-.45.55-.4 1.35.05.65.55 1.1t1.3.4q.65-.05 1.15-.55.5-.55.5-1.2t-.45-1.15q-.55-.6-1.35-.55-.8 0-1.3.6m-.7-.65q.85-.8 2.1-.8t2 .8q.75.75.75 1.8 0 .85-.65 1.65-.85.95-2.15.9-1.25-.05-2-.75t-.8-1.75.75-1.85m-68.45-6.35q.9-2.4 4.05-1.7 2.85.65 5.2 3.05 1.15 1.15.6 1.1l-2.1-1.1q-2.15-1.35-3.9-1.75-2.1-.45-2.6.85-.75 1.95-.2 5.4.5 3.65 2 4.5t3.25.75q1.55-.1 2.6-.9.85-.6 1.35-.65.55-.05 0 .7-1.05 1.5-3.5 2-2.6.5-4.55-.6-2.05-1.2-2.6-5.5-.5-3.8.4-6.15"/><path fill="#0d131a" d="M59.85 133.3q-1.45-1.35-4.6-.8-3.2.55-4.35 2.6-.85 1.5-.4 3.55l1.4 3.75q.1.25-.6.15t-.8-.35q-1.2-2.55-1.4-3.95-.4-2.1.65-4 1.55-2.75 5.65-3.25 3.85-.55 5.7 1.2 1.5 1.4 1.35 4.5-.1 2.15-1.15 6l-.8 1.05-.65.5q1-3.45 1.15-6.2.2-3.5-1.15-4.75"/><path fill="#0d131a" d="M60.1 143.2q3.05-4.15 6.85-3.65 3.35.5 4.4 6 1.1 5.55-1.7 8.7-1.6 1.75-5.05.95-2.95-.65-4.9-2.35-1-.85-.6-1 .4-.2 1.55.45 2.2 1.25 4.1 1.65 2.45.5 3.5-.75 2.5-2.75 1.55-7.35-.9-4.4-3.25-4.75-3.25-.45-5.95 3.2-.95 1.3-1.2.75t.7-1.85"/><path fill="#0d131a" d="M63.35 158.05q.35 2.65-.65 3.8-1.35 1.65-5.3 1.2-4.1-.45-5.55-2.85-1.7-2.8-.2-7.5.15-.35.85-.65l.65-.1q-1.85 4.8-.2 7.6.95 1.55 4.15 2 3.15.45 4.1-.7.8-1 .55-3.6-.3-2.5-1.15-3.7-.15-.25.65-.15.85.15.95.45.9 2.05 1.15 4.2M57.3 147.4q-.45-.65-1.15-.7t-1.2.5q-.5.6-.5 1.4 0 .65.5 1.2.5.6 1.15.65.7.1 1.15-.5.45-.5.45-1.4 0-.6-.4-1.15m-2.9-.9q.9-.75 1.85-.7.9.05 1.7.7.95.85.95 2.05 0 1.35-.95 2.15-.9.75-1.95.65-1.4-.15-2.1-.95-.6-.7-.6-1.55 0-1.5 1.1-2.35m15.75 24.95q-.15-2.6 2.75-5.65 2.9-3.1 5.4-2.7 2.15.35 3.7 3 1.15 2 1.45 3.85l-.3.65q-.35.35-.4.1-.25-1.45-1.55-3.45-1.6-2.4-3.15-2.65-1.95-.3-4.15 1.9-2.35 2.3-2.15 4.9.1 1.8 1.6 3.1 1.45 1.25 3.85 1.6l-.35.35-.9.25q-2.9-.45-4.25-1.7-1.4-1.25-1.55-3.55"/><path fill="#0d131a" d="M88.25 164.15q-2.4.25-3.5 2.5-.3.5-1.25 3.85l-.6 1.4q-.25.05-.3-1.3-.1-2.6 1-4.85 1.45-3 4.55-3.35 3.2-.3 6.45 3.2 3.05 3.4 2.75 6-.35 2.7-3.6 4.45-2.85 1.55-5.75 1.45-1 0-.6-.45.45-.4 1.5-.65 6.3-1.45 6.8-5.25.3-2.3-2.1-4.75-2.5-2.55-5.35-2.25m-11.75 11.7 1.7.1q.25.25-1.3.6-2.45.6-3.65 1.3-1.55.9-1.95 2.3-.55 1.95 1.9 4.4 2.35 2.4 3.8 1.9 1.15-.4 2.3-1.8L81 182q.4-.9.65-1 .2-.1.15.75-.15 1.85-1.5 3.8T77.35 188q-1.95.65-5.15-2.5-3.3-3.25-2.65-5.7.95-3.4 6.95-3.95"/><path fill="#0d131a" d="M88.95 177.2q-.25-.1.5-.35l1-.2q3.55 1.6 4.5 4 1.15 3.05-2.45 6.35-3.55 3.2-6.7 2.4-1.9-.45-3.35-2.75-1.05-1.65-1.7-3.75-.05-.25.25-.9.35-.65.4-.4.55 1.8 1.8 3.7 1.5 2.25 2.9 2.6 2.5.6 5.45-1.95 3.05-2.6 2.15-4.8-.85-2.2-4.75-3.95m-8.3-1.05q-.15.9.3 1.55l1.05.65 1.2-.4q.6-.5.7-1.4.1-.65-.3-1.3-.4-.7-1.05-.8-.55-.1-1.15.4-.65.5-.75 1.3m-1.25-.25q.15-1.2 1.15-1.9 1.05-.7 2.2-.45 1.3.25 1.9 1.45.55 1.05.35 2.05-.25 1-1 1.65-.9.7-2.1.55-1.1-.1-1.85-1.05-.85-1-.65-2.3m15.15-57.3q1.55-2.4 3.85-2.4t3.9 2.3q1.65 2.35 1.65 5.9 0 2.55-.95 4.75l-.8.05-.6-.45q.8-2 .8-4.3 0-2.9-1.2-5.05t-2.8-2.15q-1.65 0-2.8 2.15-1.2 2.1-1.2 5.05 0 3.8 1.8 6l-.35.6q-.5.4-.7.2-2.25-2.75-2.25-6.7 0-3.55 1.65-5.95"/><path fill="#0d131a" d="M98.9 125.65q0 2.85-.55 2.85t-.55-2.8q.1-2.9.65-2.9t.45 2.85m-2.15-13.75q.25-1.6.6-1.65.3-.05.4 1.65.1 3 1.1 4.7.15.25-.65.35l-1-.1q-.85-2.45-.45-4.95m-30.5 11q0-3.45 1.15-5.65 1.2-2.2 2.95-2.2 1.85 0 3.15 2.7 1.15 2.4 1.15 5.15 0 4.2-2.05 6.8l-.65-.15q-.55-.45-.35-.65 1.5-1.95 1.5-6 0-2.85-.9-4.85-.8-1.9-1.85-1.9t-1.9 1.9q-.9 1.95-.9 4.85 0 2.05.45 3.7l-.55.45-.7-.1q-.5-1.8-.5-4.05"/><path fill="#0d131a" d="M70.8 124.25q-.05 2.6-.5 2.6-.55 0-.45-2.55 0-2.6.55-2.6.4 0 .4 2.55m-1.9-12.75q.25-1.6.6-1.8.35-.15.35 1.05-.1 2.95 1.05 4.75.15.25-.6.3l-.95-.2q-.35-.45-.45-1.65-.15-1.2 0-2.45m12.05 29.6q-2.95-.25-4.5 1.8-.15.25-.55-.2-.45-.45-.25-.65 2.05-2.7 5.5-2.5 3.85.3 5.75 3.85.1.25-.35.6l-.6.15q-.65-1.3-2.05-2.1-1.3-.85-2.95-.95"/></svg>