<svg xmlns="http://www.w3.org/2000/svg" width="332" height="290" viewBox="-0.1 -0.1 331.5 290.1"><path fill="#717071" d="M216.65 175.2q5.9-.05 11.5-2.85 4.9-2.5 8.2-6.25 19.2 2.4 28.4 17.7 4 6.65 4.75 14.05t-1.9 13.7q5.3.5 11.8 2 5.35 1.2 9.55 2.65-1.7 5.85-5.45 14.25-3.15-1.45-21.1-9.1 2.1 14.2 4.45 24.9-4.95 1.25-22.05 1.75l1.05-23.55q-16.15-.8-25.75-14.25-7.9-11-8.4-24.5z"/><path fill="#717071" d="M203.45 118.95q16.5-6.9 31.35 4.8 6.45 5.05 10.65 12.6t5.1 15.6q.2 1.9-.65 2.6-.65.55-1.7.25l-5.65-.4q-1.6 8.45-8.95 14.4-7.45 6.05-16.95 6.4l-22.9-4.3q-9.7-7.4-10.1-19.55-.35-9.8 5.2-20.85z"/><path fill="#fcd25b" d="M185.5 160.55q2.65 7.1 7.95 9.6 2.15 4 7.55 8.45 4.9 4.05 10.7 7.1.5 6.35 3 14-47.65 8.75-95.9-11.15-50.45-20.8-83.1-65.9l-8.05 1.9q-2.7-3.85-5-8.85-2.7-5.8-3.85-11.15l4.9-.65-4.35-2.35q1.05-4.55 3.5-10 2.2-5 4.5-8.35l3.95 2.05-1.2-3.3q5.7-2.65 9.4-3.65 5.65-1.55 10.45-.85l2 7.3q57.85 6.55 132.95 55.9-2.55 11.45.6 19.9"/><path fill="#fcd25b" d="m245.85 224.45-.45 11.5q-2.75 13.2-13.4 22.65-10.75 9.5-23.45 9.65l-.1 3.45-11.2-.35q-6.1-.65-10-2.25l.6-4.75-5.25 4.05-6.85-8.8q-4.35-5.7-6.3-8.85l4.4-2.4q-5.5-14.95 1.55-28.7 4.85-9.4 15.25-17.6l11.5-.45q7.5-.85 12.1-2 5.1 11.75 11.9 17.8 8.25 7.3 19.7 7.05m14.8-46.2 6.1-6.1q12.15-4.15 24.4.85 11.25 4.65 15.35 13.5l3.75-2.5 3.5 8.8q2.35 6.3 3.2 9.95l-6.6 2.5 3.75 2.25q-1.25 2.9-3.85 7.05l-5.65 8.2-3.55-3.2q-5.25 6.3-15.55 6.8l1.85-5.3 1.6-4.85q-2.75-1.45-9.8-2.95-5.75-1.25-11.65-2 2.2-5.75 2.2-11.65 0-2.8-.85-8.7 1.45-2.05 2.2-5.85.65-3.5.05-4.5-.5-.85-3.6-1.05l-5.75.45z"/><path fill="#fcd25b" d="m283.8 27.9 1.25-6.05q3.85-.55 8.4.55 4.75 1.15 8.05 3.55l-1.65 3.65 4.1-2.75q2.8 3.3 4.25 8.25 1.25 4.35 1.25 9.1l-5.4 2.15q3.9 36.95-5 68.65-10.75 38.05-38.8 63.25-3.25-3.7-7.05-6.1-3.35-2.15-9-4.4 7.25-7.5 10.15-14.5 2.3-5.6 1.4-9.4-.8-3.1-3.45-4.6-2.6-1.45-5.55-.4-1.65-3.95-4.2-7.35-2.65-3.55-7.55-8.3 6.65-25.85 12.65-41.5 9.25-24.3 22.4-41.75l-3.4-6.15q9.7-9.45 14.9-10.7z"/><path fill="#ef8200" d="M184.8 96.7q-4.3-2.55-12.3-6.45-7-3.4-13.75-6.4-1.85-.8-1.35-1.4.45-.55 1.95-.45 14.25.9 24.5 3.85 10.2 2.95 17.25 8.2l-8.5 1.1zm-8.7 7.35q-.25 3.2.05 11.2l.75 13.7q-11.3-2.2-22.45-13.8-9.1-9.45-12.35-17.85-1-2.6-.3-3.05l3.15.2q4.25.8 14.45 3.95 10 3.1 16.7 5.65M30.05 82.2q-4.7-9.5-6.8-15.2-.65-1.7-.45-2.5.25-.9 1.7-1.55 1.5-.65 7.15-2.45l7.85-2.3 3.2-.1q1 .4 1.65 2.15l2.75 7.85 3 9.6q-4.6-.85-10.55.7-4.9 1.3-9.5 3.8m-2.15.9q-2.35 3.05-4.75 8-2.65 5.6-3.85 10.75l-8.45-3.55-7.45-3.25q-2.5-1-1-4.5l4.45-8.75 3.55-6.9q.7-1.4 1.9-1.3.7.1 2.15.95zM3.85 108.25q-.3-1.75.75-2.4l2.2-.5 12-.8q1.25 4.8 3.85 10.8 2.75 6.3 5.1 9.5L12.2 128.1q-2.35.4-3.1 0-.7-.4-1.4-2.35-1.8-5.35-3.85-17.5m179.8 45q.8 5.95 3.8 11 2.75 4.7 5.8 6.15 2.55 3.9 6.6 7.6 5.35 4.85 11.85 7.7l.35 3.5q-18.55 3.5-43.2-3.15-16.1-4.4-28.55-14.5-13.9-11.3-9.85-20.35 4.8-10.7 25.3-7.15 14 2.45 27.9 9.2m35.25 55.15q1.35 2.55 5.1 6.4 3.25 3.35 5.3 4.7.6 3.3-.35 8.45-1.1 6-3.85 10.65-3.5 5.95-11.45 8.65-9.1 3.1-15.8-2.3-6.55-5.25-5.25-14.95 1-7.55 5.45-13.75 3.35-4.65 8.9-6.7 5.45-2 11.95-1.15m-57.8 60.35-5.4-7.35q-.9-1.35-.7-2.05.2-.65 1.6-1.55 7.3-4.35 12.85-7.05 6.35 9.2 13.15 17.65l-11.6 9.5q-1.65 1.35-2.4 1-.35-.15-1.4-1.7zm36.9 19.9h-9.55q-2-.05-2.35-.95v-2.35q.25-5.1 1.25-16 4.3 1.5 10.9 2l10.4.35.15 13.75-.25 2.1q-.4.75-1.8.9zm129.6-69.35q-.75 1.6-3.9 5.95l-4.25 5.5q-2.1 2.35-4.3.6-8.15-6.4-10.55-8.6 7.05-9.45 9.5-15.25l12.2 7.85q1.45.95 1.7 1.5.4.85-.4 2.45m1.7-21.4q-.35.85-1.9 1.4l-10.45 3.45q-.95-3.7-3.25-9.95l-3.45-8.8q1.5-1 8.6-5.1 1.15-.7 1.75-.6.6.15 1.2 1.3l3.55 7.45q3 6.5 3.6 8.15.65 1.85.35 2.7m-57.85-15.15q7.9-1.3 12.8.45 7.1 2.55 8.85 11.4.95 4.75-1.3 8.6-2.1 3.5-6.2 5.35-4 1.8-8.4 1.4-4.65-.45-8-3.3.9-10.9-.6-15.5 1.25-1.95 1.9-3.95zm38-138.55q-.1-4.35-1.2-8.1-1.2-4.05-4.05-9.35 5.25-3.15 11.45-6.15 1.25-.65 1.95-.6.95.05 1.5 1.15l2.6 6.8 2.9 8.55q.6 1.9-1 2.45-4.6 1.55-14.15 5.25m-1-36q.4.7-.25 2.3l-6.7 15.45q-3.35-2.4-8.4-3.55-4.35-1-8.25-.75 1.35-6.2 2.75-18.7.15-1.35.85-1.55l2.2.35 8.2 2.6q6.9 2.2 7.9 2.7 1.4.7 1.7 1.15M281.6 22.75q-7.75 3.75-14.95 11.05-2.85-4.5-7.6-13.4-.75-1.5-.5-2.25.25-.7 1.6-1.5l13.7-8.15q1.4-.95 2.2-.35.65.45 1.15 2.05z"/><path fill="#eeeeef" d="M206.1 121q11.05 8.75 18.55 19.3 6.25 8.8 8.65 16.75.6 1.95-.05 2.15-.6.2-1.3-1.55Q225.35 141 206 126.6q-8.7 4.1-16.9 4.05-5.25-.05-12.3-2.1l-.5-11.7q-.25-8.55-.2-12.8 5.95 2.3 16.05 8.05 9.7 5.55 13.95 8.9m-21.3-24.3q4-1.05 9.05-1.85l7.25-.8q5.65 3.6 9.7 9.15 3.9 5.4 5.55 11.55l1.6 2.15-3.35-.4q-4.55-4-14.3-10.3-7.75-5.05-15.5-9.5m13.15 79.35q-4.6-4.6-6.6-9.45-2.6-6.35 1.4-9.35 3.9-2.95 9.6.9 3.6 2.4 8.75 8.4 3.45 3.95 6 9.4 3.2 6.9.75 9.25-2.8 2.75-9.8-1.25-5.15-3-10.1-7.9m42.95-9.2-4.55-.75q1.25-1.3 3.35-5.25 2-3.85 2.85-6.45l4.8.2 2.2-.2q.85-.55.7-2.55-.25-4.1-3.3-12.7 4.55-1.55 6.9 1.4 2 2.45 2.1 7.4.05 3.9-4.05 10.25-3.25 4.9-7.7 9.55-.85-.4-3.3-.9m20.25 16q-.25-1.5.05-2 .35-.6 2.1-.95 1.85-.4 4.75 0 2.95.35 3.3 1.05.5.8-.1 3.8-.55 2.5-1.3 4.45-1.05 2.6-3.4 1.55-1.5-.7-3.2-3.05-1.85-2.55-2.2-4.85m-24 11.55 4.25 3.3q2.15 1.95 2.6 3.55.6 2.1-.35 4.2-1.2 2.45-4.15 3.65l-6-.2q-2.8-1.4-3.6-4.2-.65-2.25.85-5.5.55-1.3 2.35-4.1.7-1.15 1.9-1.3 1.15-.15 2.15.6"/><path fill="#ef8200" d="M207.5 127.65q5.25 3.15 11.55 10.2 6.9 7.8 10.95 15.9-4 3.85-10.6 3.6-7.25-.3-11.9-5.95-4.8-5.75-4.55-12.7.25-6.45 4.55-11.05m31.55 67.85q-2.6-1.7-4.15-1.75-1.1 0-1.8.9-2.45 3.3-3.35 6.95-1 4 2.8 6.8-.9 2.35-.8 6.55.05 3.85.8 6.7-6.05-3.1-10.85-9.1-3.35-4.2-6.4-10.45 2.35-14.3 12.05-23.05 9.1-8.2 22.2-9.5 3.15 1.75 6.5 4.35 4.15 3.2 6.3 6-2.4.75-.75 4.9-7.25-.15-13.3 2.85-5.65 2.8-9.25 7.85"/><path fill="#ef8200" d="M243.6 133.2q1.7-5.5 5.4-11.6 4.7-7.6 9.75-10.7 5.3-3.2 8.45-.8 2.65 2 3.65 7.55 2.2 12.75-2.65 29.7Q263.75 163 256 173.8q-2.3-2.1-5.4-3.6-2.45-1.2-6.4-2.45 3.8-3.4 7.25-9.05 4-6.55 4.35-11.6.35-4.95-2.65-7.05-2.45-1.7-6.4-1.2-1.25-2.95-3.15-5.65"/><path fill="#d9b64f" d="m206.65 200.95 7.8-1.35q1.65 4.45 4 8.55-14.6-1.1-21.25 8.85-1.9-8.5-.9-15.25zm38.9 23.45q.3 7.4-.55 13.65-.75 2.45-2.75 6.75l-4 7.3q-12.65.85-22.45-5.5 6.7-2.9 10.4-9.9 3.85-7.35 3.05-17.1 7.05 4.55 16.3 4.8"/><path fill="#cf7100" d="M229.25 219.6q.8 9.75-3.05 17.1-3.7 7-10.4 9.9-7.35-4.8-12.35-13.35-4.35-7.4-6.25-16.25 6.65-9.95 21.25-8.85 4.3 7.3 10.8 11.45m-43-30q-7.65-20.55-2.4-38-.25 4.5 2.2 9.6 2.6 5.5 7.25 9.25 2.6 4 8.55 8.85 5.8 4.7 10 6.4l.35 3.5q-11.4 2-25.95.4"/><path fill="#d9b64f" d="M186.25 189.6q14.55 1.6 25.95-.4.75 4.8 2.6 10.7l-21.55 2.15q-4.3-5.1-7-12.45"/><path fill="#595757" d="M213.35 186.35q2.1 4.8 3.95 8.35l-2 6.95q-2.95-7.5-3.45-15.95zm54.25 24.8 4.8.9q-.15 5.8-3.6 11.95l-6.65-2.85q.35 4.15 1.65 10.8-2.6 2.5-8.45 2.85t-9.7-1.7l-.1-8.7q-6.7.3-13.15-3-1.3-4.4-.75-9.05 5.05 3.45 10.6 3.8 10.15.65 17.95-4.2 6.8-4.2 9.55-10.9l-.85 5.6q-.6 3.2-1.3 4.5"/><path fill="#cf7100" d="M231.65 212.35q-.55 4.65.75 9.05-5.45-2.75-9.8-7.7-4.6-5.2-7.3-12.05l2-6.95q6.6 12.4 14.35 17.65"/><path fill="#595757" d="m238.7 154.3 3.9-.15q-.6 5.85-6.55 12.1-7.75 8.15-19.45 8.95-2.1-4.2-6.9-10.6 6.35 2.35 16.35-1.1 10.2-3.5 12.65-9.2m-46.8 3.7q-1.85 2.4-1.25 5.75.35 2.25 2.35 6.45-6.65-4.4-8.75-12.95-1.8-7.25.2-13.25.15 3.9 2.35 7.9 2.05 3.7 5.1 6.1"/><path fill="#c8c9ca" d="M191.35 165.65q5.05 6.35 12.85 9.5 8.2 3.4 11.9-.4 1.8 2.9 2.45 6 .65 3.4-.75 4.55-3.95 3.1-16.2-6.25-3.65-2.8-6.3-6.3-2.75-3.55-3.95-7.1m45.1.45q1.5-1.75 4.2-6 8.75-.95 14.2-8.7-1 3.95-3.95 8.2-2.1 3-6.6 8.05-2.3-1-7.85-1.55m-6.65 37.6q4.2 3 8.2.4 3.75-2.45 2.95-6.25 2.35 1.25 2.85 3.85.45 2.55-1.15 4.95-1.95 2.9-6.95 2.65-5.4-.3-5.9-5.6m32.05-19.4q2.05 1.85 4.6 2.1 2.65.25 4.3-1.4-.2 2.1-.9 3.8-.65 1.7-1.35 1.95-1 .35-3.3-1.4-2.7-2.1-3.35-5.05"/><path fill="#0d131a" d="m215.65 148.4 1.2 1.05q.6.7.8 1.45.2.65-.05.85l-.85-.1-1.2-1.05-.8-1.45q-.25-.75 0-.9zm-30.5-8.55-.4 1.85q-35.9-22.4-62.6-34.75Q83.4 89 51.9 85.5l-.4-1.65q32.45 3 69.4 19.75 28.25 12.75 64.25 36.25M26.9 82.7l1.1.85q-5.9 9.65-8.2 18.5l-1.35-.6Q21 91.05 26.9 82.7M262 181q-.25.3-.2.95.5 2.8 1.85 4.85 1.4 2.05 3.35 2.85l1.25.25.55-.65q1.05-2.45 1.6-5.2.45-2.45.15-2.85-.25-.4-2.95-.7-2.85-.35-4.3 0-1 .2-1.3.5m-1-.95q.6-.7 2.05-1l5.15.15q3.15.55 3.6 1.3.4.7 0 3.65-.4 3.3-1.5 5.75-1.05 2.3-3.45 1.55-2.65-.85-4.35-3.3-1.55-2.25-2.05-5.45-.25-1.8.55-2.65m28.45 35.7q.35.15.25.55l-2.45 7.25-3 7.25q-.2.35-.6.2l-9-3.9q-8.2-3.65-11.85-5.15 1 7.65 4.75 24 .3 1.05-1 1.25-13.1 1.8-21.4 1.8l-.95-.3q-.25-.25-.2-1.05 1.1-18.55 1.1-23.4l1.4.05-.85 22.9q9-.05 20-1.65-3.2-13.7-4.3-24.05-.05-.65.3-.95l.8-.05 11.55 4.8 9.2 3.7q3.05-6.4 4.6-12.15-6.25-2.9-20.75-4.7l.5-1.3q16.7 2.3 21.9 4.9m-116.1 6.3q5.45-14.55 16.9-19.85l2.85.15q-11.15 4.95-17.25 19.3-6.4 14.95-.9 26.5l-1.45.55q-5.8-11.75-.15-26.65"/><path fill="#0d131a" d="M23.65 65.2q-.05.25.25 1 5.8 14.55 9.8 20.8l-2.25-.95q-2.7-4.1-5.55-9.85-2.6-5.25-4.6-10.25-.6-1.6-.5-2 .1-.45 1.4-1.1 2.95-1.5 9.25-3.45 5.75-1.75 10.3-2.75l2.1-.1q.45.25 1.15 1.95 1.95 4.5 4.5 13.4 2.6 9 3.45 14.2.25 1.55-.35 1.6t-1-1.5q-1.4-5.75-3.95-13.65-2.65-8.4-4.5-12.65l-.6-.95-.95.05q-4.4 1-9.6 2.65-5.8 1.85-7.8 3.05z"/><path fill="#0d131a" d="M9.6 73.2q.95-1.7 1.5-1.75.55-.1 2.5 1.15 5.85 3.65 20.6 14.05.95.7.8 1.2-.15.55-1.15 0L24.1 81.9l-10.9-6.85q-.95-.6-1.2-.55-.3 0-.7.75l-4.85 9.1-3.8 7.55q-.4.9-.3 1.2.05.3.85.65Q11.75 97.9 26.4 104l-2.7.3-10.8-4.1q-6.75-2.65-11.15-4.95-1.55-.85-1.7-1.4-.15-.5.55-2.15l3.9-8.5q3.15-6.55 5.1-10"/><path fill="#0d131a" d="M26.95 103.4q1.25.05 1.3.6.1.5-1.1.55l-11.35.9-9.95 1q-.75.05-.95.25-.15.2-.05.8.6 4.7 1.65 9.75 1.05 5.25 2.1 8.1.55 1.6 1 1.85t2.15 0q16.35-2.85 24.7-5.4 1.15-.35 1.25.15.15.55-1 .95-3.7 1.45-10.8 3.35-7.9 2.05-14.4 3.15l-3.6.25q-.55-.25-1.25-2.2-1.05-3.05-2.3-9.4-1.3-6.55-1.8-11.35-.1-1.4.2-1.75t2-.55l9.75-.7q7.85-.45 12.45-.3M39.4 79.25q-5.65 1.5-8.75 3.45l-.7-1.35q4.3-2.65 9.6-3.9 5.45-1.3 9.85-.65l.55 1.4q-4.3-.55-10.55 1.05"/><path fill="#0d131a" d="m28.4 124.35-1.5.55q-2.8-3.4-5.45-9.8-2.2-5.35-3.4-10.4l1.5-.15q1.15 4.25 3.5 9.8 2.8 6.5 5.35 10m6.1-1.2 1.9-.75q18.1 23.7 38.45 39.15 12.2 9.3 33.55 20.7 22.65 12.05 51.3 16.6 28.9 4.6 54.8.1l.4 1.2q-25.5 5.1-55.35.75-29.85-4.3-52.55-16.4-21.05-11.2-34.35-21.5-20.9-16.15-38.15-39.85"/><path fill="#0d131a" d="m183.95 152.5.2 1.9q-10.35-5.5-23.65-8.3-15.15-3.15-23.25 0-5.3 2.05-5.95 7.65-.7 5.75 4.05 11.4 10.25 12.2 31.85 19.3 23.15 7.6 44.9 3.9l.35 1.25q-22.4 4.3-45.9-2.85-22.25-6.75-33-19.55-6.25-7.4-5.15-14.3 1.05-6.55 7.95-9.25 8.4-3.25 23.65-.1 14.25 2.95 23.95 8.95M156.4 258.85q-.65.3-.7.55-.05.2.4.8 11.4 15.5 12.7 17.55l.85.05 8.3-6.6 9.75-7.65-.2 1.9q-4 3.2-17.25 14.9-.85.75-1.25.7t-1.15-1l-14.4-19.3q-.8-1.1-.65-1.7.1-.65 1.15-1.3 3.45-2.1 10.9-5.85 6.55-3.3 10-4.8 1.25-.7 1.6 0t-.95 1.3q-2.3 1-9.05 4.8z"/><path fill="#0d131a" d="M188 261.8q.65 0 .55 1.6L187 286.55q0 .45.15.65l.55.2 8.8.25q8.3.15 10.85-.05.5 0 .5-.8l-.15-18.25 1.35-.2.75 19.4q.05 1.3-.3 1.65l-1.45.4-9.55.2-11.75-.3q-1.4-.05-1.75-.45-.35-.45-.3-1.85l2.45-24.1q.15-1.55.85-1.5m-4.7 6.1-1.4.95q-6.9-7.8-13.1-17.55l1.45-.7q5.4 8.05 13.05 17.3"/><path fill="#0d131a" d="M198.3 272.3q-6.6-.65-10.85-2.2l.15-1.45q3.65 1.35 10.2 1.9 5.75.5 10.65.2v1.65q-4.2.45-10.15-.1m47.05-40.85-.3 7.75q-4.1 13.55-14.4 21.7-10.35 8.15-23.35 7.9-1.85 0-1.8-.6 0-.55 1.85-.6 13.35-.3 23.9-9.7 11.3-10.1 14.1-26.45m-34.4-45.95 1.5.55q1.5 11.55 6.05 19.9 4.4 8.1 11.4 12.75 10.55 7 23.1 3.9l1.35.1q.15.35-1 .7-6.05 2.05-12.55 1.15-6.5-.85-11.85-4.4-7.5-4.95-12.2-13.6-5.1-9.35-5.8-21.05m24.7-18.5.75-1.25q7.95-.15 15.95 4.65 6.5 3.9 10.35 9.05l-1.45 1q-3.75-5-10.05-8.8-7.8-4.7-15.55-4.65m31.9 24.15 1.6-.55q1.7 7.2.75 14.25-1.05 7.4-4.55 10.45-.85.75-1.2.35t.45-1.25q3.3-3.55 3.85-11.1.5-6.3-.9-12.15"/><path fill="#0d131a" d="M219.4 188.1q3.4-6.1 8.85-10.75 4.4-3.75 9.9-5.85 5.3-2.05 10-2l2.1 1.3q-5.15-.25-10.6 1.75-5.55 2.05-10.25 6.05-5.6 4.75-8.95 10.95-3.35 6.25-4.05 13.4l-1-2.25q.5-6.4 4-12.6m18.95 8.3q-2.9-1.95-3.75-1.7-1 .25-2.75 3.95-1.95 4-1.25 6.05.85 2.35 3.65 3.4 2.95 1.05 5.8-.35 2.25-1.1 2.9-3.55.6-2.3-.6-4.2-1-1.6-4-3.6m-4-3.4q1.4-.3 4.65 1.65 3.55 2.15 5.35 4.9 1.5 2.25.45 5.4-1.05 3.25-4.05 4.7-3.25 1.6-6.9.45-3.85-1.2-4.9-4.55-.9-2.95 1.65-7.75 2.3-4.4 3.75-4.8"/><path fill="#0d131a" d="m231.5 207.85 1.55.6q-1 2.85-1 6.4.05 3.85 1.3 6.95l-1.25-.35q-1.5-2.95-1.7-6.95-.15-3.95 1.1-6.65m7.9-11.45-1.4-1.15q3.75-6 10.6-8.9 5.8-2.5 12.7-2.35l.55 1.3q-6.25-.1-12.35 2.65-6.85 3.05-10.1 8.45m-18.9-79.95q9.05 1.6 16.65 8 5.8 4.9 9.6 13.05 3.45 7.35 4.15 14.6.2 2.15-.4 2.75l-2.05.25-5.85-.4-6.6.4-1.15-.2q-.05-.3 1.05-.65 2.45-.7 6.1-.8l6.45.3q1.4.15 1.25-.7-.65-7.05-4.1-14.45-3.85-8.1-9.55-12.85-5.25-4.5-11.5-6.55-10.4-3.45-20.9.95l-1.55-1.5q8.9-3.9 18.4-2.2m-32.1 13.95 2.3.1q-6.45 9.55-6 20.95.55 12.35 9.45 19.35l.6 1.15q-10.4-4.8-11.55-19.05-1.1-12.9 5.2-22.5"/><path fill="#0d131a" d="m217 175.7-.75-1.5q7.9.15 14.75-4.55 7.9-5.45 10.9-15.35l1.2.1q-2.85 10.35-10.95 16.2-7 5.1-15.15 5.1"/><path fill="#0d131a" d="M201 158.2q-4.2-2.45-7.3-.35-3.15 2.15-1.45 7.55 1.75 5.65 7.8 10.9 13.5 11.7 17.15 8.5 1.95-1.7-.2-6.9-1.95-4.65-6.45-10.4-5.5-6.95-9.55-9.3m-2.35 19.65q-6.25-5.45-8.1-12.05-1.85-6.45 1.75-9.1 3.3-2.45 8-.65 5.7 2.2 11.8 10.4 5.2 6.95 6.75 12.4 1.4 4.95-.7 6.95-2.15 2-6.95.25-5.5-1.95-12.55-8.2m-8.85-46.35q-7.5.4-14.75-1.85-10.55-3.3-20.9-13.6-9.7-9.7-13.15-19.15-1.05-2.8-.45-3.45l3.2-.1q8.9 1.5 19.9 5.1 15.45 5.05 28.55 12.4 14.8 8.3 26.4 21.3t14.95 24.9q.65 2.25-.15 2.55t-1.8-1.85q-8.2-17.75-25.7-30-8.45 3.3-16.1 3.75m16.1-5.95.4.05q6.4 4.35 12.5 11.05 9.1 9.9 13.7 21.3.35.8.6.65l-.05-.95Q229 145.2 218 133.3q-10.85-11.75-26.1-20.3-13.1-7.35-28.8-12.65-11.7-3.95-20.2-5.4-.8-.1-.3 1 4 9.75 12.8 18.45 9.7 9.6 20.7 13 7.4 2.3 12.65 2.25 7.5-.05 17.15-4.1"/><path fill="#0d131a" d="m207.3 127.15 1 .9q-4.4 3.95-4.45 10.8-.05 6.9 4.45 12 4.25 4.85 10.8 5.45 6.4.6 10.6-3.25l.8 1.2q-4.35 4.35-11.4 3.8-7.15-.55-11.9-5.9t-4.85-12.85q-.1-7.7 4.95-12.15m29.75 8.35q-1-.85-.75-1.2t1.35.4q4.3 2.9 7.75 8.5 3.3 5.4 4.55 11.05l-.9.1q-1.1-5.2-4.45-10.35-3.15-4.85-7.55-8.5m-42.8-46.9q9.1 5 14.8 11.55 5.75 6.6 7.65 14.25.7 1 2.35 2.6l-1.95-.4-1.55-1.55-.4-1.05q-2.3-8.05-8.35-14.1-4.95-4.95-13.45-9.45-6.55-3.55-17.85-5.85-9.8-1.95-17.05-1.95l-.15.05.1.1q14.05 5.4 30.9 15.3 17.25 10.15 26 18.4l-2.1-.3q-8.7-7.15-25.95-17.05Q171.3 90 158.2 84.2q-2-.85-1.8-1.85.2-1.05 2.8-1.05 9.6-.05 18.95 1.85 9.7 1.95 16.1 5.45"/><path fill="#0d131a" d="m199.95 93.7 1.75 1.1-8.1.85-7.65 1.35-2.35-1.1 7.85-1.45zm-22.25 35-1.6-.4-.9-13q-.35-7.55-.2-11.45l1.85.85q-.2 10.7.85 24m107.2 98.4.25-1.8q4.55.2 8.65-1.45 4.4-1.75 7.4-5.25.75-.95 1.05-.7.35.2-.3 1.2-2.7 4.4-7.45 6.45-4.3 1.85-9.6 1.55m-18.8-53.75 1.75-2q11.4-4.05 22.85.3 11.55 4.35 16.05 14.55l-.9.7q-4.7-10-17.45-13.75-11.8-3.45-22.3.2"/><path fill="#0d131a" d="M328.15 197.8q.7-.2.35-.85l-4.2-9.5-3.75-8.1-.95.05q-8.55 4.8-13.9 8.25l-1.2.05q-.25-.55.65-1.25 5.05-3.95 14.5-9.2 1.55-.75 2.2.35 1.7 3.05 8.9 19.6.65 1.5-1.2 2.15l-7.8 2.5-10.7 3.9-1.55-.85q5.05-2.25 10.75-4.35z"/><path fill="#0d131a" d="m309.6 184.45 1.35-.75 3.75 9.35q1.85 5.25 2.9 9.25l-1.4.45q-3.4-11.35-6.6-18.3m17.15 33.5.25-.8-.55-.5-17.5-11.25q-1.25-.8-1-1.25t1.55.2l9.45 5.5 9.35 5.9 1 1q.1.4-.4 1.45-1.05 2.45-4.75 7.5l-5.15 6.8-1.25 1.05q-.45 0-1.65-.85l-15.6-12.75.75-1.1 7.9 6.3 7.4 5.65q.8.6 1 .6l.8-.75q6.8-8.95 8.4-12.7"/><path fill="#0d131a" d="m305.15 222.95-1.2-.75q2.85-3.55 6.1-8.9l3.35-5.85 1.2.65q-3.7 7.55-9.45 14.85M271.1 183.9l.25-1.6q10.35-3.7 17.4 2.6 6.55 5.9 4.75 14.4-1.7 8.1-9.8 10.6-8.05 2.45-14.8-2.85l.25-1.4q6.6 5.5 14.3 2.55 7.2-2.7 8.45-9.2 1.45-7.65-4.6-12.75-6.45-5.5-16.2-2.35m-16.25-38.75q-.4-3.45-2.8-4.85-2.25-1.35-5.1-.25l-.55-1.35q3.7-1.55 6.65.05 2.95 1.65 3.55 5.65 1.6 10.05-11.55 23.4l-1.3-.55q12.1-13.3 11.1-22.1"/><path fill="#0d131a" d="M265.85 108.25q4 .9 5.8 7.45 1.75 6.4.8 16.1-2.3 22.85-15.9 42.6l-1.3-.95q12.25-18 14.65-40.6.95-9.2-.35-15.45-1.25-6.25-4.1-6.9-5.5-1.25-12.25 6.9-6.4 7.75-8.8 17.1l-1.1-1.85q2.85-10.15 8.85-17.5 6.9-8.45 13.7-6.9"/><path fill="#0d131a" d="m303.5 46.65 1.55-.5q1.9 14.05 1.05 30.25-.9 16.75-4.65 33.65-4.6 20.55-14.55 37.5-9.85 16.75-25.85 31.45l-1.15-1.1q15.65-15 25.1-31.3 9.55-16.6 14.1-37 3.8-16.95 4.9-33.2 1.05-15.85-.5-29.75M269.75 39l1 1.7q-11.9 16-21.6 40.1-8.75 21.6-13.4 43.6l-1.45-1.7q4.45-22.95 13.25-44.35 9.6-23.4 22.2-39.35"/><path fill="#0d131a" d="m284.15 27.3-.65 1.7q-2.8-5.45-7.65-19.5-.25-.75-.9-.4-1.7.85-6.7 3.75l-8.65 5.25-.45.5.3.8q4.35 7.4 11.9 21.45.55 1.1.05 1.3-.55.25-1.2-.8l-12.8-21.8q-.6-1.05-.5-1.5.15-.55 1.2-1.25 3.5-2.25 9.45-5.8L275 6.65q1.1-.55 1.5-.3.4.2.85 1.6 3.9 11.8 6.8 19.35"/><path fill="#0d131a" d="m267.2 34.55-.85-1.1q2.3-2.75 6.5-6.1 4.6-3.55 8.3-5.25l.55 1.4q-3.55 1.55-8.15 5.15-4.15 3.25-6.35 5.9m40.55-26.1-.65-.35q-14.55-5.3-17.9-6h-.55l-.15.65q-.25 3.65-1.9 13.5-1.6 10.05-2.5 13.2-.3 1.05-.8.85-.45-.2-.2-1.25.65-2.85 2.15-13.45L287 1.65q.1-1.25.45-1.5.3-.25 1.5 0 2.25.5 9.4 2.9l10.25 3.6q1.2.4 1.4.75.25.4-.25 1.55L304.95 20l-4.65 9.55-1.8 1.05q1.5-2.55 9.2-21.65z"/><path fill="#0d131a" d="m326.2 37.4.2 1.25-1.1.7q-17.1 6.05-21.55 8l-1.5.1q-.3-.5.8-1.15 3.15-1.95 20.3-8.45l.45-.25-.1-.55q-3.9-11.9-5.7-15.75l-.3-.25q-.25-.15-.55 0-3.6 1.65-8.8 4.45-6.8 3.65-9.7 5.9-1.05.8-1.3.2-.25-.65.75-1.5 3.35-2.75 9.75-6.5 5.7-3.35 9.1-4.8 1.25-.5 1.6-.45.4.1.8 1l3.6 9zm-24.5-11.95-.7 1.25q-2.2-2.1-7.5-3.45-5.1-1.3-8.55-.85l.05-1.2q3.8-.7 9.05.65t7.65 3.6"/><path fill="#0d131a" d="m310.05 43.8-1.3.35q.2-8.2-5-16.65l1.05-.65q5.55 8.05 5.25 16.95M228.4 218.75l1.75 1.25q.4 4.25-.65 9.35-1.1 5.05-3.25 9-4.2 7.75-11.85 10.35-7.8 2.65-15.1-1.45-6.9-3.85-7.75-13.7-.8-9.05 3.5-15.55 4.35-6.45 10.9-9 5.75-2.2 12.25-1.15l.75 1.45q-7.7-1-13.4 1.75-5.3 2.55-8.55 8.15-4 6.85-3.45 14.45.55 8.4 6.75 11.6 6.8 3.5 14 .8 6.75-2.55 10.45-9.05 1.95-3.55 2.95-7.9 1.15-5.1.7-10.35"/></svg>