<svg xmlns="http://www.w3.org/2000/svg" width="227" height="139" viewBox="-0.9 -0.3 226.85 139.1"><path fill="#f9be00" d="M90.95 75.7q8.4 4.6 14.9 7.6l.05 15.75q.15 12.25 1.35 14.15 1.35 2.2 12.4 8 10.75 5.65 13.25 5.85 2.05.15 9-3.15 5.3-2.45 11.35-5.85-5.9 5.9-17.8 12.75-11.45 6.65-15.2 6.75-3.3.05-15.65-5.25-12-5.2-13.2-6.8-1.5-2.05-2.2-27.55-1.45-.85-15.55-8.25-11.05-5.8-12-6.85-1.15-1.25-.8-14.4.35-12.85 1.25-15.05.75-1.7 7.5-7.55 5.45-4.7 9.75-7.9-1.2 5.7-.85 17.65.35 11.8 1.6 13.4 1.1 1.45 10.85 6.7"/><path fill="#ec6c00" d="M170.85 33.85q10.2 6.4 11 8.95 1.25 4.1.5 16.9-.75 12.5-2.05 14.3-1.1 1.45-8.5 5.6-5.9 3.3-11.7 6.1l-.15 14.85q-.35 11.65-1.05 12.4-2.95 3.3-12.6 8.65-9.95 5.5-13.4 5.45-3.25-.1-14.25-6.3-10.55-5.95-11.4-7.55-.7-1.3-1.2-12.25-.45-10.8-.2-17.65-5.1-2.15-14.05-6.9-10.85-5.7-11.7-7.4-1.15-2.3-1.55-15.6-.4-13.85 1.3-15.95 2-2.45 12.45-8.25 10.8-5.95 14.25-6.15 3.25-.15 12.9 4.7 7.55 3.8 14.5 8.2 5.45-2.7 14-5.75 9-3.25 10.7-2.9 2.7.55 12.2 6.55"/><path fill="#f9be00" d="M107.05 28.95q6.1.15 12.5 4.5 9.3 6.4 10.05 18.35.75 12.15-8.25 19.2-7 5.45-13.35 4.95-4.1-.35-12.7-4.85-8.45-4.45-9.55-6.65-.7-1.35-.7-12.05 0-10.85.9-12.65.9-1.85 9.9-6.35 8.9-4.5 11.2-4.45m71.4 26.5q.4 12.5-9.15 19.1-7 4.8-13.3 4.35-3.3-.25-10.85-5.45-7.05-4.85-7.9-6.55-.8-1.6-.65-11.8.15-10.55 1.45-12.5 1.4-2.15 8.75-6 7.4-3.85 10.35-3.85 5.7 0 12 4.6 8.9 6.45 9.3 18.1m-66.95 42q-.3-10.1 1.1-12.7 1.45-2.55 9.6-6.5 7.65-3.75 10.55-3.9 9.1-.4 16.45 6.55 7.35 7.05 7.1 16.15-.5 14.05-11.25 20.1-3.65 2.1-8.05 2.9l-4.95.4q-2.5-.3-10.3-4.6-8.1-4.5-8.95-6.45-1-2.4-1.3-11.95"/><path fill="#ec6c00" d="M70.7 49.95q4 .35 3.2 11.6-.3 4.15-1.35 6.9-1.45 3.75-3.9 3.6-2.65-.15-4.2-3.7-1.45-3.35-1.1-7.5.3-4.2 2.4-7.55 2.25-3.6 4.95-3.35"/><path fill="#e73820" d="M122.35 78.25q5.85-3.7 10.1-3.95 2.4-.15 6.55 1 4.05 1.1 5.6 2.3 1 3.4-2.65 8.1-3.6 4.55-6.4 4.2-2.35-.3-6.9-4.6-3.8-3.6-6.3-7.05"/><path fill="#ed8599" d="M141 103.2q.5 2.8-1.15 6.95-1.85 4.65-4.55 4.8-3.05.15-4.95-4-1.5-3.4-1.65-7.5l6.3.45z"/><path fill="#f9be00" d="M84.8 110q-1.35 14.3 4.95 19.75 2.9 2.6 6.75 4.65 3.8 2 7.2 2.8-6.35 0-11.55-1.3-7.1-1.75-9.45-5.55-1.85-3.05-.6-10.6 1-6 2.7-9.75"/><path fill="#595757" d="m89.2 99.25.55 14.9q.6 10.45 1.6 11.55 1.15 1.25 10.7 5.45 9.05 3.95 14.2 5.65l-5.5.55-5.5.15q-6.15-1.5-10.1-3.55-5.6-3-8.05-7.65-3.05-5.75-2.7-12.35.4-7.2 4.8-14.7"/><path fill="#fff" d="M223.5 41.05q-.9 7.1-8.5 16.95-7.8 10.1-15 12.75-3.05 1.1-8.05.9-6.3-.2-10.3-2.8l.75-9.6q.25-6.2-.05-9.7 8.4-6.35 16.3-10.65 9.3-5.1 15.95-6.2 4.4-.7 6.5.45 3.15 1.75 2.4 7.9"/><path fill="#d7a400" d="M91.75 76.3q7.25 3.75 14.1 6.9L89.3 98.25 75.8 90.8q-11.4-6.1-13.9-7.6l9.25-7 8.95-6.85q1.85 1.85 11.65 6.95M138 129.35q-10.95 7.1-17.4 8.1-5-.55-13.9-4-9.85-3.8-15.35-7.9l15.95-12.2q4.6 3.6 13.3 8.4 9.35 5.2 12.2 5.3 2.75.05 10.05-3.55 5.95-2.95 11.15-6.35-6.9 6.35-16 12.2"/><path fill="#3e3a39" d="M103.4 137.2q-5.65-1.8-9.5-4.4-3-2-5.65-5.05l3.55-1.55q14.4 7.65 24.95 10.8-5.45.65-13.35.2"/><path fill="#d7a400" d="m81.95 128 6.3-.25q2.65 3.05 5.65 5.05 3.85 2.6 9.5 4.4-8.85-.55-14.3-2.45-6.85-2.45-7.15-6.75"/><path fill="#cc5d00" d="M63.75 66.3q2.25 2.45 5.2 1.95 3.35-.6 4.65-5.15 0 3.95-1.6 6.55-1.3 2.1-2.9 2.3-1.4.2-2.9-1.25-1.6-1.6-2.45-4.4"/><path fill="#922f00" d="m129.05 107.55-.4-2.8v-1.5q2.85 1.05 7.9.65l4.45-.65q.5 2.45-2.05 8.55-1.25-3.3-4.5-4.35-2.8-.9-5.4.1"/><path fill="#d7a400" d="M94.45 34.3q-5.4 3.15-7.3 11.35Q85 55 90.2 63q5.05 7.75 15.95 9.1 10.55 1.3 18.05-4.1-2.2 2.05-5.35 4.05-6.2 4.05-10.75 3.9-4.85-.1-13.4-5.05-7.65-4.4-8.75-6.3-.8-1.25-.85-12.35-.1-11 .5-12.25.45-1 4.7-3.45 2.1-1.2 4.15-2.25m26.6 44.85q-5.6 3.25-7.15 12.4-1.6 9.45 2.85 16.3 5.2 7.95 16.05 9.25 10.35 1.25 18-4.25-3.3 3.1-7.1 5.05-5.25 2.7-10.45 2.55-4.8-.15-12.7-4.9-6.85-4.15-8.05-6.1-.75-1.25-.85-12.4-.05-10.95.5-12.25.45-.95 4.7-3.4 2.15-1.2 4.2-2.25m44.9-2.95q-4.95 2.65-7.35 2.6-4.75-.15-13.05-5.35-7.25-4.55-8.4-6.55-.75-1.25-.5-12.1.25-10.65.85-12 .45-1 4.45-3.35l3.9-2.15q-5.55 3.25-6.95 12.75-1.45 9.75 3.2 16.5 4.7 6.8 13.85 8.2 9.55 1.45 17.55-4.3-2.3 2.95-7.55 5.75"/><path fill="#dbdcdc" d="M182.2 65q6.2-.85 17.7-6 15.6-7 22.6-15.75-.6 5.35-8.7 15.65-8.8 11.15-15.55 12.55-5.25 1.1-11.4-.6l-5.15-1.9z"/><path fill="#ce7486" d="m129.9 110.35-.95-2.7q6.7-1.45 10.2 3.75-1.55-1.35-4.5-1.7-3-.3-4.75.65"/><path fill="#0d131a" d="M181 43.25q-1.65-2.8-10.6-8.75-8.95-6-11.8-6.25-2-.15-10.4 2.85-7.5 2.75-13.6 5.55-.65.3-1.2 0-20.6-12.7-26.65-12.7-3.9-.05-15 6.5-10.2 6.05-11.15 7.65-1.35 2.5-1.1 15.75.25 13.1 1.45 15 .9 1.35 10.65 6.55l14.6 7.35q.4.1.4.6-.15 9.65.2 18.15.4 10 1.25 11.25 1.35 2.05 11.65 7.7 10.45 5.7 13.2 5.7 3.65 0 13.85-5.55t11.45-8.2q.55-1.15.9-11.55l.3-15.45q0-.45.45-.6 18.7-9.2 19.95-11.4 1.25-2.25 1.8-15.3.5-13-.6-14.85m-9.85-10.3q9.45 6.4 11.2 9.35 1.25 2.1.95 15.3-.35 13.55-2.1 16.6-1.7 2.9-20.2 11.75.25 4.9-.1 15-.4 10.75-1.1 12.3-1.3 2.85-12.15 8.85-10.9 6-14.75 6-3.1 0-14.1-6.15-10.7-6-12.2-8.25-1.3-1.9-1.8-13.9-.45-11.25.2-15.9l-14.25-7.15Q80.9 71.5 79.7 69.6q-1.7-2.7-1.9-16-.2-13.45 1.55-16.6 1.05-1.85 11.8-8.25 11.5-6.8 15.6-6.75 5.9.1 27.3 13.3 5.5-2.45 11.7-4.95 10.65-4.25 12.95-4.1 3 .25 12.45 6.7M76.45 71.6q1.8-1.2 1.95-.9l-1.5 1.55-8 6.05q-2.9 2.15-3.15 1.95t2.35-2.55q2.95-2.55 8.35-6.1"/><path fill="#0d131a" d="M91.85 96.5q-1 .95-1.25.7-.25-.3.7-1.3l5.4-5.35 5.8-5q1.35-.95 1.6-.8t-1.05 1.4zm-.25 29.55-.5-1.05q7.25-6 11.75-8.85 1.75-1.1 1.95-.8t-1.6 1.75q-6.9 5-11.6 8.95"/><path fill="#0d131a" d="M84.05 119.1q-.45-4.65.75-9.65l1.55-3.85q-1.6 6.15-1.15 11.55.45 5.5 3 9.4 5.3 8.3 18.9 10.5l-3.2.2q-5.4-.7-10.1-3.4-4.55-2.7-7-6.45-2.25-3.5-2.75-8.3m22.9-89.35q-3.2.5-11.35 4.65-8.3 4.25-9.1 5.95-.6 1.35-.65 12-.1 10.8.65 11.95 1.55 2.4 10.7 6.75 8.85 4.15 11.3 4.1 9.85-1.2 15.5-8.35 4.85-6.2 4.85-13.9 0-10.05-6.9-16.45-6.05-5.55-15-6.7m-21.8 9.7q.9-1.9 9.85-6.6t11.5-4.65q8.2.15 15.6 6.45 8.55 7.4 8.5 18.35-.05 9.1-5.9 15.65-6.15 6.8-16.2 7.95-3.85-.15-12.7-4.5-8.9-4.4-10.55-7.05-.85-1.3-.85-12.55-.05-11.35.75-13.05"/><path fill="#0d131a" d="M107.65 61.45q-2.95-.05-5.05-1.35-1.9-1.15-2.35-2.8-.2-.85.05-.95.3-.15.7.65.7 1.3 2.45 2.25 1.95 1.1 4.2 1.05 4.55-.1 6.75-3.15.4-.6.65-.4.2.2-.1.85-.85 1.7-2.85 2.8-2.05 1.1-4.45 1.05m5.5 24q-.75 1.6-.6 11.8.15 10.3 1.05 11.95 1.3 1.9 8.95 6.15 7.8 4.35 10.35 4.3 8.75-.1 15.1-5.55 6.9-5.95 7.25-15.45.35-10.45-7-17.25-6.65-6.15-15.35-6.15-3.25.1-11 4.05t-8.75 6.15m-1.4-.6q1.35-2.95 9.7-7.15 7.95-4.05 11.25-4.05 9.65 0 16.6 6.45 7.8 7.2 7.4 18.8-.3 9.5-7.2 15.85-6.85 6.4-16.85 6.45-2.7.05-10.6-4.35-7.9-4.45-9.75-7.05-.95-1.35-1.3-11.8-.4-10.7.75-13.15"/><path fill="#0d131a" d="m140.45 103.9-4.25.55-6.95-.4q.2 4.2 1.95 7.35 1.8 3.15 3.95 3.1 1.8-.05 3.5-3.2 1.7-3.25 1.8-7.4m2.1-.65-.75.25q.1 4.45-2.15 8.25-2.15 3.65-4.5 3.7-2.7.05-4.95-3.3-2.4-3.6-2.35-8.45 0-1.1 1.45-.75l6.45.4 6.55-.85q.65-.15.8.2.1.35-.55.55M127.1 97.8q.05 1.75-.75 3t-1.95 1.25q-1.15.05-2-1.15-.85-1.25-.85-3-.05-1.75.75-2.95.8-1.25 1.95-1.3 1.15 0 1.95 1.2.85 1.25.9 2.95m20.85-.2q.1 1.7-.65 2.95-.7 1.2-1.8 1.25-1.05.05-1.85-1.15-.8-1.15-.85-2.85t.65-2.95q.7-1.2 1.8-1.25 1.05-.05 1.85 1.15.8 1.15.85 2.85m-49.5-48.7q.8 1.25.8 3t-.8 2.95q-.8 1.25-1.95 1.25t-2-1.25q-.8-1.2-.8-2.95t.8-2.95q.85-1.25 2-1.25t1.95 1.2m20.9.2q.75 1.2.8 2.9t-.7 2.9-1.8 1.25q-1.1.05-1.85-1.15-.8-1.2-.85-2.9t.7-2.95q.75-1.2 1.8-1.2 1.1-.05 1.9 1.15m31.7 4.75q-.05 1.7-.9 2.85-.8 1.2-1.95 1.15-1.1-.05-1.9-1.25-.75-1.2-.7-2.95.1-1.7.9-2.85.85-1.2 1.95-1.15 1.15.05 1.9 1.3.8 1.2.7 2.9m19.55.85q-.05 1.75-.75 2.9-.75 1.2-1.75 1.2-1-.05-1.65-1.25-.7-1.2-.65-2.9 0-1.7.75-2.9.7-1.2 1.7-1.2 1 .05 1.7 1.25t.65 2.9"/><path fill="#0d131a" d="M171.15 71.85q5.65-5.45 6.35-13.9.8-10-5.5-16.85-5.7-6.15-14.45-7.3-3.05-.25-10.75 3.8-7.3 3.85-8.25 5.55-.95 1.75-1.15 11.6t.65 11.8q.85 2.05 8.8 6.9 7.85 4.85 9.8 4.65 8.85-.8 14.5-6.25m8-13.8q-.6 9.7-7.95 15.7-6.25 5.1-14.55 5.7-2.4.2-10.85-4.95t-9.35-7.25q-.75-1.8-.6-11.95.15-10.7 1.45-12.85 1.45-2.35 9.05-6.4 7.9-4.3 11.3-4 8.85 1.35 14.9 7.4 7.35 7.3 6.6 18.6"/><path fill="#0d131a" d="M164.5 60.8q.6-.6.85-.4t-.25.9q-1 1.55-3 2.3-2.1.85-4.6.5-4.3-.6-5.6-3.85-.35-.85 0-1 .3-.1.75.7 1.45 2.45 5 2.95 4.25.6 6.85-2.1M110.5.75q1.35 1.15 1.8 3.25.4 1.9-.1 3.45-.5 1.5-1.5 1.75-1.15.3-2.3-.6-1.3-1.05-2-3.45-.5-1.8 0-3.25.45-1.4 1.6-1.8 1.2-.4 2.5.65M172.2 2q1.15-.15 2.15 1.15 1.05 1.35 1.05 3.5-.05 1.9-.85 3.35-.75 1.35-1.75 1.4-1.1.1-1.95-1-1.05-1.3-1.2-3.75-.1-1.9.65-3.25.75-1.3 1.9-1.4"/><path fill="#0d131a" d="M173.5 10.65q-.05 7.5-4.1 16.8-3.95 9.15-9.3 14.5-.85.9-1.25.65-.35-.25.5-1.2 4.9-5.35 8.65-14.2 4-9.3 4.05-16.5zM109.85 8.8l1.35-.5q1.65 5.45 1 14.15-.65 8.6-3.1 14.5-.55 1.45-1 1.3t.05-1.6q2.1-6.05 2.65-14.4.6-8.6-.95-13.45m25.95 81.6q-1.7.3-6.75-3.65-5.25-4.2-7.55-8.15l1.75-.6q2.15 3.6 6.75 7.6 4.25 3.65 5.65 3.75 4.8-1.5 7.2-5.75 2.1-3.85.85-6.3l1.65.6q.85 3.7-2.45 7.8-3.15 3.95-7.1 4.7"/><path fill="#0d131a" d="m89.8 97.65.15.3q.1 7.9.8 17 .7 9.2 1.3 10.2.9 1.5 12.2 6.3 11.75 5 15.8 5.15 3.75.1 14.7-6.25T154 116.9l4.85-3.05q-7.95 8.5-21.55 16.75-12.85 7.7-17.25 7.55-4.45-.15-16.7-5.3-11.85-4.95-12.9-6.65-.75-1.2-1.4-13.25-.45-8.9-.55-14.3-1.5-1.1-14.75-8.2-12.25-6.6-12.7-7.45-.9-1.75-.65-14.35.25-12.5 1.2-15.1 1.2-3.25 19.15-17.7L79.4 39.3q-6.6 5.2-9.95 7.95-6 5-6.65 6.75-.85 2.3-1.1 14.4-.25 12.25.7 14.05.4.75 13.15 7.4 13.2 6.85 14.25 7.8"/><path fill="#0d131a" d="m115.25 136.75 2.65.75q-12.1 1.3-22.3-.35-11.8-1.9-14.35-7-1.75-3.5.45-13.35 2.35-10.65 7.5-18.9l.25 1.7q-4.3 8.55-6.1 17.95-1.7 8.75-.15 11.9 3.95 7.95 32.05 7.3M73.3 59.45q.1-3.9-.5-6.25-.7-2.5-2.05-2.65-1.95-.2-4.1 2.65-2.4 3.15-2.8 7.6-.4 4.6 1.35 7.8 1.55 2.95 3.65 2.85 1.95-.1 3.2-3.9 1.15-3.4 1.25-8.1m.8-6.65q.85 2.75.7 6.65-.1 5.1-1.55 8.85-1.6 4.25-4.2 4.4-2.8.15-4.65-3.2-2-3.5-1.55-8.75.35-5 3-8.4 2.45-3.25 5.1-3.05 2.15.15 3.15 3.5m148.25-10.9q.65-2.8.5-4.45-.3-2.35-2.25-3.55-3.65-2.15-13.7 1.7-11.6 4.45-24.35 14.75l-.1-1.35q13.35-11.05 25.35-15.45 9.9-3.65 13.8-1.5 4.35 2.35 2.5 10-2.25 9.3-11 19.3-9.15 10.5-16.85 11.05-8.7.55-14.5-2.75l-.05-1.35q5.8 3.1 14.5 2.55 6.95-.45 15.65-10.4 8.35-9.6 10.5-18.55m-93.55 65.4q3.6-1.15 6.45-.05 2.7 1.1 4.25 4.1l-.25.35-.55-.1q-1.4-2.35-4.05-3.3l-5.55-.2q-.25.05-.35-.35-.15-.35.05-.45"/><path fill="#fff" d="M1.4 38.15q-1.25-5.05 1-7.05 1.75-1.6 5.95-1.3 12.2.85 35.7 13.7 9.8 5.35 16.1 10.05 6.7 5.05 6.55 7.2-.3 4.3-15.65 8.8-15.7 4.6-24.85 2.2-7.4-1.95-15.9-15.15-7.15-11.05-8.9-18.45"/><path fill="#dbdcdc" d="M25.25 71.1q-7.9-3-15.25-14.65Q6.55 51 1.35 39.65q11.1 12.4 36.1 17.7 9.35 1.95 17.7 2.25 7.65.25 9.8-.95.35-.15 1.15.65.9.85.75 1.55-.3 1.8-5.25 4.3-4.75 2.4-11.5 4.35-16.75 4.7-24.85 1.6"/><path fill="#0d131a" d="M40.2 42.3q-10.85-5.8-21.1-9.15Q6.05 28.85 2.95 32q-1.85 1.9-.2 7.7 1.5 5.4 5.5 12.1 9.35 15.9 18.3 19 7.85 2.75 23.85-1.95 6.3-1.9 10.9-4.15t4.85-3.65q.35-1.8-6.75-7-7.55-5.6-19.2-11.75M1.35 30.4q3.95-4.15 19.35 1.35 9.6 3.4 20.4 9.15 11.05 5.85 18.5 11.4 8.3 6.2 7.85 8.95-.3 1.75-5 4.35-4.65 2.6-11.2 4.7-16.45 5.25-25.3 2.1Q15.7 68.8 6.1 52.05 2 44.9.6 39.05q-1.5-6.3.75-8.65"/></svg>