<svg xmlns="http://www.w3.org/2000/svg" width="322" height="321" viewBox="0 -0.85 322.4 320.8"><path fill="#f9be00" d="M201.2 177.15q2.3 11 2.9 22.9 1.85 38.15-14.05 71.2l-4.4 7.6q-5.6 9.1-11.65 16.6-19.25 24.1-35.3 23.4.35.55-2.75-.75-6.2-2.55-23.35-11.75l-1.95-.45q-2.45-.4-5.1 0l-17.25 2-14.1 1.5q-6.5-2-15.9-7.95-18.75-11.85-33.05-31.3-.9 0-1.15-5.4-.5-10.8 2.9-37.85.1-.45-3-4.9-6.15-8.95-22.2-29.1-.7-7.4.6-17.3 2.65-19.85 12.75-32.5l20.2-4.4q5.25-16.25 11.95-24.3 2.05-2.55 4.05-3.95l1.55-.9q13.15-3.85 33.7-3.05 41.05 1.6 77.95 24.95l34.5 37.1z"/><path fill="#fff" d="M321.2 93.6q.9 2.75-1.2 7.7-2.05 4.95-6.2 10.05-10.1 12.45-22.1 15.2l.95.75q.9 1.05.35 2.45-3.05 5.75-11.4 9.3-6.45 2.75-10.45 2.65-2.1-.05-12.6-11.3l-10.1-11.25-1.55-4.6 4.55-2.95q5.85-3.55 12.45-6.75 20.95-10.3 41-13.2l7.55-.75q7.8-.15 8.75 2.7M168.8 1q10.7 2.9 18.5 46.25 3.95 21.7 5.7 42.8l-17.1 14.7q-5.15-1.85-11.25-4.7-12.15-5.65-16.8-10.5-4.8-5.05-4.7-18.25.1-8.75 2-17.6.95-4.3 3.8-3.4 1.45.45 2.65 1.75-2.95-6.3-2.65-13.6.35-8.15 4.85-21.4 3.9-11.5 9.85-14.9Q166.6.4 168.8 1"/><path fill="#f9be00" d="M177.4 102.05q12.7-12.5 30.55-12.5 17.8 0 30.45 12.5 12.65 12.55 12.4 30.2-.2 17.55-12.85 29.95-12.65 12.35-30.45 12.35-17.6 0-29.9-12.35-12.15-12.25-12.55-29.95-.4-17.6 12.35-30.2"/><path fill="#ec6c00" d="M180.7 116.4q1.9 16.8-10.5 34.85-4.85-3.2-7-12.95l-1.2-9.1q3-.8 3.15-1.6.1-.75-3.15-1.8 1.3-9.65 7.95-17.1 3.35-3.75 6.4-5.55l1.85 3.45q1.95 4.5 2.5 9.8m61.55 43.6q-3.05 6-9.3 10.55-6.6 4.85-15.15 4.75l-5.25-.55-2-.5q14.1-1 25.2-10.3 5.55-4.65 8.25-9.1-.25 2.1-1.75 5.15m-39.7-33.95 14.05 10.4.3 9.2-7 6.6-5.9-4 .1 4q-8.05-.2-9.85-1.45-1.85-1.3-2.8-7.85l3.35-1.85-5.05-3.75 4.9-9.45 3.65-1.35z"/><path fill="#d83338" d="M194.3 123.25q4.45.25 4.25 8.1-.1 3.95-1.1 7.8-1.45-.5-3.05-1.75-3.15-2.5-3.65-6.1-.55-3.55 1.45-6.15 1-1.3 2.1-1.9m27.45 22.85q-.6 1.45-2.5 2.8t-3.15 1.15q-2.55-.35-4.95-1.25-3.85-1.45-5.55-3.8l4.15-2.05q4.8-1.85 8.15-.85 2.95.9 3.75 1.75.75.8.1 2.25m2.35-42 6.15.7 2.5 7.6q2.4 7.85 1.8 8.95-2 2.4-10.1 8.75l-7.7 5.9q-8.95.45-10.85-.75-1.2-.8-2.25-4.85l-.85-3.95q1.7-5.3 6.7-14.2 2.45-4.45 4.6-7.85z"/><path fill="#fff" d="M215.5 144.3q0 .95-.65 1.6t-1.6.65-1.6-.65-.65-1.6.65-1.6q.65-.7 1.6-.7t1.6.7q.65.65.65 1.6M199 131.85q0 .95-.65 1.6t-1.6.65-1.6-.65-.65-1.6.65-1.6 1.6-.65 1.6.65.65 1.6"/><path fill="#595757" d="M192.95 74.3q5.25-.55 9.05.8 2.85 1 4.4 2.8 1.6 1.85 7.85 16.35-1.55-.85-4.3-1.4-5.5-1.1-11.65.45-6.4 2-10.5 9.4l-2.8 6.95-1.25-9.05q-1.2-10.05-.9-15 .35-4.95 5.25-8.65 2.45-1.8 4.85-2.65M269 145.5q-2.35 2.85-5.75 4-2.15 1.1-13.65 2.45l-11.05 1.15q4.7-2.4 7.6-6.3 3.45-4.6 4.75-11.75 1.15-6.4-1.25-12.3l-2.6-4.6 15.55 2.25q3.6 1 6 2.9 4.8 3.9 4.35 10.8-.45 7.15-3.95 11.4M120.95 82.3l2.55 2.05q2.55 3.05 2.8 8 .4 6.7 2.65 14.15 2.65 8.5 6.55 13.4 7.95-.35 19.85 3.55 11 3.6 10.3 4.5-.6.9-10.35 2.35l-17.85.75q-6.6-.85-8.45-3.85-.55-.95-.6-2l.1-.85q-11.6-7.55-18.85-20-2.3-3.9-3.85-7.75l-1.1-3.15 2.5-4.7q6.9-3.2 13.75-6.45M242.4 192.75l6-.3q7.25-.7 13.45-2.65 15.65-4.95 19 0 1.45 2.15 2.5 9.65l.8 7.05q-13.55 4.55-30.45-2.2-5.3-2.1-10.3-5.1l-3.95-2.55q-6.1.5-9.8-11.2-1.2-3.65-1.95-8.1l-.55-3.7 2.25-1 7.2 7.4q6.95 8.25 5.8 12.7"/><path fill="#ec6c00" d="M100.55 90.25q-.5-4.15.1-6.4.3-1.35 2.95-3.65 2.55-2.3 3.35-2.2.95.1 4.55 2.15 1-1.4 2.75-1.95l1.5-.3 3.9 1.3.5 1.45.6 2.35q.15.95-.7 2.25-1.05 1.55-3.9 4-2.55 2.2-4.25 5.15l-1.15 2.5q-1.55-1-2.65-4.4l-.85-3.25-3.9 7.55q-2.2-1.4-2.8-6.55m178.05 106.8-2.05-2.6q-1-1.75 1.05-4.1l2.2-2q4.6.6 6.2 4.15.8 1.75.7 3.4l3.25 2.25.7 1.25q.4 1.95-1 5.35-1.4 3.45-3.65 4.95l-2 .8q.65-1.55.1-5l-.7-3.15q-1.7 2.05-3.25 2.4l-1.25-.05q.45-2.7.5-5.25.05-1.45-.8-2.4"/><path fill="#595757" d="M200.1 174q3.2 9.55-2.15 15.5-5.4 5.95-16.25 4.5-10.8-1.4-19.6-11.25-8.75-9.7-8.85-20.1-.1-8.6 6.35-13.1 3.2-2.2 6.45-2.75l1.4 1.8q1.55 1.9 2.45 2.2l1.5 3.2q2.1 3.9 5.05 7.3 9.35 10.85 23.65 12.7"/><path fill="#595757" d="M74.65 119.15q2.55-4.2 14.45-8.3 5.95-2.05 11.35-3.25l12.5 2 2.55 3.05q2.9 3.25 4.55 4.1-5.5 1.35-11.05 6.7-11.05 10.75-11.2 30.95-.2 23.8 14.5 46.7 14.35 22.3 35.6 33 19.5 9.85 36.75 3.15 7.3-2.85 12.35-8.2 4.9-5.2 6.35-11.4l-.15 3.75q-.4 4.95-1.4 10.7-3.3 18.45-12 38.35-8.6 9.05-24.8 14.55-11.2 3.8-17.05 4-2 .05-7.45-5.15l-5.05-5.2-21.9 3.3Q96.6 277.9 78.6 262.2q-6.8-5.9-11.75-11.8-4.5-5.35-5.05-7.75-.85-2.4.15-15.85l1.2-12.95q-4.4-3.9-10.7-11.35l-5.4-6.7q-6.85-17.9-1.45-40.45 1.7-7.05 4.4-13.7l2.4-5.25 15.95-2.05z"/><path fill="#d7a400" d="M178.45 145.4q2.4 7.55 8.55 11.85l.8-4.1q4.1 3.7 8.9 6.3l-3.3 1.95q5.2 2.2 10.85 2.6l4.6-.1 9.25.95q12.05 0 22.3-5.95-4.05 4.85-11.1 9.2-14.1 8.65-29.05 6.05-15-2.6-24.05-12.8-2.85-3.2-4.75-6.75l-1.35-2.95q1.15-1.35 7.15-12.95z"/><path fill="#d7a400" d="M184.25 125.95 183 128.5q-1.4 3.25-1.9 6.8-1.65 11.45 5.7 21.75-2.3-1.2-4.55-3.8-4.55-5.2-4.4-12.1.2-6.9 3.3-11.75 1.6-2.4 3.1-3.45m14.65 37.5-5.05-2.05 3.1.55q3.8.45 7.5.15 11.75-.95 17.7-9.35-.25 1.9-1.6 4.15-2.75 4.5-8.45 6.2-6.8 2-13.2.35"/><path fill="#cc5d00" d="M205.6 135.05q1.4.85 11.05 1.05l.65 5.7q-1-.8-6.5.7-5.55 1.55-5.2 2.65.65 1.4 4.15 3.15l3.35 1.45-3.1 2.6-5.9-4 .1 4-7.2-.4-2.6-1q5.6-9.35 11.2-15.9"/><path fill="#b7272d" d="M230 104.55q1.3 1.2 2.9 9l1.4 7.6-7.2 6.9q-7.75 6.95-10.45 7.5-1.6.25-6.5-.1l-4.55-.4q7.9-13.3 16.95-23.25 4.5-4.95 7.45-7.25"/><path fill="#d7a400" d="m222.55 148.35-.55-2.4 9.35.25q10.35.15 15.45-.25-1.4 2.15-4.55 4.85l-2.9 2.25-17.35.85q.9-2.6.55-5.55m-34.65-45.2 2 7q2.4 7.85 4.25 12.4l-2.3.1q-2.6.2-4.1.75l-2.8-12.95.75-3.05q1-3.3 2.2-4.25"/><path fill="#3e3a39" d="M242.05 151.15q3.05-2.5 4.75-5.2l8.3-.35 14.7-1.35q-.45 1.2-1.55 2.5-2.15 2.6-5.1 3.2l-13.7 1.9-10.1 1.2zM183.6 99.3q-1.2-11.85-.25-15.3l4.55 19.15-1.35 2.75q-1.4 3-1.6 4.55-.75-5.25-1.35-11.15"/><path fill="#dbdcdc" d="m177.45 102.1-2.85 1.95q-14.7-5.15-25.25-13.55-4.45-3.55-5.75-10.85l-.35-6.55.35 2.85q.85 3.6 3.45 7.15 8.2 11.55 30.4 19m5.35-8.15.4 3.25-1.35.6q-7-8.1-12.2-15.45-6.6-9.2-14.25-22.4-6.85-11.8-6.25-24 .3-6.05 2-9.8l-.7 4q-.35 5.45 1.45 12.35 5.8 22.25 30.9 51.45m102.1 30.55q15.15-1.35 22.2-6.85-6.25 5.1-10 7.35-2.45 1.45-14.1 2.15l-11.2.35-1.15-2.7 4.2.15zm-.2 13.25q-6.6 3.95-13.5 3.45l1-2.5 6.05-.75q7-1.35 11.7-4.25-1.95 2.1-5.25 4.05"/><path fill="#cc5d00" d="M240.5 162.4q-6.4 9.05-17.2 11.85l-6.75 1h-2.75l-.65-1.3q5.1 0 12.2-3.35 3.55-1.65 6.05-3.35 3.15-.5 6.45-2.7zm-74.85-35q0-.5-3.25-1.6.2-1.75 1-4.45l.8-2.4.1 2.3q.3 2.85 1.2 5.6 2.85 8.85 10.55 13.4l-5.95 11.4q-5.75-6-7.6-14.9l-.75-7.7q3.9-1.15 3.9-1.65m-56.3-45.65-1.4 2.8-.1 4.85q-.85.85-2.95 3.95l-1.95 2.9q.2-7.35 3.3-11.65 1.6-2.15 3.1-2.85m1.15 14.95q-.35-3 .65-6.65 1.95-7.25 8.5-10.3l.65 1.8q.55 2.1-.05 3.5-.25.65-4.1 4.15-3.8 3.45-5.05 6.8zm167.8 93.25v.15l1.2 1.05q1.4 1.4 2.15 3 2.45 5.15-2.1 10.55-.25.1-.4-.45-.35-1 0-3.95.3-2.75-.75-3.8-1.45-1.45-1.65-2.25-.4-1.65.55-3.15.45-.75 1-1.15m6.1 17.75q-.2-3.2-1.35-5.15l3.15-4.35.95 3.7q.35 4.55-2.8 8.65z"/><path fill="#3e3a39" d="m106.15 97.65-1.4-3.55 2.65-4.95q1 4.05 2.3 6.25.6 1.15 1.05 1.45.55-1.85 2.05-3.85l1.45-1.6.3 2.7q.65 3.5 2.4 7.45 5.65 12.65 20.2 25.2-1.1 1.2-3.6.4l-2.25-1.05q-12.2-6.55-20.6-19.9-2.65-4.2-4.55-8.55"/><path fill="#3e3a39" d="M158.25 129.8q-8.75 1.85-17.4 1.55-8.6-.3-11.55-3.55-.95-1.05-1.2-2.2l-.05-1q4.9 3.45 7.75 2.8 1.4-.3 1.85-1.3l8.95 1 18.65.75zm81.7 63.4q-1.7.7-1.4 2.15.15.75.65 1.35-5.7.85-9.45-10.95-1.2-3.65-2.05-8.2l-.6-3.75 1.5-.15 3.5 8.65q4.25 9.05 7.85 10.9"/><path fill="#3e3a39" d="m239.05 194.3 3.45 1.35q4.4 1.55 9.15 2.7 15.15 3.7 27.75 1.8l-.5 4.5h1.25q1.6-.35 3.25-2l.65 1.3q.55 1.5.3 2.7-4.6 1.7-12.3 1.45-15.45-.5-31-10.15l-1.15-1.15q-1.05-1.4-.85-2.5"/><path fill="#d7a400" d="M69.4 116.65q19.55 8.15 28.35 15.4l-24.4 2.15q-26.65 2.6-37.65 4.65 1.05-4.45 3.55-10.3 5-11.7 12.35-18.65z"/><path fill="#3e3a39" d="M68.6 134.7q1.05-4.65 3.6-10.55l2.35-4.95q7.45 3.55 24.2 13.05L81.6 133.4z"/><path fill="#d7a400" d="M41.65 195q43.1 2.6 61.65 7.9-13.5 3.65-29.75 8.45Q40.95 220.9 27 226.5q-2.15-4-6.2-9.15L2.3 193.4z"/><path fill="#3e3a39" d="m85.2 199.8 18.1 3.1-40.05 11.7q-4.45-3.55-10.75-11.5l-5.45-7.3q16.7.7 38.15 4"/><path fill="#d7a400" d="M143.2 266.7q-15.9 26.85-32.55 39.35l-38.9 3.25q11.9-6.4 28.35-18 32.9-23.15 55.7-48.95l-3.3 7.15q-4.3 8.8-9.3 17.2"/><path fill="#3e3a39" d="M135.6 278.95q-18.5 3.05-21 2.25l41.45-38.65-7.45 15.1q-8.35 16.1-13 21.3"/><path fill="#0d131a" d="M175.05 103.35q.3.1 0 .85-.3.8-.6.7-9.35-3.05-17-7.45-9.4-5.4-12.7-11-3.2-5.5-2.6-19.05t4.15-17.1q.95-.9 2.15-.85 2.3.25 5 4.3.15.25-.45.65l-.8.15q-2.3-3.5-3.9-3.6-.5-.05-.95.35-2.95 3-3.45 15.8-.5 13.05 2.55 18.3 2.8 4.8 10.6 9.7t18 8.25"/><path fill="#0d131a" d="M169.45.25q8.75 2.5 16.25 34.8 4.8 20.8 6.75 39.9.05.3-.85.35l-.9-.25q-1.95-18.7-8.1-42.85-7.55-29.3-13.7-30.45-3.3-.6-6.7 2.85-5.85 5.85-9.6 18.9-3.55 12.5-2.15 20.2 2.2 12.15 14.05 30.05 7.65 11.6 17.9 23.6.2.25-.35.7-.55.5-.75.25-29.2-33.95-32.8-53.8-1.5-8.25 1.95-20.7 3.7-13.4 10.45-20.45 4.2-4.2 8.55-3.1M294.4 92.9q17.7-4.5 24.45-2.1 3.4 1.25 3.45 4.85.1 6.65-8.45 16.85-8.4 10.05-16.3 13.25-3.45 1.4-11.3 2l-14.15.55q-.3 0-.35-.7-.05-.75.25-.75 18.15-.3 24.05-2.65 7.9-3.2 16.4-12.95t8.4-15.55q-.05-2.7-2.5-3.5-5.75-2.1-25.2 3.35-22.95 6.45-46.1 19.4-.25.15-.55-.6-.25-.75 0-.9 25.25-14.8 47.9-20.55"/><path fill="#0d131a" d="M289.25 127.15q.25 0 .9-.55.6-.55.4-.6l1.75.4q2.05.7 1.6 2.7-.75 4.45-8.65 8.95-7.75 4.5-13.4 4-.35 0-.25-.75.05-.75.35-.7 5.35.45 12.85-4.3 6.95-4.45 7.7-7.5.2-.85-1.55-1.35zm-87.7-51.3q-3.35-1.3-7.2-.6-4.15.75-7.1 3.55-3.3 3.15-3.5 7.7-.35 7.5 1.3 18.4 1.4 9.55 3.8 18.35l-.7.55-.9-.05q-2.35-8.65-3.75-18.6-1.55-11.05-1.2-18.75.2-5.15 3.8-8.8 3.25-3.35 7.8-4.2 5.3-.95 9.5 1.25 3.85 2.05 5.6 6 6.85 15.85 10.65 23.3.15.25-.8.4l-1.05-.1q-3.65-7.05-10.45-22.85-1.75-4.05-5.8-5.55m1.9 72.55q0-.7.25-.85l.9.25 5.25 3.5 3.1-2.25.85 1.2-3.5 2.55q-.35.35-.8 0l-4.8-3.55.4 6.75q0 .4-.4.65-7.85 3.75-9.9 4.85 4.85 2.1 10.3 1.95 5.5-.15 9.65-2.5 3.2-1.8 4.85-3.9 1.8-2.35 2.25-5.6l.25-1.25.4-.3q.25 0 .25 1.65-.55 7-7.15 10.75-4.8 2.7-10.8 2.65-5.95-.05-11.4-2.85-.6-.3-.6-.6 0-.35.6-.7l10.25-5.25z"/><path fill="#0d131a" d="M233.45 116q-.3-.05-.3-.9t.3-.8q8.7 2.65 29.05 5.3 5.1.7 8.1 4.5 2.9 3.65 3.1 9.3.2 5.95-3 10.95-3.5 5.5-9.5 6.7-8.9 1.8-17.45 2.6l-15.9.8h-6l.1-1.7 5.85-.2 16-.75q8.5-.7 17.2-2.45 5.45-1.05 8.55-6 2.85-4.45 2.65-9.9-.15-4.5-2.35-7.75-2.6-3.8-7.45-4.45L246.85 119q-8.05-1.35-13.4-3m-44.5 6.95.95-.15q.7 0 .75.25 0 .5-1.25.8-4.2 1.15-7 4.7-2.75 3.45-3.55 8.4l-.25 3.25q0 4.35 1.85 8.5 2.1 4.7 6.05 7.7l1.4-12.55q0-.35.4-.55l5.7-2.15-4.65-3.3q-.3-.15-.3-.55l.1-.35 1.75-3.55.4-.35.55.05q.4.15.4.65l-.05.3-1.5 3.05 4.4 3.5.5.65-.65.6-5.65 2.6-1.7 12.75q-.1.55-.4.7l-.75-.2q-5.75-3.8-8.05-10.1-1.9-5.3-1-10.85.85-5.35 3.9-8.95 3-3.6 7.65-4.85"/><path fill="#0d131a" d="M190.8 142.75q-.05-.3.8-.45t.85.15q.1 2.3.7 4.55.65 2.45 1.4 3.15 1.75 1.8 9.6 1.25.3-.05.35.75t-.3.85l-5.85-.15q-3.3-.55-4.65-1.85-1.05-1.05-1.9-3.5-.9-2.45-1-4.75m11.95-17.25q.3-.05.4.55t-.2.65l-4.75.6q-.35.05-.4-.7-.1-.7.2-.75zm13.15 10.35q-.05-.3.6-.35.6-.05.65.25l.75 5.8q0 .3-.75.4-.7.05-.75-.25z"/><path fill="#0d131a" d="M232.15 113q-1.65-6.8-2.5-7.55-.85-.6-7.25-.7l-7.85.5q-1.15.7-5.95 10-4.75 9.15-5 10.8-.15.95.55 3.95.85 3.55 2 4.55.6.5 4.95.65l5.3-.15q1.6-.4 9.1-6.55 7.5-6.1 7.95-7.35.35-1.35-1.3-8.15m-1.65-8.7q1.25.95 3.05 7.65 1.65 6.35 1.65 9.1l-.05.6q-.45 1.6-8.55 8.05-8 6.3-9.8 6.75-1.3.35-5.65.1-4.75-.3-5.75-1.15-1.45-1.25-2.5-5.05-.9-3.25-.75-4.5.2-1.45 4.9-11.2 5-10.35 6.6-10.95l8.5-.5q7.1.15 8.35 1.1m-40.25-6.8q3.2-3.4 7.55-4.95 4.75-1.7 9.8-.95 4.5.7 6.95 2.85.2.2-.25.6-.5.4-.75.2-2.05-1.85-6.25-2.3-4.6-.45-9 1.1-4.95 1.8-8.3 6.6-3.2 4.6-4.1 10.7-.05.3-.7-.4-.65-.75-.6-1.05 1.1-7.6 5.65-12.4m48.8 56q-.3.1-.6-.55-.25-.7 0-.8 6.15-2.55 9.3-9.3 2.65-5.6 2.55-12.2-.05-4.45-1.4-7.9t-3.35-4.2q-.3-.1 0-.65t.6-.45q2.55.95 4.15 4.6 1.65 3.65 1.7 8.7.1 7-2.7 12.75-3.35 6.95-10.25 10"/><path fill="#0d131a" d="M222.95 110.05q1.55-1.55 4.85-4.05 1.35-.9 1.65-.6l-.25.75-.65.7q-4.9 4.3-9.4 9.85-1.25 1.45-1.7 1.15-.2-.15.2-.95l.7-1.15q2.65-3.75 4.6-5.7m-9.65 12.35.85-.85q.7-.55.9-.4.4.3-.65 1.8-3.35 4.55-5.55 8.1-.95 1.4-1.4 1.15-.35-.3.4-1.65 2.95-5.3 5.45-8.15m-34.45-23.5q1.65-1.55 3.9-2.5.25-.15.65.45.4.55.15.75-4 2.8-6.85 6.2l-.8-1.3q1.65-2.4 2.95-3.6m-8.05 52.15q4.6 10 13.5 15.65 13.1 8.4 28.95 6.3 17.5-2.3 28.8-17.05l2.3-3.45.8.1q.6.35.45.6l-2.4 3.65q-11.95 15.85-30.1 18.3-16.25 2.2-29.9-6.55-8.75-5.6-14-17.6zm41.45-60.2q-.3-.05-.35-.85-.1-.8.2-.8 6.7.6 12.6 2.75 6.2 2.2 10.55 5.7 4.7 3.8 8.35 9.3 3.65 5.4 5.55 11.5.1.3-.8.4-.95.1-1.05-.2-3.8-11.85-13.1-19.45-4.35-3.45-10-5.6-5.65-2.2-11.95-2.75"/><path fill="#0d131a" d="m176.05 102.35.55-.1q.3.1.45.35 5.7 9.2 4.2 22.15-1.55 13.5-10.45 27.15l-.55.35q-.3.1-.6-.2-4.25-4.3-6.45-10.05-2.35-5.95-2.1-12.5 0-.3.95-.4t.95.2l-.05 1.35q0 5.7 1.85 10.8t5.25 8.85q4.8-7.65 7.35-15.9 2.5-8.05 2.5-15.5 0-8.85-3.6-15.15-5.25 3.6-8.65 9.35t-4.35 12.8l-1 .15q-1-.15-.95-.45 1-7.4 4.95-13.55 3.8-5.9 9.75-9.7m21.9 29.65q0-4.5-1.5-7.15-.55-.95-1.15-1.1-.95-.25-2.1.9-2.4 2.5-1.95 6.15.25 1.8 2.1 4.15 1.75 2.2 3.8 3.55.8-2.75.8-6.5m-.25-7.5q1.45 2.5 1.65 6.45.25 4.35-1.2 8.5l-.4.55-.6-.15q-2.5-1.35-4.7-3.8-2.5-2.85-2.75-5.35-.3-3.6 2.4-6.6 1.6-1.7 3.45-1.3 1.35.25 2.15 1.7m8.55 20.7q1.5 1.4 4.8 2.85 3.5 1.5 5.25 1.4 1.1-.05 2.35-.9 1.2-.8 2.05-2 .95-1.45.65-2.45-.15-.55-1.75-1.05l-6.25-.35q-4.3.5-7.1 2.5m-1.05.4q-.35-.55.15-1 3.2-2.65 7.75-3.25l6.6.35q2.35.7 2.75 2l.15.9q0 1.3-1 2.85-2.25 3.25-5.15 3.45-2.3.2-6.2-1.7-3.75-1.85-5.05-3.6m-30.65 13.65q.25-.2.75.35t.3.75q-1.45 1.4-2.7 1.85l-4.3-.2q-1.3-.55-1.15-1l1.5-.05q3.2.7 5.6-1.7m16.35 12.05.75.05q.65.35.55.65-2.1 4.05-1.6 6.3.25 1.4 0 1.45-.25.1-.55-.4l-.35-.8q-.6-2.05-.05-4.15.3-1.2 1.25-3.1m-70.35-88.35q-.3-.05-.15-.75.1-.7.4-.65l2.75 1.45q2.7 2.4 3.25 7.5 1.1 10.2 3.35 17.35 2.45 7.6 6.65 13.1 1.6 2.05 1.65 3.8.1 1.45-.8 2.45-.9.95-2.45 1-1.85 0-4.15-1.4-9.35-5.75-15.25-12.35-7.85-8.7-11.7-20.6-.1-.25.55-.6l.8-.05q2.9 9.6 11 19 7.1 8.25 15.55 13.5 1.65 1 3 1.15 1.2.1 1.75-.5.5-.55.35-1.65-.25-1.3-1.45-2.85-8.75-11.5-10.8-31.1-.45-4.3-2.35-6.45z"/><path fill="#0d131a" d="M166.05 127.6q.1.4-.3.85-1.35 1.45-10.75 2.7l-16.5.9q-3.9-.25-6.25-1.25-2.1-.85-3.65-2.65-.75-.85-1.15-2t-.35-2.15q.05-.3.75-.25.75.05.75.35-.15 1.4 1 2.8 2.5 2.9 8.75 3.3l15.65-.6q8.25-.85 10.55-1.85-2.05-1.35-9.65-3.55-8.55-2.5-16.15-3.65l-3.45-.25q-.3.05-.45-.8-.15-.8.15-.8l1.65-.05 2.55.15q8 1.2 17.05 4.05 9.6 3.05 9.8 4.75m-52.9-49.65q1.45-.55 2.3-.55 1.7-.05 3.9 1.1 1.25.65 1.8 3.05.55 2.3.05 3.55-.25.8-2.75 2.95l-4.1 3.95q-2.3 2.65-2.9 5.1l-.4.75q-.2.05-.8-.4-3.7-3.4-3.15-11.7.05-2.3 2.65-5 2-2.2 3.4-2.8m2.55.8q-.75 0-1.95.55-1.1.5-2.75 2.45-2.1 2.35-2.15 4.15l-.1 2.9q0 5 1.7 7.25.8-2.7 3.15-5.35 1.2-1.4 3.9-3.75l2.35-2.35.1-.8-.3-2.35q-.35-1.3-.85-1.6-1.85-1.1-3.1-1.1"/><path fill="#0d131a" d="m101.1 84.85-.1 1.75q0 2.25.45 4.55.55 2.85 1.6 4.5l1.9-3.95q1.45-2.75 2.35-3.65.25-.2.75.35.55.5.3.7-1.1 1.1-2.9 4.45l-1.55 3.2-.5.6-.7-.4q-2.15-2.3-2.85-6.55-.6-3.3-.2-5.8.4-2.15 3-4.65 2.5-2.5 4.15-2.6 1.9-.15 5.05 2.3.25.2-.05.65-.35.5-.6.3-2.95-1.85-4.3-1.8-1 .1-3.3 2.5-2.35 2.45-2.5 3.55m125.85 92.5-.85-3.75q-.05-.3.65-.45l.75.1.75 2.7q3.25 12.2 4.8 15.4 2.3 4.7 6.3 4.55.3 0 .35.75 0 .7-.3.7-5 .2-7.5-4.05-2.15-3.75-4.95-15.95m1.75-4.55q-.2-.2.3-.7.55-.5.75-.3l2.8 2.7q7.1 7.4 9 10.4 2.5 3.95 1.6 8l-.75.15q-.7-.15-.65-.45.7-3.25-2.3-7.55-1.95-2.8-8.65-9.95z"/><path fill="#0d131a" d="M239.3 194.55q-.15.5.4 1.25l1.8 1.65q9.25 5.8 22.15 8.55 13.65 2.9 20.2-.25.3-.1.6.55t.05.8q-7.6 3.65-20.2 1.05-12-2.5-23.55-9.45-3.3-2.25-2.6-4.55.8-2.5 5.85-2.1 3 .2 8.75-1.05l10.55-2.4q7.4-1.55 11-1.7 3.55-.1 5.45 1.05.25.2-.1.65-.35.5-.6.35l-6.15-.15-9.85 1.95-10.25 2.05-8.9.7q-4.15-.3-4.6 1.05"/><path fill="#0d131a" d="M280.5 188.9q-.95.15-1.9 1.2-.85 1-1.3 2.2-.25.65-.25 1.2 0 .45.15.5l.3.4 1.95 2.25q.65 1.05.7 2.2v.45l-.5 4.9q1.95-.4 3.75-3 1.85-2.6 2.4-5.75l.05-.6q0-1.8-1.8-3.75l-2.15-1.7zm-.15-1.2q.95-.1 2.3.5 1.45.65 2.55 1.8 2.7 2.75 2.15 5.65-.7 3.9-2.9 6.7-2.4 3.05-5.45 3.05l-.6-.15-.1-.7.4-5.6q-.05-.8-.7-1.6l-1.75-1.95-.35-.35q-.95-1.1-.2-3.25.55-1.5 1.8-2.65 1.35-1.25 2.85-1.45"/><path fill="#0d131a" d="M286.15 196.1q-.2-.1.1-.65t.5-.4l2.05 1.3q1.75 1.2 2.05 2.2.4 1.35.3 3.35-.15 1.95-.75 3.35-.75 1.8-2.3 3.45-1.75 1.8-3.7 2.5l-.85.05q-.3-.2-.15-1 .8-3.25-.75-7.5-.1-.3.55-.55.7-.25.8 0 .95 2.55.95 5.7l-.25 2.05 2.45-2.25q1.2-1.5 1.8-2.95.6-1.5.6-3.65l-.25-2.05q-.35-1.1-3.15-2.95m-56.55-22.5q-9.8 4.65-23 1.4-.3-.05-.1-.75.15-.7.45-.65 11.3 2.9 21.5-1.9 11.6-5.45 16.15-19.05.1-.3.6 0t.4.55q-4.75 15.05-16 20.4M54.2 108q10.6-2.8 24.55-2.85 16.55-.05 34.25 3.9l.6 1q.25.9-.05.85-20.3-4.5-41.25-3.2-16.55 1-19.55 3.35-5 3.9-9.3 11.25-4.35 7.35-7.05 16.45-.05.3-1.1.3-1.05-.05-.95-.35 3.25-9.75 6.1-15.3 3.55-6.9 9-12.6l1.85-1.55q1.25-.8 2.9-1.25m78.8 8.6q-.3-.1-.55-1.15-.25-1 0-.9 2.35.9 11.15 5.15.3.15-.2.65-.5.45-.75.3-3.9-1.85-9.65-4.05"/><path fill="#0d131a" d="M199.5 174.5q-.05-.3.65-.45l.75.1q8.5 33.25-.3 68.6-7.2 29-22.85 49.95-9.05 12.15-19.4 19.4-10.35 7.2-19.35 7.7-2.25.15-6.8-2l-9-4.75-7.2-3.9q-3.65-1.85-5.3-2.05l-5.1.35-8.85 1-10.55.9-11.85.85q-9.2-.15-28.1-15.95Q29.15 280 24 271.2q-1-1.8-1-7.05t1.55-21.2l.95-8 .45-6.25-.25-2.65q-.8-1.7-4.9-6.7l-8.15-10q-11.4-14.5-12-16.65-.65-1.95-.65-6 0-9.75 3.6-22.4 4.1-14.35 10-20.75 2.9-3.2 26.1-6.95 26.05-4.2 56.2-5-10.1-6.45-18.65-10.4-5.9-2.7-22.45-9-.75-.3-1-.6-.25-.2-.15-.3l2.3.15q13.9 4.45 24.15 9.35 9.7 4.65 18.45 10.85.85.6.75.95t-.95.45q-17.2.2-46.55 4.1-33.05 4.4-36.95 8.65-6.75 7.35-10.3 24.6-3.2 15.5-1.3 21.75.25.95 3.6 5.4l7.05 9.15q12.3 15.6 13.75 18.85.55 1.3.3 6.05l-1.05 12.2q-1.1 10.9-1.35 15.8-.4 8.3.7 10.2 4.8 8.25 22.6 22.8 18.55 15.15 25.55 15.3l22.45-2.1 14-1.05q1.85.35 5.45 2.1l7.2 3.8 8.95 4.65q4.7 2.25 6.65 2.1 8.7-.5 18.35-7.3 9.6-6.8 18.45-18.7 15.7-21.15 22.9-49.85 8.65-34.45.7-67.05"/><path fill="#0d131a" d="M14 193.7q0-.4 3.4-.5 24.7.4 51.8 3.3 33.85 3.6 34.8 6.4.45 1.55-10.55 12.35-8.3 8.2-15.8 14.75-9 7.95-19.1 15.9-13.9 10.95-22.95 16.15-2.15 1.3-2.45.85-.2-.4 1.5-1.55 15.35-9.7 41.3-32.5 23.95-21.05 26.45-25.5-3.6-1.7-33.75-4.85-30.25-3.2-52.4-4.15-2.25-.1-2.25-.6zM156.75 243q.75 4.7-4.1 28-5.35 25.45-11.15 39.3-1.1 2.55-1.6 2.35-.5-.15 0-1.4 5.3-13.6 10.7-38.25 4.95-22.45 4.95-29.05l-7.1 6.65q-19.1 18.85-29.95 28.2-21.5 18.55-36.8 25.25l-1.3.5-1.1.05q-.15-.25.95-1l1.55-.95q19.2-11.25 37.9-27.45l27.75-25.65q5.1-5.05 7-6.5 1.3-1.05 1.85-.85l.15.15zM75.3 119.95q-2.7 5-6.1 14.65l-1 .15q-.9-.15-.8-.45.8-2.9 2.5-7.35 2-5.45 3.5-8.25 2.15-4.1 12.15-7.7 8.45-3.05 15.15-3.6.3-.05 1.4.55 1.05.55.75.55-6.9.6-15.25 3.65-10.05 3.6-12.3 7.8"/><path fill="#0d131a" d="M52.4 135.7q.15-.25 1.15-.25l.9.05q-4 5.75-6.85 16.8-3 11.75-3 23.55 0 10.8 2.7 19.2 3.45 4.55 16.75 18.6l.2.45v.1l-1.05 10.4q-1.05 11.5-1 16.85 4.15 10.75 22.85 24.7 17.5 13 27.35 14.8l9.2-1.15 8.4-1.2 5.85-.75q.4 0 .65.25 3.9 4.45 7.4 7.5 3 2.55 3.75 2.55 8.2-.2 20.1-5.25 13.5-5.7 21.55-13.95.2-.2 0 1.15l-.45 1.55q-6.85 7.4-20.05 12.75-11.9 4.85-21.4 5.3-1.6.05-6.25-4.3l-5.65-5.8-5.6.8-8.75 1.25-9.8.65q-10.05-1.75-27.6-14.75-18.8-14-22.95-25-.3-1.1-.25-5.15.1-8.1 1.9-22.9-5.1-4.9-11.45-12.3l-5.35-6.45q-1.55-4.1-2.4-9.95-.8-5.35-.8-10.85 0-11.9 3-23 2.75-10.2 6.95-16.25m113.8 10.55q.3-.05.45.7.1.7-.2.75-4.45.8-7.45 3.35-3 2.6-4.15 6.65-1.75 6.05 1.1 13.25t9.4 13.1q7 6.4 15.45 8.45t14-1.25q3.75-2.25 4.95-6.55 1.2-4.35-.25-10.2-.05-.3.65-.45l.75.1q1.6 6.35.15 11.45-1.45 5.15-5.65 7.65-5.95 3.55-15.1 1.4t-16.55-8.85q-6.9-6.3-9.85-14.3-3-7.9-1.05-14.5 1.3-4.4 4.95-7.35t8.4-3.4"/><path fill="#0d131a" d="M119.5 116.4q.25-.1.5.6.2.7-.1.8-6.65 2.05-11.5 7.55t-7.3 13.75q-4.8 16.35.8 36.05 5.7 20 20.4 37.25 17.3 18.75 35.95 23.95 15 4.2 27.7-.7 7.85-3.05 12.4-9.35 4.55-6.35 4.9-14.8.05-.3.65-.25.65.05.65.35-.35 8.95-5.25 15.85-4.85 6.95-13.1 10.15-13.35 5.2-28.55 1.05-19.05-5.2-37.25-24.6-15.2-17.7-20.85-38.65-5.5-20.25-.5-37.2 2.5-8.4 8-14.1 5.25-5.45 12.45-7.7"/></svg>