<svg xmlns="http://www.w3.org/2000/svg" width="138" height="217" viewBox="0 -0.05 137.95 216.85"><path fill="#fff" d="M91.3 58.2q7.3-4.2 15.2-3.85 19.35.95 28.15 17.75 1.6 5.95 1.25 12.45-.3 6.35-2.35 11.8-4.2 11.35-14.2 18-10.35 6.9-19.5 3.45-.15 5.2.3 12.1l1.25 14.5q1.25 14.15-1.75 25.05-2.6 9.2-9.1 18.5-5.8 8.3-16.25 10.5-10.05 2.15-18-2.6 2.75-3.2 4.95-4.85 13.45 2.45 19.6-15.85Q84 165.7 82.95 149q-.9-14.3-4.35-28.4-7.55-30.7 0-48.05 4.1-9.5 12.7-14.35"/><path fill="#fff" d="M46.9 93.2q-1.35-9.75-.5-15.8 1.05-7.8 3.45-13.45 3.3-7.7 9.45-12.85l1.35 5.9q-2.6 2.35-5.2 7.55-3 6-4.2 12.55-2.3 12.7 4.55 33.05l7.1 20.75q4.5 13.35 6.1 19.75 1.85 7.6 1.95 12.05.15 6.85-3.1 12.05l-1.25-1.6-1.3-1.55q1.7-3.65 1.35-9.55-.25-4.7-1.9-11.6-1-4.15-6.15-17.9-5.9-15.65-8-22.4-2.45-8-3.7-16.95m35.3-54.05-1.15 4.75-3.4-3.6z"/><path fill="#80cce3" d="M134.05 39.75Q131.8 50.5 129.3 58.6q1.4 2.05 2.95 5.7 1.85 4.5 2.7 8.8-3.8-8.15-10.05-12.9-8-6-19.4-5.85-11.85.2-19.7 7.75-7 6.8-9.75 18.35-2.25 9.5-.65 23.1 1 8.5 4.05 21.3 2.55 10.85 3.5 23.8 1.15 15.65-1.25 23.55-3.05 9.95-7.35 14.65-5.4 5.85-13.1 4.15 3.3-1.7 5.65-3.75 2.75-2.4 3.05-4.35.55-4-2.1-8.15 2.65-3.95 2.9-10.55.25-5.9-1.35-12.6-1.4-5.95-6.8-21.5-6.15-17.5-7.4-21.9-4.6-15.8-4.4-25.5.25-14.8 9.85-25.7-2.45-8.9-3.9-20.4-1.55-12.15 0-13.25 1.45-1.05 10.2 6.75 7.5 6.6 14.1 13.8 2.1-11.25 7.7-27Q94.45.9 96.6.7q2.1-.2 6.9 13.7 4.2 12.35 7.75 27 4.6-4.2 13.5-9.85 9.45-6.05 10.6-4.95 1.15 1.05-1.3 13.15"/><path fill="#dbdcdc" d="M56.3 195.9q2.2-2.8 4.8-4.55 22.8 4.55 31.05-22.1 5.3-17.35 3.6-40.5-.7-9.7 2.4-18.45 2.45-6.95 6.5-11.55-4.6 7.25-4.85 21.35-.15 6.5 1.1 19.55 1.15 12.2.45 20.1-1.35 15.1-8.7 25.55-7.8 11.2-18.55 13.35-8.85 1.8-17.8-2.75"/><path fill="#dbdcdc" d="M135.35 87.85q-.3 5.9-3.55 12.2-3.2 6.25-8.25 10.95-11.8 11.05-23.7 6.65-.1-6.4 1.9-12.45 2.3-7.2 6.35-9.1.3 3.65 4.05 5.5 3.6 1.7 8.4.9 5.15-.9 9-4.35 4.45-3.95 5.8-10.3"/><path fill="#0d131a" d="M134.75 27.2q-.65-.5-7.1 3.6-7.05 4.5-16.2 11.55l-.4-1.95q4.55-4.05 12.85-9.35 9.95-6.4 11.9-5.1 1.4.9-.15 10.1-1.75 10.25-6.2 23.8-.45 1.35-1 1.2t-.15-1.45q3.45-12.6 5.35-22.85 1.7-9.1 1.1-9.55m-75.85 23 .5 1.95q-6.55 6.15-9.65 14.75-5.1 14-.35 35.05 2.75 12.25 10.95 32.85 5.1 12.85 6.45 21.95 1.35 8.95-.65 15.85L65 171.45q1.8-6.6.35-15.05-1.45-8.35-6.5-21-8.4-21.2-11.15-33.45-4.95-21.6.25-35.8Q51.3 57 58.9 50.2M82.6 38l-.35 1.8-3.95 1.3-1.1-1.35z"/><path fill="#0d131a" d="m60.55 55.7.4 1.75Q50.45 70.9 51.75 88q.8 10.6 8.65 33.35 7.9 22.6 9.35 28.7 4.15 17.9-1.6 25.4l-.7-.85q4.7-8.4.75-24.2-1.4-5.5-4.4-14.2l-5.05-14.4-5.5-17q-2.7-9.45-3.3-16.55-1.5-18.2 10.6-32.55"/><path fill="#0d131a" d="M83.8 46.1q.85 1 .5 1.4t-1.25-.55q-9.3-9.55-16.7-16.15-7.95-7.1-9.15-6.6-1.15.45.6 13.75 1.9 14.5 5.4 24.75.5 1.5 0 1.7-.5.25-1.1-1.3-4.1-10.5-6.05-25.15-1.85-14.25.35-15.2 2.3-.95 11.8 7.4Q77 37.9 83.8 46.1"/><path fill="#0d131a" d="M96.75 1.75q-1.3.15-6.45 14.3-5.45 15.05-8.6 28.45l-1.25-.9q2.7-13.5 8.05-28.25Q94.05-.05 96.65 0q2.9.05 8.6 16.6 5.5 15.8 7.55 28.7.25 1.6-.35 1.75-.55.1-.95-1.5-3.95-16.95-8.75-30.8-4.5-13.1-6-13m38.1 84.9q1.6-13.5-5.8-26.85l.6-1.75q8.3 13.9 6.85 28.6-1.2 12.35-8.45 21.4-5.6 7-13.35 9.9-7.65 2.85-14.85.75l.1-1.6q6.7 2.05 13.9-.8 7.25-2.85 12.7-9.65 7-8.7 8.3-20"/><path fill="#0d131a" d="M87.65 59.35q5.1-4.05 12.35-5.25 7-1.2 14.1.5 7.3 1.75 12.6 5.95 5.7 4.5 7.8 10.95l.75 5.9q-1.75-8.2-7.55-13.8-5.25-5.05-12.8-7.1-7.15-1.95-14.25-.8-7.2 1.15-11.9 5.1-10.5 8.8-12.55 23.55-2.05 14.7 3.8 39.15 5.05 21.1 3.85 38.45-1.15 17.25-8.1 24.85-2.85 3.1-6.65 4.4-4 1.35-8.5.6l1.05-1.15q7.6 1.1 13.05-4.9 6.7-7.4 7.65-24.25.95-16.75-4.05-37.75-5.9-24.8-3.75-40.15 2.2-15.5 13.1-24.25"/><path fill="#0d131a" d="M107.45 95.95q.95-.5 1.2-.15.2.35-.65.95-5.35 3.85-6.75 14.35-1.4 10.55.75 30.9 1.85 17.35-2.6 31.25-4.6 14.5-14.9 21.55-13.35 9.15-28.7 1.6l.85-1q7.3 3.4 14.15 2.9 6.9-.45 12.9-4.75 9.4-6.75 13.9-20.8 4.4-13.9 2.6-30.65-2.2-20.75-.5-31.75 1.7-11.05 7.75-14.4"/><path fill="#fff" d="M58.65 117.75q12.05 9.2 12.25 23.35.2 12.9-10 20.55-9.1 6.85-23.35 7.6-14.4.75-24.6-5.75Q1.7 156.35 1 143.35q-.7-12.7 9.15-23 10.15-10.65 24.1-10.75 13.55-.15 24.4 8.15"/><path fill="#fff" d="M31.25 196.2q-1.5-4.25-1.65-10.25-.15-4.4-1.1-8.65-1.3-5.7-3.7-9.3 7.7 2.1 17.25.75 7.45-1.1 12.55-3.5 3.9.95 7.35 3.35 4 2.8 6.75 7.2 2.65 4.25.9 8.25-1.5 3.3-4.85 4.85-2.6 1.2-5.95 4.4-3 2.85-5.55 6.3-2.3 3.1-6.05 4.4-3.6 1.25-7.5.45-5.9-1.25-8.45-8.25"/><path fill="#fff" d="M69.15 176.9q5.7-.15 8.45 3.1 2.65 3.1 1 7.25-1.55 3.8-5.3 3.6-3.45-.1-6.55-3.15 2.95-2.6 3.4-5.35.4-2.35-1-5.45m-27 27.75q3.2.15 6.15-1.1 1.35 6.3-1.15 9.45-2.1 2.7-6.7 2.85-4.05.15-5.35-4.35-1.25-4.4 1.55-8.3 2.55 1.3 5.5 1.45"/><path fill="#80cce3" d="M7.35 88.3q1.35-.3 7.15 8.5 5.6 8.5 8.6 14.9l-6.05 2.95q.3 6.45 0 8.7-4.65-1.6-7.1-2.95-1.15 1-3.05 3.7-1.8 2.5-2.9 4.45-1.2-11.85.1-26Q5.35 88.8 7.35 88.3m32.1 33.55q-3.15 7.45-4.35 7.25-1.15-.15-4.35-6.8l-5.1-11.2q8.45-2.55 17.8-.5-1.2 4.55-4 11.25m21.9-35.05q2.25.1 3.95 12.35 1.8 13.25.35 25.85l-3.1-3.65-3.85-3.4-3.5 2q-2.4 1.3-3.6 1.65.25-4.15-.2-8.4-3.15-1.4-5.95-2.2 3.25-7.35 8.45-15.55 5.55-8.7 7.45-8.65"/><path fill="#ffe45f" d="M7.2 147.15q3.3 1.45 6.2 4.4 3.3 3.4 4.65 7.45.8 2.4 0 4.1-.9 1.85-3.4 1.7-8.75-5.2-12.25-13.75.1-2.05 1.5-3.3 1.5-1.4 3.3-.6m56.25-1.95q3.05-.65 4.6.9 1.25 1.35 1.3 4.1-2 7.35-11.85 13.75-1.6.2-2.85-1.25-1.25-1.5-1-3.55.65-5.25 3.15-9.05 2.75-4.1 6.65-4.9"/><path fill="#922f00" d="M36.15 155.05q-3.6.75-5.5 3.3-2.35-3.75-2.65-9.05l3.6.45q1.85 3.6 5.25 2.9 3.25-.7 3.55-3.4l3.9-.85q.2 4.1-1.15 8.4-2.95-2.6-7-1.75"/><path fill="#ed8599" d="M30.75 158.7q1.65-2.9 5.4-3.7 4.05-.85 7.05 1.85-.5 2.2-2.35 4.45-2.05 2.35-3.8 2.3-3.2-.05-6.3-4.9"/><path fill="#dbdcdc" d="M29.25 180.45q3.8 18.2 12.5 18.6 6.3.3 13.6-7.1l8.4-5.5q5.9-4.1 5.45-8.45 1.3 2.5.65 5.25-.7 3.2-3.9 4.85-3.2 1.7-6.9 5.05-3.25 3-5.55 5.95-2.25 2.85-5.7 4.4-3.85 1.75-7.6 1-6.9-1.3-9.3-9.1-1.5-4.75-1.65-14.95"/><path fill="#dbdcdc" d="M42.2 204.65q3.1.05 6-1 .55 1.9.45 4.55-2.25-1.65-6.6-1.85-4.2-.15-7.15 1.15.9-3 1.75-4.3 2.2 1.4 5.55 1.45m26.5-18.95q2.55 2 5.85 1.55T79 184.3q0 2.2-1.3 4.1-1.5 2.2-3.75 2.25-2.4.05-4.05-.65-1.6-.7-3.25-2.4zm-32.9-16.55q0-.7 3.25-1.3 3.2-.6 3.55.05.25.55-.95 1.35l-2.05.85-2.3-.15q-1.5-.35-1.5-.8"/><path fill="#0d131a" d="m42.75 110.4 1.5.5q-1.3 4.65-3.65 9.95-2 4.5-3.95 7.7-.85 1.4-1.45 1.45-.7 0-1.65-1.35-1.8-2.5-4.3-7.6-2.5-5.15-4.3-10l1.45-.5q1.55 4.35 4 9.5 2.15 4.65 4 7.75l1.35-.05q5.05-10 7-17.35m-6 35.7q0 .35-.95.35-.9 0-.9-.35t.9-.35q.95 0 .95.35m2.1 69.35-1.1-.15q-.5-2.7.2-5.1.2-.75.45-.65.3.05.25.85-.25 2.7.2 5.05m4.4-.2-1.05.2q-.25-2.65.05-5.1.15-.9.45-.9.35 0 .3.95-.1 2.05.25 4.85m-25.8-82q2.3.2 3.65 2.9 1.15 2.5.9 5.45-.25 3.25-1.9 5.25-1.6 1.95-3.75 1.75-2.4-.2-3.75-2.45-1.35-2.2-1.1-5.45.3-3.65 2.15-5.75 1.7-1.85 3.8-1.7"/><path fill="#fff" d="M17.25 134.1q1.25.1 2.05 1t.7 2.1q-.05 1.1-1.05 1.95-1 .8-2.15.7-1.35-.1-2.1-.95-.7-.9-.6-2.2.05-1.15 1.05-1.95.95-.75 2.1-.65"/><path fill="#0d131a" d="M53.9 131.5q2.15-.15 3.85 2.15 1.65 2.25 1.9 5.4.25 3.75-1.15 5.85-1.25 1.85-3.55 2-2.65.2-4.2-1.85-1.45-1.8-1.65-4.9-.3-3.9 1.1-6.25 1.3-2.2 3.7-2.4"/><path fill="#fff" d="M53.75 132.35q1.35-.1 2.3.7.85.75.95 1.9.1 1.35-.7 2.3t-2.2 1.05q-1.2.1-2.15-.8-.9-.85-1-2.05-.05-1.25.75-2.15.8-.85 2.05-.95"/><path fill="#0d131a" d="M6.95 87.75q2-.75 8.35 8.45 5.85 8.5 8.75 15.2l-1.7.65q-2.65-6.15-8.5-14.9Q8.3 88.8 7.5 89.1q-1.55.55-2.8 15.25-1.3 15.3-.05 23.65l-1.2 2.05q-1.8-10-.35-25.85 1.4-15.5 3.85-16.45m54.3-.05q-1.25-.1-6.45 7.8-5.75 8.65-8.2 16l-1.8-.6q2.5-7.45 8.55-16.3 5.9-8.65 8.1-8.55 2.9.2 4.65 14 1.7 13.7.5 26.4L65 124.7q1.1-9-.45-23.15-1.5-13.75-3.3-13.85M45.5 147.55l1.15.05q.2.45-.8.8-5.1 1.8-10.55 2.05-5.55.2-9.3-1.35-.85-.35-.7-.7l.95-.05q3 1.15 8.95.9 6.05-.25 10.3-1.7"/><path fill="#0d131a" d="M30.9 149.85H32q.6 1.15 1.85 1.75 1.15.6 2.35.55 2.8-.15 3.7-2.65l1.15-.15q-.35 1.65-1.7 2.75t-3.05 1.2-3.3-.9q-1.55-1-2.1-2.55m5.5 5.75q-3.85.6-5.35 3.35l-.55-.85q.75-1.4 2.2-2.35 1.5-1 3.45-1.3l4 .2q1.95.5 2.95 1.7l-.25.95q-2.3-2.3-6.45-1.7"/><path fill="#0d131a" d="M37.75 164.15q-3.6.55-6.8-4.05-3.25-4.65-3.6-10.9l1.4.1q.4 5.5 3 9.75 2.7 4.4 5.75 4 2.45-.35 4.3-4.55 1.95-4.45 1.75-10l1.4-.15q.2 5.8-1.85 10.45-2.1 4.8-5.35 5.35M3.7 147.1q1.5-1.15 3.9-.45 3.35.95 6.5 4.5 2.8 3.15 4.3 6.85 1.3 3.1.45 5.15-.8 2-3 1.9l-1.6-.9q2.4.35 3.25-1.05.95-1.55-.35-4.7-1.45-3.55-4.05-6.45-2.85-3.2-5.85-4.05-2.45-.7-3.55.9-1.1 1.55-.25 4.2l-1.3-3.1q.2-1.85 1.55-2.8m64.2-.5q-1.2-1.4-3.8-.9-6.85 1.35-9.5 11.35-.75 3 .25 4.9.9 1.85 2.75 1.6l-1.15.85q-1.95 0-2.9-2.3-.9-2.3-.25-5.3 1.15-5.15 4.05-8.45 2.8-3.2 6.55-3.95 2.8-.55 4.45.9 1.6 1.4 1.3 3.8l-.95 1.95q.35-3.1-.8-4.45m-37.15 50.55q-1.55-4.1-2-12.8-.25-4.85-1.6-9.45-1.4-4.7-3.4-7l1.9.25q1.9 2.55 3.15 7 1.2 4.25 1.45 9.05.4 8.4 1.75 12.1 2.5 6.8 9.25 7.6 3.2.4 6.1-.75 3.05-1.2 5.2-3.8l4.8-5.55q2.9-2.95 5.9-4.65 4.45-2.5 5.7-5.5 1.2-3-.7-6.9-1.65-3.35-5.45-6.55-4.5-3.75-9.15-4.45l1.75-.85q4.65 1.05 8.9 4.8 3.65 3.2 5.25 6.55 2.15 4.35.9 7.7-1.3 3.5-6.45 6.05-2.8 1.4-5.75 4.5l-4.75 5.6q-2.6 3.2-5.8 4.4-2.8 1.1-6.55.8-7.55-.6-10.4-8.15"/><path fill="#0d131a" d="m47.65 203.55 1.15-.3q1.4 6.35-1 9.85-2.25 3.3-7.35 3.55-4.35.15-5.9-4.55-1.65-4.75 1.7-9.05l1 .4q-2.6 3.2-1.55 7.5t4.6 4.2q4.35-.1 6.3-2.8 2.15-3 1.05-8.8M69 177.45l-.4-1.2q5.85-.35 9.15 3.15 3.3 3.45 1.4 7.95-1.5 3.55-5.05 3.95-3.8.4-8.15-3.25l.9-.8q3.45 2.9 6.5 2.9 3.25.05 4.65-3.3 1.7-4-1.4-6.9-2.95-2.75-7.6-2.5"/><path fill="#0d131a" d="M78.95 184.3v1.15q-1.95-.05-4.7-1.7-.6-.35-.4-.65l.8-.05q2.5 1.15 4.3 1.25M77.2 189l-.85.85q-1.95-.55-4.3-2.9-.55-.5-.25-.75.25-.25.8.25 2.1 1.85 4.6 2.55m-18.7-71.95.55.15q5.95 4.65 9.3 10.85 3.55 6.5 3.55 13.4 0 8.9-5.35 15.7Q61.3 163.8 52 167.1q-1.5.5-1.7 0-.15-.55 1.3-1.1 8.65-3.25 13.5-9.5 4.9-6.45 4.9-14.95 0-6.65-3.1-12.65-2.95-5.8-8.35-10.2-3.75 2.35-6.9 3.55h-.4l-.25-.4-.3-8q-7.35-3.4-15.75-3.4-9.25 0-17.05 4.6.15 4.25-.3 8.45-.1.6-.65.45-4.3-1.35-6.8-2.7-3.95 4.25-6.1 9.5-2.2 5.4-2.2 11.2 0 10.6 6.75 17.45 6.75 6.8 18.85 8.55 1.4.25 1.35.7-.05.5-1.45.3-12.7-1.75-19.95-8.85Q0 152.85 0 141.9q0-6.05 2.5-11.8 2.4-5.55 6.75-10 .55-.55 1.15-.25 3.15 1.7 6.1 2.7.3-3.7-.05-7.5v-.6l.4-.5q8.6-5.1 18.2-5.1 8.85 0 16.55 3.7.5.3.5.85l.1 7.35q2.5-1.05 5.9-3.45z"/><path fill="#fff" d="M28.75 170.65q1.95.25 4.1 2 2.2 1.75 1.85 3-1.7 5.95-7.85 6.3-2.5.15-4.35-1-2-1.25-2.25-3.4-.55-4.1 2.4-5.85 2.35-1.45 6.1-1.05"/><path fill="#dbdcdc" d="M20.5 174.15q.6 4.15 5.15 5.05 4.8.9 8.8-3.25-.75 2.85-3.7 4.65-3.05 1.85-6.15 1.05-5.4-1.5-4.1-7.5"/><path fill="#0d131a" d="M22.4 171q2.6-1.5 6-.8.85.15.8.5-.1.35-.95.25-3.05-.4-5.2 1.05-2.2 1.5-2.4 4.2-.15 2.05 1.5 3.45 1.55 1.3 3.85 1.5 5.75.4 8-5.1.4-.95.75-.85.4.15 0 1.1-2.45 6.8-9.2 6.25-2.75-.25-4.55-1.95-1.95-1.75-1.75-4.4.3-3.55 3.15-5.2"/><path fill="#0d131a" d="m22.75 180.7-1.05-.75q0-1.3.55-2.65.45-1.3 1.1-1.9.6-.55.85-.3t-.25.85q-.55.75-.95 2.2-.4 1.5-.25 2.55m4.5 1.3-1 .05q-.3-1.05 0-2.6.3-1.5 1-2.5.4-.65.7-.45.35.25-.05.9-1.05 1.95-.65 4.6"/><path fill="#fff" d="M48.65 171.25q-3.35-1.15-3.35-5.2 0-4.3 4.85-5.85 4.3-1.35 6.95 1.7 2.9 3.4-.75 8.75-.7 1.05-3.55 1.15z"/><path fill="#0d131a" d="M45.75 165.7q-.2 3.5 2.7 5.05.7.4.6.7l-.9.05q-3.75-1.35-3.45-6 .3-4.85 5.75-6.15t7.65 3.2q2.15 4.4-1.3 8.05-.6.65-.85.4-.3-.25.2-.95 2.6-3.7.9-7-1.7-3.45-6.35-2.35-4.75 1.15-4.95 5"/><path fill="#0d131a" d="m47.6 161.2.95-.45 1.25 5q.1.75-.25.85-.3.05-.55-.65zm4.9-1.4.95.05.05 5.05q0 .6-.35.65-.35 0-.4-.7z"/></svg>