<svg xmlns="http://www.w3.org/2000/svg" width="231" height="335" viewBox="-0.05 -0.4 230.65 334.55"><path fill="#f29600" d="M95 59.15q7.6 9.2 11.55 23.25 2.4 8.65 1.05 18.65-1.4 10-7.15 25.95-1.05-4.8-3.4-9.3-2.25-4.2-5.25-7.4 11.1-8.85 10.15-16.15-.35-2.85-2.6-4.4-2.1-1.45-4.8-1-2.2 1.4-5.85 4.05-9.15 6.55-11.9 7.85-5.25 2.55-8.45-.05l-2.95-.7-2.6-.2q-.5.1-2.55 1-1.75.75-2.5.7-2.05-.25-3.9-1.8l-4.4-4q-4.85-4.25-7.6-1.95-2.35 1.95-2.25 7-1.4-4.3-1.1-7.7.3-3.6 2.65-9.5.15-18.75 6.8-26.55 1.8-2.15 5.45-4.7 3.25-2.25 4.25-3.8.45-8.1.4-24.45Q58 8.7 57.7 6.2q-.65-5.2 1.55-4.6 1.85.5 3.85 3.9 3.1 5.05 5.9 16.2 2.6-1.6 6.85 10.75 4.1 11.95 3.3 15.45Q87.9 50.5 95 59.15"/><path fill="#fccf00" d="M107.8 92.25q-.95-13.35-7.75-24.9 24.9 7.5 28.65 29.55 2.75 16-5.95 41.4-3.7 10.85-2.9 23.55.75 12.5 5.7 24.25 11.05 26.15 34.75 34.55l-1.25-16.25q8.2 4.25 12.85 11.6 4.15 6.6 4.7 14.4.55 7.35-2.15 13.5-2.75 6.25-7.8 9-5.45 2.95-14.75-.75-9-3.55-19.1-12.2-23.15-19.85-33.3-47.1-5.35-14.4-5.05-30 .2-11.95 4-26.9l6.65-23.6q3.3-12.5 2.7-20.1"/><path fill="#fff1ac" d="M92.45 90.2q2.5-1.8 4.9-1.5 2.2.3 3.55 2.25 3.2 4.6-.75 10.95-1.15 1.9-3.75 4.35L92 110.1q2.8 3.45 4.2 6.4 1.8 3.8 4.1 11.75-9.75 28.9-3.75 54.75 5.05 22 21.9 42.95 1 15.1-5.7 25.95-6.85 11-19.55 14.1-13.8 3.8-26.4-2.05-14.05-6.55-17.5-21.85-3.95-17.45 3.25-35.5l5.95-13.4q3.25-7.35 3.9-12.2 6.25-11.85 6.7-28.45.6-19.9-8.4-35.9-3.6-.75-10.65-5.25-8-5.1-8.95-8.55-2.75-5.7-.05-8.8 2.45-2.95 5.45-.75l4.75 3.95q4.25 3.45 6.2 4.05l2.25-.35 2-.8 5.85-.25q1.15 1.05 3.05 1.55l4.8-.25q3.5-1.35 17.05-11"/><path fill="#fccf00" d="M47.6 110q1.05.95 5.7 3.3 4.8 2.45 7.3 3.25 15.7 32.35 2.1 64-3.95 9.15-11.75 20.8-7.1 10.6-7.8 12.9-.7-4.75.9-10.95.75-3 3.95-11.9 6.35-17.45 5.9-30.45-.2-6.05-1.85-12.45l-3.2-10.6q-3.8-13.25-1.25-27.9"/><path fill="#f29600" d="M128.9 115.35q3.5 3 9.15 6.6l5.5 3.6q.45 2.6 0 2l-7.1 1.7 1.25 2.6q-3.75.95-3.4 7 .35 6.1 4.3 7.95-5.05 1.5-4.55 4.15.4 2.3 4.7 5.1 1.2 7.7 6.75 21.85 6.65 16.85 11.6 18.95 1.8 7.15 2.65 14.55.7 6.45.4 9.75-21.65-9.5-31.6-29-5.55-10.8-8.55-29.5-1.65-10.05 3.25-26.1l3.75-11.7q1.8-6.1 1.9-9.5"/><path fill="#00b8ee" d="M29.7 180.05q8.3 1.1 16.05-3.7-1.9 6.25-14.5 24-10.65 15-15.4 20.2-4.1 4.6-5.3 4.45-1.5-.2-1.75-6.75-.2-5.3 2.7-20.1 3.25-16.35 6.75-23.4 4.55 4.35 11.45 5.3"/><path fill="#f29600" d="M110.65 254.5q9-11.05 7.95-29.15 9.65 12.45 22.05 20.8 12.05 8.15 19.5 7.65-.1 10.4-7.55 21.35-4.45 6.5-12.45 14.15-1.8 1.7-1.9 4.95-.05 3.6 2.35 6.7l2.3 2.45q1.45 1.6 2.1 2.95 4.1 8.75 3.8 16.85-.3 7.2-3.5 9.2-1.9 1.2-5.6-1.25-3.65-2.4-6.95-7-8.45-11.6-5.25-22.2.65-2.15-1.65-4.95-2-2.45-5.2-4.3-10-5.75-27.55-10-13.35-3.3-21.1-3.8-4.65-.35-6.7 0-1.75.3-2 1.2-.35 1.25.4 2.6l1.55 2.35q1.85 3-1.2 6.4-3.35 3.75-16.95 6.95-11.85 2.75-16.1 2.4-10.65-1.05-6.1-5.8 3-3.1 12.35-7.15l11-4.4q2.95-1.35 3.65-2.4 1.25-1.75-.7-4.95-23.5-5.9-24.1-24.55-.45-14.4 11.55-31.05 4.2-5.8 12.45-19.5 7.4-12.25 10.2-15.7-1.15 4.3-8.3 20.3-6.35 16.6-5.4 28.65 1.2 15.2 11.2 24.2 9.85 9 25 8.9 17.7-1.6 26.85-12.85"/><path fill="#fff1ac" d="M183.25 155.2q-.1-2.25.4-2.45.6-.25 2.45 2.65 7.3 11.45 10.9 22.05 1.5-14.9 6-26.8.85-2.3 1.75-2.15.95.2 1.3 3.35 1.3 11.15 8.9 27.5 8.65 18.65 11.1 29.15-.25 6-2 10.35-1.85 4.45-4.5 4.75-3.65.45-5.45-3-.65-1.25-3.6-10.55 0 5.35-1.5 9.15-1.75 4.4-4.8 4.4-3.15 0-5.1-3.8-1.7-3.35-1.95-8.45l-.15 5.95q-.65 2.75-2.45 3.8l-3.6-.15q-4.7-3.05-3.7-14.65-1.5 5.85-3.85 8.3-2.2 2.35-4.85 1.4-2.4-.85-3.25-5.25 9.1-29.6 7.95-55.55"/><path fill="#f29600" d="M143.6 286.1q4-3.55 8.1-9.25 8.25-11.4 8.7-22.1 13.65-1.8 15.75-16.75.8-5.55-.3-11.5-1-5.3-2.85-7.9l2.3-7.85q.85 4.4 3.25 5.25 2.65.95 4.85-1.4 2.35-2.45 3.85-8.3-1 11.6 3.7 14.65l3.6.15q1.8-1.05 2.45-3.8l.15-5.95q.25 5.1 1.95 8.45 1.95 3.8 5.1 3.8 3.05 0 4.8-4.4 1.5-3.8 1.5-9.15 2.95 9.3 3.6 10.55 1.8 3.45 5.45 3 2.65-.3 4.5-4.75 1.75-4.35 2-10.35 3.15 13.45.5 25.9-5.8 27-26.85 41.5-22.95 15.8-56.1 10.2"/><path fill="#fff1ac" d="M167.7 139.8q.95 7.6-2 11.1-.3-1.3-2.05-2.85-1.8-1.65-3.15-1.65-1.55 4.35-4.2 7.35-2.4 2.75-4.8 3.4.45 1.15-2.1.85l-10.2-1.4q-5.05-3.2-5.05-6.4 0-3.15 4.85-3.15-5.55-3.8-4.65-9.55.6-3.95 3.1-6.4-.9-.7-.6-1.35.25-.6 1.2-.85 3.9-1.15 5.75-1.05.05-4.4.45-7.25.25-2.35 3-.7l2.45 1.9 2.1 2.05 2.85-2.45 2.35-1.75q1.1-.55 1.5-.5.45.1.7 1.1v2.45l.1 4q7.25 4.1 8.4 13.1"/><path fill="#f29600" d="M82.7 226.1q2.05 9.8.9 13.8-2.1 7.3-8.5 7.45-6.3.15-9.3-6.15-2.7-5.6-.1-15.5 2.1-8 6.75-16.1 2.25-3.85 3.65-3.6 1.25.2 2.35 3.95 2.95 9.95 4.25 16.15"/><path fill="#fff1ac" d="M44.2 146q2.4-.2 3.3 1.05 1.45 1.95 1 5.25-.35 2.85-1.85 5.55 1.95-1.75 4.25-2.4 2.15-.65 2.45.25.65 2 .5 7.2l-.55 10.05-7.25 3.5q-5.05 2.45-8.45 3.3-4.45 1.1-7.4.8-3.9-.4-8.15-3.25-4.05-2.75-7.9-7.15l-5.7-7.2-3.4-2q-3.5-2.25-4-3.8-.25-.8 2.85-1.9 3-1.1 4.05-.8l-1-3.65-.75-2.45q-.25-1.2.2-1.45l1.95.25q.9.25 3.35 1.4l2.65 1.3 4.3-4.6q1.35-1.25 2.15.4l1.1 3.2.75 2.95 6.5.5 5.45.85q.3-.45 2.9-3.2l2.6-2.65q1.95-1.1 4.1-1.3m19.6-87.6q2.75-.05 4.6 3.3 1.65 3.15 1.85 7.8.2 5.05-1.65 8.6-1.7 3.35-4.05 3.35-1.9 0-3.95-2.65-2.5-3.25-2.7-8.45-.15-4.7 1.25-8.05 1.65-3.8 4.65-3.9"/><path fill="#0d131a" d="M99.6 75.1q.75 0 1.2 7.3.45 7.2 0 8.2l-1.55-1.15q-1.85-1.1-3.3-.85-.1-.4 1.45-6.85 1.6-6.6 2.2-6.65m2.25 17.2 3.95-1.45q1.75-.8 2.3-1.4 0 1.95-1.95 4.85-2.05 3.15-4.85 4.95l.8-2.3q.65-2.7-.25-4.65m-61.5-1.35q-.45-3.65-.05-5l1.2-4.1q.2 4.7 2.4 11.1-.65-.4-1.55.2-.95.6-1.3 1.75-.35-.95-.7-3.95"/><path fill="#fff1ac" d="M139.2 156.6q1.5.8 6.4 1.5 5.25.75 6.8-.05 3.5 11.4 4.85 24.35 1.3 12.5-.5 14.15-4.9-2.7-11.05-18.6-5.15-13.2-6.5-21.35"/><path fill="#f29600" d="m48.7 137.7 2.8 8.85q.95 3.95 1.6 9.5-.7-1-2.95-.2-1.6.55-3.45 1.75 2.7-6.5 1.4-9.45-1.25-2.75-6.15-2.5l2.8-3.3q2.5-3.15 3.95-4.65"/><path fill="#d18200" d="M121.45 292.95q-10.5-5.7-28.2-10.1-13.8-3.45-21.25-3.95l-7.3.25q-2.2.7-1.05 2.75 2.25 4 2.35 5.6.1 1.75-1.95 3.95-3.25 3.55-14.4 6.3 3.6-4.2-.25-8.5-3.5-3.85-7.35-3.55l7.2-3.1q4.2-2.65 2.05-6.1-12.7-3.4-18.65-10.9-4.25-5.35-5.25-13.3 7.05 11.2 24.55 15.4 10 2.45 30.8 4.75 8.35 1.4 21.2 5.1 12.75 3.65 17.8 4.45 9.05 1.5 16.2-.3 8.35-2.15 16.45-9.35-4.8 8-14.25 16.95-1.05 1-1.65 3.1-.65 2.55.15 5 .5 1.5 3.25 4.6 3.05 3.4 4.2 5.9-3.8-2.9-10.6-.95-7 2.05-7.7 6.85-1.5-7.7-.2-11.95.65-2.2-1.3-4.85-1.8-2.4-4.85-4.05"/><path fill="#dab300" d="M129.4 236.9q20.7 10.25 31.3 5.3 11.65-5.5 9.05-28.75 7.75 10.2 6.45 22.8-1.25 12.15-9.55 16.65-5.9 3.2-16.3-1.4-10.05-4.4-20.95-14.6"/><path fill="#dcd096" d="M197.1 218.6q-2.75 3.85-4.75 3.3.75-2.65 1-17.5.3-14.6 3.1-24.25-.5 5.25-.25 18.05.2 14.8 1.5 18.2z"/><path fill="#d18200" d="M192.35 221.9q2.15.35 4.75-3.3-.65 12.55-8.8 25.3-6.95 10.9-15.1 16.15 9.5-13.65 14.4-24.6 2.9-6.35 4.75-13.55"/><path fill="#dcd096" d="M61.25 116.8q7.05 4.45 15 2.4 7.05-1.8 15.55-8.95l1.95 3q-4.4 6.35-9.7 10.85-5.2 4.35-8.1 4.35-3.2 0-6.8-1.85-3.9-2-6.45-5.2-.6-.75-.85-2.35z"/><path fill="#d18200" d="m91.8 110.25 7.4-7.05q-1.95 5-5.45 10.05zm39.4 44.55 1.9.6 5.65 1.3q.4.9.6 3.8-6.3-3-8.15-5.7"/><path fill="#dcd096" d="M154.25 165.35q-1 .25-5.55-1.2-4.9-1.5-9.35-3.65-.2-2.9-.6-3.8l13.55 1.75 1.05 2.9zm-16.55-33.5 2 1.6 3.05 2.7-.1 8.45q-.7-.8-4.95-12.75"/><path fill="#00a0cf" d="M23.6 178.3q4.8 2.15 10.15 1.9 6.2-.25 12-3.85-1.9 6.25-14.5 24-10.65 15-15.4 20.2l-.5.6q-1.4-7.55 1.95-22.35 2.7-11.9 6.3-20.5"/><path fill="#dcd096" d="M19.4 175.25q9.05 3.1 20.35-1.55 4.9-2 14-7.85l-.45 7.1-7.25 3.5q-5.05 2.45-8.45 3.3-4.45 1.1-7.4.8-3.9-.4-8.15-3.25zm98.7 61.35Q107.9 224.25 102 210q-6.15-15-5.65-27.8 4.95 22.4 22.1 43.75.35 5.3-.35 10.65"/><path fill="#d18200" d="M118.15 236.7q.8-5.7.45-11.35 9.65 12.45 22.05 20.8 12.05 8.15 19.5 7.65-.1 3.9-.95 7.3-10.05.25-21.2-6.65-10.45-6.45-19.85-17.75m25.45 49.4 3.4-3.4q4-4.4 6.95-9.15 9.1 5.85 24.3 5.4 14.75-.45 25.85-6.4-11.2 9.3-26 12.9-15.9 3.8-34.5.65"/><path fill="#0d131a" d="M57.15 47.75q.15-.35.4.8.2 1.1-.1 1.4l-3.55 2.9q-7.35 4.75-9.8 13.2-.9 3.15-1.8 14.15-.25 2.85-1.05 5.25-4.1 11.7 1.85 19.3 4.95 6.3 19.7 12.5 3.4 1.45 3.15 1.9-.3.45-3.75-.95-12.55-5.1-18.05-10.1-6.4-5.8-6.4-13.8 0-3 1.95-8.4l.8-2.95.3-3.65q.5-10.55 2.55-15.95 2.6-6.95 9.5-11.8l2.45-1.8z"/><path fill="#0d131a" d="M63.25 4.15q3.45 5.2 6.4 16.8 2.6 10.1 3.55 19.35.35 3.35-.25 4.35-.6 1.05-.9-2.25-.9-9-3.45-19.45Q65.65 11.2 62.45 5.9q-1.9-3.2-3.05-3.15-1.1.05-.95 3.35l.25 19.7q.05 18.4-.55 24.65-.2 2.6-1 3.05-.75.45-.5-2.2.55-5.6.45-24.25L56.8 6.3Q56.6.55 58.45.05q1.75-.45 4.8 4.1"/><path fill="#0d131a" d="M69.3 21.85q-.25-.05-.25-.8-.05-.75.45-.65 3.45.75 7.05 11.65 3.1 9.35 3.6 16 0 .35-.85.3t-.9-.35q-1.15-9.55-4-17.45-2.7-7.65-5.1-8.7"/><path fill="#0d131a" d="M97.65 61.15q9.75 12.7 11.05 29.95.5 6.05-1 13.55-1.15 5.75-4.75 18.1-6.1 21-7.3 32.55-2 19.65 4.6 37.25 7.65 20.5 23.75 37.9 14.85 16 28.8 21.2 8.6 3.2 13.45.55 4.3-2.3 6.85-7.6t2.5-11.85q-.05-8.65-4.5-15.95-4.4-7.3-12.15-11.65-.25-.15-.4-1.1-.15-1 .15-.85 8.6 4.5 13.6 12.55 5.05 8.05 5.1 17.45.1 7.1-2.5 12.6-2.6 5.55-7.35 8.1-2.7 1.45-6.75 1.4-4.05-.1-8.55-1.8-14.3-5.35-29.45-21.35-16.55-17.5-24.25-38.2-6.7-17.9-4.75-37.9Q95 144.1 101 123.8l4.3-15.45q2.1-8.95 1.75-16.05-.8-16-9.6-28.5-8.3-11.9-20.05-15.7-3.15-1.05-2.65-1.45.55-.4 3.65.45 10.7 3 19.25 14.05"/><path fill="#0d131a" d="M100.55 68.3q-.3-.05-.7-1-.45-.95-.15-.9 19.65 5.75 26.45 18.85 5.65 10.85 3.85 27.3-1.3 11.35-6.4 26.25-4 11.75-2.85 24.8 1.1 12.45 6.6 24.1 5.5 11.55 14.2 20.1 9 8.85 19.85 12.9 2.85 1.05 2.9 1.9.05.8-3.3-.35-12.35-4.15-21.9-13.8-8.9-8.95-14.2-21.35-5.1-12-5.9-24.85-.8-13 3-24.2 4.95-14.5 6.2-25.35 1.7-15.75-3.75-26.3-6.55-12.65-23.9-18.1M92.9 89q3.25-1.85 6.2-.55t3.7 4.75q1.85 8.95-11.6 18.4-2.65 1.9-3.05 1.5t2.15-2.3q12.7-9.4 11.1-17.15-.65-2.9-3.15-4-2.45-1.1-4.85.4l-8 5.9q-7.4 5.3-10.65 6l-4.2.2q-1.6-.25-2.4-.8-.35-.3-.6-1.1-.25-.85 0-.6.85.75 2.35 1.25 2.25.7 4.55 0 4-1.25 10-5.7zm-51.55 4q2.85-2.35 8.25 2 6.8 5.45 8.25 5.7 1.75.25 3.05-.8.25-.2.3.25l-.25.6q-1.95 1.35-3.4 1.05-2.3-.45-8.25-5.6-4.75-4.05-7.1-2.1-1.45 1.25-1.5 3.8-.1 2.5 1.2 5.25-1.35-.6-1.75-2.05-.75-2.35-.5-4.55.3-2.35 1.7-3.55"/><path fill="#0d131a" d="M61.2 99.1q1.25-1.35 3-1.35 1.8 0 3.1 1.25 1.3 1.2 1.35 3 .05 1.7-1 2.95-1.2 1.4-3.2 1.4-1.8 0-3.05-1.2t-1.35-3.05q-.05-1.7 1.15-3m30.2 11.45q-.2-.25.45-.7l.85-.15q3.65 5.4 4.7 7.45 2.45 4.7 3.65 10.75.1.35-.75.8-.8.5-.9.2-1.15-5.95-3.45-10.8-1.4-2.85-4.55-7.55m-32.1 6.2.85-.1q1 .15 1.15.4 9.2 16.3 8.5 35.95-.65 16.9-8.2 32.15-1.6 3.25-4.95 8.55l-5.35 8.5q-3.25 5.5-10.9 17.05-6.75 10.75-10.1 19.1-3.8 9.45-.55 19.4 4.1 12.5 18.2 16.45 7.6 2.1 6.7 2.65t-6.7-.8q-13.3-3.15-18.75-13.25T28 239.05q2.05-6.5 7.85-16.2L49 202.3l5.7-8.8q3.05-4.85 4.7-8.2 7.65-15.4 8.45-32.45.95-20.2-8.55-36.1"/><path fill="#0d131a" d="M60.8 184.7q.25-1.05 1.35-3.05 1.05-1.95 1-1.55-.3 4.1-2.1 9.05l-3.9 9q-4.7 10.05-6.4 16.2-2.85 10.3-1.9 21.4.8 9.1 5.6 16.25t12.8 10.95q8.5 4.1 18.2 3.5 9.65-.6 17.3-5.75 9.8-6.55 13.05-18.3 1.75-6.2 1.8-17.5l2.15 2.25q.1 10.9-3.25 19.55-3.9 10-11.95 15.4-8 5.3-18.5 5.95-10.55.65-19.45-3.65-8.45-4.1-13.6-11.5-5.15-7.5-5.95-17-.95-11.3 2.05-21.9 1.7-5.9 6.65-16.55 4-8.55 5.05-12.75M47 109.5q.1-.3.85.25t.65.85q-3.15 9.9 1.15 26.35l3.45 12.9q1.7 7.25 1.6 12.3-.15 8.3-2.3 18.1-1.8 8.3-4.6 15.9-2.15 5.85-2.95 8.75-1.3 4.45-1.35 7.8l-.65 1.55q-.65 1-.8.7-1.3-2.65 0-7.65.6-2.35 3.8-11.15 6.9-18.85 7.3-33.95.15-5.4-1.65-12.3L48 137.65q-4.4-15.7-1-28.15m105.95 47.35-.15 1.25q3.3 8.85 5 21.4 1.65 12.4.25 16.9 1.85 5.5 2.75 14.05.7 6.9.45 10.65l-.85.1q-.8-.25-.8-.7 0-3.95-.75-9.85-.85-7.1-2.45-13.35-5.35-2.8-11.9-19.6-5.5-14.05-6.3-20.65l.9-.3.9.1q.8 6.35 5.9 19.85 6 15.7 10.65 18.9.7-5.15-.9-17.3-1.65-12.6-4.2-19.4l-.2-1.1q-.05-.8.2-.9zm43.55 21.35q1.65-16.1 5.8-27.25 1.8-4.85 2.8-4.4 1 .5 1.95 6.9.95 6.35 3.55 13.45 2 5.45 5.5 12.75 8.15 17 10.7 27.2 3.8 15.05.65 29.75-5.7 26.5-28.7 41.05-24.25 15.35-56.2 9.3-.3-.05.55-.75.85-.65 1.2-.6 33.15 5.2 55.9-11.3 20.15-14.55 25.6-40.05 1.2-5.9 1.2-11.5 0-10.5-4.15-22.45-2.45-7.05-8.7-20.05-7.4-15.55-8.6-26.55-.4-3.6-.75-3.9-.45-.35-1.5 3.05-3.8 12.45-5.25 29.15-1.5 16.9.1 31.25 1.45 13.15-8.15 29.2-8.9 14.75-20.75 22.35-3 1.9-3.4 1.3-.35-.6 2.55-2.65 11.45-7.8 19.9-22.4 9-15.6 7.95-28.3-1.5-17.75.25-34.55"/><path fill="#0d131a" d="M182.5 155.25q-.2-4.65.65-4.8.85-.1 3.45 3.95 4.45 7 7.05 12.45 2.2 4.7 3.85 9.85l-.15 2.6q-.3 1.95-.4 1.55-3.6-12.2-10.95-24.1l-1.75-2.5q-.25.1-.15 3.5l.05 3.1q0 15.95-4.1 35.85-3.35 16.3-6.3 22.6-.2.4-.9-.55-.7-.9-.35-1.65 2.6-5.1 6.3-23.6 4.45-22.6 3.7-38.25M48.55 136.3q.2-.25.45.8.3 1.1.1 1.35-2.3 3.8-14.3 15.3-.2.2-1.45-.35-1.3-.6-1-.7 1.65-.4 8.25-7.2 6.35-6.55 7.95-9.2m-41.3 26.35.95.15q1.1.35 1.4.7 6.6 8.9 12.85 13.15 4.15 2.75 7.95 3.15 2.75.25 7-.8 3.7-.9 15.6-6.75.3-.1.25 1-.05 1.15-.3 1.25l-7.55 3.25q-5.95 2.55-7.6 2.95-4.4 1.05-7.5.75-4.2-.5-8.7-3.5-4.15-2.8-8.5-7.8z"/><path fill="#0d131a" d="M36.95 153.15q2.15.7 1.95 1.3l-2.5.05-6.8-1-6-.25q-.35.05-.6-.85-.3-.85.05-.9l6.6.3q4.75.55 7.3 1.35M17.8 173.8q.15-.3.8.15.6.45.45.75-3.5 7.05-6.75 23.45Q9.4 213 9.6 218.2q.2 5 1.2 5.35t4.5-3.5q4.4-4.9 14.4-18.9 12-16.75 14.85-23.7.1-.35 1.3-.75l1.1-.1Q45 183 32 201.25q-10.85 15.2-15.85 20.7-4.85 5.4-6.65 4.45-1.6-.8-1.85-7.3-.2-5.25 3.05-20.9 3.6-17.2 7.1-24.4"/><path fill="#0d131a" d="M24.95 179.45q.1-.3.85-.15.8.1.7.4-.5 2.55-8.7 19.75T9.1 219.1l-.15-2.15q0-1.7.55-3.35.4-1.25 7.95-16.9 7.1-14.8 7.5-17.25m10.35.85.9-.05q.8.25.6.5-.9 1.15-10.6 20l-9.7 18.95-1.4 1.35q-1.3 1-1.15.7l10.6-20.4zm4.5 110.4q-5.3 1.45-8.7 2.6-6.4 2.15-6.6 4.2-.35-.35.1-1.15l.75-1.2q1-1.35 5.35-2.95 3.75-1.35 8.05-2.25l2.9-.3q.4.25-1.85 1.05m1.8 2.9q3.15-.9 3.85-.5.65.4-2.6 1.25-12 3.2-13.5 5.8l-2.1-.05q1.15-1.7 4.65-3.25 3.25-1.45 9.7-3.25m95.5 23.7q-1.25-2.4-.65-2.65t1.85 2.2q1.65 3.2 3.15 7.65 1.7 5.15 1.65 7.85l-1.6-.2q-.15-2.6-1.6-7.35-1.4-4.7-2.8-7.5m7.25-1q1.3 2.85 2.2 6.3 1.05 3.8 1.1 6.45-.95 1.9-1.45 1.9.4-1.85-.6-6.35-.9-3.85-2.2-7.3-1.15-3-.75-3.45t1.7 2.45"/><path fill="#0d131a" d="M137.55 295.3q-.2-4.45 2.05-6.6 8.4-7.9 13-14.95 6.7-10.15 6.75-19.95l1.1-.1q1.05.2 1.05.55-.05 10.05-7.2 20.55-4.55 6.7-13.6 15.3-1.75 1.65-1.6 4.9.1 3.5 2.4 5.45 7.6 6.5 8.25 19.3.25 5.3-1.05 9.1-1.3 4-3.8 4.65-2.45.65-6.2-1.9-3.7-2.55-6.9-7.05-7.9-11.2-5.05-21.8 1.9-7-18-14.4-17.6-6.55-36.8-8.55-7.25-.75-7.9.4-.2.4 1.7 3.85 1.35 2.5.75 4.8-.85 3.35-5.7 5.75-3.8 1.85-11.1 3.75-7.8 2.05-14.3 2.7-10.95 1.1-12.75-2.15-1.8-3.2 6.3-7.7 5.55-3.1 16.55-7.6 6.15-2.5 6-4.45-.15-1.15-1.6-3.3l1.25.2 1.25.2q.75 1.45.9 2.75.2 2.65-6.15 5.4-13.35 5.7-17.4 7.9-5.75 3.1-4.85 5.55.95 2.7 10.05 1.6 15.5-1.8 25-6.25 3.45-1.6 4.4-4 .95-2.25-.4-4.65-2.15-3.95-1.1-5.35 1.45-1.9 9.2-1.1 21.15 2.15 38.7 8.9 19.75 7.6 17.6 15.35-2.55 9.1 4.65 20.25 2.9 4.5 6.2 7.15 3.35 2.65 5.45 2.05 1.65-.5 2.6-4.2.9-3.7.55-8.55-.85-12.35-7.8-17.6-2.25-1.7-2.45-6.15m-4.85-139.45q-2.75-.95-2.65-1.75l2.75.1q5.25 1.85 12.1 2.75l7.7.2q.3-.15.4.9.15 1.05-.2 1.1l-7.75-.65q-7.4-1-12.35-2.65m53.25 51.35q1-3.05 1.6-2.9.6.1.5 3.3-.3 9.6 3.45 12.55 1.55 1.2 3 .4 1.5-.85 2.1-3.45.1-.35.65-.15.6.2.5.5-.7 3-2.55 4.25-1.75 1.25-3.7.4-4.85-2.1-5-11.9-3 7.05-7.1 6.95-3.9-.15-3.9-5.25 0-1.1.75-2.75.85-1.9.65-1.15-.75 3.2-.05 5.35.7 2.05 2.3 2.25 3.95.5 6.8-8.4"/><path fill="#0d131a" d="M224.5 204.7q-.05-.3.55-.4.6-.15.65.15 1.4 9.3-.9 15.1-1.85 4.65-4.85 5-3.6.45-5.55-2.25-1.35-1.9-3.15-7.9-.6 4.65-2.15 7.5-1.8 3.25-4.55 3.25-3.4 0-5.5-3.5-2.15-3.6-2.45-10.25 0-.35.45-.4t.5.3q.2 4.6 1.95 7.9 1.9 3.65 4.7 3.65 2.6 0 4.15-3.3 1.5-3.15 1.5-8.15 0-3.1.5-3.2.45-.05 1.35 2.9l1.9 6.55q2.35 5.75 5.85 5.2 2.65-.4 4.4-5.1 2.05-5.5.65-13.05"/><path fill="#00b8ee" d="M191.8 192.45q.9 2.85.25 3.5-1 .85-5.45-1.5-6.9-3.65-19.55-18.15-12.2-14-14.45-20.05 3.05-1.1 5.15-4.2 1.4-2 1.9-3.85.35-1.35 1.6-1.45 1.4-.1 2.75 1.85l14.25 21.8q12.85 20 13.55 22.05"/><path fill="#0d131a" d="M193.15 197.65q-1.3.85-5.8-1.6-7.45-4.05-19-16.8-11.65-12.8-16.2-22.05l-.65.25q-1.95.4-2.1-.35-.2-.8 1.75-1.2 3.2-.7 5.5-3.55 1.65-2 2.2-4.1.65-2.3 2.3-2.65 1.85-.45 3.8 2.3l13.75 21.2q11.95 18.85 13.85 23.15 2 4.55.6 5.4M177 169.6l-13.6-20.55q-1.05-1.4-1.65-1.75-.9-.45-1.35 1.1-.4 1.5-1.45 3.25-2.1 3.5-5.3 5 2.9 6.5 14.45 19.7 12.15 13.85 18.85 17.4 3.6 1.9 4.35 1.6.65-.25-.25-2.65-1.25-3.35-14.05-23.1"/><path fill="#0d131a" d="m173.25 168.75 17.25 22.4q.85 1.05 1.3 2.35.45 1.25.1 1.1-.85-.35-33.55-42.6-.2-.2.15-1.1.4-.9.6-.7zm-2.2 5.2q14.4 18.1 17.4 20.65.35.35-1.4-.3-1.65-.6-2.3-1.3-5.1-5.65-18.1-22.15L154.5 155.3q-.2-.25.45-.75.6-.45.8-.2zm-4.55-22.6q-.2.25-.85-.25t-.5-.75q3.3-5.6 1.2-13.05-2.05-7.15-7.15-10.4-.25-.2 0-.8t.55-.45q6.3 4.05 8.5 12.4t-1.75 13.3m-37.85-35.15q-.2-.25-.2-1.75t.2-1.25q1.65 2.2 7.95 6.7l7 4.75-.2 1.85-9.4-6.3q-4.65-3.2-5.35-4m8.85 14.95q.3-.1.7.4.35.5.05.6-2.6 1-2.9 4.95-.15 2.3.6 4.65.9 2.6 2.55 4.05l1.35 1.6q0 .35-1.65.55-1.15.15-2.05.7-1.05.6-1.2 1.45-.25 1.3 1.45 3.1 1.85 1.9 5.05 3.4.3.15-.5.55l-1.1.2q-5.05-2.55-6.25-5.75-1.3-3.45 3.45-5.05-3.25-2.6-3.65-7.8-.5-5.75 4.1-7.6"/><path fill="#0d131a" d="M143.45 120.5q.25-1.95 1.1-2.25.95-.4 3.1 1l2.65 2.2 1.9 2.15q1 1.3.7 1.7-.3.35-1.4-.9l-2.25-2.05-2.4-1.75q-1.35-.8-1.65-.65-.2.05-.3 1.25-.25 1.85-.3 5.9 0 1.2-.2 1.35l-1.4.2q-2.4.2-4.45.95l-.8.45q-.1.3.5.85l5.55 5.05q1.4 1.2 1.1 1.5-.25.35-1.9-.7-1.4-.85-3.85-3.05l-2.2-2q-1.8-1.4-1.5-2.2.25-.75 2.4-1.35l2-.35 3.3-.45z"/><path fill="#0d131a" d="M156.35 119.35q1.4-1.05 2.15-1 .85.05 1.15 1.6.55 3.25.4 8.65-.05 2.5-.6 2.2-.5-.3-.6-2.75l-.3-6.15q-.1-1.3-.5-1.55-.35-.3-1.25.35l-2.4 1.95-2.1 1.9q-.2.25-.65-.2-.45-.5-.25-.75.95-1.1 4.95-4.25m-14.5 16.4q0-.35.85 0 .85.3.8.65-.2 2.15-.15 4.4l.15 2.35q.35 2.3-.3 2.3-.6 0-1.1-2.3-.6-3.5-.25-7.4m-60 106.3q1.6-3.25 1.4-7.3-.35-7.9-5.4-24.2-1-3.35-1.95-3.5t-2.6 2.75q-3.35 5.75-5.55 11.85-2.55 7.2-2.55 12.7 0 6.05 3.15 9.4 2.9 3.1 7.15 2.8 4.3-.35 6.35-4.5m1.8-16.7q2.1 10.05.85 14.75-2.2 8.2-9.6 8.05-7.1-.1-10.2-6.65-3.2-6.65.35-17.55 2.7-8.35 8-16.25 1.95-2.85 3.15-2.7 1.25.15 2.55 3.65 3.15 8.65 4.9 16.7m-41.7-79.7 3.5-.4q1.8.2 2.7 1.35 1.15 1.55 1.2 4.25 0 2.4-.9 4.85 2.4-1.25 4.55-.95.2.05.25.9.1.85-.2.75l-2.25.05q-2 .45-3.65 2-1.2 1.1-1.6.75-.4-.3.4-1.75 1.4-2.55 1.8-5.2.4-3-.85-4.7-.75-.95-3.05-.75-2.25.15-3.9 1.15-.35.2.55-1 .9-1.15 1.45-1.3m-36.45.45q.6-.65 3.1.3 1 .35 3.4 1.45l2.85 1.35q.25.2-.2.7l-.75.35q-.3-.2-2.55-1.25l-3.2-1.35-1.2-.1q-.3.2-.15.95.4 2.2 1.55 5.35l.2.95-1.35.3q-2.3.25-3.85.9-1.3.55-1.45 1.1-.1.6 2.05 2.3 2.2 1.75 4.75 2.95 2.15 1.05 2.55 1.7.45.7-1.65 0-3.15-1.05-6-3.2-2.05-1.55-3.15-3-.5-.7-.45-1.1.05-.5.9-1.05t2.75-1.1l3.4-.65q-1.35-3.65-1.65-5.4-.35-2 .1-2.45"/><path fill="#0d131a" d="M18.1 144.65q1.5-1.3 2.1-1.2t1.3 1.9l1.15 3.6.9 3.85q.25 1.85-.25 2-.45.1-.9-1.65-1.55-5.6-2.3-7.15l-.3-.45q-.25-.05-.65.3l-1.8 1.8-2.4 2.75q-1.25 1.7-1.5.9-.3-.75.95-2.45 2.2-2.95 3.7-4.2m49.75-82.3q-1.6-3.2-4-3.15-2.5.1-3.9 3.15-1.45 3.1-1.25 7.95.15 4.4 1.85 7.35 1.7 3 4 3 2.25 0 3.65-3 1.45-3.1 1.25-8.1-.15-4.25-1.6-7.2M63.8 58q3.2-.1 5.15 3.6 1.7 3.2 1.9 8.05.2 5.7-1.65 9-1.75 3.05-4.65 3.05-2.7 0-4.8-2.85-2.3-3.2-2.5-8.5Q57.05 65 59 61.5q1.9-3.4 4.8-3.5m36.4 23.55q-.35-4.9-.8-4.95-.25-.05-1.65 5.7l-1.5 6.4-.55.15-.45-.3 3.3-12.65q.55-1.95.95-1.8l.75 1.8q1 3.7 1.15 8.55.1 4.45-.5 6.3-.05.25-.35-.15-.35-.45-.3-.9.35-3.1-.05-8.15m7.25 7.65.55.7q.4.8.15 1.3-2.35 5.9-7.75 9.7.55-1.6 1.2-2.2 4.25-4.15 5.75-8.2-3.45 1.8-5.6 2.5-.2.05-.35-.5t.05-.65l3.1-1.25zm-66.2-5.5q-.05-.6.45-2.25.45-1.65.45-1.3.05 3.6.85 7.35.75 3.7 1.85 5.6.1.2-.7 0-.8-.25-.9-.5-1.45-3.35-2-8.9m-1.35 4.25q.1-.65.55-1.9l.4-1q-.25 1.7-.05 4.45.2 2.85.7 4.25l-.5.95-.6.45q-.3-.65-.45-2.9-.2-2.45-.05-4.3"/><path fill="#8a969d" d="m62.8 99.7 1 .2q.5.3.55.95l-.15.75-.9.6-.95-.25q-.4-.35-.45-.85t.2-.9.7-.5"/><path fill="#fff" d="m44.7 103.1 2.3 3.2-1.55 1.7q-.6.45-.75-.8l-.05-1.7q-.05-1.65.05-2.4m51.75-2.4.2 2.5-.15.55-.45-.05q-2.4-.7-3.35-1.35L96 98.3z"/><path fill="#0d131a" d="M97.05 92.9q-.6-1.05-.2-1.15t1.05.8q1.9 2.6-3.8 8.9-5.45 5.95-9.45 6.95l-5.55.25-3.3-.15q-.65.2-4.1 2.75-3 2.2-5.2 2.25-2.5.1-5.45-2.15-2.65-2.35-3.35-2.6-1-.35-2.45.4-1.6.9-2.5.8-4-.45-7.5-5.55-3.55-5.1-1.7-7.7.55-.7.85-.7.35 0-.15.75-1.4 2.45 2.15 7.1 3.5 4.6 6.5 4.75.75.05 2.35-.6l2.65-.3 3.3 2.3q2.85 2.05 5.05 2 2.5-.05 5.35-2.1l3.55-2.45q1.2-.4 3.35-.05l5.75-.3q3.5-.8 8.65-6.25 5.4-5.6 4.15-7.95"/><path fill="#0d131a" d="m44 101.2 1 1.8q-.1.85-.05 2.75l.15 1.95.95-.75 1.15-1.2.65.85-2.1 1.65-1 .25q-.55-.2-.6-1.15l-.2-2.95q-.1-2.4.05-3.2m51.95-2.9q.5-.55.55-.35l.4 2.45.05 2.55-.2 1-1-.05q-2.55-.65-3.3-1.2-.15-.1.2-.55l.5-.35q.35.3 1.45.8l1.55.6-.2-1.85L95.5 99z"/><path fill="#fff1ac" d="M55.8 90.65q-2.6-10.35-5.9-10.6-1.25-.1-2.2 1.4-.9 1.4-1.05 3.3-.45-5.35.55-8.6.9-3.05 2.5-2.95 1.8.1 3.1 3.05 1.85 4.2 3 14.4"/><path fill="#fff" d="m55.55 89.4.65 4.35-.15 2.9q-1.1.5-4.7-2.1-3.55-2.5-3.85-3.6l-.6-3.85q-.25-1.85-.1-3.7 2-5.5 4.95-2.4 2.6 2.65 3.8 8.4"/><path fill="#fff1ac" d="M86.6 76q-2.2.4-3.95 3.6-2 3.75-2.55 10.25-1-8.4.35-14.15 1.4-6.1 4.9-6.35 1.8-.1 3.45 3.4 1.6 3.6 2.05 8.9-.8-2.6-1.9-4.15-1.2-1.7-2.35-1.5"/><path fill="#fff" d="M90.35 79.95 91 83.7l.2 3.9q-.55 1.1-4.8 3.8-4.25 2.75-5.3 2.6-.95-2.65-1.05-5.4.65-4.25 2.05-7.7 1.5-3.75 3.25-4.75 1.3-.75 2.7.3t2.3 3.5"/><path fill="#0d131a" d="M86.55 91.45q-.15.45-1.85 1.35l-1.85.65q-.85-1.1-1.45-3.8t-.5-4.8q-.05-1.55 1.25-4.15 1.45-2.85 3.2-4.35 1.25 2.5 1.7 7.35.45 5.05-.5 7.75m-31.95 4.8q-2.35-.8-2.8-1.4-1.8-2.4-2.2-7.6-.4-4.9.7-7.1l1.35.95q1.6 1.75 2.95 5.65.55 2.75.55 5.55-.05 2.7-.55 3.95"/><path fill="#0d131a" d="M48 90.85q.15.65 2.35 2.35 2.3 1.8 4.25 2.65l.95.3q.3-7-1.5-14.3-1.9-7.9-4.5-8-1.95-.1-2.55 4.25-.7 4.95 1 12.75m1.65 3q-2.2-1.8-2.45-2.75-1.75-7.35-1.1-13.05.7-5.75 3.4-5.65 2.95.15 4.9 6.75 1.95 6.4 2.05 15.4.1 2.35-.4 2.65-.35.15-2.15-.65-2.05-.9-4.25-2.7M84.25 69q1.65-.55 3.1.55 3.9 3.1 4.2 16.75l-.1 1.5-.4.7L87 91.7q-2.8 1.9-4.8 2.8l-1.2.1q-.35-.25-.55-1.1-1.4-6.1-1.15-12.15.25-6.8 2.6-10.4.9-1.4 2.35-1.95m1.5 1.2Q84 69.85 82.7 72q-2.5 4.1-2.45 11.65 0 5.9 1.2 9.9 1.5-.3 4.9-2.55 3.45-2.25 4.3-3.65-.25-7.85-1.85-13.25-1.1-3.55-3.05-3.9"/><path fill="#fff" d="M84.75 82.7q.1 1.55-.25 2.5-.35.85-.9.9t-1-.8q-.4-.85-.5-2.25-.05-.75.35-1.95.4-1.3.8-1.35.45-.05.9.75.5.85.6 2.2"/><path fill="#0d131a" d="m90.3 79.75.3 3.65q-.3-2.9-1.5-4.9-1.25-2.1-2.8-1.9-2.1.25-3.75 4.6-1.7 4.3-2 10-.6-2.1-.4-3.8.7-5.5 2.5-8.75 1.6-2.95 3.55-3.2 1.1-.15 2.35.95 1.4 1.3 1.75 3.35"/><path fill="#fff" d="M53.5 85.3q.1 1.3-.15 2.2t-.7.95-.85-.8q-.35-.9-.45-2.15t.15-2.2q.25-.9.7-.95t.8.85z"/><path fill="#0d131a" d="m55.55 89.4.15 3.6q-1.35-8.25-4.2-11.45-3-3.35-4.55 3.35l-.15-1.7q1.05-5.55 4.2-3.5 3.2 2.1 4.55 9.7"/></svg>