<svg xmlns="http://www.w3.org/2000/svg" width="134" height="162" viewBox="-1.6 -3.45 133.6 161.85"><path fill="#ee848c" d="M93.5 53.05q6.4-6.4 15.5-6.4 9.05 0 15.45 6.4 6.45 6.45 6.45 15.55 0 9.05-6.45 15.5-6.4 6.45-15.45 6.45T93.5 84.1q-6.4-6.4-6.4-15.5t6.4-15.55"/><path fill="#ba0058" d="m118 70.6.8 2.1q.55 2.45-.8 4.25-1.35 1.75-4.05 1.65l-2.4-.5q2.65-1.35 4.8-4.55 1.1-1.6 1.65-2.95"/><path fill="#ce737b" d="m87.85 64.5.85 3q1.25 3.55 3.1 6.6 6.05 9.7 16.4 10.15 10.3.45 16.95-4.25 3.35-2.35 4.6-4.8-1.2 4-4.65 7.9-6.9 7.8-18.15 7.25-15.75-2.2-19-14.25-1-3.75-.65-8.05z"/><path fill="#0d131a" d="M93.3 54.9q-5.6 6.5-5.4 14.35.25 8.9 6.4 14.65t15.4 5.75q8.55 0 14.4-6.4 5.5-6.05 5.5-13.75 0-8.75-5.6-15.05-5.95-6.7-15.15-6.7-9.4 0-15.55 7.15m16.4 36.25q-9.9 0-16.55-6.05-6.7-6.1-6.95-15.55-.25-8.95 5.8-16 6.55-7.65 16.7-7.65 10.1 0 16.5 6.7 6.35 6.6 6.35 16.8 0 8.2-6.15 14.8-6.5 6.95-15.7 6.95"/><path fill="#0d131a" d="M104.9 74.75q.35-.05.65 1.2l-.05 3.6q-.9 3.65-4.85 4.25-1.1.2-1.15-.2-.05-.3 1-.65 2.95-.75 3.85-3.9l.25-3.2q0-1.05.3-1.1m15.9-12.95.35-.65q.3-.4.5-.3.4.15 0 1.25-1.6 4.2-4.85 4.8l-2.95-.25q-1.2-.55-1-.9l.45-.1.75.15 2.7-.15q2.75-.8 4.05-3.85m-2.4 12.3q0-2-.4-2.9-1.3 3.15-3.15 4.95l-2.6 1.95 2.6-.05q1.8-.4 2.7-1.45.85-1 .85-2.5m-.5-4.1q.15-.05.5.45l.9 2.35q.55 2.65-1 4.45-1.55 1.85-4.2 1.8-1.85 0-2.5-.45l-.55-.4.5-.5 2.2-1.7q2.45-2.3 3.75-5.5z"/><path fill="#ee848c" d="M21.25 80.8q14.2-12.6 32.65-12 15.15.1 27.35 9.75Q94.9 89.35 98.8 108.1q3.55 17.2-8.1 34.2-4.45 6.5-9.75 10.8-4.9 4-7.8 4-1.8 0-3.65-2.1l-1.5-2.15q-10.5 2.55-21.5 1.45-8.4-.85-11.1-2.5l-1.45 2.3q-1.85 2.4-3.55 2.7-1.75.3-6-2.6l-3.9-3q-3.6-3.8-7.3-9.55-7.4-11.45-8-21.25-.45-25 16.05-39.6"/><path fill="#009f50" d="M64 38.45q5.3.4 9.35 4.2 2.05 1.9 3 3.75-1.55 10.85-9.4 17.75-3.95 3.45-7.6 4.75H52.7q8.3-8.55 10.65-20.35.7-3.7.75-7.25zm17.75.65q1.95-2 3.65-3.15-1.55 10.8 4.1 18.35 2.85 3.8 6 5.45-9.6-.4-15.25-6.4-1.75-1.85-2.9-4.05l-.8-1.85q1.3-4.35 5.2-8.35"/><path fill="#009f50" d="M123 17.3q7 10.35 6.45 18.55-.35 5.15-3.5 8.6-3.6-5.1-5.75-6.8-6.75-5.45-18.35-6.35-11.45-.9-19.5 7.25-4 4.05-5.75 8.3-4.7-7.85-12.95-8.5l-5.95.35-4 .65q-.9.05-2.55.95-2.15 1.25-3.6 1.8-6.25 2.25-18 .9-12-1.35-20.7 5.85-4.35 3.6-6.3 7.5Q.2 47.3 1.2 36.45q1.95-21.6 18.65-30.4 19.1-9.5 37.45-1.75 9.2 3.85 14.55 9.6Q82.6 1.65 98.95 3.3q15.65 1.6 24.05 14"/><path fill="#ba0058" d="M56.95 69.35q-4.35 9.15-5.55 19.5-1.25 10.9.45 27.2.2 1.9-2.35 2-2.6.1-3-1.65-2.55-10.15-1.2-25.15 1.35-15.35 5.6-21.9l2.5-.05q2.65-.05 3.55.05"/><path fill="#008c46" d="M76.6 46.7q-1.45-2.95-5-5.35-7-4.8-17.2-1.9L40.25 43.1 28 42.7q-9.2-.6-16.85 4.15-6.1 3.8-8.55 8.75.5-3.95 3-8.1 5-8.3 15-9.2 4.65-.4 15.2-.05 5.55.15 13.75-2.45 9-2.85 17.1.1 8.6 3.1 9.95 10.8m8.95 10.75q-6.1-3.2-8.85-9.85l.9-2.45q1.1-2.65 2.1-3.35l-.05 1.85q.05 2.3.8 4.6 2.45 7.2 10.65 11.1-2.5-.3-5.55-1.9"/><path fill="#008c46" d="m63.95 47.1.5-8.05q7.65 1.7 10.65 5.5 1.55 1.85 1.5 3.4-4.25-2.1-8.85-1.7zm19.2-10q-2.15 1.75-3.6 3.8l-1.05 1.7 1.05-2.45q1.5-2.9 3.6-5.35 6.7-7.85 17.05-7.95 10.9-.05 19 6.8 6.9 5.85 6.5 10.65-1.9-3.35-6-6.65-8.15-6.65-18.95-6.4-10.8.3-17.6 5.85"/><path fill="#ce737b" d="M49.3 139.2q15.05.4 28-4.05 14.1-4.8 22-14.35-.3 10.3-9.7 22.9-9 12.15-16 13.4-2.15-.3-3.95-2.4l-1.35-2q-8.4 1.9-14.7 1.75-5.05-.1-11.95-1.3l-5.95-1.2-1.9 2.05q-2.3 2.2-4.05 2.65-5.2-.9-13.1-10.65-9.5-11.75-11.25-25.2 5.05 8.25 17.4 13.25 11.8 4.75 26.5 5.15"/><path fill="#f6c6c5" d="M25.1 87.6q-.6-.8-.45-2.05.2-1.45 1.35-2.45t2.4-1.2q1.45-.2 2.4.9.9 1.05.5 2.6-.35 1.35-1.5 2.25-1.25.95-2.55.95t-2.15-1m77.65-34.05q-.15-.65.3-1.4.55-.8 1.5-1.1l1.8.05q.9.35 1.15 1.3t-.45 1.75q-.6.75-1.55.95l-1.8-.25q-.75-.4-.95-1.3"/><path fill="#0d131a" d="M57.5 125.95q.9-.9 1.2-.65.35.25-.45 1.4-1.85 2.75-7.8 3-6.1.2-8.3-3-.8-1.15-.4-1.45.4-.25 1.35.85 1.95 2.3 6.95 2.3 5.1 0 7.45-2.45M33.7 151.8q-2.1-.9-1.65-1.3.4-.35 2.75.45 6.25 2.1 13.55 2.6 11.15.8 22.5-2.35l1.95.05q-.25.65-2.4 1.3-11.95 3.7-23.4 2.55-7.45-.75-13.3-3.3m92.05-108.6q2.1-3.1 2.6-6.1.55-3.45-.65-8.5-1.65-7-8-13.55-7.65-7.95-18.15-10.2Q90.8 2.5 81.1 7.65q-4.75 2.5-8.45 6.4 1.85 2.15 2.45 4.15.45 1.3.15 1.45-.35.2-.9-.8Q68.25 8 53.1 3.95 37.15-.3 22.65 6.5 7 13.85 2.95 31.9.4 43.55 2.75 54.85 5 49.7 10.45 46q6.8-4.6 15.55-4.15 12.1.55 15.65.2 3.6-.35 9-2.65 6-2.6 13.2-1.75 9 1.1 12.55 7.8 3-5.65 7.5-9.45 7.6-6.45 17.55-5.8 8.85.65 15.9 4.8 6.25 3.65 8.4 8.2m3.65-15.05q2.6 10.2-3.15 16.75l-.75.4-.5-.65q-1.25-3.7-6.95-7.25-7.1-4.4-16.65-4.95-10.85-.75-18.6 6.9-2.45 2.35-4.3 5.35l-1.4 2.55-.6.4-.7-.4q-3.3-6.8-11.75-7.75-7.05-.8-13.9 2.4-5.1 2.4-9.95 2.65l-14.5-.75q-10.55-.4-17.6 6.35-3.55 3.4-5 6.95-.4.75-.75.7-.3 0-.6-.85-3.35-12.1-.65-25.6 3.85-19.5 20.3-27Q36-2.35 50.95 1.2q12.55 3 20.55 11.45 4.25-4.4 9.15-6.95 10-5.2 21.45-2.95 10.95 2.2 18.65 10.2 6.5 6.8 8.65 15.2"/><path fill="#0d131a" d="M63.45 38.8q0-.3.8-.3.75 0 .8.3l.1 3q-.1 3.65-.85 7.4-2.4 11.9-10.85 20.15-.2.2-.75-.25t-.35-.7q7.5-8.4 10.05-19.8.8-3.55 1-7zm12.3 8.05q.05-.3.75-.2.75.15.65.4-.85 5.1-3.85 10.4-5.9 10.6-16.45 12.45l-.75-.5q-.45-.6-.15-.7 9.85-2.1 15.8-12.15 2.95-5 4-9.7"/><path fill="#0d131a" d="M84.75 36.3q0-.3.75-.25.7.05.7.35-.35 11.2 4.4 18 2.35 3.4 5.1 4.75.95.25.8.9l-.4.35-.6.15q-3.5.25-7.65-1.2-8.3-2.85-11.95-11.25-.1-.25.4-.9.55-.6.65-.35 2.85 5.75 7.9 9.05 3.95 2.6 8.75 3.4-4.4-3.3-6.4-7.05-2.55-4.9-2.55-12.85zM18.8 82Q33 67.9 51.85 67.9q20.95 0 34.9 14.6 13.6 14.3 13.55 34.95-.05 16.2-11.55 29.75-4.3 5.1-9 8.3-4.3 2.9-6.5 2.7-2.6-.2-6.05-5.3-.2-.25.55-.6l.9-.05q2.5 3.75 4.55 3.95t6.05-2.7q4.35-3.1 8.3-8.05Q98.05 132.4 98 117.5q0-20.1-12.4-33.55-13-14.05-33.75-14.05-18.65 0-32.05 13.7Q6.15 97.65 6.65 117.55q.4 15.15 9.8 27.45 3.6 4.75 7.65 7.75 3.7 2.8 6.05 2.9.6.05 2.4-1.5L35 151.6q.15-.25.95 0 .8.3.6.55-.9 1.45-2.8 3.3-2.25 2.2-3.45 2.15-2.65-.1-6.8-3.1-4.45-3.25-8.45-8.35-10.2-13.1-10.6-28.6Q3.9 96.7 18.8 82"/><path fill="#ba0058" d="m73.15 110.2 2.25.7q2.3 1.45 2.35 5.05.05 3.55-2.05 4.9-1.05.65-2.1.6l-2.1-.45q-2.15-1-2.35-3.75-.7-4.1 1.6-6z"/><path fill="#fff" d="M72.8 114.75q-1.3-.15-1.5-1.4-.1-1.05.6-1.7l.7-.4.7-.05q.8.1 1.25.8.4.65.25 1.4l-.3.7q-.5.85-1.7.65"/><path fill="#ba0058" d="m27.8 110.55 2.2.85q2.2 1.6 2.05 5.15-.1 3.6-2.3 4.8-1.1.6-2.15.45-1 0-2.05-.55-2.05-1.1-2.15-3.9-.45-4.1 1.95-5.85z"/><path fill="#fff" d="M27.25 115.15q-1.25-.25-1.35-1.45-.05-1 .65-1.55l.7-.35h.7q.75.15 1.1.8.55 1-.15 2-.7.7-1.65.55"/><path fill="#0d131a" d="M24.1 116.5q-.05 2.2 1.05 3.7 1.05 1.45 2.4 1.45 3.2-.1 3.7-4.85.1-2.05-.8-3.75-1.05-1.8-2.6-1.8-1.7-.05-2.7 1.45-1 1.45-1.05 3.8m3.3 6q-1.8-.1-3.2-1.65-1.55-1.75-1.5-4.35.05-2.3 1.35-4.1 1.45-2.05 3.8-2.05 1.9.05 3.35 1.85 1.55 1.95 1.35 4.7-.1 2.4-1.45 4-1.45 1.7-3.7 1.6m42.25-6.25q.1 2.05 1.1 3.5 1.05 1.45 2.45 1.5 1.6.05 2.65-1.6.9-1.45.95-3.45-.1-2.4-1-3.9-1-1.7-2.75-1.7-1.5 0-2.4 1.3-1.1 1.5-1 4.35m3.35-6.5q2-.05 3.5 1.6 1.65 1.8 1.7 4.8-.05 2.75-1.55 4.5-1.4 1.55-3.2 1.55-2.05-.05-3.5-1.65-1.55-1.7-1.65-4.25-.1-2.6 1.2-4.5 1.4-2 3.5-2.05"/></svg>