<svg xmlns="http://www.w3.org/2000/svg" width="130" height="177" viewBox="-0.05 -1.35 129.95 177.2"><path fill="#b76870" d="M38.6 171.8q-3.5-3.3-4.7-6l45.25-15.3 19.35 4.95q-2.15 4.6-6.95 10.45-4.8 5.95-6.5 6-1.45.1-4.1-2l-2.35-2.15q-3.95 1.3-13.4 2.1-9.5.8-14.95.3-4.1 4.9-6.2 4.95-1.85.05-5.45-3.3"/><path fill="#904f57" d="M34 165.75q6.85-.3 15.9-2.35 18.1-4.05 29.25-12.7 10.25 5.65 10.95 5.7-3.35-.15-8.55-1.95l-1.45.05-2.25 1.4q-8.55 6.75-20.65 10-10.65 2.85-21.1 2.35zm43.75 2.1q5.05 2.35 8.35 1.25 3.25-1.1 7.85-6.7l-3.4 4.75q-3.75 4.8-5.45 4.85-1.75.05-4.7-2.05zM44 175.45q-1.65 0-6.6-5.65 3.7 3.35 7.05 3.1 2.95-.25 6.15-3.2-5 5.75-6.6 5.75"/><path fill="#915e82" d="M101.6 55.35q8.05 13.15 9.65 27.65 1.6 14.1-2.55 33.2-2.55 11.75 1.05 19.3 4.4 9.15 19.6 17.5-11.15 5.2-25.45 4.8-15.35-.4-25-7.4-8.3 6.55-18.9 10.25-17.5 6.05-34.1 4.7-16.8-1.4-25.25-9.85 6.5-2.2 11.8-7.65 5.8-5.95 7.5-13.25.7-3.2.3-6.85-.4-4.15-2.1-7.6Q11.35 106.3 11.4 92q0-11.95 4.9-25.45L61.7 50.2z"/><path fill="#7f5072" d="m13.85 77.1.6-3.5L41.3 62.35l4.5 4.45q-6.25 3.5-16.2 6.6-9.1 2.85-15.75 3.7M112 89.8q.6 15.05-4.3 31.25l-4.65 12.6q-2.3 5.9-2.15 9.1.35 7.45 6 10.9 5.5 3.35 14.45 2.05-4.6 2.7-16.25 2.45-14.85-.35-25.7-7.4-14.75 10.95-34.35 14.4Q23.45 169 8.6 160.8q21.2 5.45 39.45-3.65 16.7-8.3 25.4-25.55 8.7-17.2 5.3-35.05-3.7-19.5-20.9-32.2l24.5-7.25 22.05 3.75q7 12.75 7.6 28.95"/><path fill="#009f50" d="M88.5 28.3q14.2.85 24.45 8.4-1.65 1.35-6.7 4.3l-6.05 3.4q10.6 7.5 15.65 17.8l-16.3-2.35-17.5-3.1q-.1 11.45-4.4 24.2-15.15-3.2-27.4-11.45-3.8-2.6-6.9-5.35l-2.3-2.3-14.8 6.55q-15.65 6.75-20.2 7.75 6-26.7 24.7-35.45 7.2-3.35 14.9-3.25 6.8.05 11.4 2.6l7.25-5.45q9.45-7.2 24.2-6.3"/><path fill="#008c46" d="M6.3 74.3q10.8-3.75 23.05-10.5 10.1-5.65 10.55-5.6.95.05 3.1 3.6 1.9 3.2 2.2 4.3.1.45-2.05-1.4-2.4-2.1-2.8-1.95Q7.55 76.7 6.3 75.9q-.75-.5-.45-1.1z"/><path fill="#008c46" d="M45.2 66.1q14.95 4.45 23.9 3 10.1-1.55 12.95-10.65 0 6.5-1.9 14.55-1.75 7.45-2.8 7.75-6.3-.35-15.2-4.3-9.5-4.2-16.95-10.35m36.7-13.6q5.95 2.55 14.85 4.55 9.5 2.15 17.75 2.6l1.2 2.55-11.45-1.35Q91 59.05 81.9 56.7zm9.7-13.3q4.15.9 11.05-.55 6.25-1.25 7.1-2.4.35-.4-.7-1.45-1-1-2.35-1.8 5.75 2.7 5.75 3.65 0 .9-12.35 7.9zm-33.4 5.95q-.6-.55-.45-1.2t.9-1.25q1.55-1.05 3.65-.4 1.95.6 2.1 1.55.2 1.3-2.6 1.8-2.7.4-3.6-.5"/><path fill="#0d131a" d="M81.8 50.25q.95 1.15 1.05 4.7.2 5.9-.7 12.2-.9 6.55-2.65 11.35l-1.35 2.9-3.3-.15q-11-2.1-20.3-7.25-8.05-4.45-13.8-10.5-3.1 2-15.95 7.05-12.4 4.9-16.1 5.8l-3.15.1q-.5-.4-.05-2.45 2.6-11.7 7.75-19.6 6.45-9.95 17.3-14.85 6.75-3.05 14.25-3 6.5 0 11.4 2.2l.5 1.1q.25.9 0 .8-4.35-2.35-10.9-2.45-7.45-.05-14.35 3.05Q23.7 44.75 18 51.7q-7.55 9.1-11 23.5 7.4-2.1 31.85-13.1 1.65-.75 2.1-.7.55 0 1.55 1 4.65 4.5 11.15 8.4Q64.3 77.25 77.1 80q2.6-7.9 3.55-16.6.65-6.35.35-11.2-.15-3.1.8-1.95"/><path fill="#0d131a" d="M84.8 37.95q-2.85-.5-2-1.05l4 .1q7.55 1.65 15.05 7.25 8.65 6.5 13.8 16.05.95 1.7.75 2.1-.25.55-2.7.3-19-1.8-31.9-4.8-.25-.05-.15-1 .1-.9.4-.85l32.55 5.35q-6.2-9.95-15.4-16.6-7.8-5.7-14.4-6.85"/><path fill="#0d131a" d="M100.15 44.65q-.85-.55-.65-.7l4.85-2.65 7.45-4.55q-9.95-6.95-23.4-7.8-14.35-.9-23.7 6.2-.25.2 0-1t.6-1.45q9.95-6.65 23-5.8 12.55.75 23.6 8.1 1.4.9 1.45 1.6.05.8-1.45 1.9-4.15 3.05-10.45 6.5-.45.25-1.3-.35M95.6 59.5l1-.1 1.25.35q6.45 10.65 7.25 28 .8 17.4-4.45 32.65Q90 151.5 60.2 161.85q-17.85 6.2-34.2 4.7-14.55-1.3-23.5-8.05-2.55-1.9-2.5-2.8.1-.9 3.3-2.5 5.8-2.8 10.4-8.45 4.3-5.3 5.45-10.3.65-2.9.3-6.4-.4-4.1-2.15-7.6-6.5-13.2-6.95-25.35-.35-9.35 3.1-21.3.05-.3 1.2-.7 1.1-.45 1-.2-3.6 13.15-2.85 24.35.75 11.5 6.2 22.6 3.85 7.85 2.15 14.9-1.65 7.35-6.9 13-4.9 5.25-12.05 8.1 9.35 7.65 25 8.7t32.55-4.8q16.3-5.65 26.85-17.9 7.95-9.3 12.3-21.9 5.5-16 4-34.4-1.35-16.85-7.3-26.05"/><path fill="#0d131a" d="M103.15 60.85q1.85-.2 2 0 6.35 10.8 7.4 24.45 1.05 13.3-2.75 31.05-2.4 11.2.6 18.25 3.7 8.65 16.95 16.35 2.25 1.35 2.4 2 .15.8-2.3 1.8-12.5 5.05-25.6 4.3-13.8-.85-23.6-8-.2-.15.5-.85.7-.75.9-.6 9.45 6.9 23.55 7.5 12.85.5 24.6-4.2-14.7-7-18.95-16.35-3.6-7.8-.85-20.5 3.15-14.35 2.55-27.65-.75-16.65-7.4-27.55"/><path fill="#0d131a" d="m80.35 170.65-3.15-2.4q-.2-.2.8-.7 1-.45 1.2-.25 4 4 5.8 3.95 1.35-.1 5.1-4.65 3.9-4.8 6.1-9.45l1.1.05q.95.3.85.55-2.15 4.6-6.55 9.6-4.45 5.15-6.5 5.25-1.65.1-4.75-1.95"/><path fill="#0d131a" d="M80.35 167.7q-5.7 2.05-15.05 3-9.1.95-15.55.2-.25-.05.1-.85.4-.8.65-.75 6.4.7 15.7-.25 9.35-.95 14.6-2.85l2.05-.05q-.15.7-2.5 1.55"/><path fill="#0d131a" d="M32.75 165.85q-.15-.25 1.05-.25 1.25-.05 1.5.35 1.75 2.85 4.6 5.6 2.9 2.9 4.15 2.85 1.55 0 6.4-6 1.7-2.1 2.15-1.35t-1.25 3.05l-3.45 3.65q-2.35 2-3.8 2.05-2 .05-6-3.6-3.7-3.4-5.35-6.35m38-10.3q0-.25.9-.35.95-.05.9.25-.25 3.8-1.75 8.05-1.45 4.25-3.3 6.5l-.9.1q-.7-.1-.55-.35 1.8-2.35 3.1-6.4 1.3-3.9 1.6-7.8m8.8 2.05q-1.3-.3-1.1-.8t1.85-.4q5.05.45 9.1.05 1.3-.1 1.55.3t-.9.75q-4.55 1.5-10.5.1"/><path fill="#b76870" d="M58.25 7q7.65 7.1 7.85 18.7.25 11.7-7.25 19.4-4.7-12.2-9.6-14.5-2.05 7.4-7.6 10.5-4.5 2.45-10.45 1.8-6.8-.75-10.8-7.1-4.4-6.9-2.15-16.15 1.55-6.3 6.2-10.95 4.4-4.4 10.5-6.35T47.1 1.5Q53.55 2.65 58.25 7"/><path fill="#904f57" d="M46.35 36.95q-5.15 6.25-14.45 6-6.2-.15-10.6-5.4-4.3-5.05-4.2-11.3 4 8.9 14.55 10.4 10.6 1.5 18-6.05-.7 3.2-3.3 6.35"/><path fill="#904f57" d="M49.8 25.2q5.9.55 9.25-4.65 3.85-5.9-.95-14.2 4.65 4.5 6.55 10.2 2 6.05 1.25 14.45-.7 7.55-7.1 14.1l-3.2-6.75q-3.25-6.7-5.95-7.75z"/><path fill="#0d131a" d="M59.3 45.65q-1.2.35-2.1-2.15-1.65-4.55-3.9-7.8-1.6-2.3-3.25-3.6-1.35 5.05-5.15 8.15-5.5 4.45-13.75 3.55-6.85-.8-11.5-7.1-5.4-7.3-3-17.2 1.55-6.3 6.4-11.25 4.9-4.95 11.5-6.95 8.8-2.65 16.5.05 7.2 2.5 11.6 8.95t4.5 14.7q.1 8.8-4.85 17.2-1.8 3.1-3 3.45M49.9 21.4q.65.35.8 2.8.2 3.05-.2 5.7 1.65 1.2 3.5 3.9 2.65 3.75 4.25 8.45.55 1.45.9 1.4.5-.05 1.85-2.3 4.2-7 4.2-15.3 0-12.35-8.7-19.45-8.95-7.35-20.95-3.75-6.3 1.9-10.7 6.4Q20.5 13.75 19 19.8q-2.25 9.3 2.35 16 3.95 5.75 9.95 6.4 6.2.7 11.1-2.5 7.3-4.7 6.9-16.4-.05-2.25.6-1.9"/></svg>