<svg xmlns="http://www.w3.org/2000/svg" width="74" height="139" viewBox="-0.7 -0.05 73.85 138.5"><path fill="#f09cb4" d="m44.9 13.85.05.05.65.5.2-.05 5.15.2q3.45.6 4.8 1.95l.1.1v.1q.6 4.7-2.65 11.65l-3.35 6.6q4.3 3 6.85 6.9 2.95 4.5 3 9.55.05 3.25-1.05 6.55-1.2 3.7-3.4 5.85l.1-2.95q-.45-1.3-1.65-1.6l-6.45 1.2-14.4.7q-7.2-.55-14.3-2.75l-5.65-2.1-2.55.35q-1.3.45-1.6 1.2-.65 1.65.35 3.6l1.1 1.6-.4 1.2-.55 2.1-.45.8-1.9-5.05-1.8-5.85q-.8-3.15-.8-5.7.1-6.5 4.4-12.2l4.3-4.4-.1-.2q2.15-1.1 3.55-1.2-1.05-1.6-2.85-6.25-2.35-5.9-2.3-8.8l.4-.05q2.6-3.15 7.85-4l5-.15.25.05.45 1 .05-.05q3.25-2.55 9.85-2.7 6.65-.15 9.75 2.25"/><path fill="#f09cb4" d="M11.3 17.5q-.05 2.9 2.3 8.8 1.8 4.65 2.85 6.25-1.2.05-3.35 1.65-4.2-5.85-6.2-14.95 1.5-1.5 3.95-1.65z"/><path fill="#ffe33f" d="M14 42.9q1.95-2.25 4.35-2.15 2.05.1 3.6 1.85 2.7 2.9 2.3 8.55-.15 2.6-1.05 4.7-.95 2.05-2.45 3.15l-.1.05h-.1q-3.35-.95-6.15-2.25l-1.75-.5h-.1l-.05-.15q-1.4-2.8-1-6.55.35-4.2 2.5-6.7"/><path fill="#ffe33f" d="M9.1 57.65q.55-1 2.15-1.2 1.45-.15 2.75.4 8.95 3.8 20.1 4.3 9.7.5 18.15-1.55l1.9-.05q.9.2 1.15.9.45 1.2-.4 2.9-.9 1.85-2.65 2.7-3.05 1.65-6.95 2.45l-17.15.6q-5.3-.7-10.1-2.2-5.4-1.65-7.15-3.5-1.75-1.8-2.15-3.15-.35-1.3.35-2.6"/><path fill="#ffe33f" d="M13 65.05q-1.2 2.55-1.3 5.7-.05 1.75.35 5.8l.5 5.95q0 3.4-1.1 5.95l-2.2 4.2-2.4 3.95L4 101.8q-1.4 2.85-2.05 5.35l-1.05 1q-.55-3.6 1.05-7.5 1.15-2.8 3.8-6.65l2.7-3.95q1.45-2.4 2.05-4.3.7-2.3.45-5.8l-.9-6.1q-.3-1.8-.45-3.95-.25-4.4.65-6.4z"/><path fill="#f09cb4" d="m53.8 89.8 4.05-2.55q4.25-2.5 5.75-1.7.95.25.3 5.5l-.8 5.05q3.3 3.25 5.1 6.95.95 2.1 2.1 9.55-1.3 1.3-3 1.25l-3.4-.95q-1.55-.6-3.5.4-1.25.65-3.2 2.35-1.95 1.65-4.15 1.4-.95-.1-2-.8l-1.7-1.55q-2.6-3.65-6.05-13.65-4.25-12.35-3.9-20.3l2.15 2.1 2.55-3.1q2.75-3.05 4-2.8.9.2 1.75 3.6l1 5.25.3 2.9 1.4.5q1.15.4 1.25.6"/><path fill="#fff" d="m7 96.6 2.3-4 2.15-4.2q1.15-2.7 1.2-5.8l-.5-5.7q-.55-4.9-.5-6.25.1-3.55 1.9-5.45 8.85 3.75 18.8 4.25 10 .5 19.05-2.4l-5.6 4.35q-4.2 3.35-4.45 3.7-2.2 2.7-3.4 6.5-1.95 5.9 1.4 18.5 3.25 12.25 8 18.6 2.65 3.55 4.8 3.45 2.25-.05 4.2-.95l2.85-1.75 1.8-1.4q1.05-.7 1.9-.7 1.05 0 6.55 1.8-.8 5.6-2.95 7.3-1.45 1.1-4.95.9-3.35-.2-5.45.6-2 .8-3.5 2.25l-2.3 2.7q-1.65 2.1-3.25 3.15-2.15 1.45-4.9 1.6-2.35.15-4.95-1-1.6-.7-4.65-2.75L28 131.15q-2.7-1.4-5.3-1.75-3.8-.6-10.4.05l-4.9.4-4.4-.5q-3.25-1.1-.2-10.85l-.35-1.6-.7-2.6q-.7-4.2 1.1-9.25Q4.05 101.7 7 96.6"/><path fill="#ffe33f" d="m37.8 81.7.6-1.5q.7-1.55 1.05-1.7-.45 9.8 3.75 22.4 3.25 9.8 6.25 13.95 1.5 2.05 3.75 2.3 1 .15 2.1-.45l1.95-1.45q3.75-3.25 6.35-2.3l3.3 1.1q1.7.25 3-.9l.5-1.8.85.6q.9.85 1.25 1.95.3 1.1-.3 2.55-.5 1.3-1.2 1.7-1.4.7-2.8.6l-2.35-.6q-1.65-.55-3.2-.55-1 0-1.95.5l-1.8 1.2-2.75 1.8q-1.85.9-3.95.95-.95 0-2.2-.85-1.35-.9-2.5-2.45-4.7-6.3-8.05-18.6-3.5-12.65-1.65-18.45m7.55-33.5q.95-2 2.35-3.15 1.55-1.2 3.1-.95 2.3.35 3.55 3.15 1.3 2.8.8 6.45-.45 3.4-1.9 5.5l-.05.1-1 .15-5.85 1.1h-.15l-.05-.1q-2.5-2.35-1.95-7.9.25-2.35 1.15-4.35"/><path fill="#ea6d8d" d="m28.35 3.7-1.4 2.45-.2-.25-1.25-1.3-.25-.2.25-.15q1.1-.7 2.45-.6zM43.8 7.65q.55 1.8 1.2 6.45l-.45-.3q-3.05-2.15-9.5-2t-9.7 2.45l-.45.3.1-.55q.65-5 2.95-8.95 1.25-2.15 3.5-3.3Q33.6.7 36.2.8q3.15.2 5.05 2.15.95 1 1.25 1.95.9 1.35 1.3 2.75m-33.55-.5q1.5-1.1 3.1-1.4l.55-.1-.35.5Q12.5 7.65 11.9 9.7q-1.1 3.55-.85 7.8v.25h-.2q-2.5.15-3.95 2.1v-.95q-.5-5.8 1-8.95.75-1.6 2.35-2.8"/><path fill="#ea6d8d" d="M26.65 6.85 26.6 7q-1.2 2.85-1.85 6.5v.25h-.25l-4.95.15q-5.15.75-7.8 3.75l-.4.45v-.6q-.2-3.85.85-7.45.85-2.9 2.6-4.7 1.7-1.8 4-2.2 2.1-.35 4.2.6 2.1 1 3.6 3zm17.5.65q-.4-1.3-1.25-2.65l-.1-.2.2-.1q3.2-2 6.8-.7 4.55 1.65 5.9 7.8.45 1.85.45 4.65v.5l-.4-.35q-1.5-1.2-4.85-1.75l-5.2-.2-.3.05v-.25q-.2-3.55-1.25-6.8"/><path fill="#dbdcdc" d="M62.9 117.35q1.05 0 6.55 1.8-.8 5.6-2.95 7.3-1.45 1.1-4.95.9-3.35-.2-5.45.6-2 .8-3.5 2.25l-2.3 2.7q-1.65 2.1-3.25 3.15-2.15 1.45-4.9 1.6-2.35.15-4.95-1-1.6-.7-4.65-2.75L28 131.15q-2.7-1.4-5.3-1.75-3.8-.6-10.4.05l-4.9.4-4.4-.5q-3.2-1.05-.35-10.4 3.8 5.7 18.25 7.5 5.6.7 16.95-2 11.25-2.65 14-2.3h.3q2.25-.05 4.2-.95l2.85-1.75 1.8-1.4q1.05-.7 1.9-.7M28.95 76.6q-4.35-1.3-7.85-3.95-3.75-2.85-5.65-6.7Q24 69.2 33.4 69.5q9.45.3 18-2.45l-5.6 4.35q-4.2 3.35-4.45 3.7l-1.55 2.15q-4 1.35-10.85-.65"/><path fill="#f09cb4" d="M51.15 86.15q.85-1.05 2.3-2 1.45-1 2.15-.85 1 .25 1.2 4.3l-2.65 2.25-2.85-1z"/><path fill="#d0879d" d="M49.8 35q-2.9 6.35-17.85 5.55-6.25-.35-11.45-2.1-5.55-1.85-7.55-4.6L10.3 29.8l1 .2q1.35-.15 2.95-1.7 1.75 2.45 5.9 2.1 3.75-.3 5.55-2.1 2.7 2.5 8.9 2.4 6.1-.1 9.05-2.55.95 1.75 4.2 2.4 3.45.75 5.4-.9z"/><path fill="#dcc437" d="M8.9 58.1q7 7.15 23.3 8.35 16 1.2 23-4.25l-.4 1.5q-1 1.75-3.9 3.1-6.85 3.2-17.3 2.85-12.3-.4-22.2-6.1-1.4-.8-2.1-2.2-.8-1.55-.4-3.25"/><path fill="#d0879d" d="M66.85 100.6q2.5 3.25 3.3 9.85.2 1.75-.45 2.5-.55.6-2.05.85l-3.25-.45-1.95-.7q4.45-1.1 4.85-6.7z"/><path fill="#dcc437" d="M61.95 117.65q-1.6.3-3.85 2.2-2.05 1.75-5.2 1.8-3.1 0-4.5-1.6-4-4.8-6.25-12.1 4.3 8.6 8.7 10.75 3.5 1.75 6.7-.85 2.45-2 4-2.35 1.6-.4 4.25.5l4.1.25q1.8-.6 2.35-2.55l-.1 2.25q-.4 2.3-1.9 2.65-1.55.3-3.2 0l-2.2-.65zM.9 102.8q.2.25.75.3 1.05.15 2.6-.9l-1.4 2.65q-1.4 2.9-1.3 4.4-.3-.35-.5-1.35-.45-2-.15-5.1"/><path fill="#d0879d" d="M64.3 87.7q.2 2.45-.5 5.85-.65 3.15-1.25 3.75-.85.85-2.95.4-2.05-.5-1.9-1.2.15-.6 3-3.1 2.8-2.5 3.6-5.7m-8.2-2.9q.8 1.05.75 2.2l-.15.9-2.55 1.95-1.05-.7q1.9-1.1 2.65-2.85zm-6.25-5.4.85 4.35q.8 4.7.65 6.5-.55.95-2.55.6-1.95-.35-2.1-1.05l1.5-2.95q1.65-3.1 1.65-7.45"/><path fill="#0d131a" d="M13.3 33.55q1.25-.8 1.75-.6t-.7 1.05q-7.4 4.95-9 12.45-1.5 6.9 2.1 15.15l1.5 4.25Q9.2 63.9 10 62.5l.65.1.45.5Q10 65.05 10 67.5q-.05 2.05.8 6.85l.75 5.85q.2 3.25-.55 5.65-.6 2-1.95 4.25l-2.6 3.95q-2.95 4.2-3.95 6.6-1.65 3.85-.8 7.6l-.4 3.25q-2-5.6-.85-9.45.7-2.45 4.55-8l2.8-4.15q1.6-2.55 2.2-4.4 1.2-3.85-.45-12.3-1.4-7.25-3.2-11.15-4.05-8.8-2.45-15.9 1.7-7.4 9.4-12.6m1.05 92.15q-1.75-.55-1.55-1l1.9.2 6.3 1.15 5.45.25q2.1-.15 2.15.3t-2.05.55q-3.65.25-6.4-.1t-5.8-1.35"/><path fill="#0d131a" d="m12.7 64.55.65.1.5.55q-1.35 2.5-1.5 5.55-.1 1.9.35 5.95l.55 6q.05 3.45-1.15 6.15l-2.2 4.1-2.3 3.85q-4 7-4.9 10.85-1.45 5.95 1.4 11.65.9 1.9.65 2.4t-1.25-1.25q-3.55-6.1-2.45-11.85.8-4.05 5.45-12.25 3.5-5.45 4.7-8.2 1.1-2.5 1.05-5.65l-.55-5.7q-.5-4.75-.5-6.2.05-3.45 1.5-6.05m28.25 10.9q1.25-1 .8-.45-4.3 5.4.45 21.25 3.8 12.8 7.65 18.1.6.85 1.55 1.45.95.65 1.85.7 1.9.2 3.75-1.4 2.15-1.8 3.65-2.4 1.75-.7 3.4-.05 4.1 1.55 5.4-.25.65-2.2-.95-7.1-1.95-5.9-5.95-8.75-.1-.1.25-.65.4-.55.55-.4 4.55 3.85 6.4 10.05 1.55 5.2.4 7.55-.75 1.3-2.4 1.3-1.5 0-4.1-1-1.1-.4-2.3 0-1.45.55-3.7 2.45-2.45 2.2-4.75 1.9-2.3-.2-3.95-2.5-3.3-4.5-7.05-16.4-4.5-14.45-2.25-21.6.3-.95 1.3-1.8"/><path fill="#0d131a" d="M51.1 89q.3.15.35-.95l2.85 1.35q.2.1-.15.6l-.5.45zM39.45 78.45l.4-.85.35-.45q-.25 3.2 1.7 5.4 1.4 1.55 5.1 3.5 1.2.65 1 .9l-1.5-.25q-7.35-2.65-7.05-8.25m30.15 40.1.55.1q-.45 6.8-3.35 8.6-1.5.9-5.9.7l-2.4-.15-2.3.35q-1.85.75-3.4 2.4l-2.35 2.9q-3.7 4.55-7.95 4.8-4.2.2-10.3-3.8l-4.5-2.85q-2.65-1.45-5.1-1.8-3.75-.55-10.2.1l-4.8.55-4.45-.4q-2.55-.8-2.5-4.25.05-2.1 1.2-5.8l.65-2.3q.05-.2.5.35l.35.75-1.25 4.3q-.85 4.5 1.4 5.5 1.65.75 4.1.7l4.7-.45q6.4-.65 10.45 0 2.6.4 5.35 1.8 1.6.85 4.65 2.85 5.35 3.55 9.4 3.35 4.2-.15 7.45-4.25l2.5-2.85q1.65-1.6 3.7-2.4 1.1-.45 2.55-.5l2.6.05q3.9.15 5.5-1.15 1.95-1.65 2.55-6.85.05-.2.6-.35"/><path fill="#0d131a" d="M53.5 90.05q2-2.15 5.55-4 3.8-2.05 5.05-1.3 1.3.75.65 5.45-.6 4.2-1.75 6.65-.4.85-.85.9-.45.1-.05-.75 1.15-2.5 1.6-6.75.45-4.05-.2-4.5-.75-.4-4.3 1.4Q55.55 89 53.7 91q-.7.75-.8.3-.1-.5.6-1.25m-12.1-7.2q1.15-2.4 3.2-4.6 2.35-2.6 3.7-2.25 1.6.35 2.7 5.85.85 4.6.7 7.1-.1 1.55-.5 1.65-.35.1-.4-1.35-.1-3.6-1-7.65-.9-4.2-1.75-4.4-.75-.2-2.75 1.8-2 2.1-3.1 4.3l-.5-.05z"/><path fill="#0d131a" d="M51 85.8q.95-1.4 2.55-2.35t2.4-.6q.5.2.85 1.75.35 1.4.35 3l-.45.45q-.45.25-.45 0L56 85.3q-.25-1.2-.65-1.35-.45-.2-1.9.8t-2.2 2.05q-.15.2-.25-.3-.15-.5 0-.7"/><path fill="#0d131a" d="M49.3 35.25q-.2-.15.15-.55.3-.35.5-.25 5.55 4.25 8.35 9.2 2.2 3.9 2.4 7.75.4 7.25-4.35 12.55-2.3 2.55-8.75 6.8-3.85 2.55-5.3 4.05-2.5 2.55-3.85 6.75Q36.6 87.3 40 99.8q3.3 12.15 8 18.4 1.95 2.65 4.85 2.75 2.75.05 5.85-2.2l1.95-1.2q1.1-.55 2.15-.55l3.1.6q3.25 1.1 4.85-.05 1.2-.85 1.05-3.05t-1.5-2.85l-.1-.95q2.2.45 2.6 3.65.35 3.1-1.35 4.25-1.2.8-2.35.8t-3.55-.8q-1.65-.55-2.75-.55-.8 0-1.75.55l-1.75 1.25q-3.7 2.65-7.2 2.3-3.15-.35-5-2.95-5.15-7.2-8.3-19.35-3.25-12.4-1.3-18.4 1.4-4.45 3.95-7.2 1.6-1.75 5.35-4.2 6.5-4.25 9-7.35 3.85-4.75 3.5-11.3-.55-9-10-16.15"/><path fill="#0d131a" d="M11.95 63.35Q19.75 68.3 32.1 69q12.2.65 19.85-3.25 1.65-.85 2.45-2.4.8-1.45.35-2.55-.5-1.4-2.45-.9-9.55 2.25-20.4 1.5-10.65-.75-17.75-4.05-3.5-1.65-4.75.95-1.3 2.6 2.55 5.05m-.3.95q-4.5-2.85-3.1-6.4 1.35-3.5 5.95-1.45 7.4 3.3 18.35 4 10.65.7 19.2-1.35 3.4-.8 3.7 2.35.25 3.15-3.4 5.05-8.5 4.35-21.25 3.45-12-.9-19.45-5.65"/><path fill="#0d131a" d="M13.05 61.95q-1.35-.85-.9-1.1.4-.2 1.85.55 7.35 3.85 17.9 4.55 10.8.7 19.15-2.25 1.4-.5 1.75-.25.35.3-1.1.9Q43 68 31 67q-11.3-.9-17.95-5.05M34.4 57q0-.3.75-.3.7 0 .7.3t-.7.3q-.75-.05-.75-.3m11.85-11.05q2.2-2.35 4.65-2 3.8.6 4.7 6.1.9 5.45-2.05 9.5l-.5-.1q-.35-.25-.25-.45 2.6-3.6 1.9-8.7-.75-5.15-3.95-5.65-2.05-.3-3.9 1.9-2 2.35-2.3 6-.4 4.6 1.95 7.8.15.2-.2.35h-.55q-1.2-1.45-1.8-3.6-.65-2.3-.45-4.65.35-3.95 2.75-6.5"/><path fill="#0d131a" d="M50.15 47.35q1.25.1 1.95 1.7.8 1.7.5 4.25-.3 2.8-1.4 4.35-1.05 1.4-2.4 1.3-1.1-.1-1.85-1.7-.9-1.9-.55-4.5.25-2.3 1.35-3.9t2.4-1.5m-36.7-4.55q2.15-2.3 4.9-2.2 3.3.15 5.25 3.65 1.7 3.15 1.45 6.9-.2 2.65-1.35 4.95-1.15 2.25-2.8 3.35l-.45-.25q-.3-.35-.15-.45 1.5-1 2.5-3.05.95-2.05 1.1-4.6.25-4.05-1.4-6.9-1.65-2.8-4.2-2.9-2.3-.1-4.15 2.1-2 2.35-2.3 6.25-.35 3.65 1.2 6.55l-.3.3-.55-.05q-.95-1.4-1.35-3.6-.3-1.75-.15-3.25.4-4.3 2.75-6.8"/><path fill="#0d131a" d="M18.4 44.55q1.5.1 2.4 1.8 1 1.8.85 4.5-.2 2.75-1.35 4.45-1.05 1.6-2.45 1.55-1.35 0-2.3-1.5-1.1-1.75-1.05-4.8.05-2.85 1.3-4.55 1.15-1.55 2.6-1.45M45.65 12.5q1.65 12.15-4.55 22.75-.65 1.15-1.2 1.15-.55.05.1-1.1 5.65-9.7 4.55-21.45-1.15-12.25-9.1-12.6-3.35-.15-6 2.85-2.55 2.9-3.7 7.85-2.6 11.35 2.9 22.8.95 1.85.35 1.75-.55-.15-1.55-2.05Q22 23.7 24.5 11.95 27 0 35.3 0q8.65-.05 10.35 12.5"/><path fill="#0d131a" d="M42.35 4.15Q46.3 1.2 50.7 3.2q4.6 2.1 5.85 8.25 1.25 6-1.3 13.65-2.1 6.45-5.35 10.4-1.25 1.5-1.55 1.2-.35-.3.8-1.9 3.15-4.2 5-10.1 2.25-7.2 1.05-13-1.1-5.35-5.1-7.3-3.85-1.9-7.1.6-.2.15-.5-.25-.35-.45-.15-.6M27.15 6.9l-.6.1Q23.6 2.8 19 3.7q-4.65.9-6.3 6.25-2 6.65.6 14.5 1.65 5.05 4.9 9.85.85 1.25.3 1.25-.6 0-1.45-1.25-9.1-13.4-5.7-24.75 1.8-5.95 7.2-7t8.9 3.85z"/><path fill="#0d131a" d="m14.65 5.5-.7.55q-2.85.1-4.6 2.75-1.7 2.6-1.85 6.75-.45 9.55 6.25 18.35l-.25.45q-.45.35-.6.15Q5.65 25 6.1 15.15q.5-10.05 8.8-10.2zm9.75-1.4q.7-.9 2.05-1.25 1.45-.45 2.55.2.2.1 0 .6l-.4.4L26.8 4q-1.15.25-1.55.75-.15.2-.55-.15t-.3-.5"/><path fill="#fff" d="M16.7 47.25q.05-.9.5-1.5.45-.65 1.05-.6.65 0 1.05.7.4.65.35 1.55-.05.95-.5 1.55-.5.65-1.1.6t-1-.7q-.4-.7-.35-1.6m32.35 1.15q.45-.6.95-.55t.85.7q.35.6.3 1.45t-.5 1.45q-.4.6-.95.55t-.85-.7q-.35-.65-.3-1.5.1-.85.5-1.4"/></svg>