<svg xmlns="http://www.w3.org/2000/svg" width="402" height="376" viewBox="-0.25 -1.1 402.25 375.9"><path fill="#e85377" d="M243.95 281.7q2.2 5.85 6.95 12.75-4.05-1.55-8.95-5.4-4-3.05-7.6-6.8 1.25 10.4 4.5 21.8-6.2-.3-10.95-4.5-1.7 3.85-4.95 8.05-3.4-3.5-6.9-9.15-3.95-6.35-5.15-11.1-4.05 5.6-10.2 10.45-6.4 5.05-12.5 7.15 3.2-6.65 4.15-12.8-3.9 2.5-9.9 4.45-6.1 2.05-8.6 1.6l9.4-10.2q-5.35 2.05-11.6 3-6.15.9-8.6.1 8.25-7.15 15.85-14.8 9.2-9.35 12.7-14.7 8.9-4.95 24.5-5.15 17.6-.2 24.9 7.6-.2 9.4 2.95 17.65"/><path fill="#c4bfd7" d="M327.6 252.3q12.35 16.35 27.3 34.45-4.15 10.05-17.2 3.15-12.45-6.5-24.6-23.35-4.75-7.4-16.85-39.05-4.95 4.05-26.25 17.5-22.55 14.15-29 19.05-9.15-7.6-26.45-7.55-16 .1-23.05 5.6-5.15-5.45-11.2-10.4-7.55-6.15-13.8-9.2l-15.75 21.85q-4.85 1.6-13.65 2.4-10.8 1.05-18.25-.45-7.85-1.6-9.65-6.65-1.55-4.45 1.85-10.55 9.4-5.75 31.1-21.15-4.4-3.7-9.15-9.95-.4-6.35 6.3-8.45 6.8-2.15 16.45 1.75-2.6-10.15.65-21.5 3.75-13 13.5-18.75 15.5-9.1 32.65 0 7.15 3.8 12.65 10 5.35 6.05 7.45 12.5 5.9-13.95 19.85-23.25 15.15-10.1 28.5-5.9 11.05 3.5 16.1 15.9 4.95 12.2 1.35 25.75 9.4-7.4 16.5-5.5 6.6 1.8 8.8 10.75-3.25 4.25-8.05 9.35 6.55 11.4 21.9 31.65"/><path fill="#c4bfd7" d="M79.7 264.7q-2.65-2.55-2.45-5.75.2-2.8 2.65-6.55 17.85-2.45 46.6-13.15-17.8 12.3-46.8 25.45"/><path fill="#7c70a2" d="M332.8 168.6q-4.35 25.7-19.05 42.7-.8-7.05-6.7-10.05-7.6-3.8-18.6 4.8 2.3-13.3.85-20.4-2.15-10.15-12.25-18-5.5-4.25-13.35-4.3-7.4-.05-15.4 3.7-17.4 8.1-25.55 25.7-8.1-14.15-17.65-20.3-11-7.1-25.75-5.1-14.5 2-21.15 17.15-5.95 13.5-2.45 26.8-9.55-3.45-15.9-1.95-7.05 1.7-7.6 9.1-19.9-24.1-23.55-55.3-3.25-27.45 6.4-51.5 10.8-26.85 31.15-44.4Q173 44.25 213.6 40q41.2-4.3 76 22.8 14.45 11.25 25.1 26.15 9.9 13.85 14.3 27.55 8.25 25.75 3.8 52.1"/><path fill="#fff" d="M245.3 25.7q6.4-3.75 12.8-8.8 7.75-6.15 12.45-12-1.6 10.3-8 21.95-4.7 8.65-11.2 16.65-27.7-7.75-56-.75-23.85 5.9-46.75 21.8-7.55-7.3-4.4-14.6 2.85-6.55 10.9-8.25.95-11.1 6.6-16.15 6.4-5.75 18.45-3.45.95-9.1 5.9-14.55Q190.4 2.7 196.9 1.6q6.1-1 11.7 1.6 5.8 2.65 8.4 7.95 11-6.45 19.75-1.45 8.4 4.8 8.55 16"/><path fill="#e85377" d="M213.85 101.7q1.75 3.3 1.75 6.8 0 3.7-1.6 6.75-1.85 3.55-4.75 3.35-2.9-.15-4.65-3.85-1.35-2.9-1.55-6.4-.2-3.25 1.4-6.4 1.85-3.75 5-3.8 2.5-.05 4.4 3.55m99.8 3.8q1.4-.3 3.3 2.4 1.7 2.4 2.35 4.85.65 2.55.25 5.3-.45 3.1-2.15 3.6-2.55.7-5-7.7-.65-2.35-.25-5.3.45-2.95 1.5-3.15"/><path fill="#fcd13e" d="M254.1 90.35q4.3 1.35 10.35 5.65 5.5 3.9 10.45 8.7 4.3-5.3 8.25-11.4 2.55 1.55 8.3 6.5 6.4 5.6 9.85 9.6-4.15 8.75-9.5 16l4.1 6.05 3.8 5.95q-2.4 2.7-13.95 18.9l-9.35-12.9q-2.6 2.75-7 6.35-4.55 3.75-8.1 6l-9.4-8.45q-7.6-6.75-10.4-9.9 2.4-1.8 7.6-6.2l8.95-7.85-8.15-6.55-8.4-6.8q1.15-3 5.25-9.35 3.8-5.8 7.35-10.3M95.4 257.4l15.65-8.3q-8.2 14.7 9.7 17.35 13.05 1.95 30-2.1-14.65 20.25-36.9 40.95-22.35 20.85-31.75 22.9.9-3.9 4-13.85 2.7-8.5 4.9-14.85-8.2 7.4-24.6 13.4-15.15 5.55-21.9 4.75l13.15-22q-6.25 1.8-14 2.65-9.15 1-13.55-.25 3.35-1.3 12.75-8-9.4 1.9-22.25 1.65-12.65-.25-17.75-2.35 5.1-2.5 12.6-7.5 7.4-5 13.15-9.75-18.5-4.05-26.85-12 13.3.5 36.15-1.8 19.45-2 41.4-5.6-2 4.15-2.15 6.7-.2 3.1 2 5.7 5.55-2.25 16.25-7.7M221.7 309q.1 9.95 8.7 12.3 7.95 2.15 16.25-3.1-9.25 24.2-12.15 30.15-9.95 20.75-19.55 24.3 2.15-4.65 3.85-10.05 2.15-6.75 2.3-11-7 7-15.55 12.2-8.35 5.05-16.1 7.15 2.35-3.5 6.3-10.75 4.1-7.6 6.6-13.2-5.25 2.4-10.65 3.4-5.2.95-7.85.15 10.05-6.8 22.2-21.05 8.7-10.15 15.65-20.5m116-19.45q6.45 3.15 10.95 2.5 4.75-.7 6.1-5.7 5.5 8.25 22.2 25.4 8.95 9.2 22.2 22.2-8.7-.8-20.05-9.45.45 4.9 3.45 11.8l5.7 11.55q-7.5-2.3-15.35-8.55-7.6-6-14.15-14.55-.45 7.3 1.3 15.65-11.1-10.2-25.35-32.25-14.75-22.85-22.4-42.45 11.25 16.85 25.4 23.85"/><path fill="#d9b536" d="M229.4 321.35q9.3 3.3 18.35-5.35l-3.2 8.55-4.2 10.5q-4.6-3.4-15.15-7.5-7.75-3-13.75-4.7 7.65-9 10.55-13.9-.75 4.25 1.4 7.7 2.05 3.3 6 4.7"/><path fill="#a5a1b5" d="M143.95 247.45q-6.85-6.55-14.3-11.25 3.2-1.55 6.65-4.15 3.2-2.35 5.55-4.7-4.95-4.65-9.35-9.75 1.6-7.95 9.4-8.8 7.2-.8 14.7 4.45-4.9-18.2 2.8-30.95 33.15 21.85 76 27.75 42.15 5.85 75.15-6.15 2.05 2.05 2.8 7.55-3.75 4.8-7.8 9.05 2.9 4.85 8.2 12.5 5.25 7.55 10.25 14.15-2.35 6.6-5.2 11.4-2.25 3.85-6.25 8.75l-8.4-19.85q-5.55-13.2-8.05-20.05-4.95 4.4-24.85 16.75-22.5 14-30.35 19.8-8.15-6.7-23.1-7.6-15.85-1-26.5 5.75-3.4-4.9-11.95-11.15-7.25-5.25-13.05-8l-5.45 7.75-6.75 8.85q-3.35-5.6-10.15-12.1"/><path fill="#655b86" d="m322.35 198.8-9 12.65q-.75-5.5-2.8-7.55 6.05-2.1 11.8-5.1m-192-41.95q12 14.2 29.05 25.45-7.7 12.75-2.8 30.95-7.5-5.25-14.7-4.45-7.8.85-9.4 8.8-20.4-23.95-23.9-55.65-2.45-21.7 2.75-38.1 6.25 17.8 19 33"/><path fill="#c94768" d="m188.5 266 2.8-3.9q10.65-6.75 26.5-5.75 14.95.9 23.1 7.6 0 3 .25 5.55-12.3 7.15-30.3 5.35-16.95-1.7-22.35-8.85"/><path fill="#dbdcdc" d="M161.05 26.4q-2.75 7.8.35 14.25 3.75 7.8 14.9 7.95-6.7 3.15-14.85 7.85-9.25 5.4-12.35 8.25-3.6-2.4-5-6.25-1.25-3.55-.25-7.3 1.05-3.75 3.95-6.2 3.2-2.7 7.7-3 0-4.15 1.5-8.4 1.55-4.2 4.05-7.15M268.2 15q-3.6 8.55-7.9 15.45-3.8 6.05-9.6 12.9-4.95-1.55-16.35-3.05 8.8-1.5 17.35-7.75 9-6.6 16.5-17.55"/><path fill="#a5a1b5" d="M250.9 256.9q1.8-1.15 7.5-4.55l6.05-3.8q-2.1 17.3-7.15 35.9-2.75 10-9.85 31.5-4.15 4.7-9.8 5.65-4.15.7-8.05-.7-3.8-1.35-5.6-3.45-2.55-3.05-1.9-8.25 3.15-5.35 6-9.5 2.75 2.4 6.25 3.45 2.65.85 4.4.6-1.25-4.05-2.55-10.45-1.35-6.55-1.95-11.4 8.1 8.95 16.55 12.4-2.35-3.15-4.65-7.8-2.3-4.6-3.6-8.9 6.55-14.1 8.35-20.7"/><path fill="#0d131a" d="m250.15 257.6 1.45-.55q-1.25 4.85-3.9 11.4-2.5 6.15-4.8 10.3l-.7-2 4.15-8.95q2.65-6 3.8-10.2m-122.9-19.75-2.95 3.1q-22.55 9.5-58.75 15.4-33.35 5.45-60.3 5.15 6.35 3.95 12.4 6.25 4.3 1.6 11.25 3.25.95.25 1.05.85.15.65-.65 1.4-5.3 4.75-10.5 8.4T6.75 289.1q16.4 2.75 38.8-.45 1.85-.25 1.95.4.1.6-1.7 1.1-8.7 2.35-18.8 2.95-9.75.6-19.5-.55-5.2-.6-6.05-2.3-1.05-1.95 4.1-4.65l10.55-5.95 10-6.95q-7.45-1.75-10.8-2.9-5.1-1.75-11.15-5.2-4.4-2.5-4.1-4.45.25-2.05 5.8-1.9 27.3.65 61.45-4.7 37.35-5.85 59.95-15.7m87.3-129.4q0-4.35-1.7-7-1.5-2.3-3.55-2.3-1.8 0-3.35 2.2-1.95 2.65-1.95 7.1t1.7 7q1.45 2.3 3.6 2.3 2.35 0 3.85-2.6 1.4-2.6 1.4-6.7m.1-7.7q2 3.3 2 7.35 0 4.9-2 8.05-2.05 3.25-5.4 3.45-2.7.15-4.8-2.75-2.45-3.25-2.45-8.55 0-5.15 2.45-8.3 2.2-2.8 5-2.8 3.05 0 5.2 3.55m97 6.7q.65-2.35 2.05-2.65 1.75-.4 3.7 2t2.75 6.1-.15 6.6q-.9 2.55-2.45 2.9-1.5.35-3.1-1.65-1.8-2.25-2.7-6.35-.9-4.2-.1-6.95m4.85.4q-1.4-1.95-2.6-1.7-.9.2-1.25 2.2-.4 2.25.35 5.75.75 3.4 2 5.4 1.2 1.8 2.15 1.6 1.2-.25 1.65-2.6.5-2.4-.15-5.35-.7-3.25-2.15-5.3m-16.5 1.8q-2.6-3.3-7.65-7.75-4.5-4-9.1-7.25-2.7 4.5-8.05 11.15l-.45.2-.45-.15q-10.05-9.8-19.8-14.25-6.7 8.4-11.9 18.5 7.8 4.9 16.25 12.9.2.15.2.45l-.15.45q-9.1 9.05-16.1 13.7l19 16.8q6.3-4.05 14.1-11.8l.5-.2.45.25q4.7 5.9 9 12.2 2.85-4.4 12.45-17.6l-7.35-11.4-.15-.35.15-.4q6.15-8.45 9.05-15.45M252.85 89.9q.55-.7 1.15-.8l1.35.35q4.5 2 9.7 5.8 3.7 2.7 9.7 7.9l4.3-5.85 2.95-4.35q.8-1.4 2.1-.45 4.6 3.2 9.45 7.5 5.15 4.6 7.9 8.1l.6 1.15-.15 1.2q-1.25 3.15-3.75 7.05l-5.4 7.95 3.75 5.2 3.65 5.4q.55 1.15-.1 2.15l-6.85 9.4-6.4 9.1q-.4.6-1.1.6-.75 0-1.2-.7-4.95-8.1-8.25-12.3l-7.2 6.95q-3.8 3.5-6.6 5.3l-1 .15-.85-.35-10.6-9.3-9.1-7.75q-1.8-1.65.55-3.3 6.75-4.9 15.2-12.7-7.3-6.3-15.45-11.4-1-.6-1.15-1.25-.15-.7.55-2.15 4.9-9.4 12.25-18.6m16.2-85.15q4.6-5.55 2.5 4.15-2.05 9.2-8.25 19.7-5.75 9.6-11.9 15.45l-1.8-.55q5.8-7.25 10.8-16 5.95-10.4 7.65-17.8-4.8 5.15-10.65 9.5-6.7 5.05-13.05 7.7-2.15.9-2.3.35t1.85-1.7q6.9-3.95 14.2-10.05 6.75-5.7 10.95-10.75"/><path fill="#0d131a" d="M244.55 15q2.8 4.55 2.15 10l-3.35 1.8q1.2-10.45-7.25-15.45-8.65-5.05-18.85.9l-.85-1.55q4.7-3.65 10.45-4.15 5.35-.45 10.2 1.85t7.5 6.6"/><path fill="#0d131a" d="M208.2 1.4q6.95 2.8 9.45 10 .85 2.35.35 2.55t-1.7-2q-3.4-6.05-9.6-8.1-5.65-1.9-11.7.1t-9.55 6.95q-3.85 5.4-3.15 12.4l-3.65-1.35q-1-7.85 3.95-13.8 4.45-5.4 11.9-7.35 7.4-1.9 13.7.6"/><path fill="#0d131a" d="M163.25 22.85q4.4-2.65 9.4-2.85 5.1-.2 9.05 2.25 1.95 1.2 1.55 1.8-.4.65-2.5-.3-8.8-3.95-16.45 1.7-7.85 5.8-7 16.65l-3.2-.15q-1.3-12.8 9.15-19.1"/><path fill="#0d131a" d="M147.7 43.45q3.85-2.6 9.05-2.15 1.9.2 1.95.85 0 .6-1.85.65-4.15.1-7.25 2.35-2.9 2.15-4 5.55-2.55 7.75 4.9 13.3l-2.6 2.2q-4.1-3.05-5.45-7.65-1.25-4.25.2-8.45 1.45-4.25 5.05-6.65"/><path fill="#0d131a" d="M324.55 101.9q15.4 30.35 11.15 61.85-4.45 33-29.35 57.95l-1.55-2.1q23-26.55 27.15-56.95 4.15-30-10.7-59.35-15.5-30.5-44.7-47.6-29.4-17.2-62.25-14.55-36.05 2.9-62.25 23.1-26 20-36.8 52.75-9.95 30.2-2.4 60.15 7.55 30 30.15 49.65l-1.85 1.6q-23.6-19.6-31.6-50.65-7.9-30.75 2.25-61.5 10.7-32.45 37.75-53.1 27.5-21 64.9-24.2Q248.8 36 279.05 53.6q29.75 17.25 45.5 48.3M295.7 226.1l.9 2.45q-3.9 3.6-11.4 8.45-3.95 2.55-15.15 9.3l-15.25 9.35q-8.3 5.3-13.8 9.9l-.75-1.65q8.25-7 28.55-19.3 19.55-11.7 26.9-18.5m-130.2 17.6 1.35-1.9q6.65 2.95 14 8.95 7 5.75 11.35 11.45l-1.1 1.15q-4.1-5.4-11.5-11.05-7.35-5.6-14.1-8.6"/><path fill="#0d131a" d="m171.1 51.45 4-1.4q-20.15 18.65-31 43.15-10.95 24.6-10.95 51.6 0 22.55 6.6 40.3 6.7 17.85 19.05 28.15l-1.45 1.6q-11.25-8.9-18.1-23.95-8.85-19.45-8.85-46.5 0-26.9 10.45-50.65 10.35-23.55 30.25-42.3m1.8 181.45 1.2-1.85q5.55 5.9 10.9 14.9 5.1 8.6 7.7 16.1l-1.2.7q-2.65-7.1-7.8-15.4-5.35-8.7-10.8-14.45m48.55-143.2q-6-26.15-20.3-47.65l2-.75q14.75 21.2 20.95 47.8 4.4 18.95 5.05 45.05.45 19.6-2.8 43.5-1.3 9.35-6.45 38-2.8 16.05-3.7 22.2-1.6 11.25-1.6 18.4l-1.7-.1q.05-7.45 1.5-18.6 1.1-8.25 3.55-22.2 4.4-24.7 6.05-37.85 2.9-23.55 2.4-43.3-.6-25.6-4.95-44.5m33.15-44.4 4.2.8q27.85 15.1 41.45 39.9 13.8 25.15 11.8 58.15-1.8 30.65-18.9 56.75-9.8 15.05-32.1 36.8-9.65 9.45-12.95 13.1-6.2 6.85-8.75 12.1l-1.4-.8q2.6-5.4 8.8-12.3 3.8-4.3 13-13.3 22.15-21.65 32-37.05 16.2-25.4 18-55.95 1.95-32.85-12.75-58.4-14.25-24.75-42.4-39.8"/><path fill="#0d131a" d="m154.05 210.25 2.05 3q-7.3-4.4-14.85-2.65-7.65 1.75-7.1 8.25l-2.6-2.55q.75-6.35 7.65-8.3 7-2 14.85 2.25m44.7-39.25q-6.85-2.45-13.95-2.4-6.55 0-10.95 2.15-10.8 5.25-15.45 16.8-4.6 11.5-1.35 25l-2.15-1.65q-3.9-13.5 1.15-25.55 4.85-11.75 16.1-17.35 5.2-2.6 12.4-2.65 7.5 0 14.75 2.75 17.55 6.6 23.35 24.2l-.95 2.45q-5.8-17.5-22.95-23.75m24.1 23.8-.05-3.5q8.75-18.8 25.4-26.05 14.45-6.3 25.7-1.25 11.75 5.25 15.8 18.75 3.95 13.4-2.35 25.35l-2.65 2.25q7-13.25 2.25-26.75-4.3-12.1-14.1-16.55-10.85-4.9-24.6 1.15-16.25 7.15-25.4 26.6"/><path fill="#0d131a" d="m314.6 209-2.6 2.9q.25-3.1-1.85-5.9-2.15-2.9-5.8-3.85-9.25-2.55-19 8.55l2.2-3.75q8.85-10.35 18.3-7.45 3.65 1.15 6.15 4.05 2.4 2.7 2.6 5.45m-122.5 54-.9-2.75q10.25-5.65 25.6-5.2 16.75.5 25.1 8.7l-1.45 1.05q-7.85-6.8-23.95-6.95-15.15-.15-24.4 5.15"/><path fill="#0d131a" d="m192.65 261.15-.55 1.85q-5.55 7.25-11.9 14.15-7.6 8.15-13.9 13.05l9.35-1.25q4.8-1.05 9.2-3.1l-1.2 2.4q-4.9 2.45-8.1 3.35-3.5 1-8.7 1.3-4.85.25-5.4-1.3t3.15-4.2q6.8-4.9 14-12.05 6.9-6.85 12.15-13.7z"/><path fill="#0d131a" d="M191.4 272.35q.8-1.9 1.3-1.7t-.1 2.05q-2.45 7.5-6.5 13.4-3.95 5.9-10.15 11.15 11-2.95 19.8-8.55 10.25-6.6 14.65-15.25.75-1.45 1.3-1.35.6.1.85 1.5 1.95 10.75 10.55 20.1 7.95 8.65 14.35 9.15-2.15-7-3.2-14-1.15-7.6-.7-13.6.15-1.95.65-1.85.45.1.45 2.05 0 5.9 1.45 13.15 1.1 5.35 3.4 13.3.6 2.05.3 2.7-.35.65-2.2.65-6.6-.1-15.1-9.25-9.1-9.8-11.1-21.1-5.45 9.5-14.8 16.15-9.15 6.5-19.35 8.5-3.5.65-4.45-.6-1-1.35 1.7-3.85 7.35-6.9 10.1-10.45 3.65-4.7 6.8-12.3"/><path fill="#0d131a" d="m192 291.9 1.5.25q-1.9 7.95-3.3 11.2 7.45-4.1 12.2-8.05 4.8-4 7.55-8.35.6-.95 1.1-.8.45.1.7 1.05 1.55 5.95 5.6 12.1 3.3 4.95 6.6 7.9l-1.15 1.5q-3.15-2.8-6.55-8.1-4-6.3-5.55-12.15-3.15 4.85-7.15 8.4-4.7 4.2-12.05 8.1-3.05 1.6-3.9.95-.8-.6.35-3.05 2.4-5.1 4.05-10.95M36.25 278.25q35.95-8.3 73.05-29.95 36.8-21.5 62.55-49 1.6-1.7 2.1-1.3.55.45-.95 2.15-24.1 28.05-63.1 51.05-38.2 22.5-73.95 30.45 7.4 2.05 25.8 5.8l-1.05 2.05-12.15-2-11.9-2.6q-6.45-1.9-5.95-3.85.4-1.65 5.55-2.8"/><path fill="#0d131a" d="M63.1 286.1q-3.65 10.25-16.3 30.5 10.35-1.2 22-5.7 12.75-4.95 21.15-11.75 1.25-1.05 1.95-.75.75.3.1 2.15-6.85 18.3-8.4 26.2 24.7-12.35 60.75-56.95 15.25-18.9 27.4-37.7 12.2-18.85 17.25-31.5.8-2 1.5-1.75.65.3-.05 2.3-4.25 12.8-16.4 32.25-11.8 18.85-27.45 38.35-16.2 20.25-31.7 35.1Q98 323 85.6 329.15q-3.15 1.55-4.25.7-1-.75-.45-3.7 1.2-7.45 8.4-24.05-9.35 7-20.55 11.7-11.25 4.75-20.6 5.6-4 .4-4.95-.85-.9-1.2 1.15-4.15L53.1 301q5.95-9.7 8.55-15.3.9-2.05 1.5-1.7.6.3-.05 2.1"/><path fill="#0d131a" d="M114.1 266.15q-5.45-2.7-6.35-7.15-.95-4.65 3.25-10l3.3-1.65q-4.8 4.95-4.6 9.35.25 4.3 5.15 6.8 11.35 5.8 36.25-.8l-2.25 3.3q-22.5 6.2-34.75.15M31.6 295.5l6.1-2.75q2.45-1.2 5.3-2.95h2.55q-6.05 4.8-12.3 7.65l12.7-.6q7.8-.85 12.05-2.55l-1.3 2.35q-5.4 1.9-12.25 2.9l-11.55.7q-3.85-.25-4.3-1.7-.5-1.55 3-3.05m195.65 3.15 1.6 1.3q-6 10.65-16.5 24.05-13.55 17.3-25.2 26 9.35-1 16.9-4.95 1.35-.7 1.7-.35t-.85 1.25q-4.05 3.1-8.35 4.7-4.05 1.5-9.15 2-4.1.4-4.75-1.05-.7-1.5 2.65-4.1 12.15-9.3 25.45-25.55 10.9-13.3 16.5-23.3"/><path fill="#0d131a" d="m263.85 248.85 1.4-.75q-1.15 12.95-6.25 33.15-5.05 19.8-12.05 39.5-16.7 46.7-28.65 52.5-3.1 1.55-4.05.7t.55-4.2l3.1-7.5q1.55-4.35 2.2-8.7-5.15 5.75-12.25 10.55-7.15 4.85-14.7 7.6-3.5 1.3-4.6 0-1.05-1.25.8-4.05 7.55-11.3 12.6-20.65l2.1-1.3q-2.2 5.65-5.25 11.6-3.5 6.75-7.1 11.9 9.05-3.5 16.7-8.3 7.55-4.75 11.5-9.4 1.05-1.2 1.75-.8.75.45.45 2.6-.55 4.3-2.05 9l-3.1 8.1q11.85-8.45 27.9-51.3 15.4-41.1 19-70.25"/><path fill="#0d131a" d="M229.7 322.55q-4.05-1.3-6.35-4.3-2.45-3.3-2-7.65l1.35-1q-.55 4.65 2.35 7.6 2.6 2.7 7.1 3.25 4.4.55 8.6-1.15 4.45-1.75 6.8-5.45l-1.45 5.1q-7.2 6.5-16.4 3.6m128.1.95 1.75 2.1q-.2 4.35 1.65 12.3.8 3.3-.45 3.95-1.15.65-3.6-1.6-15.8-14.45-34.95-51.15-17.2-32.85-28.05-65.25-.7-2.15-.05-2.5.7-.35 1.45 1.75 12.05 33.4 28.2 63.8 18.65 35.2 34.65 49.9-.5-2.7-.65-7.15-.15-3.85.05-6.15"/><path fill="#0d131a" d="M378.55 323.15q.85-.25 2.2.9 6.5 5.55 16.1 8.55-21.65-19.55-49.7-53.55-29.05-35.15-43.6-60.15-.95-1.65-.4-2 .6-.4 1.65 1.25 16.1 25.85 44.15 59.5 28.25 33.9 49.65 52.85 3.4 3.05 2.75 4.65-.65 1.7-5.35-.05-4.85-1.8-8.4-3.8-3.9-2.25-7.5-5.45 1.6 5.85 3.35 9.85 1.45 3.25 4.95 9.35 1.75 3.05.65 4.05-1 .9-3.95-.25-7.15-2.8-14.95-9.9-7.65-6.95-13.45-15.75-1-1.5-.45-1.8t1.65 1.15q6 7.75 13.6 14.05 7.5 6.3 14.4 9.4-3.45-6.95-4.8-10.4-1.8-4.5-3.15-10.65-.35-1.6.6-1.8"/><path fill="#0d131a" d="M339.65 289.5q6.05 2.5 9.95 1.4 3.85-1.1 3.85-5.15l2.2 2.65q-.55 4.2-4.9 5.4-4.4 1.2-10.7-1.3-15.7-6.1-28.1-27l-.55-3.15q13.2 20.85 28.25 27.15m-95.1-10.3q1.8 4.8 6.45 13.3 1.1 2 .5 3-.55.95-2.2.2-3.05-1.35-6.65-4.3-4.2-3.45-8.25-8.35l-.05-2.9q3.3 4.25 7.75 8 3.9 3.3 7.2 5-5.5-9.5-7.4-16.95-1.1-4.4-1.65-12.85l1.25 1q.4 7.75 3.05 14.85M80.9 264.15l-3.15 1.7q-2.3-2.45-1.85-6.65.45-3.85 2.8-6.5l2.35.1q-2.75 3.6-2.75 6.95 0 3.25 2.6 4.4"/></svg>