<svg xmlns="http://www.w3.org/2000/svg" width="146" height="237" viewBox="-0.7 -1.05 145.9 236.5"><path fill="#fff1ac" d="M28.65 166.4q5.3-3.15 9.9-.1-.15-3.95 2.35-7.15 2.25-2.95 4.55-2.8l24.6 4.9q5 .7 7.45 5.8 2.35 4.95.35 9.85 5.75.95 6.95 4.75 4.75 1.55 7.15 5.1 2.2 3.2 1.95 7.2-.2 3.85-2.65 6.85-2.55 3.25-6.6 4.25 4.15 14.15 1.65 22.5-2.2 7.3-7.05 5.65-1.55 1.35-3.75 1.5-2.2.1-4.05-.95-5.5.75-8.5-6.3-2.75-6.45-2.1-15.35-4.35 3.6-9.85 2-5.55-1.6-7.35-7.25-3.75 2.2-7.3 1.6-3.45-.6-5.45-3.55-3.15 3.15-7.45 2.75-3.35-.35-6.6-2.6-6.3-4.25-10.3-10.35-2.45-3.75-4.9-10.05Q.1 180.8.8 177.9q.65-2.75 2.85-3 .8-2.55 3.35-3.85 2.45-1.3 4.35-.45 2.2-1.55 5.85-.65 4.3 1 6.6 5.15-.45-5.55 4.85-8.7"/><path fill="#f09cb4" d="M14.15 193.7q1.25-.75 3.35.45 1.9 1.1 3.4 3.05 4.05 5.25 2.05 6.4-1.25.7-3.35-.35-2-1-3.5-2.9-1.65-2-2.3-3.8-.75-2.1.35-2.85"/><path fill="#ce723f" d="m29.8 137.55 13.25 4.75q4.1 3.65 12.1 6.3 8 2.6 16.35 3 2.35 6.25 3.15 11.85-2.4-1.7-5-2.1L45.2 155.2l-14-1.8q-8.5-1.55-11.4-3.65-3.45-2.5-4.2-6.55-.75-4.25 2.35-6.3 2.75-1.85 6.65-1.1 1.65.3 5.2 1.75"/><path fill="#ce723f" d="M43.2 87.9q13.95-7.25 30.5-4.2 15.7 2.9 25.85 14.75 11 12.85 8.55 29.3-2.1 14-16 20.1-12.7 5.55-29.85 2.55-16.15-2.8-26.4-14.8-10.75-12.6-8.4-28.15Q29.3 95.1 43.2 87.9"/><path fill="#ce723f" d="M90.35 50.9q4.55 2.45 10 1.25-2.5 5.9-9.9 15.55-8 10.45-15.15 16.45-4.6-1.45-11.95-1.4-6.75.05-10.65 1.2-.15-11.2 5.5-25.5 5.35-13.7 12.5-21.65 1.95 2.6 6.25 3.15 3.85.5 7.1-.7.2 8.45 6.3 11.65"/><path fill="#f09cb4" d="M57.9 83.15q.75-12.65 4.7-22.2 4.9-11.95 12.15-9.5 6.55 2.2 2 13.6-3.75 9.5-11.2 17.85zM43.4 109.7q2.8 1.2 2.55 2.3-.15.6-2.25 1.15l-2.7.3q-.6-.2-1.1-1.75-.5-1.6 0-2.25.65-.95 3.5.25"/><path fill="#ed8599" d="m46.2 127.45 7.4 4.65q.4 3.4-.95 5.85-1.2 2.2-3.3 2.85-1.8.55-3.85-.9-1.85-1.35-3.05-3.65-.25-3.1.85-5.35.9-1.8 2.9-3.45"/><path fill="#fff1ac" d="M113.9 18.8q5.2 1.25 7.4 5.3 2 3.65.95 8t-4.55 6.75q-3.85 2.7-9 1.65-.05 6.15-3.95 9.45-3.45 2.9-8.5 2.5-4.95-.4-8.45-3.75-3.8-3.75-3.75-9.45-5.75 1.8-9.9.1-3.65-1.5-5-5.15-1.35-3.5.05-7.05 1.45-3.8 5.4-5.65-1.95-4-1.1-8.1.75-3.85 3.6-6.45Q80.05 4.3 84 4.1q4.35-.25 8.65 2.6Q95.7 1.75 100.5.9q4.25-.75 8.35 1.85 4 2.55 5.55 6.85 1.7 4.7-.5 9.2"/><path fill="#922f00" d="M46 127.55q-1.95 1.45-2.95 4.1-.75 2.05-.8 4.5-2.5-3.95-4.2-10.45l2.4-1.5z"/><path fill="#fff1ac" d="M44.1 89.3q.9.15 1.5 1t.4 1.9q-.2 1.15-1.15 1.65l-1.9.3q-.8-.1-1.4-.95-.65-.95-.5-2.05.15-.95 1-1.5.9-.55 2.05-.35M78 96.65q1.2.25 1.85 1.25.55.85.4 1.8-.1.9-1.05 1.5-.95.55-2.2.4-1.2-.15-1.95-1.15-.7-.9-.6-1.95.1-1 1.2-1.55z"/><path fill="#ce723f" d="m83.05 192.8 1.55-2.2q2-4.45.2-8.6 3.2 0 6 3.4 3.05 3.75 3.05 8.9 0 4.25-2.85 7.2-2.6 2.6-6.5 3.35-.3-.85-1.2-1.95l-1.45-1.55q.4-2.35-1.25-6.65 1.3-.65 2.45-1.9"/><path fill="#a95c31" d="M82.2 103.5q3.6 10.45 9.75 18.65 6.6 8.8 14.1 12.15-2.4 4.85-3.95 6.55-16.9-14.95-19.9-37.35m-24.05 45.95 6.25 1.35 7.3.75-5.8 2.75q-3.35 1.35-5.65 1.95-.6-2.75-2.1-6.8m-41.8-10.65q.25 3.75 2.6 6.4 2.2 2.5 5.5 3.35l8.25 1.7L44.25 152l1.25 3.15q-17.1-2-20.9-3.35-4.3-1.55-6.6-3.9-3.65-3.75-1.65-9.1M90.4 50.95q4.7 2.55 9.7 1.35-1.1 3.75-2.1 4.85-6.65.45-11.3-3.15-4.65-3.55-5.9-9.9-2.7-.15-5.25-1.5-3.15-1.75-5.4-5l.7-.75q2.2 2.65 6.1 3.2 3.3.45 6.95-.65.4 8.25 6.5 11.55"/><path fill="#dcd096" d="M105.2 49.1q-3.3 3.25-8.05 3.55-4.95.3-8.5-2.85-4.05-3.55-4.75-10.4-7 1.8-11.45-1.1-4.95-3.25-3.2-10.8.45 5.05 6.6 7.55 5.9 2.35 10.45.05.25 4.45 3.35 6.95 2.8 2.25 6.75 2.15 3.85-.1 6.55-2.45 3-2.6 3.05-6.8 5.35 1.9 9.7-.6 5.25-3 4.55-11.15 1.8 2.3 2 5.45.2 3.2-1.2 6-3.45 6.8-12.35 5.75.1 5.2-3.5 8.7M2.5 186.9q2.4 3.9 5.7 7.05 3.25 3.15 6.75 4.9l1.15 1.5q1.5 1.9 3.5 2.9 2.1 1.05 3.35.35 1.15-.7.2-2.85 6.95-.75 8.9-9.85 1.95 6.6.6 11.15-1.55 5.3-7.2 5.45-6.45.15-12.9-5.8-6.2-5.7-10.05-14.8"/><path fill="#ce7486" d="M22.95 203.6q-1.25.7-3.35-.35-2-1-3.5-2.9l-1.15-1.5q4.45 2.25 8.2 1.9.95 2.15-.2 2.85"/><path fill="#dcd096" d="M85.3 229.75q-2.35 4.35-6.15 3.35-1.45 1.3-3.65 1.55-2.45.3-4.35-1-6.35 1-9.25-9.55.8 1.95 2.55 2.95 1.65.95 3.15.55 1.8 1.65 4 1.6 2.2 0 3-1.7 2.9 2.55 6.7 1.35 4.5-1.45 5.8-8 .2 5.1-1.8 8.9"/><path fill="#a95c31" d="M93.1 190.45q1.35 4.85-.55 8.65-2.15 4.25-7.95 5.75-1.7-2.75-2.6-3.5l-.3-2.8q3.45.75 6.8-1.2 3.85-2.25 4.6-6.9"/><path fill="#dcd096" d="M76.2 176.8q3.45-.1 6 1.9 2.35 1.85 3.15 4.9 1.9 7.05-4.85 11 1.85 3.85 1.25 7.5-.6 3.5-3.2 5.7-5.95 5.15-14.85.05-.7 2.65-3.05 4.55-2.4 1.95-5.4 2.3-7.4.85-11.55-7.65-3.8 2.05-7 1.5-3.05-.55-5.8-3.5 1.5-1.15 2.1-4 .55-2.55.2-5.55 1.85 2.8 5.5 3.45 3.55.65 6.5-1.1 1.75 6.8 9.4 6.1 3.15-.3 5.65-2.05 2.65-1.8 3.35-4.5 3.2 3.6 7.5 1.2 4.2-2.35 3.65-6.35 4.05-.7 4.6-5.7.6-5.15-3.15-9.75"/><path fill="#ce7486" d="M43.45 131.35q.95-2.65 2.65-3.7l3.5 2.05 4.1 2.65q-.2 3.5-.9 5.3-1-2.6-3.8-4.55-2.9-2.05-5.55-1.75"/><path fill="#0d131a" d="M45.2 92.7q.3-.55.15-1.35-.15-.85-.7-1.2-.75-.45-1.55-.3t-1.2.8q-.35.65-.15 1.45.25.85.9 1.25l1.35.2q.8-.2 1.2-.85M40.9 90q.6-1.05 1.95-1.3 1.3-.3 2.4.35 1.1.7 1.35 2.05.25 1.3-.45 2.4-.7 1.15-1.9 1.4-1.2.3-2.35-.4-1.2-.75-1.5-2-.3-1.3.5-2.5m38.5 8.45q-.45-.8-1.3-1.15l-1.8-.05q-.85.25-1.1.95-.3.75.1 1.55t1.25 1.15q.8.3 1.8 0t1.25-.95q.25-.7-.2-1.5m-5.35-.75q.4-1.05 1.65-1.6l2.85.05q1.55.6 2.15 1.9.55 1.2.1 2.3-.5 1.25-2.05 1.8l-2.8-.05q-1.4-.55-1.9-1.9-.5-1.25 0-2.5m-36.2-.05q1.35.65 1.4 2.8.1 2.15-1.1 4.75-1.2 2.65-2.85 4.05-1.75 1.45-3.1.85-1.3-.6-1.45-2.95t.95-4.75q1.4-3 3.35-4.25 1.6-1.05 2.8-.5"/><path fill="#fff" d="M37.4 98.85q.6.35.75 1.15.1.8-.35 1.6t-1.2 1.15-1.35 0-.7-1.15q-.15-.8.3-1.6.4-.8 1.15-1.15t1.4 0"/><path fill="#0d131a" d="M78.5 118q-1.2 3.7-3.7 4.95l-4.4.25q-2.3-.75-3.3-3.45-1.1-2.85 0-6.15 1.15-3.35 3.5-5.25t4.5-1.2q2.45.8 3.5 4 1.1 3.25-.1 6.85"/><path fill="#fff" d="M76.05 112.6q-.5 1-1.6 1.4l-2.1-.15q-1.05-.5-1.4-1.55-.35-1.1.2-2.2t1.65-1.45l2.05.2q1 .5 1.35 1.65.35 1.1-.15 2.1"/><path fill="#0d131a" d="M84.05 38.55q.65-.25.65.5.1 5.55 3.5 9.05 3.4 3.55 8.75 3.5 5.1-.05 8.15-3.3 3.25-3.4 3-9.3-.05-.9.4-.95.45-.1.6.8 1 6.25-2.45 10.4-3.5 4.1-9.8 4.15-6 .05-9.65-3.6-3.7-3.7-3.7-9.8-4.85 1.8-9 .3-3.6-1.3-5.4-4.35-2.85-4.85-.45-9.65 2.25-4.45 6.95-5.65 1-.2 1.15.2t-.8.75q-4.25 1.75-5.9 5.55-1.75 4 .6 8 1.6 2.8 4.8 3.8 3.7 1.2 8.6-.4"/><path fill="#0d131a" d="M111.7 18.25q5.2-.3 8.5 3 3.45 3.5 2.95 9.35-.5 5.75-4.75 8.75-4.15 2.95-9.6 1.85l.05-1.25q5 .7 8.55-2 3.55-2.8 3.95-7.75.4-4.7-2.25-7.7-2.6-3-7.35-3.25-.95-.05-.95-.5-.05-.4.9-.5"/><path fill="#0d131a" d="m114.55 19.05-1.3-.3q1.9-5.55.1-9.75-1.5-3.5-5.25-5.55-4.5-2.45-8.8-1.2-4.35 1.2-6.6 5.6-.45.85-.85.65-.4-.15-.1-1.05 1.9-5.2 7.1-6.85 5.1-1.65 10.05 1.05 4.1 2.2 5.9 6.55 2.15 5.1-.25 10.85"/><path fill="#0d131a" d="M85.15 3.4q4.65.15 7.85 2.9l-.8 1.05Q89.15 5.1 85.25 5.1q-4 .05-7.3 2.5-6.3 4.6-2.7 13.65l-1.1.65q-2.35-4.65-1.7-8.9.7-4.4 4.4-7.1 3.6-2.65 8.3-2.5m-40.6 107.65q-1.05-.55-2.45-.9l-1.7-.2-.05.2q0 .6.35 1.65.35 1 .6 1.25l2.2-.45q1.65-.5 1.85-.9zm-.95-1.8q3.65 1.35 3.05 2.95-.35.95-2.8 1.65-2.3.7-3 .4-.95-.4-1.55-2.35-.6-1.85-.15-2.65.75-1.4 4.45 0"/><path fill="#0d131a" d="m40.5 113.2 1.25.35q-.7 1.9-1.05 4.85-.4 3.2-.1 6.05h-1.3q-.4-3.5.15-7.1.4-2.55 1.05-4.15M53 131.85l1.3.8q-.15 8.45-5.55 9.15-3.55.4-7.15-5.45-3-4.9-4.15-10.25l1.25-.95q1 5.2 3.9 10.05 3.2 5.4 5.9 5.05 1.95-.3 3-1.8 1.45-2.05 1.5-6.6m22.55 32.75-1.6-1.5q-1.3-6.8-3.4-11.6l1.65.15q1.8 4 3.35 12.95m-50.9 11.5-1.3-1.6q0-6.9 5.25-9.4 2.85-1.4 6.25-.85 3.3.5 5.5 2.6.8.75.5 1.1-.25.3-1.15-.3-2.25-1.55-4.9-1.75-2.65-.15-5.3 1.05-2.7 1.25-3.95 3.7-1.2 2.35-.9 5.45M14.5 194.4q-.65.5.1 2.45.8 2 2.5 3.75 1.65 1.7 3.15 2.45l2.35.15q.65-.4 0-2-.6-1.6-2.05-3.45-1.75-2.25-3.6-3.15-1.65-.85-2.45-.2m-.95-1.1q1.25-1.05 3.7.05 2.5 1.15 4.4 3.65 1.85 2.35 2.35 4.45.5 2.05-.55 2.8-1.2.9-3.45-.05-2.05-.9-3.9-2.8-2.05-2.1-2.85-4.65t.3-3.45m66.3 1.5q-.25-.5.3-.7 2.7-1.05 3.9-4.25 1.15-3 .45-6.15-.45-2.2-1.85-3.75-2.15-2.3-6.1-2.55-.95-.05-.95-.5.05-.45 1-.5 3.6-.15 6.3 1.85 2.65 2 3.25 5.35.65 3.55-.3 6.4-1.15 3.5-4.6 4.95 1.65 3.75 1.2 7.3-.55 4.2-4 6.65-3.3 2.3-7.6 2.2-4.4-.05-7.15-2.65l.3-1.25q2.7 2.2 6.65 2.2 3.9 0 6.9-2.1 6.1-4.35 2.3-12.5"/><path fill="#0d131a" d="M77.55 165.8q1.65 2.65 1.9 5.8.2 3.1-1 5.5l-1.3-.25q.95-2.45.75-5.1-.25-2.75-1.75-5.15-2.8-4.45-7.2-4.7l.95-1.2q2.1.15 4.15 1.5 2.1 1.4 3.5 3.6M70.1 36.25l1.45 1.3Q64 46.15 59.1 58.65q-4.9 12.65-5.7 25.6l-1.6.3Q52.45 71.2 57.5 58q4.95-13 12.6-21.75m29.15 15.9 2.4-.3q-.85 4.25-8.45 14.05-8 10.35-17.3 18.6l-1.9-.7q8.85-7.85 16.75-17.95 7.55-9.6 8.5-13.7"/><path fill="#0d131a" d="M74.65 67.9Q78.4 60 77.3 55.65q-.6-2.35-2.95-3.3-2.55-1.1-5.2.7Q65 55.9 62 64.4q-3 8.55-3.45 18.85l-1.3.25q.4-10.85 3.4-19.65 3.05-9.1 7.7-12.15 3.45-2.3 6.4-1.4 3.15.85 4.15 4.85 1.25 4.95-2.8 13.3-3.75 7.8-10.05 14.5l-1.65-.05q6.5-7.05 10.25-15M48.4 128.1q7.45 4.65 9.5 6.3.75.6.5 1-.25.35-1.05-.2-4.05-2.65-10-6.15-5.9-3.55-6.95-3.95-1.55.7-5.1 3.95-.65.6-1 .3t.25-1l3.2-3.15q2-1.8 2.45-1.8.65 0 8.2 4.7"/><path fill="#0d131a" d="m43.55 137.75-1.75-2.15q-.4-2.45.8-4.85 1.1-2.1 2.9-3.4l1.05.75q-1.9 1.15-2.9 3.9-1.1 3.05-.1 5.75m-.4 4.2.4 1.5q-16.75-6.55-19.6-6.9-3.25-.4-5.25.9-2.2 1.4-2.4 4.7-.2 3.05 2.3 5.55 2.45 2.45 6.75 3.55 5.8 1.5 20 3.25l.4 1.3-9.2-.95q-7.2-.85-11.6-2-5-1.25-7.9-4.5-2.75-3-2.55-6.45.25-3.85 3.2-5.65 2.65-1.6 6.5-1.15 2 .25 8.6 2.75zm-3.75 24.7-1.2-.65q-.3-4 1.85-7 2.25-3.1 5.7-3.2l.7 1.3q-2.85.05-5.15 2.9-2.4 3.05-1.9 6.65m-30 11.9q0 1.25-.4 1.3-.45.05-.6-1.2-.3-2.35.25-4.55.45-1.95 1.4-3.25-3.75.75-5.15 3.5t-.6 7.75q.15 1.05-.25 1.15-.45.1-.75-.9-1.05-3.15-.2-7.1-1.45 1.45-1.45 4.3-.05 2.85 1.4 6.65 2.15 5.55 6.75 11.3 5.35 6.65 10.6 8.7l7.2.2q3.45-1.3 4.45-4.45 1.05-3.25-.1-8.35-1.1-4.85-4.05-10.5-7.8-14.9-15.2-12.35-3.35 1.05-3.3 7.8m-2.9-7.95q3-1.6 6.85-1.65 3.65-.1 5.95 1.15 5.15 2.85 10.15 12.45 2.9 5.65 3.95 11 1.05 5.3-.1 8.85-1.15 3.7-5.05 5.25t-8.2-.1q-5.5-2.1-11.35-9.05-5.15-6.15-7.3-11.75-2.1-5.4-1.05-9.25 1.1-4.2 6.15-6.9"/><path fill="#0d131a" d="M64.95 203.25q.15 5.55-3 8.95-2.7 2.85-6.6 3.25-3.75.4-7.05-1.5-3.65-2.1-4.85-6.1-2.65 2.1-7.05 1.4-4.4-.75-6-3.65l1.15-1.35q1.4 2.6 5.35 3.35 4 .8 6.4-1.25.6-.5.85.2 1.3 3.75 4.5 5.65 2.95 1.8 6.45 1.45t5.85-2.75q2.75-2.8 2.95-7.6.1-1.05.55-1.05.45-.05.5 1m28-9.45q-.1-4.5-2-7.2-1.95-2.7-6.05-4.05l-.45-1.6q5.6 1.3 8.15 5.4 1.95 3.1 2 7.45.05 4.1-2.6 7.35-2.75 3.35-7.35 4.45l-.4-1.5q4.1-1.05 6.45-3.85 2.35-2.75 2.25-6.45"/><path fill="#0d131a" d="M86.85 228.5q-1.2 3.2-4.65 5.1-3.2 1.75-7.3 1.8-3.2.05-5.9-.9-2.75-.95-4.3-2.7-2.85-3.15-4.05-8.9-1.05-5.1-.45-10.15l1.5-1.3q-.65 4.9.3 10.1 1.15 5.85 3.9 8.95 1.75 1.95 3.45 2.45-2.15-2.8-2.7-8.5-.05-.85.4-.9t.6.8q.75 3.75 1.7 5.8 1 2.25 2.55 3.1 1.2.7 3.2.85l3-.3q-2-1.15-3.2-3.75-1.15-2.5-1.4-5.95-.05-1 .35-1.05.45-.1.65.9 1.3 7.3 4.8 8.45 1.7.55 3.25-.5 1.75-1.15 2.75-4 1.8-5.1.65-14.05-1.2-9.2-4.2-11.7l.2-1.75q4.5 3.45 5.7 13.35 1.15 9.3-.8 14.75m-8.7-142.8Q62.8 80.95 47.6 87.1q-15.5 6.25-18.8 19.2-3.2 12.7 3.4 23.95 7.1 12 23.1 17.45 17.4 5.9 32.2.9 14.75-5 18.75-18.05 4.15-13.75-3.95-26.8-8.2-13.1-24.15-18.05m-31.35-.3q15.75-6.1 31.7-1.2 17.1 5.3 25.65 18.7 8.65 13.55 4.15 28.3-4.25 14-19.75 19.2-15.35 5.15-33.7-1.1-16.5-5.6-24-17.9-7.25-11.8-3.95-25.6 3.4-14.05 19.9-20.4m-31 57.55.05-2.25q1-1.4 2.55-2.2 1.75-.95 3.7-.75.85.1.8.5-.05.45-.95.5-2.15.2-3.9 1.45-1.7 1.15-2.25 2.75m2.25 4.95-1.25-1.55q.1-2.2 2-4.05 2-1.85 4.35-1.85.8 0 .8.4t-.8.6q-2.3.5-3.85 2.5-1.5 1.95-1.25 3.95"/><path fill="#ce723f" d="M42.7 146.95q-.55-2.5.2-4.7.7-2.3 2.4-3.1 2.1-1 4.05-.9 2.45.15 3.9 2.15 1.9 2.65 3.95 7.05 2.45 5.15 3.15 9 4.6-1.45 7.25-2.85 1.6-.8 3 2.05t-.05 4.4q-3.4 3.75-7.1 6.35-4.6 3.2-7.2 2.7-2.85-.55-7.55-8.3-4.65-7.65-6-13.85"/><path fill="#a95c31" d="M47.55 158.7q-6.45-11.05-4.65-16.6.95 6.75 6.15 15.4 4.85 8.1 7.2 8.4 1.55.25 6.05-1.5 5.05-1.95 8.1-4.5-2.75 3.55-6.8 6.35-4.25 2.9-7.2 2.9-2.8 0-8.85-10.45"/><path fill="#0d131a" d="m48.05 138.75 1.65-.05q-1.25 2-.7 6.65.1 1-.4 1.1-.45.05-.6-.9-.75-4.75.05-6.8m-3.95 1.8 1.45-1.05q-.65 3.05-.35 5.75.1.95-.35 1-.5.1-.65-.85-.4-3.1-.1-4.85"/><path fill="#0d131a" d="M45.9 138.3q5.6-2.05 8.7 3 5.2 8.25 6.5 16.65.15 1-.35 1.1-.45.05-.65-.95-1.45-7.4-6.7-16.25-2.25-3.8-6.95-2.05-3.95 1.4-2.95 6.6 1.5 7.75 6.45 15.25 4.3 6.55 6.35 6.7 1.75.15 5-1.65 4.05-2.25 8.6-6.7.7-.7 1.05-.35.35.3-.3 1.05-4.25 4.85-8.5 7.4-3.6 2.1-5.85 1.9-2.6-.15-7.55-7.6-5.35-8-6.85-15.7-.55-2.9.55-5.2 1.1-2.35 3.45-3.2"/><path fill="#0d131a" d="m60.6 157.2-.3-1.55 6.8-2.25q.95-.35 1.15 0 .15.4-.7.9-2.95 1.65-6.95 2.9"/><path fill="#ce723f" d="M89.05 75.75q9.35-4.85 20.45 2.65 8.75 5.85 14.7 15.8 5.7 9.45 6.8 21 1.45 15-8.7 19.6-10.6 4.8-21.9-4.05Q91.85 124 86.2 113q-4.95-9.55-4.9-20.55.05-12.7 7.75-16.7"/><path fill="#a95c31" d="M126.7 131.5q-4.75 5.2-12.3 4.95-8.2-.3-17.55-8.8-10.1-9.15-13.25-21.3 4.05 8 10.8 14.2 6.7 6.1 13.85 8.55 7.55 2.6 13.35.25 6.4-2.55 9.35-10.7.4 7.7-4.25 12.85"/><path fill="#0d131a" d="M107.35 77.95q-9.95-5.65-17.3-1.6-7.9 4.4-7.9 16.45.05 11.1 6.35 22.5 6.85 12.35 16.75 17.5 9.65 5.05 17.3.8 7.4-4.1 7.6-15.45.2-10.95-6.2-22.5-6.65-12.05-16.6-17.7m-18-3.15q7.85-4.35 18.65 1.5 10.85 5.9 17.8 18.45 6.85 12.4 6.35 24-.55 11.9-8.7 16.5-8.55 4.75-19.15-.8-10.55-5.5-17.7-18.35-6.6-11.85-6.35-23.55.25-12.85 9.1-17.75"/><path fill="#fff1ac" d="M98.6 93.95q1.9-3.45 6.2-4.7-2.3-5.5-.6-10 1.5-4 5.5-5.85 3.9-1.8 7.85-.45 4.3 1.5 6.4 6.25 4.85-3.45 9.5-2.75 4.15.65 6.95 4.3 2.7 3.55 2.8 8.15.15 4.9-2.85 8.8 3.8 3.05 4.05 7.6.15 4.1-2.45 7.8-2.6 3.6-6.3 4.6-4.1 1.1-7.65-1.8-2.25 3.85-5.7 5-3.1 1.05-6.3-.3-3.1-1.3-5-4.25-2.05-3.1-1.8-6.75-4.6.05-7.8-2.6-2.95-2.45-3.75-6.2-.8-3.7.95-6.85"/><path fill="#dcd096" d="M123.45 120.2q-3 1.3-6.25.6-7.95-1.65-8-11.15-7.4.1-10.5-6.3-3.05-6.3 1.6-11.15-1.5 5.9 3.25 10.45 4.55 4.4 9.2 2.8-.35 7.05 6.2 8.45 2.7.55 5.2-.55 2.65-1.15 3.85-3.8 4.8 2.8 9.45.2 4.95-2.85 4.65-10 2.3 2.65 2.2 6.6-.05 3.8-2.2 6.9-2.25 3.35-5.7 4.2-3.95 1-8.4-1.55-1.4 2.95-4.55 4.3"/><path fill="#0d131a" d="M106.05 88.7q.95-.1.95.35.05.45-.85.65-4.05.9-6.15 3.95-1.95 2.8-1.6 6.35.45 3.9 3.55 6.4 3.35 2.65 8.75 2.7.9 0 .95.45t-.85.55q-6 .65-10-2.65-3.55-2.9-4.05-7.4-.45-4.1 1.95-7.3 2.6-3.55 7.35-4.05"/><path fill="#0d131a" d="M124.15 119.25q2.95-1.7 4.05-5.45.25-.95.7-.85t.3 1.05q-.8 4.4-4.4 6.55-3.25 1.95-7 1.35-4.15-.7-6.75-3.85-2.85-3.45-2.4-8.4l1.2.05q-.1 4.45 2.35 7.3 2.2 2.6 5.85 3.2 3.4.6 6.1-.95"/><path fill="#0d131a" d="m105.7 89.15-1.3.35q-2.8-4.85-1.3-9.8 1.35-4.55 5.45-6.75 4-2.2 8.35-1.05 4.8 1.3 7.3 6.4 3.8-3 8.15-2.7 3.75.25 6.85 2.85 4.4 3.7 4.8 8.9.4 5-2.9 10.3 4 3.15 4.05 8.15.05 4.25-2.55 8-2.35 3.4-6.1 4.4-4.4 1.2-8.85-1.75l.6-1.05q4.15 2.3 7.85 1.25 3.15-.85 5.25-3.85 2.45-3.55 2.3-7.4-.2-4.3-3.75-7.15-.3-.25-.15-.65 3.25-5.9 2.4-10.85-.7-4.1-4.1-7-2.85-2.4-6.3-2.6-3.95-.15-7.55 2.65-.5.35-.8-.15-2.4-4.65-6.5-5.95-3.8-1.25-7.65.85-3.65 2.05-4.75 5.8-1.25 4.15 1.2 8.8"/></svg>