<svg xmlns="http://www.w3.org/2000/svg" width="419" height="284" viewBox="-0.65 -0.05 419.05 284.4"><path fill="#003e6a" d="m413.8 34.2.05.3q0 2.2-8.4 8.25-5.7 4.1-14.15 7.65-5.3 2.2-15.25 5.5l-11.75 3.3 8.7.5 13-.75q16.65-.45 25.1 2.4l3.6 1.25q2.2.9 2.3 1.55.25 1.8-9.5 7-8.3 4.4-13.05 6.05-11.1 3.85-20.9 5.35l-21 1.75q3.35-.05 10.65 1.25l10.6 2.1q14.45 2.75 16.65 6.35 1.4 2.3-8.2 4.55-12.35 2.7-20.4 3.05l-12.7.55h-12.7q13.05 3.95 23.1 7.75 5.5 2.1 10.15 4.55 6.8 3.55 8.85 6.55 1.8 2.55-2.75 3.65l-7 .8q-13 .85-25.2-1.2l-10.4-1.95-10.4-1.95 9.35 6.2q3.95 2.5 7.2 5.1 5.15 4.2 4.9 6.1-.35 2.8-12.9.85-7.3-1.25-14.55-3.25l-14.3-4.15 5.05 3.45 4.75 3.8q7.1 6.15 3.65 8.3-2.3 1.45-7.6.55l-7.6-1.85q-6.1-1.8-12.15-4.1l-11.9-4.8q2.85 2 4.7 3.75l4.2 4.35q2.85 2.95 3.7 4.05 2.5 3.2 1.65 4.75-.6 1.15-4.2.35-2.55-.55-4.75-1.5-5.85-2.35-11.35-5.7l-10.55-7.05 2.7 3.2 2.4 3.45q1.7 2.35 2.65 4.55 1.45 3.15.85 5.05-.5 1.6-2.35 1.3-1.05-.15-3.2-1.2-3.2-1.5-11.25-7.95-7.4-6-9.3-8.2l2.65 5.45q1.45 3.55 1.3 5.85-.2 3-3.9.35l-3.65-3.25q.35 5.85-2.65 17.4-3.45 13.15-7.75 17.1-1.15 13.6-9 22-3.05 3.25-6.15 5.5-4.2 2.95-6.05 2.1l.95-3.1q.85-2.55 2.75-6.3 1.75-3.45 2.75-4.8 1.15-1.55 1.15-3.15l-.2-1.4q-.5-1.7 0-5.5.45-3.8 0-5.55-.4-1.5-1.7-.35l-1.95 2.3-3.85 5.95q-1.3.25-2.2 2.45-1 2.3-.85 5.05.2 4.1-1.3 8.6-1.6 4.65-3.1 3.75-3-1.75-4.25-7l-1.45-8.25q-.55-2.2-3.65-2.75-3.15-3.1-9.05-3.6 2.1 2.7 3.45 5.2-.65 2.35-.7 4.9l-2.35-.3q-4.1-1.2-9.35-4.9l-4.4-3.5q7.1-6.05 12-14.4l10.8-.55-4.7-3.7-2.65-2.35 8.6-.95-6.3-4.4q3.3-7.4 8.2-12.3 4.05-4.1 10.6-7.7 14.5-7.95 22.75-16.75l5.05-7.3q4.95-8.2 4.55-12.65l-1-7.9q-.5-2.55-1.3-4.05l.1-.45q16.45-17.25 40.55-30.8 18.95-10.65 40.6-18 23.8-8.1 47.5-11.85 20-3.2 34.5-2.6 15.2.65 15.85 2.9"/><path fill="#b50029" d="M330.3 55.9q-1.05 4.3-9.3 11.05-8.8 7.25-20.35 12.5-1.05.5-.9.75l1.3-.15q6-2.05 11.55-3l11.1-1.35q8.15-.8 9.55 1.95l.25 1.05q0 1.9-2.25 4.5-3.6 4.05-11.3 8.6-15.25 9.1-37.65 13.8l-1.8.55q-.6.25-.1.25 11.15-.2 22.5 2.55 4.55 1.1 6.55 2.45 1.4.95 1.4 1.9.1 2.25-6.4 4.35-6.65 2.15-19.9 3.2-11.9.9-18.3.35l-1.3.1 1.25.3q5.05 1.2 9.55 3.5 1.1.55 1.75 1.4.65.8.65 1.5v.25q-.3 1.7-4.35 2.3-11 1.7-26.4.05-13.75-1.5-19.05-4l-.15-.6q10.15-11.35 9.05-22.75l.1-.3q12.95-16 42.55-32.65 27.6-15.55 42.85-17.45 4.9-.6 6.55.15 1.5.7 1 2.9"/><path fill="#fff" d="m212.9 89.5-.1-2.2.25-.4 6.6-2.95.35.05h.05q5.35.95 9.95 5.7 5 5.2 6.1 12l.25 3.45q0 8.6-6.15 17.05-8.1 11.1-26.3 21.05-6.6 3.65-10.4 7.5-4.6 4.65-7.9 12.1l-.2.6q0 .25 6 4.25l-8.25 1.15 6.85 5.85-9.2.3-1.05.15-.7.95q-11.85 19.6-27.95 20.95l-.3-.7 2.15-2 1.4-5.95q.4-3.1-.75-5.9v-.2q.35-2.45-.6-4.2l-.6-.85.05-1.3q0-1.35-1.05-3.55-1.85-4.15-5.6-5l-1.05-.05.3 2.9-9.6-1.5 4.6-3.9-6.5-1.5 3.15-2.8q-3.3-6.3-4-9.05-1-3.7-1-7.7 0-7.15 3.05-13.95 2.8-6.15 7.15-10.25l.6.45q-1.35 3.95-1.95 8.5l.45.3.65-.15q1.7-2.45 5.1-4.8h.35q8.65 2.25 15.75 1.55l2.2-.1q7.75-5.85 16.25-7.7 18.25-4.05 26.15-13.45 5.45-6.5 5.45-14.7"/><path fill="#003e6a" d="M82.45 22.15q20.4 10.65 37.7 24.3 17.35 13.75 29.55 28.9l-.1 1.1q-.6.85 7.4 13.1 8.05 12.3 7.65 13.05l-26.75 20.35q-3.35 4.55-5.15 9.8-1.8 5.3-1.8 10.7l-.05.2q-2.3 4-3.75 5.15l-2.5-.1q-.9-1-.9-2.5 0-1.95 1.35-7.35l1.3-4.95q-4.95 5.6-8.05 8.5-3.3 3.15-6.85 5.5l-3.35 2.05q-2.6 1.3-3.65 1.1-2.25-.45-2.15-3.75.05-2.15.95-4.75 2.85-8.2 10.95-17.3l.8-1.3q-.1-.35-1.05.35-10.45 7.75-19.55 11.5l-2.8.6-2.8-.35q-1.35-.75-.6-3.75l1.5-3.95q1.3-2.9 5.65-7.3 4.05-4.05 7.55-6.25-14.9 7.95-19.6 9.75-8.75 3.4-18.1 3.05-3.45-.15-6.2-1.2-3.8-1.5-3.95-4.25-.05-1.75 1.15-4.1 2.95-5.3 9.25-10.5 5.7-4.65 13.55-8.75l1.15-.75q-.05-.15-1.3.4-8.05 3.9-23.3 6.7-16.15 2.95-25 1.6-1.95-.3-3.55-1.1-1.7-.8-2.05-1.7-.15-.35-.15-.9 0-1.95 2.6-5.05 3.35-4 16.5-10.3 12.8-6.1 18.75-6.9l1.8-.45q.05-.25-1.55 0-7.85 1.4-16.85 1.8-13.3.6-19.95-1.85-3.7-1.45-3.75-2.6l-.4-.65q0-.85 1.2-2.1 1.25-1.35 3.1-2.35 3.95-2.15 15.55-4.75 11-2.45 23.65-4.2 1.55-.2 1.55-.5t-1.45-.3q-15.85 0-33.15-3.55-18.7-3.85-24.65-9.25Q.05 43.1 10.7 39.7q10.7-3.4 21.65-4.25 13.05-.95 28.05 1.6 4.65 1 0-.45-10.7-3.25-28.8-11.85-18.8-8.95-24.9-14Q1.5 6.5 1.6 5.1q.1-1.65 7.05-2.2Q23.85 1.8 43 6.75q19.55 5.05 39.45 15.4"/><path fill="#595757" d="M149.9 192.7q1.15.15 1.95 1.8l-.05.45-1.95 1.65q-.7.55-.7.85l.25.05.75.05 1.9-.15.45.45q-.15 1.2-.9 2.2l-.35.15-3.2.3q-1.9.45-3.2 1.6l-.65-.4q.85-3 2.8-6.95l.2-.2q1.8-.85 2.3-1.7z"/><path fill="#003e6a" d="M151.7 186.1q1.2-2.2 1.4-2.2 1.4.05 1.5 1.9l-.35 2.85q-.7 4.3-1.8 5.3-.45.4-.9-.25l-.75-1.05q-.45-.25-1.75.5-1.2.7-1.45.45-.45-.4 1-2.5l1.8-2.45zm41.55-91.8 19.25-7.05q.55 6.55-2.35 12.15-5.05 9.8-19.5 15 2.75-3.2 3.9-5.7 1.7-3.7 1.1-7.75-2.2 4.3-5.1 6.55-2.6 2-5.35 2.05 3.5-2.3 4.9-4.4 2.45-3.7.6-8.4z"/><path fill="#fff" d="m177.05 105.4 13.2-8.6q1.55 3.8.3 7-1.1 2.75-3.85 4.2-1.7.9-3.6.95-2.3.1-4-1.05-1.1-.85-2.05-2.5"/><path fill="#003e6a" d="M174.65 115.2q.95.55 1.6.7 1.7.65 3.9.8l.05.8q-3.4.85-7.45 2.7l-.55-.55 1.9-4.25z"/><path fill="#ffe792" d="M167.25 113.7q-11.6 3.9-20.25 10-4.35 3.05-6.35 5.35 1.55-9.5 6.3-16.45T159 102.2q3.65 0 11.2-1.55l-.75 4.05q-.45 4.2 1.1 5l-1.45 1.85z"/><path fill="#ffe792" d="M170.7 111q1.1 2.1 3 3.5l.15.5q-1.75 4.5-3.7 6.5l-.1.05q-2.25 1.3-4.15 2.55l-.1.05q-6.1 1.85-17.55-.4l-.1-.75q5.85-3.7 19.65-8.9l.05-.05 2.2-3.05z"/><path fill="#b50029" d="M90.8 39.05q10.95 1.6 31.75 19.35 17.4 14.8 23.65 23.6-2.05 3.45-2.45 7.7-.45 4.4 1.15 6.9 1.35 2.2 4.8 3.65 3.25 1.4 7.4 1.8-3 2.2-5.7 4.75-5.25 4.95-7.55 9.9l-.1.15-3.15 2.95-1.9 1.95q-3.1.55-9.45.05-6.35-.6-9.55-2.1-3.65-1.7-.1-4.95 2.15-2 5.75-3.75 2.75-1.35 7.55-3.55-15.2-.55-24.15-3l-6-1.85q-4.15-1.65-4.3-3.6-.15-1.3 1.7-2.7 1.35-1 3.15-1.7 2.8-1.05 9-2.45 5.3-1.2 9.2-1.85-5.55-1.2-12.25-4.1-7.4-3.1-13.4-7.6l-3.95-3.3q-2.2-2.3-2.35-4.4-.1-1.3 1.3-2.25 1.2-.75 2.55-.85 8-.75 19.55 2.85 6.65 2 2.8-.05-6-3.3-15.15-12.25Q92.3 50.2 89.8 46q-2.05-3.45-2.25-5.05-.25-2.45 3.25-1.9"/><path fill="#003e6a" d="m176.85 99.3 15.85-4.65q-.25.7-6.55 4.55-7.5 4.5-9.25 5.85l-.25-.6q-.8-2.2-.1-4.9z"/><path fill="#fff" d="M191.75 106.4q1.85-1.9 3.9-4.85-.1 4.7-1.45 7.65-1.1 2.45-3.3 4.2-3.05 2.35-7.35 2.75-3.75.35-7.2-.85-4.9-1.75-6.25-6.7-1.15-4.25.65-7.65l5.4-1.9q-.25 1.2-.1 3.3.15 2.3.7 3.35 1.1 2.05 3.15 3.25 2.1 1.2 4.55 1.1 3.8-.1 7.3-3.65"/><path fill="#b50029" d="m185.1 100.1.55.15q.45.75.3 1.75-.25 1.1-1.1 1.6-.8.55-1.9.4-.95-.25-1.55-1l.1-.55z"/><path fill="#fff" d="m189.4 212.9.45 5q.4 3.3 1.45 4.55l-3.35 6.35q-2.05-.25-5.2 0l-4.55.6.9-6.25q0-3.55-1.2-4.2-1.15-.55-4.6 2.15-3 2.3-5.3 4.95l-1.25-5.5q2.6-1.5 11.2-9.1l4.5-2-.85 3.6q-.8 3.7-.25 4.15.8.65 4.5-1.75z"/><path fill="#003e6a" d="m249.55 17.35.7.3q-.1 4.6-2.3 11.95-1.8 6.15-4.4 12.1v.25l.2.05 4.55-1.8q2.9-1.45 5.45-3.25l.6.35q-.15 2.2-1.2 5.6-1.15 3.8-2.55 6.2-.2.4.25.3 7.55-2.95 13.65-9.05l.65.35q-.45 3.25-2.4 7-1.6 3.05-3.35 4.9-.15.15-.15.4l.35-.1q4.75-1.7 8.7-3.85l.5.6q-13.5 15.6-40 29.4-26.15 13.65-55.15 20.5-11.2 2.65-18.5 1.95-7.4-.75-10-4.95-1.05-1.65-1.05-5.7 0-8 6.5-15.9l5.45-7.05 1.45-.25q3.15-11.9 9.65-22.95 6.2-10.65 9.65-10.95 2-.2 4.45 3.4 8.2-10.85 13.15-18.5 5.4-8.4 8.2-14.95h.75v.1q3.55 8.4 3.55 13.85l-.15 2.3q.2.4.35.15 1.4-2.05 2.4-5.9h.8q.75 2 1.25 4.75l.45 5q.1 2.2.25 2l2.6-4.3 3.05-5.85.75.05q2 5.3 2 8.95l.1.1.25.05 4.6-4.55q3.3-3.6 4.95-6.45l.7.1q.9 3.25.9 8.5 0 5.45-1 9.05l.05.25h.25q3.6-1.65 8.85-5.8 5.65-4.45 9.25-8.7"/><path fill="#b50029" d="m155.95 221.95 1.25 2.65q.7-4.75 3.45-8.5 1.55-2.15 2.05-2.25.55-.1 2.25 1.75 1.05 1.15 2 5.2.75 3.2.95 5.55l3.8-3.75q3.2-3.2 4.85-3.55 3.3-.75 2.2 6.55-.2 1.6-1.2 4.35 2.8-1.15 8.95-.95l2.45.1q1.55.2 2.1.95.5.75.05 2l-1.05 1.95q-1.1 1.9-4.1 4.2l3.25-.05q2.2.1 3.15.7l.35 3.4q.2 2.6.45 3.45-1.1 1.15-6.45 2.65L191 251l2.1 1.4q1.4 1 1.65 1.8.5 1.7-2.9 2.3l-4.55.3 4.2 5.5q2.45 3.65 2.65 6.25.15 2.7-3 2.1-1.55-.3-4.6-1.75l-6.05-2.65q.25.1.35 4.05.15 3.95-.1 5-.4 1.8-2 .85-.7-.4-2.35-2.05-3.4-2.85-4-3.9l-1.05 6.45q-.65 2.75-2.3 4.65-2.5 3.05-6.55-4.45-1.6-3.15-1.95-5.5l-1.95 3.45q-1.35 2.05-2.8 2.7-1.5.7-2.1-1.4-.25-.85-.45-3.2l-.3-1.55-.25-1.55q-4.8 5.4-8.45 7.55-2.8 1.7-3-5-.1-3.4.45-8l-5.7 1.8-2.3.65q-1.7.35-2.2-.25-.65-.85.8-2.95l2.15-2.65 4.2-4.6-6.65-.2q-4.15-.45-6.4-1.75-2.05-1.2 3.05-4.95 3.6-2.65 6.8-4.2l-4.75-1.75q-2.95-1.15-4.4-2.5-1.65-1.5.65-2.2l3.8-.5 1.95-.15 1.9-.05-2.55-3.85q-1.7-3-1-3.6.85-.75 5.25.45 3.95 1.1 5.25 1.9-.65-.9-1.35-3.15-.65-2.25-.8-4.15l2.25-1.4q1-.85 1.65-2.8 1.05-.15 3 1.3l2.2 2.05q-.9-4.75.5-7.85.5-1.05 1.95-.2l3.25 2.8q1 1 1.75 2.35"/><path fill="#003e6a" d="M177.7 197.2q3.1 1.55 5.5 2.2l.25.15q2.5 3.7 5.8 6.4l.05.05q5.95 7.55 6.25 13.35l.05 2.65-.05.25-1.9 2.05-.35.05q-1.35-.65-2.45-3.6-1.15-3.1-1.15-6.65l.1-1.55-.05-.4-.3.25q-1.4 1.4-4 3.05-2.85 1.8-3.7 1.6l-.25-.15q-.15-.3-.15-.9 0-1.55.65-3.8.75-2.55 1.8-3.85l.6-1q-.65.25-1.45 1.5l-.2.05q-3.35 1.9-7 2.8l-4.65.2q-.5-.3-.5-.8l.6-.6q0-2.1 7-5.95l.5-.3-.6-.05-3.55-.5-2.95-.75q-2.8-1-2.8-2.35 0-1.25 2.2-2.2 3.05-1.25 6.5-1.25z"/><path fill="#fff" d="M105.25 187.05q2.5-1.9 6.1-2.1 3.25-.2 4.55.85 1.65 1.3 1.65 2.8l-.15.8q-.3 1.05-1.15 1.65-1.05.7-2.5.4l-8.4-3.7zm17.1-15.65-1.3-2.75q.7-.05 2.4.55 1.4.55 4 2.1 3.15 1.85 3.45 2.8.5 1.9-.25 3.4-.85 1.7-2.8 1.75-1.35.05-2.15-1.1l-1.1-2.3zm23.35-3.6q1.85.45 3.5 2.05 1.5 1.5 2.35 3.4.9 2.05.05 4-.9 2.1-3.25 2.15-2.8.05-3-3.25.35-3.95.2-5.3l-.4-1.7q-.2-1.4.45-1.4z"/><path fill="#003e6a" d="M175.65 196.9q-2.4.15-4.8 1.15-2.85 1.25-3.05 2.4-.15.5.35 1l-.2.65q-3.2 1.1-8.35.5-5.1-.55-7.3-2.2l-.1-.55q.7-.95.75-2.25l.3-.4q7.7-1.2 14.5-6.65l.5.05q3.15 2.9 7.55 5.55z"/><path fill="#595757" d="M120.4 184.45q1.8.6 2.55 1.95.6 1.15 3.55 3.5 3.5 2.75 6.4 3.7-4.2-9.4-6.15-10.85-1.05-.8-1.7-2.1-.85-1.65.3-2.1.85 1.15 2.45 1.1 1.55-.05 2.6-1.05.8-.7 1.05-2.1.25-1.35-.1-2.75.7-.65 2.15.55 1.55 1.3 1.75 3.5.85 7.75 5.25 16.15 1.45-2.25 2.1-5.9.4-2.25.4-4.25l-.15-2.4q-.1-1.45.25-2.4.2-.85.45-1.2.4-.65 1.5-.9l1.1 1.7q.75 1 1.5 1.15t2.45-.75l2.25-1.4q1.15 2.15 1.05 3.9l-.75 2.5-1.45 2.5q-3.05 5.05-4.55 8.05-2.8 5.6-3.4 9.45-1.05 6.95-.8 12l.4 2.85q.3 1.75.1 2.85-.2.95-1.1 2.2-1.05 1.5-1.9 1.3 0-2.2-.45-3.35-.6-1.35-1.85-2.05-1.3-.75-2.65-.45-1.45.35-1.85 1.85l-.3.9q-.2.35-.75.35-.3.05-.35-1.65v-1.95l1.35-2.9 1.35-2.8q.65-1.65.5-3-.15-2-1.85-5.8-1.9-4.25-3.45-4.75-.95-1.6-5-3.3-3.75-1.6-5.5-1.55l-2.8-.15q-2.25-.5-3.85-2.85 2.1.45 3.7-.45 1.25-.7 1.6-1.75.25-.8-.45-2.3-.65-1.55-1.6-2.25 2.4-1.35 4.65-.55"/><path fill="#fff" d="M138.7 221.25q1.35 1.6.55 3.45-.95 2.1-3.2 3.6-2.75 1.8-5.8 1.5l-.3-.6q2.45-3.7 3.6-7.9.3-1.3 1.5-1.55l1.9.2q1.05.45 1.75 1.3"/><path fill="#002e54" d="M194.15 194.95q-.55-2.2-3.65-2.75-3.15-3.1-9.05-3.6 2.1 2.7 3.45 5.2-.65 2.35-.7 4.9l-2.35-.3q-4.1-1.2-9.35-4.9l-4.4-3.5q4.65-4 8.7-9.45 15.75 3.85 31.7.55 16.55-3.45 27.3-13.55-3.2 11.45-7.2 15.1-1.15 13.25-9.4 22.1l-5.5 5.3q-3.6 2.85-5.85 2.5l.1-2.55q.85-2.55 2.95-6.7 1.95-3.95 2.95-5.25 1.15-1.55 1.15-3.15l-.2-1.4q-.5-1.7 0-5.5.45-3.8 0-5.55-.4-1.5-1.7-.35l-1.95 2.3-3.85 5.95q-1.3.25-2.2 2.45-1 2.3-.85 5.05.15 3.05-1 7.45-1.45 5.6-3.75 4.25-3-1.75-4.1-6.7z"/><path fill="#dbdcdc" d="M188.6 157.1q-1.75 2.9-3 5.75l-.2.6q0 .25 6 4.25l-8.25 1.15 6.85 5.85-9.2.3-1.05.15-.7.95q-11.85 19.6-27.95 20.95l-.3-.7 2.15-2 1.4-5.95q.4-3.1-.75-5.9v-.2q.35-2.45-.6-4.2l-.6-.85.05-1.3q0-1.35-1.05-3.55-1.85-4.15-5.6-5l-1.05-.05.3 2.9-9.6-1.5 4.6-3.9-6.5-1.5 3.15-2.8-1.9-3.8q8.4 11.75 24.8 10.7 14-.95 29-10.35M223.75 95q-5.25-4.65-10.85-5.9l-.1-1.8.25-.4 6.6-2.95.35.05h.05q5.35.95 9.95 5.7 5 5.2 6.1 12l.25 3.45q0 4.55-1.75 9.05-.1-3.35-.65-5.45l-2.05-3.9q-3.5-5.8-8.15-9.85"/><path fill="#002e54" d="m126.5 121.75 12.5.35-1.1.85q-3.35 4.55-5.15 9.8-1.8 5.3-1.8 10.7l-.05.2-1.7 2.6-2.3 2.55q-1.45 1.1-2.25-.3-.65-1.05-.65-2.7 0-1.95 1.2-7.15l1.2-4.75q-8.55 9.7-16.45 14.9-3.75 2.6-5.6 2.25-2.2-.45-2.05-3.65.05-1.95 1-4.6 3.05-8.85 11.1-17.85l1.15-1.4q.25-.4-.65.25-11.1 8.15-20.45 12l-2.8.6-2.8-.35q-1.35-.75-.7-3.35l1.35-3.55q1.45-3.2 9.15-10.6 10.65-4.4 19.4-12.15 3.25 1.05 7.9 1.15l7.85-.1q-8.75 3.7-12.05 5.55-5 2.75-4.75 4.7.35 2.95 9.5 4.05m23.1-45.3q-.6.8 6.45 11.6 7.8 12 8.5 13.8l-9.85-.4q-4.85-.85-6.85-2.6-3.65-2.45-4.3-7.35-.65-5.1 2.75-9.1-.75-1.9-3.1-4.3-2.65-2.65-3.4-4l2.4-7.4q4.25 4.6 7.5 8.65z"/><path fill="#3e3a39" d="M149.9 192.7q1.15.15 1.95 1.8l-.05.45-1.95 1.65q-.7.55-.7.85l.25.05.75.05 1.9-.15.45.45q-.15 1.2-.9 2.2l-.35.15-3.2.3q-1.9.45-3.2 1.6l-1.15.45q.85-2.9 3.3-7.8l.2-.2q1.8-.85 2.3-1.7z"/><path fill="#002e54" d="M150.4 188.65q2.45-4.4 2.65-4.4 1.35.05 1.5 1.75l-.3 2.65q-.7 4.3-1.8 5.3-.45.4-.9-.25l-.75-1.05q-.45-.25-1.75.5-1.2.7-1.45.45-.45-.4 1-2.5zm62.1-101.4q.25 3.4-.35 6.45-4.95-1.15-12.35-1.8zm-37.85 27.95q.95.55 1.6.7 1.7.65 3.9.8l.05.8q-3.4.85-7.45 2.7l-.55-.55 1.9-4.25z"/><path fill="#ffe792" d="M167.25 113.7q-11.6 3.9-20.25 10-4.35 3.05-6.35 5.35 1.55-9.5 6.3-16.45T159 102.2q3.65 0 11.2-1.55l-.75 4.05q-.45 4.2 1.1 5l-1.45 1.85z"/><path fill="#ffe792" d="M170.7 111q1.1 2.1 3 3.5l.15.5q-1.75 4.5-3.7 6.5l-.1.05q-2.25 1.3-4.15 2.55l-.1.05q-6.1 1.85-17.55-.4l-.1-.75q5.85-3.7 19.65-8.9l.05-.05 2.2-3.05z"/><path fill="#8f001a" d="M139.7 74.4q4.55 4.95 6.5 7.6-2.05 3.45-2.45 7.7-.45 4.4 1.15 6.9 1.35 2.2 4.8 3.65 3.25 1.4 7.4 1.8-3 2.2-5.7 4.75-5.25 4.95-7.55 9.9l-.1.15-3.15 2.95-1.9 1.95q-3.1.55-9.45.05-6.35-.6-9.55-2.1-3.65-1.7-.1-4.95 2.15-2 5.75-3.75 2.75-1.35 7.55-3.55l-14.7-1.2q14.2-12.65 21.5-31.85"/><path fill="#dbdcdc" d="m189.4 212.9.45 5q.4 3.3 1.45 4.55l-3.35 6.35q-2.05-.25-5.2 0l-4.55.6.8-5q3.55-3.5 5.15-7.95z"/><path fill="#003e6a" d="m249.55 17.35.7.3q-.1 4.6-2.3 11.95-1.8 6.15-4.4 12.1v.25l.2.05 4.55-1.8q2.9-1.45 5.45-3.25l.6.35q-.15 2.2-1.2 5.6-1.15 3.8-2.55 6.2-.2.4.25.3 7.55-2.95 13.65-9.05l.65.35q-.45 3.25-2.4 7-1.6 3.05-3.35 4.9-.15.15-.15.4l.35-.1q4.75-1.7 8.7-3.85l.5.6q-12.6 15.45-39.95 29.6Q202.5 92.8 173.4 99.7q-11.1 2.6-18.5 1.7-7.35-.95-10.05-5.2-1-1.6-1-5.35 0-7.7 6.8-16l5.1-6.75 2.05.2q2.4-11.35 9.05-23.3 6.35-11.45 9.8-11.75 1.8-.15 4.6 3.9 8.2-10.85 13.15-18.5 5.4-8.4 8.2-14.95h.75v.1q3.55 8.4 3.55 13.85l-.15 2.3q.2.4.35.15 1.4-2.05 2.4-5.9h.8q.75 2 1.25 4.75l.45 5q.1 2.2.25 2l2.6-4.3 3.05-5.85.75.05q2 5.3 2 8.95l.1.1.25.05 4.6-4.55q3.3-3.6 4.95-6.45l.7.1q.9 3.25.9 8.5 0 5.45-1 9.05l.05.25h.25q3.6-1.65 8.85-5.8 5.65-4.45 9.25-8.7"/><path fill="#8f001a" d="M154.45 261.9q1.75.8 4.05.5 2.4-.35 4.2-2.7 1.4-1.8 1.8-3.7 4.9 6.1 10.95 4.1 4-1.3 5.25-4.3 1-2.3.25-4.85l3.85.45q2.45-.2 4.7-1.4l1.5 1 2.1 1.4q1.4 1 1.65 1.8.5 1.7-2.9 2.3l-4.55.3 4.2 5.5q2.45 3.65 2.65 6.25.15 2.7-3 2.1-1.55-.3-4.6-1.75l-6.05-2.65q.25.1.35 4.05.15 3.95-.1 5-.4 1.8-2 .85-.7-.4-2.35-2.05-3.4-2.85-4-3.9l-1.05 6.45q-.65 2.75-2.3 4.65-2.5 3.05-6.55-4.45-1.6-3.15-1.95-5.5l-1.95 3.45q-1.35 2.05-2.8 2.7-1.5.7-2.1-1.4-.25-.85-.45-3.2l-.3-1.55-.25-1.55q-4.8 5.4-8.45 7.55-2.4 1.45-2.9-3.35-.3-3.1.2-8.1 4.85 2.7 10.8-6.05.55 1.3 2.1 2.05"/><path fill="#002e54" d="M177.7 197.2q3.1 1.55 5.5 2.2l.25.15q2.5 3.7 5.8 6.4l.05.05q5.95 7.55 6.25 13.35l.05 2.65-.05.25-1.9 2.05-.35.05q-1.35-.65-2.45-3.6-1.15-3.1-1.15-6.65l.1-1.55-.05-.4-.3.25q-1.4 1.4-4 3.05-2.85 1.8-3.7 1.6l-.25-.15q-.15-.3-.15-.9 0-1.55.65-3.8.75-2.55 1.8-3.85l.6-1q-.65.25-1.45 1.5l-.2.05q-3.35 1.9-6.7 2.7-3.1.7-4.3.05-.5-.3-.5-.75v-.05q0-1.15 2.2-3.05 1.95-1.7 4.75-3.25l.5-.3-.6-.05-3.55-.5-2.95-.75q-2.8-1-2.8-2.35 0-1.25 2.2-2.2 3.05-1.25 6.5-1.25z"/><path fill="#002e54" d="M175.65 196.9q-2.4.15-4.8 1.15-2.85 1.25-3.05 2.4-.15.5.35 1l-.2.65q-3.95 1.35-8.55.8-4.5-.55-7.1-2.5l-.1-.55q.7-.95.75-2.25l.3-.4q7.7-1.2 14.5-6.65l.5.05q3.15 2.9 7.55 5.55z"/><path fill="#3e3a39" d="M125.35 196.9q1.55-1.15 2.05-2.65.65-1.85-.35-3.9 3.4 2.45 5.85 3.25-.45-1.7-2.05-4.7 1.55 1.4 3.65 1.1 2.25-.4 3.15-2.8.65 2.25 1.2 3.5l1.65 3.25q2.3-3.6 2.3-7.7.65 3.45 2.95 3.85 1.45.25 4.15-.9L146 196q-2.15 4.3-2.75 8-.4 2.75-.5 4.6l.05 4.6q-2.3-2.8-4.75-2.9-2.3-.15-3.5 2.05.8-1.65-1.2-6.95-1.95-5.2-3.25-5.65-.5-.8-1.75-1.5-.9-.5-3-1.35"/><path fill="#0d131a" d="M249.5 15.65q1.85-2.35 1.85 1.45 0 4.45-2 11.45-1.7 6-4.3 12.15 4.1-1.45 9.45-5.5.7-.6.9-.35l.15.95q0 1.75-1.1 5.6-1.05 3.85-2.35 6.6 6.95-3.15 12.65-9.4.5-.5 1-.55.7-.1.65 1.05-.1 3.8-1.75 7.15-.85 1.8-3.25 5.1 4.75-1.9 8.3-4.25 1.45-.9 2.25-1.1 1-.2-.15 1.3-11.85 15.7-38 30.05-26.8 14.7-59.9 23.15-11.3 2.85-18.9 1.9-7.55-.9-10.4-5.45-6.95-11.15 13.95-32.2l-.4 2.35q-7.8 7.7-11.4 16.05t-.95 12.55q2.6 4.1 9.85 4.95 7.2.8 18.2-1.8 28.4-6.75 55.2-20.75 26.65-13.95 39.45-28.7-3.85 2.05-8.75 3.9-.8.3-.9-.15t.25-.8q1.65-1.8 3.25-4.7 2-3.75 2.45-7-6.25 6.15-13.8 9.1-1.55.55-.75-.85 1.35-2.25 2.5-6 1.05-3.45 1.2-5.6-2.55 1.8-5.5 3.25-2.7 1.35-4.6 1.85-1.1.3-.7-.85 2.75-6.25 4.6-12.55 2.05-7 2.1-11.4-3.6 4.25-9.2 8.65-5.35 4.25-9.05 5.95-1.2.55-.85-.7 1-3.6 1.05-8.75 0-5.05-.9-8.6-1.7 2.85-4.9 6.45l-4.75 4.65-.75.4q-.25-.05-.25-.85 0-3.65-1.95-8.8-4.15 8.2-5.75 10.2-.65.8-.85.65-.2-.1-.2-1.05l.1-1.85q0-2.35-.5-5.1-.5-2.65-1.2-4.5-1.1 3.9-2.45 5.95-.9 1.35-1.05.85l-.05-1.2v-.05l.15-2.25q0-5.4-3.5-13.7l-.05-.1q-3 7.15-8.1 15.2-4.85 7.7-12.9 18.2l-.85-1.05Q196.15 16.25 202.4.75q.3-.8.55-.75.25 0 .55.8l2.05 6.2q2.05 6.9 2.1 10.25l1.4-3.9.5-1.55q.25-.3.7.45 1 1.55 1.75 4.95.75 3.45.8 6.45l4.7-8.6.7-1.45q.3-.3.7.65 2.2 5.6 2.45 9.3 2.3-2.15 5-5.4 3.1-3.8 4.35-6.45.3-.65.5-.65.3-.05.6.7 1.05 2.8 1.2 8.45.15 5.8-.8 10.3 3.9-2.05 9-6.4 5.2-4.45 8.3-8.45M405 41.9q8.2-5.9 7.7-7.4-.6-1.95-14.2-2.4-14.45-.65-34.3 2.5-23.5 3.7-47.25 11.8-22.6 7.7-41.45 18.1-24.8 13.65-41.05 30.95l-.6-1.15q16.5-17.45 40.95-31.3 19.4-10.95 41.25-18.4 21.35-7.25 44-11.1 22.2-3.75 38.75-3.05 15.1.65 15.9 3.75.65 2.55-9.1 9.6-10.8 7.8-38.4 15.5l23.5-1.05q11.15.15 16.95 1.3 10.75 2.15 10.5 4.95-.25 2.3-9.2 7.2-10.3 5.65-22.5 8.8-12.3 3.15-27.6 4.05 15.2 1.6 26.15 5.25 6.65 2.2 6.65 4.7-.1 2.45-7.95 4.8-7.45 2.25-20.25 3.35-12.75 1.05-23.05.35 21.8 5.75 31.8 11.8 10.05 6.1 7.45 9.05-2.3 2.55-13.6 2.55l-17.35-1q-12.2-1.3-23.4-4.1 8.15 4.3 15.35 10.4 5.25 4.45 5.05 6.25-.4 2.8-12.1 1.65-4.5-.45-12.85-2.5-7.85-1.9-14.35-4 6.75 4.5 9.05 7 3.55 3.7 2.3 6.1-1.4 2.75-8.8 1.7-7-.95-15.85-4.1-5.55-2-13.5-5.55 6.4 5 9.9 9.9 3.7 5.2 2.15 6.4-1.45 1.1-8.2-1.05-8.6-2.75-20.4-11.2 4.8 5.9 6.1 9.65 1.5 4.3-.2 5.65-2.1 1.65-7.75-1.95-2.6-1.7-7.75-5.75l-8.65-7.35q1.8 4.2 2.3 6.9.4 2.65-.1 3.5-1.05 1.75-5.45-1.25-3-2.05-6.6-6.75-3.7-4.75-5.25-8.7-.65-1.5-.05-1.7.55-.25 1.15 1.25 1.45 3.65 5.3 8.3 3.65 4.45 6.6 6.45 2.3 1.6 3 1.15.55-.3.2-2.05-.65-3.65-3.7-9.8-.95-1.85-.6-2.05.3-.2 1.6 1.4 1.95 2.4 8.7 7.85 6.1 4.95 9.6 7.2 4.95 3.2 6.4 2.05 1-.85-.15-4.3-1-2.85-4.15-7.05-2.95-3.95-6.25-7.05-1.7-1.65-.7-1.55 1 .15 2.6 1.55 3.4 3 10.2 7.25 8.55 5.35 14.4 7.2 5.8 1.85 6.45.75.65-.85-1.8-4.25-4.5-6.45-14.95-13.5-2.8-1.9-1.75-1.95 1.05 0 4.05 2.1l1.45.45 1.35.55q8.2 3.7 13.65 5.7 9 3.3 16.3 4.3l5.1.15q1.95-.25 2.45-1.2.85-1.65-2.1-4.75-2.4-2.55-7.1-5.75-5.05-3.45-9.3-5.25-4.6-1.95-3.5-2.3 1.1-.3 5.9 2.05l13.65 4.15q14.7 4.25 20 4.8 9.1.9 9.9-.8.5-1.4-3.75-4.95-3.7-3.2-12-8.2l-7.55-4.5q-4.35-1.25-4.85-2.05t3.6.45q12.45 3.8 26.95 5.45l20.05 1.15q11.3 0 11.95-2.2.5-1.9-6.95-6.45-7.55-4.6-20-8.85-10.95-3.7-21.7-5.85-4.75-.95-3.15-1.25 1.55-.35 6.75.8 13.45.95 29.25-.25 14.7-1.1 21.55-3.2 6.2-1.85 6.2-3.3 0-1.35-5.75-3.2-16.2-5.4-39.5-6.35-2.75-.15-2.2-.7.6-.55 3.3-.55 18.45 0 34.65-3.5 16.25-3.5 28.15-10.05 7.5-4.1 7.2-5.8-.25-1.65-8.75-3.3-7.65-1.5-21.7-1.4-16.3.1-28.75 2.55-6.25 1.55-6.8.9-.6-.6 6.05-1.95 14.65-3.7 27-8.3Q397.6 47.25 405 41.9"/><path fill="#0d131a" d="M190.45 32.45q-3 .6-6.6 6.75-3.3 5.6-7.5 16.75-.85 2.2-1.4 2.05-.5-.15.25-2.45 3.7-11.35 7.5-17.85 3.95-6.7 7.5-7.35 4.75-.9 13.55 11.65 9 12.9 10.55 23.8.45 3.35 0 3.85-.45.55-.9-2.8-1.4-9.9-10.55-22.8-8.75-12.25-12.4-11.6"/><path fill="#0d131a" d="m183.15 38.35-.2 1.25q-.3.95-.4.7-1.05-2.35-2.5-4.1-1.8-2.2-3.2-2.05-4.15.4-11.65 15.9-7.9 16.25-8.85 28.7-.45 6.05 2.4 8.55 3.95 3.55 14.65 1.55l2.65.15q.1.55-2.4 1.05-12.25 2.15-16.25-1.4-1.65-1.5-2.45-4.3t-.55-6.15q.95-11.95 9.25-28.9Q171.9 32.45 176.9 32q1.75-.15 3.5 1.8 1.55 1.7 2.75 4.55m28.8 48.45q-.05-.2.55-.3l.6.15q1.35 10.5-5.35 18.2-7.9 9.1-26.35 13.2-7.85 1.7-15.15 6.9-7.25 5.1-10.9 11.5-4.8 8.5-2 16.85 1.15 3.5.6 3.7t-1.7-3.3q-3.15-9.5 1.4-17.55 3.75-6.55 11.6-12.05 7.75-5.45 15.9-7.25 17.1-3.75 25.2-13.15 6.75-7.8 5.6-16.9m-58.3 94.75q3.15 7-1.05 13.6-.3.5-.8.2-.55-.35-.2-.85 3.6-5.65 1.3-11.6zm84.5-33.5q-.05-.25.55-.35t.65.15q1.15 7.45-2.65 20-3.65 12.1-7.95 16.7-.15.2-.5-.85t-.15-1.2q2.95-3.05 6.8-15.15 4.1-13 3.25-19.3M179.1 185.6q.55 5.7 3.4 10.95 2.75 5.1 7.05 8.7l.85 2.1q-5.15-3.7-8.5-9.45-3.45-5.95-4-12.5-.2-2.45.35-2.35.6.1.85 2.55"/><path fill="#0d131a" d="M228.25 177.7q0-4 .55-4.35t.6 3.45q.3 14-5.8 23.9-5.9 9.55-15.75 12.15v-.8q7.85-2.2 14.1-12.5 6.3-10.5 6.3-21.85m-60.8 12.65.4-.5q.45-.35.55-.25 1.95 2.05 6.35 4.75 4.95 3.1 8.35 4 .25.1.3.8.05.75-.2.65-4.1-1-9.25-4.35-4.2-2.75-6.5-5.1M334.65 76.2q1.85 2.4-2.8 7.85-2.95 3.65-10.05 7.9-13.95 8.5-36.25 13.7 8.7.4 17.55 2.5 9.05 2.2 9.3 5.2.2 2.9-7.4 5.35-5.35 1.75-16.35 2.7l-17.75.8q3.15 1.1 5.2 2.2 3.3 1.7 3.3 3.7 0 2.4-5.45 3.25-11.65 1.8-28.05-.1-15.4-1.8-19.2-4.65-.2-.15.15-.6.35-.5.55-.35 3.5 2.6 18.5 4.35 16.3 1.95 27.85.15 3.75-.55 4-2 .1-.6-.5-1.35-.65-.8-1.7-1.35-4.3-2.2-9.45-3.45-3.9-.35-5.35-1.05l5.55-.15q6.5.55 18.4-.4 13.2-1.05 19.65-3.15 6.25-2 6.1-3.95 0-.7-1.15-1.55-1.95-1.35-6.45-2.45-11.4-2.7-22.45-2.5-6.05.05 1.85-1.6 22.3-4.7 37.45-13.7 7.7-4.55 11.25-8.6 2.85-3.35 1.95-5.1-1.35-2.45-9.15-1.7l-11.1 1.35q-5.5.9-11.5 2.95-3.7 1.25-3.95.8-.25-.5 3.3-2.1 11.7-5.4 20.5-12.7 7.9-6.55 8.9-10.6.25-1.05-.15-1.5-1.5-1.75-6.95-1.05-15.35 1.95-43.15 17.65Q249.7 87.8 237 104.05v-2.35q13.1-16 41.75-32.15 26.85-15.15 43.4-17.7 5.6-.85 7.95.6 1.9 1.15 1.35 3.6-.9 3.7-7.6 9.6-7.35 6.55-17.7 12 8.3-2.25 17.7-3.1 8.9-.85 10.8 1.65m-167.7 37.25 3.1-3.85q.15-.2.6.15.45.4.35.6l-2.75 4.15-.25.2q-9.45 3.45-14.35 5.8-7.25 3.5-10.5 7-1.95 2.1-2.55 1.75-.55-.3-.15-2.7 2.85-16.7 16.55-24.9l2.95.4q-7.65 4.05-12.35 10.5-4.8 6.6-6.05 15 3-3.85 9.75-7.4 5.65-3 15.65-6.7"/><path fill="#0d131a" d="m165.85 123.75-1.9 1.95q-7.4 1.1-16.9-1.4-.25-.05-.15-.65t.35-.55q12.2 2.65 18.6.65m7.7-9.2q.1-.25.65 0l.5.45q-1.85 4.7-3.15 6.45l-2.85.8q1.55-1.15 2.6-2.85zm-53.5-67.05q-17.4-13.8-37.9-24.5Q62.05 12.55 42.9 7.4 23.65 2.2 8.7 3.3q-5.8.45-6.25 1.8-.45 1.3 4.5 5.35 5.75 4.75 25.1 13.8 17.7 8.3 28.5 12 9.5 3.25 10.8 4.45 1.3 1.15-8.15-2.2l-2.9-1.1q-16.45-2.95-35.65-.1-17.95 2.65-18.8 6.65-.55 2.35 2.6 5.2 5.9 5.3 23.95 9.35 17.45 3.95 33.2 3.95l4.85.45q-.05.45-4.9 1.15-12.25 1.7-23.4 4.45-11.05 2.65-15.05 4.85-3.75 2.05-3.6 3.3.1 1.15 3.3 2.4 6.55 2.45 19.3 2.3 9.85-.1 16.75-1.35l5.3-.2q.3.65-5.4 1.4-5.95.75-18.3 6.8-12.5 6.15-15.75 10.05-3.05 3.7-2.4 5.55.6 1.65 4.15 2.15 8.4 1.3 24.65-1.45 15.35-2.6 23.65-6.2 7.15-3.1 6.45-2.35l-5.95 3.4q-5.65 2.95-11.65 7.7-7.35 5.9-10.15 11-1.8 3.4-.6 5.5 1.7 2.95 8.55 3.25 9.75.35 19.25-3.45 8.1-3.2 20.9-11.55 2.5-1.6 1.25.2-1.25 1.85-3.65 3.35-6.3 3.95-10.9 11.15-4.35 6.75-2.8 8.6.8.85 4.1.05 2.6-.65 8.4-3.75 6.55-3.5 12.1-7.6 2.45-1.8 2.8-1.25.4.5-1.65 2.8-8.4 9.4-11.05 17-2.05 6.05-.25 7.45 1.6 1.2 5.7-1.6 4.4-2.9 7.65-5.7 4.55-3.75 8.85-8.7l.1-.1q1-2.6 2.1-3.45 1.05-.8 0 1.6-2.35 5.15-3.15 9.9-.8 4.3-.05 6.25.55 1.25 1.85.25l2.45-2.85 1.5-2.4.65-.05q.55.2.5.45l-1.9 3q-1.95 2.65-3.45 3.35l-1.7.2q-.55-.3-1-1.55-.6-1.55-.35-4.6.3-3.25 1.55-7.2-7.05 7.65-14.55 12.65-3 2-5.1 2.5l-2.7-.2q-1.15-.85-1.1-3.9.1-2.85 1.15-5.95 1.25-3.55 3.8-7.45 2.3-3.55 6.3-8.25-11.55 8.1-18.35 10.55-5.75 2-7.1-.3-1.2-2.05.15-5.45 2-5 9.2-12-16.25 9.7-28.75 10.35-10.15.5-12.9-4.35-4.95-8.55 18.9-23.7-12.8 4.1-24.55 5.8-12.15 1.8-20.15.55-4.2-.65-5.1-2.9-.9-2.4 2.6-6.75 3-3.55 11.8-8.2 8.4-4.45 17.35-7.45-16.65 1.75-26.6-.35-8.6-1.8-8.4-5.2.25-3.15 9.85-6.5 10.6-3.75 29.45-6.4-26.85-1.4-42.85-7.35Q3 50.75 3.35 44.2q.25-5.15 14.8-8 15.7-3.05 37.1-.7-15.2-6-28.7-12.35-16.25-7.6-21.45-11.9-5.75-4.7-4.95-6.9Q.9 2.05 8.8 1.5 23.85.4 43.55 5.7q19.55 5.25 39.8 15.85Q103.85 32.25 121 46q17.05 13.7 29.5 29.4l-.15.95q-.35.8-.5.6-12.3-15.5-29.8-29.45"/><path fill="#0d131a" d="M90.75 39.45q-1.6-.15-2.3.45-.45.35-.35 1.4.35 3.95 8.55 12.35 9.1 9.4 22.9 18.65 5.2 3.55-.3 1.2-6-2.95-15.1-4.6-9.5-1.7-12.95-.1-1.1.5-1.25 1.3-.3 1.6 1.45 3.8 3.85 4.9 13.8 10 10.4 5.25 18.2 5.75 2.4.15 2.2.6-.25.5-3.25.7-6.45.55-12.85 2.25-7.55 1.95-9.75 4.25-.75.75-.75 1.4.1.65.85 1.35 3 2.65 12.6 4.7 9.85 2.1 19.35 1.9 3.35-.05 2.85.65-.45.6-4 1.8-6 2.05-9.6 4.7-3.2 2.35-2.85 3.8.15.8 1.8 1.6 3.55 1.7 10.95 2.15l8.7-.45q.3-.15-.1.65t-.8.85q-3.55.65-9.65.1-6.7-.55-9.95-2.15-2.5-1.2-2.9-2.35-.4-1.1.95-2.55 1.85-2.05 4.05-3.45 3.5-2.25 9.6-4.15-9.6.05-19.05-1.8-9.85-1.95-13-4.75-1.7-1.5-1.5-2.7.1-.85 1.3-2.1 2.45-2.5 8.05-4.15 4.35-1.25 12.15-2.35-8.15-1.75-16.15-5.95Q94 79.7 90.1 74.6q-1.9-2.5-1.9-4.15-.05-1.8 2.15-2.8 3.1-1.4 10.7-.45 6.85.9 13.5 3.15-12.7-8.5-20.7-17.3-6.9-7.65-7.25-11.8-.2-2 .7-2.7.9-.65 3.25-.4Q99 39 117.2 52.95q18.5 14.2 29.55 28.7l-.1.9q-.2.75-.35.55-10.3-13.85-29.35-28.6-18.5-14.25-26.2-15.05M189.9 96.9q-.1-.2.35-.45l.6-.05q1.9 4 .6 7.55-1 2.85-3.6 4.5 4.45-1.9 7.25-8.05.55-1.1.75-1.15.25-.05.4 1.35.8 9.05-4.9 13.4-6.5 5.1-14.5 2.5-8.3-2.7-8-11.4.05-2.55 1.4-4.8l1.5-.15q-1.65 2.25-1.7 5v.35q0 3.15 1.8 5.8t4.65 3.65q3.3 1.15 7 .8 4.2-.4 7.15-2.7 4.35-3.35 4.5-10.05-2 3.5-4.8 5.4-2.75 1.95-5.9 2.05-2.6.1-4.75-1.15-2.2-1.2-3.35-3.4-.95-2-.95-3.95 0-1.05.35-2.45l1.35-.4q-1.15 3.4.35 6.2.7 1.4 1.9 2.3 1.5 1.05 3.6 1 1.85-.05 3.55-.95 2.75-1.45 3.8-4.2 1.25-3.1-.4-6.55"/><path fill="#0d131a" d="M191.8 95.35q1.85-.95 1.75-.35t-1.9 1.6q-9.8 5.7-14.35 9.45-.2.15-.7-.4-.5-.6-.3-.75 5.5-4.45 15.5-9.55m37.9-5.3q-4.5-4.7-9.75-5.65-.5-.1-.5-.6l.05-.1q.1-.6.7-.5 5.6 1.05 10.6 5.95 5.5 5.4 6.7 12.65 1.4 8.75-4 17.75-7.75 13-28.65 24.45-6.45 3.5-10.25 7.25-4.8 4.75-8.15 12.2l5.65 4 .6.7q0 .25-.9.35l-7.3.8 6.4 5.15.65.6q.2.4-1.05.45l-10.05.3q-6.15 10.5-13.8 16.1t-16.45 6.05q-1.75.1-1.4-.7.2-.45.85-1 3.15-2.25 5.4-6.4 2.3-4.2 2.3-7.8 0-4.35.55-3.85.5.5.5 4.85 0 3.55-2.1 7.35-2.05 3.65-5.25 6.25 16-1.35 27.65-20.75.55-.95.95-1.15l1.5-.15 7.75-.25-5.3-4.5-.9-1.05q.05-.45 1.65-.6l5.9-.65-4.25-3-.95-.8q-.15-.3.2-1.05 3.4-7.7 8.2-12.45 3.7-3.75 10.25-7.35 18.2-9.95 26.25-21.15 6-8.3 6-16.6l-.25-3.35q-1.05-6.7-6-11.75M151.6 200.8q-.2-.2.15-.65.3-.5.5-.3 2.1 1.95 8.15 2.45t8.65-1.1q.2-.15.5.45.3.65.1.75-4.15 1.8-9.9 1.25-5.7-.55-8.15-2.85"/><path fill="#0d131a" d="m170.7 197.7 2.8-.9 4.4-.3.55.55q.3.55.05.55l-4.4.3q-1.85.4-2.95.9-1.95.8-1.95 1.8 0 1.05 2.5 2l2.95.7 3.5.5q1.25.1 1.2.4l-.95.7q-2.9 1.55-4.85 3.3-1.9 1.7-1.9 2.65 0 1.1 3.4.55 3.75-.65 7.7-3l-.15.25q1.15-1.8 2-1.75.85 0-.5 1.7-.95 1.25-1.7 3.75-.65 2.25-.65 3.65l.1.7q.65.15 3.3-1.55 2.6-1.65 4-3.05l.85-.45q.2.15.2.9v.05l-.1 1.5q0 3.45 1.1 6.5 1.05 2.85 2.25 3.35l1.3-1.25 1.45-2.2-.3 2.6q-.9 1.3-1.75 1.85l-1 .2q-1.7-.6-3-3.95-1.25-3.35-1.25-7.15l.05-.15q-6.15 4.95-7.8 3.75-.5-.3-.55-1.1-.15-1 .2-2.8t1.05-3.45q-3.45 1.7-6.55 2.2l-4.1-.15q-1-.3-.75-1.7.25-1.15 1.85-2.75 1.6-1.65 3.95-3.1-3.3-.45-4.95-1.1-4.3-1.55-3.9-3.35.3-1.35 3.3-2.65m-19.05-2.75-.1-.25q-.8-1.45-1.7-1.6-.7 1.1-2.95 2-.4.15-.3-.55.15-.7.4-.8 1.55-.55 2-1.5l.45-.4q1.6-.15 2.9 1.85zm.5 2.2 1.2-.1q.1 2.15-1.2 3.5l-.1.25q-.1.15-.2.1-1.9-.25-4.3.6-2.9 1-3.9 3.05-.25-1.35-.1-1.65 1.25-1.75 3.65-2.6l4.1-.5q.85-1.05.85-2.55zm-21.75-24.6q1.2.15 2.15.65 1.7.85 2.65 2.3 1 1.5.85 2.9-.15 1.8 1.35 6.75 1.4 4.5 2.95 7.75 2.4-5.45 1.65-11.5-.4-2.9 1.95-5l.9-.7v1.5l-.1.1q-1.85 1.65-1.55 3.95 1 7.85-2.85 14.25-1.05 1.75-1.25 1-.25-.75.75-2.55-1.6-3.1-3.25-7.9-1.95-5.65-1.7-7.8.1-1-.75-2.15-.8-1.15-2.15-1.8-.65-.3-1.3-.5zm-11.25 23.2q-2.25.05-4.1-.75-1.95-.8-2.8-2.3-.45-.7-.55-2.1l1.45.45.25.6q.7 1.25 2.35 2 1.6.75 3.4.7 2.8-.05 5.9 1.35 2.4 1.15 4.55 2.9-.5-1.15.2-.7.7.5 1.7 2.15l1.85 4.25 1.85 4.9q.75 2.85-2.1 7.55-1.4 2.3-.65 4.75l.3.9-.6 1.25q-.65-.85-.85-1.8-.9-2.95.8-5.7 2.7-4.55 2.15-6.6l-3.2-8.3q-1.55-1.75-4.65-3.4-4-2.2-7.25-2.1"/><path fill="#0d131a" d="M153.35 177.95q.7 1.35.75 3.1 0 1.75-.6 3.2l-1.6 2.65q-3.35 5.45-4.6 7.9-2.9 5.55-3.45 9.25-.7 4.5-.7 8.75-.05 3.9.45 6.5.35 1.7-.15 3.25-.5 1.45-1.8 2.45t-3.05 1.25q.45-.55.55-1.35l1.75-.85q2.15-1.7 1.55-4.5-1.1-5.45.4-15.6 1-6.2 8.05-17.65l1.4-2.45q1.1-2.6-.15-5.15l-.45-.75.4-1.55zm-37.2 7.55q-.35-.4-1.15-.75 2.1-1.2 4.25-1.2 3.15.1 4.4 2.5.45.85 3 3 2.95 2.45 5.5 3.6L129 186.9q-1.8-2.85-2.75-3.5-2.25-1.7-2.4-4.65-.05-1.15.35-2.4l.85 2v.35q.1 2.35 1.95 3.7 1.55 1.2 4.4 6.25 2.8 5.05 3.8 8.3.5 1.65-.05 1.95-.55.25-1-1.35l-1.4-3.55q-3-1-6.5-3.8-3.05-2.45-3.65-3.6-.95-1.7-3.35-1.85-1.65 0-3.1.75m60.35 26.2q.3-.3 1.25-.45l.8.05-5.35 4.95q-4.15 3.5-6 4.45l-.5-.4q-.25-.55-.05-.65l4.75-3.45zm14.4 9.85q.25-.6.6.1.4.7.15 1.3l-1.6 3.35-1.5 2.85-.75.1q-.65-.1-.5-.3zm-4.75-2.3q1.6-2.45 1.7-1.7.1.7-1.5 3.05-3.05 4.4-7.35 7.85-.2.15-.55-.3-.4-.5-.2-.65 5.15-4.15 7.9-8.25m-53.1-89q3.8-8.8 11.05-14.15.15-.1.15.45l.1.75q.35.5-.1.85-6.6 4.9-9.95 13.8-3.75 9.85-1.2 19.45 1 4.05 3.8 8.3l.5 1-.85.85-1.9 1.7 3.8.8 2.05.55q.25.25-.7 1.05l-3.15 2.7 8.25 1.4q.25 0 .2.6 0 .6-.25.6l-.5-.05-9.15-1.6q-.9-.15-.9-.4l.6-.6 3.5-3.05-5.2-1.1-.85-.35.6-.7 2.95-2.55q-3.25-4.3-4.55-9.15-2.85-10.7 1.7-21.15"/><path fill="#0d131a" d="m145.55 168.2.45 4.45-.25 3.9.1.75q.2.7.9 1.2.75.5 1.6.5 1.95 0 2.85-1.7l.25-1.3q0-1.65-.8-3.3-1.7-3.8-5-4.55h-.1zm-1.2.25q-.2-1.1.15-1.4l1.4-.05q3.85.95 5.85 5.2 1.05 2.3 1.05 3.75 0 1.2-.35 1.9-1.25 2.25-4.1 2.35-1.3 0-2.35-.75-1.05-.8-1.3-1.9-.15-.65-.05-2l.1-.8q.2-3.5-.4-6.3m-22.85.65.2.45.35.6 2.85 5.4.2.6q.85 2 1.25 2.3.8.55 1.85.4.95-.2 1.65-.85.9-.75.9-2.2l-.25-1.6q-.25-.85-3.05-2.6-3.1-1.95-5.8-2.45zm-.8 1.05q-.85-1.5-.75-1.95.2-.55 1.9-.25 2.95.55 6.25 2.6 3.15 2 3.55 3.35.9 3.2-.95 5-1 .95-2.35 1.15-1.5.2-2.65-.6-.75-.55-1.7-2.85l-2.95-5.85zm-6.9 20.9q1.3.3 2.2-.3l1.05-1.45.1-.7q0-1.3-1.5-2.5-1.2-.95-4.35-.75-3.5.2-5.8 2zm-8.6-2.5q-1.15-.4-1.3-.85-.15-.5.85-1.25 2.6-2.05 6.45-2.3 3.55-.25 5.2 1.05 2.55 2 1.75 4.45-.4 1.35-1.55 2.1-1.35.85-3.1.45l-.15-.05q-5.75-2.85-8.15-3.6m33.2 32.95q-.65-.75-1.55-1.15l-1.7-.25q-.95.2-1.25 1.3-.45 1.8-1.5 4.1-1 2.25-2.15 3.9 2.95.3 5.5-1.4 2.25-1.45 3.1-3.45.75-1.6-.45-3.05m-3.5-2.55 2.35.25q1.25.5 2.1 1.55 1.6 2 .6 4.25-1.1 2.55-3.95 4.25-3.3 2-6.95 1.2l-.75-.25.4-.7 2.25-3.75q1.25-2.55 1.8-4.65.45-1.75 2.15-2.15"/><path fill="#0d131a" d="M133.65 229.85q3.15.5 6.65 1.95-1.15-2.75-1.6-6.25l1.1-.45q.3 2.3.95 4.5.7 2.2 1.4 3.25t.55 1.35q-.1.4-1.4-.55-1.1-.8-4.05-1.7-2.45-.75-3.8-.95l-1.85-.05q-.2.2.25 1.4 1.15 3 3.5 5.7l.4.8q0 .35-.95.2l-3.1-.25-3.15.1q-2 .3-2.1.95l.2.5q.45.55 1.6 1.2l3.15 1.6q2.5 1.2 3.9 1.6 1.05.3 1.15.55.1.3-1.15.6-2.3.6-6.05 3.55-3.75 2.9-3.6 3.9.15 1.1 3.45 1.9l9.1.7h1q.35.2-.55 1.05-2.1 2.1-4.3 5.1-2 2.8-2.35 3.85l3.55-.15q3.2-.55 6.15-2.05.8-.4 1-.25.3.15-.2 1.1-.8 1.5-.6 6.75.2 5.1.9 5.65.7.4 3.35-1.7 3-2.3 6.25-6.15.45-.6.8-.7.5-.2.25 1.2-.25 1 .3 4.1.6 3.2 1.2 3.4.65.2 2.3-1.7 1.7-1.95 2.85-4.35l.6-1.15q.4-.3.55 1.35.2 2.1 1.55 5.05 1.5 3.25 3.15 4.55.85.7 1.6.55 1.3-.2 2.45-2.8 1.45-3.25 1.85-8.75.1-1.35.35-1.35t.8 1.15l1.85 2.25q1.95 2 3.7 3.25 1.15.8 1.4.7.25 0 .3-1.4.25-4.3-.4-8.5-.15-.95.25-.95l.65.35q3.75 2.45 8.1 3.75 3.8 1.15 4.5.6.65-.55 0-2.5-1.15-3.45-6.25-9.9l-.3-.7q.05-.3.8-.3l4.05-.5q2.35-.6 2.4-1.15 0-.75-2.55-2.7-2.3-1.8-4.65-3.05l-.85-.6q0-.3 1.05-.5 1.65-.3 5.75-2.55-.15.45.05 1.35l-4.2 1.95q6.6 4 6.6 6.1-.05 2.2-6.5 2.8 6.15 7.95 6.15 11.35 0 1.5-.7 2.05-1.1.9-5.2-.35-3.95-1.2-7.8-3.5l.3 5.3-.05 2.2q-.1 2.05-.95 2.4-.95.45-2.65-.75-2.75-1.95-4.95-4.65-.6 4.95-1.85 7.95-1.35 3.15-3.15 3.4-1.1.2-2.7-1.05-1.5-1.2-2.95-3.9-1.3-2.45-1.85-4.85l-2.75 3.7q-1.85 1.85-3.05 1.5-1.05-.35-1.75-2.7-.6-1.95-.75-4.2l-5.3 5.05q-3.2 2.4-4.6 1.6-.75-.45-1.2-2.7-.35-2-.35-4.75 0-3.15.4-5.25-3.1 1.35-6.35 1.8-2.5.35-3.3.05-.7-.2-.7-.95v-.05q0-.95 2-3.85 1.9-2.75 4.1-5.2-5.25 0-8.95-1-3.4-.9-3.7-2.1-.4-1.6 2.1-3.9 2.5-2.35 7.3-4.75-3.05-1.15-5.9-2.8-2.65-1.55-2.7-2.85-.1-1.45 3.4-2.05 1.45-.2 5.2 0-1.9-2.55-2.85-4.95-.75-2.05-.6-2.4.3-1.05 3.55-.5m9.3-8.4-.25-.15v-1.45l.15.05 4.85 3.55-.1-1.6q0-2.15.5-3.85.55-1.8 1.45-2.2.55-.25 1.3.2 1.3.65 3.15 2.65 1.8 2.05 2.9 4.05 1.15-4.1 2.7-6.55 2-3.2 3.25-3.1 1.05.1 2.95 3.1 1.8 2.8 2.5 8.75 2.2-2.55 5-4.55 3.4-2.45 4.8-1.75 1.4.75 1.4 4.55 0 2.9-.7 5.45l6.1-.45q3.75.1 5.6.75 1 .35 1.25.65.2.25.2 1.05 0 1.35-1.15 3.4-1.15 2.1-2.8 3.6l5.1.75-.5 1.1-6.2-.75q-1.05-.05-1.05-.4 0-.25.75-.7 1.85-1.15 3.35-3.65 1.3-2.15 1.3-3.3v-.25q-.5-.8-5.55-1-5.2-.25-7.05.7-1.15.6-1.2.25l.4-1.05q.8-1.85.95-5.5.1-3.7-.75-4.15-.9-.45-4.2 2.1-3.3 2.5-4.4 4.4-.7 1.15-1.2 1.15-.4 0-.5-.75-.55-6.75-2.45-9.75-1.2-1.9-2.1-1.9-.95 0-2.1 1.9-.85 1.35-1.75 3.75-.95 2.55-1.15 4.2-.2 1.6-.75.95-.4-.55-.7-1.65-.6-2.15-3.05-4.7-2.3-2.4-3.2-2.4-.45.2-.8 1.65-.4 1.45-.4 3.25l.2 2.55.15 1.35q-.1.75-1.05-.4zm42.3-121.15.85-.55q.75 1.15.55 2.45t-1.35 2.05q-1.1.75-2.45.4-1.3-.35-2.05-1.45l.85-.55q.5.8 1.35 1t1.65-.35q.7-.5.9-1.35.2-.9-.3-1.65"/><path fill="#fff" d="M229.85 202.15q2.4.25 3.9 1.15l.05.7-2.6 1.7q-3.95 2.65-4.65 2.8-.75.05-1.55-.6-.75-.6-1.15-1.5-.65-1.7.65-2.75 2.05-1.85 5.35-1.5M189.4 192.1q.55.75.7 1.7.2 1-.25 1.8-.55 1.05-2.1 1.2-1.55.1-2.1-1.05l-.05-.2q-.5-2.5-3.4-6.1l.35-.65q1.95.15 3.8 1 2 .9 3.05 2.3"/><path fill="#595757" d="m194.7 197.9.85 4.8q1.3 5.6 3.95 7.2 3.4 1.95 5.35-15.3l.2-2q.4-1.4 1.7-1.75h.15l.75 1.3.6 1.35q.95.9 2.65.75l2.85-.65q1.5-.4 1.2 1.5-.25 1.55-.95 2.5-1.8 2.45-4.3 7.95-2.75 6.1-1.85 7 1.85 1.75 11.75-7.55 2.85-2.85 4.35-2.5-.55 2.2-.55 2.8.05 1.55 1.4 2.75.65.55 1.55.6.9 0 2.7-.6.25 2-.85 3.4l-1.9 1.65q-1.55 1.05-4.3 1.75l-4.5 1.15q-9.85 2.9-14.1 10.8-.85 1.6-1.35 3.9l-.65 4.05-.3 2.9q-.35 2.35-1.15 2.15-.3-.1-.5-.75l-.25-.95q-.55-1.35-1.95-1.8-1.7-.5-3 .35l-1.05 1.05q-.7.7-1.25.6-1-1.75.15-4.35l2.25-4q2.95-5.5 1.4-12.35-1.35-5.8-5.5-11.35l-2.35-2.75-2.55-2.6q-.75-.7-1.15-2.55-.5-2.15.6-3.15 2.2 2.6 4.1 1.8 1.2-.5 1.6-1.95.35-1.1.1-2.5 1.6-.3 2.8 1 .65.65 1.3 4.35"/><path fill="#fff" d="m214.3 182.35.2 3.5q0 4.65-.85 7.05l-.05.1q-.5.65-1.75.9l-2.35-.1q-1.7-.65-1.7-2.7v-.6q.15-1.05 2.45-4.25 2.05-2.85 3.35-4.15zm-17.2 54.35q2 .65 2 2.8 0 1.25-2 4.7-1.9 3.35-2.9 4.15l-.6-.15q-.8-1.85-.8-7.1 0-2.7.4-2.95.85-1.15 2-1.5z"/><path fill="#3e3a39" d="M207.85 212.55q1.05.9 4.35-1.25.4 3.55 1.75 6-6.3 2.8-9.65 8.05-3.55-2.4-7.6-1.2l-.6.25q.6-4.5-1.2-9.55-1.55-4.4-4.65-8.6l-.3-.4q1.7.05 3.2-.7 1.55-.75 2.45-2.2 1.4 5.5 3.9 6.95 2.05 1.25 3.6-4.85 3.55 1.15 6.95-.3-3.2 6.85-2.2 7.8"/><path fill="#0d131a" d="m194 197.2-.4-2.1q-.3-1.15-1.8-1.8l-1.3-.35-.7-1.25 2.45.5q2.1.85 2.5 2.6l.45 2.2q1.85 10.45 4.25 12.15.6.45 1.3.3.85-.5 2-5.45 1.25-5.2 1.3-9.45 0-2.85 2.3-4.45.7-.5 1.45-.7l-.3 1.4-.5.3q-1.75 1.2-1.75 3.5-.05 4.05-1.3 9.5-1.4 6.25-2.95 6.55-1.15.2-2.25-.5-1.75-1.25-3-5.2-.85-2.6-1.75-7.75m-10.6-.55q.3-1.6 1.35-2.85l.5 1.3q-.5.8-.65 1.7l-.05.55q0 1.85 1.45 3.3 9.95 10.35 10.35 18.7l.05 2.25q0 3.9-.85 6.55-.5 1.6-1.8 3.75-1.25 2.2-1.55 3.3l-.15.95q0 1.05.55 2.05l-.5 1.4q-1.7-2.2-1.05-4.7.4-1.4 1.65-3.6 1.4-2.3 1.9-4.1.8-3 .55-7.8-.35-7.55-10.2-17.7-1.9-2-1.55-5.05m29.8.95q1.45-1.9.85-3.85l-.45-1 .6-1.3 1 1.95.2 1.5q0 1.75-1.25 3.4-1.15 1.6-3.45 6.8-2.4 5.45-2.4 6.85v.15q2 .5 10.75-7.7l1.1-1q2.3-2.15 5-1.15l.4.15q-.85.25-1.1.9-1.85-.55-3.5.95l-1.1 1-7 6.05q-3.5 2.55-5.1 1.9l-.6-.65q-.4-1.55 2.4-7.85 2.5-5.65 3.65-7.1m16.25 9.5.25 1.1q.4 3.45-2.1 5.1-1.65 1.1-3.75 1.85l-3.9 1.05q-4.4 1.1-6.55 2.15-3.85 1.85-7 5.55-2.4 2.8-3.35 5.9-.6 1.85-.85 4.95l-.2 2.2-.35 1.9q-1.1 3-3.25 3.35.95-1.2.75-2 .7-.65 1.3-2.2.35-1 .55-3.35.3-3.35.9-5.25 1.05-3.35 3.6-6.3 3.3-3.85 7.3-5.8 2.25-1.15 6.65-2.25 4.85-1.15 7.25-2.75 1.9-1.3 1.65-3.9l-.1-.55z"/><path fill="#0d131a" d="M186.9 190.6q-2.15-1.25-4.35-1.4 3.05 3.9 3.45 6.3 1.1 1.45 2.55.8 1.25-.6 1.25-1.95v-.4q-.5-1.95-2.9-3.35m-6.5-2.2q-.05-.3.85-.45 2.5-.25 5.65 1.25 3.6 1.75 4.3 4.55.2 1.15-.45 2.15-.6 1-1.7 1.5l-2 .2q-1.2-.25-2.05-1.4l-.15-.3q-.3-2.4-4-6.95zm29.25 5.05 2.15.05q1.1-.25 1.45-.75.85-2.15.85-6.9l-.2-3.45q-1.3 1.25-3.35 4.15-2.25 3.05-2.35 4v.55q0 1.85 1.45 2.35m4.1-12.5.7-.1q1.05.45.95 5.55-.05 4.95-.85 7.05l-.1.1q-.6.9-2.25 1.2l-2.95-.2q-2.25-.75-2.25-3.45v-.7q.2-1.4 3-5.2 2.7-3.6 3.75-4.25m11.5 26.65q.65.55 1.3.5.55-.1 4.45-2.75l2.6-1.7q-1.7-.9-3.8-1.1-3.2-.25-5.05 1.4-1 .85-.5 2.3.3.8 1 1.35m9.2-4.95 1.05 1q.05.4-1.25 1.1l-2.6 1.6q-4.25 2.9-5.05 2.95-1 .1-2-.7-1-.75-1.5-1.9-.4-1.05-.2-2.1.2-1.1 1-1.75 2.45-2.15 6.1-1.7 2.9.3 4.45 1.5m-40.95 35.7q-.3.45-.3 2.75l.2 4q.25 2.15.55 2.9 1-.75 2.85-4 1.9-3.35 1.9-4.5 0-1.9-1.7-2.45-2.05-.6-3.5 1.3m5.7-1.05q.7.95.7 2.2 0 1.3-1.95 4.75-1.85 3.2-3.2 4.65-.85.85-1.35.45-.4-.3-.75-1.55-.55-2.15-.65-5.5-.15-3.75.55-4.65.9-1.2 2.2-1.65l2.6-.05q1.15.4 1.85 1.35"/></svg>