<svg xmlns="http://www.w3.org/2000/svg" width="196" height="233" viewBox="-0.1 -0.9 195.95 232.7"><path fill="#72a6be" d="M89.1 73.1q8-5.7 13.7-13.1 2.6-3.35 4.95-2.85 1.85.45 3.25 3.1 4.1 7.9 2.1 22.45-1.95 14.4-8.55 26.2-6.85 12.2-16.7 20.2-8.55 6.9-16.2 8.45-2.15.45-3.1 1.55-.85 1-1.3 3.15 2.65-2.35 3.45-.45.6 1.45 0 4.85 2.4-1.55 2.6 1.3.1 2.7-1.8 6.45 3.05.25.5 6.5 2.95 7.05 10.35 13.65 3.8 3.4 12.55 9.4 11.65 7.95 14.1 17l2.2-.1q1.05.15 1.45.75 1.2 1.7-2.75 6.55 1.3 1.8-.25 4.35-1.3 2.15-4.1 4.1-2.15 3.35-6.15 5.55-3.5 1.9-7.2 2.35-1.3-3.4-6.6-3.75-4.2-.3-5.9 2.05-3.25.15-7.95-1.4-1.25 2.15-2.7 3.85 0-3.7-4.05-5.5-1.45-.65-2.75 0-1.2.55-1.6 1.8-2.9-4.3-6.5-2.45 1.2-4.2.05-10.7-.65-3.85-2.5-9.65-3.05-3.65-3.8-7.7-.45-2.05-.2-3.65.35-2.1 1.9-2.5-.1-9.2 2.45-18.65-1.65-3.95-2.05-8.7-.35-4.55.75-5.25.6-.4 1.15-.25.8.25 1.85 1.65-.7-4.2-.25-7.05.35-2.15 1.15-2.7.6-.4 1.7.7l1.65 2.2q.75-4.05.3-7.75-14.65 0-24.95-12.2Q24 115.75 21 98.3q-2.4-14.05.55-27 1.8-8 5.05-13.7 1.85-3.3 4.15-5.45 2.55-2.45 4.55-2.3 1.8.15 4.15 5.1l4.7 11.5Q50.1 81.05 64.3 81.6q12.2.5 24.8-8.5"/><path fill="#fff" d="M187.25 11.4q1.85-.9 3.55-1.1 1.95-.2 2.6.7 2.35 3.05-2.5 9.85 2.35.75 1.95 3.55-.4 3.05-3.9 6.1 1.8.1 3.05.75 1.3.65 1.6 1.6.65 2.4-3.4 6.25-4.25 3.9-9.55 5.45.85 2.6-.95 4.3-2.05 1.95-6.65 1.55-.45 1.2-1.4 2.2-1.2 1.2-2.7 1.45-2.1 1.55-3.95 1.3-2.45-.35-3.1-4.05l-2.8 1.5-1.9-.05q-.75-.55-.95-1.5-.2-.8-.1-2.5.15-3.4-1.55-6.65-1.05-1.95-1.15-4.75-.15-3.05 1-5 .8-1.35 1.75-1.9 1.15-.65 2.2.15-.25-4.9 2.15-10.4 2.25-5.05 3.8-5.05 1.1 0 1.6 2.05 4.15-8.5 8.8-4.9 1.65-6.4 6.55-9.6 4.45-2.9 6.6-1.05 2.8 2.45-.65 9.75M63 219.3q1.1-.2 2.45.45 1.75.85 2.9 2.75 2 3.25-1.35 6.75-1 1.05-2.3 1.45l-2-.2-1.55.05q-.9-.15-1.3-.5H58.7l-.95-.4-1.4.2-1.4-.35-1.75.1q-.9-.3-1.2-1-1-.1-1.35-1-.3-.75-.05-1.9l1.2-2.25 1.45-2.6q.6-1.85 2.6-2.25 2.8-.65 4.8 2.95.6-1.8 2.35-2.25"/><path fill="#dbdcdc" d="M58.3 225.1q-.4-1.2-1.8-2l-4.4-.15 1.15-2.1q.6-1.85 2.6-2.25 1.25-.3 2.45.3 1.45.7 2.4 2.5.25.25-.45 1.2z"/><path fill="#fff" d="M85.8 220.7q2.05.1 3.9 1 2.45 1.2 2.5 3.25.05 2.1-2.45 2.9-2.2.7-3.65 0-1.15.75-2.5.7-1.2-.05-1.75-.65-3.5.1-2.75-3.75.75-3.6 6.7-3.45M41.45 120.25q5.25-2 11.25-1.25 5.15.65 10.25 3.25-1.25 3.8.2 5.75.85 1.1 3.45 1.8l4.3.6q0 4.7-4.7 6.95-4.05 1.9-10.4 1.55-11.15-.5-18.4-7.7-.9-2.7-.65-4.75 3.4.6 4.8-.8.6-.6.45-2zM35.9 69.5q-1.15-2.55-2.45-4-1.5-1.65-2.8-1.35-2.3.5-4.1 7.1-1.05-.3-2.25-1.6l-1.65-2.15q2-7.35 5.8-12.6 3.75-5.15 6.85-5.05 2 .1 4.3 5.2l3.1 8.5q-2.25 2.8-6.8 5.95m65.8-8.4q1.55-1.9 2.8-2.75 1.3-.85 2.9-.9 3.65-.1 5.2 7.65 1.1 5.45.95 12.25-1.65 1.9-4.4 3.1-2.4 1-3.8.8.1-2.95-.2-4.4-.35-1.65-1.45-2.4t-2.8-.35q-1.3.3-3.4 1.45-.65-1.1-1.4-3.35l-.95-3.85q3.25-3.1 6.55-7.25"/><path fill="#f09cb4" d="M25.15 78.9q2-14 5.5-14.75 3-.65 7.25 9.25 3.45 8.05 5.05 15.4-4.2 2.65-8.15 7.15-2.75 3.15-5.9 7.9-1.1 1.7-2.1 1.1-.8-.5-1.25-2.25-2.4-9.55-.4-23.8m63.6 4.15q5.55-5.05 9.5-7.75 3.55-2.35 5.5-1.1 1.65 1.1 1.65 4.3-.15 12.05-3.95 22.6-3.45 9.55-9.25 16.2-1.45 1.65-2.55 1.65-1.3 0-1.85-2.55-1.1-4.85-3.85-11.1-2-4.55-3.85-7.65-1.2-2-.95-3.4.2-1 1.55-2.8 2.25-3.1 8.05-8.4"/><path fill="#72a6be" d="M166.05 84.8q6.75 7.2 6.5 16.7-.25 9.15-6.8 18.3 3.45 6.65 2.45 12.5-.9 5.2-5.75 11.6-3.7 4.85-15.95 12.65-14.55 8.85-21 13.3-8.55 5.9-13.3 13-4.3 6.3-5.35 13.1-2.95-4.45-5.3-6.6 2.4-13.3 18.65-24.65 1.4-.95 15.1-9.15 11.75-7.05 15.95-10.6 4.9-4.15 7.25-9.25 2.35-5.25.95-9.25-9.9 8.9-24.8 14.2-12.2 4.4-23.05 5-14.6.9-16.7-11.3-.7-4.3 3.55-10.2 4.2-5.85 10.55-9.8-3.5-.65-6.4-2.15l4.15-7.85q9.6 5.9 25.7-1.8Q145 96.6 154.85 86.6q-10.45-4.45-24.2-1.65-11.4 2.3-19.7 7.95l1.1-4.35.95-4.65q2.5-1.5 8.9-4.25l-8.4-.5q.55-4.15.2-7.5 11.9 2.45 24.1-3.35 10.5-5 19.7-15.4l2.3-.2 2.1-1.4q.05 1.45.9 2.6.6.8 1.4 1.2-4.3 6.05-13 12.15-9.1 6.4-19.75 10.5 7.65-.95 16.35.25 7.75 1.05 12 3.1 5.2-6 7.15-13.95 1.5-6.35.7-12.2l1.3-.9q1.6-.25 2.65-1.4l1.45-2.25.9.15q3.3 10.3.15 20-2.2 6.8-8.05 14.25M152.3 98.55q-6.7 5.45-12.5 8.25 6 .65 9.55 1.6 6.35 1.65 10.85 5.15 3.9-5.15 4.25-11.05.4-6.4-3.6-11.85-3.9 4.05-8.55 7.9m-9.6 17.05q-7.6-.75-16.2 1.35-9.75 2.4-16.4 6.75-7.65 5.05-6.5 10.05 1.05 4.65 10.6 4.15 8.25-.45 17.4-3.95 6.2-2.35 12.4-5.95 7.1-4.15 10.85-8.2-4.6-3.4-12.15-4.2m13.35-68.45q-9.45-2.55-23.75 1.25-14.25 3.8-21.85 10.8-.6-.9-1.6-1.4-.85-.4-1.45-.35-1.6.05-3.35 1.4-1.5 1.2-3.65 3.8 1.5-10.95 20.25-18.25 17.7-6.9 33.2-4.65.1.9 1.25 3.6 1.05 2.4.95 3.8"/><path fill="#d0879d" d="M38.45 75.2q-4.9 2.3-7.55 8.5-3.25 7.85-1.1 18.95-3.55 4.95-4.7-.4-1.85-8.8-.05-22.6 1.85-14.1 5.4-15.4 3.65-1.35 8 10.95m51.35 6.95q5.5-4.95 9.05-7.35 2.75-1.85 4.65-.65 1.75 1.15 1.75 3.95 0 9.3-1.6 16.3-5.2-3.5-11.15-2.55-6.15 1-11.9 6.65-1.6-2.4-1.45-3.95.1-1.2 1.55-3.1 2.9-3.8 9.1-9.3"/><path fill="#5c899d" d="M70.85 137.65q-3 .95-3.7 4.4-.45 2.65-.45 7.85 0 3-3.2 2.95-3.2-.1-5.95-3.2 1.4-5.85.65-10.65 2.7 0 5.6-.8 3.5-1 5.45-2.75 3.85-.75 7.95-2.2 4.2-1.5 11-4.5-5.75 5.6-17.35 8.9M53.8 206.3q-.75-4.05-2.7-10.6 2.35 3.85 5.25 5.7 2.5 1.65 6.75 2.6-.6 12.75-1.5 15.6l-.9 1.9q-1.05-1.8-2.9-2.5-2-.8-3.55.4.75-6.1-.45-13.1m58.75-4.9q1.45 1.7-2.65 6.75.8 2.1 0 3.8-.9 2.1-4.45 4.8-1.85 2.65-5.2 4.75-3.65 2.3-8.05 3.2-.65-2.1-2.5-3-1.15-.6-3.4-.85l-3.6.1q-2.15.45-3.1 1.85-5.4-.3-7.85-1.5l2.65-6.2q1.4-3.95 1.85-6.7l2.55-2.65q8.55 2.45 16.6.3 9.4-2.5 11.45-10.4 1.45 2.6 2.2 5.3 2.45-.85 3.5.45m1.65-31.75q-1.05 1.85.5 4.05 1.7 2.3 4.35 1.5-10.7 10.95-12.2 20.45-1.3-1.85-5.3-6.25 1.1-5.4 5.15-11.3 3.5-5.2 7.5-8.45m51.35-49.95q1.65 2.25 2.45 6.3.7 3.3.6 6-1.85-1.45-4.75-.8-3 .65-4.65 3.1 1.35-3.1.35-7.85 2.5-2.25 6-6.75m-5.25-6.15q-2.65 3.6-5.45 6.25-3.5-3.1-11.15-4-9.3-1.05-20.5 2-10.85 3-16 8.1-3.85 3.75-3.6 7.1.25 4.15 8.15 5-1.9 0-3.45 2.95-1.5 2.85-.7 4.45-4.4-.2-7.75-2.45-2.65-1.8-3.7-3.95-3.1-6.6 1.8-14.15 3.9-5.95 11.1-10.5 7.15 1.3 16.9-1.55 7.7-2.25 13.3-5.75 5.35-.35 11.85 1.9 5.3 1.85 9.2 4.6"/><path fill="#5c899d" d="M127.7 112.05q-14.4 5.1-25.1.3 3.35-5.75 4.05-7.85 3.55 2.25 9 2.3 4.65.1 9-1.3-1.1 5.6 3.05 6.55M165.95 85q1.55 1.55 3.05 4 1.7 2.8 2.55 5.5-2.15-.65-4.25.5-2 1.1-3.1 3.4-.85-3.75-3.25-7.5zm-55.3 8.5q1-2.95 2.3-9.6 4.1-2.4 8.4-4.05l4.85-.8q2.75-.65 4.1-1.25 6.55-.9 14.6-.2 9 .8 14.85 3.35-2.65 3.8-4.7 5.7-9.55-4.5-24.05-1.7-13.05 2.55-20.35 8.55m62.4-43.1.75.15q2.55 5.95 1.75 12.65-.45 4.05-2.6 9.9-.9-2.25-3.35-2.6-2.4-.35-4.3 1.4 1.7-2.75 2.4-8 .75-5.4-.2-8.9l1.65-1q3-.25 3.9-3.6m-25.5-11.2 6.3.65 1.35 3.45q1 2.5.75 3.95-2.45-1.15-6.55-1.25l-8.1.4q2.7-1 4.55-3.35 1.7-2.1 1.7-3.85"/><path fill="#dbdcdc" d="M180 48.6q-1.85 1.95-6.95 1.8-.45 1.3-1.35 2.2-1.1 1.25-2.55 1.4-2.15 1.4-4 1.3-2.7-.15-3.15-3.95l-2.65 1.55-1.95.15q-1.15-.8-1.2-4-.1-3.75-.6-4.75 1.2 1.7 3.55 2.45l4.3-.15q1.7 2 6.1.95 4.45-1.15 5.05-3.9 5.75-.6 10.6-4.6 5.15-4.25 2.25-7.4l1.7-1.15q2.2.35 3.25.9.85.5 1.15 1.3.7 1.95-2.9 5.7-4.05 4.3-10 6.15.85 2.45-.65 4.05M81.85 221.2l4.65-.4q2.65.15 4.25 1.55 1.35 1.2 1.45 2.55.2 2.4-3.2 3.2.05-1.65-1.25-2.7-1.2-.95-2.1-.55-.2-1-1.6-1.2-1.25-.2-2.1.35-.5-1.35-2.5-.3.6-1.85 2.4-2.5"/><path fill="#0d131a" d="m49.8 130.4-.6.7q-.6.5-.9.45-.65-.1-1.35-.95-.65-.8-.45-1l1.75.15q1.55.35 1.55.65m2.75 4.1q4 1.65 5.65-.75.5-.7.8-.55.25.15-.15.95-.85 1.65-3.2 1.8-1.85.15-3.5-.55-1.75-.75-3-.5-2.2.45-3.7-1.2-.5-.55-.3-.85.2-.25.75.25.8.75 1.65.9l1.45-.1q1.4-.3 3.55.6m106.05-7.55 1.4-1.15q2.8 9.05-6.25 17.7-5.4 5.2-20.05 13.7-13.6 7.9-19.6 13.25-9.9 8.8-12 19.5l-1.35-1.2q2.4-11 12.45-19.75 5.7-5 19.75-13.1 13.75-8 19.35-13.3 8.6-8.1 6.3-15.65"/><path fill="#0d131a" d="M112.05 85.25q2.2-12.75-.45-21.65-1.55-5-3.95-5.45-2.45-.45-6.1 4.15-6 7.75-14.65 13.05-10.2 6.3-20.8 6.8-10.8.55-17.2-6.45-4.35-4.8-8.25-15.75l-2.75-6.7q-1.35-2.5-2.65-2.55-1.65-.1-3.55 1.55-2 1.7-3.95 5-3.4 5.7-5.3 13.5-1.9 7.85-1.9 16.5 0 16.5 8.15 31.6 10.5 19.55 29 19.55 6.5 0 9.8-2.6 2.9-2.25 2.55-5.5l1.2-.15q.55 3.8-2.95 6.55-3.85 3.05-10.65 3.05-19.45 0-30.25-20.1-8.2-15.3-8.2-32.4 0-8.9 1.8-16.9 1.85-8.25 5.3-13.95 2.1-3.5 4.7-5.65 2.5-2.1 4.4-2.05 1.95.15 3.65 3.1 1.1 1.95 3.05 7.4 4.1 11.6 8.95 16.4 5.75 5.75 15.15 5.3 10.35-.5 20.2-6.7 8.2-5.15 14.15-12.9 4.3-5.45 7.45-5.05 3.2.4 5.15 6.6 2.85 9.3.45 22.5-2.35 12.95-8.75 24.55-5.25 9.45-12.4 16.3-9.45 9-21 12.15-1.65.5-2.5 1.2-.95.8-1.2 2.15-.9 5.75-.35 10.35.2 1.25-.3 1.3-.45.1-.65-1.15-.8-4.8.15-11.15.4-2.9 4.4-4 20.25-5.55 32.55-27.75 6.25-11.3 8.5-24.05"/><path fill="#0d131a" d="M23.75 85.8q.75-11 3.4-18.65 1.3-3.7 3.65-3.9 2.15-.15 3.95 2.55 2.65 4 5.15 10.15T43.75 88l1.7-.8 1.55-.15q.2.45-1.15 1.1-4.85 2.5-8.5 6.2-3.65 3.75-7.7 10.35-1.1 1.75-2.55 1.65-1.6-.1-2.3-2.7-1.85-6.55-1.05-17.85m9.95-19.2q-1.3-2.1-2.9-1.8-1.65.35-2.65 3.15-2.55 7.3-3.05 17.85-.55 10.5 1.25 17 .35 1.2.95 1.4t1.15-.65q4.15-6.75 8-10.5 2.6-2.45 5.7-4.2-2.75-12.8-8.45-22.25m71 11.3q0-2.55-1.7-3.3-1.85-.85-4.65 1.2-5.5 4.05-9.45 7.75-4.3 4.05-8.1 9-.9 1.15-1 2.1-.15 1.05.6 2.35 3.05 5 4.85 9.4 2 4.7 3.15 10.05.75 3.15 3 .7 6.35-6.8 9.9-17.2 3.5-10.4 3.4-22.05M88 82.45q3.8-3.35 9.8-7.75 3.35-2.4 5.8-1.35 2.25 1 2.35 4 .6 12.1-3.2 23.3-3.65 10.7-10.3 17.75-1.8 1.95-3.3 1.7-1.65-.25-2.25-2.95-1.1-5.25-3.1-10-1.8-4.35-4.8-9.4-1.95-3.25.3-6.1 3.65-4.75 8.7-9.2"/><path fill="#0d131a" d="m36 69.85-.45-1q2.95-1.6 6.7-6.3l.6 1.6q-2.55 3.4-6.85 5.7m-9.05.75-.35 1.3q-3.2-.9-4.35-4.45l.95-1.4q1.15 3.8 3.75 4.55m86.6 5.75.1 1.65q-3.85 3.8-8.55 3.7l.05-1.2q3.95.3 8.4-4.15m-15.35-1-1.05.7q-2.4-4.1-2.45-7.4L96 67.6q.05 1.8.6 3.9.65 2.25 1.6 3.85M41.55 120.7l-.25-1.1q5.4-2.15 12.3-1.15 6 .85 10.15 3.5l-.5 1.15q-4.45-2.5-9.85-3.4-6.65-1.1-11.85 1m-2.85 11.25-1.2-.3q-.85-1.15-1.25-2.95-.4-1.85.05-2.65l1.2.55q-.4.7 0 2.45.35 1.85 1.2 2.9M34.35 128l1 1.55q-5.55-1.95-16.1-2.45-11.25-.55-17.8 1.2L0 128.25q-.1-.45 1.3-.85 6.75-1.8 17.3-1.5 10.1.25 15.75 2.1m3.75 3.85 1.4 1.15q-7.2 0-17.25 3.15-9 2.85-15.75 6.7-1.4.8-1.65.4t1.15-1.2q7.2-4.05 15.2-6.8 9.5-3.25 16.9-3.4m35.5.8q-.6 0-.65-.6t.55-.6l21.7.95q11.55 1 17.5 3.15 1.2.4 1.05.85-.2.45-1.35 0-5.8-2.05-17.25-2.95zm-1.1 2.95q-.6-.1-.45-.7.2-.55.75-.45 6.95 1.2 16.55 6.5 9.45 5.2 14.85 10.6.75.75.45 1.15-.25.35-1.05-.4-5.2-5.2-14.7-10.35-9.6-5.15-16.4-6.35m-23.7 59.9q-1.4-2.9-1.75-4.6-.4-2.15.15-4.05.6-2.15 2.15-2.7l.3 1.2q-1.05.4-1.4 2.05-.3 1.55.1 3.3 1.1 4.45 3.45 7.85l.4 1.95q-1.7-1.6-3.4-5m4.05-48.95q.35-3.2 1.55-3.55 1.05-.3 2.25 1 1.05 1.15 1.6 2.9l-.45 1.1q-.7-1.7-1.55-2.75-.85-1-1.4-.8-.65.2-.85 2.5-.3 2.8.35 7.45l-1.15-1.25q-.7-3.45-.35-6.6"/><path fill="#0d131a" d="M53.2 152.1q1.35 1.25 2.35 3.6l-.7 1.15q-.7-2.15-1.8-3.3-1.05-1.15-1.85-.75-1 .45-.75 4.55.25 4.4 1.9 8.8l-.55 1.15q-2.05-4.25-2.55-9.65-.45-5.5 1.3-6.3 1.25-.6 2.65.75m17.9-5.5-1.05.5q.85-4.9-.1-5.4-1-.55-2.9 1.8l-.1-1.3q2.1-2.65 3.7-1.8 1.6.75.45 6.2"/><path fill="#0d131a" d="M72.4 146.9q-.65-.35-2 .45-1.6 1-3.5 3.35l-.05-1.2q1.8-2.55 3.5-3.5 1.65-.9 2.8-.25 1.25.65.5 3.95-.55 2.7-1.65 4.65l-1.15.05q1.1-2.25 1.6-4.7.5-2.5-.05-2.8"/><path fill="#0d131a" d="M73.05 154q2 1.35-.3 6.75-1.95 4.6-4.6 7.5-.55.65-.9.45-.4-.25.1-.95 2.65-3.85 4.2-7.5 1.75-4.2.55-5-.9-.6-2.45.4-1.95 1.3-4.2 4.8-.45.75-.85.55-.35-.2.05-1 2-3.8 4.6-5.45 2.35-1.5 3.8-.55"/><path fill="#0d131a" d="M77.85 171q-4.75-5.5-6.2-9.9l.7-1.25q1.4 4.25 6.35 9.85t10.4 9.1q7.5 4.9 12.1 9.2 7.1 6.65 8.55 12.85l-1.2.35q-1.35-5.95-8.45-12.3-3.95-3.55-12-8.8-5.5-3.55-10.25-9.1m-21.5 21.2q-2.5-4.1-3.7-8.7-.25-.95.15-1.05t.75.85q3.4 10.5 9.4 14.2l-.05 1.6q-3.6-2-6.55-6.9"/><path fill="#0d131a" d="M57.35 146.7q.5-3.35.15-7.55l1.25-.1q.35 4.35-.15 7.85-.55 3.5-2.15 7.7-5.1 13.5-5.9 23.8-.85 10.45 2.3 22.3 2.3 8.55 2.35 13.3.05 5.65-2.8 9.35-.85 1.05-1.2 2.25t-.05 2l.2.3q0-1.05.55-2.1.55-1.1 1.25-1.5t.85-.25l-.4.7q-.7.7-1 1.95-.3 1.2.1 1.95.35.6 1.4.6-.45-1.15.2-2.7.6-1.45 1.65-2.05l.8-.1q.25.15-.25.65-.9.85-1.25 2-.4 1.15 0 1.85.5.85 2.5.3l.7.85-4.75.15q-3-.6-3.55-2-1.1-2.6 1.1-5.3 2.95-3.45 2.8-9.1-.15-4.6-2.55-12.8-3.5-11.95-2.4-23.1 1-9.85 6.2-23.8 1.55-4.1 2.05-7.4"/><path fill="#0d131a" d="M60.75 183.45q-.25-1.1.15-1.2.45-.1.7 1 2.5 9.95 2.05 23.85-.25 7.2-1.2 11.25-1.05 4.35-3.1 6.25-1.05.95-1.45 2.2-.4 1.1-.1 1.9.2.65.95.9-.35-.8-.05-1.75.3-1 1.1-1.5l.9-.15q.25.2-.3.7-1.15 1-.45 2.3.45.95 1.9.9-.1-.85.35-1.85.45-1.05 1.3-1.55.6-.4.85-.2l-.25.65q-.7.8-.95 1.7-.25.85.1 1.25l1.4.05 1.95-1.35q2-1.85 4.8-7.9 3.05-6.45 4.4-12.4l1.1-1.1q-1.05 6.85-4.95 14.75-3.25 6.6-5.15 8.15-1.75 1.5-5.75.95-3.95-.5-4.4-2-.3-.95.1-2.35.5-1.7 1.9-2.95 1.85-1.7 2.7-5.65.75-3.5 1.1-11.25.65-12.5-1.7-23.6"/><path fill="#0d131a" d="M71.6 195.65q1.85-5.4 5.35-7.95 3.25-2.5 5.75-.95 2.35 1.45-.05 6.85-2.35 5.25-7.35 10.1-.75.7-1.05.4-.3-.25.35-1 4.1-4.6 6.3-9.5 2.1-4.6.85-5.5-1.45-1-4.15.9-3.05 2.2-5.2 7-.5 1.1-.85.95-.3-.15.05-1.3"/><path fill="#0d131a" d="m77.75 200.35.5-1.4q1-.55 2-.5t1.55.6q1.35 1.4-1.15 5.25-2.5 3.8-6.55 6.75-.7.55-.95.2-.25-.3.4-.9 3.75-3.5 5.7-6.65 1.8-2.9 1.05-3.65l-1.05-.3q-.75.1-1.5.6m-6.3 21.5.6-1.3q1.5.7 3.9 1.15l4.25.35-.55 1.05-4.2-.2q-2.5-.35-4-1.05"/><path fill="#0d131a" d="m86.9 221.3-4.7.25q-2.35.8-2.75 3.1-.15 1 .3 1.75.4.7 1.15.95-.35-1.35.25-2.75t1.85-1.85q.65-.2.8 0l-.4.6q-.8.7-1.1 1.9-.25 1.15.2 2.05.7 1.2 2.5.75l-.15-.2q-.65-1.05 0-2.65.6-1.5 1.8-2.05l.7-.05q.2.2-.15.55-.9.95-1.25 1.9-.3.95.1 1.5.8 1.3 4.45-.05 1.25-.45 1.3-1.75t-1.15-2.4q-1.25-1.1-3.75-1.55m-5-.85 5.25-.25q2.9.5 4.3 1.85 1.65 1.6 1.45 3.45-.15 1.8-1.8 2.55-4.45 2.05-9.1.95-4.75-1.1-3.9-4.4.35-1.4 1.3-2.5 1.05-1.2 2.5-1.65M113.35 201q1.2 1.45-.7 4.7-2.15 3.6-6.9 7-.8.55-1 .25-.25-.35.45-1 4.2-3.65 6-6.65 1.5-2.5.8-3.4-.7-.85-2.75-.45-1.9.4-3.95 1.6l-.95.05q-.2-.4.5-.9 2.3-1.6 4.85-2 2.6-.45 3.65.8"/><path fill="#0d131a" d="m109.3 208.6 1.2-1.1q.45.55.65 1.65.2 1.05 0 1.75-.5 2.15-2.5 3.95-1.9 1.7-5.6 3.45l-.95.1q-.2-.35.55-.8 6.65-3.95 7.15-6.95.25-1.15-.5-2.05m55.85-88.6 1.1-1.4q7.1 13.85-3.15 25.95-6.75 8-25.65 18.7-28.05 15.85-29.8 33.7l-1.25-1.55q1.05-10.6 12.5-21 7-6.4 17.7-12.45 18.2-10.35 25-18.2 9.95-11.45 3.55-23.75m-26.8-12.45 1.8-1.1q4.95-.3 11.05 1.65 5.9 1.9 9.5 4.8l-.85 1.15q-3.55-3-9.8-4.9-6.15-1.85-11.7-1.6"/><path fill="#0d131a" d="m165.4 85.4 1.15-1.35q5.2 5.45 6.4 12.8 1.15 7.1-1.65 14.3-5 13-20.45 22.7-15.5 9.7-35.25 12.25-8.75 1.15-14.3-1.15-5.8-2.45-7.15-8.4T97.4 124q4.05-5.8 10.9-9.9l1.6.3q-6.5 4.05-10.55 9.6-4.8 6.55-3.55 12.1 1.5 6.5 8.7 8.3l10.9.35q19.6-2.55 34.5-11.85 15-9.3 19.95-22.05 2.7-7.05 1.65-13.5-1.1-6.7-6.1-11.95"/><path fill="#0d131a" d="M154.2 119.95q-7.7-5.55-23.45-3.1-15.3 2.35-22.75 9.15-5.15 4.7-3.55 8.05.9 1.95 3.95 2.85l6.9.4q14.85-1.7 28.5-9.8 6.1-3.6 10.4-7.55m10.75-20.2q.5 5.15-1.75 10.1-4.7 10.35-18.6 18.7-13.85 8.35-29.05 10.1-4.45.5-7.9-.55-3.6-1.05-4.65-3.4-.9-2-.05-4.4.95-2.7 4.05-5.45 7.9-7 23.65-9.35 16.35-2.45 24.7 3.35 4.5-4.55 6.8-9.5 4.05-8.9-1.75-18.2l1-.9q3.05 4.45 3.55 9.5"/><path fill="#0d131a" d="m173.3 50.6 1.5-.1q3.65 11.15-1.2 22.95-4.75 11.5-17.2 22.65-12.55 11.25-27.5 16.45-16.45 5.7-26.95.5l.8-1.4q10.3 5.1 26.1-.4 14.3-5.05 26.7-16.15 12.25-10.9 16.9-22.45 4.75-11.75.85-22.05"/><path fill="#0d131a" d="m166.7 55.2 1.45-.5q2.45 12.5-6.7 25.3-7.35 10.35-20 18.4-10.45 6.65-20.2 8.5-9.7 1.85-14.85-1.8l.75-1.45q4.95 3.55 14.15 1.8 9.2-1.8 19.45-8.3 12.35-7.85 19.5-17.85 8.8-12.3 6.45-24.1"/><path fill="#0d131a" d="m110.5 94.55.4-2.05q8.5-6.45 21.65-8.65 13.95-2.4 23.2 2.15l-1.15 1.1q-9.05-4.4-22.7-1.75-12.7 2.5-21.4 9.2m49.9-14.2-1.1 1.3q-6.9-3.25-17.55-3.5l-14.6.9 4.6-1.7q5.95-1.15 12.7-.8 8.9.5 15.95 3.8m-47.75 4.8.25-2.1q1.95-1.25 3.65-1.95 1.9-.8 4.65-1.4l4.1-.25q-3.3.9-7 2.55-3.9 1.75-5.65 3.15m.7-12.9.15-1.65q10 2.25 21-2.1 12.1-4.75 22.3-16.35l1.35.9Q148 64.55 135.8 69.7q-12.05 5.1-22.45 2.55"/><path fill="#0d131a" d="m163.6 54.6 1.5.6q-7.3 10.15-22.6 18.25-16.9 8.9-29.05 6.5l.2-1.55q12.2 2.25 28.15-6.35 13.85-7.4 21.8-17.45m-7.45-8.3.05 1.55q-8.55-3.15-24.1 1.15-15.15 4.2-21.25 10.85l-1-1.3q5.3-6.45 22.05-11.05 17-4.65 24.25-1.2"/><path fill="#0d131a" d="m153.8 38.8.45 1.85q-10.5-1.95-23.4 1.15-12.5 3-21.3 9.2-3.85 2.75-6.05 5.6-2.3 2.95-2.1 5.2l-1.75 1.65q-.15-4.2 2.45-7.7 2-2.65 6.5-5.85 8.7-6.2 22-9.45 13.4-3.35 23.2-1.65m10.8-24.65q1.4.1 2.1 2.35.9 3.15 0 9.65-.15 1.25-.55 1.2t-.35-1.3q.4-9.75-1.4-10-.65-.1-1.95 2.05-1.4 2.25-2.35 5.15-2.65 7.95.6 12.1.45.6.1.9-.35.25-.85-.3-3.95-4.5-1.15-13.5 1.1-3.55 2.8-5.95 1.7-2.5 3-2.35"/><path fill="#0d131a" d="M163.05 49.8q.65-.5.9-.15.25.3-.3.9-1.85 2.05-3.8 3.05-1.95.95-3.05.5-1.2-.5-1.45-2.7v-3.45q0-2.55-1.15-5-1.35-2.85-1.45-6.25-.15-3.2.85-4.65 1.9-2.95 3.3-3 1-.1 1.8.85l-.1 2q-.7-.9-1.35-.9-1.05.15-2.4 2.25-.9 1.35-.8 3.95.05 2.8 1.3 5.4 1.35 3.05 1.35 5.2 0 3.95 1.3 4.3.75.25 2.55-.7 1.35-.7 2.5-1.6"/><path fill="#0d131a" d="m180 44.65 1.5-.4q.45.85.5 2.05.05 1.35-.5 2.25-1.75 2.85-8.1 2.6-.5 3.45-4.1 3.4-2.8 2.5-5.3 1.65-2.6-.9-2.65-4.65l1-.55q.1 2.4 2.05 3.35 2 1.05 4.3-.65l.35-.1q1.05-.05 2-.95t1.5-2.25q.15-.3.5-.3 5.5 0 6.9-2.45l.35-1.65z"/><path fill="#0d131a" d="M178.05 44.85q-.1-.4 1-.55 5.2-.65 9.95-5.1 4.3-4.05 3.85-6.15-.4-1.75-4.7-1.9l1.2-1.15q2.15-.1 3.65.8 1.4.8 1.7 2.05.6 2.85-4.5 7.35-5.45 4.75-10.95 5.05-1.1.05-1.2-.4"/><path fill="#0d131a" d="m190.4 21.45.85-1.35 1.55.85q.8.7 1.05 1.5.55 2.05-.6 4.4-1.45 2.85-5.05 4.9l-.95.05q-.25-.35.4-.85 2.8-2.15 3.95-4.5 1-1.95.65-3.45-.25-1.25-1.85-1.55"/><path fill="#0d131a" d="M187.2 11.25q1.85-1.95 4.05-2.15 2-.15 3.05 1.25 1.55 2.1.25 5.7-1.25 3.45-4.6 6.8-.5.55-.85.3-.3-.25.15-.9 2.7-3.65 3.65-5.95 1.3-3.15.05-4.85-.65-.9-2.45-.6-2 .35-4.1 2.2z"/><path fill="#0d131a" d="M187.45.15q3.25.95 2.25 6.4-.95 5-3.8 8-.65.65-.95.4-.3-.3.25-1 1.95-2.4 2.9-6.65 1.05-4.75-1.2-5.4-3.05-.9-7.35 3.2-4.65 4.45-4.75 10.1 0 1.05-.5 1-.5 0-.5-1.1 0-7 5.2-11.75 4.7-4.25 8.45-3.2"/><path fill="#0d131a" d="M173.5 10.4q1 .45 1.5 1.25l-.45 1.6q-.4-.6-1.2-1.05l-1.85-.3q-1.75.4-3.25 2.3-1.55 2-1.9 4.55l-.6-1.85q1.3-5.8 5.5-6.75zM105.8 216l1.4-.4q-1.8 2.95-5.1 5.45-4.4 3.35-9.8 4.35l-.25-1.3q5.1-1 9-3.6 3-2 4.75-4.5"/><path fill="#00aeeb" d="M80.05 125.05q-1.8 2.85-5.35 4.15-3.55-1.6-3.9-5.65 2.2-.9 5.3-2.8l4.8-3.4q1.3 4.35-.85 7.7m-45.65-5.4q1.15 1.6 3.6 3.05 1.35.85 4.05 2.3-2.6 2.6-5.8.8-2.25-2.65-1.85-6.15"/><path fill="#007bba" d="M39.9 124.05q-.1.55-.6.85l-1.1.1q-.95-.25-1.45-1.35-.45-.95-.4-2.1zm38.3-4.5q.5 2.8-.4 4.8-.75 1.75-1.85 1.75-1.15 0-1.9-1.15-.7-1.05-.7-2.6z"/><path fill="#fff095" d="M34.25 119.75q-.35 1.65 1.85 6.3-3.45-1.7-4.8-5.8-1.1-3.4-.55-7.25l1.45 3.25q1 2.2 2.05 3.5m36.55 3.8q.1 1.9 1.55 3.7 1.15 1.4 2.35 1.95-5.2 1.95-8.9.7-3.25-1.1-3-3.15l4.25-1.45z"/><path fill="#f09cb4" d="M80.9 117.35q-2 2.35-7.95 5.25-5.35 2.6-10.35 4-.45-4.65 2.3-8.55 2.05-3 4.9-4.45 2.5-1.3 6.3-.35 4.15 1.1 4.8 4.1m-45.25 3.6q-4.5-4.25-5.2-8.4.7-2.35 2.65-2.9 1.65-.5 3.5.45 1.9.95 3.6 5.1 1.9 4.7 1.75 9.9-2.45-.5-6.3-4.15"/><path fill="#0d131a" d="M31.15 113.45q-.9 5.7 2.3 9.8 2.25 2.85 5.3 2.85 2.75 0 2.75-1.45 0-3.65-1.05-7.15-1.15-3.85-3.25-6.15-1.7-1.8-3.7-1t-2.35 3.1m10.3 3.65q1.15 3.95.95 7.65-.1 1.85-3.4 2.1-3.65.3-6.3-2.95-1.75-2.2-2.45-5.1-.75-2.9-.3-5.85.45-2.9 3.15-3.9 2.8-1 4.95 1.35 2.2 2.4 3.4 6.7"/><path fill="#0d131a" d="m41.8 124.55-.05.95q-4.5-2.15-7.7-5.7-3-3.45-3.55-6.65l.7-1.1q.05 2.85 3.45 6.75 3.25 3.65 7.15 5.75"/><path fill="#0d131a" d="m37.5 126.3-1.25-.15q-1.55-1-2.25-3.7-.5-2-.35-3.6l1.15 1.25q-.1 4.65 2.7 6.2m32.25-12.2q-4.6 2.4-6.15 7.6-1.05 3.65-.45 5.45.7 1.95 4.65 2.45 4.45.6 8.85-1.8 2.65-1.45 3.6-4.45.95-2.8.15-5.75-.7-2.5-4.45-3.7zM63 119.9q2-4.95 5.95-7 3.6-1.85 7.95-.15 4.1 1.6 4.95 4.35 1.15 3.55-.4 6.95-1.35 2.95-4.15 4.65-4.45 2.65-9.65 1.85-4.9-.75-5.6-3.3-.85-2.95.95-7.35"/><path fill="#0d131a" d="M72.5 123.6q-6 3.05-9.8 3.8l-.05-1.05q3.6-.8 9.55-4 6.2-3.35 8.4-5.9l.5 1.5q-2.4 2.5-8.6 5.65"/><path fill="#0d131a" d="m75.25 129.05-.85.4q-1.8-.55-3.05-2.1-1.25-1.6-1.45-3.6l1.25-.3q.05 1.7 1.3 3.45t2.8 2.15"/></svg>