<svg xmlns="http://www.w3.org/2000/svg" width="289" height="303" viewBox="-0.9 -0.3 288.65 303.45"><path fill="#fff3c2" d="m19.75 191.4 9.45-6.6 1.8 15.3 16.5-9.9 1.4 18.45h16.15q-3.65 2.7-12.15 5.6l-7.8 2.35-.3 2.8q-.15 3.6.3 7.55t5.6 9.4q2.6 2.75 5.05 4.7L39.1 254.7q-1.7-2.35-7.5-5.95-5.85-3.7-6.8-4.95-.6-.85-.8-2.6l-.55-5.1q-1.6-9.85-8.8-26.6-.95-2.15-.65-5.05.25-2.65 1.25-3.65 1.2-1.2 4.5-9.4m108.65 52.3 1.4-3.55 6.35 10.85 10.4-14.9 5.4 18.6 8.7-8.8q-1.75 9.05-2.25 10.15-.3.75 2.85 8.45 2.8 6.8 4.65 10.5 1.2 2.45 3.95 3.7 1.4.65 2.5.8l-15.25 15.7q-1.7-1.25-10.85-5.4-3.2-1.45-3.7-4.5l.15-2.75q-.05-5.95-6.4-17.55-6.9-11.55-7.95-14.25-1.15-2.9.05-7.05m117.05 16 1.75-.2q0 2.45 2 3.85 1.55 1.1 4 1.4l-12.55 10.2q-12.75-2.5-15.55-3.6-.7-.3-1.8-4.15-1.2-4.05-4.1-5.75 7 3.8 14.9 2.05 6.85-1.5 8.15-4.8 1.2 1 3.2 1"/><path fill="#fff3c2" d="m115.9 200.65 10.45 26.4q-15.6-.7-39.1-6.65-19.4-4.85-27.8-8.6 7.65-3.3 12.8-10.75l3.65-6.75 7.25 11.7 13.8-16.15 9.55 19.85z"/><path fill="#55295a" d="M172.5 37.65q-26.3 10.5-42.15 25.85l6.05 1.3q7.5 2 15 5.6 24 11.5 38.55 34.6l10.5 10.5q11.1 11.95 14.2 19.25-13.25-8.65-19.1-11.05l7.35 12.85q7.85 13.8 10.35 18.65 2.85 5.55 8.65 11.7 7.55 8 16.2 12.3 24.35 12.05 48.5-9.3l.05 5q-.35 6.2-2.2 12.45-5.95 19.9-24.85 32.45.35 1.4-.5 3.55l-.9 1.85 3.55 3.45q3.4 4.65 2.35 10.7t-6.55 8.7q-1.75.8-3.7 1.2l-1.65.2q.7 6.65-2.8 9.35-3.3 2.55-7.15-.1-.8 2.3-4.1 3.8-3.95 1.8-9.85 1.35-5.45-.35-11.85-5.7-6.3-6.05-8.4-7.7-2.65-2.05-23.8-9.3l-20.65-6.8-2.3 10.9-9.35 9.45-5.4-18.6-10.4 14.9-6.4-12.05q-1.6-8.7-7.85-24.1l-5.95-13.65-9.55 8.5-9.6-19.85-13.85 15.6-6.6-10.6q-1.45 4.55-6.55 9.65l-4.75 4.15-16-.35-1.55-18.1-16.5 9.9-1.8-15.3-10.3 7.45q.7-1.45 1.65-5.65l.75-3.9q-3.95-3.3-8.4-12.55-8.95-18.5-11.45-48.1Q-.9 91.45 9.7 62.6 15 48.15 20.75 39.85L20.65 52q.25 13.35 2.1 19.25 2.5-12.55 9.6-27.6Q46.55 13.6 69.4 1.3q-2.6 5.55-5.15 13-5.05 15-4.7 24.8 6.35-9.6 18.85-19.05 25-18.9 55.9-18.15-6.1 5.6-13.4 13.1-14.5 15.05-20.15 24.7 14.85-6.8 31.35-10.45 34.15-7.6 63.5.95-9.95 2.2-23.1 7.45"/><path fill="#fff3c2" d="M246.5 225.2q4.4 4.15 8.65 2.35 2.1-.85 3.35-2.6 5.35 3.95 5.8 10.05.5 6.15-4.1 11.4-3.8 4.4-10.65 2.85-2.1-.5-4.3-1.55l-1.75-.9q-3.25 7-13.55 8.15-10.3 1.1-16.25-4.85-4.95-5-2.9-12.8.6-2.45 1.85-4.9l1.15-1.95q5.7 3.6 13.2-.05 3.7-1.8 6.3-4.35 2.3.6 8-.05z"/><path fill="#ed8599" d="m247.75 249.1 1.9.4q-3.3 5.45-8.4 5.25-1.6-.05-3.2-.7l-1.25-.6q1.85-.35 4.5-3.4l2.3-3q1.85 1.4 4.15 2.05"/><path fill="#f29600" d="M208.6 219q8.05 3.9 17.35 5.7l7.65 1.05q-1.75 1.85-4.6 3.55-5.7 3.4-11.15 2.6t-7.9-6.9zm38.15 5.8q3.6-.7 8.7-3.1l4.4-2.25-.4 2.55q-.8 2.9-2.9 4.75t-5.65 1.35l-3.15-.9z"/><path fill="#f29600" d="m243.4 225.55 3.35-.75q5.3 10.55 1.9 16.05-1.65 2.75-4.4 3.35.5-2.25-.8-5.25-1.4-3.15-4.25-5.6-2.45-2.1-2.45-5.05l.55-2.55zm-48.35-18.75q.45-.15 3.45 4.75l2.95 4.95-4.7 2.75-1.1-6.1q-1.05-6.15-.6-6.35"/><path fill="#fff" d="M215.05 221.95q3.7 1.9 11.35 3.2l6.9.9-2.95 2.75q-3.7 2.75-7.35 2.55-6.2-.3-7.7-4.9-.45-1.4-.4-3.1zm31.15 2.8q2.25.35 10.25-3.5.1 2.95-.2 3.95-.8 2.85-3.9 2.9-2.95.05-4.5-1.15-.75-.55-1.65-2.2m6.55 39.85q1.9.55 5.25 2.95 3.3 2.35 3.6 3.25.45 1.1-7.3-.4 4.8 3.8 4.45 4.45-.4.6-10-1.8 4.6 3.85 4.4 4.6-.2.55-5.8-.75-5.55-1.3-7.3-2.25-1.55-2.85 1-5.5.6-.65 2.65.2 1.6.7 2.35 1.55-.95-1.4.15-3.5 1.25-2.45 4.15-.1-.05-.85.25-1.6.55-1.55 2.15-1.1m-94.05 23.35q.8-1 2.8-.15l1.85 1q-.85-4.65 1.45-5.5 2.05-.7 3.8 1.25 0-3.35.8-4.75.5-.85 1.4-1.1 1.4-.4 7.35 3.8 6.05 4.2 5.25 5.3-.35.5-12.8-1.3l4.15 3.9q4 4 3.3 4.5-1.15.8-12.7-3.25l4.95 6.5q2.5 3.25 1.9 3.7-.75.55-6.65-2.25-5.8-2.75-6.95-4.05-2.3-2.45-1.35-5.3zm-95.8-41.7q2.85 3.25 2.65 3.6-.3.5-9.8-1.4l2.1 3.45q2.1 3.55 2.1 4.2 0 1-11.95-4.5 6.85 8.4 6.75 9.2-.1.6-5.9-1.25-5.85-1.9-7.4-3.15-.9-.9-1.25-3.3-.35-2.35.3-3.1 1.65-1.85 4.35-.9 1.35.45 2.4 1.3-.35-1.25-.4-2.65-.1-2.85 1.35-3.6 1.4-.8 3-.3l1.3.6v-1.95q.2-2 1.25-2.4 1.15-.45 2.75.25 1.3.6 2.5 1.7z"/><path fill="#fff3c2" d="M185.65 143.9q-1.85-6.15-3.05-12l-.85-4.6 17.4 17.6 22.5 22.3 5.05 4.8q6.5 5.4 13.85 8.3 23.45 9.15 46.3-10.45 0 15.4-6.65 28.05-7.25 13.9-21.55 22.35-12.95 8.7-32.8 4.6-6.2-1.3-12.35-3.7l-4.9-2.15q-4.2-8.55-9.8-15.55-4.8-5.95-6.2-5.95-.95 0-1.35 4-.2 1.95-.25 3.95l-47.6-51.3q-20.45-22.05-38.85-32.35-5.7-3.25-10.55-4.9l-3.7-1.05q9.3 10.4 13.1 19.2 1.9 4.4 1.95 6.7-8.3-9.7-19.1-16.05l-9.1-4.4q2.5 3.3 3.4 7.25l.35 3.25q-9.6-8.65-21.1-10.8-11.75-2.15-22.8 3.1-9.8 4.6-13.95 18.4-3.15 10.4-2 18 1 6.6.2 21.15-5.7-4.15-11.55-20.55l-4.75-15.6Q2.3 127.7 6.2 116.2q1.25-3.6 2.95-6.15l1.5-1.8q-.45 6.05.2 13l.75 5.75q8.45-29.2 32.65-43.5 8.75-5.15 18.7-7.75 7.65-2 13.7-2.05-2.2.8-9.5 5.75l-6.9 4.75q17.8-3 37.25.05 9.75 1.55 15.95 3.65-7.6.5-19 4.45l-9.85 3.8q21.65 7.65 46.35 28.8 12.35 10.55 20.4 19.6l12.3 12.7q10.05 10.55 12 11.8-2.1-5.85-3.35-12.55l-.8-5.55q7.75 11.15 20 20.55 6.1 4.7 10.65 7.2-10.45-15.2-16.5-34.8"/><path fill="#fff3c2" d="M174.2 167q-1.95-4.85-2.9-10.7l-.65-5.3q0-1.7.3-1.85.25-.15 1.05 1.1 7.7 10.75 18 19.05 9.85 7.9 20.35 12.2 3.05 1.25 2.8 1.75-.2.45-3.25-.65-12.95-4.7-22.25-12.5-7.75-6.45-15.6-17.55l1.7 7.55 2.1 8.1q.45 1.85.2 1.95-.25.15-1.5-.9l-29.25-29.3q-14.9-14.9-30.35-25.85-15.6-11.05-29.1-16.1-2.95-1.1-2.65-1.95.2-.7 3.2-1.95 6.15-2.6 12.6-4.25 6.75-1.7 12.4-1.95-11.95-2.95-24.05-3.9-13-1-23.7.6-3.6.55-4.2.05-.65-.5 1.9-2.4l6-4.1q3.25-1.95 7.85-4.05Q56.15 76.15 41 86.8q-19.05 13.4-27.95 38.15-1.15 3.1-1.5 3.2-.5.15-.95-3.25-.85-6.05-.7-15-7 14.55-4.3 34.4l-1.55-3.6q-1.35-9.9-.2-17.55 1.05-7.25 4.6-13.7 1.7-3 2.25-3 .65.05.7 3.75l.15 5.85q.1 5.7.3 7.9 7.7-25.35 28.1-39.2 16.4-11.15 35.1-11.9 3.15-.1 3.2.5.05.55-2.55 2.15L68.1 80l-5.8 3.4q9.85-2.3 23.7-1.5 13.85.85 25.3 4.35 4 1.3 4.2 1.75.15.6-4.1 1.3-6.4 1.05-13 2.8-6.9 1.85-12.15 3.95 13.9 5.05 29.7 16t30.85 26.05q14.45 14.4 27.4 28.9"/><path fill="#fff3c2" d="M181.15 128.4q-.35-2.45 0-2.65.4-.15 2.25 1.7 23.15 23.6 44.45 44.15.25.25-.4.8-.6.55-.85.3-16.85-15.15-29.95-28.65l-13.75-14.6q2.5 12.6 8 25.95 5.45 13.35 12.25 23.4l-2.95-1.7q-7.4-11.55-11.75-22.1-5.3-12.8-7.3-26.6"/><path fill="#49204e" d="M244.1 254.65q1.5-.4 3.25-2.2 1.75-1.75 2.15-3.2 2.6.2 3.15.55.15 5.9-3.3 8.7-3.4 2.8-7.05.05-.95 2.3-5.1 4.1-5.15 2.25-10.9.9-5.35-1.25-8.45-3.45l-2.05-1.95-2.9-3.6q-3.55-3.9-6.85-5.3-7.05-2.95-17.25-6.55-13.7-4.8-25.35-7.9l2.6-9.45 2.3.4q3.2.7 7.75 2.35 12.1 10.2 18.95 14.1 7.75 4.4 15.2 4.8l1.9 1.45q6.35 6 13.05 6.8 5 .6 10.85-1.7 2.05.85 4.25 1.2z"/><path fill="#dbd2a9" d="M93.5 209.45q12.2 3 27.65 4.25l5.2 13.35q-23.8-2.3-47.75-8.8l-19.2-6.05q4.4-1.95 8.95-6.85l3.7-4.55q7.9 5.25 21.45 8.65m-88.35-63.7-.65-4.25 4.15 6.95q5.65 8.65 13.25 17.1l-.15 17.15Q12.7 173 7.7 156.25q-1.55-5.2-2.55-10.5M214.2 243.9q5.65 4.35 15.2 4.35 6.95-.45 11.4-3.1 2.25-1.35 3.05-2.6 1 3.7-2.15 7.5-4.1 5-13.35 4.9-9.9-.05-14.85-5.5-4.3-4.6-3-9.9l.8 1.35q1.15 1.65 2.9 3"/><path fill="#dbd2a9" d="m248.4 241.5 1.4.7 3.7 1q6.05.8 10.8-3.75-1.15 3.95-4.3 6.85-6.35 5.85-16.35.75l.35-2.95q3.2-1 4.4-2.6"/><path fill="#d18200" d="M250 235.85q-.65 1.4-1.5 4.4-1.15 2.6-4 3.4l-1.3-5.3 2.7.25q2.9-.3 4.1-2.75"/><path fill="#ce7486" d="m243.85 247.3 5.65 2.35q-3.1 5.05-8.15 4.9l-3.15-.6-1.25-.55q2-.6 4.65-3.4z"/><path fill="#dbd2a9" d="m233.35 267.65 6.35 3.15-.35 1.4q-.2 1.65.85 2.75-13.25-2.75-15.4-4-.4-.25-1.65-3.6-1.35-3.6-3.85-5.65l2.4.85 5.25 1.65z"/><path fill="#dbdcdc" d="m245.8 269.1 5.55 2.5 6.9 3.35-9.2-2.05-1.9-1.25q-1.8-1.5-1.35-2.55m7.1 8.75q-8.85-1.2-12.5-3.3-1.35-1-1-2.25l.65-1.05 5.35 2.5q5.7 2.75 7.5 4.1m-1.4-10.1 4.65 1.4q4.8 1.45 5.5 1.85l-7.15-.6zm-93.4 22.35 13.55 11.75q-1.45-.15-3.9-1.1-4.85-1.9-9.9-5.95-.5-.8-.75-1.8-.45-1.95 1-2.9m5.65-4.05 4.85 2.4q5.5 3.1 8.8 6.55-4-.65-7.7-2.1-7.4-2.9-5.95-6.85m5.05-3.5 5.95 2q6.4 2.2 8.7 3.25h-3.5q-4.4-.25-8.7-1.55-2.9-1.15-2.95-2.55zM40.4 250.8q2.45 2.35 6.75 5.35l7.2 4.85q-11-2.95-12.7-4.35-1.05-.8-1.4-2.3-.4-1.65.15-3.55m20.1 5.75q-3.45-.55-9.7-3.75-3.9-2-4-4.3l.65-1.9 5.35 3.6q5.7 4.05 7.7 6.35m-7.75-13.2 5.9 2.7q6.05 2.9 7.05 4.1l-9.8-1.8q-1-.8-1.85-1.8-1.8-2.05-1.3-3.2"/><path fill="#dbd2a9" d="m131.6 256.7 6.4 7.7q6.6 8.7 7.85 13.55 1.5 5.35 4.3 7.6l7.95 4.55-.85 1.3q-.65 1.7.3 3.7-10.45-5.45-13.1-6.3-1.7-.55-2-4.4l-.15-5.55q-.15-1.7-4.25-10.05-3.85-7.85-6.45-12.1m112.45-38.95q17.25-4.05 29.8-16 6.3-6 9.1-11.2-7.7 21.65-26.8 30.3-17.2 7.8-36.85 2.6-4.95-1.3-10.5-4.1l-3.9-8.3q20.25 10.1 39.15 6.7M180.5 193.8q5 4.7 10.65 8.8l-.1 3.8q-5.55-5.25-10.55-11.4l-3.85-5.1z"/><path fill="#49204e" d="M178.8 115.4q9.15 3.8 15.85 7.5l7.7 12.95q-7.15-8.6-31.25-19.35l-22.65-9q12.05.3 30.35 7.9"/><path fill="#dbd2a9" d="m16.65 197.55 2.4-5.7q3.7 17.1 18.45 20.35 10.8 2.4 26.1-2.65-2.8 2.5-11 5.05l-7.65 2.05-.1 4.65q.2 5.7 1.55 10.9-5.8-3.5-10.5-.85-4.35 2.5-4.25 7.8.1 3.3 1.6 5.65 2.05 3.15 7.35 6.1-1 .9-.45 2.85l.65 1.9q-3.45-3.45-9.75-7.4-5.3-3.25-6.45-5.2-.6-1.1-.7-2.4l-.55-6.45q-.5-4.15-5.25-15.45-4.4-10.3-4.1-13.35.2-1.8 2.65-7.85m220.6 27.95-.5 2.1q-.2 1.15.05 2.1-6.4.75-12.75 2.2l.05-.6-.1-.45q3.7-.9 6.9-3 1.65-1.05 2.5-1.95z"/><path fill="#d18200" d="M246.7 224.45q.15 2.45 1.5 4.45l-11.4.8q-.25-.95-.05-2.1l.5-2.1z"/><path fill="#dbd2a9" d="M262.45 229.5q-1.9-.75-5.9-.8l-8.35.2-.9-1.7-.25-.75q5 2.7 8.55.9 1.75-.95 2.5-2.4 2.25 1.6 4.35 4.55"/><path fill="#d18200" d="M214.95 221.95q-1.8 4.9 3.45 8.15-2.95-1.15-5.75-3.25-2.45-1.85-2.75-2.75-1-1.9-1.1-3.75l.05-1.45q2.25 1.6 6.1 3.05"/><path fill="#fff" d="M214.95 221.95q5.15 1.95 12.45 3.3l6.25 1q-1.9 2.3-8.1 4.45-2.9 1.1-7.15-.6-5.25-3.25-3.45-8.15"/><path fill="#d18200" d="m195.65 212.8-.25-6.15 6.05 9.85-.6.7-3.1-2.8z"/><path fill="#fff" d="M256.4 221.55q.4 1.8-.15 3.5-.6 1.75-2.05 2.85l-4.55-.25-2.1-.75-.85-1.9q5.7-1.55 9.7-3.45"/><path fill="#d18200" d="m256.4 221.55 3.45-2q-.15 2.4-1.4 4.8-1.5 2.95-3.8 3.5l-.45.05q1.45-1.1 2.05-2.85.55-1.7.15-3.5"/><path fill="#0d131a" d="M209.9 218.9q.1.3-.9.5l-1.1-.15q-1.9-4.2-7.6-12.2-5.9-8.15-7.6-8.6-.8 1.25-1.1 6.65-.25 4.3-.1 9.1.1 3.3-.15 3.55-.45.3-3.45-1.3-5.35-2.85-10.3-5-4.8-2.1-6.6-2.4 1.35 1.45 7 5.25l11.3 7.5q2.8 1.95 2.45 2.3-.4.3-3.45-1.45l-9.85-6.05q-9.55-6.3-8.85-8.15.15-.5.65-.65 1.6-.6 8.5 2.3 6.2 2.55 10.95 5.4-.75-4.85.05-11.4.8-6.8 2.5-7.25 2.15-.55 8.65 7.9 6.2 8 9 14.15"/><path fill="#0d131a" d="m169.45 180.65 11.2 12.4q6.25 6.95 10.6 11.35.2.25-.1 1.1-.35.85-.6.6-10.8-11-22.4-24-24.5-27.1-37.7-39.25-21.8-20.1-38.4-26.05 9.4 9.55 13.6 22.4 1.35 4.05 1.05 4.45-.3.45-3.2-2.45-6.1-6.25-12.7-11.25-6.9-5.2-12-7.3 1.3 1.5 2.2 4.15.65 2 .9 4 .3 2.6-.1 2.75-.3.15-2.3-1.5-9.95-8.15-20.95-10.15-11.2-1.95-20.3 3.05Q27.85 130.7 24.3 142q-2.85 9-1.6 23.1.9 10.3-.3 18.25-1.3 8.55-5.25 16.1-1.95 3.75-2.05 7.2 0 .7 4.7 13.8 4.75 13.3 4.95 16.3.35 5.4 1.6 7 .75 1 5.7 3.85 2.9 1.7 4.7 3.4l3.45 3.45 1.6 2.6-5.05-3.8q-2.8-2.2-5.35-3.7-7.25-4.2-7.8-5.05-.7-.9-1.1-7.65-.3-5-4.1-13.9-4.25-10.05-5.15-14.65-.9-4.35 1.2-8.35 3.5-6.75 4.9-12Q22 178 20.9 165q-1.7-16.25 2.4-26.6 4-10.2 13.9-15.65 9.6-5.25 21.6-3.1 11.95 2.15 21.4 10.85-.85-4.8-3.1-7.85-1.55-2.15-1.4-2.45.2-.35 2.95.6 5.55 1.9 12.65 7.1 7.6 5.6 13.35 12.5-5.8-13.45-13.5-22.55-2.15-2.5-1.7-2.85.4-.3 4.1.85 16.6 5.15 38.35 25.3 12.1 11.2 37.55 39.5m29.1-48.95q-4.1-7.3-6.2-10.05-.2-.25 1.2.5l1.65.95q2.2 2.55 6 9.15l7.45 13.1q10.55 18.3 19 25.75 6.45 5.7 14.1 8.65 7.95 3.05 15.95 2.65 7.7-.4 15.2-4 7.15-3.5 12.65-9.15 1.45-1.5 1.85-1.15.35.3.3 2.7-.35 15.75-7.65 29t-19.75 20.55q-11.8 6.95-25.4 6.75-13.6-.25-26.6-7.55-.3-.15-.25-1 .1-.9.35-.75 12.6 7.15 26.1 7.4 13.55.25 24.95-6.5 11.55-6.8 18.6-18.8t8-26.4q-6.65 11.9-24 16.65-16.9 4.65-33.1-.2-2.4-.65-2.15-1.05l2.2-.05q19.05 4.3 35.95-1.55 15.5-5.35 20.25-15.45-5.65 5.3-12.75 8.55-7.5 3.4-15.05 3.75-8.4.45-16.4-2.5-7.85-2.85-14.5-8.65-8.75-7.65-20-27.1z"/><path fill="#0d131a" d="M285.3 185.85q-3.25 7.8-9.7 14.75-6.6 7.1-15.1 11.75-10.6 5.75-21.9 6.95-11.5 1.2-21.4-2.65-2.4-1-2.1-1.5.3-.45 2.45.3 10.1 3.4 21.05 2.15 10.75-1.25 21.05-6.85 9.55-5.2 16.45-13.2 6.9-7.95 9.25-16.55zM164.2 233.8q22.55 6.25 40.2 13.55 3.85 1.6 8.2 5.7l6.3 6.05q5.4 4.4 12.55 4 6.6-.4 9.8-4.25 1.25-1.5 1.7-1.45t-.25 1.8q-1.9 4.6-10 5.6-8.6 1.05-14.6-3.8l-6.45-6.1q-5.2-4.85-8-6.05-16.6-6.85-40.2-13.5-.3-.1.05-.85.35-.8.7-.7m-38.1-7.3q.3.05.65.85.4.85.05.8-18-1.55-38-6.35-17.75-4.3-31.4-9.65l2.35-.95q29.55 10.25 66.35 15.3M18.8 41.1q1.95-2.75 2.4-2.85.75-.15.5 3.95-.6 10.15.55 20.2.6 5 1.3 8l-.9 2.3-1 1.6q-3.25-18.45-1.3-31.9-8.8 14.15-13.55 32.7-4.55 18.1-4.5 37.55.05 19.7 4.85 37.45 5.1 18.6 14.7 32.35-.9 2.2-1.15 1.85-9.75-13.45-15.15-32.05-5.2-18-5.5-38-.35-20.15 4.3-38.8Q9.2 55.95 18.8 41.1"/><path fill="#0d131a" d="M67.75.9Q70-.3 70.45.15q.45.4-.6 2.55-8.75 18.4-9.25 35.85l-1.4 2.1-1.45 1.6q0-9.15 3.5-21.95Q64.6 8 68.2 2.65 49.4 14 35.7 40.45 22.85 65.2 20.35 90.8q-.35 2.85-.9 2.75t-.35-3.3Q20.2 64.8 34.35 38.3 48.85 11.2 67.75.9"/><path fill="#0d131a" d="M132.7 1.25q2.5 0 2.75.35.3.45-1.6 2.2-7.55 6.85-15.85 15.75-10.75 11.5-15.55 19.05-.2.35-3.2 1.7 4.25-8.7 15.4-21 10.55-11.65 18.1-16.65-29.5 1.85-50.5 16.45Q55.4 37.8 38.8 79q-.85 2.1-1.35 1.75-.55-.35.25-2.65 12.2-37.15 39.35-57.8Q102.2 1.15 132.7 1.25"/><path fill="#0d131a" d="M194.85 29.1q2.05.55 2.05.95.05.4-1.7.9-21.4 6.15-36.6 14.1-14.45 7.6-27 18.75-.25.2-1.6-.3-1.4-.5-1.25-.65 28.2-25.1 64.6-32.6-38.3-7.4-73.25 3.15-31.05 9.4-49.25 29.15-1.5 1.8-1.95 1.35-.5-.4 1-2.4 18.6-22.55 54.75-31.8 35.85-9.15 70.2-.6"/><path fill="#0d131a" d="m192.25 107.4-1.55-.65-1.9-1.15Q170.05 77.55 143.7 68q-24.35-8.75-53.75-1.35-2.5.9-3 .35t2.85-1.85q32-9.2 59.35 2.6 26.3 11.3 43.1 39.65"/><path fill="#0d131a" d="M214.6 133.1q1.3 2.5 1 2.9-.35.45-3.05-1.35-16.7-11.35-31.35-17.25-13.9-5.6-33.5-9.2-3.45-.6-3.45-1.25l3.6-.2q15.05 1.75 31.2 7.55 20.6 7.5 34.2 19.1-9.85-16.05-28.9-30.6-18.8-14.4-39.25-21.75-2.6-.95-2.1-1.4l3.3.3q19.85 5.75 40.3 21.9 19.9 15.7 28 31.25M44.1 216.35q.05-.3 1.1-.25 1.05 0 .95.3l-.45 5.5q-.25 5.85 1.05 8.1 1.8 3.25 9.45 9.95l-2.15.4-4.5-3.85q-3.15-2.8-4.4-5.05-1.45-2.55-1.4-8.9z"/><path fill="#0d131a" d="M82.8 170q.4-2.9 1-2.7.6.15.35 3.25-3.35 22.8-12.65 33.4-8.95 10.3-27.25 13.45l-3.1-.05q-.35-.6 2.05-1.25 17.7-3.85 26.25-13.5Q78.5 192.35 82.8 170m168.95 79.35q-.05-.3.6-.35.65-.1.7.25.3 3.25-.45 5.85-.85 2.85-2.7 4.2-1.35.95-3.2 1.15-2.3.2-4.75-.85-.3-.1.05-.85.3-.7.6-.6 3.55 1.55 6-.3 1.65-1.15 2.5-3.5.9-2.35.65-5M166.8 212.2q.55-.8 2.4-.4 3.3.7 11.95 4.75.3.15.15.8l-.5.5-7.5-3.2q-3.9-1.5-5.25-1.65 2.15 3.55 21.85 17.75 3.15 2.25 2.75 2.8T189.1 232q-13.6-9.1-19.1-14.4-4.05-3.95-3.2-5.4"/><path fill="#0d131a" d="M167.55 217.95q1.65-.3 6.55 2.2 4.3 2.2 7.85 4.85.25.2-.15.65-.4.5-.65.3-3.1-2.3-7.3-4.4-3.8-1.9-5.55-2.25 2 2.6 9.05 8.75 7.8 6.75 15.8 12.45 1.85 1.35 1.55 1.8-.25.45-2.5-.8-8.45-4.9-17.35-13.05-8.8-8.05-8-9.95.15-.35.7-.55m29.9.3 2.95-1.8-4.6-8.15q.35 4.45 1.65 9.95m-2.65-13q.3-.15 1.1 1.05l6.25 10.05.2.6-.5.45-4.55 2.7q-.45.35-.7.2l-.45-.6q-.7-2.3-1.2-7.75l-.4-5.3q-.2-1.25.25-1.4m12.75 12.25.7.05.75.75q.95 5.75 2.95 8.7 1.45 2.15 3.8 3.15 4.05 1.85 9.2.15 4.25-1.35 7.95-4.6.25-.2.75.25.45.45.25.7-3.9 4.05-9.6 5.5-5.55 1.45-9.6-.35-3-1.35-4.75-5-1.65-3.45-2.4-9.3m38.35 8q-.2-.25.35-.7.5-.4.7-.15 2.45 3.75 3.35 7.45.95 3.9.05 6.9-.5 1.6-2 3.15-1.7 1.7-3.95 2.6-.3.15-.6-.4-.35-.6-.05-.7 3.85-1.6 5-5.25.85-2.75.1-6.15-.8-3.4-2.95-6.75"/><path fill="#0d131a" d="M257.75 225.45q-.25-.2.15-.6.45-.4.7-.2 7.05 4.65 6.45 13.2-.65 8.65-8.6 11.5-3.4 1.25-7.3.7-3.85-.55-6.45-2.6-.25-.2.25-.8.45-.65.7-.45 2.3 1.85 5.6 2.3t6.35-.65q7.5-2.7 7.75-10.8.25-7.7-5.6-11.6"/><path fill="#0d131a" d="m249.1 249.1.95-.05q.75.25.6.5-2.65 5-6.85 6-4.15 1-8.2-1.7-.25-.2.25-.8t.75-.4q2.95 2 6.8 1.05 3.8-.95 5.7-4.6m10.7-29.4q.65.1.6.45-.3 2.9-1.5 5-1.2 2.2-3.2 3.15-1.55.75-3.9.5-2.15-.25-3.75-1.15l-.9-1.9q1.75 1.15 4.1 1.4 2.4.3 4-.5 3.35-1.65 3.85-6.8zm-45.15 1.85.7.1q.55.35.4.65-.6 1.2-.25 2.75.3 1.55 1.4 2.85 1.6 1.8 4.1 2.25 2.55.5 5.6-.5.35-.1.55.65.25.7-.05.8l-7.4.2q-2.3-.8-3.7-2.4-1.4-1.65-1.8-3.65-.35-2.05.45-3.7"/><path fill="#0d131a" d="M255.65 221.65q-.05-.35.55-.6l.7.1q.7 2.5-.5 4.7-1.35 2.35-4.25 2.6-.35.05-.25-.45.05-.5.4-.5 1.65-.15 2.75-1.85 1.25-1.85.6-4m-31.5 44.85q.45 3.1 1.05 3.5 1.1.75 7.5 2.05l3.4.9 4.65 1.35 1.25.9.6.7-9.85-2.45-5.3-1q-2.4-.45-3.2-1t-1.2-1.8l-.5-2.85q-.15-1.15-2.15-3.55l-2.95-3.7q-.2-.3.65-.15t1 .4l3 3.45q1.9 2 2.05 3.25m22.25-6.75q-.05-.3.75-.4.8-.15.85.2.4 1.9.95 2.7.9 1.25 3.05 1.9l-.9.75q-4.3-1.1-4.7-5.15m-132.75-62.4q-1.15-2.75-.55-2.95.55-.2 1.8 2.3 3.85 6.9 10 23.25 6.75 17.85 5.65 20.65-1.55 4.15-1.7 5.75-.25 2.95 1.65 6.9 2.7 5.5 8.55 15.3 4.45 8.2 4.5 13.3 0 2.1.45 3.85.5 2 1.45 2.4 1.9.75 12.05 5.75l1.15 1.5q.9 1.4.6 1.3l-6.4-2.9-7.15-3.35q-3.1-1.4-3.8-3.6-.3-1-.3-4.95-.05-5.05-3.95-12.25-5.55-9.15-8.8-15.3-2.45-4.6-1.75-8.45l1.55-5.5q.2-1.4 0-2.9l-1.1-4.3q-2.25-7.2-7.15-19.55zm45.95 65.75q-1.75-4.65-1.7-6.45.2-3.8 3.05-15.35 2.2-8.95 3.1-11.75 1.7-5.55 2.4-5.15.7.35-.65 6.05l-3.8 15.4q-2.25 9.25-2.3 10.85-.05 1.55 1.95 6.3l3.15 7.3q1.25 2.9 2.45 4.5 1.45 2 3.7 3.45-.8.25-1.35 1.15-1.7-.85-3-2.35-1.6-1.85-3.4-5.45-2.1-4.3-3.6-8.5"/><path fill="#0d131a" d="M146 235.5q.5-.7.8-.65t.45.85l5.05 17.7q7.1-7.25 9-10.2l.25.9-.1 1.45q-1.95 3-9.05 9.55l-.75.5q-.25-.15-.4-.8l-4.95-17.1-9.7 14-.65.55q-.3 0-.55-.65l-6.05-11.75q-.15-.25.5-.7.65-.4.8-.15l5.55 10.9zM28.75 186.35q-2.85 1.85-9.7 7.1-.25.2-.4-.9-.1-1.05.15-1.25 5.8-4.55 8.9-6.6 1.8-1.2 2.15-1.05.45.2.65 2.55l1.1 12.75 14.25-9q1.9-1.1 2.3-.85.5.25.65 2.85.8 10.95.8 16.05l15.65-.55q.3 0-.1.95-.35.9-.7.95l-13.25.15-2.65-.35q-.35-.35-.45-2.8-.15-5.2-1.2-14.9-2.25 1.2-14.15 8.7-1.9 1.2-2.3 1.05-.35-.15-.6-2.15zm46.5 9.6q-.2-.25.55-1.6.7-1.3.9-1.05l6.4 11.25L94.65 190q1.3-1.6 1.8-1.6.75 0 1.95 2.45l8.3 17.7 9.3-9.45q.25-.2.65 1.2.45 1.35.2 1.6l-7.55 6.75q-2.7 2.25-3.25 2.15-.4-.1-1.65-2.7l-8.1-16.65-10.85 13.3q-1.75 2.1-2.45 2.1-.65 0-1.9-2zM252.5 277.4q.15-.25-3.4-3.15l-4.95-3.85q-1.45-1.05-2.05-1-.6 0-1.4 1.2-2.1 3.25 1.85 4.4 9.75 2.9 9.95 2.4m-8.9-8.8q2.2 1.3 6.35 5.1 4.3 3.9 4 4.5l-4.9-.4-7.15-1.7q-1.3-.4-2.15-1.15-.9-.85-.85-1.9.15-2.6 1.25-4 1.35-1.7 3.45-.45"/><path fill="#0d131a" d="M246.4 268q-.45 1.05-.3 1.65.2.8 1.6 1.75 1.25.85 2.8 1.35l4.45 1.25 3.1.5q.1-.5-4.6-4.25-4.85-3.85-6.1-3.45-.5.15-.95 1.2m.8 4.2q-1.75-1.2-2-2.1-.3-1.3.4-2.95.8-1.7 2-1.75 1.65-.05 7 4.55 5.3 4.5 4.95 5.3l-3.95-.15-5.6-1.4q-1.25-.4-2.8-1.5"/><path fill="#0d131a" d="M251.9 264.85q-.35.1-.75 1.1-.35.85-.35 1.35 0 .35-.55.15t-.55-.5q0-.75.55-1.65.55-1.05 1.25-1.25 1.35-.45 6.3 2.9 4.9 3.25 4.85 4.35l-2.2.3-5.65-.55-.8-.65q-.45-.6-.1-.55 7 1.45 7.25.95.15-.4-4.15-3.25-4.4-2.9-5.1-2.7m-91.85 23.25q-.85.05-1.6 1.6-.75 1.45-.75 2.5 0 1.1.35 1.65l1 1.2q1.1 1.1 6.75 3.85 5.6 2.75 6.05 2.5.35-.15-3.25-4.55l-4.55-5.5q-2.6-3.35-4-3.25m-2.15 7.85q-2.35-2.4-1.2-5.85 1.05-3.25 3.2-3.4 2.45-.2 5.35 3.8l4.9 6.35q3.6 4.9 2.95 5.55-.7.75-7.5-2.3-6.55-2.95-7.7-4.15"/><path fill="#0d131a" d="m169.75 286.6-2.25-1.9q-1.3-.95-2.2-.75-.65.15-1.05 1-.35.8-.35 1.75 0 1.5.35 2.15.4.7 1.85 1.85 1.55 1.25 6.5 2.8 4.7 1.45 5.05 1.1.3-.2-2.5-3zm-4.85-4q1.3-.25 3.3.9 1.55.95 3.05 2.45 8.4 8.5 7.75 9.6-.45.75-6.4-.95-5.9-1.6-7.35-2.75-2.75-2.2-2.65-4.75.05-1.6.6-2.85.65-1.4 1.7-1.65"/><path fill="#0d131a" d="M170.45 279.55q-.55.45-1.05 2-.4 1.45-.3 2.15.35 1.55 3.25 2.15 10.6 2.25 10.65 1.5.1-.95-5.65-4.7-5.9-3.85-6.9-3.1m-2.3 4.3q-.25-1.3.25-3.4.55-2.35 1.6-2.75 1.95-.7 8.65 4.3 6.7 4.9 6 6.1l-4.6.2-7.65-1.15q-3.7-.85-4.25-3.3M46.6 251.45q-1.25-1.5-2.65-2.05-1.65-.7-2.45.65-.65 1.6-.5 3.3.2 2 1.7 2.7 10.85 4.9 11.2 4.4.25-.3-3.2-4.3zM39.65 254q-.55-2.55.75-4.95 1.05-1.8 3.35-1.3 2.1.5 3.95 2.55l.05.05q1.45 1.2 4.55 5.75 3.25 4.65 2.85 5.25-.35.5-5-.95l-7.95-2.95q-2-.9-2.55-3.45"/><path fill="#0d131a" d="M52.25 245.6q-2.35-2.2-3.75-.75-.85.9-.85 2.85 0 2 .85 2.85 1.05 1.05 5.85 3.25 4.65 2.2 4.95 1.9.2-.25-2.95-4.75zm-3.55-2.35 1.7-.2q.65.15 1.85.85 1.9 1.15 5.5 6.9 3.55 5.65 3 6.2-.4.4-6.1-1.8-5.9-2.3-7.3-3.65-1.65-1.65-1.1-4.6.5-2.95 2.45-3.7"/><path fill="#0d131a" d="M54.75 240.45q-1.25.3-1.6 1.8-.35 1.6.6 3.45.15.25-.55.15-.75-.1-.9-.35-1.15-2.2-.25-4.35.85-1.95 2.35-2.15 2.25-.35 7.4 5.05 4.95 5.25 4.5 6.3-.35.8-11.05-1.55-.35-.05-.55-.8-.2-.8.15-.75 9.75 2.6 9.95 2.05.15-.6-4.15-4.75-4.45-4.3-5.9-4.1m167.9-15.75q0 2.8-.95 2.8-.4 0-.65-.65-.35-.75-.35-2.15v-.55zm28.95-1.15q0 2.2-.9 2.2-.6 0-.8-1.6z"/><path fill="#fff" d="m212.4 248.9 4.45 4.3q-5.25 2.45-5.55 1.8-.3-.5.4-3.35z"/><path fill="#dbdcdc" d="M211.5 254.85q2.75-1.45 3.9-3.2l2.45 1-2.2 1.2q-2.5 1.2-4.15 1"/><path fill="#0d131a" d="M212.7 247.9q.65.7.55.85-1.8 5.7-1.5 5.95.5.35 5.65-2.55.25-.15 1.05.25.75.4.45.55-2.65 1.55-5.4 2.35l-2.75.3q-.35-.55.4-4.4l.8-3.75q.1-.3.75.45"/><path fill="#0d131a" d="M243.7 237.65q1.7 3.1 1.4 6.7-.25 3.3-3.1 6.25-2.8 2.9-7 4.35-5.5 1.9-11.45 1-6.75-1.05-10.85-5.45-3.8-4.15-3.45-10.25.35-5.95 4.5-10.4.2-.2.8.3.55.5.35.75-3.75 4-4 9.1-.3 5.2 3.15 8.9 3.65 3.95 9.95 5.05 5.8 1 10.95-.75 3.65-1.25 5.9-3.7 2.2-2.4 2.45-5.2.3-3.65-1.3-6.5-.9-1.65-3.4-4.2-1.95-2-2.4-3.35-.65-1.9.7-4.3l.7.1q.5.35.35.65-.95 1.65-.5 2.95.35 1.05 2.15 2.95 2.9 2.95 4.1 5.05"/></svg>