<svg xmlns="http://www.w3.org/2000/svg" width="141" height="175" viewBox="-0.05 -0.25 141.1 175.15"><path fill="#009fd9" d="M125.5 60.75q7 13.05 6.05 31.9-.65 13.2-5.2 28.4-3.3 11.15-16.85 23.2-13.45 11.95-23.65 13.1-13.95 1.5-29.1-2.65-23.5-6.4-34.8-24.75-12.35-20.1-13.3-37.9Q7.9 77.5 15 54.45 20.4 36.9 36.15 25.7q7.9-5.65 14.7-7.75l4.35-1.3q5.6-1.3 11.55-1.4 19.2-.3 35.55 11.55 14.9 12.25 20.55 24.35 2.8 6 2.65 9.6"/><path fill="#008086" d="M100.4 50.35q17.5 15.8 15.15 41.3-2.25 24.8-17.1 34.85-10.75 7.25-25.7 5.8-15.4-1.5-26.35-14.6Q33.25 102 35.75 77.55q2.3-22.35 18.15-32.4 7.95-5.05 15.4-5.6 6.9-1.3 15.2 1.45 8.75 2.95 15.9 9.35"/><path fill="#009fd9" d="M96.1 88.95q0 5.65-4 9.65t-9.65 4-9.6-4q-4-4-4-9.65 0-5.6 4-9.6t9.6-4q5.65 0 9.65 4 4 3.95 4 9.6M96.6 61q0 1.95-1.4 3.35t-3.35 1.4q-2 0-3.4-1.4T87.05 61q0-2 1.4-3.4t3.4-1.4q1.95 0 3.35 1.4t1.4 3.4m5.25 48q0 2-1.4 3.35-1.35 1.4-3.35 1.4-1.95 0-3.35-1.4-1.4-1.35-1.4-3.35 0-1.95 1.4-3.35t3.35-1.4q2 0 3.35 1.4 1.4 1.4 1.4 3.35M64.3 66q0 2.2-1.55 3.7-1.5 1.55-3.7 1.55-2.15 0-3.7-1.55-1.55-1.5-1.55-3.7 0-2.15 1.55-3.7t3.7-1.55q2.2 0 3.7 1.55 1.55 1.55 1.55 3.7m9.3 48.9q0 2.2-1.55 3.7-1.5 1.55-3.7 1.55-2.15 0-3.7-1.55-1.55-1.5-1.55-3.7 0-2.15 1.55-3.7t3.7-1.55q2.2 0 3.7 1.55 1.55 1.55 1.55 3.7"/><path fill="#008086" d="M31.35 64.9q0 6.35-4.5 10.8-4.45 4.5-10.8 4.5T5.2 75.7Q.7 71.25.7 64.9t4.5-10.85 10.85-4.5 10.8 4.5q4.5 4.5 4.5 10.85m6.2 58.5q4.5 4.5 4.5 10.85t-4.5 10.8q-4.45 4.5-10.8 4.5t-10.85-4.5q-4.5-4.45-4.5-10.8t4.5-10.85 10.85-4.5 10.8 4.5m101.85-1.1q0 5.85-4.1 10-4.15 4.15-10 4.15t-9.95-4.15q-4.15-4.15-4.15-10t4.15-9.95q4.1-4.15 9.95-4.15t10 4.15q4.1 4.1 4.1 9.95M77.75 15.55q.15 3-1.25 6.25-2.7 6.5-10.15 7.85Q57.8 31.2 52.3 25.1q-1.7-1.9-2.9-4.4l-.85-2.05-3.3 1.5q-.05-4.85 2.1-9.75Q51.65.6 62.85.55 72 1.7 75.8 8.75q1.9 3.5 1.95 6.8m49.3 25.65q6.3 1.4 9 6.95 2.6 5.4.8 11.05-1.2 3.8-3.6 6.35-2.3 2.45-7.45 2.7-6.65.35-10.35-5.4-3.6-6.2-1.1-13.85.75-2.4 2.05-4.65l1.15-1.8-.6-1zm-55.2 108.9q4.15-6.8 12.5-7.05 8.6-.25 12.45 6.9 2.55 4.8 2.25 9.7-.25 4.05-3.65 8.25-4.65 5.7-12.05 5.25-15.1-.9-19.2-16.7l5.2.4q.4-3.35 2.5-6.75"/><path fill="#f9be00" d="M65.65 92.8q0 5.85-3.65 9.85-3.75 4.05-9.3 4.05-5.5 0-9.15-4.45Q40 97.95 40 92q0-5.85 3.55-9.55 3.55-3.75 9.15-3.75 5.55 0 9.3 4.15 3.65 4.05 3.65 9.95M96.6 72.65q1.5-1.45 3-1.8 10.1-1 12.3 11.35 1 5.65-.85 9.85-1.75 4.15-5.55 5.5-3.1 1.15-6.75-1.55l-3.05-2.9q1.05-4.8-.5-8.75l-1.8-3.05q.15-5.7 3.2-8.65"/><path fill="#008cbe" d="M49.4 19.3q-5.5 2.6-11.9 7.7-12.75 10.25-17.3 22.95l-3.9-.4Q18.55 44 23.75 37.3 34.2 23.9 49.2 18.05zM8.55 93.75Q8.1 88.2 8.2 82.6l.2-4.5 1.85.9 2.9 1.2-.2 3.7q-.15 4.65.25 9.45 1.4 15.35 7.85 26.2l-3.95 2.25q-6.95-10.35-8.55-28.05m32.95 49.5q2.15 1.65 5.15 3.3 9.5 5.2 23.35 8.05l-.7 2.6q-13.05-1.4-24-6.65-3.4-1.6-6.2-3.45l-2.1-1.5 2.9-3.7z"/><path fill="#00666c" d="m30.9 68.65-.65 2.3q-1.05 2.7-2.85 4.7-5.65 6.45-16.7 3.6-9.75-4.5-9.95-13.7-.05-2.9.85-5.9l.9-2.45-.05 1.15q0 6.7 4.7 11.4 4.75 4.7 11.4 4.7 3.65 0 6.95-1.55 3.15-1.55 5.4-4.25m107.4 57.45q-.55 3.45-3.15 6.35-5.15 5.85-15.2 3.25-8.85-4.1-9.05-12.5-.05-2.6.75-5.35l.85-2.2-.05 1.05q0 6.1 4.3 10.35 4.3 4.3 10.35 4.3 3.3 0 6.3-1.4 2.9-1.4 4.9-3.85"/><path fill="#008cbe" d="M95.85 92.1q-.55 3.35-3.1 6.2-5.05 5.75-14.85 3.2-8.65-4-8.8-12.2-.05-2.55.75-5.25l.8-2.15-.05 1q0 5.95 4.2 10.1 4.2 4.2 10.1 4.2 3.25 0 6.15-1.35 2.8-1.35 4.8-3.75M64.5 66.95q-.2 1.35-1.2 2.45-2 2.3-5.9 1.25-3.45-1.55-3.5-4.8l.6-2.95v.4q0 2.35 1.65 4.05 1.65 1.65 4 1.65 2.65 0 4.35-2.05m9 49.25-1.25 2.45q-2 2.25-5.9 1.25-3.45-1.6-3.5-4.85l.65-2.9-.05.4q0 2.35 1.65 4.05 1.7 1.65 4.05 1.65 2.65 0 4.35-2.05m23.3-53.95q-.2 1.2-1.15 2.25-1.85 2.05-5.4 1.15-3.1-1.45-3.2-4.45l.55-2.65v.35q0 2.15 1.55 3.65 1.5 1.55 3.65 1.55 2.4 0 4-1.85m5.15 47.8q-.2 1.25-1.15 2.25-1.85 2.1-5.4 1.15-3.15-1.45-3.2-4.4l.55-2.7v.35q0 2.2 1.5 3.7 1.55 1.5 3.7 1.5 2.4 0 4-1.85"/><path fill="#00666c" d="M121 67.75q-7.95-3.7-8.1-11.2-.05-2.35.7-4.8l.75-2-.05.95q0 5.45 3.85 9.3t9.3 3.85q3 0 5.65-1.3 2.55-1.25 4.4-3.45-.5 3.1-2.85 5.75-4.6 5.25-13.65 2.9m-48.4-45.2q3.1-1.45 5.3-4.1-.6 3.7-3.4 6.85-5.55 6.3-16.35 3.5-7.55-3.5-9.25-9.95l-3.55.9q-.25-2.35.2-5.15.95-5.55 4.55-7.75.2-.1.1.55l-.1.95q0 6.55 4.6 11.15 4.65 4.6 11.15 4.6 3.55 0 6.75-1.55m-31.25 115.5-.65 2.3q-1.05 2.7-2.85 4.7-5.65 6.45-16.7 3.6-9.75-4.55-9.95-13.75-.05-2.85.85-5.85l.9-2.45-.05 1.15q0 6.7 4.7 11.4 4.75 4.7 11.4 4.7 3.65 0 6.95-1.55 3.15-1.55 5.4-4.25m26.05 26.2q-1.55-2.45-2.5-5.25l-.6-2.35 5.2-.25.5 1.45q.75 1.8 2.05 3.45 4.15 5.2 12.2 6.75 5.45.8 10.05-1.05 2.25-.9 3.45-2l-1 1.4q-1.3 1.7-3 3-5.3 4.3-11.95 3.6-9.4-.95-14.4-8.75"/><path fill="#76b8bd" d="M18.35 53.7q1.3-.9 3-.4 1.75.5 2.85 2.05t1.05 3.35q-.1 1.8-1.35 2.7t-3 .4-2.85-2.05-1.05-3.4q.1-1.8 1.35-2.65M66 5.25q1.25-.9 3-.4t2.85 2.05Q73 8.5 72.9 10.25q-.15 1.8-1.4 2.7t-2.95.4q-1.7-.45-2.85-2.05t-1.05-3.35q.1-1.8 1.35-2.7m62.05 40.05q1.1-.8 2.6-.35 1.45.4 2.45 1.75.95 1.35.9 2.9-.1 1.55-1.15 2.3-1.1.8-2.6.35-1.45-.4-2.45-1.75-.95-1.35-.9-2.9.1-1.55 1.15-2.3m1.1 67.35q1.1-.75 2.6-.3 1.45.4 2.4 1.75 1 1.35.9 2.9-.05 1.5-1.15 2.3-1.05.8-2.55.35-1.45-.4-2.45-1.75-.95-1.35-.9-2.9.1-1.55 1.15-2.35M90.6 147.5q1.5.4 2.45 1.75t.9 2.9q-.1 1.55-1.15 2.35-1.1.75-2.6.35-1.5-.45-2.45-1.8t-.85-2.9q.05-1.5 1.1-2.3 1.1-.75 2.6-.35m-59.65-24q1.05-.8 2.55-.35 1.5.4 2.45 1.75t.9 2.9q-.1 1.55-1.15 2.3-1.1.8-2.6.35-1.45-.4-2.45-1.75-.95-1.35-.85-2.9.05-1.5 1.15-2.3"/><path fill="#7fccec" d="M86.15 80.2q1.05-.75 2.55-.35 1.5.45 2.45 1.75.95 1.35.9 2.9-.1 1.55-1.15 2.35-1.1.75-2.6.35-1.5-.45-2.45-1.8T85 82.5q.05-1.5 1.15-2.3M92.2 58q.5-.35 1.15-.2l1.15.85q.45.6.4 1.3T94.35 61l-1.15.15q-.65-.2-1.1-.8t-.4-1.3q0-.7.5-1.05m-32.75 4.1 1.15-.15q.7.2 1.15.8t.4 1.3-.55 1.05l-1.15.2-1.1-.8q-.45-.65-.4-1.35 0-.65.5-1.05m37.95 43.7q.5-.35 1.15-.2.7.2 1.15.8.4.65.4 1.35-.05.7-.55 1.05l-1.15.15-1.1-.8q-.45-.6-.4-1.3 0-.7.5-1.05m-28.2 5.7 1.15-.15 1.1.8q.45.6.4 1.3 0 .7-.5 1.05-.5.4-1.15.2l-1.15-.85q-.4-.6-.35-1.3 0-.7.5-1.05"/><path fill="#0d131a" d="M64.65 90.85q-.85-6.35-5.35-9.65-4.45-3.25-10.1-1.8-4.4 1.15-6.8 5.5-2.5 4.6-1.25 10.4 1.35 6.2 6.15 8.95 4.35 2.45 9.3 1.05 4.3-1.25 6.55-5.3 2.2-4.05 1.5-9.15m-23.45-6.8q2.8-4.95 7.7-6.2 6-1.55 11.05 2 5.25 3.7 6.2 10.8.8 5.55-1.95 10.35-2.75 4.75-7.55 6.1-5.4 1.55-10.15-1.15-5.35-3.05-6.95-10.35-1.35-6.3 1.65-11.55"/><path fill="#0d131a" d="M99.85 48.6q13.35 11.8 16.05 30.75 1.65 11.45-.35 21.55-2.05 10.4-7.65 17.8-4.4 5.9-10.85 9.65-6.4 3.7-13.65 4.7-8.35 1.15-16.2-.75-8.1-2-14.45-6.95-7.35-5.8-12.2-14.85-4.9-9.1-5.95-19-1.15-11.55 1.35-21.75 2.55-10.3 8.45-17.6 4.65-5.7 11.35-9.3 6.75-3.65 14.15-4.4Q86.55 36.8 99.85 48.6m14.2 31.25Q111.4 61.3 98.75 50q-12.6-11.3-28.8-9.7-7.15.7-13.25 3.95-6.05 3.25-10.55 8.8-5.8 7.1-8.3 16.95-2.45 9.8-1.25 21.1.95 9.65 5.6 18.35 4.6 8.65 11.8 14.3 6.25 4.9 13.65 6.85 7.35 2 15.3.9 14.25-2 23-13.55 5.5-7.3 7.6-17.15t.5-20.95"/><path fill="#0d131a" d="M123.55 39.7q3.85.1 7 1.65 2.95 1.5 4.9 4.1 2 2.65 2.8 6.05.75 3 .05 6.45-.65 3.25-2.35 5.85-3.05 4.3-7.45 5.1-4.35.85-8.05-.8-3.8-1.6-6-5.35-2.35-4.05-2-9.2.45-5.8 4.3-10.45.25-.25.8-.55.65-.4.8-.25.2.2-.4 1.1l-.85 1.05q-2.75 3.7-3.05 8.8-.3 4.9 1.75 8.4 2 3.4 5.2 4.85t7.05.75q4.15-.8 6.6-4.6 3.3-4.95 1.95-10.55-1.5-6.5-7.05-9.25-2.9-1.45-6.2-1.6-3.35-.15-6.4 1.1-.2.1-.55-.6-.35-.65-.1-.75 3.3-1.4 7.25-1.3M42.6 22.9q.35-.25 1.1-.55l1-.15q.2.3-1.8 1.75-7.45 4.95-12.7 10.95-5.8 6.6-9.7 15.5l-1.4-.7q8.1-17.8 23.5-26.8m-2.85 118.65q7.85 6.35 25.2 11.5 1.6.45 1.35.75-.3.3-1.85 0-8.8-2.1-14.6-4.55-6.1-2.55-10.7-6.25zM13.55 80q-.35 10.25 1.65 20.9 1.9 9.95 6.45 18.75l-1.65.25q-4.6-9-6.45-19-2.1-10.7-1.7-21.3zm81.7-7.05q2.15-2.6 4.95-3 4.45-.55 8 2.7 3.95 3.65 4.75 10.4.8 6.35-2.05 10.95-2.65 4.25-6.6 4.45-2.25.1-4.5-1.05-2.35-1.25-4.1-3.7l.55-1.4q1.5 2.4 3.6 3.6 1.95 1.1 4.05 1 3.55-.2 5.8-4.2 2.35-4.15 1.65-9.75-.65-5.5-4-8.85-3.15-3.15-6.75-2.7-2.6.35-4.45 2.95-2 2.75-2.35 6.9l-1.35-1.35q.55-4.15 2.8-6.95M61.5.05q7.25-.3 12 4.3 2.35 2.35 3.75 5.5 1.35 3.15 1.3 6.25.1 5.6-3.65 9.7t-9.55 4.7q-6.9.75-11.75-3.45-4-3.5-4.95-8.35-.45-2.35-.05-2.4.45-.05 1.05 2.2 1.3 4.55 4.65 7.45 4.2 3.65 10.45 2.95 5.3-.55 8.75-4.25 3.4-3.7 3.35-8.85.05-2.9-1.05-5.55-1.15-2.7-3.2-4.7Q68.2 1.3 61.55 1.6q-6.6.25-10.95 5.1-2.35 2.6-3.6 6.15-1.2 3.55-1 7.05 0 .65-.6.65l-.5-.15-.2-.45q-.25-3.85.95-7.55 1.2-3.9 3.65-6.6 2.35-2.6 5.5-4.1Q58.05.15 61.5.05"/><path fill="#0d131a" d="m117.5 134 1.4 1.05q-8.65 12.05-20.95 18.1l-.65-1.7q11.75-5.7 20.2-17.45m-81.2 12.2 1.5-1.75q14.15 10.3 31.95 11.6l-.35 1.85q-9.1-.7-17.45-3.6-8.55-3-15.65-8.1M7.55 77.5l2.05 1.15q-.5 7.75.3 15.7 1.65 14.75 8.1 27.1l-1.8 1.65q-6.8-12.8-8.5-28-.95-8.5-.15-17.6M48.9 17.55l.45 1.65Q36.3 24 26.45 35.6q-5.35 6.25-9.3 14.2l-2.05-.1q3.95-8.25 9.65-14.95 10.2-11.95 24.15-17.2m81.1 60.5q-.85-5.15-2.1-9.8l2-.5q1.4 5.4 2.15 10.1 1.95 16.45-1.5 31.25l-1.9-.55q3.25-14.45 1.35-30.5M118.35 42.3 117 43.8q-7.25-10.85-17.3-17.7-10.15-6.9-22.15-9.05l-.05-1.95q12.2 2.1 22.85 9.2 10.6 7.1 18 18"/><path fill="#0d131a" d="m64.4 159.35-.55-2.3q-.05-.25.75-.2l.8.3.5 2.2q.75 2.4 2.1 4.5 4.15 6.55 12.5 8 3.8.5 6.75-.1 2.9-.6 5.45-2.45 4.5-3.5 5.35-9.35.35-2.5-.45-5.6-.95-3.65-3.1-6.25-3.6-4.2-9.85-4.3-7.95 0-12 6.55-2.05 3.3-2.55 6.95-.1.7-.7.6-.65-.1-.55-.75.3-3.8 2.45-7.55 4.25-7.45 13.3-7.4 3.25 0 6.15 1.3 2.9 1.35 4.9 3.7 4.8 5.65 4.05 13.15-.3 2.65-1.65 5.35-1.65 3.25-4.15 5.2-5.2 4-13.4 2.85-9.2-1.65-13.85-9.3-1.45-2.35-2.25-5.1M91.7 98.1q3.7-3.65 3.7-8.9 0-5.6-3.75-9.45t-9.2-3.85q-5.3 0-9.05 3.9t-3.75 9.4q0 5.15 3.8 8.85 3.85 3.65 9.2 3.65t9.05-3.6M82 74q6.7 0 11.1 4.45t4.4 11.3q0 5.7-4.6 9.75-4.55 3.95-10.5 3.8-6.25-.1-10.3-4.25-4-4.1-4-10.15 0-6.1 4.05-10.45Q76.25 74 82 74M56.75 96.8q.25 2.55-1.95 3.05-2.15.45-2.6-2.05l-1.4-7.95q-.4-2.35 1.7-2.9t2.85 2q.95 3.3 1.4 7.85m49.8-9.15q.15 2.35-1.65 2.5-1.85.15-2.1-2.25l-1.15-7q-.4-2.2 1.45-2.6 1.9-.4 2.4 1.9.85 3.4 1.05 7.45m-33.65 30.3.65-1.5q4.35 1.4 8.95.85 6.3-.8 10.9-5.25l1.25 1.2Q89.6 118.1 82.7 119q-4.9.45-9.8-1.05m-8.5-6.7-.8 1.6q-3.6-3-6.2-7.15l1.8-.7q2.25 3.7 5.2 6.25m-9.55-32.5-2-.35q.75-4.7 2.55-8.65l1.6 1.2q-1.45 3.5-2.15 7.8m46.3 18.05 1.9.65q-.9 4.15-2.75 8.05l-1.7-.95q1.6-3.35 2.55-7.75m-.55-25.95-1.8.6q-1.65-3.55-4.1-6.65l1.25-1.35q2.7 3.25 4.65 7.4m-12.1-13.7-.8 1.35q-6.2-3.7-13.15-2.55-6.7.85-11.7 5.95L61.2 61q2.7-2.7 6.2-4.4 3.4-1.7 7-2.15 8-.8 14.1 2.7m-58 7.6q0-6-4.25-10.25-4.25-4.3-10.3-4.3t-10.3 4.3Q1.4 58.75 1.4 64.75q0 6.05 4.25 10.3 4.25 4.3 10.3 4.3t10.3-4.3q4.25-4.25 4.25-10.3m-3.2-11.1q4.85 4.95 4.85 11.5t-4.65 11.2T16.3 81q-6.9.05-11.55-4.55-4.7-4.7-4.75-11.9Q-.05 58 4.65 53.3q4.65-4.65 11.2-4.65t11.45 5m-15.2 80.3q0 6 4.25 10.3 4.25 4.25 10.3 4.25t10.3-4.25q4.25-4.3 4.25-10.3 0-6.05-4.25-10.3-4.25-4.3-10.3-4.3t-10.3 4.3q-4.25 4.25-4.25 10.3m-1.55-.15q-.05-6.55 4.6-11.2t11.25-4.65 11.55 4.85q5 4.9 5 11.45t-4.65 11.2-11.2 4.65q-7.15.05-11.85-4.6-4.65-4.65-4.7-11.7m119 .8q5.25-2.2 7.4-7.5 1.1-2.55 1.1-5.35 0-3.9-2.1-7.2-2.1-3.35-5.7-4.85-4.75-2-9.7.05-5.2 2.1-7.4 7.45-2.2 5.3-.1 10.55 2 4.85 6.8 6.9 4.85 1.95 9.7-.05m9.15-6.55q-2.5 5.9-8.15 8.2-2.65 1.05-5.5 1.15-2.95.05-5.45-1-2.65-1.15-4.9-3.3-2.35-2.3-3.4-5.1-2.1-5.8.35-11.7 2.4-5.8 8.1-8.15 4.85-2 10.65-.05 6.05 2.4 8.35 8.1 2.3 5.65-.05 11.85"/><path fill="#0d131a" d="M63.9 65.85q0-1.95-1.4-3.3-1.4-1.4-3.35-1.4t-3.3 1.4q-1.4 1.35-1.4 3.3t1.4 3.35q1.35 1.35 3.3 1.35t3.35-1.35q1.4-1.4 1.4-3.35m-.45-4.2q1.9 1.9 1.9 4.4T63.6 70.3t-4.25 1.75-4.4-1.95q-1.9-1.9-1.9-4.4 0-2.45 1.75-4.25 1.8-1.75 4.25-1.75t4.4 1.95m.1 53.15q0 1.95 1.4 3.35 1.35 1.35 3.3 1.35t3.35-1.35q1.4-1.4 1.4-3.35t-1.4-3.35-3.35-1.4-3.3 1.4q-1.4 1.4-1.4 3.35m.35-4.45q1.8-1.75 4.25-1.75t4.4 1.95q1.9 1.95 1.9 4.45t-1.75 4.25-4.25 1.75q-2.45 0-4.4-1.95-1.9-1.95-1.9-4.45 0-2.45 1.75-4.25m31.9-49.3q0-1.75-1.2-3-1.15-1.25-2.85-1.25t-2.9 1.25-1.2 3 1.2 2.95q1.2 1.25 2.9 1.25T94.6 64q1.2-1.2 1.2-2.95m-4.05-5.5q2.25 0 3.95 1.7 1.7 1.75 1.7 4 0 2.3-1.6 3.9t-3.8 1.6-3.95-1.7q-1.7-1.75-1.7-4 0-2.3 1.6-3.9 1.55-1.6 3.8-1.6m9.35 53.3q0-1.7-1.2-2.95t-2.9-1.25-2.9 1.25-1.2 2.95q0 1.75 1.2 3 1.2 1.2 2.9 1.2t2.9-1.2q1.2-1.25 1.2-3m-9.5 0q0-2.25 1.6-3.85 1.6-1.65 3.8-1.65t3.95 1.75q1.7 1.7 1.7 4 0 2.25-1.55 3.9-1.6 1.6-3.85 1.6-2.2 0-3.95-1.75-1.7-1.7-1.7-4"/></svg>