<svg xmlns="http://www.w3.org/2000/svg" width="120" height="195" viewBox="0 0 120.4 195.1"><path fill="#00a63c" d="M.85 69.95q0-8.95 6.5-15.3 6.55-6.3 15.75-6.3 9.25 0 15.8 6.3 6.5 6.35 6.5 15.3T38.9 85.2q-6.55 6.35-15.8 6.35-9.2 0-15.75-6.35-6.5-6.3-6.5-15.25"/><path fill="#009233" d="M2.65 79q3.65 3.4 9.4 4.45l11.2-.45q13.2-3.4 15.65-14.55l5.7-1.55.15 3q0 3.65-1 6.95-3.2 10.65-14.85 14-8.45 2.4-16.8-2.3-6.95-4-9.45-9.55"/><path fill="#0d131a" d="M0 70.05q0-8.7 6.35-15.35 6.8-7.15 17.05-7.15 10 0 16.6 7.3 6.1 6.8 6.1 15.7 0 8.65-6.2 14.95-6.5 6.65-16.15 6.65-9.9 0-16.65-5.9Q0 80.05 0 70.05m2.2 0q0 8.8 6.25 14.65 6.15 5.8 15.3 5.8 8.1 0 14.05-5.55 6.25-5.85 6.25-14.4 0-8.95-6.2-15.15-6.1-6.05-14.45-6.05-9.3 0-15.55 6.85Q2.2 62.45 2.2 70.05"/><path fill="#00a63c" d="M54.8 7.6q7.1 7 7.1 16.85T54.8 41.3q-7.1 6.95-17.2 6.95-10.05 0-17.15-6.95-7.1-7-7.1-16.85t7.1-16.85Q27.55.65 37.6.65q10.1 0 17.2 6.95"/><path fill="#d3965c" d="M43.7 47.1q2.65-.1 7.7-3.65l1.2 4.15 1.55 4.75q.5.85 2.65.95.35 2.05 3.75 7.6l-1.6 1.2q.1 1.6 6.7 8.05L80.5 83.6q9.9 8.55 15.3 16.35 2.75 3.9 3.45 6.1 3.25.2 7.8 1.75 4.95 1.7 6.75 3.55 2.1 2.25 3.8 10.05 1.8 8.3.75 13.4-.5 2.3-4.2 8.3-4.65 20.45-22.55 29.35-8.95 4.5-16.95 4.85-.65 5.35-8.4 11-8.25 6.05-14 3.1-5.2-2.6-1.9-9.8 1-2.25 2.75-4.7l1.55-2q-9.35-3.3-14.5-8.9-1.65-1.8-2.65-3.55l-.65-1.45q-2.45-1.25-5.6-4.2-2.65-2.45-5.05-9-2.6-7.1-1.95-12 .55-4.35 5.3-9.7l4.6-4.45q-.5-6.1 2.6-14.85 1.5-4.25 6.95-16.45 3.4-7.5 4.55-15.15 1-6.3.15-7.6-.55-.95-4.05-.45l-6.1 1.05q-2.4.35-3.4-3.35-1.05-3.75 1.75-4.4 3.2-.7 5.7-2 2.3-1.25 2.8-2.35.65-1.4-1.4-9"/><path fill="#009233" d="M48.3 45.25q-8.9 4.35-18.6 1.65-9.3-2.55-12.65-9.3Q32.9 42 45 35.15 57.7 27.9 58.55 12.1q2.95 5.6 3.15 12.5.4 13.85-13.4 20.65"/><path fill="#ad7b49" d="m43.65 47.15 7.85-2.95 1.05 3.6q1.15 3.8 1.6 4.5.75 1.2 2.65 1.05l3.7 7.55-1.75 1.45 7.4 8.55q-6.1-3.35-11.1-2.45-5.3.9-6.35 6.2 0-6.65-.45-7.55-.3-.6-3.65-.05l-7 1.1q-2.3.2-3.05-3.45-.7-3.65 2.15-4.1 3.2-.5 5.85-2.15 2.2-1.3 2.75-2.45t-1.65-8.85m38.05 37.8q3.8 1.7 11.4 11.65 3.8 4.95 6.85 9.6 3.25-.35 8 1.85 3 1.35 5.15 2.9 3.15 2.25 5 12 1.75 9.15.5 12.4-7 18.05-34.4 26Q73 164.6 61.6 165q-11.05.4-18.2-2-1.35-.45-3-4.5-1.75-4.4-3.35-5.55-3.7-2.7-6.2-5.7t1.3-.4q11.8 8.4 34.25 5.5 16.05-2.05 29.65-10.75 6.8-4.3 10.4-8.25.55-.65-4.45-3.35-5.05-2.65-6.3-1.75 1.4-7.15-2.05-18.8-3.85-13-11.95-24.5"/><path fill="#ad7b49" d="M74.7 177.25q-9.4.2-17.8-4.2-7.5-3.9-10.15-8.9 16.1 3.3 36.25-2.4 21.6-6.1 30.55-18.45-1.05 15.7-16.65 25.85-5.8 3.8-12.55 6.05-5.8 1.95-9.65 2.05"/><path fill="#ad7b49" d="M49.65 182.85q.3-2.4 2.85-5.45l2.5-2.55q7.35 2.05 19.7 2.4-1.6 3.95-6.2 8.35l-4.25 3.65q-1.85-4.9-7-6.8-4.8-1.75-7.6.4"/><path fill="#fff095" d="M59.75 96.05q.65 3.8-.25 6.75t-2.8 3.25q-1.9.35-3.7-2.15-1.8-2.45-2.45-6.3t.25-6.8q.9-2.9 2.8-3.25 1.9-.3 3.7 2.2 1.75 2.45 2.45 6.3m-10.5 20.7q.4 3.7-.6 6.45-.95 2.75-2.7 2.95-1.75.15-3.2-2.35-1.5-2.5-1.9-6.2-.35-3.7.6-6.4.95-2.75 2.7-2.95t3.25 2.3 1.85 6.2M78.6 111q.8 4.25-.25 7.6T75 122.35q-2.3.45-4.5-2.25t-3.05-7q-.8-4.25.3-7.6 1.05-3.35 3.35-3.8 2.35-.4 4.5 2.3 2.2 2.75 3 7"/><path fill="#ed8599" d="M69.35 125.35q.8 4.6-1 7.6-1.95 3.2-6.55 4.25-2.6.6-5.5-.75 0-2.9 1.15-5.6t3.2-4.65q3.15-.65 5.75-2.05 2.5-1.3 2.95 1.2"/><path fill="#922f00" d="M60.65 126.2q-2.05 1.95-3.2 4.65t-1.15 5.6q-3.7-1.75-5-6.3-.45-1.75.7-2.65.85-.65 2.15-.65z"/><path fill="#ce7486" d="M56.3 136.1q.05-3.45 1.9-6.65l1.85-2.45 4.35-1.9q3.3-1.6 3.9-1.45.8.2 1.3 2.15.55 2.4-.4 5.4l-7.05.2q-4.9 1.4-5.85 4.7"/><path fill="#0d131a" d="M55.85 7.4q6.9 7 7.1 16.25.25 11.15-7.95 18.5-7.3 6.5-16.2 6.5-12.8 0-20.1-7.55-6.45-6.7-6.45-16.55 0-10 7.7-17.3Q27.6 0 38 0q10.55 0 17.85 7.4M53.4 40.7q7.7-6.85 7.5-16.95-.15-8.35-6.75-15Q47.3 1.8 38 1.8 27.75 1.8 20.9 9q-6.45 6.75-6.45 15.55 0 9.25 5.8 15.3 6.6 6.9 18.55 6.9 7.8 0 14.6-6.05"/><path fill="#0d131a" d="M42.4 47.15q-.1-.3.8-.6l1 .05q1.25 3.25 1.7 6.25.4 2.85-.05 3.85-.7 1.4-2.7 2.45-1.75.9-6.05 2.25-1.65.5-1.25 3.3.35 2.75 1.9 2.5l7.9-1.05q3.25-.05 3.65 1.6.9 3.4-.6 10.25-1.9 8.6-7.15 19.1-6.05 12.15-6.5 24.15-.25 7.35 1.45 12.55 3.15 5.25 11.45 7.35 7.35 1.8 15.95.7 18-2.35 28.75-11.65 8.75-7.6 8.35-14.4-.55-9.35-9.7-20.25-5.45-6.45-18.2-17.5l-9.2-8.3q-4.25-4.25-5.8-7.15-.15-.3.6-.8t.95-.2q2.9 5.45 14.25 15.2 13.95 11.95 18.8 17.5 9.65 11.05 10.2 21.4.45 7.35-8.65 15.6-11.2 10.1-30.15 12.6-10.15 1.35-18.75-1.7-8.05-2.75-10.5-7.55-1.95-3.65-1.7-12.9.4-12.8 6.55-24.85 6.05-11.85 7.8-20.95 1.25-6.65.1-7.7-.9-.8-3.9-.4l-5.7 1.2q-3 .55-3.85-4.1t2.5-5.4q3.75-.85 5.45-1.7 1.6-.75 2.15-1.9.8-1.75-1.85-8.8m8-2.9q-.1-.35.85-.7 1-.35 1.05 0 .25 1.6 1.2 4.8.95 3.25 1.4 3.7l.85.45.8.1q.35 0 .45.9.15.95-.2.9l-1.15-.05-1.3-.35q-.8-.4-1.95-3.5z"/><path fill="#0d131a" d="M24.7 145.55q-2.1-8.2-.9-12 1.95-6.05 10-13.05.25-.2.3.9 0 1.15-.35 1.5-6 5.4-7.85 11.15-1.45 4.5 1.1 12.55 2.25 7.05 4.4 9.2 6.35 6.2 18.9 7.95 12.6 1.7 27.3-1.65 13.45-3.05 23.75-9.4 12.25-7.55 15.85-17.45 1.3-3.55-.2-11.65-1.6-8.55-4.7-11.5-4.3-4.2-12.9-5.35-.35-.05-.4-.9t.3-.8q5.2.75 8.15 1.7 3.85 1.25 6.15 3.45 3.65 3.55 5.3 12.5 1.5 8.6-.15 13.25-3.9 10.6-17.1 18.65-10.95 6.7-24.1 9.5-15.6 3.3-28.4 1.35-12.6-1.95-19.2-8.5-3.15-3.15-5.25-11.4"/><path fill="#0d131a" d="M24.3 133.65q.1-.35.9-.2t.7.5q-.9 3.3 1.45 6.95 2.45 3.85 7.6 6.6 12.65 6.85 32.65 3.6 30-4.9 42.95-24.55 2.15-3.2 2.85-3 .65.25-1.25 3.55-5.25 9.1-16.25 15.9-12.2 7.5-28.2 10-19.4 3-32.6-3.45-12.6-6.15-10.8-15.9"/><path fill="#0d131a" d="M35.15 160.8q-.2-.3.55-.7l.85-.1q5.25 9.1 17.3 13.45 11.95 4.35 25.2 2.05 13.75-2.4 22.95-11.65 8.35-8.35 10.8-19.75.05-.35 1.1-1.2t1-.5q-2.5 13.9-11.9 23.2-9.45 9.3-23.65 11.75-13.9 2.45-26.3-2.2-12.5-4.65-17.9-14.35"/><path fill="#0d131a" d="M54.4 174.55q.3-.2.95.3.65.55.4.75-3.7 2.65-5.05 7.35-1.35 4.6.75 6.5 3.5 3.1 11.3-.55 8.4-3.9 11.05-11.95.1-.3.95-.2t.75.45q-3.05 9.35-12.15 13.75-8.65 4.15-13.1.1-2.85-2.5-1.4-8.05 1.45-5.5 5.55-8.45m-1-87.4q2.3-.35 4.4 2.6 1.8 2.65 2.4 6.05.75 4.45-.55 7.65-1.1 2.85-2.9 3.1-1.85.3-3.75-1.95-2.15-2.6-2.9-7.3-.55-3.65.25-6.6.9-3.25 3.05-3.55m5.3 8.9q-.5-3.2-2.1-5.65-1.55-2.4-2.95-2.2-1.5.2-2.15 2.95-.55 2.55-.05 5.95.65 4.05 2.3 6.5 1.45 2.1 2.75 1.9 1.5-.2 2.15-3.05t.05-6.4M44.1 108.7q-1.1.05-1.95 2.5-.9 2.65-.6 6.25.3 3.45 1.75 5.9 1.45 2.35 2.8 2.15 1.2-.15 1.95-2.4.85-2.65.35-6.45-.45-3.75-1.8-6-1.2-2.05-2.5-1.95m-3 2.05q1.15-3.05 2.95-3.15t3.4 2.15q1.75 2.5 2.3 6.7.5 4.3-.75 7.3-1.1 2.65-2.7 2.85-1.8.2-3.5-2-2-2.55-2.45-6.95-.4-3.8.75-6.9m34.6-7.45q2.75 2.8 3.65 7.85.75 4.05-.3 7.4-1.1 3.55-3.6 4.15-2.35.55-4.95-2.05-2.8-2.75-3.65-7.1-.85-4.15.3-7.95 1.2-3.8 3.6-4.3 2.5-.55 4.95 2m-.8 1.2q-2-2.4-3.85-2.15t-2.7 3.55q-.9 3.25-.2 7.35.7 4 3 6.5 2.1 2.3 3.95 1.9 1.75-.4 2.6-3.1 1-2.95.2-7.05-.8-4.35-3-7"/><path fill="#0d131a" d="M74.6 111.6q.4 1.95.2 3.45-.25 1.45-1.05 1.6-.75.2-1.6-1.05-.85-1.3-1.25-3.2-.4-1.95-.15-3.4.25-1.5 1-1.65.75-.2 1.6 1.05t1.25 3.2m-28.2 5.35q.25 1.8 0 3-.3 1.3-.95 1.35-.7.1-1.25-1.05-.55-1.1-.75-2.9-.25-1.8.05-3 .25-1.2.9-1.3t1.25 1q.5 1.1.75 2.9m8.75 19.5q-3.5-2.15-4.35-6.2-.45-2.15.05-2.95.6-.95 3.05-.9l6.15-.6q2.5-.6 5.5-2.05 2.3-1.15 3.3-.6.9.45 1.25 2.7.8 4.6-1.5 8-2.1 3.05-5.6 3.8-4.35.9-7.85-1.2M52 129.9q.6 2.85 3.2 4.75 3.1 2.3 7.45 1.4 2.9-.6 4.7-3.05 2.1-2.8 1.55-6.8-.15-1.45-.7-1.75-.6-.3-2 .45-2.95 1.6-5.6 2.25l-6.7.6q-1.45-.05-1.85.45-.3.4-.05 1.7m7.6-69.3q.25-.15.65.6.4.7.1.85-.7.4-1 1.15-.35.75-.15 1.55.5 1.85-.05 2t-1.4-1.6q-.6-1.4-.4-2.25.3-1.25 2.25-2.3"/><path fill="#0d131a" d="M62.4 125.35q.3-.1.7.35.4.5.1.6-2.95 1.15-4.8 4.4-1.75 3.1-1.15 5.55.1.3-.5.45-.6.2-.7-.15-.7-3.6.95-6.65 1.75-3.15 5.4-4.55"/><path fill="#00a63c" d="M102.95 47.15q0 9.5-6.9 16.2t-16.7 6.7q-9.75 0-16.65-6.7t-6.9-16.2 6.9-16.2q6.9-6.75 16.65-6.75 9.8 0 16.7 6.75 6.9 6.7 6.9 16.2"/><path fill="#d3965c" d="M114.85 151q2.2 5.7.3 12.25-2.2 7.5-7.05 11.05-3.5 2.55-6.9 2.45-1.95-.05-3.25-1.4l-.85-1.3q-1.1.7-3.55.4-2.5-.3-2.8-1.35-.75-2.7 1.45-6.3l2.3-3q1.1-9.65 6.5-15 4.2-4.2 7.75-3.8 3.95.5 6.1 6"/><path fill="#009233" d="M102.9 43.2q2.35 11.5-8.3 21.4-6.65 6.2-18.65 4.75-11.5-1.4-14.35-7.15 15.95 4.05 27.35-5.3 11.05-9.05 9.5-23.25l1.8 2.6q1.9 3.35 2.65 6.95"/><path fill="#ad7b49" d="m91.45 168.45 1.15.5 2.8.95 1.7 3.5-3.05.65q-3.15.3-3.6-1.25-.45-1.6.25-3.15z"/><path fill="#ad7b49" d="M96.05 156.75q.5 4.4 5.75 8.9 5.65 4.85 10.9 3.6l-3.35 4.45q-4.35 4.15-9.45 2.75-5.15-1.4-5.05-10.5 0-2.9.55-6.25z"/><path fill="#0d131a" d="M97.6 30.9q6 6.25 6.4 14.45.55 10.95-6.8 18.15-6.85 6.65-16.7 6.95-11.75.4-18.85-6.4-6.9-6.55-6.9-17.15 0-10.15 7.6-17.1 7.35-6.75 17.15-6.5 11.15.3 18.1 7.6m4.2 14.8q-.4-8-6.35-14-6.45-6.5-16-6.75-8.6-.25-15.3 5.75-7.2 6.45-7.2 16.2 0 11.55 8.4 17.5 6.6 4.7 15.1 4.4 8.7-.3 14.95-6.3 6.95-6.65 6.4-16.8m12.45 115.75q1.15-6.45-.7-10.65-1.65-3.8-5.1-4.45-2.95-.5-6.4 2.7-3.65 3.45-5.2 8.85-2.4 8.2-.4 13.35 1.5 3.9 4.45 4.5 3.8.8 7.7-2.9 4.3-4.1 5.65-11.4m-13.05-14.1q4.2-3.8 7.65-3.15 4.4.8 6.4 5.7 2 4.85.75 11.7-1.5 8.2-6.65 12.65-4.5 3.9-8.8 2.95-3.95-.8-5.75-5.7-2.1-5.7.3-14.2 1.7-6 6.1-9.95"/><path fill="#0d131a" d="M95.05 161.45q.2-.25.35 1.05.15 1.35-.05 1.6-2.45 2.95-3.5 5.5-.9 2.25-.35 3.15.5.75 2.15.7l2.5-.5q.4-.2.9.6.5.75.1.95l-3.8.45q-2.7-.25-3.25-1.6-.65-1.65.9-5.25 1.5-3.6 4.05-6.65"/></svg>