<svg xmlns="http://www.w3.org/2000/svg" width="184" height="248" viewBox="-2.25 -0.4 184.25 247.75"><path fill="#00568a" d="m124.65 187.75 2.2 2.2q-.7 5.9-8.2 12.15-3.7 3.1-7.3 5.05-1.55 12.5-11.55 19.5-5.05 3.45-9.75 4.45 0 6.5-2.65 11.3-1.3 2.35-2.65 3.45Q74.4 243.6 67.4 232.9q-2.2-3.4-3.8-7.15l-1.15-3.15 9.65-14.7 45.5-23.6q4 1.05 7.05 3.45"/><path fill="#f9dbe8" d="M8.7 196.35q-5-2.35-6.75-5.55-1.35-2.5-.25-4.35 1.3-2.15 5.35-1.75 2.2.2 6.25 2.45 2.05 1.1 3.6 2.15 6.8-.2 28.85-7.7 11.05-3.75 20.7-7.45l-2.55 5.8q-8.25 4.35-26.8 11.25-16.95 6.3-20.55 6.9-3.05.55-7.85-1.75"/><path fill="#f9dbe8" d="M45.85 197.7q2.4-5.45 8.05-6.5 2.8-.5 5.15.05l7.4-18.1 30.55-.2 9.25 3.6q2.4-2.75 7-1.55 4.7 1.25 5.1 5.3.45 4.7-2.65 8.4-1.55 1.85-3.2 2.75 1.35 2.05.85 6.8-.6 5-2.95 6.6-4.7 3.3-9.6 3.15l-3.95-.85q.45 2.85-1.35 6.5-2.35 4.7-7.35 6.5-4.15 1.45-8.35-.7-4.5-2.25-6.75-7.6.6 1.9-1.9 5.85-3.15 4.9-8.7 4.9-6.05 0-9.05-3.75-3.05-3.85-1.5-9.65-3.95-1.15-5.65-5.45-1.45-3.7-.4-6.05"/><path fill="#ee848c" d="M80.15 190.7q2.65 2.9 2.55 7.35-.1 3.4-2.9 5.8-2.7 2.4-6.35 2.45-3.7.1-6.2-2.3-2.55-2.45-2.8-6.25-.3-3.85 2.1-6.7Q69 188.1 73 187.9q4.4-.2 7.15 2.8"/><path fill="#d7beca" d="m47.65 181.05 18.65-7-2.5 6.35-5.5 2.4q-2.35-2.05-6.75-2.1z"/><path fill="#ce737b" d="M65.75 202.25q6.2 1.7 10.75-.75 4.45-2.4 5.8-7.7l.4 4.45q-.4 4.85-4.25 6.8-3.15 1.6-6.65 1-3.85-.65-6.05-3.8"/><path fill="#d7beca" d="M27.6 194.85q-9.35 3.55-13.45 3.25-5.55-.35-9.35-4.15-1.25-1.25-1.3-2.55-.05-1.2 1.1-1.75 2.9-1.3 8.9 3.15 2.7 2 10.4.95l12.25-2.5q-3.85 1.85-8.55 3.6m38.8-21.75q4.65 1.1 13.55 1.3l16.2-.95 10.5 2.7q1.4-1.8 4.9-1.65 3.7.15 5.1 2.8 2.95 5.6-.2 10.4-1.6 2.4-3.8 3.7 1.1 1.65.9 5.7-.2 4.75-2.55 7.1-3.75 3.8-9.3 3.95l-4.8-.6q-.1 4.85-2.8 8.4-2.55 3.3-6.35 4.35-3.85 1.05-7.35-.7-3.9-1.95-6.05-6.7 1.95 1.8 4.95 1.9 3.05.05 6.05-1.55 7.15-4 8-13.8 3.75 1.75 7.2 1.1 3.5-.65 4.8-3.4 1.75-3.55-.6-6.8-2.25-3.1-5.25-2.4-7.6-7.2-20.1-9.2-10.1-1.6-15.8.45zm6.75 38.55q-.65 5.25-3.25 8.05-3.75 4-11.1 2.55-5.4-1.05-7.1-5.95-1.25-3.8-.1-7.15-1.55-.7-3.1-2.2-3.05-3-2.95-7.05l2.35 2.55q3.15 2.25 7 .85-1.65 4-.25 7.4 1.25 3.15 4.5 4.75 3.3 1.55 7 .7 4-.9 7-4.5"/><path fill="#00426f" d="M80.35 219.3q-4.55 2.7-7.25 6.6-3.1 4.4-3.3 9.6-4.55-3.9-7.2-13.2 2.05.1 4.4-1.15 4.7-2.45 6.3-9 1.45 2.9 2.75 4.4 1.85 2.1 4.3 2.75m9.85 11.2q.1 5-1.95 10.55-1.05 2.75-2.1 4.5-.7-6.3-4.25-11.45l-1.35-2.1q-.1-.55 1.45-.5 5.6.2 8.2-1m29.5-35.7q4.65-2 7.15-4.9l-.65 1.95q-.9 2.4-2.35 4.65-4.55 7.3-12.4 10.75l-.1 1.85q-.25 2.35-1.05 4.7-2.55 7.55-9.5 12.4 1.55-2.4 2.7-5.95 2.35-7.05.4-12.65 4.65-.35 7.2-3.65 2.4-3.05 2.5-7.85 1.9.5 6.1-1.3"/><path fill="#0d131a" d="M63.6 197.3q0-4.3 2.8-7.25 2.75-2.95 6.7-2.95 4.4.1 7.4 2.9 3.05 2.85 3.05 7.2 0 4.4-2.95 7.25-2.8 2.65-6.65 2.65-4.55 0-7.5-2.85-2.85-2.8-2.85-6.95m16.1-6.15q-2.45-2.8-6.65-2.85-3.3-.05-5.65 2.6-2.4 2.6-2.4 6.45 0 3.6 2.5 6 2.45 2.4 6.15 2.4 3.4 0 5.8-2.45 2.5-2.55 2.5-6.1t-2.25-6.05m-61.15-.9q-1.7.35-2.55-.3-5.05-3.8-8.75-4.2-2.8-.3-4.05 1.3-1.95 2.55 2.65 6.45 4.75 4.05 10.3 3.5 5.05-.5 25.15-8.15 19.8-7.6 21.75-9.55.25-.25.75.45t.15.9q-11.8 6.05-28.2 12.2-14.6 5.45-19.1 6.1-6.25.9-12.55-4.25-6.35-5.3-3.15-9.35 1.75-2.25 5.9-1.7 4.65.65 10.5 4.75 8.4-.95 26.6-6.95 17.1-5.7 22.25-8.7.4-.2.85.5.5.7.1.9-6.45 3.8-23.85 9.35-15.5 4.9-24.75 6.75"/><path fill="#0d131a" d="M66.15 172.85q.25-.35 1.1.15.85.55.6.9-3.05 4.9-5.85 11.95-2.9 7.35-4.2 13.7-.35 1.85-.9 1.75-.5-.15-.3-2.05.95-6.8 3.95-14.7 2.65-6.95 5.6-11.7"/><path fill="#0d131a" d="M45.3 197.05q1.6-4.35 6.6-6.15 4.05-1.45 7.5-.7.4.1.15.85-.3.8-.75.75-4.45-.35-7.4 1.15-3 1.5-4 4.6-1.55 4.65 1.1 8.1 1.85 2.4 3.55 2.7.4.1.25.95t-.55.7q-4.15-1.5-6.05-5.2-1.85-3.75-.4-7.75"/><path fill="#0d131a" d="M96.1 207.05q.3-2.55.8-2.6t.55 2.55q.1 6.35-3.15 10.3-2.8 3.35-7.15 4.15-4.4.8-8.5-1.55-3.85-2.2-5.15-5.65-1 5-5.3 7.65-4.4 2.65-9.85 1.3-4.75-1.2-6.85-5.3-2.25-4.3-.25-9.35 1-2.6 1.45-2.55.4.1-.1 2.65-.9 4.75.7 8.1 1.7 3.45 5.65 4.35 5 1.2 8.75-1.4 3.8-2.6 4.45-7.75.25-2.05.65-2.05.4-.05 1.25 1.8 2.15 4.8 6 6.75 3.15 1.65 6.4 1 8.4-1.7 9.65-12.4"/><path fill="#0d131a" d="M112.5 189.85q1.85 3.35 1.85 7.4-.05 4.75-2.9 7.8-3.1 3.3-8.8 3.75l-6.1-.45q-.4-.2-.15-1 .25-.85.65-.75 3.45.95 7.3.15 3.8-.8 5.7-2.9 1.95-2.15 2.4-5.4.5-3.6-1-7.6-1-2.7-.6-2.95t1.65 1.95"/><path fill="#0d131a" d="M113.05 174.1q3.7.95 5.55 4.45 1.3 2.45.4 5.9-1.15 4.55-6 8.1-.35.25-.55-.55-.2-.85.15-1.1 3.15-2.8 4.2-6.25.85-2.85.1-4.85-.8-2.15-3.25-3.5-3.3-1.8-6.95.55-1.05.65-1.4.15-.4-.55.6-1.3 3.25-2.6 7.15-1.6"/><path fill="#0d131a" d="M117.7 185.3q.55-.8.7-1.85 4.25 1.45 6.8 3.2 2.8 2 2.75 3.8-.15 3.9-5.1 9.3-5.2 5.7-11.65 8.25-2.45.95-2.5.3t2.5-2.15q6.6-3.9 10.5-8.4 3.55-4.1 3.65-7.2-.25-1.2-2.4-2.65-2.05-1.35-5.25-2.6"/><path fill="#0d131a" d="M110.65 207.2q.1-.4 1-.65.95-.2.9.2-1.4 10.7-8.5 17.8-6.5 6.45-15.2 7.65l-2.75-.15q-.15-.5 2.45-1.2 8.75-2.3 14.35-8.2 5.75-6.05 7.75-15.45"/><path fill="#0d131a" d="M84.6 244.35q1.25-.25 2.7-4.65 1.5-4.4 1.5-7.95 0-.6 1.2-.9 1.15-.3 1.15.4.05 5-2.05 10.3-2.1 5.25-4.15 5.45-3.6.35-11.65-6.35-9.55-8-12.1-17.9-.1-.4 1.15-.55 1.3-.15 1.4.25 2.15 8.4 10.45 15.9 7.35 6.7 10.4 6"/><path fill="#f9dbe8" d="M169.1 174.7q4.85-2.4 8.6-.8 4.3 1.85.45 8.5-3.75 6.5-9.7 9.65-4.4 2.35-7.8 2.15-9.5-.6-38.1-7.65-28.9-7.1-39.1-11.45 6.7-.6 13.2-2.15 9.95 4.05 36.1 8.45l24.15 3.55q4.6-6.5 12.2-10.25"/><path fill="#d7beca" d="m81.45 175.05 15-1.5 42.4 8.75q-6.6-1.2-10.45-.05-3.05.9-6.25 4.05zm86.45 18.15q-3.5 2-15.35 0-9.3-1.6-11.95-2.7l13.05.6q9.55-.25 12-3.65 2.5-3.55 5.9-5.3 3.2-1.7 4.8-.7 2.65 1.65-1.1 5.85-3.05 3.45-7.35 5.9"/><path fill="#0d131a" d="M167.4 174.3q6.3-3.3 10.55-1.35 3.4 1.55 3.05 5.45-.35 3.6-3.55 7.7-3.25 4.1-7.7 6.65-4.9 2.8-9.35 2.5-6.5-.5-33.8-6.95-28.4-6.75-35.5-9.85-1.55-.7-1.3-1.25.2-.55 1.8 0 7.85 2.95 35.75 9.4 28.35 6.5 33.95 6.5 7.55 0 13.65-8.1 2.45-3.25 3.05-6.1.65-2.95-1.1-3.85-3.4-1.7-9.5 1.9-5.1 3.05-8.75 7.4-.95 1.15-1.95 1.1-7.2-.1-29.8-4.35-22.1-4.1-31.2-6.9-.4-.1.45-.8t1.25-.6q9.65 2.9 29.95 6.6 20.9 3.85 29.25 4.05 4.95-6.05 10.8-9.15"/><path fill="#fff" d="M125.25 29.35q-5.1-4.4-5.2-10.4-.15-7.8 4.25-12.7 4.4-4.95 11.7-5.2 7.65-.25 12.3 6.35 4 5.6 3.45 11.35-.5 5.7-4.2 10-4.5 5.25-11.75 5-5.75-.25-10.55-4.4"/><path fill="#00568a" d="m137.2 33.75 6.2-1.8q8.35 13.65 11.15 27.2 2.05 9.85.8 12.65-1.3 3.05-9.15 6.1l-7.65 2.5q6.75 14.8 6.05 23.55-.7 8.45-8.15 7.9 6.15 8 8.8 13.55 4.15 8.65 4.15 18.3 0 11.1-5.75 18.15-6 7.4-16.15 7.65-9.85.3-16-7.85-5.9-7.85-5.75-19.65.15-8.3 5.05-17.05 2.45-4.4 4.9-7.1-17.65-11.6-40.65-14.15L61 103.1l-5.4.35q-5.5 1.6-12.25 8.05-8.35 7.95-10.75 17.2-2.2 8.65-.45 16.95.9 4.2 2.25 6.6-5.95-1.8-10.75-7.55-6.35-7.6-5.4-17.65 1.4-14.55 16.5-23.2 7.55-4.3 14.85-5.75-2.55-19.65 14.7-24.8 14.05-4.2 35.7 1.75-1.05-9.8 0-16.4 1.5-8.95 6.9-13.1 5.8-4.45 18.5 2.95 6.4 3.7 11.6 8.25z"/><path fill="#f9dbe8" d="M44.3 110.55q5.35-5 11.25-7.05 22.05-1.8 43.35 5.9 10.65 3.85 16.9 8.05-11.3 14.9-10.05 28.7.95 11.15 9.8 20.2-9.3 5.6-21.45 7.65-11.85 2-23.65.15-12.1-1.9-21.25-7.45-9.85-6-14.45-15.15-7-13.95.8-29.4 3.35-6.6 8.75-11.6"/><path fill="#dbdcdc" d="M122.25 25.85q7.05 3.7 16.6.35 10.2-3.6 12.7-12.55.6 3.7-.3 7.9-1.75 8.4-9.15 11-7.7 2.7-13.75-.6-4.25-2.3-6.1-6.1"/><path fill="#00426f" d="M137.1 33.6q2.7.1 4.7-.9l1.5-1.05q3.75 5.4 7.6 15.1 3.65 9.3 3.9 13.2-3.85-9.25-8.2-13.05-4.1-3.65-9.15-2.9z"/><path fill="#00426f" d="m154.7 57.2 1.85 12.75q-1.95 4.35-8 7.05l-10.75 3.7-3.85-7.85q-.5-1.15 2.65-.35 5.45 1.5 10.85-1.8 6.7-4.05 7.25-13.5m-16.45 54.7-1.75.1q4.4 4.7 7.6 10.9 1.65 3.05 2.35 5.2-4.6-6.5-9.85-11.85-4.25-4.4-7.15-6.3-3-1.95-2.95-2.25.1-.5 4.7-.9 5.95-.45 8.75-3.35 2.8-2.95 3.6-9.65 2.9 12.2-1.8 16.45-1.45 1.3-3.5 1.65m-31.4 40.15q10.85 7.4 24.65 2.5 14.1-5.05 17.75-18.7 1.45 9.9-1.45 18.4-4.05 12-15.95 15.05-8.15 2.1-15.65-3-7.55-5.1-9.35-14.25m-66.3-36.95q-13.55 16.4-6.2 36.75-4.85-1.4-9.25-5.85-8.7-8.85-6.15-24 1 5.45 4.2 5.6 2.75.1 5.2-3.3 5.3-7.4 11.6-12.5 6.9-5.65 15.65-9.05l-5 3.1q-5.8 4.1-10.05 9.25"/><path fill="#f6c6c5" d="M74 193.9q0 1.15-.8 2-.85.8-2 .8t-2-.8q-.8-.85-.8-2t.8-2q.85-.8 2-.8t2 .8q.8.85.8 2"/><path fill="#00426f" d="M52 81.95q-.8 4.3.65 7.45 1.55 3.35 5.5 4.85 3.15 1.2 1.8 2.05-1.55.95-10.05 2.55-.4-2.9-.35-6.45.1-7.1 2.45-10.45"/><path fill="#d7beca" d="M80.15 175.7q-19.65-.55-34.5-11.65 16.7 6.55 34.25 4.25 19.2-2.5 27.25-14.7 1.95 6.1 5.5 10.05 1.8 2 3.2 2.75-16.35 9.8-35.7 9.3"/><path fill="#ee848c" d="M75.65 145.75q-.65 3-4.95 4.55-4.9 1.75-11.2-.2-10.45-3.3-8.75-10.75.85-3.65 5.15-5.3 4.05-1.5 8.95-.5 6.45 1.35 9.3 5.7 2.25 3.4 1.5 6.5"/><path fill="#f6c6c5" d="M64.65 139.65q-.2 1.05-1.5 1.6l-2.95.3q-1.7-.3-2.75-1.25-1.05-.9-.85-2 .2-1.05 1.5-1.6l2.95-.25q1.65.25 2.7 1.2t.9 2"/><path fill="#ce737b" d="M50.95 143.15q6.65 4.8 14.9 3.95 4.8-.45 6.4-4 1.5-3.3-.55-6.55 5.6 3.95 3.55 9.05-2 5.05-8.95 5.45-6.2.3-11.1-2.75-4.25-2.7-4.25-5.15"/><path fill="#0d131a" d="M55.75 104.4q-8.5 3.4-14.5 10.75-6.1 7.45-7.9 17.1Q30.4 147.8 42 159.6q10.45 10.5 27.2 13.5 3.95.7 3.7 1.35-.2.65-4.45 0-15.9-2.3-27.2-12.95-13.35-12.55-10.15-29.55 2-10.8 10.25-19.7 7.25-7.8 13.9-9.25 10.85-2.4 30.25 1.65 20.4 4.25 30.8 12.05l-1.5 1.8q-9.6-7.2-28.25-11.6-18.35-4.3-30.8-2.5m61.3 62.6q-5.65 4.1-16.85 6.75-10.25 2.4-17 1.95-3.4-.2-3.35-.75.05-.5 3.15-.6 7.7-.15 16.45-2.5 10-2.6 15.65-6.75l.8 1.1zm-16.8-92.7q.4.1.2 1.1-.25.95-.65.85-27.8-6.65-40.3.7-10.45 6.15-8.65 20.9.05.4-.95.6-.95.15-1.05-.25-2.75-15.6 7.75-22.6 12.95-8.65 43.65-1.3"/><path fill="#0d131a" d="m50.8 97.25 3.8.15q.15.6-3.6 1.4-13.25 2.7-21.45 9.75-7.4 6.4-9.25 15.05-1.8 8.2 1.9 15.75 3.85 7.8 12.15 12.05.4.2.55 1.25.15 1.1-.25.95-10.35-3.85-14.9-12.55-4.3-8.2-2.05-17.7 2.25-9.7 10.45-16.6 9-7.65 22.65-9.5m96.3-93.1q5.85 5.05 6 13.05.15 7.5-4.9 12.65-5 5.1-12 4.85-7.55-.25-12.7-5.45-4.75-4.8-4.85-10.85-.1-7.6 4.6-12.75 4.7-5.1 12.1-5.65 6.4-.4 11.75 4.15m3.25 13.5q-.05-6.85-4.7-11.3-4.45-4.3-10.3-4-6.2.35-10.1 4.75-4.05 4.55-3.8 11.65.2 5.7 4.85 9.8 4.4 3.9 9.9 3.95 6.05.05 10.3-4.85 3.9-4.55 3.85-10"/><path fill="#0d131a" d="M136.2 34q0-.4 1.1-.6t1.1.2l-.05 24q0 1.5-.35 1.65-.4.2-1.55-.9-16.7-15.8-26.75-12.45-11.15 3.65-8.45 30.4.4 3.9-.45 3.8t-1.4-3.8q-3.7-23.75 5.65-31.1 10.1-8 30.55 9.35zm1.3 46.5q-1.65-4.1-.9-4.3.7-.2 2.7 3.6 6.15 11.55 6.65 21.3.6 11.3-7.75 11.45 8.15 9.75 11.05 20.7 2.7 10.1.5 19.05-2.2 8.75-8.35 13.75-6.5 5.25-15.45 4.75-8.25-.45-13.95-6.5-5.4-5.7-6.85-14.65-1.55-9.1 1.55-18.3 3.35-10 11.35-17.4 2.4-2.2 2.75-1.7.35.45-1.85 2.95-7.45 8.55-10.25 18.3-2.5 8.75-.85 16.85 1.6 7.7 6.45 12.6 4.9 5 11.55 5.4 8.3.5 14.15-4.7 5.55-4.95 7.3-13.5 1.75-8.8-1.1-18.45-3.15-10.5-11.1-19.4-.85-.95-.75-1.3.1-.45 1.6-.4 14 .8 1.55-30.1"/><path fill="#0d131a" d="M142 32.45q-.25-.3.65-.9.9-.65 1.1-.3 6.1 7.85 10.15 20.45 3.7 11.7 3.15 18.85-.3 3.75-6.35 6.95-5.45 2.95-11.9 3.8-.4.1-.65-.9-.2-1 .2-1.1 6.15-1.3 10.9-3.95 4.9-2.75 5-5.3.35-8.3-3.55-20-3.8-11.3-8.7-17.6M51.25 145.4q-2.2-3.3-1.2-6.75.95-3.25 4.7-5 4.2-2 9.75-.95 6.35 1.15 9.85 5.05 3.25 3.7 2.3 7.75-.95 3.9-5.55 5.6-5.15 1.9-11.85-.25-5.55-1.75-8-5.45m.3-5.8q-.75 3.05 1.6 5.8 2.3 2.75 6.5 3.9l9.8.35q4.4-1.3 5.1-4.75.7-3.35-2.2-6.4-3-3.2-8.2-4.15-4.5-.85-8.1.6-3.75 1.45-4.5 4.65m-4.65-13.95q1.65.35 2.2 2.85.6 2.4-.2 5.55-.8 3.2-2.4 4.6-1.35 1.2-2.85.8-1.6-.45-2.3-2.65-.8-2.35-.05-5.25.8-3.35 2.65-4.9 1.45-1.3 2.95-1m47.4 8.9q2.2.4 3.25 2.85 1.15 2.6.3 6.25-.8 3.4-3 4.95-1.9 1.35-3.85.75-2.1-.6-3.1-2.6-1.1-2.3-.45-5.65.75-3.6 2.85-5.35 1.9-1.6 4-1.2"/><path fill="#fff" d="M45.85 129.9q.55.1.8 1 .3.95.05 2.15-.7 2.85-2.05 2.35-.5-.15-.7-1.05-.25-.9-.05-1.9.3-1.35.9-2 .5-.65 1.05-.55m47.7 8.75q.8.2 1.05 1.2.3 1.05-.1 2.45-.7 2.95-2.5 2.6-.8-.2-1.1-1.15t0-2.25q.7-3.25 2.65-2.85"/><path fill="#0d131a" d="M73.4 160.8q-4.4 1.85-9.7.7-4.1-.85-7-3.75-2.65-2.6-3.45-5.95-.35-1.35 0-1.5.4-.1 1.05 1.15 3.55 6.75 9.85 8l8-.35q3.65-1.2 6.5-4.15 1.2-1.25 1.5-.95.25.25-.65 1.7-2.2 3.5-6.1 5.1"/></svg>