<svg xmlns="http://www.w3.org/2000/svg" width="395" height="355" viewBox="-0.25 -0.85 395.25 354.75"><path fill="#5892bf" d="m125.8 214.05.15 6.1-3.6-2.4zm99.2-81.7 12.75-1.75 16.45-.5q-1.9 3.2-10.25 8.85-3.75 2.5-8.3 5.15-4.8 2.7-7.7 4l-5.6-6.6zM126.8 5.4q6.5 3.7 5.45 13-9 8.85-14.8 21.3-5.4 11.4-6.6 22.3-3.1 2.35-7.5 4.75-2.45 1.4-4.45.6-1.85-.7-2.9-3.1-6.05-13.15-2.4-28.75Q97.45 19.05 110.25 9q9.55-7.55 16.55-3.6"/><path fill="#5892bf" d="M338.5 167.9q-8.05 3.1-28.5 7.4-20.85 4.35-31.5 5.1 8 4 23.1 7.7 11.2 2.75 21 4.25 2.15-.35 3.85-2.05 1.7-1.6 3.3-4.9 4.85-10.15 8.75-17.5m11.15-15.2q4.95-6.45 9.4-9.95-2.25 11.85-4 32.5-1.95 23.55.15 26.35 2.1 2.75 16.6 9 11.3 4.9 20.75 8.15-15.8 7.9-41.3 10.6-26.7 2.85-48.9-1.9 2.6 8.25 2.6 21.3 0 9.65-1.35 20.65.65 5.45 3.9 13.1 1.35 3.15 2.55 4.75 1.75 2.3 4.95 4.25 3.3 2.05 7.7 7.75 4.1 5.25 6.4 9.9 2 3.95 2.15 6.8.15 2.1-.75 4.45-2.75 7.2-17.45 12.25-14.85 5.15-23.8 1.75-3.75-1.4-11.45-12.5-7-10.1-7.7-12.9-.4-1.8 1.15-9.5 1.4-6.85 3.35-13.85-1.9-3.75-6.9-8.7-4.1-4.15-9.6-8.45-10.9-8.55-14.9-23.45-4.35-16.05.05-37.3-6.2-3.35-15.4-9.75-8.35-5.75-15.25-11.25l-3.6 4q-7.15-2.55-11-4.35 3.25-4.45 8.5-15.1 5.1-10.4 5-12.15-.05-.65-1-1.3-.95-.6-1.9-.7-2.35-.25-7.35 1.8-4.1 1.65-7.55 3.65-7.35-13-10.9-38.8-2.85-21.25-2.05-39.15.25-6.25-2.5-8.3-2.7-2-8.5-.2-5.55 1.7-19.2 13.75-17 15-22.55 18.75-3.3 2.2-5.45 1.45-1.6-.55-3.55-3.45-9.05-13.55-9.2-31.9-.2-19.4 9.7-39.75 8.55-17.6 27.9-27.8 8.7-4.6 16.85-5.85 8.45-1.3 14.35 1.4 13.3 6.05 17.3 21 3.9 14.35-2.05 31.4-2.75 7.9-3.2 18-.4 7.95.6 12.85.65 3.35 4.25 11.85l6.1 13.65 4.35.1q2.35-.4 4.4-1.35 3.05-1.35 5.3-1.35 2.3 0 4.7 1.5 1.25.75 6.05 1.65l6.65 1.05q10.05-22.6 29.45-47.75 18.6-24.2 32.55-33.9 0 11.35-5.45 46.75-4.7 30.55-10.1 58.2 9.65 7.05 32 15.8 17.55 6.85 31 10.55zM217.8 136.5q5.5 6.4 10.2 11.3 6.05-2.35 14.75-8.2 9.1-6.15 11.55-9.95l-15.95.85-14.5 2q-2.4.65-3.8 1.65-1.1.8-2.25 2.35"/><path fill="#5892bf" d="M37.2 153.4q-5.9-1.15-18-1.4-9.05-.15-17.65.2 2.8-5.55 41.1-16.3 20.05-5.6 48.05-12.55 2.95-.85 5.05-.9 2.4-.05 5.4.8 12.7 3.55 28.7 2.3 16.85-1.35 23.5-7.25 0 19.35-.8 27.7-1.2-1.4-3.9-2.5l-5.75-1.75-15-1.4-18.75-.7q-4.8-.05-9.4 3.3-32.1 23.3-43.05 32-1.1-3.2-4.95-10.9zm108.15 54.85q-.1-2.5-1.85-9.85 5.45-2.8 8.75-3.75 2.5 21.4 11.65 37.15 9.55 16.5 25.65 25.55-2.5 1.85-9.6 3.2l-11.15 1.05q.1 2.45 2.85 5.55 2.35 2.65 4.45 3.7 3.2 1.55 3.85 5.85l1.2 6.5 1.3 6.3q.35 1.55-.05 2.65-.4 1-1.8 2.35-2.25 2.15-11.45 8.75-9.8 7.05-14.95 9.95l-12.45-3.7L131 302l-2.9-9.1 5.7-6.3q3.1-3.75 3.55-4.85.8-1.85-.6-7.1-8.65-6.65-15.45-12.9-10.2-9.4-10.55-13-.35-4.1 1.4-10.7 1.7-6.55 4.35-11.05 0 2.75.5 9.75 3.05-3.65 28.35-28.5"/><path fill="#e73820" d="M180.75 83.15q-.75 20.7 2.15 41.55 3.4 24.65 10.8 37.9-3.25 4.35-7.15 10.7-3.85 6.4-4.2 7.95-.6 2.95.1 12.4.6 8.9 1.55 13.6 2-2 7.15-9.65 5-7.55 6.85-11.2 5.65 2.55 11 4.35l4-4.5q7.25 6.4 15.8 12.55 9 6.4 14.45 8.95L241.7 218q-.85 6.3-.85 9.15-4.25 2.5-13.8 8.55-10.1 6.45-14.45 9.45-21.55-17.55-28.5-24.75-2.15 4.2-4.25 9.55-2.2 5.65-3.1 9.55-3.35-1.9-8.45-6.1-4.85-4-7.7-7.15-7.2-15.95-9.05-40.05-1.5-19.8.8-38.2 1.15-9.25.95-25.35-.25-16.5-1.8-23.4-5.2 2.85-10.75 4.7-6.05 2.1-8.65 1.55 5.1-3.35 19.7-16.5 12-10.9 17.05-12.35l9.1-.25q3 1.55 2.8 6.75"/><path fill="#afb7d5" d="M265 274.2q-31.2 3.1-61.4-9.6-32.65-13.7-43-38.35 3.6 3.7 8.15 7.5 5.1 4.3 8 5.75 1.15-4.35 3.45-10.3t3.9-8.8q4.75 4.8 15 13.7 9.9 8.5 13.5 11.05l14.5-9.4q10-6.4 13.75-8.6-.7 9.85 3.45 21.2 4.15 11.4 10.6 17.15l5.55 4.75q3.25 2.7 4.55 3.95m62.55-43.85q17.95.35 27.65-1.55-9.2 11.45-25.45 22.3-13.3 8.9-25.8 14.05 1.4-6.95.7-19.3-.7-11.6-2.55-18.45 7 2.55 25.45 2.95M115.3 43.7q-3.25-4.8-9.95-5.85t-12.75 2.2q.6-5.5 3.3-11.95 2.4-5.8 5.3-9.7 6.05-2.85 13.3-1.25 8.2 1.8 11.3 8.65-3.95 4.85-10.5 17.9"/><path fill="#3e4e57" d="M158.55 74.45q-3.9 3.35-8.4 3.7-4.65.35-8.35-2.6 2.7-6.05 10.65-13.65 7.75-7.35 13.7-9.9 1.6 14.65-7.6 22.45"/><path fill="#ffec60" d="M148 66.7q1.6-1.95 4.85-5 2.95-2.8 4.8-4.25 2.1 3.75 1.5 8.05-.6 4.25-3.45 6.55-2.5 2.05-4.95.2-2.45-1.75-2.75-5.55"/><path fill="#fff" d="M155.55 85.55q1.7-1.6 5.9-4.75 0 1.75-.7 4.9-.65 3-1.3 4.45-1.8-1.35-3.9-4.6m6.65-5.45q4.35-2.6 7.55-3.95.2 1.9-.45 4.5-.55 2.2-1.5 4.15-2.75-1.6-5.6-4.7M45.4 147.7q5.35-3.3 11.9-6.85 2.85.4 7.85 2.7 4.85 2.15 6.95 3.9l-10.85 9.15q-7.15 5.8-9.9 7.6t-12.65 5.4q-8.8 3.2-15.5 5.1.5-4.25 6.1-12 4.55-6.25 7.9-9.3 2.25-2.05 8.2-5.7m137 46.65q-.7-10.15-.05-13.1.45-2.1 5.65-9.9 4.7-7.15 6.2-8.75 1-1.1 7.05-3.45 5.7-2.25 7.05-2.4.75-.05 1.75.65l1.55 1.45q-1.45 6.8-12.35 25.15-8.35 14.15-15.2 23.85-1-3.6-1.65-13.5m-47.25-13.75q3.25 4.25 6.55 13.75 2.85 8 3.95 14.2-11.85 11.15-28.75 27.75-.5-5.15-.2-11.45.4-6.8 1.6-10.55 4.1 4 7.65 5.85-.75-9.05 1.45-20.05 2.5-12.85 7.75-19.5m149.1 34.95q2.3 13.65 2.85 24.05 2.5-1.45 5.75-4.25 0 5.3-2.55 12.1-2.2 5.9-4.95 9.65-2.75-5.15-9.25-23.2-5.85-16.3-9.4-27.9 1.2-1.85 5.6-6.7 4.35-4.8 6.9-7.1 2.85 10.55 5.05 23.35m-155.9 77.35q2-.3 3.25 3.6 1.25 3.95-.6 5.5-2.75 2.3-8.8 4.1-5.85 1.75-9.05 1.4.7-3.25 7-8.95 6-5.35 8.2-5.65m3 9q2.4-1.85 6.65 1.4 4.2 3.25 3.3 6.2-.3.95-7.05 4.7-5.7 3.15-10 5.1.2-4.2 2.5-9.9 2.35-5.8 4.6-7.5m21.7 12.6q-1.75 2.3-7.7 5.6-5.35 2.95-8.85 4.1l2.4-6.9 2.95-7.35q.8-1.8 3.25-2.1 2.2-.25 4.6.7 2.45.95 3.5 2.5 1.15 1.75-.15 3.45"/><path fill="#46799e" d="m113.55 41.9 2 2.05q-4.8 11.25-5.25 18.5-5.85 4.35-9.1 5.1-2.85.65-4.15-1.45 2.4.45 7.2-6.85 4.35-6.65 9.3-17.35m11.2-37.15q4.2.65 6.15 5.6 1.45 3.6 1.35 7.75-3.1 2.45-6.55 7.3-1.55-2.4-3.9-4.5 3.75-11.7 2.95-16.15"/><path fill="#949bb4" d="M121.8 20.9q2.35 2.1 3.9 4.5-5.75 8.05-10.15 18.55l-2-2.05q5-10.85 8.25-21"/><path fill="#46799e" d="m166.2 57.05-.1-5.1q3.3-1.7 5.9-2.25-.1 1.35.2 4.3-2.6 1.05-6 3.05m-28.75 28.3q.9-4.3 4.2-9.65l2.7 1.45q-3.25 4.45-5.05 8.5-1.2 2.6-1.8 2.5t-.05-2.8"/><path fill="#27333a" d="m166.1 51.95.1 5.1q-3.65 2.15-6.95 4.8-.35-2.5-1.1-4.5 4.1-3.35 7.95-5.4M141.65 75.7q2.65-4.25 6.3-8.5.65 2.15 1.55 3.6-3.1 3.4-5.15 6.35z"/><path fill="#ddcc54" d="M147.95 67.2q4.8-5.6 10.2-9.85.75 2 1.1 4.5-5.05 3.85-9.75 8.95-.9-1.45-1.55-3.6"/><path fill="#c82e19" d="M169.9 76.05q5.6-1.85 8.7.9 1.4 1.35 2 4.8.55 3.3.25 7.15-.2 3.2.15 12.7.35 9.1.95 16.35-8.15 5.65-16.95 5.3-8.7-.35-12-6.35l-.45-8.05q-.5-5.65-1.5-9.4-4.15 2.45-9.3 4.3-6.25 2.3-9.55 1.85 2.95-2.25 10.5-8.8l12.75-11.05 1.9 2.4 2.2 1.95 1.2-4.65q.6-2.95.65-4.8l1-.6 2.5 2.65q1.75 1.55 3 2.15 2-4.65 2-8.8"/><path fill="#46799e" d="M180.85 88.9q.3-3.85-.25-7.15-.6-3.45-2-4.8.9-.5 1.55-2.05l.95-2.65q2.05.15 5.35-1.7l4.5-3.05q-1.65 7.4.4 17.55 1.5 7.65 3.9 12.6-1.6 6.75-5.2 12.1-3.35 4.9-8.1 8.2-.6-7.25-.95-16.35-.35-9.5-.15-12.7M56.8 160.05l2.25 4.9q.35.7.65.8t.9-.35q32.45-23.15 37.95-26.15 4.9-2.7 10.45-2.65 30.8.5 34 .95 6.3 1 9.75 2.85v5.55q-1.45-1.45-4.35-2.7-3.15-1.4-6.35-1.75l-16.95-1.2-15.75-.75q-5.1.25-8.15 2.35-7.95 5.5-21.7 15.55-17.85 13-22.6 17.3-4.1-8.25-5.25-10.9zM1 152.25q6.25-2.45 20.15-3.45 13-.9 22.55 0-2.6 1.65-5.95 4.25L19.2 152q-12.4-.2-18.2.25m200.45 28.7q2.4 1.5 5.75 2.65 1.1.35 1.65-.35 1.15-1.3 4.2-4.05.8-.75 2.45-1.1l3.55-.15q20.3 2.75 64.55-2.85 38.35-4.85 63.9-11.35-19.8 10-64.05 16.05-41.35 5.6-62.6 2.95-3.75-.45-5.45 1.2-3.6 3.5-6.25 6.6l-5.65-1.85q-3.85-1.35-5.35-2.15zm12-33.3q-.8 1.95-3.55-2.25-2.65-4-4.35-9.15-2.05-6.1.5-8.85 2.45-2.6 10-2.95 6.7-.25 19.85.55 14.05.85 19.4 2.05-.25 1.9-.8 2.85l-17.25.7q-12.4 1.1-16.1 3.15-1.8 1-4.2 5.15-2.55 4.45-3.5 8.75"/><path fill="#949bb4" d="m337.8 230.2 17.25-1.25q-4.55 7.5-19.8 18.25-15.15 10.75-31.5 18.05.95-6.7 1.15-13.7.2-7.65-.6-13.65 7.55-3.5 14.05-7.9 6.85.55 19.45.2m-93.35 19.6q2.75 7.3 9.2 14.15 2.85 3 11.4 10.35-33.3 1.7-59.8-8.75-31.7-12.55-44.85-40 4.9 5.3 9.45 9.15 4.35 3.65 7.2 4.95.7-4.25 3.25-10.85 13 10.15 30.15 15.55 15.95 5 34 5.45"/><path fill="#c82e19" d="M177.05 239.65q-2.85-1.3-7.2-4.95-4.55-3.85-9.45-9.15-7.9-16.45-8.55-37.8 8.35 25.35 28.45 41.05-2.55 6.6-3.25 10.85"/><path fill="#46799e" d="M122.15 262.5q-6.25-5.7-8.75-9.1-3.4-4.55-2.55-8.65.9 5.1 7.15 7.4 5.85 2.15 14.75 1.3 20.15-1.85 35.5-14.4 3.55 4.15 9.1 9 6.8 6 12.8 9.45-4.1 1.75-10.25 2.9l-11 1.1q1.8 5.95 6.85 9.1 4.15 2.6 4.15 5.85 0 1 1.15 5.7 1.25 4.95 1.35 6.5.25 2.35-.3 3.85-.55 1.65-2.1 2.8l-11.55 8.6q-10.7 7.75-14.55 9.55.25-2.9-3.15-4.8-3.75-2.05-8.05.15 3.6-6 2.85-15.5-.7-8.8-4.2-13.5-1.65-2.25-4.15-4.55l-4.85-4.05zm130.25.3q-6.65-8.4-8.85-17.75 5.05 9.15 14.9 16.15l14.1 9.4q6.5 5.35 12.9 4.2 5.6-1 8.9-6.25 4.25-6.7 6.65-19.6 2.05-11.15 1.55-18.85 2.25 7.3 2.4 19.6.15 11.5-1.5 18.2.5 4.3 2.45 10.4 2.25 7.05 4.45 9.45 1.3 3.9-2.75 6.65-3.75 2.55-10.15 2.95-6.65.4-12.35-1.8-6.5-2.55-9.35-7.65-2.45-4.45-6.05-8.75-4-4.9-7.35-7-5-3.15-9.95-9.35m75.95 60.4q-6.65 7.9-21.5 11.15-13.9 3.1-18.55-.4-3.7-2.75-10.5-11.85-6.9-9.25-7.7-12.75-.25-1.05.3-4.05.55-2.95 1.45-5.7-.1 3.55.65 6.7.6 2.7 1.7 4.45 3.95 6.5 8.95 12.55 5.55 6.7 8.3 7.7 7.1 2.6 21-2.75 13.15-5.1 15.15-9.7 2.3-5.15 1.6-9.4 1.8 4.25 1.85 6.95.1 3.8-2.7 7.1m20.25-93.6q-26.05 2.25-46.25-1.95-2.05-9.05-7.25-20.75 13.2 8.25 46.9 11.85 31.85 3.35 50.55-.15-15.95 8.65-43.95 11m6.9-57.7q-1.4 18.85-1.15 24.05.15 3.05 1.15 5.4 1.05 2.45 2.8 3.65-4.2-1.8-5.95-4.1-1.7-2.1-1.8-5.45-.35-9.25 1.4-24.45 2.25-19.1 6.4-27.55-1.4 8.75-2.85 28.45"/><path fill="#dbdcdc" d="M56.2 146.65q2.4-1.45 8.85-.75 5.95.6 7 1.6l-10.65 9-10.55 8.05q-2.1 1.25-12 4.85-9.3 3.3-15 4.95 7.05-7.5 14.25-13.9 9.9-8.85 18.1-13.8m148.75 23.7q3.65-4.05 3.65-3.55.2 2.4-8.95 17.8-9.45 15.9-15.6 22.9.95-10.75 12.8-27.1 4-5.45 8.1-10.05M135 180.85q2.6 2 6.25 11.75 3.5 9.45 4.25 15.85l-4.45 4.25q.25-5.8-1.95-16.3-1.8-8.4-4.1-15.55m-8.65 40.5q.9.7-.05 1.25l-2-.05q-1.55-.95-3.6-3.7-1.95-2.65-2.55-4.5 2.7 2.75 8.2 7m158.7-1.3q1.8 12.75 1.7 19.45-.05 2.1-1.25 1.6-1.15-.5-1.15-2.35 0-9.9-5.85-46.25 4.15 10.8 6.55 27.55m4.8 17.7 2.95-2.5q0 5.1-2.8 12.35-2.75 7-5.15 8.85 1.9-3.25 3.45-9.55 1.35-5.45 1.55-9.15"/><path fill="#46799e" d="M294.05 32.05Q294.5 44 288.4 85q-5.45 36.4-8.85 51.3-2-1.05-3.15-3.55-.9-2.05-1-4.15 3.45-12.9 10.1-47.75 6.4-33.45 8.55-48.8"/><path fill="#dbdcdc" d="M156.8 87.45q-.55-.6-1.25-2 .65-.75 5.85-4.8l-.25 3.4q-2.75 1.7-4.35 3.4m5.6-7.4q4.65-2.75 7.6-3.65l-.5 2.85q-3.1 1.35-5.25 2.9zM121.7 306.2q-5.45 1.7-8.75 1.5 3.45-2.4 9.5-5.8 6.2-3.55 9.15-4.75 1.5 4-1.95 5.85-3.45 1.8-7.95 3.2m2.55 13.15q1.9-2.9 6.65-7.75 4.55-4.7 7.9-7.25 2.2 2.2 2.45 3.75.25 1.8-1.85 3.15-4.2 2.65-15.15 8.1m25.85-10.55q2.75.85 3.35 2.8.6 2-1.5 4-2.2 2.1-6.95 4.9-5 2.9-8.25 3.8 3.15-4.4 6.55-8.5 4.2-5.05 6.8-7"/><path fill="#0d131a" d="M213.6 185.25q13.8 12.25 30.1 21.2l-.7 2.7q-17.1-9.25-31.2-21.75zM165.45 2.65q-16.1 2-29 13.05T116.4 44.75q-6.65 16.75-5.4 34.3 1.25 17.95 10.3 28.85 1 1.25 2.35 1.35 1.35.15 2.8-.8 6.65-4.5 14.85-11.55l11.25-10.15q11.55-10.7 19.5-12.2 5.15-.95 7.65 2.05 2.35 2.8 2.25 8.55-.4 25.45 2.75 44.35 3.2 19 10.15 32.5l-1.95 1.95q-14.15-27.5-13.25-78.85.1-4.9-1.5-6.95-1.75-2.2-5.85-1.45-4.25.8-9.6 4.45-3.75 2.6-8.9 7.25l-11.5 10.3q-8.4 7.15-15.1 11.65-1.95 1.25-3.95 1.05-2-.25-3.4-1.9-9.4-11.1-10.95-29.35-1.6-18.4 5.5-36.3 7.25-18.3 20.9-29.95 13.6-11.6 30-13.65 8.9-1.1 16.3 2.8 7.2 3.8 11.6 11.5 4.45 7.75 5.1 17.75.7 10.6-3.1 21.75-2.85 8.45-3.55 17.35-.8 10.45 1.9 18.1 4 11.55 9.35 21.85l-3.3-.8q-4.95-9.85-8.5-20.5-2.65-7.85-1.75-18.65.8-9.1 3.8-17.85 7.3-21.55-1.4-37.35-4-7.3-10.7-10.9-7-3.75-15.6-2.65M359.85 143q-1.8 7.55-3.6 28-1.95 23-.3 29.55.65 2.55 15.5 8.9 9.05 3.9 21.5 8.45 2.05.8.05 1.75-17.55 8.15-40.9 10.75-24.05 2.6-49.2-1.3l-1.05-2.6q23.85 4.05 47.15 2 22.85-2.05 41.55-9.7-35.45-12.55-36.65-17.5-1.8-7.3-.2-26.55 1.35-16.6 3.9-29.7-5.75 4.65-14.2 17.95l-2.2-.45q10.1-16.05 17.25-20.45 1.95-1.3 1.4.9"/><path fill="#0d131a" d="M341 166.8q-7.3 11.85-11.05 20.4-1.05 2.4-2.45 3.65-1.2 1.05-3.25 1.75l-2.55-.45q2.35-.75 3.75-1.95 1.5-1.3 2.65-3.8 3.95-8.5 9.6-18.1zm-122.2-31q5 6.1 10.5 11.6l-2.45 1.3q-5-5-9.65-10.7z"/><path fill="#0d131a" d="M331.55 194.05q-27.9-1.7-55.3-12.9l4.6-.8q23.35 9.2 50.8 12.6 1.25.15 1.2.7-.05.5-1.3.4m-56.1-13.15q17.85 14 25.85 38.2 8.05 24.25 3.1 49.35-.65 3.4-.75 5.65-.1 2.55.45 5.5.15.95-.3 1.05t-.8-.75q-1.05-2.6-1.15-5.65-.1-2.6.5-6.2 4.3-24.35-3.75-48.5-8.05-24.3-25.2-38.4zm-238.7-26.75-17.2-1.05q-11.65-.3-18.25.1-.85.1-1.2-.35t.2-1.2q4.8-6.55 44.15-17.3 20.3-5.5 46.05-11.9 2.85-.95 4.75-1.05 1.9-.05 4.3.65 10.8 3.25 27.25 2.4 18.8-.95 26.5-7.45l.1 2.65q-8.25 6.2-27.15 6.8-16.4.55-27.3-2.7l-3.35-.4q-1.65.1-4.55 1.05l-43.8 11.65q-39 10.65-43.7 15.2 7.45-.6 18.2-.4l17 1.25zm123.5-60.45q-6.6 5.85-16.5 10.2-9.95 4.35-12.1 2.25l1.6-1.85q1.85 1.25 11.8-3.3 9.35-4.3 14.45-8.15.9-.7 1.25-.3t-.5 1.15M126.1 6.15q-6.5-3.4-16.1 4.4-12.5 10.2-15.65 26.75-2.75 14.6 2.5 26.6 1.9 4.2 6.05 2.1l3.7-2.15 4.1-3.1-.3 2.5q-3.4 2.8-6.8 4.45-2.65 1.3-4.8.7-2.35-.7-3.65-3.7-5.9-13.55-3-28.25Q95.4 20 108.95 8.95q10.1-8.25 17.8-4.55 7.15 3.4 6.3 13.1L131 19.3q1.25-9.9-4.9-13.15"/><path fill="#0d131a" d="M114.85 45.65q-2.15-5-9.4-6.55-7.55-1.65-12.9 2.65l.25-2.3q5.6-4 13.3-2.55 7.35 1.35 9.95 6.1zM124.8 27q-2.05-6.25-9.55-8.4-7.1-2.05-14.2.75l.8-2.05q7.75-2.9 15.25-.45 7.25 2.4 9.4 7.95zm47.15 23.8q-8.75 2.1-19.2 12.4-11 10.8-14.35 21.85-.3 1.1-.8 1-.5-.15-.3-1.25 2.35-11.6 14.35-23.2 11.1-10.75 20.25-12.55z"/><path fill="#0d131a" d="M167.2 51.9q1.3 17.05-10.3 24.75-3.75 2.5-8.3 2.4-4.25-.15-7.35-2.45l1.25-1.85q2.75 2.3 6.65 2.35 3.7 0 6.85-2 4.3-2.7 6.75-7.95 2.9-6.15 2.4-14.4z"/><path fill="#0d131a" d="M158.85 57.35q2.45 4.6.7 10.1-1.8 5.8-6.7 6.05-2.2.1-3.85-1.8-1.4-1.7-1.6-3.8l1.7-1.85q-.1 2.25 1.05 4.2 1.25 2.05 2.8 1.95 3.8-.15 5-5.45 1.15-4.9-.7-8.35zm11.95 18.7q-.45 5.2-2.35 9.25-.3.65-.85.3-2.7-1.55-5.95-4.8l1.35-1.15 2.9 2.95 1.7 1.4.85-2.75.7-4.75z"/><path fill="#0d131a" d="m160.65 81.2 1.75-.9-.75 5.05q-.75 3.2-1.5 5-.25.8-1 .35-2.75-1.75-4.25-4.7l1.2-1.15 1.8 2.85 1.35 1.45.75-3.2zm19.95 13.2q2.3-.2 6.1-2.3t5.05-3.85l.55 1.75q-1.6 2.15-5.4 4.25-3.7 2-6.15 2.25zm.5 10.5q3.55-.25 8-2.3 4.7-2.15 6.25-4.6l.6 1.65q-2 2.7-6.8 4.95-4.45 2.1-7.9 2.4zm18.5 2.2q-2.1 3.15-7.95 6.3-5.85 3.2-10 3.4l-.1-2.15q3.85 0 9.5-3.05 5.45-2.95 7.85-6zm158.05 121.05q-23.45 26.35-54.05 38.6l.55-3.35q28.5-11.65 50.65-35zM150.35 99.2l2.3-1q2.2 12.3 1.85 31.45-.25 12.5-1.45 25.4-3.2 35.05 5.2 60.6 8.35 25.4 26.75 37.25 18 11.6 38.5 16.7 19.7 4.85 40.35 3.35l2.65 2.75q-21.8 2-43.15-3.3-21.3-5.3-39.95-17.3-19.4-12.55-27.7-38.05-8.3-25.45-4.95-62.2 1.1-12 1.35-23.7.4-19.55-1.75-31.95m-92.9 43.1q-3.45.65-8.25 3.8-2.6 1.65-9.75 7.1-3.45 2.6-8.35 8.95-5.45 7.05-6.6 11.4 7.25-2.3 15.15-5.4 8.9-3.5 11.1-5.1l9.65-7.4 10.05-7.95q-3.25-3-7.25-4.5-3.5-1.3-5.75-.9m15.6 4.55q.6.8-.45 1.7L52.15 165.1q-1.85 1.45-12.4 5.3-9.25 3.35-16.05 5.3l-1.15.05q-.25-.25-.15-1.1.75-4.75 5.9-12.3 5.05-7.4 9.85-11 6-4.4 9.7-6.6 5.6-3.35 9.95-4.2 3-.65 7.85 1.3 5.15 1.95 7.4 5"/><path fill="#0d131a" d="m52.8 163.45 4.2 9.75q6.65-5.45 23.25-17.6 16.05-11.85 20.5-14.65 2.15-1.35 4.25-1.9l4.9-.45 17.4.75 15.3 1.25q4.05.65 6.35 1.6 2.9 1.15 4.1 3.05l-.65 3.45q-1.55-4.6-10.1-5.95l-15.15-1.25-17.3-.75-4.35.4q-1.5.4-3.65 1.8-4.75 3.05-21.2 15-17.25 12.6-23.2 17.55-.65.55-1.1.5-.4-.1-.7-.85L51 164.45zm175.15-48.1q-2.4-.45-4.75-1.55-2.55-1.15-4.25-2.6-1.45-1.3-3.85-1.2-2.45.1-5.25 1.55-2.65 1.35-6.25 1.15t-5.2-1.8q-.7-.7-.4-1.1l1.2.05q1.7.95 4.7.95 3.2 0 5.25-1.1 3.6-1.9 6.6-1.95 2.85-.1 4.5 1.5 3.4 3.1 8 4.95 1.2.5 1.05.95-.2.45-1.35.2"/><path fill="#0d131a" d="M348.45 164.9q-22.1 10.1-64.3 15.9-40 5.45-64.8 3-1.95-.15-3.1.75-3.2 2.65-6.5 6.75-.4.5-.95.35-1.65-.45-5.75-2l-5.9-2.3.9-2.05q4.2 1.9 10.7 4.25 3.2-3.85 6.4-6.65 1-.9 1.9-1.2l2.5-.2q24.1 2.4 62.55-2.55 40.5-5.2 63.1-14.6-16.05-2.9-40.85-13.6-24.75-10.7-28.6-16.3-.85-1.2-1.7-6.45l-1.15-8.25q-.35-2.8-2.15-3.95-1.9-1.2-6.1-.95-8.5.5-18.2.3-17.1-.35-24.8-3.15l-2.95-3.3q5.55 3 21.25 3.95 12.5.75 24.65.05 5.15-.3 7.6 1.4 2.25 1.6 2.8 5.45 1.6 11.95 2.65 13.55 3.85 5.55 32.15 17.35 27.75 11.6 38.4 12.6 1.2.1 1.3.7.1.65-1.05 1.15"/><path fill="#0d131a" d="M183.2 191.6q.35 9.4 1.25 13.9 6.6-9 15.4-24.45 9.25-16.25 10.5-21.65l-.85-.85q-.85-.6-1.2-.65-.75-.1-6.25 2.15-5.6 2.25-6.85 3.25-1.15.95-6.25 8.75-5.05 7.65-5.6 9.2-.5 1.35-.15 10.35m17.95-33.55q6.25-2.35 7.4-2.35.4 0 1.95.95l2 1.55q.3.55.2 1-1.65 6.85-11.35 23.65-9.35 16.25-16.7 25.5-1.1 1.35-1.6-.3-1.35-4.95-2.05-15.6-.65-10.15-.05-11.95.6-1.5 5.75-9.55 5.35-8.4 6.65-9.45 1.35-1.05 7.8-3.45"/><path fill="#0d131a" d="M207.75 156.05q15.1-6.35 26.85-12.75 17.75-9.65 20.15-15.6.4-1.1.85-.95.45.1.25 1.25-1.2 6.35-18.6 16.45-12.2 7.05-27.1 13.3z"/><path fill="#0d131a" d="M213.9 147.5q-.35 1-.85.85t-.25-1.2q2.05-7.95 4.75-12 1.05-1.5 2.25-2.35 1.25-.8 3.1-1.3 4.85-1.2 15-2.1 11.25-1.05 16.9-.35l-1 1.6-15.95 1.2q-9.8 1.15-14.35 2.25-2.85.7-4.2 2.6-3.1 4.65-5.4 10.8m-8.55-10.95q-1.6-2.5-2.55-7.35-.95-4.75-.65-8.55.1-1.2 1-1.1.85.05.75 1.25-.3 3.7.35 8.05.7 4.4 2.05 7.1.4.8-.05 1.05-.45.3-.9-.45m53-14.1q2.7-2.45 6.3-2.85.95-.05 1.05.4.1.5-.8.75-2.8.75-5.45 3.1l-1.45.1q-.55-.6.35-1.5m-19.1 40.2 9.55-7.85 8.5-7.7q.75-.7 1.1-.35.4.35-.3 1.15-6.3 7.6-17.6 16.35-1.3 1.05-1.95.25-.65-.75.7-1.85"/><path fill="#0d131a" d="M295.75 31.3q-1.6 22-5.35 49.2-4.15 29.8-9.65 56.6l-2.3-1.5q5.2-25.5 9.5-54.85 3.65-24.65 6-47.8-14.85 11.5-31.8 34.45-16.8 22.75-27.8 46l-2.95-.4q11.3-24.05 28.95-47.3 18-23.8 33.9-35.15 1.6-1.05 1.5.75m4.2 156.25q3.15 7.15 4.25 18.75 1.05 11.65-.55 21.25l-1.65-.15q1.35-9.25.15-21.3-1.2-12.15-4.15-18.95zm11.3 2.65q2.4 8.05 2.6 19.65.15 11.45-1.95 18.9l-1.55-.2q1.85-7.3 1.45-19.95-.3-12.3-2.3-18.6zm10.05 1.8q2.55 8.05 2.45 19.3-.1 10.55-2.4 18.35l-1.65-.2q2-7.9 2.1-18.35.1-11.45-2.3-19.25zm-75.55 10.1q-5.5 21.8-2.15 38.5 3.5 17.3 16.15 27.35 6.55 5.25 11 10.6 4.15 5 5.8 9.3.4 1.05-.05 1.25-.45.15-1-.75-2.7-4.6-6.85-8.9-3.95-4.05-10.75-9.35-13.65-10.7-17.25-29.1-3.5-18.25 3.75-39.3.45-1.3 1.05-1.15.65.2.3 1.55"/><path fill="#0d131a" d="M324.3 302.95q-5.75-8.1-10.6-11.05-4.35-2.7-6.1-6.55-3.45-7.8-4.8-13.85l1.2-4.35q.5 3.95 2.3 9.25 1.4 4.2 3.25 8.15 1.6 3.25 5.45 5.6 5.1 3.1 11 11.55 6.85 9.85 6.05 16.35-.5 4.3-5.55 8.45-4.6 3.85-11.75 6.6-16.05 6.15-26.1 2.1-3.7-1.45-11.8-12.4-7.9-10.6-8.05-13.5-.1-2.5 1.65-11.55 1.55-8.05 2.95-13.35l1.9 2.3q-1.4 5.65-2.65 12.45-1.35 7.45-1.25 9.65.1 2.45 7.65 12.9 7.65 10.6 10.45 11.65 9.85 3.65 24.75-2.15 6.5-2.55 10.8-6 4.55-3.7 5.05-7.35.8-5.7-5.8-14.9"/><path fill="#0d131a" d="M295.1 314.4q-2.25-3.95-5.15-7.85-.75-1.05 0-1.55.7-.5 1.45.6 2.9 4.3 4.7 8.25.55 1.2.1 1.4-.5.2-1.1-.85m16-18.85q1.35 3.3 2.55 8.4.2 1.05-.3 1.2t-.8-.85q-1.15-3.95-3.1-8.25-.55-1.25.3-1.5t1.35 1M279.95 191.8q2.65 8.25 5.05 22.5 2.3 14.1 2.7 23.95 2.5-1.55 4.5-3.65.5-.5.85-.45.35.1.35.9.15 5.1-1.7 10.95-1.95 6.05-5.6 11.5l-1.55-.05q-3.3-7.05-9.55-23.95-6-16.1-9.45-26.95-.2-.7.1-1.4.95-1.8 5.05-6.05l7.55-7.6q.55-.55 1-.5.5.05.7.8m6.3 47.95q-.5-8.65-2.7-22.55-2.4-15.15-4.9-23.45-8.55 8.6-10.95 12.65 3.7 11.65 8.7 25.65 5.8 16.15 9 23.25 2.75-4.25 4.55-9.45 1.6-4.75 1.95-8.9-2.15 2-4.6 3.35-.95.5-1.05-.55M240.9 228.3q-22.3 14-27.35 17.5-.75.55-1.5 0-20.75-15.95-27.7-23.85-4.2 8.5-6.75 18-.25 1.1-1.5.55-2.4-1.1-6.5-4.55-4-3.4-7.2-7l-1.2-4.55q2.4 3.35 7.2 7.8 4.75 4.45 7.75 6.1 2.85-10.5 7-18.6.8-1.45 1.85-.2 3.5 4.2 12.6 12 7.3 6.25 15.3 12.4 14.05-9.55 28.15-18.45zM135.15 182q-4.05 5-6.5 16.3t-1.85 22.15q.05 1.65-1.3.8-2.75-1.6-6.85-5.5-.9 3.65-1.25 9.3-.35 5.5.05 9.75 4.7-5.1 13.7-13.85 8.85-8.7 13.35-12.7-1.45-6.85-3.85-13.8-2.7-7.95-5.5-12.45m7.2 11.1q2.7 7.45 4.2 14.95.15.9-.4 1.4L131.85 223q-11 10.6-14.35 14.15l-1.05.65q-.35-.15-.5-1.15-.55-5.05-.2-11.55.35-7.35 1.7-11 .25-.7.55-.75.35-.05.85.45 2.8 2.8 6.2 5.05-.65-11.8 2.15-22.9 2.75-10.85 7.4-16.05.7-.8 1.4.1 3.3 4.65 6.35 13.1"/><path fill="#0d131a" d="M152.6 195.85q-4.75 1.5-9.25 4l-.8-2.5q4.7-2.65 9.7-4.15zM116.4 230q-4.75 10.3-4.45 18 .1 3.1 8.25 11.2 6.95 6.9 13.05 11.35 6.25 4.75 8.25 8.6.55 1.05.15 1.25-.45.25-1.1-.7-2.25-3-8.25-7.3-7.25-5.25-14.25-12.05-8.65-8.45-8.8-12.15-.2-4.95 1.7-11.2 1.9-6.2 5.5-12.65z"/><path fill="#0d131a" d="m127.15 292.75 5.5-6 3.8-5q.65-1.45-.7-7.65l2.2 1.6q.95 5.05.3 6.65l-3.85 5-5 5.65z"/><path fill="#0d131a" d="M128.4 293.8q-2.9 0-9.05 6.25-5.9 6-5.3 6.95.5.75 8.1-1.75 7.85-2.55 8.8-4.65.7-1.5-.45-4.2-1.1-2.6-2.1-2.6m3.8 1.8q1.6 3.9.6 6-.95 2.05-8 4.55-7.05 2.45-11.9 2.45-1.1 0-.8-1.15.85-3.3 7.35-9.45 6.4-6.1 8.95-6.25 2.15-.1 3.8 3.85"/><path fill="#0d131a" d="M132.25 302.55q-2.15.9-5.15 8.1-2.85 6.95-2.2 7.65.4.25 7.55-3.8 7.25-4.15 7.85-5.25.75-1.3-2.35-4.45-3.2-3.3-5.7-2.25m-.65-1.9q3.5-1.7 7.9 2.75 4.35 4.35 2.7 6.85-.6.9-7.2 4.5-6.2 3.4-10.55 5.35l-.9.15q-.25-.15-.25-.85 0-4.3 2.75-10.75 2.8-6.7 5.55-8"/><path fill="#0d131a" d="M142.6 310.55q-1.25 2.4-3.25 7.1-2.25 5.3-1.95 5.6.5.5 7.55-3.7 7.25-4.35 7.75-6.45.6-2.65-4.05-3.95-4.7-1.25-6.05 1.4m12.1 3q-.5 2.3-7.2 6.35-6.15 3.75-10.95 5.3-1.25.45-.95-.9.5-2.45 2.2-7.2 1.75-4.95 3.1-7.55 2.1-4 8.5-2.1 6.3 1.85 5.3 6.1m-10.3-28.5q1.85-3.2 1.95-6.25.1-1.2.9-1.15.85.05.8 1.25-.05 1.45-.85 3.4-.75 1.95-1.85 3.35-.65.85-1.05.6-.45-.25.1-1.2"/><path fill="#0d131a" d="M153.7 312.55q4.7-2.85 15-10.3 10.15-7.35 12.15-9.35.9-.9.5-2.65-2.5-11-3-15.05-.1-1.05-.55-1.65-.4-.55-1.55-1.2-2.45-1.35-4.7-3.7-3.45-3.6-3.8-7.2l2.2-.15q.5 5.05 7.5 8.85 1.35.75 2.3 2.05.9 1.3 1.05 2.65l1.15 6.75 1.7 8.3q.7 2.8-1.05 4.5-3.35 3.1-13.1 10.05-10.55 7.5-16.75 10.95z"/><path fill="#0d131a" d="M154.65 260.6q8.75.7 19.2-.5 10.9-1.25 14.65-3.7l2.15 1.8q-4.8 3.15-17.15 4.1l-18.95-.55q-1.25-.25-1.2-.75.05-.45 1.3-.4m-3.3-197.05 3.45-3.35q.9 2.25.25 4.55-.6 2.25-2 2.3-.85.05-1.3-1.15-.4-.95-.4-2.35"/><path fill="#5892bf" d="M205.25 7.85q4.9 1.25 7.45 5.85 2.8 5 2.05 12.8-1.15 12-9.6 24.9-8.7 13.25-20.3 20-2.65 1.55-5.45.35-2.45-1.1-3.4-3.25-5.4-11.95-3.35-25.85 2.15-14.65 11.95-26 4.7-5.45 10.4-7.8 5.5-2.25 10.25-1"/><path fill="#afb7d5" d="M210.25 41.95q-2.4 5.5-4.15 8.3-4.65-8.65-14.8-11.05-10.35-2.45-18.9 3.75.9-5.15 2.65-10.4 2.35-6.9 5.25-10.6 8.75-3.65 18.35-1.15 11.1 2.95 14.75 13.1z"/><path fill="#fff" d="M296.65 326.25q1.1-.1 3.3 2.3 2.3 2.55 2.9 4.95.65 2.85.1 9-.55 6.7-2.15 9.8-2.8-2.8-6.55-8.9-3.85-6.25-3.95-8.3-.05-1.9 2.65-5.4 2.6-3.35 3.7-3.45m28.65 8.2q.85 6.4-.55 11.6-3.85-1.7-9.5-7.3-5.7-5.6-5.7-7.8 0-5.75 4.7-8.4 4.65-2.6 7.35 1.3 2.8 4 3.7 10.6m9.2-19.4q2 2.55 3.8 8.1 1.6 4.95 1.85 8.15-2.75-.75-7.2-2.85t-6.5-3.65q-1.95-1.4-1.5-5.5.5-4.25 3.15-5.85 1.7-1 3.45-.55 1.65.4 2.95 2.15"/><path fill="#46799e" d="M213.45 33.55q-2.65-5.25-7.05-8.95 2.15-11-.05-17 12.75 7.45 7.1 25.95M192.8 65.5q-8.7 7.9-13.3 6.4 5-2.05 10.9-10.25 5.55-7.8 10.05-18.35 3.2 2.3 5.5 6.75-5.6 8.65-13.15 15.45"/><path fill="#949bb4" d="M213.45 33.55q-1.3 4.2-4.95 12.1l-2.55 4.4q-2.3-4.45-5.5-6.75 4.2-9.85 5.95-18.7 4.4 3.7 7.05 8.95"/><path fill="#dbdcdc" d="m296.3 326.25 2.3 12.65 2.1 13.8q-2.95-3.4-6.5-9.45-3.5-5.85-3.9-8.1-.3-1.75 1.95-5 2.25-3.15 4.05-3.9m18.05-3.65q3.7 4.75 6.4 11.2 2.55 5.9 3.85 12.2-4-2.1-9.05-7.1-5.4-5.35-5.75-8.1-.3-2.2 1.4-4.85 1.45-2.25 3.15-3.35m11.8-6.95q3.9 3.4 7.95 7.85 4.35 4.7 6.2 7.85l-8.4-3.3q-5.2-2.35-6.3-4.3-.9-1.6-.65-4.15.25-2.35 1.2-3.95"/><path fill="#0d131a" d="M204.85 8.6q-8.4-2.45-16.2 5.05-11.3 10.9-14.5 26.2-3.15 15.1 2.8 28.3 1.15 2.55 3.5 3t5-1.2q12.95-8.05 21.3-23.2 7.7-13.95 7.15-25.15-.5-10.55-9.05-13m3.85 39.2q-8.5 15.1-22.55 23.75-3.45 2.15-6.3 1.55-3-.65-4.5-4.05-6.65-14.75-3.35-30 3.25-15.1 15.4-26.85 4.05-3.9 9-5.35 4.8-1.45 9.1-.2 9.85 2.75 10.45 15 .55 12.2-7.25 26.15"/><path fill="#0d131a" d="M212.6 35.75q-2-9.7-13.45-13.4-10.7-3.4-19.2.85l.85-2.3q9.25-4 19.4-.75 10.75 3.4 13.45 12.65zm-40.15 6.05q7.75-6.2 18.85-3.8 11.25 2.4 15.1 11.45l-1.2 1.65q-3.2-8.3-14.55-10.7-11.3-2.35-18.15 3.55zm124.2 285.3q-.9 0-3.15 3.1-2.3 3.2-2.3 4.8 0 2 4.35 9.2 4.25 7 4.95 6.95.65-.15 1.2-5.55.55-5.7.25-11.05-.1-2.05-2.35-4.85-2.05-2.6-2.95-2.6m4.45 1.55q2.75 3.3 2.85 5.8.3 5.05-.3 9.95-.65 5.55-2.15 8.55-.45.95-1.3.2-2.9-2.8-6.8-9.05-4.1-6.6-4.25-9.1-.1-2.05 2.75-5.85 2.9-3.85 4.7-3.8t4.5 3.3m23.8 10.75q-.15-6.2-2.4-12.05-2.35-5.95-7-4.25-4.5 1.7-4.9 7.55-.1 2.05 6.2 8.45 6.2 6.3 7.35 5.85.85-.35.75-5.55m.7 6.95q-.15 1.1-1.35.55-4.75-2.35-10.4-8.25-5.5-5.75-5.3-8 .6-7.65 6.7-9.45 6.15-1.8 9 5.4 1.85 4.65 2.1 9.3.3 4.4-.75 10.45m4.85-32.9q-1.55 0-2.9 1.7-2.45 3.25-1.25 8.05.45 1.65 6.6 4.6 5.9 2.8 6.45 2.45.6-.45-1.5-5.95-2.2-5.85-4.7-9.25-1.15-1.65-2.7-1.6m4.2.4q2 2.75 3.85 7.7 1.9 5.05 2.6 9.75.15 1.2-1.05.85-5.85-1.8-10.3-4.1-4.9-2.5-5.35-4.2-.65-2.6-.25-5.35.45-2.7 1.85-4.5 1.7-2.15 4.35-2.25 2.7-.1 4.3 2.1M221.2 140.75q1.3-4.85 3.1-8.7l1.3-.15q1.2.1 1.1.45-2.4 7.25-3.25 10.5-.1.35-1.25-.65-1.1-1.05-1-1.45m-95.2 70.5.05 3.75-2.85 3.7-1.9-1.75z"/></svg>