<svg xmlns="http://www.w3.org/2000/svg" width="153" height="194" viewBox="-0.2 -0.25 152.55 194.4"><path fill="#dcd096" d="m22.45 178 5.3-10.25 24.95 9.9-3.1 9.95q-9.4 1.55-16.5-.8-7.35-2.5-10.65-8.8"/><path fill="#dbdcdc" d="m17.25 178.45 5.45-.3q.25 1.5 3.25 4.75l-5.75.6q-3.9 0-4.25-.7-.3-.55.45-2.5zm11.85 6.75q3.35 1.9 8.85 2.8-1.2 1.95-3.55 3.65-2.45 1.85-3.75 1.45-1.1-.35-1.45-4.15zm14.5 3.05 6-.65 1.4 2.25-.7 1.25q-1 1.25-2.45 1.35t-3-2.05z"/><path fill="#0099a9" d="M7.15 147.9q-4.65-3.85-4.35-4.75.25-.9 7.1-2.55l6.8-1.5 3.5-7q-1.9-9.45 4.75-20.6 2.05-3.5 4.75-6.75l2.25-2.55 76.5-7.85 22.3 37.65 8 1.65 7.05 21.2q4.75 4.7 4.5 5.65-.3.95-6.7 1.95l-36 5.35q-1.15 3.25-2.35 3.45-1.15.2-5.8-4.4l-.65 6.45q-.85 6.5-1.9 6.85t-4.15-1.95l-2.9-2.35q-5.4 12.75-6.8 13.05-1.35.3-7.05-3.65-2.4 5.7-3.6 5.7t-5.2-9.15l-6.2 5.25q-6.5 5.2-7.9 5-1.35-.2-4.6-6.8l-3-6.55q-11.55 6.35-12.5 5.5-.6-.5-.2-4.45l.55-3.85-9.2 1.7q-9.3 1.55-9.8.8-.55-.75 1.85-4.1l2.5-3.2-5.15.95q-5.25.75-5.9 0t2.1-5.7l2.9-4.8q-4.6.4-8.05.05-2.95-.35-3.15-.9-.2-.8 5.05-5.05l5.3-4.1z"/><path fill="#fff" d="M143.7 140.35q2.5-.8 4.85-.7 2 .1 2.6.7.45.5-1.05 3.75-1.65 3.7-3.95 6.2.15-1.45-.3-4.6-.7-4.15-2.15-5.35"/><path fill="#0099a9" d="M87.8 16.4q9.45 15.75 12.1 28.25 9.35 6.65 13.4 12.9 3.55 5.6 4.2 13-5.85 7.05-19.05 12.1-10 3.85-21.2 5.65-18.9 2.95-35.1 1.75-13.8-1-24.25-4.85-2-8.55.55-16.85Q21 60 27.8 53.25q-1.5-16.6 1.85-32.95 3-14.4 6-15.1 2.5-.5 8.4 4.15Q53.2 16.5 63 32.4q1.85-12.85 5.65-22.55Q72.1 1 74.4 1q4.2 0 13.4 15.4"/><path fill="#fff" d="m64.5 89.9.7-3.2q.9-3.2 1.85-3.35.9-.1 2.3 2.85l1.2 2.95q-1.8.75-6.05.75M87.85 86l.05-3.35q.15-3.45.7-3.65.6-.2 2.5 1.85 1.85 2.05 2.35 3.45-3.4 1.15-5.6 1.7m-38-14.75q-.95-5 .85-8.7 1.6-3.45 4.4-3.8 3.3-.45 5.85 2.9 2.25 2.9 2.7 6.6.6 5.35-.9 8.7Q61.4 79.9 59 80.4q-2.55.55-5.15-1.65-3.05-2.5-4-7.5M84.8 66.4q-1.55-4.45-.5-8.75 1-4.15 3.6-4.9 2.85-.8 5.7 1.8 3 2.7 4.05 7.5.8 3.7-.15 7.2-1.1 3.9-3.75 4.7-2.65.75-5.35-1.75-2.35-2.25-3.6-5.8"/><path fill="#fff1ac" d="M117.35 70.5q.45 11.65-6.65 20.65-9.35 11.9-30.2 15.85-19.95 3.85-36.9-.8-20-5.4-25.7-20.9 14.15 4.2 32.1 4.75 15.5.45 27.25-1.75 15.4-2.95 25.2-7.4 9.4-4.25 14.9-10.4"/><path fill="#fff1ac" d="M70.8 138.1q-7.8-3.7-9.4-11.65-1.35-6.6 1.95-12.95l3.6-5q7.95-.4 14.05-1.6 5.6-1.15 12.3-3.5 5.35 3.2 8.2 7 2.45 3.25 3.65 7.7 1.6 5.75-2 11.85-4.3 7.35-13.9 9.45-10.6 2.4-18.45-1.3"/><path fill="#008290" d="M33.7 7.45q-1.25 7.3-1.45 19.55-.2 13.75 1.45 21.4l-2.15 1.75q-2.4 2-3.35 3.25-1.05-4.95-.9-13.15.35-16.4 6.4-32.8m38.75-4.6q-2 7.6-3.75 20.25-1.35 9.9-1.9 17.35L63 32.1q2.05-10.35 4.3-17.2 2.1-6.4 5.15-12.05"/><path fill="#dcd096" d="M104.15 97.4q-9.8 7.5-22.7 9.45-35.6 5.35-53.4-7.45 24.8 7.4 50.2 3.5 24.5-3.8 35.35-15.55-3.35 5.35-9.45 10.05"/><path fill="#008290" d="M45.6 107.3q8.85 1.65 21.55 1-2.95 3.2-4.2 6.75-5.5-1.2-10.2-3.35-4.45-2.05-7.15-4.4"/><path fill="#dcd096" d="M62.95 115.05q1.25-3.55 4.2-6.75l13.3-1.2q7.15-.95 13.1-3.45 2.25.75 4.9 3.4-3.05 3.1-7.05 5.3-4.4 2.4-9.2 3.2-9.15 1.65-19.25-.5"/><path fill="#008290" d="M93.55 103.65q4.05-1.65 7.3-3.85l2.45-1.85q-.25 4.35-4.85 9.1-2.65-2.65-4.9-3.4m-52.6 13.7q-2.15.3-3.35-1.55-1.15-1.75-.85-4.15.35-2.5 2.2-3.85 2.2-1.55 5.75-.8l13.45 1.35 8.45.3-4.95 4.9-8.55.6q-9.1 1-12.15 3.2"/><path fill="#dbdcdc" d="M149.65 145.25q-1.35 2.65-3.25 4.25l-.85-5.25q1.35-1.1 2.95-1.85l2.4-.7q-.35 1.65-1.25 3.55"/><path fill="#008290" d="M11.65 148.4q2.75 2.05.55 3.5l-3.15-2.05q-3.5-2.75-5.45-6.25zm-10 12.5q5-1.2 8.7-1.4 5.05-.35 3.65 1.7l-4.25.55q-4.9.3-8.1-.85m5.9 10.65q10.2-2.05 13.3-3.3l-2.95 3.25-4.35.65q-4.6.4-6-.6m6.6 6.75q16.2-3.7 19.75-5.3l-.5 3-7.8 1.9zm23.5 2.85q5.3-3.6 6.9-5.8l1 3.35-4.9 2.9q-5.45 2.85-8 2.7zm8.9-.4q5.8 7.4 7.25 7.6 1 .1 5.75-2.25 4.5-2.25 6.75-3.85l-5.05 5q-5.55 4.95-8.2 4.8Q51.8 192 49.5 188t-2.95-7.25M68 183.2q3.6 4.25 4.55 4.25.65 0 2.25-1.95l2.15-3.05-1.65 4.15q-1.9 4.2-2.95 4.3-1.05.15-2.8-3.75z"/><path fill="#008290" d="m77.15 182.05 1.7 2.2q2.25 2.55 4.85 4.25l-2.45-.5q-2.95-.95-5.4-2.95zm13.8-9.35 1.3 2.2q1.8 2.6 4.35 4.75l-1.95-.65q-2.45-1.05-5.1-3.2zm9.1-12.2 1.75 4.25q2.1 4.65 4.15 6.5l-2.4-1q-2.65-1.45-4.2-3.75l.55-5.9zm50.3.1-3.1 1.15q-2.8.8-3.65.65.65-2.35 1.2-2.9 1.85.8 5.55 1.1"/><path fill="#0d131a" d="M65.75 36.5q1.8 4.3 1.15 4.55-.7.3-2.7-4Q58.6 25.15 48.85 15q-9.2-9.65-12.95-8.8-2.95.7-5.75 16.85-3.05 17.25-1.1 29.8l-1 .9q-1.05.6-1.1.3-2.05-13.2 1.2-31.15Q31.3 5.25 35.6 4.3q3.8-.8 13.35 8.15 11.1 10.4 16.8 24.05"/><path fill="#0d131a" d="M87.95 14.7q9.95 15.95 13.2 30.65l-1.05.05q-1.1-.3-1.2-.6-2.95-13.2-12.3-28.65-8.7-14.4-12-14.25-2.1.15-6.15 12.35-4.15 12.35-4.35 20l-.75-.85-.8-1.4q.2-7.75 4.4-19.55Q71.3.2 74.5 0q4.1-.25 13.45 14.7"/><path fill="#0d131a" d="M97.6 43.05q8.25 4 13.55 10.35 5.3 6.4 6.8 14.15 2.75 14-7.8 25.6-10.7 11.8-29.4 14.75-27.45 4.3-45.3-3.4-17-7.3-19.25-22.4-1.35-9 3.3-18.45 4.15-8.5 11.2-14 2.6-2.05 3.3-1.7.65.35-1.8 2.5-7.65 6.75-11.4 15.65-3.55 8.4-2.45 15.75 2.05 13.6 17.4 20.7 17.3 8 44.8 3.65 18-2.8 28.1-14.1 9.75-11 7.2-24.3-2.75-14.1-19-23.65-1.8-1.05-1.5-1.55.35-.5 2.25.45"/><path fill="#0d131a" d="M116.7 70.25q.2-.2.4.5l.05.9q-5.2 7-18.5 12-12.1 4.5-28.2 6.45-15.5 1.9-29.65.8-14.65-1.1-22.75-5-.25-.1.05-.75t.55-.55q9 3.65 23.5 4.5l29.05-1.05q15.5-2 27.25-6.4 12.85-4.75 18.25-11.4"/><path fill="#0d131a" d="M91.3 80.1q2.05 2.05 2.8 3.6l-.6.6-.9.05-1.95-2.8-1.65-1.6q-.2.15-.3 2.7v2.85q0 .3-.8.35-.85 0-.85-.3 0-2.4.4-4.7.4-2.35.9-2.55.75-.35 2.95 1.8m-24.15 2.35q.6-.1 1.95 2 1.45 2.15 2.2 4.45.1.3-.7.55l-.9-.1-1.45-3.6-1.05-1.65q-.3 0-.85 1.95-.6 2.05-.75 3.75-.05.3-.9.2-.9-.15-.85-.45.35-2.25 1.45-4.6 1.05-2.4 1.85-2.5m16.95-26.3q1.4-3.55 4.05-4.1 2.85-.55 5.85 2 3.3 2.85 4.4 7.85 1.05 4.85-.55 8.65-1.5 3.6-4.45 4.15-2.7.55-5.7-2.3-3.15-3-4.05-7.4-1.05-5 .45-8.85m4.35-2.7q-2 .45-3.15 3.4-1.3 3.4-.15 7.8t3.7 6.85q2.25 2.2 4.3 1.8 2.35-.45 3.45-3.65 1.2-3.3.25-7.6-.95-4.4-3.55-6.85-2.4-2.25-4.85-1.75M49 71.25q-.9-4.8 1.2-8.95 1.9-3.8 4.6-4.3 2.85-.45 5.6 2.15 3.15 3 4.05 8.5.65 4.35-.85 8.1-1.55 3.85-4.5 4.3-3.25.55-6.2-2.25-2.95-2.85-3.9-7.55m6.05-11.8q-2.3.35-3.75 3.6-1.6 3.55-.75 7.95.85 4.45 3.45 6.85 2.35 2.2 4.85 1.8 2.15-.3 3.4-3.3 1.35-3.2.65-7.45-.8-5-3.3-7.6-2.2-2.25-4.55-1.85"/><path fill="#0d131a" d="M89.9 60.8q.2 1 0 1.85-.25.8-.8.9T88 63t-.8-1.7q-.2-1 .05-1.8.25-.85.75-.95.55-.1 1.1.55.6.65.8 1.7m-29.65 5.65q.2 1.05-.05 1.85t-.8.9-1.1-.55q-.55-.7-.75-1.75-.2-1 .05-1.8.25-.85.8-.95t1.1.55zm12.2 73.4q-7.3-2.5-10.2-8.35-2.9-5.7-1.75-12.1 1.15-6.25 5.9-11.2l1.1.05q.85.3.6.5-4.4 4.6-5.6 10.6-1.25 6.15 1.5 11.05 3.25 5.7 10.15 7.8 6.9 2.05 15.9 0 5.8-1.3 9.6-5.1 3.85-3.85 4.65-9.25.8-5.7-2.3-11.05-3.1-5.3-9.05-8.55-.3-.15.25-.7.55-.5.8-.4 6.55 3.6 9.9 9.6 3.15 5.7 2.35 11.3-.9 6.4-5.25 10.55-4.05 3.9-10.6 5.45-10.1 2.4-17.95-.2M16.5 143.2q-1.25 3.6-1.95 3.2t.25-3.6q1.15-3.95 3-8.8l1.8-4.35q.15-.25.9.9t.6 1.4l-1.55 3.45q-1.75 4.05-3.05 7.8"/><path fill="#0d131a" d="M17 138.35q.3-.05.45.7.1.7-.15.75l-8.6 2q-4.35 1.25-4.4 1.7-.1.5 2.5 2.85l5.35 4.45.55.6-.55.6q-3.35 2.4-6.5 5.2-3.1 2.8-2.95 3.2.2.4 3.5.5l6.75-.25 1.2.05-.5 1.1q-1.9 2.95-3.35 5.75Q8.7 170.6 9 171l3.75.1 5.9-.85q.3-.05.05.75l-.55.85-6.75.95q-4.5.45-4.85-.1-.35-.7.9-3.45 1.4-3.1 4.15-7-5 .5-8.3.15-3.05-.3-3.3-1.15-.2-.9 2.7-3.7 3.15-3 7.8-6.15-9.35-7.05-9.05-8.15.3-.9 4.5-2.25 4.55-1.5 11.05-2.65"/><path fill="#0d131a" d="M14.45 175.8q1.45-2.5 3.95-5.55 2.05-2.5 2.5-2.1.45.35-1.45 2.95-4.3 5.9-3.95 6.5l6.45-.25 11.5-2.1q.3-.05.35.6 0 .65-.3.7l-11.2 2.35q-8.25 1.3-8.95-.05-.3-.65 1.1-3.05"/><path fill="#0d131a" d="M34.15 175.65q-.75 7.25-.4 7.55.35.25 4.3-1.4 4.25-1.85 7.2-3.7.25-.2.55.4.3.55.05.75-5.9 3.75-10 5.4-3.05 1.15-3.55.8-1.1-.95.45-9.85.5-2.8 1.1-2.8.65 0 .3 2.85"/><path fill="#0d131a" d="M58.4 188q4.2-3 8.3-6.9l.75-.45.45.7q1.05 2.75 2.65 5.55 1.5 2.65 1.9 2.7.3.1 1.35-1.8l2.05-4.35q1-2.5 1.5-2.35t-.3 2.75q-1.2 3.8-2.6 6.25-1.3 2.25-2.05 2.25-1.6 0-5.5-9.45-2.6 3.15-7.2 6.75-5.1 4-6.85 3.65-1.7-.35-4.4-5.8-2.2-4.45-3.65-9.1-1-3.15-.55-3.45t1.8 2.95q2.1 5.15 4.05 8.8 2.1 3.9 3 4.1 1.05.25 5.3-2.8"/><path fill="#0d131a" d="M80 186.8q2.1.95 2.65.75.75-.3 2.7-4 1.8-3.5 3.85-8.55 1.4-3.25 1.95-3.05.55.15-.6 3.75-1.6 4.9-3.95 9.55-2.3 4.4-3.2 4.65-.85.25-2.7-.75-1.8-.95-5.25-3.45-.25-.2.1-.75.4-.55.65-.35 1.65 1.25 3.8 2.2"/><path fill="#0d131a" d="M100.45 163.25q-.4 6.9-1.15 11.8-.85 5.85-1.95 6.35-.9.4-3.1-.95-2.35-1.4-4.95-4-.2-.2.15-.9.3-.7.55-.5l3.8 2.85q1.8 1.1 2.3.85.65-.6 1.55-5.3.9-4.9 1.3-10.4.3-4.15 1-4.2t.5 4.4"/><path fill="#0d131a" d="M108.2 163.8q.05-.3.5.5l.35 1.05q-1.9 7.25-3.6 7.25-1 0-3.15-1.9l-3.15-3.4q-.2-.25.2-.9.4-.7.6-.45 1.3 1.55 3 2.8 1.6 1.25 2.1 1.15.7-.15 1.6-1.7 1-1.8 1.55-4.4m14.2-28.5q.25-.1.35.9.1.95-.2 1-5.4 1.35-10.55 5.05-5.05 3.65-8.9 8.8-2 2.7-2.55 2.25-.5-.45 1.45-3.25 3.7-5.35 9.15-9.3 5.55-4.05 11.25-5.45m9.15-3.05q1.2 3.1.55 3.2-.7.1-2.2-2.65l-3.9-7.1q-.15-.25.75-.8.9-.5 1.05-.25 2.35 3.9 3.75 7.6"/><path fill="#0d131a" d="M130.65 132.75q-.3-.05-.3-.9t.3-.8l3.75.75 4.45 1.05-.25.85q-.3.35-.5.3zm14.45 22.15.2-.85q.25-.7.45-.55 5.85 5.95 5.55 7.35-.15.55-2.1 1.2l-6.2 1.3q-.3.05-.2-.65t.35-.75l4.2-1q1.65-.55 1.75-.85.1-.2-1.2-1.9zM21.8 178.2q-.1-.3.55-.55.7-.25.8 0 2.1 5.2 9.6 7.95 7.65 2.75 16.5 1.4.3-.05.45.7.1.75-.2.8-9.8 1.45-17.2-1.05-7.95-2.7-10.5-9.25"/><path fill="#0d131a" d="M17 178.15q.2-.2.8.25.65.45.5.6-.75.9-1.25 2.05t-.35 1.4l2.45.3 6.65-.65q.3-.05.65.75.3.8 0 .85l-7.2.55q-3.25-.15-3.8-.9-.4-.65.15-2.5t1.4-2.7m11.35 6.35.8.1q.8.35.8.45-.2 1.5.1 4.2.3 2.8.85 3.1.6.35 2.7-1 2.45-1.55 3.85-3.9.15-.25.95 0 .8.3.65.55-1.6 2.65-4.45 4.45-2.65 1.7-4.1 1.4-1.1-.25-1.8-3.6-.65-3.25-.35-5.75m20.8 6.6 1.45-1.6.8.1q.65.4.5.65-.7 1.15-2.15 2.05-1.35.8-2.2.75-1.15-.05-2.7-1.65-1.4-1.4-2.15-3-.1-.25.65-.45l.9.05q.6 1.3 1.5 2.4 1.05 1.3 1.9 1.35.6.05 1.5-.65"/><path fill="#fff1ac" d="M140.6 137.95q5.85 2.35 5.5 12.1-.3 9.1-5.35 18.2-6.45 11.5-15.4 15.5-8 3.5-12.75-.45-5.05-4.25-4.75-13.55.3-8.6 4.6-15.8 4.25-7.1 10.65-12.1 9.3-7.2 17.5-3.9"/><path fill="#dcd096" d="M140.55 146.4q3.8 2.05 3.45 9-.3 6.95-4.55 14.7-3.75 6.95-10.05 11.5-7.05 5.05-12.7 3.35-2.95-.9-2.65-8.15.3-7.9 4.7-16.6 4.15-8.15 11.2-12.2 6.6-3.8 10.6-1.6"/><path fill="#804a0c" d="M125.85 164.65q1.95-3.9 5.65-6.65 3.75-2.75 5.8-1.8 2 .95.75 5.45-1 3.85-3.45 7.65-2.5 4-5.45 6.15-2.8 2.05-4.55 1.4-1.15-.4-1.35-2.85-.25-3.6 2.6-9.35"/><path fill="#0d131a" d="M129.1 137.35q7.25-2.6 12.7.4 5.5 3.05 5.1 12.9-.4 9.3-5.5 18-6.75 11.5-15 15.55-7.3 3.6-12.95.4-6.5-3.65-6.5-14.15-.05-10.85 7.2-20.85 6.7-9.3 14.95-12.25m12 1.7q-4.95-2.7-11.4-.2-7.35 2.9-13.75 11.75-7.25 10.1-7.25 20.3 0 9.35 5.5 12.4 5.05 2.9 11.65-.65 7.5-3.95 13.9-14.9 5.15-8.8 5.5-17.6.3-8.6-4.15-11.1"/><path fill="#0d131a" d="M137.05 156.7q-1.35-.75-4.45 1.35-3.45 2.35-5.65 6.4-2.3 4.3-2.85 7.7-.55 3.35.9 4.15 1.3.65 3.95-1.4 2.9-2.25 5.3-6.4 2.8-4.75 3.45-8.2.55-2.95-.65-3.6m.65-1.1q1.75.9 1.3 4.45-.5 3.95-3.7 9.45-2.55 4.4-6.05 6.7-3.1 2.1-4.75 1.2-1.95-1.05-1.95-4.3-.05-3.85 2.85-9.15 2.35-4.35 6.45-6.95 3.85-2.45 5.85-1.4"/><path fill="#fff" d="M121.95 143.05q-.3-1.35.65-6.05 1-4.85 1.8-4.95.75-.05 3.15 3.5l2.7 4.55q.4 1-.55 2.3-.95 1.35-2.5 2-1.7.7-3.25.45-1.7-.35-2-1.8m13.25-6.5q.4-1.5 3.85-4.55 3.3-3 3.9-2.7.65.35.65 4.2-.05 4.1-1.2 6-.75 1.25-2.25 1.5-1.45.25-3.15-.55-.9-.4-1.4-1.2-.8-1.15-.4-2.7"/><path fill="#dbdcdc" d="M124.75 144.8q-.3-1.7.1-5.5.35-3.85.95-3.95.4-.1 2.45 2.05 2.15 2.25 2 3.2-.25 1.8-1.55 2.95-1.5 1.4-3.95 1.25m11.7-4.7q3.85-6.7 7.1-8l-.25 3.6q-.4 3.75-1.3 4.5-2.35 1.95-5.55-.1"/><path fill="#0d131a" d="M124.2 131.3q.95-.2 3.65 3.45 2.7 3.55 3 5.15.65 3.45-3.35 5.05-3.95 1.6-5.8-.6-1.05-1.2.2-7.05 1.2-5.75 2.3-6m2.8 4.3q-2-2.75-2.4-2.7-.6.15-1.45 4.8-.9 4.7-.2 5.65 1.05 1.55 3.85.55 2.85-1.05 2.6-3.3-.25-1.95-2.4-5m10.45 5.65q-3.65-1.35-3.1-4.55.3-1.85 4.15-5.15 3.8-3.25 4.75-2.8.95.4.9 4.95 0 4.6-1.1 6.15-1.95 2.75-5.6 1.4m-1.45-4.3q-.55 2.15 1.95 3.1 2.45.95 3.75-.9.9-1.3 1.1-5.1.2-3.6-.15-3.85-.45-.2-3.2 2.3-3 2.65-3.45 4.45m7.45 2.95q1.25-.65 4.6-.6l3.65.5q.65.65-1.15 4.75-1.85 4.3-4.1 6.55-.2.2-.6-.5t-.25-.85q1.75-1.7 3.5-5.25 1.7-3.25 1.4-3.75-.25-.4-2.45-.35-2.4.05-4 .8-.25.15-.6-.5-.3-.7 0-.8"/><path fill="#0099a9" d="m92.75 95.15 4.8-1.15Q95 90.4 95.4 89.45q.25-.6 3.15-.85l2.85-.15-.8-1.75q-.8-1.75-.55-2.05l2-.3 3.95.4.5-2.1q.4-1.1.8-1.15.5 0 2.1 1.5 1.75 1.6 2.8 3.25l4.35 2.55q5.1 3.25 9 6.95 6.8 6.5 8.25 14.2 1.4 7.55-2.75 12.85-3.7 4.65-11.15 3.85-8-.85-15.2-7.75-3.2-3.05-5.5-6.3-2-2.8-4.25-7.15-3.95-2-4.25-2.85-.2-.55 1.75-1.6l2.05-.95Q91.65 96.6 91.6 96q0-.45 1.15-.85m-31.2 18.4 1.7-1.7q1.85-1.7 2.7-1.5 1.3.3 1.7 3.4l.95.45q1.05.55 1.4 1 .6.75.8 2.75l.7.65 1.1 1.4q.5.95.65 3.05l1.25 2.6q.3.9-.5 3.05l.15 1.35q.1 1.45-.15 2.2-.45 1.25-2.05 2.35-2.6 2.9-6.3 5.1-3.6 2.15-9.9 4.6-6.9 2.75-16.35 2.15-10.4-.7-14.65-5.35t-4.7-11.85q-.4-6.45 2.2-12.65 1.95-4.8 5.8-10.05l3.45-4.35-1.3 17.5 9.5-1.95q5.15-2.15 14-3.4z"/><path fill="#008290" d="M130.15 123.4q-3.8 3.85-9.5 3.4-7.45-.55-14.8-7-6.65-5.8-10.6-13.8l-4.55-3.7 2.5.8 3.65 1q1 .2 1.4 1.1l.8 2q6.45 11.45 19.65 14.3 5.6 1.15 9.75-.15 4.4-1.35 5.55-4.95-1.05 4.15-3.85 7m-84.55 23q-13 .75-19.05-3.95-5.55-4.3-6.8-14.75 2.35 7.05 6.85 10.2 5.55 3.9 15.95 3.5 9.3-.35 18.25-4.05 4.6-1.9 8.55-4.35 1.2-.6 3.05-.45l1.65.25q-.55 1.15-2.55 1.7l-1.6 1.7-4.8 3.9q-8.6 5.7-19.5 6.3"/><path fill="#0d131a" d="M92.8 96.3q-.05.65 2.4 3.1l.5.8-1 .45q-.75.3-1.8.9-1.05.7-1.05.9 0 .4 2.8 1.9 2.75 1.55 2.5 2.05-.2.5-3-.85l-3.6-2.05q-.75-.55-.85-1.05-.1-.45 1.45-1.45 1.35-.85 2.45-1.3l-1.9-1.95q-1.25-1.25-1.2-1.8.05-.65 1.65-1.35 1.8-.7 4.65-1.05l2.85.1q0 .45-2.45.95-4.35.9-4.4 1.7"/><path fill="#0d131a" d="M96.45 89.95q-.1.35.55 1.6l1.2 2.3q.1.25-.45.55-.55.25-.7 0-3.2-4.45-2.65-5.25.5-.7 2.7-1.1l3.9-.2q2.75.15 2.85.7t-2.75.6q-4.4.1-4.65.8"/><path fill="#0d131a" d="M99.6 86.05q-.5-1.35-.25-1.85.3-.5 2.6-.5 2.45 0 4.15.8 1.75.8 1.7 1.15l-2.05-.15-2.8-.5-1.95.2q-.1.35.3 1.4l.85 1.85q-.95.75-1.15.4z"/><path fill="#0d131a" d="M107.15 80.75q.8-.05 2.45 1.45 1.6 1.45 3.2 3.7 17.35 9.05 21.3 21.25 3.4 10.55-3.9 17.5-2.4 2.25-6.4 2.85-4.4.65-9.15-1.1-12.05-4.45-20.6-21.2-.15-.3.65-.25l.95.3q8.4 14.75 19.2 19.05 9.05 3.6 14.05-1.1 6.7-6.35 2.95-16.55-4.2-11.4-19.85-19.5-1.4-2.3-2.8-3.65-1.1-1.05-1.6-1-.3 0-.6 1-.3.9-.3 1.55 0 .3-.55.2-.6-.15-.55-.45 0-1.45.35-2.55.4-1.4 1.2-1.5m-43.7 29.65q1.55-1.35 2.65-1.25 1.35.1 1.85 4.2 1.85.65 2.45 1.25.45.5.8 1.85.3 1.2 1.15 1.95l1.15 1.35.2 1.5q.05 1.3.9 2.65.6 1 .6 1.85l-.25 1.7q-.3 1.35-.15 2.65.45 3.55-2.3 4.8-8.5 9.8-24.5 12.15-16.4 2.45-24.25-5.8-6.2-6.55-4.6-17.6 1.7-12 12.05-22.05.25-.2.95.55t.5.95q-10 9.5-11.3 21.3-1.1 10.15 4 15.55 7.25 7.65 22.95 5.1 14.95-2.45 22.85-11l1.45-1.15q1.15-1.05.85-2.8-.2-1.5.1-2.65.45-1.6-.4-3.05-.45-.8-.5-1.8-.15-2.15-1.7-3.35-.6-.4-.95-1.4l-.75-2.1q-.55-.95-1.85-1.35-.45-.2-.55-.75-.8-2.45-1.1-2.55-.5-.2-1.8.8-1.3.95-1.95 2.05l-.3.4-.45-.05-8.3.65q-5.9.9-9.35 1.95-3 .9-3.3.35-.35-.55 2.85-1.75 3.5-1.35 9.25-2.15l8.85-.45q1.05-1.5 2.2-2.5"/></svg>