<svg xmlns="http://www.w3.org/2000/svg" width="177" height="234" viewBox="-0.9 -0.05 177.2 233.75"><path fill="#59bdec" d="M6.95 132.7q8-19.65 20.3-20.05l2.5 1q2.75 1.15 4.2 2.15 6.75 4.75 18.8 9.1 20.75 7.4 40.4 5.3l1.5 10.9Q71.9 157.75 43.2 157q-14.4-.35-24.2-4.05l-2.85 2.1-7 5.45q-3.5 2.75-5.35 3.2l-1.15-.1q-.65-.15-1.2-1.05-1.15-1.8-.8-5.65 1.15-11.55 6.3-24.2"/><path fill="#4ca4cd" d="M27 128.55q9.9 3.45 21.25 5.4Q77 138.8 93.4 131l1.25 10.1Q80.25 152.95 57.3 156q-21.55 2.85-38-3.35-9.95 8.4-15.25 11.05-4.9 2.5-3.25-9.1 1.6-11.05 7.05-23.2 1.55-3.45 3.05-5.95 1.8-3.15 2.6-3.3 4.1 3.15 13.5 6.4"/><path fill="#0d131a" d="M35 117.55q-4.05-2.25-5.7-3-2.25-.95-3.8-.95-2.5 0-5.85 2.65-4.05 3.25-7.65 9.45-5.2 9.05-8.3 20.75-2.85 10.8-1.8 14.9.35 1.5.95 1.7.9.4 3.1-1.3l12.65-9.6q.3-.15 1.3.45.95.55.65.7L6.9 163.1q-3 2.15-4.65 1.5-1.5-.6-1.9-2.9-1.25-4.65 1.45-15.8 2.9-11.95 8.05-20.9 7.75-13.3 15.65-13.45 1.8-.05 4.15.95 1.25.55 6.3 3.2 16.25 8.55 29.3 11.7 13.1 3.2 27.95 2.2.35-.05.4.7.05.7-.3.7-30.4 2.1-58.3-13.45"/><path fill="#0d131a" d="M40.25 157.85q-14.45-.9-24.6-5.9-1.6-1.15-1.5-1.45.2-.4 2.55.4 9.55 4.3 23.65 4.95 28.15 1.4 53.9-15.45.3-.2.75.5.4.65.15.85-26.3 17.9-54.9 16.1"/><path fill="#59bdec" d="M122.75 10.25q3.7-5.35 7.45-7.95 1.85-1.3 2.95-1.55 1.7.15 4.7 5.9 2.95 5.6 5.65 13.7 6.7 20.1 4.55 30.1-1.95 8.95-15.2 18.75-4.15 3.05-8.9 5.85L120 77.2q-8-3.5-14.45-1.8-2.05.55-3.7 1.5l-1.2.9Q77.1 69.85 70.5 53.45q-2.05-5.1-2.2-10.45l.3-4.35q1.4-1.3 5.75-1.7l4.1-.15q.5-7.2 4.3-13.1 1.9-2.9 3.7-4.4 1.5-3.9 3.05-6.9 2.05-4.1 3.25-4.55 1.15-.45 3.65 2.3L98.7 13q8.25-2.7 17-3zm.25 86.2-3.35-11.1Q132.75 91.4 139.5 97q3.35 2.8 4.1 4.35 1.85 1.25 2.75 3.95 1 2.85 1.25 8.2.2 4.6-1.6 8.95l-1.85 3.4.7 5.6q4.85 3.55 4.7 8.75-.2 5.25-5.4 6.25-4.35.9-6.4-2.45l-1.15-3.5q-4.95-.55-5.95-4.1l-.05-3.4-1.2.05q-1.5-.2-3.2-1.6-3.7-3.6-2.35-8.55l2.1-4.25q2.1-3.55 3.8-9.25l1.25-4.95q-.35-.85-4.2-4.5zm-20.05-12.6 1 .8q1.1 1 1.3 1.95.35 1.3-.25 2.75-.7 1.65-2.35 2.8-2.3 1.7-15.15 8.7-.1 4.45 1.55 10.4l1.7 5.05 1.6-.1 3.6.55q5.25 1.7 5.55 7.85.3 5.6-4.45 7.15l-3.25.5-1.5-.1q-1.05 4.8-5.25 5.95l-4 .25q-.6 2.4-3.95 4.35-4.2 2.4-8.25-.55-3.85-2.85-2.5-9l2.15-5.55q-.7-8.95.2-16.65 1.05-9.2 4.2-14.5 2.85-4.8 15.75-9.15 6.45-2.2 12.3-3.45"/><path fill="#59bdec" d="m75.8 147.7-1.95-4.4q9.55-5.6 17.55-21.65 2.5-5 4.55-10.5l1.55-4.45 4.4-8.3q2.05 2.2 10.1 14.3l4.8-11.2 5.75 11.95 1.8-7.65 1.95 12.35 12.85 27.35q.05 1.35-1.5 3.15-3 3.6-10.7 5.7t-13.55-1.95q-1.8-1.25-3.2-3l-1.05-1.45-2.2 2.1-4 3.5q-3 2.2-6.2 2.55-4.35.5-11.35-1.65-6.4-1.95-9.6-6.75"/><path fill="#686d70" d="M130.45 18.3q1.3.45 2.8 7-3.1-2.45-4.6-2.2-1.35.75-.4 9.9.8 7.55 2.1 13.05-12 12.95-26.9 7.95-7.25-2.45-14.8-9.3-1.7-1.55-7.1-.85l-5.05.95q-1.85 5.6-4.4 5.9-.45.05-2.95-1.1l-.7-4.75q-.65-4.95-.1-6 .7-1.2 5.5-1.75l4.6-.3q.35-2.6 1.35-6.1l.95-3q5.15.95 10.25-.45 3.25-.85 11.9-4.05 6.65-2.15 15.9-3.85 9.55-1.75 11.65-1.05"/><path fill="#686d70" d="M165 92.4q-8.6 3.1-16-2.5-8.3-5.35-14.75-28.15-3.85-13.65-5.9-28.35-.8-5.35-.4-8.1l.55-1.65 1.55.1q2.5.85 7.3 4.8 12.25 10 23.5 23.2 14.85 17.5 13.85 26.35-.55 10.95-9.7 14.3M94.65 75.05q1.1 2 1.55 10.1-8.5 2.7-14.95 6.05-3.25 1.65-4.8 2.8-5.35-7.4-5.4-20.45Q71 63.7 72.95 59q6.15 9.05 21.7 16.05m7.45 8.8 6.8-1.3q7.3-.85 9.5 1.3t4.3 11.85q1 4.9 1.6 9.3l-1.75 8.45-5.75-11.95-4.8 11.2q-1.05-2.75-5.7-8.8l-4.4-5.5-3.85 6.75 2.5-11.8 2.15-1.15q2.2-1.65 2.55-4.05.4-2.4-1.35-3.6zm-36.65 103.8 7.15-15.2.4-8.55 6.2-12.1q2.65 2.3 8.25 3.55l5.1.85-1.55 2.7-2.75 5.7q-.95 2.2-.5 7.4.5 6.5.25 8.85l-2.45 18.25-2.4 15.85q-2.7 12.25-9.85 15.75-4.45 2.15-9.35-.3l-4-2.9q-6.6 1.6-9.55-1.45-.9-.95-1.35-2.3l-.25-1.1q-1.15-.25-2.35-1.05-2.5-1.55-2.95-4.2-.95-4.3.75-6.85l2.4-2.55q.4-.6 4.3-2l5.5-2.15q1.5-.85 9-16.2m74.15-20q-.05 2.55-.45 4.45.7 5.1 4.8 15.9 4.7 12.35 7.9 14.05 2.95 1.15 6.55.95 2.8-.2 5.2 1.65 3.25 2.45 2.05 7.1-.6 2.35-1.85 4.2l.1 1.7q-.1 2.1-1.15 4.3-1.35 2.95-4.05 3.65-2.2.6-4.3-.4l-.35 1.25q-.85 1.65-3.5 3.5-4.1 2.75-9.15.5-4.7-2.1-8.45-7.5-3-4.3-6.6-23.1-1.65-8.5-3.45-20.55-.3-2.1.55-6.9l1.2-6.2q.25-1.55-1.75-6.75l-2.1-4.95q3.7.9 9.4-1 2.8-.95 4.9-2.1l.65 1.75 2.5 5.85q1.55 3.45 1.35 8.65"/><path fill="#fffbda" d="M100.95 84.45q-3.5-2.85-.8-6.15 2.8-3.4 9.5-3.35 6.05-.1 9.25 1.7 2.7 1.5 2.85 3.95.15 1.8-1.35 3.15l-1.5.95q-3.45-2.8-11.05-1.8z"/><path fill="#fff" d="M76.55 95.95q2.25.5 3 1.75 1 1.7 2.05 8.15t.15 10.95q-.8 4.05-2.7 4.65-2.1.65-4-2.25-2.35-3.6-2.7-11.1-.3-6.95 1.9-10.25.7-1 1.55-1.55zm67.25 5.9q2.55.45 3.6 8.7.6 4.95-1.05 10.75-1.7 6-3.9 5.65-2.05-.3-2.25-7.7-.15-6.35.9-11.95.7-3.8 1.8-5 .5-.6.9-.45M97.9 36q6.45-5.7 15.45-8 4.5-1.15 7.7-1.15.9 4.9.35 10.3-1.1 10.85-8.25 13.4-7.7 2.8-12.25-5.6-1.4-2.6-2.35-6.05z"/><path fill="#ec6c1f" d="M111.55 30.2q4.45-1.35 5.9 6.55 1.3 7.25-.65 11.15-1.1 1.7-3.95 2.65l-2.6.6q-.7.15-1.55-1-1.65-2.3-2.3-8.65-.6-6.35 2.2-9.45 1.4-1.55 2.95-1.85"/><path fill="#4ca4cd" d="M87.05 70.95q-13.6-8.2-15.1-15.15 12.6 12.65 34.65 12.25 8.85-.15 16.4-2.55 7.3-2.3 10.3-5.7l2 7.3-5.3 4.55q-6.1 4.7-10 5.55-2.9-1.25-6.85-1.85-7.85-1.1-12.85 2.45-6.5-2.7-13.25-6.85m-10.1 72.35q3.55-.8 6.05-4.85-3.05 5.3 2.55 8.4t13.5.5q11.65-3.85 16.05-2.25l-4.15 2.25q-4.6 2.7-6.65 5.1-2.55 2.9-7.5 3.9-5.1 1-9.5-.75-5.15-2-9.25-5.4-4.7-3.9-4.2-6.9z"/><path fill="#4ca4cd" d="M139.15 145.5q-.7 2.2-2.8 4.45-4.15 4.55-11.05 5-7.7.4-12.5-3.1l-2.5-2.45-.7-1.15q.9-.6 2.1-1.25 2.4-1.35 3.95-1.75 5.5 3.55 11.6 3.35 5.8-.15 10.7-3.65zM93.3 97.85q-3.25 1.9-6 3.6l-.15-2.85q3.2-1.95 7.05-4.15 7.7-4.4 10.9-5.55l-.15 1.2q-.65 1.5-2.95 2.7t-8.7 5.05m28.95-4.45 4.05 3.2q4.25 3.55 5.15 5.6l-.45 2.25-2.45-2.85q-3.05-3.15-5.95-4.8zm-54.1 44.5.95.6q1.25.7 2.65.9 4.35.65 8.4-3.45l3.05 2.25q-3.25 6.35-8.95 5.4-5.35-.9-6.1-5.7"/><path fill="#4ca4cd" d="M81.5 137.55q-1.75-1.15-2.4-3.6 4.05 1.6 7.7.35 3.45-1.25 5.7-4.65l-.55 3.45q-1.1 3.7-4 4.65zm11.05-8.8 3.65-.7q3.9-1.4 5.1-4.7v1.45q-.15 1.75-.75 3.2-2 4.55-8 4.15zm31.5-5.7 1.35 2.6q1.95 2.65 4.95 3 3.05.4 5.35-.9l1.7-1.4q.1 1.85-.8 3.6-1.9 3.5-7.15 2.95-3.4-.35-5-3.4-1.6-3-.4-6.45"/><path fill="#4ca4cd" d="M134.55 131.75q-.8 2.45 2.15 4.6 3.05 2.25 6.5.75-1.1 1.45-2.9 2.45-3.65 2-7.35-.4l-1.35-1.5q-1.3-2-1-4.65z"/><path fill="#4ca4cd" d="m140.3 140.15 1.9 2.7q2.65 2.35 6.25.3-.85 1.55-2.4 2.6-3.1 2.15-6.7-.25-1.8-1.2-2.35-3.1l-.15-1.7z"/><path fill="#515457" d="m174.7 78.1-.05 1.85q-.2 2.3-1 4.3-2.6 6.6-10.25 8.55-11.8 3.35-20.5-9.6-2.7-4.05-4.75-9.25l-1.55-4.4 2 3.1q2.6 3.7 5.55 6.6 9.55 9.2 19.25 6.85 4.95-1.1 8.6-4.65 1.85-1.8 2.7-3.35m-86.35-5.8q2.8 1.65 5.9 2.4 1.1 1.2 1.65 5.95l.3 4.5-12 4.5q-4.1-4.3-4.65-14.3l.3-9.15q5.8 4.5 8.5 6.1m39.4-44.5 2.35 17.7q-.85 2.2-2.6 3.7l-1.55 1.05q1.95-4.2 2.1-13.75zM74.9 158.9l4-7.65 4.6 2.25q5.3 2.25 8.8 2.4l-4.15 8q-.55-4.25-5.15-5.7-4.35-1.4-8.1.7m59.95-7.8 4.2 8.65q-4.15-3.2-9.15-1.9-4.8 1.25-5.85 5.2l-3.25-8.55 5.3.05q5.9-.55 8.75-3.45m-90.5 60.7.65 2.25q1.15 2.35 3.75 3.1l-1 4.95q-1.5-.55-2.65-2.15-2.35-3.15-.75-8.15"/><path fill="#515457" d="m49.05 217 2 3.55q2.95 3.4 7.9 2.45l1 4.5q-3.1.75-6.1.05-6.05-1.35-5.6-8.35z"/><path fill="#515457" d="m81.1 219.65-2.3 4.7q-4.3 6.8-10.4 6.9-6.5.15-8.6-4.65-1.75-4.2.4-6.95l1.6 3.35q2.4 3.45 6.4 3.9 4.05.45 9.25-4.4l4.4-4.95zm54.15 2.25q6.5 6.45 13.55 4.05 2.5-.7 4.3-2.95l1.25-2.1-.15 4.05q-1.15 4.3-6.05 5.4-6.25 1.55-11.25-2.8-4.95-4.25-6.75-12.55l1.35 2.25q1.7 2.65 3.75 4.65"/><path fill="#515457" d="m157.85 225.65-3.35-.05-.7-5.5q5.45.65 7.5-3.05.65-1.15.9-2.6l.1-1.2 1.25 2.2q.9 2.9-.6 6.2-1.45 3.35-5.1 4"/><path fill="#515457" d="M162.9 204.6q3.7 3.5 2.75 8-.5 2.2-1.75 3.75l-2.3-5q1.4-1.55 1.5-4.3z"/><path fill="#dcd9bd" d="M120.65 83.65q-.55.95-1.55 1.05-.95-.95-3.4-1.5-5-1.15-12.75.65l-1.7.05q-1.65-.25-1.5-1.65l1.9-.8q2.4-.9 4.9-1.35 8.1-1.35 14.45 2.6z"/><path fill="#dbdcdc" d="M145.15 124.4q-1.35 2.55-2.55 2.45-2.4-1.1-2.3-7.95l.55-6.6.55 6.8q1.1 6.5 3.75 5.3m-65.1-3.5q-2.25 1.15-4.15-.8-.9-.95-2.1-3.35 2.35 2.8 4.7 1.6 3.1-1.6 3.1-10.95l.45 6.1q.05 6.3-2 7.4"/><path fill="#0d131a" d="M87.9 17.65q1.55-.95 2-.75.5.2-.85 1.35-4.7 4-6.65 7.55-2.1 3.8-3.25 10.85-.05.35-.7.2l-.6-.45q.7-7.6 4.35-13.05 2.5-3.75 5.7-5.7"/><path fill="#0d131a" d="m83.75 37.6-5-.15-6 .55q-2.8.5-3.4 1.3-.45.65-.45 3.55 0 9.65 7.2 18.15 8.3 9.8 24.7 16.05.25.1-.05.65l-.6.5Q79.7 71.65 71.3 56.95 68.2 51.5 67.4 46q-.65-4.7.55-7.3 1-2.2 7.5-2.55l7.4.2q2.6.45 2.8.95t-1.9.3m39.3-28q.35 0 .15.55l-.55.55q-10.9-.2-19.2 1.75l-6.2 2q-1.9.75-2 .35t1.4-1.3q3.3-1.85 9.3-3.05 8.15-1.65 17.1-.85"/><path fill="#0d131a" d="M132.8 0q3.3.1 8.55 13.4 5 12.7 6.95 24.6l-.75-.1q-.8-.4-.9-.75-3.8-17.05-8.4-27.35-3.5-7.8-5.45-8.25-1.15-.25-5.65 4.7l-4.3 5.05q-1.45 1.95-1.85 1.6t.7-2.2q2.2-3.7 5.8-7.2 3.7-3.55 5.3-3.5M86.9 19.95l-1.1.6q-.95.3-.85 0 1.75-5.3 3.95-9.1 2.6-4.4 4.55-4.2 2.65.3 6.2 5.25.2.3-.65.7l-1.05.1Q95 8.65 93.15 8.6q-2-.05-6.25 11.35"/><path fill="#0d131a" d="M175.6 77.35q.7 9.65-8.25 14.65-9 5.05-17.7-.4-9.6-5.95-16.45-29.65-5.2-18.05-6-32.35-.4-6.35 1-6.9 1.45-.65 7.55 3.7 11.4 8.1 24 22.65 15.4 17.8 15.85 28.3M164.4 91.7q6.15-2.55 8.3-8.55.7-1.9.85-3.95l.05-1.85q-.5-11.9-19.6-31.95-6-6.3-13.1-12.6l-5.9-5.1q-5.05-4.1-6.2-3.35-.4.2-.25 2.9l.2 2.6q3 24.55 8.75 40.1 5.75 15.65 13.65 20.6 6.05 3.7 13.25 1.15"/><path fill="#0d131a" d="M120.15 77.85q-.35.1-.7-.6-.35-.75-.05-.9 3.25-1.3 8.3-4.6t7.1-5.55q.25-.25.85.35.65.6.4.85-2.05 2.55-7.3 5.95-5.15 3.35-8.6 4.5m4.4-60.1q3.55-.4 5.25 0 2.1.5 2.8 2.4.7 1.95 1.15 5.3.05.3-.65.3-.65 0-.7-.3-.45-3.35-1.1-4.8-.55-1.15-1.9-1.4t-4.9.1q-5.55.6-15.45 3.1-9.4 2.45-16.8 5.05-3.85 1.35-7.5 1.45-2.85.05-4.15-.6-.25-.1-.1-.65t.45-.5l3.2.3q3.45 0 7.7-1.35 21.35-7.1 32.7-8.4m5.1 27.7q.1-.25.65.25.5.5.4.75-1.35 2.85-5.55 5.6-5 3.3-11.1 4-7.7.95-14.8-2.7Q94.5 50.9 88.2 45.1q-1.05-1-5.1-.75-3.5.15-6.2.9-.8 2.25-2 3.95-1.35 1.9-2.5 2.15-.95.25-2.25-.45l-1.25-.8q-.25-.1.05-.6.35-.5.6-.4l.8.6 1.85.1 1.5-1.4 1.75-2.9q.3-.7.7-1.05.35-.3 1.15-.5 2.7-.7 6.1-.9 4-.2 5.3.7 7.3 6.55 12.55 8.85 5.5 2.4 12.15 1.75 5.95-.55 10.75-3.55 4.15-2.5 5.5-5.35"/><path fill="#0d131a" d="M121.9 26.4q.55.1.55.35.05.5-1.3.65-10.75 1.05-18.3 5.7-2.4 1.5-4.15 3.15l-1.35 1.4-.6.5-.7.1q-.3-.25.5-1.4l1.4-1.65q1.8-1.8 4.2-3.35 7.6-4.85 18.9-5.55z"/><path fill="#0d131a" d="M102.85 48.65q-4.4-4.2-5.5-12.1-.05-.3.55-.65l.65-.05q1.15 8 5.1 11.85 3.45 3.4 7.7 2.55 6.9-1.35 8.65-10.1.95-4.7.35-13.15l1.15-.15q.7 9.2-.25 13.95-1.85 9.25-9.5 10.75-4.85.95-8.9-2.9"/><path fill="#0d131a" d="M111.7 29.6q2.6 0 4.5 2.65t2.25 6.85q.45 5.6-1.25 9.4l-.85.25-.6-.15q1.95-3.45 1.4-9.45-.3-3.75-1.75-6.05-1.45-2.35-3.5-2.35-2.2 0-3.6 2.7-1.55 2.95-1.45 7.9.2 3.95 1.25 6.5.8 1.95 1.9 2.75.2.1-.1.5-.25.4-.5.3-1.05-.55-1.85-1.85-1.7-2.75-1.95-8.15-.25-4.85 1.5-8.3 1.8-3.5 4.6-3.5"/><path fill="#0d131a" d="M111.8 35.55q.85 0 1.45 1.35.7 1.55.75 4.15.1 5.5-1.8 5.5-2 0-2.25-5.25-.15-2.7.4-4.3.55-1.45 1.45-1.45m-8.4 24.05q.45-.15.6 1 .1.7-.3 1.4l-1.35 1.1-3.95 1.25-5.95 1.4-3.2.55-1.2.15-.95-.2q-.1-.25.65-.6l1.05-.4 3.35-.9q8.6-1.8 9.8-2.55l.85-.65.15-.6q.1-.9.45-.95m-3.05 19.65q-.65 1.2-.4 2.35l.25.8q.45.8 1.35 1.25.25.1-.05.7l-.55.45q-1.4-.65-2-1.85l-.4-1.25-.05-.65q0-1.55.9-2.95 1.7-2.55 6.35-3.45l8.2-.3q4.6.55 6.85 2.55 1.95 1.8 1.8 4.2-.15 1.9-1.75 3.2-1.15.95-1.65.95-.25.1-.5-.55t.05-.75l.95-.6q.9-.85 1-2.15.15-1.8-1.35-3.05-2-1.75-6.25-2.25l-7.6.3q-3.95.75-5.15 3.05M99.9 93.5q.1-.35.75-.55l.65.1q-.5 4.6-2.45 11.7-2.15 7.85-4.35 11.95l-.7.1q-.55-.25-.45-.55 2.05-4.9 3.6-10.65z"/><path fill="#0d131a" d="m101 83.6 6.35-1.35q6.75-.9 10.7 1 3.35 1.65 5.9 15.35 1.1 5.9 2.7 19.5l-.7.85-.8.15q-1.8-15.75-3.45-23.75-1.95-9.55-4.15-10.8-2.2-1.2-7.15-1.25-5.05 0-8.95 1.3-.3.1-.5-.4-.25-.5.05-.6m-27.85 59.95q0-.35.75-.4t.8.3l1.2 3.35q2.2 3.65 7.15 5.8 7.1 3.1 11.95 2.9 4.75-.2 8.55-3.65 3.5-3.4 6.15-5 2.35-1.45 4.65-1.8l2.1.05q.2.3-1.8.9-3.9 1.15-9.95 7.05-4.75 4.25-11.1 4.15-4.85-.1-11.25-2.9-5.55-2.45-7.9-6.75z"/><path fill="#0d131a" d="m138.5 145.45.7-.05q.55.25.45.6-.55 1.9-2.2 3.9-3.35 3.95-9.45 5.2-8.8 1.6-14.75-2.15-1.95-1.2-3.35-2.8l-1.1-1.5q-.2-.25.45-.5.6-.25.8 0l1.05 1.3q1.25 1.35 3 2.35 5.45 3.15 13.5 1.7 5.45-1.15 8.7-4.6 1.6-1.75 2.2-3.45M122.55 96.8q-.25-.2-.1-1 .2-.75.45-.55l3.55 3.2q3.6 3.4 4.75 5.45l-.15.9-.45.35q-1.05-1.85-4.65-5.3z"/><path fill="#0d131a" d="m131.85 102.55-.1 1.1-1.15 5.75q-1.6 6.05-4 9.2-.2.25-.85-.2-.65-.5-.45-.8 2.25-2.95 4.05-8.8l1.4-5.4q.35-1.7.8-1.65.3.05.3.8m-13.25-17.2q-.3-.2 0-.8t.6-.45q8.35 4.25 14.7 8.2 10.15 6.35 10.9 9.55.1.35-.85.4-.95.1-1.05-.25-1.55-5.05-24.3-16.65m24.95 41q-.05-.25.55-.3.55-.1.6.2l.9 4.75-.6.15-.65-.25z"/><path fill="#0d131a" d="M127.55 118.7q-.9.4-1.7 1.4-1.55 2-1.55 5.3 0 3 2.15 5 2 1.85 4.15 1.7 2.6 0 4.3-1.7 1.95-2.05 1.9-4.5.05-2-.8-3.55-.7-1.35-1.75-1.9l-1.05-.45q-.5-.2-.45-.45.05-.55 1.15-.3 1.8.3 3.1 2.05 1.5 2 1.35 4.65 0 3.2-2.3 5.6-2.2 2.2-5.4 2.2-2.8.15-5.3-2.15-2.8-2.65-2.8-6.2 0-3.75 2.05-6.05 1.05-1.15 2.2-1.6l2.05-.2q.15.45-1.3 1.15"/><path fill="#0d131a" d="M139.15 125.55q.25-.5 1.7.25 1.95 1 2.9 2.15.95 1.1 1.45 2.85.45 1.85.1 3.9-.35 1.85-1.15 3.05-1.3 2.2-4.15 3.15l-6.15-.25q-2.75-1.2-3.65-3.95-.65-1.95-.25-3.9.1-.35.7-.15.65.15.55.5l.15 2.3q.6 2.4 3.05 3.45l5.15.15q2.2-.75 3.15-2.4 1.75-2.7 1.05-5.45-.65-2.9-3.45-4.4-1.4-.7-1.15-1.25"/><path fill="#0d131a" d="M137.65 142.6q.95 2.25 3.6 2.95 2.85.75 5.05-.95 2.3-1.8 2.2-4.9-.25-5.2-4.45-8.35-.25-.2.1-.75.4-.55.7-.35 5.05 3.8 5.25 9.3.15 3.85-2.8 6.25-2.8 2.25-6.45 1.25-2.95-.75-4.15-3.2-.85-1.7-.7-3.75 0-.35.6-.2.65.1.6.45zm6.1-41.3q1.3 0 2.7 2.75 1.95 3.8 1.7 10.45-.45 7.6-2.9 10.95-1.35 1.85-2.75 2l-.15-.05q-1.15-.2-1.9-2.5-1.1-3.3-.75-10 .25-4.7 1-8.2 1.15-5.45 3.05-5.4m-.35 1.3q-.65.8-1.25 3.2-.8 3.55-1.15 9.65l-.05 2.9q0 6.05 1.3 7.7l.2.15.55-.05q1.25-.8 2.15-2.95 1.35-3.2 1.6-8.75v-1.35q0-4.85-1.05-7.85-.75-2.15-1.75-2.75l-.4-.05zm-42-4.4q.45-.8 1.1-.15l3.25 4q3.75 4.9 6.25 9.4l4.1-9.9q.45-.95.7-.95.2.05.6.85 2.15 4.15 4.95 10.4l1.25-7.35q.05-.3.55.3.55.55.5.85l-1.5 7.8-.55 1.15q-.25 0-.75-1.1l-5-10.95-4.15 10.4-.6.9-.65-.85q-2.45-4.25-5.4-8.45l-3.95-5.15-4.25 8.1q-.15.25-.55-.45-.45-.7-.3-.95zM73.75 59.1l-.85 3.15q-.9 3.9-1.1 8-.75 13 5.2 23.25.2.3-.35.7l-.75.1q-4.5-6.4-5.6-16.2-1.15-10.35 2.1-19.55.1-.3.8 0 .65.25.55.55m20 16.35q-.1-.35.65-.6l.9.1 1.05 3.15q1 3.75.8 7.45 0 .35-.8.35t-.8-.35q0-2.8-.9-6.7z"/><path fill="#0d131a" d="M90.8 88q-11.35 4.3-14.9 7.85-2.65 2.65-4.1 12.6-1.3 8.9-.9 17.2.1 1.9-.6 3.55-1.55 3.45-1.55 6.45 0 3.15 1.9 5.05 2.8 2.45 6.35 1.55 1.85-.5 3.45-1.85 1.5-1.25 1.9-2.45l.8-.1q.65.25.55.6-.5 1.6-2.15 3.2-1.85 1.75-4.15 2.35-4.4 1.2-7.9-1.9-2.35-2.35-2.35-6.5 0-2.4 1-5.3.65-1.85 1.4-3.2-.65-5.1-.35-11.4.6-12.5 5.25-20.45 1.65-2.9 14.05-7.75 12.1-4.8 14.75-4.1 2.9.7 2.75 4.2-.2 3.6-3.75 5.5-2.05 1.1-7.4 4.2-6.15 3.6-7.2 4.5-.35.3-.45-1.25 1.2-1 7.6-4.65 4.9-2.85 7.4-4.15 2.4-1.2 2.55-4.3 0-1.9-1.6-2.7Q101.6 83.9 90.8 88"/><path fill="#0d131a" d="m87.7 99.35.15 1.2.65 5.25q1 6.05 2.9 10.35.15.3-.6.65-.75.3-.9 0-2-4.5-2.75-10.55l-.35-5.5q0-2.25.45-2.25.3 0 .45.85m-12.95-3.2.8-.65 2.1-.2q1.8.6 3.05 3.5 1.3 3.05 1.85 8.3 1.25 11.45-2.1 14.15-.95.85-2.15.75-1.3.05-2.75-1.25-2.95-2.6-3.65-9.4-.7-6.75.95-11.55 1-2.95 1.9-3.65m2.7.5-1.15.1q-.35.15-.55.35l-1.3 1.85q-1.3 2.85-1.4 8-.05 1.55.25 4.25.65 6.05 2.95 8.55 1.2 1.25 2.25 1.3.65.1 1.2-.45 2.6-2.35 1.45-13.35-1.05-9.6-3.7-10.6"/><path fill="#0d131a" d="m89.3 116.5 6.9-.2q2 .7 3.5 2.1 1.45 1.45 2.1 3.35.75 2.55.2 4.95-.5 2.35-2.1 4.1-2.75 3-7.6 2-.35-.05-.2-.75.1-.65.45-.6 3.8.8 6.15-1.8 1.25-1.35 1.65-3.35.35-2-.3-4.1-1-3.05-4.2-4.35-3.2-1.2-6.15-.3l-.95.25-.8-.1q-.25-.4 1.35-1.2"/><path fill="#0d131a" d="M79.7 136.5q-1.6-2.1-1.95-4.7-.2-1.65.35-1.7l.5.5.3 1q.25 1.45 1.25 3 1.75 2.8 4.8 2.85 3.15.1 5-2.3 1.1-1.35 1.5-3.25.45-1.85.05-3.4-.4-2-1.5-3.25l-1.55-1.3-.8-.5q-.55-.35-.45-.65l1.8.15 1.8 1.2q1.8 1.6 2.25 4.1.45 1.95 0 4.1-.5 2.25-1.75 3.9-2.4 3.1-6.4 2.95-3.1-.05-5.2-2.7m-1.25 14.6.85.1q.7.4.5.65-1.7 2.75-3.7 6.75t-2.4 5.4l-.2 3.4-.2 4.35q-.15 1.15-.9 3l-1.25 2.65-4.75 10q-4.75 9.75-7.6 14.75-1.35 2.35-2.95 2.8l-7.1 2.5-2 1.4q-2.05 2.15-2.45 5.6-.35 3.05 1 4.85.75 1 2.7 2.1l.5 2.6q-2.95-1.8-4.05-3.05-2.6-2.85-2-6.8.95-6.15 6.15-8.15 5.9-1.3 7.75-2.85 1.45-1.2 13.35-26.45 2.05-3.65 2.25-4.95l.1-4.05q.05-3.5.4-4.95.4-1.55 3.15-6.6zm13 4.75q.15-.3 1.1 0 .95.25.8.55l-3.05 5.45q-2.1 4.15-2.1 5.95l.4 5.4q.4 6.05.25 9.4-.25 5.4-4.95 31.55-1.45 8.85-5.5 13.75-4.75 5.8-11.85 4.25-5.4-1.05-7.3-4.9-1.75-3.45.1-7.95 2.05-4.9 7.05-6l2.4-.15q.2.3-1.9 1.1-4.7 1.7-6.15 5.9-1.2 3.4.1 6 1.65 3.3 6.2 4.25 6.35 1.35 10.45-4.4 3.05-4.3 4.55-12.1 4.7-25.95 5.15-31.35.3-3.35-.05-9.3L86.8 168q0-2.4 2.25-7.4z"/><path fill="#0d131a" d="m55.25 210.25 1.95-.05q.3.3-1.3.8l-2.65 1.4q-2.8 2-3.8 4.95-.65 2.5-.25 4.6t1.8 3.35q1.55 1.4 4.05 1.85 2.75.45 5.2-.6.35-.15.65.45t0 .75q-3.2 1.35-6.5.85-2.9-.4-4.6-2-3.75-3.5-2.2-9.25.8-2.95 3.25-4.95 2-1.6 4.4-2.15m65.4-55.9 1.05.15 2.4 6.25q1.6 4.65 1.45 5.75l-1.85 7.05q-.5 2.7.05 5.9l.5 2.95q4.2 27.4 8.1 37 2.45 6.9 8.05 9.55 5.35 2.5 9.9-.25 2.1-1.25 2.8-3.45.85-2.9-.3-5.5-1.4-3.15-5.15-4.05-2.45-.55-2.6-1l2.4-.1q7.15.85 7.65 7.35.2 2.65-1 5.05-1.15 2.5-3.2 3.5-6.25 3.1-12.15-.3-5.45-3.2-7.95-10.15-2.8-6.85-5.95-24.25l-2.6-16.05q-.5-3.1.15-6.85.3-1.7 1.7-6.75.15-.65-1.3-4.3l-2.95-7q-.1-.35.8-.5M134 151.5q-.15-.3.5-.65l.75-.05 3.9 8.6q1.75 4.9 1.3 7.65l-.6 3.7q-.25 1.7-.1 2.6.75 4.3 4.95 14.45 4.55 10.95 7.2 13.6l1.05.8 5.1.3q3.55 0 5.9 1.7 2.05 1.55 2.6 3.9.6 2.6-.25 5.25-.7 2.05-2.1 3.7-.2.25-.85-.25-.6-.55-.4-.8 1.15-1.35 1.75-3.05.75-2.25.25-4.45-.4-1.85-2.25-3.2-2-1.55-4.7-1.6l-5.3-.4q-1.35-.25-1.85-.75-3.45-3.6-7.75-14.65-3.35-8.75-4.6-14.2-.35-1.55.35-6.85.4-2.75-2.2-9.3z"/><path fill="#0d131a" d="M153.55 226q-.3-.15.1-.85.4-.75.7-.6 3.35 1.8 6.4-1.45 3.25-3.5 1.3-8.7-.95-2.45-2.35-3.7-1.2-1.1-3.25-1.65-1.55-.45-1.45-.8l1.65-.15q5.4.65 7.2 5.9 2.25 6.05-1.75 10.1-3.85 3.9-8.55 1.9m-74.3-55.15q.45-.65.95-.35.4.3-.15 1.05l-1.1 1.25-.5.55q-.45.4-.6.25-.25-.15.4-1.25zm54.25-1.95q-.5-.65-.05-1t.95.45l.55.9q.75 1.2.5 1.35-.3.25-1.1-.75z"/></svg>