<svg xmlns="http://www.w3.org/2000/svg" width="339" height="332" viewBox="-0.65 -0.2 339.15 331.6"><path fill="#00add1" d="m166.5 85.95 5.15-.15q5.85.6 9.35 4.4 3.45 3.8 4.2 6 .35 1.1 0 1.45l9.9 3.5q11.5 4.6 19.5 9.95 9.3 6.2 16 8.6 6 2.15 16.85 3.55 10.5 1.35 19.6 6.55 9.2 5.2 18.65 15.3 13.5 14.35 20.15 22.2 10.55 12.5 9.9 15.2-.95 4.1-3.1 21.35l-3.35 5.05q-3.8 5.1-5.85 5.65l-5.85.2-3.35-.4q-1.25 2-3.7 3.2-4.95 2.35-11.1-1.85-3 .1-6.65-.8-7.4-1.75-10.9-6.45-2.65-4.4-1.5-12.3l1.65-7.05q-3.15-9.7-7.4-20.65-8.45-22-13.75-28.45-4.65-6.8-13.95-7.95-7.65-.9-14.9 1.9-2.7 1.05-8.7 4.25l-5.45 3.05 6.35 17.1q6.65 19.2 8.2 29.75l7.55 6.75 4.85 1.7q5.85 2.4 10.85 5.95 16.1 11.45 17.8 30.45 1.75 18.95-4.2 30.1-2.95 5.55-6.3 7.3l1.15 3.75q1.5 4.3 3.35 7.1l2.2-4.9q1.7-4.05 2.9-4.25 1.3-.2 3.3 4.05 2.4 5 3.7 12.9 2.05 11.75 1.95 18.1-.1 6.2-2.3 10.45l.35 3.1q-.35 4.05-2.5 6.25-2.2 2.15-6.75 3.15-3.8.8-7.3-1.4l-2.8-2.4-1.8 2q-2.6 2-6.7 2t-6.95-2.6l-2.05-2.6q-6.95 2.95-12.35.2-4.85-2.55-5.05-7.2-.45-8.25 6.4-10.3 3.45-1.05 6.95-.45 2.85-.4 7.75-4.15 5.35-4.1 6.4-7.65.9-3.2-2.65-11.6l-3.75-7.8q-13.8 1.5-24.85-6.75-7.7-5.8-10.9-12.95-6.15 1.25-12.2-1l-5.05 3.3q-3.9 2.5-6.1 4.6-3.8 3.65-9.55 7.2l-4.95 2.8q.55 2.9 2.9 5.8 1.15 1.45 2.2 2.3l3.75-6.65q2.85-4.95 3.55-4.75.95.2 2.5 7.1 1.6 7.1 2.05 13.75.2 3.2-1.85 8.2l-6.75 14.05q-3.85 7.75-10.7 9.8l-4.3.65-1.75-.15q-5.8 4.65-11.6 2.15-1.85-.75-3.45-2.15l-1.25-1.25q-5.1 4.4-11.1 3-1.85-.45-3.6-1.4l-1.35-.9q-3.6 1.4-7.65 1.35-8.1-.15-10.4-7.45-.9-10.55 7.5-12.05 4.2-.8 8.55.55 1.05-2.3 12.6-4.9 5.75-1.35 11.3-2.2l9.95-7q.15-1.2-2.8-6.3l-3-4.9q-8.4 1.7-17.75 1.05-18.65-1.35-23.3-13.3-6-16.45 4.4-28.45 8.1-9.4 28.3-17.8 10-4.15 15.2-8.55 4.75-4.05 8.55-11.05.05-2-.75-4.85-1.65-5.7-5.85-10t-38-31.65l-32.9-26.45q-11.7-4.3-17.45-18-1.8-4.25-2.8-8.95l-.65-3.85q-2.85-2.6-2.95-4.55l.5-1.45q1.35-13.4 13.1-25.2 5.85-5.9 11.45-9.1-.75-3.3-1.65-9.2-1.85-12.05-1.25-22.15Q75.3 10.7 79.1 4.2 81.05.9 82.75.8l1.65 1.4q1.9 1.95 3.25 4.4 3.5 6.6 9 14.95 9.15 13.85 16.75 20.9 3.8 3.6 9.8 6 14.55 5.7 21.8 11.2 11.55 8.75 21.5 26.3"/><path fill="#00add1" d="M72.55 126.5q2 1.75 3.25 2.05l.8-.05q-10.15 9.25-13.2 17.85-5.1-.4-7.8.1-3.5.6-5.9 2.9-2.15 2.05-.05 25.15 1.05 11.55 2.55 22.65 6.05 4.95 9.25 8.9 5.85 7.25 6.15 14.55.3 7.1-4 10.55-2.15 1.75-4.4 2.05-1.35 4.75-3.8 6.1-2.9 1.5-9.55.15-.25 2.3-1.3 3.75-1.45 2-4.8 3.3-3 1.2-9.3-.6l-7.75-2.7-11.55-18.3q-2.05-28.2 7.25-53.5 6.15-16.8 14.05-26 3.7-4.35 20.65-11.4 8.8-3.65 19.45-7.5"/><path fill="#e85377" d="M77.3 129.2q16.4 2.85 26.2.65l7.45-2q4.5-1.1 9.1-1.2 10.25-.2 19.95 7.9 9.5 7.95 13.5 19.65 4.3 12.6-.15 23.8-5.1 12.85-20.9 20.5-16.25 7.9-37 3.2-9-2.05-16.1-6.1-7.15-4.1-10.5-9.1-11.75-17.65-7.1-36.4 1.9-7.7 6.3-13.45 4.2-5.55 9.25-7.45m7.25-38q-.6-.05-7.3 3.4-6.85 3.55-8.2 3.65-1.6.15-5.95-2.1l-4.05-2.3q-4.85 5-7.05 3.9-.9-.4-1.25-1.25-.35-.95.1-2.1.35-.75 1.75-1.8l2.15-1.65q1.95-1.8 3.4-2 1.5-.2 4 1.15 3.4 1.9 5.5 2.8l6.7-3.15q6.95-3.2 8.2-3.6 1.7-.6 2.95-.45 1.75.25 5.15 1.95 5.05 2.5 10 4.3 6.7 2.5 10.25 2.5 3.7 0 9.95-2.65 6.5-2.75 7-2.8 1.8-.15 2.6.8.8 1 .1 2.45-.85 1.85-6.05 4.3-5.2 2.5-9.95 3.4-5.3 1.05-10.4-.65l-5.5-2.55-7.2-3q-6-2.4-6.9-2.55m43.15 217.25q-2.15 4.3-1.25 9.05.45 2.4 1.35 3.95l-1.45 1.65q-2.3 1.7-6.35 2.15-6.05.3-8.95-3.45-.9-1.15-1.4-2.6l-.3-1.2q-.25-2.45.45-5.25 1.3-5.6 5.8-7.15 4.5-1.6 8.75.45 2.15 1.05 3.35 2.4m107.3 1.3q3.2.75 5.5 2.5-2.7 3.7-1.8 8.9.5 2.6 1.5 4.45l-1.2 2.2q-2.2 2.2-6.9 2.4-7.95.4-10.2-6.7-.95-2.9-.4-5.9.55-2.95 2.25-4.7 4.75-4.75 11.25-3.15M7.85 229.8l2.6-8.35q1.4-4 4.25-4.2 5.1-.35 9 5.9 3.5 5.65 2.5 8.95-1.05 3.5-3.75 9.95-2.65 6.35-3.7 9.8-3.45 11.95.45 25.9Q4.8 272.2 2.45 259.9q-2.2-11.2 5.4-30.1m319.65 2.8q-.35-9.8-7.5-20.35-5.15-7.6-12.45-13.9-5.95-5.1-5.1-13.4.8-7.85 5.8-9.45 1.9-.6 3.45.4 2.15 1.4 7.95 7.9 2.3 2.6 8.8 8.45 5.7 5.75 7.5 11 1.7 5.05-.2 13.1-2.2 9.3-8.25 16.25"/><path fill="#595757" d="m195.95 141.25-1.1 7.45q-.3 9.05 3.4 17.15 5.4 11.8 8.5 16.15 4.95 6.95 14.05 12.75l-8.75-.65q-7.75.35-13.65 4.6-11.65 10.7-13.3 25.5-1.35 12.4 4.4 29.95-5.85-5.05-8.8-14.65-5.9-19.2 8.5-41.85 3.8-6.05 4.1-15.25.3-10.55-4.8-19.05-3.4-4.95-7.65-8.05-3.95-2.9-12.6-7-16.9-8.05-23.15-25.75-2.65-7.4-2.5-14.55.2-7 2.9-11.6.6-1.2-.95-3.45-3-4.55-13.45-9.95-2.95 4.1-5.8 6.25-5.6 4.15-12.55 3.55-6.8-.95-11.6-6.4l-3.45-5.25-11.9 4.65-1.4-.15q-1.8.05-3.6.95l-13.15 6.3-7.65-4q-1.9-.7-4.35.85l-3.7 2.85q.75-3.2 2.2-7.3 2.9-8.15 6.45-12.35l1.35 1.85q1 2.75-.85 6.95l5.95 4.85 12.3-4.85 16.75-6.7q-.8-4.5-.35-5.4.5-1.05 3.7-.6 7.05 1 14.35-.65 6.9-1.5 11.15-4.7 3.55-2.65 5.15-.85 2 2.2 3.25 12.25l7.4 4q8.15 5.1 11.95 10.7 3.5-1.5 8.8.05 5.2 1.5 10.1 5.25-13.25-.6-17.35 5.15-4.25 6-.6 21.3 1.4 6 6.85 11.65 5.1 5.3 12.05 8.65 7 3.35 13.15 3.4 6.7 0 10.25-4"/><path fill="#f9be00" d="M102.05 76.6q-.25-1.55.25-2.15.65-.7 2.65-.4 5.85.85 10.85-.25 5.1-1.15 8.35-4.15 1-.95 1.75-.2.7.65 1.05 2.55 2.2 13.05-9.95 15.7-4.95 1.1-9.6-2.45-4.65-3.5-5.35-8.65"/><path fill="#922f00" d="M59.8 101.6q2.35 2.3 6.35 4.35l3.55 1.55q-1.95.7-3.4 2.75-.7 1-1.05 1.9-1.9-2.05-3.85-6.5zm36.15 4.15q2.7-.35 7.5-3.15l4.2-2.75 3.35.7q-.9 3.35-6.45 10.35-1.8-2.45-5.4-4.05z"/><path fill="#ed8599" d="m65.25 112.15 1.3-2q1.7-2.2 3.6-2.9l8 1.05q9.65.5 18.05-2.55 1.3.1 4.15 1.6 3.2 1.7 4.2 3.25-11.65 13-23.8 11.4-7.5-1-12.25-5.5-1.5-1.45-2.5-3.05z"/><path fill="#595757" d="M153.45 200.9q.6 3.3.8 7.9-1.05 11.35 1.25 21.3 1.2 5 2.55 7.7-7-4.65-10.4-15.25-1.1-3.3-1.7-6.8l-.35-2.85 3.1-3.75q3.35-4.45 4.75-8.25M37.3 146.6q6.7 1.8 11.4 10.5l.1 9.1q-2.25-4.1-6.55-6.95-8.6-5.8-18.65.2 4.95-8.95 7.95-12.85l1.65-.3zm-11.4 33.8q-6.8 1.55-11.25 5.8.4-2.45 2.9-9.5l2.4-6.6q10.75-7.2 21.2-1.9 5.25 2.7 8.3 6.8l2.1 15.9q-12-13.55-25.65-10.5M242 132.8q2.95-8.55 15.95-7.6l5 2.25q5.4 2.65 7.5 4.6-5.35-1.3-11.2-.1-11.6 2.4-13.9 15l-3.7-5.45q-1.1-4.45.35-8.7m25.7 7.2q6.9-1 13.1.85l13.05 12.65q-20.85-6.55-31.6 4.9-3.35 3.6-5.3 8.55-.95 2.5-1.25 4.25l-5.3-14.8q3.45-14.35 17.3-16.4M160.15 310q.5 3.2-.35 5.85-3.45 5.25-9.75 6.95l-5.6.6q4.65-6.95 2.15-12.15-2.05-4.35-7.9-6-4.15-1.2-8.05.85l-3.1 2.3q-4.3-4.05-10-3.35l-4.85 1.55-2.05-1.65q.5-2.05 8.55-3.8l7.95-1.35 8.45-.8q9.8-.3 16.65 2.2 6.9 2.45 7.9 8.8m59.6-2.45q2.15-.35 5.45-3.15l2.9-2.7q17.3-2.7 27.2 1.45 4.95 2.1 6.4 4.75l-2.3 10.15q-1.35-7.05-8.25-8.55-3.5-.8-7.25.95l-3.05 1.9q-5.05-3.2-10.65-2.65l-4.65 1.2z"/><path fill="#fff" d="M155.9 232.9q-2.1-6.65-1.1-12.75 12.75 5.35 25.25.05-2.55 13.2 3.95 26.2 3.2 6.45 6.95 10.3-17.1 1.15-28.15-11.6-4.75-5.45-6.9-12.2m-60.35-137q11.05 4.8 12.1 3.95-3.05 2.55-8.95 4.9-6.9 2.75-14 3.5-19.2 2.1-29.45-11.15l4-3.1q7.85 4.35 9.8 4.25 1.95-.05 15.6-7.3z"/><path fill="#0093b2" d="M189.4 166.05q-8 18.2-21.25 28.2-4.7 3.5-9.2 5.35-3.65 1.5-5.2 1.3l-1.75-5.4q-2.05-5.75-3.7-7.4 11.55-17.45 3.9-36.4-3.3-8.2-9.6-14.45-6.25-6.25-13.9-9l6.15 2.05q7.75 2.2 15.75 2.8l5.65 6.6q7.4 7.3 16.2 10.7 8.8 3.45 13.75 9.9 2.5 3.2 3.2 5.75"/><path fill="#3e3a39" d="M162.5 133.1q8.75 9.15 17.9 11.2 8.6 1.95 15.55-2.75-1.5 12.05-4.2 19.4-1.35 3.7-2.4 4.95-.15-2-2.05-4.75-3.9-5.55-12.85-9.45-10.2-4.1-18.05-11.75l-5.8-6.85q4.7 1 11.9 0"/><path fill="#0093b2" d="M180.3 89q3.65 4.3 5.2 8.15l-5.7-.65-3.05-1.45q2.55-1 3.3-3.6zm-76.2 187.2q-3.9-3.05-6.1-7.45L96.6 265l6 2.15q7.5 2.15 15.3 1.8 24.95-1.05 43.1-26 3.55 5.8 11.45 9.9 4 2.05 7.25 2.9-2.05.6-6 3.25-4.05 2.7-8.25 6.3-3.55 3.05-8.1 5.7l-3.85 2.1-11.7 5.9q-25.15 7-37.7-2.8"/><path fill="#0093b2" d="m152.95 273.5-2.65 4.7q-3.5 5.45-7.45 9.15L138 279.7zm-58.5 40.2.6 1.25q.95 1.5 2.35 2.6 4.6 3.55 12.65 2.1l2.25 3.35q-4.25 1.55-8.6 1.15-8.75-.75-9.25-10.45m51.05 7.25q-2.65 5.15-7.35 5.15-6.65 0-9.5-3.75-.9-1.2-1.3-2.6l-.25-1.2 3.35 2.3q4.3 2.05 8.9.95 4.45-1.2 6.6-3.75l1.2-2.3z"/><path fill="#3e3a39" d="m146.9 317.25 4.8-1.7q5.25-2.4 7.8-5.75l.25 2.35q.15 2.7-.45 4.35-.85 2.45-5.35 4.95-5.1 2.8-9.2 1.6l1.25-3.2z"/><path fill="#0093b2" d="M159.8 309.85q6.05-8.6 7.85-12.4l-7.55 18.9zm46.2 6.35.65 1.2q1 1.4 2.4 2.4 4.6 3.35 12.3 1.8l.75 3.8q-7.65 2.3-12.45-.6-4.7-2.8-3.65-8.6m32.95 3.3 2.45 3.25q3.35 3.25 8.15 3.25 4.75 0 7.85-2.95l2.1-2.95-.3 1.55q-.45 1.9-1.35 3.45-2.85 5-8.8 5.1-7.25.15-9.4-5.25-.65-1.7-.75-3.75zm3.95-48.95 1.85 3.2-5.15 5.15q-5.45 6.2-7.15 11.3l-1.9-5.75q-2.4-6.2-4.65-8.6l5.4-.55q6.45-1.2 11.6-4.75"/><path fill="#0093b2" d="M253.65 240.9q-.1 7.85-1.95 14.4-5.8 21-26.1 21.1-20.3.15-31.3-14.85-3.45-4.7-5.55-10.35l-1.4-4.7 2.55 2.75q3.4 3.2 7.5 5.45 13.15 7.35 28.7 2.95 15.6-4.45 23.05-14.3 3.7-4.95 4.3-9z"/><path fill="#dbdcdc" d="m183.7 245.7 2.2 3.85 4.1 6.8-9.15-.35q-10.9-2.45-19.4-13.1l1.5 1.15q1.95 1.35 4.3 2.2 7.6 2.65 16.45-.55"/><path fill="#0093b2" d="M202.8 130.35q16.65-4 27.6.55 7.55 3.1 11.65 9.8-1.95-3-6.05-5.4-9.15-5.3-22.7-1.7-6.35 3.2-25.3 11.45-14.45.7-25.05-9.95-3.3-3.35-5.85-7.4l-1.85-3.4 3.9 1.8q5.05 2.05 10.5 3.45 17.55 4.5 33.15.8m59.9 58.55.5 2.1q.8 2.55 2.2 4.8 4.5 7.15 13.55 8.5l-.95 4.15q-.6 4.55.95 6.7-2.8.75-6.45 0-7.35-1.5-11.65-8.85-1.1-6.1.25-12.35z"/><path fill="#0093b2" d="M286 218.2q-5.65-1.35-7.1-3.8-1.55-2.6.05-8.5l1.5 1.05q2 1.15 4.15 1.8 7 2.1 13.55-1.75-1.15 3.25-3.3 6.3-4.2 6.05-8.85 4.9"/><path fill="#0093b2" d="m312.8 202.85-2.75 4.45q-3.1 4.8-5.05 6.4-1.9 1.6-6.55 1.4l-4.3-.5 2-3.3q2.15-3.95 2.7-7h4.4q4.95-.55 7.55-3.6z"/><path fill="#c94768" d="M324.35 219.85q-5.8-14.15-18.8-22.85-.85-.6-1.9-4.1-1.15-3.9-.5-6.25l4.35 3.5q5.2 4.5 9.3 9.6 13.15 16.35 10.7 32.45-.3-5.3-3.15-12.35M26.05 233.9Q17.8 251.85 17 264.05q-.45 7.15 2 13.75-7.6-9.7-3.1-33.3 1.4-7.4 3.85-15.3l2.2-6.4q1.65.4 3.2 3.25 2 3.6.9 7.85"/><path fill="#0093b2" d="m67.35 217.2.3 3.55q.1 3.95-1.05 6.2-1.1 2.3-4.25 4.3l-2.9 1.55q.15-1.7-.8-3.65-1.9-3.9-7.35-5.3l.1-6.15 2.05 1.75q2.8 1.7 6.4 1.55 3.75-.15 5.65-1.5 1.05-.75 1.85-2.3"/><path fill="#0093b2" d="M44.1 243.55q-2.95 3.95-8.75 3.15-5.6-.8-10.05-2.45L22 242.7l2.15-5.05q2.15-5.7 2.3-9l16.2 3.7q12.25 1.95 16.85-1.65l-.85 4q-1.4 4.15-4.45 4.85l-5.95.4-2.3-.5-.35 1.3q-.55 1.55-1.5 2.8M50.75 146q4.55-4.95 15.9-5.8l-1.75 2.75-1.65 3.05-8.6.35q-4.85 1.1-6.2 4.4 0-2.3 2.3-4.75"/><path fill="#ce7486" d="m67.4 109.15 2.2-1.95q7.9 2.6 17.65.9 4.9-.85 8.2-2.2 3.15.55 6.5 2.65l2.75 1.95q-1.3 2.3-5.55 5.45l-4 2.75q-8.75-5.1-19.1-7.85z"/><path fill="#c94768" d="M137.3 133q6.55 4.5 11.15 11.3 4.9 7.25 6.25 15.3 3.25 19.25-14.05 34.65-15 10.2-37.15 8.7-9.85-.65-17.75-3.8-8.2-3.25-12.15-8.4 8.85 3.75 21.75 1.65 13.25-2.2 24.2-9.45 12.2-8.15 17.15-20 5.7-13.65.6-29.95m-11.85 191.1q-3.45 1.9-7.9.95-4.4-.95-6.55-4.75l-1.25-3.6 1.4 1.05q1.75 1.15 3.7 1.8 6.15 2.15 11.5-1.4l1.7 3.8zm96.6-4.7.9 1.4q1.2 1.55 2.85 2.55 5.25 3.15 12.8-.8l1.5 3.7q-1.4 2.3-4.3 3.5l-6.5.3q-4.8-1.4-6.65-5.25-1.5-3.05-.6-5.4"/><path fill="#f3b1b9" d="M75.95 150.55q.65-2.2 2.15-3.35 1.65-1.4 3.75-.75 2 .6 2.65 2.9.65 2.05-.1 4.05-.85 2.2-2.55 3.2-1.65 1-3.5.35-1.4-.5-2.15-2.25-.9-1.95-.25-4.15"/><path fill="#0d131a" d="M168.6 87.9q1.5 3.1 5.2 7.35h-2.95q-3.1-3.45-4.2-5.85-7.5-15.8-19.05-25.85-9.6-8.25-22.45-12.95-4.4-1.65-7.6-3.55-2.55-1.55-5.1-3.8-4.25-3.75-9.2-10.25-5.25-6.85-10-15.15-7.7-13.55-9.7-15.05-1.4-.95-2.35.35-2.9 4.35-4.45 13.35-1.65 9.4-1.1 22.1.55 12.4 2.9 22.2.5 2.3.1 2.45-.6.2-1.45-2.15-2.9-8.8-3.75-21.9-.85-13 .85-22.35 1.05-5.75 2.75-10.05 1.3-3.3 2.75-5.1Q81 .25 82 .05q.9-.25 2.05.55Q86.1 2 94.95 16.3q11 18 19.45 25.85 2.35 2.2 4.9 3.55 2.35 1.25 6.8 2.9 13.75 4.95 22.6 12.4 11.65 9.7 19.9 26.9"/><path fill="#0d131a" d="M76.75 57.15q.35-.2.75.5.45.65.1.85-7.15 4.1-13.05 10.85Q56 79.2 54.05 91l-1.35 1.2q-1.3.8-1.25.4 2-13 10.75-23.35 6.2-7.35 14.55-12.1M54.2 98.1l.9-.8q.9-.7.95-.35 2.3 16.05 10.4 24 13.35 13.15 42.45 6.75l5.65-.25q.45.9-4.2 2-31.25 7.55-45.5-6.35-8.7-8.5-10.65-25"/><path fill="#0d131a" d="M62.5 142.55q4.7-9.4 13.55-14.45 7.65 2.75 14.4 3 9.4.45 19.4-3.45 8.95-3.45 18.85-.55 9.5 2.8 16.75 10.5 7.5 8 9.9 18.55 2.65 11.65-1.75 23.65-3.1 8.5-11.4 14.7-7.85 5.8-18.65 8.45-10.7 2.6-21.7 1.55-11.45-1.1-20.55-6.05-10.85-5.95-16.9-16-5.6-9.3-6.05-20.2-.4-10.6 4.15-19.7m14.55-12.5q-7 4.25-11.15 12.75-4.15 8.45-4.15 18.15 0 10.35 4.7 19 5.25 9.65 15.45 15.3 19.35 10.8 40.9 5.25 9.5-2.45 16.75-7.8 7.3-5.35 10.55-12.45 4.55-9.85 3-20.45-1.45-9.8-7.55-17.85-6.05-7.95-14.5-11.55-8.9-3.8-17.7-1.45-22 5.85-36.3 1.1m117.8 12q.05-.6.95-.65t.8.45q-1.15 11.45.7 18.05 1.75 5.95 4.9 12.5 4 8.4 7.9 12.2 7.15 6.95 12.5 10.5l-3.05.3-4.4-3.4q-3-2.5-6.35-5.9-4-4.1-8-12.05-3.6-7.15-5.4-13.65-1.95-7.05-.55-18.35"/><path fill="#0d131a" d="M248.45 213.85q5.9 9.7 6.9 22.95 1 12.4-3.35 22.7-4.55 10.95-13.4 15.1-6.8 3.2-14.75 3.05-8.15-.1-16.1-3.7Q196.3 268.8 190 257.8t-6.35-25.9q-.05-14.95 5.7-24.9 5.3-9.3 14.5-12.25 14.2-4.55 29.65 4.5 9.5 5.6 14.95 14.6m-30.05-17.7q-7.55-1.2-13.7.7-8.15 2.6-12.95 11.25-5.2 9.4-5.1 23.65.05 15.1 6.6 25.85 5.8 9.5 15.65 14.25 7.4 3.55 15.75 3.45 7.6-.05 13.25-3 7.65-3.95 11.6-14.6 3.7-9.95 2.7-21.2-2.15-24.55-20.25-35.45-6.15-3.75-13.55-4.9m-86.15 23q15.15-6.35 20.6-19.45.2-.4.55 1.15l.2 1.95q-3 7-8.05 11.35-4.4 3.7-12.45 7.1-17.55 7.4-26.4 15.15-6.05 5.35-8.6 11.7-3.1 7.75-.6 16.2 3.4 11.55 16.7 14.75 10.55 2.55 25.65-.3l3.4-.15q.2.5-.9 1.1l-2.35.9q-14.8 4.15-27.05 1.15-14.85-3.65-18.75-17-2.55-8.7.95-17.25 3.05-7.35 9.6-12.9 9.55-8 27.5-15.45m24.2 53.25-3.95 1.95-2 .5q-1.6.35-1.75 0-.25-.6 3.05-2.05 1.4-.6 3.7-1.95 4.6-2.75 9.55-6.9 8.2-6.75 12.9-9.15.4-.2 1.8.55t1 .95l-4.25 2.1q-5.2 2.95-10.2 7.1-5.15 4.25-9.85 6.9"/><path fill="#0d131a" d="M146.95 188.85q.6-.95 2.1-2.55 3 4.7 4.45 9.95 1.6 5.7 1.75 13.5.25 14.3.95 18.1 2.4 12.8 11.5 19.75 7.4 5.65 14.35 7.5 5.6 1.45 8.5.2.4-.15.8.75t0 1.05q-3.9 1.75-10.25.25-7.7-1.8-15.3-7.9-9.5-7.6-11.85-20.7-.85-4.65-.8-19.1.05-6-1.6-11.65-1.7-5.7-4.6-9.15"/><path fill="#0d131a" d="M144.9 213.2q0-.3.8-.95.75-.65.75-.4.6 5.85 3.15 12.15 3.15 7.8 8.1 12.55.45.35.7 1.8.25 1.4-.1 1.15-6.85-5.2-10.35-13.5-2.45-5.9-3.05-12.8m8.85 7.2q-.35-.2.1-.95.45-.8.8-.6 4.25 2.45 10.5 2.85 7.65.5 15.1-2.7-.5 1.05-.9 2.45-7.3 2.9-14.6 2.3-6.15-.5-11-3.35m5.85 20.2q-.65-.45-.65-1.5-.05-1 .55-.6 4.15 2.8 9.4 3.75 6.35 1.15 12.55-.9.7.55.95 1.55-6.45 2.25-13.25 1.2-5.6-.85-9.55-3.5m21.75-151.55q3.9 3.45 5.3 8.8l-2.2-.25q-1.4-3.9-4.5-6.7-2.85-2.55-6.7-3.55l-6.6-.25q-.4.1-.6-.65-.25-.75.15-.85 8.8-2.1 15.15 3.45m14.8 52.5q-.2-.35.85-1.1 1-.7 1.2-.35 3.6 7.6 8.05 21.35 4.9 15 7.75 28.05.1.4-1.15-.55t-1.35-1.35q-2.15-10.2-7.2-24.95-4.4-12.85-8.15-21.1"/><path fill="#0d131a" d="M227.75 119.65q-6-2.45-14.6-7.95-10.7-6.85-24.8-11.75-19.2-6.7-28.85-2.65-5.2 2.2-6.3 9.85-1.05 7 1.7 14.55 2.9 8 12.4 15.25 9.85 7.55 18.45 7.45 3.5-.05 9.9-3.65 9.4-5.25 10.15-5.6 11.8-5.05 19.6-4.6 7.1.4 12.95 5.5 6.25 5.4 14.6 25.4L262.9 188q.1.45-.55 1.5-.7 1.05-.95.7l-9.3-23.95q-9.65-24-15-28.7-5.2-4.5-12.6-4.55-7.4-.1-17.75 4.25l-10.9 5.7q-6.6 3.55-10 3.6-10 .15-20.65-8.25-10.05-7.9-12.7-16.6-3.1-9.95-1.1-17.1 1.7-6.15 6.35-8.3 10.5-4.85 28.55.45 14.55 4.3 28.15 13 8.15 5.2 14.35 7.85 7.1 2.95 15.15 4.1 11 1.6 16.65 3.65 9.05 3.35 17.8 11.25 10.95 9.85 22.15 22.6 11 12.55 15.15 19.8-2.8-1.95-3.75-2.05-4.75-6.9-15.4-18.3-10.45-11.25-20.2-20-8.75-7.9-16.75-11.2-6-2.5-15.9-3.8-8.95-1.15-15.95-4"/><path fill="#0d131a" d="M262.5 185.3q.45-1.25 1-2.05.55-.9.95-.75.3.15 0 1.6l-.5 1.85-2 9.1q-1.35 9.25 1.55 13.3 3.1 4.3 9.35 5.9 4.35 1.1 6.45.65.4-.1.6.85.25 1-.15 1.05-2.75.65-8-.6-7.1-1.75-10.5-6.45-3.3-4.55-1.45-14.65zm14.35 7.75q.35-.15 1.05.8l.85 1.35 1.2 2.25 2.05-1.8 1.15-.85q.85-.5 1.1-.25.25.3-1.85 2.85l-2.05 2.15q-.25.35-.85.25-.4-.05-.55-.3l-1.4-3.2-.65-1.7q-.35-1.4-.05-1.55"/><path fill="#0d131a" d="M283.55 216.55q3.7 1.35 6.8 0 3.95-1.7 8.5-14.6l.85-1.9q.65-1.15 1-1.05.6.2-.4 3.8-3.95 13.65-9.3 15.9l-8.1.25q-3.55-1.25-4.95-3.4-1.1-1.75-.5-7.4.3-3.05 1.55-9.55.1-.4.9-.2.85.2.75.6-2.4 12.75-1.1 14.85.95 1.6 4 2.7"/><path fill="#0d131a" d="M311.95 202.45q.2-.35.95.2.8.6.6.95l-2.1 3.9-4.05 5.85q-2 2.35-5.95 2.8-3.35.4-7.3-.6-.4-.05-.2-1.05.2-.95.6-.85 7.7 1.75 11.15-2.15 2.5-2.8 6.3-9.05M242.5 137.8q0 2.35.4 4.2.1.4-.8.15l-1-.6q-.55-2-.55-4.5-.05-5 2.4-8.15 3.65-4.7 13.15-4.6.4 0 .55.9.2.85-.2.85-4.05-.05-7.1 1.05t-4.7 3.25q-2.1 2.7-2.15 7.45"/><path fill="#0d131a" d="M246 141.9q1.95-5.35 5.95-8.35 6.4-4.8 18.45-2.2.4.1.2 1-.15.9-.55.8-10.8-2.35-16.95 2.25-3.6 2.65-5.5 8-.9 2.7-1.15 4.85-.05.4-.85-.3-.8-.65-.75-1.05.2-2.3 1.15-5m12.5.25q7.7-5.3 21.7-2.3.35.1.25.95-.1.9-.45.8-6-1.4-11.25-.75-5.2.7-9.05 3.3-4.35 3-6.85 8.75-1.25 2.95-1.65 5.3-.05.35-.9-.3-.8-.6-.75-1 .35-2.55 1.65-5.55 2.55-5.95 7.3-9.2m21.4 10.1q-6.35.2-11.25 2.9-5.8 3.25-9.55 10.35l-2.6 6.5q-.05.4-.85-.35-.75-.75-.7-1.15l2.6-6.8q3.8-7.2 10.05-10.7 10.2-5.7 25.95-.35.35.1.35 1.1-.05.95-.4.8-7.2-2.45-13.6-2.3m57.85 54.35q.75 6.45-1.1 12.5-2.25 7.2-8.05 13.25-1.05 1.05-1.45 1.05-.5 0-.7-1.3-1.15-9.45-7.1-18.95-5.6-9-13.55-15.05-2.1-1.6-3.2-5.55-1.05-3.75-.75-7.95.75-10.25 7.25-10.7 3.05-.15 6.6 4.3 3.6 4.55 13.1 12.45 8 7.65 8.95 15.95m-9.8 23.85q4.15-5 6.2-11.55 2.1-6.55 1.15-11.65-1.45-8.75-7.65-14.85-8.05-6.55-12.35-11.6-3.5-4.1-5.85-4.1-4.15.1-5.1 8.35-1 8.3 3.1 11.55 8.2 6.45 13.9 15.85t6.6 18m-257-104.25q.4-.15 1.95.55 1.6.7 1.2.85l-13.25 4.65q-14 5.15-18.95 7.8-6.5 3.45-11.45 10.25-4.25 5.8-7.75 14.7-4.75 12.05-7.65 26.2-3.15 15.05-3.1 27.55-1.35 1.3-2.1 3.2-2.1-25.6 10.5-57.6 3.8-9.75 7.85-15.2 5-6.75 13.1-11.3 4.15-2.35 15.75-6.7 7.7-2.85 13.9-4.95"/><path fill="#0d131a" d="m54.85 145.45 9.45-.55-.6 2.3-8.15.5q-4.4.95-5.2 3.4-1.4 4.45.4 23.3 1.3 14.05 2.9 23.55.1.4-1.2-.2-1.25-.55-1.35-.95-5.35-38.6-2.75-46.7 1.05-3.45 6.5-4.65M45 239.9q.1-.4 1.05-.15.9.3.8.7-.75 2.55-2.55 4.45-1.9 2-4.55 2.8-2.9.85-9.2-.75-4.05-1.05-8.55-2.8-.4-.1.1-1.05.45-.95.8-.8 3.9 1.4 8.45 2.35 5.6 1.15 7.85.55 4.55-1.1 5.8-5.3"/><path fill="#0d131a" d="m44.4 222.4 3.75-.2q3.85.75 5.7 1.45 4.9 1.85 5.9 4.95 1.1 3.5-.4 7.15-1.35 3.25-3.7 4.55t-8.75.65q-6.2-.65-12.4-2.65l-1.65-.7q-1.2-.65-1.1-1l3.25.1q6.2 1.45 11.45 1.95 6.4.65 8.4-.6 1.85-1.15 2.8-3.45 1.15-2.65.2-5.35-.7-2.1-4.3-3.7-2-.9-5.95-1.9-3.3-.6-3.2-1.25"/><path fill="#0d131a" d="M51.05 216.45q.65-.05 1.05 3.1l.45 4.4q0 .4-.15.2l-1.05.05q-.9-.35-.85-.7v-4.1q0-2.9.55-2.95m-1.15-19.5q-2-1.3-1.6-1.9l1.3.05 1.4.6q16.3 10.35 17.4 21.8.7 7.55-1.35 11.05-1.7 2.95-7.5 5.7-.35.2-.8-.7-.4-.9-.05-1.1 5.05-2.35 6.4-5.1 1.4-2.85.8-9.95-.45-5.55-5.65-11.55-4.25-5-10.35-8.9M14.95 218.6q-1.6-.15-2.65 1.4-.9 1.25-1.8 4.4l-4.7 14.55q-3.7 12.8-3.1 18.25.7 6.15 4.35 10.75 3.65 4.7 10.75 8.25-2.95-10.1-.65-20.8 1.65-7.6 7.65-21.15 2-4.45-1.95-10-3.7-5.3-7.9-5.65m-1.9-2.4q3.05-1.05 7 1.9 4.05 3.1 6.05 7.95 2.1 5.1.45 8.95-5.65 12.9-7.25 20.3-2.5 11.3.4 21.65.35 1.35.05 1.6t-1.45-.35q-8.4-3.95-12.7-8.7-4.5-5-5.4-11.95-.85-6.2 2.5-16.55l5.9-18.4q1.3-5.25 4.45-6.4m18.9-68.5q-.35.1-.6-.75-.25-.9.1-1 5.1-1.4 9.3.55 5.35 2.55 8.6 10.3.15.35-.7.75-.85.35-1 0-2.6-6.1-7.35-8.7-4.2-2.3-8.35-1.15m-8.6 11.55 3.55-2.4q4.25-2.15 8.6-1.6 7.75.9 13.95 10.5.2.35-.45.95-.7.6-.9.3-5.55-8.55-12.85-9.4-3.8-.45-7.7 1.25l-3.25 1.8q-.25.25-.75-.45t-.2-.95"/><path fill="#0d131a" d="M19 170.25q1-1.25 3.65-2.8 4.4-2.6 9.3-2.6 9.35.1 18.25 9.9.25.25-.35.95t-.85.4q-8.25-9.05-16.95-9.15-4.4-.05-8.7 2.4-2.15 1.25-3.45 2.5-.25.3-.7-.5-.45-.85-.2-1.1m11.1 10.6q-5.55.05-10.7 3.15-2.55 1.55-4.05 3.1-.25.3-.95-.3-.65-.6-.4-.85 1.7-1.95 4.5-3.8 5.45-3.55 11.55-3.65 11.1-.15 21.6 11.35.25.3-.3 1t-.8.4q-9.6-10.55-20.45-10.4m107.1 99.85q-.25-.3.9-.65 1.1-.35 1.35 0 2.6 3.55 3.9 6.05 1.9 3.85 1.75 7.15-.2 2.1-.65 2.05-.65-.05-1.15-2.9-.6-2.35-2.75-6.3-1.8-3.3-3.35-5.4m14.7-7.3q-.05-.4.9-.6t1.05.2q1.1 5 5.1 8.55l.9.9q.5.7.25 1l-1.15-.2-1.3-.9q-4.75-4.1-5.75-8.95"/><path fill="#0d131a" d="M143.3 290.4q.3-.25.9.55t.3 1.05l-4.55 3.35q-3.05 2.2-5.15 3.2-4.1 1.85-10.7 2.9-4.2.6-7.9 1.75-3.85 1.2-4.45 2.15l-1.55-.15q-1.3-.45-1-.75 1-1.1 5.35-2.65 4.5-1.6 9.05-2.35 6.4-1.05 10.05-2.7l5.5-3.2zm15.5-8.75-1.05-.15q-.9-.5-.65-.85l6.2-9.9q1.3-1.8 1.95-1.7.45.1.75.5l.75 1.75 2.05 7.7q1.35 5.55 1.9 8.95.5 3.35.05 6.1-.45 2.65-2.2 6.85-1.9 4.4-7.3 14.65-2.25 4.35-7.8 7.05-5.5 2.75-9.6 1.5-.4-.1.05-.95.4-.85.8-.75 3.45 1 8.2-1.55 4.65-2.5 6.55-6.05 3.75-7.25 6.7-14.5 1.6-3.95 2.05-6.35.5-2.6.15-5.5l-1.55-8.95-1.65-8.05-.25-.25-.15.2z"/><path fill="#0d131a" d="M155.5 304.2q-3.4-3-12.75-3.9-7.5-.7-14.25.1-.4.05.75-.6 1.15-.7 1.7-.75 6.6-1.05 14.65-.1 8.55 1.05 11.35 3.7 2.75 2.6 3.65 6 .8 3.05.05 6.45-.25 1.35-1.5 2.25t-.8-.4q1.1-3.35.4-6.8-.7-3.65-3.25-5.95m-50.5-1.05q4.8.1 8.9 2.8.35.25-.25 1.05-.55.8-.9.55l-2.35-1.3q-2.75-1.2-5.4-1.15-4.2 0-6.75 1.95-2.85 2.1-3.2 6.25-.3 3.65 2.05 6.5 2.4 2.9 6.45 3.55 4.1.55 8.5-1.25.4-.15.7.7.35.8-.05.95-4.9 1.85-9.25 1.45-5.3-.5-8.45-4.05-3.05-3.4-2.6-7.85.5-5.05 3.95-7.7 3.3-2.55 8.65-2.45"/><path fill="#0d131a" d="m125.6 305.65 2.85 2.5q.3.25-.3.75-.6.45-.9.15-2.8-3-7.55-3.15-4.1-.1-6.7 2.35-2.7 2.6-2.65 7.15.1 3.4 2.35 6 2.45 2.8 6.1 3.05 3.4.2 5.65-.95 1.45-.75 2.65-2.2.25-.35 1 .2.75.5.5.85-3.5 4.3-9.65 4.05-4.45-.15-7.75-3.35-3.35-3.3-3.25-7.6.15-5.6 3.35-8.65 3.1-2.9 8.45-2.85 3.2 0 5.85 1.7"/><path fill="#0d131a" d="M144.85 307.25q3.15 3.25 3.15 8.15 0 4.4-2.7 7.7-2.95 3.6-7.8 3.9-5.4.35-8.95-2.9-3.45-3.15-3.7-8.1-.25-5.1 2.8-8.5 3.15-3.55 8.55-3.6 5.3-.05 8.65 3.35m1.35 8.15q.1-3.95-2.75-6.85-2.9-2.95-7.05-2.8-4.4.15-6.9 3-2.4 2.8-2.15 7.15.2 4.25 2.7 6.7 2.75 2.65 7.55 2.4 3.95-.15 6.25-2.75t2.35-6.85m79.85-4.75q.25.3-.25.75t-.8.15q-1.35-1.45-3.65-2.45-3.2-1.4-6.9-1-3.35.35-5.5 2.5-2.35 2.3-2.35 5.95 0 3.6 2.4 6.1 2.45 2.55 6.6 2.9l4.65-.5 1.8-.75q.35-.2.85.6.55.85.2 1.05l-2.1.95q-2.5.9-5.25.8-5.7-.2-8.8-3.4-2.95-3-2.85-7.75.1-4.35 3.15-7.25 2.8-2.65 7-3.15 6.55-.75 11.8 4.5"/><path fill="#0d131a" d="M231.85 310.25q-3.6.1-6.3 2.6-3.05 2.85-2.9 7.1.2 4.6 3.25 7.15 2.75 2.3 6.35 2.15 2.85-.15 4.55-1.1 1.55-.9 2.65-2.75.25-.35 1.05.15.85.55.65.9-1.15 1.9-3.15 3.2-2.5 1.55-5.7 1.65-4.6.1-8.05-2.8-3.85-3.25-4-8.7-.15-5.15 3.55-8.3 3.25-2.8 7.9-2.95 2.95-.05 5.25.9 1.8.8 4.1 2.65.2.15-.15.8t-.65.4q-2-1.65-3.8-2.35-2-.75-4.6-.7"/><path fill="#0d131a" d="M237.2 320.1q-.05-5.75 3.95-9 3.55-2.85 8.45-2.65 4.7.15 7.8 3.3 3.1 3.25 3.1 8.25 0 4.7-3 7.85-3.3 3.45-8.8 3.35-5.4-.05-8.45-3.15-2.95-2.95-3.05-7.95m5.55-7.65q-3.15 2.65-3.05 7.4.05 4.55 2.65 7.1 2.4 2.35 6.15 2.35h.1q4.65.1 7.3-2.75 2.45-2.6 2.5-6.8.05-4.25-2.65-6.85-2.5-2.45-6.35-2.65-3.9-.15-6.65 2.2"/><path fill="#0d131a" d="M227.6 301.45q3.25-1.4 10.65-1.6 7.25-.2 12.35.9 5.6 1.2 7.95 2.85 2.5 1.7 2.95 4.95l-1.35 1.4q-.8-5.7-10.55-7.75l-11.7-.65q-6.45.4-10.15 1.75-.35.1-.45-.8-.05-.9.3-1.05"/><path fill="#0d131a" d="M231.8 295.15q-.15-6.15-3.8-13.2l-3.65-5.85q-.1-.15 1.3-.5l1.65-.05 3.25 6.1q3.15 7.1 3.25 13.7.05 3.05-4.35 7.05-3.95 3.55-8.6 5.55l-1.45-.4q-1.2-.55-.9-.65l6.7-4.05q6.65-4.65 6.6-7.7m12.3-25.3 1.35 4.15q1.75 4.8 3.6 8.45l.6 1.55q.4 1.2.1 1.45-.3.2-1.25-.8l-1.1-1.35q-2.2-3.2-4.05-8-1.15-2.9-1.55-4.5-.1-.4 1.05-.85z"/><path fill="#0d131a" d="m253.4 271.45.2.1q1.2.5 2.15 2.45 2.7 5.3 4.95 16.05 2.1 10.1 2.1 16 0 6.05-2.7 13-.15.35-.95-.55-.75-.9-.65-1.3 1.5-4.6 1.65-11.25.1-7.25-2.15-17.85-1.95-9-3.75-13.15-.65-1.55-1.2-1.9l-.45-.1q-.25.05-.6.85l-3.55 8.2q-.2.35-1.15-.2-.95-.6-.75-.95l3.7-7.45q.65-1.6 1.85-2zM108.15 84.7q4.3 3.45 9.4 2.2 5.05-1.2 7.6-5.75 2.7-4.75.7-10.3-.3-.75-.6-.8t-1.1.5q-3.6 2.6-9.75 3.9l-10.35.4q-1.15-.2-1.3 0-.1.2.1 1.45 1.35 5.3 5.3 8.4m-6.8-10.9q.55-.7 2.85-.35 4.65.75 10.2-.5 5.4-1.2 9-3.7 1.6-1.05 2.45-.8.75.2 1.25 1.65 2.1 5.75-.1 10.85-2.45 5.7-9.2 7.3-6 1.4-10.55-2.05-4.25-3.25-5.8-9.5-.6-2.25-.1-2.9"/><path fill="#0d131a" d="m113 74.2 1 3.15q.9 4.95-.6 5.2-.85.15-1.6-1.35-.65-1.3-.95-3.2-.3-1.7-.2-3.5zm-53.7 27.95q.4 0 1.9.85 2.45 7.4 7.8 12.45 6.35 5.95 14.3 5.7 9.85-.3 18.25-8.6 5.8-5.75 8.55-12.1.15-.35 1.15-.25t.85.45q-3 7-8.9 13-8.95 9-19.9 9.3-8.75.3-15.5-6.35-5.85-5.7-8.5-14.45"/><path fill="#0d131a" d="m70.35 106.9.65.55q.3.6 0 .65-1.9.4-3.6 2.25-1.25 1.25-1.8 2.45-.15.25-.5-.2-.35-.5-.25-.8.65-1.55 2-2.9 1.7-1.75 3.5-2m25.2-.15q-.3-.05-.15-.8.1-.75.45-.7 6.95 1.35 9.3 5.15l-.35.8q-.45.5-.65.25-1.1-1.6-3.8-3-2.45-1.25-4.8-1.7"/><path fill="#0d131a" d="M55.1 97.65q-.15-.35.55-.8l.8-.1q1.3 3.65 7.35 6.95 7.1 3.9 15.6 3.75 8.8-.15 16.25-2.5 6.85-2.2 10.8-5.65.3-.25.9.4.6.7.3.95-4.05 3.6-11.3 6-7.95 2.7-16.65 2.85-8.85.15-16.45-4.05-6.75-3.7-8.15-7.8"/><path fill="#0d131a" d="M84.5 91.7q0-.35.75-.4.75-.1.75.2.25 2.95 1.3 7.95 1.15 5.6 2.15 7.9.15.3-.55.6-.7.25-.85 0-1.35-2.65-2.35-7.8-.85-4.2-1.2-8.45m-17.2 6.7q-.05-.3.65-.4.7-.15.75.15 1.15 7.05 2.15 8.85.15.3-.6.45-.75.1-.85-.2-1.65-3.65-2.1-8.85m-7.95-3.75q0-.3.8-.3.75 0 .75.3l.3 3.4q.4 3.65 1.2 5.2.15.3-.6.25-.8-.1-.95-.4-.9-1.75-1.3-5.15z"/><path fill="#0d131a" d="M81.25 85.5q1.95-1 3.85-.85 1.85.15 4.75 1.6 13.6 6.65 18.65 7.3 6 .75 15.45-3.8 2.9-1.4 5.05-1.1 1.8.25 2.35 1.5 1.15 2.7-4.05 5.45-7.7 4.05-12.7 4.95-6 1.05-12.3-1.45l-11.35-4.7-6.35-2.45q-.5 0-6.75 3.15l-7.15 3.55-2.65.3q-1.6-.25-4-1.4l-4.9-2.65L55.3 98q-1.25.9-2.55.8-1.35-.15-2.2-1.3-.85-1.2-.55-2.65.25-1.4 1.4-2.45 1.95-1.9 4.2-3.4 2.85-1.95 5.9-.35l6.2 3.4zm3.3 4.95q.4-.05 18.3 7.25 5.7 2.3 10.9 1.6 2.2-.25 5.95-1.6 3.35-1.25 6.25-2.7 5.45-2.75 4.1-4.65-.55-.8-1.95-.75-1.6.05-3.75 1.2-9.35 4.95-16.25 4.1-5.1-.65-18.8-6.9-3-1.35-4.25-1.55-1.5-.2-3.25.7l-7.7 3.75-6.05 2.85-.7-.05-6.55-3.4q-1.45-.75-2.4-.65-.7.05-2 .9l-3.8 3.1q-1.6 1.6-.65 2.85.4.55 1.2.55l1.55-.5L57 94.8l1.55-1.35q.4-.4.9-.2l5.1 2.9q3.8 2 6.05.9l7.05-3.45q6.25-3.1 6.9-3.15"/><path fill="#0d131a" d="M162.85 89.1q5.7 1.75 10.25 5.85l-3.2-.25q-3.7-2.7-7.75-3.95-4.75-1.5-8.2-.3l-1.4.25q-.6-.05-1.2-.8-4.75-6.05-9.8-9.4-1.55-1.05-8.3-4.45l-.95-.75-.15-1.55q-.05-1.95-.5-4.45-.45-2.55-.95-3.75-1.2-2.35-2.2-2.6-1.05-.25-2.95 1.1-5.7 3.9-12.75 5.4-5.8 1.25-11.3.75l-3-.3q-1.2-.05-1.7.5-.55.55-.6 1.35l.25 1.65q.4 1.75.25 2.05-.2.3-1.9 1L67.4 87.6l-.75-.1-6.1-5.1q-.5-.3-.2-.9 1.25-2.65 1.3-4.9.05-2.35-1.3-2.85-.3-.1.1-.6.35-.5.65-.35 1.8.95 1.9 3.65.1 2.4-1.25 5.25l5.4 4.05 27.1-10.7.85-.4-.1-.8q-.8-3.75.55-5 .85-.8 2.6-.7l3.5.4q4.9.5 10.95-.8 7.15-1.55 12-5 2.5-1.8 4.3-1.4 1.2.3 2.2 1.65l.95 1.85q.7 1.8 1.2 4.75.55 3 .5 5.05 6.5 2.9 11.45 6.75 4.05 3.1 7.8 7.5 4.1-1.55 9.85.2"/><path fill="#0d131a" d="M173.05 151.95q-24.75-11-29.9-32.2-1.85-7.45-.9-15 .8-6 2.6-8.95-4.15-5.15-8.4-8.4-3.2-2.5-5.15-3.05-7.5 9.6-17.35 9.3-10.4-.3-16.45-11.9l-.25-.05-.65.25q-8.25 3.8-10.85 4.4-.3.15-1-.4-.65-.55-.4-.65 2.55-.65 6.8-2.45l5.3-2.4q1.05-.5 1.45-.45l.65.6q5.95 12.1 16.8 11.65 4.55-.15 8.6-2.75 3.95-2.5 6.15-6.5.65-1.1 2.05-.25 3.95 2.2 7.65 5.3 4.75 3.85 6.55 7.25l.25.8-.35.65q-2.2 3.4-2.5 9.85-.4 7.25 2.05 14.7 6.4 19.65 28 29 9 3.9 13.55 9.55 4.35 5.4 5.75 14 1.1 6.3.85 10.75-.3 6-2.9 10.85-8.35 15.45-9.95 25-2.85 16.65 7.55 32.05l1 2.45 1.1 2.6q-13.45-14.2-12.55-32.35.75-14.6 10.5-30.3 2.7-4.35 3.15-10.2.3-4.35-.65-10.75-1.15-7.5-5.9-13.15-4.6-5.45-12.25-8.85"/></svg>