<svg xmlns="http://www.w3.org/2000/svg" width="144" height="162" viewBox="-1.4 -0.35 144 161.55"><path fill="#9ed8f5" d="M40.25 12q5.3 7.55 9.95 20.6 2.75 9.9 3.3 21.25.55 11.5-1.3 22.85l-1.95 1.2-.65.55q1.2 14.85 10.8 29.25 8.7 13.05 22.8 23.75 13.25 10.05 27.9 15.6 14.6 5.6 26.1 4.9-3.55 3.8-11.55 5.9-7.15 1.9-15.45 1.9-12.85.05-26.45-4.05-12.5-3.75-18.35-8.5-8.25-6.8-13.85-18.8-5.3-11.45-7-25-2.9 11.6-10.9 17.25-8.25 5.8-14.3-.7-6-6.5-3.15-15.6 1.2-3.85 3.65-6.5 2.6-2.75 5.55-3.2-12.75.25-19.6-10.9-6.9-11.3-4.75-29.25 1.75-14.4 8.6-23.45 7.1-9.4 16.6-8.8-1.55-6.45-1.65-11.5-.15-7.45 3.3-8.25 6.4.9 12.35 9.5"/><path fill="#e75297" d="M33.3 39.3q3.45 7.55 3.35 17.3-.15 11.5-4.85 19.9-4.45 7.95-9.75 7.95-3.2 0-6.15-3.1-3.5-3.65-5.2-10.25T9.5 56.75q.55-7.6 3-13.65 2.5-6.05 6.4-9.15 3.5-2.8 7.1-2.35 4.05.55 7.3 7.7m-2.55 56.8q1.8.6 2.85 2.75.75 1.75.7 3.85-.1 2.15-1 4.2-1.8 4.1-4.55 6-2.5 1.7-4.55.9-1.2-.45-1.9-1.7-.75-1.45-.75-3.55 0-2.3 1-5.3 1.1-3.35 3.65-5.55 2.55-2.25 4.55-1.6"/><path fill="#9ed8f5" d="M45.55 21.8q1.65-2.7 5.8-3.45 3.8-.7 5.35.7-.25-6.45 2.5-12.4 2.7-5.8 5.65-5.9 4.25 2.05 6.2 14.5 1.6 10.3.85 17.45-2.85 25.95-9.9 41-4.4.8-7 1.9-2.35 1.05-2.8 1.1 2.7-12.2.75-29.3-2-17.6-7.4-25.6m5.55 126.5q-2.2-7.75 1.25-10.4 1.75-1.55 15.4 0 13.9 1.55 14.65 4.1-2.6 5.55-11.9 10.95-9.05 5.2-13.55 4.25-3.7-1.45-5.85-8.9"/><path fill="#e75297" d="M52.45 77.2Q52 83.65 59.3 96.1q8.75 14.9 22.75 25.75 15.05 11.65 35.05 17.9 8.15 2.55 14.4 3.25 6.1.65 7.95-.75-.25 3.25-1.1 6.45l-1.3 3.7q-10.95 1.4-23.3-2.6-16.9-5.45-37.1-20.95-11.9-10.7-19.1-23.65-7.5-13.45-8.25-26.6.95-.85 2.15-1.2z"/><path fill="#003a59" d="m96.35 130.75-.95 2.7q-1.1 3.1-1.55 5.2-.95-.75-3.7-4.1-3.3-4-3.7-5.7l4.55.85z"/><path fill="#003a59" d="M133.45 109.35q9.15 19.75 6 32.65-8.8 3.35-26.65-3.6-14.05-5.45-27.75-14.55-9.55-6.35-18.35-17.1-11.95-14.7-14.6-29.65 26.95-10.5 60.55 6.6 11.7 6 20.8 25.65"/><path fill="#003a59" d="M97.65 91.7q-3.75-6.85-4.9-13.5-1.1-6.9 1.1-11 11.65-1.45 22.35 15.1 4.25 6.5 6.9 13.85 2.55 6.95 2.55 11.4l-5.9 1.75q-6.5-.7-12.6-5.85-5.5-4.65-9.5-11.75"/><path fill="#003a59" d="M120.65 59.9q3.9 1.25 7.05 6.35 3.1 4.95 4.6 11.95 3.5 16.25-3.1 28.45l-14.8-26.8q-.55-6.15 1.55-12.8 2.1-6.6 4.7-7.15"/><path fill="#88bbd5" d="M49.75 31.15Q64 30.7 72 24.9q.25 4.85-.1 7.8-2.85 25.95-9.9 41-4.4.8-7 1.9-2.35 1.05-2.8 1.1 2.05-9.25 1.35-22.4t-3.8-23.15"/><path fill="#e75297" d="M48.7 29.05q2.15-2.35 4.85-2.15 3.15.2 4.65 4.4 2.7 7.4.6 18.5-1.8 9.7-5.35 15 1.65-5.35-.55-19.2-2-12.95-4.2-16.55"/><path fill="#c94683" d="M53.3 48.05q-1.5-10.65-3.7-16.9l8.25-.75.35.9q2.7 7.4.6 18.5-1.8 9.7-5.35 15 1.5-4.75-.15-16.75"/><path fill="#88bbd5" d="M44.9 90.3q.25-9.35 1.65-10.45.65-.5 2.1-1.15l1.3-.6q.4 6.75 3.8 16.65 3.15 9.1 6.3 14.05 2.6 20.95 16.55 34 15.1 14.2 41.35 16.7-13.9 1.7-30.55-2.7-15.05-3.9-22-9.6-7.55-6.2-12.85-16.75-5.1-10.1-7.25-22.25-.65-9.95-.4-17.9"/><path fill="#c94683" d="m52.1 77.25.45 2.2q.5 3.2 2.25 7.55 1.9 4.8 4.95 9.85-.3 6.65.45 12.8-4-6.2-6.5-12.5l-.1-.2-.05-.2q-3.45-8.8-4.25-18.15l.5-.4.15-.1q1.05-.7 2.15-.85"/><path fill="#002d49" d="m52.55 79.45-.1-2.25-.35.05v-.15q5.45-2.15 11.3-3.15-3.2 12.05-3.65 22.9-5.2-8.75-7.2-17.4"/><path fill="#9ed8f5" d="M51.1 148.3q-2.2-7.75 1.25-10.4 1.75-1.55 15.4 0 13.9 1.55 14.65 4.1-2.6 5.55-11.9 10.95-9.05 5.2-13.55 4.25-3.7-1.45-5.85-8.9"/><path fill="#002d49" d="M120.35 89.65q-1.85-3.75-6.6-10.85l.6-2.5.45-4.2q4.05.4 7.9 11.75 3.95 11.75 3.2 22.9-1.7-9.4-5.55-17.1"/><path fill="#0d131a" d="M92.7 75v1.9q-11.85-3.45-23.45-2.85-11.9.6-20.25 5.35-2.9 1.7-3.3 1.15-.35-.5 2.55-2.15 8.7-5.1 20.6-5.95Q80.55 71.6 92.7 75M72 152.05l1.55-1.35q15 8.3 35.6 8.25 19.2 0 27.35-6.55 2.9-7.25 2.9-16 0-8-2.45-16.2-2.5-8.2-7.1-15.6l.9-2q4.05 6.6 6.55 14.1 3.3 9.4 3.55 17.8.25 8.75-2.8 17.35-.5 1.45-1.85 2.35-9.35 6.25-28.55 6.2-20.85-.1-35.65-8.35m-27.6-62.3q.4-3.65 1.05-3.5.6.15.2 3.8-1.2 11.7 1.7 23.8 3.25 13.4 10.7 23.3h-2.1q-7.25-10-10.2-23.15-2.7-12.05-1.35-24.25"/><path fill="#0d131a" d="M51.6 77.5q-.05-.25.6-.35.6-.1.65.15 2.05 11.3 9.25 22.25t18.6 20.15q14.1 11.35 33.2 18.2 17.7 6.3 24.2 3.9 1.45-.55 1.65-1.55.9 1.75.05 2.4-.45.4-1.1.6-6.85 2.55-24.8-3.8-19.4-6.85-34-18.55-11.55-9.3-18.9-20.6-7.3-11.2-9.4-22.8"/><path fill="#0d131a" d="M27.45 3.65q-2.1 1.1-2.15 6.1-.1 5 1.85 12.75.15.7-.05.85l-.7-.05q-7.85-1.75-15 6.6-7.7 9-9.25 24.35-1.65 16.8 4 27.55 5.65 10.7 16.7 11.95 2.7.3 2.8.8.05.5-2.35 1.75-2.3 1.15-3.95 3.25-1.7 2.1-2.45 4.75-1.6 5.9.7 11.4 2.2 5.2 6 6.25 5.75 1.6 12-4.3 6.85-6.45 8.95-17.65l.35 1.45q.25 1.85 0 2.65-3.1 10.85-9.2 16.2-5.9 5.15-12.35 3.35-4.95-1.35-7.3-7.3-2.3-5.9-.55-12.4.8-2.9 2.8-5.3 1.95-2.3 4.6-3.6-12.45-1.3-18.35-12Q-1.4 72.3.4 54.25q1.65-16.8 9.65-25.8 7.15-8.1 15.65-6.5Q23.55 13 23.8 8.2q.25-4.85 2.95-6.2 4.65-2.35 12 6.6 8 9.75 12.6 25.9 2.8 9.95 3.25 20.6.45 10.95-1.65 21.6-.05.25-.9.5-.8.25-.75 0 2.05-10.4 1.65-21.35-.4-10.75-3.1-20.7-3.9-14.5-11.5-24.35-7.05-9.1-10.9-7.15"/><path fill="#0d131a" d="M64.7 0q2.65 0 4.7 4.55 2 4.5 3 12.75 1.7 14.2-1.65 31-2.9 14.75-8.35 25.7-.15.35-1.05.35-.85-.05-.75-.3 5.3-10.45 8.3-26.15 3.25-17.05 1.75-31.05-.85-7.8-2.65-11.9-1.55-3.4-3.35-3.4-2.25 0-4.4 4.7-2.3 5.05-3.1 13-.15.9-.95.5-2.15-1.1-5.05-.45-3.1.65-5.2 3-.15.2-.6-.2-.5-.4-.35-.6 2.15-3.15 5.2-3.85 2.75-.7 5.75.65.25-7.8 3-13.2Q61.55 0 64.7 0M51.2 137.65q2.85-2.9 17-.95 14.1 1.95 14.95 5.2.85 3.2-9.25 10.05-10.4 7.1-16.45 6-2.1-.35-4.15-3.25-1.8-2.5-2.9-5.9-1.15-3.55-.9-6.6.2-3.05 1.7-4.55m16.55.85q-13.5-1.75-15.35.1-1.25 1.25-1.4 3.75-.1 2.55.85 5.7 1.05 3.25 2.8 5.65 1.75 2.35 3.3 2.65 4.55.8 14.25-5.7 9.3-6.25 9.1-8.5-.15-1.85-13.55-3.65m26.2-70.7q-.6.5-.65 3.6-.1 3.65.85 8.1 1.8 8.5 6.15 15.2 6.75 10.35 18.2 13.65 3 .9 2.25 1.35t-4.05-.6q-19.35-5.85-24.2-28.95-.95-4.45-.7-8.55.25-3.95 1.4-4.8 2.2-1.7 6.65.15 8.55 3.5 15.25 12.15 7.95 10.25 10.8 25.05.65 3.5.15 4.4t-1.1-2.35q-2.45-14.1-10.85-25.35-7.2-9.6-14.75-12.7-3.8-1.6-5.4-.35"/><path fill="#0d131a" d="M120.8 60.6q-2.4.35-4.2 5.65-1.9 5.7-1.7 13.3 0 .3-.65-.45-.65-.7-.65-1.1.05-7.5 2-12.85 2-5.35 5-5.8 2.1-.4 5.45 3.85 5.8 7.3 7.45 16.6 2.1 11.75-2.75 25.1-.9 2.55-1.75 2.95t.1-2.05q4.9-12.5 3-24.7-1.55-10.15-7.05-17.1-1.45-1.8-2.7-2.75-1.05-.75-1.55-.65m-4.15 94.15q-2.1-1.9-1.8-2.35.35-.45 2.1 1 3.5 2.85 10.15 3.35-2.1 1.15-2.95 1.05l-4.35-.95q-1.55-.65-3.15-2.1"/><path fill="#85899c" d="M128.95 122.95q-.7-2.25-.25-4.1.4-1.7 1.45-2t2.3 1q1.35 1.35 2.05 3.6 1 3.3-.15 5.25l-1.05.85q-1.05.3-2.3-1-1.35-1.35-2.05-3.6"/><path fill="#e75297" d="M98.6 147.75q-3.5-2.4-4.2-5.45-.95-4.15 1.3-10.1 2.6-6.95 7.5-6.1 2.5.4 4.35 3.8 1.8 3.2 1.95 7.2.2 4.55-1.65 8.4-1.75 3.6-3.9 4-2.15.45-5.35-1.75"/><path fill="#0d131a" d="M86.15 129q.2-.5 2.4-.3 2.75.2 7.75 1.35.25.1.1.7-.15.65-.4.55l-8.7-1.7q1.65 2.4 7.3 9.1-.75 1.1-.95.85-7.95-9.35-7.5-10.55"/><path fill="#0d131a" d="M97.4 148q-3.35-2.35-3.8-5.55-1-7.3 2.45-12.85 3.35-5.4 7.75-4.4 2.7.6 4.65 4.35 1.85 3.7 1.9 8.15.05 5-2.15 8.7-1.9 3.2-4.2 3.65l-3.15-.35q-1.9-.55-3.45-1.7m-1.7-13.9q-1.1 4.1-.55 8.2.35 2.55 3.25 4.65 1.35.95 2.9 1.5l2.45.35q1.7-.35 3.3-3.1 1.85-3.3 1.85-7.8v-.2q-.05-4.1-1.9-7.4-1.75-3.1-3.9-3.6-2.2-.45-4.05 1.25-2.2 2.05-3.35 6.15"/><path fill="#0d131a" d="M104.9 138.35q-.2 2.5-1.25 4.15-1 1.7-2.2 1.6t-1.9-1.95q-.65-1.85-.45-4.35.25-2.5 1.3-4.15 1-1.7 2.2-1.6 1.2.15 1.85 2 .7 1.8.45 4.3"/><path fill="#fff" d="M104.45 128.55q.8-.2 1.7.8.85 1 1.3 2.65.45 1.7.2 3t-1.05 1.5q-.8.25-1.7-.8-.9-1-1.3-2.65-.45-1.7-.2-3t1.05-1.5"/></svg>