<svg xmlns="http://www.w3.org/2000/svg" width="279" height="349" viewBox="0 -0.6 279.2 349.25"><path fill="#9ed8f5" d="M111.35 334.6q3.25 2.3 6.75 3.75-1.8 6.7-8.85 8.35-7.1 1.65-13.05-3.45-5.6-4.8-9.45-16.1-3.3-9.85-4.85-22.85l5.7-.7q4.8 10 11 18.15 6.4 8.5 12.75 12.85"/><path fill="#003a59" d="M48 166.3q15.9 2.65 27.3 20.4 10.2 15.85 14.55 39.85 4.2 22.8 1.65 44.2-2.65 22.15-11.55 33.45-10.55.05-21.05-2.7-9.05-2.35-18.75-7.05 5.05-2.15 7.9-16.75 3.3-16.9.1-38-2.85-19-10.05-30.7-6.35-10.25-12.75-10.5-2.75-.1-4.4.65-1.05.45-3.05 2.2 10.25-21 25.75-32.1Q45.3 168 48 166.3"/><path fill="#9ed8f5" d="M7.25 244.95q.4-9.55 2.3-19.1 2.05-10.3 5.65-19.15 1.7-3.45 4.35-5.65 2.85-2.4 5.65-2.3 6.45.25 12.8 10.4 7.3 11.6 10.15 30.55 3.2 21.1-.1 38-2.85 14.6-7.9 16.75-16.25-7.75-27.85-19.5-10.5-10.65-10.5-17.1.05-2 2.65-6.25 2.7-4.3 2.8-6.65m68.65-56.5q-11.4-17.95-27.9-22 5.55-3.45 12.5-6.35 15.8 4.5 27.5 23.15 10.55 16.8 15.35 40.9 4.65 23.15 2.35 44.4-2.45 22.15-11.7 33.55l-.7.8-13.6 1.15q8.85-11.25 11.7-32.75 2.75-20.95-1.15-43.25-4.15-23.55-14.35-39.6"/><path fill="#003a59" d="M81.65 154.1q10.25-1.65 20.45-1.35-4.95 11-8.35 22.55 1.45 2.85 4.45 7 3.7 14.65 15.5 35.2 12.05 21.1 26.4 37.4 6.65 7.6 12.95 12.95-25.8 28.3-56.25 34.45l-3.5.6.7-.8q8.9-11 11.3-33.1 2.25-21.25-2.25-44.55-4.7-24.35-15.2-41.3-11.65-18.9-27.7-23.45 8.8-3.6 21.5-5.6"/><path fill="#003a59" d="m48.15 64.55-.6 5.4-1.5 10.8q4.15.95 10.1 4l2.1 5.9-3.75 2.45q-1.9 1.6-2.5 4.35 2.35 2.15 2.55 5.75.2 3.5.95 4.05.7.5 4.05 1.55 3.2 1.05 5.65 2.95-1.25 7.05.1 8.9 1.9 2.5 10.9 2.8 4.45.15 9.25 1.55l7.7 2.1q.4.4 1.15 5.8.8 5.55.4 6.2-.45.8-5.85 2.95-5.7 2.3-9.6 3l-.65 9.45q-9.65 2.05-19.1 6.05-9.4 3.95-16.15 8.75-15.75-22.45-17.4-55.45-1.55-30.7 9.25-60.65z"/><path fill="#9ed8f5" d="M83.15 1.05q5.8.95 5.8 7.55 0 6.75-6.4 13.8-7.45 8.15-20.4 12.35-3.45 12.6 2.4 28.4 5.9 15.8 17.35 24.65 19.5 15 26.2 24.55 5.9 8.45 5.6 18.55-6.45 10.7-11.45 21.9-10.8-.3-20.55 1.25l-5 .9.45-10.55q3.9-.75 10-3.3 5.8-2.45 6.25-3.3.4-.65-.3-5.05-.65-4.3-1.05-4.7l-7.1-1.85q-4.15-1.1-8.65-1.25-8.95-.3-11.45-2.95-2.2-2.3-1.15-8.6.1-.75-.45-1.15-2.25-1.65-5.4-2.65-3.1-1-3.85-1.55-.8-.6-.9-3.9-.05-3.55-2.1-5.65-.35-.35-.2-.95 1.25-4.5 5.1-7.15.6-.35.4-1.05l-.7-3.1-.5-.65q-7.55-2.6-10.05-3.2-.35-.1-.3-.65 1.2-6.95 2.05-15.8V65l-.6-.65-11.3-9.65q5.35-14.9 13.35-26.85Q56.6 15.45 67 7.45q9.7-7.5 16.15-6.4m46.5 308.4q7.35 3.2 10.1 9.65 2.55 5.85.45 11.75-2.15 5.95-7.75 8.25-6.25 2.65-14.35-.75-3.5-1.45-6.75-3.75-6.35-4.35-12.75-12.85-6.2-8.15-11-18.15l9.2-1.3q10.25.85 17.45 2.35 8.3 1.7 15.4 4.8"/><path fill="#003a59" d="M98.2 182.3q5.45 7.6 14.15 15.45 8.1 7.3 17.6 13.55 7.85 5.1 15 8.4 7.35 3.4 12.75 4.25 11.2 1.8 18.2-3.8-.2 4-.95 5.1l-1.65 1.35q-1.55 1.15-2.1 1.95-.8 1.2-1.35 4.35-.5 2.95-1.65 4.25l-5.1 3.65q-4.2 2.6-4.95 2.35-.6-.15-1.65-1.8l-2-2.75q-1.75-1.75-5-3.5-3.8-2.05-6-1.9-.75.05-2.35 2.3l-1.45 2.3q6.25 9.35 6.4 10.55.2 1.3-1.25 3.65-1.5 2.5-3.8 4.25-14.35-16.3-26.9-38.05-12.25-21.3-15.95-35.9"/><path fill="#9ed8f5" d="m182.45 191.55-.4-2q7.95 5.65 12.6 13.3 1.8 3.05 2.85 5.75 3.15 8 2.45 16.05-.65 8-4.9 14.3-9.5 14.25-29.9 13.1 7 1.9 14.05 7.9 5.7 4.85 7.5 10.5 1.7 5.45-1.05 8.6-2.9 3.35-9.45 2.05-7.55-1.5-17.85-9l-5.3-4.25q-6.3-5.35-12.95-12.95 2.3-1.75 3.6-4 1.2-2.05 1-3.4-.1-.85-5.95-9.1-.35-.45.05-.9 3.5-4.95 4.6-5 2.2-.15 6.3 2.1 3.55 1.95 5.3 3.75l1.7 2.5q.75 1.4 1.3 1.55.7.25 5-2.25 4.15-2.5 5.15-3.6 1.1-1.3 1.45-4.05.3-3 1.1-4.25.55-.8 2.2-2l1.75-1.45.75-1.8q.45-1.5.5-2.85 5.05-4 6.8-11.2 1.8-7.5-.25-17.4"/><path fill="#002d49" d="M192.75 197.85q-1.95-1.95-4.35-3.75l-6.35-4.55q-.75-3.85-.95-5.75 5.25 4.6 7.55 7.3 2.85 3.3 4.1 6.75"/><path fill="#003a59" d="M225.7 146q2.05-3.6 5.15-6.6 2.95-2.8 5.75-4.05 8.2-3.65 13.6 2.6 5.7 6.55 2.2 18.5-4.8 16.2-23.4 32.45-16.35 14.2-31.75 19.55-1.2-2.95-2.9-5.75l-.75-2.85q8.35-12.3 22.35-36.8z"/><path fill="#e75297" d="M238.8 141.35q1.65 1.15 1.05 5-.6 4.1-3.5 8.45-3.15 4.85-6.9 7-3.4 1.95-5.15.7-1.25-.9-.6-4.05.8-4.1 4.05-9.1 3.05-4.75 6.65-7.1 2.95-1.9 4.4-.9"/><path fill="#88bbd5" d="M108.1 332.1q-10.55-1.85-19.8-.85-4.55-10.95-6.4-26.95l5.7-.7q4.2 8.7 9.5 16.1 5.45 7.65 11 12.4"/><path fill="#002d49" d="M90.35 278.8q-1.25 7.4-4.55 14.5-2.85 6.15-6.6 10.9-10.5.05-20.7-2.7-8.45-2.3-18.35-7.05 1.85-.8 3.7-4.1 1.9-3.45 3.3-8.8 23.65.75 43.2-2.75"/><path fill="#88bbd5" d="M40.15 294.45q-12.7-6-23.1-15.05l30.1 2.15q-1.4 5.35-3.3 8.8-1.85 3.3-3.7 4.1m49.95-15.6q7.2-1.25 14.55-3.25-3.05 17.15-10.65 26.5l-.7.8-13.6 1.15q7.1-9.1 10.4-25.2"/><path fill="#002d49" d="M142.55 257.6q5.1 5.65 10.5 10.25-25.8 28.3-56.25 34.45l-3.5.6.7-.8q7.4-9.05 10.35-26.45 21.55-5.95 38.2-18.05m-99-145.55q9.5 2.85 19.9 2.9.75 5.65 2.5 7 2.2 1.75 10.6 2.05 4.6.15 8.9 1.15l7.35 1.75q.4.4 1.3 5.65.85 5.4.45 6.05-.45.75-6.35 3.05-6.15 2.35-10.1 3.1l-.3 10.05q-9.6 2-18.7 5.85-8.95 3.8-15.75 8.65-9.5-13.55-14-31-4.3-16.5-3.8-35.05 8.05 5.8 18 8.8"/><path fill="#88bbd5" d="M77.15 144.75q0-.35.45-.45 3.95-.85 9.85-3.35 5.5-2.35 5.95-3.15.35-.55-.15-4-.4-3.15-.95-5.05-.2-.7-1.1-.85l-6.6-1.8q-3.9-1-8.3-1.15-8.4-.3-11.1-2.6-2.4-2.05-1.75-7.4 9.95 0 19.65-2.55 9.85-2.6 18.6-7.6 7.15 7.3 9.85 13.65 2.35 5.5 2.15 12.45-6.45 10.7-11.45 21.9-10.8-.3-20.55 1.25l-5 .9z"/><path fill="#002d49" d="M210.3 172.9q3 4.6 10.65 5.65 6.5.9 12.75-.95 4.05-1.2 8.85-3.35-8.65 11.55-22.15 21.45-12.35 9-23.15 12.75-1.2-2.95-2.9-5.75l-.75-2.85q7.1-10.5 16.7-26.95"/><path fill="#0d131a" d="M13.85 207.65q1.8-4.15 4.6-7 3.25-3.35 6.5-3.2 7.15.25 14.2 11 7.9 11.95 10.7 30.6 3.35 22.05-.2 39.2-3.2 15.15-8.8 16.5l-1.05-.55q-.8-.6-.5-.7 2.1-.3 4.2-4.25 2.25-4.15 3.65-11 3.45-16.9.1-38.95-2.75-18-9.5-29.25-6.15-10.2-12.55-10.45-2.85-.1-5.8 2.65-2.65 2.5-4.15 6-.1.3-.8 0t-.6-.6"/><path fill="#e75297" d="M46.75 241.8q-.35-2.85-.25-6.55l11-1.6q8.65-1.5 10.7-2.2l.65 3.35.35 3.65q1.05 9.85-1.7 17.5-2.7 7.55-7.2 8.2-3.95.55-8.1-5.75-4.45-6.85-5.45-16.6"/><path fill="#0d131a" d="M57.05 225.85q.95-.15 1.95.8 1.45 1.45 2.6 4.9 1.1 3.4 1.5 7.7.6 6.6-.3 10.5-.9 4-3.15 4.05t-3.95-3.9q-1.6-3.75-2.1-9.5-.55-5.85.45-10.1 1-4.2 3-4.45"/><path fill="#fff" d="M54.9 235.7q.35 3.4-.45 5.65t-2.5 2.45q-1.7.15-2.9-1.95-1.15-2.05-1.5-5.45-.3-3.25.55-5.6t2.4-2.5 2.8 2q1.3 2.15 1.6 5.4"/><path fill="#9ed8f5" d="M46.05 235.1q-.2-5.4 2.7-12.1 3-7.05 6.2-7.15 6.05-.2 10.15 7.7 2.1 3.95 2.95 7.9-9.85 2.55-22 3.65"/><path fill="#0d131a" d="M81.85 152.35q9.85-1.55 20.35-1.15l-1.2 2.6q-9.9-.25-19.2 1.25-36.2 5.8-55.95 33.7-16.65 23.45-18 55.75-.05 1.7-1 3.65L4.9 251.6l-1.7 2.95q-.75 1.6-.75 2.8-.05 6.75 12 18.3 13.85 13.3 33 20.7 22.4 8.7 44.95 5.3 32.45-4.85 59.6-34.45.2-.2 1.15.35t.75.75q-27.75 30.7-60.75 36.05-23.15 3.8-45.8-5-19.25-7.5-34.05-21.7Q0 264.85 0 257.25q.05-1.45 1.2-3.55l2.15-3.45 1.75-2.9q.75-1.6.8-3 .95-33.6 18.5-57.9 20.35-28.2 57.45-34.1m98.45 29.35q6.3 5.3 10.1 10.4 3.9 5.2 4.75 9.65.05.35-1.05-.85l-1.4-1.95q-3-6.95-11.85-14.7z"/><path fill="#0d131a" d="M23.05 260.55q.95.15-1.3 2-7.25 5.95-12.5 5.4-2-.2-4.3-2-.35-.25-.6-1.55t-.05-1.05q.85 1.05 2.25 1.85 1.45.75 2.8.9 4.65.45 10.35-3.9 2.4-1.75 3.35-1.65M97.1 181.3q-.1-.4 1.05.9l1.35 2.1q6.05 20.35 23.5 46.5 18.35 27.55 35.65 40.2 10.3 7.5 17.75 8.9 6.2 1.1 8.7-2.05 2.2-2.85.6-7.8-1.75-5.4-7.15-10.05-3.65-3.05-9.3-5.3-3.35-1.35-8.4-2.75-2.85-.75-3.95-1.5-1.15-.8 2.2-.2 13.8 2.5 20.85 8.45 5.7 4.8 7.75 10.85t-.8 9.65q-2.9 3.8-10.4 2.65-8.75-1.3-19.7-9.3-18.35-13.4-37.2-42.8-18.05-28.25-22.5-48.45"/><path fill="#0d131a" d="M181.85 189.9q-.15-.15-.2-1.4 0-1.3.25-1.15 12.6 8.75 17.15 22.05 4.05 11.95.35 22.35-3.5 9.8-12 15.45-8.55 5.7-20 5.8l-3-.9q-2.15-.9-1.65-.85 12.3.95 21.55-4.4 9.25-5.4 12.9-15.55 3.55-9.9.15-20.75-3.85-12.25-15.5-20.65"/><path fill="#0d131a" d="M224.8 144.75q4.25-7.5 11.1-10.4 6.05-2.55 10.85-.5 5.05 2.15 6.95 8 2.1 6.45-.5 15.35-5.1 17.25-23.55 33.2-16.15 13.9-31.35 18.45-.3.1-.75-.9-.5-1-.2-1.1 14.9-4.5 30.7-18.15 18.05-15.65 23.05-32.55 2.35-7.9.25-13.55-1.75-4.65-5.85-6.4-4.35-1.85-9.35.35-5.75 2.5-9.7 9.45l-8.35 14.9-11.55 20.65q-6.95 12.05-12.1 19.6-.15.25-.6-1.05t-.25-1.55q5.1-7.55 11.65-18.85l11.2-20zM86.8.9q4.15 2.2 3.55 9-.65 7.6-7.7 15.1-6.75 7.2-19 11.1-2.9 11.15 1.65 25.1 5.2 15.9 17.9 25.7 18.8 14.45 25.4 23.6 5.7 8 5.7 17.65l-.95 2.5-.95 1.55q.5-10.4-5.05-18.75-6.55-9.85-25.9-24.75-11.7-9-17.65-24.95-5.95-16-2.45-28.9l.5-.55q10.45-3.5 17.5-10.1Q86 17.95 87.4 11q1.3-6.45-2.45-8.5-2.75-1.55-7.35 0Q73.05 4 67.45 8.3q-14.8 11.35-25.2 31.25-10.4 19.85-14.1 43.7-3.85 24.65.4 47.05 4.25 22.45 15.85 38.6.2.25-.7.85-.85.55-1.05.3-12.4-16-17.05-39.05-4.6-22.8-.7-47.9 3.8-24.4 14.5-44.35Q49.95 19 65.4 7.1 72.6 1.55 79.25.35q4.9-.95 7.55.55"/><path fill="#0d131a" d="M59.7 161.1q-.3-.05.25-.8.5-.7.8-.65 12.6 3.15 22.75 15.15 10.3 12.1 16.45 31.4 8.7 27.2 7.2 55.4-1.5 28.25-12.45 41l-1.2-.2q-.95-.45-.75-.7 10.75-12.5 12.25-40.35 1.55-27.9-7-54.7-6.05-18.85-16.15-30.8-9.95-11.7-22.15-14.75"/><path fill="#0d131a" d="M47.8 167.15q-.3-.05.6-.7.85-.65 1.2-.6 11.4 2.5 20.65 12.9 9.2 10.4 15.05 27.4 8.95 26.05 7.55 55.35-1.35 29.25-12.1 42.1l-1.3.2q-1.1-.05-.9-.3 10.6-12.65 12.1-41.75 1.5-29.3-7.3-54.95-5.65-16.45-15.1-26.95-9.35-10.3-20.45-12.7m82.65 140.25q5.3 2.3 8.8 7.1 3.5 4.7 3.75 9.9.2 4.45-2.25 8.7-2.4 4.05-6.25 6.15-3.8 2.15-9.35 1.9-7.7-.4-15.5-5.75-13.2-9.15-22.85-31.55-.1-.3.55-.65l.85-.05q4.75 10.05 10.85 18 6.15 7.9 12.6 12.3 6.15 4.3 11.75 5.25 5.6 1 9.95-1.45 3.35-1.9 5.2-5.35 1.85-3.5 1.6-7.65-.2-4.7-3.15-8.6-2.9-3.85-7.8-6.05-7.2-3.1-15.65-4.55l-18.6-1.9q-.4-.05 1.55-.9 2-.8 2.8-.75 11 .55 16.95 1.6 7.25 1.3 14.2 4.3"/><path fill="#0d131a" d="M81.3 303.85q-.05-.35.7-.4.75-.1.8.2 1.45 12.45 4.25 21.55 3.7 11.95 9.45 16.95 2.95 2.5 6.45 3.3l6.85-.25q2.8-.9 4.75-2.9t2.7-4.75l1.05.1q.95.4.85.75-.85 3.15-3.15 5.6-2.4 2.5-5.6 3.5-3.65 1.15-7.9.1-4.2-1-7.5-3.7-6.55-5.35-10-17.9-2.05-7.6-3.7-22.15m-36.1-62.3q-.95-10.2 2.25-18.2 3.05-7.7 7.7-8.35 5.1-.7 9.4 4.9 4.9 6.5 6.2 18.95 1.1 9.95-2.1 17.85-3.1 7.6-8.05 8.3-4.9.65-9.5-5.95-4.9-7.05-5.9-17.5m14.5-23.6q-2.3-1.75-4.35-1.45-3.7.5-6.25 7.8-2.65 7.75-1.7 17.1.7 6.6 3.2 12.35t5.75 8.3q2.05 1.6 3.85 1.35 4-.55 6.6-7.7 2.7-7.55 1.65-17.2-.75-6.85-3.15-12.45-2.35-5.6-5.6-8.1"/><path fill="#0d131a" d="M67.3 230.95q.3-.1.6.5.25.6-.05.7L57.6 234.3l-10.75 1.6q-.3.05-.35-.75-.1-.75.2-.75l10.6-1.45zm169.95-90.75q1.45-.25 2.35.4 2.05 1.45 1.35 5.75-.65 4.3-3.6 8.75-2.5 3.8-5.5 6.25-2.65 2.15-4.75 2.55-1.8.35-3.1-.45-1.85-1.35-.6-5.95 1.15-4.2 4.05-8.65 2.25-3.45 4.95-5.8 2.7-2.4 4.85-2.85m2.2 6.05q.55-3.5-.75-4.4l-1.2-.15q-1.65.35-3.9 2.3-2.6 2.2-4.85 5.65-2.65 4.1-3.7 7.85-1 3.5.05 4.25l1.9.2q1.9-.35 4.15-2.1 2.65-2.1 4.95-5.6 2.7-4.15 3.35-8"/><path fill="#003a59" d="M252.1 48.7q-8.2.7-14.8-2.4-7 9.8-8.1 26-.65 10.1 1.15 28.95.55 5.6 2.1 12.3l2.5 10.5q2.55 11.5-.2 20Q231.25 155 223.3 160q-6.1 3.8-15.7 4.55l-15 .35q-7.4.3-9.45 3.15-3 4.4-2.4 12.05.35 4.55 2.15 14.4 1.35 8.9-.1 14.55-1.9 7.65-9.2 12.65-7.5 5.15-20.8 1-11.4-3.55-25.25-13.25-12.25-8.6-22.15-18.9-9.65-10-11.5-15.8 10.4-35.95 38.95-70.7 20.9-25.45 45.4-43.85 32.05-24.05 63.9-33.1 13.6-3.85 22.95-3.5 9.3.4 11.7 4.9 2.05 3.85-1.15 8.45-3.1 4.4-9.5 7.7-6.7 3.4-14.05 4.05"/><path fill="#9ed8f5" d="M266.6 24q6.25.6 10.2 4.3 1.45 1.35 1 3.75-.4 2.25-2.25 4.75-4.45 6.1-14 9.5-11.75 4.25-23.75.35-.6-.15-.85.25-7.85 10.8-8.35 31.6-.55 20.55 6.15 45.55 2.2 8.1.75 16.1-1.45 8.05-6.25 13.8-4.95 5.9-12.4 8.65-7.45 2.7-16.5 1.95l-10.65.3q-4.05.85-6.2 3.3-5.25 5.85-1.4 24.35 1.75 8.55.6 15.35-1.2 6.75-5.2 11-3.2 3.35-9.3 4.6-5.7 1.15-11.9.15-9.1-1.45-26.35-12.55l-1.05-6.9q-.85-4.6-1.65-6.9-.3-.8.35-1.3L130 194q.75-.6 1.65-.3 11.85 3.7 17.65 6.15l1.3.3 1.25-.75 6.45-6.4 5.2-5.4q1.05-1.15.7-3.95-.3-2-1.1-3.95-.65-1.55-1.95-3.05l-2.5-2.7-1.55-2.05q0-2.2.35-7.6.4-7.45 1.05-8.25l2.65-2.1q2.45-1.8 7.45-5.25l6.3-5.05q.45-.35 1.4-.35 5.2.05 11.25 2.05 6.25 2.05 8.75 4.7l.95-.05 5.9-10.15.15-.6-.2-.8-9.75-13.4q-.5-.6-.5-1.6l-.4-4.7q-.1-.85.4-1.65l4.85-8.6q.55-1 .65-2.45l.4-9.3 3.7-2.1 4.6-2.75q.35-.15.35-.6l-.05-.2q-1.65-6.65-3.7-9.45-.85-1.2-2.95-2.45-.7-.4-.8-.6-.35-.5-.65-1.95t-.3-2.5l.1-.85q2.7-1.95 8.4-7.6 5.9-5.9 6.5-7.45l.15-.8q0-3.75-5.9-16.1 15.1-8 29.25-12.4Q256.4 23.1 266.6 24"/><path fill="#0d131a" d="M263.5 23.05q11-.1 14.25 4.4 1.45 2.05 1.15 4.75-.35 2.7-2.4 5.55-5.25 7.15-15.65 10.55-11.85 3.85-23.2-.25-7.95 11.4-7.95 34.35 0 15.9 6.9 41.45 2.15 7.95.45 15.95-1.7 8.15-7 14.5-5.2 6.3-12.95 9.3-7.8 3.05-17.15 2.25-12.55-1.05-16.4 3.3-2.2 2.45-2.1 7.6.05 4.6 2.1 14.35 1.85 8.95.55 16.3-1.35 7.35-5.6 11.85-3.6 3.75-9.35 5.35t-12.1.6q-13.45-2.15-33.35-16.65-20.5-14.95-29.45-30-.85-1.4-1-2.6-.15-1.25.3-2.85 8.05-28 26.05-54.7 14.15-20.95 32.45-38.45 19.1-18.25 41.95-32.1 22.15-13.45 43.2-20 15.25-4.7 26.3-4.8m-2.85 22.85q9.05-3.05 13.5-9.05 1.75-2.4 2.1-4.6.3-2.25-.9-3.9-2-2.9-8.25-3.55-10.3-1.1-28.85 4.65-20.5 6.35-42.35 19.95t-41.15 32.05q-18.6 17.7-32.6 37.95-18.3 26.4-26.9 54.55-.25.85-.2 1.3t.45 1.25q8.5 14.8 29 29.7 19.75 14.35 33.2 16.5l10.95-.35q4.95-1.35 8.3-4.8 4-4.25 5.2-11.05t-.6-15.3q-2.05-9.75-1.8-15.25.2-5.5 2.75-8.4 2.15-2.4 6.2-3.25l10.65-.3q9 .75 16.45-2t12.4-8.65q4.85-5.8 6.3-13.4 1.5-7.6-.7-15.7-6.65-24.75-5.9-46.05.75-21.25 8.65-32.15.3-.4.85-.25 12.05 3.9 23.25.1"/></svg>