<svg xmlns="http://www.w3.org/2000/svg" width="608" height="446" viewBox="-0.1 -0.4 607.5 446.4"><path fill="#fff" d="M406.65 12.1q6-4.35 7.25-3.65 1.1.65.2 8.6-.7 6.15-1.6 10.2l6.15-1.2q5.95-.85 7.05.95.7 1.15-1 6.45-1.95 6.2-6 13.45-11.5 20.45-31.95 35.8l.5 7.85q.45 7.85.2 9.3l18.7 13.7q11.1 8.7 15.9 14.8l-2.95 6.35q1.15 1.3 2.35 3.4l1 2q-.05.2-5.95 2.85-.15.1-11.3-8.15l-13-9.85 2.05 4.6 7.85 12.5q7.2 11.45 6.6 12.2-1.1 1.4-7.05 2.65l-9.05 1.45 1.65 4.95 1.25 3 .15.1q11 5.45 28.65 15.9 20.9 12.35 25 16.8.15.2-2.75 2.4l-3.85 2.65q-26.5-7-30.35-8.7v.25l-16.3-19.45 17 21.7q10.8 14.7 16.15 26.75l-4.45 1.55-15-9.8q-3.55 1.35-4.75 2.75 10.2 25.9 10.55 49.5.2 11.85-1.65 18.45-1.6-4.4-5.25-9.8-7.2-10.9-17.1-16.1-.4 22.45-5.75 38.7-7.85 23.95-26.75 37.9-40.5 10.9-64.2 15.85-21.4 4.4-44.9 7.1-17.1 5.05-35.8 5.75-20.25.8-38.5-3.65-43.3-10.6-62.9-46.15-7.85-12.5-8-36.2-.15-26.15 10.15-48.05 9.1-19.25 22.2-40.9l11.3-17.8-19.25 6.95q-9.95 3.5-11.6 3.25-1.9-.3-5.65-3-3.8-2.75-3.45-3.75 1.35-3.6 16-12.95 10.45-6.7 22.55-13.2 3.65-2 14.05-6.65 8.9-4 11.9-5.2 7.55-9.1 17.8-24.65l17.8-27.7q21.65-33.85 32.4-41.65-4.3-4.15-7.15-8.35-2.75-4.05-2.15-5.2.95-1.85 9.6-2.8 8.3-.9 11.95.1-2.7-4.4-5.65-15-2.9-10.6-1.75-11.45 1.65-1.25 12.3 5.4 6.55 4.05 13.9 9.4l3.1-9.85q1.55-4.65 2.4-4.85 1.25-.25 4.95 5.2l5.3 8.3q3.9-1.8 13-2.6 7.3-.6 12-.3 17.7 1.05 31.7 7.35 5.55 2.45 8.9 4.55 6.55 4.2 15.1 12.2.95-1.55 5.6-4.25 3.6-2.1 8.1-4.2.45-5.7 2.3-12.65 2.25-8.5 4.6-9.05 1.95-.5 5.65 6.05l3.5 6.35q2.65-3.25 8.45-7.5"/><path fill="#0099a9" d="M413.25 286.4q0 3.45-2.15 9.25-2.8 7.5-8.05 14.7-14.75 20.35-42.9 30.85-.65-.55-.85-1.35l-.25-2q16.6-10 25.7-35.5 7.5-20.95 6.8-40.3 3.65.5 10.5 7.2 8.05 7.95 11.2 17.15m-224.1 4.6q4.35-7.4 6.4-12.2 1.35 1.2 2.7 3.35 8.9 18 13.35 37.3 5.9 26 1.65 47.6-19.5-.3-32.35-3.1-23.05-5.1-45.2-19.7 16.85-5.45 34.1-25.55 10.8-12.6 19.35-27.7"/><path fill="#0099a9" d="M348.9 320.1q2.5 3.8 5.5 9.4 3.55 6.55 5.75 12 10.55 9.75 18.55 22.5 6.75 10.8 5.85 12.35-.65 1.05-7 1.2l-13.35-.65q-3.55 10.95-5.45 13.7 0 1.2 1.55 16.1.95 15.2-1.85 19.4-2.75 1.3-13.5-3.55-11.7-5.25-20.1-12.6l-3.05.2-3 .25-1.85 6.35q-1.75 5.35-2.5 5.15-5.85-1.5-14.75-11.35-4.7-5.15-9.25-11.55-.85-1.2-3-2.3l-3.3-1.85q-21.7-17.2-42.55-46.9-4.45-9.55-9-27.2-4.45-17.55-2.9-19 4.05-.6 21.6 3.55 8.8 2.05 16.8 4.25-3.55-11.9-6.6-24.3-6-24.7-3.15-26.85 2.95-2.2 29.1 17.05 13.1 9.65 25.65 19.7l-2.15-9.45-2-9.35q10.1 7.8 21.1 19.85 10.85 11.9 18.85 23.9"/><path fill="#fff" d="m162.25 126.85 20.1-.85-10.05 13.75-14.6 6.15q-8.65-.6-27.75.6l-28.1 2.4q-.2.05-1.1-2.5-.85-2.55-.65-2.65 3.45-1.65 19.05-6.3 16.25-4.8 19.35-4.75l.7-2.4q.7-2.45.9-2.45z"/><path fill="#dbdcdc" d="m399 107.95-5.85-4.1-5.3-3.8q-.15-.1.05-8.15.85-.55 25.8 12 24.8 12.5 24.8 13.05 0 .2-2.55 1.4-2.55 1.25-3.6 1.55z"/><path fill="#fff" d="m395.05 165.3-.1-1.25v-1.25q6.8 1.15 28.55 8.4 21.7 7.2 25.25 9.45l-3.5 3.3-19.5-3.75-.95.6-1 .5-18.6-10.4z"/><path fill="#cea6cc" d="M378.85 65.3q2.6 3.25 2.55 9.35-.05 6.95-4.7 9.5-2.1 1.15-5.3-.45-1.75-.85-3.2-3.3-1.35-2.35-1.9-5.15-.05-.25 5.45-4.85 5.65-4.75 7.1-5.1m-54.8 2.2 11.35 7.1q-.65 3.8-3.05 7.15-2.4 3.3-5.5 4.65-3.3 1.4-7 1.05-3.9-.35-6.75-2.5-3.7-2.7-4.7-9.9-.5-3.3.8-7.4 1.15-3.65 3.3-6.85.15-.2 11.55 6.7"/><path fill="#0099a9" d="M132.8 376.3q-3.4-.95-7.3-2.55-5.15-2.15-5-3.25.15-1.05 6.25-4.6l10-5.65-5.55-3.2q-4.25-2.6-3.9-3.55.25-.65 6.15-2.8 5.8-2.1 8.4-2.55 20.05 11.6 36.25 15.5 23.15 5.55 55.05 1.55l1.7 1.5q1.6 1.7.95 3-.6 1.3-6.3 2l-5.6.45q6.15 8.5 5.95 9.05-.5 1.35-6.35 1.3l-11.3-1.1q4.95 18.2 6.75 25.7 4.25 17.25 2.95 18.05-1.6 1.05-18.6-8.35l-16.75-9.6q-3.35 2.3-15.65 20.45-11.3 16.75-13.65 16.5-1.75-.15-4.5-5.05-3.05-5.4-4.35-11.95-1.4-7.1-1.6-16.9l.05-8.3q-7.7 3.25-16 5.9-16.55 5.3-19.35 2.45-2.8-2.8 9.05-18.65zm241.6-35.8-6-.6-2.7-.35q16.4-7.25 28.5-19.4 4.5-4.5 13.35-16.3 6.15-1.05 25.5 8.65 18.9 9.45 18.6 12.05-.15 1.1-2 1.9L442 329.1l10.15 11.45q6.55 7.45 6.35 8.65-.25 1.45-13.4-.3l-18.85-2.6-7.7-.65-5.9.25-3.45 13.65q-3.25 13.55-6.15 16.1-.55.05-9.55-14.55-9-14.65-9.65-14.75-.5-.05-5.65 2.95-5.1 2.95-5.7 2.65-.2-.1 1.9-11.45"/><path fill="#fff" d="m490.05 38.8 2.05 3q-23.45-1.65-37.55.1-5.05.4-9.25 1.35-3.85.85-3.45 1.25.7 1.7 12.5 10 10.45 8 20.25 14-5.2 2-10.65 4.45-10.9 4.8-11.95 6.85t5.6 10.35l6.9 7.9q-6.2-3.45-21.75-14-7.3 1.5-42.15 13.05l-13-6.05q-.2-6.8-.55-8.65 12.3-8.5 22.05-22.05 5.7-7.95 11.6-19.65 11.15-7 29.55-9.55 17.65-2.5 34 .05z"/><path fill="#0099a9" d="M605.85 85.65q-.05 1.6-10.05 6.3-10.35 4.8-18.8 6.85 5.4 5.5 9.25 14.45 3.45 8.05 3.45 13.15-6.15 2.1-19.45-1.35l-12.25-3.8q-15.45 5.3-33.2 3.05-13.95-1.75-27.95-7.9-11.6-5.05-19.05-9.55-8.65-5.25-14.75-11.5-4.6-4.65-7-7.75-3.65-4.85-4.6-8.8 3.45-3.85 13.3-7.15 5.05-1.7 10.3-3l-20.7-14.15q-6.4-4.8-11.7-9.35v-.2q3.75-2.05 11.9-3.05l18.65-.65 19.2.85-2.35-3.3-5.2-7.9q25.1 3.4 47.5 12.55 22.6 9.3 35 21.4 9.65.3 24.5 9 14.1 8.25 14 11.8"/><path fill="#dbdcdc" d="M193.05 210.15q2.9 23.25 2 24.85-4.05-14.2-13.3-21.7-8.05-6.55-15.5-5.3l6.55-10.55 7.3 2.55 9.85-12.8zm93.5 11.7 4 .4 6.6 16.75q-2.2-1.55-5.45-2.95-6.4-2.8-11.35-2.15l-.7-32.1z"/><path fill="#fff" d="M192.15 148.05q.5-5.3 3.2-10 3.1-5.5 7.75-7.15 17.15-6.1 33.3 21.1 4.55 7.6 18.25 44.5 13.2 35.5 18.15 42.6 4.8 6.9 13.45 15.4 8.15 8.05 21.9 19.65 1.2 6.5 1.95 9.55 1.4 6.25 3.4 11.95-20.65-16.45-32.05-24.9-20.75-15.4-23.1-12.8-2.5 2.75 2 22.65 3.2 14.25 7.75 28.95-33.6-8.5-38.9-8.05-.5 1.55 3.55 19l5.5 23.95Q208.6 297.6 197.2 241.1q-9.5-47.25-5.05-93.05"/><path fill="#0099a9" d="M64.8 190.25q2.55-6.35 5.05 2.25 2.4 8.3 11.75 23.4 4.65 7.55 8.85 13.4l25.55 2.25q-19.65 44.05-5.45 79.95 4.45 11.2 11.75 20.3 3.65 4.5 6.4 6.8-24.55-5.75-44.95-19.5-6.4-4.3-11.6-8.9l-3.95-3.7-13.4.2q-13.45-.15-14-1.8-.5-1.65 3.7-9.15l4.3-7.2-6.15-8.8q-4.9-.85-21.65-5.45-18.85-5.15-18.8-6.4.15-3.05 12.05-7.55 5.95-2.25 11.85-3.9l-4.45-10.3q-5-12.3-7.8-22.4-2.95-10.55.25-12.2 1.4-.75 7.3.95l41.7 11.85q-.85-18.55-.65-23.05.35-6.15 2.35-11.05"/><path fill="#008290" d="m405.2 273.8 5.75 7.8 2.45 4.15q-1.7 17.9-19.75 35.35-16.05 15.55-32.35 20.05-.3.05-1.25-1.1-1-1.2-.95-2.05l2.55-2q8.5-6.5 15.2-17.45 6.45-10.45 10.25-23.3 11.05-9.5 18.1-21.45m-268.1 70.7q11.1-3.95 23.1-15.6l2-1.9q22.45 8.35 51.15 8.8 1.25 13.35.5 29.7l-.35.9q-15.3 3.1-42.4-5-26.2-7.9-34-16.9m-92.85-47.85q4.25-7.6 4.7-7.6 17.6 16.95 17.5 17.25l-25.5-.75q-1.05-1.1 3.3-8.9"/><path fill="#008290" d="M21 274.35q-19.15-4.8-19.3-6.15 1.65-3.25 10.3-6.75 4.9-2 14.75-4.9l3.25-.65 2.55-.9q-.2-1.05-.3-4.35 16.95 22.6 35.65 38 22.15 18.3 42.2 22.25 5.5 13.55 16.25 26.75-3.85.1-12.05-3-9.55-3.6-20.3-9.95-28.85-17-51.45-44.65-1.15-.65-21.55-5.7"/><path fill="#008290" d="M18.55 239.55q-4.7-11.6-5.75-19.5 7.25 14.25 19.1 30.15l.25 4.7-5.4 1.65h-.15q-4.4-7.95-8.05-17M374.4 340.5l.15-.75-4.05.25-4.05.1 10.1-5.8q12.35-7.95 22.8-19l5.25-6.35 3.8-4.6q4 .5 10.5 2.7 6.05 2 12.7 4.95 6.95 3.15 13.2 7 6.1 3.75 7.5 5.65l-4.55 1.4q-4.85 1.5-5.45 2.3l2.85 3.7q-17.45-6.8-38.95-2.85-16.3 3-31.8 11.3m118.8-237.7q31.7 15.35 61.4 19.4-23.4 6.1-47.4-1.8-16.35-5.4-40-20.7l-4.15-4.35-7.25-9.3q-3.05-3.9-3.75-6.35l.75-.95q19.85 14.05 40.4 24.05"/><path fill="#dbdcdc" d="m214.3 335.8 18.8-.65q2.35 6.95 7.45 13.85 3.8 5.2 10.45 12-10.65 2.55-21.05 4.3-14.5 2.5-16.15.95l.05-.75q3.25-9.55.45-29.7m147.35.2-2.55 1.85q-2.1-4.55-5.65-10.55l-6.05-10q23.2-8.1 38.9-21.35-7.6 26-24.65 40.05m49.65-54.15q-2.05-3.3-6-8.25 5.95-10.1 9-21.55 2.6 17.05-.4 28.95-.65 2.75-1.25 2.65-.25-.05-1.35-1.8M160.2 328.9q-12.6 11.85-24.05 14.5-15.65-10.55-23.7-28.1-7.3-15.85-7.6-35.3 21.85 33.8 57.3 47zM442.05 84q-1.35.1-20.25 6.25L400 97.1l-5.95-2.7q-5.85-2.75-5.85-2.9l-.35-5.35q18.85-6.55 33.6-10.6 19.35-5.35 22.15-3.45 1.05.7 8.95 6.5l-.55.9.05.2-.05.1q-.05 1.35 3.65 6.45 3.25 4.45 7.4 9.1l.4.6q-4.85-1.95-13.25-7.4-7.15-4.6-8.15-4.55m-180.8 43.85 12.05-6.2q8-4.1 11.2-5.45l-7.4 9.5q-4.6 5.85-7.15 9.75-5.25-3.9-8.7-7.6m62.25 7.3-2.95 8.35q-2.45 6.5-3.85 11.3-12.25-2.55-23.35-6.95 1.5-2.25 10.65-12.1 9.95-10.7 14.8-14.85l-1.55 5.3-1.6 5.25q3.15 1.3 7.85 3.7m42.25 2.4 3.6-1.3q3.7-1.35 4.45-1.35.9 0 2.65 2.2l9.85 13.7q-8.8 4.3-20.75 6.15-11.3 1.7-24.35 1.05 5.95-22.25 11.5-39.6z"/><path fill="#0099a9" d="M187.1 81q-4.05-13.65-1.15-17.5 2.8-3.8 20-2.7l11.95 1.4q5.3 1 5.65 1.9l-25.75 39.7q-6.65-9.25-10.7-22.8m-13.2 29.35 17.05 3.6-8.05 11.6-19.2.7v-.1l-11.15.55q-.2 0-1-3.75l-1-5.15q-.75-5.25.4-6.7 1.65-2 7.45-2.3l8.45.65 7.1 1z"/><path fill="#008290" d="m132.05 363.4 4.9-3-4.85-3.1q-4.9-3.2-5.1-3.85-.2-.75 5.45-2.8 5.7-2.1 9.2-2.5 11.9 9.8 41.3 15.75 30.85 6.3 50.2 1.3l1.35 1.35q1.4 1.55 1.95 2.75.4.9-4.4 2l-7.95 1.25 4.2 5.15q2.1 2.6 1.35 4.1-.45.95-6.35.45l-10.85-.85q-.1 0 1.1 4.25-17.6.85-42-5.75-24.6-6.7-39.5-16.5"/><path fill="#dbdcdc" d="M162.35 170.05q2.65-.3 3.3 0l-17.2 23.2q3.6-7.3 1.05-12.35-.8-1.55-2.1-2.7l-1.15-.85 1.1-3.3q9.8-3.3 15-4m242.9 47.9 3.3 8.7q-4.7-1.5-9.6 1.05l-3.95 2.85 1.85-21 5.1 10.2z"/><path fill="#008290" d="M546.05 106.3q-8.5 1.25-19.75.55-1.2-.1-2.7-1.15-1.6-1.1-2.05-2.35-1.3-3.45 6.65-3.9 11.35-.65 21.85.05 12.3.8 8.45 3.05-4.5 2.6-12.45 3.75m13.4 7q8.7 2.35 19.15 7.55 11.15 5.55 4.45 5.55-6.1 0-15.45-2.65l-13.65-4.25q-1.75-.5-2.8-2-1-1.45-.6-2.8 1-3.55 8.9-1.4m17.15-15.05q-2.1-.6-3.45-2.55-1.55-2.2.15-3.9 3.3-3.3 19.65-5.3l9.6-.3q3.5.5.55 2.5-5.7 3.9-14.6 6.85-7.55 2.45-11.9 2.7m-391.5-30.9 5.45 6.55q7.45 8 17.75 15.1L198 104.35q-3.45-4.6-6.8-11.5-6.65-13.85-6.1-25.5m-35.3 46.85 5.45 5.6q6 5.8 9 6.9l-11.6-.25q-.65-1.5-1.35-3.8-1.35-4.6-1.5-8.45"/><path fill="#dbdcdc" d="M204.7 260.4q8.55 19.3 19 35.5l6.05 9.1q.25 9.9 3.55 21.6 1.7 6.05 7.05 20.65Q212.8 306 198.25 244.4z"/><path fill="#008290" d="M233.3 326.6q-3.3-11.7-3.55-21.6 8.8 12.65 27.65 36.85 14.75 18.9 16.55 23 3.5 7.85 13.3 32.2-10.45-8.25-18.75-16.1-15.5-14.75-28.15-33.7-5.35-14.6-7.05-20.65m59.05 74.4 3.8 3.2q4.6 3.4 8.75 4.75 13.35 4.2 17.15-14.35l-1.8 12.95q-2.6 13.05-6.45 13.4-4.2.4-12.35-7.8-7.5-7.55-9.1-12.15"/><path fill="#008290" d="m353.35 376.2 11.95.9q-3.7 8.9-6.15 11.95l1.85 17q1.05 17.4-2.75 19.5-4.5 2.5-16.5-4.6-4.05-2.4-15.7-10.75l-7.05.3 3.4-7.95 11.5 5.3q12.25 4.9 16.05 3 3.85-1.95 4-18.5z"/><path fill="#008290" d="M341.1 374.05q20.7.4 29.25-1.7 11.3-2.8 7-10.25l3.25 4.5q4.75 7.8 2.45 10.5-2.35 2.8-20.95.55-15.9-1.9-21-3.6"/><path fill="#0d131a" d="m239 43.6 2.75 2.1q-16.75 16.75-34 45.1-14.35 23.5-31.7 47.55-.9.05-2.8.8l-2.7 1.05q9.2-12.15 15.8-21.55 9.95-14.2 18.9-28.9Q223.8 59.4 239 43.6M368.75 36q-.75.55-1.65 2.25-9.6-10.6-23.5-16.65-13.95-6.05-31.2-7.1-12.45-.8-24.6 2.5-.8-1.6-1.05-2.45 13.85-3.9 25.95-3.15 17.55 1.05 32 7.5 14.05 6.3 24.05 17.1m37.3 182.1q11.2 23.45 11.4 48.25.2 28.25-14.85 47-9.2 11.45-19.8 18.55-9.75 6.5-22.4 10.4.1-1.45-.55-2.2 11.8-3.85 21-10.2 10-6.85 18.8-17.85 13.4-16.65 14.4-42.55t-10.7-50.35q-.1-.25 1.25-.8 1.35-.5 1.45-.25m-260.3-42.7 2.35-1.05q1.5-.75 2.4-.85-8.65 12.3-15.55 24.05-9.1 15.5-18.3 35-11.9 25.25-9.6 53.85 2.25 28.6 17.45 44.95 22.4 24.05 58.85 31.45 29.55 6.05 54.75-.2l11.45-2.7 1.35 2.25-13 3.1q-25.85 6.4-56.05.5-37.45-7.3-60.2-31.75-15.65-16.85-18.15-46.4-2.55-29.7 9.55-55.4 8.8-18.65 17.7-33.6 6.3-10.7 15-23.2M41.05 217q11.5 3.5 21.35 5.6l.05 3.05q-22.6-5.1-40.9-11.85-6.5-2.35-7.6-.25-.95 1.95 1.35 10.8 4.4 16.7 12.65 31.5l-2.9 1.15q-9.4-17.3-12.65-31.95-2.35-10.15-.55-13.15 2.15-3.55 11.1-.65z"/><path fill="#0d131a" d="m42.3 280.25 1.8.25q13.5 16.6 31.55 30.3 25.2 19.1 52.5 26.65 1.75.5 3.8 2.4 2 1.85 1.35 1.75-28.6-6.1-53.85-23.8-22.25-15.6-39.35-38.2zm26.8-86.55-1.45-3.65q-.8-1.1-1.6 1.95-2.5 9.5-1.85 26.1.5 13.7 2.65 25.55.7 3.75-.3 3.75t-2.05-3.95q-2.8-10.35-3.35-25.5-.6-16.45 2.05-26.45 1.8-6.9 3.85-5.85 1.45.75 4.3 7.2 3.45 8.05 7.5 15.9 7.15 13.9 12.1 18.9 15.7 2.1 25.4 2.1.45 0-.2 1.6-.65 1.55-1.05 1.55-9.8 0-23.55-1.85l-1.7-.25q-1.7-1.5-3.45-3.6-5.35-6.65-11.5-19.8-3.6-7.7-5.8-13.7"/><path fill="#0d131a" d="M16.95 260.85Q2.9 265.9 3.8 267.65q.55 1.2 10 3.6l16.9 3.9 12.45 2.95q6.1 1.6 8.65 2.85 3.5 1.7 3.3 2.75l-3.95-.1q-10.85-3.35-21.9-5.8l-15.55-3.75q-8-2.15-11.5-4-1.1-.6-1.75-1.3-.55-.65-.45-1.05 1-4.5 16.15-9.95 15.7-5.7 29.25-5.75 3.1 0 3.5 1.15.35 1.1-2.75 1.3-13.65.8-29.2 6.4m31.3 25.7q.25-.35 1.35.8t1 1.35q-2.7 3.6-5.65 8.9-3.1 5.55-3.1 7.05l11.9.85q8.9.05 14.25-.35.45-.05.75 1.75.25 1.75-.15 1.75-7.15.1-14.25-.25-14.25-.7-15.15-2.8t3.95-10.75z"/><path fill="#0d131a" d="M56.5 223.45q2.35 1 1.65 1l-5.2.25-3.85.35q2.45 5.4 5.95 11.9 2.95 5.6 4.65 8.25 1.35 2.2-1.15 1.55-7.85-1.85-15.05-3l-10.65-.95q.1 9.85.55 11.3l.05.3q0 .35-1.1.75l-1.25-.05q-.25-.85-.5-5.45l-.25-7.15q0-1.8.45-2.3.5-.55 2.15-.5 4.6.15 11.8 1.7l11.9 2.8-4.95-8.1q-3.7-6-5.65-10-.9-1.85-.55-2.45.3-.5 2.15-.75l5.25-.3q1.35-.15 3.6.85m78.45 120.65-.65-.45-.15-.8q.05-.3-.65-.9l-.3-.35q12 2.45 34.05-22.45 9.15-10.35 16.6-21.95 7.55-11.7 10.45-20.15.35-1.1 1.1-1.2.85-.15 1.5 1.05 10.85 19.6 16.2 42.9 6.2 27.05 1.7 47.45-.1.4-1.5.6t-1.4-.2l.05-.25q1.85-8.65 1.85-18.45 0-17.25-5.4-36.75-4.85-17.55-12.65-32.3-3.5 9-10.85 20.55-7.5 11.8-16.2 21.85-21.2 24.35-33.75 21.8m13.85 7.65q.25-.35 1.1.25.9.55.65.9l-4.4 7.2q-1.7 3.05-2.65 2.55-.9-.5.85-3.55 2.45-4.3 4.45-7.35m-29.45 19.95q-.75-.4-.7-.8 0-.35.5-.85 1.15-1.15 5.45-3.9 5.2-3.35 10.05-5.7l-5.8-3.7q-3.05-2.05-2.9-3.1.2-1.2 4.4-2.85 8.35-3.25 10.85-3.75.4-.1 1.55 1.1l.85 1.25q-1.65.1-7.7 1.85-6.3 1.85-6.4 2.5-.1.6 2.3 2.2l4.2 2.65q2.1 1.35 2.35 1.95.3.7-1.1 1.35-4.3 1.95-9.05 4.7l-6.35 4.05q2.4 1.2 7.1 2.8l5.75 1.7q.4.1-.7 1.3-1.15 1.25-1.7 1.05l-6.25-2.5q-4.45-1.95-6.7-3.3"/><path fill="#0d131a" d="M139.15 369.95q3.95-2.9 4.55-1.85.6 1-3.35 3.9-8.8 6.45-19.35 21.3-10.25 14.5-8.4 16.85 1 1.3 15.45-3.4l18.9-6.35q-.4.15-.1 1.6.35 1.5.75 1.4l-26.95 8.55q-7.45 2.4-9.75-.1-2.45-2.7 1.5-10.3 4.8-9.3 10.45-16.25 6.85-8.45 16.3-15.35"/><path fill="#0d131a" d="M210.2 380.3q-.9-2.75.15-3.3 1.05-.6 2.55 2.7 2.55 5.7 5.95 19.5 3.15 12.55 3.95 18.8.9 6.8-.7 8.25-1.35 1.15-5.55-.8-4.75-2.15-12.5-6.25-9.8-5.2-16.9-9.6-4.55 3.5-14.8 17.75-5.25 7.25-10.55 15.15-2.6 3.5-5.25 2.6-3.1-1.05-5.9-7.9-2.9-7-4.55-17.05-2.25-13.45.1-22.55 1.4-5.35 2.6-5.15 1.25.2.3 5.65-1.8 10.15.1 22.55 1.65 10.95 4.95 17.45 1.9 3.8 2.95 4.25 1.15.45 2.85-2.2 4.8-7.55 11.1-16.4 10.55-14.75 15.1-17.85l1.15-.05q8.15 5.1 18.4 10.8 9.85 5.5 12.15 6.3 2.7.95 3.1.55.4-.45-.15-3.55-.8-4.45-4.8-19.2-3.8-14.15-5.8-20.45"/><path fill="#0d131a" d="m211.2 379.9 8.95.8 8.4.3q.25-.4-2-3.4l-3.85-5.05q-2.15-3-1.1-3.55t3.2 2.45q3.7 5.1 5.3 8.2 1.1 2.05.65 2.8-.5.9-3.25.9l-9.7-.2-6.05-.65q-.4-.1-.7-1.3-.25-1.2.15-1.3"/><path fill="#0d131a" d="M231.95 365.7q-.2-.2.7-.95.85-.8 1.15-.5 1.4 1.4 2.65 3.5 1 1.6.5 2.45-.45.85-2.6 1.35-7.15 1.75-10.05 2.1-.4.1-.7-1.25-.3-1.3.1-1.35 11.05-1.45 11.35-2 .2-.35-1.05-1.5zm130.1-22.8q-1.95-2.1-4.35-3.85-9.85-23.5-37.5-50.8-8-7.9-21.5-19.9-12.95-11.55-16.65-15.25-11.15-11.25-21.85-36.2-5.5-12.95-15-41.15-4.3-12.75-8.7-21.35-2.05-4.05-1.05-4.45 1.05-.4 4.2 4.9 3.1 5.15 5.7 11.7 1.8 4.5 5.65 16 9.2 27.4 13.3 36.9 8.95 20.8 19.9 31.8 5.1 5.15 19.4 17.65 14.6 12.85 22.45 20.7 27.3 27.15 36 53.3m-3.2 50v-5.35q2.55-4.9 3.75-10.55l3.05.2q-1.4 7.05-6.8 15.7m-40.45 18.5v-3l6.35.15q.8 1.7 2.8 2.85-4.5.4-9.15 0M190.95 151.15q.65-4.9 1.8-4.8 1.2.1.65 5-4.15 36.6 3.9 80.8 9.7 53.45 34.7 98.3 11.55 20.75 28.2 39.65 14.45 16.4 28.45 26.8l2.1 3.15 2.35 3.1q-11.7-6.7-24.8-19.25-22.25-21.4-39.4-52.15-24.3-43.65-34.15-97.75-8.5-46.6-3.8-82.85"/><path fill="#0d131a" d="M408.15 274.05q5.05 6.95 5.4 10.5l-.75 1.6q-.75 1.2-.8.8-.3-2.75-5.95-10.85-6.95-9.9-13.9-13.1l.1 3.55q0 26.55-11.35 48.35-9.8 18.8-21.6 23.95-.4.15-1.1-1.05-.75-1.15-.35-1.35 12-5.25 21.9-25.35 11-22.45 10-47.55-.15-3.1.35-3.45.6-.4 3.5 1.1 8.2 4.2 14.55 12.85M281 384.55q-1.15-3.4-.45-3.7.7-.25 2.4 2.95 4.6 8.75 11.75 18.5 7.7 10.65 12.55 14.15 4.5 3.3 6.15 2.95 1.7-.35 3.35-5.1 2-5.75 3.05-14.35.8-6.55 1.7-20.85.25-3.2 1.15-3.25.9 0 .95 3.2.25 9.4-.6 18.25-.95 10.15-3.15 16.7-2.1 6.3-5.2 7.5-3.4 1.35-9.2-2.9-6.8-4.95-14.1-15.05-7.4-10.25-10.35-19"/><path fill="#0d131a" d="M356.5 385.9q-.9-4.4.15-4.8 1.1-.45 2.25 4.3 2.15 8.55 2.95 17.6.75 8.35.2 15.45-.55 6.95-3.4 8.35-2.9 1.5-10.95-1.4-5.95-2.15-12.8-6.7-6.75-4.45-10.45-8.65-2.5-2.85-1.5-3.25 1.05-.4 4.2 2.3 4.85 4.05 11.25 8.15 7.05 4.5 11.4 6.05 6.25 2.3 7.7 1.6 1.4-.65 1.8-5.6.5-6.55-.25-15.55-.75-8.95-2.55-17.85m-3.7-49.25q-2.7-2.15-2.1-2.9t3.4 1.25q9.5 6.7 18.1 17 6.5 7.85 10.85 15.55 3.45 6.05 1.75 9.05-1.85 3.3-9.9 3.1-8.15-.25-18.9-1.9-11-1.75-15.65-3.6-2.9-1.2-2.75-2.05.15-.8 3.15 0 5.8 1.55 16.05 2.95l18.15 1.6q6.4.15 7.45-1.1 1-1.25-1.6-5.85-3.55-6.4-9.95-14.55-9-11.4-18.05-18.55m97.1-15.6q3.1 2.6 2.95 4.1-.1 1.2-2.4 2.05-6.2 2.4-6.8 2.8-.35.2-1.1-1.1t-.5-1.5q.7-.45 4.2-1.5l4.3-1.35q-2.7-3.65-19.35-11.15-17.25-7.75-24.85-8.05-.4 0 .25-1.5t1.1-1.5q6.1.25 20.8 6.7 14.85 6.55 21.4 12"/><path fill="#0d131a" d="M447 331.9q4.9 5.5 8.65 10.5 4.5 6.25 3.4 7.9-1 1.55-8.2.45l-21.45-2.3-17.95-.55q-.45.05.05-1.55.45-1.6.9-1.65l17.85.8 21.05 2.6 4.85.25q.5-.4-1.45-3.05-2.55-3.45-9.9-11.45-9.75-10.6-16.25-15.7-2.6-2-2.1-2.75.5-.7 3.3 1 7.4 4.5 17.25 15.5"/><path fill="#0d131a" d="M383.05 346.2q1.25-.95 1.55-.6 2.95 3.25 8.7 12.6l7.05 11.85q1.9 3.25 2.9 3.1 1-.2 2.55-4.25 2.45-6.35 5.4-25.4.65-4.25 1.75-4.8 1.15-.6.65 5.15-.6 7.05-1.6 12.2-1.4 7.4-3.95 14-2.15 5.55-4.1 6-2.45.55-6.45-5.25l-7.25-11.5q-5.65-9-8.2-11.8-.3-.35 1-1.3"/><path fill="#0d131a" d="m364.75 339.35 1.5-.85q5.15.7 8.35.15 1.25-.3 1.25 1l-2.25 11.05 10.55-5.95q2.9-1.6 3.35-.7.45.95-2.4 2.55l-3.15 1.8-9.2 5.1-1.3.2q-.15-.15-.15-1.15l1.9-11.6-8.2-.5-1.35-.15q-.35-.05 1.1-.95M255.95 266q-.85-8.5.25-9.7 1.6-1.75 9.8 2.55 6 3.1 22.7 15.5 16 11.9 22.9 18.1l-3.3-11.15-2.65-8.3q3.3 1.85 3.45 2.4l1.8 6.4 2.8 10.65q.9 3.55.2 3.85-.6.25-3.45-2.05-8.2-6.65-22.6-17.25-17.25-12.7-22.8-15.6-5.1-2.65-6-1.9-.8.65-.35 6.1.3 3.95 3.35 16.7 3.3 13.95 6.45 23.4 1.45 4.4.95 4.9-.4.45-4.2-.65-5-1.45-13.45-3.55l-12.6-2.95q-6.95-1.55-8.05-.55-.95.85.15 6.75 1.3 6.9 4.45 17.85 4.45 15.65 8.95 24.1l-1.85-1.7-2.25-2.45q-4.55-8.6-8.55-23.05-2.4-8.6-3.8-16.1-1.3-7.05.8-8.3 1.7-1 9.9.5 7.35 1.35 15.3 3.4 7.15 1.8 12.2 3.5-3.25-9.3-6.8-23.75-3.3-13.25-3.7-17.65m-71.3-115.6q-7.85 7.35-20.6 24.05-13.75 17.95-17.3 26.7-.45 1.15-.4 1.65.1.6 1 1.05 3.55 1.8 11.7 5 2.65.95 3.9.55 1.05-.3 2.45-2.3l6.75-9.85q.5-.7 1.2-.45l6.15 2.15 5.9-7.6 4.85-6.3q.2-.4.75.65.5 1.05.3 1.4l-9.5 12.95-1.45 1.7q-.55.25-2.1-.4l-2.75-1.3-2.05-1-6.55 10.3q-1.95 2.55-3 2.85-1.45.4-5.55-1.05-10.9-3.8-13.9-5.4-1.35-.7-1.55-1.6-.2-1.05.75-3.4 3.8-9.25 17.95-27.45 12.7-16.3 20.4-23.5 2.75-2.55 4.05-2.25 1.3.35-1.4 2.85"/><path fill="#0d131a" d="m177.75 136.8 3.75-.1q.25.85-3.2 1.95-14.3 4.5-34.3 15.6-18.6 10.35-32.1 20.65-2.45 1.85-1.1 3.35l2.05 1.85q1.7 1.35 2.8 1.95 1.6.85 2.35.85l3.8-1.05 15.95-5.6q18.05-6 28.65-8.15.4-.05-.2 1.25t-1.05 1.35q-10.5 2.15-27.4 8.15l-14.8 5.6q-2.9 1-4.2 1.05-1.6.05-3.6-1-2.2-1.15-6.5-4.35-2.2-1.65-1.8-3.35.4-1.75 3.65-4.25 12.25-9.4 32.1-20.2 21.55-11.7 35.15-15.55"/><path fill="#0d131a" d="M183.3 124.55q.4 0 .4 1.05-.05 1.05-.45 1.05l-22.15 1-20.65 1.15q-.2.1-.35 1.05l-.2 1.35q-.4 1.5-.8 1.9-.55.5-2.4.8-8.15 1.3-22.3 5.9-12.85 4.2-13.15 4.85-.15.35.4 1.7l1 1.65 23.2-1.85 32.5-1.3q.45.05-1.15 1.15-1.65 1.1-2.05 1.05l-25.7 1-25.5 2.75-2.15.05q-.6-.2-1.2-1.25l-.95-2.4-.85-2.3q-.4-1.1.05-1.7.35-.5 1.65-1.05 5.5-2.35 16.45-5.6 12.9-3.9 20.55-4.9.15-1.6.75-3.95.35-1.5.7-1.65l2.9-.2z"/><path fill="#0d131a" d="M165.75 107.75q14.3 1.2 26.1 5.1.4.1-.1 1.35t-.9 1.1q-10.5-3.45-23.8-4.65-13.25-1.2-15.15 1.1-1.95 2.4 2.4 15.5.15.4-1.15.6-1.35.15-1.45-.25-5.1-15.15-2.65-18.2 2.35-2.85 16.7-1.65"/><path fill="#0d131a" d="m172.9 111 1.2.1q1.25.2 1.4.55l2 4.5.3.9-.6.65-6.1 1.3-6.5 1.2.35 6.25q0 .4-1 .4-1.05 0-1.05-.45l-1.1-7.5q0-.75.65-1l6.3-1 6.35-.95zm11.05-49.05q2.35-3.15 15.95-2.75 13.2.4 24.3 3.55.4.1-.3 1.2-.75 1.1-1.15 1-10.8-3.05-22.85-3.1-11.4 0-13.15 2.35-2.15 2.85 2.25 17.25 4.45 14.55 9.85 21.6.25.35-.8 1.25t-1.3.55q-6.5-8.5-11.05-23.85-4.55-15.3-1.75-19.05"/><path fill="#0d131a" d="M196.8 70.65q0-.85.85-1l5.4-.5 7.5-.95q-1.3-2.45-3.1-6.7-.05-.15 1.1-.45l1.25.05 1.55 3.4 1.65 3.8.25.95q-.05.45-.85.65l-7.05 1.3-5.55.9.2 16.7-.2.85-.95.15-8.85-1.1q-.4-.1-.3-1.4.1-1.25.55-1.2l7.7 1.45-.55-8.75-.6-8.1zm48.9 79.7q1.25 5.2 3.2 19.85 1.9 14.2 1.7 15.8-.1.65-1.55-2.6-1.55-3.4-1.85-5.95l-2.05-14.8-1.75-11.55q-.5-4.3.4-4.5.95-.25 1.9 3.75m30.7 25q-.45-4.2.5-4.4.9-.2 1.55 4 2.25 15.35 3.1 40.5.7 21.4.2 24.15-.15.75-.95.85l-4.65.05-2.05-.15q-.4-.05-1.05-1.25t-.2-1.15l6.15-.25q.85-1.25-.2-25.65-1-24.15-2.4-36.7"/><path fill="#0d131a" d="M310.05 194.9q-.55-3.8.4-3.6.95.15 1.85 3.85.95 4.05 4.3 22.45 3.55 19.6 4.35 26 .3 2.25-.15 2.9-.5.65-3.15 1.55l-6.75 1.4-7.65.8-2.6-.25q-.85-.4-1.65-2.35l-5.3-14.2-3.65-10.1-4.45-.25q-.55-.25-.65-.8l-5.15-18.8q-.55-1.85-.05-3.5.55-1.7.7-.95l3.3 10.95 3.4 10.9 2.4.25q1.55.1 1.9.45.5.35 1.15 2.2 1.55 4.7 5.05 13.8 3.65 9.4 4.15 9.9l8.15-.9q7.75-1.35 8.25-2.25.4-.7-3.55-23.45zm85.1 27.35.6-13.05q0-.45.9.5.9 1 .9 1.4l-.25 10.1-.75 12.5q-.2 1.6-.7 2.1-.45.5-1.9.55l-17.4-.7-.65-.55q-.65-1.25-1.9-14.4-1.3-13.45-1.1-18.1.1-3.55.9-3.6.8-.1 1.1 4.25 2.2 28.1 3.1 29.8l7.9.6q7.6.15 8.15-.2.4-.3 1.1-11.2"/><path fill="#0d131a" d="M390.8 171.65q-2.5-2.75-2.05-3.5.5-.7 3.25 2.05 9.5 9.65 23.6 29.8 13.25 18.9 15.45 24.85l.05.6q-.35 1.35-5.6 2.4-1.4.3-2.85-.75l-13-9.75q-.65.25-2.8 1.6l-3.15 1.75-1.9.7q-.45-.1-1.25-1.5-1.55-2.85-7-14.3l-5.65-11.9q-1.45-3.3-.7-3.45.8-.2 2.6 2.95l6.2 12.3 6.65 13.05 2.7-1.4 3.9-1.85q.6-.2 1 .2l7.25 5.1 6.8 4.6 2-.2q1.6-.4 1.8-.75.6-1-13.15-21.05-14.75-21.45-24.15-31.55m-.8-13.9q-.2-.4 1.4-.25 1.55.1 1.75.5 2 4.05 2.7 8.7.4 2.7-.4 3.05-.8.4-1.65-2.2-2.55-7.35-3.8-9.8"/><path fill="#0d131a" d="M394.4 166.9q-.3-.15-.15-1.2.15-1.1.5-.9 10.55 5 29.65 16.1 23.1 13.4 26.25 17.8.45.6-.05 1.25-1.2 1.5-3.6 3.35l-3.45 2.35q-1.1.65-2.35.3-4.2-1.25-16.45-5.4-12.6-4.25-13.8-4.9-.4-.2-.65-1.1-.3-.85.15-.8l16.05 4.95q15 4.7 15.65 4.65.7 0 3.15-1.85 2.45-1.8 2.4-2.15-.25-1.85-22.35-15.1-21.15-12.7-30.95-17.35"/><path fill="#0d131a" d="M393.95 163.5q-.4-.05-.4-.95.05-.9.5-.85 6.3.35 27.65 7.05 21.6 6.7 27.5 10.3 1.3.8 1.5 1.3.25.55-.4 1.5l-1.5 1.65-1.7 1.45-1.1.8-1.45-.1-18.5-3.9-.7.75q-.25.3-1.1-.3-.85-.65-.55-.95l1.2-1.35q.35-.4.95-.3l19.45 3.6 1.35-1q.9-.9.7-1.3-.9-1.9-22.5-8.85-21.3-6.9-30.9-8.55m-9.2-135.3q3.05-.1 3.45.65.45.75-2.55 1.05-9.4.9-15.4 8-6.95 8.1-7.5 22.45-.15 4.45-1.05 4.7-.9.2-1.1-4.2-.6-14.9 6.3-23.8 6.65-8.55 17.85-8.85m1.65 63.2-.4-8.2q.3-.85.9-1.2l1.3-1q1.5 12.25.8 20-.05.45-1.25-.4-1.25-.9-1.25-1.3z"/><path fill="#0d131a" d="M412.65 29q-.4.25-.1-1.15t.7-1.55q3.65-1.05 8-1.4 4.75-.35 5.7.65 1.65 1.7-1.45 9.4-3.05 7.6-9.05 17.1-15 23.7-29.2 31.3-3.55 1.9-3.7 1.3-.1-.55 2.3-2.4 17.2-12.9 30.05-34.15 4.5-7.55 7.25-14.05 2.35-5.7 1.8-6.45-.5-.6-4.8-.45-4.9.2-7.5 1.85"/><path fill="#0d131a" d="M568.85 64.55q3.3 3.25 2.65 4.1-.7.8-4.15-2.25-12.9-11.6-33.05-20.2-19.3-8.25-41-12-21.9-3.75-40.75-1.95-20 1.9-32.4 9.8-.4.25.25-1.3t1.1-1.85q11.7-7.55 31.85-9.35 19.1-1.7 41.25 2.1 22.3 3.8 41.55 12.1 20.5 8.85 32.7 20.8m-12.1 56.15q.5-.1 1.7.6 1.2.75.8.85-27.25 8.9-56.25-1.65-17.6-6.4-46.1-25.7l-9.5-6.7q-4.25-2.9-5.75-2.8-1.9.15-18.9 5.85-17.8 5.95-20.7 6.55-.45.1-1.9-.65-1.4-.7-1-.8 2.85-.55 22-7.1 18.45-6.35 20.45-6.5t6.4 2.7q2.75 1.75 10.25 7.1 25.35 17.15 41.95 23.7 29.75 11.65 56.55 4.55"/><path fill="#0d131a" d="M591.95 73q15.15 8.55 15.35 12.9.1 2.9-10.45 7.65-10.2 4.55-19.25 6.05-.5.05-1.15-.8t-.3-.95q8.4-2.25 17.1-5.85 10.3-4.25 10.35-6.4.1-2.05-12.05-9.65-13.6-8.5-24-10.35-.4-.05-1.6-1.6t-.8-1.5q11.35 1.75 26.8 10.5"/><path fill="#0d131a" d="M574.85 98.3q-1.85-2-1.4-2.65.4-.7 2.55 1.05 6.65 5.55 11.75 17.5 4.6 10.8 3.25 13.1-1.2 2.05-13.4.3-13.4-1.95-24.15-7.1-2.45-1.15-2.1-1.9l2.9.15q10.05 3.4 22 5.45 11 1.9 11.8.95.9-.95-2.95-10.05-4.35-10.45-10.25-16.8M535 79.65q-2.7-1.8-2.1-2.4.55-.6 3.5.85 8.15 4.1 16.4 11.35 9.05 7.85 8.9 11.9-.1 3.3-10.85 5.75-11.65 2.6-23.75.6-3.2-.5-3.05-1.25t3.4-.45q9.7.85 20.15-1.15 10.1-1.95 10.4-4.35.4-2.7-7-9.05-6.05-5.2-16-11.8M494.1 41.6l.6 1.25q-.05.55-1.55.4-15.1-1.55-31.7-.55-14 .85-17.45 2.35 2.75 3.05 30.55 21.3 2.5 1.7 1.95 2.55-.3.55-2.75 1.3-8.15 2.45-14.35 5.45-5.75 2.8-6.05 4.15-.4 2.15 7.3 11.05 7.15 8.25 9.65 9.8.3.15-1.1.35l-1.7-.1q-5-3.95-11.15-11.1-6.75-7.85-6.55-10.4.2-2.1 7.95-5.9 7.35-3.65 14.5-5.45L455.3 57q-15.95-10.85-15.45-12.75.6-2.3 17.75-3.5 17.35-1.25 32.55.1l-6.9-9.3q-.15-.15 1-.4l1.35.05zm-86.35-32q6.1-4 7.5-2.95 1.35 1.05.25 10.15-.95 8.05-2.75 14.85-.8 3.25-1.65 3.05-.8-.2-.15-3.5 1.05-5.15 1.95-12.65.95-8.1.4-8.5-.7-.5-5.7 2.85-5.1 3.4-7.85 6.4l-1.55 1.5q-.5.05-1.45-2.2-1.5-3.4-4.2-7.05-2.6-3.4-3.35-3.3-1.3.2-3.85 9.15-2.55 8.85-2.3 11.8-2.15.85-2.1.25.25-5.4 2.7-14.4 2.85-10.25 5.2-10.15 1.85.05 5.25 4.8 3.2 4.4 4.45 7.9 3.05-3.95 9.2-8M324.3 31.1q7.3 5.25 11.8 13 4.75 8.1 5.45 17.35.3 3.7-.75 3.9t-1.4-3.5q-.7-7.75-5-15.05-4.2-7.15-10.9-12.3-15-11.55-31.3-7.15-2.95.8-3.55 0-.65-.8 2.2-1.75 8.6-2.9 17.6-1.3 8.55 1.55 15.85 6.8m-67.1-2.85q4.45.95 4.1 1.6l-4.95.3q-5.4-.4-13.4.35-8.55.8-9.45 2.15-.55.8 1.95 4.55 3 4.4 8.4 9.9Q259.1 62.55 284 76.8q6.2 3.55 5.9 4.55T283.25 79q-26.4-14.05-42.45-30.8-6.1-6.35-9.05-11.5-2.7-4.6-1.75-6.1 1.4-2.25 11.25-3z"/><path fill="#0d131a" d="M274.65 17.95q2.45 2.1 2.4 3.3-.05 1.15-2.6-.7-8.95-6.65-17.1-11.6t-9.2-4.3q-1 .6 1.55 10.75 2.5 10.05 4.45 13.65.25.4-1.1.45-1.3.05-1.5-.35-3.1-5.8-5.45-16.25-2.4-10.7-.6-11.8 2.6-1.5 13.55 5.45 8.75 5.55 15.6 11.4"/><path fill="#0d131a" d="M287.25 12.15Q293 21.45 295.2 26q.2.4-1.1.65l-1.45-.1Q279.6 4.6 277.95 4.6q-1.05.05-2.75 5.4-1.4 4.35-1.8 6.75-.05.4-1.1.25-1-.2-.95-.6Q274.05.45 277.3 0q2.2-.3 9.95 12.15m-9.75 82.6q2.95-1.15 3.4-.4.4.7-2.7 1.95-12.55 5-25.6 11.65-14.75 7.55-14.9 9.7-.1 1.45 4.8 6.55 5.1 5.35 8.05 5.85 3.1.2 17.8-6.9l17.55-8.85q.35-.15.3.85-.1 1-.45 1.2-7.3 4.2-15.3 8.25-16 8.15-20.15 7.9-3.95-.7-10.05-6.7-5.9-5.8-5.7-8.2.2-2.9 14.7-10.4 13.4-6.95 28.25-12.45"/><path fill="#0d131a" d="M293.75 106.1q2-1.65 2.6-1.2.55.4-1.15 2.2-9.8 10.1-18.35 21.1-8.9 11.5-8.6 14.05.35 2.55 7.85 7.05 7.3 4.4 8.75 3.85.9-.3 16.85-16.45l16.25-16.6q.35-.35-.4 2.35-.7 2.65-1.15 3.05l-14.85 15.25Q287.4 155.1 285.8 155.7q-2.9 1.1-11.8-4.45-9.05-5.7-9.05-9.4.05-3.6 12.65-18.45 11.2-13.15 16.15-17.3m79.65-.4q.5-.75 2.6 1.45 12.95 13.2 21.95 25.65 7.35 10.2 11.1 18.4 1.25 2.75.85 3.7-.3.9-2.65 1.7l-5.85 1.75-6.25 1.25-3.85-.1q-.8-.4-2.5-2.85l-7.05-10.1q-5.15-7.1-8.65-10.3l-5 1.85q-2.75.9-3.6.5-1.5-.7-6.65-8.45-5.65-8.6-6.4-13.1-.05-.45.65-1.35.75-.95.8-.5.55 3.35 6.35 11.85 5.5 8.05 7.05 8.7l2.3-.35 2.85-.9 2.35-.55q.4.05 1.5 1.1 3.75 3.65 10.75 12.9 6.4 8.5 6.75 8.7.95.55 7.3-.7 6.35-1.3 6.7-2.1.9-2.05-7.7-14.6-9.65-14.15-24.25-30.7-1.95-2.15-1.45-2.85"/><path fill="#0d131a" d="M387.65 99.1q6.8 3.7 17.15 11.55 12.35 9.4 16.7 15.4 1.05 1.5 1.3 2.35.25.8-.1 1.55l-2.7 4.75 3.15 3.9q.8 1.1.6 1.75-.2.55-1.3 1.15l-4.15 2.15-1.85.65q-.4 0-1.4-.75l-12.2-9.15q-9.7-7.3-11.8-8.6-.55-.35-1.45-2.1-.95-1.7-.55-1.5 2.15 1.05 9.05 5.95l11.75 8.65 5.75 4.25 1.2.65 1.35-.45 2.15-1.05.65-.6q.15-.35-.25-.95l-1.95-2.55q-.85-1.05-.75-1.65.05-.4.85-1.7 1.8-2.75 1.55-3.9-.5-3.2-12.55-12.8-10.35-8.3-21-15.1-3.5-2.2-3.05-2.95t3.85 1.1"/><path fill="#0d131a" d="M388.2 92.8q-.3-.15-.35-1.15-.05-1.05.35-.9 6.45 2.45 24.4 11.05 19.7 9.4 25.75 13.35 1.8 1.2 1.9 1.75.05.6-1.55 1.4-2.4 1.25-5.15 2.35L432 121l-1.55-.45-15.25-5.45q-11.1-4.05-12.2-4.65l-2.95-2.25-2.2-1.8 15.25 5.65 17.6 6.4 1.4.35 1.4-.25 2.8-1.15q1-.45.05-1.05-4.4-2.75-23.2-11.95-19.2-9.4-24.95-11.6m-39.6-27.5q-.5-2.65.15-2.8t1.5 2.25q.8 2.25.7 4.85-.05 2.65-1.1 4.3-1.3 2.1-2.1 2.05-.85-.05.2-2.3 1.55-3.25.65-8.35m5.4-1.15q.1-2.25.85-2.3.7 0 .85 2.05.2 2.85.85 4.7.5 1.5 1.6 3.35 1.2 2 .65 2.4-.6.45-2.1-1.4-3-3.65-2.7-8.8m9.4 12.7q-.45-.6.85-1.9 2.3-2.35 7.6-6.55 5.45-4.3 8.3-6 2.25-1.35 2.5-.65.3.7-1.4 2.15l-8.5 6.9-7.3 5.65q-1.6.95-2.05.4"/><path fill="#0d131a" d="M378.35 66.05q-.2-.35.35-1.45.55-1.05.75-.7 3.1 5.75 3 11.6-.05 6.95-4.95 9.65-3.95 2.2-7.75-1.05-3.8-3.2-4.15-9.05-.05-.4.8-.6.85-.15.9.25.75 5.15 3.8 7.7 2.85 2.35 5.4.9 3.75-2.05 3.95-7.7.15-4.85-2.1-9.55M319.85 73q.6.05.95.6.35.45.25 1-.05.7-.5 1.1-.4.35-.9.3-.7-.05-1.05-.6-.35-.5-.25-1.05.05-.65.5-1.05t1-.3"/><path fill="#0d131a" d="m373.8 74.55.85.5q.3.45.25.95-.05.6-.5.95-.35.35-.8.3-.6-.05-.95-.55-.3-.4-.2-.9.05-.6.45-.95t.9-.3m-36-.15q2.45 1.95 1.95 2.8-.55.85-3.15-.85l-14-8.9-11.65-6.7q-3-1.4-2.4-2.3t3.6.5Q326.9 65.8 337.8 74.4"/><path fill="#0d131a" d="M326.5 85.35q6.95-3.15 8.05-11.05.1-.45 1.2-.3 1.15.15 1.05.6-1.4 9.6-9.7 13.15-7.9 3.35-14.25-1.25-5.75-4.2-5.75-12.5 0-7.8 4.7-13.95.25-.35 1.15.3t.65 1q-3.9 5.15-3.9 12.25 0 7.5 4.7 10.9 5.4 3.95 12.1.85m26.75 25.7q.9-2.95 1.7-2.5.75.45 0 3.4-9.2 37.05-15.8 54.1-.65 1.8-1.3 2.15l-2.1.2-8-1.85-11-2.95q-2.65-.8-3.05-1.5-.55-.9.4-4.05l4.2-11.6 3.8-10.45q-7.4-3.35-7.8-4.65-.55-1.95 6.3-20.5 1.55-4.2 2.35-3.8.75.35-.5 4.35-5.85 18.6-5.55 18.9.55.65 5.05 2.85 2.1 1 2.45 1.65.3.65-.25 3l-4.45 12.1q-3.95 10.5-3.75 10.9t9.95 3q9.85 2.6 10.65 2.2.5-.25 7.2-22.9z"/></svg>