<svg xmlns="http://www.w3.org/2000/svg" width="224" height="314" viewBox="-0.15 -2.65 223.9 313.85"><path fill="#c60044" d="M62.5 194.45q-2.1-3.7-6.25-16.05 10.75 2.45 19.8 12.3 7.1 7.7 9.5 14.9l.85 2.35q.8 2.7.7 4.35-.35 5.25-9.9-2.05-10.15-7.75-14.7-15.8"/><path fill="#a30035" d="m85.55 205.6.85 2.35q.8 2.7.7 4.35-.35 5.25-9.9-2.05l-3.5-2.8 2.9-6.35 2.9-6.3q4.5 6.1 6.05 10.8"/><path fill="#c60044" d="M44.25 214.7q10.8-4.2 22-4.65 10.05-.45 16.6 2.15l-16.3 21.05q-17.4 11.2-32.15 16.2-14.75 4.95-28.6 4.35 10.7-28.3 38.45-39.1"/><path fill="#a30035" d="M66.55 233.25q-8.9 5.75-17.8 10.15 4.55-6.15 7.5-15.6 1.7-5.35 4.15-17.25l12.7-.45q5.75.5 9.75 2.1z"/><path fill="#c60044" d="M75.25 142.8q-8.9 4.2-19.25 3.9-9.95-.3-18.75-4.6-8.95-4.35-14.15-11.65 8.6-5.55 21.75-9.85 16.25-5.4 32.95-6.4 15.3-.9 15.75 6.9.25 3.9-2.6 7.95-6.05 9.2-15.7 13.75"/><path fill="#a30035" d="m62.15 131-13-.75q-2.3-.4.9-1.4 6-1.85 8.25-3 3.75-1.85 2.1-4.8-1.3-2.25-4.2-3.65 10.7-2.55 21.6-3.2 15.3-.9 15.75 6.9.25 3.9-2.6 7.95-3.25 5-7.8 8.75-9.2-5.45-21-6.8"/><path fill="#c60044" d="M178.45 131.3q4.75.4 18.7 5.85 15.45 6 25.35 12.1-1.9 3.9-7.95 7.15-6.55 3.55-14.45 4.25-20.5 1.9-33.95-15.3-.9-3.8.15-7.45 2.15-7.35 12.15-6.6"/><path fill="#a30035" d="M166.15 145.35q-.85-4.3.25-8.25 2.2-7.85 12.05-5.8 6.85 1.45 16.5 5.25-3.1.85-4.8 2.25-2.2 1.75-.6 3.45 1.15 1.25 7.1 3.2 5.8 1.9 6.9 3.3.7.9-2.4 1.05l-8.15.05q-14.4-.1-20.5 2.15-3.5-2.95-6.35-6.65"/><path fill="#1a657e" d="M95.05 187.75q1.9-4.05 2.3-9.75l41.05 6.15-.1 17.35q-.6 18.45-3 24l7.6 10.25q5.5 7.25 6.1 11.3 1 6.85 0 18.8l11.1 9.4q10.75 10.25 9.05 14.55-3.05 7.7-5.45 9.45-3.15 2.4-10.6.45-6.8-1.75-17.65-10.65-7.6-6.25-11.75-10.9-.55-.6.5-3.1l2.65-5.85q4.15-9.55 3.35-16.35-.65-5.35-5.3-10.35-4.8-5.1-12.85-8.8-3.5-1.6-13.9 3.05-9.95 4.4-17.2 10.3-6.45 5.3-11.5 17.15-4.4 10.45-5.95 21.15-.4 3-11.25 7.75l-17.45 6.95q-1.85.8-5.4-1.6-3.3-2.15-6.55-5.85-3.3-3.8-4.6-6.9-1.5-3.5.3-4.65 1.75-1.85 11.15-6.95l14.1-7.75q1.8-1.1 10.3-14.65 9.95-15.85 13.55-20.35l11.3-13.55q5.5-6.9 8.15-13.15z"/><path fill="#074f64" d="M95.05 187.75q1.9-4.05 2.3-9.75l41.05 6.15.05 8.8q-23.25-3.55-47.4 19.35-7.25 6.9-19.85 21.45-13.1 15.25-19.15 21.2l8.05-12.75q4.7-7.35 7.55-10.85l11.3-13.55q5.5-6.9 8.15-13.15zm27.55 45.5q3.7 2.45 9.1 8.95 6.5 7.9 6.45 12.4-.05 2.65-2.25 12.75-1.75 8.2-.75 9.95.9 1.55 8.2 9.5 6.65 7.95 5.5 11.3-6.6-3.15-15.5-10.8-6.35-5.45-9.65-9.15-.55-.6.5-3.1l2.65-5.85q4.15-9.55 3.35-16.35-.65-5.35-5.3-10.35-4.8-5.1-12.85-8.8l-3.15-.9q2.8-1.75 7.05-1.55 4 .25 6.65 2"/><path fill="#eeeeef" d="m165.05 280.55 5.9 7.1q5.9 7.7 5.75 10.7l-9.95-4.55q-4.55-2.15-4.75-3.65-.25-4.95 1.4-7.75z"/><path fill="#eeeeef" d="M159.6 283.3q5.45 4.6 10.4 11.65 5.15 7.3 5 10.75l-11.8-5.5q-6.7-3.35-9.4-5.95-.75-3.05 1.9-7.05 2.3-3.5 3.9-3.9"/><path fill="#c8c9ca" d="M153.8 294.25q-.5-2 .55-4.55.85-2.1 2.5-4.05 3.5 3.1 6.4 7.8 1.8 2.95 4.7 9-10.8-4.95-14.15-8.2"/><path fill="#eeeeef" d="M153.1 287.05q2.7 2.9 7.45 10.25 5.7 8.9 5.55 12.05-2.15-.6-9.2-5.05-6.9-4.45-10.55-7.45-.05-5.15 2.55-7.9 2.05-2.1 4.2-1.9"/><path fill="#c8c9ca" d="M146.35 296.85q-.05-3.7 1.45-6.4 3.85 3.15 7.9 8.2l6.85 9q-3.65-2.05-8.55-5.3z"/><path fill="#eeeeef" d="m20.05 280.35 2 .85q1.85 1.85 1.3 6.7-.35 1.65-6.95 3.3-5.7 1.4-9.55 1.55.05-3 6.65-8z"/><path fill="#c8c9ca" d="M6.9 292.4q5.15-2.4 8.35-4.3 4.45-2.6 7.7-5.5.8 1.95.4 5.3-.35 1.65-6.95 3.3-5.7 1.4-9.55 1.55z"/><path fill="#eeeeef" d="M27.55 283.75q1.65.55 3.45 3.3 2.2 3.35 1.25 6.35-3.15 2.75-9.6 5.3-5.7 2.2-12.25 3.7.05-3.25 5.85-9.1 4.5-4.5 11.3-9.55"/><path fill="#c8c9ca" d="M31.25 287.5q1.9 3.05 1 5.9-5.25 4.55-17.75 8l8.8-6.6q4.75-3.85 7.95-7.3"/><path fill="#eeeeef" d="M35.9 288.2q2.05-.1 3.45 1.85 1.9 2.5 1.5 7.65-3.55 2.65-11.05 6.45-7.25 3.7-9.6 4.2.05-3.05 7-11 4.15-4.75 8.7-9.15"/><path fill="#1a657e" d="m152.35 179.35 26.95 20.7q23.05 18 29.95 25.95 4.4 5.05 5.45 9 .8 2.85-.1 5.65-1.85 5.95-6.5 8.7-2.35 1.4-4.3 1.55l-5.6 4.45-3.05-13.05-2.7 3.3q-3.5 3.65-7.55 5.45.45-5.55-.3-12-.75-6.95-2.55-11.4-1.45-3.6-16.7-18.65l-25.6-25.7z"/><path fill="#074f64" d="M158.25 183.9q-4.85.25-6.75 3.35-2 3.3.45 8.55l-12.2-12.5 12.6-3.95z"/><path fill="#eeeeef" d="M209.25 226q4.4 5.05 5.45 9 .8 2.85-.1 5.65-1.85 5.95-6.5 8.7-2.35 1.4-4.3 1.55l-5.6 4.45-3.05-13.05-2.7 3.3q-3.5 3.65-7.55 5.45.45-5.55-.3-12-.75-6.95-2.55-11.4-.7-1.6-3.6-4.65l-7.4-7.4q2.2-.6 6.7.8 4.2 1.3 4.75 1 .9-.45-1.6-7.3l-2.65-6.8 3.35.8q3.75 1 5.6 2.2 16.35 13.15 22.05 19.7"/><path fill="#c8c9ca" d="M195.15 242.3q1.1-1.35 1.9-3.7 1.65-4.75.35-9.8 5.3 4.55 5.25 12.25-.05 7.15-4.55 14.1zm-4.6-11.05q.7 4.8-.8 10.45-1.45 5.25-4.15 9l-.7.35q.45-5.55-.3-12-.75-6.95-2.55-11.4-.7-1.6-3.6-4.65l-7.4-7.4q1-.3 9.5 5.3 9.35 6.2 10 10.35m18.2 1.95q5.35 5.35 4.4 10.8-.55 3.1-5 5.3-2.2 1.1-4.35 1.6 3.4-4.75 4.45-8.15 1.2-4 .5-9.55"/><path fill="#1a657e" d="m85.05 169.8 9.95 6.5q-12.25 7.75-27.55 21.75-6.6 6.05-23.05 22.35-8.2 8.1-10.35 15.3-1.2 4.1-1.65 11l-4-3.45q-2.5-2.7-4.55-6.8-1.45 2.4-2.4 7.05l-1.7 8q-2.95-3.35-6.4-9l-2.85-4.95L6.45 245q-1.35-1.95-2.7-5.25-2.65-6.55-2.45-13.2.1-3.85 5.3-8.8 4.85-4.6 18.3-14.1 11.7-8.3 30.85-19.1 19.5-11 29.3-14.75"/><path fill="#074f64" d="M80.7 178.6q-3.7-1.95-10.9-1.65 9.75-5.1 15.25-7.15l9.95 6.5q-5.25 3.25-11.25 7.95.65-3.7-3.05-5.65"/><path fill="#eeeeef" d="M42.5 202.15q6.85-3 7.35-2.65.4.25-.15 5.6-.8 6.85-.65 10.65l-4.65 4.65q-8.2 8.1-10.35 15.3-1.2 4.1-1.65 11l-4-3.45q-2.5-2.7-4.55-6.8-1.45 2.4-2.4 7.05l-1.7 8q-2.95-3.35-6.4-9l-2.85-4.95L6.45 245q-1.35-1.95-2.7-5.25-2.65-6.55-2.45-13.2.1-3.85 5.3-8.8 4.85-4.6 18.3-14.1 8.45-6 21.45-13.7L38.6 200.2q-4.4 5.6-3.75 5.35z"/><path fill="#c8c9ca" d="m48 215.3-.35 1.85-3.25 3.25q-8.2 8.1-10.35 15.3-1.2 4.1-1.65 11-1.6-1.1-2.95-4.85-1.3-3.65-1.35-6.75-.1-6.35 6.4-12 5.1-4.35 13.5-7.8M4.2 232.25q-.3-2.45 1.1-5.85 1.3-3.3 2.7-4.15 0 3.2.9 7.75l1.5 7.7-3.95 7.3q-1.8-9.35-2.25-12.75m25-16.1q-5.85 5.35-6.8 11-.7 3.95 1.05 10-1.2 2.3-2.05 6.8l-1.65 7.55q-4.65-16.15-4.8-21.2-.1-4.05 2.5-6.85 3.05-3.25 11.75-7.3"/><path fill="#c60044" d="m105.95 149.8 32.55 8.75q12.85 6.3 18.9 17.35-7.35 7.05-25.4 8.65-18.8 1.7-31-4.55-11.9-6.1-19.05-12.4-6.05-5.35-6.1-8.25Q80 156 86.95 153.1q10.25-4.3 19-3.3"/><path fill="#a30035" d="M119.3 164.25q-19.25-.5-35-10 11.65-5.6 21.65-4.45l32.3 7.3q-.15 3.55-5.55 5.5-5.15 1.85-13.4 1.65"/><path fill="#c60044" d="m75.85 159.35 2.25-1.6q4.4 6.15 14.75 11.2 9.8 4.8 21.9 7.2 12.3 2.4 22.7 1.45 11.3-1 17.2-5.75l2.75 4.05q-7.35 7.05-25.4 8.65-18.8 1.7-31-4.55-11.9-6.1-19.05-12.4-6.05-5.35-6.1-8.25m123.9-127q12.3 15.65 15.5 35.8-4.35 14.15-15.5 31.75-5.55 8.8-10.25 14.75L84.1 110q-3.5-2.8-23.25-22.55-19.4-19.4-22.1-21.45 4-14.7 14.4-27.6Q63 26.2 77.2 17.3q13.95-8.7 29.65-12.75Q122.95.4 138.1 1.9q40.95 4.05 61.65 30.45"/><path fill="#c60044" d="M215.25 68.15q-2.25 7.15-4.6 12.7-2.2 5.2-5.7 11.65-.8-27.05-20.75-46.9-18.7-18.65-46.25-23.8-28.4-5.3-52.95 6.5-27.25 13.1-40.65 43.9l-3.8-3.7q-1.45-1.45-1.8-2.5 4-14.7 14.4-27.6Q63 26.2 77.2 17.3q13.95-8.7 29.65-12.75Q122.95.4 138.1 1.9q40.95 4.05 61.65 30.45 12.3 15.65 15.5 35.8"/><path fill="#1a657e" d="m175.65 126.85 4.5 8.1-11.8 7.85z"/><path fill="#1a657e" d="m165.9 77.25 2.75 15.9q4.45-2.1 7.3-3.1 6.45-2.35 11.5-2.5.55 3.9-3.35 14.7-1.9 5.4-3.95 10l4.75.3q5.25.6 7.6 2.2.2 1.05-5.9 6.2-7.1 6-8.7 8.4-2.7 10.65-19.15 20.6-16.3 9.85-28.45 8.45-21.25-2.4-31.75-15.75-3.5-4.5-6.05-10.5l-2.95-7.85q-3-1.35-7.1-5.4l-4.4-4.4q-.6-1.95 4.7-4.15 2.65-1.05 5.4-1.75-1.35-2.95-2.75-6.9-2.9-7.8-3.4-12.45 4.35-.15 10.65 1.25l12.05 2.95q-.8-1.4.5-12.2 1.35-11.4 3.45-16.95 4.7.75 16.15 9.55 5.7 4.4 10.5 8.65l10.05-9.05q11-9.35 15.75-11.15 2.6 3.55 4.8 14.95"/><path fill="#074f64" d="M82 89.25q4.35-.15 10.65 1.25l12.05 2.95q-.7-1.25.35-10.95 1.15-10.25 3-16.4.55 8.6.75 21.95l.35 21.35q.55 23.7 3.95 30.65 3.75 7.75 12.8 12.05 9.9 4.75 22.05 3.15-10.3 4-17.65 3.15-21.25-2.4-31.75-15.75-3.5-4.5-6.05-10.5l-2.95-7.85q-3-1.35-7.1-5.4l-4.4-4.4q-.6-1.95 4.7-4.15 2.65-1.05 5.4-1.75-1.35-2.95-2.75-6.9-2.9-7.8-3.4-12.45"/><path fill="#f29600" d="M137.75 113.85q1.2-5.05 3.85-8.25 2.65-3.15 5.15-2.55 2.55.6 3.5 4.6.95 4.05-.25 9.1-1.15 4.85-4 7.45-2.7 2.45-5.4 1.8-2.5-.6-3.25-3.85-.75-3.2.4-8.3"/><path fill="#d18200" d="M137.75 113.85q1.2-4.75 3.6-7.9-1.45 8.1-.3 12.85.95 4 3.95 6.15-2.2 1.5-4.4 1.05-2.5-.6-3.25-3.85-.75-3.2.4-8.3"/><path fill="#fff" d="m156.8 139.95-5.85.25q-2.8-.65-4.1-2.35 3.65-5.25 10.15-8.65 3.4-1.75 8.35-3.25-.95 11.45-8.55 14m-52.35-28.55q2.65.5 9.9 8 7.1 7.45 10.45 13.15-3.3 2.35-7.75 1.9-4.35-.4-7.9-3.25-8.65-7.05-4.7-19.8"/><path fill="#dbdcdc" d="m165.35 125.95-.7 4.4q-5.9 1.8-8.9 3.15-5.05 2.25-7.6 5.25l-.8-.35-.5-.55q3.65-5.25 10.15-8.65 3.4-1.75 8.35-3.25m-40.55 6.6-1.55.9q-5.3-6.2-9-9.5-5.3-4.7-10.85-7.05.15-2.6 1.05-5.5 2.65.5 9.9 8 7.1 7.45 10.45 13.15"/><path fill="#c60044" d="M157.1 129.8q.65 2.35-.6 6.1-1.35 4.05-3.6 4-1.55-.05-1.9-2.1-.25-1.45.1-3.5.2-1.1 3.1-2.9z"/><path fill="#a30035" d="M157.35 132.9q-3.85 1.3-6.55 3.35l-.1-2.25q.2-1.15 3.4-3l3.1-1.6q.4 1.35.15 3.5"/><path fill="#c60044" d="M120.2 126.4q-.4 4.25-2.05 6.45-1.5 1.95-3.05 1.15-1.6-.8-1.95-4.2-.35-3.9 1.3-9.7z"/><path fill="#a30035" d="m114.45 120.1 5.75 6.3-.5 2.9q-2.65-3.2-6-5.95.3-1.7.75-3.25"/><path fill="#ed8599" d="M138.2 149.55q3.85.4 6.35 1.85-2.3.5-8.6 2.95-5.75 2.2-6.75 2.25-1.3.1-3.5-3.6-1.5-2.5-2.65-5.25l4.5.95z"/><path fill="#a30035" d="m123.05 147.75 2.2.5-2.05-.15z"/><path fill="#922f00" d="M138 149.05q2.4.25 4.7 1.35l1.85 1q-2.1.45-8.9 3-4-4.95-10.5-5-.2-.05.35-.75.6-.65.35-.7z"/><path fill="#fff" d="M127.3 151q-.65-.15-1.25-2.8l3.55.55q-1.6 2.4-2.3 2.25m-1.4-2.95q-1.9 3.35-2.75 3.4-1.4.1-1.75-6.05zm16.6 2.15 3 1.1q-2.65 4.75-3-1.1m8.1.3-2.55 4.35q-1.5 1.35-2.3-4l2.1.25q2.2.1 2.75-.6"/><path fill="#f9cb87" d="M148.65 109.45q-.2 1.25-.8 2.05t-1.3.7q-.65-.05-1-1t-.15-2.2q.15-1.25.75-2.05t1.3-.7 1.05 1q.35.95.15 2.2"/><path fill="#c8c9ca" d="M33.4 302.7q-5.25 2.5-10.5 3.95 12.2-8.9 17.65-14.85 1.9 3.15 1 5.9-2.75 2.45-8.15 5"/><path fill="#0d131a" d="m74.85 191.05 1.5-1.05q3.75 4.05 6.55 8.65 2.4 3.9 3.45 7.1l-.75 1.7q-1.05-3.1-3.7-7.3-3.1-4.9-7.05-9.1m3.65 19.7-1.8.1q-5.6-3.35-11.25-11.35l1.55-1.55q5.9 9.05 11.5 12.8m-17-29.55-3.65-1.35 1.05 2.7q-.7.4-1.85 1.3-.6-1.45-1.35-4.7-.25-1.35.2-1.5l2.25.4q2.1.75 4.9 2.3zm4.5 51.2-.35 2.05q-17.6 11.3-27.5 14.8-10.35 3.6-31.6 5.6l-1.15-.15q-.3-.45.3-2.35 1.05-3.4 2.5-6.25 1.35-2.65 3.7-6l1 1.6q-3.25 5.1-5.65 11.15 15.15.05 28.8-4.8 12.8-4.6 29.95-15.65"/><path fill="#0d131a" d="m83.1 211.8-.6 1.3q-5.2-2.05-12.95-2.15-8.55-.15-17.5 2.25l2.35-2.5q8.4-1.75 16.45-1.3 7.2.4 12.25 2.4m-34.15-92.9q14.95-4.25 28.1-5.2l.7 1.5q-9.5-.4-30.15 6.05-19.6 6.1-23.05 9.5 5.4 7.05 14.5 11.1 9.1 4.1 19.1 3.9 10.1-.2 18.4-4.65 8.25-4.45 13.6-12.55l1.4.8q-5.55 8.4-14.3 13.15-8.8 4.75-19.25 4.95-9.75.2-18.65-3.65-8.4-3.65-14.9-10.25-1.9-1.9-1.6-3.15.3-1.35 3-2.75 9.45-4.9 23.1-8.75"/><path fill="#0d131a" d="M49.8 128.45q7.25-2.8 20.15-6.2 10.8-2.85 13.1-3.1l.1 1.3q-1.5.15-10.9 2.6-10.65 2.8-19.7 5.6-2.7.85-4.15.9t1.4-1.1m153.25 10.45q16 6.4 18.85 8.45l1.55 1.6q.3.8-.55 1.8-7.85 9.2-22.3 10.7-9.2 1-18.1-2.55-10.15-4-17.15-12.95l1.55-1.2q7.7 9.8 18.35 13.3 7.4 2.45 15.3 1.6 7.05-.75 13-3.8 5.45-2.85 7.55-6.25-8.3-4.85-22.45-10.65-14.05-5.7-19.8-6.65l-1-1.45q7.3.9 25.2 8.05"/><path fill="#0d131a" d="m174.65 138.65 2.25-.7q4.55.85 10.7 2.95 7.8 2.65 13.55 5.9 3.05 1.75 2.75 2.2-.25.5-3.1-1.15-2.8-1.65-12.55-5.05-9.7-3.45-13.6-4.15m-63.1 95.55q-2.65-1.25-11.8 2.65-9.9 4.25-18.15 10.95-6.25 5.1-11.2 16.75-4.6 10.8-5.7 21.2-.3 2.6-7.65 6.35-5.15 2.6-16.6 7.05-.25.1.15-.55l1.15-2.35q9.05-3.5 13.2-5.5 7.3-3.5 7.6-5.55 1.6-11.1 6.2-21.8 5.15-11.85 11.6-17.1 6-4.85 14.1-9.1 8.95-4.7 14.3-5.15l4.05-.35q2.45-.1-.3 1.15 8.2 3.75 13.1 8.95t5.55 10.95q.9 7.6-4.8 19.95-1.9 4.05-1.9 4.75l.05.1q2.9 3.25 8.35 8.05 7.05 6.15 12.9 9.7 0 1.75.85 3.4-6.75-3.85-14.85-11.15-5.4-4.8-8.55-8.35-.8-.9-.4-2.8.35-1.65 1.7-4.6 2.55-5.45 3.5-8.55 1.75-5.65 1.2-10.25-.65-5.25-5.3-10.25-4.7-5.05-12.35-8.55m25.85-50.05 1.05-.3q1.25 8.5.75 20.9-.5 13.3-2.8 21 1.2 2 8.4 11.25 5.4 6.95 5.65 9.7.45 4.3.3 11.45l-.3 7.55q4.5 3.3 8.75 7.1 7.1 6.35 9.9 10.95l-4.2-2.3q-5.4-6.65-14.7-13.55l-.5.85q-.55.2-.95-3.1l-.1-7.5q-.05-7-.65-10.95-.35-2.45-4.85-8.8l-7.55-11.15q-.85 1.6-1.45 1.2t.15-2.65q2.4-7.35 3.1-18.4.6-9.35 0-23.25M91.05 194.8q4.75-10.7 5.85-16.65l1.45-.1q-.65 5.3-5 16-4.5 10.85-9.1 18.05-1.6 2.5-8.4 10.55l-8.1 9.6q-4.45 5.8-14.2 21.15-8.35 13.25-9.25 13.8l-9.35 5.15q-11.7 6.3-14.35 8.25l-3.1.2q2.8-2.95 14.2-9l12-6.45q.75-.45 8.4-12.85 9.05-14.75 13.45-20.85 1.15-1.6 8.45-10.2l8.5-10.55q3.95-5.7 8.55-16.1"/><path fill="#0d131a" d="m170.6 296.65-2.45-3.25 7.2 3.25q-1.1-3.1-3.65-6.9-2.9-4.3-6.25-7.4-.6-.55-1.35.65-.8 1.3-1 3.3l-1.55-2q1.25-4.5 4.3-4.05 2.35 1.65 4.95 4.85 3.7 4.5 5.65 9.65 1.05 2.7.6 3.4l-2.4-.15z"/><path fill="#0d131a" d="M159.75 284.8q-.6-.1-2 1.35-1.5 1.55-2.35 3.45l-1.3-1.65q1.55-3.2 3.8-4.4l3.6.1q2.25 2 7.15 8.2 6.7 8.45 7.6 12.8.4 2 .05 2.45l-1.9-.2-11.8-5.9-1.5-3 12.65 6.05q-.9-3.55-6.65-11.35-5.7-7.65-7.35-7.9"/><path fill="#0d131a" d="M148 288.3q1.9-1.85 3.8-2.2 1.45-.25 2 .3 3.25 3.4 7 8.75 5.55 7.85 6.55 12.9.4 2.05-.05 2.6-.55.55-2.45-.6l-9.25-5.35q-7.6-4.45-10.5-6.85-.85-1.4-.1-4.25.8-3.1 3-5.3m4.65-.25q-.9-1.25-3.35 1.7-2.55 3.1-1.95 6.65l8.85 6.2q5.6 3.65 8.65 5.15-1-3.5-5.65-10.7-4-6.1-6.55-9m-134 3.45q-5.6 1.7-10.9 1.85-1.8 0-2.05-.45t.75-2.1q2.9-4.75 7.5-8.45 4-3.2 5.4-3.05l1.3.2q1.4.3 2.2 1.1 1.6 1.75 1.6 5.15zm-10.5.15q4-.35 8.8-1.65 5-1.3 5.45-2.3l.1-1.8q0-2.65-1.05-3.9-.45-.5-1.15-.65-1.7-.05-6.4 3.95t-5.75 6.35"/><path fill="#0d131a" d="M19.75 288.25q5.5-4.95 7.2-5.3 1.25-.2 3.2 1.25 2.6 1.85 3.2 5.15l-1.85 2.05q-.05-2.35-1.45-4.5-1.35-2-2.4-2-1.6-.05-8.15 6.45-6.65 6.55-7.8 9.7 10.4-2.45 16.9-6.3l-3.15 3.8q-6.1 2.75-14.75 4.6-1.45.35-1.7 0-.25-.3.4-1.7 3.35-6.85 10.35-13.2"/><path fill="#0d131a" d="M28.8 293.5q4.65-5.15 6.45-6.05l2.4-.05q1.65.45 3.2 2.1t2.15 4.35q.6 2.45.05 3.35l-.5.9q-3.3 2.45-10.6 5.95-6 2.9-9.2 4-2.35.85-3 .6-.6-.25.1-1.75 2.95-6.65 8.95-13.4m6.8-4q-.95.2-6.7 7.05-6.05 7.2-7.35 10.3l9.6-4.25q6.7-3.3 9.8-5.5.15-1.25-1.15-4.25-1.65-3.85-4.2-3.35m147.8-85.3 3.15.95-.55 1.2q-3.95-1.8-6.8-1.9 2.55 3.85 4.35 11.65.4 1.75 0 2.15l-2.2-.2-6.05-1.45-4.25-.9-1.5-2.1q11.95 3.15 11.95 2.95 0-2.7-1.5-7.1-1.35-3.95-2.4-5.35-.75-1.05-.3-1.25l1.8.15z"/><path fill="#0d131a" d="m139.6 183.8.85-1.15 22.75 23.1q18.75 19.1 19.75 21.5 1.65 4.05 2.45 9.85.85 6 .6 12.25 9.3-5.2 10.8-13.1 1.3-6.95-3.55-13.6-.95-1.35-.9-2.05.1-.7 1.8 1.5 4.05 5.15 4.7 10.65.65 5.25-1.95 9.3 1.15 9.95 1.65 12.3 7.45-6.2 9.05-14.5.8-4.15-.45-7.7-.45-1.2-2.85-5.65-.9-1.7-.55-1.75.35-.1 1.55 1.35 4.4 5.45 4.7 11.3.35 6.05-3.9 11.7 2.9-.55 5.4-4.05 2.6-3.6 2.6-7.4 0-4.65-5.6-11-5.35-6.15-31.15-26.55l-25.9-20.15.85-.85 26.2 19.85q26.05 20.15 31.5 26.4 5.95 6.85 5.95 12.55 0 4.3-2.6 7.75-2.95 3.9-8.4 5.5-5.95 5.05-6.75 4.95-1.05-.1-3.3-11.5-1.25 1.55-4.3 3.8l-4.7 2.95q-1.55.65-1.85.25-.2-.3 0-2.2.55-4.85-.25-11.3-.75-6.4-2.35-10.25-.85-2.2-19.35-21.1zm-93.8 5.45q11.15-6.45 21.7-11.85 10.75-5.55 16.75-7.85l1.15 1.15q-9.8 3.75-29.15 14.45-19.8 10.95-31.45 19.15-12.9 9.1-17.85 14.15-4.55 4.55-4.65 8.1l-.05.95q0 8.1 4.15 15.55l2.85-6.45q-3.55-7.4-1.05-14.3 2.2-6.15 8.65-10.7 2-1.45 2.35-1.35.4.05-1.55 1.75-7.55 6.75-8.45 14.25-.5 4.2 2.9 11.5 3 6.45 7.15 11.65l2.7-12.9q-2.85-6.2-1.05-10.65 1.85-4.6 10.6-12.6 1.8-1.65 2.35-1.5.6.15-1.9 2.65l-5.45 5.75q-3.05 3.6-3.85 6.85-1 3.8 1.25 8.6 2.45 5.15 7.8 9.35-.1-6.35.85-10.4.9-3.85 2.9-6.15 9.4-10.8 27.9-27.65 20-18.2 31.1-25.3l.6 1.5q-13.15 8.4-35.5 29.75-20.4 19.5-23.4 24.8-1.2 2.2-2 6.3-.75 3.9-.95 8.55-.05.9-.8.75-.7-.2-2.55-1.4-2.95-2-6.3-6.85-.75 1.85-2.25 8.8-.45 3.55-1.25 4.05-.95.5-3.1-2.2-3.3-4-6.45-9.9L8 244.5q-.9 1.85-1.95 1.25-.6-.35-1.9-2.25-1.65-2.5-2.85-6.75-1.45-5.1-1.3-10.05.15-4.3 5.2-9.4 4.9-4.85 18.25-14.3 5.45-3.85 22.35-13.75"/><path fill="#0d131a" d="m40.45 193.65-.25-.85q5.45-2.5 5.8-2.5l.65.1q.45.35-.7 1.65-1.85 2.1-8.85 11.5 3.2-1.5 7-3.05 4.25-1.8 5.9-2.2 1.05-.25 1.15.35l-.25 1.75q-1.8 10.4-1.15 14.9l-1.6 1.4q-.1-.55.45-7.65l.8-8.8q-2.55.4-14.3 5.7l-1.45.45q-.25-.15.65-1.45l4.15-5.35 5.35-6.85zm35.5-32.5q-.7-1.25-.55-1.85t1.2-1.3q7.1-4.6 14.35-6.85 8.05-2.55 14.8-1.8l1.25 1.2q-8.2-.9-18.4 3.05-7.45 2.9-11.7 6.2 1.05 4.05 12.5 12.05 13.05 9.1 24.85 11.1 11.9 2 24.1-.15 12.05-2.15 17.8-7.1-6.25-10.85-18.1-16.65l.8-1.05q6.6 3.05 11.3 7.35 4.25 4 7.45 9.55.65 1.1.5 1.45l-1.55 1.3q-7.9 5.2-20.25 7-11.6 1.75-22.35-.15-12.25-2.1-24.15-10.15-10.25-6.95-13.85-13.2"/><path fill="#0d131a" d="m128.75 158.9.9-.35q4 3.95 7.2 10.55 3.35 6.95 4.6 14.3l-1.4.3q-1.2-7.25-4.4-14.2-3.15-6.85-6.9-10.6m-35.2 16.9q2.5-4.4 10.7-12.2 8.4-8.05 11.55-8.7l1.15.6q-2.6.55-10.55 8.2-7.65 7.35-11.15 12.3zm122.1-109.4.25 3.1q-.1 1.35-.8 3.35-4.2 11.7-14.25 27.4-5 7.85-9.3 13.5l-2.4-.7q4.45-5.15 9.75-13.15 10.55-15.9 15.25-30.55Q209.6 41 189.05 23.3 168.9 5.95 138 2.9q-15.2-1.5-31.35 2.9Q91.1 10 77.2 18.95q-13.95 8.9-23.7 20.9-10.15 12.45-14.05 26.1 3.6 3.85 23.2 22.55l22.1 20.75-2.6.75L60.5 89.75l-21.7-20.8q-1.2-1.25-1.4-2.55-.15-1.2.5-3.05 10.95-30.1 40.2-48.2Q106.95-2.65 138.25.4q32.7 3.25 53.75 22.3 19.55 17.7 23.65 43.7"/><path fill="#0d131a" d="M84.05 57.35 104.1 92.5l-1.9-.15-20.05-34.7Q65 27.85 63.95 27.1l1.8-.8q1.1.8 18.3 31.05m39.1-55.2 2.5-.85q1.2 6.55 5.3 37.6 4.2 31.85 5.2 42.8l-1.55.35q-.9-10.2-5.65-42.55-4.3-29.4-5.8-37.35m65.75 19.7 1.65 1.6q.3 5.8-10.05 37.65-5.2 16-10.6 31.2l-1.25-.45Q174.3 76.15 181 53.9q8.2-27.05 7.9-32.05m23.5 35.3.65 2.8q-2.4 10.35-12.8 27.75-10.05 16.75-17.9 24.35h-1.75q7.55-7.3 18.4-25.85 11.1-18.95 13.4-29.05"/><path fill="#0d131a" d="M163.25 62.95q.95 1.7 3.05 10.85 2.35 10.25 3.1 17.95 3.3-1.55 7.75-2.95 5.65-1.7 8.95-1.75 2.4-.1 2.4 2.1 0 1.7-2.2 8.95-2.6 8.3-5.25 13.55l5.6.45q3.75.4 4.8.9 2.15 1 2.25 1.75.1.9-1.95 3.25-1.7 2-7.15 6.45l-6.85 5.35q-.15.55-1.2-1.5 3.65-2.55 9.45-7.55l6.05-5.6q-2.05-.9-5.9-1.35l-4.7-.3q-3.15 0-2.2-1.65 8-19.55 7.6-23.25-8.55.65-17.4 4.85-1.4.5-1.6-.75l-2.4-13.55q-2.6-13.2-4.4-16.15-4.4 2.75-14.05 10.9-6.65 5.6-10.2 8.85l-1.35.9q-.75.1-2-1.05l-10-8.65q-9.5-7.65-14.3-8.95-.85 1.65-2.15 11.2-1.1 8.5-1.7 16.35-.1 1.05-.65 1.2l-1.7-.15-9.6-2.1-10.25-1.3q1.45 6 3 10.75 1.7 5.2 2.85 6.65 3.6 0 3.4.4t-3.3.9q-4.65.8-7.95 2.45-2.75 1.45-3 2.45-.1 1 4.05 4.8 4.35 3.95 8.2 6.15 3.1 1.75 3.25 2.25.15.45-2.05-.35 3.45 11.65 12.2 19.6 10.45 9.55 26.4 11.4 8.15.9 17.9-2.85 10.65-4.1 20.1-12.7l4.75-3.9q.9-.55-1.3 2.5-7.4 8.7-18.4 13.9-11.9 5.6-22.95 4.5-15.5-1.45-26.55-10.95-9.5-8.2-13.95-20.55l-.8-2.05q-2.5-1.25-6.4-4.55-3.35-2.9-5.25-5.1-1.25-1.45-1.15-2.45t1.6-2.15q1.25-.95 4.25-2l4.75-1.4q-3-8.1-4.85-15.2-.7-2.55-.35-3.55.3-1.05 2-.9L94 89.7l9.35 1.95 1.45-12.9q1.45-11.3 1.9-12.85.75-2.3 1.55-2.65 1.05-.4 3.8 1 8.3 4.3 23.45 17.45l10.45-9.7q8.7-7.75 12.8-9.85 1.65-.9 2.65-.75 1.1.15 1.85 1.55"/><path fill="#0d131a" d="M151 106.8q1.1 4.3-.2 9.85-1.2 5.3-4.45 8.1-2.95 2.6-6 1.9-2.5-.55-3.6-3.95-1.25-3.75.05-9.2 1.3-5.55 4.3-8.95t5.9-2.7 4 4.95m-1.35 1.25q-.8-3.8-3.05-4.35-2.2-.5-4.65 2.55-2.4 3.05-3.55 7.75-.7 3.2-.7 5.45 0 2.8.95 4.35.8 1.25 2.1 1.55 2.45.55 4.9-1.7 2.65-2.5 3.7-7.05 1.15-4.75.3-8.55m-1.9 29.75q1.25 1.3 3.6 1.8l5-.15q2.75-.85 4.75-3.2 2.8-3.4 3.5-9.35-11.3 3.4-16.85 10.9m17.35-12.7 3.9-.35q.25.35-2.7 1.9 0 6.5-3.6 10.45-2.55 2.7-6 3.6-4.9 1.2-9.85-1.9-1.35 1.2-1.5.85-.15-.3.95-2.15 2.6-4.25 8.6-8 5.5-3.45 10.2-4.4m-60.2-12.85q-.9 3.15-.9 6.1 0 4 1.6 7.3t4.6 5.5q3.2 2.3 7 2.65 3.75.3 6.65-1.45-3-4.95-9.65-11.85-6.1-6.3-9.3-8.25m20.45 19.95q.95 1.85.75 2.1-.2.2-1.55-1.1-3.25 2.3-7.55 1.95-4.25-.3-8.05-3.05-4.75-3.45-6.2-8.65-1.5-5.4.85-12.05-2.6-2.9-2.35-3.1.25-.25 3.45 1.9 6.05 4 13.1 12 5.85 6.65 7.55 10"/><path fill="#0d131a" d="M148.7 96.4q.8-1.9 1.1-2t-.15 2.3l-1.4 6.4-1.95-.6zm-12.3 5.3q-.45-1.3-.3-1.9.2-.65.85.5l1.6 3.1 2 3.65-1.15 1.6q-1.8-3.45-3-6.95m14.2 7.65 5.1-2.45q2.3-1.2 2.25-.75 0 .4-1.6 1.6l-2.95 1.9-2.6 1.4zm14 21.3 3.95-.25 1.3.1-.75.5-4.9 1.6zm-2.55 5.1 4.75-.15q1.3 0 1.2.3-.15.3-1.45.6l-5.05 1.1zM99.2 115.5l-.9-.85 1.15.1q1.6.45 3.8 1.75l-.2 1.65zm.2 6.5-.95-.95q-.1-.35 1.4.3l4 1.65.55 2.3zm57.1 7.95 1.4-1.2q.5 1.8-.2 5.1-.75 3.5-2.1 5.2-1.2 1.55-2.75 1.55-1.15-.1-1.8-1-.75-1-.8-2.85-.05-1.4.2-2.6l1.05-1.35q-.2.95-.05 3.05.15 2.3.65 3 .3.4.8.4.85.1 1.7-1 1.2-1.5 1.75-4.3.5-2.55.15-4m-42.7-10.05 1.25.35q-1.4 5-1.3 8.65.1 3.2 1.3 4.3.65.5 1.35.25 1.05-.4 1.9-2.15.95-2 1.25-4.95l1.3.1q-.3 3.25-1.35 5.45-1.1 2.2-2.65 2.8-1.45.55-2.65-.55-1.5-1.3-1.75-4.65-.3-4 1.35-9.6"/><path fill="#0d131a" d="M153.3 134.2q.25-1 .65-1.6t.7-.5.35.85l-.25 1.7q-.75 2.35-1.35 2.1-.3-.1-.35-.85zm-37.65-8.05q.2-1.3.6-2.05.45-.8.9-.65t.65 1.15q.2.95.05 2.25l-.65 2.05q-.45.8-.9.65t-.65-1.15 0-2.25m26.85 25.05.25 1.25q-.7.15-6.1 2.25-5 2.05-7.6 2.25-1.55.1-3-2.05-.95-1.4-2.25-4.6l1.25-.5q2.45 6.25 4.1 6.15.9-.05 7-2.45 5.05-2.05 6.35-2.3"/><path fill="#0d131a" d="M126.5 149.05q-.2.45.35 1.1l-1.65.05-.15-1.05zm2.9.2q1.95.6 3.75 1.95 1.8 1.3 2.7 2.8l-.8.6q-.7-1.25-2.5-2.5t-3.7-1.8q.55-.45.55-1.05"/><path fill="#0d131a" d="M122.4 145.45q2.8 2 6 2.15l7.1.7q5.15.65 7.7 1.4 3.3 1 5.2.7 1.6-.3 3.35-1.9 1.35-1.3 1.35-.85l-.6 1.3q-3.05 4.35-9.9 1.8-2.15-.8-7.35-1.3l-6.85-.55q-4.3-.55-6.6-2.2-1.65-1.15-3.05-3.65-.4-.7-.3-1.2.15-.55.85.45 1.25 1.8 3.1 3.15"/><path fill="#0d131a" d="m125.6 147.9 1.1.15q.55 2.5.65 2.6l1.7-2.25 1.35.2q-2.1 3.3-3.2 3.25-.65-.05-1.6-3.95"/><path fill="#0d131a" d="m125.35 147.75 1.15.65-2.15 2.85q-1.1 1.15-1.6 1.05-.65-.15-1.2-1.85-.6-1.95-.8-5l1.3-.1q.3 4.7 1.05 5.45.45-.1 2.25-3.05m16.5 2.5 1.3-.1v.1q.15 2.4.4 2.7l1.35-2 1.15.65q-.75 1.35-1.6 2.1-.75.65-1.25.55-.45-.1-.85-1.35-.4-1.15-.5-2.55z"/><path fill="#0d131a" d="m150.05 150.15 1.65-.35q-1.05 2.55-2.35 4.4-1.35 1.85-2.05 1.75-1.45-.25-2.2-5l1.3-.15q.5 3.2 1.1 3.55.75-.05 2.55-4.2m25.15-22.9q-.6-1.05-.25-1.15.35-.15 1.25.9l3.05 4.5q2.1 3.55 1.8 4.3t-5.2 3.7l-7.25 4.05q-1.8.95-.9-.35.9-1.25 2.1-2 8.75-5.3 8.95-6.15.25-.95-3.55-7.8m-36.25 17.4-.3.25-.95.1q-1.2-.15-1.2-.6 0-.5 1.3-.35l.9.3z"/></svg>