<svg xmlns="http://www.w3.org/2000/svg" width="597" height="467" viewBox="0 -0.75 596.5 467.3"><path fill="#b94100" d="m427.35 286.6 11 4.75 1.55 11.9-3.1-.95z"/><path fill="#5f5264" d="M530.2 192.4q3.9 1.05 11.6 4.15 8.2 3.3 11.1 5.15l5.2 9.55-8-3.05q-2.95 2-8.05 6.35-6.55 5.7-10.15 10.1 1.35 4.55 6.05 15 4.85 10.75 8.45 17.05l12.8 6.95-9.3 2.35-2.2 5.65 3.7 35.75 5.85 4.95q-8.65 2.15-12.15 3.25l-5.75.45q-2.85-.3-7.2-1.55l-18.8-4.6-23.65-5.75q-7.35-1.9-12.2-6.15-4.7-5-7.5-7.3-8.6-3.25-21.05-5.55-13.45-2.5-25.1-2.65l3.5 4.1 9.45 15.7 3.1.95 7.8 3.25-6.3 31q-1.85 2.6-7.5 5.15-5.25 2.35-9.6 2.85l17.55 8.85 22.5 7.15 1.5 3.5-7.1 21.65q-1.6 1.25-7.15 4.3l-26.85 12.55q-5.8 2.75-9.95 2.55-2.4-.15-6.55-1.9-6.05-2.5-17.65-5.3-12.6-3-26.05-4.85l-12.15-7.6 1.5-14.95 3.05-5.8-7.9-2.15q-4-1.3-5.95-2.2l-5.65 5.2q-8.1 4.95-41.55 9.5l-3.05-2.35q-14.4 6.8-33.85 8.75-13.65 1.35-32.4.35-4.15 4.55-8.9 8.45 4.45 3.8 7.45 11.15 1.7 4.2 4.5 12.65 2.15 5.25.65 10-.85 2.65-3.9 6.9-2.15 2.95-8.9 10.55l-12.35 13.25-14.95 6.95-7.55-2.6-21.9-6.3-24-9.1q-4.7 0-11.7-2.8l-11.5-27.05q.75-4.8 3.65-8.05 2.2-2.4 5.25-3.65l16.9-8.05q3.95-1.9 7.4-5.75 2.3-2.6 6.45-8.75-6.75-5.35-11.05-10.4l-9.75-2.35-8 11.25q-6.65 2.4-21.05 6.75-15.05 4.5-24 6.7-9.2-1.15-48.3-10.85-8.75-6.3-21-18.2l-4.2-16.6L1.2 328.4q-.2-5.2 1.25-17.05 1.45-12.25 3.5-21.75 11.15-4.45 23.8-12.3 12.6-8.25 16.7-10.85l11.65.6q9.5.4 14.55.25-6.1-8.95-7.05-10.8-3.5-6.65-4.65-15.4-1.6-12.3-2.4-27.6-1-19.75-.4-40.6 2.3-5.55 8.2-14.3-.4-8.4.6-28.2.75-14.45 1.6-24.2.45-5.05 2.6-9 1.35-2.55 4.55-6.15 14.6-16.6 29.55-36.65Q117.2 38.3 132 16.35l8.65.6q5.2.6 8.65 1.55.85 15.3.65 19.95-1.9 8.75-2.7 25.25-.55 11.3-.75 31.05l9.95 10.8 2.15 4.55 6.3-11.45q2.1-3.85 4.55-6.3 2.9-2.8 7.35-4.95 7.25-3.5 18.85-6.95 8.15-2.4 21.85-5.65l3.9.65v-6.7q1.8-5.8 6.25-14.35 4.35-8.45 8.5-14.2 2.7-3.85 12.3-4.55l.9-10.2q20.4-15 50.1-17.8 24.4-2.3 48.65 3.75l15.8 6.7q7.65 3.85 17 11.7 7.95 6.65 13.75 13.2l.2 9.95q4.1-.15 6.05.7 1.25.6 2.6 2.35 2.35 2.95 3.25 11.45 3.2 10 2.1 16.75-.4 2.3-1.4 4.85l-1.55 3.75.2 2.15q16.85 11.95 22.2 29.8 4.45 14.85 1.2 35.6l-5 5.85 1.75 1.5-3.05 14.95 19.7 6.3 6.5 9.5q3 1.25 17.1 3.5l15.4-8.45 22.6-1.45q16.15-.3 25.7.35"/><path fill="#c9cfd7" d="M364.55 1.8q.7.8.55 5.85-.35 11.25-3.1 23.9-2.05 9.55-4.35 15.5-1.55 4.1-6.15 5.75-4.15 1.5-9.75.8-4.8-.55-9.8-5.2-4.35-4.05-6.1-8.3-1.45-3.6-.8-6.25.65-2.5 3.35-4.9l15.9-13.45q9.3-7.7 14.5-11.6 4.65-3.45 5.75-2.1m-38 90q-2.35-14.2 5.65-22.85 6.9-7.45 17.85-7.9 8.45-.35 22.65 1.55 11.25 1.5 16.55 2.85 3.2.8 3.4 2.65.1 1-1.35 4.8-2.35 6-8.45 16.9-5.85 10.4-10.35 16.9-3.95 5.7-10.1 7.95-4.95 1.8-10.5 1.2-7.65-.85-13.4-4.55-9.8-6.3-11.95-19.5m33.9 94.1q-6.3 6.8-15.55 9.85-9.1 2.95-19.35 1.65-20-2.55-34.1-18.9-12.5-14.5-21.35-41.1 24.85 16.8 56.7 16.35 12.7-.15 24.3-3.15 10.45-2.75 17.1-6.9 6.5 26.65-7.75 42.2M191.85 129q4.6 13.8 5.5 18.35-3 3.6-12.95 12.15-9.35 7.95-13 10.4-2.75 1.75-12.6 5.45l-12.95 4.7q-4.25 1.55-6.35 1.2-3-.5-5.35-4.65t-5.45-13.25q-2.7-8.05-3.65-12.75-.75-3.7.85-6.05 1.15-1.8 4.55-3.7 12.95-7.2 32.05-12.4 12.55-3.45 20.6-4.5 3.65-.5 5.75.8 2 1.2 3 4.25M82.2 166.85q2.15-.85 7.75-1.1 6.3-.2 24.25 6.75 5.1 1.95 6.6 4.6 1.55 2.65 1.85 10.1 0 7.05-1.3 18.65-1.3 11.8-3.25 21.65l-8.2 10.35 9.5-.4q3.7 9.3 6.2 22.15 2.45 12.5 3.15 25.05l-8.7 31.8q-1.1 4.15-6.3 5.6l-9.05 1.35-6.8-.3q-2.85-1-4.9-4.05-3.2-4.7-7.5-12.1-5.7-9.8-7.65-15.15-.3-5.4.5-18.45.75-11.3 1.85-21.85l-8.2-2.15q-2.35-8.5-3.45-28.2-.95-18.3 0-22.7 1-4.6 8.65-26.2 1.45-4.05 5-5.4m386.85 64.1-.15-11.7q-.15-4.05 1.1-6.2 1.25-2.2 5.1-4.3 3.6-2 13.8-3.4l16.3-1.25q5 3.85 11.1 13.7 3.95 6.4 7.75 14.25-1.55 9.1-4 12.5-1.6 2.15-5.25 3.3-2.9.95-10.05 1.9l-14 1.3q-17.15-15-21.7-20.1m105.3-6.7q5.05 4.8 15 15.95 3.35 3.85 4.65 7.9l1.05 6q.5 5 0 18.3-4.15 2.45-11.6 5.35 7.4 9.85 11.05 25.8 0 7-3.75 22.95l-16.9-.55-10.45-8.8-12.5-10.55q-2.65-27.05-3.2-35.4l3.05-5.9 6.9-2.15-6-3.5-5.75-3.25q-2.8-4.75-7.3-14.95-5.25-11.7-6.55-17.25 3.25-4.15 8.75-8.9 5.2-4.5 9.95-7.45 10.65 4.1 23.6 16.4M458.6 364.7q3.25-1.35 6.4-.05 2.95 1.25 8 4.1 5.7 3.3 8.7 5.75 2.95 2.5 2.3 4-.5 1.1-3.85 2.6-3.15 1.4-8.05 2.85l-9.05 2.05q-7.25 1-9.75-3.45-2.2-3.9-.3-10.65 1.5-5.45 5.6-7.2m-40.9 24q2-7.4 8.75-8.95 4.95-1.15 8.9.7 2.3 1.1 7.5 4.5 4.7 3.05 8.75 6 3.25 2.4 1.85 4.65-1 1.65-4.35 2.95-7.65 2.95-21.35 4.65-6.4.8-9.1-4.85-2.3-4.7-.95-9.65m-253 54.55q1.95-4.3 5.9-10.65 3.65-5.8 10.8-5.4 6.4.35 10.15 4.5 3.35 3.75 4.15 9.4.8 5.4-1 10.05-1.55 3.95-9.65 7.35-3.6 1.5-14.05 4.65-6.1 1.85-8.75-1.1-2.55-2.8-1-8.8 1.5-5.7 3.45-10m-36.4-31.6q7.65 2.9 9.7 10.85 1.55 6.15-1.15 11.6-2.35 4.8-6.1 6.15-3.2 1.15-9.55 2.4l-11.1 1.7q-4.65.45-6.2-2.85-1.35-2.95.25-7.15 5.65-14.7 10.8-20 5.5-5.65 13.35-2.7"/><path fill="#fff" d="M272.65 86.75q.7-3.4 2.55-9 1.6-5 3.1-8.7l13.8 8.55 7.5 7.5q6.45 6.85 10.35 12.2-10.55.05-22-3.75-8.35-2.75-15.3-6.8m123.7-6.5q1.05 2.7 1.4 7 .25 3.45 0 5.85-6.2 3.1-20.65 6.6 2.55-3.8 8.1-14.5 2.3-1.25 11.15-4.95"/><path fill="#e50044" d="m287.8 75 4.6 2.95 6.6 7.25q-.65 3.2-3.2 5-2.1 1.5-4.1 1.3-5.6-.45-6.75-6.1-1.1-5.5 2.85-10.4m101.45 8.45q0 7.75-3.1 10.7-1.45 1.35-3 1.5l-3.3-.4 5.8-10.6z"/><path fill="#b94100" d="m349.15 11.65-2.65 2.3q-7.25-1-21.5-.5-13.25.5-17.55 1.55-3.7.85-15.85 4.8-11.8 3.75-18.3 6.1l-11.75.8q-7.85.25-11.8-.1 16.1-16.1 52.85-18.9 14.2-1.1 27.8.2 12.5 1.2 18.75 3.75m-88.85 37.1L240.6 69.7q-3.75.3-9.95-.2-6.5-.5-9.05-1.4 3.05-7.75 7.15-15.55 4.35-8.4 8.15-13.45l12.75.45 9.6.75zm10.55 15.85.35-9.35 13.55-10.55q6 2.55 15.5 9.8 9.55 7.3 12.3 11.5 2.5 4.55 4.95 13.4l3.65 14.4q-1.2 1.2-3.8 2.9-2.75 1.75-5.35 2.9-4.8-5.85-10.8-12.35-5.8-6.3-9.6-9.8-3.35-2.4-7.5-5zm121.75 5.8q1.15-3-3.35-4.95-3.1-1.3-10.9-2.25.85-1 2.85-2.85 2.15-2 3.65-3.15l3.65-2.7q2.15-1.35 3.75-1.35 2.55 0 5.8 3.4 2.45 2.55 4.2 5.75l1.95 4.2q.6 1.95.35 3.7l-3 8.1-16.35 6.9q5.35-9.6 7.4-14.8m-175.1 4.4q2.1.2 11.05 2.85t12.35 4.1q3.55 5.5 9.7 18.4 5.9 12.45 7.6 17.75-10 5.3-23.85 10.15-15.85 5.55-28.1 7.2-16.7-23.2-22.3-33.8l8.85-19.9q17.2-4.9 24.7-6.75m10.6 88.8v-16.65l28.4-11.05 15.55 14.05 1.75 32.5-25.75 9.1zm173.25-26.65-1.5-17.5 2.6-10q2.3-1.6 4.5-4.75 0-4-.85-9.75 15.45 10.3 21.7 28.05 6.15 17.5 1.7 37.35zM394 191.1q-.4-4.3-.15-13.7.3-10.35 1.2-15.3l9.55-9.1 21.2 14.05q-.65 5.8-1.9 11.7-1.3 6.2-2.4 8.25-2.7 4.85-12.35 13.65z"/><path fill="#b94100" d="m423.2 182.65 20.35 6.05-10.15 6.3-8 .2-3.25-8.85zm15.15 22.95q1.25 14.45 1.6 33.3.2 13.55-.05 20.85-.2 4.6-1.45 7.55-1.45 3.5-4.65 5.65-3.2 2.2-10.6 5.65-6.9 3.3-12.1 5.2l-3.45 5.55-3.9 5.25q-3.95 3.05-14.3 6.75-9.4 3.4-15.6 4.5l-10.2-5.6q-2.25 2.6-6.65 6.2-4.45 3.6-7.2 5.05-8.45 2.7-27.2 4-16.55 1.1-30.6.55l-9.8-8.2-9.5-7.6-14.7 9.3q-8.6-.8-28.45-6.1-18.6-4.95-28.05-8.65l-7.4-9.7-8.05 1.7-10.55 1.5L143 271q6.45-6.75 10.25-16.1 2.7-6.6 3.65-13.15.8-5.8 2.2-12.25 1.8-7.95 3.4-11.35 1.6-3.3 2.9-12.25 1-7.25 1.2-12.65 3.55 2 14.25 6.35 10.05 4.1 15.85 6l13.65 14.5q2.15-.3 8.2-2.5 5.6-2.1 8.5-3.55l43.7 6.05 11.95 11.25 17.1-13.2h57.15l14.75 13 9.5-12.35 26.85-6.25 9.95 5.6.25-4.55q1.3-.95 3.3-3.1l3.6-4.25q1.4-1.8 1.2-5.15l-.75-5zM137.1 302.1q6 4.15 13.95 8.1.5 7.35-.2 24.75-.7 15.65-1.55 23.65-3.95 3.25-8.9 4.15l-7.5-.35q-5.35-1.85-12.05-7.7-5.25-4.55-10.3-10.6l-1.15-9.05-1.5-11.85 6.45-1.3q4.65-.85 6.15-7.3 1.45-6.6 5.85-22.8 2.65 4.7 10.75 10.3m29.9 23.15 7.3-5.45 7.45-4.9q5.35-.6 18 3.05 9.55 2.75 17.95 6.15 2.8 9.1 5.85 33.45-1.6 3.5-8.1 11.1-6.15 7.2-12.35 13.05-5.8-.3-18.4-2.7-11.35-2.2-18.15-4.05-1.2-7.3-1.05-23.65.2-16.25 1.5-26.05m167.75 0 21.7.9q.85 1.85 1.45 6.6.6 4.4.45 6.85-1.4 4.4-8.95 13.45l-11.95 13.45q-4.95 3.3-19.1 6.1-12.25 2.45-23.15 3.1-5.5-3.7-13.3-10.4 3.9-8.15 9.95-25.4 3.55-2.85 10.55-7.3 5.65-3.55 10.35-6.15 5.9-1.45 22-1.2m110.2-3.5q-2.1 9.4-4.1 15.6-4.9 5.5-11.9 7.25-7.2 1.75-12.7-1.35l5.6-14.8 6.55-18 5.45-3.95q2.6-2.4 2.95-4.2l10.8 3.85q-.25 5-2.65 15.6m-339.9-228.2q6.4-5.2 10.8-8.2 4.25-.45 21.6 2.05 2.05 1.25 8.9 7.95l10.35 10.7q-4.1 5.45-20.9 16.3l-12.7.7-16.6-.7q-2.85-2.7-6.55-9.4-3.45-6.15-4.8-10.35 2.75-3.2 9.9-9.05"/><path fill="#504454" d="M145.2 361.1q12.95 11.1 31.6 16.4 26.25 7.4 55.65-.2-10.85 10.85-14.3 13.45 2.9 3.05 4.6 5.9 1.8 3.1 2.75 6.85.8 3.2 2.4 7.6l2.4 6.5q1.1 3.1.5 6.65-.7 4.1-3.55 7-2.35 2.35-6.75 7.45l-6.9 7.9q2.6-18.05-15.25-30.2-19.6-13.35-63.15-18.95 5.9-3.4 11.05-8.2 4.7-4.45 6.95-8.25-6.6-5.15-16.05-17.1l3.7-1.15z"/><path fill="#504454" d="M241.4 367.8q8.65-11.7 7.2-26 7.5 2.35 20.05 4.35 12.05 1.9 19.9 2.15l-3.3 9.45q-1.7 4.65-3 7.45l10.85 8.65q-11.4 5.5-28.35 8.1-19.15 2.9-38.35.8l7.25-6.45q4.75-4.45 7.75-8.5m141.55-34.2q-13.25 12.45-36.6 22.95l10.4-13.65q5.65-1.4 12.95-3.95 7.75-2.7 13.25-5.35"/><path fill="#504454" d="M363.9 347.65q9.1 3.2 25.4 1.75 14.3-1.25 27.85-5.3 4.2 1.85 8.65 1.15l8.6 5q5.9 3.25 9.4 4.55-8.4 2.5-19.15 8.55-8.05 4.55-15.1 9.65-5.4 3.95-7.3 12.65-2 8.9 1.05 16.55-5.5-1.8-19.15-4.35l-18.3-3.2-13-8.45.65-14.1 3.65-6.45q-8.25-1.65-14.25-4.35l3.45-4.75 8.25-3.95q5.35-2.6 9.3-4.95m92.35-115.45q10.15.75 13.95.25l21 19.05 10.95-1.45L515 247.6q3.4-.9 4.95-2.6 1-1.05 2.2-3.9 1.85-4.25 1.85-9.4l-1.95-3.9q5.9-1.2 9.85-3.35 1.75 5 6.5 15.75 5.15 11.8 8 16.75l11.5 6.25-7.8 2.4-2.6 5.85q2.35 20.35 3.25 35.7l6.7 5-12.55 3.05q-6.45 1.2-10.15.2l-44.4-10.85q-4.9-1.2-7-2.3-1.55-.8-4.05-3.1l-9.1-8.25q-9.9-3.8-22.5-5.95-9.2-1.55-23.85-2.7l-1.7-3 4.25-2.25 5.25-2.75q3.9-1.8 5.95-5.85 1.45-2.85 2.05-7.35.5-3.55.5-13.25t-.5-17.5zm-30.6-35.85-.15-2.15 8.05.55 10.55-5.65 3.45 6.15q2.6 4.6 3.65 7.15l-6.65 1.7-6.8 1.8q-1.55-1.8-5.35-4.8zm-57-52.9q5.8-3.1 9.75-6.5 4.6 31.65-6.95 47.05-10.15 13.55-32.45 14.05 22.15-5.85 28.55-24.6 4.35-12.8 1.1-30m19.25-4.3-.65-10.25 5.4-5.5q.8 1.45 3.25 4.2 2.3-2.8 3.85-7.15l1.65 17.05 28.1 22.4-4.9 6.2-19.95-13.35-10.25 9.75q-.95 10.8 0 28.6l14.65 9.9-6.85 5.2q-3-1.25-8.85-4.65-6-3.45-9-5.75 1.25-5.4 2-17.15l.75-16.45 8.3-13.15z"/><path fill="#504454" d="m390.5 118.5 2.2 3.95q-11.95 18.05-35.85 26-16.25 5.4-33.9 5.3-21.5-.15-39.9-8.85-16.25-7.65-25.4-19.4l.5-8.8-8.9-19.65q4.15 1.05 14.45.2 18.55 13.65 40.75 22.85 22.3 9.25 41.25 11.05 10.4 1 21.9-2.6 8.8-2.8 22.9-10.05M327.35 13.6q12.75-.15 19.45.15l-13.45 10.6q-33.35-2-53.7 12.6l-6.7-11.05q7.1-2.5 20.8-6.65 13.9-4.2 17.1-4.85zm67.05 28.95.9 10.4-5.45.45q-6.05-7.85-11.95-12.9-7-6-15.55-9.65l1.75-12.35q6.5 3.4 14.5 9.25 10.85 7.95 15.8 14.8M264.5 39.1q.15 2.6.75 6.05.6 3.5 1.4 6.05-2.85 4.45-9.4 12.85-6.9 8.85-12.05 14.65l-5.4 2.2q-2.1-.9-8.6-2.85l-9.6-3V68.3q8.05 2 19.1 1.1l19.45-20.8-.4-8.4z"/><path fill="#504454" d="M175.8 96.55q5.15 2.4 7.3 4.7l22.95 34q10.1-1.4 24.75-6.15 15.95-5.2 27.2-11.2l-1.1 17.55-28.15 11.25-.65 17.1 19.5 27.3 26.2-8.9-2.25 8.3q-1.55 4.65-2.75 6.45L248.7 203l-16.25-9.75q-3.85-4.85-10.35-15.05l-9.35-14.6 3.65-12.8-11.45.25-8.65-9.55-2.95-8.65-2.5-5.85q-2.15-4.35-10.8-2.8l-5.65-4.7q-4-3.05-6.5-4.4l-7.55 3.9-1-4.2-1.15-4.25 9.95-16.9q3.8 1.15 7.65 2.9m-3.4 72.85 4.2-3.3-5.55 16.9-3.65 4.7q-.45 8.25-1.75 16.75-1.45 9.6-3.2 14.05-3.8 9.8-5.55 23.3-.9 6.75-3.25 12.95-2.5 6.65-5.95 10.65l-8.95 9.9q-5.6 5.9-10.15 10.1 0-10.45-2.95-25.4-2.25-11.35-5.65-22.9l-10 .55 8.3-11.1q1-4 2.4-14.85 1.25-10.15 2.35-22.3 2-1.85 7.6-4.4 5.4-2.5 9.05-3.4 3.2.2 15.1-4.45 10.45-4.05 17.6-7.75M41.25 305.45l18.2-5.85 16.65 9.75 8.65-3.25 6.2 9.3q4.25 6.1 6.15 7.35l11.05.45q0 5.25 2.8 21.4 1.7 3.8 11.15 10.85 9.65 7.15 15.05 8.45l4.8 6.25-9.1-2.55-8.9 11.25L80.2 392.7l-49.55-10.6-20.8-19.05-2.8-11.95q3.2 1.9 14.8 5.85 9.85 3.35 16.6 5.2z"/><path fill="#922f00" d="M387.9 80.25q13.95-5.95 16.05-7.15l-2.15 4.95-16.7 7.15zM270.75 62.7q5.25 1.6 16.75 7.55l16.6 8.7 5.65-7.4.65-8q2.65 2.55 5.65 11.4 2.3 6.85 5.2 18.7l-4.5 3.45-4.6 2.6q-14.25-16.6-20.6-22.5l-10.2-6.25q-7.2-4.45-10.35-6.1zm117.4 233.85 17.3-5-1.05 3.05q-6.6 3.2-16.95 6.85-10.75 3.8-14.05 4l-9.5-5.2q-10.85 9.6-13 11.05-16.35 2.85-30.15 4.25-20.55 2-29.2-.15l-9.55-8q-6.55-5.4-9.3-6.75-3.1 1.5-7.45 4.3l-7.05 4.6Q246.45 308 227.6 303q-17.7-4.75-26.55-8.4l-6.5-9.3q-3.65.9-9.9 1.8l-8.95 1-3.25-2.15 6.35-1.4 5.35-1.85q2-7.05 5.4-23.9 3.45-17.3 4.55-26.15l12.35 3.7-8 46.15 6.5 7.75q7.9 3.35 21.1 7.3 14 4.2 18.3 4.2l16.7-8 8-52L288.3 266l10.85 42.25 28.15-1.05q17.75-1.4 24.25-3.3l15.15-30.75-3.45-39.85 14.9 12.35-2.35 42.25zm39.15-77.9-1.35 53.6 6.4 1.35-10.15 5.5q-7.5 3.75-11.2 4.65l6.95-11.9.65-42.9zm17.4 103q-2.05 10-3.75 15.85-6.2 6.45-16.2 7.75 1.35-6.55 5.05-16.2 3.15-8.3 6.2-14.3l11.45-8.25zm-109.9 14.2 20-.75 3.45 4.1q-4.25 8.7-20.15 27.3-6.05 3.4-20.55 6-12.35 2.25-22.1 2.65-.7-7.45.95-14.6 1.2-5.1 4.05-11.4 3.9-3.1 16.25-11.9zm-113.35 5.1q1.95 10.6 2.1 16-2.75 4.5-9.2 12.2-6.85 8.2-11.35 12.05-7-.15-17.05-1.95-9.65-1.7-16.5-3.9-1.4-21.5 1.95-37.45 5.35 9.1 17.75 14.2 12.3 5.15 25.95 4-.45-7.7-1-11.5-.95-7.3-3.1-12.55l6.7-7.8q1.95 6.75 3.75 16.7m-99-35.1q3.1 3.3 8.1 7.4 5.35 4.4 8.8 6.25l12.1-9.3-.7 25.6q-.7 17.95-1.9 22.7-2.05 1.9-5.85 3.6-3.65 1.65-5.85 1.8-5.95-1.3-14.4-7.65-8.4-6.3-12-12.05l-2.6-21q4.15-.55 6.4-1.3 2.95-.9 4-2.4 1.4-2.65 2.35-6.4z"/><path fill="#a5aab0" d="m369.05 148 .35 3.4q-8.4 9-36.8 12.6-22.45 2.85-50.2 1.8-3.45-4.65-7.15-13.65Q271.9 144.2 270 137q6.55 5.2 17.7 9.45 11.95 4.5 25.15 6.35 32.6 4.55 55.4-8.6z"/><path fill="#c9cfd7" d="m260.35 97.8 3.35-.55q5 4.05 13.95 9.6-2.15 2.9-5.4 5.2l-7.05 4.1q-2.45-5.2-4.85-18.35m26.15 14.55 7.7 3.55q-2.5 2.15-5.75 3.6l-6.25 2.25q-1.3-2.3-2.1-5.45-.8-3.1-1.45-8.3 3.3 2.15 7.85 4.35m8.85 4.3q2.7 1.6 6.05 2.95l6 2.3-4.3 3.05-5.15 2.5q-1.05-1.85-1.8-4.95-.7-2.95-.8-5.85m78.15 10.3q2.7-.9 7.9-3.15-1.25 3.8-3.95 6.75-2.65-2.05-3.95-3.6m8.85-3.8q4.5-1.75 7.55-3.9-.85 3.85-3 8.65l-2.15-2.05zm8.3-5q8.65-5.1 12.3-8.4-3.8 15.65-7.3 17.7-3.25-5.1-5-9.3"/><path fill="#504454" d="m149.15 17.55 1 20.05q-1.9 9-2.8 26.05-.8 15.45-.55 32.3l-9.35-8.3-4-1.35q.45-15.05 6.35-38.25 4.5-17.6 9.35-30.5m-13.3 104.5q3.55-1.65 10.55-7.2 5.95-4.75 10.25-8.85 1.9 4.8 3.35 10.55 1.6 6.3 2.05 11.55l-11.25 3.45q-11.9-2.35-20.1-1.85-3.4.25-11.75 3.05-7.1 2.4-14.85 5.6-5.5-7.6-8.4-12.4-3.25-5.25-4.95-9.65.1-3.2 1.4-7.3 1.1-3.5 2.6-6.25 4.3 9.6 11.9 19.7l14.05.6z"/><path fill="#a5aab0" d="M326.8 92.15q15 7.75 35.95-.85 18.65-7.6 29.95-22-2 5.8-7.85 16.8-5.1 9.55-9.3 16.15-5.65 8.85-11.4 11.9-3.8 1.95-9.65 1.95-9.7 0-17.45-6.65-7.75-6.7-10.25-17.3m36-66.7q-1.95 12.9-3.45 18.15-1.35 4.9-3.2 6.7-2.7 2.55-9.85 3.6-7.35 1.15-14.05-5.05-6.25-5.8-7.2-12.85 11.5 9.3 22.35.1 10.75-9.1 17.65-33.5 0 8.05-2.25 22.85m-175 122.95 9.55-2.35-.2 1.55q-2.65 2.85-12.15 11.15-10.65 9.3-14.25 11.35-5.15 2.9-25.55 10.4-3.3 1.2-5.9.75-2.1-.3-3.45-1.65-.95-.95-2.6-4.4l-2.8-6.2q39.7-13.4 48.95-19.9 2.5.45 8.4-.7m-75.1 43.8q5.15-6.25 8.9-14.1 1.3 7.6 0 22.95-1 11.6-3.3 25.5-4.7 7.15-12.05 14.85-5.9 6.15-11.1 10.35 2.25-6.45 3.4-21.5l1.4-27q6.85-3.85 12.75-11.05m-10.4 92q2.95-6.55 8.35-21.55 5.9-16.4 8.35-25.45 3.95 8.75 6.8 23.25 2.7 14.05 2.8 24.95-1.95 6.15-4.55 15.75-2.4 8.95-3.1 12.3-.65 3.05-1.45 4.5-.8 1.35-2.25 2.2-1.8-6.6-7-18.8-4.6-10.85-7.95-17.15m416.85-38.55q-1.55 1.2-4.15 1.95-2.75.85-11.05 2.3l-11.25 1.6q.6-7.75 1-10.35.7-3.95 2.05-5 2.9-2.25 11.05-3.4 8.6-1.25 17.3-.3-1.25 7.4-2.8 10.4-.9 1.75-2.15 2.8m62.8 32.5q-9.6-6.4-35.55-21.2-11.9-22.85-14.5-32.5 7.25 7.55 19.2 15.45 10.25 6.8 21.1 12.05l9.7-3.1q6.7-1.7 12.15-1 1.2 4.4 1.35 13 .1 7.25-.45 11.65-8.75 5.05-13 5.65m-34.25-8.45q4.4 5.15 14.1 15.45l13.65 14.65 9.95 1.75q5.65 1.15 9.3 2.6-2.1 17.45-3.65 21.85l-9.1.3-7.8-.3-12.45-10.4-10.95-8.45q-.3-7.1-1.35-19.3z"/><path fill="#0d131a" d="M152.9 198.8q1.25 9.15-1.4 21.5-2.3 10.9-5.35 15.5-1.55 2.4-3.65 3-1.75.5-3.65-.4-1.2-6.85.2-25.75 1.7-2.3 5.95-6.5 3.75-3.75 7.9-7.35m325.5 65.8q-2.05-4.45-1.2-10.75l32.55 3.45 8.3-4q3.65 1.85 6.9 6.85 2.95 4.55 3.75 8.55-.9 2.3-4.3 5.2l-4.65 3.4-12.2-1.05q-11.35-1.4-18.75-3.45-7.7-2.2-10.4-8.2m-151.25-166q-6.1-14.05 1.4-26.65 3.15-5.35 8.05-8.6 4.95-3.25 10.1-3.35l22.15.85q13.45 1.25 21.9 3.9 2.8.9 3.4 2.25.65 1.5-.7 4.4-14.6 32.05-24.45 40.95-3.75 3.4-9.4 4.6-5.8 1.25-11.8-.15-14.25-3.35-20.65-18.2m19.2-36.2q-4.3.1-8.5 3.1-4.25 3.05-7 7.95-6.6 11.75-1.15 24.4 5.55 12.7 18.5 16.1 5.4 1.4 10.45.6 5-.8 8-3.5 5.6-5.1 13.2-18.3 5.65-9.8 10.95-21.45 1-2.25.45-3.35-.45-1-2.55-1.55-9.2-2.4-21.45-3.4-10.2-.85-20.9-.6"/><path fill="#0d131a" d="M340.15 94q-4.3-10.1.3-20.2 4.3-9.4 12.8-12.3l3.5.55q-9.5 2.85-13.85 11.65-4.5 9.2-.25 19.15 3.8 8.85 13.95 11.85t18.15-2.5l-1.95 3.65q-8.1 4.55-18.05 1.3-10.4-3.45-14.6-13.15"/><path fill="#0d131a" d="M405.55 65.9q.9 1.85-.4 6.15l-2.45 6.1q5.25 18.65 5.25 27l-.2.55q-9.8 11.05-26.7 19.4-16.15 8-27.05 8-21.25 0-45.15-9-24.4-9.25-45.5-25.6-4.25.3-6.5 0-2.2-.35-2.2-1.1.05-.8 2.15-.7l3.35-.2 3.35-.4q.3 0 .5.15 21.5 16.15 49.8 25.9 24.8 8.45 40 7.7 11.05-.55 25.9-7.35 16.25-7.45 26.45-18.05-.05-5-2.2-13.55l-3.5-12.5q1.4-3.05 2.4-6.7.6-2.2.6-3.45 0-1.4-.7-2.65l-2.4-4.45q-1.65-2.75-2.65-3.7-2.8-2.6-7-3.7l3.3-.45q4.4 1.15 5.85 3.15 3.25 4.2 5.7 9.45"/><path fill="#0d131a" d="M341.95 122.1q-1.75-1.05-1.5-1.55.25-.45 2.2.25 4.25 1.55 7.75 4.6 1 .85.3 1.75t-1.75 0q-3.3-2.85-7-5.05m41.3-32.2 1.75-2q1.2 1.3.75 2.85-.4 1.45-1.35 1.45-.75 0-1.05-.7-.35-.65-.1-1.6M442.3 190q-1.35-.55-9-2.6l-11.35-3.05 1.2-3.3 11.55 3.45q7.55 2.35 9.1 3.05l.3.2q1.55 2 3.7 5.85 2.3 4.15 3.35 7.1.75 1.95.3 2.1t-1.6-1.6l-3.55-5.6q-2.65-4.05-4-5.6m14.85 174.1q4.1-2.35 8.05-.55 3.45 1.6 8.8 4.65 5.7 3.3 8.1 5.1 3.3 2.5 3.2 4.75-.05 2.35-3.75 3.95l-9.05 3.15-8.8 2.35q-7.75 1.65-11.25-3.25-3.2-4.5-1.3-11.7 1.55-5.95 6-8.45m7.9 1.7q-3.15-1.45-6.15.5-3.2 2.1-4.5 7.1-1.6 6.15 1 9.25 2.6 3.15 8.45 1.9 11.55-2.55 16.55-4.75 2.35-1 2.35-2.1t-2.15-2.75q-2.45-1.85-7.45-4.8zm-235.4-218.2-.25 7.9-.1 8.2 19.05 26.4q14.85-4.65 24.2-8.45-.05-6.75-.8-16.6l-1.3-14.1q-4.95-6.4-13.95-13.65l-13.6 5.2zm12.2-7.7q12.55-5.25 14.8-6l.7.15q3.9 3.1 7.8 6.75 5.25 4.8 7.95 8.35l.15.35 1.25 14.9q.7 11.1.7 18.45-.25 4.5-5.3 15.05l-.4.4q-4.65 1.95-20.7 6.1h-.5q-2.4-1.05-7.3-4.05-6-3.6-9.4-6.45-2.5-2.6-9.35-12.5-6.45-9.35-11.15-17.05l-.05-.6q.3-1.25 1.9-5.6l2.05-5.9-10.5.45-8.15-9.5-1.25-4.7 10.4 11.35 12.45-.35q1.1-.05.75.9-3.5 9.9-4.25 12.95 4.85 7.9 10.65 16.55 6.5 9.6 8.8 12 3.3 2.75 8.25 5.9l6.5 3.75q14.25-3.7 19.3-5.75 3.75-8 4.45-12.05-12.65 5.2-24.45 8.9-.55.2-.8-.25-13.25-18.15-20.15-28l-.1-.4q-.35-13.3 0-17.6 0-.5.5-.65zM325.7 6.2q14.35 1.2 24.85 4.85l-1.6 1.6q-20.9-6.4-50.7-3.1-32.7 3.6-47.1 17.15l-1.5 12.1-2.7-.2.85-13.25.25-.45q15.2-14.55 48.7-18.25 14.6-1.6 28.95-.45m67.25 37.05q-3.3-4.75-11.15-11.35-8.7-7.3-18.6-13l.45-2.35q10.35 6 19.75 13.75 8.7 7.25 11.95 12.1l.15.35.45 10.2-2.4-.3q-.1-5-.6-9.4"/><path fill="#0d131a" d="m348.5 12.7-1.85 1.7q-16.25.05-24.8.35L309.2 15.8q-3.45.6-16.45 4.9l-19.15 6.5-12.35.85q-8 .5-11.35.2l.65-3.25 22.95-.75q28.55-9.45 35.3-10.6 9.25-1.6 39.7-.95"/><path fill="#0d131a" d="M360.8 3.75q-4.95 3.85-16.45 13.6L329 30.6q-4.15 3.8-2.35 8.3 2.9 7.2 8.75 10.9 6.5 4.15 14.7 2.25 2.95-.65 4.55-2.35 1.5-1.65 2.65-5.15 2.65-8.35 4.6-20.05 1.65-9.75 2.35-18.65.2-2.95-.6-3.35-.75-.4-2.85 1.25m4.05-3.5q1.7.95 1.3 5.6-2 26.1-6.5 40.25-1.2 3.8-3.25 5.65t-6.5 3.1q-8.25 2.35-15.75-2.5-6.95-4.5-10.05-12.75-2.15-5.7 2.6-10.4 3.65-3.65 15.75-13.55l17.1-13.6q3.6-2.8 5.3-1.8m22.7 81.95 1.05-2.65q4.2-2.3 10.2-4.55 1.85-.7 1.8-.15 0 .5-1.35 1.2z"/><path fill="#0d131a" d="M405.75 57.1q1.15 2.45 1.2 4.2.25 4.6 2.2 11.05 1 3.3 1.15 7.05.1 3.3-.4 5.05l-3.8 12-.65-4.1 2.3-8.55q.6-2.1.3-5.4-.3-3.15-1.3-6.05-1.5-4.4-2.35-11.4-.2-1.45-2.4-4.65-.7-1-1.4-1.35l-1.75-.4q-3.75-.25-8.65.15-5.15 3.2-10.6 8h-2.3q6.35-5.85 11.8-10.3l10.2-.55q1.3.1 2.65.75t2 1.45q.85 1.05 1.8 3.05M379.9 95.95l.95-1.05q2.35.7 4.6-.6 1.95-1.1 2.8-4.45.85-3.4-.35-5.6l1.2-.6q1.4 2.85.4 6.55-1 3.65-3.65 5.2-1.15.7-2.75.9z"/><path fill="#0d131a" d="m401.9 76.75.3 2.45q-8.55 2.95-17.35 7.4l.9-2.3q11.9-5.9 16.15-7.55"/><path fill="#0d131a" d="m396.8 92.5-.25-5.6q-.35-3.35-1.1-5.8l2.3-1.65q.85 2.9 1.25 7.35.35 3.8.2 6.6 0 .4-.4.65-3.55 1.8-10.85 3.9-6.9 2-10.9 2.55l.75-1.95q3.55-.5 9.45-2.35 5.75-1.85 9.55-3.7m-41.6-7.2q-2.45-8.05 1.5-14.8 3.45-5.85 9.7-8.25l2.75.8q-6.75 1.7-10.35 7.95-3.7 6.45-1.5 13.6 2 6.55 9.5 9.5 7.8 3.05 13.95-1.15l-2 3.65q-6.65 2.5-13.7-.45-7.5-3.25-9.85-10.85m10.6 35.4q-1.55 2.25-5.4 5.55-1 .9-1.8 0t.35-1.75l6-4.65q1-.75 1.25-.4.25.3-.4 1.25M361.5 32l.55-2.55q8.45 2.7 17.05 10.05 7.5 6.35 12.1 13.3l-2.5 1.65q-4.6-6.7-11.25-12.5Q369.6 35.1 361.5 32m-26.1-8.8-2.7 2.05q-14.55-.65-27.55 2-15.65 3.15-25 10.45l-.35.15-7.8 1.1q-3.15.6-5.65 1.55-.15 1.95.25 5.25.35 3.35 1 5.35l-.15.65q-3.8 6.15-9.8 14.35-6.45 8.85-9.85 12.2-1.4 1.45-3.9 2.65-2 1-3.45 1.25l-2.8-1.85q1.85-.25 4.35-1.55t3.85-2.75q4.25-4.5 9.6-11.5 5.55-7.15 9.6-13.45-1.6-7.7-1.85-10.9-.15-2.05 1.75-2.5 2.15-.6 6.15-1.1l8.25-.65q11.6-9 31.65-11.8 12.25-1.75 24.4-.95m-86.35 10.95.05 2.65q-2.9.35-5.7 1.2-3.05.9-4.6 1.95-3 2.65-8.4 12.15-5.55 9.8-7.75 16.65v6.85h-2.15l-.1-7.05.05-.25q2.4-7.5 7.65-17.55 5.55-10.55 9.05-13.55 1.75-1.2 5.35-2.1z"/><path fill="#0d131a" d="M258.9 48.45q-.1-3.45-.8-7.2l-21.5-.95 2.85-2.3 20.75 1.1q.6.1.65.6.95 4.3.95 9.35l-.2.5-9.55 10.25-10.45 10.9-.55.25-10.15-.2q-6.35-.35-9.25-1.45l.5-1.95q5.1 1.9 17.65 1.35 12.9-13.1 19.1-20.25m18.85 2.95q-3.35 2.65-5.05 4.45-.45 2.25-.1 7.95l10.85 6.7 9.1 5.95q15.65 16.2 19.7 21.45 2.6-1 4.25-2 1.6-1 3.3-2.65-1.1-5.55-3.5-13.6-2.55-8.3-4.6-12.75-5.35-6.2-13-11.95-7.45-5.65-13.95-8.5-3.3 2.05-7 4.95m6.4-8.3.65-.05q6.6 2.8 15 9.25 8.35 6.45 13.9 12.95l.15.15q2 4.4 4.75 13.9 2.5 8.65 3.65 14.55l-.25.7q-2.3 2.2-4.6 3.6-2.25 1.4-5.35 2.5-.5.15-.85-.25-4.05-5.3-20.3-22.15l-21.4-12.6q-.35-.15-.35-.6-.15-1.95-.05-4.8.15-3.25.55-5.6l.2-.35q1.7-1.85 6.1-5.3 4.75-3.85 8.2-5.9"/><path fill="#0d131a" d="m279.7 65.15 23.45 12.25 1.55-.15 2.35-3.3 1.85-3.05.8-7.6 1.95 1.2-.8 7.4-4.85 7.2-1.45.95-1.75-.1Q284.4 69.3 278.85 66.2q-2.35-1.3-1.9-1.75.4-.45 2.75.7m-6 22.1-2-1.5q.5-4.05 2-9 1.55-5.15 3.25-8.1l2.9 1.4q-1.7 3-3.45 7.9-1.8 5.05-2.7 9.3"/><path fill="#0d131a" d="M271 86.5q-1.65-1.4-1.2-1.95.5-.55 2.25.65 6.95 4.65 17.45 7.7 10.2 3 19.4 3.25l2.05 2.5q-10.1-.3-21.4-3.5-12.6-3.55-18.55-8.65"/><path fill="#0d131a" d="m298.2 84.3 1.3 1.25q-.5 3.3-2.85 5.15-2.4 1.95-5.7 1.4-3.05-.45-5.15-3-2.45-2.9-2.15-7.2.1-1.9 1-3.8 1-2.05 2.5-3.2l1.95 1.2q-3 2.75-3.3 5.95-.35 3.5 1.4 5.9 1.5 2.1 4 2.6 2.4.5 4.55-1.3 2.25-1.85 2.45-4.95m-39.15 13.65 2.95-.15q.45 3.7 1.85 10.25 1.45 6.55 1.8 6.7.65.3 4.65-2.55 4.25-3.05 6.6-5.8l2.2 1.85-5.25 4.5q-3.2 2.25-8 4.45-1.3.65-1.85-.55-1.45-3.15-2.95-8.55-1.6-5.9-2-10.15"/><path fill="#0d131a" d="m293.55 115.25 2.7 1.55q-2.65 1.75-6.25 3.4t-6.85 2.55q-1.55.4-2.1-.6-1.3-2.5-2.55-7.45-1.2-4.65-1.5-8.05l3.1 1.55q.1 3.3 1.15 8.05 1 4.35 1.4 4.6.45.15 4.6-1.95 4.2-2.1 6.3-3.65"/><path fill="#0d131a" d="m306.4 121.5 3 1.25q-5.3 3.5-10.65 5.65l-1.15.15-.7-.6q-.95-1.4-1.9-5.35-.9-3.7-1.2-7l2.85 1.1q.1 2.7.8 6.2.65 3.35 1.05 3.5t3.2-1.6zm82.85-3.05 2.2-1.3 2.55 5.75q1.6 3.4 1.9 3.4t2.5-6.2l3.45-10.65 2.8-1.75q-1.3 5.5-3.4 11.45-2.55 7.05-4.3 8.95-1.15 1.25-2.1.15-2.95-3.65-5.6-9.8"/><path fill="#0d131a" d="m389.25 118.25 2.25-.9q-.55 2.85-1.7 5.9-1.1 3.05-2.15 4.65-.65 1.1-1.55.45-3.1-2.25-5.25-5.25l2.4-1.25 1.85 2.8 1.45 1.65q.35-.1 1.2-2.75z"/><path fill="#0d131a" d="m381 122.95 2.7-1.3q-1.4 4.85-5.3 9.55l-1.9.1q-2-1.25-4.5-4.25l2.15-.8 1.85 2.2 1.35 1.15q.3 0 1.6-2.35z"/><path fill="#0d131a" d="m392 121.65 1.7 2.75q-15.85 18.6-35.8 25.75-13.4 4.75-32.2 4.9-17.65.15-35.05-5.95-19.8-6.9-29.95-19.15-1.4-1.7-.95-2.3t1.95 1q10.6 11.55 29.8 18.05 17.05 5.7 34.2 5.6 18.05-.15 31.4-5.1 19.25-7.2 34.9-25.55"/><path fill="#0d131a" d="m377.1 137.3 2.5-1.55q1.95 9.55.95 21.85-1.15 14.65-6.15 22-1.55 2.25-2.05 1.9-.55-.4.75-2.75 4.35-8.05 5.1-21.4.65-11-1.1-20.05m-10.3 6.6 3.15-1.75q2.85 10.85 1.5 21.45-1.35 10.5-6.6 18.7-5.35 8.45-13.9 12.85-9.1 4.65-20.45 3.9-21.35-1.45-34.7-13.3-16.3-14.4-27.8-48.85l3.3.95q13.05 33.55 27.15 46.4 12.05 11 32.2 12.35 21.3 1.45 31.8-15.3 4.7-7.55 5.85-17.3 1.15-9.85-1.5-20.1"/><path fill="#0d131a" d="M340.4 196.85q15-.85 23.25-5.95 2.05-1.25 2.45-.75t-1.45 2.05q-4.7 4-14.55 6-10 2.05-19.6.85zm28.7-27.05-.3 2.1q-9.2-2.45-36.65-2.45-27.95.05-46.55 2.65L284 169q17.65-2.45 47.3-2.15 29.6.3 37.8 2.95m37-72.95-.65-4.5q16.9 11.35 23.05 28.6 5.9 16.65 1.95 39.4l-.1.3q-2.95 4.2-5.1 6.3l-1.95-1.4q3.2-3.1 4.95-5.8 3-17.3-.85-32.05-5.05-19.4-21.3-30.85"/><path fill="#0d131a" d="m398.95 120.5 2.4-3.65q-.15 12.05 1.2 20.05l13.7 11.2 13.25 11.15-.65 1.75-28.6-22.65-.25-.4q-1.3-8.5-1.05-17.45m5.55 33.55q-3.95 3.45-8.8 8.7-.5 5.55-.55 14-.05 7.3.25 13.35 1.35 1.25 6.7 4.7l6.45 4.25 4.4-4.35q4.9-5.15 7.3-9.1l2.45-8.15q1-4.05 1.7-9.3zm-13.7-9.25-3.9-4.55-.15-.45q0-3.75-.85-10.15l2.65-2.05q.65 4.2.8 11.5l6.85 9.25q.45.5 0 1.15l-7.7 13.05q-1.25 26.85-2.6 33.15 2.55 2.05 7.9 4.95 4.65 2.5 7.95 3.85l4.7-3.6-6.8-4.35q-5.3-3.45-6.75-4.8l-.25-.5q-.15-5.5-.05-12.3.15-9.7.85-16.55l.2-.45 4.95-5 5.45-5 .9-.05 10.95 7.1 11 7.4.25.7-1.65 10.55q-.95 4.75-2.45 9.3l-.05.15q-2.7 4.45-8.45 10.5-6.1 6.45-11.45 10.1l-.65.05q-3-1.15-9.25-4.7-6.7-3.75-9.45-6.05-.25-.25-.25-.75.85-3.8 1.6-15.7l.95-18.6.1-.35 8.2-12.65zM195.3 82q-14.15 4.2-19 6.8-3.05 1.65-4.85 3.25-1.6 1.45-3.15 3.7-1.55 2.3-4.6 7.75l-5.1 9.5-1.05-2.7q1.8-3.75 4.5-8.65 2.85-5.1 4.45-7.45 1.6-2.3 3.5-3.9 1.95-1.6 5.3-3.4 5.25-2.85 19.3-7.4 14.3-4.65 22.85-6.2h.15q3.6.25 11.4 2.6 7.1 2.15 12.35 4.35l.3.2q3.1 3.85 10.2 19.15l7.5 16.85.05.25-.75 9.5-.85 9.45h-2.3l1.65-18.05-.05-.45Q253.15 108 248 97.8q-5.85-11.6-8.6-15.1-5.25-2.15-11.35-4-6.9-2.1-10.3-2.35Q209 77.95 195.3 82"/><path fill="#0d131a" d="M176.25 98.15q-4.75-2.7-8.85-3.8l.95-1.65q4.4 1.2 9.35 3.75 4.6 2.4 6.55 4.35l.1.15q4.95 7.85 12.05 18 6.55 9.4 10.7 14.75 11.6-1.3 27.25-6.85 13.45-4.75 23.6-10.2l.2 2.2q-11.15 5.95-24.25 10.9-16.35 6.15-27.85 7.45l-.7-.3q-3.45-4.5-10.65-15.3-7.45-11.15-12.25-19.15-1.95-1.95-6.2-4.3"/><path fill="#0d131a" d="M194.35 81.2q-6.1 12.9-9.65 21.75l-2.4-2.25q3.45-7.1 9.65-18.5zm8.05 76.75q-.3-.25-.1-1.2l1.1-6.5 4.1 1.5q-2.2 2.25-4.1 5.35-.7 1.15-1 .85m-20.1-33.75-3.25.55q-7.2-6.25-11-8.3-2.95.95-7.2 3.95l-.85-2.9q3.85-2.85 7.55-4.05h.6q4.25 2.25 14.15 10.75m17.15 39.2q.4.4-1.35 2.4l-5.55 6.4q-.2.3-.6.3-3.25-.2-9.5-.1l-7.85.15.7-2.75 16.2.5q1.65-1.95 5.6-5.6 1.95-1.75 2.35-1.3m-49.1-146.8q.45.1.55.6l.45 9q.2 7.35 0 12.15v.15q-1.9 7.4-2.95 25.8-1.05 17.95-.6 33.3l-1.9-2.05q-.8-11.65-.05-30.2.85-19.75 2.75-27.25.1-11.95-.7-18.6-5.7-1.55-15.4-1.55-13.15 20.9-28.8 41.95-17.3 23.3-28.25 33.8-2.3 2.25-3.5 4.85-1.15 2.6-1.65 6.55-1.15 10-2.05 26.35-.9 15.4-1 26.4l-2.25 2.6q-.25-11.35.45-28.45.7-17.9 1.9-27.95.95-8.1 6-13 10.15-9.75 26.6-31.6 16.4-21.8 30.7-44.45.15-.35.6-.35l9.35.4q6.25.5 9.75 1.55"/><path fill="#0d131a" d="M145.2 25.2q.65-2.25 1.3-2.05.7.15.1 2.45-5.45 20.5-7.75 31.75-3.15 15.95-3.85 30.6l-2.8-.15q.7-14.55 4.35-30.75 2.25-10 8.65-31.85"/><path fill="#0d131a" d="M115.65 87.15q-4.15 2.4-10.9 8.05-5.95 5-8.85 8.1-2.45 5.05-4.15 11.5-.6 2.25-1.05 2.15-.5-.05-.3-2.4.35-3.75 1.15-6.7.75-2.65 2.2-5.65l.1-.2q3-3.6 9.7-9.25 7-6 11.45-8.5.1-.1.3-.1l11 .35 11.6 1.5.25.1q3.15 2 9.25 8 4.95 4.8 10 10.35l.15.25q2.1 5.8 3.5 11.8 1.5 6.45 1.8 11.5l-2.1.75q-.5-9.5-5.15-22.15-4.25-4.7-9.7-9.8-5.8-5.45-9-7.55-4.2-.85-10.9-1.55z"/><path fill="#0d131a" d="m155.8 105.15 1.4 1.6q-2.85 3.3-9.25 8.55-6 4.9-11.1 8.25l-.3.1-13.2 1-16.95-.55-.45-.25q-2.9-2.9-6.05-8.25-3.25-5.55-5.7-12l1.5-1.8q2.25 5.9 5.6 11.25 3 4.8 5.9 7.8l16.1.6 12.45-.85q15.6-10.35 20.05-15.45m-85.75 23.8q-.5-17.15.4-29.45L72 95.95q-.45 12.3.35 30.05.55 12.15 1.45 23.3l-2.5 2.5q-.9-11.05-1.25-22.85m60.95-.75 12.7.95 11 1.55-4.45 1.7-19.7-1.6q-17.2 4.3-24.55 7.8-2.15 1-2.5.25t1.75-1.9q8.85-4.6 25.35-8.7z"/><path fill="#0d131a" d="M190.15 127.7q-.9-1.75-2.2-2.35-1.1-.55-3.1-.45-11.6.6-27.6 6.1-12.6 4.4-25.9 11.05-2.95 1.5-4.1 3.35-1.2 2.05-.65 5.05 1.3 7.2 4.6 15.5 3.1 7.65 6.2 12.15 1.15 1.65 2.8 1.8 1.75.15 5.2-1.25l13.65-4.95q10.65-4 13.3-6.2l11.55-9.3q8.25-6.9 12.3-11.6-.9-4.55-2.6-9.85-1.75-5.55-3.45-9.05m-5.35-4.8q2.3-.15 3.8.45 2.05.8 3.15 3.1 1.85 3.9 3.95 10.1 2.15 6.5 3 10.9l-.25.65q-4.05 4.55-12.7 12.1-7.3 6.35-11.55 9.55-2.9 2.15-14.15 6.6-11.6 4.45-13.65 5.35-3.7 1.6-6.75 1.4-3.3-.25-4.9-2.55-3.15-4.6-6.5-13-3.55-9-4.9-16.4-.65-3.85.85-6.55 1.6-2.8 5.85-4.95 12.75-6.35 26.5-10.85 16.25-5.3 28.25-5.9"/><path fill="#0d131a" d="M171.7 130.35q-.45-1.8.2-2 .7-.15 1.2 1.6 2.35 7.7 5.95 15.9.6 1.35 1.35 1.8l2.05.35 10.35-1.55q1.6-.25 1.75.2.15.5-1.3 1.25-4.55 2.15-11.45 2.8-1.75.2-2.85-.5-1.1-.75-1.85-2.5-2.65-6.25-5.4-17.35m-115.35 43 .05-.2q2.45-6.2 9.25-15.55 6.8-9.45 13.5-15.85 1.8-1.75 2.3-1.15t-1.05 2.45q-16.8 19.9-20.7 31.05-.85 18.85.6 41.9 1.1 18.3 2.9 29.75.8 5.05 3.5 10.1 1.35 2.6 5.65 8.65l6.45 8.55-.1 3.8q-3.1-3.5-7.65-9.7-4.65-6.35-6.3-9.45-3.7-6.85-4.4-11.4-5.35-34.5-4-72.95m119-7.1 3.75-1.55q-2.2 5.55-6.5 18.5l-.1.25q-2.05 2.9-6.4 6.55l-8.2 6.65q-9.4 7.7-13.45 11.85-7.25 7.45-10.25 14.8-1.05 2.55-1.6 2.1t.2-3q2.1-7.45 9.55-15.3 4.1-4.35 13.85-12.3l7.75-6.45q3.9-3.4 5.9-6.3l2.7-8.5z"/><path fill="#0d131a" d="m165.55 188.5 3.15-2.05-1.65 16.95q-1.3 10.8-2.9 14.1-1.85 3.85-3.5 10.2-1.6 6.35-2.35 12.75-.8 6.5-2.4 11.7-1.6 5-4.25 9.6-4.3 7.35-24.7 27.1l.8-3.75 12.65-13.3q7.25-8.2 9.65-12.3 2.45-4.15 3.75-8.9 1.05-3.95 1.9-10.9.75-6.5 2.35-12.75t3.5-10.2q1.5-3.15 2.6-12.85z"/><path fill="#0d131a" d="m157.5 195.75 2.1-1.9q.35 5.85-.2 11.95-.65 7.5-2.5 13.45-.55 1.85-1.2 1.7-.65-.2-.2-2.05 2.3-9.7 2-23.15m-5.5 4.15 2.4-1.55q.8 11.7-2.3 24.45-3.3 13.9-8.75 16.6l-2.3.55q-1.2 0-1.95-.65v-1.45q.7.5 1.8.5 1.05 0 1.8-.4 4.25-2.45 7.2-14.7 2.85-12.05 2.1-23.35"/><path fill="#0d131a" d="m137.9 214.35 2.7-3.05q-1.05 7.05-1.3 16.25-.25 10.3.95 13.65.75 2 2 1.9 1.05-.1 2.25-1.6 1.15-1.4 1.5-1.2.35.25-.5 1.8-1.5 2.65-3.6 2.7-2.25.05-3.25-3.1-1.45-4.45-1.55-13.3-.1-7.85.8-14.05M86 164.15q6.2-.45 16.8 2.55 10 2.85 15.85 6.35 3.15 1.9 4.25 4.4.95 2.15 1.1 6.85.25 6.8-1.2 21.4-1.3 12.85-2.75 21.2l-.1.25q-2.45 4.3-9.65 12.15-6.9 7.45-13.55 13.35l-.35.15q-5.05.9-12.75.1-7-.75-12.25-2.35-.4-.15-.5-.55-2.5-11.95-3.55-25.05-1.15-14.2-.35-26.7v-.15q6.1-19.55 10.1-29.1 1.8-4.35 8.9-4.85m34.85 21.25q-.1-3.45-1.1-6-1-2.45-2.6-3.45-5.7-3.4-15.3-6.15-10.05-2.85-15.6-2.3-2.8.3-4.4 1.25t-2.35 2.75q-4.4 10.6-9.85 27.8-.7 10.6.35 25.95 1 14.5 2.8 23.4 5.1 1.55 11.1 2.2 6.7.7 11.45-.1 6.25-5.5 12.6-12.65 6.35-7.1 8.85-11.45 1.65-9.7 2.8-19.45 1.55-13.75 1.25-21.8"/><path fill="#0d131a" d="M97.7 205.15q-.05-3.1-4.15-3.55l-19.5-1.2q-1.7 0-1.7-.65 0-.6 1.7-.8l12.3-.65 9.1.25q2.6.3 4.25 1.8 1.7 1.5 1.75 3.6.2 11.15-.5 21.15-.95 13.05-3.15 18.55-.8 1.85-1.35 1.7-.55-.1-.1-2.05 1.25-5.4 1.45-17.85z"/><path fill="#0d131a" d="m117.95 238.55-4.15.15-4.65.6 1.7-3.5q5.25-.55 9.4-.05.4.05.55.25l.15.45q4.05 13.3 6.15 23.15 2.95 14.1 2.85 24.95l-.05.2-4.8 17.1-3.85 14.1q-.4 1.85-1.6 3.65-1.7 2.5-4.15 3.05l-7.05 1.25-7.1.8q-5.55 0-9-4.75-12.85-17.85-16.15-27.4v-.25q.05-8.15.65-20.35.6-12.75 1.4-20.85l2.35.2 1 .25q-.85 8.75-1.55 20.25-.8 12.25-.85 19.75 2.1 5.85 7 14.35 4.1 7 8.05 12.45 1.8 2.5 3.7 3.45 1.35.7 3.2.7l6.75-.65 7.05-1.2q3.1-.75 4.25-5.6.75-3.75 3.25-13.45 2.95-11.8 4.7-16.8v-.7q0-10.35-3.05-23.65-1.85-8.05-6.15-21.9"/><path fill="#0d131a" d="M101.3 285.7q-8 1.15-17.45 4.65-1.5.55-1.65 0-.2-.55 1.15-1.4 4.55-2.85 10.2-4.8 4.8-1.65 9.1-2.25.5-.1.75.3 2.8 4.3 6.95 14.9 4.15 10.4 6.3 18.5.4 1.5-.15 1.75-.6.3-1.2-1.15-10.2-24.5-14-30.5m332.55-89.85-.3.1q-3.55.35-7.6 0l-.5-2.8 7.55.4 5.25-2.45 4.9-2.15.85 1.45q-1.7.75-5.3 2.7zm15.95 4.1-1.3-3q7 2.5 19.75 4.05l-1.9 1.4q-10.55-.65-16.55-2.45"/><path fill="#0d131a" d="m531.1 190.5.15.05q14.4 5.4 22.15 9.6l.25.2.15.15 3.5 5.7q2.35 4.2 3.5 6.9l-3.65-2.1q-3.05-5.3-5.45-8.35l-.05-.05q-4.85-2.55-21.4-8.75-4.3-.55-19.05-.25l-28.55 1.1q-3.45 1.55-9.9 4.85-6.55 3.35-9.8 5.2-1.55.9-1.8.35-.3-.55 1.15-1.7 2.55-2 10-6.25 6.75-3.85 9.55-5.1l.25-.1q42.75-2.25 49-1.45"/><path fill="#0d131a" d="M590.7 240.25q2.5 2.95 3.65 5.45 1.25 2.75 1.55 6.45.6 7.25-.1 20.7 0 .5-.5.65-6.95 3.8-13.6 5.85-6.65-4.8-16.7-10.5l-19.55-10.95-.25-.25q-3.3-5.2-7.95-15.7-3.7-8.3-7.1-17.2-.15-.35.05-.7 7.2-9.95 19.75-17.8l.6-.05q15.65 4.7 40.15 34.05m1.6 6.4q-1.05-2.15-3.5-5.1-22.6-27.05-38.25-31.95-5.65 3.55-9.85 7.45-3.8 3.55-7.15 8.15 8.85 22.8 13.75 30.65 8.75 4.65 18.15 10.35 9.95 6.1 16.6 10.9l6.05-2.3q3.7-1.6 5.7-2.8.6-11.95 0-19.5-.3-3.35-1.5-5.85"/><path fill="#0d131a" d="M589.7 247.55q.05.7-1.25.9-3.7.5-7.9 1.8-4.05 1.25-6.7 2.6.85 4.7 6.45 17.5.65 1.45.15 1.75t-1.5-1.15q-2.6-3.8-5-9.55-2.5-5.8-3.05-9.55-.1-.5.35-.75 2.6-1.5 7.65-2.7 4.9-1.2 9.3-1.45 1.4-.05 1.5.6m-7.5 30.85 2.65-1.1q3.3 4.3 6.25 11.15 2.8 6.65 4.6 14.15.15 2.5-1.1 10.4-1.2 7.45-2.7 14-.2.55-.7.55l-8.55.05-8.95-.3-.5-.25q-1.1-1.3-10.4-8.65l-13.45-10.6-.25-.55q-.2-5.2-1.15-15.6-1.2-13.2-2.4-20.5l.05-.45 1.25-2.8q1.05-2.25 1.95-3.5l.2-.2q1.85-1 4.3-1.45l3.5-.4 3.5 2.4q-5.85.8-8.7 2.35-1.5 2.1-2.45 4.15l-.15.35q1.2 7.2 2.3 19.6l1.15 15.25q19.75 15.45 22.35 18.25 5.05.4 15.2.4 1.3-5.7 2.25-12.1.95-6.35.95-9.15v-.55q-1.7-7.25-4.7-13.95-2.95-6.7-6.3-10.95"/><path fill="#0d131a" d="M591.85 303.1q-.15.6-1.3.3-5-1.15-13.65-1.5-1.2 14.15-1.2 18.4 0 1.7-.65 1.65-.65 0-.8-1.65-.9-10.2 0-21 0-.7.75-.7l7.55.95q4.9 1 8.35 2.45 1.1.45.95 1.1m-123.1-11.35q-6.95-5.7-11.25-8.1-1.9-1.05-1.5-1.75l2.4.15q4.75 2.2 11.55 7.25 5.95 4.45 11.2 9.3 1.1 1.05 3.45 2.05 2 .9 3.9 1.3l47.4 11.85 4 .65 3.85-.45 6.05-1.3 6.8-1.65 2.05 2.05-14.65 4-4.15.5-4.35-.7-27-6.6q-17.4-4.15-20.75-4.75-2-.35-4.4-1.5-2.6-1.2-3.85-2.5-4-4.3-10.75-9.8"/><path fill="#0d131a" d="m424.2 283.25-1.55-2.3q13.15.45 25.05 2.4 12.25 2.05 19.6 5.1l4.95 5.05q-7.15-3.35-21-6.4-14.55-3.15-27.05-3.85M471 215.7l-.3 5.7q-.25 5.5-.1 8.85l11.3 11.45q5.85 5.65 9.5 8.55 5.85-.05 13.9-1.5 6.35-1.15 10.45-2.4 1.45-.4 2.7-1.45t1.8-2.25l1.45-4.45q.9-3.35 1.15-6.1-2.35-5.85-7.55-13.4-5.15-7.6-10.4-12.85l-15.55 1q-7.8 1.1-13 3.1-3 1.1-4.25 2.8-.95 1.2-1.1 2.95m-3.3-1.45q.2-2.35 2.35-4.4 2-1.85 5.15-3.05 5.4-2.05 13.75-3.3l16.35-1.05q.35 0 .5.25 5.25 5.25 11.2 14.3 5.7 8.65 8.2 14.9l.05.35q-.25 2.8-1.45 6.65l-1.85 4.95q-.65 1.45-2.3 2.75-1.55 1.2-3.35 1.75-4 1.25-10.3 2.4-8.7 1.65-15 1.65l-.45-.2q-14.25-10.95-22.6-19.5l-.15-.15-.2-.45q-.15-4.45-.05-10.95z"/><path fill="#0d131a" d="M492.35 237.8q.1-2.55 5.05-4.3 3.85-1.4 10.4-2.05 6.65-.65 10.9 0 1.7.25 1.7.9-.05.65-1.75.6l-10.2.8q-6.1.9-9.8 2.25-2.95 1.1-3.45 3.4-1.05 4.4-1.05 7.05 0 1.55-.6 1.5-.6 0-.85-1.5-.6-4.4-.35-8.65"/><path fill="#0d131a" d="M461.3 243.9q-.95-1.2-.5-1.65t1.55.6q3.05 3.05 6.75 5.9 3.7 2.8 5.2 3.2l19.15 2.45 16.15 1.05q6.75-2.05 12.25-5.1 1.55-.85 1.8-.3.3.55-1.15 1.65l-6 3.8q-3.9 2.25-6.35 3.15l-.25.05q-8.2.15-36-4.05-2-.55-5.85-3.8-3.95-3.3-6.75-6.95"/><path fill="#0d131a" d="m471.6 251.95 2.7.95q-1.9 6 1.1 12.8 3.5 8.05 12.3 11.5 1.45.55 1.2 1.15t-1.75.2q-9.05-2.1-13.6-11.15-4.2-8.25-1.95-15.45"/><path fill="#0d131a" d="M484.3 272.4q-4.6-2.55-7.3-7.5-3.2-6-.85-11.85l2.6.95q-1.35 3.4 0 7.45 1.7 4.95 7.05 8.7 2.85 1.95 14.65 4 11.5 1.95 19.25 1.95 2.75-1.35 5.1-3.85 2.4-2.65 3.1-5.25l.75 2.7q-.85 2.45-3.15 4.75t-5.3 3.7l-.3.05q-7.5 0-19.25-1.8-12.6-1.9-16.35-4"/><path fill="#0d131a" d="m516.45 253.9 2.7-1.5q4.3 2.2 7.25 6.6 2.75 4.2 3.35 9 .6 5-1.4 8.75-2.25 4.15-7.15 5.75-2 .65-2.25 0-.25-.6 1.7-1.4 8.3-3.2 6.5-12.9-1.8-9.5-10.7-14.3m-92.4-58.6q-.95-3.05-3.55-8.75l2.05-3.05q5.05 11 5.05 19.95l-.05.3q-2.35 5.5-8.45 10.4l-.65 5.05-1.6-1.05.3-4.85.25-.45q5.7-4.9 7.8-9.75-.05-4.05-1.15-7.8"/><path fill="#0d131a" d="m407.85 210.85.55.05q6.95 3.85 11.45 8.3 1.15 1.1.8 1.6t-1.65-.4q-6.55-4.45-11.25-6.65l-12.25 3.15-14.3 3.55q-6.3 9.1-8.6 11.55l-.85.45q-.6.05-1.1-.45-4.8-5.25-13.95-12.5-6-.15-56.5.2-12.7 10-17.25 12.7l-.85-.05q-8.1-7.9-11.8-11-6.65-.05-43-5.55-3.15 1.5-7.6 3-5.35 1.85-9.55 2.55-.45.1-.7-.3-4.35-5.45-13.25-14.05-4.2-.95-13.2-4.6-8.95-3.55-16.55-7.35l.3-3.65q7.9 3.95 16.9 7.75 9.5 4 13.4 4.85l.35.2q6 5.75 13.05 14.5 5.85-1.05 15.9-6.1l.45-.05 25 3.7 19.15 2.15.5.2 5.85 5.45 5.5 5.45 8.2-6.35 8.1-6.65q.25-.15.4-.15h32.9l24.85.1.45.2 6.85 6.15 6.85 6.8q2.7-2.95 9.1-12.25.15-.2.45-.3l12.85-2.85z"/><path fill="#0d131a" d="m419.55 228.15-.85 43.95-.05.35-6.85 12.4q-4.55 7.7-7.2 10.85l-.25.15q-8.75 4.25-16.1 7.1-10.45 4-15.25 4l-.4-.1q-1.65-.9-4.75-3.15-2.85-2.05-3.85-2.5-8.7 8.8-13.65 12l-.25.15q-11.3 2.55-28.7 3.95-20.2 1.6-29.95-.35l-.3-.15-9.65-8.2q-6.8-5.7-8.8-6.9-2.25 1.05-7.25 4.4l-6.9 4.6-.45.1q-15.65-2-34.1-7.1-14.95-4.15-22.75-7.55L201 296q-1.45-1.45-3.55-4.55l-3.5-5.35-10.15 2.15-8.25 1.15-.3-.05q-17.2-7.35-34-17.05l2-2.7q10.05 5.8 16.6 9.25 9.05 4.75 16.6 8 6.85-.25 17.75-2.7.5-.1.8.3 3.75 5.6 6.8 8.7 8.4 3.6 22.6 7.7 18.45 5.3 33.7 7.3 9.85-6.45 14.35-8.6l.7.05q3.55 2 18.35 14.4 9.6 1.85 29.8.05 17.05-1.55 28.55-4.15 7.6-4.85 13.2-10.7.45-.35.85-.15 2.2.85 9.05 4.7 4.8-.05 14.6-3.5 7.85-2.75 15.45-6.4l.05-.05-15.4 4.55-.6-.05q-7.8-5.25-12.15-9.1-.35-.25-.25-.6 1.8-33.9 1.7-43.95l.05-.35q1.45-2.7 4.4-7.3 3.2-4.95 5.9-8.65l.4-.25 24.45-8.4q.25-.1.45.25l7.3 7.6zm-8.8-5-22.7 8.1q-5.7 7.65-9 14 .2 3.95-.7 19.5L377 286.7q3.75 3.3 11.25 8.35l8.6-2.05q4.9-1.25 8.85-2.7l4.35-6.8q3.9-6.4 6.65-11.85.65-22.2.65-42.1-3.9-4.2-6.6-6.4"/><path fill="#0d131a" d="m331.45 228.1 32.6 2.55q.55 0 .65.65 1.9 19.9 3.2 42.1l-.05.35Q364.3 283 353 305.1l-.5.4q-7.8 1.7-23.15 3L298.9 310q-.55 0-.7-.6l-5.7-21.6q-4.05-15.7-5.3-21.5l.05-.4 12.6-37.65q.15-.5.65-.5 9.1-.8 30.95.35m30 5.85-30.5-2.35q-19.8-1.1-28.95-.4l-6.45 18.55-5.9 16.55q1.15 5.35 5.35 20.4l5.7 20.5 28.6-1.5q13.45-1.3 21.6-3.05l7.75-15.15q4.9-9.75 6.7-14.4-.5-8.35-1.8-19.8zm-99.8-8.95.55.4q3.7 8.05 7.8 15.3l.1.45q-2.5 19.5-7.85 53.55l-.45.55-16.65 7.75-.35.05q-7.6-.6-20.6-4.45-10.4-3.05-19.85-6.8l-.25-.25-3.85-4.1-3.4-4-.15-.55 9.05-47.05.2-.4 12.9-13.6q.25-.25.6-.25 18.5 0 42.2 3.4m6.3 16.45q-6.2-10.65-7.45-13.3Q238.85 225 220 225l-5.7 5.6-6.45 6.2-4.45 24.9-3.65 21 2.85 3.5q1.6 1.85 3.55 3.4 8.85 3.55 18.7 6.4 11.8 3.4 19.4 4l15.9-6.7q6.15-38.8 7.8-51.85m-75-8.35-4.45-8.65q-3-5.8-4.45-9.3l-19.4-7.5.8-3.1 20.8 8.75.45.4q2.55 6.15 8.5 18.9l.1.35q-1.35 15.05-9.6 50.2l-.35.5q-5.6 2.8-11.6 3.7l-4-2.5 7.8-1.7q4.55-1.25 6.3-2.1 7.85-34.5 9.1-47.95m247.2-27.5.15.45q.95 14.65 1 34.85.05 20.9-1 24.35-1.1 3.8-2.3 5.5-1.3 1.75-4.4 3.6-4.55 2.7-10.65 5.55l-13.05 5.7 1.4-2.6q14.55-6.65 20.7-10.5 4.65-2.8 5.6-8.3 1-5.75.6-28.65-.3-17.75-.9-27.8-3.45-3.95-11.4-9.35l-.15-3.9q12.05 8.2 14.4 11.1"/><path fill="#0d131a" d="m425.6 218.9.1-.3q3-5.9 11.5-13.65l1.6 1.65q-2.9 2.65-5.65 6.1-2.9 3.65-4.65 7.05l-.45 30.2q-.45 15.6-1.1 21.45l2.8.55 3.95.25-2.7 2.25-5.85-.95q-.45-.2-.45-.75.9-7.25.9-53.85"/><path fill="#0d131a" d="m437.5 204.4 5.1-.3q1.2.1 1.15.45 0 .35-1.15.6l-2.2.7-1.6.75zm-18.7 75.85 3.7-1.6q-1.8 6.5-6.75 15.9-5.3 10.05-9.85 14.85-1.3 1.35-1.8.9-.55-.45.7-1.85 3.1-3.7 7.9-13.55 4.35-9.05 6.1-14.65"/><path fill="#0d131a" d="M429.85 292.65q-4.75-7.2-9.8-13l2.6-1.5q4.9 5.75 9.35 12.9 4.3 6.9 5.9 11.5l-1.6 1.8q-1.45-4.2-6.45-11.7"/><path fill="#0d131a" d="m426.7 284.95 11.65 4.55q1.05.55 1.2 1.65.9 5.65 1.55 13l-2.75-1.2q-.4-7.1-1.1-11.1-2.15-1.1-4.2-1.9l-4.65-1.5z"/><path fill="#0d131a" d="M437.6 303.7q-1.35 3.2-8.3 7.55l-5.8 17-4.95 14.15q3.85 2.95 10.95.55 6.65-2.2 10.15-6.65 1.65-5.2 3.85-14.5 2.3-9.9 3-14.95zm10.85 1.85q.45.15.45.75-.7 5.7-2.75 16.05-2.15 11.05-3.65 15.75l-.1.25q-4.1 5.25-13.65 7.55-9.85 2.35-13.95-1.75-.3-.4-.15-.85l5.8-14.85 6.9-18.45.3-.35q7.45-4.6 8.1-7.45.15-.6.65-.85l.8-.15z"/><path fill="#0d131a" d="m445.85 305.55 1.9 1.7q-5.5 4.85-11.1 8.6-7.85 18.05-10.2 24.9-.5 1.45-1.15 1.25-.6-.25-.25-1.75 1.5-5.5 3.5-10.95 2.2-5.9 6-14.7l.25-.3q4.05-2.7 11.05-8.75M401.65 361q-2.15 1-2.5.5-.3-.55 1.75-1.75 6.2-3.6 12.7-8.55 4.95-3.8 8.1-6.8l3.55.75q-3.15 3.05-9.45 7.45-7.8 5.5-14.15 8.4"/><path fill="#0d131a" d="m421.25 345.9 4.65-1.3 8.5 4.1 7.45 3.6 9.8 3.55 12.85 4.4.4.3 3.35 5.85-3.05-1-2.2-3.35-22.8-6.95-9.15-4.5q-8.5-4.3-9.8-4.7m31.15 46-2.1-1.6q4.7-2.35 7.9-4.85l2.65.9q-4.4 3.45-8.45 5.55"/><path fill="#0d131a" d="M416.05 387.05q3.25-6.45 9.05-8.3 5-1.65 9.9.5 5.75 2.55 16.9 10.65 3.7 2.55 3.3 5.1-.35 2.45-4.25 3.95-12.95 5.15-25.45 5.65-6.1.25-8.95-6.9-2.55-6.5-.5-10.65m18.5-5.55q-2.95-1.2-6.2-.75-5.6.85-9.05 6.9-1.75 3.1.25 8.55 2.15 5.9 6.75 5.7 12.1-.5 23.25-4.9 2.8-1.05 3-2.6.15-1.5-2.1-3.1-12.05-8.25-15.9-9.8"/><path fill="#0d131a" d="m355.95 364.85 3.4.85-2.15 2.6q-1.35 1.95-2.05 3.85-.75 11.2-1.15 12.8 3.4 2.85 11.75 7.8 14.55 1.9 27.7 5.25 11.9 3.05 17.5 5.85 2.5 1.3 5.9 1 3.45-.25 9.3-2.2l3.25 1.1q-6.3 2.5-11.25 3.25-5.2.8-7.95-.55-5.25-2.65-17.55-5.6-12.85-3-27.8-5l-.3-.1-6.45-3.75q-4.8-2.85-7.1-4.85-.35-.25-.25-.75.3-.85.6-6.7l.45-8 .05-.15q1.9-4.5 4.1-6.7"/><path fill="#0d131a" d="m341.35 362.4 2-2.75q3.75 1.85 10.8 3.8 9.6 2.6 18.7 3.2 2.65.15 2.6.75-.05.65-2.7.7-8.65.25-18.95-1.95-8.55-1.8-12.45-3.75m25.2-17.95q9.95-5.95 15.15-10.55 1.35-1.15 1.75-.7t-.8 1.8Q378 340.4 366 347.8q-11.25 6.95-21.9 11.4l3.4-4.35q11.7-6.05 19.05-10.4"/><path fill="#0d131a" d="M332.35 324.3q14.3-.1 24.3.6.4.05.65.45 1.05 2.45 1.75 6.25.8 4.65.35 7.95l-.05.2q-2.15 5.05-7.45 12.3-5.55 7.7-12.75 15.15l-.15.15q-5.55 3.1-17.9 6.05-13.15 3.1-25.4 3.9l-.45-.1q-3.3-1.95-8.2-5.5l-6.7-5.1q-.5-.4-.15-.95 1.65-2.5 5.4-11.9 3.45-8.6 5.3-14.35l.25-.3q4.75-4.2 21-13.55l.2-.1zm24.75 14.9q.45-2.35-.2-6.7-.55-3.7-1.3-5.65-9.7-.7-23.7-.55-14.85.15-19.15 1.2-14.4 8.3-20.1 13.2-6.2 19.9-8.9 24.25 7.4 6 12.4 9 12.2-.85 24.15-3.5 11.4-2.55 16.75-5.45 8.2-8.6 13.5-15.5 4.9-6.4 6.55-10.3"/><path fill="#0d131a" d="m355.65 334.1 3.05 4.15-1.1 2.35-1.75-2.65q-.65-1.05-1.3-1.55l-21.35.65-16 1.35-15.4 12.05q-2.5 5-4.2 13.5-1.8 9-.4 11.55h-2.6q-1.6-3.65-.1-12.75 1.45-8.8 4.3-14.4l.25-.25q12.65-8.85 16.3-11.75.15-.15.35-.15l16.85-1.6 22.55-.8z"/><path fill="#0d131a" d="m224.7 384.2 2.75-2.95q15.75 1.75 34.25-.75 18.55-2.55 30.4-8l2.95 2.25q-12.8 5.95-31.35 8.75-20.35 3-39 .7m19.55-21.15 1.4-2.5 18.2 2.3 19.05.7.3 3.6-19.1-.85q-12.7-1.45-19.85-3.25"/><path fill="#0d131a" d="m230.75 381-11.6 11q-2.9 1.8-8.7 3.65-5.9 1.9-10.05 2.3-2.05.2-2.2-.4-.15-.55 1.85-1.05 3.35-.8 8.75-3.05 5.35-2.2 7.95-3.85l11.35-10.7q8.45-8.3 13.4-14.15 5.2-6.15 5.55-16.55.3-9.1-3.1-25.2-.35-1.5.3-1.65.65-.1 1.15 1.35 9.85 30.85-1.15 43.9-5.05 6-13.5 14.4"/><path fill="#0d131a" d="m218.45 323.05.4.45q1.7 5.8 3.55 15.6 2.15 11.3 2.65 19l-.1.45q-3.4 5.15-8.95 11.9-6.55 7.9-11.8 12.7l-.55.2q-6.25-.45-18.05-2.65-12.4-2.3-20.05-4.6-.4-.15-.5-.65-1.5-11.6-1.25-25.8.25-13.95 2.05-24.7l.25-.45 6.6-5q4.65-3.25 8.5-5.65l.35-.15q6.25-.25 17.55 2.75 10.2 2.75 19.35 6.6m1.35 16.5q-1.5-9.15-3.05-14.35-9.05-3.8-18.6-6.4-10.45-2.85-16.3-2.65-6.45 4.05-13.15 9.75-1.65 9.35-1.7 24.05-.05 13.35 1.15 23.15 7.55 2.25 18.1 4.25 10.05 1.85 16.2 2.3 5.3-4.85 11.1-11.6 5.35-6.25 8.4-10.85-.5-7.85-2.15-17.65"/><path fill="#0d131a" d="m212 330.85.4.45q1.8 5.05 3.25 13.15 1.15 6.45 1.6 11.8l-.05.3q-1.7 4.65-5.5 11.4-3.85 6.65-8.4 12.9l-4.15-.2q4.65-6.4 8.8-13.4 4.4-7.45 6-11.9-1.2-14.8-3.8-22.6-4.8-1.75-10.55-2.8l-16.05-2.1q-4.75 3.8-10.95 10.35-1.25 3.9-1.75 13.75-.35 7.3-.5 22.75l-3.6-1.05q.1-13.35.95-23.15.85-9.7 2.25-14.05l.15-.3q7.25-7.5 12.4-10.55l.45-.1q9.9.95 16.1 2.05 7.6 1.3 12.95 3.3m4.1 61.15 2.45-2.3q2.65 1.85 4.65 4.75 1.85 2.7 2.75 5.75l2.6 8.25 2.9 8.25q1.2 3.2.8 7.05-.4 4.2-2.55 6.75-19.25 22.8-21.65 24.95-1.4 1.3-7.75 4.3-6.25 2.9-9.75 4l-.25.05q-2 0-12.25-3.3l3.3-1.45 4.85 1.3 3.65.55q3.4-1.05 8.45-3.5 4.95-2.4 6.2-3.55l9.55-10.6 12.15-14.1q2.3-2.7 2.75-6.65.4-3.15-.4-5.2-2.65-7.05-4.95-15.1-.8-2.7-2.9-5.6-2.15-2.9-4.6-4.6"/><path fill="#0d131a" d="M167.55 434.45q4.75-8.55 13.65-8.75 8.7-.2 13.65 7.5 4.05 6.25 2.9 13.85-1.15 7.5-6.35 10.3-3.75 2.05-10.1 4.3-6.2 2.25-11.1 3.4-6.55 1.5-9.35-1.05-2.6-2.4-1.6-8.05.65-3.8 3.05-10.05 2.45-6.4 5.25-11.45m24.25 0q-4-6.2-11.05-5.65-7.25.5-11.25 7.75-2.75 5-4.8 10.2-2.1 5.3-2.7 8.85t1.5 5.35q2.25 1.9 6.65.9 4.7-1.1 9.75-2.95t8.8-3.9q4.45-2.4 5.4-9.05.9-6.6-2.3-11.5"/><path fill="#0d131a" d="M125.8 440.4q5.55 2.65 11.4 2.65l.25.05q13.6 4.95 24.1 9.4l-.75 2.5-11.45-4.2-13.35-4.75q-3.05-.05-8.05-1.5-4.35-1.25-7.5-2.75z"/><path fill="#0d131a" d="M137.4 417.15q4.55 8.5 2.8 15.4-1.5 6.1-7 8.3-3.65 1.5-10.75 3.15-7.35 1.7-12 2.05-6.05.5-8.1-2.5-2-2.9.05-8.5 4-10.6 9.45-19.6 4.15-6.85 13-6.2 8.75.65 12.55 7.9m-6.7 21.15q5-1.95 6.25-7.6 1.3-6.05-2.7-12.75-3.25-5.4-10.2-5.5t-10.15 5.15q-5.45 9.1-8.6 17.6-1.3 3.6.1 5.7 1.45 2.1 5 1.8 4.7-.35 10.8-1.7 6.1-1.3 9.5-2.7"/><path fill="#0d131a" d="m138.65 393.45 4.7-3.1 2.9-2.9q3.6-4.25 6.2-8.15l2.75 2.3q-1.4 2.1-6.55 8l-2.95 3.2-4.95 3.45-8.7 4.2-9.4 4.35q-3.15 1.5-4.9 3.5-2.5 2.8-4.5 8.55l-2.85 3.4q1.2-8.3 4.4-12.8 2.25-3.15 6.15-4.9 2.9-1.3 9.25-4.6z"/><path fill="#0d131a" d="m134.9 364.55 4.1-.55q4.7 6.2 11.8 12.7 6.75 6.25 12.45 9.8 2 1.25 1.7 1.75-.3.45-2.5-.5-5.45-2.35-14.25-9.95-8-6.9-13.3-13.25"/><path fill="#0d131a" d="m126.15 292.9 1.45-2.2q1.05 3.75 7.5 8.55 6.5 4.85 16.9 9.6l.45.6q.65 11 .05 25.65-.6 14.8-2.15 24.55l-.25.45q-2.4 1.9-6.5 3.45-3.7 1.4-7.1 1.9h-.25q-11.85-2.8-26.65-19.9l-.15-.35q-1.25-5.9-2.5-22.2l2.3-.35q.9 12.05 2.75 21.1 12.7 14.75 24.35 18.35 6-.85 11.05-4.7 1.15-7.45 1.8-21.15.65-14.3.3-25.15-6.65-3.05-13.2-7.8-7.85-5.7-10.15-10.4"/><path fill="#0d131a" d="m122.05 306.75.85-2.45q9.05 9.35 17.4 13.85.35.25.35.6.9 8.25 1.05 22.15.15 11.75-.2 18.9l-.15.35-3.05 4.25-2.75-1.5 3.1-4.55-.05-20.3q-.25-12.55-.8-17.85-4.7-3.05-8.85-6.75zM85.9 340.6q-.2-1.3.4-1.55.55-.25 1 1 3.3 9.1 13.4 13.7 8.65 4 19.9 8.1 11.95 4.35 19.3 6.05l4.4 4.95q-8.95-2.25-22.6-7.2-14.65-5.3-22.05-9.25-6.2-3.3-9.1-6.25-3.8-3.9-4.65-9.55m6.3-23.15 2.25 2.6q-2.75 2.1-4.5 5.1-1.9 3.1-2.4 6.6-.2 1.35-.85 1.25t-.65-1.5q.2-8.65 6.15-14.05"/><path fill="#0d131a" d="M7.2 291.05q-2.25 9.8-3.55 20.95-1.15 9.3-1.3 16.65 1.1 5.55 4.8 19l4.05 14.6q4.55 4.55 11.2 10.35 6 5.25 9.35 7.75l26.05 6.05 22.55 4.45q9.55-2.3 23.85-6.85 11.9-3.8 19.15-6.5l8.4-10.35 2.25.4-4.45 6.5-4.4 5.65-.3.2-19.9 6.95Q89.55 392 80.2 394.2h-.25q-6.1-.85-22.9-4.5-16-3.5-26.5-6.2l-.3-.15q-3.05-2.25-9.6-8.15L9.1 364.35l-.2-.35-4.05-15.45Q1.1 334.2 0 328.7v-.15q.2-8 1.25-17.9 1.4-12.4 3.65-22.2.1-.45.5-.55 8.1-2.25 23.1-11.55 14.7-9.7 17.4-11.3l.45-.1 23.7 1.35.3.05 2.4 1.7 2.05 1.4.95 2.85q-1.4-.95-5.9-3.2l-23.4-1.2-17.25 11.4q-14.8 9.55-22 11.75"/><path fill="#0d131a" d="M14.8 294.75q-1.1-1.25-.7-1.7.4-.5 1.65.6 4.2 3.8 12.6 7.1 7.7 3.1 12.7 3.5 2.35-1.1 8.1-2.95 6-1.95 10-2.85l.55.1q2.4 1.5 8.9 4.85l8.25 4.3 3.2-1.6 3.2-1.75 1.65 2.7-3.85 1.9-3.9 1.65-.65-.05q-12.25-6.6-17.5-9.9-4 1-9.85 2.9-5.6 1.9-7.75 2.9l-.35.1q-5.4-.4-13.4-3.7-9.1-3.7-12.85-8.1"/><path fill="#0d131a" d="m74.6 308.1 2.75 1.8q-5.65 9.5-19.6 38.2-1.05 2.1-1.55 1.85-.55-.3.2-2.5 2.8-8.1 8.9-21 5.25-11.15 9.3-18.35m-36.35 55.45q-5.75-.6-15.3-4.05-9.3-3.35-15.7-6.95l-.65-3.6q6.2 3.5 16.7 7.25 10.65 3.8 16.15 4.4l.45.2q4.35 4.35 9.1 7 5.6.8 10.7 2.25l6.65 2.2.2.1 5.55 4.8q3.95 3.7 6.5 6.85 1 1.25.65 1.75-.35.45-1.6-.65-9.45-8.3-12.5-10.65-6.9-2.4-17.1-3.85l-.25-.1q-5.5-2.9-9.55-6.95M290.5 84.2q0-1.05.7-1.7.6-.65 1.4-.65.9 0 1.4.75.5.7.5 1.6t-.55 1.55q-.6.65-1.5.65-.8 0-1.4-.65-.55-.65-.55-1.55"/></svg>