<svg xmlns="http://www.w3.org/2000/svg" width="663" height="620" viewBox="-1.6 -0.9 662.7 620.4"><path fill="#717071" d="m198.2 563.15-6.65-5.1 2.85-37.5 259.65-11.25 3.75 42.7.45 8.2q.15 4.45-.1 7.65-3.5-6.25-14.9-7.85-12.8-1.85-31.1 3.15-17.5 4.8-26.4 13.95-7.2 7.4-6.65 14.4-4.2-2.95-9.75-8.45l-7.3-7.4q-6.45 2.7-26.35 5l-30.6 2.65q-3.85.25-6.05 1.6-1.5.85-2.95 2.9-2.4 3.25-5.3 7.85-20.1 5.15-41.55 2.15-21.7-3-43-14.1-6.3-17.05-8.05-20.55"/><path fill="#00add1" d="M569.55 53.35Q568.4 57.2 567 64.3l-2.9 14.15q2.2-7.3 7.4-19.6 5.6-13.15 9.2-18.85 1.45 12.7 9.95 16.9 7.85 3.85 17.4-1.1-7.95 11.1-13.95 24.1-5.7 12.25-8.3 23.2 6.1-12.25 13.9-23.65 7.15-10.4 13.7-17.15.9 12.65 7.3 18 4.55 3.8 13.4 4.45-12.1 12.2-22.1 29.2-9.05 15.45-19.15 39.85-8.1 19.6-13.5 68.05-1.15 10.35-4.05 40.85-2.4 25.05-4.15 38.2-5.75 43.3-20.5 70.3-19.85 36.3-56.85 46.1 10.85 18.7 8.65 38.95-2.2 20.05-16.5 35.8 2.25 3.55 7 7 5.2 3.8 10.05 4.75 5.35 1.1 7.5 4.8 2.25 3.95.15 9.9-2 5.6-8 7.1-5.1 1.3-9.65-.65-7.3-3.1-22.7-14.5 2.75 6.8 9.75 14.25 6.15 6.5 11.6 9.65 5.35 3.1 7.3 7.7 2.2 5.25-1.25 10.3-4.35 6.45-12.25 4-5.5-1.7-14.95-8.9-1.8 2.5-5.95 3.6l-7.55.35q-8.85-1.5-18.45-10.55-9.45-8.95-14.65-20.4-6.7 17.3-17.75 25.3-9.5 6.9-19.6 5.45-4.7 9.55-10.9 11.35-4.6 1.35-8.7-1.55-3.45-2.45-4.25-5.95-.95-4.15 1.9-9.35-3.7-.15-7.75-5.15-3.9-4.75-5.55-10.7.35 7.65-.85 14.85-1.6 9.2-5.45 14.5-3.8 5.3-8.25 5.45-3.1.1-7.2-2.5-3.2-2.05-4-5.35-.8-3.2.7-7.35 1.4-4 1.9-8.2.4-3.85.25-10.2-3.35 2.4-10.9 5.5-6.65 2.7-11.25 3.9.4 1.8 1.6 4.65l3.1 6.7q1.65 3.45.85 6.35-.75 2.7-3.8 5.55-2.85 2.75-7.5 2.55-4.45-.2-9.3-2.9-.4 2.75-3 4.65-2.3 1.7-5.25 2.2-6.65 1.1-12.75-4.15-5.85-4.95-9.15-13.9-.3 4.35-2.4 9.5-2.1 5-4.05 6.4-3.55 2.45-9-.3-5.2-2.6-7.65-7.35-2.35 7.95-6.85 12.15-4.95 4.55-11.55 3.7-7.75-.95-8.6-6.35-.65-4.4 3.3-12.85-4.1-.95-8.3-4.1-3.95-2.95-6.55-6.65-6.25 12.45-13.4 16.4-6.35 3.5-12.25-.15-5.35-3.3-4.8-9.9.5-6.45 6.35-13-6.55-3.8-11.35-9.4-3.65 5.9-8.45 11.35-5.4 6.15-10.95 10.2-9.1 6.6-18.4-2.15-3.1-3-1.85-8.4 1.35-5.75 6.55-8.25 5.3-2.6 10.85-9 5.25-6.15 9.3-14.1-11.4-6.4-13.1-16.2-1.5-8.75 4.7-18.45-4.65-1-7.8-3.8-2.9-2.6-3.55-5.8-15.25 17.7-28.95 45.2-14.3 28.8-21.75 58.35-3.05-8.1-11.5-11.05-9.35-3.3-18.85 3.05l-1.35 4.7q-4.5-9.6-13.45-11.4-7.85-1.6-15.55 2.95l1.6-4.5q-3.4-4.6-7.2-6.3-3.9-1.75-8.7-.75 15.95-49.35 68.75-81.7 16.75-10.3 26.75-17.25 14.7-10.25 29.6-23-5.25-16.85-1.6-32.6 3.6-15.6 13.35-19.4-2.45-15.6 2.4-31.4 6.6-21.4 24.9-30.55 0-17.5 11.25-35 12.7-19.75 31.95-24.9 1.6-16.9 11.3-29.05 8.95-11.15 23.1-16.3 13.75-4.95 28.75-3.1 15.45 1.9 28.15 10.6 7.25-12 20.6-18.25 12.2-5.75 26.45-5.35 13.95.35 25.05 6.35 11.7 6.35 16.3 16.95 16.6 3.35 27.6 13.75 12.5 11.8 13.5 29.4 24.85 5.75 35.8 29.95 9.65 21.25 4.75 45.5 12.95 8.95 17.95 27.3 4.65 17.3.5 35.25 27.75-8.5 40.75-39.05 8.05-18.95 12.05-54.2 2.3-20.65-1.95-70.1-2.45-28.4-7.85-72.8-4.05-33.3-3.45-60.35.65-32 7.85-49.05 4.6 8.05 12.15 9.9 8.15 2 17.3-4.1"/><path fill="#717071" d="M324.3 279.75q9.4.65 15 8.65 3.1 4.5 7.3 13.65 7.05 11.4 17.8 12.85 7 .9 16.05-2.65 1.35 15.65-10.35 35.95-5.45-2.3-18.15 2.7-7.75 3-22.75 10.95-16.6 8.8-44.95-1-7.9-8.2-12.95-18.45-7.3-14.65-5.45-28.2 20.1-.2 36.45-21.35 5.3-6.9 11.05-10.25 5.55-3.25 10.95-2.85"/><path fill="#e9545d" d="M5.5 545.4q5.15-.45 9.2 1.35 4.7 2.05 6.65 6.7l-1.7 4.5q9.65-5.2 17.25-3.25 7.75 2 11.95 11.2l.95-4q9.2-6.5 17.6-4.3 7.9 2.05 13.35 11.2-1.8 5.35-3.3 13.9-1.4 7.9-2.25 16.65-.75 8.1-4.9 12.5-3.9 4.2-9.55 3.75-11.2-.8-13.95-14.25-1.8-8.75.1-23.95l-1.75-.55L42.1 587 38 601.05q-2.5 8.5-6.15 12.25-4.6 4.8-11.8 3.25-7.05-1.5-8.7-9.35-1.2-5.35.1-16.2-8.35-5.45-9.2-20.8-.75-12.6 3.25-24.8M575.9 3.5q4.45 2.8 5.55 9.2.95 5.8-1.1 11l-4.6 11.6q-3.2 8.6-5.8 17.65-7.9 6.65-17.25 4.3-9.05-2.25-12.95-10.85 3.2-12.35 7.35-22.9 4.05-10.3 7.4-14.85 3.1-4.25 8.95-6.2Q570.35.1 575.9 3.5m33.95 2.85q4.85-2.95 11.45-2.5 6.2.4 9.7 3.25 3.65 2.9 4.35 9.15.8 6.85-3.35 11.7l-11.1 11.6Q613 47.9 608.05 55.8q-11.35 3.6-18.35-.2-7.3-4-8.6-15.5 8.65-13.05 16.2-21.9 7.45-8.7 12.55-11.85m39.75 35.3q5.05 1.25 7.75 5.35 2.6 3.85 1.15 9.85-1.4 5.8-5.45 9.3-8.25 7.1-19 18.65-11.6-1.15-16-6.3-4-4.7-4.5-16 5.9-5.65 13.1-11.35 7.65-6.05 11.6-7.95 5.9-2.85 11.35-1.55m-369.1 566.6q-4.9 3.75-13.15 4.9-8.35 1.15-20.5-.4-11.95-1.5-22.4-4.9-8.8-2.9-13.4-11.35-1.1-2-5-13.45 15.2 10.25 38.35 13.95 24.15 3.85 46.4-1.35-5.8 9.1-10.3 12.6m99.05-16.65q-2.35-10.8 14.3-20.3 12.6-7.15 27.2-9.95 12.5-2.4 21.55-1.45 11.75 1.2 15.55 7.95.35 8.5-8 15.05-4.5 3.5-15.5 8.45-11.65 5.3-33.8 7.35-6.85.65-12.55-1.65-4.05-1.6-8.75-5.45"/><path fill="#0093b2" d="M128.7 394.7q3.05-18.2 13.9-22.8l-.4-4.35q6.55 5.8 14.95 3.4 7.7-2.2 10.9-8.85.5 12.85 9.3 22.2-4.9 12.05-9.1 24.1-3.2-1.3-7.35-4.4-4-2.95-6.75-5.9-2.95 4.85-10.35 12.8-6.95 7.5-13.15 12.75-4.65-12.7-1.95-28.95m177 88.85q1.35 2.95 5.65 4.4 3.85 1.3 8.85 1.05 4.85-.25 8.5-1.9 3.9-1.75 4.6-4.4 6.75 7.35 15.85 8.95 9.65 1.7 17-4.25 8.15-1.4 15.9-6.25 9.1-5.7 11.5-12.95 8.4 4.6 21.55 1.45 13.75-3.3 16.85-12.05 1.1 3.95 4.1 6 2.8 1.9 6.3 1.65 3.5-.2 6.4-2.45 3.05-2.4 4.35-6.35 4.05.95 9.85-1.25 6.3-2.35 11.65-7.5 13.85-13.2 13.35-35.5 5.75 3.65 9.8 12.05 4.3 8.8 5.05 19.65 1.95 26.7-16.85 48.15l5.65 5.5q3.75 3.3 6.5 4.3-5.4 2.55-7.95 8.9-2.85 6.9.25 13.05-13.65-8.85-20.3-13.8 2.5 5.55 6.25 10.75 3.3 4.6 6.7 7.75-2.65.7-5.65 3.1-3.35 2.65-5.25 6-1.35-3.05-3.6-4.75-.8-.6-4.3-2.3-8.4-4.3-11.45-8.5-4.75 5.2-10.9 6.65-7.3 1.75-14.65-2.55l-2.95-5.3-2.05 4.1q-4.95 4.3-14.55 2.55-9.8-1.8-11.3-7.8-5.65 9.3-10 12.9-3.9 3.3-4.8 7.35-1.35 5.85 4.8 10.85-3.15 6.7-7.05 9.95-5.7 4.8-11.7.65-3.55-2.45-5-6.45-1.85-4.95 1.15-9.15-3.95-2-6.25-4.35-3.5-3.65-6.05-10.3-3.8 5.75-12 5.95-8.3.2-10.9-5.7-4.05 2.8-10.75 5.7-7.6 3.25-11.9 3.45 1.35 3.6 3.1 7.15 1.5 3 2.2 5.15 1.35 4.05.2 7.35-1.45 4.25-6.65 5.85-4.85 1.5-8.85-.2-3.9-2.4-5.55-3.3.15-2.15-3-6.8-4.35-6.3-6.1-10.55-3.25 3.6-9.45 4.15-7.4.65-12.55-4.7.45 5 1.75 7.9l-2.35 9.3q-2.15 5.95-5.9 6.85-4.05 1.05-9.2-2.35-4.7-3.15-5.45-6.15l1.75-6.75q-5.45 4.1-13 2.85-7.75-1.25-9.9-7.25l-2.35 8.5q-5.55-2.45-8.35-4.1-5.2-3.15-7.5-6.75 3.95-7.3 5.55-13.5-5.85 4.05-13.9 1.15-8.15-2.95-7.5-9.4-4.4 10.7-7.65 14.7-10.75-8.05-14.85-13.85-6.1-8.55-6.3-21.1l-2.95 5q-9.35-6.05-11.95-12.35-3.75-9.05 3.15-22.3 8.3.2 15.4-3.45 5.3-2.75 13-9.65 1 5.5 5.3 11 4.2 5.35 10.3 9.15 14.15 8.75 27.05 3.7.9 4.4 6.9 5.8t9.55-1.85q5.9 6.2 13.1 8.65 8.8 2.95 15.5-1.65 2.4 3.9 9.3 3.75 7-.2 9.9-4.5 6.7 2.8 16-1.3 9.35-4.15 12-11.15"/><path fill="#c94850" d="M443.95 572.35q7.55 1.5 10.6 6.35-9.3 9.85-28 15.8-19 6-34.4 3.6.9-8.4 7.2-13.85 6.85-5.95 21.5-9.9 13.9-3.8 23.1-2"/><path fill="#0093b2" d="M124.8 429.25Q138.6 417 143 412.5q6.45-6.6 11.15-14.4 5.35 6.25 14.1 10.3-2.85 11.55-7.6 20.25-5.1 9.35-13.55 17.8-11.05-16.55-22.3-17.2m372.15-36.6q-.3 4.45 3.55 7.4 4.1 3.15 10.65 2.7 16.95-1.3 34.7-24.6-6.1 13.75-20.8 24.5-14.45 10.6-31.15 13.95l-7.15-6.75q4.35-9.8 5.7-16.45z"/><path fill="#e9545d" d="M35.45 555.6q-3.85-.85-8.5.55-4.4 1.35-7.75 4.15l.25-2.2q3-3.2 7.6-4.85 4.8-1.7 8.95-.75 4.3.95 8.15 4.7 3.7 3.6 4.95 7.9l-.8 2.15q-1.95-4.3-5.35-7.45-3.55-3.3-7.5-4.2m40.5 4.75q3.55 3.55 4.85 8.25l-.65 2.4q-1.65-4.35-5.15-7.8-3.65-3.6-7.85-4.55-4.4-1-9.5.6-4.85 1.55-8.35 4.8l.45-2.5q3.5-3.85 8.3-5.4 4.8-1.6 9.7-.5 4.6 1.1 8.2 4.7"/><path fill="#0d131a" d="M292.45 233.85q.9 1.7.15 2.2-.7.5-1.8-1.1-3.9-5.6-12.65-8.15-8.3-2.4-15.25-.65-2.1.5-2.25-.35t1.85-1.65q7.6-2.95 16.55-.4 9.55 2.7 13.4 10.1m155.65 56.1q-.9-1.6-.15-2.05t1.8 1.05q6.3 9.2 5.05 23-1.2 13.25-8.6 24.95-7.35 11.55-19.95 18-12.3 6.3-24.1 5.05l-3.7-3.55q16.45 1.25 29.75-6.7 9.8-5.85 15.45-14.75 7.1-11.1 8.35-23.45 1.25-12.45-3.9-21.55m12.6 69.5q-1.15-1.1-.55-1.85.65-.75 1.95.2 7.2 5.25 8.55 17.05 1.3 11.5-3.65 20.9-1.05 1.95-2.05 1.6-1-.3-.2-2.35 3.6-9.25 2.85-19.1-.9-10.85-6.9-16.45m-91.1 171.5q3.6-11.15 5.2-21.25l1.55 2.75q-1.35 10.2-4.5 20.3-2.95 9.55-5.9 13.95-5.05 7.7 1.7 12.9 3.2 2.5 6.95 1.95 3.35-.5 6-3.15 1.35-1.3 2.85-3.9l2.6-4.7 2.15 1.4-2.7 5.05q-1.55 2.75-3 4.15-3.75 3.75-8.3 4.25-4.65.45-8.7-2.7-4.05-3.1-4.65-7.4-.6-4.35 2.5-8.95 2.8-4.25 6.25-14.65"/><path fill="#e9545d" d="m635.05 83.45-2.1 2.1q-10.75-.05-16.4-6.75-5.4-6.4-3.5-15.2l2.35-1.8q-1.4 7.8 3.15 14.05 5.35 7.35 16.5 7.6"/><path fill="#0d131a" d="M352.95 190.05q-15.4-.65-28.65 6-13.1 6.6-19.2 17.85l-1.9-1.35q5.45-12.55 19.8-19.7 13.75-6.85 30.15-6.15 14.6.6 25.65 7.2 11.65 6.95 15 18.1l-2.55-.25q-4.3-9.8-14.45-15.5-10-5.6-23.85-6.2"/><path fill="#0d131a" d="M286.25 201.45q18.1 5.3 26.75 19.7 1.2 1.95.7 2.4-.55.45-1.95-1.35-10.6-13-26.65-17.6-15.9-4.55-32.55.5-16.4 4.95-26.55 16.7-10.35 11.9-11.95 28.3l-2.35.7q-.4-17.55 11.35-31.15 10.9-12.6 28.4-17.9 17.6-5.3 34.8-.3"/><path fill="#0d131a" d="M195.4 261.4q-9.4 7.95-15.8 19.4-13.2 23.65-4.8 46.45.85 2.2-.25 2.55t-2.1-1.8q-5.05-10.95-3.85-24.35 1.2-12.95 7.8-24.8 6.65-11.95 16.6-20 10.6-8.6 22.05-10.2 3-.4 3.15.7.1 1.15-2.85 1.75-10.25 2.1-19.95 10.3"/><path fill="#0d131a" d="M146.75 390.15q-7.3-13.45-6.85-30.2.5-17.5 8.1-31.3 8.05-14.6 21.45-19.9l.5 2.65q-11.6 5.35-18.95 18.85-7.25 13.4-7.7 30-.45 16 6.1 28.2 6.55 12.25 19.05 18.9l-.7 2.15q-13.45-5.45-21-19.35"/><path fill="#0d131a" d="M127.5 391.9q3.7-16.15 14.05-21.6l1.05 3.45q-9.15 5.05-12.5 19.85-3.35 14.9 1.45 29.85l-1.75 1.6q-6.05-16.6-2.3-33.15"/><path fill="#e9545d" d="m6.1 546.75.2-1.75q5.15-2.2 10.2.9 4.5 2.8 5.35 6.9L20.6 555q-1.15-3.8-5.6-6.5-4.6-2.8-8.9-1.75"/><path fill="#0d131a" d="M178.95 328.15q8.9-11.3 19.45-16.75 2-1.05 2.55-.2t-1.4 1.95q-10.2 6-18.25 16.6-9.1 11.9-11.1 24.5-1.35 8.35.6 15.3 1.95 7.2 7.55 13.5l-1.6 3.3q-6.75-6.25-9.15-15.4-2.1-8.05-.6-17.3 2.05-13 11.95-25.5m37.55-4.05q2.6-1.15 3-.35.45.8-2 2.2Q207 332 201.4 344.7q-6.2 14.15-2.45 29.4l-2 2.85q-6.05-14.45.95-31.4 6.6-16 18.6-21.45"/><path fill="#0d131a" d="M172.85 392.65q3.95-9.3 9.15-18.3 1.15-2 1.95-1.5.8.45-.35 2.45-4.85 8.35-8.65 18.15-3.45 8.95-7.95 23.95-6.95 23.3-29.25 37.8-4 2.65-4.75 6.5-.65 3.55 1.55 6.8 2.15 3.25 6.1 4.55 4.3 1.45 9-.15 12.75-4.3 21.9-14.9 11.75-13.6 16.2-36.1l1.15 4.6q-8.5 39.65-38.35 49.15-6.15 1.95-11.6.05-4.95-1.75-7.6-5.9-2.7-4.15-1.7-8.7 1.05-4.95 6.3-8.35 8-5.3 13.35-10.85 10.55-10.95 14.95-25.1 4.35-14.1 8.6-24.15"/><path fill="#0d131a" d="M210.35 359.2q1.75-1.4 2.35-.7.55.7-1.15 2.25-16.45 15.3-21.2 36-4.2 18.3 1.5 35.05 4.1 12.1 11.8 19.25 7.9 7.4 18.15 8.15 4.05.3 7.3-1.75 2.95-1.9 4.25-5 1.25-3.1.1-5.9-1.25-3.05-5.1-4.55-5.4-2.05-9.65-7.3-4.25-5.35-6.2-12.6-3.25-12.2-.15-25.3 3.25-13.55 12.35-23.85 1.6-1.8 2.3-1.25t-.8 2.45q-8.45 10.75-11.3 23.35-2.8 12.35.35 24.1Q217 428.35 221 433q3.7 4.3 8.9 6.4 4.65 1.9 6.55 6 1.8 3.8.6 7.9-1.2 4.25-5.05 6.7-4.3 2.75-10.5 2.3-10.7-.8-19.6-9-8.75-8.05-13-20.55-5.85-17.3-1.2-36.95 5.35-22.4 22.65-36.6M137.1 484.7q1.3-5.6 4.9-10.55l3.2.65q-3.35 4.9-4.8 10.1-1.6 5.75-.4 10.45 2.2 8.25 11.4 12.85l-1.05 2.65q-4.55-2.25-8.05-6.15t-4.9-8.35q-1.7-5.5-.3-11.65"/><path fill="#0d131a" d="m163 529.6 1.85 2.1q-3.25 5.7-8.2 11.2-4.9 5.4-10.3 9.3-5.9 4.3-12.2 3.8-5.55-.4-9.05-4.1-4.05-4.3-2.95-9.65 1.05-5.3 6.5-9.2 8.15-5.85 13.6-12.3 9-10.55 12.7-24.05l-.8 8.6q-2.8 10.6-10.55 19.2-4.6 5.1-12.65 10.9-4.05 2.9-4.75 6.95-.65 3.95 2.15 6.95 2.55 2.7 6.95 3.2 5.15.5 9.8-2.85 4.95-3.65 9.9-9.25 4.55-5.15 8-10.8"/><path fill="#0d131a" d="M164.55 474.25q1.5-1.75 2.25-1.15.75.55-.6 2.45-13 18.2-9.5 36.6 3 16 19.6 26.8l-1.8 2.35q-8.75-5.3-14.3-12.8-5.45-7.35-7-15.7-1.8-9.25 1.1-19.5 3-10.75 10.25-19.05m10 19.75q.7-2.6 1.8-2.3 1.1.25.55 2.85-1.2 5.75 1.25 10.75 2.4 4.85 8 8.5l-1 3.8q-6.25-4.05-9.25-10.05-3.25-6.65-1.35-13.55"/><path fill="#0d131a" d="M206.05 514.2q.1-2.25 1-2.2.95.05.95 2.3.05 10.65-3.65 22.4-4.25 13.4-11.75 22.4-4.15 5.05-9.35 6.5-4.75 1.35-9.55-.55-4.95-1.95-6.3-8.3-1.5-7.2 4-13.8 10.45-12.45 15.95-38.45.4-2.05 1.4-1.85t.65 2.25q-4.4 26.1-15.65 39.65-4.1 4.85-3.2 10.5.8 5.25 4.6 6.75 3.65 1.45 7.7.45 4.4-1.1 7.5-4.9 7.3-8.75 11.55-21.75 3.65-10.95 4.15-21.4m33.8 17.2 1.95 2.15q1.2 9.05-.7 19.05-1.8 9.75-5.85 17.05-2.8 5.1-7.65 7.25-5.2 2.25-11.35.4-5.15-1.5-6.6-5.7-1.6-4.45 1.55-10.5 6.8-13.15 6.15-35.55-.05-2.4.8-2.5.9-.1 1.1 2.3 1.05 10.9-.55 20.9-1.5 9.3-4.95 16-2.2 4.3-1.2 7.6 1 3.35 4.9 4.5 4.35 1.3 9-.45 4.55-1.75 6.6-5.5 4.05-7.25 5.9-16.65 1.95-10.05.9-20.35"/><path fill="#0d131a" d="m215.05 555.9-.8 2.25q-5.5-1-9.65-3.75-4.25-2.85-6.5-7.2l1.85-2.75q2 4.25 6.05 7.35 4.15 3.2 9.05 4.1m43-46.1q.45-2.45 1.4-2.3t.6 2.6q-2.35 16.3-.7 29.1 1.95 15 9.35 23.65 6.25 7.35 15.15 5.4 4.1-.95 4.75-4.35.65-3.2-2-6.25-6.25-7.3-9-20.7-2.5-12.1-1.55-25.8.2-2.55 1.1-2.5.95 0 .85 2.55-.5 15.4 2.65 27.1 2.95 11.05 8.9 17.7 3.95 4.45 3 9.05-1 4.95-7.45 6.4-5.6 1.3-10-.1-4.75-1.45-8.75-6.15-7.55-8.8-9.45-26.05-1.65-14.7 1.15-29.35"/><path fill="#0d131a" d="M236.1 529.45q-9.4-13.75-6.05-29.6.7-3.15 1.6-3 .95.15.4 3.3-2.55 15.15 5.95 27.1 7.75 10.95 20.75 14.5l.25 3.2q-13.95-2.45-22.9-15.5m1.45 31.15 1.2-2.45q1.55 5.35 7.05 8 5.3 2.55 8.4.1 2.3-1.75 3.8-6.2 1.55-4.5 1.95-10.9l1.7 3.2q0 5.8-1.45 10.15-1.45 4.2-3.95 6.2-4.2 3.35-10.7.85-6.65-2.65-8-8.95m46.25-45.05q2.2-4.9 2.2-10.9 0-2.35.95-2.4.9-.05.9 2.3 0 6.9-2.25 12.35-2.65 6.35-7.9 9.6l-.4-2.75q4.25-3.2 6.5-8.2m22.75-21.8q.1-2.05.95-2.05.9 0 .9 2.05-.1 16.7-6.7 31.25-7.4 16.15-19.5 21l-1.05-2.75q11.55-4.75 18.55-19.7 6.2-13.35 6.85-29.8m-1.85 46.6 2.35-.4q.55 1.85 2.15 5.3l2.75 5.45q2.55 4.6 1.4 8.7-1.1 3.95-5.4 6.65-3.9 2.45-8.75 1.9-5.15-.6-8.9-4.6l.45-2.5q3.25 2.75 6.65 3.7 4.7 1.35 8.65-1.1t4.7-5.35q.85-3-1.5-7.2-1.15-2.1-2.6-5.45z"/><path fill="#0d131a" d="M307.1 541.3q-10.8 1.95-17.4-1.45l1.7-2.35q6.25 2.8 16.1 1.05 11.05-2 20.9-9l.3 2.05q-9.8 7.6-21.6 9.7m7.1-21.2q-7.3 2.3-12.25 1.05l1-2.55q4.45.95 11.15-1.2 5.55-1.8 11.25-5.25l.7 2.25q-5.4 3.7-11.85 5.7"/><path fill="#0d131a" d="M317.85 497.45q-1.1-1.6-.35-2.1.75-.55 1.9 1 7 9.45 9.55 26.45 2.5 16.7-1.25 27.25-1.55 4.45-.75 7.05t4.4 4.7q3.4 1.95 6.65 1.1 2.8-.8 5.1-3.6 8-9.6 6.9-30.2-1-19.05-8.05-31.1-1.1-1.9-.35-2.35.8-.5 1.95 1.4 7.75 12.7 9 32.6 1.3 21.5-7.25 31.75-3.05 3.6-6.85 4.7-4.35 1.2-8.7-1.35-4.9-2.85-5.9-5.95-1.15-3.5 1.2-10.2 3.55-10 1.35-26-2.2-16.15-8.55-25.15"/><path fill="#0d131a" d="m350.8 528 .4-4.7q1.6 11.05 6.8 17.1 4.35 5.05 7.85 3.95l-1.15 2.35q-4.65 1-9.15-5.4-4.3-6.1-4.75-13.3m21.95-4.15-.55 3.45q-3.25-4.15-2.75-15.5.45-9.65 2.35-14.2l.45 3.8q-.7 4-.75 10.4-.05 7.7 1.25 12.05"/><path fill="#0d131a" d="M370.8 494.2q.1-2.25.95-2.2t.85 2.3q0 10.25 5.3 18.6 5.85 9.2 15.85 11.75L392 527.1q-10.45-2.7-16.35-12.85-5.3-9.15-4.85-20.05m21.4-4.2q-.2-1.75.65-1.95.8-.15 1.15 1.6 1 5 2.7 8.95 2.2 4.95 5.1 7.15l-.6 2.5q-3.5-2.5-6.1-8.2-2.3-5-2.9-10.05"/><path fill="#0d131a" d="M401.85 500.35q.4-2 1.3-1.8.85.25.6 2.25-1.15 8.7-4.6 16.5-4.45 9.95-12 16.6-6.9 6.1-2.85 12.4 2.05 3.15 5 3.95 2.85.7 6.9-.7 13.55-4.7 22-19.05 7.65-13.05 7.95-27.8.05-2.15.95-2.15.9-.05.95 2.1.35 15.3-8.1 29.55-9 15.2-23.15 20.05-10.3 3.55-15.35-4.25-2.6-4-1.5-8.25 1.05-4.05 5.4-7.85 7.25-6.35 11.6-15.85 3.15-6.8 4.9-15.7"/><path fill="#0d131a" d="M470.55 538.95q-.65-3.3-3.95-5-11-5.45-17.35-14.2-6.4-8.75-7.8-20.35-.2-1.45.7-1.5.95-.05 1.15 1.4 3.25 21.2 25.15 32.1 4.3 2.15 5.3 6.8 1.05 4.75-1.95 9.65-2.65 4.35-8.15 5.4-5.35 1-11.05-1.55-8.4-3.8-14.25-8.75-10.2-8.65-14.65-21.4l1.3-2.95q4.4 12.5 14.4 21.4 6.4 5.65 14.1 9.15 4.7 2.15 9.25 1.15 4.3-.95 6.2-4.1 2.35-3.85 1.6-7.25"/><path fill="#0d131a" d="M497.95 544.05q-1-4.2-4.85-6.45-10.6-6.35-17.45-15.3-6.95-9.1-9.35-20.25l.7-3.8q2.6 11.25 10.1 21.2 7.4 9.75 17.8 15.9 4.8 2.85 6.1 8.2 1.25 5.15-1.4 9.3-2.85 4.45-6.95 5.55-3.75.95-8.75-.95-3.8-1.45-7.8-4.1-3.8-2.5-6.45-5.2l1.55-2.15q2.7 2.7 6.75 5.15 3.55 2.2 6.95 3.45 3.55 1.4 6 1 3.4-.55 5.95-4.5 2-3.15 1.1-7.05"/><path fill="#0d131a" d="M466 487.55q-.05-2.15.8-2.15.9 0 1.05 2.15.9 12.6-1.95 22.7-2.8 9.95-8.7 15.6l-2.35-1.95q12.1-11.6 11.15-36.35m43.15 29.8q1.35-4.4.15-7.6-1.15-3.15-4.35-3.85-10.45-2.5-17.65-10.25-7.45-8-9.55-19.65-.3-1.7.5-1.85.85-.2 1.25 1.5 2.8 11.3 9.55 18.25 6.6 6.75 16.7 9.15 4.8 1.1 6.6 5.3 1.8 4.15.05 9.85-1.95 6.3-7.35 8.6-5.05 2.15-10.85 0-6.1-2.2-13.35-7.3-4.55-3.2-11.25-8.85l-.65-3.6q15.1 13.1 26.1 17.15 4.45 1.6 8.55-.3 4.15-1.95 5.55-6.55"/><path fill="#0d131a" d="M487.25 408.7q7.4 4.95 11.95 14.8 4.45 9.45 5.2 21.1.95 14.45-3.35 27.1-4.55 13.35-14.1 21.65l-1.85-2.15q8.4-8.45 12.45-20.75 4.05-12.15 3.1-25.85-.7-11.3-4.35-19.7-3.75-8.7-10.35-13.75z"/><path fill="#0d131a" d="M487.45 408q8.1 15.65 5.85 34-2.35 18.7-14.2 28.75-1.5 1.3-2.2.55-.7-.7.75-2.05 10.75-9.7 12.55-27.15 1.6-15.75-4.25-30.95z"/><path fill="#0d131a" d="m473.25 332.05 1.1-3.45q8.4 5.55 13.95 15.25 5.35 9.4 7.15 21.1 3.9 25.25-8.8 47.05-1.1 1.9-1.95 1.45-.9-.45.1-2.4 11.8-23 6.7-47.65-2.2-10.45-7.2-18.9-4.8-8.15-11.05-12.45"/><path fill="#e9545d" d="m571.15 48.8-.35 3.25q-6 9.2-17.25 7.1-4.8-.9-8.4-3.8-3.8-3-4.9-7.1l1.35-2.85q4 9.6 13.3 10.7t16.25-7.3m8.85-7.1 2.2-3.2q-.35 4.9 2.05 9.2 2.25 4.1 6.35 6.55 9.3 5.55 18.25-.8l-2.35 3.65q-8.55 5.55-18.15-.85-4.05-2.65-6.35-6.6-2.4-4.1-2-7.95"/><path fill="#0d131a" d="m433.85 256.55-.3-2.75q13 1.8 23.7 11.9 9.85 9.25 15.65 23.4 6.4 15.55 4.8 31.7-1.65 16.85-11.5 27.8-1.8 2-2.5 1.45t.85-2.75q8.7-12.55 9.95-27.5 1.2-14.7-4.95-29.6-5.55-13.4-14.85-22.3-9.6-9.25-20.85-11.35"/><path fill="#0d131a" d="M406.3 214.4q13.15 5.9 20.95 17.45 8.2 12.05 7.65 26.3-.1 2.3-1.1 2.25t-1.1-2.35q-.4-13.45-8-24.3-7.4-10.65-19.95-16.35-12.65-5.7-25.2-4.25-12.8 1.5-23.35 10.25-1.4 1.15-2.05.4-.65-.8.65-2.05 10.1-9.8 24.5-11.6 13.75-1.75 27 4.25"/><path fill="#0d131a" d="m369.8 213.6-3.05 2.05q-5.4-2.25-12.35-1.35-6.8.9-13.25 4.6-14.75 8.45-17.65 23.85-.5 2.55-1.3 2.35-.85-.25-.55-2.8.85-7.35 5.65-14.25 4.6-6.7 11.6-11.15 7.2-4.65 15.05-5.65 8.45-1.05 15.85 2.35m16.6 23.3q1.85.25 1.85 1.2-.05 1-1.9.75-16.4-2-27.3 4.85-10.85 6.85-11.95 19.7l-3.25-1.55q1.6-13.8 14-20.7 11.9-6.65 28.55-4.25m-25.5 43.75-1.6-2.75q2.9-11.8 13.25-17.65 10.3-5.85 22.5-2.7 1.45.4 1.25 1.25-.2.9-1.65.6-12.15-2.25-21.6 3.9-9.1 6-12.15 17.35"/><path fill="#0d131a" d="M396.55 291.4q-9.25-18.7-25.25-28.2l2.05-1.8q14.8 8.15 24.95 27.25 9.6 18 8.7 32.5-.7 11.15-6.95 24.45-3.8 8.2-11.15 19.75-5.25 8.3-4.05 14.05.75 3.55 3.65 5.45l.3.65q-1.5 11.8-6.55 19.8-5.45 8.65-17.1 16.3-15.45 10.2-22.05 20.15-6.5 9.7-5 20.1.85 6 4.9 11.25 3.95 5.05 9.85 8.1 6 3.15 12.5 3.35 6.95.25 13-3.05 13.4-7.3 14.75-20.3 1.35-13.35-11.65-22.7l1.6-1.8q14.7 10.35 13 25.85-.75 6.9-4.95 12.85-4.25 6.05-11.15 9.75-13.75 7.45-28.9-.55-6.7-3.55-11.1-9.3-4.6-5.95-5.5-12.75-1.5-11.45 4.5-21 6.55-10.4 24-22.15 11.2-7.55 16.35-14.85 5.25-7.55 6.7-18.35-4.7-4.1-4.65-9.6.1-5.35 4.8-12.7 7.95-12.5 11.15-19.15 6.2-12.95 6.6-23.7.55-13.7-7.35-29.65"/><path fill="#0d131a" d="M426.65 282.5q-.55-2.15.35-2.35t1.6 1.95q5.6 16.4-.55 31.95-6.9 17.35-24.9 20.2l.8-3.5q15.6-3.7 21.55-18.65 5.35-13.35 1.15-29.6m4.85 97.55q-10.1-7.65-22.6-8.95l-1.05-2.5q12.85.75 23.7 8.35 10.4 7.25 17.15 19.55 6.8 12.3 8.55 27.2 1.85 15.65-2.2 31.4-1.75 6.65-6.2 10.05-4.05 3.05-8.75 2.4-4.75-.7-7.5-4.8-3.1-4.5-2.4-11.4 1.5-15.4-.65-27.35-3.7-20.5-17.3-26.05l.3-2.65q14.65 4.8 19.35 25.6 3.15 13.9 1.45 30.35-.5 4.9 1.85 8.25 2.1 3.05 5.6 3.65 3.55.6 6.6-1.65 3.35-2.5 4.65-7.6 3.7-14.35 2.3-28.85-1.35-14.05-7.3-25.8-6-11.9-15.55-19.2"/><path fill="#0d131a" d="m393.9 355.25 1.5-2.5q8.15 4.1 13.25 12.9 4.85 8.35 5.85 18.9 1.05 10.55-2 20.4-3.25 10.45-10.35 17.55l-16.9 14Q372.8 447.2 370 454.95q-2.05 5.7-.3 8.75 1.65 2.95 5.85 2.1 1.9-.35 2.2.8.35 1.2-1.45 1.85-6.6 2.3-9.65-2.5-3.05-4.75.3-12.25 3.65-8.05 16.15-19.05 13.4-10.95 16.85-14.5 6.55-6.8 9.5-16.65 2.7-9.3 1.7-19.15t-5.4-17.5q-4.6-8.05-11.85-11.6M363 285.5q-4.7-4.85-7.25-10.45-2.95-6.5-9.7-10.55-6.5-3.9-14.95-4.65-19-1.7-33.55 11.4-1.7 1.5-2.35.8-.7-.65.9-2.25 7.8-7.8 17.8-11.2 9.1-3.05 18.5-1.95 9 1.05 16.05 5.55 7.1 4.6 10.25 11.4 2.6 5.7 6.5 10.15 3.8 4.3 9.45 8.2l.2.15q9.35 13.3 6.4 31.2-2 12.2-9.35 25.2-5.65 9.95-7.6 14.15-4.05 8.75-4.85 15.75-2.2 18.75 18.15 30.7l-1.9 1.95q-20.35-11.25-19.85-28.55.35-12.4 13.55-35.65 6.85-12.1 9.05-23 3.5-17.45-5.25-29.9-6.2-4.25-10.2-8.45"/><path fill="#0d131a" d="M278.55 252.2q-15.45-6.1-27.3.65-1.95 1.15-2.4.25-.5-.85 1.45-2 12.45-7.45 29.25-1.5 15.6 5.55 22 17.05l-2.35 1.95q-6.65-10.9-20.65-16.4m-24.8 17.2q7-2.05 13.75-1.2 5.4.7 10.05 3.6t7.35 7.25q.85 1.4.15 1.9t-1.7-.8q-5.65-7.4-16.15-8.8-6.35-.85-12.8.85-6.65 1.7-11.95 5.8-1.4 1.1-1.9.4-.45-.7.8-1.95 4.95-4.8 12.4-7.05"/><path fill="#0d131a" d="m263.4 269.35 2.35.6q-11.75 8.95-17.4 24.35-5.75 15.6-2.85 31.65 2.25 12.45 7.85 22.25 4.8 8.5 12.85 16.15 9 8.6 10.9 16.15 1.8 7-2.7 11.75-4.3 4.5-11.15 2.95-7.15-1.65-7.35-8.4-.05-1.4.85-1.45.9-.1 1.05 1.3.45 4.6 5.8 5.65 5.15 1 8.25-2.25 4.45-4.75 1.25-12.1-2.45-5.6-9.1-12.3-9-8.95-13.25-16.05-5.7-9.4-8.35-22.85-3.15-16.05 2.8-32.7 6.05-17 18.2-24.7"/><path fill="#0d131a" d="M274.65 285.25q1.6-1.9 2.35-1.35.7.55-.8 2.55-9.35 12.8-9.05 32.3.35 22.35 14.8 37.25 13.2 13.55 17.25 23.8 6.9 17.3-6 32.4-9.35 10.9-26.15 10.1-16.85-.85-25.2-12.85-6.3-9.1-6.35-18.85-.05-8.7 4.85-15.75 4.65-6.75 11.75-9.2 7.5-2.6 14.5.75l3.55 4.25q-7.3-4.15-14.9-2.35-7.15 1.7-11.9 7.8-4.9 6.3-5.05 14.45-.15 9 5.7 17.4 3.25 4.65 9.55 7.5 6 2.7 13.15 3.15 16.1.9 23.85-8.6 12-14.75 5.5-30.35-3.5-8.3-16.2-21.5-15.35-15.85-15.65-39.25-.1-10 2.75-19.05 2.8-8.85 7.7-14.6"/><path fill="#0d131a" d="M324.45 278.1q12.05.65 17.8 13.25 6.9 15.2 14.85 19.95 9.45 5.65 23.3-.85l.3 2.95q-14.75 6.65-25.35-.6-7.75-5.3-15.15-20.2-5.4-10.8-16.55-11.1-11.5-.35-19.75 10.95-7.2 9.85-15.8 15.95-10.75 7.6-21.5 7.5v-2.95q10.95 0 21.15-7.35 7.7-5.55 14.7-15.1 9.55-13.1 22-12.4m5.3 81.55q10.75-5.8 20.15-9.45 15.6-6.1 21.25-3.65l-1.3 2.35q-7.65-2.6-38.65 13.95-10.1 5.45-21.8 4.75-9.3-.55-24.15-5.6l-1-2.8q15.4 4.6 24.25 5.05 11.5.6 21.25-4.6m2.35 21.9q1.7-.65 2.05.15.35.85-1.25 1.75-7.2 3.9-17.45 4.3-10.1.4-16.45-2.75v-3.45q6.1 3.05 15.5 3.15 9.75.1 17.6-3.15M197.5 564.1l-6.65-5 1.5-1.85 6.65 4.8.85 1.1q1.85 4.1 7.15 18 4.95 12.85 6.15 15.25 2.2 4.45 7.05 7.35 4.2 2.5 11.1 4.2 7.2 1.85 17.6 3 12.05 1.35 19.4.55 4.55-.5 7.7-2.05 3.15-1.5 5.8-4.4 3.2-3.55 7.2-8.95 4.3-5.85 6.1-9.3 1.4-2.6 4.15-3.75 2.1-.85 5.85-1.1l29.75-2.75q18.9-2.2 26.75-4.6l2.2 2.35q-10.4 3.25-30.1 5.3l-28.8 2.25q-3.15.2-4.75.95-2.05.95-3.3 3.35-2 3.75-5.8 9.25-3.95 5.7-6.9 8.95-6.15 6.8-15.45 7.8-7.45.85-20.1-.45-11.15-1.1-18.3-2.85-7-1.8-12.2-5.05-5.65-3.6-8-8.35-1.15-2.35-5.8-15.65-4.9-14-6.8-18.35"/><path fill="#0d131a" d="m206.5 584.55-.95-2.9q19.45 11.15 41.5 14.5 23 3.5 45.4-2.05l-1.3 2.2q-21.05 6.15-45.5 2.45-23.4-3.55-39.15-14.2m152.05-11.85q-.9-1.25-.05-1.75.85-.55 1.8.65 5.85 7 12.6 13.1 7 6.3 12.6 9.55 3.2 1.85 7.85 2.3 3.65.35 10.1-.05 10.05-.65 21.55-3.8 13.5-3.7 20.9-9 5.5-4 7.25-5.9 3-3.3 3.5-7.8.4-3.5.35-8.2l-.4-9.9 2.45.1q.95 11.45.05 18.75-.55 5-3.7 9-2.45 3.2-7.6 6.9-7.85 5.65-22.4 9.65-12.1 3.3-21.95 3.95-12.75.8-19.65-3.35-6.2-3.7-13-10.2-7-6.65-12.25-14"/><path fill="#0d131a" d="M391 574.95q-9 6.3-10.15 11.85-1.05 5.05 3.1 8.35l-4-1.75q-1.45-1.2-1.95-3.3-.5-1.95-.1-4.05 1.4-6.95 11.75-14.2 9.9-6.95 22.3-10.3 15.85-4.3 28.7-3.35 14.15 1.05 17.3 8.2l-.15 3.2q-3.9-7.45-17.7-8.2-11.8-.6-27.4 3.65-12.4 3.35-21.7 9.9"/><path fill="#0d131a" d="M395.55 590.1q-1.4 1.65-1.95 1.1-.6-.5.55-2.35 6-10.15 24.45-15.5 18.4-5.3 29.95-.4 1.75.8 1.55 1.65-.25.8-2.1.3-11.6-3.35-28.4 1.55-16.8 4.85-24.05 13.65M648.8 40.55q5.8 1.05 9.05 5.8T660 57q-1.2 6.5-7.45 11.8-20.35 17.15-34.4 38.2-13.1 19.6-22.15 44.85-7.7 21.5-12.1 48.45-3.3 20.1-5.5 49.15-2.3 30.85-4.75 48.25-4.15 29.9-11.7 51.75-20.25 58.75-67.75 68.7l-1.5-2.4q46.5-10.35 66.1-68 7.3-21.4 11.35-50.85 2.25-16.55 4.6-47.6 2.2-28.9 5.6-49.8 4.55-27.4 12.3-49.05 8.9-24.7 22.9-45.2Q629.8 84.4 650.4 66.3q5.25-4.6 6.55-10 1.15-4.9-1.2-8.7-2.35-3.75-6.95-4.45-5.05-.8-10.8 2.55-14.5 8.55-26.55 21.85-11.6 12.85-25.15 34.85l1.35-6.75q11.5-19.6 23.6-32.5 11.2-12 24.5-19.8 6.75-3.95 13.05-2.8"/><path fill="#0d131a" d="M576.4 2.2q5.05 3.05 6.6 8.85 1.7 6.35-1.6 13.45-8 17.2-13.1 39.4-5.4 23.45-6.4 48.05-.15 2.95-1.35 3-1.25 0-1.25-2.95-.2-23.65 6.4-50.25 4.95-19.9 12.85-38.6 2.7-6.35 1.4-11.6-1.2-4.85-5.15-7.15t-8.75-1q-5.25 1.45-9.45 6.8-5.6 7.1-9.9 20.25-3.85 11.85-9.7 38.6-4.35 20.1-2.35 54.1 1 17.4 6.5 66.6 3.8 33.9 5.25 53 2.2 29.25 1.35 50.5-1.4 36.2-13.1 62.2-14.65 32.45-42.25 39.6l.4-2.85q25.3-8.65 38.85-39.3 11.1-25.25 12.45-60.05.85-21.2-1.3-50.05-1.4-18.9-5.15-52.6-5-44.25-6.15-67.2-1.7-34.15 2.2-54.95 4.15-21.9 10.15-38.85 5.3-15.05 10.25-21.3Q559 1.65 565.5.3q5.9-1.2 10.9 1.9"/><path fill="#0d131a" d="M633.95 16.4q-.35-4.8-4.2-8.05t-9.2-3.3q-5.9-.1-11.1 3.8-16 12.05-27.3 31.9Q572 58.7 562.5 89l1.8-12.7q6.4-23.3 19.15-43 11.95-18.55 25.1-27.4 6.35-4.3 13.3-3.85 6.35.4 10.8 4.5 4.45 4.15 4.65 9.95.2 6.45-5.05 12.55l-11.3 13q-8.35 9.9-14.4 19.05-17.8 26.9-19.7 52.3-.2 3.2-1.45 3.05t-1.2-3.3q.5-24.85 19.5-53.55 6.35-9.6 15.05-20l11.15-12.8q4.35-5.1 4.05-10.4m-480.4 380.9 1.75 1.55q-13.1 18.65-36.4 36.9-16.95 13.3-46.65 31.5-27.05 16.6-43.3 37.4Q12.3 525.95 4.9 554.2q-2.95 11.4-1.05 21.4 1.9 10.05 8 14.55l-.5 2.65q-7.3-3.7-10.1-14.95-2.85-11.5.6-24.7 7.45-28.5 24.55-50.3 16.7-21.25 44-38 30.75-18.9 46.7-31.1 23.55-18.05 36.45-36.45"/><path fill="#0d131a" d="M70.7 513.25q1.1-1.35 1.95-.75.8.6-.2 2-8.4 11.75-18.8 41.6-7.45 21.3-14.7 48.15-2 7.5-7.1 11.55-4.65 3.7-10.1 3.25-5.45-.5-8.9-4.95-3.8-4.9-3.6-12.95.55-21.05 10.65-47.8 10.05-26.55 23.45-42.9 1.55-1.9 2.4-1.25.8.6-.65 2.55-12.9 16.7-22.4 42.55-9.65 26.25-10.25 47-.15 6.3 2.8 10.1 2.65 3.5 6.9 3.85 4.2.35 7.85-2.6 4-3.2 5.7-9.2 8.85-31 14.85-47.85 10.55-29.85 20.15-42.35"/><path fill="#0d131a" d="m131.4 464.05.95 3q-7.35 7.1-16.1 21.4-8.95 14.6-17 32.8Q80.4 564.05 76.9 601q-1.25 13.25-11.55 16.35-4.3 1.3-8.65 0t-7.1-4.75q-8.85-11.2-2.5-43.45l2.9-4.45q-2.5 16.5-2.7 24.7-.25 14.25 4.5 20.25 2.05 2.6 5.45 3.7l6.85.3q8.25-2.1 9.3-13.05 3.55-37.45 23.05-80.9 8.4-18.7 17.75-33.6 9.3-14.75 17.2-22.05"/><path fill="#fff" d="M299.05 314.05q7.05.1 11.3 4.7 4.35 4.65 4.35 12.5 0 6.3-5.7 10.65-5.1 3.9-10.45 3.7-6.65-.25-10.8-4.65-4.2-4.45-4.55-11.7-.3-6.1 4.55-10.75 4.8-4.6 11.3-4.45m44.7-2.15q6.65-.25 11.1 4.75 4 4.5 4.15 10.3.15 5.75-3.7 10.5-4.3 5.3-11.1 5.5-6.85.25-10.9-4.65-3.65-4.45-3.65-10.9 0-6.25 3.65-10.6 3.95-4.7 10.45-4.9"/><path fill="#0d131a" d="M287.15 317.35q4.9-4.25 11.9-4.25 7.25 0 12 5.15 4.45 4.85 4.45 11.5 0 7.45-4.6 12.25-4.6 4.9-11.85 4.9-7.5 0-12.3-4.8-4.85-4.9-4.85-12.65 0-7.5 5.25-12.1m11.75-2.2q-6 0-10.25 4.3-4.3 4.25-4.3 10.3t4.3 10.3q4.25 4.25 10.25 4.25 6.05 0 10.3-4.25 4.3-4.25 4.3-10.3t-4.3-10.3q-4.25-4.3-10.3-4.3m33.45.75q4.7-4.95 11.85-4.95 6.9 0 11.5 4.55 4.7 4.65 4.7 11.9 0 7.5-5.2 12.4-4.75 4.4-10.8 4.4-7.2 0-11.8-4.65-4.65-4.75-4.75-12.3-.05-6.6 4.5-11.35m11.8-2.95q-5.65 0-9.85 4.25-4.2 4.3-4.2 10.2 0 6.1 4.3 10.35 4.15 4.1 9.75 4.1 5.65 0 9.85-4.2 4.2-4.3 4.2-10.25 0-5.9-4.2-10.2-4.2-4.25-9.85-4.25"/><path fill="#0d131a" d="M300.75 327.05q0 .75-.5 1.3-.55.55-1.15.55-.65 0-1.15-.55-.55-.55-.55-1.3t.55-1.25q.5-.55 1.15-.55.6 0 1.15.55.5.5.5 1.25M345.2 325q0 .75-.5 1.25l-1.1.5q-.6 0-1.1-.5-.55-.5-.55-1.25 0-.7.55-1.25.5-.5 1.1-.5t1.1.5q.5.55.5 1.25"/></svg>