<svg xmlns="http://www.w3.org/2000/svg" width="523" height="370" viewBox="-0.75 -1.45 522.95 369.9"><path fill="#e85377" d="M2.35 36.25Q1.2 25.05 2.9 17.6t5.85-9.25q12.4-5.35 33.7 15.3 19.6 18.95 32 44.15 5.7 11.55 4.4 27.8-1.4 17.85-11.25 21.55-10.8 4.05-24.5-4.7-11.55-7.35-23.5-22.5-14.65-27.9-17.25-53.7"/><path fill="#e85377" d="M93.65 16.15q17 16.6 23.7 32.45 6.45 15.4 6.4 29.9-.05 15.5-7.95 18.75-9 3.7-23.65-8.65Q78.6 77.25 74 65.4q-9.35-23.85-11.35-41.65-2-18 4.5-21.15 8.45-4.05 26.5 13.55"/><path fill="#fff" d="M79.25 95.25q.15-9.85-4.5-26.95 9.4 18.3 20.25 43.15 9.7 22.3 16.8 41.2-19.05 27.95-25.5 43.95-11.05-12.65-32.95-47.45-22.5-35.75-34.6-60.4 12.15 16.7 25.95 24.7 15.25 8.85 25.2 2.15 9.15-6.2 9.35-20.35"/><path fill="#fff" d="M96.85 92.1q14 9.5 20.7 4.3 6.45-5 6.25-18.2-.15-11.15-4.85-26.3 11.7 21.7 22.9 56.75 9.8 30.6 15.3 58.45-1.55 3.4-3.75 9l-3.55 8.8-27.9 8.95q-.2-17.8-16.95-59.2-11.35-28-29.9-65.8Q83.4 83 96.85 92.1"/><path fill="#0d131a" d="m111.4 39.65 6.15 9.45q7.9 16.95 7.35 31.45-.6 13.95-8.3 17.65-8.15 3.95-21.35-5.45-13.9-9.85-20.85-26.3l-2.2-7.5Q77 73.9 91.55 86.8q6.75 6 12.95 8.5 6.65 2.7 11 .6 3.5-1.7 5.45-6.95 1.95-5.35 1.8-12.9-.45-17.75-11.35-36.4"/><path fill="#0d131a" d="M36.4 19.95q-8.8-7.2-16.4-9.9-7.05-2.5-10.7-.4-3.9 2.2-5.35 9.55-1.5 7.4-.05 18.5 3.25 25.4 18.9 56.15Q33.75 115.3 48.15 139q19.7 32.5 38.65 57l-1 2.25Q66.05 173.2 45.85 140.7q-15.8-25.35-26.05-45.4Q3.7 63.8.6 36.9-.75 25.05 1 17 2.75 9 7.2 6.5q4.55-2.55 12.3-.2 8.3 2.45 17.75 9.75Q60.35 34 78.2 70.4q18.95 38.85 34.5 81.9l-1.2 1.55q-6.75-18.15-16.55-39.8-7.65-17-19.5-41.2-17-34.85-39.05-52.9"/><path fill="#0d131a" d="m19 89.45-1.85-6.2q8.7 16.45 24.5 26.8 15.9 10.4 25.55 5.6 8.05-4.05 10.1-17.4 2.45-15.65-6-35.7l4.25 7.2q6.3 17.2 3.9 30.95-2.2 13-10.95 17.35-9.4 4.75-24.15-3.6-15.1-8.5-25.35-25"/><path fill="#0d131a" d="M93.55 13.6q18.55 18.55 32.55 50.35 11.35 25.8 19.1 50.85 7.8 25.3 12.6 51.7l-1.2 1.75q-5.4-26.9-13.4-52.15-8-25.15-19.4-51.1-13.6-30.8-32.2-48.85-7.65-7.35-14.25-10.6-6.3-3.1-9.75-1.55-6.55 2.95-2.55 25.8 4.15 23.4 16.6 50.9L72.8 64.9Q62.45 39.7 60.85 21.45 59.3 3.85 66.4.75q4.7-2.05 11.8 1.3 7.2 3.4 15.35 11.55"/><path fill="#007b36" d="M432.75 60.85q-1.65 14.45-10.2 33.2-24.65 53.95-87.3 103.8l-78.6 60.05q-18.15 13.8-45.9 20.15-24.3 5.6-40.85 2.9 2.6-10.35.85-20.95-1.6-9.45-5.9-15.75-.55-9.05-9-18.5-9.25-10.45-23.1-15L129.2 191q17.3-6.1 36.8-10.5 17.8-4.05 29.6-5l34.9 7 6.25 2.25q15.4-5.1 38-19.9 22.3-14.55 46.05-34.9Q340.1 113.4 362 88.6l34-40.35q3.3-4.4 5.25-4.3 1.9.1 1.45 4.25-.65 5.3-2.85 11.4-2.5 6.7-6.5 13.1l2.8 5.9 8.2 3.15 14.2-20.7Q427.9 48 430.5 48.15q3.7.25 2.25 12.7M35.4 283q-2.95-8.85-.45-17.8 2.6-9 9.8-13.8 7.1-4.65 14.15-2.4 8.35 2.65 12.15 12.5 3.25 8.6 1.65 17.35-2.35 12.7-12.1 16.8-8.45 3.5-16.2-.75-6.15-3.35-9-11.9"/><path fill="#e85377" d="M49.8 219.4q7.35-4.7 14.85-6.2-8.2 7-9.45 17.7-1.3 10.8 5.45 18.45-9.55-3-17.4 3.25-7.6 6.1-9.5 17.35l-2.95 1.4q-7.5-21.95 5.65-39.7 5.4-7.25 13.35-12.25m47.35 48.9q17.5 3.8 30.15 2.35 36.4-4.2 37.55-26.4 3.2 4.9 5.1 11.15 2.15 7.15 1.9 14-.7 19.15-15 30.75-12.2 9.85-32.3 12.9-17.85 2.7-34.65-.1-16.45-2.7-27.7-10 4.1-5.85 4.35-12.6 6.55-5.55 6.65-17 .05-10.65-4.9-17.2 9.4 7.95 28.85 12.15m101.5 3.35q-8.3-5.4-4.6-15.6 3.15-8.65 10.1-12.8l16.6 5.2q1.15 4.55-.9 9.75-1.9 4.8-5.75 8.7-3.8 3.9-7.95 5.25-4.4 1.5-7.5-.5m52.9-81.45q.1-4.4 5.35-6.25 6.05-2.15 14.45 2.15 6.2 3.2 9.15 7 3.6 4.65 1.35 9.25l-5.85.75-6.55.8q-1.15-4.05-7.5-8.35-4.9-3.25-10.4-5.35m54.75-21q5.55 3.7 7.8 6.85 3.2 4.5.9 8.85-2.3 4.4-9.6 3.85-5.95-.45-10.85-3.2-4.75-2.65-8.5-7.3-4.5-5.55-2.1-8.7 3.1-4.1 10.05-4.05 6.75 0 12.3 3.7m35.85-17.05q3.5 4.75 1.4 9-2.15 4.3-9.05 4.55-5.9.25-11.75-2.25-5.9-2.55-9.45-6.85-4.15-5.05-1.8-9.3 2.7-4.9 10.3-5 6.55-.1 12 2.9 5.5 3.05 8.35 6.95m26.25-25.85q3.45 4.85 1.25 9.2-2.2 4.3-9.2 4.5-5.9.15-11.6-2.3-5.6-2.4-9.1-6.65-4.15-4.95-1.95-9.05 2.4-4.5 8.95-5.3 6.5-.85 13.05 2.55 5.65 2.9 8.6 7.05m58 69.8q27.05 2.2 40.45 9.05 7.9 4.05 10.05 8.7 2.7 5.7-4.8 10.5-11.9 7.65-34.9 10.35-15.2-5.25-28.7-7.8-10.1-1.9-20.7-2.55L368.65 223l-19.65-.7q-7.65-8.05 1.5-15.85 9.3-7.95 30.8-11.05 25-1 45.1.7"/><path fill="#e85377" d="M417.1 228.65q12.75 3.05 23.65 7.6 27.2 11.25 25.4 23.2-1.85 12.25-29.9 17.05-19.35 3.3-43.4 2.5-31.85-3.9-49.15-13-16.1-8.5-16-19.45.15-10.9 21.8-17 20.1-5.7 46.5-4.3 8.95.45 21.1 3.4"/><path fill="#fff" d="M33.75 269.95q-.65 3.8.3 8.75.85 4.15 2.25 6.95-.7 1.85-1.85 6.25l-1.75 7q-6.6-11.1-4.85-20.2 1.45-7.2 5.9-8.75M54.4 293.6q1.85-4.1 4.5-6.1 2.7-2.15 5.35-1.15 5.05 3.1-.15 13.8-5 10.2-10.9 12.75-3.1-9.75 1.2-19.3m300.55-65.4q-27.3 5.5-26.95 17.65.4 14.2 22.6 23.3 17.15 7.05 43.9 9.95-25-.15-65.55-6.8-35.25-5.75-74-14.95-27-6.35-41.05-10.75-19.05-6-28.45-12.3 5-3.05 12.65-6.5 6.6-3 13.05-5.4 25.1-2.8 91.35-1.5 60.3 1.15 92.8 4-20.8-.65-40.35 3.3"/><path fill="#fff" d="M350.15 206.45q-7.1 6.45-1.15 15.85-62.3-2.35-108.2-1.6l-8.15-2.5q-5.45-1.8-7.2-2.75 2.8-2.25 10.5-4.85l12.45-3.75q23.15-3.6 55.7-6.75 43.45-4.25 77.2-4.7-23.45 4.05-31.15 11.05M361.5 87.8l-7.05 9.05q-15.6-1.55-31.9-4.85-20.2-4.1-29.45-8.8-8.2-4.1-12.55-9.15-4.6-5.35-3.5-10.25 1.35-5.85 8.85-8 6.2-1.8 15.2-.75 12.55 1.5 30.3 11.6 15.45 8.8 30.1 21.15m144.2 31.35q6 3.2 9.45 8.25 3.35 4.9 2.6 8.9-.7 4.1-5.7 7.2-5.4 3.3-13.55 3.95-14.9 1.2-40.75-6.9-29.15-9.15-53.2-25.05l6.9-9.35q37.2-.55 58.1 2.25 21.35 2.9 36.15 10.75"/><path fill="#007b36" d="M132.75 210.75q11.7 4.35 20.7 12.95 10.2 9.8 11.4 20.55.65 5.85-3.85 11.7-4.6 5.95-13.25 9.95-20.75 9.55-49.6 2.65-27.5-6.6-37.8-19.85-7.3-9.4-5.15-20.15 1.65-8.15 8.7-14.45 7.55-6.75 17.85-7.9z"/><path fill="#3e3a39" d="M205.4 134.35q6.35-17.65 10.3-16.95 4.1.75 8.5 19.35 4.8 20.25 6.2 47.7-19.05 1.95-36.25 8.4-2.65 1-3.5 0-.7-.8-.15-3.15 8.05-36.3 14.9-55.35m-27.25 16.05q3.75 19.9 6.05 46.1-8.45 2.45-19.05 6.65-11.2 4.45-19.45 8.75-2.85 1.5-3.65 1.1-.9-.45-.35-3.9 3.9-25.45 11.45-52.7 9.2-33.2 15.15-32.35 5.05.75 9.85 26.35m-53.65 18.8q3.45 13.45 5.85 27.15 2.35 13.1 2.4 18.7-13.45.25-28.45 5.5-15.65 5.4-25.75 13.75-3.25 2.65-4.75 1.55-1.3-1-.7-4.2Q78.4 202.6 88.7 171q12.35-37.95 20-37.35 6.85.55 15.8 35.55M184.75 282l9.55-1.05q13.05 9.5 24.7 20.35 12.15 11.4 18.65 20.5-9.3 14.8-31.05 29.5-19.35 13.1-30.9 15.4 5.5-5.25 10.25-11.4l-5.85-3.45q-3.25-2.1-4.1-3.5l7.85.35 8.75-.1-5.4-3.75-4.95-4.1 9.35.5q5.35.75 8.75 1.85 7.65-7.65 11.8-12.8l6.55-9.05q-7.1-9.55-17.85-21.8-9.1-10.4-16.1-17.45"/><path fill="#3e3a39" d="m207.9 278.45 4.5-1.05q15.25 3.25 30.4 7.85 21.55 6.55 30.85 12.55-6.3 15.15-23.05 37.15-16.55 21.8-23.8 24.8l2.25-5.7 2.3-6.35q-9.8-4.05-11.75-5.35l15.45-2.1-9.2-4.45 1.45-1.7 12.55-1.6q3.8-4.1 8.7-14.6l6.85-14.65q-34.95-18.7-53.65-23.5z"/><path fill="#3e3a39" d="M266.15 270q18.35 1.3 29.25 3.85-2.8 17.5-11.75 39.85-10.3 25.7-19.45 31.5 1.7-7.35 2.65-13.05-7.5-2.35-9.55-3.3.75-.3 5-1.85l6.65-2.6q-5.5-2.2-8.25-3.55l.8-1.15q6.05-1.85 11.9-4.2 2.05-5.2 3.45-16.25l2-15.35q-36.45-8.7-53.5-10.15l6.1-2.3 5.65-2.45z"/><path fill="#00662a" d="M169.9 281.3q2.2-5.75 1.75-14.6-.45-9.45-3.85-16.3 14.95 1.3 28.6.55-3.1 5.5-3.15 10.8-.1 6.05 3.95 9.35 2.45 2 6.8 1.25 4.3-.8 8.35-3.9 10.05-7.75 8.2-20.15 18.7 5.95 36.35 9.45-12.05 10.5-35.55 17.35-25.65 7.5-51.45 6.2"/><path fill="#c94768" d="M197.2 271.1q-4.05-3.3-3.95-9.35.05-5.3 3.15-10.8 10.9-.55 24.15-2.65 1.85 12.4-8.2 20.15-4.05 3.1-8.35 3.9-4.35.75-6.8-1.25"/><path fill="#00662a" d="M433.4 54.65q-.2 4.75-2.65 14.2-3.45 13.4-4.7 17.1-3.15 9.1-9.55 20.3h-5.15l-6.7 9.3 4.2 3.2Q394.8 140.6 377.05 160q-19.65 21.55-41.9 37.8l-14.1.95-15.3 1.4q13.7-6.6 33.7-22.85 21.2-17.25 40.3-38.05 21.6-23.45 34.75-45.35 15.05-25.1 16.9-44.95 2.2.8 2 5.7M36.45 261.15q-.45 5.7 4.25 9.7 4.3 3.7 11 4.55t12.2-1.75q6.1-2.8 8.1-8.9 1.75 4.65.95 11.55-1 8.55-5.95 14.2 0-1.75-1.3-3.2-1.45-1.6-3.4-1.5-5.3.1-9.5 11.3-3.1.25-7-1.7-4.5-2.2-7.55-6.25-8.1-10.8-1.8-28"/><path fill="#00662a" d="m49.05 299.55-2.8-3.65q4.8 1.2 6.55 1.2l-.7 4.95q-1.35-.55-3.05-2.5m10.55 7.4 2.6-3.85q17.65 9.6 37.15 10.9 11.45.8 31.1-1.8Q114 319 92.8 317.25q-20.6-1.75-33.2-10.3"/><path fill="#c94768" d="M152.7 287.55q14.15-8.45 18.65-22.35 1.4 18.15-9.45 30.45-9.65 10.95-26.8 15.2-19.15 4.7-35.3 3.5-19.05-1.5-37.6-11.25 1.55-2.05 3-5.7 1.65-4 1.8-6.9l3.35-4.35q6.7 6.5 21.5 9.6 14.85 3.05 30.9 1.2 17.55-2 29.95-9.4M36.9 260q-2.5 5.5-3.15 10.1l-2.8 1.25q-3.6-11.1-2.35-21.3 1.2-9.45 5.5-12.4-1.1 5.65-.35 11.8.75 6.45 3.15 10.55"/><path fill="#0d131a" d="M52.7 294.9q1.65-5.45 5.2-8.25 3.5-2.8 6.75-1.45 3.05 1.25 3.1 5.75 0 4.35-2.65 9.35-3 5.6-6.8 9.75-3.7 4.1-5.15 3.55-1.55-.55-1.95-6.05-.4-6.15 1.5-12.65m12.8-3.05q.2-3.55-1.75-4.45t-4.65 1.2q-3.15 2.35-4.55 7.1-1.4 3.6-1.55 9.2-.15 5.15.7 6.8 1.3-.75 3.5-3.3 3.15-3.65 5.85-8.65 2.3-4.25 2.45-7.9m260.75-158.2q7.65 1.7 17.7 7.1 16.15 8.7 21.65 15.1 4.65 5.45 3.45 11.95l-2.75 2.4q1.95-6.95-2.4-12.35-5.05-6.4-21.6-15.25-10.7-5.75-18.95-7.3-7.7-1.4-11 1.15l2.8-2.55q3.95-1.85 11.1-.25M512.1 122q10.1 8.5 7.3 16.5-2.5 7.1-14.45 9.65-13.7 2.95-34.45-1.8-15.65-3.6-35.9-12.85-19.35-8.8-30.25-16.85-1.05-.8-.45-1.75l3.4-4.85q2.45-3.35 3.45-4.4l.4-.2q41.8-2.1 69.65 3.35 20.3 4 31.3 13.2m-9.1 23.45q10.95-2.1 13.25-8.4 2.1-5.95-6.2-13.2-10-8.7-29.7-12.55-29.3-5.8-68.5-4.1-.9.95-3.05 4l-2.9 4.3q10.5 7.65 30.15 16.05 19.65 8.35 35.55 11.95 19 4.35 31.4 1.95m-134.2-20q3.65 5.25 1.8 10-1.8 4.5-8.5 5.55-6.7 1-13.75-2.2-8.8-4.05-11.2-9.7-1.6-3.75-.2-7.3 1.8-4.45 8.25-5.7 6.4-1.25 13.15 1.45 6.85 2.75 10.45 7.9m.25 9.15q1.55-3.8-1.85-8.25t-9.7-6.95q-6.35-2.5-11.85-1.65-5.55.9-7.05 4.65-1.55 3.8 1.25 7.6 2.8 3.7 9.4 6.8 6.45 2.95 12.55 2.15 5.8-.75 7.25-4.35m-75.2 51.8q-5.1-2.65-8.45-7.05-4.15-5.4-2.2-9.8 1.85-4.2 8.05-4.85 6.25-.7 13.45 2.6 6.95 3.15 10.35 8.5 3.45 5.4 1 9.65-2.65 4.6-10.25 4.25-6.2-.35-11.95-3.3m-2.4-19.85q-5.15.55-6.6 3.75-1.6 3.45 2.1 7.95 3.05 3.75 7.95 6.3 5.45 2.85 10.9 3.2 6.5.45 8.65-3.3 1.8-3.05-.9-7.45-3-4.85-9.75-7.95-6.8-3.1-12.35-2.5m-189.6 128.5q2.55-6.85.2-15.35-2.2-7.85-6.7-11.5l7.4 1.3q4.2 4.3 5.75 11.95 1.65 8.2-1 15.2-2.5 6.7-9 11.1-5.75 3.85-12.2 4.6l-11.9-3.5q6.55 1.5 14.85-1.85 9.65-3.9 12.6-11.95"/><path fill="#0d131a" d="M106 294.75q25.35.25 44.4-9.3 19.35-9.7 20.2-23.65l1.05 8.3q-3.15 13.15-23.65 22.4-20.3 9.15-44.4 8.7zm-49.3-69.6-1.85 4.45q-8.05.25-15 5.65-6.65 5.15-10.8 13.75l3-9.85q3.9-6.7 10.85-10.45 6.45-3.45 13.8-3.55"/><path fill="#0d131a" d="M44.95 224.8q2.95-3.6 5.95-5.65l8-4.05q-3.75 2.25-7.4 6-3.7 3.8-5.9 7.65l-5.4 3q1.9-3.6 4.75-6.95"/><path fill="#0d131a" d="m68.25 211.1-2.8 2.1Q41.3 221 33 239.2q-7.05 15.4-.95 31.9l-1.7 1.7q-7.45-20 .4-35.85 9.15-18.5 37.5-25.85m-9.3 97.1 1.3-1.85q12.6 7.05 28 9.4 18.2 2.8 35.9-1.85l8.6-1.55q-17.9 7.65-39.45 5.8-19.35-1.65-34.35-9.95M43.6 294.3l3.65 2q1.85 2.2 5.15 4.85l-.35 2.6q-5.85-4.55-8.45-9.45"/><path fill="#0d131a" d="m61.65 304.4 1-1.75q11.45 5.6 24.35 8.3 16.9 3.55 33.6 1.4 15.3-1.95 26.2-7.15 11.6-5.6 17.25-14.4 6.35-9.8 6.55-21.5t-5.75-23.95l.15-3.3q7.4 12.8 7.9 26.1.5 13.5-6.3 24.15-5.85 9.1-18.15 15.2-11.9 5.9-27.25 7.85-17 2.15-34.4-1.8-13.45-3.05-25.15-9.15M35.2 267.35q-2.15 7.3 1.15 15.75 3.45 8.85 10.5 11.8 3.15 1.3 6.35 1.3l-.25 2.1q-3.6 0-7-1.4-8-3.35-11.65-13.35-3.35-9.15-1.15-17.15 3.65-13.3 13.55-17.6 8-3.45 14.45-.1 10.1 5.3 12.6 17.35 1.9 9.2-.8 17.1-1.9 6-6.35 9.5l-.05-2.9q2.7-3.2 4.15-7.7 2.55-7.8.55-16.25-2.5-10.3-11.25-14.9-6.1-3.2-13.2.6-8.2 4.35-11.6 15.85"/><path fill="#0d131a" d="m34 268.5-.25 2.85q-3.95.7-4.95 8.55-1.15 8.7 3.7 17.3 1.4-7.7 3.15-12.7l1.55 2.35q-1.45 3.65-3 11.65-.3 1.5-1.05 1.7-.8.25-1.7-1.15Q25.2 289.4 26.7 279q.65-4.4 2.6-7.25 2-2.9 4.7-3.25"/><path fill="#0d131a" d="M34.2 278.05v-1.45q4.1 1.15 9.65 5.15 6 4.3 11.15 10.2l-.8 1.45q-4.5-4.75-10.6-9.4-5.75-4.35-9.4-5.95M93.45 152.7q8.15-20.05 14.75-20.55 7.7-.55 16.15 31.3 6.9 25.85 9.6 51.05.2 1.85-1.9 1.85-10.55 0-24.6 4.5-16.65 5.35-28.6 14.5-4 3.05-6.1 1.45-2-1.6-.95-6.4 11.55-52.85 21.65-77.7m29.7 16.75q-8.85-34.75-14.6-34.75-6.8 0-17.95 34.8-7.9 24.65-16.7 62.25-.55 2.3.3 2.75.8.45 2.85-1.1 11.3-8.6 27.65-14.2 15.1-5.15 26.75-5.3-.15-12.45-8.3-44.45"/><path fill="#0d131a" d="M133 209.45q9.4 3.5 17.15 9.55 7.6 6 11.8 13.1 4.3 7.4 3.95 14.3-.45 7.5-6.4 13.2-13.9 13.35-42.35 12.55-27.8-.75-48.25-14-3.55-5.7-9.35-8.05-6.4-8.05-5.9-17.8.5-10.35 8.8-18.25 5.9-5.55 17.45-8.55l-.85 1.4-1.05 1.35q-9.25 2.7-13.95 7.1-9.1 8.5-8 19.4 1.1 10.45 10.6 17.75 9.35 7.2 22.3 11.6 12.45 4.25 25.7 5.05 13.35.85 24.5-1.95 11.75-2.9 18.75-9.35 11-10.1 1.95-24.7-8.5-13.7-27.05-20.9z"/><path fill="#0d131a" d="M179.75 149.8q4.85 24.05 5.55 46.75 0 .7-.3 1l-.85.4q-7.3 1.8-19 6.55-11.75 4.7-19.75 9.05-2.9 1.55-4.35.65-1.4-.9-1-3.45 4.75-28.95 11.7-53.85 9.4-33.85 16.75-33.95 5.8-.05 11.25 26.85m3.25 45.95q.35-9.9-4.45-38.35-5.4-31.9-10.25-31.9-4.15 0-11.65 23.8-7.95 25.5-14.05 61.3-.15.9.2 1.05l1.3-.45q7.6-4.15 19.7-8.9 11.4-4.45 19.2-6.55m21.05-61.2q6.7-18.75 11.4-18.75 5.95 0 11.2 26.7 4.55 23.45 4.7 42.4 0 1-.95 1-6.75 0-18.3 2.7-10.8 2.5-17.9 5.4-6.6 2.65-5-4.55 8-35.85 14.85-54.9m20.35 8.3q-4.9-24.4-9.1-24-3.7.3-11.25 24.15-6.3 19.8-12.8 47.45-.2 1.1.15 1.4.45.4 2.2-.3 6.95-2.8 17.6-5.2 11.25-2.55 18.25-2.65-.5-18.1-5.05-40.85"/><path fill="#0d131a" d="m230.15 183.6.1-2q9.35 3 14.05 4.75 9.1 3.35 15.35 6.8 3.95 2.2 6.7 4.65 3.5 3.1 4.45 6.05l-2.35.4q-1.15-2.9-4.05-5.45-2.2-1.9-5.95-3.95-11.3-6.2-28.3-11.25m-85.35 11.35-13.35-3.4-.15-1.65q7.1 1.3 14.1 3.3zm23.65 6.85q23.8 10.8 34.65 23.6l-2.5 1.35q-13.75-14.9-34.4-23.95z"/><path fill="#0d131a" d="M146.85 186.55q-8.65 2.6-17.2 5.9l-.45-2.25q8.55-3.1 18.2-5.8zm35.5-10.25 12.35-1.25-.5 1.6-11.75 1.25zm9.3 6.95-8.1-3.05.05-1.7 8.55 3.15zm16.5 5.1q25.1 11.15 33.95 20.65l-2.9.7q-10.55-10.5-33.6-20.6zm47.95 68.95 2.25.45Q245.15 269.1 219 276.8q-27.7 8.15-49.3 5.7l.5-2.35q21.2 2.4 47.3-5 24.55-6.9 38.6-17.85M396.45 45.95q2.9-3.75 5.4-2.65 2.6 1.1 1.75 6.6-.85 5.85-2.75 10.95-1.85 4.85-6.45 13.8l-1.55-2.85q7.65-12.5 8.9-22.6.45-3.9-.75-4.35-1.2-.5-3.75 2.85-33.4 44-68.75 77.05-47.6 44.5-90.45 60.55l-3.55-1.45q43.9-16.05 92.65-61.25 34.7-32.15 69.3-76.65"/><path fill="#0d131a" d="M198.75 280.2h-2.85q1.55-.6 4-2.85l4.85-5.45 2.75-.65q-1.85 2.6-4.3 5.1-2.55 2.7-4.45 3.85"/><path fill="#0d131a" d="m203.7 242.9 1.85.9q-5.35 2.65-8.4 7.75-4.1 6.95-2.85 12.9 1.2 5.6 6.15 6.8 3.85.9 8.3-1.3 5.05-2.55 8.5-8.25 2.1-3.45 2.7-7.1.55-3.35-.15-6.2l2 .45q1.05 6.9-3.15 13.75-3.7 6.15-9.45 9.1-5.2 2.6-9.45 1.6-5.8-1.35-7.35-7.9-1.65-6.9 2.95-14.7 2.7-4.6 8.35-7.8m44.05 12.35 2.15.55q-4.75 7.9-12.25 13.1l-6.05 2q9.6-5.05 16.15-15.65m32.9-59.6q-2.45-5.25-9.45-8.6-8.05-3.8-13.85-2.1-5.3 1.55-4.6 5.8l-1.95-.6q-.15-4.95 5.45-6.95 6.45-2.4 16.05 2.15 6.9 3.25 9.85 8.7 2.75 5.1.5 8.8h-2.3q2.5-2.45.3-7.2m-1.9-12.75q-17-10.05-21.65-7.4l2.9-1.75q3.35-1.65 19.15 7.1 16.8 9.25 25.9 19.25l-3.35.3q-6.85-8-22.95-17.5m65.7 7.2-2.4 1.65q-.55-5.55-8.9-12.55-5.8-4.95-15.1-10.25-8.95-5.1-17.55-8.6-10.7-4.3-14.4-3.2l2.25-1.75q5.3-.3 17.25 5.2 4.3 1.95 13.5 6.9 9.8 5.4 15.4 9.8 8.6 6.75 9.95 12.8m.1-28.8q-1.85 4.6-9 5.6-7.05.95-14-2.25-8.8-4.05-11.05-9.75-1.55-3.85 0-7.65 1.8-4.55 8.4-5.75 6.4-1.15 13.3 1.6 6.7 2.7 10.45 8.2 3.65 5.5 1.9 10m-8.8 3.35q5.7-.85 7.1-4.35 1.1-2.7-1.5-7.05-3.15-5.4-10.1-8.15-6.3-2.5-11.85-1.6-5.55.85-7.05 4.65t1.3 7.55q2.8 3.7 9.4 6.8 6.65 3.05 12.7 2.15m57.8-24.6-2.75 2.75q2.8-7.1-5.8-14.45-6.65-5.7-21.15-12.2-10.5-4.75-16.45-5.5-5.75-.7-9 2.1l1.75-2.65q4.45-2.75 12.1-.9 4.5 1.1 12.85 4.85 14 6.35 20.65 11.5 9.25 7.3 7.8 14.5"/><path fill="#0d131a" d="M443.05 235q12.7 5.45 19.05 12.1 6.35 6.55 5.3 13.05-2.25 14-38.45 18.85-33.8 4.55-74.5-1.2-53.35-7.5-101.05-18.95-52.4-12.55-67.9-23.05-1.8-1.2-.35-2.3 3.45-2.55 10.8-5.9 6.3-2.9 13.7-5.55l1.7-.45q28.2-4.45 157.2-.35 45.8 1.45 74.5 13.75m21.55 24.5q.8-4.8-4.8-10.35-5.95-5.95-17.6-11.05-28.2-12.4-74-14.1-54.65-2.05-85.7-2.55-54.3-.85-71.5 1.85-6.75 2.45-13.35 5.5-7.25 3.3-10.9 5.85 15.3 9.7 70.95 22.4 48.8 11.15 97.05 17.95 39.35 5.55 72.4 1.55 35.25-4.25 37.45-17.05"/><path fill="#0d131a" d="m396.05 224.9 7.2 1.7q-26.75-2.25-48.7 2.7-23.65 5.3-25.25 15.9-.75 5 3.4 10.25 4.35 5.5 13.15 10.15 20.35 10.75 55.1 13.05l-6.8.65q-34.05-2.5-52.65-13.2-16.5-9.5-14.8-21.15 1.6-11 22.1-16.45 19.3-5.15 47.25-3.6"/><path fill="#0d131a" d="M467.85 225.4q8.75-4.7 8.15-9.7-1.05-8.75-24.7-14.45-26.1-6.25-67.15-5l-63.15 3.5q-45 3.4-72.6 8.25-14.75 3.9-21.55 7.45 5.95 2.35 15.95 4.7l-4.25.35q-8.65-1.95-13.1-3.85-.95-.4-1-1.15t.95-1.35q7.45-4.35 21.65-8.1 28.15-4.95 73.35-8.8 37.3-3.2 63.9-4.05 42.65-1.3 69.4 5.6 24.85 6.4 25.9 16.95.65 6.9-10.8 12.5-12 5.85-31.25 7l-2.9-1.65q22.1-2.25 33.2-8.2"/><path fill="#0d131a" d="M368.7 197.3q13.45-3 30.25-2.3l6.3.6q-17.75-.5-32.4 2.55-15.45 3.2-22.1 9.3-3.65 3.35-3.2 8.15.4 4.5 3.75 6.9l-2.7-.2q-3.55-2.25-3.7-7.05-.2-5.1 4.05-9.05 6.3-5.85 19.75-8.9M354.95 96.05l-1.3 1.45q-23.3-2.3-35.7-4.75-13.25-2.6-23.55-7.15-10.1-4.45-15.55-11.15-5.65-6.95-3.3-12.95 2.75-7 14.75-8.05 11.1-.9 24.35 3.5 11.95 4 25.75 13.5 9.3 6.4 21.7 17.05l-.95 1.25q-14.35-11.05-21.6-15.9-14.7-9.8-26.2-13.65-12.05-4.05-22.2-3.05Q281 57.2 278.7 62.7q-2 4.9 2.6 10.55 4.65 5.7 14 9.8 10.15 4.5 24.3 7.5 13.05 2.8 35.35 5.5m18.75 69.35q-18.3 19.2-36.35 32.2l-5.25.6q18.45-12.85 37.6-32.55 22-22.6 38.15-47.55l2.1 1.3q-15.4 24.1-36.25 46m50.9-110.7-18.75 27.45q-.4.55-.85.65l-1.2-.2-8.1-3.05.25-2.45 8.5 3.25q14.25-21.6 17.9-26.3 5.95-7.75 8.9-6.75 5.65 1.9.7 22.5-4.8 19.85-14.1 36.45l-2.75.05q9.8-17.05 14.7-37.15 4.45-18.55 1-19.9-1.7-.7-6.2 5.45M186.5 282.15q8.2 7.6 18.15 19.6 6.25 7.55 14.85 19l.35.7-.25.65q-4.35 6.35-7.85 10.45-4.35 5.15-10.9 11.15l-.45.1-8.25-1.5-8.55-1.05q4.15 3.5 9.25 6.6 1.05.6.95 1.1-.05.55-1.3.6-9.8.35-15.2-.35l9 5.2q.75.4.8.75t-.5 1.05q-4 5.3-8.55 9.1 18.05-6.85 33.25-18.05 15.6-11.6 25.25-25.75-8.2-10.95-21-22.25-7.5-6.6-22.15-17.75l2.1-.2q14 10.35 22.45 17.75 12.55 11.05 20.75 22.1.5.65.05 1.3-24.35 30.95-60 44.85-2.85 1.15-3.65.2-.85-.95 1.55-3.3l4.05-4 4-4.65-4.45-2.4-3.85-2.65q-2.05-1.6-1.75-2.45.35-.75 2.45-.55l6.5.4 6.95.2q-6.7-4.1-8.1-5.35-2-1.85-1.6-2.7.35-.8 3-.55l7 .95 9.1 1.7q6.05-5.5 10.3-10.8l7.3-9.95-15.9-19.55q-10.15-12.3-17.25-19.6z"/><path fill="#0d131a" d="M241.05 284q21 6.15 32.75 12.55l.95.8q.2.4-.1 1.2-3.9 9.55-18.5 30.25-15.9 22.6-25.9 30.8-2.7 2.2-3.9 1.65-1.2-.6.3-4.05l3.6-8.95-8.15-3.35q-3.35-1.3-3.1-2.55.2-1.25 3.8-1.55l9.85-.95-6.8-2.9-1.75-.8 2.9-2.95 12.3-1.1q5.2-8.55 9.1-16.7 4.45-9.25 5.85-11.75-34.05-17.35-54.2-23.5l2.75-.65q10.4 2.25 27.85 10.25 12.05 5.5 25.15 12.6l.8.5q.4.35.1.85l-7.5 14.85q-5.55 11-8.05 14.15-.5.65-1.3.8l-13.9 1.55 9.95 4.7q.6.3.55.7 0 .4-.8.55l-13.9 1.9q7.8 2.95 9.8 3.95l.7.6-.2.95-1.6 4.45-2.3 5.7q12.15-10.85 24.9-28.5 12.1-16.75 19.3-31.85-12.95-6.9-32.15-12.85-16.65-5.15-29.95-7.2l2.5-.9q10.95 1.6 28.3 6.75"/><path fill="#0d131a" d="m280.1 284.15-2.75 16.2q-1.7 10.4-3.2 15.75-6.4 2.7-12.4 4.4 2.6 1.2 8.2 3.3.6.25.55.7-.05.4-.65.6l-10.9 3.75 8.1 2.45q.95.25.7 1.3-1.35 7.25-2.45 11.2 11.05-11.95 19.6-35.9 5.25-14.8 9.2-33.35-11.1-2.6-31.3-3.8l-27-1 2.25-1.1q9.75-.7 27.6.45 19.1 1.25 29.2 3.6 1.85.45 1.6 1.55-3.95 17.9-9.15 32.6-8.35 23.55-19.15 36.95-2.35 2.9-3.8 2.85-1.6-.15-.5-4.7l2.1-9.15-6.7-1.85q-3.05-.7-3.05-1.9.05-1.2 3.2-2.15l7.3-2.5q-3.1-1.2-5.5-1.85-1-.2-1.65-.7l2.7-3.35q5.05-1.3 10.2-3.25 2.3-11.3 5.1-30.55l-27.4-6q-19.45-4.1-26.1-4.45l2.6-1q18.15 1.1 52.15 9.55 1.5.45 1.3 1.35"/><path fill="#3e3a39" d="M350.7 59.05q-7-27.4-.75-28 4.55-.45 21.6 16.75 17.6 17.75 24.6 30.8-5.05 7.7-25.65 30.6-1.6 1.8-2.75 1.1-.95-.55-1.75-2.85-10.4-29.05-15.3-48.4"/><path fill="#0d131a" d="M397.45 77.75q.4.6.4 1.05l-.45 1.05q-5.7 8.05-11.8 14.95-5.1 5.75-14.5 15.15-2.6 2.6-3.95 1.8-.85-.5-1.8-3.2Q354 77.1 349.45 59.4q-6.75-26.15-.9-29.05 5.3-2.65 22.4 15 15 15.4 26.5 32.4m-14 15.45q6.35-7.2 11.85-14.45-12.55-17.9-27.2-32.95-15.2-15.6-18.5-13.2-3.55 2.6 2 24.75 5 20 16 50.5.4 1.15.75 1.25.4.15 1.3-.8z"/><path fill="#f3b1b9" d="M96.8 277.7q0 1.8-1.25 3.1-1.3 1.25-3.05 1.25-1.8 0-3.05-1.25-1.25-1.3-1.25-3.1 0-1.75 1.25-3.05 1.25-1.25 3.05-1.25 1.75 0 3.05 1.25 1.25 1.3 1.25 3.05"/></svg>