<svg xmlns="http://www.w3.org/2000/svg" width="240" height="275" viewBox="-2 -0.75 240 275.35"><path fill="#e40065" d="M123.55 30.55q15.7.55 25.55 8.2 8.65 6.7 11.45 17.6 2.55 9.95-.45 20.05-2.95 10.05-10.05 15.6-7.25 5.7-16.75 9.25-9.85 3.7-19.6 4.1-23.05.9-34.25-15.85-11.15-16.75.1-35.2 4.7-7.7 12.3-13.5 7.4-5.65 15.25-7.75l-2.4-27.9q-.2-3.25 2.05-4.05 2.3-.8 3.95 2.15 1.7 2.95 6.05 12.2z"/><path fill="#fcd13e" d="M138.8 39.75q5.75-1.3 11.2 4.35 4.4 4.55 6.8 11.2 1.95 5.55 1.4 13-.65 9-5.4 11.05-5.5 2.4-11.5-4.95-4.8-5.9-6.45-12.3-1.7-6.8-1.4-12.85.5-8.4 5.35-9.5"/><path fill="#00a4e3" d="M118.9 66.75q-4.75 4.5-15.75 8.6-11.3 4.25-15.7 2.9-6-1.85-20.4-15.95-14.1-13.8-18.75-21.9-4.1-7.05.4-10.5 3.45-2.7 9.2-2.3Q74.65 28.8 94.3 38q16.8 7.9 24.6 15.65 3.85 3.85 3.15 7.75-.5 2.8-3.15 5.35m-40.7 88.8q-1.9-13.45 2.2-25.3 2.3-4.05 8.35-9.75 6.4-5.95 10.6-7.5-3.15 3.4-4.55 8.4-1.5 5.35-.5 10.85 2.45 13.4 17.25 20.75 14.45 7.2 26.4 1.65 4.7-2.2 7.8-5.9 2.85-3.45 3.35-6.75.9 24.4-18.6 42.8-6.2 3.85-15.9 3.35-11.7-.55-22.3-7.75-11.75-7.95-14.1-24.85"/><path fill="#00a4e3" d="M35.05 163.2Q59.3 145.45 80 140.8q4.05-.9 5.25.8 1 1.45.1 5.25-7.7 32.05-25.05 52.4-14.85 17.45-34.75 24.3-14.9 5.2-21.45-2.6-6.1-7.3-1.55-20.4 6.4-18.25 32.5-37.35m193.05 14q9.9 12.95 2 19.9-6.6 5.8-19.9 4.7-16.55-1.35-34.25-14.3-15.6-11.4-28.6-28.9.55-1.85 1.75-9.65 21.4.4 42.15 6.55 26.2 7.8 36.85 21.7M93.55 199.6l14.95 20.15 18.1 25.5q4.1 5.95 4.1 13.8.05 8.75-5.9 11.45-6.2 2.8-12.9-1.1-6.3-3.7-9.5-10.9-3.4-7.7-7.5-22.75-4.8-17.4-8.55-37.95 2.1.85 7.2 1.8"/><path fill="#e40065" d="m77.95 141.2-4.05 1q1.4-3.45 3.3-7.1 2.25-4.35 3.85-6.2-2 4.8-3.1 12.3m51.65-29.55q9 4.6 13.9 12.2 4.6 7.15 5.75 17.35-.95 4.95-5.05 8.85-4.05 3.9-9.95 5.65-13.7 4.15-26.5-4.55-12.2-8.3-13.45-20.8-1.05-10.45 4.85-17.2 5.95-2.75 12-3.75 10.55-1.8 18.45 2.25"/><path fill="#c60057" d="M93.35 77.85q6.75 9.05 26 11.8 20.55 2.95 36.95-4.85-6.55 10.25-22.3 16.4-18.65 7.2-37.05 1.65-11.75-3.55-17.9-13.6-5.6-9.25-4.4-19.8 1.8 1.75 6.35 4.9 4.45 3.1 5.8 3.65 2.45.9 6.55-.15"/><path fill="#008fc5" d="M104.35 186.25Q86.9 180.9 80.8 164.2q5.3 6.6 14.45 9.8 9.1 3.2 19.1 1.95 10.7-1.35 19.4-7.4 9.65-6.75 15.2-18.25-1.55 9.8-6.45 19.15-5.65 10.9-13.85 16.95-4.2 1.65-10.45 1.75-7.1.1-13.85-1.9"/><path fill="#c60057" d="M80.65 163.55q.9 5.1 5.05 10.25 4.2 5.3 10.55 8.95 15.2 8.75 32.4 3.65-8.75 7.7-21.3 11.4-15.5 4.55-25.1-1.9-3.6-2.45-6.15-6.8-2.45-4.1-3.2-8.45 4.75-9.3 7.75-17.1"/><path fill="#008fc5" d="M87.85 78.25q-6.25-.95-19.95-14.6-11.45-11.45-17.8-20.5 12.05 11.8 24.1 20.25 9.9 6.95 14.2 8.05 4.55 1.2 12.3-.05 10-1.55 19.4-6.8-2.65 4.55-13.85 9.55-11.65 5.15-18.4 4.1M79 167.7q-9 22.95-25.6 38.6-16 15.05-33.8 18.55-8.3 1.6-13.85-2.45-7.25-5.25-3.8-18.2 1.2 8.75 10 10.65 8.5 1.9 20.7-3.1 12.75-5.25 24.6-16.05 13.15-12 21.75-28m14.2 31.8 10.3 13.45 10.3 14.1q-5.55-4.5-12.3-4.45-6.55.05-8.7 4.05-2.25-9-6.4-28.75 2.65 1.15 6.8 1.6m104.65-8.75q13.3 3.3 21.85 1 9.45-2.55 10.45-11.45 4.35 6.85 2.45 12.8-2.4 7.45-14.65 8.55-14.65 1.3-30.8-7.25-17.9-9.4-34.7-29.55 7.55 8.6 20.15 15.7 12.45 7.1 25.25 10.2"/><path fill="#9fd2f1" d="M17.25 193.65q-1.3 2.05-3 2.95-1.65.95-2.7.25-1.05-.65-.85-2.55t1.5-3.95q1.3-2 3-2.95 1.65-.95 2.7-.3 1.05.7.85 2.6t-1.5 3.95m98.85 66.15q1.3 1.4 1.65 2.95t-.5 2.35-2.4.35q-1.55-.4-2.85-1.8t-1.6-2.95.5-2.35q.85-.8 2.4-.35 1.5.4 2.8 1.8m99.8-85.6q-.5 1-1.9 1.2-1.45.2-2.95-.55-1.55-.8-2.25-2.05-.65-1.25-.15-2.25.5-1.05 1.9-1.2 1.45-.2 2.95.55 1.55.8 2.25 2.05t.15 2.25M64.15 33.35q-.05 1.05-1.55 1.7-1.45.6-3.45.45-2-.2-3.3-1.05-1.35-.85-1.25-1.9t1.55-1.65q1.45-.65 3.45-.5 2 .2 3.35 1.05 1.3.85 1.2 1.9"/><path fill="#f09bad" d="M130.75 39.15q-.2 1.25-1.55 1.9-1.3.7-2.95.4-1.6-.3-2.6-1.4t-.8-2.35q.25-1.25 1.55-1.9 1.35-.7 2.95-.4 1.65.3 2.65 1.4t.75 2.35m8.8 85.4q.75 1.8.35 3.45-.4 1.7-1.75 2.25-1.3.55-2.8-.3-1.45-.9-2.2-2.65-.75-1.8-.35-3.45.4-1.7 1.7-2.25t2.8.3q1.45.9 2.25 2.65"/><path fill="#0d131a" d="M150.35 57.8q1 3.35.8 5.9-.2 2.65-1.55 3-1.55.4-3.15-1.7-1.4-1.9-2.55-5.3-1.15-3.35-1.05-5.85.15-2.6 1.6-3.05 1.35-.4 3.1 1.7 1.85 2.1 2.8 5.3"/><path fill="#0d131a" d="M137.8 49.05q.7-4.15 3.25-5 3.4-1.1 6.9 2.05 3.6 3.25 5.9 9.9 2.25 6.35 1.6 11.95-.65 5.35-3.4 6.3-3.15 1.05-6.9-2.6-3.95-3.85-6-10.6-2.2-7.2-1.35-12m8.9-1.65q-2.55-2.35-4.95-1.6-1.85.65-2.35 3.7-.65 4.05 1.45 10.95 1.85 5.95 5.1 9.4 3.1 3.3 5.5 2.45 1.9-.65 2.3-5.05.4-5.05-1.9-11.15-2.25-6-5.15-8.7"/><path fill="#0d131a" d="M132.8 47q1.35-6.8 5.6-8.2 4.7-1.6 10.3 3.05 5.9 4.9 8.9 14 2.65 8.15 1.3 15.5-1.4 7.5-6.05 8.85t-9.9-2.95q-6-4.9-8.95-14.65-2.6-8.6-1.2-15.6m14.65-4.5q-4.65-3.55-8.5-2.35-3.6 1.1-4.6 7.45-1 6.5 1.45 14.6 2.6 8.65 7.7 13.5 4.75 4.5 8.85 3.3 3.8-1.1 5.1-7.65 1.4-6.95-1.2-14.95-3.1-9.6-8.8-13.9m-27.9 24.8q-6.3 5.65-15.55 8.95-7.7 2.75-14.65 3.1-2.7.15-4.8-1.05-8.75-4.95-20.35-16.75-10.45-10.6-15.9-18.85-4.7-7.2-2.3-11.5 2.65-4.6 13-4.5 12.35.2 32.6 9.1 19.6 8.65 28.5 17.2 3.1 3 2.9 7.3-.25 4.15-3.45 7M85.3 76.05q2.3 1.35 3.9 1.2 6.65-.35 13.85-2.9Q111.55 71.3 118 66q2.75-2.25 2.8-5.65.1-3.45-2.6-6.05-8.8-8.45-27.8-16.9-19.7-8.75-31.9-8.9-8.3-.1-10.45 3.35-2.2 3.5 2.4 10.5 5.1 7.75 15.4 17.9 10.95 10.7 19.45 15.8"/><path fill="#0d131a" d="M144.9 36.6q-9.05-5.35-21.85-5.4l-.4-.25Q112.8 9.05 110.05 4q-1.15-2.1-2.7-1.55-1.55.45-1.4 2.6l2.25 27.9-1.7.6-1.35-15.45-1.25-13.3q-.3-3.85 2.7-4.7t4.8 2.5l7 14.45 5.9 12.65q13.45.35 22.75 6.15 11.1 6.9 14.95 20.75 4.45 16.05-4.15 28.7-9.1 13.35-30.4 18.85-19.7 5.1-34.75-1.65-14.8-6.65-18.6-21.6-1.5-5.85-.65-12.65l2.1 2.2q-.3 4.9.95 9.75 3.25 12.85 15.9 19.6 14.45 7.7 34.35 2.6 19.45-4.95 28.35-16.85 9.05-12.15 4.7-28.45-3.75-13.95-14.9-20.5"/><path fill="#0d131a" d="m95.85 39.05-1.8-1q7.75-4.8 16.7-6.2.95-.15 1.05.25.1.45-.85.65-8.15 1.95-15.1 6.3M74.95 142.2l-2.35.35q7.8-22.45 27.15-30.75 8.4-3.65 17.1-3.45 8.55.15 15.45 3.9 14.5 7.85 17.45 25.85 3.2 19.5-10.4 38.6-9.5 13.4-26.3 20.3-19.05 7.8-32-.95-2.95-2.05-5.4-5.65-2.8-4.15-3.3-8.3l1.3-2.8q.3 4.55 2.95 9.15 2.45 4.3 5.45 6.3 12.1 8.05 30.2.4 16.15-6.85 25.4-19.85 13.15-18.5 10.1-37.3-2.75-17.05-16.1-24.45-6.5-3.6-14.55-3.65-8.1-.05-16.05 3.45-18 8.05-26.1 28.85"/><path fill="#0d131a" d="m148.1 137.35 1.15 3.85q-.1 5-3.8 9.15-3.65 4.05-9.6 6.05-13.85 4.6-28-3.85-12.4-7.4-14.45-20.95-.9-5.7.65-10.7 1.55-4.95 5-7.55l3.1-.9q-4.35 2.7-6.15 7.8-1.75 4.8-.8 10.6 2.15 12.85 13.75 19.8 14 8.35 27.3 3.6 5.85-2.1 9.05-6.45 3.4-4.6 2.8-10.45M79.9 164.9l.95-2.6q3.1 9.45 9.15 14.9 8.05 7.35 20.55 9.6 13.05 2.3 20.45-3.35l-1.9 2.7q-7.7 4.55-20.45 2.05-12.45-2.45-20.05-9.4-5.85-5.3-8.7-13.9m-1.1-23.65-1.7.4q.65-5.95 2.9-10.8l2.4-2.95q-2.9 5.45-3.6 13.35"/><path fill="#0d131a" d="M9.4 185.35q7.5-10.75 20.25-20.25 13-9.75 27-16.6 13.65-6.65 24.55-8.8 3-.6 4.35.8 1.5 1.5.85 5.05-2.3 12.35-7.75 25.45-5.45 13.05-12.1 22.35-11.4 15.85-25.9 24.65-13.05 7.9-25 8.15-8.4.2-12.4-4.5-4.2-4.85-3-14.2 1.4-11.1 9.15-22.1m21.65-18.5Q18.7 176.1 11.1 186.9q-7.5 10.65-8.75 20.55Q1.3 215.7 4.75 220t10.95 4.1q10.8-.3 23.7-8.05 14.75-8.85 25.75-24.2 6.7-9.35 12.1-22.05 5.5-13.05 7.5-24.75.35-2.1-.6-3.1-.9-.95-2.85-.6-10.15 2.05-23.65 8.85-13.5 6.85-26.6 16.65m79.6 57.35-18.5-24.85h1.75q7 8.2 18.65 23.9 10.45 14.1 14.6 20.5 5.9 9.1 4.8 17.8-1 7.65-6.1 10.15-5.95 2.9-13.25-.55-8.35-3.85-12.3-13.9-6.85-17.3-14.9-59.9l1.8.9q8.65 41.95 15.45 58.45 3.4 8.3 10.3 12 6.5 3.5 11.65.85 4.2-2.15 4.95-8.85.8-7.65-4.2-15.9-2.35-3.9-14.7-20.6m67.15-73.05q13.6 2.35 24.5 6.9 18.45 7.7 26.6 17.85 7.7 9.55 4.25 18.5-3.3 8.45-18.35 8.85-15.75.4-30.95-8.95-10.55-6.5-19.6-15.15-7.6-7.3-17.15-19.25l.55-1.85q8.9 11.1 17.25 18.9 9.2 8.55 20.05 15.25 13.7 8.4 28.5 8.7 14.6.25 17.8-7.4 3-7.3-4.3-16.3-8.1-9.95-25.75-17.25-20.2-8.4-52.35-10.2l.2-1.45q16.4.65 28.75 2.85"/></svg>