<svg xmlns="http://www.w3.org/2000/svg" width="214" height="206" viewBox="-0.6 -0.45 214.4 205.65"><path fill="#6fb92c" d="M185.4 52q1.55 3.15 1.25 10.45-.35 9.1-1.75 24.2-1.25 13.75-1.8 16.35-.35 1.75-3.15 6.65L176 116.3q-1.25 8.45-4.55 15.7l21.45 15.8-14.05 7.9 33.55 47.95-21.95-15.6-1.05 14.7-12.45-16.7-4.05 10.05-14.2-46.2 19.2-3.5-9.1-9.65q-6.85 9.95-16.6 10.6-8.95.55-15.45-6.55-10 3.95-27 3.55-16.75-.45-24.7-4.7-4.45 5.8-11.15 5.9-6.3.15-12.4-4.75-6.25-5.05-9.8-13.55-3.9-9.3-3.3-20.3l-25.25-12.8 7.45-12-24.95-13.9 10.6-.5L1.45 49l15.05 3.65L8.9 31.8l18.8 18.85q19.75 19.65 24.4 23.6l-9.35 8.2q-6.6 5.6-8.3 7.4 1.9 1.8 7.4 5.65l7.4 5.4q1.35-8.1 6.85-13 5.95-5.35 13-2.75-2.35-12.8-2.55-14.95-.2-2.45.6-3.8.95-1.55 4.2-3.75Q76.8 59 83.15 55.3q9.5-5.6 12.7-6.3l8.35-1.95q6.65-1.45 10.65-1.75l1.45-8.95 1.25-8.45q-9.3-2.05-14.3-5.65-4.8-3.4-4.6-7.4.3-6.4 10.1-10.7Q118.05.1 129.05.6q14.15.7 22.8 6.55 7.3 4.9 6.55 9.65-.75 5.4-8.15 8.75-6.4 2.85-15.6 3.5-.25 1.2-.8 7.8l-.95 8.25q14.1-.3 25.75.1 13.3.5 19.05 1.75 5.8 1.25 7.7 5.05"/><path fill="#f19963" d="M88.9 58.95q8.75-4.85 12.25-5.75 5.4-1.3 18.45-2.15l-.6 3.55q-12.35.85-16.2 2.35-3.8 1.5-10.25 5.7-6 3.9-9.6 7-2.65 2.3-2.15 5.8l2.8 19.3q-3 1.8-5.15 3.45l-1.7-2.4-3.25-21.3q-.7-5 2.15-7.15 4.65-3.6 13.25-8.4"/><path fill="#30353a" d="M82.95 69.65q3.6-3.1 9.6-7 6.45-4.2 10.25-5.7 3.85-1.5 16.2-2.35l-1 6Q101.35 84.95 98.2 89q-7.95 2-14.6 5.75l-2.8-19.3q-.5-3.5 2.15-5.8m84.9-15q5.15.7 3.1 3.3l-5.65 5.7-8 7.9q-1.55 1.6-2.15 2.75-.85 1.65-1.05 4.4-.5 6.1-.7 11.55-4.05 1.8-7.4 5.55-7.2-4.8-16.8-7.1-.8-6.3-2.8-17.55l-1.85-10.05.95-6.85q12-.5 25.55-.3z"/><path fill="#f19963" d="M180.45 61.55Q180.4 70.7 179 85.2q-1.3 13.6-2.15 16.35-.7 2.35-5 9.65.6-8.3-2-14.2-2.65-6.1-7.85-7.65-3.9-1.2-8.6.9.2-5.45.7-11.55.2-2.75 1.05-4.4.6-1.15 2.15-2.75l8-7.9 5.65-5.7q2.05-2.6-3.1-3.3l-16.8-.7q-13.55-.2-25.55.3l.45-3.6q15.4-.8 29-.55 15.15.25 20.6 1.8 2.9.8 3.95 2.9 1 2 .95 6.75"/><path fill="#30353a" d="M56.55 98.7q3.35-7.75 9.35-8.45 5.45-.65 10.25 4.85 5.25 6 7.55 16.95 2.05 9.7.15 17.55-1.95 8.1-7.05 9.5-6.35 1.7-12.7-3.85-6.85-5.95-8.95-16.8-2.2-11.4 1.4-19.75"/><path fill="#f19963" d="M79.45 113.15q1.4 7.45.85 12.75-.65 5.75-3.4 6.2-3.15.5-6.35-4.25-3.25-4.75-4.45-11.6-1-5.85.05-10.95 1.15-5.7 4.25-6.2 2.6-.45 5.1 3.2 2.7 3.9 3.95 10.85"/><path fill="#f19963" d="M129.6 5.2q10.65.5 17.45 4.45 5.9 3.45 5.4 6.7-.5 3.8-8.7 6.2-7.15 2.05-14.3 1.85l-4.9 36.8 1.85 10q2 11.25 2.8 17.55 13.15 3.2 21.3 10.55 8.8 7.95 7.85 17.5-1 9.95-14.45 16-13.1 5.85-33.05 6-19.6.2-31.55-7.7-10.75-7.1-10.4-16.85.35-8.25 8.7-15.25 8.05-6.75 20.6-9.95 3.15-4.05 19.8-28.4l6.15-36.7q-9.45-1.15-14.9-4-4.85-2.6-4.75-5.4.2-4.3 8-7.1Q120 4.8 129.6 5.2"/><path fill="#30353a" d="M170.9 100q2.35 8.55-.4 19.3-3.2 12.4-9.95 18.2-6.25 5.35-13.25 3.3-6.05-1.8-8.75-10.05-2.95-8.95 0-20.6 2.8-10.9 10.25-17 7-5.65 13.2-3.8 6.55 1.95 8.9 10.65"/><path fill="#f19963" d="M163.05 100.85q3.1.9 4 6.1.95 5.55-1.2 13.2-1.9 6.9-5.9 11.05-3.75 3.85-6.65 2.8-2.45-.9-3.25-6.45-.75-5.75.95-12.25 1.85-7.05 5.8-11.35 3.55-3.9 6.25-3.1"/><path fill="#fff" d="M119.95 138.35q-6.05 1.1-16.15.25-10.6-.95-16.2-3.4-7.3-4.8-10.3-13 7.8 6.25 27.3 6.75 19.9.5 30.15-5.8-4.75 11.35-14.8 15.2"/><path fill="#fff" d="M123.7 102.45q2.85 1.6 2.7 6.35-.1 4.1-2.15 7.95-2.6 4.9-6.65 6.85-3.6 1.75-5.9.4-2.75-1.55-2.6-6.35.05-4.05 1.85-7.6 2.5-4.95 6.6-7.1 3.75-1.9 6.15-.5M80 115.25q-1.4-3.95-.75-7.65.7-3.75 3-4.55 2.3-.85 5.05 1.55t4.05 6.5q1.4 4.45.7 8.15-.65 3.55-2.75 4.3-1.95.7-4.6-1.35-3.05-2.35-4.7-6.95"/><path fill="#6fb92c" d="M121.5 105.65q1.65.85 1.5 3.95-.1 2.9-1.6 5.75-1.95 3.75-4.4 5.3-2.1 1.35-3.55.6-1.5-.75-1.5-3.6-.05-3.05 1.6-6.3 1.8-3.5 4.3-5.1 2.2-1.35 3.65-.6m-38.1.45q1.2-.4 2.75.95 1.95 1.6 3 5 .95 3.15.6 5.75-.3 2.4-1.55 2.85t-2.95-1.15q-1.95-1.8-3.1-5.25-.9-2.65-.6-5.1.35-2.55 1.85-3.05"/><path fill="#fff" d="m78.05 123.9 2.35.2q9.75 4.95 27.1 4.85 17.95-.1 27.25-5.8-4.75 11.35-14.8 15.2-6.05 1.1-16.15.25-10.6-.95-16.2-3.4-6.6-4.4-9.55-11.3"/><path fill="#d18456" d="m81.55 83.55 1.05 5.85 1 5.35q-3 1.8-5.15 3.45l-1.7-2.4-2.6-15.75q.75 2.75 3.35 3.8 2.45.95 4.05-.3M128.9 28.6q-.35-1.7-2.2-2.25-1.8-.6-2.95.45l.4-2.85q-7.35-.9-12.45-2.9-4.5-1.8-6.3-4.05 10.1 3.3 23.8 3.15 12.85-.1 23.05-3.1-1.9 3.9-10.35 5.95-6.5 1.55-12.45 1.4zM76.5 132.25q-2.85 0-5.9-3.75t-3.35-7.75l1.9-2.7q.85 4.4 3.5 7.65 2.15 2.75 6 5.1l-.8 1z"/><path fill="#212226" d="M80.15 137.2q-1.6 1.8-3.5 2.3-5.85 1.6-12.3-3.4-7-5.4-8.75-14.55 1.05 3.45 4.75 3.2 3.65-.3 6.9-4 .3 3.75 3.15 7.55 3.05 3.95 6.1 3.95l1.35-.45.8-1 4.05 2.25q-1 2.45-2.55 4.15"/><path fill="#d18456" d="m81.7 129.65 1.95 2.7q1.1 1.4 2.3 2.2-10.1-4.15-14.5-11.3 3.8 3.75 10.25 6.4"/><path fill="#dbdcdc" d="m121.35 138.25-10.5.55q-14.3.15-24.9-4.25-1.2-.8-2.3-2.2l-1.95-2.7q11.75 4.85 26.85 4.25 14.95-.6 23.65-6.15-2.8 6.15-10.85 10.5"/><path fill="#d18456" d="M137.2 123.15q-.6 4 2.8 11.2-7.95 2.8-18.65 3.9 8.05-4.35 10.85-10.5 3.3-2.1 5-4.6m17.1 10.95q-4.8-.3-4.8-9.35 9.35-1.4 16.8-6.75-1.55 7.2-5.15 11.9-3.5 4.45-6.85 4.2"/><path fill="#212226" d="M166.3 118q3-2.1 5.35-4.9-.4 3.4-1.15 6.2-3.2 12.4-9.95 18.2-6.25 5.35-13.25 3.3-4.3-1.25-7.1-6.15-3.25-5.75-3.2-14.45.2 2.95 3.85 4.15l8.65.4q0 9.05 4.8 9.35 3.35.25 6.85-4.2 3.6-4.7 5.15-11.9m-.85-63.6 4.9.6q2.1.5 1.4 1.95l-7.8 7.75q-7.3 6.9-8.65 9.8-1.45 3.1-1.65 9.4-.1 3.15.1 5.7-2.7.95-5.65 3.55l-2.4 2.4q-2.9-2.4-10-4.85l-6.55-2-2.6-16.55q12.95-4.5 20.25-8.9t10.05-9.3l2.55.05z"/><path fill="#d18456" d="M179.85 78.3q-1.25 17.2-2.9 23.25l-4.95 9.2q.15-4.9-1.2-10.05-2.8-10.4-10.55-11.9.25-6.3.45-8.55.35-3.6 1.5-4.95 2.2-2.65 11-10.5 7.3-7.05 6.75-10.45 1.15 6.05-.1 23.95"/><path fill="#f8ceb0" d="M88.05 97.7q0-1.05.75-2.05.85-1.05 2.15-1.45l2.3.15q1 .55 1.15 1.65.1 1.15-.75 2.2-.9 1.2-2.35 1.5l-2.1-.2q-1.15-.6-1.15-1.8M121.9 7.6q2.3-.3 4.15-.05 1.8.3 2.15 1 .35.75-1.05 1.5-1.35.7-3.6 1.05-2.45.35-4.35 0-1.7-.35-1.95-.95-.4-.85 1.2-1.6 1.4-.65 3.45-.95m-9.6 72.65q-1.3-.05 1.5-7.15 2.75-7.15 3.9-7.05 1.05.05-1.75 7.2-2.8 7.1-3.65 7"/><path fill="#d18456" d="m126.55 72.15 3.35 19.5q.35 2.2-5.4 3.2-5.75.95-4.25-1.7Q123.8 87 125 83q1-3.55 1.55-10.85"/><path fill="#9ba4a9" d="M148.1 96.6q.95-1.45 2.75-2.75 1.55-1.2 2.9-1.7 2.3-.9 3.05-.35t-1.25 1.85l-5.55 3.9q-2.1 1.45-2.55 1.05-.4-.4.65-2m-89.3.85q.6-1.6 1.95-3 1.25-1.3 2.75-2.05 1.5-.7 2.2-.4t-.6 1.2q-2.5 1.8-5.35 4.55-.6.6-.9.5-.3-.15-.05-.8"/><path fill="#009e41" d="M185.85 50.85q1.95 3 1.8 9.05-.25 10-1.85 26.4-1.35 14.05-2 17.3-.3 1.5-2.55 5.25l-3.8 6.15-.9 1.5q-1.3 8.55-4.35 15.4l21.05 15.45q.7.55-.1.95L180 155.9l32.45 46.35q1.35 2.2 1.25 2.55-.15.4-2.45-.95-1.25-.75-10.45-7.5l-9.9-7.25-.8 14.1-.25 1-.8-.7-11.9-16.45-3.7 9.55-.6 1.1-.5-1.15-14.6-46.35-.1-.45q.1-.2.5-.25l18.6-3.45-7.95-8.3q-7 9.7-16.15 10.35-4.35.3-8.5-1.35-4.2-1.65-7.35-4.95-10.8 3.7-26.6 3.4-16.2-.35-24.9-4.75-3.35 4.15-8.1 5.5-4.75 1.3-9.75-.55-7.45-2.75-13.15-11.55-7.25-11.2-6.55-26.6L22.65 94.6q-.55-.25-.25-.8l6.95-11.35-23.3-13.3q-1.2-.65-1.25-.95-.1-.45 1.6-.55l8.75-.4-14.7-18.1q-1.05-1.3.55-.9l14.2 3.15-3.4-9.25-3.25-9.3q-.55-2-.2-2.05.2-.05 1.75 1.25L29.25 50.8q19.45 19.05 23.9 22.8l.35.4-.3.45-9.05 7.9-8.65 7.55 13.4 9.85q1.65-8.05 6.8-12.7Q61.3 82 68.15 84L65.4 69.05q0-2.2 1.25-3.55.8-.85 4.4-3.3 8.4-5.6 11.35-7.45 9.2-5.65 13.25-6.7 10.3-2.65 18.35-3.35l2.9-16.35q-10.75-2.5-15.7-6.8-3.7-3.25-3.55-6.75Q98 8.15 108.2 3.7q9.6-4.15 20.85-3.65 12.35.6 21.7 5.6 9.6 5.2 8.7 11.3-.8 5.65-8.7 9.1-6.5 2.85-15.6 3.55l-.6 7.15-.6 7.55q13.15-.3 25 .2 13.35.5 19.25 1.8 5.55 1.25 7.65 4.55m-1.5 35.65q1.4-15.05 1.75-24.05l.05-2.5q0-5.7-1.7-8.35-1.9-3-6.9-4.1-5.8-1.3-19.45-1.75-11.45-.4-25.15-.1l-.45-.1-.1-.7 1.7-15.9.15-.4.35-.05q8.75-.6 15-3.3 7.5-3.25 8.25-8.5.65-4.4-6.6-9.2Q142.6 1.8 129 1.2q-10.6-.5-19.8 3.4-9.7 4.15-10 10.25-.2 3.85 4.8 7.2 4.95 3.35 13.7 5.3l.4.15v.5l-1.25 8.35-1.45 9.05-.5.45q-3.5.3-9.4 1.5-5.25 1.05-9.5 2.2-3.3.9-12.7 6.4-6.95 4.05-11.65 7.2-3.3 2.2-4.2 3.6-.8 1.3-.4 3.35l2.6 14.95q.25.75 0 .8l-.75-.2q-6.7-2.45-12.45 2.65-5.35 4.75-6.65 12.7l-.3.65q-.2.05-.6-.3l-7.2-5.3q-6.45-4.7-7.6-5.75l-.3-.35.25-.45q.95-1.05 8.4-7.55l8.8-7.7Q44.3 68.2 9.85 33.3l7.2 19.15q.25.95-.65.75L2.9 49.9l13.35 16.95q1.15 1.4-.55 1.5l-8.05.4 23.2 12.95q.55.25.2.75l-7.1 11.5 24.7 12.5q.35.1.35.5l-.1 2.8q0 12.7 5.95 22.45 5.4 8.85 13.25 11.75 4.8 1.8 9.1.6 4.35-1.25 7.4-5.25l.75-.15q7.9 4.25 24.7 4.6 16.85.35 26.5-3.5.4-.1.65.15 3 3.3 6.95 4.95t8.15 1.4q9.4-.65 16-10.3l.9-.05 9.1 9.65q.4.4.25.65-.1.2-.55.25l-18.55 3.4L173 194.4l3.45-8.55q.35-1 .95-.15l11.55 15.5.9-13.15q.05-.55.2-.65.2-.15.7.2l20.2 14.65L178.4 156q-.4-.5.15-.8l13.3-7.45-20.7-15.3q-.35-.3-.2-.7 1.55-3.4 2.9-8.15 1.3-4.55 1.7-7.6l.95-1.6q5.7-9.45 6.05-11.5.55-2.7 1.8-16.4"/><path fill="#0d131a" d="m146.6 95.1-.9 1.2q-7.25-4.75-16.4-7l.05-1.15q10.65 2.6 17.25 6.95m-47.75-6.85q.05.4-.45.85l-.85.65q-12.1 3.15-19.85 9.8-7.9 6.75-8.2 14.7-.4 9.9 11 16.85 11.9 7.25 30.35 7.1 16.85-.15 28.95-4.45.4.15.65 1.4-11.9 4.1-30.15 4.25-18.7.15-30.85-7.1-12.05-7.25-11.65-18.05.35-8.6 9.1-15.8 8.5-7 21.95-10.2"/><path fill="#0d131a" d="M147.45 9.4q6.7 3.65 6.2 7.1-.5 3.65-8.5 6.2-7.35 2.3-15.2 2.2l-4.6 36.25 2 11.5q2 11.85 2.7 17.85.3 2.45-.5 1.55-.8-.85-1.15-3.45-.85-6.7-2.7-17.8l-1.7-9.75 4.9-36.75q.05-.5.55-.5 7.85.2 14.9-2.1 7.15-2.35 7.55-5.45.45-2.95-6.3-6.35-7.2-3.55-16-4-8.25-.4-16.2 2.3-8.15 2.8-8.3 6.35-.15 2.3 4.55 4.75 5.5 2.95 14.6 4l.45.15V24l-6.15 36.7L99.2 88.65q-2 2.65-3.2 2.85-1.25.25.75-2.1l8.45-11.7 12.05-17.3 6.05-36.1q-10.25-1.3-15.75-4.75-4.15-2.65-4.05-5.05.15-3.8 7.9-6.85 8.1-3.2 18.25-2.75 10.4.45 17.8 4.5"/><path fill="#0d131a" d="M103.65 63.75q-.15-3.8.35-3.45.55.35.9 4.25 1.1 9.2 1.2 13.1.05.7-1.1 2l-.6-7.55zm65.05-9.7q2.7.35 3.55 1.5.8 1.1-.45 2.5l-6.6 6.55-7.5 7.35q-1.35 1.4-1.95 3-.7 1.7-.9 4.5l-.5 10.6-1.5.55q0-8 .3-11.95.25-2.95 1.05-4.75.7-1.55 2.25-3.1 1.15-1.2 7.55-7.1l6.55-6.1q.7-.9.25-1.4-.55-.65-3-1l-17.95-.9q-12.1-.05-24.35.6-.35 0-.3-.55.05-.6.4-.6 12.45-.65 24.8-.55z"/><path fill="#0d131a" d="M118.9 54.15q.25 0 .3.55t-.2.6q-11.4.85-16.05 2.2-3.3.95-9.6 4.85-6.05 3.8-10.05 7.25-1.45 1.3-1.9 2.35-.4 1.1-.15 3l2.8 19.15-.6.7q-.65.45-.7.2L79.8 75.1q-.3-2.25.1-3.55.5-1.45 2.15-2.9 3.45-3 10.25-7.1 7.05-4.2 10.35-5.15 4.95-1.4 16.25-2.25"/><path fill="#0d131a" d="M101 52.65q6.55-1.55 18.55-2.45-.15.2-.15.6l-.05.75q-12.9.9-18.05 2.2-3.5.9-12.25 5.75-8.5 4.8-13.05 8.3-1.35 1.05-1.8 2.4-.55 1.55-.15 4.2 2.15 14.4 3.4 21.5.1.25-.8-.4l-.9-.9-3.2-19.65q-.5-3.6-.05-5.3.45-1.6 2.1-2.85 4.45-3.45 13.6-8.35 9.1-4.85 12.8-5.8m74.95-1.75q3.15.85 4.35 3.1t1.15 7.2q-.05 8.95-1.65 24.05-1.45 13.75-2.3 16.65-.9 2.95-5.35 10.4l-.3-2.25q3.85-6.55 4.5-8.65.8-2.75 2.05-16.25 1.4-14.6 1.45-23.6.05-4.6-.85-6.5-.95-1.85-3.6-2.6-5.35-1.55-20.35-1.8-13.4-.25-28.7.55l.4-1.25q15.8-.9 28.8-.75 15.1.15 20.4 1.7"/><path fill="#0d131a" d="M169.95 119.2q2.75-10.7.45-19.1-2.35-8.4-8.55-10.25-5.85-1.75-12.5 3.5-7.4 5.85-10.25 16.95-2.8 11.1-.15 19.85 2.5 8.3 8.5 10.1 6.8 2 12.85-3.3 6.5-5.65 9.65-17.75m-7.7-30.5q6.35 1.9 9.1 10.25 2.95 9-.1 20.9-3.3 12.75-10.65 18.55-6.55 5.2-13.5 3.15-6.25-1.85-9.25-10.4-3.25-9.35-.25-21.2 2.75-10.8 10-17.1 7.35-6.35 14.65-4.15"/><path fill="#0d131a" d="M163.3 100.35q3.25.95 4.25 6.55 1.05 5.8-1.05 13.4-1.95 7-5.75 11.1-3.85 4.05-7.45 3.1-2.9-.8-3.95-6.05-1.15-5.7.8-13.4 1.85-7.4 5.95-11.7 3.8-4 7.2-3m1.95 19.35q2.05-7.4 1.2-12.65-.8-4.85-3.6-5.65-2.6-.75-5.8 2.8-3.55 4-5.5 11.25-1.7 6.4-1.05 11.85.65 5.3 3 6.15 2.4.9 5.55-2.05 3.95-3.65 6.2-11.7m-99.4-30.1q3.4-.45 6.9 1.5 3.75 2.1 6.55 6.6l-1.25 1q-2.65-4.25-5.95-6.35-3.1-1.9-6.1-1.55-6.15.75-9.2 9.15-3.05 8.25-1.1 18.4 1.9 9.95 8.1 15.95 6.25 6.05 12.85 4.25 4.05-1.1 5.55-5.85l1.1.4q-.8 2.8-2.55 4.7-1.65 1.7-3.8 2.3-7.45 2-14.35-4.85-6.45-6.4-8.35-16.25-2.15-11.1 1.35-19.85t10.25-9.55"/><path fill="#0d131a" d="M66.7 105.5q-.95 4.9-.05 10.65 1.05 6.65 4.2 11.3 3.05 4.55 5.95 4.1.9-.05 1.5-1l.05-.05q1 .5.9.7-.95 1.35-2.45 1.6-3.3.5-6.75-4.15-3.65-4.9-4.8-12.3-.95-6.4.3-11.6 1.4-5.65 4.75-6.2 2.55-.45 4.95 2.5l-.85.75q-2.1-2.45-3.9-2.15-2.8.4-3.8 5.85"/><path fill="#0d131a" d="M80.35 129.35q-1.8-2.65-3.2-6.5-.4-1.2-.25-1.4t.8.3q7.1 5.7 24.95 6.55 19.15.9 31.8-5.65 1.5-.8.65 1.25-2.2 5.3-5.8 9.15-3.5 3.75-7.55 5.25l-3.35.1q10.1-3.35 15.15-14-12.1 5.8-29.8 5.15-16.5-.6-25.2-5.85 1.95 4.25 4.45 7 2.9 3.15 7.7 5.6-.85-.15-2.7-.9t-2.75-.95q-2.95-2.25-4.9-5.1"/><path fill="#0d131a" d="M86.15 126.05q.5.05.6.2.6 1.7 2.7 4.9 2.2 3.3 4.35 5.7l-1.5-.3-3.5-4.65-2.7-4.4q-.65 1.25-1.05 2.95-.4 1.6-.35 2.45 0 .25-.45.1l-.45-.4q-.05-1.3.5-3.25.45-1.85 1.2-3.25zm38.5 9.95q.2.15-.1.5t-.45.2q-3.7-2.85-7.4-7.15-3.4 4.2-6.65 9.3l-1.1-.25 6.95-10.15q.1-.1.65-.25h.65q4.55 5.55 7.45 7.8m-26.4-7.75.55.1 3.5 5.3q2.5 3.4 4.05 4.8l-1.25.05q-4.5-4.75-6.8-8.8-1.55 2.3-3.2 7.6l-.9-.3q.5-1.85 1.55-4.45 1.05-2.75 1.9-4.2zm25.4-26.3q2.9 1.55 3.2 6.15.25 4.45-2.05 9.05-2.25 4.55-6.25 6.8t-6.9.7q-3.15-1.7-3.15-6.85 0-4.25 1.75-7.8 2.85-5.75 7.2-7.75 3.55-1.65 6.2-.3m.15 14.4q1.95-3.95 1.85-8.05-.1-4.25-2.45-5.5t-5.6.5q-3.8 2.05-6.2 7.15-1.55 3.25-1.65 7.25-.15 4.75 2.4 6.15 2.4 1.3 5.95-.95 3.6-2.3 5.7-6.55"/><path fill="#0d131a" d="M121.25 106.15q-1.3-.7-3.35.65-2.35 1.55-3.85 4.85-1.5 3.35-1.45 6.2.1 2.45 1.2 3 1.25.6 3.1-.7 2.25-1.55 4-5.05 1.35-2.75 1.5-5.45.15-2.85-1.15-3.5m.5-.85q1.8.95 1.7 4.35-.05 3.15-1.6 6.1-1.95 3.85-4.5 5.4-2.3 1.4-4 .5-1.85-.9-1.8-4.4 0-3.25 1.5-6.15 1.7-3.35 4.2-5.05 2.55-1.7 4.5-.75m-42.4 10.35q-1.45-4.05-.8-7.95.75-4.1 3.55-5.05 2.35-.85 5.3 1.45 3.2 2.4 4.55 6.8 1.45 4.6.75 8.35-.75 3.75-3.2 4.6-2.55.9-5.5-1.35-3.05-2.35-4.65-6.85m.25-7.95q-.55 3.45.85 7.35 1.65 4.55 4.4 6.8 2.35 1.95 4.25 1.3 1.8-.6 2.5-3.6.8-3.5-.7-8.3-1.4-4.45-4.25-6.6-2.4-1.75-4.2-1.2-2.25.75-2.85 4.25"/><path fill="#0d131a" d="M83 105.8q1.65-.6 3.55 1 1.95 1.75 3.05 5.05 1.05 3.25.7 5.85-.3 2.6-1.85 3.2-1.4.5-3.3-1.05-2.2-1.8-3.45-5.35-1-2.9-.65-5.5.4-2.6 1.95-3.2m2.9 1.75q-1.35-1.3-2.4-.95-1.3.4-1.4 3.1-.15 2.4.6 4.45 1.1 3.2 2.85 4.9 1.5 1.5 2.55 1.1 1-.4 1.25-2.4.3-2.3-.75-5.55-1-3.1-2.7-4.65m35.7 7.6 2.75 1.5-.05.6-.45.4-2.8-1.5q-.3-.1.05-.65zm-10.7-4.5q-.2-.05.05-.6.25-.5.45-.4l2.35 1.3q.35.15 0 .65-.35.55-.5.35l-1.25-.75z"/><path fill="#0d131a" d="M91.35 110.8q.2-.1.35.45.2.55 0 .6l-1 .35-1.3.55q-.2.2-.25-.45l-.15-.6zm-10.85 5.5q-.2.1-.45-.4-.2-.45 0-.55l2.1-.95q.2-.05.4.45l.05.6z"/></svg>