<svg xmlns="http://www.w3.org/2000/svg" width="267" height="175" viewBox="-0.05 -0.15 266.55 174.7"><path fill="#c8384d" d="M265.1 66.1q.25 1.3-.85 5.6-1.05 3.95-1.45 4.35-2.35 2.8-9.95 8.95-7.85 6.3-9.45 6.5-1.35.15-7.15-2.05l-5.55-2.2q-1.6 10.15-2 11-.35.65-2.7 1.55-2.35.95-3.65.95-1.25 0-6.95-4.35-5.65-4.3-5.95-5.4l-1.1-5.55-.75-5.15q-1.65-1.05-4.25-2.1-2.25-.95-3.5-1.2l-1.15 8.7-.95 6.75q-.35.5-7.35 2-7.1 1.55-8.3 1.3-1.2-.3-7-5.05-5.7-4.7-8.25-7.45-.25 6.6-2.85 18.85-2.8 13.1-5.05 16.35-2.3 3.3-5.4 5.2-2 3.05-4.2 5.35-2.5 2.55-4.05 2.9-1.35.35-3.75-.8-2.5-1.2-5-3.5-2.3 1.55-15.95 3.75-12.8 2.05-16.5 1.95-.9 1.25-4.95 3.8-4.45 2.75-6.2 2.6-1.3-.1-4.65-2.9-3.5-2.85-5.1-5.3-1.2-.5-4.4-2.9l-4.15-3.25-3.25.55q-1.55.1-2.55-.65-4.4-3.5-8.4-11.6Q55.2 103 52.5 87.45L47 98.05q-3.35 6.5-3.85 6.85-.85.55-14.15-1.55l1.35 7.3q1.25 6.15 1.45 6.25l6.1.35q5.45.25 5.8.65.65.7-.2 6.85 15.3 9.4 16.05 10.65.55.9.8 5 .25 3.85 0 5.05-.2.95-1.55 2.4-1.3 1.4-2.2 1.75l-8.15-.3-3.2 10.6q-3.5 10.75-4.75 11.7-1.8 1.3-10.35 2.05-9.2.8-13.1-.7-4.4-1.6-10.65-13.05-6.45-11.8-4.9-16.9 1.3-4.45 8.55-11.45l8.95-8.4-2.8-5.1q-2.25-4.5-2.2-5.5 0-1.2 2.95-7.75 2.95-6.6 3.95-7.55.65-.65 11.5-3.7 10.8-3.05 11.3-3.6.8-.9 3.45-5.8l3.55-7.3q-.9-21.2 6.7-31.45 7.9-10.7 29.35-15.6 4-10.75 8.05-18.75Q99.9.85 102.5.75q2.75-.15 9.6 9.65 6.55 9.4 10.2 18.1 18.65 1.9 31.1 12.5 15.7 13.3 14.25 36.05v.2q1.95 1.7 9 5.65 7.05 3.9 8.15 3.85.8-.05 4.45-7.6 3.75-7.8 4.35-8.15l4.95-.3 4.65-.25q.45-.25 4.35-9.05 4-9 5-10.05 1.5-1.6 10.35-6.15 9.15-4.7 11.65-4.9 4.1-.3 16.7 10.15 12.85 10.6 13.85 15.65"/><path fill="#adb2b4" d="M143.75 105.7q-2.85 3.5-19.15 6.1-16.25 2.55-20.85.2-3.15-1.65-4.55-12.9 5.9 5.85 19.8 6.3 14.25.5 23.55-5.45l3.2-2.8q-.9 7.1-2 8.55"/><path fill="#30353a" d="M98.45 90.1h.4q8.45 6.65 24.9 5.55 16.55-1.1 22.95-9.1l1.75-3.05q1.35 1.9.75 5.9-.65 4.4-3.45 7.75l-3.2 2.8q-9.3 5.95-23.55 5.45-13.9-.45-19.8-6.3-.55-3.9-.75-9"/><path fill="#f19963" d="m74.15 117-1.75.55q-1.2-.05-4.25-4.9-3.8-6.1-6.45-14.7 3 4.25 8.25 8.95 4.95 4.4 10.4 7.9 7.4 4.75 11.75 5.5 13.3 2.35 34.85-1.8 22.35-4.3 28.8-11.4-2.2 8.2-4.65 9.7-.85 1.75-3.85 4.7-2.95 2.85-3.85 2.95-.75.05-2.3-.85l-2.3-1.75q-19.1 5.35-36.85 5.9l-4.3 2.3q-3.4 1.7-4.2 1.65-1.4-.05-4.1-2.4-2.15-1.9-3.8-3.95-4.8-2.5-11.4-8.35"/><path fill="#f19963" d="M61.7 97.95q-1.05-3.45-1.95-7.25-2.55-11.45-2.1-22.3 2.55 3.65 7.25 7.8 4.9 4.25 10.3 7.45.45 6.8 2 16.55 1.7 10.65 3.15 14.6-5.45-3.5-10.4-7.9-5.25-4.7-8.25-8.95"/><path fill="#30353a" d="m88.15 89.05 10.3 1.05q.2 5.1.75 9 1.4 11.25 4.55 12.9 4.6 2.35 20.85-.2 16.3-2.6 19.15-6.1 1.1-1.45 2-8.55 2.8-3.35 3.45-7.75.6-4-.75-5.9l-.55-.6q10.15-3.3 12.8-6.6-.65 7.9-1.9 15.95-1.35 8.75-3.05 14.85-6.45 7.1-28.8 11.4-21.55 4.15-34.85 1.8-4.35-.75-11.75-5.5-1.45-3.95-3.15-14.6-1.55-9.75-2-16.55 7.15 4.3 12.95 5.4"/><path fill="#30353a" d="m147.9 82.9.55.6-1.75 3.05q-6.4 8-22.95 9.1-16.45 1.1-24.9-5.55 11.45.45 25.2-1.65 12.55-1.9 22.8-5.2z"/><path fill="#7e8387" d="m147.9 82.9.55.6-1.75 3.05q-6.4 8-22.95 9.1-16.45 1.1-24.9-5.55 11.45.45 25.2-1.65 12.55-1.9 22.8-5.2z"/><path fill="#f19963" d="M93.55 35.35q1.9-9.6 4.85-17.9 3-8.5 4.6-8.5 1.5 0 5.85 8.45 4.05 7.85 7.45 16.8l4.35.45q17.3 2.5 28.5 12.25Q162 58.15 160.8 74.8l-.1 1.5q-2.65 3.3-12.8 6.6l-1.05.35q-10.25 3.3-22.8 5.2-13.75 2.1-25.2 1.65h-.4l-10.3-1.05q-5.8-1.1-12.95-5.4-5.4-3.2-10.3-7.45-4.7-4.15-7.25-7.8.5-9.85 3.35-16 3.15-6.65 12.65-11.25 8.2-3.95 19.9-5.8"/><path fill="#fff" d="M146.45 56q3.4.8 4.25 5.8.75 4.4-.7 9.35-1.5 5-4.65 7.9-3.15 2.95-6.2 2.2-3.05-.8-4-5.4-.85-4.2.35-9.1 1.35-5.35 4.6-8.45 3.15-3.05 6.35-2.3"/><path fill="#c8384d" d="M145.25 60.55q1.35.4 1.8 2.75.5 2.65-.5 6.45-.95 3.5-2.65 5.5-1.75 2.05-3.55 1.55-1.3-.4-1.8-2.7-.55-2.7.5-6.55.9-3.25 2.65-5.35 1.85-2.1 3.55-1.65"/><path fill="#fff" d="M111.95 69.3q2.75 5 2.7 9.85-.05 4.6-2.6 6.25-2.55 1.6-6.75-.4-4.6-2.15-7.45-7.2-2.75-4.9-2.7-9.8 0-4.7 2.45-6.25 3.15-2.05 7.55.4 4.15 2.35 6.8 7.15"/><path fill="#c8384d" d="M100.15 65.8q1.5-1.15 3.9.3t4.4 4.6q1.75 2.8 2.1 6.15.4 3.35-.9 4.4-1.3 1-3.75-.45-2.65-1.6-4.65-5.15-1.45-2.6-1.9-5.65-.45-3.25.8-4.2"/><path fill="#fff" d="M117.5 79.3q3.6 1.8 8.55 1.45 5-.4 7.25-2.75-.85 7.45-7.6 7.55-2.8 0-5.05-1.6-2.45-1.75-3.15-4.65M11.95 135.8q.45-.35 1.4.5t.9 1.5q-.2 8.4 1.2 19.4l1.65 11.4q.25 2.25-1.55.3-1.65-1.75-4.1-5.95-6.15-10.75-6.4-16.9-.1-2.4 2.5-5.8 2.15-2.85 4.4-4.45m6.6 20.35q.35 0 3 4.35 3.1 4.95 4.95 6.7.55.55.6 1.9.05 1.2-.3 1.9-.3.6-2.35.65l-3.4-.4q-1.15-.4-2.3-7.75t-.2-7.35M230.35 48.7l-3.9 5.85-1.7 2.8-1.65 1.35q-7.3 3.8-12.75 7.8-1.7 1.3-2.1 1.35-.6.15 0-1.45 1.2-3.2 2.85-6.7 1.95-4.05 2.95-5.05 1.7-1.65 9.35-5.4 7.4-3.7 8.4-3.65.5.05-1.45 3.1m5.8-3.4q.85-.1 4.1 1.9 3.3 2.05 3 2.8-.25.7-5 3.8-4.5 2.9-5.3 3.15l-2.4-.3q-1.8-.5-1.85-1.15-.1-.75 3.1-5.35 3.3-4.7 4.35-4.85"/><path fill="#838688" d="M102.8 111.3q-1.4-1.25-2.5-5.85L99.05 99q5.15 5.2 15.8 6.35 10.6 1.15 21.8-2.15-7.15 5.8-18.8 8.55-11.5 2.65-15.05-.45"/><path fill="#d18456" d="m84.4 88.55-9.3-4.8L76.65 97q1.9 14 3.7 17.6.7 1.4 5.35 3.7 2.3 1.2 4.5 2.05.8 4.45 1.95 5.55 1.55 1.5 3.8 1.85 1.4.25 5 .1-5.95 3.8-7.55 3.8t-8.25-6.45l-4.4-2.8q-4.75-3.25-6.65-5.65-1.05.7-1.9.7-1.8 0-5.85-7.35-5.7-10.35-8.25-26.95-2.5-16.35.75-26.55 1-3.2 2.45-5.4l1.25-1.55q-2.35 5.4 8.25 14.3l7.7 5.95q3.7 2.85 3.85 3.65zm54.05 33.4 4.2-1.45q5-1.9 9.1-4.3l-3.25 3.9q-3.6 3.9-5.25 3.95-1.6.1-3.35-1z"/><path fill="#212226" d="M76.5 95.7 75 83.5l9.4 5.05q.85 7.75 2.6 17.05 1.65 8.9 3.2 14.65l-9.75-5.3q-2.05-5.9-3.95-19.25"/><path fill="#d18456" d="M97.6 19.35q-1.4 7.65.25 16.9 1.1 6 2.9 10.55.95 2.45-3.65 1.65-4.65-.85-5.3-2.7-.2-.65 2.75-13.6z"/><path fill="#212226" d="M114.3 95.7q12.9 1.6 24.9-3.15-5.65 3.6-9.55 7.9-3.55 3.9-5.6 5-4.1.45-9.3-.1-10.4-1.15-15.95-6.3l-.55-8.65 1.3.05q3.9 3.95 14.75 5.25"/><path fill="#f8ceb0" d="M134.5 47.2q-.2-1.4.95-2.35t2.85-.8q1.9.15 3.25 1.45 1.2 1.1 1.35 2.35.15 1.6-.75 2.45-1 .9-3.1.75-1.75-.15-3.05-1.25-1.35-1.15-1.5-2.6"/><path fill="#9c1c33" d="M266.2 65.9q.3 1.45-1.05 5.95-1.25 4.05-1.8 4.7-2.4 2.8-9.95 9.05-8.15 6.7-10 6.9-2.1.25-11.65-3.7l-1.2 5.7-1.2 4.05q-.45.9-3.1 1.95-2.55 1-3.9 1-1.45 0-7.3-4.45-5.9-4.45-6.3-5.85l-.95-4.8-.9-5.65q-1.2-.75-3.2-1.45l-3-.95q-1.7 14.1-2 14.45-.55.8-8.15 2.35-7.45 1.55-8.6 1.3-1.3-.3-6.3-4.05t-8-6.7q-.6 7.25-3.15 18.15-2.75 11.8-4.95 15.05-2.35 3.3-5.05 5.1-1.8 2.65-4.2 5.1-2.95 2.95-4.8 3.4-1 .25-3.7-.7-3.15-1.15-5.3-3.05-3.25 1.6-16.05 3.5l-15.9 1.75q-1.5 1.6-5.35 3.9-4.3 2.55-6.2 2.4-1.55-.15-5.05-2.95-3.6-2.8-5.25-5.3-1-.45-4.55-3.1l-3.7-2.85-3.4.55q-1.55 0-2.65-.85-4.75-3.8-8.8-11.7-5-9.7-7.6-23.55l-4.1 8.05q-3.55 6.85-4.25 7.25l-13.8-1.6 1.25 6.45 1.2 5.55 6.15.2q5.65.25 6.1.85.45.5.2 3.1l-.5 4q15.05 9.2 15.9 10.65 1 1.55 1 8.5l-.1 2q-.15 1.15-1.7 2.8-1.45 1.5-2.5 1.9l-3.4.3-4.15-.2q-1.6 5.6-3.9 12.05-3.15 8.85-4.5 9.8-1.95 1.45-10.9 2.35l-13.7-.5q-4.3-1.6-10.25-12.1Q0 151.3 0 144.95q0-1.05.25-2.05 1.1-3.65 6.1-8.85 2.15-2.25 8.55-8l3.2-3q-5.15-8.75-5.15-10.7 4.4-12.5 7.15-15.5.7-.75 11.65-3.85 11-3.1 11.4-3.5l3.15-5.65 3.4-7.3-.1-4.9q0-19.05 8.15-28.65 8.1-9.6 28.1-14.2Q88.9 20.6 93 12.4 99.15.15 102.45 0q3.15-.15 10.35 9.7 6.7 9.25 10.5 17.95 18.85 2.05 30.75 12.15 14.45 12.25 14.45 33.65l-.1 3.05q2.3 1.9 8.65 5.6t7.65 3.9l4.1-8.05q3.65-7.7 4.05-7.9l5.1-.2h4.85l4.4-9.55q4.2-9.25 4.75-9.85 1.55-1.65 10.85-6.4 9.65-4.85 12.35-5.05 4.3-.35 17.05 10.45 12.9 10.95 14 16.45m-2.55 5.15q.95-3.9.75-4.8-.95-4.85-13.6-15.25-12.4-10.25-16.15-9.95-2.45.2-11.45 4.8-8.75 4.5-10.15 6-.9 1-5.3 10.85l-2.9 6.45-1.25 1.9-1.55.35h-3.25l-4.8.2q-.55.45-3.6 6.8l-3.65 7.15q-1.1 1.85-1.9 1.9-1.2.05-7.7-3.5-6.35-3.45-9.25-5.6-.7-.5-.85-.95l-.1-1.2Q168 54.75 153.3 41.85q-12.25-10.7-31.1-12.65-.35 0-.55-.45Q117.9 20 111.4 10.7q-6.55-9.35-8.9-9.25-1.9.1-6.3 8.4t-8.8 20.2l-.5.45q-20.8 4.75-28.6 14.95-7.8 10.15-6.85 31.35-5.8 12.45-7.25 13.65-.65.55-11.5 3.8-10.9 3.2-11.3 3.55-.85.85-3.75 7.25t-2.95 7.5q0 .85 2.1 5.1 1.95 3.9 2.8 5.1.35.55-.1 1.15l-8.25 7.5q-8.05 7.75-9.05 11.8-1.3 5 5 16.5 6.15 11.15 10.1 12.6 3.8 1.4 12.8.6 8.35-.7 9.95-1.85.85-.6 3.2-7.5 2.25-6.45 4.5-14.45.15-.6.8-.5l7.8.3 1.9-1.55 1.4-2.05q-.05-8.4-.7-9.5-.9-1.25-15.3-10.1l-.75-.7q-.15-.25-.05-.85l.25-3.55.05-2.2-5.85-.35-5.8-.5q-1-.55-3.25-14.1-.05-.35.2-.6t.65-.2l8.65 1.2 5 .4 4.55-8.45 4.55-8.7q1.05-1.75 1.35.2 2.55 14.6 7.4 25 4.1 8.75 8.7 12.4l4.3.1 1.3-.15 1.05.75 2.95 2.3 4.05 2.85.5.3.55.55q1.65 2.35 4.95 5Q92 138.9 93 139q1.3.1 4.65-1.85 2.9-1.7 4.95-3.4.95-.75 1.35-.9l2.15-.35 15-1.95q10.4-1.75 13.95-3.05l1.8-.45 1.3.95q2.15 1.75 4 2.6t3 .6q1.3-.3 3.5-2.55 2.25-2.3 4.3-5.4l2.95-2.4 2.45-2.8q2.15-3.1 4.9-16.05 2.65-12.3 2.9-18.75 0-.7.45-.8.4-.1.8.3 2.55 2.8 8.25 7.5 5.6 4.55 6.6 4.8.95.2 7.3-1.15l7.6-1.95.9-6.9 1.1-8.2.3-.5.6-.05q1.3.25 3.65 1.2 2.65 1.1 4.3 2.2.4.3.3.7l.8 5 1.05 5.4q.45 1.1 5.8 5.1 5.3 4.05 6.4 4.15 1.1 0 3.25-.85 2.1-.8 2.45-1.3.45-1.1 1.95-10.75.1-.5.3-.65l.7.1 7.1 2.8q4.25 1.5 5.25 1.4 1.35-.2 8.9-6.2 7.55-6.1 9.95-8.95.5-.85 1.45-4.6"/><path fill="#7e8387" d="m140.8 91.55 4.1-3.25q.35 1.35-.35 5.3-.8 4.55-2.35 6.6l-3.8 2.25q2.35-8.3 2.4-10.9m15.85-4.2q-.35 0-.55-2.45l-.1-5.25 2.45-.95-.9 5.85q-.55 2.8-.9 2.8"/><path fill="#f8ceb0" d="m158.6 75.05-.15 3.65-2.45.95.2-3.35q.6-4.7 1.45-5.15.8-.45.95 3.9"/><path fill="#0d131a" d="M102.7 7.3q.95-.2 2.7 2.1 3.05 3.95 7.4 13.9 4.15 9.45 6.25 16.65 1.25 4.35.6 4.5t-1.85-3.8q-2-6.7-6.25-16-4-8.85-6.75-12.95-1.35-2-1.9-1.95-.45.05-1.45 2-1.85 3.65-4.2 12-2.45 8.75-4.4 19.3-.55 3.05-1.25 3.15-.75.05-.1-3.9 1.35-8.6 3.9-17.95 2.75-10.3 5.2-14.55 1.35-2.35 2.1-2.5m38.6 113.05q2-.6.8.45-1.15 1-3.25 1.7-19.6 6.45-41.05 5.95-2.4-.05-2.95-.7t1.8-.65q21.6.25 44.65-6.75M131.2 86.7q24.5-5.05 29.45-11.4.4-.5.45.7 0 1.2-.9 1.9-7.45 6.2-30.2 10.65-24.7 4.85-42 1.7-7.3-1.35-17.15-8.3-9.85-7-13.55-13.4-.15-.25.25-1.05.35-.75.5-.5 3.65 6.45 13.2 13.2 9.5 6.7 17.05 8.25 17.05 3.5 42.9-1.75M61.6 97.6q-.05-1.15.1-.9 4.75 7.15 15 14.7 9.85 7.25 15.5 8.2 14.05 2.5 36.5-2.1 23.6-4.8 27.4-12.4v1.05l-.3 1.55q-5 7.25-28.15 11.8-22.1 4.3-35.95 1.9-5.5-1-14.8-7.9-9.45-7.05-15-14.35-.25-.4-.3-1.55m8.75 16.4q-1.5-1.65-1.55-2.4-.1-.75 1.45.8 9.3 9.3 17.25 13.05 2.45 1.2 1.65 1.45-.75.3-3.3-.8-3.75-1.6-7.9-4.9-3.95-3.1-7.6-7.2"/><path fill="#0d131a" d="m84.15 125.05 1.2.15q1.3.4 1.5.65 1.45 1.8 3.35 3.35 2.15 1.75 3.3 1.8.6 0 6.25-2.9l3.75-.25-6.1 3q-3.25 1.5-3.95 1.45-1.8-.05-5.2-2.95-2.9-2.45-4.1-4.3m9.25-90.6-.35 1.65q-11.3 1.85-19.2 5.7-9.15 4.45-12.2 10.9-3.35 7.25-3.35 18.7 0 9.35 2.15 19.15 2.5 11.15 7 19.45 3.4 6.15 5.05 6.85l1.2-.45q.25-.1.6.55.3.65.05.75-1.25.65-2 .6-2.15-.15-6.15-7.05-4.95-8.45-7.55-20.1Q56.4 81 56.45 71.1 56.5 59.3 59.9 52q3.15-6.75 13.1-11.45 8.4-4.05 20.4-6.1m27.15.9-3.6-.4-.75-.8q-.35-.45-.4-1l5.15.5q17.9 2.6 29.05 12.3Q163.05 57.3 161.85 75q-.85 13.25-3.4 25.45-3.05 14.65-6.65 16.85l-4.15 1.75-1.9.3q-.25-.3 1.45-1.15l3.65-2.15q3.2-2.25 5.75-14.6 2.35-11.05 3.5-26.7 1.2-16.15-11.3-27.15-11.05-9.75-28.25-12.25"/><path fill="#0d131a" d="M143.35 123.7q.8-.1 3.3-2.3 2.7-2.4 3.3-3.9l2.4-.7q-1.3 2.25-4.45 5.1-3.2 2.95-4.45 3-1.1.05-2.95-.8-1.8-.9-2.5-1.75-.2-.25.45-.7.6-.45.8-.2.55.7 2 1.5t2.1.75M74.3 83.75l.8.1q.8.35.8.65.3 6.2 2.05 16.4 1.85 10.95 3.45 14.05l-.85-.15q-1-.45-1.15-.85-1.6-4.4-3.3-14.8-1.5-9.5-1.8-15.4m36.35 12.1q-8.1-1.6-12.55-5.5l.65-.35 1.05.05q4.2 3.25 11.75 4.5 7.15 1.25 14.85.3 7.95-1 13.5-3.95 6.1-3.2 7.55-7.95l.7-.05q.65.2.55.5-1.3 5.2-7.7 8.75-5.9 3.2-14.35 4.25z"/><path fill="#0d131a" d="m97.35 90.2.95-.1q.95.15.95.45.3 7.75 1.45 13.3 1.35 6.45 3.4 7.5 4.05 2.1 19.9-.15 16.2-2.25 19.15-5.95.85-1.1 1.65-6l.7-1.7q.45-.95 1.1-1.4-1.15 8.65-2.45 10.2-3.2 4-19.8 6.45-16.3 2.35-21-.05-3.05-1.55-4.75-10.95-.95-5.45-1.25-11.6"/><path fill="#0d131a" d="M98.95 98.75q.1-.8.3-.6 5.2 5.85 19.15 6.5 14.4.65 23.75-5.3 4.85-3.1 6.05-9.2 1-5.15-.5-6.5-.2-.2.25-.65t.65-.25q1.9 1.7 1.1 7.4-1 6.85-6.55 10.4-9.15 5.85-23.25 5.65-14.15-.2-20.8-6.4-.2-.2-.15-1.05m52.3-37.25q1 4.75-.55 10-1.7 5.65-5.6 8.55-3.45 2.55-6.2 1.65-3.15-1-4.3-5.5-1.1-4.3.2-9.5 1.45-5.65 4.95-8.9 3.4-3.2 6.85-2.4 3.6.85 4.65 6.1m-1.25.25q-.8-4.4-3.7-5.05-2.75-.65-5.6 2-3.15 2.85-4.5 8.2-1.15 4.65-.35 8.65.85 4.3 3.45 5 2.75.7 5.7-2.15 2.9-2.8 4.3-7.45 1.5-5.05.7-9.2"/><path fill="#0d131a" d="M147.85 64.35q.2 2.65-.6 5.6-.95 3.5-2.95 5.7-2.05 2.25-4.15 1.65-1.75-.5-2.25-3.35-.55-2.85.45-6.6.95-3.7 3.1-5.8 2.05-2 4-1.45 2.2.6 2.4 4.25m-1.3-.45q-.3-2.25-1.5-2.65-1.3-.4-2.8 1.35-1.65 1.85-2.5 5.15-.9 3.45-.55 5.95.3 2.2 1.35 2.55 1.3.35 2.8-1.35 1.65-1.95 2.6-5.45.85-3.2.6-5.55m-42.2-2.9q4.85 1.9 8.25 7.95 2.5 4.45 2.65 9.45.15 5.45-2.85 7.35l-7.35-.2q-5-2.2-7.95-7.4-2.85-5.1-2.7-10.15.1-4.95 2.95-6.75 2.9-1.8 7-.25m6.95 8.65q-3.05-5.55-7.35-7.3-3.6-1.5-5.95 0-2.15 1.4-2.15 5.8.05 4.7 2.65 9.3 2.5 4.4 6.8 6.65 4.1 2.15 6.35.7 2.2-1.45 2.25-5.75.05-4.65-2.6-9.4"/><path fill="#0d131a" d="M104.05 65.4q2.75 1.3 5 4.85 2 3.25 2.25 6.8.25 3.5-1.3 4.55-1.5 1.05-4.15-.2-3.05-1.5-5.2-5.35-1.8-3.25-2.1-6.4-.25-3.3 1.4-4.35zm3.9 5.8q-2.25-3.6-4.55-4.75l-2.8-.1q-1.15.85-.55 3.9.5 2.7 1.85 5.05 1.95 3.5 4.25 4.9 1.9 1.25 3.05.5 1.3-.9.75-4.15-.5-2.95-2-5.35m38-.15q-.3-.2.15-.8.5-.65.7-.3l2.9 1.25q.25.15.05.8l-.45.5zm-10.35-4.9q-.25-.15.05-.8.35-.65.6-.5l3.25 1.5q.45.3.1.95t-.7.35l-1.95-1z"/><path fill="#0d131a" d="m98.3 78.05 2.7-2.3q-.2.2.25.8.4.55.65.35l-2.65 2.2q-.2.2-.7-.35-.45-.5-.25-.7m12.35-10.1q.25-.15.6.45.35.55.15.75l-2.55 2.05q-.2.2-.65-.35t-.25-.75zm9.55 16.7q-2.45-1.85-3.45-5.1-.3-1.1-.1-1.25t1.2.35q3.75 1.9 8.2 1.55t6.75-2.7q.55-.65.8-.4l.1 1.1q-.45 4-2.8 6.15-1.95 1.8-4.85 2-3.3.2-5.85-1.7m-2.05-4.6q.9 2.3 3.05 3.65 2.15 1.4 4.85 1.2 2.5-.15 4.2-1.65 1.8-1.6 2.25-4.1-3 2.05-6.7 2.3t-7.65-1.4"/><path fill="#0d131a" d="M122.85 80.8q0-.35.65-.4.6-.05.6.25l-.05 4.65q0 .35-.6.25t-.55-.4zm5.85-.6.6-.35q.6-.1.65.2l-.1 4.45q0 .3-.55.4-.55.05-.55-.2v-2.55z"/></svg>