<svg xmlns="http://www.w3.org/2000/svg" width="251" height="152" viewBox="-0.15 -0.25 251.45 151.6"><path fill="#8b92c7" d="M250 11.55q.15 1.25-2.45 35.9-.95.55-24.45 11l4.05 20.8-19.6 18.3-8-7.95q-1.55 9.4-2.5 13.65-1 4.3-2.85 5.8-1.05.85-4.9 2l-9.7 2.3-7.9 1.75-.45 12.3q-.15 2.75-1.8 5.25-1.25 1.9-2.85 3.15-1.4 1.1-7.75 4.65-6.65 3.75-7.9 4l-7.95.85q-6.4 4.6-18.5 4.9-12.35.35-19.1-4.15-7-.15-10.35-1.65-4.3-1.95-6.15-7.25-4.45-12.7-8.1-24.9-2.45-1.45-3.75-3.1-1.5-1.95-5.2-13.2-1.9 1-14.6 8.7l-12.35 7.5Q46.85 91 47.35 87.1q-3.65-1.2-21.15-8.95l-16.75-7.5L1.3 34q12.75 7.6 30.55 20Q51 67.35 56.75 73.1q-.8 3.45-3.7 24.45L68.7 89.6q-4.95-4.95-6.45-11.5-1.35-5.85.5-9.95-.55-3.3.3-5.05 1.1-2.2 5.7-5.45.15-2.95.95-4.3.55-.95 3.15-3.25 3.5-3.2 12.25-8.8 9.85-6.4 15.05-8.15 2.9-9 5.9-16.9 5.9-15.5 8.4-15.7 2.65-.2 10.15 14.1 6.7 12.9 8.2 18.3l13.55.7 10.4.95q4.95.9 7.75 3.65 2.65 2.6 3.75 7.15.55 2.4 1.1 6.95.65 5 .8 9.6l8.15-6.2q7.8-5.65 9.3-5.8 2.95-.25 8.5 2.55 5.3 2.65 6.8 4.85.85 1.25.4 8.1 1.9 3.95 1.15 9.85-.75 5.8-3.45 8.9l5.5 4.45q.35-.8 5.85-6.45 5.9-6.05 7.1-7.85l-4.85-10.7q-4.95-10.95-7.4-15.4 6.7-7.6 20.65-19.4 13.05-11.1 22.15-17.3"/><path fill="#f19963" d="M164.55 55.85q.85 7.1.75 12.7-.05 1.1-.95 1.7-.7.5-1.95.45l-29.25-.9q-25.35-.65-27.4.1-3.25 1.2-7.25 3.95l-1.7-1.5Q93.3 57 92.6 50.1q-.7-6.75 3.35-9.45 4.95-3.25 26.35-3.2 18.45.1 32.1 2.05 3.45.5 5.3 1.8 1.55 1.05 2.4 3.1 1.5 3.6 2.45 11.45"/><path fill="#8b92c7" d="m142.9 100.05.95 12.5-8.3.05q-1.75-1.5-2.35-3.35-.2-.6-.6-.8l-1.25-.2q-4.25-.1-11.05-.05l-8.95.4-.8.45-1.4-7.95q3.5-.4 18.5-.35l14.3-.15z"/><path fill="#30353a" d="m135.55 112.6 15.6-.05q-2.7 3.2-7.65 3.05-4.65-.2-7.95-3"/><path fill="#8b92c7" d="M106 84.2q-1-4.1 1.5-5.55 1.75-1.05 6.85-1.2 4.8-.15 17.8 0l13.7.25q2.95.15 3.9.8 1.2.8 1.65 3.55l2.25 27.2h-.8q-.5 1.85-1.7 3.3h-7.3l-.95-12.5 6.75-3.6q.3-.15.25-1.35-.05-1.25-.4-1.4l-7.2-.65-.35-3.65q-.25-2.45-.9-3.6-.8-1.55-2.7-1.75-2.05-.25-15.55-.2-13.65.05-16.8.35"/><path fill="#f19963" d="M104.5 38.2q2.1-7.9 5.55-17.8 3.8-10.85 4.8-10.9 1.2-.05 6.4 10.45 4.95 10 7.85 17.9-16.2-.4-24.6.35m-19.3 9.1q6.7-4.65 10.75-6.65-4.05 2.7-3.35 9.45.7 6.9 4.2 22.25-4.65-3.2-11.5-7.4-8.75-5.3-10.05-5.25-.45 0-1.35.35-.45-3.55 1.9-5.7 3.55-2.95 9.4-7.05M74.55 88.5q-3.65-1.7-6.1-8.7-2.55-7.3.1-10.7 1.6 6.9 6 19.4"/><path fill="#8b92c7" d="M149.5 93.7q.35.15.4 1.4.05 1.2-.25 1.35l-7.7 4.15-14.3.15q-15-.05-18.5.35l-1.5-8.05q7.85-.8 24.2-.5z"/><path fill="#8b92c7" d="M107.65 93.05 106 84.2q3.15-.3 16.8-.35 13.5-.05 15.55.2 1.9.2 2.7 1.75.65 1.15.9 3.6l.2 3.35q-7.85-.4-18.1-.35z"/><path fill="#f19963" d="M85.3 64.95q6.85 4.2 11.5 7.4 2.4 1.75 4 6.35-.4-.4-7.35-4.15-7.35-3.95-7.9-3.5-.65.55.4 4.65 1.05 4 1.8 4.6.65.55 7.05 3.3 6.45 2.8 8.15 3.25l1.75 6.45q-12.45-4.9-13.25-4.25-.95.7.2 4.4 1.1 3.7 2.3 4.25 1.65.8 7.25 2.1 5.8 1.35 5.8.7 1.25 4.5 1.4 6.15.1 1.2-2.65 3-2.45 1.6-3.5 1.7-3.1.35-10.8-1.5-7.3-1.75-9.1-3-1.95-1.35-8.3-20.05-6.2-18.35-6.05-21.1.15-1.9 3.35-4.1 2.75-1.9 3.9-1.9 1.3-.05 10.05 5.25"/><path fill="#30353a" d="M162.4 70.7q1.25.05 1.95-.45l-4.3 4.6q-2.9 2.85-2.95 3.4-.25 3.6.8 16.05l1.1 15.1-5.35-.15-2.25-27.2q-.45-2.75-1.65-3.55-.95-.65-3.9-.8l-13.7-.25q-13-.15-17.8 0-5.15.15-6.8 1-2.4 1.25-1.7 4.95l4.7 25.65-6.5 3.85-.45-2 3.25-2.35q1.6-1.45 1.55-1.9-.15-1.65-1.4-6.15.7-.95.05-3.7-.7-2.85-1.95-3.35-.1 0-1.85-6.15 1.15-1.15.35-4.1-.85-2.95-2.8-4.5-1.15-3.3-2.3-4.85 4-2.75 7.25-3.95 2.05-.75 27.4-.1z"/><path fill="#f19963" d="M196.95 65.5q2.55 2.1 1.7 9.1-.85 7.05-4.15 9.2 1.85-11.3 2.45-18.3"/><path fill="#f19963" d="M193.2 57.4q2.9 1.65 3.8 3.35t-1.8 19.05q-2.3 15-3.85 21.55-.45 2-1.5 2.9-.85.75-3.05 1.4-13.7 4.05-17 4.7-.55.1-4.05-1.5-3.5-1.65-3.8-2.25-.1-.2.15-2.9.2-2.75.4-2.8l16.25-5.5q.75-.3 1.45-3.85l.7-4.7q.15-1.65-.15-1.9-.45-.3-2.3.65l-15.55 7.5.65-7.45 8.9-4.45q7.65-3.9 8.35-4.4.6-.4 1.3-3.5.6-2.95.65-5.05.05-1.95-1.1-1.45-2.65 1.2-8.7 4.95-5.95 3.65-8.55 5.65l.45-3.15q.3-1.25 10.5-9 10-7.65 12.65-8.85 1.95-.9 5.2 1m-31.4 75q-1.3 1.4-6.1 3.95-4.6 2.5-7.05 3.2-3.1.9-45.5.95-4.5-.2-6.4-2.2-1.65-1.75-4-8.15-4.35-11.85-7.25-22 4.1 1.3 9.1 2.3 5.55 1.15 7.65.9l1.35-.45.45 2q3.1 13.35 4.75 16.4 1.05 1.95 2.55 2.85 1.9 1.15 4.95 1.15l23.35-.4z"/><path fill="#f19963" d="M165.95 112.25q.4 7-.05 14.5-.2 2.75-1.95 4.3-1.4 1.25-3.25 1.35l-21.6.5-22.8.4q-3.05 0-4.95-1.15-1.5-.9-2.55-2.85-1.65-3.05-4.75-16.4l7.3-4.3 8.95-.4q6.8-.05 11.05.05l1.25.2q.4.2.6.8 1.5 4.65 7.95 6.05 6.55 1.45 10-2.75 1.2-1.45 1.7-3.3l10.2.3q1.6.1 2.2.6.6.55.7 2.1M100.8 78.7q1.85 1.45 2.7 4.7.8 3.1-.2 3.5l-7.45-3.05-8.1-3.55q-.75-.6-1.8-4.6-1.05-4.1-.4-4.65.55-.45 7.9 3.5 6.95 3.75 7.35 4.15m4.3 14.75q1.25.5 2 3.4.75 2.85-.1 3.65-.45.4-6-.85-5.5-1.2-7.05-1.95-1.2-.55-2.3-4.25-1.15-3.7-.2-4.4.55-.45 6.55 1.7zm65.8-20.5q6.95-4.45 10.75-6.15 1.15-.5 1.1 1.45-.05 2.1-.65 5.05-.7 3.1-1.3 3.5-.75.55-8.95 4.6l-8.25 3.95q-.85-.5-1-3.3-.15-2.85.65-3.75 1.1-1.2 7.65-5.35m7.55 12.65q1.85-.95 2.3-.65.3.25.15 1.9l-.7 4.7q-.7 3.55-1.45 3.85-15.85 5.7-16.5 5.3-1.25-.75-1.1-3.75.1-3 1.55-3.8z"/><path fill="#fff" d="M115.6 44.35q2-1.25 5 .2 3.35 1.6 6.1 5.9 2.15 3.4 2.4 7.35.2 4-1.8 5.1-1.95 1.15-5.05-.4-3.35-1.75-5.8-5.7-2.35-3.75-2.55-7.6-.15-3.7 1.7-4.85m37.25-.2q2.05.7 2.65 4.25.55 3.4-.5 7.15-1.15 4.1-3.6 6.4-2.2 2.05-4.1 1.65-2.35-.55-3.2-4.15-.8-3.4.1-6.75 1.2-4.45 3.7-6.9t4.95-1.65"/><path fill="#8b92c7" d="M149.05 49q1.55-1.95 2.7-1.5 1.2.5 1.3 3.05.05 2.35-.8 5.05-.6 2.05-1.8 3.4-1.3 1.55-2.55 1.2-1.2-.3-1.35-2.6-.2-2.1.55-4.65.6-2.15 1.95-3.95M118 47.65q1.05-.6 2.9.6 1.95 1.3 3.6 4 1.35 2.2 1.7 4.6.3 2.4-.75 2.95-.95.5-2.95-.85-2.1-1.4-3.6-3.85-1.35-2.2-1.65-4.45-.35-2.35.75-3"/><path fill="#fff" d="M131.9 59.3q2.05 1.5 5.65 1.45 3.5-.1 4.75-1.45 0 2.3-1.35 4.1-1.45 2-3.7 1.95-2.05-.05-3.7-1.7-1.8-1.85-1.65-4.35"/><path fill="#30353a" d="M123.8 140.65q14.75-.25 18.4-.1-5.9 3.5-17.55 4-12.4.5-17-3.55 2.35-.15 16.15-.35"/><path fill="#797fad" d="M145.45 105.35q-1.4 4.4-1.6 7.2l-8.3.05q-1.75-1.5-2.35-3.35-.2-.6-.6-.8l-1.25-.2q-4.25-.1-11.05-.05l-8.95.4-.8.45-1.4-7.95q3.5-.4 18.5-.35l14.3-.15 7.45-3.65q-2.25 3.3-3.95 8.4M106 84.2q-1-4.1 1.5-5.55 1.75-1.05 6.85-1.2 4.8-.15 17.8 0l13.7.25 3.4.55q1.2.5 1.75 2.1-1.2-1-3.8 1.55-3.5 3.35-4.9 11.15l-.35-3.65q-.25-2.45-.9-3.6-.8-1.55-2.7-1.75-2.05-.25-15.55-.2-13.65.05-16.8.35"/><path fill="#797fad" d="M128.8 96.4q12.75-.3 20.45.3l-7.3 3.9-14.3.15q-15-.05-18.5.35l-.85-4.55zm-21.15-3.35L106 84.2q3.15-.3 16.8-.35 13.5-.05 15.55.2 1.9.2 2.7 1.75.65 1.15.9 3.6l.35 3.65q-8.5-.45-18.2-.5z"/><path fill="#d18456" d="M195.55 77.6q1.95-.85 3.3-3.25-.25 3.15-1.4 5.7-1.2 2.6-2.95 3.75zm-37.3 57.5q-5.85 3.4-9.6 4.45-3.1.9-45.5.95l-4.7-.7q-1.85-.85-3.35-3.65-2.1-3.8-9.65-27.65 4.8 1.6 11.95 2.45l6.25.5.25 1.7 6.65-4.1 1.85 7.85q1.6 6.5 3.2 10.25.35.85 1.95 1.65t22.8.4l25.2-.85q-.15 2.65-7.3 6.75m-70.5-54.65q-.7-.65-1.4-3-.65-2.15-.65-3.45 1.4 3.5 5 5.3 5.75 2.95 8.95 3.8 3.95 1.1 3.3-1.3.7 1.75.85 3.3.1 1.55-.5 1.8l-7.4-2.85q-7.55-2.95-8.15-3.6M93.6 97.7q-.55-.45-1.55-3.15-.9-2.55-.9-3.15.8 2.75 3.85 4.25 1.9.9 6.35 1.9l4.55.25q1.05-.35.85-1.15.45 1.15.5 2.45l-.25 1.4-6.5-1q-6.25-1.3-6.9-1.8"/><path fill="#d18456" d="M78.15 98.55q-3.3-7.9-4.9-14 2.05 2.55 6.45 5.95l6.1 4.4 1.4 4.25q.65 1.75 1.35 2.25 1.5 1.15 8.75 3.25 7.55 2.15 11.05 2.2-.15 1.2-2.8 2.9-2.35 1.5-3.3 1.6-3.1.35-10.8-1.5-7.3-1.75-9.1-3-1.05-.65-4.2-8.3m107.55-7.9q3.1-2.55 5.8-5.8 2.75-3.35 3.85-5.9-1.15 10.5-3.95 22.7-.45 1.95-1.55 2.75l-3.05 1.25q-13.7 4.05-17 4.7-.7.1-3.9-1.35-3.4-1.5-3.95-2.55.95.5 10.4-2.7 9.85-3.35 11.5-5.45.65-.8 1-2.4zM112.8 12.5q-6.05 23.55 6.05 25.15l-14.6.5zm59.9 66q4.8-2.65 6.5-4.05 2.85-2.3 3.5-5.25.35 2.25-1.6 7.6l-17.25 8.65q-.9-.45-1.2-2.35l-.15-1.85q.5 1.35 3.6.35 2.25-.75 6.6-3.1"/><path fill="#d18456" d="m163.3 98.1 7.25-2.25q4.9-1.6 7.3-3.45 2.3-1.75 3.05-4.4-.05 3.2-1.1 5.7l-1 1.85-16.15 5.3q-1.15-.4-1.5-2.5l-.05-1.55q.2 1.6 2.2 1.3m-63.25-52.4q.35 6.9 2.6 16.4 1.1 4.75 2.15 8.1l-5.95 3.7-11.1-7.2Q76.5 59.5 75.8 59.45l-1.4.3-.5.35q-.3-.75-.2-1.85.2-2.25 2.25-4.1 2.1-1.85 8.5-6.25 6.75-4.6 11.45-7.35 2.75-1.6 8.5-2.5-2.6 1.3-3.35 2.4-1.15 1.6-1 5.25m-25.5 42.8q-3.65-1.7-6.1-8.7-2.55-7.3.1-10.7 1.6 6.9 6 19.4"/><path fill="#212226" d="M162.4 70.7q1.25.05 1.95-.45l-4.3 4.6q-2.9 2.85-2.95 3.4-.05 1.1.05 2l.3 3.25q-3.8 4.45-4.8 11.35l-.85-9.05-.4-3.75q-.45-2.75-1.65-3.55-.95-.65-3.9-.8l-13.7-.25q-13-.15-17.8 0-5.2.1-6.95 1.05-2.6 1.5-1.2 6.7-1.95 4.35-1.9 6.55l-1.05-4.45q.85-2.45-.3-5.4-.95-2.25-2.15-3.2-1.15-3.3-2.3-4.85 4-2.75 7.25-3.95 2.05-.75 27.4-.1zm-38.6 69.95q14.75-.25 18.4-.1-5.9 3.5-17.55 4-12.4.5-17-3.55 2.35-.15 16.15-.35"/><path fill="#0d131a" d="M141.85 139.95q.1-.15.85 0 .75.1.65.3-3.35 4.3-17.15 4.9-14.3.65-19.8-4.35-.15-.15.7-.35l1-.05q4.25 4.05 18 3.45 13.2-.6 15.75-3.9m24.05-71-.55 1.35-1.75 2q-5.75 5.55-5.85 6.05-.1 2.15 1 16.2l1.15 14.75q0 .25-.65.2-.7 0-.7-.25l-1-12.8q-1-12.8-1.05-16.85 0-1.4.25-1.9l1.2-1.45 2.5-2.6 2.4-2.3-27.35-.9q-27.7-.75-29.55-.05-3.2 1.2-6.8 3.8l-.5-.3q-.3-.4-.1-.55 2.2-1.6 2.9-2.05 1.95-1.25 4.1-2.05 2.25-.8 29.55-.05l27.3 1q2.35.1 2.35-1.65.1-5.5-.75-12.45-.9-7.9-2.4-11.5-.75-1.85-2.2-2.9-1.75-1.2-5.1-1.7-10.15-1.4-28.75-1.7-17.7-.25-23.05.65-5.2.95-7.45 3.4-2.5 2.7-1.95 7.7.7 6.55 4.35 22.65l-1.15-.45-2.45-10.6q-1.75-7.75-2.15-11.6-.4-4.25 1.1-7.05-4.1 2.5-9.2 6.1l-7.45 5.65q-2.05 1.85-1.8 4.9l-1.3.5q-.25-2.1.15-3.5.45-1.55 1.85-2.75 5.2-4.35 16.05-11.2 4.2-2.6 4.95-2.95 2.45-1.25 6.2-1.9l23.9-.7q18.8.25 28.5 1.65 3.4.5 5.3 1.7 1.95 1.25 2.9 3.5 1.5 3.65 2.5 13.7.95 9.25.55 11.25"/><path fill="#0d131a" d="M123.85 23.75q4.15 8.7 6 13.9l-.6.4q-.65.2-.75 0-2.4-6.7-6.55-15.45-4.05-8.6-6.2-11.55-.5-.7-.8-.7t-.7.75q-1.55 3.1-4.55 11.9-2.95 8.7-4.75 15.4l-.7.1-.6-.4q1.4-5.25 4.2-13.5 3.6-10.7 5.6-14.15.95-1.6 1.5-1.6.5.05 1.7 1.65 2.6 3.5 7.2 13.25m-24.3 20.2q.25-2.4.85-2.8.55-.45.35 1.6-.3 3.35.8 10.7.95 6.3 2.15 10.9.7 2.8-.1 2t-1.5-3.85q-3.05-13.35-2.55-18.55m14.8 34q-6.05.15-7.55 1.55-1 .95-.45 3.8l2.35 13.2 2.1 12.4-.5.3q-.5.05-.55-.2l-2.15-12.2-2.45-13.55q-.75-4.1 2-5.45 1.75-.85 6.95-.95 4.85-.15 18 0l13.85.25q3.3.2 4.5 1.2 1.1.9 1.55 3.55l1.2 12.9 1.15 14.35q0 .2-.6.25l-.65-.15-1.15-14.55-1.1-12.5q-.35-2.3-1.5-3.1-1-.7-3.55-.8L132.1 78z"/><path fill="#0d131a" d="M106.15 84.85q-.2.05-.3-.45-.05-.5.15-.55l16.45-.5q13.9-.15 16.15.05 2.15.25 3.15 2.05.65 1.3.9 3.8l.35 3.6h-1.25l-.35-3.4q-.25-2.45-.85-3.5-.7-1.2-2.25-1.4-2.15-.25-15.9-.15-14 .15-16.25.45m37.4 15.2.8 12.3q0 .25-.5.25-.55.05-.55-.2l-.9-11.9z"/><path fill="#0d131a" d="M107.55 93.55q-.2.05-.3-.5-.05-.5.15-.5 7.4-.8 24.2-.55l18.55 1.1q.45.2.45 1.75t-.4 1.95q-.85.75-7.9 4.3l-15.4.2q-15.8.1-17.8.35-.2.05-.25-.5-.05-.5.15-.55 2.15-.25 17.5-.35l15.25-.1 7.55-4.1.15-.95q0-.75-.3-1l-18.1-1q-17.15-.25-23.5.45"/><path fill="#0d131a" d="m108.35 97.35-.35-.45q-.1-.5.1-.6 2.2-.5 18.2-.5l15.55.1 4.45.5q.55.45-3.35.4l-16.45.05q-16.75.15-18.15.5m58.3 14.8q.6 6.45.05 14.55-.2 2.4-1.25 3.9-1.05 1.35-4 3.35-2.7 1.85-6.5 3.7-3.65 1.8-5.7 2.4l-21.45 1.1q-17.75.3-25.05 0-4.7-.2-6.7-2.25-1.8-1.85-4.2-8.45-4.4-12.1-7.3-22.25l.7-.1.85.25q2.8 9.7 7.15 21.6 2.3 6.35 3.85 8 1.8 1.85 6.1 2.05 7.55.3 24.75 0l20.55-.95q1.85-.5 5.7-2.5 3.35-1.75 6.3-3.6l-22.5.65-21.9.5q-3.4 0-5.45-1.4-1.5-1-2.6-2.95-.9-1.7-3.1-10.15l-2.05-8.5q-.05-.05.55-.35l.65-.1.35 1.55 6.45-4.3 10.2-.35 10.25.2 1.65.2q.35.2.65 1.15.85 2.6 3.9 4.3 3.05 1.75 6.6 1.65 2.9-.05 5-1.35t3.05-3.7q.35-1 .7-1.15l1.4-.1 4.15.05 4.8.15q1.75.1 2.45.7.85.7.95 2.5m-1.3 14.55q.6-7.8.05-14.4-.05-1.3-.5-1.7t-1.9-.5l-8.4-.35-1.05.1-.45.7q-1.15 2.6-3.45 4.15-2.35 1.5-5.45 1.55-3.85.1-7.25-1.95-3.3-2-4.25-4.9l-.3-.5-1.05-.1-11.2-.1-8.5.35-6.95 4.2q2.9 12.65 4.55 15.8.95 1.75 2.25 2.6 1.75 1.15 4.8 1.15l23.1-.4 21.3-.5q1.8-.1 3.05-1.4 1.45-1.4 1.6-3.8"/><path fill="#0d131a" d="M159.5 128.05q2.35.05 2.2.55-.15.45-2 .45l-38.75.75q-5.3 0-6.6-3.6-.7-2.1-2.25-8.1l-1.35-5.6q-.55-2.1.05-1.9.55.15 1.05 2.3l1.35 5.1 2.2 7.55q1 2.9 5.65 2.95zM151.3 112q.25 0 .25.55l-.25.5-15.65.05q-.2 0-.2-.5 0-.55.2-.55zM75.9 65.65q-.7-2.65-.3-3.1.4-.5.95 1.5 2.25 8.25 6.6 21.5 3.85 11.75 4.8 14 .6 1.3 1.3 1.8t3 1.25l7.85 2.25q2.15.6 2.45 1.1t-1.85 0L92 103.6q-2.7-.8-3.6-1.45-.75-.55-1.45-2.15-.95-2.2-4.6-13.3-4.15-12.65-6.45-21.05m26.5 21.2q-.1-.2.5-.25l.6.15 2.05 6.75-.6.05-.55-.05z"/><path fill="#0d131a" d="M98 72.6q1.95 1.65 3.4 6.15.05.2-.65 0l-.75-.4-1.4-3.4-1.25-1.55-11-7.15q-9.9-6.1-11.05-6.05-.95.05-2.7 1.2-1.8 1.15-3.05 2.5-.8.85-.95 1.4l.05 1.45q.95 6.4 6.95 22.85 5.75 15.95 7.05 16.85 2.05 1.4 9.85 3.05 7.5 1.6 9.7 1.35 1.2-.15 3.4-1.9 2-1.65 2.25-2.3-.15-1.75-1.4-6.1l.5-.25q.45-.2.5 0 1.3 4.45 1.45 6.3.1.9-2.4 3.05-2.6 2.15-4.1 2.35-2.35.25-10.55-1.5-8.15-1.75-9.8-2.8-1.75-1.25-7.75-17.85-6-16.55-7.05-23-.2-1.25.05-1.95.2-.7 1.1-1.7 1.35-1.45 3.55-2.85 2.3-1.45 3.45-1.5Q77.95 58.8 98 72.6"/><path fill="#0d131a" d="M84.65 71.55q0-1.2.5-1.45.5-.2 1.85.35 2.4 1 7.95 4.15 4 2.25 5.8 3.4 1.65 1.05 2.7 3.7.95 2.35.8 4.2-.15 1.25-.75 1.45-.6.3-7.85-2.6-7.3-2.95-8.35-4-.85-.9-1.7-3.7-.9-2.95-.95-5.5m1.3 0q-.15.1-.05.95.2 1.75.95 4.3.75 2.65 1.2 3.1 1.1.85 7.3 3.5t7.8 2.95q.45-.65-.25-3.2-.8-3.05-2.7-4.3-8.9-5.4-13-7.1zm4.9 16.7 2 .1q2.75.7 12.45 4.65 1.3.5 2 3.3.65 2.5.3 3.7-.2.75-.6 1.1l-.55.15-5.95-1.15q-5.45-1.2-6.8-1.85-1.25-.55-2.35-3.55-1.05-2.8-1-4.9.05-1.3.5-1.55m1.65 6.1q.9 2.55 1.65 2.9L100.6 99l5.95 1.2q.6-.2 0-3-.6-2.85-1.6-3.25-9-3.6-12.2-4.3l-1.1-.1-.1.8q.05 1.55.95 4m-24.4-25.6q.15-.15.55.2t.25.5q-2.2 2-.25 8.65 2 6.7 5.6 9.45l.55 1.95q-4.8-3-7.25-10.4-2.45-7.45.55-10.35m129-9.25q.85.85.9 2.2.05 4.4-2.3 19.65-2.2 13.95-3.7 20.4-.5 2.15-1.6 3.1-.85.7-3.2 1.45l-10.45 3-6.95 1.5q-1.05.05-4.45-1.5-3.45-1.6-3.85-2.35-.25-.5.2-6.4.05-.2.55-.15.5 0 .5.2v.05l-.3 5.75 3.25 1.9q2.85 1.45 3.95 1.5.9.1 17-4.65 2.1-.65 2.85-1.25.95-.8 1.35-2.65 1.5-6.55 3.55-20 2-13.55 2.2-18.5l-.1-1.8-.85-1.1q-1.6-1.55-3.65-2.5-2.4-1.1-3.8-.45-2.7 1.25-12.55 8.75-9.85 7.55-10.3 8.7l-.4 3-.5.2q-.55-.05-.5-.3l.4-3q.35-1.5 10.7-9.55Q185 57 187.7 55.75q1.7-.75 4.55.45 2.7 1.1 4.85 3.3"/><path fill="#0d131a" d="m162.35 93 .6-7.85q0 .25.6.25.55.05.6-.2l-.75 7.9q-.05.25-.55.2t-.5-.3m34.25-27.15q-.2-.1.15-.5.3-.35.5-.2 2.45 1.85 2.2 7.55-.2 4.25-1.5 7.35-1.25 2.85-3.25 4.2-.2.1-.35-.45-.2-.6-.05-.7 1.75-1.15 2.85-4.3 1.05-2.9 1.15-6.15.1-2.45-.35-4.25-.45-1.85-1.35-2.55m-8.15-4.5q.25-2.15.8-2.45.5-.35.15 2.85l-3.9 33.7q-.35 2.4-.85 3.15-.8 1.05-3.55 2.2-6.1 2.55-14.95 5.2l-2.15.2q-.05-.4 1.4-.9 9.6-3.15 15.3-5.55l2.55-1.5q.85-.95 1.15-3 3.05-26.2 4.05-33.9"/><path fill="#0d131a" d="m180.95 67.7-9.25 5.45q-6.65 4.15-7.8 5.4-.8.9-.8 3.35 0 2.35.75 3 15.5-7.75 16.65-8.5.6-.55 1.2-3.35l.55-4.55q0-.85-.2-1zm2.1-1.6q.5.35.4 1.95-.25 3.2-.85 5.75-.65 3.1-1.5 3.65l-8.2 4.2-8.6 4.2q-.8.35-1.3-.4-1.1-1.45-.95-3.95.15-2.4 1.15-3.55 1.2-1.35 8.25-5.8 7.05-4.55 10.15-5.95zm-4.85 19.05q2.25-1.15 2.9-.9.75.3.5 2.75l-.9 5.35q-.8 3.3-1.6 3.55l-7.2 2.5-8.75 2.85-1.1-.2q-.55-.35-.9-1.1-.85-2-.45-4.2.35-2.25 1.75-3.05zm2.05.4q-.3-.15-1.6.5l-15.7 7.55q-1.45.85-1.3 3.95.1 3.05 1.2 2.7l8.6-2.9 7.1-2.45q.45-.25 1-2.6l.9-5.5q.1-1.1-.2-1.25m-64.75-41.9q2.2-1.3 5.35.25 3.6 1.7 6.45 6.35 2.35 3.85 2.35 8-.05 3.95-2 5.05l-5.2-.2q-3.95-1.6-6.65-5.95-2.4-3.85-2.45-8.05-.1-4.15 2.15-5.45m4.9 1.2q-2.7-1.4-4.5-.25-1.6 1-1.5 4.35.1 3.7 2.45 7.6 2.45 3.85 5.7 5.5 2.85 1.45 4.5.5 1.7-.95 1.5-4.7-.25-3.85-2.3-7.1-2.7-4.3-5.85-5.9m27.75.05q2.7-2.15 4.95-1.3 2.45.95 3.1 4.75.6 3.5-.5 7.5-1.25 4.45-4.05 6.75-2.55 2.15-4.95 1.45-2.45-.7-3.25-4.55-.75-3.5.2-7 1.35-5.1 4.5-7.6m7 3.55q-.5-3.25-2.45-3.9-2.3-.75-4.7 1.85-2.3 2.5-3.35 6.45-.85 2.9-.4 5.95.55 3.65 2.9 4.4 1.75.55 3.9-1.5 2.4-2.25 3.55-6.3 1.1-3.8.55-6.95"/><path fill="#0d131a" d="M149.1 48.15q1.55-1.55 2.9-1.05 1.4.5 1.55 2.95.15 2.2-.65 5-.9 3.1-2.5 4.65-1.45 1.35-2.75.95-1.25-.4-1.55-2.6-.3-2.25.5-5.15.8-3.1 2.5-4.75m2.5-.35q-.85-.2-2 1.15-1.25 1.5-2 4.1-.8 2.7-.65 4.6.1 1.9 1 2.15t2.05-1.2 1.95-3.9q.85-2.65.7-4.7-.15-1.95-1.05-2.2m-33.85-.7q1.25-.65 2.95.3 2.15 1.25 4.25 4.75 1.4 2.35 1.7 4.9.3 2.65-.95 3.3-1.25.6-3.25-.6-2.25-1.4-3.9-4.2-1.35-2.25-1.7-4.85-.45-2.85.9-3.6m2.95 1.4q-1.6-1.2-2.5-.65-.85.5-.5 2.65.35 2.2 1.65 4.35 1.6 2.7 3.45 4 1.6 1.1 2.4.65.8-.4.6-2.25-.25-2.1-1.75-4.7-1.55-2.7-3.35-4.05"/><path fill="#0d131a" d="M126.7 50.7q.2-.1.4.35l.05.6-2.05 1.2-.15-.55q-.25-.45-.45-.35zm-10.15 6.1 2.25-1.5q-.15.15.1.6l.45.3-2.2 1.45-.5-.3q-.3-.45-.1-.55m36.25-1.9L155 56q-.1-.05-.25.45l-.35.4-2.05-1.05q-.2-.05.05-.55.2-.45.4-.35m-8.4-2.55q-.2-.1 0-.55.2-.5.4-.4l2.4 1q-.25 1-.45.9zm-10.5 11q1.45 1.45 3.35 1.5 1.65 0 2.9-1.2 1.35-1.3 1.6-3.35-4.65 2.35-9.4-.2.2 1.85 1.55 3.25m7.95-4.3q.9-.8.9.3-.05 2.85-1.7 4.8-1.6 1.85-3.8 1.85-2.5-.05-4.25-2.2-1.65-2.05-1.55-4.55.05-.95.75-.4 1.95 1.5 5.05 1.55t4.6-1.35"/><path fill="#0d131a" d="M134.65 60.65q0-.2.45-.25l.45.15.05 4.25q0 .2-.45 0l-.45-.35zm4.45 0 .4-.3q.45-.05.5.15l-.05 3.85-.85.4z"/><path fill="#4652a1" d="M249.25 10.7q2.05-1.45 1.95.75l-2.9 36.25-.25.4-24.35 10.65 2 9.5 2.15 10.1v1.25l-.55.75-19.4 17.6q-.35.25-.7 0L200.1 91l-2.35 12.7q-.95 4.15-2.95 5.75-1.15.9-4.65 1.85l-9.25 2.4-8.35 2.05-.45 11.95q-.2 3.15-2.3 6l-2.6 2.75q-1.35 1.05-7.9 4.6-6.85 3.65-8.25 3.95l-7.9.8q-7 4.95-19.2 5.25-12.05.3-18.9-4.15-6.8-.15-10.15-1.6-4.75-2.05-6.7-7.7-3.95-11.35-7.95-25-2.5-1.4-3.9-3.2-1.55-2.05-5-12.2l-26.6 16.15q-.8.5-.8-.45v-.05l2.5-25.1q-3.9-1.4-19.15-8.25l-17.6-8q-.95-.4-1.15-1.55L.1 34.35q-.25-1.1.25-1.4.45-.35 1.4.2 11.8 6.9 29.55 19.55 18.15 12.85 24.95 19.2l1.15 1-.05 1.25Q56.5 79 54 96.4l13.6-7q-5.55-5.85-6.55-12.45-.8-4.9.95-9.05l-.25-2.45q0-2 1.4-3.8 1.45-1.8 5.15-4.45.15-2.8.95-4.15.55-.9 2.9-3.05l10.7-7.7q11.65-8.05 16.6-9.8 3.75-11.75 7.55-20.65Q111.9.2 114.4 0q3-.25 10.6 13.95 6.55 12.3 8.45 18.45l10.1.4 13.45.95q4.9.85 7.85 3.55 2.9 2.75 4.05 7.6.55 2.3 1.1 6.6l.75 9.05q14.45-11.2 16.75-11.4 3.15-.25 8.85 2.75 5.4 2.85 6.95 5.15.8 1.1.55 8.35 2.05 4.4 1.7 9.35-.4 5.35-3.55 9.35l4.35 3.8 5.85-6.55 6.25-7.1Q209.9 54.6 206.9 49.1l-.3-.85.5-.85q6.75-7.5 20.1-19.1 13.15-11.4 22.05-17.6m-2.2 36.4 2.45-34.55q-9.2 6.35-21.85 17.15-13.25 11.35-19.8 18.65L214.4 62l5.35 11.8.2.65-.4.6-6.15 6.85-6.1 6.55-.7.7q-.2.1-.7-.3l-5.25-4.25-.25-.3q-.05-.2.2-.45 2.65-3 3.35-8.7t-1.1-9.45q.25-7.15-.4-8.05-1.35-2.05-6.55-4.65-5.4-2.75-8.3-2.5-.95.1-5.45 3.15-4.55 3.15-11.1 8.25-1.35 1-1.45-.55l-.75-9.15q-.55-4.35-1.1-6.7-1.15-4.6-3.8-7.05-2.65-2.5-7.3-3.3l-12.75-1.1-10.15-.55-1.15-.15q-.3-.2-.55-1-2.1-6.4-8.45-18.35-6.95-13.1-9.1-12.95-1.6.15-5.3 8.8-3.75 8.65-8.25 22.6l-.45.9-1 .6q-5.35 2.1-14.7 8.15-8.3 5.4-11.6 8.4l-.35.3q-2.25 2-2.75 2.95-.7 1.2-.8 3.9l-.25.4q-4.5 3.2-5.55 5.3-.8 1.55-.25 4.7l-.05.3q-1.8 4.1-.35 9.9 1.55 6.3 6.25 11 .5.5-.15.85L53.25 98q-.75.4-.75-.45Q55.6 76 56.15 73.3 50.3 67.6 31.9 54.7q-17-11.9-29.85-19.65L9.9 70.3 27 77.9q15.75 7 19.95 8.5l.8.55v.85l-2.2 23.35Q70.3 96.2 71.6 95.5q.6-.35.7.3 3.65 11 5.15 13.05 1.35 1.65 3.65 2.95l.2.3q3.7 12.3 8.1 24.85 1.75 5 5.65 6.9 3.35 1.6 10.35 1.7 7.05 4.45 18.8 4.15 11.7-.25 18.75-4.95l7.9-.8q1.1-.2 7.65-3.9 6.3-3.55 7.75-4.65 1.7-1.3 2.9-3.25 1.45-2.35 1.6-4.75l.45-12.3q0-.4.4-.5l7.8-1.75 10.45-2.55q3.3-1 4.3-1.9 1.5-1.4 2.4-5.25l2.5-13.65q.1-.5.4-.55.25 0 .5.3l7.6 7.6 19.05-17.8-3.85-19.75-.1-.95q.1-.35.6-.55z"/></svg>