<svg xmlns="http://www.w3.org/2000/svg" width="187" height="193" viewBox="-0.45 -0.15 187.2 192.65"><path fill="#65a9dc" d="M163.05 120.5 185 145.55q1.75 1.95 1.5 2.6-.3.65-2.85-.35-8.5-3.45-44.65-20.05-37.9-17.45-46.15-20.95-1.05-.45-.95-1 .1-.5 1.15-1l14.2-6.6 19.3-9.1q-13.35-6.65-34.7-16.35-.3 3.3-2.45 7.4-1.85 3.5-4 5.85 4.85 3.4 4.55 9.35-.3 5.7-4.8 9.1l1.8 11.35q1.1 8.05 1.3 11.75.1 1.9-.35 2.15-.55.3-2.1-1.35-5.05-5.35-14-17.3-6.35 1.2-10.75-2.95-4.15-3.9-3.45-8.85-4.15.55-10.05-1-6.05-1.55-9.8-4.3-1.5 4.1-10.35 24 4.75 1.75 34.35 10.4 1.85.5.3 2.15L3.4 190.2q-2.25 2.3-3.05 1.95t.1-2.95q3.45-10.4 11.1-28.3 8.1-18.9 15.7-33.85l-21.65.2-2.55-.3q-.45-.4.8-2Q24 98.9 32.85 88.2q-6.95-8.85-4.75-21.8 2.25-13.45 12.95-20.6-1-12.35-1.45-24.75-.55-14.25.15-18.35.5-2.6 1.3-2.7.8-.15 2.55 2.1 7.7 10.05 21.05 37.8 10.7-.8 18.8 5.85Q92 52.7 92.6 64.1q10.65 3.2 29.9 9.45l31.6 10.35q1.15.4 1.3.85.1.45-.75 1.1l-13.5 9.5z"/><path fill="#bbe1e8" d="M90.85 64.2q.05.8.9 1.1 13 3.65 60.95 19.9l-12.85 9.55q-.55.35.15 1.25l18.45 21.3 24.35 28.45q-11.95-5.15-44.8-20.15l-43.45-19.85q8.1-3.95 33.75-15.95.5-.25.35-.7l-.65-.7Q102.6 75.9 91.65 71q-1-.4-1.15.75-.55 3.5-2.3 7.3T84 85.8q-.55.6.4 1.35 4 2.85 3.6 8.1-.4 4.85-3.95 8.05-.5.45-.4 1.4l1.55 9.3q1.25 7.7 1.6 13.2-3-3.2-6.85-7.95l-7.25-9.15q-.35-.45-1.3-.45-6.35.55-9.85-3.35-3-3.4-2.25-7.3l-.1-.8-1-.2q-5.05.3-10.7-1.4-5.6-1.65-9.5-4.5-.95-.65-1.35.4l-4.35 10.55-6.5 14.75q-.4.95.6 1.35l14.2 4.5 19.85 6.15L2.5 188.85Q4.85 180.6 15 157.2q9.65-22.25 14.1-30.3.7-1.25-1.05-1.25l-22.8.2q8.95-11.85 29.1-36.9.45-.65-.2-1.5-6.6-8.9-3.75-22.1 2.75-12.85 11.85-18.5.5-.35.35-1.5L41.55 24.6q-.65-15.95-.2-20.9.1-1.05.35-1.1t.9.85q7.45 10.8 20.65 37.25.25.6 1.2.5 7.95-.8 15.55 4.15 9.7 6.3 10.85 18.85"/><path fill="#f19963" d="M85.25 59.7q2.7 7 .15 14.9-2.6 8.2-9.85 13.9 2.25.05 4.05 1.7 1.75 1.65 2.25 4 1.1 5.85-5.9 8.95-7.2 3.15-10.65-1.4-3.2-4.25-.2-9.1-8.65 2.85-17.1-.05-9.65-3.35-12.4-12.8-2.7-9.5 1.55-19 3.7-8.35 10.25-12.3-1.45-8.55-2.4-21.1-.95-12.9-.05-13.05.95-.15 7.2 12.1 5.7 11.25 9.25 19.6 8.95-.85 15.7 3.6 5.75 3.85 8.15 10.05"/><path fill="#fff" d="m23 118.95 2.7 1.95-.9 1.85-14.6-.25 12.25-15.4q8.6-11.05 11.35-13.95zm3.65 21.3 5.9-13.45q12.55 3.5 18.65 4.8l-23.7 24.75-6.6-4.05q2.4-4.45 5.75-12.05m-2.7 19.8-6.55 8L9.7 177l4.2-9.55 4.8-10.35 2.55 1.5zM93.8 68q7.85 2.35 22.95 7.95l20.5 7.65q-5.05 2.3-7.15 3.45-7.75-4.3-37.05-17.8zm44.35 20.25 2.6 2.85-6.45 4.4 17.4 19.9q-6.6 4.9-9.9 7l-15.35-8.75-18.65-9.95 15.75-8.1q9.3-4.75 14.6-7.35m23.9 38.6 7.45 9.25q-2.35-1.4-10.65-5.5-8.4-4.15-12.4-6.5l4.25-3.15 3.6-2.75zm-125.5-64.2Q41.9 67 44.9 72.4q3.35 6.1.95 9.4-1.15 1.55-4.85 0-3.35-1.35-5.55-3.65-.75-3.95-.55-7.75.2-4.45 1.65-7.75M69.3 50.6q2.95.05 4.7 5 1.4 3.95 1.45 8.75.1 4.3-1.65 8.4-2 4.6-4.8 4.6-2.7 0-4.6-4.85-1.6-4.15-1.6-8.4 0-4.7 1.4-8.55 1.8-5 5.1-4.95"/><path fill="#007bba" d="M35.5 66.25q3.4 2.65 6.25 6.8 3.25 4.7 1.9 6.4-.5.7-3.35-1.35-3.15-2.25-5.5-5.6-.1-2.3.7-6.25M69.15 54q2.85.2 3 10.3.05 3.3-.75 6.35-.95 3.45-2.3 3.35-1.3-.15-2.25-3.6-.7-2.75-.9-6.2-.2-3.35.65-6.55.9-3.7 2.55-3.65"/><path fill="#d18456" d="M85.8 73.15Q83.65 82.5 75.55 88.5q5.7 1.55 6.35 5.95.7 4.8-6.15 8.8-5.2 3.05-9.35-.5-4.25-3.65-1.5-9.95-9.1 2.1-15.9.05-8.3-2.55-11.95-11.1 5.3 4.75 13.2 5.7 7.7.9 15.35-2 7.95-3.05 13.15-9.3Q84.5 69.25 85.5 60q1.9 6.05.3 13.15"/><path fill="#f8ceb0" d="M49.55 58.05q-.85 1.45-2.25 2l-2.6-.15q-1.15-.65-1.35-2.15T44 54.8q.8-1.45 2.25-2l2.6.15q1.15.7 1.35 2.2t-.65 2.9"/><path fill="#0d131a" d="M84.8 57.05q3.45 6.85 2 15.15-1.7 9.95-10.25 16.15 4.25.65 5.75 4.7 1 2.7-.8 5.95-1.9 3.45-5.85 5.05-3.7 1.5-7.35.45-3.5-1.05-4.7-3.65-.7-1.45-.5-3.55.2-2.05 1.05-3.75-9.9 2.1-17.25-.7Q39.55 90.1 36.15 83q-4.1-8.75-1.05-18.9 3.05-10.3 11.65-15.6Q45.4 40.05 44.5 30q-.95-10.55-.65-14.75.1-1.7.65-1.95.6-.3 1.55 1.05 2.65 3.75 8.35 15 5.45 10.75 7.5 16.05 6.4-.8 12.35 1.8 7.1 3.05 10.55 9.85M84.7 74q2.25-8.65-1.55-16.15-3.15-6.2-9.55-9.25-6-2.9-12.3-1.85-.5.1-.65-.3l-6.55-14q-4-8.25-8.35-16.3l-.45-.4-.2.5q.2 10.75 3.15 32.3v.05l-.3.55q-8.2 4.9-11.15 15.05-2.85 9.85 1 18 3.3 7 10 9.5 6.75 2.6 16.7.5l1.15.05q.25.3-.2 1.2-1.8 3.65-.45 6.65 1 2.15 3.85 2.95 2.95.85 6.15-.45 3.4-1.4 5.15-4.25 1.65-2.75.85-5-.7-1.95-2.15-2.9-1.1-.75-2.9-1.05-.95-.1-1.05-.65-.1-.5.75-1.1Q82.5 82.5 84.7 74"/><path fill="#0d131a" d="M64.4 79q.6-.85.95-.65.35.15-.15 1.05-1.95 3.7-6.45 5.15-4.6 1.45-8.15-.85-.8-.5-.55-.8l1.05.05q3.3 1.5 7.2.35 3.85-1.15 6.1-4.3m-.3-24.85q2.15-4 5.05-4t5 4q2.1 4.1 2.1 9.85 0 5.8-2.1 9.9-2.1 4-5 4t-5.05-4q-2.15-4.1-2.15-9.9 0-5.75 2.15-9.85m5.05-2.75q-2.3 0-3.9 3.75-1.65 3.7-1.65 8.85t1.65 8.9q1.6 3.75 3.9 3.75 2.25 0 3.9-3.75 1.6-3.75 1.6-8.9t-1.6-8.85q-1.65-3.75-3.9-3.75"/><path fill="#0d131a" d="M66.35 56.65q1.1-3.3 2.8-3.3 1.65 0 2.7 3.35 1 3.1 1 7.3t-1 7.3q-1.05 3.35-2.7 3.35-1.7 0-2.8-3.35-1.05-3.15-1.05-7.35t1.05-7.3m4.25.4q-.75-2.45-1.45-2.45-.75 0-1.45 2.45-.9 2.85-.9 6.95 0 4.15.9 7 .7 2.4 1.45 2.4.7 0 1.45-2.4.85-2.9.85-7t-.85-6.95"/><path fill="#0d131a" d="M62.95 64.85v-1.3l3.15.15v1.15zm12.6-1-.3 1.15-3.1-.15V63.7zM36 79.25l-.3-2.1q3.35 3.2 6.2 4.25 2.4.85 3.45 0 1.2-.95.5-4.2-.85-3.65-3.7-7.45-3.1-4.15-5.7-6.3l.6-1.1q2.65 1.8 6.25 6.45 3.15 4.15 3.85 8.3.7 3.85-1 5.25-1.35 1.15-3.9.5-2.95-.75-6.25-3.6"/><path fill="#0d131a" d="m34.5 73.45.5-1.65q1.9 2.8 4.8 5.3 2.85 2.4 3.55 1.95.55-.35-.7-2.85-1-2-2.3-3.85-1.9-2.7-5.15-5.65l.45-1.2 2.8 2.5 3.05 3.45q1.55 2.3 2.45 4.6 1.15 3 .1 3.9-1.1.95-4.15-1.25-2.9-2.05-5.4-5.25"/><path fill="#0d131a" d="m41.3 72.1-.85-.85 2.2-1.85.75 1.05zm-5.05 2.5.75 1.05-1.65 1.5-.5-1.05z"/></svg>