<svg xmlns="http://www.w3.org/2000/svg" width="129" height="193" viewBox="-0.65 -0.95 128.7 192.6"><path fill="#ffee7d" d="M59.45 11.75q5.2 0 10.3 6.35 6.4 7.9 5.5 20.1Q74.4 49.35 65.1 59q-4.6 4.8-9.1 7.4l-15.65 6.35q-3.5 2.15-8.6 3.45-10.15 2.55-18.1-1.7-11-6.05-12.8-19.55-1.1-8.35 1.25-17.3-1.15-3.3-.6-8.05 1.1-9.45 9.45-16.4 5.45-4.55 10.5-5.9l3.9-.5 1.2-1.3q1.55-1.5 3.5-2.6 6.2-3.65 13.9-2.3Q51.65 2 56.3 7q2.35 2.5 3.15 4.75"/><path fill="#d2ecfa" d="m43.5 35.3-8.7 12.55q-1.85 2.65-1.75 5.35.2 4.05 5.25 7.1 5.8 3.55 14.6 1.8 7.15-1.45 12.15-5.05-1.85 2.15-5.45 4.35-7.2 4.4-16 4.8-12.5.15-20.9-6.4-2.65-2.05-4.55-4.55l-1.4-2.05q0-1.75.9-4.8 1.8-6 6.2-12.15 4.95-6.85 10.7-9 5.1-1.9 7.9.5 2.1 1.8 1.8 4.85-.15 1.55-.75 2.7"/><path fill="#ffee7d" d="M46.3 40.9q1.7 4.2.75 7.35-.8 2.55-2.7 3.25L38 51.3q-3.9-1.6-5.85-6.05-1.45-3.35-.9-6.95t2.8-4.85q2.25-1.55 6.2.6 4.2 2.25 6.05 6.85"/><path fill="#e85377" d="m45.9 12.85 4.6.15q3.2 1.25 5.6 4.15 2.25 2.75 2.85 6.7.5 3.6-.6 4l-2.65-.05q-2.75-.7-5.8-3.55-2.95-2.8-4-6.85-.9-3.45 0-4.55"/><path fill="#d2ecfa" d="M62.75 23.4q2.15.4 5.1 3.6-1 .45-1.55 2l-.35 1.4q-2.4-1.35-3.05-4.3z"/><path fill="#f3b1b9" d="m52.65 16.1 1.2 1.4q.35.8 0 1.25-.4.45-1.2.3l-1.6-.85q-.8-.65-1.15-1.45-.4-.85 0-1.3.35-.45 1.15-.25t1.6.9"/><path fill="#d2ecfa" d="M104.2 65.9q-2.1 2.8-5.15 3.6 2.6 1.9 2.4 2.95l-2.75.25-6.1-.7q-15.05 3.45-20.9 3.75-10.2.55-17-4.05l3.15 4.05q3.6 4.15 5.95 4.35 1.9.2 11.75.2 10.05.75 15.2 4.4 5.2 3.7 7.1 10.1.95 3.15.85 5.6 3.1-4.05 6.95-6.5 3.35-2.15 4.2-1.55.55.4 0 3.2-.55 2.9-1.95 6.15-3.7 8.75-8.6 9.65-3.9.7-7.1 2.95-1.6 1.1-2.45 2.05-.8 1.95-2.15 3.3l-1.15.9q-5.4 2.7-14.35-.15l-7.85-3.4q-10.7-8.25-15.4-26.5-1.45-5.7-2.1-11.7l-.4-4.9-3.1 7.95q-3.7 8.75-6.7 12.75-4.35 5.75-14.65 16.4-1.3 3.95-3.5 6.75l-1.95 2.05q-.7-.6-.95-4.2l-.1-3.45q-2.35 1.55-6.15 2.6l-3.3.75q.4-5.55 8.4-15.55 7.2-8.9 13.65-13.5 7.55-5.35 12.15-12.3 2-3.1 4-7.85l3.2-.45 4.85-.9q3.45 2.45 7.25 3.25 6.95 1.5 16.45-1.45 8.65-2.65 16.9-3.6 8.1-.95 12.85.1z"/><path fill="#d2ecfa" d="M51 103.75q.25 3.45-2.65 9.2-3.65 7.2-9.15 8.85 5.7 2.15 8.2 4.1 3.3 2.55 5.7 7.7-2.65 2.5-10.4 2.15-9.2-.4-17.4-5.65l1 4.2-3.65-1.95.8 4.8-4.4-3.15q-3.55 3.35-5.1 10.3Q11.5 155.05 18 166q8.25 13.9 24.45 17.15 14.55 2.95 27.15-3.6l6-4.4q6.4-5.2 8.1-9.05 1.65-6.75.85-15.9-1.55-18.2-13.6-30l3 .75 7.9.6q4.65-.2 6.6-3l1.05-2.75 1.25 2.55q1.5 3.4 2.55 7.4 3.35 12.9 1.2 27.5-2.7 18.5-16.15 28.25-6.95 5-18.4 7.95-8.65 2.2-21.3-1.35-17.1-4.8-25.2-18.7-7.75-13.3-3.55-27.5 1.3-4.45 3.6-8.5l2.1-3.1-1.45-3.5 3.6.2-1.1-4.3 4.5 1.8q-1.7-1.7-2.1-4.55l-.1-2.55 3.3-7.3 5.85-5.45.8 2.8q.8 3.15.75 4.7 1.7-2.4 5.2-4.65 7.05-4.55 16.15-3.75"/><path fill="#d2ecfa" d="M38.85 179.5q-1-1.5-2.35-5.2-2.95 4.65-8.35 6.95-5 2.15-7.15.65-.25-6.3 2.45-10.5 1.8-2.8 5.7-5.4-3-.85-5.7-4.6-2.7-3.7-2.15-5.95 2.75-1.7 8.15-1.1 7.05.85 12.8 5.95l-.6-4.5 2.95 1.9.45-3.75 3.65 3.4 1.9-1.2q2.45-1.45 5.3-2.5 9.15-3.3 18.8-1.6 17.65 3.1 23.1 3.45 13.4.8 18.5-4.2 5.1-5.05 6.4-9.2.65-2.1.35-5.65-.15-2-2.3-5.3-2.5-3.75-6.4-6.95-10.45-8.65-24.6-8.45 1-.85 2.55-1.8 3.1-1.9 5.85-2.35 2.65-.45 4.15-1.7l2.3-2.65 6.35 3.85q7.05 5 10.4 10.7 6.7 11.4 5.3 21.3-1.25 8.9-8.5 14.6-6.15 4.8-17.8 4.2-8.5-.5-24.4-4.55-10.95-1.7-18.75.8-2.45.8-4.3 1.9l-1.35.95.55 4.2-3.75-1.8.8 4.9-3.9-2.4q3.9 9.3 2.45 15.15-.7 2.9-2.2 3.95-4.2-1.65-6.65-5.5"/><path fill="#e85377" d="M32 123.75q-1.3 1.15-3.4 1.4-2.05.2-2.55-.55-.45-.7 0-2.3.5-1.75 1.65-2.8 1.5-1.4 3.8-1.85 2.15-.4 2.6.35.4.75-.1 2.55-.6 2-2 3.2m4.5 45.95-3.45-.5q.95-4.45 4.6-5l3.5.35q-1 4.7-4.65 5.15"/><path fill="#f3b1b9" d="M29.5 121q-.3-.75.85-1.45l1.55-.1q.5.65-.75 1.45l-1.05.35q-.45 0-.6-.25m7.1 45.6q-.2-.75 1-1.2 1.2-.5 1.5.2.25.7-1 1.2l-1.05.15z"/><path fill="#dccd6c" d="M52.25 64.9q2.95-.45 9.1-4.45l5.6-3.9Q65.1 59.7 60 63.6l-4.75 3.25q-.95-.25-2.05-1.1zM72.6 45.35q1.25-6.35-.35-11.3t-5.7-8.45l-3.8-2.5 1.1-1.1 3.8.15q6.9 3.1 7.65 18.1l-.95 4.15q-1.4 4.45-3.35 6.25.95-2.15 1.6-5.3"/><path fill="#b6ccd9" d="M34 27.6q-3.35 3.8-6.4 9.7-6.05 11.85-4.6 22.65l-2.9-2.5q-3-2.85-3.65-4.9 1.2-4.7 4-10.2Q26 31.4 34 27.6m32.6-2.1-1.45-.05q-1.5.15-1.95 1.25l-.3-1.35q-.25-1.45.2-2l1.55.85z"/><path fill="#dccd6c" d="M32.25 76.2q-8.75 2.3-16.6-.65-5.1-1.9-8.9-6.4-3.35-4-3.65-7.15l3.35 4.05Q11 70 17.1 69.65 14.65 65.8 15.3 59l1.2-6q6.25 8.65 17.6 11.85 5.65 1.6 10.05 1.45l-3.4 6.45q-5.1 2.55-8.5 3.45"/><path fill="#b6ccd9" d="M50.5 96.5q-2.2-6.3-3.25-13.45l-.6-5.9 1 4.95q1.5 6.1 3.95 11.5 7.85 17.25 22.3 21.55 8.6 2.55 13-.15 2.2-1.35 2.7-3.2l.2 2.1q0 2.45-1 4.25-3.25 5.7-15.25 2.6-16-4.1-23.05-24.25"/><path fill="#b6ccd9" d="M105.05 106.45q-3.15 4.9-5.85 5.2-3 .35-6.25 2.4-2.7 1.65-4.25 3.5 2.05-6 1.5-8.35.35-.8 1.25-1.55 1.85-1.45 4.7-1.1 3.6.5 6.1-.5 2.8-1.1 5.4-4.45-1 2.4-2.6 4.85M40.8 87.6q-5.7 11.6-13.85 18.55l-3.1 2.45q-1.15.9-1.6 1.55-.75 1.2-1.45 3.7-2.8 5.8-4.55 5.5 2.6-6.3 3.75-8.35l1.85-2.8q1.25-1.55 3.3-3.35 3.65-3.25 10.7-12.4 5-6.45 7.25-10.55zm40.45-13.45q-6.85 1.6-9.6 1.85-9.55.8-15.2-3.1l-3.15-2.95q4 2.1 9.4 3.15 7.55 1.45 14.7.05l10.5-2.2 6.45-.35 7.35 1.5v.35l-1.85.45-2.5-.25-4.05-.55z"/><path fill="#b6ccd9" d="m102.2 110.65-1.95 1.65q-2 2-2.55 3.9l-3.2-.2-3.9-.15 2.4-1.95q2.8-2 4.7-2.05 3.1-.15 4.5-1.2M78.05 121.9q6.65.65 8.85-1.6l2.2-2.7.55-1.1-.1 1.95q-.35 2.25-1.3 4.05-3.1 5.65-11.6 4.1-3.35-5.05-4.8-5.85zm-4.25 62.7q-5.5 2.95-10.05 3.95 10.65-2.7 17-15.2 2-3.9 3.35-8.3l.9-3.65q5.4-1.05 8.35-2.55L93 160.2l-3.75 8.75Q84.7 178.7 73.8 184.6M42.55 69.25l1.35-3.2 5.9-.4 2.45-.75 3 1.95q-3.6 3.35-8.5 3.2z"/><path fill="#c94768" d="m49.7 23.7 4.3 1q4.35.35 4.4-2.85l.55 2.9q.35 2.95-.7 3.3-1.35.5-4.5-1-3.25-1.6-4.05-3.35m-23.1 97.85 1.15 1.25 4.9-.2-2.15 1.6q-2.55 1.4-4.35.3-.4-.25-.2-1.5.2-1.3.65-1.45m7 45.25q.2 1.15 1.6 1.6 1.75.55 4.55-.45-1.05.9-2.45 1.5l-4.35-.15q-.35-.3.1-1.45z"/><path fill="#0d131a" d="M65.9 31q.35-4 2.1-4.45l.05.9q-.95.5-1.15 3.55-.2 3.1.5 5.9.85 3.3 2.75 5.1 1.75 1.7 2.5.75l.3.65q-1 1.05-3.15-.4-2.45-1.7-3.45-5.7-.75-2.85-.45-6.3m-20.1 7.6q2 2.95 2.05 6.9.05 4.25-2.45 5.85-2.4 1.55-6.35.7-4.3-.95-6.45-4.3t-2-7.85q.15-4.75 2.85-6.6l5.9-.15q3.75 1.45 6.45 5.45m.9 7.3q.05-3.4-1.9-6.6-2.4-3.9-5.9-5.3-3.1-1.2-4.9 0-1.95 1.3-2.15 5.2-.2 4.1 1.8 7.7 1.7 3.05 5.45 4.15 3.65 1.1 5.75-.5 1.8-1.35 1.85-4.65"/><path fill="#0d131a" d="M46.2 41.7q.25.05.3.5.1.5-.15.5-9.35.45-13.9 2.1l-.4-.35q-.15-.5.05-.6 2.6-1.2 6.6-1.8zm25.95-7.2.45.35q.15.4-.05.5-2.35 1.05-4.7 3.3l-.55-.15q-.35-.3-.2-.5 2-2.45 5.05-3.5M65.6 47q.8-.8 1-.5.2.25-.55 1.1-1.25 1.45-3.7 2.15l-4.25.2q-1.15-.35-1.05-.65l1.25-.15 3.95-.5Q64.4 48 65.6 47M45.5 17.55q-1.15-4.15.1-5.1 1.7-1.35 5.1-.2 3.75 1.2 6.25 4.7 2.05 2.85 2.45 6.9.4 3.55-.6 4.5-.7.65-3.8-.3-3.6-1.15-6.05-3.8-2.3-2.5-3.45-6.7m4.85-4.3-4.15-.1q-.7.55.2 3.8 1 3.8 3.5 6.55 2.4 2.6 5.15 3.65 2 .75 3.2.45.7-.85.2-3.8-.55-3.35-2.4-5.85-2.3-3.4-5.7-4.7M27.15 62.9q-7.7-3.75-10.8-9.6-.1-.2.2-.65.35-.4.45-.2 2.9 5.45 10.35 9.4 7.9 4.1 16.5 4 2.45-.05 2.35.4-.15.4-2.6.4-8.7.1-16.45-3.75"/><path fill="#0d131a" d="M72 35.95q-1.15-5.6-5.05-9.4l-3.7-2.65q-.2-.05-.15-.55t.25-.4l4.3 2.8q4.3 3.9 5.5 9.95 2.05 9.95-4.45 18.55-5.8 7.6-15.15 10.8-2.6.85-2.85.45t2.3-1.25q8.8-2.9 14.45-10.2 6.5-8.4 4.55-18.1m-27.35-5.5q.4 1.45 0 3.2-.4 1.7-1.15 2.35-.2.2-.45-.2-.3-.35-.1-.55.5-.45.75-1.75.25-1.45-.1-2.85-.65-2.8-3.5-3.55-3.75-.95-8.3 2-5.5 3.55-10 11.85-4.15 7.7-5.45 15.35-1.3 7.55.65 12.25 1.3 3.1 3.75 4.1 1.55.6 1.45.9l-1.4-.05q-3.25-.9-4.8-4.65-2.1-4.95-.85-12.75 1.3-7.9 5.55-15.75 4.75-8.75 10.6-12.45 4.85-3.05 9.05-1.95 3.4.8 4.3 4.5"/><path fill="#0d131a" d="m59.45 12.1-.3-.55q-.05-.5.2-.45 5.7.8 10.35 6.4 5.8 6.95 6.3 18.25.4 9.6-6.8 19.2-5.9 7.75-13.7 12.2l-.7-.05q-.45-.2-.25-.35 7.6-4.35 13.45-12.1 7.15-9.55 6.75-18.8Q74.3 25.1 68.9 18.3q-4.35-5.5-9.45-6.2"/><path fill="#0d131a" d="M62.25 22.7q.25-1 1.2-1.5l2.05-.25q3.45.6 6.15 4.15 2.95 4 3.1 9.65l-.05 1.05-.3.55-.25-.85-.1-1.15q-.6-5-3.2-8.55-2.5-3.45-5.45-3.8l-1.15.15q-.65.25-.85.9-.7 2.35.95 5.05.8 1.35 1.8 2.2l.1.75q-.05.55-.25.4-1.3-1.2-2.4-2.85-2.05-3.25-1.35-5.9M47.3 1.1q5.65 1.7 9.55 6.15 3.95 4.5 5.3 10.7.4 1.7.1 1.75-.3.1-.85-1.7Q57.45 5.35 46.75 2.25L34 1.9q-5.8 1.45-8.4 5.15l-.75.15-.45-.3q3.45-4.6 9.75-6.2 6.35-1.65 13.15.4"/><path fill="#0d131a" d="M43.9 10.95q1.25.85 1.1 1.25-.2.35-1.45-.45-6.1-3.7-12.8-4.4-9.2-.9-17.15 4.45-7.1 4.8-10.05 12.6-2.7 7.15-.85 13.45l-.3.7q-.35.5-.45.25-2.6-6.1.15-14.15Q5.05 15.9 12.6 10.8q7.65-5.15 17-4.6 8.15.45 14.3 4.75"/><path fill="#0d131a" d="M1.4 47.25q-.45 7.4 1.9 13.95 3.9 10.95 14.3 14.3 10.8 3.45 23.2-3.4l-1.15 1.7q-11.45 5.75-21.9 2.9Q6.4 73.6 2.05 61.45q-2.4-6.8-2-14.35.45-7.85 3.85-15Q8.85 21.65 19 18.45q8.05-2.5 15.45 0 2 .7 1.85 1.05l-2.15-.3q-6.65-2-13.9.05-10.1 2.95-15.1 13.4-3.3 7-3.75 14.6m27.05 72.2q-1.35 1.1-1.95 2.85-.55 1.6-.05 2.1l1.95.3q1.6-.2 3.1-1.3 1.4-1.05 2.1-2.9.65-1.65.25-2.2t-2.1-.3q-1.9.3-3.3 1.45m-2.8 2.8q.6-2.25 2.2-3.55t3.85-1.55q2.1-.25 2.75.6.6.85-.05 2.9-.65 2.3-2.3 3.5-1.55 1.1-3.55 1.3-1.95.15-2.7-.55-.7-.65-.2-2.65m9.8 42.35q1.45-.9 3.35-.9 1.8 0 2.4.75.55.7-.15 2.25-.85 1.8-2.75 2.8-1.3.7-3.1.7-1.75 0-2.35-.7-.55-.75.15-2.3.8-1.65 2.45-2.6m3.45-.3q-1.55.05-2.9.85-1.45.8-2.3 2.15-.75 1.25-.35 1.8.35.6 1.7.55 1.45-.05 3-.85 1.4-.75 2.2-2.1.75-1.25.4-1.85-.3-.6-1.75-.55"/><path fill="#0d131a" d="m42.35 103.85 5.9-.65q2.55 0 2.9.5 1.3 1.6-1.7 8.25-3.4 7.45-9.05 9.85 5 .9 9.55 6.05 4 4.55 3.45 6-.25.75-2.9 1.45l-6.7.85q-10.25.2-18-5 1.1 3.25.85 3.45-.25.3-3.4-1.3.8 3.9.4 4.15-.3.15-2-1l-2.5-1.9q-5.3 6.35-5.3 16.05v.45q.15 12.25 10.4 21.9 10.9 10.3 26.5 10.35 10.75.1 19.7-5.05 9-5.15 13.55-14.1l.2.7-.05 1.15q-5.05 8.9-13.7 13.75-8.7 4.9-19.7 4.8-16.1-.1-27.3-10.75-10.45-10-10.6-22.7-.1-10.7 5.8-17.4l.4-.35.35.2 1.3 1.05q1.45 1.2 2.2 1.65l-.65-2.75q-.45-1.75-.35-1.85.2-.2 1.6.65l2.15 1.25-1.1-3.25q-.35-1.05-.05-1.05l.85.4q7.5 5.25 17.4 5.55 7.85.2 9.8-1.55-.6-2.7-4.05-6-3.95-3.85-8.5-4.95-1.2-.25-1.3-.55-.2-.4 1.3-1.25 4.85-2.7 7.9-8.4 2.4-4.45 2.65-8.15-4.05-.95-9.85.95-6.65 2.15-10.1 6.7l-1.2 1q-.4-.05-.5-1.35l-.4-3.8q-.3-1.55-1.1-2.6-.15-.2.45-.65.55-.45.7-.25 1.3 2.35 1.5 6.75 3.55-5.4 12.3-7.25m82.2 38.75q0 2.1-.35 2.1-.2 0-.35-1l-.15-1.3q-.6-11.4-11.1-18.9-9.8-7.05-22.55-7-.2 0 .1-.65.35-.65.55-.65 12.95-.05 23 7.6 10.65 8.05 10.85 19.8"/><path fill="#0d131a" d="M18.5 117.65q0-.3.55-.8.55-.55.5-.25-.2 1.2.05 2.7.4 2.7 2 5.1.4.55.2.75l-1.05-.15-3.6-1.6.8 2.25q.6 1.7.45 1.9t-1.55 0l-2.2-.3 1.55 3q.15.3-.1.6-6.85 8.5-7 20.6v.35q0 14.05 11.5 25.2 12.3 11.9 30.35 12.3 9.1.2 17.15-2.95t14.05-9.25q5.9-6.05 9.25-14.4 3.3-8.4 3.55-18.05.15-6.75-1.2-13.6-1.4-7.4-4.35-13.75-.1-.25.4-1t.6-.55q3 6.1 4.6 14.25 1.45 7.55 1.25 14.5-.25 9.9-3.5 18.3-3.3 8.5-9.4 14.7-6.25 6.35-14.5 9.8-8.5 3.5-17.75 3.3-18.55-.4-31.25-12.65Q8 166.5 8 152v-.35q.15-12.35 7.15-21.2l-1-2.05-.65-1.9 1.75-.1 1.85.2-.6-2.15q-.6-2.15-.45-2.3.1-.15 4.1 1.6-1.65-2.45-1.65-6.1"/><path fill="#0d131a" d="M121.9 134.35q-.05-.2.4-.2.45.05.55.25 2.15 5.5-1.35 11.6-3.25 5.65-9.1 8.35-3.15 1.4-7.6 1.7l-10.5-.3.3-1.25q11.9 1.05 17.25-1.4 5.75-2.6 8.8-7.7 3.4-5.6 1.25-11.05m-95.2 48.1-3.35.45q-1.85-.05-2.3-.45-.45-.45-.55-1.95-.1-1.6.35-2.9l.75 1q-.35 2.7-.1 3.3l4.25-.2zm5.4-2.85-.7-.65q3-2.15 4.5-4.75l.6-.7q.25 0 .5.9l1.2 3.2q1.3 2.6 3.85 5.05.2.15-.1.45l-.5.1q-2.5-2.1-3.7-4.3-.9-1.55-1.35-3.65-1.5 2.65-4.3 4.35m-10.35-19.45q-1.4-3.05-.9-4.75.25-.8 2.55-1.25l5.5-.25q8.25.65 12.95 5.8l-.5-2.7q-.3-1.8-.1-1.85.2-.1 1.3.75l1.7 1.35q.2-3.65.55-3.8.4-.15 3.7 3.4 5.2-3.5 12.45-4.9 8.5-1.65 17.75.15l6 1.1.05 1.25-6.25-1.15q-10.15-2-18.35-.25-5.7 1.25-11.45 4.65l-.7-.05-2.65-2.75-.15 2.3-.3 1.5-1.2-.75-1.65-1.35.65 3.6q.15.95-.15.95l-.85-.6q-4.5-4.5-11.95-5.55-6.5-.9-8.05.75 0 2.6 1.8 5.2 2.05 2.9 5.65 4.6.65.3.65.55l-.6.6q-2.5 1.55-3.75 2.75-1.65 1.65-2.25 3.55l-.75-.9q1.85-4.05 5.8-6.1-4.6-1.6-6.5-5.85"/><path fill="#0d131a" d="M125.3 146.5q1.45-5.35.25-11.7-1.65-8.75-7.45-16.05t-13.55-10.4q-.25-.1 0-.8.25-.75.5-.65 8 3.25 13.9 10.95 5.85 7.6 7.6 16.7 1.25 6.7-.25 12.4-1.5 5.8-5.6 9.65-8.65 8.25-28.25 5.1l.45-1.15q18.65 2.9 27.1-5.1 3.85-3.65 5.3-8.95M47.8 163q.25-.25 3.8 1.65l-.8-3.6q-.1-.4.25-.55 5.35-3.75 13.15-4.4 7.75-.65 16.95 1.9l3.65.95-.2 1.15-3.75-.95q-18.6-5-29.1 2l.55 2.45q.4 1.95.2 2.15-.2.15-1.55-.5l-2.05-1q1 4.45.6 4.65-.2.1-1.55-.75l-2.15-1.4q2.25 3.4 2.6 8.4.4 4.85-1.15 8.45l-.4.05-.3-.4q1.7-4.75.45-10.55-.7-3.3-2.2-6.4-.5-1.1-.1-1.15.25-.05.75.35l3.15 2.1-.6-2.7q-.35-1.75-.2-1.9M31.55 84.3Q23.9 90.45 16.5 98.75 6.8 109.6 6.5 115q2.6-.1 8.6-3.35l.65-.2.15.7q.2 6 .6 7.15 2.5-2 4.45-7.75.3-.9 1.55-2.05l4-3.9q7.15-7.3 11.5-14.5 4.9-8.1 8.35-19.45.5-1.55.85-1.45.4.15 0 1.7-4.25 18.55-19.2 33.85l-3.8 3.65q-2.05 1.9-2.3 2.6-1.8 4.75-3.5 6.75-1.25 1.45-2.1 1.25-.45-.1-.85-1.2-.7-1.9-.6-5.8-3.2 1.65-6.15 2.45-2.7.75-3.2.3-1.85-1.85 4.5-11 7.5-10.85 20.65-21Q36 79.6 40.05 72.9q2.55-4.1 3.4-6.85l.6.05.5.3-3.1 6.25q-4.25 7.1-9.9 11.65m71.75-18.2q1.35-1.3 1.8-2.5-2.75-.9-10.9.1-9.15 1.1-21.45 4.2-9 2.3-15.9.15-2.25-.7-4-1.75l-1.4-1.05q-.2-.2.3-.35l.7-.05 1.25.9q1.6 1 3.7 1.6 6.6 1.95 15.25-.4Q85.3 63.5 95.3 62.5l10.5.4q.8.55-.85 2.8-1.8 2.5-4.95 3.75l1.95 2.4q.45.75.25.9-.5.5-3.2.4l-5.35-.7q-2.45.1-8.45 1.5L74.75 76q-13.5 1.8-20.7-4.6l-.35-.8q-.15-.65.05-.5 7.45 6.6 21 4.85l10.5-2q6.05-1.35 8.5-1.45 6 1.15 7.3.5l-2.25-2.25-.3-.55q0-.2.55-.4 2.45-.95 4.25-2.7"/><path fill="#0d131a" d="M45.85 74.95q-.05-.35.7-1.45l2.35 13.9q3.45 15.2 9.35 22.75 6.35 8.15 16.2 10.3 7.85 1.75 12-.55 2.85-1.6 2.75-11.5-.1-9.55-1.8-10.8-1.3.35-3.7 4.5-2.8 5-3.55 10.35-.25 1.9-.6 1.95-.3 0-.15-1.9.5-6.5 3.55-11.7 2.7-4.6 4.6-4.45 1.05.1 1.9 3.45.85 3.25 1.05 7.55.4 11-3.5 13.45-4.65 2.85-13.45.7-10.3-2.5-16.7-10.9-5.95-7.85-9.05-22.15z"/><path fill="#0d131a" d="M91.7 85.05q4.45 3.45 6.2 8.65 1.65 4.7.75 9.85-.3 1.7-.6 1.7-.25 0-.15-1.7.85-11.4-7.05-17.5-6.4-4.95-15.55-5.35-9.15.45-12-.2-2.3-.55-6.65-5.45l-4.5-5.6q-.85-1.1-.5-1.35.3-.2 1.25.85l5.15 6q3.8 4 5.55 4.4l12.85.5q9.15.5 15.25 5.2"/><path fill="#0d131a" d="M104.3 94.5q4.45-3.4 5.65-2.55.9.6.4 3.75t-2.05 6.75q-3.9 9.3-8.6 9.6-6.75.45-11.25 6.7-.15.25.15-1.5 1.65-2.4 2.7-3.2 3.05-2.6 8.2-3.25 3.95-.5 7.65-9.05 3.55-8.2 2.25-9-.7-.4-4.5 2.7-3.75 3.05-6.3 6.1-.2.2-.3-.5-.1-.65.05-.85 1.8-2.6 5.95-5.7m-35.75 25.1 1.25.2 1.7.45q5.3 3 9.3 12.15 4.05 9.15 4.65 19.7 1.15 20.7-10.3 29.95-1.5 1.2-1.75.9t1.15-1.45q5.65-5.3 8-12.45 2.4-7.2 1.6-16.8-1-12.35-5.5-21.1-4-7.75-10.1-11.55M34 48.25q.15-.15.5.15l.15.45q-1.6 1.55-.8 5 1 4.35 6.5 6.75 6.65 2.85 15.3.45 7.1-2 10.55-5.5l-.15.75q-3.7 4.1-11.7 6-8.55 2.05-14.65-.65-5.3-2.35-6.85-6.75-1.4-4.15 1.15-6.65"/></svg>