<svg xmlns="http://www.w3.org/2000/svg" width="710" height="500" viewBox="-0.4 -7.2 710.45 500.2"><path fill="#e8e6f2" d="M697.15 30.65q-11.1 5.3-15.8 13.75l2.3 4.6q2.3 4.85 2.3 6.2 0 2.35-1.1 3.15-1.85 1.4-7.55.35l-4.7 7.8q-4.8 8.05-5.3 9.2-7.85-1.85-11.35-3.75l-1.5 1-1.6 5.65q-2.45 6-6.6 7.7-.65 1.1-2.5 1.95-3.7 1.75-9.8.45-6.1-1.25-11.15-5.95l-3.85-4.5Q601.15 74 597.2 74.3q-8.4.9-20.2 4.15-23.55 6.55-40.6 18.5l1.5 3q1.35 3.6.5 6.85l-.4 8.45-1.25 2.35q-1.6 2.15-3.3 1.3L532 131.35q-2.35 13.65-6.75 19.6l3 2.25q.45 1.6-.95 4.3l-7.5 13.65q-.2.8-1 1.25-1.5.85-4.2-1-4.55 8.4-7.75 11.35l11.9 4.05q12.45 4.3 15.15 5.7l4.3.25q.15-1.45.7-3.15 1.1-3.4 3.2-4.55.15-3.45.65-7.85 1.05-8.7 2.75-13.1l3.5 7.45q3.55 7.85 4 9.85l2.05-.45 7.45-5.2 9.15-6.85-1.65 7.3q-2.75 8.7-8.15 15.65l7.05-1.3q7.45-1.6 9.55-3.05l-2.2 6.3q-3.3 7.3-8.7 12.15L578 203l-.1 2.45q-.7 3.25-3.55 7.55-3.15 4.7-7.45 6.95-3.8 1.95-5.95 1l1.75 5.15 2.1 6.65q.3 1.3-7.2-2.75l-7.55-4.3-3.45.15q-4.1-.6-7.25-4.45-3.75 5.35-12.5 11-17.55 11.3-42.7 12.85-1.1-.05-3.35-1.1-4.5-2.1-10.3-7.1l-7.8-1.1-2.35-8.35q-.1-.4.05-.85.35-.95 1.55-1.25l3.8-1.2-1.45-7.6q-6.15 1.35-6.9.6-.45-.45-.75-1.45l-.15-.65-5.45.15-.65 3.1q-.6 3.9-.45 7.8l6.95 6.75.05.85q-.2.9-1.25 1.1l6.6 10.8q7.05 12.2 9.35 19.3 3.65 11.55 11.3 23.2 10.25 15.65 23.25 23.35 26.6 15.75 28.85 19.55 6 10.25 8.65 15.9 7.1 15.4 4.55 21.85-3.3 8.2-9.4 12.25-7.4 4.85-27 10-2.7 2.75-5.3 5.95-5.1 6.35-4.25 8.6l16.35 12.7q15.9 13.65 13.9 18.45l7.6 3.55q7.75 3.95 8.75 6.25 1 2.25 1.3 6.35l.05 3.65q10.95 12.5 11.6 14.5.45 1.3-15.85-.25l-16.4-1.75-2 .6-5.3.3-19.3-1.2q-17.25-1.4-23.2-4.25l-17.7-.95q-1.5-.3-14.4-9.25-13.15-9.05-14.95-9.6l-8.85 8.4-5-17.25q-1.95-1.95-3.5-4.4-3.1-4.95-1.25-7.65l6.6-8.3q5.75-7.1 10.65-14.45 1.55-2.85 10.95-6.35 4.7-1.75 9.05-2.95l5.65-2.05q6.65-2.85 11.65-6.8-9.55-5.25-20.95-13.2-7.1-4.95-17-9.8l-8.45-3.85-4.8 3.15q-5.6 3.15-9.3 3.45-9.25 8.55-24.45 17.95-30.4 18.85-60.1 23.4l-1.8 6.25q-1.4 7.65.45 14.9.9 2.3 10.75 16.9l10.6 16.05q.9 1.85 0 12.5l-1.1 10.25 3.15 10.2q-4.95 1.45-16.75-.6l-10.75-2.35-.45 1.15q-25.35 2.15-54-3.5-9.5-1.9-17.9-4.35-6.35-1.85-7.65-2.6-1.3-.7-7.25-7.35l-5.7-6.5q-1.4-1-2.85-2.6-2.9-3.1-3.05-5.8t3.3-11.9l3.5-8.6 11.6-15.45q-44.85 12.5-102.6-3.4-18.05-4.95-35.2-12.2l-13.55-6.2q-59.7-29.35-78.05-94.8-5.9-21.15-6.75-43.8-.5-13.95.7-21.65.7-4.7 2.25-6.1l1.4-.5 1.05.85q1.2 1.4 1.9 4.4 2.3 9.95 5.1 18.35 6.55 19.8 16.3 36.6 30.6 52.65 82.25 59.35 51.4 6.7 109.1-28.35 18.05-10.95 34.55-24.8 8.25-6.9 12.9-11.6 1.3-6.95 4.4-14.05 6.15-14.2 14.95-15.05 5.8-16.05 12.35-26 3.25-4.95 5.35-6.7 1.25-4 3.3-8.4 4.1-8.9 8.1-11.15-.55-1.15-.1-2.3.9-2.35 6-2.5l-2.5-13.4-8.2-4.55.1-4.65-9.85 7.85-30.5-18.15-4.65 1.75-39.75-22.7-4.6 1-68-40.4q24.15-4.4 54.4-11.55 60.5-14.25 91.05-27.75l.65-1.95q1.55-2.15 6.1-3.2l39.15-9.1q37.45-9.1 58.4-15.45 68.7-20.85 78.6-17.85l1.1.8L505 15q25.4-7.1 52-10.3 85-10.35 150 21.6l.3.8q-4.6.95-10.15 3.55M456.9 197.2l-1.6 3.15q-1.8 3.6-2.65 5.55l7 5.35-2.85-2.9q-.3-1.65-.2-3.3.2-3.35 2.15-3.45l4.55-.35-1-6.35zm5.15 17.35.65-.05-.45-.5z"/><path fill="#e9eff8" d="M693.5 19.65q9.75 4.1 14.75 7.35-9.8 1.6-19.3 9.35-3 2.4-5.6 5.15l-2 2.25 2.75 5.45q2.65 5.85 2.1 7.9-.55 2-4.75 1.8l-4.05-.65-10.45 17.85q-1 0-6.2-1.9l-5-1.9-1.3.65q-.9 6.8-5.1 10.95l-4 2.8q-.4 1-1.65 1.85-2.45 1.7-6.6 1.1-12.35-1.85-26.35-23.25-4.4-6.7-8.4-14.55l-3.15-6.5q14 11.05 15.6 11.5t10.55-.25q-7.95-8.7-12.9-19.9-1-2.3-4.3-12.2-.7-2.15 7.2-5.55 4-1.7 8.1-2.95-25.8-8.7-89 3.95-19.75 3.95-40.9 9.6l-17.15 4.8 7.35-12.15q90.4-29.4 166.5-15.25Q674 11.4 693.5 19.65"/><path fill="#b4b4b5" d="M409.45 56.75q6.2-.6 11.7 2.75 8.75 5.45 4.95 19.35-1.9 6.9-5.55 12.75-4.7 6.4-11.7 12.05-14 11.25-25.4 7.55-11.45-3.75-11.25-15.3.05-3.65 1.25-7.6l1.2-3.25q0-1.55 3.7-8.4 4.1-7.55 6.95-9.7 2.8-3.6 11.2-6.65 4.2-1.5 7.85-2.3zm35.3 145.35.4-1.2q3.35-.25 7.95-2.2l3.9-1.95-4.35 9.15zm5.15 23.6-11.05-9.25v-1.35l12.2.25zm.9 14.75q1.25 8.55 4.2 13.85l-.95 1.15-4.95-2.4q-5-2.3-5.1-1.7t.9 4.8l1.05 4.05-10.45 9.25-12-7.5q-.45-.05-.8.3-.7.7-.2 2.65.8 3.2 1.95 11.85l-22.65-20.3q.05-2.1-.7-4.65-1.55-5.05-5.6-7.15t-10.4-4.8l-5.55-2.3-1.55-2.2q-1.9-2.4-3.75-3.15l-7.35-5.15-5.25-3.5 18.7-1.6q21.3-.8 34.45 3l.85 1.3q1.25 1.35 3.1 1.85l6 7.55q7.1 8 12.9 10.35l-3.15-16.9 15.6 3.9zm-35.85-59.2q-9.4-5.75-13-7.6 10.05-1.45 27.7-8.75l2.4 5.45q2.95 5.9 5.5 8.05-6.75 4.45-11.7 9.4-1.5-.8-10.9-6.55M521.4 107.7l-.4 9.75q-1.55 11.8-7.1 22t-15.05 18.65l-8.4 6.35-2.35 25.2 5-1.5q6.25-1.1 12.55.75 7.35 2.15 19.2 3.5 11.6 1.35 13.35.35l.35-1.65q.65-1.95 2.05-3.65 4.6-5.5 15.3-6.25l-.3 3.55q.65 4.15 5.6 7.1l-1.25 1.45q-1.4 1.85-2.05 3.7-2.15 5.95 3.9 10l-.4 1q-1.35.35-2.45 1.75-2.1 2.8-.5 8.1l-3.1.8q-3.25 1.1-4 2.55l-1.35 2.95-.45 1.2-4.9-.15q-5.05-1.2-5.9-6.35-6.65 3.75-14.65 7.5-16 7.55-22.8 7.65l-20.35-.65q-12.45-1.45-14.1-5.85-1.6-4.2-3.25-19.05l-1.3-14.05q3.35-1.4 3.95-2.35.6-1-4.75-2.4l2.9-1.15q3.5-1.7 6.8-4.35 10.55-8.55 14.75-23.85 2.15-2.2 4.3-6.75 4.3-9.05 4.15-20.6z"/><path fill="#f19975" d="M419.05 69.5q1.2 7-5 16.95-6.55 10.4-15.75 14.35-9.55 4.2-15.65 1.25t-7.45-12.5q-1.1-7.95 5.2-16.75 3.15-4.4 6.55-7.25l5.7-3.6q6.45-3.55 10.4-3.35 14.15.7 16 10.9"/><path fill="#ad4885" d="M1.65 244.65q.4-6.8 2.15-9.95l1.7-1.85.4 5q.65 6.45 1.95 13.5 4.05 22.6 12.7 43.05 27.65 65.4 90.8 84.6l.65 1.05q-.7 1.95-3.8 2.45l-2.9.05q-28.2-4.6-60.9-30.75-10.2-8.15-19.7-17.55l-7.4-7.7q-8.75-14.6-13.1-45.25-3.35-23.5-2.55-36.65M197.7 426.2q-44.5 1.9-72.5-11.5l-.3-1.6 11.3 1.85q14.3 2 29.3 2.65 48 2.05 85.25-10.15l-14.2 14.2q-16.65 3.65-38.85 4.55m241.75-139.75q1.3 19.85-5.15 38.15-9 25.6-32.15 44.45-28.95 23.5-78.5 35.05l2.2-8.95q77.75-21.35 95.25-76 5.55-17.35 4.3-36.3-.55-8-2.7-17.05-.6-2.35-.35-3.6l.35-.8 14.15 8.85 1.05 4.35q1.15 5.65 1.55 11.85"/><path fill="#ad4885" d="M444.55 251.1q2.9.6 11.7 5.15l3 11.85q2.75 14.65 1.45 28.55-4.3 44.35-47.9 64.2l9.6-13.35q29.15-19.05 28-59.5-.35-12.6-3.7-25.85l-3.25-10.75v-.25zm-47-4.6q1.3 1.35 3.45 8.65 2.75 9.05 4 19.35 3.7 30.5-7.05 55.3-4.5 8.4-12.7 17.65-16.35 18.5-34.7 22.95 2.15-1.75 4.55-5.2 4.8-6.9 5.95-15.3 32.35-27.5 28.65-72.65-1.15-14.15-5.75-28.35l-4.4-11.35 8.1 3.5q8.35 3.8 9.9 5.45m-146.7 236.9q-8.2-2.15-10.8-3.95-3.8-2.65-12-11.45-8.9-9.5-8.8-11.8.1-2.9 3.45-11.9 3.45-9.35 5.05-9.65l.6 2.4q.95 2.95 2.55 5.8 5.05 9.15 14.65 13.7l3.45 9.8q4.45 11.05 9.7 17.6l-.15 1.2zm32.55-223.05q3.15-2.1 5.8-3.5l-5.6 14.05q-5.8 14.65-6.6 17.45-1.75 6.1-2.6 15.55-1.3 14.05 1 25.9 3.55 18.35 4.8 22.2-15.5-14.5-13.5-47.9.75-11.8 3.5-23.2 2.35-9.65 4.25-12.45 2.6-3.8 8.95-8.1m148.65 156.7q1.05 4.2 4.55 7.6 5.4 5.35 18.9 12.3l7.55 11.65q8.95 12.35 16.2 16.15l-8-.3q-8.6-.6-11.55-2.05-2.85-1.4-8.6-5.7l-7.4-5.45-23.45-15.5q-3.9-2.7-5.75-6.8-1.7-3.85-.35-5.05l5.35-6.85q4.95-6.55 7.7-9.3l4.9-6.4q2.45-3.4 6.55-5.2l-3.65 8.9q-3.55 9.4-2.95 12m-2.65-232.3q6.55.35 10.6 2.9 2.05 1.3 2.8 2.5-3.1 6.2-6.5 18.85-3.45 12.7-3.2 17.15.25 3.75-.95 4.5h-1.25q-6.2-.95-10.3-2.45l-2.5-.6q-1-.3-1.45-1.25-.85-2-.7-13.8.15-10.85 6.8-20.4 3.35-4.8 6.65-7.4M538.45 106q.35 8.75-1 11.2-.8 1.5-2.9 1.65l-2.05-.25q-1.2-.05-2.2-.55-2.05-.9-1.75-3.3.25-2.4-.25-7.35l-.6-4.5q7.5-6.8 7.55-7.2 2.85.85 3.2 10.3m-16.75 44.35q2.8 1 5.65 2.85l.85.9q.7 1.2-.1 2.95l-4.75 7.7q-3.7 5.5-4.8 6.5-2.05 1.9-5.1.1l-2.05-1.7-.7-.85-.3-.6q-.15-.9.6-2.35l8.05-15.2q.95-.9 2.65-.3m-34.05-1.95-.1-6.65 6.85-8.8q.95 9.6-3.65 19.45-2.3 4.9-4.8 7.9 1.45-4.35 1.7-11.9M465 122.9q3.9 16 10.5 22.85 3.3 3.4 5.85 3.6l-2.4 4.8q-2.8 5.2-4.95 7.3l-5.15 4.9q-2.85 1.7-4.1-2.65-1.25-4.2-6.1-14.8l-4.6-9.7q4.75-4.4 8.35-10.8zm116.1-89.75q-11.05 1.65-29.7 9.1-37.25 14.9-75.05 43.85l-1.75-1.3.35-6.2q.05-7.1-1.25-11.75l17.25-11.75q19.2-12.35 29.1-15.5-3.5-.45-11.8.3-16.55 1.45-40.5 7.5l-6.7-5.85 11.8-3.15q14.8-3.65 29.7-6.05 47.65-7.75 78.45-.4zm81.05 20.75q1.55 3.4 3.35 13.15l1.45 9.05q-4.75-1.05-17-7.45l-11.3-6.2q3.1-3.3 4.4-6.1l.7-2.15-4.75.5v-1.8q3.3.7 6.65-1.95 1.7-1.3 2.7-2.8z"/><path fill="#fff" d="m648.55 68.5 7.2 3.8q-2.15 1.75-4.65 2.45l-2.1.35q-.5-.95-.5-3.85z"/><path fill="#ed8599" d="M648.55 68.5q-.5 3.45.45 6.6-.35 5.95-3.65 7.85-2.6 1.55-6.7.35-2.85-.8-6.05-6.25l-2.65-5.25 9.2-9.35z"/><path fill="#ad4885" d="M387.3 46.3q11.15-4.2 14.1-2.1 1.45 1.05.7 5.8-.7 4.75-2.3 5.3-1.3.45-5.9 2.55l-4.3 2.05q-1.3 1.25-3.2 1.75-3.8 1.05-6.7-2.45-3.05-4.3 1.95-9.05 2.55-2.35 5.65-3.85M364.35 80q5-1.3 4.8 1.9-.35 5.1-1.6 10.95-2.1 3-3.5 3.7-10.4 5.2-16.55 15.9-1.95 3.35-3.2 6.85l-.9 2.8q-.85-.25-1.65-1.75-1.6-3-1.5-9.2.2-10.9 9.65-21.15 4.7-5.15 9.35-8.1zm6.4 30.45q1.05-.15 6.5 1.75l2.75 2.05q2.6 2.45 1.85 4.3-2.65 4.65-9.45 19.8l-6.25 14.25-13.05-7.95-3.45-.2-2 .55q2.65-12.35 13.15-24.7 5.25-6.15 9.95-9.85m30.7 33.3q-3.4-14.75-3.25-22.55.15-5.6 3.45-8.2 1.65-1.3 3.25-1.5l3.85-.95q4.05-.4 5.15 2.4 5.1 4.65 11.95 21.2 5.55 13.5 7.25 21.05 1 4.35-4.35 7.65-2.65 1.65-6.05 2.6-2.7 1.05-5.7 1.5-6.05.9-7.7-2.05-4.1-4.95-7.85-21.15m31.3-48.8q-3.1-.4-4-.95-.5-.3-1.1-1.7-.45-1.05.65-4.1l2.7-6.65q1.3-3.1 3.85-3.8l2.3-.05q7-1.1 18.1.7 11 1.8 18.05 5.1 5.85 2.75 6.85 6.5.5 1.9-.15 3.2l-.35 6.05q-.75 6.9-2.65 10.85-1.85 3.95-4.8 4.05l-2.6-.7.5-1.95q-6.15-7.85-20.55-12.7-8.65-2.9-16.8-3.85m6-39.7-7.05 2.85q-2.65.9-3.7.8l-.55-.25-6.65-5.3q-1.1-.65-1.65-1.55l-.3-.75q8.05-10 21.05-12.15 12.95-2.1 23.55 4.75 8.8 5.75 10.4 15.05.8 4.65-.15 8.15-5.75-16.15-22.85-14.5-5.5.5-12.1 2.9"/><path fill="#e9eff8" d="M466.55 22.25q11.55-1.8 17.3-1.65-2.25 2.75-6.3 10.55l-3.65 7.2q-1.75.15-7.1 2.05l-5 1.9q-12.25-6.7-24.35-3.45-3.8 1.05-7.15 2.9l-2.55 1.7q-6.55-1.3-16.75 2l-8.9 3.6q.95-4.55-2.25-5.3-3.5-.85-12.55 2.55-7.8 2.95-8.5 8.2-.3 2.65.9 4.7-3.65 2.55-9.65 8.2l-5.25 5.2-62.45-4.65q-.85-.85-.15-2.4l.85-1.35 38.1-8.25q43.95-10.25 73.1-20.15 29.15-9.95 52.3-13.55m-35.6 162.1q3.4-4.3 11.95-9.7 4.25-2.75 7.85-4.6-2.45 8.3-5.5 15.35l-2.5 5.4q-1.9-2.9-7.05-4.95z"/><path fill="#e9eff8" d="M466.25 192.05q-3.6 2.7-12.9 6.65l-8.6 3.4-6.1-2.6 4.15-9.35 10.4-.4q10.85 0 13.05 2.3m-3.95 22.2q-1.7 1.1-27.8-.15l4.25-14.1 9.65 4.2q10.35 5.15 13.9 10.05m-26.95.2 8.15 6.35q9.1 7.45 13.75 12.8-3.7.2-14.5-2.5l-10.1-2.75zm-15.5 14.35q7.2 1.95 11.5 1.7l2.85-.65 1.15 4.05q1.4 5.5 2.5 12.7-5.6-3.05-12.35-10.75zm125.2-65.35 8.35 17.85q-4 .05-7.7 2.15l-2.9 2.05q-.75-5.05.7-14.05zm16.05 28.05q-4.65-2.25-5.4-6.8l.2-4.15L572.05 169l-3.3 9.3q-4 10-7.65 13.2m-3.3 6.25q.55-1.9 1.8-3.85l1.15-1.55q2.4.15 18.05-4.7-1.1 4.2-3.75 8.8-5.2 9.15-12.75 11.2-6.2-3.75-4.5-9.9"/><path fill="#e9eff8" d="M578.1 203.35q-1.85 7.15-6.7 12.75-4.35 4.95-7.3 5.05-4.15.2-6.6-6.6-.75-2.1.8-4.5l1.7-2q3.05.1 18.1-4.7"/><path fill="#e9eff8" d="m558.35 219 2.15 1.45 4.2 12.9-15.15-7.6.3-1.85q.6-2.15 1.95-3.55 1.4-1.45 4.1-1.55zm-275.2 246.65q5.85-4 8.05-3.45.4-4.25 5.45-9.9l5-4.8 9.6-.45q9.9-.25 11.65.8-.1.4 2.2 3.55l2.35 3.05 7.6 2.95q7.9 3.35 9.35 5.35 1.4 2 .15 10.7l-1.5 8.3 1.2 4 1.45 5.4q.25 1.2-13.1-.65l-13.45-2.15q.25.6-.7 1.1-1.8 1-7.6.6l-27.05-1.75q-18.4-1.7-20.2-2.55.4-2.05 1.75-4.7 2.6-5.25 7.1-7.95zm150.75-21.3-9.9 9.3-5.7-18.65zm107.55-3.2q5.55 3.1 7.3 5.05 1.5 1.65 1.85 5.85v3.9l11.75 16.1q.5.95-32.95-2.65l-14.55.6q-17.95-.45-35-5.65 2.65-3.9 6.2-7.95 7.05-8.1 11.4-8.8 4.9-.85 8.35-.75 2.95.05 4.1.75l-.1-2.6q.25-1.75 1.15-3.65 1.75-3.8 4.8-4.5 4.2-1 8.3-1.1 4.85-.1 8.25 1.1 3.9 1.4 9.15 4.3"/><path fill="#b4b4b5" d="m328.65 214.55-5.4 1.4q-5.9 1.7-8.25 3.2l-5.35 3.3q-2.65 1.75-3.65 2.9.25-3.3 4.05-10.45 4.3-8.05 7.75-8.95-.1 2.2.15 3.85.35 1.75 1.05 2l4.95.55 5.05.3z"/><path fill="#ce7486" d="M649 68.2q-.4 2.55-.05 4.75l.4 1.65q0 1-1.65 5.25-3.2-4.95-8.8-8.45l-5-2.55 5.25-6.4z"/><path fill="#c9cfd7" d="M279.8 477.35q11.3 5.6 36.7 8.7l2.25 2.85-23.2-.55q-24.55-.95-31.3-3.1-.15-1.75.95-4.25 2.15-5 8.4-8.65l1 1.45q1.7 1.8 5.2 3.55m18.1-25.55-.45 2.1q.15 2.75 3.35 6.05l11.55 12.2q8.3 8.6 11.5 10.25t12.2 4.05l8.4 2.05 1.25 2.65-10.9-.65q-11.8-1-16.25-2.8-19.2-19.2-27.35-25.5-.2-2.05 1-3.7z"/><path fill="#923a72" d="M249.5 466.7q3.05 7.8 6.65 13.7 1.8 3 3 4.4-13.85-2.7-17.35-4.35-2.65-1.2-11.7-10.4-9.05-9.15-10.25-11.8-1.05-2.2 1.7-9.6l2.9-6.95.6 2.05q1 2.6 3.1 5.45 6.6 9.2 21.35 17.5"/><path fill="#c9c7d2" d="M250.4 461q7.5 9.2 14.85 10.75l4.4.5 1.95-.2-3.2 3.6q-3.35 4.75-4.4 10.5l-4.85-1.35q-3.1-4.6-6.55-11-6.8-12.8-8.2-21.75zm30.75-30.5q1 3.25 2.55 6.3 4.95 9.6 13.5 13.15l-6.45 11.25q-4.2-4.75-7.6-11.3-6.8-13.1-2.7-22.05z"/><path fill="#c9cfd7" d="M497.55 460.15q12.2 7.15 30.8 8v1.4q-8.25.4-18.5 0-20.55-.85-30.6-4.8l9.85-11.6 1.95 2.15q2.7 2.6 6.5 4.85m14.65-19 8.35 9.8q10.1 10.5 18.95 14.15 8.9 3.65 16.6 5.55l5.95 1.15q-27-1.7-32.85-3.35-1.4-2.8-6.95-9.65-7.5-9.35-12.8-11.8l.75-2.5q.95-2.65 2-3.35"/><path fill="#923a72" d="m423.7 413.6-.75 1.1q-.7 1.45-.7 3.1 0 5.2 7.35 10.5 8.75 6.25 19.3 12.65 10.4 6.25 14.1 7.6l3 4.25q3.4 4.5 5.25 5.6 1.5.9 4.45 3.55 2.65 2.45 3.55 2.8 1.75.7-5.95.05-7.7-.6-10.9-1.9-6.1-2.55-18.65-11.2-5.1-3.55-14.7-9.8l-10.25-6.7q-2.45-1.65-3.9-4.4-1.85-3.55-.05-6.4 2.75-4.35 8.85-10.8"/><path fill="#c9cfd7" d="m423.5 438.35 9.25 6.45-8.85 8.4z"/><path fill="#c9c7d2" d="m455.7 434.85-1.75-8.5 1.6 4.4q2.35 5.2 6.25 9.15 3.9 3.35 6.05 4.65 7.2 4.2 21.25 8.6l-3.85 4q-4.15 4.6-5.45 7.45l-2.05.05-5.3-4.9q-9.05-9.8-11-13.55-3.35-2.35-5.75-11.35m33.5-18.55 10.6 9.15q12 9.3 18.95 10-1.9.55-4 2-4.15 3-4.95 7.7l-20.9-27.1zm-38.65-23.4 18.15-9.9 19.85 6.35q-4.75-.6-21.85 1.4z"/><path fill="#c9c7d2" d="M422.3 356.15q8.75-5.8 19.65-15.2l9.9 6 25.8 16.05q17.3 10.9 30.7 15.55 15.45 5.35 27.8 3.2-5.55 4-14.65 6.85-18.15 5.8-35.75.25-17.55-5.55-32.3-14.2l-11.25-7.6zm-386.4-.5q4.6 4.9 10.6 9.75 19.05 15.45 44.45 24.2 35.55 12.3 78.55 9.5 53.7-3.55 116.15-30.55l1.15 4q1.1 4.2.75 5.35-.55 2-13.2 13.1-13.75 12.05-20.55 14.5l-6.05 3.75q-19.3 4.7-45 7.25-51.35 5.15-83.25-5.35l-6.1.45q-40.35-15.8-64.7-39.45-7.6-7.35-12.7-14.65l-3.55-5.8z"/><path fill="#923a72" d="M237.75 420.7q-31.8 10.2-74.35 3.75-13.3-2.05-26.1-5.5l-10.1-3.05.3-3.35 10.7 1.9q13.55 2.1 27.85 2.9 45.95 2.6 82.65-8.5z"/><path fill="#c9c7d2" d="M358.45 367.25q11.25-5.2 24.1-16.4l7.6-.05q9.15-.8 16.8-4.75-7.6 10.75-21.55 22.15-27.85 22.8-59.5 25.95l6.75-12.25 6.5-3.75q7.2-4.45 10.65-7.9l2.25-.5q2.9-.85 6.4-2.5"/><path fill="#923a72" d="M370.45 343.95q.65 1.55 1.85 2.75 3.85 3.8 11.9 2.35-4.55 4.4-10.9 9.2-12.7 9.5-21.65 11.25 2.05-2.2 4.3-5.75 4.5-7 5.35-13.4l8.75-7.75z"/><path fill="#c9c7d2" d="M384.2 195.8q14.65 3.65 21.4 6.2-7.8-1.85-47.35-8.55l-38.05-6.3-4.95-3.85q39.65 5.3 68.95 12.5m-46.2-40-1.1-6.4 73.3 41.8z"/><path fill="#c9cfd7" d="m428.3 231.1 3.6 5.45q3.85 5.7 5.2 6.85l.2 2.4q-1.3-.15-4.05-2.25-5.5-4.3-12.65-14.25z"/><path fill="#c9c7d2" d="M415.55 224.45q-10.05-2.05-23.65-2.8-27.25-1.5-45.05 4.9l-15.4-11.9.4-2.3 37.75.85q39.1 1.35 45.95 3.95z"/><path fill="#c9cfd7" d="m434.1 222.55 23.15 11.05-23.75-4.8.1-2.5q.15-2.7.5-3.75m17.4-7.65-16.55-.65 1.45-4.6 10.85 1.85 14.75 2.35zm7.85-18.8q-8.2 4.4-14.6 6l-5.65-2 1.45-3.35q23.05-3.4 25.7-4.7z"/><path fill="#c9c7d2" d="m461.2 229.35 5.55-1.2 3.2 2.15q4.7 2.35 12.05 3.15 8.7 1 16.55.45 7.65-.5 12.35-2.35l14.65-5.7q10.5-4.3 13.3-6.65l1.6 2.8q-7.5 6.15-18.3 12.1-21.55 11.95-38 11.15-3.15.2-9.2-4.25l-5.4-4.5-7.25-.6zm-4-24.7 5.8-.6 1.6 12.6-6.65.75-.8-.85q-.75-.95-.45-1.45l6-.6q-4.65-5.35-6.35-6.1z"/><path fill="#c9cfd7" d="m552.3 220.65 12.1 11.5-.25.85-15-7.5q.15-.85.6-1.9.95-2.1 2.55-2.95m21.35-7.55q-4.7 7.7-9.15 7.55t-5.9-3.05l-.5-2.9 2.65 1q3.15.7 5.7-.5t7.05-5.65l3.95-4.15q-1.45 3.9-3.8 7.7m.95-16.2q-3.4 5.75-7.55 8.85t-6.55 1.2l-1.55-2.5-1.35-4.5 1.5.4q1.95.4 4.15.05 7-1.1 13.95-8.65-.85 2.25-2.6 5.15m-8.15-13.05q-3.4 7.95-4.6 8t-2.85-1.7l-1.4-1.8q4.25-2.5 8.55-7.7l3.45-4.75z"/><path fill="#888" d="m539.35 215.2 4.45 2.25q5.35 2.05 9.95 1.15-.9.55-1.9 1.65-1.95 2.25-2.3 5.1-4.1 1.95-8.6-2.65t-1.6-7.5"/><path fill="#c9c7d2" d="m520.8 107 6.7-4.35q2.3 10.8-1.45 27.05-7.55 32.55-37.95 59.95l2.35-25.2 5.25-4.55q6.25-5.85 11.3-12.4 16.05-20.85 13.8-40.5"/><path fill="#888" d="m494.3 142.3 1.05-9.2q8.7-9.35 25.45-26.1 4.4 19.2-12 40.1-5.15 6.5-11.75 12.4l-5.55 4.6-3.55 26.5q-6.7-4.65-15.8-3.6-2.85.3-5.6 1.15l-2.2.8q10.3-5.45 17-17.15 3.35-5.85 4.65-10.6 6.05-8.05 8.3-18.9"/><path fill="#c9c7d2" d="M583.7 76.55q-13.4 3.05-27.25 9.4-41.35 18.9-72.6 60.15l-.85 1.15q-1.1 1.15-2.35 1.25-2.6.65-5.2-3.05l-2.05-3.85 8.7-11.2q11.25-13.45 24.05-24.85 41.05-36.45 82.5-38.65l8 .4q9.8 1.2 18.65 5.3l4.35 6.2-8.2-2q-9.1-2.05-13.75-2.2-4.75-.15-14 1.95"/><path fill="#923a72" d="M356.8 384.75q33.55-14.55 50.5-38.1l.75.95q1 1.1 2.4 1.65 4.45 1.85 11.05-2.1-8.25 11.9-24.7 24.95-32.9 26.05-74 31.65l3.8-9.15 8.8-2.2q10.9-3.1 21.4-7.65"/><path fill="#923a72" d="m440.9 342.4-11.15 8.75q-12.45 9.05-18.95 10.65l9.3-13.25 2.4-.65q3-1.15 6.25-3.6l3.85.6q4.55.05 8.3-2.5m-24.7-125.85 1.2 1.15q2.15 1.3 6.7 2.35 7.3 1.7 8.95 1.5l-.35 3.7q-.25 3.8.35 4.2-.2.55-1 .9-1.6.75-4.6-.05t-6.9-2.25l-3.3-1.3q-1.45-1.7-1.7-4.8-.1-1.95.25-3.9zm56.65-74.65q.75 3 4.7 5.55 2 1.25 3.8 1.9l-5.3 8q-4.95 7.4-6.8 8.75t-2.7.7l-.5-.9q2.65-4.25 5-14.55zm22.2-8.15q0 10.05-3.7 18.8-3.2 7.55-4.95 7.05 1.8-5.75 1.7-12.6l-.5-5.75z"/><path fill="#ad4885" d="m389.85 165.2 9.1-.3q9.15-.45 9.35-1.1 2.1 3.35 5.5 3.5 3 .15 10.5-2.25 6.1-1.95 7.85-5.3.85-1.65.55-4.2-.1-1.05.3-1.6l.4-.4q4.3-1.1 10.45-5.25 3.1-2.05 5.35-3.9-7.45 14.85-26 23.5-6.45 3-12.85 4.6-5.3 1.3-6.85.95-2.05-.45-8.05-4.4z"/><path fill="#923a72" d="m388.2 165.2 9.35-.1q9.6-.3 10.75-1.3 2.65 4.1 6.65 3.6l11.25-3.3q6.4-1.9 7-6.45.15-1.45-.25-2.95l-.45-1.25q4.05-1.1 10.15-4.35l5.25-3q-7.75 15.05-27.45 23-6.15 2.5-12.75 4l-5.4 1z"/><path fill="#923a72" d="M404.2 147.05q3.95 7.25 7.9 7 5.15-.35 10.55-2.45 6-2.25 8.15-5.15l1.8 6.35q1.2 6.8-2.1 9.1-3.7 2.65-10.3 4.2-6.3 1.5-8.55.6-4.7-2.05-8.15-14.75L401 139.7zm-53.1-10.75.5 1.25q.75 1.55 2.2 2.9 4.65 4.45 14.45 5.65l-1.95 6.05-12.4-6.95-1.7-.6-4.15.2q-.15-1.15.15-2.8.6-3.25 2.9-5.7m79.2-41.65q-2.55-.4-2.4-2.4l.65-1.95 4.8.2q5.95.45 11.95 1.7 19.25 4 31.45 14.6l.5 1.05q.2 1.4-1.15 3.3-1.5 2.7-4.05 2.7l-2.25-.55.2-1.75q-5.75-8.5-21.7-13.25-5.9-1.75-18-3.65m-63.95-.55q-1 1.2-2.9 2.3-3.85 2.2-9.65 8.45-7.75 8.45-10.3 16.5-.7.05-1.45-.85-1.5-1.85-1.8-6.75l7.65-8.45q9.55-9.05 19.05-12.15zm14.9-33.95 6.75-4q7.95-4.05 13.9-4.05-.1.8-.75 1.8-1.35 1.95-4.05 2.75-2.9.85-5.95 2.3-2.45 1.15-3.4 1.85-1.3 1-2.65 1.2-2.3.35-3.85-1.85m44.7-4.15 3.3-1.8q4.2-2.1 8.4-3.65 13.5-5 22.6-2.55 6.1 1.05 10.6 5.95 2.25 2.45 3.3 4.65 0 6.55-.85 7.6-.65-3.3-3-6.7-4.7-6.75-13.1-7.2-8.4-.4-19.35 3.05l-9.3 3.5z"/><path fill="#888" d="M420.75 90.2q-9.3 16.15-26.25 20.5-13.3 1.65-18.4-4.75-1.6-2.05-2.2-4.6l-.25-2.15 1.1 1.5 3.3 3.15q5.9 4.45 13.65 3.4 9.65-1.35 18.35-9.1 9.35-8.35 16.55-23.25-1.25 7.2-5.85 15.3"/><path fill="#c9c7d2" d="m362.35 77.45-2.05 4.15q-1.55.7-5.15 3.25l-3.3 2.45q-12.95 14.95-12.1 26.3.4 5.65 3.4 8.3l1.05-1.1q-1.35 5.65.85 13.45 1.1 3.9 2.45 6.7l.8 3.3q-2.2.5-7.05 2.6l-4.4 2 1.15 6.95-12.05 11.3-3.1-1-4.8.2q-1.35 1.05-3 6.35l-1.35 5.1-10.7 7.8-30.5-17.75q-3.55 1.75-4.65 1.75t-9.55-3.95q-8-7.2-12.5-16.75l-2.9-8.15-5.25 2.25q-6.35-10.3-13-30.35l-5.4-18 35.3-9.95q37.45-11 48-16.15L366 72.05q-1.35 1.05-3.65 5.4"/><path fill="#c9cfd7" d="m366 72.05-60.4-3.95 33.15-7.35 41.65-9.65-1.45 2.7q-1.1 3 .5 4.6l-5.9 5.5q-6.2 5.9-7.55 8.15m83.35-33.45q-13.35-1.75-21.3 4.7l-9.9.8q-11 1.5-16.3 4.9l-.25-4.5 28.45-7.35q31.6-7.2 47.05-6.35l-3.3 7.1q-11.1 2.85-12.75 3.75-5.05-2.15-11.7-3.05m248.8-8.1q-10.1 5.05-16.8 14l-7.65-1.9 2.3-2.9q3.05-3.4 6.65-6.05 11.5-8.5 24.3-6.4-3.7.75-8.8 3.25"/><path fill="#c9c7d2" d="m367.15 152.25 1.8-5.6 10.45 2.75q12.65 2.45 23.7 1.2l1.95 5.55q2.15 5.9 3.25 7.65 1.15 1.75-9.75 1.6l-11.1-.5zm-23.3-28.3 1.05 4.7q1.7 5.15 5.25 7.65l-2.3 6.3q-1.6-2.5-2.9-6.1-2.55-7.15-1.1-12.55m118.3 4.15q-11.5 18-29.65 25.35l-2.75-9.5 3.1-.95q3.95-1.5 8.35-4.4 14-9.2 26.85-28.65l1.95 1.6q-2.1 7.55-7.85 16.55"/><path fill="#c9cfd7" d="m617.15 32.35 10.65 5.75q-1.8 7.15 3.55 12.85 2.65 2.85 5.65 4.3l-7.05 1.3q-8.35-6.45-11.4-15.85-.95-2.95-1.3-5.9z"/><path fill="#0d131a" d="m627.4 37.55 22.35 10.95q-1.35 1.75-3.9 3.35-5.1 3.3-10.95 2.85-6.45-1.4-7.65-9.4-.35-2.55-.15-5.4z"/><path fill="#e73820" d="m634.65 41.1 11.45 6.1q-1.05 1.15-2.7 2-3.3 1.8-6.3.6-2.8-1.1-2.9-5z"/><path fill="#c9cfd7" d="m649.05 74.65 1.2.35 4.25-1.1-2.05 6q-2.65 6.05-5.8 6.45-3.1.4-6.4-1.5l-2.7-1.95 2.55.55 4.95-.25q2.05-.6 3.2-4.65z"/><path fill="#c9cfd7" d="m608.75 62.4-2.05-4 3.1 4.15q3.95 4.95 8 9.1Q630.75 84.9 640 85l1.7.9q2.2.8 4.55.55-.8 1.35-2.9 2.25-4.15 1.75-10.55-.5-8.9-3-18.4-16.7-2.95-4.3-5.65-9.1m55.3-3.9-.8-4.5q2.6 1.5 8.65 3.05l5.5 1.2-1.9 2.95q-2.55.15-7.25-1.25z"/><path fill="#c9c7d2" d="m325.65 378.95 3.5-1 4.85-.65q5.75-1.1 10.3-3.45-4.4 3.55-11 7.1-13.15 7.05-24.1 7.05-3.8 0-7.2-1.1l-.3.8q-1.55-1.8-5.4-1.9l-3.5.25q-.4-2.55-2.85-5.6l-2.4-2.55 1-.85q-1.75-2.45-1.75-3.2 0-1.35-3.85-14.5-5.3-12.5-4.35-25.15.25-3.95 1.15-7.45l.8-2.7.3 6.15q.65 7.55 2.5 14.3 5.8 21.65 20.95 27.6l3.1 3.75q4.1 3.8 9.25 3.9zm40.95-33.15q-3.4 3.85-5.3 4.55l2.95-17.15.7 3.5q1.35 3.8 4.7 5.4z"/><path fill="#923a72" d="m267.2 323.9 2 .55q2.5.3 5.05-.9l.55 5.9q1.05 7.4 3.7 14.8l.5 7.55q-2.5-2.7-5.25-7.5-5.45-9.7-6.55-20.4"/><path fill="#f4af8f" d="M408.05 86.85q-3.05 3.7-7.3 6.75-8.5 6.15-14.35 3-6.9-3.95-3.8-12.6 1-2.7 2.85-5.5l1.65-2.3 1.5-1.6q2-1.85 4.2-3.15 7-4.25 13.75-1.45 6.1 2.5 4.4 9.95-.85 3.7-2.9 6.9"/><path fill="#f7c5ab" d="m411.1 73.15.9 2.9q.5 3.7-1.2 7.8-2.05 4.75-6.45 8.25l-4.05 2.55-1.7.5q-1.7.2-1.75-1.3t1.7-3.25l3.05-2.7q2.3-1.85 3.9-4.65 2.3-3.95 1.15-7.15-1.1-2.7-.5-4.45l.8-1.15 1.25-.2q1.5.3 2.9 2.85"/><path fill="#f8ceb9" d="M400 71.55q-2.35 1.35-5.2 2.35-5.7 2.05-8.25.4-2.8-2.45.75-6.2 1.8-1.85 4.15-3.25l5.7-2.65q6.25-2.1 8.7.35 2.15 2.4-1.65 5.95z"/><path fill="#923a72" d="m531.25 99.1.9 7q.8 7.8.15 11.85l-1.7.4q-1.8.05-2.2-1.75-.35-1.75-.55-8.1l-.15-6.05zm-8.5 51.65-3.65 8.15q-4.2 8.65-7.15 10.95l-1.7-1.1q-.35-.15-.4-.75-.15-1.15 1.2-3.2 3.05-4.65 7.9-14.55.7-1.5 2.35-.65.8.45 1.45 1.15"/><path fill="#0d131a" d="m638.55 43.45 3.85 2.1-.8 1.05q-1 .95-2.15.55-1.2-.6-1.15-2.2zm13 10.7q6.1 3.5 11.9 4.95.4.1.3 1.1t-.5.9q-6.4-1.4-13.1-5.4l-5.7-3.95q-.3-.25.75-.65l1.4-.2zM650.6 61q8.15 4.5 14.65 6.3.4.1.35 1.05t-.45.85q-7.35-1.8-15.5-6.5l-7.05-4.6q-.35-.2.15-.85t.85-.45zm-2.3 13.35q.05-.4.8-.25.8.1.75.5l-.25 2.45q-.5 2.8-1.8 5.1-1.8 3.1-6.4 2.45l-4.55-1.35q-.35-.2-.4-1.05-.05-.9.3-.75l3.95 1.15q4.2.75 5.55-1.3 1.3-2.05 1.8-4.7z"/><path fill="#0d131a" d="m648.1 67.55 1.15.1.85.7-.4 2.4q-.2 2.1-.05 3.25.75-.05 2.3-.9l2.75-1.8q.4-.35 1.45.35 1.05.65.65 1-1.9 1.55-4.85 2.45l-2.7.6q-.85 0-1-.5-.65-1.75-.5-4.8.15-2.55.35-2.85"/><path fill="#0d131a" d="M650.85 80.2q1.9-3.25 2.75-6.8.1-.4 1.1-.4 1.05-.05.95.35-.85 3.4-2.45 6.6-3.15 6.35-7.4 7-5.75 1.2-11.85-6.1-1.9-2.3-3.65-5.25l-1.5-2.75q-.15-.35.85-1.05 1-.65 1.15-.3l4.35 7.5q5.25 7.2 10.1 6.2 3-.4 5.6-5m39.05-49.65q-7.1 2.75-11.25 7.65l-2.85 4.65q-.2.5-1.5-.3-1.35-.75-1.15-1.25.65-1.95 3.6-4.9 4.95-4.9 12.45-6.7l.8-.1.9.15q.15.35-1 .8M581.7 31.6q1.7.55 1.65 1 0 .5-1.75.9-4.9 1.15-10.45 2.8-10.85 3.2-22.3 8-35.7 14.95-71.1 42.3-.3.25-.85-.95-.5-1.2-.3-1.35 29.05-24.05 62.95-38.8 23.55-10.25 40.6-13-32.7-6.65-78.15 1.1-14.3 2.4-28.2 5.95l-11.3 3.2q-.35.15-2-.65t-1.25-.9l12.05-3.6q14.7-4 29.7-6.6 47.8-8.3 80.7.6"/><path fill="#0d131a" d="M520 38.45q1.75 0 1.9.6.05.6-1.5 1.3-8.15 3.75-15.15 7.7-16.4 9.15-30.55 20.45-.3.2-.75-1-.4-1.25-.2-1.4 10.55-9.5 24.9-17.2 6.15-3.3 19.3-9.05-11.25 1-31.2 4.75l-17.95 3.55q-.35.1-1.45-.9-1.1-.95-.75-1.05l18.3-3.7q20.85-3.65 35.1-4.05M4.65 232.55l1.1.35q1.05.4 1.05.85l.35 5Q7.8 245 9 251.85q3.8 21.75 12.1 41.1 11.3 26.4 30.2 46.45 24.9 26.45 60.9 39.3.7.25.8 1.1 0 1.3-1.15 2.4-1.25 1.2-3.55 1.6l-6.05-.25Q72.8 377.6 42.5 352.5q-9.6-7.95-18.4-17.15l-7.6-8.4q-.35-.35-.1-1.9.2-1.55.55-1.2l8.35 8.4q10.3 9.9 20.9 18.45 33.75 27.15 58.25 30.8l5.55-.25q.9-.4 1.05-.95-36.75-12.4-61.7-38.1-19.45-20.05-30.65-46.85-8.25-19.7-11.95-43.1-1.2-7.3-1.75-14.2zM361.5 82.15q-.25.5-2.1.35-1.85-.1-1.6-.55 3.75-7.95 12.5-16.8 4.35-4.4 7.95-7.25.4-.35 1.25.55.9.9.5 1.25-3.05 2.65-6.9 6.8-7.7 8.3-11.6 15.65m33.75 84.45-7.5-.75q-.5-.1-1.45-1.65-.9-1.5-.4-1.4l7.75.7q8.7.45 13.75-.9.5-.15 1.25 1.35.7 1.55.2 1.65-5.4 1.45-13.6 1M428.7 41.35q.55.05.55 1.25.05 1.25-.5 1.25-8.9.2-18.05 3l-7.4 2.8q-.45.25-1-.9-.6-1.1-.1-1.35l7.3-3.4q8.95-3.1 19.2-2.65m7.25 35.05 4.8-.3 10.8.35q16.85 1.7 27.35 9.8l1.8 2.25q1.5 2.9.8 6.75-1.55 10.15-3.15 14.4-1.1 3.2-3.2 4.55-1.95 1.25-4.3.65-5.5 13-10 19.2-10.5 14.65-27.55 20.9-.45.2-.95-1-.45-1.15-.05-1.3 15.85-7.05 27.1-22.55 6.4-8.85 9.6-17.5-9-9.65-24.15-13.95-4.75-1.35-9.55-2l-3.95-.4q-3 0-4.1-1.45-.85-.9-.85-2.35 0-1.15.4-2.1.25-1.3 1.45-4.5l1.6-3.85q1.4-3.4 3.9-4.85 1.2-.7 2.2-.75m4.7 2.2-4.5.35q-.65.05-1.45.6-1.55 1.05-2.55 3.45l-1.6 3.9q-1.15 2.95-1.3 3.95l-.15 1.1q-.15 1.05 0 1.15l.1.15q.4.4 2.2.5l4.55.3q5.15.5 10.2 1.85 15.8 4.2 25.3 14.75.45.6.3 1.6l-.2.7q2.4.25 4-4.2 1.5-4.15 3.05-14 .55-2.9-.3-4.95l-.95-1.55q-9.95-7.7-26.3-9.35zm-13.4 16.2.05.1-.15-.2z"/><path fill="#0d131a" d="m428.15 57.65 1.2-.05q11.05-4.85 16.45-6.2 12.8-3.25 19.5 1.75 3.45 2.2 7.5 9.6-.55-6.6-4.2-11.85-5.25-7.5-15.95-10.05t-20.6 2q-6.4 2.9-11.5 8.25l-.35.4q-.25.35-.1.4 3.95 1.95 8.05 5.75m-9.35-8.4q5.55-5.8 12.25-8.95 10.7-5.1 22.2-2.35 12.9 3.15 18.35 12.4 3.45 5.85 3.45 13.25l-.25 3.6q2 5.9 2 13.35l-.15 4.65q-.05.55-1.6.3t-1.5-.8q1.05-13.55-3.75-22.15-2.55-4.6-5.45-6.3-9.35-7-33.95 3.65l-3.7-.15-1.75-1.5-3.75-3-1.85-1.2-1.4-1.05-.4-.95q-.1-1 .5-1.9zm-29.8-4.7q5.8-2.1 9.9-2.1 1.9 0 2.95 1.25 1.9 2.05 1.25 6.85l-.15 1.15q-.25 3.65-3.5 5.2l-1.95.85q-8.1 3.65-9.05 4.15-2.5 1.45-4.65.9-1.75-.45-4.45-2.75-1.95-1.65-1.95-4.25 0-2.5 1.7-4.7 2.8-3.95 9.9-6.55m11.85 2.65q0-1.55-.55-2.15-.3-.4-1.05-.4-3.6 0-9.2 2.1-6.55 2.5-8.9 5.8l-.05.05-1.1 2.15q-.7 2.3.8 3.55 2.2 1.8 3.65 1.9 1 .1 2.7-.8 2.4-1.35 9.35-4.3l1.85-.8 1.2-.9q.75-.8.9-2.25l.15-1.25zM367.2 80.75q-.7-.15-2.6.5-3.8 1.35-9.8 5.65-11.3 9.05-13.25 25.5l-.15 1.85q0 3.05 1.25 5.35v-.3l.1-.35.8-2.55q1.1-2.85 2.95-5.7 5.85-9.05 17.3-15.6 1.95-.9 2.35-2.55l.5-2.65 1.4-7 .15-1.05q0-.55-.35-.8zm-13.95 4.15q6.9-4.95 11.05-6.1l4-.15q1.25.45 1.8 1.8l.25 1.8-.3 2.5-1.45 8.15q-.35 1.8-2.05 3.3l-1.65 1.2q-8.45 4.65-14.65 13.35-3.1 4.4-5.1 8.95l-.1 3.75q0 12.2 3.95 18.45.15.2-.5 1.45-.7 1.25-1 .85-3.55-4.75-4.65-11.65-.55-3.4-.55-10.05-1.05-.6-2.05-1.9-2.1-2.6-2.1-6.5l.1-2.15q2-16.65 15-27.05"/><path fill="#0d131a" d="M368.1 110.45q.8-.8 2-1.1 1.55-.4 3.1.35 2.15.9 7.25 3.3 1.6.75 2.35 2.15.95 1.65-.05 3.35l-6.05 12.45q-6.5 13.9-9.05 21.9l-1.35.15q-1.15-.4-1.05-.9 2.35-9.6 9-23.05l6.3-11.7q.55-1-1.35-2.15-4.75-2.6-6.8-3.5l-1.6-.15q-.55.2-.7.45-4.2 4.1-8.85 10.05-9.35 11.9-12.2 21.65-.15.5-1.3-.2-1.15-.75-1.05-1.3 2.85-11.3 12.15-22.4 4.7-5.6 9.25-9.35m40.05-1.15h-.05l.15-.05zl3.8.2q2.5.9 4.25 3.7l8.4 14.9q8.55 17.2 9.45 28.8l-.2 2.3q-.55 2.4-2.25 3.35-6.7 3.8-12.1 5.25t-8.55.35q-2.05-.7-2.85-2.15-6.4-10.9-9.35-28.9l-1.65-16.35q0-4.7 2.6-7.55 1.3-1.45 2.7-2l2-.8zm-4.75 4.2q-1.2.45-2.2 1.7-1.9 2.55-1.45 7.15 1.75 17.1 5.15 28.55 2.6 8.75 6 13.6l.1.2.35.4q.5.4 1.3.65l5.6-.2q5-1.2 12.15-5.2 1.3-.7 1.15-3.25-.65-8.45-7.5-23.25-4.35-9.35-10.5-19.95l-.1-.15q-1.05-1.75-2.8-2.05-.75-.15-1.8 0l-.15.05q-1.4.25-3.45 1.05zm5.5-55.65q7.15 1.35 10.4 6.9 3.35 6.6-.65 16.45-3.15 7.7-8.5 13.25-4.85 5.5-12.5 8.95-10.25 4.55-17.05-.4-3.4-2.75-5.1-7.2-1.4-3.7-1.4-7.7 0-4.2 1.55-8.75l1.55-3.75q.45-1.05 1.45-2.65 1.8-2.95 4.25-5.5 7.75-8.05 19.05-9.75l2.2-.2zm-1 34q4.75-4.85 7.8-11.2 4.3-8.9 1.4-14.7-2.65-4.55-8.95-5.6l-5.8-.15q-10.4 1.55-17.6 9.1-2.3 2.35-4 5.05l-1.3 2.35-1.2 2.65q-1.15 3.05-1.5 5.95-1.25 9.2 5.2 14.5 5.75 4.25 14.9.05 6.85-3.15 11.05-8"/><path fill="#0d131a" d="M408.05 55.8q7.9-1.4 14.3 3.05 2.75 2 4.35 5.5 1.5 3.35 1.55 7.15.05 8.15-3.85 16.15-3.45 7.05-9.55 13.2-4.9 5.05-11.5 8.45-7.55 3.8-14.4 3.75-3.95-.05-7.5-1.45-3.6-1.45-6.2-4.2-5-5.5-4.05-14.8.75-7.45 4.4-13.05.3-.45.95.5.6.9.35 1.35-2.9 5-3.4 10.9-.6 7.6 3.75 12.35 4.55 4.8 11.35 4.8 6.3.05 13.75-3.7 6.55-3.35 11.2-8.15 4.6-4.5 8.1-11.65 4-8.25 3.8-15.1-.15-6.3-4.35-9.85-5.2-3.75-12.1-3.15-5.95 1.35-6.15 1.45-.5.25-1.35-.3-.9-.55-.45-.8l2.1-1q2.4-.95 4.9-1.4m240.5 28.9q.8.25.4.6-1.8 2.85-5.35 4.5-7.1 3.35-16-2.25-9.05-5.65-20.45-24.5-3.6-6-7.1-12.75l-3.1-6.15q-1-1.8-.45-2.35.45-.35 1.95 1.15 4.45 4.3 9.7 8.25 5.65 4.2 7.6 4.45 5.4.7 27.5-2.2l1.75.15q.3.4-.5 1.7-1.4 2.8-3.8 6.25-4.7 6.8-10.2 11.5l-1.2.55q-.85.15-1.15-.25-.2-.2 0-.7.2-.6.95-1.25 4-3.55 8.3-8.8l5.5-7.45-14.45 2.2-13.55.9q-1.8-.25-6.55-4.05-2.75-2.2-8.1-7 19.95 32.15 29.25 37.65 7.2 4.25 13.15 2.65 3-.8 4.75-2.65.35-.35 1.15-.15"/><path fill="#0d131a" d="M708.8 25.95q1.25.7 1.1 1.4-.05.65-1.45.95-11.95 2.2-20.2 10-2.55 2.45-4.45 5.2l-1.45 2.25q-.25.45-8.15-1.15-.45-.1-.7-.4-14.55-15.3-28.45-23.3-10.4-5.95-14.7-5.45-2.3.3-9.1 2.7-6.8 2.35-9.75 3.9-.9.65-1.15 1.4-.6 1.5.15 4.3 1.75 6.25 5.65 13.85 4.75 9.15 9.6 13.65.4.35-.1 1.25-.55.95-.95.6-5.7-4.8-10.7-13.25-4.1-6.95-6.35-13.7-1.65-5.05.2-8.05.95-1.55 2.5-2.3 2-1.1 8.25-3.7 7.7-3.2 10.35-3.55 5.9-.8 16.45 4.75 14.7 7.75 29.65 24.85l4.95.8q3.2-4.3 8.4-8.3 8.4-6.6 17.1-7.75-34.7-17.2-78.05-21.5-33.2-3.3-69.05 1.1-25.8 3.15-51.65 10.2-13.15 3.6-23.8 7.5l-3.5 6.2-4.15 7.7q-.2.45-1.95.45t-1.55-.45q2.1-4.2 10-16.1l.6-.5 5.8-2.3q7.3-2.7 15.75-5.3 26.8-8.15 54.1-11.55 36.5-4.5 70.85-.5 44.25 5.2 79.9 24.1"/><path fill="#0d131a" d="M668.85 55.8q2.2.75 2.05 1.1l-2.2.05q-13.6-3.95-31.45-13l-19.4-10.5-.1.85q0 3.65 2.25 9.2.6 1.45.25 1.6-.55.3-1.5-1.6-1.9-3.55-2.75-6.35-1.4-4.6.55-5.95l1-.05 20.3 10.35q21.75 10.85 31 14.3m13.05-7.6-2.1-3.25q-.25-.35.8-1.1 1.05-.8 1.3-.45.6.6 2.05 3.6 2.05 4.25 2.8 8.5.5 2.45-1.25 3.6-1.55.9-3.95.7-2.2-.15-5.75-1.4-1.8-.55-1.55-.95l.9-.1.75.15q7.35 1.45 8.75-.15.4-.45.2-1.45-.8-3.75-2.95-7.7"/><path fill="#0d131a" d="M679.05 59.3q-1.8 1.2-6.6 9.3l-4.5 7.95q-.35.65-1.1.5-.65-.1-.75-.85-.3-4.05-2.85-13.4l-2.5-8.6q-.1-.35 1.4-.25 1.55.1 1.7.45l1.55 7.05 2.15 12.45 4.35-8.55q3-5.75 4.65-7.35.3-.3 1.55.4 1.3.65.95.9"/><path fill="#0d131a" d="M649.9 67.45q11.35 6.15 17.4 7.7.4.1.15 1.05t-.65.85q-6.75-1.75-16.35-6.75-8.25-4.25-11.85-7.1-.35-.2.15-1.05.5-.8.85-.6zM5.8 231.35q1.95.1 3.25 2.9.75 1.6 1.6 5.1l1.6 6q2.2 7.4 5.15 15.05 9.4 24.45 22.95 42.8 20.6 27.85 48.05 39.25 27.2 11.3 59.7 5.85 48.5-8.05 89.8-37.55 20.65-14.8 31.85-28.25.3-.4.5 1.7.15 2.15-.15 2.55-9.2 13.2-28.6 27.9-38.7 29.3-90.8 38.15-39.15 7.4-71.15-9.35-24.9-13-42.55-38.6-13.1-19-22.25-43.75-2.85-7.75-5-15.2l-1.6-6q-1.4-6.45-2.55-6.65-.5 0-.95 1.2-.6 1.45-.85 3.95l-.65 16.8q.2 20.4 4.45 39.5 5.7 25.65 20.4 48.5 18.9 29.3 49.15 47.5 55.25 32.6 114.7 33.1 18.65.15 35.55-2.95 8.5-1.55 13.5-3.2.5-.1-1.55 2.6-2.05 2.75-2.3 2.6-4.7 1.45-13.1 2.85-16.8 2.8-35.3 2.45-59.3-1.1-113.5-33.25-31.25-18.8-50.55-48.95Q9.75 322.7 3.9 296.3-.4 276.9 0 255.8q.15-6.65.75-12.65l.6-4.85q1.35-7.05 4.45-6.95"/><path fill="#0d131a" d="M252.55 405.8q.4-.1-.2 1.3t-1 1.5q-46.4 14.1-91.75 10.35-14.2-1.2-26.65-4.05l-9.85-2.65-6.9-2.85 11.5 2.4q14.45 2.55 30.2 3.6 50.1 3.3 94.65-9.6m77.75-193q.55 0 1.1 1.45t0 1.45q-6.5.25-13.65 3.9-14.2 7.25-20.65 24.3l-5.85 14.65-4.75 11.35-5.65 14q-2.45 6.6-4 12.6-2.8 10.9-.55 29.45 2.2 18.1 7.8 32.95 4.25 10.45 4.55 18.35.15 4.05-.6 6.2l-.65 2.05q-.65 1.5-1.05 1.45-.55-.05-.55-1.4l.15-3.25-.2-5.5q-.9-6.75-4.75-17.3-5.85-15.45-8.3-33.4-2.55-18.85.3-29.95 1.55-6.1 4.1-12.95l5.65-14q6.35-15.2 10.65-26.7 6.8-18 22.45-25.65 7.85-3.8 14.45-4.05"/><path fill="#0d131a" d="M271.85 271.3q1.8-5.65 9.85-11.55 4.05-2.95 8.15-5.05.45-.25 1.1.65t.2 1.15q-3.45 2.1-7.1 5.15-7.35 6.05-9 11.15-5.65 13.95-6.75 32.2-1.7 29.3 12.8 48.4.3.4-.4 1.35-.7.9-1.05.5-16.5-19.85-14.85-50.5.95-18.7 7.05-33.45m45-67.75q.35-.35 1.1.95t.4 1.7q-2.4 2.45-4.85 5.95-4.9 7.1-5.5 13-.05.55-1.9.8-1.85.3-1.8-.25.65-6.5 6.5-14.8 3-4.2 6.05-7.35m39.55 60.95q7.15 4.45 9.8 14 2.35 8.55 2.2 19.45-.1 6.7-.95 11.55-.55 2.9-1.25 2.65-.75-.25-.35-2.95.4-5.1.25-10.9-.3-11.05-2.6-19.45-1.45-5.15-3.75-8.6-1.6-2.3-3.85-4.1l-1.3-1q-1.3-1.1-1.1-1.45l1.1-.05q.9.25 1.8.85M325.95 383q1.25-.25 1.5.2.25.4-1.3 1.4-1.35.85-2.45 1.3-3.35 1.4-7.7 2.25l-4 .6-2.15.15q-1.7 0-1.75-.4-.05-.45 1.15-.85l2.05-.5 4.85-1.15q5.2-1.3 7.25-2.2 1.4-.65 2.55-.8m-27.35-25.5q.4-.15 1 1.2l.85 2.05 1.65 4.2q1.95 4.75 3.85 8l1.15 2.1q.35.9 0 1.15-.4.25-1.55-.85l-1.4-1.6q-3.8-5.45-5.55-12.5l-.3-2q-.1-1.6.3-1.75m40 .4 1.25-2.8q1.1-2.1 1.5-1.95.8.3-.6 5.7-.95 3.4-2.9 8.4-2.85 7.25-4.85 9.15-3.05 2.9-6.35 3.8l-2 .55-1.65-.15q-.15-.4 1.25-1.2l2.1-1.05q2.2-1.1 4.85-3.75 2.45-2.45 7.4-16.7"/><path fill="#0d131a" d="M370.15 227.05q7.55 5.1 9.75 8.65l5.2 11.8q5.4 14.5 6.8 28.75 1.9 19.6-3.4 36.1-7.1 22.3-27.4 40.3-.4.35-.65-1.05-.3-1.4.1-1.75 17.7-16.75 24.35-38.35 5.2-16.85 3.4-35.25-1.35-13.9-6.25-27.45l-4.65-10.85q-1.95-3.15-10.15-8.6l-7.9-4.9q-.5-.25 1.15-1.25 1.6-1.05 2.1-.8zm41.6 36.25q9.8 8.9 13.35 12.65.35.4-.3 1.7-.7 1.35-1.05.95l-13.5-13.2-9.35-8.9q-.4-.35.2-1.3.6-.9 1-.55zm31.1-12.85q.45-.45 1.55-.25l2.15.6 7.45 2.9 1.9 1.05q1.8 1.4 2.15 3.3l.2.75q2.95 12.65 3.8 19.65 1.9 15.8-1 29.2-4.2 19.3-18.05 34-13.5 14.3-35.8 23.75-.45.2-.7-1.25t.15-1.6q52.85-22.55 52.85-74 0-13.6-3.75-29.2l-.15-.75q-.2-1.05-1.35-1.9-.9-.65-1.2-.65l-7.5-3.3-.7-.15.05.3q2.7 7.25 4.2 13.35 2.8 11.25 2.8 21.85 0 19.3-7.25 36.55-7.1 14.45-16.8 21.85-3.05 2.35-6.05 3.7l-2.65.95q-.5.1-.75-1.15t.25-1.35l2.1-.75q2.55-1.25 5.25-3.45 8.65-7 15.7-21.3 8.55-20.3 6.75-43.25-1.1-14.05-5.55-25.85-.9-2.7-.05-3.6"/><path fill="#0d131a" d="m425.65 261.9 11.35 6.85 1.15 1.05q1.1 1.4 1.35 3.15 5.7 32.7-8.35 62Q405.9 387.65 323.2 406q-.45.1-.4-1.75.05-1.9.45-2 66.8-15.9 95.55-54.75 19.45-26.25 19.45-59.1 0-7.85-1.2-15.05-.2-1.05-.8-1.85l-.6-.6-11.65-7.55-.7-.25v.25q1.4 4.55 2.3 10.45 1.2 7.5 1.2 14.75 0 32.25-17.95 57.5-25.15 35.3-82.25 50.55-.5.15-.85-1.05-.35-1.25.15-1.35 35.5-9.95 58.4-27.5t32.7-42.4q6.7-17 6.8-36.15.05-12.25-2.5-23.5-.8-2.85.35-3.75l1.75-.05z"/><path fill="#0d131a" d="M396.05 247.25q-3.25-2.15-7.9-4.7-5.6-3.05-9.35-4.4-.4-.15-.25-1.3.2-1.2.65-1 4.6 1.65 9.5 4.05 5.5 2.75 9 5.4 2 1.75 3 4.3 5.3 12.9 6.55 31.55 1.75 26.35-7.65 47.1-7.1 15.75-20.75 27.4Q365.4 367.1 346.2 374q-.45.2-.85-1-.4-1.25 0-1.35 37.25-13.5 51.3-44.4 7.9-17.55 7.9-39.25 0-11.4-2.15-22.75-1.7-8.9-4.05-14.75-.8-2.05-2.3-3.25m41.05 23.15q-.35.35-1.3-.8t-.55-1.5l9.8-8.9q.4-.35.85.75t.05 1.45zm97.55-173.25q-.5-.15.25-.95.75-.75 1.25-.65 1.35.5 1.9 1.15 1.65 1.9 1.85 6.4v7.55q-.15 4.6-.45 5.75-.4 1.55-1.65 2.55-1.15 1-2.55 1.15l-3.75-.55-1.3-.35q-1.6-.35-2.35-1.7-.55-1.05-.5-2.15.05-3.45-.65-8.4l-.65-4.3q-.1-.5 1.4-.9l1.6.15.45 4.7q.45 5.15.4 8.85l.1.65q.2.5.75.65l1.35.35 2.8.5q1.35-.2 1.65-1.8l.4-5v-7.6q-.15-3.25-1.25-4.95zM517.3 151q1.45-3.05 4.6-1.85l5.8 2.4q.9.4 1.65 1.25.85 1.05.8 2.15l-.25 1.05q-1.25 2.9-3.5 7-2.9 5.1-5.85 9.2-.85 1.2-2.35 1.45l-2.6-.4-4.95-2.6q-1.35-.7-1.75-1.8-.4-1.05.1-2.15l.15-.35q3.4-5.45 8.15-15.35m3.55.45q-.75-.4-1.35.8-5.1 10.45-8.1 15.25l-.05.35.5.6 4.6 2.4.75.15q.6.05 1-.45 2.9-3.95 5.65-8.9l3.4-6.75q.3-.65-.55-1.05z"/><path fill="#0d131a" d="M532.2 119q.05-.5 1.3-.5t1.25.5l.1 3.2q.05 3.65-.45 7.55-1.5 12.2-7.45 22.55-.25.45-1.65-.25t-1.2-1.15q4.9-9.55 7-21.65zm-19 52.4 1.7.1q1.4.5 1.1.95l-4 5.95q-4.65 6.35-9 9.9l-1.65-.15q-1.3-.45-.95-.75 5.8-5.55 12.8-16m7.15-63.5q-.05-.5 1.2-.6t1.3.4l.1 5.85q-.3 7.15-2.5 14.35-7 22.95-30.1 38.1l-1.8.8-1.7.05q-.45-.7 1.5-2.1 21.2-15.15 28.7-37.4 2.35-6.95 3.05-13.85zm-17.45 64.75q3.35-4.05 3.9-3.6.4.3-.25 1.6l-1.65 2.4-5 6.4q-5.5 6.6-9.5 9.95-.4.35-1.3-.7-.95-1-.55-1.35 6.2-5.2 14.35-14.7m-16.55-30.6q0-.5 1.5-1.3 1.5-.75 1.5-.25v6.45q-.4 7.75-2.25 14.75-5.9 22.4-23.9 29.45-.5.2-2.4-.95-1.95-1.15-1.45-1.3 17.75-6.4 24.15-27.15 2-6.5 2.65-13.65z"/><path fill="#0d131a" d="M599.45 72.7q8.9 1.25 16.25 3.45 3.7 1.15 5.8 2.1.5.25-.05 1.4-.5 1.15-1 .9-7.4-2.45-20.8-4.2l-2.8-.15-1.45.05q-40.15 4-79.2 37.85-12.25 10.65-22.95 23.05l-8.4 10.5q-3.2 4.3-6.95 2.1-1.5-.95-2.9-2.45l-1.1-1.25q-2.8-3.2-6.65-11.55-2.75-5.85-3.9-9.15-.2-.5 1.4-1.5 1.55-1 1.75-.5l4.15 10.65q3.15 7.45 5.2 9.9l1 1.2 2.5 2.1q.95.6 2.05-.25l1.05-1.15 8.7-10.85q11-12.8 23.6-23.7 40.1-34.85 81.25-38.6l1.1-.05z"/><path fill="#0d131a" d="M452.6 140.25q-.2-.45 1.3-1.25t1.75-.35l4.4 9.25q4.5 10.1 6.3 16.6.35 1.2.6 1.2 1.4.2 5.25-4.95 3.9-5.15 7.8-12.35l1.85-.1q1.65.35 1.4.85-3.5 6.45-7.75 11.95-5.8 7.55-8.9 7.1-2-.2-2.7-3.05-1.75-6.35-6.65-16.2z"/><path fill="#0d131a" d="M471.15 162.7q0-.5 1-.5 1 .05 1 .55l.1 8.4q-.1 8.75-1 12.65-.1.5-1.35.2-1.2-.25-1.1-.75.8-3.75 1.15-12.45zm-9.3-5.8q.25-.5 1.15 0 .95.5.75 1-1.6 3.85-4.3 8.3-5.25 8.8-11.2 13.7-.4.3-.65-1.2-.2-1.5.2-1.85 5.05-4.4 10.05-12.55 2.5-4.1 4-7.4m-59.9 17.75q-.5.05-.6-1.25-.05-1.25.45-1.25l5.55-.85q6.65-1.4 13-4 20.2-8.35 29.9-26.05.25-.45 1.2.3.95.7.7 1.15-10.55 19.35-31.3 27.55-6.5 2.6-13.3 3.75z"/><path fill="#0d131a" d="M427.95 165.4q-.15-.5 1.5-.9l1.85.1 1.5 4.05q2.05 4.8 5.05 8.7.3.4-.55 1.15t-1.2.4q-2.4-2.4-5.45-8-2.1-3.9-2.7-5.5m61.5-1.05q.1-.5 1.75-.8l1.55.15-1.65 11.9q-1.65 12.35-1.65 15.7 0 .55-1.25.55-1.3 0-1.3-.55 0-3.45 1.25-15.2z"/><path fill="#0d131a" d="M490 188.55q7.1-3.95 15.4-1.7 8.75 2.4 19.75 3.95l11.6.85 1 .1.6.75q.15.5-.1 1l-.75.6-12.75-.45q-11.5-1.25-20.2-3.65-7.35-2-13.5.65-2.2 1-5.4 3.6l-1.5 1.4q-1.15 1-1.5.7-.3-.3.45-1.55l1.15-1.55 1.6-1.65q1.9-1.8 4.15-3.05"/><path fill="#0d131a" d="M506.8 183.8q-.5-.15-.15-1.35.4-1.2.9-1.05l10.5 3.1q11.25 3.65 18.35 7.55.45.2-.5 1.05-.9.8-1.35.55-3.6-2.05-15.95-6.15zm-45.95 11.5q-.05-.5 1.5-1.2 1.5-.65 1.55-.15l2.1 21.25q1.15 10.6 1.95 11.7 4.35 5.9 29.3 5.95 5.15-.05 9.25-1.25 11.55-3.25 22.4-8.55 5.45-2.65 8.7-4.7.4-.25 1.1.8t.3 1.3q-3.6 2.35-9.25 5.15-11.2 5.6-23.05 9.1-4.25 1.35-9.95 1.35-13-.05-21.1-2.1-7.8-2-9.75-5.55-1.35-1.8-3.15-15.75-1.1-8.45-1.9-17.35"/><path fill="#0d131a" d="m461.75 228.3 1.8 6.55q.2.4.95.4l5.6.7.65.25q2.8 2.3 6.1 4.45 4.6 2.95 6.8 3.2l7.85-.9q7.4-1.3 14.95-3.65 21.85-6.75 32.5-18.2.35-.35 1 .75.6 1.05.25 1.45-11.25 12.05-33.15 19.3-7.75 2.5-15.15 3.9l-8.2.95q-2.8-.3-8.05-4.35l-5.95-5-5.9-.7q-2.05-.15-2.8-2.1l-1.7-6.3q-.95-2.85 1.6-4.1l3.9-1.45q.5-.1.8 1.1.3 1.25-.15 1.35l-3.55.95q-.3.2-.3.7zm.3-28.05q.5-.05.6 1 .1 1.1-.4 1.15l-3.2.3q-.95.3-1.05 1.1l-.1 4.9-1.05-.05q-1.1-.6-1.1-1.15l.05-3.75q0-2.6 2.75-3.15zm1.9 15.45.35 2.5-5.75.4q-1.3.1-2.15-.75-1.15-1.15-.9-3.1.05-.5 1.2-.4t1.15.6q-.15 1.5.5 1.45l2.2-.2zm8.25-33.1q-.05-.5 1.2-.65 1.25-.1 1.3.4.8 7.05 2.1 16.2 1.35 9.1 1.75 10.3.35.9 1.3 1.05l3.55-.15h.25q3.5-.75 24.15-2.75 23.4-2.25 30.5-1.7.55.05.35 1.1-.15 1.1-.7 1.05-6.95-.5-30.25 2-20 2.2-24.05 3.05l-.4.05q-3.2.35-4.55.05-2.15-.45-2.9-2.6-.55-1.55-2.05-13.65z"/><path fill="#0d131a" d="M536.95 190.85q.8-3.55 2.7-5.35 2.9-3.15 9.5-4.7l6.3-1q.5-.05.45 1.25-.05 1.25-.55 1.25l-5.2.9q-5.6 1.4-8.1 4.1-1.55 1.4-2.25 4.45-.55 2.2-.5 4.15l.05 7.3q.2 10.2.45 13.15.25 3.75 3.2 6.1 1.15.95 2.75 1.5l2.9.5q.55-.05 1.05 1.1.45 1.2-.05 1.25l-4.55-.15q-2.35-.5-3.8-1.7-1.7-1.4-2.75-3.6-1.05-2.25-1.25-4.8-.25-3-.45-13.3l-.25-7.2q-.2-2.5.35-5.2"/><path fill="#0d131a" d="M554.35 183.2q-.1-2.6 1.3-3.6L570.9 168q1.2-.8 1.65-.6.4.2.45.9l-.1 1-3.1 9.95q-3.8 10.1-8.1 13.5l-1.4.1q-2.75-1.6-4.4-4.5-1.4-2.55-1.55-5.15m2.2-1.1-.2 1.2.05 1q.5 2.95 4.45 5.8 2.7-2.6 6.05-9.65 2.65-5.5 4.25-10.35l-8.45 7.15z"/><path fill="#0d131a" d="M577.65 188.8q-3.4 1.45-9.55 3.35l-7.1 2q-2.4 2.4-2.4 5.9l.15 1.75q.45 2.2 2 3.3 1.4 1 3.15.7 2.2-.4 6.4-4.95 5-5.5 7.35-12.05m-19.9 5.85q1.15-2.25 2.35-2.85l.55-.3 9.95-2.3 6.75-1.9 1.8-.1q.35.4-.05 1.7-2.4 8.35-7.45 14.1-4.1 4.7-7.3 5.3-2.75.5-4.8-1.2t-2.75-5.05q-.75-4.1.95-7.4"/><path fill="#0d131a" d="M577.15 202.4q1.05-.55 1.5-.25.5.3.35 1.45-.25 3.75-2.95 8.4-2.7 4.55-6.3 7.5-3.75 3-7 2.6-3.3-.45-5-3.6-1.35-2.45-1.3-5.2-.05-1.95.8-3.6 1.15-2.2 3.45-2.55l9.15-2.45zm-8.95 15.25q2.75-2.15 5.55-6.3 2.85-4.15 3.65-7.25l-8.15 2.9-8.15 2.65q-2.1.5-2.1 3.6v.1l-.05.4q0 1.75.65 3.15 1 2.3 3.5 2.7 2.3.35 5.1-1.95"/><path fill="#0d131a" d="M551.4 219.35q1.3-1 2.95-1.55 1.95-.65 3.7-.35 2.25.45 3.45 2.4 1.95 3.15 4 12.3.3 1.45-.05 1.7-.4.35-1.7-.25l-14.45-6.75q-.75-.3-.75-1.15 0-1.1.35-2.35.7-2.5 2.5-4m5.9.2-2.45.25q-1.2.4-2.15 1.15-.8.65-1.4 1.95-.5 1.05-.65 2l5.8 3.1 7.25 3.8q-.55-2.15-2.1-5.8l-2.25-4.85q-.95-1.4-2.05-1.6m-12.4-58q.35-.05.8.45l.55.9 3.3 7.05 4.85 10.95q.3.75-1.1 1.25-1.45.45-1.7-.25-3.7-10.3-6.3-16.2-.7 2.9-1.2 7.9-.6 5.5-.7 11.2 0 .6-1.35 1-1.35.35-1.3-.2.15-8.25 1.6-16.1l1.55-6.5q.45-1.45 1-1.45m-208.7-10.7q-.5-.25.1-1.6.55-1.3 1-1.05l70.5 39.6q1.65 1 2.9 1.95 1.65 1.25 1.4 1.7l-1.9-.15-3.15-1.45z"/><path fill="#0d131a" d="m350.55 142.85 1.9.2q2.2.4 4.25 1.8 5.15 3.15 30.85 17.95 14.95 8.85 38.8 23.65.4.25-.45 1.5-.85 1.2-1.25.95l-39.05-23.2-18.1-10.85q-9.95-6.05-12.7-7.6-1.85-1.1-3.65-1.35l-1.45-.05q-7.35.55-12.3 4.05l1.45 5.85v.2l-.45.95q-9.15 8.4-11.35 11-.3.4-1.4-.6t-.9-1.25q1.75-2.1 11.5-10.65l-.8-5.9-.05-.2q0-.6.5-1 3.15-2.45 7.85-4 3.55-1.15 6.8-1.45"/><path fill="#0d131a" d="m401.75 192.3 2.5 1.35q1.95 1.25 1.75 1.8l-1.85-.1-2.25-.9q-13.5-6.3-43.2-15.8-25-7.95-37.95-11.05-1.25-.3-2.1 0-.5.15-.7.45-1.25 1.7-2.45 5.3-1.5 4.55-1.6 8.85l7.25 3.9q.5.25.6.85l2.7 13.9q-2.8-.2-2.9-.9l-2.2-12-7.05-4.25q-.6-.45-.6-1.1 0-4.95 1.45-9.85 1.2-4.15 2.75-6.15l1.3-1.15q1.75-1 4.25-.3 14.4 3.45 37.6 10.9 29.25 9.4 42.7 16.25"/><path fill="#0d131a" d="m404 202.4-2.95-1q-15.35-4.7-53.1-11.55l-35.15-6q-.5-.05-.35-1.3.2-1.25.7-1.2l37.1 6.25q37.65 7 51.75 12.25 4.55 1.75 4.3 2.8zm1.15 3.15 2.55.6q2.05.65 2.05 1.3l-6.05-.3q-23.9-4.1-51.85-4.95-21.3-.7-32.25.45-.65.05-.65.85l.4 6.75q.1.55.55.55l23.75.7 36.05 1.1 24.05 1.25q2.7.35 4 .85.9.35.85.65l-6.15.35-23.45-.8-35.4-.85-23.8-.75q-2.65-.05-2.95-2.85l-.45-6.75q-.05-1.2.6-2.15.8-1.25 2.35-1.4 9.95-1.05 32.05-.15 28.45 1.25 53.75 5.55"/><path fill="#0d131a" d="M415.5 223.75q.5.15.5 1.55 0 1.35-.5 1.2-16.75-4.9-44.4-2.25l-17.4 2.35-7.2 1.35q-.65.15-1.1-.3l-9.8-7.85-8.05-6.3q-.45-.3.25-1.3.75-1.05 1.15-.75l7.85 5.5 10.05 7.4q12-2.5 26.6-3.55 25.6-1.85 42.05 2.95"/><path fill="#0d131a" d="m455.7 233.1-9.5-9q-6.65-5.95-10.35-8.2-1.4 6.55-1.55 11.65l9.25 2.55q7.95 2.2 12.15 3m-23.9-47.15-2 .2-.85.45q-4.4 4.35-7.5 11.25-4.65 10.45-4.65 24l.05 2.15.25.8q.4.85 1.25 1.2 6.7 2.75 12.55 3.45l1.25-.05q-.45-.45-.45-.9.2-13.95 4.35-25.7 1.35-3.75 3.1-7.45l2.05-4.1q-2.65-3.7-9.4-5.3m-4.6-1.25 1.55-.9q1.85-.75 3.6-.35 3.35.8 5.45 1.85 3.9 1.85 5.95 5.1l.2.65-.15.5-2.65 6.7q-2.95 8-4.7 15.05 5 2.8 13.65 11.3l8.15 8.4q.9.9.65 1.65-.2.6-1.8.45l-11.85-2.45L434.3 230q-1.35 2.25-4.35 1.8-5.8-.65-12.55-3.45-1.75-.7-2.55-2.5-.5-1-.5-1.75-1.05-14.35 3.8-26.05 3.7-8.95 9.05-13.35"/><path fill="#0d131a" d="M448.95 202.65q9.55 4.85 14.5 10.9.75.9.5 1.45-.3.6-1.4.6l-11.4.55-15.8-.55q-.5-.1-.3-1.5.25-1.35.75-1.25l12.25.9q7.5.15 12.7-.15-4.85-4.9-13.75-9l-8.05-3.15q-.4-.15 0-1.45.45-1.35.9-1.2zM417.15 228q-.35-.4 1.2-.75l1.9.1 5.3 6.85q6.2 7.4 11.1 10.85l-1.95-9.35q-1.3-5.2-1.85-6.15-.1-.2 1.1-.8 1.15-.65 1.4-.25.8 1.55 2.1 8.65 1.15 6.25 1.35 8.75.1 1.45-.3 1.65-.5.25-1.6-.35-5.5-3.2-13-11.3zm26.55-36.8q-.25.4-1.45-.5-1.15-.9-1-1.1 1.15-1.6 4.05-7.7 3.05-6.4 4.55-10.5-5.25 2.5-12.7 8.6l-6.55 5.65q-.4.35-1.8-.3-1.4-.7-1.05-1.05l8.1-6.55q8.85-6.6 14.65-8.65 1.45-.65 1.85-.2.25.3-.25 1.8-6.4 17.75-8.4 20.5"/><path fill="#0d131a" d="M443.35 191.4q-.5.1-.5-1.35.05-1.4.55-1.5l8.85-.4q9.35.1 14.45 2.5 1.05.55 1.05 1.1.05.5-.9 1.1-3.25 2.2-7.45 4.35-8.2 4.3-14.2 5.25-.5.1-1.7-.95-1.15-1-.65-1.1 4.6-.75 12-3.7 6.4-2.6 9.9-4.65-4.85-1.45-13.55-1.2zm-81.3-110q-60.65 36.3-102.65 54.95-23.85 10.6-35.8 13.25l-1.1-.05-.5-.2-68.95-41.05q-1-.55-1-1.15 0-.45.55-.7l.55-.15q52.5-10.25 105.35-25.65 26.5-7.7 42.85-13.5l.5-.05 64.55 3.7q.55.05.1 1.6-.4 1.55-.95 1.5l-62.2-4.2q-17 7.1-41.95 14.9-49.2 15.45-101.5 23.8l64.35 37.15.25.1h.6q14.1-4.2 38.95-15.65 40.5-18.7 96.95-51.4.45-.25 1 1.15.5 1.4.05 1.65"/><path fill="#0d131a" d="M487.35 19.7q.5.15-.7 1.3-1.2 1.1-1.75 1-5.65-1.2-23.1 2.35-19.9 4.05-46.7 12.8-23.5 7.65-65.75 18.2l-43.3 10.35q-2.25.55-3.3 1.45-.8.65-.7 1.25.1.5-.85.7-.9.25-1-.25-.1-.35-.05-1.1.05-1.1.45-1.85.6-1.3 1.55-1.95 1.15-.85 3.55-1.4l43.25-10.4q42.45-10.6 65.6-18.15 27.3-8.9 48.25-12.7 18.45-3.4 24.55-1.6M624.7 14l.8.55q.3.45.2.95l-.55.8-.95.2q-35.25-7.25-94.8 5.45-18.7 4-37.65 9.55l-15.6 4.85-.95-.05q-.5-.25-.65-.75-.2-.5.05-.95.2-.45.7-.65l15.75-4.9q19.1-5.55 37.95-9.55 60.05-12.8 95.7-5.5M341.3 121.15q.4-.35 1.25.6t.45 1.3q-16.25 15-44.8 31.85-15.15 8.95-30.25 16.45l-1.05.1-.45-.2-40.95-23.7 3.6-1.45 38.4 21.4.25.1.5-.05q50.65-28.1 73.05-46.4"/><path fill="#0d131a" d="m273.5 166.8 28.95 16.05.5.15 1.25-.3 8.9-6.45q.4-.35.4 1.75 0 2.05-.4 2.4l-8.3 6.75q-.6.45-1.45.35l-.7-.25-32.15-18.4zm220-33.95q-.05-.5 1.5-1.15 1.5-.65 1.55-.15l-.1 3.5q-.2 3.9-1.05 7.9-2.55 12.45-9.6 20.7-.35.4-1.3-.4-1-.85-.65-1.25 6.65-7.7 8.8-19.15.7-3.55.85-7.1zM284.65 305.6q1.05.5.1 3.3l-1.15 4.5q-1.3 5.65-2.1 11.25-2.55 17.95.8 29l-4.45-8.05q-1.05-9.9 1.25-22.55l2.5-10.7 1.15-3.55q1.3-3.5 1.9-3.2m166.85-78.85-3.8-3.25q0-4.6.65-8.3h4.15q-1 5.65-1 11.55m.25 6.3q.9 11.35 5.05 23.15l-3.05-1.05q-1-2.15-2.2-6.05-2.35-7.8-3.3-16.6zm4.75-36.8 2.95.2-1.6 2.6q-1.85 3.5-3.25 7.7l-3.25-1.95q1.55-3.5 3.5-6.35zm11.6 185.4q.4-.3 1.7.9 1.3 1.15.9 1.5-2.35 1.85-6.7 4.15-8.65 4.65-19.7 7.9-6.05 1.6-10 5.2-2.35 2.15-5.95 7.5l-4.8 6.55q-5.05 5.95-7.2 8.95-1.1 1.3-.35 4.05.7 2.45 2 3.75.4.45 10.9 7.5 18.6 12.5 23.05 16.1 4.4 3.55 7.75 5.1 1.95.85 4.6 1.35l1 .2 13.95 1.45q.55.05.45 1.3-.05 1.25-.6 1.2l-14.35-.75-.9-.2q-2.9-.55-5.1-1.5-3.7-1.65-8.4-5.5-4.85-4-22.7-15.85l-8.65-5.7q-3.6-2.35-4.05-2.85-1.75-1.7-2.55-5.35-.9-3.95.65-5.8 2.15-3 7.3-9.05 2.1-2.45 4.6-6.25 3.8-5.65 6.4-8 4.35-4 11-5.75 10.7-3.15 19.25-7.9 4.3-2.4 6.5-4.2m28.75 12.55q-3.8 5.2-6.75 10.55-2.8 4.9-3.15 6.75v.55q.1.65.55 1.25 5.35 7.35 15.85 20.65l4.05 5.15q1.65 1.9 2.75 4.1 1.2 2.35 1.2 3.95l-1.35.1q-1.3-.2-1.05-.65.55-1.2-3.5-5.85l-4.1-5.25-12.05-14.75q-4.8-5.75-5.3-7.4-1-3.25 11.35-20.15l1.45-1.6q1.2-1.15 1.6-.9.7.4-1.55 3.5"/><path fill="#0d131a" d="m510.35 445.9.5.25 7 6.6q7.55 7.9 12.65 16.25.35.65.05 1.2-.35.7-.95.7-16.4 1.25-34.7-1.45l-16-3.15q-.35-.1-.6-.75-.25-.6.15-1.15 2.05-3.3 4.85-6.85 5.5-7.05 10.2-9.7 4.8-2.7 11.2-2.6zm-1.35 3.15q-.5-.4-1.2-.65l-.6-.2q-6.7-.9-12.3 2.3-5.65 3.2-13.35 13.7l18.7 3.2q15.45 2.05 25.7 1.3l.85-.3q.15-.25-.3-.9-6.55-9.7-17.5-18.45m23.5-11.85q-.4-.2.05-1.15.5-1 .95-.8 5.4 2.6 8 4.15 7.25 4.3 8.9 7.75l.05.2q.95 3 1.5 10.4.1.5-.8.6t-1-.4q-1.2-6.8-2.05-9.75-1.3-2.6-7.15-6.35-4.25-2.75-8.45-4.65m-116.6-3.85q-.15-.5 2.1.5 2.25.95 2.4 1.45l1.05 5.65q1.3 6.2 2.6 9.9.35 1 .95.35l6.95-7.8q.4-.35 1.7 1 1.35 1.35.95 1.75l-9.45 8.3q-.95.8-1.5.7-.6-.1-1.1-1.25-1.35-3.25-4.05-11.95z"/><path fill="#0d131a" d="M477.75 386.9q.3-.35 1 .45.75.85.55 1.05-17.25 18.6-21.85 22.75-1.8 1.5-2.35 3.9-.35 1.5-.35 5.1l-.05 2.8q.2 5.2.95 9.25t1.8 5.65l8.7 13.25q1.6 2.3 5.5 6.35 4.2 4.4 7.15 6.55l-3.75.3q-1.9-1.3-5.7-5.15-3.9-3.95-5.45-6.2l-8.7-13.3q-1.6-2.45-2.6-8.6-.7-4.35-.85-8.05l.05-2.8q0-3.95.45-5.85.75-3.1 3.1-5.05 4.5-4.05 22.4-22.4"/><path fill="#0d131a" d="m485.3 389.05 2 .9-11.05 15.85q-2.25 3.75-2.25 7.9l.1 2.8q.15 2.25 1.35 4.55 1 1.9 2.4 3.35 2.35 2.3 8.6 10.2 7.45 9.55 8.85 13.35-1.8 2.05-2.05 1.4-1.75-4.55-8.85-13.5-5.3-6.65-8.3-9.65-4.55-4.55-4.8-9.05-.25-3.6.05-5.6.5-3.25 2.45-6.65zm-29.65 47.25q.45.25.5 1.55t-.4 1.05q-6.55-3.65-11.85-7.25-10.7-7.2-12.45-11.35-2.7-6.35 6.25-23.3.25-.45 1.3-.15 1 .25.75.7-2.75 5.25-4.6 10.7-2.75 7.95-1.4 11.05 1.4 3.25 9.75 9.2 5.9 4.25 12.15 7.8m-179.7-48.95q3.85-3.85 7.2-7.9l2.7-3.35q.25-.4 1.25.4 1 .75.85.95l-2.75 3.9-6.95 8.4q-11.75 12.65-24.15 17.9-5.75 3.5-15.2 14.7-5.25 6.25-10.55 13.5l-1.55 3.2q-1.6 3.7-3.05 7.9-1.8 5.2-2.25 8.2-.15.15 0 1.05.2 1.2 1 2.25 6 7.9 12.4 14.2 5.9 5.85 8.15 6.55l20.85 5.85q.45.1.3 1.15t-.65 1q-16.6-3.05-21.9-5.05l-.95-.35q-1.25-.35-4.4-3.05-6.35-5.35-15.65-16.75-1.95-2.3-2.6-3.85-.7-1.5-.4-2.9 3.55-12.9 5.35-17.05l1.2-2.55.55-.95q5.6-7.75 11.3-14.45 9.3-10.95 15.3-14.6 12.35-5.95 24.6-18.3m88.75-58.2q1.05-.3.55 5.15l-2.05 14q-2.85 14-7.7 18.85-4.45 4.45-12.8 10.15l-8.8 5.65q-3.2 4.45-5.95 10.85-5.1 11.8-5.1 23.5v1.7q.1 2 .45 3.7.25 1.45 2.05 5.25 1.9 4.1 4 7.25l5.15 6.7 7.2 9.5q.9 1.05 2.25 3.95 1.85 3.95 1.85 6.65l-.3 1.85q-.15.45-1-.5l-.85-1.25q0-1.85-1.4-4.8-1.15-2.45-2.25-3.85l-4.45-5.85-4.75-6.5q-4.55-5.55-7.45-10.2-3.3-5.25-3.55-7.8-.3-1.25-.3-3.45l.05-2q0-12.75 6.05-25.55 1.9-4.05 4.25-7.7l2.15-3.15.35-.3 7.45-5.15q8.3-6 12.85-10.5 4.4-4.45 7.8-18.2l2.5-13.1q.75-4.55 1.75-4.85"/><path fill="#0d131a" d="M263.65 487.2q-1.15-.35-1.1-1.35.2-2.4 1.3-5.15 2.1-5.45 6.5-8.4 14.55-10.95 20.75-11.75l1 .25 12.95 11.35q12.7 11.7 15.1 16.8.25.65-.1 1.2-.35.6-1 .6l-31.2-.95q-20.05-1.45-24.2-2.6m18.65-19.7q-1.35.9-9.75 6.95-3.1 2.3-5.15 5.25-1.75 2.55-2.15 4.5l22.45 2.4 28.25 1.75q.95 0 .35-.75-3.45-4.65-12.85-12.75L290.9 464.6q-.8-.65-1.65-.7l-.7.1q-2.3.8-6.25 3.5m45.2-12.3q-.35-.15-.3-1.75t.5-1.4q6.9 2.9 11.45 5.45 6.65 3.75 6.8 5.95.15 2.25-.65 10.3l-1.15 9.2q-.2.65-2.45-.65l.75-8.15.45-10.15v-.65q-.6-1.95-15.4-8.15"/><path fill="#0d131a" d="M321.8 385.95q.15-.4 1.75-1l1.55-.4-4.05 9.5-5.6 12.25-.4 1q-1.3 3.05-1.85 4.95-1 3.3-1 6.4 0 7.55 5.75 14.4l.8.95q5.95 7.1 7.65 9.85 1.75 2.9 1.75 5.7l-.3 3.15q-.1.55-1.1.35t-.9-.75q.6-3.65-.9-6.2-1.4-2.35-8.75-10.4l-.8-.95q-6.6-7.9-6.3-16.75.15-4.95 3-11.65z"/><path fill="#0d131a" d="m301.6 385.95 1.2-1.7q1.05-1.2 1.5-.9.55.4-1.35 3.7l-7.7 14.15-11.75 20.9q-2.75 4.65-2.75 11.6 0 6.5 2.5 12.95 2.65 6.85 7.5 11.9 7.05-12.65 10.85-12.85l12.15-.55q8.75.25 10 1.25 1.6 1.25 11.05 18.05 10.45 18.55 12.25 25.95.4 1.7-.05 2.15t-2.1.35q-19.4-1.15-26.95-3.35-.5-.15-.15-1.7t.85-1.4q4.05 1.15 12.5 2.3l12.05 1.4q1.15.15.85-1-2.35-7.1-11.35-22.35-6.9-11.6-11.25-17.75-.4-.6-1.15-.85l-.65-.15q-3.1-.3-8.6-.1l-8.85.8q-1.3.1-4.4 3.95-3.2 3.95-5.6 8.55-.3.55-.95.7-.6.1-1.05-.35-8.9-8.2-11.5-20.75-2.5-12 2.1-19.75z"/><path fill="#0d131a" d="m290.95 387.3 1.7-2.1q1.4-1.6 1.8-1.35.35.25-.45 1.85l-1.2 1.95-8.6 12q-10.35 13.7-19.75 23.15-4.5 4.7 2.1 21.35 5.5 13.95 12.5 23.3.3.45-.55 1.05t-1.2.2q-6.8-8.95-12.35-21.05-9-19.6-2.25-26.65 9.15-9.3 19.55-22.35zm-46 67.9q.45.25.15 1.65-.3 1.35-.75 1.05-9.95-6.3-14.55-14.95-1.45-2.75-2.2-5.45l-.45-2.35q-.05-.5.75-.95.75-.4.8.1l.45 2q.75 2.5 2.15 5 4.45 8.1 13.65 13.9"/><path fill="#0d131a" d="M284.15 380.05q1.2-.05 1.05.45-1.9 5.3-19.65 24.25l-18.5 19q-2.75 3.25-3.55 5.3-2.5 6.4-.2 15.85 5.8 23.8 16.35 38.95.25.45-.5 1.1-.8.65-1.1.25-12.25-17.7-17.5-39.8-2.5-10.25.35-17.35 1.25-3.05 4.45-6.5 11.15-10.6 21.5-21.5 14.45-15.25 15.95-19.5.15-.5 1.35-.5M532.5 434.9q.35.1.55.3l.05.05q4.85 5.05 13.75 15.4 10.95 12.65 15.05 18.65 1.4 2.1.95 3.05-.45.9-2.65.9l-19.75-1.35-11.55-1.4q-.5-.05-.35-1.55t.65-1.45l10.8 1.4 18.25 1.95 1.45-.25q.15-.3-.8-1.6-7.1-9.4-27.65-30.95-.6-.65-1.45-1l-.75-.25q-6-.85-9.7.15-2.3.65-4.05 1.7-1.55.95-2 1.7-.75.95-1.8 3.4l-.9 2.3q-.2.65-1.75-1.75l.85-2.2q.95-2.25 1.65-3.1.95-1.4 3.15-2.75 2.15-1.25 4.5-1.9 5.3-1.45 13.5.55"/><path fill="#0d131a" d="m456.7 233.45 7.45 11.5q8.05 13.55 11.25 24.1 3.1 8.5 4.5 11 7.4 12.55 18.8 23.1 11.35 10.55 25.55 18.15l3.35 1.85q3.55 2.05 5.2 3.55 3.2 2.85 7.55 9.2 3.3 4.85 6.65 14.1 2.3 6.3 2.85 8.8l.45 2.4q.4 2.65.4 5.05 0 4.3-1.3 6.85-2.55 5.1-11.15 10-9.7 5.55-22.6 7.85-4.9 4.25-8.5 8.35-3.55 4.1-3.55 5.4v.25q.9 1.15 4.9 4.15l7.25 5.45 7.5 5.9q6 5.05 8.5 8 2.9 3.45 2.9 6.1 0 1.2-.5 2.25l-1.75-.1q-1.55-.6-1.35-1.1.85-1.95-1.4-4.9t-8.85-8.5l-7.4-5.8q-10.15-7.8-11.8-9.95-1.55-2 1.15-6.45 2.4-3.8 7-8.05l-3 .3-1.25-.05-2.15-.05q-1.6-.1-1.75-.4-.25-.7 1.55-.95l11.55-2.05q12.55-2.55 21.25-8.1 6.9-4.35 9.05-8.7 1.4-2.7.95-7.9l-.7-4.65q-1.05-3.75-2.7-8.35-3.3-9.15-6.45-13.75-3.3-4.8-7.65-8.9l-3.55-2.9-1.6-1q-33.35-17.65-46.2-41.7-1.5-2.6-3.1-6.2-1.7-3.8-2.6-6.65-3.35-9.7-11.3-23.85l-7.3-12.2zm-27.2 128.7-9.2-4.3q2.6-1.35 5.15-2.75l7.65 4.15q9 5.1 15.8 9.8 9.25 6.35 16.3 10.05 9.05 4.8 21.2 9 4 1.45 3.55 2.1-.4.65-3.45.3-10.75-2.1-22.45-8.15-7.25-3.75-17.8-10.8-6.3-4.2-16.75-9.4M323.95 428.8l5.75 8.6 4.45 6.95q2.6 4.2 3.05 6.3.45 2.2.45 6.55l-2.3-1.15q-.2-4.1-.8-5.6-.3-2.05-6.8-12.55-6.8-10.95-7.3-12.6-.85-2.6 3.5 3.5"/></svg>