<svg xmlns="http://www.w3.org/2000/svg" width="558" height="363" viewBox="-0.35 -3.95 557.55 363.3"><path fill="#662b1f" d="M500.55 158.75q-3.85 2.7-8.6 7.7-4.1 4.35-5.4 6.45-2.2 3.6-6.95 6.7l-22.75 2.15-7.5-.95q-4.15-.8-6.25-1.6-2.2-.8-2.95-1.75-1.15-1.35-1.05-4.45.15-5.85-2.45-18.75l2.95-5.7q6.75 1.6 11.65-10.85 4.5-11.6 2.75-19.45 2.95.5 5.95-.55 2.65-1 3.2-2.3 6.6 2.45 9.85 4.05 4.9 2.35 7.75 5.2 2.9 2.9 9.9 15.25 6.1 10.75 9.9 18.85m-44 52.2q15.4-2.05 26.1 3.75 7.65 4.1 20.35 3.6 12.3-.45 25.85-5.1l7.95 9.55q4.55 6.5 3.15 10.65L527.8 242l-12.95 8.8q-4.4 1.8-14.65 4.5-11.1 2.9-16.8 3.45-5.5.55-13.45-.95-5.35-1.05-14.65-3.65l-24.9-10.6q-1-1.5-1.55-3.15-.6-1.85-.4-3.3.25-2.25 6.2-12.7 4.85-11.15 21.9-13.45m-132 73.45q3.25.2 6.55 1.8 1.95.9 4.25 4.35l3.8 6.25q1.8 2.9 2.2 5.4.45 2.4-.3 5.05-1.9 7-4.4 11.55-3.6 6.5-9.05 9.45l-36.5 12.35q-14.65 1.55-33.6-3.05-19.15-4.65-26.7-11.8l-22.3-23.1q.15-6.45 3.3-11.75 2.45-4.15 6.2-6.9 5.8 8.8 12.25 15.1 6.2 6.05 11.25 8.05l20.3 6.25q15.05 4.15 23.85 1.65 4.6-1.3 9.7-6.1l10.5-10.65 10.85-11.15q3.1-3 7.85-2.75"/><path fill="#501d10" d="M341.35 302.2q.45 2.4-.3 5.05-1.9 7-4.4 11.55-3.6 6.5-9.05 9.45l-36.5 12.35q-14.65 1.55-33.6-3.05-19.15-4.65-26.7-11.8l-22.3-23.1q23.05 14.05 48.3 18.3 21.5 3.65 42-.05 17.65-3.25 29.5-10.7 11.15-7 10.85-13.4 1.8 2.9 2.2 5.4"/><path fill="#662b1f" d="M135.55 247.8q-2.2 7.8-11.5 11.65l-34.45 7.9q-9.15.7-22.3-1.55-14.9-2.5-20.25-6.95l-23.1-20.25q.6-7.9 4.1-17.65 1.55-4.45 5.7-13.85l98.7 17.1q5.5 15.05 3.1 23.6"/><path fill="#501d10" d="M133.75 251.95q-2.95 4.75-9.7 7.5l-34.45 7.9q-9.15.7-22.3-1.55-14.9-2.5-20.25-6.95l-23.1-20.25q.25-3.15 1.75-9.55 1.25-5.45 2.45-9.35 2.05 9.2 16.9 16.55 13.45 6.7 32.85 9.85 19.05 3.1 34.95 1.45 17.1-1.85 23.25-8.65.8 8-2.35 13.05"/><path fill="#662b1f" d="M287.85 31q13-8 24.8-12.8 11.2-4.55 17.55-4.7-9.6 10.6-10.05 19.15l-25.3 36.9q-5.75 6.4-8.85 14.95-2.75 7.5-2.9 14.65l-7.7 33.8q-3.75 3.75-7.4 6.25l20.1 18.95q13.9 9.05 22.6 33.95 6.35 18.3 7.85 36.85-18.25 16.25-24.9 25.05-2.95 3.9-5.7 4.9-2.85 1-6.35-.75l-30.4-10q-5.3-1.3-8.35-4.75l-4.5-6.9q-1.95-3.2-1.9-6.7 0-1.9.9-5.7 3.3-13.65 0-30.5-2.7-13.8-10.35-32.2-25 7.55-47.15-.25-21.3-7.5-36.2-27.8-4.5 2.5-8.6 5.45-4.75 3.35-6.95 5.95-1.65 2-2.4 13-.45 6.8-.45 14.9-6.2 4.75-14.45 8.95-7.2 3.65-12.3 5.15l-5.6.3q-1.95-.55-3.5-2.4-1.75-2.15-3.7-5.6-2.3-4.2-2.95-7.3-.7-3.5-2.4-5.45-1.7-2.05-4.65-2.75l-8.35-21.65q8-13.55 15.3-22 9.4-10.9 15.85-11.05l38.35-12.9q-1.5-23.1 5.55-42.95 5.05-14.1 14.95-27.5 2.9-3.85 6.9-4 3.15-.1 7.15 2.1 8.95 4.8 20.55 8.9 15.15 5.35 32.65 8.55 19 3.5 34.65.9 14.9-2.5 28.6-10.95"/><path fill="#d3d9db" d="M459.15 42.4q2.5 1.05 4.6 5.8 2.2 5.05.7 7.85-1.35 2.6-14 7.75l-20.35 7.45q4.5 5.25 9.7 14.4 5.75 1.05 8.4 6.65 2.6 5.45 1 12.45 7.15 1.65 11.25 5.5 3.45 3.35 2.55 5.45-.7 1.6-3.35 2.35l-5.6.5q1.55 13.05-4.8 23.35-2.5 4.05-5.3 5.95-2.75 1.85-4.35.7-1.5-1.1-1.8-5.15-.2-3.25.3-11.55l-4.2 3.8q1.35 14.05-2.75 23.8-3.85 9.05-10.15 9.8-5.75.7-9.5-4.75-3.4-4.95-4.75-14.45-8.15 2.05-18.25 2.5-2.75 11.2-7.85 17.85-5.7 7.35-12.45 6.25-6.75-1.05-9.35-8.35-2.35-6.45-1.1-16.35-8.1-.7-19.75-3.6-6.45 11-12.65 14.6-5.7 3.3-11.5.6-5.4-2.5-6.4-9.65-1-6.9 2.25-16.55l-7.4-5.15q-4.1-3.2-6.3-5.5-4.85 4.35-12.4 5.9-6.45 1.3-8.65 0-9.05-5.3-3.5-17.95 2.05-4.75 5.7-9.4 3.25-4.1 5.95-6.1-.9-7.25 3.2-16.3 3.3-7.35 8.55-13.3l-39.65-13.5q-5.05-1.7-7.6-12.5-.95-3.9.65-5.75 1.35-1.6 4.85-2.05l29.15-2.1 37.5-1.35q9.7-30.4 43.5-30.95 16.45-.25 32.3 10.3 14.85 9.9 22 24.1 11.15.8 25.7 3.25 13.3 2.25 15.9 3.4"/><path fill="#db4f03" d="M425.8 73.35q6.3 4.6 8.45 13.35t-1.4 15.4q-3.4 6.4-9.95 7.65-6.05 1.15-12.15-2.4 8.1-7.95 11.7-17.75 2.35-6.4 3.35-16.25m-97.8 3.4Q333.9 88 346.2 98.4q11.8 10 23.05 13.95-14.3 6.4-30.75 2.8-15.65-3.35-21.3-12.55-4-6.45-3.35-13.75.7-7.45 6-12.85 4.5.95 8.15.75"/><path fill="#eeeeef" d="M388.05 33.8q1.05 2.3.9 4.35t-1.45 2.6q-1.3.6-2.95-.65-1.65-1.2-2.7-3.5-1.05-2.35-.9-4.4.2-2.05 1.5-2.6 1.25-.6 2.9.65 1.65 1.2 2.7 3.55m25 51.75q.55 4.05-.7 7.1-1.2 3.1-3.45 3.35-2.2.3-4.15-2.35t-2.5-6.7q-.5-4.1.7-7.15 1.2-3.1 3.45-3.35 2.2-.3 4.15 2.35 2 2.7 2.5 6.75"/><path fill="#fff" d="M324.2 83.65q2.95.15 4.55 2.8 1.25 2.05 1.3 4.6.1 2.4-1.15 4.6-1.45 2.6-4 2.7-2.65.1-4.4-2.5-1.55-2.4-1.55-5.55 0-2.75 1.75-4.8 1.6-1.95 3.5-1.85m26.1 18.3 3.15 2.35q-.4 3.1-2.75 5.25-2.65 2.4-5.35.7-2.7-1.75-2-5.45.6-3.3 3.2-5.85zm64.15 2.55q2.7-3.35 4.45-6.4 1.05 2.3 1.4 4.5.4 2.75-.75 3.6-1.2.85-2.5.3-1-.4-2.6-2m9.3-18.65q1.2-3.45 1.95-7.6 3.45 1.9 4.8 6.95 1.3 4.95-.8 5.85-3.2 1.45-5.95-5.2"/><path fill="#d3d9db" d="M170.6 62.1q2.5 1.7 2.1 5.75-.3 3.35-2 5.65-1.55 2.1-4.25 3.1-3.2 1.1-5.65-.55-2.5-1.65-2.2-5.4.3-3.25 2.35-6 1.75-2.35 4.85-3.05 2.95-.75 4.8.5m31.35 30.55q-5.1 3.95-12.5 4.2-7.85.25-11.1-4.2-3.65-4.95-1.75-12.2 2-7.85 9.4-12.55 7.1-4.55 13.75-3.6 5.6.75 8.5 4.8 4.2 5.85 1.55 13.15-2.25 6.05-7.85 10.4m47.95 47.45q5.05-5.05 14.25-2.1 7.8 2.5 15.65 9.5 7.25 6.4 9.85 15.75 2.6 9.1-1.4 12.9-3.7 3.5-13.25.85-8.8-2.5-15.3-7.8-7.05-5.8-10.5-14.85-3.75-9.75.7-14.25M105.55 98.65q6.85-4.25 14-4.8 7.25-.55 13.2.85 7.85 1.8 8.1 6.35.3 4.75-6.45 8.65-5.75 3.35-13.5 4.65-7.65 1.35-14.4-.15-7.75-1.7-8-6.3-.3-4.75 7.05-9.25m-38.2 43.25q9-1.7 10.8 6.4 1.55 7.05-2.45 15.25 3.35.75 5.3 3.65 1 1.6 2.1 5.1.8 2.55 2.15 5.55 1.6 3.45 3.2 5.85 1.8 2.7 3.65 3.35l6.4-.3q4.25-1.1 12.7-5.6 7.9-4.25 14.05-8.5V167q6.65 3.1 7.85 7.2.65 2.3-.6 6.85-3 11 5.1 37.6.8 2.55-.7 4.2-1.2 1.3-2.7 1.3-1.95 0-6.65 2.25l-6.65 4.55-7.6 5.55q-2.5 1.7-4.65 1.7-1.75 0-3.7-1.15-6.2-3.5-9.3-6.85-1.85-1.95-4.3-2.8-2.1-.75-3.7-.4-2.8 7.05-7.6 7.8-2.8.4-6.1-2.8-3.25-3.2-4.7-7.65l-6.9 1.15-7.55 2.05q-3.65 1.05-6.15 0-1.85-.8-4.45-3.6-2.65-2.8-6-7.9-3.8-5.7-4.45-8.45-1.95-8.2 2.4-18.6 2.5-6 8.2-14.45.15-9.75 6.65-19.85 7.1-11.05 16.35-12.8m-55 102.45q5.25-3.15 8.85-4.65 3.45-1.45 5.65-1.6 2.3-.15 5.35.85 4.65 1.5 10.1 4.8 5.05 3.05 8.5 6.2 2.95 2.65 1.15 5.2-1.35 1.85-4.75 3.2l-10.3 3.15q-8.2 2.25-12.85 2.9l-6.25.2q-2.35-.2-4.75-1.15-2.35-.9-4.35-2.05l-5.15-3.65q-2.75-2.1-2-4.35.45-1.35 2.55-3.25 2.75-2.45 8.25-5.8m96.95 7.5q4.7-.35 6.35.05 2.95.6 5.45 3.6 5.9 7 11 21.25 1.25 3.55-1.2 5.55-1.65 1.3-5.65 2.25l-7.2.35q-4.5-.6-8.35-2.85-4.2-2.45-10.9-7.4-6.8-5.1-10.2-8.35-3.05-2.95-1.95-5.6.85-1.9 4.05-3.9 2.45-1.5 8.75-3.1 5.9-1.55 9.85-1.85m216.7-27.9q1.95 3.9.95 14.25-.85 9.1 3.35 22.9 3.6 11.75 7.3 17.15 2.65 3.9 1.8 7.85-.5 2.2-2.95 6.25-1.95-3.35-4-4.8-1.8-1.3-6.25-2.65-3.8-1.15-7.2.7-2.05 1.15-5.3 4.45l-7.55 7.85q-6.4 6.7-12.6 12.65-5.4 5.2-14.4 5.5-6.4.2-17.3-2.25-2.35 6.95-5.9 7.2-4 .3-8.45-4.2-4.2-4.25-6-9.65-8.15-4.3-14.55-11.2-2.95-3.25-8.25-10.65-2.75-3.9-1.35-8.35.7-2.35 3.85-7.25-3.7-5.4-4.85-12.35-.8-5.1-.3-11.95.45-5.65 5.2-11.75 4.85-6.25 10.2-7.8.85-1.35 2.5-2.7 1.95-1.65 3.75-2.05-1.8 7.05-.6 11.8.75 3.05 3.65 7.2 2.3 3.3 5 5.3t5.25 2.3q-.85-6.9 1.2-15.4 2.6-10.85 8.5-11.6 9.7-1.2 16.25 13.8 5.7 12.95 4.65 23.65 4.7 2.85 8.9-.45 1.85-1.45 5.9-7.15 2-2.8 9.8-10.3l12.4-11.75q.15-2.15-.25-5.15l-.7-4.7q6.5 1.55 8.35 5.3m-103.1 79.6q3.95 2.25 8.9 5.55 6.2 4.25 9.15 7.15 3 3 1.05 5.6-1.6 2.15-5.6 3.15l-14.7 2.35-18.35 2q-6.25.5-11.25-2.55-3.15-1.9-6.45-5.8-2.05-2.5-.95-5 .9-2 4-4.3 2.45-1.8 9.5-4.75 5.65-2.4 11.2-4.35 4.3-1.5 7.35-1.25 2.75.25 6.15 2.2m115.65 44.6q2.2 4.3-1.25 5.95l-8.6 2.25q-4.9 1.3-7.65 1.05-2.8-.2-6.05-2.2l-12.4-7.45q-9.95-6.05-14-9.25-4.4-3.55-3.3-6.75.9-2.65 5-4.5 7.5-3.25 14.35-4.75l10.75-1.5q3.25-.3 5.6.8 2.35 1 4.65 3.75 3.4 4 12.9 22.6m159.15-194.8q7.05-.4 9.95 4.05 1.8 2.8 1.8 7.45 8.95 3.45 14.05 13.6 4.8 9.6 3.5 19.35 3 2.15 3.9 6.55t-1 7.15q-4.65 6.65-12.3 10.1-5.2 2.4-13.1 3.6-5.7.9-12.8-.25-6.55-1.1-9.55-3-5.8-3.8-11.5-4.6 1.95 5.7 2 11.75.1 7.85-4 8.55-5.1.9-10.1-5.3-4.75-5.9-7.3-15.55-2.5.6-4.85 1.8-2.8 1.45-7.6 4.8-4.45 3.1-5.7-.05-.9-2.3-.15-6.55 2.25-11.55 2.15-18-.05-6.55-2.5-14.2-1.85-5.75 1-9.8 2.05-2.95 5.4-3.9-.35 4.15 1.5 6.35 1.3 1.5 4 2.4 3.05 1.05 12.25 1.85-1.6-4.6-.85-8.9.7-4.1 2.85-5.35 5.05-3.05 11.4 1.6 4.7 3.4 9.45 10.45 3.15-1.05 8.8-8.8 1.85-2.6 5-5.7 3.35-3.4 6.9-6.15zm45.7 82q5.85 4.1 10.6 9.2 1.8 1.9 1.25 3.85-.4 1.4-2.1 2.9-2.65 2.4-6.15 3.3l-7.6.6q-4.45-.25-13.35-1.95-9.4-1.8-13.25-3.3-4.1-1.55-4.5-3.8t3-5.1q2.95-2.5 10.45-5.05 5.2-1.85 10.15-2.95 3-.7 6.15 0 2.95.6 5.35 2.3m-13.6-23.45q6.85 1.35 11 3.65 3.8 2.1 3.9 4.05.15 3.45-7.4 4.35-1.3-2.25-3.9-5.5l-4.55-5.25zm-79.15 29.5q4.15 1.35 7.65 3.35 5.8 3.35-1.15 8.1-3.95 2.75-16.5 6.55-4.15 1.25-8.2 1.25l-6.5-.65q-2.85-.5-3.7-1.95-.85-1.4.15-3.9.95-2.35 4.3-6.25 3.2-3.65 6.25-6.15 4.55-3.75 10.8-2.25z"/><path fill="#595757" d="M437.75 131.45q-.25 6.05.25 10.9.55 5.1 1.7 6.65-6.85 11.75-9.8 15.5l-1.05-.65q6.95-10.45 4.6-28.2zm-80 20.5q-1.1 8.15-.1 13.1 1.7 8.8 9.5 11.2 12.85 4 21.35-23.7 7.4.15 18.25-2.5 1.55 11.75 6.9 16.85 6.05 5.75 13.75-1.35l.85.85q-15.35 23.5-46 41.35-28.65 16.7-55.15 20.05-.15-7.1-9.45-9.15-5.25-24.15-10.35-35.6-6.75-15.25-19.2-24.9-3.15-6.35-8.75-11.2-3.75-3.2-11.35-7.75l7.4-6.25q5.45 1.3 11.55-1.15 4-1.65 9.1-5.4 2.4 2.65 7.1 6.15l7 4.95q-2.7 7.05-3 12.7-.5 10 6.7 13.35 7.8 3.65 14.7-2.65 2.6-2.4 9.45-12.55 4.95 1.7 19.75 3.6"/><path fill="#f9be00" d="M114.9 133.35q1.7 2.7 3.05 6.7 1.15 3.45 2.75 9.9 1.3 5.35-1.05 9.35-1.4 2.4-4.55 4.75-1.85 1.35-3.55 1.3-1.25-.05-3.3-.95-4.7-2.15-6.9-6.15-1.9-3.5-1.75-7.95.1-3.8 2.75-9.6 2.4-5.3 4.65-7.7 1.95-2.1 4.35-1.9 2.3.2 3.55 2.25m152.5 53.6q1.7 4.35 5.4 9.2 1.25 1.65.35 5.05-.9 3.2-2.5 4.5l-9.75 8.15q-2.7 1.9-4.75 1.7-2.1-.15-4.1-2.45-5-5.65-5.25-11.9-.1-3.45 3-9.5 3.05-5.95 6.2-8.75 3.05-2.65 6.45-1.4 3.25 1.2 4.95 5.4m-115.15-92.4-9.35 1.3q-2.25-2.35-2.85-5.95-.5-2.95.15-5.8.55-2.55 2.95-4.65 2.5-2.15 4.6-1.5 5.75 1.8 9.55 2.35 2.7.4 4 1.65 1.85 1.7-.75 4.3zm92-40.75q2.6 3.1 3.1 7.55.45 3.8-1.9 7.55-2.45 3.9-7.5 7.1-5.8 3.65-10.45 1.05-2.8-1.55-8.5-8.65-5.45-6.8-10.8-9.4-5.15-2.5-3.05-7 1.2-2.65 5.95-5.6 1.95-1.2 3.55-1.3 1.95-.1 4.75 1.3 4.85 2.45 15.7 3.05 5.85.35 9.15 4.35m-.15 38.6q2-1.5 5.6-1.25 4.05.25 6.65 2.85 3 3 5.25 8.85.9 2.4.25 5.1-.8 3.15-3.85 7.35-1 1.4-2.45 1.3-1.2-.1-3.15-1.3-4.2-2.6-14.15-3.75l-13.45-.75q-3.9 0-5.85-1.4-1.65-1.15-2.1-3.45-.45-2.15.5-3.9 1.1-1.9 3.65-2.8 5.3-1.85 13.2-2.5 4.85-.45 9.9-4.35"/><path fill="#3e3a39" d="M364.7 175.3q3.8 2.1 7.7 1.2 4.5-1 8.1-5.95 14.35-4.9 28.1-11.7 2.25 7.25 6.75 9.5 2.75 1.35 6.2.7Q432.9 167 434 144.15l4.1-2.8q-.3 2.6.25 4.95.55 2.2 1.45 2.75-18.35 33.15-50.1 54.3-28 18.65-62.3 25.5-.2-4.75-3.35-7.55-2.55-2.3-6.4-2.85-1.9-10.55-5.55-22.1-2.45-7.85-6.45-18.1 32.05 2.65 59.05-2.95m-184.75-14.45q23.15 7.7 47.6.75 9.2 22.25 11 38.9 1.1 10.5-.9 22.3-39.6-12.6-65.7-40.45-21.55-23.05-28.05-49 12.65 19.7 36.05 27.5"/><path fill="#501d10" d="M164.6 123.25q12.45 11.45 31.2 22.15 11.3 6.5 31.75 16.2-25.25 6.45-47.95-1.05-23.1-7.6-35.7-27.2 12.65-7.25 20.7-10.1m314.85-.35q-10.25 4.8-20.65 14.5-13.75 12.8-20.45 28.4-.85-6.4-2.05-10.85l1.75-3.25 1.75-2.65q3.25.55 7-3.9 4.15-4.9 6.25-13.2.8-3.15 1.1-6.85.35-3.95-.1-6.4 2.35.3 5.5-.55 3.2-.95 3.95-2.25 8.45 1.95 15.95 7"/><path fill="#f9be00" d="M482.45 127.4q5 6.45 8.3 12.8-1.25 4.3-5.25 6.85-1.4.95-3.25.8-2.15-.2-3.4-2.05-1.9-2.9-7.8-7.15-7-5.1-8.65-6.75t-1.55-2.8q.1-.9 1.55-2.4 3.35-3.35 8.7-3.2 5.45.15 11.35 3.9"/><path fill="#d7a400" d="M462.4 126.7q2.5-2.45 6.1-3.05 3.65-.55 7.9.85-6.45 3.55-12.65 8.65l-1.35-1.25q-1.65-1.65-1.55-2.8.1-.9 1.55-2.4"/><path fill="#501d10" d="M457.85 244.1q-3.05-1.55-8.4-3.1-5.2-1.55-8.15-1.85-5.05-.55-10.65 4.35-1.65-2.15-2.05-4.4-.45-2.6.75-4.9 1.7-3.2 5.5-9.3 2.05.35 4.5-1.55 6.8 5.25 18.5 8.3 6.1 7.5 10.6 6.15 1.75-.5 2.65-1.45.85-.85 1.15-2.25 29.15 2.6 64.75-10.7 1.5 2.25 2.3 4.75.85 2.7.55 4.75l-5.2-.25q-2.5.3-6.55 1.35-5.7 1.55-11.35 4.2-7.75 3.6-8.2 6.45-.2 1.05 1.65 3.05 2.1 2.3 4.8 3.2l-15.4 4.8q-9.55 2.75-13.1 2.65l-13.05-.5q-10.25-.9-17.7-3.9 4.1-2.3 5.1-4.8 1.15-3-3-5.05"/><path fill="#f9be00" d="M484.4 227.9q1.85-2.05 3.65-3.45l11.75 1 11-1.15q2.5 3.55 2.75 5.4.2 1.75-1.35 3.45-1.85 2.05-4.7 4.5-3.55 3-6.1 4.3-5.5 2.9-8.85.4-2.3-1.8-7.95-5.05-2.05-1.2-2.5-2.9-.35-1.1 0-2.9.25-1.25 2.3-3.6"/><path fill="#d7a400" d="M484.6 237.3q-2-1.25-2.5-2.8 14.8 0 31.45-3.95-.15 1.3-1.35 2.6-1.85 2.05-4.7 4.5-3.55 3-6.1 4.3-5.5 2.9-8.85.4-2.3-1.8-7.95-5.05"/><path fill="#adb2b4" d="M449.85 241q4.6 1.45 8 3.1 5 2.4 2.75 6.05-1.95 3.2-7.5 5.15 1.3-4.35-5.05-8-6.45-3.75-16.45-4.25 3.25-2.75 5.6-3.55l5.05-.35q2.75.3 7.6 1.85m-16.15-14.75-3.45 6.55q-1.25 2.6-2.05 5.4-10.55-1.55-10.05-5.15.25-2.05 5.15-4.05 4.5-1.85 10.4-2.75m98.2 6.8 7.15.2q2.1.7 4.6 2.85-13.6 5.3-17.4 9.9-2.7 3.3-.6 7.2-10-1.25-14.15-3.9-2.75-1.8-2.75-4.1 0-3.95 9.3-7.85 6.25-2.6 13.85-4.3m-92.1-10q-3.45 2.6-5.7 1.45-1.2-.6-1.65-2.55-.5-2.2.3-5.4 1.3-5.25 2.3-20.15.2 8.4 3.05 14.55 3.05 6.7 7.95 7.6zm13.95 2.8q5.5 4.75 11.1 2.3 6.15-2.75 5.05-12.65 2.8 7.95 2.85 14 0 6.55-3.35 7.95-2.8 1.15-6.9-1.3-5.05-3.05-8.75-10.3m31.9-28.95q.4 7.05-4.85 8.6-3.8 1.15-10.35-3.7-7-5.1-10.4-12.6 7.6 6.65 15.25 5.95 7.85-.7 7.6-8.8 2.5 5.85 2.75 10.55m-34.35-87.95q3.3 2.65 6.05 3.55l5 .3q1.3 2.15-.35 3.85-2.05 2.1-7.95 2.05-.65-5.65-2.75-9.75m-1.65 32q-4.4 8.35-9.85 8.1-1.35-.05-1.75-5.8-.35-5.4.4-10.85 3.8 3.25 8.75.75 4.8-2.45 7.4-8.55-1.15 9.2-4.95 16.35M430.6 161.2q-3.3 6.55-9.05 7.85-9.45 2.15-14.05-14.25 5.8 4.45 14.35 1.3 9.05-3.35 12.05-12.85.15 11.1-3.3 17.95m-73.25-6.2q3.1 9.15 12.65 10.25 9.35 1.15 16.6-6.25-2.4 8.3-8 13.45-5.95 5.55-11.95 3.65-4.85-1.55-6.8-4.7-3.15-5-2.5-16.4m-50.3-3.9q0-5.85 2.85-13.35-.3 10.15 6.55 15.2 7.45 5.45 18.5-.05-5.8 7.85-11 10.5-6.1 3.05-11.6-.8-5.25-3.7-5.3-11.5m-22.45-19q-8.55 2.65-12.7-1.2-3.5-3.2-2.25-10.25 1-5.75 4.15-10.65-1.5 8.55 6.05 13.55 7.85 5.2 18.05 1.05-5.85 5.25-13.3 7.5m-36.45 20.25q4.8 7.05 12.05 11.2 6.55 3.8 13.25 4.25 6.5.45 10.35-2.35 4.1-2.95 3.5-8.55 4.5 6.2 3.6 13.3-1 7.6-8 8.15-8.65.7-19.15-6-12.05-7.75-15.6-20M252.5 253q2.75 4.6 7.15 7.05 4.25 2.4 8.65 2.05 10.35-.85 12.5-13.45 1.85 9.4-1.05 18.4-2.9 8.9-7.65 9.3-5.25.5-10.85-5.45-6.35-6.75-8.75-17.9m-36.1 6q-1.65-7.65.05-14.15 1.25 5.2 4.35 7.9 3.1 2.65 6.1 1.2l-2.85 8.4-2.7 6.8q-3.35-2.8-4.95-10.15m30.65 57.3q-5.25-5.8-7.65-18.3 3.05 7.9 10.35 9.8 6.85 1.8 12.25-2.55.5 6.7-1.05 11-1.65 4.7-5.2 4.55-4.8-.2-8.7-4.5m103.45-19.9q8.85 4.45 8.1 8.15-.45 2.15-5.85 3.45-5.3 1.25-11.75.8 1.35-4.85.55-6.95l-2.05-4.35-3.55-6.1q7.05 1.25 14.55 5m-215.75-64.45q8.45 3.35 12.9 5.9 7.15 4.1 6.5 7.2-.6 3.05-7.35 3.9l-11.45.45q1.05-3.95 1-7.6-.1-4.15-1.6-9.85M85.2 231q-3.2 4.8-6.85 3.6-4.55-1.5-7.5-6.9-3.65-6.6-3.1-16.85 2.1 9.55 8.85 13.55 7.1 4.2 11.85-3.3-.35 5.45-3.25 9.9m-38.55-67.25q.3 5.1 3 8 2.6 2.8 6.8 2.95 9.5.3 19.25-11.15-5.05 11.15-11.45 16.8-7.15 6.25-14 3.7-3.5-1.25-4.95-5-2.1-5.6 1.35-15.3m93.55-59.6q-1.95 4.15-8.65 7.2-8.2 3.7-17.9 3.75-9.6.05-12.5-3.4 10.05 2.25 22.45-3.5 12.15-5.65 12.9-12.25 5.9 3.45 3.7 8.2m35.8-19.6q6.2 5.45 16 4.3 10.55-1.25 18.15-9.8-.95 7.3-6.9 12.5-5.65 4.95-12.65 5.55-6.5.55-10.95-3.4-4.25-3.9-3.65-9.15m-13.1-7.8q-2.9-.55-3.85-2.5-1-2-.15-6.2 1.6 3.45 5.25 4.1 4.15.75 8.4-3-.95 3.9-3.9 6.1-2.8 2.1-5.75 1.5m185.05 13.5q9.75 9.2 21.3 14 12.3 5.1 24.25 4.1 13.1-1.1 24.05-9.45-4.7 8.2-12.45 12.3-11.35 5.95-28.55 3.05-10.25-1.7-22.45-9.8-16.05-10.7-26.3-27.8-6.55.2-31.2-6.95-23.05-6.7-40-13.25-3.15-1.2-4.55-2.65-2.45-2.5-3.4-7.6 2.55 2.95 4.85 4.7 2.3 1.7 5.1 2.7 9.8 3.55 33.8 9.25 27.6 6.5 40.25 7.25 5.65 11.15 15.3 20.15m25.2-32.5q-5.2-8.5-5.45-15.55 6.7 13.8 17.75 18.35 10.8 4.45 17.6-2.95-1.4 8.3-4.15 11.6-4 4.75-11.8 1.5-8.1-3.35-13.95-12.95m52.4 5.8q8.75-.55 19.95-2.8 13.7-2.85 19.05-6.3-.85 2.65-6.55 5.7-4.05 2.2-14.45 6.25-11.95 4.65-18.3 6 .4-1.4.45-4.2z"/><path fill="#adb2b4" d="M315.3 83.2q-4.7-2.1-14.85-.25-10.1 1.8-15.95 5.7 1.4-5.45 4.1-10.2 2.2-3.95 6.2-8.9 9.85 2.85 25.05 6.25l-2.25 3.5q-1.65 2.4-2.3 3.9m210.75 105.95q.85 4.9.5 7.9l-5.4-3.35q3.1-4.75 2.55-13.1 1.5 3.75 2.35 8.55m-197.5 68.25q5 14.75 9.05 21.05 2.3 3.65 1.75 7.4-.45 2.7-2.7 6.5-1.25-2.25-3.7-4.35l-4.4-3.15q2.2-4.65 2.25-10.7.05-6.5-2.25-16.75m-10-28.5q.15-4.65-.75-10.05 4.15.55 5.75 2.3-1.7 3.75-5 7.75m5.85-207.2q2.9-4.7 6.5-8.25-2.95 5.35-4.4 10.75-1.45 5.45-1.1 9.95-1.45-1.85-5.45-1.85.9-4.95 4.45-10.6m175.9 136.95-2.6-5.3q2.2-.4 4.85.35t3.65 2q-3.25 1.45-5.9 2.95m-375.05 14-.05-5.9 3.8 2.4q-1.9 2.2-3.75 3.5m408.4 46.25 3.3.9q4.3.65 9.15-.65-.3 1.05-1.55 2.2-2.45 2.3-7.15 2.75z"/><path fill="#0d131a" d="M340.1 94.4q1.5 2 1.5 4.8t-1.5 4.8-3.6 2q-2.15 0-3.65-2t-1.5-4.8 1.5-4.8 3.65-2q2.1 0 3.6 2m82.9-4.1q1.45-.05 2.5 1.4 1.1 1.45 1.15 3.6.1 2.1-.85 3.65t-2.4 1.6q-1.2.05-2.2-1-.95-1.05-1.3-2.7zm-57.6-57.85q1.65-10.15 8.1-12.3 6.6-2.2 14.95 3.9 8.65 6.25 12.8 17.1 3.85 10.1 2.85 19.15-1.05 9.6-7.25 12.25-6.3 2.7-14.3-2.4-8.35-5.3-13.6-16.2-5.25-10.95-3.55-21.5m33.55 9.35q-3.9-10.2-11.65-16-7.35-5.5-13.1-3.6-5.15 1.7-5.95 11.6-.8 9.95 3.65 19.2 4.8 10 12.1 14.95 6.95 4.7 12.1 2.5 4.55-1.95 5.55-10.05 1.1-8.6-2.7-18.6M115 93.85q9.5-1.95 17.3-.25 8.05 1.75 9.45 6.6 1.35 4.8-4 9.3-5.4 4.45-14.55 6.1-10.65 1.85-17.75-.05-7.05-1.9-8.1-6.95-.95-4.55 4.5-8.9 5.2-4.2 13.15-5.85m16.35 1.75q-7.35-1.4-15.85.35-7.05 1.45-11.85 5.2-4.8 3.7-4.1 7.15.75 3.9 6.95 5.05 6.1 1.1 16.1-.7 8.55-1.5 13.5-5.35 4.5-3.45 3.6-6.7-.95-3.6-8.35-5m-68.7 46.65q7.15-3.3 12.5-.05 5.3 3.2 4.65 11.65-.55 7.55-5.4 16.25-5.45 9.8-13.3 13.75-7.5 3.75-13.3.45-4.3-2.45-4.3-10.6.05-8.35 4.85-16.9 6.05-10.8 14.3-14.55M74.1 144q-4.1-2.55-10.6.75-7.55 3.8-13.05 13.5-4.55 8.05-4.8 15.4-.25 6.9 3.25 8.9 4.3 2.45 10.7-.8 7.15-3.65 12.3-12.85 4.35-7.8 5.25-14.7 1-7.7-3.05-10.2m96.75-82.5q2.55 1.3 3.05 4.7.55 3.65-1.7 7.05-1.95 3-5.05 4.15-3.35 1.25-6.4-.45-2.6-1.45-3.15-5.05-.5-3.7 1.55-6.9 1.95-2.95 5.25-4 3.4-1.05 6.45.5m-4.7 13.85q2.4-1.05 4.05-3.5 1.8-2.75 1.55-5.55-.2-2.6-1.8-3.45-2.2-1.05-4.7 0-2.4 1-4.1 3.55-1.65 2.55-1.45 5.4.2 2.65 1.75 3.5 2.1 1.15 4.7.05m24.4 22.75q-8.05.35-12.65-4.35-4.85-4.9-2.75-13.2 1.95-7.7 7.95-12.45 6.8-5.4 14.6-5.05 7.05.3 10.85 4.8 4.35 5.15 3.15 12.5-1.25 7.3-7.2 12.3-6 5.05-13.95 5.45m7.25-32.65q-7 0-13.25 4.95-5.85 4.6-7.15 11.75-1.25 6.7 2.2 10.1 4.05 4 11 3.3 6.7-.65 11.9-5 5.5-4.65 6.8-10.85 1.3-6.25-2.35-10.7-2.85-3.55-9.15-3.55m66.8 70.35-3.8-3.2-2.05-5.85q-1.35-3.45-3.6-6.8-1.35-1.95-.7-2.25.6-.3 2.1 1.55 4.75 5.7 8.05 16.55m71.65-19.3q6.55 2.35 7.5 11.65.85 8.75-3.4 18.15-5.25 11.6-13.2 16.75-7.3 4.7-13.3 2.1-4.7-2-6.8-8.35-3.2-9.5 3.35-23.7 3.7-8 10.75-13.15 8-5.95 15.1-3.45m1.65 28.45q3.85-8.5 3.3-16.35-.6-8.1-5.55-9.9-5.9-2.15-13 3.3-6.3 4.85-9.75 12.3-4.6 10.05-4.05 18.2.5 8.15 5.85 10.35t11.85-2.65q6.7-5 11.35-15.25m109.35 94.1q6.85 1.75 11.7 4.65 3.2 1.9 3.5 4.5.35 2.9-3.6 5.05-3.2 1.75-9.45 4.1-7.25 2.7-11.9 3.6-8.05 1.55-13.75-.35-5.7-1.85-1.9-8.55 1.95-3.45 6.15-7.7 5-5.05 8.65-6.15 3.4-1.05 10.6.85M458 245.7q-4.6-2.75-10.85-4.4-6.55-1.75-9.65-.8-3.3 1-8.15 6-4.35 4.5-5.5 7.2-.85 1.8-.45 2.8.35.95 2.15 1.55l4.4 1 7.35-.55q4.65-.9 10.85-3 5.85-2 8.75-3.55 2.55-1.4 2.9-3.2.3-1.8-1.8-3.05"/><path fill="#0d131a" d="M421.65 87.4q6.4-20.25-1.4-42.35-8-22.75-27.9-34.25-19.8-11.45-42.15-6.35-11.65 2.65-19.3 10.35-7.1 7.15-9.9 17.7h-2.35q2.95-11.55 10.7-19.6 8.15-8.45 20.15-11.3 23.55-5.55 44.4 7.05 20.3 12.3 28.65 35.95 8.55 24.2 1.6 45-6.85 20.6-24.55 25.25-19.2 5.1-37.85-3.95-18.25-8.85-33.3-29.8l-2.7-4.05 3.1-.6 2.25 3.35q14.55 20.3 32.2 28.65 17.55 8.3 35.6 3.55 16.3-4.3 22.75-24.6"/><path fill="#0d131a" d="M334.25 52.05q1.4 7.8.7 14.45-.75 7.25-3.85 10.6-3.5 3.8-38.4-6.95-30.85-9.5-40.1-14.3-1.75-.9-3.55-4.2-1.8-3.25-2.5-6.95-1.85-9.4 4.6-10.1L290.7 32q29.3-1.4 32.3-.5 3.8 1.2 6.95 7.2 2.9 5.55 4.3 13.35M329.7 74.8q4.75-6.05 1.4-22.75-1.4-6.95-3.75-11.95-2.5-5.35-5.1-6.15-2.8-.85-31.15.5l-39.5 2.9q-4.05.6-2.15 7.95 1.8 7.1 4.85 8.7 9.8 5.1 40.45 14.15 32.55 9.65 34.95 6.65m129.6-33.7q4.15 2.1 6 8.15 1.75 5.95-.8 8.45-2.75 2.65-17.75 8.7-13.9 5.65-21.15 7.5l-.45-2.25q7.2-1.8 20.85-7.35 14.3-5.8 16.3-8.05 1.7-1.9.1-6.45-1.55-4.4-4.25-6.15-1.65-1.1-14.9-3.35-13.55-2.35-24.95-3.4l-1.6-2.45q10.8.8 26.5 3.4 14.35 2.35 16.1 3.25"/><path fill="#0d131a" d="m425.3 74 1.8-1.7q8.2 7 9.1 18.55.85 11.25-5.5 17.25-3.55 3.3-9.4 3.35-5.65 0-11.1-2.95l1.7-1.7q3.8 1.85 7.45 2.15 5.65.5 9.5-3.1 6.2-5.8 4.9-16.15-1.3-10.15-8.45-15.7m-56.95 38.1 2.75 1.4q-5.95 2.9-15.5 3.65-10.1.8-19.3-1.35-10.5-2.4-16.65-8.05-7.1-6.55-7.35-16.55-.1-4.35 1.7-8.55 1.8-4.15 4.85-6.7l2.5.45q-3 2.7-4.6 6.45-1.65 3.9-1.55 8.15.45 17.15 21.15 22.3 8.15 2 17.4 1.55 8.6-.45 14.6-2.75m-57.7 24.2-1.3 2.55q-8-4.6-14.75-11.35l2.4-1.65q5.65 5.75 13.65 10.45m47.45 14.35-.35 2.75q-12.9-1.55-20.35-3.45l1.05-2.7q9.4 2.35 19.65 3.4m33.65 3.25-3.6.25.75-2.95 2.7-.2q8.35-.7 14.95-2.35l.4 2.8q-7 1.75-15.2 2.45M437.9 129l.15 3.75q-1.95 2.55-4.5 5l-.3-2.95q2.6-2.65 4.65-5.8"/><path fill="#0d131a" d="M439.45 87.5q-3.95-8.55-10.65-15.65l2.65-.55q6.75 7.75 10.7 16.2 3.95 8.4 4.7 16.7l-2.95.1q-.7-8.55-4.45-16.8m-155.8-2.75q3.15-8 9.75-15.35l2.4.9q-11.5 13.95-11.35 27.95l-3.35 2.15q-.55-7.85 2.55-15.65m-36.1-43.2.1 2.95-2.8.05q-15.1 0-34.7-4.85-22.1-5.5-39.45-14.9-4.6-2.5-7.55-1.75-2.45.6-5.25 4.05-9.85 12.25-15.55 30.05-6.45 20.3-4.35 39.65l-3.15-1.5q-1.7-20.3 4.65-40.45 5.6-17.75 15.45-30.05 3.3-4.05 6.7-4.9 4.25-1.05 10.2 2.15 17.2 9.35 38.9 14.75 19.25 4.8 34.2 4.8zm84.3-29.75-2.45 2.75q-6.4.35-14.7 3.95-4.35 1.9-16.2 8.15l-13.4 7-7.85.4q6.5-2.8 19.6-9.8 10.75-5.75 18.2-8.6 9.75-3.7 16.8-3.85"/><path fill="#0d131a" d="M296.35 91.85q8.45-.9 12.45 3.75 3.95 4.5 1.45 13.1-2.45 8.5-9.85 16.05-7.6 7.75-17.35 9.35-9.2 1.55-12.7-3.25-3.45-4.65-1.5-12.95 2.1-9.1 9.85-16.85 8.15-8.15 17.65-9.2m10.85 5.05q-3.35-3.8-10.8-2.5-8.25 1.45-15.6 8.75-7.45 7.45-9.55 15.2-1.95 7.1 1.2 11.3 2.85 3.8 10.8 2 8.4-1.9 15.25-8.85 7.55-7.7 9.7-15.7 1.85-7.05-1-10.2m73.4 26.8q6.3 1.4 8.9 10.75 2.4 8.55.45 17.9-2.8 13.15-9.5 20.15-6.4 6.65-13.45 4.9-6.5-1.55-9.4-9.6-3.4-9.35.2-23.4 2.45-9.5 8.4-15.6 6.7-6.8 14.4-5.1m-.65 2.25q-6.5-1.55-12.2 4.9-4.95 5.55-7.15 14.2-3.05 12-.6 20.8 2.25 8.1 7.7 9.4 5.6 1.3 10.95-4.45 6-6.5 8.7-19.35 1.8-8.45-.15-16.15-2.1-8.15-7.25-9.35m39.35-8.2q5.95-.25 10.5 5.9 4.8 6.45 5.35 16.95.7 13.85-4.25 22.35-4.5 7.7-11.4 7.8-6.1.1-10.25-7.3-4.1-7.3-4.35-18.2-.25-9.75 3.1-17.7 4-9.5 11.3-9.8m.05 1.65q-5.7.15-9.05 9.55-2.8 7.75-2.6 16.3.2 11 3.8 17.4 3.3 5.75 7.95 5.75 6.15 0 10-7.35 4.1-7.8 3.5-20.2-.5-10.05-5-16.2-3.95-5.4-8.6-5.25m28.25-15.6q4 2.9 6.25 8.65 2.7 6.75 1.75 14.95-.9 7.85-4.65 14.25-3.35 5.7-7.35 7.85-2.2 1.15-3.95.6-1.7-.6-2.25-2.6-1.55-6.3-.2-21.4 1.4-15.6 4.45-21.3 2-3.9 5.95-1m1.6 36.55q3.15-5.7 4-13.2t-1.15-13.55q-1.7-5-4.85-7.85-2.3-2.1-3.45.45-2.45 5.8-3.9 19.7-1.4 13.15-.65 19.5.25 2 1.1 2.45.9.45 2.6-.55 3.5-2 6.3-6.95"/><path fill="#0d131a" d="m440.05 86.55-.5-2.3q7.2 1.6 10.1 8.65 2.7 6.55.6 14.3l-2.3-1.75q1.55-7-.7-12.35-2.2-5.35-7.2-6.55m1.7 62.8q-12 22.05-30.9 39.65-19 17.6-42.2 28.25-17.15 7.9-41.7 12.45l.25-2.95q21.3-3.95 40.45-12.75 23.15-10.6 41.15-27.15 18.1-16.7 29.95-38.45zm-299.6-15 2.8-1.15q9.65 31 33.55 53.85 23.65 22.65 57.3 33.65l-2.05 3q-33.55-11.45-57.6-34.8-24.3-23.6-34-54.55m-3.3-36.8-3.5-2.5 8.55-.35 8.25-.75q1.65-.3 1.75.3t-1.55.95q-6.4 1.5-13.5 2.35m-70.25 44.2-4.65 1.3q11.75-18.7 20.5-27.6 7.5-7.65 13.55-8.8l.8 3.35q-5.9 1.1-11.7 6.8-7.25 7.15-18.5 24.95M32.75 193.1q1.2-3.35 4.6-9.5 3.65-6.75 7.4-12.2v3.55q-6.55 11.25-9.5 19.1-1 2.75-.95 6.85.1 4.35 1.4 7.95 1.25 3.4 4 7.65 2.4 3.7 5.15 6.9 3.7 4.35 8.25 3.2l8.1-2.05q5.4-1.25 7.75-1.25l.85 2.1q-2.3 0-8.1 1.4l-8.3 2.1-5.4-.15q-2.85-.85-4.9-3.2-3.05-3.5-5.75-7.45-3.35-4.85-4.6-8.3-1.35-3.75-1.3-8.7.1-4.7 1.3-8"/><path fill="#0d131a" d="m163.9 123 2.1.05q.25.7-1.55 1.5-8.55 3.75-17 8.25-10.55 5.6-15.35 9.6-2.55 2.1-3.4 3.7-1.1 2-1.6 6.35-.4 3.15-.7 9.4l-.25 9.95-2.25 1.55q-.15-5-.05-11.7.15-7.2.55-10.4.55-4.6 1.9-7.1 1.1-2.05 3.8-4.3 4.85-4.05 15.3-9.05 8.15-3.9 18.5-7.8m-87.8 69.05q4-.5 7.25 3.05 3.15 3.5 4 9.05.3 2.1-.2 2.25t-1.05-1.9q-1.3-4.55-3.7-7.35-2.75-3.2-6-2.8t-5.5 5.95q-2.55 6.35-1.95 15.95.55 9 4.7 13.9 3.3 3.95 6.7 3.5 3.1-.4 5.45-4.95 2.55-4.9 2.3-11.4-.05-1.85.5-1.85.6 0 .8 1.8.85 7.45-2.2 13.15-2.75 5.05-6.5 5.5-4.35.55-8.55-3.95-5.15-5.5-5.8-15.5-.65-10.05 2.4-17.15 2.9-6.65 7.35-7.25M25.3 238.6l-2.7 1q.15-6.85 3.4-17.15 2.85-8.95 7.15-17.95l.85 4.45q-3.95 9.4-5.75 14.8-2.85 8.75-2.95 14.85"/><path fill="#0d131a" d="M15.35 241.3q9.2-4.8 12.95-4.55 3.9.3 11.2 4.05 7.5 3.85 11.4 7.65 2.9 2.85 2.6 5.7-.4 3.1-4.5 4.75-16.85 6.75-26.65 7.45-9.3.6-18.65-6.35-3.2-2.4-3.65-4.85-.4-2.4 1.9-4.7 4.4-4.4 13.4-9.15m22.5 1.25Q31.3 239.3 27.9 239q-3.3-.25-11.45 4.15T3.85 252q-2.65 2.65 1.95 6.05 7.95 5.9 16.35 5.3 5.25-.35 12-2.1 6.85-1.7 13.6-4.35 3.05-1.2 3.15-3.3.1-1.95-2.1-3.95-4.1-3.7-10.95-7.1"/><path fill="#0d131a" d="m89.4 266.45 2.85 2.65q-11.55.7-26-2.1-15.35-3-21.15-7.7l2.85-1.15q5 3.5 18.35 6.05 12.8 2.5 23.1 2.25"/><path fill="#0d131a" d="m109.4 251.05 7.6.4q3.15 1 6.1 4.6 2.55 3.1 5.6 9.5 3.15 6.55 4.7 12.15 1.35 5-4.45 7.1-10.05 3.55-18-.85Q97.1 276.4 87 266.6q-2.35-2.3-2.15-4.8.2-2.95 4.25-5.1 4.45-2.35 11.65-4.1 5.3-1.25 8.65-1.55m6.95 2.65-6.65-.4-7.7 1.3q-6.95 1.5-11.3 3.8-2.45 1.3-2.75 3.2-.25 1.75 1.45 3.4 5.65 5.45 11.55 9.75 4.65 3.35 10.85 6.9 3.7 2.15 7.65 2.4 3.9.25 8.45-1.35 2.3-.8 3-2.05t0-3.3q-1.75-5.55-4.4-11-2.65-5.4-5.05-8.35-2.8-3.4-5.1-4.3"/><path fill="#0d131a" d="m131.15 224.15 2.1-.4 3.25 9.95q1.7 6.15 1.55 9.3-.35 5.8-2.6 9.25-3.05 4.75-11 8.5l-1.45-2.5q7.45-3.55 10-7.45 1.7-2.6 2.15-7.95.5-5.4-4-18.7"/><path fill="#0d131a" d="M153.1 245.15q.55-2.6-6.4-6.5-4.6-2.6-11.65-5.3l-.55-3.05q10.8 4.35 15.9 7.95 5.6 3.95 4.9 7.35-.6 2.9-7.2 4.2l-13.35.75.85-2.65 12.3-.4q4.85-.8 5.2-2.35m-27.35-77 .1-2.4q5.4 2.8 7.85 6.4t1.25 7.15q-1.75 5.3-1.8 10.1-.05 9.8 4.85 25.5l1.15 4.5q.4 2.55-.4 3.85-.7 1.1-2.1 1.75-1.55.75-3.45.7-2.25-.1-4.05.9-1.35.8-13.75 10.1-3.05 2.25-5.5 2.7-3.05.6-5.9-1.3-7-4.65-10.25-7.95-1.05-1.05-3-1.65-1.9-.6-3.65-.45l.7-2.25q4.1-.3 7 2.35 3.6 3.35 10.45 7.6 2.45 1.5 4.5 1.15 1.75-.35 4.4-2.4 2.05-1.6 7.85-5.5 4.65-3.15 6.5-4.35l2-1.15q1.1-.5 2.15-.4 2.1.25 3.35-1.7.6-.95.4-2.6l-1-3.9q-4.25-13.7-4.7-23.95-.25-7.1 1.3-11.8 1.95-6-6.25-11"/><path fill="#0d131a" d="m75.2 164.85.9-1.85q2.95-.15 5.2 2.45 1.8 2.1 2.5 4.95.9 3.9 3.2 8.2 2.15 4.05 4.15 6.05 1.7 1.7 3.35 1.8 1.3.05 4.45-1 5.2-1.75 13.6-6 9.15-4.7 13.35-8.15.9-.75 1.25-.3.4.5-.45 1.3-4.4 4.3-13.05 9.05-7.15 3.95-14.1 6.55-6.45 2.45-10.3-1.4-2.1-2.1-4.35-6.55-2.35-4.55-3.35-8.75-.55-2.35-2.1-4.2-1.9-2.3-4.25-2.15m93.45-31.95q2.85.8 2.75 1.45l-3.05.15q-7.05-1.25-15.8-6.15l3.3-1.05q3.9 2.2 5.9 3.1 3.35 1.55 6.9 2.5m51.95 15.35q-1.5-3.2-.65-3.45.85-.2 2.5 2.9 5.2 9.9 10 22.9 4.85 13.05 6.4 21.3 1.6 8.5 1.7 13.3.15 8.05-2.2 20.2-1.05 5.4.3 8.1 3.1 6.15 4.9 8.4 3.1 3.85 7.85 5.3l.25 2.3q-5.6-1-9.85-5.6-3.2-3.45-6-9.4-1.4-3.1-.3-9.1 2.3-11.95 2.15-19.8-.1-4.6-1.7-13-1.55-8.25-6.1-21.3-4.45-12.8-9.25-23.05"/><path fill="#0d131a" d="M214.95 147.55q.25-.55 2.25.6l3.3 2.05q1.85 1.3 3.1 2.9l2.25 6.35q-1.65-2.55-4.25-5.45-2.75-3-4.95-4.5-1.9-1.35-1.7-1.95m11.65 12.95 1.25 2.85q-22.25 6.6-44.8.1-25.5-7.4-40.1-29.2l2.3-1.05q13.9 20.55 38.05 27.4 21.4 6.1 43.3-.1m43.3-20.95-2.4-1.75 3.05-2.1 3.7-3.3 3.35.75-4.05 3.8q-2.2 1.8-3.65 2.6m-88.8 52.35-4.3-5.75q9.85 9.85 26.15 14.05 15.75 4.05 35.4 2.35l.15 2.9q-19.4 1.1-32.3-1.65-14.5-3.1-25.1-11.9m45.2 47.85q.4-8.55 2.9-13 2.15-3.8 8.2-8.2l-.35 3.05q-4.7 4.25-6.25 7.45-1.95 3.95-2.3 11.7-.45 10.9-1.65 16.45-1.9 8.85-7.25 18.1-2.95 5.1.75 10.05 6.05 7.95 8.9 11 5.6 6.1 12 9.95l1.4 2.95q-6.7-2.7-13.95-9.9-4.75-4.7-10.75-12.55-2.1-2.75-2.35-6.15-.25-3.45 1.5-6.45 5.3-9.2 7.35-18 1.4-6.15 1.85-16.45"/><path fill="#0d131a" d="M215.45 241.25q1.8-5.75 6.7-10.7 4.85-4.95 10.45-6.7l-1.8 2.6q-4.55 2.6-7.8 6.6-3.25 4.05-4.8 9.05-2 6.4-1.1 13.35.85 6.9 4.45 13.55l-.85 2.15q-4.35-6.15-5.85-14.55-1.55-8.5.6-15.35m2.15 41.5 1.3 1.6q-3.7 3.1-6 6.95-3.3 5.4-3.3 11.4l-2.45.85q-.55-12.45 10.45-20.8"/><path fill="#0d131a" d="M239.35 316.25q-3.2-2.75-9.35-7-6.4-4.35-9.55-5.85-2.25-1.05-4.2-1.15-2.05-.1-4.85.75-6.55 2-13.95 5.5-7.35 3.4-9.95 5.6-1.95 1.65-1.8 3.75.15 2.15 2.5 4.4 3.6 3.5 7.15 4.7t9 .8l18.3-1.9q12.05-1.55 16.2-2.95 2.6-.85 2.75-2.7.1-1.9-2.25-3.95m-7.85-8.75q6.45 4.45 9.7 7.3 3.6 3.15 3.05 6.2-.5 2.85-4.2 4.05-4.5 1.5-17.3 3.35l-18.5 2.1q-5.9.45-9.95-.9-4.4-1.5-8.45-5.6-6.4-6.45-.65-11.4 2.75-2.3 10.85-6.15 8.35-3.95 15.05-6 2.9-.9 5.6-.55 2.2.25 4.8 1.45 3.3 1.55 10 6.15"/><path fill="#0d131a" d="m227.95 326.1 3.15-.65q9.45 6.7 29.75 11.05 17.9 3.8 29.35 3.25l3.7 2.55q-13.25 1.2-31.55-2.45-22.25-4.45-34.4-13.75"/><path fill="#0d131a" d="M340.7 349.6q1.75 4.05-2.5 5.6-5.15 1.9-14.15 3.4-4.3.75-9-1.95-5.2-2.9-13.35-7.95-9.05-5.65-13.85-9.1-3.3-2.4-3.7-5.8-.4-3.65 3.15-5.95 5-3.35 13.65-5.7 10.2-2.75 18.9-2 3.75.35 6.15 3.7 8.3 11.4 14.7 25.75m-10.8 5.1q3.5-.65 6.15-1.65 2.55-1 1.55-3.35-7.2-15.85-13.55-24.55-1.55-2.15-3.95-2.35-8.55-.75-18.25 1.75-8.4 2.1-13.2 5.3-2.4 1.6-1.95 3.95.45 2.15 3.15 4.1 4.2 3.05 13.55 8.55 5.05 3 13.05 7.6 2.05 1.25 3.6 1.65 1.5.35 3.5.05z"/><path fill="#0d131a" d="M334.15 290.85Q333 289 331.4 288l-2.8-1.25q-2.45-1.05-4.2-1.2-2.9-.25-5.4 1.5-3.75 2.65-22.45 22.15-7.1 7.35-14.9 8.5-7.3 1.05-20.2-2.65l.45-2.7q11.85 3.4 19.8 2.05 7.7-1.35 13.55-7.45l12.8-13.7q7.1-7.55 9.4-9.15 2.9-2 6.7-1.75 1.95.15 5.1 1.15 1.8.6 3.55 1.85 2.3 1.6 3.7 3.75 4.85 7.65 6.25 11.4 1.45 3.7-1.1 11-1.6 4.35-3.95 8.25-4.55 7.55-9.85 9.55l-1.3-2.05q3.95-1.35 7.7-7.1 2.9-4.35 4.7-9.45 2.15-6.25 1.05-9.5-.75-2.2-5.85-10.35"/><path fill="#0d131a" d="M245.6 278.15q5-1.4 9.15 3.15 3.55 3.85 5.45 10.6.55 1.95-.1 2.15t-1.45-1.65q-3-7.05-5.55-9.75-3.1-3.3-7-2.15-4.1 1.2-5.45 8.15-1.3 6.9.95 14.8 2.2 7.85 6.5 12.5 4.4 4.75 8.6 3.65 3.2-.85 4.3-7.35 1-6.2-.4-13.3-.35-1.7.45-1.85.75-.1 1.15 1.6 2.05 8.2.5 15.25-1.5 6.9-5.35 7.95-5.25 1.4-10.7-4-5.35-5.3-7.75-13.9-2.25-8.05-.55-15.9 1.85-8.45 7.25-9.95m91.45 15.05-2.6-3.9q8.55 1.25 16.9 5.9 9.15 4.95 8.95 9.45-.15 2.55-7.15 4.35-6.4 1.65-12.9 1.45l.4-2.75q6.35.2 11.75-1 5.05-1.15 5.05-2.4 0-2.95-6.4-6.35-6.25-3.35-14-4.75"/><path fill="#0d131a" d="M328.85 249.15q2.15 16.7 10.45 29.75 2.1 3.25 1.75 6.85-.3 3.1-2.35 6.2l-2.9-1.25q1.9-3 2.3-5.5.45-3-1.25-5.7-8.45-13.25-10.7-30.1-1.2-8.9-.5-20.15.3-4.7-2.2-6.95-1.3-1.2-5.4-2.7l-.6-2.6q11.6 2.6 11 12.2-.7 11.25.4 19.95"/><path fill="#0d131a" d="m301.7 242.55 9.65-8.5q7.7-6.55 8.9-8.3 1.1-1.6 1.65-1.05t-.6 2.1q-3.1 4.45-8.4 8.95-4.8 4.05-9.5 9-5.05 5.35-7.75 9.4-3 4.5-6.7 5.95-3.7 1.5-7.35-.45v-3.1q3.6 1.95 7.1.05 2.65-1.45 5.05-5.05 2.55-3.85 7.95-9"/><path fill="#0d131a" d="M250.45 232.6q2.65-10.5 8.75-12.7 6.35-2.35 13.1 4.8 6.85 7.25 9.5 19.5 2.65 12.15-.15 22.1-2.75 9.65-8.7 11.3-5.5 1.55-12.05-4.6-7.3-6.8-10.35-18.85-2.8-11.05-.1-21.55M279 244.65q-2.35-10.9-8.2-17.8-5.75-6.7-10.75-4.9-4.8 1.8-6.95 10.95-2.2 9.75.55 20.8 2.85 11.2 9.1 17.45 5.4 5.4 9.55 4.3 4.4-1.2 6.7-9.8 2.55-9.5 0-21m26.05-63.8q-2-4.85-5.65-9.4-3.2-3.95-10.8-11.3l-1.6-4.4q9 7.3 13.95 13.25 4.35 5.2 6.7 10.9 4.4 10.35 7.4 20.7 4.65 16.05 4.4 27.1l-2 2.4q.05-11.1-4.85-27.75-3-10.25-7.55-21.5m-30.9-38.2-7.95-3.5-8.95-7.85q-6.05-5.25-9.7-7.7-1.65-1.1-1.15-1.55.5-.5 2.25.5 4.2 2.35 12.95 9.4z"/><path fill="#0d131a" d="M249.15 139.55q5.45-5.15 14.9-2.75 9.25 2.35 17.45 10.5 7.4 7.45 9.7 16.4t-2.05 13.35q-4.25 4.3-14.15 2-9.95-2.35-17.4-9.4-9.15-8.6-10.95-18.15-1.5-8.2 2.5-11.95m14.55-.5q-8.55-2.5-13 1.8-2.85 2.75-1.5 9.55 1.65 8.75 10.45 17.05 7 6.6 16.25 8.85 8.65 2.05 11.6-1.05 3.2-3.3 1.45-10.65-1.9-8.2-9.2-15.5-7.6-7.6-16.05-10.05m49.45 24.35 3.2 1q-1.75 2.7-5.2 6.35l-6.4 6.4-1.45-2.35q6.4-6.1 9.85-11.4m53.35 12.75 3.45.45q-8.25 13.5-20.7 25.2-12.9 12.1-26.4 18.55l-2.8-1.4q13.25-6.2 25.85-17.9 12.5-11.55 20.6-24.9m48.55-7.9 3.35.75q-2.6 6.65-8.35 14.8-6.45 9.2-13.9 15.7l-6.35 2.95q8.15-6.65 15.75-17.25 6.9-9.65 9.5-16.95m34.1-62.4.25-2q5.35.55 10.45 4.35 5.2 3.85 4.9 7.2-.2 1.95-3.4 3.25-3.35 1.35-7.3.75l-.35-1.9 5.7-.4q2.65-.8 2.75-1.95.25-2.6-4.3-5.75-4.45-3.05-8.7-3.55"/><path fill="#0d131a" d="m501.2 158.15-1.7 1.4q-9.25-19.3-16.9-30.85-3.1-4.7-8.4-7.6-3.55-1.9-11.7-4.65l.5-2.05q8.9 2.6 12.75 4.55 5.8 2.95 9.1 7.9 3 4.5 7.5 13.4z"/><path fill="#0d131a" d="M492.6 164.2q4.9-4.65 9-7l1.55-.05q.35.65-.85 1.45-3.85 2.45-8.45 7.3-4.05 4.2-6.2 7.55-4.1 6.35-7.7 7.5l-1.4-2.6q3.85-1.25 7.3-6.55 2.15-3.25 6.75-7.6m-47.75 17.35q-5.15-1.5-6.5-3.7-.9-1.45-.7-5.25.1-2.35-.55-8.1l-1.2-8.8 1.85-3.3 1.5 10.35q.85 7 .7 9.65-.1 2.7.7 3.8 1.1 1.6 5 2.75l4.8.8 6.45.6.85 2.85z"/><path fill="#0d131a" d="M459.9 191.65q-4.6-7.2-5.2-14.95-.65-8.05 3.6-10.45 6.35-3.55 14.8 3.65 9.3 7.95 12.7 23.35.3 1.4-.3 1.6-.55.15-.95-1.25-3.95-14.2-12.5-21.65-7.6-6.65-12.5-3.75-3.3 1.95-2.25 9.1.95 6.9 5 13.25 4.8 7.55 9.85 11.3 4.5 3.3 7.9 2.75 3.5-.6 4.3-3.85.3-1.2.8-1.05.55.1.45 1.35-.1 2.15-1.85 3.85-1.45 1.4-3.05 1.7-4.5.75-10.3-3.4-5.9-4.25-10.5-11.55m-28-3.5q-1.25-3.55-1.3-7.05 0-3.6 1.25-6.15.8-1.75 2.9-3.3 2-1.5 4.1-2l.15 2.2q-3 1-4.55 4.2-2.35 4.9.05 11.6 2.15 5.95 1.45 16-.45 6.5-1.6 11.3-.85 3.8-.75 5.55.15 1.9 1.45 2.65l2 .05 2.05-1.45q4.5-3.85 12.1-6.65l.35 2.4q-4.25 1.3-7.45 3.45l-3.75 3.1q-4.1 3.7-6.8 2.2-2.45-1.3-2.55-4.95-.05-2.2 1-6.75 1.35-5.7 1.65-11.15.55-8.9-1.75-15.25"/><path fill="#0d131a" d="m431.5 242.75-1.7 1.8q-2-2.2-2.65-4.8-.6-2.3.05-4.1.8-2.15 6.9-11.05l2 .7q-5.25 7.65-6.45 10.95-.85 2.3 1.85 6.5"/><path fill="#0d131a" d="M418.9 236.85q-3.05-1.45-3.05-3.3 0-1.8 2.85-3.8 2.35-1.6 7.15-2.8 4.65-1.15 9.2-1.3l-1.8 1.9q-3.9.55-7.35 1.7-3.4 1.15-5.5 2.6-1.15.8-1.1 1.7t1.5 1.5q1.9.75 7.6 1.9l-.3 2.35q-6.9-1.4-9.2-2.45m56.8 23.1q-9.35-.8-21.8-5.15l2.65-1.15q10.3 2.8 19.4 3.5 9.2.65 15.7-1l12.3-3.25q8.4-2.25 10.65-2.65l4.25 1.35q-1.9.15-11.7 2.9l-14.5 4.05q-8.35 2.1-16.95 1.4"/><path fill="#0d131a" d="M542.55 233.35q3.25 1.95 7.35 5.4 3.65 3.15 5.25 5.05 2.05 2.4 1.9 4.3-.2 2.1-3.2 4.35-4 3-7.2 3.85l-5.65.4q-9-.5-18.35-2.65-10.1-2.35-13.45-5.15-2.4-2-2.25-3.9.15-2.25 3.6-4.8 4.15-3.15 12.55-5.75 6.2-1.9 10.15-2.4 6-.65 9.3 1.3m10.35 12.05-4.95-4.85q-3.9-3.5-6.95-5.3-2.8-1.65-7.85-1.05-3.8.45-9.6 2.25-8 2.45-11.9 5.55-1.75 1.4-1.8 2.9-.05 1.35 1.35 2.5 2.95 2.45 12.25 4.25 7.85 1.5 17.65 2.1l4.95-.2q2.5-.7 6.25-3.5 1.6-1.15 1.65-2.3.1-1-1.05-2.35"/><path fill="#0d131a" d="m541.2 233.8-2.7-.75q1.5-6.05-10.4-19.4l1.2-1.5q7.25 7.7 9.2 10.55 4 5.95 2.7 11.1"/><path fill="#0d131a" d="m528.75 212.85.9-2q7.6 1.6 12.25 3.9 4.35 2.15 4.9 4.25.55 1.95-1.85 3.65-2.55 1.9-7.15 2.3l-1-1.85q3.7-.3 5.65-1.4 1.7-1 1.4-2.3-.8-3-15.1-6.55"/><path fill="#0d131a" d="M521.9 195.05q-1.25-.9-.9-1.35.35-.4 1.75.3 5.6 2.95 8.05 6.75 2.6 4.1 1.3 8.85-1.55 5.5-7.85 10.15-8 5.8-20.2 7-5.75.55-12-.3-6.35-.95-9.55-2.85-2.95-1.75-6.45-3.4-4.1-1.95-5.3-1.95l-.85-2.35q1.5 0 6.35 2.1 4.25 1.85 7.1 3.5 3.15 1.75 9.2 2.35 5.5.55 11.25 0 11.6-1.15 18.8-6.35 5.45-3.95 7-8.85 1.2-3.65-.65-6.8-1.75-3.1-7.05-6.8"/><path fill="#0d131a" d="m509.1 165.85.1-2.35q7.9 2.7 13.3 11.15 6.45 10.2 5.4 24.15l-2.25-2.3q.05-12.05-5.1-20.5-4.45-7.35-11.45-10.15"/><path fill="#0d131a" d="M507.65 160q-.6-1.65-2.75-3.8-1.1-1.1-6.45-1.7l-1.6-3 5.05.65q3.1.6 4.45 2.1 2 2.2 2.85 3.7 1.2 2.25 1.15 4.95l-.1 7.7q1.85 3.55 3.15 9.15.25 1.3-.15 1.45t-.85-1.1q-1.6-4.45-3.8-7.95-.3-.45-.35-1.6l-.1-7.25q-.05-2.2-.5-3.3M456 203.5q-4.05.75-4 7.45 0 5.05 2.15 12 1.95 6.25 6.75 10.75 4.7 4.45 7.8 3.2 3-1.15 3.05-6.8.05-4.65-1.9-11.5-1.75-6-5.5-10.55-4.3-5.25-8.35-4.55m10 3.05q4.5 5.15 6.35 11.55 1.7 5.95 1.55 11.35-.2 7.6-4.55 9.3-4.2 1.65-9.85-3.05-5.7-4.8-8.05-12.25-2.6-8.3-1.55-14.6 1.1-6.55 5.7-7.35 5.15-.95 10.4 5.05"/></svg>