<svg xmlns="http://www.w3.org/2000/svg" width="680" height="493" viewBox="-1.1 -0.25 680.45 493.05"><path fill="#eeeeef" d="m551.95 151.85-4.6-1.2-20.55-10.15q-10.95-6.3-31.85-8.4l-13.3-.8h-5.45q1.4-9.95 1.5-23.55.25-27.25-6.1-45.45l57.9 16.45q52.65 15.3 57.4 19.15 5.2 4.2 32.45 43.05 26.55 37.9 27.35 40.95 1.15 4.4-3.75 13.85-6.7 12.75-20.9 22.15-13.7 9.1-30.55 7.4-5.25-.55-10.2-2.1l-3.9-1.45zM116.8 146.7l6.8 17.85q9.3 21.55 21.9 40l-48.55 29 16.8 35.1-92 20q1.3-17.2 4.7-36.25 6.75-38.1 17.1-47.45 10.4-9.35 42.85-34.75z"/><path fill="#fcd13e" d="M85.4 259.1q38.35 1.1 57.65 23.2 13.1 15.05 15.6 36.6 1 8.85-2.05 19.1-3.05 10.4-9.55 19.75-14.9 21.55-38.25 26.6-24 5.2-47.4 1.05-22.6-4.05-37.05-15.35-7.25-5.65-12.8-15.7-5.85-10.45-7.8-22.3-4.85-28.7 13.9-48.3 16.95-17.8 44.05-23 13.55-2.6 23.7-1.65"/><path fill="#30353a" d="M28.9 347.7q-4.35-14.9 1.8-25.7 10.85-18.9 51.75-19.85l5.1.3 12.25 1.5q19 3.25 27.3 10.55 5.45 4.75 8.7 11.55 3.65 7.75 3 15.3-1.65 19.3-30.05 29.2-26.35 9.15-53.95-2.7-10.25-4.45-17.9-10.7-6.85-5.65-8-9.45"/><path fill="#eeeeef" d="m47.9 337.1-1.45 11.3q-1.2 11.7.2 13.75l6 8.05q.3 3.45-2.6 12.15 7.55 9.35 7.25 19.6-.25 8.55-4.9 12.45-3.3 2.8-7.1 1.75-2.85-.85-4.55-3.05L33 403.6l-7.6-9.3q-.8-1.15-.6-14.95l.35-15q0-1.05 3.75-9.1l5.5-12.3q1.5-3.8 7.65-5.2zm85.75 4q5.75 7.35 6.1 8.7.45 1.55 1.05 15.35.55 14.05.05 15.35-2.1 4.9-7.35 12.5-7.7 11.3-13.05 12.15-3.25.5-6.25-1.5-3.15-2.1-4.5-6.05-3.5-9.75 5.7-22.4-1.3-13.5-.5-15.85-8.2-6.35-10.35-9.3-1.4-1.9-1.95-4.75-1.1-5.65 3-10.3 4.5-5 11.45-5.4 5.9-.3 8.7 2.2 2.25 2.05 7.9 9.3m445.45-85.6q5.25 2.15 17.05 3.35l10.75.75q-.2 3-2.15 10.35 1.75 1.1 4.75 6.05 10.2 5.15 10.45 13.6.2 6.9-4.6 10.2-3.1 2.1-12.9-1.45-8-2.9-11.3-5.3-1.9-1.45-6.3-10.75-4.35-9.35-4.05-11.25.45-2.6-1.7-15.55m77.55-14.8q6.55-5.9 9.55-10.85 3.05 17.9 3.05 20.05t-5.4 14.9l.55 3.05q.75 3.6 1.8 6.4 2.1 5.5-5.6 16.6-3.55 7.6-6.4 11.45-5.2 7.1-12.35 4.1-7.15-2.95-7.2-11.7-.05-2.75.65-5.7l.7-2.45q-8.35-8.1-4.15-16.2 1.35-2.5 3.75-4.75l2.15-1.7-.65-4.1-11-2.8q17.55-4.55 30.55-16.3"/><path fill="#fcd13e" d="M672.8 196.15q5.15 20.85-11.15 39.1-7 7.75-16.65 13.4-9.35 5.4-19 7.6-21.9 5-41.15 0-20.5-5.4-25.45-19.6-3.8-11.05-3.3-17.95.6-8.5 7.45-18.8l2.2 5.55q3.25 5.85 8.4 7.05l1.2 3.95q1.35 4.05 1.9 4.7.6.75 4 2.1 4.5 1.75 9.7 2.35 15.85 1.9 31.1-7.7 16-10 21.85-22.5 4.45-9.55 1.9-15.65-1.55-3.7-4.55-8.6L638.6 167l4.3.35q5.25.8 10.05 3 15.25 7.1 19.85 25.8"/><path fill="#485157" d="M104.05 245.4q2.3 2.85 5 10.1l2.3 6.7q-7.8-1.45-17.9-2.25-20.3-1.5-32 2.1l-.9-16.25q.15-.9 1.05-1.95 1.85-2.1 5.65-2.85 5.6-1.15 19.3.05 15.05 1.25 17.5 4.35M47.4 218.6q12.6-5.1 19.55-5.5 4.8-.3 6.2 1.1.7.7.45 1.45l.25 2.85.35 6.7q.1 3.2-1.75 4.6-.95.7-1.9.75-23.7 1.3-36.5 13.05-6.4 5.9-8.05 11.5-2.65-1.6-2.9-3.95l.3-2 4.25-18.6q5.5-6.2 19.75-11.95m31.15-45.05q-.5-2.85-.15-4.85l.5-1.4 11.65-10q1.9-1.6 7.15-1.65l4.85.3-5 5.15q-.5 7.3 5.5 18.6 4.3 8.05 7.7 11.85l3.8 4.4q2.15 2.7 1.95 3.65-.3 1.5-10.45 9.7l2.3 3.6q2.65 4.1 4.65 6.55t1.6 4.85q-.25 1.15-.85 1.85l-15.45 10.9q-2-4.95-10.8-18.5l-8.45-12.6 11.05-9.25q-9.95-14.1-11.55-23.15m32.6-29.1 5.5-5.5 10.45 37.6q-4.15-4.05-9.85-13.7-5.55-9.4-6.35-13.4-.7-3.2.25-5m381.6-50.6q-1.2 15.8-3.45 18.25-2.1 2.2-6.4 1.85l-3.85-.85q-.35-12.4-1.3-25.3-1.85-25.75-4.55-28.15 14.55 2.8 15.6 3.6l2.25 1.7q1.6 2.05 2.1 7.25.7 7.35-.4 21.65m25.95-19.6 2-1.3q2.3-1.25 3.9-.75 2.55.75 16.6 6.4l1.35 1.55Q544 82.3 544.3 85q.5 4.35.25 20.2l13.55 7.15 2.1 1.85q2.05 2.3 1.75 4.8-.85 6.8-5.9 18.3-5.75 13.05-10.5 15.2-2.3.25-4.85-1l-14.3-7.7-1.3-2.3 1-.25q1.2-.45 2.35-1.75 3.65-4.15 5.1-14.85l-13.55-5.9q-.9-.4-1.65-1.35-1.55-1.9-.9-4.8 2.2-10.05 3.1-16.15 2-13.8.2-19.65zm88.8 48.1 4.3 1.75 5.8 7.1q5.9 8.15 6.25 13.1.65 9.85-11.1 20.15-9.45 8.2-18.6 11.1-5.6 1.75-7.85.9l-.95-.75-.15-.45-8.7-15.05q-1.1-2.1.35-3.85l1.7-1.3q18.1-6.35 25.35-20.15 3.6-6.9 3.6-12.55m-45.05 58.8 1.55 5.65q11.5 6.8 25.2 2.3 4.5-1.45 9.3-4.15l5.4-3.3q2.55-1.45 4.1-.75.75.35 1 1l7.15 17.4q-.2 2.55-3.35 5.5-6.3 5.9-21.2 7.8-14.85 1.95-22.1-2.55-2.25-1.4-3.45-3.25l-.8-1.6q-4.85-13.55-5.85-16.9-.65-2.05 1.15-4.8.9-1.4 1.9-2.35"/><path fill="#fcd13e" d="M177.1 105.15q-12.8 36.65 3.15 86.1 7.95 24.7 18.5 42.1-7.7 3.45-17.85.3-10.15-3.2-20.6-12.35-23.65-20.7-37.05-59-6.7-19.2-8.45-39.05-1.65-18.1 1-33.9 2.55-15.05 8.25-24.35 5.75-9.45 13.15-10.4 12.35-1.6 24.65 5.5 6.15 3.55 9.8 7.4zM436.25 6.4q10.2 5.65 18.6 16.3 23.65 30.15 23.4 87.55-.15 28.7-8.5 50.2-6.9 17.6-18.25 28.1-9.45 8.75-18 9.6-3.65.4-5.75-1.05-2.1-1.5-1.9-4.4 5.45-77.8-22.35-128.6l-6.25-35.5 2.45-4.1q3.1-4.9 6.25-8.95Q416.05 2.4 422.9 2.2q5.4-.15 13.35 4.2"/><path fill="#eeeeef" d="M403.5 64.1q23.95 21.05 24.5 80.75.35 34.65-6.25 69.65-3.45 18.25-8.65 61.7l16.5 11.8q18.6 13.95 29.4 24.75 11.4 8.2 17 33.7 2.8 12.75 3.3 23.85l1.55 8.5q1.3 10.2.35 18.85-3.1 27.55-28.1 28.85t-44.65-16.95q-6.15-5.75-11-12.7L393.8 391q.8-4.3 1.25-9.6.95-10.6-.55-15.55t-20.35-11.8l-18.6-5.8q-9.3 4.75-36.1 7.15l-24.95 1.45-50.3 40q-14.5 11.35-21.7 16.1-20.4 13.4-32.8 14.25-12.3.9-18.2-7.2-1.85-2.55-2.85-5.7l-.65-2.6.75-22.05q.95-23.2 2-29 1.1-5.95 23.05-30.35 17.1-18.95 25.9-27.2 3.45-3.25 4.3-6.45l.2-2.55q-28.3-66.85-44.5-107.2-10.1-25.2-6.9-58.6 1-10.4 3.2-20.4l2-7.9 106.2-50.3z"/><path fill="#485157" d="m189.75 327.9 1.45-.95q1.9-.55 4.3 1.5 8.15 11.15 42.7 37.55 1.55 1.05 1.3 3.35l-.5 2.1-3 3.85-6.25 7.3q-2.7 2.9-4.35 3.1l-1.1-.35q-3.25-.95-21.65-15.65-17.95-14.3-22.15-18.95-3.2-3.55-3.55-6.05l.3-1.8zM420 292.25q9.05-2.7 17.65-1.35 4.35.7 6.85 1.9l6.9 5.7q7.3 6.15 9.15 8.2 1.9 2.05 1.95 4.9.05 1.45-.3 2.45-.85-1.3-10.25-3-11.55-2.1-21.9-.55-10.4 1.6-22.6 9.7-9.45 6.3-11.95 9.9-1.25 1.8-3.3 2.6-1.6.65-2.7.4-1.5-.45-10.05-7.65-2.05-1.7-2.05-4l.4-1.95q8.25-9.6 20-17 10.85-6.8 22.2-10.25M204.45 256.7q-1.2-2.95.6-5.3l2.05-1.7q1.95-.3 3.35.75l1 1.1q14.7 32.45 15.5 34.7 2 5.45-1.65 6.85-2.05.8-3.9-.7l-1.45-1.6q-13.65-29.35-15.5-34.1m216-31q1.7.7 2.4 1.85.5.8.7 2.3.15 1.2-2 16.1-2.1 14.75-2.75 17.35-.6 2.35-2.3 3.4-1.5.9-3.1.55-1.35-.3-2.1-1.1-.7-.75-1.2-2.2-.4-1.3 1.9-17.25 2.25-15.6 3.1-18.5.65-2.2 3.05-2.6zm-202.9-121.35q-1.55 6.1-.6 19.15.85 11.85.3 12.65-1.1 1.55-7 4.15-5.7 2.55-9.35 3.25l-5 .2-1.5-.5q-5-4.8-4.35-20.5.15-4.85.9-10.3l.7-4.4L204.9 94.8zm144.6-21-5.1-10.2 7.7-11.7 17.3 8.3q1.9.95 6.85 12.7L394.4 96q.75 1.75-.15 4.75l-1.1 2.65q-13.25 2.8-17.6 3.1-3.05.2-4.6-1.75-1.25-1.65-2.5-6.6-.95-3.85-6.3-14.8"/><path fill="#009a63" d="m207.7 31.05 5.05 5.6 1.85-2.45q2.05-2.45 3.2-2.55t3.5 3.1l2.15 3.25 4.65-4.5q4.8-4.5 5.75-4.4.95.15.6 7.2l-.5 7 5.9 1.05q-9.3 9.4-7.85 33.05.75 11.8 3.35 21.75-.75.15-2.45-1.1l-1.6-1.25q.2 4.55-.65 4.85-.85.35-5.2-3.5-2.15 9.85-3.3 10.2-1.2.35-10.7-8-6.7 9.85-7.9 10.2-1.15.3-6.3-7.8-7.4 7.1-8.2 7.1-.55 0-2.35-3.9L185 102q-10.2 3.5-11.35 2.5-.7-.6 1-6.05l1.85-5.3-5.25.15q-5.3-.05-5.3-1t4.55-5.9l4.5-4.8-3.85-3.05q-3.8-3.15-3.7-3.8.15-.6 3.45-1.55l3.25-.8-3.7-4.3q-3.6-4.5-3-5.55.65-1.05 6.6-2.55l5.8-1.3-1.05-2.85q-.95-2.9-.65-3.35l3.8.35 3.4.85q-.3-3.4-.45-6.95-.3-7 .3-7.45.65-.4 4.8.95l4.05 1.4q2.8-11.35 5.1-15 1.15-1.85 1.75-1.4 1.45.15 6.8 5.8m200.15 25.3q4.4 4.65 3.95 6.1t-6.05 1.5l-5.45-.2 1.1 2.95q.95 3.25.15 4.7t-6.2.1l-5.3-1.6.95 4.7q.5 4.95-1.7 6.05-2.25 1.1-9.3-4.45l-6.6-5.8q-2.55 5.1-4.6 5.9-1.3.45-4.6-3.7l-3.05-4.25-4.55 5.55q-4.85 5.55-6.45 5.7t-2.25-3.5l-.3-3.65q-5.1 4.3-6.8 2.85-.5-.45-.65-1.45v-.9q.15-15.05-9.35-31-2.95-5-6.55-9.5l-3-3.5V27.6q.15-1.5.75-1.95.65-.5 5.25.85l4.5 1.45.1-4.55q.2-4.7.65-5.2.45-.45 3.1 1.25l2.5 1.85 2.95-6.75q3.15-7.1 4.25-8.85 1.15-1.8 2.6-2.85l1.2-.75q2.9.45 7.9 7.95 2.5 3.75 4.4 7.4l4.55-5.35q4.85-5.4 6.45-5.4t3 6.4l1.1 6.4q5.1-6.35 10.1-11.1 5.8-5.45 7.55-4.75 1.6.65 1.2 11.75l-.7 11 4.5-.45q4.8-.25 6.25.7t-2.2 7.1l-3.95 5.95q10.5 5.1 10.25 6.4t-6.15 5.9z"/><path fill="#fcd13e" d="M329.3 39.3q11.35 14.05 11.75 51.2.15 17.2-3.2 51.75-1.45 14.9-1.95 53.8-.45 32.9-.05 44.25.1 2.5.95 10.35.7 7.85.1 13.25-1.75 16.45-15.45 18.55-13.7 2.15-21.95-17.25-2.75-6.45-5.4-16.45l-3.5-13.9q-3.1-10.9-15.9-43.25-13-32.9-17.9-41.9-8.9-16.25-15.95-37.25Q230.35 81.2 233 61.2q2.35-17.6 15.25-28.35 10.45-8.75 26-11.8 15.2-3 27.05-.2 16.2 3.85 28 18.45"/><path fill="#485157" d="M281.35 55.85q3.1 0 5.25 2.2 2.2 2.2 2.2 5.25 0 3.1-2.2 5.25-2.15 2.2-5.25 2.2-3.05 0-5.25-2.2-2.2-2.15-2.2-5.25 0-3.05 2.2-5.25t5.25-2.2m-17.45 38.8q2.2 2.2 2.2 5.25t-2.2 5.25q-2.15 2.15-5.25 2.15t-5.25-2.15q-2.2-2.2-2.2-5.25t2.2-5.25 5.25-2.2q3.1 0 5.25 2.2m59.5-10.8q2.15 2.15 2.15 5.25t-2.15 5.25q-2.2 2.2-5.25 2.2t-5.25-2.2q-2.2-2.15-2.2-5.25 0-3.05 2.2-5.25t5.25-2.2 5.25 2.2m-22.25 45.8q0 3.1-2.15 5.25-2.2 2.15-5.3 2.15-3.05 0-5.25-2.15-2.15-2.15-2.15-5.25t2.15-5.25q2.2-2.2 5.25-2.2 3.1 0 5.3 2.2 2.15 2.15 2.15 5.25m7.8 40.95q0 3.1-2.2 5.3-2.15 2.15-5.25 2.15t-5.25-2.15q-2.2-2.2-2.2-5.3 0-3.05 2.2-5.25 2.15-2.15 5.25-2.15t5.25 2.15q2.2 2.2 2.2 5.25M202 186.45q-5-.1-5.35-1.25t3.7-4.9l4.1-3.5q-.2 1.9 1.1 5.9l1.35 3.6zm32.65-20.25 5 .35q5.05.55 5.25 1.7.25 1.65-3.45 4.45l-3.8 2.45q-2.25-8.6-3-8.95m-10.8 58.3q.2 3 2.6 8.6l-4.9.2q-5 0-5.35-1.15t3.6-4.5q2-1.7 4.05-3.15m30-10.6 5.35.3q5.4.5 5.65 1.55.45 2-3.7 4.85l-3.95 2.25-1.05-4.05q-1.25-4.2-2.3-4.9m-14.95 67.8q-5.15-.45-5.4-1.75-.2-1.3 3.9-4.9l4.15-3.4q-.55 2.05 2.4 10.25zm34.3-18.45 4.95 1.1q5 1.3 5.1 2.35.15 1.3-2.15 3.15t-5.65 3.1l-.5-4.1q-.7-4.3-1.75-5.6m88.2-108.75q-4.75-1.35-4.85-3-.1-1.7 4.9-3.7 2.5-1 5-1.7-.8 1.3-.65 5.5.1 2.1.35 3.9zm42-7.65q4.4 2.05 4.2 3.45-.15 1.4-4.85 3.5l-4.65 1.8.95-4.15q.8-4.5-.1-6.35zm-44.95 50.55q2.4-.9 4.75-1.45-.95 1.6-.95 5.9.05 2.15.25 3.95l-4.4-1.6q-4.4-1.9-4.4-3.45 0-1.6 4.75-3.35m37.15 6.15q.75-4.1.1-5.75l4.2 1.85q4.2 2.15 4.2 3.75 0 1.55-4.65 2.9l-4.7 1zm-32.95 45.8q-.85 1.75-.65 6.1.1 2.2.35 4-2.2-.65-4.45-1.65-4.45-1.95-4.65-3.4-.15-1.5 4.6-3.4 2.4-1 4.8-1.65m33 .95 4.25 1.5q4.25 1.8 4.4 3.1.2 1.55-2.05 2.8-2.2 1.25-7.3 2.4 1.55-7.7.7-9.8"/><path fill="#e50044" d="M237.7 176.5q0 6.9-4.85 11.75-4.9 4.85-11.8 4.85-6.85 0-11.75-4.85-4.85-4.85-4.85-11.75 0-6.85 4.85-11.75 4.9-4.85 11.75-4.85 6.9 0 11.8 4.85 4.85 4.9 4.85 11.75m156.9-38.05q4.85 4.85 4.85 11.75 0 6.85-4.85 11.75-4.9 4.85-11.75 4.85-6.9 0-11.75-4.85-4.9-4.9-4.9-11.75 0-6.9 4.9-11.75 4.85-4.9 11.75-4.9 6.85 0 11.75 4.9"/><path fill="#00aecb" d="M257.55 223.7q0 6.85-4.85 11.75-4.9 4.85-11.75 4.85-6.9 0-11.75-4.85-4.9-4.9-4.9-11.75 0-6.9 4.9-11.75 4.85-4.85 11.75-4.85 6.85 0 11.75 4.85 4.85 4.85 4.85 11.75m133.65-33.5q4.85 4.85 4.85 11.75 0 6.85-4.85 11.75-4.9 4.85-11.75 4.85-6.9 0-11.75-4.85-4.9-4.9-4.9-11.75 0-6.9 4.9-11.75 4.85-4.85 11.75-4.85 6.85 0 11.75 4.85"/><path fill="#adb2b4" d="M275.45 273.35q0 6.9-4.85 11.8-4.9 4.85-11.8 4.85-6.85 0-11.75-4.85-4.85-4.9-4.85-11.8 0-6.85 4.85-11.75 4.9-4.85 11.75-4.85 6.9 0 11.8 4.85 4.85 4.9 4.85 11.75m114.6-30.3q4.85 4.9 4.85 11.75 0 6.9-4.85 11.75-4.9 4.85-11.8 4.85-6.85 0-11.75-4.85-4.85-4.85-4.85-11.75 0-6.85 4.85-11.75 4.9-4.85 11.75-4.85 6.9 0 11.8 4.85"/><path fill="#fff" d="M227.85 176.3q0 3.05-2.15 5.25-2.15 2.15-5.2 2.15t-5.25-2.15q-2.15-2.15-2.15-5.25 0-3.05 2.15-5.2 2.2-2.2 5.25-2.2t5.2 2.2q2.15 2.15 2.15 5.2m19.9 47.6q0 3.05-2.15 5.2-2.2 2.2-5.25 2.2t-5.25-2.2q-2.15-2.15-2.15-5.2t2.15-5.25q2.2-2.15 5.25-2.15 3.1 0 5.25 2.15 2.15 2.2 2.15 5.25M265.6 273q0 3.05-2.15 5.2t-5.2 2.15-5.25-2.15q-2.15-2.15-2.15-5.2t2.15-5.25q2.2-2.15 5.25-2.15t5.2 2.15q2.15 2.2 2.15 5.25m122.3-127.85q2.15 2.15 2.15 5.2 0 3.1-2.15 5.25t-5.25 2.15q-3.05 0-5.25-2.15-2.15-2.15-2.15-5.25 0-3.05 2.15-5.2 2.2-2.15 5.25-2.15t5.25 2.15m-3.6 51.35q2.15 2.2 2.15 5.25 0 3.1-2.15 5.25t-5.25 2.15q-3.05 0-5.25-2.15-2.15-2.15-2.15-5.25 0-3.05 2.15-5.25 2.2-2.15 5.25-2.15 3.1 0 5.25 2.15m1.7 58.15q0 3.1-2.15 5.25t-5.25 2.15q-3.05 0-5.2-2.15-2.15-2.2-2.15-5.25t2.15-5.2q2.15-2.2 5.2-2.2t5.25 2.2q2.15 2.15 2.15 5.2"/><path fill="#009a63" d="M159.95 375.25q0-1.35 4.45-2.45l4.4-.8-.25 11.15 4.35 4.9.3 3.75q.45 3.8 1.3 4.15l6 1.35 2.25 3.45q2.2 3.6 1.85 4.45-.55 1.35-6 5.45l1.15 3.95q1.3 4 1.95 4.35l4.85-.35q4-.75 4.85-1.4.5-.4 1-5.15.45-4.65 1.15-4.95l3.45-.35q2.6-.2 3.4-1 .6-.6 1.8-6.3 1.1-5.4 2-5.65l8.95-2.45 3.6 3.35q3.55 3.6 3.2 4.8l-1.1 2.35q-.65 1.15-.5 1.7.2.85 1.95 2.45 1.8 1.6 2.4 1.4l2.35-3.5q1.95-3.2 2.55-3.05.45.1 4.05 2.4 3.4 2.1 3.85 1.95.8-.25 4.35-7.9 3-.25 4.6-1.35 1.05-.7 3-1.75l1.8-.9 4.55 2.85-2.55 9.35 3.3 4.85-7.9 8.45 2 5.85 1.8 5.85q.3 1.35 2.1 4.05 1.9 2.95 2.25 3.85.4 1.15-1.85 5.9-2.1 4.4-1.45 4.65 1.4.55 4.4 8.5l.9 1.6q.9 1.75.75 2.75-.3 1.65 2.45 6.55-.8 0-3.5 1l-3.85 1.45q-1.95.55-5.75-1.65-2.7 2.75-4.6 3.3-1.2.3-2.75-1.3l-1.35-1.7q-3.75 4.6-8.35 4.4l-2.85-.6-1.05-.55-4 3.35q-4.5 3.4-6.9 3.7-2.25.35-5.9-1.6-4.45-2.4-4.7-2.45-1.3-.35-3.4 1.1l-2.85 1.9q-1.35.55-10.05-4.9-2.55 1.35-6.6-.15l-3.5-1.75-8.15 2.45q-5.05 1.45-6.8 0l-5.5-3.9-4.3-2.9q-5.7.25-7.35-.85-1.1-.75-1.7-4.6-.5-3.4-.2-5.2.1-.85 2.9-3.65 2.95-2.9 3.35-4.5.4-1.5-.15-5.9-.5-4.2-.1-5.25.2-.5 3.9-3.45 3-2.35 2.05-4.45l-1.7-3.85q-.45-1.2.1-1.75l1.8-2.2q1.1-1.75.9-2.8-.2-1.35 0-3.15.25-2 .8-2.6.65-.6 0-2.2-.65-1.65-1.9-2.7-1.05-.9-.95-3.35.1-2 .7-3.15l1.55-2.7q.95-2.1.1-3.3-3.9-5.3-3.55-6.55.15-.65 3.2-4.2l3.05-3.4zm234.8.1v5.35l4.4 3.9-3.2 11.45q6.6 4.4 7.3 4.4.75 0 6.1-6.35l3.6 1.1 4.7.35q1.5-.95 3.2-10.95.35-2.3 1.5-3.9 1.25-1.7 2.65-1.7l4.55.1q3.2.45 3.95 2.35.85 1.9 3.75 4.75l4.05 3.5q5.45 3.9 2.45 6.6-4.6 4.25-3.9 5.6.5.95.4 3.35-.15 2.75-1.15 4.25-.95 1.45 1.85 2.6 2.55 1.05 4.25.8 1.3-.2 2.25.9.9 1.05.7 2.5-.25 2.1.8 4.05 1.35 2.55 4.1 2.05 3.05-.55 4.05-3.45 1-2.8-.4-6.3-.25-.6 3.2-2.65 3.75-2.2 4.1-3.2l.25-3.55q0-2.35.95-3.05l3.8-3.2q2.45-2.4 2.3-3.4-.1-.45-3.1-3.65-2.8-3-2.5-4.4 1.3-6.4 1.25-7.2-.1-1.3-2.45-5.45-1.2-2.1-.5-3.95l1-1.4 3.2.1q3.3.15 4.1.6 4.35 2.7 6.35 1.95v-8.75l3.6-.05q3.75.2 4.2 1.25.35.85.35 5.2 0 4.05.35 4.3l4.35 2.05q3.7 2 3.25 3.8-.35 1.45-3.05 7.2-2.5 5.25-2.35 5.75t3.05 4.5q2.55 4.05 1.35 5.25-1.5 1.55-3.05 4.35-1.6 2.9-1.1 3.45.6.6 1.1 3.15.55 2.6.4 4.4-.2 2 .75 5 1.05 3.35 3.15 6.25 1.75 2.5 3.35 3.15l2.95 1.1 3.8 2.55q1.8 1.85.85 4.55t.1 7.15q.8 3.4 2.1 5.75l1.9 3.25q.95 2.05.8 4.55-.5 8.2.45 11.25.45 1.35-2.35 3.4-3.35 2.1-4.2 2.7l-8.15 3.8-8.2 3.5-5.05.6-5.95-.1q-2.05-.15-5.6.8-3.25.85-4.85 1.85-1.65 1.05-5.75 1.65-4.4.7-6.45-.15-7.6-3.2-9.75-2.95l-4.7.5q-3.75.1-6.55-1-2.55-1-6.4-.7l-5.8.25-8.3-1.8-6.1-1.4-2.4.65-3.65.1q-1.4-.45-5.5.9-4.25 1.35-4.75 1.3-.95-.15-2.5-2.15l-1.4-2-10.3 1.25q-10.3.9-10.45-.8-.1-1.05 3.8-3.5 4.1-2.65 4.5-5.75.15-4.3.4-5.55.25-1.7 2.75-3.7 2.65-2.2 4-4.95 1.15-2.3.9-3.85l-.1-3.75.1-4.3q0-.75-1-1.55-1.3-.85-1.85-1.4-2.15-2 .75-5.5 2.5-3 2.35-6.4-.15-3.1 2-5.1 2.7-2.55 2.2-5.85-1.15-3.6-1.3-5.3-.1-1.65 2-5.7 1.9-3.7 1.4-4.8-.4-.9-3.8-3.5-3.05-2.35-2.75-3.55l.65-4.75q.45-3.15 1.05-3.3t.75-2.9l.2-3.7q.15-.75 4.85-3.85z"/><path fill="#d9b536" d="M336.4 249.3q.65 7.9.1 13.7-1.6 18.45-14.45 19.75-12.85 1.35-20.2-13.85-2.35-4.9-4.3-11.9l-2.2-8.25-19.9-59.7 5.35 2.6q6.75 2.75 13.8 3.4 22.65 2.1 40-17.55l1.05 63.35q0 1.3.75 8.45"/><path fill="#30353a" d="M315.55 210.3q0 3.1-2.2 5.25-2.15 2.2-5.25 2.2-3.05 0-5.25-2.2-2.2-2.15-2.2-5.25 0-3.05 2.2-5.25t5.25-2.2q3.1 0 5.25 2.2 2.2 2.2 2.2 5.25m5.95 36.7q0 3.1-2.2 5.25-2.15 2.2-5.25 2.2-3.05 0-5.25-2.2-2.2-2.15-2.2-5.25 0-3.05 2.2-5.25t5.25-2.2q3.1 0 5.25 2.2 2.2 2.2 2.2 5.25m-277-14.6 8.9-3.45q10.75-3.3 19.95-2.85 0 2.2-.7 3.45l-.7.8-5.75.7q-7.65 1.2-17.2 3.95t-17.25 11.6q-3.9 4.4-5.85 8.25-2.05-.2-2.5-2.6v-2.35q.35-4 1.15-8.45 1.5-8.9 3.55-11t8.8-5.8l6.4-3.3q-.8 4.75-.85 7.85 0 2.25.3 2.65.6.95 1.75.55"/><path fill="#d9b536" d="m178.25 187.65 21.45 45.05q.4.75-1 1.65-1.7 1.1-4.9 1.2-9.25.25-25.5-8.1-11.45-5.85-21.8-20.25-3.25-4.55-5.95-9.35l-2.1-3.9 2.05 1.75q2.6 2.05 5.55 3.55 9.4 4.85 18.55 2.55 9.2-2.3 12.35-8.45.95-1.9 1.25-4zm295.95-43.2q-3.4 12.15-7.85 22.2-14.3 32.1-33.6 30.45-2.6 0-5.55-1.95l-2.4-1.95q2.25-16.05 3.8-33.35 2.5-28.35.55-37.65l.15.5q1.7 4.35 3.95 8.15 7.2 12.05 17.3 13.35 10.15 1.3 19.2-4.2 4.5-2.75 7-5.75zm-388.75 142q15.4.35 30.6 6.1 21.45 8.2 29.5 24.1 8.2 16.25 2.85 33.35-2.7 8.55-7.05 13.85l-1.5-14.95-2.7-3.55q.9-1.25 1.45-4 1.05-5.45-.85-12.75-2.2-8.5-15.45-16.45-12.85-7.7-26.7-9.55-17.1-2.3-30.85.05-18.65 3.15-29.5 14.6-10.1 10.65-8 23.85 1.05 6.6 4.1 11.1l-5.7 13.15q-4.85-3.5-8.8-10.1Q8.95 342 13.4 326.5q6.25-21.7 32.75-32.5 19.5-8 39.3-7.55M78 387.85q1.05-3.8.85-9.75l-.45-5.2q11.2 3.15 25.2-.1 7-1.6 11.75-3.85l.6 4.8-6.3 10.75q-10.45 3.15-22.1 3.55zm595.15-192.2q1.5 7.65.8 15.05-2.1 23.65-25 36.45-30.1 16.8-57.3 11.25-9.8-2-18-6.7-6.35-3.65-9.65-7.5-4.65-5.35-6.7-11.6-2.45-7.5-.45-14.65l2.85 6.6q4.2 7.6 10.85 12.95 21.15 17 58.5 4.35 27.35-9.25 37.9-30.4 3.5-7.1 4.55-14.4.6-4.35.3-6.45z"/><path fill="#c8c9ca" d="m114.95 222.1-8.4-13.8 27.15-19.9 11 17.5zm-73.8 0-8.65 5.4q4.3-13.7 9.75-19.2l-.35 3.85q-.45 4.85-.75 9.95m-14.1 28.5 13.4-10.75q-.25 17.15 1.5 27.95L23.3 279.2q1-13.25 3.75-28.6m504.7-119.35q-1.8 7.3-5.7 9.35-5.6-2.55-14.6-4.9-17.95-4.7-34.65-3.6l.5-18.7 6.05 1.7q6.25.85 7.35-3.7l15.9 4.15q17.6 4.9 26.2 8.75zm23.3 9.6 2 .85q2.25 1.4 3.5 4.2l6.1 16.15q6.6 17.45 11.4 29.3-3.1.15-8.6-1.5l-4.9-1.65q-4-10.95-8.65-24.25l-3.85-11.1-4.7-2.2q6.7-7.3 7.7-9.8m30.4 72.6 4.65 12.25-5.45-1.2q-5.7-1.45-7.1-2.75l-2.85-9.2 4 .65z"/><path fill="#30353a" d="M565.5 187.35q2.2 1.55 5.4 2.6 4.8 1.55 9.85.95l7.7 22.35-8.55.35q-6.2-.95-13.3-6.85l-6.8-19.85.4-2q.6-2.15 1.55-2.85l1.2 2.15q1.45 2.3 2.55 3.15m13.5-32 12.25 21.35q-3.5-.1-5.25-1-1.1-.55-5.65-9.05l-4.3-8.45.35-1.6q.5-1.65 1.4-1.65 1.45 0 1.2.4m-52.35-33.5q-7.05-3-7.6-3.7l-1.1-1.55q-.35-.9.25-2.25l41.2 15.5-5.15 12.1q-4.35 8.9-8.7 10.55-2.45.95-11-4.05-7.25-4.25-9.05-6.05l3.45-5.15q3.6-6.4 4.6-12.6zm-38.55-8.1q-1.45.4-6.3.05l-4.5-.4.3-6.25 13.4 1.35-.6 2.4q-.85 2.5-2.3 2.85m-371 85.9q-.25.65-.9.75l-10.15 8.9 3.4 4.85 4.5 6.7q.95 1.55.8 2.7l-.3.8-15.75 12.5-11.5-18.5 28.75-22.45q1.7 2.5 1.15 3.75M64.1 242l1.75 18.25-4.15.35-1-14.75q-.05-.85.35-1.8.75-1.85 3.05-2.05"/><path fill="#c6003a" d="M390.3 136q4.1 2.05 6.6 6 2.5 4 2.5 8.8 0 6.85-4.85 11.75-4.85 4.85-11.75 4.85-7 0-11.9-5 3.6 1.8 7.55 1.8 6.85 0 11.75-4.85 4.85-4.9 4.85-11.75T390.3 136m-161.7 25.7q4.1 2.1 6.6 6 2.5 4.05 2.5 8.8 0 6.9-4.85 11.75-4.9 4.85-11.8 4.85-7 0-11.85-5 3.5 1.8 7.5 1.8 6.9 0 11.75-4.85t4.85-11.75q0-6.75-4.7-11.6"/><path fill="#0098b1" d="M248.2 208.9q4.1 2.1 6.6 6 2.5 4.05 2.5 8.8 0 6.9-4.85 11.75t-11.75 4.85q-7 0-11.9-5 3.6 1.8 7.55 1.8 6.85 0 11.75-4.85 4.85-4.85 4.85-11.75 0-6.75-4.75-11.6m138.55-21.6q4.1 2.1 6.6 6 2.5 4.05 2.5 8.8 0 6.9-4.85 11.75-4.9 4.85-11.75 4.85-7 0-11.9-5 3.5 1.8 7.5 1.8 6.9 0 11.8-4.85 4.85-4.85 4.85-11.75 0-6.75-4.75-11.6"/><path fill="#838688" d="M266.45 258.4q4.1 2.1 6.6 6 2.5 4.05 2.5 8.85 0 6.85-4.85 11.75-4.9 4.85-11.75 4.85-3.4 0-6.55-1.35-3.05-1.3-5.35-3.65 3.5 1.8 7.5 1.8 6.9 0 11.8-4.85 4.85-4.9 4.85-11.75 0-6.8-4.75-11.65m119.85-18.15q4.1 2.1 6.6 6 2.5 4.05 2.5 8.8 0 6.9-4.85 11.75-4.9 4.85-11.75 4.85-7.05 0-11.9-5 3.5 1.8 7.5 1.8 6.9 0 11.8-4.85 4.85-4.85 4.85-11.75 0-6.7-4.75-11.6"/><path fill="#30353a" d="m216.7 105.05.85 27.45q.2 4.35-.85 5.5-.6.65-4.3 1.65l-9.4 2.5q-6.4 1.5-7.5.95-1.05-.55-2-1.95l-.7-1.35 6.3-1.25q7.15-1.7 11.3-3.75l1.7-.95q.55-.65.25-2.55-.9-5.5-1-12.1-.15-10.05 1.85-17.6zM360.4 70.8l4.75 7.85q5.2 9.65 7.6 18.5.65 2.45 1.7 2.95l3.2.15q3-.1 16.5-2.9l.2 2.5q-.05 2.7-1.2 3.55-1.8 1.35-18.75 2.6-.8.7-1.9.45-2.15-.4-3.45-4.85-6.2-21.05-11.85-26.35zm17.5 250.95q.55-1.3 2.65-3.55l9.7 7.55 1.15.45q1.4.1 2.95-1.4 4.8-4.7 13.1-9.6 13.5-7.95 26.1-8.95 13.05-1.05 20.65.75 3.25.8 8.15 3.45l-.45 3.75q-3.35-2.1-9.3-3.5-11.95-2.75-25.1 1.05t-25.75 13q-3.9 2.85-7.35 5.9l-2.6 2.5-.9.3q-1.25.1-3.05-.85-2.4-1.25-6.3-4.55-4.1-3.45-4-4.35.1-1.4.35-1.95"/><path fill="#008756" d="m165.5 91.9 6.55-1.65q6.75-1.7 7.9-2.25 1.35-.6 2.2.55t.25 2.5q-.85 1.85-1.15 3.5-.35 2.15.75 2 .9-.1 4.8-1.7l4.35-1.75q1-.2 1 3.25 0 1 1.5.55 1.75-.5 3.8-3 1.95-2.3 2.6-.35l.45 3.4q.3 2.1.95 3 1.05 1.55 2.9-.95 8.2-11.1 9.75-10.15l3.1 2.85q2.25 2.15 3.2 1.8 1.05-.4 1.65-2.8l.6-3.3q.2-1.1.9-1.45.9-.4 2.15.85 2.1 2.15 3.9 3.25 2.7 1.65 3.6.2l2.15 8.9-4.05-2.35q-.1 4.25-1.15 4.85-.6.4-2.3-1.3l-1.55-1.75q-2.45 8.55-3.65 9.55-.8.65-6.25-4l-5.35-4.75q-6 11.05-7.5 11.15-.9.05-3.5-4.05l-2.4-4.05-3.5 3.8q-3.75 3.8-5.1 3.6t-2.6-4l-1-3.8q-11.4 3.45-12.2 2.45-.55-.65 1.3-6.4l1.95-5.6q-2.15.7-4.6 1-4.85.55-6.4-1.6m241.3-43.2q-3.05 2.85-3.05 3.4l4.4 4.85q4.2 4.45 3.65 5.5-.6 1.15-6.35 1.35h-5.65l1.15 3.55q1 3.7.1 4.5-.85.8-6-.5l-5-1.45.5 5.05q.2 5.2-1.2 6.05-1.35.9-8.25-4.65l-6.6-5.75-2.45 3.05q-2.65 3-3.55 2.8-.85-.2-4.2-4.2l-3.15-3.9-4.65 5.75q-5 5.6-6.8 5t-1.85-4.15l.25-3.4-3.25 2.6q-3.55 2.55-5.1 2.45l-1.45-15.2 3.6-3.55q3.65-3.55 4-3.3.85.5-.05 5.05l-1.1 4.45.45.9q.85.5 3-1.65 2.45-2.5 4.35-3.5l2.05-.1.45 2.85q.3 1.95.8 1.85.35-.05 3.65-4.3 3.35-4.3 4.1-4.55.9-.3 2.25 3.05l1.55 4.4q.5 1.55 1.25 1.85 1.05.4 2.4-2.3 1.8-3.7 2.95-4.1 1.65-.6 4.45 3.3 2.7 3.7 4.35 4.6 1.2.7 1.35-.2l.25-3.85q.3-3.25 1-3.25l2.85.65 2.35.3q.3-.3-.1-2.1l-.5-2.15.05-1.55q.4-1 2.6-.5l5.9 1.6 3.15-.05q-.1-.75-1.4-2.9L399 49.9q0-.5 5.1-2.15l5.4-1.65zm-24.1 345.75q.5-1.35.35-1.9-.15-.95.65-2.55.75-1.45 1.8-2.6.75-.75.35-2.45l-.65-2.8q0-1.1 4.6-4.5l4.6-3.15.35 6.2 5 3.75-3.25 11.25 6.75 4.75.1 3.25q-.15 3.45-1.15 4.45l-3.35 3.25q-1.9 2.25-.7 3.45 3.5 3.5 2.4 5.95l-2 3.3q-1.2 2.1-.4 2.9l4.4 3.25q3.3 2.6 3.15 4.1-.15 1.1-1.3 3.55-1 2.15-.85 3.15t1.05 1.85q.95.9 1.1 1.65l.3 1.45-.05 2.05q-.25 2.25.7 4.35 1.15 2.5 3.35 2.65 2.9.25 6.35 1.95 3.95 1.95 4.15 4 .2 2.35.7 3.15.55.95 1.7.35l2.95-1.6q2-.75 3.5.8 2.8 2.75 3.95 3.6 2.5 1.75 4.95 1.75l4.95-1.15q2.65-.8 4.2.6l3.55 3.6 4.55-.1 5.75-3.7q3.15-1.65 5.55-.3 1.9 1.1 4.15 3.05 1.5 1.1 2.3-.4l1.4-3q.65-1.05 1.85-.2l3.3 2.25q2.2.9 3.95-1.2 2.25-2.65 3.8-3.15 1.95-.6 4.8 1.3l4.8 3.3q1.95 1.05 3-.35 2.95-3.85 5.15-2.45 1.4.95 2.45 1.25l2.65-.15.35 1.4q.3 1.7-.1 2.9-.5 1.5-2.9 2.95-2.35 1.4-4.6 1.65-1.75.15-6.8 2.8l-6.95 3.65q-2.3.95-7.25 1.25l-7.85-.2q-2.2-.3-7.4 2.2-5.75 2.75-7.4 2.95-1.8.25-8.55-2.35-6.35-2.4-8.4-1.7-2.2.8-7.45.15l-7.05-.7q-1.8.15-11.9-1.7l-10.75-1.8-2.4.55-1.9.05q-.55-.25-4.85 1.1-4.4 1.35-5.4 1.1-1.2-.3-2.75-2.65l-1.25-2.3q-7.8 2.7-12.95 2.95-4.75.3-6.7-.65-2.45-1.15 1.35-3.9 3.7-2.65 4.9-6.05.8-2.25.45-4.45-.15-1.2 2.05-3.6l3.9-3.95q1.35-1.5 2.05-4.9l.65-4.5q.4-3.15-1.65-6.5-1.35-2.2-1.3-3.7 0-1.85 1.95-3.6.9-.8.85-2.05l-.4-2.4q-.5-3.45 3.2-6.2 2.2-1.6 2.2-4.9 0-2.8-1.1-4.15-.7-.9 0-3.95.65-2.7 1.6-4.35.8-1.4.5-3.35-.35-1.9-1.55-3.15l-2.55-2.6q-1.45-1.6-1.75-2.8-.3-1.05.15-2.35m82.8-26 1.6 2.9 2.7 4.45q1.6 2.15 1.95 3.35.65 2.1-.55 4.4-1.15 2.25-.8 2.95l1.75 1.8 3.35 4.25q1.6 3.1-.95 4.9l-5.65 3.9q-2.65 2-2.55 3.05.1 1.1-2.35 3.3-2.3 2.1-3.05 2.1-.4 0 .95-2.1 1.65-2.7 1.95-4 .85-3.9 3.75-5.4l3-1.65q1.4-.95 1.15-1.55l-3.5-3.9q-3.15-3.45-2.9-4.6l1.25-4.2q.85-3.05.3-4.5l-2.05-5.45q-1.3-3.7-.85-4.15.7-.7 1.5.15m-250.3 25.3 1.6 1.25q1.7 1.4 2.25 2.35.65 1.05.2 2.8-.45 1.65-1.4 2.55-.8.85 1.45 2.8 2.15 1.9 3.4 1.9 1.5 0 4.9-6.55 3.95 2.2 7.9 4.35l4.35-7.9 5.3-.9 4.4-3.85 4.15 2.3-2.8 11.4 1.25 1.6q1.35 1.9 1.65 3.1t-3.45 4.25l-3.8 2.75.85 2.35q1 2.5 1.55 3.05t.85 2.8l.65 4.35q.35 1.75 1.85 3.75l2.05 2.85q.45.9-1.75 6.4-2.15 5.25-1.5 5.65 1.3.8 3.85 7.1l1.15 1.3q1.15 1.55.95 2.85-.3 2.1 2.95 7.95l-5.35 1.95-3 .4q-1.9-.05-3-.7-.95-.55-2.3.25l-2.45 1.8q-1.1.75-3.4-.65l-2.1-1.55q-2.6 3.4-7.8 3.45l-4.65-.6-2.05 1.95q-2.65 2.3-5.45 4-2.85 1.75-7.4-.05-2.85-1.1-5.15-2.95-.9-.75-3.85.55l-4.5 2.1q-1.3.5-5-1.65-3.75-2.15-4.55-1.9l-4.95-.35q-3.5-.75-5.05-1.65-1.05-.65-5.55 1.05l-6.15 2.05q-1.65.2-7.5-4.45l-5.5-4.7q-7.35 0-8.05-1.2-.5-.85-.8-5-.35-4-.1-5.45.2-1.2 2.95-2.8l2.7-1.4.9-1.5 1.55.7q1.85.45 3.55-.7l3.1.1 2.6 2.6q1.4 1 2.05.85l2.1-1.45q1.3-.95 2.3.25l2.5 3.65q1.55 1.9 3.85.75l5.4-3.75q2.85-1.9 4.45-.95.9.6 2.15 2.45 1 1 2.45.35.95-.45 2.9-2.15 1.15-1 3.25-.3 2.65.85 3.95.6 1.6-.3 2.9-3.05 1.4-2.85 2.45-3.25 1.25-.45 2.9.7 1.8 1.25 3.1 1.1 1.7-.2 2.3-2.3.4-2.6.7-3.65.8-2.8 1.8-4.8.45-.9-.7-2.2-1.4-1.55-1.4-2.9t1.4-2.95q1.45-1.7 1.6-3 .15-1.55-1.15-2.9l-1.85-2.2q-.35-1.05.55-2l1.85-2.5q.7-1.35-1.05-3-2.45-2.3-2.85-3.25-.85-1.9-.2-4.1.55-1.95 2-3.4 1.15-1.1 1.6-5.15z"/><path fill="#c8c9ca" d="m638.3 264.75 3.5 11.85-6.75 9.75q-7.1-8.7-2.65-16.05 2.25-3.65 5.9-5.55m13.3 38.8q-4.65 4.95-9.75 2.85-6.05-2.45-6.6-9.6-.6-6.95 4.2-15.1l-.05 6.5q.8 6.85 5.15 8.55 4.4 1.75 8 1.75l2.7-.35q-1.3 2.9-3.65 5.4"/><path fill="#c8c9ca" d="M653.6 245.7q-3 2.85-6.2 7.35-6.45 9-7.45 17.25l-3.5-10.9-8.35-3.25 11.05-4.1q11.45-4.75 13.3-7.95zm-72.15 18.6-1.6-9.05q5.95 3.45 17.15 3.8l10-.35-1.65 8.15-18.45-.65zM43.5 337.25l4.4-.15-.55 10.55-.8 12.6q-.15 1.75 2.55 5.95l2.75 3.8-1.95 11.7-2.55-1.4q-3.55-1.55-8.6-2.25t-9.7 3.5q-2.3 2.1-3.65 4.3v-23.9q8.35-17.25 11.4-21.45 1.95-2.6 6.7-3.25m82.25-5.45q1.5.3 7.3 8.3l6.7 9.7q1.05 1.45.9 12.1l-.35 10.35q-3.15-5.1-5.8-6.65-2.8-1.6-8.1-1.15-4.35.35-7.85 4.85-1.7 2.25-2.6 4.45l-1.05-14.4q-9.1-7.7-10.75-9.95-1.5-1.95-.8-6.25.9-5 4.7-9.6 3.5-4.2 10.05-3.55 3.4.35 7.65 1.8m59.35-218.75-1.65-4.65-4.7 1-3.35.5.2-5.65 9.55-3 1.3 4q1.4 4.1 1.95 4.65.9.9 3.5-2.15l-2.15 8.7q-2.45 1.05-4.65-3.4m43.25-7.45q-.85 5.85-2.6 8.25-1.1 1.45-4.55-1.75l-3.25-3.5-.2-2.6 1.9 1.1q2.1 1.1 3 1.05t2.35-4.8l1.3-4.75 1.65 1.6q1.75 1.6 2.2 1.45.75-.25 1.15-4.85l4.65 2.65q-1.5 5.7-2.6 7.85-.7 1.4-2.9 0zM346 72.95q1-1.05 1.3-2.1l.15 3.75q.45 3.9 1.8 4.7 1.4.8 4.75-1.9l3.05-2.85 2.4 4.35-4.5 3.8q-4.9 3.65-6.8 2.7-1.85-.95-2.1-3.95l.15-2.8q-.65.55-2.75 1.2l-2 .55-.65-5.2q3.25-.15 5.2-2.25m56-1.9 1.4 1.7q1.3 1.85.75 2.65-.85 1.3-9.75.45l-.45 4.1q-.8 4.15-2.6 4.55l-1.95-3q.6-1.65 1-3.8.75-4.3-.35-6.85l5.65 1.3q5.75.95 6.3-1.1"/><path fill="#30353a" d="m358.65 72 2.3-4.1 3.15 4.3q3.4 4.3 4.7 4.1 1.1-.15 2.5-2.7 1.45-2.55 2.2-2.65 1.05-.15 2.35 1.3l1.1 1.5-5.35 6.55q-.9 1.05-4.65-1.45zm-166.4 38.55-.2-2.25 5.2-5.55 1.85 3.1q-1.95 2.65-4.6 3.95zm13.25-.45 5.85-8.95 3.6 3.55-7.55 6.7q-.75.45-1.4-.35z"/><path fill="#ffe8a9" d="M285.4 38.2q-3.15-3.45-2.25-6.65.95-3.25 5.6-4.85l11.05-.3q6.1 1.45 9.45 5.1 3.2 3.4 2.25 6.65-.95 3.2-5.6 4.8l-11 .3q-6.1-1.4-9.5-5.05"/><path fill="#c8c9ca" d="M364.9 323.5q14 10.55 28.7 19.75 10.7 6.7 16.4 17.15l3.4 5.95q1.8 2.35 4.45 2.6 2.55.25 5.65-4.05 3.15-4.3 3.1-8.05-.1-5.7 3.85-10.25 4.15-4.8 11.7-6.9 14.45-4.05 19.5 6.5 2.85 6.1 5.45 8.95 1.9 2.05 2.95 1.9 2.1-.25 3.6-4.65 1.5-4.45 1.1-9.45l4.35 27.15-4.35.2-2.45-2.05-7.3-.7-.5 5.35 1.8 3.8.25 5.95-.85 2.9 2 4.65 4.3 4.3-7.3 6.2-.9 7.05-7.1 4.9-.45 6.5q-.2 1.65-1.2 2.75-2 2.1-5.85-.9l-1.15-7.75-9.1-1.6 1.6-11.2 4.3-5.7-1.8-3.65-5.25-3.65-4.1-7.1-4.8-1.6-6.2.7-2.5 12.1-2.55 4-5.9-1.25-2.4-.2-1.55 2.25-.15.65-.35.05-1.9 2.7-2.15.7-5.8-4.05-.95-.7q-1-1.8 2.2-10.05l.05-.25-4-4.7-.95-16.2q-2.25-3.05-19.85-9.85l-17.15-6.2-.2-.55.2 1.35q-7.45 2.45-34.25 5.6l-25.35 2.6q-5.1 2.3-29.45 20.65-12.15 9.15-23.3 17.85l-4.95 2-4 7.25q-3.95-2.15-7.9-4.35l-4.9 6.55-2.8-1.7q-2.55-2-1.05-3.5 2-2.05-2.8-9.15l-2-1.65-8.75 2.05-1.55 1.8-1.05 4.4-.5 5.15-3.1 1.3-5.55 1-1.35 10.6-10.9 1.3-2.6-6.95 5.95-5.95-2.6-8.25-3.8-.4q-3.95-.6-4.45-1.9-.45-1.3-.05-4.15l.55-2.6-2.85-1.85q-2.9-2.3-3.05-4.6-.15-2.25.4-7.45l.6-4.8q1.95-7.75 6.95-4.4 4.4 2.95 6.85 10.15 3.35 9.75 5.95 11.6 3.55 2.55 9.65-4.1 1.6-1.75 7.05-2.95l9.15-1.15 3.25 2.6q3.5 2.65 4.8 3.15 2.15.8 4.55 0 12.15-15.1 12.15-16.45 0-.8-4-3.85l-4-2.85 1.1-.95q10.35-8.55 28.8-27.45l-1.65-1.5 10.15-.35 24.65-1.75q38.7-3.85 58.05-12.65l.95-2.35z"/><path fill="#30353a" d="m177.25 345.2 3.3-3.65q-.9 2.2.6 4.35 1.8 2.6 9.55 9.35 8.9 7.8 23.9 18.5 3.9 2.85 6.85-.25l5.7-7.05 4.25-5.55 1.9 1.45 4.15 2.95q1.9 1.3 2.2 3.45.15 1.1-.1 1.9l-6.55 7.6q-6.8 7.55-8.1 7.25-1.6-.35-9.05-4.95-8.4-5.15-16.35-11-22.65-16.65-22.25-24.35m41.6-56.55 2.65-.7q3.1-1.15 5.55-3.4l.55 3.7q.1 3.85-2.05 4.7-2.85 1.15-4.45-.5zm191.2-28.4 3.35.6 5.9.25-.85 3.55q-1.5 3.45-4.65 3.15-3.1-.35-3.75-4z"/><path fill="#0d131a" d="M252.5 93.8q2.55-2.55 6.1-2.55t6.1 2.55q2.5 2.55 2.5 6.1t-2.5 6.1q-2.55 2.5-6.1 2.5t-6.1-2.5q-2.55-2.55-2.55-6.1t2.55-6.1m9.85 1.55q-1.7-1.75-4.15-1.75t-4.15 1.75q-1.7 1.7-1.7 4.15t1.7 4.15 4.15 1.7 4.15-1.7q1.75-1.7 1.75-4.15t-1.75-4.15m10.5-31.95q0-3.55 2.5-6.1 2.55-2.5 6.1-2.5t6.1 2.5q2.55 2.55 2.55 6.1t-2.55 6.1-6.1 2.55-6.1-2.55q-2.5-2.55-2.5-6.1m2.35-.35q0 2.4 1.75 4.15 1.7 1.7 4.15 1.7 2.4 0 4.15-1.7 1.7-1.75 1.7-4.15 0-2.45-1.7-4.15-1.75-1.75-4.15-1.75-2.45 0-4.15 1.75-1.75 1.7-1.75 4.15m46.95 21.7Q320.45 83 318 83t-4.15 1.75q-1.75 1.7-1.75 4.15t1.75 4.15q1.7 1.7 4.15 1.7t4.15-1.7 1.7-4.15-1.7-4.15m2.35-1.55q2.5 2.5 2.5 6.1 0 3.55-2.5 6.1-2.55 2.5-6.15 2.5-3.55 0-6.1-2.5-2.5-2.55-2.5-6.1 0-3.6 2.5-6.1 2.55-2.55 6.1-2.55 3.6 0 6.15 2.55m-24.25 40.65q2.55 2.55 2.55 6.1t-2.55 6.1q-2.55 2.5-6.1 2.5t-6.1-2.5q-2.5-2.55-2.5-6.1t2.5-6.1q2.55-2.5 6.1-2.5t6.1 2.5m-6.5 11.6q2.45 0 4.15-1.75 1.75-1.7 1.75-4.15t-1.75-4.15q-1.7-1.7-4.15-1.7-2.4 0-4.1 1.7-1.75 1.7-1.75 4.15t1.75 4.15q1.7 1.75 4.1 1.75m20.05 74.4q0-2.4-1.75-4.1-1.7-1.75-4.15-1.75t-4.15 1.75q-1.7 1.7-1.7 4.1 0 2.45 1.7 4.15 1.7 1.75 4.15 1.75t4.15-1.75q1.75-1.7 1.75-4.15m.6-5.7q2.5 2.55 2.5 6.1t-2.5 6.1q-2.55 2.5-6.1 2.5t-6.1-2.5q-2.5-2.55-2.5-6.1t2.5-6.1q2.55-2.5 6.1-2.5t6.1 2.5m-8.6 43.1q0-3.55 2.5-6.1 2.55-2.55 6.1-2.55t6.1 2.55 2.55 6.1-2.55 6.1q-2.55 2.5-6.1 2.5t-6.1-2.5q-2.5-2.55-2.5-6.1m14.1-.4q0-2.45-1.7-4.15-1.75-1.75-4.15-1.75-2.45 0-4.15 1.75-1.75 1.7-1.75 4.15t1.75 4.15q1.7 1.75 4.15 1.75 2.4 0 4.15-1.75 1.7-1.7 1.7-4.15m-12.15-82q2.5 2.55 2.5 6.1t-2.5 6.1q-2.55 2.5-6.1 2.5t-6.1-2.5q-2.55-2.55-2.55-6.1t2.55-6.1 6.1-2.55 6.1 2.55m-.65 5.7q0-2.45-1.7-4.15-1.7-1.75-4.15-1.75t-4.15 1.75q-1.75 1.7-1.75 4.15t1.75 4.15q1.7 1.75 4.15 1.75t4.15-1.75q1.7-1.7 1.7-4.15m-98.9-6.7q5.3-5.25 12.7-5.25 7.45 0 12.7 5.25 5.25 5.3 5.25 12.7 0 7.45-5.25 12.7t-12.7 5.25q-7.4 0-12.7-5.25-5.25-5.25-5.25-12.7 0-7.4 5.25-12.7m12.3-2.7q-6.3 0-10.75 4.45t-4.45 10.75 4.45 10.8q4.45 4.45 10.75 4.45t10.75-4.45q4.45-4.5 4.45-10.8t-4.45-10.75-10.75-4.45"/><path fill="#0d131a" d="M200.3 181.55q-3.1 2.45-2.95 3.2.45.65 4.1.45l4.7-.6q.55-.2 1 1.1.45 1.25-.1 1.45l-4.2.6q-3.6.15-5.4-.7-1.25-.55-1.75-1.7-.95-2.6 3.35-6.15 2.15-1.8 4.55-3.05.5-.2 1.05 1.05.5 1.25-.05 1.45-1.4.6-4.3 2.9m33.8-16 5.8-.3q4.9.4 5.85 2.8.4.95-.1 2.25-.8 1.85-3.95 4l-3.5 2q-.5.2-1-1.1-.5-1.25 0-1.45 1.45-.55 3.9-2.25 2.8-1.9 2.8-2.65-.3-.8-4.1-.95l-4.8.25q-.5.2-.95-1.1t.05-1.5m140.3-31q3.2-1.65 6.75-1.9 3.5-.3 6.95.8 7.05 2.35 10.45 8.95 1.6 3.2 1.9 6.75.25 3.55-.85 6.95-2.3 7.05-8.9 10.4-6.65 3.4-13.7 1.1t-10.45-8.9q-3.35-6.65-1.05-13.7 1.1-3.4 3.4-6.1 2.3-2.75 5.5-4.35m12.65 1.15q-5.95-1.95-11.6.9-5.6 2.85-7.55 8.85-.75 2.35-.75 4.7 0 4.85 2.85 8.85 2.9 4.1 7.65 5.6 6 1.95 11.6-.9 5.65-2.85 7.55-8.85 2-5.95-.9-11.6-2.85-5.6-8.85-7.55"/><path fill="#0d131a" d="M366.3 144.7q.55-.05.65 1.3.05 1.35-.5 1.4-1.55.15-5 1.45-3.8 1.4-3.85 2.15.25.85 4 2.15 3.45 1.15 4.9 1.2.55 0 .55 1.35.05 1.35-.5 1.4-1.25.05-4.35-1-3.55-1.25-5.1-2.7-1.1-1.05-1.2-2.3-.1-2.65 4.85-4.75 3.55-1.55 5.55-1.65m32.1-.75q1.9-.05 5.6 1.55 4.65 2.05 4.8 4.65.1 1.15-.9 2.3-1.4 1.55-4.85 2.95-2.9 1.2-4.1 1.25-.55.05-.65-1.3-.05-1.35.5-1.45 1.4-.15 4.5-1.4 3.35-1.35 3.5-2.15-.05-.9-3.65-2.35-3.4-1.35-4.65-1.3-.55 0-.6-1.35t.5-1.4m-26.3 41.6q6.85-2.9 13.7-.1t9.75 9.7q2.9 6.85.1 13.7-2.75 6.9-9.65 9.8-6.85 2.9-13.75.1-6.85-2.8-9.75-9.65-2.9-6.9-.1-13.75 2.8-6.9 9.7-9.8m12.45 2.05q-5.8-2.35-11.6.1-5.85 2.45-8.2 8.3-1.1 2.7-1.1 5.7 0 4.55 2.5 8.4 2.6 3.95 6.95 5.7 5.85 2.35 11.65-.1 5.85-2.45 8.2-8.25 2.35-5.85-.1-11.65t-8.3-8.2"/><path fill="#0d131a" d="M357.85 196q4-1.5 5.85-1.5.55 0 .55 1.35t-.55 1.35q-1.6.1-5.3 1.35-3.95 1.4-4.1 2.25.15.8 3.6 2.2 3.2 1.3 4.55 1.45.55.05.5 1.4t-.6 1.35q-1.25-.05-4.15-1.2-3.35-1.4-4.8-2.9-1-1.05-1-2.35.15-2.7 5.45-4.75m36.8 1.85q.1-1.35.65-1.3 1.95.05 5.6 2.1 4.4 2.4 4.35 4.9-.05 2.7-5.25 4.3l-5.25 1.1q-.55 0-.55-1.35.05-1.4.6-1.4l4.65-.8q3.6-.85 3.85-1.6 0-.85-3.45-2.7-3.4-1.75-4.7-1.85-.55-.05-.5-1.4m-23.5 40.7q6.75-3.15 13.7-.6 7 2.5 10.15 9.25t.65 13.7q-2.55 7.05-9.3 10.15-6.7 3.15-13.7.65-6.95-2.55-10.15-9.25-3.15-6.7-.65-13.75 2.55-7 9.3-10.15m12.6 1.55q-5.9-2.15-11.65.55-5.7 2.7-7.85 8.6-.9 2.55-.9 5.15 0 3.45 1.45 6.5 2.65 5.65 8.55 7.85 5.95 2.1 11.65-.55 5.65-2.7 7.85-8.6 2.15-5.9-.55-11.65-2.65-5.7-8.55-7.85"/><path fill="#0d131a" d="M362.5 248.2q.55 0 .6 1.35t-.5 1.4q-1.5.1-4.95 1.45-3.65 1.4-3.65 2.15.2.85 3.85 2.25 3.4 1.3 4.85 1.4.55.05.55 1.35 0 1.35-.55 1.35-1.25.05-4.35-1.15-3.6-1.4-5.15-2.95-1.1-1.05-1.1-2.3 0-2.7 4.95-4.75 3.45-1.4 5.45-1.55m32.7.75q2 0 5.45 1.65 4.3 2.05 4.35 4.65.05 1.15-.95 2.25-1.45 1.5-5 2.7-2.95 1-4.1 1-.55.05-.6-1.35 0-1.35.55-1.35 1.4-.1 4.55-1.15 3.45-1.15 3.65-1.85-.05-.95-3.4-2.4-3.2-1.4-4.5-1.4-.55 0-.55-1.35 0-1.4.55-1.4M253.35 211.1q5.25 5.3 5.25 12.7 0 7.45-5.25 12.7t-12.7 5.25q-7.4 0-12.7-5.25-5.25-5.25-5.25-12.7 0-7.4 5.25-12.7 5.3-5.25 12.7-5.25 7.45 0 12.7 5.25m-2.3 23.25q4.45-4.45 4.45-10.75t-4.45-10.75q-4.5-4.45-10.8-4.45-6.25 0-10.75 4.45-4.45 4.45-4.45 10.75t4.45 10.75q4.5 4.45 10.75 4.45 6.3 0 10.8-4.45"/><path fill="#0d131a" d="M219.95 228.8q-3 2.45-2.8 3.15l4.2.45 4.85-.65q.55-.2 1 1.1t-.05 1.5l-4.35.6q-3.8.15-5.6-.7-1.35-.6-1.7-1.7-.9-2.5 3.05-6 2.85-2.5 4.65-3.25.5-.2 1.05 1.05t0 1.45q-1.5.65-4.3 3m45.55-13.55q.45 1.1-.1 2.35-.85 1.9-3.9 4.3-2.4 1.85-3.6 2.3-.5.25-1-1.05-.5-1.25 0-1.5 1.4-.6 4.05-2.5 3.05-2.2 3-2.95-.35-.85-4-1.05l-4.7.3q-.55.2-1-1.1-.5-1.3.05-1.5l5.6-.35q4.65.4 5.6 2.75m-12.55 40.7q3.4-1.1 6.95-.85 7.35.45 12.3 6.1 4.85 5.65 4.4 13.05-.25 3.55-1.85 6.75t-4.3 5.55-6.05 3.5q-3.4 1.1-6.95.85-7.4-.5-12.3-6.1t-4.4-13.05q.25-3.6 1.85-6.75 1.6-3.2 4.3-5.55t6.05-3.5m6.4 1.7q-6.35-.45-11.05 3.7-4.75 4.1-5.2 10.4l-.05 1.05q0 6 4.1 10.4t10.1 4.8q6.3.4 11-3.7 4.8-4.2 5.2-10.45.45-6.2-3.7-11.05-4.15-4.75-10.4-5.15"/><path fill="#0d131a" d="M243.55 280.2q.55-.15.95 1.2.35 1.3-.2 1.45l-5.45.15q-5.15-.45-5.9-3-.7-2.5 3.6-6.05 3.4-2.85 5.15-3.4.55-.2.95 1.1.45 1.3-.1 1.5-1.4.55-4.55 3.05-3.35 2.65-3.25 3.5.4.7 4.05.8zm29-18q1.9-.55 6 .5 4.75 1.15 5.5 3.5.8 2.55-3.5 5.75-2.15 1.6-4.55 2.65-.55.2-.95-1.1-.45-1.3.1-1.5 1.4-.5 4.1-2.25 3-2 2.95-2.8-.25-.95-4.05-1.7l-4.85-.4q-.55.1-.9-1.2-.4-1.3.15-1.45m69.75-155.05q-.6 13.35-3.65 44.15-2 20-1.4 59.95l1.35 49.4q.4 11.25-5 17.65-4.3 5.1-10.95 6.2-7.2 1.2-14.35-3.65-8.15-5.5-11.4-16.4L295 258q-12.65-42.7-20.6-63.4-6-15.7-20.75-46.85-10-20.7-14.55-32.45-8-20.6-9.15-41.45-1.1-19.5 10-34.55 11.9-16.15 33.6-20.65 26.85-5.5 45.3 7.3 14.8 10.25 20.1 28.2 5 16.9 3.35 53m-7.7 44.2q2.45-21.9 3.25-42.3 1.45-36.95-3.4-53.45-5.9-19.95-21.35-28.45-15.65-8.55-39.1-4.2-20.95 3.9-31.5 19.1-9.05 13-8.1 29.95.85 15.1 4.6 29.2 3.8 14.1 11.65 31.1l6.4 13.65q12.25 25.85 19.25 43.4 11.85 29.65 23.3 68.15l1.9 6.45q2.8 9.5 9.15 14.2 5.55 4.1 11.4 3.1 5.9-.95 9.2-6.6t2.9-14.15q-.8-18.8-.95-53.15-.15-41.9 1.4-56m-160.05-47.5q.2-.7 1.85-.2 1.7.5 1.5 1.2-5.85 20.2-4.3 44.45 1.55 24.2 9.9 43.45 18.65 42.95 25 56.6.3.65-1.25 1.4l-1.9.05q-2.05-3.75-6.35-12.85-8.7-18.15-20.35-45-8.4-19.35-9.35-44.05-.9-23.75 5.25-45.05M403.6 65.6q-.5-.55.8-1.7 1.3-1.2 1.75-.65Q418.4 76.8 425.2 99.4q7.05 23.45 6.2 50.1-1 30.95-5.5 56.5-2.25 12.85-4.45 20-.2.7-1.85.2-1.65-.55-1.45-1.2 1.5-6.2 3.3-18.35 3.6-24.25 5.4-54.55 1.45-24.8-5.15-49.3-6.6-24.45-18.1-37.2M222.55 296.55l-.25-1.5-.3-1.05q0-.55 1.5-.95 1.5-.45 1.8.2.9 1.8.9 3.35 0 3.35-3.25 6.7-20.1 20.1-26.85 27.2l-3-3q7.3-7.75 16.1-16.6l11.45-11.2q1.9-1.7 1.9-3.15m-43.5 53.75q-3.55 4.4-5.15 7.15-2.2 3.8-2.7 7.3-.65 5.2-1.2 17.7.9 3.05 4.5 5.3.6.35.65 1.5l-.05 1.75-.25 3.15q0 1 .35 1.4t1.2.6l4.35-.05 1.6.5q.65.35 1.05 1.35l.8 1.55q2.45 4.2 2.45 6.35 0 1.1-.6 1.75l-5.9 4.8 1.1 2.9 1.05 2.55 6.35-1.05q1.05-.15 1.55-.6l.45-.45.2-3.05q.15-3.75.95-5.25 1.25-2.5 5-2.65l1.05-.05 1.85-.3q.3-.2.35-1.65.15-4.25 1.45-7.1 1.55-3.35 4.2-3.55l4.15-.75 2.85-.85q1.2-.5 2.3.35l1.45 1.65.8 1.1 2.1 2.1q2.05 2.5 2.05 4.4 0 .9-.75 2.25l-.85 1.5.45.5.55.45 1.4 1 .35-.5q3-4.9 5.05-5.4 1.15-.2 2.15.4l2.35 1.4 2.85 1.35 1.2-2.3 1.6-2.9q.55-.85 1.1-1.15l2.3-.5 3.45-.8q.5-.45 1.45-.35.95.05 1.45.55.6.6-.25 1.55-1.3 1.35-5.75 1.9l-1 .2-1.35 2.5-1.75 3.65q-.7 1.2-1.35 1.35-1.05.3-4-1.55l-3.7-2.55q-.35.2-2.45 3.65-1.15 1.95-2.8 2.25-1.1.15-2.25-.45l-1.95-1.45-.5-.4q-1.75-1.4-1.75-3.1 0-1.1 1-2.75l.2-.4q.2-1-.65-2.35l-1.75-2.05-1.5-1.75-.35-.5q-3.95 1.4-7.3 1.6-.75.1-1.65 2.35-1 2.55-1.1 5.6-.15 3.3-1.75 4.45-1.15.8-3.85.85h-1q-1.7.1-2.1.75-.4.7-.55 3.85l-.1 2.05q-.1 2.5-1.05 3.4t-3.8 1.2l-3.5.55-4.2.45q-1.45-.3-3.15-4.2l-1.4-3.9-.15-.65q0-.85.85-1.8l3.95-3.35 1.35-1.1q-.45-1.9-1.9-4.2l-.9-1.7-.1-.05-4.05-.8q-4.2-1-4.2-5.55l.15-1.95.1-.9q-3.95-2.35-5.2-5.3l-.5-2.5q.55-12.65 1.25-18.25.6-4.55 3.05-9.1 1.9-3.45 5.9-8.65zm232.55-82.55q.1-.7 1.85-.5t1.65.9l-.3 4.45q-.05 2.7.3 3.75.25.7-1.3.3-1.5-.35-1.75-1.05-.9-2.65-.45-7.85"/><path fill="#0d131a" d="m438.35 291.55-6.7-.15q-7.25-5.55-15.25-11.2l-6.65-4.6q-3.35-2.2-3-3.6.4-1.45 3.9.75 15.25 9.65 27.7 18.8M356.7 346.4l5.5 1.25q6.5 1.55 12.15 3.5 18.05 6.1 21.5 13.4.5 1.05.6 3.4l.05 4.45-.25 8.1q1.55 1.9 2.7 2.4 1.85.85 1.85 2.8 0 1.2-.7 2.9l-.9 2.75q-1.25 3.55-1.25 4.5v.1q4.25 2.05 5.25 3.4.5.25 1.6-1.1l1.9-3.1 1.25-1.7q.95-.85 2.1-.55l3.45.75 3.2.5q.7 0 1.1-.5.75-.9 1.05-3.55l.1-1.05q.55-5.1 1.25-7.25.95-3 2.9-3.3l1.35-.35q3.8-1 6.05-.7 4.05.5 5.85 4.65 1.15 2.7 3.5 5 1.7 1.75 3.45 2.75 2.85 1.55 3.05 3.85l.05.45q0 1.95-1.9 3.65-2.6 2.4-2.6 4.2l.1.4.25 2.05q0 2.9-1.25 5.75.7.7 1.25.7l.7-.05 4.2.3q2.65.75 2.85 3.25l.05 1.3q.15 4.85 1.05 5.55l1.9.25q1.4-.2 1.75-.95.4-.55.4-1.65l-.2-2.25-.3-1.85-.15-.55-.05-.55q0-2 3.25-4.6l1.65-1.05q2.65-1.55 3.1-2.25V404q0-3.45 2.2-5.05 3.95-2.7 4.75-3.95l-1.2-1.5q-1.95-2.2-2.8-3.6-1.45-2.25-1.45-4.15 0-.85.3-1.6 1.1-3.05 1.1-4.95 0-1.75-.95-3.2-1.8-2.85-1.8-6.9l.05-1.1q.1-.65.5-1.05.45-.45 1.05-.5l8.95.35.5.4q2.25 1.9 3.95 2.05-1-7.7-3.3-18.45-3.2-15.05-6.65-24.15-2.2-5.7-12.1-15.2l5.65 2.75 1.7-1.9q6.6 6.85 8.45 11.8 4.05 10.55 7 28.95 1.5 9.25 2.25 17.15.1.7-.35 1.25-.4.55-1.1.65-2.8.45-5.15-.55l-2.65-1.7-.1-.15-5.75-.35q.1 1.9 1.85 4.75 1.5 2.3 1.5 5.1 0 1.25-.8 3.1l-1.3 3.1-.1.45q0 .95 1.6 2.7l2.55 2.65q2.05 2.4 2.2 3.35v.4q0 1.3-1.95 2.85l-5 3.4q-.75.55-.75 2.15v2.45q-.45 3-4.1 5.2l-1.3.85q-1.65 1.3-1.95 1.9l.05.15q.55 2.2.55 3.65 0 2.15-.95 3.6-1.3 2-4.1 2.45-2.9.45-4.7-1-1.35-1.1-1.85-3.25-.3-1.25-.35-3.55l-.05-1.15-3.4-.3h-.9q-1.25 0-2.55-.75t-1.9-1.85q-.85-1.5-.05-2.8l.8-2.55q.45-2 .15-2.9-1.1-3.2 4.4-8.15.75-.75.7-1.15 0-.5-1.25-1.2-2.6-1.4-5-3.55-3.1-2.9-4.4-6-1.95-4.5-8.25-2.85l-1.4.35q-.9 1.05-1.5 7.6l-.15 1.05q-.45 3.9-1.55 5.8-1.3 2.2-3.6 2.2l-3.05-.9-3.45-1.15-2.45 4.2q-2 2.5-4.3 2.4-1.7 0-2.75-1.35-.7-.95-4.25-2.45-1.75-.8-1.75-3.1 0-1.45 1.2-5.05l.95-2.95.45-1.3q-1.4-.7-2.85-2.2l-1.4-1.65q-.35-.4-.35-1v-.15l.3-8.7q0-5.45-.5-6.75-2.15-5.75-35.85-14.65-12.75 3.25-28.55 5.55l-30 3.45q-6 2.95-29.75 20.55l-22.95 17.25-2.65.05q-2.1-.45-1.55-.9 12.05-10 24.2-19.65 24-19.15 30-21.95l.65-.2q14-.4 34.25-3.65 15.3-2.45 25.55-4.95zm-117.75-28.75q-2.6-2.75-1.85-3.4.7-.7 3.8 1.55l10.85 8.2q10.95 7.95 19 12.4 3.3 1.75 2.7 2.75t-4.35-.8q-18.9-8.95-30.15-20.7"/><path fill="#0d131a" d="M373.15 283.7q1-.55 2.1-.85 1.45-.4 1.75.15t-.9 1.6l-2.25 1.65q-6.5 3.8-11.65 11.6-10.25 15.35-6.95 37.55.6 3.6-.55 3.85-1 .15-1.8-3.5-3.3-17.85 1.7-31.15 5.15-13.85 18.55-20.9M417 346q-2.55-2.5-1.45-3.4 1.05-.9 3.65 1.55l2.45 2.55q2.45 2.75 3.65 4.9.85 1.35 1.35 2.85.65 1.8.1 2.05-.9.4-3.3-2.9l-4.05-5zm31.75-34.65 2.4-.15q3 .2 3.6.55 2.4 1.65 4.3 3.65 3.75 3.95 3.95 7.6.25 5.1-1.15 15.5-.8 4.3-1.75 4.2-1-.15-.75-4.1.4-10.5.15-15.4-.15-2.25-4.75-6.75-3.55-3.45-6-5.1M215.15 104.6q.2-.7 2-.15 1.8.5 1.7 1.2-.95 5.95-.8 14 .1 6.15.75 12l.35 3.85q0 2.2-5 4.65-4.35 2.05-10.25 3.7-8 2.2-10.1.5-5-4-5.25-18.55-.2-10.7 1.2-16.2.2-.7 1.9-1.3 1.75-.65 1.75 0l-.7 4.15q-.7 5.25-.65 11.05.05 6.3 1.05 11.25 1.1 5.55 3 7.2 2 .65 10.15-1.95 8.15-2.65 9.55-4.4l-.3-3.15Q214.05 120 214.05 114q0-5.45 1.1-9.4M355.3 75.65q-.35-.6 1.35-1.85 1.7-1.3 2.05-.7l4.3 7.2q4.5 8.6 7.05 17.55 1.4 4.95 2.2 5.95.65.8 2.55.5l17.4-2.65q.85-.85.25-4.45-.95-5.6-5.55-15.25-.3-.7 1.5-1.3 1.8-.65 2.15 0 3.15 6.7 4.6 12.15 1.65 6.45.45 9.8-.6 1.65-1.95 2.2-1.4.65-18.3 2.95-3.5.55-5.1-1.15-1.45-1.55-3.55-7.75-3.65-10.65-7.85-17.95zm-178.65 265.9 3.25-4.05 8.2-9.85.5-.45q1.95-1.95 3.9-1.35t5.45 4.15q5.55 5.65 21.55 19.1l19.2 15.7q2.4 1.8 2.65 4.05.3 2.15-1.75 4.7l-8.95 10.5q-2.65 3.15-4.7 3.35-2.1.25-6.45-2.35-8.75-5.25-21.95-15.95-13.5-10.95-19-17.45-2.65-3.1-3.2-4.65-.95-2.75 1.3-5.45m2.7 2.25q-.95 1.1-.75 1.9.2 1.1 2.35 3.4 4.7 5.05 19 16.6 14.15 11.35 22.3 16.75 2.8 1.9 3.6 1.85.75-.05 2.5-2.15l8.9-10.45q1.1-1.3 1.05-2.1-.1-.75-1.35-1.75l-18.2-13.95q-15.6-12.5-23.3-21.5l-2.2-2.45q-.7-.65-1.25-.6l-.7.15-.3.15-.65.65-7.75 9.4z"/><path fill="#0d131a" d="M420.45 290.65q5.7-1.5 12.8-1.25 7.15.3 10.8 2.15 2.65 1.35 10.4 7.75 7.85 6.45 8.6 7.95.9 1.9.9 4.15 0 3-2.05 4.2l-1.8.05-1.25-.9q-.7-.9-4.4-1.8-3.95-.95-8.6-1.2-11.55-.55-20.85 2-15.7 4.35-27.95 17.3-3.7 3.9-5.7 4.15-1.85.25-5.45-2.3l-.45-.3q-6.35-4.45-8.15-6.8-1.35-1.75-1.35-3.45 0-2.05 1.45-3.9 5.55-7.3 13.2-13.3 12.95-10 29.85-14.5m22.4 3.6q-2.6-1.35-8.95-1.2-6.35.1-12 1.6-16.65 4.4-28.65 12.95-8.4 5.95-13.35 13l-.1.15q-.85 1.2-.8 2 .05.45.6 1.2 1.65 2.1 7.4 6.05l1.55 1.05q1.6 1.05 1.9 1 .8-.1 3.65-3.1 12.95-13.75 29.7-18.5 10.65-3 22.15-2.15 5.4.35 9.55 1.5 3.9 1.1 5 2.35l.25-1.35q-.1-.95-.95-2.15-1.1-1.5-7.6-7.15-6.9-6-9.35-7.25m4.25-281.4q13.45 12.65 21.8 31.65 12.3 27.75 11.6 65.05-.5 27.85-8.6 50.15-7.95 21.9-21.15 33-4.6 3.85-9.85 5.7-5.1 1.75-9.25 1.05-3.5-.55-6-3.05l-1.95-2.55q-.35-.65 1.2-1.45t1.9-.15q.2.65 1.3 1.75 1.7 1.65 4.05 2 3.35.55 7.35-1.05 4.05-1.55 8.1-4.95 9-7.55 15.8-22 11.25-23.8 11.9-58.65.7-36.5-10.75-63.35-7.95-18.65-20.65-30.65-6.15-5.8-12.3-8.85-5.4-2.75-8.7-2.45-6.95.55-14.5 10.85-2.4 3.25-4.55 7.1l-1.7 3.25q-.3.65-2.8.7-2.55.05-2.25-.6l2.3-4.1q2.7-4.5 5.7-8.25Q414.35 1.2 422.65.55q4-.3 10.1 2.4 7.35 3.35 14.35 9.9m-278.25 48.8-.65.75q-.85.8-.5 2.25.3 1.25 2.15 3.9l1.55 2.2q-4.25-4.5-10.7-8.35-12.8-7.75-24.05-4.95-3.6.9-7.15 4.3t-6.4 8.65q-6.5 12.1-7.55 30.15-1.55 27.95 11.05 63.3 16.1 44.95 42.9 61.9 13.4 8.5 23.8 7.95 3.05-.6 4.05-1.7.5-.5 1.85.55 1.3 1.05.9 1.6-2.1 2.95-6.1 3.75-3.1.6-9.4-.95-9.2-2.25-18.4-8.45-28.65-19.35-43.95-62.05-12.9-36.05-10.65-65.75 1.45-18.85 8.45-31.95 3.15-5.85 7.35-9.7 4.05-3.75 8.4-5 9.55-2.7 21.95 1.95 8.95 3.3 11.1 5.65"/><path fill="#0d131a" d="M137 56.15q.45-.55 1.75-.35 1.25.25.85.8l-1.45 2.95q-1.65 3.9-2.7 9-3.4 16.3.2 38.6.25 1.4.1 2.85-.1 1.7-.7 1.85t-1.45-2.05l-.85-2.95Q125.6 70.4 137 56.15m15.05 116.15q.95-.2 2.4 4.3l1.85 5.25q2.5 6.45 6.3 13.25 12.1 21.75 32.2 39 .55.5-.6 1.25-1.2.8-1.8.4-15.4-10-27.2-28.85-9.65-15.45-13.15-29.8l-.45-2.65q-.15-2 .45-2.15M422.4 7.05q.35-.5 2.25.75 1.45.9 2.35 1.75 9.45 8.9 15.3 24.85 7.1 19.35 8.25 47.5.1 5.2-1.05 5.4-1.1.15-1.55-4-4.1-35.2-12.95-55.45-2.95-6.65-6.4-11.65l-4.05-5.25-1.6-2.1q-.95-1.3-.55-1.8m27.8 119.8q-.2-5.7 1.05-5.4 1.2.3 1.75 6.5 1.25 13.9-2 31.85-4.85 26.55-18.15 37.4l-2.05-.05q-1.45-.5-.9-1 12.35-10.25 17.55-39.6 2.95-16.85 2.75-29.7m-43.6-100.6q.45.9.45 2.05 0 2.2-1.95 5.85l-3.45 5.55q3.6 1.85 6.25 3.65 3.1 2.05 3.15 3 .05 1.5-3.15 3.85l-2.85 2.25 1.05 1q4.6 4 6.1 6.45.8 1.2.8 2.35 0 1.3-1.4 2.1-1.6.85-4.7 1.05l-5.05-.05.5 2.5.35 2.45-.15 1.55q-.3 1.15-1.85 1.4-2.45.35-8.85-1.05l.25 3.15q0 5.6-2.45 6.7-1.75.75-5-1.2-3.2-1.95-10.2-8l-.6-.5-1.3 1.8-1.8 2.4-1.5 1.15q-1.05.4-2.25-.35-2.05-1.3-5.75-6.1Q355.4 80 351 80.8q-1.8.3-3.05-.85-.65-.65-.95-2.35l-.25-2.8q-2.65 2.1-6.35 2.45-.7.1-1.05-1.1-.3-1.2.4-1.3 2.5-.25 5-2.25l1.95-2q1.8-2.3 2.5-1.6.55.55.25 2.55-.25 1.9-.1 4.15.2 2.2.65 2.5 1.75-.3 4.9-4.15 2.55-3.1 4.7-6.75.7-1.3 1.45-1.25.6 0 1.45 1.1l3.2 4.65q1.9 2.85 2.65 3.5l1.7-3.15q1.65-3.45 4.1-3.15.8.1 2.55 1.2l5.85 5.2q5.6 4.95 6.15 4.75.9-.3-.45-9.55-.25-1.8.4-2.1l1.75.2 5.65 1.55 4.15.8-.7-2.9-1.15-3.6q-.5-1.65.1-2l2-.1 5.25.3q4.2 0 5-.65-.25-.85-2.85-3.2l-3.5-3.15-2.05-2q-.65-.8-.65-1.45l.05-.5q.2-.7 3.2-3l3.3-2.45q-.85-.65-4.15-2.2l-5.1-2.65q-1.15-.7-1.2-1.1-.1-.4.7-1.4 3.7-4.75 5.3-8.4 1-2.35.8-2.9-.4-.7-3.35-.4-3 .3-5.6 1.25l-2.25.15-.1-1.8q.7-9.3.7-13.2l.15-5.7q0-2.8-.35-3.4-1.75-.05-6.45 4.95-4.65 4.9-9 11.25-1.55 2.35-2.3 1.9-.6-.3-.85-2.65-.5-4.45-1.4-8-1-3.7-1.75-3.8-.95-.1-3.95 3.5-2.8 3.3-5.5 7.5-1.05 1.7-1.8 1.45-.65-.2-1.25-1.65-2.55-5.75-5.3-10.1-3.2-4.9-4.9-5.05-1.3-.1-4.05 5.3-2.8 5.6-5 13-.5 1.75-1.2 1.75l-1.6-.95q-3.25-2.7-4.05-2.85-.35.85-.15 6.6.1 2.3-.6 3-.45.4-1.5.2l-8.05-2.15-.1 2q-.25 1.7-1.6 1.9t-1.5-.7q-.55-4.4.8-5.8.85-.85 2-.7l7.1 1.5q.05-7.95 3.15-8.55 1-.15 2.45.55l2.3 1.4q2.55-8 4.75-12.4 3.65-7.25 7-7 3 .2 6.7 5.85l5.15 9.5q3.35-4.85 5.15-6.85 3.35-3.7 5.6-3.4 3.85.55 5.85 10.3 4.3-5.8 8-9.2 5.25-4.75 8.4-3.8 3.2.9 3.2 11.6l-.7 10.7q2.9-.75 5.5-.55 3.3.3 4.3 2.1M202.7 25q3.25 2.35 9.4 9.45 1.2-1.75 2.2-2.6 1.3-1.1 2.9-1.35 2.8-.4 6.1 4.85 2-2.45 5.4-4.85 3.55-2.5 5-2.25 1.95.3 2 5.65.05 2.9-.3 7.85l3.25-.75q.7-.2 1.05 1.05.4 1.25-.3 1.45l-3.1 1.35q-2.1.9-3.1.45-1.2-.5-.4-7.55l.75-7.15q-.95-.2-3.85 2.75-2.75 2.75-5.25 6.2-1.7 2.35-2.95-.25-3-5.95-3.75-6.25-.85.2-1.85 1.75l-2.05 3.5q-1.25 2.2-2.85.25l-4.65-5.95q-4.8-5.85-5.7-5.75-1.8.1-4.6 15.3-.25 1.35-.9 1.55l-1.45-.25-4.2-1.7-3.5-1.3-.05 1.25q0 2.7 1.3 11.95l.05.15q0 1.3-.45 1.7-.45.35-1.8 0-4.5-1.55-5.65-1.65.1.55 1.55 3.75.5 1.15.35 1.55l-1.45.85-7.15 1.8q-4.15 1.1-4.3 1.5-.1.25 2.55 3.15l4.25 5.05q1.1 1.55-.4 2.3l-3.1.9-2.25.5 6.45 5.2q1.4 1.2.05 2.55-7.8 7.7-8.9 9.2l8.9-.55 2.1.05q.55.35-.45 2.45-1.3 2.7-2.25 5.4-1.1 2.95-1.1 4.05 1.1-.1 4.6-1.2l6.1-1.9 1.25-.1q.65.25.9 1.4 1.55 6.3 2.05 7.1.7-.35 2.9-2.75l4-4.35q.95-1 1.45-.9.45.05 1.2 1.1l2.75 4.1 2.25 3 2.85-4.05 3.4-5.6q.75-1.15 1.3-1.2.45 0 1.35.9 8.1 7.65 9.3 8.05.9-.8 2.5-8.35.45-1.9 1.15-2 .45-.05 1.55.9l1.4 1.4 1.25 1.15.15-2.9q.15-2.2.75-2.2.4 0 1.6.95l1.5 1.1q1.7 1.1 2.95 1.45.7.2.3 1.65t-1.1 1.25-1.95-.8l-1.85-.95-.65 2.05q-.4 1.05-1 1.2l-1.45-.45q-1.35-.65-2.4-1.55l-1.75 5.75q-1.2 2.8-2.9 2.85-2.85.2-10.25-6.65-3.8 5.75-5.95 7.65-1.2 1.1-2.2 1.05-1.2-.1-6.2-6.65-7.15 6.9-9.3 6.05-1-.35-1.85-2.4l-1.55-4.95q-7.25 2-10.1 2.15-1.9.1-2.55-.7-.65-.7-.4-2.75.35-2.95 2.5-7.6-9.5.15-9.95-1.55-.7-2.75 8.05-11.5-6.25-5.6-6.1-7.2.15-.95 2.45-1.9 1.6-.7 2.5-.85l-.25-.35-4.1-5.65q-1.3-2.05-1.3-3.1 0-.65.55-1.3.45-.5 2.85-1.35 3.55-1.25 9.4-2.3l-1.15-2.95q-.7-2.15-.35-2.85.3-.5 1.9-.35l5.75 1.1-.85-5.75q-.6-3.5-.65-4.4-.3-4 .9-5.2.55-.55 3.45.35 3.05.9 6.55 2.7 1.65-7.75 2.15-9.35 1.65-5.65 3.8-6.5 1.6-.7 3 .4m2.65 224.4q3.55-1.6 5.85-.05 1.25.8 2.4 3.05l.45.8 13.6 30.5q2.55 4.75 1.4 7.95-.7 1.95-2.8 2.9-3.05 1.35-5.15.1-1.15-.65-2.45-2.75l-.5-.8q-1-1.55-8-16.95l-7.55-16.95q-1.1-2.6-.35-4.65.7-2.05 3.1-3.15m5.7 5.6-1.5-2.7q-1.25-1.45-2.9-.45-1.95 1.25-.85 4l7.75 17.35q6.7 14.75 7.5 15.95l1.4 2.3q1 1.1 2.65.35 2.25-.95-.55-6.55l-6.65-14.9zm205.5-30.1 3.75.15q5.75.95 4.95 6.5l-1.8 12.75L421 260q-1.1 6.1-2.35 7.55-1.4 1.6-5.5 1.1-2.2-.25-3.25-1.25-1.5-1.45-1.5-4.75 0-4.45 1.6-15.2 1.8-11.7 3.85-19.4.7-2.6 2.7-3.15m3.4 2.3-1.65.1q-.75.25-.85.65-3.65 12.8-5.65 35.5-.1 1.4.15 2 .35.65 1.4.8 2.15.2 2.75-.8.55-.9 1.5-6.05l2.65-17.35 1.85-12.95q0-1.55-2.15-1.9m-258.2 148-.2 3.4.1 3.2-.1 1.7-1 1.25-3.5 3.6-2.15 2.1 3.15 3.75q1.75 2.25 1.75 3.7l-.15 1.1-1.2 2.55-1.4 2.1q-.9 1.3-.9 1.95l.25.75 2.7 2.8q1.55 1.7 1.5 3.05-.05.9-.8 1.65l-1.25 1.2q-.35.5-.35 1.7l.25 2.7.1 1.35q0 1.3-.55 2.2l-1.65 1.6q-1.45.95-.3 3 1.55 2.75 1.55 3.2 0 2.05-1.55 3.6l-1.25 1.1q-1.8 1.55-2.55 2.45-1.05 1.35-1.05 2.65l.1.75.5 2.25q.9 3.55.9 8.45 0 4.35-1 4.45-1 .15-1.3-3.4-.1-1.45-1-4.4l-1.35-4.65-.55-2.3-.2-1.6q0-2.4 1.95-4.5.45-.5 3.35-2.85l1-.85q.55-.65.55-1.25l-.5-1.2-1-1.65q-.55-1.3-.55-1.9l.2-1.15q.3-1.05 1.4-2.05.9-.8 1.95-1.3.6-.35.6-1.1l-.1-.85q-.3-1.8-.3-3.1 0-2.55 1.15-3.95l.1-.3q0-.5-1.05-1.7l-1.9-2.1q-1.05-1.25-1.05-2.95 0-3.7 1-5.6l.95-1.95v-.1q0-2.15-3.05-6l-.25-.35q-.45-.65-.45-1.1 0-.7 1.75-2.55l4.8-5.25.6-.75.15-2.4.2-3.5q.15-1.2.5-1.75.9-1.5 8.75-3.6.7-.2 1.1 1.5t-.2 1.85l-4.2.75z"/><path fill="#0d131a" d="M248.15 393.95q-.4-.25.3-1.5.75-1.25 1.3-.85l4.85 3.1q1.4 1 1.4 1.5l-.05.5-.3 1.3q-.8 3.15-2 5.9l-.95 2.45v.05l.55.85 1.65 1.45q1.2 1.05 1.2 1.85 0 1-.7 1.85l-2.8 3.15q-.55.55-2.5 1.8-1.9 1.25-2.25 1.6.3 1.3.85 2.1l.2.35 1.35 1.7q.8 1.05.8 1.95l-.05.5v.05l.35 1.4.5 1.9q.7 4.4 1.45 5.3l.6.65 1.65 1.45q1.1 1.1 1.1 2.35 0 1.3-.85 3l-2.1 3.25q-1.25 1.8-1.25 2.85 0 .8 1.35 2.55 1.3 1.7 1.85 3.2l.6 2.55q.05.45 1.05 1.45l.5.45q1.65 1.65 1.65 3.55l-.2 1.5q-.15 1.45.25 2.25 1.9 1.9 2.5 2.9.3.55.15 1.4-.2 1.05-1.35 1.25l-2.6.3-1.9.75q-1.85 1.05-3.65 1.35-2.75.5-4.6-.9-.6-.45-2.9 1.2l-1.4.9q-1.35.65-3-.45l-2.35-2.05-.45-.35-3.15 2.6q-1.5 1.1-2.85 1.25l-2.2-.35-1.8-.65-1.3-.15q-.35.05-.7.4l-4.3 4.15q-3.35 2.9-5.25 2.95-3.1.15-5.8-.95-2.25-.9-4.95-3.05l-.55-.4q-.45-.4-1.05-.3l-2.1.7q-.9.3-1.8 1-1.1.95-2.15 1.1-1.25.1-3.2-.75l-2.95-1.35-3.25-1.35-3 .45q-2.05.25-3.15 0-1.3-.3-4.05-2.65-.75-.2-2.5.4l-5.25 1.7q-3.75 1.1-5.15.85-2.05-.4-4.25-2.5l-.55-.5q-1.35-1.05-4.4-2.6-2.95-1.45-3.8-1.55-6.15 0-7.95-.8-2.05-1-2.4-4.6l-.55-4.4-.05-1.5q.05-3 4.1-6.5l4.5-4.2q-.2.15.55 1.9.75 1.7.9 1.55l-4.25 3.45q-.95.85-1.2 1.25-.3.55-.3 1.5v.75l.6 4.75q.2 1.95 1.25 2.3l5.55.3q1.8 0 5.85 3l3.7 3 .75.65q1.55 1.45 2.5 1.6.55.1 3.25-.8l5.5-1.9q1.6-.55 2.95-.6 1.9-.1 2.85.85 1.5 1.5 3.2 1.75l4.2-.35q.9-.15 2.15.5l3.15 1.9 2.85 1.3 1.4.45.4-.3q1.4-1.15 2.95-1.65l3.65-.95q1.25-.1 2.4.85l.45.35q2.05 1.65 3.75 2.3 2.4.9 5.3.5 1.5-.25 3.75-2.1l3.65-3.5q1.15-1.15 2.85-1.05l2.55.55 2.55.2q1.15-.1 3.15-1.9 1.4-1.4 2.15-1.9l2.55-.1 1.05.85q1.25 1.1 1.6 1.2l.8-.55q1.9-1.35 3.1-1.75 2.25-.7 3.95.6.95.7 2.7.6 1.4-.1 2.2-.55 1.25-.7 2.9-1-2.1-1.55-2.1-4.1l-.05-2.8-.85-.8q-1.65-1.65-1.95-3.9l-.25-1.6q-.3-.85-1.3-2.15-1.65-2.2-1.65-4.35 0-1.7.95-3.95l1.85-3.75.5-1.4q0-.55-.9-1.3l-1-1.1q-2.1-2.8-2.8-7.2l-.35-1.3q-.55-1.85-.55-2.5l.05-.55-1.1-2-.2-.3-1.1-2.4q-.45-1.35-.45-2.1 0-.55.9-1.35l4.1-3.75 2.35-2.35-.75-1.2-1.35-2.05-.2-1.25q0-2 1.75-9.15l.1-.5q-.8-.85-3.45-2.7m133.1.9.65-1.7q0-2.65.15-3.3.3-1.65 1.75-2.55l.45-.6-.15-1.85-.25-1.7q-.2-1.6 2.45-3.95 2.25-1.95 7.5-5.3.55-.35 1.15 1 .55 1.35.15 1.6l-5.5 3.5q-2.7 1.8-2.95 2.45l.2 1.25.25 2.15-.1 2.35q-.25 1.4-1.4 2.1-.6.35-.6 3.6-.05.9-.9 3.65l-.05.3q0 .3.75.8l.8.6.4.35 2.8 2.2q1.75 1.7 1.75 3.5v.4q-.4 4-2.6 7l-.1.15q-1.1 1.5-1.1 2.25 0 .55.7 1.5l1.65 2q.7 1.05.7 1.9 0 2.2-2 4.8l-3.15 4.2q-1.4 2.05-1.4 3.2l.2 1.05q.85 1.55.7 2.3-.1.55-1.2 1.7-1.95 1.85-1.95 2.6 0 .8 1.3 2 2 2.05 2 4.7l-.3 2.45-.25 2.15.25 1.5.2 1.3q0 2.75-3.4 6.6l-5.2 5-.15 1.7q0 1.35.25 2.6l.1.85q0 2.9-3.3 6.05-2.6 2.4-4 2.8-.35.15-.95.65h.35l10.3-.65 7.3-1.35q1.25-.5 2.35.35l1.35 1.65 1.3 2q.7.75 1.7.4 4.75-1.5 6.05-1.85l4.05-.5q.8.1 3.25-.85l4.5.7 7.75 1.25 8.2.5q2.2-.05 4.35.7l3.15 1.1q3.45.85 7.55.05l5.15-.55q1.55.15 3.7 1.4l2.55 1.1q4.1 1.3 6.9 1.45 3.75.2 6.5-1.45 6.9-4.25 14.2-3.25l4.6.3q3.25-.05 5.6-1.2l2.25-1.15 8.2-4.4q4.1-2.2 5-2.5 3.6-1.25 3.6-2.45v-.25q-.55-2.35-.55-6.6 0-4.2.55-6.65l.05-.5q0-1.35-1.95-3.9l-1.05-1.45q-1.05-1.35-1.8-3.3-.9-2.55-.9-5.35 0-1.25.25-2.25l1.05-3.8q.85-2.5-3.45-4.2-4.7-1.35-5.15-1.85l-3.6-4.05q-3.45-4.4-3.65-7.25l-.15-3.2q.3-5.6.05-6.2-.9-1.1-.9-2.55 0-.8.65-2l1.15-1.95.85-1.5q1.5-2.15 1.5-3.45 0-1.1-.9-2.2l-2.4-3.2q-1-1.6-1-2.8 0-1.7 1.15-3.6l2.35-4.7q1.45-3.45 1.45-4.75l-.05-.25q-.4-.5-2.2-1.5l-2-1.05-1.9-1.3q-1.05-1.05-1.45-2.5-.2-.85-.25-2.4v-4q0-.65-.2-.85l-.8-.25-4.55-.65-2.15-.2q-.7-.05-.55-1.5t.85-1.4l2.45-.65 4.95-.2q3.2.6 3.6 5.95.45 6.05.6 6.2.5.5 2.3 1.5l3.1 1.6q2.2 1.25 2.7 1.95 1.25 1.75-1.6 7l-3.7 5.75q-.55.95 0 2.05.45.95 2.6 3.7 2.05 2.7 1.45 5.65-.35 1.65-1.9 4.1l-1.3 1.85q-1.25 1.85-1.15 1.95.6.8.85 2.5l.25 4.9.1 3q.1 1.55 2.05 4.7 1.75 2.9 4 5.45 1.05 1.2 3.35 1.95l3.85 1.15q4.05 1.35 2 5.45l-.95 3.35q-.55 2.5.45 5.25.65 1.95 1.9 3.6l1.05 1.4 2 3.05q1 2.25.55 4.25-.4 1.75-.1 6.15.25 4.05.75 6.15.65 2.9-1.9 4.85-1.35 1.05-4 1.95-1.75.6-6.1 2.35-5.4 2.2-8.05 3.55l-2.25 1.1q-5.1 2.55-11.95 1.7-2.25-.3-5.2.55-3.35.9-6.75 3-4.75 2.9-8.35 2.6l-7.9-2.25-3.1-2.1-2.4-.85-4.15.3-4.9.35-3.85-.75-8.15-.25q-3.2.1-8.1-1.05l-7.45-1.9-4.1-.1-3.3.3q-2.4-.3-8.5 1.65-2.8.9-4.85-.6-1.15-.8-2.35-2.75l-.2-.3-8.45 1.7-9.7.7q-4-.3-4.35-2.35-.25-1 1.85-3.4 1.8-2.05 3.4-3.1 2.6-1.8 3.3-2.75.8-1.2.45-3-.45-2.3-.25-4.45l.3-1.95.55-.8 5.45-4.9q2.5-2.6 2.15-3.65-.45-1.25-.05-2.9l.7-2.45q.25-1.25-.55-2.35l-1.75-1.75q-2.3-2.2-2.3-4.45 0-1.45.95-2.8l2-2.3q.5-.5 1.25-4.1.8-3.85 4.1-8 1.1-1.35.9-2.45-.15-.75-1.2-2-1.9-2.3-1.35-4.8.3-1.5 1.7-3.35 1.7-2.35 1.95-5.15.15-1.8-1.75-2.95l-2.7-1.25-1.65-1.6q-.95-1.5-.4-3.35zM623 149.05l.5-6.4q22.7 31.6 24.7 39 2.7 10-8.15 23.7-10.45 13.1-24.25 18.85-11.15 4.65-24.75 3.3-12.5-1.2-15.3-5.55-.9-1.4-4.35-10.4l4.1.75q2.45 6.55 3.15 7.75 1.8 2.8 12 3.7 11.95 1.1 22.55-3.25 12.15-5 22.8-17.3 11-12.75 8.85-20.65-1.7-6.25-21.85-33.5m-33.3-51.4 6.1 7.75 12.5 16.55-2.3 4.7q-14.45-18.8-20.2-25.55-1.5-1.75-3.65-2.8-1.45-.7-5.15-1.9l-32.65-10.05-.7-5.05 35.7 10.55q3.9 1.2 5.65 2.1 2.7 1.35 4.7 3.7M521.45 79.2l-29.1-9.1q-.7-.2-.2-1.9t1.2-1.45l26.35 7.6zm6.2 59.85q.65.35-.05 1.9-.7 1.6-1.35 1.3-14.5-6.25-33.65-7.85l-11.8-.55-4.7.15q-.7.05-.45-2.1.3-2.15 1.05-2.25l4.7-.3q5.4-.25 11.25.25 18.4 1.55 35 9.45m-499 112.25q-3.55 15.85-5 29.3-.05.7-1.8.55-1.7-.2-1.65-.95 1.35-12.8 4.15-26.9l1.35 1.1zm49.75-78.05 1.25 4.75q-30.8 25.15-35.4 30-3.85 4-8.5 17.5l-5.25 2.55q5.35-18 10.35-23.3 5.05-5.3 37.55-31.5M143.25 203q.65-.35 1.85 1.9 1.2 2.2.55 2.55l-29.75 17q-.6.4-1.45-1.3-.9-1.7-.3-2.1z"/><path fill="#0d131a" d="M658.2 171.9q13.25 8.6 17.05 24.3 4.1 16.95-6.15 33.6-9.1 14.8-24.65 22.75-7.25 3.7-17.8 6.1-11.6 2.6-22.95 2.55-28.6-.05-41.3-16.05-11.75-14.8-7.15-32.1 1.4-5.45 4.35-10.5 1.45-2.55 2.7-4.05.45-.55 1.6.95 1.15 1.45.65 2-1.15 1.3-2.45 3.6-2.4 4.2-3.4 8.9-3.25 14.65 7.75 28.7 11.75 14.95 38.05 14.5 10.45-.15 21.25-2.8 9.7-2.4 16.65-5.95 13.45-6.85 22.1-19.5 10.65-15.55 6.75-31.7-4.15-16.95-18.65-24.45-4.55-2.35-9.6-3.5l-4.25-.7q-.7-.05-1.2-1.85-.45-1.8.25-1.75 10.6.55 20.4 6.95M78.65 389q.95-1.9 1-3.7l15.8-.6q10.05-1.05 16.7-3.35l-2 4.05q-6.15 1.95-15.85 3zm70.85-92.4q-13.45-26.9-45-33.4-15.05-3.1-36.8-.9-9.95 1.05-20.35 5.35Q36 272.25 27 279.6 5.1 297.35 4.6 323.3q-.2 12.25 4.2 22.9 4.35 10.35 12.65 18.2l4.2 3.6-.45 5q-2.9-2.15-5.65-4.75-8.95-8.4-14-19.8Q.25 336.6.05 323.4q-.4-27.9 23.2-47.15 9.65-7.85 21.9-12.95 11.15-4.65 21.8-6 21.55-2.6 39.15 1.45 33.65 7.7 48 37.3 14.45 29.9-1.7 57.5-4.8 8.05-11.7 14.75l-.3-5.7q4.55-4.9 7.9-10.6 7.55-12.85 7.85-27.15.3-14.35-6.65-28.25"/><path fill="#0d131a" d="M24.75 338.75q-1.15-16.4 13.3-27.15 17-12.65 44.3-12.7 28.35-.05 46.1 14.25 8.6 6.9 11.05 16.15 2.35 8.8-1.15 18.4l-2.7-3.1q2.2-7.85-.15-15.35-2.4-7.6-8.65-12.25-17.9-13.45-44.45-13.15-24.9.3-41.9 11.75-12.45 8.4-11.95 22.6.25 7.2 3.3 13.2.35.65-1.1 1.5-1.5.9-1.85.3-3.55-6.2-4.15-14.45M79.4 373.1q8.55.6 19.85-1.7 10.25-2.1 16.7-5.2l.55 4.35q-7.55 3.55-18.2 5.3l-19.15.75q-.7-.1-.6-1.8.15-1.75.85-1.7M490.75 62.3q4.2 1.65 4.7 12.3l.15 2.25q.3 4.2-.55 16.55-.95 13.5-2.15 16.8-1.35 3.6-2.95 4.7-1.55 1.1-5.1.95l-5.25-.6-2.6-.5q-.7-.05-.55-1.6.2-1.5.9-1.45l2.5.3 5.15.35 2.5-.3q.5-.45 1.45-3.1 1.05-2.75 1.95-15.75.85-12.3.55-16.15l-.1-2.3q-.45-8.65-1.85-9.2-3.05-1.15-18.55-4.3-.7-.1-.35-1.5.35-1.35 1.05-1.2l9.05 1.6q8.25 1.45 10.05 2.15m25.95 13.25q3.65-4.8 7.5-4.1h.2q1.55.15 8.4 2.2 8 2.4 9.9 3.95 2.25 1.85 3 5.6.4 2.2.4 6.5v9.45l-.1 5.45 8.75 3.75q5.4 2.35 6.05 2.9l.25.25q1.35 1.1 1.95 2.2.9 1.65.9 4.05l-.05 1.65q-.75 7.4-5.35 17.25-4.45 9.45-9.6 15.25-1.95 2.25-4.3 2.15-1.7-.1-5.2-1.7-10.4-4.7-12.85-6.45-1.7-1.25-2.75-2.65-1.6-2.1-1.1-3.95.2-.7 1.85-.25 1.7.45 1.5 1.15-.15.5.45 1.5.7 1.05 1.8 1.8 1.3.85 12.55 6l3.85 1.5q.7.05 1.45-.85 4.4-5.1 8.65-14.3 4.45-9.65 5.15-16.4l.1-1.35q0-1.5-.5-2.35l-1.1-1.2-.3-.25q-1.7-1.2-14.7-7.05l-.8-.55q-.2-.4-.15-1.45l.15-6.15-.05-9q0-3.75-.35-5.85-.55-2.95-1.85-4-1.4-1.15-8.5-3.25-6.1-1.75-7.9-2.05l-.4-.1q-1.25-.15-1.85 0-1.5.35-2.9 2.1l-1.5-.1q-1.1-.75-.65-1.3"/><path fill="#0d131a" d="M520.05 75.15q1.05.15 1.85 1 .75.8.95 1.8.65 3.9.5 10.8-.25 11.4-3.3 22.05-1.2 4.1-.5 5.7.5 1.15 2.9 2l11.8 4.2.9.75q.3.55.2 1.15-.75 4.1-1.9 7.8-2.3 7.2-5.4 9.65-.6.45-1.3.35t-1.15-.65l-.4-1.05q0-.85.7-1.4 1.95-1.55 3.8-6.3 1.5-3.75 2.3-7.65l-10.75-3.95q-2.7-.95-3.8-2.05-1.55-1.55-1.55-4.4 0-2.05.8-5.05 2.95-11.15 2.95-25l-.25-7.35V76.3q.1-1.2.65-1.15m89.4 45.65q2.1.6 2.95 1.8l3.95 5.1 6.15 8.55q2.8 4.2 2.95 7.9.2 4.7-3.45 10.75-6.85 11.5-18.6 18.45-7.85 4.65-12.1 5.05l-3.15.1q-2.6-.2-3.9-1.75-1.25-1.55-4.9-7.85-3.8-6.6-4.5-8.65-.4-1.2-.4-2.3 0-1.25.55-2.15.8-1.35 2.3-1.65 3.15-.6 6.65-2.25 5.4-2.6 10.25-7.25 5.25-5 8.6-12.95l2.3-7.05.3-.45q-.7.1-1.1-1.55t.3-1.85q2.45-.7 4.85 0m12.6 24.05q0-3.5-2.25-6.9-9.55-14.2-11.4-13.7.2 2.7-2 8.35-3.25 8.3-9.8 14.55-5.25 5-11.35 7.95-4.05 1.95-7.65 2.65l-.1.45.2 1.15q.55 1.55 4.2 7.85l4.6 7.55q.85 1.15 3.8.4 4.05-.65 11.75-5.35 11.1-6.85 16.95-16.65 3.05-5.15 3.05-8.3"/><path fill="#0d131a" d="M561.15 185.75q-.3.6-.2 1.1l3.8 11.4 2.05 6.15q.6 2.45 3.9 4.25 3.25 1.75 8.2 2.45 7.25 1 17.15-1.75 9.1-2.6 15.6-6.85 2.4-1.55 2.8-2.65.35-1-.7-3.05l-2.2-5.3q-3.05-7.85-3.85-8.65-.65-.65-2.55.7-5.25 3.5-11.45 6.1-9.7 4.1-17.15 3.7-6.6-.35-10.85-3.1l-3.1-2.85-.95-2.6zM547.2 153q-.65-.1-.35-1.85.25-1.7.95-1.55l4.9 1.05q1 .15 1.3 1.1l12.3 34.75q2.75 2.9 9.75 2.9 6.15 0 15.35-3.3 7.6-2.7 11.7-5.4 3.8-2.45 6.4-.1 1.4 1.2 4.85 10l2.05 5.05q1.5 2.95 1.15 4.75-.4 2.4-4 5.05-6.9 5.05-16.15 7.85-10 3-18.1 1.85-7.25-1-11.5-4.4-3.05-2.5-3.8-5.4l-1.95-5.8-3.9-11.7q-.95-3.75 2-7.15l-9.95-27.1zm-438.05-9.05 7-6.7 2.4 2.5-5.9 5.65-.2.9q.05 1.55 1.6 4.9 4.8 10.85 22.1 35.9.2.35-1.1 1.45-1.35 1.15-1.75.6-13.95-19.05-19.05-27.6-8.55-14.3-5.1-17.6m-30.4 36.35q-2.45-5.85-2.45-9.75 0-2.75 1.2-3.95 4.25-4.25 10.95-9.75 3.8-3.05 9.3-2.9 2.8.1 5.05.85.7.2.45 1.35-.3 1.2-1 1.05l-4.05-.25q-4.6.2-7.5 2.6-5.6 4.55-10.7 9.4-.9 1.7.95 7.25 2.75 8.15 10.8 19.5.4.55.3 1.25l-.65 1.1-10.3 8.35q5.1 6.1 11.35 16.25 7.6 12.35 10.15 20.45.25.7-1.15 1.1-1.35.4-1.6-.25-2.7-7.05-12.85-22.6l-9.7-14.3q-.7-.85-.35-1.6l.65-.75 10.35-8.35q-6.25-9-9.2-16.05"/><path fill="#0d131a" d="M111.9 149.2q1.05 1.9.5 2.35L99.15 162.2q1.3 10.65 6.55 18.8 2.65 4.2 5.7 8l4 4.8 1.85 2.35q1.25 1.7 1.3 2.85.1 1.9-2.25 3.75l-8.35 6.95 7.65 10.75q1.1 1.45 1.1 3.1 0 2.35-2.2 4l-14.3 10.35q-.75.65-1.65-3.25l13.85-9.85q.7-.55.8-1.05t-.4-1.2l-8.65-12.15q-.4-.55-.3-1.25.05-.65.6-1.1l10.1-8.15q.7-.55.7-1.05l-.55-1-4.45-5q-4.8-5.5-7.5-9.75-4.25-6.65-6.15-15.2l-1.1-7.65q-.05-.75 1.25-1.7l13.55-10.8q.55-.45 1.6 1.45m-37.55 64.6q.8 1.2.85 3.9l.25 8.1-.1 2.05q-.25 2.05-1.25 2.95-1.25 1.1-4.1 1.1-9.15 0-22.05 5.5-17.15 7.3-20.7 19.1l-2.45.4-1.8-1.55q-1.65-2-1.65-4.4l.05-.95q3.35-17.65 5.2-20.15 3.15-4.2 13.75-9.95 14.95-8.15 29.6-7.85 3.2.05 4.4 1.75m-2.2 1.95q-.35-.75-1.6-.75-13.1 0-28.2 7.8-10.8 5.55-13.45 8.7-.7 1.1-2.2 8.35-1.4 6.75-1.85 10.6l-.05.45q0 .65.3 1.55 5.45-11.85 22.15-18.75 12.7-5.25 23.45-5.3 1.7 0 1.9-1l-.2-9.65zm9.8 23.6q12.5.45 17.65 2 5.6 1.65 8.5 8.85l1.6 3.35q4.3 8.95 4.65 10.3.2.7-2 0-2.2-.65-2.4-1.35l-3.4-7.45-1.55-3.3-1.8-3.35q-2.25-3.55-4.7-4.3-4.65-1.4-16.65-1.8-11.2-.35-14.6.35-2.8.55-3.9 1.35-1 .75-1.2 2.25-.15 1.65 1.25 15 .1.7-1.65.9-1.7.15-1.8-.55-1.5-14.05-1.25-15.8.35-2.35 1.95-3.75 1.9-1.65 5.85-2.35 3.9-.75 15.45-.35m522.6 19.75q-.05-.7 2.05-.9t2.15.5l.1 1.4q0 2.05-1.05 5.55l-1.4 4.5q1.65 1.45 2.85 4.45 9.7 4.05 11.5 10.8.45 1.9.45 3.75 0 3.1-1.15 6.2-.95 2.65-2.35 4.35-1.9 2.35-7.65 1.45-4-.65-11.25-3.25l-1.9-.65q-6.7-1.95-8-3.55-1.7-2.1-5.4-10.1-4.1-8.8-4.1-11.9 0-3.05-1.3-10.6l-1.3-7.05q-.05-.7 2.1-.5t2.25.9l.85 6.9q.85 7.2.85 10.35 0 1.95 4 10.35 3.95 8.35 5.4 9.55.8.65 2.55 1.3l3 1 2.2.75q8.25 2.95 11.8 3.65l3.8-.2q1.3-1.15 2.2-4.15 1.1-3.7.25-7.05-.8-2.95-3.6-5.55t-6.95-4.2q-.75-.35-1-1.1-.85-2.6-2.75-4.2-.85-.7-.6-1.75l1-5.2q.6-3.9.4-5.8m47.7-14.25q-.5-.5 1.05-2 1.5-1.45 2-.95l3.7 5q3.7 5.25 4 7.15.4 2.55 4.3 20.2l.75 4.3q.15 3.3-1.65 6.1l-8.1 13.1-4.1 6.35q-2.1 2.6-4.55 3.55-2.1.85-4.95.7-6.05-.4-9.4-6.05-2.25-3.85-2.25-8.25 0-6.65 5.75-16.3l1.05-1.8q-1.55-4.1-4.4-15.05l-5.95-1.75-4.95-1.35q-.55-.2 1.6-1.8 2.15-1.65 2.8-1.4l8.55 3.35q.85.3 1.1 1.2 3.6 13.8 4.6 15.85.4.8.05 1.85l-1.45 2.7q-8.1 13.5-3.45 21.4 2.4 4.05 6.6 4.3l3.3-.45q1.6-.6 2.4-1.65l1.55-2.7 2.5-4.4q4.25-6.65 8.85-13.35.9-1.5.9-3.65l-.4-3.4q-4.1-18.45-4.45-21.1-.25-1-3.3-4.9z"/><path fill="#0d131a" d="M664.25 231.65q-.1-.7 1.95-2.1 2.05-1.35 2.15-.65l1 9.8 1.3 11.15q.5 2.75-5.55 15.85l-1.85-.05q-1.6-.75-1.3-1.4l3.6-8.5q1.7-4.35 1.7-5.2zM637.2 262.1q.6-.4 1.5 1.4.95 1.8.3 2.15-1.8 1.2-3.6 3.05-3.6 3.75-3.6 7.35 0 3.2 2.55 6.95 1.25 1.9 2.55 3.15.55.5-.3 1.4-.8.9-1.35.4-1.85-1.45-3.55-3.55-3.4-4.2-3.4-8.35 0-4.85 4.3-9.8 2.2-2.45 4.6-4.15M41.1 335.75q4.15-1.1 7.9.05.7.2.05 2-.65 1.85-1.35 1.6l-4.6-.35q-4.75.5-6.8 4.65-1.9 3.85-4.65 10.15-3.5 7.85-3.9 9.8-.5 2.25-.85 8.55-.4 6.4-.4 12.5 0 6.7.65 8.45l4.9 6.75 7.3 9.15q5.1 5.85 8.3 5.9 2.15.05 4.05-1.85 5-5 4.15-12.65-.85-7.5-7.35-17.15-.4-.5-.3-1.3.7-3.35 1.2-7.65.55-4.3.4-5.15-.15-.65 1.65.55 1.75 1.2 1.8 1.55.2 2-.2 5.05-.4 3.35-1.3 5.6 4.25 6.4 5.75 10.4 1.7 4.4 1.7 9.75.05 7.95-5.05 13.05-2.95 2.95-6.95 2.8-4.9-.15-10.5-6.65l-7.25-9.05q-5.2-6.75-5.55-7.85-1.35-3.8-1.05-15.2.25-11 1.65-16.85 1.25-5.3 8.7-20.2 2.45-4.95 7.9-6.4m86.6-4.2q2 2 7.6 9.15 5.7 7.3 6.25 8.75.65 1.75.9 15.6.25 13.75-.25 16.15-.8 3.9-6.2 12.15-6.65 10.25-12.85 12.85-4.05 1.75-8.15-.75-4.15-2.55-6.3-6.5-1.9-3.45-1.9-7.3 0-4.45 2.55-9.7 1.1-2.25 4-6.65l.85-1.4-.7-5.9q-.35-4.3-.15-7.4l-9.4-8.85q-2.05-1.75-2.85-3.45-.75-1.65-.75-4.15 0-1.9.95-4.8 2.4-6.9 10.1-10.65 2.95-1.4 7.65-.9 5.4.65 8.65 3.75m4.55 11.5q-5.15-7-7.15-9.1-1.65-1.8-5.7-2.05-3.7-.2-6.35.9-2.8 1.2-5.35 4.1-2.15 2.5-2.75 4.35-.6 1.9-.6 3.45 0 2.8 1.85 4.4l10.1 9.5q.5.5.5 1.15.6 12.1.9 14.1l.05.35q0 .75-1.45 3-5.5 8.5-5.5 14.4 0 7.15 6.2 11.6 1.9 1.4 4.3.6 4.95-1.75 11.25-11.9 4.8-7.75 5.95-11.6l.05-2.75-.2-15.35q-.25-10.05-.5-11.15-.5-1.15-5.6-8"/><path fill="#eeeeef" d="M77.75 313.35q3.75 2 8.3 7.85 3.15 4.1-2.1 12.6-2.05 3.4-7.2 9.35-1.15 1.35-2.95 9.35l-1.55 7.7q11.3 17.4 6.3 29.25-1.8 4.2-5.4 7-2.9 2.25-5.4 2.7-3.45.6-12.7-13.3-8.6-13-8.9-15.85.9-32.85 3.9-37.05 3.8-5.85 6.75-9.6 5.4-7 10.45-9.75 5.4-2.95 10.5-.25"/><path fill="#c8c9ca" d="M50.05 332.95 55.1 326q5.2-7 5.9-7.4 1.85-2.7 4.4-4.55 4.95-3.65 12.05-1.65 7.25 2.05 8.95 8.75.75 3 .2 8.5-.15 1.9-3.5 5.7l-5.65 5.7q-1.95 1.8-3.95 11-1 4.6-1.65 8.85-1.3-1.45-3.75-2.55-4.85-2.1-10.4-.05t-8.2 7.85q-1.35 2.95-1.55 5.45-2.6-3.45-.5-21.4z"/><path fill="#0d131a" d="M72.4 310.45q4.3 0 8.1 2.1 5.2 2.9 7.1 9 1.05 3.45.65 6.9-.65 5.1-4.65 9.2l-6.05 6.3q-1.65 4.25-2.6 9.2-.75 3.9-.75 5.95v.15q6.8 12.3 6.8 22.4 0 4-1.2 7.9-1.5 4.5-4.5 7.5-2.55 2.55-5.5 3.45-4.45 1.35-10.25-5.35-3.95-4.55-10.1-15.1l-2.2-3.6q-1.85-2.6-2.45-6.2-.3-2-.25-5.3v-.8q0-2.3 1.1-14.3 1.15-12.5 1.7-15.2.55-2.65 3.75-7 1.95-2.65 7.35-8.9l2.05-2.35q3.4-4 7.35-5.3 1.9-.65 4.55-.65m0 4.05q-4.85 0-9.15 5.05l-2.05 2.4q-4.65 5.35-6.55 7.85-3.25 4.2-3.6 6.05-.55 2.75-1.8 14.85Q48 362.35 48 364.15v.85q0 2.8.25 4.25.4 2.75 1.7 4.6l2.35 3.9q5.05 8.65 7.7 12.3 5.8 8 8.85 7.05 2.25-.7 4.2-2.65 2.3-2.35 3.45-5.8 1.55-4.6.7-10.6-1.05-7.9-6.05-16.85-.65-1.1-.25-5.55.6-6.2 3.5-13.5l.5-.85 6.95-7.25q2.2-2.2 2.65-3.7.7-2.4-.65-6.85-1.7-5.6-6.6-7.85z"/></svg>