<svg xmlns="http://www.w3.org/2000/svg" width="734" height="576" viewBox="-1.4 -0.8 733.55 576.25"><path fill="#595757" d="M650.4 57.25q.7 2 3.8 4.15 14.85 10.3 19.65 13.15 14.15 8.5 21.55 8.5l11.15-.1q7.3.7 7.6 4.95.15 2 1.2 3.65.65 1.05 2.75 3.35l7.8 8.25q5 5.35 4.75 5.95-.3.85-2.6 1.8-2.35.95-3.6.6-1.35-.4-8.4-6.25l-9.4-7.5q-3.8-2.4-9.7-3.7-5.25-1.15-8.65-.8-2.6.25-3.65 1.1l-1.1 1.55q-.45.8-2.65.65-2.2-.2-3.2-1.25-.9-1-2.35-1.35l-2.3-.1q-2.9.45-3.7-2.05-.85-2.55-3.8-5.7-3.9-4.2-8.6-5.35l-11.3-.45q-5.5.6-7.75 1.7-1.3.65-3.35 5.05l-2.5 4.85-4.15 2.45q-3.6 2.1-4.75 3.4-1.25 1.45-2.45 8-1.4 7.35-.4 11.3l1.4 6.95q.7 4.3.65 5.95-.1 2.1.35 3.3.6 1.7 2.75 3.7l7.4 5.7q4.3 3 5.25 4.4l3.3 4.35q2.1 2.45 3.1 2.95l8 3.2q6.95 2.8 7.25 3.5.25.6.5 4.15.5 3.75 2.4 5.75l8.6 8.45q6.15 6.25 5.7 7.5-.5 1.5-3.55 1.5-2.95 0-4.15-1.2-4-3.75-14.5-10.3-11.35-7.05-16.95-8.65l-2.95-.5q-1.45.1-2.5 1.35-1.2 1.45-2.1 1.6-1 .15-2.35-1-1.9-1.6-4.65-2.25-3.8-.95-7.4.5-3.35-3.35-6.3-3.9l-6.35-.3q-1.05.45-3.05 3.8-2.1 3.4-2.85 6.15-1.1 4.2 3.05 19.6 4.9 18.2 12.75 28.65l4.35 4.25 3.55 3.6-1.15 3.05q-1.15 2.8-1 3.55l1.7 7.55q1 5.15.15 5.4-1.25.4-3.25-.85-2.35-1.45-3.35-4.2-1.65-4.55-5.25-10.65-4.8-8.1-9.25-11.4-6.8-5-9.5-6.45-5-2.65-9.8-2.4l-3.15-.15q-1.7-.65-2.9-3.45-1.85-4.2-4.4-6.8-3.5-3.45-7.6-3-3.95.45-6.45 5.8-1.2 2.5-3.2 10.05-.8 2.85-1.8 4.6-1.25 2.15-3.25 3.35-2.05 1.25-3.5 4.65-1.35 3.15-1.25 5.75.15 5 7.2 11.15l.2 10.15q.15 6.3-.7 6.85-1.2.75-3.45-.05-2.4-.8-3.35-2.75-5.5-11.15-6.95-13.5-4.75-7.85-9.35-9.15-2.1-.65-3.25-2.55-1.3-2.2-.45-5 .95-2.95.9-6.15-.05-3.15-1-4.85-.9-1.65-1.7-2.2-.7-.5-1.8-.5-1.05 0-2.25-.7-1.3-.7-1.9-1.75t-2.05-1.45-3.2 0q-1.95.45-5 3.25-3.3 2.95-3 4.7l.9 3.8q.5 2.05 0 2.55-.7.75-3.95 1.6l-4.4.3-4.9-4.45q-4.1-3.65-5.4-3.4-1.35.25-3.7 1.9l-5.25 3.85q-5.6 4.1-16.2-2.4-10.35-6.35-13.7-15.2-3.5-9.3-.85-19.5 2.85-10.8 9.8-7.7l5.15 2.35q2.7 1.25 3.35 1.05 1-.25 3.8-4.4 2.95-4.35 2.4-5.5l-1.75-2.7q-1.15-1.65-1.1-2.15.3-1.9 1.5-5.8 1.6-5.15 2.65-5.2 1.05-.1 2.85 1.5l2.8 2.8q3.5-.2 6.8-1 3.35-.75 4.85-1.65 2.15-1.35 2.5-4.55.4-3.9-2.7-8.15 7.8-5.15 4.45-14.75 3.5-2.9 6.9-10.9l3.2-7.65q.65-.35 3.1 2.7 2.4 3 2.15 3.7l-1 1.85q-.65 1.25-.35 1.75.4.7 2.5 1.55 2.2.95 4.1.95l4.35.15q2.5.35 3.35 1.8 1.15 1.9 3.3 2.25 2.55.45 5.7-1.55 10.2-6.45 14.8-11.35 8.8-9.45 4.85-18.3 5.75-8.15 6.4-15.55.55-6.05-2.35-12.6-2.55-5.8-5.5-9.55t-6.7-6.1q-1.9-1.2-2.45-2.45-.55-1.3.1-3.35 1.3-3.7 1.4-4.95.35-3.25-1.8-5.75Q529.9 30.6 519.6 22q-10.7-8.95-21-14.9-2.5-1.45-3.5-2.3-1.45-1.3-1.05-2.35.5-1.25 4.75-1.45 4.35-.25 5.95 1.35 2.3 2.25 9.85 4.55 9.1 2.8 16.95 2.15 2-.15 3.25 1 1.35 1.3 1.2 3.65-.15 2.7.8 4.35 1.2 2.05 5.15 4.8 6.05 4.2 11.9 7.2 8.25 4.3 12.75 4.15 7.35-.2 13.9-3.05 9.25-4.05 12.7-12.2l6.45-.5q3.75-.1 4.15 1.1l.15 3.5q.1 3.6.9 6.45 2.65 9.45 12.65 13.65 2 .85 5.1 2.6l3.95 1.95q2.1.7 5.9.8 4.25.1 5.85-.9 1.8-1.1 3.4-.85 1.65.25 2.5 1.85 1.25 2.4 6.4 4.05-.85 2.9-.2 4.6m-299.45 144.1q3.1 3.5 4.75 7.85 1.7 4.5 1.1 8-1.35 8.3-8.85 13.8-8.75 6.4-20.75 3.6-6.7-1.55-11.05-.75-2.85.55-4.2 1.9-.75.75-1.15 3.25-.3 1.9-.3 3.65 0 1.15-.55 1.75-.4.5-1.4.85-1.5.5-3.45 2.4-1.9 1.85-3.25 4-1.95-1.55-7.9-2.7-1.45-5.25-3.3-7.95-1.1-1.6-7.55-3.1-5.15-1.25-10.8-1.85-4.55-.45-8.35 2.05-3.9 2.5-6 7.35-1.6-1.25-3.1-2.05-1.65-.85-4.2-1.65l-7.45-.25-9.45 1.45q-4.2.8-6.65 3.8-2 2.35-2.75 5.9-.35 1.75-1.65 2.1l-2.35-.05q-5.25-.75-9.25 2.5-2.7 2.25-5.05 6.7l-4.7 9.2q-3.95 7.25-9.15 14.1-2.65-2.95-2.95-5.2-.25-1.95 1.3-4.2 3.8-5.35 5-11.4 1.1-5.65.05-12.9 2.55-2.35 3.05-5.85.1-3.5.6-4.8.4-1 4.3-4.3 3.6-3.1 3.9-5.05.2-1.15-1.45-4l-1.95-3.35-.2-3.15q-.1-2.6-.4-3.1-.15-.3-2.55-1.05-2.5-.8-3.65-2.35-1.35-1.9-3.2-1.3-1.4.45-2.55 2-.9 1.25-2.35 2-1.55.85-2.5.4l-1.9.05q-.85.45-1.5 1.45-2.65 4.7-3.5 5.3-.6.35-8-.2l-13.45-1.15q-6-.45-11.45 5-5.3 5.25-5.95 11.6-3.4-1.55-10 2.2-5.8 3.25-11.55 9l-3.7-4.1q5.85-5.7 9.6-13.2 2.45-4.75 4.95-12.65 6.7-4.1 7.8-7.6 1-3.1-1.75-8.8l1.2-4.2q.8-2.45 1.7-3.65.9-1.15 2.6-2.1l3.5-1.8q1.65-.95 3.15-5.4 1.1-3.4 1.35-5.75.15-1.45-3.65-5.7-3.9-4.35-6.1-4.8-2.75-.6-13.95 4.7-11.8 5.95-14.4 6.95-2.4.95-4.9.9-2.45-.05-4.1-1.1-1.85-1.15-5.05-2.15-3.8-1.2-8.35-1.75-4.35-.55-9.3 1.15-3.85 1.3-6.15 3.15-4.5 3.7-9.65 5.65l-1.85-4.2 2.05-1.95q1.35-1.45 2.25-3.6.95-2.25 3.5-3.85 1.65-1.05 4.45-2.05 6.7-2.3 11.6-7.6 3-3.25 8.15-11.35 6.35-2 7.05-2.7.45-.45.7-9.65 2.9-2 7.6-5.95l5.5-5.1q.7-1 1.25-4.8l.7-6q.25-2.05-2.25-5.6-1.9-2.75-3.75-4.4-1.05-.9-5.85-.8l-7.2.4q-2.5.05-4.1-1-1.45-1-1.8-2.55-.3-1.35-1.3-2.3-.9-.9-2.8-1.9-1.7-.85-7.1-1.7l-9.2-1q-8.3-.5-16.65 2.15-5.25 1.65-9.5 4.15-4.75 2.8-9.8 3-2.75.1-26 8.35-1.65.6-2.25-.85-.3-.7-2.9-3.3 2.15-1.65 7.1-7.05l6.4-7.55q1.55-2.1 3.55-2.75 1.75-.55 3.5.05 3.7 1.35 11.1.75 3.4-.3 11.65-5.05 7-4.05 13.8-9l.75-4q9.25-3.05 15-13.3 5.4-9.7 4.25-18.95 2.35-.75 5.9-3.85l4.7-4.1q1.4-.85 7 .65 6.15 1.65 7.15 1.5 1.4-.15 5.8-2.25 4.1-1.95 4.7-1.85.85.15 2.3 2.4 1.25 1.95 2.15 4.2.7 1.75 7.2 3.8 6.1 1.95 8.95 1.85 1.95-.05 5-2.85l4.2-3.85q4.15-2.65 5.95-8.4 1.7-5.4.4-10.15 2.9-.75 5.9-3.1 2.6-2.05 4.1-4.2l5.35-.45 4.75-1.5 2.3-.15q.95.4 1.5 2.1 2.6 7.4 10.45 11.55 4.6 2.35 12.05 3.9 4.35.95 8.65-1.15 2.15-1.05 4.45-1.5l4.2-.55q1.95-.2 8-2.35l8.7-3.4q8.65-3.8 10.5-8.65.55-1.3 1.3-1.45.6-.1 2.1.6 1.65.85 6.45 1.25l10.75-.4 11.7-2.9q6.1-1.75 6.55-.95.6 1-.75 4.6-1.25 3.3-2.15 4.3l-5.7 3.6q-5.8 3.6-8.7 6.7-4.55-3.2-15.4 1.4-10.55 4.45-16.45 11.55-3.25-3.85-11.95.65-5.15 2.7-14.65 10-11 8.5-13.9 18.45-1.1 3.75-3.25 7.3-2 3.25-4.05 5.05-1.8 1.55-2.05 3.6-.2 1.65.6 3.85-1.55 8.55-.95 15.3.95 10.2 6.5 19.95 12.15 21.4 33.6 22.75 2.15.1 3.9-.7 1.6-.8 2.2-2 .95-2.05 2.2-2.7.7-.4 2.6-.6 2.45-.25 6.3-3.05 2.85-2.05 4.75-4.05l1.45-2.15q.85-1.3 1.45-1.25.65.05 1.2 1.75l.85 2.8q.25.65 2.4 3.75 2 2.85 1.9 3.25-.35 2.45 1 4.4.75 1.15 2.65 2.6l3.25 1.9q2.05 1.1 2.4 1.8t0 2.35q-.4 1.85-.3 2.4l.15 2.4q0 1.45-.35 1.7-.4.35-2.45-.3-1.95-.65-3.55-1.55-1.75 1.4-1.55 4.35.1 1.1 1.55 2.7 1.65 1.75 4.15 3.05-.6 2.6.95 4.7.9 1.3 3.55 3.75 3.4 3.65 5.05 4.8 4.1 2.85 10.2 3.65 6.45.85 12.15-2.1 4.25-2.2 9.5-7.55.95-1 2.6-.25l4.45.7q0 2.55.75 4.75.85 2.6 2.4 3.2 1.75.7 2.85 4.35.45 1.4 1.45 2.9 1.05 1.55 1.85 1.85l2.95-.25 2.75-.4q.45.1 1.45 1.5l1.5 1.65q.7.35 3.5-.85 2.3-1 4.25-2.2 7.45-4.55 15 3.85"/><path fill="#0d131a" d="M325.85 195.85q.8.15 1.45 1.9.7 1.8 1.15 1.95l1.85-.25q1.15-.45 1.95-1.2l1.15 1.65q-.95 1-2.65 1.5l-2.35.35q-.75-.05-1.5-.6-.75-.6-1.05-1.45-.4-1.2-1.45-1.25l-1.7.4-4 .15q-1.15-.45-2.05-2.1l-1.05-2.75q-.6-2.05-1.35-2.9l-1.9-1.55q-2-1.4-2.45-4.45-.15-2.9-.5-3.45l-1.85-.05-2.05-.7q-1-.75-2.5 1.05-4.55 5.9-10.85 8.3-5.15 1.95-10.7 1.35-5-.55-8.9-2.9-4.2-2.5-8-7.6l-2.05-2.2q-1.35-1.5-1.55-2.8l-.15-1.5-.25-1.05-2.8-2.05q-2.6-2.2-2.95-4.45-.25-1.6.9-3.5 1.05-1.65 1.75-1.75.35-.05 2.85 1.25 2.4 1.25 2.7 1.05l.05-1.1-.25-1.95.3-2.4.25-2.05q-.15-.55-1.7-1.4l-2.95-1.45q-2.6-1.25-4.1-3.8-1.45-2.55-.7-4.45.1-.35-1.9-3.25l-2.35-3.55-.55-2.3q-.4-1.5-.75-1.4-.3.05-1.2 1.7-1.05 1.8-1.9 2.55-6.65 5.15-10.9 6-1.95.4-2.6.85-.8.6-1.6 2.5-.55 1.35-2.25 2.05l-3.65.55q-11.6-.15-21.55-7.15-9.3-6.55-14.7-17.15-3.9-7.65-5.3-17.8-1.4-10.55.85-16.95-1.3-2.6-.95-4.5.35-1.85 2.5-3.75 2-1.7 4.1-5.75 1.85-3.55 3-7.15 4.45-13.9 30.65-28.7 3.25-1.85 6.2-1.9 3-.05 4.6 1.8 4.5-5.7 12.25-9.65 6.85-3.5 13.3-4.3 4.7-.55 6.3.95 1.65-2.25 7.3-5.85 2.9-1.85 6.05-3.75.65-.55 1.7-3.4l1.3-4.2Q262.4 18.65 252 17.1q-1.45-.25-4.3-1.3-2.3-.9-2.5-.75l-.75 1.4q-.6 1.5-1.2 2.2-3.25 3.9-12.35 7.8-8.85 3.8-16 4.55-3.95.4-7.1 2.15-1.85 1.05-3.55 1.25h-2.85q-17.5-1.3-23.95-13.4-.5-.9-1.05-3-.4-1.4-1.05-1.75-.35-.2-4.75 1.25-4.6 1.55-7.05.95-1.15 1.95-3.75 3.9-2.65 2-5.55 3.05 1.85 4.45-.35 10-2.1 5.15-6.8 9.2-2.7 2.3-3.8 3.8-1.55 2.15-4.55 2.9-2.55.65-5.05.1-3.75-.85-7.85-2.75-3.95-1.85-5.35-3.35-.3-.35-1.65-3.5-1.2-2.85-2.05-3.1l-4.25 2.05q-4.45 2.15-6.7 2.1l-6.35-1.4q-5.55-1.2-6.75-.6l-3.7 3.35q-3.55 3.1-6.1 4.05 1.6 8.7-3.8 18.1-4.7 8.1-11.4 12.15l-2.7 1.35q-1.5.65-1.65.9l-.2 2.15q-.2 1.85-.6 2.2-3.5 2.7-10.85 6.9-9.8 5.6-15.35 6.9l-6.75.4-5.35-.95q-1.7-.5-3.25.3-1.3.7-1.95 1.8-1.05 1.85-5.5 6.55l-7.65 7.5q.95.6 1.9 2l1.05 1.3 11.5-4.3q12.2-4.55 17-4.8 4.4-.25 6.75-1.85 5.3-3.55 12.5-5.65 7.1-2.05 12.95-1.8 5.2.25 11.05 1.4 4.75.95 7.9 2 2.3.8 3.35 2.15.6.75 1.1 2.5.65 2.45 5.7 2.8l6.95-.45q4.9-.3 6.8 1.35 2.45 2.1 4.4 5.35 2.1 3.6 1.8 5.8-1.45 8.8-2.4 10.9-.45 1.15-5.05 4.9l-8.1 6.05.05 6.05q-.15 3.35-1 4.05l-3.6 1.3q-3.2.95-3.3 1.3-1.8 4.7-7.3 10.4-6.8 7.05-14.05 9.05-4.6 1.3-6.35 4.95-1.2 2.7-3.85 5.35l1.15 2.95q1.25-.2 4.5-2.5l4.45-3.4q5.9-4.4 14-4.45 8.55-.1 16.25 4.65 1.55 1 4.45.55 2.55-.35 15.6-7.15 11.95-6.2 16.8-5.5 2.25.35 6.25 4.75 3.8 4.2 4.25 6.25.45 1.9-1.95 7.2-2.15 4.75-3.2 5.7-.3.3-3 1.45t-3.35 1.85q-1 1.15-2.7 7.6 1.8 2.4 2.5 4.95.7 2.65-.05 4.45-.8 1.95-3.1 4.05-2.45 2.2-5.75 3.7-.2 4.3-4.75 12.6-4.55 8.2-9.1 12.5l2.55 2.5q8.45-7.55 12.95-9.85 4.3-2.2 7.85-.95 1.2-8.15 7.4-13 5.8-4.55 12.05-3.65l11.3 1 8.05.4 1.5-2.1 1.85-2.95q1.9-2.65 4.2-1.85 1.3.45 2.65-.45.9-.6 2.2-2.15t2.85-1.9q1.5-.4 2.3.45l3.1 3 2.45.75q1.95.4 2.4.9.4.55.35 2.95-.1 2.75.05 3.35l1.3 2.7 1.6 2.55q1.35 2.3 1.15 3.85-.25 1.7-2.4 3.15-2.4 1.6-4.45 3.35-2.35 2-2.25 2.55.55 3.05-.2 5.75-.8 3-3.1 4.65 2.05 6.3-.4 14.5-1.7 5.75-4.8 10.6-1.3 1.95-.85 4.05.3 1.65 1.45 2.8 2-1.95 5.65-8.25 3.4-5.9 6.35-12.25 3.35-7.2 7.05-9.7 4.05-2.75 11-1.75.5.05.85-.25l.4-.6q.65-4.6 3.35-7.55 2.55-2.85 6.45-3.65 7.6-1.65 15.35-1.45 5.15.15 9.15 3.8 1.8-4.6 5.9-7.1 3.6-2.2 8-2.25 3.95-.05 9.65 1.25 5.45 1.3 8.4 2.85 2.35 1.25 3.7 4.95l1.45 4.3q3.75 0 7 2.2 1.75-3.6 4.5-5.25 1.4-.8 2.95-1.35l.4-4.2q.25-4 1.95-5.3 1.2-.85 4-1.25 2.75-.35 5.05.05l.9 1.7-4.75.15q-2.35.45-3.55 1.35-1.05.8-1.4 3.05l-.35 3.7q-.1 1.55-.55 2.1-.4.55-1.6.9-3.75 1.15-6.4 6.1-.55.95-1.45.4-1.1-.65-3.5-1.4-2.2-.7-3.5-.85-1.05-.15-1.45-.85-.25-.35-.6-1.65l-1.45-4.25q-1-2.05-2.65-2.75-2.55-1.1-6.9-2.05-5.4-1.25-9.9-1.35-4.7-.1-8.3 2.7-3.2 2.5-4.3 6.1l-.55.55-.75-.25q-1.8-1.5-4.55-2.65-2.7-1.1-4.65-1.2l-6.9.35q-5.25.45-8 1.2-4.35 1.25-6.45 4.4-.95 1.4-2 4.95-.5 1.8-1.6 2.15l-2.7.1q-5.55-.15-9.65 3.45-3 2.6-5.5 7.6l-5.3 10.65q-4 7.3-7.55 10.9-.55.6-1.35-.2-2.6-2.75-3.05-5.7-.35-2.45.8-4.3 3.45-5.7 5.15-11.75 2.05-7.35.4-12.1-.2-.6 0-.95l.45-.55q2.05-2.05 2.6-5.8.25-3.55.5-4.15 1.15-2.4 4.7-5.05 3.15-2.35 3.35-3.9t-1.2-4.05l-1.85-3q-.25-.6-.6-3.35l-.45-2.9q-.15-.3-1.25-.75l-2-.9-3.55-2.3q-.55-.5-1.8.2-1.2.65-2.1 1.95-.7 1.05-2.05 1.6l-2.4.25-1.45.15q-.9.35-1.5 1.2l-1.65 2.7-2 2.65q-.85.75-9 .15l-12.3-1.3q-5.25-.65-10.8 4.5-5.5 5.1-6.6 11.2-.2 1.1-1.3.7-3.7-1.2-9.95 2.75-3.65 2.3-10.4 8.2-.9.75-1.8-.35l-3.55-3.6q-.3-.2-.2-.7l.4-.75q7.75-7.75 11.65-17.4l2.55-8.45 2.9-1.75q3-2.05 4.3-5.2 1.1-2.6-.05-5.6l-1.5-2.9q-.1-.45 1.2-4.15 1.4-3.75 2.1-4.8.6-.85 3-2l3.4-1.85q1.15-.85 2.6-5 1.4-3.95 1.2-5.2-.2-1.3-3.6-5.15-3.55-4.05-5.1-4.1-3.45-.15-14.7 5.55-12.1 6.1-16.35 6.8-2.75.45-5.35-.75Q94.65 182 86 182.1q-7.85.1-11.15 3.35-2.75 2.75-9.6 6-1.55.8-2-.4l-1.7-3.95q-.4-.8.4-1.6l1.8-2.15 2.05-2.95q1.3-2.65 3.6-4.25 1.75-1.2 4.6-2.1 5.7-1.75 11.5-8.15 4.05-4.5 7.7-10.65.3-.5 3.55-1.45l3.55-1.1q.25-.25.4-3.15l.3-5.8q.05-.75.85-1.25l6.85-5.4q4.85-4.1 5.45-5.2.5-.95.8-4.25l.55-4.95q.3-1.8-1.5-4.95-1.7-2.85-3.55-4.35-1.4-1.1-5.8-1l-6.7.3q-2.55 0-4.45-1.05-1.8-1-2.05-2.45-.3-1.65-.9-2.45-.7-.95-2.6-1.85-1.95-.95-7.55-1.75l-10.7-.95q-8.6-.2-16.15 2.55-3.85 1.4-8.4 4.15-2.05 1.3-4 1.8l-3.9.55q-4 .35-13.1 3.25-7.15 2.25-14.75 5.2l-1.3.1q-.6-.15-.85-.7l-1.3-1.95q-1.15-1.5-1.9-1.75-1.4-.5-.15-1.3 2.35-1.7 7.5-7.55 4.8-5.55 6.35-8.05 1.1-1.8 3.25-2.45l3.25-.15q7.95 1.9 11.7 1.15 5.65-1.25 14.5-6.8l10.25-7q.3-.15.55-1.9l.35-1.95q.15-.2 1.95-1.05l2.95-1.5Q74.15 72 78.15 63q3.7-8.3 2.25-14.9-.2-.9.65-1.3 3.8-1.85 6.75-4.75 3.25-3.1 3.85-3.45 1.55-.9 7.45.55l7.05 1.75q1.3.1 4.7-1.6l5.4-2.9q.85-.45 1.55.15 1.65 1.4 2.9 3.95l1.75 3.4q.95 1.15 4.7 2.65 3.6 1.4 6.55 1.85 2.75.45 4.55 0 1.55-.4 3.45-1.9l1.5-1.65 2.2-2.1q4.7-3.45 6.4-9.7 1.35-5.15.25-7.9-.4-1 .7-1.35 2.6-.85 5.5-2.95 2.85-2.05 4.35-4.1.5-.65 1.4-.25 1.05.55 4.4-.45l4.85-1.7q2.65-.95 3.5-.45 1.05.6 1.35 2.55.35 2.35.6 2.7 4.5 6.25 10.4 9.3 4.55 2.35 12.45 3.75l3.2.1 2.4-.95 3.4-1.25 3.25-.85q9.65-1.35 22.55-8.35 3.65-2 4.85-3.2 1.3-1.2 1.95-3.4.45-1.6 1.35-1.85.75-.2 2.35.5 3.75 1.7 7.8 1.9l10.1-.75q4-.55 12.35-2.85 6.15-1.65 6.85-1.05.85.7-.5 5.25-1.3 4.25-2.3 5.35L275 24.55q-6.05 3.55-8.75 6.7l-1.6-.05q-.35-.55-1.4-.75l-2.5.05q-6.3 1-13.2 4.2-8.8 4.05-12.9 9.45l-1.6-.05q-1.75-1.75-4.7-1.4-2.35.25-4.5 1.55-10.4 6.25-16.15 11.05-9.9 8.35-12.7 16.9-1.4 4.35-3.65 7.8l-4.25 5.35q-3.1 3.5-2.05 6.05l.3.85-.15.8q-1.25 2.85-.2 12.05 1.3 11.35 6 20.6 5.65 11.25 14.8 17.5 8.75 5.95 18.65 6.05 2.3.05 3.35-.6.95-.55 1.5-2.25 1-2.65 4.6-2.85 2.3-.1 5.95-2.7l4.25-3.3q.5-.35 2.05-2.85 1.3-2.15 2.35-2.05 1.2.1 2 2.1l.85 2.95q.15.65 1.85 3.15l2.3 3.55.2 1.1-.1 1.05q-.15 2.9 3.95 5.6.95.65 3.2 1.6 1.95 1.05 2.45 2.5.45 1.3-.05 2.75-.6 1.7-.45 2.65.6 3.75-.7 4.55l-2.15-.2q-1.9-.6-3.7-1.85l-.9 1.45q-.35.8-.3 1.65.15 1.9 2.6 3.6 1.3.9 2.75 1.65.25.25.35 1.2l.05 1.55q.05 1.35 1.5 2.9l1.9 1.95q3.6 4.6 7.4 6.55 3.1 1.6 8.05 2.2 7.3.9 12.85-2.2 3-1.7 8.2-6.9 1.55-1.45 2.5-.8l1.85.7 2.6.2q1.7-.3 1.95 1.95l.45 3.75q.5 2.05 1.95 2.6 1.05.4 1.9 1.5.9 1.15 1.3 2.8l.85 2.9q.65 1.4 1.8 1.8 1.35.5 3.3-.45 2.1-1 2.8-.85m323.6-142.5q-1.9-.6-4.05-1.95-2.2-1.35-2.55-2.2-.8-2.15-4.15-.3-2.85 1.5-8.15.9-5.05-.55-7.4-2.3-1.6-1.25-5.3-2.85-3.85-1.7-5.4-2.85-7.1-5.15-8.85-13.8-.5-2.55-.5-5.5l-.1-2.45q-.9-.9-9-.1-3.1 7.95-13.4 12.45-7.95 3.45-14.4 3.25-6.4-.2-16.3-6.15-7.55-4.5-12.15-8.9-2.5-2.4-2.75-4.95l.2-3-.65-1.35q-.7-1-1.2-1.05-1.55-.25-6-.1l-4.95.15q-4.6-.5-10.4-2.75-6.25-2.45-8.15-4.75-1-1.15-6.45-.35L495 3q0 1.2 2.75 2.5 2.55 1.2 8.6 4.85 6.8 4.2 10.25 6.95 7.5 6 13.9 12.15 7.9 7.7 9.5 11.55.95 2.25.3 5.65l-1.2 4.25q-.5 1.45-.2 2.4.45 1.15 2.2 1.9 3.65 1.6 6.2 4.3 3.05 3.25 5.8 9.2 3.25 7.1 3.1 13.85-.2 9.25-6.7 17.35 1.65 2.2 1.85 5.5.25 3.55-1.3 6.7-2.5 5.3-10.75 12-7.7 6.25-12.25 7.55l-5.2.25q-2.3-.65-3.15-2.75-.4-.85-1.95-1.2-1.35-.25-2.7 0-1.6.35-5.4-.7-4.1-1.1-4.25-2.4-.15-1.05.55-2.25l.95-1.4q.35-.75-1.6-3.3-1.85-2.5-2.35-2.4-.3.05-2.3 7.4-2.85 7.85-7.25 10.15 3.05 4.5 1.3 9.3-1.65 4.55-5.65 5.55 1.6 1.3 2.65 3.65 1.05 2.4.8 4.1-.3 2.1-2.15 4.4-2.15 2.7-4.7 2.75l-5.4.75-3.55.75-2.7-2.25q-2.15-2.15-2.75-1.95-.75.25-2 4.65-1.05 3.6-1.25 4.9-.05.35 1.45 2.4 1.5 2.15 1.6 2.95.15 1.7-2.65 6-2.85 4.3-4.45 4.65-.8.15-2.45-.55l-3.1-1.5.75-1.8 2.45 1.05 1.6.25q1.15-.45 3.35-4.05 2.3-3.7 1.85-4.8-.25-.7-1.65-2.4-1.2-1.5-1.1-2 .25-1.65 1.75-6.3 1.85-5.7 2.85-6.15 1.25-.5 3.95 1.9l2.85 2.45 3.55-.5 4.35-.45q1.2.05 2.9-1.85 1.9-2.05 1.95-4.15.05-3.55-2.3-6.05-.85-1.05-.05-1.5 3.85-2.25 4.85-6.3.8-3.4-.5-7.35-.35-1.1.3-1.5 3.15-2 6.45-10.3 3.2-8.05 3.75-8.25 1.25-.45 3.95 2.85 2.7 3.2 2.45 4.6l-.9 1.65q-.7 1.2-.5 1.5.25.4 3.65 1.3l3.95.8 3.2-.1q2.45.3 3.3 1.8.75 1.35 2.85 1.95l3.25-.15q6.3-3.6 12.7-9.65 6.25-5.95 8.1-9.95 1.15-2.45 1.45-5 .3-2.95-.85-4.5-.55-.8-.2-1.25 10.15-14.2 2.5-29.35-2.65-5.3-5.15-8.35t-5.65-4.85q-1.8-1.05-2.55-2.15-1.05-1.6-.25-3.75.85-2.25 1.25-4.95.45-3.1-.25-4.1-4.3-6.45-11.45-13.05l-11.4-9.6q-4.35-3.6-10.6-7.55-4.8-3-8.15-4.7-1.65-.85-2.65-2.25t-.75-2.3q.2-.8 1.4-1.4l2.3-.65q7.2-1.2 8.8.8 1.05 1.35 7.6 3.8 6.4 2.35 9.7 2.7l7.1.35 4.85.4q.95.35 1.95 1.75.95 1.3.85 2.05-.35 2.4-.15 3.65.35 1.95 2.1 3.3 6.15 4.75 13.25 8.5 9.15 4.9 14.15 4.75 7.6-.2 13.8-2.8 8.65-3.6 11.7-11 .25-.75 1-.85l6.6-.35q4.25.05 5 1 .95 1.1 1.1 8.45 1.25 8.05 8.1 13.25.8.6 4.7 2.2t5.75 3q1.8 1.35 6.35 1.85 4.85.5 7.2-.85 1.95-1.15 3.7-1.05 1.85.1 2.8 1.65.7 1.3 2.3 2.65 2 1.65 4.15 2.15.95.2.85 1.3l-.15 3.45q.25 1.95 2.1 3.1l19.4 12.95q13.35 8.3 21 9.25 1.55.2 10.25.2 5.85 0 8 1.55l2.1 1.6q.9 1.05 1 3 .05 1 1 2.7.85 1.6 1.95 3l8.2 8.25q5.7 5.6 5.7 7.05 0 1.35-2.6 2.65-2.75 1.35-5.15.75-1.05-.25-4.45-3l-5.25-3.95q-1.7-.9-3.45-2.55l-2.9-2.55q-4.95-3.5-8.15-4.6-4.55-1.65-12-1.65-2.25 0-4 2.4-1.15 1.55-3.95 1.1-2-.25-3.15-1.5l-1.35-1.35-2.55.1-2.75-.1q-1-.35-1.65-1.45l-.9-2.25q-.7-2.3-4.4-5.25-4.05-3.2-7.75-3.85l-9.25-.5q-5.7.2-7.65 1.15-2 .9-4.95 8.35-.55 1.35-1.65 2.05l-4.95 3.15-3.4 2.5q-.8 1.05-2 7.75-1.3 7.15-.65 9.5 2.75 9.5 2.75 14.6l.1 1.9q.2 1 .75 1.75 2.55 3.25 7.15 6.45l5.25 3.4q1.05.8 4.15 4.9 2.95 3.95 4.2 4.65l8.25 3.25q6.65 2.55 7.15 3.5.4.75.7 4.8.3 3.75 1.55 5.05l8.6 8.2q6.9 6.85 6.75 8.5t-3.9 2.45q-3.95.9-6.15-1.35-6.7-6.9-20.1-13.85-12.1-6.25-14.05-5.6-.75.25-2 2-1.15 1.7-1.9 1.85-.55.1-1.95-.9l-3.05-2q-4.65-2.6-9-.3-.8.4-1.5-.3-3.2-3.35-4.45-3.85l-3.55-.6q-2.85-.3-3.35-.05-.9.45-3.1 4.4-2.5 4.45-2.2 6.6 1.45 11.8 5.45 23.8 4.1 12.3 9.7 21.3.8 1.3 4.85 4.8 3.75 3.3 3.9 3.85.15.65-1.2 3.6-1.45 3.1-1.4 3.95l1.95 7.8q1.4 5.4.05 6.2-1.35.75-4-.65-3-1.65-4.35-4.8-3.2-7.6-5.5-11.2-3.9-6.1-11.1-12.3-3.8-3.3-6.6-4.85-5.15-2.9-9.7-2.45-5.4.45-6.7-3.1-1.8-4.95-4.8-7.6-3.3-3-7.05-2.2-3.8.8-5.85 5.85-.85 2-2.85 10.4-.85 3.75-3.95 6.05-1.8 1.35-3.25 3.8-1.45 2.55-1.6 4.7-.45 6.1 6.15 11.75l.5.45q.25.3.15.9-.45 2.75-.1 11.15.25 6.15-1.15 6.8t-3.95.05q-2.65-.6-3.45-2l-4.7-8.65-5.5-9.9q-2-3.2-5.35-4.65l-3.85-1.75q-1.25-1.4-1.65-3.65-.45-2.2.1-3.7 1.6-4.3.4-8.7-1.1-4.1-2.95-3.75l-2.15-.25q-1.35-.55-2.1-1.65-.75-1.15-2.5-1.7l-2.75-.1q-1.35.45-3.6 2.65-2.65 2.6-2.9 4.55-.05.55.6 3.45.6 2.6.25 3.05-.95 1.2-4.55 2.15l-5.65.2q-.6-.25-4.6-4.3-3.6-3.7-5.3-3.6-1 .05-2.5 1.25-1.95 1.55-3.4 4.3l1.05-4.5q.95-1.5 2.4-2.6 1.3-1.05 2.15-1.15 1.9-.3 6.4 3.75l4.65 4.35 4.15-.1q3.05-.65 3.3-1.15.15-.25-.7-2.7-.85-2.55-.7-3.35.55-2.85 3.65-5.85 2.85-2.8 5-3.2 2-.35 4.25.6 2.25 1 3.05 2.6.4.75 1.3 1.1l1.55.2q3.05-.8 4.8 3.35 1.95 4.7-.6 11.6-.35.9 0 2.7.35 1.75 1.05 2.75.25.35 3.9 1.4 4 1.6 5.8 4.55 1.9 3.15 5.9 11.05l3.95 7.5q.65.9 2.35 1.65t2.15.4q.7-.55.3-7.15-.4-7.6-.2-9.05-3.55-2-5.7-5.7-2.2-3.8-1.7-7.4.5-3.35 2.35-5.85 1.35-1.75 4.45-4.35 2.3-1.9 3.1-4.85 2.3-9.15 3.25-11.5 2.7-6.4 7.15-7.35 3.15-.65 6.9 2 4.6 3.25 7.05 9.9.55 1.35 1.35 1.7l3.35.3q4.1-.05 7.3.85 5.55 1.55 10.95 6.2 5.75 4.9 10.45 12.4 3.9 6.3 6.05 12.6.5 1.6 2.5 3.05 1.8 1.35 2.45 1.1.35-.15-.85-5.25-1.35-5.65-1.35-6.6.05-1.6.9-4.15l.7-2.65q-.1-.45-3.45-3.65-3.7-3.45-4.4-4.5Q603.6 210 598.9 194.4q-4.4-14.35-2.95-20.25.65-2.6 3.3-6.85 2.5-4.1 3.6-4.7l4.1.1q3.45.4 4.6.9 3.5 1.7 4.7 3.1 4.55-1.95 9.3.3l4.65 2.8 1.45-1.35q1.3-1.45 2.1-1.7 3.95-1.15 16.15 5.4 12.65 6.75 19.7 14.4.75.8 3.4.85 2.65 0 2.8-.85.2-1.25-6.55-7.8l-7.8-7.6q-1.6-2.15-2.25-5.7l-.7-3.6q-.45-.65-7.1-3.45l-7.7-3.35q-1.15-.7-4.2-4.55-3.15-3.95-4.05-4.6l-6.6-4.4q-5.4-3.9-6.9-6.4-1.3-2.1-1.15-4.4.1-1.7-.5-6.1-.65-5-1.55-7.75-1-3 .35-10.3 1.25-6.75 2.65-9 .7-1.15 5.15-3.8 4.55-2.65 4.85-3.1l2-4.7q1.85-4.05 3.85-5.05 2.45-1.25 9.45-1.85 6.9-.6 10.05.15 4.05 1.05 7.35 3.8 3.85 3.15 5.55 7.7.6 1.55 1.15 2.05.85.75 2.4.3 2.25-.65 3.7.4l1.45 1.6q.45.35 1.95.55 1.45.2 1.9 0l1.2-1.65q1.3-1.45 3.4-1.65 6.95-.5 13.15 1.25 6.15 1.75 9.85 5.25l3.65 3.2 2.65 1.95 4.55 3.6q2.85 2.15 3.7 2.5 1.05.4 2.75 0 1.8-.35 1.85-1.1.1-.85-5.45-6.45l-7.35-7.45-2.15-2.7q-1.15-1.75-1.25-3.4-.2-3-2.65-4-2.65-1.05-8.7-.95-7.2.15-8.4-.05-11.05-1.7-23.85-10.05-12.8-9.35-17.6-12.2-1.9-1.1-2.65-3.15-.95-2.4.2-5.2"/><path fill="#adb2b4" d="M455.4 64.3q11.8 2.7 19.75 5.5 7.65 2.65 7.9 4 .5 2.3-22.45 23.8-21.45 20.1-30.65 27.05 2.75 7.7 5.7 17.3 3.4 11 4.8 17.45l9.3 35.25 5.75 13.6 10.3 37.7 3.05 9.3q1.5 5.05 2.1 8.25l9.1 39.35L485.6 331q3.95 21.05 4.75 24.4 3.4 14.6 13.35 35.7 6.4 13.55 12.6 24.25 3.1 5.3 4.5 11.2 1.25 5.2 1.1 10.25l-.85 25.95q-.4 7.85-.4 18.15v15.45l.6 44.35-31.95 3.5-16.2-2.2-13.65-2.55q-3.3-.85-4.3-3.15-.8-1.7-.45-5.1.65-6.6.2-17.35-.45-9.9-1.45-16.45l-8.25-22.65q-6.2-8.1-21.45-16.3-1.25.6-3.25 1.9l-3.1 2.2-.55 4.3-.7 5.2 6 40.8-32.4 2.9-14.15-1.65q-8.5-1.3-13.45-2.7-1.9-.55-2.8-2.25-.95-1.85-.5-4.55.45-2.85.25-7.85-.25-5.15-1-7.55l-2.65 3.3-14.95 19.55-28 4.7-11.75-17.1q-.75-5.95-2.9-10.5-1.8-3.85-5.1-7.55-1.55.55-4.2-.6l-4.75 21.45q-.3 11.35.7 20.85.85 7.75 2.95 17.45L268.3 554.4l-36.5.5-19.15-15.05-45.85 2.5L153.15 525q2.2-9.55 2.1-21.75l-.95-18.35q-2.85-.8-7.3-4.35-3.95-3.15-5.95-5.7-46.1.5-88.35-24.55-17.9-10.6-31.4-23.95-12.9-12.7-18.9-24.9-2.55-5.25.15-6.8l6.05.15q14.6 5.3 33.85 9.7 22.65 5.15 37.05 5.35 29.25.45 54.95-13.15 16.3-8.65 37.85-27.85 26.55-23.75 64.2-36.65 12.95-4.5 28.65-8.1l22.05-4.75q15.7-3.5 25.95-9.85 6.25-3.9 14.65-12.25l15.95-38.3-2.3-99.65-2.05-13.7q-11.4 0-30.05-2.35-19-2.35-19.85-4.05-.8-1.6 4.05-10.7 4.8-8.95 12.35-20.1 19.15-28.25 31-35.3 12.85-7.6 28.45-12 16.75-4.7 32.2-4.4 27.5.55 57.85 7.6"/><path fill="#595757" d="M369.05 126.8q5.5-.85 13.15-9.05 8.1-8.7 12.5-19.7.9 4.55.3 11.1-.2 2.75-3.8 8.25-2.7 4.2-6.7 9.05 11.55.55 31.4-10 0 8-5.6 16.8 12.4 23.9 40.7 132.8 6.9 26.75 12.45 52.95 7.2 33.85 7.6 46.9.25 7.15-7.2 22-7.15 14.3-18.95 30.95-12.2 17.25-25.25 31.05-14.3 15.15-26.15 22.35l-7.3 2.2-7.55 1.5q17.5-25.5 26.9-63.6 6.15-24.7 7.7-48.3.8-12.3-2.7-37.55-1.2-8.6-7.8-48.7-5.1-30.85-14.2-67.65-11.05-44.55-20.6-65.3-4.7-.15-9.9-1.3-5.9-1.3-7.4-3 3.9-.85 8.3-3.15 3.5-1.8 6.1-3.8l-8.8-3.55q-5.75-2.5-7.9-3.9-5-3.25-8.8-8.95 7.2 5.3 17.25 8 8.15 2.2 12.25 1.6m122.2 231.05q.75 4.35 3.2 11.1 2.1 5.85 4.05 9.9-7.55 24.75-32.1 50.6-10.95 11.55-21.85 19-11.35 7.8-19.8 9.15 28.6-17.4 48.2-49.35 8.4-13.6 13.25-27.2 4.7-13.1 5.05-23.2"/><path fill="#595757" d="M332.4 302.85q-5.25 8.15-7.3 18.85-2.1 10.75.2 18.25 19.95 14.7 32.15 34 14.55 23 8.35 56.9.1-13.5-4.45-27.2-3-9-9.6-21.65-5.4-10.4-16.45-20.9-11.85-11.25-19.1-11.25-2 0-7.1 3.3-5.15 3.25-9.3 7.2.95-2.35 5.9-9.5l5.7-8.15q1.65-2.6 3.7-17.9l-6.5-1.5-6.15-2.2q5.3-2.55 15.6-8.65 1.65-3.7 4.25-7.65 2.9-4.4 5.65-6.9l2.3 2.75zm-90.85 65.75q-3.65 2.2-7.15 5.35 2.35-3.85 7.2-10.4l5.65-7.4q.95-1.15 3.9-6.7l4.9-9.5-3.95-1.1-4.4-1.25q-.1-.9 5.9-3.9 5.2-2.65 10.05-4.45 2.25-2.55 3.85-5.4l11.9-2.3q-8.9 10.95-13.85 21.7-4.55 10-5.15 18.5 7.05 7.05 13.1 16.2 5.65 8.55 9.75 17.95-1.5 4-2.75 8.8-8.75-17.15-19.75-28.6-9.3-9.75-13.8-9.75-1.75 0-5.4 2.25m-54.1-12.1q4.95-3.45 12.3-7.75 8.15-4.7 13.05-6.8-7.7 8.6-12.2 17.3-3.85 7.4-3.3 10.05.2.95 9.6 12.15 10 12 13.6 20.65l-3.7 8.95q-6.7-17.2-18.45-27.8-4.2-3.8-8.25-6-3.35-1.8-4.85-1.75-1.45.05-3.85 1.55-2.3 1.4-4 3.1 2.6-4.35 7.2-10.55 4.1-5.5 7.45-9.4l-5.55-.45z"/><path fill="#ba0031" d="M370.45 150.75q7.9-3.75 17.95-6.55 12.85-3.6 24.55-4.1l3.9 10 3.85 10.4q-10 0-20.55 2.25-12.55 2.65-22.45 7.8-4.05-12.2-7.25-19.8M401.9 185q13.7-3.45 25.9-2.75 3.85 12.3 6.35 21.65-9.8.15-22 2.6-14.5 2.95-22.55 7.6l-5.7-22.1q6.35-4.05 18-7m39.65 44.55 6.8 26.75q-8.95-1.6-23.5.6-15.55 2.4-24.25 7.45l-2.6-12.6-3-14q9.95-3.45 20.75-5.7 14.8-3.1 25.8-2.5m-13.8 54.95q16.65-2.5 27.55-.2 2.15 7.95 6.35 28.15-10.4-1.9-22.95-1.05-16 1.05-29.3 6.6l-4.35-28.45q11.85-3.45 22.7-5.05m9 56.35q18.5-1.75 31.55 2.65l2 11.95q1 7.25.75 9.05l-.45 3.85q-.3 2.1-.9 3.6-11.6-1.45-26.1-.6-15.25.8-31.1 4 .65-6.1.6-14.15-.1-8-.9-15.25 10.55-3.75 24.55-5.1"/><path fill="#595757" d="M329.95 92.45q3.25 1.1 8.6 1.6l7.4.3 6.3 6.5 5.8 5.45q4.1-11.5 5.95-15.45 5.7-2.95 13.2-8.6 7.1-5.3 10.5-9 .75 3.55 1.1 10.7.4 7.45-.25 9.3-1.35 3.7-7.35 9.8-5.5 5.6-9.8 8.35l-2.85 5.3q-2.1 3.6-2.7 3.85-.55.3-4.3-1.85-3.45-1.95-6.25-3.95-6.25-1.7-11.45-3.75-5.45-2.15-6.35-3.4-.9-1.3-3.3-6.15z"/><path fill="#edc300" d="M367.2 41.7q11.45-1.1 20.35 3.15 9.2 4.4 10 11.85.75 6.9-11 17.75-9.75 8.95-22.85 16.4l-3.25 9.4q-2.05 5.75-2.65 5.85-.6.15-4.9-4.25-3.45-3.55-6.95-7.5-20.2-.55-23.05-7.6-3.45-8.3 2-19.7 4.85-10.05 11.9-14.6-1.3 8.65.25 17.5 1.2 6.95 3.75 12.15 3.3 1.65 7.1 1.9l5.5-.35q8.95-2.05 15.3-9.4 4.55-5.25 7.05-12.15 1.9-5.15-.15-10.25-2.1-5.3-8.4-10.15"/><path fill="#edc300" d="M453.1 63.95q12.5 2.85 21.45 5.75 8.55 2.75 8.5 3.75-.15 3.4-22.05 23.8-19.45 18.2-31.35 27.5-1.8-2.8-6.4-5.45-4.3-2.45-7.35-2.85-7.8 4.5-17.4 7.45-9.2 2.85-14 2.55 4.05-3.85 7.3-9.8 2.6-4.7 3.2-7.5.9-3.6-.4-11.8-3.6 11.7-12.2 20.55-6.9 7-12.6 8.65-4.3 1.2-13.4-1.6-9.25-2.85-17.15-7.9 4.3 6.8 13.15 11.45 3.5 1.85 12.65 5.1-5.3 4.15-13.25 6.7-7.6 2.4-12.65 1.8l.25 3.5q-8 .55-28.6-2.3-19.95-2.75-21.3-4.1-.65-.6 2.35-7.1 3.1-6.65 8.05-15 12.9-21.95 23-30.35 2.4 3.5 7.05 5.7l3.9 9.05q2.65 5.7 4 6.7 1.55 1.2 7.75 3.5 6.25 2.4 10.35 3.3l5.2 3.45q3.6 2.3 4.4 2.1.75-.2 2.65-3.5l3.2-5.65q4.9-3.1 10.95-9.7 5.2-5.65 6.3-8.05.65-1.5.15-9.5-.45-6.45-1.1-10.9 4.45-3.3 7.1-8.25 2.25-4.1 2.75-8.3 22.6-.25 55.55 7.25M340.3 149.5l1.25 10.5q1.1 3.55 6.55 10.1 5.65 6.8 12.45 12.5 6.05 5 18.3 9 6.8 2.2 17.55 4.6-11.8 10.95-31.1 14.05l-14.25.75q-6.25-.45-8.9-2.15-5.2-3.3-13.9-16.65-8.8-13.55-8.35-17.95.45-4.55 7.45-13.05 7.05-8.55 12.95-11.7m.95 60.6q-3.1 2.15-10.25 8.05-7.2 6-9.85 8.65-10.75-14.9-14.55-21.5L323 207q12.55 1.7 18.25 3.1"/><path fill="#edc300" d="M373.7 236.55q11.45 5.5 30.45 9.85-15 10.7-35.45 13.4-15.8 2.1-24.2-.7-6.1-2.05-15.8-14.05-9.2-11.45-8.8-14.55.45-3.5 8.95-10.85 6.8-5.95 13.55-10.2 10.8 17.3 31.3 27.1m-44.95 30.55q8-4.7 15.9-7.4 3.75 6.7 7.6 11.25 5.5 6.55 13.85 12.4 15.65 10.9 46.4 19.35-7 6.3-30.95 10.8-23.8 4.45-33.5 1.55-9.15-2.75-20.8-18.2-4.8-6.4-7.5-11.95-2.8-5.8-2-8.05 1.45-4.2 11-9.75m111.9-73.2q-9.7-.9-14.15-3.4 11.65-10.7 13.65-29.3.45-4.25-6.25-25.15 8.15 2.55 17.8 9.7 10.2 7.55 11.5 12.8t-3.4 19.4q-4.6 13.75-7.5 15.4-2.4 1.4-11.65.55m29.8 9.95q7.35 5.2 9.35 8.9 1.4 2.55-1.4 13.4-2.95 11.6-7.35 16.4-4.4 4.75-15.2 4.45-9.7-.3-14.9-3.65 9-8.7 12.2-19.35 1.15-3.75 2-12.7.3-3.05-1.5-7.7l-3.5-8.1q10.5 1.45 20.3 8.35"/><path fill="#edc300" d="m465.95 246.3-.15-.35q6.1 2.05 14.8 7.6 10.5 6.65 12.4 11.5 2.3 5.85-3.8 21.05-5.65 14-8.95 16.2-2.55 1.75-11.8.45-9.3-1.3-14.55-4.2 10-7.8 14.1-20.3 1.6-4.9 2.5-13.55.45-4.3-4.55-18.4m47.2 199.05 8.75-8.55q2.95 1.65 6.25 5.35 3.45 3.95 3.5 6.1.05 2.2-4.6 8.1-4.6 5.8-6.2 5.8-1.55 0-7.7-3.5t-8.4-5.65zm1.8 27.95q-7 11.85-25.5 19.4-14.75 6.05-26.95 6.45-8.05.25-15.7-4.9-6.3-4.2-6.75-6.85-.25-1.55 1.65-5.95 1.65-3.7 3.5-6.7 9.25 5.15 31.45 4.3 20.2-.8 38.3-5.75m11.6 36.85q4.2 11.25 5.55 12.7 1.4 1.55 10.3 8.2l11.75 8.6q-5.4-.7-17.45-.2-11.9.5-16.15 1.55l-13.6-9.8q3.7-2.7 6.7-11.85 5.45-19.35 7.2-25.05z"/><path fill="#edc300" d="M502.4 528.4q4.95 2.95 13.8 9.4l11.95 9.05q-31.1 0-40.2-.5l6.95-8.75zm-86.35-58q1.7 5.6 5.1 14.75 3.8 10.3 4.7 11.2l8.45 6.65 9.55 7.4-12.85.65q-5.95.65-8.85 1.8l-14.6-10.45q2-2.6 3.25-5.85l1.4-4.8 1.7-9.1zm-60.15-23.35q3.3 1.7 6.9 5 3.4 3.1 3.8 4.6.4 1.75-2.1 8.7-2.75 7.6-5.5 10-7.3 6.45-24.4 7.3-16.45.8-21.05-3.9 13.6-2.3 26.7-13.4 10.35-8.8 15.65-18.3m-9.4 40.75q8.3 3.05 15.65 6.6-3.2 5.05-10.95 12.15-6.5 6.05-11 9 4.25-20.85 6.3-27.75m-31.35-2.75 7.35 7.4 7.5 7.75q2.45 2.6 6.1 3.4l6.05.4-1.35 7.6q-3.45.85-6.5 7.35-1.9 4.2-7.1 20.9-5.7-10.85-8.75-17.2-2.25-4.7-5.85-5.35l-2.6-8.25q1.4-.5 2.25-2.05.6-1.2 1.05-3.4.4-2 1.85-18.55"/><path fill="#edc300" d="M304.45 495.55q1.75 3.3 4.75 11.7 2.95 8.35 4.1 13.25-12.3-10.5-16.5-15.25zm-29.7-23.25q-9.15-7.9-9.15-10.15 0-1.35 3.6-6.75 3.3-4.95 5.65-7.55 7.5 11.5 21.15 15.3 8.8 2.45 21.55 1.7-4.6 6.35-10.5 10.9-8.15 6.25-15.2 5.8-6.95-.5-17.1-9.25"/><path fill="#edc300" d="M263.25 484.55q10.85-3.7 16.95-7.85 1.25 1 4.25 2.5t4.85 2q5.55 6.15 5.45 8.45-.05 1.65-4.75 6.65t-6.5 5.35q-6.8 1.15-22.45-3.5-15.7-4.65-19.35-8.9 9.75-.7 21.55-4.7m3.5 74.6 5.2-13.85q4.25-10.9 6.4-14.6 8.45 9.1 13.85 15.65-20.9 10.8-25.45 12.8m-29.35-19.5q1.55-2.25 3.85-7.5l3.7-10.3 4.35-13 11.05 24.3q2.2 4.65 4.9 7.45 2.25 2.3 6.4 4.7l-3.35 9.1q-2.3-.1-4.7 1.8-1.55 1.2-3.55 3.75-3.1 3.8-8.9 14.2-6.15-9.8-11.4-14.75-4.7-4.4-7.95-4.3l-3.2-8.45q5.35-2 8.8-7m-23.2-1.1q4.9-5.5 7.8-8.3 2.1 4.45 5.85 14.35l5.2 14.4q-5-2.25-12.95-6.45l-12.2-6.5zm.4-16.85q0 8.75-1.45 17.95-1.6 1.4-7.75 4.8-5.85 3.25-8.75 4.45 1.2-4.6 5.85-15.25 4.1-9.4 7.15-15.25 2.15 1.2 4.95 3.3"/><path fill="#edc300" d="m167.3 542.55-4.25-12.6q4.65-.15 7.5-3.2 1.65-1.75 3.35-5.75 4.95-11.9 8.75-20.4l4.05 9.35 5.1 11.55q2.05 4.4 5.2 6.55 2.1 1.4 6.75 2.85l-4.35 9.85q-2.55.05-7.2 6.65-1.1 1.6-3.8 6.7l-4.75 9.55q-3.35-6.5-8.6-13.55-5.85-7.95-7.75-7.55"/><path fill="#edc300" d="m164.3 533.45 5.15 15.7-12.3-8.25-11.8-8.35 6.75-6.7q4.5-4.35 6.85-6.3 1.6 3 5.35 13.9m2.35-67.8 16.4 6.6q-5.65 3.85-15.35 8.15-10.25 4.5-13.4 4.2t-9.3-5.65q-5.95-5.2-6.25-7.4-.3-2 3.25-7.1 3.4-4.9 6.95-7.95 5.8 4.05 17.7 9.15m29.6 4.15q0-2.6 4.75-8.85 4.75-6.3 7.7-7.35 6.55 6.35 20.8 10.95 11.45 3.7 20.1 4.3-6.05 6.4-19.55 11.55-10.8 4.1-14.55 4.1-3.4 0-11.35-6.25-7.9-6.15-7.9-8.45"/><path fill="#edc300" d="M190 484.6q8.85-4.5 12.55-7.6 2.35 2.15 8.3 5.75 1.9 7.1 2.5 14.65l-16.75-.7q-11.95-1.65-18.7-6.4 6.25-2.75 12.1-5.7"/><path fill="#ffe792" d="m425.2 496.7 18.75 13.6-3.9-.1q-3.5-2.1-16.9-9.2 1.15-.45 1.8-1.9.7-1.45.25-2.4m105.9 25.5q2 1.95 10.7 8.6l11.8 8.7q-1.3-.1-3.85-.05l-3.65-.05q-3.25-1.5-10.2-6.7-6.55-4.95-8.95-7.45 3.45-.2 4.15-3.05"/><path fill="#838688" d="M297.65 489.6q-2.3-4.85-4.9-7.6 14.05-2.9 24.7-17.15 8.35-19.5 20-35.7 11.15-15.6 21.4-22.75 1.25-.9 3.05-1.55 1.6 6.55 2.7 13.5 1.25 8 1.05 12.25 1.4-5.5 1.95-12.45.5-6.85.1-13.25 1.65.6 3.2 2.15 3.4 3.4 12.4 7.1 8.6 3.5 20 6.35-3.8 13.7-8.9 26.35-7 17.35-15.25 29.35-10.65 2.4-19.05 3.15.4 2.85-1.25 7-1.2 2.95-2.55 4.85-.75-.35-4.1-1.35l-5.85-2-2.2 8.25-1.85 8.3-5.15-.45q-3.2-.5-4.6-1.25-1.25-.65-7.65-7.25l-9.8-10.2-.85 10.1-1 9.35q-.2 2.1-1.35 3.2-.95.85-2.2.85l-3-8.15q-1.7-4.35-2.4-4.55-.3-.05-1.55 1.35l-2 2.7q-.45-4.95-3.1-10.5"/><path fill="#ffe792" d="M300.05 116.9q-1.8 6.75-1.45 13.65l-4.75 9.9q-3.9-.75-4.3-1.3-.3-.4 3.2-8.3 3.85-8.7 7.3-13.95m26.2-52.85q3.8-6.7 10.55-11.5l-2.2 18.6q-1.3-2.35-3.5-4.3-2.45-2.25-4.85-2.8m139.2 3.1q17.85 5.1 17.7 6.45-.15 1.3-3.4 5.1-6.3-1.5-15.7-2.8l-16.15-1.6q-5.7-8-14.25-14.05 12.85 1.5 31.8 6.9"/><path fill="#c6a400" d="M417.9 81.5q.2-3.2 1-4.25.7-.95 2.85-1.3 10.95-1.85 32.25-2 14.5-.15 28.8.45-8 10.75-25.65 26.85-14.6 13.35-27.8 23.35-1.7-2.55-5.75-5.05-3.75-2.35-7.55-3.45-5.45 3.55-14.8 6.8-9.85 3.4-16.45 3.75 19.05-9.1 25.85-19.5 6.45-10.05 7.25-25.65m-23 16.7q-4.5 9.55-10.55 17.2-8 10-15.25 11.45-6.2 1.25-17.4-3.35-9.8-4-13-7.3-3.5-6.5-5.05-10.45 4.2 7.4 14.45 11.55 8.9 3.6 17.05 3.1 3.75-.25 8.7-3.35 5.35-3.35 9.55-8.5 10.75-13.1 7.5-27.95 1.15 3.25 2.45 9 1.15 5.25 1.55 8.6m-55.2 47.4-23.9-1.65q-15.1-1.75-25.9-4.45l11.2-11.3q7.05-6.9 12-10.65 1.2-1.1 2.6-1.35 1.65-.25 2.65 1.05 3.75 4.9 9.9 10.05 7.15 6 11.75 7.05 6.4 1.5 11.7 1.55 7.35.15 13.75-2.35-7.2 4.3-11.8 6.05-7.15 2.65-14.5 2.4z"/><path fill="#c6a400" d="M333.35 131.25q6.05 1.7 11.9.2 3.85-1 7-3.2 9.05 4.25 13.2 5.3-3.8 2.3-12.5 2.4-7.1.05-12.25-1.05-2.8-.55-7.35-3.65"/><path fill="#ffe792" d="M431.05 60.05q2.4 2.2 5.9 6.75 3.5 4.45 5.15 7.5l-5.9.3q-1.35-2.95-4.25-7.55-3.2-5.05-5.5-7.6zm-55.1 2.1q12.7 4.35 16.75 6.05l-4.9 5.1q-8.1-4.15-14.25-5.85 1.45-2.4 2.4-5.3m-3.05 6.5q6.5 2.1 13.8 5.6l-1.7 1.6q-6.45-3.45-12.75-5.75z"/><path fill="#c6a400" d="M336.8 52.55q-1.1 10.6.4 18.65 1.25 6.85 4.25 11.3-9.1-4.65-8.7-15.6.3-7.35 4.05-14.35"/><path fill="#ffe792" d="M397.6 119.45q-7.05 4.65-13.2 6.95 3.35-3.55 7.85-10.95 3.45-.2 8.15-1.75 4.9-1.6 8.35-3.8-3.55 4.5-11.15 9.55"/><path fill="#3e3a39" d="M398.45 123.9q10.55-3.2 17.35-7.45.25 3.2-1.05 7.7-1.6 5.2-4.55 8.85-1.75 1.8-6.6 3.55-5.3 1.95-11.75 2.85-16.8 2.3-29.8-3.75l2.95-1.9q-9.45-3.55-14.15-6.2-8.05-4.55-11-10.2 6.7 4.65 16.15 7.6 9.1 2.85 13.1 1.9 5.35-1.3 12.45-8.3 9.05-9 13.15-21.3l.6 7.95q.1 3.4-.6 5.2-1.25 3.1-3.95 7.7-3.55 6-6.35 8.3 4.05.55 14.05-2.5"/><path fill="#838688" d="m231.35 479.5-.15 6.25-.35 6q4.25 4.25 4.95 7.7 1.35 6.7 8 8.65 6.85 1.95 10.4-4.45 1.25-2.2 2.65-6.5 6.65 2.1 13.85 3.6 9.2 1.95 12.7 1.35-.35 9.1.45 18.65 1.1 13.4 4.05 20.3l-4.95-5.25-4.5-4.8q-1.1 1.85-3.4 7.25l-3.05 7.1q-3.5-1.55-6.55-4.55-3.25-3.15-5.05-7l-6.1-14.25q-4.35-10.25-4.9-10.35-.5-.1-3.45 8.95-3.65 11.05-4.9 13.95-2.5 5.9-4.8 8.9-3.25 4.2-7.85 5.75l-3.3-9.3q-2.15-5.85-3.2-6.3-.7-.3-3.7 2.9l-4.5 5q1.1-11.05.7-27.2-.5-20.1-3.5-28.95 1.1.75 2.85 1.25l3.05.3q2.4-.35 6.1-1.6 4.15-1.35 8.45-3.35"/><path fill="#838688" d="M203.55 530.85q-3.15-.6-5.95-2.25-3.8-2.25-5.2-5.6l-5.45-12.8q-4-9.1-4.55-9.1t-3.75 8.2l-4.55 11.45q-4.2 9.35-11.15 9.35l-2.05-5.85q-1.4-3.7-1.9-3.8-.55-.1-2.45 1.35l-3.15 2.85q1.55-9.55 2.05-20.2.6-13-.95-19.65 4.75-.9 11.3-3.35 3.55 5.5 6.8 14.8 1.2 3.45 6.8 3.8 6.05.35 9.35-4.85 5.5 1.45 12.2 2.15 7.85.8 12.45-.15.6 4.2.9 12.8l.15 11.8-2.8-2.15q-1.4-1-1.9-.9-.55.1-2.4 3.8-1.75 3.45-3.8 8.3m282.65-66.3q.95 3.1 1.85 13.9-12.2 1.75-24.1.55-10.15-1-18.45-3.9-4.25-5.25-10.8-10.05-4.95-3.7-10.1-6.35 11.35-4.55 22.3-12.05 12.2-8.25 21.4-18.5l2.15 2.7q4.05 5.85 8.9 16.35 4.75 10.2 6.85 17.35m3.95 56.7q.3 15-.2 22.75l-30.3-4.2q-2.85-.45-4-2.35-1.25-2.15-.8-6.6.45-4.7.35-12.25-.15-7.7-.8-14.8l-.65-6.35q5.1 2 9 2 3.4 0 10.25-1.65 7.7-1.85 16.05-5 .85 14.5 1.1 28.45"/><path fill="#3e3a39" d="M461.6 423.8q3.45 1.1 6.7 4.35-9.2 10.25-21.4 18.5-10.95 7.5-22.3 12.05l-1-.5-2.7 1.85-1.85.65q13.15-7.3 25.55-18.75 9.05-8.3 17-18.15m-95.95 6.8q.2-4.25-1.05-12.25-1.1-6.95-2.7-13.5 3-1 5.8.05.4 6.4-.1 13.25-.55 6.95-1.95 12.45"/><path fill="#edc300" d="M355.6 446.9q2.9 1.5 6.5 4.5 3.9 3.25 4.35 4.8.5 1.8-2.2 9.2-2.8 7.75-5.4 10.1-7.4 6.8-24.45 7.25-15.85.5-21-3.85 15.25-4.1 27.15-13.75 10.5-8.45 15.05-18.25"/><path fill="#c6a400" d="M363.65 467.25q-2.7 6.3-4.8 8.25-6.15 5.75-22.05 6.9-15.15 1.15-21.85-2.55 8.35 1.2 16.85-.3 6.9-1.2 14.7-4.35 6.35-2.55 11.95-8.55 4.8-5.05 7.8-11.1.55 4.45-2.6 11.7m157.4-4.9q-1.3.1-6.95-3.1-5.25-3-9.25-5.95 6.4.6 15.6-1.6 7.7-1.8 11.25-3.8-.85 3.85-5.1 9.25-4 5.05-5.55 5.2m-29.5 29.35q-15.6 7.6-29.6 7.6-5.35 0-12-3.3-7.15-3.55-9.8-8.3 16.2 5.3 35.1 2.75 21.6-2.9 38.65-15.55-7.65 9.55-22.35 16.8m4.25 44.4q16.45 5.25 31.85 10.35-31.9.5-39.9.3l3.6-4.85zm43.25 3.3q-10.5.35-18.2 1.65l-14.05-9.75q2.1-1.7 3.45-3.8 1.05-1.6 2.1-4.4 1.35-3.55 8.35-27.35.4 5.55 2.3 14.45 1.4 6.5 2.65 10.75.55 1.95 2.75 4.15 2.95 2.95 9.2 7.05 9 5.9 16 7.35-7.05-.3-14.55-.1M416.3 471.75q-.35 5.85 4.95 23.55 1.2 4.1 3.4 5.4 2.35 1.35 8.25 4.5 6.55 3.5 9.7 5l-10.15.4q-6.9.6-10.2 2.25l-7.65-5.4-7.15-5.15 2.05-2.8q1.2-1.8 1.55-3.1l2.65-11.7zM388.8 517l6.35-8.75 6.8-9.45 12.25 8.5 11.75 8.7q-5.35-.1-18 .25z"/><path fill="#838688" d="M414.4 480.1q-2.35 13.5-3.25 15.65-1.35 3.35-3.7 6.55l-3.5-2.2q-1.6-1-2-.95-.6.1-12.05 16.2l-14.95-1.45q-10.15-1.4-13.3-2.7-3.25-1.4-3.2-5.05.6-4.4.15-6.65l2-2.6 1.3-2.25q0-.45-3.05-1.8-.35-2.4-1-4.05 1.45-2.35 2.25-5.1.8-2.85.3-4.15 12.25-1.1 29.1-6 19.25-5.65 28-12.1z"/><path fill="#c6a400" d="M352.95 490.65q3.5 1.45 8.95 4-1.7 3.65-9.9 11.05-6.5 5.85-11.25 9.2l6.25-12.8q3.7-7.55 5.95-11.45m-40.2 26.2-2.9-7.7q1.5-.5 2.3-1.9l1.05-3.3q.6-2.6 1.9-18.7 4.05 3.6 15.4 15.5 2.15 2.25 5.65 3l6.15.65-1.65 7.35q-1.8.4-3.45 2.5-.8 1.05-2.35 3.75-.75 1.4-3.4 9.1l-4.15 12.1-1.65-12.15-1.85-11.2q-.55-2.5-4.9-2.35-4.45.2-6.15 3.35m-11.15-17.3q2.55 3.45 6 9.6 3.55 6.3 5.45 10.9l-8.6-7.4q-6.5-5.8-7.65-7.25zm-52.65 9.5q.8.25 5.7 11.25l6.7 15.05q3.35 6.85 10.65 10-1.85 4.05-3.6 9.45-1.6-.3-3.8 1.1-1.8 1.1-3.6 3.15-2.95 3.25-9.85 15.1.25-6.05-.05-16.35l-.4-10.85-.3-6.45zm18.1 50.1 9.15-11.05 8.4-10.3 7.5 8.4zm-51.75-21.9 8.65 10.4 8.65 11.05q-4.7-2-13.15-6.35l-11.45-6.3 3.3-4.15zm-1.15-11.4-.35 6.9-1 7.3-7.2 4.15-8.75 4.8 8.35-11.2zM182.4 501.1q.7.25 4.1 8.15l5.2 12.35q3.05 7.1 11.85 9.25l-4.25 10.1q-1.55.2-3.6 2-1.95 1.7-3.35 3.9t-4.05 7.35q-2.8 5.45-4.55 9.55l-.4-14.2-.25-11.5-.2-3.95-.15-4.55q-.15-1.55-.15-12.65zM153 525.05q2.15 2.8 15.65 23.8l-11.65-7.8-11.6-8.15q2.65-3.45 7.6-7.85m14.35-45q-10.4 4.4-13 4.4-2.8 0-8.25-4.45-5.7-4.65-7.35-8.65L159.1 473q15.65.8 24.15-.6-5.75 3.4-15.9 7.65m26.35 11.1q10.25-.4 18.6-3.45l1.1 9.5-16.85-.75q-12-1.8-18.55-5.8zm11.7-12.2q-6.8-5.4-9.45-9.5 10.5 4.5 25.3 4.9 15.5.4 26.75-4.1-3.9 4.35-16.85 9.65-12 4.9-15.75 4.7-3-.1-10-5.65m89.3 10.6q-2 3.65-5.55 7.65-3.85 4.25-5.75 4.45-6.05.65-19.7-2.75-14.95-3.75-21.4-8.55 10.4 3.55 23 3.6 14.05.05 29.4-4.4m-22.25-19.45q11.15 4.7 19.95 4.25 10.55-.5 23.95-8.1-5.3 6.15-11.1 10.15-7.6 5.25-13.65 4.8-5.65-.4-11.75-4.8z"/><path fill="#ffe792" d="M149.4 456.95q-.65 3.4 1.15 8 1.9 5 5.45 7.75-12.55-.25-17.25-1.35.2-2.65 3.9-7.65 3.75-5.05 6.75-6.75m55.25 15.35q-5.3-1.3-8.45-3.35 6-11.9 12.45-15.4-1.65 4.6-.1 10.8 1.5 6.05 4.85 9.25zM275 448.1q-.65 6 .55 12.7 1.65 8.75 5.95 12.6-13.1-3.65-15.75-11.35.25-2.45 3.35-7.15 3.1-4.65 5.9-6.8m-30.2 43.05-2.8-1.9q11.9-1.3 20.55-4.65-6.35 6.1-13.75 8.05-2.15-.5-4-1.5m-48.7-9.3-4.55 5.25q-2.6 2.7-5.05 4l-8.5-.45q11.95-5.5 18.1-8.8m126.05-5.55q4.55-1.65 9.2-4.25-1.55 2.25-4.2 4.65-2.55 2.3-4.8 3.6-4.8-.15-8.95-1.4zm168 1.75q9.65-1 24.3-4.55l-3.25 3.2-3.55 2.55q-8.7 1.25-17.5-1.2m33.6-33.8q-.8-4.1-2.25-7.45 3.05 1.65 6.25 5.3 3 3.45 3.95 6.05-2.9 1.6-7.45 2.9.4-2.45-.5-6.8"/><path fill="#838688" d="M456.55 423.7q2.2-.8 5.05.1-7.95 9.85-17 18.15-12.4 11.45-25.55 18.75l1.85-.65q-10.6 7.05-26.6 12.1 14.55-12.05 24.6-21.85 13.75-13.45 21.3-24.55 10.4.1 16.35-2.05"/><path fill="#3e3a39" d="M440.2 425.75q-7.55 11.1-21.3 24.55-10.05 9.8-24.6 21.85-6.8 2.25-15.15 4.05 8.25-12 15.25-29.35 5.1-12.65 8.9-26.35 20.5 5.1 36.9 5.25"/><path fill="#ffe792" d="M239.3 537.05q1.65 4.25 4.85 8.25 3.1 3.95 6.6 6.35l.25 8q-3.95-2.25-7.75-6.35-4.55-4.9-7.6-11.05 2.6-2.95 3.65-5.2m-65.9-13.4q.85 4.3 4 9.85 2.85 4.9 5.6 7.75l.4 6.4q-3.05-2.1-6.9-7.35-4.5-6.25-6.5-12.45 2.25-1.65 3.4-4.2M342 160q-6.25 2.35-11.4 6.55-6.2 5.1-7.85 10.85l-2.65-2.95q1.85-6.7 7.6-13.8 6.25-7.75 12.8-10.1 0 6.4 1.5 9.45m4.3 55.65q-7.85 3-13.95 7.05-7.15 4.65-9.95 9.55l-2.7-1.35q1.25-4.55 9.4-11.75 6.4-5.65 13.25-9.9zm2.25 50.9q-8.2 1.5-16.75 5.3-8.65 3.8-11.4 7.2l-2.55-2.4q2.5-4.65 11.15-9.9 7.85-4.8 15.45-7z"/><path fill="#ffe792" d="m324.55 207.25 17.05 2.5-7.5 5.2q-14-5.4-27-9.25zm40.95-21.3q10.05 5.8 31.2 9.95-7.1 1.8-15.55 2.25-4.45-1.25-8.9-5.05-2.9-2.5-6.75-7.15m9.25 51.5q4.95 2.25 14.4 5.05 8.3 2.45 15 3.9-6.9 1.7-18.7 2.05-5.1-2.35-10.7-11m22.6 67.25q-3.25-1.65-6.35-4.65l-6.05-6.35q7.9 3.25 27.7 9.15-5.95 1.5-15.3 1.85m84-45.1q-6.4-1.85-11.65-1.6-1.7-6.7-3.75-11.75 6.65 1.5 15.35 7.8 8.4 6.05 11.25 11.1-4.15-3.5-11.2-5.55m-10.45-55.3q7.95 5.75 9 9.5-4.65-2.9-12-4.9T455 207l-4.95-12.05q11.35 2.6 20.85 9.35m-33.7-56.95-3.7-11.3q13.85 4.9 22.15 12.5 6.7 6.05 7.55 11.3-4.5-4.45-12.55-8.2-7.6-3.6-13.45-4.3"/><path fill="#c6a400" d="M374.45 208.1q-19.2 5.9-33.1.55-4-1.5-12.1-14.7-8.05-13.05-9.15-19.5 9.1 13.7 28.15 20.1 21.75 7.3 47.9 1.35-2.1 2.95-7.95 6.3-6.15 3.55-13.75 5.9m-67.35-2.4q10.05 8.7 19.6 15.95l-2.8 2.7-2.55 2.65-7.3-10.75zm22.9 40.8q-6.5-8.2-10.3-15.6 15.9 9.95 39.25 14.75 25.45 5.2 45.2.75-8.8 7.2-27.6 11.9-20.85 5.25-32.55.65-5.95-2.35-14-12.45m-1.6 51.4q-11.9-14.7-10.55-21.25 10.8 9.4 21.9 15.1 11.8 6.05 27.35 9.65 25.3 5.9 45.55 1.45-7.3 6.4-32.6 10.6-24.3 4.05-32.35 1.35-7.75-2.6-19.3-16.9m112.55-104.1q-9.65-.9-14.35-3.3 12.6-5.1 23-15 7.1-6.75 13.55-16.25.4 7.65-4.05 20.55-4.2 12.1-6.65 13.5-2.25 1.35-11.5.5m38.7 18.8q1.45 3.9-1.6 14.95-3.25 11.95-8.15 15.95t-13.85 3.5q-7.3-.4-15.2-3.5 17.4-4.8 27-13.25 7.6-6.8 11.8-17.65m.55 89.75q-3.35 1.85-12.6.2-8.8-1.55-13.05-4.15 16.9-.25 27.2-12.35 7.55-8.85 10.6-22.7 2.85 5.55-2.75 21.55-5.4 15.15-9.4 17.45"/><path fill="#838688" d="M140.4 474.75q-17.15.55-37.5-4.45-20.3-4.95-39.55-14.35-20.1-9.85-35.25-22.75-16.3-13.95-24.55-29.6-1.7-3.2-2.15-5.25-.5-2.45.5-3.85 7.65 11.6 25.75 22.2 17.4 10.2 39.8 16.9 22.9 6.8 44.65 7.95 23.35 1.3 40.2-4.4-.9 3.95-1.75 10.6l-1.15 9.2q-2.05.3-6.45 6.5-4.2 5.85-4.2 7.35 0 2.3 1.65 3.95"/><path fill="#0d131a" d="m335.5 53.2 1.5.3q-1.9 3.6-2.85 9.05-1.05 6.05-.15 10.3.25 1.15-.2 1.25-.5.15-.8-1-1.3-4.5-.3-10.6.85-5.25 2.8-9.3m-1.75 39.75q2.05.85 6.15 1.25l5.85.25q.15 3.65-1.1 5.9-1.35 2.35-3.85 2.55-2.65.15-4.85-2.85-2.25-3.1-2.2-7.1"/><path fill="#ba0031" d="m336.6 93.45 3.15.65 2.85.25q.2 4.05-2.3 4.35-1.45.1-2.45-1.3t-1.25-3.95"/><path fill="#0d131a" d="m338.85 94.55.9.1 1.05.05q.2.8-.05 1.45-.25.6-.75.6t-.85-.65q-.4-.7-.3-1.55m28.3-5.35q10.75-6.55 15.75-11.55 1.85 3.7 1.55 7.8-.3 4.6-3.35 6.85-3.1 2.3-7.25 1.55-4.45-.8-6.7-4.65"/><path fill="#ba0031" d="m372.2 86.25 6.3-4.35q1.4 2.05 1.25 4-.15 1.8-1.5 2.65l-3 .2q-1.85-.6-3.05-2.5"/><path fill="#0d131a" d="m374.85 84.75 1.45-1.15q.75.3 1.1 1.4.3 1.1-.25 1.5-.6.4-1.4-.2t-.9-1.55m42.35-2.6q.1-1.25.6-1.3t.55 1.2q.4 5.45-1.1 11.9-1.45 6.25-4.45 12.45-2.4 5.05-9.6 10.45-6.85 5.25-16.75 9.8l-1.55-.9q10.55-4.8 17.7-10.85 5.85-5 8.05-9.55 6.2-12.85 6.55-23.2m5.35-5.75q-1.4.15-1.45-.45-.05-.55 1.3-.8 9.4-1.65 27.65-2 17.05-.35 24.9.6 1.35.2 1.3.75t-1.4.5q-7.6-.3-24.8.1zm-5.45-1.65q1.5.5 1.35 1.05l-1.65.15q-5.45-1.4-12.2-2.2l-11.8-.55q-1.25.1-1.3-.5t1.2-.7q5.55-.5 12.2.2 6.9.75 12.2 2.55m-47.35 51.05q5.55-1.55 12.25-8.8 8.05-8.65 12.05-20.2l.45 3.3q-3.95 10.8-11.9 18.9-6.55 6.6-12.2 8.45-4.15 1.35-13.8-1.4-10.25-2.85-16.4-7.75l-1.7-3.25q6.35 5.5 16.9 8.9 9.9 3.2 14.35 1.85m-1.1 4.9q-1.05-.55-.9-.95l1.35-.05q4 1.25 5.6 3.35 1.2 1.6 1.9 3.55l.95 3.95q.25 1.25-.25 1.3t-.85-1.2q-1-3.8-2.95-6.65-.9-1.35-4.85-3.3m27.9-3.95q.45-1.05 1-.9t.3 1.25q-.9 3.45-1.15 6.85-.05 1.3-.65 1.25-.6 0-.65-1.3-.05-4.3 1.15-7.15m44.85 34.7q-1.4 18.1-13.75 28.75 5.85 2.25 14.25 2.85l9.7-.45q3.1-1.45 7.3-16.05 4.15-14.45 2.75-18.15-1.45-3.9-8-9.55-7.8-6.7-17.75-10.8 5.85 18.2 5.5 23.4m-8.9-24.75q-.5-1.5.1-2.3.6-.7 1.75-.25 10.85 4.2 20.35 12.25 8.25 7 9.7 11.35 1.4 4.25-3.15 19.3-4.7 15.5-8.7 17.5l-10.95.35q-9.55-.85-15.5-3.4-.75-.3-.9-.85-.1-.55.55-1.15 5.9-5.3 9.1-12.15 3.2-6.9 4-15.8.35-4.5-6.35-24.85m-75.25 221.15q-.65-1.05.15-1.5.75-.4 1.45.6 8.7 12.85 11.8 27.75.25 1-.3 1.1-.5.1-.75-.9-4.25-14.75-12.35-27.05M169 489.25q-.5-.9.25-1.25.75-.4 1.25.5 2.05 3.5 2.7 7.2.15.8-.35.9-.45.15-.7-.6-.95-2.85-3.15-6.75m-10.4 32.3q-3.95 3.3-11.75 11l20.95 14.8q-6.25-18.6-9.2-25.8m11.6 26.95q.35 1.15-.2 1.45-.6.25-1.75-.4-2.6-1.55-10.8-7.05l-12.95-8.8q-1.05-.8.15-2 9.9-9.9 12.95-12.25 1.05-.8 1.7-.7t1.1 1.1q2.45 5.5 9.8 28.65m11.8-41.9q.1-.95.55-.95.5 0 .5.95l.6 22.65q.05 1.1-.8 1.1-.8 0-.85-1.1-.4-15.8 0-22.65m.2 30.7q-.05-1.2.75-1.25t.85 1.1q.85 13.3.35 20.6-.05.9-.65.85-.55 0-.55-.95 0-8.45-.75-20.35m19-74.55q-4.05 5.55-4.2 7 .2 1.75 7.85 7.55 7.85 5.95 10.75 5.85 3.8-.1 14.85-4.3 12.55-4.7 17.4-9.1-7.95-.45-19.35-4.25-13.5-4.45-20.1-10.4-2.8 1.65-7.2 7.65m48.15 5.3q.85.05 1.1.5.35.55-.3 1.35-4.15 5.1-17.5 10.75-12 5.1-16.9 5.25-3.3.1-12.05-6.7-8.8-6.85-8.6-9.7.15-2.1 4.5-8.4 4.7-6.85 8-8.55l1.6.1q6.6 6.2 20.8 11 11.8 3.95 19.35 4.4"/><path fill="#0d131a" d="m209.25 482.05 3.6 1.5q2.85 13.95 3.3 30.5.4 17-2.15 25.7l-3.55 3.6q3.1-7.5 2.65-27.25-.45-19.35-3.85-34.05m40.65 64.85q-.05-1.1.75-1.15.85-.1.9 1 .75 13.3.2 20.85-.05.95-.55.95-.5-.05-.55-1-.1-9.15-.75-20.65m67.85-23.7q-1.05-1.85-2.35-3.15-1.4-1.45-2.45-1.5l-.75-2.5q1.85.15 3.9 2 1.9 1.65 3.25 4.1l7.75 15.65q1.5-5.15 3.85-11.8 1.85-5.2 3.05-8.1 2.6-6.15 7.25-7.75l-.55 2.3q-1.7 1-2.65 2.1-1.35 1.45-2.4 3.9-5.1 12.5-7.3 20.8-.35 1.4-1.05 1.45-.65.05-1.25-1.2-5.25-10.7-8.3-16.3m-1.1-32.15q-.25-.9.25-1t.8.8q4.15 12.65 5.15 17.05.25 1.1-.55 1.25-.75.2-1-.9-1.1-5.25-4.65-17.2"/><path fill="#0d131a" d="M322.85 515.4q-.15-.95.6-1.05t.95.85q1 5.25 2.35 16.1.1 1.1-.4 1.2-.55.05-.75-1.05zM344 501.6l-2.75 12.3 10.2-8.9q5.7-5.4 9.05-10-3.7-1.95-13.3-5.9-1.2 3.85-3.2 12.5m3.1-14.85 8.35 3.4 7.25 3.45q1.2.7.35 1.85-6.25 8.9-21.9 20.9-1.1.85-1.65.25-.45-.5-.25-1.6 3.65-19.5 5.75-27.15.2-.7.75-1.05zm-22.7-145.9-.25-.4q-2.35-9-.45-18.9 1.9-10 7.85-19.55l1.45 1.45q-10.45 19.3-6.8 35.7 29.75 21.45 38.85 46.65 7.1 19.8 2.2 45.85-1.55 4.3-4.25 9-2.6 4.55-5.2 7.6l-1.95-1.15q2.85-3.4 5.45-8.2 2.15-4 3.55-7.95 5.05-27.15-4.75-49t-35.7-41.1"/><path fill="#0d131a" d="M355.9 392.55q-7.05-15.55-17.35-26.4-6.65-7.05-12.85-11.2-5.7-3.8-9.1-3.9-2.9-.1-9.15 4.55-6.95 5.15-10.6 11.3l1.7-5.85q3.85-5.05 9.65-8.9 5.45-3.65 8.35-3.55 3.75.1 10.1 3.95 7.25 4.45 14.2 11.85 10.2 10.8 16.75 24.8 9.2 19.75 8.85 41.75l-2.3 4.75q1.45-21.75-8.25-43.15m46.25 107.55-11.7 16.05 17.1-.75q10.55-.3 16.35 0-9.85-7.35-21.75-15.3m-12.9 17.95q-.85.05-1.1-.75-.25-.75.25-1.4l12.45-17.2q.75-1.15 2.05-.3 5.2 3.25 12.25 8.3l11.15 8.45q.6.5.45 1.15-.15.6-1 .65zm28.3-37.7q.6 2.7 2.15 7.85l2.2 6.7q.3.85-.45 1.15-.7.25-1.05-.6l-2-6.95q-1.4-5.3-1.85-7.85-.15-.8.35-.95.45-.15.65.65m6.7 21q-.85-.45-.5-1.2.4-.7 1.3-.3 3.8 1.9 9.6 5.85.7.5.45.9l-1.05-.05q-3.6-2.1-9.8-5.2m66.3 41.7-1.65 2.25-18.4-2.45q-10.85-1.6-13.6-2.45-3.15-.95-3.85-3.5-.5-1.8 0-6.7.8-7.6.2-17.1-.6-9.4-2.3-17.15l3.85 1.8q1.55 7.25 1.9 15.65.4 8.55-.55 16.9-.45 4.05-.2 5.15.35 1.7 2.5 2.4 5.4 1.7 32.1 5.2m30.1-49.35q1.05-.05 1.55 1.15l5.85 15.65q4.1 11.1 4.6 11.6l8.55 6.95q8 6.2 12.75 9.4.95.6.8 1.3t-1.25.65q-8.7-.35-18.1 0-10.55.4-14.2 1.45l-1.75-1.7q3.3-1.2 14.4-1.5 9.85-.25 17.85.25l-12.4-8.6q-6.8-5-8.25-6.55-.6-.65-4.25-10.3l-5.9-15.9-3.6 13.05q-2.4 8.65-3.75 12.2-1.4 3.85-2.95 6.05-1.3 1.9-3.2 3.2l-1.7-1.25q1.9-1.25 3.05-2.9 1.4-1.95 2.8-5.8 1.65-4.45 4.25-13.8l3.45-13.3q.35-1.3 1.4-1.3"/><path fill="#0d131a" d="M528.95 524.6q10.1 7.9 15.4 11.1 1 .65.75 1.05l-1.35-.15q-2.95-1.65-7.9-5l-7.75-5.65q-.8-.6-.35-1.25.4-.7 1.2-.1m-6.85-86.55-7.5 7.2-8.65 8.1q3.75 2.55 9 5.35 5 2.65 5.85 2.65 1.25-.25 5.45-5.45 4.4-5.45 4.4-7.6 0-1.05-2.85-4.6-3-3.75-5.7-5.65m-.95-1.65q.9-.8 1.75-.2 2.8 1.8 6.3 6.1 3.4 4.3 3.4 5.95 0 2.85-5.05 9.2-4.95 6.25-6.75 6.25-1.35 0-7.3-3.5-5.5-3.2-9.15-5.9-.75-.55-.75-.95 0-.45.75-1.05l9-8.35zM367.1 42.7q-.75-.55-.6-1.1.1-.55 1-.65 12.1-1.45 21.7 3.9 9.35 5.2 9.4 12.7.05 7.35-11.85 18.25-10 9.15-22.2 15.75l-2.8 7.35-3.1 7.75-.55.55-.85-.25-5.75-5.4-5.75-6.1q-13.45-.2-19.35-3.8-5.95-3.55-5.95-11.6 0-7.25 4.7-15.65 4.75-8.45 11.15-12.45 1.6-1 1.35.8-1.25 8.8-.05 16.5 1.2 7.5 4.55 12.8 4.1 1.75 8.85 1.15 4.55-.6 9.2-3.3 7.05-4.1 11.5-10.95 4.45-6.95 3.8-13.1-.8-7.65-8.4-13.15m21.2 3.9q-8.45-5-19.1-4.3 3.25 2.25 5.45 5.8 2.25 3.65 2.65 7.65.65 6.3-3.4 13.35-4.45 7.8-12.7 12.6-6.1 3.5-12.35 3.35-6.35-.15-10.5-4-.9-.85-.7-1.25.2-.35 1.2.35l.3.2q-5.1-9.3-3.15-26.3-5.6 4.05-9.5 11.5-3.95 7.55-3.95 14.55 0 6.55 4.55 9.7 5.55 3.85 19.2 4 .35 0 .5.25 5.2 6.05 10.7 11l2.8-7.45q2.3-6.25 2.75-7.2l.35-.3q12.75-6.8 22.5-16.2 10.4-9.95 10.4-16.4 0-6.05-8-10.9"/><path fill="#0d131a" d="M355.2 65.1q-9.9 3.85-17.25 9.3l-.75-2.7q7.6-5.6 17.75-9.5 10.15-3.95 21.6-5.65l-.3 2.85q-11.05 1.75-21.05 5.7m99.95-1.85q12.05 2.9 20.55 5.9 8.05 2.9 8.35 4.15.8 2.95-21 24.2-21.1 20.55-32.75 28.95l-1.35-2.6q13.05-9.9 32.85-28.6 19.45-18.45 20.25-21.4-3.65-3-29.05-8.75-30.65-6.95-55.65-7.1v-2.75q26.25.3 57.8 8m-115.4 81.05.3 2.95q-10.75.15-30.75-2.85-19.55-2.95-20.75-4.65-.55-.75 1.65-6.2 2.4-5.85 6.6-13.45 11.2-20.25 25.35-35.3l1.2 2.85q-13.05 13.85-23.9 32.45-8.5 14.55-9.1 18.7 2.7 1.3 20.3 3.4 18.75 2.25 29.1 2.1"/><path fill="#0d131a" d="M312.75 117.15q1.1-.7 1.4-.25.35.45-.7 1.2-9.1 6.8-20.4 19.2-.8.9-1.25.5-.4-.4.4-1.35 10.5-12.5 20.55-19.3m16.05-18.9q.8-.7 1.3-.3.45.4-.3 1.15-4.65 4.65-11 12.5-.65.85-1.1.55-.45-.25.1-1.15 5.3-7.85 11-12.75m36.85 34.6q.5.1.6.5.15.4-.3.8-5 4-14.2 6.95-9 2.95-12.9 2-3.95-.95-10.4-8.2-7.2-8.15-10.65-17.25-.45-1.2.15-1.35t1.15 1.05q4.25 9.25 11.1 16.5 5.8 6.1 9.1 6.9 3.5.85 11.35-1.3 8.15-2.25 13.15-5.65-4.7-1.3-9.75-3.6-4.95-2.2-8.05-4.4-3.65-2.6-7.25-8.05-3.5-5.3-5.65-11.35-.4-1.2.1-1.5t1.1 1q2.55 5.95 5.9 10.75 3.5 5.1 6.9 7.55 3.2 2.3 8.85 4.95 5.65 2.6 9.7 3.7"/><path fill="#0d131a" d="M330.5 128q6.4 4.85 9.75 5.7 4.9 1.35 11.25 1.45 7.75.15 12.75-1.9l.25 1.5q-5.45 2.1-13 2.1-6.45 0-11.7-1.35-3.4-.85-9-4.9-6.15-4.45-11.05-10.2l-1.25-3.45q5.2 5.9 12 11.05m35.2-29.4q4.85-4 7.75-6.25l1.95.35-8.45 7.1-8.55 7.3-.7.15q-7.65-2.5-14.3-6.4l.8-1.15q8.1 3.85 13.45 5.75 3-2.7 8.05-6.85"/><path fill="#0d131a" d="m378.5 92.05 1.65-.25q-1.8 8.05-7.35 19.1-5.15 10.4-6.9 10.8-1.8.4-11.15-6.55-9.9-7.3-14.2-12.9l1.5-.65q4.5 5.2 13.45 11.85 8 5.9 9.7 6.25 1.4-1.1 5.65-9.45 4.85-9.6 7.65-18.2m-40.45 16.15-1.3-1.55q.65-2.3 1.95-4.95l1.55.7q-1.5 3.25-2.2 5.8"/><path fill="#0d131a" d="m329.3 92.45 1.75.35q1.4 3.6 3.95 8.9 2.45 5 3.15 5.8.6.75 6.2 3 5.95 2.4 11.3 3.85l2.2 2q-5.25-1.1-12.65-3.95-7.25-2.8-8.2-3.95-.85-1.05-3.6-6.65-2.85-5.9-4.1-9.35m53.45-4.35 3.3 2.2q2 1.3 2.65 1.95l-.5 2q-3.35-2.9-6.2-4.45z"/><path fill="#0d131a" d="m387.25 73.85 1.4-.9q1.5 17 .5 20.95-.7 2.7-7.5 9.7-6.55 6.7-11.1 9.75l1-2.5q4.5-3.5 9.95-9.25 5.7-6.05 6.2-8.1 1-3.95-.45-19.65m-21.1 46.35-1.5.4q-2.3-2.95-4.5-7.1-2.25-4.1-3.1-7l1.4-.45q.9 2.9 3.2 7.1 2.25 4.25 4.5 7.05"/><path fill="#0d131a" d="M419.65 94.65q.75-9.8-1.2-16.55-.25-.95.2-1.25.5-.3.85.8 2.9 8.35 1.9 19.95-.9 10.15-4.2 18.75l-.3.35q-7.3 4.75-17.45 7.9-9.3 2.85-15.15 2.75l-.75-.4q-.15-.4.2-.8 4.45-5.2 7.35-10.3 2.75-4.85 2.95-7.6.45-6.05-.6-13.1-.85-5.8-3-13.95-.3-1.15.2-1.25.55-.15.9.95 2.4 7 3.8 15.6 1.35 8.35.75 11.75-1.6 8.35-10.15 17.55 5.75-.35 13.85-3.25 8.5-3.05 15.3-7.45 3.75-9.9 4.55-20.45M337.6 141.3l2.7.8 1.4 7.35-2.65.8z"/><path fill="#0d131a" d="M340.25 160.6q-.4-.8-.65-3.7l-.3-4.7q-5.55 4.05-11.2 11.05-5.5 6.8-6.65 10.7-1.05 3.5 8.15 17.95 9.3 14.6 13.95 15.95 12.55 3.7 29.15-.55 15.05-3.9 22.4-10.8-41.25-6.05-54.85-35.9M339 148.25q.95-.6 1.75-.25.75.35.95 1.45l.65 5.8q.45 4.45.8 5.1 9.55 17.1 25.1 25.4 9.7 5.2 28.2 9.1 2.05.45.75 2.05-6.3 7.85-23.15 12.75-18.15 5.25-31.6 1.3-5.45-1.6-15.2-17.4-9.65-15.6-8.45-20.15 1.4-5.2 7.55-13 6.4-8.15 12.65-12.15"/><path fill="#0d131a" d="m395.55 195.55.2 1.4q-22.35 5.2-42.3.65-23.2-5.3-33.35-22.45l.4-2.25q11 16.8 33.9 22.45 20 4.95 41.15.2m6.7 51.35q-17.65-3.1-33.25-11.4-18.7-10-27.05-24.2-5.85 3.7-13.2 10.25-7.85 6.95-7.85 9 0 2.7 8.8 13.55 9.55 11.75 15.3 13.6 11.25 3.6 28.95 0 16.95-3.4 28.3-10.8m-31.55-13.15q15.55 8.45 33.5 11.65 1.05.2 1.2.85.15.7-.7 1.25-11.55 8.1-29.55 12.5-19.3 4.65-31 .9-6.25-2-16.35-14.65-9.4-11.75-9.65-15.35-.2-3.2 8.85-11.45 7.85-7.15 14-10.85.7-.45 1.4-.35.75.05 1.1.7 8.4 14.6 27.2 24.8"/><path fill="#0d131a" d="M360.5 244.95q23.95 4.45 42.55 1.15l.2 1.4q-17.4 4.05-41.8-.05-25.9-4.3-41.35-15.2l-.2-3q15.15 10.9 40.6 15.7m-36.15-38.85 18.1 2.85-2.3 1.9q-23.05-4.1-32-4.45l14 19.7-1.4 2.15q-6.2-8.5-14.85-22-.5-.85-.2-1.3.3-.5 1.3-.5zm87.2 96.4.2 1.4q-24.2 5-53.15-3.55-27.8-8.15-41-22.65l.85-1.9q14.15 13.95 41.15 22.2 28.55 8.75 51.95 4.5m46.25-2.05 2.85.75q5.9 26 9.05 43.45 3.25 18.25 2.55 22.25-1.5 8.5-8.05 22-6.8 14.1-16.8 28.85-24.3 35.85-51.2 53.5l-7.9 2.45q28.7-17.15 55.05-54.55 10.8-15.25 18.1-29.9 7-14.05 8.45-22.7.7-4-2.75-22.45-3.2-17.2-9.35-43.65m1.2-6.55-2.25 2.15q-5.9-25-12.7-51l3.1.75q6.4 24.75 11.85 48.1m-29.7-102.05 3.2.85q6.25 21.15 12.8 45.9l-2.35 2.3q-7.2-27.1-13.65-49.05m-14.5-75.15q.2-1.95 2-1.4 4.7 1.3 8.45 3.85 3.65 2.4 5.55 5.3l.45.15 4.35 11.65-3.1.45-3.95-11.15q-3.35-5.15-11.75-7.75-.65 8.85-5.4 15.8 7.5 14.55 19.05 52.35l-2.2 2.25q-12.3-41.4-19.25-54.55-.25-.4.05-.75 4.95-7.15 5.75-16.2"/><path fill="#0d131a" d="m371 151.65-.6-1.85q7.3-4.3 20.3-7.55 12.7-3.1 21.95-3.05l.55 1.85q-8.95.3-22 3.55-13.05 3.3-20.2 7.05m26.6 12.7q-12.3 2.9-19.65 7.2l-.65-1.95q7.4-4.85 19.75-7.75 12.9-3.1 23.3-2.05l.5 2.15q-10.15-.7-23.25 2.4m-13 28.6-.7-1.8q7.25-5.4 21.45-8.3 12.7-2.55 21.8-1.6l.5 1.95q-8.7-.5-21.55 2.1-14.35 2.95-21.5 7.65m49.15 10.25.5 2.05q-9.35-.2-23.25 2.85-13.9 3-20.9 6.75l-.65-1.95q7.5-4.3 20.95-7.2 13.3-2.9 23.35-2.5m7.05 25.35.45 1.85q-9.1-.3-23.1 2.35-13.1 2.45-22.55 5.85l-.45-1.8q8.45-3.7 21.95-6.3 14.4-2.75 23.7-1.95m6.9 26.9.45 2.1q-8.4-2.1-23.8.65-13.8 2.45-23.6 6.75l-.45-1.9q9.5-4.75 23.55-7.2 15.05-2.6 23.85-.4m-18.25 29.9q-13.85 1.9-24 5.4l-.45-1.9q9.3-4 23.85-5.9 15.75-2.1 25.75.1l.35 1.95q-9.6-1.85-25.5.35m32.05 26.45.25 1.8q-11.65-2.8-29-.5-14.65 1.95-23.35 5.65l-.15-1.9q8.75-4.45 24-6.3 16.9-2.1 28.25 1.25m6.4 30.5.15 2q-10.1-3.25-27.85-2.35-17.65.9-27.5 5l-.25-1.85q9.05-4.75 26.95-5.65 17.9-.95 28.5 2.85m-25.95 30.25q-17.25 1.15-29.5 3.75l.2-2.15q12.4-3.05 29.3-4.1 18.15-1.15 28.1 1l-.2 1.95q-9.25-1.65-27.9-.45m-14.75-181.6-.45-1.35q10.15-3.55 22-14.55 11.2-10.5 13.95-17.9l.65 2.9q-3.65 7.95-14.2 17.35-11.35 10.05-21.95 13.55m51.55 22.65q-1.05-3-7.85-7.7-8.15-5.65-18.2-8.7 2.85 6.85 3.7 10.75 1.2 5.9-1.9 15.8-3.9 12.3-12.4 19.6 9.75 3.2 18 2.25 6.4-.75 9.9-3.5 2.55-2 6.25-13.4 3.7-11.7 2.5-15.1m-30-17.7q-.45-1.05.55-1.9 1-.8 2.2-.5 10.55 2.95 19.9 9.55 8.25 5.8 9.7 9.8 1.3 3.45-2 15.45-3.45 12.55-7.25 15.45-4.05 3.15-11.2 3.95-9.45 1.1-19.85-3.05-.85-.35-.9-1-.1-.65.6-1.3 8.55-7.45 11.9-20.15 2.45-9.45 1.35-13.75-.45-1.85-1.85-5.25z"/><path fill="#0d131a" d="m479.2 211.85.85 3.05q-4.9 12.3-17.4 20.4-9.05 5.85-20.95 8.85l-.35-1.4q11.4-3 21-9.65 12.75-8.85 16.85-21.25m-6.9 51.7q.6 6.8-3.5 16.85-4.95 12.25-13.55 18 4.45 2.1 12.45 3.15 8.3 1.05 11.85-.3 2.8-1.05 8.25-15.35 5.75-14.95 4-20.4-.9-2.75-7.45-7.75-7-5.3-15.55-9.35 3.05 9.35 3.5 15.15M465.7 245q1.3-.65 2.85 0 8.95 3.9 17 10.2 7.6 5.95 8.75 9.4 2.1 6.4-4 22.2-5.9 15.25-9.95 16.9-3.95 1.6-13.45-.15-8.9-1.6-13.15-4.05-.6-.35-.7-.9-.05-.55.5-.95 8.5-5.9 12.9-19.1 3.2-9.6 2.75-15.05-.45-4.8-4.3-15.9-.65-1.85.8-2.6"/><path fill="#0d131a" d="m454.75 299.25-.1-1.4q14.4-.1 25.2-11.4 9.9-10.4 11.45-23.75l1.65 2.85q-2.1 13.4-12.35 23.25-11.15 10.7-25.85 10.45m29.95 34.5q-3.7-18.05-6.9-31.15l3.85-.95q2.9 11.8 6.7 31.75 4.2 21.7 4.3 26.8.15 10.25-6.15 25.7-7.4 18.15-21.25 36.55-38.55 51.1-105.35 58.5l-.2-2.6q35.9-3.9 64.3-22.15 20.7-13.35 38.9-35.7 13.7-16.8 20.95-36.8 5.4-14.95 5.25-23.95-.05-4.8-4.4-26"/><path fill="#0d131a" d="m497.9 377 1.35 3.55q-8.2 24.25-28.55 46.8-22.1 24.45-46.15 32.05l-1.3-1.55q23.15-7.45 45.35-32.75 20.4-23.15 29.3-48.1m24.2 126.7q.7 3.8 4.1 16.8.25.9-.45 1-.7.15-.95-.7l-2-7.75q-1.3-5.65-1.8-9.2-.1-.95.4-1.05.5-.05.7.9m-27.95 32.75q4.55-5.7 7.1-8.45 1-1 2.2-.25 9.6 6.1 24.6 17.55 1.2.95 1.15 1.6-.05.75-1.7.8-26.4.25-39 0-1.25-.05-1.55-.7-.3-.6.3-1.5 2.1-3.05 6.9-9.05m8.45-6.85-6.2 7.55-6.6 8.45 36.4.45zm2.15-75.5.05-1.4q6.8-.05 14.05-1.45 8-1.55 12.35-4.05l.1 1.95q-4.5 2.65-12.5 4z"/><path fill="#0d131a" d="M444.3 476.15q-3.25-4.25-10.55-9.3-7.3-5.1-12.8-6.85l3.3-2.55q5.5 1.95 12.85 7.75 6.95 5.45 10.35 10.05z"/><path fill="#0d131a" d="M442.4 482.85q-1.75 4.1-1.45 4.95.7 1.9 7.2 5.75 7.7 4.55 14.1 4.65 9.35.15 23.6-5.3 18-6.9 27.3-18.25-15.45 4.45-33.65 5.45-21.8 1.2-33.75-4.05-1.95 3.6-3.35 6.8m72.1-10.3q.95-.3 1.3.15.4.5-.3 1.5-8.75 12.7-27.4 20.2-14.45 5.85-25.75 6-7.25.1-15.15-4.6-7.05-4.15-8.2-7.55-.95-2.85 5.1-13.35.4-.7.8-.85l1.05.15q12.3 5 35.6 3.7 19.95-1.15 32.95-5.35"/><path fill="#0d131a" d="m513.6 473.85.5 1.45q-12.25 11.15-34.6 15.3-22.45 4.2-38.8-1.7l-.35-2.2q16.15 6.05 38.65 2.1 22.4-3.95 34.6-14.95m-100.85 9.4 3.6-21 2.75-1.25-3.85 21.55q-2.5 12.7-3.55 15.05l-1.5 2.7-2.15 3.1-1.6-1.35 1.9-2.75 1.3-2.45q.95-2.15 3.1-13.6"/><path fill="#0d131a" d="M421.1 487.6q-2.85-8-5.2-15.45l.85-3.2q2.25 7.15 5.8 16.65 3.3 8.8 4.05 10.05.5.8 17.5 13.6.8.65.65 1.3t-1.2.65q-16.85.3-21.05 2.5l-1.45-1.55q3.95-2.45 20.65-2.55-16.4-11.7-17-12.7-.75-1.2-3.6-9.3m-61.2 5.9-2.7-1.15q-.1-2.35-.65-3.8l1.95-3.05q1.2 3.35 1.4 8m15.15 19.1q8.55 1.55 15.7 1.8l-1.2 2.3-16.25-1.55q-7.85-1.25-12.35-2.7-2.1-.7-3.15-2.45-1.15-1.85-.7-4.4l.5-5 2.65-3.15q.3 5.5-.1 8.15-.3 2 .4 2.9.5.65 2.25 1.2 4.75 1.55 12.25 2.9"/><path fill="#0d131a" d="m357.25 476.55 2.4-1.95q5.25 7.7-2.45 17.25l-2.4-1.15q2.95-3.8 3.75-6.75 1-3.9-1.3-7.4M313.2 494.5l.9-9.35q.1-1.05.65-1.2.6-.15 1.35.65l10.75 11.3q5.3 5.25 6.55 5.9 3.15 1.55 9.55 1.3l-.55 2.25q-6.85 0-9.95-1.55-1.55-.75-7.9-7.45l-8.7-9.45-1.55 18.7q-.15 2-1.7 3.35-1.2 1.05-2.45 1.25l-.75-2.1q2.35-.55 2.6-3z"/><path fill="#0d131a" d="m296.05 504.65 7.05-9.15q.6-.9 1.35-.85.8.05 1.3 1.1 1.8 3.65 8.6 24.2.45 1.5-.2 1.75t-1.75-.7q-9.75-8.35-16.35-14.8-.7-.7 0-1.55m16.3 14.25q-6.3-17.8-8.1-21.8-2.9 4.2-6.4 8.3z"/><path fill="#0d131a" d="m291.05 482.05 3.65-.05q6.6 7.7 7.1 17.45l-2.25 2.65q-.05-5.55-2.8-11.5-2.4-5.1-5.7-8.55m11.6-3.9 1.55-1.2q1.7 1.25 3.8 4.1.8 1 .35 1.35-.4.35-1.3-.55-2.1-2.2-4.4-3.7M314.7 480l.2-1.4q14.4 3.5 30.05-3.8 15.55-7.25 20.55-19.6l.9 2.35q-5.35 12.4-21.25 19.3-15.95 6.95-30.45 3.15m13.05-15.15-1.8 6.3q-.25.85-.75.7-.55-.15-.45-.85.7-4.65 1.4-6.65.3-.85 1.1-.6.75.25.5 1.1"/><path fill="#0d131a" d="M356.25 448.6q-5.5 10.05-16.55 18.7-11.9 9.35-24.15 11.95 7.15 3.8 21.15 2.45 14.05-1.35 20.9-6.55 2.1-1.6 5.2-9.1 2.9-6.95 2.9-9.05v-.2q-.4-1.25-3.35-3.85-3.1-2.8-6.1-4.35m-43.35 31.3q-.8-.65-.7-1.15t1-.65q12.45-2.55 24.7-12.1 11.4-8.95 16.8-19.15.6-1.25 1.7-.7 3.25 1.55 6.95 5.1 3.5 3.3 4.05 5.05.8 2.4-2.45 10.4-3.25 8.05-6.1 10.35-7 5.55-22.9 6.7-16.25 1.2-23.05-3.85m-40.8-9.65-3.95-4.85q9.3 8.5 23.5 8.1 13.5-.4 24.85-8.4l.55 1.3q-10.1 7.3-22.55 8.75-13.4 1.55-22.4-4.9"/><path fill="#0d131a" d="M266.6 462.25q.5 2.55 9.4 9.8 9.95 8.15 16.1 8.05 6.2-.1 14.05-5.6 5.25-3.65 9.85-8.6-13 1.2-23.65-2.7-11.45-4.2-17.55-13.45-2.45 2.45-5.35 7-2.85 4.4-2.85 5.5m6.95-14.95q1.45-1.35 2.35.2 5.8 9.2 18 13.7 11.3 4.15 23.1 2.75 1.1-.1 1.4.45t-.3 1.45q-3.65 5.3-10.2 10.35-8.6 6.6-15.85 6.75-6.3.05-17.15-9-10.25-8.55-10.25-11.6 0-1.75 3.3-7.35t5.6-7.7"/><path fill="#0d131a" d="m324.5 300.05 3.6-1.6q-4.5 6.75-8.85 14.55l-.2.25q-4.1 2.55-8.95 5.1l-5.85 2.95q2.95 1.05 11.15 2.75l.7.35.1.9-1.55 10q-1.1 5.95-2.15 8.15l-2 3.3q-16.9 21.5-25.65 48.05-8.6 25.95-8.6 54.45l-3.1-.1q-.65-28.05 8.65-55.1 9.05-26.55 26.5-48.7l1.95-2.9q1.6-3.25 3.55-16.55-8.25-2.05-11.6-3.55-2.2-.9-.1-2.1l6.65-3.65 8.55-5.2q1.1-2.05 7.2-11.35"/><path fill="#0d131a" d="M265.25 341.05q5.45-11.25 13.35-19.6l3.05-.25q-8.05 8.15-13.7 19.25-5.7 11.25-6.55 20.8 16.75 16.65 22.25 33.1l-1.55 3.5q-3-10.05-9.9-20.1-5.55-8-13-15.25l-.2-.55q.75-9.55 6.25-20.9m-7.95-.65-5.3 9.95q-3.45 6.15-4.7 7.65-11.35 13.45-19.5 30.2-14.5 29.7-17.85 66.05l-3.05-.15q2.85-36.75 17.4-66.05 7.6-15.4 20.8-31.5l4.2-6.9 4.95-8.95-7.4-2.05q-.65-.2-.8-.75t.35-1.1q1.65-1.8 7.65-4.6 4.5-2.05 8.9-3.6l1.6-1.85 1.9-2.65 2.95-.55-2.8 4.05-2.4 2.8q-4.9 1.9-8.05 3.15-5.85 2.4-7.4 3.85 3.4.45 7.9 1.65 1.15.3.65 1.35"/><path fill="#0d131a" d="M239.65 371.4q-4.65 4.05-8.8 10.35l2-6.55q4.15-5.25 8-7.85 3.45-2.35 6.3-2.35 4.4 0 15.6 11.7 12.4 13 18.25 26.75l-1.05 4.05q-5.8-14.5-18.45-28.2-10.8-11.75-14.4-11.85-2.9-.05-7.45 3.95m8.7 97.65.4 1.35q-7.4 4.2-23.35 4.85-17.75.7-28.8-4.6l.15-2.2q10.8 5.5 28.45 5.05 15.8-.4 23.15-4.45m-16.4 16.05q.1 3.6-.15 6.6 1.85 1.55 3.2 4 1.15 2.1 1.4 3.85.15.85-.35.8t-.7-.75q-.85-2.65-2.95-5.05l-2.1-2.2q-.2-.55.55-7.25.1-.7.6-.75.45 0 .5.75m24.65 14.95-2 4.05q-.4.55-.85.3-.4-.2-.2-.85.9-2.9 1.55-4.15.4-.85 1.1-.5t.4 1.15m16-5.45q-19.2 1.5-29.2-3.55l.1-1.55q9.4 5.1 28.75 3.4 15.4-1.35 22.25-4.35l.4 1.8q-6.75 3.05-22.3 4.25"/><path fill="#0d131a" d="m279.65 475.85 1.6 1.6q-4.75 3.75-16.95 7.8-11.5 3.8-20.15 4.9 6.1 4.5 20.3 8.05 13.1 3.25 18.7 2.55 1.35-.2 6.05-5 4.75-4.8 4.8-6.05 0-1.1-2.4-4.3-2.25-2.95-4.2-4.75l3.9.6q4.75 5.05 4.75 8.05 0 2.1-5.3 7.7-5.2 5.55-7.25 5.85-6.45.95-21.1-3.05-15.55-4.25-21.2-9.4-.95-.9-.5-1.45.35-.4 1.5-.5 8.05-.7 20-4.6 12.55-4.1 17.45-8"/><path fill="#0d131a" d="M285.2 500.95q-.85 11.55.9 25.2 1.7 13.45 4.65 19.2l-4.35-5.05q-2.75-6.65-3.85-17.95-1-10.15-.45-20.45z"/><path fill="#0d131a" d="M278.7 532.4q-8.05 18.8-10.6 25.45l22.3-11.8zm-1.65-1.7q.4-.9.95-1.05.7-.2 1.5.75l13.15 14.75.6 1.1q.1.6-.6 1.05-4.45 2.7-24.6 12.65l-1.65.1q-.65-.5-.25-1.75 2.05-6.25 5-13.75 3.25-8.3 5.9-13.85"/><path fill="#0d131a" d="m228.7 547.9-.75-1.9q7.25-2.55 11.45-12.2 1.45-3.3 4.4-11.95l4.25-12.9q.4-1.15 1.25-1.15.85.05 1.35 1.25l5.8 13.25 4.7 10.3q2.5 4.8 4.55 7.15 2.65 2.95 7 4.85l-.85 2q-4.75-2.1-7.95-5.6-2.35-2.65-4.75-7.3-1.25-2.45-4.35-9.9l-5.45-12.9-4.05 12.85q-2.7 8.4-3.9 11.2-4.35 10.05-12.7 12.95"/><path fill="#0d131a" d="M250.05 516.3q.6 8.25 1.1 24.05.05.8-.75.85t-.85-.65l-.35-11.3-.2-13.05q0-.85.5-.8.5 0 .55.9m-9.85 44.75q-4.7-4.75-8.25-4.8l-.95-2.45q8.9 0 20.2 19 10.3-20.15 17.7-19.2l-.8 1.9q-2.7-.35-7 4.95-4.2 5.1-9.05 14.4-.25.6-.9.6-.6-.05-1.05-.75-5.2-8.9-9.9-13.65"/><path fill="#0d131a" d="M221.65 532.3q-2.65 2.6-6.35 6.75-3.9 4.35-5.8 6.85 5.05 2.9 22.3 11.9-6.5-16.9-10.15-25.5m-8.2 5.45 7.1-7.5q1.8-1.75 2.6.1l5.4 13.5 5.4 14.7q.45 1.4 0 1.7-.4.25-1.65-.35l-12.45-6q-8.7-4.35-12.6-6.6-1.15-.7-.25-1.95 1.85-2.5 6.45-7.6"/><path fill="#0d131a" d="m213.35 537.7-.35 2.95q-2.8 2-7.25 4.65l-7 3.9q-2.1 1.05-2.7.55-.55-.5.2-2.6 1.95-5.7 5.9-15.25 3.75-9.15 6-13.75.35-.8 1.05-1t1.4.3l4.5 3.5-.35 2.75-4.75-4q-1.9 3.7-6.2 13.85l-5.9 14.1 7.95-4.8z"/><path fill="#0d131a" d="m204.65 530.05-.85 2.15q-5.35-1.3-8.4-3.65-2.65-2.1-4.55-5.95-2.15-4.35-8.3-20.15l-8.55 21.7q-1.55 3.65-5.25 5.55-2.65 1.4-5.65 1.6l-.65-2.05q2.7-.2 4.9-1.3 3.15-1.6 4.5-4.8l9.35-22.45q.5-1.15 1.25-1.15.7-.05 1.2 1.05l5.4 12.45 3.85 8.6q1.75 3.55 4.1 5.3 2.55 1.9 7.65 3.1m-37.5 13.55-.6-2.5q3.3.05 8.2 6.85 3 4.15 8.95 14.55 4.55-11.1 8.6-16.75 4.1-5.75 8.2-6.55l-.65 2.25q-3.25 1.05-6.8 6.45-3.4 5.2-8.1 15.85-.45 1-1.15 1-.7.05-1.25-.85-4.6-7.8-7.55-12.15-5.4-8-7.85-8.15m-14.45-59.1 3.35.05q1.5 7.7 1.15 19.1-.4 12.8-3.15 21.1l-3.6 3.1q2.9-7.95 3.45-22.05.5-13.1-1.2-21.3m26.4 6.9-.05-1.45q17.9 1.75 32.65-2.85l.5 1.9q-14.75 4.6-33.1 2.4"/><path fill="#0d131a" d="M177.7 491.6q-.85-.5-.8-1.2.1-.7 1.25-1.05 3.85-1.25 12.4-6 7.65-4.2 11.7-7l1.75 1.55q-3.6 2.5-11.35 6.7-8.3 4.45-12.85 6.15 5.45 2.85 14.85 4.6 10.45 1.9 18.6.8l.2 2.25q-8.55 1.1-19.8-1.15-10.6-2.2-15.95-5.65m4.65-19.8v1.4l-22.2.75q-13.65-.35-21.05-1.65v-1.9q7.25 1.3 21.6 1.85 14.8.5 21.65-.45"/><path fill="#0d131a" d="M166.75 479.45q10.05-3.9 14.9-6.85-6.55-1.85-16.45-6.3-10.1-4.45-16.05-8.25-2.95 2.1-6.4 7.25-3.25 4.75-3.25 6.3.65 1.65 6.45 6.65 6.25 5.35 8.5 5.15 2.65-.2 12.3-3.95m.15-14.85q10.45 4.85 16.6 6.55.95.3 1 .95 0 .6-.85 1.25-4 3.05-15.1 7.85-10.9 4.7-14.1 4.95-3.15.3-10.2-6.2-6.75-6.25-6.75-8.4 0-2.05 3.5-7.45 3.65-5.6 6.95-8.25l2.3-.05q6.3 4 16.65 8.8"/><path fill="#0d131a" d="m187.55 355.9 4.15-1.75q-2.25 2.4-3.7 4.85l4.3.35q1.85.2.7 1.55-12.8 14.5-22.75 33.55-15.4 29.5-19.65 62.65l-2.95.15q3.35-32.45 18.6-61.55 9.85-18.9 23.6-34.45l-4.5-.1q-1 0-.5-1.35.8-1.7 2.7-3.9m25.2-14.05 5.2-2q-6.35 4.25-13 14.15-6.65 9.95-6.65 15.2 0 .65 4.25 5.3 6.75 7.55 9.15 10.65 5.9 7.7 9.15 15.15l-1.35 3.1q-5.65-12.95-18.9-27.3-4.6-5-4.6-6.8 0-5.15 5.45-13.8 5.15-8.25 11.3-13.65"/><path fill="#0d131a" d="m174.05 386.95 3.55-7.35q1.55-2.2 3.75-3.8 2.35-1.7 4.15-1.7 5.8 0 16.05 10.65 11.35 11.75 16.15 25.55l-1.45 3.3q-4.45-14.15-15.65-26.35-10-10.8-15.1-10.7-2 .1-5.3 3-3.5 3.05-6.15 7.4"/><path fill="#0d131a" d="m326.4 295.1 2.45 3.95Q318 310.75 305.3 316q-6.85 2.85-25.35 6.8-32.8 6.95-52.6 14.6-34.6 13.35-57.3 35.95-18.7 18.6-41.85 28.6-25.1 10.8-50.75 9.2-19.35-1.2-42.6-7.2-8.35-2.15-27.15-8.1-3.95-1.2-4.95.1-1.15 1.45 1.4 5.95 17.8 30.95 55.5 50.75 37.55 19.7 80.4 20.7l3.2 3.95q-46.9-1.2-85.25-21.65-37.65-20.05-56.1-52.7-3.3-5.8-1.1-8.65 2.1-2.75 7.6-1 17.2 5.4 26.5 7.7 22.65 5.6 42.95 6.9 23.45 1.5 49.55-10.05 23.65-10.5 40.3-27.15 23.4-23.35 57.85-36.75 21.3-8.3 54-14.55 15.7-2.95 24.55-7.15 11.5-5.45 22.3-17.15"/><path fill="#0d131a" d="M44.45 411.6q3.15-4.15 7.55-6.1l2.75.5q-4.65 1.85-7.8 6.1-2.95 4-4.45 9.7-1.6 6.25-.7 12.95.95 6.85 4.05 10.85l-3-1.55q-2.7-4.35-3.5-10.85-.75-6.4.6-12.05 1.3-5.45 4.5-9.55m18.05 33.8q-3.55-9.1-2-18.5 1.05-6.3 4.3-11.15 3.25-4.8 7.85-6.85l2.85.35q-4.8 1.75-8.1 6.65-3.2 4.8-4.25 11.45-1.55 9.5 2.2 18.7 3.75 9.3 11.8 15.6l-3.55-1.05q-7.6-6-11.1-15.2m281.05-183.9q-7.1 2.7-15 7.45-8.65 5.2-9.65 7.95-1.7 4.75 9.4 19.05 11.15 14.45 19.3 17.5 5.95 2.25 28.1-.65 24.2-3.2 35.15-9.55-25.7-6.45-41.9-16.4-16.6-10.2-25.4-25.35m-.4-3.1 1.25.05q.75.15.95.5 8.7 15.35 25.35 25.8 16.2 10.2 42.2 17.15 1 .25 1.05.85 0 .55-.9 1.15-10 7.05-34.8 11.2-23.8 4-31.5 1.05-9.25-3.6-20.75-18.15-11.85-14.95-9.8-21.75 1.2-4.05 10.8-10.15 9-5.7 16.15-7.7m176.5 203.95 2.95-.5q-1.05 23.25-.4 33l-2.95.15q-.55-9.1.4-32.65M491.8 365.7l-.1-12.35q3.9 14.2 12.2 33.25 7 16.25 12 24.65 4.1 6.95 5.75 12.4 1.85 6.15 1.9 14.15l-2.8-.15q-.05-7.4-2-13.05-1.55-4.6-5.75-11.7-14.45-24.4-21.2-47.2m-93.65-120.65-3.55-.9q-4.25-20-9.2-40l2.85-1.6q5.2 19.95 9.9 42.5"/><path fill="#0d131a" d="m396.1 251.55 3.05-1.7q5.45 26.8 9.35 51.8l-3.2-.85q-3.95-23.85-9.2-49.25m10.1 55 2.85-1.35q3.25 21.55 4.7 37.75 1.5 16.85.75 25.1-2.4 28.5-10.5 55.9-9.5 32.35-24.15 52.2l-3.45.6q14.6-19.9 24.5-52.5 8.6-28.55 10.8-56.3 1.35-17.55-5.5-61.4m-37.8-162.8q.5 0 .65.4 8.1 17.4 16.8 49.4l-3.35-.7q-9.15-34.8-15.45-47-4.2.1-9.6-1.15-6-1.4-9.05-3.55l2.8-1q2.75 1.7 8.5 2.75z"/><path fill="#ba0031" d="M99.95 182.25q7.2-19.35 10.25-26.55 3.1-7.25 10.2-8.65 6.2-1.2 11.45 2.2 4.95 3.25 6.3 9.5 1.55 7.15-3.7 12.65-6.3 6.65-21.75 19.1-10.4 8.4-21.85 16.95 2.5-7.45 9.1-25.2m50.1 54.25q1.1-15.95 2.2-28.1.85-9 7.05-12.3 5.15-2.8 12.3-1.05 5.85 1.4 8.85 8.15 3 6.8-.05 12.25-9.85 17.6-31.65 47.95 0-7.7 1.3-26.9m100.85-.15q.45 7.35.55 27.25l.05 25.15q-6.4-8.6-14.75-22.15-7.15-11.55-14-23.95-3.3-5.95-1.2-11.95 2.15-6.25 8.9-8.65 7.25-2.5 13.4 1.4 6.45 4.15 7.05 12.9m307.3 2.45q-14.35-9.6-21.95-15.2-5.65-4.2-7.7-9.95-2.85-7.8 4.25-13.75 8.55-7.2 16.2-3.6 6.25 2.9 10.15 11.6 11.85 26.15 18.8 43.8-7.65-4.8-19.75-12.9m20-43.45q-6.7-1.95-9.85-7.1-3.7-6.1-.1-13.95 3.55-7.7 11.6-8.25 6.95-.45 11.85 3.85 6.7 5.85 20.4 19.6l19.7 20-25.45-6.55zm96.75-43.45-26.85 1.75-33.75 1.6q-6.7.2-11.05-4.55-4.7-5.1-3.5-12.9 1.25-7.8 8.9-10.65 7.1-2.6 14.55.5 8 3.4 24.85 11.3 17.25 8.05 26.85 12.95"/><path fill="#990024" d="M130.4 149.05q4.35 1.35 6.7 6 2.7 5.35.25 11.45-2.25 5.65-19.2 19.65l-27 21.15q5.05-7 19.7-22.85l16.3-17.8q3.2-3.95 4.15-8.35 1.05-4.8-.9-9.25m18.7 113.75q3.1-7.65 12.1-25.45l10.75-21.05q2.5-4.9 2.55-10.3.05-5.65-2.7-10.6 7.7 2.7 9.2 9.45 1.05 4.85-1.15 10.95-1.5 4.25-12.75 21.25-10.45 15.75-18 25.75m96.95-37.6q3.7 3.6 4.45 10.25.7 6.5.9 25.3.25 19.45-.45 27.55l-4.3-25.4-4.05-24.35q-1-5.6-2.5-9.1-1.8-4.2-5.2-7.6 7.05-.65 11.15 3.35m282.35-17.45q1.1-7.5 8.85-10.35-2.55 4.8-1.75 10.05.7 4.6 3.75 8.5 2 2.6 16.3 15.2 17 15 21.7 19.6-10.85-6.35-24.9-15.75-16.6-11.15-20.4-15.3-4.6-5.1-3.55-11.95m39.45-21.6q-2.9-7.3 2.15-14.25.5 6 3.65 9.8 2.55 3.05 7.65 5.5 4.15 2.05 21.5 9.45l29.05 12.2q-10.9-2.25-29.3-7l-24.35-6.6q-7.6-2.15-10.35-9.1m47.6-31.25q-7.55 0-12.2-4.75-5.35-5.45-2.65-13.95 3.85 9.6 15.95 10.7l26.85 1.85 30.8 2.75-31.75 2.25z"/><path fill="#0d131a" d="M249.3 234.95q-.85-6.5-5.8-9.95-5.2-3.6-12.3-1.65-5.55 1.55-7.95 7.05-2.45 5.5.1 10.5 4.55 8.95 13.25 23.2 7 11.45 14 22.1-.75-47.3-1.3-51.25m-4.55-12.4q6.15 4 7.25 12.2.4 3.05.7 25.35.3 20.45.2 28.35 0 1.8-.85 2.15-.9.35-2.1-1.45-21.35-31.65-29.2-47-3.5-6.85.1-13.55 3.25-6.1 9.35-7.8 8.3-2.3 14.55 1.75m-94.4 41.05q-1.3 1.8-2.1 1.45-.75-.35-.7-2.1 1.05-38.45 3.65-57 .95-7.15 7.15-10.95 6.15-3.75 13.1-1.55 8.1 2.55 10.75 9.5 2.6 6.9-1.4 14.65-3.05 5.85-13.75 21.8-9.3 13.95-16.7 24.2m3.45-57.2q-1.5 10.8-2.6 27.15-.95 13.75-1.4 27l15.85-23.6q9.75-15.05 12.65-20.6 3.25-6.25 1.05-12.25-2.25-6.05-8.85-8.15-5.75-1.8-10.75 1.3-5.1 3.1-5.95 9.15M112 155.25q-4 8.8-10.25 25.05-5.85 15.1-9.1 24.75 8.65-6.85 22.4-18.3l17.25-14.9q5.5-5.65 4.7-12.05-.75-6-6.4-9.85-5-3.4-10.6-1.75-5.55 1.65-8 7.05M99.2 180.2q6.3-17.2 10.25-25.85 3.1-6.9 10.45-8.65 6.9-1.65 12.4 2.1 6.6 4.5 7.5 11.65.95 7.6-5.45 14.25-3.75 3.85-41.65 34.25-1.5 1.2-2.35.65-.9-.5-.35-2.15 3.55-11 9.2-26.25m543.25-42.45q-17.85-8-21.85-9.45-6.6-2.4-12.35.45-5.95 3-7.1 10-1.05 6.15 2.9 10.65 3.8 4.4 9.9 4.45l28.75-.95 29.15-1.7q-12-5.7-29.4-13.45m32.2 12.8q1.6.7 1.45 1.5t-1.6.9l-30.55 2.2-30.1 1.4q-8.2 0-12.6-6.1-4-5.45-2.9-12.25 1.5-8.85 9-12.25 6.65-3.05 13.9-.5 3.35 1.25 22.95 10.55zm-83.8 20.65q-5.75-4.5-11.65-3.7t-9.2 6.45q-2.9 5-1.2 11.05 1.85 6.4 7.9 8.45 10.1 3.4 52.5 14.45l-19.7-19.1q-16.45-15.85-18.65-17.6m-23.1 1.1q3.85-6.55 10.75-7.6 7.15-1.15 14 4.2 2 1.6 19 18.65l20.7 20.55q1.25 1.1.55 1.85-.6.7-2 .3l-25-6.2q-23-5.75-30.2-8.15-7.35-2.45-9.5-9.95-2.1-7.1 1.7-13.65m-33.6 47.85q6.4 5.5 23.5 17.1 8.75 5.95 18.2 12.1-4.4-10.95-10.45-24.6-6.75-15.3-9.4-20-3.95-6.9-10.25-7.85-5.85-.85-11.3 3.5-4.75 3.8-4.95 9.6-.25 5.95 4.65 10.15m44.85 31q.55 1.35 0 1.8-.6.55-2.15-.45L554.5 238q-15.85-10.5-22.35-16.1-5.9-5.05-5.65-12.05.25-6.9 6.25-11.65 6.6-5.3 13.6-4.15 7.4 1.25 12 9.3 2.75 4.85 9.95 21.75z"/></svg>