<svg xmlns="http://www.w3.org/2000/svg" width="227" height="177" viewBox="-1.1 -1.2 227.1 177.3"><path fill="#00b8ee" d="M122.75 25q4.3-.85 7.2 3.1 8.9 12.15 11.2 26.95 2 12.95-1.35 24.1-3.2 10.5-14.25 21-11.65 11.15-27.1 17.3 7.5 2.3 11.05 7.9 2.9 4.6 2.7 10.45 1.5 4.25 7.95 13.9.9 1.35.6 2.1-.25.55-1.3.95-1.7.7-6.85 1.35l-9.95.65q-8.4 3.95-16.8 2.3-5.5-1.1-9.95-4.2-6.85-4.65-9.9-13.4-2.45-7.05-1.8-14.15-15.4 6.5-30 .75Q18.05 119.7 12.45 101 7.4 84.1 16.2 63.45q8.3-19.55 23.95-31.5-6.7-1.1-10.8-4.5-3.3-2.7-3.7-5.55-1-6.4 5.95-12.65 7.85-7.15 20.8-8Q64.95.4 72.9 5.55q6.35 4.15 6.85 9.25.35 4-2.25 7.3-2.65 3.4-8.05 5.65 11.1 3.5 20.85 9.9 11.4 7.5 19.6 18.15 1.55-4.35 3.8-12.5l3.3-12.4q1.4-5 5.75-5.9"/><path fill="#00b8ee" d="m112.45 48.1-36.2-24.55q2.7-3.05 3.35-6.2 22.25 13.75 35.9 20.35zM221.1 96.8q-2.3 5-12.15 2.7Q198 97 178.8 88.15q-20.7-9.5-37.15-20.2.7-7.9-2-19.3 15.6 6.75 36.25 12.15 20.95 5.55 36.55 6.9 7.7.7 10.55 6.9 3 6.5-4.7 11.2 4.85 6.45 2.8 11M64.2 125.3q-.2 3.9.45 8.45.65 4.85 1.85 6.95-8.15 14.7-11.85 19.3-7.65 9.5-18.05 12.1-10.9 2.75-20.6-1.6-8.2-3.7-13.2-11.1-3.2-4.7-.85-7.5 1.7-2.05 6.35-2.9 14.45-2.75 31.05-10 15.5-6.75 24.85-13.7"/><path fill="#ed8599" d="m53.3 106.45 5.2-3.45 4.5-3.7q3.15 5.75 3.65 12.05.45 5.8-1.4 7.35-1.6 1.3-6.3 0-4.4-1.25-7.6-3.55-.45-4.25 1.95-8.7"/><path fill="#922f00" d="M53.2 106.6q-1.2 1.9-1.75 4.55-.45 2.25-.3 3.9-4.35-2.6-5.95-5.15 3.7-.85 8-3.3"/><path fill="#00a4e3" d="M16.9 98.6q-1.6-5.85.75-6.8 2.9-1.15 7.1 3.2 3.3 3.45 5.7 8.2 2.35 4.65 3.35 8.45 1.4 5.35-.8 6.65-2.5 1.5-6.7-3-3-3.2-5.65-7.85-2.45-4.2-3.75-8.85m11.3-16.35q-3.45-.15-5-3.6-1.1-2.45-1-5.6.05-2.8 1.4-5.5 1.6-3.3 3.95-3.15 2.95.2 4.65 3.55 1.45 2.8 1.3 6.2-.15 3.1-1.6 5.55-1.6 2.6-3.7 2.55M57.4 52.3q2.05 2.7 1.7 6.5-.3 3.75-3.15 6.55Q53.3 68 50.4 67.9q-2.8-.1-4.75-3.1-2-2.9-1.8-6.55.15-3.8 2.65-6.75 2.65-3.05 5.75-2.45 3.25.65 5.15 3.25m27.15 12.35q3.45 3.7 5.85 9.7Q92.5 79.8 91.7 86q-1 7.2-5.85 9.25-5.05 2.15-9.85-2.1Q71.55 89.3 69.2 82q-2.3-7.25-1-13.4 1.45-6.6 6.5-7.75 5.2-1.15 9.85 3.8"/><path fill="#515457" d="M20.3 97.6q-.55-2.45.55-3.45.85-.85 2.35-.55 3.85 3.5 7.1 9.55 2.85 5.25 3.7 9.3-.25 1.7-1.65 1.85-1.1.15-2.55-.7-3.9-2.3-6.7-7.95-1.95-3.95-2.8-8.05m61.4-28.8q2.45 3.65 3.55 8.3 1.05 4.55.6 8.4-.65 5.05-3.9 5.7-3.3.7-6.2-3.6-2.35-3.4-3.7-8.6-1.2-4.55-.45-8.7.85-4.45 3.65-5.25 3.35-.95 6.45 3.75"/><path fill="#e85377" d="M72.65 134.5q3.85 1 7.6 5.8 3.7 4.6 4.1 8.5.35 3.5-1.4 4.8-1.35 1-4.15.75-7-2.6-11.9-12.45-.9-4.7.95-6.6 1.65-1.65 4.8-.8"/><path fill="#00a0cf" d="M133.3 91.2q-14.35 20.55-51 31.55 28.6-11.9 43.1-32.6 15.05-21.6 11.8-48.7 10.8 28.6-3.9 49.75m-66.7 50.05q-8.5 15.65-14.95 22.45-5.25 5.5-11.7 7.5-9.45 2.85-18.7.9-12.3-2.55-18.85-13.35 3.75 4.15 10.55 5.85 7.25 1.85 15.65.2 20.65-4.05 37-25.95zm14 13.35q9.3.4 17.05-2.55 9.6-3.7 14.1-11.8l.6-4.1q1.7 3.55 4.25 7.9l3.8 5.9q1.5 2.15-2 2.9l-7.5 1.15-8.4.4q-3.95 2.65-9.85 2.95-5.9.25-12.45-1.9zM40.55 32.05q-6-.2-10.75-4.15-4.65-3.85-3.8-7.55 2.2 4.05 6.55 6.45 4.75 2.65 11 2.8zM63.7 26.7q3.9-.7 8.45-3.6 5.25-3.35 7.3-7.45-.4 4.1-2.2 6.55-2.35 3.15-8.1 5.6z"/><path fill="#00a0cf" d="M221.05 96.8q-2.8 5.1-12.9 2.5-12.25-3.15-30.65-11.9-17.15-8.2-35.85-19.4l-.05-4.75q15.35 9.55 34.55 18.55 22.9 10.75 34.15 12.1 3.5.45 5.75-1.15 2.75-2 1.8-6.4 5.85 5.6 3.2 10.45M113.2 45.15l-1 2.7q-6.2-3.75-17.25-11.3l-18.85-13 1.3-1.35q6.2 4.45 18.45 12.15z"/><path fill="#7dccf3" d="M41.7 48.75q-2.3 2.55-4.9 3.5t-4-.3-.75-3.9q.6-2.7 2.85-5.3 2.3-2.55 4.9-3.5t4 .3.75 3.95q-.6 2.65-2.85 5.25m2.4-31.7q-3.1 1.15-5.75.85-2.65-.35-3.3-2t1.15-3.65q1.75-2 4.85-3.2t5.75-.85q2.65.3 3.3 1.95t-1.1 3.7q-1.8 2-4.9 3.2"/><path fill="#bae2f8" d="M37 48.3q-.7 1-1.6 1.4t-1.45 0-.45-1.4.8-1.95q.7-1 1.6-1.4t1.45 0 .45 1.4-.8 1.95"/><path fill="#f3b1b9" d="M74.55 138.35q.65 1.1.5 2.25-.15 1.1-1 1.6l-1.9.1q-1.05-.45-1.7-1.55-.65-1.05-.5-2.25.1-1.1.95-1.65l1.95-.05q1.05.45 1.7 1.55"/><path fill="#00a0cf" d="m64.35 122.25-.15 3.05q-23.25 9-40-4.75-6.05-5-9.65-14.55-3.15-8.3-3.15-16.05 2.6 6.65 7.05 12.6 3.7 9.2 8.95 13.75 2.9 2.5 4.6 2.45 1.6-.05 2-2.4 13.6 7.7 30.35 5.9"/><path fill="#008fc5" d="M27.4 116.3q-5.25-4.55-8.95-13.75 6.45 8.7 15.55 13.8-.4 2.35-2 2.4-1.7.05-4.6-2.45"/><path fill="#0d131a" d="M25.1 99.75q.3-.2 1.35.95 1.05 1.2 1.9 2.85 1.3 2.6 1.7 4.25.35 1.4 0 1.5-.3.15-1.3-1-1.15-1.35-2.45-3.75-.85-1.6-1.2-3.15-.35-1.4 0-1.65M81.75 83.4q-.3 2.25-1.4 2.45-1.1.25-2.35-1.55-1.2-1.8-1.9-4.65-.65-2.75-.35-5.2.3-2.4 1.2-2.6Q78 71.6 79.3 73.5q1.35 2 2 4.9.7 2.8.45 5m28.7-28.25-1.25 2.45q-6.2-10.05-19.4-19-13.35-9.1-25-11.1-1.55-.25-1.45-.75.05-.5 1.6-.3Q76.7 27.85 91 37q14.05 8.95 19.45 18.15"/><path fill="#0d131a" d="M42.35 30q1.35-.85 1.65-.5.25.35-1 1.35-15.25 11.55-23.15 27t-7.55 32.9q.2 9.2 4 17.15 3.85 8.05 10.6 13.1 15.45 11.6 37.45 3.55l.05 1.3q-22.25 9.2-38.85-3-7.25-5.35-11.45-13.9-4.2-8.45-4.4-18.2-.4-17.85 8.3-34.2Q26.85 39.85 42.35 30"/><path fill="#0d131a" d="m69.9 28.15-2.1-.65q4.7-1.5 7.7-4.6 3.65-3.8 3-8.4-.75-5.5-7.7-9.1-8.15-4.25-20.6-2.75-10.85 1.25-17.75 6.9-6.6 5.45-5.7 11.6.65 4.1 5.7 7.3 4.75 2.9 9 2.75l-1.7 1.3q-4.1.1-8.85-2.9-5.3-3.35-6.05-7.7-1.25-7.2 5.6-13.45 7.25-6.6 19.5-8.1Q63.1-1.2 71.9 3.5q7.65 4.1 8.55 10.5.65 4.7-2.85 8.85-3.05 3.65-7.7 5.3m-45.6 39.5q-1.45 2.4-1.45 5.8 0 3.35 1.45 5.75t3.45 2.4q2.05 0 3.45-2.4 1.45-2.4 1.45-5.75 0-3.4-1.45-5.8t-3.45-2.4-3.45 2.4m-3 5.75q.05-3.8 1.8-6.55 1.9-2.95 4.75-2.95 2.7 0 4.55 2.65 1.9 2.7 1.85 6.95-.05 3.9-1.95 6.65-1.85 2.85-4.5 2.75-2.7-.05-4.6-2.75-1.95-2.75-1.9-6.75"/><path fill="#0d131a" d="m23.5 93.9-1.2-.75q.75-5.15 2.65-12.05l1.15.75q-1.75 5.65-2.6 12.05m34.65-34.5q.5-3.6-1.3-6.4-1.7-2.75-4.4-3.1-2.8-.35-5.1 1.95-2.3 2.25-2.75 5.65-.5 3.8 1.15 6.6 1.6 2.75 4.35 3.1 2.8.35 5.1-1.7 2.4-2.25 2.95-6.1m.3-6.45q1.75 3.3 1.25 6.85-.55 4.2-3.35 6.65-2.8 2.4-6.4 2-3.3-.35-5.3-3.55-2.05-3.35-1.4-7.65.6-3.9 3.4-6.45 2.75-2.5 6-2.15 3.8.45 5.8 4.3"/><path fill="#0d131a" d="m69.1 67.45-.6 1.25q-4.95-2.95-10.85-5.7l.55-1.2q6.15 2.85 10.9 5.65m-4.35 50.7q1.7-1.15 1.05-7.5-.65-6.4-2.95-10.35-5.7 5-10.05 7.35-3.2 1.75-6.7 2.7 5.85 5.15 11.8 7.2 5.05 1.8 6.85.6m-2.3-19.3q.3-.3.75-.25t.7.55q3.2 5.8 3.6 12.55.4 6.4-1.85 7.8-2.55 1.6-8.35-.45-6.65-2.3-12.55-8.35l-3.4.55q-1.1.15-1.15-.25t1.05-.65q5.85-1.2 11.05-4 5.05-2.75 10.15-7.5"/><path fill="#0d131a" d="m51.85 115.6-1.05-.95q-.35-2.25.3-4.4t2-3.4l1.7-1.05q-1.9 1.8-2.65 4.7-.75 2.6-.3 5.1m14.55 23.95.75 1.4q-7.1 14.45-12.85 21.35-5.7 6.75-13.2 9.75-10.2 4.05-21.75.7-11.75-3.45-17.3-12.5Q-1.1 155.1.55 152q1.55-2.85 6.9-3.8 12.7-2.3 28.4-8.65 16.55-6.65 27.3-14.25l1.4.75q-11.15 7.9-27.75 14.9-16.35 6.9-28.85 9.2-4.2.75-5.35 2.8-1.3 2.3 1.2 6.4 5.05 8.2 15.85 11.25 10.75 3.05 20.55-.85 7.3-2.9 12.9-9.3 5.65-6.55 13.3-20.9"/><path fill="#0d131a" d="M65.5 140.9q-2.9-7.95-1.7-17.85.2-1.4.65-1.4.5.05.45 1.45-.85 16.15 7.75 25.7 5.1 5.65 13.35 7.1 8.35 1.55 16.15-1.9l13-1.2q4.55-.75 4.7-1.5l-3.55-5.95q-3.8-6-4.2-8.85l.05-4q.8 4.65 5.65 12 4.4 6.6 4.15 7.35-1.05 3.2-19 3.55-7.7 4.05-17.3 2.4-9.35-1.65-14.75-7.6-3.5-3.85-5.4-9.3"/><path fill="#0d131a" d="m96.4 118 2.25-1.1q7.95 1.5 11.5 7.3 3.5 5.7 2.45 14.95-.2 1.85-.65 1.8-.45 0-.4-1.85.5-8.8-3.35-13.95-3.65-4.95-11.8-7.15"/><path fill="#0d131a" d="M122.15 23.95q4.75-1.2 8.75 3.9 8.7 11.1 11.3 27 2.5 15.45-2.05 26.55-5.65 13.95-20.6 25.25-15.65 11.75-36.4 16.6l-1.75-.1q-.15-.45 1.45-.9 20.15-6 35-17.25 14.65-11.15 20.05-24.35 4.4-10.7 2-25.6Q137.5 40 129.55 29.3q-3.15-4.2-6.95-3.05-3.85 1.1-5.15 6.65-12.3 52.45-39.95 86.2-1.1 1.35-1.65.95t.5-1.75q26.1-32.4 39.15-86 1.7-7.15 6.65-8.35"/><path fill="#0d131a" d="m115.5 36.85-.55 2q-7.35-3.7-17-9.35L79 18.2l.75-1.4Q98.5 28.25 115.5 36.85m-2.75 10.95-.7 2.15-18.9-13.2L75.6 24.2l.95-1.1q13.05 9.15 36.2 24.7M214.7 66.95q3.95.45 6.7 2.9 2.6 2.25 3.4 5.5.85 3.25-.45 6.2-1.4 3.15-4.95 4.9 6.1 6.75 2.3 11.9-3.75 5.1-12.9 2.6-19.25-5.35-38.3-15.05-9.7-4.9-28.95-16.55l.1-3.25q20.8 12.6 36.85 20.35 17.05 8.3 30.7 12.1 7.7 2.1 10.3-1.85 2.55-3.9-1.8-9.65-1.05-1.4.5-2.15 5.55-2.8 4.15-8.75-1.35-6-7.95-6.75-19.55-2.25-38.2-7.2-17.75-4.75-36.4-12.35l-.7-2.45q18.45 7.75 37.05 12.55 18.25 4.7 38.55 7m-146.3 76.7-1.95-3.5q-.45-1.9.05-3.6.5-1.65 1.65-2.4 2.3-1.55 5.85 0 3.85 1.65 7.35 6.25 3.05 3.95 3.65 8 .6 4.1-1.7 5.8-.95.75-2.55.75-1.55 0-3-.75l-1.6-2q1.95 1.15 3.6 1.45 1.7.25 2.65-.5 1.7-1.3 1-4.85t-3.35-7.1q-3-3.9-6.5-5.5-3.15-1.4-4.6-.35-1.3.9-1.5 3.2-.25 2.55.95 5.1"/><path fill="#7dccf3" d="M124.05 35.65q-.35 2.05-1.4 3.35-1.05 1.35-2.1 1.1-1.1-.2-1.6-1.8-.45-1.6-.1-3.65.4-2.05 1.4-3.35t2.1-1.1 1.6 1.8.1 3.65"/><path fill="#bae2f8" d="m122.5 34.3-.7 1.65q-.45.65-1 .55-.5-.1-.7-.85-.25-.8-.1-1.8.2-1 .7-1.6.5-.65 1-.55t.75.85.05 1.75"/><path fill="#fff" d="M20.6 96.05q-.05-1.45.75-1.95.85-.5 2.1.25 1.15.7 2.2 2.25 1.1 1.65 1.15 2.95 0 1.25-.8 1.75l-2.1-.05q-1.35-.6-2.15-1.95-1.05-1.8-1.15-3.25"/><path fill="#0d131a" d="M19.6 96.95q-.25-2.25.95-3.25.95-.75 2-.55l1.45 1.3-2.35-.15q-1 .65-.85 2.55.25 3.15 3.15 8.55 3.15 6.05 6.3 7.9 1.55.95 2.45.45.95-.5.8-2.4l.6 1.75q-.25 1.65-1.7 1.95-1.35.3-2.8-.7-3.65-2.5-6.7-8.1-2.8-5.15-3.3-9.3"/><path fill="#fff" d="M75.5 65.8q1.6-.45 3 .8 1.25 1.1 1.7 2.85.45 1.85-.15 3.3-.65 1.55-2.15 1.9-1.6.4-3-.65-1.4-1-1.85-2.7-.5-1.95.2-3.5t2.25-2"/><path fill="#0d131a" d="M81.9 90.7q2.45-.75 3.05-5.3.55-4.1-.6-8.7-1.25-5-3.85-8.25-2.65-3.2-5-2.65-2.35.6-3.15 4.65-.8 4.1.45 9.1 1.35 5.5 4.2 8.75 2.65 3.05 4.9 2.4m3.8-14.35q1.5 6.2.45 10.45-1 4.1-3.95 4.95-3.05.9-6.05-2.4-3.1-3.35-4.6-9.5-1.45-5.95-.4-10.25t4.1-5.05q3-.7 5.95 2.55 3 3.35 4.5 9.25"/><path fill="#0d131a" d="M84.7 95.25q3.9-1.15 5.55-6.85 1.7-6-.4-13.1-2.05-7-6.7-11-4.5-3.85-8.6-2.6-4.05 1.2-5.5 6.75-1.45 5.75.65 12.9 2.2 7.4 6.4 11.3 4.2 3.85 8.6 2.6m-.6-32.15q5.1 4.2 7.35 11.7 2.4 8.05.25 14.35-2 5.9-6.7 7.15-5.2 1.4-9.8-2.5-4.6-3.95-6.95-11.9-2.35-7.85-.65-13.95 1.7-6.05 6.5-7.55 4.9-1.5 10 2.7M22.75 94.15q-3.1-2.7-4.6-1.85t-.7 5.1q.85 4.6 3.9 10 3.1 5.4 6.55 8.55 3.25 2.9 4.75 2.05t.7-5.15q-.85-4.55-3.95-10-3.2-5.7-6.65-8.7m-6.7 3.45q-1-5.15 1.45-6.45 2.1-1.1 5.8 1.75 4 3.1 7.4 9.15 3 5.3 3.85 10.25.9 5.3-1.35 6.7-2.15 1.35-6.15-2.15-3.9-3.35-7-8.95-3.15-5.65-4-10.3"/></svg>