<svg xmlns="http://www.w3.org/2000/svg" width="428" height="557" viewBox="-0.64 -0.39 427.9 556.56"><path fill="#edc300" d="M252.91 153.53q-6.89-4.83-15.52-8.43l-9.4-3.29-6.12-2q-3.1-1.28-2.9-2.64.58-3.28 12.88-3.67 13.79-.45 24.93 5.22.45 2.32-.52 6.44-1.1 4.5-3.35 8.37m36.91 189.34 6.7-11.4 6.63-1.35q8.24-2.32 16.23-7.4-11.08 22.92-11.27 24.85-.39 2.7-.2 5.74.26 4.57 1.8 6.11l15.01 14.04-12.23 12.24-12.05-10.5-4.76-12.62q-4.96-13.78-5.86-19.7m-35.55 45.85q-.33.64-.78 6.11l-.45 5.28q-3.6.58-8.3.13-5.03-.58-.33-4.18z"/><path fill="#eef4f7" d="m329.94 313.5-.07.07q-11.78 14.36-28.53 17.2l-10.36.51-4.06-.52 4.12 16.68q5.02 18.81 9.85 29.24 4.32 7.09 3.87 13.91 7.92-5.08 15.9-12.75 11.6-11.14 21.32-25.89.71-3.15 2.9-7.66 4.38-9.15 11.6-16.17l-8.38-5.6q-9.98-6.18-18.16-9.01M421.78 1.03q3.54.06 3.73.77.2.58-2.12 2.32-8.7 6.7-17.33 16.42Q396.4 31.43 390.61 42q-8.31 15.2-15.78 20.67-9.4 6.83-34 13.08-23.64 5.92-29.37 7.79-19.13 6.31-26.02 14.1-2.2 3.74-2 10.24.13 5.09 1.55 10.11 3.47 4.32 14.94 8.63l16.87 5.35q5.54 1.67 6.76 3.8 1.03 1.67-.58 4.38l-14.55 20.8q-.45 3.6.7 8.11 1.1 4.19 2.9 6.9l17.2 6.89q6.96 2.64 7.92 3.54 2.06 1.93-1.67 5.66-3.48 3.48-9.02 12.63l-4.76 8.43q.9 7.99 6.05 19.71l7.92 18.1 1.48 4.25q28.73 1.48 30.27 5.02 1.1 2.64-.7 14.94l-2.07 11.79 9.92 9.2q10.76 9.73 15.07 12.7 17.07 11.46 20.1 17.19 2 3.73 3.15 13.78 1.1 10.18-.39 12.62-1.15 1.8-8.63 5.54-7.85 3.87-9.08 5.28l-2 4.12q-2.12 4.51-2.83 6.5-2.32 6.51-9.2 7.74-4.26.77-10.12 3.41-6.37 2.9-10.62 6.25-13.4 10.43-28.54 28.14-22.8 26.66-31.1 51.46.2 12.68 1.03 39.54.26 12.1 1.67 32.84.78 10.89-.58 10.95-3.99.2-15.13-9.6-10.18-9-14.81-15.51-4.19-6.06-10.7-23.51-6.7-18.1-6.7-24.67 0-5.73 1.17-32.26l1.1-25.38q-7.67-18.8-2.4-37.35 1.62-5.8 4.39-10.88l2.38-3.93q-5.54-14.49-11.79-29.37l-5.15-11.98-8.37 1.61.77 6.83q.84 7.21 1.36 9.08.77 3.1-.2 5.48l.52 1.8q.77 2.06 2.06 3.67 2.06 2.51 1.54 5.15l-3.15 7.92q-3.67 8.5-3.54 35.36.06 19.13 1.6 35.16 1.94 20.03-.12 20.61-3.48.9-12.11-4.19-8.24-4.83-13.53-10.3-4.05-4.31-10.24-17.13-6.89-14.3-6.5-20.74.45-7.53-.45-20.93-1.1-17.06-3.87-24.15-7.53-10.5-5.8-23.83 1.49-11.98 8.5-18.16-9.26-6.63-16.16-17.32l-5.08-9.4-17.2 3.54q-10.69 17.77-18.87 40-4.12 11.07-6.12 18.6l-12.23 16.23q-3.61 3.8-7.6 10.95-3.74 6.57-4.77 7.4-.77.65-10.5 3.68-10.88 3.41-17.2 6.82-6.88 3.67-28.52 34.9-11.21 16.3-25.44 38l-7.47 10.05q-2.45 1.68-4.77-5.99-2.58-8.88-3.41-20.09-.84-11.72.83-19.7 1.61-7.86 8.63-24.29 6.77-15.84 9.6-19.19l8.05-8.82 8.82-10.18q2.97-3.67 7.54-10.94l4.06-6.57q3.4-22.29 15.71-33.43 3.86-3.47 8.18-5.4 2.12-1.04 3.48-1.3l17.26-7.4q.2-5.41 2.44-17.9l2.2-11.4q-6.9-12.37-11.08-21.13l-2.77-6.24-13.33-.65q-11.4-2.32-21.26-13.9-7.21-8.51-10.95-18.1-5.92-15.27-14.16-24.93-5.6-6.57-11.27-9.53-4.32-2.25-12.18-4.5-6.18-1.81-6.18-2.46 0-2 4.96-4.12 6.05-2.64 15.33-2.64 15.78 0 34.97 14.69 7.21 5.53 12.36 11.33 4.83 5.47 4.96 7.8 8.76 4.05 24.67-.97 7.8-2.39 15.46-3.42 12.1-1.6 19.96.97l44.25 23.83 20.22-6.64q22.93-6.82 36.77-7.4 13.79-.58 27.25 8.7 6.7 4.63 10.62 9.33.39-3.35.2-7.6l-.33-3.54q-4.12-4.32-12.81-8.12-7.15-3.15-7.28-4.63-.2-2.06 5.15-10.18 2.64-4.05 5.35-7.66-.45-.9-2-5.86l-1.48-4.83q-9.72-1.74-14.62-3.35-3.28-1.03-3.67-2.7-.2-1.04.77-3.16l12.43-23.57q2.06-4.12 1.74-8.76-2.96-10.18-10.56-13.78-2.32-1.1-4.9-1.42l-2.06-.13-11.46 1.23-11.27 2-3.74.06q-.64-.39.07-2.64.58-1.87 3.8-6.9l3.02-4.57-2.38-3.35-2.9-.32q-22.6 4.64-24.53 3.41-1.03-.64-.9-5.6.12-5.73 1.93-12.62 5.21-19.32 19.77-33.3 8.82-8.43 21.83-14.16l5.86-17.9q3.87-11.8 5.73-11.66 2.06.12 4.19 8.17l3.03 15.14q15.84-3.93 35.1-4.77l41.28 1.61q21.77 2.39 30.46.45 13.72-3.09 27.05-18.29Q402.84.64 421.78 1.03"/><path fill="#edc300" d="M194.11 105.55q2.96-.19 7.47-3.09l-2.12 5.48 2.45.64-4.38 4.57-3.29.52q-3.48.32-4.64-.52-1.35-.96-.7-8.18.64-7.08 2.31-10.82l.33 5.8q.7 5.73 2.57 5.6m106.14 390.98 3.41 50.69q.26 6.89-1.48 7.27-.96.2-5.6-3.09-4.83-3.41-12.5-10.17l-6.7-6.06 4.13 1.1 4.9-.13q.5-.9.77-19.64.25-20.1.51-22.22l1.8-17.84q1.74-15.2 3.87-20.8l2.57 12.24q2.9 15 4.32 28.65m-64.4-75.86 2.25 33.36q0 6.44-1.03 7.66l-4.77-.13q-2.06-.64-8.82-4.83-6.31-3.86-8.05-5.28l4.19.97 5.28-.2q.77-.7 1.16-19.7.38-20.87 1.1-24.73l1.8-9.21q.77-3.22 1.6-3.35.84-.06 3.16 12.69zm-179.63 2.32q-8.69 13-10.82 18.16-18.8 31.36-24.34 39.35-4.06 5.86-6.12 5.86t-5.02-14.5L7.4 457.39q4.31 5.66 5.8 5.34.77-.19 6.24-7.98 7.08-10.05 10.3-13.91 9.99-12.11 21-21.58 10.63-9.27 12.69-7.92.38.26-7.22 11.66m244.88 24.07q4.9-9.14 13.59-20.22 17.32-22.15 36.25-31.68l-3.67 7.27q-8.43 7.6-18.54 19.97-20.3 24.73-28.92 48.75l-.13-7.47q.06-8.95 1.42-16.62m-176.21-252-2.9-.58q-3.22-.32-4.83.58-11.53 6.96-18.61 42.96Q91.9 271.7 95 294.44q2.76 20.22 16.8 43.28 13.85 22.67 22.16 21.77 4.44-5.03 10.5-13.27 12.04-16.55 19.9-32.78-2.7-1.74-5.54-5.8-5.67-8.11-6.05-19.44l-4.06-4.58q-4.06-5.15-4.12-8.18-.13-3.02 4.18-7.98l4.32-4.38q.13-2.45 1.41-6.83 2.58-8.82 8.57-18.67zm117.22 27.88q3.42 4.44 2.26 5.15-1.03.58-6.38-1.29-4.12-1.42-15.46-3.67-13.65-2.64-18.35-2.12-4.57.57-11.08 5.08-6.82 4.7-12.75 11.79-14.94 17.58-13.85 35.55 9.28 5.8 22.22 10.17 6.31 2.13 15.07 4.32 4.38 1.03 5.03 1.93.64.84-1.61 2.58-4.51 3.34-15.14 4.38l-20.74-.78q3.87 10.24 12.37 18.94 7.6 7.79 15.9 11.59 6.38 2.83 14.82 4.31l7.15.84q-3.8 1.16-13.98 1.74-8.56.45-11.53.2-1.6-.14-3.09-1.23l-3.47-2.77q-1.87-1.42-4.2-1.1l-1.92.58q-31.43 39.8-31.88 41.22-.39 1.1.13 3.16.51 2.12 1.6 3.67 1.1 1.6 14.24 9.66 12.94 7.86 17.84 10.1 7.21 3.3 7.08 5.48-.19 2.06-7.08 2.58-8.76.64-22.67-3.86-12.1-3.87-19.2-8.38l-3.99.07q-3.09.58-3.6 1.22l-19.65 25.25q-1.8 2.12-6.44 5.6-5.4 4.06-6.57 3.1-1.28-1.1-.64-6.9.58-5.54 2.25-9.98.97-2.58 16.43-32.53-17.26-19.77-30.34-43.2-12.94-23.26-14.55-37.1-2.13-18.68 1.29-47.02 3.09-26.2 8.37-42.05 2.57-7.66 10.24-21.25l7.15-12.05q-.13-1.22-12.37-15.84L77.54 144q-2.32-3.22-3.73-8.24-1.42-5.15-.13-6.38 1.8-1.67 8.37 1.42 5.99 2.77 7.92 5.02 2.51 2.84 14.04 12.62 12.95 10.95 15.27 10.89 4.5-4.25 14.42-9.21 6.9-3.35 11.98-5.15 3.29-1.16 10.56-2.39l11.53-.96q3.54.45 3.29 1.54-.26.9-3.68 2.97-8.5 5.08-17.64 12.36-14.1 11.2-13.4 16.3.9 6.3 18.04 24.15 16.74 17.38 24.6 21.12 5.09-4.44 14.62-7.4 4.83-1.49 8.56-2.13 2.13-1.42 4.58-2.77 4.89-2.84 6.56-2.84 6.57 0 16.04 6.5 7.92 5.48 12.75 11.54m-2.83-6.89 22.67-29.24 2.12 5.15-5.86 8.24q-5.73 8.57-4.96 9.8 1.16 1.99 9.86 5.79l-3.48 6.37q-2.83-1.41-6.83-2.9-7.98-2.96-13.52-3.21m81.21-94.8q1.03.38.71 4.5-.32 4-1.48 6.77l-12.24-3.74 5.15-4.25q5.67-4.06 7.86-3.28"/><path fill="#727171" d="M275.45 210.4q4.13 5.09 11.6 9.6 7.53 4.5 10.82 3.8 2.57-.52 6.11-9.99 3.8-9.92 2.58-15.65l3.8 9.98q4.25 10.82 6.31 15.14l14.81 27.3q8.5 15.78 9.21 22.61.71 7.34.26 12.37-.38 5.15-2.06 9.72l3.87 3.6q4.05 4.13 5.15 6.83 1.41 3.42 2 7.15.57 3.87-.2 4.96-1.16 1.42-7.28 1.42l-12.88-6.25q-3.6 5.22-10.75 10.11-14.3 9.73-31.88 7.92l-1.61-9.34q3.6-2.25 6.24-7.2 3.87-7.35 4.7-19.4.9-13.13-9.4-47.97-10.82-33.56-11.4-36.71m-71.87 129.38q-1.61 0-4.12-2.38-.71-.71-1.1-2l-.19-1.22 13.52-.71q-6.76 6.31-8.11 6.31M79.02 247.69l-1.67 7.98q-4.19-.25-10.05-3.99-11.72-7.47-19.96-25.05l8.5 8.3q10.95 9.09 23.18 12.76M217.5 110.38q-1.3-.83-18.5-2.06 2.97-10.04 17.4-22.6 13.33-11.66 21.76-13.66.13 22.35-1.41 24.8l-8.05 8.05q-7.47 7.02-8.9 9.4-1.02-3.15-2.3-3.93M423.78 3.67q-10.57 9.34-18.04 17.9-6.95 7.99-14.75 20.55-7.66 12.43-9.4 14.36-4.96 5.6-13.72 10.18-11.78 6.24-28.66 9.46-10.82 2.13-23.05 5.86-24.48 7.54-31.56 15.85.51-2.97 3.1-7.99l2.44-4.5q-4.38-.07-10.95 1.54-13.01 3.28-23.7 11.78-.32-26.08-1.74-33.94 4.06-1.67 8.05-3.41 12.37-4.12 33.81-7.86 10.89-1.86 41.48-2.25 22.28-.32 30.98-5.8 7.66-4.9 17.2-15.65 12.55-14.42 15.45-17.06 4.5-4.12 9.79-6.9 7.4-3.86 14.68-4.05z"/><path fill="#0f141b" d="M237.9 77.73q.4-.2.78.45.32.65-.06.84-7.28 3.28-17.2 12.56-10.3 9.66-14.5 17.64-.18.4-.76-.12-.65-.52-.46-.9 4.64-8.7 14.3-17.78 9.53-8.89 17.9-12.69m-.83 11.85q.39-.2.77.45.45.58 0 .78-4.96 2.57-10.95 8.69-6.18 6.25-8.63 11.4-.19.39-.9 0-.7-.32-.51-.77 2.77-5.86 8.3-11.53 5.67-5.8 11.92-9.02"/><path fill="#00a051" d="M209.83 92.1q4.05-5.16 11.46-10.44 3.67-2.7 6.57-4.31 1.74 3.22 1.35 7.27-.38 4.32-3.22 7.02-3.35 3.16-8.3 3.22-4.84.07-7.86-2.77m17.64 5.48q-1.35-1.23-1.41-3.42 0-2.12 1.16-3.4 1.15-1.3 3.02-1.68 1.87-.39 3.29.32 1.48.7 2 2.64.5 2-.52 4-1.1 2.18-3.6 2.63-2.4.39-3.94-1.1"/><path fill="#e83921" d="M221.35 90.35q-1.22-1.15-1.15-2.96 0-1.93 1.67-3.22 1.1-.83 2.7-.77 1.74.13 2.9 1.42.84 1.1.78 2.7-.07 1.74-1.16 2.77-1.16 1.16-2.9 1.16-1.68 0-2.84-1.1"/><path fill="#cbd0d3" d="M211.89 85.07q13.9-11.91 26.66-13.78-6.38 2.9-14.23 8.31-15.65 10.88-22.67 23.5-3.6 2.26-6.57 2 4.9-9.85 16.8-20.03"/><path fill="#c7a400" d="m202.16 108.7-4.12 4.13q-3.6 0-4.31-1.35-.97-1.87 1.35-6.38 2.96.26 6.57-2-1.36 2.39-2.51 5.29z"/><path fill="#cbd0d3" d="m205.32 111.93-7.28.9 4.12-4.12 13.14 1.35zm43.6-25.83q4.31-5.92 6.25-11.91 1.22 4.7.9 15.2l-.52 9.53q9.15-7.73 20.93-11.27 8.18-2.51 14.1-2.25-6.62 7.47-6.75 20.86-.07 6.7 1.22 11.92-1.03.25-2.25-1.55-.9-1.35-1.42-2.9-2.51-7.79-6.7-4.57-2.77 2.19-7.86 11.4-5.73 10.43-7.6 12.62-3.8 4.64-5.73-.84-3.09-4.18-7.47-6.11-2.57-1.16-6.37-1.68l-12.43 1.16-9.6 1.55q-2.38-1.94 7.08-13.98 10.76-13.65 11.02-14.55 7.79-5.35 13.2-12.63m124.11-43.92q-8.31 6.06-17.2 7.54l-19 1.48-23.44.9q-32.2 2.13-59.06 12.88l-.45-4.7 10.63-3.48q13.13-3.86 25.63-5.8l21.83-1.86 20.48-.52q23.38-.83 35.42-7.47 5.6-3.09 16.75-14.42 12.04-12.3 18.48-16.68-14.62 15.45-19.32 21.64-4.57 5.98-10.75 10.5"/><path fill="#595857" d="M379.14 59.25q-4.96 5.02-14.1 9.14-10.82 4.83-25.83 7.73-10.82 2.13-23.05 5.86-24.48 7.54-31.56 15.85.51-2.97 3.1-7.99l2.44-4.5q-4.38-.07-10.95 1.54-13.01 3.28-23.7 11.78-.32-26.08-1.74-33.94 4.06-1.67 8.05-3.41 12.37-4.12 33.81-7.86 10.89-1.86 41.48-2.25 22.28-.32 30.98-5.8 7.66-4.9 17.2-15.65 12.55-14.42 15.45-17.06-9.66 12.17-12.82 26.98-1.6 7.54-2.57 10.05-1.94 5.21-6.19 9.53"/><path fill="#cbd0d3" d="m242.8 176.07 6.06-.45q6.76-.64 10.62-1.8l1.1 7.34-6.77-1.16q-7.53-1.6-11-3.93m52.87-16.87 9.98-6.9q11.6-8.43 19.45-16.54l-24.93 36.2-2.5-7.93q-1.17-3.35-2-4.83m39.48 33.36-5.74 6.76q-2.19 2.84-5.08 9.15-1.42 3.15-2.39 5.73-1.35-3.35-2-7.47-.7-4.77.46-6.44.7-1.03 8.24-5.86 7.6-4.9 9.4-7.28.13 1.67-2.9 5.41m-30.39-7.66q1.48 5.6 1.6 9.6.27 10.36-2.57 19.83-2.83 9.2-6.05 9.79-1.61.32-6.38-1.87-5.73-2.58-11.14-7.02-15-12.3-19.13-31.5 2.26 9.28 13.08 17.07 10.69 7.67 16.16 6 4.5-1.36 7.99-9.09 4.44-9.79 2.44-22.86 2.32 3.67 4 10.05M364.91 288l-8.5-8.43q2.58-1.74 7.34-10.18l4.25-8.05q.52 5.67-3.09 26.66m-107.17-36q-1.22-2.38 2.7-4.63 4.9-3.68 10.7-5.29 1.93-5.92 2.25-12.1.39-6.06-.9-9.21-12.5-7.15-19.2-9.98l9.8.7 12.94.52 6.12 20.1 6.06 20.02q-12.18 6.44-24.41 3.35-4.9-1.22-6.06-3.48"/><path fill="#595857" d="M303.15 215.8q3.48-8.23 3.8-17.19 3.8 19.84-2.32 34.72-5.28 12.94-16.42 18.8l-6.06-20.03-6.12-20.1 1.61.27q.52 2 7.02 6.5 7.54 5.15 13.2 4.64 2.2-.2 5.29-7.6"/><path fill="#cbd0d3" d="M272.1 280.53q3.61 5.48 10.25 10.18 7.08 5.02 13.33 6.05-.58 17.39-10.18 25.25-3.15-21.64-4.12-24.73-.97-3.1-5.41-10.57z"/><path fill="#595857" d="m338.05 258.64 1.61 6.63q1.55 8.24 1.3 16.3-.72 25.75-18.81 39.73-10.11 7.79-23.25 9.98l-8.5.52q-3.29-.13-3.68-.84L285.5 322q9.6-7.86 10.18-25.25l.25.07q15.91 2.44 28.28-4 17.7-9.27 13.84-34.2"/><path fill="#cbd0d3" d="M338.7 294.9q11.6 10.43 31.04 30.97 14.1 14.88 18.1 16.49 8.24 3.15 13.84 3.47 11.34.52 11.08-9.91l.97 7.27q.45 7.67-2.06 9.66-2.13 1.74-27.05 15.91v3.16q-.26 3.41-1.48 4.31-1.48 1.23-9.08 3.8-7.6 2.64-7.93 2-.25-.52 6.64-5.22l6.18-4.18q-1.67.9-4.5 1.28-4.2.45-5.48-1.54-2.64-4-4.32-3.93-2.12 0-5.34 5.67l1.1-3.48q.57-2.51.19-6.83-4.2-8.24-6.12-18.6-2.32-12.5 1.6-16.82-3.02-2.57-7.85-5.73-9.66-6.31-18.55-9.27 2.26-2.52 4.51-6.12 4.5-7.15 4.5-12.37m2.33 57.96.64 14.62q-5.8 1.74-8.82 3.29-7.28 3.67-17.58 12.17 11.2-11.33 14.94-15.71 4.05-4.7 10.82-14.37m-39.35 92.29q1.67-7.98 4.76-15.13 1.48-3.42 4.77-9.53 2.51-4.7 1.22-9.92l-1.87-4.25 16.23-8.12q16.75-8.24 19.2-9.08 2-.64 9.4.13 6.31.71 10.75-2.25-7.79 5.6-18.22 14.8l1.35-3.85.77-2.58q-12.75 6.25-26.79 21.44-11.66 12.63-21.57 28.34"/><path fill="#c7a400" d="M312.8 429.5q13.53-17.4 22.68-23.84-6.96 8.7-13.4 20.1-6.44 11.46-10.43 22.22l-4.57 7.53q-4.96 8.82-6.83 15-.26-4.82-.32-10.36-.07-11.08 1.16-14.56 4.96-7.4 11.72-16.1"/><path fill="#cbd0d3" d="M216.85 307.64q7.02 3.29 22.54 5.03l18.03 1.1q4.44 0 3.29 5.53l-1.42 5.35q-.9 3.41-.9 5.54 0 9.46 8.95 36.83 9.2 28.21 13.59 29.18 9.72 2.12 15.13 1.1 8.63-1.68 7.92-10.9 1.3 11.54-2.76 17.85l2.06 4.44q2 4.83 1.8 6.83-.26 2.5-3.54 9.79-3.29 7.34-3.54 5.66-1.36-9.6 1.6-21.9l-2.96 4.58q-3.54 4.57-6.37 4.44-3.35-.13-12.18-6.05-2.83-1.87-3.22-1.68-.51.33 1.87 4.2 2 3.21 3.67 4.89l2.45 2.18q-4.19-2.57-9.02-7.01-9.66-8.96-12.88-18.36 1.1 8.5 4.12 14.75 3.35 7.02 11.92 17.58 1.48 1.8 2.58 9.21 1.22 8.76 2.7 12.62-1.67-.26-4.57-3.15l-2.64-2.84q-1.55 9.92 2.7 43.47 4.38 34.4 8.63 41.22l.78 1.29q0 5.28-.97 5.73l-9.21-.84q-5.15-5.6-7.02-9.34-4.19-8.11-9.47-24.08-5.09-15.46-5.34-20.03-.2-3.6 1.03-31.3l1.22-26.98q-4.25-13.27-4.44-23.5-.26-16.24 8.63-28.99-2.7-8.95-7.09-18.68-2.83-6.24-7.02-17.13l-3.6-9.6q-23.19-13.52-27.05-18.03"/><path fill="#c7a400" d="m303.66 541.68.32 5.86q0 5.99-1.8 6.76-1.67.77-9.98-5.4-8.44-6.38-15.2-13.6l9.2.84q.98-.45.98-5.73 7.98 12.5 12.49 14.75 3.8 1.86 4-3.48"/><path fill="#cbd0d3" d="M198.5 306.87q10.3.9 17.45-.06-.07 1.74 14.04 10.56 7.08 4.44 14.16 8.5l.39 4.06q-23.31 5.21-43.09-3.35-21.18-9.15-30.72-31.17 1.55 2.06 12.43 1.93 12.18-.2 22.93-3.8-4.38 3.8-11.4 6.18-7.28 2.45-15.07 2.45 6.18 3.6 18.87 4.7m27.31-82.82 12.17 3.22q-6.89-1.67-16.23-2.25-12.04-.71-18.55 1.6-12.17 4.39-22.8 18.04-11.72 15.13-11.72 30.72l-2.19-2.19q-.13-8.37 2.64-16.16 2.84-7.99 9.4-17.07 5.03-7.02 12.57-12.5 8.56-6.24 15.32-6.43 6.06-.13 19.39 3.02M193.15 332.5q.77.52 2.77.84l17.58-.58q-.32 4 1.1 10.24 1.47 6.63 3.47 8.7 1.29 1.35 4.64 2.57 3.73 1.29 7.15 1.29 9.4-.07 8.63-10.11l.38 2.9q.07 3.47-1.41 6.3l-3.68 7.1 1.3 1.99q1.22 2.32 1.02 3.8l-3.02 7.28q-2.97 6.3-3.29 8.75-.51-8.88.52-12.1-2.13 6.11-5.03 5.8-2.7-.33-6.5-6.58 0-1.16-1.16-2.83-2.32-3.28-8.05-5.6-3.8-1.48-8.5-6-4.9-4.7-7.8-9.91 1.87 7.86 10.31 17.77l9.14 9.73q1.3 1.8 2 6.76.84 6.12 2.7 10.82l-4.57-2.96-1.41-1.23q.51 10.95 4.31 29.82 4.57 22.41 9.34 29.37l.52.7q-.4 5.16-1.03 5.42h-2.71l-5.22-.84-3.67-2.96q-5.6-4.57-12.43-21l-5.73-15.52q1.16-14.75-1.16-31.88l-2.51-14.16q-7.73-12.18-5.8-25.44.58-4.12 2.06-7.86l1.36-2.96 3.67 2.44.32-.32z"/><path fill="#c7a400" d="M235.07 455.51q2 .32 2.9-.97.84 1.94.52 4.83-.33 2.97-1.55 3.1-2.64.32-8.5-2.9-5.28-2.9-11.79-7.86l5.22.84h2.7q.65-.26 1.04-5.41 5.53 7.79 9.46 8.37"/><path fill="#595857" d="M203.58 339.78q-1.61 0-4.12-2.38-.71-.71-1.1-2l-.19-1.22 13.52-.71q-6.76 6.31-8.11 6.31"/><path fill="#c7a400" d="M63.44 411.27q.51.32-5.8 10.04L43.8 442.63q-12.88 13.85-17.13 19.2-9.4 11.78-13.46 22.47-4.05-14.04-5.09-24.41 3.48 2.9 4.9 2.9 1.22 0 2.12-1.3l2.71-4.5q6.12-10.05 17.9-22.99 9.4-10.18 18.49-17.32 7.98-6.19 9.2-5.41"/><path fill="#cbd0d3" d="M67.56 357.94q-.58 3.93-1.03 10.95-.58 5.99-2.64 9.6-3.87 6.89 1.67 7.02 5.28.12 7.67-2.52 2.12-2.25 3.09-6.05.77-3.22.45-5.54-1.61-11.01-.39-21.31 1.61-12.82 7.4-19.26-13.9 12.24-16.22 27.11m49.98 16.17-1.48 2.12q-1.04-.26-6.57 1.1l-5.29 1.41-3.22 6.64q-1.67 3.41-3.6 4.7L88.3 396l-10.89 7.28q-5.66 4.7-10.3 10.18-4.32 5.02-11.6 15.26-3.4 4.9-11.72 13.91l13.85-21.32q6.31-9.72 5.8-10.04-1.23-.78-9.21 5.4-9.08 7.15-18.49 17.33-11.78 12.94-17.9 23l-2.7 4.5q-.9 1.29-2.13 1.29-1.42 0-4.9-2.9-1.48-14.36 2.32-23.12 1.3-2.9 7.54-12.04L31.1 405.6q18.8-28.47 24.47-46.76.45-7.14 4.19-15.58 7.34-16.75 23.5-22.8l9.8 18.48q12.23 21.26 24.47 35.17m9.15-88.68q1.03 1.54-.32 2.64l-4.12 2.38q-7.67 4.5-10.05 13.97-3.28 13.01-5.47 24.03l-7.09-15.33 4.51-30.27q-5.47-9.72-9.2-17.45l.83-3.1q5.92 6.06 18.68 14.56 11.72 7.8 12.23 8.57M45.4 222.96Q36 204.28 31.1 198.1q-7.53-9.53-23.89-13.53 16.62.52 27.44 11.02 6.57 6.37 19.13 23.76 8.95 10.7 26.66 13.78l-1.1 7.22-1.09 7.2-.39-.12q-5.47-1.55-12.23-5.35-13.6-7.66-20.23-19.12m51.78 28.59-.64-.13q1.29-5.73 2.96-17.2 9.8-.38 19.13-2.5 8.37-1.87 12.88-4.25l-4.9 5.15q-5.02 5.6-5.85 7.73z"/><path fill="#595857" d="m79.02 247.69-1.67 7.98q-4.19-.25-10.05-3.99-11.72-7.47-19.96-25.05l8.5 8.3q10.95 9.09 23.18 12.76"/><path fill="#c7a400" d="m220.2 138.85 11 2q13.28 2.76 24.8 6.76l-3.4 6.24-9.35-5.47q-11.65-6.18-23.05-9.53m23.82 89.25q-17.06-4.7-28.4-6.17-8.76-1.16-12.62-.26-11.46 2.7-23 16.1-13.97 16.23-13.52 35.42l-3.6-2.32q0-11.27 5.47-23.05 5.8-12.5 15.52-20.35 10.76-8.7 17.07-11.66 4.9-2.26 8.7-1.68 8.43 1.3 22.21 7.8 6.96 3.22 12.17 6.18m-78.37 81.02-1.23 3.73q-2.25-1.29-4.83-5.02-5.21-7.4-7.02-19.32-2.51-2.51-4.57-5.8-4.19-6.63-1.87-10.69-.96 2.58 2.51 6.31 3.03 3.22 8.25 6.12 11.01 6.05 25.76 7.99 12.88 1.73 24.92-.13-4.38 1.8-11.01 3.22-13.4 2.83-24.92.83l2.19 5.03q3.15 6.12 7.92 11.4 15.13 16.87 40.38 19.25l-10.37 1.3q-11.27 1.09-15.84 0-4.26-1.04-5.74-2.46-1.48-1.48-2.19-1.67l-2.96-.64q-1.03-.07-1.8.64l-31.75 40.38-1.42 5.6q-.84 6.18 2.38 9.4 2.77 2.77 21.32 11.98 16.42 8.12 14.88 8.25l-14.43-.52q-17.13-2.38-30.27-11.53l-3.28-.13q-3.6.07-5.1 1.42-1.15 1.1-12.8 16.94-12.57 15.71-19.59 17.39l-.64-1.1q-.51-1.74 0-4.7.26-1.54 9.98-18.1 9.4-16.16 9.8-21.18.31-2.26-1.3-4.51-18.87-25.12-24.86-34.33-15.32-23.57-18.74-40.12l-1.67-6.44q-.77-3.22-.39-6.31.26-2.13 4.06.77 3.28 2.45 5.22 5.02l7.34 18.55q7.28 18.55 12.75 25.96 8.11 11 16.55 17.45 2.84 2.19 7.47 2.12l7.15-.9q7.15-1.29 19.13-16.93 11.6-15.2 12.75-23.51.39-2.9-.32-6.44-.7-3.41-1.8-4.57m-40.58-114.19-3.93-.77q-2.32-.13-3.99 1.1-3.8 2.76-8.57 10.81-2.31 4-3.92 7.47 1.41-7.79 3.92-13.26 2.52-5.67 5.67-7.67 2.45-1.6 9.15-1.41 6.76.13 8.7 2 5.2 5.08 18.22 19.25 14.42 15.71 15.52 18.1 1.29 2.83.77 5.15-.32 1.6-2.7 6.76l-1.16-5.34q-.45-1.94-37.68-42.19m10.95-15.07q-3.54-3.67-3.67-6.5-.13-2 .58-4.38.77-2.9 2.32-4.77 4.9-6.05 15.97-11.91 9.79-5.22 18.8-7.6-7.79 3.48-19.44 12.75-14.04 11.2-14.04 17.39 0 3.6 2.83 7.53l2.38 2.9zm-62.79-47.33q.38 1.35 2.96 4.31l5.54 6.19 16.23 17.45q8.95 9.4 9.2 10.24 1.04 2.83 0 6.44-1.02 3.41-2.96 4.57-2 1.16-6.7 7.28-4.76 6.3-6.88 10.82L94.6 191q4.83-9.85 8.89-15.2-12.37-16.55-22.8-27.56-2.45-2.51-4.58-6.31-2.9-5.22-2.9-9.4m228.71 202.03 2.13-4.76 2.83-.52q4.51-1.48 12.5-6.57-11.08 22.93-11.27 24.86-1.74 3.03-1.55 10.11.2 6.9 1.74 8.44l13.07 11.08-8.88 8.5-12.05-10.5-4.5-11.72q-4.7-12.88-5.6-18.8l3.02-.33q2-.83 3.15-1.93 2.77-2.64 5.41-7.86"/><path fill="#595857" d="M329.55 312.99q4.45-4.06 7.34-11.27l2-6.44 3.87 3.6q4.05 4.13 5.15 6.83 1.41 3.42 2 7.15.57 3.87-.2 4.96-1.16 1.42-7.28 1.42z"/><path fill="#c7a400" d="m253.43 394.52-.39 5.6-5.47.4q-4.32.12-4-.85l5.93-2.64q2.96-1.54 3.93-2.5m67.56-271.65-.26 3.54-.77 5.99-4.45-1.03zm-67.89 96.41 4.51-6.25q3.16 1.67 6.06 2.7l-4.51 6.7z"/><path fill="#00a051" d="M117.54 182.32q-3.29-3.67-4-7.73-.58-3.67 1.03-4.7l4.58-.26q3.22 1.03 6.18 4.51 2.64 3.16 3.35 6.57.64 3.28-.84 5.15-1.03 1.29-3.93.58-3.41-.77-6.37-4.12m24.15 199.9q-2.32 4.32-5.73 5.73l-4.64.13q-1.55-.96-1.61-4.25-.07-3.41 1.6-6.44 1.81-3.35 4.84-5.15 3.03-1.87 5.15-.7 2 1.09 1.93 4.63-.06 3.15-1.54 6.05m154.95-16.55-5.66-16.8q3.02.9 6.5 3.66 3.41 2.9 4.9 6.83 1.41 3.86 0 5.6-1.42 1.8-5.74.71"/><path fill="#008d46" d="M117.54 182.32q-1.1-1.16-2.9-4.96 5.6 6.57 10.17 5.15 4.58-1.41.52-8.37 2.64 3.16 3.35 6.57.64 3.28-.84 5.15-1.03 1.29-3.93.58-3.41-.77-6.37-4.12m24.15 199.9q-2.32 4.32-5.73 5.73l-4.64.13q-1.55-.9-1.42-4.7.07-3.86 1.8-6.95-.7 2.5.84 3.6l3.6.26q5.8-1.8 5.16-8.76 2 1.1 1.93 4.64-.06 3.15-1.54 6.05m152.76-22.67q2.7 1.16 3.87-.26 1.41-1.73-.84-6.76 3.41 2.9 4.9 6.83 1.41 3.86 0 5.6-1.42 1.8-5.74.71z"/><path fill="#0f141b" d="M261.03 185.28q.26-.32.77 1.23l.52 1.54q-14.17 19.26-21.45 27.7h-1.74q-1.67-.13-1.42-.46 15-17.58 23.32-30m60.15-64.34q.97.64.7 4.18l-1.09 7.92q-.06.65-2.12-.96l1.03-4.58.45-3.09q.26-2-.26-2.32-.58-.45-2.7.78-2.7 1.6-9.21 6.89l-1.48-.39q-1.1-.7-.78-.96 12.11-9.8 15.46-7.47M260.51 222.9l-1.22-.2q-1.1-.45-1.1-.84l4.64-6.95q.7 0 1.55 1.35zM240.48 21q1.8-4.26 4-4.13 2.19.13 3.73 4.7 4.5 13.66 7.47 46.44 3.03 33.36 0 40.44-.77 1.74-7.15 6.12-6.7 4.5-7.98 6.7-.45 1.03-.2 2.83.07.45-.58.65l-.83-.07q-.78-1.03-.97-2.25-.13-1.1.26-2 .77-1.48 7.34-6.57 6.5-5.02 7.34-6.95 3.03-7.09-.13-40.7-3.02-32.53-7.14-44.5-.9-2.58-1.55-2.58-.64 0-1.48 2.32-.77 2.06-7.34 23.5-6.19 20.35-6.9 21.58l-1.6 2.44-2 1.68q-2 1.6-3.1 1.67-1.28.07 1.49-2.96l3.15-4.77 6.7-20.73q6.38-20.35 7.47-22.87"/><path fill="#0f141b" d="M209.25 60.8q9.6-9.21 24.66-15.33l-.51 3.41q-13.33 5.86-21.9 14.1-11.72 11.27-17.45 26.28-4.12 10.76-4.12 19.7 0 2.84.64 3.48l2.77.2 19.13-3.67q.51-.07 2.83.77l1.87.97-13.01 2.44-11.14 1.48q-2.9.26-4.06-.58-1.1-.83-1.35-3.28-.78-8.37 3.02-20.29 5.54-17.13 18.62-29.69M421.84.06q4.58.13 4.96 1.1.45 1.03-3.35 4.19-19 15.58-31.68 38.64-7.47 13.58-16.43 19.77-10.56 7.27-34.26 13.2-21.51 5.4-27.56 7.4-22.1 7.35-29.3 16.36-.26.33-.07-1.8.13-2.12.51-2.51 8.31-8.57 29.05-14.94l26.86-6.64q22.86-5.73 33.23-13.46 8.24-6.05 15.84-19.9 6.18-11.14 17.07-23.12Q416.1 8 424.03 2.13 403.87.64 386.1 20.93q-14.04 15.97-30.08 19.13-8.24 1.6-28.4-.58L286.34 38q-19.2.83-35.1 4.9l-.9-2.65q32.46-7.92 77.54-2.96 20.41 2.19 28.14.58 14.24-3.03 28.08-18.74 7.86-9.02 15.78-13.6 10.3-5.92 21.96-5.47"/><path fill="#0f141b" d="M423.71 1.03q.64-.06.9.64.26.71-.38.78-11.79 1.6-20.48 9.01-5.16 4.32-21.7 23.57-9.41 10.89-20.87 14.37-10.7 3.28-33.5 2.96-20.48-.32-43.47 4.83-17.13 3.8-29.94 9.01-.4.13-.78-1.22-.45-1.42 0-1.54 12.88-5.29 29.43-8.76 22.22-4.64 44.64-4.32 23.37.32 33.68-3.09 9.79-3.28 19.13-14.04Q396.2 14.88 402.9 9.6q8.7-6.83 20.8-8.57"/><path fill="#0f141b" d="m337.99 50.94 1.42.52q.9.51.45.51-22.35.77-49.14 7.86-22.93 6.05-36.13 12.88-.39.2-.32-.9.06-1.1.38-1.23 13.6-6.76 35.62-12.36 25.5-6.5 47.72-7.28"/><path fill="#0f141b" d="m423.13 1.87 1.61.06q.13.65-1.29 1.23-9.79 4.05-23.05 18.93-5.22 5.86-16.36 20.41-9.6 11.21-19.7 14.17-6.58 1.94-30.99 3.48-18.74 1.16-39.28 7.28-20.23 5.99-38.58 15.71-.39.2-.45-.77-.13-1.03.06-1.16 18.42-9.6 38.77-15.59 20.48-5.92 39.35-7.14 23.64-1.48 29.63-3.16 10.43-3.03 20.03-14.23 11.08-14.43 16.16-20.1 13.6-15 24.1-19.12m-78.45 72.26q.45-.07.64.45.26.58-.2.64l-30.58 5.35q-20.1 3.99-27.44 11.33-.39.39.13-1.42.58-1.86 1.22-2.31 8.83-6.44 27.18-9.66z"/><path fill="#0f141b" d="M256 100.47q-.32.32-.45-1.16-.06-1.48.33-1.87 5.02-4.64 13-8.18 7.54-3.35 15.27-4.64l7.8-.7q.64.51-2 5.02-9.09 15.58-3.1 30.33.2.45-1.16-.39-1.28-.77-1.54-1.35-2.51-6.89-1.48-15.26 1.03-8.44 5.21-15.26-9.01.96-17.39 4.25-9.53 3.8-14.49 9.2"/><path fill="#0f141b" d="M278.74 107.8q-.07-2.95.64-2.76t1.42 3.54q1.6 7.54 9.98 12.56 8.63 5.22 27.89 9.79 6.44 1.48 7.53 3.28.97 1.55-1.48 5.48l-11.14 16.03-11.2 15.07q-2.39 2.84-2.71 1.74-.39-1.16 2.06-4.57l20.03-29.18q1.55-2.38.97-3.28-.78-.97-5.28-2.06-19.39-4.57-28.8-10.63-9.65-6.3-9.91-15m28.4 67.04q-2.7-1.68-2.12-2.32.51-.64 2.64.58 3.54 1.93 27.11 10.05 4.44 1.6 4.96 3.8.39 1.74-1.93 4.76-6.38 7.54-9.6 12.17-5.92 8.38-4.96 12.82.13.64-.9-1.22-1.03-1.8-.9-2.58.64-4.77 5.67-12.3 1.73-2.58 7.34-9.85 1.54-2 1.35-3.1-.13-1.22-2.51-2.12-7.8-2.7-15.65-5.92-8.25-3.29-10.5-4.77"/><path fill="#0f141b" d="M303.98 165.51q.13-.45 1.42-1.03 1.23-.64 1.1-.2l-.52 1.81q-.51 2.06-.58 3.41-.06 2.06-.9 1.61-.77-.38-.84-2.64l.13-2zm3.74-4.7q.06-.45 1.03-.84l.97.13q-.97 9.34 4.31 16.49.26.38-.7.51l-1.3-.25q-3.15-3.74-3.99-7.15-.84-3.22-.32-8.89m12.04 46.89q-.45-5.03.58-4.96.97 0 1.68 5.08 1.22 8.7 4.18 17.46 2.32 6.82 7.02 17.38 9.47 21.45 9.02 39.61-.45 18.3-10.88 31.24-7.93 9.85-20.55 15.26t-23.25 3.6q-.32-.06-.96-1.41-.65-1.35-.26-1.29 9.98 2.38 22.47-2.83 12.5-5.16 20.3-14.88 10.04-12.5 10.62-30.14.51-17.71-8.7-38.45-5.34-11.91-7.27-17.58-3.1-9.08-4-18.1m-36.58-66.46q-1.87-2.51-1.1-2.7.84-.2 3.36 2.5 3.02 3.3 6.18 8.38 4.31 6.96 7.21 14.88 1.03 2.9.58 3.93-.45.96-1.54-1.55-6.5-14.1-14.69-25.44"/><path fill="#0f141b" d="M306.24 199.9q-.26-.7.13-2.96.32-2.2.45-1.68 3.8 13.53 10.3 26.8 2.9 5.98 11.08 20.41 7.28 12.88 9.92 19.9 3.93 10.5 3.8 21.38 0 .45-.97.45-1.03 0-1.03-.45.32-12.1-4.18-22.41l-9.86-17.84q-6.7-11.91-10.1-19-5.68-11.98-9.54-24.6m-2.38 12.95q-.13-.39.38-1.49.52-1.15.65-.77 2.12 7.99 6.18 16.88 2.7 5.8 7.73 14.87 14.62 26.28 16.55 43.99 2.19 20.41-11.6 33.87l-1.02-.19q-.65-.45-.33-.77 15.01-14.1 9.92-38.77-3.02-14.75-15.07-37.1l-7.34-14.36q-3.93-8.5-6.05-16.16m-18.04 6.25.84.12q1.03.52 1.16.97l6.25 17.39q6.44 18.41 8.3 24.8 6.25 21.3 5.54 37.47-.83 20.74-13.2 31.75l-1.55.2q-1.28-.13-.9-.46 13.79-11 13.66-35.6-.13-15.01-5.28-32.73-1.8-6.24-8.5-25.63z"/><path fill="#0f141b" d="m273.84 208.66 1.49 1.03 1.73 1.8q3.1 11.4 7.02 24.09 11.6 37.16 12.95 51.4 2.45 24.14-11.4 36.38l-.52-1.03q-.38-1.1-.19-1.29 11.6-11.01 9.4-33.94-1.48-15.97-12.36-50.88-5.09-16.35-8.12-27.56m-18.03-72.32q2 3.99 1.93 4.7-.45 6.18-2.64 10.75l-4.57 8.38-6.05 11.59q-1.03 2.06-.84 2.9.13.9 1.74 1.6 5.86 2.52 15.13 4 .39.06.26 1.16-.2 1.1-.64 1.03-11.6-1.93-16.23-3.93-3.29-1.42-3.67-2.96-.4-1.35 1.22-4.57l6.83-12.05 4.83-8.18q2.06-4.05 2.57-8.56.32-2.45.13-5.86m.19 69.42q-1.67 2.7-1.41 3.67.19 1.03 2.83 2.13 6.31 2.57 9.92 4.9 4.06 2.57 5.99 5.66-.45 2.51-.77 2-1.87-3.16-7.28-6.12-3.03-1.68-8.83-4.06-4.12-1.74-4.76-3.15-.77-2 2.12-6.83 2.84-4.57 9.28-12.75.26-.32 1.1.38l.7.9q-4.57 6.06-8.89 13.27"/><path fill="#0f141b" d="M271.2 220.19q-1.22-4.32-.13-4.12 1.1.12 2.52 4.57 1.54 4.96 1.16 10.17-.4 5.1-2.7 11.53-1.3 3.54-2.46 4-1.22.45-.19-2.84 2.58-8.11 2.9-13.72.26-4.83-1.1-9.6"/><path fill="#0f141b" d="M259.93 249.17q-3.73 2.45-4.57 1.93-.9-.45 2.32-3.1 7.08-5.72 13.33-7.33.39-.07 0 1.35l-.7 1.48q-3.74 1.48-10.38 5.67m76.9 4.38 13.33.96 12.75 1.94q3.61.83 4.9 2.12 1.35 1.35 1.29 4.5-.13 4.9-1.23 13.98l-1.74 12.24q-.06.45-1.41-.84-1.3-1.35-1.23-1.74 2.64-14.42 3.22-22.15.26-2.9-.58-4-.7-.96-2.9-1.34l-11.4-1.55-14.61-1.1q-.45 0-.65-1.48-.19-1.54.26-1.54"/><path fill="#0f141b" d="M374.31 294.25q12.76 11.08 18.74 15.07 6.51 4.38 12.05 9.47 5.67 5.21 6.95 8.24 2 4.77 2.64 13.59.71 9.79-1.67 12.69-1.03 1.22-5.09 3.67l-8.82 4.95q-11.27 6.12-13.98 8-4.7 3.21-5.8 2.82-1.15-.38 3.03-3.54 5.54-4.18 15.65-9.79 2.97-1.54 8.31-4.44l4.83-3.22q1.74-2.13.71-10.7-1.03-8.04-3.16-13-1.35-3.35-7.72-9.02-4.9-4.31-9.73-7.6-4.7-3.09-18.29-14.87-16.16-14.04-24.86-23.7-2.51-2.9-1.48-3.16 1.1-.32 4 2.58 10.23 10.3 23.7 21.96m-35.88 2q-.2-.2.52-1.03.7-.84 1.03-.58l3.73 3.54q3.8 3.8 5.03 6.05 1.35 2.51 2.12 7.73.77 5.47-.39 6.63-1.1 1.1-5.92 1.36-1.03.06-2.9-1.23-2-1.29-1.29-1.16l5.28.26q2.64-.2 3.03-.9.39-.71-.45-5.02-.9-4.51-1.93-6.44-1.1-2.07-4.57-5.87z"/><path fill="#0f141b" d="M329.17 314.02q-.45-.2 0-1.16.38-1.03.83-.84 12.05 4.58 21.84 11.08 9.72 6.5 15.32 13.59 2.65 3.35 2.13 4.44-.45 1.16-2.9-1.93-4.7-5.86-14.1-12.43-10.56-7.4-23.12-12.75"/><path fill="#0f141b" d="M358.86 348.73q.83-6.82 5.08-13.9.26-.4 1.03.44.84.84.65 1.23-3.6 6.63-4.32 16.29-.51 7.4.58 14.04.26 1.48-.38 3.73-.58 2.32-1.94 4.51-2.31 3.87-3.22 3.74-.9-.2.9-3.87 2.78-5.53 2.45-7.92-1.74-11.65-.83-18.29m-3.42-21.51q.33-.32 1.16.39.84.7.52 1.1-8.44 9.65-11.66 18.54-2.64 7.21-3.22 18.48-.2 4.13-.9 4.51-.65.39-.9-3.41-.97-12.62 2-20.54 3.08-8.5 13-19.07m-36.77-4.76 1.93-1.1 1.48-.2-5.67 11.8-6.76 14.42q-.96 2.25-.58 5.73.39 3.8 2.2 6.06 3.15 3.73 14.87 14.04.32.32-.58 1.09-.9.84-1.22.52-11.73-10.05-14.95-13.92-1.67-2-2.31-7.02-.65-5.15.51-8.05l6-12.81z"/><path fill="#0f141b" d="M343.01 348.28q.26-.45.33 1.29.12 1.74-.26 2.25-7.99 12.88-17.84 23.45-10.37 11.14-20.61 17.2-.39.25-.58-.97-.26-1.16.13-1.42 9.01-5.28 21.12-18.94 9.86-11.14 17.71-22.86m42.45 29.43q2.31-1.93 4.25-6.7 1.86-4.3 3.99-6.82 1.42-1.61 4.96-4.25l1.41-.32q1.04 0 .71.25-2.83 2.13-4.7 4.83-1.87 2.64-3.8 7.15-2.51 6.06-5.34 8.31-2.06 1.61-6.83 2.7-5.02 1.16-11.01 4.2-6.25 3.08-9.47 6.11-18.61 17.07-28.34 28.6-22.35 26.33-31.5 53.64-.12.52-.44-2-.26-2.44-.07-3.15 9.92-27.63 32.01-53.13 13.08-15.07 26.8-25.76 4.57-3.55 10.62-6.64 5.93-3.02 10.63-4.31 4.31-1.23 6.12-2.7"/><path fill="#0f141b" d="M300.57 450.16q-.2.46-.39-1.48-.12-1.86.2-2.44 9.34-16.1 16.1-24.41 13.27-16.3 31.5-26.66 3.92-2.26 4.44-1.94.64.45-1.87 4.83l-3.87 6.38-3.54 1.48 5.41-8.56q-17.58 10.3-34.45 32.45-8.44 11.08-13.53 20.35m-62.73-168.92q2.84-2.19 2.84-1.1-.07 1.16-3.03 3.74-9.6 8.3-18.68 19.58-1.35 1.67-1.35 2.25 0 .78 1.8 2.26 4 3.28 12.63 8.95 9.14 6.05 19 11.78 2.7 1.61 1.86 2.06-.9.46-3.8-1.15-23.18-12.82-31.68-19.71-3.42-2.77-3.48-4.38t3.09-5.28q3.48-4 10.05-9.85zm30.72-3.86q-2.5-3.29-1.48-3.35 1.03-.13 4.06 3.35 10.56 11.97 12.3 19.45 1.03 4.31 4.38 30 5.22 28.66 16.16 52.82 2.2 4.57 2 9.91-.2 6.31-3.67 14.62-2.19 5.93-3.35 6.31-1.16.39.71-5.28 2.96-8.88 3.35-14.87.39-5.74-1.61-9.8-10.24-22.66-15.4-48.74-3.92-25.64-5.98-34.52-1.03-4.25-5.28-11.08-2.9-4.57-6.19-8.82"/><path fill="#0f141b" d="M303.4 393.04q-.06-.13.71-1.35.71-1.29.84-.97.9 2.7 3.03 7.4 2.25 5.03 4.18 8.38 2.52 4.32 2.32 8.18-.26 3.93-3.41 9.79-2.7 4.9-4.25 8.5-1.61 3.67-3.74 9.6-2.64 7.2-1.35 47.2.9 29.18 3.1 58.6.31 5.29-1.23 6.51-1.68 1.29-6.18-1.48-11.6-7.15-19.71-15.78-7.67-8.18-11.6-17-4.82-10.95-8.5-23-3.54-11.52-3.86-16.67l1.22-26.15q1.36-25.11.84-35.87 2.32 3.6 2.38 4.25.58 5.99-.45 27.18-1.1 21.9-.51 30.52.45 6.64 3.8 17.26 3.15 10.3 8.18 21.64 7.47 16.88 29.36 31.43l3.1 1.8q.7-.13.38-4.05l-1.87-27.25q-1.8-30.71-1.8-50.87 0-10.5.52-16.81.58-6.76 1.93-11.6 2.45-8.3 7.53-18.93 2.45-5.15 2.7-8.7.27-3.34-1.4-6.62-1.49-3.03-3.8-8.83z"/><path fill="#0f141b" d="M290.85 459.82q1.48-6.37 2.38-6.56 1.1-.33 2.32 7.2l2.7 14.76q2.39 13.71 2.64 18.87l-.83 1.35q-.84.9-.9.45l-5.8-37.22q-.97 4.18-2.45 16.68-1.42 12.04-1.8 19.12-.39 7.22-.65 26.99-.19 13.65-1.03 14.8-1.93 2.71-9.08.2-.45-.13-1.22-1.6-.77-1.49-.32-1.36l5.4 1.55 3.55.06.13-18.55q-.07-19.12.32-22.8 2.19-23.12 4.64-33.94m-29.56-90.48q.25-.39.7.9.45 1.23.2 1.61-9.99 15.85-7.28 35.49 1.67 12.23 7.6 23.25 2.83 5.28 1.8 5.21-1.1 0-4.38-5.47-8.11-13.2-8.18-28.85-.06-16.88 9.54-32.14"/><path fill="#0f141b" d="M259.48 379.13q.52-2.96 1.29-2.38.7.51.26 3.73-1.16 8.05 2.12 16.81 3.42 8.95 10.11 14.68l9.21 7.8q2.9 3.15 2.84 6.82-.07 4.13-.97 4.64-.9.52-.9-2.96.06-4.32-2.9-7.4l-8.7-7.1q-7.6-6.5-10.94-15-3.8-9.53-1.42-19.64"/><path fill="#0f141b" d="M241.32 324.39q-.13-.39 1.67.51l1.87 1.23q1.87 5.09 7.54 18.22 5.66 12.88 8.24 20.1 8.82 24.47 4.19 38.06-.13.38-1.03-1.23l-.9-2q3.54-14.42-5.41-37.15-11.85-25.63-16.17-37.74m-5.73 7.34q0-.45 1.1-.45 1.15 0 1.09.45-.13 1.42.51 5.8.58 4.63 1.42 7.85.7 2.77.52 4.38-.2 2.39-2 5.54-5.15 9.8-6.57 14.56-.97 3.35-1.74 3.54-.7.26-.2-2.96.65-3.55 2.84-9.08 1.74-4.38 3.1-6.9 2.38-4.18 1.4-8.56-1.21-5.09-1.47-10.05z"/><path fill="#0f141b" d="m187.41 360.13 1.94 2.06q2.25 2.58 2.57 3.67 2.32 7.67 3.6 22.29 1.1 13 .85 23.44 1.28 8.11 7.02 19.9 5.8 11.78 11 16.74 8.12 7.8 16.75 11.4 4.45 1.8 5.29 1.35.83-.51.38-5.02-1.8-24.66-2.19-42.95-.84-34.78 4.7-45.34 1.55-2.77 1.68-4.7.2-1.74-.71-3.22l-1.8-4.06-1.03-3.8q-.07-.45.77-1.03l.9-.13 1.16 3.54q1.03 2.51 2.25 4.44 1.42 2.13 1.3 4.06-.2 2.13-2.2 5.93-5.02 9.53-4.25 45.66l2.13 41.21q.32 6-1.68 7.28-1.93 1.29-7.53-1.03-10.3-4.18-17.97-11.66-5.28-5.08-12.43-19.83-6.96-14.36-6.44-18.3 1.1-8.75-.71-26.52-1.93-19.13-5.35-25.38"/><path fill="#0f141b" d="m188.06 328.9 1.1.13q.9.51.64.83-5.22 8.25-3.48 20.03 1.87 12.37 10.63 21.13 2 2 .9 2.12-1.16.13-3.29-2-9.01-8.95-10.95-20.35-2-11.78 4.45-21.9"/><path fill="#0f141b" d="M191.73 338.81q-.07-3.09.77-4.25.9-1.09.97 3.1.13 6.89 5.67 13.58 5.4 6.57 15.32 12.18 2.39 1.35 3.74 3.47 1.48 2.39 2.38 7.09.9 4.5.32 5.21t-1.73-3.47q-1.36-4.9-2.58-7.15-1.22-2.2-3.16-3.29-12.23-6.82-16.74-12.17-4.83-5.73-4.96-14.3"/><path fill="#0f141b" d="M197.85 338.3q1.22 3.16 1.22 4.12 0 2.38-.77 8.44l-1.35-.2q-1.23-.64-1.1-1.09.9-3.8 1.03-7.15.07-1.74-4.25-9.85-.2-.39 1.35 0 1.55.45 1.8.96zm-.71-4.57q.13-.45 1.42-.39 1.28.13 1.22.58 0 2 .2 2.45l1.6 1.6q1.3.97 1.74.97l2.96-2.06 4.13-3.67 1.54.07q1.23.38.9.7l-5.86 4.77q-2.32 1.61-3.22 1.8-1.29.2-3.35-.96t-2.64-2.32l-.51-1.87zm30.08 66.65q1.6-6.95 3.09-6.7 1.29.2 2.64 6.38l2.12 9.92 1.68 7.73q.13.45-.71 1.67l-.9.7-1.8-8.81-1.87-10.05q-.84-4.12-1.1-4.19-.38-.13-1.16 4.38-1.29 6.57-1.93 19.52l-.7 21.12q-.27 9.98-.78 10.7-.71.96-3.41.83l-6-1.1q-.44-.13-1.22-1.74-.77-1.54-.38-1.41l5.47 1.67 3.74.52.12-10.63q-.12-12.36.46-20.1.7-9.4 1.35-13.71.32-2.58 1.29-6.7m9.46-183.73q-.51 0-1.93-1.1-1.48-1.1-.97-1.1 15.59.46 27.05 7.03 8.57 4.83 12.89 11.65.25.39-.33 1.23-.58.77-.83.38-3.93-6.18-14.37-11.59-10.94-5.73-21.5-6.5"/><path fill="#0f141b" d="M213.3 203.77q6.96 0 16.69 6.63 9.53 6.5 14.61 14.36 2 3.1.46 4l-5.29-.26q-28.72-7.35-35.74-6.19-4.9.84-12.1 6.31-8.19 6.25-14.3 14.95-10.18 14.68-9.8 30.14-1.28-.78-2.5-1.1.12-16.55 9.59-30.27 6.44-9.27 15.65-15.84 7.73-5.47 13.14-6.38 7.28-1.16 20.16 1.61 9.14 1.94 16.68 4.7l2.7.71q.65-.19-.51-1.8-5.1-7.34-14.5-13.14-9.01-5.54-14.94-5.54-3.15 0-9.66 4.25-3.8 2.39-4.96 2.13-1.15-.32 2.26-2.77l5.92-4.06q4-2.44 6.44-2.44m-34.39 107.8q-5.66-7.27-9.14-16.1l1.41.13 1.42.07q3.48 8.18 8.76 14.87 5.22 6.57 11.01 10.37 10.37 6.96 23.83 9.02 13.53 2.06 28.47-1.1.45-.06.64.78.26.9-.19.96-14.62 3.48-28.92 1.61-14.42-2-25.05-9.08-6.63-4.38-12.24-11.53"/><path fill="#0f141b" d="M164.23 273.25q-3.22-2.38-2.26-2.76.97-.4 4.51 1.93 10.57 6.82 37.8 14.49 5.42 1.48 5.87 3.22.39 1.74-4.19 4.18-8.11 4.38-21.38 4.25-12.1-.12-19.7-3.47-3.48-1.48-3.8-2.7-.33-1.17 2.7.18 7.08 3.1 20.74 3.1 14.16.06 20.73-3.48 2.39-1.23 2.06-1.87-.19-.45-2.96-1.1-9.34-1.99-19.45-5.66-13.46-4.9-20.67-10.3M192.3 89.07l1.1-1.23q1.03-.77.9-.32-1.8 6.57-1.8 11.46 0 4.7 1.68 5.41 1.22.52 4.5-1.15l3.68-2.52q.32-.32.12.84l-.51 1.42q-3.41 2.9-6.31 3.93-2.06.83-3.42-.33-1.54-1.35-1.48-6.76.07-5.21 1.55-10.75m8.11 19.06 1.55.06q1.29.39 1.03.78-2.19 2.57-4.96 4.31l-1.93.13q-1.42-.26-.97-.45 2.51-.97 4.12-2.96z"/><path fill="#0f141b" d="m239.2 73.22-.07 11.92q-.39 8.95-1.61 11.85l-10.63 10.88q-10.24 10.37-13 18.68l21.83-2.77q7.53-.84 13.71 3.41 4.32 2.9 6.51 6.83 2.96 5.4 3.8 23.12.97 20.29 2.25 25.18 5.1 19.64 19.39 32.07 5.22 4.51 10.3 6.9 4.45 2.05 6.12 1.35 1.87-.9 4.57-8.57 3.22-8.89 3.03-17.2-.13-5.8.97-5.28 1.16.52 1.22 6.57.2 10.24-3.48 18.55-2.9 6.63-5.47 7.73-2.2.96-7.34-1.16-5.67-2.32-11.47-7.15-15.39-12.82-20.35-33.04-1.54-6.5-2.12-26.02-.45-16.74-3.35-22.02-2.06-3.67-5.35-6.18-5.47-4.12-12.69-3.29l-10.1 1.48-10.83 1.68q-3.67.51-4.18.06-.65-.58.64-3.93 1.93-4.83 7.09-11l-1.55-2.71-5.47-.78-10.24-.7-3.16-.58q-.39-.46.7-2.9 5.68-12.17 16.69-21.64 9.27-7.92 20.93-12.88 2-.84 2.32-.65.32.2.38 2.2m-2.25 12.42.58-12.55q-9.98 4.25-19.9 12.75-11.98 10.24-17.26 21.57 16.16 1.03 17.97 2.32l1.87 2.19 4.63-4.96 10.5-10.82q.97-2.45 1.61-10.5"/><path fill="#0f141b" d="M226.7 77.86q-.26-.39 1.1-.96 1.28-.65 1.54-.26 1.93 3.41 1.29 7.85-.7 4.7-3.87 7.73-3.67 3.48-8.88 3.8-5.35.32-8.95-2.9-.33-.25.64-1.28 1.03-.97 1.35-.71 3.1 2.7 7.28 2.7 4.25 0 7.21-2.83 2.51-2.38 2.7-6.5.2-3.68-1.41-6.64"/><path fill="#0f141b" d="M224.7 84.04q-1.54-.25-2.64.65-1.28.96-1.22 2.83.06 1.68.9 2.45 1.03 1.03 2.51 1.03 1.42.06 2.39-.9.83-.78 1.03-2.2.19-1.6-.65-2.63-.83-1.03-2.32-1.23m-3.73 6.83q-1.35-1.29-1.29-3.35.13-2.06 1.61-3.35 1.61-1.35 3.67-1.16 1.93.2 2.96 1.48.9 1.1.84 3.03 0 2-1.29 3.16-1.48 1.48-3.35 1.48-1.86 0-3.15-1.29"/><path fill="#0f141b" d="M223.54 88.62q-.45-.45-.38-1.03 0-.65.58-1.1l.9-.26q.58.07.97.52l.32.9-.45.9q-.39.45-.97.45t-.97-.38m6.96 1.35q-1.67.2-2.51 1.35-.9 1.16-.9 2.77 0 1.74 1.1 2.7 1.34 1.16 3.21.9t2.84-1.93q.7-1.22.45-2.83-.26-1.74-1.68-2.58-1.03-.64-2.51-.38m-5.15 4.83q-.13-2.38 1.29-4.19 1.54-2 3.8-2.5 1.93-.46 3.47.38 2.06 1.03 2.52 3.41.45 2.32-.9 4.7-1.3 2.38-4.13 2.96-2.77.52-4.57-1.15-1.42-1.23-1.48-3.61m-62.92 141.1q.64 1.1.64 3.8-5.93 9.85-8.63 21.06l-.77 2.83-1.68 1.74q-2.19 2.26-3.8 4.7-1.93 3.03-1.87 4.83.13 3.03 2.58 6.83l4.57 6.05.2.52q1.03 7.15 2.96 12.17 2.77 6.96 7.99 12.24-.4 2.32-.84 1.93-5.67-5.22-8.31-10.75-2.77-5.6-4.12-14.95l-4.7-5.86q-3.74-5.28-3.42-8.24.26-3.1 4-7.66 2.19-2.58 4.76-4.96 2.77-14.43 10.44-26.28m39.93-26.34q.45-.06-.26.9l-1.23 1.16q-11.27 2.58-20.8 9.53l-2.06-2.06q9.73-6.63 24.35-9.53m-49.59 161.2q-.33 1.35.12 3.22.45 1.93 1.42 2.77 5.54 4.7 20.1 12.94l16.29 9.02q3.35 2.06 2.7 4.38-.77 2.57-6.18 2.83-13.07.58-24.28-3.09-5.73-1.87-19.45-8.7l-3.8-.25q-2.7.26-3.48 1.22-18.8 24.54-20.28 25.83l-7.09 6.05q-4.31 3.22-6.12 2.45-1.74-.78-1.35-7.4.32-6.06 1.74-10.06 1.35-4.05 9.08-18.93l7.92-15q.2-.4 1.16.51.9.84.71 1.22l-7.6 14.95q-7.73 15.26-8.63 17.96-1.35 4-2.06 8.83-.64 4.7 0 5.4.97.33 4.19-2.25 3.22-2.51 5.86-5.54l21-25.76q1.02-1.29 4.89-1.74l4.83.2q11.2 5.6 18.48 8.05 13.01 4.44 24.35 3.86 3.34-.13 4.05-.96.78-.9-1.54-2.13-6.96-3.48-15-7.99-16.17-9.01-21.9-13.9-1.36-1.17-2.07-4.06-.77-2.97-.19-5.22.58-2.19 15.84-21.64 14.88-18.8 16.1-19.7l3.74-.4q2.83.33 4.06 1.36 2.9 2.45 6.63 3.22l9.79.32 14.23-1.41 2.9.38q2.38.45 1.93.52-6.63 1.41-16.74 2.32l-12.56.38q-3.67-.77-7.6-4.12-.52-.45-2.51-.7l-2.51.06q-30.2 38-31.17 40.7"/><path fill="#0f141b" d="M102.85 174.46q.84 1.1.97 3.55-7.67 10.81-15.07 27.69-5.48 12.5-9.53 47.46-4.06 35.04-1.36 46.89 4.64 20.41 21 46.24 11.4 18.03 22.86 30.97 1.3 1.42 1.42 4.51.06 2.58-.58 3.86-1.22 2.39-2.38 2.58-1.1.2.06-1.8 1.03-1.8.9-4.06t-1.41-3.67q-13.34-15-23.19-30.33-15.9-24.8-21.19-47.85-2.9-12.76.52-45.66 3.6-34.46 10.5-49.98 8.63-19.58 16.48-30.4m63.25-28.78q3.28-1.61 3.47-2.07.4-.7-4.25-.7l-8.82.9q-6.57 1.03-10.75 2.57-15.14 5.6-25.44 13.79-.84-.2-2.52-1.16 11.47-9.28 27.18-15 3.8-1.43 10.44-2.33l9.72-.77q6.57 0 6.9 1.74.31 1.54-4.39 4.25-10.24 6.05-19.96 14.75-10.18 9.2-10.18 12.94.97 5.28 18.87 24.09 18.61 19.51 27.37 22.92 2.77 1.04 2.2 1.74-.65.71-3.68-.38-9.98-3.67-28.92-23.7-18.22-19.26-18.22-24.22 0-5.15 10.75-15 10.18-9.4 20.23-14.36"/><path fill="#0f141b" d="M117.99 195.84q-11.6 8.25-17.78 42.44-4.76 26.02-4.5 49.72.25 19.39 15.06 45.02 5.67 9.79 11.6 17.07 5.6 6.89 8.24 7.72 3.1 1.03 4.57.9 1.36-.06 3.74-1.41 2.45-1.42 2.64-.65.2.71-2.58 2.84-1.86 1.41-3.99 1.54-2.19.13-5.15-1.16-3.42-1.41-9.15-8.3-6.18-7.22-11.91-17-14.62-25.06-15.46-46.5-.9-25.12 3.74-50.62 6.11-33.68 19.45-43.22.83-.64 4.12-.9 3.6-.26 5.09.65l18.03 19.83 18.16 20.29q2.38 2.12 2.58 5.09.19 2.9-.39 3.6-.64.65-1.03-1.48l-.77-2.77q-.65-1.41-2.2-2.83l-18.15-20.03-17.78-19.45q-1.16-.7-3.28-.84z"/><path fill="#0f141b" d="M163.84 311.5q1.23-3.92 1.93-3.08.71.9-.57 5.21-4.38 14.3-29.63 46.5l-1.68-.06q-1.41-.52-1.09-.84 13.4-17.2 20.74-28.34 8.05-12.17 10.3-19.38M81.4 129.64q5.8 2.58 9.92 5.86l14.69 13.14q11.14 9.72 15.58 10.62 3.22.71 2.52 1.36-.71.7-4.32.06-4.06-.7-15.46-10.43L89.6 137.24q-3.8-3.1-8.76-5.6-5.22-2.64-6.32-1.8-1.09.83.2 5.15 1.22 4.18 3.35 7.53.9 1.55 13.59 16.42 11.98 13.98 12.75 16.36 1.42 4.64.7 5.41-.77.84-2.05-3.03-.58-1.8-2.39-4.31l-12.1-14.1-12.95-15.6q-1.93-3.21-2.96-8.36-1.03-5.41.32-6.9 1.74-1.73 8.44 1.23m72.63 167.7q.2-.45.84 1.29l.45 2.06q-6.37 11.53-14.04 30.2-7.47 18.3-9.98 28.28l-1.61-.13q-1.42-.58-1.35-1.03 5.92-23.06 25.7-60.67m-36.91 76.44q.45-.06 1.29 1.23t.38 1.35q-5.92 1.1-11.59 3.16-8.5 3.02-13.72 7.2-3.02 2.46-2.96.98.13-1.42 3.35-4.25 7.8-6.77 23.25-9.67"/><path fill="#0f141b" d="m115.67 375.14 1.87-.07q1.54.2 1.22.52-2.96 2.9-5.15 6.3-.97 1.43-4.83 8.19l-2.51 3.67q-1.23.9-6 2.25l-9.53 2.9q-7.34 2.45-11.91 4.96-7.66 4.19-30.14 37.16l-27.7 41.41q-4.12 5.6-6.43 5.28-2.07-.32-3.55-5.54-3.67-12.43-4.5-22.22-.78-9.85 1.03-19.83 1.41-7.86 8.3-23.9 6.77-15.7 10.37-20.09 9.86-10.1 15.4-16.87 9.91-12.24 14.74-27.7l.2 1.87.06 2.64q0 7.41-12.24 23.64-8.75 11.53-15.45 18.03-2.9 2.77-10.56 21Q11 436 10.24 440.5q-3.35 18.3 3.41 41.1 1.1 3.53 1.74 3.73 1.03.26 3.54-4 9.54-16.35 25.96-40.12 23.57-34.2 32.85-39.28 8.24-4.57 21.38-8.37 3.86-1.1 5.47-2.52l2.26-3.22q5.15-9.14 8.82-12.68"/><path fill="#0f141b" d="M83.4 319.1q.45-.06.71.91.26 1.03-.2 1.1-9 2.06-17.32 13.58-10.17 14.1-10.5 33.62-.06 3.74-1.02 3.22-.97-.51-1.04-4.5-.12-20.16 10.44-34.2 8.56-11.34 18.93-13.72m3.54 8.31q.84.7.52 1.03-8.37 9.53-9.79 24.34-.51 5.6.58 20.6.26 5.03-3.35 8.83-2.45 2.7-3.93 3.1-1.48.31 1.48-3.49 1.55-2 2.45-4.25.9-2.31.77-4.05-1.8-13.53-.83-21.58 1.67-14.36 11.01-24.92.32-.32 1.1.39"/><path fill="#0f141b" d="M91.13 335.02q.39-.2 1.1 1.22.7 1.42.32 1.67l-15.14 8.96q-.38.19-.64-.9-.32-1.1.06-1.36zm-35.36 78.95q7.15-5.09 8.63-4.18 1.42.83-2.44 6.37l-13.27 20.1q-14.04 21.95-18.3 30.9l-2.31.4q5.41-11.6 16.55-29.25 10.05-15.97 15.84-23.12 2.13-2.57 1.36-2.38-.52.07-3.74 2.2-8.5 5.72-20.48 18.99-12.04 13.33-20.22 26.08-1.42 2.26-2.51 3.03l-1.48.45q-1.42.13-3.61-1.61l-2.32-2.25q-.26-.39.13-2.32.45-2 .7-1.61 3.87 5.47 4.71 5.66.58.2 2.51-2.9 7.99-12.36 13.85-19.64 11.91-14.55 26.4-24.92m43.54-102.59q1.74-19.64 3.86-29.95l2.39 3.61q-2.84 14.23-4.51 30.01-.07.45-.9-1.42-.9-1.8-.84-2.25m34.01-86.17q2.9-1.67 5.21-1.87 2.38-.19-3.15 3.22-7.41 4.58-13.2 13.2l-4 1.04q6.7-10.7 15.14-15.59"/><path fill="#0f141b" d="m98.22 252.2-1.61.9.57-3.93 1.23-.58q7.08-3.41 15.71-6.9 8.7-3.53 15.33-5.72 4.96-1.61 4.64-.39-.39 1.16-5.54 3.1-15.4 5.72-30.33 13.52m10.56 34.97q2.5 3.8 1.48 3.86-1.03.06-4.12-3.8-4.96-6.31-11.2-18.16l.44-6.18q5.86 12.94 13.4 24.28m-40.77-82.63q7.02 5.99 17.52 5.15l-.58 2.45q-6.7.38-11.98-1.74-4.38-1.74-7.09-4.77-2.57-2.96-1.8-3.41.77-.39 3.93 2.32m67.04.96q.65.26 1.16 1.87.58 1.55.13 1.29-6.76-4.7-28.08-1.1l1.74-3.28 12.82-1.16q6.63.2 12.23 2.38"/><path fill="#0f141b" d="M18.23 189.85q-5.48-2.83-13.14-4.76-4.32-1.1-4.9-2.25-.83-1.49 3.16-4.06 9.2-5.8 21.83-4.25 13.85 1.74 27.76 11.27 14.17 9.66 23.5 24.02.26.39-1.09.45-1.29 0-1.54-.39-8.38-12.68-22.16-21.76-13.72-9.02-27.11-10.7Q13 176.02 5.4 180.2q-2.45 1.42-2.38 1.87.06.45 2.96 1.23 9.08 2.31 13.85 4.7 7.47 3.73 12.81 10.62 3.67 4.83 7.34 11.27 2.32 4 6.19 11.72 7.79 15.2 12.68 21.13 8.25 9.85 19.58 11.91.07 2.26-.58 2.2-12.17-2.26-20.67-11.99-5.41-6.18-13.14-21.38L38 211.5q-3.8-7.02-7.28-11.52-4.77-6.19-12.5-10.12"/><path fill="#0f141b" d="M43.99 221.73q-.45-.64-.71-3.09-.26-2.5 0-1.93 4.31 9.98 15.58 19.06 10.63 8.63 20.3 10.95.44.13.19 1.03-.33.9-.71.77-10.76-2.44-20.03-9.78-8.76-6.96-14.62-17m80.51-46.89q-2.71-3.16-5.61-4.12l-3.74.06q-1.16.77-.58 3.87.71 3.54 3.74 6.95 2.45 2.7 5.28 3.67l3.41-.13q1.16-1.48.58-4.31-.64-3.03-3.09-6m-4.64-5.79q3.55 1.16 6.32 4.38 2.9 3.42 3.35 7.54.45 3.6-1.16 5.34-1.74 1.8-5.35.71-3.48-1.03-6.31-3.93-3.74-3.99-4.25-8.43-.45-4 1.74-5.35zm20.87 212.65q1.35-2.57 1.42-5.47.13-2.96-1.35-3.73-1.68-.9-4.25.77-2.65 1.67-4.26 4.64-1.41 2.7-1.41 5.73 0 2.83 1.03 3.54l4-.2q2.7-1.35 4.82-5.27m-10.37-4.9q2.32-4.18 5.93-5.67 3.09-1.22 5.34-.06 2.13 1.1 2.52 4.7.32 3.54-1.49 6.96-2.25 4.31-5.99 5.8-3.22 1.28-5.53-.07-2.07-1.23-2.2-4.96-.19-3.67 1.42-6.7m164.88-45.66 1.48.13q1.29.45 1.03.84l-6.19 10.24q-.25.38-1.03-.26-.83-.7-.64-1.1z"/><path fill="#0f141b" d="m295.74 341.4 1.87-.14q.2.78-2.06 2.7-1.1.84-2.13.65-1.67-.32-4.25-3.09-.26-.32-.45-2.06-.13-1.74.13-1.42l3.22 3.29q.77.77 1.67.7.71 0 2-.64m5.02 35.61-.32-1.86q-.26-1.87 0-1.61l12.69 11.59-1.48 1.55zm-8.88-26.66q-.39-.13-.65-1.29-.32-1.15.07-1.09 4.12 1.03 7.02 3.54 3.73 3.1 5.15 7.54 1.35 4.25-.39 6.44-.83 1.1-2.77 1.48l-3.86-.2q-.45-.12-.2-1.22.26-1.1.65-.9l2.83.45q1.55-.06 2-.64 1.03-1.3-.32-4.77-1.48-3.67-4.64-6.31-2.64-2.13-4.9-3.03m-34.97-213.1q.4.2.2 1.74-.13 1.48-.58 1.29-10.18-4.06-19.39-5.03-5.92-.64-10.5.07-5.15.77-6.05 1.54-.96.78 2.2 1.74 6.5 2.06 13.84 5.02 11.2 4.58 17.26 8.76l-.32 1.36q-.58 1.22-.97.96-6.25-4.31-17.13-8.95-6.96-2.9-13.01-4.9-5.28-1.67-4.7-3.92.58-2.51 8.95-3.8 14.36-2.06 30.2 4.12m22.29 259.99q-.9-1.94-.2-2.45.71-.45 2.39 2 .64.96.77 2.19.13 1.15-.38 1.28-1.03.2-2.58-3.02m-43.67-122.37q1.68-3.54 2.7-3.8.97-.32-.25 2.9-1.48 3.67-3.15 11.47-.13.64-1.74 1.41-1.68.78-1.55.33 2.06-8.25 4-12.3m19.06 111.86q.32-.32.19 1.22-.13 1.48-.51 1.87l-4.38 3.35-4.96 3.48q-1.42 1.03-1.42 1.67.06.77 2 .84l7.79-.7q-.45.12-.2 1.34.26 1.16.65 1.16-5.15.52-8.89.2-3.02-.26-3.22-2.13-.13-1.74 2.51-4.06z"/></svg>