<svg xmlns="http://www.w3.org/2000/svg" width="291" height="344" viewBox="-0.25 -1.05 291.25 344.3"><path fill="#fabe00" d="m198.55 91.35 18.7 9.05-3.15 16.05-2.55-.1q-2.1-5.45-7.5-11.6-4.75-5.5-9.8-9.1-1.5-.75-5.7-1.4l-5.75-.35.85-.85q1.15-.95 2.7-1.6 5-2.05 12.2-.1"/><path fill="#094" d="M266.65 35.75q-2.35 20.2-5.05 28.5-2.75 8.5-11.2 21.65-7.45 11.55-9.75 22.4-1.25 5.8-1.25 15.4l.15 11.75-1.55-6.35q-1.3-5-2.2-10.4-1.55-9.15-.7-15.5 1.05-7.6 6.2-19.4 5.05-11.45 5.05-20.2 0-6.95-3.3-12.85-4.35-7.8-13.85-12.2-9.25-4.35-19.5-3.7-16 1-23.4 7.8-6.05 5.55-5.1 13.2-4.4-3.75-5.35-9.55-.9-5.9 2.15-11.55 7.5-13.85 30.9-15.9 13.05-1.1 24.15 2.2 10.9 3.3 17.7 10.25 5.1-14.3 17.65-24 4.25-3.25 8.3-5.2 3.5-1.65 3.8-1.15.15.25-1.45 2.1-2.3 2.8-4.05 5.65-6.4 10.65-8.35 27.05m-86.1 152.8q4.95 13.4 1.4 25.65 10.35-11 17.7-29.9 6.05-15.65 9.4-34.65l6.3 12.2q0 14.6-3.5 27.55-5.85 21.3-20.5 36.2-15.35 15.65-35.9 22.75-16.25 5.6-31.85 4.85-16.7-.8-32.85-9.05-16.3-8.35-26.85-21.65-7 8.5-19.25 6.8-11.45-1.6-21.95-11-9.1-8.15-16.3-25.1-2.45-5.8-4.1-11.15-1.35-4.6-1.15-5 .6-.95 9.75 4 10.4 5.6 16.8 12.5-6.4-14.45-3.45-37.25 1.95-14.95 6.1-25.75.25-.65.6-.7.4-.05.7.55 2.45 5.75 5.15 10.6 5.4 9.75 13.65 20.5 12.1 15.65 15.95 28.4 1.5-4.45 4.2-10.15 2.55-5.45 3-5.55.8-.15 6.3 11.25 6.05 12.55 7 19.9 1.15 9.05-3.25 14.95-4.7 6.3-13.05 4.55 6.55 6.75 15.05 11.7 11.65 6.75 25.25 8.95-7.35-2.35-13.25-9.9-4.9-6.2-6.45-12.7-1.2-5.2-.2-5.85.6-.4 4.8 2.55 4.55 3.1 6.65 5.95-3.4-7.7-2.9-22.5.5-13.25 1.65-13.6.35-.15 3 2.3 3.15 2.95 6.4 6.9 9.65 11.8 13.7 25.15.45-4.9 2.45-10.05 1.85-4.7 2.75-4.6 1.4.1 3.65 5.9 2.7 6.9 2.1 13.9-.55 6.1-3.45 10.65-2.65 4.05-6.5 5.9 16.75-1.6 31.25-9.3 7.9-4.25 16.05-11.1-16.75-.2-27.6-7.8-3.7-2.6-5.9-5.5-1.8-2.4-1.45-3.1.45-.85 7.1-.4l6.55.6q-8-7.9-12.1-24.15-1.45-5.7-1.95-10.75-.45-4.5.05-4.95.35-.3 3.5.9 3.8 1.45 8.2 4 12.9 7.4 22.8 19.35.15-5.5.9-10.65t1.4-5.25q.55-.05 2.5 3 2.3 3.6 3.95 8.15"/><path fill="#fffbc7" d="M243.05 50.75q3.3 5.9 3.3 12.85 0 8.75-5.05 20.2-5.15 11.8-6.2 19.4-.85 6.35.7 15.5.95 5.85 2.65 12.05 1.3 4.85 1.45 7.4l7.75 28q.9 2.1 2.6 8.15 2.65 9.45 4.15 19.15 4.7 30.35-3.65 51.65-8.9 22.85-36.05 33.95-18.5 7.55-38.6 7.95-17.45.4-29.85-1.6-16.6-2.65-34.7-10.5-19.2-8.35-33.3-24.2-10.2-11.5-16.55-25.45l2.8-2.45q10.75 13.9 26.25 21.8 15.3 7.8 32.8 8.6 15.6.75 31.85-4.85 20.5-7.1 35.9-22.7 14.65-14.9 20.5-36.25 3.5-12.95 3.5-27.55l-3.6-35q.3-5.95.1-9.65-.6-12.1-4.95-18.55-2.25-3.3-7.85-7.05l-13.35-6.7q-11.8-5.75-19.25-11.2-18.25-13.4-25.85-27.2-2.55-4.65-3.5-8.6-.7-3-.25-3.75l5 .85 11.6 1.8q18.1 1.7 27.05-5.7-5.3 6.15-4.9 13.35.4 6.85 5.65 11.4-.95-7.65 5.1-13.2 7.4-6.8 23.4-7.8 10.25-.65 19.5 3.7 9.5 4.4 13.85 12.2"/><path fill="#fffbc7" d="M151.9 304.7q3.55-9.2 10.85-17.8 5.3-6.15 8.7-8.3l8.65-.85-.15 3.55q-15.45 21.2-14.2 42.8.35 6.5 2.25 12.75l1.55 4.85q-.45.25-2.15-.4-2.15-.75-4.4-2.4-6.6-4.95-10.35-14.95-1 6.65-1.7 6.85-.35.1-1-1.75-.75-2.2-1.05-5.2-.9-8.95 3-19.15"/><path fill="#094" d="M209.9 186.35q-2.25-6.55-.75-7.05 1.1-.4 5.95 3l3.6 2.45 4.35 3.55q7.1 6.8 11.25 12.8 3.75 5.55 3.25 7.7l-3.55-2.2-6.45-4.4q4.75 14.9 4.25 24.7-.2 3.3-.9 5.4-.6 1.7-1 1.55l-2.35-7.9q-2.7-9.2-5.95-15.2-1 8.3-3.55 12.6-1.9 3.15-2.95 2.7l-.6-13.45q-.95-15.7-4.6-26.25m44.3 5.05-1.75-3.8.2-4.85q19.25-1.45 33.8 7.75-.15.35-3.75.05-5.5-.45-11.65.1 11.65 12 16.35 20.55 3.45 6.3 2.05 7.35-.5.4-6.85-5.85-8.85-8.65-15.3-13.75 3.35 7.85 4.05 13 .5 3.95-.3 3.75l-5.5-8.85q-6.3-10.1-11.35-15.45"/><path fill="#fffbc7" d="m198.25 280.45 2.35 2.8q-2.65 18.25 1.75 32.25 1.25 4 3.2 7.85l1.3 2.95q-.3.45-2.25-.25-2.25-.8-4.75-2.6-7.05-5.1-10.5-14.4-.3 2.45-1.1 4.45-.65 1.75-1.1 1.75-.7 0-1.4-2.95-.9-4-.5-10.35.4-6.45 1.7-11.05.45-1.8 1.8-4.95z"/><path fill="#fabe00" d="M239.5 118.75q4.75 6.8 6.2 10.65 2.95 7.95 2.95 21.35 0 20.4-7.55 34.8l-5.1-6.15q-6.75-7.55-15.95-14.1l-11.65-7.45q-7.65-5.1-13.7-11.4-7.35-7.65-15.85-19.55l-14.95-20.6q-7.45-9.6-13.6-14.15-4.95-1.85-12.25-1.05-5.8.65-10.5 2.45l3.5-3.4q4.9-3.65 11.75-4.85 8.3-1.4 19.4 2.85 11.35 4.3 23.9 13.95 15.15 11.6 28.75 27.85 17.55 20.85 23.35 39.6 1.45-7.1 1.5-24.05l-.25-21.8zm18.25-74.45q-.2-3-3.65-8.3l-3.35-4.7q5.1-14.3 17.65-24 4.25-3.25 8.3-5.2 3.5-1.65 3.8-1.15-7.05 4.7-11.3 10.45-9.3 12.55-11.45 32.9"/><path fill="#fff" d="M226.95 39q-1.1 4.15-8.4 9.55-7.4 5.5-13.45 6.4-8.65 1.25-14.65-1.4l-8.25-5.45q9.25-10.7 25.8-11.75 10.25-.65 18.95 2.65"/><path fill="#ad191f" d="M214.15 36.3q1.25 5.55-1.25 11.35-2.2 5.1-5.2 6.65-8.8 2.75-16.55-.55-4.85-2.05-8.8-6.2 8.75-10.1 25.95-11.2 2.8-.2 5.85-.05"/><path fill="#ddd9ac" d="M161.1 288.15q-50-3.95-79.5-33.4-9.2-9.15-15.3-19.8l-4.2-8.8q3.95 7.35 13.55 16.3 11.25 10.4 25.45 18.25 37.65 20.7 78.65 14.45 43.7-6.7 63.5-27.75 6.25-6.65 9.7-14.4l2.8-7.55-.6 5.35q-1.05 6.65-3.25 12.95-7.1 20.1-23.15 29.4-17.7 10.2-44.45 13.6l-16.6 1.35z"/><path fill="#ddd9ac" d="m161.45 293.75-3.7-.6q1.4-2.25 3.35-4.75 3.95-5 6.65-6.25l10 1.65-8.35 15q-3.55-3.75-7.95-5.05m38.3-8.6q-1.25 6.65-.55 14.15.3 3.75.9 6.15-3.35-4.15-9.35-6.8l-5.35-1.85.6-3.95q.85-4.25 2.1-5.7z"/><path fill="#00873c" d="M4.35 187q3.4 9.85 13.25 21.6 13.6 16.25 27.75 17.25 7.5.55 13-2.5l3.95-3.1 1.6 2.2-1.35 1.6q-1.75 1.8-4.05 3.2-7.35 4.3-17 2.05-10.3-2.4-18.2-9.65-5.3-4.85-10.75-13.45-3.45-5.45-6.15-12.9zm82 28.25-.45 2.2q-1.1 2.65-4.2 5t-7.15 2.7L71.1 225q-1.4-.95-3.3-3.2l-1.65-2.1q4.6 2.2 9.35 2.05 7.3-.2 10.85-6.5m132.85-7.95 2.2 3.1-.2 1.65-1.5 6.4q-1.05 4-2.75 6.1-.9 1.05-1.55 1.3 1.9-4.05 3-10.5.9-5.2.8-8.05m35.1-19.1q4.85 5.25 8.1 9.8 5.75 8.1 8.85 16.8l-.75.1q-1.7-3.25-4.55-7.65-5.7-8.8-11.45-14.5z"/><path fill="#d8a500" d="M127.65 93.35q1.45-1.9 4.9-3.65 4.25-2.15 7.85-1.7 3.4.45 6.05 2.1 1.3.85 1.95 1.6-6.45-1.35-10.8-.75L131 92.4zm54.8.6 1.75-1.05 4.9-.2q2.55.7 3.95 1.65l.9.85q-4.25-1.4-6.75-1.4zm3.95 40.1q10.9 10.6 20.6 17.55l17.1 12.5q7.8 5.95 12.7 11.2 2.5 2.6 3.15 2.6.9-.05 2.85-3.4 1.4-2.4 2.85-6.15l1.95-5.55-1.5 8.75q-2.1 9.6-5.25 13.65-3.7-4.1-9-9.15-10.6-10.05-18.5-14.6-8.85-5.05-16.8-12.35-6.85-6.2-11.85-12.9l-8.3-11.85-3.15-4.95q3.6 5.35 13.15 14.65"/><path fill="#d8a500" d="M240.1 138.7q1.3 7 1.45 16 .2 12.05-2.1 20.75-.35-3.25-1.35-5.9 1.35-11.85 1.35-19 0-4.45.35-8.6z"/><path fill="#00873c" d="M259 71.35q-7.6 12.2-11.1 19.2-4.3 8.6-6.25 16.8-2.7.1-6.8 1.9-.3-5.2 1.95-12.55l4.2-12.45q10.7-5.4 18-12.9"/><path fill="#ddd9ac" d="m241 84.25-4.2 12.45q-2.25 7.35-1.95 12.55-5.65 2.4-11 6.75-6.2 5.05-10 11.15l-2.5-2.35q.7-15.85-4.05-24.45-3.8-6.85-13.35-11.95 9.2 4.6 22.4 3.25 12.45-1.3 24.65-7.4"/><path fill="#0f141b" d="m198.55 44.75-.65 4.2q-.5 1.7-1.1 1.6-1.2-.15-.7-5.8.45-5.5 1.8-5.4 1.15 0 .65 5.4M143.9 39.4l3.3.55q1.45.5 1.35 1.1-.1.55-1.5.25-1.15-.25-3.25-1.6-.7-.4.1-.3"/><path fill="#0f141b" d="M179.4 30.5q.25-.25.6.55.3.8 0 1-8.3 6.75-21.45 6.5-8.2-.15-21.05-3.55 2.25 12.6 14.05 24.75 13.7 14.1 39.5 26.85 11.1 5.5 15.4 10.9 5.55 6.9 6.05 19.6l.05 9-2.3-2.1v-6.7q-.65-12.25-5.55-18.55-4.1-5.2-14.6-9.8-19.35-8.55-33.15-20.35-16.8-14.4-21.05-30.4-1.1-4.1-.3-4.95t4.8 0q11.85 2.45 18.2 2.7 13.6.5 20.8-5.45M208.55 159q-3.5 16.6-9.65 30.15-7.15 15.8-17.4 26.2-1.45 1.45-2 1-.6-.45.85-1.9 9.65-9.85 16.55-26.35 5.8-13.7 9.35-31z"/><path fill="#0f141b" d="m226.65 38.7.85.05.6.5q-2.6 5.85-10.25 11.6-9.75 7.3-19.7 6.2-5-.55-9.65-3-4.6-2.45-6.7-5.6-.15-.2.4-.85t.65-.45q1.55 2.3 5.9 4.75 5 2.8 9.4 3 8.65.4 17-4.8 7.25-4.55 11.5-11.4"/><path fill="#0f141b" d="M212.5 35.85q-.1-.25.6-.5l.85-.05q3.3 5.1 1.15 11.35-2.15 6.2-7.9 8.35-.25.1-.5-.5-.25-.55-.05-.65 4.4-2.2 6.25-7.6 1.9-5.55-.4-10.4m-18.15 27q.65-.85.95-.5.35.35-.2 1.3-2.3 4.35-11.8 6-7.9 1.35-13.9.3-1.45-.25-1.4-.8.05-.5 1.5-.4 5.65.35 13.1-1 9.25-1.65 11.75-4.9"/><path fill="#0f141b" d="M255.45 39.7q-2.65-5.4-7.5-9.65-6.9-6.05-17.05-8.75-10.2-2.75-22.05-1.7-12.4 1.05-20.8 6t-10.9 12.7q-.85 2.8-.85 5.3 0 5.8 3.9 10.15.15-5.65 3.75-9.9 3.55-4.25 10.1-6.8 6.5-2.5 15.5-3.05 10.7-.65 20.5 3.95 9.9 4.6 14.25 12.45 3.8 6.8 3.55 14.8-.25 8.2-4.85 18.6-6.65 15.25-7.15 24.7-.4 8.1 3.7 23.9.5 1.95-.55 5.75l-.7-3.5-1.15-3.65q-3.5-12.95-3.5-20 0-11.95 6.85-27.55 5.2-11.9 4.95-20.85-.2-6.2-3.2-11.5-4.15-7.5-13.3-11.8-9.1-4.35-19.35-3.7-8.65.55-14.9 2.9-6.2 2.35-9.55 6.35-4 4.75-3.3 10.85.25 1.85-1.3.7-4-3.4-5.45-8.45-1.55-5.15.1-10.3 2.65-8.25 11.65-13.9 9.15-5.8 21.9-6.9 12-1.05 22.95 2.1 10.6 3.1 17.85 9.4 10.05 8.75 9.95 22-.05 1.4-.55 1.5t-.6-1.25q-.3-5.7-2.9-10.9"/><path fill="#0f141b" d="M241.15 48.8q-6.35-5.7-12.1-8.05-10-4.05-24.1-2.3-8.55 1.05-15.55 5.05-7.4 4.15-8.2 9.05.9-6.8 6-11.05 5.5-4.6 16.2-6.4 14.15-2.35 25.85 3.2 9.45 4.5 11.9 10.5M279.9 3.1q-4 4.7-6.55 10.9-3.55 8.7-5.1 21.8-2.4 20.55-5.05 28.8-2.7 8.55-11.1 21.65-7.35 11.45-9.8 21.35-1.65 6.75-1.25 15.15.65 15.45.25 25.5-.5 11.9-2.6 22.15-.1.4-1.5-2 1.7-9.05 1.6-25.15-.4-16.35-.3-20.95.2-9.05 1.55-15.05 2.45-10.75 9.6-21.8 8.2-12.8 10.95-21.35 2.5-7.95 5.15-28.45Q267.8 20 273.5 9.4q2.85-5.25 5.35-7.5-5.95 2.15-12.95 8.4-9.95 8.85-14.4 20.85-.1.35-.8-.2t-.55-1.05q3.35-12.35 14.1-21.3 7.6-6.35 14.4-8.25 4.8-1.4 1.25 2.75"/><path fill="#0f141b" d="M278.7 1.3q.4-.3.55.4t-.4 1.1q-6.95 5.45-11.9 13.65-7.4 12.35-8.4 28.4-1.4-1.7-1.35-3 1.85-26.7 21.5-40.55m-25.35 191.8q-1.5-9.6-4.15-19l-2.45-7.65q-.15-.3.8-.75.9-.5 1.05-.2l2.6 7.9q2.85 9.75 4.5 19.6 5.3 31.4-3.1 52.95-9.9 25.3-41.75 36.55-17.7 6.25-34.6 6.65h-2.15l1.9-3q16.9-.4 33.45-6.15 30.8-10.65 40.4-35.25 8.3-21.15 3.5-51.65M138 285.8q-13.05-3.05-27.1-9.15-19.75-8.6-34.3-25.5-10.05-11.65-16.35-25.6-.15-.35.9-.7t1.2 0q6.1 13.5 15.9 24.7 14.05 16.1 33.5 24.55 14.5 6.3 27.9 9.2 11 2.4 23.2 2.8l-2.1 2.85q-11.7-.6-22.75-3.15"/><path fill="#0f141b" d="m110.85 244.6 1.25.95q.9.9.55.85Q94 244.65 78.9 233.3q-7.6-5.75-12.75-12.65-1.1-1.5-.65-1.8t1.75 1.1q6.6 7.35 12.05 11.4 14.05 10.45 31.55 13.25m50.2-9.1q-15.75 10.05-37.15 11.15-.35 0 .6-1 .9-.95 1.25-1 17.6-1.2 33.4-10.7 8.1-4.85 14.25-10.55 1.2-.85 1.5-.55.25.25-.7 1.3-7.2 7.6-13.15 11.35m-2 101.5q-4.5-4.6-6.75-11.25-.1-.35.25-1.65.35-1.35.45-1.05 3.2 8.5 8.75 13.8 3.95 3.75 6.9 4.35-2.2-4.95-3.45-10.45-1.2-5.45-1.2-10.35 0-22.45 15.55-39.8 1.05-1.15 1.45-.65.35.5-.55 1.8-20.95 28.7-10.5 58 .9 2.5.6 2.95-.45.55-3.55-.45-4.15-1.4-7.95-5.25m40.65-53.9q.1-.3.85-.2t.7.4q-2.2 15.25.5 27.5 1.5 6.7 4.9 13.25l.8 1.7q.2.55-.1.95-.35.5-1.5.5-3.8-.5-8.6-4.6-6.2-5.45-8.75-13.8-.45-1.45.05-1.55.45-.1 1.05 1.3 3.35 8 8.95 12.9 4.1 3.6 7.1 4.1-2.95-4.15-4.95-10.2-2.75-8.5-2.75-18.9 0-6.35 1.75-13.35"/><path fill="#0f141b" d="M152.5 304.95q-3.1 8.05-3.1 15.65 0 2.85.45 5.65.35 2.4.85 3.65l.9-4 .65-3.85q.2-2.1.65-2 .5.05.5 2.15 0 3.5-.75 6.65-.8 3.55-1.95 3.45-2.55-.25-3.3-9.15-.9-10 2.7-19.4 3.65-9.6 11.8-18.1 5.05-5.25 9-7.75 1.6-1 1.95-.65.3.4-1.05 1.55-4.7 4.1-8.7 8.8-7.25 8.6-10.6 17.35m34.65-18.8 1.95.65q-2.65 5.8-3.25 15.2l-.1 3.4q0 3.35.45 6 .4 2.1.9 3.05l.8-2.4.75-3.65q.05-.35.65.35l.55 1q-.4 2.85-1.3 4.75-.8 1.7-1.55 1.65t-1.65-1.9q-2.2-4.4-1.7-12.4.4-6.05 1.65-10.6.6-2.3 1.85-5.1m-6.85-51.45q.25-.45 1.8-.85l1.25-.15q-5.7 6.65-5.9 16.7-.25 10.65 6.35 16.5 9.4 8.4 23.9 4.85 14.95-3.65 24.85-17.7 1.1-1.5 1.55-1.4t.05 1.65q-1.35 4.7-1.35 8.45 0 3.7 1.3 5.4.2.25-1 .65l-1.35.05q-.8-1.4-.95-4-.1-3.4 1.15-7.45-10.2 14.65-26.3 17.05-14.45 2.2-23.6-5.95-6.6-5.85-6.8-16.45-.2-9.95 5.05-17.35m34.5-52.7-2-1.3q1.6-9.2 1.6-18.85l.8-.05.8.55q.8 11.45-1.2 19.65"/><path fill="#0f141b" d="M211.85 192.7q-5.85 19.9-19.25 33.6-17.45 17.75-41.3 24.75-15 4.4-27.9 3.75-17.9-.8-35.1-10.4-17.1-9.55-27.2-24.25-1.05-1.55-.35-1.8.65-.3 1.75 1.2 10 13.95 26.8 23 16.85 9.05 34.15 9.85 13.1.6 27-3.4 23.05-6.55 40.15-23.95 14.4-14.6 20.15-35.45zm27.95-18.55q.5 2.7-.3 2.25t-1.4-2.95q-4.8-19.55-22.8-41.55-13.85-16.9-29.85-29.2-12.35-9.45-23.4-13.75T142.7 86.1q-7.75 1.35-13.1 6.05 4.5-1.85 10.1-2.15 6.05-.3 10.7 1.45.3.1.15 1.05-.2.95-.5.85-4.75-1.75-11.9-1.25-6.1.45-10.55 2.15-2.15.85-.9-1.15l3.75-3.9q4.95-3.9 11.95-5.05 9.6-1.5 20.75 2.75 10.65 4.1 23.65 13.85 18 13.4 31.85 30.85 17.5 22.05 21.15 42.55m-51.75-81.1q-.7-.3-.7-.6t.7-.25q4.55.2 12.1 6.85 8.65 7.6 11.8 16.85l-.55.8q-.65.55-.75.3-3.8-7.9-9.5-14.15-6.25-6.9-13.1-9.8"/><path fill="#0f141b" d="M188.45 91.3q-2.6.6-4.45 1.85 3.75-.15 7.85.85 1.05.25 1.8 2.05-1.4-.65-5.45-1.25l-5.6-.4q-1.7.15-.65-1.1l3.55-2.55q4.65-2.1 11.3-.7.4.1.2.75-.25.7-.65.6-4.3-.85-7.9-.1m50.85 28.75.45-2.6q5.3 6.75 7.3 12 3.05 8.1 3.05 21.15 0 10.85-2.7 21.4-2 7.6-4.5 12.35-1.3 2.45-2.1 2.4-.6 0-2.25-2.1l-6.1-7.35q-5.8-6.05-13.5-10.75-17.2-10.5-25.5-18.55-8.05-7.75-20.25-25.45-12.4-17.9-15-20.95-9.35-11.05-18.05-12.45-1.2-.2-1.1-.7.05-.5 1.25-.5 8.85.15 18.35 10.5 3.6 4 16.5 22.15 12.2 17.35 19.15 24.3 8.45 8.5 26 19.8 7.85 5.05 14.25 11.75 4.35 4.6 6.3 7.85 2.1-3.7 4.05-11.35 2.8-10.85 2.8-22.2 0-12.5-2.7-20.3-1.6-4.55-5.7-10.4m-30.25 66.5q-2.65-7.6-.55-8.45 1.75-.75 7.7 3.45 5.6 4 11.2 9.7 6.95 7.1 9.95 13.1 2.5 5.1 1.35 5.5-1.05.35-6.05-3.15l-8.15-5.6q-1.25-.75-1.1-1.1.2-.3 1.6.25 2 .75 6 3.25 4.1 2.55 5.7 4.1-1.85-6.15-10.95-15.25-8.25-8.25-14.85-11.8-1.15-.65-1.5-.55-.5.1-.05 1.7l1.75 4.7q3.65 9.4 4.45 24.9.4 7.7.15 13.5.45 0 1.75-3 1.9-4.4 3.2-11.9.05-.3.8.35l.75.9q-1 7.95-4.25 13.15-2.15 3.4-3.1 2.7-.85-.7-.95-5.15-.2-9.35-.85-15.6-1.15-11.45-4-19.7"/><path fill="#0f141b" d="m226.45 202.1.8.1 1 .4q3.25 6.85 4.15 15.35.8 7.05-.25 11.4-1.4 5.8-2.45 5.2-.7-.4-1.7-4.6-1.2-5.15-3.2-10.5-2.8-7.45-6.2-12.25-.85-1.2-.4-1.55.4-.35 1.4.7 5.35 5.9 8.35 16.45 1.5 5.25 2.05 9.3l.5-2.25q.4-2.75.4-6.15-.1-10.5-4.45-21.6m38.4-4.55q.3-.35 1.6.4 6.15 3.55 13.8 11.2l8.6 8.45q-.05-2.45-3.35-7.85-4.9-8-15.15-18.6-1-1 .5-1.3l9.4-.5 4.15.55q-4.35-2.6-11.55-4.5-10.15-2.65-20.3-1.9-.3.05-.4-.85-.15-.85.15-.9 11.65-1.15 22 1.95 7.5 2.25 11.25 5.4 2.2 1.8 1.55 2.25l-2.95.05q-7.15-.75-11.85-.1 7.2 6.25 11.85 13 3.7 5.3 5.25 9.95 1.6 4.65.85 5.25-.7.6-3.55-1.95l-8.95-8.35q-7.1-6.6-12.05-10.45-1.15-.9-.85-1.2"/><path fill="#0f141b" d="M253.5 191.9q-.2-.25.35-.75.55-.55.8-.35 4.95 4.5 10.95 14.2l5.05 8.8q0-1.85-.9-5.25-1.1-4.4-3.3-9.55l.8-.05.95.3q3.4 6.6 3.85 13.05.3 4.25-.85 4-.95-.25-2.95-3.5-8.75-14.5-14.75-20.9m-81.45.65q.2.3-.3 1-.5.65-.75.4-8.45-10.2-19.2-17.15-7.2-4.7-13-6.6l-.85-.15q-.25.1-.25.75 0 6.75 3.05 16.95 4.05 13.7 10.95 20.55l.5.95q0 .65-1.2.5l-6.85-.65q-3.5-.2-5.05-.05-.85.05-.35.85 2.85 4.85 9 8.5 9.9 5.9 24.95 5.85.35 0 .2.85-.15.8-.5.8-14 .5-23.35-4.05-7.85-3.8-11.65-10.8-1.05-2-.8-2.8.35-.95 2.8-1.2l9.55.75q-7.4-8-10.85-20.55-2.35-8.5-2.35-16-.05-2.5.75-2.95l2.9.2q6.6 1.5 13.9 6.05 10.75 6.75 18.75 18"/><path fill="#0f141b" d="M172.3 178.15q.75-1.65 1.45-1.65.6-.05 1.95 1.35 4.85 5.2 7.35 12.55 3.85 11.4-.45 23.35-.15.4-1.95.75 1.75-5.95 1.75-11.2 0-7.7-2.75-14.95-2.25-5.85-5.1-9l-.4-.25q-.25-.05-.4.4-.7 2.9-1.15 7.5-.5 5.95-.25 12 .05 1.35-.45 1.45-.5.05-.75-1.3-.9-5.8-.5-12.1.35-6.05 1.65-8.9m-45.05 31.65q1.2-1.95 1.85-1.95.5.05 1.8 1.65 2.25 2.75 3.85 7.7 2 6.15 1.5 11.95-.65 7.6-5.3 12.8-4.25 4.7-9.4 5.25-1.15.1-1.2-.3-.05-.45 1-.75 4.95-1.45 8.35-5.55 3.9-4.75 4.5-11.7.4-4.8-.85-10.05-1.25-5.2-3.6-8.4-.3-.4-.45-.35-.2 0-.45.45-1.1 1.9-2.35 5.95-1.4 4.55-1.95 8.7-.05 1.5-.55 1.5-.55 0-.55-1.55.05-4.45 1.25-9.05 1.1-4.05 2.55-6.3m-37.6 8.75q.1-2.2 1.2-2.4.55-.1 1.9.55 1.6.75 4.95 3.4 4.35 3.5 5.65 6.05.55 1.15.2 1.4-.35.2-1.15-.85-1.65-2.15-5.2-4.95-3.1-2.4-5.35-3.65l-.55-.2q-.2.05-.2.6 0 2.75 1.35 6.5 1.85 5.2 5.7 10.05 6.05 7.75 15.05 10.1 2.05.55 1.85 1.2l-2.25.1q-10.3-1.75-16.55-9.8-4-5.05-5.6-10.75-1.15-4-1-7.35"/><path fill="#0f141b" d="M99.8 190.35q.45-1.6 1.15-1.7.5-.1 1.6.65 5.6 3.75 10.7 10.1 8.1 10 11.25 22.8l-.35 1.3q-.4 1-.5.65-3.4-11.05-11.15-21.7-5.7-7.8-10.45-11.6-.4-.35-.55-.25l-.15.45q-1.75 9.8-1.3 19.35.5 9.75 3.1 15.6-2.35-1.35-2.6-1.85-3.45-7.85-2.9-19.45.35-7.8 2.15-14.35M3.3 176.5q5.55 1.35 12.65 5.85 8.55 5.4 13 11.95.75 1.1.4 1.35-.35.3-1.25-.65-5.6-5.9-14.15-11.15-6.65-4.1-11.2-5.75l-.6-.1v.65q2.05 8.1 6.6 17.85 6.55 14.2 14.35 21.15 11.8 10.6 23.15 11.25 10.4.65 16.65-6.9.25-.25.9.25.6.55.4.85-7.5 9.05-18.9 8.3-11.7-.8-24-11.85Q13.4 212.5 6.75 198 1.6 186.8.1 178.95q-.35-1.9.3-2.45t2.9 0"/><path fill="#0f141b" d="M28.4 131.75q1.35-3.15 2.25-3.45 1.1-.3 2.5 2.75 6.55 13.9 19 29.4 6.25 7.75 9.85 15 3.1 6.25 5 13.75.1.35-.6 1-.65.65-.75.3-4.05-13.25-15.8-28.5-12.65-16.55-18.65-30-.4-.95-.7 0-2.3 6.45-4.1 15-2.5 12.05-2.5 22.6 0 14.15 4.35 23.95-1.45.1-1.65-.3-7.4-15.25-4.85-36.1 1.7-13.65 6.65-25.4"/><path fill="#0f141b" d="M67.95 182.25q1.6-4 3.5-7.1 1.2-2 1.95-2 .7-.05 1.9 1.7 3.25 4.6 7.35 13.45 4.9 10.65 5.75 17.1 1.25 9.6-3.6 15.6-5.15 6.35-14.3 4.45-.35-.05-.3-.8.05-.7.4-.65 6.25 1.25 11-3.25 5.55-5.25 4.25-15.3-.8-6.1-5.25-16.1-3.3-7.35-6.55-12.8l-.6-.7-.5.65q-2.55 4.75-6.65 15.2-.6 1.5-1 1.3-.45-.25-.1-1.85.9-4.35 2.75-8.9"/><path fill="#fff" d="M210.6 40.95q-.1.85-.75 1.6-.8.85-2.05 1t-2.1-.65q-.7-.65-.75-1.45-.1-.95.6-1.7.75-.8 2.05-.95 1.3-.2 2.25.55.85.7.75 1.6"/></svg>