<svg xmlns="http://www.w3.org/2000/svg" width="344" height="345" viewBox="-0.25 -0.1 343.8 345.25"><path fill="#0f141b" d="M127.85 126.3q-3.65.15-5.45-2.6-1.7-2.5-1.35-6.65.75-9.55 9.05-16.1l6.75 14.25q-4 7.65-9 11.1"/><path fill="#4e5144" d="M238.4 16.75q1.5 1.25.8 8.3-.85 8.2-4.5 17.55-10.35 26.55-35.25 43.65l-.2-.1q6.1 3.65 11.65 8.55-13.05-5.25-27.2 3.55-15.25 9.45-22.5 30.4-2.35-3.1-5.25-5.1-3.2-2.1-6.65-2.55-4.2-.45-8.9 1.95 3.9-14.65 2.2-27.1-1.8-13.05-8.9-14.3l6.6-2.35q-11.15-23.4-5.9-52.35 1.95-10.8 5.55-18.45 3.35-7.15 5.8-7.05 2 .1 5.25 7 3.55 7.45 5.85 17.7 6.25 27.65-1.5 50.1 15.3-1.45 29.6 3.35v.25q6.95-31.95 29.5-51.15 7.9-6.75 15.7-10.15 6.7-2.95 8.25-1.7"/><path fill="#fff" d="M1.2 224.05q1.85 1.7 8.75 4.2 7.6 2.75 10.7 2.1-1.3 4.2-4.05 7.5-3.15 3.7-5.5 2.4-1.25 2.25-2.4 2.1-3.05-.35-5.45-6.75-2.35-6.1-2.05-11.55"/><path fill="#f08300" d="M183.7 98.25q14.15-8.8 27.2-3.55 14.5 12.65 24.55 32.9-7.25 6.4-14.6 21.45-7.15 14.5-7.65 22.9-9.35-1.35-15.35 8-5.85 9.1-4.15 21.1-2.15-2.15-5-2.25-7.1-.2-12.85 10.05-5.2 9.3-6.65 21.85-9.25 8.45-13.75 13.45 3.5-5.4 6.5-17.8 3.3-13.4 1.4-18.55-8.4.75-20.7 12.9-12.15 12-15.6 22.75-.95-8.8-7.35-21.4-7.75-15.3-17.25-20.4-1.8 3.25-2.1 15.8-.25 12.15 1.15 19.5-8.7-13.05-14.2-25.65-1.65-12.65-6.45-19.1-3.9-15.95-2.9-32.5 1.05-17.05 7.4-35.65 20.9-31.35 48.35-42.5 7.1 1.25 8.9 14.3 1.7 12.45-2.2 27.1-4.5 2.25-7.5 6.05-3.25 4.1-3.35 8.35-.1 3.65 5.3 6.7 4.85 2.75 12.05 4.05l12.45.4q5.85-1 6.5-4.3.65-3.35-.6-7.6-1.3-4.25-4.05-7.95 7.25-20.95 22.5-30.4"/><path fill="#fffcd1" d="M177.85 134.4q-2.7-4.85-3.05-11.15.45 5.95 3.1 10.8 2.6 4.85 6.05 6.2-3.55-1.25-6.1-5.85"/><path fill="#fff" d="m191.05 111 7.3-3.75q1.45 4.85 1.25 12.1-.4 9.7-4.4 15.8-3.8 5.85-8.85 5.6-2.35-.1-4.55-1.8-2.1-1.65-3.7-4.5 2.8 1.9 5.7.9 2.8-.95 4.85-4.3 4.7-7.75 2.4-20.05"/><path fill="#0f141b" d="M191.05 111q1.3 11.9-3 19.6-4.25 7.7-9.95 3.85-1.75-3.1-2.65-6.95-.9-4.1-.65-8.35z"/><path fill="#fff" d="M122.4 123.7q1.8 2.75 5.45 2.6-3 2-5.75 2.1-2.7.15-4.75-1.65-5.9-5.25-2.5-15.9 3.3-10.3 12.05-16.9l3.2 7q-8.3 6.55-9.05 16.1-.35 4.15 1.35 6.65m130.85-41.45q2.9.3 5.55 1.5 2.25.95 2.85 1.8l-5.35.35q-1.35.35-3.65 1.7l-5.95-.4-6.4.35q4.7-6.25 12.95-5.3"/><path fill="#fff" d="m243.95 87.05 8.7.55q-4.3 2.6-7.75 8.55-1.2 2.1-3.8 8-1.9-4.15-3.2-9.65-1.15-4.85-.85-5.9.45-1.55 6.9-1.55"/><path fill="#f08300" d="M175.5 294.7q.85-7 7.65-15 6.45-7.5 15.9-13.45 9.65-6.05 18.65-8.1 9.85-2.2 15.95 1.2 5.4 3 7.75 12.7 2.15 8.7 1.5 20.95-.65 11.55-3.5 22.3-2.9 11.05-7.05 16.85-4.4-2-13 1.75-8.25 3.65-7.6 5.65-12.65-3.55-24.4-20.3-9.8-14-11.85-24.55"/><path fill="#595857" d="M267.65 278.4q-.4-2.65.05-7.45-2.35 1.6-5.25 3.2 2.3 2.3 5.2 4.25m7.1-46.65q-2.45-1.9-6.7.2-4.2 2.1-7.8 6.9-3.95 5.2-5.4 11.3-1.6 7 .65 13.45 13.6-5.6 19.3-17.2 2.3-4.7 2.25-8.8 0-4.05-2.3-5.85m53.4 25.25q5.95.6 9.75 4.95 3.55 4 4.05 9.8.5 5.85-2.4 10.95-3.2 5.65-9.65 8.55 2 3.3 1.35 7.1-.65 3.5-3.25 6.15-2.65 2.7-6.25 3.25-3.95.65-7.7-1.55 1.6 4.6-2.15 9.25-4.3 5.25-12.55 5.25-9.45 0-14.55-5.65-4.25-4.75-4.55-12.05-3.35 3.45-7.85 3.4-4.05 0-7.5-2.7-3.45-2.75-4.4-6.75-1-4.35 1.6-8.45-7.4-4.25-12.15-9.85l-7.7.9q-.85-7.3-2.85-12.4l4.15-.4q-1.8-6.35-.75-13.55 2.7-6.5 4.65-13.5 6.75-12.4 18.6-17.9 11.7-5.4 19.05.1 3.6 2.65 4.65 7.6 1.05 4.7-.3 10.7 2.1 1.05 4.2 3.05 2.25 2.1 2.7 3.7 4.1-6.9 10.4-9.75 5.8-2.65 11.4-1.05 5.65 1.6 8.45 6.85 3.1 5.75 1.55 14"/><path fill="#fdd000" d="M213.2 171.95q5.9.85 9 7.55 3 6.6 1.95 15.65-.75 6.55-4.65 11.6-3.6 4.6-8.25 6.15.5 4.8.15 9.1-.4 5.45-2.15 11.35-2.7 9.4-8.25 16.75-7.15 9.5-15.85 9.95-8.35.4-13-10.2-4.1-9.3-2.95-19.15 1.45-12.55 6.65-21.85 5.75-10.25 12.85-10.05 2.85.1 5 2.25-1.7-12 4.15-21.1 6-9.35 15.35-8M55.9 193.1q-3.7-10.3 1.25-21 4.8-10.2 11.7-10.2 2.8 0 4.65 3.35 1.65 3 2.1 7.9.6 6.95-2.75 14.4Q79.6 187.6 84 199q3.7 9.55 4 21 .35 13.15-3.2 22.2-3.55 9.1-9.5 10.2-7.35 1.35-13.95-8.9-6.85-10.75-7.95-26.9-.9-13.25 2.5-23.5"/><path fill="#f08300" d="M27.8 194.1q-3.55-18.05.85-34.65 20.45-20.9 53.65-30.55-10 16.2-14.9 33.2-6.25 1.5-10.4 11.4-4.4 10.5-1.1 19.6-2.5 7.55-2.65 16.8l-12.8 8.6q-9.05-6.25-12.65-24.4m33.6 49.65 2.7 3.45q12.15 34.95 55.6 51.05-1.65 5.75-2.5 7.8-2.15 5.45-4.8 7.2l-7.05 4.5q-4.25 2.4-7.5 3-1.65-4.15-7.95-7.25-5.6-2.8-10-2.7-16.55-11.95-22.2-27.3-6.9-18.65 3.7-39.75"/><path fill="#fdd000" d="M28.65 159.45q-4.4 16.6-.85 34.65 3.6 18.15 12.65 24.4l-6.15 3.95Q23.45 216.8 19 201.2q-4.3-15.3.15-30.4 4.05-5.75 9.5-11.35"/><path fill="#fff" d="M70.7 320.25q-.3-2.3 2.4-4.95 2.5-2.45 6.6-4.4 2.45-1.15 9.8 2.95 7.2 4 8.35 6.9-26.75 2.6-27.15-.5m161.1 11.7q2.05.6 4.55 5 2.6 4.55.25 5.35-3.8 1.25-12.4.15-7.65-1-12.3-2.7-2.6-.95 6.6-5 9.2-4 13.3-2.8"/><path fill="#fdd000" d="M242.1 120.3q-1.2-6.35-1.5-8.85 28.25 17.25 44.85 20.45 13.25 2.55 14.4-3.8.85 5.25.65 10.35l-.15 2q-2.8 2.65-10.55 2.05-7.2-.55-16.55-3.7-21.35-7.3-31.15-18.5"/><path fill="#4e5144" d="M75.6 173.15q-.55-5.9-3.35-9-2.35-2.6-4.85-2.05 2.45-8.4 9.05-21.85 5.45-11 8.9-16.2-6.35 18.6-7.4 35.65-1 16.55 2.9 32.5-3.45-4.6-8-4.65 3.35-7.45 2.75-14.4m159.85-45.55 2.15 4.65-5.6 8.3q-1.55 2.45-2.85 12.4-1.4 10.15-1.55 21-.45 28.6 7.2 29.2 2.25.2 6.85-1.6 4.65-1.85 10.5-5.25.75 22.85-3.15 39.35-3.3 14-11.3 27.95-1.85-3-4.05-4.25-6.1-3.4-15.95-1.2-9 2.05-18.65 8.1-9.45 5.95-15.9 13.45-6.8 8-7.65 15 .7 3.85 3.05 9.45-8.45 1.45-17.35 1.45-25.5 0-44.65-7.6-19.35-7.7-35.3-24.4-12.6-13.15-17.15-26.4 2.75 3.05 5.7 4.4 2.9 1.3 5.5.8 5.95-1.1 9.5-10.2 3.55-9.05 3.2-22.2-.15-4.9-.7-8.7 5.5 12.6 14.2 25.65-1.4-7.35-1.15-19.5.3-12.55 2.1-15.8 9.5 5.1 17.25 20.4 6.4 12.6 7.35 21.4 3.45-10.75 15.6-22.75 12.3-12.15 20.7-12.9 1.9 5.15-1.4 18.55-3 12.4-6.5 17.8 4.5-5 13.75-13.45l-.15 1.3q-.95 9.7 3.25 18.5 4.7 9.95 12.85 9.55 8.7-.45 15.85-9.95 5.55-7.35 8.25-16.75 1.75-5.9 2.15-11.35.35-4.3-.15-9.1 4.65-1.55 8.25-6.15 3.9-5.05 4.65-11.6 1.05-9-1.95-15.6-2.95-6.5-8.4-7.5-1.4-.25 0-5.65 1.4-5.3 4.65-12.6 8.2-18.4 17-26.2M19 201.2q4.45 15.6 15.3 21.25-9.8 6.25-13 7.7-3.55 1.65-12.2-1.7-8.25-3.2-8.2-4.75.45-12.25 4.2-24.55 4.75-15.45 14.05-28.35-4.45 15.1-.15 30.4M247.95 92.3q6.6-8.1 14.85-6.2 10.65 2.4 20.75 11.8 13.25 12.25 16.3 30.2-1.15 6.35-14.4 3.8-16.6-3.2-44.85-20.45-.6-5.05.15-6.5 4.85-9.7 7.2-12.65"/><path fill="#f08300" d="m232 140.55 5.75-9.2q2.8-4.15 5.05-5.75.25-.15-.7-5.3 3.65 4.15 11.95 9.1 8.15 4.8 17.4 8.4 22.5 8.7 28.9 2.65-2.3 21.5-30.45 43.85-10.55 8.4-21.25 13.95-10 5.2-13.85 4.9-7.65-.6-7.2-29.2.15-10.85 1.55-21 1.3-9.95 2.85-12.4"/><path fill="#d93339" d="M149.3 121q7.05.85 12.55 8.7 5.35 7.7 4 14.5-.65 3.3-6.5 4.3l-12.45-.4q-7.2-1.3-12.05-4.05-5.4-3.05-5.3-6.7.15-6.95 7.7-12.2 6.7-4.75 12.05-4.15"/><path fill="#fff" d="m108.5 139.3-5.85-7.35q1.05-1.2 3.9-3.2 2.8-2 3.25-1.85t-.15 5.6-1.15 6.8m95.6.7q2.5 3.2 2.65 4l-7.15 5.2q-.4-2.75.3-7.55.65-4.6 1.25-4.8.45-.15 2.95 3.15"/><path fill="#3f3b3a" d="M254.3 253.75q-.4 5.5.65 9.5-5.55 2.8-11.45 3.35-1.4-5-1-10.3 5.55-.2 11.8-2.55m76.7 40.1q1.9 6.75-3.95 11.55-6.05 4.9-13 .8 1.6 4.6-2.15 9.25-4.3 5.25-12.55 5.25-9.45 0-14.55-5.65-4.25-4.75-4.55-12.05-3.35 3.45-7.85 3.4-4.05 0-7.5-2.7-3.45-2.75-4.4-6.75-1-4.35 1.6-8.45-7.3-4.25-12.05-9.75 7.65-1.6 12.85-4.15l4.75 3.8q-.25-1.6-.15-5 6 9.55 31.6 16.2 9.8 2.55 19.3 3.75z"/><path fill="#dbb400" d="M174 252.9q5.05 3.45 14.4 1.45 7.65-1.65 13.45-5.35-3.3 5.5-6.95 8-3.9 2.7-9.75 3.05-4 .2-6.6-1.55-2.45-1.65-4.55-5.6m-98.7-.5q-3.85.7-7.85-2.2t-7.25-8.65q5.15 4.2 10.45 6.1 6.15 2.2 11.45.8l-3.3 2.35q-2.3 1.4-3.5 1.6"/><path fill="#d07100" d="M79.9 310.8q-8-5.8-13.75-12.75 17.1-1.95 29.6-11.65 10.05 6.6 23.95 11.85-1.65 5.75-2.5 7.8-2.15 5.45-4.8 7.2l-7.05 4.5q-4.25 2.4-7.5 3-1.65-4.15-7.95-7.25-5.6-2.8-10-2.7"/><path fill="#dcdddd" d="M70.7 320.25q-.15-1.25.65-2.65 10.65-.15 19.5-2.95 6.05 3.7 7 6.1-26.75 2.6-27.15-.5"/><path fill="#3c3f34" d="M81.55 248.15q11.75 10.15 44.25 10.9 29.1.65 48.25-5.5 2 3.85 4.5 5.3 2.4 1.4 6.6 1.2 5.85-.35 9.75-3.05 3.65-2.5 6.95-8 10.95-1.9 23.15-6.2 13.6-4.75 24.15-11-1.5 10.7-4.15 17.5-1.9 4.85-7.3 14.3-1.85-3-4.05-4.25-6.1-3.4-15.95-1.2-9 2.05-18.65 8.1-9.45 5.95-15.9 13.45-6.8 8-7.65 15 .7 3.85 3.05 9.45-8.45 1.45-17.35 1.45-25.5 0-44.65-7.6-19.35-7.7-35.3-24.4-12.6-13.15-17.15-26.4 2.75 3.05 5.7 4.4 2.9 1.3 5.5.8 2.05-.35 6.25-4.25"/><path fill="#fff" d="m108.5 139.3-5.85-7.35q1.05-1.2 3.9-3.2 2.8-2 3.25-1.85t-.15 5.6-1.15 6.8"/><path fill="#3c3f34" d="M149.4 5.3q9.15 16.5 10.05 37.95.8 17.75-3.9 33.2l-3.35-.15q3.65-12.4 2.3-33.75-1.1-16.85-5.1-37.25m89.8 15.5q-2.7 27.85-17.15 46.2-8.65 11-22.45 19 8.7-5.25 23.1-29.7 14.05-23.85 16.5-35.5"/><path fill="#d07100" d="M183.7 277.8q.35 18.55 9 37.7 8.05 17.8 17.25 24.05-10.6-3.55-21.95-18.1-11.25-14.4-13.55-26.9 1.45-5.3 3.95-9.8 2.4-4.25 5.3-6.95m112.85-124.85q-5.95 16.15-30.9 34.4-8.4 6.1-17.45 11.35-7.1 4.15-9.25 4.85l-4.5-.15q-1.25-.6-2.9-2.45 9.35-1.8 32.5-18.6 23.8-17.3 32.5-29.4"/><path fill="#0f141b" d="M127.85 126.3q-3.65.15-5.45-2.6-1.7-2.5-1.35-6.65.75-9.55 9.05-16.1l6.75 14.25q-4 7.65-9 11.1m63.2-15.3q1.3 11.9-3 19.6-4.25 7.7-9.95 3.85-1.75-3.1-2.65-6.95-.9-4.1-.65-8.35zm-51.4-32.2q3.2-.95 4.7-.7 1.5.2-1.45 1.15-19.95 6.3-34.6 19.35-12.15 10.85-23 28.15-11 17.5-16.6 35.1-1.1.55-2.25.3l-.9-.35q11.25-33.05 30.35-54.45t43.75-28.55"/><path fill="#0f141b" d="M141.55 3.75q2.4-3.6 3.85-3.75 1.6-.1 4 3.4 7.05 10.5 10.4 30.4 4.1 24.45-3.15 41.85-.15.4-1.25.3-1.05-.1-.95-.5 6.5-18.4 2.55-42.75-3.15-19.4-9.1-28.3-1.4-2.05-2.3-2.05-.95.05-2.55 2.4-2.6 4-4.95 11.65-2.65 8.7-3.7 18.3-2.7 25.25 6.6 44.05.15.35-.95.8l-1.3.15q-10.35-20.15-6.9-45.75 2.55-19.3 9.7-30.2M62.5 246.55q1.5.7 3 1.35 13.3 32.1 48.8 47.3 15.45 6.6 32.6 8.6 16.6 1.95 31.7-.7l.25 1.3.1 1.35q-16.2 2.95-33.55.9-18-2.1-33.9-9.2-36.5-16.25-49-50.9m188.75-49.95 2.3-1.1q.9 20-2.3 37.25-3.55 18.9-11.85 33.15l-2-3.55q7.7-13.65 11.2-31.1 3.3-16.35 2.65-34.65"/><path fill="#0f141b" d="M238.4 23.1q.25-4.55-.95-5.35-1.25-.8-6 1.15-10 4.05-20.2 13.8-18.7 17.95-25.15 46-.45 2-2.4 1.35-15.45-4.9-31.4-2.6-2 .25-1.2-.7.8-1 2.9-1.3l15.9-.5q7.9.8 14.45 3.35Q188.8 53 206.1 34.75q12.75-13.45 26.25-18.15 5.1-1.75 6.65-.5 1.5 1.25 1.25 6.65-.6 14.55-8.8 30.85-10.95 21.75-30.4 32.65 11.75 7.35 21.2 18.45 9.9 11.55 16.55 26.25l-1.6 2.6q-6.8-15.45-16.35-27.2-9.6-11.75-21.3-18.95-.7-.45-.75-1.1t.65-1.15Q219 71.55 229.6 51.6q8.1-15.25 8.8-28.5M82.45 127.15q.35-.1.45 1.2t-.2 1.4Q36.75 143.4 16.15 176.4 2.8 197.75 1.8 223.45q1.6 1.5 8.9 4.1 7.95 2.8 10.2 1.8 4.05-1.85 16.75-10.15 11.25-7.3 14.55-9.85.3-.2.7 1.2.35 1.4.05 1.65-2.55 1.95-14.55 9.25-12.75 7.65-17.25 9.7-3.05 1.4-10.4-1.3-5.7-2.1-9.55-4.6-1.2-.8-1.2-1.6 2.6-72.75 82.45-96.5M60.2 243q.15-.35 1.35.25 1.15.55 1 .9-8.45 17.65-6.4 30.95 2.75 18.05 24.1 35 .3.25-.25.95-.6.7-.9.45-21.15-16.6-25.35-32.45Q49.7 263.7 60.2 243"/><path fill="#0f141b" d="M80.15 311.7q-3.9 1.85-6.2 4.05-2.35 2.2-2.35 4.05v.05q1.45.8 10.05.85l14.45-.6q-.75-2.5-6.25-5.55-5.7-3.05-9.7-2.85m-11.05 9.2q-.35-2.8 3.15-6.1 2.95-2.75 7.25-4.8 2.55-1.2 10.1 2.1 8 3.45 8.95 7.45 2.7-.55 8.3-3.85l5.05-3.2q2.1-1.45 3.85-6 1-2.7 2.1-7.2l2.85.4q-2.85 11.35-6.9 14.05l-6.3 3.8q-6.95 3.8-10.5 4.25l-13.85 1q-13.75.5-14.05-1.9m104.35-26.4q1-8.15 8.2-16.6 6.7-7.85 16.75-13.75t19.65-7.65q10.3-1.9 16.8 1.7 4.75 2.65 7.5 11.85 2.55 8.7 2.5 20.45-.05 12-2.85 22.75-3.05 11.8-8.6 18.85l-1.25-.2q-1.05-.45-.85-.75 4.9-6.2 7.65-17.55 2.55-10.3 2.7-22.1.15-11.55-2-20.05-2.3-9.05-6.45-11.35-5.6-3.1-15.1-.95-8.8 1.95-18.25 7.7T184 279.8q-6.85 7.85-7.75 14.9 2.3 11.2 11.75 24.85 11.45 16.5 23.75 19.2.35.1.15.95-.15.9-.5.8-13.85-3-27.05-22.05-5.05-7.25-8.25-14.45-2.95-6.75-2.65-9.5"/><path fill="#0f141b" d="M220.7 334.7q-6.3 2.6-7.85 4.55 3.65 2.1 11.75 2.8 7.9.65 11.75-.6.4-.15.3-1 0-1.95-1.65-4.5-1.7-2.65-3.45-3.15-3.65-1.05-10.85 1.9m-9.3 5.8-1.05-.3q-.95-.6-.4-1.75 1.15-2.45 9.15-5.35 8.5-3.1 12.85-1.85 2.45.75 4.85 4.2 2.25 3.25 2.3 5.6 0 2.2-1.6 2.7-4.25 1.4-13.25.35-9.15-1.1-12.85-3.6M13.1 232.7q.65-1.9 1.1-.8.5 1.15-.1 2.95-1.9 5.85-2.7 7.35-1.2 2.25-3 2-3.6-.45-6.3-8.7-2.35-7.15-2.05-11.75.05-.35.85-.25t.8.45q-.05 4 2.15 10.25 2.45 6.95 4.95 7.25 1.35.15 4.3-8.75"/><path fill="#0f141b" d="M19.35 230.3q.1-.35 1.2-.45 1.05-.05.9.3-1.7 5.1-5 8.55-3.5 3.65-5.6 1.9-.25-.25.35-.95t.8-.4q.95 1.2 3.45-1.85t3.9-7.1m9.1-72.05q.1-.35 1.15-.55l.95.1q-5.05 16.35-1.95 35.5 3.15 19.25 11.85 24.4.4.25-.05 1.05-.5.75-.9.5-8.55-5.05-12.5-21.85-4.45-18.95 1.45-39.15"/><path fill="#0f141b" d="M18.75 170.05q.15-.4 1.25-.9 1.05-.55.95-.2-5.1 14.5-1.45 30.4 3.85 17.05 15.35 22.3.35.15-.05 1-.35.8-.7.65-10.8-4.95-15.9-19.2-5.75-16.1.55-34.05M156.8 244.2q-1.7 1.85-2.15.95-.45-.85.75-3.55 3.4-7.45 5.8-17.65 2.55-10.8 1.5-15.1-7.7 1.25-19.1 12.4-11.3 11.05-14.95 20.8-.95 2.55-1.7 2.5-.75 0-1.15-2.1-1.75-9.6-7.5-20.8Q111.25 208 102.85 203q-1.15 3.4-1.35 14.45-.15 10.45.6 16.75.35 2.85-.2 3.6-.7.8-2.3-1.65-7.25-11.05-12.2-21.8v-5.65q5.1 12.85 12.85 25-1.5-8.85-1.3-18.75.25-10.45 2.3-14.1.4-.75 1.2-.4 9.35 4.35 16.9 17.95 6.45 11.7 7.95 22.3 4.55-12.3 16.3-22.95 11.2-10.1 19.7-10.85.75-.1.9.6 1.5 4.05-.2 13.75-1.65 9.6-5.4 18.5l6-6.35q3.4-3.55 4.35-4.35.25-.25.3 1.2 0 1.45-.3 1.7l-5.25 5.1zm-77.4-53q-3.6-15.45-2.5-31.5 1.1-15.85 6.85-33.3.25-.75 1.7-2.15 1.4-1.4 1.3-1.05-13.4 35.45-3.95 71.45-1.25-1.85-3.4-3.45m155.8-64.4q.3-.2.85.5t.25.9q-7.05 5.3-15.05 21.85-7.35 15.1-7.95 22.3l-.8-.15q-.75-.55-.75-.95 0-7.75 7.35-22.5 7.85-15.75 16.1-21.95"/><path fill="#0f141b" d="M211.9 190.6q3-1.75 4.65 2.4.65 1.65.15 1.9-.55.25-1.35-1.35-1.3-2.65-3-1.15-1.75 1.55-1.7 5.8t1.75 15.15q1.1 11.1-1.75 21.15-2.7 9.55-8.35 16.65-7.4 9.3-17.1 9.8-8.1.4-13.5-8.85-5.3-9.1-4.2-20.45 1.25-13.3 7.2-23.3 6.25-10.65 14.05-10.45 5.45.1 8.55 6.75 3.35 7.2 1.75 18.3-1 6.8-3.55 11.95-2.4 4.85-5.35 6.6-2.3 1.35-4.75.4-2.5-1-3.75-3.85-2.5-5.7 2.15-16.55.8-1.85 1.65-2.05t.05 1.65q-1.95 4.65-2.4 9.05t.8 7.2q.9 2.05 2.7 2.6 1.65.45 3.2-.45 2.45-1.45 4.3-5.85t2.8-10.9q1.4-9.7-1.25-16.5-2.5-6.45-6.95-6.55-6.85-.15-12.4 10.2-5.1 9.6-6.35 22.2-.9 9.3 3.3 17.95 4.6 9.45 11.85 9.05 8.4-.4 15.4-9.95 5.3-7.15 7.9-16.05 2.85-9.75 2-20.05-1.55-10.3-1.55-14.85 0-5.85 3.05-7.6"/><path fill="#0f141b" d="M213.95 171.15q5.95 1.1 9.3 8.1 3.4 7.05 2.3 16.4-.8 6.85-4.4 11.65t-9 6.25q-.35.1-.75-.95-.4-1-.05-1.1 4.25-1.15 7.4-4.95 3.7-4.55 4.5-11.5 1-8.5-1.75-14.85-2.75-6.3-7.85-7.3-9.35-1.7-15.35 8.45-5.6 9.5-3.55 19.9.1.4-.95-.2-1-.6-1.05-.95-1.8-12.05 4.25-21.2 6.35-9.7 16.95-7.75"/><path fill="#0f141b" d="M262.6 86.95q-7.85-1.75-13.85 5.3-3.25 3.8-6.45 11.35l-.75 1.75q-1 2.05 1.4 14.5l.85 5.05q.05 1.1-.45 1.45-.95.65-4.8 6.1-3.5 4.9-5.75 8.55-2.9 4.6-4.1 26.35-1.3 23.6 2.9 32 1.4 2.75 3.25 2.9 4.2.35 15.4-5.9 12.55-7 24.15-17.3 11.8-10.45 18.3-20.95 6.55-10.5 6.9-19.65.75-19-12.15-34.65-11.3-13.7-24.85-16.85m-17 6.5Q253.65 82.6 264 85q15.1 3.45 26.2 18.1 12 15.8 11.2 35.4-.95 23.15-29.6 46.6-10.75 8.75-22.05 14.7-10.4 5.45-14.9 5.35-9.4-.2-8.45-30.75.35-11.15 2.05-22.3 1.55-10.4 2.95-12.95 1.6-2.9 5.3-7.7 3.55-4.7 5.3-6.3l-1.6-7.8q-1.5-7.9-1.15-10.8.15-1.4 1.7-4.9 1.95-4.55 4.65-8.2M134.95 81q6.65 1.5 8.55 14.55 1.95 12.95-2.3 26.85l-1.35.85-1.15.15q4.65-12 2.5-26.5-2.15-14.8-9.25-14.2-.45.05 1.05-.9 1.5-.9 1.95-.8m74.95 12.8q.45.2 1.5 1.7 1 1.45.65 1.25-5.8-3.15-13-2.45-7.15.65-14.15 4.9-15.85 9.5-22.55 30.15l-.8-.45-.65-1.05q7.2-21.2 22.1-30.7 13.95-8.95 26.9-3.35m-3.35 50.3q2.2-1.55 2.7-.95.5.65-1.65 2.25-12.35 9.4-28.4 12.75-14.8 3.15-30.45.75-15.05-2.3-27.5-9.15-12.6-6.9-19.45-16.8-1.95-2.75-1.25-3.5.7-.7 2.6 2.1 6.3 9.15 18.35 15.75 12 6.6 26.6 9 15.3 2.5 29.95-.25Q194 153 206.55 144.1"/><path fill="#0f141b" d="m245.05 86 8.85.4q.4.1-.35 1.1-.8.95-1.15.8l-8-.4q-5.45.35-6.45 1.1-.2.4.7 5.15 1.1 5.75 2.9 9.2-1.9 2.4-2.15 1.95-2.3-4.45-3.25-10.05-.85-5.3.05-6.9 1.2-2 8.85-2.35"/><path fill="#0f141b" d="M252.05 81.6q8.8-.05 14.45 4.65l-2.05.05-3-.5q-5.7-2.6-11.05-2.4-5.95.2-8.95 3.95l-1.25.1q-1.05-.2-.85-.5 3.65-5.35 12.7-5.35m-11.75 30.75q-.35-.2.15-.95.45-.8.75-.6 22.55 13.85 38.05 18.5 13.05 3.9 17.95.6 2.1-1.4 1.7-3.7 1.8 2.2 1.2 3.2l-.75 1.8-1.05 1.6q-4.1 2.7-14.45.15-16.5-3.95-43.55-20.6"/><path fill="#0f141b" d="M241.65 120.9q-.55-.7.15-1.25.7-.6 1.25.1 5.85 7.45 21.65 14.15 14.5 6.2 25.8 7.2 4.85.45 7.2-.5 1.8-.7 1.9-2.15 0-.5.75.6.65 1.05.3 1.5-1.6 2.05-3.85 2.85-2.35.85-6 .5-11.6-1.05-27.05-8.05-16.15-7.35-22.1-14.95m-111.2 16.45q-.1 3.55 6.25 6.65 5.8 2.8 13.55 3.7l10.2-.3q4.05-1.05 4.5-3.35 1.3-6.4-3.65-13.7-5.1-7.6-12.1-8.45-5.85-.7-12.15 4.3-6.45 5.15-6.6 11.15M163 129.7q5.4 8.25 4 15.2-.7 3.65-6.9 4.75l-13.15-.4q-7.6-1.45-12.7-4.5-5.7-3.4-5.6-7.45.15-7.55 8.05-13 7-4.85 12.7-4.2 7.9.95 13.6 9.6m104.9 140.65q.9.2.8.55l-.3 3.35q-.1 2.35.15 4.05.2 1.5-2.2.15-2.35-1.35-5.25-4.35l1.85-.85 3.65 3.25.1-2.75.2-3.2q.1-.35 1-.2m1.2-37.9q-6.8 2.9-11.05 11.8-4.55 9.5-1.9 18.2 9.15-4.05 14.9-11.65 5.15-6.9 5.15-13.15 0-3.6-1.9-5.05zm-12.6 10.4q4.65-9.4 12-12.5 2.2-.9 4.25-1 2.25-.1 3.45.85 4.25 3.3 1.9 11.9-2.45 8.95-10.15 15.55-10.5 9.2-27.65 10.3-.35.05-1.05-.85-.75-.85-.35-.85 8.45-.3 15.55-3.1-3.1-9.9 2.05-20.3"/><path fill="#0f141b" d="M243.6 254.1q-.35 2.05-.05 6.2.25 4.15.85 6.25h-1.9q-1-3.95-1-8.05l.8-2.05z"/><path fill="#0f141b" d="M337.75 260.5q3.85 4.05 4.85 9.95.95 5.7-1.65 11.3-3.1 6.45-9.95 9.85 1.5 3.15 1.1 6.9-.45 4.25-3.25 7.05-2.65 2.7-6.45 3.2-3.55.5-7.2-1.1.6 4.9-3 9.3-4.45 5.5-13.05 5.5-9.15 0-14.45-5.65-4.4-4.7-5.2-12-3.6 2.8-8.25 2.6-4.25-.2-7.45-2.7-4.05-3.25-4.6-7.95-.4-4 1.7-7.9-7.55-4.55-11.5-8.8l-6.8.7q-.35 0-.7-1.25-.35-1.3 0-1.3 14.5-.25 27.6-10.15 13.4-10.15 18.25-25.1 1.85-5.6 1.6-10.4-.35-6.6-4.8-9.95-7.15-5.4-18.95.55-11.95 6-18.15 18.45l1.05-5.4q6.25-11.55 18.35-16.05 11.65-4.35 18.8 1 4.9 3.7 5.7 11 .6 5.75-1.3 11.45-6 18.6-22.5 28.95-7.95 4.95-15.7 6.95 4.25 4.5 10.7 8.25l.4.45-.05.8q-2.25 3.55-1.45 7.55.75 3.85 4 6.4 3.15 2.5 6.8 2.6 4.2.05 7.4-3.2 1.45-1.45 1.5.6.2 5.7 3.05 9.9 4.65 6.95 15.15 6.95 6.75 0 10.95-4.1 4.2-4.05 2.9-9.2-.25-.95.05-1.25.35-.35 1.25.2 3.65 2.15 7.4 1.4 3.1-.6 5.45-2.95 2.3-2.35 2.95-5.45.7-3.55-1.15-6.7l-.3-.75q.05-.25.7-.55 6.9-3.1 9.8-9.15 2.4-5.1 1.45-10.55-.85-5.15-4.3-8.55-3.4-3.35-8.3-3.8-.35-.05-.3-1.3.1-1.25.45-1.2 5.4.5 9.4 4.6"/><path fill="#0f141b" d="M328.25 258.3q-.55 1.8-1.2 1.9-.6.15-.15-1.6 2-8.25-.55-14.05-2.15-4.9-6.85-6.95-5.1-2.2-11-.1-6.5 2.35-10.85 9.05l-1.25 1.25q-.5-.05-1.25-1.5-.85-1.55-2.7-3.05-1.8-1.5-3.25-1.9-.35-.1-.1-.95t.6-.75q1.7.45 3.7 2.05t3.1 3.4q4.8-7.1 11.85-9.65 6.55-2.4 12.05-.05 5.05 2.2 7.45 7.8 2.9 6.6.4 15.1m-128.4-151.8q2.2 6.9.55 16.75-1.8 10.75-7.1 15.6-3.2 2.95-7 2.8-5.4-.25-9.1-6.25-3.8-6.2-3.55-15.05-.2-.1 1.05-.6l.75-.05q0 8.3 3.15 14.1 3.2 5.85 7.8 6.05 3.05.15 5.7-2.35 4.8-4.35 6.2-14.15 1.25-8.75-.75-15.55.75-.5 2.3-1.3"/><path fill="#0f141b" d="M190.3 111.25q-.05-.3.85-.5l.95.05q1.1 8.4-.95 15.6-2 7.05-5.95 9.25-3.75 2.1-7.75-1.2-.25-.2 0-.9t.5-.5q1.55 1.4 3.3 1.75t3.2-.45q3.25-1.8 5-7.85 1.95-6.7.85-15.25m-88.2 20.2q.7-.85 3.95-3.1 3.45-2.4 4.1-2.25 1.7.5-.95 13.45-.15.4-1.4-.55l.95-5.05.5-5.95v-.1q-1.2.65-3.15 2.1l-2.9 2.4q-.2.25-.75-.25-.55-.45-.35-.7m102.7 7.95q2.7 3.7 2.9 4.8.1.3-.75.3-.85-.05-.95-.35-.15-.55-1.9-2.9l-2.7-3.3q-.65 2.1-1 5.9-.3 3.5-.1 5.25l.05.1q0 .25-.75.35-.7.05-.75-.25-.35-2.5.3-7.8.7-5.7 1.75-5.85 1-.15 3.9 3.75m-78.95-46.65q.3-.2.95.75.7.95.35 1.15-4.65 3.1-8.15 9.55-3.5 6.4-3.9 12.55-.35 5.05 2 8.2 2.4 3.3 6.25 2.5 3.25-.65 6.55-4.1t5.85-8.8l.95.05q.85.35.65.7-2.75 5.85-6.3 9.5-3.6 3.65-7.35 4.4-4.55.95-7.9-2.75-3.45-3.8-3.05-9.95.45-6.65 4.25-13.5 3.75-6.8 8.85-10.25"/><path fill="#0f141b" d="M129.3 100.25q.25-.2.9.45.65.6.4.8-5.45 4.3-7.75 10.85-2.2 6.1-.4 10.2 1.5 3.45 5.35 2.9.35-.05-.45.8-.85.8-1.25.75-3.45-.3-5-3.85-2-4.5.15-11.15 2.25-7.2 8.05-11.75m23.55 38.2q.05-1.1.4-1.85.3-.7.55-.7.3 0 .45.75l.15 1.9-.4 1.9-.55.65q-.25 0-.45-.7-.2-.85-.15-1.95m-13.2-2.15q.15-1.15.55-1.95.35-.7.65-.7.25.05.4.85.2.85.05 2l-.5 1.95-.65.65q-.3-.05-.45-.8-.2-.85-.05-2M74.7 173.2q-.8-9.1-5.15-10.15-3.95-1-8.3 4.75-3.45 4.55-5 10.75-1.7 6.85-.15 12.45l-.5 2.05q-.6 1.7-.7 1.35-2.5-7.25-1.05-15.6 1.3-7.5 4.95-12.35 4.9-6.4 10.6-5.75 6.55.75 7.6 11.95.3 3.35-.6 7.85-.9 4.4-2.55 8.2l-2.5 1.05q1.85-3.95 2.75-8.5.9-4.45.6-8.05"/><path fill="#0f141b" d="M64.65 170.95q.75-.15 1.55 1.35t.05 3.25l-2.6 4.2q-4.7 7.15-6.7 13-3.55 10.4-2.65 23.75 1.25 17.85 8.95 27.9 6.2 8.15 11.9 7.1 5.5-1 8.9-9.9 3.35-8.9 3.05-21.6-.3-11.45-4.1-20.95-3.8-9.6-8.15-9.5-4.8.1-8.25 8.8-3.05 7.65-3.2 16.3-.1 5.65 1.8 11.05 2 5.9 4.7 5.95 1.4.05 2.5-2.5 1.2-2.9 1.4-8 .1-2.85.6-2.6.45.2.65 3.05.35 5.7-1.25 9.25-1.5 3.4-4.05 3.3-3.8-.05-6.2-6.05-2.25-5.5-2.4-13.55Q61 204 65.3 195.5q4.35-8.55 9.85-8.05 6.15.6 10.35 11.5 3.75 9.75 4.05 21.6.35 13.35-3.7 22.6-4 8.95-10.35 10.15-7.4 1.35-14.35-7.4-8-10.15-9.25-28.2-.95-13.65 3.05-24.95 2.25-6.5 7.2-14l2.3-3.85q.65-1.5.2-2.35-.8-1.5 0-1.6"/><path fill="#fff" d="M182.95 117.65q.2-1.45 1.05-2.4.85-.9 1.85-.8.95.15 1.5 1.35.5 1.1.4 2.5-.1 1.65-1 2.55-.8.8-1.9.65-.95-.1-1.55-1.15-.55-1.15-.35-2.7m-50.1-8.95q1.45.8 1.4 2.6l-.4 1.7q-.6 1.45-1.55 2.1-.95.6-1.8.2-.8-.4-1.05-1.55-.3-1.2.3-2.6.4-1 1.4-1.9 1.05-.9 1.7-.55"/><path fill="#0f141b" d="M201.45 106q-17.2 9.6-27.4 14.15-2 1-2.6.45-.55-.55 1.45-1.55 13.1-7.5 26.95-13.9 2.95-1.35 3.65-1.05.75.35-2.05 1.9m-76.1-13.9q-.65-1.85-.1-2.45t1.35 1.1l6.3 13.75q4.5 10.05 4.95 10.7 1.25 1.85.35 1.85-.95.05-2.25-1.75-.8-1.1-4.7-9.4-4.15-8.95-5.9-13.8"/></svg>