<svg xmlns="http://www.w3.org/2000/svg" width="192" height="196" viewBox="-0.3 -0.55 192.2 195.8"><path fill="#c68f00" d="M113.65 21.5q-3.95 4.2-16.9 7.25-12.25 2.9-23.7 2.9-10.55 0-17.15-3.9-6.2-3.65-7.9-10-.8-3 .75-9.35 1.6-6.55 3.75-7.15Q54.55.6 58.6 2.6q3.6 1.75 6.35 4.3 9.9-2.4 19.6-1.1 8.2 1.1 12.8 4.2 6.8-1.6 12.1-2.3 7-.95 8.05.2 1.15 1.3-.4 6.45-1.5 5.05-3.45 7.15M36.9 41.15q-6.95-.05-10.65 4.95-4.15 5.6-3.6 16.5-3.8-8.95-.15-18.5 4-10.55 14.65-12.9-.75 1.95-.7 5.4.05 2.7.45 4.55m85.7-2.1q8.4.15 13.65 6.8 4.65 5.8 5.5 14.4 1.25 11.65-7.4 20.5-7.95 8.15-18.5 9.1 8.65-3.2 11.7-11.85 2.45-6.95.7-13.8-1.85-7.45-7.65-11.2-5.55-3.65-13-2.8l2.2-4q1.9-3.45 5.95-5.5 3.55-1.75 6.85-1.65"/><path fill="#c68f00" d="M167.75 108.1q1.55.15 1.95 1.15t-.65 1.9q2.65-.25 3.5.9.75 1.1-.5 2.45l-4.65 3.95q-3.6 2.75-5.95 3.95-2.7 1.35-6.1 1.65-3.85.35-7.3-.95-5.95-2.2-24.9-13.25 1.25 2.95 3.6 11.9l2.7 10.9q.45 2.25 1.6 4.9 1 2.3 1.95 3.6 5.7 7.95 6.1 16.8.3 7.2-2.8 12.5-4.3 7.55-13.85 7.25-8.6-.25-15.65-6-6.15-5.05-22.6-6.1-15.15-1-20.8 1.65-7.1 3.4-14.9 2-7.85-1.4-12.2-7-4.5-5.85-1-16.55 2.75-8.45 7.3-13.25 1.15-1.2 1.65-2.6l.75-3.55q.45-4.25-.35-23.5-5.9 5.3-13.3 10-7.75 4.95-11.4 5.5-3.5.5-7.3-1.15-3.85-1.65-3-3.45-2.35-.5-5.05-2.45-2.25-1.6-3.15-2.9-1.4-2 1.6-2.4 4.95-.6 8.1-2.35 2.4-1.35 5.1-4.35l10.85-11.2q8.75-8.85 12.15-11.8l4.05.4 3.5-.2q8.95 8.75 21.3 10.25 12 1.5 22.8-4.25 6.6 6.6 18.35 7.4 12.35.85 21.6-5.75l10.7 11.9 8.85 9.4q.95.95 2.4 1.5l2.9.45 6 .25z"/><path fill="#c68f00" d="m130.25 135.65-4.55-18.55 2.7-4.25 11.7 6.35zm10.35-40.7q4.35-6.65 8.25-11.85 3.35-1.6 6.65 0 3.7 1.8 4.1 6.55l-10 14.9-4.7-4.9z"/><path fill="#4e5143" d="M56.65 27.95q2.65 2.55 10.8 3.45 6.9.7 11.4-.05-2.15 3.5-2.6 8.9-.4 4.3.4 8.2Q71.95 43 65.3 41.1q-6.8-2-11.85.85 1.85-2.3 2.8-6.8 1-4.35.4-7.2m49.6-2.35q2.2-.6 4.35-1.85 1.95-1.1 3.05-2.25 2.65 2.2 5.5 7.7 2.8 5.45 3.65 9.85-4.15-.4-8.1 2.2-3.35 2.2-5.25 5.6 1.85-6.35.85-12.35-.95-5.7-4.05-8.9"/><path fill="#e50012" d="M56.95 28.3q.2 3.35-.8 7.3-1 4.15-2.7 6.35-2.65 1.05-5.6 3.65-2.6 2.2-4.15 4.3-3.6-1.85-5.6-6.25-1.65-3.7-1.65-7.75.05-4.95 3.5-10.4 3.65-5.75 8.2-7.25.85 2.5 3.6 5.6 2.65 3 5.2 4.45m37.4 1q8-1.85 11.9-3.7 3.8 3.75 4.3 11.55.35 6.1-.95 9.25-2.45 5.9-7.65 10.05-5.15 4.15-9.5 3.75-4.05-.35-8.95-4.65-2-1.7-6.45-6.6-1.55-3.95-.8-9.55.65-5.15 2.6-8.05 6.25.1 15.5-2.05"/><path fill="#ffe45f" d="m48.9 20.25 1.5 2.5q-6.8 4.55-7.7 12.7-.8 7.5 3.4 11.55l-2.4 2.9q-6.6-6.3-4.35-16.55 2.1-9.85 9.55-13.1m45.7 9 6.55-1.65q5.25 8.5 2.05 19.7-3.25 11.35-11.8 12.5-3.3-1-5.45-2.35 7.7.3 10.75-10.5 3-10.6-2.1-17.7"/><path fill="#fff" d="M166.4 43.9q2.1-4.55 4-6.4.25 3.8 2 12.1 2.4-1.45 6.3-3.05 3.5-1.45 6.2-2.25l-2.15 6.75q-1.5 4.2-2.6 6.4 2.35.65 5.45 1.8 3.3 1.25 4.85 2.2l-6.05 3.4-6.8 2.8 8.1 4.95q-2.2 1-7.9 2.05l-8.65 1.1-5.1 7.35-4.45 6.55q-.45-4.05-3.55-6.05-3.25-2.1-7.4-.35l7.4-9.9q.75-.9.75-1.85-.05-.75-.65-1.95-4.35-8.55-7.1-12.95 3.75 1.15 7.9 3.45-.1-7.25.35-13.85l5.8 6.5q1.45-4.75 3.3-8.8"/><path fill="#f4e8d0" d="M115.85 89.85q-6.55 1-14.35-1.45-7.4-2.35-10.6-5.95-10.3 5.75-23.1 4.05-12.95-1.7-20.7-9.9-8 .95-15.1-3.55-6.5-4.1-9.05-10.45-1.1-10.55 3.6-16.65 4.15-5.45 10.35-4.8.75 3 2.8 5.5 1.8 2.2 4 3.25 3-4.25 8.05-7.05 5-2.75 9.4-2.7 4.5.05 9.6 3.3 4.55 2.9 7.9 7.2 2.95 3.75 6.9 6.45 4.55 3.15 8.25 3.15 3.75 0 8.15-3.5 3.95-3.1 5.65-6.55 8.65-1.15 14.8 4.2 5.6 4.9 6.3 12.15 1.7 16.85-12.85 23.3"/><path fill="#f4e8d0" d="M84.2 85q7.95 1.7 14.45 10.65 5.65 7.8 8.25 18 3.6 14.05-1.45 26.15-5.7 13.8-20.05 16.25-11.55 2-21.2-8.8-9.15-10.25-11.65-25.9-1.45-9.1 2.25-19.9Q58.65 90.35 65 86.2q3.9 1.1 9.8.7 5.8-.35 9.4-1.9"/><path fill="#fff" d="M50.4 60.2q4.9-5.7 6.9-5.45 1.05.1 5.9 4l7.05 6.05q-1.55 3.5-5.4 7.85-4 4.45-5.55 4.25-2.45-.3-5.6-6.4-3.05-5.95-3.3-10.3"/><path fill="#ed8599" d="m70.25 64.8 2.65 2.55 2.15 2.2q-.8 3.7-5.25 5.65-4.25 1.85-8.95 1.05 2.1-1.3 5.2-5 3.15-3.8 4.2-6.45"/><path fill="#4e5143" d="M39.65 181.55q-.5-.4-.25-1.05.85-2.25 2.45-4.45l-6.95 1.8q-2.3.5-2.75-.55-.45-1.15 1.7-3.1-2.55.3-3.2-.75-.65-.95.65-2 1-.85 3.65-2.6l4.7-2.9q4.05 2.95 10.45 3.55 5.5.45 9.55-.85.95 4.1-3.5 6.6-2 1.15-7.2 3.35-4.9 2.15-7.2 2.9zm76.25 2.1q-4.3-5.65-4.25-8.7 5.05 2.65 10.95 2.7 5.15.05 8.4-1.7 3.35 3.45 5.65 7.6 2.1 3.8 1.4 4.35-.35.3-1.5 0l-2.3-1 1.2 3.7q.2.9-.4 1.35-.55.4-1.3 0l-7.25-4.5v3.75q-.15 2.9-3.2.35-3.85-3.35-7.4-7.9"/><path fill="#dbdcdc" d="M52.7 67.75q1.25 2.35 3.3 3.95 1.85 1.5 3.4 1.6 1.5.05 4.5-1.85t5.05-4.25q-1.6 3-5.2 6.5-3.4 3.4-4.45 3.35-1.1-.05-3.3-3-2.4-3.15-3.3-6.3"/><path fill="#ce7486" d="M66.05 71.2q1.85-1.95 4.4-6.15l4.8 4.7q-.9 2.05-1.95 2.95-1.05-.75-3.35-1.25zm-15.7-10.9q.35 3.65 2.45 8.25 2 4.3 4.45 7.05-3.4-1.25-6.05-5.15-2.4-3.5-3.1-7.4z"/><path fill="#a27600" d="M141.6 60.35q.75 12.1-6.85 20.25-6.95 7.45-18.05 9.1 5.4-2.9 8.7-7.5 6.65-3.1 10.85-8.65 4.3-5.7 5.35-13.2"/><path fill="#d3c9b5" d="M116.7 89.7q-6.95 1.05-13.65-.7-7-1.8-12.35-6.3l1.5-.9q9 3.6 17.8 3.6 8.45.05 15.4-3.2-3.3 4.6-8.7 7.5M31.75 73.05q-6.5-4.4-9.35-12.35.1-3.5.7-6.7 2.85 7.95 8.9 13.1 5.65 4.85 12.5 6l2.4 3.3q-8.25 1.4-15.15-3.35"/><path fill="#a27600" d="M23.1 54q-.6 3.2-.7 6.7-2.45-6.85-1.1-14 .5 3.6 1.8 7.3M1.35 106.3q1.1 1.8 5.1 3.65 4.05 1.9 6.75 1.85-2.55 1.25-.35 2.55 2.25 1.3 6.7.65 3.65-.5 12.55-9 9.45-9.05 11.95-15.8l.65 12.6q-4.05 4-12.5 9.4-9.05 5.8-12.25 6-4 .3-7.25-1.1t-3.1-3.35q-2.7-.85-5.45-2.9-3.35-2.55-2.8-4.55m168 4.55q2.3.15 3.15 1.1.9 1.05-.45 2.4-4.5 4.65-9.3 7.35-5.35 3-9.5 2.5-5.75-.7-21.3-9.2-15.2-8.35-20.7-13.5 11.95 6.75 24.2 12.4 14.55 6.75 18.5 6.55 1.55-.3 5-3 3.7-2.9 3.55-4.35 1.35-.05 3.75-1.7 2.35-1.65 2.9-2.8.45.35.5 1zM38.4 146.5q.75 5.1 3.9 9.45 3.25 4.4 7.85 6.45 5 2.2 10.35 1 13.8-3.1 26.6-2.1 11.8.9 18.5 4.85 5.7 3.3 11.6 3.85 5.9.5 10.5-1.9 10.6-5.5 8.55-21.45 4.65 8.2 2.15 18.05-2.45 9.7-9.25 12.05-4.45 1.55-10.05.65-6.5-1.05-11.4-5.2-6.1-5.1-20.5-6.65-14.55-1.55-24.9 2-7.2 2.45-13.6 1.7-7.2-.9-11.65-5.8-4.35-4.75-2.8-13.9 1.35-8.2 5.55-12.9-2.2 4.5-1.4 9.85"/><path fill="#a27600" d="m134.6 116.4 5.6 2.9-10.05 16-2.45-10.35zM158 85.25q1.25 1.55 1.65 4.1l-10 15.2-3.4-3.4z"/><path fill="#dbdcdc" d="M149.5 56.6q1.85 1.5 5.25 6.2 2.65 3.75 3.95 6.05.8 1.3 0 2.6l-1.75 1.9q.45-1.45-.45-3.6l-3.25-6.5zm7.35 3.7.7-13.6q.8 2.3 1.4 7.05l.5 6.4q0 .7-.65 1l-1.1-.05zm13.45-22q-1.15 2.45-2.6 7.7l-1.75 6.8q-.25.85-1.1 1.3l-1.3-.05-.4-1.85q1.3-4.3 3.1-8 2.2-4.55 4.05-5.9m12.15 13.8q-1.3 4.2-2.45 6.55-.6 1.3-1.7.45-1.05-.9-.5-1.85 3.85-6.35 6.5-12.95-.4 3.05-1.85 7.8m-5.8 16.2q-1.25.35-1.5-.85-.25-1.25 1.15-1.6 4.25-1 13.9-4.7-1.05 1.25-6.1 3.9-4.8 2.45-7.45 3.25m8.65 3.9q-2.85 2.2-16.35 3.7l-9.35 13.55-.6-2-1-2.05 5.9-8.4 1.4-2.3q1.2-1.45 2.85-1.25l8.4-.4z"/><path fill="#3b3e33" d="M39.5 179.9q1 .4 4.1-1.4 3.3-1.9 3.7-3.7.35-1.65-.65-3.65-1.05-2.05-3-3.05 2.8 1.3 8.1 1.4 5.2.1 8-.85 1.05 3.45-2.4 5.7-1.35.9-7.9 3.8l-7.85 3.35-1.9-.1q-.6-.5-.2-1.5"/><path fill="#3b3e33" d="M33 175.35q0 .75 2.4.45 3.55-.45 8.3-2l-1.6 2.15-4.35 1.3-3.7.8q-1.2.15-1.7-.65-.6-.9.65-2.05m-1.1-4.4q-.3.65.15 1l1.2.2q1.2-.2 4.95-1.75l-4.15 3.6q-2.75.35-3.4-.65-.7-.95 1.25-2.4m86.85 6.3q5.3.9 9.2 0-1.85.9-3.1 3-1.15 1.8-1.35 3.55-.3 1.95.75 4.65.95 2.6 2.05 3.25-.15.75-.8.9-.75.2-1.45-.5-13.05-12.15-12.2-17.1 2.05 1.5 6.9 2.25"/><path fill="#3b3e33" d="M125.95 183.45q4.25 4.55 7.5 6.5l.9.25.7-.45q.45 1.15.05 1.95t-1.3.3q-4.6-2.65-7.35-4.75zm6.1-1.65q2.55 3.35 4.15 4.25.8.55 1.6.35 1.05 1.35-.05 1.7-1.2.4-3.7-1.5z"/><path fill="#a27600" d="M110.4 90q-3.95 4.95-9.7 8.3-2.9-4.4-7.05-7.95-4-3.4-8.3-5.3l5.35-2.35q3.45 3.55 10.55 5.65Q106.7 90 110.4 90m-45-3.8q-5.1 3.3-8.3 9.5-9.6-7.1-12.9-18.95l2.7-.35q7 7.5 18.5 9.8"/><path fill="#d3c9b5" d="M85.35 85.05q4.3 1.9 8.3 5.3 4.15 3.55 7.05 7.95-9.9 5.65-22 4.95-12.3-.65-21.6-7.55 3.2-6.2 8.3-9.5 10.45 2 19.95-1.15"/><path fill="#a27600" d="M52.75 1.45q3.05-.15 7.25 2 3.65 1.9 5 3.6L61.8 8.4q-1.35-1.8-3.95-3.75-2.45-1.85-5.1-3.2"/><path fill="#0d131a" d="M51.75 28.2q1.9.5.85 6.05-.55 2.6-1.55 4.05-1 1.3-1.9 1.05-.8-.2-1.05-1.85-.3-1.8.2-4.4.5-2.55 1.6-3.9.95-1.25 1.85-1m33.7 6.2q1.05.15 1.6 1.85.6 1.75.4 4.55-.25 2.5-1.05 4.15-.85 1.75-1.95 1.7t-1.75-1.8q-.65-1.8-.5-4.4.2-3 1.15-4.7.9-1.55 2.1-1.35m72.5 25.85q.75.6.5.95l-1.05-.1q-2.6-1.6-6.4-3.05l6.4 12.15q.55.95.4 1.7-.2.85-1.4 2.25-3.75 4.35-15.3 21.4l-1.5-1.1q9.4-13.6 15.6-21.15 1.25-1.6.8-2.55l-3.95-7.5-3.45-6.15q-.7-1-.35-1.3l1.4.1q4.35 1.4 8.3 4.35M127.5 112.6l1.7.8-3.1 4.95-.7-2zm11.85 6.3 1.55.8q-2.4 3.75-10.15 17.1l-.8-2.9q3.95-6.6 9.4-15m29.15-43.25 1.8.05q-4.6 5.65-20.1 29.4l-1.2-1.05q14.35-21.75 19.5-28.4"/><path fill="#0d131a" d="M137 48.25q-4.9-7.45-14.2-8.2-3.25-.25-6.75 1.5-4.25 2.1-6.15 6.25-2.45 5.35-6.7 8.9-4.35 3.6-8.95 3.95-4.5.35-9.55-3.2-3.7-2.6-6.9-6.55-7.2-9.05-16.15-9.85-4.7-.4-10.15 2.8-5.1 3-7.8 7.15-.65 1-1 .75-.35-.2.15-1.25 2.25-4.6 8-8 5.8-3.5 10.95-3 5.4.45 10.55 4.15 3.6 2.6 6.6 6.3 3.2 4 7.2 6.6 4.5 2.95 8 2.65 4-.3 8-3.7 3.95-3.4 6.3-8.45 2.1-4.6 6.75-7.1 4-2.15 7.8-1.9 9.9.7 15.5 8.8 5.1 7.4 4.45 17.2-.55 8.3-5.25 14.55-4.45 6-12.2 9.45-8.7 3.9-18.45 2.6-10-1.35-17.05-7.7l1.25-.7q6.8 5.55 16.05 6.65 9.2 1.1 17.55-2.5 7.2-3.15 11.3-9 4.15-5.9 4.65-13.75.6-8.85-3.8-15.4"/><path fill="#0d131a" d="m47.9 17.6.55 1.15q-4.15 1.8-7.15 5.85-2.85 3.9-3.75 8.6-2.05 10.9 6.6 16.15l-.8 1.05q-9.7-5.7-7.65-17.2.9-5 4.05-9.15 3.35-4.35 8.15-6.45"/><path fill="#0d131a" d="m48.8 19.75.45 1q-7.65 3.8-9.3 13.55-1.7 9.65 4.15 15.1l-.6.95q-6.45-5.35-5-15.6 1.5-10.55 10.3-15"/><path fill="#0d131a" d="m46.6 46.55-.7.8q-5.5-4.25-3.75-13.05 1.75-8.65 8.2-12.05l.6 1.05q-6 3.15-7.45 11.3-1.4 8.05 3.1 11.95m7.5-4.8-1.75.55q2.1-2.5 3.15-6.9 1.1-4.35.45-7.5l1.25.6q1 7.55-3.1 13.25m22.15 6.05q-1.3-4.7-.95-8.45.4-3.95 2.8-7.7h1.45q-2.1 3.5-2.65 8.05-.65 5.2 1.05 9.85zm17.5-18.3 1.35-.3q2.5 3.05 3.25 7.85.7 4.65-.4 9.25-2.6 10.9-11.15 11.6l-1.4-1.1q3.9.35 6.85-2.85 2.65-2.9 3.9-7.8 1.2-4.7.6-9.3-.6-4.8-3-7.35"/><path fill="#0d131a" d="M103.25 42.9q1.2-9.85-2.75-15.1l1.15-.5q4.4 5.85 3.2 15.75-1.25 10.1-7.4 14.85-2.7 2-5.7 2.15L89.3 58.9l3.75-.25q2.1-.55 3.65-1.75 5.3-4.05 6.55-14m6.9 3.1-2.1 3.05q2.4-6.3 1.75-12.9-.6-6.8-4.15-10.05l1.1-.7q3.6 3.85 4.5 9.55.9 5.55-1.1 11.05m13.7-6.85-2-.1q-1.25-5.1-3.65-9.65-2.35-4.55-5.15-7.25l1.35-.95q6.55 6.4 9.45 17.95m-7.3 50.5-3.8.05q8.1-1.85 12.25-8.35t2.8-15.15q-1.25-8.3-7.65-12.55-5.95-3.95-13-2.55l.85-1.4q8.05-1.15 14.15 3.25 6.3 4.55 7.6 13 1.25 8.2-2.5 14.85-3.7 6.55-10.7 8.85m-92.1-51.2q5.05-6.65 12.95-8.2l-.2 1.45q-6.6 1.3-11.1 7.65-4.5 6.3-4.15 13.7Q22.4 64 30 70.6q7.2 6.3 16.6 5.35l1.1 1.3q-11 1.6-19.2-5.45t-8.7-18.7q-.35-8.05 4.65-14.65"/><path fill="#0d131a" d="M26.05 45.45q4.1-5.15 10.9-4.8l.2 1.15q-7.1-.25-11.1 6.35-3.9 6.45-2.2 14.55l-1.5-2.55q-.65-9.3 3.7-14.7m27.5-.55q-.45-.7-.05-.95.35-.25.9.4.9 1.2 2.35 2.35 1.3 1.05 1.85 1.15l3.8-.35 5.4-1.15q.9-.3 1.05.15t-.7.8q-2 .8-5.25 1.55-3.65.85-4.65.6-.85-.15-2.35-1.65-1.45-1.4-2.35-2.9m14.2 16.65q8.6 7.8 10.9 11.3.65.95.3 1.2-.4.25-1.1-.6Q74.8 69.6 66.6 62.6q-8.05-6.85-9.35-6.95-1.35.05-4.6 3.35-3.2 3.25-5.55 6.85-.55.85-.95.65-.4-.25.1-1.2 2.05-4 5.6-7.75 3.6-3.8 5.5-3.9 1.7-.05 10.4 7.9"/><path fill="#0d131a" d="m57.65 48.45 1.4.45q-.65 2.85-1.05 5.9l-1.4-.35q.4-3.75 1.05-6m-31.6 39.1Q34 79.5 38.25 75.9l2.15.7q-4.2 3.55-12.6 11.8-7.6 7.55-11.55 11.9-3.95 4.3-7.55 5.25l-5.8 1.05q-1.8.15-.8 1.45 1.35 1.8 3.6 3.25 2.25 1.4 4 1.65l-.35 1.7q-2.45-.45-4.85-2.1t-3.8-3.8q-1-1.5-.6-2.35t2.45-1.15l5.8-1.2q3.15-1.05 6.75-5 4.3-4.8 10.95-11.5"/><path fill="#0d131a" d="m44.55 101.6.15 2.85q-5.15 4.45-11.3 8.35-6.7 4.25-11.6 5.9l-6.15.3q-3.4-.6-5.45-2.25-2-1.55-1.4-3.1.65-1.75 4.35-2.15.95-.1 1 .35.1.45-.85.65-2.4.6-2.85 1.5-.4.75.65 1.5 1.7 1.25 4.75 1.8l5.5-.2q4.65-1.55 11.8-6.55 5.7-3.95 11.4-8.95"/><path fill="#0d131a" d="M43.3 85.6q-.05-1 .45-1.05t.55 1q.8 8.3 1.35 21.45.55 13.45.2 18.45l-.45 3.95q-.35 1.45-1.15 2.4-6 6.75-8.35 15.3-2.7 9.75 1.8 15.25 3.7 4.55 10.25 5.9 6.7 1.4 13.85-1.3 10.95-4.1 30.6-1.55 3.85.5 8.2 2.15 5.15 1.95 8.75 4.75 6 4.65 13.8 4.35 7.5-.3 10.85-4.8 4.45-6 4.2-13.8-.35-8.4-6.15-16.7-1.5-2.1-2.3-4.55-.5-1.45-1.3-5.15l-3.1-12.45q-1.9-6.8-3.25-9.8l2.7.85q1.25 2.95 2.75 9.5L130 131.3q.65 3.05 1.4 4.85.75 2.05 2.25 4.2 6.3 9.05 6.6 18.35.25 8.5-4.5 14.6-3.9 5-12 5.35-8.55.4-15.5-5-3.35-2.6-8.1-4.4-4.15-1.55-8.05-2.05l-16.55-.85q-8.05.35-13.15 2.25-7.6 2.8-15.05 1.45-7.55-1.35-11.5-6.35-5.15-6.55-2.1-17.3 2.6-9.2 8.8-15.5.65-.7.9-1.8l.45-3.8q.3-4.6.1-18.65-.2-14.1-.7-21.05m124.55 21.85q2.1.35 2.65 1.45.55 1.15-.6 2.45-2.8 3.2-6.45 5.6-.9.6-1.15.25-.3-.35.55-1.05 3.85-3.15 5.85-5.65 1.05-1.3-1.05-1.75l-5.85-.55-7.1-.15-2.35-.45-1.9-1.2q-1.35-1.05-9.05-9.3l-11.5-12.45 1.1-1.1 11.3 12.1q7.65 8.05 9 9.1 1.65 1.3 3.2 1.35z"/><path fill="#0d131a" d="m168.65 111.85.8-1.05q2.85-.2 3.75 1.1.85 1.2-.35 2.65-2.15 2.6-5.95 5.35-3.75 2.7-6.8 3.95-3.05 1.3-6.9 1.25-3.6-.1-6.25-1.3-7-3.25-17.7-9.35-13.1-7.55-17.95-11.95-.7-.65-.4-1.05.3-.35 1.05.3 4.75 3.8 17.75 11.05 11.85 6.6 17.9 9.2 2.85 1.25 6.05 1.35 3.25.1 5.95-1.05 2.95-1.25 6.4-3.65 3.6-2.5 5.65-4.9.75-.9 0-1.45-.8-.65-3-.45"/><path fill="#0d131a" d="m161.85 113.55-.8-.4-7.75-.45q-1.05.1-1.05-.4t1-.6q4.95-.5 8.3.2 3.15.65 1.2 3-2.8 3.25-7.85 5.9-.85.4-1.1 0-.2-.4.6-.9l4.25-2.9 2.9-2.75zm2.05-60.4q.55.85.2 1.1-.4.3-1-.5-2.3-3.05-5.1-5.85-.45 5.75-.45 12.45l-1.05-.6q-.15-9.55.15-13.8.05-1.65 1.3-.35 2.8 2.95 5.95 7.55"/><path fill="#0d131a" d="M165.6 43.95q2-4.4 4.05-6.8 1.15-1.4 1.35.4.8 7.35 2.05 12.8.25 1-.2 1.1-.45.15-.8-.85-1.3-4.2-2.25-11.15Q168 42 166.2 46q-1.75 3.95-2.7 7.5l-.85-1.4q1.15-4.25 2.95-8.15"/><path fill="#0d131a" d="M172.4 48.9q5.8-3.3 12.35-5.5.65-.2.85 0t0 .9q-2.3 8.55-5.4 14.25-.5.9-.85.7-.4-.25 0-1.1 2.2-4.85 4.5-12.95-5.9 2.05-11.25 5.05z"/><path fill="#0d131a" d="M191 62.2q-2.8 1.85-6.85 3.6-3.8 1.65-7.2 2.6l-1.2-.15q-.1-.45.9-.8 7.35-2.65 12.5-5.9-3.95-2.2-9.05-3.5l.4-1.25q2.6.65 5.65 1.85 3.2 1.25 4.85 2.3.9.6 0 1.25"/><path fill="#0d131a" d="m186.8 72.7-.65.65q-2.65 1.15-9.4 2.2l-9.3.75q-.95-.1-.95-.55 0-.4.95-.45l7.9-.95q5.9-.95 8.8-1.9-3.1-2.25-7.4-4.45l1.35-.7q5.75 2.85 8.2 4.7.5.35.5.7M160 89.05l-1.15 1.45q.1-4.05-3.15-6.15-3.3-2.1-7.35-.45l1.05-1.6q4.15-1.5 7.45.75 3.15 2.15 3.15 6M82.8 85.6l3.2-1q7.45 2.8 13 9.85 5.15 6.5 7.85 15.55 5.85 19.45-1.8 33.6-7.35 13.55-22 13.65-12.95.15-22.15-12.1-7.9-10.45-9.25-23.5-1.1-10.7 2.2-20.6Q57.3 90.7 63.95 86.1l2.85.6q-7.15 3.5-10.85 13.95-3.45 9.8-2.3 20.85 1.3 12.85 8.85 22.8 8.6 11.4 20.65 11.3 13.65-.15 20.35-13.4 6.85-13.55 1.4-31.7-2.7-9.1-7.85-15.4-6-7.45-14.25-9.5m-47.65 87.6-1.3 1.15q-3.35.4-4.2-.85-.75-1.1.7-2.35 1.4-1.15 4.1-2.85t4.85-2.75l1.25.95q-2 .9-4.85 2.75l-4.1 3q-.7.65 0 .95.85.4 3.55 0"/><path fill="#0d131a" d="M38.8 170.2q.3.4-.5 1-1.45 1.05-3 2.65-1.5 1.5-2.25 2.6-.25.4-.05.7.25.3.85.2l4.5-1 4.3-1.45-1.15 1.6q-3.5 1.55-7.5 2.35-1.9.4-2.55-.7-.65-1 .15-2.3l2.6-2.75q1.85-1.6 3.5-2.7.85-.55 1.1-.2"/><path fill="#0d131a" d="M38.7 182.3q-.7-.65 0-2.3 1.25-2.95 4.15-5.8.7-.7 1.05-.4t-.3 1.05q-2.2 2.6-3.4 5.35-.4.95.9.55 2.8-.85 8-3.15 5.35-2.4 7.9-3.95 1.35-.85 1.8-1.95.4-1.1 0-2.85l1.55-.4q1.45 4.65-2.15 6.8-2.45 1.55-8.45 4-5.45 2.3-8.5 3.2zm72.4-7.8 1.5.75q-.15 1.05.35 2.25.5 1.35 2.1 3.45l4.4 5.35q3.2 3.7 5.05 5.15 1.15.95 1.25-.2.3-3.55-.25-7.15-.15-.95.35-1 .45-.1.65.85.95 4.6.55 7.9-.4 3.4-3.4.95-2.05-1.65-5.55-5.35-3.35-3.55-4.8-5.55-2.85-3.85-2.2-7.4"/><path fill="#0d131a" d="M131.7 181.65q.4-.25.9.6 2.5 4.2 3.55 8.4.4 1.55-.3 2.15l-2.35-.1q-3.1-1.5-7.15-5.1l.1-1.35q1.45 1.35 3.85 2.9l3.7 2.15q1.05.5.75-.55-1.6-5.3-3-8-.45-.85-.05-1.1"/><path fill="#0d131a" d="M138.8 186.55q.6 1.45.05 2.05l-2 .05q-1.4-.4-2.35-1l-.6-2q1.75 1.2 3 1.65h.45q.2-.1 0-.45-2.3-5.6-6.95-10.7l1.55-.7q4.4 4.95 6.85 11.1M91.3 81.75l1.25-.1q.2.4-.8.95-12.55 7.25-26.5 4.6Q51.4 84.55 44.2 73.8q-.65-1-.3-1.25t1.1.7q8.05 9.85 20.95 12.15 12.7 2.25 25.35-3.65"/><path fill="#0d131a" d="m56.15 74.25 2.5 2.7q-3.95-.7-7.15-4.7-3.05-3.85-3.75-8.45l1.15-1.2q.4 3.5 2.5 6.8 2 3.15 4.75 4.85m3.6 2.85 2.05-1.45q4.85.3 8.3-1.4 3.5-1.8 4.55-5.2l1 1.2q-1.25 3.75-5.7 5.7-4.45 1.85-10.2 1.15"/><path fill="#0d131a" d="m69.55 64.5 1.3 1.05q-1.25 3-5.5 7.65-4.45 4.95-6.3 4.75-1.9-.2-5.15-5.65-3.45-5.8-4-11l1.3-1.85q.4 5.7 3.6 11.45 2.8 5.1 4.45 5.3 1.4.15 5.15-4.1 3.85-4.3 5.15-7.6m48.7-56.95q1.2 1.8-.3 7.25-1.4 5.35-3.45 7.25-5.6 5.4-22.1 8.6-16.45 3.2-27.95 1.2-6.8-1.15-11.6-5.35-4.3-3.7-5.75-8.65-.95-3.2.85-9.9 1.85-6.8 4.2-7.85 1.45-.65 6.5 1.8 4.3 2.05 7 4.25 5.9-2.15 14.3-1.9 11 .4 17.25 4.6 8.5-2.8 14.9-2.75 5.15 0 6.15 1.45m-1.3.9-7.3-.3q-6.65.8-12.5 2.7l-.4-.05Q91.3 6.85 80.2 6.2q-11-.65-17.7 2.4l-1-.05q-.25-.4.55-.8.9-.5 1.85-.9-2.25-1.9-6-3.5-4-1.7-5-1.25-1.9.85-3.4 6.8-1.45 5.8-.7 8.65 1.15 4.2 5.1 7.55 4.45 3.7 10.85 4.8 11.4 1.95 27.25-1 16.05-3 21.5-8.3 1.4-1.35 2.8-6.1 1.45-4.85.65-6.05"/></svg>