<svg xmlns="http://www.w3.org/2000/svg" width="155" height="212" viewBox="-0.95 -0.05 155.1 212.1"><path fill="#d28444" d="M148.15 48.1q-7.15 22.3-15.5 30.7 4.1-.3 7.5.15 4.35.5 4.5 2.05.3 2.45-8.2 6.7-8.65 4.3-16.65 5.55 1.75 9.95-1.9 21.85-4.45 14.45-14.85 20.35l-88.55-78q-1.3-2.05-1.35-3.95-.05-1.65.7-2.3t4.2.4q3.75 1.15 6.45 3.15-3-15.3 6.15-35 3.7-8 8.05-13.2Q43 1.3 45.95 1.3q2.55 0 5.5 5.3 2.8 5 5 13 5.2 18.6 2.8 31.2 6.3-.8 15.7.7 10 1.55 15.55 4.55 12.35-18.6 35.55-27.7 8.8-3.45 16.5-4.4 7.15-.85 9.45.75 1.25.9.1 7.75-1.1 6.75-3.95 15.65M30.4 166.5l-.6.1q1.75 5.65-3.45 7.65l-4.05.2q-2.15-.6-2.95-2.45-2.95-.1-5.85-2.6-3.25-2.85-4-7.05-.8-4.6.85-8.3 1.7-3.85 4.7-3.3.85-.95 2.6-1.2l2.5.15q1.9-2.8 5.1-1.9 3 .85 4.2 3.7 1.35-.6 5.3-1.7l6.55-10.7 48.4-7.6 14.05 14.5q2.25 1.15 4.45 3l3.15 3.15q8.2 4.55 13.5 18.85 3.85 10.4 5.6 23.9 3.75-.15 4.6 2.45.7 2.1-.6 4.3 1 3.4-.35 5.45-1.05 1.6-2.45 1.55-.5 1.5-2.3 1.85-1.55.35-2.65-.3l-3.7-.2q-1.75-.85-1.85-2.4-1.3-.55-2.05-1.65-3.5.6-5.1-1.45-1.55-2.05.45-3.95-1.5-3.2-4.1-6.9-2.65-3.8-5-6.1-13.8 1.75-28.75-2.1-18.45-4.75-25.1-15.95-5.25.4-10.4-.1-7.05-.65-10.7-2.9"/><path fill="#d28444" d="M138 147.65q-4.15 7.45-8.85 10.2l2.45.3q1.3.4 1.4 1.05.2 1.7-3.1 3.45-3.55 1.8-7.85 1.75-.95-2.1-3-4.85-2.1-2.85-3.75-4.05 4.35-9.05 14.1-14.35 3.75-2 7-2.7l3.9.2q1.75 1.75-2.3 9"/><path fill="#e1b47d" d="M84.4 31.25q4.5-1.75 5.75-.75 2.6 2.1-.75 13.45-3.05 10.4-8.15 19.55 6.85-7.15 21.65-10.55 5.85-1.35 10.4-1.45 4.5-.05 5.25 1.2 1.4 2.3-4 9.35-4.75 6.2-10.3 10.8 6.6-1.45 15.6-1.35 10.7.05 11.45 3 .9 3.65-9 9.75-7 4.3-15.65 7.85l4.55.45q2.4.6 2.45 1.8.05 1.25-1.65 2.85-1.55 1.4-4.05 2.8 3.35.15 6.2 1 3.6 1.1 3.65 2.7.05 1.65-4.85 4.15-4.05 2.1-9.25 3.75 9.2.25 16 3.55 5.85 2.8 5.7 5.05-.15 3.25-9.55 6.1-8.45 2.5-15.1 2.45 1.85 3.75 3 9.35 1.25 6.4-.2 7.85-1.75 1.75-7.7-1-4.8-2.25-10.25-6.3.45 6-1.25 6.65-2.2.85-5.9-2.65.45 3.85-.35 8.05-.85 4.7-2.65 5.25-1.85.6-6.1-3.4-3.75-3.5-7-8.15-.4 2.05-2.25 5.45-2.1 3.8-3.5 3.8-1.55 0-3.8-2.5-2.15-2.4-3.9-5.9-2.85 2.8-6.65 5-4.35 2.55-5.95 1.8-2.95-1.4-1.25-13.35-2.9 1.65-7.1 2.85-4.85 1.35-6 .3-1.35-1.15-.45-5.4.95-4.4 3.65-7.9-4.15 2.5-10.25 3.3-6.1.75-7-1.1-.8-1.8 2.85-6.8 3.45-4.65 8.25-8.9-8.1-2.15-13.5-7.35-5-4.85-4.25-8.5.5-2.25 6.1-2.45 4.5-.15 10.4 1-2.95-2.15-5-4.5-2.35-2.8-1.95-4.3T14.2 87q2.4-.35 5.9.1-4.5-4-3.65-5.95.85-2 7.05-.65-5.15-3.75-11.25-10.05Q4.7 62.6 5.7 60.2q2.1-4.75 15.4-1.9 13.05 2.8 17.8 8.15-1.6-7.75-.45-20.65 1.25-14.25 5.1-14.9 4.2-.7 9.05 10.5 4.3 9.95 5 17.85 3-12.75 16.8-22.55 5.2-3.65 10-5.45"/><path fill="#00568b" d="M14.75 159.25q1.45-.65 3.2.3 1.6.85 2.55 2.5.75 1.35.65 3.1-.15 2.05-1.6 2.95-1.6 1-3.55.25-1.95-.8-2.9-2.9-.75-1.6-.25-3.55.5-2.05 1.9-2.65"/><path fill="#fff" d="M32.2 89.7q1.5-5.9 4.5-9.1 3.1-3.3 6.75-2.5 3.3.75 4.15 5.85.75 4.3-.35 10.4Q46.1 101 42.9 105.2q-3.5 4.55-7.55 3.35-3.7-1.1-4.3-7.15-.5-5.05 1.15-11.7m54.6-4.3q3.5.95 4.35 6.25.75 4.55-.55 11.6-1.2 6.4-5.3 10.65-4.05 4.2-8 3.15-3.25-.85-4.25-6.2-.85-4.75.25-11.3 1.2-7.25 4.85-11.3 3.85-4.2 8.65-2.85"/><path fill="#e60021" d="M59.35 108.6q-.25 1.3-3.2 1.95l-4.3.25q-1.5-.3-2.9-1.85-1.55-1.65-1.25-3.2.45-2.05 6.3-.9t5.35 3.75"/><path fill="#ee869a" d="M46.5 127.9q.7-4.35 4.65-7.5 3.65-2.95 7.95-3.3 6.2 1.55 10.8 3.1.65 6.45-4.45 11.55-4.65 4.7-9.15 4.1-2.6-.3-5.35-2.55-2.65-2.2-4.45-5.4"/><path fill="#933000" d="M46.65 127.9q-3.25-7.9-2.45-13.75 5.75.75 15.05 2.95-5.1.55-8.8 4.2-3.2 3.1-3.8 6.6"/><path fill="#00568b" d="M91.4 142.5q3.25 2.2 6.7 3.35 3.55 1.2 5.45.55l8.55.55q5 .7 7.3 1.85-1.2 1.05-3.45 2.1-2.25 1-4.4 1.45l1.4 2.15.85 2.45q-2.05.05-5.35-1.1-3.55-1.3-6.3-3.25.2 3.4-.25 6.7-3.55-2.05-6.8-7.25t-3.7-9.55"/><path fill="#bd986a" d="M43 31.1q3.8-1.8 8.6 8.15 4.55 9.35 6.05 20.2-.6 2.2-.6 4.65 0 1.45-1.35.7t-1.35-2.5q0-6.05-2.85-15.7-3.55-11.9-8.5-15.5M6.05 59.7q2.85 4.7 9.15 10.25 6.2 5.45 12.5 8.85 1.6.85 1.55 2.4t-1.2 1.05q-2.55-1.1-4.75-1.7-6.55-5.15-11.1-10-6.75-7.2-6.15-10.85M17 80.7q1 2.1 3.2 3.85 1.65 1.3 3.4 2.05 1.5.65 1.1 1.85-.45 1.2-1.65.6-2.4-1.15-4.7-3.7-2.8-3.1-1.35-4.65m-5.85 7.5q1.8 2.7 5.8 5.9 3.85 3.15 6.65 4.25 1.65.65 1.25 2.05-.35 1.35-1.9.75-3-1.15-7.4-5.2-5.35-4.85-4.4-7.75M7.3 108.95q-7.6-6.25-5.7-10.3 2.15 4.8 8.55 9 5.6 3.6 10 4.3l.8.55q.45.5.5 1.05l-2.05 1.5q-4.9-.15-12.1-6.1m.3 21.25q4.4.4 9.85-1.35 5.7-1.8 8.65-4.7l1.8.05q1 .8.1 1.55-1.2.95-2.7 2.6-4.85 2.75-10.4 3.6-6.25 1-7.3-1.75m27.9 5.65-.5 2.7q-3 1.75-7.2 2.95-4.25 1.2-5.8.7-.5-.15-.65-1.15-.15-.9 0-1.75 1.65.65 6-1.05 4.25-1.65 5.95-3.5.7-.75 1.5-.35.85.4.7 1.45m27.3 5.65q-.75 4.15-2.25 7.7-1.8 4.35-3.6 4.5-1.8.1-4.75-3.3-2.65-2.95-3.35-4.95-2.5 2.4-6.85 4.9-4.65 2.65-5.75 1.9-.65-.45-1.3-3.1-.7-2.8-.4-4.8.55 1.8 1.85 2.7 1.2.9 2.55.65 2-.3 4.6-1.5 2.9-1.4 4.6-3.15 1.45-1.5 2.45-1.25.9.25 1.2 1.8.3 1.75 1.35 3.2 1.25 1.7 2.8 1.85 1.35.05 3.75-2.6 2.3-2.5 3.1-4.55m15.6.65-.3-2.7q.65.95 2.25 1.55l2.35.3q.75-.2 1.45-1.75.8-1.7.9-4.15.65 2.75.55 6.1-.15 3.55-1.15 3.95-1.3.45-3.45-.95-1.8-1.15-2.6-2.35"/><path fill="#bd986a" d="M77.75 139.5q1.2 3.8.5 9.6-.75 6.2-3.05 6.85-2 .65-6.55-3.75-4.2-4.05-6.4-8l.85-2.9q2.25 3.95 6.25 7.7 3.8 3.55 4.9 3.2.9-.25 2.3-5.2 1.45-5 1.2-7.5m7.4-4.35q3.35 2.9 8.9 5.6 5.45 2.7 6.45 2 1.3-.9-.3-6.75-1.5-5.6-3.2-7.6l3.5.25q2.3 4.25 3.3 10.05 1 5.95-.5 7.35-1.5 1.45-7.8-1.3-6.3-2.8-9.95-6.45z"/><path fill="#bd986a" d="M114.55 126.85q-9.3 2.55-17.1 1.8-1.65-.1-1.6-1.75.1-1.6 2.15-1.45 5.2.4 14.2-1.4 9.8-1.95 12.85-4.65 0 4.55-10.5 7.45m-14.8-17.55q4.7-.4 10.1-2.4 5.75-2.1 7.45-4.35 1.75 2.35-4.05 5.45-3.9 2.05-9 3.6l-4.85.5q-1.55.35-1.55-1.15.05-1.5 1.9-1.65m8.8-12.35q3.4-1.75 4.85-3.25.65 2.3-3.25 5.2-3.3 2.4-6.75 3.45-1.3.4-1.5-1.15-.2-1.6 1.15-1.95 2.3-.6 5.5-2.3m-2.5-4.8-2.1.4-2.65.65q-1.6.35-1.6-1.3t1.9-1.9q6.2-.75 16.95-6.85 10.55-5.95 12.2-9.4 2.25 2.9-6.2 8.9-7.95 5.7-18.5 9.5m11.65-39.7q1.95 2.05-3.5 9.7-5 6.9-10.05 10.85-1.7.3-5.85 1.7-1.35.5-1.45-1-.05-1.5 1.25-1.9 3.75-1.1 10.7-7.9 7.1-6.95 8.9-11.45M89.5 30.3q3.5 1.2 0 13.7-3.15 11.2-7.9 19.5-1.75 1.55-5.15 6.5l-1.75-.05q-1.1-1-.35-2.05 4.05-5.45 9.75-19.2 5.85-14.2 5.4-18.4"/><path fill="#c7001a" d="M48.2 105.2q.9 3 4.7 3.75l6.5-.35q-1.05 1.35-3.3 2l-4.2.2q-2-.6-3.2-2.25-1.2-1.7-.5-3.35"/><path fill="#cf7487" d="M49.25 122.3q3.75-4.05 9.75-5.15l5.2 1.3 5.75 1.85q.2 2.9-1.25 6.45-1.6 3.8-4 5.65-.8-5.15-5.9-8.3-4.9-3.05-9.55-1.8"/><path fill="#004370" d="M91.5 142.7q2.95 1.85 6.2 3.1 2.1 2.25 7.5 5.8 5.1 3.3 8.9 5-2.3.55-6.1-.95-3.1-1.2-6.25-3.25.75 3.2.35 7.15-3.95-2.95-7-7.6-3.3-5.05-3.6-9.25m17.5 6.8 4.55-.4 4.9-.15q-.9.85-3.15 2.05-2.35 1.25-3.65 1.5zm-87.9 15.2q-.2 3.7-3.4 3.95-3.2.3-4.65-3.25l4.1.4q2.05-.2 3.95-1.1"/><path fill="#ac6c36" d="M41.05 15.45Q42.5 17 43.2 22.6q.6 4.65.35 8.05-1.7.7-3.55 5.6 1.1-4.55 1.3-11.15.15-5.2-.25-9.65m-27.3 36q1.2 4.2 7.05 6.55l-6.5-.65q-.85-1.25-1.05-2.9-.25-1.9.5-3m112.5-3.85q-6.15 7.65-14.15 23.45l-8 1.5 4.9-3.95q3.45-3 6.85-8.6 3.55-5.75 2.6-7.25-.35-.6-1.65-.9l-2.85-.2q2.75-3.85 10.65-8.7 8.25-5.05 13.6-5.8-6.9 4.2-11.95 10.45M113.6 94.2q-.35-.8-2.45-1.4-2.3-.7-5.1-.65 4.35-1.4 9.4-4 6.7 0 15.75-2.35 9.7-2.55 13.35-5.75.35 4.3-12.55 9.4-11.75 4.65-18.4 4.75"/><path fill="#ac6c36" d="M111.55 97.35q1.7-1.75 2.05-3.15l6.35-.8q.7 4.2.25 10.3-.45 6.55-1.9 11.1-2.05-1.1-6.5-2.1l-8.2-1.2q4.7-1.2 9.15-3.45 5.05-2.55 4.95-4.25-.1-1.25-3.5-2.45-2.85-1-6.25-1.45 1.8-.6 3.6-2.55m-.05 30.45q-4.05 5.05-8.3 7.6-1.6-5.05-2.7-6.75zm-2.65-59.35 2.55 3.15-6.65.9zm28.35 80.25q-3.85 6.35-7.9 9.2-1.4.1-3.45.8-1.1.4-1.3-.8t1-1.55q3.95-1.35 8.55-7 4.55-5.6 6-10.7 1.25 3.25-2.9 10.05m-4.45 10.25q.8 2-3.85 3.9-4.2 1.7-6.95 1.55l-1.25-2.6 6.25-.35q4.05-.85 5.8-2.5M45.5 150.7q2.85 13.9 22.2 24.5 18.05 9.85 33.9 8.85 2.1 1.65 3.55 3.25-9.35 1.85-19.7.4-10.6-1.45-19.35-6-20.6-10.7-20.6-31"/><path fill="#ac6c36" d="M80.5 190.5q-2.65-2.55-4.2-4.7 4 1.35 12.4 1.95 7.45.55 11.95.15.55 1.3 1.3 4.3 2.3 0 3.05 2.2.7 1.95-.25 3.6.55 2.8-.3 5.2-.8 2.35-2.1 1.9-.9 1.7-2.85 1.95-1.75.25-3.05-.7-2.5.9-4.4-1.25-1.6-1.8-1.65-3.9-3.15.8-4.75-1.15-1.65-2.05 0-5.35-2.3-1.45-5.15-4.2m29.5-.25q3.7 3.8 6.6 7.95.45.6.4 1.45-.1.9-.7 1-.6 1.25.6 2.5 1.25 1.3 2.85.7 1.1-.35 1.45.65.55 1.75 3.65.85 3.15-.95 3.45-3.35.15-1.15 1.45-.9 1.9.4 3.4-1.5 1.55-2 .4-4.1 1.55.8 1.8 2.8.25 1.95-.85 3.2.7 2.3 0 4.7-.75 2.6-2.5 2.4-.8 1.55-2.55 2.05-1.7.45-2.7-.3l-3.1-.2q-2.05-.75-2.55-2.45-1.45-1.05-1.85-1.95-3.5.95-5.1-.95-1.55-1.85.2-4.15-2.15-3.95-5.1-8.05-4.2-6-7.65-8.55 3.5 1.2 8.4 6.2M33 160.3q3.5 1.1 7.55 1.2l6.8-.55q1.8 5.5 4.25 8.55-4.25.55-10.6-.15-7.65-.8-10.75-3 3.2-3.6 2.75-6.05"/><path fill="#ac6c36" d="M33.25 159.5q.35 2.4-.7 4.35-.95 1.8-2.85 2.8.6 6.55-4.25 7.7l-3.7-.25q-1.8-.7-2.4-2.05 2.75 0 5.3-2.85 2.45-2.75 2.95-6.25 1.7.1 3.35-.9t2.3-2.55"/><path fill="#ac6c36" d="M27.45 159.95q.5 3.85-1.7 7.75-2.45 4.2-6.1 4.3-4.05.1-7.1-3.55t-3-8.35l1.3 3.45q.7 1.35 2.2 1.85 1.45 3.55 4.65 3.25 3.2-.25 3.4-3.95l3.7-2q2.2-1.4 2.65-2.75M45.65 1.3q6.8 2 11.5 22.05 4.5 19.1 1.9 27.3H55.7q1.2-10.1-1.8-25.8Q50.8 8.3 45.65 1.3"/><path fill="#0f141b" d="M119.45 52.15q1.3 2.55-3.7 9.6-4.85 6.85-10.5 10.95l-3.4.65q5.1-3.2 10.9-10.8 5.7-7.45 4.7-9.15-.65-.85-5.4-.7-5.3.2-11.2 1.7Q84.2 58.7 77 69.65q-.8 1.25-1.3.9-.5-.3.25-1.55 7.45-12.35 25.3-16.8 6.6-1.7 12.2-1.6 5.25.1 6 1.55"/><path fill="#0f141b" d="M102.15 92.4q7.55-1.5 17.95-7.9 10.6-6.55 10.15-9.75-.3-2.15-10.75-2.4-11.25-.25-20.55 2.55-1.25.4-1.45-.15-.2-.5 1-1.05 8-3.35 20.65-3.15 12.75.2 13.25 3.9.6 3.85-8.65 9.95-8.5 5.55-16.95 8.05zm-11.4-49.75q-2.7 11-8.5 20l-2.95 2.6q5.1-8.2 8.8-20.55 3.55-12.1 1.55-13.2-1.45-.75-6.15 1.3Q78.4 35 73.25 39q-14 10.85-15.7 24.35-.15 1.3-.75 1.25-.55-.05-.5-1.35.85-14.55 15.35-25.8Q77.2 33.15 82.8 31q5.3-2 7.45-.95 3.2 1.55.5 12.6"/><path fill="#0f141b" d="M43.65 31.85q-2.45.45-4.25 12.65-1.9 13.05.35 22.65l-1.6-1.55q-2.25-9.7-.25-22.7 1.95-12.95 5.6-13.3 3.8-.4 8.35 8.3 4.7 9 5.95 20l-.85 3.4q-.85-10.45-5.6-20.4-4.55-9.6-7.7-9.05"/><path fill="#0f141b" d="M21.25 59.15q-5.45-1.2-9.5-.9-4.25.3-5.05 2.05-.9 2 6.3 9.7 6.9 7.4 12.5 11.05l-3.1-.6q-5.65-3.65-11.9-10.4-7.1-7.65-5.85-10.5 1.1-2.45 5.8-3 4.45-.55 10.5.7Q35.1 60.2 40.8 67.75q.6.8.1 1.15-.45.35-1.1-.4-5.4-6.55-18.55-9.35"/><path fill="#0f141b" d="M15.2 80.55q1-2.1 5.2-1.4 3.25.55 7.3 2.4.95.4.85.85l-1.1.05q-3.8-1.35-6.9-1.5-2.85-.15-3.2.65-.4.9 1.3 2.85 1.75 2 4.35 3.6 1.1.65.8 1.05l-1.4-.1q-3.25-1.45-5.55-3.95-2.45-2.7-1.65-4.5"/><path fill="#0f141b" d="M22.3 88.65q-3.25-1.2-6.9-.9-3.35.3-3.65 1.35-.4 1.4 3.45 5.3 3.95 4 7.9 5.85 1.05.5.75 1.05l-1.25.1q-4.85-2.05-9.2-6.4-4.4-4.35-3.75-6.5.45-1.7 3.95-2.25l6.4.3z"/><path fill="#0f141b" d="m17.65 97.3 2.8 2.2q-5.5-2.05-11.75-1.95-6.1.05-6.55 1.9-.9 3.65 5.55 8.95 6.3 5.2 12.4 6.15l-1.6 1.05q-6.6-1.25-12.9-6.7-6.55-5.7-5.5-10.05.6-2.45 6.15-2.95 5.55-.45 11.4 1.4"/><path fill="#0f141b" d="M21.7 113.55q.3.45-.6 1-4.5 2.95-8.75 8.65-4.1 5.45-3.45 7.1.7 1.85 7.2.55 6.55-1.3 10.15-4.1l-1.6 2.5q-3.9 2.7-10.15 3.6-6.6.9-7.65-1.7-1-2.5 3.9-8.65 4.75-5.95 9.7-8.85z"/><path fill="#0f141b" d="M22.9 135.05q-1.5 4.8-.5 5.95l4.4-.15q4.25-.95 8.3-3.05l-.15 1.7q-3.9 2.2-8.55 3.3l-5.65-.15q-1.45-1.9.2-7.45 1.8-6.2 6.15-9.7.9-.7 1.25-.25.4.45-.45 1.25-3.35 3.15-5 8.55"/><path fill="#0f141b" d="M50.4 144.25q-3 4.25-8.1 7.1-4.9 2.8-6.85 1.7-1.9-1.05-1.95-6.5 0-4.8 1.25-10.05.3-1.3.85-1.2.55.05.35 1.35-.65 4.9-.45 9.55.2 4.4.95 4.85 1.5.85 6-1.8 4.55-2.65 7-5.8.7-.95 1.2-.55.45.4-.25 1.35"/><path fill="#0f141b" d="M63.3 142.35q-.65 4.35-2.55 8.2-2.05 4.25-4.1 4.3-1.85.05-4.4-2.8-2.35-2.6-3.95-6.1l1.2-1.3q1.4 3.15 3.75 5.65 2.2 2.3 3.45 2.3.95 0 2.8-3.45 1.85-3.5 2.75-7.1.3-1.25.8-1.1t.25 1.4"/><path fill="#0f141b" d="M78.75 140.2q1.1 5.15.2 10.5-.95 5.75-3.55 6.4-2.3.6-6.95-3.95-4.2-4.05-6.4-8.1l.65-1.7q1.9 3.7 6.1 7.8 4.4 4.25 6.2 3.85 1.35-.25 2.25-4.85.85-4.8.25-9.75-.15-1.1.4-1.2.6-.1.85 1"/><path fill="#0f141b" d="M78.45 140.8q1.2 1.8 3.1 3 1.75 1.15 2.45.8.55-.3.8-3 .2-2.75-.15-5.5-.1-1 .45-1.1.6-.05.8.95.65 3.35.6 6.25-.1 3.9-1.65 4.6-.95.45-2.9-.5-2-1-3.4-2.8z"/><path fill="#0f141b" d="m85.55 139.2-.1-1.9q3.5 3.3 9.7 6.25 6.35 2.95 7.5 1.7 1.2-1.3.05-7.35-1.1-5.75-3-9.3h1.6q2.15 3.8 3.35 9.9 1.3 6.6-.4 8.4t-8.15-.9q-6.25-2.7-10.55-6.8"/><path fill="#0f141b" d="M97.75 129.1q-1.1-.15-1.05-.75.05-.55 1.15-.5 9.45.55 18.2-2.4 8-2.7 8.2-5.35.15-2.35-7.9-5.2-8.6-3.05-16.6-2.45-1.25.1-1.3-.45t1.2-.8q8.25-1.45 17.85 2.1 9.25 3.4 9 7.05-.25 3.6-9.6 6.75-9.8 3.25-19.15 2"/><path fill="#0f141b" d="M107.25 99.8q3.9-.55 7.85.75 4.05 1.35 4 3.35 0 1.8-4.4 4.35-4.5 2.55-9.5 3.45l-4.65-.35q5.6-1 11.1-3.7 5.1-2.55 5.05-3.8-.1-1.3-4.2-2.25l-7.6-.3z"/><path fill="#0f141b" d="M112.9 97.85q-3 2.7-9.2 4.6-1 .3-1.25-.25-.2-.55.85-.95 4.3-1.75 7-3.8 2.4-1.85 2.25-2.8-.2-1.05-3.4-1.45l-7.55.25q-1 .2-1.1-.35-.15-.55.85-.85 4.15-1.35 8.65-.75 4.55.6 4.9 2.6.3 1.65-2 3.75m-22.65-40.5-5.1-2 1.05-2.4q3.8 1.35 7.05 2.9zm30.9 35.85q1.4 11.55-1.8 21.95l-2.35-.8q2.95-10.05 1.7-20.65zm-7.65 34.15q-4.45 6.1-10.4 9.4l-.5-2.05q4.2-2.65 7.5-6.8zM55.35 50.1l6.55-.7-1.1 2.2-4.95.45z"/><path fill="#0f141b" d="M113.6 93.2q6.55-.1 18.25-4.8 11.9-4.7 11.7-7.4-.05-.95-4.35-1.35l-7.75.3 1.45-1.85q4.3-.75 8.5 0 4.5.85 4.6 2.8.15 3.8-12.25 9.05-11.8 5-20.05 5.45l.05-.4zm11.65-49.7q-6.25 3.8-10.6 8.35h-2.75q5-5.55 12.45-9.9 7-4.15 12.9-5.4l1.55.15q.1.45-1.3.95-6.2 2.1-12.25 5.85M45.8 2.3q-2.05 0-6.15 4.95-4.3 5.3-7.95 12.8Q22.05 40 25.65 56.4q.25 1.25-.3 1.4-.5.1-.9-1.05Q19.2 40.4 29.6 19.2q4-8.15 8.85-13.8Q43.15-.05 45.9 0q2.2.05 5.15 4.45 3 4.5 5.45 11.6 6.05 17.55 3.95 34.65l-2.35.05q2-16.15-3.75-33.35-2.2-6.5-4.8-10.95-2.4-4.15-3.75-4.15"/><path fill="#0f141b" d="M24.8 56.25Q22.75 54 18.85 52.7q-3.45-1.2-4.35-.6-.7.5-.4 2 .3 1.6 1.55 3.25l-1.95.15q-1.25-1.95-1.5-4.05-.25-2.15.8-3.05 1.15-1.05 5.25.25 4.15 1.3 6.3 3.45zm17.8-25.3q.65-7.75-1.4-14.9-.3-1.15.15-1.3.5-.15.9.95 1.25 3 1.9 7.35.75 4.45.4 7.75zm86.15-2.5Q106.05 36.3 91.5 56.7l-2.25-1.05Q104.4 34.4 127.9 26.2q8.5-2.95 16-3.5 6.55-.4 8.45 1 1.8 1.35 1.1 8.05-.75 6.6-3.55 15.4-6.95 21.65-17.95 33.2-.9.9-1.3.55-.45-.35.35-1.4 10.55-13.25 16.9-33.8 2.4-7.85 3.3-13.85.8-5.65-.2-6.35l-7.25-.4q-7.15.65-15 3.35m-93 51.95q3.5-3.95 7.8-2.9 3.25.75 4.65 5.65 1.55 5.55-.6 13.5-2.1 7.95-5.95 11.15-3.6 3-7.6 1.25-3.35-1.5-4.15-7.05-.65-4.75.7-10.55 1.7-7.25 5.15-11.05m-3.4 11.55q-1.35 5.95-.85 10 .5 4.25 3 5.65 2.7 1.5 5.75-1Q44 103.65 46 96q1.85-6.95.9-12-.85-4.5-3.3-5.25-3.3-1.05-6.35 2.3-3.25 3.6-4.9 10.9m59.6-.8q1.45 5.25-.55 13.15-1.85 7.3-5.7 10.95t-8.4 2.25q-3.75-1.2-5.3-6.1-1.7-5.3.1-12.85Q74 90.5 78.5 86.8q3.9-3.3 7.85-2 4.2 1.35 5.6 6.35m-5.35-5q-3.6-1.2-7.3 2.4-3.8 3.7-5.4 10.35-1.6 6.85-.4 11.85 1.1 4.7 4.1 5.6 3.25.95 6.75-2.45 3.85-3.7 5.65-10.7 1.7-6.4.6-11.35-1.05-4.75-4-5.7"/><path fill="#0f141b" d="M83.15 87.85q3.35-2.8 5.8-1.3 4.75 2.95 1.45 16.95-1.35 5.8-4.25 9.4-3.05 3.75-5.8 2.55-2.5-1.1-3.4-5-1.05-4.4.35-10.95 1.75-8.25 5.85-11.65m-26.2 23.25-5.25.25q-2.5-.6-3.9-2.65-1.3-1.85-.75-3.45.85-2.4 7.1-1.15 6.35 1.25 6.05 4.35-.15 1.75-3.25 2.65m-3.15-5.55q-5-1.05-5.35.3-.3 1.2.9 2.6 1.15 1.4 2.55 1.7l4.4-.25q2.3-.7 2.4-1.55.2-1.75-4.9-2.8m16.55 15.35q.65 6.1-3.5 11.2-4.35 5.3-10.35 4.6-6.2-.7-9.95-7.55-3.6-6.55-2.85-14.65.05-.8.85-.75 3.95.25 11.85 2.1 7.9 1.8 12.55 3.55l1.15.6zm-25.4-5.8q-.5 7.35 3.05 13.4 3.55 6.1 8.7 6.55 5.1.5 9.05-4.65 3.65-4.75 3.3-9.7-3.8-1.3-11.5-3.15-8.45-2.05-12.6-2.45"/><path fill="#0f141b" d="M46.5 127q.85-4.45 4.25-7.2 3.55-2.85 8.55-2.65l2.95.9q-5.5-.6-10.15 2.8-4.6 3.35-4.6 7.9zm30.95 57.9q12.4 3.2 27.3 1.8l1.2 1.6q-13.9 1.6-26.25-.95-14.65-3-23.75-11.35-11.75-10.8-11.45-27.25l1.75-1.2q-.15 8.05 2.65 14.9t8.35 11.95q7.9 7.25 20.2 10.5M28.7 151q2.9-1.2 6.15-2.05l.3 1.95q-3.05.6-5.95 1.7zm-8.55 20.85q1.95 3.15 5.75 1.6 3.95-1.6 2.95-6.7l1.6-.55q1.9 7-4.05 8.95l-4.7-.1q-2.5-.9-3.45-3.25z"/><path fill="#0f141b" d="M29.6 155.1q4.65.5 4.6 5.85-.1 5.4-5.4 6.45-.85.15-.95-.4-.15-.55.65-.8 3.6-1.2 3.75-5.15.1-3.9-3.05-4.5z"/><path fill="#0f141b" d="M27.05 147.7q5.2 3.15 2.65 9.3-.45 1-.9.85-.5-.15-.2-1.25 1.35-5.25-2.4-7.45-1.45-.85-3-.55t-2.3 1.75l-1.65-.9q1.15-2.25 3.5-2.65 2.15-.4 4.3.9"/><path fill="#0f141b" d="M22.9 151.85q-1.35.05-2.25 1.3-1 1.35-1.1 3.55-.05.95-.45.95-.45 0-.5-.95-.2-2.85 1.25-4.8 1.25-1.75 3-1.85 2.15-.1 3.75 2.8 1.75 3.15 1.75 8.1 0 4.2-1.9 7.35-2 3.25-5.4 4.05-3.45.85-7-1.45-3.95-2.6-5.2-7.85-1.35-5.7.95-9.8 2.25-3.95 6.25-3.7l-1.4 1.75q-2.35.3-3.6 3.5-1.4 3.5-.35 7.9 1 4.1 3.95 6.6 3 2.45 6.1 1.75 2.5-.6 4.2-3.55 1.6-2.9 1.6-6.6 0-4.25-1.2-6.85-1.1-2.25-2.45-2.2"/><path fill="#0f141b" d="M21.25 151.55q-2.2-2.25-4.8-.85-2.7 1.5-2.25 5.55.1.95-.3 1.05t-.65-.85q-1.4-5.55 2.9-7.45 4.15-1.9 6.75 1.8zm.5 13.7q-.3 2.05-1.7 3.1-1.75 1.3-3.95.75-2.2-.6-3.35-2.6-1.25-2.2-.8-4.45.45-2.15 2.15-3l3.85-.2q1.75.65 2.9 2.4 1.2 1.8.9 4m-7.1-5.15q-1.15.6-1.4 2.4-.2 1.8.65 3.25.95 1.65 2.75 2.05 1.6.4 2.6-.35 1.05-.8 1.15-2.5.1-1.65-.7-2.95-1-1.6-2.6-2.05zm15.9 6.1q3.85 1.8 10.25 2.35 5.2.45 10.35.05l.95 1.95-10.85-.3Q33.7 169.3 29.3 167zm46.1 18.7q5.7 6.8 10.8 10.35 1 .7.65 1.15l-1.3-.1q-5.45-2.9-11.15-9.55z"/><path fill="#0f141b" d="M86.45 195.45q-1.6 2.3-.1 4.25 1.55 1.95 3.9.65l.7 1.5q-3.4 1.9-5.85-.9-2.55-2.85.05-6.45z"/><path fill="#0f141b" d="M93 203.7q-2.25-.9-3.4-3.4-.5-1.1-.05-1.35t1 .8q.9 1.7 2.65 2.25 1.6.5 3.25-.05 2.95-1 3-3.65 0-1.05.45-1.15.45-.15.6.9.25 1.8-.65 3.4-1 1.65-2.9 2.3-2 .7-3.95-.05"/><path fill="#0f141b" d="M106.05 195.9q-.05 2-1.5 3.2-1.75 1.4-4.75 1.05l.25-1.35q4.3.4 4.45-2.8.05-1.25-.8-2.2-.9-1.05-2.3-1-.95.05-1-.5t.9-.7q2.15-.35 3.55 1.05 1.25 1.3 1.2 3.25"/><path fill="#0f141b" d="m101.55 187.8 1.3 4.35-1.8.15q-.5-2.25-1.35-4.3zm2.55 10.3 1.3-1.8q.55 2.7.35 4.95-.15 2.15-1 3.35-1.35 1.85-3.3.95-2-.95-1.7-3.85.1-.85.3-.9.2-.1.35.7.5 2.35 1.9 2.6 1.25.25 1.7-1.1.6-1.8.1-4.9"/><path fill="#0f141b" d="M103.15 205.5q-1.85 3-5.1 2.45-3.4-.6-3.85-4.75l1.55-.25q.45 3.1 2.7 3.4 2.05.35 3.35-1.7z"/><path fill="#0f141b" d="M97.25 207.1q-2.85 1.15-5.25-.9t-2.15-5.05l1.55.8q.2 1.9 1.7 3.1t3.15.55zm12.5-15.3q3.05 4.15 5.35 8.3l-1.4 1q-2.5-4.55-5.2-8.45-3.7-5.3-6.65-7.45-1.05-.75-.7-1.25.3-.5 1.35.25 3.15 2.1 7.25 7.6"/><path fill="#0f141b" d="M115.95 199.6q.85-.05.9.5t-.8.75q-1.6.35-1.8 1.6-.2 1.15 1.05 2.15.75.6 1.9.65l2.2-.45 1.1.1q.25.45-.5.95-1.25.95-2.95.95-1.65.05-2.8-.85-2.1-1.65-1.5-3.9t3.2-2.45"/><path fill="#0f141b" d="m124.85 208.6-3.45-.15q-2.2-.7-2.85-2.6l1.2-.65q.7 1.25 2 1.7 1.25.4 2.75 0 4-.95 4.35-4.05.1-.85.65-1 .5-.1.6.75.2 2.2-1.25 3.85-1.45 1.55-4 2.15"/><path fill="#0f141b" d="M134.4 195.15q1.8 1.3 1.85 3.55t-1.65 3.75q-1.9 1.7-5.15 1.45l-.05-1.35q5.35-.5 5.05-4.1-.1-1.45-1.4-2.3-1.5-.95-3.75-.65-1 .1-1.05-.45-.1-.6.85-.8 3.3-.6 5.3.9"/><path fill="#0f141b" d="M135.05 200.4q1.1 3.05.1 6.1-1 3-2.95 3-1 0-1.95-1.25-.95-1.2-1.35-2.95l.85-1.6q.35 1.8 1.05 2.95.75 1.15 1.45 1.1.9-.05 1.45-1.75.6-1.85.1-3.95z"/><path fill="#0f141b" d="M132.6 208.9q-1.2 2.7-4.25 2.6-3.2-.1-4.15-3.6l1.45-.5q.65 2.4 2.65 2.6 1.9.2 2.8-1.65z"/><path fill="#0f141b" d="M127.4 210.65q-1.55 1.4-4.2.35-2.75-1.05-3.05-3.75l1.7.4q.7 1.85 2.05 2.4 1.25.5 2.45-.35zm-16.65-60q16.1 8.6 20.3 44.1l-1.6.1q-1.95-14.85-6.25-25.3-4.45-10.8-10.8-15.35zm-18.6-7.8q.95 4.05 3.4 8.25 2.65 4.5 5.75 6.9.15-3.45-.1-5.95l1.7 1.1q.25 2.4 0 6.6l-.35.75-.9-.25q-4.2-2.55-7.2-7.75-2.9-4.9-3.75-10.4z"/><path fill="#0f141b" d="M103.45 145.6q3.7 1.05 7.3 4.7 3.45 3.5 4.2 6.6.15.6-.05.85l-.95.25q-2.75 0-6.85-1.75-4.25-1.8-6.7-4.2-.8-.8-.45-1.25.4-.4 1.25.3 2.3 1.9 5.65 3.3 3.2 1.35 5.85 1.6-1.05-2.75-4.05-5.55-3.05-2.9-6-3.7z"/><path fill="#0f141b" d="M119.5 147.85q1.25.7.15 1.75-1.2 1.15-3.3 2.15l-4.25 1.4-1-1.7q3.85-.7 6.1-2.4-2.1-.75-5.4-1.3l-6.2-.6-2.45-1.4 9.05.4q5.5.75 7.3 1.7"/><path fill="#0f141b" d="M129.8 141.8q-9.2 5.1-13.5 14.15l-1.7-1.2q4.4-9.4 14.55-14.4 3.8-1.9 7.25-2.55 3.2-.6 4.3.05 1.95 1.3-1.35 8.75-3.5 8.05-9.2 11.25h-3.05q5.55-2.1 9.9-10.4 1.55-3 2.35-5.7.75-2.5.3-2.8l-3.45.2q-3.05.8-6.4 2.65"/><path fill="#0f141b" d="M131.4 157.25q2.55.4 2.8 1.65.4 2.05-3.3 4.15-3.9 2.15-8.55 2.1l-.75-1.35q3.2.4 7.05-1.5 3.65-1.85 3.25-3.05-.15-.6-1.8-.7l-3.65.35q-1.1.25-1.2-.3-.15-.55.9-.9 2.65-.85 5.25-.45M34.6 92.4q1.95-7.55 5.2-10.9 2.85-2.95 5.65-1.8 2.1.9 2.45 5.75.3 4.65-1.15 10-1.8 6.45-4.5 9.8-2.6 3.15-5.05 2.3-2.5-.8-3.2-5.8-.65-4.6.6-9.35"/><path fill="#fff" d="M45.3 82.5q.85.15 1.2 1.6.3 1.35.05 3.1-.3 1.85-1.1 3.1-1 1.45-2.2 1.15-.95-.25-1.3-1.6-.35-1.45.05-3.4.45-2.1 1.35-3.15.85-1 1.95-.8m42.3 7.3q.95.3 1.2 1.8.25 1.45-.25 3.6-.5 2.25-1.55 3.5-1.05 1.15-2.05.9t-1.3-1.9q-.35-1.7.25-3.95.55-1.95 1.6-3.1t2.1-.85"/><path fill="#d28444" d="M71.8 164.9q1.95-2.55 3.95-4.25 3.4-2.85 13.25 4.15 4 2.8 6.15 5.55 2.4 2.95 1.25 4.25-2.6 2.95-9.55 6.15-5.9 2.7-9.85 3.55-.2 1.7-2 3.7-1.8 1.95-3 2.05.35 5.05-4.15 6.7-4.4 1.65-6.85-1.8-2.9.05-6.2-2.35-4.15-3-4.8-7.75-.8-5.6 1.5-9.6 2.15-3.65 5.1-3.4.95-1.05 2.75-1.25.9-2.45 4.1-2.65 2.95-.2 5.6 1.35.95-2 2.75-4.4"/><path fill="#00568b" d="M64.35 185.9q.35 1.7-.55 3.2-1 1.75-3.3 2.2-1.95.4-3.5-.55-1.65-1-2-3-.3-1.85.85-3.4 1.15-1.65 3.05-1.85 1.85-.2 3.5.8 1.6 1 1.95 2.6"/><path fill="#ac6c36" d="M76.8 184.2q.45-2-.15-4.85 3.75-.1 10.2-1.9 6.4-1.75 9.6-3.55-2.9 3.4-9.5 6.75-6.15 3.05-10.15 3.55"/><path fill="#ac6c36" d="M76.65 179.35q1.15 3.8-.4 6.85-1.4 2.6-4.35 3.95.2 4.6-4.05 6.6-4.25 1.95-6.65-1.95 3.65-.4 6.3-3.6 2.2-2.65 2.85-5.75 1.7-.3 3.55-1.9 2.05-1.85 2.75-4.2"/><path fill="#ac6c36" d="M57.2 190.75q1.4.9 3.15.6 3.95-.55 3.85-4.45 5.5-3.65 5.85-7 1.6 4.3-.95 9.3-2.8 5.3-7.9 5.6-5.2.3-8.65-4.4-3.3-4.5-2.75-9.95.7 3.6 2 5.5 1.3 1.95 3.55 2.6.6 1.45 1.85 2.2"/><path fill="#004370" d="M60.2 191.35q-1.75.3-3.15-.6-1.25-.75-1.85-2.2l4.7.15q2.4-.45 4.45-1.8.05 1.7-1 2.9-1.1 1.25-3.15 1.55"/><path fill="#0f141b" d="M67.95 169.35Q70.5 164 75 160.6q.85-.65 1.25-.3t-.4 1.1q-3.9 3.55-6.5 9zm8.75 14.15q11.1-2.55 18.9-9.3.9-.75 1.3-.3t-.45 1.25q-3.85 3.7-9.05 6.35-5.3 2.7-10.9 3.8zm-4 6q1.3 5.6-3.9 7.9-5.15 2.35-8.4-2.3l1.45-.4q2.55 2.75 6.15.95 3.55-1.75 3-5.65z"/><path fill="#0f141b" d="M71.05 173.9q2.95-.1 4.9 2.3 1.75 2.2 1.9 5.45.15 3.35-1.4 5.8-1.8 2.75-5.15 3.2-.9.15-1-.4-.05-.55.8-.8 5.3-1.35 5.05-7.45-.05-2.55-1.35-4.3-1.4-1.9-3.65-2z"/><path fill="#0f141b" d="M58.3 170.65q1.1-2.25 3.55-3.1 2.35-.8 4.8-.05 5.95 1.85 5.25 8.5-.1 1.05-.6 1-.55-.05-.5-1.1 0-5.1-4.35-6.7-4.15-1.5-6.2 1.5z"/><path fill="#0f141b" d="M55.8 172.75q-2.3.4-3.8 3-1.75 3-1.25 7.6.55 5.1 3.7 8.05 2.85 2.7 6.65 2.7 3.2 0 6-3.4 2.85-3.5 2.65-7.4-.2-4.75-1.65-7.45-1.3-2.55-3-2.35-1.15.15-2 1.95-.85 1.9-.6 4.05.1.75-.35.85-.4.1-.6-.6-.7-2.5.35-5.05 1.05-2.6 2.85-2.8 2.5-.3 4.4 2.5 2.05 3.15 2.25 8.85.15 4.55-3.05 8.4t-7.2 3.9q-4.55.1-7.85-2.95-3.6-3.3-4.3-9.15-.65-5.75 2.3-9.5 2.65-3.35 5.85-2.85z"/><path fill="#0f141b" d="M60.25 169.9q2.45.25 4.35 2.45l-1.35 1.2q-3.3-3.75-6.3-1.05-3.05 2.7-.5 7.55.45.9.05 1-.35.15-.85-.65-1.8-2.85-1.5-5.55.3-2.35 2.1-3.8 1.75-1.4 4-1.15m-6 17.25q-.1-2.2 1.35-3.65t3.85-1.55q2.35-.1 3.95 1.3 1.65 1.45 1.65 3.8 0 2.15-1.5 3.5-1.5 1.4-3.85 1.4-2.3 0-3.75-1.25-1.6-1.3-1.7-3.55m2.5 2.65q1.2 1.05 2.95 1.05 1.9 0 3-1.2 1-1.1 1-2.6 0-1.8-1.2-2.85-1.15-1.1-3-1.1-1.65.05-2.8 1.2t-1.15 2.9q0 1.55 1.2 2.6"/></svg>