<svg xmlns="http://www.w3.org/2000/svg" width="296" height="325" viewBox="-1.4 -0.8 295.5 324.9"><path fill="#d28444" d="M105.25 287.45q1.8-8.5 2-16.4.1-5.1-1.55-6.85l-2.45-2.6-2.95-3.75-2.65-.15q1.45 8.6-2.8 23.2-4.6 16-13.3 28.4-1.75 2.55-3.25 3.65-2.4 1.75-6.1 2-4.4.3-9.05-.15-5.6-.5-9.55-2-5.3-2-5.5-7.8-.1-2.45 2.9-4.85 2.4-1.95 5.6-3.1 4.6-1.5 7.2-6.45 1.5-2.85 2.7-10 .95-5.6 1.5-12.3.4-4.6-2.5-9.4-3.65-6.25-5.8-16.75-2.05-10.1-1.25-16.45l17.65-15.5 152.45 13.15 26.35 37.2q.5 1.35 2.05 3.35l2.7 3q3.45 3.15 2.95 7.75-.45 4.95-1.95 32.65-.3 5.55-6.2 12-1.7 1.75-6.2 2.6l-10.55.35q-5.85-.5-9.25-2.6-3.25-2-3.35-4.85-.15-2.65 1.35-4.95 1.4-2.15 3.6-3.1 4.15-1.7 4.75-6 .4-3 .3-10.1-.1-2.6-.6-4.05-.7-2.05-2.5-3.6-6.35-5.5-9-9.7l-.45 4.6q-2.65-1.05-8-4.25-5.15-3.1-8.2-5.4.45 2.55-.35 6.9-.85 4.6-2.6 8.5l-6 14.1q-4.15 10.15-5.15 13-.95 2.65-3.85 4.9-2.55 1.9-4.8 2.3l-6.85.25-8.8-.55q-3.7-.4-5.75-2.85-1.8-2.15-1.8-5 0-2.6 1.9-4.9 1.95-2.3 4.55-2.65 4.5-.6 5.5-4.85.4-1.7.85-7.55l.4-8.8q0-3.05-1.25-7.05-1.3-4.15-3.4-7.5l-8-5.95-9.1-7.15q.3 4 .05 13.7-.25 9.05-.7 13.85l-5.85-3.55q-3.5-2.4-6.2-4.8-1 5.8-5.3 18.4-3.95 11.4-7.3 18.9-4 9.3-14.25 11.55l-9.1.45q-5.15-.45-9.85-2.4-5.4-2.15-5.4-6.8 0-2.15 1.6-4.2 1.65-2.1 3.8-2.45 3.95-.6 7.2-5.35 2.75-4.05 4.7-13.25"/><path fill="#00568b" d="M203.5 162.9q20.45-1.5 34.45 9.8 12.9 10.35 14.5 25.9 9.65 4.45 23.1 20.05 12.8 14.8 16.6 24.75l-14.1-.65q-9.6-1.05-16.25-2.75 2 3.95 4.35 12.6 2.1 7.9 2.5 11.8-9.4-.3-23.95-8.05-13.4-7.2-21.25-15 .45 4.95.1 17.05l-1 19.5q-6.45-2.2-17.7-10.95-10.2-7.9-17.9-15.9 1.55 4.1 3.15 13.5 1.45 8.2 1.7 12.6-6.95-1.35-19.6-8.9-11.55-6.9-20.55-14.4.25 5.35.15 13.7-.15 8.7-.6 13.4-9.75-3.7-22.55-19.6-11.75-14.6-17.95-28.75.2 3.3-.7 9.6-.8 6-1.8 9.3-6.5-2.5-16.95-13.6-9.7-10.3-14.2-18.45 0 6.05-2.45 14.6-2.65 9.35-5.75 11.9-2.6-1.95-5.7-8-2.6-5.1-4.65-11.2-.7 7.5 1.7 17.55 2.15 9.05 5.3 14.6-.45 1.3-1.85 3.2-1.35 1.95-2.45 2.8-2.85-2.45-5.45-12.9-2.3-9.3-2.45-15.45-1.8 2.85-6.35 7.45-4.9 4.9-8.25 6.9-2.6-8.6-.95-21.2 1.6-12.3 6-19.6-2.85.4-8.6 2.5-5.1 1.85-9.25 3.8.95-4.05 4.1-10.65 3-6.15 6.1-10.8 1.9.55 9.1-6.1 6-5.55 9.95-10.35l72.2-21.2q1.9 2.1 6.65 5.95 2.3 1.85 4.95 2.75 3.65 1.25 8.75 1z"/><path fill="#d28444" d="M150.8 28.45q-4.05 23.75-8.5 34.75l1.9-.15q2.2-2.8 6.55-5.45 4.4-2.7 5.95-2.2 1.75.6-.1 7.85-1.9 7.45-6.3 16.75-11.65 24.55-26.25 33.6.85 8.6.1 15.45 4.55-2.45 13-4.8 9.15-2.6 10.45-1.2 1.35 1.5-5.35 10.1-6.3 8.1-11.4 12.35 3-.85 5.5-1.05 2.8-.25 3.5.5 1.1 1.15-4.7 6.4-5.7 5.25-11.75 8.65l-101.7-4.8q-2.85-.55-7.75-4.2-4.9-3.7-4.7-5.25.2-1.35 4.05-1.95l6.05-.4q-4.95-3.95-11.85-12.7-7.05-9-5.95-10.4l9.7.3q8.5 1.75 12.95 4.3-.2-3.95.2-10.65.35-7.05 1.05-9.9-7.6-4.15-17.05-20.45-3.7-6.4-5.7-11.5-2.05-5.2-1.15-5.95 1.3-1.1 6.35 1.2 4.2 1.9 6.3 3.65-7.65-12-9.95-39.25Q3.35 21 4 13.1q.7-8.2 2.75-8.9 2.15-.75 8.9 5.1 6.95 6 14.9 15.7Q50.9 49.85 57.7 73.05q6.8-3.25 19.8-2.5 12.15.75 18.25 4 7.75-24.25 28.65-50.4Q133.1 13.3 140.5 7q7.5-6.45 10.65-5.5 4.1 1.25-.35 26.95"/><path fill="#eedcb3" d="M85.4 60.3q.75-2.4 3.35-5.7 2.85-3.55 4.35-3.15 2.25.6.85 12.85-1.35 12.2-4.35 19.3 12.3-9.2 35.75-16.3 9.5-2.85 16.3-3.85 6.95-1 7.7.45 1.55 2.95-8.05 12.85-9.55 9.85-18.45 14.65 3.75-1.15 10.35-1.25 7.1-.1 7.05 1.6-.15 2.95-20.6 12.55-19.85 9.3-29.1 11.35-.7 2.8-.65 9.7.05 5.55.45 9.5 12.2 2.3 22.65 12.65 8.7 8.6 15.15 21.5 5.35 10.8 7.5 20.75 2 9.3-.2 10.35-2.75 1.35-13.05-6.15-10.1-7.4-14.6-13.7 1.4 4.45 2.3 10.3 1.25 8-.65 8.4-3.35.7-11.85-11.15-8.55-11.95-11.1-21.05.5 3.9 0 10.3-.6 7.2-2.1 7.7-1.6.5-5.15-4.8-3.3-4.95-5.1-9.65-1.6 4.7-5.05 9.6-3.55 5-5.15 4.5-1-.3-1.3-5.95-.3-5.2.2-10.4-3.3 6.4-14.2 17.3-10.85 10.8-12.55 9.6-1.25-.85-.15-7.3 1.1-6.55 3.4-11.55-4.85 5.2-17.5 14.15-13.5 9.55-15.15 7.95-1.8-1.7.35-11.3 2.4-10.55 7.9-21.2 15.5-29.85 40.7-32.4 1.55-3.85 1.9-9 .35-4.7-.35-8.4-7.15-1.55-23.05-12-15.9-10.4-15.35-13.2.3-1.55 5.45-.95 4.4.45 8.85 1.9-5.35-6.75-13.15-19.2-9.5-15.15-7.75-16.7 1.6-1.45 9.15 1.55 7.05 2.8 16.45 8.25 22.55 13.05 28.9 22.6-1.95-16.2 3.15-43.85Q75 16.4 80.15 16.65q4 .2 5.45 16.55 1.35 14.8-.2 27.1"/><path fill="#fff" d="M46.65 111.2q5.5 2.65 10.55 4.7.55 4.55.15 9.5-.4 5.25-1.7 7.9-3.25.05-8.65 1.85-5.2 1.7-8.5 3.7-4.7-6-4.35-17.75.3-9.8 3-15.1 2.8 1.95 9.5 5.2m43.9 4.45q5.45-1.5 10.9-3.4 6.45-2.25 9.05-3.85 2.9 5.7 1.9 16.55-1.1 11.35-5.8 17.25-2.4-1.85-7.35-4.2-4.6-2.15-8.85-3.55-.55-3.8-.4-10.3.1-5.7.55-8.5"/><path fill="#0f141b" d="M44.25 109.75q3.45 2.1 8.75 4 1.1 6.15-.5 12.2-1.8 6.8-5.85 6.3-4.1-.5-4.5-9.3-.35-8.1 2.1-13.2M94 114.6q4.95-1.45 10.65-3.75 2.15 8.1.85 15.15-1.35 7.35-5.5 7.5-3.8.15-5.3-6.65-1.15-5.2-.7-12.25m-30 24.45q0-1.5 3.2-2.35l7-.65q10.15.25 10 3.9-.1 2.05-3.5 4.8-3.65 2.95-6.95 2.85-3.35-.05-6.65-3.2-3.1-2.9-3.1-5.35"/><path fill="#00568b" d="M263.05 95.1q-3.55 28.35-7.55 40.2 3.15-4.9 7.8-9.15 5.05-4.6 6.95-3.6 1.5.75-.55 7.55-2.1 7.1-6.45 15.25-11.85 21.95-26.1 26.7Q233.1 168 224.9 165q-.6-29.35 16.3-67.65 6.4-14.55 12.9-24.55 6.25-9.6 8.6-9.1 4.2.85.35 31.4"/><path fill="#fff" d="M48.05 111.3q1.2.05 1.95 1.55.75 1.4.7 3.1-.05 2.35-.85 3.7-.75 1.35-2 1.25-1.2-.05-1.9-1.4-.75-1.35-.7-3.6.05-2 .85-3.3.8-1.35 1.95-1.3m51.7 11.4q-1.05-.05-1.9-1.65-.8-1.6-.75-3.65.1-2.2.9-3.5.75-1.3 1.95-1.3 1.15 0 1.95 1.6.75 1.55.65 3.5-.2 5.1-2.8 5"/><path fill="#c8b997" d="M115.15 95.45q-1.35.45-.45-.5l2-1.6q7.25-4.1 18.1-14.05 11.3-10.35 14.25-16.05 2.3 4.9-10.85 16.95-12.8 11.7-23.05 15.25"/><path fill="#c8b997" d="m115.15 95.45 4.4-2.25 4.25-2.45 11.1-.35q5.25.25 5.3 1.3.25 3.2-20 12.65-20.35 9.45-34.05 12.4 10.75-2.9 26.35-10.65 14.8-7.4 17.65-10.75.5-.6.35-1.05-.2-.4-1.05-.45l-6.4.2q-4.05.45-7.9 1.4M12.55 54.9q2.2 5.4 13 20.2 11.55 15.85 17 19.65l-9.8-3.25q-7.05-9.45-13.2-19.65-8.65-14.2-7-16.95m8.1 34.75q2.9 4.8 18 14.7 15.45 10.15 24.2 12.6-3.25.05-12-3.9-8.2-3.75-16.75-8.95-8.95-5.5-12.9-9.35-4.55-4.45-.55-5.1"/><path fill="#c8b997" d="M74.35 118.2q9.95-.15 16.1-2.55-.35 2.1-.5 5.6-.2 3.15-.1 5.3-18.1 11.7-32.05-.7 0-8.05-.7-9.95 7 2.4 17.25 2.3m-48 64.4q11.4-8.25 14.85-12.15l-1.25 3.1-1.05 3.05q-8.5 7.4-17.65 13.95-12.3 8.85-14.65 7.55-.75-.4-.85-2.65-.1-2.1.3-3.65.25 1.9 1.2 2.25.9.3 2.8-.7 5.5-2.9 16.3-10.75m10.2 3.2q-.3 3.05 1.45 3.2 1.7.15 4.5-2.4 5-4.55 11.25-11.15 6.4-6.75 9.55-10.85l-.4 3.15q-4.15 6.75-13.8 17.1-10.5 11.3-12.95 10.35-1-.35-.85-3.45.15-3.05 1.25-5.95"/><path fill="#c8b997" d="M64.4 172.65q.8 3.05 1.9 3.25 1 .2 3.25-2.6 2.05-2.55 3.3-5.15l1.05 2.1q-2.15 5.4-5.3 9.85-3.15 4.55-4.7 4.4-1.5-.15-1.6-8.3-.05-8.05 1.2-11.25.15 4.7.9 7.7"/><path fill="#c8b997" d="M73.5 168.05q1.85 3.05 4.7 6.15 3.05 3.35 4.05 3.15 1.25-.3 2.3-5.2 1-4.7.75-8.15l1.1 3.35q.2 7.35-.1 11.15-.5 5.95-2.25 6.4-1.85.5-6-6.4-4.05-6.7-4.55-10.45"/><path fill="#c8b997" d="M85.3 164q3.8 7.45 9.3 14.65 4.65 6.1 7.5 8.35 1.2.95 1.95.6t.9-1.6q.45-4.45-1.2-11.2 1.9 3.35 4.2 5.85 1.7 6.45 2.35 11.1.8 6.3-.8 7.05-2.3 1.05-11.4-10.8-9.9-12.9-12.8-24"/><path fill="#c8b997" d="M103.75 174.8q5.05 5.95 14.1 12.6 7.85 5.7 12.15 7.5 5.3 2.25 5.95-2.15.35 2.5.3 4.6-.05 2.8-.9 3.25-.75.4-4.55-1.5-4.15-2-8.85-5.3-12.7-9-18.2-19"/><path fill="#ac6c36" d="M21.45 25.9q6.2 6.8 12.7 21.35 5.4 12 7.6 20.85l-3.15-2.05-3-1.8q-1.55-8.35-5.75-19.55-4-10.6-8.4-18.8m95.2 29.3q4.85-11.4 10.5-18.05-3.1 6.55-6.15 16.65-2.95 9.85-3.8 16l-6 2.4q1.15-7 5.45-17M1.6 66.55q3.55 7.2 8.5 13.95 4.8 6.6 8.5 9.5-.75 1.55 6.45 7.55 6.55 5.4 12.1 8.6l-1.05 2.55q-10.2-1.1-21-14.1Q4.25 81.4 1.6 66.55M156.35 55.4q2.05 12.4-10.6 33.2-12.65 20.75-26.5 27.8-3.1 1.6-7 1.85l-.55-4.6q-.6-3.85-1.2-5.25 4.6-1.6 15.3-7.2 9.5-4.9 12.55-6.9 2.2-1.45 1.75-2.55-.35-.95-2.2-1.15 5.05-5.5 10.2-15.1 5.5-10.3 8.25-20.1m-5.4-54.3q3.75 2.55-.35 27.55-3.7 22.65-8.2 34.8l-3.75.5-3.8.8q5.8-9.9 11.25-32.55 5.15-21.4 4.85-31.1M6.45 3.9Q6.7 17.95 8.7 31.8q2.25 15.9 5.8 23.1-1.65-.15-2 1.1-.35 1.35.8 3.95l3.7 7.5q2.25 4.3 3.85 6.8 1.6 2.45-.35 3.05-1.95.55-3.85-1.6-6.4-7.45-10.3-28.6-4.5-24.1.1-43.2m140.9 118.6q2 3.25-7.25 13.75-7.7 8.75-14.15 13.45-2.2 1.65-2.25.8-.05-.9 2.2-2.85 4.05-3.45 10.8-11.45 6.35-7.5 10.65-13.7m-12.95 29.4q-7.3 6.45-11.55 7.55-1.25-2.45-3-4.35 4.55-.85 10.1-3.9 5.1-2.85 9.45-6.65 2.35.9-5 7.35M2 119.75q3 4.95 9.45 11.45 7 7.1 12.2 9.7 2.25 1.1 2.1 2.5t-2.15 1.3l-3.85-1q-5.3-3.85-12.15-12.8-7.2-9.35-5.6-11.15m11.5 31.35q-4.75-3.6-4.05-6.2 2.95 2.55 7.75 4.2 4.75 1.65 7.9 1.25-2.15 2.6-3.2 4.55-3.8-.3-8.4-3.8m41.05 27.85 8.15-10.65q-.7 8.5 0 12.35-3.5-.15-8.15-1.7m19.5-8.35q1.55 4.55 5.55 10.2l-11.5.55 3.25-5.35zm12.6-2.25q1.9 5.75 4.7 10l-5.3 1.8q.45-2.3.6-5.75.2-3.35 0-6.05"/><path fill="#004370" d="M45.75 245.35q-5.65 5.25-7.85 4.9 5.5-5.15 10.8-11.8 6.7-8.4 8.8-14.2.7 9.6 2.45 18.25 2.25 11.2 5.55 16.55-.85 1.9-2.05 3.65l-2.15 2.5q-2.6-2.35-5.35-12.35-2.65-9.65-2.65-15.9-2.6 3.8-7.55 8.4"/><path fill="#004370" d="M55.3 211.3q1.6 5.6 6.75 16.5 5.1 10.85 6.1 10.85 1.15 0 4.35-8.25 3.5-9.05 4.15-16 .75 7-1.5 16.75-2.35 10.15-6.2 15.05-3.8-3.8-8.2-13.45-5.45-11.9-5.45-21.45"/><path fill="#004370" d="M110.15 227.25q.85 4.9.2 12.8-.6 7.1-1.8 11.45-6.05-2.3-16.15-12.4-10.8-10.75-15.45-20.1l.2-4.35q5.5 10.1 17 21.35 10.2 10 11.7 9.4.95-.4 2.45-6.6 1.65-6.5 1.85-11.55"/><path fill="#004370" d="M110.75 223.35q6.15 15.7 21.1 33.8 5.55 6.75 10.35 11.35 4.5 4.3 5.35 3.95 1.2-.5 2.3-9 1.1-8.4 1.1-16.7.8 7.05.95 18.35.1 11.05-.45 15.45-7.65-1.2-20.3-16.15-12.6-14.85-20.9-32.25z"/><path fill="#004370" d="M150.7 245.7q4.3 6.6 19.35 16.05 14.05 8.8 16.15 8.1.95-.3-.2-8.55-1.2-8.4-3.15-14.4l3.7 3.75q1.9 4.95 3.6 13.85 1.6 8.35 1.7 12.65-6.35-.9-19.7-8.75-13.25-7.85-20.75-15.1z"/><path fill="#004370" d="M223.2 241q.55 8.15.4 18.5-.15 11.5-1.05 18.3-6.7-2.65-19.55-12.45-14.35-10.95-20.55-19.5 7.85 6.35 21 15.15 13.3 8.9 14.25 8.4 1.1-.55 1.95-11.9.8-10.85.5-19.15z"/><path fill="#004370" d="M244.8 256.1q-17.7-9.05-25.2-19.1 8.8 7.35 26.15 15.35 15.95 7.35 17.9 6.4 1.15-.55.75-6-.35-4.7-1.35-8.9 1.6 3.75 3.5 10.85 1.8 6.85 2 9.5-7.85 0-23.75-8.1m47.15-12.9-13.7-.55q-10.95-.95-16.55-2.7-1.3-3.85-2-5.2 4.85 2.35 15.7 3.95 10 1.5 10.85.75.8-.7-.65-4.9-1.45-4.1-4.1-8.85 3.2 3.9 6.2 8.8 3.5 5.6 4.25 8.7M262.3 63.3q3.9 1.85.7 29.65-3 26.15-8.05 43.8-1.75 2.45-4.1 8.75-.95 2.55-2.9 1.3-2-1.2-.95-3.7 4.5-10.45 10.05-41.45 5.05-28.45 5.25-38.35"/><path fill="#004370" d="m237.15 171.85-4.2-3.15q11.35-4.4 22.75-19.55 10.75-14.25 13.55-26.7 2.45 1.85.15 9.2-2.2 6.95-7.5 15.6-5.5 9.05-11.8 15.55-7.1 7.35-12.95 9.05"/><path fill="#ac6c36" d="M84.3 229.55q4.9 6.3 8.55 10.3.25 4 2.4 9.4 2.05 5.2 4.7 8.8l-2.05.15q.75 12.75-5.25 30.6-6.65 19.75-16 25.45-2.4 1.45-9.25 1-6.3-.4-11.85-2-4.45-1.2-6.65-4.9-2.35-3.8.4-6.25 2.15 6.5 13.05 7.6l8.35-.3q3.95-.8 5.45-2.5 7.2-8 3.95-24-1.4-7.1-4.65-12.55-3.5-5.85-8.05-8.15-5.2-6.8-7.5-18.8-1.6-8.2-1.6-16.9 1.25 4.95 4.5 11.15 3.45 6.6 6.15 8.55 3.45-4.2 5.75-12.5 2.1-7.6 2.25-14.7 1.9 3.5 7.35 10.55"/><path fill="#ac6c36" d="M93.55 240.3q1.9 2.65 7.3 6.5 4.55 3.2 7.7 4.7.8-3.8 1.4-9.05.8-6.75.55-11 3.15 9.6 12.85 22.9 8.6 11.8 15.7 18-.6 5.75-4.85 18.05-3.95 11.4-8 20-2.55 5.45-7.35 8.45-4.55 2.8-10.5 3.05-10.9.5-17.1-3.55-6.05-4-2.25-8.45 1.8 6.1 14.65 6.1 5.05-.05 9.45-1.1 4.45-1.1 5.65-2.6 3-3.6 6.95-13.85 3.55-9.2 4.6-14.55.65-3.45.45-5.15-.35-2.6-2.55-4.8-1.55-1.6-6.65-8.65-4.4-6.15-4.8-6-.65.15.1 4.1.8 4.15.1 4.75-.9.8-6.4-2.2-4.7-2.55-8.45-5.35-3.65-4.35-6.35-10.75-2.8-6.5-2.2-9.55m67.7 73.15q-2.3-3.25-.1-6.05 1.45 4.7 10.45 5.9 8.15 1.15 12.35-1 2-1.05 5.35-8.6 3.1-7.1 4-11.9.5-2.8-.05-4.2-.55-1.5-2.5-1.7-3.45-.35-8.35-2.25-4.8-1.9-8.65-4.35-.1-3.3-1.85-7.25-1.65-3.65-3.95-6.4 4.55 3.15 11.7 6.6 7.4 3.6 12.2 4.9-.2-3.85-1.5-11.35-1.35-7.4-3.05-14.2 2.2 2.65 8.4 7.95 5.7 4.9 10.55 8.5.5 3.2-.55 8.3-.95 4.55-2.45 8-8.8 20.05-11.4 26.75-1.15 3-3.45 4.65-2.1 1.5-5.55 2.1l-6.85.4-8.85-1q-3.7-.75-5.9-3.8m92.8-52.85q2.3 3.45 4.8 5.6 1.9 1.65 2.7 3.15 1.2 2.1 1.05 4.85l-1.85 31.95q-.3 5.1-2.7 8.9-2.05 3.2-5.8 5.75-2.2 1.5-8.4 1.7-5.7.2-10.3-.8-5.65-1.2-7.7-4.45-1.8-2.9-.05-5.55 1.1 3.95 8.6 5.45l11.55.35q2.85-.4 5.55-2.85 2.65-2.5 4-6 1.1-2.85 1.45-15.25l.2-13.9q.1-2.25-.65-4.15-.85-2.05-2.45-3.25-1.75-1.3-9.6-5.9-8.25-4.8-12.3-6.8-1.7-.85-1.85 1.4-.85 9.75-2.5 18.35l-2.65-2.95-2.15-3.25q.7-6 .8-15.5.1-9.6-.4-16.1 4.95 5.35 15.05 11.35 8.5 5.1 15.6 7.9"/><path fill="#dcdddd" d="M53.2 120.4v-6.2l3.9 1.7q.55 3.1.55 5.55zm-9.15-10.55q-1.15 2.6-1.75 5.95-4.6-2.5-6.85-4.7.35-1.75 1.7-4.95zm61.55 7.3-.9-6.3 5.8-2.45q1.25 3.2 1.55 5.95-2.6 1.4-6.45 2.8m-11.55-2.55-.2 5.75-3.8.35.15-2.65.25-2.4z"/><path fill="#004370" d="m48.85 185.25 5.85-6.45q1.25.55 7.7 1.75.05.9.45 2.2.5 1.5 1.05 1.75.9.45 4.25-3.45l5.65.1 5.8-.35 2.3 2.65q1.65 1.55 2.15 1.45.55-.1 1.25-1.85l.75-2.9 5.55-1.5q2.55 4.55 3.8 5.9-8.4 5.15-24.7 6.9-15.3 1.65-27.4-.55z"/><path fill="#0f141b" d="M20.05 90.75q-.85 2.2 14.5 12.25 16.2 10.65 26.95 13.2 1.9.45 1.85 1.2-.1.75-1.95.45-10.5-1.8-28.05-13.05Q15.8 93.6 17.2 89.65q.7-2 8.45-.7Q33.7 90.3 41.5 94q1.65.8 1.35 1.4l-1.95-.15q-5.35-2.3-13.1-3.85-7.45-1.55-7.75-.65"/><path fill="#0f141b" d="M21 58.4q-6.65-2.8-7.7-1.9-1.2 1.05 7.3 15.1 8.75 14.45 14.95 20.9L32.1 92q-7-8.15-14.55-21.25-8.15-14.25-5.9-16.2 1.4-1.2 8.4 1.3 6.9 2.5 15.8 7.4Q57.9 75.3 66.8 86.75l.2 3.4Q58 78.7 36.2 66.1q-8.5-4.95-15.2-7.7"/><path fill="#0f141b" d="M83.55 67.15q2.3-14 .65-32.3-1.5-17.25-4-17.3-1.3 0-3.9 6.85-2.7 7.3-5 17.65-6.05 27.65-3.4 50.55.25 1.85-.4 1.95-.6.1-.95-1.7-3.95-21.5 1.9-50.05 2.45-11.85 5.7-19.4 3.35-7.75 6.15-7.65 4.5.1 6.45 16.95 2.05 17.65-1.6 34.75-.4 1.85-1.15 1.7-.8-.15-.45-2"/><path fill="#0f141b" d="M85.25 58.9q1.5-3.8 4-6.4 2.55-2.65 4.35-2.15 2.8.7 1.5 14.2-1.35 14.25-6.45 22.25-1.2 1.85-1.75 1.45-.5-.4.65-2.35 3.15-5.3 5-19.3 1.75-13.55.15-14.05-1.1-.3-3.7 3.6t-3.8 7.6z"/><path fill="#0f141b" d="M89.9 82.35q14.05-10.05 37.2-16.75 9.5-2.75 16.1-3.5 6.75-.75 7.45 1 .7 1.7-1.75 5.85-2.45 4.3-7.1 9.1-11.6 12.15-25.7 17.35l-2-.1q-.3-.75 1.4-1.45 13.1-5.2 24.35-17.15 4.1-4.35 6.55-8.15 2.3-3.5 1.75-4.15l-6.95.4q-6.95 1.15-15.5 3.65-23.45 6.85-36.9 16.95z"/><path fill="#0f141b" d="M132.45 91.4q-6.75.15-12.15 1.3l4-2.65 10.9-.75q6.4.35 6.65 2.2.4 3.4-21 13.55-21.55 10.2-34.35 12.5-2 .35-2.15-.4-.1-.75 1.85-1.2 13.2-3.1 33.75-12.95 19.2-9.25 18.9-10.95-.1-.75-6.4-.65M66.4 72q-4.85.7-8.35 2.25l-.9-2.4q3.75-1.75 9.3-2.45zm26.3.25q2.9 1.2 4.75 2.6 1.3.9.8 1.5-.45.6-1.7-.15-1.6-1.05-4.15-1.95z"/><path fill="#0f141b" d="M7.2 5.65q-1.1.3-1.6 7.95-.55 8.15.2 18.35 2 27.9 11.1 42.65 1 1.65.55 2-.4.4-1.55-1.05Q5.6 62.8 3.1 32.95q-1-11.7-.1-20.4.9-8.75 3.2-9.35 3.05-.75 9.95 4.8 7.05 5.65 15 15.4 19.7 24.25 28.05 51.3.65 2.1-.1 2.35-.7.2-1.45-1.85-9.45-25.9-28.8-49.85-7.4-9.15-13.8-14.85Q9 5.15 7.2 5.65"/><path fill="#0f141b" d="M5.8 65.4q3.85 1.3 7.65 4.35l1.45 3q-3.3-2.45-7.55-4.15-4-1.55-4.7-.95Q2.3 68 4.2 72.5q2.15 5.1 5.35 10.7 9.05 15.95 18.3 21.95 1.45.9 1.05 1.3-.45.4-1.85-.35-10.7-5.55-20.4-22.5Q2.95 77 1.1 71.65q-1.8-5.3-.65-6.25 1.5-1.25 5.35 0m29.45-18.35q6.5 13.25 7.9 21.9l-3.1-1.9q-1.75-8.7-7.3-20.5-5.15-10.85-11.1-19.5-1.15-1.7-.75-2.1.4-.45 1.65 1.15 6.5 8.2 12.7 20.95M152.6 24.6q-3.1 22.7-9 38.9l-2.55.3q5.15-14.7 8.6-37.85 3.3-22.35 1.05-23.3-1.4-.6-7.85 4.85-7.15 6-15 15.15-21.7 25.3-30.9 52.7l-2.2-1.15q10.1-29.65 31.8-54.5 8.4-9.6 15.8-15.2 7-5.3 9.5-4.4 3.9 1.4.75 24.5"/><path fill="#0f141b" d="M151.7 58.5q-3.8 2.35-6.6 4.8l-3.3.15q3.35-3.5 8.35-6.7 5.6-3.65 7.25-2.65 1.9 1.2-.1 9.55-2.1 8.6-7 18.75-13.1 26.9-30.45 34.35-1.6.65-1.95 0-.4-.6 1.25-1.5 17.05-9.2 29.1-34.35 4.2-8.8 6.5-16.8 2.05-7.15 1.1-7.65-.55-.25-4.15 2.05M11.2 119.9q10.05 2.25 14.95 6 1.3 1 1.15 1.5-.2.45-1.6-.4-4.9-3.05-14.1-5-8.45-1.8-8.85-.9-.55 1.2 6.4 10.15 7.55 9.6 12.7 12.2l-2.5.3q-5.5-2.95-13.15-12.85-7.6-9.85-6-11.6 1.45-1.6 11 .6"/><path fill="#0f141b" d="M10.7 145.95q-.25 1.2 3.9 4.2 4.3 3.15 7.7 3.85l-1.15 1.95q-5.05-1.35-9.7-5.2-4.6-3.7-3.85-5.65.75-1.9 5.7-2.45l9.6.5q1.8.4 1.8.95 0 .5-1.85.35-4.25-.25-8.05.15-3.95.5-4.1 1.35m111.85-15.85q1.05-7.35.2-15.95l2.25-1.4q1.25 9.2.3 16.15zm-99.4-5.55q-.55-4.35-.05-10.8.4-5.75 1.35-10.25l2.15 1.65q-2.05 10.8-1.05 20.55z"/><path fill="#0f141b" d="M142.05 135.15q-8.35 10.4-15.4 14.75-1.7 1.05-2.15.55-.45-.55 1.3-1.8 5.7-3.95 13.7-13.75 7.9-9.7 6.8-11.1-.55-.75-9.3 1.65-9.4 2.55-14.35 5.5-1.55.95-1.75.5-.25-.45 1.2-1.6 5.1-4 14.75-6.65 9.5-2.6 11.45-.75 2.2 2.15-6.25 12.7"/><path fill="#0f141b" d="M141.25 144.35q1.15 1.95-5.55 8-6.75 6.1-12.55 8.15l-.95-1.7q5-1.95 11.2-7.45 5.65-5 5.3-5.9l-4.15.3q-4.2.9-6.45 2.4l3.15-3.4q3.2-1.2 6.05-1.4 3.2-.25 3.95 1m-82.6-10.5q-25.8 1.4-41.9 31.6-5.5 10.3-8.25 21.05-2.45 9.5-1.05 10.4 1.6 1 14.55-7.9 13.4-9.25 17.85-15.1l-1.25 3.75q-6.3 7.55-18.75 15.55-12.2 7.8-13.7 5.8-1.85-2.45.45-12.75 2.5-11.35 8.35-22.4Q22.1 150.35 32 142.3q12-9.7 26.65-10.1 2.2-.05 2.2.75t-2.2.9"/><path fill="#0f141b" d="M36.8 193.65q1.6.6 11.95-10.1 10.75-11.05 13.9-17.4l-.05 3.15q-3.65 7.3-14.45 18.05-10.45 10.35-12.7 9.7-2.5-.8-.7-10.2 1.8-9.35 5.65-15.8 1-1.65 1.65-1.3.65.4-.2 2.1-2.55 4.95-4.4 13.3-1.75 8.1-.65 8.5"/><path fill="#0f141b" d="M74.55 171.6q-1.5 4.55-5.15 9.5-3.9 5.3-6 4.75-1.75-.5-2.1-8-.3-7.35 1.1-12.5.45-1.55 1.2-1.35t.4 1.75q-.95 4.25-.7 10.7.25 6.15 1.1 6.35 1.15.3 4.8-5.35t4.1-8.45z"/><path fill="#0f141b" d="M79.45 178.6q3.45 5 4.45 4.8.95-.25 1.5-6.6.55-6.45 0-11l2.3 5q.15 5.1-.55 9.55-.85 5.3-2.5 5.8-2.1.7-6.15-5.35-3.85-5.8-5.45-11.4-.5-1.65.1-1.9.6-.2 1.15 1.4 1.5 4.45 5.15 9.7"/><path fill="#0f141b" d="M85.15 163.3q.4-.2 1 1.55 3.35 9.95 12.45 22.05 8.35 11 10.05 10.45 1.25-.4.35-7.05-.95-6.75-3.1-12.05l3.35 3.85q1.95 5.25 2.3 11.1.3 6.3-1.8 7.3-2.55 1.2-12-11.2-10.1-13.3-12.6-24-.4-1.85 0-2"/><path fill="#0f141b" d="M89.45 133.7q26.7 5.9 40.45 36.15 4.85 10.6 6.45 20.8 1.45 9.2-.5 10.25-3.45 1.8-15.1-6.65-12.15-8.8-16.7-17.7-.95-1.85-.35-2.2.65-.35 1.75 1.35 5.95 9.2 17.25 17.25 10.15 7.2 12 5.95 1.05-.7-.65-9-1.95-9.75-6.4-19.35-13.2-28.6-38.6-35.4-1.7-.45-1.5-1.15.15-.65 1.9-.3m-15.4 1.35q4.55.05 7.65 1.25 3.45 1.4 3.45 3.7 0 2.7-3.85 5.5-3.9 2.85-7.65 2.95-3.45.1-7.3-3.2-3.7-3.2-3.6-5.8.05-2.1 3.6-3.3 3.15-1.15 7.7-1.1m-.4 11.6q2.5 0 5.95-2.35 3.5-2.4 3.5-4.2 0-3.1-9.1-3.25-9.15-.15-9.25 2.7-.1 1.7 3.05 4.35 3.3 2.75 5.85 2.75m-35.45-7q-4.75-6.35-5.1-16.25-.35-10.2 4.2-18.25l1.3 1.45q-3.85 6.85-3.35 16.95.45 9.6 4.2 14.75zm16.45-6.5q1.5-3.65 1.8-8.6.3-5-.75-9.1l2 .6q2 8.4-1.2 17.05z"/><path fill="#0f141b" d="M89.85 134.25q-1.8-8.5-.15-18.35l1.9-.65q-1.4 11.35 0 19.55zm15.9 7.35q4.1-5.65 5.1-15.2 1-9.45-1.6-17.6l1.45-1.1q3.25 8.5 2.25 18.75-1 10.35-5.75 16.5zM45.2 110.15q-2.8 5.45-2.2 13.3.6 7.95 4.05 7.95 3.1 0 4.5-5.75 1.35-5.6.2-12.1l2.25.9q1 7.9-1.05 13.4t-5.95 5.4q-4.95-.05-5.9-8.9-.9-8.3 2.15-15.25zm60.45.25q2.2 9.1.55 16.5-1.7 7.6-6.25 7.65-3.75 0-5.8-5.4-2.15-5.7-.9-14.3l2.3-.7q-1.5 7.5.25 13.4 1.55 5.25 4.05 5.25 3.1 0 4.4-7 1.3-7.2-.7-14.7zm20.9-71.65q-4.5 6.9-8.05 14.9-4.15 9.35-6.05 18.15l-2.9 1.2q1.95-9.4 6.55-19.3 4.25-9.1 9.4-15.85 1.2-1.6 1.7-1.2.5.45-.65 2.1M80.75 181.9q-7.4.9-14 .3l2.35-2.35q5.1.25 9.85-.2zm5.7-3.45L91 177.1l1.5 2.05L86 181zM62.9 181.8q-5.45-.8-9.55-2.3l1.65-2q3.45 1.15 7.55 1.75zm-25.75 14.3q-7.05 10.8-9.25 18.1 8-3.9 16.3-5.9l-.9 2.85q-6.9 1.8-16.45 6.3l-1.8.15q-.65-.45-.45-1.75.75-4.3 4.25-10.5 2.15-3.9 6.7-10.65z"/><path fill="#0f141b" d="M49.05 243.85q-4.65 5.2-9.75 8.25l-1.25.25q-.55-.2-.75-1.1-1.95-9.95-.6-21.4 1.6-13.35 7.25-22 .95-1.4 1.6-1.05.65.4-.2 1.85-4.7 8.9-6.15 20.45-1.35 10.3.25 19.6 7.6-5.2 14.25-14.35 1-1.4 1.55-1.1.6.3-.15 1.85-1.95 4.1-6.05 8.75"/><path fill="#0f141b" d="M54.15 235.75q0 5.4 2.05 14.1 2.3 9.65 5 13.25 1.95-1.95 3.25-5.7l1.7 2.95q-1.65 3.7-3.8 5.85l-2.1.05q-2.9-3-5.2-12.6-1.95-8.25-2.35-15.75zm23.35-19.9q.85 7.25-1.65 17.35-2.4 9.75-5.75 13.75l-1.05.75q-.35.05-1.1-.55-4-3.3-8.2-14.35-4.1-10.9-5.1-20.55-.2-1.85.35-1.95t.85 1.75q1.5 9.05 5.15 18.4 3.85 9.85 7.75 13.7 3.2-4.35 5.35-12.3 2.25-8.2 2.2-15.9 0-1.9.5-1.9.5-.05.7 1.8"/><path fill="#0f141b" d="M111.85 230.55q.15 13.15-2.1 21.5-.2.95-.65 1.1-.4.2-1.3-.2-6.8-2.8-16.05-12.5-9.5-9.95-15-20.4l.4-3.1q5 9.65 14.4 19.75 9.2 9.85 15.9 13.1 1.85-7.9 1.95-20.7.05-12.35-1.55-21.2-.3-1.7.3-1.8.6-.15 1 1.5 2.55 9.65 2.7 22.95m-10.55 29q-2.95 0-6.6-1.2-3.9-1.3-6.9-3.45-1.35-.9-1.05-1.35.35-.5 1.8.2 5.7 2.7 11.05 2.95zm-28-21.75q1.1 3 2.65 5.3 1.6 2.25 4.45 4.95 1.05 1 .75 1.35-.3.4-1.45-.3-2.65-1.65-4.7-3.9t-3.05-4.5z"/><path fill="#0f141b" d="M95.4 285.3q-4.6 14.8-14.65 27.1-1.2 1.5-2.55 2.25-1.35.8-3.55 1.25-5.4.95-13.8-.35-10.1-1.6-12.65-5.6-2.75-4.3-.4-8.1 2.4-4 9.65-6.2 3.4-1 5.8-6.9 1.7-4.3 3.35-20 .55-4.65-1.1-7.25-4.25-6.75-6.65-17-2.6-11-1.6-20.55l2.15 4.85q-.2 7.85 2.3 17.15 2.4 8.8 5.9 14.4 2.2 3.55 1.6 8.6l-1.45 10.25q-1.25 7.3-2.5 10.5-1.15 3-2.5 4.8-1.95 2.55-4.7 3.35-6.05 1.8-8.05 5.2-1.8 2.95 0 5.65 2.1 3.1 11.35 4.6l12.9.4q2.75-.55 4.7-2.95 9.35-11.45 14.15-27.2 4.3-14.1 3.45-25.85l2.1.45q.95 13.6-3.25 27.15"/><path fill="#0f141b" d="M53.35 312.75q-2.15-1.95-1.95-5.35.2-3.85 3.55-6 1.1-.7 1.45-.3t-.6 1.3q-2.6 2.45-2.15 5.45.45 3.15 4 4.7zm7.6 2.05q-2.55-1.9-1.75-6.7.9-5.2 5.6-6.4 1.15-.3 1.35.3.2.55-.9 1-3.45 1.3-3.65 5.65-.2 4.2 2.5 4.95zm33.45-73.9q.4 6.25 5 13.65 2.4 3.85 6.65 8.85 1.15 1.35 1.65 2.9.4 1.4.45 3.4.15 5.55-1.05 13.2-1.35 8.7-3.65 14.35-1.6 3.8-3.1 5.8-2.3 3.05-5.5 3.7-3.5.7-5.1 3.6-1.7 3 .25 5.7 1.5 2.05 6.15 3.4 4.75 1.4 10.15 1.25 13.85-.35 18.15-9.5 4.7-9.9 8.4-20.7 3.75-10.8 5.35-19.15l2.15 2.05q-1.65 8.2-5.4 18.7-3.65 10.15-8.4 20.15-5.05 10.65-20.05 10.85-5.9.05-11.2-1.65-5.1-1.65-7-4.05-3.2-4-.8-8.1 2.2-3.75 6.85-4.65 4.1-.85 7.1-8.3 2.2-5.35 3.4-13.95 1.05-7.25.95-12.8l-.3-2.6q-.3-1.15-1.1-2.15-5.55-6.55-8.1-11.55-3.65-7.05-3.65-14.4z"/><path fill="#0f141b" d="M92.45 319.65q-1.4-1.65-.85-4.8.6-3.6 3.75-5.7 1.15-.8 1.5-.35.4.4-.6 1.35-2.3 2.2-2.35 5.1-.05 2.75 1.8 4.1zm12.45 2.65q-3.15-1.55-2.9-6.1.25-4.75 4.4-6.55 1.25-.5 1.45.15.15.65-1 1.35-3.05 1.8-2.65 5.55t3.9 3.95zm46.85-75.95q2.25 15.4 1.05 34.9-.15 1.85-1.8 1.1-10.55-4.55-23-19.9-12.15-14.95-17.65-29.55l.25-4.2q4.5 13.55 16.8 29.25 12.3 15.65 22.75 21.1 1.25-17.25-.05-32.55-.15-1.8.6-1.85.8-.05 1.05 1.7"/><path fill="#0f141b" d="M151.45 251.7q6.6 6.3 18.3 13.7 12.8 8.1 20.85 10.3-.45-6.5-2.1-14.3-1.55-7.3-3.25-11.8l3.1 2.75q1.75 5.35 3.1 11.65 1.55 7.25 2 13.3.1 1-.35 1.3l-1.5.1q-8.3-1.85-20.9-9.75-11.3-7.1-19.2-14.45z"/><path fill="#0f141b" d="M224.35 242.4q.75 6.95.6 17.2-.2 9.4-1.05 18.9-.1 1.65-1.65.9-9.8-4.4-21.15-13.55-11.05-9-18.6-18.4-1.2-1.45-.65-1.95.6-.5 1.85.9 7.55 8.25 18.05 16.6 11 8.75 19.65 13.05.85-10.4 1.1-20.15.3-11.05-.35-15.85z"/><path fill="#0f141b" d="M264.45 244.05q3.85 10.6 5.6 20.5.25 1.4-1.25 1.3-10.25-.15-25.75-8.75-15.4-8.55-23.25-18.25-1.1-1.35-.55-1.85.55-.55 1.75.7 8.85 9.1 23.05 16.8 14 7.6 23.1 8.35-1.65-9-5.05-18.65-3.65-10.35-8.45-18.85-.85-1.55-.2-1.9.7-.4 1.65 1.1 5.2 8.05 9.35 19.5"/><path fill="#0f141b" d="M236.3 169.75q13.3 10 16.4 27.9 10.75 5.65 24.6 21.55 13 15 16.3 24.15.5 1.5-1.15 1.55l-15.35-.85q-8.9-1.15-15.2-3l-.8-2.4q5.95 1.75 14.7 2.75l14.2.8q-4.75-10.45-15.65-23.1-12.1-14-22.45-19.25-.75-.4-.95-1.3-2.9-17.65-16.7-27.15-11.75-8.1-26.3-7.65l-32.25 2.5-30 2.15-5.25-.45q-2.75-.5-4.5-1.75-4.15-2.9-9.3-8.15l1.8-1.6q4.7 4.95 8.7 7.75 1.5 1 3.2 1.4l4.7.4 30.75-2.45 32.2-2.6q16.2-.25 28.3 8.8M161.45 304.3q2.25-2.6 6.25-3.4 1.6-.3 2.4-1.1.9-.95 1.3-3.35.9-5.45 1.25-15.85.1-3.45-1.7-7.7-1.9-4.35-5.5-8.7l4.25 2.05q5.4 7.7 5.15 14.45-.4 11.15-1.25 16.15-.9 5.3-5.4 6.2-3.05.55-4.8 2.4-1.8 1.9-1.85 4.6-.05 3.45 3.1 5.15 2.3 1.15 6.65 1.5l7.5.25 5.95-.5q1.9-.6 3.4-1.95 1.45-1.3 2.1-2.85 6.4-15.8 12.3-28.6 1.65-3.5 2.3-8.1.65-4.45.15-8.2l2.5 2.2q.6 8.4-2.65 15.05-5.05 10.35-12.35 28.6-1.7 4.15-7.1 5.95-3.85 1.2-14.25.35-7.05-.55-9.95-3.55-2-2.15-1.9-5.35.05-3.3 2.15-5.7"/><path fill="#0f141b" d="M164.65 316.65q-1.75-2.15-1.35-5.4.4-3.3 2.75-5.7.95-.95 1.5-.55.5.4-.2 1.55-1.75 2.55-1.7 5.4.05 2.9 1.9 4.2zm8.25 1.15q-2.1-2.1-1.5-5.65.7-3.95 4.75-6.2l1.65-.05q.4.55-.65 1.4-3.15 2.5-3.35 5.45-.2 2.7 2.15 4.25zm86.5-49.2q-5.2-4.75-8.1-8.9l4.35 1.15q2.15 2.65 5.85 5.8 1.55 1.25 2.05 3.3.55 2.1.2 5.5-.45 4.65-1.15 16.3l-.75 15.3q-.1 3.8-2.6 7.95-2.25 3.7-5.3 6-4.05 3.1-16.4 2.1-4.55-.3-7.75-1.55-5.45-2.15-5.75-6.7-.2-2.95 1.45-5.55 1.6-2.65 4.35-3.85 2.1-.9 2.95-2.05.85-1.2 1.05-3.45l-.05-9.6q-.1-2.55-1.1-4.3-.75-1.35-2.6-3.05l-3.9-3.75q-2.05-2.25-3.3-4.75l.4-3.9q2.2 5.05 8.65 10.55 3.95 3.4 4.15 9.15l.05 9.75q-.25 3-1.35 4.6-1.15 1.65-4 2.9-2.5 1.1-3.65 3.25-.95 1.75-.8 3.9.2 2.8 2.95 4.3 2.7 1.45 8.4 1.85 11.65.85 15-1.6 2.65-2 4.55-5.25 2.1-3.55 2.15-6.95l.8-15.4 1.1-16.45q.25-2.7-.2-4.1-.4-1.35-1.7-2.5"/><path fill="#0f141b" d="M231.4 321.1q-2.05-2.65-.85-6.6 1.25-4.2 5.3-5.35 1.15-.3 1.4.4.25.65-.85 1.15-3.05 1.35-3.6 4.9-.6 3.45 1.7 4.95zm9.35-6.3q2.05-4.15 6.55-4.35 1.15-.05 1.2.65 0 .75-1.1.95-3.45.7-4.6 4.25t1.25 4.85q-1.65.6-3.35 1.15-1.95-3.5.05-7.5M264.2 93.85q-3.25 28.9-7.8 40.4l-4.05 6.1q5.45-13.3 9-44.8 3.4-30.05 1.1-30.4-1.15-.2-6.8 8.45-6.6 10.05-12.55 22.75-17.35 37.15-16.7 69.25l-2.1-.65q-.6-35.3 17.3-71.7 6.35-13.05 13.3-22.35 6.15-8.3 8.1-8 4.55.75 1.2 30.95"/><path fill="#0f141b" d="M235.7 170.85q13.7-4.5 25.55-25.8 4.35-7.75 6.65-14.75 2.2-6.55 1.1-7.35t-7.25 6.1q-6.75 7.65-10.1 15.4-.8 1.9-1.5 1.65-.65-.3 0-2.25 3.05-8.8 9.95-16.4 6.8-7.5 10.1-6 2.05.95.15 8.15-1.85 7.25-6.45 16-12 22.8-26.3 27.4z"/></svg>