<svg xmlns="http://www.w3.org/2000/svg" width="386" height="357" viewBox="-3.35 0.2 385.7 356.85"><path fill="#552764" d="M200.45 194.65q-7.4-3.75-10.95-5.35-12.5-5.7-24.55-2-1.9 13.45-6.25 22.2-4.7 9.3-14.8 18.75-12 11.2-32.85 20.65-4.8 2.2-9 6.8-6.5 2.45-9.9 4.45-.15-1.7.45-4.4.7-3.05 2.05-5.65-1.6.45-5.15 2.5-3.65 2.1-6.65 4.4-.15-2.45.15-7.15.35-5.4 1-8.95l-4.15 3.05q-3.25 2.45-4.6 3.95-.35-1-.6-3.95-.25-3.05-.2-5.35 2.2-3.85 8.95-10.45 5.75-5.6 8.35-12.7 2.15-5.85 2.95-18.85.7-15.55 1.45-23.6 1.3-14 4.75-22.7 4.4-11.1 12.95-16.15 16.3-9.65 29.7-9 13.15.7 39.1 12.3 18.85 8.4 38.55 8.95 22 .6 32.25-9.75 3.7-3.95 4.35-9.5.65-5.5-2-10.1 7.6 8.55 10.7 18.1 3.2 9.8 1.35 19.5l3.2-3.9q1.35-2.2 1.9-5.05 1.1 6.4.75 12.9-.35 6.85-2.4 15 1.85-.85 4.65-4.45 2.75-3.65 3.4-6.15 1.85 10.85-1.5 18.4-2.95 6.65-10.2 11.05-.15 14.35-3.8 24.95l-1.6 3.55-1.7 3.45-6.65 15.65q-3.95 9.5-5.95 17.4-1.4 5.35-.75 10.5.5 4.15 2.65 10-.9 9.25-.55 12.35-2.4-1.8-6.8-6.55l-8.35-8.95q0 2.05 1.35 8.5l1.9 9.45q-.9-.6-6-5.2l-7.55-6.8-2.05-6.25q-2.5-2.6-5.1-6.1-2.95-3.95-3.7-6 2.2 1.85 5.05 3.45-3.05-3.05-5.85-8.1-3.05-5.6-4.1-10.6 3.35 3.05 6.85 5.2 3.7 2.3 5.2 2.1.75 0-.2-5.55l-2.7-13.85q-4.5-23.3-3.7-35.9-6.15-1.3-13.1-4.5"/><path fill="#e85382" d="M258.8 71.7q9.25-3.45 23.95-9.45 15.95-6.5 23.1-9.85-18.55 31.6-31.2 41.35-15.55 12.1-34.8 3.5-5.1 2.5-11.5 4.7-6.65 2.35-7.9 1.9-1.05-.4-2.55-4.15-1.35-3.4-1.85-6.1l1.35-2.9q.1 2.95 1.5 6.65 1.2 3.2 1.8 3.45.65.25 7.75-2.35 7.55-2.75 9.85-4.65 1.1-.85 6.4-9.95 6.5-9.3 14.1-12.15m-33.25-16.65-1 13.45q-.65 8.95-1.4 11.25l-1.15 2.4-1.55 2.75q-.3-6.7.85-14.1 1.3-8.65 4.25-15.75"/><path fill="#552764" d="M288.95 48.2q4.1-.1 19.05-2.95l16.45-3.35q-10.6 10.65-18.55 23.8-7.9 13-9.35 22.1-9.35 4.7-16.5 6.45-1.85-1.35-3.8-2.3 6.55-5.65 14-15.55 7.2-9.55 16.1-24.25-7.2 3.35-23.35 10-15.1 6.15-24.2 9.55-7.6 2.85-14.1 12.15-5.3 9.1-6.4 9.95-2.3 1.9-9.85 4.65-7.1 2.6-7.75 2.35-.6-.25-1.8-3.45-1.4-3.7-1.5-6.65l5.75-10.95q.75-2.25 1.35-11l.95-13.2q6.1-21.25 16.25-30.05-.1 6.4 3 11.85 3.4 6.15 9.7 8.65 8.5-2.2 18.45-.2l7.9 1.65z"/><path fill="#fccf00" d="M245.35 147.9q-.6-3.45-.7-5.2l2.6-1.3.95 7.4q.45 2.45 1.1 2.45.55 0 1.55-1.8l2.2-4.65q1.1-2.6 1-3.05L253 140l-1.45-1.5 1.5-1.4.4-.45 2.4 2.7q1.55 1.9 1.7 2.8.15 1-2.15 5.65-2.4 4.8-4.55 7.65-1.3 1.7-2.25 1.5-.9-.2-1.6-2.2-.9-2.5-1.65-6.85"/><path fill="#552764" d="M296.7 115.95q-2.15-6.1-6.15-11.4l5.1-.9q.25 6.3 1.05 12.3"/><path fill="#fccf00" d="M203.45 146.65q.45-.75 0-2.45l3.6.75q.45 2.4-.25 3.4-1.65 2.5-12.8 4.75-11.55 2.4-13.55-.65-.9-1.45 1.4-6.25 2.15-4.45 4.7-7.15l3.55 1.3q-2.1 2-4 4.75-2.25 3.25-1.65 4.3.75 1.3 9.5-.1 8.7-1.35 9.5-2.65"/><path fill="#552764" d="M284 97.4q5.4-2.2 12.05-5.7-.35 4.05-.45 8.05l-8.15 1.1z"/><path fill="#fccf00" d="M276.25 91.95q1.95.95 3.8 2.3 10.65-2.65 26-11.7 14.3-8.4 26.55-18.6-6.05 9.45-24.65 20.9-13.2 8.1-23.95 12.55l3.45 3.45q8.35-.85 24.75-5 18.7-4.75 27.4-9.1-8.15 6.75-25.35 12.15-12.45 3.95-23.7 5.65 4 5.3 6.15 11.4 1.1 8 5.2 21.65 4.3 14.3 6 25.05l1.85-2.7 1.3-3.3q3.05 24.45-10.3 40.6-12.7 15.3-37.5 20.1 4.25-12.65 4.4-24.9 7.25-4.45 10.2-10.85 3.3-7.35 1.45-18.2-1.25 2.75-3.6 5.8-2.5 3.2-4.25 4 1.8-5.8 2.1-14.6.25-7.4-.6-13.5-.55 2.85-2 5.3l-3.25 4.3q2.4-13.25-4.35-26.5-4.8-9.5-11.4-14.9-2-.5-3.75-1.35-9 4.1-16.75 3.15-8.15-1-11.85-7.35-4.65-.85-5.2-5.5-.45-3.65 1.65-8.65.05 2.95 1.65 6.45 1.5 3.35 2.75 3.8t7.9-1.9q6.4-2.2 11.5-4.7 10.35 4.65 18.7 3.55 8.85-1.1 17.7-8.85m76.2 170.5-19.85.85-22.15 3.75q-17.3 2.4-22.6-1.45 4.4-.4 10.85-2.65 5.75-2 7.95-3.45-2.9-.6-5.85-1.8-3.1-1.25-5-2.75 2.5-.4 9.35-2.85 6.8-2.45 7.95-3.3-2.25-.85-6.05-3.35 4.05 1.5 9.4 2.05 13.85 1.5 39.15.75 9.55.3 15 2.25 6.6 2.4 9.4 7.8 1.9 3.75-2.1 5.85-4.1 2.15-9.65-.3-3.15-1.4-15.8-1.4"/><path fill="#552764" d="M164.4 190.95q7.65-.6 17.55 3.8 2.85 1.25 18.95 10.05-2.2 13.45-6.5 22.2-5.1 10.45-15.05 18.8-3.35 2.75-5.35 6.05l.35-2.8q-8 4-10 6-.05-1.65-1.45-8-1.5-7.15-1.9-10.2-1.55 1.55-5.2 7-3.9 5.95-4.9 8.65l-3.1-7.35-3.1 6.95q-.45-3.45-.4-11.85.1-8.35-.4-12 16.35-15.25 20.5-37.3"/><path fill="#fccf00" d="m164.4 190.95.55-3.65q12.05-3.7 24.55 2 3.55 1.6 10.95 5.35 6.95 3.2 13.1 4.5-.15 6.55.2 12.1-2.5-.35-8.85-3.95-8.15-4.85-12.8-7.45-18.2-10.2-27.7-8.9m84.9 99.35q-.35-3.1.55-12.35l4.4 10.95q5.05 12.6 13.4 29.6 9.15 18.65 13.05 23.3l4 4.1q1.9 1.95 2.45 3.75.6 1.85 0 3.35-.55 1.4-1.9 1.9-3.2 1.2-8.25 1.2-4.5 0-8.9-5.1-2.8-3.2-6.7-10.2-5.6-9.9-11.8-18.4l-9.8-12.65q-10.45-13.45-15.95-29l7.55 6.8q5.1 4.6 6 5.2l-1.9-9.45q-1.35-6.45-1.35-8.5l8.35 8.95q4.4 4.75 6.8 6.55"/><path fill="#552764" d="M300.75 207q-3.2 13.75-2.55 29 .35 6.35 8.85 9.45 3.8 2.5 6.05 3.35-1.15.85-7.95 3.3-6.85 2.45-9.35 2.85 1.9 1.5 5 2.75 2.95 1.2 5.85 1.8-2.95 1.95-8.35 3.8-7.15 2.4-11.4 1.5-6.9 3.15-12.1 2.9l3.8-3.6 2.25-3.35q-5.1.5-9.55-.1-5.5-.75-8.45-3.05 2.95.2 7.15-.9t5.8-2.55q-3.1-3.1-8-11.85-5.9-10.5-7.25-17.9l2.7-7.05q14.3-2.8 25.2-10.3 10.95-7.6 16.95-18.9-.85 5.75-4.65 18.85"/><path fill="#fccf00" d="M94.65 250.05q-1.3 2.65-2 5.7-.65 2.75-.5 4.4 3.4-2 9.9-4.45-7.15 7.75-11.9 20.7-4.3 11.75-4.75 22.05-.45 11.5 1.4 19.4 1.35 5.6 4.65 11.5 3.75 3.2 4.45 6.55.6 2.85-1.15 4.35-2.1 1.9-6.1 1.6-4.1-.25-7.4-2.75-8.25-6.25-12.35-26.25-3.75-18.5-2.3-38.8 1.75-24.7 7.85-35.45-.05 2.3.2 5.35.25 2.95.6 3.95 1.75-1.95 4.25-3.9 2.65-2.15 4.65-3.05-1.05 3.15-1.3 8.8-.2 3.8 0 7.25 2.2-2.25 6.35-4.5 3.45-1.9 5.45-2.45m61.15-6.2q3.65-5.45 5.2-7 .4 3.05 1.9 10.2 1.4 6.35 1.45 8 2-2 10-6l-.35 2.8q-1.65 2.7-2.55 5.85-2.35 7.9 5.8 30.9 7.15 20.3 11.95 26.7 3 2.95 2.45 5.85-.55 2.7-3.6 3.5-3.5.95-7.1-1.55-2.45-1.7-4.3-4.45-4.3-6.5-14.3-25.6-12.5-23.95-16.85-37.15-.5-1.6-.8-3.8l3.1-6.95 3.1 7.35q1-2.7 4.9-8.65"/><path fill="#552764" d="M85.75 9.25q16.7 1.65 30.25 8.15-7.45.3-17 4.65-9.2 4.15-14.55 9.3 4.55.95 11.9 4.25 8.05 3.7 15.1 8.4 18.5 12.35 18.35 23.3-.05 4-6.45 9.3-3.3 2.7-14.05 9.8-9.75 6.45-13.9 10.35-6.25 5.85-6.15 10.85.2 6.6 10.2 14 9.45 7.05 20.75 9.95-3.4 1.7-5.9 3.2l-.2.1q-16.45-5.3-24.55-11.75-8.45-6.7-8.25-14.95.1-5.95 6.1-12.25 4.15-4.3 13.15-10.6 10.75-7.5 13.05-9.4 6-5.05 6.05-8.8.05-2.8-3.55-6.75-3.95-4.3-10.65-8-17.2-9.45-41.35-9.6-10.7-.05-20.95 4.2-10.5 4.4-17.15 11.9Q18.8 67 18.05 76.9q-.85 11.1 6.6 22.75Q9.7 94.8 4.1 80.15q-5.75-15 .85-33.9 5.85-16.6 20.8-27.9Q40.8 7.05 65.4.75q-2.45 1.9-5.85 5.4l-5.1 5.4q14.1-4.05 31.3-2.3"/><path fill="#fff" d="M243.7 91.7q4.55-.6 14.45-5.05 8.45-3.75 14.4-7.3-.05 6.3-3.1 11.1-2.85 4.45-7.45 6.45-4.65 2-9.4.8-5.15-1.3-8.9-6"/><path fill="#00883f" d="M267.9 92.35q-1.55 1.9-4.15 3.6-2.95 1.9-5.15 2-2.2-3.15-1.55-8.75l.4-2.15 9.6-4.65q1.75 3.35 1.15 8.15z"/><path fill="#fccf00" d="M250.8 66.8q-2.35 1.2-7.25 7.8-4.9 6.55-5.65 9.55-.8-4.2 3.15-10.05 4.2-6.3 9.75-7.3m-23.65 13.1q-.95-5.05 1.45-10.95 2.45-6.1 6.45-7.65-1.4 1.35-4.25 8.25-2.6 6.35-3.65 10.35M257 196.2q1.95-.25 2.45.65.55.9-.75 2.6-3.15 4.15-5.55 4.75-1.1.3-2.05-1.75-.9-2.05-.4-3.55.6-1.9 6.3-2.7m-69.7-26.3q3.1 3.3-.1 5.55-2.4 1.6-3.85-2-1.85-4.6-.55-5.8t4.5 2.25m-66.7 49.55q-.55.25-2.4-.6-2-.85-2.15-1.7-.15-.95 1.8-2.65 2-1.85 3.35-1.65.75.1.45 3.15t-1.05 3.45M232 232.9q.55-2.05.5-2.75-.05-.9-2.55-4.05-2.6-3.3-3.5-3-.9.35-1.55 3.9-.6 3.3-.4 4.95.1.9.75 2.45.65 1.6 1.4 2.8 1.35 2.15 2.2 2t1.85-2.6zm-8.3-10.8q.65-2.5 1.75-2.85 1.05-.35 2.85 1.15 2.85 2.55 4.95 5.15 2.6 3.15 2.6 4.8 0 1.25-1.55 5.1l-3 6.55q-2.1 4.05-4.75.45-1.65-2.2-2.9-4.85-1.4-3-1.65-5.2-.1-1.15.45-4.4.5-3.05 1.25-5.9m7.6-43.3q-3.2-2.35-5.4-3.05l-1.6.05q-.25.45.05 1.95.6 3.1 2.4 7.4 1.85 4.45 2.8 4.65t3.4-3.15q2.35-3.35 2.05-4.2-.5-1.25-3.7-3.65m5.6.4q1 .95 1.35 2.2.35 1.35-.25 2.7-.9 2.3-2.45 4.7-1.75 2.75-3.45 4.2-3 2.45-5.3-1.05-3.1-4.85-5.15-11.05-2.45-7.3-.3-9.05 1.3-1.05 6.9 1.6 5.45 2.65 8.65 5.75m-101.25-36.5q5.1-6.55 4.5-7.35-.9-1.2-8 1.45-7 2.6-7.75 4.05-.6 1.3 1.5 4.85 2.05 3.55 3.25 3.55 1.35 0 6.5-6.55m8.5-9.9q.85 2.45-5.15 11-6.15 8.75-9.8 9.45-2.05.4-5.9-4.85-3.9-5.35-2.8-7.6 1.8-3.5 12.2-7.1 10.5-3.6 11.45-.9m-38.4 58.1q1 .3 2.3-1.2 2-2.25 4.05-6.25 2-3.95 1.9-5.45-.1-2.2-4.25-4.5-4.15-2.35-5.65-.85-.7.7-.75 6.4-.05 5.85.85 9.4.55 2.1 1.55 2.45m-4.1-21.55q2.5-1.75 8.75 1.15 6.5 2.95 7 7.15.6 4.85-4.2 11.5-4.75 6.6-8.25 5.85-3.15-.65-4.5-12.3-1.3-11.6 1.2-13.35m47.7 27.8-1.95-.1q-2 .7-4.65 2.15l-4.2 2.65q-.9.75-.95 1.5-.05.7.7 1.25 1.4.95 3.75 1.55l3.35.2q.9-.35 2.35-2.8 1.4-2.45 2-4.55.35-1.25-.4-1.85m-7.8-.25q7.25-3.75 9.85-2.65 2.2.95.45 7.75-1.75 6.75-4.15 7.45-2.4.65-7.65-1-5.8-1.85-5.9-4.4-.1-3.3 7.4-7.15"/><path fill="#dab300" d="M290.75 190.6q14.2-7.8 21.35-23.2-2.15 20.75-17.55 34.65-13.1 11.8-31.3 15.3l3.05-9.55q1.2-4.85 1.25-11.15 11.9.15 23.2-6.05"/><path fill="#491e57" d="M164.4 190.95q7.65-.6 17.55 3.8 2.85 1.25 18.95 10.05-2.2 13.45-6.5 22.2-5.1 10.45-15.05 18.8-3.35 2.75-5.35 6.05l.35-2.8q-8 4-10 6-.05-1.65-1.45-8-1.5-7.15-1.9-10.2-1.55 1.55-5.2 7-3.9 5.95-4.9 8.65l-3.1-7.35-3.1 6.95q-.45-3.45-.4-11.85.1-8.35-.4-12 16.35-15.25 20.5-37.3"/><path fill="#dab300" d="m164.4 190.95.55-3.65q12.05-3.7 24.55 2 3.55 1.6 10.95 5.35 6.95 3.2 13.1 4.5-.15 6.55.2 12.1-2.5-.35-8.85-3.95-8.15-4.85-12.8-7.45-18.2-10.2-27.7-8.9"/><path fill="#491e57" d="M300.75 207q-3.2 13.75-2.55 29 .2 3.55 2.85 6-7.3 13.6-19.6 18.75-5.1.45-9.55-.15-5.55-.8-8.45-3.05 2.05.15 6.45-.9 4.5-1.05 6.4-2.25-3.2-3.2-8.25-11.95-6.15-10.65-7.5-18.05l2.7-7.05q14.3-2.8 25.2-10.3 10.95-7.6 16.95-18.9-.85 5.75-4.65 18.85"/><path fill="#dab300" d="M155.8 243.85q3.65-5.45 5.2-7 .4 3.05 1.9 10.2 1.4 6.35 1.45 8 2-2 10-6l-.35 2.8q-1.65 2.7-2.55 5.85-1.8 6.05 2.85 21.85 3.75 12.7 9.65 25.85-10.8-4-22.7-14.5-11.7-22.6-15.75-35-.5-1.6-.8-3.8l3.1-6.95 3.1 7.35q1-2.7 4.9-8.65"/><path fill="#491e57" d="M114.1 134.85q-11.2-3.6-19.4-8.9Q85.95 120.2 83 114q8.9 7.2 16.7 7.75 4.35 3.25 9.8 5.85 5.4 2.55 10.7 3.95-3.4 1.7-5.9 3.2zM7.35 86.3q3.25-25.05 30.2-36.35-14.7 8.35-19.1 20.6-5.15 14.25 6.2 29.05-6.4-2.1-10.3-4.95-4.45-3.25-7-8.35"/><path fill="#dab300" d="M249.95 112.2q4.75 2.25 10.3 2 4.65-.25 8.95-2.15l-5.9 6.35q-3.25 3-4.55 1.95l-3.7-3.6q-2.4-2.5-5.1-4.55"/><path fill="#491e57" d="M165.4 182.8q15.5-2.55 28.45 2.75 7.45 3.05 9.25 3.55l10.8.35-.15 4.25-.2 5.45q-5.15-.6-16.45-5.95-10.9-5.55-12.45-6.15-3.75-1.45-9.4-1.35-6.05.1-10.15 1.95l.35-1.45z"/><path fill="#0d131a" d="M261.55 90.1q-.1-1.5.15-2.6.3-1.1.75-1.1.5-.05.85 1l.5 2.55q.1 1.6-.15 2.7t-.7 1.15q-.5.05-.9-1.05-.4-1.05-.5-2.65m-96.45 88.6q.15-2.6 1-2.85.85-.3.75 3.3-.85 26-13.85 42.4-12.5 15.7-41.35 28.75-10.5 4.75-17.9 20.8-6.45 14-7 27.35-.4 9.95.1 14.45.95 8.15 4.95 15.6 2.65 2.15 4 4.7 1.15 2.15 1.15 4.05 0 4.7-6.4 5.35-6.2.6-10.85-2.95-8.05-6.15-12.35-28.55-4.1-21.45-2.05-42.15 2.05-21.1 6.8-29.8 1.75-3.25 4.5-5.9l4.85-4.4q2.85-2.7 5.3-6.5 2.7-4.25 3.8-8.3 1.25-4.5 1.95-11.6l1.05-14.35q1.25-23.4 3.4-31.9 3.95-15.75 15.35-22.4 9.4-5.45 15.7-7.7 7.25-2.5 14.45-2.3 12.75.3 40.65 12.3 21.25 9.15 40.3 9.45 19.35.3 28.4-8.75 4.75-4.8 4.3-11.65-.45-7.25-6.7-12.1l1.7-.05 2.3.5q5.35 5.2 5.4 12.2 0 6.85-5.15 12-9.65 9.65-29.55 9.8-19.9.1-41.75-9.3-26.65-11.45-38.75-11.95-6.95-.3-13.9 2-6.2 2.05-15 7.2-10.85 6.3-15.05 22.6-2.5 9.65-3.65 31-.55 10.25-1.05 14.7-.8 7.55-2.45 12-1.85 5-4.65 8.7-1.7 2.2-5.25 5.6-6.4 6.1-9.15 12.4-4.55 10.55-6.05 31.7-1.4 19.95 2.3 38.3 4 19.9 12.05 25.95 3.9 2.95 8.7 2.45t4.75-3.75q0-3.5-4.3-7.1-1.75-1.75-3.75-7.9-3.25-10.15-2.7-23.7.6-13.95 7.4-28.55 7.8-16.65 18.85-21.7 27.25-12.3 40.05-28.8 12.75-16.3 14.35-40.65"/><path fill="#0d131a" d="M163.95 192.85q-.35.05-.1-.95.2-1 .55-1.05 7.4-.85 15.25 1.7 7.2 2.35 15.95 7.95 5.75 3.75 8.85 5.55 5.3 3.05 9.5 4.45l.35 3.6q-6.55-2.85-19.4-11.45-17.15-11.45-30.95-9.8m147.25-37.2q.65.4.9 2.25 2.25 16.9-5.65 32.2-11.9 22.9-43.5 28.15l.95-1.95q23.15-4.75 35.85-21.4 11.85-15.45 10.95-35.65-1.45 3.8-3.15 5.55-1.7 1.85-5.05 3.15-1.8.7-2.45.35t1.1-1.15q3.35-1.45 5.3-3.55 2.15-2.35 3.25-5.95.75-2.45 1.5-2M295.2 92l1.7-.6q-.4 4.25-.4 7.85l-1.65.35q0-4.1.35-7.6"/><path fill="#0d131a" d="M296.55 102.85q.5 12.75 5.8 31.3 6.2 21.8 7 27.15l-1.3 1.4-1.3.75q-.05-5.1-5.7-25.5-5.7-20.8-6.15-34.65 1.1-.4 1.65-.45m25.4-59.55-17.25 3.4q-12.1 2.25-15.75 2.35-4.7.1-12.7-1.7-8-1.75-12.65-1.75-7.8.05-16.3 3.75-2.3 1-1.3-.25 1-1.2 3.35-2.45 7.8-4.15 15.6-3.6 1.7.1 12.7 2.5l5.55 1.3 5.7.5q5-.15 16.85-2.65l16.35-3.4q3.3-.55 3.5 0 .2.45-1.75 2.7-10.95 12.65-17.1 22.2-7.1 11.05-9.05 19.9l-1.95 1.35q1.5-8.8 8.9-21.25 7.35-12.4 17.3-22.9"/><path fill="#0d131a" d="M302.45 162.6q-.65-1.2-.35-1.6.3-.45 1.15.75.5.8 1.6 1.15t1.9 0q.3-.1.5.7.25.85-.1.9l-2.7-.25q-1.45-.55-2-1.65m-56.3-124.7q3.65 5.5 9.35 7 .35.1-.4 1t-1.1.8q-6-2.1-9.55-7.85-3.1-5.05-3.5-11.45-8.1 8.1-14.05 25.2-5.75 16.5-5.75 30.25l-.8 1.5-.85.85q-.45-21.15 7.55-39.7 6.05-13.95 12.8-19.55 1.55-1.3 2.1-1.05.5.2.6 2.05.35 6 3.6 10.95"/><path fill="#0d131a" d="m224.8 58.2 2.3-6.3q-1.05 3.9-1.8 15.1-.55 10.2-1.5 13l-5.55 11.05q-3.75 7.45-2.6 11.3 1.05 3.7 4.3 4.65l.35.35q3.2 5.45 11.15 6.55 8 1.15 16.4-2.7.4-.15.7 0 3.75 1.75 8.55 2.25 6.25.6 11.15-1.55l1.7-.1q-.25.8-2.15 1.6-4.35 1.95-9.6 1.75-5.15-.15-10-2.3-9.7 4.3-17.45 3.3-8.15-1.05-11.75-7.8-2.5-.6-3.85-2-1.1-1.15-1.7-3.1-1.4-5.05 2.95-12.85 5.15-8 6.1-10.9 1.2-3.55 1.45-12.6l.3-5q.25-2.85.55-3.7"/><path fill="#0d131a" d="M281.15 63.8q-13.65 5.55-22.05 8.7-5.85 2.2-11.1 8.4-2.85 3.4-6.6 9.7-1.45 2.55-2.6 3.6-2.15 2.1-9.85 4.9-7.4 2.65-8.6 2.2-.95-.4-2.1-3.9-1.25-3.7-1.25-6.8 0-.35.7-.95.65-.6.65-.25 0 2.65.95 6.4.8 3.35 1.45 4.25 2.2-.4 8.2-2.65 6.8-2.55 8.8-4.2l1.45-2.15 1.25-2.5q4.1-7.05 6.05-9.4 4.7-5.8 10.9-8.1l23.4-9.1q16.3-6.5 23.8-9.9 3.85-1.8 1.4 2.3Q285.6 87.7 271.85 97q-7.5 5.1-15.3 5.3-7.5.2-16.65-4.15-5.35 2.95-11.35 4.9-6.35 2.05-8.55 1.3-1.85-.7-3.3-4.65-1.3-3.5-1.2-5.85l.5-.75.5-.05q.1 2.35 1.5 6.05 1.4 3.75 2.3 4.1 1.45.4 7.9-1.75 6.8-2.3 11.3-4.95.3-.2.7 0 8.7 3.9 15.85 3.6 7.55-.25 14.8-5.05 13.7-9.1 33.35-41-8.15 3.65-23.05 9.75"/><path fill="#0d131a" d="M219.1 103.6q0-.35.85-.35t.85.35l.05 3.05q2.55 3.7 10.1 4.15 7.95.45 13.5-3.65 1.75-1.3 1.45-.3t-2.05 2.4q-5.5 4.5-13.85 3.5-7.85-.95-10.65-5.3l-.15-1.4zm57.25-12.25q2.35.95 4.9 2.55l-2 .8q-2.15-1.35-3.5-1.8-.35-.15-.05-.9.3-.8.65-.65m7.1 6.55 1.8-1.05 3.3 3.2-2.15.8zM296.8 115q.35 1.05.3 6.05-2.45-9.2-7.95-16.8l2.4-.45q2.9 4.1 5.25 11.2m-55.05-40.5q-2.05 3.05-2.85 5.95 1.65-2.8 4.05-6 2.45-3.3 4.65-5.6-3.3 1.95-5.85 5.65m7.25-7.6 2.05-.2q.45.35-.8 1.4-2.5 2.2-6.2 7.15t-5.1 8q-.6 1.35-1.1 1.15t-.4-1.75q.3-4.55 3.55-9.2 3.45-5 8-6.55m-15.9-3.5q-2.25 2.2-3.9 5.9-1.8 4-1.6 7.2 2.85-8 5.5-13.1m-.25-1.15q1.95-1.5 2.4-1.2.4.35-.8 2.4-1.2 2.1-3.2 7l-3.05 7.8q-.65 1.8-1.05 1.75-.4-.1-.65-2-.45-4.35 1.25-8.7 1.75-4.45 5.1-7.05"/><path fill="#0d131a" d="M330.7 64.55q3-2.3 3-1.15.05 1.05-2.6 4.05-8.2 9.45-24.7 19.45-14.8 9-25.7 12.4-2.35.8-3.9.55t.8-.95q10.1-3.2 25.35-12.05 16.9-9.8 25.8-18.7-12.5 9.4-24.75 16.45-16.6 9.5-27.45 11.25-2 .35-.45-.75 1.55-1.05 3.7-1.65 11.5-3.25 27.55-12.85 12.5-7.5 23.35-16.05m6.55 22.5q4.15-1.65 3.55-.25-.65 1.35-4.8 3.7-10.4 5.95-24.65 10.15-15.15 4.45-29.2 5.2l-3.2-.4q-1.25-.5.7-.6 12.45-.65 28.25-5.05 14.6-4.1 25.6-9.5-12.65 4.6-27 7.95-16.1 3.7-26.5 3.85-1.25 0-1.6-.4-.4-.45 1.65-.9l1.6-.25q12.55-1 28.5-4.95 14.95-3.75 27.1-8.55M192.5 189.6l9.45 5.1q6.05 2.85 12 4v1.45q-5.35-.55-11.55-3.35-3.85-1.8-11.3-6.15-7.55-3.55-13.3-4.1t-12.15 1.65q-.35.1-.05-.9.3-1.05.6-1.15 6.5-2.2 12.5-1.45 6.3.8 13.8 4.9m73.2-53.7q-3-9.7-9.2-16.95-.95-1.15-2-3-1.05-1.8-.65-1.5 6.25 4.25 11.3 15.35 5.7 12.5 3.8 22.7 1.85-2.95 2.65-5.35.85-2.7 1.45-2.7.65 0 1.15 3 .65 3.8.4 9.35-.3 6.8-1.9 14.7 2.1-1.75 5.05-7.15 1.25-2.3 1.8-2.15.55.2 1 2.95 3.15 19.25-12.35 28.3l-.2-.95-.25-1q6.45-4.1 9.4-11.15 2.7-6.65 1.9-14.65-1.4 2.7-2.8 4.45l-3.2 3.2q-1.5 1.25-1.95.85-.45-.35-.2-2.2l1.45-9q.85-7.15.15-13.65-1.25 3.1-3.65 5.7-1.25 1.35-1.55 1.15-.25-.2 0-1.95 1.4-8.65-1.6-18.35M142.95 240.75v-6.25q-.2-3.35-.85-5.65-.05-.35 1.25-.65l1.35.05q.45 2.55.55 6.25V249q.2 4.1 1.05 6.65 4.25 13.05 16.8 37 9.9 19 14.25 25.55 2.85 4.25 6.6 5.6 3.45 1.2 5.55-.5 1.65-1.4 1.55-3.35-.1-2.2-2.55-4.15-4.85-6.5-12.2-26.7-8.55-23.3-6.1-31.65 2.05-6.75 8.6-12.3 10-8.4 14.9-18.45 4.1-8.35 6.25-21.95.05-.35 1.35.3t1.2 1q-2.2 13.85-6.45 22.15-4.95 9.55-15.7 18.55-3.05 2.55-4.85 5.05-2 2.75-3 6.15-2.3 7.8 5.4 30.45 7.2 21.05 12.15 26.6 2.85 2.3 2.85 5.25.05 2.8-2.4 4.5-3.15 2.2-7.65.7-4.7-1.55-7.15-6.15-7.8-13.45-14.55-25.95-13.15-24.3-17.3-36.95-.9-2.65-1-7.25z"/><path fill="#0d131a" d="M213 190.9q.45-4.3 1.35-4.05t.65 2.6q-1.25 12.4.35 28.4 1.4 13.5 4.55 27.3 1.4 6 1.3 8.35-.1 1.75-1 1.75h-.05q-1.6.2-4.8-1.6-2.9-1.65-5.95-4.25 1.9 4.95 4.4 9.25t4.8 6.6q1.25 1.25.1 1.3t-3.15-1.25q1.9 2.9 7.05 8.95 4.2 13.7 9.6 22.95 3.35 5.8 10.85 15.25l8.75 11.6q5.35 7.55 10.3 16.35 3.8 6.75 6.25 9.65 4.4 5.25 8.65 5.25 4.9 0 7.95-1.2 1.05-.35 1.45-1.55t-.05-2.65q-.4-1.35-3-4.15l-3.3-3.45q-5.2-6.2-15.5-28.2-7.35-15.75-13.95-31.95-3.2-7.85-4-12.35-1.1-6.15.55-12.55 1.6-6.25 4.25-13.15l4.9-11.8q7.15-16.4 9-25.8 3.15-15.7-.6-34.45-.8-4.1.2-2.5 1.05 1.6 1.85 5.7 3.8 19 .8 33.1-1.5 7.15-8.95 24.25-5.15 11.75-9.25 25.6-1.8 5.9-.8 11.55.65 4 3.75 11.65 4.75 11.75 13.1 29.75 11.4 24.7 15.9 30.1l3.8 3.7q3.05 3.15 3.5 4.8.5 2.1-.4 3.75-.9 1.55-2.7 2.2-3.75 1.35-8.95 1.35-5 0-9.3-4.85-2.85-3.15-6.2-9.65-4.85-9.35-10.2-17-4.05-5.7-9.2-11.6-7.45-8.5-10.9-14.6-4.95-8.65-9.55-23.65-2.55-2.75-5-5.95-2.95-3.9-4.1-6.45-1.45-3.2-.65-3.15.7.05 2.65 2.1-4.7-6.95-6.95-13.6-.8-2.4-.1-2.75.7-.3 2.8 1.45l4.85 3.8q3 2.05 5.1 2.45.05-.95-.5-3.3l-1.15-4.8q-4-15.5-5.25-29.85-1.2-13.4.1-24.75m-53.6 46.35q1.25-1.45 1.75-1.35.55.1.85 2l1.25 8.4q.85 5.6 1.4 7.95 3.45-3.05 6.9-4.85 3.65-1.95 3.55-.4l-.2 2.2q-.2.8-2.15 1.35l.6-2.25q-5.3 3-7.95 4.9-.8.6-1.1.6-.35-.05-.8-1-.85-2-1.8-7.4-.8-4.75-1.2-8.85-1.75 2.2-4.4 6.45t-4 7l-.95 1.45q-.45.1-1.15-1.25l-2.2-4.9q-1.35 2.45-2.3 5.65-.15.3-.95-.45t-.65-1.05q.3-1.2 1.25-3l1.6-2.65q.85-1.1 1.25-1.15.5-.05 1.1 1.25l1.85 4.6q2.8-6.6 8.45-13.25"/><path fill="#0d131a" d="M248.65 282.5q.2-5.2.35-5.7.1-.35.7.2l.55.9-.2 5.9-.1 5.3q-.1 1.75-.5 1.85-.4.2-2-1.2l-6.3-6.1q-3.9-4.1-6.35-7.3l1.6 7.55q1.2 5.2 1.4 7.3.25 2.1-.25 2.3-.45.15-1.95-1.05l-6.8-5.75-5.35-5.1q-.25-.25-.1-1.35.2-1.15.5-.95l12.6 12.05q-2.5-7.4-3.05-14.85-.2-2.05.35-2.3.6-.25 2.25 1.35l7 7.4 5.5 5.9zM115.1 15.85q2.25 1.05 2.15 1.6-.1.45-2.35.9-8.5 1.6-15.2 4.4-7.3 3.05-13.9 8 12.5 2.4 28.45 13.95 17.65 12.75 16.7 22.55-.45 4.65-6.05 9.5-2.7 2.35-12.8 9.05-11.2 7.45-14.9 10.65-7.1 6.1-7.1 10.95v.2q.15 6.55 10.5 13.85 10 7.05 21.3 9.15.3.1-.65 1l-1.25.8q-11.55-2.85-21.2-10.05-10.15-7.65-10.35-14.75v-.2q0-5.5 6.95-11.85 4.25-3.85 15.1-11 9.15-6.1 12.3-8.8 5.7-4.85 5.85-8.5.4-8.7-15.55-20.55Q98.6 36 85.35 32.35q-2.05-.55-2.15-1-.15-.55 1.55-2 6.5-5.65 12.8-8.35 6.3-2.65 16.2-4-13.35-5.1-28.6-6.65-17.4-1.75-30.5 2-2.65.75.8-3.15 2.95-3.4 7.6-7.3-22.35 6.3-36.8 17.8-14.5 11.5-20.1 27.4Q.5 63.2 4.55 77.4q4.4 15.35 18.65 21.2-5.7-8.25-6.45-17.15-.65-8.25 3-15.55Q25.1 55.1 36.6 48.65q12.1-6.85 27.5-6.8 18.05.05 32.75 5.6 12.35 4.65 19.25 11.7 6.1 6.2 3.5 11.15-2.35 4.55-15.45 13.65-9.95 6.9-14.65 11.55-7.1 7.15-7.25 13.35-.15 7.05 8.7 13.85 8.6 6.55 23.55 11.25.35.1 0 .9-.3.8-.65.7-14.25-4.5-23.05-10.6-10.9-7.6-10.75-16.2.15-6.7 7.75-14.2 4.5-4.45 15.35-12Q115.2 74.2 117.4 70.7q2.8-4.45-2.65-10-6.75-6.85-18.7-11.35-14.3-5.4-31.95-5.45-13.35-.05-25.1 6.3-11.85 6.4-16.9 16.6-3.55 7.15-2.95 15.05.6 7.95 5.4 16 1.3 2.2.9 2.65-.45.5-3.2-.6Q8.8 94.7 3.05 81.1q-6.4-15.15.4-34.45Q15.6 12.15 63.25.45L66.6.2q.4.45-1.85 2.4l-7.6 7q13.9-3.35 30.35-1.35 15.45 1.85 27.6 7.6M352.85 263.5l-20.2.65q-12.6 2.75-22.05 4.05-18.15 2.55-23.8-2.5-4.75 2.3-10.85 2.95-2.15.25-2.35-.35-.2-.5.9-1.7 1.2-1.4 5.4-5.05-4.5.35-7.95-.05-3.9-.45-7.4-1.95-2.6-1.15-2.65-1.75 0-.7 3.3-1.1 6.5-.7 9.75-2.55-5.6-6.25-9.65-13.55-4.35-7.85-5.15-13.8l.75-1.8q.75-1.7.8-1.4.9 6.75 6.25 16.7 4.25 7.95 8.1 12.55 1.1 1.35.2 2-2.95 2.4-10 3.35 5.2 2.35 13.85 1.8l1.8.2q.25.25-.25 1.3-1.4 2.8-5.1 5.3 5.55-1.05 10.05-2.8l.9.2q4.15 4.4 23.5 1.95l21.5-3.65 19.95-.85q12.8 0 16.15 1.45 4.4 1.95 8.2.6 3.85-1.4 2.45-5-2.25-5.75-10.25-7.8-7.95-2.1-26.75-1.85l-12.8.05-13.1-.75q-6.7-.7-11.4-2.9-7.3-3.35-7.55-9.4-.65-15.1 2.4-28.75 3.6-12.85 4.3-18.4.05-.35 1.75-2.4 1.7-2.1 1.65-1.75-.85 6.05-2.55 12.85l-2.8 10.95q-3.1 13.1-2.5 28 .2 5.2 6.65 7.75 3.6 1.45 10.2 2.15 9.2 1 25.7.7l24.1 1.2q11.65 2.25 14.5 9.85 1.55 4.3-2.25 6.7-4.1 2.55-10.75 0-3.1-1.2-14.95-1.4"/><path fill="#0d131a" d="m305.55 245.65 1.15-.2q1.4 0 1.95.35l4.05 2.3q1.2.6 1.1 1.05l-1.45 1q-5.85 3.1-14.7 5 3.35 1.95 8.3 3.3 1.45.4 1.65.8.25.5-1.35 1.4-3.85 2.25-7.45 3.4-4.2 1.3-10.3 1.9-.35 0-1.05-.95t-.35-.95q3.5.1 9.4-1.45 5.2-1.35 8.75-3-5.95-1.3-9.3-3.85-1.25-.9-1-1.25.15-.3 1.95-.75l7.8-2.25 7.2-2.6q-3.75-1.3-6.35-3.25M82.6 240.7q1.7-1 2.15-.75.35.25.05 1.9-.6 2.9-.95 7.15-.4 4.1-.3 6.45 4.4-4.2 10-5.95 1.55-.6 1.85-.35.25.3-.3 1.75-2.1 5.4-2.2 7.9 2.05-1.3 5.3-2.65 2.45-1 3.95-1.45.35-.05.55.85.25.9-.1 1l-4 1.4-5.2 2.1q-1.4.65-1.75.35-.4-.25-.2-2.05.5-3.95 2.15-7.4Q90 252.5 84 257q-1.45 1.05-1.7.9t-.45-2.05q-.6-6.4 1.15-13.5l-6.45 5.25q-1.15.9-1.6.6-.4-.25-.65-1.8-.4-2.15-.45-4.65-.05-2.85.4-4.65.05-.3 1.15-.55l1.05-.1q-.4 1.1-.6 5.05-.2 3.6-.05 4.7 2.8-3.15 6.8-5.5m176.25-43.5-3.8-.15q-3.35.85-3.7 2.05-.3 1.05.4 2.85.7 1.7 1.25 1.6 1.4-.35 3.85-2.8 2.6-2.6 2-3.55m-3.85-1.15q4.35-.7 5.05.45.65 1.1-1.5 4.1-2.3 3.2-5.2 4.3-1.3.45-2.55-2.05-1.25-2.4-.8-4.15.5-1.9 5-2.65m-19.8 34.3q0-1.6-4.1-6.2-4.15-4.65-5.4-4.3-1 .3-2.3 5.85-1.2 5.2-1.05 6.6.3 2.95 3 7.35 2.5 4.2 3.5 4.15 1.15-.1 3.75-5.6t2.6-7.85m-13.85 2.1q-.2-1.85 1-7.05 1.35-6.05 3.05-6.55 2.1-.65 6.65 4.35 4.4 4.85 4.4 7.15 0 1.8-2.5 7.7-2.8 6.75-4.95 6.9-1.85.15-4.55-4.3-2.7-4.4-3.1-8.2"/><path fill="#0d131a" d="M223.85 232.05q-.2-1.85.4-5.1.7-3.95 2-4.4t4.2 3.25q2.7 3.4 2.75 4.35.05 1.3-1.3 5.15-1.55 4.45-3.05 4.6-1.15.1-2.85-2.5-1.8-2.65-2.15-5.35m6.8 2.95q1.35-3.45 1.3-4.75-.05-.8-2.3-3.75-2.35-3-3.05-2.95-.7.1-1.25 3.45-.55 3.05-.45 4.85.1 1.6 1.8 4.25 1.6 2.45 2.05 2.4.55-.05 1.9-3.5m6.75-51.15q.95-2.35-1-4.15-3.2-3.1-8.55-5.65-5.1-2.4-6.05-1.65-1.75 1.4.4 8.1 2 6.2 5.2 11.05 1.85 2.9 4.25.9 1.55-1.3 3.25-3.9 1.5-2.35 2.5-4.7m.25-5.2q1.2 1.15 1.45 2.7.2 1.5-.45 3.05-1 2.45-2.55 4.85-1.8 2.8-3.55 4.25-1.95 1.7-3.15 1.75-1.45.05-2.75-2-3.2-4.9-5.45-11.55-2.8-8.3-.3-10.35 1.7-1.4 7.95 1.55 5.7 2.75 8.8 5.75"/><path fill="#0d131a" d="M224.9 176.2q-.45.95 1.65 6.55 2.15 5.65 3.15 6.35.75-.2 2.7-2.9t1.95-3.5q-.5-1.35-4.8-4.2-4.25-2.8-4.65-2.3m-.95-1q1.15-1 6.45 2.3 5.3 3.35 5.3 5.1 0 1.5-2.5 4.75-2.55 3.4-3.8 3.1-1.6-.35-4.1-7.3t-1.35-7.95m20.65-27.1q-.5-3.55-.5-5.6 0-.3.5-.3t.5.3q0 2.2.65 6.05.7 4 1.5 6 .6 1.3 1.35 1.5.9.25 1.9-1.05 1.7-2.25 4.05-6.7 2.45-4.8 2.4-6.15-.15-.85-1.75-2.8l-2.1-2.25q-.2-.2.1-.65.35-.5.6-.35l2.8 2.55q1.8 2.05 2 3.3.25 1.35-2.3 6.45-2.65 5.3-4.9 7.45-1.8 1.75-2.9 1.65-1-.05-1.9-1.8-1.3-2.45-2-7.6"/><path fill="#0d131a" d="M251.1 139q-.15-.1.15-.45.35-.35.6-.2l1.6 1.4q1.05 1.1 1.25 1.8.35 1.15-1.25 4.7l-2.3 4.25q-1.45 2-2.25 1.65t-1.35-3.25q-.7-3.7-.85-7.55-.05-.3.6-.3.6-.05.6.25.15 3.1.9 7.45.25 1.35.65 1.45.45.15 1.05-1.05l2.05-4.5.8-2.7-1-1.6zm-44.75 8.4q.5-1.25 0-2.4-.1-.25.4-.5l.65.05q.8 1.65.25 3.2-.5 1.4-1.8 2.15-5 2.9-13.9 4.35-9.85 1.55-11.85-1.55-1.35-2.1 1.1-7.35 2.15-4.75 4.8-7.15.2-.2.9.45.65.7.4.9-2.4 1.9-4.75 6.55-2.3 4.7-1.5 5.95 1.5 2.35 10.7.7 7.75-1.4 12.95-3.65 1.15-.45 1.65-1.7"/><path fill="#0d131a" d="M202.85 146.25q.4-.65-.15-1.7-.15-.2.45-.55t.75-.15q.55.9.3 2.15-.2 1.25-1 1.6-3.35 1.5-10.6 2.65l-8.7-.25q-1-1.75 1.65-5.5 2.1-3.05 4.3-4.7l.65.4q.45.55.2.7-1.7 1.3-3.9 4.3-2.25 3.15-1.85 3.9l9-.3q7.5-1.3 8.9-2.55m-16.75 23.6q-2.15-2.1-2.75-1.7-.75.45.3 3.65 1 3.2 1.9 3.45.65.15 1.55-.5.95-.7 1.05-1.65.1-1.1-2.05-3.25m-3.5-2.9q1.35-.85 4.25 1.7 2.9 2.6 2.65 4.6-.15 1.35-1.7 2.5-1.6 1.15-2.65.8-2-.55-2.95-4.7-.9-4.05.4-4.9m-53.65-32.45q5-2 9.7-2.8 5.1-.85 5.9.95.75 1.75-2.05 7.25-2 4-6.05 8.45-4.4 4.9-7.15 5.4-2.1.4-5.4-3.4-3.2-3.7-4.05-7.2-.55-2.4 1.3-4.2 2.4-2.3 7.8-4.45m1.45.75q-4.3 1.8-7.5 4.1-1.5 1.1-1.85 1.85-.3.7.1 1.8 1.05 2.85 3.75 6.25 2.9 3.6 4.3 3.35 2.2-.45 6.95-6.3 4.6-5.65 6.5-9.95 1.25-2.7.55-3.5l-4.15-.2q-4.25.8-8.65 2.6"/><path fill="#0d131a" d="M125.05 141.2q-.4.75 1.45 4 1.8 3.25 2.6 3.35 1.1-.2 5.5-5.65 4.35-5.45 4.85-7.15-1.5-.25-7.5 1.9-6.15 2.2-6.9 3.55m13.5-6.85 2.3.1q.7.35.05 1.7-1.35 2.7-5.5 7.9-4.7 5.9-6.25 5.9-1.4 0-3.8-3.75-2.45-3.9-1.55-5.65.75-1.4 6.3-3.7 5.45-2.25 8.45-2.5m-26.5 37.75q-4-2.5-7.55-2.75-2.05-.1-2.8 1.25-.9 1.55-.9 6.2 0 6 1.15 11.4 1.25 5.95 3.1 6.3 3 .65 7.6-5.75 4.65-6.55 4.1-11.2-.35-2.8-4.7-5.45m-7.25-3.95q4.55.25 8.7 3.1 4.25 2.9 4.6 6.3.6 5.35-4.3 12.15-4.95 6.85-9 6-3.15-.65-4.75-10.05-1.5-8.95-.1-14.4.85-3.3 4.85-3.1"/><path fill="#0d131a" d="M111.45 183.15q1.95-3.8 1.85-5.1-.05-1-1.75-2.45-1.65-1.45-3.75-2.3-2.2-.85-2.95.4-.8 1.25-.8 5.75 0 5.7.85 8.85.4 1.6 1.05 1.8t1.65-.85q1.9-2.2 3.85-6.1m-7.5-10.85 4.35-.15q2.4.95 4.25 2.55 2.1 1.75 2.15 3.3.1 1.85-2.05 6.1-2.2 4.4-4.3 6.2-1.6 1.35-2.6 1.1-1.15-.3-2-2.75-1.25-3.7-1.05-11.25.15-3.9 1.25-5.1m13.3 41.9q2.2-2.15 4.05-1.95 1.4.2 1.1 3.7t-1.5 4.1q-.9.45-3-.45-2.2-.95-2.5-2.35-.2-1.05 1.85-3.05m3.65-.65q-.75.1-2.4 1.4-1.7 1.4-1.75 2.05.05.45 1.45 1.15l2.05.75q.55-.7.7-2.75.2-1.85-.05-2.6m30.2-18.65q-2-.85-9 2.65-7.35 3.6-7.25 6.5.05 1.95 5.15 3.7 4.95 1.75 7.55 1 1.85-.5 3.6-6.75 1.75-6.35-.05-7.1m-9.95 1.55q7.55-4.05 10.5-2.8 2.75 1.15.85 8.45-1.95 7.25-4.6 8-2.45.7-8.1-1.15-6.25-2.05-6.35-4.9-.1-3.5 7.7-7.6"/><path fill="#0d131a" d="M145.15 205.7q.8-.25 2.6-3.75 1.9-3.6 1.25-4.15-.75-.7-5.75 2-5 2.65-5 3.6.05.75 2.95 1.75 2.9.95 3.95.55m2.05-9.3 2.65.05q1.15.75.6 2.75-.55 2.05-2.05 4.5t-2.65 3.1q-1.1.65-3.8 0-2.5-.6-4.05-1.65-2.4-1.7.2-3.85 1.55-1.25 4.25-2.7 2.75-1.5 4.85-2.2M267.35 82.2q1.6 2.35 1.65 5.45t-1.45 5.8l-1.15.15q1.25-2.6 1.2-5.75-.05-3-1.2-5.1zm-9.4 5q-.5 2.15-.1 5.55.5 3.65 1.65 4.7l-.7.9q-1.85-1.7-2.3-5.15-.45-3.3.55-6.3zM85.35 333.4q-.6-1.1-.1-1.1t1.2 1.1q1.15 1.8 1.4 3.65.3 1.9-.35 4.55l-.75.1q-.65-.15-.6-.45 1.05-4.3-.8-7.85m4.45-.75q-.65-.75-.4-1.1.2-.3 1.4.8 2 1.85 2.75 3.95.6 1.9.3 4.4-.05.3-.7.2-.7-.1-.65-.35.55-4.1-2.7-7.9m97.65-15.2q-.95-1.1-.55-1.35.35-.25 1.4.85 2.7 2.95 2.35 6.3l-.7.65-.75.05.05-2.5q-.25-2.2-1.8-4m-4.1.8q-.95-1.25-.35-1.2.65 0 1.65 1.2 2.1 2.55 1.65 6.55l-.75.2q-.7-.1-.65-.35.25-2.05-.05-3.4-.35-1.5-1.5-3m92.6 29.25q2.55 2.45 3.25 3.75 1 1.9.4 4.55-.05.3-.75.25-.7-.1-.65-.35.2-2.4-.45-3.8-.6-1.3-3.3-4.25-1.15-1.25-.45-1.3.75-.05 1.95 1.15m7.45 3.7q-.7-2.25-2.85-4.55-1.4-1.5-.75-1.4.65.05 2.15 1.55 2.3 2.2 2.8 4.05.35 1.05.25 4.05l-1.3.1q.15-2.3-.3-3.8m86.2-92.6q-1.35-.55-.65-.8.65-.25 2.05.3 2.65 1.1 4 2.85 1.35 1.7 1 3.45-.05.3-.8.25-.7-.1-.65-.4.25-1.2-1.2-2.9-1.5-1.8-3.75-2.75m4.4-3.15q-1.4-.45-1-.75l1.75.15q2.4.75 4 2.4 1.65 1.7 2 3.75l-.6.4q-.7.1-.75-.15-.3-1.75-1.85-3.4-1.6-1.75-3.55-2.4"/><path fill="#fff" d="M258.45 88.1q.1-.8.65-1.3.6-.5 1.25-.4.7.1 1.1.7.4.65.3 1.45-.05.8-.65 1.3-.55.5-1.25.4-.65-.05-1.1-.7-.4-.65-.3-1.45"/><path fill="#0d131a" d="M243.7 91.1q4.95-1.1 16.5-6.4 11-5 14.15-7.35 1.25-.95 1.25-.25 0 .65-1.25 1.55l-1.35 1q.05 14.05-10 18.15-4.5 1.85-9.6.55-5.35-1.35-10-5.95-.9-1 .3-1.3m14.75-3.65q-8.15 3.65-13.6 4.6 9.5 7.95 18.1 3.85 8.4-3.95 8.8-15.55-5.65 3.7-13.3 7.1"/></svg>