<svg xmlns="http://www.w3.org/2000/svg" width="207" height="217" viewBox="-2.25 -0.6 207 216.65"><path fill="#009f50" d="M166.9 70.75q-5.45-8.55-11.55-7.05-2.85.7-3.65 5.55-.8 5.3 1.9 11.7-1.25.55-3.35 2.05-2.35 1.75-3.7 3.25-4.6-4.1-8.95-5.7-3.2-1.25-9.55-2-1.65-8.15-5.55-12.95-4-4.95-9.3-4.85-4.75.15-7.15 6.6-2.7 7.25 1.2 16-6.3 3.5-10.15 10-3.45 5.75-3.5 11.05-.05 7.25 3.45 13.55 2.8 5.1 8.2 9.95-10.7-3.1-18.2-9.8-7.45-6.7-10.3-15.6-2.95-9.3-.25-19.2 2.9-10.65 11.95-20.5-2.7.5-6.25-.85-3.45-1.3-4.95-3.25-7.15 2.05-13.15-.45-5.45-2.2-8.1-7.15-2.6-4.85-1-9.65 1.7-5.2 7.9-7.9-1.65-8.95 2.7-13.95 4.1-4.75 12.55-5 1.05-7.35 9.7-10.55Q96.8.8 104.95 5.8q2.05-2.9 6.25-4.2 4.1-1.25 8.65-.55 10.85 1.7 13.75 11.05 4.2-2.25 9.35-1.85 5.05.4 8.95 3.2 4.15 3 5.45 7.6 1.45 5.15-1.05 11.25 5.55 4.4 3.45 10.85-2.15 6.5-9.7 7.3l-.7 2.5q4.1 1.8 8.65 4.9 5.25 3.5 8.05 6.65 2.05-6.75 9-10.7 7.35-4.2 14.45-1.5 4.9 1.85 8.3 7.05 3.45 5.2 4.5 12.45 2.45 16.6-7.6 32.85-4.95 8-14.05 11.5-8.55 3.25-16.5 1.1 2.35-2.15 5-6.2 3.3-5 4.25-9.25.45-3.75-.05-7.9-.7-5.05-2.6-6.4 1.6-8.25-3.85-16.75"/><path fill="#39b382" d="M171.95 74.05q1.7-6.75 7.3-9.5 5.4-2.65 10.1.4 3.2 2.05 4.5 6.8 1.25 4.6.35 10.2-2.1 13.1-12.15 19.35 3.85.1 4.4 2.45.55 2.4-3.25 4.5-2.9 1.6-6.6 2.35l-7.05.25q5.15-6.15 6-17.35.85-11.45-3.6-19.45"/><path fill="#fcd25b" d="M172.55 90.45q2 5.95.9 13.1-6.25 12.85-17.7 19.75-11 6.6-25.55 7 3.3 4.7 8.95 10.6 5.6 5.8 8.7 7.8 3.75 2.4 7.25 1.95l9.4-1.85 8.25-2.15q8.1-2.55 14.1.3 5.8 2.75 6.15 8.9.25 5.5-1.95 9.65-2.6 4.9-8.05 6.4-8.75 2.4-16.2 1.75-7.95-.7-13.75-4.85-5.3-3.75-12.5-12.85-7.65-9.7-12.05-18.95-1.55 14.4-1.1 25.45-4.15 5.4-12.5 5.45-8.65.05-14.1-5.95.4-2.8.15-6.1-.3-3.65-1.25-4.8.85-2.75 3-8.5 2.25-5.9 2.95-7.3-3.6 1.5-6.45 3.45.75 1.85.3 3.55-.65 2.3-3.35 4 4.15 4.85 4.75 9.5.6 4.95-2.4 12-2.6 4.2-7.4 6.35-4.75 2.1-9.4 1.2-6.65-1.3-10.05-7.15-3.4-5.95-1.8-13.75 1.55-7.6 11.85-14.75 9.7-6.7 24.5-11.25-11-6.65-12.5-18.6-1.2-9.6 3.2-16.5 7.65-12 23.1-14.45 15.7-2.5 26.1 7.25 5.35-5.45 11-6.45 5.2-.85 9.45 2.15 4.1 2.95 6 8.65"/><path fill="#009f50" d="M100.65 161.55q6.15 6.65 14.85 6.4 8.35-.2 12-6 0 1.15.35 3.65l.65 3.5q5.7 1.1 11.5 5.75 6.3 5 6.65 9.9.3 4.15-1.55 8.15-2 4.15-5.5 6.05 2.15.85 3.85 2.5 1.9 1.85 1.85 3.65-.1 2.8-3.4 3.7-2.9.8-7.15-.15-2.15-.5-4.45-1.5-2.8-1.2-4.15-2.5-1.45-1.4-1.1-3.4.35-1.9 2.2-3.45 1.7-1.35 2.6-3.6.8-2 .6-3.3-.25-1.4-3-3.25l-4.35-2.85-10.8 1.15q-5.75.3-9.15.2-1.55-.05-2.65.65-1.9 1.15-5 3.45t-3.5 2.8q-.3.45-1 5.4l-.7 5.8q2.35 1.8 2 4.7-.3 2.75-2.7 4.2-3.35 2.1-7.25 1.7-3.85-.35-6.3-2.85-1.75-1.75-.7-4.85 1.1-3.25 4.35-4.35-4.1-7.1-3.95-13.9.15-7.7 5.95-13.6 6.7 1.45 12.55-2.85 5.75-4.25 6.4-10.9"/><path fill="#009f50" d="M1.15 142.7q.2-9.35 3.05-10.6 3.35-1.45 8.75 1.6 5.1 2.9 8 7.25 1.65-3.5 4.25-6.2 3.2-3.3 6.2-3.2 3.35.1 5.8 6.05 2.5 6.1 1.85 13.05-.55 6.1-4.45 11.05-4.3 5.45-10.2 5.7 7.15 11.65 20.2 16.05 15.55 5.3 33.2-2.9-1.05 1.7-1.6 4.8-.55 2.8-.45 5.7-16.6 6.7-35.25-1.15-8.4-3.55-14.5-9.35-6.3-5.95-8.7-13-4.2-.25-8.3-3.6-3.9-3.25-6.05-8-2-4.4-1.8-13.25"/><path fill="#ed8599" d="M148.5 116.4q-2.55 4.3-6.15 6.45t-6.65 1.2q-4.95-1.5-5.8-6.6t3-10.65q11.15.6 15.6 9.6"/><path fill="#fcd25b" d="M96.8 26.35q.4-.8 2.55-.65 1.85.1 3.35.7 1.35.5 2.65 2.05 1.35 1.65.75 2.55t-2.65.75q-1.8-.1-3.55-.85-1.9-.75-2.8-2.4-.7-1.4-.3-2.15m16.9-10.8q1.2-.15 2.4 1.65 1 1.65 1.5 3.9.5 2.2-.05 4.2-.55 2.15-1.9 2.35-1.25.15-2.5-1.95-1.1-1.8-1.45-3.8-.35-2.15.2-4.1.6-2.05 1.8-2.25m19.55 8.95q.4.8-.7 2.3-.95 1.35-2.35 2.2-1.35.85-3.1 1.15-2.05.4-2.45-.55-.5-1 .4-2.4t2.65-2.45q1.7-1 3.45-1.05 1.65-.05 2.1.8"/><path fill="#922f00" d="M149.2 102.25q1.6 1.05 3 1.25.2 2.8-.8 6.6-1.1 4-2.9 6.4-2.55-4.95-6.15-7-3.35-2-9.55-2.4.7-1.7 2.3-3.1 3.4-.25 6.5-1.25 3.4-1.15 5.3-2.95.45 1.3 2.3 2.45"/><path fill="#ce7486" d="M133.2 106.7q2.2-.1 5.8 1.15 4.2 1.45 5.8 3.4l-8.7.35q-4 .65-6.15 2.65.05-2.4.95-4.6.95-2.2 2.3-2.95"/><path fill="#008c46" d="M137.35 39q3 2.9 8.6 1 5.65-1.9 4.55-6 2.05 0 4.6-3.95t2.55-6.85q.4 1.85-.2 4.9-.5 2.7-1.4 4.25 6.15 4.15 3.3 11.05-2.75 6.65-9.5 7.1l-.7 2.55q-2.45-1.2-10.3-3.3-8.65-2.25-11.8-2.1-2.25.05-4.15-1.6-1.85-1.6-2-3.55-.15-1.65-9.5.7t-8.65 4.8q1.15 3.7-2 5.55l-6.05 4q-4.35 3.15-6.45 5.05-2.45.55-5.85-.5-3.65-1.15-4.95-3.3-10.5 3.3-18.35-3.65-3.4-3.05-4.5-6.95-1.15-4.1.65-7.8.05 6.45 9.05 9.55 3.8 1.25 7.45 1.1 3.8-.1 5.95-1.8.95 2.45 4.7 2.2 3.45-.2 7.6-2.5 4.25-2.35 6.8-5.65 2.85-3.75 2.35-7.4 2.8 3.7 10.6 3.05 7.95-.7 11.05-5.25.5 4.55 6.7 6.45 6.15 1.85 9.85-1.15m45.4 69.65q4.1-1.15 9.35-5.5 5.45-4.6 7.35-8.8-2.5 11.6-13.45 18.85-11.05 7.2-21.45 4 3.85-3.85 5.25-6.15l6.6-.2q2.8-.6 6.35-2.2M33.1 158.7q5.15-4.45 6.2-9.55.05 6.7-4.65 12.3-4.65 5.6-10.4 5.8-.5 1.2-2.5 2.05t-3.3.45l-1.1-2.2q-7.8-.9-12.85-8.75-5.1-8-3.3-17.15 1.65 12.8 9.55 18.95 3.35 2.6 6.9 2.95t6.2-1.65q3.9 1.45 9.25-3.2m10.25 32.2q-13.6-5-19.75-13.1Q36 188 50.7 190.45q14.6 2.45 25.1-3.85-.2 1.85 0 4-15.2 6.6-32.45.3"/><path fill="#d9b64f" d="M90.4 142.85q2.65.05 5.3-.85 3-1 3.35-2.55.5 1.45-.2 3.4-.8 2.2-2.6 3-3.15-2.4-5.85-3M69.6 157.9q1.7 5.6 6.2 8.65 4.15 2.8 9.4 2.7 5.2-.15 9.4-3.1 4.5-3.2 6.2-8.7-.1 7.25-4.15 12.4-4.3 5.5-11.1 5.55-7.35.1-11.7-4.3-4.6-4.7-4.25-13.2m107.8 11.45q11.35-2.05 15.15-9.4-.4 5.6-4.65 9.2-4.1 3.45-10.45 4.05-8.35.8-13.7-.05-6.75-1.1-11.8-5.1-6.5-5.1-14.3-16.05-6.7-9.35-9.1-14.95l-.55 5.05q-3.75 2.75-13.35 2-9.65-.85-11.15-4.2l1.95-4.5-1.75.6q-.7-1.35-3.2-2.7-2.45-1.3-4.55-1.55l10.1-3.85q-2.25-1.05-5.2-3.95-2.9-2.8-3.65-4.55 15.9 8.7 33.8 8.15 18-.55 32.85-10.25-5.6 5.6-15 9.25-9.05 3.45-18.1 3.85 2 3.95 8.6 10.85.65 6.1 4.05 12.55 4.2 8.15 10.6 11.6 11.3 6.1 23.4 3.95"/><path fill="#008c46" d="M97.55 119.6q1.25 2.95 3.75 5.15 1.55 1.35 4.75 3.15-14.75-4.2-23-14.05-8.15-9.7-8.3-22.9 2.35 10.95 8.55 18.65 6.1 7.5 14.25 10m-19.1 59.95q-1.4 2.45-.15 4.4 1.15 1.75 4.05 2.5 6.85 1.7 12.35-2.7 1.6-1.25 3.15-1.55 1.25-.25 3.4.05 4.35.6 11.25.2 6.95-.4 10.05-1.4 2.6-.8 4.6-.5 2.2.3 2.85 1.9 1.75 4.5 6.9 7.4 5.6 3.15 9.45.5-1.9 4.05-2.95 5.4-2.1 2.75-6.15 4.45-1.5.05-1.9 1.3-.4 1.2.55 2.5 2.5 3.5 9.45 2-1.8 3.95-9.25 2.9-2.4-.35-5.15-1.35-3.15-1.15-4.3-2.4-1.4-1.5-1.6-3.3-.2-2.3 2-3.75 1.35-.9 2.55-3.65 1.3-2.95.6-4.25-.45-.9-3.1-2.75l-3.95-2.7-9.8 1.15q-7.05.6-10 .2-1.55-.15-2.75.6-8.5 5.3-8.75 6.4l-.8 5.4-.6 5.3q2.35 2.95 1.8 5.55-.6 2.85-4.5 4.8-3.75 1.9-8.3.1-4.8-1.95-4.35-6.3 1.85 2.5 6.5 2.8 4.6.25 5.3-1.95.6-1.9-1.25-3.4-1.95-1.6-4.9-1.2-3.2-3.15-4.6-10.8-1.65-8.9 2.3-13.85"/><path fill="#0d131a" d="M176.65 88.2q1.05 19.95-14.75 32.3-14.9 11.65-35.8 10.5-1.1-.05-1.05-.5 0-.5 1.1-.5 22-.3 35.6-11.85 13.8-11.7 12.85-29.9-.85-16.15-13.65-26.9t-33.7-12.85q-3.65-.35-5.4-2.4-1.15-1.4-1.4-3.3-.05-.9.4-.95t.65.8q.75 3.7 6 4.25 21.75 2.2 35 13.35 13.3 11.15 14.15 27.95m-73.4-40.25q1.1 2 .25 3.75-.75 1.5-2.7 2.65-11.9 6.9-18.35 16.85-6.35 9.85-6.1 20.65.3 14.25 9.05 23.65 8.65 9.25 24.75 13 1.1.25.95.7-.2.45-1.15.3-16.4-2.65-25.95-12.9-9.3-10-9.65-24.75-.25-11.2 6.05-20.9 6.55-10.05 19.65-17.75 1.65-1 2.2-2.1.6-1.15.1-2.7-.25-.7.15-.9t.75.45"/><path fill="#0d131a" d="m88 63.35-5.5-.2q-3.7-1-5.6-3.55-4.85 1.1-9.85.2-5.1-.9-8.55-3.55-7.3-5.65-4.9-14.35 1.05-3.8 3.85-6.25 3-2.6 7.05-2.75 1.1-.05 1.1.4t-1.1.6q-6.95 1.1-8.8 8.3-1.9 7.35 4.05 12.35 3.25 2.75 8 3.75 4.8.95 9.35-.15.35-.05.55.2 1.45 2.3 5.55 3.15 3.85.85 6.7-.15z"/><path fill="#0d131a" d="M61.8 33.95q-2.7-8.9 3.25-15.05t15.8-4.3q1.15.25 1.1.65-.1.45-1.3.35-9-.85-14.1 4.4-5.15 5.25-3.05 13.45z"/><path fill="#0d131a" d="M133 13.15q-2.8-9-13.1-10.95l-8.4.3q-4.2 1.2-6.45 4.2l-.75.1q-5.9-4.4-14.55-2.15Q80.7 7 78.8 14.85l-1.85-.05q1.95-9 11.85-11.85Q98.25.2 104.5 5.2q2.55-3.3 7.2-4.6 4.4-1.2 9.15-.15Q132 2.9 134 12.95q.25.95-.25 1.05-.45.1-.75-.85"/><path fill="#0d131a" d="M155.55 15.85q3.1 4.05 3.15 9 0 5.3-3.6 9.5-.45.55-.85.35-.35-.25 0-.9 2.65-4.7 2.5-9.05-.15-4.2-2.9-7.6-3.55-4.35-9.05-5.5-5.5-1.1-11.15 1.4l-.5-1.4q5.95-3 12.35-1.8 6.35 1.2 10.05 6"/><path fill="#0d131a" d="M156.3 31.6q3.15 2.1 4.15 5.6.9 3.25-.3 6.55-1.25 3.4-4.2 5.35-3.3 2.15-7.7 1.9-.8-.05-.75-.5t.85-.5q7.75-.55 9.95-7.05 2.15-6.3-2.95-9.9z"/><path fill="#0d131a" d="M148.05 52.7q.55-.75.8-2.15l1.65-.1q-.1 1.55-.9 2.85zm42.45 1.2q-5.75-3.45-13.2-.1-7.75 3.5-10.75 11.75L165.1 64q3.35-8.8 11.85-12.2 8.05-3.2 14.5.55 6.5 3.8 9.65 11.75 2.95 7.4 2.4 16.75-.55 9.2-4.35 17.5-4 8.7-10.55 14-6.15 4.95-14.4 6.35-7.75 1.25-10.35-1.35l.75-1.05q2.65 2.05 9.75.65 7.65-1.55 13.15-6.1 5.8-4.8 9.5-13 3.5-7.85 4.2-16.6.65-9-1.9-16.05-2.8-7.7-8.8-11.3"/><path fill="#0d131a" d="M187.9 64.85q-4.15-2.4-9.15.85-4.95 3.3-6.2 9.1l-1-1.45q1.5-6.05 6.9-9.25 5.45-3.2 10.2-.55 3.95 2.2 5.7 7.15 1.65 4.6.95 10.4-1.55 13-11.2 19.65 3.2.35 3.35 3.3.15 3.2-4.9 5.65-3 1.45-6.8 1.9-3.3.45-6.4.05l.8-1.1 5.95-.25q3.35-.65 5.8-1.85 3.9-1.85 3.75-4.3t-3.8-2.4l-.9-.25q-.1-.3.55-.65 4.3-2.35 7.5-7.45 3.05-4.85 4.2-10.6 1.15-5.9-.1-10.55-1.3-5.15-5.2-7.4"/><path fill="#0d131a" d="M171.95 87.3q2.85 6.1 2.05 14.3l-1.7 3.35q1.5-8.75-1.35-15.65-2.55-6.1-6.95-8-4.15-1.8-8.6-.5-4.75 1.4-8.55 5.9l-.95.05q-5.25-5.4-14.05-6.9-8.7-1.5-17.8 1.3-8.5 2.6-13.75 8.65-4.85 5.65-5.8 12.95-.9 7.2 2.2 13.85 3.3 7 10.2 11.45l-2.5-.4q-6.5-4.6-9.55-11.7-3-6.9-1.95-14.15 1-7.45 6.05-13.2 5.5-6.25 14.65-9.05 9.3-2.85 17.9-1.35 8.8 1.5 14.8 7.3 3.9-4.75 9.15-6.25 4.9-1.4 9.2.45 4.7 2 7.3 7.6"/><path fill="#0d131a" d="M148.25 90.65q0 .7-1.25.7-1.3 0-1.3-.6 0-.55 1.3-.65 1.25-.05 1.25.55m-1.2 10.3-.65-.1q-3.5 3.05-9.3 3.75-5.75.7-10.65-1.25-.85-.35-.6-.8.2-.5 1.05-.15 4.05 1.55 10.25.65 6.35-.95 9.15-3.65l1.05.05q1.75 2.25 5.05 3.4 3 1 6 .8 1.1-.05 1.2.4t-1 .6q-7.75 1-11.55-3.7"/><path fill="#0d131a" d="M152.55 103.45q.45 8.25-4.6 15.1-5.05 6.9-11.35 6.45-6.05-.4-7.45-6.95-1.5-7.1 5.15-14.25h1.7q-6.55 7-5.55 13.5.9 5.85 6.15 6.2 5.65.4 10.25-5.85 4.65-6.35 4.4-14.65zM68.45 158q.15-8.9 9.45-16.35Q87 134.3 105.3 128l2.35.6q-36.9 12.45-37.25 29.5-.1 7.1 3.6 11.75 4.05 5 10.85 4.7 6.45-.3 10.5-4.4 4.1-4.15 4.5-10.9.35-5.7-1.85-9.75-2.55-4.65-7.85-5.9-.95-.2-.9-.7 0-.45 1-.35 5.95.8 9 6.1 2.65 4.55 2.3 10.7-.45 8.3-5.15 12.7-4.3 3.95-11.5 4.25-7.75.35-12.35-5.2-4.25-5.15-4.1-13.1"/><path fill="#0d131a" d="M90.05 138.8q1.75-.75 2.7-1.5 2.1-1.65 4.45-.85 2.55.85 2.95 4 .25 1.6-.65 3.25-.85 1.6-2.55 2.75l-1-1.2q2.8-2.1 2.5-4.7-.25-2.05-1.8-2.6-1.5-.55-3.1.65-1.45 1-3.4 1.7l-3.1.45q-.8-.15-.75-.55 0-.4.8-.5 1.15-.1 2.95-.9"/><path fill="#0d131a" d="M98.25 138.25q4.55-2.7 10.35-5.15l1.15.05q.2.4-.65.85-1.5.75-4.95 2.8l-5.1 3.05z"/><path fill="#0d131a" d="M106.55 134.9q-3.15 6.6-6.35 17.45L99 150.3q2.35-7.5 5.7-14.5zM80.7 175.1l1.95.25q-2.85 2.8-4.5 6.5-1.7 3.85-1.65 7.4.05 3.25 1.1 6.9 1.2 4.15 3.25 7.15.55.85.15 1.1-.4.3-1-.45-2.5-3-3.95-7.85-1.2-3.85-1.25-6.85-.05-3.75 1.5-7.5 1.6-3.75 4.4-6.65"/><path fill="#0d131a" d="M92.65 193.55q-.35.55-1 4.6-.6 3.6-.85 5.8 2.15 1.65 2.2 4.35.05 2.65-1.95 4.7-2.45 2.55-7.05 2.7-4.6.1-7.35-2.15-2.9-2.45-2.2-6 .75-3.65 5-5.3l.6 1.05q-3.3 1.45-4.15 4.25-.8 2.85 1.65 4.9t6.55 1.75q4-.25 5.9-2.25 1.7-1.7 1.65-3.75-.1-2-1.85-3.45-.25-.15-.25-.6l.6-6.2q.4-4.5.85-5.35.3-.5 3.95-3.05l4.85-3.4q1.2-.85 2.65-.8 15.5.7 23.05-2.1.8-.25 1 0 .25.25-.5.65-3.65 2-10.95 2.75l-12.75.35q-.7-.05-1.8.75l-4.35 3q-3.15 2.25-3.5 2.8"/><path fill="#0d131a" d="m125.25 187.4-3.85-2.15 2.45-.7q5.65 3.65 5.9 3.85.95.8 1.25 1.65.25.75.05 2-.2 1.75-1.3 3.65-1.05 1.85-2.35 2.9-1.85 1.45-1.8 3.3.1 1.65 1.6 2.85 2.65 2.1 6.9 3.1l6.45.55q4.25-.5 4-3.65-.3-3.2-5.5-5.1l1.1-1q6.15 2.4 6.1 6.6-.1 4.1-5.45 4.7l-6.7-.6q-4.65-1.1-7.7-3.5-2-1.6-2.1-3.8-.15-2.5 2.4-4.45 1.15-.9 1.95-2.45.75-1.55 1-3.25.2-1.55-.95-2.5-.35-.35-3.45-2"/><path fill="#0d131a" d="M145.95 193.4q-2.6 4.95-8 7.15l-1.1-.05q-.25-.4.65-.9 5.1-2.7 7.25-7.65 1.8-4.15.9-7.85-1.2-5.2-6.8-9.35-4.9-3.65-11.15-5.3-1.05-.25-.95-.7t1.15-.3q6.05.8 11.95 5.25 6.3 4.7 7.5 10.15 1.1 4.85-1.4 9.55m-65.8 18.2q.1 2.25.9 2.4l-2 .05q-.3-1.6-.2-3.35.1-1.8.6-2.95.4-.8.8-.7.45.1.2.95-.35 1.8-.3 3.6m5.3 3.1q-.65-1.25-.65-3.25.05-1.9.6-3.05.35-.75.75-.6.4.1.25.9-.4 1.7-.3 3.3.15 1.85.9 1.65zm52-6q.95-.15 1.1-1.7.15-1.65-.75-2.95-.45-.7-.2-.85.2-.2.8.35 1.25 1.1 1.4 2.95.1 1.75-.9 2.65zm5.15-.9q.85-1.9-.65-4.35-.45-.7-.2-.9.2-.15.8.4.75.65 1.25 1.75.55 1.2.55 2.5z"/><path fill="#0d131a" d="M129.45 134.55q-1.1 7.9-1.35 17.5-.25 11.6 1.2 16.85l-1.65-.05q-1.55-6.2-1.1-17.2.35-9.8 1.9-17.3.2-1.05.65-.95.5.05.35 1.15"/><path fill="#0d131a" d="M115.7 167.35q8.8-.2 11.4-6.45l.2 1.9q-2.85 5.8-11.5 6.1-9.2.35-15.4-6.8l.35-1.35q5.95 6.75 14.95 6.6m71.5-21.15q6.1 2.95 6.7 9.9.85 9.2-5.45 13.9T169 174.7q-11.95 0-22.2-10-8.5-8.3-18.45-26.5l.4-2.45q10.1 18.5 18.4 26.85 10.2 10.3 21.9 10.3 13.35 0 18.85-5 4.55-4.05 4-11.75-.45-5.6-5.45-8.25-6.05-3.15-16.15.3l-7.45 1.95-8.3 1.25-3.6-.25q-1.85-.45-3.5-1.7-5.5-4.2-10.4-9.3-5.35-5.6-7.4-9.6l1.6-.1q2 3.75 7.3 9.05 4.5 4.5 9.85 8.6 2.4 1.85 6.15 1.75l8.05-1.35 7.25-2q10.6-3.6 17.35-.3M118.3 20.95q.55 2.9-.2 5.1-.7 2.1-2.15 2.3-1.45.25-2.85-1.5t-2-4.6q-.5-2.5.3-4.75.8-2.15 2.05-2.4 1.55-.3 3 1.5 1.4 1.75 1.85 4.35m-5.85-3.1q-.5 1.7-.05 4.2.35 2.15 1.45 3.75 1.05 1.45 1.9 1.35.95-.15 1.3-2.1.35-1.9-.1-3.95-.5-2.45-1.45-3.8-.85-1.2-1.7-1.1-.9.1-1.35 1.65M96.65 28.9q-1-1.6-.3-2.75.45-.85 2.35-1.05 2.1-.2 4.3.8 2.05.9 3.1 2.6 1.1 1.65.55 2.85-.5 1.1-2.4 1.25-2.05.2-4.25-.9-2.35-1.15-3.35-2.8m3.95 1.65q1.6.9 3.2.95 1.5.05 1.85-.7.3-.7-.75-1.95-1-1.25-2.4-1.9-1.6-.75-3.25-.8-1.6-.05-1.95.55t.6 1.75q1 1.2 2.7 2.1m32.85-6.65q.6.95-.05 2.5-.75 1.65-2.7 2.9-2.25 1.4-4.15 1.5-1.65.05-2.25-.85-.75-1.2.05-2.75.85-1.65 2.95-2.85 1.85-1.1 3.7-1.25t2.45.8m-2.5.15q-1.35.15-3.05 1.2-1.85 1.1-2.55 2.3-.65 1.1-.2 1.8.4.55 1.9.25t3-1.25q1.4-.9 2.15-2.1.8-1.2.3-1.85-.35-.5-1.55-.35M24.35 166.5q8.2 13.55 24.75 17 15.45 3.25 29.05-3.75l-.6 1.8q-12.65 6.7-28.3 3.85-18.05-3.25-25.8-18.4-.55-1.05-.15-1.3.4-.2 1.05.8"/><path fill="#0d131a" d="M31.45 132.35q-1.2-.1-3.05.95-2.25 1.2-4.1 3.65-1.75 2.35-2.7 5.1l-1.25-1.65q1-2.45 3.05-4.75 1.95-2.2 4.35-3.6 2.45-1.35 4.2-1.1 1.55.25 3.15 2 3.2 3.35 4.45 8.85 1.3 5.45.2 10.95-2.6 13.3-14.95 15.45l-.9-1.5q11.5-1.75 14.05-14.35 1.05-5.2-.1-10.35-1.1-5.2-3.95-8.25-1.25-1.3-2.45-1.4"/><path fill="#0d131a" d="M2.9 135.85q-3.25 12.05 2 21.65 4.95 9.1 13.5 9.55 1.15.1 1.15.55 0 .5-1.2.5-9.85-.1-15.15-9.9-5.45-10.05-1.8-22.75.9-3.15 2.45-4l5.25-.15q9.7 2.15 14.65 13.1 5.1 11.35-.95 20.3-.55.8-.95.55t.05-1.1q5-9.2.1-19.5-4.65-9.7-13.25-11.85l-4-.15q-1.15.55-1.85 3.2"/><path fill="#0d131a" d="M18 167.55q3.5 7.75 9.9 13.5 6.35 5.75 14.8 8.95 8.25 3.15 17.15 3.05 8.7-.15 15.85-3.35l.25 1.85q-7.65 3.4-16.45 3.35-8.7-.05-17.4-3.4-18.3-6.95-25.65-24.05z"/><path fill="#fcd25b" d="M171.25 144.45q2.6 1.35 2.35 4.3-.3 3-3.35 5.1-2.1 1.4-6.25.1-4.1-1.3-2.85-2.6l2.3-2.4q1.5-1.7 1.8-2.7.55-1.75 2.2-2.3 1.75-.55 3.8.5"/><path fill="#d9b64f" d="M173.35 149.25q-.35 2.75-3.1 4.75-1.05.8-1.5-.35-.45-1.2.3-1.65 1.75-1.1 2.55-3.35.9-2.4 0-4.15 2.15 2.05 1.75 4.75"/><path fill="#0d131a" d="M174.3 148.25q0 1.7-1 3.25-1.05 1.6-2.85 2.65l-1.1.1q-.25-.4.55-1 2.85-2.15 2.75-4.95 0-2.1-1.95-3.25-1.15-.7-2.7-.35-1.55.4-2.05 1.6-1.3 3-4.3 5.2l-.95.15q-.3-.35.25-.9 2.45-2.35 3.65-5.2.8-1.9 3.05-2.4 2.2-.5 3.95.5 2.6 1.55 2.7 4.6"/><path fill="#009f50" d="M46 55.45q10.7-4.25 22.55 2.35 12.85 7.15 19.2 23.65 2.1 5.5 3.6 18.75 1.65 14.35-.55 16.6-7.75 8.1-20.9 4.6-13.85-3.65-24.85-18.3-10.1-13.55-10.6-27.6Q33.9 60.25 46 55.45"/><path fill="#39b382" d="M84.35 85.65q.65 1.5.25 3.55-.8 3.95-.3 11 .45 6.65 1.5 9.6.35.9 0 1.6l-1 1q-1.7 1.2-4.7 1.95-3.65.95-7.85.7-5.65-.35-6.95-4.55-1.25-4.2 3.9-5.75-8-3.45-13.2-9.2-4.7-5.25-6.1-11.3-1.35-5.85.7-10.45 2.15-4.8 7.25-6.65 6.45-2.35 13.7 2.35 7.85 5.05 12.8 16.15"/><path fill="#fff" d="M111.45 61.35q4.65-1.25 8.75 1.95 4.2 3.3 6.45 10.3 1.95 6.05.9 11.4-1.1 5.7-5.15 7.3-4.25 1.75-9.1-1.7t-7.15-9.9q-2.15-6.1-.7-12 1.55-6.15 6-7.35m56.85 12.6q2 4.1 2.15 10.05.15 6.25-2.2 7.45-3.55 1.9-7.25-.35-3.8-2.25-6.85-8.1-2.7-5.1-2.65-11.55 0-6.35 2.65-7.5 3.2-1.35 7.35 1.55 4.15 2.95 6.8 8.45"/><path fill="#0d131a" d="M117.4 86.15q-2.5-2.35-3.75-7.45-1-4.2 0-7.5.95-3.3 3.4-3.7 2.45-.35 4.7 2.05 2.35 2.5 3.35 6.85 1 4.3.05 7.55-.95 3.05-3.1 3.6-2.45.65-4.65-1.4m46.4-10.2q1.6 3.8 1.05 7.3-.5 3.15-2.15 3.75-1.7.65-3.9-1-2.4-1.8-4-5.45-1.5-3.5-1.25-7.15.25-3.9 2.45-4.3 1.9-.35 4.15 1.55 2.25 1.95 3.65 5.3m-15.95 40.6q-5.1-9-15-9.15-.3 0-.3-.55-.05-.6.25-.6 6.2.1 10.05 2.4 3.75 2.25 6.15 7.15.15.25-.45.6z"/><path fill="#008c46" d="M42.95 100.75Q36.4 91.3 35.25 82q10.5 21.55 23.15 30.1 13.95 9.45 32.7 4.85-4.5 4.95-12.95 5.3-7.55.3-13.75-2.9-13.45-6.9-21.45-18.6"/><path fill="#0d131a" d="M86.85 80.7q-7-16.5-21.6-23.2-14.6-6.75-24.15 2.35Q36 64.7 35.45 72.9q-.5 7.6 2.95 16.4 3.35 8.6 9.4 15.95 6.3 7.65 13.7 11.7 9.05 5 17.15 4.55 7-.35 11.55-4.5.75-.65 1.05-.35.35.3-.35 1.05-4.95 5.5-13.85 5.5-8.15 0-16.6-4.55-8.1-4.35-14.7-12.5-6.25-7.75-9.6-16.85Q32.8 80 33.5 72q.75-8.6 6.15-13.7 4.9-4.7 12-5.35 6.75-.65 13.95 2.5Q81.55 62.5 87.8 80.3q.35 1.1-.05 1.25-.45.15-.9-.85m17.85-1.85q-1.55-7.35.55-12.4 2-4.95 6.75-6 4.7-1.05 9.2 2.9 4.35 3.9 6.35 10.6 2 6.9.5 12.45-1.5 5.6-5.75 6.95-5.15 1.6-10.3-2.3-5.55-4.15-7.3-12.2m7.55-16.95q-3.55.8-5.3 5.1-2 4.85-.5 11.55 1.45 6.65 6 10.65 4.65 4.1 9.25 2.55 3.65-1.15 4.8-6 1.05-4.35-.3-9.85-1.95-7.85-6.35-11.65-3.8-3.2-7.6-2.35m54.65 30.55q-3.85 1.35-7.85-1.7-4.6-3.55-7.2-11.6-1.85-5.7-1.1-10.15.8-4.6 4-5.95 3.15-1.3 7.3 1.4 4.75 3.1 7.45 9.7 2.85 7.15 1.75 12.5-1 4.65-4.35 5.8m1-17.75q-2.5-6.3-6.75-9.1-3.45-2.25-5.75-1.3-2.45 1-3 5.15t1.05 9.25q2 6.3 5.5 9.95 3.75 3.9 7.4 2.65 2.65-.9 3.35-5.05.85-4.8-1.8-11.55"/><path fill="#0d131a" d="M85.6 88.65q-1.05 4.1-.7 10.65.3 6.6 1.85 11.25.4 1.25-1 2.2-3.8 2.6-8.95 3.2-4.9.55-8.15-.85-4.65-2-4.45-6.05.15-3.4 3.45-4.35-10.55-3.8-16.2-14.1-2.95-5.4-3.05-10.65-.15-5.5 2.95-9.4 6.15-7.9 16.65-3.8 10.95 4.3 17.2 18.65.75 1.8.4 3.25m-1.85-2.55q-6-13.9-16.35-17.7-4.4-1.6-8.35-.75-3.9.9-6.2 3.95-5.45 7.3.05 17.85 5.7 11.05 18.9 15.4.8.25.7.75-.15.45-1 .25l-1.95-.5q-3 .8-3.45 3.45-.55 3.15 3.35 4.8 2.95 1.3 7.65.7 4.6-.6 7.55-2.6.75-.55.6-1-3.75-11.65-1.15-22.05.25-1.1-.35-2.55"/></svg>