<svg xmlns="http://www.w3.org/2000/svg" width="296" height="325" viewBox="-0.7 0.25 296.4 325.45"><path fill="#c9384d" d="M206.8 173.2q5.8-6.55 11.95-10.85 6.1-4.25 13.6-6.6 8.5-2.6 16.3-1.95-2.75-8.8-1.1-15.95 1.05-4.3 4.15-8.85 5.05-7.3 16.7-12.2 3.95-1.65 7.6-2.6 3.2-.8 3.3-.5-2 1.55-4.4 4.15-4.85 5.25-6.2 12.25-1.7 8.95.5 15.05 2.05 5.65 8.75 11.9 13.5 12.65 15.1 24.7.8 6.3-1 12.1-1.95 6.15-6.55 10.7-3.6 3.65-8.6 4.95 2.25 10.3 2.15 17.65-.2 12.4-6.3 21.9-4.5 6.95-10.6 11.4-5.35 3.85-11.4 5.5-2.25 12.85-11.8 21.8-3.1 2.9-6.85 5.25l-4.05 2.35q-1.75 1.1-6.95 2.85-7.25 2.55-14.85 3.7-23 3.6-39.1-6.25-16.55-10.1-23.5-25.25-4.4-9.5-4.4-19.15l39.5-21.95q4.45-1.95 13.4-3.05l13.35-1q-10.55-10.15-10.9-23.6-.25-9.4 3.95-17.05 3.1-5.55 8.25-11.4"/><path fill="#af2f42" d="M142.45 268.45q-2.15-5.8-2.85-11.65l-.25-4.75 8-6q.25 3.5 3.45 9.15 3.55 6.45 9.05 12.2 14.6 15.25 33.5 16.35 17.9 1.05 32.9-7.75 7.5-4.35 11.4-8.95 2.95.65 8.45-.1l4.9-.9q-6.7 16.7-13.65 23-3.2 2.85-9.35 6.1-7.8 4.05-16.3 6.3-23.75 6.2-43.35-4.4-18.95-10.2-25.9-28.6m61.95-43-3.05-4.4q-3.45-5.35-5.2-10.25-1.7-4.95-1.4-9.1l.7-3.2q-.25 4.1 2.9 11.75 4.2 10.2 11.55 15.2z"/><path fill="#af2f42" d="m278.85 232.8-1.65 7.45q-2.85 8.85-9.15 15.8-3.55 5.05-13.9 9.1-12.35 4.85-20.4.45-7.55-4.1-8.95-10.15-.4-1.9-.2-3.75l.35-1.5q-.25 3.1 4.15 7.15 5.55 5.1 14 4.4 10.7-.9 18.35-5.8 11.05-7.15 17.4-23.15m-28.45-91.9q1.85 10.7 11.2 16l-5.4-1.6q-5.75-1.55-7.6-1.35-2.6-10.8-.65-17.85.6-2.2 1.6-3.75l.9-1.15-.35 2.85q-.25 3.5.3 6.85"/><path fill="#0f141b" d="M209.25 224.65q1.55.15 1.5.75-.1.6-1.65.6l-14.2.8q-10.9 1.1-15.8 3.25-.35.15-.65-.6-.35-.8-.05-.95 6.7-3.1 17.35-3.85 7.15-.55 13.5 0m61.7-102.15q2.9-5.2 6.4-7.85-5.95 1.4-12.25 4.6-8.75 4.45-12.7 10.2-2.55 3.8-3.5 7.45-1.85 7.2.6 16.65-1.5.95-1.65.55-5.25-14.6 2.35-25.7 4.3-6.25 12.95-10.6 6.55-3.3 13.75-4.75 2.95-.55 3 .3 0 .55-1.6 2.45-3.5 4.1-5.35 7.55-3.55 6.7-3.55 14.2 0 5.25 2.5 9.75 2.3 4.1 7.65 9.1 7 6.55 10.75 12.75 3.7 6.15 4.55 12.5.85 6.65-1.15 12.8-2.05 6.15-6.6 10.75-2.65 2.65-6.7 4.05-3.7 1.3-7.7 1.3-2 0-2.05-.45-.05-.5 2.1-.95l6-1.6q3.95-1.4 6.15-3.6 4.05-4.05 6.1-10.55 2-6.25 1.2-11.5-.85-6.1-4.45-11.95-3.6-5.95-10.35-12.25-5.55-5.15-7.95-9.7-2.55-4.8-2.5-10.45 0-7.95 4-15.05"/><path fill="#0f141b" d="M276.1 209.65q-.05-.35.75-.5.8-.2.9.15 2.65 8.9 2.65 17.4 0 13.2-6.4 23.15-6.5 10.15-16.7 15-8.45 4-16.4 3.35-6.7-.55-11.35-3.75-4.6-3.25-5.75-8.15-1.3-5.5 1.05-10.2 2.35-4.75 7.1-6.3l7.15-.25q4.3 1.05 6.5 4.4 2.25 3.5 1.85 7.15-.3 3.2-2.35 5.1-1.6 1.55-4.2 1.4-1.95-.1-3.3-.95-1.1-.65-.9-1.05l1.5.05 2.35.35q1.9-.1 3.05-1.2 1.65-1.5 1.8-4.05.25-2.9-1.65-5.8-2.2-3.35-6.55-3.6-2.35-.15-4.55.55-4.15 1.35-6 5.15t-.75 8.65q1 4.4 5.05 7.15t10.15 3.25q7.45.65 15.3-3.2 9.35-4.6 15.6-14.35 6.15-9.5 6.25-22 .05-6.9-2.15-16.9"/><path fill="#0f141b" d="M156.8 287.35Q173.15 302 196.3 302q20.6 0 35.2-10.15 14.05-9.75 18.7-25.9l2.1-.45q-4.45 17.55-19.1 28.2-15.25 11.1-36.9 11.1-23.9 0-40.8-15.45-16.9-15.5-16.9-37.4h1.85q0 20.75 16.35 35.4m61.6-123.6q-15.5 10.3-20.45 26.55-4.95 16.3 3.5 29.05 2.1 3.2 5.05 5.9l-2.8.25q-2.2-2.2-4.2-5.15-9.05-13.7-4.05-30.95t21.1-27.95q15.25-10.1 32.2-8.75t26.7 13.45q1.55 1.95 1.05 2.5-.5.6-2-1.25-9.05-11.2-25.2-12.25-16.2-1.1-30.9 8.6"/><path fill="none" stroke="#0f141b" stroke-width="1.1" d="M130.5 123.65q-2.5.35-4.1 0-1.75-.35-1.95-1.55-.3-2.35 5.4-3.25 2.5-.3 4.1.05 1.75.4 1.95 1.55.3 2.45-5.4 3.2"/><path fill="#c9384d" d="m171.6 162.7 2.95 12.2q2.4 5.05 3.1 6.1 1.95 3 6.15 6.55 7.95 6.7 12.4 14.6 7.45 13.05 5.35 28.35 4.85 4.15 9.2 9.15 5.55 6.4 7.45 11.2 5.2 13.55-2.3 25.8-2.7 4.45-7.8 8.9-3.25 2.8-2.4 4.65l-1.3.1q-6.85.65-12.25 2.2-7.7 2.2-10.8 5.75t-3.4 8.5q-.2 3.15.85 7.6-5.65-3.4-9.8-8.8-4.65-6.1-5.3-11.5-.45-4.1 1.4-8.45 1.6-3.65 6.1-5.55 1.5-.65 6.9-1.95 3.3-.75 5.15-2 2.55-1.85 3.75-5.45t-1.6-7.8q-2.1-3.15-5.85-5.85-2.95-2.05-6.1-2.45-3.25-.45-13.05.05-17 .85-29.65.35-2.3 2.9-4.55 6.6-2.6 4.4-2.95 6.5-.5 2.95.35 7.2 1.05 5.2 3.55 7.9 2.3 2.5 4.8 4.4l4.3 3.2q7.7 6.2 6.65 13.5-.75 5.05-4.05 9-3.4 4.05-9.9 7.55l-2.5 1.15q3.2-2.5 3.4-6.1.2-3.1-1.75-6.25-1.8-3.05-5.5-5.9-4.05-3.2-9.25-5.15-3.05-1.15-7.75-1.8l-9.95-.6q3.5-1.65 2.65-4.35-.45-1.55-4.25-6.4-4.9-6.25-2.95-15.9.65-3.1 3.3-10.75 2.05-5.85 4.05-11.05-2.9-2.8-4.9-8.15-2.4-6.35-1.8-12.7.8-8.1 3.9-14.45 3.65-7.45 11.2-14.45 7.3-6.75 9-10.95 1-2.5.75-8.85l.85-32.15 19.65-5.8 9 1z"/><path fill="#fdd35c" d="M246.05 240.4q-1.05-2.05-3.3-5.25-2.35-3.4-4.05-5.1l2.05-5.35 9.5.75 2.95 4.55q2.65 4.6 2.8 8.3.2 4-1.65 6.2-1.25 1.5-3 1.7-1.7.2-2.55-.9-.8-.95-2.75-4.9m12.2-44.1q5.05-1.9 7.75-3.15 2.75-1.25 5.1-1.05 2.6.25 3.65 2.2.9 1.75.6 3.7l-.8 2.75q1.75-.35 3.25 1.6t1.55 4.35q.05 1.3-1.4 3.15-1.35 1.75-2.35 2.1 1.05.1 2.1 2.1 1 2.05.7 3.45-.45 2.1-1.65 3.25-1.3 1.3-4.2 2.2 1.3.3 2.1 2.55.95 2.45-.3 4.05-1.35 1.85-2.8 2.45l-4.5.25q-3.2-.5-7.75-2.75-4.95-2.45-8-5.35l-2.8-10.8 1.85-14.55q2.15-.35 7.9-2.5m-239.65.8q10.65 7.3 15.95 8.25L51.7 218.9l2.6 15.05q-1.7 1.35-4.55 5-2.45 3.15-4.2 5.9l-2.1 2.8-2.05 2.6q-.9 1.35-3.85.85-2.55-.4-3.4-1.15-1.2-1.05-1.45-2.55-.3-1.85.8-4.9 1.05-2.85 3.25-6.3l2.65-3.65-7.9 3.7q-6.85 3.2-10.8 3.45-3.65.2-5.75-.85-1.8-.9-2.65-2.85-.6-1.4.35-3.45 1.1-2.35 3.65-2.9-6.15-1-8.3-4.45-1.5-2.4-.9-5.45.45-2.35 2.75-2.35-2.95-2.35-3.25-5.9-.3-2.8.75-4.3.8-1.2 2.45-1.45l2.55.3 1.65.65q-1.9-4.15-1.2-6.9.6-2.4 2.35-3.15 1.7-.7 3.45.45m153-34.4 2.95 12.2q2.4 5.05 3.1 6.1 1.95 3 6.15 6.55 14.2 12.1 17.35 27.7-2.25-3.25-5.25-6.25-2.85-2.8-3.05-2.2-3.85 12.8-11.1 19.5-1.95-3.25-4.5-6.75-5.1-7-9.35-8.9-.15-.1-5.55 8.8-5.35 8.85-5.85 8.6-4.7-2.65-10.55-9.8l-5.25-6.35q-3.3.95-10.25 8.45l-6.7 7.25q-.4 0-3.05-7.05-2.7-7-2.95-6.9-2.6 1-8.75 7l-5.95 5.65q-.55-.1-2.3-7.4-1.85-7.6-2.15-11.6 3.25-4.7 8.25-9.35 7.3-6.75 9-10.95 1-2.5.75-8.85l.85-32.15 19.65-5.8 9 1z"/><path fill="#c9384d" d="M201.8 169.25q3.1 5.05 6.2 8.6 6.05 6.8 14.55 11.65 9.2 5.25 22.95 8.5l4.85 1.1q2.2.65 3.3 2.3 1.35 2.1 1.85 6.3.6 4.55-.25 8.7-.8 3.9-3.75 7.45-3.25 4-7.45 5.25-3.95 1.25-8.65-.4-3.2-1.05-7.6-3.9-5.1-3.3-12.5-9.6-8.9-7.65-13.75-13.65-5.25-6.55-10.2-14.65-4.6-7.55-5.7-10.95l.7-10zm-97.1 10.15q-2.45 6.75-6.85 14.6-4.75 8.35-10.6 15.95-14.45 18.6-28.5 22.95-13.45 4.25-22.05-2.85-4.25-3.55-5.7-10.15-1.3-5.7.05-9.4 1.1-2.9 3-4.6 1.6-1.4 3.2-1.6l7.2-.4 9.6-.9q7.25-1.65 14.95-6.85 8.05-5.4 12.9-11.2 3.4-4.1 5.85-9.4l11.85-5.95z"/><path fill="#fdd35c" d="m205.5 290.2 11.25.9q5.1.9 8.25 2.1 3.05 1.2 5.1 3.7 2.2 2.65 2.5 6.05.5 4.9-1.6 8.2-3 4.6-10.55 4.15l-1.6 1.6q-3.2 2.25-7.75 2.8-4.85.55-10.3-1-2.4 1.15-6.1 1l-5.4-.85q-5.75-1.55-10.5-4.5-1.05-4.45-.85-7.6.3-4.95 3.4-8.5t10.8-5.75q5.4-1.55 12.25-2.2zM76.75 302.9q2.45-3 8.05-5.15t15.05-1.6q8.3.45 13.5 2.4t9.25 5.15q3.7 2.85 5.5 5.9 1.95 3.15 1.75 6.25-.2 3.6-3.4 6.1-5.15 2.1-10.1 1.7-5.1-.4-8.05-3.35-8.65 3.7-16.2-.15l-1.9-1.2-3.6.55q-3.7.1-6.2-1.15-6.35-3.15-5.85-9.55.3-3.5 2.2-5.9"/><path fill="#fff" d="M77.35 153.65q-.75-2.4-.1-5.2 1.25-5 5.1-6.85 2.45-1.15 5.35-.9-1.25-2.5-1.25-3.45l1.3-2.9 23.5 2.3 17.7 11.8q1.25.95 2.1 3.4 1.45 3.9.3 8.95-1.1 4.95-5.6 6.7l-4.3.75q.9 1.75-.7 5.3-2.15 4.8-8.4 6.2-5.05 1.2-8.85-1.45-2.45-1.75-4.05-4.75-5.5 2.85-11.45 1.9-5-.8-7.1-3.3-3.1-3.65-2.6-8 .3-3 2.1-5.65-2.3-2.45-3.05-4.85m134.85-5.35q-1.4 6.05-6.35 7.75 1.15 1.5.6 4.6-.55 3.2-2.55 5.8-2.25 2.95-5.95 4.2-4.2 1.45-8.65.05-.75 1.95-2.25 3.45-2.5 2.5-6.05 2.4-4.1-.15-6.75-2.15-1.3-1-3.15-3.55-1.15 1.75-3.55 2.75-3.35 1.45-7.45.35-5.1-1.4-6.55-5.65-.95-2.75-.3-5.4-2.4-.55-4.2-2-2.15-1.75-2.75-4.35-.6-2.5-.05-5.05.5-2.55 2-4.65l21.5-23.35 19.7-10.3 8.45 4.4q3.45.25 6.75 2.25 3.35 1.95 4.95 4.75 1.5 2.7 1.25 6.85-.25 3.9-1.9 6.45l2.25 2.45q2 3.4 1 7.95"/><path fill="#c9384d" d="M265.75 37.35q7.75 5 9.5 14.85 1.15 6.5-2.1 15.25-3.8 10-12.35 19.3-10.85 11.85-25.9 19.6-19.05 9.85-42.85 11.8.6-.7 1.25-3.4.45-3.85-.65-8.2-1.65-6.7-6.5-9.9-8.1-5.25-16.9-1.6l-20.8 6.25q-7.2 4.85-20.55 6.55-10.55 1.4-16.6.4l-19-.4q-3.15 0-5.75 1.35-3.45 1.8-5.05 5.7-1.55 3.7-1.5 8.35.05 3.05.7 5.6l1.25 1.5q2.8 2.9 6.6 5.6-4.2 2.65-11.65 4.05-7.9 1.55-17.8 1.35T40.6 139q-8.1-2-16.85-6.15-8.95-4.3-14.85-12-6.4-8.4-7.2-18.55-.8-9.7 3.8-16.35 3.6-5.3 10.35-8.25 3.55-1.6 9.05-2.25 5.45-.65 10.95-.15 6.45.65 14.65 3.55 3.5 1.25 9.65 3.9 8.8 3.85 14.7 7.5l1.2-1.85q-3.7-2.55-5.7-5.6-1.95-3-2.55-6.85-.55-3.85.3-7.15.9-3.25 3.6-7.2l5.7-7.15q3.2-4.1 3.85-7.8.85-4.8-2.15-8.8l-3.25-3.4q-.05-.8 4.05-1.7 4.65-1 8.5.35 5.65 2 9.55 6.5 4.45 5.15 4.35 11.35 3.05-6.9 9.1-10.15-3-1.5-5.15-4.55-3.7-5.1-2.8-12.45 1.1-9.05 9.95-16.95 3-2.65 6.1-4.5 2.7-1.6 3-1.35-1.15 2.15-2.2 4.9-2.15 5.45.1 9.65 2.25 4.25 6.1 6.05 3.55 1.7 9.5 1.7 7.2 0 11.35 2.15 5.95 3.1 9.2 11.55 3.7-2.55 8.75-2.05 5.95.5 8.3-.05 3.85-.95 5.4-4.95 1.6-4.2-1.2-8.05-3.1-3.1-2.9-3.4l2.25.1q2.4.45 4.75 1.6 6.95 3.4 8.25 10.4 1.1 6.1-.8 11.35-1.3 3.6-3.5 5.85 1.95 1.55 4.1 4.75 2.8 4.3 3.05 7.85 9.05-10.55 23.1-17.8 11.55-5.95 21.65-8.1 6.25-1.3 13.15-1.25 8.55.1 14.85 4.1"/><path fill="#fdd35c" d="M186.2 96.65q4.9 3.2 6.55 9.9 1.05 4.2.65 8.2-2.05 6.7-8.15 13.2-8.15 8.75-21.2 13.95-12.8 5.1-27.35 6.1l-18.7-.55q-8.2-1.1-16.55-4.4-12.05-4.8-19.45-12.7l-1.25-1.45q-.65-2.6-.7-5.65-.05-4.65 1.5-8.35 1.6-3.9 5.05-5.7 2.6-1.35 5.75-1.35l19 .45q6.15.95 16.6-.4 13.4-1.75 20.55-6.6l20.8-6.25q8.8-3.65 16.9 1.6"/><path fill="#fff" d="M109.5 98.45q1.65 5.1 1.8 9.8.15 5.45-1.65 9.25-1.85 3.95-5.2 4.65-3.45.7-6.3-1.55-2.85-2.3-4.45-7-2.35-6.75-1.35-15.55 1.15-.2 7.55-2.4 6.4-2.25 7.15-2.7 1.1 1.3 2.45 5.5m60.25 2q.2 4.8-1.7 8.6-2.35 4.75-7.05 5.15-4.65.45-8.05-3.7-2.7-3.25-3.85-8.2-1.65-7.05 0-16.55 9.65.55 16.1.3 4.35 7.4 4.55 14.4"/><path fill="#fabe00" d="M244.95 43.75q4.35-.35 6.1.65t-.65 2.65q-3.05 2.1-8.2 6.85-5.65 5.25-6.1 6.95 4 1.25 6.65 3.65 2.7 2.5 3.15 5.7.9 5.95-1.45 11.6-3.25 7.8-12.25 13.7-16.25 10.6-37.05 9.8.95-8.95-2.05-17.05l-3.15-6.35 5.45-8.15q7.5-9.6 17.7-17 10.55-7.65 20.25-10.8 5.4-1.75 11.6-2.2M39.6 86.85q11.1 1.65 23.75 7.2 5.6 2.5 10.15 6.2-.9 7.55.15 13.4 1.65 9.6 8.3 16.7-4.35 2.3-13.5 3.65-11.6 1.65-21.05-.45-10.25-2.3-17.3-9.05-6.65-6.35-6.8-12.8-.15-5.25 3.85-9.35 2.5-2.55 5.2-3.7.55-.25-3.2-2.85l-6.95-4.55q-2.7-1.65-2.45-3.15.3-1.55 3.55-1.9z"/><path fill="#dab750" d="M77.05 316.4q-2.75-1.95-2.6-6.65l.65-4.25q-.2 1.85 2.8 4.2 3.55 2.75 8.15 2.5l3.15 7.2-4.4-.3q-5-.7-7.75-2.7"/><path fill="#dab750" d="m105.45 314.65 2.25 5.65q-9.7 4.1-17.25-.6-3.4-2.1-4.25-6.5l-.15-4 1.35 1.65q1.75 1.9 3.85 3.2 6.7 4.15 14.2.6"/><path fill="#dab750" d="M130.45 314.55q.1 3.25-3.15 7.5-8.9 3.65-14.65.9-5.5-2.65-6.35-7.5-.3-1.5-.1-3.05l.3-1.25q-.25 1.15 3.6 3.85 4.55 3.1 9.45 2.65 5.7-.5 10.9-3.1"/><path fill="#af2f42" d="M139.3 313.4q-1.7 2.2-5 4.55-3.6 2.5-7.55 4.1 3.2-4.2 3.2-7.5 9.05-4.6 12.85-14.35l-.25 4.65q-.7 5.25-3.25 8.55"/><path fill="#dab750" d="m205.75 310.6-.4 3.6q-1.4 3.9-6.45 5.2-4.55 1.1-10.1-.45-5.15-1.5-10.4-5-.6-3.55-.45-7.1l.3.2q7.2 4.35 13.1 5.95 9.5 2.55 14.4-2.4"/><path fill="#af2f42" d="m163.85 296.15-.2-4.25q.25 2.05 4.9 6.9 4.95 5.3 9.4 8.05-.15 3.55.45 7.1-4.65-3.05-8.25-6.9-5.05-5.3-6.3-10.9"/><path fill="#dab750" d="M213.95 319.3q-5.65 1.55-12.4-.95l3.7-5.3q7.8 1.95 13.15-.6 4.1-2 4.1-4.3l.1 2.4q-.2 2.8-1.85 4.65-2.6 2.95-6.8 4.1"/><path fill="#dab750" d="m232.9 303.7.3 2.6q-.05 3.05-1.85 5.35-1.75 2.3-6 3.25l-3.95.55 1.4-4.85q4.55-.05 7.65-2.85 2.45-2.25 2.45-4.05M49.5 234.75l3.85.3-4.2 5.2q-4.55 5.75-6.45 8.8-1.25 1.95-3.95 2.2-2.45.25-4.1-.95-2.05-1.55-1.95-3.7l.5-1.85q2.9 3.4 5.15 3.1 1.5-.2 3-2.2l4.25-5.85q3.3-4.5 3.9-5.05M11.75 234q-.15 1.7 3 2.6 3.3 1 7 0 3.85-1.05 14.75-6.2l2.7 2.05-7 3.65q-7.65 3.65-10.85 3.7-4.85.5-7.35-.85-2.65-1.5-2.25-4.95m20.05-10.3 1.2 2.05-15.85 3.7q-5.25.05-8.2-3.55l-1.75-3.35q1.05 1.75 5.85 2.85 7.7 1.7 18.75-1.7m-1.55-6.9.2 2.15q-6.6 1.05-14.4-.35-3.85-.7-6.45-1.6-2.1-1.3-2.65-3.75l-.15-2.15q.9 1.75 4.7 3.1 6.25 2.25 18.75 2.6m.6-5.7-.6 1.55-6.3-1.45q-1.1-.35-5.8-2.65l-4.45-2.2-.3-2.45 6.3 3.25q7.1 3.4 11.15 3.95m223.4 33.15-.35.8q-.7.85-2.65 1.1-1.9.3-3.7-2.6l-2.65-5.05-5.1-8.4 2.1-.3q1.15 1.15 3.95 5.2 2.85 4.15 3.6 5.85 1 2.15 1.85 2.9 1.2 1.1 2.95.5m17.85-13.7q-.4.85-1.55 1.45-2.25 1.15-5.95-.1t-8.9-4.55l-4.45-3.05 1.5-1.65q3.35 2.25 7.5 4.25 7.3 3.6 11.85 3.65m3.4-9.75-2.75 2q-2.85-.25-7.6-1.65-2.95-.85-6.8-2.95l-3.2-1.9.35-1.05 7.05 2.65q8 2.65 12.95 2.9m2.6-12.15-1.95 2.85q-6.1.65-13.8-.1l-6.5-.85v-2q13.65 1.35 22.25.1m-3.1-10.6-.4 2.7-5.75 1.5-9 1.45-5.1.55-.5-1.7 9.95-1.7q7.25-1.5 10.8-2.8m-81.6-83.25q-1.75 6.8-9.1 14.3-14.7 15.05-42.65 18.7-25.1 3-43.5-5.6-5.75-2.7-10.1-6.2l-3.25-3q9.3 5.75 18.6 8.3 16.4 4.5 37.25 1.7 21.55-2.95 37.25-13.35 10.85-7.15 15.5-14.85"/><path fill="#dab750" d="m131.9 156.4-2-7.55q2.45.45 17.6-1.8-1.65 1.25-2.1 4.65-.2 1.7-.1 3.15-4.05 1.2-7.7 1.35z"/><path fill="#af2f42" d="M154.4 244.9q15.6-.55 23.75-3.5 8.45-3.05 15.25-11.4 7-8.55 7.6-17.25l1.05 6.55q.85 7.3-.2 11.25-7.2 10.35-10.5 12.85-2.45 1.85-4.35 9.25-1.9 7.3-1 10.75-4.4-5.35-9.2-7.3-4.85-1.9-12.95-1.55l-20.25.35h-12.1q-.85.2-4.95 7.2l-3.9 6.95q-.1-5-3.4-10.55-3.4-5.65-6.9-6.25-3.65-.65-8.4-2.3t-5.6-2.55q-5.55-6.05-7.05-15.05l-.45-7.8q1.95 5.6 7.9 10.35 8.85 7 23.4 8.65zm33.95-71.35 7.7 11.45q9.9 13.5 20.95 23.9t21.85 15.4q5.45 2.55 8.65 2.95-1.1 1.5-3.65 2.15-5.2 1.35-12.7-2.85-15.4-8.55-31.5-28.3-6.55-8.15-11-16l-3.15-6.2z"/><path fill="#af2f42" d="m188.2 172.9 1.3-2.15 8.25.25 3.6-.95q-2.8 2.8-6.7 3.55l-3.3.15-.7 2.6q-1 2.85-2.65 3.9l-3-4.85q1.55-.3 3.2-2.5m-87.55 4 4.35 3q-1.8 5.1-8.55 16.65L90 207.05q-6.15 10.1-17.05 18.4-12.05 9.15-21.8 9.3-8.6.1-13.8-3.95-1.65-1.25-2.75-2.8l-.75-1.25q1.7 2.05 7.8 2.75 7.2.85 14.5-1.6 10.5-3.5 22.45-15.55 15.15-15.2 22.05-35.45"/><path fill="#af2f42" d="m89 176.25 3.5-.45q4.05-.75 6.85-2.4.8 2.2 3.15 4.15l2.15 1.5-.8 3.2q-2.95-.55-4.85-3.15l-1.35-2.55q-2.3 1.05-5.7.5z"/><path fill="#dcdddd" d="m212.5 142.55.45 1.25q.25 1.85-.45 4.95-.7 3.15-3.5 5.55l-2.65 1.75.45 4.25q-.25 4.85-3.8 7.95-3.55 3.15-8.85 3.15l-4.65-.65q-.5 1.4-1.85 2.85-2.65 2.95-6.8 3.15-3.25.2-6.8-2.5l-2.9-2.7q-.65 1.1-2.4 1.95-3.45 1.8-8.75.75t-6.6-6.4l-.25-5.1q-4.8-1.05-6.5-4.55l-.75-3.05q.5 1.6 4.05 3.1 4.35 1.75 8.1.3l.95-.2.65.9q1.25 2.5 3.2 3.7 3 1.85 7.05.35l1.2-.3 1.4.35q3.2 1.25 6.4 1.05 4.8-.3 8.35-4.15.85-.85 1.2.5l.15 1 .15.75q.25.35 1-.15 5.8-3.7 7.45-9.75.45-1.65 1.45-.45l.45.85.4.55h.8q3.35-.7 6.15-2.65 4.45-3.05 6.05-8.35M80.65 172.4q-3.45-3.2-2.25-9.05l1.85-5.2q-2.7-2.4-3-5.75l.3-2.9q.1 1.4 1.65 2.95 1.75 1.7 4 2.05.65.1.8.35v.8q-.45 2.3.2 4.55.95 3.35 4.25 5.85 2.6 1.95 8.85 2.8l1-.15-.05-.7-.1-.95q.05-1.5 1.5-.5 5.9 4.05 10.45 3.1 4.8-1.05 7.4-4.4.55-.7 1.05-.9l1.25-.05q6.85 1 11.45-3l-.4 1.5q-.7 1.75-2.35 3.25-1.6 1.55-4.4 1.95l-2.45.15-.05 1.45q-.15 1.85-.75 3.45-2 5.25-7.85 6.85-5.85 1.65-10.35-2.25-1.4-1.25-2.5-2.85l-.8-1.4q-5.95 2.35-9.8 2.4-5.15.1-8.9-3.4"/><path fill="#af2f42" d="M70.7 140.9q-15.25 2-29.65-1.45-13.55-3.25-22.8-9.5-2.95-2-5.05-4l-1.55-1.65q2.2 2.05 8.65 4.95 7.95 3.65 17 5.8 25.7 6.15 47.05-2.15l3.8 3.1q-5.45 3.3-17.45 4.9m196.2-60.55Q264.8 84 260.05 89q-9.55 10-23 16.9-15.1 7.75-31.3 10.85l-9.6 1.3-3.55.2 2-6.7 12.85-1.45q9.95-1.4 18.45-3.95 25.15-7.6 41-25.8M103.55 26.6q-.1 2 5.55 6.05 6.45 4.6 12.65 4.55l-10.85 2.9q-5.55-2.45-7-8.25-.45-1.8-.45-3.75zm15.2 28.1q-.5 2.25 2.7 5 3.5 3.1 8.05 2.8 4.5-.25 8.35-3.35 3.3-2.6 4.4-5.5l-1.35 5.85q-2.25 6.1-6.6 7.2-3.6 1.15-7.05.7-4.05-.5-7-3.15-2.6-2.35-2.3-6.2zm-11.15 24q-6.4-4.1-7.85-11.85-.45-2.4-.35-4.9l.2-1.85q-.15 1.6 1.4 4.75 1.85 3.95 5.1 7.4 9.15 9.6 23.15 9.6-2.85.85-7 .9-8.25.1-14.65-4.05"/><path fill="#0f141b" d="M102.1 100.7q.55-2.25 2.05-2.45 3.05-.45 4 6.9.4 3.2-.1 5.25-.5 2.25-2.05 2.45-3.1.4-4-6.9-.4-3.2.1-5.25m59.5-3.35q.4 3.2-.05 5.25-.55 2.25-2.05 2.45-3.05.4-4.05-6.95-.4-3.15.1-5.25.6-2.25 2.05-2.45 1.7-.2 2.75 2.05.9 1.85 1.25 4.9"/><path fill="#0f141b" d="M106.2 93.3q-.2-.2.45-.55t.8-.2q1.3 1.55 2.85 5.8 1.9 5.3 2.05 10 .2 5.8-2.05 9.95-2.2 4.05-5.75 4.8-3.65.7-6.95-1.8-3.35-2.5-5.05-7.4-2.65-7.6-1.2-15.6.05-.25.8-.15.75.05.75.3-1.05 8.15 1.3 14.95 1.55 4.5 4.25 6.65 2.7 2.2 5.85 1.55 3-.65 4.75-4.3 1.7-3.65 1.55-9-.15-4.65-1.95-9.8-1.4-3.9-2.45-5.2m61.7.3q-1.1-3.8-3-7.05-.1-.2.5-.45l.8-.1q4.35 6.55 4.7 14.2.3 6-2.55 10.3-2.85 4.25-7.35 4.65-4.8.4-8.6-3.75-3.2-3.6-4.45-8.8-1.7-7.35.6-16.65l.6-.1q.55.1.5.3-1.65 9.05 0 16.05 1.25 5.35 4.5 8.55 3.2 3.1 6.8 2.75 3.7-.35 6-4.05t2.1-9q-.1-3.25-1.15-6.85"/><path fill="#0f141b" d="m108.05 91.6 1.2.05q.3.4-.55.9-4.15 2.4-10.3 4.35-5.45 1.75-9.95 2.35-1.3.2-1.35-.4t1.25-.85q3.55-.75 9.35-2.6 6.75-2.1 10.35-3.8m61.05-6.7q1.05-.1 1.15.4t-.95.7l-12.2.85-10.45-.9q-1.25-.3-1.15-.75t1.4-.35l10.3.4zm7.05 32.95q.85-1.3 1.35-1.05.45.2-.35 1.6-2.2 3.95-5.9 7.1-5.25 4.4-12.45 6-8.3 1.85-17.65 1.35l-9.35-1.15q-2.05 1.85-5.05 3.4-5.3 2.75-11.5 3.2-6.4.45-11.1-1.8-3-1.45-5.1-3.9-.65-.85-.35-1.1.35-.25 1.15.5 5.1 5 15.25 4.25 6.3-.45 11.8-3.25 2.75-1.45 4.3-2.8.15-.25.5-.15l8.3.8q10 .35 18.7-1.6 11.45-2.6 17.45-11.4m-41.9-79.05q6.95 3.6 8.9 9.3.95 2.8.6 6.4-.35 3.5-1.85 6.4-1.3 2.55-3.6 4.45-2.25 1.85-4.9 2.7l-6.2.5q-3.05-.35-5.5-1.75-3.45-1.85-4.45-5.8-1.05-4.1.8-7.3 1.7-2.95 4.75-3.65 1.55-.35 1.75.25.25.55-1.3 1-2.15.7-3.5 3.15-1.6 2.85-.75 6.1.75 2.9 3.7 4.6 2.05 1.15 4.7 1.3 2.6.15 5.25-.65 4.75-1.5 7.1-6.15 1.3-2.55 1.55-5.4t-.6-5.35q-1.8-5.2-7.7-8.1-7.25-3.6-17-.95-9.45 2.6-13.4 12.5-3.1 7.85-1.55 14.25 1.5 6.35 6.3 10.3 7.4 6.15 21.05 4.6 1.6-.15 1.7.5.05.7-1.55.95-14.7 2.45-23.05-4.45-5.5-4.45-7.15-11.5-1.75-7.4 2.3-16.4 4.8-10.55 14.6-13.25 10.5-2.9 19 1.45"/><path fill="#0f141b" d="M123.45.25q.3.55-.85 2.7-1.65 3.15-2.15 5.2-.9 3.9.7 7 2.1 3.95 5.5 5.6 3.45 1.7 9.35 1.7 9.25-.05 13.1 2.1 5.1 2.85 8.25 12.15.1.3-.65.6-.8.3-.95 0-3.1-8.15-8.85-11-3.85-1.85-11-1.85-6.5 0-10.35-1.75-4-1.85-6.3-6.15-1.15-2.15-1.1-5.5 0-4.8 2.95-8.8-4.95 2.65-9.5 7.55-6.4 6.85-7.3 14.1l-.15 2.65q0 6.35 3.8 10.55 1.9 2.1 4.05 3.05.25.1-.2.85-.5.7-.8.55-2.9-1.2-5.3-3.95-4.8-5.5-3.75-13.9Q103 15 111.4 7.3q5.7-5.25 10.15-6.95z"/><path fill="#0f141b" d="M175.1 20.05q-1.05-1.3-1.05-1.85.05-1.1 3.5-.4 4.9 1 8.6 3.9 4.5 3.5 5.45 8.7 1.25 6.75-1.45 12.55-1.8 3.9-4.45 5.9-1 .8-1.3.35-.25-.4.5-1.35 2.05-2.35 3.45-6.35 1.95-5.55.95-10.75-1-5.45-5.8-8.7-3.3-2.2-7.25-2.95 2.3 1.9 3.45 4.1 1.9 3.55.55 7.2-1.6 4.3-6.4 5.3l-8.65.25q-8.6-.3-12.3 6.05-2.2 3.8-1.55 9.75.75 7.25 5.8 12.35 1.1 1.15.6 1.55-.45.45-1.65-.55-6.1-5.15-7.2-12.85-1-6.65 1.9-11.4 4.35-7.15 14.55-6.75 6.4.2 8-.15 3.45-.75 4.85-4.3 1.15-3-.35-5.95-.65-1.2-2.75-3.65"/><path fill="#0f141b" d="M185.55 48.6q-.3-.2.3-.75t.9-.35q2.4 1.3 4.6 4.8 2.3 3.65 2.35 6.9.05.4-.75.8t-.85 0q-.2-2.25-2.75-6.4-2.35-3.8-3.8-5m-96.4-16.8q5.8 1.9 9.75 6.75 4.5 5.4 4.2 11.95-.05.35-.85.35-.85 0-.85-.35.05-5.5-4.1-10.3-3.75-4.25-9.15-6.3-3.15-1.2-7.5-.6-3.95.55-3.8 1.1l3.4 3.65q3.15 4.3 2.35 8.6-.5 2.9-2.6 5.95l-4.1 5.05-3.5 4.45q-2.1 3.15-3.05 5.55-1 2.6-.95 5.25.1 4.1 2.35 8.2 2.25 4.15 5.75 6.6.7.45.25 1.15L75.6 90.7l-.55.5-.6-.25q-7.15-4.2-15.35-7.9-3.6-1.65-8.8-3.45-8.5-2.9-14.5-3.45-5.4-.5-10.75.1-5.35.65-8.9 2.2-6.3 2.85-9.8 7.75-4.6 6.45-3.8 16 .85 10.35 7.65 18.75 5.6 6.9 13.9 11.1t17 6.25q8.3 1.95 18.05 2.2 8.95.2 17.1-1.4 7.4-1.45 11.85-3.85.3-.2.75.5t.15.9q-4.6 2.9-12.5 4.65-8.4 1.85-17.7 1.65-10.4-.25-18.2-1.95-8.9-1.95-17.3-6.35-10.6-5.55-16.3-13.2-6.05-8.2-6.9-19.15-.8-10.35 4.3-17.5 4.05-5.7 11.15-8.75 3.8-1.6 9.2-2.25 5.45-.65 11-.15 6.25.6 14.45 3.4 5.4 1.85 9.5 3.8l7.05 3.6q5.1 2.8 7.85 4.65l.3-.5q-9.25-6.95-9.35-15.5-.05-2.9 1.05-5.75 1-2.75 3.25-6.05l3.6-4.6 4.2-4.8q2.3-2.9 2.75-5.4.6-3.3-1.3-6.75-1.25-2.25-3.1-3.9-.85-.8-.95-1.3-.15-.55.5-1.05 1.6-1.25 5.1-2z"/><path fill="#0f141b" d="M189.25 82.35q-.8-1.25-.2-1.6t1.45.85q4 5.65 5.5 12.75 2.05 10.1-1.45 21.4-1.8 5.9-7.15 12.15-8.65 10.05-23.1 15.85-13 5.2-27.95 6.15l-18.55-.55q-6.9-1-15.1-4.15-13.6-5.2-21.75-13.9-11.5-12.3-8.1-31.2.5-2.55 1.15-2.5.65.1.35 2.7-.8 7.5.15 13.2 1.65 9.4 8.1 16.25 7.85 8.4 21 13.2 7.45 2.7 14.5 3.65l18.15.55q14.7-.95 27.45-6.05 14.05-5.6 22.05-14.8 4.8-5.6 6.55-11.2 3.35-10.85 1.6-20.55-1.2-6.75-4.65-12.2"/><path fill="#0f141b" d="M244.9 42.65q3-.1 5.05.55t2.3 1.7q.35 1.35-1.5 2.9l-7.3 6.5q-4.75 4.45-6.15 6.3 4.1 1.3 6.9 4.05 2.75 2.7 3.3 5.9.95 5.7-1.35 11.55-3.25 8.4-12.75 14.95-14.75 10.15-37.85 9.3l-.2-.75q.05-.75.25-.75 20.2.75 36.3-9.85 8.95-5.85 12.1-13.65 2.2-5.4 1.35-11.05-.4-2.95-2.9-5.3t-6.55-3.6q-.5-.2-.35-.7.5-1.9 6.25-7.3 5.1-4.75 8.15-6.75 1.1-.8.9-1.25-.2-.55-1.45-.85l-4.4-.25q-14.4.8-31.55 13.2-10 7.25-17.4 16.8l-5.45 8.15q-.1.2-.7-.2-.55-.4-.45-.6l5.5-8.8q7.5-10.15 17.65-17.55 10.6-7.7 20.5-10.7 5.35-1.6 11.8-1.95"/><path fill="#0f141b" d="M251 31.45q7.2.05 13.65 3.4 10.2 5.3 12.25 16.95 1.15 6.5-2.05 15.7-3.9 11.05-12.75 20.7-10.75 11.75-26.1 19.65-19.85 10.25-44.35 12.2-.35.05-.15-1.35.15-1.4.5-1.4 24-1.95 43.05-11.95 14.5-7.55 25.15-19.2 8.6-9.4 12.25-19.35 3.05-8.3 1.95-14.45-1.95-10.8-11.1-15.4-5.55-2.8-12.4-2.85-6.45-.05-12.2 1.1-10.4 2.05-22.2 8.15-12.05 6.25-20.2 14.7-6 6.25-11.4 15.55-.95 1.55-1.45 1.15-.45-.4.35-2.05 5.3-10.2 11.3-16.75 8-8.7 20.4-15.1 12-6.15 22.85-8.3 5.7-1.1 12.65-1.1M23.15 85.25l6.55-.4 10.05.8q6.7 1.05 13.75 3.15 5.8 1.75 10.1 3.7 5.55 2.4 10.25 7.05.2.15-.2.75-.35.55-.55.4-4.55-3.8-10-6.15-4.55-2-9.95-3.65-7.1-2.2-13.65-3.2-10.4-1.55-16.1-.95-2.5.3-2.75 1.5-.25 1.15 2 2.55 10.9 6.7 10.75 7.75 0 .35-.6.55l-4.6 3.05q-4.45 4.1-4.3 9.5.1 6.1 6.6 12.05 6.85 6.35 17.2 8.7 9.6 2.15 20.75.45 8.4-1.25 12.55-3.45.2-.1.6.65.35.7.15.8-4.2 2.25-13.05 3.65-11.65 1.8-21.45-.4-10.75-2.4-18.2-9.45Q22 118 22.1 111.5q.05-5.25 3.2-8.9 2.5-2.9 6.3-4.2L28 95.85l-6.25-4.05q-2.95-1.95-2.5-3.85.15-.95 1.05-1.65 1.05-.85 2.85-1.05m125 15.6q.2-.15.5.35.3.45.1.6-7.45 5.45-19.5 7.2-10.4 1.55-18.05-.15-.2-.05-.1-.65.1-.55.3-.5 6.1 1 16.6-.4 13.1-1.75 20.15-6.45"/><path fill="#0f141b" d="M169 94.55q9.3-4.45 17.65 1 5.5 3.55 6.95 11.05.85 4.2.3 8.2l-.6.2q-.55-.05-.55-.3.3-3.35-.4-7-1.45-7.3-6.5-10.55-7.9-5.2-16.4-1.55-.2.05-.45-.45-.2-.5 0-.6M80.75 129.1l-.6-.1q-.95-3.7-1.1-5.7-.5-5.05 1.1-8.95 1.85-4.4 6.2-6.15 3.1-1.3 5.95-.95.25.05.25.6t-.25.55q-2.7 0-5.05 1.1-3.6 1.65-5.25 5.6-1.6 3.8-1.4 8.6.05 2.6.65 5.05.05.25-.5.35m47.9 19.15q.5-.7.8-.5l2.55 3.2q2.25 4.35.85 10.1-1.05 4.4-4.9 6.5-2.5 1.3-5.5 1.5.3 2.95-.75 5.4-.9 2.15-2.9 3.85-2.5 2.2-6.15 3.05-6.75 1.5-11.05-3.15-2.35-2.55-3.3-5.75-.35-1.35.3-1.55t1.1 1.1l.7 1.55q.9 1.6 2.15 2.85 3.9 3.85 9.65 2.55 5.5-1.3 7.55-5.2 1.3-2.45.95-5.15-.3-1.3.8-1.2l4.05-.7q4-1.6 5-6.1 1.1-5-.4-8.7l-1.75-2.75q-.25-.2.25-.9"/><path fill="#0f141b" d="M79.75 173.05q-3.7-4.4-2.45-9.65.95-3.9 3.55-6.05.9-.75 1.35-.4.4.35-.4 1.15l-2.3 4.25q-1.5 5 2.05 9.25 1.95 2.3 6.5 3.05 5.55.9 10.8-1.85.3-.15.55.65.2.75-.1.9-6.3 3.5-12.25 2.5-4.75-.8-7.3-3.8"/><path fill="#0f141b" d="M75.85 148.2q1.05-4.7 4.75-6.85 2.55-1.5 5.75-1.5-.75-1.95-.75-2.6 0-.35.85-.35t.85.35q0 .75 1.15 3.05.75 1.4-.8 1.2-2.75-.2-5 .95-3.45 1.7-4.55 6.2-.65 2.6.05 4.8t2.85 4.5q.25.25-.35.8-.6.6-.85.35-2.25-1.85-3.3-4.25-1.45-3.1-.65-6.65m71.7-1.85q.2-.25.9.2.7.5.5.75-1.4 1.95-1.9 4.4-.5 2.4.05 4.65.7 2.8 3.4 4.4 1.65.95 3.7 1.3 1.45.25 1.3.8t-1.6.45q-3-.15-5.45-1.65-2.8-1.75-3.55-4.7-.65-2.7 0-5.5.7-2.95 2.65-5.1"/><path fill="#0f141b" d="M167.95 172.45q1.85-1 2.95-2.55.9-1.25 1.25-.95.3.25-.15 1.75-.75 2.1-2.5 3.25-4.65 2.95-9.95 1.45-4.4-1.1-6.4-4.55-1.1-1.85-1.1-4.6-.05-2 .4-3.6l.9-.1q.85.2.75.55-.3 1.2-.2 2.65.1 2 1.05 3.6 1.6 2.8 5.35 3.75 4.3 1.15 7.65-.65"/><path fill="#0f141b" d="M198.65 171.8q-4.4 1.3-8.85-.15-.55 2.15-2.55 3.95-2.6 2.4-6.2 2.3-4.45-.15-7.3-2.25-2.2-1.6-3.05-3.85l1.05-1.5q1.65 2.35 3.05 3.4 2.5 1.85 6.25 2 3.3.1 5.55-2.25 1.25-1.3 1.9-3.05.25-.75 1.05-.55 4.2 1.3 8.15-.05 3.45-1.15 5.55-3.85 1.75-2.3 2.3-5.25.5-2.7-.15-3.9-.2-.3.55-.7l.85-.1q1 1.85.6 5.25-.45 3.85-2.5 6.45-2.25 2.9-6.25 4.1"/><path fill="#0f141b" d="M210 131.4q.25-3.85-1.15-6.4-1.45-2.55-4.6-4.45-3.2-1.85-6.45-2.1-.35-.05-.25-.9.05-.85.4-.8 3.85.25 7.65 2.35 3.95 2.1 5.6 5 1.65 2.85 1.35 6.35-.25 3.6-2.55 7.2 1.85 1.5 2.9 3.55 1.9 3.5.9 7.55-1.85 7.45-9.2 8.3-1.3.15-1.5-.35-.15-.55 1.1-.85 5.7-1.3 7.15-7.75.9-4.15-.85-7.15l-2.05-2.35-.5-.4q-.1-.25.25-.75 1.55-2.35 1.8-6.05m-94.2 47.7 1.9-.85q1.25 5.55-.55 9.25-1.95 3.9-9.7 11.05-6.95 6.45-10.5 13.2-3.5 6.7-4.35 15.15-.65 6.6 2.1 13.2 2.2 5.35 4.9 7.5 1.3 1.05.8 1.7-.55.7-1.85-.4-3.85-3.15-6.3-8.55-2.9-6.45-2.4-13.75.55-8.5 4.2-15.4 3.55-6.8 10.85-13.5 7.25-6.7 9.3-10.35 1.85-3.25 1.6-8.25m57.3-4.75 3 1.9q1.25 2.7 3.4 5.1 2.1 2.3 6.25 5.8 11.15 9.35 15.05 20.6 3.5 10.2 1.5 23.6-.3 2.05-1 1.95t-.45-2.15q1.55-12.55-2.85-23.35-4.45-10.85-14.75-19.6-4.25-3.6-6.7-6.9-2.4-3.3-3.45-6.95m-12.6 81.85q-9.75.45-19.4.15l-13.45-1.05q-1.5-.25-1.4-.9.1-.6 1.65-.5 4.2.3 12.95.3 10.1 0 19.5-.45 9.9-.5 13.25-.05t6.45 2.6q4.25 3.05 6.45 6.6 2.6 4.25 1.35 8-1.3 3.95-4.05 5.9-1.95 1.35-5.5 2.15-4.5 1-6.95 2.1-4.3 1.95-5.6 5.1-1.6 3.8-1.2 7.55.55 5.35 5.15 11.3 4.3 5.65 10.6 9.3 4.45 2.5 9.2 3.7 7.3 1.95 11.25-.55 2.75-1.7 3.6-5.75 1.3-6.05-1.75-9.7-3.75-4.3-11.8-3.9-1.25.05-1.25-.6t1.25-.8q4.5-.5 8.2.7 3.45 1.1 5.5 3.5 3.7 4.25 2.25 11.15-.9 4.7-4.6 7.1-2.6 1.6-6.6 1.75-3.3.15-6.5-.7-5.05-1.3-9.8-4-6.75-3.8-11.25-9.7-8.8-11.55-4.45-21.5 1.55-3.6 6.25-5.65 2.4-1.05 8-2.3 3.45-.75 4.9-1.8 1.85-1.45 3.05-4.95 1.05-3.15-1.2-6.85-1.95-3.25-5.5-5.75-2.5-1.8-5.6-1.95z"/><path fill="#0f141b" d="M206.75 295.8q3.7-.35 7.6.7 5.2 1.45 7.45 5.05 2.6 4.15 2.1 8.85t-3.75 7.2q-3.55 2.65-8.85 3.1-5.05.4-10.7-1.2-.35-.1-.1-.9.2-.8.55-.75 5.05 1.45 9.65 1t7.65-2.65q2.75-2 3.2-6.3.45-4.35-1.8-7.8-1.95-2.95-6.35-4.1-2.35-.65-6.5-.85-1.65-.1-1.7-.65-.05-.5 1.55-.7"/><path fill="#0f141b" d="m204.25 289.2 11.7.4q5.75.8 9.4 2.3 3.8 1.55 6.15 4.5 2.3 2.85 2.7 6.4.2 2.2-.35 4.7-.8 3.5-2.9 5.7-3.2 3.35-9.9 2.95-.35-.05-.3-.9t.4-.8q5.5.3 8.2-2.55 2.95-3 2.45-8.85-.35-3.05-2.25-5.45-1.9-2.45-4.85-3.6-3.3-1.3-8.7-2.2l-11.55-.65q-6.3.6-11.35 1.95-8 2.15-11.1 5.7-2.8 3.2-3.25 7.6-.35 3.3.7 7.7.1.35-.75.2-.85-.1-.95-.45-2.65-10.35 2.65-16.35 3.3-3.75 11.3-6.05 5.5-1.55 12.55-2.25"/><path fill="#0f141b" d="M201.55 231.5q-.25-.2.1-1.15.4-.95.65-.75 5.15 4.3 9.6 9.2 6.1 6.75 8 11.7 5.4 13.9-2.55 26.8-1.9 3.15-4.85 5.8l-4.1 3.4q-2.5 2.15-2.1 3.15.15.3-.6.4-.8.1-.95-.25-.55-1.25 0-2.4.45-.95 2.05-2.3l3.85-3.3q2.7-2.6 4.55-5.6 7.25-11.85 2.2-25.05-3.15-8.15-15.85-19.65m-71.65 23.2 1.2.05q1 .3.75.55-2.1 2.65-4.35 6.7-2.45 4.3-2.75 6.3-.45 2.8.5 6.8 1.05 4.65 3.35 7.2l4.6 4.3 4.15 3.35q3.35 2.85 4.8 4.9 3.2 4.55 2.45 9.55-1.55 10.4-15 17.6-4.05 2.2-8.75 2.8-4.75.65-8.35-.55-2.4-.8-4.35-2.55-1.85-1.7-2.9-3.95-1.15-2.4-1.05-5 .05-2.6 1.3-4.95 1.3-2.45 3.8-4 2.3-1.5 5.3-1.95 1.05-.15 1.1.4t-.95.8q-5.15 1.45-7.35 5.6-2.1 4-.1 8.2 1.85 3.85 6.15 5.2 3.3 1.1 7.3.55 4-.5 7.75-2.55 6.3-3.4 9.55-7.2 3.3-3.85 4-8.75.45-3.3-1.45-6.9-1.75-3.35-4.9-5.75l-5.05-3.9-4.15-3.85q-2.6-2.85-3.7-8.25-.9-4.4-.4-7.55.4-2.25 2.95-6.55 2.15-3.65 4.55-6.65"/><path fill="#0f141b" d="M108.65 320.15q.35.8 0 .95-3.75 1.6-6.65 2-5.8.85-10.85-1.7-4.3-2.2-5.75-6.6-.9-2.85-.55-5.95.45-3.6 3.7-6.4 3.45-2.95 8.3-3.3 1.6-.1 1.65.55.1.6-1.65.85-3.8.55-6.65 3.1-2.75 2.45-3.1 5.4-.35 2.75.55 5.1 1.25 3.4 4.85 5.25 7.2 3.7 15.5.1.3-.1.65.65"/><path fill="#0f141b" d="M84.4 296.4q5.7-2.15 15.25-1.65 8.45.45 13.9 2.45 5.95 2.15 10.3 5.8 3.4 2.8 5.35 6.05 2.3 3.7 1.65 7.25-.65 3.4-3.8 5.85l-.9-.1q-.6-.35-.35-.55 3.15-2.45 3.15-6.15 0-2.75-1.55-5.3-1.7-2.8-5.1-5.5-4.05-3.2-9.25-5.2-5.05-1.9-13.35-2.35-9.25-.5-14.6 1.55-5.5 2.1-7.75 4.95-1.7 2.15-1.95 5.35-.45 5.85 5.4 8.75 2.25 1.15 5.5 1.1l3.25-.45.75.6q.4.65.15.85-.9.65-4.2.75-3.95.1-6.6-1.2-4-2-5.65-5.4-1.2-2.45-1-5.1.65-8.25 11.4-12.35"/><path fill="#0f141b" d="m97.6 247.8.95-.05q.8.3.65.65l-3.8 10q-2.75 7.8-3.45 11.3-1.95 9.4 3.3 15.9 2.75 3.35 3.5 4.75.9 1.7.5 3.35-.45 1.85-3.25 3.2-.3.15-.65-.6-.4-.8-.05-.95 2.1-1 2.3-2.05.2-.95-1.25-2.85l-3.1-3.7q-5.95-7.3-3.95-16.8.75-3.7 3.8-11.65 2.85-7.4 4.5-10.5m10.95 3.75q-1.35-.75-1.1-1.15l1.75.05 7.15 1.65q1.75.3 1.65.9-.1.55-1.6.45-4.9-.25-7.85-1.9m84.5-10.75q1-1 1.5-.65.45.4-.5 1.45-2.2 2.5-4.95 4.55-1.9 1.5-3.2 2.15-1.4.8-1.8.3t.95-1.4q4.25-2.85 8-6.4m-2.55-53.35q-4.9-7.7-5.95-11.15-.1-.35.85-.65l1.1.05q.95 3.05 6.1 10.8 4.85 7.25 10.4 14.25 4.85 6 13.3 13.35 7.25 6.3 12.15 9.45 4.4 2.85 7.6 3.9l7.9.25q3.9-1.25 6.9-4.65 2.8-3.2 3.55-6.85.8-3.9.15-8.1-.6-3.85-1.9-5.85-1.35-2.05-4.95-2.6-16.6-3.3-25.75-8.5-8.4-4.8-14.35-11.9-2.75-3.3-6.3-9.25l1.6-1.2q3.25 5.35 6.15 8.65 5.75 6.65 13.9 11.3 5.65 3.2 15.1 6.15l9.95 2.75 3.4 1q2 .8 2.95 2.3 1.45 2.2 2 6.55.6 4.7-.3 9.05-.8 4.1-3.9 7.85-3.4 4.15-7.8 5.55l-8.85-.3q-3.5-1.15-8.15-4.15-5.1-3.25-12.7-9.75-8.9-7.65-13.75-13.65-5.45-6.75-10.4-14.65M87 175.2l1.1.1q.95.35.8.65-2.7 5.8-5.95 9.9-4.9 6.15-12.9 11.5-3.95 2.7-7.3 4.25-3.25 1.5-6.95 2.4l-10.25 1.05-8.2.35q-1.45.25-2.8 1.35-1.75 1.5-2.7 4.05-1.25 3.4 0 8.9 1.4 6.4 5.4 9.7 8.2 6.75 21.25 2.7 13.8-4.25 28.05-22.65 5.55-7.15 10.2-15.25 4.55-8 7.15-15.1.1-.35 1.2 0 1.05.3.95.65-2.65 7.25-7.35 15.65-4.85 8.6-10.4 15.75-7 9.1-14.7 15.1-7.5 5.85-14.65 8.05-6.8 2.15-12.75 1.25-5.8-.9-10.3-4.6-4.35-3.55-6.05-10.65-1.5-6.3-.15-10.4 1.1-3.2 3.55-5.1 1.9-1.45 3.9-1.7l7.95-.25 10.2-1.05q6.05-1.5 13.2-6.35 7.85-5.25 12.6-10.9 3.45-4.1 5.9-9.35"/><path fill="#0f141b" d="m249.85 226.55 1.2-1.15q5.6 7.15 5.8 12.85.25 4.25-1.85 6.8-1.3 1.65-3.65 1.9-2.3.2-3.2-1.1l-2.5-4.3-2.95-5.05q-2.85-4.5-4.9-6.6-.2-.25.5-.5l1 .05q3.5 3.55 7.9 11.35 1.4 2.6 2.25 3.6.7.75 1.95.6 1.35-.2 2.3-1.4 1.6-1.95 1.45-5.25-.2-4.6-5.3-11.8M275.6 194q.8 1.35.75 3.4 0 2.2-.95 3.85h-1.5q1.65-4.55.05-6.55-1.05-1.35-2.75-1.65-1.75-.3-3.65.6-3.55 1.65-8.9 3.6-5.6 1.95-8.15 2.4l-.7-.6q-.35-.65 0-.7 2.25-.35 7.75-2.4 5.5-2 9.3-3.85 2.5-1.2 5.05-.6 2.5.55 3.7 2.5"/><path fill="#0f141b" d="M280 205q.35 2.2-1.05 4.5-1.45 2.25-3.75 3.2-.35.1-.85-.45-.55-.55-.25-.7 2.4-1 3.55-2.95 1-1.8.65-3.55t-1.6-2.5q-1.25-.8-3.1-.45l-8.55 1.85q-6.05 1.25-9.75 1.2-.35 0-.4-.7-.1-.7.25-.7 2.4.15 9.3-1.2l9.35-2q2.25-.55 4.05.75 1.75 1.25 2.15 3.7"/><path fill="#0f141b" d="m264.7 210.95 6.45.05q5.05-.2 7.2 2.6 1.8 2.45.55 5.35-.75 1.75-2.3 2.8-1.25.8-3.75 1.6-.35.1-.65-.4-.3-.55.05-.65 3.85-1.15 5-3.75 1-2.3-.55-4.1-1.75-2-5.7-1.85l-6.9-.2q-5.85-.35-8.2-1.1-.35-.1-.2-.75.1-.6.45-.55z"/><path fill="#0f141b" d="m266 220.3 5.4 1.55q2.95 1 3.95 3.5.85 2.25-.05 4.45-.8 1.9-3.15 2.95-2.4 1.15-5.1.7-3.3-.55-8.15-3.05-4.95-2.65-8.2-5.65-.25-.25.25-.8.5-.6.75-.35 2.9 2.7 7.8 5.1 4.5 2.2 7.7 2.75l3.7-.2q1.95-.6 2.85-2.15.95-1.65-.05-3.4-.9-1.6-2.75-2.2l-5.5-1.6q-7.15-2.4-10.7-4.8-.3-.2.05-.85.35-.6.65-.4 2.05 1.4 5.1 2.6zm-247.15 9.75q-3.2.7-4.85 2.45-1.6 1.65-1.15 3.4.4 1.65 2.8 2.5 2.45.9 5.7.45 2.85-.4 6.75-2l6.55-3.1q3.45-1.7 4.55-2 .35-.1.5.5.2.6-.1.75l-4.2 2.3-6.7 3.3q-4.05 1.8-7 2.3-3.75.65-7.05-.8-3.2-1.35-3.8-3.65-.65-2.3 1.2-4.6 2.1-2.65 6.45-3.45l6.55-1.45 7.7-2 .55.6q.3.7-.05.8-5.15 1.7-14.4 3.7"/><path fill="#0f141b" d="M30.7 218.2q.35 0 .35.7t-.3.75q-8.3.7-11.85.25l-7.45-1.2q-3.05-.5-3.55 2.2-.2 1.05-.1 1.75.2 1.1 1.1 2.4 2.3 3.1 7.7 4 .35.05.15.65-.2.65-.55.6-3.3-.55-5.25-1.45-2.25-1-3.4-2.7Q5.5 223.3 6 220.5q.8-4.5 5.7-3.55l7.45 1.25q3.45.55 11.55 0"/><path fill="#0f141b" d="m24.1 210.75 6.15 1.2q.35.1.2.8t-.5.65l-6.35-1.25q-2.35-.6-4.65-1.7-5.55-2.85-6.9-3.35l-2.35-.15q-1.15.25-1.8 1.15-.75 1.15-.55 3.45.3 3.05 2.7 5.15.25.25-.4.65l-.95.1q-2.75-2.5-3.1-5.85-.3-2.75.9-4.5 1-1.4 2.9-1.8l3.25.25q1.45.5 3.55 1.6l3.55 1.9q2.2 1.1 4.35 1.7"/><path fill="#0f141b" d="m14.45 196.05 2.95-.1q1.5.4 3.65 1.8 9.4 6.15 13.35 6.85.35.1.35.85 0 .8-.35.75-4.9-.95-14.15-7-1.85-1.2-3.1-1.5l-2.15.1q-1.55.6-1.95 3.05-.45 2.9 1.5 5.7.2.3-.55.25-.7-.05-.9-.35-2.15-3.2-1.55-6.45.55-3.05 2.9-3.95m30.4 48.35q.65-1.15 3.65-4.9 3.5-4.35 5.25-5.75.25-.2.8.25t.3.65q-1.5 1.2-4.55 5.3-2.35 3.1-3.75 5.35-3.85 6.15-7.7 7-2.7.6-5-1.45-3.45-3.05-1.4-8.65 1.7-4.75 6.3-9.65l.8.1q.6.35.35.6-1 1.15-2.5 3.45-2.1 3.3-3.1 6.05-1.75 4.8.4 6.75 4.65 4 10.15-5.1m95.65-31.7q-2.3.8-9.1 7.75l-6.7 7.1q-.7.7-1.1.65-.4-.1-.9-1.1l-2.55-5.5-2.85-6.85q-1.9 1.1-7.6 6.35l-5.75 5.3-1 .55-.75-1q-1.45-2.9-3-8.9-1.7-6.45-1.4-9.05.05-.25.85-1 .85-.75.85-.55 0 2.95 1.5 9.95 1.4 6.6 2.25 8.45 3.05-3.35 7.15-7 4.6-4.15 6.7-5.2 1.1-.45 1.55.3l5.15 13.15q3.5-4.15 5.95-6.75 6.1-6.4 10-8.4l1-.35q.4 0 .95.7l5.9 7.1q5.7 6.5 8.9 8.4l5.3-8 5.25-8.45q.4-.7 1-.65l.75.3q3.75 2 7.95 7.2 3.05 3.7 5.25 7.6 1.55-1.2 4.1-5.5 3.45-5.7 6.2-13.25.15-.4.65-.5 1.05-.1 3.55 2.5 2.75 2.85 4.55 6.3l-.15.85-.35.45q-1.7-2.85-4.15-5.4-2-2.1-3.05-2.65-1.4 4.95-3.85 9.65-3.05 5.7-6.7 9l-.95.65q-.45.05-.95-.8-1.9-2.95-4.4-6.15-4.95-6.35-8.3-8-2.05 3.7-6.2 9.85l-4.65 6.5-.8.45q-.25 0-.8-.35-3.75-2.3-8.5-7.35-4.3-4.55-6.75-8.35m-10-89.05q-2.5.35-4.1 0-1.75-.35-1.95-1.55-.3-2.35 5.4-3.25 2.5-.3 4.1.05 1.75.4 1.95 1.55.3 2.45-5.4 3.2"/></svg>