<svg xmlns="http://www.w3.org/2000/svg" width="200" height="207" viewBox="-1.35 -0.4 200.25 206.75"><path fill="#00a9db" d="M122.2 11.5q3.75 2.7 5.7 6.55 2.05 4 1.35 7.9 5.15.3 8.75 5.45 3.5 5.05 2.45 10-1.75 8.5-7.75 12-6.05 3.45-14 .4-1.6 2.5-6.3 4.1-4.9 1.65-9.25.85 2.85 1.7 6.6 5.95 3.65 4.2 4.6 6.8 5.05-10.35 15.85-15.9 10.95-5.6 19.7-1.8 5.6 2.45 8.45 9.5 2.6 6.5 2.1 14.55-.75 11.3-8.05 22.3-7.6 11.45-19.4 18.1-5.25 2.95-12.8 2.25-8.7-.8-13.45-6.6-1.55 2.55-7.65 5.7-5.55 2.85-9.6 3.7-28.25 5.65-45.3-6.35-15-10.5-15.85-29.3Q28 80 32.5 72.1q4.35-7.8 11.15-12.15 8.15-5.15 21.6-8.35-5.2.25-9.1-1.35-3.8-1.55-5.4-4.55-5.6.4-9.5-2.95-3.55-3-4.45-7.85t1.25-8.95q2.4-4.5 7.65-6.15 0-5.3 3.45-9 3-3.2 7.95-4.45 4.65-1.2 9-.2 4.55 1.05 6.6 4 2.1-4.15 6.5-6.6Q83.4 1.2 88.35 1q5.05-.2 9.1 2 4.35 2.4 6.25 7 9.6-4.75 18.5 1.5"/><path fill="#00a9db" d="M7.05 84q-1.3-12.1 2.3-21.95Q13.4 50.9 22 49q5.6-1.2 12.75 3.05 6.6 3.95 8.2 8.25-12.9 9.3-14.4 24.75Q27 101.45 40.1 114q-13.15 5.9-22.95-5.15Q8.8 99.4 7.05 84m59.9 40.8q6.7.75 14-.15 6.25-.75 12.1-2.55l9.85 8.35q-2.05-.35-3.85 1.25-1.75 1.55-1.6 3.25l-1.75-1.4 1 2.65q-3.2-1.1-6.1.55-2.5 1.4-3.65 4-1.9-3.1-5.8-3.55-4.1-.45-6.25 2.85-1.2-1.55-2.75-2.8 0-3.45-1.05-6.8l-6.55 10.1q0-2.3-1.85-4-1.75-1.65-3.75-1.5zm101.4 21.4q-2.25-4.25-.85-8.8 1.5-4.85 6.4-6.7 5.8-2.2 10.9 1.6 5.5 4.1 3.05 11.75 4.95 0 7.7 4.35 2.4 3.8 1.8 8.05-1.1 7.4-8.2 9.3-6.6 1.75-10.85-2.15-2.7 4.35-6.45 8.35.1-2.55-1.6-3.9-1.7-1.3-3.75-.55l1.6-1.8q-3.45-.1-6.45-2.7-3.2-2.75-3.65-6.7-.45-4.15 2.6-7.15 3.05-3.05 7.75-2.95"/><path fill="#bbe1e8" d="M36.3 66.35q-7.85 7.45-7.5 21.75.35 13.8 7.6 21.8-2.7 1.25-6.2.85-4.25-.5-7.55-3.45-4.2-3.85-4.2-9.2-.05-5.5 4.55-7.3-8.4-5-9-16.2-.2-4.5 1-8.5 1.15-3.85 3.05-5.6 3.75-3.4 9.1-1.7 5.4 1.65 9.15 7.55m79.7 20.5q-.3-2.9 1.3-6.35 3.75-8.1 13.15-13.2 9.85-5.3 15.5-.85 6.3 4.95 4.3 14.95-2.1 10.45-11.9 15.55 1.75 5.35-.6 9.75-2.1 3.95-6.8 6-4.55 2-9.45 1.4-5.25-.7-8.6-4.2-.8-.85-.85-1.6-.1-.8.65-2 4.4-7.35 3.3-19.45"/><path fill="#fcd25b" d="M90.15 89.2q5.95 2.1 9.2 6.25 3.35 4.3 3.25 10.1-.15 5.7-4.15 10.5-3.7 4.5-10.15 7.6-16.75 3.15-30.4-.45-16.9-4.45-25.25-18.75-.85-4 .85-7.35 1.5-2.9 4.15-4.2 2.45-1.2 4.5-3.35 2.15-2.25 3.25-5.1.9-2.25 3.25-5.85l4.4-6.9q2.45-4.15 7.35-4.05 4.85.1 7.8 4.05 5.55 7.35 10.55 11.3 4.9 3.9 11.4 6.2M50.6 142.15q3.15.1 5.25-2.65l3.05-4.25q2.3-.55 4.05 1.4 1.6 1.7 1.6 3.9-6.85 9.8-9.3 12.45-1.35 1.5-8.25 6.45l-11.2 7.7q-.05 2.05.55 5.7.3 1.85-1.85 3.15-2.05 1.15-4.4.85-2.25-.35-3.85-2.9-2.75 4.45-8.8 6.4-6.2 2-11.2-.2-3.95-1.75-5-6.75-1-4.95 1.5-10.25 4.8-9.95 18.6-15.85 13.45-5.75 29.25-5.15m21.55-4.9 2.75 2.8q1.9-3 5.75-2.9 4 .15 6.3 3.6 1.55-3.35 4.4-4.5 2.45-1.05 5.4-.3 2.3 4.35 3.95 12.85 1.45 7.3 1.45 11.5 4.35 1.7 9 6.05 4.95 4.6 7 9.35 2.1 4.7 1.35 10.8-.75 5.8-3.45 8.7 2.15 1.7 3 4 .95 2.45-.3 4-1.3 1.55-4.3 2.1l-6.3-.15q-2.35-.45-3.05-3.25-.7-2.75.8-4.9.8-1.25.5-2.9l-1.3-3.8q-1.2-3.2-1.8-4.15-1.1-1.85-9-8.7-1.2-1.1-2.7-.95-4.65.35-15-1.4-2.2 1.5-4.65 3.55l-3.1 2.85q-.8.95-.3 4 .5 3.2 2.05 5.2 2.25 3 .55 5.35-1.9 2.65-8.4 3.55-3.6.5-6.35-.7-2.55-1.15-2.65-2.85-.1-1.45 1.75-3.1 1.65-1.5 3.45-2.1-2.75-1.95-4.45-4.85-2.05-3.4-2.25-7.45-.2-3.9 3.6-9.25 4.35-6.15 10.9-8.65 3.4-1.25 3.75-2.6 1.05-4.25 1.5-10.6.35-5.55.15-10.2"/><path fill="#fcd25b" d="M166.75 167.4q2.55-.25 4.05 1.2 1.3 1.3 1.25 3.15-6.75 8.35-22.65 11.85-16.55 3.65-29.7-1.35-.3-4.65-2.35-7.95 19.3 4.7 31.3 2.6 10.45-1.85 18.1-9.5"/><path fill="#0094bf" d="M140.3 42.4q-1.4 7.1-7.25 10.85-6.55 4.15-14.2.25-1.75 2.5-6.55 4.4-5.65 2.25-10 .75-3.3-2.9-4.5-5.4-1.2-2.55-.55-5.3-5.25 2.5-13.6.95-8.5-1.6-10.9-5.8-2.4 6.8-7.8 8.35-4.2.45-7.95-.8-4.5-1.5-6.2-4.95-5.5.35-9.75-3.1-5.3-4.3-4.4-12.2.3 5.6 7.55 7.65 6.9 1.95 11.2-1.1 4.4 1.75 10.15.05 6.4-2 8.75-7.2 3.2 3.7 10.3 4.75 7.7 1.1 13.6-2.25 1.35 4.45 6 7 4.25 2.3 9.45 2.3 2.75 4.55 12.2 5.25 9.9.7 14.45-4.45"/><path fill="#0094bf" d="M50.6 33q3.9 2.3 11.1.65 7.45-1.8 10.65-6.3l1.65 2.2q-.65 3.15-3.8 5.4-2.95 2.1-7 2.75-9.45 1.5-12.6-4.7"/><path fill="#0094bf" d="M86.85 34.7q-10.9-.5-14.5-7.35 3.4 3.2 14.4 3.85 10.5.6 14.6-1.5-3.85 5.45-14.5 5"/><path fill="#0094bf" d="M101.9 29.65q1.1 3.95 6.2 7.45 4.9 3.4 10.1 4.05-6.4.8-11.65-.95-6.7-2.2-8.35-7.9 1.5-.65 3.7-2.65m23 90.55q-11.65 1.05-18.15-6.45-2.15 2.65-7.15 5.6-5.8 3.4-10.3 3.75 5.85-2.75 10.05-8.25 2.4-.85 3.65-1.45l2.85-1.55q13.85 8.5 30.5-1.15 14.4-8.3 22.25-23.5-3.15 12.75-14 22.75-10.15 9.35-19.7 10.25M6.75 79.3Q7.5 86 11.9 94.9q4.95 10 9.6 11.25 2.6 3.15 6.55 4.2l8.25-.3q.75 1.1 3.8 4.05-13.25 6.3-23.4-5.75Q7.35 97.2 6.75 79.3"/><path fill="#d9b64f" d="m63.8 121.45 20.5-.7q9.95-1.85 15.05-5.9-.95 1.55-4 4.25-3.3 2.95-5.65 3.9-20.15 5.5-38.05-2.05-7.5-3.15-12.75-8-5-4.65-6.6-9.5 2.95 7.75 12.05 12.55 8.1 4.25 19.45 5.45m-7.75 17.9 3-4.15q2.25-.3 4 1.45 1.6 1.65 1.6 3.7l-5.45 7.75q-4 5.05-6.25 6.95 2.45-3.15 3.35-8.25.85-4.85-.25-7.45"/><path fill="#0094bf" d="M74.9 140.2q-.9-1.3-2.75-2.7-.2-3.6-.85-7l-6.65 9.85q-.05-1.8-1.4-3.4-1.65-1.9-4.2-1.75l8.25-10.6q6.45.55 14.05-.1 8.35-.7 12.25-2.4l5.45 4.7q-1.35 1-2.25 3.05-.95 2.05-.75 3.9l.95 2.1q-3.65-.65-6.3.7-2.5 1.3-3.65 4.2-2.05-3.4-6.05-3.7-4.1-.3-6.1 3.15"/><path fill="#d9b64f" d="m72.2 142.4-.05-4.9q1.85 1.4 2.75 2.7 2-3.45 6.1-3.15 4 .3 6.05 3.7 1.15-2.9 3.65-4.2 2.65-1.35 6.3-.7l1.35 4.05q-3.95 2.9-13 3.8-9 .85-13.15-1.3m1.8 28.45q1.05-.15 3.35.6l7.6 1.25 7 .25q3.45-.5 5.25 1.3l3.65 3.8L104 181q5.6 4.3 10.6.8 1.9-1.35 2.8-3.4.95-2 .3-3.4 2.9 3.65 2.1 10.55-.9 7.4-5.6 11.2-3.15-.05-5.35 1.7-2.15 1.7-1.05 3.45.85 1.35 5.55 1.05 4.9-.3 6.05-2.25 0 2.35-1.85 3.55-1.45.9-4.3 1.15-3.55.3-5.9-.65-2.15-.9-2.35-2.5-.15-1.25.15-2.8.3-1.65.9-2.35 1.05-1.3.55-2.85-2.05-6.2-3.15-7.95l-4.15-4.35-4.75-4.35q-1.25-.95-3.4-.95-10.5-.4-14.25-1.8-2.65 1.85-5.1 3.9-2.5 2.05-3.15 2.95-.7.9-.15 3.75t1.75 4.45q1.35 1.8 1.55 3.6.2 2.05-1.4 3.1-3.4 2.3-7.7 3-5.05.75-7.9-1.55-.9-.7-1-1.9t.7-2.25q1.85 2.25 6.45 2.6 4.45.3 5.85-1.55.85-1.2-1-2.35-2-1.25-4.95-.6-4-1.85-6.75-6.7-3.2-5.6-1.15-10.15-.65 3.8 3.1 5.35 3.55 1.5 6.4-.35 3.5-2.2 9.05-7.9 1.3-1.25 2.5-1.4m-48.55 1.35.85 1.3q-1.8 3.7-7.05 6.05-5.75 2.65-11.1 1.25-4.15-1.05-6.1-5.45-2.25-5 .3-11.1-.75 4.9 1.3 8.15 1.9 2.95 5.6 3.85 3.65.85 7.75-.65 4.4-1.5 7.9-5.2.1.95.55 1.8"/><path fill="#d9b64f" d="M25.4 168.65q.55 2.6 2.1 4.3 1.45 1.6 3.05 1.5 2.7-.15 3.75-1.8 1.2-1.8 1.35-6.45 0 2.55.5 6.25.1 2.85-2.3 3.65-4.4 1.5-6.6-.85-1.95-2.05-1.85-6.6m145.35.05q1.1 1.05 1.4 2.85-6.05 5.65-14.1 9.3-9.15 4.1-18.05 4.15 2.15-2.05 3.4-4.7 7.25.2 14.75-3.15 6.85-3.05 12.6-8.45"/><path fill="#0094bf" d="M178.25 163.95q-1.9 3.7-6.1 7.6-.3-1.8-1.4-2.85 3.55-3.35 6.05-6.95zm-9.8 1.7q-3.65.4-6.95-2.65-3.7-3.4-3.2-8.45.4 3.35 5.15 5.55t8 .7l-1.55 2.6z"/><path fill="#0094bf" d="M176.5 160.8q5.75 3.45 12.65 1 6.95-2.5 7.9-8.5.75 4.35-1.25 7.75-1.75 2.95-4.8 4-4.55 1.6-8.15.8-4.3-.9-6.35-5.05m-9-22.75q1 4.3 7.2 5.9 5.05 1.35 10.2.25-6.15 1.55-8.05 6.65-3.9.4-7.2-3.15-3.7-4-2.15-9.65"/><path fill="#d9b64f" d="m118.8 177.1 2.05-2.35 1.1 3.7q1.45 3.9 3.25 4.7l-3.3-.5-2.1-.55-.35-2.7q-.3-1.95-.65-2.3"/><path fill="#0d131a" d="M72.85 43.8q-2 7.7-13.4 10.35Q45.05 57.5 36.9 67q-7.15 8.35-7.4 18.55-.4 15.7 9.5 26.2t26.75 12.15q13.35 1.25 24.35-1.65 11-2.95 16.2-9.1l.9 1.25q-6.5 7.6-20.45 10.25-10.25 1.95-21.1.95-19.1-1.85-29.45-14.35-9-10.95-8.65-25.75.3-10.45 8.05-19.35 8.75-10.1 23.55-13.55 5.75-1.35 8.5-3.4 2.45-1.85 4.25-5.7.4-.85.8-.75t.15 1.05m24.85 4.75q-.7 5.55 6.15 10 3.4 2.2 6.5 5.4 3.45 3.55 4.7 6.6l-1.25 1.95q-.9-3-4.3-6.95-3.2-3.7-6.55-5.9-3.8-2.45-5.45-5.35-1.6-2.95-.8-5.95.3-1 .7-.9t.3 1.1"/><path fill="#0d131a" d="M111 79.05q4.8-17.9 19.25-24.7 5.95-2.8 12.1-2.8 5.95.05 10.2 2.65 7.9 4.85 8.75 18 .8 13.25-6.15 25.65-7.85 13.8-20.1 19.85-10.65 5.3-19.45 2.75-3.65-1-6.25-3.15-2.5-2.05-3.7-4.8-.35-.8 0-.95.4-.15.9.6 3.15 4.9 9.45 6.75 7.75 2.25 17.9-2.9 11.8-6 19.6-19.2 6.55-11.1 5.7-23.95-.8-12.6-7.8-16.95-8.85-5.55-20.85.55-13 6.65-18.6 22.85-.35 1.15-.8 1-.45-.1-.15-1.25"/><path fill="#0d131a" d="M115.95 81.65q5.7-11.2 15.05-15.8 8.75-4.3 14.95-.35 3.05 1.95 4.5 6.25 1.4 4.25.75 9.15-1.6 11.7-12.05 16.25 1.8 3.6.15 8.05-1.75 4.75-6.6 7.65-4.6 2.75-10.6 2.25-6.6-.5-10.25-4.9-1.3-1.6-.45-3.1 5.55-8.9 3.7-21.25-.25-2.05.85-4.2m1 15.65q-.8 5.2-4.05 10.2-.7.9.2 1.85 3.5 3.65 9.25 4.05 5.4.4 9.7-2.1 4-2.3 5.65-6.5 1.7-4.25-.05-7.65l-.15-.5.4-.35q9.7-4.05 11.45-15.15.7-4.6-.45-8.55-1.15-4-3.8-5.75-5.85-3.85-14.3 1-8.4 4.8-13.5 14.65-.8 1.55-.65 3.3.95 6.95.3 11.5M35.7 67q-3.65-5.25-7.85-7.15-4.15-1.85-7.7.15-3.2 1.85-4.6 6.3-1.25 4.1-.65 9.2.55 5.05 2.7 9 2.3 4.3 5.65 5.8l.5.55-.5.55q-2.2.95-3.25 3.05-1.05 2-.8 4.7.6 6 6.15 9.1 5.35 3.05 10.6.95l.85 1.05q-5.95 2.7-12.2-.7-6.4-3.5-7.1-10.25-.3-2.8.85-5.15 1.15-2.3 3.35-3.3-3.5-1.9-5.9-6.4-2.2-4.25-2.7-9.45-1.15-12.05 6.3-16.35 4.15-2.4 8.85-.35 4.6 2 8.35 7.65z"/><path fill="#0d131a" d="M7.9 80.95q1.15 16.05 9.05 26.5 4.3 5.65 10.7 7.3 6.4 1.7 12.15-1.3l.95 1.15q-5.4 3.25-12.75 1.75-7.8-1.6-12.5-7.7Q7.35 97.85 6.05 81 4.7 63.2 12.8 53.5q6.15-7.35 15.35-5.4 9.1 1.95 15.6 11.75l-1 1.15q-6.35-9.05-14.6-10.85T14.4 54.9q-7.75 9.2-6.5 26.05"/><path fill="#0d131a" d="M80.1 104.75q.55-.8.95-.6T81 105.2q-2.4 4.7-10.4 5.25-7.9.6-13.3-3.2l-.55.05q-4.15 3.35-9.05 2.7-5-.65-6.45-5.05-.25-.8.1-.95.4-.15.8.55 2.05 3.8 6.5 4.05 4.15.2 7.8-2.75.4-.35 1.05 0 5.5 3.5 12.55 3.25 7.2-.25 10.05-4.35M57.75 93.2q0 .65-1.45.6t-1.45-.7 1.45-.6 1.45.7M51.5 45.5q1.1 3.1 6.15 4.6 5.15 1.55 9.65-.1l-3.05 1.95q-4.3.9-8.75-1Q50.95 49 50 45.8z"/><path fill="#0d131a" d="M45.55 20.55Q41 21.9 38.8 26.85q-2.4 5.4.15 11.5 1.9 4.5 7.3 6.05 5.6 1.6 10.5-1.35l.95-.05q.25.35-.4.85Q52.7 47.7 45.95 46q-6.7-1.65-8.95-7-2.75-6.6.1-12.85 2.75-5.95 8.35-7.2z"/><path fill="#0d131a" d="M72.2 11.2q-2.15-3.25-6.8-4.3t-9.55.65q-5.8 2-8.15 7.1-2.2 4.8-.4 9.65.3.8-.05 1-.35.25-.75-.4-2.8-4.9-.55-10.75 2.45-6.35 9.3-8.7 5-1.7 10.05-.45 4.9 1.15 7.75 4.6z"/><path fill="#0d131a" d="M89.35 2.15Q84 1.75 79.15 4.7q-5.4 3.3-7.05 9.05-.25 1-.7.9t-.3-1.1Q72.25 6.8 78.1 3 83.35-.4 89.5.05q6.45.5 10.7 4.1 4.3 3.6 4.95 9.3.1.95-.3 1.05-.4.05-.7-.85-1.75-5.4-5.2-8.15-3.6-2.9-9.6-3.35"/><path fill="#0d131a" d="M123.6 14.05q-4.2-4.3-10-4.9-5.15-.6-9.65 1.8l-.6-1.5q4.8-2.7 10.75-2.15 6.55.65 11 5.2 4.2 4.25 4.9 9.9.75 6.05-2.95 10.95-.55.7-.9.45t.1-1.05q2.75-5.4 1.8-10.45-.85-4.6-4.45-8.25"/><path fill="#0d131a" d="M129.6 25.25q7.85 1.15 10.65 9.15 2.75 7.9-1.9 14.9-4.15 6.35-12 6.8-7.95.45-12.6-5.85-.55-.75-.2-1.05.3-.25.95.4 5 5.15 11.5 4.95 6.75-.25 10.75-6.35 4.4-6.7 1.65-13.65-2.65-6.7-9.05-7.8z"/><path fill="#0d131a" d="M119.45 54.2q-2.55 3.4-7.75 4.9-4.65 1.35-7.9.45l-2.5-2.4q4.8 1.95 10.25.25 4.5-1.45 6.45-4zM74.9 30.5q-3.15 6.75-11.6 7.95T50.5 33.9q-.55-.7-.2-1 .3-.3.95.35 4.55 4.7 11.8 3.6 7.45-1.15 10.6-7.7z"/><path fill="#0d131a" d="M86 35.6q-9.75-.8-13.65-7.6-.4-.7-.05-.95.4-.25.9.4 4.2 5.45 13.1 6.2 8.95.75 14.55-4 .7-.6 1.05-.25.3.35-.35 1Q95.7 36.3 86 35.6"/><path fill="#0d131a" d="M99.05 31.7q1.2 4.8 6.55 7.3 5.15 2.45 11.65 1.7 1-.1 1.1.3t-.9.65q-5.65 1.45-11.4-.5-6.85-2.3-8.7-8.5zM51.35 143q-24.4-1.45-40 11.5-6.5 5.4-8.7 11.45-2.2 6.15.75 10.6 3.15 4.85 10.7 3.85 7.75-1 11.65-7.4l1.1 1.45q-4.1 6.75-12.65 7.75t-12.25-4.75Q-1.35 172.3.8 165.7q2.15-6.55 8.85-12.2 7.1-6.05 17.3-9.25 11.3-3.5 24.25-2.75l1.35-.05.85-.65 13-16.2 1.3.25-13.15 17.1q-1.05 1.25-3.2 1.05"/><path fill="#0d131a" d="M37 172.6q.35 2.1-1.6 3.6-1.9 1.5-4.75 1.5-2.95.05-4.7-2.9-1.65-2.85-1.15-6.25.15-.85.6-.8.4 0 .4.85 0 2.95 1.45 5.25 1.5 2.35 3.5 2.3 2.45-.05 3.75-1.1 1.15-.95 1-2.3-.4-2.95-.45-4.4-.1-2.05.3-3.95.15-.8.6-.75.4.1.4.9-.1 3 .65 8.05"/><path fill="#0d131a" d="m71.3 131.35-7.4 11.5q-5.2 7.65-7.45 10.1-2.1 2.25-8.4 6.75l-12.2 8.3-.15-2.1 11.7-7.85q5.95-4.15 7.9-6.25 2.4-2.6 7.95-10.6 5.25-7.55 7.55-11.5z"/><path fill="#0d131a" d="M64.1 141.05q-.1-2.65-1.65-4.1-1.6-1.45-3.95-.95l.75-1.1q2.35-.4 3.95 1.05 1.6 1.4 1.7 3.75zm8.8 1.1q-.05 9.45-1.55 15.35-.5 2.15-2.6 2.9-6.7 2.35-11.4 8.35-4.15 5.25-4.35 9.8-.15 3.05 1.95 6.7 2.2 4 5.8 6.25.75.45.45.8l-.95.05q-4.05-1.85-6.75-6.1-2.55-4.1-2.3-7.75.4-5.75 5.1-11.3 4.85-5.7 11.95-8.2 1.35-.55 1.6-1.9 1.35-6.2 1.6-15.1.25-10-1.5-12.8-.5-.8-.1-1.05.45-.3.95.5 2.15 3.1 2.1 13.5"/><path fill="#0d131a" d="M54.55 192.95q1.5-1.5 4-2.3l1.2 1q-2.15.4-3.8 1.9-1.55 1.4-1.55 2.45.05 1.3 2.05 2.2 1.95.9 4.7.9 2.25 0 5-.9 3.1-1.05 4.3-2.5.9-1.1.75-2.4-.15-1-.9-1.85-1.85-2.05-2.55-5.75-.7-3.6.4-4.7 2.6-2.6 8.25-6.3l1.65.55q-5.3 3.5-8.5 6.7-.8.8-.3 3.85.55 3.2 2.05 4.85 1.15 1.3 1.3 2.8.15 1.7-1.1 3.2-1.4 1.65-4.85 2.75-3.05 1-5.5 1-3.25 0-5.45-1.05-2.5-1.15-2.55-3.3-.05-1.6 1.4-3.1"/><path fill="#0d131a" d="M60.8 197.5q0 1.6 1.2 1.6l-1.8.65q-.9-1.1-.6-2.8.3-1.75 1.6-2.65l.8-.15q.25.3-.3.8-.9 1-.9 2.55m-4-.85q-.2 1.45.8 1.95l-1.9-.1q-.5-1.4.05-2.75.5-1.3 1.85-2.15l.8-.1q.25.3-.3.7-1.1 1-1.3 2.45m18.4-22.9q2.6 1.15 8.25 1.7l8.5.3q1.55-.05 2.8 1.05l5.15 4.8q3.55 3.5 4.1 4.35l1.65 3.9 1.4 4.45.2 1.5-.55 1.25q-1.55 2.1-1.15 4.35.4 2.1 2.15 2.85 2 .85 5.2.65 3.4-.2 4.75-1.55t.9-3.45q-.55-2.35-3.05-4.1l.75-.85q3.1 1.9 3.7 4.85.55 2.85-1.4 4.65-1.7 1.55-5.85 1.75-3.7.15-5.6-.65-2.5-1.1-2.9-3.95-.35-2.7 1.4-5.15.5-.7.2-1.85l-1.55-4.3-1.65-3.6-3.7-3.95-4.95-4.7-1-.75-1-.15-8.8-.4q-5.9-.75-8.4-2.1-.75-.4-.5-.8z"/><path fill="#0d131a" d="M109.85 204.75q.65.05.5-1.75-.1-1.45-.6-3.05-.25-.8.1-.9.4-.15.85.55.75 1.25 1 3 .3 1.9-.3 2.85zm5.1-.15q.8-.25.6-1.85l-.8-3.1q-.3-.75.05-.95.35-.15.85.5.85 1.2 1.1 2.85.3 1.5 0 2.8zM96.6 134.25q2.35 4.4 4.35 12.35 2.05 8.1 1.95 12.8 6 2.95 9.95 7.15 2.4 2.5 5.05 6.9 3.55 5.65 2.45 13.4t-5.8 10.1l-1 .05q-.25-.4.5-.9 3.7-2.45 4.7-9.4 1.05-7.25-2.25-12.55-2.45-3.95-4.9-6.35-3.8-3.75-9.85-6.8-.4-.25-.4-.65.25-5.15-2.1-14.6-2.45-9.85-5.1-13.25z"/><path fill="#0d131a" d="M80.75 136.55q4.05.15 6.15 3.15.9-2.7 3.8-3.85t5.8 0l.45 1-5.55.15q-2.8 1.15-3.7 3.45l-.55.8q-.25.05-.85-.6-2.35-2.65-5.8-2.7-3.4-.05-5.05 2.35l-.45.4-.45-.4q-.85-1.1-2.4-2.05L72 136.6q1.75.9 2.9 2.65 1.85-2.85 5.85-2.7m98.05 27.4q-8 15-27.4 20.1-17.25 4.5-31.55-.75v-1.95q16.3 5.8 33.35.5 17.15-5.3 24.6-18.75z"/><path fill="#0d131a" d="M162.4 172q-8.65 6-18.3 6l.5-1.7q9.1-.1 17.1-5.6 6.75-4.65 9.7-10.7.5-1 .9-.8.4.15 0 1.2-2.15 6.25-9.9 11.6"/><path fill="#0d131a" d="M171.45 172.05q.5-2-1.4-3.4-1.9-1.45-3.95-.45l1.05-1.1q2.15-.6 3.8.7 1.6 1.3 1.4 3.3zm-2.55-24.8q-3.85-.5-6.6 1.45-2.9 2.05-3.25 6-.3 4.15 2.55 7.2 2.9 3.1 7.35 3.15l-1.15 1.05q-4.65.1-7.8-3.3-3.1-3.4-2.75-8.2.35-4.45 3.65-6.85 3.05-2.2 7.25-1.75z"/><path fill="#0d131a" d="M187 144q2.35-6.15-2.2-10.65t-10.8-2q-5.65 2.25-6.1 8.7-.5 6.3 4.1 9 .9.5.65.9-.2.35-1.05 0-5.8-2.35-5.4-9.85.4-7.6 7.15-10.25 7.3-2.85 12.55 2.3t2.35 12z"/><path fill="#0d131a" d="M196.2 148q2.7 3.9 2 8.8-.75 4.75-4 7.45t-8.2 2.7q-3.4 0-6.1-1.45-2.65-1.5-3.45-3.85-.3-.85.05-1 .3-.15.75.65 1.15 2 3.4 3.05 2.25 1.1 5.2 1.1 4.2.05 7-2.35t3.55-6.6-1.75-7.7q-2.4-3.45-6.15-3.95-3.6-.5-6.65 1.15-3.1 1.65-4.3 4.8-.4 1.1-.8 1-.4-.05-.15-1.2.85-3.8 4.25-5.8t7.85-1.45q4.75.65 7.5 4.65m-93.85-49.45q2.5 5.35.65 11.55-1.2 4.1-4.65 7.5-3.4 3.3-8.5 5.5l-4.45.65q6.25-2.1 10.6-5.95 4.25-3.8 5.5-8.1 1.65-5.55-1-10.85-2.95-5.9-10.05-8.6-2.75-1.05-6.2-2.8-4.85-2.5-7.4-4.75-5.05-4.4-8.8-9.85-3.35-4.9-7.7-4.85-4.25.05-7.25 4.55-5.45 8.25-7.25 13.35-.75 2-2.6 4.1t-3.6 2.95q-7.95 3.95-5.7 13l-2.15-3.15q-.4-3.65 1.3-6.4 1.65-2.75 5.65-4.85 1.75-.9 3.4-2.55 1.8-1.8 2.45-3.55Q46.6 80 52 71.8q3.95-5.95 9.1-5.45 4.6.4 8.45 5.65l3.55 4.65q2.2 2.65 4.7 4.85 2.4 2.1 7.05 4.65 3.95 2.15 6.5 3.1 8.1 3.1 11 9.3"/><path fill="#fcd25b" d="M102.9 130.45q4.9 4.7 8.55 7.3 2.65 2 3.95 2.05 7.85.45 16.9 7.95 11.3 9.35 12.45 22.75.55 6.25-1.75 10.65-2.75 5.25-8.65 5.3-5.4.05-9.05-3.1-3.8-3.25-4.55-8.85-1.4 2.75-4.05 3.55-2.4.75-4.55-.4-1.3-.7-1.4-2.6-.1-1.8.85-3.05.9-1.15 1.85-3.45.95-2.45 1.5-5 .55-2.5-1.3-8.5-1.7-5.6-3.3-7.75-3.05-4-12.9-12.35-.05-2.15 1.75-3.45 1.65-1.15 3.7-1.05"/><path fill="#fff" d="M38.4 96.4q-3.2-.05-4.4-5.7-.9-4.3-.45-10.4.3-4.75 3.3-9.7 3.1-5.1 5.9-4.75 3.35.4 4.35 5.15.75 3.75.2 10.8-.45 5.15-2.8 9.6-2.65 5.05-6.1 5m48.05-34.05q3.9.05 6.9 4.4 3.25 4.65 3.45 11.9.25 6.85-2.7 11.7-3.1 5.2-8.35 5.25-4.95.05-7.6-3.95-2.35-3.7-3-11.05-.55-6.6 2.3-12.05 3.2-6.2 9-6.2"/><path fill="#d9b64f" d="M111.5 172.2q-.95 2.35 2.95 3.2 4 .8 6.4-1.65-.45 2.5-3.4 3.85-2.7 1.2-4.65.45-1.75-.7-2.15-2.55t.85-3.3m16 12.4q-5.15-3.05-6.6-10.55 2.7 4.7 7.05 7 4.05 2.15 8.05 1.5 4.05-.7 6.35-4.1 2.45-3.75 1.9-9.7.9 6.75-1.15 11.7-2.35 5.7-7.7 6-4.45.25-7.9-1.85"/><path fill="#0d131a" d="M93.35 121.9q14.6 11.05 19 15.1l1.4 1.2q.7.5 1.85.7 7.5 1.35 13.85 5.55 6.2 4.05 10.65 10.4 5.3 7.5 5.5 17.5.15 10.45-5.85 13.7-5.75 3.15-12.35-.4-6.5-3.5-7.05-9.7-2.05 3.3-6.2 3.15-3.05-.05-4.05-2.5-.95-2.3.4-4.15 1.1-1.55 2.15-4.3l1.4-4.55q.5-2.4-.95-7.6-1.3-4.8-3-7.7-1.25-2.2-7.7-8.05-5.7-5.1-12.3-10.35-.95-.75-.65-1.15.3-.35 1.25.35 5.1 3.7 11.45 9.15 7.75 6.7 9.35 9.45 1.75 3.05 3.1 8.15 1.45 5.45.9 8l-1.45 4.85q-1.15 2.85-2.35 4.5-.95 1.35-.2 2.85.8 1.55 2.7 1.6 4.1.15 6.1-3.9.25-.55.6-.45.35.05.35.65.15 6.05 6.35 9.8 6.25 3.8 11.45.6 5.15-3.15 4.75-12.75-.4-9.15-5.15-15.9-9.05-12.8-23.25-15.35l-2.25-.75-1.6-1.25-9.95-8.35q-6.3-5.15-9.6-7.55z"/><path fill="#0d131a" d="M103.65 131.1q-2.55-.35-4.25 1.15-1.65 1.45-1.2 3.25l-1.2-.9q-.3-2.05 1.35-3.4 1.65-1.4 4.2-1.2zm-67.5-61q3.2-5.2 6.55-4.95 3.3.25 4.7 4.75 1.45 4.6.55 12.4-.75 6.7-3.65 10.9-2.8 4-5.95 3.75-3.15-.3-4.8-4.8-1.8-4.7-.95-11.85.6-5.4 3.55-10.2m2.25 25.5q2.6.15 4.8-3.25 2.35-3.75 3.1-10.2.85-7.45-.3-11.7-1.05-3.85-3.4-4-2.65-.15-5.35 4.8-2.45 4.55-3 9.2-.75 6.5.5 10.85 1.2 4.2 3.65 4.3"/><path fill="#0d131a" d="M33.85 81.6q2-6.6 6.9-6.2 4.8.35 6.55 6.25l-.1 2.4q-2.4-7.2-6.65-7.45-4.3-.25-6.9 7zm51.1 14.65q-4.8-.15-7.75-4.85-3.15-5-2.85-13.25.3-7.6 3.75-12.2 3.4-4.6 8.5-4.25 4.85.35 8.05 5.4 3.15 5 3.05 12-.15 8.05-3.55 12.7-3.45 4.65-9.2 4.45M86.65 63q-4.2-.3-7.15 3.7-3.1 4.25-3.4 11.5-.25 7.35 2.3 11.95 2.4 4.45 6.45 4.65 5.2.25 8.15-4.05 2.9-4.15 3-11.7.1-6.45-2.55-11.1-2.7-4.65-6.8-4.95"/><path fill="#0d131a" d="M95.75 85.7q-2.15-8.85-9.6-9.65-7.45-.75-10.65 7.5l-.3-1.95q1.55-3.7 4.65-5.6 2.95-1.8 6.35-1.45 7.85.7 10.05 9.25z"/></svg>