<svg xmlns="http://www.w3.org/2000/svg" width="215" height="195" viewBox="-1.8 -2.55 215.15 194.75"><path fill="#f9dbe1" d="M187.25 31q12 15.35 16.5 27.1 6.7 17.5 5.75 43.1-.85 23.65-13.95 43.85-6.55 10.1-12.9 15.5-2.85 11.5-4.65 17-3.95 12.25-7.05 12.85-3 .55-9.25-6.3l-5.65-7q-27.5 9.45-57.55 4.95-9.4-1.4-17.9-4l-6.65-2.35q-7.85 3.65-15.2 4.45-6.2.65-8.45-.8-1.6-1 .45-7.1l2.35-5.95q-3.5-1.6-7.8-5-8.55 1.9-16.25 1.85-8.4-.05-10.55-2.55-1.8-2.1 1-10-6.05-5.85-10.4-13.45-5-8.8-6.7-18.3Q-.75 101.1 5.15 81.9 12.3 58.8 31.3 39.5q19.3-19.6 42.95-29.25 20-8.2 42.4-9.05Q135.7.5 155.3 8.4q20.85 8.35 31.95 22.6"/><path fill="#cea6cc" d="M170.9 18.9q11.95 5.6 23.3 21 8.75 11.95 13.05 30.55 2.1 9.25 2.5 16.15-1.2-.4-3.1-2.7l-1.6-2.25q1.1 3.9.7 8.95-.35 4.95-2.05 9.25-1.95 4.9-8.9 7.2-7.9 2.65-15.8-1.15-7.1-3.45-9.95-11.75-.9-2.6-1.25-5.4l-.2-2.25q-2.5 2.35-5.45 3.7-6.15 2.8-13.3 1.25-8.2-1.95-12.7-8.8-4.8-7.3-2.75-16.8 1.8-8.25 10.6-11.75 4.4-1.8 8.45-1.9-2.05-.85-4.4-2.8-4.8-3.9-6.5-9.35-1.85-5.9.3-12.25 1.85-5.4 4.9-7.55 10.85-7.65 24.15-1.35M95.75 182.3q-4.25-2.25-4.4-6.45-.15-3.8 3.05-7.4 2.45-2.75 7.55-3.55l4.55-.3q-5.8-7.8-2.75-14.8 2.4-5.65 7.25-6.9 11.65-3.1 18.2 3.85 3.25 3.5 4.2 7.6 3.35-4.1 7-5.85 4.35-2.1 10.3-1.7 6.1.45 9.25 4.9 3 4.25 2 10-.8 4.65-5.75 8.3-2.45 1.85-4.75 2.75 2.65 1.05 3.8 2.8.6.9.65 1.55-9 4.95-32.7 6.45-22.4 1.45-27.45-1.25"/><path fill="#f09cb4" d="M24.1 77.1q4.1.35 6.5 5.7 2.25 5 2.15 12.25-.1 7.5-3.5 13.55-3.7 6.6-8.75 6.15-5.15-.45-7.75-6.3-2.5-5.65-1.95-14.7.5-7.65 4.4-12.45 3.85-4.6 8.9-4.2m148.8-36.2q5.35-2.4 9.85-.05Q188 43.6 193.3 53.2q3.5 6.4 2.55 13.75-1 7.4-5.75 9.6-3.95 1.8-9.5-.55-6.95-2.95-10.95-11.4-3.95-8.25-1.8-16 1.7-6.25 5.05-7.7m-52 138.75q-5.95-1.05-6.8-4.35-.85-3.4 3.55-6.55 4.05-2.9 9.7-3.85l9.25-.25q6.25.8 6.85 4.7.55 4-3.8 6.75-3 1.85-8.7 3.25z"/><path fill="#e85377" d="M84.75 82.6q3.25.75 4.85 4.45 1.6 3.8 1.05 9.95-.6 7.25-3.5 13.15-3.35 6.85-7.65 6.15-4.7-.75-6.2-6-1.55-5.35.4-14.6 1.55-7.35 5.1-10.9 3-2.9 5.95-2.2"/><path fill="#fff" d="M83.8 85.95q1.8.4 2.4 3.05.55 2.25.05 5.05-.4 2.35-1.8 4.1-1.55 1.9-3.2 1.55-1.75-.35-2.45-2.9-.65-2.2-.2-4.6.5-2.75 2.1-4.65t3.1-1.6"/><path fill="#d7bdc4" d="m43 147.3 4-3.3q4.2 3.15 17.65 7.6 19.15 6.35 38.8 7.35 1 2.9 3.05 5.65l-4.55.3q-5.1.8-7.55 3.55-3 3.35-3.05 7-.05 4 3.55 6.35-10.25-1.95-20.45-5.35Q66.7 179.1 59.6 180q-7.75.95-9.3-1-1.35-1.7.5-7.25l2.15-5.2q-7.3-3.95-12.55-9l-3.8-4.25q1.95-2.25 6.4-6m165.8-38.55-.6 4.05q-.95 5.1-2.55 10.4-5.25 16.9-15.45 29.4-5.85 7.15-13.95 13.1-9.3 6.9-20.35 11.3-.7-2.75-4.45-4.25 2.3-.9 4.75-2.75 4.95-3.65 5.75-8.3.55-3.25-.25-6.25-.85-3-2.9-5.1 19.25-6.7 31.8-17.65 11.05-9.65 18.2-23.95"/><path fill="#b390b1" d="M113.65 183.95q-9.1-.4-18.75-2.15-3.6-2.35-3.55-6.35.05-3.65 3.05-7 2.45-2.75 7.55-3.55l4.55-.3q-2.05-2.75-3.05-5.65 15.1.75 29.7-1.95 14.45-2.75 25.65-6.65 2.05 2.1 2.9 5.1.8 3 .25 6.25-.8 4.65-5.75 8.3-2.45 1.85-4.75 2.75 3.75 1.5 4.45 4.25-6.75 2.7-14 4.4-13.1 2.4-28.25 2.55"/><path fill="#d0879d" d="M120.9 179.65q-5.95-1.05-6.8-4.35-.85-3.4 3.55-6.55 4.05-2.9 9.7-3.85l9.25-.25q6.25.8 6.85 4.7.55 4-3.8 6.75-3 1.85-8.7 3.25z"/><path fill="#d7bdc4" d="m173.5 167.85 9.3-7.15-4.4 16.15q-4.1 13.05-7.45 13.85-3.3.8-9.4-6.3l-5.45-7.3q6.7-1.7 17.4-9.25M18.9 151.2q9.6 7.35 11.45 7.45 1.15.05 3.8-2.65l2.45-2.7 8.05 7.9q-10.8 2.8-18.45 2.1-5.2-.5-7.7-2.4-1.45-1.05-.9-4.65.3-2.5 1.3-5.05"/><path fill="#d7bdc4" d="M8.9 138.15q-2.3-4.3-3.6-8.75l-.85-3.6q3.4 6.8 11.85 13.25 13.85 10.55 29 5.35l-4.6 4.5q-4.95 4.9-6.6 6.9-1.6 1.95-2.85 2.6l-.9.25q-14.2-6.8-21.45-20.5"/><path fill="#0d131a" d="M89.3 88.8q-1.1-4.6-4-5.6-2.85-1-6.15 3.2-3.55 4.4-4.9 11.55-1.35 6.85.1 12.05 1.4 4.9 4.3 5.65 3.05.8 6.05-3.15 3.2-4.2 4.45-11.35 1.35-7.45.15-12.35m-3.5-7q3.85.9 5.35 6.85 1.4 5.55.1 12.8Q89.85 109.6 86 114q-3.7 4.15-7.85 3.05-3.95-1-5.65-6.45-1.7-5.5-.3-13 1.7-8.7 5.55-12.85 3.55-3.95 8.05-2.95"/><path fill="#0d131a" d="M82.15 82.3q.2.25-.55.8-.7.55-.9.3-1.35-1.75-1.45-4.25-.1-2.25.75-3.95.5-1 .9-.85t.15 1.25q-.35 1.5-.2 3.1.15 2.15 1.3 3.6m8.6-4.35q.65-.65.95-.2.35.45-.2 1.15-2 2.55-2.5 5.65l-.8-.05q-.75-.3-.7-.6.6-3.3 3.25-5.95M31.6 98.3Q32.7 90 30.3 84q-2.3-5.8-6.4-6.3t-7.45 3.65Q12.7 86 11.7 94.65q-.85 7.65 1.75 13.35 2.45 5.3 6.4 5.85 3.65.5 6.95-3.25 3.7-4.3 4.8-12.3M9.8 94.5q1-9.15 5.3-14.2 4.05-4.8 9.25-4 4.8.75 7.6 7.05 2.9 6.5 1.75 15.1-1.05 7.75-5.1 12.65-4 4.85-8.8 4.2-4.9-.7-7.9-6.75-3-6.15-2.1-14.05"/><path fill="#0d131a" d="M179.7 161.85q12.85-10.8 20.3-26.35 7.5-15.55 8.7-33.9 2.4-36.2-17.1-62.9t-53.65-34q-21.6-4.6-44.75.95Q70.05 11.25 49.45 26 29.95 40 17.7 58.85 5.4 77.65 3.15 97.05.9 116.6 7.8 132.8q6.7 15.5 20.15 24.15 1.6 1 2.6.65.8-.25 2.55-2.2 5.1-5.55 11.75-11.05 6.8-5.6 11.4-8.05l1.25-.05q.25.5-.6 1.1Q44 147 37.55 153.65q6 6.25 16.15 12.25l-.6 1.85q-10.8-6.45-16.6-13.05l-2.3 2.45q-1.95 2.15-3.3 2.4-1.4.25-3.65-1.1-14.55-8.55-21.7-25.05Q-1.8 116.6.6 96.35q2.3-19.7 14.9-39.05t32.35-33.5Q68.6 8.9 92.45 3.15q23.75-5.7 45.7-1.15 35.6 7.35 55.6 35.15 19.6 27.3 17.15 64.45-1.25 18.8-8.8 34.85-7.65 16.3-20.6 27.2-14.85 12.5-35 17.8-20.45 5.35-44.65 2.8-14.75-1.55-30.25-7.5l3.25-1.1q12.95 4.65 26.2 6 24.05 2.5 44.1-2.55 20.05-5 34.55-17.25"/><path fill="#0d131a" d="M61.4 153.7q.85-.65 1.2-.35.3.3-.35 1.2-5.1 7.45-8.35 13.55-4.45 8.35-3.15 10.05 1.85 2.45 13.35-.15 12.4-2.75 20.8-8.85 1-.75 1.4-.3.35.45-.65 1.25-9.25 7.5-21.75 10.3-12 2.7-14.75-1.2-2.55-3.55 3.9-14.25 5.35-8.85 8.35-11.25m-43.1-2.75q.15-.25.9.45.7.7.55.95-1 1.85-1.35 4.1-.5 2.9.65 4.15 1.6 1.75 7.45 2 7.3.4 17.35-2.05l1.1.75q.8.85.5.9-10.2 3-18.45 2.35-6.8-.55-9.05-3-1.6-1.75-1.1-5.6.4-2.95 1.45-5m163.35 10.1q.1-.3 1.2-.35t1.05.25q-1.9 13.85-5.95 22.8-3.55 7.7-6.65 8.1-3.1.35-7.35-3.2-4.55-3.8-8.75-10.65l1.5-1.4q5.7 8.25 9.7 11.45 2.85 2.25 4.55 1.8 5.1-1.45 10.7-28.8m-78.35-12.8q2.4-4.5 6.95-6.5 4.25-1.85 9.15-1.15 4.9.75 8.65 3.75 4.05 3.25 5.5 8.15 5.5-7 14.75-6.9 9 .1 13.05 6.55 3.2 5.05 1.05 11.3-2.35 6.7-9.45 9.25 3.2 1.8 4 3.6-1.45.95-1.6.6-.7-1.6-2.5-2.8l-1.65-.9-.75-.5q-.15-.4.7-.65 6.25-2.1 8.9-8.05 2.6-5.9-.5-10.75-3.65-5.8-12.2-5.7-8.9.1-13.45 7.1-.5.8-.9.55-.3-.2-.4-.75-1.15-4.7-4.8-7.9-3.35-3-7.85-3.85t-8.45.75q-4.25 1.8-6.5 6-2.35 4.45-.8 9.5 1.15 3.7 3 5.15.7.55.5.95-.15.35-.85.25l-5.45.15q-5.7 1.15-8.3 6.05-1.7 3.2-.7 6.15.85 2.6 2.95 3.35.25.1.15.8-.15.7-.45.65-.65-.1-1.8-1.05-1.4-1.2-2.15-2.7-1.95-3.9.3-8.15 3.75-7 13.65-6.85-2.6-2.75-3.15-7.2-.6-4.55 1.4-8.25"/><path fill="#0d131a" d="M116.65 170.7q-2.8 2.8-1.95 4.8 1.05 2.6 6.5 3.3 5.1.7 10.35-.6 6.3-1.55 9.25-4.35 2.5-2.3 1.9-4.5-.7-2.65-5.4-3.6l-11.05.3q-6.3 1.3-9.6 4.65m3.7 9.6q-5.65-1.1-6.95-4.4-1.1-2.65 1.6-5.85 3.4-4.1 11.25-5.75 7.1-1.5 12.35.2 4.65 1.5 5.45 4.45.7 2.8-2 5.75-3.25 3.5-10 5.15zM185 43.25q-5.05-4-9.95-2.45-4.45 1.45-6 7.05-1.55 5.55.5 12.7 2.4 8.45 8.6 13 6.2 4.6 11.8 2 4.1-1.85 4.9-8.25.7-6.2-2.05-12.9-3-7.3-7.8-11.15m-10.3-3.85q5.95-1.6 11.45 2.35 5.55 4 8.9 12.5Q198 61.8 196.5 68.6q-1.45 6.3-5.65 8.4-6.2 3.15-13.6-1.85Q169.9 70.1 167.3 61q-2.3-8.15 0-14.3 2.15-5.9 7.4-7.3"/><path fill="#0d131a" d="M171.75 18.6q4.5 2.1 7.1 4.25.25.2-.2.65-.4.45-.65.25-2.15-1.85-6.8-3.75-5.5-2.3-10.15-2.6-7-.45-12.3 3.05-6.05 4-6.95 11.6-.9 8.1 3.75 13.9 2.85 3.5 7 5.5.85.4.85.85 0 .55-1.2.5-11.4-.25-16.35 10.4-2.2 4.7-1.9 9.9.35 5.45 3.4 9.9 4.7 6.8 14.45 7.7 9.7.95 15.35-4.7.75-.8 1.05-.45l.2.9q1.05 11.55 8.5 16.95 7.2 5.2 17.15 2.65 6.95-1.8 9.6-8.35 2.65-6.45.7-16.55-.2-1 .3-1.3.5-.25.8.7l1.1 2.15q1.4 2.2 3.1 2.75.3.1-.05.75l-.6.55q-1.45-.45-2.85-2.3 1.65 8.95-1.25 15.25-3.05 6.65-10.35 8.5-10.55 2.75-18.5-3-8.05-5.8-9-17.2-7.35 6.1-17.1 4.7-9.45-1.4-14.45-8.65-6.8-9.9-1.95-20.75 4.95-10.95 16.75-11.65-6.15-3.3-8.85-8.85-2.7-5.4-1.55-11.85 1.45-8.2 8.05-12.3 5.7-3.6 13.25-3.1 4.75.35 10.55 3.05"/></svg>