<svg xmlns="http://www.w3.org/2000/svg" width="442" height="473" viewBox="-1.45 -1.15 441.55 473.3"><path fill="#f9dad9" d="M203.2 182.55q8.05-2.1 12.45.8 6.8 4.4 2.2 17.2-2.3 6.45-6 11.95 2.05-1.4 5.4-3.15 6.75-3.5 13.2-5.35 20.75-6 31.3 6.6 10.55 12.65 4.55 30.65-3 9-8.1 15.45 17.4-3.75 29.4 4.45 6.05 4.1 8.55 8.95l22.35 84.8q4.85 4.1 4.85 10 0 9.6-14.4 19.75-18.4 13.05-43.1 17.4-28.25 4.95-56.45-3.5-31-9.25-49.45-34.35-19.3-26.3-19.3-63 0-33.7 16.35-68.45 6.45-13.65 14.25-24.8 7-10.05 12.75-14.8 9.95-8.2 19.2-10.6"/><path fill="#a499c9" d="M333.25 150.35q5.5 1.75 11.7 4.2 6.7 2.4 17.2 8.05 16.1 8.65 29.55 19.6 40.75 33 44.6 75.2 3.8 41.65-18.25 80.4-11 19.4-22.8 30.45-16.4 18.7-37.6 26.8-9.1 3.45-16.9 4-7.6.5-12.1-1.95-7.4-4-6.9-15.8.15-3.45 1.15-8.9l.9-6.4q0-4.8-2.65-8.45l-2.65-2.65q-6.8 3.55-11.35.55-6.5-4.35-12.8-22.75-5.8-17.05-2.6-41.5 1-7.65 2.8-15.15l1.6-5.95q-7.65-13-22.05-14.2l-10 .35-5.9.45q1.65-1.85 4.1-6.3 3.5-6.2 5.25-12.25 5.35-18.25-6.2-28.2-12.75-10.95-32.4-5.3-6.15 1.75-12.25 5l-4.85 2.85q3.55-5.75 5.95-12.25 4.8-12.95-1-16.55-7.8-5-21.85 2.45-4.35 2.35-8.85 5.6-2.25 1.65-3.6 2.85 6.25-7.15 17.25-16 22.05-17.7 45.9-26.3 34.35-11.2 66.6-6.7 10.75 1.5 21 4.75"/><path fill="#f09cb4" d="M232.05 289.95q3.15-1.65 7.85 1.85 2.65 2 6.3 6.15 2.45 2.9 3.8 7.2 1.55 4.9-.65 6.35-2.5 1.7-5.95.35-3.8-1.5-8.2-6.5-4.3-4.9-5-9.7-.65-4.4 1.85-5.7m97.75 42.7q3.95-2.05 6.2-4.45-2.85 9.35-10.2 18.85-8.6 11.1-15.2 9.8-8.6-1.7-14.65-18.85-3.3-9.35-4.95-19.95l1.65 2.3q2.2 2.85 4.65 5.3 8 7.9 16.3 9.5t16.2-2.5m-37.55 60.8q6.15-2.75 15.2-8 5.7-3.3 11.75-11.2l4.95-7.2q-2.75 7.3-2.35 16.4.15 4.6.9 7.7l-6.05 3.65q-7 3.85-11.9 4.8-5.25 1-8.55-1.15-2.3-1.55-3.95-5"/><path fill="#f09cb4" d="m325.85 362.6 3.15-1.15q3.9-1.25 7.8-1.75 12.5-1.55 20.3 5.05t8.8 17.15q.5 5.3-.55 9.25-11.1 6.75-22.15 7.8-10.8 1.1-17.55-3.6-5.55-3.8-3.25-18.65.75-4.65 2.15-9.85zm8.45-346.9q5.9 7.75 3.65 18.75-2.25 11.2-11.4 17.7-7.95 5.65-17.9 4.2-6.35-.95-11.75-4.2-4.85-3.3-8.15-5.15-6.05-3.4-10.95-3.6-5.75-.2-9.55 5.4-3.65 5.4-5.05 15.35-1.2 8.75-5.4 14.7-3.25 4.55-7.55 6.65-8.7 4.35-17.35 4.75-9.55.4-20.8-3.8-1.8-.65-5.8-2.6-4.3-2.1-6.7-3.05-15.75-6.25-31.7-1.1-13.35 4.3-19.35 12.95-3.75 5.4-3.9 10-.15 4.65 3.15 12.95 6.45 16.25 5.95 26.55-.6 12.2-10.5 30.15-8.6 15.6-25.75 23.8-8.55 4.1-15.4 5.05-8.45 5.55-8.65 13.75-.05 1.7.5 7.3.45 4.8.05 7.9-.9 7-6 14.05L81.2 252q-5.05 5.65-2.55 15.45 1.3 4.9 3.55 8.65 6.3 4.9 9.3 12.95t3.65 22.05q.35 8.45-1.85 19.7l-4.45 18.8q-2.65 10.65-3 15.7-.55 7.2 2.45 10.35 1.85 1.95 4.3 2.2 2.6.25 5.6-1.5 14.45-8.5 23.45-8.1 8.9.4 27.9 10.35 8.4 4.4 16.05 1.8 7.85-2.7 10.2-11.2 1.4-5.25 3.45-6.55 1.15-.7 4.95-.7 2.95 0 9.8 3.25 6.6 3.15 9.8 5.8 3.3 2.75 6.45 7.3 3.4 4.8 2.95 6.65-.5 1.9-2.6 2.75t-5.2.45l-9.55.25q-6.9 1.15-9.2 4.95-2.1 3.4-.8 8.15.85 3.15 4.3 9.65 4.2 7.85 5.7 11.55 2.95 7.25 3.4 13.9 1 15.45-8.7 24.35-9.95 9.15-28.85 9.15-17.2 0-35.5-12.25-14.1-9.4-23.95-22.05-6.7-8.6-7.1-16.25-.3-4.95 2.1-9.05-6.2-8.2-13.85-7.9-5.45.2-9.95 4.2-8.25 7.2-9.45 7.95-7.85 5.1-16.65 4.35-18.5-1.55-35.15-31.6-7.5-13.6-9.4-41-2-28.75 4.55-47.55 5.8-16.6 19.15-32.75 7.15-8.65 15.35-15.85 4.4-3.85 8-7.95 5.05-5.8 5.75-9.35 1-4.6-2.6-8.2-4.35-4.4-14.55-6.4-10.5-2.05-15.3-4.6-3.95-2.15-7.35-6.75-3.7-4.9-3.1-16.8.7-13.9 7.6-28.5 6.7-14.15 18.55-25.35 8-7.6 19.5-14.65 5.6-3.45 20.45-10.45 12.6-5.9 13.9-7.4 3.25-3.65 4.25-5.8 1.2-2.5.6-5.2-.7-3.25-9.7-17.65-5.75-9.2 1.7-17.65Q96 50.4 115.7 40.5q16-8.05 34.75-7.25 12.2.55 24.2 4.65 5.2 1.8 14.45 5.7 8.1 3 14.7 2.9 10.95-.2 16.35-8.15l4.65-8.3q3.1-5.9 5.85-9.65 7.05-9.45 18.15-10.95 10.05-1.3 21.05 4 8.65 4.15 15.25 6.35l4.85 1.4q-.3-3.05.6-6.7 1.8-7.4 7.95-10.6 9.8-4.25 18.75-1.45 9.2 2.9 17.05 13.25"/><path fill="#d7bdbc" d="M156.6 345.9q9.75 9.05 22.9 16.85l-1.15.6q-1.25 1-1.9 3.2-3.1 9.8-5.65 10.8l-9-9.95q-3.9-5.15-9.45-16-6.95-13.55-6.95-19.4 2.6 5.8 11.2 13.9m45.55 42.4 8.7-.4q2.15-.65 2.4-2.75.2-1.75-2.15-5.55l-2.4-3.45q18.85 6.35 39.45 8.05 19 1.55 36-1.1 16.45-2.6 26.75-8.45 10.65-6 11.8-13.95l.3 2.55q.05 3.2-1.25 6.65-4.2 10.9-20.25 19.5-19.8 10.6-39.9 13.4-21.2 2.95-45.8-2.25-14.25-3-26.75-9.95l3.25-1.3q4.35-1.25 9.85-1"/><path fill="#8e84ae" d="m370.85 388.6-5.7 3.15q1.25-4.9 1.1-8.85-.15-3.15-1.2-6.2 24.25-15.7 46-40.55 7.45-8.5 13.25-16.55 4.65-6.4 5.35-8.3-3.75 12.75-12.95 28.75-18.45 32.05-45.85 48.55"/><path fill="#d0879d" d="M365.05 376.7q1.05 3.05 1.2 6.2.15 3.95-1.1 8.85-17.95 9.2-30.5 7.05-3.9-.7-6.8-2.4l-2.1-1.6q19.65-5.35 39.3-18.1m-43.35 7.6q.3 4.2 1.3 6.7l-6.45 4.05q-7.65 4.15-13.35 4.75-5.7.65-8.6-2.7-.9-1.1-1.4-2.4l-.3-1.1q7.7-3.75 17.15-10.15 5.95-3.95 10.35-10.8l3.25-6 1.15.65q-3.7 8.55-3.1 17m5.2-38.15q-8.35 11.85-16.35 10.8T297 341.55q-1.75-4.45-3.05-9.75l-.95-4.35q1.75 5.1 6.5 10.9 6.45 7.85 13 8 6.25.2 14.35-6 4-3.1 6.8-6.25-2.55 6.15-6.75 12.05"/><path fill="#8e84ae" d="m364.05 294.3-2.7 7.95q-3.85 3.8-8.95 9.9-10.1 12.25-16 23.9-5.4 10.8-10.85 27.55l-1.95.55-.75-3.2q-1.25-3.7-3.7-5.95 2.35-2.15 5.65-6.45 6.65-8.55 11.35-19.15t6.4-16.95l1.85-11.55q6.35-1.4 13.3-5 6.1-3.2 7.7-5.2z"/><path fill="#d0879d" d="M197.45 452.45q-5.05 10.55-21.9 15.75-12.75 3.95-27.55.15-17-4.35-32.2-18.1-13.5-12.2-18.1-21.45-1.45-2.85-1.8-5.1l-.1-1.65q.6 1.9 5.8 7.3 6 6.2 13.6 11.95 21.35 16.1 39.7 17.1 20.5 1.15 31.45-6.1 10.95-7.3 11.75-22.5 3.6 13.85-.65 22.65m-9.05-60.55q-3.6 2.9-3.75 6.95-.55-1.5-.15-3.85.8-4.65 5.6-8.65 3.5-2.85 12.35-4.6 6.7-1.3 7.2-4.95l2.5 4.1q2.1 4.45.25 6.15-1.7 1.55-8.6 1.4-7.9-.2-9.15.2-3.75 1.2-6.25 3.25M5.35 364.1l3.85 7.05q4.95 8.4 10.05 15.4 16.45 22.3 29.05 21.85 6.2-.2 11.85-2.7 3.35-1.5 8.85-5.15 5.2-3.45 7.8-4.5 4.35-1.7 8.75-.8 8.25 1.7 13.7 6.8 2.75 2.6 3.8 4.8l-1.95 1q-2.2 1.35-3.5 3.05-1-1.75-2.9-3.7-3.8-3.85-8.2-4.7-4.7-.9-9.5 2-3 1.8-7.55 6.4Q58.8 421.55 46 418.85q-8.15-1.7-16.75-8.8-8.55-7.1-14.35-16.85-4.85-8.1-7.7-19.4zm37.95-45.7q.3 6.55 3.45 11.4 3.2 4.75 8.35 6.6 5.05 1.85 10.05.2 5.3-1.75 8.6-6.85l-.75 2.8q-1.1 3.3-2.7 5.95-5.25 8.55-14.05 7.4-8.8-1.1-11.75-15-.95-4.35-1.15-9.45zM13.5 184.5q0 5.4 2.25 10.7 3.6 8.45 11.65 11 14.25 4.55 22.55 11.1 12.1 9.55 4.8 19.6.85-2.5.75-5.45-.15-5.9-4.75-8.25-4.55-2.4-9.9-3.8l-9.9-2.35q-9.05-2.3-12.9-6-4-3.85-5.05-11.45-.85-6.5-.25-11.45zm64.65 10.85q-4.45-6.05-2.8-14.35.55-2.6 1.6-5.1l.95-2q-1.2 3.5.7 9 2.5 7.35 9.7 10.1 4.35 1.7 11.5 1.1 7.6-.65 15.7-3.75 20.15-7.65 32-25.45-2 5.15-6.8 11.6-9.6 12.95-23.6 19.55-8.6 5.3-20.75 5.7-13.25.4-18.2-6.4M250.4 85.4q-8.2 5-19.2 4.85-8.7-.15-18.3-3.45-10.5-4.35-15.85-6.3-9.35-3.35-17.45-2.9-10.45.45-21.6 6.85-3.5 2-6.6 4.4l-2.45 1.95q3.85-6.65 9.5-11 9.95-7.65 24.25-7.65 11.6 0 22.3 3.5 5.85 1.9 14.75 5.25 12.15 3.3 20.75 1.8 15.45-2.6 22.9-19.05l-.35 2.35q-.55 2.95-1.65 5.75-3.45 9.05-11 13.65m87.8-53.35q0 4.2-2.05 9.1Q332 51 321.7 54.7q-8.05 3.25-16.85.45-4.3-1.35-13.85-6.8-5.15-2.95-10.4-4.75l-4.25-1.15q3.85 0 8.65.95 6.35 1.2 12.4 3.75 3.95 1.65 9.6 2.4 6.75.9 12.65-.05 15.95-2.6 18.55-17.45"/><path fill="#d0879d" d="M290.1 18.65q.45 2.7 4.75 7.25 5.6 5.95 12.2 6.85 6.35.9 9.35-1 1.5-.95 1.75-2.05 0 2.65-1.6 4.9-3.2 4.55-11.15 2.65-9-2.05-13.05-10.7-1.3-2.7-1.95-5.7zM88.9 238.7q4.6-5.1 4.85-7.6l-.2 2.45q-.75 3.4-3.5 7.6-1.5 2.3-5.85 6.7-3.25 3.3-5.5 8.6-2.45 5.8 1.5 14.75 2 4.45 4.5 7.75-4.6-5.5-11.55-7.25l-6.05-.65q-.5-6.45 3.25-13.65 3.65-7 8.8-10.2 4.95-3.1 9.75-8.5"/><path fill="#0d131a" d="M232.25 290.55q-1.6 1.4-.65 5.35.95 4.25 4.4 8.85 3.05 4.05 6.95 5.95 3.65 1.75 5.4.35 1.35-1.05.65-4.5-.9-4.05-4.5-8.9-3.65-4.9-7.45-6.75-3.3-1.6-4.8-.35m-2.5 5.05q-.75-4.55 1.25-6.3 2.1-1.85 6.6-.05 4.85 2 8.6 7 3.95 5.35 4.7 10.3.65 4.4-1.35 6-2.3 1.8-7-.15-4.9-2-8.25-6.65-3.8-5.2-4.55-10.15m-13.35 18.7q-1.3-.4-1.1-1.05.25-.65 1.6-.4 10.65 2.3 16.5 8.35 8.05 8.25 4 21.5-.4 1.45-1.2 1.2-.75-.2-.3-1.65 3.45-11.4-4.25-19.3-5.3-5.45-15.25-8.65"/><path fill="#0d131a" d="m238 337.6.25-2.35q2.55.15 5.25 1.05 3.9 1.25 6.5 3.55 1 .85.55 1.4-.4.5-1.45-.3-4.05-3-11.1-3.35m-2.5-12.1 4.55.3q3.6.6 6.05 2.6 1 .85.65 1.4-.4.6-1.45-.2-1.55-1.1-3.8-1.5l-5.45-.3zm-8.4-8.2q1.35-.3 4.9-.1l6.55.8q1.2.25 1.05.95-.1.65-1.35.45l-5.65-.25-4.15.35q-.4.1-1.05-1t-.3-1.2"/><path fill="#0d131a" d="M377.7 169.35q18.2 11.9 31.85 27.1 14.15 15.75 21.55 32.95 8.55 19.9 7.8 44.45-.75 24.85-10.85 48.85-11 26-30.15 45.95-19.1 19.8-41 28.2-18.35 7-28.65 1.4-10.45-5.65-7.2-21.7 11.9-58.6 54.95-87.05 1.65-1.05 2.3-.55t-1.15 1.85q-20.45 15.15-34 36.9-14.05 22.45-19.2 49.55-2.65 13.95 6.15 18.75t25.15-1.5q21.5-8.2 39.75-27.4 18.3-19.2 29.15-44.95 10-23.8 10.95-47.45.9-23.7-7.45-43.1-14.8-34.45-52.25-59.2-37.5-24.8-77.05-26.25-25.55-.95-50.45 7.55-24.9 8.45-46.05 25.25-20.8 16.6-35 38.8Q152.6 240 146.7 265.1q-7.85 33.55-1.3 62.95 6.55 29.45 26 48.05.3.25-.6 1.2t-1.15.7Q149 359.5 142.2 328.85q-6.65-29.95 1.4-64.4 6.15-26.2 20.6-49.1 14.3-22.6 34.95-39.2 20.95-16.85 45.95-25.45 26-9 53.65-7.95 40.6 1.5 78.95 26.6"/><path fill="#0d131a" d="M189 392.1q-.35-.2.45-1.4.75-1.2 1.1-1 20.35 10.8 45.25 12.6 24.9 1.85 46.2-5.9 18.6-6.8 28.95-14.95 10.4-8.2 11.2-16.8.45-5.1-3.95-9-.3-.25.5-.95.8-.75 1.1-.5 5.3 4.75 4.75 10.9-.85 9.25-11.95 18.4-11.25 9.2-30.3 16.1-21.75 7.9-47.55 5.9-25.95-2.05-45.75-13.4m106.9-46.65 3.75.6q.4.1.55 1.4.2 1.3-.2 1.25l-3.6-.6q-10.15-1.4-15.75-3.95-8.15-3.65-12.1-11.15-.8-1.55-.15-1.8.7-.25 1.65 1.25Q274 338.9 281.3 342q5.1 2.15 14.6 3.45m30.55 16.3q7.75-4 16.2-3.7 8.65.35 15 5.1 7.05 5.3 8.85 15.2 1.45 7.8-.45 12.55-.15.35-1 .5-.9.15-.75-.2 1.65-4.15.15-11.6-1.9-9.3-8.3-14.1-6-4.55-13.6-5-7.45-.4-16.1 3.1-.35.15-.35-.75t.35-1.1"/><path fill="#0d131a" d="M322.5 389q.3-.2 1 1.2t.4 1.6q-4.2 3.2-8.9 5.5-6.55 3.2-12.35 3.75-5.05.45-7.8-1.65-2.6-2-3-6.05-.05-.35.9-.45.9-.1.95.25.3 2.55 2.55 4.1 2.5 1.65 6.15 1.3 5.4-.5 11.7-3.95 3.5-1.95 8.4-5.6m21.7-119.2q-.1-1.85.65-1.9.7-.05.9 1.8 3.8 36.7-10.55 65.05-5.65 11.15-12.6 17.6-6.6 6.1-11.5 5.5-7.35-.85-13.1-11.05-5.5-9.7-7.75-24.6-2.35-15.3-.4-30.7 2.15-16.8 8.95-29.25.9-1.65 1.65-1.3.7.35-.05 2.05-6.6 14.8-8.1 31.9-1.35 15 1.35 29.4 2.5 13.1 7.45 21.85 4.9 8.6 10.05 9.2 4.7.55 10.8-6.05 6.2-6.7 11.4-18.25 12.7-28.15 10.85-61.25"/><path fill="#0d131a" d="M335.35 328q.3-.25.6.6.35.85 0 1.05-7.25 5.2-13.3 6.7-7 1.65-14.15-1.1-6.45-2.5-11.95-8.3-4.5-4.75-5.05-7.25-.1-.4.25-1.45t.45-.65q.5 2.1 5.05 6.85 5.75 6 11.9 8.35 6.3 2.4 13.05 1.15 6.65-1.25 13.15-5.95M181.8 194.6q8.15-7.55 16.35-11.4 8.4-3.95 14.35-2.9 5.45.95 7.55 6.2.95 2.4.95 5.45 0 4.1-1.7 8.75-1.85 5.05-5.5 10 11.8-8.6 25.3-9.35 13.1-.75 21.85 6.25 4.2 3.35 6.55 8.75 2.4 5.5 2.4 12.2 0 6.1-2.4 12.95-2.45 7.1-7.2 13.95 12.65-2.9 21.35.15 8.9 3.15 15.6 13.3.25.35-.7 1-.95.7-1.2.35-5.45-8.25-15.2-11.45-9.7-3.2-21.95-.85-1.35.25-1.45-.35-.05-.45.5-1.15 10.25-13.85 10.05-27.65-.2-12.5-8.3-19-8.4-6.7-21.45-5.55-12.75 1.1-25.1 9.35-1.35.95-1.85.4-.45-.5.4-1.95 9.7-16.1 6.5-24.15-1.7-4.25-6.1-5-5.6-.95-13.1 2.5-7.5 3.5-15.2 10.6-.3.25-.95-.45t-.35-.95m185.8 90.25q1.15-1.55 1.75-1.2.65.4-.35 2.1-1.2 2.1-3 7.1-1.9 5.1-2.75 8.55-.05.4-1.85 1.45-1.75 1.05-1.7.65.95-3.85 3.25-9.45 2.6-6.45 4.65-9.2m-299.4-13q-8.85.65-15.6 12.25-6.75 11.65-8 28.35-1.15 15.25 3.05 24 3.5 7.35 9.3 7.9 6.05.6 10.6-3.7 4.75-4.45 5.6-12.1.25-1.85.95-1.7t.55 2q-.8 9.05-5.95 14.1-5.05 4.95-12.15 4.25-7.2-.75-11.5-9.3-4.75-9.65-3.55-25.55 1.3-17.8 8.65-29.55 7.4-11.9 17.9-12.8 11.1-.95 19.45 9.4 8.75 10.9 9.5 28.85.4 10.45-1.75 21.9-.9 4.8-4.2 17.15-2.35 8.7-3.15 14.15-.9 6.1-.1 9.45 1.15 5.1 4.2 5.45 2.9.3 8.8-3.55 10.5-6.8 20.35-6.55t23 7.75q6.4 3.65 12 4.85 6.1 1.25 10.4-.65 7.1-3.2 9.1-12.2 1.5-7.15 11.85-4.8 6 1.35 13.4 6.45 7 4.85 10.4 9.6 2.1 3 2.7 5.65.5 2.45-.35 4-1.45 2.7-8.45 2.35-8.3-.5-12.85 1-4.5 1.5-5.65 5.05-1.7 5.5 6.65 19.75 6.55 11.15 7.5 22.35 1.1 12.6-5.5 21.4-9.2 12.25-30.4 12.8-21.6.55-39.1-11.65-19.4-13.45-27.55-27.6-7.9-13.7-2.05-22.05 3.5-4.85 9.25-5.05 11.4-.35 24.35 7.9 12.85 8.2 21.9 21.5.85 1.25.35 1.7t-1.45-.75q-8.9-11.35-22.6-19.85-13.75-8.45-22.65-8-5.15.25-7.4 3.85-5.05 8 2.9 20.5t26.35 25.35q19.05 13.3 40.4 10.95 8.6-.95 15.6-4.4 6.55-3.2 9.65-7.45 6.2-8.55 4.7-20.85-1.2-9.55-6.8-20.1-4.65-8.85-5.9-12.95-1.5-4.95-.15-8.45 1.6-4.15 6.55-5.8 4.85-1.6 14-1.05 5.8.3 6.7-1.35.95-1.85-2.65-6.9-3.25-4.55-9.9-9.15-7-4.9-12.7-6.15-8.25-1.85-9.25 2.6-2.35 10.85-9.75 14.2-9.6 4.25-24.3-4.1-12.15-6.85-22.2-6.9-9.65-.05-19.3 6.2-6.9 4.45-11.4 2.9-4.2-1.4-5.4-7.55-1.45-7.2 3.1-24.25 2.8-10.45 3.95-17.05 1.95-11.25 1.5-21.7Q93 291 85.05 280.7q-7.3-9.55-16.85-8.85m269.45-252.5q5.6 13.2-1.75 25.2-6.6 10.75-17.9 12.6-11.8 1.95-25.3-6.5-8.4-5.2-13.15-6-5.6-.9-9.55 3.45-2 2.25-3.75 8.65L263.85 68q-3.7 18.65-19.1 23.45-15.95 5-39.55-6.75-14.9-7.45-30.3-5.05-13.7 2.1-22.55 10.7-4.95 4.85-6.45 10.2-1.5 5.3.75 10.05 6.3 13.15 7.9 22.9 2.5 14.8-3.55 28.3-5 11.1-11.7 19.15-6.85 8.15-16 13.75-12.7 7.8-26.6 8.1-12.95.35-19-5.6-3.7-3.65-4.5-9.95-.85-6.55 2.05-12.95 4.5-9.95 14.1-16.05 10.85-6.85 23.85-5.6 1.65.15 1.7.9 0 .75-1.65.6-11.75-.9-21.65 5.8-8.75 5.95-13.05 15.45-2.75 6-2.45 11.25.25 5.3 3.4 8.4 5.55 5.45 17.1 5.15 12.5-.3 24.4-7.6 9-5.5 15.55-13.25 6.6-7.8 11.4-18.55 5.85-13.05 3.9-27.1-1.35-9.5-7.05-22.15-2.7-5.9-1.05-12.15 1.6-6.2 7.1-11.55 9.15-8.95 23.6-11.1 16.2-2.45 31.6 5.45 21.25 10.9 37 6.4 15.35-4.4 18.45-21.1 3.3-17.7 7.15-21.8 4.4-4.7 10.9-3.5 5.55.95 14.45 6.8 11.25 7.3 22.55 5.55Q327.6 52.8 333.5 43.2q6.2-10.1 1.7-22.35-4.6-12.7-17.2-17.1-7.6-2.65-14.6-.7-6.5 1.8-9.95 6.75-3.3 4.75-1.65 11.7 1.65 7.15 7.4 11.6 5.35 4.1 10.95 3.65 5.15-.45 6.25-3.95.6-2.05.1-5.4-.25-1.55.25-1.95t1.05 1.05q1.7 4.4 1 7.35-1.3 5.05-7.4 5.95-6.45.9-13.55-3.9-7.8-5.3-9.5-13.9-1.6-8.25 3.25-14.5 4.05-5.2 11.2-6.85 7.55-1.8 15.9 1.15 13.45 4.7 18.95 17.55"/><path fill="#0d131a" d="M290.25 20q.4-.05.5 1.1.15 1.15-.25 1.2-2.55.4-9.1-2.4l-10.05-4.55q-16.05-7.1-27.5-3.35-11.3 3.7-17.6 17.95-5.7 13.05-14.35 16.4-5.7 2.2-13.9.75-7.55-1.4-17.9-6-21.15-9.5-44.55-5.3-23.45 4.15-42.65 20.85-4.35 3.75-5.65 8-1.85 6 2.95 11.85 10.55 12.8 8.5 20.95-1.95 7.75-16.65 13.8-34.95 14.25-52.4 37.65-13.25 17.8-15.6 39.7-1.5 14 3.85 20.25 5.25 6.1 20.25 8.35 13.7 2 18 8.15 4.15 5.95-1.75 13.6l-3.8 4.15-5.3 5.2q-12.25 12.25-16 16.5-10.1 11.5-15.55 22.25-7.7 15.15-9.45 35.5-1.75 20.3 2.6 43.3 4.35 22.8 17.5 37.85 12.1 13.95 24.95 14.45 10.5.4 22.45-11.3 4.3-4.15 8.25-5.3 3.25-1 7-.1 3.8.95 6.9 3.3 3.15 2.4 4.25 5.2.15.35-.7.7-.9.35-1.05 0-.95-2.35-3.7-4.3-2.65-1.85-6.1-2.7-6.9-1.7-13.15 5-12.25 13-24.35 12.5-13.9-.55-26.9-14.45-14.65-15.65-19.3-40.3-4.4-23.05-2.35-44 2.05-20.6 9.95-36.2 5.5-10.85 16.25-22.8 2.65-2.95 16.65-16.95 6.95-6.95 8.55-9.05 4.4-5.75 1.2-10.5-3.5-5.35-15.45-7.1-15.9-2.3-22.2-9.65-6.45-7.5-4.85-22.3 2.4-22.75 15-39.8 17.35-23.4 55.3-39.2 6.95-2.9 10.4-5.45 4.05-2.95 4.95-6.5.9-3.6-1.55-8.55-2.1-4.15-7.3-10.5-5.65-6.85-3.35-14.3 1.6-5.15 6-9 20.05-17.4 42.9-21.6 23.75-4.4 47.85 6.1 9.85 4.25 17 5.4 7.45 1.2 12.9-.9 8.5-3.3 13.4-14.4 6.9-15.55 19.2-19.75 12.5-4.3 29.2 3.65l9.3 4.45q6.2 2.8 8.35 2.5"/><path fill="#0d131a" d="M103.75 200.45q.95.55.6.75-4.75 2.25-6.95 5.2-3.5 4.7-2.45 12.3 1.4 10.35-.45 16.65-1.9 6.25-8.6 13.35-6.35 6.7-6.75 12.2-.5 6 5.2 16.15.2.35-.9.4-1.05 0-1.25-.35-6.05-10.7-5.7-16.85.35-5.85 6.95-12.9 6.3-6.7 8.1-12.6 1.8-6 .45-15.8-1.15-8.45 2.95-13.55 2.35-2.85 7.55-5.35.35-.2 1.25.4m221.8 164.95q.3.25-.3.95l-.75.6-1.1-.1q-.35 0-.35-.95t.35-.95q1.55 0 2.15.45"/></svg>