<svg xmlns="http://www.w3.org/2000/svg" width="205" height="157" viewBox="-2 -0.9 204.8 156.85"><path fill="#b4b4b0" d="M197.9 5.1q2.45 0 3.15.95 1.6 2.2-3.4 9.45-5.4 7.9-14.05 14.25-.35.4-.15.75l.55.35h.15q3.6-.9 6.65-.9 4.8 0 5.9 2.35 1.35 2.95-3.65 8.5-5.25 5.8-13.15 9.4-.45.25-.35.75l.6.45h.05l3.85-.15q4.1 0 6.35.85 2.25.8 2.35 2.35.3 3.05-4.4 7-5.2 4.35-12.95 6.2-.5.1-.5.6t.5.6q4.25.95 6.95 2.85 2.75 1.85 2.7 3.85-.25 2.1-3.8 4.05-4.45 2.35-11.25 2.35l-2.6-.1h-.05q-.4 0-.6.45-.1.5.3.75 3.85 2 6.5 4.4 2.95 2.7 3 4.8 0 1-1.1 2.1-2.8 2.8-8.65 2.8-4.45 0-9.25-1.75l-.2-.05q-.3 0-.55.35-.25.45.15.75 8.75 7.5 5.7 11.85-1.3 1.7-5.4 1.7-3.65 0-7.85-1.35t-7.1-3.45l-.35-.15q-.25 0-.4.15-.35.35-.1.8 2.3 4 2.6 7.6.25 3.25-1.2 4.6-.95.85-2.95.85-2.2 0-4.85-1-2.6-1.05-4.9-2.8l-.35-.15q-.25 0-.5.25-5.5 7.15-16.85 12.2-12.55 5.55-26.2 5.55-18.75 0-33.2-9.7Q37 112.6 35.6 95.2v-.55l-.3-.5-.3-.05-.3.05q-3 1.5-6.3 1.5-3.5 0-5.85-1.6-2.3-1.6-2.55-4.2-.1-1.15.85-2.5 1.1-1.65 3.35-3.05.4-.25.3-.7-.2-.45-.6-.45h-.05l-2.15.1q-4 0-7.65-1.25-3.6-1.3-5.5-3.35-1.5-1.65-1.35-3.3.25-2.1 2.8-3.6t6.5-1.9q.55-.1.55-.55.1-.5-.4-.65-5.2-1.85-8.7-4.4-3.5-2.6-4.65-5.45-1-2.3-.1-4.05 1.6-3.2 7.3-3.2l5.1.6.15.05.55-.4q.15-.4-.25-.75-7.2-4.95-11.5-10.65Q.8 35.4.6 31.8q-.1-1.75.8-2.55 1.75-1.45 4.75-1.45 5.25 0 12.1 4.05l.3.05.5-.2q.35-.45-.05-.8-6.85-7.6-10.9-16.5Q4.5 6.55 4.95 2.65q.05-1.05.6-1.5L6.7.7 7.8.65q7.75 0 21.35 10.95 15.6 12.55 28.3 32l.5.3q.35 0 .5-.3 1.4-2.05 2.95-2.3l.45-.4q2.2-6.7 8.85-10.8Q77.3 26 85.9 26q8.65 0 16.85 4.4l.3.05.35-.1 3.1-1.85 3.05-1.55.15-.05.15.1.25 4.05v.2l.25.5.35.1.25-.05 3.35-1.2 3.1-.95.2.2-.9 3.15-1.25 3.35q-.1.35.1.6.15.25.5.25l4.35.35q.6.2.65.35l-.25.65-4.95 5.15q-.3.3-.15.7 1.1 2.95 1.3 7.45l-.15 9.1-.15 5.15q-.1 2.9.5 5.5.95 3.85 3.4 5.6l.35.1h.1l.4-.3q2.65-3.95 3.6-8.55 2.9-13.5 3.35-20.5.2-3.6 3.7-7.1 6.4-6.35 15.95-13t20.5-12.35q9.35-4.8 17.25-7.6 7.85-2.8 12.1-2.8"/><path fill="#888784" d="M49.8 110.7q10.05 6.05 22.05 8.25 30.1 5.55 54.4-14.8l16.75 5.1q1.15 3.05 1.05 5.55-.1 2.35-1.2 3.4-.95.85-2.95.85-2.2 0-4.85-1-2.6-1.05-4.9-2.8l-.35-.15q-.25 0-.5.25-5.5 7.15-16.85 12.2-12.55 5.55-26.2 5.55-17.8 0-31.9-8.9-15.55-9.8-18.3-25.85 4.4 6.75 13.75 12.35"/><path fill="#dbdcdc" d="M104.65 94.05q-.35 3-1.5 5.85-3.65 9.05-13.95 12.9-3.7 1.45-8 4.35-8.6 5.8-11.5 13.2-4.5-.65-10.6-3.75-12.15-6.2-19.95-18.55-1.95-3.2-2.9-8.35-1.85-10.3 3.35-20.2 4.45-5.8 6.6-7.6l6.8-7.15 2.15 1.95q2.15 3.1 2 8.7 2.1-2.15 5.5-4.2 6.85-4.1 13.45-3.75 9.25.55 17.35 6.4 9.55 6.9 11.3 17.75z"/><path fill="#b4b4b5" d="M52 112q11.95 6.45 25.7 7.75-5.8 5-8 10.6-4.5-.65-10.6-3.75-12.15-6.2-19.95-18.55l-1.25-2.6q-1.35-3.35-1.85-7.05 5 7.65 15.95 13.6"/><path fill="#dbdcdc" d="M3.2 37.8Q1.7 35 1 32.35l-.4-2.1q2.45-3.9 11.55-.8 4.55 1.55 8.6 3.85Q8.25 17.1 5.55 7.5q-1.4-4.8-.25-6.35Q6.5.5 9.8 1.8q1.65.65 3.05 1.45Q29.3 14.3 43.75 33.2q7.2 9.45 11.15 16.65l2.15 2.1.45 7.95q-.2 1.15-14.8 15.5-4.75 5.45-6.3 12.4-.8 3.45-.65 5.85-6.35 2.8-11.25 1.3-4.5-1.35-4.5-4.8 0-2.6 3.1-5l3.05-1.85q-6.55.3-12.35-1.55-6.75-2.15-6.6-5.95.1-3.45 6.25-5.15 3.05-.85 6.1-1-4.5-1.65-8.85-4.25-8.75-5.15-7.95-9.6t8.5-4q3.9.2 7.6 1.3Q8 46.6 3.2 37.8"/><path fill="#b4b4b5" d="m57.05 51.95.45 7.95q-.2 1.15-14.8 15.5l-2.15 2.8q-5.75-12.5-6-28.35-.2-15.15 4.55-22.45 6.35 7.55 11.7 15.75 2.7 4.1 4.1 6.7z"/><path fill="#f9be00" d="M95.3 41.3q3.65.65 5.15 5.2 1.45 4.4 0 9.3-1.2 4.95-4.45 7.55-3.2 2.6-6.35 1.4-3.2-1.2-4.6-4.65-1.6-3.85-.35-9.15l2.2-5.3q3.25-5.15 8.4-4.35"/><path fill="#686d70" d="M93.75 48.25q1.45.25 1.95 2.05.55 1.7-.05 3.8-.5 1.9-1.75 3t-2.4.75q-1.25-.35-1.75-2-.45-1.6 0-3.5.5-2.1 1.55-3.25 1.1-1.15 2.45-.85"/><path fill="#fff" d="M91.85 42.65q.9.45 1.25 1.45.35 1.05-.1 2.05t-1.45 1.4l-1.9-.15q-.8-.4-1.1-1.25-.35-.9.05-1.85.45-1.05 1.35-1.55z"/><path fill="#f3b2c1" d="M57.05 48.75q.3-1.9 1.05-3.75 1.5-3.7 3.75-3.6 1.6 5.15.9 7.1zM78.1 47q1.45 2.6 1.1 5.3-.4 3.1-2.35 5.1-2.7 2.75-7.15 1-.3-2.05-1.3-4.3-2.05-4.55-5.65-5.6l2.85-2.6q3.55-2.55 7-2.35 3.65.25 5.5 3.45"/><path fill="#686d70" d="M56.35 49.35q3.45-.85 6.2-.85 3.8.9 5.85 5.25 1.05 2.15 1.3 4.15L51.3 57l-5.25-1.25q3.4-4.6 10.3-6.4"/><path fill="#515457" d="M69.7 57.9q-.4 2.2-1.7 4.35-2.7 4.3-7.45 4.15-1.05-.15-1.85-1.25-1.6-2.25-.3-7.2z"/><path fill="#ce7486" d="M67.05 58.15q-.6 1.95-1.75 3.9-2.25 3.9-4.9 3.9-.7-.3-1.15-1.45-.9-2.3.45-6.5z"/><path fill="#686d70" d="M43.85 26.1q-1.75 0-2.05 2.4-.2 1.2 0 2.4-9.45-11.95-20.7-21.15-5.65-4.6-9.4-6.85L7.8.65q8.7.5 23.25 13.05 7.25 6.25 12.8 12.4"/><path fill="#ccc" d="m193.85 5.6 4.05-.5q2.45 0 3.15.95 1.6 2.2-3.4 9.45-5.4 7.9-14.05 14.25-.35.4-.15.75l.55.35h.15q3.6-.9 6.65-.9 4.8 0 5.9 2.35 1.35 2.95-3.65 8.5-5.25 5.8-13.15 9.4-.45.25-.35.75l.6.45h.05l3.85-.15q4.1 0 6.35.85 2.25.8 2.35 2.35.3 3.05-4.4 7-5.2 4.35-12.95 6.2-.5.1-.5.6t.5.6q4.25.95 6.95 2.85 2.75 1.85 2.7 3.85-.25 2.1-3.8 4.05-4.45 2.35-11.25 2.35l-2.6-.1h-.05q-.4 0-.6.45-.1.5.3.75 3.85 2 6.5 4.4 2.95 2.7 3 4.8 0 1-1.1 2.1-2.8 2.8-8.65 2.8-4.45 0-9.25-1.75l-.2-.05q-.3 0-.55.35-.25.45.15.75 8.75 7.5 5.7 11.85-1.3 1.7-5.4 1.7-3.65 0-7.85-1.35t-7.1-3.45l-.35-.15q-.25 0-.4.15-.35.35-.1.8 2.3 4 2.6 7.6.25 3.25-1.2 4.6-.95.85-2.95.85-2.2 0-4.85-1-2.6-1.05-4.9-2.8l-.35-.15q-4.7-3.3-7.7-12.25-.75-2.3-3.15-4.5-.85-.75-3-1.85l-2.65-1.7q-1.7-2-1.45-5 3.95-1.2 7.6-3.8 5.2-3.8 8-9.65l9.1-29.85 3.65-5.35q5.6-6.75 15.25-13.8 9.6-7 20.35-13.1t18.05-8.65"/><path fill="#686d70" d="M120.45 78.15q4-5.35 5.1-12.05l.95-4.25 1.95 1.5q1.95 2.05 1.8 5.05-.6 3.9-3.2 8.55-5.2 9.25-15.2 12.85l.8-2.3q1.05-2.55 2.4-3.75 3.6-3.15 5.4-5.6M179.6 12.3q-14 7.6-26.6 16.95.6-3.35-.2-4.6L165.95 17q15.1-8.15 25.1-10.4-4.45 1.9-11.45 5.7"/><path fill="#f3b2c1" d="M75.4 119.45q-.85-1.95-2-3-.55-.65-.4-.95.1-.2.6-.2 1.2 0 3.3 1.2 2.7 1.45 3.9 3.7.4.7.6 2.7l.1.7.45 3.1q.4 1.7 3.1 3.9l.4.15.25-.05.35-.55q.15-2 .95-3.85l.45-.85.55-1.65-.3-2.85v-.2q-.8-3.35-2.7-5.8-.45-.5-.35-.75l.7-.2.5.05q1.9.35 3.75 1.55 1.85 1.25 2.4 2.55l.1.15q2.4 3.15 2.4 5.5 0 1.5-1.45 4.8-1.5 3.3-1.6 5.25-.15 1.95-.15 4.25 0 3.1.3 4.2 1 3.4.75 5.1-.25 1.9-2.2 3.7l-.2.25q-.45 1.45-2.35 2.65-1.85 1.1-3.45 1.15l-.6-.15v-.15l.3-.9.05-.1 1.15-2.2.8-2.15.05-.2.05-.1q.95-3.7-.45-7.9-.8-2.25-3.5-5.8l-2.4-3q-2.3-2.75-2.8-3.85-.85-1.9-.65-6.3v-.1q0-1.1-.75-2.8m-24.2 2.65q-2 .7-3.8 1.8-2.2 1.35-3.05 2.8-.9 1.45-1.1 3.85-.25 2.75.55 5.65.85 2.9.75 4.45-.1 1.5-1.15 2.65l-.15.2q-1.45 3.25-3.5 4.25l-1.95.65h-.15q-.1-.35.5-1.85l.6-2.15.4-2.55v-1.3l-.2-2.7q-.25-1.45-.8-2.3l-2.3-3.05q-.65-.75-2.25-2.15l-.3-.25-.1-.1q-3.9-3.35-5.2-5.3-.5-.8-1-3.15-.5-2.6-1.25-3.85t-2.85-2.9l-2.5-1.7q-.95-.65-.95-1.05.15-.3 1.1-.45l1.35-.05 3.8.6q1.5.5 2.2 1.1l.2.15q1.85.6 3.85 4.1l.55.3h.15l.45-.6-.1-3.5v-.15q-.7-2.6-3.05-5.3-.55-.6-.55-1l.45-.05h.05q2.8.1 4.65 1.2l1.95 1.75q1.15 1.2 1.5 2l.1.1q1.15 1.15 1.45 2.45.2.7-.4 4l-.35 2.35.1 1 .2.4.5.3h.05q.3 0 .45-.2 1.4-1.55 1.95-3 .8-1.9.8-5.85l.15.25z"/><path fill="#686d70" d="M92.45 118.55q-1.15 2.85-1.85 3l-2.9-.6-2.55-5.9q-.85-1.35.5-1.1 1.2.2 3.25 1.35 2.75 1.55 3.55 3.25M77.3 116.9q2.65 1.6 3.7 3.5-1.1 2.7-2.45 2.75-.85.05-1.7-.4l-.7-.4-.55-2.2q-.85-2.5-2.2-3.7l-.15-.6q.05-.6.75-.5 1.3.3 3.3 1.55m11.05 31.15q.6.2 1.2 1.45.6 1.1.6 1.6-.05.75-2.55 2.7-2.8 2.15-4.2 1.3 2.4-5.25 2.5-6.1l.9-.6q1-.55 1.55-.35m-46.8-2q-2.2 2.7-3.75 2.35l1.35-6.6.75-.45 1.55-.15q.85.25 1.4.85t.55 1.25z"/><path fill="#888784" d="m42.95 120.7-1.25-.35q.7-.85 1.1-6.15 0 .45 4.4 4.05l4.5 3.65q-1.05.15-3.7 1.75l-2.45 1.55q-.15-2.1-.85-3.25-.4-.7-1.75-1.25"/><path fill="#b4b4b5" d="M185.1 9.35 169.7 20.3q-6.6 4.9-9.5 7.95-2.5 2.75-2.7 6.7-1.7 32.8-12.6 46.85-11.5 14.85-33.1 8.65l.05-.65q3.95-1.2 7.6-3.8 5.2-3.8 8-9.65l9.1-29.85 3.65-5.35q5.6-6.75 15.25-13.8 14.6-10.75 29.65-18"/><path fill="#b4b4b0" d="m136.55 46.5-6.2 20.85-.9-2.65q-1.25-2.65-2.95-2.85l1.9-13.9q.1-1.55 1.2-3.45.85-1.5 1.85-2.55 1.55-1.75 8.15-7.45 8.3-7.1 13.2-9.85l.05 5q-2.45 1.65-5.7 4.6-6.5 5.85-10.6 12.25"/><path fill="#515457" d="m111.85 89.8.15-.5q7.45-4.85 11.1-10.25 3.6-5.35 6-14.95 1.3 1.9 1.15 4.3-.6 3.9-3.2 8.55-5.2 9.25-15.2 12.85M153 29.25l.2-2.15q12.1-8.85 22.95-12.9-12.3 6.95-23.15 15.05"/><path fill="#888784" d="M133.7 45.55q.45-1.6 5.7-6.75 6-5.9 13.45-11.4v2.25q-2.45 1.65-5.7 4.6-6.5 5.85-10.6 12.25l-6.2 20.85-.3-1.05q-.2-1-.8-1.95l-.15-.25z"/><path fill="#b4b4b0" d="m57.05 48.75-2.15 1.1-4.8-7.75-5.4-7.8z"/><path fill="#888784" d="M41.8 30.9q-.15-1.5.15-2.8 7.55 9.15 15.1 20.55v.1l-2.15 1.1-4.8-7.75q-5.4-8.35-8.3-11.2"/><path fill="#b4b4b0" d="M57.95 43.9q1.05 2.75 0 .4l-.05-.1z"/><path fill="#515457" d="M41.85 28q-.3 1.35-.05 2.9-9.45-11.95-20.7-21.15-5.65-4.6-9.4-6.85l-.25-.15q13.4 4.7 30.4 25.25m9.8 29q6.95.25 11.9-2.1 2.6-1.25 3.7-2.55 1.2.95 2.4 5.2-1.35.5-10.1 0z"/><path fill="#d29aa8" d="M72.4 59q-1.85.15-2.7-.6-.75-4.4-1.4-5.45l1 1q1.75 1.25 4.2.85 3.95-.6 5.7-4.65l-.45 4.05q-1.1 4.15-4.65 4.5zM57.75 45.45l.9 1.2q1.05 1.3 1.9 1.5l-3.5.6.15-1.55q.2-1.6.55-1.75m-16.05 74.9 1.1.05q.65.15 1.4.8 1.2 1 1.35 4-1.45 1.35-2 3.6-.3 1.15-.3 2-.2-1.55-1.05-3.1l-.85-1.25q.1-.85-.85-2.2l-.95-1.2zm38.1 2.4-.05-.3 1.2-1.9.45 2.35.1.7.45 3.1q.4 1.7 3.1 3.9l.4.15.15-.05.6 2.2q-.9-.3-2.85-2-2-1.7-2.5-2.7-.75-1.4-1.05-5.45m11.75-2.3.85-1.75q2.1 3.05 2.1 5.1 0 1.5-1.45 4.8-1.5 3.3-1.6 5.25-.15 1.95-.15 4.25 0 3.1.3 4.2 1 3.4.75 5.1-.25 1.9-2.2 3.7 0-.75-.75-1.9 1.65-3.55.85-5.9-.85-2.55-.55-7.2.25-4 .85-5.45l1.05-2.4q.7-2 .85-4.55.15-1.35-.9-3.25"/><path fill="#515457" d="m85.35 114 .85.1q2.65.85 4.75 2.6l1.05 1.45.4.55-.85 1.75q-1.05-1.85-3.1-3.7-1.75-1.6-3.6-2.6l.05-.1zM74 115.35q1 .2 2.7 1.15 2.1 1.2 3.4 2.65l.7 1.05.15.35-1.2 1.9q-.25-1.7-2.05-3.6-1.75-1.9-4.4-3.25.2-.35.7-.25M83.55 155q1.7-.45 3.3-2.1 1.6-1.6 2.55-3.7.75 1.15.75 1.9l-.2.25-.1.25q-1.2 1.65-3.35 2.95l-2.35.6z"/><path fill="#d29aa8" d="M42.05 136.15q-.4-2.65 1.15-5-.15 2.35.6 5.05.85 2.9.75 4.45-.1 1.5-1.15 2.65l-.15.2q-1.45 3.25-3.5 4.25l-1.95.65h-.1q2.9-1.85 3.95-5.55.9-3.1.4-6.7"/><path fill="#515457" d="M42 141.4q1.4.8 1.4 1.9l-1.85 2.75q-2.2 2.7-3.75 2.35v-.05q3.35-2.15 4.2-6.95"/><path fill="#d29aa8" d="m34.55 108.4 1.95 1.75q1.15 1.2 1.5 2l.1.1q1.15 1.15 1.45 2.45.2.7-.4 4l-.35 2.35.1 1 .2.4.5.3h.05l.95 2.1q-1.75-.8-2.65-1.9-.8-1-.7-1.8l.3-4.35.05-2.6q-.3-2-2.9-3.9-2.2-1.7-5.25-2.75l-.05-.3.45-.05h.05q2.8.1 4.65 1.2m-4.2 9.8-2.05-2.5q-2.6-2.85-8.75-3.4l-.1-.25q.15-.3 1.1-.45l1.35-.05 3.8.6q1.5.5 2.2 1.1l.2.15q1.85.6 3.85 4.1l.55.3h.15l.2-.1.25.6-.3 4.1q-.35-1.45-2.45-4.2"/><path fill="#686d70" d="m29.95 108.25-.5-.7-.05-.3q3.25-.8 6.45 2.15 1.55 1.5 2.5 3.1-1.4 2.15-2.4 2.2l-1.85-.45-1.1-.55q.1-.55-1.25-2.8zm-1.55 5.55q.3 1.3-.4 3.1-.3.7-2.2 1.05-.2-.8-2.25-2.5-1.5-1.2-2.8-2.05l-1.05-.9-.25-.45q2.5-1.3 6 .1z"/><path fill="#515457" d="m28.4 113.8-.05 1.95-.05-.05q-1.5-1.6-4.35-2.5-2.05-.7-4.35-.9l-.15-.25q2.5-1.3 6 .1zm1-6.55q3.25-.8 6.45 2.15 1.55 1.5 2.5 3.1l-.9 1.15q-.6-1.85-3.05-3.6-2.15-1.55-4.95-2.5z"/><path fill="#888784" d="m114.65 41.65 6.6-3.75q-4.55 5.3-5.4 5.8zM112.9 73.9q-.65-2.65.95-7.65l3.15-8.8-.15 3.5-.15 5.15q-.1 2.9.5 5.5.95 3.85 3.4 5.6l.35.1h.1l.4-.3.5-.75-.15.7q-.5 1.1-4.65 5l-1.7-2.15q-1.85-2.8-2.55-5.9"/><path fill="#686d70" d="m116.7 66.1.25 5.9q0 1.3 2.05 3.65l2 2.1-3.85 4.2q-2.15.35-5.05-1.5-2.85-1.85-3.1-3.65-.25-1.65 1.2-4.15 1.3-2.35 2.25-2.55 1.05-.3 4.25-4"/><path fill="#515457" d="M116.95 72q0 1.3 2.05 3.65l2 2.1-3.85 4.2-1.7-2.15q-1.85-2.8-2.55-5.9-.4-1.6 0-4.05 1.35-.9 3.8-3.75z"/><path fill="#0d131a" d="M68.95 57.15q.5-.7-1.75-4.1-2.4-3.65-4.65-3.95-4.15-.65-10.25 2.6-5.55 2.95-5.25 3.85.3.8 10.85 1.55t11.05.05m0 1.25-4.65.1-5.45-.15q-.7 2.7-.5 4.5.25 2 1.55 2.45 2.55 1.1 5.65-1.35 3.1-2.35 3.4-5.55m-1.25-6.75q2.5 3.35 2.5 6.15-.05 4.25-3.9 7.15-3.75 2.85-6.9 1.45-1.65-.8-2-3.7-.3-2.25.2-4.4l-7.7-.65q-4.1-.5-4.5-1.45-.6-2 5.55-5.45 6.5-3.65 11.8-2.85 2.4.4 4.95 3.75"/><path fill="#0d131a" d="M60.5 65.6q.25.2-.5.6-1.25-.8-1.45-3.2-.15-2.3.75-5.4l.4-.05q.45.05.4.25-1.9 6.45.4 7.8M79 117.8q2.25-1.7 5.55-3.45l.8 1.1q-3.75 2.05-5.55 3.25z"/><path fill="#0d131a" d="M105.4 92.75q0 5.85-2.45 10.1-2.55 4.35-8.1 7.65l-7.4 3.95-1.75-.7.1-.05 8.35-4.5q4.6-2.7 7.15-7.1 2.45-4.35 2.45-9.35 0-6.45-4.05-12.1-4.5-6.15-12.95-9.85Q70.4 63.7 57.6 76l-1 .65q-.2-.1-.1-1.15.3-4.3-1.05-7.15-1.05-2.3-2.55-2.7l.3-.7q.4-.7.6-.65 2 .75 3.1 4.1.9 2.85.75 5.9 5.6-5.4 12.9-6.85 8.1-1.6 16.7 2.15 8.8 3.8 13.65 10.3 4.5 6.05 4.5 12.85M76 121.9q-3.5 3.5-6.1 8.85l-.5-.1q-.4-.25-.3-.45 2.9-5.9 6.75-9.7z"/><path fill="#0d131a" d="M66.75 57.7q.8-.05.7.3-.65 2.75-2.35 5.2-1.9 2.7-4 3.35-.2.05-.95-.4l-.55-.4q2.15-.15 4.35-2.65 2.15-2.5 2.8-5.4m-8.2-13.5-.3.65-.5.35Q41.95 22 24.8 9.35 18 4.3 12.7 2.25 7.75.4 5.9 1.65 3.5 3.05 9.75 15.5q6.75 13.35 15.6 21 .35.3-.45.25t-1.1-.3Q13.5 27.5 7.55 14.7 5.1 9.45 4.45 5.55q-.6-3.9.75-4.9 2.3-1.55 7.9.5 5.85 2.15 13.15 7.5 17.9 13.1 32.3 35.55m35.15 4.45q-1.15-.25-2.1.7-1 1.05-1.4 3.15-.3 1.8.1 3.2.4 1.45 1.45 1.65 1.05.25 2-.75.9-1 1.35-2.8.5-1.9.15-3.35-.4-1.55-1.55-1.8m-2.6.05q1.35-1.25 2.8-.85 1.55.35 2.15 2.3.6 1.8.05 4-.55 2.15-1.9 3.25-1.3 1.1-2.75.75-1.4-.35-1.95-2-.6-1.6-.2-3.85.4-2.3 1.8-3.6M114.55 37l2.8-6.95-7.05 2.65q-.85.4-.85-.55.4-4.85.2-4.95-.15-.05-2.65 1.7l-2.75 2q-.2.15-.9-.25-.75-.4-.55-.6.65-.5 3.05-1.9 2.5-1.4 3.5-1.8.6-.25 1 .35.5.9.35 4.55l3.25-1.2 3.45-1q.75.05.8.8 0 1.15-2.15 6.75l4.5.35q.9.3 1.05.7t-.25 1.2q-.55 1.05-5.4 5.6l-.4-.7q-.35-.75-.2-.85l3.25-2.7 2.25-2.15-5.7-.25q-.4.05-.6-.2-.15-.2 0-.6m-4.5 34.6q1.15-1.35 2.75-2.3l2.1-1.75 1.6-2.2q.1-.2.2.7v1.05q-1.2 1.75-3.5 3.1-1.1.55-2.15 2-1.25 1.7-1.2 3.25 0 2.15 1.8 3.9 2.35 2.2 6.3 1.45.25-.1-.1.6l-.6.7q-3.25.65-6.05-1.5-2.75-2.15-2.75-5.15 0-2 1.6-3.85m16.7-8.95q-.15.25-.2-.5-.05-.7.2-.7 1.4.05 2.65 1.9 1.3 2 1.3 4.5l-.6 1.1-.55.65q.35-2.7-.85-5.05-1.05-2.1-1.95-1.9M153.3 29.4l-1.05.6-.75.1q.95-1.1 1.2-2.55.2-1.35-.25-2.05l.4-.45q.55-.35.6-.25.4.75.4 2 0 1.45-.55 2.6m40.05 25q.45 4.7-7.6 9.65-8.85 5.5-20.05 5.2l-1.6-.3 1.6-.3q9-.25 18.2-5.55 8.6-5.05 8.25-8.6-.2-1.4-2.95-1.9-4.3-.85-15.15-.1 2.15-1.35 2.4-1.35 9-1.05 13.25.05 3.5.95 3.65 3.2m-30.6 27.4q-.2-.1.9-.3l1.35-.15q3.95 1.6 7.6 4.5 4.5 3.55 4.55 6.4 0 1.6-1.95 3.1-2.2 1.75-5.7 2.25-9.5 1.35-22.05-6.55-.95-.6-.85-.85.1-.3 1.1.25 12.4 6.5 21.3 5.55 3.2-.35 5.2-1.6 1.75-1.1 1.75-2.15.1-2-3.8-5.2-4.1-3.3-9.4-5.25m-18.4 29.75q1.15 5-1.05 7.1-1.4 1.25-4.4.95-3.1-.3-6.45-2.1-8.35-4.6-10.55-14.05-.25-1.15 0-1.25.3-.15.65.95 3.15 8.7 10.8 13.05 2.95 1.7 5.65 2.1 2.5.35 3.45-.55 1.85-1.7.7-6.5-1.3-5.2-5.5-10.1-1.1-1.3-.85-1.55.2-.3 1.35.95 4.95 5.45 6.2 11"/><path fill="#0d131a" d="M43.95 25.75q.25.1.2.7 0 .55-.25.45-2.05-1.1-1.3 4.3l-.6.1-.65-.4q-.4-2.75.3-4.3.75-1.65 2.3-.85M21.2 69.45l-.85.35-1.4.2q-9.9-2.9-14.25-7.85-3.75-4.25-2.05-7.7 1.95-3.8 8.65-3.55 6.35.3 12.8 3.95 1.75 1 1.65 1.25-.15.25-2.05-.55-6.95-3-12.65-3.25-5.9-.2-7.3 2.7-1.2 2.45 2.75 6.65 4.85 5.2 14.7 7.8m-.5 17.05q1.8-2.25 5.5-3.9l1.95.4q-4.25 1.75-6.2 3.9-1.45 1.55-1.35 2.95.25 3.6 5.4 4.7 5.2 1.1 9.4-1.5l.55.4q.35.55.1.65-5.3 3.25-10.8 1.8-5.45-1.4-5.85-5.95-.15-1.65 1.3-3.45M56.6 49q-.4-3.5 1.7-6.2 1.85-2.5 3.75-2.15.85.25 1.3 3.4l.3 4.25q0 .25-.6.25-.65 0-.65-.25l-.25-4.2q-.25-2.2-.55-2.25-.95-.15-2.25 1.8Q57.8 46 58.1 48.9q.05.25-.75.3-.75.05-.75-.2m-14.35 63.45.6.1.6.6q.1 4.15-.8 6.65l-1.45 2.4q-1.05 1.3-1.5 1.3l-.35-.5q-.15-.5.05-.65l1-1.1 1.1-1.9q.95-2.35.75-6.9M201.55 5.7q1.25 1.7-1 6.2-2.25 4.45-6.85 9.55-11.45 12.65-24.4 16.45l-1.5.15q-.2-.25 1.15-.7 11.7-4.1 23.1-16.75 4.35-4.9 6.85-9.1 2.4-4.05 1.65-5.1-1.2-1.8-9.85.7-9.5 2.75-21.85 9.15-10.05 5.2-19 11.35-9.95 6.85-16.8 13.7-3.3 3.3-3.55 6.7-.35 5.3-3.75 20.55-1.8 8.8-9.85 15.3-2.75 2.25-3.25 5.4-.4 2.5.6 4.7.5 1.05.25 1.2-.3.1-.95-.9-1.6-2.35-1.15-5.3.45-3.4 3.75-6.05 7.55-6.1 9.3-14.6 2.9-13.7 3.35-20.4.25-3.85 3.9-7.5 6.95-6.9 17.2-13.9 9.2-6.25 19.4-11.5 12.55-6.5 21.85-9.15 9.45-2.65 11.4-.15"/><path fill="#0d131a" d="M41.75 120q1.55-.2 2.85 1.1 1.85 1.75 1.5 3.9-.05.2-.8.6l-.65.1q.4-.85.3-1.95-.15-1.25-.95-2-1.1-1.05-2.6-.45-.35.15.35-1.3m50.3-2.75q1.4 1.6 2.25 3.45.85 1.8.85 3.1 0 1.7-1.45 5-1.55 3.4-1.65 5.1-.15 1.6-.15 4.2 0 2.9.3 4 1.05 3.5.75 5.35-.3 2.1-2.4 4.1-.1.1-.55-.3-.5-.4-.35-.55 1.7-1.8 1.95-3.9.2-1.7-.55-4.35-.4-1.35-.4-4.35l.2-4.3q.15-2.05 1.55-5.5 1.35-3.25 1.3-4.5 0-2.5-2.15-5.5-.5-.7-.25-1.2.2-.5.75.15m-18.1-1.4q-.2-.05-.1.15 1.25 1.3 2.1 3.2.8 1.75.8 3 0 .95-.6.95t-.6-.95-.7-2.55q-.8-1.8-1.85-2.75-.8-.8-.6-1.55.2-.7 1.2-.7 1.35 0 3.65 1.3 2.85 1.65 4.05 4 .45.75.75 3.1.2 2.55.45 3.45.25 1.05 1.75 2.55l2 1.65q.25.2-.35 1.65-3.8-2.85-4.55-5.5l-.55-3.65q-.15-2-.55-2.65-.9-1.55-2.45-2.75-1.75-1.4-3.85-1.95"/><path fill="#0d131a" d="m40.55 123.65 1 2.1q.2 1.25-.05 1.3-.3 0-.55-1.15l-1.3-1.9-1.3-1.75-.2-1.2.4-3q.35-2.1.2-3.3l-.45-1.35q-.4-1.1-.6-1.15-.7-.5-.45-.85.3-.35 1 .15l1.2 1.45q.55.9.7 1.55.2.75-.25 3.35l-.5 3.15.1.8zm37.9 8.4q-1.7-2.05-2.2-3.15-.9-2.05-.7-6.7 0-.9.6-.9t.6.9q0 4.85.6 6.2l2.05 2.85 3.1 3.85q2.75 3.75 3.55 6 1.6 4.5.4 8.7-.25.85-.85.7t-.35-1.05q1.15-3.8-.35-7.95-.75-2.05-3.4-5.65zm-45-13.25-.65 1.05-2.25-3.6q-1.5-2.15-2.3-2.3l-.7-.7q-.3-.65.05-.6 1.65.15 3.4 2.3zm52.5-5.4q2.3.45 4.4 1.95 2.2 1.65 2.5 3.35.15 1.05-.45 1.15t-.8-.95q-.1-1.15-2.1-2.65t-4.1-1.9q-.3-.05-.1.2 2.4 3.3 3 6.15 0 1.35.35 3.1l-.45 1.55-.65 1.2q-1.8 4.15-.65 7.55.25.75 0 .8-.2.1-.6-.6-1.9-3.55.15-8.25l.65-1.25.3-1-.3-2.95q-.7-2.95-2.6-5.55-.75-.8-.3-1.45t1.75-.45"/><path fill="#0d131a" d="M33.65 113.65q.2.85-.1 8.65 0 .75 2.3 4 .7 1 .4 1.2-.25.2-.95-.75l-1.65-2q-1.25-1.55-1.3-2.4.3-7.5.05-8.55-.15-.7.45-.8.6-.05.8.65m17.6 7.8q1.55.8 1.2.9-1.95.5-4.1 1.7-2.6 1.45-3.5 2.95-.85 1.4-1 3.7-.2 2.6.55 5.3.85 3.1.75 4.7-.1 1.7-1.3 3-.4.4-.85 0t-.05-.8q1.6-1.75.25-6.55-.75-2.7-.55-5.6.2-2.75 1.15-4.4 1.95-3.15 7.45-4.9m48.45-75q-1.3-3.7-4-4.5-3-.9-5.65 1.05-3.2 2.3-4.6 7.8-1.2 4.7.05 8.6 1.2 3.8 4.1 4.75 3.2 1.05 6.05-1.35 3-2.55 4.25-7.7 1.15-4.8-.2-8.65M89.15 42.4q3.3-2.35 6.85-1.3 3.35 1 4.8 4.95 1.55 4.1.25 9.55-1.25 5.15-4.4 7.8-3.25 2.8-7.25 1.6-3.7-1.1-5.1-5.5-1.3-4.15-.05-9 1.35-5.55 4.9-8.1M77.75 48q-1.6-3.4-5.15-3.9-2.3-.3-5.4 1.35-3.05 1.6-3.4 3.2l-.65.1q-.65-.15-.55-.4.6-2.1 3.9-3.85 3.35-1.85 6.25-1.4 4.35.65 6.3 4.5 1.95 3.75.2 7.6-1.35 3.1-4.8 4.1-3.15.9-4.95-.45-.15-.05.15-.65.25-.65.4-.5 1.25 1.3 3.9.45 2.8-.95 3.9-3.45 1.5-3.4-.1-6.7m36.95-5.5q-.5-1.2-.3-1.35.25-.15.9.95 2.15 3.8 2.45 10.5l-.25 13.35q-.25 8.3 3.95 10.8.3.15-.95 1.45-4.65-2.85-4.45-12.1.5-9.2.45-13.05 0-6.45-1.8-10.55m-10.3-11.9q1.45.85 1.3 1.15-.15.25-1.6-.55-13.7-7.1-26.5-3.35-12.05 3.5-15.1 13.6l-.75.05-.6-.4q3.4-11.35 16.45-14.8 13.45-3.55 26.8 4.3m24.95 83.25q.15-.2.65.35t.35.75q-4.8 6.8-15.05 11.95-11.1 5.55-23.8 6.6l.25-1.35q12.25-1.1 23.1-6.7 9.95-5.1 14.5-11.6"/><path fill="#0d131a" d="M34.9 95.25Q34.45 89.3 37 83.3q2.75-6.4 8.5-11.6t9.8-9.9l1.2-1.8q.45-1 .15-2.15l.55-.35.65.05q.35 1.5 0 2.5-.3.95-1.65 2.55l-4.4 4.6-5.5 5.45q-5.15 4.65-7.65 10.65-2.45 5.85-1.95 11.85 1.25 15.15 14.75 25.5 11.8 9.15 27.7 11.25l1.1 1.55q-17.15-1.7-29.7-11.05-14.3-10.65-15.65-27.15m157.75-89.8 1.4-.05q.2.45-1.05.95-15.8 6.55-31.95 17.85-17.55 12.3-23.55 22.35-.3.45-4.2 13.75-4 13.55-5.3 16.1-2.4 4.95-7.7 9.45-5.2 4.45-8.5 4.5-.25 0-.25-.6t.25-.6q2.7.05 7.65-4.35 4.8-4.3 7.45-8.9 1.35-2.4 5.25-16 3.8-13.5 4.15-14.05 6.25-10.3 24.05-22.6 15.95-10.95 32.3-17.8m-13.2 26.75.7-.85q5.3-1.85 9.95-2 5.8-.2 7.2 2.7 1 2.15-1.25 5.8-2.2 3.55-6.5 7.05-10.3 8.5-20.75 8.8l-1.4-.2q-.1-.25 1.35-.4 8.15-.85 18.65-8.95 10.4-8 8.75-11.6-.9-2.2-7.1-1.7-5.2.45-10.05 2.1zm-6.05 35.65q5.05.7 8.6 2.85 3.7 2.3 3.65 4.9-.4 3.65-7.25 5.8-8.45 2.65-20.4-.5-1.55-.4-1.45-.7.05-.35 1.6 0 11 2.25 19.45-.2 6.9-2.05 6.8-4.45.05-1.95-3.85-4-3.8-2-8.85-2.8l.6-.45q.85-.45 1.1-.45M152 93.4l2.45.25q10.95 8.3 9.45 13.45-1.15 4.15-9.9 3.3-9-.9-14.1-6.55l-.7-1.45-.2-.9q5.55 5.9 14.45 7.45 8.6 1.45 9.3-2.5.85-4.6-10.75-13.05M6.6 1.3q-.2-.05.25-.55l.6-.5Q12.1 1.5 19.35 7.2q6.45 5.15 14 13.05 7.45 7.8 13.45 15.65Q53 44 55.6 49.5q.1.2-.55.45l-.75.1q-2.6-5.4-8.6-13.4T32.5 21.1q-7.65-8-14.35-13.25-7.3-5.7-11.55-6.55M1 28.8q4.1-3.45 12.8.15 9 3.65 17 12.5 1.25 1.35 1.05 1.55t-1.55-1.05q-8.6-8.15-17.4-11.6-8.15-3.15-11.1-.6-.85.7-.15 3.2.75 2.7 3 5.95 5.75 8.6 16.45 14.55l-.85.25-1.5-.2q-11.1-6.75-16.2-14.9Q-2 31.3 1 28.8m23.85 41.1-2.1.25q-5.95 0-10.25 1.45-4.55 1.5-4.7 3.8-.35 3 6.65 5.6 7.55 2.85 15 .9l1.65-.15q.05.25-1.55.8-7.95 2.8-15.85-.05-7.55-2.7-7.15-7.25.4-3.35 5.35-5.05 4.7-1.65 10.85-.9 2.1.3 2.1.6m66.85 48.4q.05-.25.6 0l.55.55q-.25 2.15-1.85 3-1.65.85-3.65-.5-.2-.15.05-.7.25-.6.45-.45 1.75 1.2 2.6.8.9-.4 1.25-2.7"/><path fill="#0d131a" d="M78.7 123.6q-1.6.35-2.95-.9-.2-.2 0-.75.15-.6.35-.4 1.65 1.45 2.65 1.05 1.1-.45 1.55-3.05l.5.5.45.85q-.8 2.3-2.55 2.7m8.45 25.3q-.7.45-.7.7l-2.35 4.85-.1.3h.6q1.3-.15 3.05-1.5 1.8-1.4 1.8-2.5l-.4-1.4-.9-.85q-.3-.05-1 .4m-.45-1.05q1-.45 1.7-.35.9.25 1.55 1.15.65.95.7 2.1 0 1.8-2.3 3.45-2.15 1.55-4.2 1.55-1.35 0-1.25-.95.05-.3.45-1.25 1.7-3.05 1.9-4.15.15-.95 1.45-1.55m-53.05-39.1q-1.1-.65-3.2-1l-.45-.05.15.25q2.8 3.15 3.4 5.25l1.15.7q.75.45 1.15.35l1.1-.85.5-1.05q-2.15-2.65-3.8-3.6m1.2-.9q1.1.7 2.5 2.35 1.35 1.6 1.35 2.1-.05.9-1 1.9-.95.9-1.85 1l-1.9-.45q-1.4-.5-1.55-1-.65-2.5-2.9-5.05-.85-1.05-.7-1.6t1.15-.5q3.05.1 4.9 1.25m-8.6 9.55q.85 1.45 1.4 3.95.45 2.4.9 3 1.25 1.95 5.15 5.3l2.4 2.4 2.4 3.25q.7 1.2 1 3.05l.3 3.1q0 .25-.6.3-.65 0-.65-.25l-.15-3q-.15-1.75-.75-2.6-1.2-1.9-2.35-3.1l-2.4-2.25Q28.8 127 27.5 125q-.65-1-1.1-3.4-.5-2.45-1.2-3.6-.35-.65.15-.95.55-.3.9.35"/><path fill="#0d131a" d="M41.65 145.2q.95-1.3 1.1-1.95.2-1.05-1.3-1.5t-1.7.3l-.3 1.9-.75 2.85-.2.75 1-.35q1.05-.5 2.15-2m-.55-4.7q2.5.15 2.9 2.7-1.3 3.75-3.95 5.1-2.25 1.05-2.8.55-.5-.45.3-2.55l.8-2.9.2-1.65q.1-1.4 2.55-1.25m-14.3-23.45.7-.35q.45-.5.45-1.55l-.25-1.25q-.55-.65-2.8-1.35-2.6-.75-4.55-.45l-.35.1.35.25q4.4 2.65 5.8 4.8zm-1.3-5.6q2.15.65 3 1.55.7.7.55 2.05-.15 1.25-.85 2.2-.8.95-1.7 1.15t-1.3-.4q-.7-1.15-2.7-2.7l-2.4-1.65q-1.35-.9-1.25-1.65.05-.8 1.65-1z"/></svg>