<svg xmlns="http://www.w3.org/2000/svg" width="484" height="364" viewBox="-2 -0.75 484.4 364"><path fill="#b5b5b6" d="M453.15 75.3q8.35 1.65 12.7 6.2 5.6 5.65 5.8 16.5.55 31.5 2.35 50.15 3.95 42 4.25 73.85l1.35 40.3q1.25 34.8 1.45 58.85 0 4.4-.75 6.45-.85 2.25-3.4 4.25-1.75 1.45-7.6 3.25-5.65 1.7-8.8 1.9-2.8.15-4.55-1.2-1.6-1.1-2.1-3.05-.75-2.9-3.25-6.05-1.85.35-4 1.3-2.5 1.2-3.5 2.3-1.15 1.35-2.55 1.5-1.5.15-2.8-1.05-2.1-1.95-6.25-1l-4.55 6.25q-1.35 2-3.6 2.2l-4.8-.45q-11.4-2.1-31.55-8.1-4.55-1.4-5.7-5.3-.45-1.7-.45-8.35 0-104.05-.55-123-2.65-75.85-3.25-99.6-.15-5 2.45-8.6 2.55-3.6 7.4-5.15 14.1-4.55 34.75-5.7 19.5-1.05 31.5 1.35"/><path fill="#bf8a66" d="M453.3 49.65q1.9.2 5.25 2.25 2.95 1.8 5.8 4.2 5.5 4.65 4.45 11.25-.75 4.8-2.1 21.75-.75 6.95-8.7 5.35-6.75-1.3-11.4-7.8-4.2-5.95-4.2-12.5-8.35-.55-15.2-.3.2 3.95-2.2 7.2-2 2.65-4.8 3.85-5.35 2.25-12.75-.45-7-2.65-10.25-7.4-7.2 1.8-11.25 3.35-4.15 1.6-5.85 4.05-2.15 2.9-2.45 8.85-.2 3.35 0 8.9l.25 7.75q2.95 1.25 8.2 1.45 4.05.25 6.1 4.05 1.8 3.3 1.8 8.35 0 5-3.5 8.25-3.95 3.75-11.95 4.35l1.8 54.1q-9.4 7.95-32.7 10.25-19.9 2-29.45-.65l-61.25 14.15q-.65 2-1.65 9.6-.75 5.85-1 9.35-.2 1.9.75 3.75l2.1 2.9 13.7 4.75 9.95 12.35q12.7 7.9 17.15 21.6 4.85 15-3 29.8 4.55 1.8 10.1 6.15 6.25 4.85 5.4 7.05-1 2.55-16.75.7-14.9-1.75-22.75-4.6-3.55-1.3-4-3.85-.35-2.35 1.8-4.2-11.8-10.05-39.15-7.95-23.6 1.7-44.3 10.4-2.95 1.2-.85 4.1 1.4 1.75.7 3.95-.75 2.45-4.05 3.9-7.8 3.6-25.9 7.3-18.85 3.8-20.25 1.35-1.15-2.15 3.7-8.1 4.1-5.05 8.85-8.8-6.7-5.15-11.5-12.15-5.35-7.85-5.35-14.2 0-6.2 4.95-13.95 4.3-6.75 11.35-13.25l23.4-20.35q2.8-1.85 5.7-4.5 3.35-3.15 4.15-5.05.9-2.3-.3-11.5-1.1-8.25-2.85-14.8l-7.9-.55q17.55-11.15 26.75-30.5 8.4-17.75 9.25-40.9.6-18.6-4.4-34.25-5.7-17.5-17.65-27.95l21.7-5.8q5.2-1.1 12.65-.9l10.55.9q6.9-4.95 13.3-7.7-6.65-8.2-9.05-18.3-2.2-9.25-.5-18.15 1.65-8.55 6.35-14.15 5-5.8 11.65-6.5 5.8-.65 11.8 4 6 4.7 9.4 12.55 3.7 8.6 2.75 17.9-1.05 10.7-8.1 20.3 11.6 2.6 21.9 11.6 8.95 7.75 12.45 15.85l35.7 20.5q14.35-3.55 27.5-16.55 13.05-12.95 21.35-31.65 3.55-7.95 9.75-12.15 5.25-3.55 11-3.65 4.9-.05 8.35 3.1 3.25 3 4 7.6 4.85 5 12.35 5.25 6.5.2 12.45-3.15 3.25-1.9 5.3-2.55 2.8-.95 5.6-.55"/><path fill="#cf899e" d="M146.75 262.45q-1.6-6.2 2.15-12.75 3.85-6.65 10.6-8.6 8.75-2.6 18.65 5.6 7.9 6.55 13.1 16.3 1.75 3.3-5.55 5.55-7.35 2.25-9.55-.85-3.2-4.75-7.5-7.7-5.35-3.7-10.9-3.35-2.2.1-5.3 1.7-3.2 1.7-5.7 4.1m131.35 5.4q-2.1 3.95-8.4-1.95-6.3-5.85-5.25-9.5 1.6-5.85 1.6-9.35 0-1.1-.5-1.6-.45-.45-1.5-.6-1.15-.05-3.5-1.75t-3.7-3.4q4.95-2.55 11-1.7 6.55.9 9.65 5.45t3.05 12.5q-.05 7.4-2.45 11.9m-55.05-48.1q.3-2.8 2.4-4.85 4.85-4.4 10.55-16.95 6.2-13.85 6.35-23.6 3.7 3.95 7.35 1.35l7.75-5.5q.55 7.9-6.15 21.9-6 12.6-12.9 20.65-1 1.15-1.85 2.8-.95 1.75-1.05 3-.15 1.35-.15 12.2 0 3.7-6.6 4.85-6.55 1.15-6.4-2.7zm61.5-42.75q3.15 8.95 2.85 17.8-2.2 2.8-7.85 6.9l-8.55 5.6q3.25-8.65 1.95-21.25-1.45-13.9-7.8-20.7l8.65-5.3q7.1 6.6 10.75 16.95m73.35-85.6q-3.9 3.7-9.35 6.95-6.9 4.1-13.2 5.45l-1.2-1.7q4.8-5.95 12.55-8.9 6.4-2.4 11.2-1.8"/><path fill="#cf899e" d="M299.7 83.25q21.3 0 34.05 18.15 13.85 19.75 9.25 51.05-4.85 32.85-29.7 51.4-7.3 5.4-14.45 7.9-9 3.1-15.45.65-16.95 7.9-26.75 1.35 1.45-1.05 3.35-1.65 18.2-5.45 32.5-23.55 13.6-17.3 16.2-36.15 1.45-10.45.95-18.2-.6-9.55-4.3-18.15.6-9.8-.35-16.75-1.25-9.1-5.3-16.05m-82.1-7.55-4.7 6q-6.55-6.15-15.4-8.9-8.35-2.7-14.7-1.15l-4-2.85-4.15-2.4q9.45-6.75 22-3.4 11.3 3.05 20.95 12.7m3.55 103.5q-7.05 8.4-16.2 15-21.15 15.3-36.1 11.1 5.3-2.9 11.85-9.5 5.9-5.95 9.35-11.25 10.85-2.1 21.95-11.85 9.55-8.35 13.75-16.85 1.95 2.95 5.55 6.95-2.95 7.85-10.15 16.4"/><path fill="#cf899e" d="M201.9 104.45q4.5 16.9 2.65 37.5-1.85 20.7-12.35 38.6-9.85 16.95-23.35 24.75-9.2 5.25-15.95 6.85-9.9 2.25-16.15-2.85l-7.45.7-.25-18q14.45-7.4 22.8-27.9 6.95-17.1 7.2-35.35.25-20.25-6.35-35.65-8.2-18.8-22.95-17.2l-2.25-2.8q1.95-5 9.95-7.5 8.75-2.7 16.7.95 7.8-4.55 17.95-.8 9.45 3.45 16.7 12.25 9 10.85 13.1 26.45"/><path fill="#0f141b" d="M227.65 91.65q6.3 5.85 17.75 10.75 9.05 3.9 16.7 5.5-3.3 8.55-12.8 11.55-9 2.85-16.2-1.15-6.25-3.55-7.3-12.6-.9-7.7 1.85-14.05m64.65 18q9.3-1.35 13.4-3.95.35 4.35-.55 10.35-.85 5.7-2.25 9.8-2.35-6.65-9.8-9.95-6.95-3.1-15.4-2.1l-.25-3.55z"/><path fill="#fff" d="M234.65 96.75q3.3 2.4 8.7 4.85 4.65 2.15 9.4 3.75-1.8 4.25-6.2 6.05-4.65 2.05-8.7-.4-3.9-2.35-4.45-6.95-.45-3.8 1.25-7.3m53.5 13.45q6.25-.25 12.4-2.4.1 2.85-1.35 5.7-1.35 2.8-3.25 4-1.45-1.15-3.75-2.05-2.05-.8-4-1.15z"/><path fill="#b5b5b6" d="m268 163.45-17.45 11.7q-2.25 1.65-3.8 1.75-1.55.05-3-1.2-3.2-2.65-9.25-9.4-5.75-6.4-8.75-10.45 6.9 1.5 17.5.25 9.7-1.25 15.6-3.8 3.65-1.65 4.95.65.85 1.45 2.2 4.95z"/><path fill="#9d2846" d="M266.2 149.9q-8.05-5.6-9.05-14.05-.95-8.4 5.5-14.8 6.65-6.5 17.7-7.35 10.85-.75 17.6 5.35 6.35 5.8 6.35 15.05 0 7.05-4.8 12.55-5.5 6.25-15.05 7.55-10.05 1.35-18.25-4.3"/><path fill="#898989" d="M444.05 136.35q3.05-1.55 4.85-2.1 1.05-.3 1.4.2.35.55-.5 1.05l-4.9 2.7q-1.3.65-1.65-.35-.3-.95.8-1.5m1.55 9.15q2.1 1.85 4.2 2.1.85.15.95.65.1.4-.9.6-1.4.2-3.3-.4-2-.65-2.65-1.6t.2-1.45zm-2.9 35.35q2.95 0 4.9 1.5.8.6.55 1.1l-1.15.1q-1.1-.65-3.9-.35-1.4.1-1.55-1.1-.15-1.25 1.15-1.25m11.55 13.4q1.45.3 3.65 0 1.1-.2 1.25.75.2.9-.8 1h-2.3q-1.7-.15-2.35-.55-.7-.5-.6-.95.15-.5 1.15-.25M429.15 209l2 3.15q.45.8 0 1.15-.5.3-1.15-.55l-2.35-2.3q-.95-.9-.1-1.65.85-.8 1.6.2m-8.9 13.4q1.3 1.3 2.35 3.7.3.7-.15.9-.4.2-.75-.4l-1.1-1.4-1.7-1.65q-.8-.55-.05-1.2zm-16.6-139.8q5.6 3.3 12.25 3.3-4.9 1.65-7.55 5.65-2.45 3.8-2.35 8.85l1.85 76.55q1.15 52.95.75 67.85-2.15 3.1-4.6 8.15-2.55 5.45-2.6 7.55-.15 4.3 1.65 6.45 1.6 1.85 1.6 4.55 0 1.75 1.55 2.25-.1 4.85-1.7 26-1.55 20.45-1.55 23.15 0 11.05 5.2 12.65-18.65-4.9-21.25-6.15-3.65-1.6-4.9-4.1-1-1.9-1.05-5.35l-.1-41.25-.1-52.9q-.4-63.9-2.35-89.55 6.55-.6 9.95-2.85 4.4-2.9 4.9-9.05.55-6.05-1.8-9.8-1.95-3.15-4.55-3.15l-4.85-.6-4.4-1-.4-8.3q-.2-6.2-.05-9.1.45-6.55 4.85-9.95Q386.35 79 397 76.8q2.35 3.35 6.65 5.8"/><path fill="#898989" d="M418.45 85.1q0 4-.55 11.65l-1.1 11.65q-.25 1.65-1.15 1.75-.8.05-.75-1.65l1.05-23.25zm-8.75 162.2q-.95-.25-1.6 1.7l-1.8 4.8-2 5.8q-.95 3.5.1 5.45 1 1.85 1.45 3.75.7 2.95-.5 4.45-.5-.55-.6-2.5l-.55-1.7-1.15-1.75q-.65-.85-1.25-2.9-.7-2.35-.4-3.9.5-3.2 3.5-9.5 3.1-6.3 4.15-6.3.35 0 .5.75zm35.55-14.4q1.7 1.95.2 3.95-.35-1.25-1.9-2.25-1.45-1-2.4-.95-1.6.1-3.4 1.2-2 1.1-2.65 2.6-.65-1.9-.2-2.8.8-1.3 2.85-2.45 2.1-1.15 3.85-1.1 2.05.05 3.65 1.8m28.35-18.15q.75 2.05-.15 6.7l-1.9 7.45q-.6 2.45-.6 6.3 0 4.6 1.1 7 3.5 7.4.85 17.4-1.05 4.05-4.2 13-2.8 8.05-3.2 9.95-2.25 11.65-9.25 18.55l-1.3-1.7q2.7-3.05 5-6.75 2.45-4.1 2.8-6.55.55-4.2 4.45-15.35 3.75-10.6 4.55-15.95 1-6.45-1.1-10.45-2.05-3.9-1.85-9.2.15-4.4 1.8-9.3l1.95-5.55q1-3.15 1.05-5.55"/><path fill="#898989" d="M457.35 322q-.2 7.7.25 10.5.5 3.2 2.9 4.2-5.45.5-6.4-3.15-1.2-4.85-5.45-8.95-4.6-4.3-9.65-4.65l15.75-20.9q1.95 2.25 2.85 5.75.9 3.4.45 6.55-.5 3.4-.7 10.65"/><path fill="#595857" d="M439 319.95q3 .25 6.45 2.25 3.55 2.1 4.85 4.5-1.95.65-3.85 1.55-2.35 1.1-3.1 2-1 1.05-2.3 1.4-1.45.4-2.4-.5-1.1-.95-3.2-1.5l-3.6-.25q5.85-8 7.15-9.45"/><path fill="#986c4f" d="M211.9 173.05q-11 9.55-22.3 11.75 4.25-6.4 7.6-13.65 2.65-5.8 3.95-10.35 4.45 6.7 10.75 12.25m46.95 39.6q-2.5.7-2.9 3.65l-1 9.6q-6.05 3.1-20 2.95l.7-9.1q.25-2 .65-3.2.6-1.75 1.95-3.25 3.7-4.25 8.4-12.3 4.5-7.85 7-14.2 9.4-.3 19.1-3 .85 4.85.55 11.05-.3 6.5-1.65 12.05-7.05 4.1-12.8 5.75m-33.1 1.9q-2.5 3.05-2.6 5.1l-.35 8.6q-14.15-1.35-25.9-4.8-12.95-3.85-18.25-8.95l-1.6-8.35-3.45-.15q11.7.6 26.65-8.75 12.55-7.8 20.8-17.85 8.8 4.95 19.7 6.7-1.65 6.4-6.95 15.9-4.5 8.2-8.05 12.55m78.05-45.4q-4 13.15-16.3 25.3-.15-8.25-2.1-15.15 9.45-4.1 18.4-10.15"/><path fill="#ab6f82" d="M221.05 179.4q-8.25 10.05-20.8 17.85-14.95 9.35-26.65 8.75l-4.75-.9q11.5-6.35 20.75-20.3 11.3-2.2 22.3-11.75-.25 2.9 2.7 5.2 3.05 2.3 6.45 1.15m2.1 40.25q.1-2.05 2.6-5.1 3.55-4.35 8.05-12.55 5.3-9.5 6.95-15.9 1.25 2.65 5.55 2.8 4.2.15 7.35-2.1-2.5 6.35-7 14.2-4.7 8.05-8.4 12.3-1.35 1.5-1.95 3.25-.4 1.2-.65 3.2l-.7 9.1q-2.5 2.2-6.6 2.1-4.25-.1-5.55-2.7zm49.6-35.85q3.45 1.4 7.1.15 3.75-1.25 5.55-4.65 1.95 6.9 2.1 15.15-7.3 7.3-15.85 12.45 1.35-5.55 1.65-12.05.3-6.2-.55-11.05"/><path fill="#ab6f82" d="M267.6 216.7q-7.6.15-10.75-2.85 2.2-1.2 3.35-1.65 15.95-5.9 28-18.25 14.15-14.5 19.1-34.35.9 2.05 3.8 2.65 2.75.5 6.1-.55 8.15-2.45 8.85-8.35 4 4.45 10.4 2.65 6.45-1.9 7.45-8.45-3.35 33.35-27.45 53.65-9.35 7.85-18.9 10.95-9.1 2.9-13.7.05-7.8 4.35-16.25 4.5m-63.35-69.55q-2.85 20.1-13.75 36.4-9.1 13.6-22.05 22.15-6.6 4.5-15.5 6.3-11.1 2.3-16.5-2.75l-7.1.7-.3-17.6q16.1-10.25 23.85-30.5 7.15-18.6 6.25-42.45.95 7.1 10.35 10.5 8.6 3.05 14.7.7.45 6.9 7.9 12.1 6.5 4.45 12.15 4.45m-21.1-75.2q-3.1-2.45-4.7-3.4 16.85-5.05 36.2 11l-1.5 2.25q-6.05-5.7-13.75-8.5-8.75-3.25-16.25-1.35"/><path fill="#986c4f" d="M378.65 143.15q.65 26.7 1.45 47.2-6.65 6.45-28.2 9.75-21.65 3.3-33.6-.4 9.6-8.15 16.5-21 7.35-13.7 7.75-25.95 8.2-.5 19.45-3.5 11.25-2.95 16.65-6.1"/><path fill="#898989" d="m260.05 151.75 2.3-.1q1.05.3 1.7 1.65 2.75 5.5 4.25 10.1-11.05 6.75-18.05 12.05-3.65 2.8-7.25-.25-2.9-2.25-11.65-11.95 2.45 2.25 5.75 3.45 3.25 1.1 5.7.6 1.95-.35 7.6-5.35 5.9-5.2 9.65-10.2"/><path fill="#986c4f" d="M268.3 163.4q-1.5-4.6-4.25-10.1-.65-1.35-1.7-1.65l-2.3.1q2.15-2.95 2.9-4.7 4.05 4 9.85 5.85 5.75 1.8 12.55 1.2-7.2 3.4-17.05 9.3"/><path fill="#7d1935" d="M257.35 131.65q1.25 5.5 7.35 9.15 5.8 3.5 13.7 4.3 8.05.75 14.9-1.85 7.55-2.75 11.2-8.95.7 7.55-6.75 13.95-7.4 6.2-16.25 6.1-9.75-.1-17-5.9-8.25-6.6-7.15-16.8"/><path fill="#986c4f" d="M249.15 1.4Q237.75 8.1 237.2 25q-.55 17.05 10.6 31.7-3.55.4-6.5 1.6-6.2-7.6-8.95-17.15-2.6-9-1.5-17.55 1.15-8.7 5.7-14.5 4.9-6.2 12.6-7.7M421.3 62.25q3.3 2.3 10.8 2.95 7.4.6 11-.9-1.2 6.15-.9 9.6-3.05-.35-15.4-.35-.4-3.15-2.65-6.1-1.9-2.55-2.85-5.2"/><path fill="#986c4f" d="M392.6 66.4q2.4 6.3 9.75 10.5 6.5 3.75 12.3 3.55 5.3-.15 8.15-3.6 2.95-3.55 1.8-8.75 3.6 3.7 1.65 9.85-2.1 6.75-9.8 7.45-8.75.75-15.15-4.05-6.95-5.05-8.7-14.95m66.8 28q-7.15-1.25-11.45-5.45-5.9-5.75-5.6-16.3 1.65 6.15 5.85 10.9 4.45 5.1 9.95 6.2 2.65.5 4.9-.65 2.7-1.2 3.7-4.15.45 4.95-1.55 7.5-1.95 2.65-5.8 1.95m-94.35 39.8q-4.2-2.65-4.75-9.55 2.9 5.3 15.6 5.85 12.85.6 17.2-4.7-.65 3.8-3.4 6.5-4.05 3.9-11.5 4.05-9.25.2-13.15-2.15m-232.7 146.9q2.6-7.05 7.05-10.95-3.8 10.3 3.6 18.4 7.5 8.3 18.55 4.65 31.65-10.3 59-11.25 25.6-.85 44.35 6.6 15.65 6.25 24.4 1.2 8.1-4.65 6.8-16.2 4.1 7.5 3.65 17.2-.4 9.55-4.9 17.25 4.4 4.3 6.85 8 2.95 4.6 1.75 6.85-8-.35-18-1.85-12.15-1.85-16-4.1-2.1-1.2-2.65-3.1-.65-2.2 1.45-4.15-3.35-4.3-13.9-6.6-11-2.45-24.25-1.4-12.55 1-25.55 4.15-10.65 2.65-19.75 6.2-1.15.45-1.45 1.4-.25.9.45 1.95 1.55 2.25 1.05 4.45-.6 2.7-4.25 4.15-7 2.8-20.2 5.9-14.15 3.35-20.2 3.35.75-3.2 3.5-7.85 2.8-4.75 5.85-8.05-6.6-4.45-12.05-11.35-6.5-8.45-7.05-15.85-.25-3.25 1.9-9"/><path fill="#ab6f82" d="M148.55 250.55q9.05-4.7 18.2.55 8.95 5.1 15.6 18.15-4.7.6-6.2-1.55-3.2-4.75-7.5-7.7-5.35-3.7-10.9-3.35-2.2.1-5.3 1.7-3.2 1.7-5.7 4.1-1.45-5.8 1.7-11.9zm123 16.9q3.6-7.2 3.65-14.85 0-7.5-3.35-13.55 3.75 1.6 5.65 4.4 3.1 4.55 3.05 12.5-.05 7.4-2.45 11.9-1.65 3.1-6.55-.4"/><path fill="#0f141b" d="M386.45 81.55q-8.7 3.45-8.4 12.6l.35 16.1-2.1-.45-.4-16.35q-.1-5.6 2.35-9.05 2.3-3.15 7.2-5.15 3.85-1.6 11.05-3.15l1.35 2.5q-7.95 1.55-11.4 2.95m-7.3 54.65q.9 29 2.05 56.25.4 8.55.4 61.55l-.05 41.1q.05 20.4.4 26.1.2 2.9.9 4.3 1 2.1 3.6 3.05 4.55 1.75 17.05 5 12.15 3.1 17.15 3.9 2.05.3 3.25-.05 1.55-.5 2.8-2.35 4.2-5.85 15.1-20.1 10.45-13.65 14.4-18.5 5.3-6.45 6.2-12.5.55-3.75 4.45-14.2 2.4-6.5 3.8-12.9.8-3.55.8-6.15-.05-3.4-1.6-6.35-1.8-3.6-1.85-8.3-.1-4.4 1.35-8.3l2.4-6.85q1.1-3.45 1-5.65-.05-1.2.45-1.25.45 0 .6 1.2.25 2.4-.75 6l-2.4 7q-1.35 3.7-1.15 8.05.15 4.4 1.75 7.55t1.65 6.85q0 2.75-.85 6.55-1.35 5.85-3.95 13-3.5 9.3-4.25 14-1 6.9-6.3 13.3-3.55 4.35-14.35 18.75l-15 20.3q-2.9 4.1-7.85 3.3-5-.85-17.75-4.2-12.85-3.45-17.6-5.3-3.05-1.1-4.25-3.55-.8-1.7-1.1-5.15-.35-5.05-.15-26.3l.25-41.35q.1-50.7-.4-61.5l-1-21.9-1.2-34.35zm63.3-61.25q-7.05-.5-15.55-.2l-.25-2.05q8.75-.25 15.7.3z"/><path fill="#0f141b" d="M467.3 81.85q6.15 6.9 6 15.7-.25 10.05.6 28.05.75 17.2 2.2 36.45l2.4 29.95q1.15 15.15 1 21.2-.1 10.55 1.1 40.1l1.2 33.8q.6 19.95.55 35.4 0 3.85-.6 5.7-.8 2.15-3.2 4-2.2 1.8-7.95 3.5-5.9 1.75-10.6 1.95-2.8.2-4.3-.75-1.6-1-2.5-3.8-1.65-5.15-6-8.7-4.15-3.35-8.85-4.05l1.15-2.05q4.65.9 8.95 4.8 4.55 4.1 6.3 9.6.7 2.05 1.85 2.85 1.1.7 3.35.6 4.45-.2 9.9-2 5.1-1.65 7.35-3.45 1.8-1.5 2.5-3.25.6-1.8.6-5.1 0-15.55-.6-35.4l-1.35-33.75q-1.3-31.7-1.1-40.25.05-6.3-.9-20.95l-2.2-29.85-2.55-36.5q-1.1-18.9-.95-28.15.15-7.75-3.8-13.1zM274.75 36.6q-1.4 10.7-8.35 19.45l-2.05-.4q6.6-8.4 7.9-18.6 1.1-9.05-2.15-17.65-3.05-8-8.75-12.8-5.8-4.9-11.9-4.25-6.35.65-11 6.35-4.5 5.45-6 13.85-1.65 8.7.6 17.6 2.4 9.8 8.85 17.7l-1.95.7q-6.75-7.85-9.35-18-2.4-9.35-.85-18.45 1.55-9 6.55-14.9Q241.55 1 249.15.1q7.25-.85 13.8 4.3 6.3 4.95 9.55 13.55Q276 27 274.75 36.6"/><path fill="#0f141b" d="M204.95 95.5q5.8-16.1 17.55-27.05 11.8-11.05 24.65-12.1 1.45-.1 1.45.35.05.45-1.4.65-10.7 1.5-23.05 13.25-12.2 11.65-17.8 25.55-.8 2-1.45 1.7-.7-.25.05-2.35m93.65-16.85q14.25 22.9 5.65 49.35l-1.85-3.3q7.05-25.55-7.15-46.5-5.95-8.95-14.65-14.8-8.35-5.75-17-7.2-1.15-.2-1.1-.8.05-.65 1.2-.5 10.1 1 19.4 7.35 9.35 6.35 15.5 16.4"/><path fill="#0f141b" d="M264.4 147.15q6.6 5.85 16.75 6 8.6.1 14.95-4.9 6.4-5.1 7.05-12.5.7-8.55-4.2-14.35-5.25-6.2-15.05-6.75-10.45-.55-17.7 4.45-7.15 5.05-7.9 13.25-.8 8.85 6.1 14.8m1.35-30.2q8-4.8 18.1-4.2 10.35.55 16.35 7.2 5.75 6.35 5.15 15.9-.5 8.65-7.75 14.05-6.9 5.15-16.5 5.15-10.6 0-18.05-6.2-8.1-6.65-7.2-16.7.85-9.75 9.9-15.2m39.85-10.45q-6.55 3.8-17.75 4.6-11.25.75-23.7-1.75-29.4-6-43.65-24.35-.6-.9-.25-1.2.35-.25 1.1.6 13.4 15.7 41.1 22.15 12.35 2.9 23.6 2.6 11.7-.35 19.25-4.2z"/><path fill="#0f141b" d="M293.8 95.35q-9.7 5-23.6 2.85-15.35-2.35-25.85-12.45-.85-.75-.5-1.15.3-.35 1.2.45 9.8 8.4 23.85 11.15 14 2.7 24.55-1.75.95-.35 1.1 0 .15.45-.75.9m-30.8 13q-3.4 8.2-12.5 11.6-8.5 3.15-15.65.15-7.35-3-9.5-12.1-2.05-8.55 1.6-16.65l1.3.9q-3.2 7.65-1.25 15.6 2.1 8.35 8.45 10.65 7.25 2.65 15-.5 7.75-3.1 11.1-10.1z"/><path fill="#0f141b" d="M253.45 105.7q-1.95 4.2-6 6.1-3.6 1.7-7.1 1.05-5.1-.85-7.1-6.3-1.95-5.35.9-9.95l1 .6q-2.45 4.3-.55 9 1.9 4.5 5.95 5.2 3.65.65 7.1-1.3 3.1-1.8 4.65-4.8zm25.05 4.45.2 3.5-1.9.25-.2-3.75zm22.75-2.35q.05 2.85-1.1 5.65-1.3 3.05-3.5 4.45l-1.15-.85q1.9-1.15 3.1-3.85 1.2-2.5 1.25-5.05zm-13.6 6.45q-.35-1.7-.15-3.9l1.35.05q-.15 1.75.2 4.05z"/><path fill="#0f141b" d="m239 99.55 5.4 2.55q-.55 1.05-1.75 1.5l-2.3-.15q-1.1-.5-1.45-1.65t.1-2.25m53 10.3 3.55-.5q.4 1.3-.1 2.65-.55 1.45-1.7 1.4-.95-.1-1.45-1.25-.5-1.1-.3-2.3m-31.35 35.5q-8.6-.35-20.2-7.45-11.95-7.3-16.95-15.75l-3.35 2.95-1.15.65q-.3-.1.3-1.15 1.45-2.7 4.05-4.65.45-.4.75.1 4.3 7.8 16.1 15.25 11.45 7.2 19.35 7.65z"/><path fill="#0f141b" d="M214.4 135.65q4.25 9.9 14.95 23.3 9.9 12.35 15.5 16.1 1.2.8 2.15.75.85-.15 2.15-1.05 22.2-15.6 34.85-20.8l6.6-.95q-7.3 2.5-21.25 11-12.1 7.35-19 12.8-1.75 1.3-3.35 1.45-1.5.05-3.25-1.15-5.9-3.9-15.95-17.05-10.95-14.3-14.35-24.1-.35-1.15.05-1.35.45-.1.9 1.05"/><path fill="#0f141b" d="m226.3 156.15-1.2-1.95q6.25 2.6 17.9 1.15 10.45-1.25 16.45-4.35 3.3-1.7 5.2 1.45 1.2 2 2.5 5.45l1.85 5.25-1.65.75q-.5-2-1.75-5.15-1.35-3.25-2.5-5.3-1-1.65-2.95-.65-6.6 3.3-15.8 4.5-10.55 1.4-18.05-1.15m229.1 142.7q4 4.25 3.25 12.1-1.05 12.45-.7 20.9.05 1.5-.45 1.55-.45 0-.55-1.5-.65-10.25.3-21 .7-6.85-2.75-10.8zm-23.1 29.9 3.2.2q1.85.45 3.1 1.4 1 .8 1.65.9.85.1 1.7-.65 3.3-3.5 8.3-4.45l.8 1.25q-5.4 1-8.35 4.15-.95 1.05-2.2 1.05-1.35.05-2.65-1.15-1.1-1-3.05-1.3l-3.3.15zm-15.45-243q-.2 11.6-1 22.45-.1 1.45-.65 1.4-.5 0-.35-1.45.35-6.95.35-22.25zm-2.75 36.65q-6.75 13.35-10.75 23.5-.55 1.45-1 1.25-.45-.15.05-1.6 1.85-5.55 4.85-12.2 3-6.5 5.95-11.4.65-1.1 1.1-.95.4.25-.2 1.4m-32.95 29.3q.1-.4 1.3-.2 2.7.7 5.05 2.7 2.5 2.15 2.95 4.6.65 3.75 2.6 5.45 1.15.95 2.4.25 1.2-.75 1.3-2.8.15-1.1.5-1.1.45-.05.5 1.05.2 2.95-1.7 4.15-1.85 1.1-3.9-.45-2.6-1.9-3.25-6.2-.4-2.2-2.4-4.05-1.85-1.75-4.4-2.6-1.1-.35-.95-.8M441 232.05q-1.75.2-3.65 1.35-1.85 1.1-1.95 1.95-.4 2.05 1.15 4.9 1.5 2.8 2.95 2.85 1.2.05 3.6-3.35 2.4-3.35 2.3-4.65-.1-1.45-1.6-2.4-1.4-.8-2.8-.65m3.8-.35q2 1.45 2.05 3.35.05 2.1-2.8 5.8-2.9 3.7-4.6 3.7-2.05 0-3.95-3.3-1.95-3.35-1.35-6.15.2-1.5 2.3-2.9t4.3-1.65q2.1-.3 4.05 1.15m-35.95 13.8q-.8-.05-3.9 6.85-3.05 6.95-3 8.8.15 3.65 1.15 5l1.65 2.4q.65 1.35.65 2.9 0 1.15 1.2 1.5 1.15.4 1.8-.7 2.1-3.4 4-5.15.8-.75.8-1.5l-.55-1.7q-.5-1.25-.75-3.55-.35-2.45-.2-4.15.35-3.1-1.1-4.4-.95-.95-1.3-3.75zm1.5 1.55q.5 3.1 1.25 3.85.95.9 1.3 2 .35 1.3.15 3.35-.1 1.5.3 3.85.3 2.1.75 3.3.6 1.5.55 2.45-.05 1.3-1.15 2.35-2.65 2.4-4 4.7-1.3 2.1-3.5 1.35-2.15-.65-2.15-2.75 0-2.5-1.65-4.5t-1.7-5.95q0-2.2 3.45-9.55 3.7-7.75 5.3-7.45.7.15 1.1 3M126.4 71.7q5.25-7.5 16.35-7.9 10.9-.45 19.65 6.3 17.25 13.2 21.7 39.7 4.05 24.75-4.3 51.05-7 22-20.1 35.45-13.45 13.7-29.55 14.5l-.05-1.7q14.95-.7 27.55-13.9 12.55-13.2 19.5-35.15 7.7-24.3 4.6-47.55-3.6-26.6-20.75-40.2-7.95-6.3-17.65-6.3-10.2 0-15.45 7.35z"/><path fill="#0f141b" d="M201.55 98.8q5.5 16.55 4.65 37.15-1.15 28.45-14.8 48.95-11.5 17.2-28.9 25.25-7.65 3.5-14.9 3.6-8.2.1-12.45-4.4l1.75-.55q4.3 3 10.5 2.9 6.3-.2 13.85-3.5 16.25-7.2 27.65-24.05 13.65-20.3 14.8-48.25 1.5-38.1-17-58.6-7.55-8.35-16.5-11.15-8.6-2.65-15.4.75l-2.3-1.1q7.45-4.45 16.95-2.1 9.8 2.35 18.1 11.05 9.15 9.45 14 24.05"/><path fill="#0f141b" d="M212.45 82.35q-6.8-6.05-14.45-8.7-7.6-2.55-14.3-1.1L182 71q8.2-2 15.9.45 7.6 2.45 15.75 9.65z"/><path fill="#0f141b" d="M195.8 63.8q-11.25-2.6-20.35 3.05l-1.85-1.05q10.25-6.8 21.95-4.4 11.8 2.45 22.8 13.65l-1.25 1.4Q206.95 66.4 195.8 63.8"/><path fill="#0f141b" d="M202.75 64.7q5.5-1.1 12.9-1.1 8.15-.1 13 1.3l-1.7 1.8q-4.15-.95-10.65-.85l-10.95.85zM190.4 183.65q9.2-1.8 20.15-11.15 10.9-9.25 14.2-18.05l1.9 1.9q-3.4 9.05-15.2 18.55-12.05 9.65-21.9 10.8z"/><path fill="#0f141b" d="M232.2 163.85q-9.2 20.45-30.05 33.6-20.15 12.75-34.4 8.75l2.1-1.6q13.5 2.4 32.05-10 19.7-13.15 28.5-32.8zM140.8 269.5q-9.35 11.1-9.35 18.4 0 14.05 18.1 28.85 1.2.9.9 1.25-.35.3-1.5-.45-7.9-5.15-13.15-11.9-6.75-8.75-6.8-17.75-.05-8.05 10.2-19.95 10.4-12 18.55-12.7 5.05-.4 10.7 3.25 5.5 3.5 8.55 8.75.6 1.1.3 1.55-.35.45-1.15-.55-4.05-5.1-8.7-7.95-5-3.05-9.5-2.7-7.55.55-17.15 11.9"/><path fill="#0f141b" d="M144.95 263.6q-2.35-8.2 3.7-16 5.85-7.7 14.05-7.95 7.75-.35 15.15 5.65 7.4 6.1 13.4 17.7.6 1.1.2 1.35-.45.15-1.05-.85-7.1-11.35-13.55-16.45-6.75-5.35-14.05-5.1-6.95.3-11.8 6.45-4.9 6.15-3.6 13.55zm3.1 52.6q-5.05 3.65-9.25 8.75-4.35 5.25-3.35 7 1.15 2.1 18.9-1.7 16.95-3.55 25.4-7.1 3.5-1.45 4.35-3.45.75-1.85-.8-3.6-1.15-1.25-.95-2.75.3-1.65 2.05-2.45 23.95-10.45 49.1-11.2 25.9-.8 36.3 9.6l.15.35-.25.4q-2.1 1.4-1.9 3.25.2 2.05 3.35 3.25 7.75 2.9 22.35 4.65 14.25 1.75 15.25.05.75-1.2-3.95-5.5-4.85-4.4-10.05-6.9-.35-.2-.1-.85.3-.75.75-.55 6.25 2.6 11.9 7.75 5.85 5.15 5.05 7.55-1.05 3.25-17.75 1.15-15.5-2-24.25-5.35-4.3-1.65-4.9-4.35-.6-2.45 2-4.6-9.85-8.2-34.5-7.15-24.45 1.05-47.8 10.4-.95.4-1.15 1-.1.65.55 1.35 2.05 2.35 1.25 5-.9 3.2-5.4 5.05-8.4 3.5-25.65 7.25-19.7 4.2-21.4 1.15-1.4-2.45 3.4-9.2 4.4-6.25 9.15-9.75z"/><path fill="#0f141b" d="M302.6 322.65q-.4-2.45-2.8-4.75-2.25-2.1-5.8-3.7-1.05-.5-.9-.95.15-.4 1.3 0 3.95 1.45 6.85 3.95 3.15 2.65 3.5 5.4zm-124.15-117.1q1.75 5.15 2.75 13.7.95 8.1.5 11.5-.4 2.85-2.05 4.45-4.7 4.85-8.35 7.6l-3.05-1.3q6.55-4.9 9.15-7.55 1.45-1.55 1.65-3.4.4-3-.9-11.6-1.25-8.5-2.75-13.15zm79.5 6.4q14.3-4.7 25.45-14.75 11.15-10 17.8-24.15 6.45-13.8 7.45-28.05 1.05-14.5-3.75-27.85l1.15-3.1q5.85 13.8 5.15 29.75-.65 15.75-7.45 30.1-6.7 14.2-18.6 24.65-11.7 10.2-26.35 15.1-1.05.35-1.45.85-.35.4-.45 1.55-1.2 8.8-1.7 17.9-.15 2.05 1.3 3.9 1.9 2.2 4.5 4.1 2.8 2.2 4.45 2.25 2 .05 2 2.55 0 1.9-2.2 10-.2 1-.7.9-.45-.05-.2-1.15.9-5.15 1.05-9.4l-.15-1.1q-.15-.25-.6-.35-3.75-.35-9.6-6.6-2.15-2.25-2-5.05.6-10.8 1.75-18.3.4-2.75 3.15-3.75"/><path fill="#0f141b" d="M277.25 245.05q-2.6-3.9-7.95-5.4-5.8-1.65-11.85.6l-.95-1.35q6.5-2.85 13.2-1.35 6.55 1.5 9.7 6.45 2.5 4 2.2 11.05-.3 7.2-3.35 12.55-.75 1.45-1.45 1.3-.6-.15.05-1.75 2.55-5.95 2.65-12.15.15-6.35-2.25-9.95"/><path fill="#0f141b" d="M280.6 255.4q14.1 8.7 18.75 23.15 4.85 15.2-3.5 29.5-1.35 2.35-2.05 2-.65-.35.65-2.65 7.2-13.8 2.4-28.35-4.5-13.4-16.4-21.35zm-56.85-39.8q6.9-7.6 12.1-19.75 5.45-12.9 5.15-22.35l2.35 1.7q-.05 9.6-5.85 22.15-5.3 11.65-12.25 19.3-.95 1.05-1.2 2.6-.6 4.2-.8 13.65 0 1.25-.55 1.3-.4 0-.5-1.25-.25-8.55.3-13.85.35-2.5 1.25-3.5m34.85-45.85q-.45 11.4-6.05 23.35-5.05 10.9-13.65 20.8-2.25 2.6-2.55 5.15-.45 3.75-.95 11.45-.05 1.45-.5 1.5-.45 0-.5-1.5-.2-6.6.3-11.6.25-2.05.7-3.15.55-1.4 1.9-2.95 7.9-9.15 13.35-21.2 5.25-11.7 5.8-20.7zm7.45-5q5.85 6.6 7.75 19.5 1.9 13.1-1.85 22.65l-2.1 1.05q3.85-9.9 1.9-23.05-1.9-12.6-7.5-18.9zm8.35-5q7.2 5.65 10.9 15.1 3.6 9.2 2.85 19.2l-1.8 1.9q.8-9.9-3.2-19.85-3.9-9.75-10.65-15.1z"/><path fill="#0f141b" d="M301.15 86.15q13.1 4.1 21.55 22.65 8.6 18.95 5.8 39.3-2.95 21.65-17.3 41.15-13.65 18.65-30.05 25.6-6.35 2.7-13.1 2.9-7.55.25-12.05-3l.9-1.35q4.65 2.8 11.95 2.25 6.15-.45 11.55-2.85 15.5-6.85 28.55-24.4 14.3-19.25 16.85-40.5 2.45-19.95-5-37.55-7.1-16.85-19.05-22.25z"/><path fill="#0f141b" d="M299.35 81.9q20.7.15 33.85 16.7 12.9 16.3 12.25 40.2-.55 19.2-7.65 35.45-6.3 14.45-16.8 24.8-9.6 9.35-20.25 13.15-10.35 3.65-17.8.75l1.4-1q7.1 1.35 16.45-2.3 10.15-4.05 18.85-12.55 22-21.55 23.1-58.35.6-23.15-11.15-38.3-11.85-15.2-31.6-16.5z"/><path fill="#0f141b" d="M410.95 42.5q-3.7-2.2-9.4-1.35-4.85.75-9.6 5.2-4.5 4.2-6.95 9.85-6.35 14.8-17.55 27.85-15.2 17.85-31.8 21.7l-1.55-3.1Q350.6 99 365.5 82q11.1-12.7 17.25-26.95Q385.6 48.4 390.6 44q4.95-4.45 10.45-5.25 6.25-.9 10.85 1.8 4.75 2.8 6.1 8.55 1.55 6.75 3.25 10.75 1.6 3.8 4.3 7.45 4.35 5.85 1.4 12.5-3.2 7.15-12.4 7.15-9.4 0-15.85-6.25-7.4-7.25-7.55-20.6 0-1.1.45-1.1t.55 1.1q1.15 12.05 7.85 18.3 5.85 5.6 14.6 5.6 7.5 0 10.15-5.65 2.45-5.3-1.1-10.1-2.7-3.65-4.45-7.95-1.95-4.55-3.4-10.85-1.15-4.8-4.85-6.95"/><path fill="#0f141b" d="M356.95 92.45q-5.7-.45-12.5 2.8t-9.95 7.9l-.85-2.2q3.95-5.7 11.1-8.7 6.95-2.85 14.1-2zm113.1-26.85q-2.3 20.85-2.55 24.7-.35 4-4.25 5.25-3.9 1.2-9.25-.85-9.55-3.75-12.2-13.45-2.3-8.7 1.35-19.6.8-2.2 1.5-2.1.75.1.15 2.35-2.6 10-.65 17.75 2.3 9.2 10.6 12.55 4.65 1.9 7.45.7 2.5-1 2.65-3.85l2.3-23.65q.45-4.55-3.65-8.4-3.4-3.2-9.55-5.65-2.8-1.1-5.6-.45-2.8.7-6.9 3.55-4.35 3-11.3 2.6-7.75-.45-12.65-5.25l-.25-3.4q4.8 5.25 12.3 5.9 6.75.65 10.95-2.25 4.3-2.95 7.75-3.75 3.35-.8 6.35.4 6.45 2.55 10.85 6.85 5.1 5 4.6 10.05m-98.2 41.65q6.2 2.3 15.25 3.15 5.05.5 7.3 6.8 2.5 6.7-1.35 13.65-2.45 4.4-10.65 5.95l-12.6.35q-6.05-.9-8.7-4.8-2.85-4.2-2.4-12.65.3-7.4 4.7-10.95 4.05-3.2 8.45-1.5m14.7 5.25q-8-.9-15.25-3.3-3.3-1.05-6.25 1.4-3.45 2.95-3.8 9.25-.35 5.95 1.05 9.3 2 4.85 7.8 5.7 5.15.8 10.7 0 7.55-1.1 9.7-5 3.3-6 1.6-11.7-1.7-5.3-5.55-5.65m-6.4 79.3q-6.9 7.05-27.75 10.2-20.8 3.1-35.5-.7l1.45-1.9q13.4 2.8 32.5-.05 21.15-3.1 29.1-11.15zm-238.8 135.3q-3.45 3.25-5.8 6.05l-1.15-1.1q2.45-2.8 6.15-6 3.6-3.05 6.4-4.8 1-.6 1.25-.2t-.7 1.05q-2.8 1.95-6.15 5"/><path fill="#b5b5b6" d="M112.2 63.5q6.85 1.8 10.2 7.7 2.7 4.7 3.35 12.55 2.6 30.3 3.9 137.1.65 55.25.95 122.1 0 2.2-1.6 4.85-1.5 2.4-3.05 3.25-1.35.8-4.65.5-3.3-.35-5.15-1.45l-10.25-4.7q-1.8-.1-4.3.75-2.4.8-4.45 2.2-1.85 1.25-5.05 1.25l-6.35-.8q-3.55-.6-12.5-.3-2.15.05-6.15-1.85-3.1-1.45-5.85-3.3-1.7 4.5-8.05 13.6-2.75 3.95-6.9 4.6-3.8.6-18.4-.15-3.2-.15-5-1.5-1.2-1-2.15-3.05l-3.85-8.8q-1.05-2.7-1.8-7.95-.65-5.3-.6-9.9.4-16.7.2-114.55L14.6 86.5q.05-5.7 2.3-9.05 2.1-3.3 7.4-6Q40.35 63.2 70.25 61.3q26.65-1.7 41.95 2.2"/><path fill="#bf8a66" d="M92.45 24.9q7.35 0 15.6 3.55 7.5 3.3 7.9 18.9 1.6 7.3 5.75 15.65 3.95 8.1 8.05 12.9 13.6-1.3 21.6 14.55 5.95 11.95 7.7 30.5 1.65 17.85-5.25 38.2-8.35 24.6-24.75 32.85l-.6-35.3-.85-34.3q-2.95-1.65-4.9-7.5-1.85-5.6-1.6-10.8.1-1.55 1.8-4 1.45-2.1 3.55-4.25-.35-9.6-1.2-17.15-.55-5.05-3.8-9.15-3.65-4.65-9.25-6.05-1.3 2.05-4.2 3.3-3.15 1.4-7.25 1.5-4.05.05-7.55-2-3.3-2-5.35-5.45-6.6-.35-16.95.35l-17.6 1.75q.35 3.05-1.45 6.2-2.35 4.15-7.75 6.75-5.95 2.85-10.4.85-3.4-1.5-6.8-6.55-7.25 3.6-9.35 6.25Q15 79.7 14.7 87.05l-.1 33.85-.1 40.65Q-.15 142.65 1.9 107.5 2.85 91.75 7.35 77 12 61.9 19.4 51.2q-1.95-7.35.8-11.95 2.4-3.95 8.45-6.05 5.15-1.75 9.9 0Q42.5 34.65 45 38q9.45 5.5 21.2 4.6 11-.85 17.8-6.55 0-5.55 2.85-8.6 2.3-2.55 5.6-2.55"/><path fill="#898989" d="m96.15 288.8.25 9.65q.35 5.45 1.4 8.8l3.75 12.3q2.65 8.75 3.5 10.75 1.75 4.2 1.35 15.5l-14.95-6.2Q80 335.05 77.3 334.25l-8.25 4.65q-6.5 3.5-7.8 4.4l-4.2 7.85q-2.5 4.25-4.4 6.65 1.15-7.5 6.55-23.95 5.8-17.7 8.95-21.6 2.5-3.1 14.35-13.3l12.35-11.1z"/><path fill="#595857" d="m61.25 343.3 16.05-9.05q5.6 1.75 28.15 10.85-1.45.1-4.4 1.35-2.55 1.2-4.4 2.35-2.55 1.7-10.7.15l-7.45-.55-6.6-.15q-1.6-.1-5.2-1.85-3.5-1.65-5.45-3.1"/><path fill="#898989" d="M37.25 296.3q-.15 3.45-1.4 5.9-.45.95-1.2.85-.8-.2-.65-1.2l.15-2.45-.15-3.25q0-2 1.7-1.8 1.65.15 1.55 1.95m13.4-11.5q1.5 1.75 2.55 4.25.3.65-.15 1-.5.25-1.1-.35-1.75-2.25-3.1-3.55-.85-.85.05-1.5.95-.7 1.75.15m28.7-58.35q1.95.8 3.5 2.25.7.55.3 1.05l-1.05.1-3.65-1.5q-1.05-.4-.55-1.35.5-1 1.45-.55m2.7-29.3q2.05-.95 6.05-1.4 1.25-.1 1.45.95.3 1-1.05 1.05l-5.95.65q-1 .2-1.25-.3-.2-.5.75-.95m-.25 3q2.45-.75 6.05-.9 1.15-.05 1.05.9t-1.15.95l-5.5.2q-.9.15-1.05-.35-.15-.6.6-.8m-2.05-13.1q2.2-3.1 5.65-5.3 1.2-.8 1.8.1.65.95-.55 1.6-3.5 2.1-5.9 4.5-.5.5-1.05.2-.55-.25.05-1.1m-35.3 14.6q-1-1.1-1.95-.85-.85.3-1.45 1.5-1.6 3.3-2.9 9.65-.95 4.7-1.25 7.8-.2 2.65.55 3.8-1.2-.1-1.7-.7-.65-.85-.6-2.9.1-4.9 1.7-11.35 1.65-6.55 3.35-8.7 2.05-2.5 4.25 1.75m-11.9 61.8q-.55-1.4-1.95-1.25-1.1.2-2.15.75l-.95.9q-.55.7-.6 1.35-.8-2.25-.45-3 .35-.95 2.65-1.6 2.35-.75 3.3.05.6.5.15 2.8M78.3 60.85l2.45-.05q.7 3.55 1.2 12.05l.45 11.7q0 1.45-.7 1.45-.65.05-.75-1.25-.1-4.85-.85-12.2-.85-7.85-1.8-11.7m-51.7 9.8 2.4 1.9q-.4 2.9-.45 9.15 0 4.8.15 8.75.15 2.35 5.65 13.95 4.95 10.35 7.6 14.8 2.65 4.5 4.2 9.05 1.7 5.05 3.95 9.5 2.05 4.05 2.7 7.9.45 2.45.45 6.05L53 162.05q-.3 8.05-.7 10.6-.45 3.15-.6 7.7-.15 5.15.15 8.7-1.85-3.2-1.9-10.2-.05-4.15.8-14.85.35-4.65 0-13.15-.15-3-1.2-6.9-.85-3.4-1.7-5.1l-1.95-3.75q-1.3-2.6-1.75-4.6-.55-2.3-2.25-6.2l-3.25-6.4q-2.1-3.6-6.65-14-4.05-9.35-4.95-12.15-.6-2-.75-9.4-.05-6.5.3-11.7m94.8-1.05q3.05 3.95 3.75 8.85 1.2 8.9 1.4 18.3-1.6 1.45-3.15 3.95-1.5 2.3-1.95 3.8-1.05 3.4 1.1 10 2.25 6.7 5.3 8.75l1.7 99.1 1.4 120.9q.05 1.85-1.6 4.6-1.7 2.85-3.55 3.75-1.95.95-5.4.35-3.5-.65-4.5-2.15-.6-.85-.95-4.15-.35-3.25-.2-6.1.3-4.55-1.55-8.35-3.5-7.6-5.9-14.4-3.15-8.85-5.8-14.7-3.25-7.1-3.6-8.5-.75-3.25-3-5.45 1.55-1.8 2.15-5.15l.3-5.7q0-2.2 1.5-8.9l2.1-8.45q1.6-5.7 2.2-11.6.5-4.95 2-10.6.25-9.65-1.5-72.55l-2.15-76.95q-.2-5.2-2.2-11.1-2.7-8.05-7.5-11.8 5.55 4.15 11.75 3.25 5.35-.75 8.7-4.6 5.45.95 9.15 5.6"/><path fill="#986c4f" d="M158.75 138.45q-1.75 15.75-8.9 30.15-8.35 16.8-20.8 23.75l-.6-29.6-.3-25.6 6.15-7.95q5.2 2.7 11.75 5.2 6.6 2.5 12.7 4.05m-154.55-.3q-4.05-16.85-2.35-31.3 1.85 5.5 5.25 10.5 3.2 4.8 7.4 8.3 0 31.05.15 35.9-6.5-6.65-10.45-23.4m132.4-15.95q-3.3 2.45-7.05 1.3-5.05-1.5-6.9-10 1.55 3.4 5.45 4.25 3.65.75 6.4-1.15 5.15-3.4 12.2-3.2 2.6.05 4.9-1.45 2.7-1.8 3.75-5.15-.2 9.7-7.45 10.95-2.75.4-5.75 1.6-3.4 1.25-5.55 2.85m-35.8-54q-7.85-.15-12.45-6.55-4.15-5.75-4.25-14.1 1.1 5.65 5.3 9.35 3.8 3.4 9 4.15 5.2.8 9.75-1.3 4.75-2.3 7.15-7.25-.25 6.65-3.15 10.7-3.75 5.15-11.35 5m-78.4-6.45q2.55 4.4 7.4 7.25 4.4 2.55 8 2.45 5.45-.2 9.95-4.4 4.1-3.9 4.45-8.3 1.55 3.5.6 7.3-.9 3.35-3.3 5.75-2.4 2.35-5.85 4.1-3.95 1.9-6.75 1.55-4-.55-7.6-4.3-4.1-4.15-6.9-11.4m95 3.9q3 .9 5.25 2.4 2.9 1.95 5.55 5.7 4.3 5.9 9.3 9.85l3.85 3.3q1.3 1.45 1.3 2.9-8.3 0-10.8 1.75-2.35 1.6-5.4 4.85.15-4.6-1.1-17.15-.4-3.75-1.9-6.9-2.1-4.6-6.05-6.7"/><path fill="#986c4f" d="M84.75 53.8q1.05 4.4 2.85 7l-16.05.55-18 1.65q-1.95-9.2-3.75-14.25 4.5 3.55 16.8 2.6 11.95-.9 17.05-4.7.2 3.55 1.1 7.15m27.5 10.2q1.95-3.2 4.45-13.65 1.8 4.65 5.3 12.5 3.45 7.65 4.15 8.55.85 1.1-3.1-.85l-4.2-3.3q-4.7-3.3-6.6-3.25-1.45 2.4-1.9 1.2-.4-1.2 1.9-1.2"/><path fill="#0f141b" d="M113.45 62.4q7.15 2.2 10.35 7.15 2.4 3.65 3 9.85l1.2 15.4-3 2.95q-.4-13.5-.75-17.65-1.1-12.5-12.6-15.65zm-60.35-.65q15.75-2.45 34.15-2.2l1.1 2.35Q70 61.45 53.3 63.95z"/><path fill="#986c4f" d="M141.3 119.6Q131 132.35 128 137.5q0-8.4-.75-15.1 1.55 1.5 4.35 1.45 2.5 0 4.15-1.1 3-2.15 5.55-3.15"/><path fill="#0f141b" d="M27.4 71q-2.4 1.1-4.55 2.35-4.45 2.65-5.9 5.75-1.5 3.1-1.5 9.9.65 214.5 0 238.55-.15 6 .4 11.4.55 4.9 1.4 7.3l2.1 4.95 2.05 4.8q.95 2.35 2.65 3.4 1.6 1.05 4.3 1.05l9.35.15 8.45-.15q3.5-.2 6.7-4.6 5.8-7.85 7.6-12.85l.3-.25 16.1-9.15.4-.05q7.75 2.5 20.4 7.6 11.35 4.6 17.85 7.7l1.45 2.55q-6.7-3.25-18.6-8.15-13.55-5.65-21.15-8.1l-15.4 8.8q-2.2 5.8-8.05 13.8-2.1 2.85-3.8 4t-4.05 1.35l-18.15.15q-6.3 0-8.4-5.55-3.2-7.25-4.25-10.15-.9-2.45-1.45-7.55-.65-5.65-.5-11.7.4-14.05-.05-102.3-.55-104.75-.45-137 .05-7.7 1.85-11.3 1.65-3.4 6.6-6.3 2.15-1.35 4.65-2.5z"/><path fill="#0f141b" d="M129.05 123.35q1.1 27.05 2.15 120.45l1 98.65q.05 2.4-1.6 5.35-1.5 2.7-3.35 3.95-1.6 1.15-5.65.8-3.8-.3-5.7-1.55-1.6-1.05-1.8-5.9l.1-7.05q0-2.25-1.05-4.95l-2.25-4.85-4.3-10.9-4.5-12-2.8-6.1q-1.65-3.65-1.95-5.35-.7-3.6-3-5.3l1.4-1.25q2.6 2 3.5 6.25.35 1.75 2.25 5.55l2.65 5.6 4.35 11.85 4.25 11 2.3 5.1q1 2.9.95 5.35-.2 10.5 1.45 11.6 1.55 1 4.3 1.25 2.75.15 4.2-.75 1.2-.7 2.5-3.3 1.45-2.8 1.35-4.8l-1.1-98.8q-1.1-93.85-2.25-121.4z"/><path fill="#0f141b" d="M108.4 220.6q-.65 10.4-2.8 18.6-.6 2.15-1.3 7.15l-1.1 7.2-1.95 8.25-1.65 6.8q-1.4 6.7-1.7 13.75-.05 2.95-1.45 5-1.1 1.7-4.5 4.7L79.2 303q-8.45 7.35-10.2 10.05-3.55 5.35-8.45 19.25-4.65 13.35-7.3 24.65l-2.9 2.25q2.5-11.45 7.35-25.7 5.45-15.85 9.25-21.5 2.1-3 10.65-10.25l12.95-10.8q3.2-2.75 4.15-4.2 1.05-1.65 1.15-4.45.1-3.6 2.15-14l1.8-7 2.1-7.95.8-7.15q.5-5.2 1.15-7.35l1.8-7.65q.85-4.7 1.25-10.65.1-1.55.85-1.55.75.05.65 1.6"/><path fill="#0f141b" d="m61.6 342.75 5.75 3.2q2.85 1.45 4.55 1.7l7.05.15 7.9.5 5.5.65q2.8-.1 3.95-.8 2.7-1.7 4.45-2.45 1.85-.8 4-1l2.1 1.4q-4.7-.05-9.9 3.2-1.6 1.1-5 1.1l-5.45-.65-7.5-.5-7.3-.3q-3.4-.45-10.9-4.9zm20.2-281.8q1.3 12.1.75 23-.05 1.55-.6 1.5-.4 0-.4-1.55.05-10.6-1.35-22.9zM30 73.35q-.65 15.2.1 17.85.9 3 5.25 12.8 4.85 11 7.35 14.65 1.6 2.4 3.65 7.5l2.4 6.35 3.1 6.85q2.05 4.8 2.25 8.4.65 14.4-.25 21.6l-1 9.6q-.4 4.75.15 8.85.15 1.45-.6 1.55-.65.05-.85-1.4-.7-3.9-.6-8.7.15-3.8.9-10.05.4-3 .5-9.2l-.15-12.2q-.15-3.6-2.1-8.15-2.3-4.7-3.05-6.65-3.5-9.8-6-13.5-2.65-3.9-7.6-15Q29 94.35 28.2 91.45q-.55-1.95-.6-8.6-.05-6.1.35-11.3zm7.15 136.7q-2.3 10.35-.9 12.3l6.3.15q5.05-1.4 5.7-3.5.7-2.55-1.95-10.95-2.75-8.45-4.5-8.45-2.35 0-4.65 10.45m4.65-11.9q2.4-.25 5.65 9.15 3.2 9.2 2.35 12.2-.9 3-6.95 4.6-6.15 1.65-7.85-.8-1.9-2.75.7-13.6 2.6-11.15 6.1-11.55M29.4 261.2q-2.35.7-2.45 1.55-.15 1.1 1.25 4.4 1.4 3.35 1.9 3.3.7-.05 1.45-3.1.8-3.35.35-5.95-.15-.85-2.5-.2m4-.05q.4 2.9-.8 6.65-1.1 3.8-2.5 3.85-1.2.05-3-3.85-1.65-3.7-1.55-5.2.05-1.8 3.8-2.65 3.75-.9 4.05 1.2"/><path fill="#0f141b" d="M19.7 44.15q0 8.1 4.55 18.3 4.85 10.9 10.3 12.65Q40.3 77 46.5 72.6t5.35-9.8q-1.1-7.35-4.1-15.55Q44.2 37.7 40.8 35.8q-6.65-3.8-14.1-.2-7 3.25-7 8.55M41.8 32.7q4.1 2.2 8.2 13.25 3.4 9.2 4.6 17.15 1 6.8-7 12.15-7.8 5.2-14.25 3Q27.3 76.2 22.05 64 17.1 52.8 17.1 44.15q0-7.55 8.85-11.5 8.7-3.95 15.85.05m51.95-6.65q-3.6-.1-5.9 2.05-2.55 2.3-2.85 6.55-1.35 17 3.5 25.1 4.15 6.95 12.55 6.95 7.95 0 11.05-5.35 3.05-5.35 2.7-18.45-.1-3.9-1.55-7.15-1.8-3.95-5.2-5.9-6-3.5-14.3-3.8m23.7 16.85q.4 13.85-3.65 20.35-3.95 6.4-12.75 6.4-9.75 0-14.65-8.35-5.35-9.15-4-27.1.4-4.55 3.65-7.75 3.3-3.3 7.75-3.25 4.1.05 8.3 1.15 4.1 1.15 7.15 3 3.9 2.2 6.2 7.15 1.9 4.2 2 8.4m4.65 61.8q-.25 3.1 1.15 8.25 1.4 5.3 3.15 7.3 2.2 2.45 4.6 2.75 2.05.35 3.9-.95 2.95-2.1 6.4-3.6 3.85-1.75 7.05-2 4.2-.4 5.6-5.85 1.35-5.3-.9-10.7-2.15-5.35-8.75-8.45-1.95-.9-6.1-.55-4.75.4-7 2.25-8.75 7.3-9.1 11.55m7.85-13.2q2.55-2.1 7.8-2.55 4.75-.4 7.35.75 3.6 1.6 6.45 4.2 2.75 2.65 3.8 5.25 2.4 5.85.45 12.35-2.05 6.75-7.25 7.25-2.9.2-6.8 1.8-3.6 1.5-5.95 3.25-2.3 1.75-5.65 1.3-3.6-.45-6.15-3.4-2.15-2.5-3.45-8.25-1.1-5.15-.8-8.95.35-4.6 10.2-13"/><path fill="#0f141b" d="M143.85 119.05q-4.5 4.7-8.75 10.2-4.15 5.35-7.05 10.15l-.45-3.85q2.55-4.1 5.75-7.9 2.55-3.05 7.2-7.8zm-27.75-77.6q1.7 14.65 9.95 27.55 6.5 10.25 13.8 15.15 2.05 1.35 3.1 3.25.7 1.45.7 2.8l-2.4-.25q0-2.3-3.05-4.4-7.2-5-13.3-14-7.1-10.65-9.5-22.6zm-51.3 2.8q-13.15.2-19.8-5.05l-1.45-3.9q6.7 6.25 21.15 5.8 15.05-.55 19.3-8.65l.1 4.05q-5.15 7.45-19.3 7.75M19.75 53.3Q13.7 62.95 9.5 76.25q-4.85 15.2-5.95 31.2-1.05 15.8 2.35 29.9 3.1 13 9.05 21.3l-.3 5.25Q-2 141.85.3 107.35q1-15.6 5.8-30.65 4.95-15.45 12.8-27.05z"/><path fill="#0f141b" d="M129.2 75.1q13.75-2.5 23.05 14.05 9 16.1 8.45 39.95-.45 21.15-8.95 38.85-8.55 17.9-22.05 25.4l-.25-2.65q12.65-7.85 20.3-24.4 7.55-16.55 8-37.15.55-24.05-7.8-39.2-8.05-14.5-19.45-13.3z"/></svg>