<svg xmlns="http://www.w3.org/2000/svg" width="184" height="181" viewBox="-0.45 -1.7 184.4 181.2"><path fill="#31363b" d="M126.35 67.85q10.35 4.05 18.3 11.3 19.55 17.85 17.7 47.6-1.5 23.1-17.55 36.1-15.35 12.4-39.7 12.4-10.6 0-21.4-4.2-11.3-4.45-20.05-12.4Q43 139.9 45.25 111.4q.7-8.95 5.8-17.7 5.1-8.65 13.55-15.4 18.75-15.1 43.45-14.4 9 .3 18.3 3.95"/><path fill="#fcd7a1" d="M127.4 79.5q16.8 2.8 26.5 18 9.5 14.95 7.85 34.7-1.65 19.15-18.8 31.95-7 5.2-15.15 8.1-7.65 2.75-13.9 2.65-10.7-.2-20-4.55-9.35-4.35-15.7-12.2-14.1-17.4-8.7-43.25 3.55-16.8 18.35-27.3 16.75-11.9 39.55-8.1"/><path fill="#727171" d="M180.75 136.4q-1.2 11.5-11.1 19.5-10.8 8.75-25.9 7.6 13.85-8.95 17.75-30.5 3.55-19.4-2.45-33.25 9.35 2.25 16 12.65 7.1 11.1 5.7 24"/><path fill="#57c3ea" d="M173.85 110.95q4.5 5.75 6.2 13.1 1.65 7.35.2 14.5-3.3 16.4-19.1 22.35 11.1-7.6 14.85-22.7 3.6-14.85-2.15-27.25m-124-96.6q12.9 10.05 21.1 23.55 9.2 15.05 10 30.55-8.75 3.95-16.15 9.5-5.95-2-12.8-.2-7.4 1.85-12.55 7.4-10.35-4.55-19.55-16-8.45-10.5-13.65-23.85Q1.1 32.15 1 21.25.95 9.65 6.8 4.65q6.65-5.7 18.95-2.75 11.75 2.85 24.1 12.45"/><path fill="#31363b" d="M64.95 77.9q-1.5-.7-4.15-.95l-4.8.15q-3.35-3.1-4.4-9.05-1.15-6.35 2.15-8.3 3.9-2.3 9.4 1.45Q68.9 65.15 71.9 73q-1.75 1.05-6.95 4.9m36.25 37.95q2.65.85 3.6 5.25.95 4.45-.6 9.2-1.4 4.3-4.7 7.1-3.3 2.75-6.15 2-2.95-.8-4.15-5.15-1.25-4.45.4-9.5t5.15-7.5q3.3-2.35 6.45-1.4m48.05 10q2.85.65 3.55 4.7.65 3.65-.65 8.3-1.35 5-4.3 7.45-2.6 2.15-5.25 1.5-2.25-.6-3.15-4.05-.95-3.75.35-9 1.15-4.75 3.9-7.2 2.6-2.4 5.55-1.7m-25.75-27.2q1.2 1.65.85 4.15-.8 5.55-9.45 8.65-8.45 3-14.4.35-.65-.25-.3-1.05t1.2-.7q9.35 1.1 14.8-3.2l.5-.65q.1-.5-.25-.8-2-1.7-.65-5 1.3-3.35 4.55-3.35 2 0 3.15 1.6m21.65 17.85q2.7 2.05 5.4 3.3.8.35.5 1.3t-1.05.7q-4.85-1.4-9.9-5.7-5.7-4.85-6-9.2-.15-2.4 1-4.05 1.25-1.75 3.35-1.7 3.65.1 3.9 4.2.25 3.95-2.1 4.85-.8.35.05 1.65 1.6 2.25 4.85 4.65"/><path fill="#ee869a" d="M108.65 146.3q3 5.7 10.05 7.15 7.3 1.55 12.8-3.05-1.35 3.5-4.85 5.15-3.25 1.6-7.25 1.15-4.05-.5-7.15-2.9-3.4-2.6-4.6-6.7z"/><path fill="#4baacb" d="M3.65 8.8Q3.45 15.45 6 24.9q2.8 10.15 7.9 20.05Q26.65 69.5 46.4 79.6q-4.1 2.4-7.3 5.45-8.75-4-17-13.35-7.85-8.95-13.3-20.5-5.5-11.65-7-22.6Q.2 16.9 3.65 8.8"/><path fill="#595857" d="m167.9 138.15 8.05 1.15q-1.75 5.45-5.25 10.85-4 6.2-9.5 10.8-8.8 3.8-17 2.5 5.75-4.6 10.45-11.9 5.25-8.1 6.25-15.5 2.7 1.2 7 2.1"/><path fill="#4baacb" d="M175.95 139.3q2.9.2 4.4 0-.9 6.45-6.35 12.5-5.25 5.9-12.8 9.15 5.5-4.6 9.5-10.8 3.5-5.4 5.25-10.85"/><path fill="#cf7487" d="m107.7 146.85.95-.5q.85 2.25 4.35 4.5 2.7 1.8 5.65 2.8l-3 .3q-1.5.35-2.3.85-2.25-1.4-3.8-3.75-1.4-2.1-1.85-4.2"/><path fill="#d9ba8d" d="M80.15 159.65q-9.85-10.75-11.85-24.5 4.85 13.25 16 22.55 10.75 8.9 24.15 11.6 13.75 2.8 25.95-2 13.3-5.2 21.65-18.35-5.45 11.75-18.9 18.9-12.55 6.7-28.05 7.45-17.75-3.4-28.95-15.65"/><path fill="#222428" d="M45.75 126.65q-2.1-12.2 1.1-23.65Q50 91.65 57.4 84.4q-3 30.4 10.9 50.75 2 13.75 11.85 24.5 11.2 12.25 28.95 15.65-8.15.4-15.8-1.05-7.9-1.5-14.5-4.8-14.3-7.15-22.95-19-7.85-10.75-10.1-23.8"/><path fill="#0f141b" d="M119.05 64.5q26.3 6.7 37.85 28.5 11.4 21.45 3.65 47.85-5.85 19.9-25.45 29.4-19.05 9.25-42.6 4.8-10.35-1.95-19.9-7.9-9.7-6-16.6-14.9-15.75-20.35-10.95-45.65 2.1-10.9 9.6-20.25 7.15-8.9 17.9-14.95 10.7-5.95 22.65-7.85 12.45-1.95 23.85.95m-24.2 1.3q-11.55 1.95-21.9 7.9Q62.7 79.55 55.9 88.1 48.85 97 47 106.95q-4.6 25.2 11.55 44.9 6.8 8.3 16.2 13.9 8.95 5.35 18.1 7.1 25.2 4.8 44-5.8 16.9-9.5 21.95-26.75 7.55-25.55-3.6-46.25-11.3-20.85-36.75-27.35-11.35-2.9-23.6-.9"/><path fill="#0f141b" d="M126 80.3q-20.3-2.95-35.15 6.3-14.95 9.25-20.05 28.05-3.35 12.35-.65 24 2.5 10.85 9.75 19.3 7.05 8.25 17 12.45 10.2 4.25 21.1 3.25l-5.4 2.05q-10.55 0-20.1-4.85-9.4-4.75-15.85-13.15Q70 149 67.9 138.15q-2.3-11.65 1.05-23.95 5.3-19.6 21.15-29.35 15.55-9.55 36.15-6.5 15.8 2.3 26.1 15.4 10.15 12.95 10.5 30.9l-2.05 8.4q2.1-20.1-7.65-35.05Q143.3 82.85 126 80.3m-53.3-7.45-1.6.95q-2.7-7.3-7.6-11.2-5.05-3.95-9.3-1.8-2.55 1.3-1.75 6.55.75 5.5 4.65 9.55l-2.15.45q-4.3-5-4.6-11.05-.35-5.75 2.85-7.5 4.6-2.45 10.45 1.55 6.05 4.2 9.05 12.5"/><path fill="#0f141b" d="M24.75 21.65q8.15 6.9 17.8 19.6 8.05 10.55 12.2 18.1l-2 1q-3.75-7.1-11.8-17.9-8.75-11.65-17-20-.9-.95-.55-1.3.4-.35 1.35.5"/><path fill="#0f141b" d="M49.15 15.4Q37.6 6.4 26.3 3.45 14.75.5 8.4 5.15q-5.85 4.3-5.9 15.6Q2.4 31.4 7.35 44.5q5.05 13.35 13.3 23.85Q29.7 79.8 40 84.2l-1.65 1.85q-11.45-5-20.85-17.2-8.5-11-13.3-25Q-.45 30.35.1 19.2.65 7.55 6.8 3.1 13.45-1.7 25.5.85q11.95 2.55 24.05 11.3Q62.6 21.65 71 35.2q9.55 15.35 11 33l-2.35.8q-1.2-16.05-10.2-30.85-7.95-13.1-20.3-22.75m56.25 104.75q1.25 4.5-.6 10.25-1.8 5.6-5.65 8.25-3.2 2.2-5.95 1.45-3.35-.85-4.7-5.2-1.5-4.6.35-10.25 1.85-5.75 5.85-8.35 3.4-2.2 6.6-1.2 2.9.95 4.1 5.05m-10.2-2.3q-3.3 2.4-4.9 7.3-1.6 5-.3 9.05 1.15 3.6 3.7 4.3 2.45.65 5.35-1.85 3-2.55 4.3-6.7 1.6-4.9.8-8.85-.75-3.75-3.25-4.55-2.7-.85-5.7 1.3m44.95 25.65q.7 3.15 2.7 3.65 2.45.6 4.85-1.6 2.5-2.3 3.7-6.7 1.4-5.1.65-8.55-.7-3.2-2.9-3.75-2.5-.55-4.8 1.5-2.65 2.35-3.8 7.05-1.2 4.95-.4 8.4m-1.1-8.8q1.35-5.35 4.4-7.9 2.85-2.45 6.1-1.65 2.85.65 3.85 4.35 1.1 3.95-.45 9.7-1.45 5.3-4.7 7.95-2.9 2.35-5.85 1.65-2.65-.65-3.65-4.5-1.05-4.05.3-9.6"/><path fill="#fff" d="M100.65 117.2q1.25.45 1.8 1.9.5 1.4 0 2.95-.5 1.5-1.95 2.15l-2.75.15q-1.35-.5-1.85-2.1-.5-1.5.1-2.95.5-1.2 1.75-1.85 1.45-.75 2.9-.25m48.35 9.9q1.1.35 1.6 1.6.45 1.2.05 2.45-.4 1.2-1.55 1.85-1.15.6-2.25.3-1.1-.35-1.65-1.6-.6-1.3-.1-2.6.5-1.2 1.6-1.8z"/><path fill="#0f141b" d="M109.3 145.85q3.2 5.5 9.45 6.85 6.5 1.4 12.3-2.75l1.05-.05q1.95 1.85 2.8 3.95.45 1.1.05 1.3-.4.15-1.1-.8-1.2-1.8-2.5-2.9-5.2 4-12 3-7.15-1.05-11-7.1-1.75.95-4.55 1.6-.95.25-1.1-.25-.15-.45.8-.85 2.9-1.2 4.35-2.35.85-.6 1.45.35"/><path fill="#0f141b" d="M108.25 146.65q1.95 7.7 10.4 9.15 8.3 1.45 11.9-4.65l1.55-.4q-1.65 3.65-5.45 5.5-3.55 1.75-7.75 1.3-4.3-.45-7.45-3.05-3.45-2.85-4.45-7.55zm16-48.2q1.35 1.9.95 4.55-.85 6-10.25 9.15-8.95 3-14.65.45-1.25-.55-.8-1.9.45-1.4 2-1.2 8.3 1 13.95-2.75l.5-.4-.25-.55q-2.05-2.5-.45-5.95 1.65-3.55 5.25-3.4 2.4.1 3.75 2m-1.25.7q-.95-1.35-2.55-1.45-2.7-.1-3.95 2.75-1.25 2.8.4 4.7.7.75.6 1.3-.05.45-.9 1.1-3.15 2.45-8.15 3.15-3.55.5-7.15.05-.45 0-.55.35t.45.6q5.15 2.15 13.3-.8 8.5-3.05 9.2-8.1.35-2.15-.7-3.65m26.75 23.45q-5.3-1.6-10.3-5.75-5.8-4.9-6.1-9.7-.2-2.9 1.3-4.75 1.4-1.85 3.8-1.85 4.05-.05 4.95 4.05.85 4-2.3 6l-.5.45.3.6q1.45 2.2 4.5 4.45 2.65 1.95 5.45 3.25 1.45.7.95 2.2-.5 1.55-2.05 1.05m.9-1.45q.25-.4-.3-.65-2.9-1.35-5.75-3.45-3.2-2.4-4.8-4.7-.8-1.2-.8-1.7.05-.45 1-.95 2.5-1.15 2.05-4.35-.5-3.25-3.5-3.3-1.7-.05-2.75 1.35-1.1 1.45-.95 3.65.25 4 5.15 8.4 4.5 4.1 9.9 5.9.55.2.75-.2m23.7-7.75q-6.4-10.25-15.2-12.45l-.6-2.45q10.6 2.75 17.75 14.2 7.65 12.35 4.95 26.1-2.45 12.5-12.75 19.5-10.3 6.9-25.75 6.55l2.6-2.3q10.85.75 20.85-5.6 11.1-7 13.05-18.5 2.3-13.45-4.9-25.05"/><path fill="#0f141b" d="M175.55 113.7q4.25 11 1.65 23.6-3 14.45-14.25 22.5l-5.25 1.8q12.5-7.35 16.9-21.5 4.65-14.95-2.3-30.65z"/><path fill="#727171" d="M64.65 77.7q8.5 1.85 12.4 11.55 3.5 8.75 2.6 22.05-.95 14.9-10.1 25.05-9.05 10.1-19.75 8.5-10.3-1.55-17.1-14.4-6.9-13.1-4.05-27 2.6-12.75 13-20.45 10.75-8 23-5.3"/><path fill="#57c3ea" d="M55.65 89.55q5.15 10.1 2.65 23.05-2.35 12.1-9.05 17.25-4.4 3.45-8.85 3.7-4.9.25-8.25-3.55-4.75-9.25-4.15-20.7.65-13.25 8.75-22 3.7-3.7 9.6-3.5 6.5.2 9.3 5.75"/><path fill="#595857" d="M54.1 124.5q6.2 1.65 11.95 1.7 6 .05 10.15-1.65-2.2 7.85-9.45 14.35-8.25 7.4-16.7 6-4.8-.75-9.2-4.4-4.3-3.45-7.4-8.9 5.95 3.55 12.05.85 5.25-2.3 8.6-7.95"/><path fill="#4baacb" d="M54.1 124.5q-3.35 5.65-8.6 7.95-6.1 2.7-12.05-.85-3.55-6.15-4.8-13.3-1.35-7.65.3-14.75.8 7.1 8.4 13 6.85 5.35 16.75 7.95"/><path fill="#feecd2" d="M109.5 88.95q.1 1.5-1.4 3t-3.6 2.1l-3.65-.1q-1.6-.7-1.7-2.1-.15-1.45 1.35-3.05 1.55-1.7 3.75-2.25l3.6.2q1.55.7 1.65 2.2"/><path fill="#0f141b" d="M78.6 90.2q4.15 10.8 1.45 25.7-2.55 13.75-11.2 22.5-8.4 8.45-17.5 7.5-11.25-1.15-18.7-13.05-7.65-12.2-5.45-26.65 2.5-16.55 15.05-25.05Q54.1 73.1 66.2 77.2q8.45 2.8 12.4 13M65.35 79.15q-10.7-3.6-21.5 3.65Q32 90.7 29.4 106.55q-2.1 13 5.15 24.75Q41.6 142.75 51.6 144q8.05 1 15.9-7.3 8.05-8.45 10.35-21.05 2.4-12.9-.7-22.95Q73.8 82 65.35 79.15"/><path fill="#0f141b" d="M39.4 84.75q5.2-3.3 10.6-1.35 5.3 1.95 7.8 7.8 4.15 9.8 1.5 22.35-2.75 13.15-11.25 18.85-4.1 2.7-7.95 2.5-3.5-.25-6.25-2.75l-1.55-4.45q2.6 4.75 7.45 5 4.1.2 7.55-2.55 8.05-6.35 10.15-19.05 1.9-11.45-1.75-18.95-2.95-6.05-8.75-7-5.95-1-10.75 4.25z"/></svg>