<svg xmlns="http://www.w3.org/2000/svg" width="230" height="325" viewBox="-0.25 -1.95 229.7 325.35"><path fill="#6fb92c" d="M162.4 73.45q4.45 5.35 5.5 12.9 1 7.4-1.65 14.05-2.8 7.05-8.8 10.7-1.75 6.4-7.75 13.1-8.55 9.55-18.65 7.75v-.05q2.55-1.9 7.25-7.15l4.2-4.95h-.05q3.35-6.75 3-14.6-.6-12.95-9.6-21.2-9.3-8.55-23.55-8.2-14.65.4-23.65 10.85-8.85 10.35-6.9 24.1 1.05 7.65 5.8 13.9 5.4 7.1 14.45 10.6-11.05 2.4-19.55-4.45-7.4-6-10.75-16.75Q57.85 103.9 59.45 89.6q.7-6.25 4.5-11.5 3.85-5.3 9.9-8.2.15-12.7 8.45-30.5 7.2-15.45 14-22.5 1.2 2.85 7.35 26.35 6.15 23.7 8.35 29.1 1.35-2.3 4.8-27.3 3.05-22.35 3.55-29.25 5.8 2.4 15 17.5 9.75 16.05 14.5 32.85 7.65 1.45 12.55 7.3"/><path fill="#007f41" d="M109.45 139.2q.95 1.4 2.5 5.2l1.65 4.1.85-4.25q1.75 9.8 1.4 16.55-.5 10.25-5.45 16.8-2 2.65-3.75 4.15-3.7 3.15-5.35-.5l-.5-1.9q-.45-1.95-.55-3.05-.6-7.15 3.2-19.5z"/><path fill="#ffe792" d="M93.15 47.6q-4.9-1.4-8.8-6.2-3.85-4.7-5.6-11.25-4-15.25 5-28.05Q86.7 14.55 96.7 44.05q8.85 26 13.5 37.6-1.55-1.95-8.35-15.75-6.55-13.15-8.7-18.3M133.05.75q7.6 13.95 6.65 27.7-1 13.9-10.3 17.9-1.65 6.7-6.85 19.6-4.65 11.6-6.8 15.3 4.1-15.85 9.65-40.15Q133 7.7 133.05.75"/><path fill="#6fb92c" d="M23.5 176.35q8.6-8.7 18.85-11.5 10.85-2.9 21.85 1.3l-7.65 17.35q-7.85-6.65-17.2-1.7-9.55 5.05-10.45 17.1-3.5 4.35-13.75 15.35L3.2 226.7q1.1-15.5 6.55-28.8 5.3-12.9 13.75-21.55"/><path fill="#ffe792" d="m64.4 166.3-.1-.05q4.65-8.3 17.15-15.7 13.65-8.15 27.9-9.45-3.2 4.2-20.7 14.05-17.6 9.95-24.25 11.15"/><path fill="#6fb92c" d="M75.4 170.15q-6.75-.45-11-3.85 6.65-1.2 24.25-11.15 17.5-9.85 20.7-14.05h.15q-3.75 19.85-20.4 26.75-6.8 2.8-13.7 2.3m25.6 10.4.3.7q-6.3 14.8-16.65 23.15-10.25 8.25-21.95 8.05-4.65 14-10.8 21.6-3.8 4.8-9.65 8.35-6.1 3.7-12.35 4.75-.65 2.2-1.1 4.85-.6 3.5-.15 4.5 6.45-.1 25.15-9.75 19.65-10.15 24.4-17.05l.05 4.85.45.65-.45 11.6q-4.9 5.95-16.7 8.55-11.55 2.55-16.7-.7-4.9 7.95-19.15 19.1Q12.6 284 5.1 287q-3 1.15-3.75.8-.85-.4-.4-3.1 2.3-13.7 11.75-30.2Q22 238.3 36 223.15q14.5-15.7 30.8-26.6 17.55-11.8 34.2-16"/><path fill="#ffe792" d="m124.65 275.7 12.45 19.15q9.9 15.5 11.8 17.65 1.2 1.35 1 1.85-.25.45-1.4-.25-10-6.45-18.1-16.8-8.75-11.2-10.1-20.8 2.2-.2 4.35-.8m-51.1-64.9q-.55 3.5.85 8.8 1.25 4.75 3.8 10.1-4.75 6.9-24.4 17.05-18.7 9.65-25.15 9.75-.45-1 .15-4.5.45-2.65 1.1-4.85 13.1-2.2 21.5-12.35 6.4-7.8 11.3-22.35 5.8.1 10.85-1.65"/><path fill="#007f41" d="M82.5 237.3q1.75 2.7 3.85 5.05l1.1.3q1.85 3.6 5.3 8.65 3.8 5.45 6.15 7.7-.15 2.75-.65 3.35L97 262.3l-1.6 7.85q-1.2 5.85-1.5 6-1.7.75-7.65-1.7-6.3-2.6-7.15-5.25-.25-.8-.2-6.7.05-5.4.25-7.95l-.9-.9.15-8.7.3-9.75-.45-.65.35-4.1q1.75 3.6 3.9 6.85"/><path fill="#ffe792" d="M81.4 271.8q2.05 1.45 5.45 2.75-1.8 7.05-4.55 21.55-3.45 18.5-3.35 24.95 0 1.65-.6 1.7-.6.1-1-1.75-2.7-12-1.7-26.1 1.05-15 5.75-23.1m31.8-134.75 1.25 7.2-.85 4.25-1.65-4.1q-1.55-3.8-2.5-5.2l.6-2.25z"/><path fill="#007f41" d="m87.45 242.65-1.1-.3q-4.1-4.4-8.4-13-5.6-11.35-4.4-18.55 10.05-3.25 17.95-12.95 6.4.3 16.35 18.85 5.3 9.85 10.45 22.6-.4.9-1.7 1.55l4.3 8.85q3.1 6.6 3.15 7.75l-1.5 1.05q6.25 13.7 6 14.95-.95 2.5-7.05 3.25-5.2.65-8.15-.15-1.5-.75-7.4-8.7l-5.6-7.8q-.65-.25-1.45-1.05-2.35-2.25-6.15-7.7-3.45-5.05-5.3-8.65"/><path fill="#ffe792" d="M135.25 153.8q14.2 9.15 19.25 14.8h-.05q-9.1-.5-23.4-10.65-12.6-9-16.95-15.6 7.3 2.55 21.15 11.45"/><path fill="#6fb92c" d="M105.6 195.65q1.45-7.05 1.15-12.6 2.9 3.3 3.9 8.85.9 5.15 0 10.95-.8-2.5-2.2-4.25z"/><path fill="#007f41" d="M110.65 202.85q2.75 7.75.85 21.35-5.6-11.2-9.9-17.4 2.4-3.5 4-11.15l2.8 3.1q1.4 1.9 2.25 4.1"/><path fill="#ffe792" d="M106.65 181.75q.55 5.1-1.1 13.4-1.7 8.3-3.95 11.65-6.05-8.75-10.1-8.95 5.65-6.85 9.8-16.6 1.65 3.65 5.35.5m-18-95.1q9-10.45 23.65-10.85 14.25-.35 23.55 8.2 9 8.25 9.6 21.2.2 4.6-1.05 9.55-1.1 4.3-2.15 5.3-1.85 1.7-5.7 6.3-3.25 3.9-5.5 5.55v.05q-9.45 5.6-20 5.15-12.75-.5-21.6-10.25-3.1-3.45-4.65-6.3-2.25-4.25-3.05-9.8-1.95-13.75 6.9-24.1"/><path fill="#6fb92c" d="M178.05 165.05q11.9 1.2 22.1 8.15 22.45 15.35 28.7 50.5-4-4.7-13.1-12.65l-11.85-10.1q-4.6-15.4-15.3-20.8-10.8-5.45-18.8 3.65-11.7-12.45-15.25-15.15l-.05-.05q11.7-4.75 23.55-3.55m-62-9.2-.85-6.5q-.9-6-.5-6.5 5.7 8.35 17.65 16.15 12.35 8.05 21.95 9.2-7.65 6.3-17.1 4.6-11.8-2.1-21.15-16.95"/><path fill="#e85377" d="M87.85 118.65q-.8-2.85-.55-5.25.25-2.35 1.45-2.9 1.4-.6 3.1.9 1.75 1.5 2.8 4.25t.8 5.1q-.25 2.4-1.7 3-1.45.65-3.25-.8-1.9-1.55-2.65-4.3m50.35-10.9q1.25.4 1.75 2.75t-.05 5.3q-.55 2.85-2.35 4.6-1.7 1.65-3.25 1.15-1.5-.5-2-2.85-.5-2.4.3-5.25.85-2.85 2.45-4.5 1.65-1.7 3.15-1.2"/><path fill="#006e38" d="M100.2 175.7q4.2-.65 8.1-3 3.8-2.35 6.8-6-1.2 6.2-4.7 10.9-2 2.65-3.75 4.15-3.7 3.15-5.35-.5l-.5-1.9q-.45-1.95-.55-3.05z"/><path fill="#ffe792" d="M93.15 47.6q-4.9-1.4-8.8-6.2-3.85-4.7-5.6-11.25-4-15.25 5-28.05Q86.7 14.55 96.7 44.05q8.85 26 13.5 37.6-1.55-1.95-8.35-15.75-6.55-13.15-8.7-18.3M133.05.75q7.6 13.95 6.65 27.7-1 13.9-10.3 17.9-1.65 6.7-6.85 19.6-4.65 11.6-6.8 15.3 4.1-15.85 9.65-40.15Q133 7.7 133.05.75m-8.4 274.95 12.45 19.15q9.9 15.5 11.8 17.65 1.2 1.35 1 1.85-.25.45-1.4-.25l-28.2-37.6q2.2-.2 4.35-.8"/><path fill="#dbc77f" d="M73.55 210.8q-.55 3.5.85 8.8 1.25 4.75 3.8 10.1-4.75 6.9-24.4 17.05-18.7 9.65-25.15 9.75-.45-1 .15-4.5.45-2.65 1.1-4.85 13.1-2.2 21.5-12.35 6.4-7.8 11.3-22.35 5.8.1 10.85-1.65"/><path fill="#006e38" d="M94.8 254.15q2.45 3.35 4.1 4.85-.15 2.75-.65 3.35L97 262.3l-1.6 7.85q-1.2 5.85-1.5 6-1.7.75-7.65-1.7-6.3-2.6-7.15-5.25-.25-.85-.15-9.9 8.75-2 15.85-5.15"/><path fill="#5fa124" d="M53.8 246.75q19.65-10.15 24.4-17.05l.05 4.85.45.65-.45 11.6q-4.9 5.95-16.7 8.55-11.55 2.55-16.7-.7-4.9 7.95-19.15 19.1Q12.6 284 5.1 287q-3 1.2-3.6 1.1-.85-.15-.55-2.4 2.75-7.15 10.8-20.5 8.2-13.75 12.4-17.85l5.6.2q-.65 2.4-1 4.8-.55 3.2-.1 4.15 6.45-.1 25.15-9.75"/><path fill="#dbc77f" d="m104.9 199.3-1.1 3.15q-1.25 3.35-2.2 4.35-1.1-2.05-3-4.3-2.2-2.65-4.7-4.6 3.85 1.65 7.1 1.9 2.7.25 3.9-.5"/><path fill="#0d131a" d="M112.35 76.45q-13.7.35-22.65 9.9-9.4 10.05-7.35 24.3 1.7 11.95 11.55 19.5 9.8 7.5 22 6.1 9.45-1.05 16.6-6.05l-.1 1.55q-7.65 5-16.35 5.95-7.4.85-15.5-2.3-4.6-2.5-9.1-6.7-2.7-2.55-7.65-8.1-2.65-4.9-3.35-9.65-2.05-14.75 7.95-25.3 9.5-10 23.9-10.45 14.35-.4 24 7.85 9.65 8.3 10.3 21.85.3 7.3-2.5 13.65l-1.75 1.7-1.7 1.5q4.55-7.35 4.2-16.55-.6-13.1-9.7-21.1-9.05-8.05-22.8-7.65M129.4 23.4l-.45 1.6q-4.8-6.35-8.1-8.2-.8 8.7-3.4 27.6-3.05 22.25-4.55 27.25-.8 2.75-1.75.2-1.6-4.5-8.15-28.6l-6.95-25.2Q93.45 21 90.6 25.5l-.15-2.15q2.6-3.85 4.7-6.1 1-1.15 1.45-1.25.5-.05.9 1.15L104.85 44q6 22.45 7.15 25.7 1.45-5.45 4.25-26.35 2.4-18.05 3.25-27 .1-1.15.6-1.25.3 0 1.3.55 3.25 1.8 8 7.75m34.05 50.3q4.4 5.7 5.25 13.65.85 7.7-2 14.45-3 7.1-9.1 10.35-.8.45-.95-.6t.6-1.45q5.45-3.1 8.15-9.8 2.5-6.35 1.65-13.55-.9-7.45-5.1-12.75-4.65-5.8-12.2-7.25l-.5-.45q-3.95-14-11.85-28.2l.8-1.4q8.35 14.55 12.55 29.05 7.85 1.65 12.7 7.95m-81.9-34.95 1.2 1.25q-3.7 7.95-5.8 15.25-2.45 8.25-2.5 14.65l-.35.55q-5.7 2.7-9.35 8.05-3.6 5.25-4.25 11.5-1.5 14.35 11.4 23 1.3.85.85 1.5-.4.7-1.7-.2-14.45-9.65-12.8-24.45.7-6.4 4.55-11.85 3.95-5.5 10-8.5.35-13.2 8.75-30.75"/><path fill="#0d131a" d="M139.3 122.65q.25 0 .1.75l-.45.7q-4.3.05-12.7 3.45-7.5 3-10.6 5.25l-.6.1q-3.8-1.6-12.65-3.65-8.25-1.9-13.1-2.45l-.4-.65q-.25-.65-.05-.6 4.7.45 13 2.2 9.25 1.9 13.3 3.5 3.4-2.35 11.2-5.25 8.55-3.3 12.95-3.35M97.65 48.7l-3.3-.2 5.2 11.25 7.1 14.4zm-15.3-11.3q2.75 4.9 6.7 7.6 3.95 2.65 8.2 2.5Q87 17.4 83.5 3.65q-5.2 8.1-5.2 17.8 0 8.9 4.05 15.95m.3-34.7q1.75-2.6 2.5.3Q88.2 15.45 96.8 41.75q7.85 23.85 12.9 37.05.8 2.05.25 2.5t-1.65-1.5q-3.05-5.45-8.95-17.2-5.85-11.75-6.85-14.55-5.2-1.55-9.2-6.15-3.95-4.55-5.7-10.9-4-14.6 5.05-28.3m45.55 44.75-3.8.7-6.6 27.45 5.85-14.3q3.35-8.85 4.55-13.85m5.3-44.5q-1.05 10.4-8.8 43.95 7.6-.75 11.4-7.6 3.05-5.5 3.05-13.6 0-11.3-5.65-22.75m.75-1.25q7.05 13.65 6.55 26.35-.55 14.4-11.25 18.9-1.25 5.8-5 15.85-3.65 9.65-6.8 15.8-1.05 2.25-1.8 2.2-.7-.05-.15-2.25 4-15.85 9.05-38.65Q131.3 10.7 132 2.15q.4-4.1 2.25-.45M109.3 138q.25-1.3.85-1.2t.35 1.4l-.7 2.45-.8.5q-.5.4-.8.4zm3.85 3.5-.6-3.35q-.1-1.2.5-1.25t.7 1.15l.6 3.2q2.25 10.95 2.4 16.9.3 12.45-5.25 19.85-4.9 6.5-8.15 5.8-3.15-.7-3.7-7.45-.7-8.1 2.35-18.2l1.45-1.6 1.3-1.7q-4.5 13.85-3.9 21.4.5 5.95 2.45 6.35 2.15.5 6.6-5.4 5.4-7.15 5.3-19.25 0-6.5-2.05-16.45"/><path fill="#0d131a" d="M65.15 166.05q4 3 10.15 3.5 6.2.45 12.35-1.8 8.1-2.95 13.6-9.75 5.45-6.75 7.45-16.2-13.5 1.45-26.5 9-12.2 7.1-17.05 15.25m9.35 5.05q-6.2-.9-10.55-4.4-.45-.25-.15-.75 5.4-9.55 17.75-16.65 12.9-7.45 27.9-8.8.8-.1.65.7-4.1 21.55-22.7 28.4-6.45 2.4-12.9 1.5"/><path fill="#0d131a" d="M64.45 166.85q-.2.05-.2-.45t.2-.6q5.95-1.6 23.25-10.85 18.6-10 21-14.05l.65.1q.5.35.4.55-2.65 4.45-21.2 14.35-17.3 9.25-24.1 10.95m44.9-27.1q-.2-.2.3-.6.45-.4.6-.2.65.8 3.1 7.65l.3-2.75q0-.35.55.6.55.9.45 1.55l-.25 1.75q-.55 3.7-2.35-1.15-2.15-6.15-2.7-6.85"/><path fill="#0d131a" d="M113.8 142.85q-.2-.05 0-.75.15-.65.4-.6 8.4 2.6 22.1 11.7 13.05 8.75 18.65 15v.45l-.15.45q-21.75 13.6-38.4-11.55-.25-.4-.1-2.95 8.25 12.95 17.45 16.4 9.2 3.4 19.75-2.55-5.45-5.75-19.3-14.6-13.55-8.65-20.4-11"/><path fill="#0d131a" d="M114.1 142.75q-.1-.2.45-.4l.7.05q2.75 6.05 15.95 15.05 13.85 9.5 23.05 10.45.25.05-.25.35l-.75.35q-10-.9-23.55-10.45-12.6-8.85-15.6-15.4"/><path fill="#0d131a" d="M195.8 171.25q-9.2-5.1-19.6-5.75-10.3-.6-20.5 3.3 4.1 3.6 14.1 14.1 3.05-3.25 6.85-4.55 3.75-1.25 7.85-.35 6.5 1.45 11.85 7.5t8.05 15.1l2.15 1.8q15.2 12.75 21.25 19.3-3.5-17.8-11.7-30.8-8.3-13-20.3-19.65m-6.15 10.95q-10.8-6.95-19.05 1.55l-1.15.95q-.45.05-1.25-.8l-9.1-9.8-5-5v-.7l.25-.65q25.7-10.4 47 5 21.3 15.45 27.75 49.15.35 1.75-.15 1.95-.55.25-1.8-1.1-4.15-4.45-14.3-13.35l-9.35-8-.2-.25q-3.75-12.6-13.65-18.95M64.4 165.6q.6.15.4.75l-4 9.45-3.85 8.4-.9.1q-3.6-3.05-8.15-3.4-4.3-.35-8.35 1.85-9.15 4.9-10.05 16.85l-.15.3q-3.15 3.9-12.45 13.7L4.6 226.2q-1.3 1.3-1.7 1.1-.3-.2-.2-1.8 2.75-33.3 21.05-50.9 8.55-8.3 18.95-10.7 10.7-2.5 21.7 1.7m-32.3 4.5q-11.5 7.35-19 22.1-7.5 14.7-9.1 32.9l12.1-12.8q9-9.65 12.2-13.65.55-6.2 3.8-11.05t8.4-7.05q4.1-1.7 8.25-1.15t7.55 3.2l3.55-7.8 3.55-8.25q-8.05-2.95-16-2.05t-15.3 5.6m68.45 9.6.65.7q.35.8.1.85-35.85 8.7-67.75 45.9-12.95 15.1-21.8 31.3Q3.4 273.8 1.55 284.8q-.35 1.95.35 2.25.65.3 2.95-.6 7.25-2.9 20.3-13.05 14.35-11.2 19.2-19.1l.35-.25.5.05q5.15 3.3 16.7.4 11.8-2.95 16-9.15.15-.2.5.75l.15 1.2q-4.4 6.45-16.05 9.2-11.25 2.7-17.25-.55-5 8.35-19.5 19.1-12.65 9.45-20.45 12.5-4.1 1.65-4.9 1-.65-.5-.05-3.95 1.95-11.7 10.1-27.2 8.5-16.1 20.65-30.4 15.65-18.3 33.7-30.6 18.15-12.45 35.75-16.7"/><path fill="#0d131a" d="M23.9 246.85q.2-.15.6.25.45.4.25.6-5.65 5.9-14.05 20.15-8.55 14.55-9.15 19.8l-.65.15q-.6-.05-.55-.3.65-5.8 9.6-21.1 8.8-15.15 13.95-19.55m76.85-65.75.65.05.45.45q-6.75 15.8-15.8 23.4-9.65 8.1-23.9 8.65-.25.05-.15-.9.15-.95.4-.9 11.9.3 21.95-7.75 10-8.05 16.4-23"/><path fill="#0d131a" d="m67.9 195.45 1.95-1q1.8-.75 1.55-.55-2.15 1.85-3.75 5.5-.95 2.2-2.45 7.1-2.85 9.4-5 14.6-3.7 8.9-8.2 14.55-4.5 5.6-11.95 9.2-8.15 3.9-16.2 3.45-.45-.1-.55-.5-.25-1.35.45-5 .7-3.5 1.7-6.6.15-.4 1.05-.95l.8-.4q-1.7 3.6-2.4 12.05 7.2.25 15-3.9 7.05-3.75 11.55-9.35 4.4-5.5 7.8-13.65 1.95-4.7 4.8-13.85 2.4-8 3.85-10.7"/><path fill="#0d131a" d="M77.8 229.35q.15-.2.55.6.4.85.25 1.05-4.4 6.25-23.1 15.75-17.5 8.9-25.6 10.2l-1.55-.05q-.4-.3-.45-1.35-.1-1.85.45-4.95.4-2.55.7-3.3l.8-.15.75.1q-.55 1.45-1.1 4.55t-.4 4.05q6.8-.55 25.05-10.15 19.15-10 23.65-16.35"/><path fill="#0d131a" d="M50.4 235.65q-.05-.1.25-.65l.45-.4q1.7 2.1 6.15 2.9 4.4.85 10.65.2l-.35.65-.9.7q-6.8.5-10.4-.25t-5.85-3.15m55.65-54q-.05-.25.55-.3.6-.1.65.15.65 5.2-.55 12.8-1.4 8.85-4.55 13.3-.1.25-.75-.4t-.5-.85q2.45-3 4.1-12 1.5-8.15 1.05-12.7"/><path fill="#0d131a" d="M106.35 183.3q-.2-.2.3-.55.45-.4.6-.2 5.9 7.2 4.15 21.9-.05.25-.75-.65l-.7-1.2q.75-6-.2-11.15-1-5.2-3.4-8.15"/><path fill="#0d131a" d="M105.1 196.05q-.2-.15.45-.45.65-.35.85-.2 5.7 3.8 6.6 13.65.5 5.75-.85 15.7l-.6.2q-.6-.1-.6-.35 1.2-8.55.4-15.25-1.15-9.6-6.25-13.3m-.8 3.1q.15-.2.35.6.2.75 0 .95-.9.8-2.85 1.25l-3.85.1-.55-.75q-.35-.75-.1-.65 1.6.55 4-.05 2.3-.55 3-1.45"/><path fill="#0d131a" d="M91.4 197.85q.3-.65.55-.65 6.55-.05 17.4 20.7 5.5 10.35 9.75 21v.5q-1.45 3.5-12.4 4.85-11.4 1.4-20.55-1.35l-.25-.15q-5.3-5.7-9.6-15.05-4.85-10.55-3.65-16.6.05-.2.85-.4.85-.2.85 0l-.05.15q-.9 4.65 2.5 14 3.8 10.3 9.9 16.95 7.35 2.15 18.5 1.1 10.85-1 12.45-3.65-5.3-13-11.85-24.5-9.3-16.35-14.5-16.3-.25 0 .1-.6"/><path fill="#0d131a" d="M116.15 241.1q-.05-.1.65-.45.65-.35.8-.2l3.5 7.7q3.45 7.9 3.55 9.25.1 2.25-9.65 3.9-10.05 1.7-15.15-.35-2.2-.9-6.9-7.95-4-6-5.9-10.1-.05-.2.5-.45l.6-.05q1.9 4.1 6.15 10.05 4.45 6.3 6.25 7.05 3.8 1.55 12.45.6 8.5-.95 10.35-2.9-.3-1.6-3.55-8.55z"/><path fill="#0d131a" d="M113.05 277.05q-1.5-.7-5.75-6.3-3.5-4.55-7.5-10.55l2.1.5q9.45 14.1 11.65 15.25l8-.25q5.7-.95 6.4-2.45-.05-.95-2.5-6.9l-3.3-7.7.7-.55q.7-.5.8-.3 5.8 14.25 5.5 15.75-.4 2.45-7.35 3.55-6.5 1.05-8.75-.05m-30.5-40.25q.25.05.15.65l-.35.55-2.8-1.15q-1.85-1.1-2.1-2.1-.1-.4.1-2l.25-2.45q.05-.25.65-.2t.6.3l-.2 4q.15.55 1.5 1.4 1.3.85 2.2 1"/><path fill="#0d131a" d="M89.1 259.25q6.5 2.5 8.75 2.55.5-.9.5-2.65 0-.25.6-.25t.6.25l-.1 1.45q-.25 1.55-.75 2.15l-.75.3q-2.8-.05-9.45-2.35-8.1-2.8-10.7-5.95-.7-.85.25-19.6.05-.2.6-.2.6.05.6.25v.05l-.4 18.1q2.55 2.95 10.25 5.9"/><path fill="#0d131a" d="M86.25 273.6q5.45 2.3 7.25 2l1.5-6.9 1.35-6.65q.1-.2.65 0l.5.4-1.5 7.65q-1.25 6.6-1.9 6.9-1.55.7-7.9-1.95-6.75-2.8-7.65-5.65-.35-1-.4-7.75-.05-6.1.05-7.35l.75-.1q.75.1.7.35-.15 1.35-.15 7.35-.05 6.3.2 7.1.7 2.15 6.55 4.6"/><path fill="#0d131a" d="m81.55 271.65.6.6q-4.65 7.75-5.7 23.25-.9 13.9 1.35 24.75l.35.75.2-.65q.25-5.75 3.2-23.35t4.55-22.65l1.05.1q1 .3.9.55-1.8 3.95-5.15 22.9-2.8 16.15-3.55 23.05-.25 2.2-.95 2.3-.75.15-1.55-2.3-3.4-10.55-2-26.55 1.4-15.5 5.9-23.05zm37.85 5.2q-.05-.25.7-.45l.75.1q1.45 8.75 9.45 19.4 7.95 10.65 17.85 17.2l.35.1-.05-.3q-1.8-2.05-12.8-19.05L124.1 276.1q-.1-.1.35-.5.4-.4.55-.25 2.1 2.45 12.25 18.35l11.35 17.5q1.95 2.55 1.35 3.2-.65.65-3.3-1.05-10.25-6.55-18-16.95t-9.25-19.55m-31.55-163.4q-.25 2.3.55 5 .45 1.6 1.4 2.85t2.05 1.8l1.8.15q1.2-.55 1.4-2.75.15-2.2-.8-4.7-1-2.75-2.55-4.1-1.4-1.3-2.7-.75-.9.4-1.15 2.5m2.5 10.1q-1.95-1.5-2.9-4.65-1-3.3-.65-5.8.3-2.45 1.8-3.1 1.55-.65 3.45.8 2.1 1.6 3.3 4.8 1.1 2.95.7 5.45-.35 2.45-2 3.15-1.8.8-3.7-.65"/><path fill="#fff" d="M89.55 111.15q.5-.2 1.2.55.8.9 1.2 2.5l.35 2.3q-.05 1.3-.6 1.5t-1.2-.55q-.75-.85-1.25-2.35-.45-1.35-.35-2.55.1-1.15.65-1.4"/><path fill="#0d131a" d="M139.55 110.6q-.45-2.1-1.45-2.45-1.2-.35-2.65 1.15-1.55 1.6-2.25 4.25-.75 2.6-.35 4.85.4 2.2 1.7 2.6 1.45.5 2.85-.9 1.5-1.5 2.05-4.45.55-2.8.1-5.05m-4.75-2.05q1.9-1.9 3.65-1.35 1.45.5 2.05 3t-.05 5.65q-.7 3.5-2.55 5.2-1.7 1.55-3.65.9-1.75-.55-2.35-2.95-.65-2.45.15-5.55.8-3.05 2.75-4.9"/><path fill="#fff" d="M137.75 108.4q.55.1.7 1.3.2 1.3-.2 3t-1.05 2.6q-.55.7-1.05.6-1.25-.25-.65-3.95.3-1.7 1.05-2.75.65-.9 1.2-.8"/><path fill="#0d131a" d="M76.45 117q-2.6-1.15-3.8-1.95 3.2 9.35 9.55 14.8 7.5 6.45 17.35 5.2-4-1.55-7.45-4.65l-5.1-5.5q-3.25-3.9-5-5-2.2-1.45-5.55-2.9m-5.85-3.3q-.05-.2.55-.5l.75-.2q1.55 1.35 5 2.85 4.35 1.9 6.5 3.45 2.25 1.6 4.95 4.8 3.6 4.3 5.1 5.7 3.35 3.1 7.55 4.5l.8.8q.55.7.35.75-12 2.6-20.8-4.65-7.55-6.2-10.75-17.5m82.2.1q-6.6 3.3-10.15 6.65l-5 5.5q-3.15 3.8-5.1 5.5 7.9.65 15.55-6.7 6.45-6.2 8.5-13zm3.7-3.35q1.2-.75 1.5-.4.25.3-.05 1.45-2.15 8.15-9.65 15-8.85 8.1-18.3 6.4-1.05-.2.7-1.45l3.1-3.05 2.9-3.55q3.45-4.15 6.25-6.45 3.35-2.65 9.35-5.7z"/></svg>