<svg xmlns="http://www.w3.org/2000/svg" width="209" height="184" viewBox="-1.35 -0.55 209.35 184.45"><path fill="#ba004f" d="M16.45 91.4Q21 102.15 24 111.45q2.6 8.1 3.7 14.5 1.15 6.7-.1 7.3-2.15 1.05-7.25-3.25-4.65-3.95-8.75-9.7-3.2-4.45-3.15-11.7l.65-7.3q0-1.15-2.1-10.25-2.3-10.15-4.2-16.3Q.05 65.9 1 65.45t5.95 7q4.1 6.1 9.5 18.95"/><path fill="#3f3a28" d="m37.4 94.55.9-1.8q-.25-5.1-1.6-14.25-1.35-9.3-2.65-14.4-.4-1.7-.1-2.4.45-1 2.5 1.6 1.7 2.2 3.9 8.25Q42 76.1 45.1 86.35l.45 8.5-9.15 4.3q.1-2.35 1-4.6M8 95.75q3.55-3.8 8.4-3.65 4.95 11.4 7.6 19.35l1.6 5.4q-4.55-.3-7.85 2.05-2.4 1.7-3.8 4.45l-2.35-3.05q-3.2-4.45-3.15-11.7l.65-7.3z"/><path fill="#ba004f" d="M38.05 89.7q-.5-5.75-1.7-13.4-1.2-7.8-2.3-12.2-.65-2.6-.2-3 .5-.5 2.6 2.2 1.65 2.15 3.85 8.15 1.7 4.6 4.65 14.3-4.25.2-6.9 3.95"/><path fill="#3f3a28" d="M116.2 163.05q4.35-2.2 8.65-4.45l9.9 5.7q-1.45 3.1-4.8 6.1l-4.55 3.35q-1.75 1-3.25.75-1.8-.3-1.9-2.5-.15-4.45-4.05-8.95m66.05-4.85q-.55 6-1.8 10.3-1.2 4.1-3.35 7.7-2.7 4.4-4.5 4.65-1.95.25-4.35-4.25-1.85-3.55-5.5-6.45l-5.15-3.45 14.75-12.2zm-104 .7 8.9-1.75 20.45 5.3q-5.2 1.3-9.05 5.95-3.15 3.8-4.85 9.1-1.4 4.55-3.65 4.9-2.25.3-5.8-3.3-3.25-3.25-5.1-10.55-1.65-6.55-.9-9.65m-2.8-.15q-1.6 1.35-2.15 4.5-.3 1.8-.3 4.8l-.05 4.65q-.7 2.45-4.5.1-3.95-2.45-7.2-9.35-2.65-5.55-3-9.1l9.05-3zm-30.85-8.8 5.7-2.4 7.25 6.65q-1.25 1.3-1.75 2.25-.7 1.45-.7 3.7l.1 5.45q-.6 2.45-4.3 0t-5.3-8.4q-1-3.6-1-7.25m-4.75-6.3 3.8 6.25q-2.35 2.9-2.8 8.45-.15 1.2-.75 1.35-.5.1-1.15-.4-3.85-3.1-4.25-8-.1-1.2.4-5.2z"/><path fill="#ba004f" d="m30.1 121.25 4.1 15.85 1.25 8.65q-5-2.3-9.5-7.75-3.7-4.45-4.2-6.85l5-11.15q1.45 0 3.35 1.25"/><path fill="#094" d="m78.1 49.9 54.95 67.55.6 46.4-20.45-.85-14.7-2-7-3.3-10.2 1.95q-13.9-1.65-23.55-10.4-4.1-3.7-9.5-11.9-3.45-5.3-5.35-15.55-2.65-14.35.45-29.4 3-14.6 16.35-28.1 8.7-8.8 18.4-14.4"/><path fill="#094" d="m44.75 86.8 23.7 42.55-1.05 26.6-6.65-1q-4.15-.9-9.7-3.25-6.05-2.5-10.9-10.25-4.35-6.9-5.95-14.85-2.7-13.7 1.6-25.8 1.95-5.5 4.15-8.7 1.7-2.5 4.8-5.3"/><path fill="#094" d="m33 112.6 13.45 13.75 4.6 25.35q-4.4-.85-8.95-2.55-4.25-1.6-5.95-2.85-1.55-1.2-4-6.35-2.45-5.1-3.4-9.1-.8-3.55 1.15-10.55 1.75-6.2 3.1-7.7"/><path fill="#ba004f" d="M193.5 74.05q10.7 18.45 12.45 35.15.95 9.1-1.3 17.5-1.55 5.6-4.8 11.55l-22.2 18.95q-16.35 13.5-38.65 8.2-13.15-3.15-22.35-10.05l-2.45-2.45-2.6 1.85q-2.9 2.9-5.65 4.15-7.05 3.2-18.15 2.05-14.4-1.55-25.1-13.6-11.15-12.55-12.8-30.65-1.4-15.45 7.8-27.2 4.6-5.85 9.45-8.6 1.6-19.75 14.65-38.85 15.05-22.15 35.9-26 18.25-3.4 35.6 4.8 17.1 8.1 26.55 24.25z"/><path fill="#3f3a28" d="M54.6 107.25q2.1-10.15 8.85-11.75T76.7 102q5.55 7 7.8 16.45t.45 18.15q-2.05 10.15-8.9 11.75T62.8 141.9q-5.55-6.95-7.8-16.45t-.4-18.2"/><path fill="#ba004f" d="M76.6 121.4q1.3 5.4.35 10.35-1.05 5.75-4.75 6.6-3.7.9-7.3-3.7-3.05-4-4.35-9.4-1.25-5.4-.3-10.35 1.1-5.75 4.75-6.6 3.7-.9 7.25 3.75 3.1 4 4.35 9.35"/><path fill="#3f3a28" d="M162.05 79q24.85 16.55 27.6 36.4l-32.15 8.15-47-16.8q3.7-9.6 16.45-19.3 6.6-5 15.1-9.9-.05-1.7.85-13.5l1.3-17.2q.15-2.8 1.35-2.3l1.75 1.75q2.3 2.8 5.95 9.8 5.85 11.2 8.8 22.9"/><path fill="#ba004f" d="M173.65 99.5q12.15 8.95 13 16.5l-13.6 33.5q-5.1 2.35-6.65 2.45-3.7 8.75-10.35 15.8-5.65 6.05-6.65 5.25-2.75-2.1-7.6-12l-4.3-9.5q-6.35-3.6-8.15-5l-11.85-40.15q3.45-4.05 7.15-6.2 2.55-1.5 8.9-3.85 7.85-2.95 16.3-11.4 2.9-2.85 4.5-2.6 1.25.15 4.45 3.1l6.15 6.35q4.25 4.5 8.7 7.75"/><path fill="#ba004f" d="m189.35 48.2 2.8 6.75q2.45 8.6.75 17.8-3.4 18.4-20.3 38.6-5.55 6.65-6.5 5.5-.75-.9 1.2-8.55 4.15-16.45 8.55-40.9 4.8-26.45 7.65-50.65.9-7.85 1.65-10.15.5-1.5 1.45-1.6 1.2-.1 1.95 3.25.65 2.85 1.2 9.65.75 8.45-.4 30.3"/><path fill="#3f3a28" d="M177.55 57.95q3.25-3.25 7.4-2.55 4.75.75 8.45 6.5.5 5.45-.5 10.85-2.05 11.15-9.05 22.9-.45-5.8-4.5-7.9-4-2.05-7.75.55l2.9-14.4z"/><path fill="#ba004f" d="m114.45 47.65 1.05-2.6q-1.85-22.7-.05-34.95 1.3-8.9 3.45-8.9.85 0 1.1.85l1.05 7.55q1.65 15.05 7 39.75 7.85 36.45 17.3 56.85 2.15 4.6 2.95 7.8.8 3.15.05 3.45-3.05 1.35-15.3-12.85-12.8-14.8-17.85-27.15-4.45-10.85-2.55-22.7.65-3.75 1.8-7.1"/><path fill="#3f3a28" d="M115.2 77.45q-2.7-6.6-3.05-13.55 1.8-4.1 5.5-6.25 5.15-3 12.1-.65 4.1 17.5 8.55 31.05-.85-.7-2.65-1.1l-4.7.25q-2.15.85-3.95 2.95-1.45 1.75-2.25 3.85-6.45-9-9.55-16.55"/><path fill="#fabe00" d="M129.9 144.95q-.45 1.65-1.65 3.55-1.35 2.05-3.05 3.5-4.65 4-10.65 2.75-5.85-1.25-10.8-6.9-6.5-7.35-6.9-18.55-.25-6.55 2.3-11.9 2.25-4.75 6.25-7.75 10.7-8.05 19 1.85 2.95 3.55 4.6 8.7 2.35 7.35 2.4 13.8 0 5.1-1.5 10.95"/><path fill="#ba004f" d="M129 120.2q2.35 7.35 2.4 13.8 0 5.1-1.5 10.95l-.6 1.6q-10.9-4.75-20.55-15.55-6.1-6.9-9.65-13.5 2.2-4.75 6.3-7.85 10.7-8.05 19 1.85 2.95 3.55 4.6 8.7"/><path fill="#fabe00" d="M199.6 127.75q.95 7.2-.65 13.3-1.75 6.65-6.25 11.35-7.3 7.55-13.5 5.25-5.7-2.1-6.3-9.9-.45-5.9 1.55-13.85 2.25-9 6.3-13.65 5.9-6.85 11.7-4.65 5.85 2.25 7.15 12.15"/><path fill="#ba004f" d="M199.4 126.55q-2.5 4.75-8.05 10.55-8.55 8.9-18.25 12.35l-.2-1.7q-.45-5.9 1.55-13.85 2.25-9 6.3-13.65 5.7-6.6 11.35-4.75 5.7 1.85 7.3 11.05"/><path fill="#3f3a28" d="M105 126.75q4.65 6.05 9.8 10.5-2.05 2-5.6 7.95-.6 1.1-1.05 1-.3-.1-.9-1.15-2.05-3.75-2.45-10.1-.25-4.1.2-8.2m80.3 15.8q5.65-4.45 10.25-10.35.15 5.35-2.15 10.95-1.65 3.9-4.1 7.2l-1.2 1.2q-.45.05-.65-1.2-.7-3.65-2.15-7.8m-47.8 8.95 7 15.55q-7.4-1.2-15.2-4.5-7.7-3.25-12.65-7.2 4.5.6 9-3.85 2.2-2.25 3.55-4.6zm28.9.45 7.15-2.2q-.1 1.5 1.15 3.65l2.75 3.8q-6.8 5.3-14 7.9l-5.85 1.6q2.55-2.2 5.95-8.7z"/><path fill="#db919c" d="M162.35 36.35q-1.05 1.5-3.85 1.45-3.3-.05-6.95-2.55t-4.95-5.5q-1.1-2.6-.05-4.15 1.05-1.5 3.9-1.45 3.3.1 6.9 2.55 3.65 2.5 4.9 5.5 1.15 2.65.1 4.15"/><path fill="#302816" d="M65.95 145.7q-4.85-4.15-8.45-12.15l-2.6-7.15q4.9 5.65 11.8 10.2 8.05 5.25 16.1 7-1.9 2.45-5 3.95-6.15 2.95-11.85-1.85"/><path fill="#9a003f" d="M67.15 146.4q6.4 3.8 11.65.85 2.65-1.45 4-3.65 9.35 2 17.3-1.2.7 2.95 6.5 7.7 2.85 2.4 5.6 4.2-9.55 7.9-21.3 7.1-11.25-.8-23.3-9.4-9.8-7.05-14.4-20.35-1.45-4.15-2.2-8.45l-.45-3.45q1 2.75 4.35 6.65l3.4 8.5q4.3 9 8.85 11.5"/><path fill="#302816" d="M135.65 165q-10.55-3.2-19-9.5l5.5-1.75q5.8-2.6 7.15-7.15l3.2 2.2 4.25 2.7 7.7 15.45q-3.55-.35-8.8-1.95m30.75-12.8 6.8-2.55q0 1.75 2 4.8l1.95 2.7q-4.65 5.25-12.6 7.8l-7 1.5q3.25-3 8.85-14.25"/><path fill="#9a003f" d="M158.85 164.35q-6.4 8.1-9.4 8.8-1.2 0-10.25-17.5.7 1.05 3.4 2.55 3.15 1.75 6.6 2.6 9.75 2.3 15.45-4.4zm-34.4-70.25 1.6-3.2q6.05 8.6 11.45 14.05 6.15 6.3 10.05 7 1.55 4.35.6 5.3-2.15.95-9.75-6.65-7.05-7.05-13.95-16.5"/><path fill="#302816" d="M115.75 74.3q4.2 8 10.3 16.6l-1.6 3.2q-3.5-4.8-5.95-9-4.65-8.05-6.2-15.65l-.45-4.25q.7 3.05 3.9 9.1"/><path fill="#9a003f" d="M184.25 95.55q-3.65 6.2-10.25 14-6.4 7.5-7.7 7.5-1.05 0-.5-3.05l.7-3.1q7.25-4.25 16.2-19.75z"/><path fill="#302816" d="m184.25 95.55-1.55-4.4q4.1-7.1 7.6-14.85 2.7-5.9 3.05-7.5l-1.3 8.05q-2.4 10.1-7.8 18.7m-170.35 28-.95-1.05q-3.6-4-4.35-9.3l-.05-4.35q.05 1 2.05 4.35 2.1 3.55 5.05 7.45z"/><path fill="#9a003f" d="m13.9 123.55 1.75-2.9q3.7 4.85 6.85 7.7 3.7 3.4 5.6 3l.1.85q-.05.9-1.1 1.4-1.4.65-5.3-2.45-3.45-2.75-7.9-7.6"/><path fill="#9a003f" d="m22.25 132.5 1.85.55 3 .55q.9 0 1.1-2.1v-2.15q.65 3.8 3.85 10.4 1.6 3.3 3.1 5.85-6.55-2.3-10.35-7.95z"/><path fill="#00873c" d="M53.7 131.7v1.85q1.05 3.2 6 10.1T73.3 156q4.35 2.7 7.65 4.05-2.2 0-8.55-2l-5.85-2q-4.85-.15-12.1-2.85l-6.25-2.7q-6.65-.7-13.05-4.9-1.05-.7-3.75-7.05l-2.45-6.2q3.95 1.25 9.65 1.35 7.35.1 15.1-2"/><path fill="#302816" d="M121.3 174.1q-1.4-.9-1.3-3.15.05-1.6-1.9-4.65l-1.95-2.7h15.7l2.8 1.25-2.85 3.85q-3.35 4.1-6 5.25zM79 167.55l-1.05-3.75.6-4.85q3.9 2.2 12.45 2.3l7.75-.3 8.3 1.85q-2.85.65-6.7 4.25l-3.3 3.45q-5.5.95-11.7-.65Q82 169 79 167.55m-42.6-15.8-1.85-1.1.1-5.25 8.9 4.55-1.6 3.85q-3.05-.8-5.55-2.05m8.4 4.1-.25-5.55 3.3.35 9.45 3.3q-1.05 1.1-2.2 5.3-3.55.7-7.25-1.25zm13.05-1.45 9.65 1.35q2.4 1.8 7.95 2.7-1.3 1.15-1.7 4.05-.25 1.5-.2 2.7-2.85 1.45-7.95-.45l-4.55-2.2q-.8-1.05-2.05-4.7zm124.65 6.3q-1.3 2.65-5.9 6.7-5.9 5.3-10.75 5.6-4.35-4.3-7.35-5.5l1-.8 6.6-2.35q7.35-3.2 11.05-7.2l2.05.65 3.65.4z"/><path fill="#00873c" d="m112.2 154.3 4.2.65q3.4 2.9 10.55 6.4 3.55 1.75 6.45 2.9l-22.85-1.35-12.75-1.8q5.4-.55 10.45-3.7z"/><path fill="#0f141b" d="M192.3 74.5q-.15-.35.55-1.1.7-.8.9-.5 5.45 8.3 9.05 18.2 3.4 9.25 4.2 17.25 1 9.6-1.4 18.75-2 7.7-5.75 13.15-.2.25-.6-.9-.35-1.2-.15-1.55 7.05-12.6 5.35-28.7-1.8-16.85-12.15-34.6m-12.95-32.15q.3.45.05 2.2t-.45 1.4q-8.85-15.1-24.45-23.15-15.65-8.1-32.4-6.25l-.45-2.65q17.15-1.85 33.45 6.45 15.7 8 24.25 22m-64.7-24.45q-19.45 5.6-33.4 27.2Q69.4 63.5 68 80.95l-.4.65q-4.8 2.85-9.15 8.6-8.75 11.45-7.4 26.4 1.7 18.9 13.5 31.25 10.35 10.9 23.3 12.25l12.55-.6q7.45-1.55 11.25-5.7l1.25 1.15q-4.15 4.55-12.05 6.4-6.6 1.55-13.35.8-13.65-1.45-24.7-12.95-12.3-12.85-14.05-31.8l-.2-4.05q.15-14.05 7.95-24.3 3.85-5.1 9.55-8.9 1.05-20 15.45-39.85 14.95-20.6 33.4-25.25z"/><path fill="#0f141b" d="M65.2 108.95q-1.8.45-2.9 2.3-1.45 2.35-1.65 6.5-.2 3.75.6 7.3.85 3.5 2.65 6.75 2.1 3.7 4.5 5.15 1.8 1.15 3.6.75 2.35-.55 3.55-3.55 1.05-2.65 1.05-6.55 0-3.05-.65-6-1.25-5.15-4.15-9-3.3-4.4-6.6-3.65m-.35-1.35q4.15-.95 8 3.7 3.4 4.1 4.85 9.85 1.45 5.65.2 10.95-1.4 5.95-5.55 6.95-2.65.7-5-.75-2.65-1.65-4.9-5.55-1.95-3.45-2.85-7.25-.9-3.75-.65-7.7.2-4.5 1.85-7.2 1.5-2.4 4.05-3m64.6 35q1.45-5.75.75-12.4-.65-6.25-2.85-11.7-1.7-4.15-3.6-6.45-7.75-9.25-17.8-1.75-4.15 3.15-6.3 8.1-2.15 5-1.95 10.9.4 10.8 6.65 18 4.85 5.5 10.45 6.6 5.6 1.15 9.85-2.55 3.3-2.85 4.8-8.75m-4.1-31.55q2.3 2.65 4.1 6.8 2.35 5.35 2.9 11.45.8 8.2-1.1 14.6-1.75 5.85-5.4 8.85-4.95 4.1-11.4 2.9-6.5-1.15-11.85-7.2-6.65-7.55-7.1-19.05-.2-6.35 2.1-11.65 2.35-5.35 6.85-8.75 5.6-4.2 11-3.65t9.9 5.7m70.95 9.05q-1.85-3-4.6-3.85-2.4-.7-5.1.5-2.75 1.15-5.25 4.05-3.85 4.45-6.1 13.25-1.95 7.85-1.5 13.65.25 3.35 1.85 5.85 1.55 2.45 4 3.3 2.75 1 5.95-.3 3.25-1.3 6.55-4.75 4.8-5 6.35-12.15 1.15-5.5.3-11.8-.65-4.7-2.45-7.75m-4.1-5.5q3.9 1.2 6.25 5.65 2.15 3.95 2.75 9.85.65 6.5-1.5 12.85-2 6.15-5.85 10.15-4.35 4.5-8.95 5.6l-5.9-.25q-2.9-1-4.85-3.95-2-2.9-2.4-6.8-.7-6.1 1.4-14.2 2.3-8.95 6.6-13.9 2.9-3.35 6.25-4.65 3.2-1.25 6.2-.35"/><path fill="#0f141b" d="M129.7 145.75q.35.1 0 .9l-.65.65q-13.3-4.85-23.25-17.45-3.1-3.9-5.5-8.2l-1.85-3.55q-.15-.35.55-.9.65-.55.8-.25.1.5 1.95 3.4 2.5 4.15 5.65 8 10 12.25 22.3 17.4m69.1-19.9q.15-.35.95 0 .75.35.6.7-2.2 4.9-7.55 10.85-8.65 9.5-19.5 12.9-.35.1-.6-.7-.3-.8.05-.9 9.8-3.45 18.45-12.7 5.8-6.2 7.6-10.15"/><path fill="#0f141b" d="M165.6 151.6q.2-.35.75-.5 2.9-.8 6.3-2.4.3-.15.65.65.3.75.1.9l-2.3 1.35-3.75 1.65q-3.55 8.1-9.85 14.7-5.05 5.25-7.6 5.9l-1-.15q-2.75-2.1-7.5-10.95-3.15-5.95-4.95-10.2l-5.2-3.4-2.4-1.95q-.15-.1.3-.85.45-.7.7-.55l7.6 4.7q.7.45.95 1.05 1.65 4.5 6.2 12.75 4.4 8.05 5.1 8.15 1.15.15 6.4-5.85 6.2-7.2 9.5-15"/><path fill="#0f141b" d="M154.25 86.45q-.3-1.4.2-1.55t.9 1.2q3.75 11.7 3.65 36.4-.05 29.35-7.3 46.05-.65 1.55-1.2 1.3-.6-.2-.05-1.75 5.8-16.55 6.4-43.05.55-22.9-2.6-38.6m22.85 70.1q.3-.25.85.4.5.65.25.9-10 8.95-22.25 10.55l2.7-3.05q10.2-2 18.45-8.8m-59.95-1.9 8.1 4.8q9.8 4.9 19.45 6.15l1.5 2.9q-10.75-1.1-21.8-7.05l-9.1-5.9q-.25-.2.65-.65.95-.45 1.2-.25"/><path fill="#0f141b" d="m94.6 162 4.45-1.75 13.95 1.9 19.5.8.95.85q.6.85.25.9-10.65.6-22.9-.6zm83.55-57.75 1.4-2.05q3.75 3.4 5.6 6.9 1.65 3.05 2.1 6.6.05.35-.7.55-.7.2-.75-.15-.6-5.55-7.65-11.85m-54.95-2.1q-2.5 1.8-5.05 4.75-.2.25-.85-.3t-.45-.8q2.3-3.05 4.75-5.05 2.3-1.9 5.4-3.4l1.55 1.8q-3.2 1.4-5.35 3m46.2-5.05-6.95-6.8-4.2-4.3q-3.05-2.75-4.1-2.85-1.2-.15-3.7 2.35l-.1.1q-5.2 5.2-10.15 8.3l-.8-2.25q5.6-3.5 10.2-8.2 3.05-3.1 5.15-2.55 1.2.35 4.95 3.75l10.2 9.6z"/><path fill="#0f141b" d="m121.7 89.55 1.3 2q-7.95 7.5-11.75 15.5-.2.4-1.55-.6 3.2-8.85 12-16.9m50.25-5.2-.6 2.7q-4-3.5-8.8-6.7l-1-.9q-.35-.4-.6-1.3-3.1-11.65-9.05-22.85l-5.5-9.1-.9-.95q-.4-.05-.5 1.4l-2.05 28.95-.15 1.85q-.3.75-1.6 1.4l-5 2.8-.55-2q2.9-1.7 5.3-2.7.2-6.95 1.2-18.35.85-10.05 1.2-11.95.55-3.35 1.9-3.2 1 .1 2.75 2.3l5.65 8.3q6.2 10.9 9.15 24.45 4.75 2.4 9.15 5.85m10.1 14.5 1.3-2.1q5.8 8.85 7.15 18.55v.1q0 .35-.85.4-.8.1-.85-.25-1.2-8.5-6.75-16.7m-77.95 27.7q.05-.3.8-.25.8.05.8.3v.1q-.3 3-.25 5.4 0 7.65 2.4 12.85l.4.65.35-.4q3.2-6.1 5.65-8.3.2-.2.7.35.45.5.25.7-2 1.8-5.35 7.6-.85 1.45-1.6 1.4t-1.6-1.6q-2.2-3.9-2.65-10.6-.3-4.3.1-8.2m90.75 6.4.7-.6q.7-.45.7-.2.15 5.55-2.15 11.2-1.65 3.95-4.25 7.45-.9 1.2-1.7 1.25-.95.05-1.4-1.55l-2.1-7.6q-.1-.3.55-.55l.8.05q.8 1.75 1.95 7.8.1.45.3.4l.5-.5q2.1-3.2 3.7-7.1 2.3-5.55 2.4-10.05M115 163.65q-.2-.25.8-.55l1.25-.05q3.8 4.35 3.95 9.1.05 1.05.7 1.5 1.1.65 3.2-.5l3.7-2.65q3.8-3.2 5.35-6.55.15-.35 1.25.15 1.05.45.9.75-2.45 5.3-10.05 9.65-1.2.65-2.5.85-1.55.2-2.6-.4-1.25-.65-1.55-2.9-.45-3.85-4.4-8.4m67.65-5.85q1.2.05 1.15.4-.55 5.8-2 10.35-1.35 4.15-3.7 8.05-3.1 5.15-5.8 5.1-2.55-.1-5-4.65-1.6-3.1-5.55-5.9l-5.45-3.4 2.35-1.4q7.3 4.4 10.3 10.05 2.05 3.8 3.35 3.8 1.45.05 4-4.25 2.15-3.6 3.35-7.8 1.25-4.25 1.75-10.05.05-.35 1.25-.3M77.75 50.15q-.3 1.15-.85 1.45-9.4 5.8-17.1 13.75-12.7 13.05-15.65 27.2-3.05 15-.45 28.9 1.75 9.55 5.25 15.4 4.15 7.05 9.85 12 9.7 8.45 22.6 9.95.35.05.25.9t-.45.8q-22.9-2.55-34.25-22.65Q43 131 41.15 121.5q-2.75-14 .45-29.4 3.3-16 18.85-30.3 8.25-7.6 17.2-12.6.4-.2.1.95"/><path fill="#0f141b" d="M44.15 86.15q.25-.2.85.4.55.65.3.85-3 2.75-4.55 5.05-2.25 3.2-4.15 8.65-4.25 11.95-1.55 25.35 1.55 7.75 5.8 14.55 4.7 7.5 10.55 9.95 5.1 2.1 8.85 3l6.15 1 1.25 1.65-7.25-.7q-4.85-.9-10.15-3.1-6.2-2.6-11.25-10.45-4.55-7.2-6.15-15.3-2.75-13.85 1.65-26.25 2-5.65 4.6-9.25 1.75-2.45 5.05-5.4"/><path fill="#0f141b" d="M32.35 112q.25-.25.85.3.65.6.4.85-1.25 1.45-2.9 7.45-1.85 6.75-1.1 10.05.9 3.85 3.25 8.9 2.4 5 3.8 6.05 1.7 1.3 5.85 3 4.6 1.85 8.7 2.7.35.1.2.7-.15.65-.5.55-4.55-.9-9.2-2.65-4.35-1.65-6.05-2.95-1.8-1.35-4.4-6.45-2.65-5.1-3.55-8.95-.85-3.75 1.25-11.2 1.9-6.65 3.4-8.35"/><path fill="#0f141b" d="M26.75 119.45q1.45-.3 3 .7.25.15-.1.9l-.6.6q-.85-.65-1.85-.65zm-5.9 11.65q-.05-.35.8-.4t.9.3q.55 2.3 3.85 6.4 4.15 5.1 8.95 7.35.3.15.35 1.1.1.95-.25.85-6.1-2.25-10.5-7.7-3.5-4.4-4.1-7.9m56 27.45 1.2-.05q1.15.25 1.05.6-.75 2.95.95 9.45 1.8 7.15 4.8 10.15 3.45 3.45 5.25 3 1.6-.4 2.8-4.25 1.55-4.75 4.1-8.3 4.1-5.6 10.2-7.15l1.45.5q1.1.55.75.6-5.65 1.45-10.1 6.75-3.4 4-4.55 7.85-1.55 4.8-4.25 5.45-2.95.75-7.1-3.4-3.4-3.45-5.5-11-1.9-6.95-1.05-10.2"/><path fill="#0f141b" d="M61.95 163.05q3.2 6.9 7.05 9.25 2.25 1.4 2.9.95.4-.25.45-1.45l-.05-2.2q0-9.3 2.6-11.5.25-.2 1.2.25.9.5.65.7-1.45 1.25-2.15 4.15-.5 2.2-.7 6.05l-.05 3.3q-.2 1.35-1.15 1.95-1.6.95-4.7-1-4.25-2.6-7.8-9.8-2.95-5.8-3.3-9.25-.05-.35 1.05-.45t1.15.25q.35 3.3 2.85 8.8"/><path fill="#0f141b" d="M54.5 158.1q.5-2.7 2.45-4.5.25-.25 1.15.4.9.6.6.8-2.85 1.8-2.65 7.2v3.45q-.2 1.4-1.15 1.95-1.5.9-4.5-1.1-4.05-2.7-6-8.95-1.25-4.05-1.25-7.3 0-.35 1.15-.4t1.15.3q0 3.1.85 6.5 1.5 6.15 5.1 8.6l1.75 1.05q.5.2.95 0 .4-.15.45-1.3l-.15-2.55q-.2-2.5.1-4.15"/><path fill="#0f141b" d="m33.6 145.35 2.25 1.35q-.4 1.85-.4 3.4 0 2.15.75 4.2.95 2.6 2.95 4.35l.6.55q.3.1.4-.9.7-6.25 2.85-8.9l1.15.1q.95.4.75.7-1.15 1.4-2.1 3.9-.85 2.3-1.15 4.35-.25 2.15-1.1 2.4-.75.25-2.15-.9-3.15-2.7-4.4-6.45-1.25-3.8-.4-8.15m-.25-81.85q-.55-3.2.2-3.65.8-.5 3.1 2.7 1.7 2.4 3.95 7.55 2.7 6.1 5.35 14.3.1.35-.75 1.4t-.95.7L40.2 74.35q-3.15-9-4.9-11.65-1.3-1.9-.85.05 1.4 6.75 2.8 15.2 1.65 10.1 1.9 14.75v.05l-1.9 2.3Q37 90.25 35.6 79.3zM7.85 95.1q3.45-3.95 8.65-3.3.3.05.3.6-.05.55-.3.5-2.8-.2-5.05 1.05Q10.2 94.6 8.8 96zm5.55 27.95q1.7-3.8 4.75-5.55 3.2-1.85 7.55-1.25.3.05.25.6l-.35.55q-7.6-.75-11.15 6.3l-.65-.05z"/><path fill="#0f141b" d="m38.55 89.65-.65.05q-.5-.25-.35-.5 1.1-1.85 2.55-2.7 1.7-1 4.6-1.2.25-.05.35.5.05.5-.25.55-4.45.45-6.25 3.3m75.8-79.25q.9-5.15 2.3-8.1.85-1.75 2.1-2.25 1.55-.6 2.2 2.35L122 9.55q2.8 25.3 9.65 52.9 4.5 18.35 10.6 34l6.4 16.25q1.35 4.75-.45 5.25-1.45.45-4.85-1.9-6.55-4.6-15.4-15.6-9.7-12.1-13.8-22.1-3.2-7.75-3.2-16.15 0-5.85 1.4-11.5.9-3.6 1.85-5.55-.95-11.45-.95-20.05 0-8.35 1.1-14.7m4.75-8.75q-.5-.2-1.2 1.4-2.5 6-2.5 21.55 0 9.25.95 20.4v.05l-.1.4-1.65 4.6q-1.65 5.75-1.65 11.7 0 7.95 3.05 15.4 4.4 10.75 14.9 23.65 9.1 11.2 14.9 15.15 1.2.75 1.55.75.75-.05.3-2.15-.7-3.1-3.6-9.15-3.6-7.45-7.65-19.35-4.25-12.4-7.05-23.9-4.45-18.3-7.35-38.5-1.8-12.6-2.4-20.85-.1-.95-.5-1.15"/><path fill="#0f141b" d="M111.55 63.95q1.15-3.65 4-6.1 5.35-4.6 14.15-1.75.25.1.05.75-.2.7-.45.6-7.8-2.35-12.7 1.7-2.6 2.1-3.75 5.25l-.75.1q-.65-.25-.55-.55m74.8-58.05q-.55 0-.95 1.8-.45 2.1-1.05 8.85-1.5 20-7.95 53.1-4.55 23.75-8.25 38.25l-1.75 6.35q-.3 1.45-.1 1.8.3.45 1.65-.8l4-4.45q16.8-20 20.1-38.2.7-3.55.7-7.15 0-6.4-2.05-12.2l-2.1-4.6-.1-.5.65-22.45q.05-5.85-.75-12.05-.6-4.9-1.2-6.55-.45-1.2-.85-1.2m-2.15.7q.7-2.55 1.95-2.65 3.15-.25 4.45 13.9.8 8.9-.1 30.2 4.6 7.55 4.6 17.15 0 3.75-.7 7.55-3.35 18-20.45 38.5L170 115.4q-3.2 2.9-4.5 2.05-1.1-.7-.6-3.55.45-2.45 1.4-6.15 4.7-18.9 9.4-44.9 4.8-26.55 6.95-46.2.85-7.5 1.55-10.05"/><path fill="#0f141b" d="M193.1 62.7q-3.65-6-8.7-6.55-2-.2-4.2.7-1.9.8-2.95 1.9-.2.25-.35-.45-.1-.65.1-.85 1.25-1.4 3.05-2.25 2.25-1.05 4.55-.85 2.3.25 4.6 1.95 2.8 2.05 4.85 5.75.15.25-.3.6zm-21.95 24.95q3.75-3.35 8.5-.9 2.85 1.45 4 4.55.75 1.95.7 4.2 0 .3-.65.4t-.65-.2q.05-1.85-.6-3.55-1-2.5-3.45-3.75-2.4-1.25-4.7-.6-1.3.4-2.85 1.55-.2.15-.35-.7-.15-.8.05-1m-39.95.25q-2.1.8-3.6 2.6-1.05 1.25-2.2 3.55l-.65-.15q-.55-.45-.45-.7 1.4-5.2 6.2-7l4.95-.25q1.95.45 3.1 1.4.25.2-.1.75-.3.6-.55.4-.7-.6-2.35-.9zm-115.3.25q4.85 10.85 8.85 23.3l3 10.35q1.8 7.2 1.2 10.5-.45 2.45-3.1 1.9-3.1-.5-7.8-4.85-4.15-3.75-7.5-8.45-2.9-4.05-3.1-11.1-.15-4 .45-7.3.2-1.05 0-2.75L.5 68.25q-1.85-7.2 3.6-1.1 2.1 2.35 5.1 7.6 3.25 5.7 6.7 13.4m-5.95 10.8q.25 1.35-.15 3.6-.55 2.75-.55 6.15 0 6.85 3.05 11.1 3 4.25 7.1 8.1 3.75 3.6 5.7 4.45l2.05.2q.4-.4.3-2.05-.3-4.1-4.65-18.2-2.8-9.05-8.6-22.55Q6.55 71.8 2.55 67.25q-.8-.85-1-.8-.15.05.15.95l4.25 15.3q2.7 10.35 4 16.25m42.95 13.6q.45-7.75 3.3-12.45 2.65-4.15 7.1-5.3 7.3-1.75 13.95 6.2 5.75 6.95 8.3 17.25 2.35 9.55.3 18.6-2.35 10.45-9.65 12.2-4.6 1.05-8.75-1.45-4.65-2.9-8.55-9.6-3.4-5.9-4.9-12.3-1.5-6.35-1.1-13.15m4.85-11.8q-2.75 4.45-3.15 11.9-.35 6.5 1.1 12.65t4.7 11.8q3.7 6.45 8.1 9.15 3.8 2.3 7.4 1.4 6.25-1.45 8.3-12.05 1.8-9.25-.4-17-2.75-9.8-7.85-16.3-6-7.6-12.3-6.1-3.6.85-5.9 4.55"/></svg>