<svg xmlns="http://www.w3.org/2000/svg" width="349" height="278" viewBox="-1.5 -6 349.05 277.8"><path fill="#b6aed2" d="m84.55 225 2.75 12.65-13 12.85q-10.9 10.8-12 10.25-1.2-.6 3.7-14.85 4.6-13.2 6.5-16.8z"/><path fill="#595857" d="M70.5 241.95q-.6-1.85-1.05-5.65 2.05-5.45 2.8-6.85l4.5-1.55q2.4 5.25 7.5 12.7l-9.2 9.1q-3.2-3.35-4.55-7.75"/><path fill="#b6aed2" d="M37.95 171.15q7.1-9.45 10.05-12.65l10.15 1.65-3.2 20.1-1.1 1.1-3.55 4.25q-1.6 2.1-1.6 7 0 5.7-1.65 9.4-1.9 4.35-15 14.35-11.55 8.8-22.25 15.05-7.5 4.4-8.35 3.55-.95-.9 3.05-9.55 7.75-16.85 16.65-30.35 8.05-12.2 16.8-23.9"/><path fill="#595857" d="m21.15 195.05 2.75-4.15q-.2 4.8 1.1 13.2 1.65 11.15 4.8 13.95l-10.8 7.6q-2.1-4.1-3.5-10.3-1.25-5.4-1.3-8.9 3.3-5.75 6.95-11.4m12.9-1.9q-.75-8.05-.4-16.15 7.5-10.35 12.2-16-2.05 20.05 2.85 30.25l-.15 4.85q-.25 3.1-1.5 5.9-1.35 3.1-8.35 9-3.5-5.3-4.65-17.85"/><path fill="#b6aed2" d="m160.25 255.85.85 10.95q.25 3-.55 3.5-.65.4-3.4-.45-7.75-2.3-15.1-7.2-4.85-3.25-8.15-6.55l12.7-5.05zm93.2-28.8q-7.55 4.75-17.6 5.5-2.7.25-10.8-.2l6.85-16.5 14.15-8.4q.75 1.65 8.65 13.6 1.7 2.55 1.35 3.7-.25.85-2.6 2.3m-5.4-179.6 8.8-2.75 3.1-.2q1 .65.7 3.85-1.2 14.3-6.95 23.8l-10.55-2-5.2-16.35zM92.5 38.75 86.2 57.3l-16.5 5.6q-3.05-4.65-9.7-11.55-2.5-2.6-2.65-3.6-.35-2 3.4-4.35 4.85-3 15.5-4.2 8.6-.95 16.25-.45M330.55 79.3q-9.55 12.6-22.5 26.3-14.6 15.4-25.45 25.8-15.55 14.95-18.95 15.25-1.25.1-1.65-7.55-.3-7.05.3-11.75.45-3.55 1.9-5.25.8-.9 2.8-1.9l5.15-2.95q3.8-2.4 4.25-3.15l3.25-9.25q2.95-8.75 3.95-10 2.55-3.2 7.65-7.05 4.25-3.2 13.65-9.35 19.7-12.85 32.75-20.8 6.05-3.7 7.05-3.15 1.15.6-2.45 7.2-4.15 7.65-11.7 17.6"/><path fill="#595857" d="M283.6 94.85q2-2.5 4.7-4.7-2.3 24.95 1.6 34.1l-10.05 9.8q-2.6-4-3.35-10.65-.5-4.3-.15-9.2l.05-.1 3.25-9.25q2.95-8.75 3.95-10M301.05 81l13.6-8.85q-.65 5.4-.5 11.5.25 8.45 2.2 12.9L304.9 108.9q-3.35-4.55-4-14.55-.45-6.1.15-13.35"/><path fill="#b6aed2" d="M250.25 64.9q6.2 11.9 6.6 22.15 7.7 7.15 12.15 15.85 4.75 9.35 5.35 19.85 1.2 20.15-5.05 35.15-4.95 11.9-13.3 18.2-5.75 33.25-27.25 52.7-16.2 14.7-36.4 18.25l-6.9.8q-12.35 7.05-32.05 8.65-28.25 2.25-53.25-11.1-20.8-11.1-32-28.5-9.5-14.7-10.7-31.45-16.55-34.3-8.95-71.2 2.75-13.3 8-23.75 4.6-9.05 7.95-10.75-.55-5.5 3.5-12.9 4.55-8.3 15.3-19.85 13.1-14 32.95-21.15 16.3-5.85 30.25-5.25 5.35-2.6 11.85-4.35 21.45-5.4 50.95 9.8 10.85 5.65 20.2 12.75 8.2 6.3 10.85 10.2 7.3 10.75 9.95 15.9"/><path fill="#b6aed2" d="M175.05 50.95Q168.9 44.3 153.95 35l-2-1.55q-.4-.9.25-3.65 2.5-11.15 3.5-22.65.3-3.05 1.3-3.55 1.05-.55 3.7 1.4 10.85 8.1 15.3 21 4.5 12.95 2.75 23.95-.4 2.7-1.45 2.7-.7-.05-2.25-1.7M92.4 215.3q1.1.35 1.2 1.3.1.85-.65 1.6-5.2 5.3-12.3 15.7-1.25 1.8-2.1 1.7-.55-.05-1.7-1.4-6.5-7.6-9.25-18.05-1.9-7.25-1.8-14.95.05-3.5 1.35-3.15l2.35 2.05q4.3 4.45 9.45 8.1 6.7 4.75 13.45 7.1M176 186l12.25 15.95q.9 1.2.5 2.15-.3.75-1.6 1.5-13.25 7.45-26.5 8.2-9.15.5-17.1-2.15-2.65-.85-2.7-1.7t2.5-2.15q7.75-3.9 16.55-11.3l11.95-11q1.3-1.25 1.8-1.3.95-.15 2.35 1.8"/><path fill="#595857" d="M167.2 137.6q-3.65 10.8-10.55 21-7.25 10.8-16.45 18.25-21.85 17.8-44.5 10.1-22.6-7.65-28.8-35.55-2.65-11.7-1.75-24.9.85-12.4 4.55-23.3 3.7-10.85 10.6-21.25 7.35-11.05 16.55-18.7 22-18.35 44.4-10.8 22.35 7.6 28.65 36.3 2.65 11.95 1.75 25.4-.8 12.65-4.45 23.45"/><path fill="#0f141b" d="m115.35 74.1 10 8.15q11.2 8.75 17.3 12.05l-2.55 11.3q-2.25 13.45-.85 24.2-5.6 4.2-12.25 10.05-13.25 11.7-18.4 19.9-3.05-4.2-13.05-13.6l-9.4-8.5 2.25-32.9q6.3-5.85 17.25-18.85z"/><path fill="#fabe00" d="m139.25 92.3 3.4 2-2.55 11.3q-2.25 13.45-.85 24.2l-7.6 6.1q-8.8 7.35-14.95 13.8-8.1-4.35-10.15-15.75-1.75-9.9 1.55-19.55 3.5-10.35 11.8-17.3 9.6-8.05 19.35-4.8"/><path fill="#b6aed2" d="M125.65 93.35q6.9-3.25 13.6-1.05l3.4 2-1.8 7.45q-1.9 9.1-2.1 17.45-4-3.65-12.9-9.6-7.15-4.75-11.25-7 5.05-6.4 11.05-9.25"/><path fill="#0f141b" d="m132.4 114.05-11.25 14.7q-1.65 2.25-2.65 1.65-.65-.4-1.1-2.35-1.55-6.1-.75-15.55l1.1-8.2 6.1 3.9q6.5 4.25 8.55 5.85"/><path fill="#ba004f" d="M211.8 100.2q5.05-11.65 15.45-13.3 10.55-1.6 18.55 7.4 7.15 8.1 8.85 20 1.6 11.55-2.3 21.2-4.7 11.7-15.6 12.8-10.6 1.1-18.8-8.05-7.15-8.05-8.85-18.9-1.7-11 2.7-21.15m13.05 95.8q5.6 7.3 1 18.15-3.95 9.35-12.35 15.85-8.45 6.5-18.5 7.9-11.7 1.7-17.3-5.65-3.65-4.7-2.95-11.15.6-5.65 4.35-11.75l4.2-1.45q3.55-1.4 4.85-2.65 1.25-1.25.25-2.75-1.45-2.05-1.45-2.3-.05-.7.8-1.2l1.35-.75q8.45-6.5 18.5-7.95 11.65-1.6 17.25 5.7"/><path fill="#b6aed2" d="M207.6 223.15q-4.25 3.25-9.2 4.15-5.75 1-8.4-2.4-2.6-3.4-.15-8.7 2.1-4.55 6.4-7.85 4.25-3.25 9.25-4.15 5.75-1 8.35 2.4t.15 8.7q-2.15 4.6-6.4 7.85m31.75-117.75q2.95 3.85 3.85 9.5.85 5.75-.75 10.65-2 6-7.05 6.8-5.1.8-8.8-4-3.05-3.95-3.95-9.6-.85-5.65.9-10.6 2.1-5.9 7.1-6.7 5.05-.8 8.7 3.95m-139.2 140-4.1-2.35q2.4-1.2 6.55-.5 3.6.6 6.95 2.3 2.45 1.3 5 3.55 2.65 2.35 3.9 4.5-9.45-2.75-18.3-7.5"/><path fill="#ba004f" d="M109.55 244.85q-3.35-1.7-6.95-2.3-4.15-.7-6.55.5-5.35-3.15-9.8-6.65 3.55-5.2 12.8-4.7 7.75.4 15.5 4.15 6.75 3.25 11.75 8.55 5.75 6 5.85 11.5-7.25-1.05-13.7-3-1.25-2.15-3.9-4.5-2.55-2.25-5-3.55"/><path fill="#b6aed2" d="M219.5 31.95q1.1 2.2 1.15 4.1.1 1.9-.8 3.1-2.05 2.7-7.1 1.6-4.4-.95-8.25-3.9-3.9-2.9-6-6.8-2.5-4.5-.5-7.25l1.4-1.3q10.25 4.25 20.1 10.45"/><path fill="#ba004f" d="M219.85 39.15q.9-1.2.8-3.1-.05-1.9-1.15-4.1 8.5 5.3 14.8 10.85.85 4.2-1.15 7.5-3.75 6.3-14.95 5.05-9.7-1.1-18.8-6.55-9.15-5.5-14.65-13.45-6.45-9.25-2.65-15.65.8-1.3 2.7-2.9 7.25 1.7 14.6 4.7l-1.4 1.3q-2 2.75.5 7.25 2.1 3.9 6 6.8 3.85 2.95 8.25 3.9 5.05 1.1 7.1-1.6"/><path fill="#b6aed2" d="M254.3 35.35q-7.95 17.95-16.7 32.1-11.5 18.8-25.45 38.75-16.45 23.55-19.2 23.4-2.7-.15-4.35-9.65-1.45-8.1-1.25-15.9.15-5.85 1.75-9 1.1-2.25 3.85-4.5 1.6-1.2 7.35-4.9 5-3.45 5-5.4 0-3.4.6-8.3.8-6.45 2.1-9.85 1.4-3.55 20.4-24.7 19.05-21.3 30-31.45 5.8-5.4 6.8-3.95.65.95-.95 6.85-2.9 10.55-9.95 26.5"/><path fill="#595857" d="M215.25 52.45q-1.2 9.9-1 20.2.3 16.95 4.8 23.45-6.35 9.5-11.7 16.85-2.7-4.5-4.15-14.75-1.35-9.4-.6-14.25 2.7-2.2 2.7-3.7 0-3.4.6-8.3.8-6.45 2.1-9.85.75-1.85 7.25-9.65M242.5 22q-1 5.9-.5 12.75.75 9.8 4.75 16.4-4.9 9.45-9.15 16.3l-3.15 5.1q-4.4-4.85-5.65-17.8-.65-6.55-.4-17.4z"/><path fill="#9b94b4" d="M147 239.95q18.45 9.35 35.75 8.5-10.8 7.5-31.65 8.6-6.5.3-13.2-.05l-5.45-.4q-2.5-16.55-27.85-24.15-9.35-2.8-15 .6-2.8 1.75-3.75 4l-4.1-3.95q2.65-5.6 7.7-10.85L94 218.1q7.9 4.5 17.4 7.5 8.2 2.55 20.6 4.8l4.05 3q5.2 3.6 10.95 6.55M59.8 187.7q2.45 6.5 6.7 10.8l-.45.8q-.45 1.4-.45 4.3 0 4.7.65 10.85-6.75-9.7-8.65-23.6-.6-4.3-.65-8.55l.05-3.4z"/><path fill="#9b94b4" d="M108.95 244.6q4.45 2.75 6.4 4.65 1.9 1.8 2.75 4.2-4.5-1.4-9.5-3.4-10-3.95-12.5-6.75l4.2-.7q4.9-.3 8.65 2"/><path fill="#9a003f" d="m85.85 237.05 1.35-1.6q1.9-1.75 4.55-2.75 8.6-3.2 21.9 2.65 11.45 4.5 16.05 13.3 2.35 4.4 2.35 7.9l-13.5-2.25q-.6-1.65-2.15-3.7-3.15-4.15-8.05-6.3-4.95-2.2-9.45-1.65l-3.5 1-6-4z"/><path fill="#9b94b4" d="M255.4 177.35q-1.85 22.55-17.4 42.6-17.75 23-43.95 27.55-23.55 4.05-47.3-7.8-7.45-3.7-14-8.55l-5.05-4.1q6.65 2.05 16.55 2.6 14.85.8 30.05-2.8l.8 1.8q1.1 2.15 2.6 3.95 4.85 5.75 12.05 5.6 9.45-.1 17.75-4.25 9.5-4.75 15.45-13.95 5.25-8.2 5.35-15.1.05-2.15-.45-3.9l-.5-1.35q7.95-6.6 13.3-13.45 2.7-3.45 3.8-5.55l4.25-.55q4.65-.9 6.7-2.75"/><path fill="#9a003f" d="m227.35 199.65.5 4.55q.05 5.6-2.35 10.65-3.65 7.8-9.4 13.25-7.95 7.5-19.45 9.95-10.75 2.25-17.6-4.25-2.15-2.05-3.7-4.7l-1.05-2.25q7.1-1.7 14.2-4.4l.9 1.55q1.3 1.8 3.1 2.7 5.85 3 14.95-3.45 5.6-4.1 7.1-9.7l.4-4.75q7.3-4.8 12.4-9.15"/><path fill="#9b94b4" d="m214.95 208.8.15 1.35q.1 1.7-.45 3.55-1.65 5.8-8.55 10.4-8.2 5.05-13.7 2.2-1.75-.9-3-2.45l-.9-1.4q5.7-2.2 10.7-4.7 8.45-4.2 15.75-8.95m59.65-69.05q0 10.25-6.65 22.55-6.25 11.55-12.55 15.05-4.9 2.75-12.2 3.65l-6.35.3q10.15-3.8 19-18.85 4.15-7.05 7.7-16.35l.75.2q1.2-.1 3.25-1.5zm-205.95 98.7.85-2q0 3.55 2.95 8.6 1.5 2.55 2.95 4.35-11.6 11.25-12.95 10.9-.85-.2 2.6-11.05zm12.95-6.05 5.2 5.25-1.7 2.65q-1.25-.95-2.9-3.65l-1.45-2.55z"/><path fill="#3f3b3a" d="M72.35 228.55q5.05 7.1 5.8 7.1t2.5-2.1q.4 2.7 3.85 6.95l-8.65 8.85q-3.5-2.4-5.25-7.9l-1.1-5z"/><path fill="#9b94b4" d="M160.65 256.1q.6 12.55-.15 13.9-2.9 1.8-14.75-5.2l-11.3-7.35 9.3.5q10.55.1 16.9-1.85m94.55-30.55q-.5 1-2.25 2.25-3.45 2.45-9.4 3.75t-12.85 1.4l-5.65-.15q5.7-3.1 12.15-11.5 3.25-4.2 5.3-7.8l4.1 4.4q4.8 4.95 8.6 7.65"/><path fill="#3f3b3a" d="m219.55 96.3-12.35 16.55-2.45-5.2 11.65-15.8z"/><path fill="#9b94b4" d="m235.05 72.6-6.1 10q-2.85 4.7-9.4 13.7l-3.15-4.45q7.2-10.15 15.45-22.8z"/><path fill="#3f3b3a" d="m245.05 48.3 2.1 2.75q-5.05 9.65-12.1 21.55l-3.2-3.55z"/><path fill="#9b94b4" d="m245.05 48.3 12.2-20.35q-2.35 8.2-10.1 23.1zm-37.85 64.55q-12.1 15.6-13.6 16.45-1.45.8-2.7-1.85l-.95-2.85q5.9-5.55 14.8-16.95z"/><path fill="#3f3b3a" d="m288.2 119.75 1.85 4.8-10.35 9.8-2.2-5z"/><path fill="#9b94b4" d="m290.05 124.55-1.85-4.8 14.95-14.25 2.6 3.7z"/><path fill="#3f3b3a" d="m315.2 93.45 1.45 4.1-4.05 4.4-6.85 7.25-2.6-3.7z"/><path fill="#9b94b4" d="m316.65 97.55-1.45-4.1 20.4-21.15q-10 14.95-18.95 25.25m-36.95 36.8q-9.6 8.85-12.15 10.45-3.6 2.2-4.9-.3l-.55-2.9q6.4-4.45 15.4-12.25zm-18.95-84.6q-.3 4.1-1.5 8.65-1.85 7.35-5.25 13.75l-3.2-5.45q3.2-4.65 6.05-10 3.55-6.7 3.95-10.15zm-203.2-1.6-.2-1.5 4.4 2.4q5.6 3.55 11.75 9.1l-3.5 5.4q-7.75-9.4-10.35-11.95-1.6-1.6-2.1-3.45M19.2 226.05l-.9.55q-10.65 7.3-14.8 8.35-2.1.55-2.05-.4l16-12.1zm29.6-34.8-3-7.45q1.4-2.8 3.65-5.55 1.95-2.4 3.5-3.6l2.1 5.85-2.75 3.2q-2.85 3.7-3.3 6.15z"/><path fill="#3f3b3a" d="M43.5 197.05q.55-2 .55-7.2 0-2.65 1.75-6.05l3 7.45-.3 6.5q-.45 4.1-2.55 6.85-1.6 2.05-6.95 6.65l-2.55-4.2 2.45-2.45q3.65-4.15 4.6-7.55"/><path fill="#9b94b4" d="m39 211.25-9.25 7.35-2.4-3.95 9.1-7.6z"/><path fill="#3f3b3a" d="M29.75 218.6q-6.35 4.8-10.55 7.45l-1.75-3.6 9.9-7.8z"/><path fill="#9b94b4" d="M124.85 93.7q4.85-3.35 11.65-1.9 3.4.7 5.8 2.1-1.95 6.2-3.05 16.4-.55 5.15-.7 9-3.7-4.2-14.35-11l-9.85-5.9 2.35-2.35q3.3-3 8.15-6.35m-66.5 77.85L56.8 182.7q-6-10.2-8.4-21.95l-1-8.1q.65 2.4 3.1 7.3 3.9 7.8 7.85 11.6"/><path fill="#0f141b" d="M171.4 85.45q6.7 25.05-2.3 51.65-9.45 27.9-30.9 43.25-21.8 15.6-42.8 8.5-23.85-8.1-30.25-37.4-2.6-12-1.65-25.5.85-12.45 4.4-22.95 9.6-28.4 31-43.7 21.55-15.35 42.7-8.45 22.45 7.35 29.8 34.6m-5 50.55q3.8-11.2 4.4-23.9.65-13-2.25-24.65-6.65-27.05-27.6-34.15-9.2-3.1-19.7-1-10.25 2.05-20.05 8.8-21.35 14.65-30.75 42.4-8.8 26.1-2.15 50.2 7 25.5 27.65 32.5 9.45 3.2 19.95 1.05 10.3-2.05 20.05-8.85Q157 163.75 166.4 136m76-43.7q-8.3-6.6-17.2-4.05l.5-1.85q8.5-2.6 17.55 3.9 10.65 7.65 12.9 23.8 1.75 12.75-2.55 22.6-5.1 11.55-16.8 12.8-12.5 1.3-21.6-10.05-8.95-11.3-7.8-26.45l2.65-3.55q-2.3 14.75 5.75 26.9 8.3 12.45 20.8 11.15 9.75-1 14.45-10.65 4.55-9.2 2.7-22.4-2.05-14.8-11.35-22.15m-18.25 104.25q-5.05-6.55-16.05-5.45-11.25 1.1-20.75 9.7l-1.35-1.85q9.45-8.45 21.25-9.9 12.4-1.5 18.4 6.3 5.05 6.55 2.05 17.1-3.15 11.1-13.4 18.55-11 8-21.95 8.35-10.55.25-15.8-6.55-3.8-5-3.2-11.85.5-5.8 3.65-10.6l3.05-.95q-4 4.85-4.55 11.35-.6 6.6 2.8 11 5.5 7.15 16.85 5.35 9.65-1.5 17.8-7.75 10.7-8.2 13.15-18.8 2.05-8.85-1.95-14"/><path fill="#0f141b" d="M207.05 222.5q5.1-3.9 6.65-8.65 1.35-4.2-.55-6.7-1.95-2.55-6.5-2.25-4.95.35-9.9 4.15-5.4 4.15-6.7 9.1-1.1 4 .6 6.25 2.35 3.05 7.7 2.05 4.7-.85 8.7-3.95m.1-19.3q5.1 0 7.35 2.9 2.45 3.2.75 8.55-1.75 5.55-6.9 9.55-4.35 3.35-9.8 4.15-6.3.9-9.25-2.9-2.45-3.2-.75-8.5 1.8-5.45 7-9.45 5.65-4.35 11.6-4.3M181.3 30.8q-1.65-4.8-.9-8.75.8-3.9 3.8-5.85.3-.2.95.5.6.7.3.9-2.55 1.6-3.1 5-.6 3.5 1 7.8 3.85 10.15 16.45 17.7 6.25 3.8 13.8 5.6l-1.65 1.8q-7.5-1.95-13.55-5.6-13.25-7.9-17.1-19.1"/><path fill="#0f141b" d="M219.75 35.45q-.3-1.75-1.2-3.25-.2-.3.6-.25.8 0 1 .3 2.5 4.5.35 7.45-2.05 2.7-7.05 2.15-4.9-.55-9.75-3.95-5.75-4.05-7.2-9.5-1.4-5.2 2.1-7.4.3-.2.85.55t.2.9q-2 .75-1.3 4.7.9 4.85 6.65 9.2 3.85 2.9 8.1 3.65 4.45.85 6-1.3.95-1.2.65-3.25m-134.3 200.2q3.45-5.25 12.7-5.05 8.35.15 16.95 4.35 8.7 4.25 13.7 10.5 4.4 5.65 4.25 10.5 0 .35-.9.3-.95-.05-.9-.4.15-4.8-5.25-10.55-5-5.35-11.85-8.65-7.3-3.55-14.9-4.05-9.05-.65-12.1 4l-1.05-.15q-.85-.5-.65-.8"/><path fill="#0f141b" d="M95.7 242.75q1.95-1.45 5.9-1.35 4.35.15 8.5 2.25 2.7 1.4 5.15 3.8 2.75 2.65 3.5 5 .1.35-.55.65l-.8-.05q-2.85-5.55-9.85-8.35-6.6-2.65-11.05-.85-.3.1-.7-.4-.35-.5-.1-.7m135.1-140.4q-4.2.65-6.25 5.95-1.9 4.85-1.05 10.35.8 5.3 3.6 9.05 3.4 4.6 8.15 3.85 4.65-.7 6.45-6.45 1.5-4.7.65-10.05-1.1-7-4.8-10.4-3.15-2.85-6.75-2.3m-.3-1.7q4.85-.75 8.75 3 4.1 3.9 5.25 11.15 1.15 7.3-1.55 12.65-2.6 5.2-7.45 5.95-5 .75-9.2-3.75-3.95-4.25-4.9-10.4-1-6.3 1.15-11.6 2.45-6.15 7.95-7m-115.05-25q-4.75 6-12.3 14.55l-13.65 15q.15 5.9-.55 15.45-.75 10.1-1.95 16.7 4.6 3.2 9.9 7.95 6.85 6.15 11.65 12.15 4.05-6.05 14.2-15.5 9.2-8.6 15.05-12.5-.75-20.9 2.95-34.7-10.45-6-25.3-19.1m-.45-3.6q.15-.2.85.9 2.95 3 12 9.95 10 7.6 15.15 10.4.65.35.4 1-1.85 6.1-2.9 18.85-1 11.95-.4 16.6l-.35.8q-8.05 6.05-18.05 15.9-9.65 9.45-12.4 13.75l-.7.2-.7-.15q-3.85-5.3-11.4-12.1-4.6-4.2-12-10.1-.1-.1.05-.3l.2-.4q.9-5.9 1.75-17 .75-10.4.75-15.55-.3-.6-.1-.75l15.1-16.75Q111.5 76.75 115 72.05"/><path fill="#0f141b" d="M139.45 91.55q.35.15.05.95l-.55.65q-6.65-2.2-13.35 1.1-5.75 2.85-10.5 9.05-4.25 5.45-6.25 11.4-3.1 9.3-1.55 18.85 1.9 11.3 9.95 15.5.3.2-.2.95-.55.7-.85.6-9-4.1-11.25-16.4-1.9-10.45 1.45-20.3 4.5-13.25 15-19.75 9.85-6.1 18.05-2.6"/><path fill="#0f141b" d="M126.35 108.15q8.9 5.75 12.7 9.7.25.25-.35 1.15-.6.85-.85.6-3.5-3.65-12.75-9.55-7.15-4.6-10.9-6.45-.3-.15.1-1t.75-.75q3.05 1 11.3 6.3M234.3 73.8l1.7-2.35q15.15 6.6 25.35 17.55 11.1 11.9 14 26.7l-2.5 1.5q-2.55-14.8-13.45-26.5-9.95-10.65-25.1-16.9m-28.1-6.4q-21.95-1.15-44.75 13-7.15 4.45-13.55 9.95l-5.1 4.7q-.2.25-.9-.4t-.5-.9q8.9-10.5 25.2-19.25 20.8-11.15 40-10.15zm24.7 112.8q14.45.6 20.6-2.3 6.85-3.3 12.45-11.7 7.1-10.75 9.05-26.15l3-2.3q-1.95 19.05-9.7 30.75-5.65 8.5-13.55 12.25-6.95 3.3-23.1 2.3-19.65-1.2-37.4-9.15-18.2-8.1-36.75-24.6-15-13.4-17.6-19.1-.15-.3.85-.8.95-.55 1.1-.25 2.4 5.3 17.45 18.3 18.4 15.9 36.05 23.8 18.35 8.2 37.55 8.95"/><path fill="#0f141b" d="M255 176.5q.05-.35 1.25-.2t1.1.5q-4.55 32-24.25 51.35-16.75 16.4-40.65 20.75-15.7 2.9-33.95-2.85-21.6-6.85-37.55-23.8-13.15-13.95-15.25-35.45-1.45-14.75 2.05-27.3.1-.35 1-.45t.85.25q-2.6 12.95-1.4 26.05 2.05 21.65 14.65 35.05 15.6 16.55 36.5 23.1 17.35 5.45 32.85 2.75 21.55-3.75 37.95-19.75 19.5-19 24.85-50"/><path fill="#0f141b" d="M82.1 231.95q8.05 7.2 18.4 12.75 24.5 13.1 52.15 11.1 19.55-1.4 32-8.45.3-.2.85.7.55.85.25 1.05-12.1 7.75-33.2 9.25-28.25 2.05-53.45-11.4-10.4-5.55-18.55-12.9zm-23.35-42.3q1.85 12.9 8.5 24.3l2.15 7.8Q60.3 209.3 57 195.1q-3.15-13.4-.5-25.5 3.15-14.45 14.4-24.35 8.65-7.6 15.15-8.4.35-.05.45.8t-.25.9q-5.35.65-13.35 7.9-10.65 9.65-13.65 23.45-2 9.1-.5 19.75M244.2 57.3l1.6-3.1q5.65 8.15 8.75 16.55 3.2 8.75 3.1 16.3 0 .35-.85.35-.8.05-.85-.3-.25-6.05-3.45-14.05-3.15-7.9-8.3-15.75m-19.1-20.65q-11.8-8.2-24.7-13.65-16.1-6.8-29.55-7.15l-1.4-2.45q14.05-.15 30.7 6.6 13.55 5.5 26.3 14.4l2.3 1.7-1.6 2.05zM154.2 18.4q-21.55 7.15-31.4 28.05-6 12.85-6.65 27.75 0 .35-1 .3-.95-.05-1-.4-.45-15.3 6.55-30 10.4-21.95 33.75-28.3z"/><path fill="#0f141b" d="M147.25 19.35q.4 0-.25 1.05l-1 1.05q-14.5-.6-30.9 5.7-18.75 7.15-31.25 20.5-23.6 25.2-17.05 36.7 3 5.3 9.1 10.95 6.6 6.1 12.8 8.7.35.15 0 1.1-.3.9-.65.75-7.05-2.55-14.15-8.8-6.5-5.65-9.7-11.25-3.6-6.35 1.1-16.95Q69.9 58.3 81.8 45.6 94.55 32 114.35 24.8q17.4-6.3 32.9-5.45"/><path fill="#0f141b" d="M63.95 77.75q.3-.2.45 1.35.15 1.5-.15 1.7-2.5 1.5-6.7 9.75-5.1 10.15-7.9 22.55-8.05 35.8 7.65 69.9.15.35-.3 1.45l-.65.85q-18.1-34.15-10.05-71.35 2.95-13.45 8.75-24.4 4.95-9.3 8.9-11.8m29.25-40.9q.35.05-.35 1.35t-1.05 1.25L75.65 40q-9.8 1.25-14.45 4.15-2.55 1.6-2.85 2.75-.3 1.25 1.75 3.35l4.6 5.15q4.25 4.9 5.7 7.05.2.3-.6 1.2-.8.85-1 .55-2-2.95-10.75-12.5-3.05-3.3-2.85-5.05.2-2.15 4.85-4.45 6.2-3.05 16.35-4.55zm84.75 2.85q-.7-6.75-2.8-13.35-2-6.4-6.8-12.45-3.9-5-8.2-8.15-2-1.5-2.55-1.5-.9.1-1.05 3l-.85 10.25q-.8 6.4-2.45 12.65-.55 2.15-.4 2.85.15.5 1.2 1.15l11.05 7.2q6.3 4.5 10.45 8.9 1.25 1.35 1.65 1.35.5-.05.75-1.85.6-4.05 0-10.05m-.2-14q2.25 6.55 2.8 14.4.4 6.15-.25 10.05-.65 3.95-2.1 4.3-1.35.35-3.95-2.45-3.55-3.8-8.6-7.55-4.55-3.35-12.8-8.4-1.8-1.05-2.05-2.15-.3-1.05.4-3.95 1.2-5.4 2.1-13.1l1-11.2q.35-3.65 1.75-4.25 1.45-.6 4.55 1.7 12.55 9.3 17.15 22.6M257 43.35q3.2-.85 4.15 0 .95.95.8 4.95-.25 5.55-1.7 11.7-1.9 8.35-5.3 13.95-.15.3-1.15-.8-1.05-1.1-.85-1.4 3.25-5.35 5.15-12.85 1.4-5.4 1.85-10.75.2-2.4-.25-2.85l-2.5.1q-7.6 2.4-8.85 2.9-.4.15.5-1.4t1.55-1.75zM91.55 218.65l1.25-1.8q0-.4-1.65-1.1-7-3-12.4-6.75-5-3.45-10.1-8.55-1.35-1.4-1.7-1.3-.45.1-.4 2.2.1 19.9 10.95 32.6.6.75 1.05.7l1.4-1.2zm1.1-4.3q1.95.85 2.3 1.85.45 1.15-.95 3l-6 7.45q-4.65 5.8-6.25 8.2-1.6 2.25-3.05 2.35-1.5.1-3.5-2.15-11.65-13.3-10.55-34.15.2-4.05 1.45-4.35 1-.2 3.5 2.25 10.1 9.7 23.05 15.55m87.7-20.55-5.05-7.25q-.8-1.2-1.15-1.3-.45-.15-1.45.85-6.7 7.2-12.85 12.4-2.7 2.3-7.75 5.45-5.1 3.2-8.7 4.8-1.4.65-1.5 1.1-.05.55 1.6 1.1 10.7 3.5 23 1.35 10.25-1.8 20.2-7.4 1.1-.65 1.25-1.25.15-.5-.4-1.15-3.95-4.35-7.2-8.7m-9.65-9.1q2.25-2.45 3.4-2.4 1 .05 2.6 2.4l6.45 8.6 6.6 8.15q2.6 2.9-.95 5.15-11.35 7-23.9 8.45-11.9 1.4-22.95-2.35-3.25-1.1-3.1-2.6.1-1.35 2.95-2.8 9.35-4.7 16.1-10.2 5.3-4.3 12.8-12.4m-11.35 71.2q0-.35 1.35-.45t1.35.25l.4 11.2q.15 3.55-.8 4.4l-5.25-.25q-8.5-2.55-17.3-8.2-5.85-3.7-8.05-5.9-.2-.25 1.7-.8l2.2-.25q2.75 2.75 6.7 5.5 7.5 5.25 15.75 7.7l2.15.35q.85-.3.65-2.55zM245 207.65q-.15-.35.9-1.3 1-.95 1.15-.6Q250 211.7 256 220.6q1.85 2.85 1.35 4.5-.5 1.45-3.3 3.2-7.1 4.45-17.3 5.6-6.1.7-12.2.2l1.4-2.7q6.35.55 11.2.1 9-.95 15.8-5.2 2.05-1.3 2.2-1.95.2-.8-1.2-2.85z"/><path fill="#0f141b" d="M253.05 35.45q6.65-15.25 10.35-26.8 1.75-5.5 1.25-5.95-.7-.65-5.6 4.05-14 13.25-26.35 26.9-10.8 12.1-18.25 21.3-2.1 2.65-3.85 5.25l-1.75 2.9q-1.85 4.25-2.05 13.15-.15 4.5-.7 5.65-.75 1.55-4.25 3.9-7.55 4.8-8.4 5.5-2.6 2.05-3.65 4.2-1.45 3-1.6 8.6-.2 7.35 1.5 15.8 1.65 8.15 3.1 8.15 1.35 0 6.7-6.5 4.85-6 11.95-16.05 14.25-20.2 25.4-38.45 8.1-13.15 16.2-31.6M266 8.25q-3.1 11.2-10.4 28-8.15 18.65-16.55 32.35-8.55 13.9-23.25 34.7-19.35 27.4-22.9 27.2t-5.7-10.2q-1.75-8.15-1.55-15.05.2-6.45 1.45-10.05 1.2-3.35 3.7-5.3l11.05-6.9q1.95-1.3 2.35-2.5l.25-3.75q.25-10.6 2.4-15 4.15-8.6 26.1-31.85 16.75-17.75 25.4-25.55Q269.9-6 266 8.25m75.5 53.05q3.3-5.35 2.4-5.8-.75-.45-5.85 2.75l-25.55 16.1q-23.9 15.6-28.25 21.05-1.3 1.6-2.95 6.95l-2.1 7.3q-1.4 4.8-2 5.55-.75 1-5.55 3.65t-6.1 3.8q-2.05 1.85-2.45 4.85-.35 2.75-.35 7.35 0 4.15.85 9.25.2.95.55 1.05.35.05 1.45-.65 5.15-3.45 15.45-13 12-11.15 26.35-26.45 13.75-14.7 23.75-28.25 4.95-6.75 10.35-15.5m-4.65-4.85q7.65-4.6 9.2-3 1.5 1.55-2.35 8.7-3.6 6.55-10.3 15.7-10.1 13.8-24.2 29.1-11 11.85-23.3 23.45-13.95 13.15-19.85 16.45-2.15 1.25-3 .75-.8-.45-1.4-2.9-.75-3.2-1-9-.15-5.3.2-8 .45-3.75 2.1-5.9 1.05-1.35 3.25-2.65.9-.55 5.95-3.2 2.8-1.45 3.5-2.5.9-1.6 3.15-10.35 2-8 4.3-10.75 4.75-5.7 53.75-35.9"/><path fill="#0f141b" d="M247.5 50.9q.2.3-.55.75-.7.45-.9.15-5.05-7.85-5.2-19.2-.05-3.6.4-7.15l.5-3.15q.1-.35.9-.55t.7.15q-.8 4.35-.4 11.6.65 10.9 4.55 17.4M227.45 38l1.7-1.15q-.7 9.2.35 18.25 1.35 12.35 5.55 17 .25.25-.35.85-.65.55-.9.3-4.8-5.25-6.3-16.6-1.25-9.35-.05-18.65M214.3 53q.1-.35.9-.75l.75-.05q-1.1 7.45-.75 20.25.45 17.3 4.45 23.05.2.3-.5.8l-.9.15q-5.1-7.9-5.25-24.6-.1-9.5 1.3-18.85m-11.65 30.65q.85-.1.75.25-.85 2.75.3 12.55 1.3 11.15 4.3 16.15.2.3-.5.75l-.9.15q-3.2-5.05-4.55-13.9-1.35-8.5-.25-15.5.05-.35.85-.45m73.1 31.1q.05-.35.8-.6t.7.1l-.1 7.4q.5 8 3.3 11.75.2.25-.5.8-.65.5-.85.2-3.5-4.85-3.9-11.15-.1-2 .55-8.5M287.3 91.6l1.9-1.6q-1.55 11.45-.8 21.8.65 8.7 2.45 12.55.15.3-.6.65l-.95.05q-3.3-7.1-3.15-18.65.05-2.65 1.15-14.8m12.9-9.85q.05-.35.9-.9.9-.55.85-.2-.65 6.05 0 14.05.8 9.85 3.35 13.1.25.25-.3 1-.55.7-.8.45-4.05-5.05-4.45-16.7zm13.45-9.3q.1-.35.9-.5.8-.2.7.15-.55 2.35-.4 10.7.2 9.9 1.95 12.75.2.3-.45 1.15-.65.8-.8.5-2.5-4.8-2.8-13.25-.25-7.05.9-11.5M38.8 171.5q-8.75 11.65-16.95 24.05-4.65 7.05-9.4 15.9-4.1 7.55-7.2 14.3t-2.45 7.6q.65.8 6.55-2.65 10.8-6.3 22.45-15.2 12.7-9.75 14.45-13.8 1.05-2.35 1.35-4.9l.2-4.2q0-2.6.25-3.9.35-2.05 1.55-3.6l3.6-4.3 1.15-1.15q.25-.2 1.25.9t.75 1.3l-1.3 1q-1.7 1.45-3.65 3.95-1 1.25-1.3 2.8-.25 1.15-.25 3.4l-.1 4.55q-.3 2.95-1.55 5.35-3.2 6.2-16.45 15.95-9.4 6.85-21.45 13.95-7.8 4.55-9.55 3.55-2.25-1.3 2.6-11.8 8.45-18.45 16.75-31 8.05-12.25 17.15-24.1 6.6-8.6 9.95-12.25.25-.25.9.75t.5 1.2q-2.85 3.05-9.8 12.35M86.75 237q.3-.2 1.25.6.95.75.7 1l-11.6 11Q65.9 260.2 64.6 261q-4.2 2.55-3.5-2.35.65-4.75 4.85-17 4-11.7 5.65-14.35.15-.25.95.9l.7 1.3q-1.55 2.95-6.05 15.95-4.65 13.4-4 13.85.35.25 11.6-10.65z"/><path fill="#0f141b" d="m44.85 161.55 1.55-.2q-2.1 18.95 2.9 29.05.2.35-.45.95-.6.6-.8.3-6.2-11.3-3.2-30.1m-12.2 16.25q0-.35.75-.55.8-.2.75.15-.4 3.2.55 13.95 1.25 13.9 4.35 18.85.2.3-.45.75l-.8.1q-4.2-6.25-5.15-19.45-.6-8.3 0-13.8m-9.75 12.85q.05-.35.85-.35.8.05.75.4-.4 4.05.8 12.6 1.6 11.15 4.95 14.5.25.25-.25.8t-.75.3q-4.25-3.2-5.8-13.6-1.15-7.75-.55-14.65m-9 15.2q.1-.35.7-.3.65.05.65.4-.1 5.35 1.2 11 1.3 5.9 3.25 8.15.25.25-.35.75t-.85.25q-3.05-2.85-4.3-10.6-1.1-6.65-.3-9.65m54.85 30.65q0-.35.7-.4.65-.05.65.3 0 1.9 1.15 5.25 1.6 4.5 4.15 6.8.25.25-.25.75-.5.55-.8.35-3.1-2.15-4.55-6.5-1-3-1.05-6.55m12.3-2.5q.45 1.35 1.8 3.3l1.7 2.15q.5.4.05 1.1t-1.05.25q-.95-.8-2.2-2.6-1.3-1.9-1.75-3.3-.1-.35.6-.8z"/></svg>