<svg xmlns="http://www.w3.org/2000/svg" width="448" height="364" viewBox="-0.15 -0.85 448.3 364.2"><path fill="#ba004f" d="M305.5 303q-1.7 6.85-6.75 19.1-5.9 14.2-10.1 19.3-4 4.85-10.7 7-5.85 1.9-6.2.8-.35-1.15 4.4-8.7 1.6-3.8 2.65-14.4.75-7.95.75-12.85l10.65-12.2z"/><path fill="#515557" d="m276.2 340.45 2.75-2q1.35-.85 1.75-.85.6 0 7.25 4.55-4.05 4.45-10.35 6.4-5.5 1.7-5.85.65-.35-1.15 4.4-8.7zm7.85-22.7q.35.1 7.35-3.6 7.55-4 13-7.3l-3.45 9.7q-3.5 3-10.3 6.95-6.1 3.55-6.6 3.45l-2-2.45-2.85-3.85.35-7.4.4-.5q3.6 4.85 4.1 5"/><path fill="#ba004f" d="M345.85 193.55q3-9.05 8.05-16.3 9.45-13.65 24.4-19.3l4.1-.1q.6 1.05-1.35 3.65-4.8 6.3-8.75 13.75-5.35 10.05-8.3 20.9l-10.25 20.2-12.7 5.45-21.35-13.5q2.75-6.75 7.55-12.85 5.25-6.65 8.9-6.9 1.9-.15 4.3 1 2.9 1.3 5.4 4"/><path fill="#ad4886" d="M336.15 188.55q1.8-.1 4.45 1.2 3 1.5 5.5 4.2 3.25 3.5 5.2 7.5 2.2 4.6 3.9 12.05l-1.45 2.85-12.7 5.45-1.75-1.1q3.35-13.65 1.2-22.65-1.3-5.45-4.85-9.45zm31.6-25.05q1.75.2 3.8 1.3 2.75 1.5 4.45 3.95-2.75 4.45-5 9.05-2.05-3-6.05-5.15-2.85-1.55-5.45-2.1 3.7-3.95 8.25-7.05M354 195q-3.95-2.5-7.55-2.95 2.1-5.75 5.1-10.8 7-.5 14.4 8.6-1.05 3-1.95 6.3l-3 5.95q-2.55-4.25-7-7.1"/><path fill="#ba004f" d="M375.95 190.8q1.75.4 4.75 3 3.25 2.85 5.65 6.4l5.95-11.45q7.85-12.8 17.25-19.5 7.4-5.3 17.1-8.15 7.6-2.2 16-2.8 3-.2 3.7.95.8 1.25-2.3 3.35-16.5 11.05-26.4 27.4-13.5 22.25-18.2 42.7-.9 3.9-2.4 4.75-1.65.95-4.95-1.2-14.25-9.1-21.05-9.2-3.85-.05-8.6 4-3.15 2.7-8.05 8.6l-9.6-1.75-2.85-19.8q5.05-7.1 16.6-17.1 12.95-11.2 17.4-10.2"/><path fill="#ad4886" d="M396.85 195.6q-3.75-3.35-6.8-2.95 4.4-8 9.6-14.15 3.65 0 7.05 3.2 4.7 4.45 7.5 14.25-4.65 8.3-8.15 16.55-3.55-11.85-9.2-16.9m-26.25-3.35q3.5-1.9 5.35-1.45 1.75.4 4.75 3.05 3.3 2.85 5.65 6.4l1.5 2.4q2.45 4.6 2.75 12.7.4 9.7-3 18.2-8.65-5.1-14.3-6.25 3.85-13.35 2.15-23.55-1.2-7.4-4.85-11.5m54.15-30.55q2.25.5 4.45 3.1 2.5 2.85 3.5 6.8-5.25 4.9-9.5 10.4-1.8-6.3-6.05-10-3.25-2.8-6.75-3.4 6.55-4.4 14.35-6.9"/><path fill="#515557" d="m351.85 241.7 9.1-9.6q0 4.75-.7 10.5-1.1 8.85-3.5 14.4zM108.9 97.4l3.05 1.1 1 10.55-3.4 11.1-1.05.05q-4.05-3.7-4.3-10.35-.1-3.65 1.45-7.2 1.1-2.4 3.25-5.25"/><path fill="#ba004f" d="M82.15 94.55q-3 2.65-4.55 2.3-1.45-.3-3.65-3.9-4.05-6.65-9.75-13.5-7.8-9.35-17.55-17.65-10.75-9.15-22.7-15.7-9.35-5.15-18.25-8.15-4-1.35-4.15-2.55-.1-1.35 4.85-2.05 8.25-1.2 17.3-.05 12.05 1.5 24.3 7.05 28.9 12.95 36.25 32.1.7-1.45 3.55-4.75 2.85-3.35 4.1-4.2l18.7 6.45 7.5 12.15q-1.3 6.75-4.2 14-2.55 6.5-3.3 6.5-.5 0-1.65-4.5l-1.35-5.65-10.35-8.8q-6.6 3.35-15.1 10.9"/><path fill="#ad4886" d="M21.8 44.9q1.65-2.25 2.75-6.4.8-3.1.85-4.95 7.85 1.15 15.5 3.9 0 8.85-5.4 15.75-6.35-4.4-13.7-8.3m62.45 27.85q3.2 8.45 2.2 18.15l-4.3 3.65q-3 2.65-4.55 2.3-1.45-.3-3.65-3.9-1.9-3.25-5.35-7.9 5.35-5.55 7.1-13.8 1.45-6.85 0-12.25 5.85 6.45 8.55 13.75M53.2 42.85q5.75 2.85 10.75 6.2.8 5.05-.1 11.45-1.2 8.75-5.5 12.4-5.1-5.4-10.85-10.4 3.3-3.35 4.9-10.25 1.3-5.65.8-9.4"/><path fill="#ba004f" d="M187.75 334.15q-2-13-2.9-15.45l16.2-4.25 14.9 11.75q-7.35 20.65-14 28.2-4 4.5-10.2 6.75-5.35 1.95-5.65 1-.15-.45 1.1-4.2l2.3-6.6q.45-3.3-1.75-17.2"/><path fill="#515557" d="m189.5 351.35 1.25-1.2 1.3-.95q.6-.05 4.25 2.4 3.3 2.2 4.9 3.55-4 4.1-9.8 6.1-5 1.75-5.3.9-.15-.45 1.1-4.2z"/><path fill="#ba004f" d="m157.85 128.95-7.5.45-1.8-5.65 6.05-.55 5.85 3.1z"/><path fill="#ad4886" d="M150.9 124.9q1.15 1.9.25 3.35-.7 1.15-3.75 3.15-2.05 1.4-4.25 4.2l-2.05 2.35q-.6-.1-1-4.1-.5-4.35.45-6.95l4.9-3.95z"/><path fill="#ba004f" d="M170.35 158.65q-6.7-1-10.55-3.25-4.8-2.8-6.35-8.05-1.45-4.95.95-11.6 1.8-4.95 4.6-8.5l8.1 4.25 5.7 19.05z"/><path fill="#ba004f" d="M163.55 192.6q-4.05-3.65-5.7-7.45-1.4-3.3-1.8-8.75-.45-5.6 2.4-12.2 2.3-5.35 4.6-7.45l9.55-1-1.75 23.3z"/><path fill="#ba004f" d="m159.6 189.2 6.15-1-1.95 27.15-14.25 23.95q-3.45-3.05-5.15-8.7-2.05-7.15-.65-16.85 1.35-9.2 7.55-17 4.45-5.6 8.3-7.55"/><path fill="#515557" d="M162.6 130.85q-4.85-5.25-12.5-5.7-7.45-.45-13.15 3.85-4.1 3.05-7.75 11.75-3.3 7.85-4.75 8.15-2.7.55-6.95-4.8-4.55-5.7-7.15-13.65-2.25-7-1.45-17.05.35-4.4 1.65-10.8l35.65-42.25 61.7 28.05 18.9 59.05 2.6 69.45 42.1 33.3 62.3 13.7-20.55 34.8q-14.95 8-35.95 14.8-10.55 3.4-25.35 7.2l-8.85-3-26.75 8.45q-30.8-1.9-50.2-19.7-15.3-14.05-19.1-32.45-2.7-13 .95-30.6 2.15-10.35 7.6-25.7 11.15-31.4 13.85-53.05 1.55-12-.2-20.25-1.65-8.15-6.65-13.55"/><path fill="#ba004f" d="m251.95 279.9 19.5-8q0 1.45 2.55 5.3 2.65 4.05 5.25 6.3 4.1 3.55 4.9 6.15.7 2.15-.7 4.75-3.45 6.2-14.8 15-12.5 9.7-26.65 16.05-7.25 3.25-17.1 4.45-9.25 1.1-9.85-.55-.35-1 2.85-4.65 3.2-3.7 7.55-7.35l9.95-12.6 5.65-7.85z"/><path fill="#515557" d="M225.5 317.3q6.75.6 6.75.95l.6 4 .9 5.95q-6.55 1.7-12.5 2-5.8.3-6.2-.85-.35-1 2.85-4.65 3.2-3.7 7.55-7.35zm38.8-25.6 20.1-.6q0 1.55-.95 3.3-1.4 2.5-5 6.35-9.95.05-26.8 2.7l-14.85 2.6-.4-2.6 4.65-6.55.4-.65q10.4-3.05 22.85-4.55"/><path fill="#fabe00" d="M157.1 115.3q-3.2 4.2-10 4l-4.5-.65q-1.85-.5-1.95-.95-1.1-4.9.3-9.9 1.1-4.1 3.35-6.75 5.2-6.15 15.85-3.45 2.2 10.8-3.05 17.7"/><path fill="#ba004f" d="M204.8 67.85q9.25 2.35 17.05 8.75 11.2 9.2 15 24.15 3.9 15.4-3 27.35-5.4 9.4-15.85 14.75-8.2 4.25-14.65 3.25-5.95-.9-9.5-6.1-4.7-6.95.45-20.55l5.05-13.9.75-19.75z"/><path fill="#ba004f" d="m208.55 146.05 7.55-11.6L236 123.3q6.25 6.05 9.25 15.75 3.25 10.5 1.4 21.8-1.95 11.7-11.4 21.5-9.45 9.75-21.55 12.55-21.3 4.95-20.25-16.95.35-8.15 6.9-19.85 4.9-8.75 8.2-12.05"/><path fill="#ba004f" d="m205.65 195.65 15.75-13.55 19.6-6.75q6 1.85 9.45 11.35 3.85 10.65.35 22.75-3.5 12.05-13.2 20.85-8.5 7.7-16.7 9.15-8.55 1.55-15.25-1.35-8.15-3.5-9.2-12.45-1.05-9.05 2.65-18.9 3.05-8.05 6.55-11.1"/><path fill="#ba004f" d="M251.8 204.4q10.6 3.85 17.85 15.2 7.65 12.1 7.45 26.75-.2 14.8-5.5 25.25-4.95 9.75-15.2 17.3-13.2 9.8-28.75 12.4-.15-.15.95-4.6 1.15-4.35.65-4.75-4.45-3.35-8.3-8.65-5.1-7-7.1-15.2-2-8.15.45-17.85 1.45-5.75 3.85-10.2l13.95-21.95z"/><path fill="#ba004f" d="M286.75 213.9q8.75 6.5 12.8 16.15 3.5 8.4 3.7 19.9.25 11.1-4.65 22.05-5.15 11.55-14 17.95l-30.2-17.15 1.45-66.25q5.15-1.5 12.7-.3 9.95 1.55 18.2 7.65"/><path fill="#ba004f" d="M327.75 242.3q1.35 9.75-.15 18.55-1.5 8.85-6.3 18.95-4.5 9.4-10.5 13.75-5 3.55-10.6 3.4-4.25-.15-8.3-3.6-2.15-1.85-4.65-5.15l4.15-26.75-16.5-53.55q8.55-4.15 19.45-2.3 9.9 1.65 17.35 7.25 6.85 5.2 10.8 12.5 3.9 7.15 5.25 16.95"/><path fill="#ba004f" d="M343.05 219.45q7.3 8.05 10.35 16.85 1.55 4.4 2.6 12.35.5 4.2.15 9.6-.5 6.7-2.15 12.15 2.95 7 10.5 10.4 1.95.85 5.25 2.1 2.5 1.05 3.25 2.3 1.8 3.1-7.3 24.9-9.2 22.1-16.7 32.1-9.55 12.7-22.55 11.05-.35-1.55 5.65-10.15 2.1-6.95 4.8-20.7 2.6-13.25 2.9-17.9l-4.5-1.15-3.7-1.15q-4.2 3-8.75 5.25-3.9 1.9-6.2 2.35-3 .65-3.65-.65-.45-.95.2-4 1.2-5.4-1.2-12.15l-6.15-83.95q8.8-2.3 18.05-.4 11.5 2.35 19.15 10.8"/><path fill="#515557" d="M332 343.25q3.9-2.3 4.65-2.3.85 0 7.85 6.1-5.55 4.95-12.15 6.3-5.55 1.15-5.9-.1-.4-1.6 5.55-10m19.6-22.5q-9.75 7.2-10.15 7.05-.65-.2-4.05-7.5l2.1-11.95 4.55 5.05q20.1-12.45 28-20.75-2.05 7.2-6.3 17.3-4.55 3.75-14.15 10.8"/><path fill="#ba004f" d="M178.5 44.05q12.5 2.35 19.2 9.05 7.2 7.2 8.1 20.85.75 11.55-3 23.8-3.1 10.1-9.5 13.7-5.55 3.1-12.85 1.25-6.3-1.65-9.65-8.6-3-6.2-5.8-21.65-2.35-13.15-11.35-16.65-6.2-2.45-16.65-.3l-3.45-3.65-.4-3q8.15-8.55 17.9-12.5 5.2-2.1 12.2-3.05 6.45-.9 15.25.75"/><path fill="#ad4886" d="M193.2 56.45q10 15.45 6.65 27.5-1.6 5.8-7.3 7.2-5 1.2-8.5-1.4-3.2-2.35-4.6-6.45-1.55-4.5-.4-10 1.15-5.65 7.35-11.8 5.45-5.35 6.8-5.05m35.85 36q.9.4 2.4 4.65 1.75 5 2.1 9.9.4 6-.5 9.9-1.1 4.65-4.25 7.95-3.2 3.3-7.85 2.9-4.3-.35-6.8-3.3-2.75-3.15-3.4-7.15-.8-4.95 1.85-10.45 2.75-5.75 9.5-10.65 5.8-4.25 6.95-3.75m13 52.6q.6.5.35 5.8-.3 6.05-1.8 11.95-1.65 6.65-4.65 10.7-3.05 4.15-6.9 4.7-5.2.8-8.6-2.25-2.95-2.65-3.3-6.65-.3-4.15 1.2-7.65 1.55-3.55 5.15-7.1 3.1-3 10.75-6.6 7.15-3.4 7.8-2.9m5.4 44.85q.7.6-.1 7.8-.95 8.2-3.4 14.2-2.55 6.35-7.25 8.85-3.95 2.15-7.9 1.05-3.75-1.05-5.65-3.8-2.15-3.05-1.7-7.7.45-4.4 4-8.55 3.3-3.8 8.25-6.3 5.5-2.8 9.4-4.35 3.85-1.6 4.35-1.2m10 24.7q1.2 0 6.6 11.95 5.9 13.15 5.65 20.2-.3 7.9-4.1 12.65-3.55 4.4-8.9 4.7-5.2.3-9.35-2.85-4.25-3.3-5.95-9.25-1.45-5.2.9-11.5 1.1-2.95 4-7.75l7.1-12.15q3.55-6 4.05-6m29.1 7.95q3.3 3.2 5.95 6.9 3.3 4.65 4.7 8.45 1.5 3.9 1.7 8.55.2 6.35-2.25 10.05-2.45 3.65-6.3 2.95-8.45-1.45-9.75-15.4-.5-5.65.55-15.1.95-8.8 1.65-9.1.6-.25 3.75 2.7m36 23.05q.15 3.3-1.2 6.3-1.5 3.2-3.9 3.75-3.6.9-6.25-1.85-2.45-2.45-3.4-6.9-1-4.7.05-15.5 1-9.95 1.7-10.45.3-.2 2.2 1.75 2.2 2.25 4.25 5.25 6.05 8.85 6.55 17.65m27.1.15q.2 3.5-.8 6.15-1.25 3.3-4.1 4.25-3.25 1.1-6.5-1.35-2.65-2-4.2-5.25-2.6-5.45-3.45-12.15-.4-3.6-.65-9.75-.3-7.2.25-7.4.8-.3 4.85 2.6 4.5 3.15 7.35 6.65 6.8 8.3 7.25 16.25"/><path fill="#ba004f" d="M194.1 77.25q.05 2.25-.85 4.05-1.1 2.1-2.9 2-1.95-.1-3-1.9-1.1-1.95-.4-4.75.65-2.7 2.55-5.3 1.5-2.1 1.95-2.2.4 0 1.4 2.25 1.2 2.75 1.25 5.85m33.2 25.6q.5.25.65 3.95.15 3.95-.55 6.55-.8 2.9-2.6 4.2-1.7 1.2-3.45.45-1.7-.7-2.15-2.7-.45-1.95.45-4.4 1.1-3.1 4.25-5.9 2.7-2.45 3.4-2.15m8.85 53.55q.45.35-.4 3.45-.9 3.35-2.3 5.75-1.5 2.55-3.3 3.55l-3.05.1q-1.3-.9-1.2-2.95.1-2.1 1.75-4.15 1.55-1.95 4.9-4.1 3.15-2 3.6-1.65m5.3 44.55q.2.35-.75 3.25-1.1 3.35-2.6 5.45-1.4 2.05-3.25 2.85-1.85.75-3-.35-1.2-1.1-.9-2.85t1.85-3.15q1.95-1.8 5.35-3.7 3.1-1.8 3.3-1.5m17.05 29.8q.55.1 1.9 4.25 1.4 4.3 1.75 7.4.35 3.4-.65 6.4-1.25 3.65-4.05 3.85-3.15.25-4.3-3.05-1.05-3 .1-7.1 1.15-3.85 2.95-7.85 1.75-3.95 2.3-3.9m29.1 1.85q.5-.2 2.4 2.9 2.1 3.4 3.1 6.8.95 3.25.55 5.75-.35 2.5-1.85 2.7-1.35.15-2.55-1.55-1.3-1.8-1.8-4.95-.45-2.85-.3-7.4.15-4.2.45-4.25m25.05-1.4q.3-.1 1.85 2.7 1.7 3.15 2.55 6.1.7 2.5.6 4.65-.15 2.65-1.65 2.9-1.4.2-2.4-1.55-.9-1.65-1.2-4.35-.25-2.55-.1-6.6.15-3.75.35-3.85m23.6.7q.5-.2 2.85 2.35 2.55 2.8 3.75 5.35.85 1.95 1 4 .1 2.55-1.3 3.15-1.4.65-2.8-.55-1.4-1.15-2.35-3.6-1-2.5-1.3-6.7-.25-3.85.15-4"/><path fill="#ad4886" d="M294.5 293.8q.3-3.05 2.5-4.45 1.85-1.2 4.35-.9 6.95.7 5.95 6.85-.25 1.5-1.35 3.55l-2.35 3.9q-3.6 5.7-10.5 9.4-1.05.6-1.4 0-.3-.5 0-1.45 1.7-5.15 2.8-16.9M183.25 96.6q2.75-.5 4.9.9 1.8 1.2 2.85 3.3.9 1.75.35 4.15-.55 2.35-2.05 3.95-4.45 4.8-7.75 11l-2.4 5.25q-5.25-5.75-3.7-17.4.45-3.65 2.55-6.95 2.35-3.7 5.25-4.2m21.35 31.35q1.25 1.15 1.75 2.9.45 1.45.1 3.15-.35 2-1.7 3.55-1.15 1.3-3.4 1.4l-5.25.15q-5.05.7-9.95 3.4-1.05.55-1.25.2-.25-.35.05-1.85.7-3.45 3.75-7.2 1.55-1.95 3.4-3.65 3.35-3.5 8.4-3.45 2.5.05 4.1 1.4m-10.8 43.25q2.5-2.25 5.5-3 3.25-.8 6.2.4 2.7 1.1 3.5 4 .75 2.7-.45 5.5-.95 2.35-4 3.1l-6.5.6q-5.9.3-11.3 2.15l-1.7.1q-.15-.3.45-1.7 2.5-5.9 8.3-11.15m13.3 43.1q2.9.45 5 2.5 2.15 2.1 2.4 4.85.25 2.35-1 4.35-1.1 1.75-3.9 3.15-2.55 1.2-7.8 2.65-7.7 2.05-12.7 4.45-2.2 1.05-2.55.75-.3-.2 0-1.9 1.15-6.55 6.65-13.65 3.8-4.65 8.2-6.4 2.9-1.15 5.7-.75m-49.75-74.65q3.45 0 4.3 4.25.55 2.5-.85 4.25-.95 1.2-3.35 2.4-3.35 1.75-7.25 4.6-2.65 1.95-2.9 1.6-.4-.45.2-3 .5-2.25 1.5-5 1.3-3.5 3.5-6.1 2.5-2.95 4.85-3m4.95 38.05q-.55 1.9-2.5 2.55l-5.05 1.05q-4 .9-7.9 3.45-1.5 1-1.8.85t-.05-1.8q.5-3.2 2.35-6.4 1.2-2.05 2.55-3.55 6.1-6.55 9.45-4.5 2.1 1.25 2.85 3.85.7 2.3.1 4.5M151.6 215q1.75 1.7 1.7 4.5-.15 5.25-3.75 7.6-1.7 1.15-7.1 2.5-4.65 1.2-10.25 5.4l-2 1.35q-.4-.1 0-2.9.6-4.4 3.25-9 2.3-4.05 5.25-7 4.1-4.1 7.8-4.15 3.25-.05 5.1 1.7"/><path fill="#0f141b" d="m156.55 116-1.1.9q-.6-.95-3.75-2.95l-3.05-1.8q3.55-2.9 7.05-9 1.2 10.15.85 12.85"/><path fill="#515557" d="M156.9 67.4q-4.85-3.3-12.65-3l-6.85.9-1.2-2.15q4.25-4.75 10.55-8.85 8.8-5.85 16.2-6.2l-2.45 6.4q-2.65 7.5-3.6 12.9"/><path fill="#ba004f" d="M163.3 88.35q-1.65 5.6-4.4 8.55l-18.1 20.75q-10.15 11.65-18.65 15.5-6.55 2.9-10.45.9l-1.35-3.6q-2.25-7-1.45-17.05.35-4.4 1.65-10.8l8-33.15 19.2-4.2q9.85-1.9 15.7.35 8.6 3.25 11.25 15.4l-.05-.05q-.15 3.35-1.35 7.4"/><path fill="#ba004f" d="M111.2 43.2q2 3.7 4.65 10.45 2.25 6.1 2.1 12.05 1.55-2.95 5.5-6.35 4.3-3.65 6.45-3.05t5.3 5.35q2.9 4.35 4.35 8.45 1.05 3.1 2.9 4.65 1.7 1.45 4.4 1.8.85.15 1.3.75.55.75.2 1.9-3.25 10.85-11.45 18.9-2.75 2.65-5.5 4.5-2.25 1.45-2.6 1.35-.45-.15-.1-2.45l1.4-6.35q.85-3.45.15-6.7-.8-3.65-3.45-5.8-2.95-2.45-5.8-1.85-3.2.6-7.35 5.15-4.1 4.35-7.65 7.25-3.2 2.65-4.7 1.8-1.45-.8-2.4-5.6-3.5-17.85-11.2-37.1-5.6-13.95-13.75-26.8-6.8-10.7-14.4-19.15-2.9-3.2-2.55-4.45.4-1.45 5.2.35Q84.35 10.5 98.7 26.2q7.85 8.55 12.5 17"/><path fill="#ad4886" d="M93.6 21.1q-.55 4.15-3.2 8.9-3.45 6.2-8.7 9.15-3.25-6.45-7-12.45 4.75-2.6 7.35-7.15 1.8-3.1 2.1-5.95 4.75 3.25 9.45 7.5m7.2 22.4q3.25-6.2 3.35-10.9 5.75 7.45 9 14.45.15 7.15-2.65 13.05-4.4 9.4-15.45 13.35-2.45-8.25-5.8-17.25 7.3-4.55 11.55-12.7M121 80.8q-3.2.6-7.35 5.15l-2.65 2.7q6.6-12.25 6.85-22.8 1.05-2.1 3.85-4.9 2.95-2.9 5.45-4.1 2.5 3.55 3.15 8.85.95 7.9-3 17.4l-.5-.45q-2.95-2.45-5.8-1.85"/><path fill="#515557" d="M152.05 97q3.45-.5 6.8.15-2.2 5.1-5.45 9.7-5.8 8.1-12.7 10.95l-.05-.1q-1.1-4.9.3-9.9 1.1-4.1 3.35-6.75 2.75-3.25 7.75-4.05"/><path fill="#454749" d="M154.4 294.05q-7.55-12.3-8.8-24.75-.65-6.1.6-14.9-.4 10.6 6.65 18.7 6.5 7.55 17.7 11.1 11.05 3.55 23.05 2 12.75-1.6 22.85-8.6 3.2 5.8 8.3 10.65 2.55 2.45 4.45 3.7l-.95 4.35q-.9 4.5-.75 4.95l4.3-.45 6.55-1.5-1.8 3.05q-2.3 3.7-4.75 6.75-3.95 4.95-15.4 17.1-14.45.3-30.5-6.4-21-8.7-31.5-25.75M284.65 290l2.55-1.95q.6 2.15 3.9 4.65l3.15 2.1-1.9 13.65q-5.1 2.8-21.3 7.4l-15.15 4-1.15-.8q6-2.45 16.25-11.2 8.75-7.55 11.4-11.1 1.6-2.2 2.1-4.7zm23.1 5.3 4-2.4 1.65 5.9-10.3 4.85q2.25-2.75 4.65-8.35m52.05-62.25.4 2.5q.2 3.5-.5 8.35-.75 4.85-2.2 8.9l-1.3 3.1q.45-5.7-.5-12.15l-1.05-5.3z"/><path fill="#9a003f" d="m216.15 326.7-3.9 11.1q-4.25 10.3-9.6 16.4l-.95 1-3.15-2.05.6-.75q2.45-3.25 3.15-6.35.65-3.1-.35-6.7-1.1-3.85-6.35-5.7-5.4-1.95-7.5 1.3-.9-3.7-2.9-14.8 11.1 3.8 22.15 5.55z"/><path fill="#454749" d="M186.3 362.2q7.85-3.65 12.25-9.05l3.15 2.05q-6.6 6.65-15.4 7m98.8-21.75 3.2 2-.2.25q-3.4 3.45-7.65 5.15-4 1.65-8.25 1.55 3.7-.95 7.15-3.45 3.25-2.3 5.75-5.5"/><path fill="#9a003f" d="M305.05 306.8q-19.5 11.1-20.85 11.1t-4.4-5.1l12.2-4-.55 1.75q-.3 1.85.9 2.05t6.6-4.75l5.2-5 2.4-.1z"/><path fill="#454749" d="m305.35 306.4-3.35 9.85q-8.2 4.8-13.85 8.75-1.9-2.8-5.15-2.7-3.15.05-4.75 2.6l.6-11.65 1-.7q3.35 5.35 4.35 5.35t21.15-11.5"/><path fill="#9a003f" d="M288.15 325q5.65-3.95 13.85-8.75-3.6 9.85-6.8 16-3.35 6.45-6.9 10.2l-3.2-2q2.45-3.05 3.6-6.25 1.2-3.25.75-5.8-.35-2-1.3-3.4m-55.2-1.9q20.7-8.5 35.75-21.95l9.5-.1q-11.4 11.7-25.7 19.9-9.55 5.4-18.55 7.75z"/><path fill="#454749" d="M233.95 328.7q-9.15 2.45-15.5 1.7-2.55-.1-3.1-.65l-.05-.55 6.5-2.05 11.15-4.05zm44.8-37.95 5.5.35q.2 3.1-2.25 5.9l-3.8 4.05-9.5.1q5.55-5 10.05-10.4"/><path fill="#9a003f" d="M206.25 73v10.3q-.8 11.8-4.75 19.25-5.45 10.45-15.6 10.7.6-.95 4.35-5.55 2.95-4.7.85-7.4 9.45-6.5 15.15-27.3m32.35 37.45-.5 6.85q-1.3 7.85-5.15 12.8-3.9 5.25-8.45 9-6.9 5.6-14.55 7-7.25 1.3-12.4-2.3-1.65-1.1-2.85-2.6l-.9-1.25 2.05-.4 5.5-.65q2.85-.2 4.45-3.15.8-1.45 1-2.85 15.65.2 25.1-10.4 3.1-3.45 5.15-7.7 1.4-3 1.55-4.35m-43.65 79.1q-1.15-2.1-1.75-4.65l-.3-2.1 2.65-.4 5.25-.45q3.55 0 6.35-1.4 20.95 2.45 32.4-8.5 4-3.8 6.3-8.75l1-2.45-1.15 4.95q-3.1 9.8-8.5 15.1-3.85 4.55-11 8.95-10 6.2-18.9 6.3-8.55.15-12.35-6.6m57.7 9.95-.8 6q-1.35 7.7-3.25 11.25-4.2 7.85-7.2 11.1-6.8 7.55-18.6 11.4-10.45 3.4-17.85-1.05-2.3-1.4-4.05-3.4l-1.3-1.75 7.9-2.8q2.65-.85 4.85-2.45l1.65-1.4q19.1 1 30.45-11.6 3.95-4.35 6.35-9.75 1.45-3.3 1.85-5.55m24.55 48.25L277 251q-.55 5-2.25 12.3-1.9 8.2-7.65 15.3-4.9 6-13.6 12.35-6.9 5.05-16.7 8.1-8.4 2.65-8.95 1.8-.4-.55 1.35-8.9-4.6-3.15-9-9.45l-3.45-5.7 5.4 3.1q6.8 2.9 13.85 1.95 16.95-2.35 30.45-17 4.8-5.2 8-10.75 2.55-4.4 2.75-6.35m2.7 36q-1.45-1.3-3.75-4.45l-2-2.85q12.8-.4 22.15-11.6 3.3-3.95 5.55-8.45 1.8-3.7 1.9-5.45l-.05 2.85q-.2 3.6-.95 7.25-2.3 11.65-8.85 19.6-3.85 4.65-9.7 8.95-.15-2.05-4.3-5.85"/><path fill="#9a003f" d="m328.55 255.95-.95 7.05q-1.7 8.7-5.3 16.05t-9.45 12.55q-2.9 2.6-5.1 3.7.6-1.35.2-2.95-.8-3.2-5.65-4.3t-6.95 2.7q-1 1.95-1.1 4.05-1.4-.45-4.35-3.65l-2.7-3.1q2.15-.7 5.55-5.65 15.3-.1 26.65-11.95 3.95-4.1 6.7-8.95 2.15-3.75 2.45-5.55m92.35-79.2 2.55 4.95q-2.9 3.6-5.55 7.55-2.05 2.85-3.95 6.15l-2.55-6.55q4.5-6.95 9.5-12.1"/><path fill="#933a72" d="m431.35 167.95 1.35 3.65q-4.75 4.55-9.25 10.1l-2.55-4.95q5.05-5.3 10.45-8.8"/><path fill="#9a003f" d="m432.7 171.6-1.35-3.65q6.75-4.3 13.6-6.1l-3.45 2.35q-4.35 3.15-8.8 7.4"/><path fill="#933a72" d="M413.95 195.4q-4.35 7.5-7.9 16.6l-3.25-7.35q4.05-8.9 8.6-15.8z"/><path fill="#9a003f" d="m373.25 226.95-2.2-.15q-5.35.1-11.45 6.1l-5 5.95-3.05-8.15q4.75-5.05 8.15-7.4 5.35-3.65 10.65-3.65l4.6.55zm-33.35-11.1-5.75-4.5q.65-1.65 1.85-3.1 2.1-2.5 5.25-3.55l.05 2.85q-.05 3.2-.4 4.9-.55 2.75-1 3.4"/><path fill="#933a72" d="m339.9 215.85 1-5.6.35-3.85v-1.7q4.9-1.65 11.8.4l-11.3 12.2zm17.4-18.3q2.4-5.75 5.3-11.25l3.65 3.9-2.15 5.8-4.55 3.75z"/><path fill="#9a003f" d="m366.25 190.2-3.65-3.9q3.1-5.95 6.35-10.8l2.3 2.75q-1.95 4.2-5 11.95"/><path fill="#933a72" d="m371.25 178.25-2.3-2.75q2.65-4 5.9-8l1.05 1.9q-1.75 3-3.35 6.15z"/><path fill="#9a003f" d="m375.9 169.4-1.05-1.9 4.35-4.85 2.35-2.45q-2.65 4-5.65 9.2m-21.05 34.2 2.45-6.05 2.25 2.2z"/><path fill="#933a72" d="M22.6 43.6q7.55 3.2 14.55 7.05l-2 2.85-4.7-3.35Q27 47.85 21.4 44.9z"/><path fill="#9a003f" d="m35.15 53.5 2-2.85q7.3 4.05 12.95 8.2l-3 4.2z"/><path fill="#933a72" d="M58.15 73.1Q53.1 68.15 47.1 63.05l3-4.2q4 2.9 7.35 6.05l4.1 3.9z"/><path fill="#9a003f" d="m68.4 85.3-3.55-4.8q-2.25-3.05-6.7-7.4l3.4-4.3q6.1 5.9 10.6 11.2l.45.5z"/><path fill="#933a72" d="M86.45 91.35q-7.85 5.4-8.5 5.4-.8 0-3.4-3.3L68.4 85.3l4.2-4.8q3.3 3.65 6.95 4.15 3.55.45 6.8-2.15z"/><path fill="#9a003f" d="m86.45 91.35-.1-8.85.5-.45q4.2-3.75 8.6-6.4l2.5 8.65q-2.85 1.1-11.5 7.05M21.4 44.9q-8.9-4.55-18.35-8.25 2.65.65 7.35 2.25 6.05 2.05 12.2 4.7zm60.55-5.95 3.65-2.35q4.8 7.4 8.35 15.55l-4.7 3.7-2.05-5.7q-2-5.3-5.25-11.2"/><path fill="#933a72" d="M118.95 82q-2.05 1.25-7.2 6.45l5-12.55q3.6-1.5 6.55-1.3 3.45.3 6.05 2.7l-2.25 5.75-1.3-1.05q-3.15-2.2-6.85 0"/><path fill="#9a003f" d="m127.1 83.05 2.25-5.75q2.75 2.55 4.25 7.05 1.25 3.7 1.05 6.3-.4 8 4.25 5.25l-3.6 3.95q-4 3.95-6.1 4.1-.6 0-.45-2.6.2-2.55.85-4.4 1-2.55.8-6.1-.3-4.95-3.3-7.8m-26.45-12.3.2.6q1.95 6.4 6.1 7.1 3.1.55 9.25-2.3l.55-.25-5 12.55-4.7 4.5q-7.4 6.4-8.45-4.65-.2-2.35-3.8-14.85z"/><path fill="#933a72" d="m100.65 70.75-5.85 2.7q-2.55-9.05-5.55-17.6l4.7-3.7L96.7 59q1.95 5.25 3.95 11.75M85.6 36.6l-3.65 2.35q-3.2-5.9-7.5-12.5l2.7-1.25q4.65 5.6 8.45 11.4"/><path fill="#9a003f" d="M74.45 26.45Q68.75 17.7 63.6 11.1l5.1 5.1q4.75 4.65 8.45 9zm32.6 66.5L118 82.85q-1.65 6.2-3.95 12.7-2.45 6.8-3.2 7.1-1.05.45-3.8-9.7"/><path fill="#933a72" d="M387.75 233.6q-3.95-2.6-9.6-4.9l-4.9-1.75 1.7-6.75 6.95 2.25q6.5 1.95 8.3 1.3l-1.5 6.25z"/><path fill="#9a003f" d="M387.75 233.6q1.55-1.9 2.45-9.85 2.65-1 4.35-3.4 2.55-3.55 8.25-15.7l3 7.95q-1.1 1.8-4.45 13.25-3.1 10.6-4.3 11.3-1.35.85-4.2-.7-3.4-2.15-5.1-2.85M162.1 143.55l1.9.8q2.45.65 5.1-.4l.9 14.75q-5.35.15-10.5-3.45l-4.05-3.65q4.5-1.75 5.85-4.85.7-1.55.8-3.2m.4 31.25 1.95.95q2.15.95 3.2.95l-3.85 14.85q-1.55-1.05-3.2-2.85-3.35-3.55-3.9-7.05 3.9-1.5 5.15-3 .8-.95.8-2.5zm-18.25 54.9q3.2-.55 6.35-3.4l2.45-2.8-4.7 14.8q-1.85-1.75-3.15-5.35z"/><path fill="#933a72" d="m148.1 125.35 3.15.15q1.3 2.8-1.9 4.5-1.15.6-2.9 2.4l-3.1 3.35q-2.1 2.2-2.2 1.65.5-4.05 3.8-8.45 1.6-2.2 3.15-3.6m13.45 17.8.1 1.2.05 2.25q-.1.85-1.25 1.75l-2.85 2.05-10.15 6.45q2.65-5.4 8.65-10.1 3-2.35 5.45-3.6m.95 31.65.05.7-.05 1.65q-.15 1.15-1.4 2.15-1.65 1.25-4.9 1.8-3 .55-7.35 2.7l-3.75 2.1q3.6-5.8 10.85-9.05 3.65-1.6 6.55-2.05m-9.1 46.35q-.15 1.4-.85 2.7-2.1 4.15-8.3 5.85-4.3.7-9.6 3.65-2.7 1.5-4.5 2.85 1.35-1.8 3.75-4.1 4.85-4.6 10.25-7.15t7.9-5.1l1.4-2zm54.1 9.1q-3.85.85-12.5 4.05l-7.85 3q.85-1.35 2.85-3.2 3.95-3.65 9.65-6 10.7-4.4 15.05-7.4l-.5 3.9q-1.5 4.2-6.7 5.65M185.25 184q1.4-1.3 3.9-2.75 5-2.85 10.5-3.55 4.9-.6 7.95-1.55l2.05-.8q-.05 1.25-1 2.65-1.85 2.75-6.4 3.5l-8.35 1.05-4.95.75-2.9.65zm21.4-50.6q-.05 1.5-1 2.9-1.9 2.85-6.3 2.6-2.95-.15-6.15.85l-4.8 1.9-2.9.9-.8.05 1.15-1.45q1.65-1.75 3.8-3.2 6.95-4.6 17-4.55m-15.55-33.1.75 3.05q0 3.75-3.85 7.45-2.55 2.6-5.9 8.55l-2.85 5.45q1-10.7 6.55-18.7 2.75-3.95 5.3-5.8"/><path fill="#9a003f" d="m150.95 125.3 7.15 2.5-.5 1.4-7.1.15q1.45-1.3 1.1-2.8z"/><path fill="#933a72" d="m301.05 288.05 2.9.85q3 1.2 3.6 3.15 1 2.85-4.45 11.6-2.45 3.95-7.25 6.95-2.35 1.45-4.25 2.15 2.35-2.55 4.1-8 1.25-3.95 1.85-7.95.7-4.5 1.45-6.3.7-1.65 2.05-2.45"/><path fill="#db919c" d="M180 48.4q1.3 1.35 1.1 2.55-.25 1.2-2 1.9l-4.95.2q-2.9-.6-4.45-2.15-1.35-1.35-1.1-2.55.2-1.2 2-1.9l4.95-.2q2.85.6 4.45 2.15"/><path fill="#454749" d="m344.7 346.95-.35.3q-5.75 4.9-12.3 6.25l-5.45.35q8.85-3 15.1-8.85z"/><path fill="#9a003f" d="M346.25 275.15q4.1-4.25 6.95-9.3 2.15-3.8 2.6-5.8l-.45 3.95q-.65 4.4-1.4 6.5-1.2 3.1-3.55 7.35.1 7.55 6.45 13.4t12.4 3.8q-4.45 4.65-15.35 12-5 3.25-10.05 6.45l-4.45-5.45.3-3.65-7.85-2.4q-5.5 4-11.55 6.45-5.35 2.2-6.35 1.6-2.25-1.3-.4-7.75.65-2.2-.5-6l-1.3-3.4 5.05-5.1q17.35-.15 29.45-12.65m.35 50q3.25-3.5 9.65-7.85l10.3-7.25q-4.7 10.7-11.1 21.6-6.8 11.7-10.75 15.3l-3-1.95q5.45-5.1 6.45-10.95.8-4.9-1.55-8.9"/><path fill="#454749" d="M369.25 295.05q1.5-.45 2.75-1.5-3.65 12.45-5.35 16.3l-.1.2-10.3 7.25q-6.4 4.35-9.65 7.85-2.1-3.5-5.15-4-3.25-.5-5 3.15l2.95-16.85 4.6 6.05 10.3-6.6q11.1-7.45 14.95-11.85M198.35 109.2l-3.55 7.75q-3.5 8.65-3.25 13.35-3.85 3.45-5.95 7.6-1.85 3.6-1.2 4.85.35.7 3.95-1.15 4.1-2.05 5.45-1.65 2.3 4 5.5 5.5 2.4 1.1 7.8 1.6l-2.25 4.15q-1.45 2.5-2.9 4.1-2.65 2.95-8.1 5.7-5.6 2.8-10.95 3.75-13.75 2.3-12.95-9.2.95-13.3-5.25-21.85-6.05-8.25-16.4-8.8 7.2.15 14.35-3.1 9.1-4.15 12.4-11.95-.45 5.3 1.05 10.35 1.35 4.5 2.85 5.1.5.2 2.5-3.95 2.65-5.6 4.25-7.95 5.9-.25 12.65-4.2"/><path fill="#0f141b" d="M163.25 130.25q5.15 5.65 6.85 14.05 1.75 8.4.25 20.45-1.6 12.5-6.3 29.25-3.35 11.85-7.65 23.95-5.4 15.45-7.45 25.15-3.8 17.75-1.05 30.75 3.75 18.05 18.65 31.9 19.2 17.8 50.25 19.7.35 0-.2 1l-.9.95q-30.85-.55-51.05-19.05-15.8-14.55-19.7-33.25-2.8-13.35 1-31.6 2.15-10.3 7.55-25.75 4.95-13.9 7.9-23.9 4.95-16.95 6.5-29.15 1.55-11.85.15-19.65-1.45-8.05-6.25-13.3-4.55-4.9-11.4-5.4-6.9-.5-12.5 3.75-2.65 1.95-4.85 5.65-1.35 2.35-3.2 6.8-2.7 6.65-5.2 7.2-3.25.65-8.1-5.1-5-5.9-7.55-13.8-1.35-4.25-1.35-10.6 0-7.75 2.05-17.5l1.8-.4q-2 9.35-1.85 17.3.15 6.2 1.55 10.55 2.5 7.7 6.9 13.25 4 5.05 6.2 4.6.75-.15 1.7-2.05l1.8-4.05q2-4.9 3.4-7.35 2.4-4.15 5.25-6.3 6.1-4.6 13.95-4 7.85.55 12.85 5.95M225.4 318.2q-.35-.05-.35-.8t.35-.75l6.05.15q1.35.15 1.8.8.35.6.75 4.65l.45 6q.05.35-.75.35-.75.05-.75-.3l-.65-5.05-.8-4.45zm-23.5 35.85q.25.25-.3.85-.5.65-.75.4-.7-.7-4.5-3-3.8-2.35-4.15-2.25-.35.05-1.4.75l-1.3.9q-.2.3-.5-.25-.35-.55-.15-.8l1.25-1.4q1.25-1.25 2-1.3 1.2-.15 9.8 6.1m102.8-51.25q.1-.35 1.5-.45t1.3.25q-1.75 6.85-7.3 19.7-6.3 14.6-10.6 19.8-3.75 4.55-10.15 6.8-4.95 1.75-7.5 1.3-1.05-.2-1.05-1.1 0-1 1.1-3.4 1.2-2.6 3.35-5.95 1.55-3.75 2.2-14 .4-6 .4-12.15 0-.35 1.25-.55 1.2-.15 1.2.2 0 5.2-.7 12.85-.95 10.5-2.6 14.4l-4.25 7.25-.3.9q.05.35.9.25 3.1-.4 6.7-2.1 4.85-2.3 7.85-5.95 4-4.85 9.85-18.85 5.05-12.15 6.85-19.2m49.1-31.55q-.15-.3.3-1.25.45-1 .6-.65 2.05 4.85 6.3 8 2.85 2.1 7.2 3.65 4.75 1.7 5.65 3.1 1.05 1.6.05 6.5-1.95 9.85-9.3 26.3-7.7 17.2-14.45 25.9-4.7 6.1-11.05 9.25-4.7 2.3-9.25 2.65-3.2.25-4-.7-.8-1 .5-3.6 1.5-2.95 4.85-7.65 2.35-7.1 5.05-20.55 2.45-12.45 2.8-17.3.05-.35.85-.35.85.05.85.4v.05q-.45 6.45-2.4 17.2-2.5 13.8-5.45 21.15l-.1.25q-3.25 4.65-5 7.65-1.15 2.1 1.1 1.95 4.15-.25 8.7-2.5 6.2-3.1 10.7-9.05 7.65-10.15 16.7-32.2 8.75-21.2 7.25-23.8-.45-.8-1.8-1.45l-2.95-1.2q-4.8-1.75-7.2-3.45-4.3-3.05-6.5-8.3"/><path fill="#0f141b" d="M287.95 341.65q.25.25-.25.65l-.75.15-3.2-2.15q-2.85-1.8-3.1-1.85-.35 0-1.75.85-1.5.95-2.65 2-.25.2-.55-.45-.35-.7-.1-.95 3.55-3.3 5.1-3.25 1.1.1 7.25 5m43.85.85 2.15-1.3q2.25-1.35 2.7-1.35 1.45 0 8.35 6.9.25.2-.25.7-.5.45-.75.2l-3.65-3.15q-3.3-2.7-3.75-2.7t-2.5 1l-1.95 1q-.3.15-.45-.5-.2-.65.1-.8m-116.65-16.55 1.7-.2q.6.05-1.7 3.2-.2.6.65.55t.55.7q-2.8 7.3-6.05 13.5-3.9 7.45-7.45 11.5-2.35 2.6-6.45 4.8-3.6 2-6.6 2.65-3.15.7-4 .05-.75-.55-.25-2.8l1.5-5.25.9-3.6q.1-3.95-1.9-16.85-1.95-12.4-2.9-15.2l1.2-.3 1.3.15q.85 2.35 2.75 14 2 12.5 2.05 17.3 0 1.65-.8 3.4l-1.95 4.95q-.75 2.2-.3 2.6t2.75-.4q7.3-2.35 11.15-6.75 6.45-7.25 13.85-28m85.65-19.55 2.8-3.9 9.3-4.55q.3-.2.7.55t.1.95q-6.1 3.75-12.9 6.95m-9.15 4q-10.55 4.25-21.55 7.35-10.65 2.9-19.45 4.15l1.75-2.2q23.1-5.9 40-12.5zm39.7-7.4q-.35-.05-.1-.9.25-.8.55-.7l4.45 1.3 8.15 2.2q1.35.35 1.3.85 0 .55-1.4.4-3.85-.35-8.8-1.8zM108.4 97.05q.25-.25.6.4.35.6.15.85-1.8 2.35-2.85 5.1-1.25 3.35-1.1 6.45.25 6.45 3.85 9.75.25.25-.2.6-.45.4-.7.15-4.45-4-4.75-10.6-.15-4 1.8-8 1.4-2.9 3.2-4.7m69.9-52.25q-8.4-1.5-14.95-.65-16.5 2.05-29.35 15.1-.25.25-1-.5-.75-.7-.55-.95 14.35-14.5 30.05-16.15l17.25.6q12 2.25 19.2 9.45 8 8 8.75 22.2.55 11.3-3.35 24.05-2.85 9.35-8.8 13.5-4.65 3.3-10.55 3.05l1.4-1.95q11.15-.45 15.55-15.05 3.65-11.95 3-23.15-.75-13.5-7.9-20.65-6.7-6.65-18.75-8.9"/><path fill="#0f141b" d="M175.1 111.4q-4-3-6.55-10.2-2.15-6.05-4.4-18.6-1.9-10.45-7.85-14.6-3.65-2.5-9.1-2.75-3.9-.2-9.3.85-.35.05-.5-.75-.15-.85.2-.95 4.9-1.5 9.7-1.45 6.2.05 10.2 2.85 7.1 4.85 9.1 16.35 2.2 12.4 3.7 17.3 2.05 6.85 5.3 9.75zm-15.3-13.55-6.1-.35q-5.8.55-8.75 4.05-1.75 2.05-2.85 5.05-1.3 3.35-1.3 6.8 0 2.75.3 4.3l2.85.7q2.6.3 5.1.05 4.9-.45 7.4-3.65 3.3-4.35 3.75-12.05.15-3.35-.4-4.9m-6.5-2q5.95-.65 7.45.85 1.25 1.25 1 7.35-.3 7.25-3.75 11.75-3.25 4.25-10.9 4.2-7.1 0-7.5-2.1-.85-3.8-.25-8.2.85-5.7 4.05-9.45 3.15-3.7 9.9-4.4"/><path fill="#0f141b" d="m158.25 96.95.6.05.45.5q-1.35 5.25-4.9 10.3-5.35 7.55-13.35 10.4l-.5-.45q-.2-.6.05-.7 7.2-2.9 13.1-11.7 3-4.45 4.55-8.4"/><path fill="#0f141b" d="M163.85 80.35q0-.35.85-.35.8 0 .8.35 0 3.15-1.3 7.8-1.7 6.15-4.65 9.3l-1.05-.05q-.85-.3-.65-.55 2.75-2.95 4.6-9.1 1.4-4.8 1.4-7.4m-23.6 36.75q.25-.25.85.3.55.55.35.8-9.45 11.6-18.2 15.4-7.05 3.1-11.75.7-.3-.15-.3-.7 0-.6.3-.45 3.95 2 10.95-1.35 8.5-4 17.8-14.7m52.35 12.65-2.35 1.75q-.05-4.7 2.7-12.35l3.1-7.7 2.5-6.15.9-.05q.8.25.7.6l-5.05 13.9q-2.05 5.35-2.5 10"/><path fill="#0f141b" d="M221.65 74.7q12.8 9.55 16.85 25.65 4.45 17.5-4.95 30.95-5.85 8.4-14.8 13.05-9.8 5.1-17.5 3-6.4-1.8-8.95-7.45l2.3-.4q3.45 5.15 9.5 5.85 6 .65 13.55-3.25 8.6-4.5 13.9-12 8.7-12.45 4.5-29.15Q232.3 86.3 221.4 77.3q-6.9-5.7-15.55-8.3-.35-.1-.75-1.3-.45-1.2-.1-1.1 8.9 2.3 16.65 8.1"/><path fill="#0f141b" d="M207.95 145.45q.25-.25.85.35t.35.85q-2.05 2.05-5.9 8.2-5 8-7.3 14.9l-3.3 2.55q1.95-7.7 8.1-17.2 4.45-7 7.2-9.65m28.75-23.15q6.85 6.6 10.05 17.25 3.25 10.8 1.45 21.6-2 12.05-11.85 22.35-9.85 10.35-22.2 13.25l-10 .55q-4.45-.7-7.2-2.95-4.1-3.45-5-11.7l2.4-.35q.45 7.1 4.2 10.25 4.65 3.9 14.95 1.55 11.9-2.75 21.15-12.35 9.25-9.55 11.15-21.05 1.75-10.5-1.1-20.5-2.8-10.05-9.3-16.25-.25-.25.4-1.1.65-.8.9-.55"/><path fill="#0f141b" d="m204.2 195.6 1.25.1q1 .35.75.55-2.3 2.1-4.9 7.6-3.15 6.75-3.95 13.75l-2.85 1.9q.5-7.55 3.8-14.9 2.85-6.3 5.9-9m37.5-21.35q6.15 1.9 10 11.3 4.5 11.2.65 24.6-3.65 12.55-14.1 21.65-8.8 7.7-17.25 9.25-8.65 1.55-15.15-1.05-5.45-2.2-8.65-6.8l2.45-.95q2.6 3.8 7.8 5.65 5.9 2.05 13.3.75 7.75-1.4 16.05-8.8 9.75-8.7 13.2-20.65 3.35-11.65-.25-22-3.2-9.3-9-11.05-.35-.05.15-1 .45-.95.8-.9"/><path fill="#0f141b" d="M251.5 205.2q-.25-.1 0-.9.3-.8.6-.7 10.45 3.75 18.1 15.1 8.55 12.65 8.3 27.9-.2 14.45-5.35 25-5.1 10.5-15.85 18.4-7 5.2-16.35 8.8-7.75 3.05-12.3 3.4l-1.85-.2q-.45-.4-.15-1.85l1.6-7.5q-7.8-5.3-12.35-14.1-4.5-8.6-4.5-17.75 0-6.95 2.75-14.55 1.7-4.65 3-6.6.15-.3 1 .2t.75.6l-2.65 6.15q-2.45 7.15-2.45 13.8 0 8.55 4.25 16.9 4.35 8.45 11.7 13.95l.55.45.3.75q0 1.05-2.05 7.95 4.05-.55 10.7-3.15 9.35-3.6 16.65-9 10.3-7.6 15.25-17.9 4.85-10.15 5.1-24 .2-13.25-7.7-25.8Q261 208.6 251.5 205.2"/><path fill="#0f141b" d="M287.75 212.85q8.4 6.3 12.6 15.35 4.25 9.05 4.5 21.6.25 12.05-5.3 23.65-5.7 12-14.95 17.65-.3.2-.55-.75-.25-.9.05-1.1 8.35-6 13.45-16.95t4.85-22.3q-.2-12.15-4.15-20.8t-12-14.65q-8.25-6.1-18.1-7.55-6.95-1.05-11.7.3-.35.1-.75-.7-.45-.75-.1-.85l14-.4q10.2 1.6 18.15 7.5"/><path fill="#0f141b" d="M270.6 271.9q0-.35 1.15-1 1.1-.6 1.1-.25 0 1.25 3.1 6.15 3.35 5.3 5.9 7.4 3.55 2.9 3.85 5.9.2 2.2-1.45 5.15-3.8 6.95-14.2 15.4-12.05 9.85-27.1 16.4-6.55 2.9-16.1 3.85l-11.6-.35q-1.75-.75-.4-3.1 1.3-2.2 5.1-6.45l4.75-5.05q2.1-2.25 7-9l5.7-8.3q.15-.25 2.3-.85l2.1-.45-7.7 10.45-8 10.1q-6.55 6.55-9.2 9.85-.6.7-.55.95.05.3.9.45l10.4-.6q8.05-1.25 14-3.9 13.75-6.15 26.05-15.6 11.5-8.8 15-15.05 1.2-2.2.7-3.9-.65-2.45-4.7-5.95-2.6-2.25-5.35-6.4t-2.75-5.85m56.1-11.1q1.55-8.8.2-18.4-1.35-9.75-5.2-16.8-3.8-7.05-10.5-12.1-6.85-5.2-16.05-6.95-10.05-1.9-18.2 1.4l-1.55-.25q-1.15-.4-.85-.55 8.8-4.3 20.2-2.6 10.4 1.6 17.95 7.25 13.8 10.4 16.55 30.35 1.4 10.15-.05 19.15-1.6 9.45-6.6 19.15-6.75 13.15-15.65 16.3l.35-2.15q3.45-1.55 6.85-5.3 3.7-4.1 6.35-9.85 4.7-10.2 6.2-18.65m-32.2 33.4-.15 2.25q-4.05-2.1-8.25-7.6-.2-.3.7-.85.95-.6 1.15-.3 3.2 4.4 6.55 6.5"/><path fill="#0f141b" d="M324.5 207.6q12.05 2.45 19.7 10.9 7.2 7.95 10.3 16.6 1.55 4.4 2.75 12.6.95 6.4-.4 14.7-1.65 10.15-6 16.2-1.05 1.45-1.65 1.2-.65-.25.3-1.8 3.45-5.4 4.9-16.1 1.15-8.3.65-13.85-1.35-15.5-12.65-28.05-7.25-8.05-18.3-10.45-9.15-1.95-18 .3-.35.1-.55-.7-.25-.85.1-.95 8.7-2.65 18.85-.6m17.4 83.65q.85-1.05 1.25-.75.4.35-.3 1.5-4.8 7.65-13.95 13.6-7.1 4.6-11.9 5.6-3.85.8-5-.35-1.15-1.25-.2-5.6 1.15-5.2-1-11.65-.15-.35.7-.65l1-.05q1.15 1.85 1.6 5 .55 3.8-.3 7.7-.65 2.8-.2 3.45l2.65.2q4.45-.95 12.1-6.1 8.5-5.7 13.55-11.9"/><path fill="#0f141b" d="M359.9 233.4q-.05-.35 1.05-1.4 1.1-1 1.15-.65.3 7.05-.9 14.05-1.4 8.2-4.45 13.35-.2.3-.95 0-.8-.35-.6-.65 2.5-4.6 3.9-13.2 1.25-7.55.8-11.5m16.25-43.6q2.7.65 6.35 4.15 3.85 3.7 6.25 8.3 2.55 5.15 3 13.3.55 9.85-2.8 18.25l-1.1-.05q-.95-.4-.8-.75 2.8-6.95 2.65-16.4-.15-8.9-2.6-13.55-2.6-4.85-6.1-8.1-3-2.85-5.25-3.35-3.9-.9-16.35 9.75-11.6 9.9-16.75 17.25-.2.3-.85-.2-.7-.5-.55-.8 4.7-8.35 16.95-18.45 12.75-10.55 17.95-9.35"/><path fill="#0f141b" d="M387.25 195.85q1.95-4.25 4.4-8.35 7.7-13.1 17.1-19.8 7.7-5.45 18.05-8.2 8.25-2.2 15.8-2.2 4.3.05 4.95 1.8.6 1.8-3.05 4.2-16.35 11.05-26.1 27.15-13.6 22.35-18.1 42.4l-1.1 3.35q-.8 1.65-2.1 2.15-1.95.9-5.45-1.35-14.15-9-20.65-9.1-3.45-.05-7.9 3.7-3.25 2.75-8 8.6-.25.25-.9-.65t-.45-1.2q5-6.1 8.25-8.9 4.9-4.15 9-4.1 4.5.05 11 3.4 3.15 1.6 10.75 6.45l2.25 1.35q.9.5 1.45.25.6-.25 1.05-1.4l.8-3.1q5-21.9 17.85-43 9.3-15.3 27.65-27.6 2.3-1.55 1.9-2.3-.4-.65-2.75-.5-8.05.55-15.65 2.8-9.8 2.9-17.3 8.2-9.15 6.55-16.85 19.15l-5.95 11.5q-.15.35-.85-.25-.75-.55-.6-.9zm-51.2-8.3q4.6-.3 10.6 5.4 6.25 5.85 7.3 12.1l-.8 1.1q-.85.75-.95.4-1.45-6.8-7.15-12.35-5.2-5.05-8.85-4.8-3.25.2-8.25 6.55-4.75 6.05-7.45 12.7-.15.3-.9 0l-.7-.65q2.4-7.9 7.65-14.05 5.15-6.1 9.5-6.4"/><path fill="#0f141b" d="m334.65 189.25 1.45-.5q4.8 4.55 5.95 11.95 1.1 6.95-1.15 15.8l-.8.1q-.75-.15-.7-.5 2.3-11.05-.2-18.8-1.3-4.05-4.55-8.05m35.5 3.95q-.2-.25.4-.7.6-.5.85-.25 3.35 3.35 4.85 9.1 2.75 10.55-1.95 25.8l-.95.15q-.85-.15-.75-.5 4.1-15.05 1.55-25.4-1.4-5.75-4-8.2m-6 3.05q-1 0-.95-.35 5.2-19.2 17.15-34.9 1.7-2.25 1.3-2.75t-3.05.5q-11.2 4.25-19.5 13.45t-12.65 22.25l-.85-.1q-.75-.45-.65-.8 3.9-14.1 13.55-23.95 8.25-8.4 19.4-12.6 3.85-1.5 5.1.25 1.1 1.45-1.25 4.85-10.45 15.25-16.45 33.85-.1.35-1.15.3"/><path fill="#0f141b" d="M346.65 192.9q-.35 0-.25-.7.05-.7.4-.75 3.95-.1 7.95 2.45 3.7 2.4 5.4 5.7.15.3-.45.8t-.8.25q-1.75-2.9-5.05-5.2-3.75-2.6-7.2-2.55m4.65-12.3q2.9-.45 6.2.8 5.1 1.95 8.6 7.6.2.3-.15 1.05-.4.75-.6.5-2.8-4-6.75-6.45-3.95-2.4-7-2-.35.1-.5-.7-.15-.75.2-.8m8.15-9.25q-.35 0-.35-.65 0-.7.35-.7 3.25-.2 6.65 1.8 3.75 2.2 5.6 6.05.15.35-.5.55l-.85-.05q-1.75-3.05-5.3-5.15-3.2-1.85-5.6-1.85m8.15-7.15q-.35 0-.25-.55.05-.55.4-.6 1.95-.1 4 .9 3.05 1.5 4.8 5.05.15.3-.45.5l-.75-.1q-1.6-2.5-4.3-4-2.1-1.2-3.45-1.2m22.35 28q4.05-1.4 8.5 3.15 5.1 5.2 8.1 16.2.1.35-.55 1.05t-.75.35q-3.65-12.6-9.5-17.35-3.4-2.75-5.9-2.25-.35.1-.25-.5.05-.55.35-.65m9.55-12.9q-.35 0-.35-.7t.35-.75q10.95-.25 15.15 17.75.1.35-.55.55t-.75-.15q-2.85-9.8-7.55-14-3.05-2.7-6.3-2.7m10.45-9.9q-.35-.05-.05-.7t.65-.6q3.8.5 7 3 4.6 3.65 6.2 10.65.1.35-.6.55l-.8-.1q-1.55-6.2-6.15-9.85-3.3-2.6-6.25-2.95m14.3-7.1q-.3-.1.05-.65.3-.5.65-.45 2.8.65 4.8 2.7 2.75 2.7 3.6 7.5.1.35-.65.5l-.8-.1q-.9-4-3.65-6.85-2.2-2.25-4-2.65m-187.3 144.55h-.7l-.25-.65-.45-2.55q-.05-.35.75-.5.85-.15.9.2l.2 1.75q6.8-1.85 16.55-3.35 14.4-2.25 24.6-1.65.35.05 0 .8l-.65.8q-9.2-.2-25.9 2.45zm26.9-14.3q-10.4 1.25-15.75 2.9-.3.1-.55-.7t.1-.9q19.35-5.75 36.9-3.55.35.05.25.85-.1.85-.45.8zm40.2 13.55q.25-.15.6.6.3.75 0 .9-5 3.15-11.9 6.9-7.7 4.2-8.6 4.05L282 316.9q-1.7-1.65-2.8-3.5-.15-.3.55-.8t.9-.2q2.95 4.45 3.7 4.55.4.05 8.25-4.25 8.05-4.4 11.45-6.6m-3.5 9.8q.25-.25.65.5.35.7.1.95-1.75 1.75-9.05 6.15-7.4 4.45-8.4 4.25-.8-.15-2.75-2.75l-2.35-3.6q-.2-.3.25-.95.5-.6.7-.35l2.3 3.4q1.7 2.3 2.2 2.5 2.75-1.15 8.5-4.75zm64.9-6.7q.25-.25.65.45.35.7.15.95-2.35 2.65-12.8 10.4-10.95 8.05-12.25 7.6-1-.35-2.15-2.4-1.05-1.95-2-4.85-.1-.3.4-.85.55-.6.7-.3 3.1 6.4 3.5 6.6.25.15 10.8-7.6 10.75-7.9 13-10m6.2-17.25q.25-.25.6.4.4.7.15.95-4.5 5.7-16.25 13.75-10.7 7.35-12.1 7.15-.85-.1-3.05-2.65l-2-2.55q-.2-.25.4-.8t.8-.3q3.65 4.45 3.95 4.5 21.75-13.75 27.5-20.45"/><path fill="#0f141b" d="M301.25 289.25q-2.55-.3-4.25 1.05-1.45 1.25-1.7 3.6-.95 10.15-2.7 16.6-.3.95-.15 1.15.2.3 1.15-.3 2.3-1.4 4.7-3.6 2.9-2.65 4.65-5.45l.2-.35 2.15-3.6q1-1.9 1.2-3.2.45-2.45-.65-3.95-1.2-1.55-4.6-1.95m-7.15 1.7q.7-1.35 1.7-2.15 1.05-.85 2.6-1.25l3.1-.2q4 .45 5.75 2.75 1.8 2.35 1.15 5.35-.45 2-2.05 4.9-2.15 3.8-5.25 7.05-1.9 2-4.1 3.45l-3.5 2q-1.75.95-2.35 0-.55-.85-.15-2.6 1.15-4.65 2.25-16.45.15-1.45.85-2.85M153.85 141.3 152 143q.05-4.55 2.05-9.6 1.55-3.95 3.35-6.25.2-.3 1.1.45.85.75.6 1-1.6 2.05-3 5-1.85 4-2.25 7.7m16.2 18.9q-11-1.65-15.45-8.35l1.75-.55q3.75 4.9 14.15 6.5.35.05.1 1.25-.2 1.25-.55 1.15"/><path fill="#0f141b" d="M162.45 156.15q.25-.25 1.3.4 1 .7.75.95-1.5 1.35-3.35 4.1-2.5 3.75-3.2 7.2l-2.25.45q.8-4.05 3.2-8.25 1.95-3.4 3.55-4.85m.5 37.1q-3.25-3-4.95-5.95-1.6-2.75-2.25-6.25l2.05-.15q.6 2.95 1.95 5.15 1.45 2.35 4.45 5.1.25.25-.35 1.3-.65 1.05-.9.8"/><path fill="#0f141b" d="M159.3 187.95q.35-.15 1 .65.7.8.4.95-4.05 2-8.75 7.75-6.35 7.75-7.65 16.45l-2.1.7q.4-7.45 5.5-15.35t11.6-11.15m-14.45 41.2q1.35 5.7 4.6 8.95.25.25-.45 1.4-.7 1.1-.95.85-3.85-3.75-5.3-10.8zm12.9-101.05q.4-.05.15 1.1-.2 1.15-.6 1.2l-4.3.1-3-.25q-.35 0-.2-.85.2-.85.55-.85zM81.6 93.9l4.1-3.45v-.1q.3-2.15.15-5.5-.3-6.65-2.65-12.55-7.3-18.45-35.55-31.2-12.15-5.45-23.95-6.95-9-1.15-17.15.05-4.05.6-4.1 1.2 0 .6 3.5 1.75 8.45 2.85 17.2 7.5 12.7 6.8 24.05 16.5 17.1 14.5 27.5 31.35 1.6 2.65 2.8 3.05 1.6.55 4.1-1.65m15.3-11q.3-.15.8.95.45 1.1.15 1.3-3.45 1.75-7.6 4.7l-7.2 5.3Q78.75 98.3 76.9 98q-1.8-.3-4.35-4.45Q62.6 77.45 45.9 63.2 34.75 53.7 22 46.7q-8.6-4.75-17.1-7.95-5.05-1.9-4.9-3.65.15-1.9 6.3-2.75 8.4-1.25 17.7-.15 12.15 1.45 24.6 6.85 28.7 12.45 36.3 32.3 1.45 3.8 2.25 8.75.85 5.4.3 9 5.55-4.25 9.45-6.2"/><path fill="#0f141b" d="M91.1 61.95q.25-.2.9.95t.4 1.35q-1.2.8-4.15 4.1-2.95 3.35-3.6 4.7-.15.35-.65-.3t-.35-1q.9-1.8 3.45-5.2 2.75-3.75 4-4.6m-66.5-28.5q0-.35.85-.25.8.05.8.4 0 2.4-.6 5.05-1 4.3-3.3 6.5-.25.25-.85-.25-.55-.45-.35-.7 1.6-1.85 2.65-6 .8-3.15.8-4.75m16.15 3.65q.65-.05.7.3.4 3.95-.6 7.8-1.3 5.1-4.8 8.55-.2.25-.85-.2t-.45-.7q5.35-6.75 5.35-15.4 0-.35.65-.35m11.8 5.6q-.1-.35.6-.3.75.05.8.35 1.2 3.75-.35 9.85-1.7 6.8-5.75 10.45-.2.25-.7-.3-.5-.5-.3-.75 3.5-3.45 5.05-10.9 1.35-6.15.65-8.4m10.75 6.55q-.05-.35.65-.35.7-.05.75.3 1.35 5.65.5 11.75-1.2 8.2-6.4 12.15-.3.2-.75-.3t-.2-.7q4.35-3.4 5.5-12.15.9-6.6-.05-10.7m11.7 9.9q-.1-.3.55-.35.7-.1.85.25 1.8 5 .25 12.4-1.8 8.7-7.6 14.1-.25.25-.8-.25-.55-.45-.3-.7 5.75-5.9 7.3-14.85 1.1-6.8-.25-10.6"/><path fill="#0f141b" d="M114.2 84.15q3.85-3.7 6.9-4.2 3.1-.55 6.25 2.05 4.05 3.3 4.05 9.45l-.45 3.9-1.4 5.8q-.3 1.4 0 1.65.35.2 1.5-.6 4.5-3.2 8.45-8.15 5.6-6.9 8-15.1.25-.7.1-1.05-.2-.4-.9-.5-5.85-.8-7.95-7-1.4-4.05-4.25-8.3-3-4.45-4.85-5-1.55-.45-5.8 3.35-3.6 3.25-5.05 5.4-.2 8.6-4.6 18.3m-2.65-38.1q-4.95-9.95-13.5-19.3-14.3-15.6-36.15-23.7Q58.3 1.7 57.7 2q-.8.45 2.45 3.8 6.65 6.9 13.05 16.15 9.65 13.95 16 29.7 6.45 16.15 10.55 37.6.8 4.6 2.1 5.1 1.05.3 3.6-1.8l5.4-4.85q6.4-11.85 5.9-23.35-.35-8.45-5.2-18.3m-11.5-20.75q7.55 7.85 12.6 17.35 5.7 10.85 6.1 20.35 2.45-3.3 5.5-5.7 3.65-2.85 5.75-2.25 2.45.7 5.75 5.45 3 4.3 4.45 8.45 1.1 3.15 2.25 4.45 1.6 1.8 4.65 2.2 1.6.2 2.1 1.1.5.8.1 2.45-1.7 7.4-6.9 14.45-4.5 6.15-9.75 9.65-3.6 2.45-4.5 1.8-1-.8.3-6.4 1.35-5.45 1.05-8.75-.35-4.2-3.25-6.6-2.5-2.05-5-1.35-2.8.75-6.95 5.2-4.1 4.4-7.5 7.15-4 3.3-6.35 1.85-2.05-1.3-3.05-6.3-4.2-21.7-10.45-37.2-6.25-15.45-15.8-29.6-5.95-8.8-12.5-16.1Q54.3 2.15 55.5.6q1.1-1.45 7 .6Q84 8.6 100.05 25.3"/><path fill="#0f141b" d="M83.35 13.3q.05-.35.75-.25.7.05.7.4-.6 9.65-9.6 13.5-.35.1-.65-.45-.35-.55-.05-.7 5.05-2.5 7.35-7.2 1.3-2.65 1.5-5.3m9.6 7.8q0-.35.7-.3.65 0 .65.35 0 4.45-2.7 9.45-3.45 6.3-9.6 9.2-.3.15-.65-.5-.4-.7-.1-.85 5.75-2.95 9.1-9.2 2.6-4.8 2.6-8.15m10.25 11.45q-.05-.35.6-.45.7-.1.75.25.8 4.55-2.35 11.3-4.05 8.7-12.45 12.85-.3.15-.8-.4-.5-.5-.25-.7 8.1-4.7 12.1-13.15 3-6.3 2.4-9.7m9.25 14.5q0-.35.85-.3.8 0 .8.35.35 7.4-2.7 13.75-4.7 9.7-16.25 13.2-.35.1-.6-.55-.3-.65 0-.75 10.95-3.8 15.35-12.85 2.9-6 2.55-12.85m14.15 10.3q-.2-.3.55-.65l.9-.05q4.05 5.85 3.45 14.05-.45 6.6-3.65 12.65l-.75-.1q-.55-.4-.45-.7 3-7 3.15-13.3.2-7-3.2-11.9m-9.3 24.6q.1-.35 1-.15.95.15.9.5-1.15 5.9-4.05 13.35-3.1 7.75-4.55 7.75-1.8 0-3.9-10.6-.05-.35.8-.6l.9.1q1.75 9.1 2.3 9.25.45.15 2.9-6.7 2.6-7.35 3.7-12.9m22.25 54.3q-.6-2.25-.7-4.55-.15-2.9.55-4.8l1.05-.05.85.35q-.5 1.65-.45 4.75 0 2.3.25 3.85l.2.95.75-.7q2.75-3.7 4.9-5.3 2.2-1.55 2.95-2.3.85-.85.85-1.6 0-.6-.55-1.55-.05-.15.55-.55l.8-.1q1.4 2.4.35 4.2-.8 1.3-3.75 3.3-2.8 1.8-5.1 4.9-2.4 3.2-3.5-.8m21.3 7.8q-.7-3.6-3.5-3.6-3.25.05-6.2 5.3-2.45 4.25-3.45 9.3-.2.95-.05 1 .1.1.7-.35l3.35-2.45q3.15-2.2 5.35-3.4 2.3-1.25 3.1-2.2 1.15-1.4.7-3.6m-12.35 2.85q1.75-3.95 4.25-6.3 4.55-4.3 8.45-.05 1 1.15 1.45 3.1.6 3.05-1.05 5.05-.9 1.1-3.2 2.35-2.1 1.05-5.75 3.45l-4.2 2.8q-1.3.85-1.8.65-.65-.25-.45-2.2.5-4.75 2.3-8.85m10.45 23.15q-2.5-1.55-7.25 3-4.9 4.75-6.25 10.9-.2.9-.1 1l.8-.45q3.65-2.7 8.4-4l4.3-1.1q2.1-.7 2.65-1.9.65-1.45-.2-4-.9-2.5-2.35-3.45m4.05 2.85q.8 2.6.05 5.05-.9 3.1-5.6 3.85l-2.3.45q-4.9 1.1-8.65 3.95-1.45 1.05-2.15.6-.65-.45-.5-2.25.6-6.75 6.05-12.6 5.6-6 9.85-3.4 2.35 1.45 3.25 4.35m-11.9 42.75q-1.65-1.65-4.55-1.55-5.4.1-10.5 7.45-4.5 6.45-5.5 12.95-.2 1-.05 1.05l.8-.55q5.3-4.5 10.95-6.2l3.9-1.2q1.55-.6 3.05-1.55 2.8-1.75 3.05-6.7.15-2.4-1.15-3.7m-4.55-3.75q1.8-.05 3.45.65t2.6 1.85q1.8 2.05 1.5 5.1-.15 5.6-3.95 8.35-2.1 1.55-6.55 2.55-2.55.55-6.15 2.55-3.25 1.7-5.3 3.4-3.65 2.85-3.2-1.9.6-6.7 5.25-13.85 5.5-8.6 12.35-8.7m41.6-113.4q-2.05-1.55-4.75-1.1-2.5.45-4.65 3.8-2 3.1-2.5 6.65l-.05.3q-.3 2.5-.3 4.6 0 6.25 2.4 10.5.45.75.65.75l.55-.8q4.05-9.3 9.2-14.9 1.7-1.8 1.95-4.1.25-1.85-.4-3.05-.8-1.6-2.1-2.65m-4.9-2.95q3.45-.6 6.15 1.55 1.7 1.35 2.65 3.25 1.05 2.1.5 4.8-.5 2.5-2.1 4.25-3.5 3.8-6.55 8.7-2.25 3.55-3.45 6.35-.75 1.8-1.6 1.55-.6-.15-1.6-1.65-2.6-3.95-3-9.35-.8-9.45 2.85-14.85 1.15-1.75 2.8-3 1.75-1.35 3.35-1.6m19.3 42.45q.9-.25 1.6-1 1.2-1.4 1.5-3.15.3-1.5-.1-2.8-1.15-3.85-5.05-3.9-4.1-.05-8.6 4-4.55 4.05-6.3 9.35-.5 1.4-.2 1.6l1.2-.4q5.8-2.9 9.4-3.4l4.1-.2zm2.95-10.5q1.25 1.4 1.75 3.2.5 1.75.25 3.5-.3 2.25-1.75 3.9-1 1.2-2.45 1.55l-2.9.2-1.85-.05-2.2.1q-2.75.4-5.8 1.55l-4.2 1.75-2.55.05q-.35-.5-.05-2.1 1.15-5.3 5.65-10.2 5.2-5.65 11.05-5.6 3.1.05 5.05 2.15m-13.15 55.95-4.95 1.25-3.05.25q-.75-.55.35-3.05 4.1-9.35 9.95-13.05 5.5-3.5 11.1-1.25 1.3.5 2.4 1.55 1.1 1.1 1.6 2.35.65 1.5.55 3.5-.1 1.9-.85 3.65-1.2 2.8-5.1 3.6l-6.25.4zm-6.2-.85q-.35.75-.25.8l.8-.15q5.55-2 11.3-2.25l6.1-.55q2.85-.65 3.7-2.65 1.05-2.5.3-5.05-.8-2.55-2.9-3.4-4.7-1.9-10.1 1.9-5.45 3.75-8.95 11.35m23.15 45.8q2.55-1.25 3.5-2.8 2.7-4.4-1.25-8.25-4-3.9-9.85-1.55-5.15 2.05-9.15 7.5-3.9 5.25-5.25 11.7-.3 1.35-.1 1.45l1.15-.45q6.85-3.25 13.2-5 5.15-1.4 7.75-2.6m3.6-12.65q5.3 4.6 1.4 10.9-1.2 1.95-4.4 3.5-2.7 1.25-7.85 2.65-7.3 2-13.05 4.75-2.1 1.05-2.9.55-.9-.6-.35-3.4 1.45-7.4 5.55-12.95 4.15-5.6 9.75-7.85 6.65-2.65 11.85 1.85m-50-168.6q1-.05 1.05.4l-.25.85-2.35 6q-2.6 7.1-3.75 12.9l-.7.1-.8-.55q-.35-.7 1.4-6.4 2-6.6 4.75-12-6.65.75-14.85 6.25-6.15 4.2-10.35 8.85-.2.25-.6-.35-.35-.65-.15-.95 2.4-3.6 8.65-8.1 9.15-6.6 17.95-7m28.75 10.7q-3.55 2.6-6.7 6.3-4.25 5-5.1 9.3-.45 2.25-.45 4.3 0 3.6 1.3 6.55 1.35 2.95 3.85 4.8 1.45 1.1 3.8 1.45 2.6.35 4.95-.45 4.45-1.5 5.8-6.35.7-2.5.7-5.55 0-5.4-2.15-11.8-1.65-4.75-3.65-8.2-.6-1-.95-1.05-.3-.1-1.4.7m-.35-1.45q1.5-.95 2.15-.7.8.3 2.2 2.75 2.5 4.25 4.15 9.2 3.1 9.45 1.1 16.6-.75 2.7-2.65 4.75t-4.45 2.9q-2.6.9-5.55.55-3-.35-4.95-1.8-3.65-2.7-5.1-7.3t-.35-10q1-5 5.35-9.95 3.45-4 8.1-7m38.3 38.35-.85-1.35q-.25-.1-1.4.5-3.45 1.7-7.05 4.75-4.8 4.1-6.95 8.55-1.95 4.05-1.95 7.75 0 4.95 3.35 9 1.2 1.35 2.95 2.15 1.85.8 3.8.85 4 .1 6.7-2.65 2.45-2.5 3.55-5.75t1.1-7.95l-.1-3.55q-.5-6.65-3.15-12.3m-3.05-2.3q2-.95 2.8-.7.6.2 1.4 1.65 1.3 2.4 2.4 5.95 1.3 4.2 1.55 7.8.4 5.9-.4 9.75-1.1 5.25-4.6 8.85-3.45 3.55-8.7 3.15-4.9-.35-7.8-3.75-2.6-3.05-3.45-7-1.1-5.55 1.8-11.7 2.1-4.4 7.1-8.7 4-3.45 7.9-5.3m15 53.85q-.3-.5-2.15.25-3.6 1.45-8 3.85-4.95 2.7-7.3 4.75-3.55 3.1-5.05 7.05-1.35 3.45-1.05 7.05.3 4.05 3.6 6.4 3.2 2.35 7.35 1.75 3.5-.5 6.4-4.45t4.5-10.35q1.8-7.4 1.8-14.05zm-2.65-1.3 3.55-.2q.8.75.8 3.85 0 8.35-1.55 14.7-1.8 7.1-4.5 10.85-2.85 3.95-7.45 5.15-4.9 1.25-9.25-1.9-4.3-3.15-4.7-8-.65-9.3 6.7-15.6 2.5-2.05 6.75-4.45 5-2.8 9.65-4.4m8.05 46.95-.15-1.05-1.2.15q-4.05 1.3-11.55 5.1-4.5 2.3-7.65 5.75-3.7 4.05-4.15 8.5l-.05 1.5q0 4.15 2.45 6.65 1.7 1.75 4.35 2.45 3.85 1.05 7.55-1.1 4.25-2.45 6.65-8.3 1.9-4.7 2.95-11 .8-4.95.8-8.65m-1.7-2.5q2.25-.65 2.85.25.4.6.4 3 0 4.3-.75 9.3-.95 6.25-2.7 10.5-2.65 6.5-7.8 9.35-4.55 2.5-8.95 1.3-4.25-1.2-6.45-4.7-2.15-3.45-1.7-8.2.5-5 4.25-9.3 3.4-3.9 8.9-6.6 7.2-3.55 11.95-4.9m12.95 27.25-.75-.75q-.3 0-.85.85l-6.1 10.35-3.9 6.65q-4.95 8.05-4.95 14.05 0 2.1.55 3.95 1.6 5.5 5.5 8.65 3.95 3.1 8.95 2.85 5.35-.3 8.65-4.8 3.35-4.55 3.55-11.8l.05-.5q0-5.8-4.2-16.1-3.15-7.75-6.5-13.4m-.4-2.5q.75.2 1.7 1.8 5.05 8.2 8.05 16.05 3.4 8.95 3.45 14.85.05 3.6-1.1 7.2-1.1 3.4-2.95 5.85-1.8 2.4-4.6 3.9t-5.75 1.65q-5.6.35-10.15-3.35-4.5-3.65-6.25-9.75-2.2-7.8 4.35-19.4l2.35-3.8 2.05-3.2q1.25-2.3 6.4-10.15 1.35-2 2.45-1.65m40.3 33.2-.05-.9q-.15-4.45-1.55-8.2-1.45-3.8-4.7-8.4-3.1-4.45-7.2-8.1-.9-.8-1.15-.75-.4 0-.65 1.3-.55 3.25-1 7.9-.55 5.5-.55 9.75 0 2.15.15 3.95 1.25 13.35 9.1 14.7 2.3.45 4.25-1.2 1.6-1.4 2.45-4.05.9-2.65.9-6m-12.6-26.85 4.45 4.2 3.6 4.3q3.45 4.85 4.95 8.7 1.5 4 1.7 8.7.15 4-1.05 7.5-1.15 3.4-3.15 5.2-2.55 2.2-5.9 1.65-4.55-.8-7.45-5.2-2.9-4.45-3.3-11.2-.35-5.95.4-13.05.55-5.05 1.55-9.5.55-2.35 1.55-2.55.9-.2 2.65 1.25m22.65 20.35q0 3.6.45 5.85 1.2 5.5 4.4 7.45 1.95 1.25 4.25.65 1.95-.45 3.3-3.15 1.2-2.5 1.2-5.45v-.6q-.4-6.8-4.3-13.9-2.9-5.25-6.4-8.8l-.95-.85q-.3-.05-.55 1.3-.55 2.95-.95 7.95-.45 5.3-.45 9.55m2-20.3q.8.15 2.15 1.55 6.65 6.65 9.65 14.85 3.35 9 .55 15.15-1.75 3.7-4.85 4.65-2.95.9-5.8-.9-1.9-1.2-3.3-3.4-1.5-2.4-1.9-5.25-.75-5.45-.15-12.9.5-5.75 1.6-11.25.6-2.8 2.05-2.5m20.45-1.05q.65-.05 3.25 1.5 2.45 1.5 5.15 3.7 3 2.45 4.6 4.4 6.85 8.25 7.3 16.45.15 3.05-.8 6-1.45 4.5-5 5.7-3.65 1.25-7.4-1.45-3.1-2.2-4.75-5.65-2.45-5.2-3.35-12.55-.35-2.9-.5-7.5l-.05-7.05q.15-3.5 1.55-3.55m2.25 2.65q-1.6-1-1.85-.9-.4.1-.4 2.05 0 7 .8 13.95.85 6.65 3.35 11.9 1.4 2.9 3.85 4.8 3 2.35 5.9 1.35 2.55-.8 3.6-3.85.75-2.05.75-4.8l-.05-.9q-.35-7.8-7-15.75-1.9-2.3-4.55-4.55z"/><path fill="#0f141b" d="M190.75 70.55q-.8.95-1.65 2.65-.95 1.85-1.4 3.6-.65 2.85.6 4.55.7.95 1.7 1.1 1.05.2 1.8-.55.7-.7 1.05-1.85l.45-2.75q.15-1.5-.35-3.6l-.95-2.9-.5-.75q-.25-.1-.75.5m-2.85 1.7q1.1-1.8 2.25-3 1.05-1.1 1.6-.95.4.15 1.15 1.45 1.55 2.6 1.9 6.45.4 4.7-1.85 6.9-1.35 1.3-3.15 1-1.75-.3-2.8-1.75-1.7-2.3-.85-5.9.5-2.05 1.75-4.2m39.2 36.8q.2-3.05 0-4.55l-.25-.75q-.25-.15-.8.3-1.3.9-2.85 2.7-3.2 3.65-3.35 7.2-.05 1.9 1.4 2.9 1.35.9 2.6.3 1.9-.95 2.75-4zm.45-6.7q.65.3.95 1.7.35 1.6.4 4.45 0 3.3-.5 5.3-.85 3.5-3.65 4.85-2.65 1.3-4.75-.4-2-1.6-2-4.45 0-1.6.6-3.35.9-2.4 3.05-4.65 1.7-1.75 3.65-2.9 1.45-.9 2.25-.55m7.9 55.7.1-.8q-.05-.15-.8.2l-3.35 2.3q-2.1 1.6-3.1 2.9-1.6 1.9-1.6 3.9l.05.55q.1 1 .8 1.45l1.35.2q2-.4 3.85-3.55l1.7-3.7zm-1.4-1.85q3.55-1.75 2.9 2-.25 1.85-1.1 4.45l-1.6 3.75q-2.1 3.5-4.9 4.15-1.65.35-2.95-.65-1.35-1-1.65-2.95-.4-3.05 2.05-5.65 2.8-2.85 7.25-5.1m3.4 53q1.95-2.85 3.1-6.45l.2-.7q-.05-.25-.75.15-4.1 2.15-6.65 4.55-1.65 1.5-1.65 3.15 0 .8.6 1.45t1.4.6q.9-.1 1.95-.85zm1.85-8.35q2.1-1 2.65 0 .4.7-.05 2.3-1.4 4.7-3.05 7.2-1.05 1.5-2.35 2.45-1.35.95-2.6 1.05-1.8.2-3-1.1-1.2-1.2-1.2-3.1 0-2.55 2.45-4.45 2.75-2.15 7.15-4.35m19.5 31.5-.3-.55q-.25-.1-.6.6-2.05 4.15-3.85 10.35-.55 1.8-.55 3.75 0 2.8 1.15 4.25 1 1.25 2.75 1.1 1.3-.05 2.2-1.2 1.85-2.3 1.85-6.65l-.1-1.5q-.25-2.2-1.05-5.35-.75-2.85-1.5-4.8m-2.05-.7q1.9-3.2 3.4.25.95 2.1 2 5.7l1.15 4.75q.75 6.1-2.1 9.55-1.6 1.9-4.15 1.95-2.55 0-4.15-1.95-1.2-1.45-1.4-4.25-.2-2.7.6-5.2 2.4-7.05 4.65-10.8m31.9 2.8-.55-.65q-.2 0-.25.8l-.1 3.55q-.05 3.3.4 6.05t1.55 4.4q1.05 1.5 2 1.3 1.25-.2 1.25-3.3 0-1.8-.65-4.05-1.1-3.85-3.65-8.1m-2.05 0q.5-4.6 3.3-.6 3.1 4.5 4.2 8.1.75 2.55.75 4.95-.05 2.5-.85 3.7t-2 1.3q-2 .2-3.75-2.2-1.6-2.2-1.9-5.05t-.25-4.65zm26.85-1.75-.35-.5q-.3-.25-.35.65l.1 4.9q0 1.35.35 4.05.35 3.55 1.85 4.75.75.55 1.3-.2.5-.7.5-2.25 0-1.8-.6-3.85-1.1-4.1-2.8-7.55m-1.05-2.3.7.1q.75.35 2.25 3.3 1.65 3.1 2.45 6 .55 1.8.65 3.7.1 2.45-.7 3.7-.55.95-1.55 1.2-1.1.25-2.15-.55-2-1.6-2.45-6.1l-.2-5.5q0-5.5 1-5.85m25.05 2.85-.6-.45q-.35-.1-.35.95 0 1.7.45 4.15.5 2.65 1.2 4.4 1.2 3.1 2.85 3.75.9.35 1.45-.25.55-.55.55-1.8 0-2-.9-4.05-1.6-3.45-4.65-6.7m-2.2.4q.25-3.95 3.1-1.3 1.4 1.25 3 3.45 1.55 2.05 2.3 3.7 1.85 3.95.85 6.6-.45 1.3-1.8 1.75l-2.45-.1q-2.15-.9-3.7-4.85-.75-1.9-1.1-4.7-.35-2.65-.2-4.55"/></svg>