<svg xmlns="http://www.w3.org/2000/svg" width="309" height="286" viewBox="0 -4.85 308.55 286.45"><path fill="#fff1ad" d="M277.35 85.35q5.9 3.75 10.95 8.95 16.05 16.7 17.25 41.9.6 13.25-4.8 27.1-4.55 11.7-10.3 17.35l2.25 4.6q1.8 5.3-.5 9t-5.95 5l-3.25.55.5 6.15q.15 7.6-1.85 14.95-6.4 23.55-31.45 35.9-3.95 2.65-11.1 4.35-14.25 3.4-30.2-1.15-7.5-1.4-16.35-2.1-17.75-1.3-24.55 2.4-6.85 3.7-11.5 7.05l-3.25 2.65q-7.3 3.6-17.95 6.25-21.3 5.35-37.9.8-19.75-5.4-33.95-18.4-14-12.8-17.65-28.35-4.15 1.55-9 2.3-9.7 1.5-13.15-2.55-3.65-4.35-.95-13.2 2.3-7.45 5.95-11.1-6.65-4.4-13.45-13.2-13.6-17.6-14.2-39.7-.45-5.75 1.9-14.2 4.6-16.9 18.35-30.25-1.7-3.05-1.85-6.65-.25-7.15 7.8-9.8-1.6-5.15.1-13.9 3.4-17.55 19.85-35.5 4.4-5.65 13.25-11.2 17.7-11.1 40.05-10.65-2.5-1.75-3.75-5.75-1.25-4.1.25-5.65 5.55-5.55 13.55-4.4 9.05 1.3 22.5 11.3l6.7-4.3q8.6-4.85 18-7.65 30.15-9.1 57.4 5.35 23.1 12.25 35.6 33.65 4.1 7.05 6.45 14.1 1.7 5.05 1.7 6.8l2.9.4q3.4.65 5.95 2.15 8.15 4.8 4.75 15.95z"/><path fill="#dcd096" d="m259.3 166.85 5.1 1.25 12.25.85q19.05-1.2 27.65-17.6-1.95 9.4-6.15 17.9-3.8 7.55-7.7 11.4 2.6 2.25 3.45 5.9 1.05 4.25-1.2 7.9-2.3 3.7-6.2 4.9l-3.5.45.5 6.15q.15 7.6-1.85 14.95-6.4 23.55-31.45 35.9-3.95 2.65-11.1 4.35-14.25 3.4-30.2-1.15-7.5-1.4-16.35-2.1-17.75-1.3-24.55 2.4-6.85 3.7-11.5 7.05l-3.25 2.65q-7.3 3.6-17.95 6.25-21.3 5.35-37.9.8-19.75-5.4-33.95-18.4-14-12.8-17.65-28.35-4.15 1.55-9 2.3-9.7 1.5-13.15-2.55-3.65-4.35-.95-13.2 2.3-7.45 5.95-11.1-2.8-1.85-6.6-5.5-7.6-7.35-12.7-16.55 12.95 7.45 29.2 9.95 16.05 2.4 31.7-.5 16.25-3.1 28.65-11.35 13.35-8.95 20.05-22.6z"/><path fill="#bf794e" d="m154.3 207.2 18.5-.45q19.55-.35 24.75.1 6.55.6 10.75 5.2 4.45 4.85 4.4 12.3l.45 4.2q.4 5.25.2 10.2-.5 16.05-6.55 24.1l-.6 8.5q-1 8.55-3.3 8.75t-7-6.85l-4.25-7.15-24.35 1.15-4.35 5.2q-4.85 5.15-7.5 5-3.05-3.85-3.7-12.35-1.3-17 10.8-40.4l-9.55.6q-9.9-.15-11.55-3.95-.15-1.65 1.35-4.25 3.05-5.2 11.5-9.9m85.65-61.85q4.8 10.35 3.35 21.15-1.55 11.3-7.1 18.35-3.7 4.65-7.9 6.35l-11.9 2.3q-13.25 2.05-19.95.7-6.65-1.35-13.25-4.8l-5.25-3.2q1.35-3.4 2.15-7.8 1.55-8.7-1.15-13.4-5.35-9.35-6.75-10.85-5-5.3-14.55-5.95l1.5-3.75q1.7-3.9 2.8-4.6l5.9-.3q6.75-1.1 10.8-5.05l2.05 2q2.7 2.4 6.05 4.3 10.65 6.05 23.55 4.9t20-4.95q3.55-1.9 4.5-3.55l1.65 2.15q1.95 2.8 3.5 6"/><path fill="#ef821e" d="M192.65 147.25q2.35 3.2 2.9 8 .65 6.1-1 9.9-1.6 3.6-4.35 3.6-2.65 0-4.7-3.35-2-3.2-2.35-7.4-1.1-12.35 4.3-13.4 2.75-.5 5.2 2.65m37.9-4.8q1.8-.6 3.8 1.85 2.15 2.65 2.95 7.15.95 5.05-.1 8.35-.9 2.9-2.7 3-2.15.1-4.1-2.7-2.05-2.9-2.5-7.1-.55-4.95.3-7.75.7-2.35 2.35-2.8"/><path fill="#fff" d="M188.4 146.7q1-.3 1.95 1.2.9 1.4 1.25 3.45.4 2.4.05 4.05-.35 1.6-1.3 1.8-.9.1-1.8-1.15-.95-1.4-1.35-3.8-.4-2.35-.05-3.9.35-1.4 1.25-1.65m43.25-2.1q.55-.15 1.25.65.85.95 1.25 2.75.45 1.9.15 3.3-.3 1.3-.95 1.45-.7.15-1.4-.75-.85-1.05-1.15-2.9-.35-2.1 0-3.3.25-1 .85-1.2"/><path fill="#fff1ad" d="M196.4 193.7q1.45-2.1 4.35-4.25 5.85-4.35 13.2-4.6 6.35-.2 11.1 3.2 2.3 1.7 3.25 3.15l4.25-2.45 1.65.35q1.95.5 3.6 1.4 5.2 2.85 4.9 8.45-.25 5.65-4.95 7.9l-3.25.95-1.45.15q-.5 4.2-3.25 8.35-5.45 8.35-16.5 8.2-3-.15-6.55-1.35-7.1-2.35-9.85-7.65l-1.8 2.7q-2.55 2.7-6.2 2.55-3.65-.1-5.95-2.55l-1.55-2.45q-1.35 1.2-3.8 2.1-4.9 1.7-10.2 0-6.25-2-10-5.75-3.65-3.6-3.85-7.6 4.85-.3 10.4-3.05 11.15-5.45 14.75-17.5l1.95.05q2.4.25 4.7.95 7.4 2.3 11.05 8.75"/><path fill="#007c36" d="M169.9 197.05q-11.6 10.05-25 8.3-7.25-.2-14.8-4.35-15.15-8.25-16.8-28.05-.1-6.15 2-14.3 4.2-16.25 15.25-26.2l6.25 1.8q7.3 1.1 12.35-2.5l3.2 3.75q4.25 3.9 9.6 4.35l-2.05 3.35q-2.05 3.65-2.25 5l3.3.25q3.95.6 7.35 2.5 10.95 6 12.35 22.4 1.15 13.45-10.75 23.7m71.55-61.95q1.8 3.75 2.6 4.35l2.8.8q3.35 1.25 6.2 3.3 9.1 6.65 9.4 19.3.35 13.65-7.7 22.2-6.6 6.9-14.2 7.2l-2.4-1.55q-2.95-1.65-5.6-1.95 2.3-1.5 4.8-5.35 5.1-7.6 6.3-19.15.15-4.35-.85-9.95-2-11.1-7.6-17.05l4.6-5.75z"/><path fill="#bf794e" d="m228.7 217.85 2.9 4.5q2.65 4.95 1.45 7.1-2.1 1-5.6 1.15-7.1.35-14.3-3.65l.15-2.45 6.35-.85q6.85-1.65 9.05-5.8"/><path fill="#965e3b" d="M155.45 277.45q-1.75-2.2-2.85-6.9-2.3-9.5.75-22.2 5.95 3.9 17.25 5.95 10.45 1.95 21.35 1.65 12.65-.3 20.15-5.85-1.7 7.9-5.3 12.75l-.6 8.5q-1 8.55-3.3 8.75t-7-6.85l-4.25-7.15-24.35 1.15-4.35 5.2q-4.85 5.15-7.5 5m62.35-53.5q1.85 1.15 6.1 2.75 5 1.95 9.15 2.75-1.55.95-4.8 1.1-6.55.35-15.1-3.6l-.45-2.6zm-76.25-2.75q5.8 1.9 13.9 2.05 7.55.1 12.6-1.3 2.35-.6 1.8.6-.5 1.15-2.4 1.65-4.55 1.3-12.9 1.35-11.45.05-13-4.35"/><path fill="#dcd096" d="M157.4 212.1q-3.65-3.6-3.85-7.6l2.55-.4q3.15-.6 6.15-1.9 2.4 4.95 10.3 7.35 8.35 2.55 13.4-1.6l1.2 2.6q1.85 2.45 5.15 1.9 3.15-.5 4.7-2.15 1.2-1.25 1.3-2.85l1 1.8q1.4 2.15 3.2 3.85 5.8 5.5 13.7 4.6 6.9-.7 11.9-6.25 3.75-4.15 4.45-7.85l3.75-.4q4.2-1.3 6.35-5.95l.05 1.7q-.25 5.65-4.95 7.9l-3.25.95-1.45.15q-.5 4.2-3.25 8.35-5.45 8.35-16.5 8.2-3-.15-6.55-1.35-7.1-2.35-9.85-7.65l-1.8 2.7q-2.55 2.7-6.2 2.55-3.65-.1-5.95-2.55l-1.55-2.45q-1.35 1.2-3.8 2.1-4.9 1.7-10.2 0-6.25-2-10-5.75"/><path fill="#00662b" d="m240.55 192.25-2.4-1.55q-2.95-1.65-5.6-1.95l2.7-2.55q3.15-3.6 5.25-8.8 5.25 1.05 11.05-.85 7.4-2.4 10.7-8.7-1.15 11.35-8.7 18.35-6.25 5.8-13 6.05m-61.9-6.75q-4.1 9.65-14.65 15.5-9.95 5.55-19.1 4.35-5.95-.15-12.7-3.25-13.5-6.2-17.5-21-2.15-6.15-1.2-15.35 1.95-18.35 17.55-33.4l2.5 1.25q-1.4 1.3-3.3 3.65-3.8 4.7-6.45 10-8.55 17-2.25 33.6 2.4 6.4 9 10.5 6.1 3.8 14.5 5 9.3 1.3 17.05-.85 9.1-2.55 16.55-10"/><path fill="#00662b" d="M139.25 164.85q.65 2.6 1.7 4.85 3.45 7.2 9.85 8.4l7.35.35 2.4-.6q-1.05 1.15-2.9 2.2-3.65 2.1-7.45 1.55-3.5-.7-6.65-3.45-6.35-5.45-4.75-15.45z"/><path fill="#dcd096" d="M152.6 90.65q-2.8-.75-8-1.05l-4.8-.15q-3.6-3.2-3.45-6.8l.85-2.95q.85 4.4 8.3 8.15 3.65 1.8 7.1 2.8m-23.45 40.55q-10-5.35-11.6-17.1l.95 1.9q1.25 2.35 2.95 4.35 5.55 6.4 13.5 7.25 5.85.65 9.3-.85 1.75-.75 2.3-1.65l2.65 7.25q-6 2.1-8.5 2.1-5.55 0-11.55-3.25m47.4-.25 2.1 3.55q-3.8 3.9-9.95 5.05l-5.4.4q-9.75-.95-13.65-7.8-1.2-2.15-1.7-4.65l-.25-2.05q.55 3 5 6.3 5.1 3.8 10.85 3.95 5.25.15 9.65-2.3 2.2-1.2 3.35-2.45"/><path fill="#dcd096" d="M211.95 145.95q-7.95.75-16.5-1.5-17.1-4.45-20.25-19.35l1.75 2.9q2.5 3.45 6 6.25 11.25 8.85 28.75 7.6 16.4-1.2 25.1-10.2 5.1-5.25 6.25-11.05.3 5.55-3.4 11.5-7.5 11.9-27.7 13.85"/><path fill="#dcd096" d="m242.7 119.85 1.35-.35q1.6-.6 3-1.6 4.45-3.15 4.9-9.3l.2 2.25q.15 2.7-.4 5.05-1.75 7.5-9.3 8.7zM211.55 83.6l3.9-5.35q3.8-6.25 3.25-10.55l1.55 3q1.35 3.7.3 6.9-7.35 4.1-9 6m34.65 4.25q1.65 2.25 1.55 7.3-.05 2.5-.45 4.55-1.15-2.05-6.7-3.75l-5.3-1.35q8.4.7 10.5-2.95 1.05-1.85.4-3.8"/><path fill="#923000" d="m200.55 189.4-1.7 1.5q-5.8-2.7-7.2-10.2-.4-2.3-.35-4.85l.15-2.1q6.5 1.2 23.25-1.4l15.45-2.85q.2 8.1-2.85 13.85-1.55 2.85-3.15 4.1-9.9-4.35-18.6-.9-2.7 1.1-5 2.85"/><path fill="#ed8599" d="m191.3 180.05 3.3-1.6q4.15-1.7 8.45-2.4 13.85-2.2 24.4 6.6-2.35 4.35-3.3 4.8-3.15-2.15-7.9-2.8-9.45-1.3-17.4 6.25-1.6-.65-3.35-2.35-3.5-3.35-4.2-8.5"/><path fill="#dcd096" d="M19.7 104.8q-1.55-4.5 1.1-8.7l.6 4.35q1.35 4.3 5.15 4.15l-1.45 1.05-3.3 2.8q-1.3-1.4-2.1-3.65m95.85-81.85q-9.3-2.05-15.45-2-1.65-1.95-2.8-4.45-2.3-5 .25-7.65l.25 1.5q.55 1.85 1.95 3.65 4.5 5.75 15.8 8.95m155.9 47.65q2.35 1.65 1.9 7.25-.2 2.8-.9 5.25-2.55-1.75-7.05-3.65l-4.05-1.6q5.05.55 8.1-3.3 1.5-1.9 2-3.95"/><path fill="#0f141b" d="M197 194.4q-.2.25-.9-.25-.65-.5-.45-.75 3.15-4.3 7.35-6.75 4.7-2.75 10.05-2.75 6.65-.05 11.4 2.95 5.2 3.25 6.9 9.6.25.9 0 .95-.25.1-.6-.7-2.65-6-7.25-8.6-4.05-2.3-10.45-2.35-4.95 0-9.2 2.45-3.95 2.2-6.85 6.2"/><path fill="#0f141b" d="M234.25 137.65q-.25-.25.45-.85.65-.55.85-.25 5.2 6.3 7.5 14.8 2.2 8.2 1.25 16.45-.9 8.4-4.85 14.65-4.2 6.7-11 9.45l-.55-.7q-.4-.7-.1-.85 6.05-2.7 9.9-9.2 3.6-6.1 4.55-14.1.9-8-1.05-15.65-2.1-8.05-6.95-13.75"/><path fill="#0f141b" d="m224.25 188-.4-.45q-.3-.55-.05-.7 2.4-1.45 4.3-7.85 1.85-6.1 1.3-9.45-.05-.35.8-.5.85-.1.9.25.55 3.45-1.4 9.65-2.15 6.9-5.45 9.05m-47.1-29.95q5.65 9.05 4.15 20.4-1.95 15.15-16 23.35-14.15 8.25-29.5 2.9-13.2-4.6-19.35-15.15-6.4-11.1-3.5-26.35 1.95-10.2 6.65-18.55 4.55-8.05 10.65-12.7.3-.2.95.3t.4.75q-5.65 4.3-9.9 12.3-4.3 8.1-6.2 18.25-2.5 13.05 2.1 22.8 5.15 11 18.8 16.35 4.8 1.85 11.15 1.75 6.95-.15 13.15-2.65 15.6-6.3 18.35-23.6 1.65-10.45-4.15-19.5-6.05-9.4-15.9-9.75-6.3-.35-12 3.7-6.5 4.65-7.15 12.4-.55 5.95 2.9 10.6 3.5 4.75 8.75 4.8l4.6-.5q1.8-.5 3.4-1.8 1.35-1 1.55-.75.2.3-.95 1.5-1.7 1.7-3.6 2.45-2.1.8-5 .75-6.2 0-10.4-5.25-4.1-5.2-3.5-11.95.7-8.05 7.5-13.15 6.3-4.75 14-4.4 11.8.55 18.05 10.7m51 60.35q-.25-.25.5-.9.75-.6 1-.35 2.85 3.45 3.85 8 .85 3.75.2 4.7-1.15 1.65-8.55 1.35-8.15-.3-12-3.95-.25-.25-.15-.9.1-.6.35-.4 3.1 2.65 10.55 3.65 7.2 1 8.7-.65.55-.6-.85-4.3-1.5-4.05-3.6-6.25"/><path fill="#0f141b" d="M147.95 225.75q-6.7-1.35-7.35-4.35-.65-3.05 3.4-7.7 4.15-4.8 10.1-7.3.3-.15.7.6.4.7.1.9-5.9 3.05-9.65 7.35-3.45 3.95-2.95 6 .4 1.65 6.5 2.85 7.85 1.5 18.35-.45l1.75.1q.05.45-1.6.85-11.25 2.75-19.35 1.15m44.1-78.05q-1.85-2.9-4.15-2.7-2.4.25-3.5 3.55-1.15 3.4-.55 8.85.55 4.7 2.55 7.9 2.05 3.2 4.3 2.85 2.4-.35 3.45-3.9t.35-8.8q-.6-4.85-2.45-7.75m-8.9-.05q1.6-3.6 4.6-3.95 2.8-.25 5.1 2.7 2.5 3.2 3.25 8.85.7 5.4-.7 9.55-1.5 4.2-4.35 4.55-3.15.4-5.55-2.5-2.5-3.05-3.25-8.65-.85-6.5.9-10.55m51.25-2.15q-1.55-2.55-3.35-2.4-1.6.1-2.3 2.9-.75 2.95-.15 7.55.4 3.25 2.2 6 1.85 2.95 3.65 2.5 1.65-.4 2.25-3 .65-2.9-.15-7.55-.65-3.65-2.15-6m-6.85-.2q1-3 3.2-3.4 2-.3 4.05 2.1 2.15 2.6 3.15 7.05 1.05 4.5.1 8.15-.95 3.6-3.25 4.15-2.2.55-4.5-2-2.5-2.8-3.15-7.25-.8-5.45.4-8.8m-35.7 35.25q-.3.2-.65-.4-.4-.55-.05-.75 7.4-4.55 17.9-4.15 11.55.4 18.85 6.95.25.2-.3.6t-.7.25q-5.85-5.3-16.3-6.25-10.95-1-18.75 3.75m49.35-83.8q-4.85-2-10.6-1.45-1.75.15-1.75-.25 0-.35 1.7-.75 5.85-1.25 11.1.7 5.3 1.95 8.55 6.5 4.85 6.7 2.45 15-2.5 8.55-10.45 9.05-.35.05-.35-.8t.35-.9q6.3-.45 8.2-8.25 1.8-7.5-1.95-13.1-2.55-3.85-7.25-5.75M217.75 68.1q-3.8-.95-7.55 2.1-4.4 3.55-4.85 10.4-.1 1.6-.5 1.55t-.5-1.65q-.45-7.65 4.6-11.85 4.45-3.7 9.2-2.5 2.35.7 3.2 4.3.8 3.2.05 7l-1 .45q-.9.2-.85-.15.85-3.35.15-6.5-.65-3-1.95-3.15m-55.2 36.8 2.35-.05q.1.4-2.15 1-7.85 2.05-11.8 8.4-3.5 5.7-2.5 12.1.85 5.7 5.2 9.15 4.5 3.5 11.2 3.5 8.8 0 13.25-5.4.25-.25.9.25.65.55.4.8-2.75 3.45-7.35 5.15-3.6 1.3-7.2 1.3-7.9.05-13.3-4.85-4.5-4.15-5.35-9.6-1.05-6.9 2.95-13 4.5-6.9 13.4-8.75m.65-19.8q1.6 1.55 1.4 1.95-.2.35-1.9-1.05-8.05-6.7-15.05-8.4-6.75-1.65-9.8 1.9-1.25 1.3-.2 4.6 1.05 3.35 3.4 4.7.3.15-.55.65l-1.05.35q-2.95-2.15-4-6-1-3.7.55-5.55 3.55-4.15 10.95-2.65 8.05 1.65 16.25 9.5m77.55 44.5q-.05 2.6 1.65 5.8 1.55 2.8 3 3.85l-1 .2-1.45-.25q-1.45-1.6-2.45-4.05-1-2.55-1.05-4.75 0-.35.65-.75zm-9.15 58.8q4.65-.6 8.25 2.15 3.7 2.9 3.7 7.7t-3.25 7.9q-3.2 3.05-7.35 2.4-.35-.05-.3-.6t.4-.55q3.8.2 6.3-2.95 2.25-2.75 2.2-6.2 0-3.6-2.8-6.1-2.85-2.5-6.9-2.35l-.3-.7q-.25-.65.05-.7m-34.15 9.3q-2.7-7.25-8.3-10.45-4.75-2.7-10.6-2.05-.35.05-.45-.8t.25-.9q6.4-.7 11.75 2.45 6.25 3.7 8.1 11.4.35 1.3 0 1.45-.3.15-.75-1.1m.55 15.4q-.45 4.7-3.5 6.85-2.55 1.8-6.4 1.6-2.6-.25-4.75-1.85-2.15-1.65-2.8-3.9-.05-.35.75-.55.85-.2.9.15.4 1.55 2.2 2.95 1.85 1.4 3.8 1.5 6.75.35 8.8-6.85.5-1.9.85-1.85t.15 1.95m14.05 32.65q1.4-10.4.05-21.25-.05-.35.8-.45t.9.25q3.25 26.55-6.3 38.8.5 6.7-.85 11.9-1.35 5-3.5 5.6-1.95.5-6.4-4.7-4.3-5.05-5.65-9.05-.1-.35.7-.6l.9.05q1.1 3.45 5.25 8.3 3.95 4.6 5.05 4.25 1.15-.35 2.3-4.95 1.3-5.3.8-10.95-.05-.3.2-.65 4.25-5.05 5.75-16.55"/><path fill="#0f141b" d="M156.75 234.95q2.65-6.55 5.2-10.15.15-.15 1.05 0 .95.2.75.45-2.35 2.95-5 9.7-2.5 6.4-4.6 14.55-2.05 7.9-1.1 17.6.85 8.8 2.6 9.4 1.05.4 4.45-2.5 3.55-3.1 6.7-7.3 1.6-2.1 2-1.85t-1 2.5q-2.25 3.75-5.75 7.15-4.05 3.85-6.45 3.7-3.05-.1-4.45-9.9-1.45-10.1.9-19.2 2-7.65 4.7-14.15m134-54.85q6.1 5.5 3.7 13-2.45 7.65-11.15 7.2l-.2-.55q-.15-.55.1-.55 7.5-.05 9.35-7.25 1.75-6.8-2.6-10.7-.3-.2.1-.75.4-.6.7-.4M258.8 63.15q8.85-.4 13.25 5.85 4.3 6.1 1.35 13.75l-.9-.05q-.8-.3-.7-.6 2.25-5.85-1.85-11.65-4.25-5.95-11.05-5.6-.35 0-.4-.85t.3-.85m-124-46.25q1.5 1.3 1.2 1.8-.35.45-1.95-.75-9.6-7.15-17.6-10-7.25-2.6-12.55-1.5-4.95 1-6 5.25-1.1 4.5 3.65 8.85.25.25-.85.35l-1.4-.25q-5.15-5.9-3.5-10.8 1.5-4.5 7.4-5.75 6.25-1.35 14.05 1.65 8.45 3.2 17.55 11.15M18.85 97.8q2.15-6.1 8.35-6.6.7 1.35.25 1.4-4.3.2-6.45 5.75-2.2 5.6.95 9.6.2.25-.4.7l-.75.25q-4.05-5-1.95-11.1M45.5 229.6q.3-.2.7.55t.1.95q-3.35 1.75-7.5 2.5l-7.7.4q-9.25-.9-10.5-10-1.35-9.35 7.3-18.6.25-.25.85.3.65.6.4.85-7.05 7.5-5.95 15.95 1.1 8.35 8.85 9.3 7.5.9 13.45-2.2m153.7-39.05q.45.2-.45.95-4.9-2.4-6.95-7.55-1.6-4.05-1.35-8.95.2-2.15 1.45-1.95l19.9-.9q13.75-1.65 19.4-3.55l1.65-.1q.15.4-1.3.95-5.85 2.3-19.1 3.95-13.05 1.65-20.25 1.1-.45 0-.45.35-.3 4.75 1.35 8.8 1.95 4.85 6.1 6.9m23.85-93.75q-1.5-.8-1.3-1.2.25-.4 1.8.3 8.9 3.85 14.45 10.75 5.85 7.25 5.9 15.5 0 7.1-5.85 13.65-7.15 7.95-19.75 10.15-17.3 3.05-30.75-3.55-13.3-6.5-13.7-17.8-.2-5.95 2.05-10.95 2.1-4.7 5.8-7.5 2.15-1.6 2.5-1.35.3.3-1.7 2.1-3.15 2.75-4.75 7.85-1.55 4.7-1.35 9.8.4 10.65 13.45 16.65 12.8 5.85 28.25 3.05 11.8-2.15 18.2-9.65 5.15-5.95 5.15-12.45.05-7.6-5.05-14.35-4.8-6.4-13.35-11m5.45-19.45q-4.8-.25-9.6 1.95-5.1 2.35-8.3 6.7-1.1 1.45-1.35 1.2-.3-.3.65-1.9 2.9-4.95 7.95-7.55 4.8-2.55 10.6-2.5 11.45.1 17.1 8.1 5.35 7.55 2.4 16.9l-.8.05q-.75-.2-.65-.55 2.4-7.65-2.75-14.65-5.4-7.35-15.25-7.75M129.15 91.2q9.55-4.6 22.5-1.15 2.65.7 2.55 1.1l-2.9-.15q-12-2.4-20.65 1.9-8.8 4.45-11.35 14.5-1.7 7 .6 12.95 2.1 5.45 7.05 8.95 4.75 3.35 10.6 3.85 6.05.55 11.25-2.15.3-.15.8.55.5.65.2.85-5.5 3.2-12.25 2.85-6.55-.35-11.95-3.85-5.7-3.65-8.1-9.65-2.7-6.65-.7-14.75 2.7-11.2 12.35-15.8m33.1 48.65q.9.3.65.55-2.85 2.4-4.3 7.85l-1.2.2q-1.1-.05-1-.4.6-2.25 1.9-4.55 1.3-2.25 2.85-3.8zm74.95.25q-.35.1-.5-.6-.2-.65.15-.75 10.2-2.05 18.15 5.1 8.5 7.6 8.5 21.15-.05 10.2-7.1 18.9-7.2 8.95-16 9l-.45-.55q-.3-.6 0-.6 7.55.25 14.45-8.2 7-8.6 7-18.55 0-12.55-7.65-19.85-7.25-6.9-16.55-5.05m-3.9 66.8q.55 7.4-5.1 12.85-5.7 5.5-13.95 5.5-6.9-.05-12.3-3.5-4.5-2.9-5.6-6.2-.05-.35.5-1.15t.6-.45q.9 3.2 5.15 6.1 5.1 3.55 11.65 3.5 7.5 0 12.9-5.05 5.3-4.95 5.3-11.6 0-2 .35-2 .4 0 .5 2m-76.95 5.45q-3.5-3.9-3.55-7.75 0-.35 1.05-.35t1.05.35q-.05 3.1 2.95 6.55 3.1 3.6 7.65 5.25 4.65 1.75 9.45.95 5.2-.85 8.2-4.4 1-1.2 1.35-1 .3.2-.55 1.55-2.95 4.8-8.95 5.75-4.95.8-10.1-1.1-5.1-1.95-8.55-5.8"/><path fill="#0f141b" d="m193.15 265.2 2.25.1q.05.45-2.1 1-4.35 1.15-13.05 1.75-8.45.65-13.5.25-.35-.05.1-1.15.45-1.15.8-1.1 4.85.35 13.05.05zm88.5-69.35q-.4-1.9.1-2t1 1.8q3.95 15-.85 29.3-4.55 13.5-15.75 23.35t-25.95 13.3q-15.6 3.7-31.45-.85-.35-.1-.15-.7.2-.55.55-.5 14.9 3.7 29.75 0Q253.05 256 264 246.6q10.95-9.45 15.75-22.4 5.1-13.7 1.9-28.35M270.15 82.2q-1.85-.8-1.7-1.2.2-.4 2.1.25 14 4.9 23.7 18.25 9.4 12.85 12 29.6 2.3 14.5-2.05 28.7-4.4 14.55-14.4 24.15-1.25 1.2-1.7.9-.4-.25.85-1.6 9.7-10.7 13.4-25.2 3.35-13.15 1.25-26.7-2.45-15.65-11.15-28.2-9.05-13.05-22.3-18.95m-10.3-15.75q.4 2.7-.1 2.85-.45.15-1.1-2.5-5.3-21.5-18.85-36.85-12.35-14-30-21.15-17.9-7.25-37.5-5.95-22.05 1.45-38.4 13.7-.25.25-.8-.45-.5-.7-.2-.9Q149.8 1.8 173 .2q19.95-1.4 37.85 5.9 18.45 7.45 31.3 22.2 14.5 16.55 17.7 38.15m-146.3-44.6q2.7.7 2.6 1.25l-2.85-.05q-16.25-3.5-32 .45Q62.45 28.25 48 42.95q-13 13.2-17.95 28.9-4.6 14.5-.55 24.25.65 1.5.2 1.7-.4.15-1.2-1.2-5.3-9.1-1.05-24.4Q32.1 55.45 46.2 41.05q13.9-14.15 31.45-19.1 17.35-4.85 35.9-.1M6.15 126.5q6.4-13.1 17.8-20.85 2.55-1.75 2.95-1.25t-2.05 2.35q-10.7 8-16.55 20.6-5.75 12.2-5.75 26.15 0 15.1 7 28.8 7.65 15 22.05 24.7 2.8 1.9 2.6 2.35-.25.4-3.25-1.2-15.2-8.25-23.55-24.4Q0 169.4 0 153.5q0-14.35 6.15-27M118.4 280.25q-17.7.7-33.75-6.05Q69 267.6 58.3 255.1q-11.1-12.95-13.7-28.6-.4-2.45.1-2.6t1 2.25q3.15 15.3 13.95 27.5 10.45 11.8 25.8 18.25 15.9 6.7 33.4 5.95 17.15-.8 33.05-8.65.3-.15.7.95.35 1.05.05 1.2-16.45 8.15-34.25 8.9"/></svg>