<svg xmlns="http://www.w3.org/2000/svg" width="243" height="301" viewBox="-0.1 -0.3 243.45 300.95"><path fill="#e3c583" d="M128.8 16.7q7.05 7.95 11.5 17.65 4.75 10.25 5.4 20.1.65 9.55-7.8 12.75-5.7 2.15-22.25 2.65h-.15q-5.05.15-11.6 3.15-6.1 2.8-21.75 14.75Q68.1 98.4 62.25 99.9q-8.6 2.2-14.15-.85-5.85-3.25-2-9.65-.5 2.85 3.35 4.25 3.4 1.25 7.85.75 4.7-.55 7.35-2.9 6.9-6.05 29.85-22.9l23.4-17.1-11.75.3-13.15.5q-4.05.5-21.75 6.95-17.05 6.2-19.15 7.6-5.4 3.6-13.25 2.65-7.4-.9-9.95-4.5-7.5 2.05-12-.3-5-2.65-4.95-10.5.1-7.15 6.4-10 6.2-2.8 13.25.6 5.6-.6 17.65-3.55 7.9.3 14.3 5.3 4.05 3.1 6 6.5.85 1.5 5.6-.45 4.75-1.9 4.9-3.7.4-4.4-5.6-8.05-5.8-3.45-13.4-3.9 3.95-1.8 5.8-3.45 2.95-2.5 9.6-1.45 6.9 1.1 9 4.85 3.1 5.55 3.95 6.55 3.35 3.95 8.4 3.95t9.4-7.45q4.4-7.5 4.3-16.2-9.6 1.1-27.15-.25.25-8.2 3.7-14.15 4-6.95 10.7-7.95Q105.8.35 114 4.7q7.75 4.1 14.8 12"/><path fill="#fff" d="M135 166.8q.55-1.1 2-2.5 1.5-1.5 2.85-2.1 5.15 10.5 4.85 10.7-.45.25-4.2-1.3l-4.8-2.25z"/><path fill="#e3c583" d="M124.3 139.7q1 3.25 5.15 5.3 4.15 2 8 1.05l-4.05 7.3 3.1 3.95 3.35 4.9q-1.1.5-3.15 2.4l-1.85 1.6q-2.25-.05-5.2 1.7-2.7 1.6-3.1 2.75-1.25-2.7-5.35-3.65-4.05-.9-5.75.85-.7-9.55-.2-12.4.1-.6 3.25-5.8z"/><path fill="#525557" d="m117.25 96.7-.4-2.85 11.35 2.9q8.3 2.3 8.45 2.95.1.4-3.45 5.7l-5.1 7.15-1.4-1.55q-1.9-5.1-3.35-7.8-2.55-4.95-6.1-6.5m27.8 42.6q.2.45-4 7.9l-5.2 8.95-2.45-2.8 4.25-7.5 4.3-7.3q2.9.35 3.1.75"/><path fill="#fff" d="M15.65 63.55q3.95 3.05 10.9 1.95l-2.7 4.65q-1.9 3.1-2.25 3.1-.3 0-2.6-3.85z"/><path fill="#e3c583" d="M101.6 95.25q.9-12.85 2.3-22.25 6.55-3 11.6-3.15-.7 7.25 1.2 22.7-5.7 1.95-15.1 2.7M54.35 25.2q-.4 8.3 2.95 13.35l-5.5 1.9-4.15 1.25q.2-3.25 2.35-8.45 2.05-4.95 4.35-8.05M81 3.05q3.55 2 7.05 6.3-3.45 5.95-3.7 14.15l-17.5-1.95q-8.3-1.3-11.6-2.6 1.7-7.4 5.65-12.35 4.35-5.5 9.9-5.8Q76.4.4 81 3.05"/><path fill="#fff" d="M40.2 79.3q-.55 0-2.4-4.15-1.8-4.05-2.3-6.2 6.1 1.7 12.05-.05l-4 6.1q-2.85 4.3-3.35 4.3"/><path fill="#525557" d="M153.9 153.55q.4.05 2.35 10.4 1.85 10 2.35 14.25l-7.05-1.6q-3.65-4.95-8.75-8.9l-1.95-3.8 7.35-6.1q5.3-4.3 5.7-4.25m-37.2-61 .55 4.15q-2.2-.9-4.7-.75-5.9.4-7.8 9.1-1.9 8.75 2.85 14.35-9.75 1.75-24.9 1.15-14.4-.6-20.7-2.6 5.6-14.35 7.65-21.3L73 94.5q9.6 1.7 22.2 1.3 13.5-.5 21.5-3.25"/><path fill="#525557" d="m151.55 176.6 7.25 1.6q7.9 10.6 5.8 25.8-1.95 14.4-10.9 22.8 6.2-12.9 5.9-25.85-.3-13.8-8.05-24.35"/><path fill="#e3c583" d="M238.65 133.95q-2.1-2.05-5.7-1.65-3.6.35-5.3 2.65.8-9.15-2.05-19.25-.8-2.75.3-3.5 1.1-.8 3.25 1.6 2.95 3.35 5.35 8.3 2.7 5.5 4.15 11.85"/><path fill="#525557" d="M233.05 146.1q-5.3-1.1-8.6 1.75 2.55-6.15 3.2-12.9 1.7-2.3 5.3-2.65 3.6-.4 5.7 1.65 2 8.75 1.5 17.55-1.65-4.3-7.1-5.4"/><path fill="#fff" d="M115.45 167.85q1.7-1.75 5.45-1.1 3.85.65 5.05 3.2l-4.35 6.85q-3.15 4.55-3.95 4.3-1.2-.35-2.2-13.25"/><path fill="#e3c583" d="m126.7 111 3.7 3.45 5.9 5.2q-4.3-.15-7.65 3.1-3.3 3.2-3.2 7.15l-2.95-2.75 2.4 10.5q-10.2 5.15-23.7 7.4-.8-11.8-.65-24.8l7.05-.85q-4.75-5.6-2.85-14.4 1.9-8.7 7.8-9.05 5.75-.3 9.8 5.85z"/><path fill="#fff" d="M134.85 166.2q2.85 11.35 2.5 11.65-.4.3-11.8-5.4 1.3-2.35 4.05-4.25 2.95-2.05 5.25-2"/><path fill="#525557" d="M108.6 195.45q8.1-4.1 23-2.2 14.35 1.85 16.45 6.3.4.95-.15 9.55-.6 8.85-1.65 8.5-7.45-2.45-18.9-3.4-13.2-1.1-18.2 1.5-1.65-9.85-.55-20.25M61.05 36.95q7.6.45 13.4 3.9 6 3.65 5.6 8.05-.15 1.8-4.9 3.7-4.75 1.95-5.6.45-1.95-3.4-6-6.5-6.4-5-14.3-5.3 4.05-1.1 8.05-2.7zM109 242.7q-8.85.8-15.65.2-13.05-3.05-21.7-8.25-8.15-4.95-15.45-13.7 9.25 5.95 25.75 6.05 17.2.05 28.15-6.65 2.45 9.6 7.25 14.55 1.95 2 7.45 5.2-6.75 1.85-15.8 2.6"/><path fill="#f09cb4" d="M101.6 95.25q-7.75.65-16.4.3L73 94.5l14.8-11.2q9.6-7.2 16.1-10.3-1.4 9.4-2.3 22.25M72.85 146.5q-13.2-.8-19.95-3.75l9.1-24.8q5.65 1.8 17.9 2.4 11.05.55 20.65-.1-.15 13 .65 24.8-13.95 2.35-28.35 1.45m-28.5 49.65q-1.85-12.2 2.5-32 8.15 5.5 25.6 6.7 16.75 1.2 31.8-2.15 2.4 11.2 6.2 17.1-4.75 17.05-.35 34.55-10.95 6.7-28.15 6.65-16.5-.1-25.75-6.05-9.85-11.9-11.85-24.8m80.45 43.95q5.65 3.35 8 4.95-22.25 1.85-39.45-2.15 6.8.6 15.65-.2 9.05-.75 15.8-2.6"/><path fill="#525557" d="M137.05 248.35q6.3.9 13.6-.1 8.45-1.15 10.45-4.3l6.95 9.65q-3.7 3.95-13 5.25-9.65 1.35-14.1-2.1.85-4.05-3.9-8.4M53.1 245.4q7.6-1.4 10.25-4.65 3.55 3.7 6.7 8.5-4.3 4.35-15.9 5.25-11.55.85-14.6-2.8 3.15-2.35 3.75-4.05l-3.05-2.35q5.6 1.4 12.85.1"/><path fill="#e3c583" d="M172.85 179.05q6.75 2.15 11.55 7.7 4.75 5.55 6.3 12.85 3.5 17.05-11.15 31.05-11 6.5-21 9.8-6.85-9.75-6.05-11.2l1.2-2.45q8.95-8.4 10.9-22.8 2.1-15.2-5.8-25.8z"/><path fill="#525557" d="M184.4 186.75q-4.8-5.55-11.55-7.7 11.45-.55 21.6-4.35 10.75 1.95 14.9 12.65 4.45 11.55-3.7 23.9-12.6 11.45-26.1 19.4 14.65-14 11.15-31.05-1.55-7.3-6.3-12.85"/><path fill="#e3c583" d="M224.45 147.85q3.3-2.85 8.6-1.75 5.45 1.1 7.1 5.4-.55 9.15-3.65 17.85l-1.3 3.35q.85-7-3.9-11.35-4.75-4.45-12.65-3.7 3.55-4.5 5.8-9.8m-19.1 21.5q9.2-.95 15.3 6.1 6.35 7.35 2.65 16.8-7.6 9.8-17.65 19 8.15-12.35 3.7-23.9-4.15-10.7-14.9-12.65 5.75-2.15 10.9-5.35"/><path fill="#525557" d="M218.65 157.65q7.9-.75 12.65 3.7 4.75 4.35 3.9 11.35-4 9.3-11.9 19.55 3.7-9.45-2.65-16.8-6.1-7.05-15.3-6.1 7.9-4.9 13.3-11.7m-171.8 6.5q3.8-14.7 6.05-21.4 11.55 5 33.85 3.75 23.35-1.35 38.15-8.85l-4.75 8.6q-4.8 8.6-4.9 9.2-.4 2.15.05 9.8-14 5.8-33.75 6.35-22.75.65-34.7-7.45"/><path fill="#e3c583" d="M108.6 195.45q.65-5.35 1.85-9.65-3.8-5.9-6.2-17.1 5.7-1.3 11.05-3.45 1.5 15.6 2.35 15.85.5.15 2.9-3.05l4.15-6.05q12.2 6.2 12.65 5.85.5-.4-1.65-8.5l4.8 2.25q3.75 1.55 4.2 1.3.45-.3-1.9-5.2 15.2 11.75 17 29.3 1.6 15.5-7.3 32.25-.4.8 3.1 6.45l5.5 8.25q-2 3.15-10.45 4.3-7.3 1-13.6.1l-9.7-6.55-10-6.9q-3.95-4.1-6-9.85-1.15-3.3-2.2-9.35 5-2.6 18.2-1.5 11.45.95 18.9 3.4 1.05.35 1.65-8.5.55-8.6.15-9.55-2.1-4.45-16.45-6.3-14.9-1.9-23 2.2"/><path fill="#fff" d="M19.6 265q1.35-.2 2.5 1.4 1.2 1.6 1.4 4.1-2.05 1.55-4.35 3.85l-8.05.7-6.15-.2q-.6-.95 5.55-5.15 6.25-4.3 9.1-4.7"/><path fill="#e3c583" d="M65.35 98.7q2.95-1.2 4.3-2.05-1.85 6.2-9.55 26.35l-3.65.6-4.55 3.1q-4-.65-6.2-4.05-2.2-3.45-.7-7.25 12.65-7.3 13.15-8.25 2.95-5.5 4.1-7.25.55-.1 3.1-1.2"/><path fill="#ed8599" d="m107.2 56.7 2.5.95-24.1 17.5Q71.5 85.45 64.65 91.5 62 93.85 57.3 94.4q-4.45.5-7.85-.75-2.15-5.25 1.75-12.7 3.8-7.2 11.7-13.65 8.3-6.8 18.05-10.05 10.9-3.65 21-1.9 2.2 4.25 2.95 4.4.55.05 2.3-3.05"/><path fill="#fff" d="m65.6 60.15.15 4.75-1.35 1-3.5-3.8zm34.75-8.3 9.4-.15-2.4 4.4-2.45 3.65q-.35-.05-2.4-3.7z"/><path fill="#e3c583" d="M49.2 85.15q-1.25 4.8.25 8.5-3.85-1.4-3.35-4.25.4-2 3.1-4.25m98 199.35q-16.3-2.25-16.95-6.25-.5-3.05 3.2-8.45 5.5-8.2 7-11.5l.5-1.55q4.45 3.45 14.1 2.1 9.3-1.3 13-5.25 5.6 7.8 8.5 12.75 3.75 6.45 4 9.65.35 4.9-3.45 7.15-2.4 1.35-8.6 2.35-6.65 1.05-21.3-1M41.8 216.1l2.15-4.85q1.95-4.8 2.7-7.35 2.8 8.95 7.1 14.85 5.45 7.4 16.1 14.35-9.5 2-10.7 3.8 1.8 1.4 4.2 3.85Q60.7 244 53.1 245.4q-7.25 1.3-12.85-.1-15.4-12.3-19.6-18.95-4.25-6.6-2.65-15.95 4.15.3 14.3 3.25 9.1 2.65 9.5 2.45m-14.45 42.35q7.9-3.6 12.2-6.75 3.05 3.65 14.6 2.8 11.6-.9 15.9-5.25 2.6 4.05 4 7.55 1.4 3.55 1.1 5.45-.35 2.5-17.1 8.2-16.65 5.65-26 6.55.7-1.6-.7-5.3-1.55-4-3.8-3.55-1.35.35-4.05 2.35-.2-2.5-1.4-4.1-1.15-1.6-2.5-1.4l-1.6.4q0-2.6-1.4-2.75 4.05-1.15 10.75-4.2m7.9-65.35q-6.2-1.9-9.25-2.25 2.85-4.8 8.45-12.45 6.7-9.15 11.3-13.9-1.45 5.05-1.7 14.8-.3 10.1.95 17.6-3.1-1.75-9.75-3.8"/><path fill="#fff" d="M41.6 162.45q1.65 1.65 3.65 2.75l-5 5.8q-.1-2 1.35-8.55"/><path fill="#525557" d="M26 190.85q3.05.35 9.25 2.25 6.65 2.05 9.75 3.8.6 3.65 1.65 7-.75 2.55-2.7 7.35l-2.15 4.85q-.4.2-9.5-2.45-10.15-2.95-14.3-3.25 1.4-8.45 8-19.55m102.65-68.1q3.35-3.25 7.65-3.1l7.1 6.1q1.9 1.85 2.05 4.5.1 2.35-1.15 4.55l-6.85 11.25q-3.85.95-8-1.05-4.15-2.05-5.15-5.3l1.75-3.2 1.85-3.95-2.45-2.65q-.1-3.95 3.2-7.15M45 115.4q-1.5 3.8.7 7.25 2.2 3.4 6.2 4.05l-4.85 3.45q.55 1.5 2.85 5.8-4.8.15-7.85 2.15-3.45 2.3-3.8 6.45L32.1 132.8q-.85-3.4.35-7 1.15-3.5 3.55-5.05 2.45-1.55 9-5.35"/><path fill="#e3c583" d="m49.9 135.95 3.35 5.7L50.7 150q-2.7 8.9-3.65 13.1l-1.8 2.1q-2-1.1-3.65-2.75l1.9-7.55-5.25-10.35q.35-4.15 3.8-6.45 3.05-2 7.85-2.15"/><path fill="#fff" d="M16.4 262.65q.8 0 1.25 1.15l.35 1.6q-3.6 1.15-8.35 4.6l-4.8-.05q-3.4-.1-3.95-.6-1-.9 5.15-3.75 6.35-2.95 10.35-2.95m11.15 5.5q2.6-.5 3.95 4.15 1.25 4.5.3 5-1.7.85-8.75 2.55-7.6 1.85-9 1.3-.75-.35 4.75-6.25 5.7-6.1 8.75-6.75"/><path fill="#525557" d="M195.2 174.9q-2.65 1.4-11.3 2.9l-11.45 1.55q.7-2.8 4.15-11.3 3.55-8.7 4.15-8.75 1.25.15 7.35 7.05zm23.8-16.35q-.3 1.85-3.85 5.65-4 4.25-7.1 4.75l.1-9.15q.15-9 .45-9.55.9.2 4.6 3.05 4.05 3.1 5.8 5.25m9.9-24q.85 1.05 0 6-.85 4.85-1.95 5.65-2.75-2.4-5.7-6.05-2.7-3.35-2.55-3.8.2-.6 4.7-1.2z"/><path fill="#fff" d="M137.65 272q2.1-.3 3.2 4.75 1.05 4.7.3 6.1-.75 1.3-7.2 5.6-6.85 4.6-8.85 4.35-.7-.1.1-3.2.9-3.15 2.7-6.9 4.85-10.05 9.75-10.7m15.4 1.25q1.85-.45 4.45 4.4 2.7 5.1 1.35 8.7-.45 1.2-4.4 6.35-4.2 5.4-5.65 6.3-.95.55-2.15-3-1.2-3.7-1.35-8.2-.4-12.6 7.75-14.55m16.65-.2q1.8-.25 4.65 3.45 2.9 3.8 3.35 7.3.4 3.4-2.2 8.95-2.4 5.15-3.35 5.15-1.05 0-4.4-5.35t-3.55-7.25q-.45-3.9 1.4-7.95 1.85-4 4.1-4.3"/><g transform="translate(54.3 18.95)"><path fill="#0f141b" d="M57.2 4.8q.1 8.7-4.3 16.2-4.35 7.45-9.4 7.45t-8.4-3.95q-.85-1-3.95-6.55-2.1-3.75-9-4.85-6.65-1.05-9.6 1.45Q10.7 16.2 6.75 18L3 19.6Q-.35 14.55.05 6.25.2 3.05.95 0q3.3 1.3 11.6 2.6l17.5 1.95Q47.6 5.9 57.2 4.8"/><mask id="a"><path fill="#fff" d="M57.2 4.8q.1 8.7-4.3 16.2-4.35 7.45-9.4 7.45t-8.4-3.95q-.85-1-3.95-6.55-2.1-3.75-9-4.85-6.65-1.05-9.6 1.45Q10.7 16.2 6.75 18L3 19.6Q-.35 14.55.05 6.25.2 3.05.95 0q3.3 1.3 11.6 2.6l17.5 1.95Q47.6 5.9 57.2 4.8"/></mask><g mask="url(#a)"><path fill="#525557" d="M43.75 11.25q0-2.45.8-4.1T46.5 5.5t1.95 1.65.8 4.1-.8 4.1q-.8 1.7-1.95 1.7t-1.95-1.7q-.8-1.65-.8-4.1"/><path fill="#fff" d="M45.05 8.7q0-.95.4-1.65.4-.65.95-.65.6 0 1 .65t.4 1.65q0 .95-.4 1.6t-1 .65q-.55 0-.95-.65t-.4-1.6"/><path fill="#525557" d="M11.15 8.1q0-2.15.65-3.6.65-1.5 1.6-1.5t1.65 1.5q.65 1.45.65 3.6t-.65 3.6q-.7 1.5-1.65 1.5t-1.6-1.5q-.65-1.45-.65-3.6"/><path fill="#fff" d="M12.25 6q0-.85.35-1.45.3-.6.75-.6t.8.6l.3 1.45-.3 1.45q-.35.6-.8.6t-.75-.6q-.35-.6-.35-1.45"/></g></g><path fill="#dbdcdc" d="M25.45 67.45q-4.2-.65-6.95 1.05l-2.85-4.95q3.95 3.05 10.9 1.95z"/><path fill="#bfa66f" d="M115.35 74.75Q109.5 83.65 102 90.2q.65-8.65 1.9-17.2 6.55-3 11.6-3.15-.2 2.1-.15 4.9m-5.65-17.1-2.5-.95 2.55-5 8.15-.2z"/><path fill="#dbdcdc" d="M37.1 73.5q-1.2-2.9-1.6-4.55 6.1 1.7 12.05-.05l-2.05 3.15q-3.85.25-8.4 1.45"/><path fill="#38383a" d="M69.65 96.65 73 94.5q9.05 1.6 21.5 1.3-13.25 8.3-26.45 5.9zM153.7 226.8q2.55-5.2 4.1-11.05l3.9-.95q-3 7.3-8 12M109 242.7q-8.85.8-15.65.2-13.05-3.05-21.7-8.25-8.15-4.95-15.45-13.7 9.25 5.95 25.75 6.05 17.2.05 28.15-6.65 2.45 9.6 7.25 14.55 1.95 2 7.45 5.2-6.75 1.85-15.8 2.6"/><path fill="#d0879d" d="M87.8 83.3q9.6-7.2 16.1-10.3-1.25 8.55-1.9 17.2-3.45 3-7.2 5.4-6.3.2-12.6-.15L73 94.5zm21.5 133.5.8 3.55q-10.95 6.7-28.15 6.65-16.5-.1-25.75-6.05-7-8.45-9.95-17 6.3 10 27 12.9 15.95 2.2 36.05-.05m15.5 23.3q5.65 3.35 8 4.95-22.25 1.85-39.45-2.15 6.8.6 15.65-.2 9.05-.75 15.8-2.6"/><path fill="#38383a" d="M137.05 248.35q6.3.9 13.6-.1 8.45-1.15 10.45-4.3l6.95 9.65q-3.7 3.95-13 5.25-9.65 1.35-14.1-2.1.85-4.05-3.9-8.4M53.1 245.4q7.6-1.4 10.25-4.65 3.55 3.7 6.7 8.5-4.3 4.35-15.9 5.25-11.55.85-14.6-2.8 3.15-2.35 3.75-4.05l-3.05-2.35q5.6 1.4 12.85.1"/><path fill="#bfa66f" d="M158.55 240.45q-6.85-9.75-6.05-11.2l1.2-2.45q5-4.7 8-12 9.1-2.5 24.8-9.3l4.7-2.2q.5 7-2.2 13.75-2.95 7.4-9.45 13.6-11 6.5-21 9.8"/><path fill="#38383a" d="m209.45 193.6 1.2-.85q1.1 9.3-5 18.5-12.6 11.45-26.1 19.4 6.5-6.2 9.45-13.6 2.7-6.75 2.2-13.75 6.75-3.3 18.25-9.7"/><path fill="#bfa66f" d="m210.65 192.75 13.7-9.55q.75 4.5-1.05 9.05-7.6 9.8-17.65 19 6.1-9.2 5-18.5"/><path fill="#38383a" d="M223.3 192.25q1.8-4.55 1.05-9.05 5.35-3.95 9.45-7.5-4 8.2-10.5 16.55"/><path fill="#bfa66f" d="M136.85 237.9q7.15-1.7 16.2-6.65 2.05 4.3 8.05 12.7-2 3.15-10.45 4.3-7.3 1-13.6.1l-6.4-4.35-9.8-6.5q6.85 2.65 16 .4"/><path fill="#dbdcdc" d="m23.1 268.5.4 2q-2.05 1.55-4.35 3.85l-8.05.7-6.15-.2q-.25-.35.8-1.4 7.45.7 17.35-4.95"/><path fill="#bfa66f" d="M82.75 84.3q8.65-6.1 11.95-8 3.7-1.55 6.95-2.15-5.25 2.8-20.7 14.5Q68 98.45 62.25 99.9l-11.2-.35q-5.3-1.75-6.55-5.25 10.1 6.6 25.45-1.8 4.65-2.5 12.8-8.2"/><path fill="#ce7486" d="M101.95 55.35q2.2 4.25 2.95 4.4.55.05 2.3-3.05l2.5.95-21 15.7Q73.75 64.1 53.05 77.9q7.15-10.75 20.3-17.45 14.7-7.55 28.6-5.1"/><path fill="#dbdcdc" d="m65.6 60.15.15 4.75-1.35 1-3.5-3.8z"/><path fill="#bfa66f" d="M101.95 55.35q-9-1.55-18.95 1.25-9.1 2.6-17.25 8.3l-.15-4.75q7.3-2.95 15.25-5.2Q88.4 52.85 93 52.3l7.35-.45z"/><path fill="#dbdcdc" d="m100.35 51.85 9.4-.15-.55 1.15q-4.05.5-7 2.55z"/><path fill="#bfa66f" d="M49.2 85.15q-1.25 4.8.25 8.5-3.85-1.4-3.35-4.25.4-2 3.1-4.25m91.75 171.6q4.45 3.45 14.1 2.1 9.3-1.3 13-5.25 5.25 7.45 7.75 11.55-8.55 2.9-18.95 2.3-9.3-.5-19.3-3.8l2.9-5.35zm-81.8-19.85q1.8 1.4 4.2 3.85Q60.7 244 53.1 245.4q-7.25 1.3-12.85-.1l-11.35-9.65q-4.6-4.25-7.1-7.6 9.45.1 17.1-2.9 8.55-3.4 12.5-10 5.55 9.5 18.45 17.95-9.5 2-10.7 3.8m-27 19.2q4.3-2.15 7.4-4.4 3.05 3.65 14.6 2.8 11.6-.9 15.9-5.25 2.6 4.05 4 7.55 1.4 3.55 1.1 5.45-.2 1.65-9 5.2-9.85.7-18.3-1.9-9.3-2.85-15.7-9.45"/><path fill="#dbdcdc" d="M1.45 268.25q5.7.4 14.75-2.15-3.3 1.45-6.55 3.9l-4.8-.05q-3.4-.1-3.95-.6-.35-.3.55-1.1m14.05 10.7q4.9-.2 9.05-1.95 5.1-2.15 6.55-5.85.7 1.85.9 3.95.2 2-.2 2.2-1.7.85-8.75 2.55-7.6 1.85-9 1.3-.2-.05.05-.4zm109.6 13.85q-1.45-.1 1.2-6.05 1.45 2 7.65-1.65 6.15-3.7 7.2-7.1l.2 2.95q0 1.55-.2 1.9-.75 1.3-7.2 5.6-6.85 4.6-8.85 4.35m20.75-.8q1.5 3.7 6.05-1.45 5.25-6.95 7.1-8.95.6 2.8-.15 4.75-.45 1.2-4.4 6.35-4.2 5.4-5.65 6.3-.8.45-1.65-1.45-.85-1.95-1.3-5.55m31.25-10.6.6 2.4q.4 3.4-2.2 8.95-2.4 5.15-3.35 5.15-1.65 0-4.65-5.6 3.85 2.45 6.3-1.95z"/><path fill="#923000" d="m109.7 57.65-2.5-.95 2.55-5 8.15-.2zm-7.75-2.3q-9-1.55-18.95 1.25-9.1 2.6-17.25 8.3l-.15-4.75q7.3-2.95 15.25-5.2Q88.4 52.85 93 52.3l7.35-.45zM49.2 85.15q-1.25 4.8.25 8.5-3.85-1.4-3.35-4.25.4-2 3.1-4.25"/><path fill="#0f141b" d="M107.45 12.2q-.7-1-.05-1.1t1.3.95q3.95 5.95 3.75 13.55-.2 6.55-3.4 13.3-4.25 8.9-11.3 9.25-6.45.3-10.4-5.95l-2.5-4.95q-1.65-2.9-8-4.3-6.55-1.4-9.5 1.1-3.85 3.3-13.4 6.55-10.35 3.5-21.4 4.8l-1.75-.75q-1.55-.75-1.25-.8 11.05-.7 22.5-4.3 10.55-3.3 14.35-6.6 3.7-3.2 10.7-1.8 6.75 1.4 9 5.4l2.35 4.35q3.6 5.8 8.65 5.85 5.7 0 10-8.05 3.3-6.15 3.65-13.05.45-7.85-3.3-13.45"/><path fill="#0f141b" d="M16.7 44.15q3.6-2 7.8-1.85 4.3.2 8.35 2.65 1.25.75 1.3 1.45l-1.2-.05q-3.8-2.3-7.85-2.55-4.05-.3-7.3 1.5-4.9 2.75-5 9.2-.1 5.95 3.3 8.55 2.25 1.75 6 1.9 3.1.1 6.45-.8.25-.1.45.9t-.05 1.05q-2.75.8-6 .8-4.9-.05-7.95-2.4-4.7-3.6-4.25-10.4.5-6.9 5.95-9.95m71.75-35.6q.2.25-.45.95t-.85.45q-3.65-4.6-6.95-6.5-4-2.3-9.35-1.95-4.35.25-7.95 3.9-2.45 2.55-4.35 6.4-3.25 6.75-3.45 14.35-.2 7.65 2.8 11.95.2.25-.65.7l-1 .2q-3.2-4.6-3.05-12.6.15-8.05 3.55-15.15 2.45-5.05 6.2-8 3.7-2.95 7.8-3.2 5.4-.35 9.7 1.75 4.3 2.05 8 6.75"/><path fill="#0f141b" d="M53.9 24.55q.2-.2.75.25t.35.65q-2.3 2.9-4.25 7.9T48.7 41.6q0 .3-1 .2-1-.15-1.05-.45-.15-3.5 2.1-8.5 2.05-4.4 5.15-8.3m63.85 26.35 1.25.25q1 .4.75.6L92.8 71.3Q69.65 88 65.1 92.05q-2.75 2.45-7.65 3.1-4.55.6-8.1-.65-3.7-1.25-4-3.95-.35-2.9 3.45-6.1.2-.2.3.7L49 86.2q-2.45 2.25-2.15 4.2.3 1.85 2.95 2.75 3.35 1.15 7.45.65 4.45-.55 6.9-2.85 4.9-4.6 27.4-21z"/><path fill="#0f141b" d="m101.6 54.55.3.85.5.8q-11.35-2.35-24.1 2.7-11.8 4.65-20.35 13.6-5.55 5.8-7.6 11.4-2.05 5.65-.05 9.6l-.6.4-.9-.15q-2.25-4.45-.1-10.45 2.15-5.95 8.15-12.2 8.4-8.8 20.4-13.45 12.7-4.95 24.35-3.1m8.8 2.3q.3.15-.15.95l-.75.7-2.95-1.2q.55-1 .95-1.45z"/><path fill="#0f141b" d="M122.8 9.35q10.25 8.25 16.95 20.35 6.75 12.15 7.55 24.2.25 3.2-.6 6.15-.8 3-2.45 4.8-3.15 3.5-10.4 4.75l-17.35 1.25q-7.15.2-17.05 5.85-6.9 3.9-16.8 11.6l-9.75 7.6q-5.1 3.75-8.6 4.85-9.05 2.9-15.9-.85-7.3-3.95-2.7-11.8.85-1.4 1.35-1.15.55.25-.25 1.7-3.4 6.25 2.4 9.6 5.75 3.3 14.35.55 3.5-1.15 8.65-4.65 3.25-2.2 9.95-7.4Q92.95 78.4 98.65 75q9.6-5.65 16.95-5.9l16.75-1.2q7.25-1.25 10.15-4.5 2.85-3.15 2.5-8.9-.8-11.85-7.45-24.05-6.6-12.2-16.55-20.25-5.8-4.65-11.5-6.7-5.7-2.1-10.65-1.35-7.7 1.1-11.55 10.65-3.75 9.2-1.45 19.6.45 2.05-.3 1.5-.8-.55-1.25-2.65-2.55-11.5 1.7-20.6 4.15-8.9 12.1-10.1 5.3-.75 12 1.65 6.75 2.35 12.7 7.15m-86.1 40.6q-1.35.7-1.25 0 .15-.7 1.45-1.45 6.8-4 11.65-1.85 5.1 2.25 4.3 10.1-.15 1.35-.75 1.65-.65.3-.5-1.05.75-7-3.3-9.1-4.1-2.2-11.6 1.7M74.3 11.4q-.5-1.85.25-1.55.75.35 1.25 2.2 1.05 3.9.65 8.25-.4 3.9-1.85 7.05-.7 1.5-1.35 1.65t.05-1.4q1.3-2.8 1.65-7.5.4-5.05-.65-8.7"/><path fill="#0f141b" d="M111.4 23q.7-.1.8.65.1.7-.6.8-10.3 1.3-30.5-.4-20.25-1.75-26.2-4.45l-.4-.4q-.1-.3.05-.55.3-.7.95-.35 5.6 2.5 25.2 4.25 20.05 1.8 30.7.45M48.45 41.6q1.35-.75 1.75-.7 8.5.45 14.95 6 3.25 2.8 5 5.8.6 1 4.85-.8 4.25-1.85 4.35-3.05.25-2.45-1.9-4.75-2.45-2.75-7.15-4.5-4.7-1.7-9.9-1.75-.3 0 .35-.7.6-.75.95-.7 5.1.25 9.7 2.05 4.6 1.85 7.1 4.6 2.8 3.1 2.55 6.15-.25 2.25-5.6 4.15-5.4 1.95-6.55 0-2.05-3.1-5.65-5.85Q56.1 42.1 47.4 42.3q-.35 0 1.05-.7m-21 24.2q-4.5 8.15-5.85 8.15-1.45 0-6.85-10.3l.95-.1q1.05.2 1.15.5l2 3.75 2.8 4.4L24 68.75l2.2-3.6.8.05q.6.35.45.6M40.2 80q-1.2-.15-3.25-4.9-1.75-4.15-2-5.8-.05-.3.65-.4t.75.2q.2 1.45 1.7 4.85 1.4 3.35 2.2 4.4 1.05-1.1 6.7-9.7l1 .05q.8.35.6.6-7.2 10.85-8.35 10.7m20.15-17.45q-.2-.2.35-.7.6-.45.8-.25l3.45 3.85q.15.25-.45.6l-.8.1zm4.55-2.5q0-.3.7-.3t.7.3q0 2.7.25 4.7.05.3-.7.4-.7.05-.75-.2zm39.95.65q-.95.05-3.1-4.1-1.95-3.8-2.1-4.7-.05-.3.65-.4.7-.15.75.15.15.8 1.65 3.55 1.5 2.9 2.25 3.65.75-.7 2.3-3.5l1.85-3.7.8-.05q.7.25.6.5-4.1 8.55-5.65 8.6m-35.9 35.75.8-.05q.7.2.6.5-1.9 6.4-8.25 23-12.55 32.45-15.6 49.2-5.2 28.45 5.9 45.45 22.5 34.45 79.75 29.8l2.5 2.25q-29.95 2.85-51.2-4.75-21.3-7.65-32.95-25.5-11.7-17.95-6.55-46.25 2.9-15.9 16.05-50.05l4.95-12.45q2.85-7.15 4-11.15M208.1 166.4l.4 2.15q-11.75 8.25-27.15 10.7-15.55 2.45-29.9-1.85l-1.2-1.5q-.85-1.4-.6-1.3 14.2 5.15 30.6 2.75Q196.2 175 208.1 166.4m16.8-22.55 1.3 1.7q-2.5 7.35-7.55 13.65l-.9-2.1q4.8-6.1 7.15-13.25"/><path fill="#0f141b" d="M225.25 110.9q1.55-.8 4.4 2.45 7.2 8.05 10.15 22.35 3.55 17.5-2.45 34.5-6.9 19.6-29.85 41-23.6 22.1-48 30.5l-1.2-1.9q24.2-8 47.75-29.9 22.8-21.2 29.75-40.8 5.9-16.65 2.5-33.35-2.7-13.6-9.7-21.45-1.8-2-2.4-1.45-.5.5.1 2.7 2.75 9.75 2.15 18.55h-1.6q.75-8.65-1.95-18.2-1.2-4.2.35-5m-108.2-41.15q-1 4.45-.4 12 .3 4.3 1.85 15.3l-2.05-.95q-2.5-17.95-1.65-26.5zm9.2 67.1q.1.35-.8 1.3l-1 .65q-1.4-5.35-2.95-12.9 1.15.6 2.35 1.9 1.55 6.6 2.4 9.05m-21.6-64.25q-1.45 10-2.4 22.4h-1.5q.9-11.3 2.35-21.7.05-.25.85-.6zm-3.5 47.85q-.15 13.05.65 24.7h-1.75q-.7-10.55-.55-24.9zM111 184.8l-.35 1.15-.65.65q-4.3-6.3-6.8-17.65l1.75-.2q2.4 10.5 6.05 16.05"/><path fill="#0f141b" d="M116.35 91.9q.3-.1.55.55.2.7-.1.8-7.15 2.95-22.9 3.2-13.45.2-21.35-1.3-.3-.05.65-.7t1.25-.6q7.45 1.5 20.35 1.05 13.9-.45 21.55-3M61.6 118.6q-.25-.05.05-1.05.35-1 .6-.9 5.85 2.75 22.35 3.15l22.75-1.05q1.2 1.2.85 1.3-7.15 1.55-22.9 1.2-16.65-.35-23.7-2.65m-9.1 24.75q-.3-.1 0-1.1.3-.95.55-.8 10 4.85 31.1 4.45 24.05-.5 40.4-8.8.25-.1.6.5.3.65.05.8-16.55 8.4-40.95 9.05-21.2.55-31.75-4.1m-6.1 21.2q-.2-.2.2-.75.4-.6.65-.45 9.45 6.55 31.35 7t36.1-5.65q.25-.1.55.55.25.7 0 .8-15 6.4-37.2 6.05-22.55-.35-31.65-7.55m63.1 55.15q.25-.15.6.5.4.6.15.75-11.85 7.4-29.15 7.1-16.25-.3-25.35-6.7l-.55-1.25q-.35-1.1-.15-.9 9 6.85 25.9 7.2 17.35.35 28.55-6.7m15 20q.3-.05.45.65t-.15.75q-9.05 2.05-18.25 2.6L90.5 243q-.3-.05-.45-.85t.1-.7l16.05.7q9.45-.45 18.3-2.45m33.8-60.7q-.2-.25.4-.7.55-.45.75-.2 8.2 10.9 5.9 26.5-2.15 14.7-11.8 24-.2.25-.35-.9t.05-1.4q8.95-8.85 10.85-22.4 2.05-14.5-5.8-24.9m14.4 1.05q-.3-.1.2-.75.5-.7.75-.6 7.25 2.15 12.25 7.9 4.95 5.7 6.3 13.3 1.4 7.95-1.55 15.9-3.25 8.7-11.2 15.85l-1.35.1q-1.15-.1-.9-.3 16.45-14.55 13.25-31.6-1.35-7.2-6.2-12.55t-11.55-7.25m22.05-4.5q-.3-.05-.15-.75.1-.7.4-.65 5.3.95 9.55 4.7t6.2 9.15q4.45 12.7-5.45 24.45l-1.1.3q-.9.1-.7-.15 9.35-11.45 5.45-23.75-1.7-5.2-5.55-8.8-3.8-3.65-8.65-4.5m10.9-6.65q9.65-1.25 15.85 6.05 6.55 7.7 2.35 17.9-.1.25-.8 0-.65-.3-.55-.55 3.85-9.25-2.15-16.35-5.7-6.8-14.5-5.6-.3.05-.4-.7-.1-.7.2-.75m12.95-11.75q8.15-.8 13.2 3.65 5.35 4.65 4 12.75-.05.3-.75.2l-.7-.4q1.1-6.7-2.95-11-4.4-4.6-12.7-3.75-.25 0-.35-.7-.05-.7.25-.75m6.35-10.3q3.7-2.7 8.85-1.4 5.3 1.3 7 5.8l-.45 1.05q-.5.75-.6.45-.95-4.5-6.25-5.8-5.4-1.35-9 2.3-.2.2.05-1.05t.4-1.35m13.5-14q.25.2.2 1.15t-.3.7q-1.75-2-5.05-1.75-3.15.25-4.25 2.05l-.75-.1q-.65-.4-.5-.65 1.35-2.25 4.95-2.6 3.4-.35 5.7 1.2"/><path fill="#0f141b" d="M111.15 181.75q.85-1.9 1.65-2.25.8-.3 0 1.6-4.95 11.8-3.65 28.3 1.35 17.3 8.75 25 1.85 1.9 8.6 5.9 8.5 5 11.6 8.1 5.3 5.2 3 10.2-1.65 3.65-5.85 9.85-2.3 3.3-3.05 4.7-1.25 2.35-1.3 4.1-1 1.1-1.25 2.05l-.4-.9q-.85-2.85 3.75-9.8l6.8-10.6q1.9-4.2-3-8.65-2.5-2.25-11.1-7.35l-5.45-3.25q-3-1.85-4.2-3.1-7.8-8.15-8.95-25.35-1.05-16.2 4.05-28.55m30.2 101.05 4.35.75-.2 1.6-4.9-1.05q.6-.45.75-1.3m17.55 3.55.6-1.45 4.7.1q-.2.75.25 1.45zm-.45-90.5q-2.4-16.2-15.5-27.1-.25-.2-.5-1.6t0-1.2q15.7 12.4 18.3 29.5 2.45 16.2-7.05 34.05-.4.95 3.05 6.5 2.9 4.7 7.2 10.65l11.8 16.55q5.9 9 6.2 12.95.4 4.95-3.55 7.35l-.85-1.55q2.6-1.95 2.3-5.9-.3-3.75-5.9-12.55-3.3-5.2-11.15-16-7-9.6-9.05-13-2.6-4.25-1.9-5.6 9-16.9 6.6-33.05M47.1 161.4q.25-.2.05 1.5l-.4 2q-29.35 32.95-28.4 51.15.35 7.2 7.2 15.05 5.75 6.6 19.6 17.25 1.6 1.25.75 1.35-.85.05-2.5-1.15-14.4-10.6-20.1-16.95-6.8-7.65-7.2-15.25-.55-9.7 7.25-23.55 7.9-14.05 23.75-31.4"/><path fill="#0f141b" d="M42.35 246.95q.05-.3.9.3t.75.9q-1 3.6-11.6 8.95-8.45 4.25-14.65 6.05l-.8-.5q-.55-.65-.25-.7 4.95-1.15 14.4-6.2 10.6-5.65 11.25-8.8M69.9 232.5q.3-.05.65.95.3 1 .05 1.05l-5.55.9q-3.7.6-4.8 1.45 6.7 5.5 11.9 13.95 4.95 8.1 4.4 11.75-.45 3-19.1 8.9-16.9 5.35-25.1 6.4-.3.05-.4-.65t.15-.8q8.55-1.4 24.8-6.75 16.95-5.5 17.55-7.5.5-3.45-4.25-11.3-5.15-8.5-11.5-13.35-.5-.45-.15-1 .9-1.3 4.25-2.35 2.3-.7 7.1-1.65m-8.75-132.4q.15-.2 1.4-.3l1 .1-2.3 3.6-2.45 4q-.8 1.15-11.1 7.25l-11.3 6.6q-2.25 1.5-3.3 4.85-1.1 3.35-.3 6.4l5.65 10.85q5.7 10.9 6.25 12.6.55 1.65-.15 1.25T43 155.25l-6.05-11.05q-5.45-9.95-5.9-11.35-1.05-3.45.3-7.4 1.35-3.85 4.05-5.6l11.45-6.6 10.7-6.45 1.5-3.1q1.25-2.45 2.1-3.6"/><path fill="#0f141b" d="m40.25 171.6-1-.05q-.4-1.7 1.55-9.35l2.05-7.3q.1-.3.8-.15.75.15.65.4l-1.75 7.1q-1.7 7.4-1.45 8.8zm19.55-49.55q.3-.05.45.75.1.75-.2.8-2.35.2-3.25.65l-10.25 7.1q-1.35 1.15-1.1.1.2-1 1.55-2.15l9.45-6.8q.55-.3 3.35-.45"/><path fill="#0f141b" d="M46.6 130.8q-.1-.25.65-.75t.8-.2l2.7 5.9q2.3 4.6 2.9 5.1.2.2-.2.75-.4.6-.65.45-.8-.55-3.4-5.35-2.4-4.55-2.8-5.9m-2.45-15.35q.1-.25.95-.3.8-.05.7.25-1.65 3.6.5 6.9 2.05 3.15 5.85 3.55.3.05.25.75-.1.7-.4.7-4.85-.5-7.25-4.2-2.4-3.65-.6-7.65"/><path fill="#0f141b" d="M49.8 135.35q.3-.05.3.7 0 .7-.3.7-4.8.1-7.75 2.3-2.95 2.25-2.85 5.9 0 .3-.7 0-.75-.3-.75-.6-.1-4.25 3.5-6.65 3.25-2.25 8.55-2.35m-8.75 27.2q-.1-.3.55-.6.7-.25.8 0 .2.5 1.55 1.45l1.75 1q.3.05.15.75-.15.75-.45.65-.7-.15-2.25-1.2-1.7-1.2-2.1-2.05m83.1-60.5q2.2 3.8 3.5 8.55.5.85 8.15 7.3l8.5 7.15q2.95 2.85 2.05 6.9-.45 2.1-2.3 5.05l-6.75 10.85q-4.8 7.95-5.85 11.2-.5 1.45-.85 1.05-.4-.45.1-1.9 1.8-5.5 11.75-21.85 1.6-2.55 2.05-3.95 1-3.6-1.6-6.15-16.35-13.9-16.85-14.95l-1.15-2.8q-2.35-5.85-4.2-8.15-3.2-4-8.1-3.65-5.7.4-7.3 9.1-1.7 8.8 3.5 13.85 1.2 1.15 0 .9-1.15-.3-2.15-1.5-5.35-6.65-2.85-15.1 2.4-8.2 8.7-8.7 7.35-.6 11.65 6.8"/><path fill="#0f141b" d="M123 126.6q5.3 4.9 6.25 6.85.6 1.15.2 1.7t-.95-.6q-.9-1.75-6.15-6.6-4.85-4.45-5.9-4.95l-2.35-.6-2.55-.35q-1.45 0-1.2-.55.3-.6 1.75-.6l2.55.25 2.25.45q1.15.4 6.1 5"/><path fill="#0f141b" d="M127.15 132.35q.05-.25.75 0 .65.25.65.35-.4 1.6-6.5 12.2l-6.1 10.7q-.4 2.15.25 11.8.65 10.2 1.65 12.75 1.2-1.05 4.2-5.25 2.95-4.05 3.75-5.75.85-1.7 1.2-1.1.4.6-.45 2.3l-3.75 6q-4 5.85-5.35 5.45-1.75-.5-2.8-12.75-.9-11.25-.4-13.9l6.25-10.75q6.25-10.6 6.65-12.05"/><path fill="#0f141b" d="M115.4 166.95q2.1-1.4 5.9-.7 4.2.75 5.25 3.7.1.25-.6.5-.65.25-.75 0-.8-2.25-4.3-3.05-3.5-.85-5.1 1.1-.2.25-.4-.55-.2-.85 0-1m17.5-12.8q-.15-.15.3-.65.45-.55.65-.4 3.45 2.9 8 11.3 4.45 8.2 3.4 9.05-1.15 1-9.75-3.45-.25-.1 0-.8.25-.75.45-.55l3.5 1.7 4.45 1.7q-.95-2.95-4.05-8.4-3.8-6.55-6.95-9.5"/><path fill="#0f141b" d="M133.85 165.5q-.7-2.2-.05-1.9.6.3 1.35 1.95l1.85 6.05q1.7 6.15.8 6.8-.45.35-2.2-.3-3.05-1.1-11.2-5.15-.25-.1.05-.75.35-.65.6-.55 8.45 4.2 11.6 5.3l-1.35-6.15z"/><path fill="#0f141b" d="M125.25 171.95q1.15-2.7 4-4.5 2.85-1.75 5.6-1.5.3 0 .25.7-.05.75-.35.7-2.3-.2-5 1.5-2.65 1.7-3.65 3.9-.1.25-.55-.15t-.3-.65"/><path fill="#0f141b" d="M139.4 161.85q.25-.1.5.4t0 .6q-1.3.4-2.65 1.9-1.25 1.35-1.65 2.4-.05.3-.5-.3l-.4-.75q.7-1.3 1.9-2.45 1.35-1.3 2.8-1.8m-22.65-67.5q-.25-.1-.1-.85.1-.75.4-.7l7.85 2.05q8.3 2.25 11.15 3.65 1.1.55 1.25 1t-.4 1.5q-1.75 3.55-7.85 12.05-.2.15-.8-.4-.6-.6-.45-.75l4-5.55 4-6.45q-1.5-.8-9.15-3-7-1.95-9.9-2.55m8.25 35.3q-.65-4.35 2.65-7.55 3.4-3.4 8.65-2.95.3.05.45.65.15.65-.15.6-4.65-.2-7.75 2.7-3.1 2.95-2.5 6.95l-.65.1zm-1.25 9.9q-.05-.3.65-.4l.75.15q.45 2.9 4.25 4.85 3.95 2.05 7.95.95l.45.65q.2.7-.1.75-4.5 1.2-8.9-.95-4.45-2.2-5.05-6m.55-4.85 2.7.4-.6 1.6-2.05-.3q-.3 0-.3-.85-.05-.85.25-.85m15.3 13.6q3.85-6.7 4.6-8.55l-2.95-.6 1.15-1.2 2.25.6.95.5q.15.3-.1 1.1-1.5 4.05-8.95 16.65-.25.3-1.3-1.25zm13.3 4.85q.85-.5 1.2-.35.4.1.6.95.9 2.95 2.7 12.4l2.05 11.95q.05.3-.95.3-.95 0-.95-.3l-1.8-11.85q-1.55-9.15-2.25-11.7-3 2.1-12.15 10.1-.2.2-.65-.75t-.25-1.15l7.65-6.05zm26.85 6.4q.6-.9 1.05-1 .45-.05 1.4.6 4.15 2.95 13.85 14.95.2.2-.55.85-.7.65-.85.4-2.25-3-6.9-8.3-5.3-6-6.8-6.9-1.1 1.8-4.1 9.3-3.05 7.6-3.65 10.1-.1.25-1 0-.9-.3-.85-.6.35-1.5 3.3-8.7 3.35-8.1 5.1-10.7m38.45-.85q-1.5-1.75-4.6-4.2l-4.45-3.15q-.35 5.35-.35 16.6 2.7-.9 5.95-4.4 2.85-3.1 3.45-4.85m-3.65-5.15q3.6 2.75 5 4.55.25.25.15.55-.3 2.1-4.1 6.1-4.1 4.35-7.4 4.9l-.5-.1q-.35-.15-.35-.6-.05-14.7.7-18.4.1-.65.4-.75l.9.25zm3.7-16.35q-.3-.7-.25-1 0-.3.45-.55 2.05-1.3 10.45-2.2.45 0 .65.3 1.05 1.4-.05 6.95-1.05 5.3-2.1 6.1-.7.55-1.2.25-1.95-1.7-4.5-4.85-2.6-3.2-3.45-5m1.3-.6q.7 1.2 2.7 3.6 2.35 2.85 4.6 4.9.9-1.8 1.4-5.05.55-3.25.2-4.75-6.95.55-8.9 1.3M25.45 192q-.3 0 0-.85.25-.85.55-.85 2.8.15 9.15 1.95 6.95 2.05 9.9 3.9.25.2-.15.8-.35.6-.6.45-2.75-1.75-9.8-3.65-6.3-1.65-9.05-1.75m20.4 11.55q.1-.3.7.6.65.9.55 1.15l-2.15 5.95q-2.1 5.15-2.8 5.5l-1.85-.1-5.35-1.55-8.9-2.55q-5.25-1.25-8.1-1-.3.05-.3-1-.05-1 .25-1 4.65.15 17.45 4.15 5.05 1.6 6.05 1.7l2.4-5.65q1.8-4.8 2.05-6.2m16.9 36.8q.2-.2.8.2t.4.6q-2.55 3.8-11.3 5.15-8.25 1.25-13-.6-.3-.1-.05-.8.3-.65.55-.55 4.35 1.65 12.15.5 8.2-1.2 10.45-4.5m-23.45 11.9q-.2-.25.4-.7.6-.4.75-.15 2.15 2.85 13.25 2.35 11.65-.5 15.5-4.95.2-.2.75.25.55.5.35.7-3.8 4.35-15.95 5.4-12.15 1-15.05-2.9m-9.6 17.8q-1-1.35-2-1.15-2.3.5-7.25 5.2-4.65 4.35-5.65 6.4 1.85.15 8.55-1.45 6.25-1.5 8.05-2.35l.1-.7-.45-2.85q-.5-1.9-1.35-3.1m-2.6-2.45q2.4-.5 4.3 2.95 1.55 2.85 1.55 5.35 0 1.65-.8 2.05l-7.25 2.15q-6.7 1.65-9.65 1.6-1.9.05-2-.55-.15-.45.95-2.05 2-3.05 6.15-6.9 4.5-4.15 6.75-4.6"/><path fill="#0f141b" d="M22.65 266.05q1.45 1.85 1.5 4.55 0 .3-.7.35-.75 0-.75-.3-.05-2.1-.95-3.6-.95-1.5-2.05-1.35-3.15.45-8.2 3.9-4.55 3.05-5.7 4.8l6.85-.2 6.35-.7q.3-.05.45.65.15.75-.1.8l-13.55.85q-1.65-.2-1.75-.7-.1-.45 1.2-1.95 2.1-2.45 6.4-5.25 4.65-3.05 7.6-3.45 1.95-.25 3.4 1.6"/><path fill="#0f141b" d="M.75 268.2q1.9-1.9 6.8-4.05 5.3-2.35 8.55-2.35 1 0 1.6.6 1.05 1.15 1.05 2.75l-1.45.15-.15-1.1q-.2-.85-.75-.85-3.2 0-8.5 2.25-4.75 2-6.15 3.35l8.2.35-1.05 1.5-8-.65-.9-.75q-.05-.4.75-1.2m159.5-24.6q.2-.2.75.25.55.5.35.7-2.85 3.25-11.05 4.45-7.4 1.05-13.45-.1-.3-.05-.45-.85-.2-.8.1-.75 5.65 1.3 13.2.3 8-1.1 10.55-4m-4.6 16.15q-9.7 1.45-14.55-2.3-.25-.15-.05-.85.15-.75.4-.6 4.35 3.3 13.75 2.1 9.15-1.15 12.35-4.95.2-.25.75.25t.35.7q-3.65 4.3-13 5.65M124.4 293.5q-.85-.1-.1-3.4.8-3.4 2.65-7.4 4.9-10.65 10.6-11.4 1.4-.2 2.5 1.35 1.3 1.85 1.85 5.7.5 3.7-.15 4.85-.8 1.45-7.65 5.85-7.35 4.7-9.7 4.45m14.45-20.05q-.5-.75-1.15-.75-3.35.45-7.25 6.75-2.2 3.6-3.65 7.65-1.3 3.5-1.3 4.95v.05q2.1-.2 8.35-4.4 5.95-4 6.65-5.2l.15-1.25-.45-4.05q-.5-2.55-1.35-3.75m18 4.6q-2.4-4.35-3.65-4.1-6.05 1.45-7.05 9.95-.35 3.15.35 8.1.8 5.25 2.05 6.25 1.5-1.05 5.5-6.25 3.8-4.9 4.15-5.9 1.2-3.35-1.35-8.05m-4-5.5q1.45-.3 3.2 1.75 2.2 2.5 3.4 5.45 1.5 3.75.5 6.5-.5 1.3-5.65 7.75-5.25 6.65-5.95 6.35-1.8-.8-3-6.85-1.3-6.4-.35-11.4 1.45-8 7.85-9.55m24.1 11.3q-.3-2.7-2.8-6.35-2.55-3.9-4.35-3.7-1.9.15-3.6 4.4-1.6 4.05-1.3 7 .2 1.65 3.15 6.55 2.9 4.7 4 5.4 1.85-1.85 3.5-6.55 1.65-4.55 1.4-6.75m-2.15-8.15q3.35 3.8 3.85 7.8.4 3.3-2.45 9.5-2.75 5.9-4 5.9-1.3 0-5-5.95-3.55-5.8-3.75-7.6-.45-4.2 1.55-8.45 2-4.2 4.6-4.55 2.05-.3 5.2 3.35M109 196.25q-.25.15-.25-.65.05-.85.3-1 7.65-4.25 22.55-2.35 14.7 1.85 17.1 7 .5 1.1 0 9.15-.55 8.35-1.65 9.55-.45.5-1.05.35-7.9-2.65-19.25-3.45-12.8-.9-17.15 2.05-.2.15-.7-.75-.45-.9-.25-1.05 4.8-3 18.4-1.8 11.2 1 19 3.5.85-1.6 1.25-9 .4-6.8.1-7.95-1.95-4.1-16.2-5.9-14.85-1.85-22.2 2.3M38.15 59.1q2.4-2.65 4.9-2.9.9-.15 1 .25.15.35-.3.6-.1.05-2.25.85-1.85.7-3.15 1.55-.35.25-.45.1zm-21.6-5.75q-.55-.55-.25-.85.3-.35.95.15.75.5 1.35 1.5.7 1.1.8 2.25l-.05.55-.35-.5q-.65-1.45-2.45-3.1"/><path fill="#0f141b" d="M118.45 40.35q-1.15-.4-1.05-.95l1.65-.05q4.45 1.45 4 7.2t-5.45 6.05h-7.75l-8.8.05-7.95.35q-7.3.9-20.4 5.6-13.95 5-21.05 9.75-6.35 4.25-15 2.45-8.65-1.75-9.2-7.35-.15-1.6.5-2 .6-.4.75 1.2.45 4.45 8.6 6 8.4 1.65 14.4-2.4 7.25-4.85 20.9-9.5 12.5-4.25 20.3-5.15l16.55-.6 7.75-.15q3.95-.25 4.1-4.9.15-4.55-2.85-5.6"/></svg>