<svg xmlns="http://www.w3.org/2000/svg" width="363" height="369" viewBox="-1.8 -0.25 362.7 368.55"><path fill="#b62643" d="m210.4 148.4.05-.05-2.45-9.9q1.45-5.7 7.8-10.15 6.1-4.25 14.45-5.75 8.75-1.55 16.55.6 8.7 2.4 14.05 8.95l6.45 11.6 6.9 12.05q3.8-3.1 7.05-5.1 3-1.9 3.65-1.7 2.15 4.3 2.55 11.5.4 8-1.65 15.7-5.35 20-23.65 25.6-12.7 3.9-26.4.15-10.75-2.9-17.45-8.7-9.35-8.1-11.8-21.7-2.4-13.65 3.9-23.1"/><path fill="#fff" d="M57.6 69.85q2.15-4.3 7.4-4 5.25.35 6.55 4.8-1.95 4.6-3.05 12.6-.85 5.75-.85 8.95-3.1-3.1-6-9.95-2.4-5.7-4.05-12.4M88.85 41Q87 45.25 86 49.25q-1.1 4.5-.65 7.15-4.1-3.25-7.25-10-2.75-5.9-3.45-11.1 2.6-3.75 7.95-2.6 5.75 1.2 6.25 8.3"/><path fill="#525557" d="M129.35 94.6 144 95.65q3.9 2.65 10.7 6.4-10.35 7.5-11.65 10.6l-13.85-.85z"/><path fill="#b62643" d="M270.15 3.45v.05q-2.95 13.65-15.45 34.6-13.3 22.25-22.4 26.2-1.4-2.75-10.35-2.65-9.1.1-11.75 3.4-15.55-4.15-32.1-23-15-17.1-23.65-37.35l.05-.15q2.7 2.1 11 6.1 9 4.35 14.5 5.85 5.7-7.2 14.55-11.1 8.55-3.8 18-3.65 9.7.2 17.8 4.5 8.75 4.6 14 13.15 4.7-1.85 13.45-7.2 9.15-5.6 12.35-8.75"/><path fill="#0f141b" d="M270.15 3.5q3.8 13.3 4.75 26.35.9 12.7-1.1 23.7-2.7 15.15-10.15 24-7.85 9.3-19.5 9.6-7.5.2-11.85-5.9l-3.35-4.35q-2.1-2.05-5.1-2.25-4.6-.3-8.4 1.35-3.85 1.65-8.6 6-8.45 7.8-19 7.15-10.35-.65-17.85-9-13.65-15.1-17.4-38-3.3-20.1 1.85-37.45 8.65 20.25 23.65 37.35 16.55 18.85 32.1 23 2.65-3.3 11.75-3.4 8.95-.1 10.35 2.65 9.1-3.95 22.4-26.2 12.5-20.95 15.45-34.6"/><path fill="#b62643" d="M244.15 87.15q11.65-.3 19.5-9.6 7.45-8.85 10.15-24 6.45 5.85 9.75 12 4.35 8.1 2.8 15.9-1.95 9.95-16.7 19.55l-10.45 6.8q-4.95 3.65-5.95 6.75-1.8-5.45-2.2-9.15-4.25-7.7-13.2-11.15-8.2-3.1-17.5-1.8t-15.4 6.4q-6.65 5.5-6.9 13.4-3.15-5.05-17.05-14L162.55 87q.6 2.85 3 9.75 2.35 6.85 2.75 6.85.3 0 2.4-3.3l2.95-4.8q4.4 14 4.9 14 .35 0 2.7-3.1 9.85 10.35 15 42.45l3.1 23.05q1.45 11.6 2.55 14.65 2.25 6.4 8.1 9.5 6.5 3.4 18.55 3.55 6.85 2.95 14.25 3.75-6.8 9.65-23.4 8.45-7-.5-13.2-3-6.25-2.6-9.45-6.35-3.1-3.7-5.1-14.1-1-5.25-3.1-22-4.1-33.2-11.2-46.15-1.65-3.1-3.5-5.35-1.85-2.35-8.75-6.3-8.85-4.8-13.55-7.6-18.1-10.85-19.75-21.55-1.65-10.85 5.2-20 2.45-3.3 7.35-8.1l8.8-8.7q1.9 10.95 6.05 20.4 4.4 10.1 10.8 17.15 7.5 8.35 17.85 9 10.55.65 19-7.15 4.75-4.35 8.6-6 3.8-1.65 8.4-1.35 3 .2 5.1 2.25l3.35 4.35q4.35 6.1 11.85 5.9"/><path fill="#fff" d="M254.1 96.1q2.05-1.95 6.15-4.8-3.5 13.95-3.85 14.15-.65.25-5.3-4.6 0-1.95 3-4.75"/><path fill="#525557" d="M112.65 129.5q1.95 1.45 5.3 4.7l3.35 3.45-7.1 9.75q-5.4 7.5-6.85 9.8l.45-28.1zm-38.5 52.7q7.95 5.4 16.45 8.65-2.65 8.8-2.45 15.7-25.95 21.35-39.8 46.2-4.5-19.5 3.15-38.55 6.85-17.1 22.65-32M119.9 123q-3.25 4.85-8.2 5.85-9.85-6.7-14.1-9.8-7.35-5.45-7.95-8.5l-1.7-9.55q3.85 3.5 11.4 2 7.7-1.5 9.1-6.7 3.9 11.9 4.5 12.3 2.4 1.35 8.5 2.25 2.15 6.6-1.55 12.15"/><path fill="#b62643" d="M86 49.25q1-4 2.85-8.25-.5-7.1-6.25-8.3-5.35-1.15-7.95 2.6-.9-6.05.8-8 2.8-3.3 6.35-5.95 3.35-2.5 5.05-2.7 2.05-.2 7.6 3.15 5.65 3.4 6.2 5.3.3 1 .6 11.05.2 7.9 3.1 10.3 1.9 1.55 8.6 3.3 7 1.85 7.35 2.05 3.3 2.05 4.85 5.85 1.45 3.7.9 7.9-1.15-1.25-3.35-1.85l-4.7-.1q-5.95 1.6-6.05 10.35-2.2-.35-4.75-1.85-2.05-1.2-2.85-2.15l-1.7.25-1.55-.05q0 .7 2.4 8.6l4.95 15.55q-1.4 5.2-9.1 6.7-7.55 1.5-11.4-2-4.7-27.45-5.4-29.25T78 68.95l-5.5-.25q-.45.7-.95 1.95-1.3-4.45-6.55-4.8-5.25-.3-7.4 4-.9-3.65-1.2-6.4t.05-3.6q1.35-2.9 3.4-6 2.6-4 4.15-4.55l5.95-.2 4.85.4q.45 0 1.6-1l1.75-1.7q2.85 6.15 7.2 9.6-.45-2.65.65-7.15"/><path fill="#fff" d="M111.95 75.95q.1-8.75 5.8-10.5 5-1.55 8.3 2.1-.75 5.65-2.45 11.15-2.15 6.9-4.8 9.4-1-4.1-2.75-7.35-1.9-3.6-4.1-4.8M170.4 91.4l2.35 1.3.9 2.8-2.95 4.8q-2.1 3.3-2.4 3.3-.4 0-2.75-6.85-2.4-6.9-3-9.75 3.15 1.95 7.85 4.4"/><path fill="#b62643" d="M123.9 143.85q1 3.2 2.25 3.7 1.55 2.6 6.5 6.3 5.6 4.1 12.9 7.6-10.6 18.4-16.05 36.3-7.7-12.5-11.85-25.65-4.3-13.65-3.7-24.6l7.35-9.85q1.2 1.85 2.6 6.2"/><path fill="#fff" d="m259.8 93.1.45-1.8q6.55-4.55 9.3-7.2l-3.35 9.15-2.45 5.9q-.45 0-3.95-6.05"/><path fill="#ed8599" d="m212.45 196.65 2.35-6.95q1.1 1.65 6 5.15 4.8 3.45 7.75 4.75-9.3-.15-16.1-2.95"/><path fill="#b62643" d="M145.55 112.7q3 4.75 2 11.55-.9 6.1-4.6 12.15-3.55 5.8-8.05 9-4.8 3.4-8.55 2.25l-.2-.1q-1.3-.55-2.65-4.05-1.9-4.9-2.9-6.55l-8.9-8.1q4.95-1 8.2-5.85 3.7-5.55 1.55-12.15z"/><path fill="#525557" d="M96.25 176.7q1.75-3.65 8.95-15.4 6.7-10.95 8.75-13.8-.55 9.95 2.95 22.55 3.5 12.35 10.1 24.3 14.9 27.05 34.2 34.95-12.1 0-24.05-3.7-12.1-3.75-21.45-10.55-21.4-15.5-19.45-38.35"/><path fill="#b62643" d="M165.85 108.3q5.6 3.5 8 6.55 1.85 2.25 3.5 5.35-9.3 8.75-18.5 20.95-4.9-9.75-8.25-18.5-3.45-9.15-3.9-13.6 4.9-4.75 8-7z"/><path fill="#ed8599" d="M204.1 126.6q4.25 11.95 6.35 21.75l-.05.05q-2.9 4.25-3.6 14.5-.95 13.8 5.7 23.75-2.8 1.55-7.65 4.8-2.1-1.15-4.15-12.4l-4-25.05q-6.2-37.85-15.45-47.6l4.15-5.35 9.65 7.55q3.8 3.1 9.05 18"/><path fill="#525557" d="M205.2 98.1q6.15-4.85 15.75-5.6 9.3-.75 17.55 2.55 8.8 3.55 12.55 10.35.55 5 4.4 14.55 2.6 6.55 5.4 12.15-5.35-6.55-14.05-8.95-7.8-2.15-16.55-.6-8.35 1.5-14.45 5.75-6.35 4.45-7.8 10.15-5-18.2-9.95-26.2.25-8.8 7.15-14.15"/><path fill="#fff" d="M212.45 196.65q-4.85-2.1-7.6-5.2 4.85-3.25 7.65-4.8l2.3 3.05zM173.65 95.5l-.9-2.8q6.25 3.55 12.65 8.35l-4.15 5.35q-2.35 3.1-2.7 3.1-.5 0-4.9-14"/><path fill="#525557" d="M79.6 185.15q-6.95-3.95-9.15-5.55l29.15-28.05 5.6 9.05q-4.1 5.15-9.15 16.35-3.8 8.55-5.45 13.9-3.3-1.3-11-5.7m90.15-25.05q5.95 8.65 9.65 10.2-17.3-.95-33.85-8.85-7.3-3.5-12.9-7.6-4.95-3.7-6.5-6.3l.2.1q3.75 1.15 8.55-2.25 4.5-3.2 8.05-9 3.7-6.05 4.6-12.15 1-6.8-2-11.55l-2.5-.05 3.65-3.6q.45 4.45 3.9 13.6 3.35 8.75 8.25 18.5 5.65 11.25 10.9 18.95"/><path fill="#b62643" d="M264.75 292.2q4.45-20.25 1.45-35.3 2.65-25 2.7-35.7 18.6 10.1 30.6 25.9 12.3 16.15 12.75 31.9.25 8.45-4.85 23.55-3.75 11.1-9.5 23.35-8.25 4.55-30.2 4.35-24.25-.25-36.35-7.5 2.45-9.65.85-15.25 1.15.05 10.25 2.6 8.65 2.4 12.45 2.15 2.6-.15 5.3-5.9 2.65-5.5 4.55-14.15"/><path fill="#bad4ee" d="M179.4 170.3q-3.7-1.55-9.65-10.2-5.25-7.7-10.9-18.95 9.2-12.2 18.5-20.95 7.1 12.95 11.2 46.15 2.1 16.75 3.1 22 2 10.4 5.1 14.1 3.2 3.75 9.45 6.35 6.2 2.5 13.2 3 16.6 1.2 23.4-8.45 10.3 1.2 19.35-1.6-3.25 6.95-11.35 18.6-9.15 13.15-13.15 14.85 7.45-1.5 14.9-5.1 8.1-3.85 12.95-8.7l.8 16.6q.45 12.55-.1 18.9 3 15.05-1.45 35.3-1.9 8.65-4.55 14.15-2.7 5.75-5.3 5.9-4.25.25-11-1.95-3.05-1-9.75-3.75-23 13.55-50.2 14.15-33 .75-69.7-17.8-2.2 3.35-7.9 5.55-5.15 2-6.95 1.2-1.3-3.75-.2-13.15 1.1-9.6 4.3-21.05 7.95-28.35 21.3-44.85-.3-5.05.15-10.45 17 9.15 36.25 9.15-16.4-6.7-31.7-31.55 5.45-17.9 16.05-36.3 16.55 7.9 33.85 8.85"/><path fill="#525557" d="M267.6 199.65q1.2 5.9 1.3 17.35-3.35 4.9-11.65 10.15-9.55 5.95-19.6 8.05 4-1.7 13.15-14.85 8.1-11.65 11.35-18.6 2.9-.85 5.45-2.1"/><path fill="#b62643" d="M324.7 40.4q2.75-1.55 6.15-2.7 3.9-1.3 5.5-.8 1.2.3 4.55 3 3.3 2.7 3.6 3.65.8 2.65-.7 7.45-.75 2.45-1.7 4.25.3-1.9-3.05-3.45-3.05-1.45-5.05-1.05-2.35.45-4.1 3.2-1.55 2.5-1.4 4.4.1 1.7.75 5.7.55 4.15.3 7.95 4.4-3.7 8.1-8.55 1.8.85 8.45 1.3l7.3.55q1.8.5 3.55 2.45 1.6 1.85 1.8 3.35.7 4.4-2 10.5-.5-2.05-1.95-2.85-1.15-.6-3.5-.7-2.2-.1-4.4 1.4-2.05 1.35-3.05 3.25l-2.05-2.5-2.4-.05q-1.45.1-2.15.5-6.45 4.55-7.45 4.75l-2.25-.1-7.85 11.2-11.8 16.6q-7.05 1.25-11.6-3-4.35-4.15-2.6-9.65l10.5-10.3q4.05 2.15 8.05 2.3-3-3.35-4.2-8.1-.85-3.25-.65-6.05-2.2-2.4-7.1-.7-4.95 1.7-3.65 5.15.1.35-2.7-1.7-2.75-2.05-2.7-2.9.2-2 1.55-6.3 1.45-4.7 2.25-4.85 8.05-1.4 13.3-4.15 4.3-2.25 7.55-5.8 1.5-1.6 4.7-9.05 3-6.95 4.1-7.6"/><path fill="#fff" d="M351.3 78.05q2.35.1 3.5.7 1.45.8 1.95 2.85-1.85 4.4-4.7 7.9-3.05 3.75-6.4 5.3.55-4.8-.05-7.95-.5-2.35-1.75-4.15 1-1.9 3.05-3.25 2.2-1.5 4.4-1.4"/><path fill="#b62643" d="M271.5 112.7q4.85 1.3 7.05 7.95 2.3 7.1-2 12.6-7.5 2.95-12.65 4.7l-5-10.35q-4.4-9.5-5.65-13.05L260 114z"/><path fill="#525557" d="M293.7 100.45q-1.75 5.5 2.6 9.65 4.55 4.25 11.6 3-6.3 8.6-8.15 9.75-4.45 3.05-23.2 10.4 4.3-5.5 2-12.6-2.2-6.65-7.05-7.95l11.4-1.9z"/><path fill="#b62643" d="m269.8 216.4-.25 15.75q-.6 16.1-2.55 23.55-.35-3.9-.85-16.95-.45-12.65-.9-17l2.45-2.65zM78 172.45l-7.55 7.15 3.7 2.6q-15.8 14.9-22.65 32-7.65 19.05-3.15 38.55l-3 5.7q-6.6-6.25-12.5-13.4-12.3-24.2-1.8-51.15 4.25-10.85 11.15-18.85 6.6-7.65 12.95-9.7l10.25 2.75q10.5 2.95 12.6 4.35"/><path fill="#525557" d="M59.95 156.45q6.8 9.05 16.3 14.9l-11.3-3.3-9.8-2.7q-6.35 2.05-12.95 9.7-6.9 8-11.15 18.85-10.5 26.95 1.8 51.15Q15.95 224.5 8.3 199.8 6 181 15.8 164.9q9.75-16 26.2-20.9.15 0 7.35 4.9z"/><path fill="#b62643" d="M13.75 131.9q8.95-11.2 19.85-15.1l5.5 5.15 7.45 7.45q4.75 15.8 13.4 27.05l-10.6-7.55Q42.15 144 42 144q-16.45 4.9-26.2 20.9Q6 181 8.3 199.8q-6.1-19.65-6.25-40.85 1.9-14.8 11.7-27.05"/><path fill="#525557" d="M42.45 64.6Q40.3 78.55 40.9 94.35q.8 19.15 5.65 35.05l-7.45-7.45-5.5-5.15q-10.9 3.9-19.85 15.1-9.8 12.25-11.7 27.05-.2-29.8 10.6-58.5Q22.1 75.35 35.3 61.8q4.3-4.4 6.2-3.35 1.75.95.95 6.15"/><path fill="#b62643" d="M90.2 190.5q1.25-3.9 6.05-13.8-1.1 12.9 7.1 24.75 7.7 11.2 21.6 18.7-.45 5.4-.15 10.45-13.35 16.5-21.3 44.85-3.2 11.45-4.3 21.05-1.1 9.4.2 13.15 2.5 1.05 9.75-2.2l-8.6 6.8q-4.4 3.4-5.5 4.9l-.5 5q-7.45 3.35-17.1 4.4-9.75 1.1-19-.5-21.7-3.7-27.7-18.45 3.7-33.3 19.3-59.7 13.75-23.3 38.1-43.35-.25-8.85 2.05-16.05"/><path fill="#525557" d="M240.95 345.2q-12-3.85-13.25-8.8-.25-1.05 1.05-5.15l2.6-8.5q12.1 7.25 36.35 7.5 21.95.2 30.2-4.35l-1.85 3.9q-1.35-.35-2.35 4.2-2.7-1.45-3.6-1.4-3.45.15-6.1 3.95-2.6 3.8-2.15 7.7-5.35-5.45-6.95-6.15-4.6-1.95-8.5 2.3-3.75 4.15-2.15 7.8-11.3.85-23.3-3m-182.5-17.15q9.25 1.6 19 .5 9.65-1.05 17.1-4.4-1.6 10.8-6.9 17.4-4.9 6.1-12.05 7.6-.8-10.3-7.3-9.95-2.75.15-5.15 2.5-2.55 2.5-3.7 6.5l-1.5.05q-1.45-.35-1.4-.6 1.55-4.2 0-7.4-1.4-2.9-4.65-3.95-3.15-1-6.25.35-3.4 1.55-5 5.4 1.1-7.35-2.7-11.1t-8.45.4q.1-11.65 1.25-21.75 6 14.75 27.7 18.45"/><path fill="#fff" d="M307.4 78.3q-.2 2.8.65 6.05 1.2 4.75 4.2 8.1-4.8-.15-9.95-3.75-4.6-3.15-5.65-5.95-1.3-3.45 3.65-5.15 4.9-1.7 7.1.7M334 50.75q2-.4 5.05 1.05 3.35 1.55 3.05 3.45-.45 2.95-4.45 8.15-3.75 4.95-8.1 8.6.25-3.8-.3-7.95-.65-4-.75-5.7-.15-1.9 1.4-4.4 1.75-2.75 4.1-3.2M296.05 329.8l6.75 4.4q7.1 4.8 9.45 7.05l-7.95.3q-5.95-4.85-10.6-7.55 1-4.55 2.35-4.2"/><path fill="#fff" d="M290.1 332.6q2.15-.1 10.85 6.5 8.1 6.15 10.65 9.25-1.4.25-11.9.05l-14.3-.4-3.55-3.75q-.45-3.9 2.15-7.7 2.65-3.8 6.1-3.95"/><path fill="#fff" d="M266.2 340.55q4.1-4.4 8.7-2.45 2.1.95 8.7 7.9 6.1 6.45 8.6 9.95-7.15-.95-16.8-3.5-10.2-2.7-11.15-4.25-2.05-3.4 1.95-7.65m-236.7-9.2q1.9-1.6 4.3-1.8 2.35-.15 4.2 1.2 4.4 3.25 1.85 11.15-.35 1.05-9.3 6.8-8.1 5.15-12.8 7.7 1.55-5.7 5.95-14.95 4.25-8.85 5.8-10.1m12.2 9.4q1.7-3.45 4.7-4.65 2.8-1.1 5.65 0t4.25 3.85q1.55 3.1.6 7.05-.3 1.25-8.75 8.35l-13 10.55q.65-4.15 3.55-14.75 2.65-9.8 3-10.4m18.45 5.35q1.2-3.15 3.65-5.1 2.4-1.95 4.9-1.9 6.15.05 6.9 10.05l.05.1q.1 1.45-6.6 8.25-6.2 6.25-10.8 9.9-.15-4.45.65-12.5.75-7.45 1.25-8.8"/><path fill="#525557" d="M189.25 71.1q0-2.8 1.1-4.8t2.65-2 2.6 2q1.1 2 1.1 4.8t-1.1 4.8q-1.05 2-2.6 2t-2.65-2-1.1-4.8"/><path fill="#fff" d="M190.45 68.25q0-1.3.6-2.15.6-.9 1.5-.9.85 0 1.5.9.6.9.6 2.15t-.6 2.15q-.65.9-1.5.9-.9 0-1.5-.9t-.6-2.15"/><path fill="#525557" d="M243.55 76.4q-1.55 0-2.6-2-1.05-1.95-1.05-4.8 0-2.8 1.05-4.75 1.05-2 2.6-2 1.5 0 2.6 2 1.05 2 1.05 4.75 0 2.8-1.05 4.8-1.1 2-2.6 2"/><path fill="#fff" d="M243.1 70.1q-.85 0-1.5-.9-.6-.9-.6-2.15t.6-2.2q.65-.9 1.5-.9t1.5.9q.6.95.6 2.2t-.6 2.15q-.65.9-1.5.9"/><path fill="#0f141b" d="M225.8 179.4q7.85 4 11.1 11.25-5.75-.65-8.6-3.85-2.45-2.85-2.5-7.4m48.7-2.45q-.3 4.3-1.7 7.4-1.9 4.1-5.55 5.05.9-2.65 2.65-5.8 2.1-3.75 4.6-6.65"/><path fill="#911731" d="M218.3 193.2q-3.4-2.9-5.95-6.9 14 11.6 36.45 10.75 20.75-.75 32.65-10.45-6.65 11.3-19.3 15.15-12.7 3.9-26.4.15-10.75-2.9-17.45-8.7"/><path fill="#911731" d="M192.8 193.65q-1.3-5-2.5-13.45 3 8.5 14.9 12.1 3.1 3.5 8.55 5.3 5.8 1.9 14.8 2 6.85 2.95 14.25 3.75-6.8 9.65-23.4 8.45-7-.5-13.2-3-6.25-2.6-9.45-6.35-2.3-2.7-3.95-8.8"/><path fill="#38383a" d="M48.95 221.8q8.7 3.4 18.2 4.8-11.25 12.55-18.8 26.15-3.6-15.5.6-30.95"/><path fill="#ce7486" d="m210.45 148.35-.05.05q-.85 1.2-1.7 4-2.85-8.15-7.4-14.95-4.7-7.15-10.75-12.15-4-13.3-9.3-18.9l4.15-5.35 9.65 7.55q3.8 3.1 9.05 18 4.25 11.95 6.35 21.75"/><path fill="#dbdcdc" d="m214.15 190.5-.85 3.25-.85 2.9q-3.95-1.65-6.6-4.2l4.25-.25q2.1-.45 4.05-1.7"/><path fill="#911731" d="M32.85 245.05Q24.4 228.5 27 209.45q10.2 7.7 21.95 12.35-4.2 15.45-.6 30.95l-3 5.7q-6.6-6.25-12.5-13.4"/><path fill="#38383a" d="M27 209.45q-2.6 19.05 5.85 35.6Q15.95 224.5 8.3 199.8q-.5-4.2-.35-8.65 8.9 10.7 19.05 18.3M240.95 345.2q-12-3.85-13.25-8.8-.25-1.05 1.05-5.15l2.6-8.5q12.1 7.25 36.35 7.5 21.95.2 30.2-4.35l-1.85 3.9q-1.35-.35-2.35 4.2-2.7-1.45-3.6-1.4-3.45.15-6.1 3.95-2.6 3.8-2.15 7.7-5.35-5.45-6.95-6.15-4.6-1.95-8.5 2.3-3.75 4.15-2.15 7.8-11.3.85-23.3-3m-182.5-17.15q9.25 1.6 19 .5 9.65-1.05 17.1-4.4-1.6 10.8-6.9 17.4-4.9 6.1-12.05 7.6-.8-10.3-7.3-9.95-2.75.15-5.15 2.5-2.55 2.5-3.7 6.5l-1.5.05q-1.45-.35-1.4-.6 1.55-4.2 0-7.4-1.4-2.9-4.65-3.95-3.15-1-6.25.35-3.4 1.55-5 5.4 1.1-7.35-2.7-11.1t-8.45.4q.1-11.65 1.25-21.75 6 14.75 27.7 18.45"/><path fill="#dbdcdc" d="M300.05 338.25q3.8-.15 6.9-1.15 3.65 2.55 5.3 4.15l-7.95.3q-1.75-1.5-4.25-3.3m-6.3 6.4q6.35-.35 9.85-3.45 6.05 4.8 8 7.15-1.4.25-11.9.05l-14.3-.4-3.55-3.75-.05-.7q7.25 1.3 11.95 1.1"/><path fill="#dbdcdc" d="M275.4 352.45q-10.2-2.7-11.15-4.25-.75-1.2-.5-2.85 14.25 4.4 19.55.5 6.45 6.6 8.9 10.1-7.15-.95-16.8-3.5m-253.2-7.4q4.7-.05 9.5-1.9 4.55-1.75 8.6-4.85-.35 2.35-1.35 4.55-2.55 2.15-10.9 7.4l-10.3 6.15q.8-3.1 4.45-11.35m12.95 20.85q.9-5.75 2.55-11.85 5 .3 10.7-2.5 5.15-2.5 8.8-6.45l-.3 1.9q-.4 1.75-8.7 8.6zm40.2-18.8.25 2.05.05.1q.1 1.45-6.6 8.25-6.2 6.25-10.8 9.9-.05-3.85.25-8.9 4.25-1.55 8.9-4.9z"/><path fill="#911731" d="M231.35 322.75q2.45-9.6.85-15.1l.2-.1q1.5.1 6.5 1.55l8.95 2.35q4.15.95 7.05.8 3.75-.2 6.5-8.05 2.75-7.7 3.8-20.8 11.4 15.05 25.25 16.65 13.15 1.55 20.4-9.45-1.85 8.15-5.85 18.7-3.25 8.5-7.1 16.6-8.25 4.55-30.2 4.35-24.25-.25-36.35-7.5"/><path fill="#a1b8ce" d="M127 274q14.05 14.55 34.45 21.35 18.4 6.15 39 5.15 19.3-.95 35.45-7.8t23.8-17.4q2.05 3.35 5.6 7.9-1.1 13.15-3.85 20.95-2.8 7.9-6.55 8.1-2.65.15-7.05-.8-5.1-1.25-13.7-4.9l-1.75 1-.2-.05v.15q-22.85 12.8-49.65 13.05-32.4.35-68.3-17.8-2.2 3.35-7.9 5.55-5.15 2-6.95 1.2-1.1-3.1-.5-10.2.55-7.15 2.65-16.25 12.55-3.3 25.45-9.2"/><path fill="#911731" d="M39.5 272.05q6.4 10.3 22.55 13.55 17.1 3.45 39.5-2.4-2.1 9.1-2.65 16.25-.6 7.1.5 10.2 2.5 1.05 9.75-2.2l-8.6 6.8q-4.4 3.4-5.5 4.9l-.5 5q-7.45 3.35-17.1 4.4-9.75 1.1-19-.5-21.7-3.7-27.7-18.45 2.15-20 8.75-37.55m61.9-199.5q-.3.2-.1 1.15l.4 2q-1.85 4.25-8.15 3.95-5.65-.3-9.9-3.45-.25-4.8-3.35-6.5-2.95-1.6-8.15-.3l1.5-2.35q.6-.8 2.85-1.55 3.1-1.05 6.2-5.4 2.25-3.2 4.35-1.95 5.35 3.25 11 2.95 2.35-.15 2.9 0 1.05.3 1.4 1.85l.8 4.35q.65 3.45 1.05 4.05-1.8.6-2.8 1.2M244.5 19.6l2.55-1.5q2.05-.95 3.25-1.15l-2.55 9.95Q246 32.15 243 34.65q1.05-1 1.65-5.95.7-5.35-.15-9.1M261 131.5l6.3-.35 11.7-2.7-.6 2.4-.75 2.4q-8.45 2.95-14 4.35l-1.75-3.45q-1.45-2.85-.9-2.65"/><path fill="#38383a" d="m277.65 133.25.75-2.4.6-2.4 20.35-5.45q-5.05 4.4-21.7 10.25"/><path fill="#0f141b" d="M205.3 126.65q3.5 10.4 5.75 21.1.1.35-.9 1.4-.95 1.05-1.05.7-1.6-10.25-5.8-22.65-4.9-14.45-9.2-18-12.25-10.1-25.15-16.9-9.9-5.2-13.25-8.65-5.4-5.5-3.9-13.2.55-2.55 1.25-3.2.75-.65.4 1.85-1.05 7.8 4.25 13.15 3.3 3.3 13.1 8.4 10.6 5.6 24.75 17.3 4.7 3.85 9.75 18.7"/><path fill="#0f141b" d="M209.2 147.2q.4-.55 1.3-.55 4.3.05 14.1 6.2 12.2 7.65 19.05 18.25 1.3 2 1.4 3.3.05 1.35-1.25-.65-6.6-10.2-19.15-18.3-10.35-6.7-13.7-6.4-4.1 7-3.4 19.15.95 15.4 11.3 24.4 10.9 9.45 27.25 10.2 16.35.8 27.2-7.65 9.6-7.45 12.35-24.4 1.1-6.6.7-12.65-.35-5.75-1.8-8.3-3.05.9-11.3 7.9-9.9 8.45-14 16.15-.95 1.85-1.05.7t.85-3.05q4-8.45 14.35-16.7 9.3-7.45 11.75-6.65 1.15.4 2.2 5.85 1.15 6.15.8 13.1-.95 19.8-12.75 28.95-11.3 8.8-29 8.15-17.8-.7-29.1-10.45-12-10.4-12.2-27.45-.1-6.15 1.4-12.05 1.2-4.8 2.7-7.05"/><path fill="#0f141b" d="M276.35 63.55q-.45-2.35.45-1.8.95.55 1.35 2.85 1.75 9.7-4.55 17.05-2.85 3.3-12.85 10.3l-5.4 4q-2.4 2.05-3.1 3.7-2.1 5.4 3.85 19.6 6 14.25 19 34.7l-1.6 2.2q-11.5-18.9-17.5-32.4-7.9-17.95-5.25-24.7.8-1.95 3.35-4.2 1.7-1.45 5.7-4.25 8.95-6.25 12.4-10.55 5.75-7.35 4.15-16.5"/><path fill="#0f141b" d="M273.1 54.05q-.25-.2.4-1.5.7-1.3.95-1.1 7.85 6.85 11.45 14.85 3.55 7.95 2.1 15.25-1.35 6.75-8.15 12.85-3.6 3.25-13.15 9.35-5.25 3.4-7.55 5.4-3.2 2.75-3.9 5.25l-1.15.15q-1.05-.15-1-.5.75-2.85 4.45-5.95 2.25-1.9 8.25-5.75 8.65-5.55 12.3-8.95 6.2-5.75 7.45-12.1 2.8-13.95-12.45-27.25m-93 53.45q-.25-.2.7-1.1t1.2-.65q7.9 7.9 12.55 28.1 2.65 11.5 5.25 34.05l1.4 11.2q.7 5.1 1.45 7.2 4.1 11.35 22.9 11.95.5 0 3 1.3l2.15 1.25q-12.95 0-20.15-3.3-7-3.15-9.35-9.8-.8-2.2-1.6-7.8l-1.45-11.8q-2.45-21.5-5.5-34.2-4.9-20.25-12.55-26.4"/><path fill="#0f141b" d="M167.4 108.3q4.85 3.15 7.1 6 6.65 8.5 10.5 24.9 2.2 9.6 4.75 30.1 1.75 14.3 2.9 20 1.85 9.25 4.7 12.6 3.1 3.65 9.25 6.05 6 2.3 12.85 2.7 16.1.9 22.55-7.8l1.7.2q1.5.45 1.25.7-7.05 9.55-25.2 8.7-7.75-.35-14.4-2.8-6.9-2.5-10.2-6.4-3.2-3.8-5.2-12.75-1.65-7.6-2.7-20.05-1.55-19.35-3.95-30.5-3.5-16.2-10.1-24.6-2-2.6-7.35-5.7l-10.05-5.4q-11.75-6.35-16.4-10.15-8.15-6.6-9.35-14.3-1.4-9.15 2.9-16.7 2.75-4.85 10.85-12.95l4.35-4.15 4.35-4.45q.25-.25.8.6t.35 1.1l-7.5 7.9q-8 7.95-10.6 12.4-4.2 7.2-2.9 15.75 1.1 7.15 9 13.55 4.7 3.8 15.95 9.85 6.75 3.65 9.8 5.6"/><path fill="#0f141b" d="M269.55 2.85q.35-.35.75-.3.45.05.6.65 6.25 21.75 5.2 41.1-1.1 20-9.8 31.75-4 5.5-10.05 8.7-5.85 3.1-12.1 3.25-5.35.1-8.75-2.3-2-1.45-4.5-5.05-1.75-2.6-2.85-3.5-1.75-1.55-4.25-1.7-4.45-.25-8.1 1.35-3.7 1.6-8.25 5.8-8.75 8-20.1 7.45-11.25-.55-19.1-9.2-12.95-14.3-16.8-37.75-3.5-21.15 1.65-38.3.55-1.9 1.9-.9 3.05 2.35 11.25 6.05 9.25 4.2 14.5 4.9.35.1-.05 1.35t-.75 1.15q-4.95-1.2-13.35-5.2Q159 8.6 155 5.9q-4.25 15.35-1.4 34.9 3.55 23.9 17 38.8 7.2 7.95 17.15 8.65 10.3.75 18.55-6.85 4.9-4.5 8.9-6.3 4.2-1.9 8.9-1.6 3.1.2 4.9 1.85l3.25 4.35q2.3 3.4 4.1 4.65 2.95 2.1 7.75 2 11.7-.25 19.65-10.95 9.2-12.5 10.05-34.45.75-18.4-4.15-35.95-4.2 3.75-12.6 8.9-8.25 5.05-12.1 6.35-.35.1-.95-1.1-.6-1.15-.25-1.25 3.95-.9 13.1-6.25 9.25-5.35 12.7-8.8"/><path fill="#0f141b" d="M245.8 19.25q1.15 1.9.3 7.7-.8 5.3-2 7.35-.8 1.45-1.55 1.4-.7-.05.1-1.5 1-1.65 1.5-7 .55-5.55-.35-7.1-5.6-9.3-14.9-13.85-8.55-4.1-18.6-3.6-9.6.5-18.1 5-8.6 4.55-13.4 11.9-.75 1.15-.1 3.05.55 1.55 1.7 2.8 1.4 1.6.75 1.95-.7.3-2.1-1.3-3.8-4.3-1.8-7.3 5.55-8.55 14.8-13.55 8.9-4.85 19-5.15 10.35-.3 19.25 4.3 9.6 5.05 15.5 14.9"/><path fill="#0f141b" d="m269.15 4.2.85.05q.75.25.7.55-3.1 14-15.35 34.55-13.05 21.95-22.4 26l-.8.05-.55-.7q-1.1-2.05-9.5-2.15-8.75-.1-11.25 3-.3.4-.85.3-16.9-4.45-32.75-22.6Q163.5 27.45 154.2 6q-.1-.3.65-.65l.85-.1q8.5 19.75 23.05 36.3 16 18.25 31.25 22.55 3.2-3.15 11.75-3.25 8.3-.1 10.8 2.4 9.05-4.5 21.75-25.85 12.05-20.2 14.85-33.2m-46.3 87.35q11.25-.7 18.95 3.15 8.35 4.25 10.15 12.95l-.3 1.45q-.4 1.15-.5.8-1.7-8.95-9.95-13.35-7.4-3.95-18.2-3.35-9.2.5-16 5.15-8.05 5.45-8.15 14.3 0 .35-1-.8t-.95-1.5q.8-8.45 9.5-13.75 7.25-4.45 16.45-5.05m7.4 32q-8.35 1.35-14.35 5.65-6.2 4.45-7.3 10.15-.1.4-.7-1-.6-1.35-.45-1.75 2.4-6.6 9.45-10.75 6.55-3.85 15.3-4.65 8.65-.8 16.35 1.75 8.2 2.7 12.7 8.45l.3 1.9q.1 1.65-.1 1.35-5.6-7.2-14.5-10.05-7.9-2.5-16.7-1.05m-106.45 96q.9.05 1.9 1.15-.4 5.75-.05 10.6l-.9-.55-1-1.25q-.35-4.5.05-9.95m20.8-59.15 1.8 1.15q-10.95 18.95-16.25 36.65l-1.45-2.5q5.45-17.4 15.9-35.3m32.3-40.75q.25-.2.8.4t.3.8q-9.4 8.8-18.5 20.95-.4-1.35-1-2.05 9.2-11.85 18.4-20.1m-80.25 52.7q9-17.75 23.7-36.65l1.75 2.4q-14.55 19-23.2 35.8-10.3 19.95-9.9 32.6l-.3.65Q59.6 231.3 45.1 261.9q-14.4 30.6-14.8 68.7 0 .35-2.45 1.35Q28 291.15 42 261.2q13.85-29.65 44.4-55.1-.05-13.5 10.25-33.75m58.4-69.55q-4.35 3.05-11.15 9.9h-3.4q7.35-7.35 12.9-11.15.3-.2 1.15.45.8.6.5.8m-41.3 201.55q-.35-.15.45-1.1.75-.95 1.05-.85 37.95 18.4 72.6 16.7t59.8-23.25q1.9-1.6 1.6-.45t-2.2 2.75q-26.4 22.6-60.5 23.95-33.45 1.3-72.8-17.75M59.7 347.9q-.25.75-.05 1.9l-5.05-.95 2-1.45z"/><path fill="#0f141b" d="M122.15 289.2q.55-2.45 1.05-1.85.5.55.25 3.05-.55 5.55-7.35 12.6-3.9 4-12.05 10.35-6.65 5.05-7.95 6.65-1 14.35-7.35 22.5-5.45 6.9-13.65 8.05.15-1.2.65-2.3 7.3-1.65 12.05-8.3 5.6-7.75 6.45-20.85 0-.3.15-.45 1.15-1.55 7.75-6.7 8.25-6.4 12.2-10.4 6.6-6.65 7.8-12.35M41.3 343.05q0 .6-.55 1.6l-2.9-1.4 1.7-1z"/><path fill="#0f141b" d="m58.1 326.9 19.15.6q9.8-1.1 17.35-4.8.3-.15.3.95-.05 1.05-.35 1.2-7.8 3.8-17.85 4.9-9.95 1.05-19.4-.8-21.8-4.25-27.1-19.05-.1-.3.3-1.75.45-1.5.55-1.15 5.25 15.8 27.05 19.9m30.4-122.25q15.05-1.5 27.65 12 12.4 13.3 14.1 31.95.25 2.65-.4 3.3t-.9-1.95q-1.75-19.2-14-31.75-12-12.3-26.7-10.85-.35.05-.25-1.3.15-1.35.5-1.4"/><path fill="#0f141b" d="M124 230.6q.2-.25.8.35l.45.7q-14.7 17.9-21.75 46.45-2.55 10.45-3.45 19.85-.8 8.2 0 11 1.4.3 4.55-.75 2.65-.9 5.15-2.3.35-.2.15.9-.2 1.05-.8 1.3-7.2 3.45-10.05 2.3-.4-.2-.45-.5-1.5-4.3-.65-13.8.9-9.75 3.95-21.1 7.65-28.05 22.1-44.4m142.6-30.55q-.05-.35 1.35-.7l1.45-.05q2.85 13.7 2.05 34.55-.95 24.2-7 35.3-1.15 2.15-1.85 2.35-.7.15.25-2.05 5.65-13.1 6.25-36.35.45-20.05-2.5-33.05"/><path fill="#0f141b" d="M264.45 221.7q-.05-.35.7-1.2t.8-.5q.85 7.85 1.1 22.65.2 13.65-.2 15.45l-1.3 4q.45-2.05.05-17.85-.4-16.2-1.15-22.55M35.9 62.4Q23.25 75.3 14.35 97.45q-9.7 24-11.2 50.25-1.75 29.75 7.7 56.3Q21.6 234.3 46 257.25q.25.25-.5 1.75t-1 1.25Q18.75 236 7.75 204.65-1.8 177.4.45 147 2.4 120.6 12.7 96.2q9.35-22 22.05-35 5.2-5.3 7.4-4.15 2.1 1.1 1.1 7.7-1.6 10.45-1.4 23.5.3 15.95 3.45 30.25 8.45 38.1 34.1 52.75.3.15-.6 1.1-.9 1-1.2.8-26.5-15.1-34.55-53.8-5.7-27.2-1.45-54.85.75-4.8-.55-5.4-1.35-.6-5.15 3.3"/><path fill="#0f141b" d="M32.55 92.75q.35-2.55.75-2.25t.3 2.6q-.45 8.15.35 16.8 2.55 27.25 17.75 48.95 15.55 22.25 39 30.5.35.1.1 1.2t-.55 1q-25.5-9.7-41.1-32.9Q34.65 137.1 32.3 110q-.8-9.35.25-17.25"/><path fill="#0f141b" d="m46.75 128.75-.05 2.85q-10.75-12.7-13.15-13.9-11.7 4.35-20.7 16.85Q3.1 148 2.5 163.55q-1.7-3.65-1.35-6.15 2-14.55 11.8-26.45 9-10.85 20.35-14.9.9-.3 5.3 3.9 4.05 3.9 8.15 8.8m-5 14.45q1-.35 8.4 5.1l10.3 8 .9 1.7q.65 1.45.4 1.25l-10.55-8q-7.7-5.8-9.2-6.4-17.65 5.4-26.9 23.25-8.45 16.35-5.7 33.55v.15q0 .3-1-.4l-1.1-1.05q-3.2-18.5 6.95-35.05 10-16.35 27.5-22.1"/><path fill="#0f141b" d="m54.9 164.55 7.05 1.55q6.9 1.65 14.65 4.5.35.1 0 .9l-.6.65-9.55-2.95-11.2-3q-6 2-12.45 9.4-6.9 7.85-11.05 18.35-10.6 26.75 2.65 51.25l-1.85-1q-1.9-1.15-2.05-1.4-11.3-24.75-.25-50.75 4.45-10.45 11.5-18.15 6.7-7.25 13.15-9.35"/><path fill="#0f141b" d="M73.6 181.55q.25-.25.8.4.55.6.3.8-33.95 31.8-25 69.2.1.35-.95 1.15-1 .8-1.1.45-4.8-20.1 1.95-38.25 6.55-17.45 24-33.75m-2.4-1.3q-.3.2-1.1-.6-.75-.75-.5-.95l12.9-12.1 16.05-14.85q.9-.75 1.15-.8l1 .85 5.2 7.9q.2.3-.5.75t-.9.15l-5.05-7.75zm36.9-51.6 3.8-.4q.35 0 .35.85 0 .8-.35.8h-3.3l-.2 26.8-1.15 1.15q-1.2.85-1.2.5l.85-28 .25-1.25q.2-.3.95-.45m22.15-34.8 12.4.85q.75.05 1.6.95.85.85.4.85l-14.45-1v15.7q0 .35-1 .45-1.05.1-1.05-.25.05-11.25.25-15.75.1-1.3.4-1.55.25-.3 1.45-.25"/><path fill="#0f141b" d="M114.2 147.65q1.4-1.85 1.35-1.4-1.75 22.35 12.5 47.7 14 24.85 32.55 33.85 1.65.85 1.75 1.7.1.95-2.4.9-26.9-.85-46.25-16.05-20.15-15.85-18.45-37.25.05-.35 1.1-.9 1.05-.6 1.05-.3v.1q-1.1 8.8 2.65 17.8 3.75 9.05 11.7 16.5 17.9 16.8 46.8 18.3-18.95-9.95-32.6-34.2-13.1-23.25-13.1-44.1 0-.8 1.35-2.65M260.6 202q.1-.3 1.35-.3l1.2.15q-1.95 4.65-8.9 15.05-7.75 11.6-12.85 16.5 8.75-2.6 16.05-7.15 8.25-5.1 11.7-10.95.15-.3.15 1.2l-.2 1.75q-3.45 5.85-12.35 10.75-7.75 4.25-17.05 6.6l-2.65.05q-.3-.55 1.7-2.05 4.5-3.45 12.4-15.35 7-10.6 9.45-16.25m5.35 58.05q-.05-.8.95-3.8.95-3 1.05-1.45 1.55 21-3 39.85-4.35 18.05-10 18.4-4.35.25-11.75-1.65-5.85-1.5-10.55-3.5l2.75-1.7q5.55 2.35 9.2 3.5 6.25 1.95 10.25 1.7 4.25-.25 8.2-18.4 3.95-18.2 2.9-32.95m4.3-36.85q-.35-.2-.1-1.95.2-1.75.4-1.65 19.55 10.55 31.35 27.05 11.4 16 11.85 32.4.3 10-6.7 28.45-4.25 11.1-10.15 22.9l-1.15-.15q-1.05-.45-.9-.75 5.85-11.75 9.95-22.6 6.95-18.15 6.65-27.85-.45-15.15-11.8-30.55-11.3-15.3-29.4-25.3"/><path fill="#0f141b" d="m231.75 307.6 1.3-.15q2 6.25-1.15 17.45l-3.4 11.3q.7 4.3 13.2 8.15 11.9 3.65 22.55 3.5l.75 1q.55 1 .25 1-10.85.4-23.95-3.4-14.3-4.15-15.4-9.45-.3-1.45.9-4.9l2.65-7.1q3.6-10.25 1.2-16.65-.1-.3 1.1-.75"/><path fill="#0f141b" d="M231.55 323.85q-.15-.1-.05-1t.35-.75q11.8 7.6 36.25 7.3 9.85-.1 18.3-1.55 8.3-1.45 11.6-3.6.3-.2.3.95l-.25 1.3q-3.3 2-11.45 3.35-8.4 1.4-18.2 1.5-24.35.1-36.85-7.5m-53.65-155.4q1.55 1.15 1.2 1.7-.35.5-2 .4-18.55-1.2-35.65-10.1-13.45-7-16.2-11.95-.2-.3.7-.85.85-.55 1.05-.25 3.45 5.05 16.25 11.75 16.15 8.45 33 10.05-8.25-7.1-19.45-29.8-10.85-22-11-30.35 0-.35.95-.95.95-.65 1-.3.1 8.3 11.1 31.15 11.35 23.75 19.05 29.5m42.2 9.1q-1.5-.5-.65-.75l2.35.25q13.15 4.75 16.6 15.2.35.95-.45 1.25-.75.25-1.1-.7-1.75-5.35-6.95-9.65-4.3-3.65-9.8-5.6"/><path fill="#0f141b" d="m224.95 179.15.75-.05q.75.3.75.65 0 4.45 2.95 7.2 2.8 2.65 7.4 2.8.35 0 .3.85 0 .8-.35.8-5.15-.15-8.45-3.6-3.35-3.45-3.35-8.65m51.8-5.4q1.4-1.2 2.2-1.1.8.15-.65 1.3-4 3.3-7.45 9.5-2.85 5.1-3.3 7.9-.15 1.05-.95.95-.8-.15-.65-1.2.45-2.95 3.15-7.85 3.35-5.95 7.65-9.5"/><path fill="#0f141b" d="M273.7 177.4q0-.35.85-.75l.8-.05q-.2 4.3-1.55 7.6-2.15 5.1-6.65 6.1-.35.1-.5-.7-.2-.8.15-.9 3.75-.85 5.55-4.95 1.2-2.7 1.35-6.35M204 47.85q-1.1-1.45-.45-1.25.65.15 1.7 1.55 1.05 1.35 2.25 4t1.4 3.95q.15 1-.65 1.1-.85.1-1-.9-.15-1.2-1.25-4.15-1.2-3.2-2-4.3m27-1.95q-.25-2.55.25-2.1.5.5.85 3.1 1.05 7.9-1.1 11.9-.55 1.05-1.25.75-.7-.35-.15-1.35 1-1.9 1.35-6.15.3-3.45.05-6.15M83.3 71.45q.45 1.1 3.85 20.15l3.35 18.8q.45 2.25 5.05 6l9.75 7 8.65 6.05q4.5 3.4 6.75 6t3.8 7.6l.9 2.5q.55 1.1 1.2 1.3 3.55 1.1 8.05-2.2 4.2-3.05 7.55-8.7 3.45-5.75 4.35-11.6 1.05-6.4-1.5-10.8l-15.95-.8q-12.8-1.15-16.55-3.4-1.35-.8-6.9-18.6-5.35-17.2-5.35-18.6 0-.35.8-.35t.85.35q.1 1.35 5.25 17.6 5.25 16.55 6.3 18.2 3.6 1.9 16.2 2.75l15.95.55q.45 0 .7.4 3.25 5 2.25 12.3-.85 6.5-4.75 13.05-3.8 6.3-8.6 9.75-5.1 3.7-9.1 2.5-2.3-.7-3.7-5.3l-1.3-3.5q-.9-2.05-2.2-3.55-4.2-4.85-14.55-11.8l-10.75-7.5q-4.9-3.85-5.4-6.55l-3-18.85Q82.2 73.1 81.8 72q-.65-1.65-4.7-2.2-4.2-.55-5.6 1.25-.3.5.5-1.45.7-1.75 1-1.85l5.4.35q4 1 4.9 3.35"/><path fill="#0f141b" d="m77.25 46.05.6 2.15q-2.15 2.15-3.05 2.15l-10.5-.3q-1.25.45-3.6 3.95-2.05 3.1-3.5 6.2-.7 1.5 2.25 12.4 3.35 12.2 7.5 17.55.5-7.45 1.8-13.05 2.05-9.1 5.7-11.15 1.8-1 2.3-.65t-1.35 1.3q-3.3 1.85-5.35 12.2-1.55 7.8-1.55 13.4 0 .95-.35 1.2t-1-.35q-5-5-9.35-18.2-4.15-12.5-2.8-15.45 1.2-2.6 3.4-5.9 2.95-4.45 4.85-5.15l11.5.35z"/><path fill="#0f141b" d="M86.8 17.85q2.4-.25 8.3 2.95 6.05 3.25 6.75 5.45.55 1.95.55 7.7-.05 10.4 1.75 12.75 1.85 2.45 11.75 4.95l3.45.8 1.85.6q1.95 1.2 4 4.2 2.4 3.55 2.6 6.7.25 3.4-2.2 11.8-2.8 9.7-6.25 12.95-.65.65-.95.45l-.4-.85q-1.2-4.8-3.3-8.2-2.35-3.8-4.8-3.9-3.65-.15-5.5-3.15-1.3-2.1-2.3-7.1-.4-2.15.15-2.9t.95 1.4q.95 4.55 2.2 6.85 1.75 3.15 4.6 3.25 2.9.15 5.5 3.75 2.25 3.2 3.65 8.1 2.8-3.8 4.85-12.95 1.65-7.35 1.5-9.45-.2-2.85-2.4-6-1.75-2.55-3.25-3.5l-4.35-1.25q-10.15-2.55-12.65-5.45t-2.5-11.95q-.05-7.05-.45-8.55-.5-1.55-5.8-4.75-5.35-3.25-7.15-3.05-1.45.1-4.7 2.6-3.45 2.55-6.2 5.75-2.1 2.45.5 11.75 2.75 9.8 7.85 14.8.1-4.75 2.9-11.75 2.5-6.45 4.95-9.4 1.55-1.85 1.65-.85.1.9-1.25 3-2.65 4.1-4.7 9.95-2.5 6.95-1.8 10.9.15.7-.3 1-.45.25-1-.2Q78.5 52 74.6 41q-3.9-10.9-.8-14.45 2.75-3.2 7-5.95 3.95-2.55 6-2.75"/><path fill="#0f141b" d="M82.75 31.8q6.65 1.5 6.65 9.3 0 .35-.8.95-.85.6-.8.25.5-7.3-5.2-8.75l-4.4.25q-2.2.85-3.05 2.8-.1.3-.7-.3-.55-.6-.4-.95 1-2.2 3.55-3.2 2.45-1 5.15-.35M57.2 69.5q1.75-5.3 7.95-4.7 6.1.6 7.2 5.45.1.35-.7.5-.8.2-.9-.15Q70 67.15 65 66.8q-5.05-.3-6.25 3.25l-.9.05q-.75-.25-.65-.6m54.5 6.4q-1.9-8.2 4.6-10.95 2.7-1.1 5.6-.45 3 .7 4.85 3.05.25.25-.4.8-.7.5-.9.2-1.7-2.2-4.25-2.65-2.4-.4-4.55.8-5.15 2.9-3.15 9.65l-.8.05q-.95-.25-1-.5m-29.3-3.15q-.2-.25.35-.85t.8-.35l4.4.2q2.05-.05 1.35.6-.7.7-2.75.8-3.2.5-4.15-.4m21.65-2q.35-.1.6.65.3.8-.05.9l-4.35.75-3.85-.3q-1.75-.5-2.2-1.2t1.3-.2l3.95.15q3.05-.2 4.6-.75m3.5 24.8q.05-.35.8-.2.75.1.7.45-.85 6.2-9.3 8.05-8.3 1.8-12.2-2.45-.25-.25.3-.8t.8-.3q3.15 3.45 10.6 1.85 7.6-1.65 8.3-6.6m13.05 15.5q-.1-.3.65-.6l.9.05q2.45 6.65-.7 12.6-3.05 5.65-8.8 6.7-.35.1-.7-.8-.35-.85 0-.95 4.65-.85 7.6-5.4 3.4-5.3 1.05-11.6m164.1-1.5q2.2-.55 1.7.3t-2.7 1.4q-6 1.5-16.15 2.8l-13.95 1.2-.8-1.1q-.55-1.15-.25-1.1l14.5-.9q11.8-1.15 17.65-2.6"/><path fill="#0f141b" d="M303.5 89.65q.25-.2.8.4.6.6.35.85l-20.1 19.55-1.65.1q-1.45-.1-1.2-.3 1.2-.75 21.8-20.6m23.25-4.85q.2-.25.75.25.55.55.35.8l-12.25 18.2q-12.4 18.05-14.95 19.55-4 2.4-16.9 7.95-12.85 5.55-19 7.5-.35.1-.95-.95-.65-1.05-.3-1.15 6.9-2.15 19.05-7.1 13.2-5.35 16.75-7.7 1.9-1.25 14.65-19.2zm-18.3-9.3q.6-1.6 1.05-1 .4.55-.2 2.15-.8 2.05-1.7 2.85-.25.25-.55-.6t-.05-1.1q.85-.7 1.45-2.3"/><path fill="#0f141b" d="M330.05 36.95q4.55-1.4 6.5-.85 1.45.4 5.2 3.4 3.85 3.1 4.2 4.25.45 1.5-.4 6.15-1 5.3-3 6.1-.3.1-.6-.6-.35-.75-.05-.9.7-.6 1.4-5.2.7-4.5.4-5.5-.35-.8-3.45-3.3-3.1-2.55-4.1-2.85-1.35-.35-4.95.8-3.45 1.15-6.1 2.7-.75.45-3.7 7.1-3.25 7.6-4.9 9.35-3.2 3.45-7.2 5.65-5.5 3-13.95 4.55-.6.65-1.85 4.65t-1.4 5.8q0 .95 3.9 3.55l1.3 3.25-4.9-3.25q-2.85-2.05-2.75-3.1.1-1.75 1.5-6.75 1.75-6.05 3.15-6.3 12.5-2.25 18.25-7 4-3.35 7.35-11.05l2.1-5.4q.85-2.1 1.6-2.55 2.5-1.45 6.45-2.7"/><path fill="#0f141b" d="M297.55 80.7q-.45 1-.15 1.75 1.1 2.9 4.8 5.55 3.85 2.7 8.15 3.4-2.15-3.05-3.2-8.15l-.6-4.55q-1.15-.95-3.45-.85-2.3.15-4.1 1.25-1 .65-1.45 1.6m-.15-3q2.35-1.45 5.65-1.5 3.5-.1 4.95 1.55.4.45.8 4.9.8 5.1 3.35 8.4 1.95 2.55-1.3 2.1-5.1-.6-9.7-3.6-4.45-2.95-5.7-6.25-.6-1.6-.15-3.05.5-1.6 2.1-2.55m28.5-30.4q1.25-1.55 2.05-1.4.75.1-.55 1.6-1.1 1.3-1 4.3.15 3.5 2.4 5.85.25.25-.35.85-.55.55-.8.3-2.65-2.75-3.05-6.35-.3-3.3 1.3-5.15"/><path fill="#0f141b" d="M337.9 61.7q3.05-4.3 3.4-6.6.2-1.2-2.7-2.55-2.8-1.25-4.45-.95-1.95.4-3.5 2.75-1.35 2.1-1.35 3.8v.15l.8 6.25q.45 3.8.3 5.55 4.25-3.85 7.5-8.4m1.9-10.5q3.45 1.9 3.15 4.15-.35 2.4-3.7 7.2-3.55 5.05-7.8 8.85-1.75 1.6-2.25 1.35-.45-.25-.4-2.5.05-3.45-.7-8.3l-.5-4.55q-.15-2.15 1.4-4.45 1.75-2.6 4.4-3.1 3-.55 6.4 1.35m-31.3 33.45q2.75-.95 5.95-.9 1.5.1 2.15.7.6.65-.85.55l-3.95.5-2.75.85zm28.35-4.7q1.1-.65 2.8-.7 1.45 0 2.3.4l.5 1.15q.15 1.05-.15.85-.9-.55-2.25-.6l-2.35.3-3.4 2.65q-2.8 2.3-4.15 2.6l-3.45-.35-3.8-.7q-1.65.05-1.35-.45t2-.9q1.2-.3 3.5.05l2.6.3z"/><path fill="#0f141b" d="m349.2 64.25 4.4.25q2.15.6 4.2 2.65 2.1 2.05 2.3 3.75.8 5.75-3.55 13.65-4.5 8.15-10.55 11l-.95.05q-.3-.25-.2-.85.65-5.75-.45-9.05-.6-1.9-2.4-3.95-1.3-1.5-1.75-2.55-.65-1.7-.25-4.2.35-1.9.95-1.35.65.5.6 2.45-.1 2.55 1.7 4.55 2.35 2.7 3.1 6.3.55 2.65.25 6.3 5.55-3.45 9-11.3 2.9-6.75 2.35-10.75-.15-1.2-1.6-2.9-1.6-1.75-3.15-2.2l-4.05-.2-7.75-.45q-3.3-.35-4.2-1.25-.15-.15.5-1.3.65-1.2.8-.9 1.05 1.95 10.7 2.25"/><path fill="#0f141b" d="M344.1 82.8q-.65-.6-.55-.8 1-2.05 3-3.4 2.25-1.5 4.8-1.4l3.65.35q1.75.55 2.25 3l-.75 1.25q-.75 1-.8.65-.2-2.4-1.25-3.05-.7-.45-3.2-.55-2.1-.05-4 1.3-1.7 1.25-2.4 3-.1.3-.75-.35m-73.7 30.8q-.35 0 .45-.8.8-.75 1.15-.65 5.4 1.35 7.6 8.2 2.35 7.3-2.4 13l-1.15.15q-.95-.15-.75-.4 4.45-5.35 2.55-12.45-1.85-7.05-7.45-7.05m22.35-12.8q.1-.3 1.05-.6t.85 0q-2.1 5.55 2.15 9.4 4.3 3.85 11.05 2.35.35-.05 0 .85l-.65.95q-7.25 1.2-11.7-3.2-4.2-4.2-2.75-9.75M268.7 84.9q.25-.65 1.3-1l.9.05-3.3 8.35q-3.25 8-3.75 8-.65 0-3.95-5.8l.75-2.2 2.95 5.4z"/><path fill="#0f141b" d="M259.5 91.3q.05-.35.85-.25.85.1.8.45-3.5 14.55-4.55 14.8-.6.15-3.4-2.2l-2.7-2.45q-.2-.25.45-.8t.85-.3l1.95 1.95 2.25 1.85 2-7.1zm-87.4 2.1q-.05-.35.7-.6.8-.3.85 0l2.2 6.8 2.9 8.6 6.35-8q.25-.2.75.4.55.6.3.85l-6.65 7.8-1.15.8q-.35-.05-.8-1.1l-3.4-9.25z"/><path fill="#0f141b" d="M162.55 86.8q.9-.05.95.3.2 1.55 2.1 7.2l2.85 7.85 2.6-4.2 2.05-3.7q.15-.3.55.8l.2 1.4q-2.4 4.3-4.1 6.6-1.05 1.45-1.55 1.35-.45-.1-1.25-1.85-1.3-2.8-3.4-9.3l-1.85-6.05q-.05-.35.85-.4m49.65 99.45.65.55q.3.6-.05.7-.5.2-3.7 2.1-3.15 1.9-4 2.5-.25.2-.75-.5-.5-.65-.2-.85l3.85-2.3q3.6-2.05 4.2-2.2m1.7 3.35.7-.05q.65.25.6.6l-.85 3.6-1.05 3.35-.85-.1q-.7-.45-.55-.75l1.1-3.2zm67.8 155.7q-5.65-5.8-7.15-6.45-3.55-1.5-6.95 1.45-3.1 2.7-3.1 5.75 0 .95.45 1.7.75 1.2 9.8 3.65 8.45 2.25 15.5 3.4-3.3-4.1-8.55-9.5m-15-6.45q4.45-3.85 8.5-2.1 1.8.8 7.9 7.3 5.8 6.2 8.65 10.15 1.2 1.65.9 2.1l-2.45.25q-5.45-.55-15.8-3.35-10.5-2.8-11.2-3.95t-.7-2.6q0-4.1 4.2-7.8"/><path fill="#0f141b" d="M298.75 338.3q-6.95-4.95-8.65-4.9-3.4.2-5.65 4.45-2.1 4-1.2 6.8l-1.05-.15-1.2-.85q-.65-4.1 2.1-7.85 2.95-3.95 7.6-4.15 2.3-.1 10.15 5.75 7.75 5.8 10.65 9.65.95 1.25.6 1.75-.35.55-2.25.6-4.3.2-23.5-.4l-1.35-1.95q19.7.65 24.8.55-4.05-4.3-11.05-9.3"/><path fill="#0f141b" d="M292.8 333.6q-.15-1.3.95-2.9 1.25-1.9 3-1.55 1.45.25 7.25 4.45 5.9 4.25 8.5 6.95 1.15 1.2.95 1.7-.2.45-1.85.5l-6.05-.4-1.35-1.85q2.9.3 6.05.1-3-2.5-8-5.95-4.55-3.15-5.95-3.85-.8.1-1.15 1.5-.25 1-.2 2.05l-1.05-.05q-1.05-.35-1.1-.7m-263.35-1.1q-1.15 1.2-4.85 9.25-3.7 7.95-5.45 12.9l11.8-7.25q7.55-4.85 8.1-5.75.8-2.6.55-5.45-.3-3.7-2.55-5.05-1.8-1.05-3.9-.65-2.1.35-3.7 2m11.85 1.75q1.05 3.35-.25 7.45-.45 1.4-8.8 6.95-7.65 5.1-12.75 7.75-1.3.7-1.9.3-.6-.45-.1-2.15 1.35-4.45 5.25-13.25 3.7-8.4 4.85-9.9 1.9-2.5 4.85-2.95 2.7-.4 5.1 1.05 2.75 1.65 3.75 4.75"/><path fill="#0f141b" d="M51.55 336.8q-2.45-.85-4.85.1-2.75 1.1-4.3 4.2-.85 1.8-2.85 9.15-2.1 7.7-3.25 13.7l13.2-10.75q6.2-5.35 6.6-6.35.6-2.7-.3-5.45-1.15-3.5-4.25-4.6m-10.65 3.15q1.3-3.25 4.95-4.55l6.25-.15q3.2 1.15 4.9 4.3 1.95 3.6.9 8.05-.35 1.6-8.3 8.2-6.95 5.75-12.2 9.4-2 1.4-2.4 1.15-.4-.2-.15-2.3.45-4.15 2.8-13.1 2.1-8.2 3.25-11m28.45 0q-2.4-.35-4.8 1.5t-3.6 4.95q-1.1 2.85-1.9 19.3 4.75-4 10.05-9.5 5.55-5.7 5.7-6.9-.3-4.1-1.75-6.55-1.4-2.45-3.7-2.8m-6.7.95q3-2.55 6.1-2.55 2.6 0 4.7 2 3 2.8 3.45 8.7.15 1.65-6.85 8.8-5.85 6-10.45 9.8-.8.65-1.35.45-.65-.25-.7-1.7-.1-3.5.45-10.5.45-6.45.9-8.9.6-3.45 3.75-6.1"/></svg>