<svg xmlns="http://www.w3.org/2000/svg" width="323" height="372" viewBox="-0.2 -0.35 323.35 372.35"><path fill="#e60013" d="M272.2 1.25q.4.25-1.3 4.95l-3.7 9.05-11.35 24.1 2.4-1.8q2.5-1.75 2.95-1.25.5.6-4.45 8.6L245.8 61.45 232.7 79.2l-7.15 9.15-7.95 2.35-13.2-10.55 2.3-14.7q3.5-7 12.7-21.6 8.95-14.2 9.4-13.85.6.45-2.9 12.15l8.95-13.3q9.1-13.3 9.55-13 .7.45-2.15 10.75Q266.85 4.5 268.8 3l2.2-1.6zM88.1 43.9l-3.05-5.4q-2.9-5.5-2.05-6 1.55-1 18.4 17.8 15.45 17.2 22.4 26.5l-5.45 15.05q-3.35 1.35-7 2.5-7.25 2.2-8.7.95L81.8 80.15Q62.7 66.45 63 66.05l4.3.1 3.95.55Q55.9 55.95 9.1 10.35 7.15 8.2 6.85 7.25l.1-.55Q8.4 5.45 28 13.7q19.25 8.1 31.85 15.15l-5.45-9.1q5.15 1.45 19.95 12.95z"/><path fill="#f3993a" d="m253.3 284.85 20.5-.75 37.25 9 4.1 8.75q4.05 9.5 3.85 13.05-.15 3.55-3.9 9.85-1.85 3.15-3.7 5.6l-.35 1.65q-1.8 3.3-8.35 6.55-3.25 1.65-6.2 2.6-.65 1.55-5 3.9-4.6 2.4-8.3 2.95-3.2.45-6.75.05l-2.9-.55q-1.75 1.85-8.1 1.6-5.95-.25-11.1-2-4.05-1.35-10-7.05l-5.2-5.45-4.8-1.3q-5.2-1.6-7.05-3.2-2-1.8-3.8-6-1.55-3.65-1.9-6.4-.25-2.05 2.95-6.7 2.85-4.25 4.15-5 1.4-.8 7.5-10.2zm-101.95 12.6 3.15 1.1 11.65 3.05q13.05 3.1 15.95 6 .75.75.6 3.45-.15 2.55-.85 3.7-.85 1.4-3.55 2.65-1.35 1.6-4.3 2.2l-2.7.25q-3.3 1.7-6.65 1.75l-2.75-.3-6.6 1.05q-1.2 0-5.8-3.45-4.55 1.05-6.45.8-1.15-.2-3.45-2.8l-3-3.5q-.8-.8-.65-3.85.1-2.15.45-3.55.15-.55 2.45-3.45l2.3-2.85zM21.45 341.4q-.35-2.1.55-15.8l.95-13.3 32.65-6.55 44.55 3.5 20.1 17.1q1.1 1.1 2.15 3.7 1.15 2.95.95 5-.2 2-3.65 7.2-3.2 4.75-4.7 6.05-1.7 1.35-7.7 4.05l.25 1.55q.1 1.95-.65 4.05-.8 2.3-7.45 5.45-5.75 2.75-9.55 3.5l-3.7.2-.6-.4q-2.6 5.2-15.25 3.7-5.35-.6-8-2l-1.55-1.3q-12.55-1.7-17.35-3.4-2.95-1.05-3.9-2.3l-.35-1.05q-10-4.6-11.95-5.8-1.4-.85-3.4-5.75-1.9-4.5-2.4-7.4"/><path fill="#f3993a" d="m7.1 295.4 7.4-4.7 9.35 5.9 4.75 13.65-6.45 8.65-11.35-.5q-1.5-.15-4.2-2.15-2.75-2-4.25-4.15-2.4-3.25 0-10.75.65-1.9 2.75-4.1z"/><path fill="#ad191f" d="m204 136.85 3.65 2q3.8 2.2 4.4 2.9.75.9 2.2 4.75 1.5 3.85 1.5 4.9 0 1.35-1.55 5.3l2.95 9.25 13.65 11.95q16.5 15.25 30.75 31.45t28.7 41.55q7.2 12.7 11.55 22.1 19.65 20.8 19.05 21.6-.55.8-11.95-1.15 5.3 15.1 4.5 15.5t-15.3-10.6q-.8 18.65-1.6 18.85t-14.15-11.6q-9.8 14.95-10.6 14.95t-9.6-18.3q-9.85 9.45-10.65 9.45-.75 0-7.25-20.05-12.55 6.5-12.95 5.9-.25-.35 2.5-4.85l4.15-6.95q1.95-3.6 2.65-6.45 1.15-4.75.1-10.45-3.8-20.85-10.15-36.65-4.4-11.05-12.25-24.05-3.45 24.8-21.1 45.75-8.85 10.45-17 15.95l.25 6.05q-.1 6.85-1.8 11.05-1.7 4.15-6.45 8.55l-4.35 3.6 2.55 3.35-4.55-.75q.8 2.75.2 2.95-.6.15-7.25-2.95l-4.35 3.5-6.45-4.3q-5.7 2.35-6.1 2.15t-1-5.3q1.25-1.95 1.85-6.6l.35-4.2q-15.25 3.45-33.3 1.95l-10.95-1.35-4.1-.8q1.2 7.95 6.9 17.25 2.85 4.65 5.45 7.7-.55.8-4.3-.4l-3.15-1.95q0 13.95-.95 14.15-1 .2-12.8-8.25-4.7 23.35-5.3 23.35T64.9 318q-12.8 25.7-13.55 25.7-.8 0-10.65-27.5-11.2 16.5-12.15 16.5-1 0-2.95-19.25-7.1 4.35-7.85 3.75-.8-.6 4.7-20.25-2.55 1.4-3.35 1.4-.75 0-6.65-4.35l-8.45.8q-.55-.25 2-3.7 2.3-3.2 3.9-4.75 6.55-6.55 10.3-13.9 2.85-5.5 4.6-12.6 1.2-4.9.15-12.75l-1.3-6.9q-8.7-8.8-13.9-27.45-3.7-13.15-4.8-27-.65-8.75.45-13.45.85-3.7 2.9-5.4 1.4-1.15 4.2-.7l7 1.5q3.95.8 8.6-2.15 3.7-2.35 5.75-5.5 2.4-3.75 10.75-14.1 10.6-13.2 21.05-24.4 11.5-12.35 30.4-19.55 17.6-6.75 36.4-7.2 16.05-.4 30.7 5.9 10 4.3 21.4 12.95 7.2 5.55 14.05 14.9 3.45 4.7 5.4 8.3"/><path fill="#f3993a" d="M203.2 135.9q1.9 3.85 1.9 6.1 0 1.15-1.25 4.65-1.3 3.55-1.9 3.8-.85.3-13.05-2.15l-6.05 3.8q-6.15 3.85-6.7 3.95-.4.1-10-4.8-9.65-4.95-10.15-4.95-1 0-25.15 5.3l-8.5-9.4q-8.6-9.6-9-10.45-.4-.8 7.05-9.25l7.5-8.25 6.3 4.65q7.4 4.95 12.85 6.4t10.15-1.35q2.35-1.4 3.6-3.1 8.4 4.95 9.25 4.95.8 0 4.1-3.3l18.2-1.65q7.65 8.6 10.85 15.05"/><path fill="#fff" d="M129.75 123.55q2.8-3.2 5.6-3.7l9.45 4.25q3.8 1.65 6.2 1.9l1 2.65q.65 3.6-1 8.35-1.85 5.25-6.9 7.35-4.5 1.85-8.75.55-3.9-1.15-6.55-5-2.8-3.95-2.5-8.45.25-4.3 3.45-7.9m51.3 7.2q-.5-3 .1-5.6 1.7.6 4.1-.95t2.7-1.45q1.15.4 4 2.75 3.45 2.8 4.85 5.3 1.75 3.2 2.25 6.65.55 3.95-1.15 5.6-1.95 1.95-5.2 1.1-3.65-.95-7.4-5.05-3.45-3.75-4.25-8.35m-4.55 38.05q1.9-.2 17.15-9.7 12.2 5.15 13.85 4.95t6.7-7.35q.55 9.6.35 13.1-.65 10.8-5 20.25-5.2 11.45-16.8 18.2-12.05 7-26.75 6.4-14.55-.6-27.9-8.05-12.55-7.05-20.45-18-6.3-8.75-7.8-23.1-.5-4.5-.4-9l.15-3.6q18 11.35 19 12.2 1.05.8 25.2-6.85 20.85 10.75 22.7 10.55"/><path fill="#f3993a" d="M140.15 227.65q5 2.25.45 15.8-2.05 6.1-6.6 9.8-4.05 3.25-6.85 2.5-2.7-.65-2.9-6.45-.25-6.3 3.35-12 3.5-5.5 7.5-8.2 3.4-2.2 5.05-1.45m16.1 32.2q-2.7-1.25-2.4-7.35.35-7.1 5.35-15.6 4.75-8.15 9.85-10.9 3.7-1.95 5.95-.7 2.75 1.5 2.35 7.15-.45 5.95-4.3 14.4-3.6 7.85-9.25 11.4-4.65 2.9-7.55 1.6m41.95-32.2q2.7 1.25 1.65 7.25-.9 4.85-2.9 8.45-2.25 3.95-5.05 6.95-4 4.2-6.55 3.1-2.85-1.25-2.15-7 .6-5.45 3.8-11.2 2.65-4.8 6.55-6.75 3-1.5 4.65-.8"/><path fill="#ffe100" d="m115.65 66.95 3.75 4.25q4.6 5.45 8.7 11.15 6.5 9.1 17.45 25.6 2.35-2.75 6.45-2.4 3.15.25 5.75 1.9 2.3 1.45 3.6 4.45 1.5 3.5.15 6.65t-3.7 4.8q-1.75 1.2-5.25 2.2-2.8.8-7.95-1.35-3.8-1.65-11.45-6.15-5.5-3.25-24.9-18.05L89.9 85.8q-7.95-9.05-7.5-9.7.3-.35 10.7 6.85l10.35 7.3-3.35-4.15q-3.3-4.2-3.15-4.45.2-.3 4.2 1.75l4 2.1-4.7-6.5q-4.7-6.55-4.45-6.95.25-.35 8.95 4.45l8.65 4.85-1.3-1.55q-1.3-1.65-1.2-1.9t2.55.75l2.45 1.05-7.9-11.65q-7.8-11.75-7.35-12.2.35-.35 7.2 5zm114.85 5.5q10.75-11.2 11.25-10.75.75.65-15.1 25.2l-12.2 13.3q-13.65 14.2-20.8 18.75-4.25 3.9-9.1 5.05-4.75 1.1-8.65-.8-3.75-1.85-4-6.4-.25-4.5 3-7 2.65-2.05 5.45-1.7 1.45.15 2.3.7L206 66.95l7.75-8.8q6.2-6.95 6.65-6.7.7.4-12.6 25.75l3.25-2.75q3.35-2.7 3.8-2.5.7.25-4.4 10.25l5.3-5.95q5.35-5.95 5.6-5.7.45.4-3.45 7.05l2.4-2.15q2.45-2.15 2.75-2 .4.3-3.2 10.25z"/><path fill="#930f15" d="M94.65 286.6 93 278.55l-1.85-14.2 10.2 2.4q42.3 8.75 78.25-7.9 17.95-8.35 27.45-18.45-4.6 9.05-14.95 19.35-20.6 20.65-49.05 27-25.15 5.6-48.4-.15m-70.3-44.85q-7.15-7.35-12.8-22.3l-4.25-13.5q1.1 3.1 4.3 7.9 4.25 6.35 10.35 12.65z"/><path fill="#d28431" d="m239.1 334.85-4.2-1.25q-4.85-1.75-8-4.1t-4.35-7.8l-.55-4.95q.75 2.7 6.7 6.5 7.15 4.6 14 3.65l5.8 4.3q6.4 4.45 9.35 5.45 2.95 1.05 11.5 1l7.9-.2q4.9 1.05 12.65-1.75 3.85-1.35 6.75-2.95 7.65-2.55 11.6-7.15 1.95-2.3 2.4-4.1 2.05 0 5.4-3.15l2.95-3.2q-2.05 7.2-5.2 12-1.6 2.35-2.8 3.3l-.15 1.5q-1.45 2.45-8.05 6.1l-6.3 3.15q-5.5 5.65-14.85 6.75l-5.9.15-2.4-.2q-1.9 1.55-8.4 1l-10.35-1.5q-3.45-.5-9.85-6.55z"/><path fill="#930f15" d="M23.7 265.75q1-2.25 1.6-8.05.55-5.55.25-8.8.55 3.35 2.95 5 2.05 1.5 5.2 1.5.3 0-5.35 20.9l-5.7 20.9q-2.85 1.35-3.85 1.35t-5.55-4.35l-7.7.8q-1.3-.1-1.55-.45 1-1.75 9.3-12.45 7.4-9.6 10.4-16.35"/><path fill="#d28431" d="m6.85 295.2 6.4-1 5.55 4.35q.5.35 3.85-1.35-3.1 8.1-4.35 14.6-1.05 5.2-.5 5.6.5.35 4.55-2l-.35 3.5q-7.75.35-11.95-.8-3.25-.9-6-4.45-2.8-3.6-2.6-6.85.25-3.35 1.8-6.75 1.6-3.5 3.6-4.85m135.1 7.5q.7.25 6.1-1.6 5.6 4 6.25 4t4.8-3.75l7 2.7q-.5-1.5-.15-2.1l.45-.3q8.5 2.15 12.75 4.1 2.85 1.3 3.3 2.25.35.7.3 3.05-.05 2.55-.6 3.45-.8 1.35-3.85 2.9-2.55 2.15-5.05 2.3l-1.95-.3q-2.15 1.9-6.15 2l-3.55-.25q-4.1 1.45-6.25 1.2-1.3-.2-3.7-1.9l-2.1-1.7-6.4.4q-1.8-.35-4.1-2.85-1.75-1.85-2.65-3.5-.5-.95-.4-3.7l.25-3.5q.1-.7 2.4-3.3l2.25-2.4.3 1.3q.35 1.35.75 1.5"/><path fill="#930f15" d="m142.8 291.5 1.05-4.85q11.85-2.05 25.45-9.3l11.25-6.8q2.5 14.05-5.9 22.9-4.25 4.45-8.95 6.05l2-.4 2.4 3.35-4.25-.7q.8 2.55.4 2.8t-7.15-3.2l-4.8 3.75-6.25-4-6.1 1.6-1.3-4.9q.9-1.25 2.15-6.3"/><path fill="#d28431" d="m22.6 347.05-.9-4.2q3 6.3 15.6 9.6l5.35 2.15q7.1 2.15 16.05 2.15l7.05 2.1q8.85 1.5 17.9-1.35l8.35-2.35q9.35-3.35 14.2-8.3l-.9-8.15 1.6-.05 4.05-.85q6.55-2.25 10.85-8.95l1.15 3q1.05 3.3.4 4.5l-3.95 6.5q-3.35 5.15-4.6 6.1-1.95 1.45-7.8 3.25l.25 2.8q0 3.05-1.55 4.6-2.25 2.25-8.3 5-6.85 3.15-10.65 2.8l-1.3-.8-1.1 1.5q-1.4 1.55-3.05 1.9-2.95.55-10.35 0-8.6-.7-10.05-2.75l-8.85-1.45q-9.25-1.75-11.4-3.2-1.7-1.3-1.8-1.95-9.25-4.45-12.75-7.3-2.2-1.8-3.5-6.3"/><path fill="#930f15" d="M218.85 207.7q.3-1.2 1.8-16.45l5.15 9.6q5.95 11.95 10.15 23.75 13.3 37.6 3.55 58.95.7-2.1 1.1-5.6.8-6.95-.5-13.9-1.9-10.05-7.7-26.35-6.85-19.2-13.55-30"/><path fill="#0f141b" d="M176.5 108.75Q159.15 97.1 137.75 96l-1.7-2.6q23.75 1.25 42.75 14.6zm26.65 25.3q3.6 7.2 2.75 9.55l-2.35 5.9-1.05 1.75-2.1-.15-6.95-1.2-4.5-.7q-.35.05-6.4 3.85t-6.45 3.85q-.45.05-10.2-4.8l-10.05-5-10.75 2.3-11.8 2.7-2.4.4q-.5-.1-1.9-1.55l-8.75-9.4-6.9-7.85q-1.2-1.55-1.3-1.95-.2-.95 1-2.65l4.7-5.3 9.4-9.9q.2-.2.85.3l.55.65L119 125.4q-4.8 5.55-4.75 6 .1.5 8.35 9.9 8.25 9.35 8.7 9.4l12-2.85q11.85-2.95 12.75-2.85.9.05 10.25 5l9.8 5.2q.6-.25 11.1-6.85 1.35-.8 1.8-.85l1.75.3 10.9 2 1.25-2.85 1.4-3.95q.65-2.05-2.25-7.55-3.65-6.95-10.95-14.4l1.1-.95q6.7 5.55 10.95 13.95M64.8 120.25q8.6-8.9 20.3-15.15 9.1-4.9 19.6-7.9l2.65 1.95q-10.6 2.75-19.85 7.55-12.15 6.2-21.05 15.45-7.7 8-15.85 18.1-4.45 5.55-11.8 15.25l-6.85 8.65q-5.8 5.9-17.05 3.65-4.75-1-6.5.4-1.8 1.4-2.45 6.7Q4.8 185 8.6 203.5q4.9 23.5 14.9 35.8.25.25.5 2.9t0 2.4q-12.3-12.85-17.65-39.25-3.85-18.95-2.8-30.15.65-6.6 3.3-8.7 2.6-1.95 8.45-.75 5.2 1.1 9 .15 3.55-.85 6.15-3.5 1.65-1.65 6.7-8.5l11.75-15.4q8.2-10.25 15.9-18.25"/><path fill="#0f141b" d="M135.25 118.55q.55-.1 1.2.85.65.9.15 1.1-3.8 1.3-6.05 3.8-2.35 2.6-2.85 6.15-.65 4.4 1.65 7.9 2.25 3.5 6.6 4.8l7.6-.25q3.5-1.4 5.5-4.8 1.8-3.15 1.75-6.75-.1-3.75-2.15-6.05-.4-.45 1.2-.4 1.6 0 1.9.55 3.65 6.65-.2 13.9-2.35 4.4-7.05 6.25-4.6 1.8-9.45.35-5.3-1.6-8.35-5.85-3.1-4.4-2.35-9.6.65-4.35 3.6-7.6 2.95-3.3 7.3-4.35m51.6 5.1q-.5-.2.9-1t1.85-.55q4.7 2.6 8.1 7.85 2.5 3.75 2.8 8.05.3 4.6-2.3 6.7-2.65 2.15-7.6.2-5.05-2-8.3-6.8-2.6-3.9-3.1-8.25-.4-3.5.55-5.05.25-.45 1.55-.25 1.25.15.9.6-.9 1.35-.35 4.35.6 3.45 2.95 6.95 2.5 3.75 6.35 5.6 3.7 1.8 5.45.4 1.85-1.5 1-5.6-.7-3.3-2.2-5.6-3.75-5.65-8.55-7.6"/><path fill="#0f141b" d="M140 125.55q2.65 1.15 3.55 3.95.9 2.7-.25 5.35-1.3 3.1-3.9 4-2.4.75-5.15-.4-2.45-1.05-3.4-3.55-1-2.55 0-5.3 1.05-2.9 4-4.05 2.7-1.05 5.15 0m45.15 1.85q1.2-.8 3.05.2 1.95 1.1 3.6 3.9 1.1 1.85 1.2 4.1t-.9 2.75l-2.6-.25q-1.95-.9-3.55-3.45-1.55-2.45-1.65-4.65-.1-1.95.85-2.6m-18.9 15.5 1.15.05q.65.3 1.1 1.15.95 1.7-.15 2.4l-1.15-.1q-.8-.35-1.2-1.15-.45-.85-.35-1.5.1-.6.6-.85m12.9-.25q1.3.4.7 2.4l-.65 1.1q-.6.6-1.25.35t-.75-1.05q-.15-.65.1-1.35l.7-1.1q.55-.5 1.15-.35m-18.45 118.1q-2.95.85-4.95-.4-1.75-1.15-2.45-3.65-.9-3.35.1-8.3 1.1-5.15 4-10.4 2.85-5.25 7-9.25 3.95-3.8 7.15-4.75 3.95-1.15 5.8 2.55 1.75 3.5.4 10.2-1.15 5.95-3.95 11.2-2.7 5-6.4 8.5-3.5 3.35-6.7 4.3m-5.85-5.25q.4 2.55 1.65 3.45l3.7.15q2.8-.8 5.95-4.1 3.1-3.25 5.7-8.1 2.1-3.9 3.4-8.15 1.25-4.3 1.25-7.6 0-3.2-1.35-4.7-1.25-1.35-3.1-.85-2.8.85-6.4 4.65t-6.4 8.85q-2.6 4.7-3.75 9.3-1.05 4.15-.65 7.1m-16.6-27.1q-2.35.7-5.2 3.55-2.9 2.9-4.9 6.65-2.1 3.8-2.8 7.75-.65 3.5 0 5.9.9 3.35 4.1 2.45 2.2-.65 4.75-3.25 2.5-2.6 4.5-6.3 2.1-3.95 2.9-8.5.85-4.65-.3-6.95-.95-1.95-3.05-1.3m-12 9.2q2.2-4 5.55-7.05 3.2-3 6-3.8 3.35-.95 4.95 2.05.95 1.7.95 4.45 0 3.15-.8 6.5-.8 3.55-2.25 6.2-2.1 3.95-5.15 6.85-2.95 2.75-5.55 3.5-2.4.7-4.1-.4-1.7-1.05-2.35-3.55-.75-2.95-.05-6.9.75-4.1 2.8-7.85m69.4-11q3-.9 4.5 1.95 1.4 2.6.5 7.45-.8 4.4-2.95 8.35-1.45 2.7-3.8 5.4-3.2 3.6-6 4.4l-3.4-.25q-1.55-.9-2.05-3.1-.65-2.75.15-6.7.85-4.1 2.9-7.85 2.15-3.9 5-6.5 2.6-2.45 5.15-3.15m3.4 5.4q0-1.45-.35-2.35-.35-1-1.35-1.3-1.1-.35-2.35.35-1.95 1.05-4.15 3.6-2.25 2.55-3.95 5.65-1.85 3.35-2.65 6.8-.7 3.1-.35 5.3.3 1.55 1.25 2.2.95.7 2.3.3 1.85-.55 4.05-3 2.25-2.45 4.2-6.1 1.55-2.8 2.45-5.95.9-3.1.9-5.5"/><path fill="#0f141b" d="M213.35 155.95q-.15-.3.95-.6l1.2.05q6.3 17.85 6.3 34.4 0 23.55-9.55 43.95-9.55 20.25-27.05 34.2-18.35 14.6-42.3 19.9-24 5.3-47.7 0-.7-.2-.85-1.35-.15-1.2.4-1.1 23.8 4.95 47.1-.15 23.65-5.15 41.7-19.55 17.15-13.7 26.35-33.4 9.15-19.7 9.15-42.9 0-17.3-5.7-33.45"/><path fill="#0f141b" d="m200.55 162.75-6.85-2.45-7.95 4.85q-7.8 4.8-8.8 4.7-2.2-.2-12.65-5.35l-10.45-5.2-11.5 3.35q-11.5 3.45-13.4 3.35-1.65-.05-18.4-12.2-.45 11.6 2.45 21.55 4.1 14.05 14.4 22.6 13.95 11.55 31.1 14.6 19.45 3.5 35.15-6.05 11.05-6.7 16.3-20.45 4.9-12.85 3.25-27.15-3.85 5.9-5.05 6.15-.95.2-7.6-2.3m13.05-14.85q-1.05-3.4-2.5-5.4-1.15-1.55-7.35-5.15l-.1-1.9 5.2 2.85q3.4 1.9 4.3 3.15 3.5 4.8 3.4 11.1-.05 1.75-1.7 4.65 2.25 12.15-1.45 25.65-4.9 17.75-18.6 26.05-16.2 9.85-36.25 6.35-17.8-3.1-32-15.05-11.3-9.5-15.55-24.8-3.05-11-2.05-22.55.25-1.85 1.4-1 17 11.9 18.75 12.5l12.05-3.5q11.65-3.45 12.7-3.25 1 .15 11.9 5.4l11.05 5.15 7.85-4.75q7.7-4.7 8.8-4.8 1.15-.15 7.55 2.25l6.75 2.5q.95-.55 3.45-4.5 2.55-4.1 3.1-6.15.35-1.4-.7-4.8"/><path fill="#0f141b" d="m167.15 183.8 7.8 8.65 14.35-17.9q.55-.6.9-.55l.8.7 4.5 6.95 3.7 6.2 6.2-12.6q.75-1.3 1.3-1.2.5.15 1.1 1.6 1.55 4.1 2.9 12.95l-.45.65q-.5.25-.6-.1l-1.3-5.35-1.8-6.85-3.05 5.75-3.35 6.05q-.5.95-.95 1-.4.1-.95-.6l-4.15-6.45-3.9-6.6-6.85 9-7.1 8.35q-.9.95-1.3.95t-1.45-.95q-2.15-2-7.6-8l-7.65-8.75-6.75 7.75-7.15 7.75q-.8.85-1.25.85-.5 0-1.35-.85l-6.45-7.4-6.45-7.6q-4.55 10.5-7.4 16.05-.2.3-.85-.3t-.5-.95q.9-2.35 3.55-8.15l4-8.35q.5-1 1-1t1.3 1q6.5 7.65 13.1 15.95l7-8.2 6.95-7.65q.75-.8 1.25-.75.5 0 1.25.75zm92.4-147.65q1.3-.7 1.9-.3.65.4.05 1.85-1.35 3.5-7.35 13.05-6.1 9.7-12.5 18.5-24.7 34.1-49 51.8-8.85 6.5-15.8 3.75-1.9-.8-3.4-2.25-1.6-1.55-2.2-3.45-.65-1.95-.35-4.05.3-2.15 1.45-3.95 2.4-3.8 6.5-4.1 3.55-.3 6 1.95 1.95 1.8 2.15 4.25.25 2.5-1.45 4.4-1.45 1.55-3.4 1.45-1.85-.1-2.95-1.5-.65-.8-.35-1.1.3-.35 1.25.35 1.05.7 2.05.65 1.1-.05 1.9-.95 1.25-1.4 1.15-3.1-.05-1.7-1.45-2.95-1.8-1.65-4.75-1.4-3.25.25-4.95 3-1.95 3.1-.85 6.4.5 1.6 1.7 2.9 1.15 1.25 2.6 1.85 3 1.2 6.3.35 3.3-.9 7.6-4 21.7-15.85 47.5-50.5 12.95-17.4 21.4-31.65l-2.7 1.9-3 2.3 1.15-2.8z"/><path fill="#0f141b" d="M243.05 15.65q1-1 1.55-.85.6.15.45 1.55l-.35 3.3-1.6 6.7q-.15.45-2 .85 2.8-10 2.55-10.15-.2-.1-7.9 11.4l-8.9 13.35q-1.15 1.7-1.6 1.35-.35-.25.05-1.8l2.85-10q-31.5 51.95-44.7 77.6l-.9-.05q-.75-.4-.6-.7 9.5-19.6 25.85-47.25 14.9-25.25 19.85-31.4 1.1-1.3 1.7-1 .55.25.4 1.7l-1.55 6.8q11.9-18.3 14.85-21.4m-179.55 49 7.55 1.85q4.45 1.2 6.5 2.1 1.65.7 1.5 1.15-.15.5-1.95 0-12.15-3.6-12.25-3.45L97.9 90.8l34.85 25.6 7.2 4.5q6.1 3.35 9.45 3.65 3.45.35 6.55-1.1 3.95-1.9 4.85-5.95 1-4.5-1.85-7.65-1.6-1.7-3.95-2.7-2.5-1-5.35-.45-3.2.65-4.15 3.15-.95 2.45.45 4.75 1.35 2.25 3.95 2.5 1.35.1 2.5-.65t1.4-1.75q.25-.95.8-.8.55.2.4 1.2-.25 1.75-1.7 2.8-1.5 1.05-3.6.85-3.75-.35-5.45-3.4-1.55-2.85-.35-6.15 1.4-3.65 5.6-4.4 3.25-.6 6.25.5 3.55 1.4 5.6 4.45 2.5 3.7 1.5 8.15-.95 4.45-5.25 6.9-3.95 2.2-8.45 1.75-6-.6-18.25-8.85-59.45-43.2-68.25-51.25-1.35-1.2-.85-1.65z"/><path fill="#0f141b" d="M82.2 33.45q-.4-1.65.35-1.95.6-.25 1.7.5 2.4 1.65 8.75 7.95 6.85 6.75 13.8 14.5 10.1 11.3 19.4 23.55 11.6 15.4 19.9 29.8.2.3-.55.75l-.95.1q-12.75-22.2-37.75-50.75-8.25-9.45-16.1-17.55-6.55-6.8-6.75-6.65-.25.25 1.95 4.35 2.15 4.05 3.6 6.15l-1.9-.15q-1.55-2.15-3.2-5.35-1.8-3.4-2.25-5.25m83.55 89.1 4.4 2.25 1.75-1.75 1.4-1.8q.2-.3 1.2.35 1 .7.8.95-3.7 4.05-5.1 4.05-.75 0-5.3-2.3l-5.1-2.75q-.3-.2.3-1.1.65-.95.9-.75zM270.7.7q1.7-1.05 2.15-.5.4.4.05 1.9-1.35 5.5-7.85 20.05-6.85 15.3-10.4 20-.7.9-1.1.55t.15-1.2q2.95-4.9 10.75-22.6 7.4-16.9 7.15-17.15-.2-.15-12.7 10.85-13 11.4-17.6 15.9-1 .95-1.4.6-.4-.3.45-1.4 4.95-5.9 17.5-16.75 8.9-7.7 12.85-10.25M61.55 29.3q1.3.8 1 1.35l-1.6-.15Q35.4 16.45 7.7 7.35q47.05 46.85 65.15 59.7l-.7.4-1.2.1q-13.25-9-37.7-32.15Q12.2 15.5 7.2 9.15 5.3 6.85 5.6 6.1q.35-.8 3.4.05 13.2 3.5 24.95 8.65 11.7 5.15 27.6 14.5"/><path fill="#0f141b" d="M96.55 50.65q.95.95.5 1.35-.45.35-1.45-.5-12.9-11.85-25.45-21.1-9.55-7.05-14.45-9.5l5.2 8.35q-2.2-.15-2.35-.6-3.75-5.75-4.8-7.85-1.35-2.85 1.5-1.65 5.8 2.2 15.35 8.95 13.25 9.3 25.95 22.55M21.2 225.35q-.05-1.8.65-1.7t.8 1.65l1.9 11.7q1.8 10.95 1.9 13.55.6 14.35-5.4 23.25-2.5 3.7-10.4 13.5l-3.6 4.45-2 2.45 5-.65 3.5-.45 2.9 2.2q2.55 2.1 2.8 2.15l2.15-.75 2.05-1.1q.3-.2.5.6.15.75-.15.95l-2.25 1.3q-2 1.1-2.5 1.05l-3-2.05-2.95-2.2-1.4-.05-1.9.3q-6.4.7-6.9-.4-.35-1 5.95-8.85 5.95-7.45 9.8-13.2 5.45-8.15 5.1-22.3-.05-2.45-1.25-13.4z"/><path fill="#0f141b" d="M6.4 294.7q.25-.2.8.25t.3.65q-4.05 3.3-4.8 7.8-.55 3.05-.35 4.85.25 2.1 1.55 3.85 1.45 1.95 3.7 3.5 2.15 1.45 3.6 1.65l6.15.5 4.8.05q.35-.05.5.75.2.85-.1.9l-5.3.2-6.4-.25q-1.95-.25-4.6-1.95-2.75-1.8-4.3-3.85-1.6-2.05-1.9-4.55-.25-2.05.35-5.45.85-4.65 6-8.9m135.45-7.45q0-.35 1.15-.35 1.1 0 1.1.35.15 1.65-.45 5.1-.55 3.25-1.05 4.35l-1.55 2.65-1.1 2.1-.85.8-.85.1q-.05-1.25.85-3.35l1.45-3.05q.5-1.05.95-4.45z"/><path fill="#0f141b" d="m154.45 304.2 1.85-1.85q1.75-1.8 2.4-1.85.65 0 3.65 1.65l2.9 1.55-.25-1.2q-.25-1.25 0-1.55l1.9.15 1.65.35-.85-.85-1-.8q-.2-.15.35-.7.5-.6.8-.4l1.6 1.5q1.55 1.65 1.25 2.25-.25.6-2.1.4l-1.85-.25.15 1.3q.2 1.25-.05 1.5-.45.4-4.2-1.3l-3.85-1.75-1.9 1.8q-1.9 1.8-2.5 1.85-.55.05-3.35-2l-2.85-2.1-3.1 1.05-3.45.85q-.45-.15-.65-.95l-.25-1.6q-3 3.55-3.3 4.45-.4 1.1-.4 3.4l.2 2.85q.4 1.25 2.45 3.7 2.35 2.75 3.75 2.9l3.6.1 1.9-.35.1-2.9-.15-3-1.75-1.5-2.55-2q-.75-.6-.45-1t1.2.15l2.6 1.6q2.25 1.5 2.55 2.2.4 1.1.45 3.55.1 2.8-.6 3.95-.45.8-3.05 1.15l-4.1.05q-2.15-.25-5.1-3.6-2.55-2.85-3-4.3-.35-1.05-.1-3.85.2-2.55.55-3.6.25-.7 2.35-3.15l2.75-3.2q.7-.8 1.05-.55l.45 1.1.2 1.65q.05 1 .2 1.05l2.65-1.05q2.65-1.1 3.35-.85.6.2 3.25 2.15z"/><path fill="#0f141b" d="M179.6 269.4q-.05-.35.8-.4t.9.3q.65 3.55.5 7.65-.2 6-2.1 10.5-2 4.65-6.3 8.45-3.65 3.2-6.95 4.25l-1.45-.1q-.2-.55 1.05-1.1 2.65-1.2 5.75-4.3 3.75-3.75 5.55-8 1.75-4.15 2.2-9.95.2-2.8.05-7.3M79.25 155.8q.95-.95 1.35-.5t-.35 1.45q-2.45 3.2-2.95 9.55l-1.2.95-1.1.15q.7-8 4.25-11.6"/><path fill="#0f141b" d="M82 159q1.2-1.05 1.7-.5.55.55-.45 1.65Q77 167 69.5 178.7q-14.25 22.2-25.25 50.9Q38 245.85 34.15 259q-2.45 8.1-5.2 19.75l-2.75 11-3.7 12.1q-1.05 3.15-2.4 7.85-1.45 5.1-1.7 6.85 2.35-1 7-4.2.25-.2.75.5t.2.9l-6.6 4.05-2.7.15q-.65-.65-.45-2.3l.8-4.9q.85-4.4 2.6-9.45 3.1-9.2 6.4-22.95 2.9-12.15 5.2-19.85 3.9-13.25 10.15-29.5 11.2-29.2 25.5-51.05Q76.4 163.95 82 159m17.05 16.5q.85-1.6 1.55-1.35t.05 1.95q-2.9 7.85-4.95 20.1-3.9 23.4-3.75 56.6.1 23.3 5.7 39.85 4.05 12.15 9.9 18.1l.55.65.05.7-4.4.25-2.2-2.3 4.05 1.2q-7-7.45-10.7-18.05-5.4-15.25-5.95-40.45-.6-25.85 2.9-49.05 3-19.9 7.2-28.2M244 290.65q.3-.1.75.8.4.95.1 1.05l-12.55 5.95-2.25.1q-.2-.6.7-2.35l2.5-4.2q5.25-8.7 6.05-11.45 1.25-4.25.05-12.95-1.25-8.7-4.8-20.3-3.3-10.75-8.35-21.2l-8.35-16.15q-.15-.35.5-2.35.6-2 .75-1.65l9.05 17.7q5.7 11.95 9 22.85 2.6 8.5 3.95 16.3 1.25 7.15 1.25 12.45 0 3.35-.9 6.25-.6 1.95-4.25 8-3.4 5.55-4.75 7.2zM217.2 167v-3.15l20.45 18.2q14.35 13.45 26.15 27.5 13.95 16.55 26.55 38.85 7.9 13.9 11.7 23.05l8.4 9.2q8.7 9.4 10.9 12.7 1.8 2.75-1.3 2.6l-6.6-1-3.95-.85q-.35-.05-.2-.75t.5-.65l10.05 1.6q-1.2-1.65-9.9-10.85-8.95-9.45-9.6-11.05-3.4-8-11.95-22.55-12.75-21.75-26.7-38.25-12.05-14.3-25.1-26.9-7.05-6.8-19.4-17.7"/><path fill="#0f141b" d="M64.95 316.45q.6 0 1.5 1 4.05 4.5 13.9 20.1 2.9-16.7 4.3-22.2.35-1.5 1-1.65.45-.1 1.6.65L94 319.3l4.3 3.2.25-4.95.2-9.15q.05-1.35.7-1.45.6-.1.8 1.45.35 2.55-.15 13.2-.15 2.95-1.45 2.9-.65 0-2.7-1.4l-9.4-6.7-1.6 8.75q-1.6 8.45-2.7 12.2-.65 2.2-1.45 2.3-.75.05-2.1-1.5-2.7-3.15-8.15-11.2l-5.45-8.25-4.8 10.3q-4.9 10.35-7.25 14.05-1.2 1.85-1.8 1.8-.6 0-1.6-2-1.95-3.95-5.6-14.55l-3.5-10.7-4.25 6.6q-3.9 5.85-6.1 8.35-1.4 1.7-2.2 1.5-.65-.2-1.2-1.95-1-3.4-1.5-10.85-.45-6.6-.25-10.1.15-1.95.8-1.8.6.15.7 1.8l.9 11.1q.85 9.3 1.05 9.3l4.15-6.15q4.55-6.7 6.65-9 .95-1.05 1.5-1.05.6 0 1.2 1.1 1.7 3.3 5.65 14.95l3.65 10.9 4.8-10.1q5.2-11.05 7.3-14.35.85-1.35 1.55-1.4M243.3 289.1q-.4-1.8.25-1.9.65-.05 1.1 1.65l3.75 11.65 3.45 9.95 3.25-2.95 5.4-5.1q1.55-1.4 2.05-1.3.45.05 1.3 1.7l4.9 10.25q3.05 6.75 3.2 6.75l3.35-5.25 5.05-8.3q1.2-1.85 1.85-1.85.45 0 2 1.3l7.2 6.5 4.6 4.05.45-6.15.55-9.9q.2-2.75.75-2.9l2.4 1.35 7.7 5.9 4.85 3.6-2.15-7.5-3.25-9.75q-.4-1.15.1-1.45.45-.3 1.15.85 1.15 1.95 3 7.55 1.75 5.35 2.6 9.3.35 1.55-.1 2.25-.6 1.05-2.6-.3l-8.8-6.45-4-2.95-.35 7.25-.4 8.85q-.35 2.55-1.5 2.45l-2.25-1.3q-2.9-2.15-7.6-6.7l-4.15-3.95-3.4 5.8q-3.6 6.2-4.8 7.65-1.5 1.85-2.4 1.75-.85-.1-2-2-2-3.3-5.1-10.1l-2.7-5.9-8.4 7.8q-1.75 1.6-2.3 1.45-.5-.1-1.3-2.15-4.75-11.85-6.7-21.5m-87.75 19.75q-.9-.65-.65-1.1l1.3.1q5.75 3.05 6.6 5.45.55 1.5.55 4.3-.05 3-.8 4.1-.55.7-3.7 1.25l-4.3.25-2.65-1.5q-1.85-1.35-2.65-2.3-.25-.25.4-.8.6-.55.85-.3l2.4 1.75 2.15 1.15 3.25-.05 2.85-.55.25-3.3q.05-2.65-.2-3.45-.5-1.35-5.65-5"/><path fill="#0f141b" d="M161.65 322q-.3-.1-.1-.9.15-.8.5-.75 1.85.45 4.85-.05 2.65-.45 3.45-1l.4-2.95q.15-2.5-.05-3.15-.15-.6-2.6-2.4l-3.3-2.3q-.95-.75-.65-1.2t1.55.2q1.8.95 3.8 2.4 2.55 1.85 2.85 2.8.5 1.7.35 3.85-.15 2.4-.95 3.7-.65 1.15-3.75 1.9z"/><path fill="#0f141b" d="M172.1 307.6q-.95-.45-.75-.9t1.2-.15q6 2.05 6.75 3.5.6 1.2.4 3.75-.15 2.2-.75 3.85-.45 1.2-2.8 2.3-2.7 1.25-5 .65-.35-.1-.25-.9.1-.85.45-.8 1.6.15 3.8-.7 1.85-.7 2.2-1.15l.5-2.9q.25-2.4-.1-3.35-.45-.8-5.65-3.2"/><path fill="#0f141b" d="M182.75 307q1.3 1.35 1 4.25l-.85 3.55q-.3.9-1.55 1.9-1.4 1.05-3 1.35-.35.1-.5-.6-.2-.65.15-.75 1.1-.25 2.2-1.1l1.05-1.3q.35-1.15.5-3.2.15-2.4-.35-3.05-.45-.55-5.05-2.4l-7.75-2.85q-.35-.1.4-.7.75-.55 1.1-.5l5.3 1.6q5.55 1.95 7.35 3.8m53.45-12.05 1.15.05q.9.3.65.55-.8.75-2.75 3.55l-3.2 4.55-3 3.7q-5.55 6.4-6.1 8.3-.7 2.45.85 6.9 1.7 4.8 4.45 6.9 2.6 2 6.4 3.25 3.15 1.05 4 .85.8-.45 2.35-4.6 1.7-4.45 2.65-9.1.35-1.55.9-1.45.55.15.45 1.75-.45 5-2.4 10.05-1.9 5-3.5 5.35-1.35.25-5.3-1.15-4.45-1.55-7-3.65-3.1-2.55-5.15-7.5-2.05-4.9-1.2-7.85.75-2.6 6.25-8.85l3.65-4.2 2.85-3.85z"/><path fill="#0f141b" d="M238 335.25q-.2-.3.8-.75l1.2-.15q1.5 2.25 5.65 5.85 4.8 4.2 8.15 5.5 4.5 1.7 10.75 2.1 6.1.35 7.7-.85 1.35-1 2.85-4.9 1.2-3.15 1.4-4.55t.85-1.3q.7.15.55 1.55l-1.1 5.25q-1.3 4.3-3.1 5.65-2.15 1.6-9.4 1.3-7.1-.25-11.7-2-3.5-1.35-8.65-6.15-4.15-3.95-5.95-6.55"/><path fill="#0f141b" d="M295.85 332.85q-.1-1.4.5-1.5t.85 1.2l.3 4.6q.1 3.8-.2 4.55-.5 1.15-3.05 2.85-3 2-7.2 3.55-5.95 2.25-14.65.75-.35-.05.25-1 .55-.95.9-.9 6.75 1.15 12.9-1.2 4.35-1.6 7-3.3 1.85-1.2 2.05-1.8l.35-3.5z"/><path fill="#0f141b" d="M309.95 321.2q-.15-1.75.5-1.85t1 1.65l.7 5.8q.25 4.25-.5 5.85-1.15 2.35-6.5 5.85-5.5 3.65-8.8 3.85-.35 0-.2-1 .1-.95.45-1.05 2.4-.6 7.35-3.8 5-3.35 5.85-5.05.9-1.85.15-10.25"/><path fill="#0f141b" d="M310.8 293.95q-.2-.3.8-.3.95 0 1.15.3 1.4 2.05 4.2 9.3 3.4 8.7 3.15 12.05-.25 3.45-3.75 9.75-3 5.25-4.7 6.95-.25.2-.6-.75-.4-1-.15-1.25 1.35-1.35 3.85-6.2 2.85-5.6 3.1-8.75.2-3-3.05-11.75-2.8-7.55-4-9.35m-289 21.6.9-.7q.9-.35.8 0-.4 2.85-.8 13.95-.4 11.15-.15 12.95.4 2.6 2.1 6.4 1.75 4 3.1 5.15 1.6 1.3 6.1 3.8 4.45 2.45 5.6 2.7.35.1.15.9-.15.85-.5.75-1.5-.3-6.45-2.75-5.2-2.55-6.8-3.85-1.7-1.4-3.6-5.8-1.8-4.05-2.2-6.8-.25-1.8.5-12.8.75-10.6 1.25-13.9"/><path fill="#0f141b" d="M36.65 352.75q-.1-1.9.65-1.85.75 0 1.05 1.85 1.25 7.6 2.85 8.75 1.15.85 8.15 2.6 7.15 1.8 11.15 2.15.35 0 .85 1.05.55 1.05.2 1-7.6-.5-14.25-2.25-5.55-1.5-7.35-2.85-1.5-1.1-2.45-4.9-.75-2.9-.85-5.55"/><path fill="#0f141b" d="M57.9 357.45q-.15-2.25.65-2.25.8.05 1.05 1.95.35 3.15.95 5.75.95 3.75 2.15 4.55 1.75 1.2 8.55 1.75l10.9-.55q1.7-.5 3-3.1l1.15 1.65-1.05 1.8q-1 1.2-2.55 1.65-4.7 1.35-10.7 1-6.8-.35-11-2.9-1.45-.9-2.3-4.8-.45-2.25-.8-6.5"/><path fill="#0f141b" d="M103.3 332.6q-.35-2.9.4-2.95t1.3 2.85l2.35 12.25q1.7 10.55.55 13.45-1.7 4.4-10.35 7.75-7.95 3.1-11.7 2.15-1.2-.3-2.15-4.2-.85-3.35-.85-5.85-.05-2.15.7-2.35.7-.25.95 2.1.3 2.2 1.15 5.3.8 2.9 1.1 3 2.2.4 9.75-2.35 8.55-3.15 9.6-6.5.45-1.4-.95-11.75z"/><path fill="#0f141b" d="M123.95 330.35q.95 3.05.55 5.75-.35 2.5-3.85 7.2l-4.5 5.5q-.9 1.1-4.45 2.85-3.2 1.6-4.35 1.85-.35.1-.5-.9-.15-.95.2-1.05.95-.2 3.8-1.7 3.15-1.7 4-2.7 2.05-2.35 4.15-5.5 2.7-3.95 2.95-5.75.35-2.3-.45-4.9-.85-2.65-2.3-4.05l-12.3-10.7-7.35-6.3q-.25-.25-.1-1.15.2-.95.5-.75l8.15 6.7 6.6 5.4 6.6 5.5q1.75 1.65 2.65 4.7M13.8 303.55q-1.3-.5-1.1-1t1.55-.15q1.8.45 4.05 1.65l2.8 1.8q.25.25-.3.9t-.8.4l-2.65-1.75q-2.1-1.25-3.55-1.85"/></svg>