<svg xmlns="http://www.w3.org/2000/svg" width="228" height="184" viewBox="0 -0.4 227.65 184.4"><path fill="#727069" d="M130 30.25q10.55 8 12.9 11.3 16.3 29.1 16.65 29.35l.55 3.35.6 4.85q-6.9 1.25-12.65 4.85-2.45-3.8-6.4-7.85-3.85-4.05-12.4-4.4-6.9-.35-15.5 1.7-3.6.85-7.05 3.85-3.35 2.9-5.7 7l-13.55.95q-8.75 1.1-10.4 2.4-3.4 2.7-9.55 11.85-6.4 9.55-6.7 13.15.55 7.7 9.7 15.05.65.5 1.3 3.3t.25 3.35q-1.15 1.7-1.2 3.95-.05 2.2 1 4.2 1.35 2.45 4 8.7l-10.6-.45-6.05-.45q-4.75-1.2-16.85-6.95-12.65-6.1-15.3-8.8-5.2-5.4-9.6-17.1-4.5-11.85-4.05-19.7 0-1.2.55-5.45l-4.55-4.2-3.2-3.3q-.4-.65-2.55-13Q1.5 59.35 1.4 57.1q.95-5.85 4.65-17.75 3.85-12.2 5.5-14.3L26.35 14Q37.95 5.7 42.6 3.15 45.05 1.45 56.5 1q10.1-.35 15.1.3Q76.5 3.05 83.5 8q4 2.55 6.45 9 19.95.1 23.85 2.25 6 3.25 16.2 11"/><path fill="#dcd5cb" d="m71.3 9.9-11.1.95q-3.65-.45-9.35-3.1-5.15-2.35-8.25-4.6 2.75-1.75 15.45-1.9 7.55-.1 13.5.25 1 .05 5 2.65L83 8.25zM5.45 41.1q3.95-13.9 4.85-15l1.25-1.05 1.05 6.55.6 4.75Q9.55 52 8.95 52.6q-.95 1.1-3.4 2.5-2.15 1.25-4 1.9v-.15q0-1.95 3.9-15.75"/><path fill="#864c17" d="M130.05 123.05q1.55-3.15 1.7-5.4 5.45-1.35 10-4.45 1.05 3.45 3.6 6.1-5.75 1.1-15.3 3.75"/><path fill="#f08300" d="M131.75 117.65q-.4 5.65-3.85 10-3.8 4.75-9.75 5.6 2.3-6.95.8-15.3 6.05 1.3 12.8-.3"/><path fill="#f08300" d="M98 93.15q.6-5.15 4.2-10.75 4.7-7.35 11.55-9 8.6-2.05 15.5-1.7 8.55.35 12.4 4.4 7.45 7.85 9.6 13.65 3.45 9.4-3.55 18-5.45 6.7-13.55 9.35-7.55 2.45-15.2.85-1.5-8-6.1-14.5-5.9-8.25-14.85-10.3m42.55 37.9q.55-.05 1.25.6.75.7.6 1.5-1.25 6.45-3.75 13.2-2.4 6.6-5.1 11.05-.9 1.5-1.55 1.4t-.75-1.55q-.35-3.75-.3-11.4.05-10.4 1.45-11.4l1.85 1.2q1.35.65 4.3-1.55 3-2.15 2-3.05"/><path fill="#864c17" d="M140.55 131.05q1 .9-2 3.05-2.95 2.2-4.3 1.55l-4.1-2.8-4.75-3.35q2.9-2.8 4.6-6.4l6.1 4.5z"/><path fill="#f08300" d="M172.55 78.9q12.7 2.35 18.45 12.7-4.6-.55-7.55 3.1-2.6 3.2-3.35 8.65-.7 5.1.6 9.7 1.3 4.8 4.15 6.35-12.95 10.25-27.65 6.2-5.85-1.65-10.2-5.25-4.15-3.4-5.25-7.15 3.35-2.35 5.95-5.45 8.7-10.65.35-23.8 11.7-7.4 24.5-5.05m-100.7 63.55q-1.45-2.7-.85-5.6.6-3 3-4.45 3.15 7.55 8.65 11.4.55 4-.4 12.3-1 8.7-2.3 5.55-6.85-16.95-8.1-19.2"/><path fill="#727069" d="m145.35 119.3 2.05 1.75q-2.4 3.2-8.15 8.9-3.8-3.1-9.25-6.85l.05-.05q9.55-2.65 15.3-3.75m-19.95 10.2 7 4.95q-.65.85-1.05 3.2l-2.8 2.9q-2.7 2.9-3.3 3.8l-5.75 1.55q-1-5.85-2.65-9.45l1.3-3.2q3.9-.55 7.25-3.75m-30.85 18.3h.15l1.3 2.15-4 .55-9.1.6q.15-4.1-.25-7.3 4.8 3.35 11.9 4"/><path fill="#0f141b" d="m87.45 85.2 13.55-.95q-1.25 2.2-1.85 3.85-.65 1.85-.85 4.05-3.7-.85-8.05-.55-5.05.35-7.8 2.15-14.35 9.6-11.6 33.8-3.5-2.4-6.4-6.4-3.35-4.6-3.65-8.55.3-3.6 6.7-13.15 6.15-9.15 9.55-11.85 1.65-1.3 10.4-2.4"/><path fill="#f08300" d="M182.75 95.25q2.4-4.15 5.85-3.85 9.6.85 20.3 10.6 9.1 8.3 14.8 18.65 2.2 4 1.2 5.25-1 1.2-4.85-.4-7.35-3.1-17.55-4.1l-15.9-1.4q-3.5-.55-5.2-5.25-1.6-4.25-1.15-9.95.4-5.75 2.5-9.55M83.7 93.3q8.3-3.5 18 .45 10.65 4.35 15.3 15.45 2.8 6.7 3.35 12.45.55 6.35-1.5 12.6-.65 1.95-1.4 1.85-.6-.1-1.95-1.75-2.55-3.2-7.5-3.3-4.55-.1-8.85 2.4-4.5 2.65-6.05 6.65-1.8 4.6 1.05 9.35l.05.05q-8.6-.6-13.6-4.35-5.4-4.1-8.75-13.4-3.35-9.5-.65-21.15 3.05-13.35 12.5-17.3"/><path fill="#f08300" d="M93.1 140.1q1.55-4 6.05-6.65 4.3-2.5 8.85-2.4 4.95.1 7.5 3.3 4 4.95 5.5 19.2 1.45 14.5-1.3 23.65-1.05 3.45-2.55 3.85-1.5.35-3.3-2.35L94.2 149.5l-.05-.05q-2.85-4.75-1.05-9.35m26.1-59.15q-2.2 3.45-6.8.55-4.55-2.9-5.1-7.8-2.25-15.2-2.9-24.3l22.15 16.75-3.5 7.4q-2.45 5.15-3.85 7.4m40-9.85q-10.6 8.65-13.3 11.15-2.05 1.9-5.45-1.4-3.65-3.5-2.7-8.8l4.35-26.7z"/><path fill="#dcd5cb" d="m55.05 31.1 3.35-1.45q2.6-1.25 3.3-1.4.95-.2-.55 2.95-1.45 3-2.85 4.4-1.1 1.15-2.65 1.15-1 0-1.6-.4-.35-.25 0-2.6.3-2.45 1-2.65"/><path fill="#31363b" d="M108.55 38.15q3.8-1.8 8.65 1.5 4.8 3.3 7.9 9.75 3.2 6.8 2.55 12.8-.65 5.65-4.1 7.25-3.65 1.75-8.2-1-5-3-8.35-10-3-6.4-2.6-12.45.45-6.1 4.15-7.85M146 39.5q3.65-1.65 8.3 1.9 4.8 3.7 6.65 10.2 2.1 7.25 1.3 13-.8 5.6-3.9 7.05-3.35 1.6-7.45-1.55-4.35-3.4-7.15-10.55-2.5-6.45-1.85-12.4.65-6.05 4.1-7.65"/><path fill="#f9c385" d="M97.75 100.1q1.45-.8 3.25-.25 2.2.7 3.85 3.3 1.05 1.65 1.2 3.95.2 2.35-.9 2.75-1.65.55-4.05-.9-2.2-1.3-3.3-3.15t-1.05-3.6q.05-1.6 1-2.1"/><path fill="#fff" d="M111.5 42.9q1.15-.45 2.6.75 1.45 1.15 2.25 3.2.95 2.35.8 4.05t-1.3 2.2q-1.15.45-2.4-.65-1.25-1.05-2.25-3.25-1-2.3-.9-4.15.15-1.7 1.2-2.15m36.85 1.45q1.4-.45 2.7 1 1.05 1.2 1.65 3.25t.3 3.5q-.25 1.5-1.4 1.95-1.05.4-2.25-.6-1.3-1.1-1.95-3.35-.65-2.1-.45-3.7.2-1.7 1.4-2.05"/><path fill="#f9c385" d="M168.7 82.5q1.95.1 3.45.95 1.7 1 1.6 2.4-.05 1.2-1.55 1.9-1.45.75-3.55.6-2.1-.1-3.5-1-1.3-.85-1.25-2.05.05-1.1 1.4-1.95 1.5-.95 3.4-.85"/><path fill="#595751" d="M27.05 134.5q-5.2-5.4-9.6-17.1-4.5-11.85-4.05-19.7 8.55 6.3 12.35 10.1l9.05 9.7q4.05 4.25 6.75 5 .45 2.2 17.65 27.75-4.75-1.2-16.85-6.95-12.65-6.1-15.3-8.8"/><path fill="#6a3907" d="M130.05 123.05q1.55-3.15 1.7-5.4 5.45-1.35 10-4.45 1.05 3.45 3.6 6.1-5.75 1.1-15.3 3.75"/><path fill="#595751" d="m60.85 112.1-.05.5q.55 7.7 9.7 15.05.65.5 1.5 3.1.85 2.55.5 2.95-1.45 1.7-1.65 4.15-.15 2.4 1 4.6 1.35 2.45 4 8.7l-10.6-.45-6.05-.45Q42 124.7 41.55 122.5q-.35-1.75-.1-6.75.25-4.9.9-10.45 3.85.95 9.35 3.15z"/><path fill="#d07100" d="M131.75 117.65q-.35 5.25-3.85 9.7-3.95 5.05-9.75 5.9 2.3-6.95.8-15.3 6.05 1.3 12.8-.3"/><path fill="#d07100" d="M133.4 109.2q8.6-.95 16.85-4.45l-2.15 3q-5.45 6.7-13.5 9.35-7.55 2.45-15.2.85-.9-4.8-3.2-9.6 8.4 1.8 17.2.85"/><path fill="#595751" d="M42.1 106.75q-.55 5.25-.7 9.75-.15 4.55.15 6-2.7-.75-6.75-5l-9.05-9.7z"/><path fill="#d07100" d="M133.55 157.4q-.9 1.5-1.55 1.4t-.75-1.55l-.3-6.85q5.15-2.8 9.2-8.55-2.8 9.35-6.6 15.55"/><path fill="#6a3907" d="M136.9 128.2q-2.8 2.95-7.55 4.1l-3.95-2.8q2.9-2.8 4.6-6.4z"/><path fill="#d07100" d="M180.7 113.2q1.4 4.75 4.15 6.2-12.15 9.65-26.1 6.55-5.65-1.25-10.2-4.45-4.25-2.95-6.05-6.55 8.5 3.7 19 3.1 10.15-.55 19.2-4.85M79.95 161.65q-.55-1.5-2.2-3.75 1.8.3 3.25-3.8l1.75-6.5q.55 6.4-.7 11.45-1.25 4.75-2.1 2.6"/><path fill="#595751" d="m145.35 119.3 2.05 1.75q-2.4 3.2-8.15 8.9-3.8-3.1-9.25-6.85l.05-.05q9.55-2.65 15.3-3.75m-19.95 10.2 7 4.95q-.65.85-1.05 3.2l-2.8 2.9q-2.7 2.9-3.3 3.8l-5.75 1.55q-1-5.85-2.65-9.45l1.3-3.2q3.9-.55 7.25-3.75M82.9 147q-.05-.7 4.7 1.3 4.95 2.15 4.4 2.2l-9.1.6z"/><path fill="#d07100" d="M180.35 110.05q3.15 3.25 14.05 7.3 9.6 3.55 18 5.25l-13.2-1.25-12.6-1.35q-2.65-.4-4.3-3.25-1.5-2.6-1.95-6.7m-61.65 3.8q3.4 10.7.15 20.4-.65 1.95-1.4 1.85-.6-.1-1.95-1.75-2.55-3.2-7.5-3.3-4.55-.1-8.85 2.4-4.5 2.65-6.05 6.65-1.8 4.6 1.05 9.35l.05.05q-8.1-.55-12.95-3.9Q76 142 72.7 133.9q14.35 3 27.3-2.15 13.95-5.5 18.7-17.9m-4.85 64.85-17.5-25.95 13.5 12.25q8.5 6.6 11.45 2-.3 6.1-1.6 10.2-1.05 3.45-2.55 3.85-1.5.35-3.3-2.35"/><path fill="#0f141b" d="M146 82.5q-.2-.3.6-.85.75-.6.95-.3 5.4 7.3 5.85 14.1.45 7.05-4.35 12.9-5.9 7.3-14.35 9.9-7.4 2.3-14.5.5-.35-.05-.85-1-.55-.95-.2-.9 6.65 1.7 13.95-.55 8.2-2.6 13.8-9.45 8.95-10.95-.9-24.35m-21.2-12q6.95-.5 12.85 1.95.35.15 0 .95-.3.75-.65.6-5-2-12.9-1.4-.35.05 0-1t.7-1.1m-17.55 5.1.8.5q.5.7.25.9-3.7 2.8-6.15 7.1-2.45 4.35-2.8 8.8l-1.15-.05q-1.15-.35-1.15-.7.1-4.55 3.3-9.55 3.05-4.75 6.9-7"/><path fill="#0f141b" d="M104.55 50.65q1.05 2.5 1.2 3.8.85 8.2 2.4 19.2.3 2.8 2.5 5.25 2.1 2.3 4.4 2.85 2.3.5 3.45-1.25 1.7-2.7 5.5-10.95 3.55-3.45 3.35-3-5.75 12.5-7.45 15.2-.85 1.35-2.2 1.85l-3.05.15q-2.75-.6-5.25-3.5-2.6-3-2.95-6.45l-2.5-17.4q-.45-3.75-.4-7.8 0-.45 1 2.05m26 48.2q1.7-2.7 3.95-4.2 1.9-1.3 3.35-1.2 1.4.1 2.5 1.65 1.1 1.5 1.45 4 .25 1.35-.3 1.65t-.8-1.05q-.3-2.05-1.3-3.5-.85-1.3-1.65-1.35-1-.05-2.8 1.1-2.3 1.5-3.85 3.95-.9 1.35-1.15.85-.25-.55.6-1.9m41.3-21Q186.7 80.3 191.8 90.8q.15.35-.6.75l-.9.05q-4.9-9.1-17.5-11.4-13.05-2.45-24.1 4.8-.3.2-.65-.95t-.05-1.4q9.45-7.15 23.85-4.8m-9.45 47.25q6.7.65 12.65-1.05 6.15-1.75 8.85-5.35.2-.3.8.2.55.5.35.75-3.15 4.25-9.75 6.45-6.4 2.15-13.5 1.6-7.5-.55-12.85-3.95-6-3.8-7.8-10.25-.05-.35.9-.95 1-.65 1.1-.3 1.55 5.65 7.2 9.1 5 3.1 12.05 3.75"/><path fill="#0f141b" d="M188.65 92.25q-3.1.05-5.25 4.4-1.9 3.85-2.25 9.15-.3 5 1 8.65 1.55 4.25 4.6 4.7l9.6.95 11.6 1.15q6.8 1.1 12.45 3.45 3.3 1.4 3.9.75.65-.7-1.35-4.4-5.2-9.55-15.6-18.85-11.4-10.15-18.7-9.95m-6.7 2.15q2.5-4.75 6.2-4.85 8.2-.25 20.8 10.75 12.25 10.75 16.6 21.3 2.1 5.15.55 6-1.35.8-6.4-1.35-6.4-2.7-19.65-4.05l-14.3-1.1q-3.6-.55-5.4-5.55-1.6-4.55-1.1-10.7.45-6.2 2.7-10.45M127.8 26.85q13.2 9.55 16.4 14 .2.3-.65 1.15t-1.05.6q-2.55-3.55-14.2-12.4-11.45-8.7-16.25-10.9l-19.8-1.05q-18.7-.6-26.05.35-2.15.45-21.9 15.9-19.35 15.1-20.9 17.1-1.2 1.65-5 21.4-3.65 19.05-4.1 24.3-.6 7.4 3.75 19.3 4.35 11.85 9.65 17.3 2.65 2.75 15.7 8.95 12.55 6 16.35 6.65l15.85.8q.35 0 .3 1.05-.05 1-.4 1l-16.85-.7q-4.25-.75-16.95-6.45-13.4-6-16.2-8.9-5.5-5.65-9.85-18.15-4.25-12.35-3.6-20.2.45-5.5 4.35-24.85 4.05-20.3 5.5-22.3 1.3-1.85 20.9-18.15 20.2-16.8 22.45-17.1Q76.9 14.05 113 17.4q2.3.35 14.8 9.45m-33.95 122.5q.55-.05.95.95.45 1.05.05 1.1l-11.35.6q-.35.05-.45-.85t.25-.9zm36.3-11.7q.25-.25.75.65t.25 1.2l-4.45 5.8q-.2.3-6.6 1.8-.35.1-.4-1-.1-1.05.2-1.15 3.4-.75 4.8-1.35 1.3-1.85 5.45-5.95M147.1 120q.2-.3.95.25.7.55.5.85l-2.85 4.15q-2.2 2.95-4.9 5.65-.25.25-1.15-.7-.85-1-.6-1.25 6.05-5.95 8.05-8.95m-2.15-1.45q.35-.05 1.15.65t.45.75l-8.9 2.3-7.2 2.1q-.35.1-.2-.95t.5-1.15l6.2-1.75q6.5-1.75 8-1.95"/><path fill="#0f141b" d="M44.25 92.25q.55-1.75 1.4-2.2.8-.4.2 1.35-1.8 5.45-2.95 17.15-1.1 10.9-.5 13.8.2 1.1 9.05 14.35l9 13.25-1.45.15-1.45.1-8.45-12.65q-8.65-13.15-8.95-14.7-.6-3.2.8-13.95 1.4-11 3.3-16.65m81.9-40.35q.35 0 .05-1.15t-.65-1.2l3.5.2q3.65.45 11.7 7.1.25.25-.3 1t-.8.5q-7.2-5.95-10.15-6.25zm-21.9-1.1q.35-.05.5 1.3.15 1.3-.2 1.35-11.3 1.55-22.1 3.95-10.9 2.4-17.8 4.9-1.15.6-6.9 8.9-5.3 7.7-8.3 12.7-1.3 2.2-1.45 1.1-.15-1.05 1.05-3.4 1.9-3.75 7.5-12 6.15-9.05 7.65-9.65 7.35-2.6 17.9-5.05 11.2-2.6 22.15-4.1"/><path fill="#0f141b" d="M13 97.8q-.3-.2.2-.9.55-.65.8-.45 5.6 4.15 10.65 9.05l7.55 7.95 5.2 5.45q2.5 2.25 4.4 2.75.35.1.1.95-.2.8-.55.7-2.45-.65-4.85-2.5-2.25-1.75-5.45-5.25l-7.5-8.35Q18.3 101.7 13 97.8m116.05 34.8.9-.05q.9.3.9.65l.65 5.5q.05.35-.8.4t-.9-.3zm-41.2-48.5q8.5-1.25 13.4-1.15.35 0 .1 1.25-.25 1.2-.6 1.2l-13.3.8q-8.4.95-9.85 2.1-3.25 2.5-9.3 11.45-6.3 9.35-6.65 12.85.3 3.15 3.15 7.3 2.45 3.6 5.65 6.35.75.65.7 1.65-.1 1-.7.55-3.85-2.75-7.05-6.8-3.8-4.85-4.1-8.65-.2-2.8 6.45-12.8 6.6-9.95 10.8-13.25 1.95-1.5 11.3-2.85"/><path fill="#0f141b" d="M42.2 105.5q.25.25-.1 1.2-.35 1-.6.8l-14.85 1.05q-.35.05-.7-.75-.4-.75-.05-.8l7.95-.95zm41.1-82.85q16.7 4.65 20.85 6.85L119 31.95q3.2 2.25 9.8 10.4 6.9 8.6 7.85 12.05-2.95-1.3-3.35-2-2.25-3.85-7.4-10.35-5.35-6.85-7.7-8.6l-15.1-1.95Q100 30 82.55 24.65q-15.7-4.75-16.8-6.15-.15-.15.6-.75.7-.6.9-.35.7.9 16.05 5.25"/><path fill="#0f141b" d="m112.9 19.35 1.15.1q1.3.5 1.55 1l2.55 7.05q1.45 4.55 1.2 5.4l-.9.05q-.8-.25-.75-.6-3.75-11-4.8-13m28.35 25.85q.1-.5.6 1.55.55 2.15.3 3.5L138.6 72.2q-.55 3.1.7 5.7 1.15 2.35 3.2 3.45 2 1.05 2.8.25l11.8-9.9 1.95-.2q1.4.25 1.1.5-11.75 9.05-13.65 10.85-.9.8-2.1.95-1.35.2-2.7-.55-2.5-1.35-3.9-4.3-1.55-3.35-.85-7.05z"/><path fill="#0f141b" d="M158.75 71.2q-.05-.35.7-.65t.9 0l.85 4.3.55 4.1q-.05.35-1.1.55l-1.05-.1-.3-4.15zM85.95 8.1q.65.2 2.95 3.4 2.45 3.4 2.95 5.25.1.35-1.45.65l-1.65-.05q-.5-1.8-1.95-4.2Q85.45 11 84.3 9.8l-6.7-3.95-6.1-3.5q-2.55-.15-13 0l-13.7.7q-2.7.7-18 11.7Q12.3 25.2 11 26.65q-.85 1.15-4.75 14.8-3.85 13.6-3.85 15.4 0 1.9 2.1 14.3Q6.55 83.3 6.95 84.3q.35.6 3.65 3.65l3.95 3.3q.35.15-.25 1.7-.55 1.55-.9 1.4L8.85 90.2q-3.7-3.65-4.15-4.45-.55-.9-2.65-13.65Q0 59.6 0 57.9q0-1.8 4.25-16.3 4.35-14.75 5.4-16.05Q11 23.95 25.6 13 41.2 1.3 44.2.55q3.55-.95 28.35-.3.7.05 6.65 3.8z"/><path fill="#0f141b" d="M10.75 25.3q-.1-.25.6-.45l.8.1 1.25 5.9q1.05 5.2.95 5.85-4 15.5-4.85 16.4-1.2 1.35-3.95 2.95-2.5 1.5-3.95 1.85-.25.1-.4-.95-.1-1.05.2-1.15l3.8-1.45q2.35-1.15 3.2-2.15.4-.7 2.2-8.05l1.9-7.9-.7-5.25zM82.1 7.5q.3-.15 1.1.65.75.8.5.95-1.75.9-11.6 1.7l-11.85.8-.15-.05q-4.15-.55-10.3-3.3-5.8-2.65-8.3-4.8-.2-.2.55-.75.8-.55 1-.35 2.3 2 7.45 4.5 5.8 2.8 9.75 3.3l12.15-1q8.25-.9 9.7-1.65M54.65 35.85q1.85.6 3.15-.75.95-.9 2.1-2.95l1.35-3.05-5.95 2.7q-.25.2-.45 2.1zm-1 1.1q-.65-.45-.15-3.25t1.45-3l4.9-2.3q2.95-1.55 3.05-.7.2 1.15-1.45 4.3-1.5 2.95-2.65 4.1-1.35 1.35-3.15 1.35-1.25 0-2-.5m63.25 3.6q-4.6-3.2-8-1.6-3.25 1.5-3.55 7.5-.3 5.9 2.45 11.6 3.2 6.75 7.85 9.65 4.2 2.6 7.55 1 3.05-1.45 3.6-6.7.65-5.7-2.45-12.2-2.9-6.05-7.45-9.25M107.95 37q4.1-1.95 9.4 1.7 5.3 3.55 8.5 10.35 3.4 7.1 2.55 13.6-.75 6.15-4.6 7.95-3.85 1.85-8.95-1.35-5.45-3.45-9.05-10.95-3.05-6.4-2.5-12.8.55-6.55 4.65-8.5"/><path fill="#0f141b" d="M115.7 47.1q-.7-1.75-1.95-2.8-1.15-1-1.95-.7-.75.25-.8 1.65-.1 1.55.85 3.7.8 1.85 1.85 2.85t1.85.65q.85-.35.9-1.85.05-1.45-.75-3.5m-4.45-4.85q1.45-.55 3.15.7 1.7 1.3 2.6 3.65 1.1 2.7.8 4.5-.25 1.75-1.75 2.35-1.4.6-2.9-.45t-2.6-3.5q-1.05-2.4-.85-4.5.15-2.2 1.55-2.75m42.6-.1q-4.25-3.35-7.5-1.85-3.4 1.55-3.7 7.9-.25 5.65 1.9 11.05 2.55 6.5 6.55 9.85 3.85 3.2 6.9 1.8 2.65-1.25 3.4-6.35.8-5.55-1.25-12.7-1.8-6.2-6.3-9.7m-8.25-3.4q3.65-1.65 8.55 1.55 5.5 3.6 7.6 11.05Q163.95 59 163.2 65q-.75 6.1-4.2 7.7-3.65 1.7-8.2-1.65-4.9-3.6-7.85-11.2-2.65-6.85-1.9-13.1.8-6.25 4.55-8"/><path fill="#0f141b" d="M152 48.8q-.65-2.25-1.65-3.25-.85-.85-1.8-.55-.8.2-.9 1.6-.1 1.35.45 3.3t1.45 2.9 1.8.6q.8-.35 1-1.6.15-1.25-.35-3m-3.85-5.15q1.3-.4 2.65.5 1.65 1.2 2.55 4.25.7 2.35.3 4.05t-1.8 2.25q-1.15.45-2.6-.45-1.75-1.2-2.55-3.95-.75-2.65-.35-4.4.4-1.8 1.8-2.25m-76.5 89.15q.35-.35.95.65.65 1 .3 1.55-.9 1.55-.95 3.5-.1 1.95.7 3.45 2.45 4.5 7.95 18.8.8-2 1.2-6.7.35-4.3.2-8.05 0-.65 1.05-.2 1 .45 1.05 1.05.25 5.45-.9 11.25-1.15 5.9-2.55 5.9-.65 0-4-7.75-4.4-10.15-6.4-13.8-1.05-1.95-.8-4.7.3-3.05 2.2-4.95"/><path fill="#0f141b" d="M102.6 94.9q-9.45-4.6-18.55-.75-7.7 3.2-11.35 15.2t0 22.1q5.65 15.65 21.2 17.15l.45 2.55q-8.55-.8-14.7-5.55-6.35-4.85-9.35-13.2-3.8-10.6.5-23.55Q75.1 96 83.35 92.5q9.5-4 19.95.7 10.75 4.85 15.35 15.8 3.2 7.6 3.3 15.75.1 8.2-3.05 14.1l-1.95-2.25q2.65-5.65 2.45-12.75-.2-7.05-3.25-14.3-4.25-10.1-13.55-14.65"/><path fill="#0f141b" d="M114.8 134.9q-2.55-3.2-7.6-3-4.65.2-8.65 3-2.85 1.9-4.25 4.7-2.3 4.5.65 9.4 3.4 5.75 15.05 22.55l4.6 6.65q1.35 2.1 2.3 2 1.05-.25 1.95-3.25 2.3-7.6 1.45-21.3-.95-15.15-5.5-20.75m-18.35-1.05q4.65-3.25 10.7-3.75 6.7-.6 9.65 3.1 4.8 6 5.55 21.85.7 14.2-1.8 22.4-1.6 5.3-2.95 5.95-1.25.6-3.4-2.65-17.85-25-21.35-30.95-2.95-5-1.6-9.4 1.15-3.8 5.2-6.55m35.5 0q.3-.15.7.6t.2.85q-1 .95-1.05 10.65-.05 8.15.3 11.2.05.95.75-.2 2.65-4.4 5.05-11.05 2.4-6.6 3.65-12.9v-.05q0-.95-1-1.1l.05.05q-.35-.05-.4-.85-.05-.85.3-.85 1.05-.1 2.3.65 1.35.85 1.15 1.85-1.2 6.2-4.1 13.5-2.65 6.85-5.55 11.65-1.5 2.5-2.55 2.4-1.1-.1-1.35-2.95-.4-5.5-.35-11.1 0-11.2 1.9-12.35"/><path fill="#0f141b" d="M129.65 123.35q.35-.8.65-.6 1.35.65 5.25 3.5l5.55 4.15q1.55 1.3-1.75 4.15-3.35 2.9-5.45 1.85l-4.1-2.75-4.65-3.45q-.25-.2.25-.85.55-.65.8-.45l4.75 3.5q3.15 2.25 3.7 2.5.7.35 2.8-1.05 2.15-1.35 2.4-2.3-1.55-1.4-5.3-4.05l-5-3.25q-.25-.1.1-.9"/><path fill="#0f141b" d="M130.9 117.45q.05-.35.9-.3t.8.4q-.6 5.9-3.7 10.55-3.95 5.9-10.35 6.4-.35.05.5-1.4.9-1.45 1.35-1.6 4.3-1.3 7.5-6.1 2.85-4.25 3-7.95"/></svg>