<svg xmlns="http://www.w3.org/2000/svg" width="399" height="434" viewBox="-0.65 0.45 398.6 433.8"><path fill="#f6ad3c" d="m156.65 377.15-8.5.6q-1.05-13.95-1.2-25.85-.2-13.1.75-19.2.5-2.95 14.65-13.2 15.55-11.25 18.2-15 1.2-1.75 1.45-5.95 3.6 2.25 9.95 2.6 6.5.3 9.85-1.8l.35 2.55q.6 3.25 18.3 14.25 18.2 11.3 19.1 13.1 2.65 5.25 6.55 17.8 4.05 13 7.25 26.9l-9.65-.4q-6.65.4-9.2 2-1.75-7.5-3.1-16.7-1.3-9.2-1.75-17.15-4.45-2.35-11.6-7.1 2.7 8.65 5.2 20.25 2.25 10.7 3.85 21.4-2.2-1.15-9.4-.8-7.25.4-10.4 1.9-1.85-13.65-2-26.6-.2-14.3 1.75-23.8-8.6-6.45-11.65-10-2.05 3.4-8.55 9.05 4.05 13.25 6.85 27.65 2.5 13.25 3.5 25.05-4.05-1.35-11.25-1.45-6.8-.1-9.9.95-.6-11.15-.3-22.1.4-12.8 2.1-22.85-10.15 7.45-16 9.55 3.8 17.85 5 35.25z"/><path fill="#59bded" d="m147.9 375.15 8.55-.6 10.2.9q.8 10.9.7 18.55l-17.95-.8zm27.95.45q3.05-1.05 9.9-.95 7.2.1 11.2 1.5.85 10.4.85 18.2-9.35-1.4-20.4.25-1.05-8.2-1.55-19m53 14.2-9.05-.35q-5.9.35-10.05 1.45-1.2-6-2.65-16.15 3.15-1.5 10.35-1.85 7.15-.4 9.45.75 1.3 8.45 1.95 16.15m9.55-.7q-1.75-5.75-4.1-16.15 2.55-1.6 9.2-2l9.65.45 3.25 16.6q-2.45-.4-8.85 0zm20 13.15q1.35 13 .6 23.8-.2 2.65-1.5 3.05-1.25.35-2.55-1.6-5.25-8.15-11.25-23.95l7.6-.95z"/><path fill="#bb0132" d="M247.35 386.4q6.4-.4 8.85 0 1.4 8.1 2.2 15.85l-7.1.35-7.6.95q-3.2-8.2-5.5-16.05 2.7-.7 9.15-1.1"/><path fill="#59bded" d="m104.2 166.4 9.2-1.5 4.3 8.25q3.1 5.65 4.25 7.2l-10.65.8q-.9-1-3.7-7zm-48.1-42.7q.55 2.5 2.45 8.95 1.95 6.55 2.8 8.7-18.7-6.45-26.75-12.3-3.1-2.25-2.9-3.3.15-1.1 3.65-1.5 7.95-.9 20.75-.55M5.55 1.25q4.55.9 11.7 3.7 4.45 1.75 13.05 5.6L28.55 20.6l-1.5 10.05q-8.4-7.2-14.85-13.8Q5.4 9.9 2.6 5.4.45 2 .8 1.3q.4-.85 4.75-.05m80.05 170.5q2.55-1.3 12.9-3.85l2.65 6.25 2.9 6.3q-11.25-1.25-17-3.75-3.2-1.4-3.3-2.85-.05-1.15 1.85-2.1m-10.45-25.7q-.95-2.1-3.6-10.65l-3.2-10.8q10.4 1.25 16.55 2.55l3.55 11.15q2.95 9.05 3.85 11.25zm-8.2-63.4q-.05 3 1.05 12.6.95 9 1.6 12.45-13.8-4.95-20.35-7.95-1-2.9-1.85-12.2-.75-7.65-.8-11.6 11.75 3.35 20.35 6.7M14.25 70.2q6.65.45 19.55 2.85l.4 9.1.55 9.25Q19.2 82.1 11.6 74.8q-2.45-2.3-1.75-3.6t4.4-1m142.1 360.05q-2.15-6.5-4.95-25.05l14.4.6q-2.1 14.75-5.6 24.45-1.05 2.9-2.1 2.7-.95-.15-1.75-2.7"/><path fill="#bb0132" d="m149.2 389.2 17.9.8q-.1 9.2-1.3 17.45l-14.4-.65q-1.3-8.55-2.2-17.6"/><path fill="#59bded" d="m332.75 95.6.85-12.45q11-4.3 19.65-6.8.25 2.85-.45 11.8-.7 8.9-1.3 11.15-9 4.45-19.85 8.55zm.2 28.65q-.35 2.4-2.3 10.15-2.05 7.9-3.1 10.8-6.35 1.6-16.7 3.15.65-1.2 3.25-10.25l3.1-11.5q5.9-1.25 15.75-2.35m54-48.75Q377.1 84.4 365 92q.25-2.95.5-18.5 11.85-2.3 20-2.6 2.95-.05 3.35 1.3.35 1.3-1.9 3.3m-100.1 96.25 4-7.75 8.65 1.4-3.1 7.25q-2.45 5.3-3.7 7.05l-9.8-1zm31 2.55q-6.95 3.25-17.4 4.6 1.15-1.6 2.9-6.1 1.65-4.25 1.95-6 9.1 2.25 12.2 3.65 1.8.85 1.95 1.95t-1.6 1.9m46.95-50.2q3.3.45 3.65 1.45.45 1.05-2.2 2.75-9.9 6.45-25.85 12.35 1.25-2.55 2.95-9.1l1.75-8.15zM180.3 407.65q8.8-1.25 16.15-.35-1.75 13.75-4.35 21.85-.9 2.85-2.35 2.8-1.5-.1-3.15-3.15-2.7-5.15-6.3-21.15"/><path fill="#bb0132" d="M177.15 390.6q11.4-1.6 20.45-.2 0 9.6-1.15 18.55-7.3-.95-16.15.3-1.95-8.9-3.15-18.65"/><path fill="#fff" d="M181.3 291.55q6.3 2.5 11.25 2.9 4.35.3 9.75-.9-.8 2.2-.5 5.8-3.35 2.1-9.85 1.8-6.35-.35-9.95-2.6.25-4.75-.7-7"/><path fill="#f6ad3c" d="M333.95 31.5q.95 3.9 2.5 13.75 1.65 10.5 1.6 13.4-18.8 13.05-40.35 24.5-.65 9.45-2.85 20 8.3-5.65 19.05-11.1 10.25-5.25 20.95-9.4L334 95.1l-1.1 12.25q-10.9 4.15-21.45 6.85-11.35 2.9-20.4 3.65-2.8 9.15-6.9 18.95 13.6-5.9 34.55-10.2-.65 2.95-3.1 11.5l-3.25 10.25-16.9 1.75q-9.2.5-17.7.15-3.6 6.9-7.35 12.8l21.95 1.2-4 7.75-3.95 6.95q-5.6-.9-10.8-2.8-5.6-2-9-4.6-8.9 12.05-18.35 20.05l-6.65-5.25q15.95-23.5 26.3-57.85 6.25-20.75 9.95-43.75Q277 77.7 294.4 61.9q16.95-15.4 39.55-30.4"/><path fill="#59bded" d="m213.75 405.25 7.95-.8 7.8.35q0 15.8-2.4 26-.75 3.45-3.1.35-4.5-5.85-10.25-25.9"/><path fill="#bb0132" d="M209.55 389.25q4.2-1.05 10-1.4l9.1.35q.85 9.65.85 18.2l-7.8-.35-7.95.8q-2.5-8.75-4.2-17.6"/><path fill="#59bded" d="M395.2 6.1q-3.65 5.65-10.4 13.15T370.5 33.5q.05-2.75-1.25-10.55-1.25-7.65-2.2-10.6 15.45-7.05 25.8-9.25l3.2.15q.55.7-.85 2.85m-42.6 13.75q1.1 4.8 2.45 13 1.6 9.9 1.3 12.1l-9.75 7.2-10.05 7q.05-2.9-1.6-13.4-1.55-9.85-2.5-13.75 7.3-4.85 20.15-12.15M44.85 17.3q13.1 7.2 22.3 13.1l-2 13.65q-1.45 10.65-1.6 14.1l-11.25-7.7-11.05-7.85q.05-2.85 1.55-13.15 1.45-10.1 2.05-12.15"/><path fill="#fff" d="M145.8 221.95q4.25-2.25 6.15-3.1l6.55 6.8 9.1 8.85 20.8-7.4 9.25 5.05q8.8 4.85 12.5 6.6l.1-.05 20.45-12.6q1.05.55 6.6 2.75l9.65 3.65 5.6-5.3q5.3-5.2 7.15-7.6l-.4 6.95-5.65 6.3q-4.5 4.75-7 6.75l-16.45-6.3-20.45 12.65q-16.7-9.2-21.6-11.75-15.5 5.6-20.9 7.25l-7.1-6.75-8.65-8.8q-5.85 3.25-10.05 5l-1.8-3.1-2-4.3.1-5.95q1 2.05 4.15 6.15l.05.05q.6-.05 3.85-1.8"/><path fill="#31363b" d="M126.45 214.85q3.4-.25 9.1 25.2l3.2-.35q-1-7.95-1.1-16.2l2 4.3 1.8 3.1q4.2-1.75 10.05-5l8.65 8.8 7.1 6.75q5.4-1.65 20.9-7.25 4.9 2.55 21.6 11.75l20.45-12.65 16.45 6.3q2.5-2 7-6.75l5.65-6.3-1.25 11.55 7.6.45q1.05-9.05 2.85-15.65 1.95-7.15 4.4-9.65 2-2.05 18.8 2.9 17.2 5.05 24.2 10.35 1.9 1.4 1.7 2.55-.15 1.05-2.2 1.6l-13.1.9-20.55-1.25q-.75 2.05-1.65 10.25 10.15 1.75 18.75 4 9.3 2.4 13.4 4.55 2.35 1.3 2 2.5-.4 1.3-3.9 1.85-13.15 2.1-31.25 1.3-.15 5.05.25 7.45 6.1.6 18.55 5.4 11.45 4.35 13.65 6.25 1.1.95.85 2.1-.25 1.35-2.4 1.75-8.6 1.5-25.05-.05-16.25-1.55-17.45-3.8-1.5-2.75-2.2-8.4-.7-5.25-.6-12.15l-9.2-1.2-1.65 6.35q-.55 2.25-2.4 4.85-2.75 2.65-6.95 5.95l-5.4 4-5.4-2.6-7.15-3.4q-.8.5-9.6 4.8l-11.4 5.4q-1-.25-7.75-3.7l-10.2-5.45-19.05 6.05q-2.4-1-9.65-6.3l-8.45-6.55q-.85.35-4.55 3.6-2.35-4.1-4.05-9.85l-5.35.55q-.05 6.75-1.1 13.2-.9 5.65-1.8 7.05-2.55 4.1-24.15 7.3-21.75 3.15-23.7-.7-1-2.05 11.8-7.9 12.5-5.65 23.2-8.4.3-1.25.15-7.45-15.2 2.05-26.65 2.3-11.75.3-12.35-1.45-.5-1.6 11.7-6.55 12-4.9 26.35-9.05-.65-6.5-1.75-11-7.5 1.5-22.85 2.2-16.75.7-17.3-1.25-.2-.8 4.65-3.7 5.1-3 12.2-6.2 18.95-8.5 31.55-9.35"/><path fill="#fff" d="M164.65 193.5q3.4-2.35.75-7.35l-2.75-5.25 3.3-1.65q-2.45 4.9 7.9 9.2 9.65 4.05 23.15 4.85 10.65.65 25.9-2.05 16.9-2.95 13.9-6.8 1.85 1.25 7.2 5.6l6.8 5.75q-.4 5.25-17.7 10.15-17.5 4.9-34.15 4.25-16.65-.6-31.25-5.95-16.65-6.15-17.9-14.8l2.95-2.3 5.55 5.7q3.05 3 6.35.65"/><path fill="#31363b" d="M160 216.75q-18.8-6.75-20.15-14.95 2.1-5.75 9.95-12.35 1.25 8.65 17.9 14.8 14.6 5.35 31.25 5.95 16.65.65 34.15-4.25 17.3-4.9 17.7-10.15 7.55 7.65 8.65 13.05-2.25 6.9-25.25 11.8-21.75 4.65-39.4 3.35-18.3-1.3-34.8-7.25"/><path fill="#009334" d="m158.5 225.65-6.55-6.8q-1.9.85-6.15 3.1-3.25 1.75-3.85 1.8l-.05-.05q-3.15-4.1-4.15-6.15.2-6.3.45-8.65.4-3.95 1.55-6.8 1.35 8.2 18.6 14.55 15.9 5.85 36.45 7.35 17.25 1.3 39.2-3.4 23.2-4.95 25.45-11.75l.2 4.35.05 6.4q-1.85 2.4-7.15 7.6l-5.6 5.3-9.65-3.65q-5.55-2.2-6.6-2.75l-20.45 12.6-.1.05q-3.7-1.75-12.5-6.6l-9.25-5.05-20.8 7.4z"/><path fill="#f6ad3c" d="M165.4 186.15q2.65 5-.75 7.35-3.3 2.35-6.35-.65l-7.5-7.95q-6.4-6.95-8.7-9.85-4.2 2-10.15 3.5-5.55 1.4-11.25 2.05-1.15-1.55-4.25-7.2l-4.3-8.25 11.4-1.1q6.15-.4 10.35-.1-3.2-4.75-6.7-10.85-18.45.1-36.65-3.3-.9-2.2-3.85-11.25l-3.55-11.15q22.25 4.65 36.1 9.9-4.15-9.15-7.4-17.9-22.55-4.6-43.75-12.2-.65-3.45-1.6-12.45-1.1-9.6-1.05-12.6 21.25 8.4 40.65 20.05-3.2-10.9-4.9-21.3-8.2-4.1-18.85-10.5-10.5-6.35-20.55-13.25.15-3.45 1.6-14.1l2-13.65q25.05 16.2 43.3 32.7 19.55 17.65 20.5 26.25 1.8 16.3 18.85 58.05 8.6 21 17.35 39.75"/><path fill="#f6ad3c" d="M197 193.3q-13.5-.8-23.15-4.85-10.35-4.3-7.9-9.2 8.95-4.25 18-6.35l-.5 3.05q2.35 6.5 17.65 6.65 6.2.05 11.4-1.25 5.35-1.35 6.9-3.55l.1-2.6q8.75 3.55 17.3 9.25 3 3.85-13.9 6.8-15.25 2.7-25.9 2.05"/><path fill="#fff" d="M161.1 274.95q-8-4.85-10.9-7.85l-1.85 1.5q-1.2-1.35-2.45-3.5 3.7-3.25 4.55-3.6l8.45 6.55q7.25 5.3 9.65 6.3l19.05-6.05 10.2 5.45q6.75 3.45 7.75 3.7l11.4-5.4q8.8-4.3 9.6-4.8l7.15 3.4 5.4 2.6 5.4-4q4.2-3.3 6.95-5.95-4.65 6.85-15.4 14.35l-4.9-2.45q-3.7-1.7-4.85-2.05l-10.2 4.65q-10.25 4.8-12.1 5.2l-.1.05q-1.5-.45-8.05-4.4l-8.25-5.05q-12.95 4.85-17.4 6.05-1.7-.25-9.1-4.7"/><path fill="#009334" d="m148.35 268.6 1.85-1.5q1.7 1.75 9.6 6.8 7.95 5.05 10.15 5.7l17.65-6 8.25 5.05q6.55 3.95 8.05 4.4l11-4.95q11-4.95 11.4-4.95 1.15.35 4.85 2.05l4.9 2.45q-11.9 8.3-20.1 11.9-8.35 3.65-18 4.75-11.35 1.3-28.15-8.6-13.95-8.25-21.45-17.1"/><path fill="#31363b" d="M195.45 84.3q2.1-16.3 3.4-19.45 1.15-2.75 3.85-4.35 2.55-1.55 5.4-1.4 6.85.35 7.8 8.15.55 4.4 1.2 18.4l1 21.4q.25 3.9 2.3 7.75l4.3 6.7q6.05 8.9 6.05 17.8 0 7.75-4.5 14.3-3.3 4.75-7.4 7.15l.25 8.7.3 8.35q-1.55 2.2-6.9 3.55-5.2 1.3-11.4 1.25-15.3-.15-17.65-6.65l2.4-18.5q-4-4-5.8-8.15-2.4-5.35-2.25-12.95.15-8.6 6.8-17l4.9-6.15q2.45-3.4 2.95-6.35z"/><path fill="#fff" d="M207.65 123.15q6.4 0 10.9 4.5 4.55 4.55 4.55 10.9 0 6.4-4.55 10.9-4.5 4.55-10.9 4.55-6.35 0-10.9-4.55-4.5-4.5-4.5-10.9 0-6.35 4.5-10.9 4.55-4.5 10.9-4.5"/><path fill="#59bded" d="M203.55 133.7q2.35-2.3 5.6-2.3t5.6 2.3q2.3 2.35 2.3 5.6t-2.3 5.6q-2.35 2.3-5.6 2.3t-5.6-2.3q-2.3-2.35-2.3-5.6t2.3-5.6"/><path fill="#fff" d="M158.15 263.2q-2.8-4.55-1.7-9.75 1.05-5.25 5.45-8.1 4.35-2.8 9.45-1.6t7.9 5.75q2.6 4.2 1.8 9.5-.8 5.7-5.1 8.45-4.35 2.8-9.65 1.55-5.35-1.3-8.15-5.8"/><path fill="#59bded" d="M163.15 256.75q0-2.5 1.65-4.3 1.6-1.75 3.9-1.75 2.35 0 3.95 1.75 1.65 1.8 1.65 4.3t-1.65 4.25q-1.65 1.8-3.95 1.8t-3.9-1.8q-1.65-1.75-1.65-4.25"/><path fill="#fff" d="M250.9 248q1.15 4.4-.7 9.9-1.7 5.2-5.35 7.95-3.6 2.75-7.05 1.55t-4.65-5.7q-1.2-4.55.55-9.7 1.7-5.2 5.45-8 3.75-2.75 7.2-1.55t4.55 5.55"/><path fill="#59bded" d="M244.15 249.75q1.4.5 1.8 2.6.45 2.1-.35 4.55-.75 2.45-2.25 3.9-1.5 1.4-2.85.9t-1.75-2.6q-.45-2.1.3-4.6.75-2.45 2.25-3.85t2.85-.9"/><path fill="#fff" d="M168.45 283.7q2.4-2.35 6.85.05 4.5 2.4 4.7 6.6.05 1.85-5.6 5.85-4.4 3.15-8.05 4.9-2.95 1.35-2.7-1.1.25-2.35 1.75-8.15 1.8-7 3.05-8.15m50.15 4.2q1.55-3.2 5.85-5.65 4.6-2.7 7.05-1.05.4.25 1.5 6.45l1.55 10.35q.15 1.35-.25 1.7-.4.3-1.5-.35-4.15-2.55-8.8-6.05-5.9-4.45-5.4-5.4"/><path fill="#bb0132" d="m97 167.9 8.2-1.75 3.4 7.75q2.8 6 3.7 7l-9.75-.45-2.9-6.3zm-42.4-44.45 15 1.15 3.2 10.8q2.65 8.55 3.6 10.65-9.15-2.4-16.55-4.95-.85-2.15-2.8-8.7-1.9-6.45-2.45-8.95M33.25 90.9l-.55-9.25-.4-9.1q8 1.5 16.3 3.9.05 3.95.8 11.6.85 9.3 1.85 12.2-10.1-4.65-18-9.35m14.1-72.35q-.6 2.05-2.05 12.15-1.5 10.3-1.55 13.15-9.2-6.95-17.95-14.45l1.5-10.05L29.05 9.3q9 4.05 18.3 9.25m294.3 121.85q-7.1 2.65-15.35 4.8 1.05-2.9 3.1-10.8 1.95-7.75 2.3-10.15l14.65-1.1-1.75 8.15q-1.7 6.55-2.95 9.1m9.15-51.5q.7-8.95.45-11.8 8.1-2.35 15.5-3.85l-.55 17.6q-8.15 5-16.7 9.2.6-2.25 1.3-11.15m-49.35 90-9.75.55q1.25-1.75 3.7-7.05l3.1-7.25 7.8 1.65q-.3 1.75-1.95 6-1.75 4.5-2.9 6.1m67.1-167.3q1 3.1 2.25 9.9 1.35 7.15 1.3 9.85-8.2 7.25-17 14.1.3-2.2-1.3-12.1-1.35-8.2-2.45-13 8.65-4.9 17.2-8.75"/><path fill="#d59633" d="m120.6 181.35-1.3-1.95q-.95-1.8-.55-1.85 13.4 0 22.95-2.2l-8 2.45zm-30.05-31.8-1.65-3.05 19.55 3.4 20.85 2.85-22.95-1.1zm243.1-47.5.15 2.65q0 2.7-1.05 3.1-4.75 1.9-17.25 5.3-17.25 4.6-23.5 3.7 2.1-.4 20.5-6.85 18.6-6.6 21.15-7.9"/><path fill="#4da5ce" d="m110.2 177.15 8.55.4 1.8 2.8-8.25.55q-.5-.55-2.1-3.75M58.7 137.8l1.15 3.3q-15.95-5.5-24.65-11.65 12.2 4.55 23.5 8.35M1.6.85Q11.95 13.4 26.2 26.2l-.4 3.2Q8.15 14.3 2.6 5.4 1.05 2.95.8 2.1.5 1 1.6.85"/><path fill="#9a0025" d="m102.55 180.45-2.1-4.55 9.75 1.25q1.6 3.2 2.1 3.75z"/><path fill="#4da5ce" d="M87.05 176.7q-2.8-1.2-3.2-2.45-.35-1.05.9-2 8.1 2.35 15.7 3.65l2.1 4.55q-9.25-1-15.5-3.75"/><path fill="#9a0025" d="m58.7 137.8 16.55 5.15 1.15 3.1q-9.15-2.4-16.55-4.95z"/><path fill="#4da5ce" d="m76.4 146.05-1.15-3.1 14.15 3.65.85 2.35z"/><path fill="#9a0025" d="m33.25 90.9-.3-4.5q7.75 4.5 17.3 8.95.55 3.6 1 4.9-10.1-4.65-18-9.35"/><path fill="#4da5ce" d="m67.45 102.8.6 4.2q-9.5-3.4-16.8-6.75-.45-1.3-1-4.9 7.55 3.5 17.2 7.45M10.4 70.65q10.2 8.7 22.55 15.75l.3 4.5q-12.9-7.75-21.65-16.1-3.1-3-1.2-4.15m339.1 29.4q-7.25 3.55-16.55 7.1l.55-5q10.65-4.45 16.75-7.4z"/><path fill="#9a0025" d="M328.25 138.7q8.4-2.35 15.7-5-1.3 4.75-2.3 6.7-7.1 2.65-15.35 4.8z"/><path fill="#4da5ce" d="m328.25 138.7-1.95 6.5q-8.35 2.1-13.95 3 .55-1.05 1.9-5.65z"/><path fill="#9a0025" d="m366.4 86.4-.2 4.45q-8.15 5-16.7 9.2l.75-5.3q8.55-4.1 16.15-8.35"/><path fill="#4da5ce" d="M366.4 86.4q12-6.8 22.45-14.2.3 1.3-1.9 3.3-8.4 7.65-20.75 15.35z"/><path fill="#9a0025" d="m43.95 41.1-.2 2.75Q34.55 36.9 25.8 29.4l.4-3.2q8 7.15 17.75 14.9"/><path fill="#4da5ce" d="m284.4 178.85 1.5-2.55 7.4.35-1.6 2.8zm18.5-2.65q8.45-.85 16.55-3.6 0 .95-1.6 1.7-7.35 3.4-16.4 4.6z"/><path fill="#9a0025" d="m293.3 176.65 9.6-.45-1.45 2.7-9.75.55z"/><path fill="#4da5ce" d="M365.95 124.3q4.9 1 .3 4-10.6 6.95-24.6 12.1 1-1.95 2.3-6.7 12.2-4.35 22-9.4"/><path fill="#d59633" d="M174.5 310.4q4.25-3.45 6.05-5.9 1.2-1.75 1.45-5.95 3.6 2.25 9.95 2.6 6.5.3 9.85-1.8l.35 2.55q.4 2 5.85 6.05-15.35 6.2-33.5 2.45"/><path fill="#dcdddd" d="M181.3 291.55q6.3 2.5 11.25 2.9 4.35.3 9.75-.9-.8 2.2-.5 5.8-3.35 2.1-9.85 1.8-6.35-.35-9.95-2.6.25-4.75-.7-7"/><path fill="#d59633" d="M274.3 176.35q-5.35-1.8-8.7-4.1 9.1 2.8 20.3 4.05l-1.5 2.55q-5.3-.9-10.1-2.5m22.15-29.8 17.8-4q-1.35 4.6-1.9 5.65-17.2 2.7-33.5 2.05zm39.65-92.7.45 5.3q-17.3 12-33.65 21.2z"/><path fill="#4da5ce" d="M371.35 24.75q13.2-10.95 24.85-21 0 .9-1 2.35-6.9 10.75-23.1 25.25 0-2-.75-6.6"/><path fill="#9a0025" d="M371.35 24.75q.75 4.6.75 6.6-8.2 7.25-17 14.1.2-1.4-.5-6.75z"/><path fill="#4da5ce" d="M354.6 38.7q.7 5.35.5 6.75-8.7 6.8-18.55 13.7l-.45-5.3zM43.75 43.85l.2-2.75q5.85 4.6 17.95 13.25l-.2 2.35z"/><path fill="#d59633" d="m68.05 107-.6-4.2 18.3 7.35 18.15 7.5Q87.05 113.8 68.05 107M61.7 56.7l.2-2.35Q76.6 64.9 96.95 78.7q-13.65-7.2-35.25-22"/><path fill="#dcdddd" d="M165 293.5q9.05.5 14.55-5.15.4 1 .45 2 .05 1.85-5.6 5.85-4.4 3.15-8.05 4.9-2.95 1.35-2.7-1.1.2-1.55 1.35-6.5m52.9-5 8.65 1.65q5.4.5 6.85-2.65.55 3 1.15 10.5.15 1.35-.25 1.7-.4.3-1.5-.35l-7.45-5q-5.5-3.9-7.45-5.85"/><path fill="#31363b" d="M143.1 259q3.6 2.15 6.05 3.35l-3.25 2.75q-1.55-2.65-2.8-6.1m69.4 15.2-6.95 3.25q-1-.25-6.25-3 6.45.2 13.2-.25m-35.85-2.45-8.1 2.6q-1.7-.75-6.05-3.75l-7.6-5.6q10.3 4.45 21.75 6.75m75.3-9.2-.5.75q-2.75 2.65-6.95 5.95l-5.4 4-5.6-2.7q10.4-3.05 18.45-8"/><path fill="#dcdddd" d="m150.2 267.1-1.85 1.5q-1.2-1.35-2.45-3.5l3.25-2.75q3.1 1.6 5.75 2.65l7.6 5.6q4.35 3 6.05 3.75l8.1-2.6q11.5 2.4 22.65 2.7 5.25 2.75 6.25 3l6.95-3.25q11.15-.85 21-3.65l5.6 2.7 5.4-4q4.2-3.3 6.95-5.95-4.65 6.85-15.4 14.35l-4.9-2.45q-3.7-1.7-4.85-2.05-.4 0-11.4 4.95l-11 4.95q-1.5-.45-8.05-4.4l-8.25-5.05-17.65 6q-17.75-10.45-19.75-12.5"/><path fill="#007a28" d="M156.3 276.15q-5-4.15-7.95-7.55l1.85-1.5q3.7 3.8 19.75 12.5l17.65-6 8.25 5.05q6.55 3.95 8.05 4.4l11-4.95q11-4.95 11.4-4.95 1.15.35 4.85 2.05l4.9 2.45-4.55 3.1q-3.9.2-7.15 1.9-4 2.05-6 5.8-5.05 2.45-10 3.85-4.8 1.35-10.4 2-7.6.9-18-3.5-.35-4.15-4.5-6.75-4.35-2.75-7.65.4-6.05-3.8-11.5-8.3"/><path fill="#31363b" d="M267.5 274.15q-.7-1.25-1.25-3.5 10.65 3.45 21.15 4 11.15.55 21.15-2.2 2.05.95 3 1.7 1.1.95.9 2.1-.3 1.35-2.45 1.75-8.55 1.55-25.05-.05-16.25-1.55-17.45-3.8M85.75 283v-.2q15.9-.4 27.2-3.85 13.9-4.25 23-13.65l-1.15 7.25q-.65 2.95-1.2 3.85-2.5 4.1-24.15 7.3-21.75 3.15-23.7-.7"/><path fill="#0f141b" d="m183.75 172.1-.4 1.8q-10.25 2.45-20.1 7.6l-.85-1.8q4.45-2.7 10.3-4.65 4.3-1.4 11.05-2.95m35.5 3.9v-1.8q15.7 6.05 28.6 16.6 13.3 10.8 13.65 18.45.55 10.8-1.05 24.75-1.65 14.1-4.7 24.75-1.5 5.25-8.35 11.7-6.25 5.9-15.6 11.6-.5-1-1.45-1.65 8.85-5.5 14.9-11.25 6.4-6.15 7.8-10.9 3.05-10.65 4.65-24 1.6-13.45 1.1-24-.3-6.7-12.55-17.4-12.45-10.95-27-16.85m-24 119.75q-6.95.2-15.75-3.65l.35-2.05q8.85 3.8 15.7 3.6 9.55-.3 23.7-7.15v2.2q-14.5 6.7-24 7.05M147.8 270.2q-4.55-4.45-7.7-14.7-.05-.25.95-.65l1.5-.35q2.95 10.3 7.45 14.65 8.5 8.3 18.5 14.75l-1.2 1.45q-12.45-8.2-19.5-15.15m-5.15-76.2q3.7-4.1 9.25-8.05l1.7 1.6q-5.1 3.7-8.45 7.55-3.45 3.85-4.6 7.3-1.65 4.9-2 15.2-.35 10.7 1 21.55l-2.1.5q-1.55-11.3-1.4-22.55.15-10.75 1.7-15.35 1.25-3.65 4.9-7.75"/><path fill="#0f141b" d="M139.15 201.5q0-.35.9-.55t.85.15q-.2 7.35 17.4 14.15 16.7 6.45 36.55 7.9 20.45 1.55 42.15-3.9 21.05-5.3 21.5-11.2l.9.1q.9.45.85.7-.6 7-23.15 12.6t-43.6 4.05q-20.85-1.55-37.3-8.4-17.35-7.2-17.05-15.6"/><path fill="#0f141b" d="M248.75 197.7q.95-1.2.75-2.15-.05-.35.9-.35t1 .35q.55 2.2-1 3.95-4.15 5.05-20.5 8.65-15.95 3.45-30.95 2.9-17.75-.65-32.35-5.85-17.4-6.2-17.85-15.45 0-.35.9-.7t.95 0q.9 8.3 17.6 14.35 14.6 5.35 30.8 5.95 14.85.6 30.75-3.35 15.2-3.75 19-8.3"/><path fill="#0f141b" d="M177.15 190.7q-10.3-3.45-12.45-7.85-.4-.85-.25-1.75l.5-1.75q.1-.3 1.2-.4 1.05-.1.85.15-1.1 1.65-.3 3.25 1.75 3.55 10.65 6.5t19.7 3.6q10.45.6 25.8-2.15 16.1-2.9 12.95-5.7-.3-.25.9-.15 1.15.05 1.25.35 2.05 4.85-15 7.8-14.4 2.5-25.7 1.9-10.55-.65-20.1-3.8m-64.2-71q3.35 9.05 7.4 18l-3.15-1.5q-4-8.65-7.35-17.4zm21.85 44.05h-2.75q-2.4-3.55-6.55-11h2.45q3.15 5.55 6.85 11"/><path fill="#0f141b" d="M166.15 185.75q1.5 2.85 1.05 5.2-.35 2-1.95 3.2-1.7 1.25-3.9 1.2-2.25-.05-3.8-1.55-9.85-9.65-16.95-18.5l2.1-.85q6.3 7.9 16.2 17.8 1.2 1.15 2.8 1.25 1.45.05 2.55-.75 1.25-.9 1.35-2.55t-.95-3.65q-10.35-19.4-20.75-45.45-13.45-33.8-15.55-52.65-.75-6.9-14.3-20.4-12.9-12.75-32.55-26.9Q61.2 26.6 41.6 16.3 20.05 5 5.35 2.1q-3-.6-3.25.05-.25.5 1.2 2.8 8.8 13.95 43.05 39.8Q80.7 70.6 105.6 82.05q1.95.9 1.3 1.5-.65.65-2.65-.3L103 82.7q1.45 9.35 4.3 19.55-1.7-1.3-3.8-2.65-2.7-9.8-4-18.35-26.5-11.9-56.9-35.4-30.3-23.45-40.75-40-2.5-4-1.6-5.2L5.7.45q15.5 3.05 37.9 14.5 19.95 10.2 38.35 23.3 19.75 14.15 32.25 25.6 16.35 15 17.3 22.9 2.35 19.8 14.9 53.45 10.45 28.1 19.75 45.55"/><path fill="#0f141b" d="M11.05 75.45q-3.4-3.25-2.6-4.85.85-1.6 5.85-1.25Q38.4 71.1 61.5 79q24.55 8.4 46.7 23.35 2.65 1.8 3.95 3.6t-1.35.15Q60.45 74.35 14.2 71.05q-3.6-.3-3.85.5-.25.65 1.85 2.65 15.5 14.9 42.85 26.85 27.4 11.95 60.4 18.15 2.95.55 1.6 1.4l-4.35.25q-32.75-6.2-59.6-18.35-26.2-11.8-42.05-27.05m33.2 58.2q9.7 4.55 22.35 8.5 33.1 10.4 63.3 10.05 2.65-.05 1.3.75-1.35.75-4.05.85-28.65 1.3-61.1-8.8-13.4-4.2-23.15-9.15-9.5-4.85-12.2-8.7-1.6-2.25 1-3.1 9.85-3.45 30.85-1.7 29.1 2.4 59.6 15.4 2.2.95 3.4 2.15 1.15 1.25-1.05.35-30.4-12.3-59.7-15.2-19.85-1.95-30.85.4-1.35.3-1.45.6-.05.15.6.9 2.3 2.6 11.15 6.7M82.5 174q-.1-4.4 20.1-8.4 20.15-4 32.05-2.05 2.45.4 3.5 1.15 1 .7-1.35.4-12.7-1.65-33.1 2.45-19.15 3.8-19.1 6.25.05 1.55 5.9 3.35 6.3 1.95 14.7 2.6 22.9 1.85 39.35-6.9 2.8-1.45 1.95-.4-.8 1.05-3.6 2.8-15.25 9.45-38.65 7.05-9.05-.95-15.45-3.4-6.25-2.45-6.3-4.9m44.05 38.95q1.95-.15 3.95 5.15 2.3 5.9 5.7 21.05l1.7-.2 1.7-.15q1.65 0 2 .55t-1.2.9l-4.8.65q-.7.1-.9-.65-3.3-14.8-5.8-20.9-1.5-3.7-2.4-3.65-11.85.8-29.4 8.45-15.05 6.55-17.95 9.8 2.55 1.2 17.6.45 14.4-.7 21.3-2.05.7-.15 1 .6.9 3.85 1.65 10 .1 1.1-.15 1.55t-1.15.7q-13.4 3.9-24.7 8.45-10.25 4.15-11.8 5.9 1.65 1.05 11.4.85 11.25-.3 26.5-2.35l.7.1.25.75v3.8l-.15 3.85q-.1.5-.6.65-10.55 2.65-22.6 8.1-11.35 5.2-11.85 7.05 2.2 3.05 23.1.05t23.25-6.75q.75-1.3 1.6-6.55 1.1-6.45 1.15-13.3 0-.7.7-.8l4-.5 2.6-.2q1.6 0 1.2.95-.45.9-2.05.9l-4.5.65q-.15 6.75-1.2 13.45-.95 6.2-1.9 7.75-1.95 3.2-18.85 5.8-16.45 2.55-25.65 1.45-6.1-.7-6-2.5.1-1.65 5.6-4.9 5.65-3.35 14.5-7.1 9.25-3.95 15.85-5.65l.15-4.95q-5.45 1.55-21.9 2.1-17.7.55-18.35-2-.65-2.35 13.65-8.55 13.9-6.05 25.35-8.7l-1.3-8.15q-6.4 1.55-22.7 2.05-18.05.5-18.8-2.3-.3-1.15 4.9-4.5 5.25-3.35 13.05-7 19.8-9.3 32.55-10.15m73.1-147.75q-.8 2.05-3.45 20.9l-2.9 20.9q-.5 2.75-2.25 5.55l-3.95 5.05q-8.1 9.15-8.6 19.65-.55 11.1 7.95 19.6l.25.6v.1l-2.35 18.3q2.3 5.6 16.75 5.75 5.9.1 10.8-1 5.15-1.2 6.7-3.15.15-2.05-.2-8.2l-.4-8q0-.95.4-1.25 4.05-2.3 7.25-7.05 4.25-6.3 4.25-13.65 0-5.85-2.15-10.8-1.25-2.95-4.65-7.9-2.8-4-3.85-6.2-1.75-3.6-2-7.3-1.6-35.15-2.15-39.75-.9-7.35-7.2-7.35-2.6-.05-4.9 1.4-2.35 1.45-3.35 3.8m-1.55-.65q1.3-3.15 4.2-4.95 2.75-1.7 5.85-1.6 7.45.25 8.45 8.5.55 4.65 2.65 40.5.2 3.35 2.1 6.85l3.9 5.9q8.55 11.7 7.2 22.65-1.35 11.15-12.7 19.5 1.3 15.75 1 16.25-1.8 3-8 4.6-5.8 1.55-12.85 1.3-7.2-.2-12.1-2.15-5.45-2.15-5.9-5.75l3.05-18.4q-8.4-8.55-9.2-18.1-.95-11.15 8.75-22.9l4.1-5.1q2-2.95 2.4-5.25l3.2-20.85q3-18.8 3.9-21"/><path fill="#0f141b" d="M222.25 138.55q0-6-4.3-10.25-4.25-4.3-10.3-4.3-6 0-10.25 4.3-4.3 4.25-4.3 10.25 0 6.05 4.3 10.3 4.25 4.3 10.25 4.3 6.05 0 10.3-4.3 4.3-4.25 4.3-10.3m-14.5-16.5q6.7 0 11.45 4.9 4.75 4.85 4.75 11.6t-4.9 11.75q-4.95 4.95-11.7 4.95-6.65 0-11.35-4.95-4.6-4.95-4.6-11.75 0-6.75 4.8-11.6 4.8-4.9 11.55-4.9"/><path fill="#0f141b" d="M209.15 132.25q-2.9 0-5 2.05-2.05 2.1-2.05 5 0 2.95 2.05 5 2.1 2.05 5 2.05t4.95-2.05q2.1-2.1 2.1-5t-2.1-5q-2.05-2.05-4.95-2.05m-5.85.75q2.8-2.7 6.45-2.7 3.55 0 5.9 2.7 2.25 2.6 2.25 6.3 0 3.65-2.55 6.2-2.6 2.55-6.2 2.55-3.65 0-6.2-2.55t-2.55-6.2q0-3.55 2.9-6.3m-46.05 120.6q-1 4.9 1.65 9.15 1.3 2.05 3.3 3.5 2.05 1.45 4.5 1.95 4.9 1.1 8.8-1.45 3.95-2.55 4.75-7.85.7-5-1.7-8.95-2.7-4.3-7.6-5.4-4.6-1.1-8.6 1.5-4.1 2.65-5.1 7.55m4 14.05q-2.35-1.65-3.8-4-3-4.85-1.85-10.4 1.15-5.6 5.8-8.6 4.6-2.95 9.9-1.75 5.65 1.25 8.65 6.2 2.8 4.4 1.9 10.1-.9 6.05-5.45 8.95-4.5 2.95-10.1 1.7-2.75-.6-5.05-2.2"/><path fill="#0f141b" d="M172.05 253.1q-1.35-1.55-3.35-1.55-1.95 0-3.3 1.55-1.4 1.5-1.4 3.65t1.4 3.65q1.35 1.55 3.3 1.55 2 0 3.35-1.55 1.4-1.5 1.4-3.65t-1.4-3.65m1.25-1.2q1.85 2 1.85 4.85t-1.85 4.9q-1.9 2-4.6 2-2.65 0-4.55-2-1.85-2.05-1.85-4.9t1.85-4.85q1.9-2.05 4.55-2.05 2.7 0 4.6 2.05m73.35 10.95q1.8-2.25 2.75-5.2 1.7-5.1.75-9.2-.95-4.15-4.05-5.2-2.3-.75-4.85.45-2.2 1.1-3.95 3.35-1.85 2.3-2.8 5.2-1.65 4.85-.6 9.05t4.15 5.3q2.25.8 4.7-.45 2.15-1.05 3.9-3.3m5.05-15.15q1.25 4.75-.7 10.5-1.1 3.25-3.05 5.8-2 2.5-4.45 3.65-3.1 1.55-6 .55-3.75-1.3-5.1-6.15t.5-10.35q1.1-3.2 3.1-5.75 2-2.5 4.5-3.75 3.25-1.6 6.15-.55 3.8 1.3 5.05 6.05"/><path fill="#0f141b" d="M244.8 256.65q.7-2.2.35-4.05-.3-1.75-1.25-2.05l-1.2.15q-1.85.9-2.85 4.05-.45 1.6-.45 2.85t.4 2.2q.4.85 1 1.1l1.15-.15q1.85-.85 2.85-4.1m-.35-7.7q1.7.6 2.3 3 .55 2.35-.3 5.2-1.2 3.9-3.75 5.1l-2.5.25q-1.7-.65-2.25-3-.6-2.4.3-5.25 1.1-3.8 3.7-5.1zm148.2-246.7 4.2.15q1.1.95-.9 4.15-11.1 17.65-39.9 40.25-28.1 22-57.3 36.5-2.6 1.3-3.45 1-.85-.35 1.6-1.65 27.95-14.85 56.5-36.95 30.5-23.65 41.1-40.05 1-1.5.6-1.85l-2.1.1q-15.95 3.45-36.85 14.65-18.45 9.85-37.3 23.85-17.45 12.95-29.3 24.85-11.95 12-12.85 17.65-4.25 26.55-11.8 49.75-9.85 30.35-24.45 51.9-.1.2-1.3-.5t-1.05-.9q15.2-20.45 24.9-51.25 6.65-21.15 11.25-49.75.95-5.9 12.7-17.95t29.15-24.95q18.9-14 37.8-23.95Q375.4 6 392.65 2.25m-147 188.65q9.7-8.05 18.6-20.15l1.75 1.55q-8.65 11.25-19 19.8-.25.25-.95-.35-.7-.65-.4-.85m31.45-40.95 2.95.45q-3.05 6-7.25 12.35h-3.1q4.25-6.7 7.4-12.8"/><path fill="#0f141b" d="M290.25 117.75h2.8q-2.5 8.8-6.05 17.75l-3.7 1.4q4.1-9.7 6.95-19.15m6.6-34.6q0-.35 1.2-.7l1.2.05q-.7 9.5-2.4 18.85l-2.9 1.85q2.15-9.95 2.9-20.05"/><path fill="#0f141b" d="M385.5 70.05q3.95-.1 4.6 1.5.7 1.7-2.55 4.6-20.2 18.2-46.2 29.6-25.85 11.3-50.1 12.75-2.35.1-3.75-.55t.95-.75q22.9-1.35 51.3-13.6 28.4-12.3 46.65-28.75 2.05-1.85 1.9-2.5-.2-.65-2.75-.6-20.85.75-47.7 10.7-26.9 9.9-46.25 24-1.75 1.3-1.5.2.3-1.1 2.05-2.4 19.1-14.5 45.9-24.15 25.85-9.3 47.45-10.05m-20.6 53.2q4.55.6 4.8 2.2.3 1.4-3 3.55-16.65 10.95-36.8 16.75-25.7 7.4-52.9 5.1-2.55-.2-3.35-1-.85-.75 1.7-.6 26.85 1.6 52.9-5.45 21.9-5.95 37.55-16.2 2.25-1.5 2.05-1.9-.2-.35-3.2-.75-19.75-2.75-44.45 1.9-21.65 4.1-38.45 11.95-2.65 1.25-1.7-.2.95-1.4 3.6-2.6 16.55-7.75 37.6-11.45 23.45-4.1 43.65-1.3m-100.65 49q-1.55-1.35-1.8-2.55-.2-1.2 1.35.1 8.8 7.55 24.7 8.65 15.95 1.15 29-4.9 1.4-.6 1.25-1.15-.1-.45-1.6-1.15-7.05-3.25-19.85-5.45-15.15-2.6-29.25-1.8-2.1.1-1.25-.75t2.95-1q13.15-.95 28.2 1.8 12.6 2.3 19.9 5.65 2.8 1.3 2.7 2.95-.05 1.65-3.15 3.1-13.5 6.2-28.75 5.25-15.3-1-24.4-8.75m32.8 44.25Q319 224.35 319 229.15q0 3.1-16.4 3.3l-20.15-.8q-.65 2.5-1.25 7.65 11.1 1.95 21.65 5.25 13.5 4.2 13.25 7.2-.2 2.4-13.95 3.7l-22.05.65-.1 2.25-.05 2.65q9.5 1.6 21.35 6.7 12.5 5.35 12.15 8.35-.45 4-22.95 3l-15.9-1.5q-7.4-1.2-8.1-2.55-2.8-5.35-2.8-20.7l-7.6-1.3q-.35-.05-.25-.9t.45-.8l8.5 1.15q.75.1.75.85-.05 7.05.65 12.35.7 5.25 2.05 7.8 1.25 1.85 16.9 3.35 16.25 1.55 24.7.05 3.2-.55 1.15-2.35t-13.35-6.1q-12.3-4.75-18.4-5.4-.65 0-.75-.7-.4-2.6-.25-7.6 0-.45.15-.6.15-.25.75-.2 17.65.8 31.05-1.25 2.8-.45 3.15-1.15.35-.65-1.5-1.65-3.85-2.05-12.55-4.35t-19.3-4.15q-.75-.1-.75-.9 1.1-8.85 1.7-10.45.3-.65.9-.55l20.3 1.2 13-.8q2.8-.75.25-2.7-7.2-5.35-24.05-10.25-15.95-4.6-17.85-3.05-2.2 2.2-4.1 8.9-1.85 6.65-2.9 15.9l-.3.55-.65.2-6.75-.4q-.35 0-.35-.85.05-.85.4-.85l5.55.2q1.05-8.85 3.5-16.2 2.25-6.7 4.6-9.45 1.25-1.45 8.75.05 6.9 1.4 15.8 4.6m-135.9 127.1q-.3-1.35.4-1.6 5.7-2.05 15.8-9.45.8-.6 1.15-.3.35.25.2 1.1-4.5 27.2-.65 57.8 3.25 25.8 9.3 37.25 1.25 2.35 2.15 2.6 1.05.25 1.8-2.1 6.55-20.65 5.2-46.8-1.35-26.1-10.45-55.85-.15-.5.25-.9 6.45-5.65 8.35-8.85.65-.95 1.4-.1 3.05 3.55 11.5 9.85.25.15.35.85-4.7 22.4 2.15 58.9 2.8 15.2 6.85 27.45 4 12.3 7.75 17.2.55.75 1 .7.45 0 .65-.75 3.9-16.85 1.35-43.95-2.6-26.9-10.4-51.8-.3-.8.05-1.15t1.2.2l11.55 7.05.45.7q1.35 24.95 10.75 52.7 7.25 21.45 14.45 32.7.75 1.15 1.55.9.8-.3.9-1.95 1.65-23.1-6.35-56.35-6.3-26-13-40.05-.3-.65-18.85-12.55-18.1-11.65-18.6-14.95-.95-5.5.05-8.6l1.2-.25h1.15q-1.75 3.75-.75 8.5.6 2.9 18.7 13.85 18.5 11.15 19.2 12.7 7.05 15.05 13.05 41.05 7.6 32.85 5.9 56.75-.25 3.8-1.95 4.4-1.65.55-3.65-2.55-8.3-13-15.1-32.4-9.15-26.3-10.7-53l-3.7-2.4-4.65-3.15q7.85 24.5 9.95 50.3 2.1 25.6-2.1 43.7-.6 2.55-1.6 2.85-1.15.35-3.05-2.15-10.15-13.3-16.15-46.1-6.35-34.75-1-58.3l-5.6-4.2q-3.25-2.5-5-4.35l-3.35 3.7-3.95 3.55q9.45 31.05 10.7 55.15 1.3 25.15-6.05 48.25-1.25 4-3.25 3.7-1.85-.25-3.8-3.9-8.15-15.3-10.85-44.15-2.7-28.6 1.75-49.95l-7.55 5.25q-3.7 2.45-6 3.35 12 47.7-2.2 86.85-1.3 3.5-2.85 3.3-1.45-.25-2.6-3.35-5.55-14.95-8.9-49.5-3.3-33.95-.9-48.75.5-3.15 16.3-14.35 16.55-11.75 17.8-13.9 1.05-1.9.95-6.5-.1-4.45-1.05-5.9l1.3.15q1.3.25 1.4.7.45 2.05.25 5.95-.2 4.65-1.45 6.6-1.75 2.65-17.45 14.55-14.9 11.2-15.25 13.3-2 11.9.5 45.05 2.65 35.65 8.1 52.1.55 1.7 1.1 1.7.5 0 1.15-1.75 6.75-18.55 6.9-41.05.1-20.15-5.15-45.3"/><path fill="#0f141b" d="M181.4 299.1q-.25-.2.15-.85.45-.65.7-.45 3.4 2.25 9.65 2.6 6.45.35 9.25-1.85.25-.2.75.4.45.65.2.85-3.65 2.85-10.25 2.45-6.25-.4-10.45-3.15m-7.1-3.85q4.9-3.55 4.85-4.85-.2-3.8-4.3-5.9-3.9-2.05-5.8-.2-.95.95-2.5 6.7-1.3 4.7-1.9 8.25-.15 1.05 0 1.3l1.3-.2q3.9-1.9 8.35-5.1m-6.45-12.2q1.1-1.1 2.9-1.25 1.75-.15 3.75.65 2.5 1 4.4 3.15 2.15 2.4 2.25 5.05.15 2.6-6.4 6.8-4.75 3.1-8.05 4.4-2.4.95-3.15.7-.95-.3-.7-2.65.2-2.3 1.75-8.25 1.85-7.2 3.25-8.6m63.05-1.2q-2.1-1.2-6.25 1.4-3.85 2.35-5.2 4.85.55 1.2 6.95 5.9l7.3 4.9-1.05-8.2q-1.2-7.5-1.75-8.85M217 288q0-2.35 5.7-5.9 6.05-3.8 9.3-1.6.85.55 2.2 8.95l1.15 8.45q.35 2.65-.25 3.1-.55.45-2.7-.7-3.2-1.65-8.35-5.3-7.05-4.95-7.05-7"/><path fill="#0f141b" d="m149.7 266.4 1.1.1q1.75 1.8 9.65 6.8t9.7 5.45q3.45-.95 17.2-5.95l.7.05 7.15 4.35q7.4 4.45 8.75 4.95 1.1-.25 11.8-5.25 10.45-4.9 10.75-4.9.55-.05 4.8 2.15 3.95 2 5.45 2.95.3.2-.15.9-.5.75-.8.55l-4.45-2.3q-3.7-1.75-5.1-2.2-20.65 10.25-22.45 10.55h-.4q-1.15-.35-8.45-5.15l-7.45-4.9-17.6 6.45q-1.7-.3-9.45-5.4-7.35-4.85-10.35-7.45l-1.3.95q-.25.25-.8-.4-.55-.7-.25-.9z"/><path fill="#0f141b" d="m150.15 260.45.9.15q2.1 1.95 8.2 6.5 6.85 5.15 9.35 6.3l9.55-3.25 9.6-3.15 8.2 4.5q8.4 4.6 9.55 5.05 2.15-.95 11.6-5.9 8.85-4.65 9.05-4.65l6.15 2.9 6.35 3.15 6.6-4.65q4.75-3.7 6.3-5.75.2-.3.9.2.65.5.45.8-2.6 3.45-13.35 11.6l-5.9-2.7-7.05-3.35-11.3 5.6-9.6 4.55q-.4.05-7.6-3.6l-10.6-5.55-18.75 5.95-.55-.05q-2.35-.95-9.1-5.9-5.5-3.95-8.7-6.65-1.7 1-3.8 3.1-.25.25-.85-.35t-.35-.85l2-1.9q1.9-1.75 2.75-2.1m19.3 19.5q-.1-.3.6-.6.75-.3.85 0l.9 1.35 1.1 1.35q.25.2-.25.85-.45.6-.7.35l-1.4-1.6zm32.6 9.3q-2 3.95-3.35 5.05-.25.2-1.2 0-.95-.25-.75-.45 1.2-1.05 3.5-5.05 2.2-3.8 2.95-6l.8-.05q.75.25.65.55-.9 2.65-2.6 5.95M137 223.75q-.05-.35.5-1 .6-.6.65-.25.2.85 1.55 3.55l2.05 3.75q2.45-1.05 5.75-2.95l3.55-2.2q.55-.35 1.05.15l8.25 8.35 7.15 6.85 12-3.85 8.35-2.75.7.05L209.7 245l20.15-12.45.65-.05 15.95 6.1 7.45-7.35 4.65-5.4q.2-.3.85.6.7.85.55 1.15-.55.95-5.1 5.5-4.85 4.9-7.7 7.15l-.8.15-16.05-6.15-20.1 13.4-.85.05-21.25-12.6q-14.1 5.2-20.6 7.2l-.8-.15-6.85-6.55-8.55-8.65-4.25 2.4q-3.4 1.85-5.7 2.65-.55.2-2.3-3.4-1.7-3.35-2.05-4.85"/><path fill="#0f141b" d="M151.45 217.5q.6-.25 1 .2l6.7 7.2q5.95 6.25 8.65 8.65l20.35-7.25.65.05 8.95 4.9 12.35 6.55 20.1-12.4.85-.05 6.3 2.6 9.4 3.6 6.25-6.05q4.85-5 6.05-6.8.2-.3.95.2.7.45.5.75-1.35 2.1-6.95 7.9l-6.1 6-.8.15q-6.65-2.35-15.9-6.65l-20.15 12.9-.8.05-12.2-6.65-9.25-5.3-20.5 7.25-.8-.15q-5.05-4.4-15.3-15.25-9 4.6-9.75 4.7-.9.05-5.05-7.6 0-.35.85-.4.85-.1.85.25.15 1.2 3.6 5.9l4.2-2.4q3.95-2.4 5-2.85"/><path fill="#0f141b" d="M246.3 217.6q.05-.35.95-.7l.95-.05q-.65 14.6-.5 15.5.05.35-.7.45l-.85-.15q-.2-1.05.15-15.05m-36.45 6.5q-.05-.3.9-.15.9.1.95.4.15 1.9-.8 14.85.05.35-.75.35-.75.05-.8-.25.65-13.4.5-15.2m-42.2-4.85q.05-.3.8-.2.8.1.75.45l-.5 7.75q-.25 6.05-.05 7l-.95.1q-1-.15-1.05-.5-.2-1.05.3-7.2zM141.5 206.3q.05-.35.8-.25.8.1.75.4l-.4 8.55q-.2 7.45.05 8.35l-.75.05-.9-.6q-.35-1.15 0-8.5z"/></svg>