<svg xmlns="http://www.w3.org/2000/svg" width="372" height="358" viewBox="-0.85 -0.15 371.95 358.25"><path fill="#005e97" d="M284.75 29.1q6.65 4.9 8.15 8.75 1.35 3.45-3.65 14.3-5.3 11.5-10.9 14.35l-2.55-5q-2.4-4.05-4.05-5.25-1.85-1.1-7.75-2.3-5.55-1.1-8.4-1.1L246.8 70q2.45 2.75 6.35 5.45 3.75 2.55 6.4 3.35l13.4-1.05q-1.2 3.3-6.75 7.7-4.8 3.85-7.8 4.9-1.75-1.55-6.95-4.15-5.7-2.9-10.6-4.5l-5.7 11.15q-3.6-4.05-7.2-14.65l-14.05-2.4-6.45-1.05-4.1-5.15q-3.7-4.85-4.45-6.25.05-2.25.55-2.75-2.55-3.1-6.75-9.7-4.5-7.05-4.65-8.55-.4-6.8 13.4-20.95Q215.3 7.15 222.3 7.55q.4.05 4.15 2.05 4.75 2.55 9.15 4.3 15.55 6.15 33.45 5.95 9.45 4.65 15.7 9.25"/><path fill="#d3edfb" d="M246.35 38.2q2.5-2.6 3.25-6.95l6.55-1.2q0 7.4-5.25 12.45-5.15 4.95-11.95 4.55-6.45-.35-10.35-5.1-3.8-4.6-3.8-11.45 0-2.1.45-4.05l5.55 2.2q.1 5.45 1.95 8.6Q235 41 239.6 41q4.05 0 6.75-2.8"/><path fill="#fff" d="m244.05 31.95 5.55-.7q-.75 4.35-3.25 6.95-2.7 2.8-6.75 2.8-4.6 0-6.85-3.75-1.85-3.15-1.95-8.6 4.35 1.5 8.2 2.45z"/><path fill="#005e97" d="M272.75 57.2q-1.8.45-4.55 1.6-2.65 1.1-3.6 1.75l-.9 3.8-.9 5.25q-2.3-3.75-5.4-6.95-3-3-5.15-3.95l3.35-5.85q3.8 0 9.7 1.4 6.15 1.5 7.45 2.95"/><path fill="#ee869a" d="M252.25 58.7q4.35 1.85 9.05 8.7 4.6 6.75 4.85 11.2l-6.6.2q-2.7-.85-6.55-3.45-4-2.8-6.4-5.6z"/><path fill="#d3edfb" d="M211.5 140.1q7.05.6 14.5.25-.65 7.15-.85 14.75-.25 8.1.3 9.05 1.15 2.4 8.7 7.65 7.65 5.3 14.45 8.4l-1.9 8.3q-1.4 5.45-2.05 6.1-.95.9-8.85 5.1-7.75 4.05-8.4 4.85-1.25 1.6-8.5 18.3L210 243.7l-.05.35q-2.65.95-12.6 2.05L184 247.2q2.3-2.95 5.25-19.45 2.85-16.3 1.75-18.9L177.5 202q-12.45-6.45-14.95-8.85-.45-1.1.4-6.85.7-4.8 1.35-7.3 12.65-.95 26.8-7.05 13.55-5.85 15.55-10.6 1.4-3.3 2.85-9.8 1.2-5.55 2-11.45"/><path fill="#005e97" d="m270.85 78.05-4.7.55q-.15-1.75-.75-3.55 3.15 2.15 5.45 3"/><path fill="#6ad" d="M254.45 87.55q-3.3-.9-9.6-.05-4.6.6-7.8 1.55l3.65-7.4q8.65 2.8 13.75 5.9"/><path fill="#005e97" d="M245.7 90.1q-.2-.4.45-1.2.65-.85 1.7-1.5 3.85-.25 6.6.15 2.1 1.2 3.95 2.8l1.25-.55 4.8 10.4q3.85 8.4 4.85 10.2.55 1 4.4 5.4 3.45 3.95 3.6 5.1 1.4 11.8-.9 25.4-1.55 9.05-4.1 16.25-.6 1.65-3.65 4.95l-6.35 5.95q-1.35 4.25-3.35 11.25-2.4 8.55-2.85 11.3.85 1.45 2.1 5.5 1.5 4.6 1.15 6.05-3.5 15.1-12.2 26.2-8.75 11.1-24.75 20.75-1.45.9-10.15-3.2-1.05-1.45-1.85-3.8-.9-2.65-.4-3.8l8.9-20.85q7.25-16.7 8.5-18.3.65-.8 8.4-4.85 7.9-4.2 8.85-5.1.65-.65 2.05-6.1l1.9-8.3q-6.8-3.1-14.45-8.4-7.55-5.25-8.7-7.65-.95-1.75.15-16.2 1-13.5 1.45-14.9.45-1.35 11.25-8.85 10.65-7.4 11.05-9.25.75-3.35-.9-13.1-1.5-8.75-2.75-11.75"/><path fill="#6ad" d="m255.45 293.9.3-3.85 1.85-1.5q1.4 5.9 10.05 10.1 4.55 2.2 10.8 4.6 1.9 1.35 2.55 4.05-1.9-1.25-5.85-.75-4.4.6-5.3 3.3 1.15 1.75 1.65 5.75.5 3.8.1 7-.35 3.4-8.25 3.5-6.6.1-9.9-1.2.65-4.6-.95-8.4-1.6-3.85-5-5.5-4-1.95-8.85-.95-5.2 1.05-6 4.8-.5 2.1-.35 5.05.1 3.2.9 5.35-2.65 2.9-3.9 2.95l-6 .15q-3.25-.1-3.75-.65-1.9-2.2-7.95-7.7-6.2-5.65-8.65-7.35-.6-.35-.65-2.4-.05-1.7.2-3.3.15-1.1 5.2-7.95 4.65-6.3 6.55-8.4 1.3-1.45 3.6-1.8l.9 1.25q1.95 2.9 10.2 4.1l8.7 1.55 1.4 1.7q.95.95 2.1 1 6.35.3 10.35-.15 3.3-.35 3.45-1zM151 274.05l-1.75-8.75 18.4-1q-2.7 2.7-7.6 5.65-5.3 3.2-9.05 4.1"/><path fill="#6ad" d="M247.85 87.4q-1.05.65-1.7 1.5-.65.8-.45 1.2 1.25 3 2.75 11.75 1.65 9.75.9 13.1-.4 1.85-11.05 9.25-10.8 7.5-11.25 8.85-.45 1.45-1.05 7.3-7.45.35-14.5-.25 1.1-7.55.7-7.9-3.5-2-6.95-4.65-6.8-5.25-8.8-10.05-14.2-33.5-15.6-33.95-3.15-.95-12.9-.3-8.65.55-11.7 1.35l-2.35 1.3q-2.15 1.3-2.2 1.95l.3 12.1q.4 10.5-.45 14.2-.4 1.75-3.9 8.3-4.25 7.85-8.6 13.5-1.15 30.55 1.2 61.8 2.65 35.5 12.1 79.2 10.8 49.95 23.7 75.4 1.65 3.25.6 4.15-.8.65-5 .55-20.5-.55-37.35-8.7-11.15-5.4-21.65-14.9 6.95 4.85 13.65 6.05l-1.05-5.35q7.7 6.2 13.05 6.35.35-.2-.4-4.65t-1.55-7.2q3.2 3.65 6 5.7 2.65 2 3.65 1.65 1.75-.6.25-15.65-1.15-11.35-2.55-19.05-2.35-12.8-9.3-25.2-6.25-11.1-8.7-10.65-2.1.4-3.8 7.6-2.1 8.6-.85 19.55-4.25-7.05-11.45-15.45-7.8-9-9.85-8.4-1.95.95-2.15 7.9-.25 7.3 1.75 16.1-3.1-3.65-7.45-7.65-4.95-4.6-6.45-4.65-2.35 3.65-1.15 10.65-4.5-11.9-6.55-24.6-2.1-12.85-1.5-24.9 1-20.3 11.15-50.4l7.65-22.25q3.95-11.8 5.2-19.1 1.6-9.1 2.3-22.25.9-16 1.35-19.6 2.35-20.85 14.85-32.6 8.55-8.05 16.1-8.35 7.4-.25 12.8 6.95.1.2 16.3-.15l13.35-.5q1.4.05 2.35-2.2.95-2.15.25-3.1-3.55-5-8.35-16.6l3.9-1q2.1-.75 3.1-1.5.95-.85 2.75-8.8 1.3-5.4 2-9.5 2.7-6.15 15.35-15.25 12.7-9.15 19.85-9.95 9.2-.4 23.85 3.9 13.6 4.05 26.7 10.5-17.9.2-33.45-5.95-4.4-1.75-9.15-4.3-3.75-2-4.15-2.05-7-.4-20.85 13.85-13.8 14.15-13.4 20.95.15 1.5 4.65 8.55 4.2 6.6 6.75 9.7-.5 1.7-.55 2.75.75 1.4 4.45 6.25l4.1 5.15L214 75.8l14.2 2.5q3.65 10.8 6.95 14.55l1.9-3.8q4.4-1.3 10.8-1.65m111.9 170.9q-4.8 8.75-6.95 14.45.15-8.6-.85-15.7-.95-6.85-2.15-7.35-1.7-.7-7.05 8.75-5.2 9.25-7.65 16.85-.35-8.7-1.95-15.1-1.6-6.45-3.5-6.55-2.6-.1-7.05 11.95-4.6 12.35-5.95 23.95-1.1 9.7-.95 22.1.15 14.35 2.3 14.75 2.25.45 5.65-4.9 3.25-5.1 6.2-13.2 0 13.05 1.4 13.55 1.85.65 6.5-4.9 5.05-6.05 8.85-14.4-.3 8.75.45 9.1.95.5 3.3-1.75-8.5 17.2-26.4 31.5-7.15 5.7-12.1 7.7-5.1 2.05-5.1-.95-2.1-87.85-2.25-98.9-.35-24.45-11.25-55.35-9.05-25.75-18.95-40.15 1.6-8.85 2.5-17.8 1.05-10.45.5-15.05-.15-1.15-3.6-5.1-3.85-4.4-4.4-5.4-1-1.8-4.85-10.2l-4.8-10.4q2.75-1.4 5.85-3.85 3.5 1.9 7.1 10.6 4.85 11.55 6.15 13.6 4.45 6.8 16.35 19.5l23.85 24.65q33.1 34.15 42.75 51.75 4.35 7.95 5.55 21.7 1 11.5-.4 21.5-1.5-1.1-7.1 9.05"/><path fill="#6ad" d="M254.4 221.75q9 7.5 17.8 21.6 8.05 12.9 7.75 16.9-.25 3.35-3.25 10.5-2.75 6.6-4.05 7.95-1.35 1.45-8.85 5.9-7.25 4.3-8.05 5.45l-.3 3.85-.5 3.35q-.15.65-3.45 1-4 .45-10.35.15-1.15-.05-2.1-1l-1.4-1.7-8.7-1.55q-8.25-1.2-10.2-4.1-4.05-5.9-15.95-15-13.9-10.65-23.3-12.4 21.45-3.65 33.1-11.1 1.5 1.05 4.95 2.25 3.85 1.3 4.85.7 11.35-6.85 19.1-14.65 8.15-8.2 12.9-18.1"/><path fill="#6ad" d="m149.25 265.3-.55-2.95 4.25-.25q26.85-10.75 30.9-14.65l11.65-1.2q12.05-1.35 14.45-2.2-.05 1.05.9 3.85l1.4 3.4q-16.65 9.25-36.6 12.35-10.35 1.6-26.4 1.65m-77 45.7 8.5.45 7.4-.2 1.2-1.05 1.45-1.95q5.45 9.8 12.7 17.3-4.65.95-6.3 7.4-1.5 5.8.25 8.1-1.15 3.3-10.75 3.9-9.2.6-12.45-1.55.5-7.15-2.45-11.1-3.05-4.1-9.25-4.1-6.55 0-9.9 4.3-2.95 3.85-2.7 10.15-4.95-.1-6.95-1.05-.7-.35-3.3-3.8-2.8-3.65-3.65-5.55-.4-.8-.25-4.7.1-3.75.5-5.5.2-.85 6.35-7.75 6.95-7.7 9.8-12.75.55-1.05 4.5-1.25l1.4 2.3q.65 1.2 5.4 2.95 4.35 1.65 5.65 1.65.35 0 1.1 1.75.75 1.8 1.75 2.05"/><path fill="#6ad" d="M40.85 242.1Q44.8 231.3 52.6 220q10.65-15.35 20.35-17.1 2.1-.35 5.25-.1l5.5.95q-8.25 27.5-8 46.6.2 18.4 8.6 40.75 1.35 7.8 6.5 17.15l-1.45 1.95-1.2 1.05-7.4.2-8.5-.45q-1-.25-1.75-2.05-.75-1.75-1.1-1.75-1.35 0-5.7-1.6-4.8-1.8-5.35-3-1.4-2.95-4.65-6.95l-6.25-7.3q-8.1-9.75-9.9-18.15-10.25-4-20.45-12.05-10.75-8.55-15.05-16.7-1.8-3.4-.6-4.1.9-.55 4.55.4 5.8 1.65 14.45 2.9 11.2 1.6 20.4 1.45"/><path fill="#005e97" d="M165.85 35.6q3 1.05 8.2 1.9l7.9.8q-1.75 9.15-3.4 10.65-.95.7-2.95 1.4l-3.8 1.05q5 12.15 8.1 16.65.85 1.2-.35 3.35-1.2 2-2.25 1.95-21.35.6-30 .25-7-7.8-15.1-6.1-9.1 1.85-16.65 10.9-8.15 9.8-10.6 23.9-1 5.95-1.95 21.9-.95 15.65-2.75 25.65-1.45 8.3-4.7 18.6-3.15 10.05-11.85 35.3l-5.5-.95q-3.15-.25-5.25.1-11.45 2.05-23.9 22.4-5.15-8.65-8.2-21.7-3.05-12.9-2.6-23.55-5.85-4.15-6.25-5.85-.85-3.55-.85-12.4t.85-11.25q.3-.9 5.1-4.05 4.1-2.75 7-4.25 1.35-6.55 4.65-18 3.45-12 5.9-18.25-6.35-6.15-6.7-8.65-.3-2 2.95-10.35 3.2-8.25 4.65-9.6.6-.55 5.4-1.55l8.05-1.3Q84.35 47.6 102.45 36.1q13.2-32.55 17.3-34.3l14-.75 14.3 1.1q10.45 5.9 10.9 8.9 1.5 9.05 6.9 24.55"/><path fill="#005e97" d="M167.95 83.25q9.75-.65 12.9.3 1.4.45 15.6 33.95 2 4.8 8.8 10.05 3.45 2.65 6.95 4.65.1 5.55-1.4 14.05-1.65 9.25-4.15 15.1-2 4.75-15.55 10.6-14.15 6.1-26.8 7.05-.65 2.5-1.35 7.3-.85 5.75-.4 6.85 2.5 2.4 14.95 8.85l13.5 6.85q1.1 2.6-1.75 18.9-2.95 16.5-5.25 19.45-1.75 2.25-14.85 8.45-12.85 6.05-16.2 6.45l-4.25.25q-6-31.3-8.45-64.6-2.35-31.25-1.2-61.8 4.35-5.65 8.6-13.5 3.5-6.55 3.9-8.3.85-3.7.45-14.2l-.3-12.1q.05-.65 2.2-1.95l2.35-1.3q3.05-.8 11.7-1.35m117.45 228.3q2 3.15 1.75 7.5-.15 2.25-6.25 3.75-6.2 1.5-9.3-.2.4-3.2-.1-7-.5-4-1.65-5.75.9-2.7 5.3-3.3 3.95-.5 5.85.75 2.95 2 4.4 4.25M103.25 325.9q1.65 2.35 7.4 6.7l5.35 4q.3 3.35-8.2 5.15-8.45 1.8-10.35-.7-2.1-2.8-.4-8.95 1.8-6.45 6.2-6.2m-40.7 2.3q6.2 0 9.25 4.1 2.95 3.95 2.45 11.1v.15q-.2 3-12.2 2.6-12-.45-12.1-3.5-.25-6.3 2.7-10.15 3.35-4.3 9.9-4.3m172.65-.45q-1.85-.75-2.7-4.35-.9-3.9.15-8.55.8-3.75 6-4.8 4.85-1 8.85.95 4.95 2.4 5.95 8 .65 3.55-.35 7.55-.4 1.8-7.9 2.1-7.15.3-10-.9m94.45-74.1q2.9.15 4.4 9.5.95 5.95 1.05 12.15 2.45-7.6 7.65-16.85 5.35-9.45 7.05-8.75 2 .85 2.8 8 .65 6.05.25 14.9 2.3-5.8 6.9-14.25 5.6-10.25 7.1-9.1 2.15 1.6 2.15 11.95-.05 11.4-3.25 21.65-2.8 9-9.05 19.2-6.7 11.05-9.65 9.6-.75-.35-.45-9.1-3.4 6.55-6.45 11.25-5.85 9.15-8.9 8.05-.75-.3-1.15-5.1-.25-3.5-.25-8.05-2.8 8.1-5.75 12.85-3.35 5.4-6.1 4.85-2.15-.4-2.3-14.75-.15-12.4.95-22.1 1.35-11.6 5.95-23.95 4.45-12.05 7.05-11.95"/><path fill="#005e97" d="M101.35 300.15q2.55 8.2 6.45 14.7 5.2 8.6 13.85 16.25-8.25-7.8-14.4-18.1-3.5-5.8-5.9-12.85m-16.5-5.65q-2.4-9.35.6-14.05 1.5.05 6.45 4.65 4.35 4 7.45 7.65-2-8.8-1.75-16.1.2-6.95 2.15-7.9 2.05-.6 9.85 8.4 7.2 8.4 11.45 15.45 1.3 11.4 3.9 18.15 3.35 8.7 11.4 17.9.8 2.75 1.55 7.2t.4 4.65q-5.5-.15-13.05-6.25l1.05 5.25q-8.9-1.6-18.05-9.3-8.3-6.95-14.8-17.05-6.3-9.75-8.6-18.65"/><path fill="#005e97" d="M125.7 265.45q2.45-.45 8.7 10.65 6.95 12.4 9.3 25.2 1.4 7.7 2.55 19.05 1.5 15.05-.25 15.65-.85.3-3.65-1.8-3.05-2.3-6.3-6.05-8.9-10.2-12.45-22.65-3.95-14.05-2.55-27.45 1.25-12 4.65-12.6"/><path fill="#004d7e" d="M73.25 116.15q-7.85-1.95-10.85-3.65-1.6-.85-5.95-4.85 16.3-2.75 23.2-18.5l15.7 11.6q0 .75-3.25 7.85-3.35 7.35-4.85 9.65-5.4.05-14-2.1m-20.85 72.6L67.65 194q-.65 6.3-.8 11.45-5.15 3.25-10.35 9.45-2.45-4-3.7-12.1-1.25-8.05-.4-14.05"/><path fill="#5893c0" d="m85.05 199.55-1.35 4.2-5.5-.95q-3.15-.25-5.25.1-2.7.5-6.1 2.55.15-5.15.8-11.45z"/><path fill="#004d7e" d="m127.6 52.05 4.6 15.45q-9.1 1.85-16.65 10.9-8.15 9.8-10.6 23.9-8.95 10.8-16.3 25.45-7.4 14.85-13.9 35.05-9.25-3-17.75-6.7 1.7-8 4.8-18.75 3.25-11.45 7.15-22.4 11.2 3.3 18.3 3.3 1.5-2.3 4.85-9.65 3.25-7.1 3.25-7.85L79.7 89q9.45-19.35 19.05-30.9 11.1-13.4 24.75-19.55z"/><path fill="#5893c0" d="M88.65 127.75q7.35-14.65 16.3-25.45-1 5.95-1.95 21.9-.95 15.65-2.75 25.65-1.45 8.3-4.7 18.6-8.05-1.3-20.8-5.65 6.5-20.2 13.9-35.05"/><path fill="#933000" d="M272.75 57.2q-1.8.45-4.55 1.6-2.65 1.1-3.6 1.75l-.9 3.8-.9 5.25q-2.3-3.75-5.4-6.95-3-3-5.15-3.95l3.35-5.85q3.8 0 9.7 1.4 6.15 1.5 7.45 2.95"/><path fill="#004d7e" d="m174.75 240.85 11.9-.95q-1.5 5.85-2.65 7.3-1.75 2.25-14.85 8.45-12.85 6.05-16.2 6.45l10.55-8.4q7-6 10.2-9.75z"/><path fill="#cf7487" d="M252.25 58.7q4.05 1.8 8.5 8-7.3.25-12.6 4.7l-1.55-1.65z"/><path fill="#b7cdda" d="m215.1 231.6-5.1 12.1-.05.35q-2.65.95-12.6 2.05L184 247.2q1.55-1.95 3.7-11.6 15.45 2.85 27.4-4"/><path fill="#004d7e" d="M332.15 300.9q4.7 1.5 10.1-1.85 5-3.05 8.65-8.95-2.6 10.15-9.05 21.2-6.9 11.85-10.6 10.55-1.4-.5-1.4-13.55zm-179.2-38.8-4.25.25q-2.3-11.9-4.25-25.75 13 4.85 30.3 4.25l-1.05 3.1q-3.2 3.75-10.2 9.75zm117.9-184.05-4.7.55q-.15-1.75-.75-3.55 3.15 2.15 5.45 3m-27.55-1.7q6.45 4.35 11.5 6.25 7.5 2.85 13.8 1.45L263 87.9l-4.6 2.45q-1.75-1.5-7.05-4.2-5.75-2.9-10.65-4.5zm-39.5-6.7 22.3 3.65q.3 1.15 1.05 2.55l1.05 2.45-14.2-2.5-6.55-1.05-1.15-1.55z"/><path fill="#5893c0" d="M254.45 87.55q-3.3-.9-9.6-.05-4.6.6-7.8 1.55l3.65-7.4q8.65 2.8 13.75 5.9"/><path fill="#004d7e" d="M212.15 238.65q9.4 1.55 18.35.2 9.25-1.4 17.1-5.75-8.75 11.55-25.2 21.4-1.45.9-10.15-3.2-1.05-1.45-1.85-3.8-.9-2.65-.4-3.8z"/><path fill="#5893c0" d="M207.2 316.1q7.25 3.85 13.4 5.05 7 1.4 12.05-.85l.2 2.55.35 2.4q-2.65 2.9-3.9 2.95l-6 .15q-3.25-.1-3.75-.65l-5.1-5.1zm46.7 3.7q4.1 1.35 8.9.5 4.7-.8 8.7-3.4.4 3.2.1 5.7-.35 3.4-8.25 3.5-6.6.1-9.9-1.2.6-4 .45-5.1M151 274.05l-1.75-8.75 18.4-1q-2.7 2.7-7.6 5.65-5.3 3.2-9.05 4.1"/><path fill="#004d7e" d="m125.25 334.15 1.05 5.35q-5.35-.95-12.15-5-6.35-3.8-11.45-8.65 7.3 3.3 14.3.8 3.6 3.75 8.25 7.5"/><path fill="#5893c0" d="M146 336q1.1-.35-.25-18.3 4.6 2.9 9.7 2.9 4.85-.05 7.9-2.65 8.2 25.55 12.7 34.4 1.65 3.25.6 4.15-.8.65-5 .55-20.5-.55-37.35-8.7-11.15-5.4-21.65-14.9 6.95 4.85 13.65 6.05l-1.05-5.35q7.7 6.2 13.05 6.35.35-.2-.4-4.65t-1.55-7.2q3.2 3.65 6 5.7 2.65 2 3.65 1.65"/><path fill="#004d7e" d="M349.75 296.15q3.55.75 7.15-1.2 2.9-1.55 6.25-5.25-3.95 9-8.55 15.65-5.2 7.5-7.55 6.3-.75-.35-.45-9.1l1.5-2.4q1.15-1.95 1.65-4"/><path fill="#5893c0" d="M329.85 308.3q0 13.05 1.4 13.55 1.85.65 6.5-4.9 5.05-6.05 8.85-14.4-.3 8.75.45 9.1.95.5 3.3-1.75-8.5 17.2-26.4 31.5-7.15 5.7-12.1 7.7-5.1 2.05-5.1-.95l-.8-34.1q5.2.15 9.75-1.15.25 13.1 2.3 13.5 2.25.45 5.65-4.9 3.25-5.1 6.2-13.2m-82.05-30.8q22.45-6.5 32.35-16-.95 3.9-3.8 10.2-2.6 5.85-3.7 7-1.35 1.45-8.85 5.9-7.25 4.3-8.05 5.45l-.3 3.85-.5 3.35q-.15.65-3.45 1-4 .45-10.35.15-1.15-.05-2.1-1l-1.4-1.7-8.7-1.55q-8.25-1.2-10.2-4.1-1.95-2.8-6.65-7.2 15.1.6 35.7-5.35m6.6-55.75 3.1 2.8q-8.35 17.45-21.5 31.1-14.2 14.7-30.7 21.35-6.7-5.45-13-9.05-7.35-4.3-12.8-5.3 21.45-3.65 33.1-11.1 1.5 1.05 4.95 2.25 3.85 1.3 4.85.7 11.35-6.85 19.1-14.65 8.15-8.2 12.9-18.1"/><path fill="#5893c0" d="m149.25 265.3-.55-2.95 4.25-.25q26.85-10.75 30.9-14.65l11.65-1.2q12.05-1.35 14.45-2.2-.05 1.05.9 3.85l1.4 3.4q-16.65 9.25-36.6 12.35-10.35 1.6-26.4 1.65m-106.4 68.3q3.15.9 8.6.9-1.65 3.4-1.5 8.15-4.95-.1-6.95-1.05-.7-.35-3.3-3.8-2.8-3.65-3.65-5.55-.3-.65-.3-3.45 2.7 3.5 7.1 4.8m31.4 9.8q.3-4-.6-7.1 4.75 2.1 12.1 1.8 7.8-.35 11.2-3.35-1 4.35.5 6.3-1.15 3.3-10.75 3.9-9.2.6-12.45-1.55m-37.4-86.25q-.95 6.95 1.05 13.2-11.05-4.25-21.8-13.05 10.8 1.85 20.75-.15m11.45 32.2q-7.75-9.15-10.05-16.45 17.4 11.8 41.25 3.55 1.9 6.85 4.8 14.65 1.35 7.8 6.5 17.15l-1.45 1.95-1.2 1.05-7.4.2-8.5-.45q-1-.25-1.75-2.05-.75-1.75-1.1-1.75-1.35 0-5.7-1.6-4.8-1.8-5.35-3-1.5-3.2-10.05-13.25"/><path fill="#004d7e" d="M68.45 194.2 52.9 189l-3.05-1.65q-3.05-1.75-6.15-3.7 19.15-3.5 25.05-24.5 22.55 8.55 26.8 9.3L90.4 183.7l-5.35 15.85zm55.2 131.5q4.9.25 9.3-1.25l3.4 4.2q.8 2.75 1.55 7.2t.4 4.65q-4.9-.1-11.55-5.1-6.15-4.55-12.2-12 4.2 2 9.1 2.3m162.1-13.55q1.6 2.9 1.4 6.9-.15 2.25-6.25 3.75-6.2 1.5-9.3-.2.25-1.85.15-4.1 9.3-.1 14-6.35m-172.15 22.6 2.4 1.85q.3 3.35-8.2 5.15-8.45 1.8-10.35-.7-1.15-1.45-1.05-4.75 11.35 2.2 17.2-1.55m-63.05 2.15q5.65 2.05 11.55 2.7l12.1-.45.05 4.25v.15q-.2 3-12.2 2.6-12-.45-12.1-3.5-.05-3.1.6-5.75m184.65-9.15q-.7-.25-1.6-2.1l-1.2-3.25q5.45 1.75 11.85.85 7.6-1.05 8.8-5.85 1.3 4 .05 9.15-.4 1.8-7.9 2.1-7.15.3-10-.9M324.85 307q5.25-3.75 9.4-11.1-2.9 10.9-7.5 20.3-5.35 10.85-8.75 10.2-2.55-.45-2.4-17.35 3.9 1.75 9.25-2.05"/><path fill="#004d7e" d="M128.7 318.2q4.25 3.15 9.05 4.25 5.15 1.1 8.6-.75 1.3 13.7-.35 14.3-1.6.55-6.75-4.15-6.15-5.55-10.55-13.65"/><path fill="#0f141b" d="m244.2 30.65 9.5-1.3 9.85-1.15q2.45.1 7.45 1.65 4.75 1.5 6.65 2.65 1.8 1.05 2.3 1.95t-1.3-.15q-1.7-.95-7.25-2.6-5.7-1.65-7.95-1.75l-9.15 1.35-10.2 1.55q-3.3.25-12.85-3.05-10.45-3.65-15.55-7.6-1.25-1-.05-1.65t2.45.35q4.9 3.8 14.65 7.05 8.4 2.8 11.45 2.7"/><path fill="#0f141b" d="M267.05 18.8q.45 0 1.3.9.9.9.5.95-15.25.45-28-3.75-5.65-1.85-16-7.2-2.3-1.2-2.6-1.25-6.15-.35-19.85 13.25-13.85 13.75-13.5 20.55.2 1.5 4.9 8.85 4.6 7.25 6.1 8.55.25.25-.3.9-.6.7-.85.45-2.25-1.95-7.1-8.75-5.4-7.4-5.65-9.85-.2-3.45 4.05-9.7 3.9-5.8 10.15-12 14.6-14.5 22.15-14.05.65.05 3.3 1.45 7.55 3.9 14.4 6.1 12.4 4 27 4.6"/><path fill="#0f141b" d="M281.55 27.95q-8.2-5.45-20.05-10.6-27-11.65-42.9-11-6.8.75-19.3 9.7-12.45 8.9-15.15 14.9l-1.6 8.7q-1.8 8.5-3.4 9.95l-.1.1q-1.35 1-3.45 1.65l-4.05.75q-.35.05-.4-.85 0-.9.35-.9l3.45-.7 3-1.35q.95-.95 2-8.35 1.15-8.15 1.5-9.1 3.05-7.3 16.4-16.5 12.95-8.95 20.6-9.8 17.25-.7 44.5 10.75 27.9 11.75 31.9 22.3 1.4 3.65-4.05 14.65-5.6 11.3-11.3 15.1-1.05.7-1.55.6-.45-.1-1-1.15l-2.6-5.35q-1.95-3.7-3.05-4.45-1.65-.95-6.7-2.05-4.8-1.05-7.7-1.15-2 3.15-10.05 18.4-7.5 14.15-10.25 19.75-.7 1.45-1.35 1.6-.75.1-1.75-1.3-6-8.5-10.4-26.25-4.2-16.8-4.85-32.95-.05-1 .85-1 .9-.05.95.95.55 12.65 5.1 31.3Q230 84.2 235 91.15l9.05-18.2q8.85-17.6 10.85-20.6.25-.4.7-.4l8.5 1.1q6.15 1.25 8.2 2.45 2.25 1.6 6.45 9.7 5.15-3.35 9.9-14.3 4.4-10.15 3.4-12.7-1.75-4.4-10.5-10.25"/><path fill="#0f141b" d="M246.05 70.1q-.25-.25.55-1.25t1-.65q1.85 3.15 5.75 6.1 3.5 2.7 6.4 3.65l11.65-.85 2.2.2q.5.5-.4 2-1.95 3.25-6.8 7.5t-7.75 5.35q-.5.2-.9-.2-7.15-6.35-17.55-9.6-.35-.1-.05-.95.25-.85.6-.75 11.95 3.75 17.75 8.7 2.9-1.2 6.95-4.45 4.1-3.35 5.9-6l-11.9.8q-1.85-.2-6.15-3.15-4.75-3.2-7.25-6.45M218.6 32.5q.3-.2.7.65.35.8.1.9-6 3.15-12.85 14.1-6.4 10.15-6.7 15l4.15 5.8 3.95 5 7.6 1.2 12.65 2.25q.35.1.15.95-.15.9-.5.8L214.8 77.1l-7.95-1.1q-9.7-10.5-9.65-12.15.1-5.25 7.45-16.4Q212.3 35.8 218.6 32.5"/><path fill="#0f141b" d="M252 59.45q-.3-.05-.1-.8.25-.7.5-.6 3.8 1.15 9.1 8 5.65 7.3 5.65 12.35 0 .3-.95.4-.95.05-.95-.25 0-4.45-5.1-11.45-4.85-6.65-8.15-7.65M236.9 7.9q.45-.15 1.4.55.95.65.6.75-1.7.35-4.4 1.55-2.4 1.05-2.9 1.5-.25.25-.9-.35-.65-.55-.45-.8l2.55-1.5q2.1-1 4.1-1.7"/><path fill="#0f141b" d="m263.75 60.2.35-.4q1.2-.85 4.05-1.95 3.05-1.2 4.6-1.35.35-.05.45.85.05.9-.3.95-1.25.1-3.85 1.15-2.45.95-3.7 1.7-.4 1.2-.9 4.75-.55 4-.4 5.65.05.4-1-1.2L262 68.5l.9-4.8q.55-2.7.85-3.5m1.8 16.15q-.2-.1.05-1.1.2-1 .45-.75.9.8 2.95 1.7l3.2 1.05q.4.05-.95.75t-1.65.55q-2-.6-4.05-2.2m-32 14.5q.25-.25.85.45.55.75.25.95-.75.6-2.6 4-.9 1.6-1.25.8-.3-.75.45-2.4 1.4-2.95 2.3-3.8m19.45-4.4q.6.05 1.5 1.3.95 1.25.5 1.1-2.3-.95-8.05-.65-5.75.35-9.45 1.65-.35.1-.65-.75t.05-.95q3.35-1.15 7.9-1.65 4.85-.6 8.2-.05m-87.65-50.2q-.35-.15-.3-1.55 0-1.4.3-1.2 2.55 1.7 8.45 2.95l8.15.9q.35-.05.4.85t-.3.9l-8.05-.65q-5.6-.9-8.65-2.2m41.5 54.6q-1.6-.85-.6-.85 1.05.05 2.6.9 2.25 1.25 5 4.35 2.8 3.15 3.35 5.25.2.75-.55.95-.7.15-.9-.55-.45-1.7-3.6-5.3-3.2-3.6-5.3-4.75m25.8 7.15q1.5-1.05 2.15-.95.6.15-.75 1.3-3.55 3-4.4 4.05-.85.95-1.4.45-.55-.45.25-1.45 1.05-1.2 4.15-3.4m-110-90.95q2.65 1.1 6.25 3.85 3.75 2.85 4.6 4.55l3.3 9.45q4.25 12.7 6.8 19.4 4.65 12.05 8.1 17.15 1 1.45.05 1-1-.4-1.95-1.85-3.55-5.15-7.8-16.25-2.1-5.55-6.6-19l-3.25-9.25q-.65-1.4-4.5-4.4t-6.25-4q-1.45-.6-.8-.9z"/><path fill="#0f141b" d="M181.45 67.6q.85 1.2-.7 4.2-1.6 3.1-3.5 3-24.3.45-29.35-.2l-1.3-.5-1.1-.95q-5.05-4.8-9.5-5.05-7.55-.55-16.65 7.95-9 8.5-12.3 20.75-2 7.55-3.05 25.3l-.95 13.25q-.7 7.95-1.9 14.7-1.35 7.65-4.25 17l-5.75 17.25Q80.05 216 78 236.9q-2.55 25.35 5.75 50 .3 2.65 1.7 8l.5 2.2-.5-.8q-12.25-26.6-11.2-51.2.95-22.35 14.25-60.5l6.25-17.6q3.4-10.1 4.65-17.3 1.15-6.3 1.65-14.95l.6-13.65q1.1-18.5 2.95-25.5 3.15-12.2 12.45-21 4.6-4.3 9.75-6.5 4.95-2.15 9.15-1.9 6.45.4 11.55 6.55v.05q3.3.6 29.85-.35.55.05 1.35-1.7.8-1.7.5-2.2-5.15-7.25-12.2-26.25-7-19.05-8.95-31.1-.2-1.2-3.05-3.45-2.8-2.2-7.3-4.75-3.8-.9-14.2-1.05l-13.4.7q-3.5 1.45-15.55 31.55l-3.8 2.25q5.15-12.85 10.15-22.7 5.9-11.65 8.6-12.8 3.5-1.1 15.85-.9 11.85.2 13.45 1.05 5 2.85 7.35 4.6 4.4 3.15 4.6 5.15 1.1 11.4 8.4 30.8 6.9 18.35 12.3 25.95"/><path fill="#0f141b" d="M138.9 121.65q.25-3.3 2-9.15 1.85-6.25 3.8-9.65 1.15-2 2.2-2.8 1.05-.75-.1 1.25-1.85 3.25-3.95 10.5-1.95 6.85-2.15 9.95-4.2 63.8 10 138.6 5.7 29.9 13.3 55.4 6.95 23.35 13.25 35.8 2.05 4 1.1 5.25-1.05 1.3-6.7 1.15-17.7-.45-31.9-5.6-17.65-6.5-30.75-20.5-1-1.05 2.55.8 3.6 1.95 6.25 4.05 11.55 9.2 25.2 14.15t28.7 5.35q2.5.05 3.4-.5 1.25-.8.15-2.95-7.1-14.05-14.1-36.35-7.75-24.9-13.25-53.75-13.6-71.45-9-141"/><path fill="#0f141b" d="M147.5 106.6q.9-1.25.95-.45t-.85 2.05l-2.4 3.4q-1.4 1.55-3.45 2.45-.3.1-.6-.6t0-.8q1.95-.85 3.7-2.65zm-93.85-1.8q.1-.35 1.1.45t.9 1.15q-6.9 18.9-11.55 40.7-.6 2.7-1.05 1.55-.5-1.15 0-3.95 2.4-12.9 4.6-21.5 2.6-10.2 6-18.4m57.95-74.45q1.6-.6 6.1 1.5 5.05 2.4 7.4 6l3.95 14.3 3.8 14.9q.1.4-.8.55-.85.2-.95-.2l-8.45-28.6q-1.8-2.65-5.2-4.7-3.1-1.8-5.35-2-11.95 4.9-23.4 16.95-11.4 12.1-20.95 29.9-.15.35-1.05-.4-.9-.7-.75-1.05 9.8-18.25 21.25-30.15 11.6-12.1 24.4-17m-44.85 163.7q.1-.35.95-.25.9.1.85.45-.55 4.4-.65 10.4 0 .35-.95.7l-.95-.05q0-4.65.75-11.25m8.95-31.3-.95.05q-.8-.25-.75-.6 4.75-17.7 13.6-35 8.05-15.7 16.55-25.7.25-.25.9.3.65.6.45.9-7.8 9.15-15.9 25.5-8.15 16.35-13.9 34.55m-38.85 16.6 1.35.05q1.4.45 1.35.8-.6 10.25 2.25 22.6 2.85 12.3 7.95 21.55.2.3-.6.75l-.95.1q-5.35-9.7-8.6-22.4-3.35-13.2-2.75-23.45"/><path fill="#0f141b" d="M46.95 152.05q-1.35-1-1.8-2.15-.5-1.15.85-.1 4.3 3.45 24.25 10.4 18.85 6.55 25.25 7.45.35.1.2.95-.1.9-.45.85-6.9-1-24-6.85-18.85-6.4-24.3-10.55m2.7-65.6q3.65-8.2 5.3-9.7.85-.75 6.3-1.85l7.9-1.1q.35 0 0 .95l-.55.9-7.55 1.15q-4.25.85-4.9 1.3-1.3 1.2-4.35 9-3 7.75-3 9.95l.05.2q.2 1.5 5.95 7.4 5.6 5.7 8 7.1 2.6 1.4 10.05 3.35 8.5 2.15 13.9 2.25 1.45-2.35 4.25-8.5l3.35-7.75L88 96.35Q68.4 81.7 66.65 79.7 65.15 78 65.3 77q.1-1 1.7.8 1.65 1.9 22.05 17.1l6.85 5.15.35.7q0 1.05-3.15 8.5-3.25 7.6-4.7 9.75l-.7.4q-5.35.05-14.5-2.3-8.3-2.15-11.25-3.8-2.65-1.5-8.85-7.5-6.65-6.5-6.9-8.6-.3-2.3 3.45-10.75"/><path fill="#0f141b" d="M60.9 82.15q-1.05-1.7-1.05-2.7-.05-.95 1 .75 1.55 2.55 6.35 7.15 3.5 3.4 5.35 4.8.75.6 6.65 3.45 6.45 3.1 9.4 4.05 1.7.55.9 1l-2.45-.05q-3-.95-9-3.85l-6.4-3.45q-8-6.55-10.75-11.15m-18.8 73.5q3.4 2.05 12.7 5.85t14.55 5.35q2.55.8 2 1.2l-3.15-.25q-5.35-1.3-14.2-4.95-8.35-3.45-12.05-5.65-2-1.2-1.9-1.95.05-.8 2.05.4"/><path fill="#0f141b" d="M43.9 140.75q.35-.1.6 1.1.2 1.25-.15 1.35-1.4.5-6.15 3.6-4.95 3.2-5.35 4.05-.75 2.25-.8 10.8-.05 8.8.8 12.3.55 1.4 9.4 7.45 8.45 5.75 10.95 6.8l15.35 5.25q14.25 4.7 16.6 5.2.4.1.2.95-.15.9-.55.8-2.5-.5-16.7-4.95l-15.45-4.95Q30.9 177.15 30.2 174.2q-.8-3.4-.35-12.45.4-8.8 1.3-11.45.45-1.4 6.15-5.4 5.25-3.65 6.6-4.15m24.15-25.85 1-.05q.8.3.7.65-7.55 21.05-11.55 40.7l-.95.15q-.85-.2-.8-.55 1.65-9.8 4.6-19.9 2.35-8.1 7-21m54.25-77.55q.35-.15 1.1.8.8.9.45 1.05-23.8 10.3-43.1 50l-.95-.1q-.8-.35-.65-.7Q89.1 68 99.55 55.5q10.8-12.95 22.75-18.15m-70.85 158.7q-.05-2.1.5-3.3.6-1.15.65.9.1 3.75 1.45 10.6 1.55 7.95 3.1 9.4.25.25-.35.9-.65.65-.9.35-1.9-2-3.3-9.55-1.1-5.85-1.15-9.3"/><path fill="#0f141b" d="M83.8 202.7q.35.15.05 1.2-.3 1-.65.9-2.45-.8-5.2-1.1-2.8-.25-4.9.1-5.4.95-12.05 7.45-6.35 6.25-11.9 15.6-12.8 21.6-11.35 38.8.5 5.7 5.55 14 2.85 4.75 9.45 13.5 4.95 6.5 6.35 9.05.5.9 4.9 2.55 4.25 1.6 5.35 1.55.9-.05 1.75 1.9.9 1.95 1.35 1.95l8.2.25h7.2q.7-.3 1.95-2.7l.95.1q.8.4.65.7l-.85 1.85q-1.05 1.8-1.95 1.95-1.05.25-7.75.15l-8.85-.6q-1.25-.35-1.85-1.3l-1.1-2.5q-2.35-.25-6.15-1.4-4.9-1.45-5.65-2.85-3-5.75-5.9-9.55-7.15-8.4-10.45-13.2-5.9-8.4-5.95-15.6-.2-19.4 13.3-41.35 5.8-9.5 12.3-15.75 6.7-6.4 12-7.35 3.95-.75 11.2 1.7"/><path fill="#0f141b" d="M74.6 280.4q-1.15-1.4-.55-1.5.6-.15 1.75 1.25l3.95 5.25q.65 1.45.35 1.9t-1-.9l-2.1-2.9zm-33.5-39.9q.4 0 .2 1.25-.15 1.2-.55 1.2l-20.2-1.3q-8.3-1.25-14.8-3-3.05-.85-3.6-.5-.6.45.7 2.9 4.35 8.4 14.85 16.45 9.7 7.45 19.65 11.1.35.15.45 2.15t-.25 1.9q-9.8-3.6-20.55-12.6-11.05-9.3-15.75-18.2-2.1-4-.7-5.15l5.65.2q6.05 1.65 15 2.75zm12.8 61.2q-.5.1-.7.3-1.95 3.45-5.55 7.85l-5.95 6.9q-4.35 4.75-4.55 5.5-.35 1.7-.45 5.35t.15 4.3q.8 1.8 3.45 5.25 2.45 3.2 3.1 3.65l2.4.75 3.9.2q.4 0 .4.9t-.4.9l-4.1-.2q-1.6-.25-3-.95-1.05-.55-4.25-3.95-3.5-3.7-4.3-5.55-.45-1.05 0-5.3.35-3.6.85-5.7.15-.7 1.65-2.3l3.8-4.05 5.85-7.25 5.35-8.2q.35-.65 1.8-.65l3.8.15q.4 0 .4.9t-.4.9zM77.95 346q-2.85-.45-4-2-.15-.15.3-1.05.4-.9.55-.6 1.45 2.65 11.45 2.05 4.75-.3 7.45-1.5 2.4-1.05 2.65-2.7.05-.35.9.3.9.65.85 1-.4 2.5-3.65 3.55-2.45.8-8.1 1.1-5.6.35-8.4-.15"/><path fill="#0f141b" d="M53.65 333q-3.05 3.7-2.8 9.6.1 2.25 11.2 2.65 11.15.35 11.3-1.75.6-7.9-3.05-11.55-2.85-2.85-7.75-2.85-5.7 0-8.9 3.9m-.5 13.05q-4-1.3-4.1-3.4-.25-7.2 3.35-11.25 3.6-4.1 10.15-4.1 13.9 0 12.55 16.3-.15 1.9-4.2 2.95-3.7.95-8.9.8-5.25-.1-8.85-1.3m45.5-15.65q-1.35 3.35-.65 9.8.25 2.15 8.45.8 8.15-1.35 7.95-3.95l-.15-1.35q-.05-.3.95.4l.95.8q.4 4.6-9.7 6.15-4.05.6-7.1.05-3.25-.65-3.45-2.4-.6-5.5.05-8.7 1.25-6.2 6.75-7.15l.85.7q.4.8.05.85-3.55.6-4.95 4"/><path fill="#0f141b" d="M84.2 281.3q.7-1.75 1.3-1.75 1.9.05 6.55 4.15 3.95 3.5 6.85 6.95.4.45.2 2-.15 1.55-.4 1.2-1.85-2.65-6.25-7-4.65-4.55-6.55-5.35-1.4 2.65-.75 8.1.7 5.9 3.5 12.25 5.5 12.65 15.2 22.8 10.6 11.1 21.3 13.65l-1.05-4q-.05-.1.75-.5l.9-.1 1.3 4.9q.2.9-.35 1.35l-1.6.2q-11.4-2.5-22.3-13-10.3-9.9-15.85-22.6-4.35-9.95-3.75-18.25.2-3 1-5m77-10.9q-7.05 3.9-10.15 4.25-.35.1-.5-.8-.1-.9.25-.95 2.7-.35 8.95-4.1 6-3.55 7.4-5.35.25-.3 1.5.3t1 .9q-1.55 2-8.45 5.75"/><path fill="#0f141b" d="M149.1 266.1q-.35 0-.35-.9t.35-.9q16.45 0 33.8-3.5 19.25-3.9 28.95-10.25.35-.2.8.9t.15 1.3q-9.6 7.15-29.05 10.75-17 3.15-34.65 2.6m60.25-23q.35-.2.8.55t.1.95q-2.65 1.55-12.1 2.65l-13.9.8q-.35 0-.35-.9.05-.9.4-.85l13.3-1.05q10.25-1.25 11.75-2.15m-69.6-46.1q-.25-1.55.1-1.45l19.85 8.35q19.6 8.6 20 10.3.55 2.2-1.15 14.2-1.75 12.35-3.4 15.95-.65 1.6-8.65 8.25-7.55 6.25-12.8 9.85l-1.3-.1q-1.05-.3-.85-.45 4.1-2.8 10.5-8.2 7.55-6.3 10.9-10.25 1.8-4.1 3.65-16 1.6-10.7 1.4-12.65-1.55-1.35-17.55-8.05-14.55-6.1-20.2-8.1-.3-.05-.5-1.65m68.05-1.5q-30.1.7-45.75-3.75-.35-.1-.1-.95t.6-.75q14.05 3.95 45.85 3.15 31.05-.8 37.75-4.75.3-.15.25.85 0 1-.2 1.1-9.15 4.4-38.4 5.1m-44.85-86.7q2.6 10.1 2.6 11.65 0 .35-.9.35t-.9-.35q0-1.15-2.05-9.55l-3.5-14.05q-.75-3-.2-3.5.6-.5 1.4 2.45zM212 141.15q-.35-.05-.25-.95t.45-.85l13.5.25q.4 0 .4.8.05.75-.35.75l-7.2.05zm21.2-63.05q0-2.15.45-3.55.5-1.4.6.7.4 12.4 1.3 16.85l-.55.35q-.55.05-.65-.25-1.15-5.9-1.15-14.1m1.4-31.75.7-.1q.65.2.55.45-1.1 4.45-1.5 11.25-.05.9-.45-.2-.45-1.05-.35-2.75-.15-1.2.1-3.5.3-2.55.95-5.15m8.9-15.25q.55 0 .9.5.4.5.4 1.2t-.4 1.25q-.35.5-.9.5t-.95-.5q-.4-.55-.4-1.25t.4-1.2.95-.5"/><path fill="#0f141b" d="m248.85 31.2 1.85-.05q-.8 4.85-3.85 7.75-3 2.85-7.25 2.85-4.65 0-7.25-3.45-2.6-3.55-2.6-10.05l1.85.4q.05 4.95 1.6 7.85 2 3.8 6.4 3.8 3.9 0 6.45-2.9 2.1-2.4 2.8-6.2"/><path fill="#0f141b" d="m255.35 30.75 1.8-.5q0 7.85-5.65 13.2-2.45 2.35-5.9 3.45-3.25 1.1-6.7.9-8.45-.5-12.85-7.9-3.9-6.75-2.05-13.5l1.85 1q-1.2 6.2 1.75 11.8 3.55 6.65 11.4 7.1 3.05.2 6-.9 2.9-1.1 5.25-3.3 4.8-4.5 5.1-11.35m-87.4 51.45 13.15.5q.85.25 3 4.6 3.8 7.6 13.15 29.85 1.85 4.4 8.25 9l7.45 4.8q1.15.9-.8 13.45-2 12.7-4.25 17.9-2.05 4.8-15.85 10.55-14.1 5.85-27 7-.75 3.1-1.35 7.5-.55 4.45-.3 5.3 2 1.8 15.4 8.85l13.05 7q1.35 3.1-1.15 20.05-2.6 17.15-5.05 19.6-2.7 2.65-16.05 8.45-11.65 5.1-15.65 6.2l-2.3.35-3.05.05q-.35 0-.3-.9t.4-.9l2.85-.05 1.95-.25q3.7-1.05 14.85-6.15 12.35-5.7 14.85-8.15 1.75-1.75 4.8-18 3-16.15 2.25-19.35l-15.2-7.35q-11.05-5.55-13.7-8.1-.85-.85.3-7.15.75-4.3 1.8-8.05.15-.6.8-.7 12.65-.9 26.65-7.05Q204 165.3 205.85 161q2.45-5.7 4.2-17 1.45-8.95 1.35-11.25-13-8.2-15.8-14.9-13.25-31.55-15.15-33.45-3.05-.85-12.55-.25-8.45.55-11.35 1.3l-2.05 1.15q-1.65.95-1.9 1.4l-.05 1.35.4 11.4q.25 10.85-.55 13.6-.55 2-4.05 8.55-4.4 8.2-8.85 13.95-.25.3-.5-1.45t.05-2.1q4.1-4.6 8.05-11.8 3.15-5.75 3.55-7.5.55-2.35.35-13.9l-.15-12.35q.1-1.1 2.6-2.8 1.3-.85 2.55-1.55z"/><path fill="#0f141b" d="M201.45 136.7q-5.3-1.55-19.3-7.7l-17.35-7.65q-3.45 2.9-12.6 18.4-8.85 14.95-10.15 19.35 1.4 3.85 10.7 10.7 8.65 6.35 11.1 6.6 5.05.5 19.65-6.2 14.15-6.5 15.3-9 1.25-2.6 2.35-12.6 1.1-10.05.3-11.9m1.45-2.2.85.8q1 2.2-.4 12.8-1.35 10.5-2.95 13.85-1.4 3-15.95 9.75-15.1 7-20.8 6.45-5.1-.5-14.65-8.4-9.5-7.85-8.8-10.8 1.35-5.55 9.75-20 9.05-15.55 14.15-19.4l.85-.1 16.9 7q16.75 6.85 21.05 8.05M247 87.05l1.35.3.8.6q-1.1.5-1.9 1.15l-.7.75q1.9 5.55 3.2 14.3 1.3 8.85.5 11-.5 1.45-3.7 4.05-2.8 2.35-8.75 6.45-9.5 6.45-9.9 7.7-.55 1.75-1.35 15.3-.8 13.8-.3 15.1 1.05 2.25 8.6 7.5 7.8 5.35 14.6 8.35 2.05.9 1.35 1.4t-2.8-.45q-7.3-3.2-14.9-8.1-7.9-5.1-9.1-7.65-.9-1.65.15-15.45 1.05-13.45 2.05-16.55.35-1.1 3.05-3.25 2-1.55 7.55-5.4 11.35-7.8 11.7-9.4.75-3.2-1.2-12.65-1.7-8.15-2.95-11.2-.3-.8.5-1.95.8-1.1 2.15-1.9m11.75 3.35q-.2-.35 1-.6l1.35.05 4.3 9.7 4.7 10.45q.7 1.25 3.45 4.25l3.5 4q1.4 1.8 1.5 2.7.8 6.4-1.05 22.1-1.7 14.9-3.35 19.5-.9 2.55-6.45 7.6-5.4 4.85-9.1 6.65-2.2 1.05-3 .65-.75-.45 1.45-1.5 3.35-1.65 8.55-6.65 5.1-4.9 5.85-7.05 1.7-4.65 3.6-19.35 2.1-15.65 1.35-21.9-.1-.85-4.2-5.55-3.15-3.7-3.65-4.6l-5.15-10.65z"/><path fill="#0f141b" d="M238.2 150.15q-.9 10.45-.65 12.45.4 1.5 9.2 10.7 1.4 1.45 1.1 2.05-.25.55-1.65-.9-5.45-4.75-8.5-8.2-2.35-2.7-2.5-3.6-.25-1.85.9-12.45 1.25-11.95 2.9-13.8.6-.7 7.1-4.35l11.05-6.35q6.85-4.2 10.9-7.7 1.85-1.55 1.4-.45-.45 1.15-2.45 2.8-7.8 6.45-20.05 13.3-6.2 3.45-6.65 3.95-1.1 1.3-2.1 12.55m22.7 24.55 1.15-.8q1.25-1.1 1.25-.9l-2.6 9.75Q258 193 257.5 195.9q4.3 9.05 3.75 11.5-6.8 29.65-38.35 48.75-1.45.9-6.35-.95-4.6-1.75-5.35-2.8-.6-.85-1.5-4.3-.95-3.8-.55-4.8l7.75-19q8-19.25 9.4-20.7.95-.9 9.15-5.1l8.55-4.55q.8-.85 2.25-6.35 1.55-6 .85-8.15l1.8.3q.5.15.5.4l-.05.2q-3.2 13.95-4.1 14.85-.5.55-8.7 5.1l-8.45 4.8q-1.05 1.4-9.25 20.25l-8 18.6-.05.15q0 .9.85 3.45t1.3 3.15q.8.8 4.45 2.1 3.75 1.35 4.55.95 15.35-9.25 24.25-20.6 8.9-11.3 12.25-25.8.3-1.15-1.1-5.6-1.2-3.95-2-5.3-.35-.65 2.65-11.6z"/><path fill="#0f141b" d="M252.1 205q2.3-1.2 1.8-.2-.55 1-2.8 2.15l-8.65 3.9-7 3.05q-1.3 1.8-8.05 15.5-7.2 14.45-7.95 17.65v.05q0 .5.7 1.5l1.95 2.3q.8.85.05.95-.75.05-1.65-.85l-2.3-2.3q-1-1.25-.75-2.3.8-3.45 8.35-18.3 7.2-14.2 8.4-15.5.45-.45 8.25-3.6zm116.55 45.25q-.05.4-1.4-.25-1.4-.6-1.35-1 .85-8.1.55-17.05-.65-16.55-5.5-25.45-6.6-12.05-22-29.55Q330 166.85 310 146.3l-19.1-19.9q-9-9.8-12.9-15.75-2-3.1-5.1-10.5-2.45-5.7-3.7-8-2.2-3.95-4.3-5-.35-.15.55-.85t1.25-.5q2.45 1.2 4.5 5.15l3.75 8.4 2.2 5.45q1.25 3.15 2.35 4.85 3.55 5.45 14.05 16.15l19.85 19.85q18.95 19.45 28.85 30.85 15.25 17.5 21.95 29.75 5 9.2 5.3 26.35.15 7.75-.85 17.65m-38.3 84.65q11.7-11.15 17.95-23.15.2-.45 3.7-3.3 3.5-2.9 3.35-2.55-6.7 15.15-22.15 29.75-13.55 12.8-21.9 15.3-3.35 1-4.8.4-1.8-.8-1.95-4.45-.45-10.4-.95-52.95l-.5-44.85q-.35-24-11.05-53.2-7.55-20.55-18-38.55l.4-2.55q.5-2.35.7-2.1 9.5 13.95 18.65 39.8 11.25 31.7 11.6 56.75l2.2 97.05q.1 2.25.9 2.65 1 .4 4-.95 7.75-3.55 17.85-13.1m-76.2-38.1q.4-1.85.4-5.55 0-.35 1-.8l1-.1q0 5.7-.45 7.4-.4 1.5-6.2 1.95-4.2.35-8.95.15-1.35-.05-2.55-1.45l-1.4-2.1-2.1-.35-3.2-.3-8.05-1.4q-4.5-1.3-6.05-3.6-5.55-8.15-17.65-16.55-13.55-9.4-23.8-10.15-.45 0 1.65-1.05 2.05-1.1 2.55-.95 9.75 2.05 22.35 11.35 11.6 8.55 16.8 16.25 1.25 1.9 5.55 2.95l7.5 1.2 3.95.6q1.35.3 1.8.8l1.05 1.4q.9.95 1.85 1 5.75.3 9.5-.05zm-6.1-21.3q-.05-1.3.4-1.55t.5 1.05q.15 1.7 1.55 3.85 1.3 1.95 1.1 2.7-.25 1.2-.65 1.4-.4.15-.25-1.05.05-.4-1.05-2-1.4-2.15-1.6-4.4m21.25-2.65q.3-.9.8-.45.5.4.2 1.3-.5 1.55-2.9 3.8l-3.35 2.75q-1.4.95-2.1 1-.75 0 .6-.95l3.4-3.2q2.95-3.05 3.35-4.25"/><path fill="#0f141b" d="M253.6 222.7q-.25-.2 1-1.2 1.25-.95 1.5-.75 9.2 7.45 17.7 21.65 7.7 12.95 7.35 17.45-.3 3.55-3.15 11-2.75 7.1-4.15 8.6-1.05 1.1-3.9 2.8l-5.35 3q-8.55 4.95-9.35 6.8-.65 1.7-1.15 1.15-.5-.5.15-2.2.65-1.6 3.3-3.5l6.15-3.8 4.85-2.9 3.45-2.7q1.15-1.25 3.85-7.65 2.95-7 3.2-10.25.25-3.8-7.6-16.25-8.7-13.85-17.85-21.25"/><path fill="#0f141b" d="M256.45 288.85q-.05-.35 1.2-.65l1.35.05q.45 4.15 5.6 7.55 3.15 2.05 9.4 4.45 4.15 1.7 5.85 2.8 3.5 2.25 3.8 5.2l-1.4-.2q-1.4-.6-1.5-.85-.65-1.7-2.85-3.1-1.6-1-4.55-2.15-6.9-2.7-10.15-4.8-5.7-3.65-6.75-8.3"/><path fill="#0f141b" d="M286.25 319q.15-2.75-1.1-5.5-1.5-3.35-4.65-5.45-1-.7-3.35-.8-2.55-.1-4.3.7-1.7.8-2 2.25.85 1.6 1.55 5.1.7 3.7.6 6.6 1.85.85 5.15.5 3.15-.3 5.75-1.5 2.35-1.1 2.35-1.9m1.3-5.9q1.4 3.25 1.2 6.45-.05 1.6-3.95 3.35-2.5 1.15-5.9 1.45-3.7.35-6.15-.6-.8 2.2-5.6 2.95-2.85.45-7.2.1-4.85-.35-6.6-1.4-.25-.15.25-.75t.7-.65l10.55.7q5.65-.45 5.85-1.9.4-2.9-.25-7.1-.55-3.8-1.25-4.8-.55-.8.45-2.35 1-1.5 2.45-2.2 2.15-.95 5.55-.75 3.15.25 4.6 1.2 3.55 2.4 5.3 6.3m-69.65-25.05q.4-.05.45.85t-.35.9q-1.9.15-3.1 1.4l-6.5 8.3q-4.8 6.55-5.05 7.55l-.15 3.1q0 1.5.25 1.75 2.5 1.75 8.75 7.45 6.15 5.6 7.95 7.7l3.1.4 6-.15q.9 0 2.95-2.55.2-.3.95.25.7.6.45.85l-2.05 2.6q-.9 1-1.7 1.05l-5.75.3q-4.25 0-5-.9-1.75-2-8.55-7.85l-9.3-7.55q-1-.7-1.15-3.45-.15-1.85.05-2.75.2-1.35 6.2-8.85 5-6.25 7.15-8.55 1.65-1.75 4.4-1.85"/><path fill="#0f141b" d="M238.7 311q-4.55 1.05-5.2 4.05-.65 3.15-.1 7 .55 4.25 2.15 4.9 2.7 1.1 9.5.8 6.65-.35 7.2-1.4 1.15-4.8-.3-8.85t-4.85-5.7q-3.85-1.85-8.4-.8m-7.05 3.75q.9-4 6.25-5.4 5.3-1.45 10 .85 4 1.95 5.9 6.3 1.9 4.45.9 9.85-.15 1-1.2 1.7-.75.5-2.45 1.05-2.75.95-8.6.8t-8.35-1.2q-2.65-1.1-2.95-6.8-.2-3.85.5-7.15m101.7-22.9q1.7-10 .05-23.9-1.55-13.3-3.8-13.4-1.9.15-6.05 11.1-4.65 12.15-6 24-.95 8.05-.95 20.7.05 14.1 1.6 15.2 2.55.45 7.6-9.9 5.4-11.25 7.55-23.8m-3.7-39.1q3.9.15 6 14.25 2.05 13.9.15 25.25-2 11.9-7.8 23.65-6 12.2-10.15 11.4-3.5-.7-3.45-17.15 0-12.05 1.3-21.8 1.45-11.6 6-23.45 4.65-12.25 7.95-12.15"/><path fill="#0f141b" d="M351.7 267.65q-.1-14.65-2.2-17.05-1.8.7-6.9 10.7-5.35 10.45-6.8 17-.1.55-.65-2-.55-2.5-.25-3.35 3.05-9.15 8-17.05 5-7.95 7.25-7 3.05 1.3 4 14.75 1 13.55-1.25 25.05-2.5 12.8-10.5 24.4-7.55 10.95-11.45 9.6-1.3-.45-1.9-4.9-.5-3.6-.3-7.45.05-.95 1.2-2.65 1.15-1.75 1.15-1.3l-.05 7q.1 6.55.65 7.6 2.85-.3 8.95-9.4 7.3-10.9 9.75-23.45 1.35-6.95 1.3-20.5"/><path fill="#0f141b" d="M352.9 270.3q1.8-5.9 6.25-13.65 5.05-8.9 7.5-8.45 3.45.65 3.95 11.7.5 11.75-3.3 23.9-3.45 11.15-10.75 21.05-7.05 9.65-10.15 8.1-1.15-.55-.4-10.05.05-.35 1-1t.95-.3v.1q-.15 1.15-.2 5l-.05 4.1q2.35-.65 8-9.2 6.3-9.65 9.2-19 2.5-7.95 3.05-19.7.55-11.7-1.55-12.95-1.6.25-6.45 9.6-4.65 8.95-6.45 14.55-.15.45-.5-1.2t-.1-2.6m-253.55-2.35.15-.05q2.7-.8 10.65 8.4 6.95 8 11.05 15 .25.4-.2 1.8-.5 1.4-.65 1.05-3.35-6.35-10.85-15.4t-9.45-9.15q-2.75 1.9-.85 16.15 2.15 15.7 8.8 26.8 6.35 10.6 14.9 18.45 8.55 7.75 14.55 8.5-.15-1.75-1.1-6.1-.95-4.4-1.5-5.75l1.1.25q1.15.4 1.3.7 1 2.4 1.65 7.35.7 5.5-.6 5.45-6.55-.25-15.9-8.1-9.5-8.05-16.35-19.45-8.35-13.9-9.25-30.25-.35-6.15.5-10.8.8-4.2 2.05-4.85"/><path fill="#0f141b" d="M133.9 277q-5.65-10.15-8.05-10.65-.85.3-1.95 3.15-1.25 3.35-1.9 8-1.7 12.95 2.5 27.8 3.3 11.65 11.6 21.6 6.8 8.15 9.5 8.25 1-1.6-.15-13.85-1-11.05-2.6-19.8-2.3-12.5-8.95-24.5m-8.35-12.45q3.05-.55 10.05 12.2 7.1 12.95 9.4 23.75 2.65 12.5 3.35 22.95.8 12.4-2.05 13.4-1.15.4-4.2-1.55-3.3-2.1-6.8-5.85-9.4-9.95-13.15-23.3-4.75-16.7-2.1-30.15.95-5 2.75-8.3 1.5-2.9 2.75-3.15"/></svg>