<svg xmlns="http://www.w3.org/2000/svg" width="187" height="234" viewBox="-0.3 -0.15 187.1 234.35"><path fill="#4b516d" d="M179.95 89.9q2.4 8.65 2.9 21.6.45 11.9-.85 22.3-1.3 10.95-5.15 19.35-3.9 8.5-9.25 11.75.35 3.5 2.25 8.5l1.45 3.1 1.55 3.5q1.65 5.5 1.1 14-.6 9.75-3.8 15.9-2.85 5.4-6.95 6.7-3.45 1.1-4.6 0-1.1-1.15-1.15-5.65v-5.75q-.1-3.75-.7-5.85-.5-1.95-2.6-3.7l-4.6-3.3-14.35 10.3q-.6 15.45-5.2 23.95-3.6 6.65-7.75 6.65-2.8 0-4.75-3.7-.75-1.35-2.05-5.4l-2-7.35-2.35-8.1-26-5.6q-2.4 5.2-6.4 9.85-3.95 4.55-8.25 7.3-3.35 2.15-7 3.1l-5.85-.25q-1.65-1.25-.8-4.85.4-1.7 2.25-6.45 6.6-17.05 7.75-25.5l45.75-47.75 32.05-18.5q3.85-1.95 7.6-1.5 2.55-6.55 6.3-13.2 4.95-8.8 7.6-8.7 1.4.1 2 2.85 3.45-8.4 6.45-11.75 2.2-2.4 3.25-2.05 1.1.4 2.15 4.2"/><path fill="#b4153a" d="m174.05 192.25-.1 1.75q-.6 9.75-3.8 15.9-2.85 5.4-6.95 6.7-3.45 1.1-4.6 0-1.1-1.15-1.15-5.65v-5.75q-.1-3.75-.7-5.85l-.6-1.45q3 2.05 7.85 1.6 6.6-.7 10.05-7.25M134.65 210q-1.4 11.7-5.55 18.1-3.35 5.15-6.85 5.15-2.8 0-4.75-3.7-.75-1.35-2.05-5.4l-3.1-11.45q3.3 1.65 8.9 1.7 7.9.05 13.4-4.4m-71.1-10.7q1.1 3.6 5.6 6.1 6.1 3.4 14.3.9-2.55 4.3-6 8-3.4 3.65-7 5.95-3.35 2.15-7 3.1l-5.85-.25q-1.65-1.25-.8-4.85.4-1.7 2.25-6.45z"/><path fill="#1d2d4e" d="M182.75 132.5q-4.95 6.2-11.4 19.1-2.8 5.6-6.1 13.85-1.3 3.2-2.85 4.65l4.2-3.6q-3.2 10-10.7 19.45-8.55 10.8-18.85 15.5l-3.15 1.2q-12.85 7.9-31.05 5.5Q85 205.8 72.6 195q-5.15-4.55-6.4-10.85-3.25 3.9-4.1 8.25-.4 2.2-.4 3.7-.8.55-3.25-2.25-2.95-3.35-2.8-8.6.15-5.1 3.95-8.25l3.75-2.15q-1.9-.8-3.15-2.6-.95-1.35-1.1-2.4l43.5-21.35 56.2-13.7q4.5-2 13.4-3.95 9.55-2.1 13.55-1.6-.6.35-3 3.25"/><path fill="#b4153a" d="M116 50.45q-1.25 10.9-5.1 21.9-7.65 22.05-20.6 22.6T66.95 78.7q-3.2-5.25-5.8-11.6l-1.95-5.3q-2.55-6.85-1.1-12.9 1.2-5.15 6.4-13.35 4.35-6.9 4.2-14.05-.05-3.5-.75-5.8.45-.3 3.4 2.4 3.55 3.3 5.55 7.6.15-10.35-5.25-18.6-1.6-2.5-3.65-4.65L66.35.75q11.3 1.05 23.1 7.9 23.6 13.7 26.55 41.8"/><path fill="#4b516d" d="M153.85 32.65q3.1 14.55.5 37.35-2.8 24.3-10.55 41.3 1.5 5.4 1.75 14.2l14.8-1q7.3-.15 7.55.75.6 2.4-8.5 9.7-9 7.2-12.75 7.6l6.05.65q6.05 1 6.05 2.45 0 1.4-7.35 4.85-7.7 3.3-8.35 3.7-3.75 7.25-9.6 12.1-9.15 7.6-23.75 10.15-14.45 2.5-30.9-.85-10.75-2.2-19.5-6.05-5.15 1.6-15 2.65l-10.85-.3q-.7-1.7 7.85-7.55l8.65-5.5q-8.85.7-21.6.15-14.45-.65-14.8-2.6-.35-1.75 10.5-6.4 8.55-3.75 17.95-6.85l-.05-.1q-1.6-5.05-1.7-9.6Q22 118.2 10.75 92.85q-8.7-19.6-9.7-34.65-.35-5.1 1.15-6.5 1.3-1.25 6.05-1.05 7.8.35 21.85 4.45 12.95 3.75 21.3 7.6.5-5.25 2.8-9.75 1.5-3.05 4.6-6.9-1.35 4.6-1.3 7.8.05 3.4 1.6 7.75 1.6-5.2 5.45-9.5 4.5-5.05 11.65-8.35l-.3 3.75q-.15 4.65.5 9.2 2 14.45 11.1 22-2.65-5.75-1.7-12.1 1-6.35 5.75-14 4.8-7.65 5.8-11.8 1.15-4.85-.75-11.8l2.45 1.4 5.75 4.15q8.65 7.25 11.2 15.85-1.25-11.85-6.35-21.3 2.3 1.85 4.85 5.55 3.35 4.75 5.4 10.35 4.3-4.55 11.85-9.45 8-5.2 13.9-6.9 4.45-1.3 6-.45 1.4.7 2.2 4.45"/><path fill="#b4153a" d="M96.5 104.7q1.3 2.9 1 5.8-.3 3.35-2.8 4.45t-5.2-.9q-2.35-1.7-3.6-4.6-1.3-2.85-1.05-5.75.35-3.35 2.85-4.45t5.2.9q2.3 1.7 3.6 4.55m22.15-8.2q1.75 2.2 2.5 5.25.7 3.05.1 5.8-.75 3.2-3 3.7-2.3.5-4.35-2-1.75-2.2-2.5-5.25-.7-3.1-.1-5.8.75-3.2 3-3.7 2.3-.5 4.35 2"/><path fill="#fff" d="M141.6 118.95q1.3 8 .5 14.65-.95 7.8-4.5 8.4-3.5.55-6.9-6.55-2.9-6.1-4.2-14.05-1.25-7.95-.45-14.6.95-7.8 4.5-8.4 3.5-.55 6.9 6.55 2.85 6.05 4.15 14"/><path fill="#00acdc" d="M127.8 127.35q-.2-.8 3.35-6.55l3.55-5.6q1.05 3.05 1.65 6.55.85 5.45.35 9.95-.65 5.3-3.05 5.7-1.2.15-2.4-1.05-2.4-4.95-3.45-9"/><path fill="#fff" d="m129.25 124.9 2.05-3.95q1.15 1.55 1.35 5.6.25 4.05-.8 4.2-.8.15-1.6-1.85-.75-1.8-1-4m-48.6-11.35q4.9 5.85 7 14.15t.65 15.8q-1.75 8.7-7.8 10.25-6.1 1.55-11.8-5.25-4.85-5.85-7-14.15-2.1-8.3-.65-15.8 1.75-8.7 7.8-10.25 6.1-1.55 11.8 5.25"/><path fill="#00acdc" d="M80.25 129.4q6.2 1.4 8.2 2.35l.35 3.55q.2 4.35-.45 8.3-.9 2.85-3 3.35-3 .75-6.05-3.55-2.6-3.7-3.9-8.85-.8-3.1-.95-6.4z"/><path fill="#fff" d="M85.1 139.85q-1.45.3-2.6-3.25t-.6-6.55l1.35.2 1.9.5q1.1 1.85 1 5.45-.1 3.5-1.05 3.65"/><path fill="#b4153a" d="M72.75 127.8q-8.35-1.5-12.25-1.55-.25-6.7 1.65-11.35 2.15-5.45 6.7-6.6 6.1-1.55 11.8 5.25 4.9 5.85 7 14.15l.8 4.05q-5.85-2.2-15.7-3.95m62.6-26.45q2.15 2.95 3.9 8.1-2.3 2.35-5.75 7.55-4 6.05-5.65 10.4-.8-2.85-1.35-6-1.25-7.95-.45-14.6.95-7.8 4.5-8.4 2.4-.4 4.8 2.95"/><path fill="#1d2d4e" d="M123.15 67.05q4.45-5.95 9.9-10.25 4.85-3.8 8.95-5.25.95.65 1.5 4.35.6 4.15.25 9.65-1.05 14.85-8.2 29.15-2.05-3.7-8.25-8.85-5-4.15-7.8-5.6 1.85-3.25 3.65-13.2m-94.1 28.8q-7-13.7-7-23.6 9.8 1.2 19.6 5.2 10.35 4.2 15.55 9.5-10.45 12.9-14.4 27.35-7.05-5.3-13.75-18.45"/><path fill="#0e1d3b" d="M71.7 187.95q4.7 4 10.25 7.15 16.1 9 32.15 6.8l5.85 1.8 10.8.4q-9.45 5.35-23.35 4.7-11.45-.5-19.95-4.2-13.3-5.7-18.7-13.75-1.65-2.5-2.35-4.95l-.35-1.95.9-.9q1.1 1.75 4.75 4.9"/><path fill="#0e1d3b" d="M118.3 203.3q-3.9-.95-7.35-2.85l-2.7-1.7q3.95 1 9.85.85 7.85-.2 15.35-2.7 21.05-6.9 32.4-28.85-1.55 5-5.2 11.35-7.35 12.7-18 19.55-11.9 7.45-24.35 4.35"/><path fill="#0e1d3b" d="M180.15 135.95q-5.6 7.7-11 19.3-3.3 7.15-5.7 13.9-3.85 4.15-9.5 6.95-2.85 1.4-4.9 2 6.25-4.5 13.7-17.7 7.75-13.8 13.3-20.9 3.55-4.6 8.6-8.9-1.7 1.5-4.5 5.35"/><path fill="#383d54" d="M176.75 141.4q3.1-5.1 5.55-8.35-1.15 8.35-3.6 16.35-2.85 7.9-7.3 12.5-2.2 2.3-3.85 3-.4-.5-.65-1.7-.25-1.4.05-2.2 3.5-9.35 9.8-19.6m3-12.1q3.25-7.35 3.45-9.75v2.65l-.45 7.15zm-21.6 54.4q1.6 2.05 2.55 6.45 1 4.4.95 9.45-2.6-.35-5.9-1.65-1.7-2.15-5.65-4.75l4.15-4.4q2.25-2.65 3.45-5.05z"/><path fill="#90072b" d="M161.65 217.35q-4.2.25-4.6-6.25.35-7.75.05-10.1-.15-1.5-1.35-3.05 3.3 1.3 5.9 1.65l-.25 4.85q-1.15 9.45.25 12.9"/><path fill="#383d54" d="M69.15 195.4q-.95-3.9-2.45-7.4 2.15 3.6 5.7 7 5.3 5 12.8 8.5l-.35.8-1.2 2.3q-4.45 1-8.3.6-2.95-.3-5.15-1.35.25-4.9-1.05-10.45"/><path fill="#90072b" d="M60 223.75q9.55-6.15 10.2-17.9 2.2 1.05 5.15 1.35 3.85.4 8.3-.6-3 5-7.65 9.85-4.5 4.7-10.7 6.45z"/><path fill="#383d54" d="m135.25 202.35-.1 2.4-.45 5.65q-6.4 4.05-13.1 4.15-3.5-3.75-9.7-5.7l7.7-1.1q9.05-1.85 15.65-5.4"/><path fill="#90072b" d="M123.55 233.3q4.8-11.65-1.95-18.75 6.7-.1 13.1-4.15-.55 5.3-1.35 8.25-2.05 7.45-6.1 11.8-2.05 2.15-3.7 2.85"/><path fill="#061922" d="M40.6 127.2q.5.05.4 1.6-.25 3.55-.1 5.85.25 3.9 1.65 8.15.1.25-.8.5l-1 .05q-2.3-7.95-1-14.6.3-1.55.85-1.55m96.95-28.7q-.65-1.1-.25-1.3.35-.25 1.05.75 3.9 5.35 5.9 12.45 2.2 7.55 1.85 16.15-.05 1.55-.55 1.55-.55 0-.6-1.55-.2-8.5-1.75-14.6-1.7-6.8-5.65-13.45M22.7 72.75Q24 82.9 29.3 94.2q5.9 12.55 13.3 18.4 3.1-14.5 13.75-25.65-5.15-5.05-14.6-9.05-9.45-3.95-19.05-5.15m-2.55-.25q-1.35-.1-1.35-.7-.05-.6 1.35-.55 11.3.25 22 4.85 9.8 4.2 15.5 10.35.4.4.05.85-10.35 12.5-14.35 27.05-.2.75-.5.65l-.5-.3q-7.6-5.05-14.3-19.25-6.25-13.2-6.8-22.85zm99.6 8.75q-.2-.15.05-.7t.5-.45q2.7 1.4 7.3 5.05 5.6 4.55 8 8.2 4.15-8.55 6.05-17.7 1.5-7.25 1.5-14.15 0-3.85-.5-6.65-.45-2.45-1-2.85-.15-.1.15-.5.3-.35.5-.2 1.2.8 1.9 4.6.75 4.15.45 9.85-.85 14.85-8.15 29.45-.35.65-.7.55l-.85-.8q-2.9-3.45-8.5-8.3-4.75-4.15-6.7-5.4"/><path fill="#061922" d="M144.5 50.3q1.6-.2 1.65.25 0 .4-1.55.75-3.95.9-9 4.35-6.65 4.55-11.95 11.7-.2.2-.5-.7T123 65.5q5.05-6.8 11.55-11.05 5.55-3.65 9.95-4.15M8.25 49.5q8.55.4 20.75 3.6 12.9 3.35 22.15 7.95.25.1.1 1-.1.9-.35.8-8.2-3.8-21.2-7.45-13.75-3.85-21.5-4.2Q4 51 2.75 52.3q-1.25 1.25-.95 6.05 1 14.7 9.5 34 11.05 25.1 28.95 40.35.25.15-.05 1.05t-.55.75Q19.95 118.75 9 93 1.15 74.55.05 58.45q-.35-5.5 1.35-7.2 1.95-1.95 6.85-1.75"/><path fill="#061922" d="M137.1 30.75q11.6-5.5 15.05-3.45 2.8 1.7 4 10.9 1.2 9.05.35 21.85-2 30.9-12.45 53.15-.1.15-.45-1.35-.4-1.5-.25-1.85 9.85-22.75 11.2-52.4.55-11.4-.45-19.85-.95-8-2.7-9.05-2.5-1.5-12.65 3.5-11.2 5.45-18.4 13.15-.2.2-.7-.75-.5-.9-.35-1.1 5.75-7.1 17.8-12.75m-92.55 110.8 2.2.2q.15.45-1.85 1.05-6.65 2-16.1 5.85-9.4 3.85-13.25 6.15-1.85 1.05-1.8 1.4.05.3 2.05.75l13.1 1.15q12.6.6 21-.3 1.6-.15 1.45.45l-1.1 1.05q-8.5 5.4-14.8 10.9l-1.05 1.05 1.3.25 10.35-.6q8.4-.95 14.25-2.75 1.9-.55 2.2 0 .3.6-1.55 1.35-6.4 2.6-14.7 3.5-6.55.7-11.2.15-2.4-.25-2.7-1-.35-.8 1.4-2.8 1.85-2.1 5.4-4.7 3.8-2.8 8.25-5.15l-18.2.6q-9.4-.45-13.6-1.45-3.4-.85-3.6-2.15t2.85-3.3q5.55-3.65 15.05-7.3 9.05-3.5 14.65-4.35M67.4 16.5q-.35-1.6.3-1.6.35-.05 1.2.45 4.15 2.55 7.05 6.95 4 6.2 3.55 14-.05 1.55-.55 1.55-.5.05-.6-1.45-.6-8.15-4.15-13.9-2.35-3.85-5.5-5.95.9 4.1.55 7.65-.6 5.75-4.25 11.55-3.55 5.7-5.05 9.35-1.8 4.3-1.8 8.2 0 3.5 1.45 7.4-1 1.8-1.15 1.5-2.85-6.6-1.55-13.1 1.2-5.85 6.3-13.95 3.7-5.85 4.45-11.85.45-3.75-.25-6.8"/><path fill="#061922" d="m87.5 77.9.2 1q0 .85-.2.7-8.2-6.35-11.1-17-2.4-8.55-.95-17.75-8.6 4.2-13.05 10.7-4.95 7.3-3.1 16.9.35 1.75-.1 1.95-.4.2-.9-1.5-2.85-10 2.8-18.4 4.7-6.8 14.8-11.45 1.1-.45.9.7l-.3 3.7q-.15 4.55.45 8.9Q78.8 70.3 87.5 77.9"/><path fill="#061922" d="m96.15 28.15.7.2q2.6.7 7 3.9 7.15 5.25 10.7 12.9-2.5-13.1-10.2-22.9Q98.4 14.6 89.75 9.5 79.6 3.4 68.6 1.7q5.65 5.25 7.85 11.6 1.9 5.65 1.85 14.75l-1-1.45-1.05-1.8q.15-13.6-9.9-23.2l-.9-1.05q-.3-.7 1.65-.5 11.55.8 23.3 7.45 23.5 13.3 26.2 42.75.1 1.3-.35 1.4-.45.05-.9-1.15-2.65-7.4-9.05-13.65-4.05-3.95-8.75-6.7 1.75 5.3.85 9.65-1.05 5-6.2 13.25-6.05 9.65-6.05 16.85 0 6.6 4.5 12.75.75 1.05.4 1.25-.35.25-1.25-.8-5.85-6.65-5.5-14.3.3-7.15 6.25-16.7 4.95-7.9 6-11.75 1.2-4.65-.6-11.3-.2-.85.2-.9m-37.3 16.5q.2-.2.4.65t0 1.05q-4.35 5.5-5.95 10.1-2.35 6.75-.95 15.65 1.35 8.5 7.05 15.25 2.95 3.55 7.75 7 1.3.9 1.1 1.3l-1.65-.15q-4-1.6-8.6-6.85-6.25-7.15-7.7-16.15-2.55-16.2 8.55-27.85"/><path fill="#061922" d="M109.75 29.7q-.2-.15-.2-1.05 0-.95.2-.75 3.05 2.4 6.65 7.65Q121 42.2 122.9 49q2.3 8.4 1.45 17.2-1.1 11.35-7.45 20.1-.95 1.3-1.4 1-.5-.3.35-1.65 10.2-16.3 4.9-35.75-1.9-7-5.5-13.1-3-5.1-5.5-7.1m-52 140.3.95-.3q.95-.2 1 0 .1.9.95 2.1 1.15 1.6 2.9 2.35.9.4.85.7l-.9.5q-.95.25-2.35 1.15-2.5 1.6-3.75 4-1.95 3.75-.8 8.35.6 2.55 2.3 4.55 1.2 1.45 2.4 2.1-.7-3.5.6-7.1 1.8-5 7.1-8.3 1.25-.75 1.6-.35.3.35-.8 1.3-7.4 6.35-7.4 14.25 0 1.4-.4 1.55-.3.1-1.6-.65-4.2-2.25-5.6-6.9-1.4-4.5.8-9 1.75-3.5 6.25-5.65-1.55-.75-2.85-2.35-1.15-1.45-1.25-2.3"/><path fill="#061922" d="M65.55 184.2q0-.25.6-.4.6-.1.65.15.3 3.1 2 5.75 1.45 2.25 4.2 4.7 12.25 10.7 29.85 13.05t30.25-5.05l1.3-.05q1 .1.8.25-14.35 9.4-32.9 6.9-17.5-2.35-30.55-13.75-5.85-5.1-6.2-11.55"/><path fill="#061922" d="M166.1 166q.8-.9 1.1-.5.25.3 0 1.1-3.4 10.5-10.55 20-8.45 11.2-18.75 15.85-9.7 4.4-20.35 1.55-8.4-2.3-12.8-7.05-1.05-1.1-.65-1.55.45-.4 1.55.65l2.45 1.9q3.15 2.1 6.65 3.45 11.15 4.3 22-.65 9.5-4.3 17.8-14.2 7.25-8.7 11.1-18.4-4.3 4.5-9.35 7.55-7.55 4.65-15.05 4.9-1.2.05-1.3-.4t1.05-.6q9-1.3 17.9-7.55 4.5-3.1 7.2-6.05m-20.9-47.75q3.4-1.25 7.05-.45.25.1.15.7-.05.6-.3.6-3.3-.4-6.7 1.15-.15.1-.25-.9-.15-1.05.05-1.1"/><path fill="#061922" d="M166.1 95.95q1.6.1 2.6 2.8 1.75 4.6.8 15.45-.2 2.25-.8 2.35-.55.05-.5-2.15.2-9-.65-13.55-.65-3.4-1.6-3.45-2.35-.05-7.4 9.15-4.3 7.9-6.15 13.6-.55 1.65-1.05 1.5-.5-.2-.15-1.9 1.45-6.7 6.1-14.85 5.15-9.1 8.8-8.95"/><path fill="#061922" d="m168 98.95-.55-1.2q.75-2.2 2.25-4.95 1.9-3.4 4.05-5.75 2.2-2.55 4.05-2.05 1.9.45 3.05 4.65 2.15 7.8 2.9 19.2.7 10.55 0 20.3l-1.95-.05q.8-9.9.25-20.15-.6-11.35-2.7-18.95l-.9-2.7-.95-1.1q-.6-.15-1.4.55l-1.3 1.35q-2.85 3.45-6.15 11.55zm13.3 35.4 2.2-2.6-.2 1.95q-1.35 11.15-5.7 20-4.2 8.65-9.75 12-.25.1-.5-.6-.3-.7-.1-.85 5.05-3.05 8.85-11.15 3.8-8.15 5.2-18.75M65.6 184.9l.85.7.8 1.25q-.55 6-6.65 22.55l-2.5 6.7q-.7 2-.7 3.55 0 1.8.95 2.55 1.5 1.15 5.1.3 3.35-.8 6.6-2.85 4.35-2.75 8.2-7.3 3.9-4.55 6.25-9.6l1.05.15.85.55q-2.45 5.3-6.5 10.05-4.15 4.85-8.6 7.6-3.7 2.3-7.7 3.15-4.5.9-6.45-.75-1.5-1.3-1.55-3.45-.05-1.75.85-4.55 1.2-3.4 2.55-6.75l3-9.15q2.75-9.1 3.6-14.7m68.95 17.65q0-.25 1-.3l.95.2q-.7 15.85-5.65 24.65-4 7.1-8.65 7.1-4.2 0-6.45-5.9-2.2-5.8-3.05-9.6l-1.35-5.25-1.45-4.7q-.1-.25.8-.45l1 .1q1.35 3.55 2.85 10.05.4 2 1.35 5.05l1.45 4.15q1.9 4.9 4.85 4.9 3.95 0 7.45-6.8 4.3-8.4 4.9-23.2"/><path fill="#061922" d="M166.7 160.5q0-.25.85-1.25.8-.95.8-.7-.45 3.4.65 7.95.8 3.2 2.05 6.05 3.15 7.35 3.55 9 1.15 4.5.6 12.45-.6 9.35-3.75 15.75-3.15 6.35-7.8 7.8-3.25 1.05-5.2-.35-1.2-.9-1.65-2.65-.4-1.7-.5-5.9l-.25-5.45q-.15-1.65-.7-3.55-.45-1.5-2.45-3.05l-4.15-2.8 2.3-1.3 4 3q1.75 1.7 2.3 3.6.95 3.4.7 9.45-.25 6.15 1.3 7.3 1.2.85 3.65.05 3.75-1.2 6.45-6.25 3.25-6 3.85-15.8.45-6.9-.9-11.8l-3.15-8.5q-1.1-3-1.85-6.3-.95-4.25-.7-6.75"/><path fill="#061922" d="M173.75 191.55q.1-.2.4.45t.2.85q-1.9 3.55-4.7 5.55-2.25 1.55-4.75 1.95-2.85.45-5.85-.5-2.3-.75-3.15-1.6l-.2-.85q-.05-.7.15-.5.65.65 3.15 1.4l5.65.5q2.7-.4 5.15-2.4 2.35-1.9 3.95-4.85m-39.45 17.8q.25-.15.65.35.35.45.15.65-6.05 4.95-13.3 5.05-5.25.05-9.75-2.2-.2-.1.05-.7.3-.55.5-.45 3.05 1.5 8.4 1.6 7.85.15 13.3-4.3m-50.9-3.8.45.55q.2.55-.05.65-4.75 1.5-8.9 1.2-3.35-.25-5.9-1.55-2.35-1.25-4.1-3.5-1.45-1.8-2-3.55-.1-.25.45-.55l.6-.1q.45 1.3 1.8 3 1.75 2.05 4 3.25 5.85 3.1 13.65.6m90.25-76.3q7.6-1.35 12.15-.75 1 .15.9.6l-.75.85q-5.7 5-14.1 21.85-2.95 5.85-5.6 12.6l-1.8 4.1q-.9 1.55-2.35 2.55l-.6-.15q-.35-.35-.2-.45 1.15-.75 1.9-2.45l1.6-4.2q1.1-3.05 1.95-5.15 1.5-3.9 3.4-7.7 7.8-15.65 14.65-21.4-4.65.1-13.35 2.1-8.4 1.9-12.45 3.65l2.45-2.4q4.35-2.3 12.2-3.65"/><path fill="#061922" d="M165.4 123.8q3.6.25 3.45 1.95-.05.65-1.55 2.7-2.25 3.2-7.35 7.3-5.55 4.45-9.95 6.25 3.8.4 6.85 1.4 2.45.9 2.6 2.05.1 1.1-2.05 2.6l-5.7 3.15q-4.5 2.15-8.2 3.35-3.85 7.35-8.75 11.95-9.55 8.9-24.9 11.6-15.2 2.65-32.1-1.3-11.9-2.75-18.6-6.75-.2-.15.5-.5l.9-.25q8.2 3.65 18 5.65 16.15 3.35 31 .75 23.7-4.15 32.7-21.55l.5-.65.7-.35q11.3-4.95 13.5-6.45 1.2-.85 1.25-1.1 0-.35-1.55-.9-3.7-1.25-10.05-1.6-1.4-.05-1.4-.6t1.4-.65q2.75-.3 9.75-5.55 6.8-5.1 10-9.05l1.1-1.45q0-.55-2.05-.65-2.75-.15-7.9.1l-12.1.95q-.25.05-.4-.75-.1-.8.15-.85l10-.75q6.5-.3 10.25-.05"/><path fill="#061922" d="m124.95 145.95-.5.65q-.75.45-2 .75l-2.1.2q-.75-.1-.8-.4-.1-.3.5-.7.7-.4 2-.7l2.15-.2q.7.1.75.4m-28-37.15q-.2-2.7-1.5-5.1-1.65-3.05-4.45-4.1l-3.15.05q-1.5.65-2.1 2.3-.6 1.55-.35 3.7.2 1.85.95 3.5t2 3.05q1.45 1.6 3 2.2l3.1-.05q2.8-1.2 2.5-5.55M87.7 98.35l4.05.1q1.8.7 3.45 2.5 1.3 1.5 2.15 3.3 1.1 2.45 1.1 5.05 0 4.3-2.75 5.85-2.35 1.35-5.05.3-1.8-.7-3.45-2.5-1.3-1.5-2.15-3.3-.8-1.8-1-3.75-.25-2.45.45-4.25.95-2.5 3.2-3.3m29-3q-1.1-.65-2.3-.45-1.15.3-1.85 1.45-.85 1.3-.95 3.6-.1 1.95.3 3.85.45 1.9 1.45 3.6 1.1 1.95 2.45 2.8 1.1.65 2.3.45 1.6-.4 2.35-2.45.6-1.8.45-4.2l-.45-2.6-.8-2.3q-1.2-2.65-2.95-3.75m-5.35.6q1.2-1.9 3-2.2 1.6-.25 3.25.75 1.55 1 2.8 3.05 1.05 1.85 1.55 3.95.4 1.6.4 3.3 0 2.35-.95 4.2-1.15 2.35-3.15 2.8-1.7.35-3.35-.65-1.55-1-2.75-3.1-1.1-1.9-1.6-4-.5-2.05-.35-4.15.2-2.4 1.15-3.95m15.1 13.35q-.35 5.7.65 11.95 1 6.15 3.15 11.55 2.35 5.9 4.95 7.8 2.45 1.75 4.25-.7 1.9-2.6 2.2-8.95.3-5.8-.7-11.95-1-6.2-3.1-11.55-2.35-5.95-4.95-7.85-1.1-.75-2.15-.65-1.2.15-2.1 1.35-1.85 2.6-2.2 9m4.05-11.65q1.65-.15 3.15.95 3.6 2.6 5.85 8.5 3.75 9.7 3.85 20.7 0 3.95-.75 7.4-.75 3.55-2.1 5.45-2.6 3.55-6.3 1-2.9-2.1-5.45-8.35-2.3-5.6-3.3-11.85-1-6.2-.6-12.25.45-6.7 2.55-9.6 1.25-1.75 3.1-1.95"/><path fill="#061922" d="M134.2 115.25q-.05-.2.7-.75t.8-.35q1 3 1.65 6.95 1.05 6.5.15 11.25-1 5-3.75 5.45-1.5.25-2.9-1.15-.15-.15.25-.5.35-.4.5-.25.95 1 1.95.85 2-.3 2.6-5.1.55-4.45-.35-9.9-.55-3.45-1.6-6.5m-64.65-6.65q-3.3.6-5.5 3.85-2.55 3.75-2.9 10.3-.3 5.8 1.1 11.35 1.4 5.35 4.25 10.1 3.2 5.4 7.05 7.7 3.75 2.2 7.35.95 3.65-1.25 5.55-5.7 1.65-3.9 1.7-9.6.05-5.1-1.15-9.8-1.35-5.35-4.2-10.1-3.2-5.4-7.05-7.7-3.15-1.9-6.2-1.35M63 111.25q3-4 7.05-4.25 3.2-.2 6.55 1.8 2.55 1.55 4.9 4.15 2.35 2.65 3.95 5.8 4.25 8.1 4.45 17.25.15 7-2.2 11.9-2.6 5.45-6.9 6.6-3.85 1.05-8.2-1.5-4.1-2.45-7.55-8-3.05-5-4.5-10.5-1.5-6-1.05-12.25.5-7.05 3.5-11"/><path fill="#061922" d="m73.2 127.9.9-.15q.85.1.85.3.25 6.85 3.8 13 3.45 6.05 6.45 5.3 1.75-.45 2.65-3l.6-.05.4.4q-1.15 3.3-3.4 3.9-4 1.05-8-5.2-4.1-6.4-4.25-14.5"/><path fill="#061922" d="M60.35 126.8q-.25 0-.25-.65 0-.6.25-.65 4.35-.55 13.05 1.1 8.9 1.75 15.35 4.5.25.1.05.65l-.5.5q-5.85-2.2-15.75-3.95-8.5-1.5-12.2-1.5m78.55-18.05q.2-.15.6.3.45.4.25.6-2.3 2.35-5.75 7.5-3.95 6-5.6 10.3-.05.25-.65 0l-.5-.45q1.7-5.3 5.75-11.25 3.35-4.85 5.9-7m-10.9 32.5q1.25.25 1.2.7-.1.4-1.35.2-6.9-.95-12.75 1-3.35 1.15-7.05 3.7-1.05.75-1.4.6-.4-.2.75-1.4 2.3-2.45 6.95-4.05 6.45-2.2 13.65-.75m-20.4 28.1q-10.65-.35-16.1-3.2-3.45-1.85-3.95-3.9-.2-.85.05-.95t.75.75q1.05 1.8 4.35 3.15 5.25 2.1 15 2.45 10.35.35 16.2-3.2 2.95-1.8 3.8-3.7.35-1 .75-.8.35.2.05 1.2-.9 2.9-5.25 5.25-6 3.3-15.65 2.95"/></svg>