<svg xmlns="http://www.w3.org/2000/svg" width="555" height="385" viewBox="-0.2 -1.4 555.2 384.55"><path fill="#595857" d="M114.2 71.1q-7.5 15.55-13.25 20.7.1 5.15-.9 13.75-1.25 10.8-3.3 14.1l2.2 1.65q-5.5 6.65-8.2 13.9-4.45-5.15-5.3-5.75-27.1 4.65-53.45-3.9-9.75-3.15-16.45-7.25-6.1-3.7-6.15-5.8 2.15-3.05 11.35-7.1 8.8-3.9 9.35-5.15 3.05-6.7 17.5-15.55 14.3-8.8 21.7-8.8 11.75-13.2 27-21.6 13.5-7.45 28.35-10.4-3.3 12.45-10.45 27.2"/><path fill="#ad0a34" d="m87.7 82.6 2.45-5.05 1.8-4.2Q90.2 73.75 86 76q-4.15 2.2-6.15 3.75 2.3-4.9 11.2-11.7Q99.7 61.4 108.7 57.4q-1.35 5.65-6.3 14.5-4.65 8.2-9.3 13.9.6-2.5 1-6.45z"/><path fill="#0a2a4d" d="M75.4 14.1q1.85 4.3 2.65 9.8.9 6.35 0 12.05-3.55 4.4-5.2 4.95l.2-3.05q-.1-2.15-.45-2.35-.85 1.6-5.8 6l-7.5 6.15q7.85-10.25 11.2-16.6 4.75-8.9 4.9-16.95"/><path fill="#595857" d="M204.1 131.55q4-9.5 5.6-10.55.75 1.5.1 9.8-.55 7.1-1.1 9.8 2.3-3.45 7.7-8.8 5.45-5.35 7.8-6.45-1.05 2.4-4.35 12-3.65 10.8-3.5 12.25 1.1-.55 3.85-3.25 3-3 4.1-3.75-.2 1.85-3.55 11.15l-3.45 9.9q-.9 5.1.8 14.6 1.1 6.05 4.15 17.7 3.2 12.2 4 16.65 1.5 7.85.2 10.4-1.35-1.55-3.6-2.15-2.4-.65-4.05.45-2.3 1.5-2.6 4.55-.25 2.55.85 5.65v.05l-2.85 1-.25-1.3q-.95-2.8-5.2-5.15t-6.3-1.1q-2.5 1.4-2.05 6.35-5.45-2.95-7.65-5-2.55-2.35-3.15-5.5-1.7-8.35-1.1-30.1.6-22.65 3.2-30.75-2.85-2.15-21.7-10.65l-19.3-8.55q5.75-8.15 7.75-9.8l-3.85.6-3.7 1.05 3.25-4.8q6.95 4.65 17.8 9.15 10.45 4.35 21.35 7.25l1.25-6.05q.95-3.65 1.8-5.1 2.85 5.6 3.35 11.65.5-3.8 4.4-13.2"/><path fill="#0a2a4d" d="M124.4 5.15q2.85 20.6-2.9 34.55-.65-1.55-1.35-4.25-.7-2.65-.7-3.35l-8 6.5 3.05-8.7q-4.45 5.55-11.55 9.2-6.5 3.35-12.35 3.75 2.3-2.9 4.75-7.5 5.15-2.75 13.55-10.65 10.85-10.2 15.5-19.55"/><path fill="#ad0a34" d="M200.4 231.35q.05.85.6 2.8l.7 2.35-.9 7.6q-.7 4.55-1.35 5.5-1.65 2.45-5.75-8.9-4.15-11.45-2.75-16.3 1.15 1.85 3.6 3.5z"/><path fill="#595857" d="m73.5 192.6 6.85-10.3q-.4 7.95-1.45 12.15-3.5 3.65-13.35 9.45 2.45-3.05 7.95-11.3"/><path fill="#ad0a34" d="M7.9 265.4q-.85-.3 3.1-7.45 4.15-7.55 7.75-11.1 7.8 4.1 13.6 5.35-4.85 5-13.95 9.6-8.45 4.3-10.5 3.6"/><path fill="#0a2a4d" d="M177.8 40.1q-6.5 3.55-11.05 5.3 2.25-2.45 5.05-9.25 2.45-6 3.2-9.7Q193.65 14.9 204.45 1q.3 13.4-4.4 26.45-3.4 9.35-9 17.65-2.9 1.35-6.8 2.7-4.15 1.45-5.3 1.45 1.6-1.9 4.9-7.95 3.15-5.8 3.75-7.8-2.5 2.6-9.8 6.6"/><path fill="#595857" d="m82.05 186.5 3.85-12.4q4.4 2.6 9.65 3.45-1.1 2.95-3.1 9.95t-2.25 8.75l4.4-1.7q3.2-1.2 4.6-1.45l-3.85 5.55L90.1 205q2.1-.6 9.55-1.35l10.45-.65q-1.95.9-22.9 12.75l1.9-.05 1.9.35q-15.05 8.65-23.7 19.75-1.8 2.3-4.95 7.05-2 3.1-3.1 3.75-5.6 3.35-10.9 4.9 3.15-4.95-1.25-9.35-1.7-1.7-3.75-2.4l-3.05.1q-2.75 2.15-5.7 12.75-7.4-1.05-17.9-6.9 7.75-.2 9.45-1.25 2.2-1.4 1.5-6.15-.75-5.15-5.5-5.3 4.2-5.95 18.5-14.7 17.35-9.9 24.9-14.4 9.85-5.8 13.35-9.45.95-.95 3.15-7.95"/><path fill="#0a2a4d" d="M267.9 80.25q-12.2-3.85-17.2-6.15 2.35-1.55 13.4-4.7 11.45-3.25 19.4-4.5l14.15 6.4q8.8 4.05 14.75 6.15 17.55 6.2 33.55 4.3-15.55 8.55-36.1 11.75-20.35 3.2-39.65.2 5.35-.75 10.25-3.1 4.65-2.25 7.25-5.1-7-1.25-19.8-5.25M277.2 15q-1.5 7.7-7.05 17.4-5.95 10.45-14.35 19.15.75-2.55.55-6.1-.15-3.3-.75-3.6-4.85 3.7-14.85 7.7-10.45 4.2-15.3 3.95 4.3-2.8 10.1-7.8 6.1-5.3 7.55-7.7l-4.7-.1-5.45-.4Q254.6 32.2 277.2 15"/><path fill="#00a1b6" d="M355.65 194.85q-.35-4.75-9.75-8.05 2.2-3 5.5-4.75 3.4-1.75 7.25-1.75 6.05 0 10.9 4.1Q375 189 375 196q0 6.95-5 11.25-4.7 4-11.35 4-3.3 0-6.35-1.35-2.9-1.3-5.1-3.6 8.8-6.6 8.45-11.45"/><path fill="#0a2a4d" d="M375.1 195.75q0-4.65-3.15-8.7-2.95-3.8-7.4-5.6 3.85-3.15 12.5-15.1 10.4-12 25.7-18.9 21.1-9.55 43.05-6.7 21.2 2.7 35.65 15.8-4.2-2.15-9.6-2.95-4.95-.75-8.8-.05 7.45 2.75 14.05 12.4 5.15 7.5 10.35 20.15-2.45-.25-7.1-2.85l-6-3.9q.55 3.65 4.75 9.9 4.25 6.3 7.6 8.25-6.3-.45-16.9-5.45-10.2-4.75-16.2-9.8 5.6 18.2 18.85 29.15 13.5 11.15 30.35 10.7-3.85 2.5-11.15 5.1-7.55 2.65-13.3 3.4 2.7 1.6 8.3 3.25 5.85 1.75 10.2 2.2-20.15 5.8-39 5.3-13.7-.35-26.9-5.5-9-3.5-21.6-11.2-14.8-9-19.3-11.2-10.65-5.15-20.05-5.55 2.25-2.05 3.65-5.2 1.45-3.35 1.45-6.95m-26.5-7.8q8 2.95 7.6 7.35-.3 3.4-6.1 8.65-1.95 1.7-10.65 7.15-10.6 6.6-18 9.95l-9.55.35q-6.4-.05-9.3-1.05 3.1-.6 12.1-6.9 9.5-6.65 10.9-9.95-13.85 1.75-27.35-1.6-13.6-3.4-20.05-10.4 10 .6 22.95-.1 12.4-.75 22.55-2.4-5.7-2.65-12.3-8.35-6.8-5.9-8.9-10.3 4.4 2.65 12.55 6.05 7.6 3.1 11.9 4.2-6.15-6-10-12.7-3.65-6.45-4.6-12.3 10.4 14.05 21.7 23.25 8.1 6.55 14.55 9.1"/><path fill="#ad0a34" d="M255.6 41.85q.6.3.75 3.6.2 3.55-.55 6.1-3.85 3.95-7.75 7.05 8.85-1.35 18.3.6 7.5 1.55 17.15 5.7-7.95 1.25-19.4 4.5-11.05 3.15-13.4 4.7 5 2.3 17.2 6.15 12.8 4 19.8 5.25-2.6 2.85-7.25 5.1-4.9 2.35-10.25 3.1l-7.8-1.5q10 4.75 24.15 25.25l12.5 18.75q7.95 12.2 13.3 19.4.95 5.85 4.6 12.3 3.85 6.7 10 12.7-4.3-1.1-11.9-4.2-8.15-3.4-12.55-6.05 2.1 4.4 8.9 10.3 6.6 5.7 12.3 8.35-10.15 1.65-22.55 2.4-12.95.7-22.95.1 6.45 7 20.05 10.4 13.5 3.35 27.35 1.6-1.4 3.3-10.9 9.95-9 6.3-12.1 6.9 2.9 1 9.3 1.05l9.55-.35q-16.75 7.65-32.65 10.75-19.6 3.85-35.8.3l-1.4-4.25q-2.15-5.85-13.4-16.7-12.45-11.45-15.95-15.2-3.05-11.65-4.15-17.7-1.7-9.5-.8-14.6l3.45-9.9q3.35-9.3 3.55-11.15-1.1.75-4.1 3.75-2.75 2.7-3.85 3.25-.15-1.45 3.5-12.25 3.3-9.6 4.35-12-2.35 1.1-7.8 6.45-5.4 5.35-7.7 8.8.55-2.7 1.1-9.8.65-8.3-.1-9.8-1.6 1.05-5.6 10.55-3.9 9.4-4.4 13.2-.5-6.05-3.35-11.65-.85 1.45-1.8 5.1l-1.25 6.05q-5-1.3-12.1-3.8-10.05-3.5-17.9-7.4 3.15-24.9 5.85-36 4.65-18.95 16.1-26.55-17.85 2.6-31.6 8-25.45 10-37.45 28.65-10.05 5.55-17.25 14.15l-2.2-1.65q2.05-3.3 3.3-14.1 1-8.6.9-13.75 5.75-5.15 13.25-20.7 7.15-14.75 10.45-27.2-14.85 2.95-28.35 10.4-15.25 8.4-27 21.6-5.5 0-19.35 8.3-13.6 8.1-18.5 14.1-1.75-5.9 0-11.1.95-3 4.95-9.35 4.05-6.45 11.15-15.4l11.75-14.8 7.5-6.15q4.95-4.4 5.8-6 .35.2.45 2.35l-.2 3.05q1.65-.55 5.2-4.95-.65 4.35-2.45 7.75 3.05-1.45 10.35-4.3 6.55-2.5 9.4-4.05-2.45 4.6-4.75 7.5 5.85-.4 12.35-3.75 7.1-3.65 11.55-9.2l-3.05 8.7 8-6.5q0 .7.7 3.35.7 2.7 1.35 4.25 1.3-3.05 2.05-6.35 6.95-2.6 18.1-2.3 10.25.25 20 2.8 7.15-3.55 13.35-7.4-.75 3.7-3.2 9.7-2.8 6.8-5.05 9.25 4.55-1.75 11.05-5.3 7.3-4 9.8-6.6-.6 2-3.75 7.8-3.3 6.05-4.9 7.95 1.15 0 5.3-1.45 3.9-1.35 6.8-2.7l3.7-6 14.9.7q12.1.4 23.3-2.3l5.45.4 4.7.1q-1.45 2.4-7.55 7.7-5.8 5-10.1 7.8 4.85.25 15.3-3.95 10-4 14.85-7.7"/><path fill="#595857" d="M146.35 166.25q5.65 6 13.55 12.15 8.05 6.25 15 9.85 1.7 4.15 6.75 11.3l6.35 8.6q-1.3-.1-8.7-3.35l-7.9-3.35q2.45 8.35 7.6 17.85 3.95 7.4 7.25 11.7-1.25-.45-9.8-5.6-8.4-5.05-8.85-5.15.3 3.7 2.75 9.1 2.55 5.65 5.75 9.4-6.15-4-14-12.8-8.85-9.95-11-16.85-1.2 1.75-1.6 5.8-2.8-2.35-5.2-6.15-1.8-2.8-4-7.65-5.35-11.65-6.85-14.2-4.8-8-11.95-12.9 14.2-.3 24.85-7.75"/><path fill="#595857" d="m174.9 188.25 6.4.95 7.25 1.45q-.7 30.15 2.4 33.75-1.4 4.85 2.75 16.3 4.1 11.35 5.75 8.9.65-.95 1.35-5.5l.9-7.6q2.05 4.3 6.8 10.5 4.85 6.2 5.1 4.75.6-3.65.8-9.9.2-6.2-.2-9.3l2.85-1q1.3 3.5 7.7 9.05 6.1 5.3 6.95 4.65.45-3.8-2.3-13.3-2.35-8.15-2.95-8.95 1.3-2.55-.2-10.4-.8-4.45-4-16.65 3.5 3.75 15.65 14.9 11.1 10.6 13.85 16.05.65 1.25 4.55 19.2 3.7 17.25 6.95 22.15 1.75 2.65 8.8 8.4l14.5 11.6q20.5 16.7 25.3 26.85l4.7 8.9q3.5 6.55 5.25 11 5.5 13.85-.3 19.9-1.4-3.2-4.2-5.75-2.7-2.5-4.55-2.4-3.35.25-6.2 4.7-2.9 4.55-2.15 9 .15.8 1.1 2.3l-15.35.7-15.7-1.25q2.55-6.9-.8-12.65-3.35-5.7-8.4-3.45-1.25.6-3.7 3.35-.2-2.3 2.6-10.95 3.05-9.4 3.25-11.25.7-6.95-2.85-17.75-3.1-9.2-6.8-14.75-2.65-3.9-19.15-9.3-16.95-5-19.2-6-3.05-1.4-8.6-6.65-4.85-4.65-10.3-10.95l-10.95-4.15q-6.2-2.5-9.3-3.45l-24.45 2.45q-16.35 1.85-30.3 5.9l9.05 15.7q4.6 7.65 9.2 11.65 9.8 8.4 11.85 11.8 1.7 2.8.4 5.55-1.25 2.65-5.6 5.8-2.25 1.65-8.3 9.6-5.8 7.6-6.7 8.05-1.3.65-7.15 2.05l-9.05 1.75q.15-9.65-4.45-11.85-3.75-1.8-9.15 1.5-2.85-6.4-9.35-4.7-.95-4.25-4.1-4.6 4.45-1.7 12.85-6.45 8.9-5 10.6-7 2.05-2.4-.35-9.15-2.15-5.95-5.5-10.2-2.4-3-9.7-7l-8.95-4.65q-2.35-1.4-6.1-7.8-3.95-6.75-4.1-10.4-.05-2.8 9.9-12.75 6.55-6.55 12.6-11.75 1.6-1.35 14.45-7.1 13.4-5.95 15.55-7.4 2.55-1.7 4.5-6l2.4-6.15q2.2 4.85 4 7.65 2.4 3.8 5.2 6.15.4-4.05 1.6-5.8 2.15 6.9 11 16.85 7.85 8.8 14 12.8-3.2-3.75-5.75-9.4-2.45-5.4-2.75-9.1l9.15 5.45q8.95 5.45 10.15 5.9-3.55-4.65-7.6-12-5.45-9.9-7.9-18.15l7.9 3.35q7.4 3.25 8.7 3.35l-6.35-8.6q-5.05-7.15-6.75-11.3"/><path fill="#ad0a34" d="M499.45 176.05q10.3 13.3 15.1 17.95 8.6 8.25 17.1 9.35 10.1 1.35 22.3-6.85-6.2 13.1-21.6 23.75-14.85 10.3-34.75 16-4.4-.45-10.55-2.3-6-1.75-8.7-3.35 5.8-.75 13.5-3.35 7.55-2.6 11.35-5.05-17.25.45-30.65-10.5-13.25-10.8-18.95-29.45 6 5.05 16.2 9.8 10.6 5 16.9 5.45-3.35-1.95-7.6-8.25-4.2-6.25-4.75-9.9l6 3.9q4.65 2.6 7.1 2.85-5.2-12.65-10.35-20.15-6.6-9.65-14.05-12.4 5.4-1 11.45.1 5.95 1.05 8.45 3.35 6.4 6 16.5 19.05"/><path fill="#0a2a4d" d="M185.4 70.5q-11.45 6.55-16.2 25.95-2.75 11.3-5.9 36.6-5.3-2.6-9.15-5.2l-3.25 4.8 3.7-1.05 3.85-.6q-2 1.65-7.75 9.8l9.75 4.25q-5.4 17.4-20.65 24.45-11.4 5.3-24.7 3.75-7.65 5.2-16.35 4.75-6.75-.35-12.85-3.9-10.8-6.45-11.75-17.85-.35-4.6 1.1-8.75 1.35-3.9 3.8-5.85.85-7.3 4.4-11.95l2-.25q.85.6 5.3 5.75 2.7-7.25 8.2-13.9 7.2-8.6 17.25-14.15 11.95-18.6 36.05-28.3 13.6-5.45 33.15-8.35"/><path fill="#ad0a34" d="M97.65 319.2q2.7-.45 5.05 1.35 1.9 1.45 2.9 3.65-5.85 3.55-11.6 10.15-4.35.3-11.15.05-7.75-.3-9.5-1.2-2.9-1.55 9.2-7.7 11.3-5.7 15.1-6.3"/><path fill="#ad0a34" d="m78.5 327.6-5.8-.25q-3.15-.4-3.55-1.1-.8-1.45 7.3-5.4Q80 319.1 88.6 315.5q2.2-.9 4.1-.4 2.75.75 3.55 4.4-3.35.9-8.55 3.3-5.15 2.35-9.2 4.8M22.15 233q4.75.15 5.5 5.3.7 4.75-1.5 6.15-4.05 2.5-25.65-.15 2.05-3.45 9.25-7.35 7.5-4.1 12.4-3.95m20.25 6.75q1.85.25 3.45 1.2 4.5 2.75 3.3 8.6-.8 3.85-8.4 10.35-7 6-8.15 5.8-1.4-.3 1.5-11.65 3-11.75 6.2-14.2zm65.95 83q6.55-2.65 9.75 3.7 1.15 2.25 1.45 4.9.25 2.45-.35 3.2-2 2.4-12.85 5.75-11.25 3.4-15.85 2.55-3.85-.65 4.4-9.4 8-8.5 13.45-10.7m165.3 26.8q3.35 5.75.8 12.65l-.05.05q-.6 1.7-10.55 4.75-9.7 3-14.6 3.25.9-5.95 8.2-15.45 6.15-7.9 7.8-8.7 5.05-2.25 8.4 3.45m48.75 8.7q1.15 18.25-.65 19-1.95.9-9.5-6.7-7.35-7.45-7.85-10.1-.75-4.45 2.15-9 2.85-4.45 6.2-4.7 3.05-.25 6.45 4.5 3.05 4.2 3.2 7m-108.45-127q.65 2.4.5 9.7-.2 6.8-.85 10.8-5.25-3.15-9.6-11.25-3.4-6.4-3.6-9.15-.45-4.95 2.05-6.35 2.1-1.25 6.4 1.05 4.3 2.35 5.1 5.2m3.1.25q-1.1-3.1-.85-5.65.3-3.05 2.6-4.55 1.65-1.1 4.05-.45 2.25.6 3.6 2.15 1.1 1.25 3.45 11.65 2.3 10.2 1.8 10.6-.85.65-6.95-4.65-6.4-5.55-7.7-9.05zm63.85 149.75q-2.1-.15-2-8.85.1-7 1-11.95.9-4.55 3.2-7.55 2.7-3.45 6.5-3.45 3.9 0 6.55 4 2.7 4.05 2.45 9.8-.15 2.8-7.9 10.5-7.7 7.65-9.8 7.5m-106.55-230.1q12.45 5.95 17.1 8.9-.8 2-2.05 14.1-1.2 12.1-.95 15.55-5.7-1.85-14.15-1.6-4.6-2.4-13.75-9.9-8.05-6.65-13.6-12.1 4.75-3.65 9.05-10.5 3.75-6.05 4.6-10.1 1-.4 13.75 5.65"/><path fill="#3e3a39" d="M39.2 127.6q19.2.25 32.6-2.75 16.9-3.8 27.4-13.2-1.1 5.9-2.45 8l2.2 1.65q-5.5 6.65-8.2 13.9-4.45-5.15-5.3-5.75-12.2 2.1-24.75 1.4-10.9-.6-21.5-3.25m-4.6 125-1.2-.2 1.45-.65zm47.45-66.1 3.85-12.4q4.4 2.6 9.65 3.45-1.1 2.95-3.1 9.95t-2.25 8.75l4.4-1.7q3.2-1.2 4.6-1.45l-3.85 5.55L90.1 205q2.1-.6 9.55-1.35l10.45-.65q-1.95.9-22.9 12.75l1.9-.05 1.9.35q-15.05 8.65-23.7 19.75-1.8 2.3-4.95 7.05-2 3.1-3.1 3.75-5.6 3.35-10.9 4.9 2.45-3.8.15-7.55 12.8-9.2 20.7-21.5 9.4-14.6 3.7-23.2 3.95-2.7 6-4.8.95-.95 3.15-7.95"/><path fill="#008c9f" d="M374.65 199.45q-1.1 5.5-5.8 9.05-4.55 3.4-10.2 3.4-3.15 0-6.35-1.65-2.75-1.5-5.1-3.95 4.85-3.7 6.8-6.6 3.45 2.3 9.65 2.45 6.7.1 11-2.7"/><path fill="#001d3c" d="M467.35 205.65q7.8 8.15 16.75 12.4 9.3 4.4 19.05 4.15-3.8 2.5-11.35 5.05-7.65 2.6-13.45 3.35 2.7 1.6 8.3 3.25 5.85 1.75 10.2 2.2-20.15 5.8-39 5.3-15.55-.4-30.75-7.15-7.5-3.35-24.35-13.7 21.6.9 41-3.6 12.5-2.8 23.6-11.25m-118.75-17.7q8 2.95 7.6 7.35-.3 3.4-6.1 8.65-1.95 1.7-10.65 7.15-10.6 6.6-18 9.95l-9.55.35q-6.4-.05-9.3-1.05 3.1-.6 12.1-6.9 9.5-6.65 10.9-9.95-13.85 1.75-27.35-1.6-13.6-3.4-20.05-10.4 10 .6 22.95-.1 12.4-.75 22.55-2.4-5.7-2.65-12.3-8.35-6.8-5.9-8.9-10.3 4.4 2.65 12.55 6.05 7.6 3.1 11.9 4.2-6.15-6-10-12.7-3.65-6.45-4.6-12.3 10.4 14.05 21.7 23.25 8.1 6.55 14.55 9.1"/><path fill="#8e0027" d="M222.25 195.95q-3.05-11.65-4.15-17.7-1.7-9.5-.8-14.6l2.9-8.25q46.15-.25 82.9-13.05 5.25 7.9 9.25 13.25.95 5.85 4.6 12.3 3.85 6.7 10 12.7-4.3-1.1-11.9-4.2-8.15-3.4-12.55-6.05 2.1 4.4 8.9 10.3 6.6 5.7 12.3 8.35-10.15 1.65-22.55 2.4-12.95.7-22.95.1 6.45 7 20.05 10.4 13.5 3.35 27.35 1.6-1.4 3.3-10.9 9.95-9 6.3-12.1 6.9 2.9 1 9.3 1.05l9.55-.35q-16.75 7.65-32.65 10.75-19.6 3.85-35.8.3l-1.4-4.25q-2.15-5.85-13.4-16.7-12.45-11.45-15.95-15.2"/><path fill="#3e3a39" d="M149.5 168.35q-2.2 5.6-7.4 9.4-4.8 3.45-11.25 4.75-2-3.1-4.05-5-1.65-1.5-5.75-4.3 7.8-.2 14-2.05 5.3-1.6 11.2-5zM114.3 289.9q-2.05-4.65-4.55-7.8-2.4-3-9.7-7l-8.95-4.65q-1.75-1-4.5-5.7l-4.6-8q19.9 2.5 43.2-.5 19.7-2.6 38.05-8.5l15.4 1.5 13.1.65q.4 1.3 2.95 4.85l4.8 7-10.05-4.05q-6.5-2.65-9.2-3.45l-24.45 2.45q-16.35 1.85-30.3 5.9l9.05 15.7q4.6 7.65 9.2 11.65 9.8 8.4 11.85 11.8 1.7 2.8.4 5.55-1.25 2.65-5.6 5.8-1.85 1.35-5.75 6.35l-6.2 8.05q-2.45-9.15-8.15-16.8-5.8-7.75-13.8-12.3.05-3.4-2.2-8.5m148.95-21.65q1.75 2.65 8.8 8.4l14.5 11.6q20.5 16.7 25.3 26.85l4.35 8.25q3.35 6.15 5.05 10.2-15.4-7.05-28.75-9.75-17.4-3.55-25 2.1.3-7-3.2-17.2-3.05-8.8-6.55-13.95-1.9-2.8-15.7-7.5-4.95-1.7-21.3-6.55 16.55 4.25 29.6.5 13.1-3.8 12.9-12.95"/><path fill="#8e0027" d="m494.7 170.8 12.95 16.35q7.1 8.6 12.6 12.4 14.45 9.85 33.75-3.1-6.15 12.95-22.05 23.7-15 10.1-35.1 15.9-4.35-.45-10.2-2.2-5.6-1.65-8.3-3.25 5.8-.75 13.45-3.35 7.55-2.55 11.35-5.05-9.75.25-19.05-4.15-8.95-4.25-16.75-12.4 5.85-4.45 10.95-10.15 4.85 1.7 8.4 2-2.25-1.3-5.5-5.4l4.75-6.3 1.5.3-.65-1.55q4.45-6.65 7.9-13.75"/><path fill="#001d3c" d="M115.1 173.25q-7.65 5.2-16.35 4.75-6.75-.35-12.85-3.9 14.15.85 19.55-2.9l-1.5-1.1-1.45-1.1q12.45 2.35 31-5.35 17.85-7.45 27.1-17.95-7.2 18.25-22.05 24.65-10.25 4.4-23.45 2.9"/><path fill="#8e0027" d="M89.65 330.25q9.45-2.2 15.45-7l.5.95q-5.85 3.55-11.6 10.15-5.15.4-11.1.1-8.35-.45-10.2-2.15 10.15-.45 16.95-2.05m-17.9-6.7q1.4 1.55 7.3.75l8.85-1.7q-5.95 2.95-9.4 5l-5.8-.25q-3.15-.4-3.55-1.1-.35-.7 0-1.1.4-.45 2.6-1.6M90 340.3q19.75-2 28.15-13.3 1.3 2.3 1.55 4.65.2 2.1-.5 2.9-2 2.4-12.85 5.75-11.25 3.4-15.85 2.55-1-.2-1.1-.7-.1-.55.6-1.85m184.15 10.25q1.15 2.45 1.3 5.45.1 3.15-1 6.2l-.05.05q-.6 1.7-10.55 4.75-9.7 3-14.6 3.25.35-2.25 1.6-4.95 17.65-.55 23.3-14.75m30.2 10q7.8 8.25 13.05 10.3 5.2 2.05 5.45-3.2.05 9.1-1.1 9.6t-7.95-5.7q-7.15-6.55-9.45-11m-23.45 20.7q-1.25-.05-1.75-2.1-.4-1.85-.3-5.85 1.9 4.7 9.3-.7l11.8-10.2q-4.05 6.1-10.8 12.65-6.5 6.3-8.25 6.2M179.2 153.3q8.75 4.35 12.35 6.65-.85 2-2.2 13.4-1.4 11.7-1.15 15.9-8.45-2.25-13.05-1.55-5.6-1.75-15.5-9.5-9.5-7.4-12.8-12.05 3.3-2.8 6.7-7 3.75-4.7 5.1-8.3z"/><path fill="#3e3a39" d="M79.75 183.35q0 6.9-.85 11.1l-5.5 4.2q-4.7 3.3-7.15 4.2z"/><path fill="#8e0027" d="M22.65 249.35q1.4.95 4.4 1.7l5.25.9q-3.35 3.9-10.55 7.9-6.9 3.9-12.5 5.25 2.3-3.3 6.6-8.35 4.3-5 6.8-7.4m25.35-4.8q.95 1.65 1.15 2.65.25 1.15.15 3.35-.1 2.1-6.4 7.6-5.85 5.05-10 7.25 2-1.5 8.05-9.75 6.3-8.5 7.05-11.1m149.35-14.05q.4.45 1.35.65l1.9.3q0 2.95 1.1 5.25l-.85 5.95q-.95 5.05-1.65 7.1.15-2.4-.45-9.25-.6-7.55-1.4-10m9.75-4.8q2.8 1.3 3.45 1.7 2 1.25 3.3 3.2t.75 9.5l-1.35 11.25q-.05-3.75-1.6-11.65-1.95-10.2-4.55-14m14.65-4.7q1.9-.05 3.05.45 1.05.45 1.9 1.55.85 1.15 2.15 6 1.35 5.1 1.6 8.45-.95-3.2-3.55-8.2-2.6-4.85-5.15-8.25"/><path fill="#ad0a34" d="M76.1 81.1q-6.2 13.95-13.25 18.5-6.8 4.35-19.45 3-.25 0-1.8 1.7l-1.75 1.65q.8-6.45 3.75-12.25 2.5-4.95 4.3-5.75-2.55 7.05-2.45 8.8 4-5.2 12.8-9.55 8.3-4.15 17.85-6.1"/><path fill="#fff" d="M54.25 93.35q8.05-5.25 15.35-7.6-1.45 4.75-3.75 8.6-2.55 4.35-5.35 6.1-3.25 2-8.6 2.25l-9.85.45q4.8-5 12.2-9.8"/><path fill="#00a1b6" d="M48.5 97.8q4.05-3.25 6.85-5.1.95 2.3.25 5.25-.65 2.9-2.5 4.45l-10.05.4q.95-1.4 5.45-5"/><path fill="#0f141b" d="m48.9 97.35 1.05-.85q.65-.45 1.05-.55l.05 1.4-.3 1.9q-.35.85-.8.85-.4 0-.75-.9-.35-.85-.3-1.85m5.8-4.4q-.1-.25.4-.5t.65 0q1.4 2.75.75 5.8-.65 2.9-2.8 4.25h-.85q-.6-.1-.4-.3 1.65-1.4 2.4-4.25.7-2.9-.15-5"/><path fill="#0f141b" d="m48.9 97.35 1.05-.85q.65-.45 1.05-.55l.05 1.4-.3 1.9q-.35.85-.8.85-.4 0-.75-.9-.35-.85-.3-1.85m-2.2-8.3q.45-1.3 1.15-1.05.75.25.2 1.55-1.6 3.75-2 6.6-.25 1.7-.6 1.1-.4-.65-.2-2.8.1-1.4 1.45-5.4"/><path fill="#0f141b" d="M68.45 86.95Q62 89.25 55 93.75q-6.4 4.1-11.1 8.55l5.75-.3 5.4-.3q2.85-.45 5.1-1.85 2.55-1.6 4.9-5.5 1.95-3.25 3.4-7.4m1.1-2.55q.6-.2.8.3.15.45-.1 1.3-1.5 4.9-3.6 8.75-2.65 4.8-5.6 6.6-2.45 1.55-5.65 1.9l-5.75.2-4.15.15-3.1.25-1.65 1.8q-1 1.3-1 .45.05-.85 1.05-2.1 4.35-5.45 12.05-10.9 8.6-6.1 16.7-8.7"/><path fill="#ad0a34" d="m22.4 109.55-.3 2.2q-.4 1.35-1 1.9t-1.6.45q-.85-.1-1.4-.55.4-1.15 1.8-2.5 1.5-1.4 2.5-1.5m43.8 4.95q2.35-3.2 4.05-8.35 1.4-4.35 3.25-5.9 2-1.7 4.4-.8 2.5.95 2 3.8-.6 3.35-3.5 6.45-3.95 4.15-10.2 4.8"/><path fill="#0f141b" d="m123.85 43.2 1.5.15q.25.35-.15 1.65-4.5 16.25-10.4 28.55-6.05 12.6-12.45 18.65.05 5.6-.95 13.5-1.25 9.6-3.25 13.5l1.45 1.3q.2.15-.5.95-.65.8-.9.55l-2-1.7-.15-.55v-.5q1.85-3 3.1-12.85.95-7.9.95-13.75 0-1.25.25-1.45 5.4-4.85 12.7-19.75 6.9-14.1 10.35-26.4-15.3 3.3-29.05 11.4-13.85 8.1-24.4 20.05l-.65.3q-5.8 0-21 9.4-15.15 9.45-17.4 14.45-.5 1.05-2.55 2.2l-5.6 2.6q-8.8 3.85-11.45 6.25-.8.7-.75 1.2.1.7 1.55 1.9 8.25 6.85 27.3 11.55 23.5 5.75 45.9 2.25l.6.1q.9.55 5.5 6.3.2.25-.45.8-.7.5-.9.25l-2.8-2.9-2.3-2.05q-23.05 3.5-46.75-2.6-19.5-5.05-27.85-12.4-2.6-2.3-2.55-3.45.05-.95 2.3-2.75 1.85-1.5 5.55-3.2.7-.35 6.4-2.8 6.9-3 7.55-4.45 2.8-6.15 17.05-15.25 14.15-8.95 21.3-9.35 10.8-12.05 25.6-20.3 14.35-8.05 30.3-11.35"/><path fill="#0f141b" d="M74.55 103.5q.25-1.6.7-1.05.45.6.2 2.25-1 7.2-6.9 9.95-2.85 1.35-12.4 2.75-7.6 1.1-10.9 2.45-5.6 2.25-7.85 7.05l-.75-.05q-.65-.3-.55-.55 2.15-4.5 5.95-6.55 4.2-2.3 13.9-3.75 8.55-1.2 11.95-2.95 5.5-2.85 6.65-9.55m-52.2 5.35q.7-.05.8.65.05.7-.65.75-.75.05-1.95 1.15-1.1 1-1.85 2.2-.65 1.05-.8.5t.4-1.7q.55-1.2 1.75-2.3 1.25-1.15 2.3-1.25m89.1-53.1 3.25-.35q1.35.25-.55.85-7.75 2.45-17.3 8.75-9.35 6.2-14 11.8 2.8-1.6 5.75-2.95 3.5-1.55 3.95-1.1.5.55-2.9 7.95 5.05-2.6 5.2-2.5.5.3-.2 3.5l-1.2 4.6-1.6-.05L93 80.9q-5.35 2.9-5.9 2.3-.35-.4 1.1-3.65l2.25-4.75q-1.35.5-6.45 3.55-4.15 2.45-4.7 2.05-1.05-.85 1.4-4.05 2.45-3.15 7.15-7.05 11.75-9.8 23.6-13.55"/><path fill="#0f141b" d="m107.75 57.35.75-.1q.65.25.6.6-1 5.35-5.4 13.9-4.85 9.3-9.8 14.2-1.55 1.5-2.45 1.55-.85.05.5-1.55 4.65-5.55 9.8-14.95 5.2-9.4 6-13.65m-32.4-43.9q.85-.05 1.8 2.6 2.3 6.55 2.65 13.1.4 7.95-2.3 13.6-.15.4-2.8.8 2.75-4.95 2.85-13 .05-7-1.75-13.5-1.05 9.1-7.95 20.1-4.15 6.6-14.95 20-13.45 16.75-17.45 24-5.15 9.3-3.25 16.45-1.75 1.5-1.95 1.05-3.55-8.8 3.95-20.85 2.7-4.35 7.7-10.55l8.65-10.5q11.5-14.3 15.35-20.25 7.35-11.3 8.3-20.15.3-2.9 1.15-2.9"/><path fill="#0f141b" d="M58.4 48.6q.15-1.2.45-1.35 2.55-1.35 7.8-6.6l6.1-6.5q.95-1.15 1.15 5l3.8-4.25q.2-.3.7.15.55.4.35.7-1.7 2.8-3.8 4.6-2.05 1.75-2.65 1.15-.25-.25-.2-1.65l.1-2.4q-2.1 2.4-7.2 6.85l-6.5 5.3q-.3.2-.1-1M122.9 6q2.1-3.95 2.6.45 1.2 10 .75 17.35-.7 12.85-5.9 20.95-.25.4-2.6.5 5.2-7.85 6.35-20.95.7-8.1-.15-16.7-4.4 7.95-11.15 15-6.8 7.1-15.25 12.45-3.35 2.1-11.8 5.35-6.6 2.55-9.6 3.95-5.05 2.45-8 5.15-2.4 2.15-1.9.8.45-1.35 2.85-3.55 3.2-2.9 6.95-4.85 2.5-1.3 8.4-3.55l6.35-2.25q3.5-1.25 5.3-2.4 8.65-5.55 15.55-12.6 7.1-7.3 11.25-15.1"/><path fill="#0f141b" d="m94.4 38.7-2.65 3.6q9.65-1.6 21.1-11.65 2.7-2.4 1.8.8l-1.35 4.5 5.3-4.2q.9-.85 1.25-.75t.45 1.1l.7 3.6q.7 2.7 1.3 3.1-.95 2-1.35 1.75-.65-.45-1.15-3.05l-.7-4.25-3.85 3.3-2.6 2.05q-1.45 1.2-1.95 1-.4-.15-.1-1l1.9-5.5q-4.75 4.6-10.25 7.35-5.85 2.95-11.6 3.25-1.85.05-.75-1.35l2.7-3.7 2.2-3.6.75.05.55.45zm30.1-6.95q6.7-2.65 17-2.2 9.4.4 20.2 3.35.35.1.1.9-.2.85-.55.75-10-2.7-20.3-2.7T123.9 34.5q-.35.15 0-1.2.3-1.4.6-1.55"/><path fill="#0f141b" d="M203.2 1.2q2.1-2.6 2.1.7.1 14.9-5.45 29.4-5.8 15.05-15.1 22.55-1.95 1.55-2.9 1.9-1 .3.5-1.25 9.7-9.9 15.4-23.6 5.65-13.6 5.85-27.55-9.2 11.15-19.55 18.6-9.95 7.15-26.5 14.8-2.65 1.25-1.85-.1.75-1.35 3.4-2.65 30.4-15.6 44.1-32.8"/><path fill="#0f141b" d="M174.1 26.25q.05-.3 1.2-.4l1.15-.1q-.25 2.45-2.75 8.3-2.7 6.4-5.35 10.1 3.95-1.8 8.85-4.6l8.25-5.1q1.9-1.45 2.35-1.2.5.25-.5 2.75-2.5 6.1-6.4 12 2.25-.65 6.55-2.7 3.95-1.85 4.6-2.45.25-.25.15 1.05t-.4 1.45q-5.65 3.05-10.45 4.25-5.15 1.25-2.7-1.6 1.2-1.4 3.4-5.25l3.65-6.8q-4.3 3.3-9.8 6.35-5.15 2.8-8.1 3.65-2.9.85-1-1.95 2.25-3.5 4.7-9.55 2.35-5.85 2.6-8.2M276 14.85q1.45-1.1 1.8-.6.3.45-.1 2.55-2.05 10.1-8.85 20.9-7.6 12.05-18.7 20.8l-1.7-.05q-1.45-.25-1.25-.4 10.75-8.45 18.85-20.5 7.3-10.9 9.8-20.55-23.6 17.5-44.35 22.1-11.3 2.45-28.7 1.15-6.05-.4-8-.2-.35.05.35-1.25.65-1.25 1-1.3 1.45-.15 3.55 0l4.3.25q16.6 1 27.35-1.2Q253.2 32 276 14.85"/><path fill="#0f141b" d="M244.15 37.5q.15.35-.95 1.85-2.05 2.8-6.4 6.65-4.25 3.7-8.3 6.4 5.3-.85 13.95-4.6 7.9-3.45 12.6-6.6.9-.65 1.35-.5t.65 1.25.2 8.05q0 .4-2.8 2.4.65-1.75 1-5.4.3-3.4.05-4.4-5 3.95-12.75 7.2-7.6 3.2-14 4.15-3.45.55-3.7-.05t2.65-2.9q8.8-6.95 13.45-12.1l-4.65.1-4.1-.6q-.4-.1.6-.75 1-.7 1.55-.65l7.6.3zm98.6 43.7q3.45-.3 3.85.35t-2.95 2.35Q325.4 93 304.9 95.7q-21.45 2.8-40.15-2.2-2.3-.6-3.55-1.85t1.1-.6q17.35 4.6 40.05 2.25 22.5-2.35 39.25-10.35-12.45.65-25.7-3.45-8.05-2.5-22.65-9.3-15.15-7-22.85-9.15-12.7-3.5-24.25-1.25-3.1.65-2.6-.2.5-.9 3.6-1.6 12.6-2.95 24.55.65 4.05 1.25 21.8 9.5 15.65 7.2 23.1 9.6 13.7 4.35 26.15 3.45"/><path fill="#0f141b" d="M249.85 74.1q0-1.4 11.6-5.15 12.15-3.9 20.7-4.8.35-.05 1.4.85 1.1.9.75.95-6.75.85-17.25 3.6-10.1 2.6-14.45 4.5 6.45 2.65 16.8 5.9 11.7 3.7 18.05 4.85 1.35.25.45 1.65-.85 1.35-3.3 3-6.35 4.2-14.1 4.8-.35.05-1.55-.75-1.25-.8-.95-.85 5.15-.4 10.1-2.25 4.95-1.8 7.85-4.4-8.85-1.25-22.55-5.8-13.4-4.45-13.55-6.05z"/><path fill="#0f141b" d="M354.95 195.6q.55-4.2-6.65-6.85-14.25-5.6-28.95-22.9-8.6-10.2-23.8-33.4-13.15-20.1-19.45-27.5-10.65-12.5-19.45-13.65-2.25-.3-1.1-.9l3.3-.15q10.2 1.9 20 13.4 5.1 5.95 19.05 27.4 16.55 25.2 23.1 33.3 14.15 17.4 27.9 22.8 15.05 5.55 1.75 17.4-5.4 4.85-15.65 10.8-11.75 6.8-24.45 11.7-33.4 12.95-56.15 6.8-.35-.05-.9-1.5-.6-1.45-.25-1.4 26.05 5.75 59.55-7.25 12.15-4.75 23.25-11.2 9.1-5.3 13.45-9.2 5.05-4.55 5.45-7.7"/><path fill="#0f141b" d="M358.65 180.9q-3.55 0-6.8 1.8-3.15 1.7-5.3 4.65l-.5-.9q-.4-.5-1.1-.55 2.35-3.25 5.95-5.1 3.55-1.8 7.6-1.8 7.65 0 12.8 5.1 4.9 4.85 4.9 11.4 0 7.45-4.85 12.35t-12.25 4.9q-3.35 0-6.8-1.65-3.3-1.6-5.75-4.2 1.15-.1 1.75-.7 2.15 2.05 5 3.3 2.95 1.3 5.8 1.3 6.7 0 10.75-4.15 3.95-4.1 3.95-10.9 0-6.1-4.5-10.5-4.5-4.35-10.65-4.35"/><path fill="#0f141b" d="m493.95 166.55 8.75 11.3q7.65 9.75 10.45 12.9 5.7 6.3 10.65 9.1 12 6.85 28.1-3.15 2.1-1.3 2.6-.6t-.65 2.8q-10.45 18.9-37.65 31.9-27.8 13.3-56.75 12.4-16.3-.55-31.3-7.15-7.8-3.45-23.4-13.3-11.3-7.1-18.2-9.8-10.3-4.1-19.65-2.95-.35.05 1.25-1.75 1.6-1.75 1.95-1.75 8.45.15 18.05 4.6 5.8 2.7 17.25 9.9 14.6 9.15 23.1 12.85 14.5 6.25 29.35 6.65 28.7.75 56.3-11.6 27.4-12.25 37.8-30.3-16.6 10-29.7 2.75-5.35-2.95-11.3-9.3-3.55-3.85-10.65-12.9l-8.85-10.9q-5.15-6.05-9.95-10.5-14.45-13.45-36.1-15.95t-42.45 6.85q-11.55 5.2-19.75 12.8-4.7 4.35-10.6 12.3l-3.6 4.7q-1.9 2.3-3.65 3.6-.3.2-1.35-.55-1-.75-.75-1 4-3 8-8.5 5.85-7.85 11.2-12.75 8.65-7.9 20.5-13.25 21.7-9.75 43.7-7.2 22.1 2.6 37.35 16.8 4.6 4.3 9.95 10.95"/><path fill="#0f141b" d="M487.15 184.15q.65 1.75.35 2.2-.25.4-1.55 0l-5.2-2.15q-3.1-1.5-4.9-2.75 1.75 4.65 5.35 9.15l5.15 5.7q1.25 1.35 1.15 1.75l-1.85.2q-7.25-.75-15.2-4.2-8.55-3.7-15.1-9.4 5.6 15.4 18.3 25.65t27.25 11.05q3.1.15 3.25.65.1.55-2.95 2.25-10.15 5.65-20.1 6.75 4.05 1.75 9.25 2.9 5.75 1.3 9.35.95l-1 .85q-1.35.85-1.7.9-3.2.3-8.2-1.05-4.35-1.15-8.4-3.05-2.8-1.3-2.7-2 .1-.55 2.7-1.2 12.6-3 19.6-6.35-16.45-.85-28.8-11.3-12-10.1-17.75-27.1-.85-2.55-.25-2.85.55-.25 2.7 1.2 6.6 4.4 10.65 6.55 8.45 4.5 17.15 6.7-6.95-6.6-9.4-14.5-.75-2.4-.25-2.9.4-.4 1.8.5 6.75 4.5 9.9 5.35-5.75-12-8.15-15.8-5.45-8.5-12.95-13.4-2.2-1.45-2.15-1.95.1-.5 2.85-.95l7.8.25q4.95.9 9.25 3.5l.55 1.45q.25 1.3-.05 1.05-3.3-2.25-8.35-3.55-4.75-1.2-8.95-1.05 6.5 2.7 11.95 10.5 5.05 7.3 9.6 19.5M78.7 140.7q.3-.2.75.5t.15.9q-4.05 2.65-4.25 11.25-.15 8.6 3.8 13.7 6.05 7.75 16.9 9.55 10.8 1.8 18.35-3.7.3-.2 1.25.45.9.7.6.9-9.6 6-21.1 4.5-11.55-1.5-18-9.75-4.85-6.2-3.9-16 .85-9.3 5.45-12.3"/><path fill="#0f141b" d="m82.45 129.75 1.15.15q.9.4.65.65-4.4 5.1-4.5 15.15-.05 9.6 3.35 12.35 1.8 1.45 1.05 1.65t-2.55-1.25q-4.45-3.55-4.1-13.5.35-9.85 4.95-15.2m34.3-24.9q.35-.2-.25 1.85l-.9 2.25q-14.05 7.7-21.65 21.75-7.25 13.45-3.1 21.35 1 1.9.25 1.8t-1.75-2q-4.6-8.8 3.1-23 8.1-15 24.3-24m67.9-35.6q1.95-.5 2.2.35.3.8-1.45 1.8-10.75 5.9-15.2 25.45-2.6 11.3-5.8 36.8-.05.35-1.1 0-1-.3-1-.6v-.15q3.2-23.95 5.55-34.75 4.1-18.5 13.15-25.85-9.15 3.5-20.25 10.35-11.8 7.25-15.65 12.15-1.65 2.1-1.35.7.25-1.35 1.9-3.5 4.5-5.75 17.8-13.25 12.45-7.1 21.2-9.5m-25.05 75.4 1 .1q.9.4.8.75-6.9 22.95-29 28.35-9 2.2-18 .6-8.7-1.55-14.15-5.95-1.95-1.6-2.1-2.6-.2-1.05 1.8.55 5.45 4.35 14.05 5.75 8.85 1.4 17.75-.85 9.65-2.45 16.7-8.75 7.9-7.05 11.15-17.95"/><path fill="#0f141b" d="M183.1 69.6q2.2-.4 2.35.4.15.85-2.05 1.25-30.6 5.75-48.65 18.3-18.3 12.7-24.85 33-.65 1.9-1.05.85-.45-1.05.15-3 7.2-22.35 26.35-34.45 16.55-10.5 47.75-16.35m-28.9 50.85q7.2-2.5 6.9-.85-.1.65-4.4 6.35-4.7 6.25-5.7 8.2-1.1 2.15-1.4.95-.35-1.15.75-3.1 2.35-3.95 7.8-10.75-3.95.9-7.8 2.65-4.3 1.9-6 3.85-1.3 1.5-1.35.6 0-.85 1.35-2.4 2.55-2.95 9.85-5.5"/><path fill="#0f141b" d="m154.45 130.7 4-.55q.25 0 .6.35l.4.6-4.15 5.1-5.35 6.5q-1.5 2.05-2.4 2.4t.3-1.6l3.5-5.05q3-4.1 4.95-6.4-2.85.5-4.8 1.25-.35.1-.6-.7-.3-.8 0-.9zm-35.8 43.5q-.3-.15 1.65-.6l2.1-.3q6.75 4.8 11.6 12.5 2.6 4.1 6.95 13.7 2.35 5.25 4.15 8.25 2.35 3.95 4.8 6.15-.75 2.6-1.15 2.3-3-2.45-5.6-6.45-2.2-3.35-4.55-8.55-5.45-11.9-7.45-15.15-5.5-8.95-12.5-11.85m57.55 13.25q.85.4.2 1.15-.6.75-1 .55-8.85-3.85-16.65-10-4-3.1-13.55-11.95-.25-.2.65-1.1t1.15-.65q13.45 13.9 29.2 22"/><path fill="#0f141b" d="M153.35 235.15q-6-8.45-4.8-20.35.4-4.35 1.6-6.35 1.25-1.95 2.1.45 2.65 7.3 11.1 16.95 7.15 8.2 12.8 12.15l3 2.55q1.05 1.2-.8.35-6.6-2.9-15.2-12.15-8.75-9.35-12.15-17.4-1.15 4-.5 10.8.85 8.5 4.6 13.1.95 1.15.05 1.2-.9 0-1.8-1.3m-10.65-28.9 1.5 1.65q-2.1 14.15-1.65 15.8.65 2.15-.15 1.5-.8-.6-1.15-2.7-.6-3.85 1.45-16.25m14.95 38.7q-1.55-1.4-1.5-2.2.05-.75 1.6.65 1.3 1.2 4.9 3.25 3.3 1.9 4.85 2.45 1.4.5.9.85l-1.85-.2q-1.9-.65-4.4-1.95-3.1-1.6-4.5-2.85"/><path fill="#0f141b" d="M173.5 186.8q5.7-.5 15.35 1.25.35.1.15 1.45-.15 1.4-.5 1.3l-5.7-1.3-6.5-.65q4.1 7.2 12.05 17.5.5 3.1.15 3.1-.9-.05-8-3.15l-7.7-3.4q3.15 9.35 9.1 19.4l5.3 9.05q.3 2-8.05-3.05l-10.45-6.5q1 4.55 4.15 10.15 3.35 5.9 6.75 8.45 1.15.9.4 1.1-.8.2-2-.75-4.25-3.25-7.75-10-3.45-6.65-3.25-11.1.05-.95 7.5 3.55l9.65 5.95q-4.4-5.8-9.55-16.8-4.85-10.4-4.7-12.6.05-.65 7.3 2.9l9.05 4.35q-2.95-3.9-7.55-10.75-6.3-9.35-5.2-9.45m-34.55 12.7q.35-1.1 1.2.65.85 1.7.45 2.7-3.2 8.8-6.7 11.15-2.1 1.4-14.6 6.95-13.8 6.15-15.35 7.45-7.25 6.25-13.95 13.15-8.3 8.5-8.25 10.7.15 3.5 4.05 10.1 3.65 6.1 5.7 7.35l3.1 1.6q5.75 2.9 8.5 4.55 5.3 3.15 7.3 5.7 3.5 4.4 5.65 10.5 2.55 7.15.2 9.95-2.05 2.35-11.45 7.7-9.1 5.15-12.1 5.9l-1.1-.75q-.75-.8-.4-.9 3-.75 11.9-5.95 9-5.2 10.85-7.35 1.75-2 0-8.15-1.75-5.9-4.85-9.85-1.85-2.35-7.3-5.35l-8.65-4.3-3.15-1.65q-2.6-1.55-6.5-8-4.2-6.85-4.2-10.65.05-4.1 11.35-15.1l11.5-10.3q1.95-1.65 16.55-8.1 9.85-4.45 13.9-7.2 1.85-1.2 3.85-5.8z"/><path fill="#0f141b" d="M124.85 262.75q-1.4-2.15-1.35-3.45t1.45.85q3.05 4.8 6.9 11.65 3.8 6.8 5.8 9.8 3.15 4.65 6.65 7.7l7.75 6.55q4.15 3.6 5.3 5.5 2.15 3.5.15 6.95-1.45 2.5-5.55 5.5-1.55 1.15-4.6 4.45l-5.25 6.25-4.3 5.15-2.7 2.35q-1.7.85-7.6 2.3-6.15 1.5-8.35 1.5-.35 0-.05-1.2t.65-1.2q2 0 8-1.35l7.3-2.05q.8-.4 5.55-6.7 7.05-9.25 9.3-10.9 4.1-3 5.25-5.4 1.15-2.35-.3-4.8-1.9-3.15-11.65-11.6-3.65-3.15-6.9-7.95-2.05-3.05-5.95-10-2.85-5.7-5.5-9.9"/><path fill="#0f141b" d="M148.45 258.75q-12 1.5-22.6 4.65-.35.1-.6-.7t.1-.9q11-3.3 22.3-4.95l18.35-2 12.85-1.3q.35-.05 2.3.8 1.95.9 1.6.95l-15.65 1.75z"/><path fill="#0f141b" d="M174.3 253.8q-2.45-.3-1.7-.8l3.25-.3q4.1.45 13.15 3.8 4.7 1.75 10.95 4.25l1.05 1.5q.75 1.35.45 1.25-4.3-1.2-14.55-5.6-8.55-3.65-12.6-4.1m-89.6-80.15q.1-.35 1.1 0 1 .3.9.65-6.05 19.5-6.7 20.2-2.75 3.1-9.7 7.55l-14.4 8.4q-13 7.25-18.95 11.2-9.9 6.5-13.3 11.45l-1.3.2q-1.1-.1-1-.45 1.15-4.15 11.8-11.4 6.8-4.65 20.6-12.45l14.85-8.3q7.65-4.45 10.1-7.3.65-.85 6-19.75M16 246.45q-.3-.2.3-.9.55-.75.9-.55 9.85 5.55 17.8 6.6.2.95-.6 2.05-8.05-1.4-18.4-7.2m78.45-68.95 1.5-.05q1.35.25 1.25.35-1.2 1.65-3.35 7.8-1.95 5.65-2.8 9.3 0-.15 6.4-2.1l2.5-.35q.5.3-.45 1.95l-6.2 8.75 14.5-.85q2.9.15 3.1.55t-2.4 1.85L90.2 215q2 .25 2.25.65.3.4-1 1.15-11.35 6.55-18.85 14.95-2.9 3.3-8.5 11.7l-2.05 3-1.85 1.75q-5.75 3.5-11.45 4.9l.6-2.9q4.7-1.45 9.45-4.35 1-.55 3.35-4.2 4.2-6.45 8.35-10.8 7.35-7.8 18.1-14.3l-2.6-.5q-.45-.35.8-1.05l19.65-11.05-13.6 1.4-3.45-.1q-.3-.45 1.6-2.6 3.05-3.45 6.3-8.15-6.8 2.5-7.6 2.6-1.05.15 1.4-8.8 2.25-8.4 3.35-10.8"/><path fill="#0f141b" d="M79 183.3q1.15-1.45 1.55-1.3.45.15.35 1.85-.25 7.95-1.3 11l-1.9.1q1.2-3.45 1.65-9.6l-6.35 9.3q-5.7 8.25-7.25 9.75-.2.25-1.6.55l-1.2.05q3.8-4.35 9.25-12.1zM1.7 244.1l12.4.8q9.7 0 11.6-1.2.7-.45 1.05-2.35.4-2.15-.2-4.1-1.1-3.6-5.05-3.4-5.3.25-11.95 4.15-5.45 3.25-7.85 6.1m-.55-1.65q3.35-3.8 8.55-6.8 6.1-3.55 11.45-3.8 2.5-.15 4.4 1.2t2.65 3.7q.5 1.85.3 4.3-.3 3.1-1.85 4.1-1.85 1.15-11 1.35l-13.7-.65Q.2 245.5 0 244.75t1.15-2.3"/><path fill="#0f141b" d="M17.7 246.2q.25-.2 1.1.5.8.65.65.8-3.05 2.75-6.75 9.05-3.2 5.5-3.9 8.05 3.1-.25 10.3-4.05 8.4-4.35 12.7-9.15.25-.2 1.05.4t.55.85q-3.9 4.35-11.55 8.5-6.95 3.75-11.6 4.7l-2.65-.1q-.5-.55.05-2.55 1-3.6 4.3-9.2 3.35-5.65 5.75-7.8"/><path fill="#0f141b" d="M46.2 242.25q-1.4-1.1-3.3-1.55l-2.1-.15q-4.55 4.1-7.65 24.1 3.05-1.55 8.3-6.4 6.2-5.7 6.85-8.85.3-1.55-.05-3.4-.45-2.45-2.05-3.75m-3.9-3.3q2.35.3 4.1 1.35 1.95 1.25 3.05 3.3 1.65 2.9.9 6.55-.65 3.3-6.75 8.8-5.2 4.7-9.35 6.95-2.05 1.1-2.5.9-.55-.25-.4-2.55.3-5.25 2.7-13.6 2.7-9.4 5.2-11.4.8-.6 3.05-.3m53.45 19.4q.25-1.5.7-2.05t.2.95q-.3 1.5.7 5.45.35 1.45-.25 1.4-.65-.05-.9-1.5-.45-2.1-.45-4.25m.9 74.4q-6.45 6.7-6.2 9.1.2 1.85 13.65-2 13.4-3.8 14.55-5.95.2-2.05-.3-4.5-.75-3.7-3.05-5.45-2.65-2-6.65-.4-5.3 2.15-12 9.2m-4.5 11.3q-2.55.1-3.4-1-.9-1.2.4-3.65 2.75-5.15 8.2-10.3 5.2-4.85 10-7.15 2.3-1.1 4.6-1 2.4.15 4.35 1.65 3.4 2.6 4.15 7.8.7 4.7-.9 5.85-3.2 2.3-11.95 4.85-9.1 2.65-15.45 2.95"/><path fill="#0f141b" d="M72.95 333.95q-4.65-1.7 7.7-8.55 11.5-6.4 16.4-7.2 3.45-.55 6.35 1.55 2.35 1.75 3.05 4.05.1.35-.95.8l-1.1.1q-.6-2-2.05-3.35-1.9-1.75-4.55-1.3-4.95.8-14.3 5.75-9.25 4.85-9.7 6.65 1.75.9 9.8 1.2 7.4.25 10.55-.15.35-.05-.1 1l-.85 1.05q-2.75.35-10.25-.2-7.7-.55-10-1.4"/><path fill="#0f141b" d="M80.8 319.8q-9.35 4.35-10.8 6.05.65.5 3.3.8 2.85.3 5.3 0 .35-.05-.05.85-.35.9-.7.9-5.15.3-8.2-.6-1.8-.5-1.95-1.5-.1-1.05 1.65-2.35 4.1-3 11.8-6.55 7.8-3.55 10.6-3.6 2.6-.05 3.95 1.6.85 1.15 1.35 3.65.1.35-.75.5-.8.15-.9-.2-.3-1.4-1.05-2.35-.9-1.15-2.15-1.35-1.9-.3-11.4 4.15m165.1-32.75q10.35 3.95 12.55 7.25 3.75 5.55 6.85 14.8 3.7 11 2.95 18.25-.2 2.2-2.95 11-3.05 9.6-2.75 10.6.1.35-1.25.9-1.35.6-1.45.3-.4-1.1.4-3.9l2.65-8 2.1-6.3q1.15-3.5 1.3-4.75.7-6.85-3-17.4-3.05-8.75-6.65-14.15-2-2.9-12.75-6.8-5.2-1.9-18-5.7l-8.05-2.55q-4.7-2.15-13.25-12.05-6-7-12.35-15.9-1.3-1.8-1.2-2.9t1.4.7q5.65 7.85 13.8 16.55 9.15 9.7 13.5 11.65 1.4.6 7.85 2.5 12.4 3.7 18.3 5.9m-16-16.3q-.5-.8.25-1.25t1.2.4q1 1.7 4.4 5 3.5 3.35 5.1 4.05 2 .85 1.1 1.1-.9.2-2.8-.75-2.5-1.3-5.45-4.05-2.75-2.6-3.8-4.5m23.9 1.9q-.55-1 .05-1.35.6-.4 1.2.6.95 1.9 1.4 3.75.45 1.8 0 2.2t-.9-1.4q-.3-1.5-1.75-3.8m70.85 66q3 7.25 1.75 12-1 3.6-4.3 5.5-.35.15-1-.65t-.35-1q5.75-3.75 1.65-14.85-1.7-4.65-5.5-12.6l-5.85-11.6q-3.35-7.05-13.6-16.65-6-5.6-19-15.9l-10.05-8.15q-4.4-3.8-5.85-6-2.4-3.65-4.1-9.6-1.1-3.7-2.65-11.6l-2.1-9.65q-1.3-5.45-2.9-9.75-2.2-6-13.25-15.95-4-3.7-14.35-11.95-.3-.2-.95-2.4t-.4-1.95l16.65 13.45q12.55 10.9 14.65 16.65 1.6 4.35 3.05 10.25l2.15 10.1q1.7 8.3 2.65 11.8 1.7 6.25 3.95 9.65 2.45 3.7 15.1 13.75 16.6 13.15 18.9 15.2 10.25 9.25 14.2 17.6 2 3.15 5.6 10.9zm-44.7 23.05q.25 1.5-.15 2.25l-5.4-.7q-.35-.1-.05-1.3.3-1.15.65-1.1zm24.85-.4q.25-.25.75.85t.25 1.35q-.9 1.05-7.25 1.2l.2-2.45q5.35-.25 6.05-.95"/><path fill="#0f141b" d="M274.45 355q-.45-4.5-3.1-7-2.6-2.5-5.75-1.1-2.95 1.3-9.1 10.55-6.05 9.05-6.05 11.7l-.05.1q2.75.15 12.35-2.7 9.9-2.95 10.85-4.6 1.2-3.15.85-6.95m-9.5-10q1.95-.85 4.1-.35 2.1.45 3.75 2.05 3.2 3 3.5 8.25.25 4.1-1.1 7.6-.65 1.85-10 5.05-9.2 3.15-14.2 3.35-1.85.1-2.35-.55-.5-.7.1-2.75 1.65-5.25 7.1-13.05 5.65-8.05 9.1-9.6m15.8 15.6q-.95 5.05-.9 12.4.1 7.35 1.1 7.4 1.8 0 9.2-7.35 7.5-7.45 7.6-9.8.2-4.75-2.1-8.7-2.45-4.25-6.05-4.25-3.5 0-6 3.35-2.05 2.85-2.85 6.95m-1.75-.65q.95-4.75 3.45-7.8 2.9-3.55 7.15-3.55 4.3 0 7.45 4.6t2.9 10.5q-.15 2.6-6.45 8.95-5.75 5.75-10.65 9-2.2 1.5-3.05 1.25t-1.35-2.5q-.7-3.45-.5-9.9.2-6.05 1.05-10.55m42.7-1.65q-.15-2.15-1.75-4.8-1.45-2.3-3.35-4-2.35-2-3.65-1.9-2.4.25-4.8 3.25-1.65 2.15-2.4 4.7-.7 2.55-.35 4.75.45 2.7 7.15 9.55 6.75 6.95 8.95 6.65.6-1 .6-7.3zm-4-10.5q2.25 1.95 3.85 4.4 1.8 2.8 2.05 5.3.5 5.05.4 10.55-.05 4.85-.5 8.2-.3 2.55-1.1 2.9-.75.35-2.8-.95-4.4-2.8-9.8-8.6-5.7-6.1-6.2-9-.45-2.6.35-5.45.85-2.9 2.7-5.3 3.25-4.15 6.2-4.35 1.95-.15 4.85 2.3m-126-188.45q.3.25-.25.9-.6.65-.85.4-2.7-2.6-19.7-10.15-15.9-7.15-20.55-8.4-.2-.1.55-1.1.7-1 .9-.9l18 7.9q18.05 8.15 21.9 11.35m-14.25-21.2q11.5 4.25 16.3 4.6.35.05.05 1.3t-.65 1.15q-5.95-1.4-15.95-5.2-14.85-5.6-23.65-11.55-.3-.2.35-1.15.7-1 .95-.8 8.2 6.4 22.6 11.65"/><path fill="#0f141b" d="M192.3 157.15q1.6-1.8 2.45-1.8t-.8 1.75q-3.65 4-4.45 30.2-.8 24.2 1 33.05.65 3.35 3.1 5.65 1.9 1.85 7.25 4.8l.1 1.05q-.05.9-.35.75-6.7-3.7-8.15-4.85-3.25-2.6-4.05-6.5-1.8-8.8-1.2-32.5.7-26.7 5.1-31.6m18.5-31.5q-.15 6.25-.8 11.85 4.85-5.9 10.4-10.35 5.5-4.45 4.65-1.8l-3.35 10.1q-3.05 9.1-3.6 11.4l4.2-3.95q3.6-3.15 3.45-1.55-.25 2.85-3.9 12.8l-3.7 9.65q-.95 5.45 1.5 16.9l5.05 20 3.65 15.15q.9 5.3-.75 7.65l-1.05-.6q-.95-.9-.8-1.05 1.45-1.5-3.55-21.05-3.9-15.35-5.25-24.3-1.25-8.5-.45-12.95l6.35-18.65-4.2 3.9q-3.75 3.3-3.55 1.9.35-2.6 3.05-10.9l4.3-12.25q-2.7 1.9-9.15 9.25-5.2 5.9-5.3 4.9-.05-.6.65-8.7.7-8.05.55-10.05-3.1 5-6.7 15.75-2.6 7.7-3.15 6.25-.5-1.35-1.45-4.9l-1.55-4.85q-1.6 4.5-2.4 10.4-.25 1.8-.8 1.5-.6-.25-.55-2.1.1-3.15 1.55-8.45 1.55-5.55 2.35-4.55.9 1.05 1.85 3.5.9 2.35 1.5 5.05 1.75-5.55 5-12.45 3.35-7.2 5.1-8.85 1-.95.85 6.4m5.65 105.15q.35-.1.75.75.45.85.1.95l-3.1.85q-.35 0-.35-.85-.05-.8.3-.85z"/><path fill="#0f141b" d="M213.65 240.25q.2-6.75-.5-8.75-.8-2.4-4.8-4.6-3.9-2.15-5.45-1.2-1.45.85-1.6 4-.1 2.65.6 5.05.8 2.65 4.95 8.6 3.95 5.55 6 7.35.65-4.35.8-10.45m-4.9-15.1q4.9 2.5 6 5.8.85 2.5.6 12.2-.25 10.2-2 9.8-1.85-.45-7.3-7.9-5.35-7.2-6.15-9.95-1-3.4-.75-6.3.35-3.55 2.5-4.85 2.25-1.3 7.1 1.2"/><path fill="#0f141b" d="m190.2 224 .9.15.65.55q-1.4 3.25 1.6 12.9 2.9 9.35 5.5 11.35.45-.95 1-4.7l.8-8.6.85-.1q.85.25.8.6-.5 7.45-1.2 10.95-.95 4.55-2.45 3.65-3.65-2.2-7.15-12.6-3.55-10.65-1.3-14.15m136.65-20.5q.35.65-1.35 2.5-3.85 4.3-9.65 8.2-6.15 4.05-11.95 5.9l9.95.4 8.75-.5q.35-.05-.2.95l-.95 1.05q-4.15.4-9.45.2l-8.4-.9q-2.15-.4-2.05-1.1.05-.6 2.1-1.55 5.25-2.3 9-4.55 6.7-4 12.25-9.6-14 1.3-25.9-1.5-12.45-2.9-20.2-9.8-1.55-1.4-1.25-1.9.3-.45 2.55-.55l16.4-.2q13.35-.45 24.5-2.05-6.6-3.65-11.2-7.65-4.5-3.9-6.5-7.5-1.45-2.65-1.15-3.15.25-.5 2.7.6l8.45 3.85q6.15 2.7 10.8 4.2-5.1-5.5-8.2-10.95-3.65-6.3-5.5-13.9 2.4.45 2.5.9 1.75 7.55 6.7 15.3 3.65 5.7 8.5 10.75 1.75 1.8-7.45-1.45-9.45-3.3-15.95-7.05 3.15 4.3 9.7 9.4l8.8 6.2q1 .65.9.95-.1.35-1.7.8-5.6 1.75-19.55 2.6-13.6.8-22.35.05 6.45 5.65 18.35 8.55 11.85 2.9 25.1 2.05 2.6-.15 2.9.45m-110.6 28.25q-1.3-3.65-.9-6.65.45-3.4 3-5.1 2.1-1.35 5-.3 2.8 1.05 4.25 3.4 1.2 1.95 3.55 12.65 2.35 10.75 1.45 10.5-3.5-.95-9.25-5.9-5.9-5.15-7.1-8.6m6.1-10.15q-1.85-.4-3.1.4-2.25 1.5-2.25 4.8 0 2.15.85 4.4 1 2.85 6.05 7.5 4.3 3.9 7 5.45-.25-3-2.1-10.9-1.9-8.05-2.65-9.25-.5-.8-1.55-1.45-1.05-.7-2.25-.95"/></svg>