<svg xmlns="http://www.w3.org/2000/svg" width="223" height="193" viewBox="-1 -0.65 222.8 192.75"><path fill="#fff" d="m199.85 171.65-3.35-.15q6.5-3.7 9.4-10.45l1.35-4.25.25-1.75q-7.7-9.3-39.05-7.65-7.95.4-14.45-1.8-3.1-1-6.4-3l-9.55-9.4-.75-17.35 10.3-10.3q27.15-.05 46.65 10.7 14.1 7.8 21.65 19.45 5.7 8.7 3.8 19-1.95 10.4-10.2 14.2-5.25 2.4-9.65 2.75"/><path fill="#fff" d="M162.65 179.35q-6.7 3.2-16.3 2.35-7.6-.7-16.45-3.85l-7.3-2.95 1.35-25.1 14.1-9.7 25.75 7.55q5 3.35 7.3 7.8 2.95 5.75 1 12.65-2.2 7.7-9.45 11.25m-82-33.2 9.3 27.5-12.65.9q-14.4 1.9-23.05 7-.15-1.35.45-3.15 1.25-3.55 5.1-5.75-4.35.15-9.3-1.05-10-2.35-13.2-9-3.2-6.7-2.4-12.8l1.5-4.8q3.95 4.85 9.55 6.9 10.05 3.6 22-3.65zm57.9-39.55 2.8-17.4 25.35-12.55q-2.6 6.45-6.7 13.75-8.15 14.6-15.7 18.75zM35.7 92l-1.45-3.45 26.5 8.4 5.85 18.85q-16-3.55-25.75-15.75-3.05-3.8-5.15-8.05"/><path fill="#c9c9c4" d="M181.2 44.25q-1.95 12.95-7.35 22.55-9.45 16.9-28.3 22.8l-.9 6.1q-1.7 6.95-5.8 11.3-3.55-1.4-8.65-1.7-10.15-.55-17.75 5.25-6.35 4.85-11.55 10.2-3.5 3.6-5.15 4.1l-11.05-.45q-12.15-1.8-17.55-8.3-4.7-5.6-6.2-11.2l-.6-4.45q-16.2-.65-26.9-13Q24.3 76.9 20.2 59.25 16.9 45 18.85 35.6q1.45-7.15 5.15-9.55l1.15-.7q1.55-.8 3.6-1.2 6.6-1.2 15.7 2 10.85 3.9 19.3 11.6 8.4 7.6 12.4 17.15l2.2 8.1q3.1 8.9 7.45 13 .85-4.65 3.45-9.95 5.2-10.6 13.95-14-1.3 1.35-2.6 3.3-2.55 3.95-2.3 7.15l3.05-3.2q3.7-3.4 6.9-4.3.75-6 4-13.65Q118.7 26.1 131.1 18q14.35-9.3 25.95-10.85 10.75-1.45 18 3.8 10.1 7.3 6.15 33.3m-59.55 93.6q2.05-2.25 8.9-3.85 6.3-1.45 8.15-.9 1.4.45 4.7 4.3 3 3.45 5 6.55 1.95 3.1 2.45 5.9.55 3.25-1.15 4.7-1.85 1.5-6.2.3-4.45-1.2-9.25-4.6-4.6-3.25-8.25-6.9-3.3-3.35-4.35-5.5"/><path fill="#c9c9c4" d="m122.8 137.05 9.1 10.95 1.3 3.65q1.05 4.7-.25 10.2-1.3 5.55-5.45 9.6-2.1 2.05-3.9 3 2.8 2.3 4.65 5.15 1.8 2.7 2.05 4.8.35 2.95-1.75 4.95-2.8 2.6-8.2.5-5.1-1.95-8.6-6.75l-2.5-4.35-4.15.1-2.75-.2q-2.55 6.25-6.95 9.3-4.4 3.1-9.3 2.05-4.4-.95-5.25-3.5-.5-1.55.35-5.55.55-2.6 3.7-5l3.05-1.85q-.7-.15-1.85-1.2-2.3-2-4.45-6.15-2.8-5.4-1.6-11.3l1.75-4.85 6.55.3q7.8.05 13.9-1.35 6.15-1.4 13.95-7.1 3.9-2.85 6.6-5.4"/><path fill="#fff" d="M154.4 7.65q-2.65.25-7.5 2.15-9.7 3.75-20.65 11.95-9.85 7.4-14.65 21.1-2.4 6.9-2.85 12.25-2.9.65-6.95 4.1l-3.5 3.3q.4-4.2 2.75-7.6 1.15-1.7 2.25-2.6-8.5 3.35-13.85 13.85Q86.8 71.4 85.8 76q-4.95-3.8-7.95-13.65l-2-9.15q-9.45-16.95-24.8-24.55-4.7-2.35-9.55-3.55l-3.9-.85q2.35-4.3 8.4-7.6Q54.15 12.2 64.7 13q9.95.75 18.9 9.25 4.5 4.25 7 8.35 4.4-10.9 14.25-18.7 9.25-7.3 20.6-9.9 9.55-2.2 17.75.15 5 1.45 11.2 5.5m11.6 126.5q1.1.85 1.7.85-4.65 3.75-13 2.35l-13.95-3.65-11.95.35-5.55 2q-7.4 6.75-12.35 9.55-7.5 4.15-18.05 5.45-9.75 1.2-18-3.1-2.6-1.3-4.75-3.05l-1.6-1.45q-6.05 3.45-14.55 3.2l-19.1-2.3q-9.45-1.3-16.3.7-3.4.95-4.95 2.2-3.75 3-5.1 13.1-.65 5.05-.6 9.5-5.6-4.05-6.8-12.1-1.15-7.65 2.15-15.9 3.35-8.5 9.05-13.8 6.45-6 17.15-9.2 10.3-3.1 19.45-3.75 6.7-.5 17.15.25 7.65 7.1 19.8 9l10.6.5q12.2-11.6 17.05-14.7 9.6-6.05 20.4-4.7 10.55 1.35 18.6 9.85 4.1 4.35 9.1 13.15 2.25 4.05 4.4 5.7"/><path fill="#c9c9c4" d="M70.3 141.45q1.75-3.35 4.9-4.25 2.6-.8 4.45.25 5.35 2.9 2.7 11.1-1.05 3.1-3.3 5.2-3.2 3.05-7 1.5-4-1.65-4.05-5.95-.05-3.4 2.3-7.85"/><path fill="#f09cb4" d="M146.05 39.5q4.5-.95 7.35 4.15 3.15 5.6.65 14.1-3.7 12.45-13.85 17.35-1.7.8-3.1.9l-1-.05 5.2-5.5q4.9-5.85 3.1-7.45-2.45-2.2-8.25.3l-5.3 2.95q3.9-5.15 4.9-11.9l.25-5.75q2.15-3.55 6.3-6.7zM44.2 51.65q2.25.6 10.25 5.7-2.2 4.95-.15 10.9 1 3 2.45 5-2.25-1.25-5.5-2.15l-4 .15q-1.35 1.15.35 4.9 1.6 3.45 6.2 5.75 2.3 1.2 4.25 1.65l-2.75.3-1.2.4q-4.75-1.6-7.55-4.75-3.15-3.55-5.05-10.2-1.8-6.4-.85-10.8.75-3.4 3.55-6.85"/><path fill="#923000" d="m88.85 113.85 6.45-1.05q-1.25.7-2.4 2.9l-.95 2-2.05-2.3z"/><path fill="#ed8599" d="M94.85 112.65q2.1-1.25 4.15-2.55.15 2.9-.95 6.25t-2.45 3.7q-1.1.3-2.65-.85l-1.3-1.15q-.05-1.2 1.6-3.4z"/><path fill="#9e9e9a" d="M79.75 160.65q2 2.75 8.2 5.6 8.5 3.9 18 3.45t18.8-5.6q6.75-3.75 9-6.8l-1 5.4q-1.85 6.1-6.15 9.7-4.95 4.15-12.6 5.75-7.1 1.45-14.6.3-7.05-1.1-11.95-4.6-4.8-3.4-6.3-8.3l-1.45-4.85z"/><path fill="#9e9e9a" d="M87.8 174.15q3.3 2.2 9.1 3.55l5.2.95q-2.05 6-6.75 9.4-4.15 3-7.95 2.5-3.55-.45-5.4-2.5-2-2.2-1.35-5.35.6-2.95 3.4-5.9 2.5-2.65 3.75-2.65m21.55 4.7q.7-.95 7.6-2.7l6.75-1.6q1.9 1.1 4 4.4 2.05 3.15 2.45 5.55.6 3-1.7 4.9-2.9 2.3-8.6.05-5.35-2.1-8.45-6.55zM67.9 149.6l.45-3.6q.3 2.35 3.95 4.5 4.45 2.6 9.05.05l-1.85 2.9q-2.7 2.75-7.15 1.95-4.1-1.85-4.45-5.8m56.5-13.5q3.2 4.45 9.35 9.75 9.45 8.25 16.35 8.25-.45.95-2.15 1.3-3.3.7-9.2-2.45-6.05-3.2-11.85-9.05-4.6-4.6-4.9-5.9z"/><path fill="#d0879d" d="M151.6 40.95q2.5 1.8 3.1 7.6-2.15 3.5-6.2 7.1-3.7 3.3-8.15 5.95l-3.95 1.2q-1.8.7-4.45 2.5l3.7-9.1q1.3-4.55 0-7.7l-.05-.05q3.1-3.95 9.55-8.45 3.75-.75 6.45.95"/><path fill="#9e9e9a" d="M152.15 35.85q4.1-1.65 5.3 1.7 1.3 3.55-2.25 10.05l-.5.95q-.6-5.8-3.1-7.6-2.7-1.7-6.45-.95 4.5-3.15 7-4.15"/><path fill="#d0879d" d="M54.35 57.3q-2.25 4.45-.1 10.75 1.05 3.15 2.55 5.4-2.45-1.9-5.75-2.45l-2.85-.2q-3.9-1.25-7.3-4.4-1.25-9.2 3.35-14.6 3 .95 10.1 5.5"/><path fill="#9e9e9a" d="M36.3 60.15q-1.65-3.5-.95-6.25.95-3.6 3.8-3.5l4.9 1.35.2.05q-4.6 5.4-3.35 14.6-3.05-2.9-4.6-6.25"/><path fill="#ce7486" d="m92.7 115.7.65-1.4q.8-1.5 1.7-1.7 1.5-.3 4-2.45.2 3.25-.95 6-1.8-.9-3.8-.75z"/><path fill="#9e9e9a" d="M25.4 74.65q2.5 5.1 10.55 12 11.65 10 23.85 10.7l.6 3.25q-2.7.3-7-.85-8.6-2.25-16.65-9.2-6.15-5.7-9.35-11.35zM180 51.45q-.55 3.1-1.75 6.4-3.75 10.5-12.05 19.3-9.7 9.75-21.65 13-3.75 1-7.3 1.25l-2.75.05q17.2-2.8 32.55-20.85 5.35-6.35 9.4-13.3 3.35-5.75 3.9-8.25z"/><path fill="#dbdcdc" d="M85.6 76.1q-6.35-7.9-6.55-10.1l2.65 2.85q3.25 2.6 6.1 1.3l-1 2.5q-1.05 2.65-1.2 3.45m79 60.9q-4.75 1.7-12.1 0-10.2-3.1-14.6-3.7-7-.95-14.6 3.25 1.75-2.05 4.45-4.45 5.4-4.75 10.35-6.35 3.35-1 9.9 1.4 2.85 1.05 9.5 5.6 6.3 3.65 10.4 2.2-.9 1.2-3.3 2.05m-85.25-14q8.15 2.35 17.2 1.7-3.25 2.65-7.2 4.2-7 .45-13.25-3.1l-4.9-3.65 1.85-1.65zM69 144.1q-1.4-1.95-2.75-4.85l-.65-1.65 1.05 1.25q1.35 1.35 3.6 2.7z"/><path fill="#dbdcdc" d="m122.35 134.35 12.15-7.55q-6.95 5.75-11.2 9.75-5.05 4.7-10.6 8.1-8.55 5.25-16.75 6.4l-14.6-.5 1.45-4.45q8.2 1.45 16.05-.8 10.75-3 23.5-10.95m48.2 13-11.45-.5q-7.75-1.05-11.25-4.3l-3.2-4.05q-3.55-4.2-5.4-5l3.05.5q4.25.85 10.2 2.75l6.35 2.05q4.45 1.3 10.1 2.15l9.3 1.2q7.05 1 12.25 2.35 15.55 4 18.6 12.05-.7-1.5-2.85-3.25-4.25-3.45-11.55-4.5l-14.3-1.4q-3.5-.15-9.85-.05"/><path fill="#dbdcdc" d="M199.45 171.5h-3.3q5.1-2.2 8.7-9.4 1.8-3.55 2.6-6.7l1.4 2.1q1.35 2.55 1.05 4.85t-1.9 5.1l-1.55 2.35q-3.05 1.45-7 1.7M8.7 160.8q-.7 4.75-.85 8.95-4.25-9.1.25-16.6 1.35-2.35 3.3-4.05 3.4-3 1.3-.9-2.6 3-4 12.6"/><path fill="#dbdcdc" d="m50.7 146.1-13.3-1.5-8.25-.75q-4.1-.4-9.8.95T12 147.9q2-2.8 6.95-5.05 6.7-3.05 14.65-2.35l17.15 1.25q7.85-.05 15.15-3.1l.6 1.75q.9 2 2.35 3.05-1.45 1.05-4.45 1.9-6 1.7-13.7.75m3.8 35.15q1.4-2.15 5.75-4.55 8.7-4.85 23.3-6.25l3.3 3-6.35.55q-7.7.9-14.55 2.9-6.85 1.95-9.85 3.35zm-18.6-21.6q-.7-1.95-.8-3.9l.05-1.55.7 2.75q1.15 3.3 3.5 6 7.5 8.6 24.25 7.95l-3.8 1.55q-8.3.7-14.7-2.75-7.05-3.8-9.2-10.05m136.65 1.85q.6 4.8-2 10.05-3.75 7.7-12.8 9.75-8.8 1.95-20.7-.9l-10.2-3.3q-.15-.3-1.8-1.45l-1.6-1.15q1.85-.4 4.3-2.95l2.05-2.5q23.25 9.85 34.8 3.1 5.25-3.05 7.95-10.65M36.75 90.55q1.5 1.8 3.2 2.9l1.7.95 5.65 5.4q7.1 5.6 14.3 6.5l.85 3.2q1.45 3.65 4.45 5.85-2.8-.1-7.1-1.65-8.6-3.15-16.15-10.6-4.55-5-7.1-9.65l-1.65-3.7zm128.15-12-1.25 4.8q-1.85 5.7-5 10.5-3.1 4.8-9.15 10.5l-5.4 4.8-5.15-2.5q1.05-.55 4.05-5.85 3.8-1.8 8.25-8.35 2.25-3.3 3.7-6.25 3.65-1.9 7.15-4.95z"/><path fill="#4e5144" d="M112.5 82.75q4.45-1.05 7.5 8.1 2.9 8.55 1.4 11.8-.75 1.7-4.65 2.7l-5.6-.15q-2.6-1.65-2.9-10.25-.15-4.75 1-8.15 1.15-3.55 3.25-4.05M67.55 91.5q1.1-3.1 3.25-2.95 1.55.1 3.05 2.4 1.65 2.5 2.7 6.85.85 3.6 1.1 6.75.25 3.35-.35 4.45-.75 1.45-3.75 1.6-2.85.15-3.85-.75-1.3-1.2-2.25-4.25-1-3.15-.95-6.45.05-4.85 1.05-7.65"/><path fill="#fff" d="M113.65 84.55q1.1-.2 2.15 1.05 1 1.2 1.4 3.15.45 2.2-.05 3.7-.45 1.4-1.45 1.55-1.05.2-2-.6-1.15-1-1.55-3-1.05-5.4 1.5-5.85m-42.2 5.9q1.85-.3 2.95 4.35.45 2.2 0 3.7-.4 1.3-1.15 1.45-.85.15-1.65-.75-.9-1.05-1.3-3.2-.4-2.4-.05-3.95.3-1.5 1.2-1.6"/><path fill="#0f141b" d="M92.75 118.1q1.55 1.6 2.4 1.45 1.15-.15 2.2-2.7 1.1-2.6 1.2-5.6-4.45 3.4-8.7 2.95 1.45 2.4 2.9 3.9m5.8-8.3q.55-.6.85-.3l.2.7q.2 3.8-1.15 7-1.35 3.15-3.25 3.4-2.6.4-6.65-6.5-1.85-.3-3.1-1.55-.45-.45-.25-.7t.75.15q2.35 1.65 6.25.95 3.85-.7 6.35-3.15"/><path fill="#0f141b" d="m94.75 112.75.75-.1q.5.05.25.2-1 .75-2 2.2-1.05 1.45-1.4 2.75l-.35.15-.3-.4q0-1.4.8-2.7.85-1.35 2.25-2.1m-6.6-4.45q1.25-.1 1.3.6l-.4.5-.8.25q-1.25.1-1.35-.6-.05-.65 1.25-.75m14.95-56.8.9.05q.2.4-.3.85-1.8 1.7-3.1 4.05-1.25 2.35-1.65 4.85 1.95-2.7 4.35-4.4 1.95-1.45 5.05-2.75.25-.1.5.45.3.6.05.7-5.8 2.65-10.1 7.65l-.85.55q-.35-.1-.3-1 .3-4.75 2.9-8.15-5.05 3.7-8.85 9.4-3.85 5.85-5.4 12.35-.25 1.15-1.05.25Q74 64.3 75.5 48.7q.1-.8.5-.8t.4.8v1q0 6.55 2.55 13.6 2.5 7.05 6.55 11.75 1.8-8.7 6.7-14.9 4.4-5.65 10.9-8.65"/><path fill="#0f141b" d="M176.25 10.8q5.35 5.1 6.45 15 1.6 14.45-1.95 27.3-3.55 13.05-11.9 22.65-14.3 16.45-33.8 16.65-1.45.05-1.5-.6-.1-.6 1.35-.7 8.95-.45 17.1-4.55 8.15-4.15 14.45-11.4 8.2-9.5 11.9-22.3 3.65-12.8 2.35-27.3-.85-9.35-5.5-13.7t-13.55-4.1q-9.1.3-19.15 4.8-10.1 4.5-17.45 11.55-9.65 9.2-13.3 19.95-2.1 6.1-2.65 15.9l-.1 1.4q-.05 1.2-.5 1.25-.45.1-.55-.85-.15-.7-.15-1.85-.05-8.95 2.35-16.4 3.8-11.85 13.65-21.3 7.4-7.1 17.95-11.55Q152.05 6.3 161.5 6q9.3-.3 14.75 4.8M29.95 24.75q-4.3.2-6.9 3.05-4.55 5.1-3.75 17.25 1.55 25.6 14.3 40.9Q45.15 99.8 60.3 99.7l.25.65-.25.65q-15.95.1-28.05-13.55Q18.65 72 17.4 45.65q-.35-6.3.95-11.4 1.2-4.85 3.6-7.55 3.05-3.35 8.25-3.6 14.25-.5 27.75 8.7 12.9 8.8 18.55 21.7l-.5.55-.65.05q-5.65-11.65-18.6-20.55-13.9-9.55-26.8-8.8"/><path fill="#0f141b" d="M61.9 57.45q3.35 3.75 4.85 10.85.1.25-.4.55-.5.25-.6 0-1.85-6.3-4.8-10.1-2.65-3.35-4.35-2.9-1.3.4-2.15 3.25-.95 3.35-.05 7.4 1.1 4.75 4.55 8.6.55.65.2.9-.4.3-1-.35-3.9-4.1-5-8.95-.85-3.9.25-7.65 1.05-3.55 3-4.1 2.6-.75 5.5 2.5"/><path fill="#0f141b" d="m47.8 70.35 4.5.3q2.75.8 4.6 2.4l.3.8q.1.65-.1.45-1.25-1.1-4.3-2.2-3.4-1.2-4.8-.7-1.1.35-1.05 1.55 0 1.35 1.35 3.3 1.65 2.35 4.55 4.25 2.8 1.85 5.55 2.6.65.15.65.5-.05.3-.7.35l-2.75.45q-1.95.5-2.6 1.2-1.1 1.3 1.45 2.95 2.45 1.6 5.45 1.45l.25.4-.25.45q-3.6.15-6.2-1.45-1.7-1.05-2.1-2.3-.45-1.3.6-2.35 1-.9 3.85-1.4-2.65-.9-5.05-2.65-2.35-1.7-3.75-3.7-1.65-2.45-1.5-4.35.15-1.85 2.05-2.3m80.75-23.5q2.85-1.35 5.2-.6 1.9.6 2.65 2.65 1.1 2.8-.1 7.35-1.25 4.75-4.6 10.05-.15.2-.55 0-.4-.25-.25-.5 3-5.2 4.15-9.65 1.2-4.5.2-7-.55-1.45-1.85-1.85-1.85-.6-4.4.85-2.85 1.6-5.2 5.2-2.5 3.8-3.55 8.6-.6 2.75-.9 7.2-.05.85-.5.85-.4-.05-.45-.95-.5-9.75 4.15-16.75 2.55-3.9 6-5.45"/><path fill="#0f141b" d="M144.65 62.4q1.2 1.4-.15 4.55-1.6 3.6-4.7 6.55-3.55 3.35-7.8 4.35-.7.2-.9-.2-.15-.4.55-.6 3.45-.95 7-4.2 3.35-3.1 4.75-6.35 1.15-2.6.55-3.35-1.15-1.3-5.5-.1-3.6.95-7.55 4.25-3 2.55-4.55 4.85-.5.7-.85.45t.1-1q1.6-2.8 4.55-5.45 3.75-3.35 7.65-4.45 5.1-1.3 6.85.7"/><path fill="#0f141b" d="m133.6 77.05 2.3-1.2q7.75-.1 8.25 2.5.1 1-.65 1.85-1.45 1.6-4.6 2.45l-7.65.3q-.8-.1-.8-.5 0-.35.75-.3 3.45.3 7.1-.7 3.4-.95 4.6-2.25l.35-.7q-.1-.45-1.55-.75zM153.55 35l1.15-.05q.2.25-.65.7-6.25 3.35-9.25 5.4-5.15 3.65-8.45 8.1-.15.25-.75-.3t-.45-.8q6.8-9.25 18.4-13.05"/><path fill="#0f141b" d="M145.7 39.5q6.25-1.45 8.3 3.6 1.95 5 1.55 10.95-.4 6.2-3.35 11.4-2.55 4.5-6.7 7.5-4 2.9-8.35 3.6-.25.05-.35-.6-.1-.6.15-.65 3.95-.65 7.45-3.35 3.45-2.75 5.9-7.05 2.9-5.1 3.5-10.85.65-5.75-1.2-10.35-1.8-4.45-6.65-3.35-.25.05-.4-.4-.1-.4.15-.45M35.95 50.4q-.8 0-.75-.4 0-.4.8-.5 2.75-.25 6.4.75Q48.65 52 54.8 57q.2.15-.15.8-.4.7-.6.5-5.95-4.85-12.25-6.8-3.45-1.1-5.85-1.1"/><path fill="#0f141b" d="M43.8 51.5q.2-.15.5.2.35.3.15.5-2.6 2.8-3.05 8.2-.4 5.3 1.5 11 1.7 5.1 4.95 8.45 3.15 3.25 6.9 3.9.25.05-.05.5l-.55.45q-4.15-.7-7.5-3.9-3.55-3.4-5.35-8.7-2-5.95-1.3-11.75.7-5.75 3.8-8.85m15.6 34.2q1.35-8.65 5.2-16.2 4.35-8.6 11.5-14.25l.25 1.65q-5.95 5.25-9.9 13-3.75 7.4-5.05 15.8t.05 16.4q1.95 11.65 11.2 17.25 9.3 5.6 24.65 4.35l-1.5 1.65q-15.35.85-24.8-5.05-9.55-6-11.55-17.85-1.4-8.15-.05-16.75m85.4 4.3 2.05-.5q-.3 8.2-5.4 15.4l-1.85 2.3-1.75-.7 1.8-2.35q4.7-6.65 5.15-14.15m-65.05 48.1q-2.15-1.1-4.35-.35-3.25 1.05-5.45 6.05-1.95 4.4-.9 7.4.75 2.15 2.8 3.3.85.45 2.05.55l2.6-.35q2.85-1 4.45-4.8 1.45-3.6 1.45-6.35 0-4-2.65-5.45m-4.85-1.4q2.8-.95 5.4.45 2.45 1.35 3.25 4.45 1 3.8-1.1 8.85-1.65 4-5.2 5.25l-3.25.4q-1.55-.15-2.65-.7-2.4-1.2-3.5-3.55-1.65-3.6.6-8.7 2.2-4.95 6.45-6.45"/><path fill="#0f141b" d="M77.65 136.7q.2-.2.6.2t.2.6q-1.3 1.35-2.7 3.7-.4.6-.7.5t-.1-.8q.3-1.05 1.2-2.35.75-1.2 1.5-1.85m2.25 6.55q-.35.65-.7.45-.3-.2-.05-.9.75-2.25 1.95-3.9l.7.15q.55.4.4.6zm58.95-9.15q-.2-.15.15-.65.4-.55.6-.4 5.5 3.95 8.6 9.1 2.65 4.35 3 8.4.55 6.4-6.15 5.35-5.5-.9-12.1-5.45-7.3-5.05-11.85-12.05-.15-.2.35-.6t.65-.2q4.95 6.45 12.45 11.65 7.5 5.25 12.1 5.5 1.8.1 2.75-.9 1-1.05.8-3.1-.3-3.5-3.15-7.95-3.2-5-8.2-8.7"/><path fill="#0f141b" d="M143.75 150.75q-.4-.7-.15-.95.25-.3.75.3l1.75 2.5q1.15 1.85 1.15 2.5l-.7.25q-.75 0-.75-.25zm3.35-3.25q.2-.3.85.35l1.6 2.15q1.05 1.65 1.35 2.85l-.5.8q-.55.5-.65.2-.4-1.55-2.4-5.35-.45-.75-.25-1m-59.2 25.9.55.4.05.55q-2.6 1.2-4.45 3.55-2.6 3.05-2.7 6.2-.15 2.95 1.9 4.35 3 2.1 7.65.8 4.95-1.4 8.3-6 1.6-2.2 2.5-4.75l.7-.05q.6.2.5.45-.85 2.6-2.25 4.65-3.4 5.35-9 7-5.25 1.55-9.1-1-2.65-1.7-2.6-5.55.05-3.8 2.8-6.95 2.2-2.5 5.15-3.65m32.75 17.25q-4.65-1.45-7.95-5.1-2.1-2.3-4.05-6.45-.1-.25.4-.4l.65.05q1.75 3.8 4.5 6.3 3.4 3.15 7.25 4.4t6.05-.1q1.75-1.05 1.85-3.6.05-2.8-2.05-6.2-1.5-2.5-3.9-4.35-.2-.15.2-.65l.6-.35q2.65 2 4.4 4.7 2.15 3.25 2 6.65-.2 3.35-2.55 4.8-2.85 1.7-7.4.3"/><path fill="#0f141b" d="M121.35 185.3q-.55-.4-.35-.7l.8.05q1.45.75 2.45 2.45.9 1.55 1.15 3.25.05.3-.65.4-.65.05-.7-.2-.2-1.45-.95-2.9-.75-1.55-1.75-2.35m4.75-2.4q-.6-.5-.35-.75l.95.15q1.3.75 2.1 2.2.85 1.5.95 3.45l-.65.6-.65.1q-.25-3.85-2.35-5.75m-36.7 1.65.85-.1q.2.25-.35.75-1.3 1.05-2.1 2.4-.8 1.4-.8 2.6l-.65.25-.65-.25q0-1.5 1.05-3.05 1-1.55 2.65-2.6m-4.7-2.2.95-.05q.2.3-.45.7-1 .65-2.1 2.15-1.1 1.6-1.05 2.5.05.25-.5.1l-.6-.45q-.05-1.4 1.3-2.95 1.1-1.35 2.45-2m-5.8-23q-.25-4.1 2.05-9.45.1-.25.7 0 .55.25.45.5-1.85 4.3-1.55 8.65.55 9 6.95 13.9 6.35 4.9 17.7 5.05l6.85-.15 1.65.25q.2.35-1.4.75l-7.15.7q-11.75-.2-18.65-5.45-6.95-5.35-7.6-14.75m51.75-11.25q-.15-.2.35-.6t.65-.2q1.6 2.1 2.35 5.5.95 4.25.05 8.85-1 4.8-3.9 8.4t-7.45 5.6q-1.8.8-2.25.35-.4-.45 1.35-1.4 8.6-5.1 10.35-13.7.9-4.35.3-8.05-.5-3.05-1.8-4.75"/><path fill="#0f141b" d="M122.85 135.85q6.8-6.55 10.95-8.95 2.15-1.25 5-1.85 1.1-.2 1.2.2.15.4-.9.65-2.4.65-4.6 2-4.15 2.65-10.7 9-10.45 10.3-22.45 13.85-10.2 3-20.25.85l.8-1.7q9.35 2 19.65-1.15 11.6-3.6 21.3-12.9m-49.45-15.6q.35.45.1.55-4.05 2.6-6.1 6.25t-1.75 7.7q.3 4.75 3.8 8.55l-.75 1.75q-4.15-4.65-4.6-10.2-.35-4.35 2.05-8.25 2.25-3.75 6.7-6.6.2-.15.55.25"/><path fill="#0f141b" d="M164.25 131.45q1.7 2.4 3.25 2.85.9.25.35 1-2.4 3.15-8.4 3.2t-14.75-3q-10.7-3.7-21.1 1.4l.25-1.35q4.3-2.15 7.75-2.85 6.65-1.3 13.7 1.15 7.85 2.75 13.55 3.05 5.85.35 8.2-1.9-2.15-.6-3.95-2.9-1-1.25-3.15-5l-4.1-6.55q-4.25-6-10.15-9.65-5.6-3.5-12.15-4.4-12.35-1.75-22.45 6.3l-4.95 4.6-7.45 6.6q-4.65 3.65-8.8 5.1-1 .35-1.2 0-.15-.3.8-.75 3.8-1.7 8.35-5.6l7.15-6.85 5.1-4.7q5.25-4.15 11.45-5.8 6-1.65 12.3-.75 6.85 1 12.65 4.6 6.1 3.75 10.45 10 1.7 2.4 4.1 6.85zm-8.7-124L153.8 8Q143.75.5 129.7 2.3q-9.55 1.25-17.7 5.95-8 4.6-13.95 12.15t-9.4 17.75q-3.4 10.15-4.05 22.1-.05 1.3-.6 1.25-.5 0-.45-1.3.65-26.15 13.05-41.9Q108.55 3.05 129 .35q7.65-1 14.5.75 7.05 1.85 12.05 6.35"/><path fill="#0f141b" d="M168.25 74.7Q164.8 85.9 159.6 94q-6.1 9.45-15.05 15.5l-.6-.35q-.4-.5-.2-.65Q157.9 97.75 165 78.15zm-77-43.85-.45.6-.7.1Q86.55 24.9 79.2 19.9t-15.15-5.95q-7.9-1-14.6 1.75-6.6 2.75-11.4 8.9l-1.75-.45q5.05-6.9 12.25-10.15 7.35-3.3 15.85-2.25 8.2 1.05 15.7 6.4 7.4 5.3 11.15 12.7m-59.9 54.3 3.8 4.05 2.5 4.5q5.6 9.2 13.25 14.7 7.65 5.55 15.95 6.45.25.05.2.65-.05.65-.3.6-8.7-.9-16.85-6.65-8.25-5.8-14-15.2l-3.05-5.85zm36.6 62.5q.2-.15.45.3.2.45 0 .65-8.2 5.8-16.55 5.4-8.8-.45-15.45-7.85-.75 2.65-.75 6.75 0 6.35 3.8 11.2 3.25 4.05 8.95 6.15 5.65 2 11.85 1.45.25-.05-.05.55l-.55.65q-6.65.6-12.35-1.4-5.9-2.05-9.3-6.3-3.1-3.9-3.65-9.2-.55-5.1 1.3-10.75.15-.45.5-.45l.6.25q5.6 6.45 14.35 7.15 8.65.75 16.85-4.55m94.1-.4q-.2-.1.4-.4l.85-.15q10.35 5.3 10.4 16.55.1 11.15-9.6 16.55-6.25 3.55-16 3.05-10.05-.5-21.4-5.25l-1.85-2.45q11 5.2 21.8 5.9 10.2.6 16.4-2.9 9.1-5.1 9.1-15.35-.05-10.45-10.1-15.55"/><path fill="#0f141b" d="M64.25 170.9q.2.3-.55.5-3.35.85-5.9 3.7-2.3 2.6-3 5.65 7.15-4.45 19.5-6.65l11.45-1.65 1.9 1.4-13.45 1.8q-11.6 2.15-19.7 6.5l-.75.05q-.25-.25-.15-.65.4-3.9 2.5-6.7 2.55-3.45 7.1-4.15.8-.15 1.05.2m2.05-55.95q.25 0 .2.65t-.3.6q-23.9-2-40.5 5.05t-22.1 21.6Q1 149.65 1.95 157q1 7.7 5.55 12-.2-6.05.8-11.2 1.25-6.55 4.25-10.05l1-.3.6.1q-3.1 3.25-4.55 10.15-1.2 5.6-1.05 12.1.05.55-.25.7l-.75-.2q-5.65-3.95-7.1-12.1-1.45-7.95 1.7-16.3 5.75-15.2 22.2-22.3 16.9-7.3 41.95-4.65"/><path fill="#0f141b" d="M68.35 142.95q.25-.1.55.4.3.55.1.7-4.85 3-12.95 3.1L41 145.95l-15.85-1.1q-7.7.4-12.7 4.4-4.9 3.9-6.3 10.45-.2 1.1-.5 1.05t-.15-1.2q.95-7.6 6.15-11.85 5.05-4.1 13.45-4.55 5.05-.3 16.05 1.1l14.75 1.4q7.9.1 12.45-2.7m150.85 3.4q-1.3-7.4-7-14.5-5.75-7.1-14.85-12.65-9.8-6-22.4-9.45-12.55-3.45-26.3-3.9-.25 0-.25-.6.05-.65.3-.65 30.35-.15 51.1 13.35 18.25 11.9 21.1 27.9.9 5-.55 10.1-1.45 5-4.8 8.8-7 7.9-19 7.3-1.1-.05-.75-.6l.7-.55q3-1.8 6.15-6.25 3.45-4.95 4.1-9.4.05-.25.65-.2.6 0 .6.25v.1q-.65 4.7-3.45 9.05-2.95 4.5-7.05 6.75 4.95-.1 9.45-2.1t7.5-5.4q5.1-5.7 5.1-13.55 0-2-.35-3.8"/><path fill="#0f141b" d="m168.45 146.45 22.55.9q9.3 1.2 13.7 4.05 2.5 1.65 4.1 3.9 1.65 2.3 2 4.8.35 2.4-.7 5.15-1 2.6-2.95 4.85l-.8.1q-.65-.15-.45-.35 1.75-1.95 2.65-4.5t.6-4.7q-.6-4.55-5.3-7.6-8.05-5.25-35.4-4.85-11.95.2-20.15-4.15-.25-.1-.2-.7t.3-.5q7.05 3.75 20.05 3.6m-51.7-60.8q-2-2.7-3.8-2.5-1.8.15-2.9 3.15-1.25 3.25-1.05 8.65.25 8.35 2.45 9.8 1.3.9 5.15-.1 3.8-1 4.35-2.25.4-.95.15-3.6-.3-2.65-1.1-5.7-1.2-4.65-3.25-7.45m-4-3.45q2.35-.3 4.75 2.55 2.5 2.95 3.85 8 .85 3.2 1.1 6.05.2 2.85-.35 4.05-.85 1.9-5.2 2.95l-6.15-.15q-2.95-2-3.25-10.7-.15-4.8 1.25-8.5 1.5-3.95 4-4.25m-36.7 15.75q-1.1-4.6-2.8-7.1-1.6-2.25-3-1.95t-2.2 2.8q-.85 2.7-.9 7.45-.05 3.3.9 6.35.85 2.9 2.05 3.95.8.7 3.5.45 2.8-.25 3.25-1.15.55-.95.3-4.1t-1.1-6.7m-6-9.85q1.95-.4 3.8 2.05 2 2.55 3.4 7.65.9 3.2 1.05 6.65.2 3.5-.5 4.8-.75 1.45-4.05 1.75-3.2.3-4.4-.75-1.45-1.3-2.5-4.5-1-3.25-1-6.6.05-5.05 1.3-8 1.1-2.7 2.9-3.05"/></svg>