<svg xmlns="http://www.w3.org/2000/svg" width="189" height="217" viewBox="-0.45 -1.95 188.7 217.1"><path fill="#44af35" d="M181.3 186.95q-5.8 10.55-19.1 11.5-9.7.65-16.45-2.7-6.3 5.8-15.1 9.15-7.15 2.75-17.9 4.5-12 2-23.65 1.2-12.8-.85-21.3-4.85-7.65 5.15-13.7 6.45-6.5 1.4-13.75-1-7.7-2.5-11.3-10.65-2.35-5.4-2.6-12.15-.1-2.05-.4-2.65-.3-.7-2.05-2.35-8.05-7.6-13.6-19.9-8.8-19.5-8.2-45.4.55-24.2 11.4-45.3 9.95-19.35 24.9-29.65Q40.65 24.7 52.7 13.4 63.5 3.25 77.55 2.55 91.5 1.9 102.3 7.4q12.4 6.35 20.2 20.65.95 1.8 1.95 2.55 1.3.95 4.1 1.6 12.6 2.85 24 11.6 17.8 13.75 27.85 39.15 7.25 18.3 5.1 44.7-1.55 18.8-5 26.95 3.85 5.6 4.55 14 .85 9.95-3.75 18.35"/><path fill="#d6e6ae" d="M120 56.4q12.95 4.15 22.35 13.7 10.7 10.9 12.8 25.45 2.1 14.65-5.7 28Q142.5 135.5 131 141.5l.35 3.3q-.15 4-2.45 7.3-1.8 2.65-3.95 3.8-5.85 16.4-11.85 26.4-5.1 8.6-8.1 9.25-2.6.55-6.25-2.1-3.7-2.65-9.7-9.4-6.55-7.35-17.95-26.95-.85-1.4-1.25-1.65l-1.75-.3q-7.85-1.05-13.8-3.45-7.45-3-13.1-8.5-8.3-8.15-10.35-22.05-2.15-14.45 3.9-27.55 5.6-12.25 16.3-21.2 8.45-7.05 18.6-11 9.55-3.65 23.85-4.1 15.1-.5 26.5 3.1m-24.4-35q5.95 4.5 6.2 8.25.35 4.95-7.2 8.65-4.5 2.2-9.3 3.15l-12.4.95q-6.45-.35-8.05-2.95-1.2-1.95-.8-5.35.4-3.5 2.3-6.95 4.75-8.6 14-9.85 8.2-1.25 15.25 4.1"/><path fill="#ed8599" d="M106.5 86.6q.9 0 7.75 6.65 7 6.75 7 8.3 0 1.65-4.65 9.55T111 119t-8.9-5.7-8.3-6.75T99.6 96q6.1-9.4 6.9-9.4"/><path fill="#b9c897" d="m81.75 30.05 12.65-.65q6.5.45 7.1 2.6-1.35 3.9-8.15 6.85-4.15 1.85-8.05 2.6l-11.4 1q-6-.15-8.3-2.15-.7-3.15 5.6-6.55 5.25-2.8 10.55-3.7m-5.5 132-5.15-8.95q-.85-1.4-1.25-1.65l-1.75-.3Q54.15 149.3 44.85 143q-10.6-7.25-13.45-19.35 12.05 7.85 34.75 10.3 20.9 2.2 42.75-.8 33.85-4.65 45.2-21-2.8 10.25-8.9 17.8-5.8 7.2-14.2 11.55l.35 3.3q-.15 4-2.45 7.3-1.8 2.65-3.95 3.8l-4.5 11.8q-11.55-5.65-22.1-3-7.8 1.95-15.35 8.65-2.35-3.65-6.75-11.3"/><path fill="#0f141b" d="M78.25 106.6q.95 4.3.05 8.1-1.05 4.35-4.1 4.9-3.1.55-5.75-2.75-2.3-2.9-3.35-7.4t-.15-8.15q1.05-4.1 4.2-4.85 3.1-.75 5.8 2.75 2.3 3 3.3 7.4m63.7-11.5q.75 4.65-.2 8.3-1.1 4.2-4 4.4-2.95.2-5.25-3.15-2.05-3-2.85-7.5-.8-4.65.15-8.15 1.1-4 4.1-4.55 3-.5 5.3 3 2 3 2.75 7.65M85.4 53.85q-.35-.2.25-.65t.95-.3q7.1 3.55 12.5 12 5.65 8.9 8.15 21.25.1.4-.8.65l-1-.15q-3.6-13.2-9.7-22.4-5.15-7.8-10.35-10.4"/><path fill="#0f141b" d="M106.65 87.4q-.6.1-6.4 8.9-5.85 8.9-5.65 9.8.25.9 7.85 6.5 7.55 5.5 8.3 5.5.7 0 5.1-7.75 4.4-7.8 4.3-8.95-.1-1.1-6.55-7.65-6.35-6.45-6.95-6.35m-8.55 8q6.55-9.7 8.25-9.9 1.7-.25 8.95 6.75t7.25 9q0 1.8-4.65 9.9-4.85 8.5-6.9 8.85-1.65.3-10.1-5.75-8.3-5.95-8.8-7.45-.55-1.65 6-11.4M80.85 152q-.6-.05-.4-1.15 1.2-6.65 4.65-10.65 2.3-2.6 5.25-3.75 3.8-1.45 6.95.55 3 1.9 3.3 6.6.2 3.85-1.9 7.75-2.05 3.8-5.8 6.85-.9.75-1.3.35-.45-.45.35-1.35 3.25-3.7 4.75-6.45 1.95-3.55 1.8-6.75-.25-3.75-2.45-5.1-2.25-1.5-5.25-.4-2.9 1.15-5.25 4.35-2.35 3.3-3.75 8.2-.3 1.05-.95.95"/><path fill="#0f141b" d="M154.05 95.5q-3.1-21.35-23.75-33.05-21.15-11.95-49.5-7.2-11.1 1.9-21.25 8.05-10 6.15-17.1 15.2Q26.7 98.75 32.4 121.55q2.6 10.4 9.3 16.8 5.85 5.55 15.15 8.85 5.7 2.1 11.2 2.85 1.95.25 2.95 1.15l1 1.35 6.55 10.9q7 11.25 11.05 15.8 5.75 6.45 9.25 9.05 3.55 2.65 5.85 2.15 2.6-.55 7.4-8.6 5.9-9.9 11.85-26.45.05-.3.45-.5 2-1.05 3.55-3.55 1.95-3.1 1.9-6.75-.05-4.05-1.85-7.3-1.8-3.35-4.05-3.45-2.45-.15-4.3 2.4-1.85 2.5-2.35 6.25-.45 3.9.75 7.6.35 1.05-.15 1.25-.45.2-.9-.85-1.8-4.4-1.4-8.55.35-3.9 2.55-6.8 2.65-3.55 5.8-3.2 3.05.4 5.15 3.15 1.6 2.1 2.25 4.9 11.5-5.85 18.1-19.5 6.3-13.05 4.6-25m-22.2-35.6q21.6 12.15 24.9 35.1 2.1 14.55-6.3 29.15-7.9 13.7-18.6 17.5.75 3.8-.45 7.45-1.5 4.5-5.8 7.25-4.85 16.5-11.45 26.8-5.35 8.3-9.1 9.1-6.25 1.35-17.8-11.6-4.15-4.65-9.5-13.35-4.25-6.9-7.15-12.75l-1-1.95q-.5-.6-1.9-.7-16.5-1.15-27.2-11.05-10.15-9.45-11.9-23.55-2.75-21.85 12.1-40.8Q56 56.9 81.1 52.65q29.1-4.95 50.75 7.25m-36.4-37.5q-2.7-2.15-5.85-3.35-4.55-1.7-9.3-1-5.6.75-9.65 4.65-2.65 2.45-4.2 5.8-1.4 2.95-1.65 5.7-.2 2.7.75 4.3 1.55 2.4 6.85 2.95 5.45.55 12.6-1.1 5.3-1.25 9.3-3.2 7.1-3.45 6.45-7.6-.2-1.15-1.4-3-1.55-2.25-3.9-4.15m-5.15-5.45q3.5 1.35 6.55 3.8 2.4 1.9 4.05 4.5 1.6 2.45 1.7 4.15.45 5.45-6.5 9.3-3.9 2.2-10.85 4-5.3 1.35-11.25 1.05-7.9-.35-10.1-4-1.3-2.05-1.3-4.8 0-3.35 2-7.6 1.75-3.7 4.7-6.5 4.55-4.35 10.75-5.15 5.15-.75 10.25 1.25"/><path fill="#0f141b" d="M180.9 154q-.15.35-.9-.3-.8-.65-.65-1 5.4-13.05 5.45-34.2.1-21.45-5.4-35.4-9.85-24.85-27.3-38.1-10.35-7.9-24-11.7-3-.8-4.55-2-1.35-1-2.45-2.95-7.7-14.2-20.9-20.7-12.55-6.2-26.55-3.9-12.6 2-21.85 11.55-10.5 10.8-12.55 27.8l-.4.65q-14.2 9.8-24.05 28.55Q3.6 93.5 3 117.95q-.6 25.45 7.9 44.55 5.4 12.15 13.6 20.05 1.9 1.8 2.5 3.75l.25 2.35q.35 6.5 2.6 11.5 3.45 7.65 10.6 10 6.85 2.25 12.9 1.05 6.1-1.2 13.8-6.4l.9-.05q9.2 3.9 22.15 5l22.4-.75q13.7-2.25 22.8-7.3 10.2-5.65 17.35-16.15 1.05-1.55 1.5-1.15.5.4-.35 2.1-5.15 10.8-16.65 17.2-9.7 5.4-24.4 7.85l-22.6.8q-13.2-1.05-22.4-5.2-6.2 5-13.95 6.5-7.5 1.5-14.4-.75-13.85-4.55-14.55-24.05l-.2-1.9q-.45-1.55-2.05-3.05Q11 172.85 5.2 155.75-.45 139.05.05 118.2q.6-23.85 11.65-45.55 10.4-20.3 25.2-30 1.3-17.45 12.6-29.2Q59.3 3.2 72.6.75q14.45-2.7 28 3.7 14.95 7.1 22.8 22.95.85 1.7 1.75 2.45 1.15.95 3.75 1.65 17.15 4.5 29.3 14.9 15 12.85 24.05 35.75 6 15.15 5.5 37.2-.5 21.75-6.85 34.65"/><path fill="#0f141b" d="M32.35 176.4q-1.15 1.65-1.85 1.15-.75-.55.35-2.25 5.45-8.7 15.15-12.65 9.5-3.9 16.55-.75 6.55 3 7.7 15.6 1.15 12.85-4.65 23.35-.8 1.4-1.45 1.15-.65-.2 0-1.7 4-9.35 3.35-20.9-.7-12.05-6.15-14.5-5.85-2.65-14.3.4-9.05 3.25-14.7 11.1m150.9-20.2q3.05 6.1 3.25 14.15.2 9.5-4.1 17.3-5.95 10.9-19.35 12.15-10.85 1.05-17.5-3.3-.35-.2.1-1.05.4-.8.75-.65 6.75 3.35 16.1 2.55 12.45-1.15 17.8-11 4.05-7.4 3.8-16-.2-7.2-3.1-13-1.3-2.55-2.45-3.85-1.3-1.45-2.85-1.85-5.6-1.3-9.25 5.95-1.15 2.15-4.1 10.85-1.85 5.45-4.8 8.95-1.2 1.35-1.75 1.2t.25-1.7l2.2-4.75 1.7-4.6 2-5.85q1.2-3.3 2.7-6 4.2-7.4 10.95-6.15 4.8.9 7.65 6.65"/><path fill="#fff" d="M38.5 63.3q4.85-1.5 7.8.7 3.7 2.8 2.9 8.4-.7 4.8-3.9 9-3.1 4.05-7.75 5.95-5.3 2.2-8.75-.5-2.9-2.2-2.8-7.3.1-5.4 3.75-10.05 3.7-4.65 8.75-6.2"/></svg>