<svg xmlns="http://www.w3.org/2000/svg" width="262" height="349" viewBox="0 -0.15 262.2 348.9"><path fill="#eeeeef" d="M258.3 58.05q-.3 10.9-7.7 15.5-2.15 1.6-5.7 2.65-7 2.15-13.7-.55 5.95 11.45 5.6 27.1-.3 15.4-6.7 32.7l-.6 2.05q-.75 2.65-1.4 5.75l4.2 1.9q5.05 2.85 9.55 7.55 14.4 15.15 17.6 43.5l-.1 5q-.3 6.3-1.45 12.7-3.75 20.45-14.55 34.1l-2.75 11.5 6.15-.95q6.15-.65 6.05.95-.25 6.3-8.95 12.4-4.35 3.1-8.65 4.9l6.8.4q.95.35.9.8-5.7 8.2-16.95 9.9l-7.15.4-2.95-.3-12.55.75-13.95 9.7-4.35 3.45q-5.15 3.45-9.05 3.45t-10.05-4.45l-5.35-4.45-1.8-.25-1.3 1.6-3.85 3.5q-6.8 5.05-15.15 4.75-3.2-.8-7.5-3.65-8.7-5.7-14.4-16-9.2 6.5-21.25 10.45-24.15 7.9-38.35-4.65l18.5-8.7q-8.55 1.6-18.5.8-19.9-1.6-27.05-13.75l3.15-1.45q6.35-1.85 22.55-3.95-9.65.5-21.3-2.85-23.35-6.75-33.4-26.15-.25-1.1.15-2.1.85-1.95 4.3-1.25l23.45 5.6q21.45 4.75 32.15 4.45-7.6-4.65-15.85-13.45-16.5-17.65-19.85-38.55-.7-14.55 5.45-30.7 12.35-32.2 46.8-39.85l8.25-1.4q10.45-.95 21.5 1.35 35.35 7.35 63.55 44.45 5.75-4.05 12.85-8.35 14.15-8.55 20.85-9.5l8.95-27q2.8-9.35 3-21.85.3-19.05-9.15-22.25-1.95 2.85-8.25 2.6-7.2-.25-12.15-5.65l-5.5 1.45q-.55-3-3-5.85-4.9-5.75-14.3-5.15.5-5.8 2.5-10.75 2.1-5.2 4.65-6.45-1.4-7.7.1-13.75l-.55-3q-.5-3.05-.2-3.35l5.5-.35q6.5.5 11.65 4.7.9-2.05 1-6.3.25-8.5-3.45-19.4l3.65 1.9q3.95 2.55 5.4 6.05l3.6-5.15q4.15-5.25 6.95-5.7-1.35 5.3-1.05 11.15.6 11.7 8.9 14.65l-.05-4.3q.1-4.35.65-4.65l5.35 2.1 6.35 2.7 2.25-.1q2.9.15 6.1 1.25 10.25 3.65 19.45 15.85 5.7 7.5 5.45 17.8"/><path fill="#b2b2b2" d="M103.05 182.45q1.85-3.55 6.35-6.25 9-5.4 22.4-1.05l3.4 1.15q4.35 1.7 8.95 4.1 14.8 7.85 26.9 20.65-4.6-1.7-10.9-2.55-12.55-1.6-20.95 2.85-8.9 4.75-12.1 17.6-3.3 13.25 2.35 24.9 3.55 7.3 18.8 13 13.9 5.2 33.25 7.65 19 2.4 35.35 1.2 17.4-1.3 25.05-6.4 11.2-2.6 11.1-.4-.3 6.25-8.95 12.8-4.35 3.25-8.65 5.25l6.8.35q.95.35.9.8-5.7 8.2-16.95 9.95l-7.15.35-2.95-.25-12.95 1.35q-4.95 5.9-11.5 8l-5.4 4q-6.15 4-10.05 4t-10.05-4.45l-5.35-4.5-1.8-.2q-5.35 5.5-11.6 8.2-6.1 2.6-10.15 1.4-11.6-3.45-20.45-19.45 4.65-3.35 8.8-9.5 8.3-12.3 5.8-26.35-1-3.7-3.55-9.05-5.15-10.7-12.85-19.1-8.35-9.1-11.7-21.75-3.15-11.65-.2-18.3"/><path fill="#9fd2f1" d="M157.55 255.55q4.4-14.65 11.25-22.35l-.3 8.8q4.65-15.05 7.3-20.1 1.7-3.15 3.15-9.35l1.1-5.55 4.75 4.3q5.8 5.45 10.75 11.35 15.95 18.95 18.05 35.3 4.5-4.15 9.3-11.75 9.6-15.2 11.25-32.35l2.25 3.45q2.55 4.45 4.3 9.4 5.55 15.85.6 30.95-1.8 7.9-7.5 15.8-11.3 15.8-30.45 15.9l-1.55 1.55-4.35 3.35q-7.55 4.9-15.55 4.6-6.6.25-13.35-3.45-13.45-7.3-14-26.75.8-5.75 3-13.1"/><path fill="#717171" d="M203.65 331.6q-6.1 6.85-7 6.85l-8.8-1.9q-8.5-1.95-9.5-1.95-1.1 0-4.7 1.2l-3.35 1.15-7.7-5.05 6.25-7.15-3.9-14.9 3-7.25 3.2 1.55q3.6 1.5 5.7 1.1l-2.8 5.8q3.55 10.15 4.45 10.3l15.8 2.45q16.1 2.95 20.85 6z"/><path fill="#717171" d="m134.75 305.1 2.55.75q3.15.65 5.95 0l-1.8 4.45 4.15 15.35 10.8 3.3q11.65 4.55 16 10.7h-13.7q-7.3 7.6-7.85 7.6l-8.7-2.95-8.6-3H124l-9.35-.3q-.35-1 3.2-4.5 5.25-5.2 16-11 .4-.9.6-3.45.3-5-.9-12.9z"/><path fill="#fcd13f" d="M177.25 74.95q-4.4.55-13.3 5.95-7.65 4.65-15.5 10.9-5.8 4.65-13.05 8.65l-6.15 3.1q-1.35-1.8 14.25-17.95 7.85-8.05 15.9-15.75 0 .8 1.8 1.4l2.85.15 3.85-1.1 5-.35q1.9.3 3.3 2.65z"/><path fill="#717171" d="m165.8 70.7-2.6 1.05-1.9-.3q-1.35-.4-1.6-1.05 3.7-5.95 3.8-7.25l3.65-.35q4.15 0 6.95 1.45 2.9 1.55 5.35 5.55 2.1 3.45 1.8 4.15l-3.9 1q-.35-1.35-1.25-2.7-1.85-2.7-4.75-2.65-2.85.05-5.55 1.1"/><path fill="#fff" d="m179.35 65.7 6.05-5.45q7.45-5.85 14.5-7.6l-.6 4.95q-1.7 5.35-7.1 7.3l-5.05 1.15z"/><path fill="#717171" d="m191.75 56.65 1.2 2.35q.55 3.1-2.65 6.7-10.5 1.25-11.05.1l4.7-4.25q5.25-4.4 7.8-4.9"/><path fill="#89b6d1" d="M154.45 268.5q.55-3.8 1.9-9.1 20.95 6.3 46.3 6.7 26.2.4 37.8-6.05-3.35 10.05-10.05 17.35-10.8 11.7-27.15 11.8l-1.55 1.55q-2 1.85-4.35 3.35-7.5 4.9-15.5 4.6-6.6.25-13.35-3.45-13.5-7.3-14.05-26.75"/><path fill="#b2b2b2" d="M200.4 179.35q-3.25-.9-7.6-1.5-8.7-1.2-14 .3-6.25-12.35-7.8-13.3 5.3-3.8 12.15-7.95 13.75-8.3 21.55-9.95l-1.85 9.05q-1.85 9.45-1.85 11.6 0 3.4-.6 11.75M233.75 146l-3.45 6.1q-3.6 7.65-4.45 15.35-.15-3.25.1-7.9.45-9.3 2.3-16.2zm25.45 61.3q-2.35 16.3-9.25 30.15-3.4 6.95-6.4 10.65 1.3-3.8-1.3-14.95l-2.85-10.35.3-1.95q4.45.2 9-1.95 7.1-3.45 10.5-11.6"/><path fill="#191919" d="M174.05 311.05q3.55 10.15 4.45 10.3l7.55 1.05 14.85 2.7q-6.3 6.65-15.1 10.95l-7.45-1.45q-1.1 0-4.7 1.2l-3.35 1.15-.9-.6q-2.65-2.35-6.75-4.55l6.2-7.05-3.9-14.9 3-7.25 3.2 1.55q3.6 1.5 5.7 1.1z"/><path fill="#191919" d="m134.75 305.1 2.55.75q3.15.65 5.95 0l-1.8 4.45 4.15 15.35 5.55 1.5q6.5 2 11.5 4.65l-.05.1 6.8 4.45q1.75 1.5 3 3.3h-13.7l-2.8 2.9q-18.2-.3-34.35-9.3 4.9-3.8 12.3-7.75.4-.9.6-3.45.3-5-.9-12.9z"/><path fill="#b2b2b2" d="m187.05 72.85 7.9-.25q8.7.35 12.55 3.25l-3.7 1.85q-1.15-1.05-3.65-2-5-1.85-11.8-1.3zm17.3-58.7q.55 7.9 4.65 11.4 2.05 1.75 3.95 1.95l.1 2.1-1.05 2.1q-7.05-1.85-8.05-9.9-.3-2.5 0-5.3z"/><path fill="#b2b2b2" d="M213.7 18.8q1.05 6.05 3.45 14.95 2.85 10.35 5.7 17.45 1 2.4-.8 1.05-1.7-1.35-2.45-2.7-6.45-11.45-6.8-22.25-.2-5.4.9-8.5"/><path fill="#b2b2b2" d="M247.85 75.15q-9.15 4.4-19.05-.6-2.2-1.4-5-4-5.6-5.15-8.5-11.05-2.1-3.8-3.55-9.4-2.85-11.1.7-19.75l1.65 5.5q-.15 9.75 2.35 17.45 4.05 12.55 14.4 17.6 4 1.95 10.8 1.8 7.5-.15 13.4-3-2.6 3.2-7.2 5.45m-76.2-42.35q.65 5.9 2.1 9.8l-2.4 2.35q-1.2-4.3-.6-8.65zm4.5 7.8q-1.5-2.15-2.95-5.05-2.85-5.8-2.45-9.6l.35-.4q.4-.35.45.05.45 3.1 2.35 7.6 2.05 4.7 3.8 6.4zm18.35 32.35-7.45-.1-5.9.8q-.25-1.3-1.15-3 10.3-2.25 20.45-.7Q209.9 71.4 215 75.4q4.6 3.6 6.4 9.25 1.3 4.15 1.15 9.95-.1 5.45-1.6 13.9-1.85 10.45-4.85 18.6-3.45 9.35-6.6 21.2-3.25 12.15-3.9 18.55-1.1 10.15-2.4 14.25-2.8 8.7-9 9.3 1.75-.85 3.45-3.45 3.4-5.25 3.05-13.95l1-10.05q1.4-11.15 3.25-16.7l8.7-26.3q2.8-9.25 3-21.8.3-19.1-9.15-22.3-4.65-2.35-13-2.9"/><path fill="#d9b536" d="M175.65 71.85q1.1 1.4 1.6 3.1-4.4.55-13.3 5.95-7.65 4.65-15.5 10.9-5.8 4.65-13.05 8.65l-6.15 3.1-.1-.4q9.9-9.05 21.45-17.25 15.05-10.75 25.05-14.05"/><path fill="#191919" d="m175.75 71.8 4.2-1.15q1.55 2.75 1.3 3.3l-3.9 1q-.4-1.65-1.6-3.15"/><path fill="#b2b2b2" d="m55.35 130.1 1.7-.95q-8.5 5.85-15.95 19.9-10.45 19.7-8.75 40.1 1.7 19.8 18.45 38.45 8.35 9.35 16.4 14.7l-6.05.65q-19.5-12.05-29.5-33.9-3.15-6.8-4.95-13.8l-1.2-5.65q.3-29.45 17.8-49 5.5-6.1 12.05-10.5m51.6 47.75q-5.1 4.6-5.55 13.1-.3 5.3 3.05 13.7 1.65 4.2 3.35 7.3-2.3-2-5.2-7.95-3.15-6.55-4.45-13.2-2.1-10.6 4.8-16.5 8.2-6.95 26.15-3.3 15.55 3.15 30.05 16.65 7.3 6.75 11.45 12.85-12.55-13.2-28.4-21.05-5-2.45-9.7-4.05l-3.7-1.1q-14.8-2.8-21.85 3.55m24.4 72.8q2.95 16.55-9 30.25-6 6.85-12.6 10.35-22.75 10.45-38.1 8.3-10.45-1.5-14.3-7.4 6.1 3.85 17.05 3.9 15.4.05 32.5-8.65 12.9-6.55 19.65-20.35 4.35-8.9 4.8-16.4"/><path fill="#b2b2b2" d="M34.45 273.25q5.45 3.05 11.6 5.05 19.65 6.5 39 .45l-9.55 5.05q-8.55 1.3-18.5.25-19.85-2-26.75-13.45zM4.8 238.3q4.6 6.15 10.3 10.7 7.9 6.35 23.55 10.9 17 5 27.95 2.8l-11.8 2.95q-6.4-.05-14.75-1.75-16.7-3.4-26.45-11.8-3.5-2.8-6.75-6.55Q.3 238 1.4 233.05z"/><path fill="#0f141b" d="M171.05 32q-1.1-3.6-.95-5.65l.25-1.2 1.35-.3 8.05.4q5.1 1.1 8.75 4.2.25.25-.4 1t-.9.5q-3.3-3.1-8.75-4.3l-6.8-.25-.05.05q-.15 1.3.75 4.9 1 4.2 2.45 6.55.65 1.05.5 1.2l-1.05-.8q-1.95-2.1-3.2-6.3m29.45 22.1q-4.8.5-13.5 6.3-7.15 4.8-8.95 7l-.6-.3q3.7-5.15 10.5-10 6.6-4.75 11.7-6 1.7-.4.85 3"/><path fill="#0f141b" d="M173.2 41.95q7.2-6 16.6-6.95l1.4.15q.05.3-1.25.55-9.75 2.15-16.9 9.35-6.1 6.2-7.05 11.9-.85 4.9-1.85 7.6-1.5 4-4.3 6.7-6.65 6.35-18.35 18.5-11.85 12.25-11.65 12.65.3.55 12.8-8l21.75-15.1q8.75-6 23.25-7.35 16.45-1.55 24.25 5.8 6.05 5.8 6.3 19.05.2 14.5-6.8 33.1-9.3 24.85-9.8 45.6-.1 5.75-2.2 9.9-1.85 3.75-4.65 5.05l-1.2.35q-.1-.2.9-1.05 2.1-1.75 3.55-5.05 1.7-4 1.85-9.25.5-22.5 9.4-46.1 6.65-17.75 6.65-32.1 0-13.15-5.3-18.1-7.45-7.1-22.7-5.55-13.5 1.35-22.4 7.45-29.55 20.1-32.9 21.95-3.95 2.25-4.65.95-.65-1.35 2.85-5.6l13.05-13.75 14.55-14.85q2.6-2.5 4-5.9 1.1-2.7 1.85-7.15 1.55-8.6 8.95-14.75m62.15 56.6q-.5-16.5-6.05-23.3-.2-.2 1.3-.3l1.6.15q5.35 7.6 5.5 24.05.1 16.75-5.35 33.15-6.35 18.95-5.75 39.75.65 22.25 9.25 43.45.1.3-.95.25t-1.15-.3q-8.7-21.55-9.3-43.55-.6-20.6 5.95-40.1 5.4-16.2 4.95-33.25m-22.1-80.6 1 .05q4.95.95 13.3 5.7 10.85 6.2 14.35 13.05.4.8.15.95l-.7-.6Q237.9 31.7 225.9 25q-10.95-6.15-11.8-5.5-.85.6.05 9.1 1.1 10.7 5.5 20.3.55 1.2.3 1.3-.2.1-.85-1.05-5.55-9.65-6.85-18.6-1.05-6.8.45-11.6.35-.9.55-1"/><path fill="#0f141b" d="M179.2 65.75q8.5 1 14.4-2.5 5.75-3.5 5.8-9.45 0-.35.65-1.1.65-.8.7-.5.65 7.85-5.9 11.85-6.3 3.8-16.35 2.5-.3-.05.15-.4.4-.4.55-.4M153.95 277.7q-1.75-9.45 1.75-21 3.55-11.7 11.7-23.2 1.4-1.95 1.85-1.65.45.25.2 2.5l-.15 1.55q1.8-6.6 4.75-12.5 4.1-8.5 4.75-14.25.3-2.5.75-2.8t2.15 1.15q15.15 12.95 24.35 28.2 9.55 15.85 8.7 27.95-1.25 18-12.85 28.2-9.25 8.2-18.95 7.85-12.6-.5-20.15-6.55-7.1-5.7-8.85-15.45m3.95-21.4q-3.25 10.9-1.95 19.85 1.35 9.55 7.75 15.1 7.05 6.15 19.3 6.7 7.85.3 16.35-6.45 11.95-9.5 13.25-27.95.8-11.85-8.25-27.25-8.9-15.15-23.85-27.85-.3 6.05-4.55 15.55-7.75 16.95-8 33.8-.05 1.55-.3 1.55-.3 0-.5-1.6-.5-4.05-.2-8.5-.1-4.8.9-13.7-6.8 10.1-9.95 20.75m22.4-75.85q.5 1.35.05 1.45t-1.05-1.2q-10.15-22.25-32.9-39.55-20.2-15.45-39.95-19.95-14.5-3.3-28.8-.25-14.2 3-25.5 11.6-11.75 9-18.3 22.45-7 14.4-7 32.1-.05 13.4 9.9 29.35 10.45 16.65 26.1 26.45H59.8q-16.3-10.4-26.2-26.6-9.25-15.25-9.3-29.2 0-18.05 6.75-32.9 6.5-14.1 18.25-23.45 11.55-9.25 26.45-12.45 15.15-3.25 31.4.25 21.45 4.65 42.8 22 22.6 18.4 30.35 39.9m-148.55 91.6q2.95 5.2 14.35 8.75 14.25 4.4 32.35 1.7l-3.9 1.9q-18 2.45-30.5-1.5-10.6-3.35-14.05-9.95-1.05-2.05-.75-2.9.25-.8 2.05-1.6 1.85-.8 14.95-2.35 13.9-1.7 20.45-3.9l1.75-.05q.2.5-1.2 1.15-5.8 2.65-18.85 4.55l-16.35 2.7q-.65.2-.7.55zm181.6-245.4q.3.1.05 1.2t-.55 1q-5.2-1.5-7.55-6.2-3.4-6.8-1.35-20.45-6.45 4.05-8.9 11.7-2.65 8.4.7 18.15.4 1.15.05 1.2-.4.05-.9-1-5.35-11.2-.6-21.3 3.6-7.6 9.45-10.4 1.45-.7 1.85-.5.45.2.2 1.6-2.1 12.65.45 18.8 1.95 4.7 7.1 6.2"/><path fill="#0f141b" d="M159.7 296.85q-.2-.2.8-.4l1.15-.05q3 2.8 6.4 4.95 4.75 2.95 8.1 3.1 2.6.1 6.55-1.95 3.75-2 7.8-5.4 1-.85 2.7-1.15 1.6-.25 1.15.2-3.65 3.9-9 6.95-5.65 3.15-9.25 3-4.15-.25-9.65-3.85-3.75-2.45-6.75-5.4m80.5-123.15q-.6-1-.35-1.2t.9.8q6.3 9.6 5.7 25.5-.55 15.3-6.65 24.2l-.75-.85q-.6-1.05-.45-1.25 5.6-8.05 6.2-23.1.65-15.35-4.6-24.1m-25.65 114 .7-.6q9.45 2.5 18.8-2.5 3.25-1.75 5.65-4 2.05-1.9 1.95-2.65l-8.25.35q-.35.1.6-.85t1.45-1l6-.2q2.45.35 2.5 1.5.1 1.35-2.35 3.7-2.6 2.55-6.55 4.55-10.45 5.35-20.75 2.4-.25-.05.25-.7M200.5 178.3q.4.15-.25 2.05-6.8-2.45-14.25-2.55-1.5 0-1.65-.45-.1-.5 1.35-.65 4.3-.45 7.9-.05 3.35.4 6.9 1.65"/><path fill="#0f141b" d="m166 309.95 1.8 6.4q1.8 6.5 1.85 8.15l-.3.95-2.85 2.75-3.5 3.8-.75-.15q-.7-.4-.5-.65.8-1.15 3.65-4l2.7-2.7q.2-.75-1.75-7.25-2.1-6.8-2.1-7.3-.05-.8 1.6-4.6l1.7-3.7 1.55.9zm68.7-94.05q-1.95 14.5-6.8 24.4-4.75 9.6-14.5 19.2-.2.25-.5-.7-.3-.9-.1-1.15 10.75-10.9 16.55-26.85 4.1-11.15 3.95-16.7-.05-1.35.45-1.4.45-.1 1.3 1 11.3 14.5 9.1 34.65-2.1 19.75-15.65 32.6-5.5 5.2-13.45 7.6-6.65 2-12.95 1.55l.4-.6.55-.6q5.3.2 11.5-1.9 7.45-2.55 12.65-7.5 12.65-12 14.8-31.25 2.05-19.05-7.3-32.35m-119.25 70.5q-.15-.3.85-.95.95-.7 1.1-.4 4.55 8.55 11.05 14.5 6.35 5.9 10.75 5.8 5.05 0 10.4-2.65t8.1-6.5l1.35-.15q1.15.15 1 .4-2.95 4.5-9.25 7.6-6 2.9-11.6 2.95-5.35-.05-12.1-5.9-6.9-5.95-11.65-14.7m98.5 41.4q2.9 1.15 2.9 1.85-.05.7-3.05 1.45l-5.5.65-4.3.45q-.55.25-2.75 2.8l-2.7 3.15-1.45 1.15-1.95-.25-7.3-2q-7.55-1.95-9.7-1.9-1.1 0-3.85.75-2.7.75-3.5 1.25-.3.2-1.1-.3-.8-.45-.55-.6 1.75-.95 4.65-1.7 2.75-.75 4.45-.8 3.4-.05 17.35 3.35l1.05.15.8-.65 2.75-3.15q2.35-2.45 3.55-2.6l3.85-.35 5.15-.75.6-.2q0-.15-.55-.35-4.45-1.7-15.3-4.15-12.3-2.8-19.1-3.2-.55 0-1.25-.95-.8-1.1-2.4-5.1-1.5-3.75-1.55-4.5-.05-.65 1.15-3.1 1.15-2.45 2-3.55l1.05-.05q.9.2.7.45-1.15 1.5-3.1 6.2l1.4 4.4q1.5 4.15 2.25 4.95 7.15.45 19.3 3.05 11.2 2.35 16 4.15M185.1 5.75q-.4-1.45 0-1.8.45-.35 2.05.4 2.85 1.4 4.45 2.9 1.95 1.9 3.1 4.95l-.35 1.65-.55 1.05q-.15-2.75-2.55-5.45-2.05-2.25-4.95-3.75 3.45 12.8 3.3 19.35-.2 7.3-4.8 11.9l-1.5.3-1.05-.2q5.55-4.75 5.95-12.4.25-6.3-3.1-18.9m-12.35 38.9-.85.8-1.15.4q-1.45-2.25-.95-7.6.4-4.8 1.7-7.5l.35.55.15 1.05q-.75 2.6-.6 6.55.2 4.15 1.35 5.75m14.6 27.8q2.85 3.3 8.7 4.35 6.25 1.05 10.6-1.65.25-.15 1.2.6t.7.95q-5.05 3.1-11.6 2-6.7-1.1-10.7-5.85-.2-.25.35-.45zM209.75 43q-.5-9.5 3-15.05.2-.25.8.15.65.4.5.65-2.7 4.2-2.25 14.05.5 10.6 4.65 17.7.75 1.2.5 1.35-.25.1-1.05-1-5.55-7.45-6.15-17.85m38.8 30.75q7.8-4.4 8.75-13.85.95-9.85-6.2-20.2-5.55-8.1-13.9-12.7-7.65-4.2-13.35-3.5-.3.05-.4-.6-.1-.6.2-.65 6.15-.8 14.1 3 9.35 4.5 15.5 13.35 7.75 11.15 6.2 22.05-1.5 10.1-9.9 14.8-6.6 3.7-14.8 1.95-7.9-1.75-11.95-7.25l-.45-.95.8.5q4.4 4.6 11.5 6 7.7 1.5 13.9-1.95M164 70.8q10.3-4.8 13.5 3.35.15.25-.25.5l-.5.05q-1.25-3.05-3.9-4-3.35-1.15-8.45 1.25l-3.75.25q-1.55-.6-1.65-1.9l.65-.45.7-.15q.25 1.05 1.4 1.35z"/><path fill="#0f141b" d="M163.95 63.6q-.3.1-.3-.4-.05-.5.25-.6 6.65-1.55 11.7 1.95 4.45 3.1 6.05 8.7l-.25.5-.45-.05q-1.25-4.5-5.8-7.75-5.3-3.75-11.2-2.35m26.1 1.6q1.8-1.8 2.3-4.15.5-2.6-1.05-3.9l.3-.45q.35-.4.55-.3 2 2.15 1.6 4.7-.35 2.6-2.85 4.4h-.6q-.45-.1-.25-.3m14.05 82.95q-8.95 3.4-18.35 8.55-8.85 4.85-14.5 9.25-.25.2-.7-.6-.5-.75-.25-1 6.8-5.35 16.15-10.45t18.35-8.35zm24.3-5.7q11.5 3.35 20 16 8.2 12.25 11.4 29.7 2.4 13.35-1.55 29.8-4.6 19.05-16.25 33.8-.3-1.75.45-2.85 10.45-15.15 14.2-33.65 3-15.1.9-26.85-2.8-15.55-10.9-27.9-8.5-12.9-18.75-15.95zM182 209.5l.8.2q.85.25 1.05.45 13.65 18.35 17.2 37.1 3.5 18.8-4.6 30.3-.95 1.35-1.25 1.2t.45-1.5q7.05-12.2 2.7-32.35-4.2-19.45-16.35-35.4"/><path fill="#0f141b" d="M237.65 240.5q1.5-14.95-2.85-24.7-.15-.35 1 .5l1.4 1.4q3.75 10.2 2.5 23.1-1.5 14.85-9.5 24.85-.85 1.05-1.3.9-.5-.15.35-1.25 6.85-9.3 8.4-24.8m11.7 16.6q4.5 0 4.65 1.7.15 1.2-1.3 3.9-1.7 3.2-4.5 6.25-7.9 8.45-19.65 10.95l.1-.85q.2-.8.4-.85 11.1-2.6 18.1-10.65 2.3-2.7 3.75-5.5 1.1-2.25.95-2.7t-3.4-.35q-4 .1-8.5 1.4-.2.05 0-.75t.55-.95q4.4-1.6 8.85-1.6M100.3 188.85q.5-8.65 6.6-13.25 6.1-4.55 15.9-3.8 10.35.8 22.1 7.45 12.95 7.3 25.3 20.55.95 1.05.55 1.35-.4.35-1.45-.65-28.35-26.55-48.7-26.3-8.2.1-13.15 4.7-4.6 4.3-5 10.9-.3 5.1 3.05 13.9 4.35 11.5 12.9 21.9 9.1 11.1 12.4 19.4 3.15 7.85 2.1 16-1.6 12.4-10.25 21.75-8.6 9.35-23.35 14.65-12.15 4.35-24.6 3.15-10.55-1-15.85-5.05-2.75-2.2-2.8-2.95-.1-.8 2.7-2.35l12.85-5.45q11.2-4.75 14.65-7.25 1.15-.85 1.45-.55t-.75 1.25q-3.5 3.35-13.65 7.7-10.75 4.3-13.45 5.6-1.35.65-1.35 1-.05.4 1.3 1.4 5.05 3.85 15.55 4.55 11.8.75 23.3-3.4 12.7-4.55 21.2-13.4 9.05-9.4 10.55-20.85 1.05-8-1.9-15.65-3.1-8.2-11.65-18.6-9.05-11.1-13.4-22.35-3.5-9.05-3.15-15.35M69.15 241.1q1.8-.3 1.8.3.05.65-1.7 1.05-14 3.15-37.85-2.1-23-6.1-27.95-6.4-1.3-.05-1.3.85.1 2.85 3.75 7.7 4.2 5.65 10.9 10.3 18.45 12.9 44.35 11.25l-.9.6q-1.25.6-1.9.65-25.65 2.5-43.75-10.7-6.75-4.95-10.9-11-3.6-5.3-3.7-8.8 0-1.85.75-2.6.8-.8 2.7-.65 6.1.55 28.95 6.7 23.2 5.3 36.75 2.85m78.2 53.7q-17.1-4.3-22.55-9.8-.7-.7-.55-.9.1-.2.9.4 6.35 4.65 21.3 8.15 13.8 3.25 25 3.35l2.4 1.25 1.8 1.25q-12.05.4-28.3-3.7m-4.25 13.35q-.95 2.1-.95 2.6-.05.6 3.9 14.35 7.7 1.2 15.9 5.35 7.1 3.6 11.1 7.45 1.6 1.55 1.5 2.1-.1.6-2.1.85l-7.05-.3-6.3-.25q-.45.15-3.65 3.9l-3.7 4.15-.9.4-1.25-.25-8-3.2-8.35-3.25q-1.2-.15-8.95-.15h-8.55q-2.15-.05-2.45-.6-.3-.6 1-2.6 1.95-3.05 6.7-6.55 5.1-3.75 12.15-7.05l.45-.3.1-.4q.6-3.1-.2-9.3l-.9-6.15q.05-.8.65-2.25l.95-2.05q.1-.3 1 0 .9.25.8.55-1.5 3.5-1.5 3.75l.65 6.1q.45 6.6-.4 10.5l-.35.45-9.9 6.1q-6.45 4.35-8.55 7.3l-.25.7.8.15q13 .15 16.95.4 1.4.15 16.55 5.4l1-.1q6.65-6.4 7.5-6.8l5.1-.3 5.95.15 1.55-.15-1.3-1.25q-4.15-3.45-9.9-6.4-7.75-4-14.35-4.65-.5-.1-.65-.55l-2.2-7.2q-2.15-7.3-2.1-8.1.05-.5.8-2.35.75-2.05 1.35-3l1.25-.15q1.05.2.65.35-.55.35-1.55 2.6m36.45 19.55q1.15.4 2.65 1.65 1.45 1.2 1.9 2.1l.2.85-.7-.5-2.05-2q-1.45-1.2-2.25-1.6l-.6-.55zm8.35-2.4q1.4.2 3.7.95 2.5.8 3.25 1.35l.65.75q-.1.2-1.05-.3l-3.15-1.1-3.6-1.05-.8-.45z"/><path fill="#0f141b" d="m140.8 337.65-.1.85q-.15 0-.4-.7l-1.7-7q-.15-.75.2-.85.35-.15.65.65l.75 3.45zm6.25-7.2q-1-.65-.9-1 .1-.3 1.15.25 4.3 2.35 5.95 6.05l.2.9q-.2.1-.65-.6-2-3.05-5.75-5.6"/></svg>