<svg xmlns="http://www.w3.org/2000/svg" width="134" height="190" viewBox="-1.55 0.05 133.85 190.15"><path fill="#83cef2" d="M30.75 141.85q-5.45-3.25-5.35-5.5.05-1.25 2.6-2.3 2.25-.9 4.8-1.05 1.6 1.1 4.6.65l3.7 13q-5.85-2.1-10.35-4.8"/><path fill="#fff" d="M80 52.45q8.85 4.4 14.1 10.4 6.95 7.9 8.45 19.2 1.8 13.65-6.05 25.5-5.55 8.4-14.3 14 1.6 1.25 2.25 2.8-4.5.25-6.65.95-3 1-3.8 3.25-1.95-.05-3.55-1.35-2-1.6-2.45-4.5-4.7 6.9-12.3 8.95Q48.55 133.6 45 130q-3.2 3.05-7.6 3.65-3.65.55-5.15-1.05-1.75-1.8.9-5.2-12.5-3.7-20.55-12.05-8.3-8.6-9.8-20.05-1.55-11.6 4.35-22.6Q13 61.95 24.1 55.35q-6.7-8.6-2.5-17.3 4.1-8.4 15.6-12.15-5.6-8.4-.4-15.3Q42.7 2.75 60.65.8q-3.15 2.7-3.2 5.8-.05 2.85 2.3 4.9 3.55 3.05 5.05 5.45 2.35 3.9.75 7.7 10.85 2.2 14.9 10.45 3.85 8-.45 17.35"/><path fill="#83cef2" d="M92.25 124.35q2.2.15 2.55 1.4.25 1.05-.95 2.65-2.1 2.7-6.75 6.75-4.65 4-6.2 4.4-4.1 1.05-6.35-5.05-.9-2.55-.7-4.8.2-2.35 1.75-3.3 2.35-1.3 8.05-1.85 4.65-.45 8.6-.2M11.75 87.9q2.75 2.35 2.95 3.45.2.95-1.05 5.9l-1.55 5.65q-1.3 0-4.2-2.05-2.8-2-3.1-3.05-.55-1.65.35-6.85.95-5.6 2.5-5.8 1.3.4 4.1 2.75M89.2 72.15q.8.1 3.45 5.3t2.5 6.45q-.15 1.05-4.35 3.7-4.15 2.6-5.05 2.35-1.05-.3-3.9-5.15Q79 80.1 79 79t4.65-4.1q4.55-2.9 5.55-2.75"/><path fill="#d4edfa" d="M17.25 83.15q.55-6.95 3.65-11 2.9-3.75 6.7-3.45 4 .25 6.1 5.2 1.9 4.5 1.45 10.5-.45 6.25-3.15 9.8-2.65 3.45-6.55 3.15-4.35-.3-6.55-4.5-2-3.8-1.65-9.7"/><path fill="#005f95" d="M22.5 83.95q.15-3.4 1.85-5.75 1.7-2.3 3.75-2.15 1.95.1 3.2 2.25 1.25 2.25 1.1 5.9-.15 3.55-1.5 5.6-1.5 2.1-3.9 1.95-2.25-.15-3.5-2.65-1.05-2.25-1-5.15"/><path fill="#d4edfa" d="M62.55 62.45q4.6-.6 7.8 3.1 3.1 3.6 3.8 10.05.75 7.05-1.65 11.4-2.3 4.2-6.65 4.7-4.9.6-8.15-3.4-3.15-3.75-3.6-10-.45-6.5 1.8-10.9 2.3-4.45 6.65-4.95"/><path fill="#005f95" d="M61.65 70.15q2.45-.2 4.2 2.05T67.8 78q.15 3.75-1.15 6.05-1.3 2.2-3.5 2.35-2.55.2-4.25-2.05-1.65-2.15-1.85-5.6-.3-3.55 1.05-6 1.3-2.4 3.55-2.6m-23.55 35.2q-4.3-1.55-4.05-4.6.2-3.05 4.35-1.9 5.3 1.5 10.95-1.2l4-2.15q2.05-1.05 3.3-1.05 2.75-.05 3.5 2.25.7 2.2-1.2 3.95-3.65 3.2-10.4 4.65-6.65 1.5-10.45.05"/><path fill="#d4edfa" d="M104.05 153.8q-3.3 0-5.55-2.4-2.05-2.2-2.55-5.55-.4-3.45 1.05-6.3 1.7-3.15 5.25-4.45-.05-3.15 1.85-5.45 1.8-2.15 4.7-2.9 6.65-1.8 11.3 3.9 2.85-.8 5.75.85 2.75 1.55 4.3 4.6 1.6 3.2 1.05 6.6-.6 3.85-3.9 6.9 1.25 6.15-4.25 8.6-2.3 1.05-4.75.65-2.55-.4-4.2-2.15-3.35 2.65-6.7 1.8-3.4-.9-3.35-4.7m-4.1 10.15q2.95-1.1 5.35.75 2.1 1.65 2.65 4.65.65 3.05-.9 5.2-1.7 2.45-5.5 2.4-2.4.85-4.4-.25-2.25-1.2-1.35-3.75-2-.15-2.9-1.85-.95-1.6-.4-3.55.5-2.05 2.3-3.1 2.05-1.15 5.15-.5m-75.2-5.5q4.4-1.45 8.05.9 3.15 2.1 4.65 6.25 1.4 4.15.35 7.6-1.2 3.8-4.9 4.75-1.25 6-5.5 8.6-3.6 2.2-8.4 1.5-4.4-.7-7.15-3.25-2.9-2.7-1.75-5.55-4.05 1.55-7.5-2.2-3.45-3.7-.35-6.85-2.5-5.5-.6-9.9 1.75-3.9 6.2-5.85 4.4-1.9 9.05-.95 5 1.05 7.85 4.95"/><path fill="#83cef2" d="m57.35 148.75-4.95-3.3q-3.4-2.5-6.3-5.2 1.25-6 2-8.5 2.9.9 6.65.15 3.85-.85 7.35-3.2l5.4 6.85zm4.75-20.05q3.6-2.55 5.9-6 .4 2.45 1.9 4.05 1.25 1.25 3 1.65l-5.4 7.15z"/><path fill="#83cef2" d="M46.1 140.25q-4.45-4.1-6.2-7.2 2.95-1 5.1-3.05 1.2 1.2 3.1 1.75-.75 2.5-2 8.5m26.8-11.85 1.1.15q-1 2.75 1.25 7.35 2.5 5 6.15 3.1l-1 6-1.45 7.45q-4-6.6-11.45-16.9z"/><path fill="#83cef2" d="M39.9 133.05q1.75 3.1 6.2 7.2-1.8 8.85-2.65 14.55l-6.05-21.15z"/><path fill="#83cef2" d="m57.35 148.75 10.15-13.2q7.45 10.3 11.45 16.9l-.55 2Q76.95 158 71.7 160q-4.7 1.85-11.05 2.1-5.95.2-10.65-1.05-4.9-1.3-5.75-3.65l-.8-2.6q.85-5.7 2.65-14.55 2.9 2.7 6.3 5.2z"/><path fill="#71b3d2" d="M33.75 143.5q-4.1-2.05-6.25-3.9 5.85 1.4 11.9 1.05l1.7 6q-3.85-1.4-7.35-3.15M94.8 126q.1 1-.95 2.4-2.1 2.7-6.75 6.75-4.65 4-6.2 4.4-1.85.5-3.25-.4-1.5-.9-2.2-3.25 5-.25 10.25-3.25 3.5-2 9.1-6.65"/><path fill="#b8cdd9" d="M104.05 153.8q-2.85 0-4.85-1.7l-3.05-3.4q4.4 2.55 9.9 3.25 7.1.9 8.95-3.25 5.85 2.95 10.75-.3 2.3-1.5 5.5-5.95-.55 4.05-3.95 7.15 1.25 6.15-4.25 8.6-2.3 1.05-4.75.65-2.55-.4-4.2-2.15-3.35 2.65-6.7 1.8-3.4-.9-3.35-4.7m-2.5 23.15q-2 .7-3.85 0-2.05-.75-2.15-2.6 7.75.85 12.5-2.65-.2 2.35-1.75 3.7-1.75 1.6-4.75 1.55M30 173.3l4.45-.15q1.8-.85 3.75-3.1.05 2.9-1.25 4.95-1.4 2.25-4.05 2.95-1.25 6-5.5 8.6-3.6 2.2-8.4 1.5-4.4-.7-7.15-3.25-2.9-2.7-1.75-5.55-2.95 1.1-5.95-.9-2.95-1.95-3.2-4.75 2.15 2.3 5.55 2.7 3.35.5 5.95-1.15.65 1.9 2.95 3.05 2.2 1.1 5.05 1.05 6.8-.2 9.55-5.95"/><path fill="#71b3d2" d="M75 135.4q1.1 2.45 2.6 3.4 1.8 1.25 3.8.2l-1 6-1.45 7.45q-3.95-6.4-11.45-16.8zm-28.85 4.5q-1.8 8.7-2.55 14.4l-5.8-21.35 1.15-.1.95-.05q1.55 1.1 3.6 4.4 1.7 2.7 2.65 2.7M60 162.15l-8.8-.65q-1.55-.3-2.95-1.8-1.55-1.7-1.55-3.6 3.6-5.35 14.8-5.55 11.05-.3 14.4 4.3 1 1.35-.15 2.9-1.1 1.5-3.45 2.3-5.6 1.9-12.3 2.1"/><path fill="#dcdddd" d="M33 127.4q-6.1-1.9-11.6-4.9-7.05-3.85-10.35-8.2 5.25 2.45 18.7 2.1 13.1-.35 28.25-3.1 16-2.9 27.7-7.4 13.1-5.1 17.15-10.95-3.15 8.95-9.6 16.6-5 5.95-10.3 9.45-10.55-3.05-23.7-2.1Q43 120 33 127.4m10.7.15.65.95q.7 1.05.65 1.5l-4.35 2.65q-4.45 1.95-8 .25 1.8 0 5.35-1.45 4.35-1.75 5.7-3.9m31.3-2.1q5.15-1.05 6.2-.8-1.35 0-3.3.8-2.8 1.05-4.5 3.1-1.05 0-2.55-1-1.8-1.2-1.6-2.75 1.4 1.45 5.75.65m-7.9-1.65q-4.35 6.25-12.1 8.15-7.4 1.8-10.2-1.65 5.35.35 11.6-1.55 6.2-1.8 10.7-4.95"/><path fill="#71b3d2" d="M55.15 136.8q7.55-1.45 12.1-.9l-9.85 12.8q-1.6-6.6-2.25-11.9"/><path fill="#0f141b" d="M74.25 49.65Q86.1 53.5 94 61.55q8.7 8.85 10.3 20.5 1.65 12.4-5.55 23.95-5.85 9.4-15.75 15.8l-.6-.1q-.45-.25-.5-.8 8.7-5.55 14.15-14.05 6.05-9.55 6.05-20.05 0-12-7.6-21.85-8.4-10.75-23.3-15.1-2.4-.7-.9-.85 1.45-.2 3.95.65m-45.55 2.9q2.55-1.15 3.7-1 1.2.1-1.15 1.05-13.9 5.65-21.7 17.75-7.75 12-6 24.85 1.45 11.3 9.5 19.7 8.05 8.55 20.55 11.75 0 1-1.35 1.25-13.2-3.8-21.3-12.1-8.35-8.5-9.9-20.1-1.7-13.2 6.05-25.2 7.65-11.85 21.6-17.95"/><path fill="#0f141b" d="M80.75 33.45q2.5 4.15 2.4 9.3-.1 5.05-2.6 9.95-.15.3-.85 0-.75-.3-.55-.55 2.3-4.5 2.25-9.25-.05-4.8-2.4-8.7-2.65-4.4-7.65-6.85-5-2.4-11.7-2.6-2.1-.05-1.4-.6.75-.55 2.75-.5 14 .25 19.75 9.8m-39.1-9.3 2.9.15q.75.45-1.45.85-7.8 1.4-13.5 5.4t-7.75 9.5q-1.3 3.8-.6 7.55.8 3.8 3.55 7.1.25.25-.35.7l-.75.25q-3.3-3.45-4.35-7.55-1.05-4.2.5-8.35Q22 33.8 27.7 29.7q5.8-4.1 13.95-5.55"/><path fill="#0f141b" d="M61.7.25q.25.35-.6 1.1-2.65 2.3-2.9 5.05t2.05 4.55q3.8 2.85 5.4 5.4 2.65 4.2.55 8.6-.15.35-1.45-.25 1.35-2.85.15-5.85-1.3-3.1-5.6-6.8-2.4-2.05-2.55-4.7-.3-2.9 1.95-5.55-10.25 1.35-16.2 4.8-4.55 2.65-6.25 6.3-1.25 2.6-.8 5.8.4 3.35 2.55 6.6l-.6.55-.9.15q-5-7.5-2.15-13.6 1.95-4.15 7.4-7.2Q48.8 1.3 60.55.05zm10.5 118.5q4.65-.15 7.8.9 3.75 1.25 5 4.15l-.55.55q-.7.3-.85 0-1-2.35-4.95-3.65-3.55-1.15-7.65-1.05-1.55.1-.9-.4.65-.45 2.1-.5"/><path fill="#c9e8f9" d="m47.85 131.5-1.5 9.25-6.35-7.8 4.1-2.5z"/><path fill="#0f141b" d="M47.9 120.4q1.55-.85 3.9-1.3l4.25-.35q1.5.1 1.7.55.25.5-1.3.4l-4.55.5q-2.7.6-4.2 1.35l-1.05.05q.1-.6 1.25-1.2"/><path fill="#c9e8f9" d="M46.1 140.25q-.1 2.6.95 6.05 1.55 5.2 4.55 5.85-4.85 2.05-4.65 5.1.15 2.25 1.95 3.2l-1.6-.65-2.05-1q-.6-.5-1.05-2.15-.4-1.4-.5-2.9 0-1.15.95-6.3z"/><path fill="#0f141b" d="M36.75 124.35q1.55-.55 2.2-.35.6.2-.95.8-2.6.95-4.3 3.1t-1.1 3.75q.8 2 4.9 1.35 4.15-.65 6.95-3.55.2-.2.7.25.5.35.3.55-3.6 3.7-8.6 4.35-4.85.6-5.9-2-.9-2.4 1-4.9 1.85-2.3 4.8-3.35"/><path fill="#0f141b" d="M67.4 122.25q1.05-1.5 1.35.3.45 2.9 2.3 4.25 1.35 1 2.95.9l.15.85q0 .9-.2.9-1.9.2-3.55-1.4-1.75-1.6-2.6-4.25-4.2 5.3-10.15 7.85-5.8 2.5-10.05 1.1-4.6-1.5-4.5-6.8.1-1.55.6-1.8.45-.35.4 1.25-.1 4.3 4.05 5.6 4.2 1.4 9.65-.85 5.9-2.4 9.6-7.9m-30.95 11.8q-.1-.3.75-.55l1 .05 6.75 23.6q.65 1.8 4.45 2.95 3.75 1.2 8.95 1.25 6.7.15 11.95-1.6 5.95-1.95 7.4-5.55.55-1.25 1.7-7.9l1.15-7.35q.05-.3.95-.4 1-.1.95.2l-1.4 7.65q-1.4 6.95-2 8.4-1.75 4.2-8.3 6.25-5.35 1.7-12.4 1.55-5.25-.05-9.1-1.1-4.75-1.3-5.7-3.8z"/><path fill="#0f141b" d="m32.45 132.55.6.7q.45.75.15.7-2.5-.05-4.75.75-2.2.8-2.3 1.7-.05 1.8 4.7 4.7 4.45 2.7 10.3 4.65.3.1.1 1.1-.2.95-.5.85-5.45-1.8-10.2-4.8-6-3.75-5.85-6.6.05-1.7 2.8-2.8 2.2-.9 4.95-.95m42.7-6.75q2.7-1.75 9.05-2.1 4.3-.2 8.1.15 3.05.3 3.25 1.65.2 1.2-1.85 3.85-2.4 3.1-6.1 6.4-4.1 3.65-6.85 4.7-1.55.65-3.2-.65-1.6-1.15-2.9-3.65-1.6-3-1.6-5.75 0-3.1 2.1-4.6m17.05-.7q-5.1-.3-9.2.05-4.95.55-7 1.95-1.7 1.15-1.55 4.05.1 2.35 1.2 4.4.9 1.65 2.05 2.6 1.35 1.05 2.45.65 2.55-1 6.65-4.45 4.15-3.35 6.45-6.35 2-2.75-1.05-2.9M69.7 152q-4.15-.95-9.05-.65-7.2.45-10.95 2.65-2.9 1.75-2.3 3.25.35.8.2 1.1-.25.3-.75-.45-1.55-2.4 1.95-4.7 3.95-2.6 11.8-3.1l8.8.65q4.2 1 5.9 2.8.55.65.45 1.2-.1.5-.85-.4-1.3-1.5-5.2-2.35"/><path fill="#0f141b" d="M69.25 134.2q-1.1 1.35-1.45.95-.3-.45.8-1.9 3.45-4.55 4.25-5.3.2-.2.65.2.45.45.2.6zm-28.35 1.45q-.6-1.05-.3-1.4.25-.45.95.45l3.15 3.55q.95 1 .55 1.15-.5.1-1.6-.75l-1.5-1.45zm24.55 1.65q1-1.3 1.05-.7.1.6-.9 1.9-3.75 4.85-7.75 10.75-.3.4-.8.2-3.7-1.65-10.65-8.1-.45 1.65-.95 4.85l-.7 3.6-.75 1.75q-.25.2-.15-1.35l.6-4.2q.6-3.6 1.2-5.55.3-1 .95-.3 5.95 5.75 10.55 7.95z"/><path fill="#0f141b" d="m47.85 131.5.65.05.4.5q-.8 1.7-1.95 6.25-.3 1.25-.75.85-.5-.4-.2-1.65.95-4.25 1.85-6m20.5 6.3q-.85-1.15-.4-1.35t1.25.95l4.1 5.6 2.6 4.1q.45 1 .25 1.45-.2.4-.8-.6-2.3-3.75-7-10.15M14.1 91.5q-.15-.85-2.65-3-2.5-2.2-3.8-2.7-.9.45-1.85 5.35-.9 4.85-.45 6.45.25.75 2.55 2.45 2.45 1.8 3.8 2.1 2.65-9.55 2.4-10.65m-7.95-5.7q.6-1.1 1.1-1.25.4-.15 1.3.35 1.8 1 3.95 3.05 2.5 2.25 2.7 3.4.35 1.65-2.5 11.85l-.6.45q-1.5 0-4.45-2.2-2.9-2.15-3.3-3.4-.45-1.4 0-5.55.55-4.55 1.8-6.7M62 128.65q.45-.4.6-.25l3.85 5.05q.7 1 .4 1.45-.35.35-1.05-.65l-4.1-5.05q-.15-.15.3-.55m19.2-43.5q-3-4.85-3-6.1t4.95-4.5q4.85-3.2 6.15-3 1.05.1 4 5.6 2.9 5.4 2.75 6.9Q95.9 85.1 91.4 88t-5.8 2.55q-1.35-.35-4.4-5.4m-1.6-6.2q.1 1 2.75 5.5 2.7 4.65 3.55 4.9.9.05 4.65-2.4 3.75-2.4 4-3.15v-.1q0-1.1-2.25-5.65-2.3-4.6-3.25-5.25-1.05.15-5.1 2.7-4.1 2.65-4.35 3.45m-63.05 4.1q.5-7.35 3.95-11.5 3.05-3.75 7.05-3.5 3.7.3 6 4.5 2.45 4.55 2 11.7-.4 6.65-3.05 10.2-2.7 3.6-7.1 3.25-4.15-.3-6.6-4-2.75-4.05-2.25-10.65m17.65 1.3q.4-6.35-1.65-10.75-2-4.05-5.1-4.3-3.4-.25-5.95 3.25-2.75 3.8-3.25 10.65-.4 5.65 1.45 9.25 1.95 3.75 5.7 4 3.7.3 6.05-2.95 2.3-3.25 2.75-9.15"/><path fill="#0f141b" d="M28.05 75.45q2.3.15 3.75 2.55 1.45 2.45 1.3 6.2t-1.75 5.95q-1.7 2.25-4.4 2.05-2.3-.15-3.8-2.5-1.55-2.4-1.4-5.75.1-3.7 2.15-6.25 1.85-2.35 4.15-2.25m3.75 8.7q.15-3.2-.9-5.35-1.05-2.05-2.85-2.2-1.7-.05-3.2 1.8-1.65 2.1-1.75 5.35-.1 2.8.9 4.9 1.1 2.35 2.9 2.5 1.85.1 3.25-1.6 1.5-1.95 1.65-5.4M69.7 66.3q-3.15-3.7-7.1-3.25t-6.15 4.65q-2.15 4.25-1.7 10.55.4 6.2 3.6 9.8 3.05 3.55 7.45 3.05 4.2-.5 6.25-4.7t1.35-10.75q-.6-5.7-3.7-9.35m1-1.2q3.95 4.05 4.6 10.45.85 7.75-2.1 12.3-2.55 4-7.35 4.55-4.7.55-8.35-3.15-3.85-3.9-4.35-10.9-.5-6.85 2-11.45 2.55-4.6 7.1-5.1 4.6-.6 8.45 3.3"/><path fill="#0f141b" d="M61.75 69.55q2.75-.05 4.6 2.3 1.8 2.3 2.15 5.9.35 3.75-1.3 6.55-1.65 2.65-4 2.75-2.9.05-4.85-2.4-1.8-2.35-2.05-5.85-.3-4 1.35-6.65 1.6-2.55 4.1-2.6m3.7 3.15q-1.6-2.1-3.75-1.95-2 .25-3.05 2.3-1.15 2.15-.9 5.65.25 3.2 1.75 5.25 1.45 2 3.6 1.85 2-.15 3.1-2.45 1.15-2.2.95-5.55-.15-3-1.7-5.1m-8.7 20.95q3.25-.05 4.2 2.6.95 2.6-1.4 4.65-3.7 3.3-10.8 4.9-7.05 1.65-11.2.1-2.55-.95-3.7-2.75-1.05-1.65-.55-3.2.4-1.25 1.6-1.85 1.45-.75 3.45-.05 3.3 1.25 6.9.35 2.55-.6 6.25-2.6l2.8-1.45q1.45-.65 2.45-.7m2.7 3.1q-.8-1.7-2.75-1.65-1.3 0-4.55 1.75-3.7 2.05-6 2.7-3.9 1.05-7.95-.1l-2.25-.1q-.95.2-1.2 1-.35 1.15.55 2.35 1 1.4 3 2.1 3.6 1.3 9.95-.05 6.65-1.45 10.25-4.6 1.8-1.6.95-3.4m38.8 42.15q-1.9 2.65-1.75 6.1.1 3.35 2.05 5.7 2.15 2.5 5.5 2.5.6 0 .6.6-.05 2.9 2.8 3.95 3 1.05 6.25-1.55.45-.3.8.1 1.55 1.65 3.9 2 2.25.3 4.4-.65 5.1-2.25 3.95-7.95-.1-.35.15-.6 3.2-2.95 3.75-6.65.45-3.3-1.2-6.3-1.5-2.9-4.2-4.25-2.8-1.5-5.5-.55-1.45.6-1.35 0 .1-.5 1.6-1.05 3.2-1.25 6.25.35 2.9 1.45 4.45 4.75 1.6 3.4 1 7.05-.7 4.15-4.1 7.3 1.4 6.7-4.05 9.15-2.3 1-4.85.6-2.65-.45-4.55-2.3-3.65 2.7-7 1.9-3.45-.8-3.65-4.7-3.9-.25-6.35-3.1-2.25-2.6-2.5-6.25-.15-3.7 1.9-6.55 2.35-3.15 6.7-4l1.55.1q.55.35-.5.6-3.95.7-6.05 3.7"/><path fill="#0f141b" d="M108.6 126.1q3.2-.9 6.35.05 3.4 1.05 5.6 3.9.15.25-.3.6l-.65.15q-4-5.25-10.6-3.3-2.75.9-4.45 2.85-1.8 2.15-1.6 4.8 0 .25-.6.3t-.65-.2q-.25-3.45 1.8-5.95 1.9-2.35 5.1-3.2m-8.7 37.45q1.85-.75 3.6-.4 1.8.35 3.1 1.75 3.4 3.6 1.95 8.15-1.6 4.8-7.05 4.25l-4.65-.1q-1.95-1.2-1.5-3.8-2.5-.9-3.35-2.95-.7-1.9.15-3.9T95 163.6q2.2-1 4.9-.05m.25 1h-.35q-4.1-.95-5.9 1.5-1.6 2.1-.65 4.4.7 1.8 2.6 1.9l.6.15-.05.65q-.75 2.1 1.1 3.05l4.05.1q4.9 0 5.85-4 .85-3.7-1.85-6.55-2.35-2.35-5.4-1.2M5.65 154.4q4.4-2.55 10-1.8 5.95.85 9.35 5.15l5.3-.25q2.65.55 4.6 2.35 4.2 3.95 4.15 10.2-.05 6.6-5.7 8.3-.9 4.25-2.85 6.7-2.15 2.7-5.8 3.65-5.5 1.5-10.75-1.45t-4.6-7.2q-4.7.95-7.75-2.6-3.15-3.65-.05-7.35-1.9-4.3-1.2-8.3.9-4.8 5.3-7.4m1 1.35q-3.8 2.25-4.85 6-1 3.8 1 8.2.2.35-.15.7-1.25 1.3-1.05 3 .1 1.1.8 2.15 1.15 1.8 3.25 2.65l4.25.15q1.35-.45.8.85-1.35 3.4 3.5 6.25 4.95 2.85 10.2 1.45 6.3-1.7 7.85-9.35.1-.4.45-.5 4.75-1.15 4.85-7.05.1-5.7-3.85-9.4-3.75-3.5-8.75-1.8-.4.1-.7-.25-3.05-4.1-8.45-4.85-5.05-.65-9.15 1.8"/></svg>