<svg xmlns="http://www.w3.org/2000/svg" width="166" height="283" viewBox="-0.25 -0.15 166.25 283.1"><path fill="#f3b2c1" d="M161.1 25.8q-2.8 5.05-6.65 9.95l-51.65 32.5q12 23-12.75 53.35-4.55 5.7-5 11.2-.4 5 2.65 9.55 5.45 8.1 9.2 15.85 5.15 10.55 5.9 18.05-5.55-1.2-12.85-7.85-5.85-5.35-9.75-11.05-6.75 15.25-19.95 23.25-6.1 3.65-11.4 3.95-5.6.35-9.05-3.3l.5-3.95q-6.65.65-9.7-7.75-2.4-6.55-1.55-12.05-3.5 3.6-8.9 5.45-4.8 1.6-7.45.9 1.05-6.3 4.4-11.65 4.2-6.7 10.85-9.45 7.75-3.25 15.3-1.35 5.6 1.4 8.55 4.45 6.3-2.4 8.9-7.6 2.7-5.5.35-12.4 16.8 1.2 27.75-14.1Q97 100.3 93.3 83q-.5-2.5-1.65-3.7-1-1-3.35-1.8-6.25-2.2-11.7-7.8-4.75-4.9-6.05-9.1-10.1 6.2-19.65 6.55-9.25.3-10.2-4.9 6.2-6.6 12-9.25l47.1-7.4q2.45-4 6.2-8.8 4.25-5.45 7.05-7.7 8.25-6.7 24.8-10.4 14.55-3.25 27.35-2.7-.8 4.05-4.1 9.8"/><path fill="#fff1ad" d="M88.8 77.6q2.45.5 3.45 2.25L93.3 83q3.9 15.55-4.15 28-8.1 12.4-23.85 15-7.1 1.15-15.4-3.3-6.9-3.75-12.7-10.1-8.2-9-11.3-21.2-2.8-10.95.15-13.8.9-.85 3.15-1.25l4.35-.25q.8-3.65 3.2-7.85 2.1-3.65 4.3-6 1.35 6.55 13.7 4.5 4.85-.8 9.5-2.75 4.55-1.9 6.45-3.9 2 6.6 8.75 12.2 5.55 4.55 9.35 5.3"/><path fill="#595857" d="M74.4 76.05q2.7.6 3.6 4.65.8 3.55.05 8.85-.7 5.15-3.6 8.95-3.05 3.95-6.4 3.35-3.25-.6-4.15-4.85-.75-3.6.2-9.25.9-6 3.9-9.25 2.9-3.2 6.4-2.45"/><path fill="#f3b2c1" d="M51.45.65q4.05 3 9.2 10.55 5.45 7.95 7.2 14l-7.55-1.05q-.6 2.15-.05 6.15.65 4.45 2.35 6.95-2.65-.2-7 .15-4.85.35-7.4 1.15-3.8-9.1-1.9-20.9 1.25-8.15 5.15-17M6.7 101.05q2.6 2.25 8.9 9.15l8.75 10q4.5 5.6 5.2 12.5.6 6.15-2 10.5-2.5 1-4.8 2.75t-3.65 3.6q-7.3-.6-13.25-8.25Q.7 134.65.4 129l3-.35q-1.95-8.65-.65-17.1Q3.9 104 6.7 101.05"/><path fill="#fff1ad" d="M60.5 188.9q13.25-5.95 20.75-20.4 3.1 4.65 8.8 8.6 6.7 4.7 12.95 5.2-.05 4.85-5.8 40.8-1.5 9.4-1.5 17.65l.2 12.1q.2 9.45.55 12.4-1.85.7-5.4.1-4-.65-6.55-2.55L83 251.65l-1.7-9.85q-1.4-6.45-1.8-22.05-.35-14.35.3-19.1-4.65 1.55-11.25 2.35l-2.4 17.15q-.95 5.9-1.85 16.9-.35 4.45-2.2 15.3l-3.05 15.8Q56.7 269.8 53 269.6q-3.8-.25-5.75-2.45l1.15-15.95q.5-10 .35-13.55-.25-4.65-1.15-11.1-1.15-7.85-2.7-13.05-2.7-9.3-3.45-12.45-1.8-7.45-1.8-12.65 8 6.25 20.85.5"/><path fill="#595857" d="M35.5 76.6q-.65 4.15-4.2 7.1-3.25 2.7-6.2 2.6-.4-2.55-.3-4.65.1-2.7 1.1-3.8 1.1-1.2 4.05-1.5zM9.35 254.75q1.6 1.7 4.15 2.6 2.75.95 4.95.35l-.3 7.65q-.05 1.75-1.2 2.35l-2.35.05q-2.95-.8-4.15-1.75-1.65-1.35-1.6-3.6.1-3.95.5-7.65m49.8 13.2q-.65 3.65-1.45 10.45-.2 1.85-1.8 2.85-1.55.95-4.2.9-2.6-.05-4-1.5-1.3-1.35-1.15-3.6.1-3.5.75-10.05 2.4 2.55 6.3 2.6 3.5.1 5.55-1.65m37.3-2.7q.05 2.8 1.1 8.5.6 2.95-2.35 2.6-2.9-.4-5.8-1.5-2.85-1.05-3.95-5.1-.4-1.5-.95-6.95 2.5 2.05 6.65 2.6z"/><path fill="#ffe45f" d="M153.25 37.5q-5 9.05-12.7 15.5-5.4 4.45-17.1 9.35-14.45 6-24.6 5.65 2.8-5.85 10.3-15.1 7.55-9.25 13-13.55 9.25-7.35 16.7-10.6 8.45-3.75 19.5-4.6-1.35 6.5-5.1 13.35M90.3 30.65q5.1-.9 10.95 2.15.45 3.4-1 7-1.15 2.95-3 4.95l2.55.85q-1.9 3-4.2 8-1.9 4.15-2.8 6.65-2.7 4.15-7.3 7.05-6.85-.45-10.75-5.25-3.3-4.1-2.95-8.55-8.3 4-16.55.8Q46.45 50.9 43 41q3.55-2.3 9.65-3.35l9.95-.4q-1.65-2.55-2.35-7-.5-3.5-.25-6.1 5.6.35 15.05 3.25 5.7 1.75 5.7 10.35 3.8-6.1 9.55-7.1m-44.8 131.6q-1.25 2.35-3.05 6.9-.85-.55-1.15-2.15-.3-1.55.1-2.65.45-1.1 1.6-1.7 1.25-.7 2.5-.4m-10.65-3.4q.8.05 1.25 1.15.45.95.4 2.05-.05 1.05-.55 1.9-.6.95-1.45.95-.8 0-1.3-1.15-.4-1-.4-2.2 0-1.1.5-1.85.55-.9 1.55-.85M34.6 149q.6 1.25.65 3.4 0 2.1-.6 3.05-.6.9-1.85 1-2.1 0-2.3-4.45-.1-1.6.45-2.75.65-1.35 1.9-1.4 1.1-.05 1.75 1.15m-5.5 8.3q-.75 6.45 1.85 13.05 3.2 8 9.35 6.75l-.5 5.2q-4.05 1.65-9-2.85-5.7-5.15-5.3-14.35-2.4 2.2-5.65 3.35-4 1.45-8.2.85.25-2.75.9-5.15 3.9.25 8.15-1.25 5.25-1.85 8.4-5.6"/><path fill="#ffe45f" d="M39.8 181.25q7.35 7.5 20.45-.55Q73 172.8 80.2 157.35q4.45 5.95 9.95 11.05 7.5 6.95 12.65 7.85.45 3 .2 6.05-4.5-.6-10.05-3.55-7.5-4-11.7-10.25-1.95 5.4-6.8 10.55-4.8 5.15-10.85 8.45-14.2 7.75-23.95 1.1 0-5.85.15-7.35"/><path fill="#fff" d="M73.35 77.35q1.05.2 1.5 1.55.5 1.4.1 3.25-.35 1.8-1.3 2.85-1 1.05-2.2.8t-1.65-1.65q-.5-1.45 0-3.45.45-1.85 1.5-2.75.95-.85 2.05-.6"/><path fill="#dcc552" d="M124.45 37.25q8.1-6.85 18.4-10.25 8.15-2.7 15.7-2.7l-.35 1.6q-17.35 4.85-31.2 16.7-12.3 10.5-20.05 24.75l-4.05.7-3.95.2q1.95-5.45 10.65-15.8 8-9.45 14.85-15.2M49.5 50.9q-5.3-4.25-6.05-10.25 3.95 6.8 14.8 9.7 10.5 2.75 16.9-.55-1.3 3.15-5.5 4.75-4.25 1.55-9.55.85-5.85-.75-10.6-4.5"/><path fill="#dcc552" d="M85.45 67.4q-4.65-.3-8.5-3.2-5.25-3.9-5.1-10.75l2.95-2.8q-.9 4.15 2.4 9 3.3 4.9 7.55 5.45 4.1-1.4 5.25-5.7 1.2-4.4-1.9-8.2 4.8 2.6 4 7.95-.85 5.45-6.65 8.25"/><path fill="#dcc552" d="M89.7 51.8q2.7.45 5.55 2.25l-2.6 6.4q0-2.5-.75-4.8-.8-2.4-2.2-3.85m10.85-19.5q1.2 3-.1 6.95-1.2 3.5-3.45 5.5l-4.15-.4q2.3-1.05 4.65-4.75 2.3-3.65 3.05-7.3m-40-8.15q.75 3.45 2.6 7.4 2.2 4.8 4.7 7.15-1.8-.85-5.2-1.3-1.55-2.6-2.2-6.25-.7-3.95.1-7"/><path fill="#d29aa8" d="M85.45 67.4q1.15-.35 3-1.7l2.7-2.45q-1.3 4.1-6 6.3-5.5.25-10-3.25-4.65-3.65-5.5-9.35-4.8 2.3-10.55 1.45-5.3-.8-9.05-3.75L52.8 53q4.65 2.9 10.65 2.6 4.9-.2 8.4-2.15.35 11.8 13.6 13.95m-39.1-50.5q.45 5.9 2.45 11.8 2.1 6.1 4.7 8.75-2.6.2-4.95 1.15-1.75-2.4-2.6-9.45-.9-7.55.4-12.25M74.9 123.6q8.9-3.9 13.65-11.85-.4 5.05-2.75 10.8-2.5 5.9-6.15 10.15-8.95 10.4-17.95 4.05.55-2.4.4-5.3-.15-3.45-1.3-5.65 6.4 1.1 14.1-2.2"/><path fill="#dcd096" d="m78.1 197.65 12-1.1q-2.7 1.75-9.55 3.85-7.3 2.25-12.05 2.5.25-3.1-.45-6.75 3 1.45 10.05 1.5m-41.35 3.4q.15 5.1-1.2 10.7-1.45 6-3.85 9-3.9 4.85-7.4 13.3-4.7 11.35-5.9 23.8-2.85.4-5.35-.75l-3.4-2.25q1.1-20.25 1.8-26.1.9-7.7 3-10.4 2.1-2.8 1.65-7 6.65 2.6 12 .35 5.9-2.5 8.65-10.65m8.7 14.95q2.5 11.15 2.85 14.25l.4 5.8v6.2q-1.15-2.35-2.9-8.1-1.6-5.1-1.9-6.75-.2-1.25.35-5.1.5-3.75 1.2-6.3M34.6 181.95q2.45 1.05 5.1.4-.6 8.25 1 15l-4-2.75q-.2-2.55-.8-5.5-.7-3.3-1.45-5z"/><path fill="#d29aa8" d="M40.3 177.35q-2.2.55-4.35-.55 2-5.45 5.2-9.8.35 1.1 1.25 2-1.4 4.1-2.1 8.35"/><path fill="#dcc552" d="M35.95 176.8q2.15 1.1 4.35.55l-.6 5q-2.65.65-5.1-.4.35-2.45 1.35-5.15m6.45-7.8q-.9-.9-1.25-2 2.4-3.3 4.65-5-1.85 2.6-3.4 7"/><path fill="#dcd096" d="M63.05 243.3q-2.45 19.65-3.8 24.8-7.5 3.5-11.75-1.25l.7-19.35q.5-16.8-.3-20 1.2 2.55 3.7 3.65 2.45 1.1 5.25.4 6.65-1.75 9.25-11.15-.45 2.15-3.05 22.9m32.65-.1q-.3 14.25.65 22.45-2.6.6-5.8-.1-3.4-.7-5.95-2.55-4.65-28.9-4.9-32.15-.3-3.65-.35-14.75 0-11.45.35-15.25l3.8-1.35 4.7-1.95q-2.2 4.8-3.2 10.95-1 6.3-.3 11.25 1.75 12.3 11.8 7.25-.55 6-.8 16.2"/><path fill="#d29aa8" d="M6.75 101.4q-3.2 11.95.4 24.6 4.15 14.4 15.25 19.8-2.55 2.7-3.25 3.75-6.1-.8-11.55-6.3Q1.55 137.2.4 128.9l2.15 2.15q1.35 1.1 2.45 1.6-2.7-4.8-2.7-14.8-.05-11.25 4.45-16.45"/><path fill="#3e3a39" d="m62.25 252.2.85 6.05.45 4.5q.05 1.6-.6 2.1-.7.55-3.2.65z"/><path fill="#dcd096" d="M77.85 121.9q-6.8 3.85-14.3 4.2-6.2.3-14.45-4.05-8-4.25-11.65-9.5 11.85 9.35 26.6 9.2 14.6-.2 24.3-9.7-3.65 6-10.5 9.85"/><path fill="#0f141b" d="m96.5 264.7.05 1.4q-2.95.6-6.05.05-3.45-.6-5.8-2.5l-.1-1.5q2.25 1.7 5.55 2.4zm-37.35 2.55-.1 1.55q-2.65 1.9-6.1 1.65-3.55-.3-5.55-2.6l.15-1.4q2.2 2.1 5.65 2.35 3.5.25 5.95-1.55M29.5 157.15q-.45 9.7 3.3 15.5 3.4 5.35 7.45 3.7l-.05 1.75q-4.35 1.4-8.1-3.85-4.1-5.7-3.85-15.1-2.7 2.75-7.5 4.5t-8.5 1.35l.2-1.75q3.8.45 8.8-1.5t7.35-4.85q.95-1.2.9.25m3.5-.3q-1.35.05-2.25-1.35t-.9-3.75q0-1.75.9-3.1t2.2-1.35q1.25-.05 2.15 1.5.85 1.45.85 3.4 0 2-.85 3.3-.85 1.35-2.1 1.35m-1.45-7.5q-.5 1.1-.4 2.8.05 3.7 1.8 3.7.8 0 1.3-1t.45-2.7q0-1.7-.5-2.8t-1.25-1.1q-.9-.05-1.4 1.1"/><path fill="#0f141b" d="M35.6 160q-.35-.65-.9-.65-1.3 0-1.4 2.4-.05 1.4.45 2.15.35.6.85.55 1.25 0 1.3-2.55.05-1.2-.3-1.9m-.9-1.55q1.05.05 1.7 1.1t.55 2.4q-.05 1.6-.65 2.55-.65.95-1.75.95t-1.8-1.2q-.65-1.15-.6-2.7.05-1.4.85-2.3.75-.8 1.7-.8m23.65-46.95q.2-.7.65-.7.35.05.45.65.45 3.2-5.2 4.4-5.55 1.15-7.95-1.15-.55-.55-.3-.9.3-.35 1 0 2.5 1.15 6.55.4 4.15-.75 4.8-2.7m92.75-72.65Q146.5 46 140.95 51.1q-6 5.45-19.35 10.9-13.45 5.45-21.6 5.6 3.5-6.75 11.2-15.75 6.8-8 11.85-12.1 8.9-7.2 16.25-10.35 7.55-3.25 18.2-4.3-1.7 6.45-6.4 13.75M60 126l1.65-.05q3.55 8.75-1.85 15.25-5.25 6.4-16.15 7.3-1.4.1-1.45-.4-.1-.45 1.25-.7 10.45-1.7 15.05-7.75 4.55-6 1.5-13.65M18.45 257.1l-.05 1.25-4.65-.1q-2.65-.85-4.25-2.85l.2-1.15q1.8 1.7 4.4 2.55z"/><path fill="#595857" d="M35.5 76.6q-.65 4.15-4.2 7.1-3.25 2.7-6.2 2.6-.4-2.55-.3-4.65.1-2.7 1.1-3.8 1.1-1.2 4.05-1.5zM9.35 254.75q1.6 1.7 4.15 2.6 2.75.95 4.95.35l-.3 7.65q-.05 1.75-1.2 2.35l-2.35.05q-2.95-.8-4.15-1.75-1.65-1.35-1.6-3.6.1-3.95.5-7.65m49.8 13.2q-.65 3.65-1.45 10.45-.2 1.85-1.8 2.85-1.55.95-4.2.9-2.6-.05-4-1.5-1.3-1.35-1.15-3.6.1-3.5.75-10.05 2.4 2.55 6.3 2.6 3.5.1 5.55-1.65m37.3-2.7q.05 2.8 1.1 8.5.6 2.95-2.35 2.6-2.9-.4-5.8-1.5-2.85-1.05-3.95-5.1-.4-1.5-.95-6.95 2.5 2.05 6.65 2.6z"/><path fill="#ffe45f" d="M153.25 37.5q-5 9.05-12.7 15.5-5.4 4.45-17.1 9.35-14.45 6-24.6 5.65 2.8-5.85 10.3-15.1 7.55-9.25 13-13.55 9.25-7.35 16.7-10.6 8.45-3.75 19.5-4.6-1.35 6.5-5.1 13.35M90.3 30.65q5.1-.9 10.95 2.15.45 3.4-1 7-1.15 2.95-3 4.95l2.55.85q-1.9 3-4.2 8-1.9 4.15-2.8 6.65-2.7 4.15-7.3 7.05-6.85-.45-10.75-5.25-3.3-4.1-2.95-8.55-8.3 4-16.55.8Q46.45 50.9 43 41q3.55-2.3 9.65-3.35l9.95-.4q-1.65-2.55-2.35-7-.5-3.5-.25-6.1 5.6.35 15.05 3.25 5.7 1.75 5.7 10.35 3.8-6.1 9.55-7.1"/><path fill="#dcc552" d="M124.45 37.25q8.1-6.85 18.4-10.25 8.15-2.7 15.7-2.7l-.35 1.6q-17.35 4.85-31.2 16.7-12.3 10.5-20.05 24.75l-4.05.7-3.95.2q1.95-5.45 10.65-15.8 8-9.45 14.85-15.2M49.5 50.9q-5.3-4.25-6.05-10.25 3.95 6.8 14.8 9.7 10.5 2.75 16.9-.55-1.3 3.15-5.5 4.75-4.25 1.55-9.55.85-5.85-.75-10.6-4.5"/><path fill="#dcc552" d="M85.45 67.4q-4.65-.3-8.5-3.2-5.25-3.9-5.1-10.75l2.95-2.8q-.9 4.15 2.4 9 3.3 4.9 7.55 5.45 4.1-1.4 5.25-5.7 1.2-4.4-1.9-8.2 4.8 2.6 4 7.95-.85 5.45-6.65 8.25"/><path fill="#dcc552" d="M89.7 51.8q2.7.45 5.55 2.25l-2.6 6.4q0-2.5-.75-4.8-.8-2.4-2.2-3.85m10.85-19.5q1.2 3-.1 6.95-1.2 3.5-3.45 5.5l-4.15-.4q2.3-1.05 4.65-4.75 2.3-3.65 3.05-7.3m-40-8.15q.75 3.45 2.6 7.4 2.2 4.8 4.7 7.15-1.8-.85-5.2-1.3-1.55-2.6-2.2-6.25-.7-3.95.1-7"/><path fill="#d29aa8" d="M85.45 67.4q1.15-.35 3-1.7l2.7-2.45q-1.3 4.1-6 6.3-5.5.25-10-3.25-4.65-3.65-5.5-9.35-4.8 2.3-10.55 1.45-5.3-.8-9.05-3.75L52.8 53q4.65 2.9 10.65 2.6 4.9-.2 8.4-2.15.35 11.8 13.6 13.95m-39.1-50.5q.45 5.9 2.45 11.8 2.1 6.1 4.7 8.75-2.6.2-4.95 1.15-1.75-2.4-2.6-9.45-.9-7.55.4-12.25"/><path fill="#dcd096" d="M36.75 201.05q.15 5.1-1.2 10.7-1.45 6-3.85 9-3.9 4.85-7.4 13.3-4.7 11.35-5.9 23.8-2.85.4-5.35-.75l-3.4-2.25q1.1-20.25 1.8-26.1.9-7.7 3-10.4 2.1-2.8 1.65-7 6.65 2.6 12 .35 5.9-2.5 8.65-10.65m-2.15-19.1q2.45 1.05 5.1.4-.6 8.25 1 15l-4-2.75q-.2-2.55-.8-5.5-.7-3.3-1.45-5zm28.45 61.35q-2.45 19.65-3.8 24.8-7.5 3.5-11.75-1.25l.7-19.35q.5-16.8-.3-20 1.2 2.55 3.7 3.65 2.45 1.1 5.25.4 6.65-1.75 9.25-11.15-.45 2.15-3.05 22.9m32.65-.1q-.3 14.25.65 22.45-2.6.6-5.8-.1-3.4-.7-5.95-2.55-4.65-28.9-4.9-32.15-.3-3.65-.35-14.75 0-11.45.35-15.25l3.8-1.35 4.7-1.95q-2.2 4.8-3.2 10.95-1 6.3-.3 11.25 1.75 12.3 11.8 7.25-.55 6-.8 16.2M77.85 121.9q-6.8 3.85-14.3 4.2-6.2.3-14.45-4.05-8-4.25-11.65-9.5 11.85 9.35 26.6 9.2 14.6-.2 24.3-9.7-3.65 6-10.5 9.85"/><path fill="#0f141b" d="m96.5 264.7.05 1.4q-2.95.6-6.05.05-3.45-.6-5.8-2.5l-.1-1.5q2.25 1.7 5.55 2.4zm-37.35 2.55-.1 1.55q-2.65 1.9-6.1 1.65-3.55-.3-5.55-2.6l.15-1.4q2.2 2.1 5.65 2.35 3.5.25 5.95-1.55m91.95-228.4Q146.5 46 140.95 51.1q-6 5.45-19.35 10.9-13.45 5.45-21.6 5.6 3.5-6.75 11.2-15.75 6.8-8 11.85-12.1 8.9-7.2 16.25-10.35 7.55-3.25 18.2-4.3-1.7 6.45-6.4 13.75M18.45 257.1l-.05 1.25-4.65-.1q-2.65-.85-4.25-2.85l.2-1.15q1.8 1.7 4.4 2.55z"/><path fill="#fff1ad" d="M39.8 182.3q-.45 2.65-.2 7.5.25 4.7.95 7.2l-3.75-2.2q.35 4.15-.35 10.1-.55 5.15-1.55 8.85-.75 2.8-2.65 5.95l-3.45 5.05q-3.1 4.35-6.15 13.9-3.3 10.3-4 19.1-4.55.85-9.15-2.75l1.8-25.6q.25-3.5 1.35-6.9.85-2.75 1.9-4.35 1.6-2.35 1.6-5.4 0-4.15-.9-11.9-.95-7.95-2-12.1t-1.5-9.8q-.4-5.35-.1-9.65 4 .5 7.9-.75 3.7-1.25 6-3.65-1.35 7.35 4.35 13.45 5.35 5.75 9.9 3.95"/><path fill="#595857" d="M35.5 76.6q-.65 4.15-4.2 7.1-3.25 2.7-6.2 2.6-.4-2.55-.3-4.65.1-2.7 1.1-3.8 1.1-1.2 4.05-1.5z"/><path fill="#3e3a39" d="M9.35 254.75q1.6 1.7 4.15 2.6 2.75.95 4.95.35l-.3 7.65q-.05 1.75-1.2 2.35l-2.35.05q-2.95-.8-4.15-1.75-1.65-1.35-1.6-3.6.1-3.95.5-7.65m49.8 13.2q-.65 3.65-1.45 10.45-.2 1.85-1.8 2.85-1.55.95-4.2.9-2.6-.05-4-1.5-1.3-1.35-1.15-3.6.1-3.5.75-10.05 2.4 2.55 6.3 2.6 3.5.1 5.55-1.65m37.3-2.7q.05 2.8 1.1 8.5.6 2.95-2.35 2.6-2.9-.4-5.8-1.5-2.85-1.05-3.95-5.1-.4-1.5-.95-6.95 2.5 2.05 6.65 2.6z"/><path fill="#ffe45f" d="M153.25 37.5q-5 9.05-12.7 15.5-5.4 4.45-17.1 9.35-14.45 6-24.6 5.65 2.8-5.85 10.3-15.1 7.55-9.25 13-13.55 9.25-7.35 16.7-10.6 8.45-3.75 19.5-4.6-1.35 6.5-5.1 13.35M90.3 30.65q5.1-.9 10.95 2.15.45 3.4-1 7-1.15 2.95-3 4.95l2.55.85q-1.9 3-4.2 8-1.9 4.15-2.8 6.65-2.7 4.15-7.3 7.05-6.85-.45-10.75-5.25-3.3-4.1-2.95-8.55-8.3 4-16.55.8Q46.45 50.9 43 41q3.55-2.3 9.65-3.35l9.95-.4q-1.65-2.55-2.35-7-.5-3.5-.25-6.1 5.6.35 15.05 3.25 5.7 1.75 5.7 10.35 3.8-6.1 9.55-7.1"/><path fill="#dcc552" d="M124.45 37.25q8.1-6.85 18.4-10.25 8.15-2.7 15.7-2.7l-.35 1.6q-17.35 4.85-31.2 16.7-12.3 10.5-20.05 24.75l-4.05.7-3.95.2q1.95-5.45 10.65-15.8 8-9.45 14.85-15.2M49.5 50.9q-5.3-4.25-6.05-10.25 3.95 6.8 14.8 9.7 10.5 2.75 16.9-.55-1.3 3.15-5.5 4.75-4.25 1.55-9.55.85-5.85-.75-10.6-4.5"/><path fill="#dcc552" d="M85.45 67.4q-4.65-.3-8.5-3.2-5.25-3.9-5.1-10.75l2.95-2.8q-.9 4.15 2.4 9 3.3 4.9 7.55 5.45 4.1-1.4 5.25-5.7 1.2-4.4-1.9-8.2 4.8 2.6 4 7.95-.85 5.45-6.65 8.25"/><path fill="#dcc552" d="M89.7 51.8q2.7.45 5.55 2.25l-2.6 6.4q0-2.5-.75-4.8-.8-2.4-2.2-3.85m10.85-19.5q1.2 3-.1 6.95-1.2 3.5-3.45 5.5l-4.15-.4q2.3-1.05 4.65-4.75 2.3-3.65 3.05-7.3m-40-8.15q.75 3.45 2.6 7.4 2.2 4.8 4.7 7.15-1.8-.85-5.2-1.3-1.55-2.6-2.2-6.25-.7-3.95.1-7"/><path fill="#d29aa8" d="M46.35 16.9q.45 5.9 2.45 11.8 2.1 6.1 4.7 8.75-2.6.2-4.95 1.15-1.75-2.4-2.6-9.45-.9-7.55.4-12.25"/><path fill="#dcd096" d="M36.75 201.05q.15 5.1-1.2 10.7-1.45 6-3.85 9-3.9 4.85-7.4 13.3-4.7 11.35-5.9 23.8-2.85.4-5.35-.75l-3.4-2.25q1.1-20.25 1.8-26.1.9-7.7 3-10.4 2.1-2.8 1.65-7 6.65 2.6 12 .35 5.9-2.5 8.65-10.65m-2.15-19.1q2.45 1.05 5.1.4-.6 8.25 1 15l-4-2.75q-.2-2.55-.8-5.5-.7-3.3-1.45-5zm28.45 61.35q-2.45 19.65-3.8 24.8-7.5 3.5-11.75-1.25l.7-19.35q.5-16.8-.3-20 1.2 2.55 3.7 3.65 2.45 1.1 5.25.4 6.65-1.75 9.25-11.15-.45 2.15-3.05 22.9m32.65-.1q-.3 14.25.65 22.45-2.6.6-5.8-.1-3.4-.7-5.95-2.55-4.65-28.9-4.9-32.15-.3-3.65-.35-14.75 0-11.45.35-15.25l3.8-1.35 4.7-1.95q-2.2 4.8-3.2 10.95-1 6.3-.3 11.25 1.75 12.3 11.8 7.25-.55 6-.8 16.2M77.85 121.9q-6.8 3.85-14.3 4.2-6.2.3-14.45-4.05-8-4.25-11.65-9.5 11.85 9.35 26.6 9.2 14.6-.2 24.3-9.7-3.65 6-10.5 9.85"/><path fill="#0f141b" d="m96.5 264.7.05 1.4q-2.95.6-6.05.05-3.45-.6-5.8-2.5l-.1-1.5q2.25 1.7 5.55 2.4zm-59.9-69.2.1-2.5 3.55 2.8.6 2.8q-2.05-1.25-4.25-3.1m52.6.95q1.1-.45 1.35 0 .25.5-.8 1.05-10.4 5.4-21.35 6.5v-2q10.5-1 20.8-5.55"/><path fill="#0f141b" d="M45.65 160.85q.75-1.15 1.1-.9.4.25-.25 1.5-10.75 19.85-2.2 46.8 1.85 5.9 3.45 14 1.9 9.7 1.85 15.4l-1 20.7-1.3 19.3q-.15 1.8 1.2 2.8t3.65 1.05q2.3 0 3.5-1.05t1.4-3.2q.8-7.8 4.45-25.8 1.05-5.2 1.55-9.7l.75-9.1q.65-8.2 2.55-18.85 1.9-10.25 1.25-16.6-.1-1.35.45-1.4.5-.1.7 1.25 1.05 7.3-.75 17.05-1.95 10.85-2.5 18.7l-.8 9.15-1.6 9.85q-3.95 19.25-4.6 25.65-.35 2.8-1.85 4.1-1.45 1.3-4.45 1.35-2.95.05-4.65-1.2-2-1.55-1.8-4.15l1.3-19.8.85-20.15q0-5.15-1.85-14.7-1.65-8.55-3.4-14.15-9.1-28.8 3-47.9"/><path fill="#0f141b" d="m59.15 267.25-.1 1.55q-2.65 1.9-6.1 1.65-3.55-.3-5.55-2.6l.15-1.4q2.2 2.1 5.65 2.35 3.5.25 5.95-1.55m-14.35-53.1 1.1 3q-1.15 6.9-1 9.8.15 2.7 3.85 14l-.4 3.8q-1.55-4.5-3.15-9.7-1.95-6.5-2-8.05-.1-4.65 1.6-12.85m17.95 36.2q1.4 9.2 1.4 13.25 0 1.1-.45 1.6-.55.55-2 .75l-2.05.05v-1.4l2.05-.05q1 0 1-.95 0-3.65-.9-9.65zM52.55 145.3l-1.85.9q-5.3-4.85-14.35-4.3-8.95.6-14.35 6-6.65 6.65-8.75 17-2.15 10.5.75 22.8 2.3 9.9 2.9 25.25.05 1.9-.25 3.05l-1.25 2.3q-2.8 4-3.15 10.45l-2.6 33.5q-.05 1.8.85 2.7.8.8 2.6 1.6 1.7.7 2.45.7l1.15-.35q.7-.45.7-1.35 0-12.7 4.4-26.65 4.1-13.1 9.25-18.85 3.7-4.1 4.8-15.9 1.1-12-1.7-19.45-.45-1.2 0-1.4.4-.2.9.95 3.4 7.9 2.65 19.6-.75 12.05-5.3 17.35-5.05 5.9-9.15 18.4-4.5 13.7-4.5 26 0 3.1-2.75 3.1-1.6 0-3.45-.8-1.9-.8-3.35-2.2-1.2-1.2-1.05-3.55l2.4-33.5q.2-3.25 1.4-6.5 1.05-2.95 2.65-5.2l.75-1.65.15-2.75Q14.95 199 12.3 188q-2.95-12.65-.75-23.6 2.25-11 9.15-17.8 6.5-6.35 16.45-6.6 9.75-.25 15.4 5.3"/><path fill="#0f141b" d="M25.1 164.45q.8-.9.8.5-.25 7 4.55 12.6 4.7 5.5 9 3.9l.05 1.8q-4.7 1.4-9.65-4.05-5.2-5.7-4.9-13.2-6.1 5.35-13.45 4.25l.2-1.8q3.75.55 7.55-.65 3.6-1.1 5.85-3.35m14.55 17.5.35-1.7q7 7.5 20.2-.65 12.55-7.75 18.8-21.4.55-1.25 1.1-1.3.5-.05 1.35 1.1 5.85 7.75 12.05 12.6 5.4 4.2 9.2 4.9v1.35q-9.55-.9-22.4-17.95-6.7 14.9-19.8 22.7-6.1 3.65-11.45 3.9-5.75.25-9.4-3.55"/><path fill="#0f141b" d="M39.7 188.9v-1.6q8.9 6.75 22.6-.3 13-6.75 18.3-18.95.35-.75.6-.75l.7.7q3.45 5.35 9.95 9.25 5.95 3.65 11.1 4.15v1.8q-5.35-.45-11.2-4.05-6.35-3.8-10.3-9.6-5.65 12.75-19.5 19.6-14.25 7-22.25-.25m.95-24.7q.75-1.8 2.5-2.35l2.65.15-.6.95-1.75.05q-.95.55-1.5 1.85-.45 1.1-.15 2.25.35 1.1 1.05 1.45l-.5.95q-1.15-.45-1.75-1.95-.6-1.65.05-3.35m-34.3-21.05q-4.9-5.6-6.3-13.4-.3-1.4.95-1.55l2.4.3.25 1.2-2.45-.05q1.45 7.25 6.7 12.65 5.1 5.2 11.6 6.4l-1.2 1.6q-6.95-1.45-11.95-7.15m82.9-66.25q2.1.5 3.15 1.65 1.1 1.25 1.8 4 4.85 19.3-7 32.95-5 5.7-11.85 8.8-6.7 3-13.2 2.6-15-.9-26.8-14.9-12-14.2-11.4-31.15.1-2.35 1.15-3.55 1.1-1.25 3.65-1.7l8.75.45q5.7 1.1 8.85 3.1 1 .65.75 1.05l-1.3-.05q-3.45-1.6-8.65-2.5l-8.15-.4q-3 .5-3.15 3.8-.65 15.5 10.85 29.4 11.5 13.95 25.55 14.65 6.3.3 12.7-2.65 6.5-3 11.2-8.55 11.1-13.05 6.55-31-.6-2.4-1.25-3.15t-2.4-1.2q-5.65-1.4-10.9-6.05-5.5-4.9-7.9-11.3-4.85 3.5-10.55 5.4-5.55 1.85-10.4 1.75-3.25-.1-5.45-1.15-2.8-1.3-3.3-3.95l1.05-1.5q.3 4.3 7.75 4.55 4.75.1 10.25-1.55 6.2-1.85 10.8-5.3.6-.45.85.3 1.55 5.35 7.3 10.75 5.65 5.25 10.7 6.4"/><path fill="#0f141b" d="m25.35 86.75-.2-1.2q2.8-.2 5.7-2.6 3.3-2.75 3.9-6.3l1.3.15q-.4 4.35-4.2 7.4-3.4 2.7-6.5 2.55m51.6-5.25q-.9-3.75-3.05-4.4-2.75-.9-5.2 1.8-2.7 2.95-3.75 9-.95 5.5.2 9.3 1 3.3 3 3.9 2.4.65 5-2.4 2.8-3.25 3.8-8.6.95-4.75 0-8.6m-2.4-6.2q2.65.65 3.95 5.15 1.3 4.55.25 9.85-1.3 6.65-5 9.95-3 2.65-5.65 2.1t-4.15-4.25q-1.75-4.3-.7-10.5 1.1-6.65 4.5-10.05 3.15-3.15 6.8-2.25"/><path fill="#0f141b" d="M81.6 97.5q-1.9 3.8-5 4.55l-1.45.1q-.25-.15.9-.7 5.7-2.65 5.8-12.05.1-9.6-6.3-12.35-1.2-.55-2.8-.6-1.85-.05-3.25.7l-.15-.9q3.15-1.9 6.45-.8 3.9 1.25 6 5.35 1.85 3.7 1.75 8.5-.1 4.65-1.95 8.2M43.05 39.7q4.5-2.3 10.8-3.1 6.95-.9 12.25.6 5.75 1.65 8.35 6.65.6 1.2.15 1.45-.45.2-1.15-.95-1.25-1.95-3.1-3.15-1.8-1.15-4.7-2-5.3-1.55-11.7-.8-6.05.65-10.05 2.9 1.55 4.9 5.95 8.65 4.05 3.4 8.4 4.2 4.85.85 8.8.15 4.9-.95 7.15-4.1.7-1 1.15-.75.4.25-.2 1.3Q73 54.6 67.55 56l-9.7.3q-4.4-.85-8.95-4.8-4.9-4.25-6.75-9.45-.3-.95-.15-1.4.2-.5 1.05-.95"/><path fill="#0f141b" d="M85.3 66.4q5.85-3.1 6.15-8.2.25-4.95-4.4-6.9-1.4-.55-1.15-1.15.2-.65 1.65-.15 5.85 1.95 5.55 8.3-.4 6.55-7.55 9.9l-.35.05q-7-1.15-10.75-5.15-3.65-3.85-3.3-9.25l1.6-1.05q-.65 4.9 2.65 8.65 3.45 3.9 9.9 4.95m15.05-21.45-.9 1.55q-2.4-1.35-5.85-1.1-3.5.2-6 1.85-1.55 1-1.95.4-.4-.65 1.15-1.75 2.75-1.85 6.8-2.15 4.1-.3 6.75 1.2"/><path fill="#0f141b" d="m97.45 45-1.55-.6q2.6-2.35 3.7-5.65.85-2.7.6-5.5-6.8-2.95-11.9-1.1-5 1.85-7.6 8l-.05-3q3-5.8 8.55-7.15 5.45-1.35 12.55 1.8l.3.45q.4 3.55-.85 7.05-1.3 3.45-3.75 5.7"/><path fill="#0f141b" d="M81.35 33.8q.7 3.7-.05 7-.35 1.6-1 1.55-.6-.05-.45-1.7.4-3.9-.4-6.95-.85-3.45-2.95-4.6-2.3-1.25-7-2.55t-8.35-1.7q-.6-.05-.6.45-.05 2.5.8 5.95.95 3.95 2.45 6.3l-2.4-.15q-1.4-2.45-2-6.4-.55-3.2-.4-6.25.1-1.05.45-1.35l1.4-.15 8.9 1.6q5.35 1.3 7.7 2.6 3 1.65 3.9 6.35"/><path fill="#0f141b" d="M51.8 1.8q-4.25 10.8-4.95 18.8-.85 9.25 2.6 17.7l-1.9.6q-4-9.75-2.4-20.5.95-6.7 5-16.8Q50.7.2 51.3 0q.55-.15 1.5.75 5.75 5.3 10 11.8 4.2 6.5 6.1 12.9l-2.05-.35q-1.8-5.75-5.9-12.2Q56.7 6.3 51.8 1.8m112.15 15.7-.05-.5-.5-.1q-13.25-.05-24.5 2.35-14.35 3.1-24.1 9.85-6.55 4.55-13.7 16.25-6.65 10.8-9.1 19.4-.35 1.3-.9 1.2-.55-.15-.2-1.5 2.05-9.05 8.75-20.35 7.1-11.95 13.95-16.75 17.15-11.9 49.15-12 2.25-.05 2.75.5t-.05 2.3q-1.3 4.4-5.1 10.55-3.45 5.6-7.7 10.85l1.95-5.35q7.65-10.75 9.35-16.7"/><path fill="#0f141b" d="M151.1 38.85q4.7-7.3 6.4-13.75-10.65 1.05-18.2 4.3-7.35 3.15-16.25 10.35-5.05 4.1-11.85 12.1-7.7 9-11.2 15.75 8.15-.15 21.6-5.6 13.35-5.45 19.35-10.9 5.55-5.1 10.15-12.25m5.7-15.15 2.1.25q.35.45-.15 2.05-1.9 6.8-6.45 14.2-4.65 7.6-10 12.5-6 5.55-19.7 10.85Q108.95 68.8 100 69q-1.3.05-1.6-.4t.3-1.65q3.75-7.3 11.35-16.5 6.8-8.25 11.8-12.3 8.7-7.05 16.65-10.3 7.85-3.25 18.3-4.15M18.45 257.1l-.05 1.25-4.65-.1q-2.65-.85-4.25-2.85l.2-1.15q1.8 1.7 4.4 2.55z"/><path fill="#0f141b" d="m101.35 68.25 2.1-.3q5.5 11 3.5 23.25-1.1 6.9-5.3 14.95-4.1 7.95-10.45 15.5-9 10.9-2.95 19.95 11.75 17.35 14.4 28.15 2.25 9 .85 20.1l-3.6 22.3q-3.1 19.25-3.2 22.6-.25 8.5 0 18.85.4 13.6 1.6 20 .75 4.2-3.45 3.65-3.7-.6-6.25-1.95-1.8-1-2.65-2.2-1-1.45-1.35-3.85-2.1-14.6-4.6-28.3-2.35-12.7-1.05-39.75l1.55-.45q-.35 7.6-.25 16.5.15 14.8 1.7 23.4l2.15 13.45 2.1 14.95q.3 2 .95 3.05.7 1.15 2.15 1.95 2.05 1.1 5.75 1.65 1.3.2 1.7-.3.3-.4.05-1.6-1.2-6.55-1.7-20.15-.45-11-.25-19 .1-3.45 3-22.7l3.45-22.35q.75-5.65.55-10.2-.15-4.7-1.3-9.3-2.7-10.85-14-27.5-3.2-4.75-2.4-10.55.85-5.8 5.65-11.6 6.1-7.35 10-15.15 3.85-7.7 4.95-14.55 1-6 .15-11.7-.85-5.85-3.55-10.8m-67.05 8.1-1.5-.2Q37 59.75 51.9 52.5l1.75 1.2q-7.15 3.2-12.35 9.6-4.6 5.7-7 13.05m-27.85 26q-3 4.95-3.35 14.65-.3 9.55 2.2 14.8.55 1.15.1 1.45-.4.3-1.1-.9-3.2-5.4-2.95-15.15.25-9.85 3.95-15.45.75-1.1 1.25-1.2l1.5.9q16 15.4 19.9 22.9 2.7 5.25 2.85 9.95t-2.3 8.45l-2.25.65q2.7-3.6 2.65-8.5 0-4.75-2.5-9.9-3.4-6.95-19.35-22.75-.3-.3-.6.1"/></svg>