<svg xmlns="http://www.w3.org/2000/svg" width="289" height="455" viewBox="-0.95 -0.65 288.9 455.2"><path fill="#8b694e" d="M79.25 141.35q-.8-8.1-10.15-13.1-7.7-4.15-14-3.65-1.75.15-3.5 4.05-1.55 3.6-2 7.6l-18.05 7.45q-9.55 3.95-13.1 5.2-.85-1.65-5.75-2.45-4.7-.8-8.05-.05 5-2.5 12-6.7 8.1-4.8 12.7-8.2 4.15-3.1 4.5-4.35l.4-4.25q.15-2.65 1.4-4.3 3.15-4.2 9.35-7.65 6.5-3.6 14.25-5.15 18.7-3.8 33 5.6 3.65-4.5 6.8-7.85 3.75-4.05 5.1-4.45 5.05-1.55 21-1.05 15.9.55 16.45 2.25.5 1.55-7.15 13-7.7 11.4-9.75 12.2l-9.3.95q-6.75.2-14.05-.1 1 5.3.9 14.2l-.4 17.2q-.3 24.1 4.75 42 1 3.45 6.35 7.35 4.8 3.45 9.8 5.05 13.65 4.45 30.95 6.95 20.35 2.9 34.25 1.1 35.1-4.6 47.1 23.05 8 18.55 7.85 38.8-.05 5.9-.95 15.7t-.95 13.8q-.1 9.35 4.35 14.8 2.85 3.45 9.3 6.7l8.2 3.85q2.7 2.05 2.5 8.05-.15 5.65.25 12.35-.85 5.15-5.4 12.4-4.15 6.6-7.4 9.1-1.9-8.3-4.4-15.85-2.35-7.1-4.45-11.4-4.6-9.45-16.35-16.05l-10.2-5.4q-6.25-3.3-10.25-6.35-9.4-7.15-17.3-26-3.2-7.6-9.95-28.95-4.3-.85-8.85-2.75-5.4-2.25-7.55-4.7-3.65 3.9-10.75 6.1-7 2.2-14.65 1.95-9.6 15.15-26.15 26.45-14.6 9.95-36.3 17.9.95 3.5 6.2 10.95l5.2 7q-1.75 7.8-5.1 15.55-3.8 8.9-7 10.65-2.55-7.55-6.3-14.95-7.1-13.9-18.9-26.65-2.15-2.3-2.3-4.25-.2-1.9 1.45-4.1l5.45-6.35q3.75-4.3 5.7-7.6-.55-.35 5.8-15.45 6.85-16.25 11.75-20.8-8.65-6.75-18.5-33.05-7.2-19.15-10.15-32.95-2.25 1.35-6.85 7-4.65 5.6-7.2 10.1l4.6-25.7q2.15-13.15 1.75-18.65 9.75 3.85 14.5 4.5 3.2.45 5.9-.55 7.65-3.6 12.95-11.5 5.4-8.15 4.65-15.6"/><path fill="#fffcdb" d="M62.5 137.75q4.2 1.15 6.05 5.55 1.7 4.2.55 9.45-1.15 5.5-4.95 9.65-4.3 4.65-10.7 6.15-3.85-.65-12.4-4.2-7.3-3.05-11.15-2.9-3.25.1-11.1 1.8l-9.3 1.3q4-3.2 6.95-8.35 3.05-5.25 2-7.3l17.8-7 14.5-6.1q2.5 2.4 6.1 2.75 2.95.25 5.65-.8"/><path fill="#8b694e" d="M32.4 286.55q-3.05-16.55-.55-34.75 1.85 13.3 5 19.4Q43 283 60.05 294q-1.95 3.3-5.7 7.6l-5.45 6.35q-1.65 2.2-1.45 4.1.15 1.95 2.3 4.25 11.8 12.75 18.9 26.65l-2.05 4.9q-3.55 3.6-8.85 6.6-6.45 3.65-13.1 4.85-.85-.95-1.4-3.9 1.85-10.65 1.9-21.9l-4.85-4.3q-4.2-3.5-4.2-5.35l.6-9.05q.45-8.55 0-11.05-2.75-8.55-4.3-17.2"/><path fill="#fffcdb" d="m66.6 347.85-8.35 17.1q-5.9 11.9-9.2 20.35-10.4 26.2-8.15 47.95-1.95-.4-4.2-1.6-2.15-1.15-3.65-2.55-.35 1.65-.35 5.1l-.15 4.9q-2.2-5.5-6.6-9.65-4.65-4.4-8.7-4.2l2.15-2.3q-1.35-1.85-2.35-6.25-1.1-4.8-.5-7.8 21.25-22.35 26.7-53.5.55 2.95 1.4 3.9 6.65-1.2 13.1-4.85 5.3-3 8.85-6.6"/><path fill="#fdd23f" d="M62.5 137.75q3.1-.05 5.6-3.2 2.2-2.7 2.45-5.35 3.65 2.35 5.85 5.3 2.5 3.3 2.85 6.85.75 7.45-4.65 15.6-5.3 7.9-12.95 11.5-6 .45-8.2.1 6.4-1.5 10.7-6.15 3.8-4.15 4.95-9.65 1.15-5.25-.55-9.45-1.85-4.4-6.05-5.55m-7.4-13.15q3.05-.2 6.85.8 3.85 1.05 7.35 3.05-4.75 1.6-19.7 7.8.45-4 2-7.6 1.75-3.9 3.5-4.05m-21.25 2.55q-.35 1.25-4.5 4.35-.1-4.2 1.3-7.55 1.65-4.05 5-5.35-1.25 1.65-1.4 4.3z"/><path fill="#fffcdb" d="M87.05 331.7q.5.7.6 1.4v1.55q-.65 8.8 2.8 20.7 4.05 13.85 11.85 27.15 7.8 13.2 15.1 18.6-2.35 1.25-5.3 1.95l-5.15.6q2.05 2.6 5.35 4.45-1.6 3.75-6.3 6.45-5.25 2.95-10.55 1.95-2.8-5.95-3.7-12.2-2.4-.55-5.25-1.95-2.95-1.45-4.5-2.95-.6-22.6-7.05-41.5 3.2-1.75 7-10.65 3.35-7.75 5.1-15.55"/><path fill="#8b694e" d="M152.25 337.95q-8.05-7.4-8.55-8.4-2.1-4.15-2.9-11.7-.7-7.15.1-12.8l9.75-2q4.85-.95 8-.95l15.15 1.8 19.7.95q-3.75 4.25-10.25 13.85-6.6 9.75-6.95 11.8-.75 4.3 2.8 9.75 3.7 5.7 3.7 6.55-.05 2.5-2 6.8l-4.7 9.2q-9.9 6.2-13.6 7.7l-5.55-.15q3.15-11.85 3-21.55-.45-4.25-7.7-10.85"/><path fill="#fffcdb" d="M148.8 392.5q5.3-11.2 8.15-22.15l5.55.15q3.7-1.5 13.6-7.7-8.35 15.8-11.55 27.85-5.25 19.7-1.5 40.25-1.55 0-3.9-1.05-2.2-1-3.15-2.05l.25 5.25q-1.4.15-3.95-1.1l-4.8-2.65q-6.45-3.4-10.1-1.2l2.3-3.45 1.95-3.65q-1-1.65-2-4.55-1.1-3.35-1.25-5.75 5.6-7.9 10.4-18.2M29.9 161.45q3.1-.1 7.1 1.1t4.1 2.2q-1.7.1-6.45 1.45l-8.4 2.1q-11.05 1.95-15.95-3.7 2.1.25 8.85-1.35 7.5-1.7 10.75-1.8M252.8 378.8q3.25-2.5 7.4-9.1 4.55-7.25 5.4-12.4 1.3 20.55 7.55 43.7 5.9 21.9 12.8 33.95-1.1.95-4.55 1.3-3.25.35-6.1-.1l.5 3.05q-4.45 0-8.3-2.9-2.2-1.6-4.95-2.05-2.7-.4-4.7.5l1.75-3.25q-3.3-2.2-5.85-5.45 3.4-7.95 2.75-21.7-.5-11.55-3.7-25.55M133 276.5q5.95 1.5 15.2-.75 8.4-2.1 15.3-6.05 3.3 3.2 9.7 4.9 4.9 1.3 8.95 1.25 6 18 11.05 28.35l-18.45-.7-16.1-1.4-26.45 4.15q-20.25 2.5-37.75-.6 24.9-12.3 38.55-29.15"/><path fill="#fdd23f" d="M148.2 275.75q-9.25 2.25-15.2.75l5.1-7.1q7.65.25 14.65-1.95 7.1-2.2 10.75-6.1 2.15 2.45 7.55 4.7 4.55 1.9 8.85 2.75l2.25 7.05q-4.05.05-8.95-1.25-6.4-1.7-9.7-4.9-6.9 3.95-15.3 6.05"/><path fill="#662c1f" d="M112.3 408.1q2.5 1.45 5.55 2.35 1.7 5.65-1.3 13.05-3 7.5-7.6 8.4-3.75-1.4-7.4-5.65-3.55-4.05-6.1-9.75 5.3 1 10.55-1.95 4.7-2.7 6.3-6.45m-95.05 17.15q4.1-.2 9.1 4.9 4.85 4.95 6.5 10.55-1.45 2.15-8.85 3.8-8.25 1.8-13.25-.5-.55-6.65 1.7-11.7 1.45-3.4 4.8-7.05m240.6 9.5q2-.9 4.7-.5 2.75.45 4.95 2.05 3.85 2.9 8.3 2.9.85 5.1.3 6.9-2.4 3.2-8.3 5.3-6.6 2.25-13.15 1.35-1.9-.3-1.15-5.85.75-6.1 4.35-12.15M137.4 428.1q3.65-2.2 10.1 1.2l4.8 2.65q2.55 1.25 3.95 1.1.15 3.7-.4 5.45-5.05 3.2-13.15 4.85l-9.9.35q-.25-5.15 1.2-9.25 1.05-2.9 3.4-6.35M2.3 147.85q.65-2.35 7.7-1.95 7.1.45 8.45 3l.15.45q.25 3.85-3.85 9.5-4.05 5.45-6.1 4.8-3-.95-5.2-6.55-2.2-5.55-1.15-9.25m123.9-40.3q0 1.5-3.1 7.1-3.25 5.8-4.6 6.2-3.4 1.05-12.95.9l-13.3-.9q2.2-4.45 5.75-8.8 4.95-6.05 9.05-6.9 3.55-.75 11.45.3 7.7 1.05 7.7 2.1"/><path fill="#fff" d="m50.15 135.9 19.8-7.45q-.4 6.4-6.8 8.95-6.5 2.6-13-1.5"/><path fill="#eb6e8e" d="M166.6 239.6q.65-1.6 3.45-1.85t5.7.85q2.85 1.05 4.4 3 1.5 1.9.9 3.5T178 247q-2.45.25-5.35-.85-2.95-1.1-4.75-3-1.9-2-1.3-3.55m-18.25-20.65 11.8 1.4 7.75.65q2.1 2.3 1.45 4.3-.75 2.15-4.35 2.75-3.65.55-7.95-.75-4.35-1.3-6.9-3.75t-1.8-4.6"/><path fill="#fffcdb" d="M45.8 206.25q3.85 18 10.6 34.15 8.35 20.05 16.55 24.25-3.5 3.8-8.75 16.8-2.65 6.5-4.6 12.25-19.95-13.05-25.75-30.1-3.55-10.5-2.3-29.15 2.45-7.15 6.85-15.9 4.5-8.95 7.4-12.3"/><path fill="#fdd23f" d="M56.4 240.4q-6.75-16.15-10.6-34.15-2.9 3.35-7.4 12.3-4.4 8.75-6.85 15.9.7-10.3 3.35-25.6 2.55-4.5 7.2-10.1 4.6-5.65 6.85-7 2.95 13.8 10.15 32.95 9.85 26.3 18.5 33.05-2.25 2.95-4.65 6.9-8.2-4.2-16.55-24.25"/><path fill="#662c1f" d="M173.55 11.6q1.05-.75 2.05 1.1 1.05 1.85.35 2.5-34.85 36.25-40.3 43.5l10.1.4 6.95.35-5.65 7.7q-12.2.7-23.05 5.15l-9.3 4.65q-9.05 5.4-15.95 13.3Q91.4 98.7 86.9 109.5q-2.3 1.55-6.05.4-3.45-1.05-4.7-3.1l3.5-10.85q2.9-8.55 3.25-9 2.55-3.1 6.35-6.45l.25-.2 1.7-13.95q.9-8.7 1.05-12.9l9-5.35-.05 10.8-.65 13.2 24.6-18.25q5.8-4.1 6.45-5l7.9-23.35Q145 9.05 148 4.05q.4-.65 1.65 0 1.3.7 1.35 1.6l-1.85 11.4q-1.8 11.05-1.25 13.45 3.8-1.85 25.65-18.9"/><path fill="#8b694e" d="M251.05 263.7q2.05 1.5 4.2 4.05 1.9 2.3 2.2 3.25-2.7 1.55-7.35 1.85-4.7.3-7.7-.85-.15-8.6-3.85-21.05-4.7-15.8-11.35-19.6 10.45 3.85 25.4 12.3 16.75 9.5 21.6 15.4-2.95 2.5-9 3.75-6.4 1.35-14.15.9"/><path fill="#fffcdb" d="M26.05 191.7q4.65-4.7 8.45-2.15 1.2-4 5.3-7.15 4.95-3.85 11.1-3.4 9.25.8 16.3 10.45 7.55 10.35 8.15 25.7 6.5 2.55 10.7 6.8 3.8 3.85 3.8 6.8-2.25 4.4-7.4 7.05-3.55 1.8-10.3 3.5 8.7 7 9.85 14.95-5.5 1.1-10.9-.8-4.85-1.7-8.85-5.5-.4 8.55-7.05 17.9-6.1 8.6-13.35 12.55-3.8-3.6-7.45-9.9-4.25-7.15-4.65-12.15-3.6 3.3-10.85 4.1-1.7-3.8-2.3-7.95-.95-6.25.95-11.7-4.85-1.65-8.45-5.5-3.7-4-4.25-8.5 3.8 1.55 13.65.75-11.75-5.5-16.8-18.7 2.6-2.85 7.95-4.45 5.45-1.65 11.5-1.3.25-6.75 4.9-11.4"/><path fill="#662c1f" d="M28.05.9q3.25.7 3.2 2.95-.5 15.35 3.4 34.4 1.85 9 5.65 22.05.7 2.3 8.1 9.65 7.7 7.65 8.2 8.75 1.85 3.95 7.4 26.3l-10.7 2.35-20.95-36.1q-2-1.6-11.5-6l-10-4.45q-1.15-.55-.6-2.65.55-2.15 1.9-2.15l10.3.05 5.45.5-1.75-13.2L12.85 27Q3.55 15.35 1.2 11.5.1 9.75 2 8.05t3.3-.55l6.5 5.65 8.95 8.25Q23.3 6.9 24.4 1.85 24.8.2 28.05.9"/><path fill="#eb6e8e" d="M114.6 46.35q2.45-1.45 5.3-.8 2.85.7 4.35 3.15 1.25 2.05.95 4.25-.25 2.2-1.95 3.75 2.45-.65 4.6.9 2.3 1.65 2.3 4.45 0 3.05-2.65 4.6-2.5 1.45-4.95.5.8 1.1 1 2.35.5 2.6-1.05 4.9t-4.2 2.8q-2.7.5-4.9-.95-2.15-1.5-2.65-4.1-.15-.75 0-1.55-1.95 2.25-5.4 1.95-3.65-.3-4.7-3.2l.35-4.75q.7-1.2 1.8-1.75l-1.7-1.4.1-7.8q1.85-2.4 4.9-2.4 1.45 0 2.95.75 1.45.7 2.4 1.85-.5-2.15.35-4.2.85-2.1 2.8-3.3m-82-28.95q.2 2.45-1.15 4-1.25 1.5-3.1 1.4 1.8 1.2 1.95 3.9t-1.55 4.15q-2.05 1.75-4.9.65-2.8-1.15-2.65-3.25-.55 2.9-3.35 3.95-2.85 1.05-5-.95-1.55-1.4-1.25-3.55.2-1.9 1.55-3.25-2.15.1-3.6-1.8-1.55-2-.8-4.25.8-2.4 3.3-2.95 2.1-.5 3.75.45-.8-2.05.25-4.2 1-2.15 2.95-2.55 2.8-.5 4.75 1.55 1.85 1.95 1.3 4.15 1.9-2.3 4.65-1.25 2.65 1 2.9 3.8"/><path fill="#8b694e" d="m29.8 95.45-.3 4.05q.7 4.1 5.5 4.2t6.8-3.45q1.2-3.85 1.5-4.35 1 1.45 3.45 2l2.25.2q3.3 5.25 4.7 9.3l-15.55 8.7q-2.9-.45-5.9-1.55-2.7-.95-4.6-2.1-1.8-1.15-7.2-8.65-6.2-8.6-7.3-13.45-.25-1.2.1-1.65.4-.4 1.8-.5 4.1-.35 6.75 0 1.1 5.35 4.65 6.85 1.8.75 3.35.4"/><path fill="#662c1f" d="M31.8 95.95q8.6 1.75 10.75 3.1.55.35 2.9 4.65 2.35 4.25 2.95 5.95l-5.05 3q-2.75-.05-7.4-1.55-3.9-1.25-4.8-1.85-2.65-1.75-6-7.65-3.25-5.7-2.55-6.9.85-.45 9.2 1.25"/><path fill="#eb6e8e" d="M29.6 96q-3.1-.4-4.9-1.75-2.3-1.75-2.7-5.35-.3-2.85 2.1-5.15 2.25-2.15 4.7-1.9-1.9-2.2-1.15-5.5.8-3.4 3.7-4.45 3.35-1.25 6.25.7 2.75 1.85 3.05 4.85 1.3-2.65 4.7-2.6 3.3.05 4.85 2.45 1.3 2.05.95 4.95-.4 3.05-2.4 4.3 2.05.5 3.1 2.75.95 2.15.35 4.5-.85 3.3-4.15 3.9-3.2.65-4.9-1.8-.3 4.5-3.3 6.5-2.8 1.85-6.65.95-2.35-.5-3.45-2.9-1.05-2.3-.15-4.45m111.1-63.55q0-1.8 1.3-3.1 1.25-1.3 3.05-1.3 1.85 0 3.1 1.3 1.3 1.3 1.3 3.1t-1.3 3.1q-1.25 1.25-3.1 1.25-1.8 0-3.05-1.25-1.3-1.3-1.3-3.1M34.75 53.55q0-2.3 1.65-3.9Q38 48 40.3 48t3.95 1.65q1.65 1.6 1.65 3.9 0 2.35-1.65 3.95-1.6 1.65-3.95 1.65-2.3 0-3.9-1.65-1.65-1.65-1.65-3.95"/><path fill="#fdd23f" d="M110.6 60.8q0-1.7 1.2-2.85 1.15-1.2 2.85-1.2t2.85 1.2q1.2 1.15 1.2 2.85t-1.2 2.85q-1.15 1.2-2.85 1.2t-2.85-1.2q-1.2-1.15-1.2-2.85M17.25 20.65q0-1.45 1.05-2.5t2.5-1.05 2.5 1.05 1.05 2.5-1.05 2.5-2.5 1.05-2.5-1.05-1.05-2.5m15.7 66.85q0-1.75 1.25-3.05 1.3-1.25 3.05-1.25 1.8 0 3.05 1.25 1.25 1.3 1.25 3.05 0 1.8-1.25 3.1-1.25 1.25-3.05 1.25-1.75 0-3.05-1.25-1.25-1.3-1.25-3.1m120-27.8q.8.35.55 1.75-.3 1.5-1.8 3.25-2.5 2.95-4.7 2.3-.9-.25-.55-1.9.4-1.75 1.7-3.3 1.3-1.5 2.6-2.05zm-56.3-13.75q1.9-1.2 3-.7 1.4.65 1.6 2.95t-.95 4.8q-1.25 2.8-3.45 4.2-2 1.25-3.3.6-1.4-.7-1.3-3.3.05-2.35 1.2-4.85 1.1-2.4 3.2-3.7m-70 7.05q1.15 1.95 1.05 3.7-.1 1.6-1.05 2.2L24 58.8q-1.55-.75-2.5-2.55-.95-1.75-.85-3.55.1-1.75 1.15-2.2 1.1-.55 2.65.35 1.4.8 2.2 2.15"/><path fill="#501e12" d="M112.7 75.2q1.25 1.5 1.9 1.85-9 5.4-15.9 13.3-7.3 8.4-11.8 19.15-2.3 1.55-6.05.4-3.45-1.05-4.7-3.1l1.1-3.65q2.6 1.3 5.35.65 3.35-.75 5.35-4.3 3.15-5.45 9.45-11.8 7.05-7.15 15.3-12.5m10.95-5.45q7.3-2.35 11.2-3.2 5.75-1.2 11.45-1l.75 1.6q-12.2.7-23.05 5.15-.35-1.4-.35-2.55m-74.6 27.7q7.35-3.65 9.3-13.7Q60.6 91.25 64 105l-10.7 2.35-2.25-4.85q-2.2-4.9-2-5.05"/><path fill="#cc5f7c" d="M129.7 59.85q1.35 4.4-2.3 6.6-3.5 2.05-5.35-.05 2.85-.35 4.9-1.9 2.3-1.75 2.75-4.65m-19 11.05q1.8 3.8 6.95 3.3 5.25-.55 5.55-5.8 1.1 2.7-.35 5.45-1.5 2.8-4.55 3.35-2.95.55-5.45-1.5-2.45-2.05-2.15-4.8m1.35-3.45-.9 1.65q-.7 1.1-.5 1.6-1.95 2.15-5.4 1.85-3.55-.3-4.6-3.2l.15-1.55q1.5 2.15 5.55 1.9 4-.2 5.7-2.25m29.25-32.9q4.95.25 8.05-2.85.3 1.8-.6 3.25-1.1 1.85-3.7 1.85-2.5 0-3.75-2.25m-101 24.6q-2.7 0-4.35-2.15l5.05-.35q2.55-.9 4.05-3.2l.5-1.85.35 1.95q0 2.35-1.65 3.95-1.6 1.65-3.95 1.65"/><path fill="#501e12" d="m135.55 58.6-3.3-.45q6.15-7.8 20.6-22.5 15.9-16.25 21.75-19.7-.75 1.4-19.5 22-18.9 20.75-19.55 20.65"/><path fill="#cc5f7c" d="M33 93.55q-3.25 1.3-3.7 2.4-3.65-.55-5.55-2.5-2.3-2.25-1.7-5.95 1.35 2.8 4.85 4.55 3.05 1.5 6.1 1.5"/><path fill="#cc5f7c" d="M38.9 102.6q-2.7 1.45-5.7.75-2.65-.6-3.55-2.95-.6-1.65-.35-4.45 1.45 3.5 6.5 3.75 4.95.3 7.5-2.8-1.35 4.05-4.4 5.7m12.5-14q1.15 1.6 1.05 3.8-.15 2.1-1.35 3.6-3.1 3.75-7.95-.4 5.6 1.05 8.25-7M11.65 29.25l5.5-.15q2.7-1.25 3.65-3 1.7 2 4.4 1.8t4.9-2.45q.4 1.45.1 2.95-.4 1.55-1.45 2.45-2.05 1.75-4.9.65-2.8-1.15-2.65-3.25-.55 2.9-3.35 3.95-2.85 1.05-5-.95-.9-.8-1.2-2"/><path fill="#501e12" d="M10 59.8q-.25-.55 9.8 2.95 10 3.5 10.65 4.2L31.9 70l.35 1.4-11-5.5Q10.2 60.35 10 59.8"/><path fill="#755841" d="M72.4 164.7q-6.85 8.65-16.9 10.6-7.4 1.4-14.4-.95l.45-5.6-.3-4.25q11.1 4.35 17.1 4.45 6.5.15 14.05-4.25M31.9 284q-.9-9.3-1.05-12.25-.45-7.5.2-12.25 1.65 15.6 29 34.5-1.7 2.9-4.6 6.3l-4.75 5.4q-2.15-7.1-7.7-13.35-5.3-6.05-11.1-8.35M142 324.75q-1.1-4.5-1.4-10.05-.3-5.45.3-9.65l9.75-2q4.85-.95 8-.95l15.15 1.8 19.7.95q-3.75 4.25-10.25 13.85-6.6 9.75-6.95 11.8-.65 3.65 1.7 7.95 1.3 2.35 3.95 6.1-8.1-7.35-18.45-12.4-10.1-4.95-21.5-7.4"/><path fill="#dddabe" d="m136.25 293.85 22.15-2.5 13.9.95q8.85.7 15.1-1.95 3.1 8.3 5.8 13.85l-18.45-.7-16.1-1.4-26.45 4.15q-20.25 2.5-37.75-.6 10.85-5.35 19.85-11.8 12.05 1.1 21.95 0"/><path fill="#501e12" d="M31.15 436.7q1.05 1.9 1.7 4-1.3 1.9-7.85 3.55-7.35 1.85-12.5.4 10.9-1.85 18.65-7.95m222.25 16q7.6-2.25 12.6-4.65 6.9-3.4 10-7.7.65 4.15.1 5.75-2.4 3.25-9 5.45-7.25 2.45-13.7 1.15m-97.65-19.65h.5q.15 3.7-.4 5.45-3.8 2.4-9.75 4.05-5.35 1.45-9.6 1.6 10.25-3.3 19.25-11.1"/><path fill="#dddabe" d="M48.05 274q7.8 4.4 16 7.75-2.6 6.4-4.45 11.95-10.55-6.85-17.25-15 3.55-1.75 5.7-4.7"/><path fill="#0f141b" d="M55.5 105.35q10.3-3.05 21.05-1.45l-.6 2.65q-20.45-3.55-38.4 11.3-1.8 1.5-2.3 4.85l-.6 4.7q-.7 2.6-11.6 9.55-9.6 6.15-16.9 9.5l-2-.05q-1.35-.4-.95-.55 5.1-1.75 17.1-9.45 12.1-7.85 12.65-9.95l.2-4.9q.25-3.35 2.9-5.55 9.15-7.55 19.45-10.65m37.95 4.25-2.15 2.25-3.45-1.8q-.95-.05-.25-1.6.75-1.55 1.4-1.1h.05q2.4.95 4.4 2.25m7.95 27.4q-.15-6.15-.9-10.4l2.9.2q.55 4.05.6 9.9l-.2 11.35q-.4 16.95-.15 23.55.7 14.95 4.2 27.35.9 3.2 5.65 7.05 4.6 3.75 9.5 5.35 13.45 4.4 33 6.5 20.15 2.15 33.8.4 35.05-4.55 47.55 24.25 6.45 15 7.05 31.05.25 7-1.45 24.75l-.7 6.8q-.4 4-.4 6.45-.1 9.25 4.7 14.65 2.8 3.1 9.4 6.25 7.2 3.05 8.2 3.9 2.85 2.4 2.7 8.6-.7 22.15 5.7 48.65 6.05 25.1 15.05 40.9.35.65-.2 1.05-1.35 1.2-5.5 1.55-3.7.35-6.55-.1-.35-.05-.2-.9.1-.85.45-.8l5.15.2q2.7-.25 4.05-.9-7.8-14.15-13.9-39.05-6.45-26.35-6.45-47.2 0-7.75-.9-9.15-1.15-1.75-9.3-5.4-5.85-2.65-9-6.4-5.05-6-5.1-15.85-.05-3.6.85-12.85 1.4-15.35.5-26.05-1.25-15.25-7.25-29.05-5.9-13.65-17.3-19.25-11.45-5.6-28.9-3.3-14.35 1.85-35.45-1.3-17.1-2.55-30.15-6.8-5.1-1.65-10-5.2-5.6-4-6.7-7.75-3.55-12.75-4.45-27.35-.5-8.7-.1-23.5z"/><path fill="#0f141b" d="M35.4 117.9q.3-.1 0 .95l-.55 1.2q-2.1 1.35-3.45 5-1.2 3.2-1.1 6.15 0 .4-.85.4-.85.05-.85-.35-.15-4.7 1.25-8.05 1.7-4 5.55-5.3M259.1 426q-.2-1.5.45-1.15t.85 1.85l.4 3.15q-.1 2-1.5 4.2-3.65 5.6-4.8 12-1.05 5.65.25 5.85 6.4.9 12.75-1.35 5.6-1.95 7.8-4.85.5-1.6-.4-6.6-.65-3.9-.7-5.6 0-2.25.95-3.9.85-1.5 1.6-1.5.8 0-.05 1.5-.85 1.55-.75 4.2.05 1.6.65 5l.8 4.35q.3 2.5-.3 3.35-2.55 3.5-9.2 5.75-7.05 2.3-13.75 1.35-3.05-.45-1.5-7.8 1.5-7 5.2-12.7 1.2-1.85 1.4-3.9z"/><path fill="#0f141b" d="M257.45 434.15q2.1-.95 4.95-.7 3.15.35 5.6 2.15 2.25 1.65 4.2 2.15l3.55.15q.35 0 .4 1.05t-.3 1.05l-4.05-.45q-2.2-.65-4.8-2.6-2-1.45-5.05-1.6-2.65-.15-4.45.65-.3.15-.3-.75-.05-.95.25-1.1m-80.2-170.6q-.55-2.25 0-3.45.5-1.25 1.15.9 7.85 25.85 13.95 39.5 7.45 16.6 15.3 22.6 3 2.25 6.95 4.55l7.05 3.75q9.05 4.6 13.05 7.65 6.55 5.05 10.05 12.15 7.2 14.75 10.85 37.45 3.95 25.05-.9 37.25 2.65 3.2 5.3 4.9.25.1-.15.9-.4.75-.7.55-4.45-2.65-6.9-5.8-.35-.45-.1-.85 5.95-14.15 1.05-40.55-3.8-20.5-10-33.1-3.25-6.65-10.25-11.55-3.2-2.25-13.2-7.35l-7.25-3.85q-4.05-2.35-7.1-4.65-8.4-6.4-15.75-22.75-6.8-15.2-12.4-38.25M10.6 147.1q-7-.65-7.5 1-.65 2.35.2 6.15.9 3.8 2.65 6.3 1.6 2.3 2.65 2.4 1.1.15 3.05-1.8 2.3-2.35 4.2-5.85 2.05-3.8 1.9-5.9-.1-1.65-7.15-2.3m-9.5.1q1.35-3.15 10-2 8.55 1.1 8.75 4.1.15 2.5-2.2 6.6-2.1 3.75-4.8 6.45-2.35 2.35-4 2.35-2.05 0-4.3-3.2-1.9-2.75-3.1-7.35-1.3-4.85-.35-6.95"/><path fill="#0f141b" d="M30.85 162.3q-3.2-.2-12.1 1.8l-7.15 1.2q-2.95.1-4.25-1.35-.2-.25.6-.6L9 163.3q1.15 1.45 9.4-.85 9.4-2.55 12.9-2.45 4.1.1 11.05 3.45 5.45 2.6 8.55 3.5 5 1.5 9.25.9 6.05-.85 13.6-4.85 5.9-3.15 7.95-5.2 1.95-1.95 1.65-.8-.3 1.1-2.25 3.05-2.5 2.5-7.15 5.3-6.9 4.15-13.1 5-4.45.6-10-1.15-1.65-.55-9-3.6-7.45-3.1-11-3.3"/><path fill="#0f141b" d="M34.7 167.05q-9 2.5-13.2 2.7-8.25.3-12.65-4.8-.25-.25.7-.65l1.15-.15q4.3 3.95 11.55 3.65 4.1-.2 12-2.4l6.2-1.45q.4-.05 1.7.75 1.35.8.95.75-2.05-.2-8.4 1.6m15.9-38.6q2-4.5 4.45-4.7 7.5-.6 15.9 4.5 9.1 5.55 9.85 13.05.8 7.9-5.25 16.35-5.95 8.4-14.4 11.65l-1.45-.35q-1.1-.5-.8-.6 8.6-3.15 14.45-11.3 5.85-8.1 5.05-15.6-.65-6.85-8.8-11.9-7.45-4.65-14.4-4.1-1.35.1-2.7 3.3-1.3 3.2-1.65 7.1-.05.35-1.2.55l-1.15-.1q.35-4 2.1-7.85"/><path fill="#0f141b" d="M68.95 128.65q.05-.35 1.05-.25 1.05.1 1 .45-.45 6.6-7.2 9.35-7 2.9-14.1-1.55-.3-.2.15-.9.45-.75.75-.55 6.05 3.8 12.1 1.35 5.9-2.35 6.25-7.9"/><path fill="#0f141b" d="M62.3 138.55q-.3-.05.65-.7 1-.65 1.2-.55 4.2 1.6 5.85 6.2 1.5 4.3.25 9.65-1.35 5.5-5.05 9.65-4.15 4.6-10.1 6.1-.35.05-1.75-.5l-1-.6q6.3-.9 10.6-5.2 3.8-3.8 5.1-9.25 1.25-5.15-.25-9.3-1.6-4.4-5.5-5.5m41.55-41.05 20.8-.75q16.9.7 17.75 3.3.7 2.05-7.3 14.2-7.85 11.95-9.9 12.75l-15.6.7q-12.15-.4-17.1-1.5-2.25-.45-2.45-1.25-.2-.85 1.5-.4l17.2 1.15q13 .05 15.65-1 1.65-.65 8.9-11.3 7.2-10.6 7.45-12.7-1.95-1.4-16.65-1.8-15-.45-19.7 1-1.55.5-7.4 7.15-5.05 5.8-8.15 10.05-1.2 1.65-1.4.9-.2-.7.85-2.5 2.25-3.7 7.25-9.85 6.05-7.45 8.3-8.15"/><path fill="#0f141b" d="M122.15 114.55q2.85-4.95 3.15-6.7-1.6-.85-8.05-1.7-6.95-.85-10.05-.2-3.6.75-7.85 5.7-3.2 3.7-5.75 8.5l13.95.65 10.7-.8q1.05-.35 3.9-5.45m5.15-7.3q0 1.65-3.45 7.8-3.6 6.45-5.4 7l-11.7.7-14.65-1.1-.75-.25q-.2-.25.15-.95 2-3.9 4.75-7.65 5.55-7.45 10.6-8.5 3.65-.75 11.85.2 8.6 1 8.6 2.75M91.65 195.2q.25-1 .85-.4t.35 1.65q-1.05 4.05-5.4 11.35-1.2 2.05-1.65 1.95-.4-.15.8-2.4l2.8-5.95q1.75-4.1 2.25-6.2m-53-12.65q1.95-12.6 1.3-17.6-.05-.35 1-.45t1.1.25q.7 4.95-1.15 16.6zm5.35 95.6q6.75 8.9 16.7 15.3l-.7 1.25-.75 1.2q-15.9-9.75-23.85-24.7 4.1 4.65 8.6 6.95m114.65 24.8-5.3.5-5.9 1.15q-13.1 2.8-20.8 3.6-16.55 1.65-35.55-.6 3.5-1.75 4.65-2.65 18.25 2 32.3.95 8.15-.6 19.05-2.95 7.85-1.7 11.55-1.7l15.05 1.6 19.1.8q.35-.05 1 1.25.65 1.25.3 1.3-6.3.8-20.65-1.1z"/><path fill="#0f141b" d="M139.25 305.65q.05-.3 1.5-.45l1.4-.05q-.9 5.35-.3 12.4.6 7.65 2.6 11.65.65 1.25 5.4 5.45 4.95 4.35 7 6.75 3.6 4.1 3.95 7.4v.9q0 14.3-6.7 32.35-6.05 16.4-14.8 28.85.2 2.6 1.25 5.8.95 2.85 1.7 3.75l-.5.75q-.65.6-.85.35-1.3-1.6-2.95-6.15-1.55-4.45-1.15-5 9.05-12.75 15.35-29.05 7.15-18.5 6.95-32.45-.3-2.8-3.85-6.65-1.85-2-6.9-6.35l-3.75-3.15q-1.8-1.55-2.3-2.55-2.25-4.5-3.15-11.85-.8-7.1.1-12.7m53.05-1.6q.25-.25 1.05 1.35.85 1.6.6 1.85-3.65 3.85-9.95 12.55-6.5 9-6.85 10.85-.55 2.8.9 6 .85 1.9 3.1 5.1l2.3 3q1.25 1.6 1.2 2.5-.05 2.45-1.9 6.35l-4.65 8.3q-9 14.95-12.6 28.25-5.25 19.55-1.35 40.95.25 1.1-2.2.7-2.75-.5-6.25-3.1-.2-.15.2-1 .4-.9.6-.6.55.7 2.25 1.6 1.8.9 3.3 1.2-1.45-8.25-1.45-16.2 0-15.45 5.4-30.7 3-8.65 10.15-22.2l4.05-8.05q1.7-3.8 1.75-5.95 0-.85-2.2-4.05-2.85-4.1-3.8-6.9-1-2.8-.5-5.5.4-2.35 6.95-12.55t9.9-13.75"/><path fill="#0f141b" d="M141.9 414.6q-.05-1.8.6-1.15.65.6.65 2.25 0 3.7-1.2 6.6-.8 1.8-3.05 5.1-3.75 5.35-4.8 9.9-.55 2.25-.5 5.75 2.6.75 9.35-.65 7.4-1.6 12.15-4.5.55-1.2.15-8.25-.45-7.4.25-9.85.5-1.75 1.05-1.4.5.35.1 2.15-.65 3.1.4 9.75 1 6.35.35 8.35-.7 2.15-11.6 4.7-11 2.55-14 1-.9-.4-.1-5 1.05-6.05 5.8-12.9 2.35-3.45 3.15-5.3 1.3-3.05 1.25-6.55"/><path fill="#0f141b" d="M136.8 428.95q-.05-.85.2-1.1 2.8-2.3 6.45-1.25 1.6.5 6.25 3.15l3.45 1.85q1.75.75 2.8.5.35-.05.55.75t-.15.9q-1.45.35-3.55-.45-1.35-.55-3.95-2.1-3.7-2.15-6.1-2.7-3.45-.8-5.65 1.1-.25.25-.3-.65m33.55-190.45q-2.55.15-3.05 1.4-.4 1.05 1.3 2.8t4.3 2.75q2.65 1 4.8.85t2.65-1.45q.45-1.2-1.2-3.05-1.6-1.7-3.65-2.5-2.6-1-5.15-.8m-4.45.85q.75-1.9 4.15-2.1 3.1-.2 6.3 1 2.9 1.1 4.45 3.1 1.7 2.1.95 4.05-.7 1.85-3.35 2.25t-5.8-.8q-3.25-1.25-5.25-3.3-2.2-2.25-1.45-4.2m-9.35-11.65q-4.75-1.45-7.3-4.15-2.4-2.6-1.6-4.85.05-.15.75.2l.65.3q-.6 1.7 1.8 3.95 2.5 2.3 6.4 3.45 4.2 1.3 7.6.75 3.2-.55 3.8-2.3.3-.9-.4-2.25l-1.2-1.85.65-.25.75-.2q2.7 2.95 1.95 5-.85 2.45-5 3.05-4.05.6-8.85-.85m-4.1 40.95q-7 2.2-14.55 1.9-.35-.05.05-1 .35-1 .7-1 7.55.3 14.05-1.8 6.45-2.1 10.15-6l1.3.05q2.25 2.6 7.2 4.65 4.2 1.7 7.95 2.2.35.05.3 1.05 0 1.05-.35 1-3.55-.5-7.9-2.3-5.15-2.2-7.9-4.9-4.05 3.9-11 6.15"/><path fill="#0f141b" d="M148 277.1q-8.95 2.35-14.8.55-.35-.1-.15-1.05.15-.95.5-.85 5.6 1.7 14.55-.65 7.8-2.05 14.95-6.15l1.05.15q3.15 3.1 9.25 4.75 4.9 1.35 8.6 1.15.35-.05.25 1.05-.1 1.05-.45 1.1-3.45.2-8.5-1.3-6.2-1.8-9.85-5.15-7.7 4.35-15.4 6.4m-59.9-32.3q1.8-1.65 3.2-1.95 1.4-.25-.3 1.35-4.5 4.15-8.7 9.4l-.85-2.35zm-30.9 50.8q2.6-4.2 4.35-9.55 3.55-10.7 7.45-18 3.9-7.15 9.55-13.6h3.1q-11.95 15.3-18.3 34.45-1.35 4.05-4.35 8.3l-5.75 6.9q-4.35 4.85-4.85 7.05-.45 1.95 1.95 4.55Q63.6 330 71.1 345.95q10.85 23.2 11.7 53 1.7 1.55 4.35 2.8 2.6 1.25 4.65 1.55.35.05.4 1.3t-.3 1.2q-2.15-.3-6.75-2.65-4.75-2.45-4.8-3.45-.9-31.3-10.85-53.2-7.25-15.9-21.05-29.55-3.3-3.3-2.5-6.15.65-2.15 5.4-7.5 3.65-4.1 5.85-7.7"/><path fill="#0f141b" d="M140.55 263.4q1.05-2.05 1.2-.65t-.85 3.3q-9.45 18.75-27.7 31.1-13.55 9.2-36.3 17.2 1.15 3.55 4.4 8.15 2.65 3.65 6 7.15 1.25 1.25 1.7 2.1.45.9.3 2-.55 4.2.05 10.3.55 6.25 1.95 11.05 3.85 13.45 12 26.7 7.85 12.9 15.25 18.35 1 .75-.1 1.45-2.4 1.3-5.3 2.05l-5.4.7q-.25 0-.75-.9-.55-.9-.2-.85 4.35.45 9.05-1.7-7.3-6-14.8-18.95-7.5-13-11.4-26.35-1.4-4.85-2.3-10.85-1-7.05-.5-10.95.1-.7-.2-1.3l-1.3-1.55q-3.3-3.4-6.25-8-3.2-5.05-4.3-9l.15-.5.4-.5q20.75-7.65 36.05-18.1 20.2-13.8 29.15-31.45"/><path fill="#0f141b" d="M117.3 417.1q.45-3.7-.15-6-4.3-1.4-6.9-3.25-2.65-1.9-4.4-4.85-.75-1.35-.45-2.2.3-.8 1.1.65 2.95 5 11.95 7.75 1.55.5.8 6.75-.8 6.6-3.5 11.15-3.25 5.5-6.25 6.05-1.4.25-4.1-1.6-2.95-2.1-5.75-5.7-7.4-9.6-8.6-23-.2-2.05.5-2.9.65-.85.75 1.25.55 9.35 5.6 18.35T109 431q2.9-.7 5.25-4.75 2.5-4.1 3.05-9.15"/><path fill="#0f141b" d="m111.45 407.8.95-.1q.8.25.7.6-1.4 4.25-6.35 7.1-5.35 3-11.15 2.05-.35-.05-.4-1.05-.05-.95.3-.9 5.45.95 10.4-1.8 4.45-2.5 5.55-5.9M67.6 342.25q.1-.3 1.1.7.95 1 .85 1.35-1.1 3.2-3.3 7.5l-4.55 8.75q-10.35 20.85-14.4 33.5-6.85 21.1-4.95 39.5.2 1.15-1 .9-2.2-.45-4.7-1.75-2.45-1.25-3.9-2.65-.15-.1.25-.9.35-.85.6-.65 2.3 2.45 6.4 3.6-1.1-12.35 1.3-24.05 4.05-19.55 18.1-47.85 6.35-12.75 8.2-17.95m-38.15-83.8q.7 2.75 2.55 5.7-.05 18.75 4.5 35.5l1.05 4.4.25 3.65-.85 16.15q-.05 1.4 4.5 5.1Q46 332.6 46 333.5q-.2 18.15-4.25 32.8-6.85 24.4-24.4 43-.5 2.7.35 6.9t2.25 6.05l-.45.8-.75.4q-2.1-2.2-3.45-8.6-1.35-6.15-.35-7.15 15-15.4 21.85-33.35 6.75-17.6 7-41.05l-5.05-3.5q-4.6-3.2-4.45-5.3l.8-7.7.7-9.2q0-2.8-1.85-8.95-5.4-17.95-4.5-40.2"/><path fill="#0f141b" d="M21.05 418.15q.05-1.45.7-1.2.65.2.7 1.3.1 2.7-3.65 6.55-5.8 6.2-7.1 12.4-.45 2.05-.15 6.15 4.7 1.95 12 .3 6.45-1.45 7.9-3.35l.35-7.8q.3-5.75 2.35-6.55 1.3-.55 1.55-.25.2.3-.8 1.3-1.6 1.6-1.2 7.45.45 6.15.05 6.8-1.5 2.65-9.4 4.3-8.7 1.75-14.4-.9-.35-.2-.6-1.85-.25-2.05.2-4.6 1.3-7.45 8.05-14.55l2.4-2.8q1-1.45 1.05-2.7"/><path fill="#0f141b" d="m32.9 437.85-.3 1.8q-.4 1.55-.55 1.2-2.05-5.5-6.4-10.1-4.75-5.05-8.65-4.65-.35.05.2-.85.55-.85.85-.85 4.15.2 8.5 4.35 4.05 3.85 6.35 9.1m32.1-301q-3.85 1.45-6.85 1.35-3.85-.05-7.65-2.55.3-.35 7.2-3.15l6.9-2.7q.65 1.35.8 3.3.15 2.05-.4 3.75"/><path fill="#fff" d="M58.85 132.25q.45 1.4.05 2.65-.4 1.3-1.4 1.75l-2-.15q-1-.65-1.45-2z"/><path fill="#0f141b" d="M68.6 127.7q.35-.05 1 .6.7.7.35.75-2.35.7-25.35 10.25l-25.25 10.3q-.35.1-.6-.7-.3-.8.05-.9l24.6-10.4q22.25-9.45 25.2-9.9M73.95 264q.3.15-.3 1t-.95.7q-5.8-2.65-11-11.3.35-1.95.35-4.35 6.15 11.4 11.9 13.95m2.4-9.85q1 1.15 2.35 2.3.35.25-.5 1.15-.85.85-1.2.55-1.8-1.45-3.75-3.85zm198.5 4.35.2.6-.35.6q-3.35 2.8-9 4.25-6.1 1.5-13.5 1.05l-1.25-1q-.85-1-.5-1l13.15-.7q6.1-1.15 9.3-3.4-5.25-5.75-20.7-14.45-13.65-7.75-24.05-11.8-.35-.15-.5-1.4-.2-1.25.15-1.15 9.4 2.8 25.35 12.25 16.5 9.8 21.7 16.15"/><path fill="#0f141b" d="M249.45 272q4.1-.2 6.85-1.4l-2.7-3.45q-2.15-2.3-3.9-3.35-1.7-1-.85-1.4.8-.35 2.6.7 3.05 1.8 5.4 5 2.1 2.9 1.5 3.35-2.75 2.05-7.45 2.6-4.6.5-7.9-.7-.35-.15-.5-1.2t.2-.95q2.65 1 6.75.8m-76.4-261.1q1.55-1.1 2.85 1.3 1.35 2.45-.15 3.95-34.65 37.25-38.3 42.75-.25.35-2.35-.55 3.75-5.7 40.2-43.65.1-.45-.35-1.45-.5-1.1-.9-.95-20 15.3-24.95 18.5l-1.1-1-1.1-.9q0-2.3 1.65-12.85l1.6-10.3-.6-.75q-.55-.35-.9-.4-2.35 3.95-9 23.45l-7.25 21.1q-.5 1.05-7.5 6.05-.25.15-.3-1.1 0-1.3.15-1.45l3.35-2.2 2.75-2.1 7.2-20.75q6.7-19 9.55-23.75.85-1.4 2.7-.25t1.7 2.45l-1.75 10.4q-1.75 10.5-1.75 12.9zM114.3 76.2q.3-.2.85.5t.25.85Q106.3 83 99.25 91.5q-6.9 8.3-11.25 18.7-.2.5-2.2.85l-4.3-.1q-2.05-.45-4.35-2.05-2.35-1.6-2.15-2.4L78.6 96q3.15-9 3.65-9.55 1.85-2.35 6.95-6.95.25-.2.5.65.25.8.1.95-3.95 3.65-6.2 6.35l-3 8.45-3.5 10.7 1.95 1.6q1.3.75 2.8 1.1 2.7.6 4.4-.4 4.4-10.45 11.5-18.75 7.15-8.35 16.55-13.95m32.7-9.9q.35 0 .9.8.55.75.2.8-6.35.3-12.7 1.75-7.05 1.65-12.4 4.3-.3.15.05-1.05.3-1.25.65-1.4 11.15-4.5 23.3-5.2m117.85 290.25q.1-.35.9-.25.85.1.8.45-.75 6-5.65 14.05-4.8 7.9-7.65 8.3-.35.05-.65-.7t0-.85q2.55-1.05 6.9-8.05 4.7-7.5 5.35-12.95m-105.1 15.5q-1.9-.65-2.8-4.15-.05-.35.65-.85.7-.55.75-.2.9 3.25 2 3.6 1.4.5 5.25-1.8l10.4-7.25q.3-.2.65.75.35 1 .05 1.2-7.7 5.75-11.35 7.6-3.55 1.8-5.6 1.1m-83.55-13q-.35.1-.8-.75-.5-.85-.15-.95 2.8-1.15 6.15-9.25 3.1-7.55 4.9-16.4.1-.35.9-.15.85.15.75.5-1.65 8.05-4.2 15.1-3.75 10.35-7.55 11.9M65.9 347q.25-.25.55 1.1t.05 1.6q-2.4 2.9-6.7 5.35-6.15 3.55-14.65 5.1-.5.1-.8-.3-.65-.75-1.2-2.65-.5-1.6-.5-2.35 0-.35.8-.9t.8-.2l.4 2.1q.4 1.85.75 2.5 7.8-1.55 13.95-5.6 4.05-2.65 6.55-5.75"/><path fill="#0f141b" d="m153.35 58.95-.75.7q-1 .55-1.5.5l-6.1-.25-8.7-.3-4.7-.6q-1.55-.5-1.85-1.4-.35-.9 1.15-.35l14.15.95z"/><path fill="#0f141b" d="M152.55 61.75q.4-1.05.05-1.3l-1.6.15q-1.1.5-2.2 1.75-.95 1.1-1.4 2.45-.35 1.1-.2 1.4 1.3.9 3.85-2.05 1.1-1.25 1.5-2.4m.8-2.85q1.1.6.8 2.45-.35 1.95-2.05 3.95-2.9 3.25-5.7 2.45-1.2-.35-.95-2.2.25-2 2-4 1.5-1.75 3.05-2.45zM100.4 48.4q-.1-1.9-1.1-2.4-.75-.35-2.3.7-1.8 1.2-2.75 3.3-1.05 2.35-1.15 4.45t.85 2.6q.9.5 2.65-.75 1.95-1.4 2.95-3.65t.85-4.25m-.4-3.95q1.75.8 2.05 3.4.35 2.6-.95 5.5-1.4 3.05-3.85 4.6-2.4 1.5-4.1.65-1.75-.9-1.7-3.8 0-2.55 1.3-5.45 1.25-2.7 3.55-4.15 2.15-1.4 3.7-.75"/><path fill="#0f141b" d="M101.2 48.9q.75-1.5.75-1.05.35 4.55-.2 15.2-.55 10.4-1.25 14.2-.3 1.75-1 1.9-.7.2-.4-1.55.55-3 1-11.8l.35-14.55q0-.85.75-2.35m-9.55 3.9q.05-.35.65.7t.6 1.45q-.2 5.1-1.15 13.8-1 9-1.85 12.7-.35 1.55-1.2 2.2-.9.65-.55-.9.7-3.05 1.9-14.35zm-56.3 137-.5.75-.8-.25q-3.45-2.3-7.7 2.55-4.15 4.7-4.35 10.25 0 .85-.9.85-5.6-.3-10.7 1.1t-7.7 4q2.7 6.7 6.7 11.05 4 4.25 9.95 6.85l-1.35.4-2 .05q-5.55-2.7-9.05-7.1-3.3-4.05-6.05-11.15-.2-.45.15-.9 2.9-3.15 7.85-4.85 5.5-1.9 11.5-1.2.6-7.6 5.1-11.75 4.25-3.85 8.55-2.05 2.6-7 9.3-9.55 6.5-2.45 13.7.55 7.7 3.2 12.7 11.55 5.75 9.55 6.4 23.65 6.55 2.7 10.7 6.95 3.85 3.95 3.85 7.2 0 1.95-3.55 5.1-4.8 4.35-12.75 6.05 3.6 3.15 5.6 6.4 1.9 3.15 2.65 6.9.4 1.85-1.55 2.05l-9.85-.4q-4.65-1.35-8.9-5.25-.2-.2-.15-1.5.1-1.3.3-1.1 3.9 3.9 8.7 5.6 4.8 1.65 9.75.9-1.4-7.2-9.3-13.5-.7-.55-.45-1 .2-.35.75-.5 6.4-1.6 9.85-3.35 5-2.5 7.15-6.6-.15-2.65-3.7-6.15-4.05-4-10.2-6.45-.55-.15-.55-.75-.75-13.15-6-22.25-4.6-8-11.6-11.25-6.6-3-12.65-.85-6.2 2.25-8.9 8.95"/><path fill="#0f141b" d="M61.35 245.3q-.15-2.1.55-1.4.7.65.9 2.95.9 9.25-6.2 19.2-6.15 8.65-14.35 13.1-.5.3-1-.15-4.65-3.9-7.95-8.95-3.85-5.95-4.5-11.6-3.8 2.75-10.2 3.4-.6.1-.85-.45-2-4.4-2.4-9.55-.35-5.45 1.2-10.55-7.05-1.95-10.95-9.1-1.4-2.55-1.75-4.65-.35-2 .45-1.8l5.25.9q4.8.5 10.6-.1 1.95-.2 1.65.4-.35.55-2.3.9-8.3 1.45-13.5.2.95 3.8 4.2 7.1 3.3 3.35 7.6 4.85l.35.55.2.55q-1.55 4.45-1 10.05.45 4.55 2.05 8.35 6.5-.8 9.8-3.75.75-.7 1-.6.35.1.4 1.15.4 4.6 4.2 11.25 3.4 5.9 7.2 9.8 8.05-4.7 14.05-14.7t5.3-17.35"/><path fill="#0f141b" d="M31.5 225.65q.6-2.35 1.45-2.95.8-.55.2 1.45l-1.2 6.6q-.75 5.2-.8 6.95-.05 2.55-.7 2.3t-.55-2.95q.1-2.15.55-5.6.5-3.55 1.05-5.8M27.95 1.9l-2.7.15q-.95 4-1.4 8L22.8 10q-1-.35-.95-.7.2-1.5 1.75-7.65.55-2.3 4.7-1.5 4.2.85 4.1 3.7-.15 6.3.2 11.9-1.1-1.1-2-1.6-.35-5.85-.2-10.35.05-1.3-2.45-1.9m9.75 46.25-1.4.85q-3.45-13.85-5-27.3 1.15-.85 1.6-2.05 1.15 13.9 4.8 28.5m2.15 13.15-.95-2.75 2 .75.35 1.15q.55 1.55 8.4 9.2 7.95 7.7 8.35 8.7.9 2.2 3.35 11.95l3.5 14.45q.1.35-.75.6-.8.2-.9-.15l-3.6-13.75q-2.8-10.1-3.75-12.35-.2-.55-7.7-8.15-7.45-7.65-8.3-9.65M4.8 8.15q-.85-.65-2.2.55-1.4 1.2-.7 2.35 1 1.65 6.7 8.95l-.4 2.3Q1.45 13.65.45 11.95q-1.4-2.25 1-4.5Q3.8 5.2 5.85 6.8q6.05 4.8 9.3 8.3l-1.15.2-1.6-.25q-3.65-3.75-7.6-6.9m4.55 15.6q.55.2 1.45.7l1.55.25.25.35-.95 1.55zM26.65 43l.9 4.35 1.05 5.95-1.1.15q-1.1-.25-1.15-.6l-1.15-9.2-9-11.35 1.85-.4zM21.2 57.4q-.25-.25.5-.55l.95-.05 5.75 6.65q4.55 5.55 5.55 8 .15.35-.65.65-.8.35-.9 0-.95-2.25-5.5-7.95z"/><path fill="#0f141b" d="M25.6 52.45q-.25-.25-.25-1.05.05-.75.3-.55 1.2.95 11.1 9.85 1.2 1.05.95 2.05-.25 1.05-1.25-.2zm-4.45 2.4q.35 0 .4 1 0 1-.35 1h-9.05q-.75 0-1.1 1.5-.35 1.45.15 1.7l9.9 4.5q10.2 4.75 11.8 6 .25.25-.55 1.1-.85.9-1.1.65-1.5-1.55-11.2-6.45l-9.4-4.55q-1.75-.8-.95-3.4.75-2.55 2.25-2.55z"/><path fill="#0f141b" d="M23.55 59.45q-1.9-1-2.8-2.8-1.05-2-.95-4.05.15-2.2 1.65-2.9 1.45-.65 3.3.35 1.7.9 2.65 2.55 1.15 1.95 1.15 3.95 0 2.15-1.45 3.05zm-1.4-8.2-.5.7q-.6 1.75.6 3.9 1 1.95 2.7 2.45l1.25-.1q.65-.45.65-1.7.05-1.45-.9-3.05-.65-1.15-1.85-1.85t-1.95-.35m81.1 12.35-1 .8-.85.95-1.15-1.15q.45-.75 1.15-1.35l-1-.9 1.4-1 1.7 1.15q.55.25.55.65.05.5-.8.85"/><path fill="#0f141b" d="M119.75 46.4q-3.15-.75-5.6 1.4-2.5 2.15-2 5.3.15.9-.3 1.9-.45 1.05-1-.65l-.6-.7q-1.85-1.8-4.6-1.55-2.85.25-4.15 2.55-.8-.05-.7-.95l.15-.85q1.95-2.45 4.9-2.45 2.65 0 4.75 1.9.15-3.65 3.1-6.15 3.05-2.55 6.55-1.65 4.05 1 5.2 4.9 1.1 3.55-.65 6.5 2.4.1 4.25 1.75 1.95 1.75 1.95 4.4 0 2.95-2.5 4.7-2.15 1.5-4.7 1.35 1.2 2.9-.25 5.95-1.5 3.35-5.1 4-3.2.6-5.85-1.4-2.6-1.95-2.7-4.8-2.25 1.8-5.35 1.4-3.35-.45-4.4-3.4l.15-.45q.3-.6 1-.5 1.05 2.65 3.95 2.9 2.9.3 4.85-2.2.5-1.55 2.15-2.45 1.7-.9.35 1.15-2.25 3.4.15 6.15 2.25 2.5 5.4 1.9 3.15-.55 4.3-3.6 1.05-2.9-.5-5.15-1.5-2.15.9-1.25 2.25.85 4.35-.55 2.1-1.45 2.1-3.75t-1.75-3.7q-1.75-1.45-4-.7-1.2.45-1.7 0-.55-.45.55-1.3 2.7-2.15 1.75-5.65-.95-3.45-4.4-4.3m-94.1-32.9q2.2-1.25 4.65-.3 2.75 1.1 3.05 4.25.35 3.75-2.15 5.35-2.35 1.5-4.45-.15-1.05-.9-1-1.55 0-.6 1.1.25 1.55 1.25 3.3.05 1.85-1.25 1.6-3.9-.2-2.4-2.45-3.1-2.2-.7-3.6 1-.65.8-1.2.55-.55-.3-.3-1.3.45-1.65-1.05-3.3-1.65-1.75-4-1.35-1.9.35-2.6 2.6t.5 3.8q.7.85.15 1.1-.5.25-1.2-.6-1.75-2.25-.8-4.95.95-2.65 3.7-3.15t4.65 1q1.7 1.3 2.1 3.7"/><path fill="#0f141b" d="M27.05 22.55q-.9-.25-.55-.5t1.25 0q2.9.85 3.4 4.1.45 3.2-1.8 5.1-1.9 1.65-4.6 1.2-2.4-.4-3.6-1.9-1.35 2.1-3.85 2.6-2.7.55-4.85-1.35-2.5-2.3-1.65-5.2.8-2.7 3.4-3.15 1.3-.2 1.8.4t-.9.5q-1.75-.15-2.6 2.15-.95 2.4.95 4.15 1.7 1.55 4.1.7 2.4-.9 2.8-3.25.25-1.15.9-1.05.7.15.6 1.35-.1 1.55 2.3 2.25t4.05-.45q1.9-1.35 1.35-4.25t-2.5-3.4"/><path fill="#0f141b" d="M9 23.4q-2.1-2.1-1.05-5.25.9-2.65 3.4-3.45 2.4-.75 4.55.55.65.35.75 1.35.05 1-.55.35-1.15-1.3-3.4-.85-2.45.5-3.15 2.6-.75 2.1.7 3.75 1.25 1.45 2.8 1.2.7-.15.85.45.1.6-.65.7-2.35.5-4.25-1.4m22.15 47.4q3.45-1.25 6.5.65 3.05 1.85 3.5 5.3.05.35-.7 1.3-.7.9-.7.5.2-2.95-2.2-4.95-2.6-2.15-5.9-.95-3.1 1.2-3.3 5.05-.25 3.85 2.95 4.75 1.25.35.9.8l-1.6.1q-4.35-1.2-4.15-6.05.25-4.8 4.7-6.5"/><path fill="#0f141b" d="M40.25 80.5q-.6-.55-.55-1.85.2-4.35 4.65-4.8 4.35-.4 6.55 3 1.7 2.65 1.15 5.7-.6 3.3-3.55 4.3l-1-.15q-.7-.25-.35-.35 2.5-.8 3.05-3.85.55-2.8-.75-4.75-1.5-2.35-4.85-1.95-3.45.45-3.65 3.85-.05 1.35-.7.85M15.2 87.2q4.35-.3 6.75-.15.35.05.25 1-.1 1-.45 1-3.45-.25-6.65 0-.95.05-1.15.35l.05.8q1.05 4.65 7.05 13.05 5.3 7.4 7.05 8.45 1.7 1.05 4.35 2 2.95 1.1 5.85 1.55.35.1.2.9-.15.85-.5.8-7.65-1.2-11.35-3.5-1.85-1.15-7.2-9.1-6-8.85-7.15-13.8-.45-2.05.1-2.65.5-.55 2.8-.7m32.95 11.1q-.2-.3.6-.6l1-.05q3.35 5.4 4.75 9.45.1.35-.7.6-.8.3-.9 0-1.35-3.9-4.75-9.4"/><path fill="#0f141b" d="m21.9 94.25 2.75-.25 1.75 1.85-3-.35q.25 1.95 3 6.55 2.95 5 5.2 6.5.9.55 4.65 1.75 4.55 1.45 7.1 1.5.4 0-.6.8l-1.55.65-6.6-1.4q-3.4-.9-4.1-1.35-2.7-1.8-6.15-8.15-3.45-6.4-2.45-8.1m21.4 3.85.05.05q.75.45 3.1 5.15l2.75 6.1q.1.35-.7.6l-.9-.05-2.45-5.05-2.8-4.75q.7-1.75.95-2.05m17.75 153.65q-.2-.3.55-.7l.9-.1Q68.4 261.5 73.95 264q.3.15-.05.95-.35.75-.65.6-6.1-2.7-12.2-13.8"/><path fill="#0f141b" d="M23.55 83.25q2.6-2.6 5.55-1.8l.95.85q.65.8.3.7-3.1-1.05-5.5 1.05-2.3 2-2 4.75.3 3.2 2.15 4.7 1.55 1.25 4.65 1.6.35.05.1.8t-.6.7q-3.4-.4-5-1.55-2.45-1.7-2.9-5.85-.35-3.35 2.3-5.95"/><path fill="#0f141b" d="M31.1 93.95q1.6-.75 2.2-.45.55.3-1.1 1-2.7 1.15-1.95 4.35.7 3.15 3.1 3.7 3.45.75 5.95-.9 2.75-1.85 3-5.8.05-.85.5-1 .5-.2 1.05.6 1.4 1.95 4.05 1.4 2.75-.55 3.45-3.25.75-2.9-.9-4.85-1.6-1.95-3.9-1.35L45 87.35q-.15-.45 1.25-.9 3.2-1.1 5.35 1.1 2.25 2.3 1.15 6.4-.9 3.35-3.85 4.3-2.75.85-5.1-.8-.8 3.9-3.9 5.65-2.9 1.6-6.8.8-3.3-.65-4.35-4.45-1.1-3.9 2.35-5.5m113.95-65q-1.45 0-2.45 1-1.05 1.05-1.05 2.5t1.05 2.45q1.05 1.05 2.45 1.05 1.45 0 2.5-1.05 1.05-1 1.05-2.45t-1.05-2.5q-1.05-1-2.5-1m-5.1 3.75q0-2.2 1.5-3.85t3.6-1.65q2.2 0 3.65 1.4 1.5 1.45 1.5 3.6 0 2.2-1.5 3.8-1.5 1.65-3.65 1.65t-3.6-1.4q-1.5-1.45-1.5-3.55m-22.1 28.1q0-1.3-.9-2.25-.95-.95-2.3-.95-1.3 0-2.25.95t-.95 2.25.95 2.25 2.25.95q1.35 0 2.3-.95.9-.95.9-2.25M114.6 56q2 0 3.4 1.4t1.4 3.4-1.4 3.4-3.4 1.4-3.45-1.4q-1.4-1.4-1.4-3.4t1.4-3.4q1.45-1.4 3.45-1.4m-79-2.45q0 2 1.35 3.5 1.4 1.55 3.3 1.55 1.95 0 3.4-1.55 1.4-1.55 1.4-3.5t-1.4-3.3q-1.4-1.4-3.35-1.4t-3.3 1.4q-1.4 1.35-1.4 3.3m.25-4.3q1.95-2.1 4.45-2.1 2.65 0 4.5 1.95 1.8 1.9 1.8 4.55t-1.8 4.5Q42.95 60 40.3 60t-4.5-1.9q-1.9-1.9-1.9-4.55 0-2.3 1.95-4.3M23.5 20.65q0-1.1-.8-1.9-.75-.8-1.9-.8-1.1 0-1.9.8t-.8 1.9q0 1.15.8 1.9.8.8 1.9.8 1.15 0 1.9-.8.8-.75.8-1.9m1.55.05q0 1.85-1.2 3-1.2 1.2-3.05 1.2t-3.1-1.2q-1.3-1.25-1.3-3.05 0-1.7 1.45-3.1 1.35-1.3 2.95-1.3 1.8 0 3.05 1.3 1.2 1.3 1.2 3.15"/><path fill="#0f141b" d="M39.8 85.1q-.95-1-2.4-1t-2.5 1q-1.1 1-1.1 2.4 0 1.45.95 2.4t2.4.95 2.5-.95 1.05-2.4-.9-2.4m-6.15-1.2q1.5-1.45 3.65-1.45t3.6 1.45q1.5 1.45 1.5 3.6t-1.55 3.65-3.7 1.5-3.6-1.5-1.45-3.65q0-2.1 1.55-3.6"/></svg>