<svg xmlns="http://www.w3.org/2000/svg" width="210" height="203" viewBox="-1.4 -0.7 209.6 203"><path fill="#fff" d="M82.8 34q2.55-3.85 6.7-2.4 3.45 6.05 5.6 13 2.2 7.45 2.55 14.75-2.9 2.25-5.2 4.65-5.75-2.35-9-8.45-2.85-5.35-2.95-11.8-.1-6.15 2.3-9.75m82.5 31.2q9 10.35 9.7 24.7.45 8.95-2.1 15.35-1.8 4.35-6.35 9.95-6.1 5-14.95 8.05-8.7 3-17.2 3.05-21.75.25-34.25-8.65-12.4-8.9-13.2-25-.6-12.35 6.55-22.9 7.05-10.4 19.3-15.45l6.4 6.95q5 5.15 7.35 6.95 4.8-13.25 6.05-16.15 2.85 2.05 7.7 7.35 4.55 4.95 7 8.5.9-2.2 1.35-7.05.45-4.45.3-7.65 9.85 4.45 16.35 12"/><path fill="#fff" d="M201.4 102.65q.95.95.35 6.55 5 1.45 5 2.6.1 1.4-6.1 5.45-4.7 5.05-13.85 11.4-13.55 9.5-28.65 15.25-.45 20.45-4.7 33-4.8 14.4-13.7 15.05l-10.55-.8-11.9-.85q-21.55 2.75-29.3-.95-9.85-4.65-5.7-19.85 1.45-5.3 4.9-13l5.4-11.75q-9.25-1.15-20.55-7.15-10.95-5.85-17.1-12.65-.5 0-3.2-1.6-2.85-1.65-3.1-2.4 0-.4 2.05-1.6 2.1-1.2 3.1-1.4l-.6-3.6q-.3-2.75 0-3.15.6-.45 3.35.65 2.45.95 3.65 1.75.8-1.6 2.05-2.85 1.3-1.3 2.45-1.55.75-.15.85 4.2 9.9-.15 21.65 4.05 10.05 3.6 17.7 8.95 11.6 5.05 26.1 4.95 16.45-.15 28.05-8.3 8.65-6.1 11.15-13.15 2.1-.85 9.95-2.9l10.15-2.45q.3-1.25 1-2.6.8-1.4 1.4-1.55.6 0 2.05 1.75 1.35 1.6 1.75 2.5l2.5-1.3q1.8-.85 2.4-.7"/><path fill="#fff" d="M84.8 187.2q2.2 2.05 4.75 3.05 2.45.9 6.8 1.35-1.9 4.25-5.25 7.2-3.45 3-5.6 2.05-2.75-1.2-2.25-6.85.35-4.1 1.55-6.8"/><path fill="#fccf00" d="M89.5 31.6q-4.15-1.45-6.7 2.4-2.4 3.6-2.3 9.75.1 6.45 2.95 11.8 3.25 6.1 9 8.45-4.4 4.65-7 9.5-9.55-5.15-15.5-22.05-5.35-15.2-4.1-26.8.7-6.65 3.75-7.75 4.45-1.55 10.05 2.7 5.3 4.05 9.85 12"/><path fill="#525557" d="M123.35 49.1q5.15-.5 10.5.05 8.1.85 15.1 4.05.15 3.2-.3 7.65-.45 4.85-1.35 7.05-2.45-3.55-7-8.5-4.85-5.3-7.7-7.35-1.25 2.9-6.05 16.15-2.35-1.8-7.35-6.95l-6.4-6.95q-12.25 5.05-19.3 15.45-7.15 10.55-6.55 22.9.8 16.1 13.2 25 12.5 8.9 34.25 8.65 8.5-.05 17.2-3.05 8.85-3.05 14.95-8.05-6.05 7.4-15.25 11.65-9.45 4.4-20.3 4.5-14.5.1-26.1-4.95-4.1-2.85-9.25-5.3-6.85-5-10.7-11.75-4-6.95-4.4-15.05-.95-18.6 14.3-32.1 12.95-11.5 28.5-13.1"/><path fill="#525557" d="M82.55 8.3q10.25 1.75 20.6 14.6 10.85 13.5 11.9 27.75-9.6 2.7-17.4 8.7Q96.9 41.9 87.1 27.8q-4.3-6.2-8.9-9.15-4.8-3.05-8.6-1.75-3.05 1.1-3.75 7.75.4-10.05 6.65-14.2 4.65-3.1 10.05-2.15M149.1.9q4.95.65 7.75 8.1 2.5 6.6 2.8 16.65.3 9.5-1.45 17.9-1.85 8.75-5.05 11.85-13.7-7.95-29.8-6.3-1.95-7.15-.25-16.15 1.6-8.4 5.8-16.1 4.15-7.7 9.4-12Q143.95.2 149.1.9M1.3 62.05q1.1-1.95 9.45 2.2 8.15 4 19.6 11.9Q58.2 95.35 73.6 114l-8.05-.6q-.1-4.35-.85-4.2-1.15.25-2.45 1.55Q61 112 60.2 113.6q-1.2-.8-3.65-1.75-2.75-1.1-3.35-.65-.3.4 0 3.15l.6 3.6q-1 .2-3.1 1.4-2.05 1.2-2.05 1.6.55 1.55 3.6 3.1-6.9 13.2-9.2 25.8-9.1-5.7-18.45-16.3-9.1-10.3-7.05-11.9 1.15-.9 5.85.9 3.35 1.3 7.5 3.5-12.3-11.1-21.7-24.4Q-.45 87.95 4 87.2q2.2-.35 12.05 5.45Q25.7 98.35 32.6 104L12.9 81.25Q-.4 65.05 1.3 62.05"/><path fill="#fff" d="m129.85 191 6.95 1 4.95-.45q-2.3 4.7-5.3 7.25-2.9 2.4-5.25 1.95-1.5-.3-1.95-2.95-.5-2.8.6-6.8"/><path fill="#fccf00" d="M182.5 131.6q11.05-7 17.55-13.75-.3 15.2-5.6 31-5.2 15.35-13.55 26.9-8.65 11.95-18.2 16.25-10.4 4.65-19.7-.9 7.45-3.45 11.65-19.8 3.15-12.55 3.5-27.4 12.45-4.75 24.35-12.3m-127.55-6.65q6.15 6.8 17.1 12.65 11.3 6 20.55 7.15l-4.5 9.6q-3.2 7.05-4.85 12.25-4.95 15.45 1.45 21.45-10.6 6.4-20.95 4.55-10.2-1.85-16.25-10.75-6.4-9.45-5.7-23.6.75-15.85 10.45-34.2 1.8.9 2.7.9m40.75-32.8q2.8-1.2 6.4 1.05 3.95 2.5 5.95 7.65 1.85 4.85 1.05 8.95-.8 4.05-3.85 5.1-2.85.95-6.65-1.85-3.7-2.75-5.35-6.8-2.05-5-1.45-8.8.65-3.95 3.9-5.3m70.25-1.45q2.65-3.15 4.35-2.6 1.75.55 2.05 4.25.35 4-1.35 9.35-1.65 5.1-4 7.95-2.35 2.8-4.35 2.15-1.9-.6-2.15-4.5-.2-3.95 1.35-8.85 1.45-4.55 4.1-7.75"/><path fill="#dbdcdc" d="M96.3 49.4q-4.75-7.25-15-12.1 1.05-3.5 3.05-5.05 2.25-1.7 5.15-.65 4.75 8.3 6.8 17.8m58.9 76.05q-5.95 9.3-21.2 10-15.05.65-25.85-7.45 11.3 3.2 23 3.05 14.2-.2 24.05-5.6M81.1 179.3q8.25 8.15 19.85 8l10.5-.95 11.55-.85 10.3 1.85q7.9 1.55 14.05.75-3.3 3.55-7.6 3.85l-10.55-.8-11.9-.85q-21.55 2.75-29.3-.95-6.25-2.95-6.9-10.05"/><path fill="#dbdcdc" d="M84.8 187.2q2.2 2.05 4.75 3.05 2.45.9 6.8 1.35-1.15 2.6-3.15 5-4.8-2.6-10.05-1.5.05-2.2.7-4.8.5-2.05.95-3.1"/><path fill="#dab300" d="M89.5 31.6q-2.9-1.05-5.15.65-2 1.55-3.05 5.05-6.7-3.15-15.5-5.2-.3-4.3.05-7.45.7-6.65 3.75-7.75 4.45-1.55 10.05 2.7 5.3 4.05 9.85 12"/><path fill="#38383a" d="m44.35 145.3-.8 2.35-.5 2.2Q36.9 146 29.8 139.05q-7.95-7.8-11.45-14.25 6.25 6.4 13.5 12.3 8.55 7 12.5 8.2"/><path fill="#dbdcdc" d="m129.85 191 6.95 1 4.95-.45q-1.45 3.1-3.7 5.65-1.8-.55-4.3-.65h-4.6q-.1-2.5.7-5.55"/><path fill="#dab300" d="M194.2 123.2q-5.35 10.35-15.2 17.85-9.55 7.3-21.25 10.5l.4-7.65q9.95-3.85 19.85-9.6 9.15-5.35 16.2-11.1M73.95 144.55Q67.2 139 63.05 132q6.7 4.85 14.55 8.3 8.25 3.6 15 4.45l-3.9 8.3q-7.9-2.85-14.75-8.5"/><path fill="#38383a" d="M21.8 113.6q10.1 11.95 12.9 14.8-5.4-2.5-16.15-14.5Q6.1 100.05 3.45 90.05 9.2 98.6 21.8 113.6M1.2 62.05q3.55 5 19.2 24.5 14 17.45 15.45 20.1l-2.1-1.75-2.15-2-18.2-21Q1.35 67.05 1.2 62.05"/><path fill="#0f141b" d="M176.35 89.7q.95 18.6-12.95 30.6-13.1 11.3-32.55 11.5-13.35.1-24.4-4l-.7-1.2-.95-1.25q11.7 5.25 26.2 5.15 17.8-.15 30.5-11.15 13.55-11.75 12.65-29.4-.85-17.6-15-29.4Q145 48.8 126 49.75q-19.15.95-32.4 14.5-13.05 13.3-12.2 30 .4 8.25 4.7 15.3 4.1 6.85 11.4 11.75-1.3-.25-3.25-1.1L91 118.8q-10.9-9.65-11.65-24-.9-18.1 13.3-32 13.9-13.65 33.15-14.6 19.8-1 34.65 11.1 14.95 12.2 15.9 30.4"/><path fill="#0f141b" d="M167.4 113.7q-.05 1.25.05 1.15-6.15 5.45-14.95 8.65-8.85 3.25-18 3.35-22.6.3-35.3-8.7-12.5-8.8-13.3-25-.65-12.6 6.65-23.4 7.3-10.85 19.9-16.1.6-.25 1 .25 1.6 1.95 5.7 5.95l6.9 6.4q3.7-9.75 5.75-14.55.4-.9 1.3-.35 3.5 2.45 7.45 6.7 3.65 3.9 6.45 8 .85-2.8 1.35-6.8.5-4.1.25-5.8l1.35.5q.3 3.45-.25 7.25-.5 3.7-1.65 6.55-.7 1.65-1.45.65-2.2-3.25-6.2-7.8-4.4-5.05-7.3-7.35l-5.75 15.65q-.35 1.1-1.3.4-2.3-1.75-7.05-6.85l-6.4-7.1Q99.5 61 92.8 72.65q-5.65 9.75-5.15 20 .8 15.9 13.05 24.5 12.25 8.55 33.7 8.3 8.9-.05 18-3.3 9.15-3.25 15-8.45m-101.7.65q-.35 0-.35-.7 0-.75.35-.75 10.45-.15 20.9 3.25 10.4 3.4 18.75 9.7 3.25 2.45 3.4 3.4.15 1-3.1-1.45-6.55-4.9-17.25-8.9-12.65-4.7-22.7-4.55"/><path fill="#0f141b" d="M65.1 108.4q.6.25.95 3 .35 2.7-.05 3.95-.4 1.3-.85 1.55-.45.2-.45-1.05l-.25-5.65q-1 .3-2.4 2l-1.6 1.85-2.75-1q-2.9-1.1-3.8-1.1l.35 3.3.35 3.15-2.15 1.1q-2.25 1.05-2.75 1.55 1 1.45 3.5 2.5l2.4.85q6.85 7.6 19.45 13.75 13.3 6.55 22.35 5.95 2.15-.15 1.5.45-.7.6-2.9.8-9.9.9-22.7-5.7-11.85-6.1-18.4-14.2-1.95-.25-4.5-1.8-2.65-1.6-2.6-2.7.1-1.25 5.3-3.3-1.25-6.5-.5-7.2.65-.6 3.35.3 2.1.7 3.95 1.7 1-1.6 2.55-2.95 1.75-1.5 2.65-1.1m125.15-4.55q.4-.05.3.7-.05.8-.45.85-2.1.35-9.5 2.25-8.1 2.05-9.85 2.9-.3.15-.3-.8 0-.9.2-1 4.15-2.25 19.6-4.9"/><path fill="#0f141b" d="M202.5 108.85q2.9.95 3.95 1.5 1.5.7 1.55 1.45.2 1.7-6.9 5.7-6.4 7.6-19.45 16.1-13.8 9-23.45 11.1-.35.05-.45-.75-.15-.8.1-.9 13.15-4.95 25.3-12.8 10.7-6.95 16.9-13.6 5.4-3.25 5.8-4.75-.35-.45-2.55-1.2l-2.2-.9q-.1-.15-.05-3.15l-.15-3.15-2.25 1.05-2.4.95-1.5-1.85-1.95-2.3-1.05 1.65q-.65 1.3-.7 2.2-.1 1.65-.65 1-.5-.7-.4-2.35.1-1.3 1-2.9.95-1.7 1.65-1.65.65 0 2.15 1.85l2.1 2.85q4.75-2.6 5.45-2.1.6.5.15 6.95"/><path fill="#0f141b" d="M157.3 142.4q.05-2.5.8-1.85.7.7.75 3.25.2 17.5-3.6 31.2-4.95 17.85-14.9 18.55l-9.65-.75q-9.3-2.35-20.15-1-15.05 1.95-21.5-.05-6.05-1.85-8.45-8.6-2.65-7.45 3-21.55l8.25-17.25.95.05q.75.3.6.6-6.5 13.7-7.4 16.15-5.65 14.65-3.25 21.4 1.85 5.25 9.05 7.2 7.05 1.85 18.55.4 11.9-1.55 21.1.3l3.7.6q2.1.2 4.55.05 8.7-.6 13.55-17.5 3.9-13.65 4.05-31.2"/><path fill="#0f141b" d="m83.8 186.6 1.1.05q.9.35.75.65-1.6 3.45-1.7 7.55-.1 4.4 1.85 5.25 1.75.75 4.8-2t4.8-6.85l1.1.05q.95.3.85.65-2.1 5.05-6.15 7.85-3.7 2.5-6.05 1.55-2.6-1.05-2.95-5.8-.4-4.6 1.6-8.95m44.55 4.05 1.25-.1q1.2.2 1.1.55-.85 3.2-.65 5.85.15 2.75 1.3 2.95 2 .4 4.5-1.6 2.8-2.3 5.05-6.95.15-.35 1.15 0 .95.35.8.7-2.3 4.7-5.95 7.4-3.4 2.5-6 1.85-2.1-.55-2.75-3.95-.6-3.05.2-6.7"/><path fill="#0f141b" d="M199.2 118.3q0-.25.85-.6l.85-.05q-.2 22.5-10.95 45-10.9 22.8-25.05 29.35-6.05 2.8-11.7 2.8-5.8-.05-10.8-3.05-.3-.2.15-.9.45-.75.75-.6 4.7 2.9 9.95 2.85t10.65-3q13.75-7.6 24.1-28.25 10.65-21.15 11.2-43.55m-147.45 5.25q.15-.3.85.2.65.45.5.8-9.5 18.55-10.1 35-.6 16.4 7.95 25.35 5.75 6 14.4 6.75 8.6.8 18.6-3.8.3-.15-.05 1.25l-.5 1.45q-10.05 4.5-19.4 3-8.9-1.45-15.15-8-8.8-9.25-7.9-26.15.9-16.55 10.8-35.85M.35 60.7Q1.7 59 11.3 63.65 20.8 68.2 33 76.4q30.9 20.7 41.2 37.35.2.3-.8.25l-1.2-.35Q58 95.9 30.7 77.1q-10.85-7.45-19.15-11.75-8.2-4.25-9.65-3.2-1.85 1.4 13.05 19.45l19.65 23.05q1.8 2.25.75 1.55L28 100.15Q12.85 82.6 6.35 73.65-1.4 62.9.35 60.7"/><path fill="#0f141b" d="M2.1 86.65q2.2-2.2 14.55 5.25 11.15 6.7 17.8 12.9 1.85 1.7 1.9 2.6 0 .9-1.9-.7-4.5-3.75-15.8-11.1-13.45-8.8-14.8-7.55-2 1.8 8.25 15.65 10.7 14.35 21.7 23.7 2 1.7.95 1.7-1.1 0-3.15-1.7-13.35-10.7-23.05-25Q-.4 89.2 2.1 86.65"/><path fill="#0f141b" d="m16.45 121.15 4.05-.15q4.2.95 10.45 4.3.7.35 1.45 1.7.75 1.3.05.9-6.55-3.5-10.85-4.9-3-1.05-3.45-.75-.7 1.95 7.7 11.6 9.15 10.5 17.9 15.9.3.2-.3 1.15-.65.95-.95.75-8.35-5.15-18-16.65-9.4-11.25-8.05-13.85M82.7 7.6q10.95 1.9 21.5 14.9 11.2 13.8 11.35 28.05 0 .4-.75.35-.7-.05-.75-.45-.9-13.9-11.45-27Q92.5 10.9 82.4 9.15q-4.5-.8-8.35 1.25-3.9 2.1-5.95 6.55 2.2-1.7 5.5-1.15 2.8.45 5.8 2.5 7.25 4.95 12.65 15.45 5.95 11.6 6.35 24.3l-.7 1.15q-.75.75-.75.35-.4-12.4-6.25-24.3-5.4-10.95-12.25-15.7-5.15-3.5-8.15-2.2-3.15 1.35-3.65 8.05-.95 11.9 4.25 26.35 5.75 15.9 14.85 20.75.3.15-.1.95-.4.75-.7.6-11.45-6.4-16.75-22.8-4.05-12.45-3.5-25.6.4-9.6 5.85-14.6Q75.65 6.4 82.7 7.6"/><path fill="#0f141b" d="M83.7 31.7q2.8-2.25 6.45-.8.35.15 0 .7l-.65.4q-2.4-1-4.7.85-2.45 2-3.25 6.55-.8 4.45.3 9.4 2.55 12.05 11.3 14.25.35.1-.2.7-.6.55-.95.45-9.9-3.35-12.15-15.8-1-5.15.05-9.75 1.05-4.75 3.8-6.95M148.15.05q7.15.7 10.25 10.15 3.45 10.55 2.25 25.05-1.2 14.85-6.45 20.75-.2.25-1.05-.3-.85-.6-.65-.85 4.75-4.5 6.15-19.45 1.4-15-1.95-25.2-2.65-8.1-8.25-8.8-6-.7-13.15 7.55-6.6 7.6-9.95 18.7-3.6 12-1 21.2.1.35-.95.2-1.1-.15-1.2-.5-2.8-9.85 1-21.9 3.35-10.75 10.25-18.75 7.45-8.6 14.7-7.85m2.15 92.3q.7-1.1.95-.55.2.55-.5 1.65-3 4.5-13.1 5.2-10 .7-15-3.05-1.15-.9-1.2-1.55 0-.7 1.15.2 4.7 3.5 14.9 2.75 10.15-.7 12.8-4.65m-48.2 1.75q-3.6-2.75-6.25-1.65-2.95 1.3-3.45 5.15-.45 3.7 1.5 8.4 1.6 3.85 5.15 6.5 3.55 2.6 6 1.75 2.7-.9 3.4-4.6.7-3.8-1.15-8.55-1.7-4.35-5.2-7m-6.95-2.75q3.1-1.3 7.3 1.35 4.35 2.85 6.35 7.95 2.15 5.45 1.05 9.75-1 3.9-4.1 5-3.55 1.25-7.75-1.85-3.85-2.8-5.6-7-2.15-5.3-1.2-9.7.9-4.15 3.95-5.5m76.65 1.35q-.2-3.5-1.6-3.95t-3.8 2.2q-2.6 3-3.95 7.45-1.75 5.75-1.4 9.4.3 3.05 1.85 3.5 1.55.5 3.6-2 2.2-2.75 3.85-7.8 1.6-4.95 1.45-8.8m-5.25-3.75q2.35-1.9 4.1-1.35 2.05.65 2.45 4.7.45 4.2-1.35 9.7-1.8 5.6-4.65 8.5-2.6 2.65-4.65 1.85-2.15-.8-2.6-5.05-.45-4.35 1.3-9.55 2.15-6.2 5.4-8.8M104.6 82.9q0-4.7 2.6-8.2 2.6-3.55 5.95-3.35 3.45.25 5.4 3.85 1.85 3.3 1.55 7.7-.3 4.7-2.45 7.55-2.15 2.9-5.35 2.9-3.5 0-5.65-3-2.05-2.95-2.05-7.45m59.35-3.3q.7 4.15-.75 7.45-1.45 3.35-4.2 3.85-2.6.45-4.95-2.25-2.4-2.7-3.2-7-.75-4.3.55-7.65 1.35-3.35 3.95-3.8 2.55-.45 5.2 2.4 2.65 2.9 3.4 7"/><path fill="#fff" d="M109.25 76.35q0-1.6 1.15-2.7 1.15-1.15 2.75-1.15t2.7 1.15q1.15 1.15 1.15 2.7 0 1.6-1.15 2.75-1.1 1.15-2.7 1.15t-2.75-1.15-1.15-2.75m43.7-.75q-.2-1.6.55-2.85.8-1.25 2.15-1.45 1.3-.15 2.4.85t1.3 2.55q.2 1.6-.6 2.85t-2.1 1.45q-1.35.2-2.45-.8-1.05-1-1.25-2.6"/><path fill="#0f141b" d="M138.4 84.65q1.3-.25 1.5.65.2.8-1.1 1.05-1.4.25-1.6-.55-.15-1 1.2-1.15"/></svg>