<svg xmlns="http://www.w3.org/2000/svg" width="200" height="215" viewBox="-1.9 -0.4 200.3 214.7"><path fill="#c9c8bc" d="m143.25 142.9 10.05 6.05-4.65 6.75q-1.55.7-3.9.55t-4.1-1.05l-8.75-8.2-.55-12.9q1.45 2.7 4.55 5.25 3.7 3.1 7.35 3.55"/><path fill="#c9c8bc" d="M53.75 116.35q2.65-8.3 4.15-14.15l12.5 2q15.05 2.05 27.75 2.15l21.35-.85 6.1-.9q-.6 13.45 9 36.35l5.25 11.65q2.65 5.95 3.7 9.65 2.65 9.65-1.4 21.75-4.75 13.95-17.7 20.95-12.6 6.75-32.55 6.7-16.65-.05-31.5-6.95-14.2-6.55-21-16.55L41.3 165z"/><path fill="#fff" d="m75.5 105.45 11.75-4.05 8.75 5.2q-.7 4.35-3.6 6.75-2.7 2.2-6.6 2.2-4.15 0-7.25-3-3.05-3-3.05-7.1m46.05 5.9q-1.85 2.7-4.9 3-3.15.35-5.7-2.25-2.25-2.3-2.65-5.2l7.85-6.55 7.35 4.8q-.25 3.75-1.95 6.2"/><path fill="#c9c8bc" d="M179.6 103.7q10.2 8.25 14.85 20.9 3.95 10.9 1.6 24.6-2.6 14.75-11 19.2-4.65 2.5-10.55 2.35-6.25-.15-12.2-3.2-14.3-7.3-20.25-26.45-5.5-17.65.3-31.7 2.55-6.2 6.9-9.85 4.4-3.7 9.65-3.85 10.5-.35 20.7 8"/><path fill="#434a2d" d="M169.35 126.25q-.7-6.7 1.25-11.9 1.95-5.4 5.8-6.6 2.2-.7 5.25.35 2.75.95 5.1 2.85 4.95 6.15 7.7 13.65 2.25 6.25 2.4 14.2-.65 4.4-2.2 7.45-1.65 3.25-3.8 3.95-4.8 1.55-10.5-2.85-5.8-4.5-8.95-12.55-9.8 1.7-21.1 7.8 6.6 16.2 18.45 22.9 9.95 5.6 17.4 2.25l-1.1.65q-4.65 2.5-10.55 2.35-6.25-.15-12.2-3.2-14.3-7.3-20.25-26.45-5.5-17.65.3-31.7 2.55-6.2 6.9-9.85 4.4-3.7 9.65-3.85l3.85.2q-9.85-.2-14.35 12.3-4.2 11.85-.85 25.95 4.2-2.55 10.55-4.85 6.45-2.4 11.25-3.05"/><path fill="#c90060" d="M175.55 100.75q6.25 3.95 11.2 10.2-2.35-1.9-5.1-2.85-3.05-1.05-5.25-.35-3.85 1.2-5.8 6.6-1.95 5.2-1.25 11.9-4.8.65-11.25 3.05-6.35 2.3-10.55 4.85-3.35-14.1.85-25.95 4.5-12.5 14.35-12.3 6.45.85 12.8 4.85"/><path fill="#c9c8bc" d="M172.65 43.95q6.45 11.45 5.55 21.8-1.65 18.4-22.7 29.75-21.3 11.45-54.35 11.3Q56.9 106.6 31 93.3 6 80.45 5.5 59.4q-.25-10.75 6.75-21.55Q19.1 27.3 31.35 18.8q12.5-8.65 27.95-13.35 16.45-5 33.4-4.6 17.45.35 34.05 6.65 15.4 5.8 27.7 15.7 11.9 9.55 18.2 20.75"/><path fill="#c90060" d="M172.75 44.15q6.35 11.35 5.45 21.6-1.45 16.05-18 26.95t-43.35 13.4q4.15-22.45-.6-47.75-1.45-7.85-3.65-15.1l-1.9-5.65 3.15-1q3.85-1.3 6.95-3 9.95-5.3 9.3-12.1-1-11.05-18.65-16-5.55-1.55-12.1-2.3l-5.4-.45V.85q17.25.6 33.6 6.95 15.2 5.9 27.3 15.75 11.7 9.5 17.9 20.6"/><path fill="#434a2d" d="M178.15 60.45q.3 2.55.05 5.3-1.65 18.4-22.7 29.75-21.3 11.45-54.35 11.3-44-.2-69.85-13.35-25-12.7-25.8-33.55 1.9 18.6 34.6 29.7 31 10.5 69.5 8.2 1.7-8.3.75-26.5-1.1-20.5-5.2-29.35-24.2 1.75-39.5-5.55-14.35-6.85-12.7-17 .55-6.15 8.3-11.3 8.4-5.6 21.15-7Q87.75.7 92.7.85q11.25.2 22.05 2.9 9.45 2.4 15.25 7.35 5.4 4.7 6.1 10.4t-3.75 10.55q-4.75 5.2-14.3 8 3.95 12.25 5.4 29.75 1.45 17.05-.45 27.15 25.95-2.85 40.8-13.4 13.7-9.7 14.35-23.1"/><path fill="#c9c8bc" d="M117.55 10.95q7.25 4.2 6.95 9.25-.3 5.5-7.6 8.8-7.75 3.55-21 3.55-12.9 0-21.65-3.75-9.35-4-9.05-10.45.25-5.75 9.1-9.5 8.95-3.8 21.25-3.3 13.7.6 22 5.4"/><path fill="#434a2d" d="m39.4 188.15.6-7.4 5.95 4.7q7.25 5.5 17.6 9.25 15.95 5.8 34.9 5.45 17.5-.25 30.8-7.55 10.9-5.95 14.25-13.3l-1.35 4.7q-4.75 13.95-17.7 20.95-12.6 6.75-32.55 6.7-16.65-.05-31.5-6.95-14.2-6.55-21-16.55"/><path fill="#c9c8bc" d="M60.75 128.25q5.1 14.15.75 30.55-5.25 19.85-18.75 27.5-12.3 6.95-25.25 1.2-9.65-4.3-13.95-18-4.15-13.25-1-27.05Q6 127.5 18.35 118.1q12.45-9.5 25.4-6.8 11.75 2.5 17 16.95"/><path fill="#c90060" d="M43.85 112.45q5.05 2.7 8.45 8.85 7.5 13.55 3.45 32.7-6.9-.75-14.35-2.8l-11.6-3.9q1.9-8.85-.15-15.7-2.15-7-7.5-8.6l-6.55.2q-3.05 1-5.85 3.65 6.1-8.3 15.15-12.8 2.8-1.4 5.6-2.25l2.2-.6q5.9-1.6 11.15 1.25"/><path fill="#434a2d" d="M43.75 111.3q11.75 2.5 17 16.95 5.1 14.15.75 30.55-5.25 19.85-18.75 27.5-12.3 6.95-25.25 1.2-2.85-1.25-5.3-3.5 3.95 3.1 9.6 3.45t11.5-2.15q13.55-5.9 19.85-22.25-15.2-2.35-25.95-7.7-3.45 7.05-8.6 10.35-5.2 3.3-10.45 1.75-4.85-1.45-6.7-8.85-.7-8.3 1.1-16.15 2-8.45 7.2-15.6 2.9-2.7 6-3.7 3.3-1.1 6.4-.15 5.35 1.6 7.5 8.6 2.05 6.85.15 15.7l11.6 3.9q7.45 2.05 14.35 2.8 3.5-16.55-1.9-29.5-5.25-12.5-15.3-13.75z"/><path fill="#c9c8bc" d="M22.2 137.35q.95 5.2-1.2 11.85-1.7 5.3-5.1 8.15-3.3 2.8-6.65 1.85-3.25-.9-4.4-6.05t.5-11q1.3-5.55 5.15-9 3.6-3.3 6.65-2.45 4.05 1.15 5.05 6.65m170.45-11.65q1.9 5.9 1.15 10.8-.7 4.7-3.45 5.6-3.25 1.05-6.8-3.1-3.05-3.55-4.7-8.65-1.7-5.15-1.3-9.8.4-5.45 3.7-6.5 2.7-.9 6 2.3 3.45 3.35 5.4 9.35m-49.05 21.35q2.35 5.45 5.05 8.65l-2.55.45q-3.05.25-5.45-.95l-7.1-17.2 2.2 1.65q2.85 1.8 6.05 2.6z"/><path fill="#9e9d94" d="M78.4 104.9q25.05 2.05 47.15-.8-.4 10.55 3.85 20.65-2.3 7.6-10.5 11.8-7.35 3.75-18.2 4.15-10.2.4-20.65-2.25-10.5-2.65-17.75-7.5-2.4-6.6-5.85-11.35l-3-3.45 4.35-13.9 5.6.95z"/><path fill="#dbdcdc" d="M75.5 105.45 96 106.6q-.7 4.35-3.6 6.75-2.7 2.2-6.6 2.2-4.15 0-7.25-3-3.05-3-3.05-7.1m46.05 5.9q-1.85 2.7-4.9 3-3.15.35-5.7-2.25-2.25-2.3-2.65-5.2l15.2-1.75q-.25 3.75-1.95 6.2"/><path fill="#9e9d94" d="m51.3 179.7 2.45-3.35q6.1 7 20.5 10.65 13.9 3.55 29.15 2.35 16.25-1.25 26.9-7.5 12.05-7.05 13.6-18.9l.65 2.1q.65 2.75.75 5.8.25 9.85-5.35 19.55-6.05 10.3-18.75 16.3-16.25 7.6-38.25 4.9-20.3-2.5-33.65-13.1-4.15-3.3-7.15-7.05L40 188.4q7.4-4.45 11.3-8.7"/><path fill="#353b21" d="M43.15 186.55Q45 185.6 45.4 185q10.2 7.3 21.95 11.2 17.5 5.75 37.35 3.65 27.9-2.9 39.85-21.65-1.1 6-4.6 12.2-6.05 10.3-18.75 16.3-16.25 7.6-38.25 4.9-20.3-2.5-33.65-13.1-4.15-3.3-7.15-7.05L40 188.4z"/><path fill="#9e9d94" d="M185.05 168.4q-10.15 5.4-22.5-.7-14.1-7-20.2-25.65 4.85 8.3 18 14.2 14.2 6.4 25.8 3.55 4.1-1.05 8.1-3.6-3.25 9.1-9.2 12.2M17.5 187.5q-4.7-2.1-8.3-6.75-3.4-4.45-5.45-10.65 7.6 7.8 19.55 8.25 7.25.3 16.55-2.2 9.1-2.45 17.9-6.9-6.65 13.95-18.4 18.7-10.9 4.4-21.85-.45"/><path fill="#353b21" d="M166.95 164.8q8 5.25 17.1 4.1-10.2 4.65-22.2-1.85-13.65-7.4-19.65-25.55 1.9 3.3 5.8 6.8 4 3.65 8.6 6.1 4.6 6.65 10.35 10.4M39.2 187.75q-10.8 4.45-21.7-.25 18.2 1.95 29.4-13.85 5.75-2.05 10.55-4.55-6.6 13.85-18.25 18.65"/><path fill="#9e9d94" d="m138.4 149.8 2.4.85q2.85.85 4.95.75 1.35 2.4 2.9 4.3l-2.55.45q-3.05.25-5.45-.95z"/><path fill="#d5adbf" d="M116.6 123.7q0 5.1-3.9 8.6-3.9 3.45-9.35 3.45-6.5 0-10.05-3.35-3.35-3.15-3.35-8.45 0-4.15 3.3-7.6 3.85-4 10.1-4 6.2 0 10 3.9 3.25 3.3 3.25 7.45"/><path fill="#353b21" d="M48.5 95q23.9 6.9 51.3 6.85 27.5-.1 47.95-7.25 22.1-7.7 28.85-21.5-5.4 15.45-25.5 24.55-20.45 9.3-49.95 9.15-35.7-.2-59.9-9.05Q17.95 89.2 9.6 74.3 22.8 87.55 48.5 95"/><path fill="#0f141b" d="M112.85 116.85q-3.55-3.4-9.55-3.4-5.95 0-9.6 3.55-3.15 3.05-3.15 6.85 0 5.2 3.35 8.15 3.4 2.95 9.35 2.95 5.25 0 8.95-3.3 3.65-3.3 3.65-8.05 0-3.85-3-6.75m-9.6-5.3q6.65 0 10.7 4.15 3.5 3.5 3.5 7.85 0 5.5-3.8 9.25-4 3.9-10.4 4.1-6.4.25-10.55-3.5-4.1-3.7-4.1-9.55 0-4.3 3.75-8 4.3-4.3 10.9-4.3m20.45-91.5q.15-2.55-2.2-5.15-3.4-3.7-10.3-6.05-6.9-2.3-15.75-2.7-11.8-.5-20.6 3.1t-9.05 9q-.05 3.15 2.4 5.75 3.4 3.55 10.85 5.65t16.8 2.1q12.4 0 19.95-3.2 7.6-3.15 7.9-8.5m-.95-6.2q2.6 2.9 2.7 6.3.1 3.25-2.1 5.8-3.15 3.75-10.6 5.95-7.5 2.15-17.4 2.15-8.4-.05-16.25-2.25-9.15-2.55-12.9-7-5.55-6.4 1.25-12.9 3.95-3.75 11.6-5.75 7.7-2 16.7-1.65 9.2.4 16.35 2.9 7.05 2.45 10.65 6.45"/><path fill="#0f141b" d="M107.4 124.4q0 .45-.4.9-.45.5-1.05.5-.95 0-1.5-.55-.45-.4-.45-.85 0-1.2 1.95-1.2 1.45 0 1.45 1.2m-20.9-17.1q0 2-1 2t-1-2q0-1.55 1-1.55t1 1.55m30.6-.8q0 2-1 2t-1-2q0-.6.25-.7l.8-.1.75.1q.2.1.2.7"/><path fill="#0f141b" d="M176.8 65.75q.65-7.65-2.9-16.05-3.55-8.35-10.85-16.55-12.75-14.25-31.4-22.7-18.9-8.6-39-9.05-20.2-.4-39.35 7-18.85 7.35-31.85 20.35-7.3 7.35-11 14.95-3.8 7.8-3.6 15.4.45 20.4 24.6 32.75 24.8 12.75 69.4 13 32.85.2 53.5-10.3 20.85-10.6 22.45-28.8M164.95 32.1q7.45 8.35 11.05 17.05t2.9 16.7q-1.65 18.85-23.15 30.3-21.45 11.4-54.7 11.2-21.8-.05-39.85-3.55-18.05-3.45-30.85-10Q17.9 87.4 11.3 78.6q-6.55-8.75-6.8-19.3-.2-7.95 3.7-16.2 3.85-8.25 11.3-15.7Q32.55 14.3 52.3 6.95 71.95-.4 92.65.05q20.5.4 40 9.05 19.4 8.65 32.3 23"/><path fill="#0f141b" d="M163.2 83q14.25-9.85 14.25-23.9l.5-.2.5.1q.1 15.4-14.55 25.9-14.5 10.4-39.65 13.4-1.15.1-1.55-.3-.45-.45-.25-1.8 1.6-10.4.2-26.9-1.45-16.55-5-28.1-.25-.85-.05-1.25.2-.6 1.25-.95 7.9-2.5 12.25-6.85 4.4-4.3 4.3-9.55-.1-6-5.9-11.1-5.8-5.2-15.2-7.55-.25-.05-.05-.35.25-.3.5-.25 7.5 1.9 12.95 5.1 5.65 3.4 8 7.65 1.95 3.6 1.95 7.35 0 3.95-2.15 7.25-4.35 6.65-15.95 10.1 3.7 10 5.25 25.5 1.65 16.55-.3 29.4 24.45-2.85 38.7-12.7M83.4.35q.3-.05.35.6.05.6-.25.65-13.15 1.2-21.65 6.75-7.75 5.05-8.3 11.05-.85 5.3 3.5 10.05 5.25 5.8 16.3 9.05Q86.5 42.35 104 41.25l1.4.2q.4.25.7 1.05 4.7 11 5.75 27.05 1 14.75-1.3 27.5-.25 1.45-.9 1.9-.45.35-1.55.4-38.15 2-69-8.95Q23.85 84.95 15 77.35 5.5 69.15 4.7 59.5q-.05-.3.65-.35t.75.25q.75 8.85 9.5 16.4 8.7 7.6 24.35 12.95 14.75 5 32.35 7.15l35.95 1.15q2.1-8.4 1.05-25.8-1.1-18.75-5.1-28.1Q90 44.8 75.9 41.3q-14.5-3.55-21-10.7-4.85-5.35-3.85-11.2.6-6.35 9.2-11.85Q69.65 1.6 83.4.35m49.8 137.15-1.35-3.85q1.55 2.75 3.8 4.7 2.9 2.45 6.25 2.8l.9 1.2q.6 1.2.3 1.15-4.05-.5-6.6-2.25-1.95-1.35-3.3-3.75m8.35 19.15q-.25-.1-.6-1.2-.3-1.1-.05-1 1.7.85 3.85 1t3.55-.5q.25-.1.55.5t.05.75q-1.6 1.05-3.6 1.2-2.05.1-3.75-.75M56.8 101.7q.05-.3.9 0t.8.55q-1.5 5.85-4.15 14.25l-1.25-.2q-1.1-.5-1-.75 3.25-8.05 4.7-13.85"/><path fill="#0f141b" d="M38.75 188.45q-.15-.25.45-.65.55-.4.7-.15 6.95 10.2 21.45 16.7 14.5 6.45 30.5 6.5 40.35.1 49.55-27.2 3.45-10.2 2.1-18.15-.9-5.15-5.8-15.85l-3.8-8.5q-5-11.85-7.15-20.45-2.2-8.6-1.9-15.35 0-.3.75-.6.8-.25.75 0-.25 6.45 2.15 15.4 2.3 8.5 7.35 20.45l3.75 8.45q5.1 11.1 6.05 16.4 1.45 8.35-2.1 18.9-4.75 14.1-17.95 21.45-13.3 7.4-33.85 7.3-16.55-.05-31.35-6.85-15.1-6.9-21.65-17.8"/><path fill="#0f141b" d="M40.5 187.25q.55-.4.75-.2 5.25 6.8 17.9 12.2 15.45 6.55 33.65 6.6 20.5.05 34.1-6.85 8.5-4.35 12.35-10 .15-.25.65.2.5.4.35.65-4.15 6.15-12.55 10.7-13.8 7.45-34.7 7.4-18.45-.05-34.4-7.15-12.95-5.75-18.45-12.9-.2-.2.35-.65"/><path fill="#0f141b" d="M63.85 196q-11.9-4.3-18.45-10.15-.2-.2.25-.7.45-.55.65-.35 6.2 5.55 18 9.6 15.5 5.3 34.05 5 17.6-.3 30.95-7.75 11.35-6.35 13.9-13.7l.75-.05q.65.2.55.5-2.75 7.85-14.25 14.65-13.75 8.15-31.7 8.45-18.7.35-34.7-5.5m10.9-90.65q0-.25.7-.25.65 0 .65.25 0 3.85 2.85 6.6 2.85 2.8 6.8 2.8 3.8 0 6.35-2.2 2.5-2.25 3.15-6.15.05-.25.7-.15.7.1.65.4-.2 4.05-3.4 7-3.2 3-7.5 3-4.4 0-7.7-3.45-3.25-3.4-3.25-7.85m48-.35q0-.3.7-.25t.7.35q-.05 4.3-2.15 7.1-2.05 2.75-5.25 3.1-3.55.4-6.4-2.55-2.55-2.7-2.8-5.9-.05-.25.65-.35.65-.1.7.2.4 2.65 2.45 4.8 2.35 2.35 5.15 2.05 2.9-.3 4.6-3 1.45-2.25 1.65-5.55m70.95 19.75q-4.55-12.5-14.55-20.6-10-8.15-20.3-7.85-3.65.1-7 2.1-3.3 2-5.9 5.6-4.75 6.65-5.65 16.55t2.35 20.25q3.05 9.95 8.8 16.9 5.65 7 13.25 10.15 5.2 2.15 10.5 2.1t9.45-2.25q8.3-4.4 10.7-19.15 2.2-13.4-1.65-23.8m-13.75-22.1q10.45 8.6 15.25 21.55 2.8 7.65 2.35 18.4-.45 11.4-4.5 18.9-4.9 9.15-15 10.4-7.3.9-14.5-2.1-7.15-2.9-13.1-9.75-6.75-7.8-9.75-18.35-3.35-11.7-2.45-21.8t5.85-17.05q2.75-3.85 6.65-6.15 3.95-2.3 7.95-2.4 10.7-.35 21.25 8.35"/><path fill="#0f141b" d="M62.35 138.9q-1-9.8-5.35-16.85-5.25-8.5-13.45-10.15-12.7-2.65-24.85 6.55Q6.6 127.6 3.15 142.5q-3.2 13.95 1.15 27.1 4.3 13.1 13.45 17.2 5.6 2.5 11.5 2.4 5.9-.05 11.35-2.7 7.05-3.35 12.3-10.6 5.2-7.25 7.9-17.35 2.6-9.85 1.55-19.65m-18.5-28.85q4.3.9 8.35 3.95 4 3 6.7 7.4 5.35 8.7 5.85 21.2.3 8.75-2.45 18.3-2.5 8.4-6.4 14.45-2.8 4.35-6.55 7.75-3.75 3.45-7.85 5.45-5.65 2.7-12.3 2.65-6.5-.05-12.45-2.7-10.1-4.5-14.5-19.15-4.15-13.75-1-27.3 3.3-14.55 15.35-24.4 12.95-10.6 27.25-7.6m145.95 10.9q-1.95-3.5-4.35-5.25-2.3-1.65-4.1-1.1-2.65.9-3.1 6.15-.45 4.85 1.05 9.3 1.55 4.7 4.4 8.2 3.4 4.05 6.35 3.1 1.85-.6 2.7-3.6.85-3.15.2-7.5-.75-5-3.15-9.3m-3.75-6.55q2.65 1.85 4.8 5.6 2.6 4.5 3.5 10 .7 4.8-.3 8.3-1.05 3.6-3.55 4.4-3.65 1.2-7.65-3.05-3.5-3.7-5.2-8.95-1.65-5.25-1.05-10.35.7-5.85 4.35-7.05 2.35-.75 5.1 1.1"/><path fill="#0f141b" d="M9.7 132.4q3.55-3.3 7.55-2.45 2.75.6 4.5 3.4 1.8 3 1.8 7.3 0 4.2-1.5 8.85-1.05 3.35-2.95 5.8-1.8 2.45-4.05 3.65-3 1.65-5.75.95-2.75-.75-4.2-3.45-1.5-2.8-1.6-7T4.7 141q1.65-5.45 5-8.6m7.1-1.05q-2.15-.45-4.3.85-2.05 1.2-3.75 3.6-1.95 2.8-2.8 6.4-1.1 3.85-.9 7.55.15 3.75 1.55 6.2 1.15 2.1 3.5 2.5t4.65-1.25q3.7-2.7 5.5-8.3 1.4-4.3 1.45-8.25.05-3.9-1.25-6.35t-3.65-2.95m0-89.05-.05.35q0 2.65 1.4 9.1 1.65 7.35 3.05 8.3 1.6 1.1 5.15 1.75l4.1.35q.45-1 1-8.3l.55-9.6v-.55q-.55-.7-4.3-3.55l-4.65-3.25q-.75.25-3.35 2.5-2.7 2.25-2.9 2.9m-1.2-.7q.5-1.45 3.55-3.9 2.9-2.35 3.8-2.3 1.45.05 5.8 3.45 4.25 3.35 4.45 4.2.5 2.1 0 10.4-.5 9.2-2.05 10.1-1.05.6-4.55 0-3.85-.7-6.15-2.3-2.3-1.55-3.95-9.9-1.55-7.7-.9-9.75m32 12.15-.65-1.45-2.85.25q-2.5.5-2.6.85t1.2 1.8q1.25 1.45 1.65 1.5l1.85-.5q1.5-.55 1.6-.85zm-.05-2.55q.75.4 1.25 2.1.45 1.55.25 2.35-.35 1.3-4.8 2.25-.45 0-1.6-1.1l-1-1.15q-1.3-1.6-1.2-2.45.15-.5 1.05-1.05l3.2-.9zm27.3 15.2q-.1.75-2.85 5.1-3 4.7-4.6 5.95l-3.25.1q-1.65-.65-2.55-1.75-.8-.9-1.5-2.75-.75-1.95-.45-2.7.7-1.6 6.85-4.8 5.9-3.05 6.95-2.85 1.05.25 1.35 1.65zM60.95 71q0 .75.65 2.1l1 1.7 1.85 1.35 2.25.15q1.45-1.25 6.8-9.9l-.1-1.3q-.15-.95-.4-1-.9.05-6.15 2.9-5.35 2.9-5.85 3.7zm88.35-9.35q-1.7-.6-2.3-.65-.65.65-3.55 5.4-2.85 4.7-2.85 4.95.05.25 3.85 2.55l4 2.25q.2.05 1.45-3.35l1.35-3.95.2-3.3-.15-3q-.15-.3-2-.9m-2.7-2.05q.7-.25 3 .45 2.4.7 2.9 1.55.55.8.45 3.65l-.35 3.9-1.5 5.1q-1.2 3.35-1.9 3.6-1 .2-4.55-1.95-5.5-3.25-5.5-4.2.15-1.75 3.2-6.7 3.05-5 4.25-5.4m20.15 2.15-.9-.7-1.1-.45q-.2.05-1.05 1.65l-.75 1.75 1.05.55 1.2.35.6-.65.55-.7.3-.9zm-2.35-2.1q.45-.15 1.8.45 1.3.55 1.55.95.2.35.05 1.5l-.4 1.5-.85 1-1.1.7-1.8-.4q-1.5-.6-1.7-1-.2-.35.95-2.45 1.1-2.1 1.5-2.25m.8 35.95q.3.1.3.65-.05.55-.3.45l-6.3.2q-2.95.9-5.3 3.3-3.25 3.3-5.05 9.15-1.8 5.75-1.8 12.6 0 5.3 1.25 11 3.9-2.7 9.9-4.9 5.85-2.1 10.55-2.7-1.05-7.55 1.5-12.8 2.2-4.5 6.15-5.8 2.8-.9 6.35.8 2.8 1.3 4.95 3.6.2.25-.1.6-.25.35-.5.15-1.85-2.05-4.8-3.15-3.15-1.2-5.45-.45-3.5 1.15-5.4 6.2-1.85 5.1-1.2 11.6.1.65-.6.75-4.7.65-11 2.95-6.3 2.25-10.5 4.85-.85.5-1.05-.45-2.9-10.35-1.3-20.25 1.55-9.65 6.7-14.8 2.5-2.55 6-3.5 3.35-.9 7-.05m6 38.45q.6-.1.75.4 3 7.6 8.5 12 5.55 4.45 10.1 2.95 2.4-.75 4-4.05 1.65-3.4 1.8-8.1.05-.3.4-.25.4 0 .4.3-.4 12.05-6.1 13.9-5.15 1.65-11.05-2.9-6-4.6-9.1-12.8-11.7 2.2-19.75 7.35 5.2 12.5 13.7 19.15 5.5 4.35 11.35 5.6l6.6.3q3.2-.5 4.8-2 .2-.2.45.25.2.5 0 .7-1.85 1.8-5.15 2.45-3.4.65-7.1-.15-6.7-1.4-11.8-5.35-8.8-6.75-14.4-21-.25-.55.3-.9 5.5-3.35 10.15-5.1 5.35-2.05 11.15-2.75"/><path fill="#0f141b" d="m26.9 154.6.55.05q10.8 5.3 25.7 7.65.95.1.55.9-4.15 11.5-12.2 18.25-6.7 5.6-14.4 6.8-5.25.8-9.95-.9-4.55-1.7-7.5-5.35-.2-.2.1-.5l.5-.05q2.6 3.25 7.1 4.55l9.35.45q7.1-1.1 13.55-6.35 7.65-6.25 11.85-16.6-5.8-.6-12.4-2.45-7.25-2-12.3-4.65-3.55 7.55-8.85 10.8-5.15 3.1-10.55 1.3-2.95-1.05-4.7-3.8-1.55-2.45-2.5-6.9-.05-.3.5-.4t.6.15q1.65 7.7 6.4 9.15 4.95 1.5 9.9-1.7t8.3-10.05zm14-44.2q4.2 1.15 7.55 4.3 6.45 6.1 8.65 16.3 2.35 10.65-.7 23.05-.2.65-.75.55-7.65-.8-13.8-2.4-6.15-1.55-12.35-4.35-.55-.25-.45-.8 1.9-8.75-.15-15.35-2-6.65-7-8.15-3-.9-6.15.05-3.25 1-6.05 3.75-.2.2-.6-.25-.35-.4-.15-.6 6.95-6.75 13.4-4.85 4.25 1.25 6.75 6 2.45 4.7 2.45 11.25 0 3.45-.8 7.6 5.6 2.45 11.3 4 5.45 1.45 13.05 2.65 1.2-5.85 1.2-11.45 0-8.2-2.35-15-2.4-6.85-6.8-11-6.35-6.05-14.35-3.9-.25.1-.45-.6-.15-.65.1-.75 4.25-1.15 8.45-.05"/></svg>