<svg xmlns="http://www.w3.org/2000/svg" width="184" height="136" viewBox="-0.25 -0.35 183.5 135.75"><path fill="#fdd000" d="M2.95 97.2Q.8 95.9.85 95.65.9 95.2 3.9 93.4q2.75-1.6 4.5-2.4 1.25-2.35 3.3-5.2 2.15-3.1 3.5-4.2-.65 13.4 7.05 23.6l.25 2.7q-2 2.5-3.15 2.9-.45-.05-1.85-2.05-1.3-2-2.4-4.2l-5.9 1.35-6.05.5q-.15-.35.95-2.8 1.1-2.4 2.35-4.55z"/><path fill="#fdd000" d="m170.9 95.4-1.6 3.3-1.5 2.9q-.9-.15-3.2-1.65l-2.45-1.65-1.75 2.25-1.55 1.65q-.85-.4-2.15-4.4l-8.45-2.05q-6.2-1.5-7.65-2.35-2.45-3.05-3.15-5.95l-3.95 2.65q-2.85 1.7-4.4 2.3 2.55 3.25 3.55 6.65.6 2.2 1.4 8.35l3.3 1.75 3 2.05q-1.4.65-4.7 2.75l.75 3.2.35 3.15-6.1-1.4-1.2 3.05q-1.1 2.45-1.65 2.75-.3.05-2.4-1.25l-2.45-1.6-3.6 2.8q-3.3 2.3-4.65 2.65-1.15-6.45-1.6-7.1-1.75-2.65-8.85-7.75-7.4-5.3-11.2-6.35l.65 8.05q.2 4.8-.45 5.75-1.55.05-8.65-3.2-6.5-2.9-10.9-5.45-10.6 2.1-23.25 1.8-1.95 4.55-3.9 7.4-2.3 3.3-4 3.4-1.35.1-3.6-4.2-1.95-3.8-3.6-9.05-2.15 3.4-4.25 5.85-3.25 3.85-4.85 3.7-1.75-.15-3-7.05-.7-3.95-1-7.9-7.35-9.75-7.15-21.95.1-10.55 5.7-20.9 1.1-2.1 2.55-7.65 1.3-5.3 1.9-9.65 1.4 1.4 1.8 2.2.2-11.15.65-12.25l3.25 3.75 3.25 4.2 1.85-4.65 1.5-3.15L39 38l.8 2.85q7.75-11.6 27.5-22.15l9.25-6.6Q85.5 5.65 92.7 1.85q.65 1.55 1.2 5.85.5 4.2.4 6.9 5.6-2.55 8.25-4.05.5.95.9 4.6 5.15-3.3 13.35-7.7 7.8-4.15 9.1-4.4.55 3.75.3 20.25l18.35-1q-1.9 4.8-6.85 13l9.1-.7-3.55 5.35q2.15 3.1 3.65 7.5 1.7 4.95 1.6 8.85l5.7.55-1.1 1.85-1.5 2q12.15 4.85 16.55 9.8 3.95 4.35 6.15 14.45l4.75 1.7q2.6.95 2.75 1.4-.7.9-3.55 2.2-2.5 1.2-3.15 1.25l1.95 3.6 1.05 2.45-4.1-.6q-1.45-.45-3.1-1.55"/><path fill="#d28444" d="M137.45 87.45q1.1 4.6 3.1 5.9l-3.7 2.6q-2.9 1.85-4.5 2.45-.95-3.05-3.25-6 1.55-.6 4.4-2.3z"/><path fill="#5893c0" d="M19.35 110.8q1.35-.45 2.55-1.85-.05 2-2.8 6.5-2.8 4.5-4 4.4-1.25-.05-3.9-5.35-2.55-5.2-3.15-8.55l7.05-1.4q1.1 2.2 2.4 4.2 1.4 2 1.85 2.05M170.9 95.4q1.3.8 3.4 1.45-.5 3.2-2.5 7.6-2.1 4.65-3.4 4.9-1.15.25-4.2-3.55-2.5-3.2-3.6-5.3l1.55-2.2 2.45 1.65q2.3 1.5 3.2 1.65l1.5-2.9zm-43.1 29.3q.55-.3 1.65-2.75l1.2-3.05 3.45.95q-1.15 4.65-3.45 9.4-2.5 5.05-3.95 5.15-.95.1-3.8-3.05-2.95-3.25-4.3-6.1 3.6-2.4 4.35-3.4l2.45 1.6q2.1 1.3 2.4 1.25"/><path fill="#38a1db" d="M18.25 77.75q.6-6.25 2.3-9.9 1.55-3.35 3.45-3.2t2.85 4.25q1 4.05.45 9.65-.5 5.95-2 9.55-1.6 3.75-3.7 3.55-2.05-.2-2.95-3.5-.95-3.55-.4-10.4"/><path fill="#0f141b" d="M19.7 79.15q.2-2.75.95-4.25.7-1.3 1.55-1.25.95.05 1.5 1.7t.45 4Q24 81.7 23.3 83.3q-.75 1.65-1.65 1.55-.85-.05-1.4-1.35-.7-1.6-.55-4.35"/><g transform="translate(56.55 65.9)"><path fill="#38a1db" d="M5.65 29.4Q2 28.3.6 23.3q-1.35-5.05.35-11.1 1.75-6.05 5.8-9.6Q10.6-.8 14.1.2q3.7 1.1 5.05 6.15 1.4 5.05-.35 11.05t-5.6 9.55q-3.85 3.5-7.55 2.45"/><mask id="a"><path fill="#fff" d="M5.65 29.4Q2 28.3.6 23.3q-1.35-5.05.35-11.1 1.75-6.05 5.8-9.6Q10.6-.8 14.1.2q3.7 1.1 5.05 6.15 1.4 5.05-.35 11.05t-5.6 9.55q-3.85 3.5-7.55 2.45"/></mask><g mask="url(#a)"><path fill="#0f141b" d="M7.35 21.7q-1.4-.4-1.85-2.45-.45-2 .25-4.5.7-2.4 2.15-3.95 1.55-1.5 2.9-1.1 1.4.4 1.85 2.45.45 2-.25 4.5t-2.2 3.95q-1.5 1.5-2.85 1.1"/><path fill="#fff" d="M11.85 6.2Q11.9 4.45 13 3.25q1.1-1.15 2.5-1.1 1.5 0 2.5 1.2 1.05 1.15 1 2.95-.05 1.75-1.1 2.9-1.05 1.2-2.55 1.2-1.45-.05-2.5-1.25-1-1.25-1-2.95"/></g></g><g transform="translate(30.05 56.35)"><path fill="#5893c0" d="M.1 7.2q.3-3 1.35-5.05T3.65.2q1.25.1 1.8 2.2.6 2.15.25 5.35-.3 3-1.35 5.05-1.05 2-2.2 1.9T.4 12.4q-.65-2.2-.3-5.2"/><mask id="b"><path fill="#fff" d="M.1 7.2q.3-3 1.35-5.05T3.65.2q1.25.1 1.8 2.2.6 2.15.25 5.35-.3 3-1.35 5.05-1.05 2-2.2 1.9T.4 12.4q-.65-2.2-.3-5.2"/></mask><g mask="url(#b)"><path fill="#fff" d="M3.35 5.15q-.6-.05-.95-.85t-.25-1.9q.1-1.05.6-1.75T3.9 0q.6.1.95.85.35.8.25 1.85-.05.95-.65 1.75-.55.75-1.1.7"/></g></g><path fill="#5893c0" d="M48.5 63.55q1.15-3.05 2.95-4.9 1.8-1.8 3.15-1.3 1.5.55 1.6 3.15.05 2.45-1.1 5.5-1.2 3.2-2.85 4.95-1.75 1.85-3.25 1.3-1.4-.5-1.5-3.05-.15-2.55 1-5.65"/><path fill="#dbb400" d="m22.25 105.2.25 2.7q-2 2.5-3.15 2.9-.45-.05-1.85-2.05-1.3-2-2.4-4.2l-5.9 1.35-6.05.5Q3 106 4.35 103q9 1.45 14.85-2.65 1.3 2.5 3.05 4.85"/><path fill="#ac6c36" d="M137.45 87.45q1.1 4.6 3.1 5.9l-3.7 2.6q-2.9 1.85-4.5 2.45-.95-3.05-3.25-6 1.55-.6 4.4-2.3z"/><path fill="#46799f" d="M17.9 109.3q-3.25-1.5-9.35-1.4l-.5-1.95 7.05-1.4q1.55 3.05 2.8 4.75m153-13.9q1.3.8 3.4 1.45-.4 2.45-1.65 5.6-5.5-1.45-11.2-.55l-.85-1.4 1.55-2.2 2.45 1.65q2.3 1.5 3.2 1.65l1.5-2.9zm-40.25 23.5 3.45.95q-.75 3.15-2.5 7.3-5.9-2.25-12.15-.35l-.85-1.55q3.6-2.4 4.35-3.4l2.45 1.6q2.1 1.3 2.4 1.25.55-.3 1.65-2.75z"/><path fill="#38a1db" d="M18.25 77.75q.6-6.25 2.3-9.9 1.55-3.35 3.45-3.2t2.85 4.25q1 4.05.45 9.65-.5 5.95-2 9.55-1.6 3.75-3.7 3.55-2.05-.2-2.95-3.5-.95-3.55-.4-10.4"/><path fill="#0f141b" d="M19.7 79.15q.2-2.75 1-4.25.7-1.3 1.6-1.25t1.45 1.7q.5 1.65.4 4-.15 2.35-.85 3.95-.75 1.65-1.65 1.55-.85-.05-1.4-1.35-.7-1.6-.55-4.35"/><path fill="#38a1db" d="M62.2 95.3q-3.65-1.1-5.05-6.1-1.35-5.05.35-11.1 1.75-6.05 5.8-9.6 3.85-3.4 7.35-2.4 3.7 1.1 5.05 6.15 1.4 5.05-.35 11.05t-5.6 9.55q-3.85 3.5-7.55 2.45"/><path fill="#0f141b" d="M63.9 87.6q-1.4-.4-1.85-2.45-.45-2 .25-4.5.7-2.4 2.15-3.95 1.55-1.5 2.9-1.1 1.4.4 1.85 2.45.45 2-.25 4.5t-2.2 3.95q-1.5 1.5-2.85 1.1"/><path fill="#5893c0" d="M30.15 63.55q.3-3 1.35-5.05t2.2-1.95q1.25.1 1.8 2.2.6 2.15.25 5.35-.3 3-1.35 5.05-1.05 2-2.2 1.9t-1.75-2.3q-.65-2.2-.3-5.2m18.35 0q1.15-3.05 2.95-4.9 1.8-1.8 3.15-1.3 1.5.55 1.6 3.15.05 2.45-1.1 5.5-1.2 3.2-2.85 4.95-1.75 1.85-3.25 1.3-1.4-.5-1.5-3.05-.15-2.55 1-5.65"/><path fill="#dbb400" d="m73.05 111.6-10.9 1.3q-5.95.4-11.5.3l.5-1.35.9-1.6q11.3 1.35 19.5-.8l.7 1.05zm51.85-23.65q2.05-.7 5.75-3.05 4.8-3.1 6-5.7l.4 3 .4 5.25q-.3.05-3.8 2.05l-4.85 2.6q-1.1-1.8-3.9-4.15"/><path fill="#0f141b" d="M27.7 33.35q.6-.05 3.65 3.85l3.05 4.25-.45 1.3q-.5 1-.6.7l-1.95-2.7-3.15-3.9-.15 6.6-.2 6.65q-.4 3.2-1.1 2.9-.7-.35-.55-2l.1-10.05q.15-7.45 1.35-7.6"/><path fill="#0f141b" d="M39.8 42.85q-.8-.2-.8-1.55l-.4-1.8-1-2.5q-2.35 4.95-3.15 7.85-.45 1.65-1 1.1-.55-.5-.25-2.2.4-2.05 2-5.65 1.65-3.75 2.3-3.8.7-.05 2 3.1 1.3 3 1.2 4.1-.1 1.55-.9 1.35"/><path fill="#0f141b" d="M93.7 0q.65.25 1.25 5.55.6 5.2.35 8.4l-1 .65q-1 .35-1 0v-.05Q92.85 5.5 92.25 3.1 88.1 5.3 82.1 9.3q-5.5 3.65-9.2 6.55l-5.2 3.6q-9.05 4.8-16.4 10.7-7.45 5.95-10.9 11.3-.2.3-.75-.35-.55-.7-.35-1 4.25-6.5 11.7-12.6 6.7-5.45 15.3-10.05 3.55-1.85 5.55-3.55 4.8-3.9 12.65-8.95Q92.7-.35 93.7 0"/><path fill="#0f141b" d="M102.9 9.25q.35-.2.9 1.75.55 2.1.55 4.15 0 .35-.85.35t-.85-.35l-.6-3.35-7.6 3.65q-2.4.9-2.55.2-.1-.7 1.2-1.45 1.45-.85 5.35-2.75z"/><path fill="#0f141b" d="M127.2 1.85q.45.3.35 6.3l-.4 14.85-1.95.35.1-9.2-.15-9.95q-3.9 1.65-12.95 6.8-9.8 5.6-12.2 7.8-1.2 1.15-1.55.55-.3-.65 2.05-2.95 3.15-3.1 14.5-9.2 11.2-6.1 12.2-5.35"/><path fill="#0f141b" d="m125.65 22.6 10.7-1.1 8.9.35q.8 1.2-5.7 12.9-.15.25-1.75.5l-1.5.1 3.4-5.5 3.5-6.65-9.25.5-8.6.6q-1.65.2-2.05-.35-.45-.6 2.35-1.35"/><path fill="#0f141b" d="M134.8 36q.3-.8 1.9-1.25 3.6-.95 7.1-1.1 3.35-.15 3.75.55.6 1.15-1.75 4.3l-3.5 4q-1.9 1.9-2.45 1.5-.5-.35.5-1.6 2.5-3 5-6.95l-9.3 1q-1.6.3-1.25-.45"/><path fill="#0f141b" d="M142.55 40.4q-.2-.25.45-.75.7-.45.9-.2 2.5 2.7 4.15 7.45 1.85 5.25 1.15 9.3-.05.35-.9.3t-.8-.4q.2-3.75-1.35-8.35-1.4-4.25-3.6-7.35m-118.1 4.55q.15-1.1.4-1.2l1 .7 1.05 1.15q.4.4.05 1.5t-.55.7l-.55-.85q-.65 3.85-2.15 8.8-1.4 4.7-2.5 7-5.4 10.95-5.25 21.7.1 10.95 5.95 18.8l.15 2.25q-.05 1.15-.35.85-7.65-7.4-8.2-20.1-.5-12.45 5.85-24.2 1.2-2.15 2.8-7.5 1.7-5.55 2.3-9.6M74.5 112q-14.65 3.05-24.3 2.7l.65-1.2.5-1.2q11.65.15 21.4-1.7zm61.8-24.1q-.85-4.65 0-11.3.3-2.45 1-2.75.65-.25.4 1.6-.7 5.85.4 11.1 1.05 5 2.95 6.1.7.45 8.2 2.3l8.1 2.15q.9.4.9 1.2-.05.8-1 .6-14.95-2.65-17.4-4.25-2.7-1.75-3.55-6.75"/><path fill="#0f141b" d="M152.3 55.55q3 .3 2.7 1.6l-1.3 2.2-1.45 1.85q-.25.15-.75-.5t-.35-.85l1.75-2.4-6.6-.25q-1.35.1-1.3-.5t1.4-.85z"/><path fill="#0f141b" d="m175 84.3 4.2 1.25q4.05 1.4 4.05 2.25 0 .7-2.6 2.2-2.2 1.2-4.3 2 2.6 4.5 2.6 5.55 0 1.2-3.25.5-2.65-.6-4.45-1.5-2.4 6.4-3.15 6.65-.7.25-5.7-3.7-3.15 4.75-4.05 4.3-.7-.4-1.65-3l-.8-2.55q-.1-.35.7-.55l.95.1q.5 1.8 1.4 3.25 1.4-1.4 2.5-3.2.5-.75 1.1-.3l2.05 1.35q2.2 1.4 2.9 1.65l1.3-2.8 1.4-2.85q.55-.65 1.15-.2l2.2 1 3.25.85-2.4-4.65q-.25-.35-.05-.75.2-.45.65-.5l2.35-.9 3.1-1.65-6.45-2.35q-.45-.15-.55-.6-2.15-9.95-6.1-14.25-4.35-4.75-16.55-9.6-.95-.4-.6-1.05t1.35-.3q13.9 4.7 18.25 9.7 3.4 3.95 5.2 14.65"/><path fill="#0f141b" d="m173.15 96.6 1.2.05q1.2.35 1.15.7-.35 2.95-2.6 7.5-2.5 5-4.35 5.35-1.8.3-5.35-3.95-3-3.65-3.45-5.05-.15-.3.7-.85.85-.6.95-.25.55 1.4 3.2 4.8 2.8 3.6 3.65 3.65.95-.3 2.75-4.55 1.85-4.4 2.15-7.4M124 87.95q-1.1-1.05-.45-1.15.6-.1 2 .85 5.4 3.65 7.4 8.5 1.5 3.6 1.9 10.65 2.85 1.35 4.7 2.55 3.2 2.05 1.7 2.7-2.6 1.05-4.6 2.3 1.8 6.55 1.35 7.05l-2.95-.3-3.85-1.15-1.3 3.5q-1 2.4-1.55 2.65-.45.2-2.5-1.2l-2.8-1.95q-3.55 3.25-6.45 4.8-2.75 1.5-2.85.4l-.6-4.1-.75-3.4q-1.8-2.7-8.45-7.15-6.85-4.55-10.05-4.95-.35-.1-.75-1.7-.4-1.65-.05-1.6 3.6.45 11.45 6.2 7.3 5.35 9.25 8.25.45.75 1.55 6.45l4.2-2.6q2.25-1.65 2.7-2.2.5-.75 1.25-.2l1.85 1.25 2.2 1.3 1.25-2.45 1.05-2.65q.35-.9 1.15-.5l4.85 1.25-.45-2.9-.55-2.15q-.2-.45-.1-.65l.45-.4q1.15-.85 3.6-2.15l-2.75-1.75q-1.65-.95-2.3-1.15-.45-.15-.55-.7-1-7.75-2.3-10.6-1.55-3.45-6.9-8.95"/><path fill="#0f141b" d="M140 92.8q.25-.25.85.35t.35.85l-3.4 2.65q-2.95 2.05-4.65 2.6-.35.1-.85-.75-.5-.9-.15-1 1.55-.5 4.5-2.35 2.6-1.6 3.35-2.35m-3.25-6.05q.25-.3.9.25.7.5.45.8-.7.95-4.1 2.9-3.45 2-4.8 2.2-.35.1-.5-.6t.2-.8q1-.2 4.2-2.15 3.1-1.9 3.65-2.6M14.55 80.6q.25-.2.55.9t.1 1.3q-1.45 1.45-3.5 4.45-2.05 2.95-2.95 4.9-.8 1.75-1.05 1.05-.25-.65.4-2.55.85-2.45 2.8-5.55 2.05-3.3 3.65-4.5"/><path fill="#0f141b" d="M8.8 89.65q.35-.05.15 1.05-.15 1.1-.45 1.2-.65.15-3.05 1.5-2.35 1.35-3.4 2.2l2.4 1.4 2.35 1.1q.3.1.05.9-.2.8-.55.7-6.55-2.95-6.3-4.15.2-.8 4.3-3.35 3.75-2.35 4.5-2.55"/><path fill="#0f141b" d="M5.75 98.6q1.4-2.05 2.15-1.75.7.3-.3 1.9-2.4 4.15-3.4 6.8l5.65-.75 4.95-1.05q.7-.25 1.05.4 2.1 4.05 3.55 5.65l2.4-2.45q.2-.25.9.25.65.55.45.8-3.05 3.8-3.85 3.7-.9-.1-2.45-2.85l-2-3.95L7.8 107l-5.9.35q-.25-.65 1.5-4.35 1.6-3.4 2.35-4.4"/><path fill="#0f141b" d="M22.6 108.85q.7.85.55 1.2-.8 2.35-3.55 6.3-3.05 4.4-4.55 4.35-1.85-.05-4.95-5.9-2.9-5.4-3.45-8.65-.05-.35 1.05-.55l1.15.1q.55 3.15 3 8.15 2.3 4.8 3.25 5.15.95-.2 3.25-3.9 2.3-3.75 3.45-6.8.1-.35.8.55m110.55 10.85 1 .05q.95.35.85.7-1 4.15-3.3 8.9-2.8 5.75-4.9 5.9-1.45.15-4.6-3.1t-4.35-6q-.15-.3.65-.9.8-.65.95-.3 1.1 2.5 3.85 5.65 2.5 2.75 3.3 2.95 1-.1 3.15-4.45 2.25-4.55 3.4-9.4"/><path fill="#0f141b" d="M21.95 98q.6-2.4 1.15-2.4.5-.05.3 1.35-.6 4.45.15 11.5.85 8.1 2.9 10.85 1.25-.05 4.05-3.6 2.45-3.15 4.05-6.15.15-.3.85.6.75.9.55 1.2l-3.5 5q-3.9 4.85-6.25 4.65-2.75-.25-4.1-9.7-1.3-8.85-.15-13.3"/><path fill="#0f141b" d="M53.1 102.2q.3-1.85.95-1.95.65-.15.45 2.4-.4 5.95-4.45 13.75-4.15 8.05-7.45 8.3-2.8.2-5.95-7-2.85-6.6-3.25-12.1-.25-3.3.35-3.95.65-.65.9 1.35.85 6.1 3.75 13.25 2.8 6.85 4.05 6.75 2.4-.15 6.2-7.95 3.6-7.45 4.45-12.85m50.85-56q-3.5-.15-9.8 1.3-6.7 1.55-9.85 3.45l-1.1.2q-.35-.25-.2-1.1l.5-5.35q-2.3 2.2-4.05 4.4-1.1 1.35-1.4.95-.25-.4.5-2 .8-1.7 2.65-3.55 1.5-1.55 2.9-2.5l1.05-.6q.25.05.25 1.2l-.6 6.2q5.2-2.5 13.8-4.25 9.1-1.85 8.25.4l-3.9 9.95q-3.2 8.2-4.05 10.8l8.15-1.75 1.2.05q.2.3-.3 1.2l-4 5.5q6.65.85 15.2 3.8 8.85 3.1 8.85 4.8 0 1.9-8.6 8.95-10.95 8.95-25.85 16.2.7 3.6 1 9.1.35 6.25-.45 7.25-1 1.2-9.65-2.8-7.9-3.6-11.2-6.1-2.75-2-2.45-2.55.3-.5 2.4.65 4.25 2.35 10.25 5.15 7.1 3.35 9.3 3.8.25-1.2 0-5.85-.2-4.85-.75-8-.2-1.15-.1-1.35.15-.45 1.35-1.05 24.3-12.9 31.7-23.2-2.2-1.75-9.8-4.3-8.05-2.7-13-3-.9-.05-1.05-.45-.15-.45.55-1.05.95-.75 3.4-4.65L97.9 67.7l-.95-.1q-.2-.2-.1-.9.15-.95 3-9z"/><path fill="#fff" d="M22.35 68.6q.1-1.45.75-2.3.7-.85 1.6-.8 1.1.05 1.65 1.1.45.9.4 2.2-.05 1.55-.7 2.4-.65.8-1.65.75-.9-.05-1.5-1-.6-1-.55-2.35m46.05 3.5q.05-1.75 1.15-2.95 1.1-1.15 2.5-1.1 1.5 0 2.5 1.2 1.05 1.15 1 2.95-.05 1.75-1.1 2.9-1.05 1.2-2.55 1.2-1.45-.05-2.5-1.25-1-1.25-1-2.95m-35-10.6q-.6-.05-.95-.85t-.25-1.9q.1-1.05.6-1.75t1.15-.65q.6.1.95.85.35.8.25 1.85-.05.95-.65 1.75-.55.75-1.1.7m19.45.8q-.7-.25-.9-1.2-.2-.9.2-2 .35-.95 1.2-1.55.85-.65 1.45-.4.65.25.9 1.2.2.95-.2 2-.4 1.1-1.15 1.65-.8.55-1.5.3"/><path fill="#0f141b" d="M26.1 69.35q-.85-4-2.3-4.1-1.15-.1-2.6 2.8-1.75 3.65-2.3 9.75-.55 6.15.35 9.75.8 3.2 2.4 3.45 1.4.2 2.85-3.05 1.55-3.5 2-8.9.5-5.5-.4-9.7m-2.2-5.3q2.35.2 3.5 4.95 1.15 4.45.65 10.15-.6 6.55-2.6 10.15-1.7 3-3.65 2.95-2.35-.05-3.6-4.1-1.3-4.05-.8-10 .7-7.65 2.75-11.3 1.7-3 3.75-2.8m51.2 8.45q-1.15-4.8-4.6-5.8-3.1-.9-6.7 2.3-3.8 3.35-5.5 9.3-1.6 5.45-.4 10.45 1.2 5.1 4.45 5.95t6.7-2.1q3.7-3.25 5.5-9.5 1.7-5.8.55-10.6m-4.15-6.95q3.95 1.15 5.55 6.4 1.6 5.3-.25 11.55-2.05 7.1-6.8 10.65-4.55 3.35-8.35 1.5-3.4-1.6-4.65-6.95-1.25-5.4.45-11.25 1.75-6.05 6-9.6 4.15-3.45 8.05-2.3m-35.9-6.4q-.4-1.95-1.4-2.05-.9-.1-1.75 1.65-.95 1.9-1.25 4.85t.1 4.9q.4 2.05 1.5 2.15.95.1 1.8-1.8.8-1.85 1.1-4.85.3-2.9-.1-4.85m-1.25-3q1.4.15 2.15 2.45t.4 5.65q-.35 3.45-1.6 5.6-1.2 2.15-2.65 2.05-1.25-.15-2-2-1-2.3-.6-6.4.4-3.85 1.8-5.85 1.15-1.7 2.5-1.5m20.6 1.7q-1.05-.4-2.6 1.25-1.7 1.7-2.8 4.65-.9 2.4-.95 4.85-.05 2.7 1.1 3.15 1.15.4 2.65-1.15 1.45-1.5 2.6-4.3 1.05-2.6 1.05-5.35 0-2.7-1.05-3.1m-3.2.15q2.15-1.75 3.75-1.05 1.6.75 1.8 3.65.25 2.95-1.1 6.45-1.2 3.2-3.3 4.9-2.05 1.65-3.7 1.05-1.55-.6-1.95-3.2-.4-2.8.85-6.2 1.3-3.65 3.65-5.6"/></svg>