<svg xmlns="http://www.w3.org/2000/svg" width="170" height="205" viewBox="-0.09 -0.14 170.44 204.86"><path fill="#009a64" d="M15.34 151.6q-12.43 2.07-12.85 1.52-.23-.33 3.42-6.56l4.49-7.4 5.22 5.87zM55.95 31.88q-.18-1.62-.32-8.78-.1-7.44.14-7.58.27-.18 3.6 2.22 3.05 2.22 5.18 4.02l4.52 5.92zM147.02 73q3.79.7 11.55 2.73 8.45 2.17 8.68 2.77.37.92-16.12 15.48l-4.34-11.23zm-1.43 70.5 1.66-15.66 4.3-9.24 10.16 8.04q8.09 6.47 7.95 7.02-.19.98-24.07 9.85m-25-109.32-5.5-.83-2.3-4.71 5.3-3.2q3.84-2.12 4.16-2.03.37.14-1.66 10.77M58.22 179.5l11.4 6.24q-1.42 1.66-9.65 9.28-8.73 8.04-9.42 7.72-1.07-.56-2.4-22.69z"/><path fill="#c9c9c4" d="M143.23 151.22q-10.26 20.7-29.71 30.03-20.88 10.03-48 4.67-27.13-5.4-42.6-22.64Q8.5 147.2 6.84 124.15 5.54 105.53 11.92 87q6.15-17.65 18.44-33.08 13.44-16.87 29.1-25.04Q78.13 19.13 97.81 23q19.64 3.93 33.18 20 11.31 13.55 17.31 34.3 5.5 18.94 4.44 37.6-1.2 19.55-9.52 36.32"/><path fill="#009a64" d="m58.59 103.96 18.66 3.83 17.7 8-1.8 5.12q-1.8 4.8-2.32 5.4-.55.75-10.8 3.1-10.31 2.4-11.37 1.9-1.07-.51-7.35-7.76-6.24-7.26-6.51-8.27-.19-.84 1.43-5.22zm77.48 17.28q-.74 4.48-1.3 5.82-.55 1.38-7.94 6.42-7.12 4.85-8.18 4.94-.88.1-7.8-4.85-6.85-4.99-7.36-5.96-.41-.78.05-4.43l.88-5.73 16.63-1.62 15.76.6z"/><path fill="#f7bf4a" d="m64.45 106.91 12.3 1.53 9.79 5.87q-1.53 3.92-4.58 6.65-4.8 4.16-10.9 2.12-6.14-2.03-7.07-8.59-.55-3.46.46-7.58m66.3 10.59q-.27 3.64-2.9 7.57-3.33 4.94-7.77 4.94-4.85 0-7.3-4.8-1.62-3.28-1.62-6.75l9.43-1.94z"/><path fill="#009a64" d="M116.94 82.38q7.9 1.62 8.13 2.36.19.83-4.3 6.23-4.85 5.78-9.8 10.17-6 5.36-12.42 2.96-6.74-2.5-8.22-9.8-.84-4.02.41-7.2 1.02-2.73 3.42-4.63 3.65-2.82 9.29-2.26 5.87.6 13.49 2.17"/><path fill="#525557" d="M50 130.66q.78.05 2.86 2.64 2.08 2.58 1.98 3.18-.04.51-3.14 2.04-3.1 1.52-3.6 1.34-.51-.19-1.11-3.1-.56-2.77-.37-3.46.14-.6 1.34-1.62 1.25-1.06 2.03-1.02m52.77 11.09q.5.05 3.28 2.91 2.81 2.91 2.49 3.42-.28.55-3.51 1.2l-3.74.46q-.47-.04-1.3-1.66-.87-1.52-.87-2.17 0-.6 1.61-2.36 1.53-1.8 2.04-1.8m32.38-6.75q.51-.5 3.24-.6 2.63-.09 2.82.37.13.56-1.25 3.75-1.48 3.23-2.13 3.23-.64.05-1.7-1.57-.93-1.39-1.2-2.26l-.24-1.53q.05-.92.46-1.39m-50.31 52.77-4.44-.1q-1.01-2.72-.64-3.32.23-.42 2.68-.46l2.63.23q.37.37-.23 3.65m-16.96-17.88q.65.09 1.62 2.54.88 2.26.83 2.96 0 .5-.55 1.24l-.88.93q-.32.27-1.8 0l-2.13-.46-1.94-1.62q-1.39-1.34-1.43-1.76 0-.46 2.82-2.22 2.82-1.8 3.46-1.61M57.94 86.4q0-.7 3.83-4.07t4.44-3.18q.6.09 2.12 4.52 1.53 4.49 1.02 5.13-.5.65-5.91-.5-5.5-1.2-5.5-1.9m75.77 4.11q.7-.04 2.45 1.62 1.66 1.66 1.66 2.22-.04.83-1.43 4.15-1.48 3.56-2.22 3.6t-2.68-1.84q-1.9-1.85-1.9-2.5-.04-.73 1.67-3.92 1.76-3.33 2.45-3.33m-32.66-40.66q.18-.55 4.52-1.01l4.67-.23q.55.32 0 3.18l-1.06 2.4q-.97 2-1.39 2.18l-1.3.14-1.33-.37q-.51-.33-2.36-2.96-1.94-2.82-1.75-3.33"/><path fill="#009a64" d="M108.25.79q.88.37 3.24 13.53 2.3 12.85 2.12 15.11-.14 2.17-3.83 3.19-4.16 1.15-9.84-.23-5.36-1.39-8.41-4.9-2.54-2.91-1.94-4.2.78-1.48 9.05-11.88 8.78-11 9.61-10.62M73.1 21.2q8.54 6.24 11.13 8.97 2.82 2.96 1.75 7.53-1.1 4.95-6 7.07-3.51 1.48-7.12.97-3.46-.55-5.5-2.59-1.29-1.24-1.8-3.79-1.01-4.9-1.66-14.36-.6-9.43 0-9.66.74-.28 9.2 5.87M30.96 71.48q-1.9-1.62-3.33-3.98-3.19-5.45-6.75-13.49-3.55-8.08-3-8.69.6-.55 9.24.98 8.13 1.47 14.37 3.1 4.71 1.2 6.6 3.6 2.22 3.04 2.27 7.2 0 4.44-2.72 8.18-4.58 6.28-12.48 5.04-2.12-.33-4.2-1.94m15.38 107.28q-3 3.14-14 5.91-10.35 2.64-11.23 1.76-.6-.6 2.22-9.94t4.44-11.73q2.26-3.51 6.79-4.39 4.99-1.02 9.52 2.4 3.37 2.45 4.39 7.3 1.15 5.32-2.13 8.69m57.39-3.37q4.06-1.62 8.64-.14 4.52 1.48 5.45 4.71.55 2.03-.6 12.84-1.16 10.77-2.04 11.05-1.01.37-8.54-5.69-7.9-6.37-10.03-10.02-2.17-3.7.46-7.63 2.27-3.37 6.66-5.12m-69.68-66.21q-2.22 3.79-5.77 5.31-3.93 1.71-8 .37-3.37-1.06-5.73-3.56-2.9-3.14-8.5-10.72-5.73-7.76-5.5-8.45.33-.6 10.03-.88 8.87-.23 13.08 0 4.48.23 7.06 1.85 3.47 2.08 4.63 7.07 1.15 4.66-1.3 9M137.5 35.76q10.16-.28 10.53.28.33.46-3.65 6.93-4.02 6.56-7.07 10.49l-1.89 2.17q-.92.78-2.03 1.1-3.05.88-6.33-.73-3.88-1.8-5.87-6.29-2.22-5.17-.14-9.28 1.62-3.14 4.16-3.8z"/><path fill="#525557" d="m140.5 156.21-3.88 5.82q-13.72 5.78-32.25 6.47-21.62.83-41.21-6-18.39-6.43-32.71-17.38-14.7-11.18-23.8-26.06-.04-4.01.23-7.94 9.57 15.52 23.61 27.26 14.93 12.47 32.67 18.71 19.64 6.84 42.64 5.91 20.06-.78 34.7-6.79m12.39-49.94v5.08q-15.25 7.16-34.24 7.44-18.3.27-38.86-5.78-20-5.87-35.9-16.54-15.43-10.35-25.55-24.2l2.59-4.63q10.35 13.77 25.04 23.8 15.71 10.71 35.4 16.49 20.5 6 38.02 5.68 18.06-.32 33.5-7.34M143 62.74l1.85 4.4q-11.32 4.75-24.17 5.44-14.27.79-29.57-3.6-14.92-4.25-27.44-12.1-12.52-7.9-19.45-17.47l3.78-3.1q6.7 9.3 18.72 16.55 11.27 6.83 25.73 11 13.96 4.01 26.9 3.73T143 62.74"/><path fill="#e6e6e6" d="M41.35 101.32q1.57-2.4 3.24-1.48 1.66.93.69 3.6l-3.33 9.39q-1.1 3.05-2.95 2.35-1.85-.64-1.3-3.88.51-3.19 1.25-5.22.74-2.26 2.4-4.76m20.33-37.74q2.91-2.92 4.67-1.48 1.7 1.38-.56 4.8l-6.28 9.38q-3.47 5.55-6.28 10.95-2.13 4.2-3.93 2.91-1.8-1.34-.05-5.68 2.91-7.12 6.6-13.08 3.15-5.08 5.83-7.8"/><path fill="#9f9f9b" d="M133.2 151.55q9.34-2.78 13.36-6.01-3.75 12.06-16.4 24.49-6.38 6.19-11.97 9.98 0-1.71-3.24-3.88-4.39-2.96-10.85-1.11-6.33 1.8-8.04 7.07-.84 2.63-.47 4.9-13.44 3.23-33.22-1.58-6.19-1.48-12.2-3.6l-4.85-1.8q1.95-.47 2.92-4.02.69-2.45.69-4.3 0-2.68-1.76-5.87-2.86-5.22-8.82-5.82-5.87-.55-9.61 3.23-1.85 1.9-2.54 3.89-16.64-15.2-19.4-41.54-.8-8.27-.2-16.59l.84-6.74 6.05 8.04q1.66 2.17 4.34 3.74l2.31 1.1q8.18 11.7 18.72 19.92 20.93 16.4 49.06 19.22 26.57 2.68 45.28-2.72"/><path fill="#38393a" d="m84.83 187.77-4.44-.1q-1.01-2.72-.64-3.32.23-.42 2.68-.46l2.63.23q.37.37-.23 3.65m-16.96-17.88q.65.09 1.62 2.54.88 2.26.83 2.96 0 .5-.55 1.24l-.88.93q-.32.27-1.8 0l-2.13-.46-1.94-1.62q-1.39-1.34-1.43-1.76 0-.46 2.82-2.22 2.82-1.8 3.46-1.61m72.63-13.68-3.88 5.82q-13.72 5.78-32.25 6.47-21.62.83-41.21-6-18.39-6.43-32.71-17.38-14.7-11.18-23.8-26.06-.04-4.01.23-7.94 9.57 15.52 23.61 27.26 14.93 12.47 32.67 18.71 19.64 6.84 42.64 5.91 20.06-.78 34.7-6.79"/><path fill="#008857" d="M125.16 85.06q-7.94 10.21-11.82 14.41-3.28 3.52-7.12 4.72-4.48 1.43-9.1-.65-4.11-1.9-5.78-5.64l-.83-3.37q.65 1.8 4.9 2.36 4.71.64 10.12-1.02 4.9-1.48 12.75-6.28zM30.45 71.57q-1.62-.88-5.5-8.78-3.23-6.56-5.18-11.74-1.2-3.28-1.47-4.66v-.74q2.58 5.4 10.72 13.35 10.76 10.54 18.66 9.29l-1.8 2.22q-2.31 2.4-5.13 3.04-2.96.7-5.91-.09-2.04-.5-4.4-1.9m1.21 40.71q-2.5 2.31-4.8 2.96-3.2.88-5.97.14-3.42-.97-6.93-4.48-3.18-3.2-8.54-11.23L.74 92.31q4.94 4.9 13.4 10.58 12.89 8.64 19.59 7.26zm120.5-18.47-1.34-8.1 16.63-7.25zm-4.49 48.69 3-9.15 18.86.65zm-136.89 1.52 3.74 8.27-12.43 1.02zm39.59 58.77 2.08-20.23 16.68 4.48zm-3.14-24.76q-2.22 2.63-9.43 5.08-5.77 2.03-11.13 2.87l-5.68.46q11.82-5.22 18.7-13.35 5.83-6.84 4.67-10.35l2.27 2.26q2.22 2.73 2.22 5.08 0 3.8-1.62 7.95m54.7-1.94q-1.52 2.4 1.34 9.7 3.51 9.01 12.02 18.34l-10.95-7.8q-2.6-1.8-4.72-3.8-4.02-3.97-4.3-7.43-.27-3.47 3.15-6.56zM56.09 15.57l3.42 12.84-1.99 1.4q-2.08 1.28-2.08 1l-.14-7.52q0-7.3.79-7.72M80.8 44.03q-2.12 1.16-4.89 1.57-5.4 1.02-8.32-2.22-3.04-2.3-3.74-20.05-.32-7.2-.14-7.76l1.07 4.39q1.47 5.22 3.23 9.66 5.73 14.13 12.8 14.41m62.33 1.39q-5.69 9.65-8.41 11.18-3.56 1.7-7.72-.56l-3.51-2.58q6.47-1.44 14.55-8.09 4.4-3.56 10.21-9.33zm-31.79-31.56 1.48 7.16q1.38 7.4.78 8.87-1.2 2.45-7.07 2.96l-5.68.05q6.42-1.11 8.92-8.83 1.01-3.14 1.57-10.2m11.13 9.93-1.34 9.42-2.86-2.08z"/><path fill="#0f141b" d="m96.06 186.01.6 2.17q-15.34 2.31-31.38-.78v-.28q-11.55-2.26-21.34-6.84l2.03-1.2q9.01 4.02 19.64 6.15 16.22 3.23 30.45.78m-89.5-84.64 1.9 2.5q-1.62 10.07-.93 20.28.83 11.18 4.85 21.02 4.07 9.84 11.04 17.7l3.52 3.6-.79 2.36q-.97-.84-4.39-4.58-7.2-8.04-11.41-18.3-4.3-10.34-5.04-21.76-.78-11.27 1.25-22.82m17.37-41.12L25 62.47Q15.9 76 11.37 91.07H9q4.76-16.13 14.92-30.82m40.1-34.8-.18 2.18Q49.35 34 36.32 48.1l-2.36-.6Q48 32.3 64.04 25.46m12.15-1.8-1.8-1.58q8.68-2.03 17.28-1.29L90 22.73q-6.88-.41-13.81.93m49.99 12.75-1.9.78q-4.75-4.39-10.67-7.71l-.14-2.27q6.89 3.7 12.71 9.2m11.37 17.32 1.01-1.94q7.44 11.83 11.5 25.92 5.69 19.5 4.3 38.67-1.38 19.04-9.6 35.49-9.66 19.31-26.94 28.83l-.6-2.22q16.35-9.38 25.4-27.63 8.05-16.12 9.34-35.07 1.3-18.94-4.34-38.3-3.7-12.89-10.07-23.75m-80.17 50.92 1.39.46q-3.7 9.06-3.37 9.98.37 1.06 6.47 8.18 6.1 7.07 7.06 7.48 1.16.37 10.95-1.89 9.66-2.26 10.59-2.91l1.94-4.67 1.66-4.57q.05-.23.78-.14.74.18.7.37l-1.71 4.94q-1.71 4.53-2.27 5.22-.83.93-11.55 3.47-10.76 2.5-11.82 1.99-1.2-.56-7.72-8.14-6.56-7.57-6.88-8.77-.37-1.34 3.78-11"/><path fill="#0f141b" d="M136.16 116.99q.05-.24.79-.37.78-.1.73.13-1.01 8.97-1.75 10.77-.65 1.62-8.55 6.93-7.67 5.13-8.87 5.27-1.1.14-8.45-5.32-7.17-5.26-7.77-6.37-.41-.79.19-3.74l1.2-5.73 1.48.04-.93 5.09q-.55 3.04-.23 3.7.56.92 7.12 5.63 6.51 4.66 7.44 4.85 1.15-.19 8.04-4.94 7.11-4.8 7.67-6.15.83-1.99 1.89-9.7zm-72.4-9.57.65-.1q.5.15.5.38-.92 3.23-.36 6.74.97 6.15 6.65 8.09 6.14 2.03 10.86-2.45 1.47-1.43 2.63-3.33l.88-1.7q.09-.24.6 0 .6.18.5.41-1.2 3.84-4.9 6.7-4.93 3.84-11.03 1.85-6.33-2.13-7.44-8.92-.7-4.25.46-7.67"/><path fill="#0f141b" d="M130.1 117.96q.05-.28.6-.19.6.05.56.28-.18 4.11-3.05 8.13-3.37 4.76-8.13 4.76-3.6 0-6.24-2.68-1.98-1.94-2.81-5.18-.6-2.3-.47-4.25 0-.23.56-.23.55 0 .55.23 0 1.67.7 3.8.87 3 2.63 4.8 2.12 2.08 5.08 1.98 4.16 0 7.26-4.52 2.44-3.56 2.77-6.93m6.29 43.57q.22-.05.18.69-.05.78-.28.88-13.77 5.59-31.79 6.42-21.76.92-41.67-6Q25 150.3 6.6 120.16q-.14-.18.14-.92.18-.74.32-.55 9 14.78 23.24 25.73 14.28 10.95 33.08 17.51 19.68 6.84 41.35 5.91 18.11-.78 31.65-6.32"/><path fill="#0f141b" d="m140.5 155.61.33.56q.09.64-.14.73-14.7 6.2-34.8 7.07-23.05.93-42.92-6-17.41-6-31.97-17.98-14.5-11.87-24.49-28.23-.13-.18.33-.69.41-.41.55-.23 9.84 16.13 24.26 27.9 14.5 11.79 31.74 17.8 19.73 6.88 42.55 5.96 20.06-.79 34.56-6.89m11.83-44.58q.23-.1.46.41l.05.65q-15.34 6.97-33.78 7.48-18.57.51-39.64-5.68-19.59-5.82-35.57-16.59Q28 86.58 17.75 72.4q-.15-.18.36-.5.42-.38.56-.2 10.11 14 25.96 24.5 15.85 10.53 35.3 16.26 42.14 12.43 72.4-1.43"/><path fill="#0f141b" d="M152.65 105.71q.24-.09.47.46.23.51 0 .6-15.44 7.07-33.18 7.63-18.02.6-38.8-5.55-18.95-5.54-34.57-16.12-15.34-10.4-26.2-24.81-.13-.14.33-.51.46-.32.65-.18Q31.97 81.36 47.3 91.57t34.24 15.76q20.74 6.14 38.4 5.73 17.6-.42 32.7-7.35m-8.03-39.13q.24-.1.47.46.23.5 0 .6-12.25 5.22-25.78 5.82-13.82.6-28.47-3.5-15.01-4.3-27.67-12.44-12.43-8.04-19.5-17.88-.14-.23.37-.55l.56-.1q6.93 9.57 19.26 17.38 12.38 7.85 27.4 12.06 29.34 8.31 53.36-1.85"/><path fill="#0f141b" d="M142.72 62.24q.19-.1.42.46.23.5 0 .6-10.86 4.57-23.89 5.03-13.35.47-27.08-3.46-14.97-4.3-26.65-11.78-11.46-7.3-18.12-16.54-.09-.19.37-.51.47-.33.6-.14 6.43 8.92 17.88 16.03Q77.67 59 92.64 63.3q13.67 3.93 26.61 3.65 12.89-.23 23.47-4.71M120.13 90.7q4.57-5.27 4.48-5.73-.1-.37-7.8-1.9-8.19-1.66-13.45-2.17-5.36-.5-8.78 2.13Q89.54 87 91.02 94.2q1.43 6.93 7.8 9.24 3.06 1.15 5.92.46 2.87-.7 5.82-3.28 4.44-3.93 9.57-9.93m-16.54-11.5 8.68 1.47q8.13 1.48 11.46 2.68 1.76.65 1.94 1.25.19.46-.55 1.75-1.57 2.73-6.1 7.81-4.4 5.04-7.53 7.76-3.28 2.87-6.66 3.6-3.18.75-6.74-.45-3.42-1.11-5.78-3.93-2.26-2.73-3.1-6.6-.92-4.44.7-8.19 1.25-2.82 3.7-4.8 3.83-2.91 9.98-2.36M50 130.06q.87 0 2.76 2.17l1.39 1.8q1.34 1.85 1.25 2.5-.05.46-1.25 1.3l-3.19 1.7q-2.45 1.07-3.1.88-.87-.32-1.47-3.6-.51-2.87-.37-3.65.23-.79 1.57-1.94 1.43-1.2 2.4-1.16m1.48 8.04q2.91-1.3 3-1.66.1-.42-1.94-2.78-2.03-2.35-2.58-2.44-.47-.05-1.62.92-1.11.83-1.34 1.25-.14.37.41 3.05.65 2.72.93 2.82zm54.38 7.16-3.14-2.82-1.85 1.71q-1.34 1.34-1.43 1.71-.05.33.78 1.76l1.16 1.57 3.74-.5 3.1-.75q.04-.28-2.36-2.68m-6.42 3.14q-.88-1.66-.88-2.54 0-.83 1.71-2.72 1.71-1.99 2.5-1.94.73.04 3.14 2.44l2.95 3.52q.47.74.19 1.2-.65 1.2-7.86 1.98-.78-.13-1.75-1.94m38.35-14.69 3.14.28q.7.14.83.6.23.65-.88 3.23-1.01 2.5-1.85 3.6-.64.93-1.2.93-.97.05-2.26-1.99l-1.2-2.3q-.28-.8-.23-1.72 0-1.15.6-1.75.74-.74 3.05-.88m3.14 1.2q-.1-.18-2.54 0-2.4.23-2.82.56-.37.32-.32 1.1.04.6.23 1.11l1.01 2.36q.83 1.57 1.2 1.57.42 0 1.9-3.23 1.48-3.24 1.34-3.47m-61.68 49.16q.28-.46 1.52-.64l2.5-.1q1.8 0 2.22.37.6.6-.05 4.07-.05.28-1.16-.23l.37-2.96-2.3-.18-2.32.04q-.14.14.97 3.1-1.01.69-1.1.37-1.11-3.05-.65-3.84m-12.2-7.02 1.53.1.83-.8.6-.92-.97-2.72q-.93-2.22-1.2-2.31-.37-.05-3 1.52L62 173.77q-.04.28 1.39 1.48 1.34 1.1 1.85 1.3zm.97-7.76q.92.23 1.99 2.95.92 2.4.88 3.15 0 .69-.65 1.61l-1.02 1.07-2.3.09-2.13-.56-2.22-1.7q-1.62-1.58-1.66-2.22 0-.51.92-1.3.92-.83 2.96-1.94 2.4-1.34 3.23-1.15M57.38 86.4q0-1.06 3.6-4.34 3.7-3.33 5.37-3.52.74-.09 2.45 4.72 1.7 5.03 1.01 5.87-1.06 1.38-10.49-1.34-1.94-.7-1.94-1.4m4.8-3.6q-3.55 3.15-3.5 3.47.09.32 5.13 1.34l5.08.74L67.64 84q-1.3-4.07-1.62-4.2-.27-.15-3.83 3m71.43 7.11q.97-.1 2.77 1.62 2.03 2.03 1.99 2.86-2.36 8.23-4.16 8.27-.92 0-2.54-1.43l-1.34-1.39q-1.39-1.47-1.34-2.03.1-1.06 1.75-4.3 1.8-3.5 2.87-3.6m.5 11.97q.33 0 1.72-3.42l1.43-4.07q-.14-.5-1.57-2.03-1.48-1.48-1.85-1.43-.37.04-2.03 3.05-1.57 3-1.67 3.7.14.55 1.9 2.35z"/><path fill="#0f141b" d="M101.23 49.02q1.62-.65 5.22-.92 3.47-.33 4.07.04.92.47.27 3.75l-.83 2.35q-.88 2.04-1.9 2.64l-1.65.23-1.58-.51q-.64-.42-2.54-3.1-2.08-2.95-1.8-3.88.14-.37.74-.6m4.3.37-4.11.56 1.84 2.86 2.22 2.82 1.02.23h1.01l1.16-1.94 1.02-2.27q.37-2.3.18-2.44zM108.44.05q.6.18 1.06 1.7l1.43 6.2 1.34 6.56 2.54 15.24q-.13 1.53-1.66 2.64-1.85 1.3-5.17 1.75-3.98.51-8.37-.55-4.02-1.02-7.16-3.65-2.68-2.22-3.79-4.57-.69-1.62-.32-2.45.32-.51 4.3-5.5L97.8 11q6.98-8.18 8.87-10.03 1.11-1.1 1.76-.92m-.37 1.43q-.32-.14-7.16 8.36-5.87 7.3-9.66 12.3-.92 1.24-.97 1.8-.05.46.65 1.56.88 1.53 2.58 2.91 2.73 2.31 6.61 3.24 4.4 1.1 8.09.46 2.35-.41 3.37-1.15 1.2-.84 1.34-1.67l-.28-2.12-2.45-15.25q-1.8-10.35-2.12-10.44m-31.5 21.16q6.93 5.27 8.5 6.88 1.39 1.44 1.94 3.6.55 2.18.1 4.4-.56 2.58-2.36 4.85t-4.3 3.37q-3.6 1.53-7.67.97-4.02-.55-6.33-2.91-1.39-1.39-1.94-4.07-.5-2.3-.83-7.02L63.2 25q-.42-6.52-.19-8.64.1-1.48.74-1.62.46-.14 1.76.46 3.41 1.76 11.04 7.44m8.82 14.7q.7-4.17-1.66-6.75-2.26-2.36-10.95-8.78-8.32-6.15-8.6-5.92-.27.19.51 9.75.84 9.94 1.57 13.63.47 2.27 1.58 3.38 1.84 1.84 4.99 2.35 3.46.56 6.88-.92 2.26-.93 3.74-2.68 1.48-1.76 1.94-4.07M22 58.54q-3.66-8-4.58-11.5-.37-1.58-.1-2 .38-.6 2.32-.5 3.88.23 12.33 1.85l9.75 2.08q5.36 1.24 7.26 3.83 2.35 3.1 2.44 7.58.14 5.08-2.9 9.2-2.41 3.27-5.87 4.7-3.52 1.44-7.63.8-2.26-.38-4.48-2.09-2.22-1.7-3.74-4.3-1.62-2.67-4.8-9.65m-3.57-12.8q-.27.28 3.24 8.18 3.74 8.5 6.56 13.21 1.39 2.27 3.28 3.8 1.9 1.52 3.79 1.8 7.4 1.15 11.78-4.77 2.68-3.7 2.59-7.99-.1-3.79-2.17-6.51-1.71-2.27-6.2-3.42-5.54-1.43-14.32-3-8.36-1.53-8.55-1.3M45.88 178.3q2.54-2.6 2.17-6.61-.18-2.4-1.43-4.76-1.2-2.3-2.91-3.65-4.35-3.1-8.87-2.22-2.04.33-3.75 1.44-1.7 1.06-2.77 2.63-1.38 2.08-4.25 11.6-2.72 9.19-2.4 9.42 20.19-3.79 24.2-7.85m-11.31-19.18 4.57.14q3 .7 5.64 2.63 1.99 1.44 3.37 4.12t1.62 5.45q.14 2.26-.6 4.43-.74 2.18-2.17 3.65-2.77 2.87-12.25 5.36-7.57 2-12.42 2.31l-1.67-.23q-.37-.37-.18-1.9.46-3.87 2.72-11.26 2.36-7.49 3.98-10.12 1.1-1.8 3.1-3 1.93-1.16 4.29-1.58m68.8 15.11q2.77-.92 5.63-.74 2.87.14 5.32 1.39 4.1 2.03 4.62 4.8.41 1.99-.65 10.68-.92 7.67-1.85 12.24-.41 2.08-1.2 2.12l-1.99-.87q-3.83-2.17-9.8-7.12-6.37-5.31-7.94-8.08-.83-1.39-1.02-3.24-.09-1.7.42-3.32.83-2.36 3.14-4.53 2.4-2.22 5.32-3.33m13.86 7.72q0-1.8-.6-2.96-.84-1.39-2.91-2.45-2.22-1.1-4.86-1.2-2.63-.18-4.85.74-2.63 1.06-4.66 2.91-1.94 1.85-2.64 3.83-.92 2.5.46 4.95 2.87 4.9 17.8 15.61.27 0 1.24-8.73 1.02-9.05 1.02-12.7m-49.3 4.43q.23-.18 1.2.33.92.6.78.83l-8.4 7.44q-8.09 6.93-9.43 7.76-1.52.92-2.03.64-.42-.23-.83-1.94-.79-3.41-1.62-12.29-.74-7.94-.65-8.31.05-.28.97 0l.93.46q0 2.26.83 11.27.88 9.2 1.1 9.34.28.14 8.18-7.03zM8.96 139.26l.74.55.56.83-4.07 6.56q-3.19 5.22-3.1 5.45l11.05-1.61q.32-.1.7.78.45.88.18.97L3.47 153.9q-1.48-.04-1.67-.41t.56-1.9l3.32-6.47q2.87-5.22 3.28-5.86m27.4-39.51q1.16 4.76-1.43 9.61-2.4 4.53-6.28 6.2-4.35 1.84-8.78.4-3.51-1.2-5.96-3.87l-6.2-7.95Q2.04 96.56.52 93.61q-.6-1.11-.46-1.57.13-.65 1.61-.93l11.23-.7q8.78-.31 10.9-.22 4.62.28 7.49 1.94 3.79 2.35 5.08 7.62m-3.05 9.2q2.5-4.12 1.39-8.6-1.16-4.71-4.4-6.7-2.35-1.48-6.69-1.66-3.28-.18-12.84 0l-9.57.37q-.14.23 5.55 7.85 5.86 7.95 8.31 10.58 2.08 2.27 5.13 3.33l7.8-.23q3.24-1.43 5.32-4.94m113.1-73.88q1.84.14 2.17.55.28.42-.28 1.76-1.2 2.96-5.36 9.52l-4.94 7.39q-2.27 2.82-4.4 3.42-3.46 1.01-7.3-.93-4.24-2.12-6.23-6.65-2.4-5.54-.1-10.16 1.53-3.1 4.95-4.16l12.38-.83h4.76zm.74 1.43q-.14-.28-10.03.05l-11.78.78q-.88.19-1.85 1.06-1.2 1.02-1.94 2.5-1.8 3.79.32 8.55 1.85 4.3 5.6 6 3.04 1.39 5.72.65.97-.28 1.8-1.02l1.8-2.08q2.69-3.41 6.7-9.88 3.89-6.29 3.66-6.61"/><path fill="#0f141b" d="m112.78 27.3 3.14-1.66q3.28-1.7 5.04-2.45 1.1-.5 1.52-.32.56.19.47 1.53l-1.2 9-.88-.04-.74-.56q1.94-8.73 1.75-8.82l-3.46 1.99q-3.14 1.89-4.58 2.81-.23.24-.74-.55-.55-.74-.32-.92M56.83 15.2q1.39.65 4.07 2.4l3 2.04q.23.23-.1 1.2-.27 1.01-.46.83l-4.3-3.47q-2.63-2.08-2.81-2.03t0 6.8l.37 7.62q-1.8 1.01-1.85.64-.23-11.73.28-15.29.18-1.02.64-1.1zm90.05 58.5q-.28 0-.19-1.02.05-.97.33-.93l7.85 2.04q8.36 2.21 11.41 3.5 1.57.6 1.71 1.07.14.37-.74 1.52-1.34 1.71-6.56 6.98-5.96 6.05-8.22 7.67-.19.14-.56-.83-.36-.97-.23-1.1 14.84-13.32 14.79-13.82-.05-.37-8.23-2.5zm5.36 46.29q-.14-.14.28-1.06.46-.97.64-.79l7.44 6.33 8.55 7.53q1.2 1.3 1.15 1.71-.09.5-1.47 1.34L157.5 140l-10.35 4.3q-.28.05-.51-.88-.23-.97-.05-1.06 22.46-8.45 22.5-8.73 0-.28-16.86-13.63m-74.38-7.54q-1.1 3.32-2.68 5.63-1.85 2.73-3.32 2.27-1.48-.46-1.48-3.79 0-2.86.97-6.28zm46.15 6.05q-.45 3.47-1.47 6-1.2 3.01-2.5 2.92-1.24-.14-1.75-2.96-.46-2.45-.32-5.77z"/></svg>