<svg xmlns="http://www.w3.org/2000/svg" width="164" height="323" viewBox="-1.75 -1.3 163.9 323.4"><path fill="#c6394f" d="m73.25 262.6 17-3.35q9.8 2.8 18.4 9.05 10.6 7.75 12.7 16.9 2.55 10.95-6.6 20.3-9.3 9.45-26.2 12.6-16.3 3.1-29.05-.65-14.35-4.2-17.95-15.5-2.7-8.8 8-21.1 9.65-11.05 23.7-18.25"/><path fill="#005c80" d="M4.7 115.35q4-11.9 11.45-22.3 16.95-24.1 44.5-31.8 23.65-6.6 47.45-1.65 23.25 4.85 38.1 18.85l-34.4 67.15q-3.4-1.15-9.35-4.15l-7.7-4.15q-10.1-5.85-16.35-7.8-9.65-3.05-19.35-1.25Q49.5 130 41.1 135.9q-9.3 6.45-13 15.35-7.8 18.55-1.25 38.35 5.9 17.95 21.65 32.25 14.1 12.8 19.2 20.6 5.65 8.8 5.5 19.2l-.05-2.1q-.9-6.75-5.9-13.3-4.4-5.65-12.5-11.85-26.15-19.95-38.5-39.7Q.75 169.9.85 137.5q.05-10.7 3.85-22.15"/><path fill="#fffac9" d="m62.1 127.8 9.2.35q6.1.7 9.3 2.2l.1.95.05 1.35q-11.8-1.55-21.85 3.75-10.85 5.75-15.35 17.7-5.9 15.7 1.2 32.45 5.85 13.8 20.35 27.95 9.3 9 16.35 21.7 6.55 11.7 8.2 20.8 1.5 8.05.5 11.35-1.25 4.45-7.05 5-4.95.45-7.55-3.6-1.95-3.05-2.35-8.1.15-10.4-5.5-19.2-5.1-7.8-19.2-20.6-15.75-14.3-21.65-32.25-6.55-19.8 1.25-38.35 4.1-9.65 14.4-16.35 9.5-6.15 19.6-7.1"/><path fill="#fbcf00" d="M99.8 77.95q2.45 4.95 1.75 11 4.05 1.15 6.6 2.35-2.05 2.4-4.15 6.45-2.3 4.3-3.25 7.7-.95-.5-4.45-1.9-2.55 4.6-6.85 7.1-4.45 2.55-8.7 1.6-3.8-.85-6.4-4.45-3.05-4.1-3.25-10.35l-6.35-.5q-2.95-.3-4.8-2.05-1.75-1.55-1.9-3.7-.35-5.2 6.55-6.65l8.2-.55q2.35-6.9 8-10.55 5.6-3.6 11.15-2.15 5.2 1.3 7.85 6.65"/><path fill="#fff" d="M88.6 78.35q3.15.7 4.05 5.45.95 4.65-.8 9.85-1.7 5.25-4.65 7.95-2.9 2.7-5.8 2.05-2.85-.65-4.05-4.55-1.2-4.1.15-9.6 1.4-5.55 4.75-8.8 3.25-3.1 6.35-2.35"/><path fill="#fbcf00" d="M38.65 95.75q1.65 2.2 1.75 5.35.1 4.05-1.7 6.7-1.8 2.5-4.55 2.55-2.4.1-4.1-2.1-1.75-2.2-1.8-5.8-.05-3.75 1.8-6.3 1.75-2.55 4.35-2.6 2.55-.05 4.25 2.2m-20.6 18.85q2.4-.1 3.8 1.85 1.35 1.95 1.35 5.4 0 3.2-1.35 5.3t-3.4 2.15q-1.95.1-3.5-1.9-1.65-2.15-1.7-5.55-.05-2.9 1.3-5 1.4-2.15 3.5-2.25m-7.45 25.65q1.8-.2 3.05 1.35t1.55 4.05q.35 3.05-.6 4.95-1.05 2.05-3.05 2.1-2.1.15-3.5-1.6-1.3-1.65-1.5-4.6-.15-2.6.95-4.35t3.1-1.9"/><path fill="#c6394f" d="M158.3 97.4q2.55 13.35-3.8 27.2-6.5 14.3-19.15 20.35-12.25 5.95-23.25.95-10.75-4.9-13.1-19.1-2.25-13.6 4.2-27.4 6.55-14.15 19.25-20.05 12.15-5.6 22.5-.7 10.7 5.1 13.35 18.75"/><path fill="#0f141b" d="M149.9 107.35q.95 7.05-2.7 15.55-3.8 8.9-11.45 13.3-7.35 4.1-12.85 1.35-6.2-3.15-7.25-11.3-1.05-7.95 3.25-16.35 4.1-8 11.4-11.65 7.2-3.55 13.25-.7 5.4 2.55 6.35 9.8"/><path fill="#fff" d="M126.55 100.45q1.7 2.45 3.7 7.95 2.1 5.95 1.5 7.4-.65 1.5-6.65 3.55-5.45 1.8-9.7 2.35.4-5.35 3.4-11.55 3.35-6.95 7.75-9.7m8.15 29.1-.2 7.25q-4.55 2.85-9.8 1.5-5.95-1.5-8.1-7.65 3.65-1 8.5-3.6 4.95-2.65 7.25-4.95.8-.8 1.4-.65.7.1.75 1.35zm12.85-7.75q-2.8 6.85-7.05 11 0-2.7-.55-6.5l-1.1-5.75q-.45-1.65.95-2.25 2.35-1 5.55-3.15 3.15-2.15 4.55-3.7.15 4.2-2.35 10.35m-5.1-24.35q4.8 1.9 6.45 6.35-1.45 2.15-4.75 5.3-3.7 3.5-5.95 4.5l-1.2.2q-.3-.2-.4-1.05-.35-3.5-1.5-7.95-1.3-4.95-2.85-7.3 5.35-2 10.2-.05"/><path fill="#dcdddd" d="M147.3 105.35q-1.3-3.8-5.1-5.35l-8.35-.25-1.35-2.3q2.35-.8 5.7-.8 3.45 0 5.35.9 1.85.9 3.4 2.7 1.5 1.7 2.15 3.5l-.85 1.05q-.9.8-.95.55"/><path fill="#fffac9" d="M126.1 2.5q7.75 3.5 8.95 11.7 1.2 7.95-4.55 14.95-7.25 9-12.25 16.25-7.05 10.25-8 14.95-3.8-1.2-9.85-2.1l-9.95-.9q-2.7-12.5-1.55-25 1.2-12.6 5.8-19.75 4.9-7.55 14-10.6 9.35-3.15 17.4.5"/><path fill="#dcdddd" d="M149.7 111.85q-1.05 12.25-8.65 19.9l-.9-2.3q3.05-2.5 5.2-7.75 1.75-4.2 2.2-8.05z"/><path fill="#004b6a" d="M45.4 122.5q10.8-6.45 24.05-7.05 14.3-.6 28.8 5.85-.15 6.65 2.65 12.7 2.9 6.3 8.25 10.4l-6.5-2.7q-4.55-2.05-6.95-3.6-8.95-5.55-15-7.7-8.85-3.15-18.25-2.25-9.8.95-18.25 5.7-8.5 4.85-12.95 12.15-7.05 11.6-7.45 24.85-.7-4.2-.75-9.25-.2-12.05 5.9-22.6 5.95-10.25 16.45-16.5"/><path fill="#ddd8ae" d="M47.85 131.9q10.75-5.05 20.1-4.2 5.3.45 9.7 1.7 2.2.6 3.35 1.1l-.05 2.15q-11.9-2.75-23.35 4.55-12.85 8.25-16.05 24.75-2 10.6 2.1 21.85 5 13.8 19.55 29.1-6.25-6-14.35-12l-11.75-8.6q-5.65-4.45-8.55-8.8-3.5-5.25-4.75-12.65.4-13.25 7.45-24.85 5.3-8.75 16.6-14.1m25.55 131-.1-1.55q.25-9.95-5.95-19.6-4.25-6.6-12.9-14.65 9.85 5.55 16.7 15.85 6.6 10 7.3 19.8.4 4.65 5.4 5.6 5.15 1 6.9-3.35.3 3.7-2.35 6.1-2.4 2.25-5.95 2.3-3.75 0-6.25-2.45-2.8-2.85-2.8-8.05"/><path fill="#004b6a" d="M54.45 227.1q8.65 8.05 12.9 14.65 6.2 9.65 5.95 19.6-.45-6-4.05-12.35-3.75-6.7-9.8-11.3-12.85-9.75-18-14.25-12.7-10.9-20.2-21.3 7.1 7.45 17.3 14.9 8.1 5.85 15.5 9.85z"/><path fill="#ddd8ae" d="M130.55 5.3q5.05 4.9 4.8 12-.2 7.1-5.55 13.7-8.4 10.35-11.45 14.55-6.55 8.95-8.35 14.5l-3.15-1.15q3.35-8.7 9-16.85 4.1-6 10.6-13.25 4.35-4.7 5.65-10.75 1.45-6.75-1.55-12.75"/><path fill="#ac2f44" d="M75.7 270.3q1.95 2.6 5.1 3.15 3.05.5 5.85-1.15 2.95-1.75 4.3-5.4-.45 4.7-3.6 7.5-2.9 2.55-6.9 2.5-4.1-.05-7.35-2.75-3.6-3-4.9-8.4 2.85-1.65 5.2-2.85.05 4.55 2.3 7.4m-31.85 18.2q-1.85 8.75 6.45 16.65 8.45 8.05 20.65 8.1 19.65.1 33.3-6.25 13.25-6.25 17.7-17.3-.35 13.75-16.85 22.5-15.4 8.15-34.25 7.2-16.1-.85-24.5-9.35-9-9.2-2.5-21.55m110.9-163.85q-5.8 14.1-19.3 20.35-12.1 5.6-21.3 1.75-8-3.35-12.25-11.3-5-9.4-3-22.35.45 4.05 7.5 5.35 6.85 1.25 9.9-1.7-1.75 6.75.2 12.9 2.1 6.65 7.55 8.35 5.5 1.7 11.9-1.95 6.9-3.9 10.75-11.95 1.15 1.05 3.7 1.3 2.65.25 4.35-.75"/><path fill="#84a1b8" d="M124.1 71.8q-.15.85-2.95.95l-5.45-.65q-2.9-.8-5.25-2.45-2.2-1.6-1.95-2.45.3-.9 3.3-.8 2.9.05 5.7.9 2.55.8 4.65 2.25 2.05 1.45 1.95 2.25"/><path fill="#0f141b" d="M157.35 97.5q-2.7-12.95-12.95-17.8-10.2-4.8-22.05.85-12.2 5.85-18.5 19.35-6.6 14.15-3.95 27.3 2.55 13 12.65 17.55 10.75 4.9 22.6-.7 12.2-5.8 18.6-19.75 6.35-13.85 3.6-26.8m-1.9 27.75q-6.9 15.15-20.4 21.15-12.55 5.55-23.5.5-10.55-4.8-13.45-18.6-2.95-14.1 4.1-29.3 6.9-14.9 20.5-20.85 12.5-5.5 22.65-.6Q156.1 82.6 159.1 96.6q3.05 14.05-3.65 28.65"/><path fill="#0f141b" d="M149.15 107.35q-.9-6.7-6-9.1-5.85-2.75-12.7.75t-10.9 11.45q-4.3 8.5-3.1 16.05 1.15 7.4 6.9 10.25 5 2.55 11.85-1.25 7.4-4.1 11.15-12.95 3.65-8.5 2.8-15.2m-.95 16q-4.25 9.95-12.75 14.2-7.6 3.8-13.1.95-6.1-3.05-7.55-11.25-1.55-8.65 3.1-17.7 4.85-9.5 13.3-12.55 7.1-2.6 12.7.05 5.55 2.6 6.8 10 1.2 7.45-2.5 16.3m-9.3-38.05.5.55q.15.4-.05.8l-.5.7q-.4.2-.75 0-.4-.1-.5-.5V86l.55-.65zm11.15 3.7q.3.1.4.55l-.1.9-.6.6-.7.05q-.8-.4-.45-1.4.15-.45.6-.65zm-64.65.5.6.6v.95l-.45.75-.8.2q-.35-.1-.55-.55t-.1-.95.55-.85q.35-.25.75-.15"/><path fill="#0f141b" d="m116.8 131.35-.35-1.45q4.4-1.2 8.95-3.7 4.2-2.25 6.7-4.6 1.05-1 1.9-.75t.95 1.5q.85 7.3.3 14.35l-1.55.6.35-7.35-.2-7.4q-.05-.45-.3-.55-.35 0-.75.45-2.35 2.5-6.8 5-4.65 2.7-9.2 3.9m10.45-31.1q1.7 2.5 3.3 7.1 1.45 4.15 1.85 7.2.15 1-.1 1.55l-.95.95q-5.65 3.5-16 5.7v-1.55q10.45-2.15 15.45-5.15l.45-.45.05-.85q-.4-2.9-1.9-6.95-1.65-4.35-3.45-6.7zm22.1 4.5q-1.75 2.3-4.8 5-3.3 2.85-6.2 4.5-1.1.6-1.65.35-.6-.3-.7-1.65-.25-3.65-1.5-7.85-1.3-4.25-3-7.2l1.3-.7q1.75 3.2 3 7.65 1 4.1 1.3 7.9l.15.65.6-.2q2.8-1.55 6.05-4.65 2.95-2.8 4.8-5.4zm.65 7.55q-1.75 1.75-4.65 3.65-3 1.9-5.75 3-.35.15-.4.4l.15.9q1.8 6.25 1.8 12l-1.4 1.1q.1-3.2-.3-6.8-.45-3.6-1.2-6-.35-1.1-.15-1.65.25-.65 1.1-1 2.75-1.1 5.95-3.4 3.35-2.3 4.9-4.3zm-47.55-23.85q3.35.8 6.05 2l-.95 1.55q-2.4-1.1-6.65-2.15-.35-.15-.35-.55.7-5.85-1.4-10.4-2.4-5.15-7.4-6.45Q86.3 71.05 81 74.6q-5.25 3.55-7.45 10.1-.15.35-.5.35l-8.35.45q-6.05 1.25-5.8 5.6.25 4.45 5.9 5.05l6.7.5q.45.05.45.45.25 6.1 3 10 2.5 3.45 6.1 4.25 3.95.9 8.05-1.5 4-2.35 6.55-6.95.2-.35.65-.2l4.8 2-.55 1.75-3.85-1.7q-2.85 5.15-7.9 7.4-4.3 1.9-8.2 1.15-4.3-.8-7-4.5-2.95-4-3.3-10.5l-5.65-.4q-7.1-.75-7.55-6.7-.1-2.55 1.4-4.4 1.8-2.2 5.8-3.05l7.85-.5q2.3-6.8 8.25-10.55 5.8-3.65 11.7-2.3 5.5 1.25 8.4 6.6 2.65 5 1.95 11.45"/><path fill="#0f141b" d="M82.9 81.25q-3.2 3.05-4.55 8.5-1.3 5.15-.3 9.05.95 3.8 3.5 4.35 2.65.65 5.25-2.05 2.55-2.6 4.2-7.55 1.7-5.2 1-9.45-.75-4.35-3.6-5-2.55-.6-5.5 2.15m10.55 1.85q1.2 4.75-.8 10.9-2 6.35-5.75 9.1-2.9 2.2-5.75 1.55-3.25-.75-4.6-5.05-1.45-4.45.05-10.2 1.55-6.25 5.45-9.65 3.5-2.95 6.65-2.2 3.55.85 4.75 5.55"/><path fill="#0f141b" d="m150.7 81.55-3.9-2.1Q134.7 69 117.65 63.3 97.7 56.7 77.2 59.2 39.75 63.7 19.3 90 .85 113.75 2.4 145.65q1.65 31.3 19.55 55.55 12.1 16.4 37.65 35.45 5.1 3.75 9.5 10.4 5.1 7.75 5.1 13.95 0 5.95 2.45 9 2.5 3.2 7.1 2.45 4.4-.7 5.6-3.7 1.15-2.85-.15-9.4-2.35-11.95-9.4-23.5-6.8-11.25-19.5-24.4-8.9-9.2-14.15-18.9-6.85-12.6-6.35-24.05.45-11.2 5-19.5 4.1-7.55 11.15-12.15-1.35 2.6-1.55 3.15-5.5 4.6-8.7 11.7-3.35 7.45-3.75 16.9-.45 11.2 6.05 23.1 5 9.05 13.75 18.15 12.6 13.05 19.65 25.05 6.95 11.85 9.4 24.1 1.4 6.95.05 10.5-1.55 4.05-6.9 4.9-5.25.8-8.6-3.2-3.15-3.85-3.15-10.2 0-5.75-4.75-12.8-4.15-6.1-9.25-9.9-26.05-19.35-38.45-36.15Q1.8 177.65.1 145.65-1.75 111.4 18.5 86.9q21.2-25.55 58.4-30.05 22.4-2.65 43.75 5.4 18.5 6.95 30.05 19.3"/><path fill="#0f141b" d="M38 96.25q-1.45-1.9-3.65-1.9-2.4 0-3.9 2.35-1.45 2.35-1.4 5.75.05 3.25 1.4 5.25 1.45 1.95 3.7 1.95 2.45 0 3.95-2.3 1.55-2.3 1.45-6.1-.05-3-1.55-5m1.15 12.35q-2.05 2.5-5 2.55-2.8.1-4.75-2.35-2.05-2.5-2.1-6.3-.05-4.1 2.15-6.95 2.05-2.65 4.95-2.75 2.7-.1 4.7 2.25 2.1 2.45 2.2 6.1.15 4.65-2.15 7.45m-23.7 18.3q1.2 1.7 2.95 1.7 1.8 0 2.85-1.85 1-1.8 1-4.8t-1.1-4.75q-1.05-1.85-3.1-1.8-1.8.05-2.9 2.05-1.15 1.9-1.05 4.5.05 3.1 1.35 4.95m2.5-13q2.65-.1 4.25 1.95 1.65 2.2 1.65 6.1 0 3.65-1.5 5.85-1.5 2.15-3.9 2.2-2.25.1-3.95-1.85-1.9-2.25-1.95-6.2-.05-3.45 1.55-5.7t3.85-2.35m-7.35 26.85q-1.5.1-2.55 1.75-1.2 1.75-1 4.05.2 2.75 1.55 4.35 1.3 1.45 2.9 1.35 1.55-.05 2.35-1.8.9-1.8.55-4.6-.3-2.4-1.35-3.8-1.05-1.35-2.45-1.3m3.45.3q1.4 1.75 1.75 4.65.45 3.45-.7 5.5-1.15 1.95-3.55 2.1-2.2.15-3.8-1.4-1.8-1.8-2-5.3-.2-2.85 1.15-4.9 1.3-2 3.6-2.25 2.1-.15 3.55 1.6m76.35 117.3q11.2 3.1 20.65 10.9 10.25 8.45 11.85 17.6 1.75 10.25-6.6 18.9-9.05 9.5-26.85 13.15-15.65 3.2-28.9.05-15.15-3.6-19.4-14.35-4.7-11.95 8.3-25.5 8.55-8.95 23.8-17.55l.15 2.15q-13 7.7-21.05 15.75-13.35 13.4-8.95 24.3 3.9 9.5 17.9 13 12.85 3.15 27.75.05 16.75-3.5 25.2-12.4 7.65-8.05 6.05-17.25-1.4-8.15-10.8-16.4-9-7.8-19.15-10.65z"/><path fill="#0f141b" d="M52.45 314.45q7.7-5.2 15.3-19.55 6.1-11.45 9.4-22.9l1.75.85Q75.75 284.3 69.3 296q-7.6 13.9-15.45 19.25zm36.65-19.6q1 13.45-.05 22.9l-1.6.45q.85-9-.25-23.15-1.1-13.15-3.05-21.6l1.8-.35q2.25 8.5 3.15 21.75m24.75 11.25q-4.2-10.25-10.7-19.7-6.5-9.3-13.8-15.65l1-1.65q7.55 6.4 14.05 15.85 6.45 9.4 10.7 20.15zM124 2.6q-7.85-2.5-15.6.2t-12.6 9.65q-5.35 7.5-6.2 21.95-.7 12.15 1.75 23.05l-1.55.05q-2.5-11-1.7-23.45 1-14.9 6.8-23.2 5.3-7.55 13.55-9.9 7.75-2.25 16.35.55 9.7 3.1 11.1 11.8 1.25 7.75-4.3 15.85l-11.55 15.2q-7.95 10.7-9.4 16.15L109 60q1.15-5.5 9.45-16.5l12.3-16q5.25-7.75 3.1-15.15-2.1-7.25-9.85-9.75"/><path fill="#0f141b" d="M114.4.45q-8.3 7.65-13.3 25.6Q96.4 42.7 97 58l-1.2-.15q-.7-16.55 3.65-32.15Q104.1 9.1 112.7.6zm-.5 27.7q-8.35 17.4-9.25 30.95l-1.4-.35q1-14.1 9.25-31.35 7.9-16.5 16.35-23.75l1.15.75q-8.1 7.05-16.1 23.75"/><path fill="#fffac9" d="m67.3 128.2 4.4-.1q3.5.6 8.35 2.35 1.15.4 1.1 1.2l-.25 2.2q-.05 6 .55 16.2t1.45 16.6q1.1 8.3-3.7 13.55-4.95 5.35-14.8 5.8-7.25.3-12.6-4.7-5.25-5-5.75-12.4-.65-10.9 4.4-22.15 5.9-12.95 16.85-18.55"/><path fill="#ddd8ae" d="M48.2 152.95q-1.9 10.4 1.85 17.4 3.3 6.1 10.05 8.2 6.3 1.95 12.65-.3 6.65-2.4 9.9-8.2.15 6.65-4.65 11.2-5.3 5.05-14.25 4.95-10.05-.15-14.75-8.9-5.2-9.5-.8-24.35m13.35-21.5q3.35-2.45 6.1-3.4l5.3.25q3.55.65 6.95 2.1 1.1.5 1.15 1.15l-.25 1.85q-5.25-1-13.1.35-8.6 1.45-12.7 4.7 2.05-3.7 6.55-7"/><path fill="#0f141b" d="m81.55 132.15-1.35-.65v-.4z"/><path fill="#0f141b" d="m69.4 127.75 1 .35.95.35q-12.3 1.2-19.2 16.75-2.6 5.8-3.95 12.5-1.1 5.75-.9 9.55.6 9.25 6 13.95 4.85 4.3 11.85 3.7 8.95-.8 13.2-5.35 4.15-4.45 3.4-12.2-1.35-13.75-1.7-19.9-.65-11.1.2-17.25l.75.35.9.1q-.85 4.8-.3 14.3l1.9 22.25q.8 9.15-4 14.2-4.6 4.8-14.15 5.6-7.7.7-13.3-4.2-6.2-5.4-6.7-15.45-.55-11.1 5.5-23.6 7.2-15.05 18.55-16"/><path fill="#0f141b" d="M71.1 128.55q-10.95 9.45-15.15 28.6-1.9 8.5-1.35 15.9.55 7.75 3.6 12.2l-1.85-.8q-5.95-10.1-1.95-28.15 4.15-18.4 15.25-28.25z"/><path fill="#0f141b" d="M77 129.4q-6.3 9.05-8.65 26.85-2.4 18.6 2.25 28.9l-1.25.4q-5-9.8-2.8-28.4 2.1-18 8.7-27.95z"/><path fill="#0f141b" d="M66 128.8q-16.95.3-29 12.3-12.9 12.85-12.3 32.2.45 12.65 6.7 24.9 6.2 12.2 17.25 22.25 12.8 11.75 17.65 18.65 7.2 10.3 7.3 21.9l-1.55-5.4q-1.6-9.3-9-18.25-4.15-4.95-15.6-15.3-11.3-10.2-17.65-22.65-6.45-12.65-6.9-26.1-.8-22.3 14.35-35.4 12.65-11 28.75-10.95 8.25.05 15.55 2.65 6.1 2.1 13.8 6.9 4 2.45 6.3 3.7l6.6 2.8 5.2 4.6q-9.35-2.5-19.2-9-8.15-5.35-14.65-7.6-6.55-2.3-13.6-2.2"/></svg>