<svg xmlns="http://www.w3.org/2000/svg" width="183" height="248" viewBox="-2.85 -0.45 182.65 248.25"><path fill="#85cbbf" d="M103.7 4.5q14.9 7.35 25.95 30.4 11.45 23.75 11.85 50.35.2 14.5-4.5 29.15-4.55 14.15-12.85 25.75-8.4 11.75-18.95 18.45-11.1 7.05-22.65 7.2-10.3.1-20.65-4.95-10.45-5.15-19.05-14.7-19.3-21.5-21.55-54.5-1.7-25.05 8.8-50.35 9.8-23.5 24.55-35.2 6-4.75 23.4-5.25Q95.3.35 103.7 4.5"/><path fill="#85cbbf" d="M35.15 178.6q7.45-.7 11.85-1.8 3.55-.85 9.6-5.6 4.6-3.6 9.6-8.55l6.6 2.1q-5.15 10.2-18.25 24.55Q41.1 204 30.5 210.55q-6.3 3.9-15.6 3.6-10.3-.3-12.5-6.4-4.3-11.7 3.3-20.55 7.2-8.4 18.9-8.05zM102 160.4l12.2 11.75q6.45 5.75 9.05 6.5 2.85.85 10.8 1.4 7.75.55 11.85.3 13.9-.9 23.4 7.3 9.65 8.3 5.95 19-2.95 8.5-14.95 8.75-11.95.2-25.05-8.05-11.4-7.15-22.05-19.2-10.1-11.4-17.5-24.85z"/><path fill="#85cbbf" d="M72.4 164.45q4.95 1.45 11.9.95l7.05-1.15 6.1-1.8.1 4.6q0 6.7 2.45 14.4 2.85 9 7.65 14.05 2.75 2.9 3.25 6.35.45 3.1-.95 5.7-3.15 5.8-12.1 11.6-8.75 5.7-13.9 5.6-4.05-.05-11.15-4.6-6.45-4.15-10.3-8.5-3.3-3.7-3.7-8.9-.5-5.8 3.25-9.65 3.8-4 7.25-13.75 3.3-9.45 3.1-14.9"/><path fill="#85cbbf" d="M126.15 208.3q1.7-.3 2.2.5.4.75-.2 2.1-3.55 7.55-17.05 12.25-14.05 4.9-25 1.35 10.5-3.5 17.5-9.55 6-5.2 7.15-10 2.05 2.45 6.65 3.35 4.3.85 8.75 0"/><path fill="#3f3b3a" d="m89.4 69.25 8.1-13.7q1.1-1.65 3.35.5 2.3 2.2 1.25 4.25-3.2 6.45-8.9 15.45-6.35 10.05-10.7 14.9l.4 17.9.3 17.2q0 2.3-3.2 2.55t-3.3-1.85L75 89.5 63.9 77.05q-7.85-9.3-10.7-14-1.15-1.85.65-4.6t3.1-1.15L67.1 70.4q7 8.95 11.5 13.3 3.65-2.75 10.8-14.45"/><path fill="#3f3b3a" d="M53.05 91.15 45.55 83q-1.1-1.3 1.2-3.4 2.3-2.15 3.1-1.25l8.1 8.3 9.1 8.6q0 7.5 1.15 29.9.05 2.1-2.8 1.9t-3-1.6L61 99zm40 2.95 15.45-18.05q1.1-1.3 3.05.9 2 2.15 1.25 3l-6.3 7.7-7 8.35.25 14.65.2 12.9q0 1.75-2.85 1.9-2.8.15-2.9-1.6l-.65-13.65z"/><path fill="#009b63" d="M60.6 132.05q3.35.25 5.55 4 2.1 3.65 2.1 8.95 0 6.2-2.55 9.7-2.35 3.2-5.8 3-3.05-.15-5.3-3.75-2.4-3.8-2.35-9.05t2.3-9q2.4-4.1 6.05-3.85"/><path fill="#fff" d="M62.8 136.25q.75 0 1.25 1.35.45 1.15.55 2.7.1 1.75-.45 3-.45 1.2-1.2 1.2-.85.05-1.4-1.15-.45-1.05-.5-2.8-.05-1.45.45-2.75.5-1.5 1.3-1.55"/><path fill="#009b63" d="M102.55 130.35q3.2-.05 5.7 4 2.5 4 2.55 9.2.1 6.1-2.25 9.85-2.15 3.45-5.4 3.55-3 .1-5.2-3-2.5-3.5-2.9-9.9-.35-5.5 1.6-9.4 2.1-4.3 5.9-4.3"/><path fill="#fff" d="M99.9 135.6q.8 0 1.3 1.1.5 1.05.5 2.75 0 1.8-.45 3-.5 1.25-1.35 1.25-.8 0-1.4-1.35-.5-1.3-.5-2.9 0-1.35.5-2.5.6-1.35 1.4-1.35"/><path fill="#73b1a7" d="M42.5 18.85Q51.85 6.3 58.25 3.75l.35 4q.4 11.55-3.35 30.3-4.05 20.1-9.85 31.75 2.45-11.6-3.95-21.3-2.65-3.95-5.85-5.95-3.25-2-5.8-1.15 3.5-10.3 12.7-22.55m80.85 19.9q-4.25 1.65-7.75 5.35-8.45 9-4.7 19.55-7.35-12-11.2-31.75-3.05-15.7-2.45-25.05.2-2.55.95-4.4 7.85 1.9 17 11.05 10.65 10.55 15.85 24.8-3.35-1.25-7.7.45M51.7 154.6q-20-15.55-27.75-44.9 9.15 20.5 25.8 30.45 15.4 9.2 33.65 7.6 17.85-1.55 32.9-12.9 15.7-11.9 23.45-31.1-4.2 23.25-19.4 41.05-16.1 18.85-36.25 20.95-6.95.75-15.2-1.9-9-2.95-17.2-9.25"/><path fill="#73b1a7" d="M70.4 177.05q2.05-7.1 1.9-12.65 5.05 1.6 13.25.7 7.3-.8 11.55-2.7l.2 4.3q-.1 1.25.35 4.25l.75 5q-3.9 4.5-14 4.85-10.05.35-14-3.75m-9.65-9.4 5.25-5q3.4 1.35 6.3 1.75-1 3.35-5.7 10.25-4.55 6.7-7.85 10 2.6-4.05 3.2-9.6.55-5.4-1.2-7.4"/><path fill="#73b1a7" d="M106.65 165.05q-1.6 1.7-1.25 6.9.3 5.25 2.3 9.55-2.9-3.6-7.1-10l-5.2-8.3q5.1-2 6.5-3zm-22.75 59.6q-4.65-.05-12.7-5.55-8-5.45-10.65-10.3-1.6-3.05-1.65-7.1-.05-5.15 3-8.45-1.75 6.6 7.1 11.1 7.15 3.6 14.5 3.7 8.4.15 15.85-3.55 8.8-4.4 6.65-10.9 2.55 2.15 4 5.3 2.05 4.4.15 8.25-2.7 5.35-10.9 11.2-8.9 6.35-15.35 6.3"/><path fill="#73b1a7" d="M124.65 215.45q-4.9 4.9-11.65 7.2-7.5 2.6-14.5 3.05-6.75.4-12.4-1.2 8.85-2.45 18.95-10.85 4.75 1.15 11.85-.1 7.85-1.4 11.4-4.9.85 2.35-3.65 6.8"/><path fill="#0f141b" d="M142.1 85.2q.25 15.45-4.5 30.4-4.6 14.35-13 25.9-8.45 11.55-19.2 18.1-11.25 6.8-23.15 6.9-10.8.1-21.3-4.9-10.65-5.1-19.2-14.65-19.15-21.3-21.45-55-1.8-26.8 9.05-52.1Q39 17.35 53.9 5.5 60.2.5 77.7.05q17.2-.5 25.8 3.75 16.1 7.95 27.3 31.95 10.9 23.5 11.3 49.45M102.95 5.55Q95.2 1.75 78.4 2q-17.45.3-23.5 5.1-14.35 11.35-23.85 34.5Q20.8 66.65 22.5 91.85q2.1 31 19.8 52.15 17.4 20.8 40 20.8 10.55 0 21.2-6.6 10.3-6.35 18.65-17.6 8.45-11.4 13.1-25.4 4.95-14.8 4.75-29.95-.35-25.75-11.15-49t-25.9-30.7"/><path fill="#0f141b" d="M57.75 28.2q-1.7 13.45-5.45 25.95-9.6 32.2-26.95 41.45l-1.3.1q-.25-.45.75-1.1 16.35-10.9 25.6-41.25Q57.75 29.3 57.5 8q0-1.35.5-1.35.55-.05.65 1.3.65 8.2-.9 20.25m40.6-21q-.2 28.05 10.6 50.25 10.85 22.35 29.3 31.25 1.1.55.9 1.05t-1.4 0q-19.75-8.5-30.95-32.2-10.7-22.75-9.6-50.4.1-1.45.6-1.45.55.05.55 1.5m4.6 53.65q-3.2 6.3-9.05 15.35-6.35 9.85-10.75 14.8l.5 19.3.35 15.65q0 3.2-4 3.45-4 .2-4.15-2.75L74.3 89.9Q69 84.45 62.85 77.15q-7.5-8.8-10.4-13.55-1.6-2.65.85-5.9 2.4-3.3 4.3-.75l9.8 12.9q7.5 9.55 11.25 13.1 4-3.85 10.85-15.15l7.35-12.65q1.35-2.15 4.5.15 3.2 2.35 1.6 5.55m-4.85-4.5-8.15 13.6q-6.9 10.95-11 14.35l-.75-.05q-6.35-6.1-21.85-26.2-.85-1.1-2.1 1.1-1.3 2.2-.35 3.7 2.9 4.7 10.5 13.85 6.25 7.55 11 12.55l.15.35q.6 17 2 36.95.1 1.55 2.45 1.3 2.3-.3 2.35-2.05.25-9.25-.45-35 0-.25.15-.4 7.45-8.45 19.35-30.3.9-1.65-.85-3.25t-2.45-.5"/><path fill="#0f141b" d="M47.1 80.1q-1.65 1.55-.9 2.45 7.1 8.7 15.15 16.2l.2.4q.7 14.65 1.65 26.3.1.9 2.15 1.05 2 .2 1.95-1.2-1-21-1-29.6l-9.1-8.55-7.85-7.95q-.65-.65-2.25.9m3.25-2.2 7.95 8.3 9.1 8.8.2.4.6 14.5.8 15.4q.15 2.65-3.55 2.5t-3.85-2.05l-1.35-26.3Q49.95 89.8 44.9 83.6q-1.7-2.05 1.2-4.6 2.85-2.55 4.25-1.1m50.05 6.65 7.5-8.95q1.5-1.7 4.25.9 2.75 2.65 1.25 4.2l-13.15 15.75q0 5 .55 27.3 0 2.45-3.65 2.7-3.65.3-3.8-2.4-.7-13.6-.9-29.8l.15-.35zm-1.3 11.2 6.9-8.65 6.15-7.6q.5-.55-.95-2-1.5-1.5-2.2-.65l-15.25 17.7q.1 8.1 1.25 29.4.1 1.2 2.1 1.05 2.05-.15 2.05-1.3l-.2-27.55z"/><path fill="#0f141b" d="M26.15 116.6q8.75 8.2 24.15 12.35 15.35 4.1 32.6 2.9 17.8-1.2 32.45-7.6 14.95-6.55 23.2-17.05l-.5 2.7q-8.3 10.05-22.95 16.4-14.5 6.25-32.1 7.5-15.5 1.1-29.4-2-16.75-3.75-26.75-12.85z"/><path fill="#0f141b" d="M34.35 134.75q8.7 7.95 22.65 11.55 13.6 3.5 28.9 2 14.75-1.45 27.1-7.25 12.5-5.9 18.7-14.55l-1.5 3.85q-6.75 8.1-18.3 13.25T86 150.15q-12.55 1.25-24.2-.95-15.45-2.9-25.75-11.3zM6.4 187.85q-7.25 8.5-3.25 19.7 2 5.7 11.65 5.95 8.9.3 15.3-3.65 10.75-6.6 23.9-21.15 12.5-13.9 17.5-23.9l1.65.3q-5.55 11.05-17.55 24.7-13 14.7-24.55 21.8-7.15 4.35-16.7 3.9-10.45-.45-12.85-7.25-4.35-12.2 3.1-21.5 7.2-9.05 19.6-8.7l10.5-.45q7.35-.65 11.7-1.75 3.3-.8 8.7-4.85 4.75-3.55 9.65-8.45l1.85.6q-4.3 4.3-8.5 7.75-6.95 5.65-11 6.65-4.5 1.15-11.9 1.9l-10.7.6q-11.25-.3-18.1 7.8"/><path fill="#0f141b" d="M63.5 178.5q.3-3.25-1.5-5.55-1.75-2.3-4.45-2.45l1.3-1.05q2.55.3 4.25 2.5 1.7 2.1 1.7 4.85zm-9.15 10.6q.25-3.9-2.05-7.4-2.1-3.2-5.25-4.7l1.5-.6q3.4 1.5 5.3 4.6 1.9 3.05 1.8 6.95zm48.6-29.05q16.1 16.15 20.75 17.5 3.2.95 10.85 1.5 7.2.55 11.5.25 15-.95 24.35 7.7 9.4 8.65 5.6 20-2.9 8.85-15 9.55-12.5.75-26.3-8-9.8-6.2-19.5-16.6-9.55-10.3-17.6-23.25-.7-1.1-.6-2.5.1-1.45.5-.75 8 13.25 18 24.1 10.05 10.9 20.15 17.25 12.7 8 24.3 7.85 11.5-.15 14.3-8.2 3.5-10.05-5.35-18-8.9-8-22.95-7.15-4.2.3-11.6-.3t-11.15-1.55q-2.65-.65-8.35-5.7-4.4-3.85-13.55-13z"/><path fill="#0f141b" d="M102.5 174.3q.1-2.9 1.75-4.95t4.2-2.4l1.15 1.1q-2.6.15-4.3 2.55-1.65 2.25-1.55 5.2zm6.9 9.3q.3-3.55 2.5-5.95t5.4-2.85l1.6 1.1q-3.2.1-5.8 2.9-2.5 2.8-2.5 6.1z"/><path fill="#0f141b" d="M62.6 193.55q-3.5 3.65-3.05 9 .35 4.85 3.65 8.55 3.7 4.15 10 8.25 6.9 4.5 10.8 4.55 4.95.1 13.35-5.4 8.65-5.65 11.8-11.45 1.25-2.3.95-4.95-.4-3.2-3.1-6.1-5.65-5.9-8.4-16.4-.95-3.7-1.6-8.8-.6-5-.5-7.85l1.65-.35q.25 10.65 2.25 16.85 2.95 9.45 8.4 15.25 2.95 3.05 3.25 7.3.25 3.55-1.25 6.3-3.25 6.05-12.25 11.7-8.8 5.55-14.6 5.55-4.5 0-11.75-4.4-6.6-4-10.5-8.35-3.95-4.45-4.45-10-.5-6.1 3.65-10.35 3.75-3.9 7.15-12.7 3.05-8.05 3.35-13.15l1.6-1.95q.1 6.4-2.95 15.2-3.2 9.25-7.45 13.7"/><path fill="#0f141b" d="M128.95 211.45q-3.9 8.65-17.4 12.95-13.65 4.3-25.15.2l3.15-1.25q10.75 3 22.75-1.25 11.6-4.1 15.25-11.5 1.05-2.15-1.3-1.7-4.25.85-8.45.2-4.5-.75-7.1-3l.55-1.95q2.55 2.4 6.9 3.2 3.95.75 8.05-.05 2.1-.4 2.9.95.7 1.3-.15 3.2"/><path fill="#85cbbf" d="M77.75 217.2q.1 1.4-.2 3.7-.5 3.45-.65 9-.2 5.85.15 8.45.4 3-2.4 4.75-2.5 1.6-6.45 1.65t-7.05-1.4q-3.35-1.55-3.95-4.15-1.2-5.2.85-15.7 1.95-9.9 5.05-16.65.9-2 2.75-2.5 1.9-.55 3.6.9 1.85 1.5 3.95 4 2.3 2.6 3.35 4.55.85 1.6 1 3.4m24.9-12.6q1.6.45 3 2.05 3.95 4.6 5.95 16.4 1.9 11.25.2 16.05-1.35 3.7-4.9 5.5-3.2 1.6-7.1 1.3-3.75-.3-6.2-2.2-2.65-2.05-2.4-5.05.8-10.45-.2-16.95-.85-5.35 1.15-9.05.95-1.75 3.1-4.05 2.2-2.3 3.95-3.35 1.7-1.1 3.45-.65"/><path fill="#009b63" d="M19.4 185.65q2.95-.1 5 1.7 2 1.75 2 4.3 0 2.3-1.65 4-1.85 2-5 2.05-3.55.1-5.5-1.45-1.85-1.45-1.95-4.15-.05-3.05 1.9-4.75 1.9-1.6 5.2-1.7"/><path fill="#e95477" d="M7.75 200.15q3.25-.35 5.5 1 2.35 1.4 2.7 4.1.4 3-1.7 5.25-1.95 2.05-4.85 2.35-3.2.25-5.35-1.45-2.1-1.65-2.35-4.35-.2-2.45 1.5-4.5 1.75-2.15 4.55-2.4"/><path fill="#ffec3f" d="M33.6 205.35q.9 2.5-.25 4.85-1.25 2.4-4.05 3.4-2.7.95-5.15-.25-2.3-1.15-2.95-3.4-.75-2.35.15-4.6.95-2.45 3.4-3.4 2.85-1.15 5.5 0 2.5 1.05 3.35 3.4"/><path fill="#009b63" d="M157.3 185.85q2.55.35 4.25 2.6 1.7 2.2 1.45 4.7-.25 2.7-2.3 4.55-2.2 1.95-5.2 1.7-2.8-.2-4.6-2.55-1.8-2.3-1.5-5.2.3-2.85 2.7-4.55 2.3-1.6 5.2-1.25"/><path fill="#e95477" d="M172.95 199.25q2.65 1.4 3.55 4.45.85 2.9-.5 5.3-1.25 2.15-4.3 2.8-3.1.65-5.5-.75-2.35-1.35-3-4.45-.65-2.95.55-5.1 1.1-1.95 3.95-2.7 2.9-.8 5.25.45"/><path fill="#ffec3f" d="M153.95 204.3q2.45 1 3.65 3.6 1.3 2.65.3 5.25-1 2.75-4.2 3.55-3 .8-5.75-.6-2.25-1.15-3.3-3.9-1.15-2.95.15-5.4.95-1.95 3.65-2.75z"/><path fill="#008857" d="M12.75 190.5q.85 3.35 6.5 3.2t7.1-3.25q0 7.05-6.5 7.45-3.75.2-5.9-2.2-2.1-2.3-1.2-5.2"/><path fill="#ca4768" d="M1.75 204.9q1.2 3.55 6.55 4 5.5.5 7.55-3.5.1 2.95-1.7 5.2-2 2.4-5.15 2.45-3.4.1-5.5-2.15-2.2-2.3-1.75-6"/><path fill="#decc38" d="M20.9 207.5q1.35 3 6.35 2.75 4.9-.25 6.75-3.2.3 2.3-1.05 4.1-1.65 2.1-5.2 2.5t-5.45-1.3q-1.85-1.7-1.4-4.85m123.2 1.95q1.1 3 6.2 3.6 5.25.6 7.9-2.35.1 2.75-1.8 4.7-2.15 2.15-5.65 1.75-3.5-.35-5.2-2.65-1.4-1.95-1.45-5.05"/><path fill="#73b1a7" d="M74.55 211.1q1.85 1.3 2.7 3.95.8 2.4.4 4.55-.5 2.65-.75 9.45-.25 6.7 0 9.15.35 2.95-2.15 4.6-2.7 1.8-8.25 1.75t-8-3.25q-1.9-2.55-1.4-5.95.35 3 3.45 4.3 2.5 1.05 5.85.75 7.35-.55 7.5-4.9.05-2.35.55-7.05.5-4.55 1.05-7.55 1.1-6-.95-9.8m19.85-1.35q-.95 2.1-1.25 5-.3 2.5 0 4.95l.85 7.75.55 7.85q-.05 3 1.2 4.45 1.35 1.55 4.5 1.75l6-.65q3.65-.9 5.7-2.6-.7 3.3-4.4 5.65-3.85 2.45-8 1.85-4.3-.6-6.4-2.6-2.25-2.05-1.9-5.4.35-3.65.3-8.4-.05-5.15-.6-7.95-.6-3.15.15-6.1.9-3.25 3.3-5.55"/><path fill="#008857" d="M52.55 141.7q7.55 3.95 15.75 5.4-.25 4.75-2.45 7.75-2.45 3.4-6.45 2.85-4.05-.55-5.95-5.95-1.65-4.75-.9-10.05m42.5 3.85q8-2.3 15.1-6.6 1.65 6.65-.4 12.35-2.05 5.8-6.3 5.8-3.65 0-5.9-3.8-1.9-3.05-2.5-7.75m54.3 45.45q1 4.1 6.45 4.3 5.3.2 7.15-3.25.1 3.1-1.7 5.2-1.95 2.3-5.25 2.25-3.4-.05-5.3-2.45t-1.35-6.05"/><path fill="#ca4768" d="M162.95 204.4q1.05 3.45 6.6 3.5 5.45.1 7.5-3.1.3 2.6-1.35 4.7-1.9 2.4-5.25 2.6t-5.5-1.75q-2.35-2.15-2-5.95"/><path fill="#0f141b" d="M63.75 207.2q-3.1 6.65-4.95 16.45-1.9 10.15-.7 15.25.9 3.95 7.65 4.85t9.55-2.3l.85-1.4.05-1.7q-.4-2.65-.1-8.7.2-5.3.7-8.9l.15-3.7q-.15-1.6-.9-3.05-1-1.85-3.2-4.35L69 205.8q-1.2-1-2.6-.8-1.7.2-2.65 2.2m6.2-2.6q6 5 7.85 8.45 1.55 2.9.85 7.6-.45 3.35-.55 9.15-.15 5.8.2 8.4.4 2.7-1.5 4.75-3.5 3.8-11.45 2.7-8.1-1.15-9.3-6.2-1.3-5.6.85-16.4 2-9.95 5.3-17 1.15-2.5 3.6-2.75 2.25-.3 4.15 1.3m36.25 1.2q4.35 5.15 6.55 17.1 2.05 11.4.2 16.55-2.6 6.95-10.25 7.7-7.1.65-10.9-3.7-1.95-2.25-1.75-4.9.9-10.95-.05-16.8-.45-2.55-.1-5.15.3-2.55 1.3-4.4.95-1.75 3.4-4.15 2.3-2.3 4.2-3.5t3.8-.9q1.95.3 3.6 2.15m-3.95-.5q-1.5-.3-2.75.5-1.65 1.05-3.7 3.25t-3 3.9q-1.9 3.55-1.05 8.6.65 4.2.65 9.55.05 4.6-.4 7.55-.2 1.95 1.35 3.65 3.2 3.5 9.2 2.75 6.4-.8 8.4-6.25 1.65-4.6-.1-15.6-1.85-11.6-5.75-16.05-1.3-1.55-2.85-1.85m-90.4-13.25q-.1-3.05 1.9-5.1 2.15-2.25 5.8-2.35 3.25-.05 5.45 2.3 2.05 2.2 2.05 5.05t-1.85 4.7q-2 2.05-5.5 2.25-3.45.25-5.7-1.85-2.05-1.95-2.15-5m1.7.15q.05 2.25 1.65 3.6 1.65 1.45 4.5 1.35 2.8-.15 4.3-1.7 1.3-1.4 1.3-3.55t-1.55-3.75q-1.65-1.65-4.3-1.65-2.95 0-4.5 1.65-1.5 1.55-1.4 4.05m2.85 13.45q.45 3.45-1.6 5.85-1.95 2.25-5.25 2.55-3.3.35-5.85-1.65t-2.8-5.15q-.2-2.7 1.6-5.05 1.95-2.55 5.2-3 3.5-.45 6 1.65 2.35 1.9 2.7 4.8M12.55 202q-1.95-1.4-4.75-1.05-2.45.35-4 2.25-1.5 1.85-1.3 4 .2 2.5 2.25 4 2 1.4 4.6 1.15 2.8-.25 4.3-2.2 1.45-1.85 1.15-4.25-.35-2.5-2.25-3.9m21.75 8.15Q33 213 29.6 214.2q-2.85 1-5.65-.05-2.9-1.1-3.75-3.8-.85-2.75.15-5.35 1.1-2.9 4.05-4.05 3-1.15 6 .05 3.05 1.2 4.1 4.05.95 2.55-.2 5.1m-1.5-4.4q-.7-2-2.9-2.9-2.3-1-4.9 0-2.2.85-3 2.9-.75 1.9-.1 3.9.5 1.65 2.45 2.7 2.3 1.2 4.95.3 2.35-.85 3.3-3.05.9-2 .2-3.85m131.1-12.35q-.35 3.45-2.8 5.55-2.35 2-5.5 1.75t-5.3-2.9q-2.2-2.7-1.85-6.1.35-3.2 2.55-5.1 2.5-2.1 6.55-1.6 3.05.4 4.9 3.05 1.75 2.45 1.45 5.35m-13.7-1.55q-.25 2.8 1.2 4.75 1.55 2.05 4.2 2.25 2.75.2 4.65-1.55 1.7-1.65 1.9-4 .25-2.3-1.25-4.25-1.5-2-3.7-2.25-2.7-.35-4.65.9-2.05 1.4-2.35 4.15m26.55 17.75q-1.55 2.6-5 3.3-3.15.6-5.55-.6-3.1-1.55-3.9-4.9-.8-3.2.8-6 1.35-2.35 4.5-3.3 3.25-1 5.85.35 3.35 1.75 4.1 5.45.65 3.3-.8 5.7m-4.1-9.55q-1.95-1-4.5-.3-2.6.7-3.65 2.55-1.15 2.05-.65 4.45.55 2.65 2.8 3.95 1.8 1 4.55.55 3-.45 4.15-2.5 1.3-2.2.55-4.75-.75-2.65-3.25-3.95m-14.1 7.95q1.2 2.8.15 5.65-1.2 3.3-4.75 4.2-3.25.85-6.35-.7-2.95-1.5-4.05-4.6-1.05-3.1.45-6 1.3-2.45 4.45-3.25 3.05-.8 5.8.45 3.05 1.35 4.3 4.25m-4.9-2.8q-2.2-.9-4.65-.3-2.55.65-3.5 2.45-1 2-.25 4.5.8 2.65 3.05 3.8 2.6 1.25 5.3.5 2.65-.8 3.45-3.1.9-2.35-.15-4.65t-3.25-3.2M69.3 145.15q0 5.65-2.4 9.5-2.6 4.25-7.05 4.05-3.3-.1-5.95-4.2-2.75-4.25-2.7-9.5.05-5.35 2.7-9.5 2.85-4.4 6.8-4.1 3.6.25 6.1 4.2t2.5 9.55m-16.3-.1q-.05 5.1 2.15 8.6 2.1 3.25 4.85 3.4 3.45.2 5.5-3.1 2-3.2 2-8.85 0-5.05-1.95-8.45-1.9-3.35-4.95-3.55-3.25-.25-5.5 3.6-2.05 3.55-2.1 8.35"/><path fill="#0f141b" d="M65.3 140.45q.05 2.25-.6 3.55-.65 1.2-1.8 1.25-1.05.05-1.7-1.15-.75-1.2-.8-3.45-.05-1.95.6-3.3.7-1.45 1.8-1.5 1.05-.05 1.8 1.5.6 1.35.7 3.1m-3.7.25q.05 1.45.45 2.45t.9.95.85-1.1q.35-1.1.25-2.5-.05-1.5-.45-2.5-.35-1-.75-1-.55-.05-.9 1.25-.4 1.25-.35 2.45m50.25 3q.05 6.5-2.6 10.45-2.45 3.65-6.05 3.8-3.3.15-5.9-3.2-2.9-3.8-3.3-10.45-.4-6.5 2.25-10.7 2.5-3.95 6.3-4 3.85 0 6.6 4.45 2.6 4.25 2.7 9.65m-16.1.5q.4 6 2.65 9.25 2.05 2.9 4.75 2.8 2.9-.05 4.85-3.15 2.15-3.5 2.05-9.35-.05-5-2.3-8.75-2.3-3.75-5.2-3.75-3.25 0-5.15 3.5-2 3.65-1.65 9.45"/><path fill="#0f141b" d="M98.05 136.5q.75-1.3 1.85-1.3 1.15 0 1.8 1.2t.65 3.2q0 4.85-2.45 4.85-1.2 0-1.9-1.55-.65-1.35-.65-3.3 0-1.85.7-3.1m.5 3.1q0 1.45.45 2.55.45 1.05.9 1.05.5 0 .85-.95.4-1.05.4-2.65 0-3.25-1.2-3.25-.5 0-.95.9-.45.95-.45 2.35"/></svg>