<svg xmlns="http://www.w3.org/2000/svg" width="379" height="388" viewBox="-0.35 -0.3 379.1 388.15"><path fill="#767cba" d="M105.95 191.35q-3.95-6-6.3-8.9-3.65 7.1-4.35 15.65-1.8-18.05 1.1-44.75 3.4-31.55 11.9-53.55 1.8 17.2 13.3 46.95l8.7 22.45q4.5 12.1 6.2 19.7l-2.25 4.5q-1.6 2.75-2.6 3.35-1.7-5.2-5.05-11.4-3.9-7.3-7.9-11.55l-4.45 13.2q-2.65 7.75-3.45 12.05z"/><path fill="#515457" d="M99.65 182.45q2.35 2.9 6.3 8.9l4.85 7.7q.8-4.3 3.45-12.05l4.45-13.2q4 4.25 7.9 11.55 3.35 6.2 5.05 11.4 1-.6 2.6-3.35l2.25-4.5q2.4 10.85 0 20.6-3.05 12.7-13.5 15.3-2.95 30.6-20.65 57.15Q94.8 293.3 86 301.3q-8.5 7.75-16.2 10.6-1.7.65-1.85-.4-.2-1.15 1.85-2.9 13.65-11.85 25.4-30.65 16.85-26.8 18.6-53.45-10.9-3-15.25-12.1-2.3-4.75-3.25-14.3.7-8.55 4.35-15.65m259.45 3.15q2.75 3.45 6.65 11.15 3.95 7.85 4.9 12 1.45-4.55 5.15-10.8.65 3.6.7 5.15.75 11-2.2 19.05-3.05 8.5-9.9 12.75-7.1 51.05-32.75 71.45-2.5 2-3.45 1.55t.75-2.3q8.55-9.45 16.75-33 8.25-23.65 7.7-37.35-7.65-4.1-12.3-10.3-4.45-5.95-5.05-12.4-.15-1.85.35-7.15 1-3.6 4.65-11.15 2.25 1.7 5.3 6.25l4.8 7.65q1.85-3.45 4.3-10.05 2.85-7.8 3.65-12.5"/><path fill="#767cba" d="M340.85 164.9q2.75-30 .6-45.6 7.6 10.3 19.2 36.45 12.1 27.15 15.15 42.2-3.7 6.25-5.15 10.8-.95-4.15-4.9-12-3.9-7.7-6.65-11.15-.8 4.7-3.65 12.5-2.45 6.6-4.3 10.05l-4.8-7.65q-3.05-4.55-5.3-6.25-3.65 7.55-4.65 11.15 3-24.35 4.45-40.5M174.1 39.2q.85-10.85-3.1-20.35-3.85-9.15-12.5-17.8 13.35 5.45 21.45 17 8 11.5 7.75 24.65-.05 4.05-1.55 11.75-1.85 9.3-2.25 12.9-1.75 16 6.4 26.5 6.65 8.55 18.65 20.4 8.5 10 7.65 21.2-.65 8.6-6.55 16.1l-4.45 5.55q-2.3 3.2-3.15 6.1-1.4 4.85.15 11.9l2.5 9.9q-3.9 5.05-7.75 10.6l-6.9-8.1q-1.45-3.65-1.45-9.8-.05-6 1.2-9.7-2.65.3-5.2 4.25-2.3 3.55-2.65 6.55l-3.45-2.7-1.05 12.4q-.85 8.35-.85 10.15-3.55-2.6-10.85-6.45-1.55-5.7.55-11.4 1.4-3.75 5.6-9.85 4.8-7 6.3-10 2.95-6 2.75-11.9-.2-5.15-4.25-10.8-1.75-2.4-9.1-10.5-6.4-7.05-9.6-12.45-4.75-7.85-5.95-16.55-1.2-8.55 1.7-17.05 2-6.05 7.2-14.45l8.2-13.65q4.05-7.75 4.55-14.4"/><path fill="#afb7d5" d="M190.2 168q-1.25 3.7-1.2 9.7 0 6.15 1.45 9.8-4.7-5.55-8.1-8.7.35-3 2.65-6.55 2.55-3.95 5.2-4.25"/><path fill="#515457" d="M299.85 274.85q-2.9 3.85-7.7 4.4h-.2q-1.75-3.95-3.75-10.1-.15-4.45 2.15-6.85 2.05-2.2 5.05-1.85 1.6 6.4 4.45 14.4"/><path fill="#767cba" d="M269.2 159.95q7 7.05 16.65 26.2 9.6 18.9 13.15 32.4-1.4 2.85-7.25 10.5-5.9-10.15-8.85-12.5-1.55 2.55-3 7.5l-2.5 9.6-8.3-8.3q-.75 2.05-1.6 6.2-1 4.8-1 7.3-1.1-2.55-1.75-5.5-1.45-6.75-.45-16.35.5-5.05 2.9-18 4.6-25.1 2-39.05"/><path fill="#515457" d="m293.1 249.9.4 2.2q-5.65.6-8.65 4.85l-.8-3.55q-3.3-.65-6.35-2.15 8.2-11.05 20.8-8.65-2 5.15-5.4 7.3m4.4 40.25q.95-.4 3.55-1.95l3.4-2.3q3.7 7.95 7.5 13.15 4.15 5.65 7.95 7.35l-.9 2.6q-12.5-4.3-21.5-18.85M4.05 242.05Q.35 233.3 2.2 220q7 7.55 8.65 8.65l4.05-8.9q2.5-5.35 4.4-8 2.35 3.45 5 8.25 3.15 5.65 4.6 9.4 3.65-6.9 8.7-13.15 1.9 11.7 1.1 18.35-1.5 13-11.55 18.3 1.15 12.15 10.9 30.65 9.5 17.95 18.4 25.9 1.5 2.85 3.3 5.55-15.55-5.95-28.4-25.7-11.85-18.2-14.05-35.55-9.35-2.55-13.25-11.7"/><path fill="#767cba" d="m13.8 145.25.2-.4q.15-.05.3.25 7.15 14.75 14 35.55 6.95 21.15 9.3 35.6-5.05 6.25-8.7 13.15-1.45-3.75-4.6-9.4-2.65-4.8-5-8.25-1.9 2.65-4.4 8l-4.05 8.9Q9.2 227.55 2.2 220q.85-6.05 3.2-16.7l4.2-18.8q5.05-24.2 4.2-39.25"/><path fill="#515457" d="M267.8 283.55q5.4-10.5 5.85-18.85.65 6.9 6.75 11.2 5.5 3.9 11.55 3.35 5.45-.55 8.45-5.8 3.15-5.5-.25-10.1-1.1-1.5-3.25-2.1t-4.2.05q-5.25 1.7-4.4 9.15-3.45-.1-5-4.4-1.65-4.6 1.55-9.1t9.05-5.15q6.75-.8 12.35 4.95 7.05 7.25 4.5 17.7-2.25 9.55-9.75 14-6.35 3.8-14.4 3.4-10.25-.5-18.8-8.3"/><path fill="#515457" d="M333.95 260.65q8.1 25.6-3.35 51.4-9.85 22.25-28.85 35.35-18 12.45-44.2 10-22-2-37.35-11.95l.8-3.8q20.65 9.4 39.6 9.5 21.5.15 37.3-11.85 15.45-11.7 22.2-33.75 6.8-22.2.75-41.6-3.6-11.55-14.3-17.7-9.55-5.5-17.1-3.4-4.3 1.15-8.45 5.05-5.3 4.95-7.4 12.35-.2-4.5-1.95-9.25-1.3-3.45-4.2-8.9 12.2-14.8 33.2-11.8 11.3 1.6 19.95 9.2 9.2 8.05 13.35 21.15"/><path fill="#515457" d="M288 222.1q3 4.1 3.75 6.95.65-1.4 3.6-5.2 2.9-3.8 3.65-5.3.4 1.4 1 5.7l.65 6.05q-10.75-1.55-21.25 2.65-6.35 2.55-11.55 8.7l-1.35-2.8q0-2.5 1.1-7.55.95-4.35 1.7-6.55l8.25 8.1 2.4-9.2q1.35-4.5 2.95-7.1 2.35 1.85 5.1 5.55"/><path fill="#fcd13e" d="M153.2 246.8q3.95-3 7.35-3 4.15 0 7.8 2.85 4.6 3.6 4.6 9.95 0 6.3-4.55 9.95-3.6 2.85-7.85 2.85-3.6 0-7.35-2.8-5.05-3.7-5.05-10 0-5.95 5.05-9.8"/><path fill="#d2ddf0" d="M212.7 279q1.05-13 .5-25.5l11.3.05q0 7.45-.45 10.8-.3 2.2 2.15 2.55 2.4.3 2.7-1.9.6-4.1.5-11.35l8.65.6q.35 5.95 3.4 10.45t7.5 5.6q-2.45 9.65-7.95 18.5-5.3 8.5-12.5 14.85l-19.2-.8q2.4-11.35 3.4-23.85m-42.55 11.7q-3.25-8.1-4.9-17 5.95-1.6 9.6-6.7t3.3-11.4l10.9-1.2q.55 8.7.85 10.35.35 2.15 2.75 1.85 2.4-.25 2.15-2.35l-.75-10.15 14.4-.5q.65 12.45-.4 25.45-1 12.5-3.4 23.8-13.35.05-27.05 2.05-4.3-6.25-7.45-14.2m58.6-49.8q-.4-2.3-2.85-1.85-2.4.4-2 2.7.35 2.25.5 6.75h-11.5q-2-26.85-11.15-43.35l13.8.75q23.2 12.15 31.25 31.1-3.2 1.4-5.45 4.7-2.3 3.3-3.05 7.65l-9-.7q-.15-5.4-.55-7.75"/><path fill="#fcd13e" d="M251.75 240.65q2.15 0 4.6 2 4 3.4 4.15 10.55.1 6.05-3 9.65-2.55 3-5.5 3-2.8-.05-5.4-2.95-3.25-3.65-3.3-9.85-.05-5.45 2.9-9.15 2.6-3.25 5.55-3.25"/><path fill="#d2ddf0" d="M142.25 224.05q-4.95 3.45-10.6 10.95-3.85 5.15-5.8 8.85l-1.4-2.9q3.1-4.45 7.5-8.8 5.15-5.05 10.3-8.1m18 14.85q-6.95.25-11.8 5.4t-4.85 12.3q0 7 4.65 12.1 4.65 5.05 11.4 5.55 3.55 17.65 12.85 31.4-12.15 2.05-18.55 4.75-12.05-8.45-19.4-18.25-7.35-9.75-9.45-20.1 3.15-6.15 3.5-12.6.3-5.15-1.2-11 4.35-10.85 14.55-20.95 10.3-10.2 26-19.05l11-1.9q-14 13.8-18.7 32.35"/><path fill="#d2ddf0" d="M122.45 276.35q2.8 9.65 10 18.7 7.2 9.1 18.25 17.05l-.45.4q-.8.8.05 2.15-11.6-6.15-20-14.85-8.4-8.75-12.2-18.75 2.5-2.15 4.35-4.7"/><path fill="#515457" d="M125.85 243.85q7.05-13.6 20.55-24.1 11.7-9.1 21.5-11.3h.05q-15.7 8.85-26 19.05-10.2 10.1-14.55 20.95z"/><path fill="#d2ddf0" d="M165.45 239.55q4.4-20.35 18.8-33.55l12.3-.75q9.55 16.15 11.6 43.3l-14.4.6-.4-8.15q0-2.4-2.45-2.45t-2.45 2.45l.3 8.5-11.55 1.35q-1.4-4.15-4.5-7.15-3.15-3-7.25-4.15"/><path fill="#515457" d="M132.45 295.05q-7.2-9.05-10-18.7l2.65-4.3q2.1 10.35 9.45 20.1 7.35 9.8 19.4 18.25-2 .8-3.25 1.7-11.05-7.95-18.25-17.05"/><path fill="#d2ddf0" d="M258.6 238.75q-3.85-2.9-8.2-2.65-7.5-16.9-25.7-28.15 23.3 8.15 36.4 24.3 11.95 14.7 11.95 30.95 0 12.75-6.85 24.05-6.25 10.3-18.5 19.7l-.2-.15q-.65-.55-3.75-1.25l-9.55-1.4q7.3-7 12.25-15.65 5-8.65 7.1-18.05 4.85-.95 8-5.8 3.2-4.9 3.05-11.4-.2-10.05-6-14.5"/><path fill="#515457" d="m177.85 188.5 1.05-12.4q2.05.95 9.8 9.55l8.65 9.95q13.55-19.65 17.2-20.5.5 2.35.55 8.65l-.05 11.05q1.5-1.5 6.8-5.35 6.1-4.45 8.3-5.1-1.1 3.1-12.95 21.8l-23.35-.85q-15 .7-25.9 3.15h-.05q-9.6-16.3-13.35-20.4 2.85-.3 11.95 4.45 7.5 3.9 10.5 6.15 0-1.8.85-10.15M160.25 322q-8.1-4.2-9.95-7.35-.85-1.35-.05-2.15 4.15-4 26.55-7.15 19.2-2.65 30.95-2.5 35.1.25 39.75 3.95 3 2.3-4.55 8.05-7.2 5.45-20.1 11.2-.5 15.2-7.4 36.4-7.5 22.9-14.05 23.3-2.25.15-6.1-5.45-3.7-5.45-7.45-14.1-8.95-20.75-9.7-37.4-9.45-2.4-17.9-6.8"/><path fill="#515457" d="M91.95 223.5q15.4 0 25.65 9.05 10.95 9.65 10.95 25.6 0 11-7.05 19.55-7.7 9.4-19.35 9.4-11.85 0-18.25-5.6-6.35-5.55-6.6-16-.15-7.25 4.4-12.15 4.1-4.4 10.05-5 6.05-.65 10.1 3.05 4.6 4.15 4.55 12.2-1.2-2.8-3.3-4.35-2-1.45-4.3-1.45-3.4 0-5.85 2.1-2.55 2.2-2.55 5.5 0 4.5 2.9 6.9 2.45 2 6.15 2 5.55 0 9.55-3.5 4.9-4.35 4.9-12.6 0-8.75-6.5-14.65-6.35-5.8-15.65-5.8-12.45 0-21.35 10.65-8.9 10.6-8.9 25.4 0 26.45 24.55 49.2 9.75 9.05 21.35 15.4 10.65 5.85 19.05 7.45 14.8 2.85 26.05 2.1 9.25-.65 27.65-5l3.5-.85-3.25 1.9q-10.5 6-22.05 9.3-14.25 4.05-27.3 2.95-20.3-1.7-39.3-12.25-20.3-11.25-32-29-1.8-2.7-3.3-5.55-9-16.55-9-35.65 0-21.8 11.75-35.75 12.3-14.55 32.75-14.55m165.1 19.9q-2.65-2.75-5.3-2.75-2.9 0-5.55 3.55-2.95 3.85-2.9 8.85 0 4.95 2.9 8.95 2.75 3.75 5.8 3.85 2.8 0 5.45-3.05 3.15-3.75 3.05-9.6-.1-6.2-3.45-9.8m-96.5.4q-3.8 0-7.65 3.05-4.75 3.75-4.75 9.75 0 7 5.3 10.45 3.5 2.35 7.1 2.35 4.1 0 7.85-3 4.55-3.75 4.55-9.8 0-5.95-4.6-9.7-3.8-3.1-7.8-3.1m-12.1.5q4.85-5.15 11.8-5.4 4.7-18.55 18.7-32.35l5.3-.55q-14.4 13.2-18.8 33.55 4.1 1.15 7.25 4.15 3.1 3 4.5 7.15l11.55-1.35-.3-8.5q0-2.5 2.45-2.45t2.45 2.45l.4 8.15 14.4-.6q-2.05-27.15-11.6-43.3l5.2-.1q9.15 16.5 11.15 43.35h11.5q-.15-4.5-.5-6.75-.4-2.3 2-2.7 2.45-.45 2.85 1.85.4 2.35.55 7.75l9 .7q.75-4.35 3.05-7.65 2.25-3.3 5.45-4.7-8.05-18.95-31.25-31.1l3.9.75 5.25 1.3q18.2 11.25 25.7 28.15 4.15-.3 8.05 2.6 5.95 4.45 6.15 14.55.15 6.5-3.05 11.4-3.15 4.85-8 5.8-2.1 9.4-7.1 18.05-4.95 8.65-12.25 15.65l-5.7-.5q7.2-6.35 12.5-14.85 5.5-8.85 7.95-18.5-4.45-1.1-7.5-5.6t-3.4-10.45l-8.65-.6q.1 7.25-.5 11.35-.3 2.2-2.7 1.9-2.45-.35-2.15-2.55.45-3.35.45-10.8l-11.3-.05q.55 12.5-.5 25.5-1 12.5-3.4 23.85h-4.65q2.4-11.3 3.4-23.8 1.05-13 .4-25.45l-14.4.5.75 10.15q.25 2.1-2.15 2.35-2.4.3-2.75-1.85-.3-1.65-.85-10.35l-10.9 1.2q.2 4.2-2.45 9.3-3.6 7-10.45 8.8 1.65 8.9 4.9 17 3.15 7.95 7.45 14.2l-5.1.75q-9.3-13.75-12.85-31.4-6.75-.5-11.4-5.55-4.65-5.1-4.65-12.1 0-7.15 4.85-12.3"/><path fill="#767cba" d="M269.2 159.95q7 7.05 16.65 26.2 9.6 18.9 13.15 32.4-1.4 2.85-7.25 10.5-5.9-10.15-8.85-12.5-1.55 2.55-3 7.5l-2.5 9.6-8.3-8.3q-.75 2.05-1.6 6.2-1 4.8-1 7.3-1.1-2.55-1.75-5.5-1.45-6.75-.45-16.35.5-5.05 2.9-18 4.6-25.1 2-39.05"/><path fill="#383839" d="M310.65 264.2q2 6.75-1.15 14.05-2.95 6.85-8.5 10.2-3.85 2.3-8.7 3.05-5.85.95-11.55-.6 12.95-2.2 20.55-8.25 8.85-7 9.35-18.45m-90.45 81.25.8-3.8q11.65 5.3 23.5 7.75 10.65 5.7 24.6 5.35 15.95-.4 35.5-8.7-20.9 14.75-48.65 11.55-20.6-2.35-35.75-12.15"/><path fill="#bbb3d7" d="M170.15 290.7q-3.25-8.1-4.9-17 5.95-1.6 9.6-6.7t3.3-11.4l10.9-1.2q.55 8.7.85 10.35.35 2.15 2.75 1.85 2.4-.25 2.15-2.35l-.75-10.15 14.4-.5q.65 12.45-.4 25.45-1 12.5-3.4 23.8-13.35.05-27.05 2.05-4.3-6.25-7.45-14.2m-4.7-51.15q4.4-20.35 18.8-33.55l12.3-.75q9.55 16.15 11.6 43.3l-14.4.6-.4-8.15q0-2.4-2.45-2.45t-2.45 2.45l.3 8.5-11.55 1.35q-1.4-4.15-4.5-7.15-3.15-3-7.25-4.15"/><path fill="#383839" d="M201.4 385.75q-2.3.15-6.25-5.7-3.8-5.65-7.6-14.65 10.2 10.2 20.55-1.2 5.4-5.95 13.95-23.7-4 14.7-9.8 28.5-6.95 16.5-10.85 16.75M92.5 281.95l-2.1 3.4q-7.2-2.35-10.1-7.4 6.4 2.95 12.2 4m9.65 5.15-2.7-.1 1-2.45q.65-1.45 1.4-2.35 16.35-2.1 26.7-24.05 0 11-7.05 19.55-7.7 9.4-19.35 9.4m56.2 66.25q-14.3 4.05-27.3 2.9-16.25-1.45-32-8.45-15.4-6.9-22.75-15.65 18.3 11.35 40.75 16.15 23.55 5 37.4-.55l11.7-1.7 14-3.1 3.5-.85-3.25 1.9q-10.55 6.05-22.05 9.35"/><path fill="#bbb3d7" d="m160.25 238.9-3.65.25q1.45-7.15 5.95-16.25 2.6-5.15 8.6-15.35l3.8-.55 4-.45q-14 13.8-18.7 32.35m-5.4 34.8 4.8.55q3.55 17.65 12.85 31.4l-6.05 1.15q-9.9-16.6-11.6-33.1m71.35-6.8q2.4.3 2.7-1.9.6-4.1.5-11.35l8.65.6q.4 6.45 3.85 11.05-.45 16.7-5.7 30.25-3.85 4.75-7.7 8.1l-19.2-.8q2.4-11.35 3.4-23.85 1.05-13 .5-25.5l11.3.05q0 7.45-.45 10.8-.3 2.2 2.15 2.55m-4.45-57.4Q235.6 223 240 244q-1.15 2.3-1.7 5.35l-9-.7q-.15-5.4-.55-7.75-.4-2.3-2.85-1.85-2.4.4-2 2.7.35 2.25.5 6.75h-11.5q-2-26.85-11.15-43.35l13.8.75z"/><path fill="#0d131a" d="M270.35 162.35q1.3 9.1.15 20.2-.6 6.35-2.85 18.4L265.6 213q-.95 6.5-.95 11.35 0 9.4 3.95 16.7-.35.35-1.7-.65-1.3-.95-2.15-2.15-2.7-7.15-2.7-12.8 0-4.7 1.2-11.8l2.35-12.45q2.55-13.6 3.25-20.55 1.1-10.4-.05-18.3-.4-2.75-.05-3.2.4-.55 2.3 1.65 10.25 11.75 20.5 34.2 10.65 23.15 10.6 34.95-1.5-.6-2.4-.65-.15-11.2-9.9-33.35-9.7-22-19.5-33.6M283.4 254q-3.3-.6-6.15-1.9l1-1.4q3 1.4 5.9 1.9.55.1.65.6l.65 2.95-1.15 1.85zm5.1 13.45q1.95 6.4 4.35 11.85l-1.75.15q-1.8-4.3-3.5-9.5zm8.25 23.15 2.1.05q8.6 13.5 19.9 17.3.25.1-.05 1t-.6.8q-12.45-4.45-21.35-19.15m.9-47.85 1.95.5q-1.9 4.1-5.4 6.6l.35 2.05-1.85.2-.4-2.05v-.15q0-.4.4-.65 3.15-1.95 4.95-6.5m-1.05 18.2q1.55 5.9 3.8 12.45-.25.85-1.25 1.9-2.55-7.2-4.45-14.35z"/><path fill="#0d131a" d="m303.65 286.35 1.4-1.15q3.6 8.15 7.25 13.3 3.9 5.6 7.3 6.95.25.1-.05.8l-.55.65q-3.75-1.5-7.9-7.2-3.75-5.2-7.45-13.35m-4.25-66.85q0 1-.75 2.25l-2.05 2.8-2.4 2.95q-1.3 1.7-1.75 2.8l-1.7.05q-.5-2.5-3.1-6.35-2.4-3.55-4.7-5.65-1.5 2.1-2.9 7.3-1.05 4.1-1.65 8.2l-1.75.6-4.35-4.5-2.75-3.05q-.65 2.4-1.25 6.45-.65 4.35-.65 6.55 0 .35-1-.5-.95-.9-.9-1.45.55-5.4 1.8-9.85 1.2-4.4 1.85-3.55l2.8 2.9 4.85 4.9q.45-5.4 2.75-11.35 2.05-5.3 2.85-5.35.9-.1 4.35 4.65 3.5 4.8 4.75 7.95.8-1.5 3.2-4.6l2.1-3q1.05-1.85 1-3.4l.7.8z"/><path fill="#0d131a" d="M289.25 242.1q9.05-2.45 18.5 3.35 10.1 6.2 13.85 18.25 6.1 19.6-.7 41.95-6.8 22.4-22.5 34.3-18 13.65-42.6 11.9-17.1-1.25-35.3-9.6-.3-.1-.1-1.3.2-1.15.5-1.05 17.85 8.2 34.25 9.5 23.8 1.9 41.55-11.1 15.55-11.4 22.35-32.9 6.75-21.5.85-40.8-3.3-10.85-12.7-16.9-9.05-5.85-17.35-3.6-6.35 1.7-10.9 7.4-4.9 6.1-4.2 13.05.6 6.35 6.2 10.55 5.3 4 11.1 3.35 2.7-.3 4.95-1.95 2.15-1.65 3.25-4.2 1.9-4.25-1.1-8.2-2.9-3.95-6.5-2.35-2.05.9-2.9 3.15-.85 2.35.05 4.95.3.9-.4 1.35l-1.85.15q-4.25-.85-5.7-5.2-1.3-4.1.7-8 1.45-2.8 4.05-4.65 2.65-1.9 5.8-2.4 8.5-1.25 14.85 5.65 6.45 6.9 5.2 16.1-1.55 11.5-12.15 17.2-11.1 5.95-24.15.5-5.05-2.15-8.6-5.55l1.05-1.75q3.7 3.3 8.6 5.35 11.7 4.9 21.8 0 10.05-4.85 11.5-15.95 1.15-8.8-4.45-14.9-5.45-5.95-13-4.8-5.85.85-8.4 5.85-1.65 3.2-.55 6.55 1 3.15 3.5 3.8-.3-2.65.5-4.8 1.05-2.85 3.9-4.05 5.1-2.25 8.7 2.45 3.65 4.7 1.2 10.2-1.25 2.9-3.9 4.8t-5.8 2.25q-6.5.7-12.45-3.7-6.2-4.6-6.9-11.5-.75-7.65 4.55-14.45 4.9-6.4 11.85-8.25"/><path fill="#0d131a" d="M332.15 305.8q1.95-1.9 3.25-2.6-4.15 14.05-12.9 26.15-8.5 11.7-19.55 19.1-19.2 12.9-45.7 10.2-21.9-2.2-37.8-12.75-.25-.2.15-.85.45-.65.7-.5 15.25 10.1 37.3 12.15 25.9 2.35 43.7-9.95 10.2-7 18.2-17.5 8.25-10.85 12.65-23.45m3.2-45.65q4.75 15.2 2.55 31.35-1.7 2.4-3.2 5.1 3.95-18.35-1.5-35.7-4-12.65-12.8-20.45-7.9-7-18.35-8.95-9.8-1.85-19.1 1.2-9.35 3.1-15.05 10.2l-.65-1.4-.6-1.45q6.5-7.6 16.65-10.4 9.8-2.7 20.25-.15 10.75 2.6 18.95 10.1 8.95 8.2 12.85 20.55m-217.9 22 1.45-1.35q4.2 10.7 14.05 20.25 7.95 7.7 17.3 12.7l1.35 3.4q-13.25-6.6-21.1-14.4-8.45-8.45-13.05-20.6m27.7-60.6q-12.3 9.1-19.9 19.7l-1.35-1.65q7.2-11.05 19.45-19.75 10.75-7.65 24.2-12.75l.5 1.6q-11.45 4.35-22.9 12.85"/><path fill="#0d131a" d="M274.9 263.2q0 12.4-7.55 24.75-7 11.5-18.5 20l-1-.7-.95-.7q10.6-8.05 17.4-18.65 7.95-12.45 7.95-24.7 0-18.75-16.15-34.9-15.85-15.85-39.6-21.9l1.3-1.3q22.85 5.55 39.3 21.15 17.8 16.9 17.8 36.95m-258.15-8.4q-.25-2.2.45-2.4.7-.15.9 1.35 2.2 17.65 14.15 35.65 12.6 19 27.65 24.8l.35.95q.15.9-.15.8-17.6-6.5-30.35-26.5-11.1-17.45-13-34.65"/><path fill="#0d131a" d="M26.25 252.7q-.05-.35.75-.4.75-.1.8.25 1.2 12.15 10.8 30.8 9.6 18.55 18.25 25.55.25.2.2 1.15 0 1-.25.8-8.8-6.4-19.05-25.9t-11.5-32.25"/><path fill="#0d131a" d="M13.25 146.95q.1-5.65 2.5-.65 8 16.9 15.2 39.1 7.8 24 8.9 37.3 1.2 14.55-4.05 23.1-3.25 5.3-8.6 7.7-.3.1-.6-.6-.3-.75-.05-.85 7.45-3.35 10-13.5 1.8-7.1 1.05-16.15-1.05-12.5-8-35.1-6.9-22.4-14.95-39.6.3 10.95-2.55 27.55-1.5 8.7-4.55 22.1-5.85 25.75-5.2 34.2.7 8.6 5.5 14.65 4.15 5.35 9.65 6.75.55.15.55.75-.55.9-.95.8-6.25-1.65-10.9-7.15-5.4-6.4-6.1-15.55-.45-5.8 1.2-15.35.9-5.05 4.1-19.2 3.75-16.3 5.2-24.7 2.5-14.4 2.65-25.6"/><path fill="#0d131a" d="M37.3 214.8q.25-.2.7 1 .45 1.25.2 1.45-2.65 2.7-6.15 8.35l-3.25 4.7q-.25 0-2.65-5.05-3.25-6.7-6.85-12.05-1.05 1.65-4.7 9.3-3.3 6.95-3.55 6.95-.5.1-3.4-2.65l-5.7-5.9.85-1.9q5.5 6.2 7.75 8.4l4.2-9.15q4.1-8.75 4.75-8.75.35 0 3.95 6.7 3.7 6.95 5.55 11.4 4.6-8.25 8.3-12.8m151.3-47.15q1.7-.75 2.1-.25.3.4-.1 2.1-1.05 4.15-.45 10.4.6 6.7 2.75 9.95l-1.65-1.3q-1.85-1.65-2-2.15-1-3.6-1-8.8-.05-4.9.8-8.4-2.15 1.1-4.1 4.65-1.85 3.35-1.85 5.55 0 .35-.85-.6t-.8-1.25q.45-2.75 2.5-5.65 2.15-3.1 4.65-4.25"/><path fill="#0d131a" d="M178 13.6q11.25 13.25 10.95 29.4-.1 4.25-1.95 13.6-2.5 12.7-2.4 18.3.15 10.55 6.3 18.45 3.7 4.75 11.65 12.9 9.05 9.25 11.5 13.05 4.8 7.4 4.15 16.15-.5 6.1-3.4 11.15-1.4 2.45-5.6 7.55-4.5 5.5-5.8 9.5-1.25 3.85.45 10.45 2.1 8.3 2.15 9.6l-1.3 2.15-1.3 1.55q.25-3.1-1.55-12-1.55-7.6-.15-12.4.75-2.55 2.45-5.1 1.05-1.7 3.45-4.55 3.75-4.55 5.25-7.35 2.5-4.75 2.95-10.6.6-7.4-2.6-13.4-2.95-5.65-11.75-14.65-7.8-7.95-11.75-13-6.05-7.8-6.7-18.15-.5-7.5 2-20.2 1.85-9.25 1.9-13.3.15-8.9-4.45-18.5-6.6-13.7-20.65-20.75 8.7 9.6 11.65 20.05 2.15 7.4 1.45 15.8-.45 6.05-3.65 12.75-1.9 3.95-6.9 11.95-7.45 11.8-9.7 18.35-2.65 7.6-1.45 16.3 1.3 9.2 6.7 17.6 3.15 4.95 10.6 13.05 5.9 6.45 8 9.6 3.45 5.15 3.65 10.1.15 4.95-1.35 9.05-1.7 4.75-6.9 12.2-4.9 7.1-6.35 12.2-1.35 4.7-.15 9.35l-1.05.1q-1.15-.2-1.2-.5-1.6-6.35.45-12.05 1.3-3.7 5.55-9.85l6.35-9.25q3.25-5.8 3.05-11.15-.15-4.5-3.75-9.5-1.75-2.55-7.95-9.25-8.05-8.75-11-13.25-5.7-8.55-7-18.05-1.35-9.6 2.55-19.25 2.15-5.3 9-16.2l7.15-11.9q3.5-6.85 3.8-12.55.8-15.8-9.4-30.05l-5.85-7.25q-1.75-2.15.15-1.75 10.2 2.25 19.75 13.5m-43.7 279.55q-7.3-9.55-9.7-19.65l1.85-3.05q1.3 20.35 29.3 39.65l-2.4.85q-11.75-8.25-19.05-17.8m-6.6-47.35q4.6-9.9 14-19.15 9.45-9.25 23.15-17.3 1.3-.8 3.85-1.3l2.05-.25q-16.5 8.95-27.85 20.3-11.65 11.7-14.25 22.5z"/><path fill="#0d131a" d="M123.1 275.7q2.8 9.65 10 18.8 7.25 9.2 18.45 17.25l-1.65 1.1q-10.85-7.9-18-16.95-7.05-9-10-18.55zm36.9-64.2q-23.95 14.85-33.2 32.3l-.9-1.6q6.75-12.1 20.1-22.8 2.5-2 8.6-5.25 6.35-3.35 5.4-2.65m182.6-89.2q.6 6.25.6 13.4 0 11.95-1.55 28.7l-2.9 26.8q-1.95 17-1.95 20.15l.05 1.1q.55 6.35 5.1 12.3t11.8 9.8l.45.7q.55 13.6-7.45 37.05-8.2 23.85-17.25 33.8-.75.9-.25.8l1.9-1.15q25.35-20.15 32.45-71 .1-.35.35-.55 11.9-7.35 11.9-26.95l-.1-4.1q-.75-11.65-12.8-40.2-11.35-26.85-20.35-40.65m-1.95-1.6q-.55-5 2.8.05 9.45 14.15 20.95 40.55 12.7 29.15 13.65 42.45.7 9.6-1.9 17.2-3.2 9.35-11.1 14.45-2.35 24.85-10.65 42.65-8.3 17.95-23.05 29.55-3.1 2.45-4.15 1.15-1.05-1.25 1.15-3.7 9.05-9.95 16.9-34.05 7.35-22.6 6.95-35.15-18.4-10.05-18-24.5.05-3.35 1.6-14.9l3-23.5q3.9-33.95 1.85-52.25"/><path fill="#0d131a" d="M358.45 184.25q.2-2.25 5.4 7.35 5.05 9.3 6.9 14.65 3.05-7.6 4.5-10.1.2-.25.85.8.6 1.1.4 1.35-1.85 2.45-4.5 8.9-1.6 3.9-2.1 1.7-.85-3.65-4.25-10.35-3.2-6.3-6.05-10.4-1.15 5.15-4.5 13.4-3.35 8.15-3.95 7.5l-4.3-6.25q-3.85-5.75-5.5-7.3-4 8.5-4.8 14.95-.1 1-.1-3.2 0-3.8.45-5.25l2.1-5.65q2-4.65 2.8-3.95 1.35 1.2 9.25 14.1 2.25-4.55 4.75-12.25 2.35-7.3 2.65-10M150.7 313.65q.65 2.6 8.65 7 8.75 4.8 19 7.4.6.15.6.7.3 6.5 2.05 14.1l-1.1.35-1.25-.2q-1.65-7.4-1.8-13.5-8.95-2.3-17.15-6.2t-11.2-7.2q-1.45-1.55-1-2.7.3-.95 2.4-2.25 5.75-3.6 22.75-6.7 18.4-3.35 35.35-3.15 15.25.15 27.1 1.65 9.3 1.1 13.05 2.5 2.1.75 2.25 1.75.1.95-1.55 3.2-2.75 3.7-8.85 7.8-7.05 4.8-16.45 8.65.8 19.2-9.25 41.5-3.7 8.2-7.7 14.1-3.7 5.4-5.15 5.4-4 0-11.2-13.65-7.35-13.95-11.1-29.15 1.5-.8 2-1.5 3.35 14.15 10.7 28.4 6.8 13.15 9.5 13 1.3-.1 4.4-5.1 3.35-5.45 6.55-13.25 8.6-20.9 9.25-40.45 0-.45.45-.65 11.05-4.95 18.5-10.4 6.45-4.75 6.75-7.1.2-1.35-9.2-2.65l-30.35-1.7q-18.15-.2-38.45 3.7-19.25 3.7-18.55 6.3m-36-54.65q-.35 9-6.3 13.25l.7-3.05q2.05-2.5 2.9-5.75 1.55-2.05 2.7-4.45"/><path fill="#0d131a" d="M121.5 234.85q4.2 4.65 6.3 10 2.3 6.05 2.25 13.75-.1 11.3-7.45 19.8-7.8 9.1-19.55 9.55-2.6.15-5.3-.1l1.45-1.65 2.95.1q11 0 18.55-8.95 7.05-8.4 7.05-19.2 0-12.7-6.9-21.3zm-16.7 24.95-.65 1.55q-2.2-2.75-5.35-2.75-2.95 0-5.05 1.9-2.25 2-2.25 5.05 0 3.75 2 5.8 1.7 1.7 4.65 2.05l-1.1 1.7q-3.3-.65-5.4-2.8-2.5-2.6-2.5-6.75 0-3.75 3.15-6.25 2.85-2.3 6.5-2.3 3.35 0 6 2.8"/><path fill="#0d131a" d="M100.65 249.25q3.8 2.2 5.5 6.9l-1.05 2.75q-1.2-5.75-5.65-8.25-6.7-3.9-14.05 1-7.5 5-7.3 13.85.15 7.2 3.45 12.1 3.3 4.8 9.45 7l-1.25 1.45q-6.45-2.45-10-7.55-3.7-5.25-3.85-12.6-.2-11.45 8.75-16.45 8.3-4.6 16-.2"/><path fill="#0d131a" d="M91.75 237q5.6 0 10.5 2.25 4.75 2.2 7.9 6.1l-.45 2.3q-2.75-4.2-7.4-6.6-4.75-2.5-10.55-2.5-11.55 0-20.3 10.55-8.85 10.7-8.85 25.25 0 15.55 10.25 31l-1.4 1.7Q60.7 290.75 60.7 273.8q0-15.2 9.1-26T91.75 237"/><path fill="#0d131a" d="M91.95 222.75q12.3 0 20.95 5l.05 1.1.05 1.05q-9.15-5.6-21.05-5.6-19.6 0-31.7 13.65Q48.2 251.6 48.2 273.8q0 16.05 7.25 30.9 7.25 14.8 20.85 26.6 21.65 18.8 46.2 23.05 28.15 4.9 56.15-10.25-17.45 4.05-26.7 4.65-11.05.7-25.65-2.1-11.95-2.35-26.35-11.8-16.1-10.6-26.35-24.7l.85-.65.8-.7Q85.3 322.5 100.9 333q14.05 9.4 24.95 11.55 15.25 2.95 26.65 2.3 10.25-.6 28.7-4.95 2.15-.55 2.35.25.25.75-1.75 2-28.9 17.75-60.5 11.95-26.25-4.85-47.25-23.65-27.55-24.85-28.45-56.8-.6-23.4 12.35-38.15t34-14.75"/><path fill="#0d131a" d="M122.15 225.15q.05-.35.9-.25.85.05.8.4-2.1 26.2-15.6 49.35-14.15 24.3-36.25 37.2-3.4 2-4.85.6t2.1-4.45q10.95-9.7 21.2-24.5 20.3-29.2 22.1-59.1.05-.3 1.1-.25t1.05.4q-1.85 30.25-22.65 59.85-10.55 14.95-21.75 24.75-1.65 1.45-1.05 1.75.5.25 2.15-.5 7.2-3.3 15.35-11.25 8.4-8.25 15.65-19.45 17.05-26.25 19.75-54.55"/><path fill="#0d131a" d="M114.55 129.6q-4.95-15.1-6.55-26.55-8 22.05-11.1 54.75-2.8 28.9-.35 44 1.35 8.15 5.85 14 4.45 5.75 10.95 7.8 2.25.7 1.65 1.35l-2.85-.05q-7-2.15-11.7-7.8-4.85-5.9-6.2-14.3-2.45-15 .55-44.65 3.45-34.3 12.3-58.15.95-2.55 1.55-2.4t.95 3q2.65 20.2 16.15 54.55l9.55 23.75q4.5 12.25 4.45 19.5-.1 9.5-3.9 16.95-4.4 8.55-12.05 10.25-1.5.35-2.15-.4-.7-.75.8-1.05 7-1.55 11-9.25 3.5-6.85 3.55-15.7.05-6.7-3.9-19.2-2.75-8.7-8.85-24.3-6.6-16.8-9.7-26.1"/><path fill="#0d131a" d="M119.05 175.4 115 187.1q-3.5 10.2-3.85 12.95-.15.95-4.45-5.75l-6.9-10.35Q96.45 191 96 199.3q-.05 1.35-.7-1.8-.65-2.95-.3-4.65.75-3.95 2.35-8.05 1.5-3.8 2.15-4.1.85-.3 11 16.25.7-3.2 3.85-13.1 3.1-10 3.9-11.55.65-1.45 6.2 7.55 5.7 9.25 7.5 15.4.9-1.1 2.15-3.8l1.7-4.15q.1-.3.9.85.75 1.15.65 1.45l-2 4.15q-1.5 2.4-3 3.85-.8.75-4-6.65-4.35-10.05-9.3-15.55m78.25 21.75-7.7-9.05q-7.45-8.85-10-10.55l-1.1 13.1q-.7 9.3-1.25 9-4.5-2.75-8.9-5.15-8.55-4.75-11.95-5.5 3 3.75 6.75 9.5 3.75 5.85 5.2 9.05 12.65-2.75 26.3-3.3 13.1-.5 22.35 1.1 1.35-.75 5.6-8.05 3.8-6.6 6.05-11.4-2.25 1.1-8.9 6.3-5.35 4.25-5.35 3.35l-.1-9.8-.4-9.45q-2.85 1.95-9.85 11.95-6.45 9.1-6.75 8.9m-21.5-.6 1-10.95q.9-9.55.85-12.1-.05-2.5 6.25 4.75l13.4 16.05 9.75-13q7.65-9.6 8.3-7.5.25.9.5 7.1l.2 11.35q16.9-12.5 15.45-8.45-1.25 3.55-5.6 11.9-5.1 9.85-7.1 10.65l-1.75.6q-7.05-1.75-21.65-1.15-15 .65-27.3 3.4-1.6.4-2-.55-1.45-3.6-5.3-10.1-4.15-7.05-6.8-9.95-3.65-4 5.2-.6 8.55 3.3 16.6 8.55m-26.9 60.2q.25 4.9 3.55 8.3 3.45 3.6 8.2 3.3 4.8 0 8.2-3.5 3.35-3.45 3.4-8.3-.05-5.05-3.4-8.4-3.3-3.3-8.1-3.4-5.05.1-8.35 3.45-3.35 3.4-3.5 8.55m2.4-9.8q3.95-4.15 9.45-3.95 5.3-.05 9.1 3.9 3.85 3.95 3.8 9.55.1 5.8-3.85 9.8-3.9 3.95-9.5 4.1-5.2-.2-9.15-4.2-4-4.1-3.95-9.4.25-5.8 4.1-9.8"/><path fill="#0d131a" d="M147.45 244.05q5-5.6 12.05-5.95 5-18.2 18.5-31.7h2.25q-7.55 7.25-12.55 16.2-4.55 8.1-6.8 17.1-6.45 0-11.3 4.65-5.2 4.95-5.4 12.45.25 7.25 5.5 12.15 4.8 4.45 10.65 4.45l.35 1.75q3.7 17.35 12.75 30.55l-1.7.25q-9.75-14.6-13-30.9-6.9-.7-11.65-5.95-4.8-5.35-4.65-12.6.1-7.05 5-12.45"/><path fill="#0d131a" d="m182.55 254.25 7.25-.65.9 11.05q.15.75.8 1.05l1.15.15q1.55-.2 1.4-1.5l-.85-10.95 16-.55q.7 13.45-.5 27.45-1.05 11.85-3.25 22.55l-1.65.25q4.8-22.45 3.45-48.6l-12.35.4.7 9.3q.25 2.7-3 3.1-3.25.35-3.75-2.4-.35-2-.7-9.55l-9.2 1.2q0 6.45-3.85 11.4-3.5 4.4-8.85 6.2 1.75 8.6 5.05 16.55t7.75 14.3l-2.15.3q-8.8-12.85-12.3-30.7l-.3-1.65q6.05-1.4 9.85-6.55 3.8-5.25 3.25-11.4zm64.6-18.4.7 1.6-1.45.65q-3.35 1.8-5.35 5.7-1.6 3-2.05 6.45l-6-.6-4.45-.3-.2-3.85-.4-4.45q-.15-.9-.9-1.15-1.05-.4-1.9.3-.65.5-.5 1.45l.35 4.05.2 3.55h-13.05q-1.45-14.5-3.2-22.5-2.65-11.9-7.9-21.3h1.75q4.9 9.05 7.75 19.8 2.9 10.9 3.35 22.3l9.65.05-.5-6.3q-.3-2.75 2.75-3 3.05-.2 3.55 2.65l.6 6.9 7.6.65q.8-4.4 2.95-7.55 2.1-3.05 5.2-4.55-8.4-18.65-31.75-30.4-.35-.15 1.1-.3l2 .1q21.95 11.8 30.1 30.05m-64.5-29.45 3.15-.35q-14.45 13.1-19.25 33 3.9 1.3 6.8 4.1 2.9 2.75 4.35 6.5l10.15-1.2-.2-7.45q0-1.5 1-2.45.9-.8 2.2-.8t2.25.85q1.05.9 1.05 2.4l.3 7.05 12.4-.4q-2.5-27.05-11.65-42.25l2.4.05q4.7 8.15 7.65 19.75 2.8 11.15 3.7 24.1l-15.95.65-.25-4.2-.2-4.75q0-.8-.55-1.3-.45-.4-1.15-.4-1.6 0-1.6 1.7l.15 4.85.2 4.35-11.3 1.25-1.55.3q-.8-4-5-7.75-3.95-3.6-7.3-3.9 1.1-7.95 5.8-16.95 5.05-9.75 12.4-16.75m67.25 63.3-.45 1.9q-2.5 9.05-7.5 17.25-5.15 8.35-12.3 14.85l-1.6.1q-1.35-.1-1.1-.35 7.5-6.45 12.9-14.9 5.35-8.3 7.95-17.45-4.2-1.55-7.05-5.9-2.95-4.35-3.45-9.95l-7.15-.65q.1 6.65-.45 10.7-.35 2.5-3.6 2.15t-2.85-2.75q.4-2.9.4-10.3l-9.35-.05q1.15 24.15-3.8 48.35l-1.95-.1q5-24 3.85-49.8h12.85l-.05 5.1-.4 6.55q-.1.85.5 1.3.95.7 2 .25.7-.3.85-1.1l.35-6.75.1-5.25 4.75.25 5.5.5q.15 5.25 2.8 9.8 3.1 5.35 8.25 6.25"/><path fill="#0d131a" d="m251.6 236.9-1.7.05-.7-1.55q-7.8-16.9-27.25-28.2-.65-.3 2.55.65 3.05.95 4 1.6 8.6 5.7 14.3 12.65 4.75 5.75 8.1 13.15h.15q5.75 0 10.05 5.5 4.25 5.45 4.4 12.9.2 7.35-3.1 12.25-3.1 4.5-8.1 5.65-2 9.15-6.65 17.45-4.75 8.45-11.9 15.4l-2.65-.25q7.25-6.8 12.2-15.1t7.15-17.25l.45-2.05 1.85-.5q4.05-1.45 6.55-5.85 2.6-4.5 2.5-10.15-.15-6.55-3.7-11.3-3.55-4.7-8.5-5.05"/><path fill="#0d131a" d="M257.2 245q-2.35-3.4-5.35-3.35-3.05.05-5.35 3.4-2.45 3.4-2.25 7.85.05 4.95 2.35 8.55 2.25 3.55 5.35 3.5 2.95 0 5.35-3.4 2.5-3.6 2.35-8.4-.05-4.7-2.45-8.15m-5.45-5q3.8-.15 6.6 3.75 2.75 3.9 2.95 9.6 0 5.6-2.7 9.45-2.65 3.75-6.65 4.05-3.9-.25-6.7-4.2-2.85-4.05-2.8-9.55-.05-5.55 2.9-9.45 2.8-3.7 6.4-3.65"/></svg>