<svg xmlns="http://www.w3.org/2000/svg" width="160" height="224" viewBox="-1.35 -0.2 159.65 224.05"><path fill="#9fd9f6" d="M145.25 18.95q8.9 4.85 10.45 16.9 1.55 12.3-5.95 22.25-2.15-3.6-5.75-6.8l-7.45-5.6q-4.1-9.05-13.1-20.05 3.3-5.95 10.15-7.8 6.45-1.75 11.65 1.1"/><path fill="#fff" d="M63.85 110.7q-5 7.1-6 17-.75 7.9 1 13.4-6.05 5.95-13.3 6.55-8.6.7-14.2-7.15-2.55-3.55-2.9-9.45-.4-5.75 1.45-11.9 4.3-14.4 15.75-18.95 6-2.4 10.85.05 5.25 2.7 7.35 10.45"/><path fill="#fff" d="M48.05 147.15q6.05-1.35 10.8-6.05 1.95 6.1 6.8 9.7 4.05 2.95 8.95 3.5 5.2-8.35 12.5-16.55l6.25-6.55q2.9-2.9 8.7-9.8l10-12.35 5.25-1.4q23.95 30.25 20.5 64.95-2.5 24.85-17.15 45.2-1.95 2.65-6.85 3.75l-9.9.3q-5.45-.7-9.1-2.95-4.1-2.45-4.55-6-4.7 1.75-10.6 1-6.05-.8-9.7-3.75-1.2-1-4.35-6.2-3.9-6.45-7.25-14.1-9.9-22.35-10.3-42.7"/><path fill="#9fd9f6" d="M136.95 45.9q-.85-.3-10.85-8.4-9.05-7.3-12.65-6.9-6.5.7-13.15 12.2-3.5 6.05-7.6 15.1-1.8 3.1-6.35 7.5-5.65 5.6-7.1 7.35-7.5 9.2-2.4 19.95 4.6 9.75 13.7 14.15 9.5 4.6 21.5 2.2l-8.65 9.85-9.2 10.25q1.6-8.8-2.5-17.05-4.3-8.65-11.7-9.25-9.95-.8-16.15 7.85-2.3-8.6-8.4-10.85-4.6-1.7-9.8.35-8-5.05-13.6-14.55-4.8-8.1-5-13.45-.05-2.4.2-5.8-7.2 0-13.5-4.25-6.35-4.35-9.4-11.5-5.7-13.4-.75-27.8Q9 7.25 23.55 4.15q8.45-1.8 16 3.3Q47 12.5 49.7 21.5q9.35-9.7 19.8-15.1Q80.7.65 91.2.85q9.2.2 25.05 16.65 14.75 15.3 20.7 28.4"/><path fill="#a1cbed" d="m123 34.95 12.7 10.15q6.9 4.8 8.4 6.15 4.95 4.4 7.45 10.4 3.65 8.75-4.45 22.4-7.35 12.4-16.95 18.1-12.95 7.8-26.55 7.75-18.6-.05-26.75-17.2-5.1-10.75 2.4-19.95 1.45-1.75 7.1-7.35 4.55-4.4 6.35-7.5 4.1-9.05 7.6-15.1 6.65-11.5 13.15-12.2 3.65-.4 9.55 4.35"/><path fill="#fff" d="M61.75 147.05q-4.05-5.6-4.15-13.9-.1-10.65 4.55-19.5 6.15-11.7 17.85-10.8 8.2.65 12.35 10.15 4 9.15 1 18.2l-6.25 6.55q-7.3 8.2-12.5 16.55-8.3-.95-12.85-7.25m74.8 32.35q2.2-5.8 1.8-16.4-.35-9.7-2.55-18.75 7.65-.1 13 5 5.3 5.05 5.3 12.4 0 7.4-5.05 12.55-5.1 5.2-12.5 5.2"/><path fill="#9fd9f6" d="M127.05 121.9q1.4 4.05-.95 6.2-2.35 2.25-6.65.25l4.85-10.45z"/><path fill="#595857" d="M122 58.8q.85-3.05 5.3-4.4l9.4-.5q5.4.65 9.3 2.85 4.3 2.4 4.95 5.75.7 3.6-4.05 7.1-5.1 3.75-11.7 2.95-5.45-.7-9.85-5.1-4.5-4.55-3.35-8.65m-62.95 2.35q.35-5.75 2.75-10.1 2.75-4.95 6.7-4.7t5.75 5.35q1.5 4.3 1.15 10.45-.35 6.35-3.05 10.65-2.7 4.35-6.15 4.15-3.4-.2-5.45-4.85-2.1-4.6-1.7-10.95"/><path fill="#933000" d="M107.05 95.05q-8.25-4.6-14.95-3.5 0-3.8 1.1-7.6 6.05 3.75 21.65 6.1 15.75 2.35 22.3.35-3.05 4.75-8.05 8.7-5.1 4.05-10.85 6.15-3.45-5.9-11.2-10.2"/><path fill="#ee869a" d="M92.1 91.55q6.7-1.1 14.95 3.5 7.75 4.3 11.2 10.2-7.25 2.65-13.65 1.65-6.25-1-9.45-5.3-3-3.95-3.05-10.05"/><path fill="#fff" d="M77.8 172q-3.45-2.4-4.55-6.5-1.2-4.45.75-9.7 1.3-3.55 4.75-8.1 2.7-3.65 7.85-9.35 5.1-.7 11.7 5 6.05 5.2 8.85 11.4-6.7 11.75-12.55 16-4.3 3.1-9 3.35-4.4.2-7.8-2.1"/><path fill="#9fd9f6" d="m135.95 72.9 5.55-.65q-1.2.5-2.3 2.7l-1.45 3.6q-2.55 6.55-12.2 34.15-10.1 27.5-18.4 42.05-2.8-6.2-8.85-11.4-6.6-5.7-11.7-5 17.2-19.15 21.65-24.75 13.65-17.3 21.8-35.1l1.75-4.3q.5-1.75.1-2.55z"/><path fill="#dcdddd" d="M47.15 142.95q8-2.3 10.65-7.3.4 3.4 1.05 5.45-5.35 5.2-11.8 6.35-7.5 1.3-13.05-3.9 5.75 1.55 13.15-.6"/><path fill="#89bcd6" d="M80 102.85q-9.95-.8-16.15 7.85-2.3-8.6-8.4-10.85-4.6-1.7-9.8.35-5.6-3.5-10.2-9.55 21.4 9.25 48.65 11.85 5.25 4.7 12.25 6.45 7.35 1.8 15.7.1l-6.6 7.5q-5.65.8-11.4 2.65-1.25-6.55-4.9-11.05-3.9-4.85-9.15-5.3"/><path fill="#8bb0cd" d="M97.2 103.7q3.3 2.55 7.3 3.15 2.95.45 9.5 0-3.05 4.4-13.35 3.05-10.5-1.4-16.85-7.4l6.7.7z"/><path fill="#dcdddd" d="m77.55 149.7-2.95 4.6q-4.95-.55-8.55-2.9-4.15-2.6-6.15-7.3 4.2 4.2 9.75 5.35 6.6 1.4 10.55-3.25zm60.65 20.95q9.05-.1 15.5-5.25-1.25 6.1-5.95 10-4.8 4-11.2 4 1.25-3.25 1.65-8.75"/><path fill="#6a1b00" d="M93.2 83.95q3.6 2.25 11.85 4.2 7.85 1.9 16.2 2.65-8.5 1.25-15.2 3.7-7.75-3.95-13.95-2.95 0-3.8 1.1-7.6"/><path fill="#cf7487" d="M92.1 91.55q6.2-1 13.95 2.95-6.6 2.55-11.5 6.25-2.45-3.8-2.45-9.2"/><path fill="#dcdddd" d="M89.7 192.5q-12.45-6.25-17.25-10.75 14.4 5.2 17.25 4.5.75 1.6 0 6.25"/><path fill="#0f141b" d="M25.7 75.5q-.75-3.25-.15-8.7h2.55l-.3 4.55q0 2.1.5 4.05 1.6 5.9 6 12.2 5.25 7.55 12.15 11.65.3.2-.75.8l-1.2.45q-7.4-4.65-12.85-12.45Q27 81.3 25.7 75.5m112.75-29.35q.15.3-1.7-.6l-2.05-1.25q-6.6-13.9-21.3-28.2Q98.75 1.85 90.9 1.7q-10.2-.2-22.2 6.4-9.95 5.55-18.25 13.9-.2.2-.45-.95l-.5-1.85q8.05-7.9 18.7-13.25Q80.45-.2 90.9 0q9 .15 25.1 15.85 15.95 15.55 22.45 30.3"/><path fill="#0f141b" d="M44.3 9.7q8.75 9.35 7 22.3-.25 1.9-1 2.6-.75.65-.5-1.25 1.7-12.6-6.95-21.7-8.5-9-19.15-6.7Q9.45 8.05 4.4 23.6q-4.6 14.1.75 26.7 4.45 10.45 14.8 13.95 10.25 3.5 19-2.2 1.8-1.2 1.65-.35-.1.8-1.95 2-9.6 6.25-20.35 2.5Q7.6 62.45 2.9 51.45.25 45.25 0 37.6q-.2-7.75 2.15-14.8Q7.75 6.15 23.2 2.85 35.4.2 44.3 9.7m78.9 15.4q3.55-6.35 10.3-8.55 6.7-2.15 12.55 1.05 10.05 5.5 11.15 18.55 1.1 12.7-6.7 22.75-.2.3-.9-.45-.7-.8-.5-1.05 7.35-9.6 5.85-21.4-1.45-11.6-10.15-16.3-5.55-3.05-11.85-.6-6 2.3-8.6 7.65-.15.3-.7-.55z"/><path fill="#0f141b" d="m135.35 45.9-.15-.1q-3.55-2.4-9.4-7.4-4.5-3.85-6.6-5.15-3.25-2.1-5.7-1.85-5.05.55-10.35 8.4-3.05 4.5-7.35 13.75-1.75 3.75-3.75 6.55-2.35 3.3-6.5 7.3-6.95 6.75-8.75 10.55-3.05 6.5.7 14.4 2.75 5.75 7.25 9.7 4.45 3.9 10.3 5.65 7.9 2.45 17.3.45l-1.35 1.9q-8.85 1.45-16.3-.85-6.25-1.9-11.2-5.95-5.2-4.25-8-10.1-4.1-8.6-.8-15.65 1.9-4.15 9.1-11.1l6.55-6.8q1.85-2.35 3.9-6.8 4.9-10.4 7.65-14.5 5.6-8.45 11.3-9.05 2.9-.3 6.55 2.15 1.7 1.1 7.15 5.7l4.6 3.95q2.9 2.4 4.5 3.35 13 7.85 16.8 17 3.35 8.05-4.35 22.25-7.9 14.55-19.6 20.2.3-.7.75-1.35l.9-1.35q10.55-7 16.9-20.05 6.1-12.5 3.35-19.15-2.15-5.15-6.35-9.1-2.65-2.55-9.05-6.95"/><path fill="#0f141b" d="M92.3 84.45q.25-.85.7-1.05.4-.15 1.25.3 4 2.25 12.8 4.1 8.3 1.7 16.7 2.25l-.85 1.55q-8.3-.7-16.35-2.45-8.6-1.9-12.9-4.15-1.9 7.9.65 13.6 2.8 6.15 10 7.3l10.3-.3-.8.8-.8.8-9.4.3q-7.7-1.25-10.7-7.8-2.85-6.25-.6-15.25m44.35 5.25q1.4-.4 1.5.2.05.5-1 2-2.55 3.7-6.8 7.25l.95-1.75.7-1.8 1.95-1.85 1.65-2.2-2.05.3.55-1.7z"/><path fill="#0f141b" d="M92.7 91.15q6.4-.65 14.05 3.2 7.2 3.6 9.85 8.05l-.35.6-.7.1q-3.5-4.85-11.3-8.3-7.5-3.3-12.15-2.5-.3.05 0-.55.3-.55.6-.6m17.05 19.15q.3-.25.15.95-.2 1.2-.6 1.4-3.5 1.95-9.6 2.45-1.7.15-2.3-.45-.6-.65 1.1-.8l6-1.1q3.45-1 5.25-2.45m-46 .2q-.75.65-.8.35-1.4-5.85-5.55-8.9-4.65-3.4-10.6-1.3-5.4 1.85-9.6 6.65-4.15 4.75-6.3 11.45-1.95 6.1-1.6 12 .3 5.85 2.75 9.25Q37 146.9 45 146.6q7.4-.35 13.05-6.35.25-.25.7.45t.2.95q-6.55 7.05-15.2 6.65-8.4-.4-13.3-7.2-2.75-3.9-3.35-9.85-.55-6.15 1.45-12.55 2.3-7.2 6.85-12.4 4.6-5.25 10.4-7.25 7.2-2.5 12.2.75 4.45 2.9 6.35 9.75z"/><path fill="#0f141b" d="M66.15 106.75q5.5-5.15 13.05-4.65 7.95.55 12.4 7.3 2.75 4.1 3.6 9.15.8 4.7.1 10.8-.05.45-1.45 1.2t-1.3.4q1.65-5 .9-10.75t-3.6-10.05q-4.05-6.1-11-6.45-6.55-.35-11.55 4.3-4.6 4.3-7 12-2.05 6.5-1.95 13.15.1 9.5 5.9 15.25 4.65 4.7 10.4 5.05.35.05-.3.8-.6.8-.95.75-6.15-.4-10.85-5.4-5.8-6.15-5.95-16.45-.1-6.9 2.1-13.75 2.55-8.1 7.45-12.65M50.7 99.1l.65.5q-1 .35-3.4 2.8-2.45 2.5-3.35 4.25-.8 1.5-1.25 1.2t.35-1.85q.9-1.75 2.55-3.85Q48 100 49.45 98.9zm6.9 1.7q.25-.2.8.5.6.7.35.9-1.2.85-3 3.3t-2.7 4.45q-.7 1.55-1.25 1.35-.5-.2.05-1.7.75-2.05 2.8-5.05 1.85-2.75 2.95-3.75"/><path fill="#0f141b" d="m75.05 102.9 1.2.05q1 .25.7.4-2.1 1.25-3.75 4.35-1.3 2.55-1.8 5.25-.25 1.15-.6.8-.4-.35-.25-1.75.35-2.75 1.3-4.75 1.1-2.3 3.2-4.35m8.4.8q.2-.25.75.25.5.45.3.65-.6.55-1.3 3.55-.65 2.7-.85 5.05-.15 1.85-.7 1.7-.5-.15-.4-1.95.55-7.85 2.2-9.25M47.3 147.9q0-.35.95-.8.9-.5.9-.15.4 19.95 10 42.25 3.3 7.65 7.05 14.1 3.1 5.25 4.25 6.2 3.6 2.9 9.4 3.6 5.8.75 10.15-1.2.3-.1.15.9-.15 1.05-.45 1.2-4.7 2.1-10.6 1.1-5.6-1-9.7-4.3-1.1-.9-4.45-6.3-4.15-6.75-7.65-14.5-10.5-22.95-10-42.1"/><path fill="#0f141b" d="M73.3 182.9q-1.9-1.05-2.45-2.15-.5-1.05 1.45 0 3.1 1.7 9.05 3.2 5.3 1.35 8.1 1.5.85 0 .85.85l.25 12.45q.3 11.05.5 13.75.15 2.5 2.5 4.55 2.35 2 6.45 3.15 5.7 1.6 11.5.9 6.25-.75 8.45-3.8 14.35-19.95 16.85-44.5 3-29.45-13.55-54.45-.1-.15.5-1 .65-.85.8-.6 15.95 22.95 14.7 51.1-1.2 27.25-17.9 50.45-2.6 3.6-9.5 4.6-6.45.95-12.55-.75-4.65-1.3-7.4-3.75t-2.95-5.5q-.2-2.45-.3-12.6l-.1-12.9q-3.3-.35-7.45-1.5-4.7-1.3-7.8-3"/><path fill="#0f141b" d="m136.3 145.15-.2-1.55q7.95.05 13.6 5.25 5.7 5.3 5.7 12.8 0 7.6-5.4 12.95-5.3 5.25-12.9 5.5-.25-1.05.05-1.6 6.85-.2 11.45-5.05 4.65-4.85 4.65-11.8 0-6.7-5-11.55-5-4.9-11.95-4.95m-9.6-22.5q-.05-.4.6.55t.7 1.55q.15 3.75-2.55 4.9-2.65 1.15-6.35-.8-.35-.15.05-.75.35-.65.65-.5 3.5 1.6 5.5.2 1.95-1.45 1.4-5.15M74.3 62.2q.35-6-.85-9.95-1.5-4.9-5.1-5.15-3.5-.2-6.1 4.6-2.3 4.3-2.6 9.55-.35 6.05 1.55 10.45t4.95 4.6q3 .15 5.35-3.75 2.45-4.05 2.8-10.35m0-11.8q2.25 4.65 1.85 11.85-.35 6.25-3.35 10.95-3.05 4.85-6.85 4.6-3.7-.2-6.1-4.95-2.4-4.8-2.05-11.45.3-6.3 3.5-11.05 3.25-4.85 7.15-4.65 3.65.25 5.85 4.7"/><path fill="#fff" d="M64.05 72.75q0-1.25.7-2.2.75-.9 1.75-.9 1.05 0 1.8.9.7.9.7 2.2t-.7 2.15q-.75.9-1.8.9-1 0-1.75-.9-.7-.9-.7-2.15m1.6-23.7q1.4-1.7 3.25-1.6 1.8.15 3 2 1.15 1.9 1 4.4-.2 2.5-1.6 4.2-1.4 1.65-3.25 1.55-1.85-.15-3-2-1.2-1.85-1-4.35t1.6-4.2"/><path fill="#0f141b" d="m130.5 71.4.9.1q1.2.4 1.2.7 0 3.1-1.65 6.7-7.5 16.3-19.5 32.1-7.05 9.3-19.85 23.25-7.7 8.45-10.5 12-4.7 5.85-6.2 9.9-1.8 4.8-.75 8.95 1 3.85 4.1 6.1 3.15 2.2 7.25 2 4.4-.25 8.55-3.25 9.35-6.75 20.9-33.15 6.6-15 16.7-44.15L136 80.5q3-7.7 4.4-8.75.15-.15.95.4.75.55.4.7-1.25.5-4.25 8.5l-4.35 12.4q-22.85 67.1-38.1 78.15-4.6 3.3-9.6 3.5-4.65.2-8.3-2.35t-4.85-6.95q-1.3-4.8.8-10.35 1.7-4.4 6.4-10.45 3.4-4.4 10.7-12.35 14.25-15.65 19.95-23 11.65-15.1 19-31.4l1.6-4q.65-2.25-.25-3.15"/><path fill="#0f141b" d="M150.1 62.65q-.45-2.6-3.6-4.65-2.9-1.9-7.2-2.85-5.75-1.25-10.9.15-4.85 1.25-5.55 3.7-1.05 3.7 3.6 7.9 4.35 3.9 9.3 4.8 5.55.95 10.4-2.4 4.65-3.2 3.95-6.65m-1.2-4.85q3.55 3.15 3.1 6.75-.6 4.15-5.8 6.8-5.1 2.6-10.7 1.9-4.9-.6-10.05-4.8-5.95-4.85-4.65-9.65 1-3.6 6.3-5.2 5.6-1.7 12.95-.05 5.4 1.25 8.85 4.25"/></svg>