<svg xmlns="http://www.w3.org/2000/svg" width="211" height="196" viewBox="-0.75 -0.2 210.8 195.6"><path fill="#dcd5cb" d="M206.4 34.9q2.65 4.25 2.1 12.15-.3 3.6-1.7 10.05-1.65 7.5-6.65 17.65-6.55 13.35-15.55 23.4 1.05 1.6 1.55 3.4l.65 3.1q.6 3.75-.65 8.2-1.6 5.35-5.2 7.45 2.05.6 3.9 1.7 2.3 1.3 3.45 2.85 2.9 3.85 1.95 7.8-.75 3.05-3.1 5.05-2.1 1.7-4.55 2l-4.25-.45q-2.05-.65-3.65-1.95-2.7-2.1-4-6.35l-.75-3.8-5.8 4.5-7.15 5.3q17.45 6.55 17.25 11-.1 2.6-5.3 6.85-5.1 4.2-13.4 8.5-5.35 2.85-12.3 5.15-.7 4.1-4.1 11.75-4.35 9.6-7.9 10.25-3.6.65-10.05-6.35-5.25-5.75-7.2-9.9-15.25 1.4-29.5.25-4.95 7.65-8.35 11.75-6.45 7.7-10.3 7.3-3.5-.35-8.95-10-4.3-7.6-8.35-18.1Q42 161.95 35.7 157q-10.7-8.45-17.65-19Q2.95 115.05 2.3 83.25q-.8-37 18.45-59.75 10.1-11.9 24.3-17.75 11.2-4.6 20.7-4.25 21.2.85 33.4 13.5 6.9 7.15 10.25 17.8 2.4 7.5 2 10.6 25.8-1.05 42.3-4.35 10.1-2 21.35-4.95l12.45-3.15q6.75-1.15 10.05-.9 6.15.5 8.85 4.85"/><path fill="#ef858c" d="M164.5 98.35q.55-4.6 3.5-6.65 3.25-2.3 8.3-.35 5.1 2 7.9 6.25 2 3.1 2.6 7.05.6 3.75-.65 8.2-1.6 5.35-5.2 7.45 2.05.55 3.9 1.65 2.25 1.3 3.45 2.9 2.9 3.85 1.95 7.8-.75 3.05-3.1 5.05-2.1 1.7-4.55 2l-4.25-.45q-2.05-.65-3.65-1.95-2.7-2.1-4-6.35l-.75-3.8q-6.4 4.95-17.7 12.6-11.45 7.75-15.35 9.7-17-1.95-30.9-5-29.7-6.65-48.95-15.3 19.2-7.55 49.8-27.25 10-6.4 18.7-12.8 5.15 2.4 11.25 10.45 6.7 8.85 8.75 17.65 13-1.85 21.05-5.9l-1.35-4.3q-1.2-5.05-.75-8.65"/><path fill="#003364" d="M98.05 84.2q0 2.35-3.8 4.45-5.15 2.8-15 2.8-9.75 0-15.05-3.45-3.95-2.55-3.7-5.05.15-1.6 1.25-2.3 2.1-1.35 7.8-.85l12.75.6h8.3q7.45 0 7.45 3.8m3.4-13.15q-4.75.3-9.65 0l-7.6-.9q-8.3-1.6-8.55-6-.05-1.6 1.05-2.4 1.8-1.35 7.1-1.5l16.35-.65 12.45-.65q3.6-.25 6.2.1 4.15.6 4.2 2.6.05 1.15-1.25 2.65-1.3 1.45-3.5 2.75-3.3 2-7.85 2.95zm37.2-22.65q-7.4 2.1-19.35 2.2l-14.75-.7q-7.6-1-7.6-3.3 0-1 1.6-1.95 1.45-.9 2.95-1.05 31.8-.8 51.5-4.65-.7 1.9-3.05 3.95-4.05 3.45-11.3 5.5"/><path fill="#31363b" d="M170.1 147q-.35 2.95-10.2 3.45l-23.45-1.2 6.75-4.05 10.4-6.45q5 1.45 10.3 3.85 6.35 2.9 6.2 4.4m27.65-110.9q4.5 0 7.2 3.15 4.65 5.55 1.85 17.85-1.65 7.5-6.65 17.65-6.55 13.35-15.55 23.4-1.15-2.3-3-3.85-1.95-1.65-5.3-2.95-5.05-1.95-8.3.35-2.95 2.05-3.5 6.65-.45 3.6.75 8.65l1.35 4.3q-8.05 4.05-21.05 5.9-2.05-8.8-8.75-17.65-6.15-8.05-11.3-10.4 7.1-5.2 13.95-11L151.2 67.9 168.55 52q9.4-8.4 16.25-11.9 7.85-4 12.95-4"/><path fill="#6dbb5a" d="M89.05 140.15q-18.15-4.8-32-11 12.7-5 30.7-15.5z"/><path fill="#fff" d="m70.25 123.35 17.05-9.4q12 1.65 18.3 3.75 3.4 1.15 1.7 4.75-2.9 5.95-7.95 9.7-7.15 5.35-16.5 3.9-5.1-.75-9.1-5.65-3.3-4.05-3.5-7.05"/><path fill="#b4afa7" d="M12.95 130.05Q9.2 122.8 7 115.25l-1.3-5.45q.95 3.55 4.2 8.8 4.85 7.75 12.5 14.85 22.05 20.25 59.75 28.2 36.65 7.7 66.45.45 14.95-3.6 22.5-8.8-3.6 3.6-10.75 7.85-14.25 8.45-31.7 11.5t-32.55 2.9l-11.65-.75-6.4 9.55q-7.35 9.45-12 9.15-4.6-.3-11.7-14.25l-6.2-13.9Q25 153.4 12.95 130.05"/><path fill="#b4afa7" d="m114.25 175.1 28.95-5.65q0 2.05-2.85 8.1-2.55 5.45-5.5 10.2-1 1.05-2.45 1.7-2.95 1.35-5.4-.55-2.05-1.5-7.05-6.95-5.15-5.5-5.7-6.85m39.9-109.95q-9.15 8.3-22.3 18.75-26.3 20.85-46.4 31.45-23.1 12.2-34.5 15.7-10.05 3.05-16.45.75-5.05-1.8-6.2-10.35l-.1-8.15q.05 1.2 2.2 2.7 2.7 1.8 7.1 2.65 12.35 2.3 31.2-4.6 23.2-8.5 44.1-20.25 22.95-12.85 41.35-28.65"/><path fill="#cf737b" d="m170.6 129.05-.2-2.1q.5 2.7 3.9 5.7 3.9 3.5 7.8 3.05 3.65-.4 6.35-2.8 1.35-1.2 1.95-2.3-.05 2.1-1.05 4.2-1.95 4.25-6.45 4.55-7.7.8-10.85-5.75-1-2-1.45-4.55m16.65-23.15.3.15q.15.9-.55 4.75t-3.2 7.05l-2.35 2.4-3-.7q3.05-1.15 6.05-6.7 2.35-4.35 2.75-6.95m-44.95 1.35q2.7 5.6 3.25 9.8-9.6-12.05-30.95-9.9-9.5.95-24.7 6l36.35-24.45q10.65 7.25 16.05 18.55"/><path fill="#b4afa7" d="M43.7 38 40 40.25 41.85 39zq3.85-2.25 5.15-2.8 5.7-2.35 12.1-1.05 7.45 1.5 12 7.65 2.25 3.05 3 5.8l-5.45 2.85q-.25-2.35-1.45-5.15-2.35-5.6-6.8-7.85-7.15-3.6-15.4-.75-1.6.55-3.15 1.3"/><path fill="#0f141b" d="M73.15 131.3q-3.5-3.95-3.75-6.95 0-.3.85-.5l.8.1q.2 2.45 3.4 5.95 3.85 4.25 8.65 5 9.55 1.5 16.65-4.15 4.35-3.45 6.85-8.65.75-1.5.55-2.3-.25-.9-1.85-1.4-5.3-1.8-17.65-3.6-.25-.05.1-.9t.65-.8q12.5 1.85 17.75 3.8 2.15.8 2.6 2.25.4 1.25-.45 3.45-2.1 5.4-7.5 9.65-7.8 6.1-18.1 4.5-5.35-.8-9.55-5.45"/><path fill="#0f141b" d="M80.25 118.65q.7-2 1.65-1.95.9.05 1.3 2.15.4 1.8.25 3.95-.15 2.1-.75 3.85-.7 1.95-1.65 1.9t-1.35-2.1q-.4-1.8-.25-3.95.2-2.15.8-3.85"/><path fill="#0f141b" d="M205.8 38.5q.8.95 1.95 3.85-.35-4.4-2-7.05-2.5-4-8.25-4.45-3.3-.25-9.6.85l-.15.05-9.2 2.25q-14.55 3.8-24.6 5.85-11.7 2.3-26.75 3.5L99.9 44.6q-10.25.25-19.8 3.55-9.5 3.25-19.15 9.8-6.6 4.5-13.1 12.55-7.8 9.65-12.95 21.5-4.5 10.4-5.5 19.7-1.6 15.1 5 19.05 5.3 3.25 17.25-.6 19.35-6.25 54.8-29 13.65-8.75 33.7-25.35l20.15-17.4 11.35-9.95q7.7-6.4 12.85-9.2 7.95-4.25 13.2-4.35 5-.1 8.1 3.6m1.4-4.1q1.75 2.8 2.2 7.55.65 6.5-1.4 15.5-1.65 6.95-5.15 14.95-6.5 15-17 27.35-.2.25-1.05-.9-.9-1.15-.75-1.3 9.3-10.4 15.85-24.1 4.65-9.7 6.15-16.6 1.05-4.5 1.05-8.05 0-5.8-2.7-9.05-2.15-2.5-5.4-2.65-4.8-.2-13.2 4.05-5.05 2.6-12.65 9.15l-11 10.05q-29.6 27.35-53.85 42.9-14.55 9.4-28.25 16.7-16.35 8.7-27.55 12.3-14.45 4.65-20.7-.75-6-5.25-4.8-20.1.8-9.85 5.7-21Q38 78.3 45.9 68.45q6.7-8.3 13.45-12.85 9.85-6.7 19.6-10 9.7-3.35 20.25-3.6l27.6-1.1q15.65-1.1 27.05-3.4 10.55-2.1 33.6-7.75 5.75-1.2 10.1-.7 6.75.75 9.65 5.35"/><path fill="#0f141b" d="M98.6 12.4q13.65 12.35 14.25 31 .05.35-1.1.25-1.1-.05-1.1-.4-.85-16.8-13.25-28.4Q84.7 2.95 65.8 2.3 54.2 1.9 43 7.05q-11.5 5.3-20.35 15.5-20.2 23.25-19.4 60.6.6 28 11.35 48.15 11.35 21.2 33.6 32.85.3.15.5 1.8t-.15 1.55q-22-9.8-34.65-31.05Q.65 114.2 0 83.2q-.75-36.5 19.05-60.45 9.1-11.1 21.2-17Q52.5-.2 66 0q19.2.25 32.6 12.4"/><path fill="#0f141b" d="M54.85 33.95q5.6.15 10.3 3.95 5.75 4.65 6.75 12.8l-.8.45q-.85.15-.9-.2-1.1-7.2-6.35-11.35-4.3-3.4-9-3.5-7.5-.15-15.2 7.05-8.25 7.7-11.15 19.1-3.1 12.05-1.55 22.05 1.3 8.45 5.35 13.25.2.3-.4.85-.65.5-.9.25-4.75-5.05-6.5-14.2-2-10.7 1.2-23.25 3.1-12.05 12-20 8.45-7.5 17.15-7.25"/><path fill="#0f141b" d="M39.8 70.9q-1.4 6-.2 10.55l-1.65.45q-1.6-6-.25-12.5 1.45-6.9 5.65-10.4 2.75-2.3 6.15-1.8 3.35.45 6.15 3.4.25.25-.35.85-.55.6-.8.35-4.75-4.5-9.4-.7-3.8 3.2-5.3 9.8m85.9 19q-.3-.15.05-.9t.7-.65q5.55 2.25 11.8 10.25 6.8 8.75 8.95 18.1.1.35-1.3.5l-1.45-.25q-2.05-8.75-8.3-17.25-5.65-7.6-10.45-9.8"/><path fill="#0f141b" d="M168.05 90.6q1.75-1.05 4.25-1.1 2.6-.1 5.05.85 5.45 2.1 8.4 6.75 2.05 3.2 2.65 7.2.6 3.75-1.05 8.65-1.95 5.75-5.85 8-.3.2-.7-.55-.45-.7-.15-.9 3.35-1.95 4.8-7.15 1.15-4.25.6-7.65-.6-3.9-2.6-6.9-2.6-3.85-7.4-5.7-3.15-1.2-6.2 0-3.8 1.5-4.45 6.3-.45 3.4.75 8.3l1.35 4.25q.25.7-.45 1.05-7.65 4.2-17.8 5.9l-14.6.7q-1.6-.15-1.55-.8t1.65-.65l13.2-1.25q10.55-1.7 17.65-5.1-2.5-5.3-2.5-10.35 0-3.75 1.6-6.45 1.25-2.15 3.35-3.4"/><path fill="#0f141b" d="M179.4 120.5q-1.25-.25-1.15-.75t1.35-.4q2.5.3 5.1 1.5 3.1 1.4 4.6 3.4 3.25 4.25 2.1 8.6-.85 3.45-3.25 5.6-2.25 2-5.3 2.45l-4.5-.35q-2.4-.7-4.25-2.2-3.7-3.1-4.7-9.65-6.85 5.15-17.3 12.2-10.95 7.35-14.75 9.2-.3.2-1.55-.55-1.3-.75-.95-.9 3.4-1.7 16.05-9.95l18.65-12.25q1.3-.9 1.35.6l.7 3.65q1.2 3.95 3.7 5.9 1.6 1.2 3.55 1.8t3.75.4q2.15-.25 4.05-1.85 2.15-1.8 2.85-4.55.9-3.45-1.8-7.1-1.3-1.8-4.1-3.2-2.2-1.15-4.2-1.6"/><path fill="#0f141b" d="M169.3 147.95q.65-.45.55-.85-.1-.3-.8-.85-1.75-1.4-6.75-3.5-4.8-2.05-9-3.25-.35-.05.2-.8.5-.75.85-.65l6.4 2.45q6.75 2.75 9.15 4.8 1.3 1.1 1.35 2 0 .95-1.5 2.05-4.75 3.35-24.75 2.2-19.25-1.15-39.15-5.6Q75.05 139 55 130q-.35-.15 1.25-.85t1.95-.55q18.55 8.35 48.1 14.95 20.6 4.55 39.8 5.9t23.2-1.5"/><path fill="#0f141b" d="M171.05 142.2q4.25 3.05 4.15 5.7-.15 3.25-6.4 8.5-5.7 4.8-13.15 8.65-11 5.75-31.35 9.15-21.65 3.65-40.15 2.05-.35-.05-.1-1.4t.6-1.35q17.35 1.5 38.05-1.7 20.85-3.2 32.55-9.3 8.7-4.5 13.75-8.8 4.4-3.75 4.5-5.85.1-1.4-2.6-3.6-4.3-3.45-14.2-7.1l1.25-1.3q8.65 3.2 13.1 6.35"/><path fill="#0f141b" d="M44.5 155q-.2-1.6.3-1.65t1.05 1.5q3.65 10.85 8.5 21.4 7.35 16 11.5 16.4 4 .45 12.05-10.15l3.8-5.55 3.45-5.05q.95-1.2 4.25-1.2l4.4.4q1.2.1 1.2.55 0 .4-1.05.55l-4.75.3q-2.1.1-2.35.55l-2.9 4.6-4.5 6.55q-8.9 11.2-13.7 10.6-6.3-.8-13.85-17.9-6.1-13.75-7.4-21.9m75.45 29.45q-6.1-6.2-7.85-9.9-.15-.35 1.25-.7l1.5-.1q1.85 4 7.1 9.55 6.05 6.4 9.2 5.85 3.05-.55 7.25-9.55 3.45-7.5 4.1-11.4.1-.35 1.45-.35 1.35.05 1.25.4-.65 4.1-4.35 11.95-4.85 10.25-9.35 11-4.15.7-11.55-6.75m-31.8-48q-.05-.3.7-.35.7-.1.7.2l.55 4.25-.85.1q-.85-.2-.85-.5zm7.1-49.8q2-1.55 1.95-3.1-.05-1.7-2.7-2.1l-4.15-.15H81.8l-12.6-.6-5.7-.2q-2.4.35-2.4 2.25 0 1.3 1.35 2.7 1.8 2 5.05 3.25 4.7 1.8 11.65 1.8 11.2 0 16.1-3.85m-13.75-7.1h8.8l4.45.3q4.15.8 4.15 3.55 0 2.3-2.6 4.6-5.05 4.35-17 4.35-12.3 0-17.9-5.9-1.85-2.1-1.7-3.85.15-1.7 1.15-2.5 2-1.65 8.8-1.05zm28.85-10.6q4.3-.9 7.4-2.8 2.25-1.3 3.45-2.7 1.1-1.25 1-2.1-.3-2.25-9.6-1.6l-12.4.65-16.45.65-5.1.4q-2.5.6-2.4 2.35.2 3.9 7.95 5.35l7.25.85q5 .35 9.85.05zm-.15 1.95q-4.4 1.05-8.9 1.2-9.2.4-17.4-1.2-8.8-1.7-9.05-7.05-.15-2.65 2.45-3.6 1.95-.75 6.6-.8l16.7-.65 11.85-.7q11.1-.75 11.15 3.2.05 1.4-1.35 3.15-1.4 1.8-3.8 3.25-3.35 2-8.25 3.2m42.05-32.3q.1-.25.95 0 .8.3.7.55-.65 1.95-3.25 4.3-4.35 3.9-11.95 6.05-7.35 2.1-19 2.15l-15.35-.85q-8.25-1.2-8.25-4.35 0-1.3 1.75-2.35 1.55-.95 3.3-1.15.3-.05.45.5.1.55-.15.6-1.3.15-2.6 1-1.3.8-1.3 1.4 0 .5.95 1.05 1.75 1 6.05 1.55l15.1.75q11.5-.15 18.7-2.2 7.25-2.05 11.2-5.5 2.1-1.9 2.7-3.5"/></svg>