<svg xmlns="http://www.w3.org/2000/svg" width="279" height="347" viewBox="-0.75 -0.35 279.2 346.5"><path fill="#318098" d="m47.6 229.45-41.9 24.1-2.2.3q-1.3-.1-2-.6-.55-.4-.4-3.25.1-2.3.4-3.6.45-1.9 3.05-7.05 3-5.9 5.6-9.3 23.2-31.25 27.65-36.6l23.45 9.05z"/><path fill="#31363b" d="m27.75 167.5 19.3-4.8 52.9-46.65 8.25 1.7L94 180.6l-26.45 17.9-25.3-1.4z"/><path fill="#fff" d="m66.7 160.9 5.25-13.65 15.95-5.35q1.7 4.9 1.25 10.15-.55 6.2-4.1 9.85-3.45 3.55-9.6 2.6-5-.75-8.75-3.6"/><path fill="#318098" d="M138.7 88.6q18.2-16.7 18.6-16.4.25.15-8.35 20.1Q139.6 114 138 120.15q17.55-13 18-12.35.25.35-6.85 12.4-8.05 15.1-11.6 28.85l-15.2-16.5-8.95-20.7z"/><path fill="#318098" d="m236.95 19.55 5.45-.35q3.05 0 2.95.35l-6.4 3.9q-6.9 4.05-8.7 5.65-3.35 3.15-6.25 6.5-5.15 6.05-5.35 9.2-.45 7.4-1.1 29.5-.7 23.9-.35 25.05l4.7 8.6q4.2 7.5 4 8.55-.25 1.6-5 8.95-5 7.65-6.6 7.85l-15 1.1q-8.8.2-10.25-.8l-8.95-6.5q-8.1-5.55-11.35-6.25-3.55-.8-12.25 3.55-7.3 3.7-12.4 7.75l8.75-18.65q1.6-2 4.8-4 3.3-2.05 4.15-1.45.8.6 2.7 1.3l6 1.9q3.55 1.15 8.4 1.7l5.5.35q1.1 0 2.2-1.45l1.3-2.35q.45-.8-1-7.15l-4.5-17.8q-3.45-13-4.3-17.4-1.15-6.05-.35-9.3.85-3.5 12.6-18.25 11.7-14.75 17.6-19.75 7.8-6.7 44.4-19.15z"/><path fill="#318098" d="M260.85 36.95q.95-1.95 7.9-5.7 6.7-3.55 7.25-3.2l-3.9 7.15q-4.1 7.5-4.1 9.15 0 1.45.95 4.25.9 2.6.8 3.1-.2 1.2-2.5 5.25l4.9-3.6q4.95-3.55 5.2-3.2l-4.25 9.95q-4.65 10.55-5.1 14.7-.3 2.95-.3 25.05.05 20.3-.65 21.75-1.25 2.6-7.15 7.05l-13.25 9.65q-3.65 2.7-7.2 9.25L235.2 155q-2.5 2.5-20.65 9.3-20.05 7.6-27.3 6.6-5.5-.75-11.9-6.3-4.35-3.75-6.55-6.9-1.8-2.6-8.15-5.1-9.25-3.65-22.7-3.8l.95-5.45q4.7-2.5 9.35-4.45 5.75-2.35 7.15-1.95 1.35.35 6.2 5l5.85 5.85q1.3 1.3 2.95 1.8l5.6.95q3.65.4 11.15-.05l8.65-.95q3.35-.95 9.65-6.85 9-8.45 13.45-19.75 4.05-10.25 7.2-28.3 3.15-18.1 3.85-19.85 1.55-3.95 10.6-12.25l10.75-9.5q2.95-2.9 9.55-16.1"/><path fill="#318098" d="M32.9 172.75q1.4 2.3 8.5 18.6 7.25 16.65 9.2 22.2 3.55 4.7 6.35 9.65l12.4-16.8q12.7-16.7 14.4-16.4.45.1-1.3 8.45-2.1 9.7-2.2 12.75 2.55-5.85 6.95-14.55 8.75-17.4 17.8-31.75 9.45-15.05 18.85-26.3 8.4-10.05 10-9.55.5.2-.15 4.65l-1.55 10.35q17.45 16.15 47.8 50.8 25.95 29.6 27.4 32.2 1.3 2.4 2 5.1.8 2.85.35 4.15-.45 1.35-4.65 1.9l-8.4-.45q-3.4-.75-54.75-24.45-2.6 7.8-8.95 15.9-4.1 5.35-17.2 20.55-10.1 12.15-25.85 41.6l8.9-6.75q8.9-6.75 9-6.6l-5.3 9.1-5.35 9.1 15.7-4.05q15.55-4.15 15.6-3.95 0 .2-10.6 8.85l-10.5 8.7 6.65-.4 6.6-.45q.15.25-7.35 4.35 4.65 2.1 4.6 2.4L91 323q-28.8 12-34.45 14.65-7.55 3.5-11.6 4.4-4 .95-6.2-.35-2.25-1.25-3.4-6.3-1.4-5.9-1.85-18.55-.35-10.3 3.45-34.9 4.35-28.1 11.3-54.1.95-3.55-4.2-14.8-5.25-10.5-5.15-10.6.15-.15 1.75.95 1.95 1.4 4.3 3.7-2.45-5.6-10.1-20.35-7.3-14.1-8.9-16.5l3.95.25z"/><path fill="#ef858c" d="M114.55 34.4q10.35 4.95 15.3 16.85 3 7.15 2.6 18.6-.35 9.45-2.55 17.15-2.3 8.15-5.6 13.7-3.5 5.95-7.3 7.4 2 3.35 6.4 12.65 4.55 9.7 5.3 12.35-4.3 4.5-10.5 12.9-6.6 8.9-13.25 19.5-9.05 14.35-17.7 31.3-4.3 8.5-6.85 14.1.1-3.1 2.1-12.65 1.7-8.15 1.25-8.25-1.7-.3-14.4 16.4l-12.4 16.8q-3.1-5.45-6.6-9.95-2.3-6.75-8.15-20.25l-.85-.2q-9.8-2.65-8.05-8.95 1.05-3.65 5.3-5.15 3.45-1.2 8.1-.8 3.2.25 9 2.8 5.9 2.6 9.2 5.25 11.35-8.05 14.6-11.65 2.05-2.2 7.5 1.05 2.7 1.65 5 3.75-.3-7.75-1.45-11.35 1.8-3.25 3.25-7.9 2.9-9.25 1.2-15.95l3.3-7.8q3.5-8.8 4.45-13.65-5.4 7.55-11.9 15.5-7.9 9.65-12.55 13.7-7.6 6.65-15.45 11.6-11.6 7.3-20.6 8.7-9.25 1.4-14.5-1.05-4.05-1.95-4.85-5.55-1.2 0-4.05-1.85-4.15-2.65-7.3-7.35-9.7-14.45-5.95-42.05 3.75-27.55 18.6-46.05 14.15-17.6 35.3-28 16.9-8.35 30.75-9.2 14.8-.95 24.3 3.55"/><path fill="#31363b" d="M42.45 70q3.15-3.7 2.1.65-1.9 7.7-3 15.45-1.55 11.45-.95 20.7 8.75 5.2 8.45 5.8l-5.35 3.65q-5.45 3.55-6.25 4.35-1.1 3.8-2.45 16.25-1.15 10.55-1.85 10.55-1.3 0-4.3-13.35L25.7 118.9l-3.55-2.7q-3.55-2.75-3.55-3.05l4.4-4.05 4.35-3.75q.2-2.15.9-5.5 1.45-6.7 4.15-12.75 4.85-11 10.05-17.1"/><path fill="#6dbb5a" d="M35.8 55.9q-6.85 6.55-14 20.55-10.95 21.3-12.6 44.3-1.25 17.65 3.35 30.65 2.8 7.8 7.15 12.65-7.1-4-11.1-13.25-6.05-14-3-36.7 3.75-27.55 18.6-46.05 5.25-6.5 11.6-12.15m70.15-7q-9.85 6.2-18.1 21.5-8.7 16.05-9.6 36.6-.95 21.45 7.2 37.35-4.25 4.85-7.15 7.3-5.05 4.45-10.2 8.05-6-11-8.05-22.15-2.8-14.8.35-32.8 3.65-20.9 11.4-35.65 7.25-13.65 18.75-23.25 7.95-6.6 16.7-8.7 7.95-1.85 12.75.6 6.3 5 9.85 13.5 2.15 5.1 2.55 12.8-1.1-7.5-4.4-12.5-3.1-4.8-7.3-5.9-6.8-1.8-14.75 3.25"/><path fill="#20657a" d="m97.6 296.05 30.4-7.25-20.05 16.5 11.95-.55.1.7-6.15 3.65 4.05 2.5-48.2 21.05q-6.65 3.15-13.8 6-14.25 5.75-16.65 4.35-3.55-2.1-5.5-14.95-2.25-15.1.95-32.25 0 7.25 6.95 9.6 13.35 4.5 47.9-12.05l2.75-4.45 14.4-9.8zm44.45-82.45q.85.7-4.35 9.05l-5.35 8.2q.7-9.95-4.55-18.55-3.55-5.85-7.45-8.4 20.7 8.85 21.7 9.7"/><path fill="#20657a" d="M116.7 198.45q.15-1.25 2.3-.7 1.6.4 5.25 2.25l73.65 35.15q1.35.65 6.15.9 4.2.2 5.55 0 1.2.55-1.8 1.55l-3.25.85q-5.8.25-8.4-.8l-75.8-33.75-1.95-2.05q-1.9-2.25-1.7-3.4M47.9 222.5l.25 2.35-.25 4.95Q10 252.05 6.85 253.35q-1.95.8-3.4.35l-1.05-.6z"/><path fill="#cf737b" d="M33.55 183.65q.15 1.45 4.05 3.45 4.9 2.55 12.15 3.55 7.5 1 9.65 2.55 2 1.45-1.55 1.65l-9.05-.35q-6.45-.7-9.85-2.3-5.05-2.1-5.75-5.55-.2-1.05.05-2.15zm-10.85-21.4.95 1.05q1.3 1.25 3.1 2.2 5.85 3.05 14.85 2.15 7.75-.75 17.2-4.45 8.95-3.5 16.15-8.3l-11.55 8.5q-13.15 8.55-21.3 9-10.3.55-14.95-1.6-5.15-2.45-4.45-8.55m83.35-62.05-.55-6.3q.4 2.45 2.35 5.2 2.8 4.05 6.35 4.2t7.6-2.45q3.45-2.3 4.95-4.9-1.35 3.3-3.75 6.55-4.8 6.45-10 6t-6.95-8.3"/><path fill="#20657a" d="m156.4 137-3.65 3.95q-3.9 4.65-5.45 8.35l-8.9-.5-.5-1.45 1.25-3.7 7.05-3.4q7.25-3.45 8.5-3.75l1.6.05zm4.45-28.65q-.95.9-3.4 9.3l-2.25 8.2-10.4 5.7 3.8-8.55q4.15-8.95 5.85-10.95t4.2-3.05z"/><path fill="#0f141b" d="M75.55 165.6q-6.15-.85-9.25-4.1-.2-.2.2-.8.4-.55.65-.35 3.5 2.65 8.3 3.45 5.9.95 9.1-2.35 3.45-3.6 3.9-9.8.35-5.1-1.25-9.5-.05-.3.7-.65l.9-.05q1.85 5.25 1.35 11-.55 6.6-4.2 10.35-3.6 3.7-10.4 2.8"/><path fill="#0f141b" d="M80.25 149.55q1.05 2.05 1.45 4.6.4 2.65-.35 2.9-.7.2-2.05-1.6-1.2-1.65-1.9-3.35zM89.9 28.6q15.8-1 26.35 4.4 10.5 5.45 15.4 17.15 3.1 7.4 2.6 19.35-.45 9.7-2.7 17.65-2.85 10-7.75 16.5-5.55 7.4-11.05 5.95-5-1.35-7.2-6.45-2.3-5.3-1.15-13.65.4-2.75 1.95-6.65 2.2-5.4 5.1-7.6 1.05-.8 2.5-1.15l2.6-.15q1.5.25 2.7 1.4 1.2 1.1 1.8 2.75 1.35 3.65-.1 9.05-1.35 4.95-3.95 7.95-.9 1-1.25.75-.35-.2.35-1.35 2.2-3.3 3.15-7.8 1-4.8-.2-8.05-.95-2.4-3-2.7-1.7-.3-3.4.95-2.4 1.85-4.25 6.6-1.4 3.65-1.75 6.4-.75 5.95.3 10.2 1.5 6.1 6.5 7.4 4.1 1.1 8.35-4.55t7.25-16.2q2.15-7.35 2.5-16.7.45-11.4-2.5-18.5-4.6-11.15-14.1-16-9.45-4.8-24.65-3.85-13.85.85-30.75 9.3-20.85 10.4-34.7 27.6-14.7 18.35-18.4 45.6-2.25 16.4.35 28.35 1.95 9.05 6.55 14.95 2.6 3.35 5.85 5.4 2.2 1.4 3.3 1.55.35.05.3.85 0 .85-.35.85-1.1 0-3.7-1.4-3.55-1.9-6.25-5-5.35-6.15-7.85-16.2-3.3-13.15-.9-30.75Q7.55 85 22.5 66.35q14.1-17.5 35.7-28.15 17.6-8.75 31.7-9.6"/><path fill="#0f141b" d="M23.05 158.1q.9-1.15 2.6-2.05 2.05-1.1 4.4-1.25 7.6-.5 12.75 4.2.85.8.7 1.15-.15.4-1.25-.25-2.9-1.65-5.3-2.3l-6.9-.6q-3.35.15-5.15 2.55-.9 1.15-1.2 2.7-.35 1.5 0 2.95.8 3.45 5 5.15 5 2.05 13.4.75 14.4-2.2 35.65-20.7 4.65-4.05 11.95-12.65 6.5-7.65 11.4-14.45 1.1-1.5 1.7-1.2.55.25.35 1.6-.8 5.5-3.8 12.75l-3.45 7.6q2.05 6.8-.6 15.15-1.2 3.85-3.85 8.65 1.1 3.75 1.4 11.2v.05q0 1.05-.5 1.05l-.8-.5q-2.85-2.4-5.55-3.85-4.1-2.15-5.6-.6-2.9 3-9.1 7.4l-5.9 4.05-1.05-.05q-3.35-2.7-8.9-5.15-5.5-2.45-8.8-2.7l-6.6.45q-4.85 1.15-5.9 4.9-.6 2.1.3 3.75 1.55 2.65 7.1 4.1 6.2 1.75 14.9 2.3 1.95.15 2 .55.1.45-1.85.55-8.55.5-15.55-1.3-6.45-1.75-8.35-5.1-1.4-2.5-.65-5.3 1.35-4.85 7-6.5 3.65-1.05 7.95-.6 3.95.35 9.15 2.85 5.15 2.4 8.75 5.5l7.1-5.45 6.9-5.7q2.05-2.1 6.35-.2 3.4 1.55 6.1 4.3l-.55-4.95-1.05-4.85q-.15-.3.05-.7 1.25-2.35 2.5-5.8 2.45-6.8 2.45-12.45 0-2.75-.55-5-.1-.25.05-.55 4.75-10.35 7-17.85-5.55 8-11.4 15.25-6.55 8.1-10.8 11.8-21.35 18.45-36.4 20.75-10.8 1.65-16.75-2.15-3.8-2.4-4.6-5.8-.4-1.8.15-3.9.45-2 1.6-3.55m101.75-37.6q3.8 8.65 4.7 11.9.1.35-.7.9-.75.6-.85.25-.65-2.55-5.25-12.25-4.35-9.25-6.35-12.7-.2-.3.8-.9t1.2-.3q2.4 3.9 6.45 13.1"/><path fill="#0f141b" d="M38.4 191.9q5.55 10.9 7.55 15.5.15.3-.65.25l-.9-.35-3.6-6.8-5.25-9.5zm-6-6.8-5.6-10.7-3.1-5.75 1.3.25q1.45.55 1.65.85 1.3 2 7.1 13.15zm3-4.8-3.75-7.75q-.2-.25.75-.35l1.1.2 3.35 6.7zm8.05 13.4q5.9 13.55 7.85 19.75.05.3-.85-.2l-1.05-.8q-1.75-5.1-8.1-19.2z"/><path fill="#0f141b" d="m131.9 129.1 2.3-1.4q.7 0 .55 2.55l-.85 7.65q-.85 5.4-2.15 21.85-.15 2.1-.75 2.1-.55-.05-.6-2.15-.1-9.6 1.35-20.1l1.5-9.45q-2.5 1.55-9.45 10.65-7.85 10.35-17.05 24.9-6.65 10.5-14.55 25.05L82 209.8q-1.55 2.9-2.6 2.3-1-.5-.55-3.25.8-4.6 2-9.5l1.45-5.15.8-3.15q-.3-.2-5.35 6.1-7.35 9.1-20.1 26.55-.75 1.05-1.45-.1-4.15-7.25-9-12.95-3.7-4.3-6.75-6.7 3.75 6.75 6.1 12.6 2.7 6.65 2.7 10l-.2 1.5q-6.9 25.85-10.95 50.75-3.95 24.15-3.75 38.05.35 21.55 4.8 24.1l5.9.15q3.75-.95 11.15-4.25 11.1-5 37.25-15.8l22.7-9.5q0-.15-1.05-.55l-2.2-1-.9-.75.85-.75 5.4-2.9-4.8.4-5.5.65q-1.9 0-1.85-.7.05-.5 1.2-1.6l10.05-7.8 9.1-7.15q-.1-.1-13.55 3.55l-14.7 3.9-1.7-.2q-.25-.35.35-1.45l5.1-8.55 3.45-6.1q-.1-.1-5.85 4.35L90.4 292q-.25.25-.2-1.2.1-1.4.35-1.65 11.65-8.95 15.05-11 3.9-2.4 1.8 2.05l-7.5 14.05 26.9-6.65q2.25-.5 2.3.55.05.9-1.4 2.2l-17.3 14.2 8.5-.45q2.25-.15 2.4.7.1.8-1.9 2l-4.3 2.4 2.7 1.35q1.2.7 1.2 1.2.05.55-1.2 1.15-52.95 23.95-60.45 27.15-14.25 6.1-19.5 3-5.7-3.25-6.5-26.1-.4-11.75 2.8-32.85 4.05-26.7 12.5-56.5.75-2.7-2.3-10.8-2.15-5.75-5-11.45-1.95-3.9-.8-3.9.65 0 3.05 1.65 8.55 5.7 15.5 17.5l11.35-15.1q8.65-11 13.25-15.5 3.65-3.55 2.9 1.3l-1.75 8.05-2.05 9q11.5-24.95 23.45-43.9 7.3-11.55 15.25-21.85 8.3-10.65 12.4-13.5"/><path fill="#0f141b" d="M154.2 73q2.75-1.85 3.4-1.4.7.4-.45 3.65l-8.2 20-9.85 23.2q9.25-7.2 14.1-10.25 2.85-1.75 3.4-.75.45.85-.75 3.35l-7.75 15.45q-5.3 10.9-9.75 23.15-.15.45-2.15-1.1 6.25-18.45 18.55-38.95l-13.8 10.3q-6.35 4.95-3.45-2.75 2.9-7.55 10.5-25l7.6-17.45-17.45 15.7L124 103.1q-.25.25.6-2.55.85-2.85 1.1-3.05l12.9-11.35Q152 74.5 154.2 73M36.8 191.7q.2-.25 1 .95t.65 1.35q-3.3 3.95-20.6 27.2l-7.05 9.35q-2.6 3.45-5.55 9.3-2.5 5.05-2.9 6.75-.3 1-.45 3.1-.25 2.5.15 2.85.45.4 1.5.5l1.75-.25 41.8-24.05q.3-.2.35 1.25 0 1.45-.3 1.65-2.45 1.75-40.9 22.8l-2.7.3q-1.55-.2-2.5-.8-1.8-1.2-.45-8.15.35-1.65 3.1-7.2 3.2-6.55 5.8-9.95l7-9.35 11.75-16.15Q35 193.8 36.8 191.7"/><path fill="#0f141b" d="M132.1 145.3q-.25-.2.1-1.95.4-1.75.65-1.5 17.55 16.2 47.7 51.15 25.85 29.85 27.55 32.95 1.35 2.5 2.1 5.7.85 3.4.3 4.9-.65 1.95-5.5 2.8-4.8.9-8.95-.1-3.65-.85-34.35-14.4-32.9-14.55-41.4-19.95-2.75-1.75-2.4-2.45.35-.75 3.25.35l37.9 17.3q35.65 16.35 37.75 16.85l7.9.25q3.5-.55 3.85-1.45.35-1.15-.2-3.55-.55-2.55-1.75-4.7-2.85-4.25-27.25-32.1-29.75-33.9-47.25-50.1m82.3-11.15q-5.55 1.4-13.2 1.8-9.5.45-12.65-1.65l-10.15-7.15q-7.15-4.9-9.85-5.5-2.9-.65-10.5 3.55-9.1 5.45-13.45 7.6-.3.2-.8-.45t-.25-.85q5.05-4 12.3-7.7 9.2-4.75 13.1-3.8 4 1 11.9 6.6l8.7 6.3 9.7.65 14.95-1.1zm30.3-113.1q-12 7-13.85 8.7-3.05 2.7-6.4 6.65-4.8 5.7-4.95 8.45-.45 7.45-1.1 29.45-.7 23.25-.4 24.8l1.9 3.25 3.65 6.45-.7 2.85-6.45-12.05q-.85-3.85-.35-24.7.55-20.9 1.75-30.15.7-5.15 6.35-11.35 2.8-3.15 5.6-5.3 1.4-1.25 7.15-4.55 5.5-3.15 7.2-3.75l-7 .6q-1.4.2-1.45-.5-.05-.55.55-1.25l8-9.2 6.75-7.85Q241.3 4.9 229.1 10q-16.35 6.9-20.6 10.5-5.65 4.8-17.35 19.5-11.75 14.7-12.6 18.05-.3 1.35-.3 2.95 0 3.1 1.3 8.85l3.65 14.5 4.55 17.65q1.25 5.25 1.1 6.8-.15 1.4-1.45 3.25-1.55 2.05-3 2.1l-7.9-.7q-8.1-1.3-15.15-4.65-.75-.2-3.55 1.6-2.9 1.85-4.3 3.65-.2.25-.45-.45-.25-.75-.05-1 1.5-2 4.45-3.8 3.25-2 4.85-1.4l7.35 2.6q6.3 1.8 14.75 2.45.75.05 1.8-1.5 1-1.5.95-2.15-.05-1.65-2.5-10.1l-3.95-13.65L176.9 70q-1.45-6.3-1.45-9.55 0-1.95.35-3.35.9-3.6 13.2-18.7 12.35-15.15 18.4-20.05 5.65-4.6 22.65-11.1 12.35-4.7 20.45-6.9 2.45-.7 2.65 0 .1.55-1.15 2.15l-13.05 16 5-.15q2.25.2 2.35.95.05.7-1.6 1.75"/><path fill="#0f141b" d="m255.4 45.05 4.5-8.8q.95-1.85 6.55-4.85 4.1-2.2 8-3.8l2.5-.05-.75 1.95-3.75 7q-3.6 6.8-3.6 7.85 0 .8.9 3.9l.9 3.3-1.8 3.4q5.3-4.15 6.85-5 1.8-1.05 2.3-.65.45.35-.25 2.3l-5.05 12.25q-3.6 8.85-3.85 11.05-.3 2.6-.3 21.35l-.1 17.9q-.15 6.8-.65 7.8-.95 2.05-10.9 9.75l-9.75 7.3q-2.5 1.9-4.95 5.65-1.35 2-3.6 6.3-1.95 3.8-2.8 4.65-3.2 3.2-19.45 9.65-19.15 7.6-29.2 6.5-5.75-.6-11.75-5.4-4.1-3.2-7.9-7.95-2.15-2.6-7.7-4.95-8.9-3.7-21.85-3.8-.35 0-.35-.85t.35-.85q13.3.15 22.8 3.9 6.2 2.5 8.75 5.4 4.25 4.75 6.7 6.85 6.05 5.25 11.15 5.95 7.1 1 27.05-6.6 17.95-6.8 20.2-9.05l1.15-1.95 1.4-2.85q2.4-4.6 3.75-6.75 2.5-4.05 4.75-5.9l11.45-8.3q8.9-6.45 9.2-7.4.45-1.6-.15-30.45 0-13.5.3-16.05.35-2.9 5.35-13.5L277 50.6l-5 3.75-4.25 3.3Q266 58.8 266.7 57l2.2-5.45-.9-3.15q-.9-3.05-.85-4.05.1-2.1 3.9-8.7 3.35-5.9 4.45-7.05-3.45 1.55-8 4.25-5.25 3.2-5.9 4.5-6.35 12.6-9.7 16.3L241 63.8q-9.1 8.5-10.25 11.3-.5 1.3-.95 5.5l-1 8.35q-1.75 10.8-3.15 17.05-2.3 10.55-5.2 17.9-4.55 11.55-14.2 19.85-6.35 5.45-10.2 6.6l-8.7 1.25-11.15.3q-3.75-.4-5.9-1.3-1.7-.7-3.45-2.2l-6.2-5.9q-4.8-4.55-5.45-4.75-1.1-.3-6.2 1.75-4.85 2-9.7 4.6-.3.15-.4-.55-.1-.65.25-.85l7.1-3.95q7.4-3.75 9.45-3.2 1.2.3 6.45 5.55l5.9 6.1q.95 1 2.5 1.5l5.55 1q3.6.4 11.05-.1l8.4-.85q3.15-.95 9.35-6.75 8.85-8.35 13.2-19.35 2.85-7.2 5.15-17.65l3.1-16.95 1.25-8.2q.6-4 1.15-5.5 1.8-4.55 11.25-12.95 4.85-4.3 10.7-8.95 1.4-1.3 4.7-7.4M43.95 70.5l.15-1.25q-.15-.05-1.1 1-4.9 5.7-9.95 17.1Q30.4 93.25 29 99.9q-.7 3.3-.9 5.5l-.25.45-8.25 6.95-.3.4.25.35 6.2 4.55.55.5.2.75q4.85 23.2 6 26.65.3.9.5.95.25.1.4-1l.9-9.4q1.25-11.65 2.3-15.65.2-.75.8-1.2 1.35-1.05 4.95-3.4l5.5-3.45.55-.4-.55-.4-7.6-4.6q-.35-.25-.35-.6l-.2-5.45q0-13.9 4.25-30.9m-2.05-.95q2-2.3 3-1.85.7.4.15 3.15-3.55 17-3.55 30.15l.1 5.2q6.1 3.65 7.6 5.3.8.8.7 1.15l-.8.8-4.6 3.15q-4.45 3.1-6.15 4.55-1.5 5.4-2.6 15.55l-1.25 9.4q-.45 1.95-1.35 2.1-.95.15-1.8-1.9Q30 143 27.3 131.05l-2.55-11.55q-5.05-3.8-6.35-5.25l-.65-1q0-.35.65-1.15 1.55-1.9 8.05-7.4.95-9 4.85-17.8 4.5-10.15 10.6-17.35"/><path fill="#0f141b" d="M38.15 53q.25-.2.65.4.4.55.15.75-8.15 6-16.55 23.2-10.25 20.85-11.85 43.3-1.3 18.2 3.25 31.25 2.9 8.2 7.15 12.45l-.85.1q-1.1-.15-1.45-.55-4.6-5.4-7.3-13.8-4.05-12.65-2.85-29.4 1.65-22.65 12.45-44.05Q29.7 59.25 38.15 53m67-4.85q8.45-5.4 15.75-3.45 4.5 1.25 7.6 6 3.05 4.7 4.15 11.9l-.45.5-.55-.15q-.95-6.65-4-11.15-2.95-4.35-7.15-5.45-6.75-1.8-14.55 3.45-9.2 6.2-17.2 20.95Q80 87 79 106.8q-1 20.4 6.7 36.8.1.25-.6.8t-.8.3Q76.15 128.25 77 107q.85-20.75 9.8-37.3 8.2-15.15 18.35-21.55"/><path fill="#0f141b" d="M89.75 44.85q7.9-6.55 16.9-8.55 8-1.8 13.1.6.25.1-.05.75l-.55.55q-4.6-2.15-12.2-.2Q98.6 40.15 91 46.4q-11.8 9.85-19.15 24.1-7.3 14.3-10.75 34.35-3.2 18.25-.4 32.8 2 10.55 7.8 21.25l-.45.6-.8.05Q60.9 149 58.7 137.85q-3-14.75.25-33.45 3.5-20.25 11.15-34.95 7.55-14.6 19.65-24.6m25.35 195.7q2.15-1.1 2.55-.5.3.5-.65 2.45-2.8 5.6-5.1 8.55l4.45-2.3-.15.85-.7 1.15-5.2 2.5q-2.35 1.05-.85-1.05l3-4.6 3.65-6.05-12.1 6.65q-7.5 4-10.3 5.3-4.2 1.95-1.85-2.1l4.6-8.1q-7.9 5.4-13.7 8.15Q70.9 257 60.3 256.7q-11.55-.35-17.4-6.65-.2-.2.25-.75.45-.5.7-.3 2.65 2.5 5.6 3.75 4.3 1.8 10.95 2.05 10.25.3 21.85-5.05 4.25-1.95 13.4-7.6 2.65-1.65 2.75-.4.1.65-.45 1.75-2.45 4.85-5.1 9.05zm-23.55 39.4q1.4-1.35 1.9-1.15t.4 1.7q-.2 2.1-1.2 5.95l-2.15 2.35q.95-2.75 1.8-7.65l-8.45 7.6-5.1 4.4q-2 1.7-2.25.85-.2-.7.55-2.2l4.95-9.35Q56.7 297.2 45.6 296.5q-5.65-.35-10.1-5.05-.25-.2.1-.9.35-.65.55-.45 1.65 1.65 3.95 2.85 2.85 1.5 5.55 1.6 7.55.35 22.05-6.25 7.35-3.3 13.5-6.9 1.6-1 2.1-.5.5.45-.25 2.3l-4.55 8.55q8.85-7.65 13.05-11.8M86 298q-.1-.25.85-.85 1-.55 1.05-.25 1.1 2.65 1.1 7.4 0 1.05-.5 1.1-.45 0-.65-1.05-.7-3.45-1.85-6.35m-5.6 10.3v1.1l-.35 1.65q-2.35 3.6-6.3 8.3-3.9 4.65-6.6 7.05-2.75 2.45-2.95 1-.15-.9.5-2.5l3.5-8.85q-2.7 3.1-10.65 8.8-10.45 7.5-16.4 8-2.4.25-4.6-2l-2.6-3.55.45-1.75q3.7 5.75 6.65 5.5 8.9-.8 25.85-15.75 2.05-1.8 2.75-1.6.8.2-.15 2.85-1.6 4.85-3.6 9.2 2.45-2.25 7-7.7 4.9-5.85 7.5-9.75M34.1 197.35q.25-1.25.9-1.55t.3 1.6q-.9 5-.9 21.45l3.85-5.9q1.2-1.75 1.75-1.75.6-.05.8 2.15l.2 8.25q.2 7.8.6 11.85l-.75.75-.75.1q-1.05-12.4-.55-20.8l-3.95 5.75q-1.55 2.1-2.05 1.7-.35-.25-.5-2.6-.7-11.3 1.05-21M13.6 224.9q.25-.95.85-1.05.55-.05.3.9-.45 1.85-.8 7.6-.3 4.7-.3 7.3l2.75-6.25q.9-2 1.7-1.9.75.05.8 2.1l.1 4.8q.2 4.95.85 7.05.1.25-.6.5l-.75-.1q-.85-4.05-.95-8.6l.1-3.8-2.85 6.65q-1 2-1.65 1.95-.7-.1-.75-2.55 0-10.15 1.2-14.6m144.3-54 .85.3q.9.4.95.6 1.8 4.95 3.35 13.8 1.55 9.2 1.65 16.15.05 2.85-1 2.4l-1.4-1.35-2.65-2.9q1.65 5.05 2.45 9.3 1.3 6.7 1.1 13.8-1.5.05-1.55-.35-.15-10.25-3.15-22.15-.85-3.4.65-2.75.75.3 1.5 1.15l2.6 2.85q-.2-4.9-2.2-16.25-1.9-10.7-3.15-14.6m33.7 38.2q-.05-.05.8-.35.9-.25.95 0l1 6.45q.7 5.55.7 9.05 0 2.25-.6 2.5-.55.2-1.8-1.2l-6-7.05q1.1 5.5 1.7 15.5l-.85-.05q-.9-.35-.85-.65l-.45-7.05-.95-7.5q-.35-2.7.45-2.75.6 0 2.05 1.6l5.9 6.95-.85-7.9q-.7-5.55-1.2-7.55"/><path fill="#0f141b" d="M126.9 235.6q12.25-15.35 14.3-22.8l2.05 1.2q-2.45 9-13.5 22.8l-13 16.05q-7.55 9.6-13.75 20.05-6.7 11.25-14.4 24.95-7.7 13.6-10.85 19.7-1.2 2.35-1.9 2.2-.75-.2.2-2.55 2.4-5.95 9.75-19.95 7.55-14.4 14.3-25.8 6.15-10.4 13.7-19.95z"/></svg>