<svg xmlns="http://www.w3.org/2000/svg" width="176" height="287" viewBox="-1.05 -0.25 175.9 287.2"><path fill="#5c94bf" d="M104.85 258.65q-18.35 2.5-31.7-2.05-1.35 3-2.6 8.55-1.2 5.45-1.4 9.4-.1 1.85-.95 2.8-.7.8-2.25 1.3-6.35 1.85-17.7 2.6-11.7.7-12-1.1-.15-.8.85-2.05.85-1.15 1.95-1.85 2.5-1.6 2.05-4.2-1-5.8-1.5-20.3-.45-15.6.4-22.65l93.95-46.9q8.1 2.15 15.7 7.6 7.65 5.45 10.65 11.45 5.3 10.45 8.4 31.75 2.9 19.95 2.3 36.8-.1 1.8-.8 2.75-.75 1.05-2.7 1.8-5.25 2.1-17.05 2.55-11.65.45-12.3-1.15-.35-.9.7-2.4.8-1.3 2.15-2.5 1.1-1 1.4-2.05.25-.9.15-2.4-.3-3.35-2.1-10.2-1.65-6.25-3.15-9.9-12.65 9.65-32.45 12.35"/><path fill="#60615f" d="M77.2 54.95q9.6 4.3 13.6 7.5 6.25 5 12.2 14.25 6.6 10.3 9.25 20.6 2.95 11.45-4.4 28.8-7.75 18.2-20.2 25.65-1.65 1-2.1 2.15-.45 1.1-.05 2.95l1.6 6.5q4.05-3.85 7.5-5.5-.5 1.45-.7 3.35l-.15 3.2q2.8-3.05 8.6-6.75-.2 2.2.25 5.55 4.95-1.65 14.8-4.15l14.5-3.55q-1.35 2.75-3.25 8.6-1.7 5.05-2.85 9.45l6.7-.75q3.6-.2 5.7-.1-1.3 1.95-3.1 6.3-1.45 3.55-2.6 6.95 4.4 1.2 9.85 4.05 4.4 2.3 6.85 4.1-6.15 3.7-23.55 16.35l4.7 3.15q-1.7.6-3.7 2.15l2.5 3.2 2.1 3.25q-5.05-.25-8.85.8 1.15 1.35 2.7 4.2 1.25 2.35 2.1 4.5l-6.7-1.1q2.3 3.25 3.65 7.45-1.75-1.3-4.6-2.2l-4.65-1.05q-.05 3.2-1.1 7.1-3.15-1.55-8.6-3.6-1.15 1.5-2.6 4.9-1.4 3.25-1.9 5.4-3.15-3.6-15.3-15.35-1.15 3.6-3.65 8.7-2.4 4.85-4.75 8.4-2.3-.6-4.7-1.95-2.6-1.45-4.5-3.3l-2.1 3.4q-2.4-2.6-4.8-7.4-2.6 1.9-5.65 5.75-1.6-2.55-3.65-8.75-2.25-6.5-3.05-11.25-4.55 1.65-12.2 2.75l-11.3.9q1.4-2.2 2.85-5.4 1.45-3.15 2.25-5.9-1.85-.65-3.7-.65 1.05-1.6 3.95-4.85-1.3-1.6-4.15-3.2 1.65-1.65 4.8-3.45 2.95-1.7 6.5-3-2.15-2.4-5.75-5.1-3.55-2.65-7.5-4.85 2.55-2.05 6.8-4 3.9-1.85 7.8-2.9-2.25-4.65-8.75-10.35 3.1-.95 7.8-1.1l7.55.4q-1.55-3.95-1.8-6 4.3 1.05 8.35 3.75-.85-3.1-2-9.65-.4-2-1.6-3-1-.8-3.3-1.25-13.7-2.4-26.1-12Q5.95 137.75 2 125q-2.25-7.3-.15-23.75Q3.8 86.15 6.9 79.6q2.4-5.05 12.5-13.95 7.3-6.45 15.05-12-.5-7.25-.75-26.45-.3-18.55-.1-24.2.05-1.45.65-1.65.5-.1 1.05.9Q38.95 9.1 46.75 25.1L57.2 46.8q.85 1.8 1.85 2.55 1.2.9 3.45.95 4.5.15 14.7 4.65"/><path fill="#5c94bf" d="M47.2 128.15q-2.15-2.9-5.1-9.15-2.55-5.35-4.05-9.75 4.05 5.2 12.5 10.3 8.35 4.9 12 4.5 3-.3 8.55-6.7 6.25-7.1 8.75-14.8 1.95 10.35 2 19.35 9.4-3.1 13.3-11.7.75 4.55-1.15 9.8-2.2 6.4-7.35 10.9 2.8 1.6 6.9 1.5-.9 2.9-4.55 7.85l-5.4 6.6 4-1.1q-2.95 4.85-8.55 9.25-6 4.8-10.9 5.6-4.75.75-13.15-1.55-8.5-2.4-12-5.5l2.95-.35q-3.25-1.6-7.05-5.05-3.65-3.2-5.5-6 2.55-1.3 5.75-4.4-5.7-1.1-11.25-7.65-4.85-5.85-7.1-12.75 4.15 4.5 11.95 7.55 7.35 2.9 14.45 3.25"/><path fill="#913000" d="M85.15 133.15q-.7 5.45-3.35 9.3-.3-1.2-1.15-2.3l-1.65-1.9q4.7-3.45 6.15-5.1m-37.55 9q-.15 1.9.25 5.65-2.05-1.25-4.4-3.95-2.25-2.5-2.95-4.15 3.65 1.75 7.1 2.45"/><path fill="#5c94bf" d="M159.7 173.2q-.85 2.35-.9 4.4 3.75-2.9 7.2-3.9-2.15 4.95-2.15 10.15 1.9-2 5.3-3.3-1 1.7-1.65 4.75 2.05-1.3 5.65-1.8-2.8 3.5-6.55 9.3-4 6.15-5.6 9.5-2.35-4.55-7.25-9.15-5.15-4.85-10.1-6.95 2.6-4.65 7.45-9.2 4.7-4.4 10.4-7.6-1.1 1.7-1.8 3.8"/><path fill="#ec869b" d="M47.6 142.15q9.5 2.95 18.3 3.9 2.2-.7 6.5-3.35 3.85-2.45 6.45-4.55l1.8 1.95 1.25 2q-1.65 3.5-5.6 7.65-4.85 5-8.85 5.75-3.15.6-9.8-2.25-5.8-2.5-9.8-5.45z"/><path fill="#b80059" d="M53.3 204.9q.4 2.25-.5 5.5-.9 3.05-1.95 4.05-.9.85-3.3.9-2.35 0-2.85-.7-1.35-1.65.1-7.75 1.5-6.1 2.95-6.4 1.4-.25 3.4 1.4 1.95 1.6 2.15 3m34.2 8.45q1.95-1.75 5.45 1.2 3.4 2.8 2.9 4.75-.3.9-3 1.5-2.65.55-3.65 0-.95-.55-1.8-3.5-.85-3.15.1-3.95m22.5-13.7 5.95.2q3.35.65 3.9 1.55 1.45 2.55-1.5 8.95-2.9 6.2-4.9 6.4-1.75.15-6.95-5.45-5.15-5.5-5-7.1.05-1.15 3.05-2.6 2.65-1.35 5.45-1.95m-11.7-25.2q.3-.95 4-2.35 3.7-1.35 4.55-.95.95.45 1.7 3.45.75 2.95.1 3.45l-4.5.35-4.55-.45q-.55-.35-1-1.5-.5-1.2-.3-2"/><path fill="#4a4c4b" d="M27.05 146.45q6.75 1.05 9.9 0 1.5 1.85 3.55 3.35l4.5 3.35-2 .45q5.05 3.8 13.85 5.85 7.45 1.7 12 1.2 3.7-.45 9.75-5.25t9-9.55l-3.2.4 3.35-4.25 2.55-3.9q4.6.1 7.8-1.35 3.8-1.8 8.1-6.7-4.15 7.45-6.25 10.1-3.65 4.8-11.55 11.35-2 1.65-2.45 2.3-.75 1.2-.35 3.15.8 4.1 2.25 8.35-.95 4.5-4.95 9-3.95 4.5-9.2 7.1-5.7 2.8-10.85 2.3-5.8-.55-9.7-5.2l-3-14.15q-.45-1.95-1.5-3-1.05-1.1-3.1-1.5-12.2-2.55-20.45-7.6-5.85-3.6-13.7-11.5 7.05 4.35 15.65 5.7"/><path fill="#cc7487" d="m54.25 152-6.55-4.15q-.15-2.9.5-5.45 6.55 2 17.6 3.6 2-.65 6.35-3.1 4.75-2.75 7.15-4.8l1.45 2.05 1.35 1.7-5.3 7.6q-4.1-2.25-11.5-1.35-7.3.85-11.05 3.9"/><path fill="#4a4c4b" d="M122.05 212.8q-1.4-.7-1.65-1.3-.55-1.85 7.25-7.6 9.4-6.9 21.45-10.25l-12.6 8.85q-7.85 5.6-10.6 7.95 2.55 1.65 4.05 3.05-1.75.95-3.25 2.25 3.05 3.5 4.3 6.2l-8.35.9 2.75 4.65q1.5 2.85 1.9 4.25-2.3-.7-6.85-1.25 2.4 3.4 3.65 7.4-4.7-2.85-9.1-3.05-.2 3.85-1.3 7.15-4.15-2.5-8.6-3.65-2.7 4.15-4.25 10.1-9.85-10-15.45-15.15-4.2 10.75-8.5 17.2-5.35-2.05-9.05-5.4l-2.2 3.5q-3.2-3.85-4.65-7.45l-3 2.6q-1.75 1.65-2.75 2.95-1.95-3.05-3.75-8.4-1.95-5.7-2.8-11.5-4.5 1.65-12.15 2.9l-11.75.4q12.05-2.7 22.05-6.8 3.25-1.55 4.5-1.1 1.05.4 1.65 2.85.6 2.4 1.5 4.6l1.6 3.35 2.1-1.9q1.45-1.15 2.65-1.9.5 2 1.65 4.05 1 1.95 2.05 3.1.75-1.4 1.95-2.75 1.3 1.8 3.75 3.55l4.1 2.35q5-5.9 7.85-13 .5-1.15.95-1.25.45-.05 1.45.75 6.75 5.45 13.7 12.65l1.9-3.7q.95-1.65 2.45-3.5 3.45 1.1 7.6 2.95.6-1.9.75-4.4 2.3.15 4.55 1.05-1.35-3.65-3.55-6.05 3.7-.15 6.55.75-2.7-3.95-5.7-5.5 2-.65 4.35-.9 2.3-.25 3.95.05l-1.95-1.7q-1.2-.75-2.5-1.15 1.3-1.1 7.35-2.9z"/><path fill="#4a7a9e" d="m39.5 234.6.55-5.6 8.65-2.2q.1 2.05.75 5.05-1.95 1.15-4.7 1.9-2.85.8-5.25.85m37.65 15.75q1.85-2.25 4.5-7.95l3.75-9.1q3.6 3.1 8.45 7.9l7 7.25q1.2-4.5 4.25-10.1l4.3 1.6q2.75 1.15 4.3 2.05 1.1-3.6 1.15-7.15 1.75.05 4.65 1 2.85.95 4.6 2.05-1.1-3.35-3.6-7.25 3 0 7.55.9.3.65-.75 1.55-1 .95-1.95 1 3.35 2.3 5.1 5.05 6.8-1.9 12.7-4.5 6.25-2.8 9.85-5.65-13.45 22.15-41.9 28.1-11.7 2.45-23.95 1.5-11.25-.8-20.2-4.2-5.65-2.1-7.6-3.15-3.75-1.9-5-4.15 4.4-4.4 6.7-6.1 1.1 3.15 4.75 7.5.75-1.45 2.05-3.4 4.8 4.15 9.3 5.25m22.25 20q.35 3.3.25 7l-4.35.5q-2.75.15-2.95-.6-.2-.95 2.55-3.5 2.55-2.4 4.5-3.4"/><path fill="#4a7a9e" d="M55.55 248.3q3.7 2.6 9 4.95 4.8 2.15 8.85 3.25-1.65 2.95-3 9.05-1.05 4.95-1.4 9.1-.05 1.6-.65 2.4-.6.75-2.1 1.35-4.15 1.6-13.4 2.45-8.85.85-14.2.3-2.15-.25-2.3-1.5-.1-1.3 2.1-2.6-.65 2.1 1.7 2.15l9.3-.75 10.3-1.85q3.7-.95 3.85-3.25.45-8.6 1-10.4.5-1.55.3-2.35-.1-.9-1.15-1.8-4.45-4.1-8.2-10.5m81.75-2.25q4.6-3.05 9.25-8 4.3-4.65 6.85-9.05-.15 3.65-2.65 9.5-2.3 5.4-5.25 9.45-.95 1.35-.5 4 1.35 7.2.7 13.1-.25 1.85-1.05 3.2-.7 1.25-2.4 2.8.7-2.25 0-5.9-.85-4.7-2.25-10.15-1.5-5.95-2.7-8.95m2 26.75q-.15 1.5 1.95 1.5 5.55.15 14.35-1.95 7.85-1.9 10.75-3.5 1.5-.85 3.15-2.95 1.8-2.3 2-3.95-.4 6.75-.9 8.65-.75 2.8-2.95 3.5-6.05 2-14.8 2.75-8.5.65-13.4-.35-1.15-.2-1.4-1.25-.35-1.15 1.25-2.45m25.25-94.85q-.5 1.45-.65 3l-.1 3q.95-1.15 2.65-2.1 1.45-.85 2.85-1.3-1 1.45-1.95 5.05 1.8-1.55 5.75-2.05-1.9 2.05-6.4 9l-6 9.8q-1.05-2.7-3.45-5.6l-4.05-4.45q4.2-6.7 11.35-14.35"/><path fill="#4a4c4b" d="m26.8 210.1 2.85.6q1.4.4 1.9.9.55.45.4 1.2-.05.75-.9 1.5-2.15-2.6-4.25-4.2m.25 8.1q1.95-.85 3.3-.9.7-.05.95.55.25.7-.2 1.5-3.15-1.1-4.05-1.15"/><path fill="#4a7a9e" d="M28.6 131.1q-5.8-8.65-7.55-13.05 6.65 6.25 16.4 8.55-5.55 2.15-8.85 4.5m16.15-6.9q-3.95-7.1-6.6-14.2 8.75 8.1 16.75 11.8-5.45 1.05-10.15 2.4m50.4-13.45-.45 4.55q-.6 4.75-1.3 5.95-3.6-1-7.75-1.4 5.45-3 9.5-9.1M80.1 103q1 5.35 1.85 16.55-6.25-.3-13.4.35 6.1-6.05 11.55-16.9"/><path fill="#0f141b" d="M89.3 62.45q-7.6-5.05-19.85-9.05L58.3 50.05q-.45-.25-9.7-19.2L34.85 2.95l-.3-.4q-.2 0-.2.45-.05 9.8.25 25.6.3 14.85.75 25.45l-.25.45Q25.7 60.95 18 68.05 9.4 75.95 7.2 80.9q-3.3 7.45-4.55 23.3-1.2 15.8.95 22.05 3.9 11.35 15.9 20.6 12 9.3 26.75 12.3 4.2.9 4.85 4.75 2.8 16.1 7.45 32.4.45 1.55-.1 1.7-.5.1-1-1.35-2.6-8-4.95-16.85-2.45-9.4-3.45-15.55-.25-1.55-1-2.2-.7-.65-2.3-1-15.8-2.95-27.95-12.4Q5.6 139.3 1.45 126.9q-2.5-7.65-.9-23.4Q2.1 88.4 5.7 80.2q2.25-5.1 10.55-13 7.65-7.25 16.85-13.55-.4-9.3-.55-24.6-.15-15.45.1-25.95.1-2.95 1.1-3.15t2.4 2.3q4 7.2 14.4 28.1 9.15 18.4 9.45 18.5l9.45 2.35q11.1 3.35 20.65 9.75 6.4 4.3 13.7 15.1 7.8 11.65 9.45 20.8 2.5 13.75-4.65 30.4-7.6 17.65-21.25 26-1.4.8-.9 3.2 2.1 10.2 8.8 28.05.3.75-.2 1-.5.15-.85-.6-7.15-16.2-9.8-28.1-.3-1.6.15-2.95.5-1.45 1.85-2.3 12.8-8 20.15-25.3 6.95-16.3 4.6-29.15-1.55-8.25-8.85-19.7-7.15-11.1-13-14.95"/><path fill="#0f141b" d="M25.6 125.25q6.05 9.7 13.7 11.7 1.45.4.55 1.55-3.5 4.15-9.9 5.65-6.85 1.65-11.6-1.4-1.1-.7-.8-1.1l1.45.1q4.55 2.3 10.1 1 5.05-1.2 8.25-4.45-7.85-2.7-13.7-12.9-5.8-10.2-7.7-24.45-.15-1.4.4-1.45t.75 1.25q2.4 14.65 8.5 24.5"/><path fill="#0f141b" d="M32.5 85.25q1.6 11.05 5.85 22.65 4.05 11.1 9.35 19.75.75 1.35-.75 1.25-7.05-.45-13.2-2.5-8.1-2.75-12.45-7.85l-1.1-3.6q4.1 5.95 12.25 9.1 5.7 2.25 12.9 2.9-5-8.35-8.8-19.55-3.75-11.1-5.2-22-.2-1.15.4-1.2.6-.1.75 1.05"/><path fill="#0f141b" d="M71.95 115q5.9-7.45 7.45-14.15l.65 3.05q-1.7 6.05-7.4 13.15t-9.6 7.95q-3.4.75-10.8-3.15-8.05-4.25-13.2-10.5l-1.4-4.1q3.8 5.8 12.9 11.2 8.75 5.2 12.1 4.4 3.65-.8 9.3-7.85"/><path fill="#0f141b" d="M99.55 86.4q1.55 13.65-3 23.4-4.7 10.05-14.55 12.75-1.15.3-1.15-.8.1-7.8-1.85-19.9-2-12.2-5.2-23.3-.3-1.1.25-1.25t.9.9q3.55 10.95 5.65 22.9 1.95 11.2 2 19.3 8.35-3.2 12.55-12 4.35-8.95 3.25-21.85-.1-1.35.45-1.4t.7 1.25M38.7 137.95q4.7 2.4 15.15 4.9 9.45 2.25 11.8 2.1 2.2-.4 9.6-5.15 7.85-5.15 11.05-8.9l1.55.6q-3.8 4.65-12.1 9.85-7.2 4.5-9.8 4.9-2.15.3-12.2-1.95-10.95-2.45-15.9-4.9z"/><path fill="#0f141b" d="M96.2 108.55q1.4 13-7.95 22.1 3.05 1.25 7.15.95 3.6-.3 7.1-1.6l1.4.05q.2.45-.9 1-3.9 1.9-8.6 2.2-4.75.3-8.15-1.2-1.45-.65-.45-1.65 9-8.4 8.75-19.1zm-38.5 27.1q2.2.4 3.5 1.55.5.5.4.8l-.7.1q-2.25-.9-3.35-1.05-1-.1-.85-.85.15-.7 1-.55m12.85-.7-2.7 2.1q-.5.45-.7.15t.1-.75q1.05-2.05 2.2-2.9.75-.6 1.35.15.55.7-.25 1.25"/><path fill="#0f141b" d="M67.2 154.45q4.45-.6 9.35-6.15 5.25-5.95 7.8-14.25l2.15-2q-2 9.15-8.15 16.5-5.8 6.9-11.05 7.5-5.65.6-14.85-4.4-9.9-5.5-13.45-12.6l2.4 1.05q4.1 6.55 13.5 11.05 8.05 3.85 12.3 3.3"/><path fill="#0f141b" d="M46.75 147.2q-.35-2.1.6-5l1.8.5q-1.05 3.2-.65 5.5zm34.85-4.4q-1.1-2.15-3.15-4.05l.95-1.05q2 1.95 3.05 3.65zm13-10.3q-.85 2.15-3.6 6.15-2.55 3.8-5.15 6.8 2.5-.45 4.85-1.5l1.25.05q.3.5-.75 1-3.75 1.95-7.5 2.65-1.1.2-1.25-.3t.55-1.2q2.55-2.4 5.7-6.85 2.95-4.2 4.15-6.85zm-60.65 9.25q2.75 3.6 5.65 6.1 2.45 2.1 6.65 4.75.8.45.8.95-.05.5-1.1.65l-4.75.25-4.85-.45q-1-.2-.9-.65.1-.5 1.1-.45l6.65-.25q-3.45-2.35-5.65-4.45-2.4-2.2-5-5.65z"/><path fill="#0f141b" d="M68.15 159.6q3.95-.6 9-4.25 5.05-3.7 9.5-9.3l2.5-.7q-4.15 5.95-9.85 10.6-6.15 5-10.9 5.75-4.3.7-13-1.65-9.45-2.55-13.8-6.4l2.4-.2q3.7 2.8 11.7 4.8t12.45 1.35M44.7 171.45q.45 2 1.6 4.65.55 1.3-.75 1.05l-6.7-.5-6.95.6q4.2 4.1 7.85 9.5.6.85-.4 1.1-6.8 1.75-13.3 6.2 6.7 3.85 12.3 9.65l-1.45.6q-4.8-4.8-13-9.35-.55-.3-.55-.75-.05-.45.5-.85 6.85-4.8 14.1-6.6-2.75-4-8.25-9.25-.55-.5-.45-.95.05-.4.75-.6l7.1-.85 7.35.4q-1.25-2.8-1.7-5.05-.35-1.4 1.05-1.05 1.7.4 4.05 1.4l4.05 2.15.4 2.05q-3.45-2.4-7.6-3.55"/><path fill="#0f141b" d="M105.55 237.6q6 2.3 7.7 3.15.55-2.5.9-6 .15-.85 1-.7 4.5.7 7.5 2.25-1.25-3.6-3.65-6.65-.85-1.05-.4-1.4.5-.35 1.35.75 1.6 1.9 2.9 4.2 1.55 2.65 2.05 4.65.25 1-.1 1.2t-1.2-.35q-3.55-2.2-8-2.95-.4 4.15-.95 6.45-.25 1.15-1.2.55-3.65-1.95-7.95-3.45-1.6 2.45-3.95 9.5l-.6.75q-.4.05-.8-.35-5.9-6.35-14.4-14.65l-3.15 7.5q-2.4 5.15-4.85 9.05-.35.5-1.1.3-4.9-1.75-8.65-5.25-.7.95-1.5 2.7-.6 1.15-1.45.15-2.65-3.2-4.4-6.7-1.75 1.5-4.8 5.05-.85.95-1.45-.1-1.95-3.3-3.9-9.05-1.95-5.95-2.5-10.4-4.4 1.5-11.6 2.7l-11.5.85q-1.4-.25-.65-1.5l2.85-5.15q1.45-2.6 2.25-5l-3.05-.25q-.7 0-.8-.35-.2-.3.15-.9 1.25-1.95 3.85-4.45-1.35-1.35-3.65-2.55l-.7-.65q-.05-.35.6-.85 2.15-2 6.15-3.95 3.4-1.65 6.6-2.6 1.15-.35 1.35.15.15.55-1 .95-2.45.75-5.6 2.45-3.35 1.8-5.6 3.6 2.6 1.8 3.55 3.2.35.4-.1.75-1.7 1.6-3.15 3.65 1.9.25 2.9.65.5.2.35.75-1.55 4.7-4.7 10.35 4.05.25 11.45-1 7.05-1.2 10.4-2.5.85-.35.95.55.4 4.05 2.3 9.6 1.7 5.05 3.7 8.8l5.05-4.55q.9-.75 1.3.15l1.85 3.55 2.15 2.75 1.55-2.4q.25-.35.5-.4.25 0 .6.35 2.85 2.9 8.3 4.9 3.95-6.1 8.1-16.45.35-1.1 1.3-.25 7.9 7.35 14.35 14.1 1.95-5.65 4.1-8.9l.5-.45z"/><path fill="#0f141b" d="M123.35 222.75q2.9 4.25 4.7 8.7.35.8 0 1.15l-.95.05q-3.2-.95-6.15-1.2l-1.05-1.65 6 .8q-1.6-3.8-4.15-7.45z"/><path fill="#0f141b" d="M127.1 215.25q3.45 3.45 4.85 6.65.55 1.2-.85 1.2l-9.7.65q-1 .2-1.2-.3-.15-.5.95-.85 4.75-1.35 8.6-1.25-1.2-2.3-3.75-5.05z"/><path fill="#0f141b" d="M86.8 162.55q2.95-3.05 7.4-5.4 1.3-.7 1.05.75-.55 2.35-.65 4.55 3.3-3 7.25-5.4 1.25-.75 1.15.65l.15 4.5q21.8-6.2 28.35-7.45.85-.15 1.1.25.25.35-.05 1-3.5 8.55-5.6 16.65l11.15-.9q.75 0 .9.4.25.4-.1 1-1.7 3-3.25 6.5-1.6 3.55-2.2 5.8 3.85 1.05 8.5 3.35 4.85 2.4 7.7 4.7 1 .9-.05 1.55-9.2 5.75-22.75 15.4 2.15 1.2 3.75 2.5.5.4.45.8t-.7.65q-2.5.9-4.4 2.75-.7.65-1.1.35t.25-1.1q1.25-1.7 3.7-2.85-1.5-1.35-3.55-2.4-.95-.55-.05-1.25l10.65-7.75q7.55-5.35 11.75-8.05-3.05-2.25-7.5-4.4-4.5-2.1-7.95-2.95-.6-.15-.45-.85.4-1.95 2.05-5.95 1.5-3.55 3.05-6.6L126 174.4q-1.2.25-.95-1 2.05-8.35 5.35-16.65-8.45 1.8-28.05 7.25-.65.25-.75-.55l-.05-4.25q-3.7 2.25-7.4 5.55-.5.45-.85.3-.4-.25-.35-.9.2-3.5.5-4.75-3.2 1.85-6.1 4.85zm5.4 33.05q-2.65 4.7-7.15 9-.9.9-1.3.6t.45-1.35q5.15-5.8 7.1-9 .6-.95 1.05-.65.45.35-.15 1.4m-44.25 5.65q-1.15.15-2.45 5.85-1.3 5.8-.25 7 .45.5 2.45.4 2-.15 2.7-.85.85-1.05 1.65-3.75.95-3 .6-4.95-.2-.95-2.05-2.45-1.85-1.4-2.65-1.25m3.5 0q2.4 1.85 2.7 3.35.4 2.15-.55 5.7-.95 3.4-2 4.6-1 1.1-3.95 1.2-2.85.05-3.65-.9-1.5-1.75 0-8.5 1.5-6.8 3.6-7.05 1.5-.15 3.85 1.6m36.6 12.55q-.65.4-.05 3.15.65 2.65 1.6 3.1l2.7.1q1.95-.3 2.55-1 .9-1.15-2.05-3.8t-4.75-1.55m6.05.7q3.8 3.45 2.1 5.65-.75.95-3.55 1.5-2.7.55-3.85-.05-1.55-.8-2.2-4.65t.65-4.45q3.05-1.55 6.85 2"/><path fill="#0f141b" d="M109.55 200.55q-2.35.55-4.7 1.75-2.55 1.3-2.6 2.15-.15 1.2 4.75 6.35 4.95 5.15 6.4 5.1 1.75-.1 4.35-5.85 2.65-5.95 1.5-8.25-.35-.75-4-1.2-3.65-.5-5.7-.05m3.95 17.1q-2.1.15-7.8-5.8-5.6-5.9-5.25-7.75.35-1.55 3.45-3.1 2.55-1.3 5.35-1.9 2.5-.6 6.7.1 4.3.65 4.8 1.95 1.3 3.5-1.8 10-3 6.35-5.45 6.5m-14.55-43q-.15.25.25 1.25.4 1.1.7 1.3l4.05.55 4.1-.35q.5-.5-.25-2.9-.7-2.3-1.35-2.6-.85-.35-3.95.8t-3.55 1.95m8.2-4.4q1.2.45 2.1 4.05 1 3.65-.05 4.5l-4.85.4-5.15-.55q-.65-.3-1.25-2.15t-.35-2.6q.3-.8 4.35-2.45 4.1-1.65 5.2-1.2m4.9 88.5q-13.8 3.2-27.5 1.45-16.4-2.05-28.45-10.95-.85-.6-.55-1.05l1.2.1q12.05 7.25 26.05 9.3 14.05 2 28.7-1.5 13.4-3.15 23.8-10 10.3-6.75 16.9-16.6.75-1 1.2-.8.4.3-.15 1.4-5.25 10.2-16.2 17.8-10.85 7.55-25 10.85"/><path fill="#0f141b" d="M74.25 256.9q-1.8 3.65-3 9.3-1.05 4.8-1.15 8.6-.05 2.25-.8 3.25-.75.9-3.15 1.6-6.35 1.8-15.5 2.4-7.85.45-12.9-.05-1.8-.2-2.4-1.4t.65-2.55l3.45-3.3q.5-.45.65-1.1l-.05-1.7q-1.25-11.2-1.6-18.45-.65-13.6.7-24.25l1.9-.4q-1.05 10.8-.45 24.35.3 7.2 1.35 18.55l-.05 2.45q-.25 1.05-1.1 1.75-2.4 2.05-3.35 3.1-.45.5-.35.85t.85.4q6.35.6 14.85-.25 7.65-.85 12.75-2.35 1.55-.5 2-1 .6-.65.65-2.3.15-4 1.35-9.15 1.3-5.6 3.05-8.95zm25.1 14.4q-2.8 2-5.6 4.75-1 .95.15.95l5.85-.55-.3 1.9-5.75.5q-1.75-.05-2.2-1.3-.45-1.3 1-2.7 3-3.05 6.65-5.6zm34.8-90.25q9.4 3.1 15.75 7.55 6.35 4.5 10.5 10.85 5.15 7.85 8.75 27.9 4 21.85 2.75 42.3-.1 2.3-.55 3.2-.65 1.25-2.5 2-5.3 2.05-14.85 2.75-7.95.55-14.1 0-2.05-.2-2.65-1.3-.6-1.05.15-2.5l1.55-2 1.9-1.9q.85-.75.9-1.55l-.3-2.55-2.15-9.9q-1.15-4.75-2.8-9.2l1.85-1.1 2.9 9.95 2.1 10q.4 2 .25 3.05-.25 1.45-1.45 2.6-2.65 2.5-3.1 3.25-.3.65-.15.9l1.1.3q7.1.65 14.55.05 8.45-.65 13.5-2.7l1.5-1.2q.45-.75.55-2.3.85-20.1-3-41.35-3.55-19.75-8.45-27.35-3.9-5.95-9.65-10.1-6.15-4.5-15.45-7.75z"/><path fill="#0f141b" d="m166.9 174.1-1.5 4q-.5 1.75-.75 3.95 2.05-1.65 4.35-2.25l1.25.1q.25.3-.3 1.1-.85 1.2-1.35 2.95 2.05-.9 4.3-1.15 1.95-.1.7 1.45-7.35 9.55-11.95 19.15l-1.15-2.7q4.6-8.4 10.75-16.05-2.05.35-3.45 1.35-.6.4-.9.2-.25-.2-.2-.95.4-1.9 1-3.2-1.9.75-3.35 2.35-.45.5-.85.35-.4-.05-.4-.8.05-2.8.35-4.45.35-2.2 1.2-4.35-2.8.95-5.5 3.2l-.8.25q-.3-.15-.25-.95.25-3.45 1.35-5.95-4.45 2.7-8.7 7.15-3.7 3.9-6.05 7.75l-2-1q2.85-4.3 7.9-9.1 5.55-5.15 10.35-7.55l1.25-.1q.35.35-.15 1.2-1.55 2.7-2.2 5.85 2.75-2 6-3.05l1.1.1q.35.3-.05 1.15"/><path fill="#5c94bf" d="m107.5 243.5 4.85 2.4q3.35 1.9 4.6-1.6 1.05-2.8 1.4-5.1 2.35.7 4.05 1.6 2.45 1.2 3.4 1 1.25-.3 1-2.8-.3-2.75-1.45-4.9 2.85 1.05 4.75 3.3.65 5.45.15 20.55-.45 14.8-1.4 20.95-.25 2.05-1.5 3.1-1 .9-3.4 1.4-6.65 1.5-15.6 2.1-8.9.55-13.05-.25-1.05-.25-1.35-.9-.25-.75.75-1.6l3.95-3.75q1.25-1.4 1.1-3.95l-.85-11.45q-.8-8.5-1.75-11.85l2.2 2.15q1.55 1.55 2.6.95.85-.45 1.6-2.55 1.9-5.25 3.95-8.8"/><path fill="#4a7a9e" d="M128.85 278.9q-.15 1.95-1.25 2.95-1 .9-3.05 1.45-6.7 1.6-16.35 2.15-8.8.5-13.2-.2-1.4-.25-1.15-1.25.25-1.2 2.6-2.85-.3.9.2 1.3.4.4 1.65.45 5.2.35 15.5-2.1 9.3-2.2 11.45-3.5 1.4-.95 2.8-2.8 1.45-2 1.85-3.9z"/><path fill="#0f141b" d="M97.9 252.85q2.2 10.75 2.7 22.4.1 1.75-.2 2.5-.25.75-1.3 1.9l-4.25 3.7q-.4.35-.25.6.05.3.75.4 6.1 1 16.8-.2 10.1-1.05 14.15-2.7.75-.3 1.1-1.05l.6-2.5q.95-8.45 1.4-21.15.4-11.25.2-17.95-.05-1.55.45-1.55.6 0 .7 1.55 1.35 22.15-.85 39.3-.3 2.55-.8 3.5-.55 1.05-2 1.7-4.65 2.05-15.7 2.9-10.15.75-16.3 0-2.25-.3-2.55-1.5-.3-1.15 1.3-2.45l4.05-3.75.75-1.3.05-1.85q-.4-11.8-1.95-22.3-.15-1.45.35-1.5t.8 1.3"/></svg>