<svg xmlns="http://www.w3.org/2000/svg" width="358" height="343" viewBox="-0.49 -0.26 357.95 342.9"><path fill="#60615f" d="M314.2 37.21q1.25-1.32 1.95-1.23.62.08.88 1.54 1.1 7.77-1.76 23.97-3.05 17.08-7.81 27.77 8.03-.22 16.42 1.72 9.22 2.16 14.08 5.96 5.2 4.1 9.58 10.5 4.41 6.54 7.02 14.13 2.9 8.25 1.1 14.88-1.99 7.32-9.27 10.24.97-4.77-.09-11.3-1.01-6.32-2.91-9-.53 3.57-3.58 10.4-3.09 7.07-4.46 7.47-1.8.48-12.49-5.47-7.72-4.37-16.38-9.94 1.73 3.27 3.27 8.48 1.46 5.03 1.81 8.47-7.68 1.64-20.17-3.75-14.57-6.35-22.03-17.88 1.1 10.51 6.27 19.6 4.94 8.7 10.73 11.3-2.83 1.37-7.16 3.71l-6.44 3.4q.4 3.62 2.96 9.14 2.56 5.34 5.3 8.56-4.86 1.06-10.42 4.9-4.1 2.78-7.73 6.31 5.25-.08 12.8 1.02 6.58.88 11.04 2.07 1.68.49 1.72 1.46 0 1.06-2.03 1.6l-6.8 1.98-7.55 2.56q-4.15 6.84-5.47 14.39l7.28 1.1q4.9.35 9.4.13-3.35 3-7.76 12.58 4.37 1.6 10.24 4.33 5.2 2.43 8.87 4.46-3.31 2.47-12.71 7.37-9.1 4.68-14.35 6.75 2.3 3.58 4.9 9.36 2.43 5.48 3.75 9.76l-10.86-.62-8.78.97q1.8 4.95 2.12 9.85-6.31-.98-12.72-6.8 1.86 6.53 1.86 21.54-6.5-2.52-16.82-2.74 0 2.65-.44 5.65-.44 3.4-1.28 5.74-5.92-3.18-12.58-13.42-2.83 2.56-8.21 8.7-5.39 6.05-8.43 10.15-2.26-3.53-6.85-9.53-4.23-5.61-6.7-8.44-2.57 1.37-8.92 6.23-5.52 4.2-9.05 7.24l-3.05-3.67-3.3-3.66q-1.33 1.77-3.58 3.66l-3.58 2.6q-.7-4.8-2.52-12.26-1.8-7.07-3.26-11-3.84.89-13.16 3.93-8.78 2.83-14.83 5.12 0-3.17.97-7.76 1.06-4.9 2.52-7.9-4.46 1.32-9.71 1.94 3.57-3.5 8.91-10.24l-8.07.92q-5.3.4-8.13 0 1.1-2.73 4.28-8.16 3-5.08 5.43-8.52-3.75-1.64-11.96-5.96l-13.86-7.6q3.53-1.76 9.76-5.3l9.31-5.6q-11.57-16.02-17.4-25.87l11.26-.3 11.35.4q-.84-3.19-1.2-8.97 2.97.35 5.79 1.72-.22-2.96-.04-8.16.22-4.46.57-7.55 2.7 1.15 9.58 5.87 6.49 4.46 10.02 7.41l.4-3.35q-2.21-1.9-8-7.81-6.4-6.54-8.69-9.5-1.2-1.54-.93-2.33.22-.67 1.24-.71 3.13-.22 9.58 1.01 5.25 1.06 9.31 2.39-3.18-9.98-5.43-14.97-1.76-3.88-4.23-6.26-2.12-2.03-6-4.02-9.23-4.81-17.18-12.76-8.74-8.87-9.58-15.8-4.15-3.4-3.27-11.48.8-7.72 4.86-12.1-2.47-4.23-2.74-7.98-.44-5.08 5.7-13.86 5.07-7.24 11.08-12.5 4.28-3.8 15.58-6.7 8.26-2.17 17.04-3.19-2.74-7.54-4.68-24.54-1.8-15.5-1.37-22.38.09-1.32.62-1.59.53-.26 1.37.53 5.34 4.95 13.06 19.87 8.04 15.67 10.03 26.04 6.53-10.1 23.61-22.34 14.57-10.46 23.62-13.9 3.13-1.15 2.34 1.68-2.52 8.74-14.83 24.01-12.06 15.05-21.33 21.37 6.76 5.25 12.76 14.39 6.23 9.44 8.26 18.05 1.4 6.14-1.81 19.64-2.83 11.88-6.76 20.35-5.25 11.17-.48 24.41 2.25-2.82 6.31-6.88l5.34-5.12q1.59-1.41 2.56-1.15 1.02.22.8 1.99-.53 4.68-3.58 15.18-2.78 9.76-5.03 15.45l-1.64 4.42q-.57 2.25-.22 4.85l1.33 12.36 1.15 13.51q5.96-18.94 19.9-40.97 15.54-24.27 29.8-33.41-.62-10.68 5.43-21.59 6.62-11.96 17.83-17.35-10.24-7.23-21.85-25.55-9.62-15.23-12.27-23.84-.62-2.03-.13-2.38.4-.31 1.9.26 9.84 3.75 26.3 18.23 16.2 14.26 22.34 24.24 1.06-9.19 9.71-26.89 8.44-17.21 14.44-23.44"/><path fill="#60615f" d="M211.31 185.31q-5.12 9.98-10.72 24.99-.49-9.76-2.3-26.58 2.25-2.3 5.74-5.25 3.66-3 6.18-4.55-.09 2.56.18 5.92.35 3.35.92 5.47"/><path fill="#60615f" d="M264.1 87.71q4.73 5.21 9.67 8.87-10.37 4.6-17.12 16.25-6.54 11.26-6.14 22.69-9.05 6.05-18.94 18.05-11.47 13.95-20.26 31.74-.53-2.6-.84-5.6-.44-3.67-.26-5.79l-1.6.93q5.8-18.23 11.88-35.23 6.8-19.11 9.63-24.23 3.93-7.24 12.75-18.94 8.48-11.34 14.4-17.61 2.64 4.28 6.84 8.87m14.65-14.08q-5.34-5.65-9.4-8.96l11.17-12.76q.13 4.64-.4 10.86-.53 6-1.37 10.86m2.52 3.05q3.13-2.56 7.06-5.17 4.86-3.3 8.43-4.77-5.2 12.19-6.7 21.1l-4.2-5.78zM1.2 63.17q-.54-1.77.3-2.25.75-.4 2.03.53 4.99 3.88 17.04 10.86-2.52-3.76-5.03-10.9-2.2-6.32-2.7-9.76-.26-1.99.54-2.21.75-.18 1.8 1.2 12.76 17.12 37.57 39.41 23.13 20.8 38.5 30.1 5.82 3.54 9.53 7.69 4.06 4.63 7.1 11.56 4.73 10.9 12.94 25.25 7.37 12.94 13.68 22.07-5.82-4.19-13.46-8.38-.3 2.87-.49 7.24-.17 4.85-.04 8.47-3.05-1.59-5.78-1.72.09 4.9.92 9.05l-8.38-.62q-4.6-5.78-10.29-17.52-5.43-11.3-6.27-16.25-.53-3.26-4.59-5.16-23.22-11.08-50.76-43.26Q8.12 86.7 1.19 63.17"/><path fill="#5c94bf" d="M161.65 121.22q2.6 2.95 9.27 4.72 6 1.63 11.08 1.32-7.68 11.79-17.35 16.87-10.06 5.3-29.62 7.37-1.06-1.5-2.91-2.96-2.03-1.59-4.24-2.47-7.63-3.05-16.68-12.5-9.32-9.75-10.07-16.06-4.06-2.87-3.13-11.57.92-8.25 4.72-12 1.99 3.92 6.45 7.9.13-6.36 2.38-12.72 2.2-6.18 4.94-8.56.49 7.73 2.87 14.48 2.52 7.06 5.12 7.42 2.78.4 12.4-6.76 9.8-7.33 14.27-13.33.7 4.55.3 11.3-.3 6.45-1.45 12.5 9.97-.8 19.16-7.82 8.87-6.84 12.31-15.8.18 9.89-4.9 21.23-5.78 13.02-14.92 17.44m177.63 16.46q2.65-5.87 4.1-11.3 2.35 3.31 3.1 9.76.57 5.38-.1 10.55l2.79-1.2q1.63-.92 2.78-2.38.35 6.89-2.91 13.07-3 5.6-6.31 6.31-4.68 1.02-21.9-3.4-2.91-.75-5.12-2.7-1.77-1.58-3.49-4.27-16.07 6.8-25.34 3.17-5.87-2.38-11.08-11.56-5.25-9.27-6.44-19.56 5.25 9.23 19.33 16.47 14.09 7.24 22.87 5.16-1.06-5.47-1.77-8.16-1.5-5.52-3.53-9.4 4.73 3.88 16.16 10.24 11.7 6.49 12.93 5.78 1.33-.8 3.93-6.58m-26.13 49.04q6.36.49 11.48-3.4l1.67-1.14 1.2-.09q.61.53.26 2.34-.4 2.03-1.9 4.02-2.12 3.04-7.15 5.47-4.99 2.43-10.95 2.52-10.1.22-21.45-10.95-11.26-11.13-13.55-23.3 5.3-2.13 13.02-7.34 1.24 8.7 5.56 16.03 4.02 6.88 9.94 11.17 5.78 4.23 11.87 4.67"/><path fill="#ec869b" d="M316.2 156.66q3.97 7.07 5.47 15.85 1.06 6.4.62 12.45-12.72 5.52-23.84-4.99-10.15-9.53-12.67-25.12 6.45 2.25 12.98 1.37 5.38-.7 13.46-4.1 1.37 2.51 3.98 4.54"/><path fill="#5c94bf" d="m101.18 213.74 9.53 13.33q-4.72 3.22-18.72 11 4.15 2.55 13.3 7.32l12.17 6.14q-5.2 7.24-9.7 16.68 6.3 1.02 16.2-.92l-4.2 5.34q-2.65 2.91-5.03 4.98l5.03-.75 5.3-1.32q-1.46 2.7-2.56 7.5-.97 4.24-1.24 8.21 1.72-.66 5.17-1.72v4.73q.13 3.26.44 4.72-6.62 4.81-15.85 14.04-1.1 1.1-1.46 2.2-.3.84-.4 2.6-.13 4.86-2.51 9.59-.84-1.5-1.68-1.68-.75-.09-1.72.62l-5.34 4.46q-3.66 3.44-3.62 4.72-4.2.57-10.6.22-7.06-.35-10.24-1.63.75-1.68-1.63-6.62-2.34-4.86-3.84-4.82.04-1.72.84-9.04l-17.97.4q-13.77.17-18.98-.5.4-1.5 2.03-3.66 1.72-2.25 3.89-3.88 2.03-1.55 2.34-3.49.26-1.23-.27-3.44-1.72-7.24-1.85-14.52-.22-8.79 2.07-14.84 2.6-6.93 15.58-18.71 13.56-12.28 27.42-19.56 4.63-2.47 6.57-4.77l5.21-6.09zM318.8 303.7q2.74 10.55 4.64 22.43.17 1.37-.05 2.03-.35.75-1.54 1.15l-6.93 1.23-19.12 1.99-4.68-.13q-2.73-.31-4.1-.93t-2.87-3.14q-1.6-2.73-2.74-6.8-1.23-4.36-3.04-7.01-2-2.83-5.66-5.43-2.82-2.03-9.35-5.52-6.8-3.7-11.57-5.74 5.78-4.72 9.8-12.53 3.75-7.2 4.37-13.95 5.3-.4 10.24.66-2.43-8.3-8.65-19.12 3.44-1.32 7.68-3.48 7.81 5.87 18.36 15.45 11.8 10.68 16.6 16.86 4.42 5.74 8.61 21.98"/><path fill="#fff" d="M296.95 178.3q5.74-4.38 12.54-7.82-1.06 7.37-3.62 14.17-2.34-1.1-4.9-2.87-2.7-1.85-4.02-3.49m24.76-5.07 5.3-2.12q3.49-1.24 5.56-1.55l-2.65 6.23-3 5.6q-1.1 1.33-4.63 3.58.48-5.96-.58-11.74M59.28 329.4q7.07-6.32 8.66-6.5 1.45-.13 3.92 4.82 2.39 4.85 1.6 6.4-.5.92-10.64 2.38l-10.38.49q-.26-1.24 6.84-7.6m39.47.67q4.68-4.37 6.09-4.24 1.15.18 4.94 7.68t2.92 7.9q-1.72.75-9.98-1.94-8.21-2.74-8.43-3.93-.27-1.15 4.46-5.47M313.68 329q6 5.25 5.52 6.22-.93 1.55-12 .09-11.13-1.41-11.53-3.09-.31-.93 4.99-4.77 5.2-3.8 6.09-3.7 1.01.08 6.93 5.25m8.21-11.74q4.2.83 10.86 4.9 6.36 3.88 6.18 4.98-.22.89-6.49 1.28-5.91.4-8.92-.09-.57-6.84-1.63-11.07"/><path fill="#4a4c4b" d="M217.76 10.86q1.23 1.01-2.34 7.6-3.36 6.22-9.45 14.47-14.88 20.22-24.5 25.56-.48-.4-3-1.77-.97-.57-.7-1.67.3-1.15 1.5-1.86 7.85-4.94 20.7-19.24 12.14-13.6 17.79-23.1M123.38 168.5q6.62 3.66 12.71 7.63 7.2 4.77 11.13 8.34 1.28 4.29 2.82 12.94-8.16-7.55-16.64-16.3-11.74-12.09-10.02-12.62"/><path fill="#4a4c4b" d="M143.29 190.79q0 1.01-.49 1.85-.3.53-1.15.26-.88-.13-1.5-.7l1.02-3.36zm-20.79-4.33q.7 4.37 1.37 7.06.4 1.5-.89 1.9-1.19.31-2.47-.62-.49-14.83 1.02-16.15.17 2.87.97 7.81m-4.55 15.27q-.84.49-2.03.36l-.8-5.12q-.4-3.14-.48-4.73l.7-.09q1.55 5.21 3 8.04.5 1.01-.39 1.54m-23.93-.88q2.3 3.62 8.13 10.82 6.4 8.12 10.02 11.6 1.01.98.92 2.12-.17 1.37-1.94 2.39l-9.27-13.2q-6.09-8.96-8.87-13.6zm-1.81 36.82q5.88 2.69 14.88 5.6 9.89 3.14 16.29 4.06-6.36 10.6-7.64 14.22l9.36-.75q4.64-.67 8.6-1.68-2.11 5.6-4.9 8.96 3.98-.62 7.65-2.78-1.6 5.03-1.28 9.93 9.18-4.1 17.56-5.74 1.81 3.36 3.58 8.39 1.55 4.37 2.43 8.34 2.47-1.72 4.54-4.5 2.7 2.07 5.79 6.4 8.7-6.58 18.05-11.34 8.52 7.06 13.42 13.5 7.77-7.32 14.52-10.9 1.81 3.31 4.07 6.22 2.33 3.18 4.45 4.73.89-2.2 1.24-4.81l.26-5.04q6.05-.53 10.55 1.24.23-4.81-.66-12.85-.88-7.15-2.16-13.6-.22-1.23.22-1.45.49-.17 1.37.88 3 3.76 6.1 7.02 3.57 3.84 5.6 5.34.22-2.03 0-4.63-.27-2.78-.93-4.72 5.7-1.64 12.85.88-1.5-5.52-3.85-10.86 8.48-.53 20.49-3.27 11.83-2.65 19.55-5.7-4.37 3.19-12.53 7.51-8.52 4.5-14.13 6.4 2.16 3.67 4.5 8.83 2.74 5.92 4.02 10.2-12.18-1.15-19.56.88 1.95 6 2.21 9.58-3.04-.4-6.09-1.94-3.62-1.85-6.53-5.12 1.76 8.96 1.67 21.45-4.23-1.15-8.96-1.72l-7.99-.49q0 6.76-1.54 11.4-3.67-2.79-6.4-5.7-3.1-3.36-5.96-7.95-4.02 3.89-8.83 9.23-5.74 6.36-7.9 9.84-2.87-4.46-6.89-9.8-4.41-5.91-6.75-8.3-3.84 2.39-8.26 5.74-5.47 4.2-9.66 8.26-1.24-2.16-3.18-4.42-1.86-2.25-3.45-3.44-4.06 4.6-6.97 6.27-.53-4.68-2.38-12-1.86-7.56-3.4-11.13-15.9 4.41-28.08 9.1.22-3.28 1.24-7.82 1.15-5.21 2.47-7.9-4.63 1.45-9.8 1.9l4.77-4.95 4.2-5.34q-10.47 1.77-16.3.88 1.55-3.4 4.02-7.72 3.13-5.6 5.74-8.92-5.48-2.43-13.29-6.62-9.31-4.99-12-7.28m193.03-40.09q-25.42 7.5-35.67 12.9 3.89-8.22 6.32-11.17 5.74-1.86 16.15-2.92l16.42-.57q-.3.92-3.22 1.76M241.29 52.49q-3.05-6.76-1.68-7.38 5.6 11.17 17.61 26.84 12.1 15.72 18.9 20.62 1.14.8 1.19 1.98.04 1.24-1.15 1.77l-2.39.26q-10.24-6.75-24-28.73-5.53-8.79-8.48-15.36m74.64-16.65q1.63-.13 1.46 6.89-.1 6.58-1.64 16.33-3.75 23.7-8.78 30.29h-4.37q4.46-7.64 9-27.06 4.24-18.01 4.33-26.45m-52.79 124.58q4.1-.18 11.7-2.79 6.7-2.3 9.4-3.97l1.36.93q-3.92 3.88-13.06 7.72.66 3.67 2.96 8.52 2.51 5.39 5.56 8.79-3.84.7-8.17 3.53l-7.5 5.3q-1.95-1.2-3.98-3.84-4.15-5.3-4.63-12.45-.18-2.25 1.72-6.62 2.12-5 4.64-5.12"/><path fill="#913000" d="M316.28 157.06q2.3 1.41 7.2 2.56-1.46 2.91-3.8 4.68-1.1-3.84-3.4-7.24"/><path fill="#4a4c4b" d="M191.4 145.1q.36 5.74 2.56 10.28-3.97 4.46-9.18 12.5-2.34 3.53-7.28 7.15-5.3 3.84-11.04 5.87-14.7 5.12-21.45-4.95-1.28-4.59-3.1-9.35l-4.14-10.51q-.88-2.25-2.78-4.41 12.93-.4 23.26-4.46 15.32-6.05 23.62-19.47 9.27-2.38 15.36-17.22 5.39-13.15 4.64-24.45 2.6 8.25-.49 22.9-2.6 12.28-7.55 23.05-2.78 5.96-2.43 13.07M13.73 49.3q.75 4.86 4.59 12.76 3.66 7.6 6.31 10.2 1.1 1.06.53 1.86-.62.75-1.85.26-1.42-.84-2.56-1.9-3.36-4.8-6.1-13.6-2.73-8.91-.92-9.57M1.32 60.78Q14.4 85.86 40.4 114.2q27.5 29.93 48.38 39.77 4.55 2.16 6.14 3.66 1.85 1.95 3.18 6.32 2.64 8.43 7.41 16.42 4.68 7.9 9.18 11.56.18 4.5 1.24 9.27l-8.87-.48q-4.86-6.58-9.71-16.47Q92.13 173.7 90.8 167q-.35-2.03-1.19-2.91-.57-.7-2.25-1.55-23.57-11.83-49.04-40.52-26.18-29.4-36.6-56.99-1.41-3.75-.4-4.24m278.77-8.49q.7 2.04.13 9.41-.57 7.06-1.68 11.92l-2.82-3.18q2.42-5.47 4.37-18.14"/><path fill="#4a7a9e" d="M166.33 143.42q-5.43 2.96-14.26 5.34-9.7 2.52-17.13 2.52-2.3-3.22-7.28-5.21-2.87-1.1-7.81-4.72-5.83-4.29-9.4-8.61 10.41 7.41 29.66 6.49 20.7-1.06 41.9-11.79-8.66 12.23-15.68 15.98m149.77 51.29q-4.9 2.08-8.69 1.77-10.28-.75-20.66-10.46-10.95-10.24-14.21-23.7 8.87-4.42 13.42-7.25l.75 4.86q-1.37 11.52 5.03 20.75 5.52 8.08 13.6 10.6 8.12 2.55 18-1.24-2.6 2.69-7.23 4.67m15.23-33.99q12.1.89 17.57-5.78-.71 2.34-2.56 4.68-1.81 2.38-3.32 2.78l-5.03-.22q-3.53-.44-6.66-1.46"/><path fill="#dcdddd" d="M309.13 170.92q0 2.43-1.1 6.67-1.06 4.01-2.38 7.06-2.26-.97-3.84-2.38 3.7-6.1 7.32-11.35m23-1.19q-1.2 4.68-3.57 8.74-2.92 4.9-6.27 6.18l.22-5.6q2.43-1.42 4.94-3.85 2.6-2.56 4.68-5.47M73.28 331.34q.57 2.03.26 2.73-.53 1.06-10.24 2.43l-10.9.4q3.97-2.38 9.66-5.12 5.21-2.43 9.72-4.2.97 1.9 1.5 3.76m22.47 1.89q1.4-1.67 3.04-3.09l7.46 5.52q4.37 3.45 6.36 5.74-1.81.7-9.76-1.68-8.25-2.47-8.43-4.41-.04-.49 1.33-2.08m204.55-5.65q2.79.89 9 3.5 6.41 2.6 9.76 4.27-1.63 1.24-12-.04-10.55-1.28-11.3-3.18-.18-.53 1.32-2.03 1.46-1.32 3.22-2.52m22.43-4.9q2.47.23 7.55 1.77 4.8 1.37 8.34 2.87-.75.93-5.78 1.24-5.08.4-9.54-.23.4-1.85-.57-5.65"/><path fill="#4a7a9e" d="m230.91 294.21 8.65.75q-1.67 3.76-4.5 8.39-3.84 6.14-6.93 8.78-12.54 5.35-32.89 6.27-18.84.93-29.22-2.2 2.08-4.9 1.77-8.79 2.95-2.74 8.91-7.46 6.8-5.3 9.85-6.89 9.31 11.3 13.64 18.1 2.91-4.19 8.47-10.41 5-5.61 8.26-8.66 2.2 3.84 5.47 7.55 3.58 3.97 6.89 6.1 1.63-4.95 1.63-11.53"/><path fill="#980048" d="M144.88 309.8q-12.19-5.17-17.7-10.11-.89-.89-.98-4.55l.23-5.6q17.96-6.05 22.82-7.2 1.94 5.07 3.48 11.17 1.68 6.57 2.3 11.96 2.78-1.46 6.97-6.27l3.27 3.18q1.81 1.99 2.87 3.84 0 4.99-2.12 9.98-8.92-1.2-21.14-6.4m101.22-34.7q2.16 2.74 6.22 4.9 3.75 2.07 6.4 2.16-.22-4.06-2.2-9.58 4.45-1.01 9.53-1.19-1.37 13.6-12.54 24.99-10.33 10.5-25.38 15.75 3.05-2.51 6.58-8.34 3-4.85 4.5-8.78 4.24.4 8.43 1.85.27-3.97-.26-11.03-.49-6.94-1.28-10.73"/><path fill="#4a7a9e" d="M205.13 317.52q6.45-.3 17.57-3.62 12-3.58 16.64-7.2l-.22 5.35q-.04 1.1.44 2.16.45.93 1.1 1.46l4.77 3.75q2.83 2.07 4.95 3.35 1.46.93 1.41 1.68-.04.7-1.37.93-11.3 1.94-22.55 1.98-11.92.05-20.13-2.03-1.73-.44-2.25-.92-.62-.62-.62-2.08zM87.05 242.96q1.24 4.81 5.12 10.29 3.75 5.25 7.15 7.41l-6.53 6.5q-2.65-3.27-4.5-12.1-1.68-8.08-1.24-12.1m-33.11 38.41q12.98 4.54 26.27.17-4.64 5.21-7.9 16.91-2.34 8.25-3.62 18.19l-17.88-.67q-13.69-.97-18.94-2.42.35-1.95 3.62-5.21 3.53-3.53 4.33-5.34.44-.97.26-2.08l-.57-2.82q-1.5-7.29-1.41-15.4.04-9.9 2.64-14.53.4 8.74 13.2 13.2"/><path fill="#4a7a9e" d="M67.98 322.95q.4-6.89 2.52-17.83 2.47-12.85 4.94-17.18 1.46 4.5 3.97 8.74 2.52 4.15 5.6 7.29 2.08 2.07 3.4 2.47 1.55.49 3.76-.57 5.12-2.34 15.85-5.52 9.4-2.74 18.14-4.64l.62 3.14q-4.15 3.44-9.27 8.08-5.17 4.63-6.89 6.53-1.72 1.85-1.5 4.68.09 1.72-.62 4.41-.84 2.87-2.12 4.64-.57-.97-1.32-1.24-.84-.3-1.63.31-2.39 1.81-5.17 4.46-3.62 3.35-3.84 4.59-2.6 1.1-9.97.75-7.16-.35-10.69-1.59.58-1.2-1.85-6.49-2.52-5.38-3.93-5.03m243.18-26.13q2.25 5.56 4.81 14.21 3.27 11.08 4.07 18.4l-4.9 1.07-4.77-4.33q-2.87-2.38-3.62-2.34-1.5.1-6.49 3.84-5.03 3.75-4.6 4.68-6.92.36-8.6-.75-2.7-1.76-4.72-8.03-2.08-6-4.28-9.27-2.26-3.36-5.87-5.65-4.15-2.7-9.72-5.6-6.49-3.45-10.94-5.13 4.19-3.22 8.12-9.45 3.88-6.09 5.3-11.6 29.97 5.6 42.68 15.84 2.78 2.25 3.53 4.1"/><path fill="#cc7487" d="M320.61 166.9q-6-3.75-13.07-.35-7.02 3.31-7.63 9.67-1.24.75-2.87 2.12-3.67-3.14-7.5-11.52-3.63-7.77-3.94-12.23 1.15.8 3.62 1.37l8.35.53q4.28-.27 7.9-1.55l6.62-2.91 2.3 2.82 1.8 1.95q2.48 3.75 4.42 10.1"/><path fill="#4a7a9e" d="M272.4 128.06q4.16 4.28 11.04 9.62 4.02 3.1 9.45 5.17-12.85 2.6-15.4 4.41-1.73-2.65-3.54-6.75-3.62-8.3-4.24-15.76zm70.99-1.68q3.09 7.24 3.09 13.82l-7.82-1.15q3.14-6.89 4.73-12.67M323.21 139l-12.62 1.11q-1.77-6.36-4.02-11.39 4.1 3.75 16.64 10.29M99.5 101.4l1.19-3.23q1.28-3.4 2.07-4.1 1.24 2.47 3.58 4.85-4.24 1.06-6.84 2.48m79.59-4.77q-2.08 7.33-5.83 13.1-4.41-3.61-12.31-6.61 13.2-5.52 20.26-20.04 0 6.4-2.12 13.55m-27.99 3.57q-8.3-1.94-17.26-2.64 9.18-6 17.4-14.84.83 8-.14 17.48m-38.5-13.1q2.08-4.73 3.94-6.8-.22 8.87 3.97 16.9l-11 1.06q.58-5.38 3.1-11.17"/><path fill="#0f141b" d="M205.8 35.05q-11.7 15.5-23.22 23.92l-1.5-1.05q10.8-7.77 22.95-23.8 10.6-14.03 13.1-21.36.27-.62.05-.8-.13-.13-.84.18-11.2 4.2-26.66 15.98-15.67 11.96-21.58 21.01-.71 1.1-1.2.88-.48-.3.14-1.45 6.66-11.52 22.29-23.13 13.73-10.2 26.48-15.01 4.46-1.64 2.96 2.91-2.65 8-12.98 21.72"/><path fill="#0f141b" d="m169.24 45.86-1.5 2.65q-2.6-11.47-9.8-25.86-7.1-14.09-13.02-20.09-.53-.53-.75-.49-.13.05-.13.71-.31 6.71 1.8 23.26 2.22 16.91 4.47 24.02.26.7-.53.84-9.18.7-18.23 3.26-10.02 2.83-14.57 6.58-4.81 3.89-9.71 10.64-6.5 8.78-6.18 14.52.17 3.31 2.38 7.5 2.12 3.98 4.99 6.76.22-6.44 2.65-12.5 2.25-5.64 5.65-9.04l-.18 2.65q-2.43 3.26-4.24 8.91-1.85 5.87-2.25 12.05-.09 1.42-1.32.53-3.67-2.78-6.67-7.76-3.13-5.13-3.3-9.05-.32-6.05 6.4-15.59 5.25-7.46 10.1-11.39 4.68-3.84 14.57-6.53 8.3-2.25 18.23-3.22-2.43-8.74-4.24-22.91-1.9-14.57-1.54-23.66.09-2.3 1.1-2.6 1.02-.31 2.7 1.4 6.7 6.85 13.28 19.39 6.89 12.97 9.84 25.02"/><path fill="#0f141b" d="M157.02 74.87Q154.54 80.6 150 85.5q-6.71 7.2-14.97 12.85-7.72 5.3-10.6 5.2-3-.12-6.17-8.38-3.22-8.39-2.78-15.32.35-4.59 5.25-11.34 4.6-6.36 10.55-11.04 1.06-.79 1.41-.4.36.36-.61 1.29-5.39 5.03-9.4 10.72-4.64 6.67-4.95 10.82-.4 6.58 2.38 14.21 2.56 7.11 4.64 7.29 1.8.22 9.05-4.82 8.16-5.69 14.65-12.62 4.37-4.68 6.98-10.2 1.94-4.01 3.53-10.02.35-1.37.84-1.23.53.08.3 1.5-1.14 6.4-3.08 10.86"/><path fill="#0f141b" d="M182.18 82.2q.22 11.03-5.26 22.9-5.73 12.32-13.6 16.34 3.01 2.16 8.3 3.62 5.61 1.54 10.65 1.37.92-.05 1.1.3.13.4-.4 1.06-9.27 12.63-15.84 16.3-5.74 3.26-14.62 5.78-9.7 2.69-16.95 2.56l-1.54-2.21q6.58.44 16.77-2.3 9.54-2.51 15.32-5.78 6.71-3.84 14.39-14-5.34.14-11.21-1.71-5.6-1.81-8.39-4.37-.53-.49-.44-.98.18-.4.75-.61 6.4-2.39 12.45-13.07 6-10.77 6.84-21.32-4.5 9.4-15 15.76-9.19 5.52-15.77 5.3-1.19-.1-.84-1.29 1.24-4.85 1.64-11.47.35-6-.14-11.13l1.64-1.72q.57 5.52.35 11.7-.22 6.84-1.46 11.92 7.2-.22 15.98-6.27 10.2-7.06 13.56-17 .44-1.28 1.06-1.1.61.09.66 1.41"/><path fill="#0f141b" d="M161.74 121.83q-2.78-.97-5.56-2.42-3.1-1.55-4.77-3.1-9.14 3.85-22.16 8.26-5.43 1.81-10.55-.7-5.6-2.65-10.6-10.33l-2.73 3.26q-1.99 2.39-2.52 2.47-1.72.22-3.93-3.62-2.11-3.7-2.16-6.48-.04-4.2 1.28-8.57 1.46-4.5 3.97-7.81l1.33 2.2q-2.08 2.87-3.27 6.8-1.15 3.8-1.19 7.38-.04 2.78 1.46 5.56 1.37 2.51 2.12 2.43l2.16-2.26 3.27-3.57q.48-.4.83.13 9.8 14.3 19.87 11.04 15.93-5.26 22.86-8.04.4-.17.62.14 1.6 1.54 5.08 3.35 3.35 1.72 6.09 2.43z"/><path fill="#0f141b" d="M120.47 111.1q.08-.74 2.78-.3 2.65.48 2.51 1.28-.13.53-1.28.84l-1.98.04-1.37-.7q-.75-.62-.66-1.15m217.89 41.98q-.05-.7 2.47-.7 2.56-.05 2.6.79 0 .57-1.01 1.01l-1.64.44q-.66 0-1.54-.53-.84-.53-.88-1.01M112.48 133.7q7.63 7.42 17.08 12.28 4.86 2.47 7.6 6.62 1.76 2.74 4.4 9.76 8 21.14 11.04 45.6 1.86 14.79 1.55 27.45-.05 2.43-.4 3.71-.53 1.94-1.99 3.62l-2.56 3.31q-.88 1.46-1.32 3.14-.31 1.14-.75 1.06-.53-.05-.4-1.24.31-3.31 3.75-7.28 1.24-1.5 1.55-3l.22-3.36q.18-12.62-1.63-27.2-3.1-24.1-11.04-45.15-2.7-7.02-4.02-9.18-2.38-3.8-6.93-6.05-10.86-5.52-18.93-13.95-8.92-9.22-9.98-17.57l2.56 1.77q1.68 7.41 10.2 15.67m71.2 34.56q4.81-7.85 10.55-14.7 5.65-6.8 10.73-10.94 2.2-1.86 3.53-1.28 1.28.57 1.06 3.26-.58 5.7-3.67 16.51-3.22 11.04-6.05 16.78-.83 1.8-.57 5.16 1.86 17.13 2.34 28.56.62 12.76-.13 23.8-.09 1.72-.66 1.72-.58-.05-.53-1.73.17-11.74-.53-23.44-.71-11.47-2.65-28.78-.36-3.84.8-6.09 2.77-5.65 6.17-16.68 3.36-10.95 3.84-15.9.14-1.32-.26-1.4-.35-.19-1.68.87-4.59 3.84-10.33 10.64-5.52 6.5-10.99 14.3-.8 1.24-1.28.93-.49-.3.3-1.59"/><path fill="#0f141b" d="M179.49 56.2q7.85 3.61 15.71 14.6 7.46 10.51 8.96 18.77 1.33 7.5-1.85 20.79-3 12.18-7.86 22.42-2.16 4.55-2.16 9.93 0 5.35 2.2 12.28l-1.54 1.54q-5.17-14.21-.18-24.54 4.1-8.7 6.93-21.15 3.14-13.77 1.72-20.83-1.54-7.82-8.87-18.28-7.1-10.28-13.64-14.48-1.06-.66-.8-1.14zm-56.33 114.9q-1.55-1.77-1.1-2.92.44-1.05 2.33-1.1l9.27.84q5.57.93 9.9 2.87l.61 2.52q-4.15-2.12-10.06-3.4-5.43-1.24-9.5-1.24-1.32 0-.22 1.28 3.5 4.02 11.61 12.27l13.82 13.82.35 3.09-14.78-14.92zm152.6-74.56q-10.55 4.33-17.44 15.54-6.8 11.08-6.62 23.48l-.26.53q-14.75 10.33-28.65 31.52-13.69 20.97-21.94 45.47l-.53-5.34q8.92-23.93 21.01-42.42 13.11-20.09 28.12-30.5-.09-13.87 6.62-24.46 7.07-11.08 19.34-14.92 1.19-.4 1.32.13.18.48-.97.97"/><path fill="#0f141b" d="M240 46.4q2.6 8.73 13.3 25.07 12.13 18.63 21.53 24.76l-1.94.8q-9.93-6.85-21.5-24.77-10.2-15.93-12.97-25.73-1.15-3.89 3.04-2.21 12.67 4.99 27.55 18.23 14.21 12.67 21.19 24.32l-.49 2.43q-5.83-10.46-21.98-24.76Q251.7 50.32 241.02 46l-.97-.18q-.22.09-.04.57"/><path fill="#0f141b" d="M317.92 37.43q1.01 10.69-2.03 26.97-3.1 16.2-7.73 24.9l-1.9-.04q4.55-8.21 7.73-25.39 3.09-16.6 2.2-26.26l-.22-.88-.61.44q-6.76 8.25-14.22 22.64-9.09 17.66-10.81 29.89-.18 1.54-.75 1.5-.53-.04-.44-1.63.88-12.01 10.06-30.24 8.08-16.03 15.14-23.4 1.24-1.28 2.3-.97 1.1.4 1.28 2.47"/><path fill="#0f141b" d="M354.78 140.95q-2.83 4.81-8.13 6.49-1.23.4-1.1-.89.88-12.05-2.43-19.29l.67-2.6q2.47 4.59 3.26 9.4.84 4.81.31 11.13 7.77-3.89 7.77-15.14 0-6.45-4.72-15.59-4.73-9.18-11.26-15.1-6.18-5.64-18.05-7.94-10.07-1.99-21.99-1.28-1.23.13-1.28-.44-.09-.58 1.2-.75 12.05-1.28 22.64.53 12.36 2.16 18.76 7.99 7.55 6.88 12.23 15.98 4.72 9.05 4.72 16.6 0 6.4-2.6 10.9"/><path fill="#0f141b" d="M341.4 135.74q-3.62 8.78-5.6 9.53-2.08.8-12.94-5.2-10.2-5.61-16.16-10.25l-1.54-3.8q5.43 4.78 17 11.35 11.3 6.5 12.8 5.92 1.19-.49 4.41-8.43 3.31-7.95 3.13-10.16-.22-3.09-4.28-9.44-4.2-6.8-9.75-12.58-.97-1.02-.58-1.42.36-.4 1.37.53 5.6 4.82 10.46 12.19 4.68 7.02 5 10.68.21 2.56-3.32 11.08"/><path fill="#0f141b" d="M348.11 155.38q3.36-5.91 3.1-12.14l1.62-1.5q.93 7.37-2.69 14.44-3.26 6.31-7.02 7.41-2.2.67-9.93-.7-7.02-1.28-13.55-3.27-4.86-1.5-7.86-6.53-6.75 3.57-14.43 4.32-7.15.71-10.77-1.19-7.64-3.93-12.5-13.2-4.5-8.47-5.6-19.15-.14-1.15.4-1.33.52-.18 1.14.75 6.58 10.55 20.62 17.3 12.58 6.05 19.86 4.5-1.15-8.51-6.05-18.22-4.76-9.54-12.18-18.5-.97-1.15-.57-1.5.4-.4 1.4.66 7.82 8.12 13.25 18.63 5.21 10.33 6.31 19.3.14 1.1-.97 1.36-6.8 1.85-19.38-3.4-14.03-5.87-21.45-15.94 1.77 9.5 6.27 16.65 4.33 7.1 10.24 10.28 3.7 1.9 9.98 1.2 6.53-.8 14.48-4.33.79-.4 1.23.35 3.27 5.17 7.15 6.27 5.26 1.54 12.32 2.78 7.86 1.37 9.93.75 2.74-.8 5.65-6.05"/><path fill="#0f141b" d="M327.72 180.63q3 5.34-3.93 11.26-7.02 6-16.38 5.65-9.98-.27-21.19-10.5-12-11.04-14.48-24.5l1.99-.8q2.34 12.93 14 23.66 10.8 9.93 19.77 9.93 9.14 0 14.96-4.54 5.08-4.02 4.24-7.9-4.1 3.97-10.37 4.45-6.36.53-12.63-2.78-15.23-8.03-19.29-30.81l2.34 1.24q2.92 14.7 11.4 23.17 7.5 7.5 16.32 7.6 2.92.04 7.11-1.64 3.93-1.54 6.14-3.49"/><path fill="#0f141b" d="M261.15 165.4q-1.1-.08-1.1-.66 0-.53 1.1-.53h.04q4.29-.04 8.7-1.8 6.7-2.75 15.4-8.3l.62 2.16q-8.87 5.16-15.5 7.8l-4.54 1.2zm43.26 8.74q-3.84 2.52-6.71 4.82l-1.37-1.24q3.84-2.96 8.43-5.47 4.37-2.34 4.95-2 .66.45-.36 5.17-1.01 4.64-2.73 9.54l-1.68-.66 2.65-7.95q1.28-4.33.97-4.5-.31-.22-4.15 2.3m16.73 11.29q1.06-7.32-.8-15.62-1.94-8.52-6.04-13.55l3.04.92q3.36 5.34 4.86 13.03 1.5 7.54.66 14.43z"/><path fill="#0f141b" d="M324.76 160.1q-1.81 3.1-4.72 5.57l-.71-1.94q1.81-1.81 3.35-4.24zm.4 22.39 4.19-7.15q2.25-4.42 1.94-4.73-.26-.22-3.66 1.1-3.22 1.33-5.7 2.57l-.35-1.77q3.18-1.59 7.24-2.65 3.62-1.01 4.02-.66.35.4-.89 3.8-1.5 4.19-4.28 8.87zm-43.09-1.77q-6.84 1.55-13.73 7.02-7.2 5.65-12.66 14.13-12.94 19.86-11.13 44.4.09 1.46-.44 1.5-.57.05-.75-1.36-2.83-24.81 10.1-45.2 5.48-8.75 12.9-14.66 7.1-5.74 14.3-7.6z"/><path fill="#0f141b" d="m243.58 238.37.13-3.4q.84 2.43 2.78 4.81 2.03 2.48 4.5 4.11 1.11.7.8 1.15-.4.44-1.46-.18-4.8-2.91-6.75-6.49m-33.11-52.04q-.92-6.32-1.1-10.95-5.43 3.58-10.86 9.53l-.35-2.07q2.38-2.7 5.82-5.56 2.92-2.43 5.61-4.1 1.41-.89 1.41.65 0 5 .7 10.38zm58.36-122.19 11-12.63q.48-.79.92-.7.44.13.48 1.15.23 3.92-.22 10.2-.53 6.57-1.63 12.18l-1.5-1.37q2.03-11.13 1.85-18.9l-9.62 11.22zM280.7 76.1q6.67-5.87 16.96-11.03l-.89 2.3q-9.31 5.29-14.79 9.97z"/><path fill="#0f141b" d="M257.62 79.85q-20.75 24.6-26.22 35.8-4.1 8.44-11.04 27.73-5.52 15.4-10.37 30.68l-2.83 1.85q6.8-21.45 10.38-31.96 7.2-21.14 11.3-29.35 3.3-6.58 11.7-17.26 5.25-6.76 16.02-19.3zm29.18 118.13q-7.82 2.12-19.07 6.14-12.58 4.46-18.23 7.41l.79-2.56q5.92-2.82 17.83-6.93 10.64-3.62 18.24-5.65 1.14-.26 1.14-.7 0-.4-.92-.67-3.8-1.28-11.4-2.2l-13.24-.53 1.73-2.08q4.94-.26 12.58.93 6.84 1.06 10.81 2.38 2.25.8 2.25 2.25 0 1.55-2.51 2.21m-145.06-8.7-.53 2.48q-.22 1.19-1.28.35-3.09-2.56-8.78-6.44-6.14-4.2-9.5-5.96-.74 7.72-.21 14.39.13 1.45-1.1.7-2.08-1.15-4.82-1.59.18 3.67 1.15 7.95.18.7 0 .84l-.75.17q-10.29-.75-21.23-.26 10.33 16.69 16.6 24.68.61.75-.18 1.23-8.12 5.21-17.53 10.24 13.86 8.04 24.41 12.98l-1.06 1.28q-12.7-6.05-25.47-13.42-.66-.4-.66-.88 0-.4.66-.75 3.54-1.9 8.74-5.17l8.66-5.51q-5.79-7.46-16.38-24.86-.49-.88-.31-1.19t1.1-.4q11-.66 21.15.1-.35-1.69-.44-3.8l-.22-4.15q-.1-.58.08-.75.23-.27.84-.27 2.74.27 5.12 1.59-.4-5.7.05-14.66.13-1.45 1.32-.83 2.87 1.32 9.27 5.82l9.58 7.07.35-2.39z"/><path fill="#0f141b" d="M106.83 267.82q4.94-10.07 10.86-17.49.79-1.01 1.23-.66.44.36-.26 1.37-5.61 7.64-9.54 16.55 5.12.4 15.05-1.06.67-.04.8.31.22.36-.18.93-2.6 3.75-7.81 8.87 4.28-.53 7.86-1.76l.97.09q.26.35-.05.97-1.5 2.87-2.42 6.66-.93 3.8-1.1 7.46 16.77-6 26.92-8.56.66-.18.84.4 4.59 13.37 5.74 22.24 3.26-2.42 5.78-5.56l1.15-.04q3.62 3.35 6 6.75 4.02-3.75 9-7.33l8.4-5.69.65-.26q.18 0 .49.35 8.25 9.97 13.02 17.08 2.47-3.66 7.68-9.31 4.06-4.46 8.21-8.52.49-.44.75-.44l.67.53q2.3 3.84 5.38 7.28 3.1 3.44 5.87 5.3l1.02-4.95.26-5.12q0-.57.18-.7l.84-.1q9.05.36 15.67 2.13.3-6.71-.53-13.86-.53-4.55-1.99-11.88-.26-1.46.27-1.54.53-.14.88 1.28 3.97 14.21 3.27 27.28-.05 1.28-1.37.84-2.96-.93-7.02-1.42l-8.34-.57q-.05 2.6-.53 5.2l-1.24 5.35q-.26 1.15-1.28.48-3.04-1.8-6.36-5.07-3.75-3.58-6.13-7.42-11.52 11.35-15.5 17.7l-.7.53q-.4 0-.7-.48-1.69-2.7-6.4-8.43l-6.9-8.57q-6.93 4.6-9.44 6.45-4.15 2.96-7.46 6.13l-.93.53-.66-.61q-2.96-4.9-5.52-7.16-2.91 3.58-6.58 6.05l-.92.22q-.44-.13-.49-.8-.57-4.72-2.3-10.8l-3.53-11.3q-11.6 3.04-26.66 8.42-1.28.49-1.28-.84.18-8.96 2.39-14.03-2.6.75-7.69 1.15-.92.08-1.14-.27-.27-.44.4-1.06 2.02-1.94 7.41-8.56-8.08 1.45-14.17.8-1.41-.18-.8-1.46"/><path fill="#0f141b" d="M283.27 216.57q.88-.05 1.1.4.22.43-.44 1.14-3.53 3.66-6.84 10.73 4.45 1.76 9.7 4.54l8.44 4.6q1.37.83.04 1.63-5.2 3.4-13.06 7.41-7.95 4.15-13.51 6.23 5.43 9.36 8.39 18.4.35 1.33-1.02 1.2l-9.84-.58-8.7.84q1.81 4.81 2.07 9.05.05.7-.26.93l-.84.13q-8.03-1.59-12.36-6.97l-.44-2.87q4.41 5.91 11.92 7.63-.44-4.5-1.94-8.25-.4-.97.57-1.15 4.15-.75 8.6-1.01l10.03.3q-3.49-10.06-8.12-17.7-.49-.83.4-1.14 4.94-1.81 12.84-5.92 7.02-3.66 12.98-7.28-7.38-4.02-18.01-8.26-.75-.26-.45-1.06 3.1-6.97 6.94-11.25-9.14.13-15.23-1.33-.75-.17-.58-1.1 1.94-8.83 5.65-14.04l2.43-.62q-3.62 4.64-5.78 13.9l6.66 1.07z"/><path fill="#0f141b" d="M128.06 299.07q18.63 14.08 47.5 17.4 28.82 3.26 52.88-5.97 31.3-12 36.68-39.07l2.12-.04q-5.52 29.4-38 41.67-23.27 8.79-51.56 6-30.64-2.95-51.12-18.45-.89-.7-1.1-4.41-.14-3.18.17-6.62l1.81-.53q-.35 3-.22 6.09.13 3.44.84 3.93"/><path fill="#0f141b" d="M154.2 300.26q-6.28-1.32-13.74-4.55-8.25-3.48-12.05-6.88l2.03-.75q3.84 3.09 10.86 6.04 6.76 2.83 12.58 3.98zm10.76 15.58q1.06-2.07 1.68-5.07.57-3.05.49-5.79l1.76 1.68q-.09 6.1-1.8 9.76zm57.56 10.77q16.87.84 27.68-2.12.7-.13-.13-.7-7.06-4.81-10.33-7.77-1.68-1.63-1.63-3.97l.26-4.64 2.56-1.1-.62 5.12.05 1.94q.13 1.02.57 1.46 3.84 3.48 10.24 7.55 1.28.83 1.77 1.67.4.84 0 1.46-.88 1.2-8.79 2.25l-16.95 1.15q-24.01.13-23.97-6.67.14-3.22.36-4.98l2.38.22q-.13 1.54-.13 4.98 0 3.27 16.68 4.15M92 269.5q-12.45 13.28-15.9 20.47-2.47 5.13-4.68 15.98-1.94 9.45-2.56 16.87l-1.9.13q.58-8.56 2.39-18.05 2.12-10.6 4.72-15.98 3.49-7.24 15.76-20.44 11.74-12.58 21.28-19.87l2.16 1.06q-9.4 7.15-21.28 19.82"/><path fill="#0f141b" d="M59.86 330.01q-4.33 3.89-6.31 6.14-.58.62.35.57 8.87-.8 17.92-2.73.66-.14.84-.4.22-.27 0-.84-1.24-4.5-4.15-8.65l-1.59.04q-2.78 2.03-7.06 5.87m10.06-7.33q3.31 4.68 4.81 9.9.4 1.36-.08 2.07-.62.88-2.56 1.23l-9.05 1.42-9.05 1.01q-2.12.13-2.7-.75-.57-.84.8-2.38 2.12-2.39 6.49-6.32 4.46-4.01 7.41-6.22 2.56-1.9 3.93.04m33.82 4.46q-3.8 3-7.77 7.24-1.02 1.15.08 1.68 8.52 3.93 15.32 4.81l.44-.09-.13-.66q-1.8-4.9-6.31-12.71l-.66-.66q-.31-.05-.97.4m3.13-.76q4.33 7.33 6.36 13.2.7 1.9.26 2.47-.48.58-2.25.36-3.66-.49-8.21-1.81-4.64-1.37-8.3-3.1-1.5-.7-1.54-1.9-.14-1.05 1.1-2.33 3.75-4.1 8.43-7.73 2.43-2.03 4.15.84"/><path fill="#0f141b" d="M73.9 333.59q2.42.97 9.3 1.32l11.18-.35.26 1.85-11.03.31q-7.9-.35-11.08-1.59zm53.28-33.55q-4.46 3.22-9.23 7.55-4.46 3.97-6.93 6.8-.62.7-.8 1.28l-.17 1.36q-.05 2.87-.93 6.05-.8 3-2.12 5.34l-1.06-1.76q1.06-2.21 1.72-4.9.71-2.74.58-4.68-.05-1.06.22-1.77.26-1.01 1.24-2.03 6.93-7.77 16.64-15.4zm-35.1 5.83q3.84-1.77 10.2-3.93 6.13-2.12 10.73-3.22 1.23-.31 1.36.26.18.53-1.1.88l-10.5 3.62q-6.4 2.34-10.07 4.06-1.15.53-1.54-.3-.36-.8.92-1.37m-14.61-13.95q3.4 7.41 7.6 12.1 1.05 1.18.43 1.76-.66.53-1.72-.62-4.01-4.41-7.41-12.76-.44-1.06.09-1.23.53-.27 1.01.75m6.23 33.9q.35-5.21.97-8.79.57-3.7 1.63-7.9.35-1.23 1.24-1.01.83.17.53 1.41-2.04 7.55-3.18 16.47-.18 1.45-.75 1.4-.53-.08-.45-1.58M16.47 61.84q2.73 6.85 6.13 11.7l-3.04-1.63q-3-4.64-5.17-10.9-2.12-6.1-2.34-10.25-.09-2.25 1.02-2.47 1.1-.3 2.42 1.5 10.42 14.4 35.36 37.13 25.87 23.48 43.22 33.63 4.77 2.83 8.47 7.73 3.76 4.99 7.9 14.08 5.79 12.5 13.38 25.7 8.17 14.12 14 21.22l-4.73-3.22q-5.87-7.5-12.76-19.69-6.35-11.2-11.83-23.13-2.6-5.65-7.24-12-4.94-6.8-8.34-8.74-18.5-10.73-43.57-33.77-24.72-22.65-35.1-38.05l-.39-.31q-.22.04-.22.44.09 4.2 2.83 11.03"/><path fill="#0f141b" d="M2.03 63.12q8.17 24.02 33.77 54.21 26.88 31.74 52.09 44.37 1.63.79 2.47 1.67.97 1.06 1.37 3 1.5 6.9 6.89 17.88 5.38 10.86 10.15 16.73l-2.78-.04q-4.73-5.96-9.36-15.58-4.81-9.98-6.84-18.46-.4-1.5-.97-2.11-.45-.49-1.81-1.2-26.4-13.1-53.06-44.54Q8.52 89 .35 63.7q-.84-2.6.22-3.62t3.18.53q9.32 6.8 19.65 12.58 1.28.8.97 1.23-.22.5-1.55-.17-10.6-5.21-19.9-12.27-.8-.62-1.07-.31-.22.26.18 1.45M83.12 232.9Q69.8 239.92 57 251.48q-13.02 11.79-16.47 20.44-1.72 4.2-1.4 12.93.21 8.26 1.98 15.32.97 3.93-1.95 6.05-1.9 1.37-4.1 3.75-2.12 2.43-1.9 2.78.35.84 12.54 2.08l23.17.84-.26 2.03q-6.31.35-15.76-.31-10.64-.7-18.94-2.3-2.38-.4-2.65-1.45-.35-1.06 1.24-3.5 2.2-3.44 5.03-5.6 1.06-.8 1.28-1.8.22-.93-.13-2.48-1.77-7.15-1.94-16.11-.18-9.23 1.59-13.64 3.48-8.79 16.46-20.48 13.02-11.8 27.33-19.12 2.78-1.46 4.01-2.43 1.46-1.06 3.31-3.3 6.05-7.16 11.3-12.46l1.1 1.77q-3.4 3.49-10.72 12.1l-3.75 3.75q-1.46 1.15-4.24 2.56"/><path fill="#0f141b" d="M91.82 268.12q-2.65-5.3-4.1-12.14-1.24-5.87-1.42-11.96-.04-1.32.48-1.32.53-.1.76 1.23.79 6.71 1.9 11.3 1.54 6.4 4.05 11.13zm56.54-30.06q2.39-.84 4.82-1.19l-.14 1.94q-4.45.27-7.99 2.43l-1.23.09q-.36-.35.53-1.1 1.54-1.24 4.01-2.17m77.96 74.21q7.42-6.4 12.1-17.3l1.76.35q-3.84 9.7-10.2 16.02z"/><path fill="#0f141b" d="M237.89 298.05q5.16-.4 10.1-1.85 5.26-1.55 8.48-3.89l-1.85 3.05q-3.4 1.9-8.74 3.18-4.86 1.19-8.88 1.28zm25.25-15.89-8 1.15q-4.36.22-7.76-.04l-.27-1.9q4.15.4 8.65.04 4.46-.3 8.04-1.28zm21.49 44.54q1.15 2.16 2.78 3.75.75.71 3.36.97 2.56.31 4.63-.04l.53 1.77-5.34.22q-3.4-.31-4.41-1.24-1.81-1.72-3.27-4.37-1.15-2.12-2.34-5.52-1.28-3.57-2.73-5.96-1.86-2.95-4.82-5.2-6.97-5.3-22.5-11.97l2.02-2.12q5.17 2.34 10.46 5.21 7.55 4.1 11.7 7.24 3 2.25 4.72 5.25 1.1 1.95 3.1 7.11z"/><path fill="#0f141b" d="M317.83 334.2q-3.62-3.57-10.15-9.09-.58-.48-1.02-.44-.35 0-1.01.44-5.96 3.84-8.66 6.45-.7.57.18.84 3.49 1.14 10.24 2.03l10.15.66q1.1 0 .27-.88m-.22 2.47-11-.7q-6.88-.76-10.15-1.86-1.63-.53-1.9-1.68-.26-1.06.76-1.99 1.54-1.5 4.8-3.84l4.55-3.17q1.15-.76 2-.71.87.04 1.93.93 5.96 4.85 10.46 9.44 1.55 1.6 1.2 2.52-.31 1.01-2.65 1.06"/><path fill="#0f141b" d="M317.83 304.45q-3.27-12.36-7.81-20.48-2.48-4.5-15.5-16.5-11.65-10.82-20.44-17.49l2.87-1.28q8.35 6.53 19.6 17.17 12.8 12.1 15.5 16.91 4.59 8.3 7.77 20.53 2.25 8.7 4.59 23.26.53 2.91-1.9 3.44-4.55 1.1-6.84 1.15l-1.68-1.68q2.65 0 7.64-1.15.66-.17.83-.48v-1.02q-2.25-13.55-4.63-22.38"/><path fill="#0f141b" d="M323.44 327.5q8.47.57 13.81-.22 1.15-.14.22-.93-5.12-4.1-15.58-8.39l-.22-1.99q11.04 4.38 17 9.14 1.58 1.28 1.23 2.3-.3 1.01-2.38 1.41l-7.33.62q-4.46.13-7.24-.13zm-14.22-46.84q.49 7.1.27 10.6-.05.97-.84.92-.84-.09-.8-1.06.31-7.63-.09-12.05zm-17.44 3.09q11.26 5.21 16.3 9.27.83.66.3 1.32-.53.67-1.28 0-5.47-4.37-15.85-9.57-1.05-.45-.83-.98zm24.37 31.12q-2.56-8.65-6.75-17.92-.4-.93.4-1.24.75-.35 1.14.58 3.49 7.59 6.36 18.23.35 1.15-.22 1.32-.53.13-.93-.97"/><path fill="#60615f" d="M217.14 171.32q-1.1-12.58-3.58-20.44-.8-2.43.14-2.96.75-.48 2.2.36 3.62 1.98 9.54 9.18 4.28 5.2 7.63 10.33 1.95 2.91-.13 8.34-1.76 4.68-5.7 9.54-3.61 4.59-6.61 6.26-3.14 1.86-2.96-1.37.44-8.38-.53-19.24"/><path fill="#0f141b" d="M216.57 149.78q-1.73-1.15-2.26-.93-.48.18-.04 1.72 2.38 8.43 3.53 19.42 1.1 11.13.49 20.09-.05 1.46-.62 1.46-.58-.05-.58-1.55.23-8.92-1.14-20.66-1.33-10.81-3.31-18.32-.8-3.13.57-3.88 1.41-.8 4.2 1.19 3.57 2.52 7.9 7.55 4.63 5.47 7.85 11.3.62 1.1.14 1.41-.49.27-1.2-.8-3.57-5.42-8.16-10.76-4.55-5.3-7.37-7.24"/></svg>