<svg xmlns="http://www.w3.org/2000/svg" width="424" height="454" viewBox="-0.4 -0.6 423.95 454.2"><path fill="#60615f" d="m408.6 82.1 2.05-.2q.45.3-.1 1.4-2.85 5.45-13.1 17.25-11.5 13.2-19.3 18.65 4.25 1.8 11.25 3.3l9.8 1.7q1.45.15 1.45 1t-1.2 1.3l-44 16.85q-36.85 14.3-45.95 19.9-4.2 2.6-21.45 19.95-13.5 13.65-23.3 24.25l-7.6-.3q-4.5.1-7.05.85 11.75-23.55 19.5-38.45 14.5-27.95 20.2-33.1 11.35-10.35 60.05-31.35 41.4-17.85 58.75-23M245.55 422.3l20.55-14.65q7.1 5 12 16 4.2 9.3 4.4 16.25.05 1.1-.55 1.3-.5.15-1-.75-.6-1.15-2.75-3.4l.65 7.2.05 6.4q-.1 1.45-.75 1.75-.6.3-1.2-1.15-.6-1.5-1.95-3.5-1.35-2.1-2.7-3.45l.2 2.6q-.1 1.15-.6 1.3-1.85.7-5.55-7.05-2-4.2-7.95-9.6-6-5.4-12.85-9.25"/><path fill="#b80059" d="M256.5 153.65q1.05 6.35.55 11.75-.15 1.65-.95 1.9-.7.25-1.6-1.1-.95-1.4-3-3.45-2.15-2.15-4-3.5-4.2-3.1-7.65-8.35-3.3-5-4.25-9.15 5.7 3.15 10.9 3.05 4.85-.1 6.3-2.75 2.6 4.75 3.7 11.6m19.3-32.5q5.3 7.15 10.2 12.25 2.65 2.75 6.55 5.05 3.6 2.1 5.95 2.6 2.15.4 2.05 1.75-.15 1.3-1.8 1.9-3.75 1.55-12 2.15-8.25.65-13.15-.2-3-.5-11.15-7.25-7.05-5.75-11.5-10.55 2.85-.95 5.35-2.8zm38.6-87.25q.7 1-.6 2.7l-12.2 15.2q-10.75 13.25-12.35 15.45-1.95 2.75-5.65 11.6-3.45 8.2-5.05 13.35-.9 2.95 1.65 3.75 5.3 1.65 13.8 1.4 8.35-.25 13.15-2.1 3.05-1.15 6.4-2.05l5.25-1q1.75-.15 2.1.5.25.45-.4 1.35-3.1 4.1-10.35 10.8-8.15 7.5-13 9.95-3.5 1.75-10.55 3.1t-11.9 1.25l-53.55 8.65q-5.45 3.05-16.45 5.35-12.65 2.65-21.45 1.45-3.6-.45-1.45-3.25 3.1-4 11.6-10.2 7.95-5.8 15.45-9.8l-10.8-.55q-7.7-.9-11.45-2.2-2.75-.95-14.2-14.4-10.05-11.8-16.8-21.1-1.35-1.9-.5-2.6.85-.75 2.75.3 6.9 3.8 17.15 9 12.2 6.2 17.15 8.2 3.85 1.55 9.1 2.25l8.55.3q-4.4-4.05-11.35-13.9-6.25-8.9-7.65-12.3-1.05-2.55-1.25-17.7-.15-12.15.2-21.1.05-1.85.95-1.9.95-.05 1.55 1.4 3 6.9 9.1 18.85 7.3 14.25 11.25 19.7 2.2 3.05 8.05 6.6 5.15 3.1 8.4 4-.5-6.8 1.75-21.35 2.1-13.85 3.95-18.25 1.75-4.2 12.35-16.55Q257.95 5.4 263 1.85q1.8-1.25 2.8-.75.85.55.85 2.55 0 3.7-3.8 17.85l-4.9 18.75q-1 5.1.45 15.75 1.25 9.2 3.4 17.2l5.8-9.05q4.65-6.75 8.15-10.05 3.65-3.5 17.9-11.45 12.9-7.25 17-8.75 2.9-1.15 3.75 0"/><path fill="#5c94bf" d="M140.4 266.25q2.1-18.45 12.8-31.75l19-6.5 73.45 2.9 13.7 17.25q5.4 12.25 4.85 27.95-.55 16.1-7.1 30.1-7.3 15.35-20.15 24.15-14.4 9.95-33.85 10-21.35.1-37.05-11.4Q151.8 318.6 144.9 301q-6.65-16.8-4.5-34.75"/><path fill="#5c94bf" d="M141 286.9q1.7 12.15 8.75 23.65 5.9 9.65 13.4 15.8-2.75 6.2-6.4 22.45-2.8 12.45-4.4 22.45-.2 1.1-.75 1.3-.6.3-1.2-.5-1.2-1.45-2.4-5.2-1.2-3.6-1.45-6.7-1.95 3.75-3.4 10.55-1.15 5.7-1.6 11.4-.15 1.45-.6 1.7-.45.2-1.05-.65l-1.55-2.5-1.6-3.55q-1 4.55-1.4 9.85-.1 2-.85 1.9-.65-.1-1.45-1.7-8.15-16.65-5.3-48.75 2.75-31.1 13.25-51.5M246.45 322q6.45-6.65 11.3-17.15 5-10.9 6.05-21.4 4.9 7.95 8.55 21.25 3.6 13.65 4.8 28.85 2.75 36.05-8.8 58.7-1 2-1.75 1.6-.7-.4-.55-1.95.3-3.8-.55-9.7-.9-6.2-2.45-9.75-1.4 3.55-3.3 7.05-.65 1.25-1.35 1.1-.55-.15-.65-1.2-.25-4.05-1.15-9.35-1.05-5.95-2.25-9.05-1.15 3.9-2.85 7-.85 1.6-1.45 1.3t-.5-1.7q.9-9.05.15-22.55-.85-15.05-3.25-23.05m-28.15 16.75q3.9-.8 10.05-3.35 0 22.85 9.7 40.8 9.6 17.75 29.75 32.7 2.25 5.65 4.1 15.3-2.6-3.9-8.95-10.35l-15.85-15.3q-12-11.45-20.75-29.55t-8.05-30.25"/><path fill="#b80059" d="M204.6 340.25q7.7-.2 13.7-1.5.45 18.25 12.5 38.2 9.5 15.75 22.8 27.85 12.35 11.35 18.05 18.9.45 2.5.3 4.45-.2 2.75-1.75.75-1.65-2.15-5.1-4.3-3-1.9-5.45-2.7 1.3 2.5 2.9 7.8.5 1.5.1 1.85-.4.25-1.35-.65-1.85-1.9-5.7-3.95-3.9-2.05-7.45-3l-5.2-3.5-6.1-3.95q-17.7-12.55-30.45-32.2-14.3-22-16.8-45.2 6.55 1.35 15 1.15m-42.4-86.3 8.15-10.7 16.35 8.05-.95 19.9q-5.05 12.85-4.55 34.65.5 22.6 6.8 32.7-7.15-1.35-14.5-5.15-6.15-3.2-11.45-7.6-7.15-13.45-6.25-37.05.85-20.5 6.4-34.8"/><path fill="#b80059" d="m239 242.25 7.65 18.45q4.35 15.65 1.95 36.3-2.35 20.4-9.65 32.25-3.05 2.8-9.8 5.75-6.3 2.75-11.55 3.8 7.4-15 8.25-37.7.8-21.55-4.5-31.5l-.1-21.7z"/><path fill="#60615f" d="M334.2 198.3q-9.5 12.9-15.35 24.3 6.05-6.8 13.2-11.95 5.45-3.95 9.75-5.8 1.35-.55 1.8 0 .45.5.15 2.15-1.15 6.05-8.45 17.5-7.2 11.25-13.6 17.35 9.15-2.85 21.8-1.4 3 .4 1.55 2.4-1.85 2.35-6.3 5.35-4.7 3.15-9.05 4.65 3.35.35 8 2.9 3.55 2 6.05 4.15 1.1 1 1 1.8-.15.75-1.4 1.1-6.1 1.45-13 .95-7.5-.55-13.8-3.3l-4.2-.15q-6.15 2.35-17.05 4.5-12.25 2.45-18.1 1.85-2.95-.3-7.3-3.55-4.55-3.4-8.35-8.25l-2.1-6q-3.2-2.65-6.95-4.55-3.65-1.85-6.6-2.4 1.05 4.15 1.2 9.85.15 4.85-.3 9.5-2-3.35-4.9-6.4-2.6-2.8-5.15-4.55.4 7.45-2.45 16.35-2.6 8.15-6.2 12.75-.45-2.6-1.8-6.6-1.45-4-3-7.05-2.85 6.65-9.65 16.4-7 10.15-9.1 10.15-2.65 0-11.05-10.45-8.65-10.75-11.85-18.75-1.2 2.55-2.35 6.6-1.05 3.8-1.35 6.4-3-3-4.8-12.35-1.45-7.7-1.55-15.95-6.95 3.1-11.7 8.15-.6-3.75.9-9.75 1.4-5.7 3.95-10.6-6 1.8-12.55 4.75.25-2.9 1-5.85-2.65 2.8-6.5 10.8-5.6 3.05-15.1 6.8-2.95 1.15-6 1.15-3.15-.1-7.05-1.5-4.95-1.8-13.2-7.4-8.3-5.5-15.55-11.8-5-.1-10.95 2.65-5.15 2.45-8.6 5.75-1.75 1.8-2.15-.15-.8-3.5-.8-8.4l5.85.95q2.7.3 5.2-1.3 15.8-9.6 22-11.95 1.35-.45 1.75-1.25.35-.6.15-1.85l-1.5-7.5-1.55-7.05q-.75-2.75 1.65-2.9 2.25-.1 5.9 1.55.3-2.75.15-6.25-.15-3.85-.75-5.85-.5-2-.55-4.85-.05-2.55.25-4.35.3-1.6 1-1.6.6 0 1.35 1l4.25 6.8q2.9 4.9 4.55 8.35 1.35 2.85 1.8 5.6.55 3 .4 7.5-.1 2.2.1 3.25.2 1.4.9 2.8.85 1.4 2.85 3.85l4.15 4.45q3.5 3.35 9.3 1.35 2.25-.75 8.85-3.95l10.25-5.25q-2.05-1.3-4-3.35l7.3-.6q-2.75-2.15-9.6-9.7 3.35-1.7 9.05-1.4 5.15.3 9.1 1.8-2.6-5.7-3.85-16.6-1.25-10.6.1-14 3.9.2 11.8 10.15 6.15 7.8 9.85 14.6.8-8.35 6.85-30.3l8.85-30.55q4.45-.85 10.55-2.65 6.15-1.95 9.55-3.55 2.15 3.3 5.4 6.75 3.35 3.5 6.25 5.7-6.1 14.6-7.8 29.95-1.8 15.5.7 33 5.35-8.1 16.15-15.95 10.15-7.35 16.6-8.75 0 3.6-4.45 14.5-4.4 10.6-7.85 15.8 4.35-1.3 10.15-1.6l8.95.4q-2.6 2.25-5.5 5.65-3 3.45-4.7 6.2 3.7-.55 8.95 1.2-3.75.7-7.7 3.55 17.35 14.2 25.95 14.35 2.95.05 9.6-2.4 6-2.25 10.15-4.65 1.7-.95 2.65-2.1.95-1.1 1.9-3.35 4.15-9.5 18.15-25 15.45-17 26.9-22.4-7.7 6.65-17.4 19.65"/><path fill="#60615f" d="M295.1 235q-7.3 3.2-12.3 3.4-4.15.15-9.35-2.4l-9-5.65 16.25-1.85 14.4-1.15 6.35.35q2.3.4 3.65 1.4-3.35 2.95-10 5.9m61.15-58.1q-7.8 1.95-21.55 14.2-11.95 10.7-16.5 17.5-4.6-.95-14.5 2.85-4.05 1.55-17.8 7.45L262.65 229l-6.35-4.8q4.4-2.95 7.7-3.55-3.9-1.15-6.25-1.25 10.3-10.05 27.3-24 20.7-17 27.35-19.15 12-3.85 53.85-3.35 39.95.5 54.7 3.65 1.3.3 1.35 1 .1.65-1 1.15-8.05 3.35-22.1 7.8-16.85 5.3-26.7 7 3.9 2.65 9.1 7.55 5.35 5 7.1 7.55.8 1.2.45 1.65-.4.5-2.2.5l-9.95-.9-11.9-2.2q2.5-5.5 2.9-8.6.2-1.6-.3-2.1l-2.2.05q-3.05 1.05-8 3.75-6.75 3.75-9.95 7.35l-2-.1q3.5-5.8 7.85-15.65 4.65-10.35 4.95-13.8.1-1.1-.35-1.5zM33.15 42.3q-.95-1.55-.5-2 .55-.5 2.15.4 12.45 6.9 52.1 36.4 41.7 31.05 46.7 38.35 3.9 5.7 14.8 30.75l14.85 34.5q.25 4.45 1.6 10.45 1.2 5.55 2.6 9.55-2.9-1.2-7.4-1.6-3.6-.35-6.8-.1-3.85-4.75-20.1-31.15-14.65-23.8-22.85-31.8-3.85-3.75-29.65-20.9-29.6-19.65-36.45-24.8-1.6-1.2-1.5-2.25.05-.95 1.4-1.45 5.45-1.9 20.5-1.5-6-5.7-17.05-21.4-6.95-9.85-14.4-21.45m79.95 144.45q-5.35-8.8-6.35-8.65-.45-3.95-2.55-10.45-2.15-6.25-4.8-11.8 7.8 1.4 27.45 19.6 11.9 11.1 24.05 24.2l-1.6.65q1.55 2.05 4.95 5.35l5.1 4.6-7.45.35q1.8 2.35 3.7 3.35l-7 3.6q-4.7-4.25-14.1-10.1-9.3-5.75-15.75-8.5-.2-3.15-5.65-12.2M1.8 145.6q-1.45-.95-1-1.6.5-.7 2.05-.5l51.4 5.6 33.6 3.55-2.3 15.85q-5.45-.95-12.6-.1-7.25.75-10.15 2.65-3.15 1.95-6.3 8.4-2.55-.95-6.2-1.85l-6.8-1q-1.55-.05-2.1.6-.5.5-.5 1.8-4.05-.05-10.2-1.65-5.3-1.35-8.3-2.75-1.55-.8-1.3-1.65.15-.75 1.45-1.15l7.65-2.7q5.15-2 7.5-3.3-6.5-2.95-18.4-9.75Q9.1 150.3 1.8 145.6m118.4 67.9q-.75-1.25-.9-2.25v-1.8q4 1.2 12.6 4.85 8.1 3.4 12.2 5.55-4 2.15-8.6 3.65-2.6.85-4.55.4-1.95-.4-3.75-2.1l-3.7-4.1z"/><path fill="#b80059" d="M89.05 146.6q.25-1.5 1-1.9.85-.45 2.1.7 4.55 4 9.3 15.2 4.35 10.35 5.3 17.5-1 .3-1.25 3.5-.35 3.45.45 7-3.1-6.25-6.65-11.3-3.2-4.5-5-5.75-4.25-2.95-8.75-3.05l2-12.25zm-18.4 21.9q-4.4.75-6.35 1.6-2.55 1.15-4.55 3.8.25-2.65-.15-8.7l-.7-7.2q-.2-1.5.25-2.05.4-.4 1.55-.4 3.9 0 9.45 4.1 4.5 3.35 8.65 8.1zM56.6 179.15q-1.4 2.8-1.5 4.8-.1 3.4 2.05 8.3 2.3 5.15 5.3 7.65.1 1.7-1.1 3.65l-2.35 3.1q-3.5 4.2-4.15 10.65-.5 5.6 1.2 9.65.7 1.7 5 3.4 2.95 1.2 6.5 2.05l-.25.7q-2.8-.2-6.9.85-3.2.75-6.15 1.95l-1.85.45q-.45-.15-.4-1.1.1-1.05.9-3.35.8-2.45 1.85-4.65-4.35-1.8-10.15-5.3-6.35-3.85-6.4-5.25-.05-1.6 5.95-4.3 6.15-2.8 11.05-3.05-4.9-4.35-9.45-14.45-4.3-9.6-4.75-16.15-.05-1.4.55-1.9.4-.35 1.75-.35 4.5 0 13.3 2.65m301.75-.8q-1.1 5-4.55 13.35-4.3 10.25-8.75 16.4l-1.6-.25q.7-2.4.2-2.95-.5-.6-2.75.35-4.1 1.8-10.3 6.45-6.8 5.15-11.4 10.35 4.8-10.95 16.35-25.95 10.75-14 16.05-17.45 3.4-1.5 5.15-1.85l1.3.05q.5.35.3 1.5m-1.9 22.85q4.55-2.6 9.05-4.2l2-.15q.7.4.5 2.2-.35 3.4-4.05 11-5.8-1.3-16.6-2.25 4-3.65 9.1-6.6m-30.3 62.1 12.6.5q5.6-.5 5.9-1.85.4-1.45-3.6-4.2 3.9 1.6 9.2 2.55l10.55.95q3.85-.15 4.95-2.2 1.5 1.7 3.25 4.65 1.05 1.7-1.15 1.7l-15.3-1.4q3.75 3.35 6.45 4.95 1.2.75.95 1.3-.2.55-1.3.65-6.1.7-15.8-.95-12.05-2.15-16.7-6.65"/><path fill="#5c94bf" d="M241.4 71.15q2.45-.15 9.3 5.4 5.8 4.7 9.25 8.7 2.25 2.55 3.3-.45.35-1.1 1.1-1.5.85-.5 2.05.45 4.3 3.25 6.35 12.15 2.35 10.15-.95 19.3 3.65 4.3 3.95 7.55.25 2.5-2.2 5.35-2.55 3-5.7 3.3-4.7.4-11.7-5.9t-8.8-12.65l-7 .45-6.9-.85q-5.9-1.35-11.8-1.35 3.65 12 9.8 18.9 6.8 7.6 17.2 9.65 2.65.6 3.35-.95h1.2q.75 3.65-2.1 5.2t-8.25.35q-10.8-2.4-19.6-13.9-8-10.4-10.75-23-1.55-7.15 1.05-15.4 2.2-6.9 5.95-11.35 2.5-3 10.25-6.15 7.2-2.95 11.65-3.3M55.1 184.4q.05-2.6 2.05-6.5 2.45-4.65 6.15-7.05 4.1-2.7 14.6-2.8Q88.5 168 93 170.8q3.05 1.85 7.45 8.25 3.85 5.65 5.7 9.95.45 1.9.75 5.9l.15 6.6q-2.2-1.1-5.5-1.85-1.55-.3-2.2.7-.5.8-.15 2.1l1.6 7.25 1.45 7.3q.25 1.35-.05 1.9-.3.65-1.55 1-2.75.9-10.75 5.3-7.45 4.1-11.95 7.1l-2.05 1-2.25.15q-6.95-.5-15.1-4.4-2-.95-2.75-2.5l-.65-2.9q5.3 2.7 11.6 3.45 6.2.7 9.85-.9 3.6-1.6 11.5-8.25t8.4-8.5q.4-1.85-1.1-5t-3.35-4.15l-11.35-.5-14.15.75q-2.2.1-3.75-.65-1.25-.65-2.6-2.3-2.05-2.55-3.65-6.9-1.55-4.1-1.45-6.3m307.2 25.3q8.95 1.75 12.25 3.8 3.05 1.95 7.2 7.6 4.1 5.5 6.2 10.45 1 2.25 1.1 4.7.15 2.6-.7 4.4-1.3 2.75-3.4 2.8-2.05.1-5.5-2.25-4.6-3.15-9.5-4.1l-11.5.35-7.05 1.1-7 .55q3.3 9.85 9.7 15.85 5.15 4.9 10.25 5.7-3.2 1.6-11.85.2-7.65-1.3-12-3.4-3.65-2.8-10.8-4.6 4.35-1.4 8.85-4.5l6.15-4.95q1.85-1.7-.8-2.6-3.25-1.1-10.6-.7-7.05.35-11.95 1.75 6.3-5.3 13.45-16.75 6.55-10.4 8.65-17.25 9.2 0 18.85 1.85"/><path fill="#60615f" d="M99.15 183.35q1.6.65 2.1 4.7.45 4.25-1.4 5.75-1.8 1.45-6.8.55-5.05-.9-5.3-3.05t4.05-5.5q4.55-3.45 7.35-2.45M355.5 218.3q2.2.65 5.35 5.1 2.95 4.2 2.6 5.35-.3.85-5.85.9l-6.95-.55q-1.65-.55-4.75-3.6-3.15-3.1-2.9-4.15.25-1.2 4.75-2.55 4.7-1.4 7.75-.5M236.9 85.25q3.25.65 5.55 3 2.3 2.25 3.1 7.85.75 4.75.1 9.85-1.1-1.1-3.7-1.9L237.6 103q-6-1.3-7.75-5.95-1.65-4.25.05-11.8 4.2-.6 7 0"/><path fill="#b80059" d="M236.75 89.7q4.05-.15 5.9 3.95 1.55 3.45.75 7.2-3.45-.3-5.5-4.1-1.9-3.6-1.15-7.05"/><path fill="#ec869b" d="m82.55 199.8 9.5.5q1.45.65 3.05 3.85 1.65 3.25 1.4 5.3-.3 2.05-9.1 9.15-8.7 7-12.4 8.25l-6.85.45q-3.85-.4-8.2-1.6-2.35-7.8.1-14.5 2.35-6.5 8.85-10.85zm262.2 40.55q-.3-.9.1-1.2.35-.3 1.4-.25 3.2.15 14.9-1.8.45 4.15 2.25 8.05 1.4 3.05 1.05 7.3-.4 4.55-2.65 7.4-5.65-1.85-10.75-8.3-4.05-5.25-6.3-11.2M231.95 130.4q-6.3-6.85-10.3-19.3l4.85.2 6.55.9q5.85 1.25 9.5.95 4.25 2.8 5.6 11.8 1.3 8.5-.9 14.45-9.2-2.4-15.3-9"/><path fill="#fff" d="M234.7 133.05q1.4-1 3.5-2 2.05-.95 3.2-1.25.1 5.15-.15 7.4-3.5-1.75-6.55-4.15m16.6-12.75q2.2 3.25 5 5.75-2.1 1.8-6.2 2.85 0-1.7.35-4.25.35-2.85.85-4.35m11.2 9.85q2.15 1.25 5.45 1.35-.5 1.2-1.85 2.5l-2.6 1.95q-.9-2.1-1-5.8"/><path fill="#980048" d="M314.35 33.95q.55 1.7-1.25 3.65-2.5 2.65-12.35 14.9l-11.6 14.8q-1.9 2.6-5.65 11.45-3.3 7.85-5.05 13.25-.4 1.2-.1 2.35.25.95 1.05 2.25-2.95-1.05-4.35-3.2-1.45-2.1-1-4.5 1.4-6.5 3.9-12.9 2.6-6.55 5.65-11.25 3-4.6 14.35-15.9 11.2-11.2 16.4-14.9m-2.8 69.6q-8.75 8.3-13.4 10.8-3.65 1.95-11.2 3.45-7.25 1.4-12.35 1.3-.75-1.55-2.85-3.9l.75-2.75q4.55.8 12.25-.1 7.45-.85 11.95-2.5 3.1-1.15 12.1-7.85 7.95-5.9 12.1-9.65-.3 2.65-9.35 11.2m-120.85-80q3.65 33.9 5.4 38.8 1.35 3.7 7.8 12.3 6.75 8.9 11.25 12.5l-.85 3.2-4.45.4q-5.25-5.35-11.6-14-6.65-9.2-7.45-12.45-1.1-4.8-1.4-21.95-.25-17.9 1.3-18.8M156.05 73.6q-.7-1.05-.9-1.9-.25-.9.2-1.25 9.75 10.95 18.6 20.1 12.35 12.8 15 13.7 2.95.9 11.55 1.9l12.2.9.75 3.7q-3.7 1.25-13.5.35-9.75-.85-13.8-2.75-3.7-1.8-15.4-15.9-9.2-11.1-14.7-18.85m46.2 60.05q-9.5 1.8-17.7 1.15-3.45-.2-3.75-1.65 6.35-.4 19-4.65 12.7-4.35 17.55-7.85 2.55 5.25 3.85 7.15-9.35 4-18.95 5.85"/><path fill="#4a7a9e" d="M213.4 110.3q-2.3-9.25-.45-16.9 0 12.65 7.2 24.5 6.95 11.35 17.65 17.4 2.9 1.7 6.05 2.95 3.3 1.35 4.95 1.4l1.9-.05q.95-.25 1.25-1.2l.95-.1q.6 2.75-.95 4.6-1.65 1.85-5.05 1.8-7.1-.1-14.25-5.15-6.75-4.75-11.95-12.7-5.2-7.9-7.3-16.55m58.35 4.9-2.45-1.8q-1.6-1.1-1.2-2.05 2.05-5.05 1.75-13.5-.45-10.4-5.25-14.55 6.85 3.15 8.7 14.95 1.65 10.7-1.55 16.95"/><path fill="#980048" d="M300.9 142.45q-.4 1.85-3.2 2.6-5.4 1.35-12.55 1.9l-11.85-.35q-3.45-1-9.25-5.6l-7.6-6.65q.4-.65.05-1.1-.4-.45-1.35-.25l-4.25-4.05q3.6-1.4 5.75-3.05 4 3.45 5.7 4 0 1.5.4 3.35l.8 2.6 2.65-2.05 2.25-2.65q2.4-.5 4.25-2.3 3.65 3.8 7.55 7.2 4.7 4.05 6.5 4.65 2.2.8 6.4 1.3zm-60.2 9.85q-4.15-5.7-5.1-10.7 4.1 2.65 9.7 3.1 6 .4 7.65-2.7 1.2 2.4 1.6 4.85.75 4.5.5 10.2-.2 5.35-1.05 8.2-2.75-3.25-5.85-5.4-3.7-2.45-7.45-7.55"/><path fill="#cc7487" d="M224.6 118.6q-1.95-3.85-2.85-7.5 2-.2 10.05 1.1l10.9 1.05q3.65 3.5 5.1 9.75 1.05 4.55.85 9.75-3.2-8.5-11.85-12.65-7.65-3.65-12.2-1.5"/><path fill="#4a7a9e" d="M142.25 293.25q-4.95-18-.55-34.2.55 23.75 14.35 39.95.85 14.35 5.15 25.7-13.65-12.45-18.95-31.45m60.85 26.7q11.15.05 21.45-3.4-1.25 6.8-2.55 11.35-1.75 6.1-4.25 10.95-6.9 1.6-13.55 1.6-8.35 0-16-1.75-2.3-4.45-4.1-10.55-1.7-5.9-2.55-11.95 10.4 3.65 21.55 3.75m56.05-17.4q-6.25 15.6-19.25 25.6 6.45-12 8.3-26.7 13.7-14.7 15.3-37.15 2.6 21.05-4.35 38.25"/><path fill="#980048" d="M156.05 299q10.2 11.85 25.5 17.2.85 6.05 2.55 11.95 1.8 6.1 4.1 10.55-15.5-3.5-27-14-4.3-11.35-5.15-25.7M222 327.9q1.3-4.55 2.55-11.35 14.05-4.75 23.65-15.1-1.85 14.7-8.3 26.7-10 7.7-22.15 10.7 2.5-4.85 4.25-10.95"/><path fill="#4a7a9e" d="M179.6 336.15q4.45 1.95 10.3 3 3 23.4 16.3 44.45 11.9 18.75 30.45 33.4l-4.35-2.55q-21.25-12.15-34.65-31.2-14.6-20.7-18.05-47.1m48.75 3q-5.4 4.5-8.7 10.8-1.25-5.45-1.55-11.05 6.15-1.25 10.5-3.6z"/><path fill="#980048" d="M204.1 340.35q7.5-.1 14-1.45.3 5.6 1.55 11.05-7.55 14.3-3.35 31.15 4.3 17 17.7 24.55 8 4.55 13.2 7.9 7.6 4.95 13.15 9.7 2.1 5.5 2.3 8.85-1.85-2.2-6.2-4.65-4.35-2.4-8.45-3.6L236.65 417q-18.55-14.65-30.45-33.4-13.3-21.05-16.3-44.45 6.8 1.25 14.2 1.2"/><path fill="#4a4c4b" d="M248 423.85q4.1 1.2 8.45 3.6 4.35 2.45 6.2 4.65-.2-3.35-2.3-8.85 16.05 13.95 17.55 29.2-.4-.25-2.65-4.2-2.1-3.75-3-4l.1 2.7q-.15 1.4-.65 1.55-.5.2-2-1.55-1.6-1.8-2.6-4.15-3.5-7.6-11.75-13.9z"/><path fill="#4a7a9e" d="M145.45 301.85q2.85 7.25 7.65 13.9 4.7 6.6 9.65 10.4-2.65 8.8-5.6 21.25-3.25 13.8-4.95 23.75-.15 1.1-.65 1.3-.5.15-1-.4-1.5-1.65-2.7-5.25-1.05-3.25-1.4-6.6-2.1 4-3.5 11.35-.95 5.1-1.4 10.65l-.45 1.4q-.35.35-1-.25-1.45-1.25-3.35-6-.85 2.9-1.25 8.6-.2 2.65-.7 3.25-5.55-20.1-1-48.05 3.75-23.4 11.65-39.3m114.9-2.65q5.75 16.65 8.35 44.3 3 31.95-2.1 50.25-.35.35-.75-8-.6-9.8-2.8-13.2-2 5.15-3.6 7.25-1.5 2.1-1.6-1-.1-3.8-1.2-9.4-1.15-6-2.5-8.15-1.05 4.2-2.9 6.75-.75 1.15-1.2 1-.5-.2-.4-1.6.95-11.3.2-23.5-.8-13.85-3.45-21.65 3.95-4.45 7.4-9.65 4.8-7.3 6.55-13.4M78.45 232q-2.25 1.6-5.4 1.25-3.75-.4-8.35-1.8-4.35-1.35-7.05-2.9-2-1.15-2.55-4.9 3.75 2 8.9 3.1l8.9.9q5.65 0 15.25-5.6 9.3-5.4 13.05-10.45l1.1 5.65q.2 1.2-.2 1.8-.4.65-1.75 1.05-4.05 1.3-10.95 5.1-6.5 3.6-10.95 6.8m27.95-41.25.55 4.8q.15 3.7-.2 6.05-1.25-.85-3.25-1.45 2-6.35-.05-15.25 2.35 3.35 2.95 5.85m237 17.6q-1.05 7.55-4.8 17.45-3.45 9-6.9 14.4-6.65.25-10.25 1.65 5.35-4.5 12.45-15.35 7.2-10.9 9.5-18.15m-1.35 37.35q1.5 3.25 6.7 7.25 5.1 3.9 8.55 4.55 4.3 2.8 6.9 3.2-3.95.95-10.85.1-7.35-.95-12.85-3.4-1.85-1.3-5.15-2.7-3.7-1.55-5.95-1.75 7.15-2.6 12.65-7.25"/><path fill="#980048" d="M358.35 177.85q-7.75 2.75-10.9 13-2.45 8-1.35 15.85l-2.7 1.65q1.05-2.65.25-3.5-1.3-1.3-10.6 5.15-9.5 6.65-14.25 12.5 5.95-11 14.05-22.5 9.85-13.85 17.6-20.55 3.45-1.85 5.65-2.45 2.6-.7 2.25.85M368 197.5q-2.8 1.9-6.55 5.4-3.9 3.6-5.35 5.75l-8.8-.8q3-2.95 9.05-6.5 5.7-3.3 8.85-4.2 2.05-.5 2.8.35m-32.05 66.55 6.35-.9q2.4-.6 2.55-1.2.15-.55-.9-1.75l-2.45-2.2q3.05 1.4 8.65 2.5 6 1.2 10.1 1.05 2.4-.05 3.6-.7 1-.5 1.9-1.8 3.6 4.9 3.6 6.35l-7.45-.35-9.25-.9q3.35 3.05 5.6 4.35.95.55 1.8 1.8-2.45 1.35-7.45.6-4.9-.9-10.1-3.1-4.6-1.95-6.55-3.75M89.9 144.65q2.6 6.95 4.45 13.9 2.45 9.1 3.15 16.1-2-2.5-4.8-4.1-3.3-1.9-6.9-2.05l1.85-13.75q1.35-9.3 2.25-10.1M59.25 155.8q5.05 5.15 8.75 13.15-2.65.75-4.05 1.5-2.15 1.15-3.8 3.3l-.45-8.45-.7-6.4q-.4-2.55.25-3.1m-13.5 39.35q-6.05-12.7-4.35-18.45 2.05 7.65 7.5 15.7 5.7 8.45 11.85 12.1-3.1 3.4-4.1 5.8-5-2.85-10.9-15.15m.5 27.75q-6.2-3.4-7.9-6.35 3.3 1.15 8.15 1.7t8.35.1q-.1 2.15.25 4.7.45 2.85 1.2 4.45-5.5-2.05-10.05-4.6m8.5 4.35 5.9 2.75q4.4 1.95 7.3 2.75-3.35-.05-8.6 1.35-3.9 1.1-6.65 2.3-.8-.9 0-4.2.8-3.15 2.05-4.95"/><path fill="#913000" d="M69.45 200.45q-6.5 2.75-9.35 10.3-2.75 7.45-.35 14.75l-4.65-1.85q-1.2-5.1.5-10.6 1.4-4.9 4.25-7.75 2.35-2.3 2.7-5.45 1.45.95 6.9.6m173.25-87.2 4.6-.4q1.05 3.55 4.2 7.8-.5 1.1-.85 3.05-.45 2-.5 3.85-.05 1.7 1.2 1.15l.65 8.25q.15 1.7-.8 2.35l-4.05.1q2.75-5.25 1-14.4-1.75-8.9-5.45-11.75m118.25 124 7.45-.4q-1.6 2.25-2 5.7-.3 3.1.4 6.35.65 3.05.1 6.4-.65 3.35-2.2 5.3-2-.3-2.9-.8 2.25-2.75 2.55-7.15.3-4.3-1.35-8.15-.85-2-2.05-7.25"/><path fill="#cc7487" d="m80.6 199.8 11.55.5q1.45.3 3.1 3.75 1.6 3.35 1.3 5-.25 1.35-4.35 5.2l-6.8 6.1q-2.7-8.05-9.8-12.35-6.5-4-12.15-2.6 1.8-2.4 5.05-4.9zm265.25 39q4.15.15 15.15-1.8.8 3.95 1.65 6.25-3.8-.3-6.85 3.1-3.1 3.4-2.65 7.6-5.75-6.05-8.55-13.95-.4-1.2 1.25-1.2"/><path fill="#4a4c4b" d="M246.95 234.3q8.1 6.2 12.1 14.1-8.15-6.2-13.1-6.5.85 5.05 1.1 10.1.35 5.8-.25 9.1-1.8-3.15-5.05-6.55-2.8-3.05-4.95-4.35.2 7.2-2.15 15.6-2.55 8.9-6.5 13.25-.7-3.15-2.05-6.85-1.55-4.25-2.9-6.25-2.65 6.35-9.45 16-7 9.95-9.3 10.25-2.5.35-11.35-10.8-8.9-11.25-11.4-17.9-1.1 2-2.3 5.7-1.35 4.3-1.35 6.85-2.95-2.55-4.9-12.65-1.75-8.85-1.55-15.45-8.15 4.2-11.7 8-.35-3.85 1.15-10.4 1.55-6.7 3.7-9.8-8.95 2.7-12.7 4.7 3.9-5.45 10.35-9.45 5.95-3.65 11.8-4.8-4.75 6.6-6.25 16.45 5-2.35 8.65-2.8-.65 3.55-.45 7.15.15 2.9.95 6.95 1.4-2 2.85-3.25 1.4-1.15 3.4-2.05 2.45 10.65 10.5 22.9 7.3 11.2 9.85 11.1 2.45-.15 10.25-12.15 8.25-12.75 9-20 4.75 8.65 5.7 12.75 2-4.95 3.3-11.15 1.4-6.6 1.2-11.3 4.7 2.7 7.85 5.85.1-3.1-2-9.15-2.25-6.1-4.4-8.75 4.8-.25 12.35 5.55m9.3-9.95-2.5-2.45 5.4-1.2q3.15-.45 5.05-.1-1.75.35-4.25 1.55zm8.8-16.5q-2.3 1.95-5.45 5.7-3.05 3.5-4.65 6-.7 1.15-1.35 1.4-.8.25-1.65-.5-2.1-1.8-3.8-2.85 2.85-2.8 8.75-6.15 5.65-3.2 8.15-3.6m-115.15-7.3q3.75.85 8.5 3.4 4.5 2.35 7.85 5.1l-2.95 1.2q-1.75.7-2.4 1.1-2.75-1.7-5.95-4.75-3.3-3.25-5.05-6.05m2.05 10.2q3.6 1.25 7.45 1.35l-3.85 1.85q-1.95-1.2-3.6-3.2m-29 5.95q8.2 3.15 14.15 6-2.95 1.15-4.95 1.2-2.45.1-4.05-1.3-2.4-2.1-5.15-5.9m166.3 20.35q-4.4 1.45-6.5 1.45-2.2 0-5.3-1-3-.95-5.4-2.35l24.3-.95q-3.15 1.55-7.1 2.85m-210.7-4.9 4.45-2.8q3.1-.8 10.85.05 3.05.4 7.1-.15 4.35-.5 7.55-1.9-1.9 2.75-7 4.15-4.95 1.4-11.15 1.15-5.45-.25-11.6 2.65-4.95 2.3-8.35 5.5-1.1 1.1-1.7.9-.4-.05-.7-1.25-.3-1.1-.45-3.6-.2-2.75-.05-4.45 5.45 1.35 8.1 1.05.95-.15 2.95-1.3m24.95-32q2.6.6 5.3 2.8 2.55 2.05 3.95 4.5.95 1.65 1.55 4.75.55 3.2.25 5.65-.25 1.7-1.65.95-1.45-.7-1.4-2 .15-4.1-1.7-8.4-2.15-5-6.3-8.25m3-21.9q1.3-.45 5.9 7.45 4.3 7.3 5.65 11.35 1.05 3.1 1 7.4-.1 3.35-.75 6.2-.4-3.85-1.75-8.85-1.4-5.05-2.7-7.35-1.3-2.15-4.05-8.2-2.7-5.95-3.3-8"/><path fill="#4a4c4b" d="M107.15 228.6q2.95 4.15 9.45 7.4 5.95 3 9.8 2.95 4.9-.05 15.55-4.8 11.25-4.95 15.95-9.65-2.5 4.3-4.5 9.8l-3.6 5.05q-2.1 3.35-3.4 6.15-9.75 5.35-14.7 6.7-3.95 1.1-6.8 1.05-2.95-.05-6.15-1.35-5.65-2.4-14.45-8.25-9.05-6-14.25-11 11.25 1.15 17.1-4.05m238.45 13.05q-.05 1.55-5.35 5.5-5.55 4.1-10.2 5.65 5.2 1.65 9.7 4.15 5.45 3 5.1 5-.35 2.15-11 2.15-11.35 0-17.1-3.5-1.85-1.1-4.35-.25-6.6 2.25-16.1 4.35-12.8 2.75-18.2 1.95t-10.45-5.3q-2.75-2.45-6.65-7.5l-1.85-6.4q-1.7-5.95-2.95-8.45 5.4 7.2 12.8 12.45 6.95 4.95 11.1 5.05 6.55.2 16.6-1.5 9.4-1.65 14.55-3.6 1.75-.65 2.65-.75l2.4.05q5.95.65 16-2.7 9.15-3.1 13.3-6.35"/><path fill="#4a4c4b" d="M343.65 204.85q.15 6.4-8 19.75-7.85 12.8-14.1 17.45-1.7 1.3-3-.25-1.25-1.5.05-2.75 6.55-6.3 14.05-16.45 7.7-10.4 11-17.75m-11.85-3.4q-6.8 9.9-13 21.05-2.45 2.85-4.9 6.5 2.2-11.25 14.1-26.65 11-14.2 23.3-23.5-8.95 7.35-19.5 22.6M43 87.6q11.45 6.9 41.55 21.8 26.65 14.15 36.5 25.45 8.35 9.7 20.8 30 8.15 13.3 19.9 34.4-5.6-.7-8.2-.2-5.6-7.5-23.1-35.25-14.15-22.35-19.55-27.25-5.55-5.1-32.85-23Q49.45 94.8 45 91.2q-2.2-1.8-2-3.6m-21.85 85.25q6.4 1.5 19.7.45 12.6-1.05 19.05-3.2l.25 3.65q-1.85 2.1-3.5 5.35-3.4-1.15-7.85-1.95l-5.5-.8q-1.4-.05-1.85.6-.55.6-.45 2-4.1 0-11.35-1.9-8.15-2.15-8.5-4.2m88.2 7.9q10.05 4.8 24.05 14.75 11.9 8.35 19 14.8l-.7.2q1.8 2 3.85 3.45-1.8.95-7.05 3.6-4.05-3.65-13.45-9.75-10.65-6.95-16.15-8.75-1-3.4-4.15-9.35-2.95-5.55-5.4-8.95m208.9 27.55q-5.6-.05-9.8 1.35-5.25 1.95-22.25 9l-23.9 10.15-6.05-4.45q3.05-2.25 7.95-3.75 10.15-6.2 24.2-12.45 15.7-7.05 24.2-8.5l13.8-.55q-3.6 3.65-8.15 9.2m29.25-.3-2.2-.15 4-7.35 6.8.75q-5.4 3.15-8.6 6.75m17.55-.2q1.1-2 1.85-4.85 15.85 2.95 22.1 7.15-1.9 1-10.1 0zm-10.95-70.25 26.95-6.75q13.75-3.6 19.35-6.05 1.5 1.1-3.5 3-25.6 9.55-44.45 16.9-36.05 14.05-43.4 19.05-5.15 3.55-20.55 19-12.25 12.35-23.9 24.9l-5.95-.65q9.95-14.05 22.95-29.2 14.9-17.15 22.4-22.05 13.25-8.7 50.1-18.15m-154.3-3.2q10.6-1.85 21.4-6.55 2 3 5.25 6.55 3.65 3.9 6.3 5.7l-2.45 7.25q-1.4 4.5-2.15 5.2-4.35 4.25-13.1-.5-9.55-5.2-15.25-17.65"/><path fill="#dcdddd" d="M241.1 129.9q.65 3.05.05 7.3-1.65-.55-3.4-2.1 1.65-1.6 3.35-5.2m12.5-6.45 3.05 2.45q-2.45 1.85-6.4 3 1.8-2.25 3.35-5.45m11.55 7.5 2.8.45q-1 2.5-4.4 4.45 1-1.85 1.6-4.9"/><path fill="#980048" d="m223.2 265.95 1.85 3.65q-.5 1.85-1.8 4.5-.75-2.45-1.8-4.45zM74.8 233.6q-1.65 1.35-3.3 3.35-2.35 2.9-2.5 4.95-.6-.7-1.15-3.7-.5-2.9-.45-5.5l3.6.5z"/><path fill="#4a4c4b" d="M338.55 269.05q-3.25-.7-6.65-2.25-3.25-1.55-4.8-3.05 2.3.5 11.7-.2 3.7 3.9 11.95 7.1z"/><path fill="#0f141b" d="M232.9 130.5q6.1 6.25 15.95 8.4 2.65.55 2.35-1.3-.5-3.4-.7-8.65l1.65-.45q.15 5.25.7 8.95.25 1.8-.95 2.7t-3.4.4q-10.3-2.2-16.85-9.15-6.6-6.95-10.7-19.9-.45-1.05.65-1.15l7.8.6 7.15 1.15q5.15.7 10.45-.05.9-.15 1.15.6 2.3 6.8 8.75 12.5 6.4 5.7 11.15 5.2 1.95-.2 4.3-2.45 2.65-2.55 2.5-5.35-.1-1.8-1.75-4.35-1.6-2.5-3.7-4.25-.85-.65-.55-1.05.3-.45 1.15.2 2.45 1.65 4.3 4.1 2.15 2.8 2.4 5.25.3 3.55-2.9 6.75-2.85 2.9-5.6 3.15-5.15.5-11.95-5.25-6.85-5.85-9.55-13.25-5.75.75-10.4 0l-6.5-1.15-7.1-.75q4.05 12.25 10.2 18.55"/><path fill="#0f141b" d="m249.45 129.65-.1-.7q-.15-5.05 1.45-9.5l1.2 1.6q-.6 1.7-1.05 4.3-.4 2.55-.2 2.75l2.1-.7q1.7-.9 3.1-1.9l1.3 1q-3.8 2.7-7.1 3.2zm12.55 3.7q-.35-1.95-.3-3.75l1.5.6q.05 1.5.25 3.05.2 1.7.45 1.8t1.5-1.2l2-2.55 2-.2-2.55 3.3q-1.55 1.55-3 2.35-.65.4-1-.2-.55-1.25-.85-3.2M241.75 130l.35 3.9-.1 3.85-1.5-.6q.65-6.2.15-6.45-.2-.15-2.15.95t-3.2 2.15l-1.25-1.1q2.5-2.05 6.6-3.3 1.05-.4 1.1.6"/><path fill="#0f141b" d="M246.55 139.2q2.35-5.5.85-13.85-1.6-8.8-6.3-12.15h2.55q4.35 4.1 5.55 12.6 1.15 8.2-1.3 13.9z"/><path fill="#0f141b" d="M241.4 72.4q-3.75-.45-11.1 2.65-7.55 3.25-10.4 6.7-4.6 5.65-6.2 14.15-1.7 9.35 1.4 17.4 10.75 27.75 29.65 30.4 3.85.55 6.05-.85 2.25-1.45 1.35-4.1l1.7-.35q1.2 3.45-1.45 5.7-2.75 2.25-7.85 1.5-19.65-2.7-31.2-31.65-3.55-8.9-1.55-18.85 1.7-8.7 6.55-14.7 3.05-3.7 11.25-7.15 8-3.4 12-2.85 3.6.45 10.6 6.3 6.05 5.05 8.4 8.35.55.75 1 .65.5-.15.95-1.35.6-1.5 1.85-1.75 1.2-.3 2.45.7 5.4 4.45 7.2 14.45 1.9 10.3-1.65 18.3l-1.3-1.4q2.95-7.5 1.15-16.95-1.8-9.1-6.4-13.05-1.3-1.15-2 .5-.75 2-2.1 2.2-1.3.2-2.3-1.25-2.2-3-8.05-7.8-6.75-5.5-10-5.9"/><path fill="#0f141b" d="M266.1 83.55q3.35 4.85 4.25 11.15 1.15 7.85-1.7 16.75-.35 1.1-.85 1-.45-.1-.15-1.3 2.3-8.9.9-16.75-1.2-6.6-4.7-10.8zm3.5 44.4 1.15-.85q.35-.3.6 0 .3.25.05.6-.3.6-1.45.85-.6.1-.7-.15-.1-.2.35-.45m-5.35-2.25.1.5-.4-.05q-1.05-.5-1.3-1.65-.1-.45.25-.65.4-.15.6.25zM240 71.15q8.25 2.25 11.35 14.45 3 11.8-.75 23.85-.35 1.05-.85.95-.45-.15-.25-1.2 3.3-14.05-.7-25.4-4.1-11.7-13.05-11.75z"/><path fill="#0f141b" d="M243.5 88.25q2.35 3.2 3 8.55.5 5.15-.55 11.45-.2 1.1-.65 1-.55-.05-.4-1.15 1.5-13.2-2.9-19-1.9-2.55-6-3.15l-8.1.4-1.35-.15q-.1-.5 1.1-.95 4.45-1.55 8.85-.9 4.7.75 7 3.9"/><path fill="#0f141b" d="M230.6 85.35q-2 7.65.35 12.1 2 3.85 7.05 4.9 5.5 1.1 7.7 2.95l-.15 1.5q-1.45-1.15-3.2-1.8l-4.55-1.1q-5.7-.9-8-4.9-2.75-4.8-.5-13.5z"/><path fill="#0f141b" d="M243.25 93.35q.85 1.95.95 4.85.1 2.85-.45 3.2-.6.4-2.8-.85-2.6-1.4-3.8-3.75-.95-1.9-1.2-4.65-.2-2.5.25-2.95.55-.6 3.15.5 2.9 1.25 3.9 3.65m-6.1-3.05q-.25 3.2 1.4 6.15 1.7 3.05 4.45 3.8.4-4-1.25-6.95t-4.6-3m-.35 51.85q1.2 4.6 4.7 9.35 2.95 4.05 7.1 7.6l3.8 3.45 2.8 3.4q.4.5.65.4.3-.1.35-.8.45-5.4-.75-12.1-1.2-6.6-3.3-10.5l1.3-2.05q2.3 4.2 3.65 11.4 1.35 7.6.7 13.55-.2 1.9-1.4 2.35-1.2.4-2.3-1-2.5-3.35-6.75-6.65-4.65-3.6-8-8.4-3.7-5.25-5.2-11.15zm38.8-22.45q3.3 4.45 6.7 8.45 4.15 4.95 6.65 6.9 5.7 4.45 10.15 5.35 2.6.5 2.75 2.15.1 1.5-1.95 2.45-4.1 2.05-13.9 2.95-9.65.9-13.2-.3-2.95-.95-10.25-6.3-7-5.15-11.05-9.15l.05-2.95q3.9 3.95 11.3 9.5 7.8 5.8 10.7 6.75l12.9.5q9.2-.65 12.75-2.4.8-.4.65-.9-.1-.55-1.1-.75-5.1-1-10.95-5.5-5.35-4.25-12.05-13.15z"/><path fill="#0f141b" d="M313.65 34.35q-.5-.55-3.25.5-5.75 2.25-18.3 9.8-12.45 7.45-15.6 10.4-2.9 2.8-7.6 9.3-4.35 6.1-6.7 10.55l-.8-2.9q2.5-4.65 6.45-10.05 4.15-5.8 7.15-8.65 3.1-2.9 15.95-10.3 12.7-7.2 18.85-9.65 3.85-1.55 5.1.1 1.2 1.7-1.4 4.9-9.25 11.2-16.25 20.15l-7.4 9.9q-2.05 3.2-5.65 11.4-3.4 7.9-4.85 12.5-.4 1.2-.2 1.8.2.55 1.1.85 4.05 1.2 14.3 1.2 6.95 0 11.9-1.65 6.25-2 12.3-3 2.5-.45 3.1.45.55.85-.45 2.25-2.8 4-10.1 11-7.6 7.2-12 9.9-3.5 2.15-11.15 3.65-7.1 1.4-12.95 1.4l-1.15-2.25q5.45.2 12.7-1.15 7.75-1.45 11.3-3.55 4.4-2.7 11.6-9.2 7-6.35 10.15-10.4.6-.8-.75-.6-5.05.9-12.05 3.45-5.7 2.05-12.4 2.05l-7.85-.45-7-1.3q-3.5-1.05-2.25-4.9Q279 86.8 282.25 79q3.55-8.65 5.65-11.75 1.15-1.8 7.75-9.85l16.6-20.05q2.05-2.35 1.4-3"/><path fill="#0f141b" d="M263.45 2.55q-7.2 6.05-17 17.75-9.85 11.65-11.1 15.65-1.7 5.7-3.35 17.05-1.8 12.3-1.85 21.05l-2.4.95q.1-8.6 2-22.1 1.8-13 3.35-17.6 1.45-4.2 11.35-15.9Q254.8 7.25 262.4 1.3q2.45-1.9 3.85-1.15 1.5.8 1.1 4.3-.6 5.25-1.95 11.1l-3.15 11.85q-1.5 5.55-2.9 11.7-1.35 6.25.2 18.1 1 7.75 3.6 19.65.25 1.2-.25 1.3-.45.1-.8-1.05-3.2-9.95-4.75-20.65-1.6-11.55-.3-17.65.45-2.25 3.35-12.1l3.25-11.75q1.5-6.1 2.15-10.9.25-2.05-.35-2.35-.6-.35-2 .85"/><path fill="#0f141b" d="M190.4 47.15q.35 13.5 1.55 17.2 1.2 3.6 8.4 13.2 6.75 9 10.95 13.05l-2.85.1q-4.4-4.35-10.7-12.9-6.7-9.05-7.9-12.75-1.15-3.65-1.3-17.7-.15-12.9.6-22.25.15-2.35 1.5-2.5 1.35-.2 2.35 2.15 2.45 5.75 8.75 17.8 6.5 12.35 10.45 18.65 2.4 3.8 8.3 7.7 5.7 3.75 10.15 4.75l-2.9 1.35q-4.65-1.45-9.7-5-5.45-3.75-7.85-7.6-3.7-5.9-10.15-18.95-5.7-11.4-8.45-18.1-.8-1.75-.95.1-.65 8.6-.25 21.7"/><path fill="#0f141b" d="M172 92.55q11.8 13.8 14.95 14.95 3.35 1.3 10.4 2.2l11.95.75q1.2-.05 1.35.5.15.6-1 1.1-7.5 3.5-16.65 10.45-8.65 6.5-11.05 10-.8 1.05.95 1.2 9.15 1.05 18.65-.85 3.75-.7 9.65-2.55 5.35-1.65 9.35-3.3l1.15 1.9q-3.9 1.6-9.5 3.3-5.9 1.8-10.35 2.7l-9.7 1-9.55-.5q-1.85-.25-2.45-1.3-.65-1.05.45-2.65 2.8-3.95 9.75-9.4 7.4-5.9 15.3-9.9l-11.4-.65q-5.15-.7-8.1-1.85-3.4-1.3-15.45-15.75-10.25-12.3-15.6-20.05-2.25-3.25-.65-4.25 1.4-.95 4.1.65 4.9 2.9 17.25 9.1 13.95 7.1 17.85 8.2 4.5 1.35 8.55 1.9l9.15.75q1.15.05 1.15.45 0 .5-1.15.6-9.1 1-18.25-1.55-3.85-1.1-18-8.55-11.3-6-17.3-9.5-1.55-.9-2-.5-.35.35.65 1.85 5.05 7.25 15.55 19.55"/><path fill="#0f141b" d="M202.8 133.6q-5 12.65-11.05 36.75-5.7 22.8-8.8 41.45-.25 1.7-.85 1.65t-.4-1.8q2.25-18.9 7.95-42.1 5.3-21.7 10.8-35.65zm30.85 6.9q-7.05 19.05-8.3 33.95-1.25 15.35 2.55 38.65.25 1.35-.35 1.45-.65.1-.9-1.25-4.55-23.25-3.4-38.75 1.1-15.1 8.65-35.05z"/><path fill="#0f141b" d="M176.3 179.9q5.15 6.35 9.05 13.8l-.35 2.4q-3.4-6.7-8.95-13.7-6.45-8.15-11.6-11.15-1.1 5.35.15 14.45 1.25 9.05 4.05 16.55.4 1.05-.05 1.25-.5.2-.95-.8-3.35-7.8-4.75-17.5-1.5-9.95.1-15.35.2-.65.45-.8l.75.2q5.7 2.75 12.1 10.65"/><path fill="#0f141b" d="m155.6 205.95 4.15 3.75q.7.5.55.9-.15.35-.9.3l-6.2.15q1.8 1.85 3.45 2.65l-1.55.75q-2.1-1.2-3.95-3.35-.95-1.05.4-1.25l6-.25q-5.85-5.05-8.9-8.7-.8-.95.3-1.4 3.6-1.55 9.25-1.3 5.1.3 9.1 1.85l.6 1.75q-3.55-1.7-8.45-2.05-5.15-.35-8.8.9z"/><path fill="#0f141b" d="m106.65 187.1 1.1 7.05q.35 3.65.1 8l-1.9-1q.2-4.2-.1-7.55-.2-2.75-.95-6.25-.8-4.05.25-8.35.4-1.55 1.4-1.75.95-.2 1.9 1.1 2.55 3.4 6 9.25 3.85 6.55 4.9 9.7 1.25 3.75.65 12.85-.05.9.35 1.75l.8 1.3q2.35 3.35 7.4 8.4 2.7 2.75 9.65-.1l18.8-9.05q12.65-6.15 17.8-7 1.35-.2 1.45.25.05.45-1.25.8-5.1 1.3-17.9 7.85-15.9 8.15-18.15 9.1-8.2 3.5-11.85-.15-4.4-4.55-7.45-9.05-1.55-2.25-1.45-4.15.4-8.55-.9-12.35-1.05-3.3-4.45-9.45-3.25-5.9-5.6-9-.5-.7-.65.1-.35 1.5-.35 3.7.05 2.2.4 4"/><path fill="#0f141b" d="M101 198.85q3.4.15 7.05 2.45 3.8 2.4 5.6 5.8.95 1.65 1.15 4.5.3 2.8-.1 5.75-.2 1.25-.7 1.25-.45 0-.45-1.25 0-6.3-1.65-9.45-1.7-3.1-5-5.25-3.2-2.1-5.95-2.25-.75-.05-1 .35-.3.55 0 1.9 2.25 8.7 3.25 14.85.45 2.4-1.9 3.1-3.45 1-11.9 5.8-5.7 3.25-11.6 7-1.65 1.1-4.05.9-4.4-.3-9.15-1.7-5.3-1.6-8-3.7-2.95-2.2-2.8-9.5.1-8.05 4.6-13.2 3.45-3.95 3.55-6.65l1.45.7q-.1 1.65-1.1 3.3-.8 1.4-2.6 3.45-3.85 4.3-4.05 11.75-.3 6.85 2.05 8.7 2.5 1.9 7.4 3.4 4.55 1.35 8.8 1.7 1.95.15 3.25-.7 17.6-11 23.6-12.95.9-.25.75-1.3-1.15-7.05-3.1-14.6-.5-2.15.25-3.25.7-1 2.35-.9"/><path fill="#0f141b" d="M57.15 190.25q1.65 4.35 4.2 7.5 1.15 1.45 2.45 1.75l3.65.1q20.2-1.3 24.45-.15 1.7.5 3.4 3.35 1.5 2.45 1.8 4.35.35 1.65.2 2.4l-1.25 2q-2.65 3.05-9.15 8.4-7.55 6.3-11.05 7.55-3.95 1.35-11.1.25-7.65-1.15-9.6-4.1l.6-1.6q.4 2.35 7.85 3.85 7.5 1.55 11.75.05 3.25-1.15 10.4-7.1 6.35-5.25 9.1-8.35l.9-1.3-.15-1.75q-.25-1.65-1.55-3.8-1.4-2.3-2.5-2.6l-11.25-.4-12.75.7-4.1-.25q-1.9-.5-3.3-2.25-2.7-3.3-4.5-8.15-1.75-4.6-1.45-7.05.3-2.75 2.85-7.1 2.7-4.7 5.4-6.45 4.75-3.05 15.95-3.1 11.85-.05 16.4 3.8 3.35 2.9 6.35 7.1 2.95 4.25 4.75 8.75l.8 7.45q-1.55-5.3-5.45-11.8-4.05-6.8-7.75-9.9-4.25-3.65-15.25-3.55-10.5.1-14.85 3-2.55 1.6-4.95 5.7-2.2 3.8-2.55 6.25-.25 2.25 1.25 6.45"/><path fill="#0f141b" d="M70.95 200.3q-7.25 3.65-10.1 10.9-2.75 7.25 0 14.75l-1.55-.15q-2.5-7.5-.3-14.2 2.2-6.8 8.75-11.2zm30.85-12.75q.6 4.1-.7 6-1.85 2.75-8.05 1.5-6.05-1.2-6.1-3.75-.05-2.4 4.45-6.1 4.8-3.95 7.95-2.55 1.8.75 2.45 4.9m-9.65-1.2q-3.95 3.1-3.8 4.8.1 1.75 5.05 2.55 5.05.8 6.35-1.1 1-1.5.6-4.75-.4-3.2-1.6-3.75-2.45-1.1-6.6 2.25"/><path fill="#0f141b" d="m57 178.55-.7 1.6q-2.5-1.05-6.35-1.9l-6.6-1.05q-1.1-.05-1.4.3-.25.25-.15 1.4.9 8.1 5.3 17 3.85 7.75 8.9 13.2.5.55.4 1-.15.45-.95.45-3.9.1-8.75 1.75-4.85 1.7-7.2 3.75-.75.7 0 1.3 2.75 2.45 8 5.25 5 2.75 8.65 3.95l1.6 2.45q-3.65-.7-9.95-4.15t-9.35-6.35q-.95-1-1-1.7 0-.75.95-1.75 2.1-2.1 6.5-3.9 4.5-1.85 8.75-2.25-4.95-5.4-8.6-13.25-3.95-8.45-4.75-16.6-.2-1.95.5-2.75.75-.7 2.6-.65l6.7.9q4.35.9 6.9 2"/><path fill="#0f141b" d="M79.65 235.8q-5.55 2.4-9.3 6-1 1-1.9.8-1-.25-1.25-1.7-.8-4.4-.75-7.05l-6.35.9q-3.3.8-5.9 2.05-3.3 1.55-2.85-1.75.25-1.8 1-4.15.85-2.6 1.85-4.15l1.55.8q-1.05 1.4-1.85 3.7-.8 2.15-1.05 3.85-.05.75.75.3 3-1.4 6.85-2.35l6.9-1q1.05-.1.95.8-.15 4.4.35 7.6.15.75.8.1 4.15-3.95 9.95-6.45 6.3-2.65 11.8-2.35l9.1-.5q3.95-.95 6.9-3.45 1-.8 1.3-.4.35.3-.5 1.25-5.15 5.5-17 4.8-5.25-.3-11.35 2.35"/><path fill="#0f141b" d="M90.9 232.45q4.25 4.15 13.65 10.3 9 5.8 13.8 7.8 7.25 3 14.35.1 10.4-4.3 14.85-7.45l-.85 3.1q-4.95 3.1-13.45 6.55-3.9 1.65-7.7 1.55-3.85-.05-8.05-1.8-5-2.1-14.8-8.75-10.1-6.85-14.15-11.1zm28.35-23.8q15.5 5.55 26 10.65l-2.05 1q-8.6-4.35-24.05-10zM89.8 143.8q1-.3 2.3.75 4.85 3.95 9.8 14.8 4.65 10.35 5.9 18.85l-2.1.45q-1.3-8.75-5.4-18.5-4.5-10.65-9.1-14.4-1.1-.85-1.35.6-1.7 8.95-3.15 22.2l-1.95-.2q.75-6.85 3.55-22.25.4-1.95 1.5-2.3m-29.1 11.05q4.2.2 10 4.25 5.5 3.8 9.25 8.75l-2.4.1q-3.6-4.45-8.25-7.7-5.05-3.65-8.7-3.85l-.9.2-.1.95q1.3 9.45 1.2 15.65l-1.75 1.75q.15-8.65-.95-17.2-.2-1.6.4-2.25.65-.7 2.2-.65m57.8 42.7q9.05 4.4 17.9 9.95 7.95 5.05 13.2 9.55l-1.8 1.05q-4.95-4.25-12.75-9.2-7.95-5.05-16.25-9.2z"/><path fill="#0f141b" d="M38.05 165.15q.8.35.8.75l-.75.75q-6.65 3.25-15.25 5.8-1 .35-.9.65.1.35 1.35.9 3.9 1.8 8.65 2.9 4.7 1.05 9.1 1.25v1.75q-10.15-.6-18.45-4.5-2.2-1-2.35-2.3-.2-1.4 2.1-2.05 6.8-1.95 13.5-5.1-6.2-2.95-17.15-9.15-10.4-6-17.15-10.35-1.95-1.25-1.55-2.5t2.8-1.05l29.55 3.2 41.8 4.1 14 1.65-.5 1.9-13.65-1.6-41.95-4.45-29.4-3.45q-.9-.05-1 .2-.15.25.65.8 5.85 3.9 17.9 10.6 11.85 6.6 17.85 9.3m60.6-10.65q6.1 2.1 10.75 5.1 6.35 3.95 20.9 18.05 11.75 11.4 21.5 21.85l-1.8.5q-9.25-10-21.15-21.3-14.15-13.5-20.5-17.45-4-2.6-8.45-4.2zm64.9 29.05q-6.1-12.5-12.9-29.15l-9.45-22.45q-5.05-11.2-8.1-15.05-9.4-11.9-47.8-40.4-33.05-24.55-50.85-35.2-.95-.65-1.1-.4-.2.25.6 1.55Q39.25 51.2 48.6 64q10.2 14 16.45 20.65 1.3 1.35-.6 1.3-5.15-.15-10.65.2-6.1.35-9.25 1.15-.9.25-.95.65 0 .5.9 1.4 3.45 3.45 32.3 22.05 28.85 18.55 34.85 24.6 6.4 6.45 12.25 15.45 3.65 5.45 11.35 18.35 12.9 20.7 19.55 29.25l-2.25.2q-3.9-5.05-9.25-13.25l-9.6-15.3-11.85-18.75q-6.35-9.55-11.5-14.55-4.6-4.55-33.75-23.65-29.05-19.1-33.35-23.25-1.7-1.65-1.4-2.95.3-1.25 2.3-1.8 6.25-1.65 18.4-1.45-6.3-6.9-15.95-20.35-8.7-12.05-13.95-20.7-1.7-2.85-.7-3.75.9-.85 3.2.5 18.45 11.1 51.3 35.25 38.9 28.6 48.25 40.5 3.15 3.9 8.25 15.2l9.45 22.5q8.2 20.05 11 25.85zm51.8 49.3q-4.8 5.35-10.75 7.85l-1.3.05q-.15-.4.85-1 5.35-2.95 9.75-7.85 4.35-4.8 6.7-10.15.5-1.1.9-.95.45.2.1 1.35-1.65 5.55-6.25 10.7m-64.2 7.75q.8-7.4 5.4-15 4.7-7.8 10.4-10.6 1.15-.55 1.35-.2.25.4-.85 1.15-5.5 3.8-9.45 10.35-3.65 6.15-5 12.85 5.75-2.7 12.45-4.6l-.8 2.05q-5.4 1.5-12.4 4.85-1.25.55-1.1-.85"/><path fill="#0f141b" d="M167.05 233.35q-2.8 4.2-4.7 10.25-1.85 5.95-1.85 10.6 4.9-4.65 12.65-7.55 1.15-.5 1.35 0 .2.4-.9.95-3.9 1.8-6.95 4-2.95 2-6.45 5.3-.55.55-.9.4-.3-.15-.4-.95-.6-4.8 1.5-11.8 2.1-7.1 5.75-11.8.85-1.05 1.2-.75.45.3-.3 1.35"/><path fill="#0f141b" d="M172.35 247.7q-.2 6 .95 13.2 1.45 8.65 4.2 13.1 1.1-6.45 3.8-11.55l.8 1.7q-2.4 5.55-3.45 12.45-.05.7-.45.85t-.8-.4q-3.8-4.6-5.45-14.7-1.1-6.9-1-14.1z"/><path fill="#0f141b" d="M193.75 280.95q8.45 10.35 10.65 10.3 1.7-.05 9.4-10.9 8.55-11.95 10.3-19.9.25-1.2.8-1.1.45.1.25 1.3-1.4 8.65-10.2 21.25-8 11.5-10.5 11.55-2.75 0-11.6-10.85-10.05-12.4-13.1-23.4-.3-1.1.25-1.25.45-.2.8.9 3.25 10.25 12.95 22.1"/><path fill="#0f141b" d="M235.8 265.1q-2.3 8.75-6.9 14.9-1.3 1.55-1.65-.3-.5-3.05-1.85-6.9-1.25-3.7-2.6-6.15l.8-1.65q1.4 2.35 2.7 5.6 1.5 3.65 2.2 6.75 3.9-6.15 5.95-13.8 2.25-8.45 1.45-16.25-.15-1.4.35-1.45t.7 1.3q1.4 8.45-1.15 17.95"/><path fill="#0f141b" d="M241.5 232.45q3.95 2.65 5.6 12.45 1.5 8.7.55 17.35-.1.8-.6.9-.45.05-.8-.7-2.55-5.5-9.6-11.6v-1.9q6.5 4.65 9.65 10.45.4-8.6-.9-15.55-1.45-7.85-4.55-10.5-.8-.7-.5-1.1.2-.45 1.15.2"/><path fill="#0f141b" d="M254.3 233.35q4.9 8.35 5.65 15.7.1.7-.3.9-.3.25-.85-.25-5.6-4.95-13.05-7.05l-.3-1.85q7.45 1.65 12.6 6.2-1.4-6.55-5.6-13.75t-8.65-10.65q-.95-.75-.7-1.15.3-.4 1.3.25 5.2 3.6 9.9 11.65"/><path fill="#0f141b" d="M153.15 236.1q-10.35 15.55-11.7 34.05-1.25 17.75 5.95 33.55 7.4 16.2 21.65 25.5 15.3 10.15 35.3 10 17.5-.2 31.1-9.3 12.45-8.3 19.8-22.65 7-13.6 7.8-29.3.75-15.75-4.9-29.15l1.55-1.1q6.35 14.65 5.65 31.2-.7 16.35-8.05 30.35-7.6 14.55-20.65 23-14.15 9.2-32.3 9.4-21.9.2-38.25-11.15-14.95-10.45-22.1-28.2-7-17.25-4.6-36.1 2.55-19.5 14.7-34.6z"/><path fill="#0f141b" d="M164.2 252.55q-6.25 10.6-7.05 35.6-.75 26.05 6.1 37.25l-3.2-1.85q-5.85-11.35-5.1-35 .75-22.4 6.15-33.75zm22.15 19.4q-4 10.7-4 31.3 0 23.9 7.05 35.3l-2.45-.15q-7.35-12.15-6.9-36.35.3-21.3 5.15-32.1zm35.7-3.3q5.7 12 4.9 34.5-.8 23.2-8.3 35.65l-2.55.35q7.5-12.6 8.7-34.95 1.2-21.45-3.95-33.7zm25.55-7.3q3.95 13.25 2.3 33.95-1.75 22.5-9.45 32.7l-5.25 3.15q9.15-8.15 12.1-33.2 2.65-22.85-1.4-36.3z"/><path fill="#0f141b" d="M240.2 285.4q-5.95 4.6-14.15 7l-.15-1.95q8.1-2.55 13.8-7.15 5.9-4.7 8.8-11.2l.45 2.7q-3 6.15-8.75 10.6m-71.9-3.65q6.25 4.3 13.8 7.1l-.35 1.85q-15.25-5.7-24.45-16.6l.35-2.15q4.3 5.45 10.65 9.8m57.1 27.75q7.9-2.4 13.85-6.35 6.15-4.1 9.5-9.45v2.85q-6.45 10.05-23.3 14.9zm-43.85 1.7q-8-2.15-14.7-6.5-6.35-4.05-10.8-9.6l.1-2.6q4.25 5.65 10.75 9.95t14.65 6.8zm40.85 15.35q7.25-2.05 13.35-5.75 6.25-3.8 10.1-8.55l-.5 3.1q-3.8 4.55-9.85 7.95-6.05 3.45-13.6 5.35zm-38.5 1.25q-14.8-4.1-26.5-16.85l-.3-2.85q10.9 12.35 26.3 17.5zm55.75-137.85q-9.25 7.25-13.6 14.35l-.4-2.15q4.75-7.3 14-14.4 9.7-7.5 18.65-10.15 1.35-.35 1.05.95-1.2 6.75-5.4 16.45-4.1 9.6-8.4 15.85-.75 1-1.2.75-.45-.3.25-1.35 3.85-5.95 7.65-15.25 3.65-8.7 5.35-15.55-8.7 3.25-17.95 10.5"/><path fill="#0f141b" d="M265.7 208.35q-6.2 5.75-9.5 10.4 4.3-.1 8 1.2.8.25.85.7 0 .5-.85.65-4.1 1.1-7.4 3.45l-1.1-1q2.7-2 5.8-3.05-2.95-.8-6.5-.65-.6.05-.75-.2-.2-.3.1-.8 3.7-5.55 9.35-10.9-7.55-1.1-18.1 1.65l.95-1.65q10.5-2.8 18.7-1.3.85.15.95.55.05.45-.5.95"/><path fill="#0f141b" d="M359.15 178.65q-.85 5.15-4.8 14.1-3.75 8.5-7.95 15.2l-2.4-.05q4.25-6.6 8.4-15.55 4.1-8.9 5.2-13.95v-.8q-.15-.15-.7 0-11.15 2.9-28.2 20.75-16 16.7-21.75 29.3l-1.2 2.3-1.7 1.45q-8.05 5.2-16.8 7.45-3.8 1-6.15.8-3-.3-7.6-2.45-3.2-1.5-10.1-6.45-6.35-4.55-10.15-7.85-3.55-3.15-6.25-4.85-2.55-1.55-5.4-2.4-1.1-.3-1-.75t1.15-.3q5.35.65 12.75 7 3.9 3.3 10.3 7.65 6.5 4.55 9.55 6 4 1.85 6.15 2.15 2.4.3 6.25-.75 9.25-2.4 16.4-6.9 1.15-.85 2.05-2.8 6-13.75 21.8-30.1 16.95-17.5 29.55-20.8 1.75-.45 2.3.25.6.55.3 2.35"/><path fill="#0f141b" d="M354.25 177.65q-8.6 6.3-19.3 20.8-9.2 12.5-13.85 21.95l-4.05 4q3.75-9.2 13.3-22.65 10.8-15.15 20.2-22.65z"/><path fill="#0f141b" d="M344.6 206q-1.25 6.8-7.5 17.4-6.25 10.55-12.85 17.05 5.95-1.45 13.65-.95 7.5.5 7.9 2.1.55 1.85-5.35 6.35-6.45 4.8-13.2 6.25-1.05.25-1.25-.25t1-.8q4.9-1.35 9.9-4.6 4.2-2.75 7.45-6.05l.25-.5q0-.2-.45-.3-3.65-1-10.1-.75-6.9.2-12 1.65l-1.35-.15q-.35-.5.55-1.3 6.4-5.9 13.5-17.4t8.35-17.95v-.5l-.35.05q-5.1 1.7-14.15 9.15-9.35 7.7-13.6 14-.75 1.2-1.25.95-.4-.3.35-1.5 4.25-7 13.05-14.45 8.6-7.3 15.15-9.65 1.35-.5 2 .15.6.55.3 2"/><path fill="#0f141b" d="M344.8 259.9q1.15 1.2.9 2.25-.25 1-1.95 1.45-5.95 1.8-14.35 1.15-8.5-.75-13.55-3.55l-1.4-.4-1.8.4q-7.55 2.95-18.95 5.1-11.25 2.2-15.4 1.65-4.1-.55-8.3-3.35-4.25-2.9-8.2-7.8l-.95-4.65q4.15 5.55 8.8 9.2 4.85 3.8 8.85 4.4 4.2.5 16.25-1.85 11.45-2.25 17.4-4.5 1.4-.6 2.35-.6 1 0 2.05.65 5 2.8 13.15 3.45 7.55.6 13.7-.8.65-.15.75-.4.05-.25-.5-.75-2.45-2.45-6.85-4.55-4.5-2.1-8.9-2.9l2.95-1.2q3.9.95 7.75 3.05 3.8 2.05 6.2 4.55"/><path fill="#0f141b" d="m367.9 236.8 2.25.35q-1.95.9-2.7 4.05-.65 3 0 7.2.55 3 .25 6.1-.3 3.4-1.6 5.6-.95 1.65-2.95 1.8-4.5.4-9.5-.15-5.8-.7-11.1-2.6l-3.3-3.2q5.65 2.7 12.3 3.9l10.95.55q1.55-.2 2.15-1.25 1.15-2.05 1.45-5 .25-2.75-.2-5.5-.65-3.8-.25-6.9.45-3.55 2.25-4.95"/><path fill="#0f141b" d="M389.55 233.9q1.1 6.6-1.9 9.3-2.8 2.5-6.45.2-3.5-2.2-5.75-3.3-4.2-2.1-7.55-2.3l-11.35.85-10.95.95q-.35 0-.1.6 3.75 9.85 11.1 15.65 2.85 2.3 5.25 3.1l2.95-.1-.95 2.05q-5.15-.2-10.45-5.35-5.15-5-8.5-12.7l.05-.45.05-.5-.7-.6-.25-.6q-.6-1.55-.3-2.1.3-.6 1.85-.55l10.4-1.1 12-.9q5.5.3 14 5.8 2.95 1.9 4.75-.15 2-2.3 1.1-7.65-.5-3.2-5-9.9-4.8-7.25-8.9-9.8-4.05-2.55-14.85-4.3-9.45-1.45-15.85-1.25l.4-1.75q6.45-.2 16.05 1.3 10.9 1.85 15.2 4.55 4.25 2.65 9.4 10.45 4.7 7.05 5.25 10.55"/><path fill="#0f141b" d="M361.8 236.95q.5 3.7 2.25 8.1 1.4 3.6 1 7.8-.4 4.3-2.65 7.35l-1.4-.55q2.25-2.75 2.6-6.85.35-3.85-1-7.35-1.7-4.65-2.35-8.3z"/><path fill="#0f141b" d="m366.1 258.05 3.6 5.3q1.75 2.8-1.25 2.8L353.6 265l-1.95-2 8.3 1.1 8.3.5q.45 0 .15-.45l-3.05-4.4z"/><path fill="#0f141b" d="M326.85 263.15q2.95 1.85 6.5 3.3 3.35 1.4 6.45 2.05l9.35 1.4 9.55.35.4-.2-.3-.3q-4.45-2.9-7.85-6.55-.65-.75-.3-1.1.3-.35 1.1.3 4.15 3.85 7.9 6.2 1.5 1 1.35 1.95-.2.95-2.15 1.05-4.15.3-9.45-.05l-10-1.35q-4.35-1.05-8.1-2.6-4.95-2.05-7.55-4.45zm30.95-32.7-7.3-.45q-1.5-.35-4.85-3.7-3.45-3.35-3.5-4.8-.05-1.7 5.35-3.25 5.35-1.5 7.95-.75 2.75.85 6 5.75 3.25 4.75 2.4 5.95-.75 1.1-6.05 1.25m-2.8-11.4q-2.5-.75-6.95.4-4.4 1.1-4.5 2.15-.05.8 3.15 3.6 3.15 2.85 4.4 3.2l6.8.55 4.8-.5q.4-.85-2.5-4.7-3.05-4-5.2-4.7m13.8-20.15q-1.25 6.85-4.25 11.5l-1.8-.6q1.65-2.45 2.9-5.7 1.15-3.05 1.6-5.45.15-.75-.05-.95t-.95 0q-4.05 1.15-9.25 4.2-5.4 3.15-8.4 6.3l-2.55-.35q3-3.25 9.3-6.95 6.1-3.5 10.45-4.7 1.7-.55 2.55.2.8.7.45 2.5m-64.1 30.85q-1.4-1-4.05-1.35l-6.35-.2-12.85 1.05-15.65 1.95-2.15-1.55 16.55-1.95 14.1-1.05 6.5.25q2.9.4 4.7 1.6zm8.55-20.2-4.65 1.1q-3.95 1.25-20.4 8.15l-24.9 10.7-1.7-1.35q39.7-17.1 46.45-19.3 5.8-1.85 11.3-1.4l-1.25 1.8z"/><path fill="#0f141b" d="M361.1 171.95q38.4.25 59.95 3.95 2.3.4 2.4 1.5.1 1-1.65 1.85-6.8 3.4-21.35 8.1-14.6 4.7-24.8 6.85 6.15 4.25 13.7 14.05 1.15 1.4.9 2.3-.35.8-1.95.85l-11.5-.6q-6.85-.85-12.15-2.2l.7-1.65 12.1 2.15 10.6.75q.75 0 .1-.65-3.1-3.7-7.65-7.95-4.9-4.55-8.45-6.95-.65-.35-.65-.85 0-.45.9-.65 9.15-1.8 25.55-6.75t23.35-8.1l.25-.35q-.05-.15-.7-.3-21.7-3.45-59.7-3.55-37.8-.05-47.7 3.2-5.9 1.9-26.3 18.4-14.9 11.95-28.65 24.25l-2.2-.25Q270.6 206 285.3 194q20.45-16.7 27.45-19 10.5-3.3 48.35-3.05"/><path fill="#0f141b" d="M409.25 82.7q-22.45 6.65-64.1 25.35-44.6 19.95-54.7 29.15l-1.7-1.55q10.65-9.85 55.15-29.5 41.45-18.25 65.05-24.9 2-.55 2.65.2.7.8-.4 2.5-4.05 7-13.15 17.45-9.55 11-17.6 17.55 3.9 1.45 9.2 2.7l9.8 1.85q2.4.25 2.55 1.55.1 1.3-2.05 2.3l-42.5 16.35q-39.4 15.3-47.25 20.65-5.75 3.95-21.2 19.4-10.9 10.85-23.3 24.1l-2.2-.5q13.6-14.55 24.35-25.4 15.95-16 21.45-19.6 9.4-6.05 48.55-20.9 19.8-7.55 41.5-15.6l.45-.55q0-.3-.65-.3l-11.2-1.95q-6.65-1.45-10.2-2.9-1.2-.4-.2-1.25 7.4-6 18.3-18.25 10.35-11.55 14-17.45.6-.85-.6-.5M283.4 147.1q-5.8 9.65-16.05 29.1l-16.4 31.65-2.15.5 15.5-31.05q10.2-20.2 16.05-29.95zM146.75 361.25q-1.8 4.25-3.1 10.65-1.1 5.75-1.45 11-.1 1.75-.9 2.05-.85.35-1.9-1.05-.8-1.05-2.35-4.55-.9 4.6-1.05 8.5-.1 1.85-1.05 2.15-1 .25-1.9-1.55-9.2-18.1-6.55-49.95 2.6-30.6 14.1-54.5l.85 3.9q-10.25 22.65-12.85 51-2.75 30.5 5.6 48.85l.3.2.2-.3q.4-6.15 1.4-10.65.2-.75.6-.8.45-.05.75.65 1.55 4 2.85 5.75.4.55.4-.15.3-5.45 1.8-12.2 1.7-7.5 3.9-11.8z"/><path fill="#0f141b" d="M146.4 357.35q.5-.05.6 1.3.65 8.3 3.8 12.6.5.7.6-.1 1.65-11.45 4.25-22.8 3-13.6 6.55-23.05l1.9 1.2q-3 8.35-6.35 22.3-2.85 12-4.8 23.15-.3 1.75-1.1 1.95-.9.3-1.85-.95-1.95-2.5-3.1-6.5-1.05-3.8-1-7.75 0-1.35.5-1.35M264.25 281q13.55 26.15 14.4 61.35.35 15.8-2.3 29.2-2.6 13.7-7.8 22-1.2 1.9-2.3 1.6-1.1-.35-1.05-2.65.15-4.6-.35-9.25-.55-5.35-1.8-8.95-1.25 3.65-3.4 6.5-1 1.2-1.75.9-.8-.25-.85-2-.55-10-2.7-16.35-.95 2.95-2.9 6-.9 1.35-1.85.95t-.8-2.35q.85-11.95-.05-24.2-.9-12.65-3.3-20.65l1.95-1.85q2.9 9.6 3.7 22.95.75 12.95-.8 23.8-.1.7.3.05 1.9-3.2 2.95-7.45.2-.75.6-.8.4-.1.7.65 1.55 3.25 2.55 9.15 1 5.25 1.05 9.85.1.4.25.05 2-2.9 3.6-7.5.25-.7.7-.7.45.05.75.8 1.65 3.7 2.4 10.2.75 5.7.5 10.3-.05.45.15.5l.4-.3q10.05-17.55 9.2-49.95-.8-33.25-12.85-58.25zm-83.8 55.05q5.55 35.25 27.65 58.6 11.25 11.9 30.2 22.4 12.15 6.7 18.95 12.3 7.3 6 10.1 12.05 2.4 4.75 3.8 5.85.4.35.45-.25.2-2.05-.4-5.4-.2-1.1.3-1.15.5-.1.75.95.95 3.75.85 5.85-.25 3.45-2.95 1.2-1.95-1.6-4.45-6.25-3.45-6.45-10.1-11.85-5.85-4.65-18.25-11.75-10-5.8-14.55-8.9-9.95-6.85-17.55-15.1-21.4-23.1-27.15-59.2z"/><path fill="#0f141b" d="M271.95 442.3q3 3.35 5.65 8.7.25.65.3-.05.3-2.55.15-7.2-.2-4.3-.6-7.25l1.6 1.45q1.1 8.75.1 13.95-.25 1.45-1.1 1.6-.85.1-1.55-1.3-2.55-5.05-4.5-7.55z"/><path fill="#0f141b" d="M229.55 334.95q.1 26.85 12.35 46.15 8.25 13.05 25.95 26.85 6.2 4.85 10.85 14.85 4.5 9.65 4.45 17.15 0 1.9-.9 2.2-.85.3-1.85-1.3-1.25-2.05-3.5-4.2-.75-.7-.5-1.1.35-.3 1.25.3 2.35 1.9 3.8 4.15l.25.25.1-.35q-.15-6.45-4.65-16.05-4.8-10.15-10.4-14.45-18.1-14.05-26.45-26.85-12.7-19.4-13.2-46.65z"/><path fill="#0f141b" d="M246.8 422.55q9.9 2.75 15.15 8-.9-4.25-3.1-8.4-.4-.75-.05-1t1.05 0q2.95.95 5.9 2.9 2.9 1.95 4.8 4.2.7.9.65-.55-.15-4.6-1.55-10.25-1.65-6.45-3.85-9.75l2.95 1.85q1.7 3.3 2.85 9 1 5.2 1.05 9.25.05 2.25-.75 2.7-.85.45-2.25-1.15-3.5-3.95-8.65-6.1 1.9 4.25 2.55 7.9.3 1.5-.35 1.75-.7.3-1.65-.7-4.3-4.4-11.9-6.95z"/><path fill="#0f141b" d="M231.85 377.15q9.95 16.65 22.05 26.95 11.25 9.65 17.5 18.45l.25 2.75q-2.5-3.8-7.8-9.35-5.25-5.55-11.05-10.5-12.55-10.75-22.6-27.1-12.65-20.75-13.1-39.35l2-.35q.5 18 12.75 38.5m-41.15-38.1q4.35 29.25 21.7 52.25 13.25 17.45 33.15 30.25l-8.45-3.6q-18.25-13.35-30-30.4-15.05-21.9-18.6-48.95z"/><path fill="#0f141b" d="M224.6 365.35q-4.5 3.35-13.15 4-8 .6-13.65-1.2l-.6-1.85q6.6 2.15 15.2 1.15 8.2-.9 11.55-3.65zm10.55 18.55q-5.05 3.4-12.9 4.95l-12.45.55-1.05-1.75q5.95 1 14.1-.95 7.1-1.6 11.45-4.2zm12.1 15.2q-5.25 3.85-13.05 5.5l-11 .4-1.3-1.75q4.8 1.15 12.4-.6 7.5-1.7 11.95-4.85zm-7 19.8q5.65-.1 11.5-3.1 5.4-2.8 7.05-5.95L260 411q-1.8 3.6-7.15 6.35-5.15 2.65-10.8 3.05zM72.6 236.95q-2.1 2.25-2.7 4.4l-.75.5-.7.05q.3-2.45 2.2-5 1.55-2.1 3.55-3.65l1.1.25q.95.4.7.5-1.8 1.25-3.4 2.95m273.7 31.15q4.05 2 8.2 2.45.25.05.2.55l-.3.45h-.1q-4.55-.5-8.85-2.5-4.45-1.95-7.45-4.85-.15-.2.6-.65l.95-.15q3 2.8 6.75 4.7"/><path fill="#fff" d="M256.8 132.95q-.35 1.7-1.75 3.65t-2.3 2.05q-1.15.2-2.15-1.75-1-1.85-.5-2.65.4-.6 2.9-1z"/><path fill="#dcdddd" d="M256.75 132.75q-.1 1.75-1.85 3.9-1.5 1.95-2.15 2.1-.45.1-1.1-.55l-.95-1.25q3.85-1.65 6.05-4.2"/><path fill="#0f141b" d="M249.3 135.3q-.2-1.9 1.25-2.3l5.65-.5q1.05 0 .85 1.05-.45 1.7-1.85 3.85-1.5 2.2-2.5 2.2t-2.15-1.45-1.25-2.85m3.35 2.6q.55 0 1.95-2 1.45-1.95 1.25-2.25l-1.95.05-2.8.7q-.45.1-.4.7.15 1.05.85 1.95.65.85 1.1.85"/></svg>