<svg xmlns="http://www.w3.org/2000/svg" width="282" height="293" viewBox="-3.07 -0.48 282.26 293.04"><path fill="#bd9c5e" d="m55.46 179.34 9.98 6.32q-6.28 1.49-13.95 1.63 3.16 5.37 12.41 10.21 9.78 5.13 21.19 7l22.34 25.8q-.2 5.17-4.22 11.26-3.3 4.98-7.48 8.48 5.18.43 11.7-1 5.42-1.2 10.02-3.22-1.4 4.94-3.93 10.36-2.78 5.9-5.56 9.35l11.88-.48q6.86-1.3 11.22-3.45l-.62 4.55-1.4 5.18q-4.26-2.3-8.72-2.78-4.07-.39-7.62.81-3.64 1.3-2.63 6.67-5.61-.3-15.73-2.02 1.58-3.11-.86-5.6-2.4-2.45-7.62-3.55-5.56-1.1-8.34.81-1.1.77-1.54 2.25l-.53 2.54q-12.41-1.77-35.13-9.25-24.02-7.9-33.08-13.85-10.3-6.76-2.83-20.85 5.7-10.7 22.67-25.65 14.39-12.7 28.38-21.52"/><path fill="#fff" d="M217.16 101.44q24.45 15.38 32.7 45.54 7.66 28.18-1.3 57.76-3.07-8.43-6.43-13.28.96 4.99 1.97 15.25-4.08 0-9.06-1.15 1.05 4.07 5.85 11.02 4.46 6.57 7.81 9.69l-8.24-.44q-4.41-.67-7.58-2.06.67 5.13 3.3 13.04 2.7 7.77 5.28 12.56-4.31-.14-10.6-3.07l.68 3.22q1.53 2.58 6.47 6.42l-5.7.53-12.47 3.35q-1.68 4.99-3.69 12.37l-2.4-5.8-2.92-5.56q-1.44 3.64-5.66 9.3-4.4 6.09-8.58 9.78 1.4-4.32-.76-12.13-6.04 6.04-18.41 12.56-13.47 7.14-20.52 6.9 4.08-4.26 5.51-14.04-2.97 2.63-8.63 5.41-5.84 2.88-10.73 3.89 2.1-1.63 3.64-5.8 1.25-3.36 1.58-6.52-4.55 4.26-12.27 7.72-7 3.02-11.84 3.5 2.4-2.98 4.5-9.45 1.78-5.6 2.4-10.35-5.08 2.35-12.32 3.54l-10.78.39q5.6-7.39 9.49-19.7-4.22 2.2-11.22 3.5-6.8 1.29-10.16.57 4.12-3.02 7.62-9.1 3.5-6.1 3.74-10.5l7.48.28q1.3-2.54 4.12-5.32-2.59-2.59-6.33-3.55l-6.76-.48q0-2.73 2.93-6.13 2.54-2.93 5.46-4.5-2.25-2.79-6-4.66-2.58-1.34-6.8-2.73 1-1.87 2.16-2.4l-10.45.29q-5.42 1.3-8.15 3.4-7.77-.76-18.26-5.6-11.9-5.47-15.34-11.6 6.04.33 13.95-1.64-5.52-2.63-12.04-8.15-4.98-4.26-8.67-8.53 7.04.29 18.12-1.39 8.96-1.39 16.2-3.3-4.6-2.98-8.96-9.07-3.7-5.13-4.9-8.77 10.46 4.31 21.43 4.17 6.1 2.4 10.31 2.64 3.74.19 5.08-1.3 1.3-1.39-.43-6.09-1.25-3.45-3.83-7.9 3.54-.2 7.95 1.67 1.54.67 2.2.39.73-.3.77-1.63.05-1.92-1.53-6.24-1.53-4.17-3.69-8.2 3.07-.28 7.43 3.08 1.97 1.48 3.64 1.82 1.78.33 2.54-.63.77-.96.39-2.87-.39-1.97-1.92-4.46 17.64-22.34 45.01-28.96 30.06-7.19 56.62 9.5"/><path fill="#525557" d="M169.41 170.9q30.25 19.17 51.34 29.38-2.73 3.46-8.63 6.24-6.42 2.97-14.38 4.07-19.94 2.73-38.5-7.48-16.1-8.87-24-26.12-7.49-16.06-5.04-32.31 18.5 13.08 39.21 26.22"/><path fill="#0088b9" d="m143.86 154.07 16.06 10.64q.86 8.2-1.53 13.81-2.5 6.09-7.43 5.7-6-.33-8.2-10.69-2.11-10.06 1.1-19.46"/><path fill="#525557" d="M137.77 236.67q1.3-3.45 5.32-4.8 3.8-1.15 8.01-.04 4.41 1.2 6.66 4.22 2.6 3.5 1.3 8.24-1.92 7.29-10.4 15.3-8.25 7.66-11.65 6.37-3.12-1.25-2.83-10.88.24-9.45 3.6-18.41m85.85-3.88q5.37 4.89 7.86 17.16 2.4 11.89-.86 13.61-2.93 1.58-12.03-5.03-9.16-6.71-12.08-12.66-1.97-3.98-.72-7.72 1.1-3.35 4.4-5.56 3.17-2.15 6.81-2.2 3.89-.05 6.62 2.4"/><path fill="#c40018" d="M109.15 206.37q3.36 2.06 5.18 4.22-3.07 1.49-5.7 4.89-2.5 3.26-2.69 5.75 4.65-.33 8.25 1.01 3.26 1.2 4.94 3.4-2.11 1.63-4.22 4.94-6.04-1.58-10.89.67-4.36 1.97-9.49 8-5.94 7-15.72 5.38-7.67-1.3-19.94-8.49-4.5-2.64-8.78-2.1-3.59.42-7.43 3.06-2.25 1.63-3.06 1.44-.87-.15-.63-2.2 1.01-8.01 8.49-13.19t13.33-1.97q5.03 2.64 9.44.39 3.93-1.92 6.37-7.05 3.36-7.14 10.7-10.98 7.62-4.02 16.39-2.73-1.25.62-2.16 2.4 3.74.72 7.62 3.16M34.85 95.4q-3.88-3.7-8.77-5.42-1.82-.67-1.97-1.73-.14-1.05 1.63-1.58 10.3-2.68 19.85-.14 12.7 3.45 19.32 15.72 2.4 4.6 6.85 6 4.13 1.24 11.41.28 17.4-2.35 28 7.43 3.69 3.45 5.46 7.48 1.54 3.5.67 4.65-.62.77-2.25.72-2.06-.05-3.93-1.63-1.82-1.34-4.17-2.25-2.16-.82-3.64-.82 2 3.02 3.45 6.9 1.24 3.31 1.82 6.28.38 2.02-.2 2.74l-1.67.04q-1.53-.86-4.46-1.53l-4.5-.53q1.39 2.3 2.78 5.52 1.24 2.97 1.91 5.32.87 3.5-1.58 4.12-7.9 1.92-17.16-3.88-9.83-6.14-11.6-15.92-.62-3.88-3.55-5.66-2.4-1.43-7-1.87-7.96-.57-12.51-5.56-3.98-4.36-8.1-15.43-1.97-5.32-6.09-9.25m150.53-47.6q-3.74 7-3.46 12.07.39 5.09 4.85 9.35 4.55 4.41 6.23 10.4 1.72 6.19-.34 11.8-8.05-2.2-19.17-1.63-12.56.67-21.86 4.74-2.78-5.6-1.35-11.5 1.44-5.8 6.1-9.01 3.83-2.64 4.45-7.43.58-4.27-1.34-9.5-2.06-5.32.2-11.93 2.24-6.57 7.85-12.03 8.15-7.91 10.88-15.01 2.02-5.32 2.16-14.24.15-2.49 1.1-2.97 1.06-.43 2.3 1.92 5 9.35 5.8 21.19.96 13.56-4.4 23.77m58.72 70.66q4.55-1.58 6.28-4.93 1.72-3.5 3.88-4.56 2.02-1.1 5.37-.48 3.26.58 6.04-.86 2.78-1.39 4.08-4.17 1-2.2 2.4-1.92 1.38.29 1.57 2.45 1.35 13.28-2.68 24.16-4.31 11.4-12.94 14.86-3.02 1.24-5.04 3.26-2.06 2.06-2.15 4.02-3.55-16.34-14.48-31.3 3.5.86 7.67-.53m12.13 122.58q-3.98 1.87-8.54 2.4-5.6.62-9.58-1.25-1.68-4.31-3.12-9.4-1.44-4.98-2.1-9 7.52 2.92 16.1 2.68-6.33-6.14-11.55-15.3 5.08-1.58 9.78.82 5.17 2.69 8.2 9.54 1.2 2.59 2.92 3.88 2.1 1.68 5.51 1.87 13.85.82 14.38 15.92.05 1.68-.91 1.92-.86.33-2.4-.96-4.5-3.79-9.58-4.5-4.8-.73-9.11 1.38"/><path fill="#a2000c" d="M23.63 88.06q5.7-.67 12.61 2.93 7.53 3.93 9.88 10.2 2.82 7.44 7.71 11.6 4.65 3.94 9.93 3.94 10.54 0 15.62 9.44 1.78 3.17 4.32 4.36 2.4 1.16 5.94.82 5.66-.43 10.26 1.58 4.99 2.2 8.1 7.1-.43.28-4.45-1.1-4.32-1.54-6.04-1.16 3.06 4.99 4.31 9.06 1.3 4.13 0 5.08-2.4 1.92-7 1.3-4.4-.62-9.2-3.16-11.36-6.19-13.52-15.54-.91-4.12-2.78-6.13-2.5-2.54-7.48-2.93-7.96-.57-13-5.8-3.92-4.02-7.13-12.56-5.18-13.37-14.58-16.78-3.3-1.15-3.5-2.25m250.43 16.34q.43 2.07.29 5-.67 13.56-4.75 21.85-3.93 7.91-11.12 11.5-2.59 1.26-4.65 3.08-2.5 2.15-3.21 4.26-.77-6.61-5.66-17.59 2.69.77 5.75-.62 2.98-1.35 4.65-4.03 3.26-5.08 7.3-7.53 4.21-2.49 6.9-7.71 2.68-5.33 2.49-10.98 1.39.14 2.01 2.78m-17.93 136.57q-10.88 4.94-17.78 1.01-3.93-9.01-5.8-18.26 4.12 1.63 8.43 2.3 4.7.76 8.1.04 2.07 3.31 5.13 5.13 3.36 2.07 7.58 2.07 4.6 0 9.35 3.5 4.98 3.64 5.9 8.2-.73.14-2.16-.73l-2.6-1.77q-3.3-2.5-7.38-2.92-4.36-.53-8.77 1.43m-150.38-19.8q4.36-.23 7.81.77 3.8 1.1 5.28 3.45-2.45 2.4-3.98 5.13-4.9-1.48-10.16.58-5.61 2.16-9.6 7.52-5.12 6.96-14.7 6.24-8.45-.63-18.22-6.76-6.52-4.17-11.51-4.17-4.36-.05-8 3.16-2.26 2.1-3.31 1.39 2.97-6.66 10.64-8.87 7.77-2.2 14.96 1.78 6.47 3.5 13.56 2.92 6.76-.62 9.93-4.5 9.82-12.18 18.98-13.05-.86 1.25-1.68 4.41"/><path fill="#38393a" d="M156.66 249.32q-3.74 6.9-10.11 12.23-6.14 5.08-9.4 4.46-1.1-.24-2.25-3.36-1.25-3.5-.72-7.05.81 3.74 3.88 4.03 2.73.2 5.85-2.25 4.46-3.55 8.63-9.59 4.46-6.62 4.74-10.98 1.97 1.49 1.78 5.04-.2 3.4-2.4 7.47m48.8-9.1q2.5 4.6 8.1 9.54 5.08 4.45 9.35 6.32 3.6 1.63 5.8.39 2.4-1.4 2.69-6 1.91 11.85-1.06 12.95-3.07 1.15-10.98-4.41-7.24-5.08-10.4-9.45-1.96-2.63-2.68-4.12-1.3-2.78-.82-5.22m-38.59 45.15q5.32-1.63 14.57-7.14-.57 2.78-2.78 6.62-2.44 4.21-4.12 4.6-1.1.24-3.26-.86-2.16-1.2-4.4-3.22"/><path fill="#a48751" d="M117.26 245.92q-1.15 4.36-3.46 9.68-2.73 6.28-5.7 9.98l10.79-.34q7.19-1.25 12.22-3.64l-.82 4.89-1.34 4.74q-3.5-1.92-8.34-2.54-5.03-.62-7.48.67-2.54 1.4-3.11 3.31-.39 1.34.1 3.64l-8.4-1.15-7.23-1.24q1.39-2.35-.72-4.99-2.16-2.73-6.38-3.64-5.66-1.25-8.72.05-3.07 1.29-3.17 5.08-19.9-4.56-35.38-9.35-23.49-7.2-32.98-13.8-5.99-4.13-5.9-10.7.1-7.14 7.44-16.4-1.01 4.08 1.53 8.4 2.78 4.55 8.49 7.28 17.11 8.2 33.89 10.36 16.15 2.06 32.98-1.4 3.02-.61 5.94-2.82 2.69-1.97 4.65-4.75 1.82-2.49 5.37-4.7 3.31-2.06 5.66-2.34.48 3.2-2.97 9.54-3.6 6.61-8.2 10.3 3.83.63 10.21-.67 6.04-1.24 11.03-3.45"/><path fill="#dcdddd" d="m228.09 203.4 6.76 2.1q.57 1.69 2.4 5.1 1.91 3.73 3.64 6.17-12.23-8.96-26.56-11.6 3.98-1.82 6.33-4.79 2.78 1.39 7.43 3.02m20.99 22.67-8.96-.43q-6.8-1-9.35-2.25-2.3-1.15-1.53-3.16.72-1.97 2.54-1.06 9.54 4.94 17.3 6.9m-7.48 23.25q-1.58.2-4.79-.76-3.07-.87-6.04-2.3-.57-2.69-2.25-6.48 1.73 1.92 5.94 4.94 4.27 3.12 7.15 4.6m-9.35 7.15q0-2.98-.72-6.86 4.03 4.9 6.42 6.19-1.77.76-5.7.67m-106.04-18.84q2.59 7.33-.77 13.23 6.95-2.02 10.02-5.66-2.2 6.71-1.44 13.57.72 6.52 3.12 7.24 1.97.57 5.85-1.87l6.57-4.99q5.5-1.44 9.4-3.69 3.87-2.3 7.66-6.38-.19 3.31-.96 5.85-.81 2.5-2.63 5.47 3.26-1.3 6.76-3.45 4.4-2.74 6.95-5.61.86 3.93.9 6.66 0 3.55-1.1 8.05 7.39-2.73 16.69-10.2 9.97-8.06 12.03-13.9.53 3.83 5.75 9.72 4.7 5.37 8.87 7.77-2.54 7.81-3.64 12.56-1.68-4.27-5.37-11.46-1.78 4.32-6.47 10.6-4.08 5.37-7.77 8.91.77-2.97.43-6.66l-1.2-5.75q-7 7.33-19.99 13.75-12.65 6.19-18.98 5.76 2.16-2.45 3.55-6.38.96-2.73 1.82-7.28-3.36 2.78-8.87 5.41-5.85 2.88-10.26 3.6 2.6-2.88 3.89-6.38.71-2.01 1.43-5.94-4.55 4.12-12.6 7.57-7.1 3.07-11.75 3.55 2.73-4.12 4.7-10.02 1.53-4.8 2.3-9.68-4.46 1.96-11.17 3.35-7.81 1.63-11.84.63 3.36-4.46 5.9-10.31 1.63-3.88 3.3-9.59-4.5 2.35-11.31 3.6l-9.5.38q4.42-3.6 7.63-9.68 2.93-5.52 3.16-9.64l7.58.2-.34 1.24q2.54 1.49 11.7 5.85m-20.28-16.78q2.45-1.73 6.86-1.58 4.98.1 8.05 2.92 1 .91.48 2.25-.53 1.3-1.87 1.92-.24-1.96-4.17-3.64-4.12-1.82-9.35-1.87"/><path fill="#dcdddd" d="M125.93 237.72q-2.3-.67-6.28-3.06-3.88-2.35-5.03-3.7 5.32 2.11 11.31 2.83 1.49.2 1.58 2.3.1 2.16-1.58 1.63m-16.73-31.25q-3.74-2.45-7.96-3.55 4.41-.53 10.02 1.82 5.28 2.2 7.53 5.08 1.82 2.2-.1 3.55-1.87 1.34-3.2-.86-2.12-3.4-6.29-6.04M51.63 187q5.9 5.9 20.47 10.31 14.48 4.46 22.91 3.07-6.18 1.77-9.35 3.98-8.05-.34-19.84-5.8-12.7-5.95-14.2-11.55m-5.84-17.65q4.46 3.65 10.98 7.1 6.95 3.69 11.6 4.6 2.16.38 2.35 2.06.14 1.63-1.68 2.3l-3.16.43q-5.23-2.58-10.79-7-6.04-4.84-9.3-9.49m26.03-11.93q-4.98-6.04-6.52-11.22 3.3 4.41 7.48 8.3 4.22 3.83 8.24 6.18 1.3.81 1.01 2.25-.24 1.53-2.35 2.06-3.98-2.92-7.86-7.57"/><path fill="#38393a" d="M86.91 265q7.29 1.58 7.82 5.7.57 4.27-5.9 10.36-6.33 5.9-9.68 5.13-3.07-.77-3.7-9.59-.62-8.77 2.02-10.93 2.54-2.1 9.44-.67m32.93 26.7q-2.4-.14-6.56-8.15-4.32-8.15-3.26-11.65 1.05-3.4 8.05-3.2 6.38.18 10.88 2.53-2.06 6.62-4.84 10.07l2.59-.29 2.73-.62q-.86 2.87-4.12 7-3.5 4.46-5.47 4.31"/><path fill="#a48751" d="M134.18 278.66q5.8-2.15 14.28-8.48 0 1.44-1 4.55-1.01 3.21-2.06 4.65zm16.92 1.15q4.36-1.72 11.17-6.32-.29 3.16-1.3 6.47z"/><path fill="#38393a" d="m129.82 148.6.62-3.83q5.37 4.08 13.33 9.45-.96 2.54-1.54 6.37-8.92-7.62-12.41-11.98m62.7 36.19q17.02 9.97 28.14 15.58l-2.83 2.92-4.36 2.54q-11.17-4.84-24.6-12.27-17.4-9.68-29.33-18.93.76-3.89.38-9.78 16.25 10.35 32.6 19.94"/><path fill="#006c95" d="M159.92 164.86q.38 5.9-.38 9.78-9.97-7.67-17.3-14.05.57-3.83 1.53-6.37 6.95 4.74 16.15 10.64"/><path fill="#0f141b" d="M243.28 194.77q1.1 5.47 1.83 12.56.14.62-.53.62-16.16.2-51.97-21-24.06-14.23-68.45-45.63-1.1-.81-.82-1.3.34-.47 1.49.3 48.85 32.6 67.02 43.33 36.38 21.67 51.24 22.15-1.1-10.31-1.96-15.4-.2-1 .14-1.14.38-.15.91.72 3.88 6.23 6.28 12.5 7.24-36.57-1.87-62.17-8.91-25.02-33.22-39.2-26.41-15.45-55.03-7.34-25.12 7.1-42.47 28.52l-1.1-1.73q17.63-22.77 44.77-29.72 29.1-7.48 55.22 7.72 26.56 15.58 35.48 44.68 8.43 27.47-.34 61.55-.38 1.44-1.1 1.44t-1.2-1.25l-2.06-5.37z"/><path fill="#0f141b" d="M240.7 140.6q6.28 12.6 5.5 25.94-.09 1.82-.85 1.82-.72-.1-.72-1.87.1-7.38-1.15-13.38-1.1-5.9-3.8-12.03-.61-1.44-.09-1.63.43-.24 1.1 1.15m-36.33-33.5q11.84 8.67 22.15 29.43 9.82 19.84 11.88 37.34.24 1.58-.57 1.63-.77.05-1-1.49-2.5-16.68-12.14-36.38-10.11-20.71-21.04-29.63-.91-.76-.62-1.2.33-.43 1.34.3m9.34 41.94q-3.06-5.08-6.13-8.73-3.21-3.78-8-7.76-.82-.67-.44-1.1.3-.39 1.15.14 9.74 6.9 14.72 16.63.91 1.63.24 2.02-.67.33-1.53-1.2m-12.9-1.68q8.92 9.44 14.72 18.7.77 1.2.1 1.58-.72.33-1.44-.72-5.76-8.53-14.63-18.12-9.06-9.78-16.87-15.77-1.2-.96-.91-1.34.29-.44 1.58.43 8.25 5.46 17.45 15.24m-31.73-9.4q18.55 12.52 35.23 32.46.82 1 .24 1.44-.57.48-1.39-.39-18.46-20.75-34.75-32.6-.92-.71-.63-1.1.29-.48 1.3.2m23.39 37.1q-20.66-16.83-38.59-26.37-1.2-.67-.96-1.15l1.49.1q9.59 4.46 19.6 11.22 10.26 6.85 19.42 15 .91.82.38 1.4-.43.52-1.34-.2m43.77-56.81q5.46.2 8.77-1.48 3.21-1.54 4.75-4.75 1.53-3.3 3.69-4.31 2.2-1.1 6.37-.44 3.31.53 5.61-.47 2.2-1.06 3.3-3.36 1.45-3.21 3.41-3.07 2.06.2 2.6 3.79 1.77 12.37-2.21 23.2-4.51 12.22-15.06 17.11-5.56 2.6-5.99 8.78l-1.3-3.26q.63-2.69 2.21-4.41 1.49-1.68 4.22-2.93 9.88-4.8 13.95-16.25 3.4-9.49 2.45-22.15-.15-1.72-1.06-1.72-.96-.05-1.58 1.58-2.54 6.57-10.55 5.27-3.11-.52-5.13.48-1.91.91-3.11 3.36-1.63 3.5-4.99 5.27-3.4 1.78-9.15 2.02zm-57.1-98.75q-2.68 6.8-9.68 13.33-6.52 6.09-8.72 12.13-2.16 6.04-.2 12.5 2.26 7.3 1.4 10.94-.77 3.45-5.23 6.95-5.18 4.02-5.75 9.87-.48 4.94 2.25 9.11l-2.35.86q-2.97-4.55-2.25-10.25.81-6.57 6.52-11.22 3.78-3.17 4.6-6.47.81-3.5-.91-9.3-2.2-7.48-.1-13.43 2.11-6.13 9.69-13.03 5.5-5.09 8.43-12.13 2.88-6.95 2.88-15.2 0-3.6 1.77-4.12 1.68-.53 3.17 2.06 5.9 9.78 6.37 23.44.43 13.85-5.08 23.4-2.92 4.88-2.97 9.87-.05 5.66 3.79 9.1 5.5 4.9 7.43 10.99 1.96 6.23-.44 12.6l-2.3-.52q2.16-5.47.63-10.93-1.63-5.66-6.95-10.65-4.37-4.07-4.32-10.11.05-5.51 3.55-11.31 4.89-8.2 4.46-22.06-.43-13.7-5.7-23.1-.73-1.25-1.16-.96-.43.24-.43 2.3.05 9.16-2.4 15.34M25.31 85.71q11.7-3.11 21.1-.43 12.12 3.5 19.03 16.44 2.49 4.56 7.33 5.66 3.64.91 10.11-.05 19.13-2.59 29.68 7.77 3.78 3.74 5.32 8.1 1.34 3.88.14 5.46-.76 1.16-2.97 1.1-2.44-.04-4.46-1.77-3.07-2.58-5.94-2.92 3.45 5.7 4.6 11.94.53 3.02-.62 3.93l-2.45-.1q-1.34-.77-3.45-1.39l-3.79-.77q2.74 4.51 4.13 9.78.86 3.26-.53 4.5-1.3 1.16-5.18 1.16-8.91 0-15.77-4.41-8.53-5.47-10.69-16.44-.62-2.98-3.26-4.84-2.54-1.73-6.38-2.07-9.06-.76-12.94-4.84-3.55-3.69-8.48-16.68-1.83-4.94-5.61-8.63-3.79-3.74-8.78-5.51-2.49-.91-2.68-2.59-.2-1.68 2.54-2.4m.91 3.36q10.84 3.11 15.3 15.1 3.83 10.35 8.1 14.9 4.6 4.95 11.79 5.52 5.9.53 8.15 2.11 2.3 1.68 3.21 6.14 1.73 8.43 9.92 14.23 7.34 5.23 14.62 5.23 3.07 0 3.84-.72.62-.67.1-2.69-1.59-5.84-4.46-10.5-.48-.76-.3-1.1.15-.24 1.02-.33l4.65.62q3.02.72 4.6 1.58l.76.05q.24-.43 0-1.96-1.34-7-5.08-12.7-1.05-1.45.72-1.45 3.74 0 8.15 3.26 1.92 1.44 3.4 1.68 1.25.2 1.92-.57.67-.72-1-4.03-1.97-3.74-5.52-6.95-10.45-9.4-27.13-7.14-7.14.95-11.31-.2-5.08-1.48-7.86-6.61Q57.14 90.12 44.05 87q-9.1-2.16-18.4.33-1.1.34-1.01.77.1.53 1.58.96m195.58 111.8q-4.79 5.08-13.08 8.1-8.3 3.02-18.02 3.21-13.33.34-25.6-4.8-12.03-5.02-20.86-14.32-9-9.5-13.03-21.77-4.27-13.04-2.16-27.32l2.2 1.44q-1.63 12.7 2.16 24.59 3.7 11.6 11.89 20.66 8.34 9.2 19.75 14.14 11.98 5.32 25.65 5.13 9.25-.05 17.06-2.83 7.67-2.64 12.03-7.19z"/><path fill="#0f141b" d="m158.82 164.04 1.72 1.01q1.15 8.34-1.43 14.29-2.55 5.75-7.34 6.04-7.1.43-9.92-11.32-2.83-11.55 1.53-20.56l1.3 1.05q-3.55 7.96-1.06 18.5 2.54 10.7 8.06 10.31 3.93-.24 6.08-6.04 2.26-5.85 1.06-13.28"/><path fill="#0f141b" d="M151.1 165.82q.81-.05 1.34.86t.58 2.16q.1 1.53-.43 2.54-.48 1-1.4 1-.71.05-1.14-1.05-.48-1.06-.48-2.35-.05-1.34.43-2.25.38-.87 1.1-.91m-84.61-18.17q5.32 10.74 13.18 16.15l.48.72q0 .43-.62.58-7.53 2.1-16.3 3.5l-16.35 1.48q10.02 10.36 20.38 15.58l-2.83.77q-10.4-5.46-20.47-16.73-.62-.62-.38-1.05.14-.44.95-.44l15.68-1.3q8.96-1.19 16.25-3.06-7.48-4.98-12.18-17.26-.38-.86 0-1.15l1.06.15q4.46 2.01 10.69 3.35 6.18 1.4 10.35 1.2l2.5 1.54q-4.85.33-11.46-.82-6.52-1.2-10.93-3.21"/><path fill="#0f141b" d="M67.45 198.51q10.26 4.8 18.93 5.18l-1.53 1.34q-9.59-.86-19.85-5.85-10.69-5.27-14.52-11.4-.43-.68-.15-1.01.2-.39.82-.34 9.3.29 17.02-1.77 1.24-.34 1.39.19t-1 .86q-7.49 2.59-15.59 2.45 4.22 5.56 14.48 10.35m50.29-25.45-8.63.67q-4.27.52-8.06 1.48-1.15.29-1.3-.19-.14-.53.73-.81 3.4-1.25 8.48-2.11l8.44-.77q1.3 0 1.39.86.05.82-1.05.87m5.89 15-7.24.38-6.56.82q-1.25.19-1.35-.39-.04-.62.77-.86 6.71-2.01 14.38-2.2 1.49-.05 1.54 1.15.04 1.1-1.54 1.1m13.47 9.83q-1.87 1.44-5.65 2.59-3.46 1.1-5.52 1.1-.96 0-1.05-.53t.67-.67q2.64-.48 5.51-1.68 2.83-1.24 4.56-2.59l1.91-.04q.82.9-.43 1.82m-34.27 4.84q4.17 1.25 7.71 3.6 3.36 2.4 5.7 5.46.82 1 .34 1.34-.47.29-1.24-.62-4.94-6.04-14.38-8.44-1.2-.29-.53-1.39 2.25-3.45 8.72-4.55 6.67-1.15 10.45 1.77 1.06.77.68 1.15-.34.43-1.4-.29-2.92-2.01-8.24-1.3-5.32.68-7.81 3.27"/><path fill="#0f141b" d="M125.3 237.68q-6.03-2.21-11.26-5.23-.72-.43-.38-1.3l1.58-3.2q1-1.59 2.4-2.69-1.82-1.87-5.23-2.64l-6.66-.33q-1 .14-1-.91.14-2.78 3.11-6.33 2.78-3.26 6-5.03l1.05 1.29q-2.6 1.25-4.99 3.88-2.5 2.74-3.02 5.08 3.74-.28 7.48 1.15 3.6 1.4 5.51 3.7.53.62-.14 1.05-2.83 2.06-4.27 5.08 4.17 2.73 10.26 5.37 1 .43.86.96z"/><path fill="#0f141b" d="M103.26 201.58q-8.73-.53-15.15 2.44-6.47 3.02-9.73 9.26-3.79 7.04-7.82 9.34-4.21 2.4-9.25-.19-6.13-3.07-12.84 1.25-7 4.4-8.63 13.28-.3 1.67 1.63 0 3.88-3.5 8.43-3.84 5.04-.43 10.55 3.02 11.12 7 20.04 7.77 9.06.72 13.47-5.18 4.89-6.52 9.97-8.63 4.84-2.01 11.31-.48l-.72 2.06q-5.8-1.34-10.26.63-4.31 1.87-8.91 7.57-10.93 13.33-35.81-2.3-4.9-3.07-9.88-2.45-4.12.48-7.19 3.26-1.82 1.68-3.16 1.25-1.44-.48-1.1-2.88 1.34-10.01 9.15-14.86 7.48-4.74 14.62-1.15 3.93 2.02 7.77-.19 3.93-2.16 7.05-8.2 3.83-7.33 11.55-10.64 7.48-3.16 17.2-1.96z"/><path fill="#0f141b" d="M94.77 250.38q-.1-.38.53-.91 4.17-3.26 7.67-9.01 3.74-6.1 3.79-10.31l1.44-.2q-.05 4.61-3.02 10.17-2.88 5.37-7.1 9.16 4.36.19 9.83-1.01 5.18-1.15 9.1-3.02l1.01-.1q.34.24.1 1.01-3.5 12.08-8.63 18.84 4.41.43 10.69-.81 6.38-1.2 10.55-3.36l1-.05q.3.29.2 1-2.16 12.23-5.95 18.37 5.47-.82 12.27-4.22 6.04-3.02 9.78-6.28.43-.43.77-.24.38.24.29.86-.87 7.15-3.7 10.7 4.37-1.06 8.97-3.46 4.5-2.35 8-5.18l-.23 2.45q-3.94 3.12-9.11 5.46-5.28 2.35-10.12 3.12-.96.2-1.2-.29-.14-.48.53-1.05 1.82-1.68 2.93-4.17.86-2.02 1.58-5.13-4.27 3.45-10.6 6.18-6.7 2.93-12.12 3.4-.72.1-.92-.23-.24-.44.15-1.06 4.12-6.13 6.33-17.64-4.75 2.1-11.32 3.02-6.18.82-10.54.24-.67-.14-.82-.53-.1-.43.24-.86 4.84-5.9 8.44-17.4-4.32 1.77-9.97 2.73l-9.93.34q-.72-.1-.9-.53"/><path fill="#0f141b" d="M158.72 286.24q7.05-.39 18.84-6.86 10.55-5.75 17.64-12.13 1.1-.9 1.44.34 1.58 4.89 1.25 9.87 4.22-4.12 7.62-9.06 3.5-4.98 5.37-9.4.48-1.1 1-.9.48.19.05 1.39-1.91 5.32-6.18 11.4-4.36 6.33-8.82 10.03-.72.62-1.15.38-.39-.34-.15-1.1 1.3-4.32-.43-10.4-7.62 6.66-18.02 12.07-12.37 6.52-20.28 6.28-1.05-.04-1.25-.43-.1-.33.53-1.1 2.4-2.88 4.03-7.33 1.44-4.18 1.63-7.96.1-1.34.62-1.34.53 0 .53 1.34.05 3.83-1 7.76-1.16 4.22-3.27 7.15"/><path fill="#0f141b" d="M220.85 260.54q-2.59 7.1-3.74 11.6-.24.91-.81 1.06-.63.1-1.01-1-2.16-6-4.94-10.84l.86-1.63q2.78 4.93 4.85 10.06 1.29-5.37 3.11-10.73z"/><path fill="#0f141b" d="M231.59 245.73q1.72 6.37 1.53 12.65-.14 4.9-2.1 6.04-1.69.92-5.47-.62-4.94-2.01-11.08-7.28-5.9-5.09-8.43-9.26-2.4-3.93-1.63-8 .81-4.41 5.27-7.58 3.88-2.78 8.2-2.35 4.74.44 8.1 4.8 3.69 4.7 5.6 11.6m-20.6-12.32q-3.36 2.3-4.22 5.8-.92 3.6 1.2 7.05 2.63 4.36 8.2 9.2 5.6 4.94 10.01 6.66 2.92 1.2 3.98.48 1.15-.76 1.25-4.31.14-5.56-1.49-11.27-1.87-6.66-5.7-11.55-2.79-3.55-6.57-3.93-3.45-.34-6.67 1.87"/><path fill="#0f141b" d="M231.06 246.78q.77 2.35 2.88 4.75 2.01 2.35 4.26 3.7l.72.85q0 .44-.77.63l-5.84.43-.1-1.68 4.08.14q-2.98-1.96-4.65-4.89z"/><path fill="#0f141b" d="M233.55 224.1q.91 5.47 3.7 13.2 2.68 7.52 5.12 11.74.87 1.43-1 1.43-2.11 0-5.13-1.1-2.88-.96-5.42-2.49l-.43-1.97q1.96 1.2 4.8 2.2 2.49.92 4.74 1.35-2.4-4.7-4.8-12.08-2.44-7.43-3.25-12.7z"/><path fill="#0f141b" d="M250.19 226.75q-.1.48-1.15.57l-8.92-.72q-5.75-1.05-8.96-2.87-1.1-.68-.87-1.06l1.4.05q3.2 1.39 7.38 2.2l7.71.77q-3.2-3.02-7.28-9.54-4.08-6.42-5.7-10.88l1.81.53q1.83 4.84 6.14 10.97 4.12 5.85 7.72 8.83.81.71.72 1.15M139.07 236.9q-2.64 6.14-3.55 12.57-.86 6.13-.1 11.36.63 4.07 2.26 4.36 1.39.2 5.65-2.44 4.41-2.74 8.35-7.67 3.88-4.84 5.7-9.69 1.34-3.6 0-6.8-1.49-3.5-5.75-5.28-4.08-1.63-7.67-.67-3.55 1.06-4.9 4.27m-2-.91q1.77-4.22 6.47-5.47 4.36-1.1 9.06.77 5.03 2.06 6.9 6.18 1.72 3.93.05 8.49-1.82 4.94-6.28 10.2-4.32 5.14-9.02 8.06-5.32 3.36-7.62 2.64-2.1-.72-3.02-5.8-1-6.09.39-14 1.05-6.47 3.06-11.07m-26.31 41.85-16.93-2.6 1.01-2.63 15.3 2.3zM56.85 180.3q-14.14 7.38-31.59 23.96Q7.72 220.8 4.03 230.3q-2.35 5.95-1.44 9.45.96 3.88 6.37 7.19 9.98 6.04 28 11.93 17.21 5.66 38.73 10.17l-.33 2.83q-21.48-4.46-38.6-10.12-18.5-6.09-29.23-12.75-5.95-3.74-7.2-8.3-1.24-4.36 1.44-11.12 3.84-9.87 20.28-25.83 16.97-16.54 32.89-25.03zm87.68 100.66-13.85-.96 6.04-2.4 9.44.44zm10.27-2.73 6.46-.1-.86 3.03-11.7-.05zm27.99-.91q-1.01 3.79-3.55 8.1-2.69 4.56-4.55 4.99-1.2.24-3.84-1.15-2.5-1.35-5.13-3.6l1.87-.91q1.49 1.44 3.36 2.64 2.3 1.39 3.35 1.2 1.15-.3 3.17-3.5 2.06-3.31 3.26-6.86z"/><path fill="#0f141b" d="M70.7 200.9q-4.93 9.6-6.42 21.53l-1.96-.38q1.63-12.23 6.71-21.86zm-6.56 38.6q.96 8.58 3.93 15.72 3.17 7.57 8.34 12.6L75.7 270q-6.08-5.52-9.68-14.15-3.3-8-4.17-17.73zm-11.31-58.2q-15.25 16.44-19.13 38.83-4.27 24.54 8.68 41.61l-3.07-.77q-11.65-15.82-8-39.21 3.4-21.72 17.54-38.25zm202.29 41.51q-3.16-7.04-7.57-9.53-4.12-2.35-9.44-.96l-1.1-2.11q7.38-1.73 12.27 1.72 4.07 2.88 7.33 10.12.96 2.2 2.78 3.26 1.73 1.05 4.75 1.2 7.04.38 10.54 4.07 3.45 3.74 4.17 11.41.34 3.36-1.1 4.12-1.34.72-3.26-.96-4.74-3.98-9.35-4.74-4.4-.67-9.1 1.53-4.7 2.26-9.5 2.64-5.08.38-8.29-1.63l-.81-2.73q2.78 2.35 8.1 2.44 5.27.05 9.87-2.2 10.26-5.04 20.09 3.2 1.1 1.01 1.48.63.44-.29.24-2.2-.57-6.28-3.35-9.64-3.26-3.83-9.83-4.22-3.21-.19-5.03-1.05-2.5-1.25-3.89-4.37m-131.25 64.62q2.73-3.11 4.6-6.8l2.5-.67q-2.07 4.4-5.52 8.39-3.64 4.12-5.75 4.17-3.12.04-7.48-8.58-4.26-8.4-3.5-11.8 1.06-4.31 8.49-4.6 7.04-.33 11.98 2.78l-.9 1.97q-3.84-2.5-10.03-2.69-6.47-.19-7.24 2.97-.62 2.5 2.98 10.26 3.64 7.82 5.7 7.82 1.4 0 4.17-3.22"/><path fill="#0f141b" d="M89.3 281.92q-7 6.19-10.68 5.04-3.65-1.06-4.32-10.07-.62-8.92 2.3-11.7 3.26-3.16 11.13-1 8.05 2.2 8.34 7.04.33 4.46-6.76 10.7m-2.4-15.59q-6.52-1.72-8.87.48-2.1 2.02-1.77 9.73.38 7.86 3.02 8.63 2.92.86 8.77-4.6 5.9-5.6 5.66-9.25-.2-3.21-6.8-4.99"/></svg>