<svg xmlns="http://www.w3.org/2000/svg" width="550" height="454" viewBox="-0.33 -1.81 550.42 453.78"><path fill="#c40018" d="M428.22 1.92q-21.78 15.81-31.52 38.41-9.8 22.88-8.37 54.56 1.31 27.42-4.87 49.2-20.9-13.9-55.88-19.86-33.38-5.7-63.97-1.87v-21.83l15.98-21.62q9.3-18.99 27.47-35.13 16.8-14.89 38.97-25.4 21.01-10.12 42.9-14.44 21.67-4.32 39.3-2.02"/><path fill="#ea6c1a" d="M263.61 138.02v-15.66q30.6-3.83 63.97 1.87 34.97 5.96 55.88 19.86-6.35 22.27-20.14 37.65-14.61 16.2-37.05 23.97z"/><path fill="#ea6c1a" d="M470.58 205.71q16.2 11.38 38.09 20.03 19.92 7.77 35.46 9.96 1.91.27 1.8.99-.1.6-1.96.98-26.93 5.53-55 17.35-27.75 11.6-45.92 24.84-19.8 14.5-42.03 19.65-23.2 5.3-35.79-3.23l-22.49-10.4-26.43-72.18 9.96-7.99q6.9-1.75 16.8-7.6 10.9-6.46 16.75-13.2 27.3-7.82 56.47-2.3 29.17 5.48 54.29 23.1"/><path fill="#ea6c1a" d="M367.86 301.42q5.14 12.76 8 32.07-13.47 18.83-41.1 29.17-22.12 8.16-47.73 9.41l38.91-93.36 26.93 3.34q8.86 4.27 15 19.37"/><path fill="#c40018" d="M381.92 391.78q3.45 8.48 9.53 14 14.44 13.14 32.94 3.07.71-.38 1.26 0 .55.33.11 1.04-6.84 11.44-23.42 17.73-16.86 6.46-37.54 5.2-22.55-1.42-43.46-11.77-23.47-11.6-41.04-33l6.73-15.98q25.61-1.25 47.72-9.4 27.64-10.35 41.1-29.18 2.96 20.3 2.74 41.54-.11 8.54 3.33 16.75M107.26 364.9q-.71-10.28 1.7-21.06 2.35-10.51 7.44-20.47 9.2 10.67 19.37 17.57 11.33 7.66 22.5 9.68l.87 64.03q-16.96 11.16-44.71 10.4-12.53-.38-22.27-3.67-10.3-3.45-14.78-9.36 16.64-2.95 24.03-14.5 7.44-11.6 5.85-32.61"/><path fill="#ea6c1a" d="M116.4 323.37q5.47-10.78 13.46-19.81 8.05-9.14 17.68-15.16l9.9 1.31.82 60.91q-11.16-2.02-22.49-9.68-10.18-6.9-19.37-17.57"/><path fill="#ea6c1a" d="M138.07 189.79q4.1 4.21 13.63 9.13 8.15 4.22 14 5.92l-1.8 77.27-16.36 6.29q-2.68 1.31-5.8 3.78-2.74 2.13-4.76 4.32-18.34 7.83-45.04-2.4-25.29-9.64-39.46-27.37-8.81-11-21.45-19.48-12.04-8-26.87-13.25-2.19-.76-2.19-1.26-.05-.54 2.24-1.03 12.43-2.63 25.4-8.43 16.09-7.23 24.46-16.04Q69.6 190.83 95.1 185.9q24.74-4.82 42.96 3.89"/><path fill="#c40018" d="m228.75 119.63-7 7.6q-26.33 6.19-49.75 15.33-30.76 11.93-50.18 26.7-7.6-13.84-10.45-31.24-2.9-18.23-.33-38.8 2.9-22.6-6.02-44.22-9.53-23.04-29.06-35.3 25.23-1.7 51.77 7.22 24.19 8.21 46.24 24.08 20.69 14.89 35.4 33.39 14.56 18.27 19.38 35.24"/><path fill="#fff" d="M216.77 121.6q8.2-2.63 19.1-2.4 24.3.48 42.73 12.36 24.14 15.49 35.74 38.3 4.49 8.93 8.1 20.75 1.59 5.14 5.58 20.96 2.52 9.74 4.38 14.22 3.4 8.32 8.97 13.58 2.96 2.79 5.86 7.33 2.79 4.43 3.5 7.39-2.63-1.59-5.69-1.59 1.59 2.68 2.57 5.3l-3.77-.54q2.9 2.8 5.69 7.77 2.84 5.04 3.5 8.54-1.42-.71-4.6-1.31 2.36 3.77 3.94 8.26 1.7 4.92 1.97 9.47-1.97-.17-4.87-1.32-3.34-1.31-5.47-3.17 1.92 4.27 4.05 5.91-4.87 0-11.88-2.46-7.27-2.63-12.75-6.46 1.43 9.9 1.04 18.88-2.02-3.72-5.14-7.77.5 6.3.16 15.16-.27 8.53-1.15 13.57-4.6-5.09-8.59-8.1l.6 5.58q.44 2.96 1.2 5.26-3.71-1.81-8.36-5.64-5.1-4.1-8.38-8.37.17 4.05.93 9.74-5.8-2.36-14.06-10.56-8.48-8.49-11.82-15.5-.33 2.58-.28 6.41.11 3.89.6 6.73-4.48-2.79-8.42-10.29-4.54-8.64-5.75-19.04-2.02 10.67-10.89 22.38-8.59 11.38-18.38 16.97.21-3.94-.17-9.09-4.21 5.7-10.01 10.73-6.68 5.85-11.82 7.33-2.41-4.6-4.44-13.08-2.19-9.36-1.91-15.92-1.37 3.17-2.3 6.62-.88 3.45-.88 5.8-1.64-3.72-2.19-9.96-.65-6.46.33-11.55-1.42 2.74-2.84 6.46-1.53 4.05-2.14 7.11-1.75-4.7-2.08-8.31-3 3.83-7.71 7.17l2.13-5.75 1.48-4.98q-9.63 14.34-21.45 18.33 1.04-1.75 1.86-4.43l1.04-4.1q-3.78 2.73-7.83 6.29-4.98 4.27-7.71 7.5-1.43-9.85.32-15.76-3 2.95-4 4.32.72-11.99 5.81-19.87-4.21 2.14-5.36 3.01 0-2.4 1.47-5.8 1.6-3.55 3.62-5.52l.93-2.47q-2.74 2.08-6.46 2.9 3.4-9.08 6.07-12.86-4.87 1.15-7.5 2.63 2.25-5.58 7.01-11.33 5.58-6.9 11.33-9.3.98-16.26 2.46-28.95 2.96-24.24 9.25-34.86l31.74-50.73q3.45-5.2 11.99-7.88"/><path fill="#d5ecea" d="m180.7 295.46-2.13 5.75q4.7-3.34 7.71-7.17.33 3.6 2.08 8.31.6-3.06 2.14-7.1 1.42-3.73 2.84-6.47-.98 5.1-.33 11.55.55 6.24 2.2 9.96 0-2.35.87-5.8.93-3.45 2.3-6.62-.28 6.56 1.91 15.92 2.03 8.48 4.44 13.08 5.14-1.48 11.82-7.33 5.8-5.04 10.01-10.73.38 5.15.17 9.09 9.8-5.59 18.38-16.97 8.87-11.7 10.9-22.38 1.2 10.4 5.74 19.04 3.94 7.5 8.43 10.3-.5-2.85-.6-6.74-.06-3.83.27-6.4 3.34 7 11.82 15.49 8.26 8.2 14.06 10.56-.76-5.7-.93-9.74 3.29 4.26 8.38 8.37 4.65 3.83 8.37 5.64-.77-2.3-1.2-5.26l-.6-5.58q3.99 3.01 8.58 8.1.88-5.04 1.15-13.57.33-8.87-.16-15.16 3.12 4.05 5.14 7.77.39-8.97-1.04-18.88 3.94 2.74 9.09 4.98 4.27 43.72-19.1 73.11-18.77 23.53-55.27 37.6-18.88 7.17-38.53 17.13-25.72 12.91-32.07 20.9l-15.16-8.43q-13.57-9.8-24.3-32.83-10.34-22.22-11.1-41.15-.55-14.4 1.97-27.2 2.68-13.74 8.75-24.4-.6 5.35.39 11.87 2.73-3.23 7.71-7.5 4.05-3.56 7.83-6.3l-1.04 4.11q-.82 2.68-1.86 4.43 11.82-4 21.45-18.33z"/><path fill="#525557" d="M174.74 299.62q3.77-3.78 7.44-9.14l-1.48 4.98-2.13 5.75q4.7-3.34 7.71-7.17.33 3.6 2.08 8.31.6-3.06 2.14-7.1 1.42-3.73 2.84-6.47-.98 5.1-.33 11.55.55 6.24 2.2 9.96 0-2.35.87-5.8.93-3.45 2.3-6.62-.28 6.56 1.91 15.92 2.03 8.48 4.44 13.08 5.14-1.48 11.82-7.33 5.8-5.04 10.01-10.73.38 5.15.17 9.09 9.8-5.59 18.38-16.97 8.87-11.7 10.9-22.38 1.2 10.4 5.74 19.04 3.94 7.5 8.43 10.3-.5-2.85-.6-6.74-.06-3.83.27-6.4 1.75 3.66 5.53 8.43-4.33 15.87-20.42 37.04-13.68 18-28.4 30.87-12.1 10.67-24.46 31.9-13.68 23.65-17.35 43.84-.6 3.67-2.46 3.61-1.7-.05-2.9-2.68-11.93-27.14-14.83-68.02-3.34-47.78 10.18-80.12m8.16-83.18q3.66.49 7.76 4.6 4.38 4.37 6.4 10 .72 2.25-.98 2.47-5.7.66-10.4-.1-5.85-.94-8.48-4-3.67-4.27-1.59-9.03 2.08-4.65 7.28-3.94M178.84 260q-6.24-2.3-5.53-9.03.66-6.68 7.28-7.06 4.38-.33 9.3 3.34 4.33 3.34 6.9 7.93 1.15 2.2-.66 3.12-3.6 1.92-8.8 2.46-5.2.5-8.49-.76m76.46-43.5q4.86-4.71 9.19-6.63 6.73-3.06 11.38 2.3 4.49 5.25 1.15 10.5-2.52 4-11.11 6.4-8 2.25-15.22 1.65-5.25-.55-2.24-5.96 2.19-3.84 6.84-8.27m24.57 27.36q2.47 2.08 3.23 5.53.77 3.34-.5 6.46-1.41 3.34-4.7 4.98-4.87 2.3-13.95.71-8.92-1.53-13.74-5.25-1.58-1.2-1.48-2.68.11-1.43 1.92-2.85 4.7-3.56 11-6.08 6.51-2.57 11.77-2.95 3.72-.22 6.45 2.13M142.5 68.79q2.47-.38 4.5 2.79 1.96 3.06 2.23 7.28.44 5.03-.98 8.26t-3.89 3.4q-2.46.1-4.6-3.34-2.18-3.56-2.4-8.16-.22-3.77 1.2-6.78 1.43-3.12 3.94-3.45m4.71 63.75q1.75-.16 3.01 1.86 1.15 1.92 1.37 4.82.1 2.8-.88 4.98-1.04 2.19-2.73 2.19-1.7 0-2.9-2.08-1.2-1.92-1.37-4.7-.22-3.24.87-5.15.93-1.75 2.63-1.92m-29.83 80.89q2.58-.5 5.04 1.86 2.74 2.68 4.05 7.6 1.48 5.26.66 9.7-.88 4.26-3.4 4.97-2.68.82-5.52-1.75-3.12-2.74-4.38-7.72-1.37-5.03-.39-9.52 1.1-4.54 3.94-5.14m21.12 33q1 1.31 1.27 3.39.27 1.8-.6 3.5-.83 1.7-2.3 1.92-1.59.22-2.74-.88-1.15-1.15-1.42-3.45-.28-2.02.6-3.77t2.3-1.97q1.7-.22 2.9 1.26M366.27 69.12q.72 3.12-.16 7.44-.88 4.16-3.45 6.84-2.52 2.68-4.81 2.03-2.14-.55-2.58-4.5-.43-3.44.5-7.38.93-3.56 3.06-5.86 2.24-2.46 4.6-2.13 2.02.27 2.84 3.56M334.2 79.4q2.2.94 2.85 4.93.6 3.83-.5 8.26-1.2 4.71-4.04 7.72-2.8 2.96-5.15 2.3-2.02-.66-2.9-5.04-.87-4.54.33-9.13 1.15-4.55 3.94-7.28 2.8-2.8 5.47-1.75m7.45 59.86q1.86.77 2.4 2.96.55 2.08-.32 4.54-.88 2.36-3.01 3.61-2.08 1.2-3.56.55-1.64-.71-2.3-2.84-.71-2.36.11-4.98.66-2.08 2.96-3.34 2.13-1.15 3.72-.5m44.32 69.61q2.69.66 3.84 4.44 1.14 3.66.27 8.32-.93 5.41-4.16 8.48-2.96 2.95-6.07 2.08-2.9-.71-4-5.1-1.04-4.2 0-8.91.93-4.54 4-7.34 2.95-2.73 6.12-1.97m-14.11 40.88q1.14.77 1.25 2.58.17 1.75-.7 3.55-.88 1.75-2.42 2.52-1.53.82-2.79.22-1.15-.55-1.47-2.35-.28-1.86.54-3.62.82-1.86 2.52-2.73 1.75-1.04 3.07-.17m-222.73 97.8q1.58 0 2.51 1.8.82 1.7.71 4.38-.1 2.57-1.2 4.16-.98 1.53-2.57 1.53-1.53 0-2.41-1.75-.82-1.7-.93-4.6-.11-2.02 1.1-3.77 1.14-1.75 2.79-1.75m-21.07 32.56q2.02-.27 3.83 1.86 1.86 2.19 2.4 5.75.5 3.33-.43 5.96-1.04 2.96-3.34 3.34t-4.16-1.86q-1.8-2.2-2.3-5.64-.55-3.34.6-6.18 1.26-2.96 3.4-3.23m136.97-19.87q1.1 1.54-.16 4.16-1.31 2.47-3.78 4.27-2.57 1.86-5.2 2.25-2.68.38-3.6-.99-1.21-1.7 0-4.21 1.14-2.41 3.82-4.33 2.3-1.64 5.15-1.97 2.79-.38 3.77.82"/><path fill="#525557" d="M220.21 393.75q.71 1.14-.16 2.84-.93 1.75-3.12 3.01-1.86 1.15-4.05 1.26-2.08.16-2.57-.66-.66-1.2.38-2.95 1.04-1.8 3.17-3.07 1.97-1.15 3.95-1.2 1.86-.06 2.4.77m-59.71-2.3q1.32 1.15 1.81 2.84.55 1.86.11 3.45-.38 1.64-1.53 1.97-1.48.44-2.74-.71-1.25-1.04-1.75-2.96-.54-1.91-.16-3.39.33-1.64 1.64-1.97 1.31-.38 2.63.77m193.07-47.39q2.62.32 3.83 3.39 1.04 2.63.6 6.78-.44 4.71-3.01 7.83-2.68 3.23-5.64 2.52-2.79-.77-3.83-4.16-.93-3.07-.38-7.55.5-3.89 2.95-6.52 2.52-2.68 5.48-2.3m-8.65 40.5q1.92.22 2.96 2.57.93 2.2.7 5.26-.21 3.34-1.9 5.47-1.76 2.19-3.9 1.86-1.85-.22-2.84-2.4-.98-2.2-.82-5.53.11-3.07 1.86-5.31 1.75-2.14 3.94-1.92"/><path fill="#38393a" d="m149.4 312.48 7.28-6.57q.87 3.83-.5 7.34-1.36 3.66-3.88 3.94-1.31.1-2.13-1.43-.83-1.42-.77-3.28"/><path fill="#525557" d="M290.64 318q1.65 1.21 5.1 2.8-.5-2.36-.6-5.42l3.38-.44 2.8 2.9q-.11 4.93-4.93 8.1-4.82 3.18-7.39.28-1.1-1.2-.6-3.73.55-2.46 2.24-4.48"/><path fill="#ea6c1a" d="M165.87 203.85q-13.79-3.01-25.12-11.93-11.44-8.92-18.93-22.66 19.42-14.77 50.18-26.7 23.42-9.14 49.75-15.32l-48.71 52.97q-4.87 10.23-7.17 23.64"/><path fill="#fff" d="M298.36 147.6q2.52-4.99 7.17-9.2 4.98-4.54 10.67-6.51-1.8 4.6-3 10.45-1.38 7.06-1.05 12.48 5.36-2.14 8.43-5.1-.55 3.51-2.08 7.12-1.53 3.72-3.72 6.68 3.72.38 6.56-.11-3.83 5.58-7.05 7.66-3.01-6.57-7.4-13.08-4.64-7-8.53-10.4"/><path fill="#dcdddd" d="M143.27 264.32q3.4-3.45 8.26-7.6 5.48-4.6 8.38-6.08-1.37 4.43-4.05 11.05-2.9 7.17-4.71 10.3-2.57 1.58-6.57 3.22 2.8-7.99 5.75-13.4l-3.61 1.14q-1.86.6-3.45 1.37m9.63 13.9q.88.71 0 2.03l-2.13 2.13q-4.38 2.13-6.02 3.67.98-1.97 2.84-4.27 2.03-2.46 3.61-3.61zm10.73 22.33q-3.23 2.13-7.72 5.9-4.81 4.06-8.04 7.5-.93-8.53.43-15.54l-4.1 4.16q1.53-4.16 4.7-8.26 3.62-4.7 7.4-6.73-1.87 5.14-1.54 10.45 4.1-3.72 12.2-7.17.6 4.33.33 6.4 4.38-2.62 8.81-6.34 5.2-4.54 7.67-8.32-.28 4.1-1.32 6.95-3.77 7.28-10.67 12.86-5.74 4.7-11.55 6.68 1.37-2.03 2.3-4.55.88-2.24 1.1-4m18.06-7.44q3.83-5.03 5.03-13.51-.76 10.01-.33 14.34l-3.6 3.94-4.5 3.77q1.54-2.9 3.4-8.53"/><path fill="#dcdddd" d="M188.8 278.82q-.22 5.1.17 8 1.25-1.92 3.44-3.9l3.61-2.84q-.38 3.83.72 8.43 1.64-3.4 5.41-6.73.17 5.42 2.03 14.4 1.97 9.46 3.94 13.23 4.87-2.24 10.83-7.06 6.3-5.14 9.3-9.68 2.3 7.11 2.69 11.66 8.48-6.13 15.92-16.59 9.03-12.75 10.07-24.24 2.41 16.03-8.8 33.1-9.15 13.85-21.57 21.52.55-3.56.17-9.64-3.62 5.42-9.8 10.84-6.9 6.02-12.48 7.6-2.35-5.36-4.27-13.84-2.08-9.36-1.8-15.1-1.04 2.02-1.97 5.3-1.04 3.78-1.1 6.74-1.75-3.01-2.3-9.53-.54-6.4.33-11.93-4.65 9.3-5.03 13.8-2.25-5.53-2.03-16.37.28-11.7 3.67-17.4-.98 4.43-1.15 10.23"/><path fill="#dcdddd" d="M306.13 251.08q9.47 7.71 14.89 23.64 4.98 14.88 3.39 26.7-2.03-4.15-5.2-8.04.55 6.3.33 14.17-.22 8.49-1.26 14.94-5.91-6.4-8.43-8.15-.22 5.25 1.7 10.62-3.56-1.6-7.83-4.98-4.87-4-8.8-9.03 0 6.84.7 9.68-5.85-2.24-13.68-10.12-7.77-7.83-12.26-15.87-.38 8.8.5 13.35-3.83-1.42-8.6-11-4.92-9.9-5.52-18.44 1.04-3.45 1.58-8.6.66 5.04 2.52 10.73 1.64 5.15 3.4 8.38 1.25-7.28 3.39-11 2.46 6.62 8.43 14.5 5.47 7.17 10.01 10.56.99-5.9 2.68-10.62 2.52 4.38 6.79 9.36 4.21 4.98 7.44 7.45-.16-1.76-.16-4.77l.05-4.1q5.91 2.85 9.58 7.88 1.04-5.2.6-13.74-.38-8.42-1.92-13.9 5.42 2.8 8.16 5.91-.6-7.88-3.4-16.85-3.5-10.9-9.08-18.66"/><path fill="#dcdddd" d="M348.21 272.26q2.74 3.66 4.44 8.86 1.58 4.87 1.7 8.98l-4.71-1.48q-3.34-1.31-5.8-3.01 2.08 4.27 3.94 5.9-4.98-.1-11.39-2.29-7.55-2.63-13.3-7-1.75-8.65-4.26-13.25 2.51 4.38 8.92 8.98 4.16 2.95 8.48 4.98-.82-1.26-1.48-3.12l-.98-2.96q2.9 2.8 10.5 4.05-.6-3.06-2.62-7.17-2.08-4.16-4.49-7 3.5 0 7.06 1.2-5.53-15.05-14.12-23.91 19.1 15.21 23.31 30.04-.76-.44-5.2-1.8"/><path fill="#dcdddd" d="M333.44 244.07q4.92 2.96 7.44 5.37l-1.31-4q8.15 5.1 10.61 8.43-2.08-1.1-5.41-1.53.87.82 1.58 2.73l.99 2.9-3.5-.7q-4.71-6.52-19.6-17.63 3.45.88 9.2 4.43m-17.51-112.24q-1.64 3.72-2.96 12.2-1.1 7.5-.98 11.5-1.54 1.15-3.4 1.1-1.7-.12-2.4-.94.32-4.54 3.22-11.93 3.12-7.88 6.52-11.93m2.02 26.38q-1.91 3.89-3.83 6.07.93.77 2.57 1.37l2.68.6-4.76 4.5q-1.47-3.67-4.05-7.45 2.25-1.7 5.26-5.75 2.95-4.05 4.21-7.06.17 3.01-2.08 7.72"/><path fill="#b8cccb" d="m294.91 310.95 3.23 3.83q-1.64.1-2.9.54z"/><path fill="#b8cccb" d="M305.97 333.88q-7.23-8-9.53-7.83 4.71-4.1 4.98-8.26 5.53 4.7 10.13 7.17-.77-2.08-1.26-5.53-.44-3.07-.44-5.09 3.07 1.97 8.43 8.15 1.04-4.26 1.26-13.9.16-8.37-.33-15.21 2.57 2.8 5.2 8.04.38-2.73-.06-8.86-.38-6.51-1.25-10.34 4.48 3.28 9.08 5.14 2.52 24.52-2.74 42.52-4.37 15.32-16.03 30.7-9.63 12.64-26.16 22.88-15.6 9.63-41.92 19.75-14.06 5.48-32.67 15.76-19.86 10.9-25.34 16.91l3.5-10.07q14.84-11.05 40.72-25.28 20.69-11.38 35.63-18.17 10.67-4.76 22.43-14.17 13.41-10.84 21.68-22.71 2.24-3.23-5.31-11.6"/><path fill="#38393a" d="M296.44 326.05q-1.64-1.1-3.66-2.13l-4.05-2.03q1.04-2.52 2.13-3.77 2.74 1.91 4.82 2.68l-.44-5.48q1.26-.43 2.9-.54l3.28 3q-.16 2.52-1.53 4.71-1.31 2.3-3.45 3.56"/><path fill="#b8cccb" d="M148.85 385.32q9.74 18.06 19.16 23.75l2.02 9.96q1.2 5.53 2.24 8.48-13.24-8.76-24.4-32.29-10.9-22.93-10.57-39.67 2.9 13.51 11.55 29.77"/><path fill="#ca5d14" d="m360.97 184.37 5.8-.71q-1.54 6.34-12.7 15.54-12.15 10.12-25.5 14l-1.86-7.05q8.7-3.4 18.66-9.74 10.12-6.35 15.6-12.04m-223.23 4.7q4.6 4.87 13.63 9.64 7.77 4.05 13.95 5.8l-1.31 8.59q-10.45-3.18-21.01-11.93-8.43-7.06-12.97-13.85z"/><path fill="#a2000c" d="M92.92 421.6q-10.56-3.45-15.37-9.58 5.8 3.34 16.03 3.89 9.8.6 20.69-1.48 25.11-4.7 34.25-17.51 5.37 10.29 10.84 17.4-7.72 5.31-19.87 8.1-11.54 2.8-24.02 2.57-12.64-.16-22.55-3.39m277.68 2.8q33.87 3.27 55.05-14.18-12.04 15.1-32.5 20.3-18.83 4.7-41.27.38-21.62-4.16-40.88-15.48-19.7-11.66-31.25-27.64 14.83-8.1 25.23-18.06 6.68-.76 13.19-2.3-4.21 5.26-9.36 10.24-4.54 4.37-2.19 12.36 2.41 7.94 9.9 13.8 22.83 17.5 54.08 20.57"/><path fill="#ca5d14" d="M328.84 330.92q5.53-18.99 3.34-43.56 3.01 1.75 5.8 2.57l6.3 1.26q-3.07.82-4.38 4.49-.93 2.46-.88 5.09.38 19.97-4.54 36.12-5.15 16.69-16.31 30.53-6.51 1.54-13.19 2.3 17.4-16.47 23.86-38.8"/><path fill="#38393a" d="M174.96 224.81q-.44-3.23 1.75-6.02-.44 4.7 6.34 9.41 6.8 4.82 13.8 4.7-5.42 1.49-10.4.83-4.7-.66-7.88-3.06-3.18-2.52-3.61-5.86m-1.26 23.42q1.1 4.43 8.92 7.34 7.82 2.79 14.83 1.36-2.8 2.85-8.27 3.83-5.47.88-10.01-.76-4-1.42-5.53-4.7-1.42-3.3.06-7.07m104.36-28.35q-.93 4.1-5.26 6.52-5.47 3.12-15 4.27-9.9 1.14-10.33-1.92 7 .16 17.34-4.76 11.22-5.36 11.93-10.9 2.08 3.07 1.32 6.8m-3.78 42.02q-6.68.99-15.81-1.64-10.07-2.79-9.85-7.11 5.52 4.1 18.6 3.39 13.3-.71 16.2-5.7.5 3.84-2.08 7.07-2.68 3.4-7.06 4"/><path fill="#b8cccb" d="M275.54 303.07q7.99 9.96 15.32 15.05-1.75 1.97-2.57 3.77-5.36-2.52-9.2-3.45l-9.24-.76q1.53-2.74 3.28-7.5zm-115.31 6.02q7.5-2.3 14.45-9.36l-2.24 6.62q-3.83 3.28-9.9 6.24-4.77 2.4-8 3.4 1.59-1.7 2.3-4.22.88-2.96 0-5.91 3.5-2.9 6.79-5.31-1.1 5.42-3.4 8.54"/><path fill="#dcdddd" d="M188.09 200.62q8.32 4.6 13.84 10.78 5.04 5.75 6.24 10.95.44 1.91 1.7 1.86 1.1-.06 1.92-1.59.98-1.91 1.36-9.63l4.82 6.95q.98 1.42 2.13 1.59 1.32.22 1.97-1.15 5.1-9.96 14.12-19.05-1.91 4.27-2.3 11.88-.32 6.4.44 10.01.39 2.25 1.7 2.03 1.37-.17 1.7-2.46 1.25-7.67 8.15-14.62 6.07-6.18 12.75-8.59-4.32 2.41-8.76 7.44-4.43 4.98-6.95 10.13-6.45 13.4-19.75 12.91-13.03-.38-20.63-13.3-4.55-7.66-14.45-16.14"/><path fill="#38393a" d="M180.37 306.51q-5.14-2.51-7.93-.16l2.24-6.62q4.76-4.76 7.77-10.18-1.75 6.79-3.94 11.71 1.7-.93 3.94-3.12l3.94-4.21q.28 4.16 1.92 8.42.55-2.84 2.19-7 1.47-3.72 2.84-6.35-.82 4.93-.33 11 .5 6.84 2.41 10.4-.05-2.96.93-6.95.99-3.61 2.03-5.47-.17 5.85 1.58 14.44 1.81 8.82 4.5 14.5 5.96-1.96 13.13-8.37 6.07-5.41 9.14-10.07.32 6.19-.17 9.64 6.4-3.83 12.04-9.58l.06-.17q6.12-6.45 11.16-14.72 4.32-7.66 6.24-14.83.49 4.65 2.3 10.18 1.86 5.7 4.48 10.29 3.67 6.3 7.34 8.7-1.15-5.74-.5-13.35 1.65 3 4.71 6.9l1.15 1.53-2.19 6.13-1.75 4.37-.11-.1q-5.64 12.09-14.94 25-10.5 14.72-22.5 25.61-18.49 17.19-31.08 37.5-14.11 22.7-18.5 46.23-.54 2.9-2.13 2.96-1.58 0-2.95-2.68-3.78-7.72-6.95-19.43-3.5-12.8-5.53-27.91 1.92 8.1 5.47 18.22 3.67 10.51 6.57 16.1 1.04 1.96 1.8 1.8.72-.17.94-2.14 2.02-19.59 7.5-36 5.85-17.4 16.08-32.46 6.62-9.74 6.46-20.14-.22-10.78-7.72-13.95-9.13-3.94-15.37-16.8-2.85-6.18-8.27-8.87"/><path fill="#0f141b" d="M230.12 120.56q-17.4 1.26-23.53 8.37l-4.1 2.14q3.28-9.8 23.58-12.54t37.43 4.22q27.42 11.27 42.2 31.08 14.6 19.48 22.76 54.9 2.35 10.17 4.54 15.92 2.63 7 6.4 11.05 9.58 10.4 12.32 18.44.27.93-.17 1.2l-1.04-.16q-1.8-1.31-4.05-1.75 1.37 2.24 1.97 4.27.44 1.37-.76 1.1l-3.61-.77-1.43-1.97 3.56.65q-.77-1.91-2.19-3.94-.44-.6-.27-.93.16-.32.87-.27 2.74.11 4.6.93-1.48-3.34-4.43-7.22l-6.84-8q-3.94-4.26-7-11.49-2.74-6.5-4.99-16.41-7.93-34.64-22.65-54.18-14.84-19.7-40.88-29.93-14.73-5.92-32.3-4.71"/><path fill="#0f141b" d="M323.59 239.42q.33-.5 1.64.27 9.63 6.13 17.57 14.94 9.35 10.4 11.32 19.49.22.93-.21 1.15l-1.1-.22q-1.59-1.04-3.83-1.8l-1.64-2.3q3 .65 4.27 1.3-2.74-8.26-11.33-17.67-7.11-7.72-15.82-13.8-1.2-.92-.87-1.36"/><path fill="#0f141b" d="M347.23 270.07q3.83 3.5 6.07 10.18 1.65 4.7 2.2 10.12.16 1.2-1.16 1.1-1.53-.17-3.94-1.2-2.51-1.05-4.81-2.64 1.31 2.03 3.12 3.34.87.6.7 1.1-.16.49-1.25.49-5.3-.06-12.7-2.74-7.82-2.79-12.36-6.73l-.5-2.62q3.78 3.72 11 6.67 6.35 2.52 11.88 3.23-1.75-2.3-2.57-4.6-.28-.93.22-1.15.49-.16 1.25.33 5.37 3.67 8.92 4.22-1.42-11.77-7-18.23-.88-1.04-.5-1.42.39-.38 1.43.55"/><path fill="#0f141b" d="M306.08 250.37q10.4 9.35 15.43 22.93 5.03 13.46 3.72 28.4-.1 1.31-.71 1.37-.55.05-1.04-.99-3.01-6.07-6.3-10.12-.92-1.04-.49-1.43.5-.32 1.43.66 3.28 3.23 5.41 7.22.6-28.01-18.33-47.11-1.04-1.1-.66-1.54.39-.49 1.54.6"/><path fill="#0f141b" d="m318.06 292.12 2.14 3.12q.65 6.95.32 14.45-.27 7.88-1.36 13.19-.17.93-.66 1.04-.44.1-1.04-.66-2.8-3.5-6.9-7.17.44 4.05 1.92 8.81.6 1.86-1.31 1.15-3.94-1.48-8.6-5.3-4.05-3.3-7.33-7.18l-.1-3.5q3.11 3.78 6.67 7.17 4.6 4.27 8.2 6.13-1.03-4-1.3-9.41-.06-.77.32-.93t1.04.32q3.67 2.85 7.44 7.06.82-5.9 1.04-13.62.22-8.6-.49-14.67"/><path fill="#0f141b" d="M283.42 313.4q-7.06-6.78-13.02-16.19-.17 3.89.76 10.95.33 2.02-1.64.82-5.09-3.4-9.3-12.2-3.78-8.16-4.71-16.1l1.37-4.54q.27 7.72 3.72 16.42 3.56 9.14 8.37 13.46-.49-4.6-.1-11.5.05-.87.6-.98.43-.05.93.6 5.63 9.25 12.58 16.26 6.13 6.02 11.5 8.76-.5-4.38-.22-10.07.05-1.32.65-1.37.55 0 .6 1.26.22 7.06 1.04 11.65.22 1.1-.27 1.32l-1.2-.22q-5.37-2.25-11.66-8.32"/><path fill="#0f141b" d="M257.8 264.16q2.03 16.25-8.58 33-9.2 14.6-22.11 21.72-1.7.93-1.53-.87.54-7.5.05-12.75-.05-1.26.5-1.32.6-.16.81 1.15.77 5.97.72 11.11 11.93-7.93 20.3-21.18 9.8-15.65 8.59-30.7-.1-1.37.5-1.48.6-.05.76 1.32"/><path fill="#0f141b" d="M198.87 290.64q.6.06.5 1.54-.94 9.03 1.74 21.56 2.41 11.27 3.94 11.87 1.65.66 9.3-5.3 8.54-6.68 12-13.52l.21 2.9q-2.79 5.09-8.75 10.34-6.8 5.91-13.36 8-.55.21-.82-.34-3.23-6.73-4.87-15.81-1.8-10.4-.71-19.81.16-1.48.82-1.43"/><path fill="#0f141b" d="M190 269.63q-2.18 5.42-2.79 14.56-.65 9.4.99 15.16 1.42-5.42 4.98-12.43.55-1.04 1.1-.76.6.27.27 1.42-1.15 4.76-1.04 10.12.1 5.1 1.31 9.2.55-4.93 3.4-11.17l.32 3.56q-2.24 5.64-2.4 11.38-.06 1.04-.6 1.1-.56.05-1.1-.82-1.7-3.01-2.25-7.94-.6-4.81-.05-9.96-2.14 5.15-2.96 9.85-.21 1.04-.7 1.1-.5.05-.83-.82-2.68-5.75-2.19-16.59.44-10.5 3.34-17.45.55-1.2 1.15-.88.55.22.05 1.37"/><path fill="#0f141b" d="M180.87 292.23q1.64-5.3 2.08-9.08.16-1.26.82-1.15.6.05.49 1.37-.99 8.8-3.89 15.65 3.83-3.23 5.97-7.06l.27 2.79q-3 4.65-7.93 7.6-.99.6-1.37.22-.38-.32.05-1.31 1.8-3.56 3.5-9.03"/><path fill="#0f141b" d="M164.56 300.22q-.5 3.34-2.03 6.9 7.23-2.8 13.3-9.9 3.89-4.55 6.73-10.19l-.6 4.87q-3.06 5.31-7.5 9.58-6.13 5.8-13.68 8.37l-1.53-.05q-.22-.55.33-1.32 1.97-3.22 2.9-6.18-3.67 2.8-7.66 6.35l-6.13 6.02q-.6.76-1.1.65-.49-.16-.65-1.14-.5-2.9-.39-7.12.17-4.38.93-7.99l2.14-1.59q-.82 3.23-1.1 7.4-.27 4.1.06 7.05 5.58-5.58 14.72-12.48 1.48-1.04 1.26.77"/><path fill="#0f141b" d="M152.74 280.68q-2.85 3.94-4.98 9.74-2.08 5.42-2.47 9.8 2.69-3.12 5.97-5.03 1.2-.66 1.53-.22.33.43-.71 1.2-3.67 2.68-7.11 6.95-.5.6-.99.44-.5-.17-.55-1.04-.21-5.09 1.97-11.22 2.36-6.4 6.35-11.38.77-.99 1.26-.66.5.38-.27 1.42"/><path fill="#0f141b" d="M154.1 271.54q-7.16 6.35-8.1 12.54 2.3-1.64 5.26-2.8l-1.1 2.47q-2.46 1.1-4.87 3.06-1.64 1.32-1.53-.7.11-3.78 2.14-7.4 2.4-4.43 7.44-8.1 1.1-.93 1.48-.43.33.43-.71 1.36"/><path fill="#0f141b" d="M166.3 206.75q-2.73 15.7-3 31.47-.17 8.59-4.16 18.38-3.23 8.05-7.77 16.91l-4.65 4.82q6.4-12.64 10.5-22.6 3.34-8.32 3.5-17.57.5-17.02 3.24-32.83 3.12-18 8.04-26.6l1.7 2.9q-4.44 8.21-7.4 25.12"/><path fill="#0f141b" d="M161.5 244.84q-4.11 1.86-9.36 7.66-4.93 5.42-7.56 10.56 2.96-1.48 6.13-2.24.88-.17 1.15.22.28.33-.27 1.04-2.9 4.1-5.64 11.43 2.74-.98 5.58-3.55l-1.1 3.23q-3.06 2.08-5.74 3.06l-1.26-.05q-.38-.33-.05-1.32 2.35-6.95 5.53-11.82-2.9.88-5.8 2.47l-1.2.05q-.28-.38 0-1.15 2.67-6.3 8.31-12.7 6.07-7.06 11.38-9.03zm133.41-63.37q-1.04.93-1.8.33-.82-.72.16-1.76 2.4-2.9 6.68-4.04.87-.28 1.04.21.22.44-.6.88-1.98 1.15-5.48 4.38m2.09 11.22q4.42.1 7.16 1.91.82.6.5 1.26-.28.66-1.1.27l-2.85-.7-3.6-.45q-1.32-.05-1.27-1.2 0-1.15 1.15-1.1m2.08 9.8q1.97.6 3.89 2.63 1.86 2.02 2.13 3.83.11.77-.27.93-.39.1-.71-.66-.66-1.36-2.41-2.79-1.64-1.42-3.18-2.02-1.04-.5-.76-1.37.27-.88 1.31-.55m-3.72 19.54q-.55-.99.22-1.37.87-.44 1.37.38 1.31 2.2 2.24 3.07.66.6.44 1.2l-1.04.06q-2.03-1.1-3.23-3.34m-2.57 3.28q1.42 3.83.82 8.32-.11.82-.66.77-.6-.06-.6-.77 0-4.38-1.31-7.55-.5-1.15.43-1.53.83-.33 1.32.76m-52.1 31.63q1.42 2.85 2.57 4.27.6.77.22 1.42-.38.6-1.2-.16-1.75-1.59-3.5-4.6-.72-1.2.27-1.75.98-.54 1.64.82m-8.76 3.29q0 3.34.39 6.02.16.93-.44 1.1-.6.1-.93-.94-1.1-3-1.1-6.13 0-1.2 1.1-1.26.98 0 .98 1.2m-10.17 1.1q-2.25 1.53-4.93 5.1-.6.7-1.15.37-.6-.38-.16-1.31 1.86-4 4.87-6.13 1.15-.76 1.8.22.66.99-.43 1.75m-48.6-66.27 3.17.44q1.65.54 2.69 1.42.54.44.27.88-.33.49-.88.21-2.24-.98-5.36-.87-.98.1-1.04-.99-.05-.98 1.15-1.1m-1.42 11.67q2.35-.11 3.94.65.7.28.65.82-.1.44-.82.33l-3.66-.1q-.88.05-.93-.83-.06-.76.82-.87m-1.75 11.6q1.75-1.86 4.43-3.29.71-.38 1.04.17.33.6-.33 1.04l-3.83 3.34q-.82.82-1.48.16-.6-.66.17-1.42m145.84-87.18q1.8-.66 1.1 1.1-1.65 4.7-2.74 10.78-1.2 6.23-1.32 11.7l-1.75.83q.33-13.57 3.5-22.06-4.76 2.03-9.3 6.57-4.16 4.21-6.13 8.26l-1.31-1.53q2.46-4.76 7.06-9.03 5.3-4.87 10.89-6.62"/><path fill="#0f141b" d="M322.11 163.8q-2.74 4.92-7.28 8.15l-.82-1.81q3.07-2.3 5.47-5.64-2.68.33-4.92-.05-1.59-.17-.55-1.32 4.43-6.07 5.36-11.32-4.15 3-8.86 4.54l-1.31-.17q-.22-.54.87-1.03 5.31-2.36 10.02-6.19.65-.5 1.09-.27.38.16.33 1.1-.11 2.67-1.53 6.29-1.43 3.55-3.67 6.78l4.98-.38q.82-.17 1.04.22.22.38-.22 1.1M191.2 220.16q4.5 4.49 6.58 10.78.6 1.75.27 2.52-.33.87-1.86 1.1-5.64.7-10.56.05-6.52-.99-9.3-4.27-4.77-5.53-1.98-10.78 2.68-5.1 8.65-4.27 4 .6 8.2 4.87m-8.42-2.35q-4.6-.66-6.3 3.22-1.69 3.94 1.6 7.77 4.7 5.42 17.45 3.89.82-.1.39-1.59-1.98-5.52-5.97-9.3-3.61-3.5-7.17-4m-2.24 25.01q4.48-.27 9.74 3.73 4.65 3.55 7.33 8.31.93 1.7.66 2.63-.22.93-1.75 1.75-3.89 2.08-9.42 2.63-5.36.55-8.59-.6-3.6-1.37-5.42-4.33-1.7-2.84-1.36-6.07t2.57-5.47q2.4-2.36 6.24-2.58m-1.32 16.2q3.18 1.15 8 .82 4.97-.38 8.31-2.19l.77-.7-.38-1.27q-2.58-4.65-7.01-7.6-4.38-3.07-8.26-2.85-5.97.44-6.57 6.02t5.14 7.77M264 208.88q7.82-3.55 13.02 2.36 5.03 5.8 1.04 12.2-2.8 4.38-12.04 6.79-8.21 2.13-15.43 1.48-3.23-.28-4.05-1.97-.88-1.87 1.04-5.31 2.3-4 6.95-8.6 5.14-5.03 9.46-6.95m-8.1 8.43q-4.54 4.27-6.67 8.05-1.37 2.4-.93 3.5.38.88 2.51 1.04 6.4.66 14.29-1.59 8.42-2.35 10.83-6.07 3.07-4.98-.76-9.47-3.94-4.54-10.3-1.75-4.26 1.91-8.97 6.3m22.39 44.65q-4.77 2.19-13.69.93-9.46-1.42-14.99-5.75-2.02-1.58-1.92-3.4.11-1.8 2.36-3.55 4.81-3.72 11.44-6.4 6.78-2.8 11.93-3.12 4.15-.22 7.22 2.3 2.9 2.3 3.83 6.07 1.04 3.78-.44 7.23-1.64 3.77-5.74 5.69m.65-17.13q-2.35-1.97-5.47-1.8-5.09.27-11.27 2.67-6.35 2.41-10.95 5.92-2.9 2.13-.55 4.04 4.77 3.67 13.41 4.98 8.65 1.26 13.2-.93 6.56-3.12 4.7-10.07-.82-2.95-3.07-4.81M227.71 119.9q-7.83-20.8-24.08-39.78-15.6-18.23-36.55-32.07-20.91-13.85-43.57-21.02-23.53-7.38-45.09-6.4 18.72 10.9 28.13 34.92 8.54 21.94 6.02 44.87-4.93 43.67 12.48 71.58 14.6 23.59 40.77 31.03l-.55 2.85q-28.07-7.89-43.12-32.51-17.46-28.57-12.48-73.22 2.52-22.5-5.36-43.13-8.98-23.64-29.06-36.33-.82-.5-.77-1.1.11-.55 1.15-.6 22.16-1.97 46.57 5.09 23.64 6.78 45.42 20.85 22 14.06 38.1 32.94 16.85 19.81 24.56 41.54z"/><path fill="#0f141b" d="M57.68 202.37q14.67-13.51 36.61-17.95 23.7-4.87 43.56 4l3.56 4.76q-19.87-10.13-44.5-5.91-22.98 3.83-37.31 17.3-11.88 11.16-27.37 18.82-15.37 7.66-29.77 9.57 29.06 7.61 49.2 30.54 18.88 21.4 43.12 30.1 24.3 8.65 43.84 1.04l-4.27 4.32q-17.68 6.24-40.77-1.97-25.17-8.92-44.16-31.3-17.13-20.2-45.15-30.26-4.6-1.65-4.32-2.69.27-1.03 5.2-2.18 14.17-3.34 27.96-10.73 13.46-7.33 24.57-17.46m90.08-131.61q2.19 3.23 2.57 8.15.44 6.02-1.26 9.36-1.53 3.18-4.6 3.34-2.95.22-5.41-3.4-2.52-3.71-2.85-9.08-.22-4.43 1.37-7.6 1.7-3.34 4.81-3.73 3.01-.38 5.37 2.96m-8.32 1.91q-1.31 2.58-1.04 6.4.22 4.33 2.13 7.45 1.8 2.9 3.89 2.9t3.06-2.85q1.15-2.79.77-7.55-.33-4.27-2.08-6.9-1.64-2.4-3.5-2.18-2.03.27-3.23 2.73m11.22 60.75q1.64 2.19 1.86 5.8.22 3.67-1.15 6.07-1.31 2.3-3.34 2.3-2.4 0-3.83-2.3-1.37-2.18-1.53-5.52-.22-3.83 1.15-6.08 1.31-1.97 3.34-2.13 1.97-.11 3.5 1.86m-3.4.33q-2.84.22-2.51 5.9.1 2.58.98 4.17.93 1.64 2.25 1.64 1.25 0 2.02-1.64.66-1.64.55-4.55-.38-5.69-3.29-5.52"/><path fill="#0f141b" d="M127.5 222.79q1.6 5.63.61 10.28-.93 4.71-4.1 5.64-3.01.88-6.19-1.7-3.55-2.9-5.03-8.59-1.59-5.96-.28-10.61 1.32-4.66 4.6-5.31 2.9-.55 5.64 1.86 3.17 2.73 4.76 8.43m-10.02-8.21q-2.24.49-3.11 4.26-.99 4 .38 9.09 1.26 4.7 4.1 7.17 2.52 2.13 4.6 1.53 2.08-.66 2.74-4.38.7-3.94-.66-8.92-1.42-5.09-3.83-7.33-1.97-1.8-4.22-1.42m19.54 41.81q-1.86.27-3.45-1.1-1.64-1.53-1.97-4.21-.27-2.41.77-4.43 1.1-2.14 3.06-2.41 2.03-.33 3.5 1.37 1.48 1.53 1.81 4.2.39 2.7-.76 4.55-1.04 1.75-2.96 2.03m1.75-6.3q-.49-4.05-3.06-3.72-1.04.17-1.7 1.48-.55 1.26-.38 3.06.38 3.72 3.12 3.34 1.04-.16 1.64-1.31t.38-2.85M428.88 2.74Q408.85 16.58 399 39.29q-9.74 22.38-9.14 52.54.88 42.25-10.01 67.53-14.67 34.1-52.92 48.05l-.71-2.85q32.88-13.08 47.39-40.06 14.39-26.8 13.35-72.56-1.48-61.79 38.69-89.26-17.13-2.02-38.69 2.8-21.45 4.7-42.2 15.1-21.66 10.83-38.03 25.55Q289.06 62 280.47 80.06l-2.03-1.75q8.32-18.06 26.1-34.2 16.64-15.05 38.7-26Q364.9 7.4 387.11 2.8q22.82-4.6 41.38-1.7 1.09.17 1.15.66.05.44-.77.99"/><path fill="#0f141b" d="M367.04 76.89q-1.15 5.3-4.16 7.99-2.68 2.4-5.36 1.75-2.52-.6-3.29-4.82-.65-3.88.55-8.42 1.04-4.27 3.56-6.79 2.57-2.4 5.3-2.02 2.41.38 3.4 3.55 1.15 3.45 0 8.76m-10.95 3.88q.33 3.34 1.97 3.73 1.98.49 4-1.7 2.24-2.35 3.01-6.35.93-4.21.22-6.95-.55-2.52-2.03-2.79-1.86-.27-3.66 1.59-1.92 2.02-2.8 5.58-.98 3.77-.7 6.9m-21.51-2.25q2.79 1.15 3.5 5.47.66 4-.66 8.92-1.47 6.02-4.7 8.92-2.8 2.41-5.64 1.92-2.68-.44-3.72-5.2-1.1-4.7.27-10.23 1.43-5.59 4.82-8.32 3.17-2.68 6.13-1.48m-5.42 3.61q-2.35 2.41-3.45 6.68-1.1 4.49-.44 8.48.6 3.89 2.36 4.32 1.97.55 4.27-1.97 2.46-2.68 3.55-7.16 1.15-4.33.77-7.72-.5-3.4-2.4-4.16-2.25-.93-4.66 1.53m12.81 56.26q2.08.82 2.84 3.28.88 2.63-.22 5.48-1.1 3.17-3.6 4.54-2.25 1.15-4.22.38-2.08-.88-2.96-3.4-.87-2.62.17-5.74.87-2.95 3.44-4.21 2.36-1.2 4.55-.33m-6.3 9.25q.55 1.75 1.92 2.4 1.31.55 2.9-.49t2.3-3q.7-1.92.27-3.62-.38-1.86-1.86-2.46l-3.01.22q-1.64.87-2.24 2.84-.77 2.25-.28 4.1M500.3 220.6q22.82 10.72 41.97 13.62 7.82 1.26 7.72 2.47-.17 1.09-7.5 2.73-26.27 5.75-50.35 15.76-26.05 10.78-46.3 25.18-20.85 14.83-42.35 20.3-23.48 6.02-37.27-2.35l-1.8-4.38q15.43 9.36 39.34 3.06 20.08-5.36 40.17-19.64 20.8-14.78 47.66-25.67 27.2-11 53.03-14.89-21.67-1.75-47.33-14.06-16.2-7.77-33.11-19.37-18.94-13.08-47.5-18.72-33.93-6.73-59.5 3.34l3.24-4.1q25.34-9.2 57.13-2.63 27.2 5.64 48.27 19.75 16.96 11.39 34.47 19.6"/><path fill="#0f141b" d="M391.12 221.96q-1.15 6.35-4.76 9.47-3.18 2.8-6.79 1.97-3.34-.82-4.7-5.58-1.26-4.49-.17-9.8 1.2-5.36 4.93-8.26 3.39-2.63 6.62-1.75 3.17.82 4.54 4.82 1.26 3.88.33 9.13m-14.34-3.44q-.93 4.37-.1 8.1.92 4.05 3.44 4.65 2.79.7 5.25-1.7 2.8-2.68 3.72-7.99.77-4.49-.1-7.66-.94-3.23-3.23-3.78-2.58-.7-5.2 1.6-2.8 2.34-3.78 6.78m-4.38 30.37q1.54.98 1.75 3.17.22 2.14-.93 4.44-1.1 2.4-3.28 3.17l-3.17.1q-1.6-.7-2.03-3-.44-2.3.55-4.49 1.15-2.52 3.4-3.5zm-3.17 1.98q-1.31.71-2.03 2.3-.65 1.53-.54 2.9.16 1.31.98 1.7l1.86-.06q1.26-.55 1.97-2.13.82-1.6.77-2.96-.06-1.26-.93-1.8zm12.37 144.41q-4.22-9.09-4.44-20.41-.54-37.87-6.45-60.7-6.02-23.3-17.46-30.31l-.82-3.61q15.1 7.06 22.05 37.76 5.1 22.54 5.58 56.8.28 20.14 13.41 30.76 12.97 10.45 28.13 3.6 4.76-2.13 5.75-1.41 1.2.76-2.25 5.2-8.97 11.54-26.27 17.23-17.4 5.7-38.08 3.67-22.17-2.24-42.63-12.8-22.66-11.83-39.79-32.24l2.52-1.64q17.3 20.25 39.84 31.68 20.25 10.24 41.97 12.1 20.09 1.75 36.89-4 16.58-5.69 24.9-16.96-8.32 4.87-16.86 4.49-8.26-.33-15.1-5.42-6.9-5.1-10.9-13.8M147.16 290.1q-16.8 11-27.31 29.71Q107.8 341 109 364.41q1.2 21.95-5.74 33.44-7.23 11.98-24.2 14.72 10.9 10.34 34.98 11 25.06.66 44.6-10.34l1.7 2.46q-19.6 12.04-46.8 11-12.3-.55-21.94-4-10.18-3.66-15.05-9.85-.71-.87-.6-1.25.1-.33 1.04-.55 16.69-3.23 23.42-14.23 6.68-10.84 5.64-32.4-1.15-25 11.6-46.68 11.38-19.32 30.97-31.96zm31.68 5.52q-17.13 28.84-13.3 83.46 1.54 21.45 6.02 41.2 4.22 18.4 9.09 27.75.76 1.48 1.53 1.32.77-.11 1.15-1.92 4.81-23.42 17.95-45.42 12.91-21.73 31.14-37.7 10.4-9.15 23.75-27.53 16.09-22.17 18.28-35.46l1.75 2.62q-2.69 13.08-17.79 33.99-13.19 18.33-24.68 28.23-17.62 15.16-30.54 37.05-12.91 21.95-17.73 44.82-.7 3.18-2.95 3.56-2.3.38-3.72-2.35-4.98-9.53-9.2-27.37-4.49-18.99-6.24-39.73-4.32-52.15 10.51-81.81z"/><path fill="#0f141b" d="M217.86 318.66q10.56 2.74 19.92 8.49 9.52 5.85 16.53 14.11l-1.43 1.37q-6.73-7.93-16.41-13.68-9.85-5.8-20.9-8.32zm-51.16 8.27q14.99-10.4 34.09-10.4l.54 2.52q-19.48-.22-35.02 10.4zm-2.42 48.87q10.51-8.76 27.64-7.67 17.07 1.04 27.42 10.95l-1.32 1.48q-10.23-9.14-26.87-9.9-16.69-.83-26.76 7.43zm-16.58-71.47q-15.38 32.45-6.62 68.67 8 33.06 31.25 54.07l.71 3.67q-13.08-11.27-22.22-27.2-9.08-15.7-12.86-33.6-8.32-39.18 9.85-71.8z"/><path fill="#0f141b" d="M165.82 332.18q-5.86-1.42-14.83-.22-9.85 1.42-13.14 5.2l.22-2.68q3.72-3.72 13.74-4.98 8.92-1.2 14.5.22zm-1.42 47.45q-3.95-.71-11 1.04-7.34 1.8-9.8 4.43l-.6-1.92q2.95-2.79 10.5-4.7 7.06-1.8 10.9-1.26zm-6.9-74.37q.6 1.3.65 3.33.06 1.92-.43 3.72-.82 2.8-2.68 4.6-1.97 1.86-4.05 1.26-2.36-.66-2.52-4.82l2.13-1.97q-.27 1.87 0 3.18.28 1.31 1.15 1.53.88.27 2.08-.93 1.32-1.26 1.92-3.45.87-3.23.1-5.2zm-5.15 43.28q1.37 2.14 1.26 5.37-.1 3.12-1.58 5.03-1.43 1.75-3.4 1.75-1.86 0-3.12-1.75-1.31-1.91-1.42-5.42-.1-2.79 1.26-4.81 1.48-2.14 3.78-2.2 1.91 0 3.22 2.03m-5.47 8.54q.66 1.31 1.7 1.31 1.2.11 2.08-1.04.98-1.31 1.04-3.6.05-2.47-.82-3.84-.71-1.2-1.86-1.2-1.2-.06-2.08 1.31-.82 1.37-.77 3.4 0 2.24.71 3.66m-11.55 30.7q.55 4.32-.65 7.22-1.26 2.8-4 3.29-2.3.38-4.6-1.86-2.51-2.47-3.17-6.62-.65-4.1.71-7.12 1.32-3.12 4.22-3.56 2.68-.38 4.87 2.36 2.08 2.46 2.62 6.3m-7.16-6.52q-1.76.27-2.63 2.63-1.04 2.4-.55 5.63.55 3.29 2.2 5.1 1.47 1.74 3.22 1.41 1.97-.32 2.68-2.73.6-2.2.17-5.37-.44-3.28-1.98-5.14-1.47-1.8-3.11-1.53m200.29-95.72q1.37 5.75 1.04 12.86-.33 6.24-1.8 10.35-.5 1.48-1 1.42-.6-.05-.21-1.64 2.63-12.97-.5-24.24zM327.1 319q1.58 7.65.32 17.89l-2.57 3.55q1.86-13.02.22-21.12-1.26-5.86-5.59-7.5l.17-1.97q5.96 1.8 7.44 9.14"/><path fill="#0f141b" d="M333.77 287.9q3.77 41.43-15.44 68.8-18.55 26.37-60.96 42.85-19.59 7.55-39.67 18-25.78 13.35-31.03 21.18l1.2-4.38q6.73-7.55 31.2-19.97 18.98-9.63 37.59-17.08 35.3-14 53.08-34.2 25.78-29.44 21.13-75.96z"/><path fill="#0f141b" d="M322.27 326.32q-6.12 18.67-24.73 36.12-16.09 15.1-34.48 23.26-15.32 6.9-37.65 19.76-23.48 13.62-35.08 22.76l.93-3.66q12.1-9.2 34.59-22.11 21.34-12.2 36.34-18.88 17.73-7.88 33.7-22.82 18.01-16.7 25.18-34.86.6-1.48 1.15-1.32.6.28.05 1.75"/><path fill="#0f141b" d="M252.94 342.69q11 .76 27.9 7.44 16.2 6.4 17.68 9.9 1.1 2.85-1.97 10.13-3.17 7.28-7.93 12.8l-4.87 2.41q5.42-5.69 9.52-14.06 3.94-7.94 2.9-10.07-1.15-2.52-16.53-9.03-17.07-7.28-27.96-7.66zm-34.42 37.21q6.95.22 17.67 4.43 10.84 4.44 11.82 7.66.66 2.52-.65 6.08-1.26 3.5-3.94 6.51l-4.27 1.26q3.28-3.01 5.2-6.84 2.02-3.89 1.31-6.02-.88-2.46-11.16-6.84-10.84-4.54-17.63-4.38zM293 326.38q2.24-.5 4.16-2.24 1.86-1.81 2.62-3.67.82-1.86.17-3.12l2.3 1.48q-.33 3.55-3.73 6.84-2.57 2.4-5.85 2.84-3.28.33-4.82-1.47-1.2-1.48-.65-4.22.54-2.95 2.79-5.25l1.7 1.2q-1.87 1.8-2.41 4-.55 1.97.32 2.9 1.04 1.26 3.4.7m2.08-11.98 2.51-.38 1.48 2.3-3.88.16z"/><path fill="#0f141b" d="M265.85 359.76q1.2 1.53.33 4.22-.98 3.11-4.49 5.63-2.9 2.25-6.18 2.46-3.17.22-4.21-1.42-1.26-1.8-.22-4.76 1.2-3.12 4.49-5.36 2.9-1.97 5.96-2.25 3.06-.16 4.32 1.48m-4.54.55q-2.35.33-4.76 1.97-2.57 1.75-3.45 4.05-.87 1.97.06 3.12.6.93 2.84.54 2.36-.43 4.6-2.02 2.46-1.8 3.4-4.1.81-1.92.1-2.85-.65-.98-2.79-.71m-43.78 40.33q-2.3 1.37-4.81 1.48-2.58.05-3.34-1.26-.99-1.75.16-3.83 1.15-2.03 3.72-3.67 2.41-1.42 4.76-1.37 2.2.06 3.12 1.37.88 1.32.11 3.34-.93 2.3-3.72 3.94m0-6.84q-1.64.11-3.45 1.2-1.97 1.2-2.73 2.58-.71 1.25-.22 2.08.38.7 1.97.54 1.64-.16 3.45-1.26 1.8-1.09 2.57-2.4.76-1.32.27-2.08-.49-.71-1.86-.66M161 390.57q1.64 1.31 2.3 3.5.66 2.47.1 4.38-.54 1.97-2.24 2.46-1.58.44-3.28-.76-1.8-1.32-2.46-3.67-.82-2.68-.11-4.54.6-1.75 2.3-2.24 1.7-.44 3.4.87m.65 6.9q.33-1.2-.22-2.8-.55-1.58-1.53-2.4-.88-.66-1.76-.5-.76.22-.98 1.32-.38 1.2.16 2.74.5 1.7 1.48 2.57.93.7 1.8.43.72-.21 1.05-1.36m187.1-50.19q-2.19 2.25-2.57 5.75-.38 3.72.22 6.51.82 3.61 3.17 4.05 2.41.44 4.65-2.02 2.47-2.74 2.85-7.28.33-3.78-.66-6.24-.93-2.52-2.95-2.8-2.52-.26-4.7 2.03m4.97-4.15q2.63.38 4.16 3.11 1.64 3.12 1.2 8.16-.54 6.02-3.99 9.25-3.06 2.9-6.13 2.08-2.79-.66-4.1-4.05-1.43-3.5-.77-8.92.55-4.5 3.4-7.28 2.78-2.8 6.23-2.35m-5.04 43.28q1.27 2.57 1 6.13-.34 4.1-2.47 6.46-2.03 2.24-4.54 1.91-2.2-.27-3.45-2.57-1.31-2.46-1.1-6.51.17-3.83 2.3-6.24 2.03-2.3 4.66-2.02 2.4.22 3.6 2.84m-7.1.93q-1.32 1.75-1.43 4.6-.16 3.17.6 4.98.77 1.7 2.2 1.86 1.8.22 3.11-1.53 1.37-1.8 1.59-4.87.16-2.9-.6-4.7-.77-1.81-2.3-1.92-1.92-.11-3.18 1.58"/><path fill="#525557" d="M249.05 135.06q9.96 10.02 10.4 23.59.71 21.67-19.26 38.58-4.82 4-10.24 11-5.09 6.51-7.88 11.82-.76 1.48-1.97 1.53-1.2.11-1.91-1.2-2.68-4.6-7.06-10.62-5.2-7.06-9.58-11.55-7.28-7.44-10.89-14.66-4.21-8.76-4.54-19.54-.44-15.43 10.29-27.25 11.16-12.26 27.25-12.26 14.94 0 25.4 10.56"/><path fill="#0088b9" d="M203.3 193.34q-1.7.93-5.2-2.08-3.12-2.73-5.41-6.29-2.03-3.12-3.23-9.47-1.32-6.35.05-6.84 1.26-.49 4.98 3.45 3.4 3.61 5.2 6.79 1.8 3.22 3.18 8.59 1.36 5.3.43 5.85m49.53-25.5q1.26.82-.38 6.73-1.76 6.3-4.98 10.9-2.63 3.55-7.17 6.4-4.27 2.62-5.15 1.86-1.47-1.37-.7-6.74.7-5.47 3.11-9.85 2.35-4.26 8.2-7.44 5.48-2.9 7.07-1.86"/><path fill="#c40018" d="M208.88 125.32q-2.46 1.37-4.48 4.6-7.39 4.1-12.48 12.75-5.36 9.14-5.75 19.64-.38 9.75 3.29 18.45 2.57 6.07 7.71 12.47l7.72 9.14 8.2 10.02q0 5.2-1.25 9.68-.66 2.25-2.02 2.41-1.43.17-1.65-1.97-.38-3.34-4.6-9.08-3.99-5.37-7.27-7.55-15.7-10.3-23.04-25.45-9.47-19.48 1.91-37.27 7.72-11.93 8.92-24.95 1.15-13.3-4.98-21.4-1.47-1.97-1.2-3.29.22-1.42 2.24-1.36 9.14.43 18.88 13.08 8.7 11.32 9.85 20.08m70-42.14q-4.76 8.92-5.47 19.48-.77 12.32 4.92 21.67 3.83 6.3 5.75 15.1 2.13 9.8 1.1 19.5-2.74 24.45-23.65 38.02-11.22 7.28-15.38 11.28-6.56 6.3-8.64 14.45-.66 2.57-1.81 2.51-1.15 0-1.42-2.68-.55-4.98-.22-10.4.5-7.27 2.52-11.21 11.49-10.13 16.85-19.05 6.51-10.94 6.02-23.2-.44-11.28-6.46-19.32-4.43-6.02-12.8-11.22.38-17.51 13.73-33.82 5.64-6.84 11.93-11.16 6.3-4.27 11.22-4.7 2.46-.23 2.9.87.39 1.15-1.1 3.88"/><path fill="#a2000c" d="M254.58 180.32q11.16-5.26 18.83-22.77 8.31-19.15 3.39-35.68 11.55 19.1 7.66 40.6-4.27 23.54-25.67 36.13-9.68 5.52-15.43 12.58-5.25 6.4-5.9 12.04-.23 2.03-1.6 2.03-1.3.05-1.53-2.08-.65-4.82-.38-10.45.44-7.17 2.35-11.77 8.16-6.24 18.28-20.63m-57.57 26.38q-24.68-18.4-27.86-38.31-1.36-8.48 1.81-16.8.88-2.3 6.07-11.82-2.62 8.7.55 17.67 3.01 8.38 8.6 11.11.49 6.9 4.97 15.33 4.16 7.88 10.13 14.11 6.24 6.52 11.87 14.89-.54 7.44-1.91 10.29-.66 1.37-1.7 1.2-1.04-.16-1.42-2.02-.82-3.56-4.16-8.21-3.28-4.76-6.95-7.44"/><path fill="#38393a" d="M227.98 210.58q-4.21 5.64-6.02 9.47-.6 1.42-1.91 1.42-1.37.06-2.14-1.42-2.73-5.2-14.39-19.15-11.44-13.63-12.75-16.48 3.17 3.94 6.95 6.73 4.16 3.01 5.7 1.86 6.72 7.06 14.5 6.4 6.67-.54 16.58-7.33.16 1.2.82 1.54.82.32 2.4-.44 11.99-5.91 14.73-19 6.9-10.83 6.62-19.14 2.19 12.75-5.42 25.83-6.02 10.45-18.77 21.72-2.85 2.52-6.9 8"/><path fill="#006c95" d="M189.73 168.5q1.42 6.51 4.54 12.7 3.83 7.55 9.14 11.81-1.58 1.1-5.2-1.75-3.77-3-5.96-7.55-2.35-4.98-3.01-9.8-.66-4.37.5-5.41m63.14-.88q.72 7.77-3.94 15.7-1.86 3.3-5.8 6.52-4.38 3.67-7.82 4 4.65-4.33 10.12-12.65 5.25-7.93 7.44-13.57"/><path fill="#0f141b" d="M260.44 159.3q.27 11.72-4.66 20.58-4.6 8.37-18 21.29-5.04 4.92-8.48 9.36-3.61 4.6-6.46 9.96-1.2 2.35-2.63 2.46-1.37.1-2.57-1.75l-6.57-9.63q-3.88-5.26-9.24-11.11-8.82-9.85-12.32-16.7-4.27-8.48-4.38-19.31-.21-16.2 9.96-28.08 10.68-12.42 27.48-12.97 14-.54 25.17 8.76 12.37 10.4 12.7 27.14m-13.58-24.57q-10.72-9.46-24.18-9.03-15.98.5-26.22 12.64-9.57 11.33-9.14 26.16.28 10.18 4.27 18.17 3.34 6.73 11.82 16.31 7.44 8.43 15.82 21.01.98 1.48 2.13-.65 3.12-5.7 5.86-9.42 3.61-4.87 9.36-10.45 13.07-12.53 17.45-20.68t4.27-19.54q-.16-14.56-11.44-24.52"/><path fill="#0f141b" d="M211.57 154.43q-.11-9.74 3.88-15.87.66-1.1 1.15-.76.5.27-.05 1.42-1.7 3.23-2.58 7.17-.7 3.28-1.09 8.15-.11 1.32-.71 1.26-.6-.05-.6-1.37m1.09 12.59q-.6 11.44 2.4 22.16 3.3 11.55 3.84 17.46.16 1.7-.38 1.75-.6.06-.88-1.58-1.15-7.17-4.38-17.19-3.23-10.67-1.86-22.65.11-1.43.77-1.37.6 0 .5 1.42m-9.8 26.76q-5.64-5.58-8.82-11.1-3.28-5.8-5.14-14.02l1.26-.33q2.13 7.88 5.25 13.41 3.01 5.53 8.32 11.11z"/><path fill="#0f141b" d="M194.05 187.1q-.27-2.9 1.2-5.36 1.43-2.46 3.9-3.23l.65 1.32q-2.08.49-3.45 3.17-1.31 2.8-.93 5.53z"/><path fill="#0f141b" d="M191.2 168.33q12.16 8.38 13.03 23.97.06 1.32-.54 1.7l-1.76.1q-5.9-1.25-10.12-9.02-4.27-7.77-3.45-15.65.33-2.74 2.85-1.1m-1.48 1.37q-.76 6.46 3.67 14.34 4.32 7.72 8.86 8.7.6.06.6-.44-.16-7.22-4.43-14-3.45-5.64-8.04-8.76-.55-.39-.66.16m63.65-2.57q.6.44.54 1.97-.16 8.48-4.98 15.49-4.65 6.84-11.93 9.63-3.06 1.15-3.28-2.03-.88-9.57 3.89-16.52 4.81-6.9 13.4-8.7zm-2.03 1.2q-7.82 1.92-12.26 8.43-4.43 6.46-3.88 15.27l.33.98 1.04-.16q6.56-2.57 11.16-9.3 4.49-6.84 4.65-14.34 0-1.1-1.04-.88"/><path fill="#0f141b" d="M246.75 186.28q-.93-2.95-4.05-5.52-2.79-2.36-5.14-2.58l.6-1.36q2.52.32 5.2 2.46 3.01 2.35 4.27 5.47z"/><path fill="#0f141b" d="M253 168.39q-1.6 5.58-6.41 12.97-5.2 8.04-10.45 12.31l-1.32-.55q4.6-3.72 10.51-12.91 5.31-8.26 6.68-12.64z"/><path fill="#0f141b" d="M276.69 79.4Q265.36 81 253.8 95.83q-12.53 16.04-12.53 33.17l-2.35-.88q.22-17.35 13.52-33.76 12.36-15.16 23.97-16.75 3.28-.44 4.2 1.42.94 1.8-.87 4.6-3.94 6.3-5.09 16.7-1.2 11.76 2.63 20.02 14.17 26.27 7.33 48.49-6.07 19.97-27.14 31.8-7.22 4.04-12.37 9.9-5.58 6.34-6.51 12.58-.5 3.18-2.46 3.34-2.08.22-2.74-3.4-.82-4.53-.44-10.33.44-6.52 2.3-10.68l3.23-2.46q-2.57 3.72-3.4 11.55-.76 6.95.12 11.5.27 1.52.82 1.52.6 0 .71-1.42.71-6.24 6.46-13.13 5.58-6.63 13.19-10.84 19.37-10.83 25.55-30.37 7.12-22.17-6.45-47.28-4.05-8.6-2.96-20.47.98-10.84 5.53-17.9 1.26-2.02.93-2.84-.28-.71-2.3-.5m-69.11 47.17q-1.31-9.96-9.25-20.47-8.26-11-17.02-12.7-2.19-.49-2.62.33-.44.77 1.04 2.52 6.78 8.37 5.41 21.56-1.25 13.25-10.45 28.24-8.04 13.24-2.35 29.39 5.53 15.76 21.56 27.36 6.24 4.54 9.9 9.25 3.62 4.6 5.48 10.34.27.82.65.93.33.11.6-.65 1.98-4.5 1.48-11.55l2.2 3q-.23 5.7-2.14 9.7-.88 1.86-2.24 1.8-1.54-.1-2.36-2.52-1.8-5.47-5.14-9.74-3.4-4.27-9.58-8.64-16.96-12.26-22.66-28.35-5.96-16.8 2.9-31.36 8.7-14.28 10.07-27.2 1.43-13.02-4.87-20.3-2.24-2.63-1.25-4.65 1.04-2.08 4.7-1.32 9.52 1.87 18.33 13.08 8.32 10.46 9.96 20.85z"/><path fill="#0f141b" d="m184.2 112.35 11.11.44q6.62 1.15 10.51 3.61l1.04 2.85q-3.67-3.01-10.94-4.38l-11.6-.39zm9.53 28.02q-2.63-1.37-7.77-1.59l-8.7.71.87-2.3 8.54-.38q5.14.39 8.1 1.92zm-7.5 25.06-8.92.28q-4.93 1.1-7.83 3.28l-.43-2.24q3-2.2 8.04-3.07 4.98-.87 9.14-.1zm13.95 31.74q-3.44-1.64-8.42-1.8-4.55-.17-7.28.87l-1.48-1.7q2.96-1.2 7.72-1.14 4.92.1 8.2 1.53zM273.46 102q-6.84-.43-15.87 2.8-8.04 2.9-14.06 7.28l.93-3.01q5.96-4.22 13.79-6.84 8.48-2.74 15.32-2.25zm-9.74 27.92q8.97-2.68 16.3-1.75l.83 2.3q-7.44-1.21-16.64 1.53-8.32 2.46-12.26 6.07l-1.2-1.42q4.49-4.16 12.97-6.73m7.55 25.78q7.66-1.49 13.85-.94l-.06 2.08q-6.13-.5-13.84.99-7.72 1.42-11.6 3.83l-.17-2.03q4.38-2.46 11.82-3.94m-.49 33.38q-4.05-1.47-11.93-.76-7.83.71-12.7 3.06l1.7-2.4q4.98-2.03 12.48-2.63 8.04-.6 11.87 1.15zm-29.94-68.51q-11.27-.71-20.63 1.48-9.63 2.24-13.62 6.9l-4.1 2.13q2.24-6.74 13.78-10.46 11.11-3.5 25.12-2.62z"/></svg>