<svg xmlns="http://www.w3.org/2000/svg" width="673" height="541" viewBox="-0.1 0.15 672.95 540.9"><path fill="#eeeeef" d="M339.05 20.5q.7.4.05 1.5-1.9 3.1-3.9 4.2-.75.4-.95 1.15-.15.7.4.95.9.4.95 1.15 0 .75-.9 1.35-2.7 1.95-5.45 4.6-3.6 3.45-4.75 5.85-3.35 0-5.75 2.1t-1.75 4.5l.55 2.55q.05 1.35-.55 2.25l-20.5 17.3-3.4 4.4q-2.7 3.55-4.2 6.2 0-3.3.45-6.7.55-4.5 1.65-6.75 2.05-4.25 2.2-7.4.15-3-1.4-6.2-1.5-3.15-1.75-4.6-.45-2.5 1.2-4.35 2.05-2.35 9.8-9.5 8.15-7.5 10.4-8.85 3.7-2.2 6.85-2.2 3.4-.05 5 2.55l3.8-.5q2.3-.85 3.8-2.55 4.8-1.05 6.55-2.65.85-.75 1.6-.35"/><path fill="#eeeeef" d="M491.05 159.9q-12.05-4.1-21.85-8.45-11.8-5.2-17.85-9.65-21.95 13.65-35.25 21.1-23.85 13.35-44.1 19.35l-11.1 3q-7.05 1.55-12.25 1.4-9.3-.35-21.9 5.8-8.85 4.3-23 19.3-13.1 13.85-15.1 19.25-1.75 4.65-6.1 9.5-4.35 4.8-7.8 6-3.05 1.1-6.7 5.05-2.95 3.15-5.4 7.2 2.35 5.55 8.05 17 6.45 12.9 9.6 17.9 3.1 4.8 9.65 8.2 3.95 2.05 10.05 3.9 3.35-10.5 14.6-26 11.65-16.05 18.15-18.1-.2 6.5-5.2 24.6-3.45 12.45-7.55 24.9 12-20.8 41.7-42.8 10.95-8.15 22.05-14.7 9.6-5.6 14.55-7.45-3.55 7.65-16.6 26.75-11.6 16.95-20.05 27.7 16.95-13.1 38.1-25.7 21.95-13.1 32.8-16.15-2.75 6.15-22.45 27.65-21.85 23.85-37.2 35.15 8.65-4.65 24.1-8.1 12.65-2.8 19-2.9-4.7 6.8-22.4 18.2-12.3 7.9-25.7 14.95l3.15 3.75 3.3 3.55q7.9.15 31.35-5.15 15.65-3.55 26.3-6.55 7.25-2.05 23.75-5.3 16.15-3.15 23.55-4.05l8.8-1.55q6.5-1.35 9.45-2.55 9.5-3.75 24.2-5.75 13.35-1.75 19.05-.8-.9.85-4.3 2.8-3.7 2.1-6.25 3.05 7.85-1.15 18.45-.25 10.3.85 14.15 2.85 3.25 1.75 8.95 2.3l9.15.35q-3.35.85-8.25 3.65-4.85 2.75-6.2 4.5 5.35-.7 12.7-.3 6.8.35 9.2 1.2-2.15 2.2-8.35 5.8-5.45 3.1-9.9 5 15.85-1.2 49.05 4.7 31 5.45 36.35 9-8.4 1.55-36.9 10.7-30.1 9.65-41.05 12.1l10.6 2.9q6.85 2.15 9.95 3.5l-35.95 1.1q-26.75.3-40.55-.35-12.7-.6-18.25-2.5-4.4-1.45-11.55-1.7l-10.65.4q-3.85.45-12.45.3l-15.15-.75-32-3.3-38.2-3.7q1.45 6.55-.2 14.05-1.7 7.55-5.5 11.8 10.9.7 40 5.15 31.35 4.75 62.65 10.75 83.65 15.95 93.8 26.1l-32.2-4.3-40.4-6.2-56.7-10.05q-44.15-8.05-53.3-10.2-9.6-2.25-19.55-2.25-12.25.05-21.3 3.7-1.45 4.85-1.65 15.05-.2 11.65 2.2 15.6 2.6 4.25.75 9.7-1.65 4.85-7.15 11.65-3.35 4.1-2.9 10.4.45 6.5 4.65 9.85l11.3 8.65q2.6 2.15 1.35 5.45-.5 1.35-2.25 2.9l-2.7 2.25q-1 .85-2.6.75-1.3-.1-2.4-.75l-4.65-2.7q-3.05-1.85-6.15.65-1.65 1.35-5.4 6.25-3.95 5.15-4.9 7.5-1.5 3.7-7.3 3.7-3.9 0-8.55 1.55L284 508.1q4.4-5.65 12-12.5 1.35-4.95 5.75-13.1 3.8-7.15 7.65-12.75 3.3-4.75 1.85-14.4-1.3-8.75-6.2-19.8-4.45 6.9-18.35 15.3-11.7 7.05-21.55 10.5-.35 2.8-2.95 7.3-.55.95-.85 5.8-.35 4.7-.1 6.55.2 1.5 3.3 5.4l4.3 4.85q2.05 2.15.45 4.65l-2.55 2.1-3.45 2q-2.2 1.3-4.6-.6l-1.75-1.1-1.65-1.1q-2.8-2.5-6.6 1.05l-5.05 4.8q-3.85 3.85-4.9 5.8-2.05 3.85-6.9 3.2l-14.5.9-17.25-20.05q.4-3.1 4.3-5.75 3.25-2.25 6-2.6 1.5-2.75 6.4-6.75 4.15-3.4 6.85-4.75 1.9-.95 2.7-3.35l.7-4.25-18.7.65 6.55-2.8-12.5 1q-7.1.2-10.4-.25 12.05-4.8 21.65-15.6 6.7-7.5 11.05-16.4-1.55-4.6-4.9-6.9-1.9-1.3-5.65-2.3-11.85-3.1-22.25-10.85-8.55-6.45-15.4-15.4-2.05-2.75-2.45-9.85-.35-7.1 1.25-14.05-13.9-23.5-19.2-53.85-5.4-30.9 1.55-50-4.75-1.8-17.75-8.65-13.2-7-18.6-10.65 3.45 3.45 12.9 16.75l11.8 16.85q-25.7-6.2-65.05-38.35-16.4-13.45-30.6-27.9-13.9-14.1-21.25-24.7-2.8-4-3.75-8.2-.65-2.85-.55-6.95.1-3.45 2.65-11.95 2.75-8.95 5.15-12.9l28.7-12.45q1.9-1.45 6.35-1.45l24.55 1.1 30.7 2.2q2.1-5.5 16-19.55l.1-6.7-.1-7.25q0-6.55 2.3-12.8 2.55-6.95 7.7-12.6 7.15-7.8 12.95-16.25 7.75-11.25 9.05-18.3 1.6 3.5 2.1 9.7.5 5.95-.25 10.45 2.2-2.6 3.3-6 .45 1.4.8 4.55 7.75-9.65 17.75-16.15 10.55-6.85 17.85-6.15l2.25-3.4-.1 4.15q4.5 1.2 8.95 7.2 3.55 4.8 5.95 10.9 9.3-2.05 22.5-3.65 4.15-.5 8.45.6 3.1.8 5.55 2.15 1.55.9 5.55 5.1l6 6.75q1 1.25 1.1 6.55l-.1 7.75q0 2.25-2.35 7.95l-4.95 11.2q-2.6 5.85-.6 9.3 2 3.35 7.2 2.35 2.8-.55 7.5-2.6 5.25-2.35 9.4-5.1-3-8.05-4.35-14.9-1.15-5.65-.9-8.65-1.65-.65-1.5-3.4.1-2.35 1.05-3.9l3-4.75q2.55-4 4.45-6.2l54.35-13.4q7 .55 24.2-2l21.9-3.85q9.15-1.9 18.95.75 26.9 7.4 60.9 20.8 43.7 17.25 60.95 30.8 23.6 9.25 55.6 31.2 31.05 21.35 38.55 32.65-3.25-1.35-9.45-2.95l-8.8-2q8.05 5.65 22.45 21.35 13.85 15.1 16.65 20.7-6.1-1-28-8.95-20.3-7.4-30.55-11.95 6.65 6.3 20.8 22.85 15 17.55 18.35 23.6-9.65-3.8-39.8-19.7-30.65-16.1-41.25-23.1-10.1-6.65-29.7-14.9-14.75-6.2-31.55-11.95m-280.2-19.75q.65 12.75 3.1 20.15 1.9-2.95 4.1-5.6 3-3.55 4.95-4.55-1 3.6-2.2 10.8-1.2 6.9-1.3 9.65 3.15-2.55 5.7-3.8-1.95 3.45-3.45 7.05-1.65 4-1.8 6.1 3.7.2 5.2 7.7 1.6 7.9-2.65 12.35l.4 4.4q2-.75 4.35 0 2.85.9 3.8 3.9l1.05 4.2.5 3.85q.2 3.55-1.05 5l8 8.65q4.9-6.7 13.95-20.4 9.5-14.3 14.1-22.1 20.9-35 23.8-42.35-7.8 3.45-17.2 5.2-9.55 1.8-19.8 1.6-6.85-.15-10.05-5.7-2.45-4.3-1.8-8.9.95-6.45-.05-11.15-7.15 6.4-13.45 1.3-2.15-1.8-6.65-3.2-5.45-1.75-10.7-1.5-1.5 5-.85 17.35m-40 7.3q-4.8 3.05-6.7 3.8 3.5 1.7 10.2 5.7 7.5 4.4 10.15 6.5-.85-6.05-2.15-11.9-1.85 1.95-4.9 3.6.3-2.15.2-6l-.4-6.15zM166.3 271.9l-5.95-1.85q1.75 11.35 3.65 17.05l.55-5.1q.5-3.3 1.05-4.4 2.1 2.35 3 4.2l.9-2.6z"/><path fill="#009fd9" d="m166.4 121.4 9.6-7.5q-.45 8.45-6.35 12.9-6 4.5-13.65 1.95z"/><path fill="#d2e5f6" d="M327.5 50.8q9.05-.55 17.75 3.25 9.6 4.25 12.95 11.65.6 1.4-.1 2.5-.65 1-2.05 1.3l-14.4 3.7q-2.15.5-3.5-.5L336 70.55q-4.85-4.7-15.25-5.25-10.95-.6-20.1 4.2-2.9 1.5-4.35.3-1.4-1.25.25-3.8 3.55-5.4 11.15-9.55 9-5 19.8-5.65M44.55 139.65l6.8-2.55q2.55-.85 4.35-.45 1.3.3 3.55 1.75 2.4 1.55 5.35 5.25 2.9 3.5 4 6.15 1.4 3.4-1.05 5.15-.9.7-4.25 2.25l-4.65 2.05q-2.9 1.15-4.75-1.65-.8-1.25-3.3-3.55l-4.4-3.55q-1.9-1.3-4.3-.65-2.45.7-3.25 2.8 1.75.3 2.65 1.75.8 1.35.6 2.95-.2 2.05-2 3.15-1.7 1-3.8.7.25 2.1-1.05 3.8-1.05 1.35-2.5 1.8 0 2.85-2.9 5.15-2 1.6-10.7 5.75-8.2 3.9-12.1 5.3 1.35-3.35 6.15-8.5 3.5-3.8 7.9-7.55-3.2-.2-9.5-.05l-10.2.5q2.4-2.3 9.5-5.4 6.05-2.65 11.05-4.1l-12.4-2.25q7.6-2.85 23.25-3.45-.1-2.9 1.35-5.45 1.6-2.8 4.7-4.5 1.9-.95 5.9-2.6"/><path fill="#d2e5f6" d="M54.85 169.6q-2.45 3.95-8.25 7.05-5.55 2.95-10.25 3.2Q37.7 177.5 42 172q3.9-5.1 6.2-7.7 2.95-3.4 6.15-1.15 3.2 2.3.5 6.45m127.35 25.75q-.15-2.15.5-3.55.8-1.6 2.8-2.5l1.9 4.75q0 1.8 1.25 2.7 1.55 1.1 4.6.25 3.55-1.05 11.5-4.4 8.3-3.55 11.8-5.65 1.55-.95 2.3-2 .75-1.15.8-2.85.05-1.65.95-1.8.8-.1 1.7.8 2.75 2.75 3.05 8.55.25 5.85-2.4 9.5-2.9 4-13.65 8.4-11.25 4.65-19.25 4.5-2.7-.05-4.7-1.9-1.9-1.85-2.25-4.5z"/><path fill="#d2e5f6" d="M222.9 204.4q2.45-1.05 4.95.1 2.6 1.2 3.2 3.8.9 3.35 1.55 8.05.6 3.65-1.85 5.65-8.9 7.2-19.3 11.65-11.9 5.05-22.95 5.2-2.7.05-4.05-1.2-1.25-1.15-1.6-3.65-.3-2.1-.65-6.3-.35-4.6-.35-6.95t1.8-3.85q1.55-1.25 3.95-1.55l-.35 5.4q1.8 1.25 5.8 1.2 3.9 0 7.6-1.2 4.3-1.35 11.2-4.9 7.85-4 11.3-7.1zm-22.2 286.5-1.2 2.15q5-.2 7.3 2.55 1.65 1.95 1.65 4.9 3.9-.35 6.75 1.9 2.55 2 3.35 5.2.85 3.25-1.25 5.45-2.25 2.35-7.1 2.25l-16.8 1.05-19.6 2.25 2.05-1.9-10.05 1.3-10.25.3q1.2-1.45 4.6-4.2 3.25-2.7 6.4-4.85 1.7-3.05 4.95-6.3 3.05-3.05 6.55-5.25 3.45-2.2 10.85-4.45 7.65-2.35 11.8-2.35m87.65 18.75q5.1-1.05 9.15 1.6 3 1.95 4.95 5.45l6.95-.25q3.05 1.1 4.7 4.55 3.25 6.7-4.85 10.35-5.4 2.35-18.6 4.75-13.65 2.5-22.25 2.5l2-2.6q-5.5 2.15-13 3.35-7.9 1.25-10.9.25l3.1-3.6 4.2-4.25q.9-5.75 9.65-13.15 6.6-5.6 13-8.8 4-1.95 7.35-1.75 2.65.15 4.55 1.6m71.45-4.15q2 2.95 4 8.8 1.6 4.85 2.55 9.55l-13.5-10.5q2.25-.85 4.45-3.45 2.05-2.45 2.5-4.4"/><path fill="#eeeeef" d="m374.5 351.75 20.7-3.85q11-2.2 17.1-3.75l29.7-7q24.6-5.55 30.6-6l9.2-1.1q6.65-1.1 10.05-2.5.55.25 4.7 0 4.05-.25 4.35-.05l12.15 6.55q7.75 6.15 10.1 9.65-6.4 1.6-21.55 4.25-16.35 2.85-20.6 2.85l-17.2.95-25.25 3.05q-20.55 2.8-29.25 4.85-14.45 3.4-23 .75-6.4-2-11.8-8.65"/><path fill="#d2e5f6" d="M304.35 88.55Q301 94 289.45 100q-10.4 5.4-16.45 6.25 2.15-3.15 6.5-8.35 4.95-5.8 9.35-10.15.5.95 1.55 1.4l3.3.25z"/><path fill="#eeeeef" d="M362.85.9q-4.35 3.95-7.35 7.5-3.9 4.65-3.9 6.9 0 1.35-.45 1.9-.5.65-2 .8-1.15.1-1.55.7-.4.65.4 1.85 1.5 2.05 1.05 3.7-.5 1.6-2.65 1.75-3.1.1-3.3 1.7-.15 1-.85 1.8l-1.5 1.25q-7.65 5.45-9.35 6.05-2.5.8-2.9 2.3-.55 2.15-4 2.15 1.15-2.4 4.75-5.85 2.75-2.65 5.45-4.6.9-.6.9-1.35-.05-.75-.95-1.15-.55-.25-.4-.95.2-.75.95-1.15 2-1.1 3.9-4.2.65-1.1-.05-1.5-.75-.4-1.6.35-1.75 1.6-6.55 2.65 1.25-1.45 1.8-3.45.5-1.9 1.65-3.6 1.4-2 3.3-2.9l5.85-3.35q3.85-2.5 5.2-4.05 2.15-2.45 7.1-3.5l3.7-.8z"/><path fill="#c8c9ca" d="M579.7 338.4q1.05-1.25 6.15-2.1l7.6-1.1q3.55-.55 6.2-2.9 1.75-.35 2.45.9.55 1.05.2 2.15-.3.95.3 1.7.6.65 1.65.95.65.15.75.8.1.7-.75 1.4l-3.05 1.6-3.35.85q-2.95.3-3.65 2.55t2.75 2.45l7.9 1.3q-5.05.6-9.95 2.55l-25-1.1q4.45-1.7 10.25-5.15 5.6-3.35 8.25-5.75-2.35-.8-8.7-1.1"/><path fill="#eeeeef" d="M670.85 263.2q-5.35 2.35-12.55 8.15-6.6 5.4-9.65 9.35l3.6.35 2.4.7q-3 .95-7.15 3.8-4.4 3.05-5.85 5.45-1.4 2.35-4.7 5.15-3 2.5-5.35 3.65-1.95.95-2.85 2.2-.75 1.05-1.1 3.05-.3 1.5.35 8.1l.95 9.7q.3 3.05 6.05 9.95 4.4 5.35 8 8.6 2.1 1.9 1.75 3.5-.2 1.05-2.05 3.05-1.55 1.7-3.45 5.1-1.9 3.45-2.25 5.3-5.8-1.8-18-3.75-11.65-1.85-24.1-3.1 4.9-1.95 9.95-2.55l-7.9-1.3q-3.45-.2-2.75-2.45t3.65-2.55l3.35-.85 3.05-1.6q.85-.7.75-1.4-.1-.65-.75-.8-1.05-.3-1.65-.95-.6-.75-.3-1.7.35-1.1-.2-2.15-.7-1.25-2.45-.9 2.8-2.35 4.2-6.45.95-2.75-1.05-7.15l-4.1-7.55q-3.5-6.3-2.85-12.65.55-6.15 4.6-9.5 8.55-7.2 29.5-15.45 23.6-9.35 40.9-10.35M415.65 29.35l5.25-1.2 4.5-.3q1.3.15 1.45.9.1.8-1.1 1.3-3.2 1.3-3 2.6.2 1.6-1.65 3.05-2.7 2.15-5.05 3.35-.85.45-.8.85t.8.5l4.6.25q-.05.75-1.25 1.2l-1.95.4-1.9.45-2.75.9-5 .7q-3.7.15-5.55-.6-3.05-1.3-4.85.65-3.6 4.05-5.25 7.2-7.55 1.7-26.95 4.4 3.1-1.55 5.15-4.6 1.9-2.85 2.15-5.7.45-5.35 2.8-7.7l4-3.1q3.05-2.1 4.85-2.85 2.8-1.15 10.25-1.9l11.2-.45q3.4.2 4.65 1.3.9.75 2.8.25 2-.55 2.6-1.85"/><path fill="#008cbe" d="M173.05 119.75q-2.05 1.05-7.1 4.4l-7.2 5.05-1.95-.3q2.25-2.05 16.55-12.75z"/><path fill="#eeeeef" d="M458.45 17.5q-6.7 2.75-12.65 6.25-7.6 4.4-8.75 7.3.85.1 3.3.95-3.05.5-5.7 1.7-2.4 1.05-3.55 2.3-1.05 1.1-3.45 2.2-2.55 1.2-4.15 1.1-2.7-.15-2.85 1.35l-4.6-.25q-.75-.1-.8-.5t.8-.85q2.35-1.2 5.05-3.35 1.85-1.45 1.65-3.05-.2-1.3 3-2.6 1.2-.5 1.1-1.3-.15-.75-1.45-.9l-4.5.3-5.25 1.2.05-.15q1.05-3 6.3-6.1 5.3-3.1 9.1-2.95l13.35-.8z"/><path fill="#0d131a" d="M172.15 117q2.25-1.25 3.9-3.15.05 2.45-1.35 5.75-1.45 3.35-3.55 5.65.7-1.85.95-4.25z"/><path fill="#c8c9ca" d="M432.95 387.65q37.15 3.75 49.15 2.35 5.7-.65 12.7 0l8.15 1.2 4.55 1.25 7.15 1.35q3.25.4 25.05.4l39.1-.25q-.55 2.6-2.05 3.4-1.1.6-.95 1.3.1.8 1.95.85l4.6-.45q2.3-.6 3.35-1.75.7-.8 1.8-.95 1.05-.1 1.7.55.8.8 2.2 1.25l3.25.3q-4.15 4.65-11 10.15L573.6 416q-4.35 2.9-9.65 4.1l-8.85.5q-5.05-.7-24.05-.7l-1.95 3.4q-1.85 2.4-6 1.9l-2.4 3.55-3 3.45q-15.65-4.65-71.95-13.95-53.85-8.9-67.6-9.7 3.9-4.55 5.4-12.45 1.4-7.65-.3-13.4zM290.85 99.4q.2 1.6 1.9 6.1 1.75 4.7 2 6.25-13.1 7.2-16.9 7.7-5.35.75-7.25-3.15-2-4.05 1.25-10.2 4.95 1.15 19-6.7m-82.75.25 13.2 1.55q9.2 1.4 14.2 6.6 5.7 6 7.25 18.15-2.85 3.6-7.1 3.75-3.55.15-6.25-1.8-6.8-5.1-17.8-5.1-1.1 4.5-1.1 11l.6 14.45q-1-10-4.2-18.25-3.05-8-7.1-11.55l13.7-12q-5.45.1-18.7 4.8-13.45 4.75-20.15 9 1.15-2.5 1.3-6.55l3.75-3.85 3.2-3.85q2.6-3.75 6.05-5.75 3.35-1.95 6.7-1.75z"/><path fill="#c8c9ca" d="m196.9 135.8-7.2-.35q-2.25.15-2.2-1.55t2.05-1.95q3.9-.45 8.8 1.6 4.95 2 7.4 5.15-3.45-2.1-8.85-2.9m-16.95 4.75q-4.15 4.15-12.35 9-8.65 5-12.55 5.2-8.2.35-17.05-2.3-7.4-2.25-13.05-5.8-4.8-3-.1-8.25-.65 1.95.5 3.8 1 1.65 2.9 2.6 5.3 2.8 13.6 4.35 7.8 1.45 12.8.85 6.9-.9 14.05-3.7 6.25-2.45 11.25-5.75M219.3 172q.7-1.4 2.45-2.8 1.6-1.35 3.1-1.9-1.9 3.5-3.3 7.45-1.65 4.45-1.7 6.95-.85-6.95-.55-9.7"/><path fill="#c8c9ca" d="m201.95 193.8-.1-2.25q10.3-4.6 12.75-6.55 1.15-.85 1.6-2l.45-2.45q.55-9.2 1.05-12.65 1.55-11.35 5.1-17.45-1.6 4.6-2.75 14.95-1.25 11.4-.2 16.3.3 1.35-.4 2.75t-2.3 2.4q-2.9 1.9-15.2 6.95"/><path fill="#c8c9ca" d="M206.35 167.1q.7 3.2 2.1 7.35 1.55 4.5 2.85 6.85.7 1.25-.5 2.1t-2.15-1.1q-1.05-2.2-1.8-7.05-.8-5-.5-8.15m-26.9 7.65q4.35 4.5 6.85 8.75l.55 7.1zm24.75 34.8q10.85-3.65 18.5-9.95l.3 4q-10.65 6.9-20.6 9.7-9.2 2.65-14.95 1.1l.4-2.9q5.7 1.65 16.35-1.95"/><path fill="#b5c6d5" d="M225.5 190.05q.65 6.55-2.8 9.55-6.6 5.75-17.4 9.6-9.1 3.25-14.15 3.1-2.35-.05-4.65-1.25-2.3-1.25-2.65-2.65-.7-3.15-.7-4.9 1.15 3.3 3.6 4.6 2.35 1.25 6.15.85 7.15-.7 16.45-4.65 9.05-3.85 11-6.8 2.2-3.45 1.85-7.8-.4-4.05-2.65-6.25-.1-2.3.65-3.05.8-.8 2 .65 2.7 3.15 3.3 9m-1.75 17.85-.6-3.6q2.85-.9 5.15.55 1.8 1.05 2.45 2.75.9 2.05 1.85 8.75.6 3.55-2.05 5.75-7.65 6.75-18.45 11.2-11.15 4.65-22.5 5.45-7.5.55-6.55-7.1 1.05 4 6.45 4 8 0 19.5-4.55 11.1-4.4 17.65-9.85 2.85-2.45 2.85-4.3 0-3.3-1.15-7.2-.45-1.45-1.7-1.95z"/><path fill="#c8c9ca" d="M211.25 233.7q13.45-5.7 20.3-12.45l1.75 2.3q-8.1 9.3-22.35 14.5-13.65 5-27 4.2l1.35-3.9q10.3 2 25.95-4.65M202.6 75.15q1.75-1.6 4.3-4.95 2.35-.85 5.55-3.8-.8 2.95-4.3 5.8-3.2 2.7-5.55 2.95m8.8 24.55L193.6 98q24.7-1.95 38.95 2.9 13.15 4.5 16.5 18.6 1.7 7.15 5.35 10.6 3.85 3.65 9.55 2.75 8.95-1.4 17.6-5.4 8.65-3.9 14.7-9.3 1.25 14.95-4.55 26.85-7.6 3.2-18.15 5.3-11.6 2.35-19.65 1.7-5.55-.4-8.45-4.25-2.75-3.65-2.65-9.75.3-15.4-3.1-23.95-3.65-9.35-11.95-11.5-4.45-1.2-16.35-2.85m166.75-25.85q15.9-.55 20.55 1.1 4.75 1.7 21.15 24.5 8.8 12.2 18.6 27.15 6.7 10.4 13.25 15.35-4.05 2.25-19.05 10.95l-19.35 11.4q-4.35 2.7-16 8-12 5.4-19.9 8.2-8.9 3.15-14.5 4.6-8.1 2.1-12.8 1.8-5.95-.35-11.5 1.05-4.6 1.2-10.85 4.2-8.65 4.15-22.25 17.65-14.15 14.1-17.3 22.55-3.55 9.5-13.15 13.7-4.7 2.05-9.45 8.95-4.4 6.3-6 12.35-.55-7.35 2.5-15.8 3-8.4 6.8-10.45 5.05-2.65 8.45-6.95 2.75-3.55 5.6-10 2.9-6.65 12.35-19.15 10.95-14.5 20.65-22.6 9.8-8.25 22.35-12.85 9.5-3.55 23.85-5.95 19.9-3.3 36.55-15.45 18.1-13.3 15.65-26.6-1.4-7.5-9.35-22.3-8.25-15.35-12.45-17-5.65-2.25-18.9-3.35-12.95-1.1-23.15-.35 9.25-4.1 27.65-4.7M63.35 164q31 8.6 58.55 25.55 27.7 17.05 34.1 31.7 2.05 4.7 3.15 9.6 1.15 5.35.85 9.65-.45 5.7 4.65 11.95 5.15 6.25 10.05 15.9l-4.9 11.7q-1.8-5.2-5.95-12.75-4.2-7.65-6.75-10.3-3.9-4-4.9-9.7-.85-4.5.2-9.55.8-3.9-1.9-9.95-2.2-4.85-6.1-9.95-3.8-4.85-9.15-10.5-6.15-6.45-9.55-8.75-9.8-6.5-28.75-17.2-21.45-12.05-33.6-17.4"/><path fill="#c8c9ca" d="m52.85 172.35 1.35-1.65q4.25.85 8.65-.7 4.15-1.45 5.05-3.65 9.15 3.95 30.55 15.95 20.5 11.5 26.35 15.7 8.75 6.3 21.5 22.5 3.45 4.45 5.2 9.55 1.45 4.25 1.1 6.55-.95 6.3-.2 10.7 1 5.75 5.05 9.85 2.75 2.7 8.9 15l-6.05-2.25-.8-4.3q-1.55 1.85-2.15 3.25-4.05-1.45-16.65-8.35-9.45-5.15-18.65-10.5-5.15-6.8-17.6-20.7Q92.7 216.2 83.6 207q-1.8-11.9-7.65-21.9-6-10.35-11.25-9.6l-6.35-.45q-3.55-.85-5.5-2.7m-22.8-.9q2.4-2.25 2.25-4.65 1.4-.45 2.55-2.05 1.2-1.75 1.15-3.6h1.75q.25 1.9-.3 3.85-.55 2.05-1.75 3.3-.35 1.95-1.35 4.1-1 2.1-1.95 3.1-.95.95-1.2 2.55-.25 1.65.4 3.15 2.55 5.95 14.75 19.45 12.2 13.45 29.05 29 41 37.75 71.25 54.05-21.45-3.25-64.2-38-17.8-14.45-32.7-29.35-15-15-21.3-24.75-5.15-7.95-3.5-16.8 3.4-1.75 5.1-3.35m36.35-15.8 2-1.15 1.9-1.75q.2 1.4-.75 3.1-.95 1.65-2.5 2.65l-4.8 2.7-4.45 2.05-2.55.1q-1.35-.35-2.1-1.35-3.2-4.3-5.95-6.75-1.35-1.25-3-1.5-1.65-.3-2.95.45-.55-1.15-2.5-1.75.95-2.15 3.5-2.65 2.35-.45 4.5.7 2.55 1.45 7.9 7.8 1.1 1.3 2.3 1.35l2.3-.55q4.95-2 7.15-3.45m264.85-69.2q7.75-.25 13.65-2.4-5.4 4.25-13.75 5.55l-17.4-.6-9.1-.55-11.85.65q-4.9.3-4.85-4.25.05-3.9 2.85-7.5-.9 3.85 2.05 5.5 2.9 1.65 8.5.65 2.7-.5 8.15.1 5.3.55 9.05 1.6 5.35 1.5 12.7 1.25M358.6 71q-1.1 1.45-2.9 2.1l-7.55 1.9-8 1.6q-3.8.45-5.95-2.85-3.6-5.5-14.5-5.95-10.35-.4-17.15 3.75h-4.7q6.6-6.15 20-6.45 13.8-.35 18.9 6.3 1.65 2.15 5.4 1.5l6.5-1.5 6.2-1.55 2.4-.7q1.35-.5 2.2-1.55.4 1.8-.85 3.4"/><path fill="#b5c6d5" d="m10.3 155.55 16.55.7q12.15.95 14.95 1.85-1.9 4.05-6.45 2.7L23.3 158q-9.3-2-13-2.45"/><path fill="#b5c6d5" d="m1.35 167.1 15.1-4.1q10.7-2.65 14.7-3.05l4.7 1.05q.6 2.45-1.2 4.2-2 1.95-6 1.8-4.4-.15-13.55-.15-9.9 0-13.75.25"/><path fill="#b5c6d5" d="m6.9 182.85 9.75-8.3q6.75-5.55 9.45-7.3l2.85.1 3.15-.45q.25 3.25-3.85 5.8-3.05 1.95-10.3 5.4-7.7 3.75-11.05 4.75M53.75 163q1.95.5 2.1 2.6.15 1.9-1.05 4.05-2 3.5-8.5 6.95-6.1 3.25-9.7 3.3 5.85-2.65 11.35-7.8 5.85-5.5 5.8-9.1"/><path fill="#c8c9ca" d="M582.75 135.2q8.3 3.8 24.55 14.35 15.55 10.1 24.1 17-4.15-1.3-9.05-2.55l-8.1-1.75q-6.95-6.85-15.75-14.5-10.05-8.75-15.75-12.55m-92.3 24.6q-13.35-4.75-17.7-6.7-12.4-5.65-18.65-9.8-8.05-5.4-12.9-12.4l-18.3-28.25q9.85 12.65 19.75 22.45 11.8 11.7 19.95 15.35 4.5 2 33.8 12.7 26.9 9.8 37.1 14.95 12.6 6.4 46.95 27 39.45 23.65 53.3 34.3-10.35-3.9-43.95-21.75-33.55-17.75-44.25-24.95-4.7-3.2-15.45-8-9.9-4.45-18.8-7.6zm92.85 12q18.25 6.75 35.2 14.2 23 10.1 34.85 17.95-7.7-2-29.95-10.05-20-7.25-28.9-10.95-4.65-4.3-11.2-11.15M165.35 352.7q-6.1-14.3-7.65-23.7 16.4 35.4 51 47.45 13.65 4.8 28.8 5.3 12.95.45 24.4-2.25 4.15 10 11.9 20.3 9.55 12.75 19.65 18.45 5.75 3.15 7.15 6.2l4.25 10.55q-4.45 9.9-27.6 21-23.5 11.3-40.75 11.2 4.45-2.1 10.65-6.15-6.75 2.45-19.35 4.15l-20.25.8q5.95-1.75 9.55-3.5l-9.65 1.4-8.75.7q9.95-5.05 18.05-15.3 7.35-9.35 8.1-15.9 0-2.25-2.4-5.35-3.05-3.9-7.65-4.85-11.4-2.4-24.75-12.65-12.35-9.5-14.1-15.55-1.4-5.05-1.55-10.75-.1-5.95 1.25-11.55-4.85-7.3-10.3-20M176.2 63.3q-1.1 6.9-4.65 10.95.65-1.7 1.1-5.5l1.8-2.5z"/><path fill="#c8c9ca" d="M251.4 465.15q8.25-1.85 13.8-3.9-.35 2.05-2.8 7-.7 1.4-.9 5.85-.15 3.2-.05 6.55.05 2 2.85 5.5 2.25 2.75 4.55 4.7 1.1.95 1.2 2.3t-.75 2.45q-1.4 1.95-6.1 4.6-1.6.9-3.45.05-.95-.45-3.4-2.4-3.9-3.1-8.05.3-1.45 1.2-4.75 4.95l-4.8 5.95q-1.45 2.05-3.4 2.65l-3.4.2-14.5 1.05q2.35-3.55-.15-7.7-2.7-4.5-8.75-5.05-.6-3.65-3.25-5.6-2.25-1.65-5.4-1.8.45-3.05 4.7-5.85 3.55-2.35 6.3-2.7 1-1.95 5-5.65 3.95-3.8 6.2-4.9 2.1-1 3.35-3.45 1.1-2.05 1.4-4.6l8.2-1.15 10.4-2.65-4.35 2.9q-2.9 1.75-4.6 2.45 5.45.05 14.9-2.05m13.45-114.65q-2.6 16.75 11.3 33.05 12.05 14.1 26.95 18.75 15.75 4.9 36.15 2.7 23.55-2.55 31.15-13.95-.8 3.2-2.7 6.4-2.45 4.05-5.9 6.7-3.75 2.9-7.4 8.6-3.5 5.5-4.3 9.4-.95 4.8-1.05 13-.1 9.8 1.65 14.15 2.45 6.1 1.8 10.2-.75 5.15-6.5 12.3-4.75 5.9-3.8 13.4-1.45-9.55-6.45-16.2-4.25-5.65-10.2-8.3-12.95-5.9-18.1-19l-3.55-9.45q-1.85-4.8-2.85-6.6-1.5-2.75-3.7-4.55l-4.35-3.05q-12.55-9-22.45-22.75-9.75-13.6-10.25-22.35-.25-4.15.9-9.95 1.2-6.2 3.65-12.5"/><path fill="#c8c9ca" d="M296.45 495.1q.1 1.75 1.25 2.6 1.35.95 3.75 0 7.55-3 18.15-13.15 10.45-10 13.45-16.95-.3 10.6-11.15 23.05-9.8 11.35-18.55 14.3-5.6 1.9-8.6.7-3.35-1.35-2.55-6.4zm18.9 29.65q2.8-1.1 4.7-1.1l2.8-.3q1.45-.45 2.35-1.6 2.3-3.15 6-6.65 5.2-4.95 9-6.1-3.75 3.9-7.3 8.35-3.6 4.5-4.25 6.2-.7 1.75-2.3 2.95-1.7 1.3-3.5 1.3-4.65 0-10.65 1.9 2.45-1.55 3.15-4.95m44.05-19.65q.15 1.2-.65 2.75l-2.05 3q-1.2 1.35-2.4 1.95-2.95 1.5-4.4.45-4.8-3.6-8.6-4.6l4.6-.25q2.35.2 3.6 1.05 2.15 1.45 3.8.45 2-1.3 3.4-3.2 1.75-2.3 1.5-4.2 1.05 1.65 1.2 2.6m.55-159.7q-.1-2.2 2.05-3.2 7.2-3.25 26.45-14.7 17.65-10.45 27.8-17.2-5.45 7.45-25.75 20.4-16.9 10.75-27.95 15.8-2.55 1.15-2.6-1.1m7.1-19.05q-1.8 1.2-2.15-.75-.4-2 1.85-3.9l30.75-29.45 34.45-33.55q-1.1 6.5-27.2 33.3-25.35 26-37.7 34.35m30.65-80.3q-2.1 8.5-21.9 35.7-17.8 24.4-26.85 33.7-1.6 1.6-2.15-.45t.85-3.65q5.25-5.8 26.3-33.85 22.35-29.8 23.75-31.45M332 261.7q1.5 2.2-4.25 24.1-5.7 21.6-8.9 26.85-.95 1.55-1.9.2-.95-1.4.15-3.8 1-2.25 7.25-22.35zm-90.1 94.4q-9-10.1-11.55-16.3 4 6.35 14.1 15.15 9.75 8.5 16.25 11.6l-.35 4.35q-8.15-3.2-18.45-14.8m-86.5-38.05-1.1-11.5q-.7-7.6-.55-11.05 3.15 15.65 11.7 16.15 3.2.2 5.85-1.9 2.5-2.05 2.8-4.65.45-3.9-2.7-13.35-2.6-7.85-5.65-14.15 2.95 2.9 7.35 12.7 3.75 8.3 5.5 14.15-1.05 3.8-.05 12.25.95 8.05 2.7 12.35-5.5 2.5-13.85-.45-9.15-3.25-12-10.55"/><path fill="#c8c9ca" d="m213.25 281.75 4.3-19.2 1.6-.6q0 2.5-1.8 13.95-1.85 11.6-2.9 15.55l3.15-2.55 3.6-2.55q.25 10.3-4.25 22.5-4.65 12.45-10.5 16.4-6.8 4.6-15.6 5.7-8.35 1-9.9-1.8-3-5.3-2.85-15.8.1-9.35 2.05-14 0 6.2 2.4 11 3 5.95 8.4 5.95 4.7 0 9.45-4.6 4.05-3.9 7.35-10.3 1.7-3.3 5.5-19.65M373.6 350.9q1.7 3.05 4.35 10.55 2.3 6.5 3.1 9.75 1.1 4.1 6 4.2l35.25.5q29.9.4 36.6.7 6.55.25 15.45-.3l10.95-.75 9.8.3 9.6.75 15.8-.7 17.35-2.25q23.05-3.2 55.5-6.25 43.25-4.05 62.65-3.4-7.8 1.55-39.1 11.05l-39.6 11.9q15.45 3.5 21.2 6.35-12.75.7-41.4.95-31.75.3-43.35-.55-6.6-.5-9.85-2.15-2.15-1.05-8.45-1.7-6.85-.7-11.1.05l-9.2.75-9.1-.15-38.55-3.5-44.25-4.3q1.15 5.8.4 12.15-1.05 8.55-5.5 13.7 5.3 0 33.2 4.2 30.55 4.65 62.05 10.55 87.65 16.35 100.8 26.85l-18.9-2.3-31.15-4.4q-22.95-3.1-66.3-10.55-49.55-8.55-65.7-12.8-9.7-2.6-20.2-2.65-13.75-.1-21.85 4.7 1.65-4.95 4.95-10.15 3.85-6.15 7.9-9 4.85-3.4 8.05-14.4 3.55-12.05 1.6-23.4-2.3-12.85-8.5-19.75l3.6-1.5 3.1 3.75zm214.55-11.65q-1.1 1.9-7 5.45-5.5 3.3-11.1 5.7h-8.4q5.25-1.65 13.5-5.15zm-42.1 1.05q-15.8 1.8-22.8 3.5-1.05-1.95-4.2-4.6 8.15-1.85 19-3.25l17.05-1.15q4.85.35 12-1.5 8.8-2.2 12.5-2.55-3 1.1-7.2 3.45-4.55 2.55-6 4.15z"/><path fill="#b5c6d5" d="M208.55 500.6q-6 .7-15.75 5.5-9.8 4.85-16.95 10.7l-10.65 1.3q-5.65.45-8.9.15 4.65-1.65 26.05-12.35 20.4-9.6 25.7-8.6zm2.6 14.65-17.15.9-19.7 2.2q7.85-4.2 22.05-7.55 15.5-3.65 22.3-1.95.4 2.2-1.55 4.25-2.25 2.35-5.95 2.15m51.7-14.75q2.75-1.25 4.8-3.2 1.95-1.85 2.45-3.5 3.3 3.6 7.1 14.45l-6.9-3.2q-5.3-2.7-7.45-4.55m23.75 23.6q-10.9 6.4-15.8 11.7-4.6 1.95-12.3 3.3-7.6 1.35-11.65.95 9.1-5.55 26.95-14.75 20.65-10.55 26.1-11.6l2.1 3q-5.4 1.45-15.4 7.4m1.55 12.3q-12.65 2.25-19.6 2.1 9-4.4 22.9-9.8 15.55-6.15 22.4-7.55 1.65 2.8.6 5.65-1.25 3.35-5.85 4.75-8.6 2.7-20.45 4.85"/><path fill="#c8c9ca" d="M345.25 84.15q-1 3.35-8.5 6.75-7.55 3.45-13.15 3l-10-1.2-8.85-.85-7.15.5q-4.65.6-7.8 1.55-.55-4.3-.55-5.45l3.8.5 4.05-.15 8.4-.4 10.7.8q5.2.95 14.65 0 11.65-1.2 14.4-5.05"/><path fill="#b5c6d5" d="M336.75 71.4q-5.2-5.45-16.95-6.1-11.3-.65-18 3.5-3.15 1.95-5.25 1-2.2-1 .8-4.6.35 2.05 3.7.65 10.7-4.5 21.4-3.6 10.1.8 15.95 6 1.05.9 1.85 1.2.75.25 1.65 0l12.05-2.75q2.85-.55 2.85-2.9 3.6 4.5-.75 5.65l-14.4 3.7-2.8-.1q-.9-.4-2.1-1.65m-301.4 80.95q1.6-3.75 5.5-5 4.1-1.3 7.75 1.15l3.7 3.1q2.85 2.55 3.5 3.45.6.8 1.25.95l1.5-.2 3.6-1.5 3.5-1.8q2.25-1.5 1.8-3.6 1.2 1.4 1.45 2.95.3 1.9-1.2 2.85l-4.75 2.6-4.3 1.85q-2.75.8-4-.85l-3.75-3.75-4.1-3.7q-2.05-1.65-4.7-.95-2.45.65-3.35 2.55z"/><path fill="#c8c9ca" d="m55.9 166.35 3.7-.2q2.1-.7 3.45-2.1l4.85 2.3q-1.5 2.35-5.6 3.8-4.35 1.5-8.1.55 1.75-1.85 1.7-4.35"/><path fill="#b5c6d5" d="M290.3 92.7q3.65-1.3 9.75-4.15l4.3.05q-3.9 5.65-15.65 11.7-10.35 5.35-15.6 6l9.15-6.75z"/><path fill="#c8c9ca" d="m276.25 95.75 4.4.3q-4.55 6.35-7.45 9.65zM434.3 387.9q37.1 3.6 45.4 2.35 14.45-2.2 26.35 2.15 3.15 1.15 13.9 1.7 7.6.4 15.7.4-1.9 8.95-6 19-5.7 13.95-11.95 18.5-22.85-4.9-66.6-12.65-55.95-9.9-72.7-10.55 3.55-5.35 5.15-12.3 1.85-8-.15-13.8l29.25 2.8z"/><path fill="#eeeeef" d="m578.8 393.95 17.6-.3.3-1q-2.7-1.35-8.5-3-5.25-1.55-10.9-2.7 2.75-.4 13.8-3.6l18-5.3q-4.2 4.2-10.6 15.25-1.35 2.35-3.85 5.15l-3.25-.3q-1.4-.45-2.2-1.25-.65-.65-1.7-.55-1.1.15-1.8.95-1.05 1.15-3.35 1.75l-4.6.45q-1.85-.05-1.95-.85-.15-.7.95-1.3 1.5-.8 2.05-3.4"/><path fill="#c8c9ca" d="M402.95 389.75q2.45.2 3.4 1.1l1.6 1.35q1.3.8 2.8.85l36.1.1q1.8 0 2.9.5 1.15.5 2.15 1.85l2.15 3.15q1.3 2 2.15 2.9 2.2 2.35 5.85 2.7l21.85 1.85 22.8 1.65 4.15-.3q1.6-.4 2.9-1.55 1.85-1.55 6.2-4.35 2.5-1.85 5.85-1.3 6.8 1.2 8.85 2.05 1.2.55 1.8 1.5.75 1.2.35 2.7-.55 1.9-3.1 7.8-2.8 6.4-4.1 8.25l-1.8 1.8q-1.2.8-2.4.85-5.5.35-8.95 0-3.35-.3-5.15-2.85-.9-1.2-2.75-2.05-2-.9-4.15-.95l-27.05-1.1q-20.5-1.2-24.85-2.5l-2.8-1.1q-1.4-.85-2.05-2.2-1.05-2.15-2.15-3.15-1.8-1.65-4.6-1.65l-18.75-.5-18.3-.55-3.15-.4q-1.75-.6-2.6-2.15-1-1.85-1.8-2.55-1-.85-2.8-1.05-4.4-.45-10.8-.25 1.45-4.75 1.45-10.95l10.45.2z"/><path fill="#b5c6d5" d="M357.2 510.3q1.9 1.5 4.95 6.3 2.6 4 3.95 6.9l-13-10.1 2.25-1.25z"/><path fill="#eeeeef" d="m383.2 358.45-2.25-1.25q-1.2-.7-1.75-1.35 2.45-1.65 8.6-2.75 5.9-1.1 10.65-.95 3.4.1 7.8-2.25 2.9-1.5 8.7-2.75 5.7-1.2 10.5-1.35l10.85-.85q6.05-.8 8.7-1.95l7.55-3q4.9-1.85 7.65-2.65 11.75-3.55 14.35-4 3.4-.5 4.65-2.1.75-.9 2.65-1.65l3.9-.95 10-.75 10.2-.5q1.55 0 2.8.85 2.5 1.6 4.4 3.85.6.75.4 1.4-.15.6-.95.65l-9.35.4-9.7.45-5.05.65q-1.65.45-4 1.7-2.25 1.15-5.8 1.4l-8.85 1.05q-4.7.8-8.1 1.85-3.85 1.1-14.9 5.55-2.75 1.05-9.45 1.95l-11.65.85-10 .9q-5.3.95-7.95 2.4-2.15 1.15-4.7 1.8l-3.95.45-8.55.7q-4.55.8-7.4 2.2"/><path fill="#c8c9ca" d="m356 185.85-13.1.95q-11.8 0-30.5 16.2-17.75 15.45-24.2 29.35-2.25 4.8-6.05 8.65-3.45 3.45-7.1 5.05-3.4 1.5-6.5 4.85-3.05 3.3-5.3 7.9 1.45 5.4 9.6 21 8.45 16.1 12.25 20.05-7-3.3-14.95-17.05-5.8-10-9.4-19.95.85-8.3 4.8-13.85 3.25-4.55 8-6.55 2.5-1.05 6.9-6.95 3.65-4.9 5.75-8.9 6.3-12 19-24.15 13.35-12.75 27.2-19.2 4.55-2.15 11.7-2.9l14.6-.85q4.5-.2 17.55-4.85 14.15-5.1 28.1-11.9 11.2-5.45 25.75-14.15l17.65-10.7 3.95 4.05q-1.85 1.05-19.15 11.25l-24.45 14.2q-5.55 3.15-19.45 8.65-14.3 5.6-21.95 7.55zm16.6 179.35q1.85 9.55 0 19.25-2.15 11.45-8.95 17.9-3.5 3.3-4.75 4.75-3.3 3.85-6.5 9.7-3.55 6.5-3.5 18.6.05 11.45 3.05 17.35 1.75 3.4.35 7.95-1.1 3.5-4.3 8.25 2.1-4.6 1.75-10.05-.3-4.35-1.75-6.85-3.8-6.65-2.8-19.55.7-9.5 3.2-17.25 2.55-8.1 14.85-19.65 4.05-3.8 6.6-12.45 2.45-8.25 2.75-17.95M291.7 145q-5.9 3.45-18.1 5.45l-17.7 1.7q-6.25.15-9.85-3.65-3.5-3.65-3.25-9.65 1.3 4.3 4.65 7.2 3.75 3.3 8.35 3.05 10.9-.55 21.6-2.95 10.85-2.45 15.85-5.55zm-65.65-19.75q4.8 2.15 9.25 1.55 4.75-.7 6.85-4.4l.6 3.55q-2.3 2.55-5.75 3.5-3.35.95-5.5-.1-1.5-.75-3-2.1zM304.85 435q-5.8 10.1-26.15 20.3-21.4 10.8-39.5 11.3 16.55-4.05 35.8-13.9 22.4-11.45 27.85-21.45z"/><path fill="#c8c9ca" d="M259.75 467.25q.7-.95 1.75-4.35l3.5-1.35q-.05 2.75-2.85 7.4-.75 1.3-.9 6-.1 3.9.2 6.25.15 1.55 2.95 5.05l4.55 5.05q1.65 1.65.8 3.45-.75 1.45-2.7 2.45.55-1.2.2-2.6-.25-1.2-1.05-2.2l-5.15-5.2q-1.05-1-1.95-3.05-.8-1.75-1.05-3.15-.15-1.1 0-4.6l.3-4.75q.4-3 1.4-4.4"/><path fill="#b5c6d5" d="m268 496.9 1.35-1.5.75-1.6q1.3 1.3 3.6 6.1 2.4 4.9 3.45 8.5l-4.25-5.6z"/><path fill="#c8c9ca" d="m179.95 140.55 1.05 1.55.85 2.3q.2.75.75.1l1.7-2.5q.6-1.2 1.6-.35 1.75 1.5 3.25 3.5l.6.45q.3 0 .3-.65.1-3.5-.9-9.95l1.6.1q1 4.15 1.7 10.2.75 6.4.4 8.9-1.2-2.25-3.2-4.7-2.15-2.6-3.9-3.85-3.05 6.85-8.25 9.45.5-2.85.45-6.3-.05-3.3-.55-5.75z"/><path fill="#0d131a" d="M598.95 395.05q-2.45 4.25-11.05 11.7-7.4 6.4-13.3 10.2-4.95 3.25-10.3 4.45l-8.2.55-13.15-.7q-9-.3-12.75-.2l.9-2.2q4.35-.1 12.65.2l12.65.7q3.8.4 8.5-.95 4.6-1.3 8.55-3.85 6.3-4.1 13.35-10.3 7.9-6.9 10.2-10.8l4.85-8q3.3-5 6-7.7l4-.75q-3.2 2.55-7.15 8.4-2.1 3.05-5.75 9.25m-196.05-40.7q2.45-.6 4.45-1.7 2.75-1.5 8.1-2.5 5.4-1 10.2-.9l11.4-.75q6.7-.9 9.45-2 12.5-4.85 15-5.6 3.5-1.05 8.15-1.85l8.9-1.1q3.75-.25 5.55-1.25 2.25-1.15 4.2-1.6l5.15-.65 18.7-.9.45-.25q.15-.35-.2-.75-1.95-2.25-4.1-3.65-1.1-.7-2.45-.7l-10.15.45-9.95.75q-1.95.2-3.65.95-1.65.65-2.25 1.45-1.65 2.05-5.25 2.6l-6.2 1.4-6.8 1.9q-2.85.85-8.35 2.95l-8.1 3.2q-2.7 1.15-8.75 1.95l-11.05.9-10.45 1.3q-5.7 1.15-8.4 2.6-4.75 2.45-8.15 2.3-4.45-.1-10.2 1-5.9 1.2-8.4 2.8l-1.65-1.35q2.65-1.75 9.2-2.95 6.25-1.15 11.05-1 3.2.1 7.45-2.15 2.95-1.55 8.7-2.8 5.8-1.3 10.75-1.45l10.95-.85q5.95-.75 8.4-1.8 2.85-1.25 8.15-3.2 5.5-2.1 8.4-2.95l6.85-1.9q4.45-1.2 6.35-1.5 2.85-.45 4.2-2.05 1.55-2 7.05-2.65l10-.85 10.2-.6q1.95.05 3.5 1.05 2.55 1.65 4.55 4.15 1 1.15.6 2.2-.35 1.05-1.95 1.05l-9 .35-9.9.45-5.05.7q-1.7.45-3.85 1.6-2 1.05-6.05 1.3l-8.75 1.05-8.05 1.8q-3.95 1.2-14.9 5.65-2.85 1.2-9.7 2.1l-11.65.8-9.85.8q-5.25.9-7.75 2.3-2.25 1.2-4.85 1.85l-4.1.45-8.3.8q-4.35.85-7.15 2.25l-1.75-1.25q2.9-1.55 8.1-2.5l9.2-.8z"/><path fill="#0d131a" d="M402.95 388.85q3 .2 5.4 2.6.75.75 3 .75l36.4.35q2.15.05 3.65 1.15 1.1.85 2.15 2.55 1.7 2.9 4 5.2 1.75 1.65 4.75 2l22.7 2.05 23.3 1.55q2.5.1 5.25-1.75l3.05-2.25 3.5-2.45q2.95-1.6 5.85-1.35l5.4 1.1 4.8 1.4q2.25.95 1.55 5.15-.5 2.7-2.75 7.7-2.2 4.8-4.65 8.85-1.55 2.5-4.45 2.6-5.65.3-10.4-.05-2.7-.15-3.95-1.7-3.25-4.05-5.65-4.05L479.5 419l-26.05-2.1q-4.5-.75-5.6-2.6-1.4-2.7-2.6-4.2-1.15-1.3-3.2-1.35l-38.9-1.2q-3.2-.1-4.35-1.2-.85-.8-2.2-3-1.05-1.7-2.6-1.8l-12-.5.75-2.05 11.5.7q2.25.25 3.55 2.45l2 2.8q.85 1 3.65 1.05l38.6 1.05q1.3.05 2.7.75 1.35.65 2 1.5l2.5 3.95q1.15 1.5 4.45 2l25.95 2.2 26.25 1.3q1.95.05 3.55 1 1.45.85 3.4 2.95l1.1.95 1.6.4 5.45.2 4.85-.15q1.45-.15 2.35-1.6 2.5-4.05 4.6-8.5 2.25-4.8 2.7-7.35.45-2.5-.5-3l-4.4-1.3q-3.55-.95-4.95-1.05l-2.6.05q-1.2.2-2.5.95-.75.4-3.3 2.3l-2.9 2.15q-2.9 1.95-6.1 1.8l-23.4-1.45-22.75-1.9-3.45-.8q-1.55-.6-2.6-1.75-2.2-2.35-4.1-5.65-1.7-2.9-4.15-2.9l-36.4-.2q-2.95 0-4.25-1.3-.95-.95-1.95-1.35-.95-.4-2.35-.5-9-.5-18.6-.5l.05-1.95zm-19-3.25 8.85.4q1.45.2 1.3.8t-1.45.5q-3.15-.25-8.6.05z"/><path fill="#0d131a" d="m381.1 403.25 8.15.4q1.25.15 1.25.75.05.6-1.3.6-5.8-.25-8.85-.05zm81.2-54.9-11.15 1.8q-1.5.25-1.7-.35-.2-.55 1.45-.95l9.8-2zm.1 47.3q-5.05-.25-10.35.05l-1.15-1.55q6.95-.25 11.55.15 1.3.1 1.25.75 0 .65-1.3.6m9.9 5.35-8.6-.25q-1.1-.05-1.1-.65t1.1-.7q3.2-.2 9-.1zm-36 10.95q4.5-.2 6.95-.1 1.2.05 1.2.6 0 .6-1.2.7l-8.1.5zm78.65-11.35-9.55-.15.3-1.7 9.25.55q1.5.1 1.5.65 0 .6-1.5.65m-18.05 20.7 8.9.75q1.25.25 1.2.85t-1.35.5l-9.8-.3zm39.65-26.85q-.6 3.9-1.6 7.95l-2.2-.5q1.05-3.95 1.6-7.6zm-14.6-50.7q-5.15-6.25-10.75-9.3l2.35-.75q5.8 3.6 10.8 9.8zm3 81.45q-2.9 4.25-6.15 7.35l-2.55-.6q3.25-3.15 5.75-6.6zm-345.4-283.3q-5.3 4.85-11.6 8.6-7.25 4.35-12.35 5-6.35.8-14.05-.95-8.6-2-17.95-7.05-2-1.05-2.3-3.35-.3-2.35 1.45-4.9 2.7-3.95 7.75-9.45 5.3-5.85 9.8-9.65 1.55-1.3 1.95-1.05.35.25-1.05 1.7-4 4.05-9.15 10.15-5.5 6.5-7.3 9.5-1.1 1.8-.95 3.2.1 1.25 1.15 1.8 18.2 9.8 30.45 8.1 4.2-.6 11.5-4.75 6.55-3.7 11.8-7.95 1.3-1 1.65-.55.4.5-.8 1.6m32.05-3.45q.6 10.85 3.05 21.3l-1.4 2.6q-2.7-9.85-3.65-22-1.25-15.9 2.4-22.35 5.4-9.55 8.2-17.1l2.1.35q-2.95 8.35-8.25 17.75-3.2 5.7-2.45 19.45m7.15-37.75q-2.05 5.65-4.8 9.25-.85 1.2-1.35.85t.3-1.65q2.35-3.65 4.05-8.75z"/><path fill="#0d131a" d="M171.45 47.25q2.1 4.9 2.45 12 .4 7.6-1.45 13.65-.5 1.7-1.05 1.55-.55-.1-.2-1.85 2.15-11.2-.3-21.6-1.7 7.1-10.1 18.75-4.85 6.7-13.05 16.2-3 3.55-5.2 9.05-2.6 6.4-2.55 11.95.05 7.9-.35 14.55l-1.45 1.35.25-9.15-.2-6.75q-.2-5.75 2.3-12.45 2.3-6 5.6-9.9 9.25-10.9 14.1-17.7 8.95-12.65 9.65-19.35.1-.9.6-1.05.55-.1.95.75"/><path fill="#0d131a" d="M175.25 61.55q.2-1 .65-1 .45-.05.65.95.8 3.15.8 6.95 0 4.4-1.1 8.3l-2.3 1.8q2.2-6.7 1.7-13.2-.8 2.05-3.2 4.95l.05-2.45q2.25-3.1 2.75-6.3"/><path fill="#0d131a" d="M176.35 65.8q10.2-11.5 19.65-17.2 9.4-5.7 16.8-4.9 5.3.6 10.5 6.85 4.6 5.55 7.1 12.85l-2 .5q-2.4-6.95-6.4-11.95-4.6-5.75-9.45-6.3-7.05-.8-16.6 5.3Q186.4 57 176.6 68.5z"/><path fill="#0d131a" d="M215.25 41.1q.5 7.25-2.95 18.1-3.6 11.45-8.35 15.65-1.15 1-1.6.55-.4-.45.7-1.55 3.65-3.5 6.95-12.95 3.15-9 3.6-16.35-3.6 6.1-16.3 17.05-9.75 8.3-19.5 15.2-11.65 8.2-18.05 17.5-6.3 9.2-10.05 23.25-.4 1.5-.85 1.35-.5-.15-.15-1.7 3.45-14.9 9.7-24.35t18.2-17.75q11.7-8.2 22.2-17.4 12.8-11.3 14.9-16.8.4-1 .95-.95t.6 1.15"/><path fill="#0d131a" d="M202.15 81.25q7.65-5.65 9.3-13.05-2.1 2.2-5.85 3.9l.9-2.15q3.1-1.7 5.7-4.75.4-.5.75-.45.4.1.4.8.2 4.1-2.7 8.95-3.1 5.15-7.8 7.85-1.35.75-1.7.3t1-1.4"/><path fill="#0d131a" d="M265.55 63.9q-4.1-3.15-11.95-3-7.35.25-19.25 2.7-12.35 2.55-22.3 6l.35-1.95q10.55-3.55 22.2-6.2 12.05-2.7 19-2.9l6.4.45q4.3.85 6.95 2.85 2.75 2.1 6.75 6.4 4.45 4.8 5 6.7.65 2.15.8 7.95.1 6.35-.75 9.15-3.35 10.9-5.95 15.2-3.25 5.45-1.15 9 2.15 3.55 7.65 1.6 9-3.2 15.15-7.2l.65 2.2q-6.25 4-15 7.1-7.55 2.7-10.6-2.2-3-4.8 1.15-11.7 2.55-4.25 5.95-14.6.85-2.6.75-8.45-.05-5.35-.6-7.35-.5-1.55-4.65-5.8-3.7-3.75-6.55-5.95"/><path fill="#0d131a" d="m280.15 97.05-4.15-.3.2-1.75 5.2.15zm9.7 2.85 1.95-1.1q.9 3.95 2.25 7.3 3.3 8.2 3.55 17.35.3 11.5-4.5 21.8-5.55 11.85-21.05 37.7-17.25 28.75-29 44.4-2.8 3.7-3.65 5.45-1.1 2.4-.95 5.45.5 10.05-2.55 20-3.3 10.85-9.5 17.15-1.2 1.2-1.6.85-.45-.4.6-1.75 5.75-7.25 8.6-17.6 2.65-9.5 2.2-18.7-.2-3.35.85-6 .95-2.45 3.75-6.2 11.7-15.55 28.95-44.3 15.4-25.7 21-37.65 4.55-9.7 4.45-20.4-.05-9.1-3.25-16.95-1.15-3.05-2.1-6.8m34.35-70.45q-.45.05-.7-.8-.7-2.8-3.8-3.4-3.35-.7-7.4 1.85-2.55 1.6-9.45 7.75-7.55 6.7-10.75 10.6-1.45 1.75-1.15 3.6.25 1.45 2.1 4.75 1.6 2.9 1.4 6.05-.2 3.25-2.4 7.4-1.1 2.1-1.65 6.8l-2.4.75q.55-6.05 1.85-8.45 2.1-4 2.4-6.55.35-2.7-1.05-5.2-1.95-3.5-2.25-5.4-.4-2.6 1.4-4.85 3.2-3.9 11.3-11.1 7.05-6.25 9.45-7.9 4.75-3.15 9.4-1.85 4.5 1.25 4.25 5.1-.05.85-.55.85"/><path fill="#0d131a" d="M357.25 7.45q-2.65 2.95-3.85 5.15-1.4 2.55-1.15 3.55.6 2.4-2.6 2.4-.6 0-1 .6t.05 1.3q1.55 2.4.9 4.3-.6 1.85-2.75 1.95-2.75.1-2.85 1.05-.1 1-.7 1.8l-1.95 1.75-5.05 3.55q-3.6 2.35-4.8 2.65-.75.2-1.4.75-.7.6-.9 1.2-.4 1.5-1.25 2.15-.95.65-2.6.55-2.9-.2-5.4 1.6-2.65 1.95-1.8 4.4.95 2.85-.45 4.15l-2.45.55q1.95-1.2 1-4.25-1.1-3.25 2.2-5.85 3.1-2.45 7-2.3 2 .05 2.45-1.55.25-1 1.2-1.8.85-.75 2-1.1 2.3-.75 9.4-6.05 1.75-1.3 1.85-2.55.25-2.05 4.5-2.25 1.25-.05 1.4-1.25.2-1.2-.85-2.75-1-1.6-.1-2.8.75-1.05 2.1-1.05 1.5 0 1.35-1.1-.2-1.9 1.15-4.35 2.35-4.1 8.6-9.4l-4 1.1q-3.35.55-6.05 2.7l-5.75 4.35q-3.4 2.25-7.6 4.35-2.45 1.25-4.1 6.85-.65 2.25-3.5 4.1-2.8 1.8-5.3 1.7l-.75-1.75q2.2.3 4.6-.95 2.55-1.4 3.25-3.7 1.85-6.05 5.15-7.75 4-2 7.3-4.4l5.65-4.4q2.6-2 6.9-2.7 2.9-.5 6.9-1.8l1.25.1q.2.4-.6 1-3.6 2.85-6.6 6.2"/><path fill="#0d131a" d="M359 65.2q1.05 2.3.55 3.45-.6 1.25-3.3 1.9l-12.75 3.2-3.95.65q-1.8-.05-2.95-1.45-4.9-6-16.75-6.65-11.4-.65-19 4.05-3.8 2.3-5.6.2-1.75-2.1.55-5.05 5.7-7.4 14.4-11.5 8.4-4 18-4.1 10.1-.1 17.45 2.9 9.4 3.85 13.35 12.4m-1.8.8q-3.55-7.65-12.8-11.25Q337.3 52 328.2 52t-17.15 3.8q-8 3.75-13.8 10.7-1.35 1.6-.3 2.55 1 1 3.15-.35 7.9-4.95 19.75-4.5 12.55.45 18.25 7.15.65.75 1.85.8l3.05-.5q1.85-.5 12.8-3.05 1.3-.3 1.6-1 .25-.6-.2-1.6"/><path fill="#0d131a" d="M332.05 90.15q-9.3 1.35-17.75-.1l-10.05-.55-12.2.65q-3.6.25-4.7-3.2-1.15-3.4.95-7.2 2.55-4.65 7.6-10.35l1.6 1.2q-5.75 6.55-7.65 10-1.65 3.1-.9 5.55.7 2.4 3.05 2.2 15.8-1.35 22.6-.15 7.9 1.3 16.7.2 9.35-1.15 12.75-4.4.9-.85 1.35-.5t-.35 1.35q-2.95 3.85-13 5.3M209.4 98.5l14.15 1.95q11.45 2.2 16.4 11.45 4.8 9.05 3.8 25.75-.35 5.95 2.6 9.65 2.95 3.65 8 3.6 10.85-.1 21.25-2.05 12.15-2.3 17.15-6.2l-1.15 3.2q-5.95 3.8-17.3 5.65l-19.85 1.5q-6.35-.05-9.8-4.15-3.45-4.15-3.05-11.2 1-15.9-3.5-24.5-4.55-8.65-14.95-10.65-5.1-1-13.6-1.85L195.1 99.5q-3.25-.15-6.55 2.15-1.75 1.25-3.3 3.05l-3.55 3.95q-4.5 4.7-15.5 13.7-11.65 9.4-25.65 17.05-2.45 1.35-3.55 3.8-1.35 3-2.55 7.9l-1.8-.75q1.35-5.1 2.5-7.85.55-1.25 1.65-2.45 1.15-1.25 2.5-2 13.25-7.25 26.15-17.05 12.05-9.2 16.3-15.2 2.5-3.55 5.3-5.7 3.9-2.85 8.2-2.65z"/><path fill="#0d131a" d="M220.75 123q5.45 1.35 8.65 3.75 3.45 2.55 7 1.9 3.5-.65 5.85-4.1l.35 2.55q-2.15 3.05-6.25 3.7-4.4.7-7.85-2.05-3-2.4-8.6-3.9-5.2-1.35-9.05-1.05l.5-1.8q4.3-.25 9.4 1m432.7 82.35q-12.95-3.3-28.35-8.8-16.3-5.85-29.55-12.15l-3.5-4.1q12.65 5.9 30.45 12.6 17.3 6.55 28.6 9.75-18-23.05-51.85-52-33.65-28.8-68.7-51.2-21.65-13.9-52.4-25.95-21.1-8.3-58.6-20-7.75-2.45-14-2.5-5.4-.1-13.8 1.7-9.7 2.05-20.1 3.5-13.15 1.8-20 1.4l-2.8-2.1q6.5.55 21.2-1.3 11.9-1.55 21.35-3.5 9.05-1.95 15.35-1.7 5.75.2 13.3 2.45 36.85 11.1 59.65 20.1 29.95 11.85 52.1 26 36.9 23.65 71.95 53.7 36.8 31.55 50.7 52.6.6.95.35 1.35z"/><path fill="#0d131a" d="M554.75 186.85q12.5 7.9 35.6 20.15 22.9 12.15 40.35 20.15-31.1-40.6-67.85-71.05-43.1-35.75-80.9-45.6-1.4-.35-1.25-.95t1.55-.3q37.15 7.45 82.9 45.15 40.75 33.65 69.65 74.7.9 1.2.45 1.8l-1.8-.1q-17.5-7.85-42.1-20.75-25.1-13.1-37.95-21.25-10.75-6.75-24.8-13.1-14.65-6.65-34.85-13.75-23.8-8.35-31.3-12-14.75-7.25-21.5-17.45-12.75-19.2-22.7-32.95-16-22.05-20.35-23.65-5.35-1.95-21.7-.95-16.5 1.05-25.45 4l-1.6-.1q-.2-.55 1.1-1.1 7.95-3.65 25.45-4.9 17.05-1.25 23.1.95 5.4 2 21.7 24.65l22.4 32.7q6.6 9.7 22 17.15 7.55 3.7 29.65 11.55 20.5 7.25 35.15 13.85 14.4 6.5 25.05 13.15m-20.05-86.5q20.95 7.65 54.7 30.1 34.6 23 44.15 36.35.75 1.1.4 1.55-.4.4-1.45 0l-18.15-5.3-2.5-2.95q10.8 2.4 17.55 5.15-11.4-12.75-40.75-32.1-26.5-17.55-46.15-26.85zM446.3 24.5q-6.75 4-8.7 6.8l-1.75-.5q1.7-2.8 6.75-6.1 4.95-3.25 11-5.6l-12.9 1.4-9.8.45q-2.35-.05-5.55 1.3-3.25 1.4-6.6 3.95-1.85 1.4-2.1 2.8-.35 2.05-2.9 2.95-2.5.9-4.15-.4-.8-.7-4.25-.8-4.6-.1-7.95.1l-8.7.9q-3.55.55-6.15 2-2.7 1.45-6.45 4.85-2.1 1.95-2.95 7.8-.4 2.75-1.9 5.2-1.65 2.6-4.15 4.1l-3.25.3q2.95-1.65 5-4.2 2.15-2.75 2.55-5.7.35-2.55 1.15-4.8 1-2.75 2.3-3.95 3.95-3.6 6.9-5.2 3-1.65 6.7-2.2l8.8-.95q3.45-.2 8.15-.1 3.75.1 5.05 1.3.95.85 2.7.3t1.95-1.95q.25-1.8 2.7-3.7 3.5-2.75 7-4.2 3.4-1.4 6.1-1.35l14.35-.85 14.7-1.75q1.2-.2 1.35.35t-1 .9q-7.1 2.45-14 6.55"/><path fill="#0d131a" d="M407 45.05q-4 .05-5.65-.75l-1.7-.25q-.95.15-1.6.75-3.45 3.45-5 6.55l-2.15.3q.75-1.6 2.65-4.15l3.35-3.9q1-.95 2.5-1.05 1.35-.15 2.55.4 1.35.65 5 .6 3.95-.1 6.35-1 2.55-.95 4.9-1.1 1.75-.1 1.8-1.45.1-1.4 2.9-1.35 1.6 0 3.9-.9 2.4-.95 3.35-2.1 1.85-2.35 7.15-3.75-2-.3-4.1.05-1.35.25-1.45-.35-.05-.6 1.25-.9 4.25-.9 7.75.6.9.45.8.95-.05.45-1 .55-3.05.35-5.6 1.45-2.4 1.1-3.55 2.5-1.15 1.45-3.95 2.35-2.4.8-4.55.85-1.4.05-1.45.8-.4 2-3.2 2.15-1.75.05-4.5 1.1-2.65 1-6.75 1.05m-242.4 77.6 2.7-1.75q.2 1.2-.05 2.2-.3.95-.85 1.25-.55.4-1.2-.3-.6-.7-.6-1.4"/><path fill="#0d131a" d="M170.45 118.5q.35 4.15-1.05 7.15-1.4 2.95-3.55 3-1.35.1-2.3-.9-1.05-1.05-1.4-3l1.3-.8q.05 1.65.8 2.7.7.95 1.6.95 1.45-.05 2.45-2.45 1-2.45.9-5.75z"/><path fill="#0d131a" d="M177.15 112.85q.25 4.95-2.7 9.7-3.05 5-7.7 6.7-2.75 1.1-5.85 1.2l-5.7-.5 1.65-1.8 4.95.55q2.5-.1 4.5-.8 3.4-1.2 6-5.3 2.6-4.05 2.65-8.2zm19-14.15q-3.4 3.2-6.35 8.65 5.4-2.3 12.15-3.3l13.3-.55q1.45.1.55 1.4-2.6 3.45-9.1 8.9-5.85 4.9-11.5 8.6 3.8 2.9 7 7.35 3.35 4.65 4.6 9.05.55 1.85-1.2.9-7.45-4.15-15.6-3.95-1.35.05-1.4-.6-.05-.6 1.3-.7 7.8-.65 14.45 2.75-1.6-4.15-4.55-8.05-3-3.95-6.2-6.15-.95-.65.1-1.35 4.85-3.05 10.6-7.9 6-5.05 9.05-8.75-6.8-.15-13.2 1-6.6 1.2-11.8 3.65l-1.15.1q-.3-.3.1-1.1 2.8-6 6.65-10.2z"/><path fill="#0d131a" d="M191.25 135.05q1 3.75 1.8 9.8.85 6.25.75 9.9-.05.9-.55 1t-.9-.65q-3.2-5.95-6.5-8.7-1.05 2.85-3.25 5.5-2.4 2.9-4.95 4.15-1.55.8-1.2-.85.75-3.45.8-6.3 0-2.65-.6-5.55l1.35-.9q1.35 5.2.35 11.3 2.3-1.5 4.1-3.8 1.85-2.35 2.45-4.55.3-1 1.15-.35 3.5 2.55 6.05 6.5l-.75-8.75q-.65-4.75-1.4-7.65zm-27.65 8.55q-11.35 4.1-12.6 4.85-1.1.6-2.3 2.3t-2 3.8l-1.9-.45q.9-2.3 2.45-4.3 1.5-2 3.05-2.8.75-.4 4.55-1.75l8.3-2.7 1.5.1q.2.45-1.05.95m22.25 46.5q-2.75 1.2-2.7 4.45.1 5.6 1.2 11.8.85 4.6 6.75 4.75 6.5.2 15.65-3.3 8.9-3.4 14.25-7.95 3.65-3.1 3.5-9.4-.2-5.8-3.15-9.15-.3-.3-.6-.15-.3.1-.25.6.15 1.55-.5 3t-1.9 2.3q-2.9 2-10.55 5.4-6.75 3-12.85 5.2-4.35 1.6-6.85-.35-2.45-1.85-1.2-5.5l1.5 1.25q-.25 2.2 1.45 3.05l4.6-.2q5.5-1.95 12.6-5.1 7.4-3.25 10.35-5.15 2.05-1.35 1.9-4.3-.1-1.6 1-2 1-.4 2.15.55 3.75 3.3 4.1 10.4.35 7.5-4.05 11.15-5.55 4.6-15.35 8.2-9.5 3.45-15.95 3.45-7.55 0-8.65-6.35-1.15-6.45-1.3-12.05-.05-2.15 1.1-3.8 1.1-1.7 3-2.45z"/><path fill="#0d131a" d="m186.2 220.35.1-9.1 2.45.65-.1 9.65zm.05 18.45q-2.5 9.15-7.3 21.65-4.65 12.2-9.6 22.8l-1.45-2.45q5-11.4 9.15-22.4 4.8-12.6 7-20.9zm-.8-49.45q-.25-10.6-1.25-21-.95-9.85-2.3-16.5l1.55-1.6q1.55 7.5 3.05 21.4 1.45 13.8 1.95 24.85-.5-.2-.95-1.3t-.4-1.85zm41.15-23.65q.35.35-.35 1.3-4.2 5.7-5.45 13.5l-1.8 2q-.35-2.6 1.6-7.55 1.4-3.65 3.4-7.05-2.55 2-4.35 4.75l-.1-2.45q2-2.65 5.65-4.4z"/><path fill="#0d131a" d="M223.7 150.45q-1.1 3.9-2.2 9.7-1.2 6.6-1.6 11.8-.2 2.2-.9 2.15-.7-.1-.55-2.35.65-10.25 3-19.2-4.2 3.5-7.5 11.05-2.75 6.15-4.4 13.7l-1-2.65q1.5-7.75 4.5-13.85 3.75-7.5 9.3-11.2.85-.55 1.25-.3.35.25.1 1.15"/><path fill="#0d131a" d="M201.9 179.3q1.45-8.65 3.75-13.15.5-1.05 1-.9.45.15.6 1.1.5 3.1 1.65 7.2 1.2 4.1 2.4 6.7.7 1.45.15 1.75-.55.25-1.35-1.15-2.35-4.4-3.9-11.45-1.65 4.65-2.6 11.6-.95 6.7-.85 12.5l-2.1.85q-.2-6.8 1.25-15.05m-23.75-5.6 1.25.1q4.05 1.9 6.9 3.85l.05 2.3q-2.05-1.85-5.4-3.5 3.5 7.25 6 13.7l-.05 5.25q-1.35-4.05-4.2-10.75l-4.35-9.65q-.5-.95-.2-1.3m-111.7-36.25q7.65-.2 23.8.65l32.75 2.5-.4 2.15-33.05-2.65q-16.35-.9-23.05-.65-3.5.15-4.95 1.15l-1.35-1.5q2.1-1.5 6.25-1.65m98.8 13.35q11.65 5.35 19.15 11.2l.1 3.1q-8.35-6.75-21.85-12.85zm2.05-52.75q-3.4 3.2-6.15 7.05-1.55 2.2-2.45 3.95-1.55 3-2.9 7.35-.4 1.35-.85 1.3t-.1-1.45q1.1-4.55 2.15-7.2 1.05-2.75 2.65-5 1.4-2 2.7-3.35 1.65-1.8 4.1-3.65 1.1-.8 1.45-.4.4.45-.6 1.4m1.6 11.1q-4.85 4.05-8.75 9-.9 1.15-1.3.95t.35-1.5q1.95-3.2 4.05-5.4 2-2.15 4.8-4.05 1.15-.8 1.55-.35t-.7 1.35"/><path fill="#0d131a" d="M44.4 140.8q-3.75 1.5-5.35 2.35-5.45 2.85-5.65 9.2l-1.75-.15q.15-7.45 6.6-10.75 1.65-.9 5.5-2.5 4.1-1.75 6.4-2.5 6.25-1.95 10.3 1.45 2.55 2.2 4.95 5.1 3.55 4.3 4.7 8 .5 1.6.05 2.6-.4 1-2.1 2.15-1.05.7-4.5 2.4l-4.95 2.25q-1.55.65-2.7.3-1.3-.4-2.65-2.15-2.9-3.8-6.85-6.7-2.1-1.55-4.15-1.25-2 .35-3 2.35l-1.7-.45q1.1-2.7 4.1-3.6 3.2-.9 5.95 1.15 4.4 3.3 7.25 7.05.95 1.3 1.6 1.5l1.6-.25 4.7-2.05q3.5-1.6 4.35-2.2 1.4-1 1-2.5-.95-3.5-4.8-7.8l-4.25-4.15q-1.65-1.5-3.6-1.8-2-.3-4.8.65-2.3.7-6.25 2.3"/><path fill="#0d131a" d="M35.7 161.8q-11.05-2.8-26.75-5.55-.85-.15-.85-.6-.05-.45.75-.7 6.6-2.2 16.5-3.05 8.75-.8 13.15-.1 2 .3 3.2 1.75 1.2 1.5 1.05 3.4-.2 2.85-2.45 4.2-2.1 1.3-4.6.65m3.4-2.05q1.65-.9 1.8-2.95.3-2.75-2.7-3.2-3.6-.55-10.9-.2-8.65.45-15.25 2.05 14.85 2.25 24.05 4.65 1.6.4 3-.35"/><path fill="#0d131a" d="M24.5 158.6q-3.5.5-10.55 3.1-7.15 2.65-10.75 4.8l13.95-.55q6.15-.05 10.75.2 3.85.2 5.7-1.3 1.75-1.4 1.35-3.9l2 .35q.3 3.1-1.8 4.9-2.4 2.05-7.3 1.75-12.65-.7-26.9 0H.9q-.75 0-.85-.3-.15-.35.45-.85 2.5-2.3 8.6-5.1 6.05-2.75 11.25-4.05z"/><path fill="#0d131a" d="M33.1 166.3q.85 3.8-2.85 6.25-3.35 2.3-10.9 5.85-7.75 3.7-12.75 5.3-.85.25-1 0-.15-.2.2-.95 1.6-3.25 5.85-7.85 4.25-4.65 8.85-8.1l2.5.2q-4.05 2.7-8.55 7.25-4.1 4.1-6.5 7.55 4.95-1.85 11.7-5.25 6.5-3.3 9.5-5.35 2.7-1.8 2.15-4.5zm2.6 13.35q1.85-3.15 5.4-8 3.85-5.25 6.5-8.05 3.45-3.65 7.25-1.1 3.85 2.5 1.1 7-2.4 4.05-8.25 7.35-5.75 3.25-11.4 3.8l-.7-.15q-.2-.3.1-.85M48.95 165q-2.9 3-6.55 7.65-3.25 4.2-4.7 6.5 4.6-.9 9.7-4 5.35-3.25 7.1-6.5t-.7-4.75-4.85 1.1"/><path fill="#0d131a" d="M26.5 173.8q-.9 4.2-.5 8.1.4 4.35 2.4 7.35 16.95 25.25 53.85 54.85 37 29.7 61.7 37.7-16.2-23.55-40.2-51.05-23.7-27.15-36.75-37.3-1.25-.95-.95-1.45.35-.45 1.7.4 14.4 9.2 40.2 38.6 26.15 29.75 39.2 52.15 1.1 1.9-.95 1.4-25.85-6.7-63.6-36.45-37.35-29.5-56.1-57.6-3.9-5.8-2.5-15.15zm42.2-6.65q-2.45 2.9-7.15 4.2l-8.05.45 1.05-1.8 6.8-.45q3.85-1.05 5.9-3.35z"/><path fill="#0d131a" d="M64.05 163.8q20.75 9.7 39.05 19.75 20.1 11 26.05 16.45 13.75 12.55 19.55 21.85 5.95 9.45 4.75 17.45-1.5 10.65 3.75 16.15 4.05 4.25 7.8 11.35 3 5.6 5.3 12l-1.25 2.5q-2.2-6.25-5.75-12.9-4.15-7.8-7.95-11.75-2.85-3-3.9-7.1-1.15-4.4-.35-10.5 1.95-14.15-23.5-37-5.8-5.25-27.45-17.4-16.1-9.1-36.7-19.65-1.5-.8-1.2-1.35z"/><path fill="#0d131a" d="m160.1 268.85 5.85 2.25.85 2.4-6.45-2.4zm-2.8 1.05q-21.75-8.9-36.05-19.95l-3.65-5.2q8.7 6.6 20.25 13.1 10.3 5.85 20.1 10.1zm-67.45-89.3q13.55 9.35 34.3 27.55 18.55 16.3 28.45 26.75l-.5 3.25q-9-9.65-29.2-27.75-20-17.9-33.85-28.75-1.4-1.1-1.05-1.55.4-.5 1.85.5m102.8 110.95q.3-4.45.1-9.7l-.55-7.55q-6.85 7.65-10.75 22-4.8 17.5-.1 31.6.5 1.55-.1 1.75-.6.15-1.15-1.3-5.75-15-.3-33.95 4.65-16.1 12.3-22.6 1.35-1.15 1.6.4 1.3 7.2 1.1 15.6z"/><path fill="#0d131a" d="M201.7 275.7q8.3-10.1 17.1-14.9 1.5-.85 1.35.9-.8 9.8-3.05 20.9-2.3 11.7-5.15 19.4-.6 1.6-1.2 1.45t-.1-1.8q2.05-6.45 4.3-18.2 2.1-10.9 3.15-20-7.75 4.8-15.35 14.15-7.8 9.6-10.25 17.75-.4 1.3-1 1.2-.6-.15-.3-1.5 1.9-8.85 10.5-19.35"/><path fill="#0d131a" d="M213.95 291.25q3.05-3.45 6.3-5.75 1.5-1.05 1.55.7.55 9.65-3.7 21.7-4.55 12.9-11.1 17.25-1.2.75-1.55.3-.4-.45.8-1.4 5.75-4.6 9.9-16.2Q220 297.05 220 288q-3.5 2.8-6.5 6.5zm.95-75.95q-6.6 3.65-12.75 5.85-4.15 1.5-8.55 1.7-5.1.15-7.35-1.8-1-.9-.75-1.45.2-.55 1.35.3 1.75 1.3 5.85 1.25 4.4-.05 8.95-1.7 5.05-1.85 11.65-5.35 8.85-4.6 11.45-7.8.7-.9 1.2-.5.55.35-.15 1.3-2.75 3.65-10.9 8.2"/><path fill="#0d131a" d="M223.35 203.45q2.35-.8 4.85.3 2.6 1.2 3.55 3.85 1.25 3.35 1.85 9.05.2 2.1-.25 3.45-.5 1.45-1.95 2.65-9.45 7.65-20.25 12.1-10.95 4.55-21.6 5.05-3.25.15-5-.8-2.15-1.2-2.6-4.3l-.7-7q-.3-4.3-.3-6.6 0-6.3 6.35-6.7l.1 1.8q-2.65.15-3.7 1.7-.75 1.15-.75 3.25 0 2.3.3 6.4l.65 6.8q.3 2.05 1.5 2.8t4.05.6q21.3-.9 40.45-16.55 1.1-.9 1.5-1.9.45-1.05.25-2.6-.55-5.5-1.8-8.75-.7-1.95-2.55-2.8l-3.75-.15z"/><path fill="#0d131a" d="M222 209.65q0-3.45-.65-9.2l2.15-1.65q.7 5.7.7 8.85zm-21.7 43.05q1.55-5.3 2.1-15.75l1.85-.45q-.5 11.1-2.25 16.7-5.5 17.9-5.55 31.6l-1.8 2.5q-.4-8.6 1.6-18.8 1.2-6.2 4.05-15.8m2.2-32.45-.8-9.55 2-.5.7 9.2zm-29.65 67.8q4.35 9.15 6.1 16.05l-.8 4q-1.05-6.25-5.45-16.05-3.85-8.6-6.85-12.95-1.6 8.55-.5 20.9.1 1.65-.5 1.75-.6.05-.85-1.6-.85-5.6-.7-12.2t1.25-11.1q.2-.7.65-.85.4-.1.9.45 2.65 2.95 6.75 11.6"/><path fill="#0d131a" d="M155.05 286.95q-.75 12.4 1.05 25.9 5.9 43.4 30.95 73.75 17.6 21.25 40.55 32.2l-.05 2.6q-24.8-11.1-43.5-34.6-24.2-30.45-30.1-73.7-2-15.05-.75-28.4 1.35-14.05 5.85-19.95.65-.8 1.05-.65.45.15.45 1.05 0 2.75 1.3 9.95 1.2 6.75 2.5 11.85l-.5 4q-1.4-3.75-2.9-11.35-1.4-6.95-1.85-11.65-3.2 6.35-4.05 19M243.5 480.1q-4.65 5.9-16 9.25-9.95 2.9-17.55 2.15-1.7-.15-2.3-1.35-.6-1.25.4-3.25 1.9-3.7 5.55-7.5 4.2-4.45 8.95-6.9 1.45-.75 2.2-2.3.8-1.6 1.15-4.6l2.05-.1q-.45 3.45-1.4 5.5-1.05 2.25-3 3.25-4.45 2.25-8.4 6.35-3.45 3.55-5.3 7.1-.85 1.65.65 1.85 8.2.7 18.2-2.7 10-3.35 13.25-7.9 4.7-6.55 5.35-13.05l2-.4q-.45 7.85-5.8 14.6"/><path fill="#0d131a" d="M175.3 386.05q.3 6.9 2.65 10.2 7.6 10.75 19.7 18.25 9.85 6.05 18.35 7.8 2.6.5 5.05 2.6 2.65 2.2 4.3 5.6l-1.05 3q-1.25-3.95-3.7-6.4-2.2-2.25-4.95-2.8-9.7-1.95-20.55-8.8-12.15-7.65-19.3-17.85-2.6-3.7-2.8-11.75-.15-7.7 1.85-15.15l1.6 2.3q-1.45 6.65-1.15 13M198.75 493q.65-3.25 4.55-6.25 3.85-3 8.1-3.7l-1.35 2.65q-3.2.7-5.95 2.9t-3.2 4.45zm12.85 23.55-17.9.9-20.35 2.2q-.95.1-1.2-.35-.25-.5.55-1.2 9.45-8.25 20.7-13.75 10.2-4.95 15.85-4.9 8.8.15 10.4 8.3.8 3.9-1.55 6.4-2.3 2.4-6.5 2.4m-2.3-14.65q-4.45 0-13.65 4.05-10.45 4.6-19.5 11.5l18.95-2.3 16.55-1q3 .05 4.6-1.85 1.45-1.75 1-3.85-1.3-6.55-7.95-6.55"/><path fill="#0d131a" d="M205.4 493.1q4.6 2.25 4.4 7.7l-2.7-.1q.1-3.8-3.05-5.55-3.45-1.9-8.9.2-8.6 3.35-20.65 10.5-12.15 7.2-16.75 11.7l10.9-.95q6-.95 10.4-2.4l-3.85 3.35q-4.45 1.2-10.25 1.65-5.15.45-9.2.15-.8-.1-1.05-.5-.2-.45.3-1.05 3.95-5.1 17.2-13.3 12.85-7.95 22.2-11.35 6.4-2.35 11-.05"/><path fill="#0d131a" d="M190.1 494q-4.95 1.5-8.8 3.4-8.5 4.1-13.5 10.8l-3 1.7q2.5-4.6 6.95-8.6 4.05-3.65 8.7-5.95 4.1-2 10-3.6 6.15-1.65 10.5-1.85l-.6 2.15q-4.4.2-10.25 1.95m76.3-33.2q-.3 3.25-3.1 7.95-1.35 2.3-1.05 11.55.05 2.15 2.9 5.55l4.5 4.65q3 3 .6 5.85-1.75 2.15-5.8 4.45-1.55.9-3.05.85-1.4 0-2.5-.8l-4.45-3q-2-1.2-4.6.5-1.85 1.2-5.3 5.3-3.15 3.7-4.35 5.75-1.35 2.3-2.95 3.15-1.7.9-4.25.6-5.05-.6-16.35 1.2l1.4-2.2q10.3-1.8 15.15-1.3 1.8.2 2.95-.5 1.05-.7 2.15-2.5 1.1-1.95 4.75-5.8 3.7-3.95 5.75-5.3 3.6-2.4 6.55-.7l4.45 2.95q.6.45 1.7.4 1.05-.1 2-.6 3.4-1.9 4.85-3.65 1.4-1.7-.3-3.35-3.4-3.4-4.8-5.2-3-3.7-3.05-6.2-.15-4.7 0-7.1.25-3.75 1.2-5.4 2.25-3.8 2.8-6.6z"/><path fill="#0d131a" d="m270 495.15.45-2.8q2.1 2.95 4.65 8.2 2 4.2 3.2 7.45.3.85.1 1.1l-1.1-.05q-4.45-1.55-9-4-4.25-2.25-6.85-4.35l2.15-.8q6.3 4.55 12.35 6.9-2.45-6.4-5.95-11.65m-50.85-51.2q-10.85 14.3-23.8 19.65l13.8-.75q7.5-.9 11-2.1l-7.45 3.6-11.3 1.25-9.95-.4q-.95-.1-1-.75-.1-.6.75-.9 5.2-1.95 11.8-6.9 7-5.3 12.65-11.85 14.1-16.6 10.6-30.2-.35-1.35.25-1.55t1 1.15q4.1 13.35-8.35 29.75"/><path fill="#0d131a" d="M245.5 462.5q-7.8 3.1-20.3 4.3-11.25 1.05-18.4.1-1.05-.15-1-.75.05-.55.95-.85 6.95-2.1 14.7-5.75 7.65-3.65 13.5-7.6 1.15-.8 1.5-.25.35.5-.75 1.35-10.9 8.65-23.3 12.25 10.35.15 22.3-2.1 12.45-2.35 16.9-5.6z"/><path fill="#0d131a" d="M305.45 436.6q-7.3 10.9-27.8 20.7-21.9 10.45-41.45 10.6-1.05.05-1.1-.55-.05-.55.85-1 13.75-6.35 20.6-14.55 1-1.15 1.45-.8.5.35-.35 1.6-2.8 3.9-7.6 7.55-4.6 3.55-9.6 5.8 18.4-1.5 38.55-11.85 19.25-9.9 25.4-19.95z"/><path fill="#0d131a" d="M293.85 312.3q-13.9 10.7-23.7 29.85-9.3 18.15-8.3 29.9 1.05 11.7 12.65 26.9 10.75 14.1 20.85 19.4 3.9 1.95 6.15 6.65 2.7 5.55 5.45 12.45 3.1 7.7 4.25 12.1 1.9 7.15 1.6 12.8-.35 5.65-2.8 8.6-3.75 4.65-8 12.95-4.9 9.7-5.6 15.75-.2 1.45.65 1.85.85.35 3-.45 11.45-4.15 20.55-14.25 8.1-9 11.55-19.3.4-1.3 1-1.15t.25 1.5q-2.45 10.45-11.45 20.45-9.5 10.55-21.4 14.85l-4.5.3q-2.05-.85-1.7-3.85.7-6.25 5.75-16.35 4.4-8.8 8.2-13.45 2.2-2.65 2.35-7.85.15-5.1-1.65-11.9-1.15-4.45-4.05-11.9-2.8-7.15-5.3-12.25-1.15-2.35-2.45-3.7-1.05-1.05-2.9-2.05-10.5-5.55-21.75-19.85-12.35-15.75-13.45-28-1-12 9.15-31.15 10.7-20.05 24.8-29.95 1.35-.9 1.7-.4.4.5-.9 1.5"/><path fill="#0d131a" d="m285.2 508.2-2.6-.3q2.65-3.35 6.75-7.55t7.45-7.1l-.85 3.8q-7 6.4-10.75 11.15m26.05 8.15q2.8 1.8 4.2 4.65 1.5 3 .65 5.7-.9 3.1-4.7 4.9-5.45 2.6-18.9 5.2-14.25 2.7-24.15 2.75-1.1 0-1.3-.45-.25-.45.35-1.2 5.5-7 18.45-14.8 12.7-7.6 19.65-8.35 2.9-.3 5.75 1.6m1.5 5.8q-2.25-4.95-7.05-4.8-5.5.15-17.4 6.85-12.2 6.9-17.95 13.4 10-.45 22.85-3.15 12.4-2.55 17.1-4.95 4.75-2.35 2.45-7.35"/><path fill="#0d131a" d="M287.7 511.5q-10.25 4.6-21.85 12.55-12.4 8.5-17.7 15.1 5.15.15 12.25-1.45 7.1-1.65 12.4-4.2l-3.5 3.8q-5.85 2.5-13.35 3.45l-9.95.3q-1.75-.25-.65-1.65 6.05-7.65 18.45-16.5 11.9-8.5 23.05-13.5 4.35-1.95 9.2-.1 4.9 1.9 7.65 6.75l-2.85 1q-2.35-4.25-6.3-5.7-3.6-1.3-6.85.15"/><path fill="#0d131a" d="M287.4 511.05q-2.95-4.05-11.95.75-7.1 3.75-13.05 9.35-6.4 5.95-7.55 10.5l-2.3 1.55q.5-5.65 7.35-12.7 6.4-6.5 14.65-10.75 5.65-2.85 9.8-2.75 3.9.1 5.5 2.75zm85.85-125.75q-2.15 12.15-9.15 18.2-4.1 3.55-6.4 6.55-2.9 3.8-5.15 9.3-2.55 6.25-2.5 17.15.1 10.85 2.7 15.7 2.2 4.05.5 9.5-1.65 5.5-6.85 11.25-3.5 3.9-3.3 10.45.25 6.75 4.35 9.55 6.3 4.2 11.35 8.7 1.4 1.25 1.8 2.85.45 1.7-.3 3.35-.6 1.4-2.3 3.2l-3.45 2.8q-2.65 1.6-5.05.1l-5.55-3.1-3.95-.1q-2.35 1.9-6.05 7-3.5 4.8-4.75 7.55-1.6 3.65-6.85 3.75-4.95.1-12.45 2.5l2.55-2.75q2.55-.85 5.45-1.5l4.35-.6q3.5 0 4.55-2.45 1.1-2.55 5.25-7.7 4.15-5.1 6.85-7.35 1-.85 2.55-.95 1.7-.1 3.4.8l2.75 1.4 2.75 1.6q.75.5 1.5.45.65 0 1.65-.6 1.55-.95 2.85-2.3 1.35-1.35 1.9-2.6.95-2.15-.8-3.75-5-4.45-11.05-8.55-4.9-3.3-5.55-10.55-.7-7.4 3.75-12.35 4.85-5.35 6.45-10.25t-.35-8.45q-2.85-5.25-2.9-16.95-.05-11.35 2.45-17.45 2.35-5.75 5.35-9.8 2.55-3.45 6.65-7 6.55-5.65 8.85-17.45 1.75-9 .75-18.45-.15-1.4.45-1.55.55-.1.85 1.3 1.9 9.5.1 19.55m-59 41.4q8.75-6.9 14.65-14.85.8-1.05 1.25-.75.5.3-.15 1.45-2.15 4-6.65 8.45-4 3.9-8.25 6.7-1.3.9-1.7.45-.45-.45.85-1.45m18.15 16.7q1.95 7.4 2.2 12.55.1 1.35-.5 1.4t-.8-1.25q-.8-5.2-2.65-12.35-1.85-7-4.15-13.4-.5-1.45.1-1.65.55-.2 1.15 1.2 2.7 6.1 4.65 13.5M231.7 340q5.25 7.05 13.8 14.55 8.8 7.7 15.45 10.95l-.45 2.1q-7.6-3.6-16.2-11.3t-13.7-15.55q-.85-1.3-.35-1.65t1.45.9m-.65 41.8q9.25 9.85 25.3 19.05 17 9.75 28.55 10.85l2.3 2.3q-13.15-.5-31-10.7-16.8-9.55-26.1-20.65-.95-1.1-.5-1.55.45-.4 1.45.7m70.8 46.5-20.7.9q-13.95-.65-24.3-4.1-1.55-.5-1.4-1.1.2-.6 1.75-.15 9.95 2.6 22.15 3.3l21.6-.9zm23.1-233q-12.1 7.65-23.25 20.05-9.25 10.35-12.1 16.8-5 11.5-14.65 15.35-4.2 1.65-8.4 7.35-4.2 5.75-6.15 12.45-.4 1.55-.95 1.45-.5-.1-.3-1.7 1-7.05 5.55-13.55 4.45-6.35 9.45-8.3 4.1-1.65 7.7-5.6 3.3-3.65 5.4-8.5 2.85-6.5 12.65-17.35 11.6-12.85 23.9-20.6 13.05-8.2 26-7.65 9.6.45 32.55-8.3 19.85-7.6 29.8-13.65 18.65-11.3 38.7-22.5l2.4 1.65q-20.1 11.15-39.6 23.1-10.05 6.2-30.5 13.9-23.4 8.8-33.35 8.4-12.5-.55-24.85 7.2"/><path fill="#0d131a" d="M281.45 293.1q2.35 4 7 6.8t12.3 4.8l-1 2.45q-15.35-4.05-20.5-12.75-3.6-6.1-8.8-16.45-5.4-10.85-8.05-17.5l1.4-2.55q2.5 6.6 8.3 18.05 5.35 10.5 9.35 17.15"/><path fill="#0d131a" d="M328.75 286.75q-3.3 12.05-7.05 21.55l-2.75 3.65q3.35-10 6.65-21.95 4.55-16.65 6.05-26.85-9.9 6.65-20.2 23.05-10.3 16.3-14.75 32.45-.5 1.75-1.05 1.65-.6-.15-.2-2 3.75-17.3 14.7-34.45 11-17.2 22.2-23.25 1.6-.9 1.4.85-1 10.6-5 25.3"/><path fill="#0d131a" d="M399.25 246.15q-5.65 12.75-21.75 35.45-16.95 24-28.1 33.85-1.15 1-1.6.6-.5-.45.65-1.55 9.25-8.95 25.5-31.9 15.2-21.45 22.4-34.8-17.7 8.1-39.8 25.95-24.8 20.05-36.55 38.35-.9 1.45-1.45 1.1t.35-1.8q12.55-20.75 37.7-41 22.9-18.4 41.55-25.35 2-.75 1.1 1.1"/><path fill="#0d131a" d="M433.6 258.9q-6.8 12.75-29.7 36-22.3 22.55-35.9 31.15-1.4.9-1.8.4t1.05-1.5q11.5-7.9 33.2-30 21.65-22.1 30.3-34.8-13.65 5.45-35.95 19.1-22.5 13.75-36.75 25.45l3.1-4.1q15.35-13 36.3-25.55 20.65-12.45 35.15-17.5 1-.35 1.25 0 .25.4-.25 1.35"/><path fill="#0d131a" d="M375.15 319.65q9.5-4.3 21.95-7.15 10.8-2.5 19.5-3 .75 0 .9.4.2.45-.35 1-8.15 9-22.3 18.35-14.3 9.45-31.6 17.25-1.7.75-2 .25-.35-.55 1.4-1.45 16.45-8 29.85-16.8 13.3-8.75 21.85-17.15-8.35.8-19.85 3.75-13.55 3.45-23.35 8.1z"/><path fill="#0d131a" d="M367.25 351.65q-2.2-3.9-4.15-5.85l1.65-.85q2.1 2.05 4.15 5.95 2.1 4 2.6 6.95.25 1.4-.35 1.5-.55.05-.95-1.3-.9-2.85-2.95-6.4m1.55-8.65 6.2 7.25 5.75 5.8q3.2 2.75 8.15 3.95 5.3 1.2 10.85.15 21.75-4.25 43.95-7.2 22.3-3 35.65-3.45 8-.25 19.4-2.05l19.95-3.75q17.6-3.65 34.9-5.25 21.5-2 35.65 0 1.85.2.35 1.4-3.65 3.05-8.15 5.7-5.55 3.25-10.75 4.8l-4-.05q5.15-1.4 11.4-4.8 5.15-2.8 8.85-5.7-14.9-1.2-34.9.8-16.55 1.65-33.05 5.05l-20.05 3.95q-11.65 2.05-19.5 2.3-13.3.4-35.5 3.35-22 2.95-43.75 7.15-5.75 1.15-11.5-.1-5.75-1.3-9.4-4.5l-6.15-6.1q-4.05-4.3-6.6-7.55z"/><path fill="#0d131a" d="m373.45 350.45 22.8-3.65q13.35-2.5 20.5-4.4 15.7-4.1 31.35-7.7 18.7-4.25 25.5-4.95 15.65-1.55 24.25-5.05 8.6-3.55 22.35-5.5 13.6-1.9 21.75-.85 2.1.25.25 1.55-6.75 4.9-17.05 7.85l-1.65-.15q-.25-.55 1.2-1.1 7.95-2.85 14.2-6.7-8.05-.3-20.05 1.6-12.7 2.05-20.35 5.2-5.45 2.2-13.7 3.85l-11.05 1.65q-6.85.7-25.4 4.75-16.25 3.55-31.3 7.4-8.7 2.2-20.35 4.5-12.35 2.4-21.45 3.55z"/><path fill="#0d131a" d="M563.75 338.75q2.75-2.3 6.4-4.35 4.15-2.4 7.9-3.5-3.75.4-8.1-.2-4.5-.65-8.6-2.25-5.2-2.05-15.35-2.55l-18.6.55 4.7-2.25q8.55-.85 16.85-.15 8.45.7 13.2 2.65 9 3.65 19.45 2.7 1.2-.1 1.25.45.1.6-1.05 1-8.85 3.4-15.05 7.9zm93.1 26q-15.7 3.6-44.7 13.45-7.85 2.7-17.3 5.35-10.65 3-15.9 3.85l-4.3-1q5.4-1.05 17.45-4.5 11.5-3.25 19.35-5.95 27.95-9.45 41.7-12.2Q631.5 357.6 607 354q-31.4-4.6-50.8-1.9-2.25.35-2.35-.25t2.1-1.05q18.15-3.7 52.15 1.05 30.85 4.3 48.85 11.25 1.05.4 1.1.85.05.5-1.2.8"/><path fill="#0d131a" d="m379.15 382.15 29.95 1.9 27.25 2.95 22.5 2q16.1 1 23.15.05 5.1-.7 11.95-.2 7.8.55 12.55 2.5 4.7 1.95 37.05 2.2 28.25.15 51.4-.85-14.7-4.75-24.95-6.1-1.5-.2-1.45-.85.05-.6 1.6-.5 6.35.45 14.25 2.45 7.45 1.9 14.15 4.6 1.25.5 1.1 1.05-.2.45-1.35.55l-49.25 1.6q-37.1.15-43.1-2.3-4.15-1.7-11.75-2.25-7.1-.55-12.1.15-7.75 1.05-25 0l-20.95-1.85L407.8 386l-28.7-2.55q-1.7-.05-1.7-.7.05-.65 1.75-.6"/><path fill="#0d131a" d="M384.45 383.2q1.7 5.55.05 13.6-1.7 8.35-5.6 11.8h-3.1q4.15-2.6 6.25-11.4 2.05-8.7.1-14.2z"/><path fill="#0d131a" d="M574.35 451.5q-38.2-4.4-102.75-15.3-58.05-9.85-78.1-14.55-13.4-3.15-24.4-2.85-10.85.3-18.3 3.95l.15-2.85q7.5-3.4 18.85-3.45 11.05 0 24.6 3.15 17.55 4.15 75.75 14.05 60.45 10.3 101.3 15.85-16.4-9.8-92.55-24.05-50.8-9.55-91.85-15.1l-18.5-.55q-9.15.9-14.55 4.4l.6-2.8q5.6-3.15 14.65-3.8l18 .75q46.05 6.2 95.55 15.55 78.75 14.9 92.1 25.75 1.1.95 1 1.45-.1.55-1.55.4m80.75-169.1q-4.2 1.65-8.2 4.8-3.8 3-6 6.2-2.95 4.25-9.7 7.7-1.3.65-1.8 1.65-.55 1.05-.55 3.15l.25 7.6q.3 5.4.75 7.9.8 4.05 5.8 10.5 3.9 5 8.8 9.7 1.65 1.55 1.45 3.45-.15 1.65-1.4 2.7-2.35 1.95-4.1 4.9-1.7 2.85-2.55 6.05l-2.45-.6q2.2-7 6.95-11.3 2.25-2.1.65-3.65-13.75-13.35-15.2-21-.5-2.5-.8-8.45l-.2-8.15q0-2.5.75-3.85.7-1.35 2.5-2.25 7.1-3.65 9.45-7.05 2.05-2.95 5.45-5.7 3.4-2.8 7.5-4.85l-6.45-.25q-1.3.1-1.35-.5-.1-.6 1.15-.8 4.85-.75 9.15.55.9.25.95.75.05.45-.8.8"/><path fill="#0d131a" d="M649.55 280.8h-2.35q2.7-4.05 8.6-8.85 5.9-4.75 11.8-7.7-17.9 2.1-39.95 11.15-21.25 8.8-27.95 16.25-7.65 8.45 2.95 24.85 3.2 5.05 2.3 9.85-1.1 5.45-7.35 8.4l-4.7 1.65-4.2.7q-5.45.2-7.8 1.7l-3.15-.4q1.25-1.4 4.5-2.4 2.9-.9 5.85-1l4.45-.75q2.7-.7 4.1-1.4 4.65-2.1 6.05-6.5 1.4-4.5-1.5-8.75-4.3-6.4-5.85-12.7-2.15-9.05 2.8-14.55 7.4-8.15 30.6-17.4 24.55-9.8 42.65-10.5 1.2-.05 1.3.35.15.45-.95.95-5.4 2.35-12.05 7.4-6.95 5.3-10.15 9.65M366 524.75q-6.3-5.55-13.85-10.7l1.9-1.15q6.4 4.55 11.15 9.1-1.7-7.25-5.65-14.6l.55-3.35q2.55 3.8 4.6 9.75 1.9 5.5 2.6 10.3.1.85-.25 1.05-.4.2-1.05-.4M238.85 231q-1.75-1.55-8.05-8.9l1.45-1.7q5.75 6.9 8 8.9zm50.7-142.55q-8.5 7.7-15.05 17.1 6.6-2 15.05-6.7 9.55-5.3 13.55-10l2.4.05q-4.35 6-15.6 11.95-10.1 5.35-16.9 6.45-1.5.3-.65-1 7.8-12.3 16.15-19.5z"/><path fill="#d2e5f6" d="M326.2 72.05q2.75-.55 4.75 1.05 1.8 1.45 1.7 3.75t-2 5.1q-1.45 2.1-9.75 8.6-7.8 6.2-12.15 8.9.5-3.65 3.65-10.05 2.35-4.85 5.1-9.2-5.25 3.65-28.85 13 7.05-8.45 9.05-10.35-4.45 1.5-13.25 2.6l-12.4.7q4.65-6.6 16.6-11.3 12.55-4.9 18.8-1.5 1.75-1.7 3.8-2.7 2-.95 3.8-.95 2.2 0 3.8 1.15 2.1 1.5 2.45 4.75 1.85-3 4.9-3.55m69.6 267.8q7.6-2 11.95-2.6 13.15-1.9 24.65 11.75 10.9 13 11 27.75.15 17.75-5 30.55-4.95 12.25-14.15 18.65-5.85 4-14.85 3.8L395.3 428q-8.75-1.6-11.7-2.85-4.35-1.8-5.8-2.85-2.9-2-2.75-4.7l7.85.75q.9 1.8 4.25 2.1 3.75.35 7.55-2 9.9-6.2 14.45-17.25 4.35-10.5 2.75-22.6-1.3-9.9-4.45-17.15-4-9.15-10.35-12.4-2.75-1.4-6.15-1.4-3.95.05-5.8 2.25l-6.45.8q.6-2.15 2.05-4.1 1.7-2.3 4-3.3 3.3-1.45 11.05-3.45"/><path fill="#d2e5f6" d="M446.65 329.35q10.55-1.95 17.25-2.5 3.55-.35 8.1.75 3.4.8 6 1.95 13.2 6.1 21.4 20.35 8.3 14.5 8.3 32.15 0 13.6-4.4 25.7-5.3 14.45-16.55 25.85-4.05 4.15-8.6 5.8-4.6 1.65-10.85 1.15l-11.75-1.35-13-2.15q-5.1-1.1-7.95-3.75-2.5-2.35-2.65-5.15l7.7 1.2q1.5 1.45 5.45 1.3 3.65-.15 5.45-1.3 12.95-8.25 19.4-22.55 5.55-12.35 5.25-26.6-.35-15.95-8.8-27.15-7.9-10.5-21-14.55-4.45-1.35-8.85-.75-3.9.55-5.75 2.25l-4.1.75q.2-3.8 1.35-5.6 1-1.55 3.15-2.3 4.7-1.55 15.45-3.5"/><path fill="#b5c6d5" d="M330.9 81.55q-2.95 3.15-9.2 8.45-7.65 6.45-12.55 9.25 1.9-3.35 11.35-13.25 7.75-8.15 11.5-11.5 2.2 3.5-1.1 7.05M289.1 93q4.8-3.6 15.65-10.65 9.95-6.4 15.65-9.75l.75 2.45-2.9 4.6q-4 2.3-14.15 6.95-10.35 4.75-15 6.4m-3.85-7.7q-8.8 1.3-12.6.8 6.7-4.15 16.2-6.9 9.75-2.8 14.4-1.75L298 82.8q-5.15 1.4-12.75 2.5m158.7 295.2q-.8 14.4-4.85 25.4-5.05 13.65-14.5 19.55-4.25 2.65-7.2 3.6-3.45 1.05-7.95.75l-14.1-1.95q-9.55-1.65-12.55-2.85-3.9-1.55-5.55-2.8-2.45-1.9-2.55-4.65l8.1.9q.5 1.8 4.15 2.1 3.85.35 7.1-1.65 9.95-6.1 14.85-17.1 4.85-11 2.95-22.95l15.95 1.2zm63.85 3.1q-1.05 17-7.5 31.15-6.3 13.7-15.75 20.65-4.35 3.2-7.7 4.45-4.45 1.65-9.35.95l-13.25-1.8-11.3-1.7q-4.4-.85-7.35-2.9-3.9-2.7-3.45-6.7l6.45 1.3q1.85 1.8 5.85 1.8 4.3-.05 7.7-2.4 11.8-8.2 17.1-19.8 4.9-10.6 5.25-26.2l16.5.6z"/><path fill="#b5c6d5" d="M442.55 391.5q-1 8-2.5 12.15-14.35-2.45-29.95-5.7 1.45-2.9 1.8-9.45l14.95 1.5zm63.85 4.3q-2.3 11.25-4.65 16.4L470 406.3l2.35-6.45q1.05-3.45 1.4-6.75z"/><path fill="#0d131a" d="M330.65 83.25q-8.4 8.4-21.8 17.1-.65.5-1 .25-.3-.25-.1-1.1 1.55-6.25 5.25-13.1 3.65-6.85 8.55-12.6 2.35-2.8 5.35-2.95 2.7-.2 4.7 1.7t1.95 4.7q-.1 3.15-2.9 6m-3.75-10.4q-2.2.15-4 2.3-4 4.75-7.8 11.3-3.85 6.7-5.5 11.75Q320 91 329.55 81.8q2.1-2.05 2.2-4.3.05-2.05-1.4-3.45t-3.45-1.2"/><path fill="#0d131a" d="M310.75 72.2q-3.9 3.2-9.1 8.15-6.35 6.05-10.85 11.3 6.85-2.6 15.6-6.8 9.2-4.35 12.9-6.9l-1.7 3.1q-4.85 2.9-13.55 6.75-8.45 3.75-15.15 6l-1.05-.1q-.25-.4.35-1.15 4.8-6 11.5-12.7 5.85-5.9 9.85-9.15 3.8-3.1 7.85-1.75 4.1 1.4 4.45 5.85l-1.7 2.05q.1-4.15-3.05-5.7t-6.35 1.05"/><path fill="#0d131a" d="M271.55 85.8q5.6-7.35 17.35-12.1 12.65-5.15 19.45-1l-1.6 1.45q-5.8-3.1-16.6.95-10.2 3.8-16.6 10.55l13.15-1.35q7.9-1.25 12.05-2.55l-2.1 2.4q-4.85 1.25-12.9 2.2l-11.75.7q-.7-.05-.8-.3-.15-.3.35-.95M389.4 346.65q4-.6 7.35 1 7.9 3.85 12.25 14.1 4.25 10.15 4.25 24.75 0 10.7-5.7 20.35-5.3 9-12.75 12.85-4.1 2.1-7.65 1.95-4.15-.1-6-3.3l2.4.1q2.05 1.6 5.25 1.15 2.5-.4 5.15-1.85 6.9-3.75 11.8-12.3 5.25-9.2 5.2-19.1-.05-14.7-4.7-24.9-4.15-9.05-10.5-11.95-5.45-2.5-10.3.4l-2.6.25q2.4-2.8 6.55-3.5"/><path fill="#0d131a" d="M386.1 344.15q-5.85 2.1-6.55 6.6l-2.05.35q.95-6.4 7.85-8.95 5.2-1.9 11.65-3.55 7.15-1.85 12.1-2.4 5.55-.6 11.75 2.25 6.3 2.85 11.6 8.55 12.35 13.45 12.35 33.75 0 21.1-9.45 35.4-9.2 13.9-22.6 14.65-6.1.35-16.65-1.55-10.45-1.85-15.75-4.2-6.25-2.7-6.7-7.3l2.35.1q.35 3 5.25 5.15t14.9 4.05q10.45 1.95 16.35 1.6 12.8-.75 21.5-14.9 8.45-13.9 8.45-32.9 0-18.9-11.8-32.05-4.9-5.5-10.75-8.4-5.7-2.8-10.5-2.25-4.8.5-11.85 2.4-6.15 1.6-11.45 3.6"/><path fill="#0d131a" d="M447.95 330.15q-12.2 2.25-17.3 3.95-1.45.55-2.15 2.05t-.95 4.55l-1.95.5q.05-3.5.9-5.55 1.05-2.6 3.55-3.45 5-1.75 17.55-3.95 13.2-2.3 18.75-2.2 14.75.25 27.3 14.35 13.4 15 14.7 36.1 1.05 15.95-3.9 31.1-5.1 15.45-14.7 24.8-5.45 5.3-10.55 7.55-5.3 2.35-11.1 1.85-13.25-1.2-26.2-3.9-4.55-.9-7.55-3.25-3.6-2.8-3.25-6.55l2 .1q-.15 2.85 3.25 5.15 2.7 1.85 6 2.45 12.5 2.5 25.95 3.75 5.4.5 10.25-1.7 4.4-2 9.3-6.8 9.45-9.15 14.45-24 4.95-14.65 3.95-30.25-1.25-20.05-13.95-34.75-12.1-13.95-26-14.2-5.4-.05-18.35 2.3"/><path fill="#0d131a" d="m432.25 339.5-3.4.65q2.25-3.4 9.7-3.4 7.9 0 15.8 4.25 9.3 4.95 14.9 14.2 6.7 11 7 26.5.25 12.55-4.45 24.1-4.2 10.2-11.3 17.5-6.7 6.8-13.25 8.45-6.8 1.75-10.4-2.9l4.95.75q3.55 1.35 9-1.7 5.55-3.1 10.6-9.5 12.55-15.8 12.2-36.85-.3-21.4-13.7-33.7-5.9-5.45-13.2-7.65t-14.45-.7m-35.55 9.25-21.45 3.55-1.8-1.85 20.05-3.15z"/><path fill="#0d131a" d="m442.2 338.2-16.8 3.95-2.05-1.45 13.75-3.4zm-52.4 82.65q-12.2-2.5-22.2-2-9.9.5-16.8 3.9l.15-2.85q7.3-3.3 18.25-3.4 10.7-.1 23.75 2.8zm34.75 4.75 24.1 4.35-3.85 1.6-22.75-4.15z"/></svg>