<svg xmlns="http://www.w3.org/2000/svg" width="301" height="403" viewBox="-0.45 -1.85 300.6 403.3"><path fill="#fff" d="M193.15 198q1.2-3 5.6-3.6l7.6-.55 6.25.3q1.4.8 3.95 5.1l5.05-2.1q1.75-.8 3.2 0 1.3.75 1.95 2.6.4 1.15 2.75 2 2 .75 3.5.75 2.2 0 3.05 2.1.6 1.65.45 4.95-.05 2.2 2.25 3.25l4.45.1 5.9-2.75q4.85-2.4 7.75-4 5.3-3 9.2-.25 5.15 3.6 15.15 15.8 1.25 1.45 1.25 4.85l-.35 5.2q-.2 2.1 1.75 4 2 2.05 4.6 2.1 3.9.05 6.75 2 2.65 1.85 2.95 4.15.8 6.6.4 24.35-.1 2.15-.65 3.2-.7 1.25-2.4 2.1-3 1.5-5.3 3.3.1 2.1-.55 5.4-.7 3.45-1.75 6-.9 2.1-6.45 7.8-2.95 3.05-1.7 6.85.75 2.35.45 3.5-.35 1.25-2.2 2.65-2.8 2.35-26.8 18.6l1.65 6.45 1.2 6.55q4.1-.5 5.55 1.7.7 1.2.5 4.55l-.65 4.85q-.25 1.4-1.9 3.8l-3 3.75q5.3 5.85 7.3 9.4l7.2-1q1.2-.05 2 .65t1 1.8q.25 1.4.1 7.5-.05 1.65-.55 2.55-.55 1.05-2.05 2.15-1.95 1.25-3.85 3.2-2.15 2.25-2.05 3.4.1 1.65 6.65 4.7 1.05.55 1.25 1.35.2.65-.3 1.2l-.8 1.1q-.45.75-.6 1.65-.15.95-1 1.45l-1.4.35-4.5-.2q-1.3 0-2.45-1-.95-.95-1.6-2.3l-1.95-4.55q-1.4-2.75-2.9-4.35-2.1-2.1-1-4.6 2.25-4.3 2.2-7.2-.05-1.95-3.5-5.55-3.45-3.45-4.7-3.3-1.5.2-4.55 2.6-3.2 2.55-4 2.75-1 .3-5.9-3.15-5-3.55-5.3-5.05-.15-.85 1.95-4 1.95-2.8 3.9-5.05l-3.55-4.5-3.6-3.65q-.65-.45-2.6-.65l-3.9.3-4.35.5q-2.75-.25-4.95-1.5-1.4-.85-5.9-4.9l-7.9-7.2q-2 1.05-3.55 2.9-1.35 1.55-4.65 3.65-3.6 2.15-6.35 3.1-3.7 1.15-6.8.7-3-.45-4.6-2.2l-2.7-3.1q-1.95-2.15-3.15-2.8-1.5-.85-4.2-1.2-2.7-.3-3.75.35-.4.25-2.15 3.15-1.75 2.8-3.5 3.6l-4.4-.1q-2.35-.6-4.7-1.85-3.45-1.75-8.5-1.35-.65.05-1.75-1.6l-1.9-3.05-8.85-1q-4.95-.3-9.15-.1-2.25.1-5-1.75l-4.4-3.35q-3.75-3-7.8-.55-1.5.9-3.6.95l-3.4-.5q-2.95-1.05-8.95-4.5-6.55-3.85-9.3-6.4-.45-.4-1-5.3-.55-4.75-1.65-5.4-1.05-.7-5.25.05l-5.7 1.1q-.9.05-6.9-4.7-5.7-4.5-7.4-6.3-1.2-1.3-3.9-10.8-2.45-8.6-2.7-11-.15-1.55.95-4.25.65-1.65 2.35-4.8 2.05-3.7-.35-8.8-3.05-6.45-1-12.35l95.7-34.55 5.95-1.4q2.7-.4 3.85 0l2.25 1.55 2.15 2.5q1.85 2.6 3.65 2.65l6.1-.7q1.4-.2 2.3-.95.85-.6 1.7-1.95.8-1.3 1.95-1.95t3.35-.85l7.95-.4q3.4 0 4.45 2.55.55 1.35 1.45 1.8l2.2.2q6.3-1.3 7.8-5.4 2.05-6.1 3.6-9.85m57-190.9 18.35-.95q3.15.05 6.2 8.55 2.85 7.95 4 18.75 1.4 12.5.85 19.05-.65 7.35-3.8 9-3.2 1.75-19.2 7.7-15.05 5.55-22.85 8.1l-101.25 3.85q-6.5-2-17.75-6.45-10.6-4.1-13.7-5.8-4.8-2.55-6.65-7.4-3.6-9.55-.6-23.5 2.7-12.4 8.75-21.5 2.15-3.15 6.9-3.45 5.1-.25 37.6-.25 13.65-10.2 32.3-11.75 17.85-1.4 31.05 5.55 4.4 2.2 9.05 2.7l10.85-.45z"/><path fill="#e39a5a" d="M212.85 34.3q5.5-4.15 12.45-7.05 8-3.4 10.25-1.35 2.45 2.25-2.25 11.85-4.4 9-9.25 13.6l1.9 7.35q5.55 5.9 6.9 13.55 1.1 6-.45 12.35 7.3.45 13.2 3.7 7.8 4.25 12.7 13 4.55 8.1-1.05 22.75-5.85 15.15-17.2 21.55-2.95 4.6-8.8 12.2l-10.1 12.5q-4.9 5.5-6.85 10.1-2.25 5.3-2.7 13.6-2.55-.15-6.35 0l-6.5.4q-3.8.35-5.25 3.3-1.85 3.7-3.95 10.15-.65 2.1-3.45 3.6-1.95.95-4.5 1.5-1.5.4-2.45-.45-.55-.45-1.1-1.65-.35-.85-1.5-1.4-1-.55-2.15-.55-6.2-.3-8.25-.1-1.45.15-3.15.9-1.7.7-2.15 1.35l-1.2 1.65q-1.05 1.25-2.25 1.8-1.4.65-4.4.65l-4.35-.45q-1.15-.35-2.4-1.95l-1.95-2.65q-1.6-1.9-6.35-1.4.3-3.45.05-11.8-.25-8-.65-11.2-.6-4.8-5.7-11.35-2.65 1.7-8.45 2.5l-9.45.35q-4.15-.4-10.7-4.3-7.8-4.7-8.95-9.7-1.6-6.65 2.1-18 3.8-11.9 10.05-17.55l1.6-1.65q.65-.9.8-2.3 1-9.75 10.25-18.35 9.55-8.9 19.55-8.1-5.65-4.6-6.2-11.2-.45-5.3 1.2-11.15 1.85-6.15 5-8.6l.95-9.8q-3.5-3.2-7.2-11.5-3.75-8.4-2.15-9.45 2.05-1.35 9.35.8 6.8 2.05 11.9 5.1 2-9.15 9.9-16.15 9.75-8.7 23.8-8.35 9.75.2 18.1 5.85 7.45 5.05 9.75 11.5"/><path fill="#fff" d="M177.15 45.75q.55-1.6 1.75-1.6 1.25-.05 1.7 1.5l1.05 2.2 1.7 2.45q3.25 3.75 9.8 3.8 6.75.05 9.1-4.35l28.8 2.5q-2.3 5.35-12.2 13.55-8.8 7.35-14.05 9.7 1.65-4.2 2.25-13.45-2.85 4.35-12.15 13.3 1.2-3.65 1.45-9.65.15-5.55-.45-6.55-.45-.7-4.5-1-3.7-.3-4.65 0-.45.15-3.4 3.15-2.95 2.95-3.3 2.95-.45 0-3.05-2.2l-3.65-2.95q-1-.75-4.6.05-3.25.75-4.15 1.6-.7.6.35 6.25.85 4.6 2.1 9.1l-7-5.65-7.45-6.7q1.15 4.25 1.8 12.75-6.5-1.6-12.7-7.15-5.8-5.1-8.65-10.9 7.15-2.4 25.65-5.35 2.3 2.9 6.95 2.45 4.35-.45 8.75-3.6 1.25-1.65 2.75-6.2"/><path fill="#f8d154" d="M169.15 43.85q4.55 1.8 7.95 2.15-.7 2.55-2.85 5.95-3.9 3.15-8.45 3.5-4.65.4-7.1-2.35-2.65-3.05-1.9-6.95.9-4.25 5.65-6.15 1.8 1.9 6.7 3.85m11.9 2.4q3.05.15 6.55-2.25l10.5-6.6q5.25 1.9 5.55 6.8.25 4.5-3.1 7.4-3 2.6-7.8 2.3t-9.2-3.3q-1.25-1.55-2.5-4.35"/><path fill="#fff" d="M166.15 46.8q2.4-.25 2.5 2.05.05 1.05-.7 1.85-.7.7-1.65.7-.85 0-1.55-.6-.75-.65-.8-1.6t.55-1.6q.6-.7 1.65-.8m27.25-1.3q1.9.1 2.05 2.05.05 1-.6 1.6t-1.65.7q-1 .05-1.6-.6-.6-.6-.6-1.6 0-1.05.7-1.6.65-.6 1.7-.55"/><path fill="#6f6453" d="M95.65 30.05Q91.8 40.45 91.9 48.5q.1 5.7 2.6 13.4Q78.85 67 66.85 87.7 55.8 106.75 56.2 122.25q3.4.35 6.4 1.4 2.8 1.05 3.75 2.15 2.45 2.9 5.9 11.7 3.55 8.75 4.3 13.9.9 6.1-.35 10.85-1.7 6.3-7.55 12.95 3.4 7 9.8 14.65 5.6 6.7 11.5 11.55 11.05-7.85 15.4-9.9 4.6-2.1 16 5.05 11.35 7.1 11.35 12.1l-1.4 13.3q-1.3 11.35-1 12.45.8 3.1 10.25 8.4 9.2 5.15 11.7 4.6.9-.2 9.7-9.45L173.5 226q2.1-1.95 8.05-2.25 5.85-.25 12.5 1.2 16.5 3.7 18.6 12.5.85 3.45-3.75 15.5-3.9 10.1-6.7 14.85-3 5.15-.15 15.2.85 2.85 3.25 6.5l5.95 8.55q2.9 4.15.95 10.6-1.8 6.05-7.05 11.55-5.45 5.8-12.15 8.3-7.45 2.8-14.3.55-4.55-1.5-11.35-7.6l-10.5-10.4q-5.3-.85-15.55-4.75-9.2-3.45-15.3-6.6-.8.9-5 2.95l-5.65 2.7q-1.55.8-3.45.85-1.75 0-3.15-.6-5.2-2.25-11.45-5.95-7.55-4.45-11.75-8.45-2.5-2.4-1.7-7.45.85-5.4.8-12.15-8.1-6.25-27.7-26.1l-7.8 1-8.85-.4q-4.55-.75-11.55-8.95-7.35-8.6-7.35-14.6 0-2.15 2.65-7.85 2.15-4.6 4.6-8.6-4.95-8.5-10.2-23.1-5.4-15-7.75-27.15-1.85-.55-3.6-2.15-1.85-1.6-3-3.7-1.55-2.7-2.35-16.35-.8-13.25.15-15.65.6-1.45 2.6-3.05 1.8-1.45 4.2-2.5 2.1-14.3 8.95-28.45 7.1-14.75 18.05-26.3Q61 30.75 95.65 30.05"/><path fill="#bf899d" d="m77.7 68.2-3.35 3.6Q72.2 74.2 71 76.35q-1.45 2.5-4.15 4.8-2.6 2.2-5.1 3.1-2.9 1-6.45-.4-3.9-1.6-3.7-4.7.3-3.75 7.6-10.85 7.35-7.15 13.25-9.45 4.45-1.75 6.2 2.45 1.6 4.05-.95 6.9m-10.55 58.9q2.15 3 5.7 12.45 3.5 9.35 3.5 11.9.05 5.85-5.55 6.35-5.25.45-8.4-3.1-2.25-2.6-5.65-11.3-3.1-7.95-3.85-12.05-.4-2.3 1-4.45 1.35-1.95 3.75-2.85 5.75-2.25 9.5 3.05m35 66.55 2.9-1.95 6.2.15q4.9 1.3 10.4 4.8 4.8 3.05 8.15 6.8 3.75 4.2 2.7 6.4-1.35 2.8-4.6 3.75l-5.8-.25q-2.6-1.05-8.65-4.55-5.9-3.45-8.05-5.15-3.35-2.7-3.25-10m107.6 38.5q2.5 2 2.8 6 .2 3.05-.8 6.05-3.7 3.8-13.1 6.35-9.1 2.4-15.55 1.6-2.2-.25-5.5-3.25-3-2.7-4.45-5-1.15-1.85-.7-8.05.35-5.1 1.45-10.35 7.15-3.25 18.8-.75 10.75 2.35 17.05 7.4M119.05 105q7.15-6.3 14.6-7.4 1.2 5.6-4.1 9.9-4.3 3.45-9.95 4.55-2.2.4-3.65 2.55-1.25 1.85-1.7 4.55-.3 1.55-1.15 1.65-.8.1-1.45-.9-.5-.75-1.25-2.9 1.9-6.05 8.65-12m53.65 14.1q2.5.2 2.5 1.55-.05 1.3-2.1 2.35-4.65 2.35-9.65 6.65-2.15 1.85-4.6 1.15-2.25-.6-2.6-2.35-.6-3.1 3.6-6.2 4.95-3.7 12.85-3.15m11.35 24.7q2.9-5.2 10.85-5.35 4.3-.1 7.55 2.45 3.55 2.75 3.95 7.5.5 5.35-3.1 8.9-4 3.9-11.8 4.2-9.5.4-15.25-5.45-5-5.05-6.15-13.45-.2-1.55.6-1.85t2 .75q3.75 3.45 8.15 3.85l1.95-.2q.7-.35 1.25-1.35m35.3-.2q-1-.9-1-3.8t1-3.65q1.05-.7 3.6-.25t3.45 1.65q.8 1.15.5 3-.3 1.8-1.25 2.5-.85.65-3.05.95-2.4.35-3.25-.4m2.45-23.45-7.15 1.65-7.8.45q-2.55-.15-2.9-2.85-.4-2.55 1.15-3.65 2.6-1.75 8.95-1.55 5.7.15 7.85 1.25 1.95 1 2 2.45 0 1.55-2.1 2.25m14.15-23.5q.65-7.8 8.95-8.75 8.05 4.7 11.75 10.75 3.75 6.2 3.25 14.4-2.85 5.4-11.2 6.1-7.3.6-11.45-2.15-1.4-.95-1.05-1.85.25-.8 1.2-.85 1.35-.05 3.25-1.35 2.25-1.45.15-3.55-5.35-5.55-4.85-12.75m-105.8 53.7q2.3-1.35 3.45-1.15.95.2 1.6 2.35.7 2.3-.2 3-.95.8-4 .05-3.05-.85-3.1-2-.05-.9 2.25-2.25m-4.5-11.65q1.5 1.35 1.55 2.65.1 2.4-3.8 8.05-3.8 5.4-6.05 6.45-1.35.6-3.3-.65-2.15-1.3-1.95-2.95.2-1.75 4.95-7.8 4.65-6.05 6.1-6.65 1.05-.4 2.5.9M98.8 149.6q.95 2.6 1 6.8.1 3.85-.55 7.05-.7 3.4-2.1 5.25-2.7-2.7-3.35-6.8-1.05-5.75 1.6-15.05 2.2-.45 3.4 2.75m69.6 30.9q2.4 7.45 2.9 12 .3 2.5-1.4 4.35-1.55 1.7-4 2.2-2.4.55-4.35-.35-2.05-1-2.45-3.35-.6-3.9 1.75-13.3 2.35-9.2 3.75-9.3 1.25-.05 3.8 7.75"/><path fill="#505558" d="m196.45 63.3-.4 5.9q-5.1 7.35-8.55 10.6-.5-2.05-1.6-4.75-1.3-3.15-2-3.65l-4.55-.3q-3.15.4-3.8 1.05-1 1-1.1 7.9l-4.35-4.55-4.65-5.45q-.5-1.85-.85-4.75-.45-3.3 0-4.25t3.65-1.8l4.7-.4q.65.15 3.65 2.8 2.95 2.6 3.45 2.6l3.05-2.55 3.35-3.2q.85-.65 4.7-.35 3.75.3 4.75 1 .65.45.55 4.15"/><path fill="#5e5546" d="M7.85 130.45q5.1 28.4 20.55 55.3 14.25 24.75 35.95 46.2 20.4 20.05 44.75 34.6 23.55 14.2 46.8 20.8 4.6 1.25 9 4.55 4.45 3.4 7.85 8.25 3.65 5.25 8.1 5.85 3.8.5 7.4-2.3 3.2-2.5 4.6-6.3 1.35-3.95-.25-6.5-4.3-6.9-5.5-12.9t.8-10.65l3-7.8q1.1-3.7 1.2-7.5 13.65-2.15 19.6-7.5-3.6 12.65-9.2 22.45-2.35 4-2.05 6.8.7 8.4 3.05 12.75 2.05 3.85 7.25 10.55 3.6 4.7 1.85 10.9-1.65 5.8-8.35 13.25-4.45 5-12.05 7.4-7.9 2.55-13.6.25-4.4-1.8-10.35-6.65-6.35-5.15-11.3-11.2-5.65-1.15-15.6-4.85-9.6-3.55-15.3-6.55-1.55 1.15-5.3 3l-5 2.55q-1.75 1-3.35 1.1-1.75.1-4-.9-5.35-2.3-12.65-6.85-7.4-4.6-10.1-7.3-1.8-1.8-2-3.75-.1-.9.25-3.95 1-8.5.6-12.1-5.2-4.2-14.45-13.05-8.85-8.45-13.15-13.2l-9.45 1.2q-5.6.25-8.25-.75-4.5-1.55-10-7.85-5.25-6.05-5.7-9.75-.6-2.65 2.15-7.05 2.45-4.05 6.85-8.4-6.1-8.45-13-26.65-6.8-17.85-9.05-30.7-2.25-.7-4.45-3.1-2.7-2.9-3.2-6.35-.85-5.65-1.15-11.6 1.7.15 3.5-.8 2.1-1.05 2.7-2.95"/><path fill="#5e5546" d="M139.25 243.6q-6.35-2.2-15.35-7.1-9.2-4.95-13.45-8.5-1.5-1.2-1.25-2.25.25-.95 2.1-1.5 3.15-.9 6.55-4.2 3.7-3.5 4.4-6.75l5.75.15q2.95-1 4.7-3.9-.8 5.25-1.7 14.15-.9 9.85-.45 10.95.6 1.45 3.45 4.45 3.05 3.3 5.25 4.5M62.3 154.65q3.4 3.75 8.4 3.2 4.95-.5 5.9-4.9.55 5.2-.75 10.7-.5 2.1-2.5 5.25l-4.4 6.5q.65 2.35 2.55 5.7l4.1 6.8q-4.35-3.15-9.75-9.1-.95 1.15-2.15 1.25-1 .1-1.8-.6-2.35-2.15-6.35-8.4-4-6.15-5.45-9.85-1.1-2.85 1.9-2.4 2.15.3 5.6-1 3.5-1.4 4.7-3.15M84.75 47.2q5.15-1.5 8.05-1.85-.4 6.8-.3 8.75.25 3.7 2 7.8-13.4 4-25.6 22.4-12.65 19.15-12.75 37.8l-11.05-.95q-1.6-6.8-1.2-16 .4-8.85 2.35-14.15-1.65.1-1.95-1-.3-1.15 1.45-2.15 2.15-1.2 3.75-3.6 1.75-2.7 1.95-5.5.15 3.2 2.9 4.6 2.05 1 5.3.95 3-.05 6.25-2.5 2.8-2.05 4.15-4.45 1.1-1.7 3.6-4.75L77 68.75l1.7-2.1q.6-1.1.6-2.65 0-1.65-.65-4.65T77.1 54q-.65-1.9-.45-2.9.25-1 1.5-1.6 2-.9 6.6-2.3"/><path fill="#c3854e" d="M188.8 92.55q-3.3 4.6-5.5 9.25-2.75 5.85-2.9 10.15l-3.85-.2q-.35-3.05-2.1-7.5-2.3-5.85-5.7-10.15 5 5.4 10.35 4.75 4.95-.6 9.7-6.3"/><path fill="#c3854e" d="M215.4 68.45q5.15-3.5 10.75-9.7 5.1 4.95 6.65 12.85 1.35 6.85-.2 13.15-9.8-.45-18.4 6.45-8.35 6.6-8.35 14.05-4.5.65-9.2 3.4-3.95 2.25-7.1 5.45-1.4-.6-4.65-1.25l-4.5-.9q.7-5.05 2.4-8.6 14.25-1.45 25.1-12.55 11.2-11.45 7.5-22.35m-84.8 63.4-.45 1.6q-3.15-.4-7 .05-3.4.4-6 1.35 2.9-1.4 3.15-2.75.2-1.4-2.25-2.1l-13.8-.5q1.75-2.35 3.45-3.6.5-.35.95-2.3l.75-3.55q.8 4.85 5.25 5.15 4.15.3 8.9 2.5 3.95 1.8 7.05 4.15"/><path fill="#dadbdf" d="M111.95 42.2q11.7 3.15 21.1 4.8 3.05 5.55 6.35 9.5l-6.2 1.9 2.1 3.65q1.4 2.2 2.95 4-2.15 2.8-3.75 6.65-1.95 4.55-2.05 8.5-5.45-1.75-16.8-6.2-12.95-5-16.6-7.05Q94.5 65.4 93.1 55.1q-1.35-10.05 1.25-18.6 5.65 2.45 17.6 5.7m167.85 6.7q.05 10.7-3.35 12.35-3.55 1.75-20.7 8.1l-21.95 7.9q-.4-4.65-2.25-9.75-2.25-6.05-5.4-8.75 2.5-2.5 4.7-6.45l-6.9-.85q2.15-2 4.45-5.35l3.35-5.7q8.35-1.6 18.3-4.1 11.35-2.85 17.4-5.1-.75-8.6-.55-15.2.35-9.25 2.75-9.65 2.1-.3 4.9 7.85 2.75 7.85 3.75 16.2 1.5 12.25 1.5 18.5"/><path fill="#5e5546" d="M234.55 173.45q.55-.8-.35-6.45l-2.05-10.35q1.9-2.15 3.65-4.85l3.45-5.5q8.45-6.25 11.5-10.2l3.75.2q2.6.35 3.05.95 1.25 1.75 2.5 9.85 1.1 7.7.9 11.8-.05 1.15-2.9 3.2l-5.5 3.45q.8 7.35.05 23.1-.75 14.4-1.85 20.5l-4.05 2.1-3.75 1.75q-2.55 1.15-4.6-.45-2.05-1.5-1.65-4.05.85-5.35.15-7.7-.25-.85-2.75-2.05l-4.2-1.85q-1.45-.7-2.25-7.75-.7-6.55-.15-8.35.3-1.1 3.45-3.95z"/><path fill="#c3854e" d="M142.9 141.3q2.7 3 9.15 7.7l10 7.1q-6.85 5.05-19.05 12.2-12.2 7.1-15.25 7.85l-7.85 1.05q-4.8.35-6.7-.05-4.3-.8-8.75-3.35-4.05-2.3-7-5.25 1.7-2.5 2.15-6.6 3.3 2.5 7.25 4.4 3.9 1.9 6.9 2.4 3.1.5 7.25-.05 4.2-.55 7.25-1.9 4.95-2.1 9.95-4.95 6.6-3.65 7.75-5.6 3.8-6.15-3.05-14.95"/><path fill="#9b7182" d="M93.7 155.5q1.35 3 5.9 6.45-.45 4.1-2.15 6.6-3.2-3.3-3.5-5.55-.4-3.2-.25-7.5m97.05 6q-6.05.25-11.05-2.8-4.85-3-7.45-8.35 11.6 4.8 20.6 4.65 5.85-.15 13.05-2.25-1.25 3.9-5.3 6.25-4 2.25-9.85 2.5"/><path fill="#c3854e" d="M227.35 142.1q10.4-7.6 13.95-16.2-.3 6.4-1.05 9 4.6-1.55 9-6.3 4.85-5.2 7.35-12.1 1.5-1 3.15-2.55-1.05 11.85-8.9 21.95-8 10.2-19.3 13.85-7.05 7.05-18.25 13.5-12 6.85-18.4 6.65-9.85-.3-27.7-10.7-16.1-9.35-24.3-17.9-3.1-3.2-5.45-4.8-3.4-2.3-7.05-2.85 0-2.1.85-4 7.7-1.2 15.7 5.45 11.6 9.7 25.3 15.25 2.6 5.35 7.45 8.35 5 3.05 11.05 2.8 5.85-.25 9.85-2.5 4.05-2.35 5.3-6.25 11.65-3.5 21.45-10.65"/><path fill="#9b7182" d="M258.75 102.6q1.5 5.3 1 11.35-1.65 1.55-3.15 2.55 2.4-6.75 2.15-13.9"/><path fill="#c3854e" d="m231.55 149.75 7.7-3.45q-2.9 5.95-12.5 17.15-9.85 11.55-10.8 13.25-5.75 4.1-18.75 7.1-12.65 2.9-26.65 3.5-1.1-4.8-3.1-9.75t-2.85-4.9q-.8.05-2.35 4.9-1.5 4.5-2.55 9.85-15.8-.55-23.7-4.85-1.45-4.45-4.55-8.2 8.4-4.1 16.45-8.8 9.5-5.55 14.15-9.45 8.7 5.45 16.6 9.05 10.75 4.9 16.8 4.75 6.5-.25 18.45-7.05 11.25-6.5 17.65-13.1"/><path fill="#9b7182" d="M167.45 177.55q2 4.95 3.1 9.75-4.95.25-10.85.1 1.05-5.35 2.55-9.85 1.55-4.85 2.35-4.9.85-.05 2.85 4.9"/><path fill="#c3854e" d="M129.95 35.45q1.9 5.7 6.3 11.25 4.7 5.9 9.95 8.6l-6.35 1.25q-3.25-2.45-6.7-9.15-3.65-7.35-3.2-11.95m105.4-9.9q2.15 3.35-2.55 13.1-4.35 9.05-8.85 12.8l-6.45-.5q6.7-3.95 12.25-12.65 4.8-7.5 5.6-12.75"/><path fill="#dadbdf" d="M133.4 59.05q3.65 4.2 8.85 7.65 6.1 4.15 11.6 5.2l.9 4.75q-5.35-.9-11.6-5.9-6.3-5.15-9.75-11.7m33.9 17.1q-3.15-2.05-7.9-6.15-5.15-4.35-7.05-6.8 3.1 2 6.85 3.8 3.8 1.8 6.2 2.5zm27.55-.7q1-3.4 1.25-7.2 4.6-1.2 11.15-6.85-3.2 5.6-12.4 14.05m11.6-6.5q5-1.7 12.5-6.6 7.8-5.1 11.25-9.15-2.85 5-10.35 11.7-8.05 7.25-15.2 10.6l1.05-3.2zM96.95 299.5q6.6 4.05 11.45 5.9 4.2 1.65 7.05-.05l5.3-2.65q3.95-1.9 5.3-3.05 19.35 9.2 30.9 11.4 17.55 19.6 28.3 19.15 6.2-.2 12.35-3.9 5.7-3.35 9.85-8.75 4.1-5.25 5.3-10.35 1.25-5.45-1.25-8.75l-4.7-6.4q-3.55-5.25-4.65-8.8l1.5-4q.75-2.2 1.7-2.8 1.4-.8 6.4-1 5-.15 5.7.65 1.8 2.05 4.1 1.85 2.25-.2 3.6-2.35l3.75-5.4q3.15-4.05 5.35-4.25 3.85-.4 11.55-.15 9.35.3 11.9 1.6 4.45 2.2 6.5 8.35.45 1.6 5.35 1.55 4.95 0 5.45-1.7.8-2.5 3.75-5.6 2.9-3.15 4.65-3.3 4.05-.4 8.05-2.25 5.1-2.45 7-6.35l.35 9.45q-.15 4.45-2.25 5.5-4.2 2.05-6.15 3.7l-.95 7.15q-.6 3.05-1.85 4.85l-6.4 7.75q-2.5 2.8-1.5 6.3l.55 3.2q-.15 1.75-1.85 3l-13.9 9.55q-10.3 7-13.3 9.3l1.85 6.85q1.05 4.1 1.05 6.05l2.75.3q.9 3.5.45 8.6-.5 5.95-2.75 9.35l3.75 4.95 3.45 4.8 4.65-.55q1 2.1 1.9 5.8.75 3.25.75 4.5 0 3.45-3.55 7-.8.8-1.35 1.85-.7 1.1-.65 1.75.15 1.4 2.15 2.25-.25 1.1.25 3.15.5 1.85.25 2.5l-1 1.8q-.6 1.05-.6 1.9-4.3.15-5.35-3.05-.7-2.15-2.35-5.3-1.65-3.05-2.65-4.15-1.95-2.1-.95-4.45 2.4-5.55 1.8-7.65-.5-1.65-3.35-4.95-3.1-3.5-4.5-3.45-2.2.1-8.7 5.8-2.55-.9-6.9-4.2-4.45-3.35-4.55-4.4-.05-1 2.4-4.45 2.4-3.3 3.95-4.55l-4.3-5.2q-2.5-2.95-3.15-3.15l-2.75-.45-3.4.25q-6.45 1.8-10.4-1.65l-12.85-11.6q-1 .35-2.05 1.25l-2.3 2.25q-6 5.55-12.3 7l-5.75-.15q-2.8-.9-4.35-2.95-3.85-4.95-6.5-5.65l-3.6-.55-2.95.35q-.65.3-1.7 2.15l-1.75 3q-3.15 4.25-10.25.35-4.3-2.4-9.7-1.95-2.3-2.15-3.3-4.7l-9.3-.85-7.6-.3q-4.25.2-10.1-4.4-4.3-3.65-7.9-1.35-1.65 1.05-3.85 1.25-2.4.15-4.15-.8l-10.3-5.8q-7.25-4.1-7.7-5.1-.15-.35-.75-5.35-.55-4.4-1.75-5.2-1.05-.75-5.3.1l-5.55.85q-1.75-.35-7.25-4.55-5.6-4.3-6.95-6.5-1.5-2.45-4.35-11.45-3-9.35-2.45-11l2.7-6.65q1.8-4.35 1.7-5.5-.2-2.95-2.65-7.55-.8-1.65-.75-4.6.1-3.05 1-5.2 2.7 1.55 8 1.8l12.35-.85q19.6 19.75 27.35 25.95.2 8.2-.75 12.45-.55 2.6.15 4.65.75 2.05 3 3.95 4.05 3.35 10.05 7"/><path fill="#9b7182" d="m77.25 68.5-6.75 8.7q-1.8 2.25-4 4.1-2.95 2.45-5.6 3.2-3.3.1-5.9-.95-3.25-1.3-3.4-3.75-.05-1.3.6-3 .85-2.1 2.4-3.6.1 3.1 4.6 3.8t6.75-1.8q4.5-4.75 9.7-8.25 1.35-.85 2.1-2.45.85-1.5.7-3.05 2.1 3.15-1.2 7.05"/><path fill="#0d161f" d="M177.05 46.6q-3.85 0-8.65-2.1-4.6-1.95-7.3-4.6-.45-.5-.85-.45-.35 0-1.05.5L155 43.2q-.85.65-1.2.3-.35-.4.35-1.1 1.95-2.1 4.3-3.8 2.05-1.4 3.7.2 2.55 2.35 7.15 4.2 4.85 1.9 8.55 1.8z"/><path fill="#0d161f" d="m177.25 46.65-1.85 4.3-3.3 5.2q-.55.75-.95.45-.45-.3.05-1.15l2.8-5.15 1.75-4.2q.45-1.25 1.35-2.1.9-.7 1.75-.7t1.85.7q1 .85 1.65 2.2 2.25 4.85 4.9 7.9.85.95.5 1.3-.45.4-1.3-.45-3-3.05-5.55-8.35-.65-1.35-1.95-1.35-.4 0-.85.35-.55.35-.85 1.05"/><path fill="#0d161f" d="M206.9 40.5q-.4.3-1.2-.6-1.6-1.9-3.55-2.3-1.8-.4-3.7.55-3.15 1.65-9.95 6.3-4.45 3.1-7.4 2.5l-.95-1.9 3.75-.15q1.45-.45 3.3-1.75l5.3-3.3 5.35-3.05q2.1-1.05 4.35-.6 2.65.5 4.4 2.95.7 1 .3 1.35m-32.05 5.15q.25-3.7-.45-6.4-.3-1.25.1-1.4.5-.15.85 1.1 1.2 3.65 1.25 6.8z"/><path fill="#0d161f" d="M181.7 46.35q-.3-1.6-.05-3.75.3-2.4 1.15-4.2.35-.9.75-.75.4.1.15 1-.95 2.95-.25 7.35zm-15.85 9.95q-5.4.5-8.1-2.6-2.8-3.2-1.7-7.5 1.1-4.45 5.6-6.75l1.5 1.15q-4.1 1.8-5.25 5.35-1.15 3.5 1.25 6.5 2.8 3.5 8.9 1.75 5.45-1.55 7.95-5.15l-1.9 3.65q-3.15 3.15-8.25 3.6m38.75-11.45q.1 5.15-4.6 8.4-2.95 2.1-7.75 1.6-4.65-.4-7.95-2.9l-2.2-3.7q3.05 3.5 8.35 4.65 5.35 1.05 8.65-1.25 4.1-2.85 3.5-7.4-.5-4.55-5.15-6.4l2.05-.85q4.95 2.7 5.1 7.85"/><path fill="#0d161f" d="M169.25 49.05q0 1.25-.75 2t-2.15.75q-1.3 0-2.2-.8-.8-.85-.75-2.15.05-1.05.85-1.9.9-.85 2.05-.8 1.35 0 2.15.85t.8 2.05m-2.85-1.65q-.75 0-1.2.45-.45.4-.5 1.1-.05.75.45 1.35.45.5 1.05.5.8 0 1.35-.5l.45-1.2q0-.65-.4-1.15-.45-.55-1.2-.55m26.85-2.6q1.2-.05 2.05.8.75.8.75 2 .05 1.3-.9 2.05-.8.7-1.9.7-1.3.05-2.15-.85-.8-.75-.8-1.85 0-1.15.8-1.95.85-.85 2.15-.9M192 46.55q-.4.5-.4 1.15t.4 1.1q.4.5 1.1.5t1.15-.45q.5-.45.45-1.2 0-.7-.4-1.15t-1.05-.45q-.8 0-1.25.5"/><path fill="#0d161f" d="M191.45 58.95q-3.3-.3-4.2-.05-.5.15-3.5 3.4-2.85 3.2-3.7 3.15-.5 0-3.45-2.65-3.1-2.85-3.75-3.15l-3.8.4q-3.2.65-3.75 1.35t.25 4.95q.75 4.1 2.5 9.8.35 1.1-.1 1.3-.4.2-1.3-.45-6.35-4.6-12.9-11.35l1.9 10.95q.15 1.45-1.35 1-6.6-1.8-12.95-7.25-6.15-5.4-9-11.6-.25-.5-.15-.7t.6-.4q3.5-1.2 11.95-2.95 8.8-1.8 13.55-2.2l1.55 1.65q-4.1.2-13.1 1.9-8.5 1.65-12.55 2.85 2.75 5.15 7.7 9.5 5.45 4.85 11.65 6.95-.35-4.45-1.5-11.65-.1-.7.2-.85.3-.1.75.35 5.25 4.9 12.7 10.85-3.3-11.8-1.85-13.8.85-1.1 4.7-1.8l4.7-.3 3.65 2.8q2.75 2.3 3.15 2.3.35 0 3.1-2.75 2.9-2.8 3.65-3.1 1.35-.45 5.05-.1 3.65.35 4.4.9 1.1.9 1 5.9-.1 4.55-1 8.9 7.8-7.1 10.35-11.5.4-.6.75-.5t.3.85q-.4 8.1-1.45 11.95 5.45-2.85 13-9.55 7.6-6.65 10.55-11.3L201.5 50.8l.95-1.75 28.7 2.45q.65.05.75.35l-.15.8Q229 58.05 220 66q-8.7 7.75-14.5 10.25l-1.4.1q-.4-.35-.05-1.35 1.55-4.2 2.1-10.5-4.5 6.2-10.6 11.35-1.05.85-1.45.6-.4-.2-.05-1.45 1.2-3.95 1.6-9.45.35-5.4-.4-6z"/><path fill="#0d161f" d="M195.95 70.7q-3.5 5.4-7.75 9.55l-1.05.65-.45-.85-1.55-4.9q-1.05-2.6-1.7-3.2l-3.2-.2q-2.7.25-4.15.95-.75.45-.75 7.55.05.9-.35 1.05t-1-.5q-5.5-5.55-8.35-9.95l-.75-3.7q2.85 5 9 11.2.05-2.85.25-4.2.35-2.5 1.35-2.85 1.9-.7 5.05-.95 3.4-.3 3.95.55 1.35 1.8 3.3 7.5 4.3-4.4 8.55-11.65zm18.15-31.25q-3.05-10.7-12.15-16.4-9.15-5.8-22.05-4.85-11.2.8-19.6 9.5-8.3 8.55-9.35 19.95-.05 1.2-.6 1.2-.55-.05-.5-1.25.15-12 9.2-21.4 8.95-9.3 20.7-10.2 13.5-.95 23.15 5.3 9.6 6.3 12.3 17.9.3 1.35-.2 1.45t-.9-1.2"/><path fill="#0d161f" d="M133.1 45.35q3.85 8.3 7.75 11.05l-2.35.45q-3.7-3.3-7.45-11.75-3.75-8.85-1.65-10.55 2.05-1.75 10.55 1.05 7.55 2.45 11.55 5.2l-.5 1.95q-3.5-2.65-11.05-5.25-7.7-2.65-9.1-1.5-1.45 1.3 2.25 9.35"/><path fill="#0d161f" d="M147.15 49.05q-2-2.25-5.3-4.85-3.45-2.7-6.6-4.4-1.1-.6-.85-1.05.3-.5 1.4 0 3.2 1.35 6.75 4.15 3.55 2.75 5.5 5.45.7 1 .3 1.3-.45.35-1.2-.6M234.7 37.1q-4.3 9.7-9.9 14.65l-2.6-.3q5.4-4 10.1-13.8 4.45-9.35 2.75-11.05-1.5-1.55-8.75 1.25-7.45 2.9-12.8 7.35l-.75-1.75q5.7-4.7 13.7-7.6 8.2-3 10.3-.85 2.3 2.35-2.05 12.1"/><path fill="#0d161f" d="M218.25 40.8q1.6-3.05 4.4-6.2 2.75-3.15 5.85-5.4 1-.7 1.3-.3.35.4-.55 1.25-6.65 5.85-10 11.2-.7 1.1-1.2.9-.45-.3.2-1.45M137.8 65.4l1.4 1.45q-3.55 3.45-4.95 9.55-1.2 4.95-.8 10.55.15 2.45 1.5 4.95 1.2 2.25 2.8 3.55 3.8 3.1 5.45 7.1.5 1.35.05 1.55t-1.1-1.05q-1.9-3.65-5.6-6.3-1.95-1.4-3.75-4.3-1.95-3.2-2.15-5.9-.35-5.35 1.4-11.05 1.95-6.4 5.75-10.1m93.6 19.3q1.95-7-.05-14.55-1.85-6.95-6.1-10.9l1.35-1.35q5.4 4.5 7.35 11.6 1.95 7.2-.15 15.25z"/><path fill="#0d161f" d="M277.5 61.55q-.95 2-43.95 17.6l-.15-2.8q9.4-3.05 24.85-8.8 16.65-6.15 17.5-7 .5-.6.3-3.2l-.85-5.05q-.25-1.15.3-1.25.5-.15.85 1 2.15 7.3 1.15 9.5"/><path fill="#0d161f" d="M269.6 5.5q2.8-.3 5.95 9.2 2.6 7.95 3.8 16.65 1.8 13 1 21.75-.75 8.5-3.7 8.95-2.7.4-6.1-10.1-3.1-9.45-4.25-18.95-1.2-10.1-.4-18.3.9-8.9 3.7-9.2m.15 1.7q-1.7.05-1.95 8.8-.25 8.2.8 17.1 1.2 9.8 4.05 18.9 2.6 8.3 3.85 8.35 1.75-.2 1.95-9.55.25-9.3-1.15-19.2-1.4-9.35-3.75-16.95-2.35-7.5-3.8-7.45"/><path fill="#0d161f" d="M279.35 41.95q-1.3-1.05-3.2-1.35-.9-.15-.85-.65.1-.55.95-.55 1.75 0 3.2.7zm-3.25-21.3q-1.3.95-2.3 2.4-.55.85-.95.65-.45-.2-.05-1.15.95-2.2 2.7-3.9zM251.85 7.8 229 9.95q-10.95 1.45-18.7-2.25-14.65-7.25-33.15-5.35-18.8 1.95-31.3 12.45-1.2 1-1.55.6-.45-.4.8-1.55 12-10.95 31.25-13.3 19.4-2.4 34.85 5.4 3.7 1.9 7.55 2.35l9.15-.3 23.55-2.1q17.5-1.15 18.9-.2.7.5.9 3.35l-.05 4.9q-.05 1.25-.6 1.25t-.5-1.25q0-2.5-.35-4.45-.3-1.9-.75-2.2zm17.95 15q-.35.35-1-.2-1.15-1.2-2.25-1.65-6.35.25-14.1 1.9-1.2.25-1.3-.3-.15-.5 1.05-.85 7.4-1.95 14.7-2.65.15-.05.45.2l2.3 2.45q.45.75.15 1.1m-15.45 21.15q-1.15.25-1.25-.25-.1-.55 1-.85 6.4-1.95 14.7-2.95l.15 1.75q-6.6.55-14.6 2.3"/><path fill="#0d161f" d="M125.95 13.7q-12.95.1-17.8.45-4.05.3-7.85 7.75-3.55 6.9-5.35 16.75-1.85 10.1-.7 17.8 1.2 8.6 5.8 10.85 7.55 3.75 17.2 7.5 8.1 3.2 15.2 5.45v2.6q-20.1-7.25-33.2-13.65-5.35-2.6-7-11.85-1.4-8.25.4-18.85 1.85-10.45 5.95-17.75 4.35-7.9 9.45-8.3l18.8-.7q13.8-.35 21.5 0l-2.25 2q-8-.15-20.15-.05"/><path fill="#0d161f" d="M108.75 32.95q-6.05-1.9-13-2.65l.35-1.7q7.7 1.2 13 3.25 1.05.5.9.95-.2.5-1.25.15M92.85 45.7q7.2 2.85 16.45 5.45 1.1.3 1.05.85-.1.55-1.2.25-9.15-2.2-16.3-4.65z"/><path fill="#0d161f" d="M95.4 31.3q-17.75.7-33.8 8.5-15.7 7.65-27.65 21.05-12 13.55-18.45 31.1-6.75 18.25-6.4 38.6.3 21.55 8.7 47.25 7.55 22.85 17.5 38.05.85 1.3.4 1.55-.45.3-1.4-.9-10.7-14.1-19.1-38.7-9.05-26.25-9.4-47.75-.35-20.15 6.75-38.8Q19.4 73.3 32.1 59.2q12.65-14 28.95-21.8 16.9-8.1 35.15-8.2zm-2 247.8q-9.95-6.6-20.6-16.45-10.95-10.1-19.05-20.35-.9-1.1-.5-1.5.4-.35 1.35.75 8.75 9.35 19.5 19.35 10.55 9.8 19.95 17.25 1.45 1.2 1.15 1.6t-1.8-.65m25.35 15.85q21.1 11.4 37.35 14.85l2.5 3q-8.05-1.6-18.2-5.65-11.75-4.65-22.25-11.15-1.25-.8-1-1.3.25-.45 1.6.25"/><path fill="#0d161f" d="M122.2 195.55q4.9 3.15 8.15 6.7 3.4 3.75 3.3 6.15l-1.3 13.25q-1.1 10.25-1 12.2.2 2.85 9.8 8.05 9.45 5.05 10.9 4.15 1.2-.7 9.35-9.3 9-9.55 10.55-11 3.4-3 10.6-3.35 6.7-.3 14.1 1.75 7.5 2.1 12.25 5.75 5.2 4 5.05 8.55-.15 5.6-4.25 15.65-2.5 6.1-7.6 16.45-1.55 3.3 1.3 12.65 1.15 3.85 4.9 8.95l5.1 7.05q2.25 3.95.05 10.5-2.2 6.45-7.45 12.05-5.65 6.1-12.55 8.45-7.9 2.7-15.45-.3-5.55-2.2-12.85-9.05-6.05-5.65-10-11.15-.85-1.1-.4-1.45.35-.3 1.25.7 5.5 6.15 11.55 11.35 6.75 5.8 11.2 7.55 6.25 2.45 13.1.15 6.2-2.1 11.5-7.35 4.95-4.95 7.25-10.65 2.3-5.85.6-9.65-.45-1.05-4.9-7-3.95-5.25-5.1-9.6l-1.7-7.25q-.65-4.6.5-6.95 4.95-9.55 7.6-16.05 4-9.65 4.15-15.1.1-3.45-4.75-6.8-4.4-3.05-11.25-5-6.9-2-12.9-1.85-6.55.1-9.45 2.75-1.85 1.65-10.55 10.85l-9.95 10.05q-2 1.6-12.55-4.1-10.8-5.85-11.2-9.65-.1-1.1 1-11.75l1.5-14.2q.3-4.2-10.75-11.3-11.2-7.15-15.7-4.65-10 5.4-19.4 13.15-1.15.9-1.55.5-.35-.35.7-1.4 5.5-4.95 9.5-7.85 4.1-2.95 9.95-6.25 5.7-3.2 17.8 4.65"/><path fill="#0d161f" d="M69.4 174.15q1.95 5.9 9.55 14.8 6.7 7.8 12.15 11.95l-1.9 1.3q-5.65-4.75-11.55-11.4Q70 182 67.8 176z"/><path fill="#0d161f" d="M77.35 151.6q.4 2.5.3 6.2-.15 3.85-.75 5.9-.8 2.9-3.9 7.35-2.9 4.1-6 7.2-.9.9-1.25.65-.4-.25.3-1.3l4.65-6.4q3.35-4.85 4.2-7.9.95-3.3.8-8.3z"/><path fill="#0d161f" d="M66.75 124.95q2.8 3.1 6.45 12.4 3.15 8.25 4.05 13.15 1.2 6.7-5.8 8.2l-5.8-.3q-3.05-.95-4.75-3.3-2.9-3.95-5.8-11.4-2.85-6.95-3.75-12.05-1.2-6.55 5.6-8.5l5.5-.3q2.9.5 4.3 2.1m-9.1 17.95q3.05 7.8 5.4 11 2.65 3.6 7.9 2.9 5.5-.6 4.4-6.1-.9-4.25-4.15-12.7-3.7-9.4-5.8-11.55-3-3.1-7.65-1.4-4.8 1.75-3.9 6.15.9 4.45 3.8 11.7"/><path fill="#0d161f" d="M60.1 123.95q-6-1.8-13.85-2.15-1.35-.05-1.3-.6 0-.5 1.35-.55l10.65.8q5.7.95 8.35 2.5z"/><path fill="#0d161f" d="M94.65 62.5q-14.95 5.8-25.7 23.35-10.75 17.6-10.75 36.45l-3.2-.15q0-18.9 11.9-37.2Q78.6 67.1 94.15 60.9z"/><path fill="#0d161f" d="M78.95 68.15q-5.3 6-6.4 7.65-1.55 2.4-3.5 4.4-3 3.25-6 4.5-4.3 1.9-9.2-.6-5.35-2.7-2.15-8.45 3.05-5.5 10.95-11.8 8.1-6.55 12.25-6.55 3.2 0 4.75 4.15t-.7 6.7m-.85-5.95q-1-2.95-3.15-3-3.6-.05-11.15 6.05-7.5 6-10.5 11.3-2.4 4.3 1.85 6.15l7.25.2q4.65-2 8.6-8.2 1.4-2.15 6.45-7.85 1.55-1.7.65-4.65"/><path fill="#0d161f" d="M63.7 84.35q-7.65 4.25-16.65 6.6l-1.45-.15q-.15-.55 1.1-1 7.3-2.5 13-5.65zm14.5-23.6q-.15-3.6-1.1-6.5-.35-1.1.15-1.25.45-.2.95.85.85 2.05 1.4 5.15.5 2.9.6 5.4z"/><path fill="#0d161f" d="M85.6 62.15q-4.55 3.05-7.45 6.1l.95-3.4q2.6-2.55 6.7-5.05 4.1-2.55 7.1-3.35l.55 1.8q-3.25.85-7.85 3.9M4.8 149.1q.85 1.95 2.7 3.55 1.55 1.3 3.25 2l.45 2.65q-5.95-2.55-8.1-7.5-2.35-5.4-2.95-17.35-.6-11.75 1.05-15.25.9-1.75 3.35-3.7 2.3-1.75 5-3.05l-.3 2.85q-1.9.75-3.85 2.2-1.8 1.45-2.4 2.6-1.15 2.35-.5 14.65.6 12.55 2.3 16.35m53.3 97.45-9.4.85-8.7-.5q-6.55-1.35-13.35-9.95-6.75-8.6-6.3-14.8.15-1.8 2.7-7.45 2.5-5.5 5.05-9.75l1.15 2.25q-2.35 3.65-4.55 8.4-2.25 4.85-2.35 6.7-.35 5.15 6.2 13.3 6.55 8.25 11.95 9.4l7.85.4 8.3-.75zm38.75 51.85q5.8 3.45 11.95 6.15 1.85.85 3.2.9 1.4 0 2.75-.85l5.2-2.55q3.45-1.65 5.2-3.15l2.4 1.45q-1.85 1.3-6.3 3.3-4.75 2.1-5.75 2.7-3.25 2-7.45 0l-10.7-5.45q-9.1-5.2-13.05-9.9-2.3-2.65-1.55-6.25.5-2.15.75-6.05.3-4.85-.15-8.45l2.25 2q.1 3-.3 7.15l-.75 5.55q-.55 2.8 1.3 4.95 3.15 3.8 11 8.5"/><path fill="#0d161f" d="M37.85 245q-1.15 2.25-1.05 4.95.05 2.65 1.25 5.15 1.9 4 2.05 6.35.1 2.3-1.4 5.45l-2 4.25q-.9 2.3-.9 3.65 0 1.7 2.8 10.85 2.8 9.3 3.9 10.65 1.3 1.75 6.9 6 5.65 4.4 6.65 4.35l5.45-.85q4.55-.65 5.6 0 1.25.75 2 5.4.85 5.1 1.15 5.5.4.65 7.45 4.9l9.8 5.5q1.6.75 3.55.75t3.3-.85q2.15-1.4 4.4-1.25 2.35.15 4.1 1.95 1.75 1.7 4.4 3.25 3 1.7 4.75 1.55 6.4-.65 17.5 1.1l1.1 2.9-9.95-1.55-8.9-.5q-2.1.15-5.55-1.8-3-1.6-4.75-3.4-1.45-1.45-3.4-1.5-1.7-.1-3.25.95-1.7 1.1-4 1.4-2.6.3-4.4-.6-3.2-1.55-10.25-5.7-7.75-4.55-8.15-5.35-.35-.65-1.05-5.75-.55-4.65-1.3-5.1l-5 .25-4.7.9q-1.45 0-7.85-4.55-6.3-4.45-7.6-6.1-1.9-2.45-4.45-10.8-2.55-8.4-2.55-12 0-1.5 1.25-4.25l2.2-4.85q1.3-2.65 1.15-4.45-.15-1.9-2.05-5.9-1.25-2.65-1.2-5.95.05-3.2 1.25-5.7z"/><path fill="#0d161f" d="M142.65 339.8q2.2 1.3 4.65 1.9l3.65.2q1-.3 2.6-3.45 1.75-3.3 2.35-3.65l4.5-.3q3.2.35 4.6 1.1l3.25 2.4 3.35 3.3q1.3 1.45 3.95 1.95 2.9.5 6.05-.5 3.15-.9 6.4-2.9 3.05-1.9 4.7-3.8 1.75-2.1 3.95-2.8 1.65-.55 4.85-.6 5.9-.1 10.4-1.15 1.2-.25 1.3.25.15.5-1.05.85l-5.15 1.1-5.5.4q-2.8 0-4.4.65-1.65.65-3.2 2.5-1.9 2.15-5.35 4.5-3.9 2.55-7.15 3.5-3.1.95-5.95.6-3.55-.45-5.55-2.8-4.4-5.1-5.65-5.75-1.15-.6-3.6-.7t-3.2.4l-2.3 3.45q-2 3.1-3.65 3.55-1.7.45-4.5-.05-2.95-.55-5.2-1.9-1.55-.9-4.35-1.25l-3.95-.1q-1 .1-2.55-2.45-1.05-1.8-2.95-5.9-.5-1.05-.05-1.35.45-.25 1.1.75 3.45 6.15 4.55 6.7 1.65-.3 4.3 0 3 .4 4.75 1.35"/><path fill="#0d161f" d="m199.75 192.85 8.15-.5q4.4-.1 5.35.7 2.7 2.25 4.05 4.55l1.85-.4 1.95-.65 4.2-.1q2.1.9 2.75 2.9.4 1.1 2 1.65l4.3.75q3.8.35 3.65 7.9 0 1.6 1.6 2.4l3.1.05q9.95-4.55 14.8-7.45 4.35-2.65 9 .15 3.6 2.2 10.15 9.45 6.05 6.65 6.95 8.6.7 1.6.35 5.05l-.55 3.9q-.2 1.65 1.4 3.15 1.55 1.45 3.5 1.45 3.65 0 8.05 2.55 1.55.85 2.5 2.35 1.15 1.65 1.25 3.75l.05 11.25-.45 13.7q-.15 2.75-3.5 4.2l-2.55 1.5-2.25 1.8q.55 6.45-2.05 11.2-1.4 2.6-4.7 5.8l-3.7 3.65q-1.15 2 .35 5.9 1.35 3.55-1.6 5.75l-13.2 8.75-14.4 9.7q2.45 6.75 3.1 11.45l3.35.5q1.85.65 2.4 1.55.65 1.05.4 5.05-.2 3.6-.75 5.35-.75 2.3-4.5 7 3.95 4.2 6.6 8.6l6.15-.7q1.55-.1 2.75.65 1.55.95 1.8 2.95.25 2.95-.05 8.65-.1 1.25-.55 2.05-.55 1-1.9 1.9l-4.15 2.9q-2.3 1.8-2.25 2.75.05.7 1.7 1.85 1.8 1.25 4.5 2.3 1.55.55 1.8 1.75.3 1.2-1.1 2.6-.5.55-.9 1.9-.3 1.35-.8 1.7l-3.45.45-3.9-.2q-1.6.05-2.85-.9-1.4-1.15-1.95-3.15-.35-1.55-2-4.55-1.6-3.05-2.85-4.3-1.3-1.3-1.3-2.8 0-.9.6-2.4 2.5-5.15 2.4-6.45-.1-1.25-2.8-4.4-2.9-3.25-4.35-3.45-1.3-.25-4.8 2.55l-3.6 2.8q-2.9.4-8-3.75-4.75-3.85-4.75-5.4 0-1.2 1.85-3.95 1.85-2.85 4-4.8l-3.85-4.65q-2.5-2.8-3-3.05-.55-.4-2.65-.45-2.25-.05-3.3.45-2.3.85-4.8.7-2.6-.2-4.85-1.45-1.9-1-7.15-6.25l-7.05-6.8 2.25-1.1q1.65 1.3 7.1 6.55 4.6 4.55 6.3 5.55 4.2 2.45 8.35.85l3.75-.35 3.25.6 3.8 3.85 4 4.9q.45.65 0 1.05-2.1 1.85-4.1 4.65-1.9 2.65-1.9 3.55.3 1.1 4.85 4.5 4.55 3.3 5.5 3.05l3.7-3q3.6-2.85 5.3-2.7 1.95.15 5.35 4.3 3.2 3.9 3.35 5.45.2 2.15-2 7.35-.65 1.3-.65 1.85 0 .85 1.05 1.85 1.3 1.35 3.05 4.55 1.7 3.05 2.1 4.75.4 1.45 1.35 2.25.85.75 1.85.75l3.1.2 2.55-.25.75-1.3q.35-1.2.9-2 1.1-1.5-.15-2-3.5-1.45-5.45-2.95-1.95-1.35-1.95-2.45-.05-1.55 2.35-4 1.85-1.9 4.4-3.65 1.9-1.25 1.95-2.45.2-5.8-.15-8.45-.1-1.15-.55-1.55-.45-.45-1.75-.4l-7.1.95q-.5.1-.65-.25-2.75-4.8-7.4-9.45-.3-.4-.05-.7l2.85-3.7 1.9-3.6q.55-1.55.75-4.75.2-3.3-.3-4.1-.4-.7-2.05-1.15l-3.05-.3q-.6.05-.65-.5l-1.2-6.9-1.75-6.1q-.15-.45.15-.7l27.6-19.25q1.1-.8 1.35-1.65.35-.85-.15-2-.6-1.55-.6-3.4 0-2.2.95-3.7l3.7-4.45q3.25-3.8 3.9-5.15 2.2-5.05 2.2-11 0-.3.25-.45 2.35-1.95 5.75-3.6 1.9-.9 2.05-2.9.25-4.9.1-13.6l-.35-11.15-.35-2.35q-.35-.7-1.5-1.4-4.05-2.45-7.1-2.45-2.75.05-5.1-2.3-2.35-2.4-1.9-4.9.9-5.4-.15-7.6-.85-1.95-6.4-8.2-6.15-6.95-9.5-9-3.65-2.25-6.8-.55-8 4.3-14.95 7.6-2.4 1.15-5.05-.1-2.75-1.3-2.75-3.95 0-2.8-.3-4.1-.5-2.1-1.95-2.25-2.35-.2-4.25-.95-2.6-.95-3.1-2.55-1.25-3.6-4.15-1.95-2.8 1.45-5.35 2.05-.4.15-.6-.3l-1.65-2.5-1.85-2.1-4.95-.35-7.65.35q-2.4.25-3.55.9-1.55.8-2.4 2.85-2.25 5-3.3 8.95-.95 3.2-4.25 4.65-7.05 3-8.2.05-.6-1.5-1.6-2.15-.8-.5-2.25-.55l-4.4-.1-3.95.1q-1.65.15-2.9.85-1.55.7-2.1 1.9-1.45 3.1-6 3.55l-4.3.15q-2.6-.2-3.8-1.6l-1.95-2.35-2.4-2.4-4.15-.15q-3 .45-5.8 1.5l.15-2.1q2.8-1 5.85-1.45l4.9.3q1 .6 2.7 2.65l1.95 2.45q1 1.05 3 1.2l3.7-.15q1.9-.2 3-.75 1.1-.6 1.65-1.75.8-1.6 2.75-2.85 1.85-1.25 3.7-1.45 2.4-.25 8.3-.15 1.7 0 2.85.65 1.65.95 2.75 3.35.45.8 2.5.3 1.65-.35 3.6-1.3 2.4-1.05 3.1-3.5.8-2.9 3.3-8.5 1.35-3 2.9-4.15 1.55-1.05 4.65-1.3"/><path fill="#0d161f" d="M138.75 189.3q.5 13.75.25 19.55l-2 .35q.2-6.35-.8-19.95-.35-4.4-1.75-7.35-.9-1.7-4.35-6.55l2.35-1.75q3.2 4 4.7 7.7 1.4 3.6 1.6 8m104.55-46.1q-3.65 6.15-11.2 15.85-6.8 8.8-11.05 13.4-3.55 3.75-5.75 8.75-2.85 6.35-2.75 13.1l-2.25-.05q-.15-7.1 2.6-13.8 2.3-5.6 5.8-9.3 4.1-4.4 10.3-12.1 6.6-8.25 10.25-13.7zm18 5.05q1.35 8.75.45 11.4-.55 1.5-3.5 3.4l-6.8 3.75q-1.25.7-1.6.25-.3-.4.95-1.2l6.15-3.9q2.6-1.8 3.05-3 .55-1.35-.7-10.35-1.25-8.85-2.05-10.35-.95-1.75-8.25-1.2l1.25-1.7q7.1-.45 8.45 2.1 1.35 2.45 2.6 10.8"/><path fill="#0d161f" d="M253.95 187.45q-.55 14.35-1.95 21.3l-2.45 1.05q1.5-6.4 2.2-21.55.65-14.95-.15-22.4l1.85-.8q.95 8.15.5 22.4m-17.45-42.7q-4.2 7.4-17.3 16.25-13.6 9.2-23.15 10.35-8.4 1.05-26.95-9.6-17.7-10.15-28.3-21.1-5.65-5.9-13.5-6.4-7.1-.5-13.9 3.35l-1.3.15q-.3-.4.65-1.1 6.2-4.65 14.5-4.35 9 .3 15 6.7 9.4 10.25 26.85 20.2 18.3 10.55 26.85 9.45 9-1.1 21.85-9.25 12.55-7.9 17.7-15.3.95-1.3 1.35-1.05.45.25-.35 1.7"/><path fill="#0d161f" d="M242.15 84.9q8.65 3.35 15.25 12.2 3.55 4.9 3.7 12.7t-3.2 15.9q-8 19.35-28 25.6l3.2-3.35q16.85-6.65 23.15-23.8 2.65-7.2 2.4-14.2-.3-6.9-3.35-11.25-5.65-8.05-13.9-11.3-7.25-2.75-14.6-1.2-8.15 1.65-14.2 7.55-5.75 5.6-5.6 10.75l-2.35.45q.05-5.85 5.8-12 6.45-6.8 16.2-9.05 7.9-1.85 15.5 1M139 98.15q-9.9-.35-18.8 7.25-8.85 7.7-10.55 18.2-.4 2.65-2 4.05-5.85 5-9.95 15.9-4.2 11.5-2.5 19.6.9 4.2 7.45 8.3 5.65 3.6 10.65 4.55 2.1.4 7.1 0l7.2-.95q3.05-.8 15.5-7.8Q156 160 161.6 155.6l1.9 1.2q-5.8 4.55-19.25 12.4-13.3 7.7-16.45 8.5l-7.8 1.05q-4.9.35-7.1 0-5.1-.9-11.45-5.4-7.25-5-8.4-9.85-2-8.7 2.15-20.15 4.05-11 11-17.2l1-1.1.5-1.8q1.85-11.65 10.05-19.25 8.25-7.65 19.55-7.85z"/><path fill="#0d161f" d="M231.3 109.4q-12.65-6.25-26.25-2.95-12.75 3.05-17.3 11.85-.75 1.4-1.25 1.25-.5-.2.15-1.7 4.55-10.6 18.8-13.75 14.5-3.3 26.4 4.25 1 .7.75 1.15z"/><path fill="#0d161f" d="M189.15 114.7q-22.1-5.4-39.7 1.15-7.75 2.95-12.6 7.65-4.8 4.75-5.6 10.35l-2-.35q2.95-13.75 19.4-19.95 17.65-6.6 41.55-.45z"/><path fill="#0d161f" d="M168.8 93.75q3.3 3.15 5.85 8.65 2.35 5.2 2.85 9.7l-2.6-.55q-.4-4.45-2.25-9-1.85-4.5-4.75-8.1-.75-.9-.35-1.2.4-.35 1.25.5m21.9-1.8q-3.4 3.95-5.8 9.15-2.8 5.95-3 11.1l-2.35-.15q.2-5.65 3.55-12 3-5.7 6.75-8.9 1.05-.9 1.4-.6.3.4-.55 1.4m-46.35 87.5q1.2-4.7 4.2-7.8.65-.75 1.15-.5.4.25-.15 1.15-2.35 3.55-4.15 7.65-.4.95-.9.75-.5-.15-.15-1.25m49.8 9.4q-.75-4.8-3.95-10.8-.55-1-.15-1.25.5-.25 1.15.7 1.8 2.35 2.9 5.3 1.2 3.1 1.25 5.95 0 1.45-.5 1.45-.45.05-.7-1.35m-28.3 11.1q-2.6.35-4.65-.65-2.25-1.05-2.75-3.4-1.15-5.15 1.75-14.85 2.7-9.25 4.4-9.25 1.8 0 4.75 8.55 3 8.4 2.9 12.65-.15 5.95-6.4 6.95m2-18.4q-2.5-7.95-3.2-7.85-.85.1-3.05 8.65-2.4 9.2-1.45 13.25.75 3.5 5.45 2.65 4.7-.95 4.8-5.35.05-3.2-2.55-11.35m3.05-38.45q1.45 9.3 8 14 5.6 3.9 12.9 3.5 6.7-.3 10.5-3.6 3.6-3.25 3.3-8-.35-4.75-3.75-7.4-2.95-2.2-7.35-2.2-7.05 0-9.95 5.2-.8 1.5-2.5 1.55-2.8.05-5.5-1.05-2.7-1.15-4.3-3-.75-.8-1.15-.65-.4.25-.2 1.65m-.5-3.2q1.2-.55 2.9 1.15 3.55 3.6 8.6 3.6l.8-.15.6-.85q3.2-5.85 11.2-6 5.2-.1 8.85 2.85 3.75 3.1 4.1 8.45.35 5.75-4.1 9.5-4.4 3.65-11.5 3.95-8.25.4-14.25-4.1-6.75-5.1-8.2-15-.4-2.85 1-3.4m67.05.25q1.25-2.75 2.25-7.75.9-4.75 1.15-8.75.1-1.35.6-1.3.5 0 .55 1.35.25 4.3-.75 9.3-1.05 4.95-2.75 7.65-.65 1.05-1.1.8-.45-.2.05-1.3m-.8-41q.15 3.05 1.85 6 1.2 2 3.4 4.35 1.2 1.35.35 2.85-.6.95-2 1.8-1.35.7-2.45.8-1.4.1-.4 1.1 2.85 2.9 10.85 2.2 8.85-.75 11.2-6.5l-.25 3.5q-3.45 4.9-12 4.9-7.75 0-10.8-3.05-1.4-1.4-.95-2.45.35-1.1 2.1-1.25l1.85-.55 1.5-1.25q.45-.5-.25-1.2-5.4-5.4-5.8-11.1-.35-5.4 2.5-8.85 2.85-3.35 7.2-2.95l2.25 1.95q-4.95-1-7.8 2.35-2.6 2.9-2.35 7.35m-29.7 23.95q-3.2-.05-3.9-3.35-.7-3.35 2.2-5.05 2.3-1.3 8-1.3 5.7-.05 8.8 1.35 2.5 1.1 2.55 3.05.05 1.9-2.1 2.9-2.55 1.25-7.75 1.9zm7.7-2.15q4.95-.55 7.15-1.65 1.3-.7 1.25-1.6-.1-.9-1.55-1.6-2.7-1.15-7.9-1.15-5.35-.05-7.55 1.25-1.55.9-1.25 3 .25 2.1 2.15 2.15zm8.55 14.2q3.25.6 4.05 2.4t.25 3.9q-.5 2.2-2.1 2.85-1.55.6-3.6.65-2.35.1-3.15-.9-1-1.1-1.2-3.6-.2-2.85 1.1-4.4 1.3-1.6 4.65-.9m-3.6 1.95q-.8 1-.6 3.15.15 1.95.9 2.7.45.45 2.05.35 1.5-.15 2.85-.7.85-.35 1.3-1.7.4-1.4-.1-2.65-.6-1.25-3.05-1.8-2.55-.45-3.35.65m-51.5-10.05q-2.5 1.8-4.5 3.65t-5.35.8q-3.45-1.15-2.85-4.15.9-4.3 5.55-6.85 4.7-2.55 11.2-2.3 3.7.15 3.9 2.2.2 2-2.85 3.5-2.25 1.05-5.1 3.15m3.95-7.25q-5.35-.25-9.5 1.75-4.6 2.15-5.4 6.1-.45 1.8 1.9 2.4 2.25.55 3.6-.65 5.1-4.65 9.7-6.95 1.9-.95 1.8-1.8-.1-.75-2.1-.85m-37.6-22.25q.8 4-1.3 7.35-1.9 2.9-5.5 5.05-3.75 2.25-8.3 3-3.5.7-4.6 7.1-.2 1.55-1.45 1.8-1.2.3-2-1-.75-1.2-1.3-2.75l.85-2.25q.65 2.55 1.5 3.9.3.5.65.35.3-.1.4-.65 1.2-7 5.6-8 4.4-.95 7.75-2.85 3.25-1.95 4.95-4.6 1.8-2.8.95-6.15zm-6.5 43.9q-.15 3-4.45 9-4 5.7-5.85 6.35-1.7.65-4-.85-2.45-1.5-2.3-3.7.15-1.9 5.05-8.3 4.75-6.1 6.35-6.85 1.45-.7 3.35 1.05 1.95 1.7 1.85 3.3m-2.55-2q-1.15-1.25-2.15-.9-1.05.45-5.5 6.25-4.6 5.95-4.75 7.55-.1 1.2 1.55 2.25 1.5.9 2.5.55 1.4-.5 5.15-5.55 4.05-5.5 4.25-8.2.05-.8-1.05-1.95m8.25 8.85q1.8.4 2.45 3.45.75 3.1-.9 3.75l-4.4-.25q-3.4-.8-3.7-2.4-.3-1.45 2.55-3.15 2.7-1.7 4-1.4m-3.3 2.5q-1.95 1.15-1.8 1.8.15.75 2.6 1.3l3.4.15q.6-.25.15-2.05-.5-1.9-1.4-2.1-.95-.2-2.95.9m-30.6-1.9q1.35 3.75.85 10.65-.5 7.25-2.75 9.6l-1.2-1.15q1.85-1.7 2.25-8.45.4-6.6-.85-10.05-.5-1.5-1.4-1.7-.75-.15-1.45.6l.45-2.2 2.05-.1q1.35.75 2.05 2.8m3.8 49.45q.65 2.9 2 4.15l7.7 5.05q6.25 3.8 8.55 4.65 3.7 1.45 6.65.05 2.85-1.35 4.1-4.95v3.7q-1.9 3.2-5.15 4.05-3.05.9-6.7-.55-2.35-.9-8.5-4.65l-8.3-5.45q-1.65-1.25-2.25-4.9-.55-2.9-.25-5.45l1.8-.95q-.3 2.6.35 5.25m108.35 46.6q-3.55 4.5-13.45 7.25-9.1 2.45-14.65 1.5-2.85-.5-6.55-3.45-3.4-2.7-4.85-5.3-1.25-2.2-1-8.75.2-6.7 1.75-10.15l2.55-1.15q-1.65 2.5-2.2 9.7-.5 7.15.7 9.25 1.35 2.3 4.1 4.5 2.9 2.25 5.45 2.65 6.9 1.2 16.45-1.7 10.6-3.25 12.35-8.5zm26.15 75.55q.45.25.05 1.3-2.45 6.5-5.15 8.6-1.55 1.35-5.15 1.75-3.25.4-6.5-.1-1.45-.2-1.45-.65t1.45-.5q7.95 0 10.5-2.05 2.65-2.1 5.3-7.6.5-1.05.95-.75m30.8-280.1 1.9-.6q.6-.3.85.15.25.4-.4.9l-1.9 1.35zM235.7 173.45q-.2 1-3.65 3.75-3.45 2.8-3.65 3.75-.55 2.25.25 8.4.8 6.2 1.65 6.9.45.35 4.05 1.8 3.45 1.5 3.65 2.8.25 1.7-.05 4.85-.35 3.15-1.1 5.3l-.75-4.3q.4-3.7.1-5.4-.15-.65-3.4-2l-3.8-1.75q-2.05-1.7-2.6-8.25-.5-5.55.2-8.65.35-1.45 3.7-4.3 3.4-2.85 3.5-3.5.4-2.5-2.55-15.1l1.55-2.05 2.25 10.65q1 5.75.65 7.1"/><path fill="#bf899d" d="M150.4 21.1q8.75 2.6 13.85 6.8 2.95 2.5-1.1 6.45-4.1 3.95-6.55 1.7-1.45-1.3-3.75-7.1-2.2-5.5-2.45-7.85m28.5-15q2.65 2.85 4.5 6.8 1.9 3.95 2.6 8.15.55 3.2-5.7 3.7-6.3.45-6.35-3.15-.15-7.8 4.95-15.5m30.4 10.85q0 3.3-1.15 7.85-1 3.8-2.15 6.35-.8 1.75-2.9 1.75-1.95-.05-4-1.4-2.1-1.3-2.85-3-.9-1.95.35-3.35 2.1-2.4 5.8-4.75 3.5-2.2 6.9-3.45"/><path fill="#9b7182" d="M150.35 21.35q1.65 3.1 5.25 7.15 3.55 4.1 6.65 6.4-4 3.05-6.1.5-1.25-1.65-2.9-5.55-1.7-4.05-2.9-8.5M179.6 6.7q2.15 2.9 3.95 6.85 1.7 3.75 2.3 6.6.5 2.35-1.55 3.5-1.5.85-3.7.85 1.9-6.8-1-17.8m26.75 23.75q-.8 2-3 2.1-2.05.05-4.4-1.45 2.95-2.55 5.8-6.15 3.05-3.95 4.7-7.4-1.45 8.7-3.1 12.9"/><path fill="#0d161f" d="M206.85 31.4q-.85 2.1-3.25 2.25-2.2.15-4.65-1.15-2.4-1.4-3.5-3.3-1.25-2.1 0-3.9 1.2-1.85 7.25-5.8 6.2-4.05 7.2-3.45.9.55-.3 6.15-1.1 5.15-2.75 9.2m2.05-13.8q-.35-.3-5.35 3.1-5.35 3.55-6.6 5.55-1.45 2.3 2.9 4.6 4.4 2.3 5.4-.25 1.75-4.35 2.95-8.55 1.1-4.15.7-4.45m-25.65-6.4q2.8 5.9 3.6 9.8.4 1.85-1.6 3.15-1.9 1.2-4.75 1.45-2.9.2-5-.7-2.4-1.05-2.5-3.1-.2-3.9 2.2-10.3 2.35-6.15 3.75-6.3 1.35-.15 4.3 6m-4.3-4.2q-.65 0-2.45 5.25-1.95 5.7-1.65 9.35.15 2.5 5.35 2.1 5.2-.35 4.9-2.4-.75-4.5-3.15-9.65-2.2-4.65-3-4.65m-27.7 15.15q-.4.3 1.6 5 2.1 4.85 4 7.85 1.5 2.3 5.35-1 3.75-3.2 1.6-5.25t-7.25-4.6q-4.8-2.35-5.3-2m4.7-.1q5.95 2.55 9.05 5.45 1.7 1.65 1.05 4.1-.6 2.15-2.8 3.95-2.15 1.8-4.35 2.05-2.4.3-3.5-1.6-3-5.1-4.8-10.55-1.55-4.75-.95-5.2.85-.55 6.3 1.8"/></svg>