<svg xmlns="http://www.w3.org/2000/svg" width="691" height="577" viewBox="-0.12 -0.07 690.76 577.01"><path fill="#efefef" d="m625.12 310.31 9.1 3.71 8.9 4q.9.62 9.02 13.15l10.43 16.66q-3.36-.42-9.94 3.5-1.26.84-3 3.22-1.48 2.17-2.6 4.48l-9.1-12.8-10.15-13.87-3.29-2.45-3.22-1.89q-.35-.2-2.59-1.05-1.75-.7-2.3-1.54-1.2-1.82-.15-7.56.63-2.87 4.2-6.3 1.12-.98 2.45-1.33z"/><path fill="#efefef" d="m460.34 127.54 10.5 8.96 30.45 28.7 16.94 15.26q13.16 11.55 18.55 15.4 6.8 4.7 18 13.23l20.5 16.31 30.66 26.32q22.82 19.88 29.4 26.88 1.33-7 0-28.07-1.26-19.18-1.05-19.18.63 0 6.86 14.21 6.3 14.28 9.6 23.24 3.07 8.47 5.87 19.88 2.52 10.15 3.71 17.78 1.12 6.86 2.8 21.77 1.61 14.84 1.68 19.53l-4.97.35q-6.86-8.6-13.16-15.26-7.14-7.56-34.44-24.99-9.94-6.37-21.2-14.35-11.9-8.4-16.46-12.46-3.99-3.57-46.97-27.79l-45.08-25.06q-2.3-1.19-10.29-4.27l-16.66-6.23q-15.05-5.67-71.54-48.79-20.37-15.54-35.63-29.4-13.02-11.76-12.18-12.46.63-.49 10.43 3.57 9.45 3.85 16.17 7.28 8.61 4.41 28.56 13.3-6.86-11.69-11.9-22.4-3.5-7.28-5.67-14.42-1.89-6.44-1.19-6.72.63-.28 13.23 10.01 12.25 9.94 16.38 13.93l15.2 13.65q11.4 10.01 11.9 9.66.41-.35-3.23-8.19l-5.67-11.76q-2.38-4.9-5.95-13.44-3.85-9.38-3.5-9.87t11.62 9.03l15.47 13.37 15.4 13.58q11.2 9.73 11.55 9.52.28-.14-2.73-6.37-3.99-8.26-6.02-13.72-2.66-7-3.43-10.99-.63-3.43.14-3.7.56-.22 7.35 5.17"/><path fill="#0f141b" d="m510.74 176.26-28-26.1-17.99-16.74q-8.82-8.12-11.27-9.52.28 2.6 3.85 11.27l8.4 18.41q3.22 6.65 2.38 7.35-.84.77-6.3-4.2l-28.9-25.76q-15.69-13.72-20.38-16.94 2.8 8.4 17.3 37.45 3.84 7.77 3 8.2-.84.41-7.07-5.26-17.43-15.96-31.22-28.07-16.94-14.84-20.86-17.08.28 4.13 7.21 19.04 7.07 15.26 12.6 23.1l-1.68-.14-2.24-.9q-5.88-8.34-13.09-24.65-7.7-17.64-5.1-19.67 1.04-.84 5.6 2.52 7.06 5.18 27.08 23.03l22.68 20.3-3.15-7-3.85-8.54q-7.7-16.24-9.8-22.12-1.47-4.13-.56-4.83.98-.7 5.46 2.94l26.18 22.61 22.12 19.4q-7.77-15.2-10.85-24.79-2.52-7.9-1.12-9.03 1.47-1.26 7.63 3.71 6.72 5.4 26.18 23.8 37.31 35.21 52.36 45.71 19.32 13.3 51.52 40.04 35.77 29.61 45.43 41.86.5-7.63.14-18.62-.35-10.99-1.4-21.14-.77-7.84.21-8.26 1.12-.42 4.55 6.93 15.61 33.4 21.7 57.68 2.8 11.13 4.41 26.53 1.26 11.83 2.03 29.26l-2.45-.49q-1.33-30.38-7.42-54.67-3.92-15.54-10.57-33.32-5.1-13.86-10.15-24.57 1.12 10.92 1.75 22.05.63 12.46.21 19.95-.28 4.48-1.19 4.7-.84.2-3.57-3.16-9.87-12.04-45-41.23-32.7-27.23-52.37-40.8-8.54-5.89-24.43-20.24"/><path fill="#0f141b" d="M481.7 229.25q-4.42-2.24-12.33-4.76-9.87-3.22-16.3-6.3-11.35-5.25-25-14.7-32.97-22.89-66.57-50.68l-21.42-18.48q-5.67-5.18-7.28-7.42-.98-1.4-.42-2.1 1.33-1.68 12.81 3.15 15.05 6.23 44.66 21.21 25 12.67 29.68 15.54 3.08 1.82 2.87 2.45-.28.63-3.5-.9l-51.73-24.79q-22.82-10.92-28.28-12.46 7.42 7.77 32 27.37 29.25 23.38 59.5 44.38 14 9.66 24.07 14.91 7.7 3.92 15.68 6.51 8.33 2.73 12.6 4.9.63.35-1.05 2.17"/><path fill="#efefef" d="m175.58 316.26-1.6-6.79q8.25 4.13 26.1 20.51l23.6-1.6q3.35 0 12.1 5.38 2.52-4.48 8.75-13.09l9.8-13.5 16.17 9.51 17.64 10.71q6.23 4.06 14.63 7.91 7.63 3.57 13.65 5.4l-2.59 14.83-62.37 124.95q-9.73 10.43-25.13 20.72-13.58 9.03-25.55 14.21l3.64-13.09q-5.1 4.62-14.56 10.08-7.98 4.62-13.3 6.72.28-5.6 3.15-18.4 2.73-12.12 5.95-23.1-6.5 7.7-20.93 15.11.35-7.98 5.88-20.02 4.83-10.57 9.87-16.73-4.55-4.4-14.7-7.07-3-.84-5.67-2.66-2.3-1.68-3.64-3.57-3.7-5.25-10.7-13.93-8.2-10.22-13.1-15.19l-2.94-3.22q-1.26-1.75-1.96-4.13l-3.43-9.24-4.83-12.25-4.55-5.32-4.69-4.69q-1.82-1.54-16.87-9.66l-23.03-12.39-13.51 4.41-2.66.63q-1.26-.07-2.73-1.12-1.26-.84-5.67-6.3l-7.14-8.75q-6.3-7.14-20.3-17.92 8.05-.35 22.12 5.11-12.39-12.8-39.41-22.26 12.11-1.47 28 3.64 12.74 4.06 25.76 11.48 11.34 6.51 23.94 9.6 3.01-1.83 5.18-1.97 2.45-.14 5.53 1.61 4.06 2.31 19.88 6.16l8.61.77 7-1.12 8.75-2.17 10.3-2.24q-2.04-5.6-4.14-12.46l-3.36-10.78q5.25 1.4 13.3 6.1-3.99-10.58-12.95-27.8 7.7 4 20.3 13.51 11.9 8.96 18.41 15.47m435.68-15.75q-3.85 1.4-6.44 8.05-2.66 6.72-.98 11.62L593 315.14q.07-5.6 1.68-11.48 1.47-5.18 3.71-9.17 6.02 3.85 12.88 6.02m53.05 82.04-4.34-3q-1.75-.99-2.94-4.7-1.05-3.43-.9-6.37.2-2.52 3.63-4.97 3.22-2.38 6.37-2.8 3.85-.49 9.17 2.52 4.97 2.8 9.31 7.7 2.73 3.15 2.17 7.21z"/><path fill="#b5b5b0" d="M579.41 386.2q3.43 27.71-3.43 42.2-10.85 22.9-41.5 32.9-30.1 9.73-60.7 1.4-3.64 5.6-15.05 11.34-11.9 5.88-22.89 7.07.28 10.15-5.39 16.94-4.4 5.32-12.88 9.03-.14 5.4-.77 8.9-.63 4.05-2.24 8.18l-24.29 28.56-6.44.63q-4.27.98-7.77 3.78l-12.25-15.4q1.05-4.69 5.81-9.66 4.34-4.55 10.01-7.56 4.27-2.17 4.9-4.9.56-2.1 2.38-5.95-3.5-4.83-6.72-13.72-3.64-10.08-2.66-15.12 1.05-5.6 6.72-11.97 5.67-6.58 12.32-9.52-5.53-7.98-5.04-19.8.5-11.2 6.16-23.6 12.32-26.8 36.54-40.32l54.81-14.28q4.76-2.66 9.17-6.5 4.27-3.72 4.97-5.68.63-1.89.21-5.88-.49-4.06-1.89-8.75l6.23 6.58 4.48 5.53 2.1 1.82q.98.35 2.1-.49 2.03-1.54.98-6.02-1.05-4.55-2.38-19.46 10.15 13.1 27.02 25.27l2.24 1.96q.84 1.33.98 4.2l-.07 9.17-.77 10.36 10.01-15.6q7.35-10.79 11.06-13.3 1.61-1.2 2.94.62 7.77 11.27 11 37.03"/><path fill="#efefef" d="M568.07 41.37q4.2 5.46 6.58 11.55 1.96 5.04 3.15 11.69.91 5.39 3.78 10.08l6.58 8.9 8.61 7.27q6.23 5.11 8.4 8.47l12.4 18.27q9.1 13.93 11.33 21.56 1.68 5.88 2.1 14.35.5 9.6-1.33 14.42 1.75 1.96 2.73 4.55.98 2.52.56 3.85-.49 1.33-4.9 3.78-4.48 2.52-8.19 3.36l-3.64-.98-.98-4.4-.98-5.33-5.04-4.55q-2.8-24.15-6.09-36.4l-3.08-2.45-9.52-10.78q-5.18-6.02-9.17-11.55l-5.67-8.12q-2.38-4.06-3.57-8.75-.98-4.4-3.78-6.79-1.96-1.68-7.07-3.85-12.46-3.57-19.39-7-12.04-5.95-26.1-22.75-7.78-9.31-18.14-14.21-5.67-2.66-19.32-6.44 4.76-1.68 7.77-2.31 4.97-.98 9.38-.14-3.92-5.88-13.5-11.2-5.68-3.08-17.37-7.84l24.5-.98q15.12.91 26.46 4.83-3.43-5.11-14.77-10.5 20.16 2.73 31.43 8.33 18.41 9.1 35.84 32.06"/><path fill="#efefef" d="m576.68 150.64 2.6-3.43q.83 1.54 3.91 3.71l4.55 2.87q5.81 3.43 13.44 8.82 9.52 6.65 13.8 10.85 0 4 1.25 9.03l-15.26-4.55q-4.4-1.47-6.65-4.55-10.57-14.35-17.64-22.75"/><path fill="#fdd23f" d="M591.1 155.54q10.08 6.23 16.52 11.55-2.3 1.2-5.18 1.4-3.22.35-5.46-.77-2.52-1.19-4.2-4.48-1.75-3.5-1.68-7.7"/><path fill="#e6e6e6" d="M382.85 235.06q-14.7-9.59-14.42-11.55.28-1.47 18.27-1.12l26.88 1.54q-2.03 2.8-2.45 7.63-.2 3.15-3.57 18.2-11.34-5.95-24.7-14.7m14.27 66.01 7.5 11.55-14-2.45-1.76-1.89q-1.26-1.12-2.3-1.6-2.39-1.2-8.48-6.3l-10.78-9.32q4.34-1.33 15.33-3.64l16.17-3.36-2.94 10.85q-.56 1.96-.2 3.36z"/><path fill="#dbe7ed" d="m583.05 115.57 20.1 16.24q1.6 6.44 3.7 19.04 2.03 12.18 2.38 17.36-5.46-4.4-12.6-9.1-7-4.62-11.9-7.14-3.15-1.6-6.3-5.39-2.3-2.8-5.88-4.48-4.06-1.82-8.68-1.68l-6.79-.56q-2.8-.98-5.1-.98-2.67 0-5.47-1.82-7.56-4.97-21.14-13.09-2.66-1.54-4.34-6.86-1.68-5.46-5.6-9.38l-14.98-14.28-19.39-18.83q-2.66-2.66-3.08-5.81l-.35-5.95q-.07-1.89.63-2.1.63-.21 2.45 1.12 4.76 3.71 17.92 12.74l-11.06-15.05-8.6-11.55q-1.69-2.38-1.55-3.71l.56-4.9q16.6 13.58 31.85 24.15Q530.27 77.63 545.18 84q8.33 3.57 17.15 12.81 7.21 7.42 20.72 18.76"/><path fill="#fff" d="m595.3 174.72 2.45-2.38q1.47-1.19 1.96-1.12.56.14 1.2 2.24l.97 4.27-3.36-.98q-2.03-.9-3.22-2.03m7.14 3.58q3.64-5.4 4.7-5.05.55.21 1.18 2.52l.63 4.41q-1.47-.07-6.5-1.89m-4.91-18.76 6.51 4.97q-3.29 3.15-5.95 1.33-2.8-1.89-.56-6.3m79.1 218.75q.7 6.58-3.64 15.4-3.78 7.7-7.77 10.92l-.35-14.07-.9-10.7q-.5-2.74 1.4-4.98 1.88-2.3 4.61-2.45 2.73-.07 4.55 1.47 1.82 1.61 2.1 4.41"/><path fill="#fff" d="M679.23 389.27q-1.26 6.8-4.2 14-2.52 6.3-4.9 9.6-1.82-7.43-2.38-10.79 4.9-6.16 7.63-13.37zm-2.31-6.44v-2.8l4.97-3.92q2.45-1.54 4.13 1.4 3.3 5.95 3.36 14.63.14 7.42-1.89 12.81-5.32-13.16-10.57-22.12M601.67 526.9q9.66 3.77 16.38 12.94 6.23 8.54 6.1 15.75-5.75-3.99-14.29-7.98-7.63-3.57-13.93-5.53-1.33-5.1.5-9.59 1.74-4.2 5.24-5.6m41.03-1.26q4.47.77 9.02 6.02 4.13 4.76 5.4 9.38 1.11 4.13-2.74 2.38-1.33-.56-3.99-1.26l-3.85-.7q-.56-5.32-3.85-15.82m-216.29 5.39q9.44 2.24 15.46 11.34t5.4 19.95q-.08 1.47-.78 1.68t-1.47-.98q-2.8-3.92-8.4-7.35-5.32-3.22-9.73-3.92.42-13.23-.49-20.72m-65.31 17.85q4.13-13.65 9.17-14.14 3.71-.42 5.81 5.46 2.03 5.74 1.05 12.81-.56 4.06-4.27 5.81-5.88 2.94-12.04 10.78-1.47 1.9-2.24 1.82-.77-.14-.84-1.82-.28-8.54 3.36-20.72"/><path fill="#dbe7ed" d="M559.46 182.77q-3.15-.07-9.1-5.53-5.32-4.97-6.86-8.12-.9-1.89-.84-4.2.07-2.38 1.12-2.87 4.34-2.1 14.35-5.74 8.4-3.08 15.54-5.39l2.45-.14q.91.28 1.96 1.68l10.01 13.02q7 9.31 8.33 10.3 2.31 1.81 16.1 5.6l16.73 4.4-27.93 10.15-2.66.77q-1.05 0-2.45-.77-3.5-1.89-16.45-6.37zm-9.45 36.19 13.3 8.4q9.38 5.81 14.35 7.77 4.83 1.96 18.83 17.08 10.3 11.2 20.23 23.45 1.61 1.96.84 3.43-.7 1.33-3.15 1.82-6.86 1.33-12.74 8.4-5.6 6.8-7.2 15.05-8.2-19.25-24.16-35.7-10.99-11.34-24.99-20.65-2.17-5.25-3.29-12.67-1.05-7.56-.56-13.72 2.24-2.3 4.06-3.36 1.05-.63 2.03-.42.91.14 2.45 1.12m-51.94 45.71-17.15-.49q-10.36 1.68-12.8 4.97-6.73 5.04-15.76 15.9-4.97 5.94-12.88 16.58-1.33 1.9-2.94 2.6l-3.36.62-17.57-1.4-16.38-2.94q-4.76-.98-3.36-5.6 4.2-14.28 8.9-33.8 5.31-22.2 6.5-31.5.42-3.79 3.36-6.17l3.64-4.13 3.71-5.8q1.75-3.02 4.55-2.1 13.58 4.54 36.61 15.11 20.51 9.31 36.4 17.78 9.38 5.04 20.44 17.36 10.43 11.7 15.4 21.84-26.18-15.19-37.3-18.83"/><path fill="#dbe7ed" d="M468.11 269.15q4-3.78 13.23-4.9 8.26-1.05 16.73.42 4.9 4.9 7.07 16.17 2.03 10.57.63 20.8-.9 6.57-6.72 9.8-5.8 3.28-14.63 2.23l-11.76 12.4q-6.09 5.8-14.98 5.31l3.85-3.43q1.05-1.05.21-1.75l-2.03-1.4-1.19-.56-1.89.21q-2.3.77-7.63 3.15-5.39 2.38-8.33 3.92l-7.9-5.1q.62-2.95 2.51-8.2 1.68-4.97 2.45-6.3l6.3-7.49 7.28-8.26q3.92-4.48 7.56-6.79l2.38-1.54q.84-.7 1.33-2.38l2.03-6.58q1.82-5.53 3.5-9.73"/><path fill="#dbe7ed" d="m455.58 337.54 10.5.63q3.15 1.05 4.83 5.46.56 1.54 1.33 2.45l1.68 1.75 8.26 8.12q4.13 4.55 5.25 6.58 1.82 3.15 5.6 5.67 4.9 3.3 9.03 8.05 2.94.7 6.3 4.2-2.17-1.05-4.27-.7-1.82.35-2.38 1.4-1.26 2.8-.07 7.28 1.26 4.55 4 6.23l.7 2.24-6.3-.14q-3.16 1.12-5.05 4.7-1.05-4-3-7.57-2.32-4.27-4.35-4.2-3 .07-4.34 5.32-1.26 5.04.14 8.54-3.7-2.94-6.93-7.84-2.45-3.57-7-5.74-4.34-1.96-11.27-8.12-6.23-5.6-11.13-11.34-11.34 1.96-22.26.28-13.16-2.03-22.47-9.03-3.78-2.94-7.28-4.27-2.59-.98-8.12-2.03l-52.57-10.15q-13.5-2.52-22.75-5.95-10.57-3.99-24.78-12.46-42.84-25.76-59.85-33.74l-2.52-1.6q-.9-.85-1.4-2.25l-5.95-13.65q5.32.28 19.67 5.74 10.08 3.78 19.04 7.91-7.35-9.66-25.69-21.77-14.84-9.8-29.82-16.87-2.03-.98-3.08-2.03-1.12-1.12-1.6-2.87-8.9-30.17-11.7-36.19-1.89-4.27-8.96-14.14-6.58-9.3-11.97-15.68-5.25-6.09-9.3-13.3-.92-1.54-.22-2.17l2.45-.14q42.56 11.97 95.83 41.8 48.72 27.15 85.12 56.9l27.1 24.43q18.2 16.73 25.4 21.35 1.75 1.12 7.35 8.68l7.28 9.52q2.17 2.1 9.1 5.18 5.95 2.66 11.06 4.2l-3.36-3.57q-1.47-1.47 0-2.38l3.3-2.03q2.37-1.47 4.68-2.59.84-.42 1.54-.35l2.38 1.12q12.4 9.24 19.11 9.24 2.24 0 3.71 1.9"/><path fill="#dbe7ed" d="M487.64 389.7q4.06.06 7.28 12.03 3.08 11.48 2.17 20.37-3.29-3.29-7.42-8.82-4.2-5.74-6.23-9.73-1.96-3.85-.28-8.96 1.61-4.97 4.48-4.9m8.12 14.71-.77-2.95q1.47-2.94 4.34-4.4 3.15-1.55 6.86-.64 2.03 6.58 4.9 19.74-6.16-2.87-15.33-11.76m6.16-23.79q1.96-1.55 5.25-.43 3.43 1.12 6.86 4.76 8.47 9.17 10.5 25.76l-9.45-8.19-9.1-7.7q-3.43-3-4.76-7.84-1.33-4.76.7-6.37m-40.74 3.78q3.5 3.92 10.08 13.02 6.51 9.1 7.21 10.92.63 1.54-3.22 23.03l-5.74 30.17q-2.73 14.21-15.54 39-.84 1.74-1.75 1.46-.84-.28-.9-2.1-.57-10.92.27-39.62 4.06-2.52 4.9-13.09.42-5.53 0-22.05-.28-9.66-5.04-17-5.1-7.92-16.52-15.06l-1.19-21.84h6.72l6.65-.7q3.64 4.62 14.07 13.86m114.73-15.89 2.8.21q1.61.35 3.71 1.68 12.6 7.84 27.37 18.97 17.01 12.81 19.32 17.22 2.52 4.76 3.92 18.9 1.4 14.07-.2 18.97-1.55 4.76-10.16 16.66-8.33 11.41-14.9 18.13 5.45-31.15 4.05-41.65-1.19-9.1-10.08-18.55-6.58-6.93-15.6-12.46-2.8-1.75-5.68-1.68.35-9.24-.77-18.69-1.26-9.94-3.78-17.7m-14.84 121.58q-.56-1.96-.14-3.5.5-1.6 1.75-1.75 1.4 1.96 10.3 9.94 9.3 8.33 12.45 12.32 1.47 1.9 4.83 2.66 10.71 2.31 22.26 5.6 3.36.91 5.81-1.12 2.8-2.3 2.31-7.14-1.05-10.36-3.92-17.08-.7-1.54-.2-2.38.62-.84 2.1.28 10.77 8.2 19.45 26.25 8.75 18.27 8.75 33.11 0 2.03-2.24 1.12-4.9-1.89-11.83-3.7-8.4-2.18-12.8-2.25-4.7-7.56-12.82-12.74-9.45-6.02-19.74-5.8-8.89.13-13.72-7-3.57-5.26-7.49-13.87-3.36-7.42-5.1-12.95M390.7 553.35q-.5-.98-.43-2.52.56-10.43 5.6-29.26 4.9-18.2 8.54-24.64.84-1.54 1.75-1.47.84.07 1.26 1.82 4.41 19.18 7.14 26.88 2.66-8.4 2.87-14.98 0-1.96.7-2.3.63-.36 1.75 1.04 5.81 7.14 7.14 29.47 1.26 21.7-2.73 34.44-1.05 3.57-4.06 2.1-6.23-3.15-14.98-9.03-8.68-5.8-13.02-9.73z"/><path fill="#fdd23f" d="M609.86 136.64q-.63-1.75-1.96-2.94l-3.57-2.3q-2.73-7.29-11.4-34.94-.57-1.82.13-2.17t1.68.7q6.3 6.65 18.27 23.03 11.76 16.03 13.1 19.46 1.25 3.15.55 15.61-.7 12.25-1.68 12.25l-2.3-1.19-2.8-2.24q-5.33-11.34-10.02-25.27"/><path fill="#b5b5b0" d="M564.08 154q-5.18 1.9-15.26 6.16.56-1.89 3.92-7.56-9.8 2.73-16.45 6.16 2.66-4.83 10.22-10.36 3.36-2.52 11.97-7.9l8.9.13q2.86-.07 6.36 2.03 3.43 2.03 5.74 5.04l-2.8 2.94q-3.57.07-12.6 3.36"/><path fill="#efefef" d="M562.9 192.64q1.11-3.64 3.28-7.35l24.43 8.26q-7.28 4.9-20.44 28.35-1.05-7.63.21-18.9-2.87 3.08-7.7 5.25 2.03-7.35 6.51-15.82z"/><path fill="#b5b5b0" d="M543.01 167.72q.63 4.34 12.11 13.44 1.68 1.33 5.25 2.52l5.81 1.61-1.19 2.52q-10 7.07-15.19 13.58-6.72 8.61-8.26 19.67-2.8 19.32 12.95 48.3-10.64-4.06-20.86-12.67-11.34-9.59-14.77-19.18-4.34-12.32 1.96-33.39 6.93-23.24 22.2-36.4m87.35 144.41-4.13-1.82q-3.08-1.19-5.18.42-1.96 1.47-3.43 4.62-1.68 3.43-1.75 7.14 0 1.96 1.33 3.43l3.01 2.17q-.9.91-2.73.7-1.47-.14-2.8-.84l-6.3-2.66q-4.55-2.17-5.1-7.28-.5-4.83 1.32-9.3 1.54-3.86 4.41-6.66 1.9-1.82 4.62-2.03 2.8-.28 5.04 1.26 3.3 2.17 9.24 4.9 2.87 1.33 2.45 5.95m45.57 51.45q-3.22-1.89-5.74-2.52l-5.32-.28q-2.17.35-4.83 2.38-3 2.17-3.57 4.41-.7 3.01.63 7.56-2.24.28-4.62-2.24-2.52-3-4.62-6.65l-1.26-2.73q-.42-1.4 0-3 1.2-5.12 5.81-8.83 4.48-3.64 9.73-4.06 2.66-.2 4.41.77 1.61.77 2.94 2.73l5.81 8.12q.84 1.12.98 2.17zM567.1 293.44q6.64 6.16 15.67 24.64.91 6.65-1.6 15.61-1.2 4.34-5.19 14.42-1.6 4.13-.9 9.1.55 4.62 0 8.26-1.97-6.58-4.42-12.04-2.52-5.53-3.64-5.67-1.54-.2-6.09 5.4-3.78 4.61-6.44 8.95l.63-7.9q.07-3.86-.63-7.36-.77-4.13-5.46-12.6-4.97-8.96-9.59-13.86 4.2-4.97 8.26-14.2 1.82 3.21 1.96 8.81.14 4.7-.77 8.9 6.65-3.44 11.76-11.14 5.95-8.96 6.44-19.32m13.37 111.44q2.6-.56 6.02 1.68 14.28 8.96 20.16 17.92 6.44 9.8 5.53 23.24-4.4 7.63-15.6 11.41-7.78 2.6-24.5 4.62-9.25 1.12-11.77 7t2.38 14.07q-1.33 0-1.82 1.4t.07 3.43q2.24 7.28 5.74 14.63 4.27 9.17 8.9 14.98 2.37 3.01 6.01 4.06l6.8.7 7.06.77q3.64.84 5.74 2.17-3.64 1.9-4.97 6.93-1.12 4.2-.28 8.2-7.84-3.02-26.1-7.29l-26.4-5.6q-2.24-.42-3-1.47-.78-1.05.13-2.38 1.33-2.1 7.42-6.65 2.17-1.68.7-3.43l-5.95-7.56q-10.43-1.75-20.23-8.96-10-7.42-11.27-14.7-.63-3.92 1.12-9.3 1.82-5.82 5.4-9.74 28.06-4.83 44.16-18.4 18.76-15.9 18.55-41.73m-356.58 79.03-4.69.28q-1.68-.63-1.6-3.08.34-6.93 3.35-17.15 2.73-9.45 6.44-17.36-4.69-21.98 1.12-42.56 6.72-23.59 26.18-40.39-2.66-7.2-5.04-17l-3.15-14.5q-.56-2.52.42-3.29.98-.84 3.43.7 13.51 8.54 42.63 19.11 26.04 9.45 44.31 13.58 3.64.84 5.53 2.03 2.1 1.26 2.73 3.43 1.4 4.83 3.3 9.8 12.03 4.2 21.13 17.22 7.98 11.48 10.71 24.92 2.52.56 6.86-1.4 5.67-2.38 13.44-4.2-4.4 8.47-7.14 18.34-3 11-2.1 17.71-6.16-2.1-8.6-3.85-1.06-.7-2.25-.9-1.4-.15-2.45.55l-1.47 4.9q-.98 3.36-1.19 4.9l-.56 10.08-.28 11.27q0 2.8-1.89 3.43l-4.76-.42-19.1-3.85q-8.69 4.76-20.03 7.63-11.2 2.8-20.23 2.52-4.9 4.41-7.2 5.18l-5.54-.49q-15.6-4.76-21.07-6.23-11.76-3.08-20.44-3.92-12.8-1.19-30.8 3.01"/><path fill="#efefef" d="m549.17 160.02-3.43 1.26-2.3 1.4q-.92 1.2-.43 5.04-11.97 10.5-18.97 28-6.58 16.45-6.23 32.41.14 5.74 1.12 9.45 1.2 4.41 4.13 8.33 5.18 6.93 14.14 13.44 8.12 5.88 17.3 10.01-3.5-6.5-9.18-21.35 18.2 11.2 32.9 29.33 15.61 19.18 19.6 37.17-4.48-6.86-16.8-15.75 2.31 4.83 2.73 11 .35 5.52-.84 8.95-1.75-5.04-6.72-12.95-4.76-7.42-9.1-12.32-.77 9.52-5.46 17.43-4.83 8.26-12.74 13.02 1.2-3.64.77-9.17-.42-5.32-1.96-8.54-3.57 9.1-10.5 16.6-6.3 6.85-11.62 8.6 2.17-4.55 2.73-11.06.56-5.8-.28-10.29-2.45 2.73-6.23 5.53-3.57 2.6-6.72 4 0-7.64 6.8-18.14 5.66-8.89 12.1-14.2 2.38-1.9 1.4-3.72-9.3-17.78-22.6-29.26-11.42-9.87-31.65-19.67 4.13-21.7 22.4-47.04 18.2-25.2 34.1-31.5l-1.34 2.73q8.12-3.92 16.45-6.16-1.96 2.87-3.57 7.42"/><path fill="#efefef" d="M515.22 320.25q9.66-6.37 12.81-10.22.77 4.83.14 11.13-.63 6.86-2.59 10.22 3.36-.9 7.5-4.34 3.77-3.08 6.36-6.65 4.7 5.32 9.38 13.44 4.7 8.12 5.6 12.4 1.26 6.15.35 15.4l-10.15 15.04q.84-8.33.63-18.76-.07-2.73-.84-4.06l-2.38-2.1q-6.5-4.55-13.3-10.64-8.6-7.77-13.72-14.63-.2-2.24.21-6.23m-163.59 65.87q10.08.63 17.22 8.54 6.58 7.21 10.43 20.02-5.04-8.33-9.87-12.88-6.65-6.23-13.44-6.02zm-23.1 1.61 2.8 2.94 2.1 3.15q.7 1.2.28 1.96l-1.89 1.75q-9.8 7.91-13.44 22.82-3.78 15.61 1.9 29.12.83 2.03-1.06 2.66l-12.1 4.34q-8.34-17.15-2.39-39.06 6.3-23.03 23.8-29.68m-65.59 22.4q3.64-13.72 11.2-24.36 7.77-10.99 18.13-16.24l1.9-.7q.9-.14 1.81.5l5.6 4.05q-20.65 11.27-28.14 38.78-7.42 27.37 3.3 52.01l-5.82 1.75q-2.3.63-3.29-1.05-12.74-24.57-4.69-54.74"/><path fill="#fff" d="M381.8 227.78q-1.33-.28-1.26-.9 0-.57 1.4-.5l29.82 3.01-.9 4.76q-10.86-3.08-29.06-6.37m14.42 66.43-23.24 1.75-1.6-1.33q12.52-2.87 26.03-4.97z"/><path fill="#b9c3c9" d="M479.52 60.83q24.71 18.2 36.54 25.9 14 9.17 21.91 22.68 3.71 6.23 14.5 13.51 12.03 8.12 24.5 11.2 5.94 1.54 10.56 5.4l19.95 15.81 2.03 12.95-11.34-8.12q-6.37-4.2-9.1-5.6-4.83-2.52-9.24-6.65-3.85-3.78-6.02-5.18-3.5-2.17-7.49-2.17l-10-.98-4.2-.56q-2.88-.35-4.56-1.54l-10.7-6.44q-9.25-5.39-11.14-6.72-1.68-1.12-2.38-2.17l-1.26-2.59-2.66-6.86q-1.54-2.8-4.4-5.53l-18.49-17.5-16.66-16.1q-2.45-2.45-2.45-5.81l.14-5.95q.07-1.19.5-1.4.41-.28 1.46.42m150.01 124.6-8.75-2.1 6.51-2.52zm-65.17-3.57-6.09.98q-1.6-.14-7.9-6.02-6.17-5.67-6.73-7.14-.63-1.54-.63-4.9 0-2.24 2.38-2.24l12.53-.14 2.1.28 1.54 1.12q5.6 5.18 10.85 14 .91 1.54.42 2.17l-2.3.63z"/><path fill="#b9c3c9" d="m578.43 189.5-19.39-6.87 13.37-2.52q11.55 2.45 15.96 4.9l5.81 3.01q2.94 1.4 4.83 1.33l10.43-1.47q9.52-2.24 19.04-1.89l-14.42 5.4-12.39 4.54-5.1.21zm39.07 88.47q.06 2.38-5.68 4-4.9 1.32-10 7.76-5.05 6.44-7.5 14.5-5.74-14.15-15.75-25.9 8.47 2.58 20.16 2.3 10.71-.2 18.76-2.66m-24.01 31.29q-1.33 6.16-.2 13.23 1.11 7.07 4.05 12.18 3.78 6.3 5.04 9.94.77 2.31.14 3.01l-2.59.14q-3.92-.9-10.08-3.92-5.95-2.87-10.36-5.88 3.01-7.7 3.3-18.55 1.32-4.97.9-10.36-.42-5.46-2.52-9.94 8.33 5.46 12.32 10.15m-130.55-24.5q-.63 2.52-3.15 4.06-3.7 2.24-6.3 4.55l-7.98 9.1-7.77 9.45q-1.05 1.47-1.96 4.7l-1.89 6.71q-8.82.42-18.4 3.43l-2.1.21q-.57-.2-1.27-1.54-10.64-18.34-15.68-25.76 18.2 4.7 36.54 5.25 2.6.07 4.13-.84l2.52-2.8q5.11-7.2 13.51-16.87 9.1-10.5 14.84-15.4-2.45 6.37-5.04 15.75m35.98-19.81q7.56 3.15 20.1 9.8 11.05 5.88 17.35 9.8-6.93 4.9-13.09 13.93-5.74 8.47-7.49 15.47-1.19 4.76-.7 14.28.42 10.3 2.6 19.53.9 3.64-1.76 4.48-2.59.77-3.99-1.54-5.1-8.82-15.26-15.96-10-7-22.19-10.43l9.94-10.5q8.75.35 13.65-1.89 5.4-2.52 7.5-8.6 2.3-6.66.48-18.77-1.96-12.74-7.14-19.6m81.69 129.43q13.65 2.1 31.22 17.57Q631 428.82 633.03 445q-4.62 8.2-11.62 17.64-6.93 9.1-13.79 16.31 2.38-11.13 3.64-22.19 1.54-13.58.42-19.53-2.17-11.27-12.6-21.56-9.59-9.38-18.2-11.13.35-6.58-.28-10.15m-124.46 25.82q-.63-7.98-7.14-15.54-4.9-5.67-13.72-11.62l-.2-5.25q9.23 2.87 17.98 10.22t11.2 14.28q2.1 6.02 3.71 21.98 1.68 17.43.77 29.68-2.94 10.64-6.65 19.88-4.06 10.01-7.9 15.61-1.2 1.82-2.18 1.75-1.05-.07-.98-2.24l.56-38.5q2.45-2.87 3.57-5.32 1.26-2.66 1.33-5.74.56-16.73-.35-29.19M454.6 378l-7.07-7-26.53-.77q-9.52-1.96-19.8-9.17-3.37-2.38-6.45-3.5l-7.77-1.96-35.9-6.86q-25.84-5.1-35.15-8.19-10.99-3.64-18.4-7.35-5.12-2.66-12.19-7.35-8.05-5.32-28.07-16.87-23.17-13.3-30.59-16.17l-2.8-1.68-1.12-2.38-5.53-13.09q14.56 3.3 34.86 12.4 17.43 7.83 27.1 14.2 19.45 12.81 39.9 19.6l15.88 4.76q9.24 2.73 14.77 4.9 8.47 3.36 19.6 8.05l16.6 7.28q4.47 2.17 8.18 2.6l6.16-.29q2.8-.49 7.77.98 4.62 1.4 8.33 3.57 4.06 2.38 12.25 4.62 9.31 2.52 16.31 2.52l4.13.42 2.66 1.68q10.5 9.73 18.2 15.47 9.66 7.21 18.06 10.43-2.38.5-4.13 4.27-1.89 4.27-.77 9.24-3.92-2.8-5.95-5.8-3.36-4.77-6.5-5.96-1.76-.63-4.49-2.38l-4.27-3.22zm-30.1-50.33q3.78 5.4 12.04 11.9l-6.58-1.4-5.8-1.89-3.5-3.7q-1.62-1.55-.22-2.46zm31.43 10.08 10.22.63q3.36 1.26 4.83 5.32l1.12 2.31 1.33 1.4q-5.25-.49-10.22-3.29-4.76-2.66-7.28-6.37m26.25 18.55q2.73 2.52 4.83 6.16 1.75 3.01 5.67 5.6l4.9 3.85 5.04 4.83q-1.47-.84-7.2-1.75-2.39-.42-5.47-1.82t-5.1-3q-2.8-4.14-2.67-13.87m8.33 34.02q2.52 1.4 6.23 1.75l6.1-.56 2.8 3.36.34 1.75-5.95.35q-3.15 1.12-5.1 4-2.6-7.57-4.42-10.65"/><path fill="#b9c3c9" d="M484.42 392.35q7.42 10.5 12.46 29.05-9.38-11.27-12.46-16.38-2.1-3.57-2.03-7.2.07-3.5 2.03-5.47m17.01-10.85q15.4 14 22.54 28.42-15.05-12.53-18.34-15.05-3.36-2.52-4.48-6.72-1.05-3.78.28-6.65m5.88 20.86q-1.26-.84-2.45.5-1.19 1.32-.35 3.07 2.03 4.27 6.1 9.94-9.18-6.16-14.5-10.92l-1.12-3.78q1.75-3.08 4.62-4.34l6.51.21zm-100.94 92.82q.5.56 3.3 11.7 3.07 12.52 4.9 17.14-1.76 4.41-4.35 7.21-1.82-8.89-2.87-18.97-.98-9.66-.98-17.08"/><path fill="#b9c3c9" d="M391.11 547.4q10.22 8.96 18.97 14.77 6.02 4 8.9 2.66 2.72-1.19 3.35-7.63 1.4-15.12.7-27.23-.84-15.54-5.1-23.3 6.43 2.23 8.67 25.82 2.24 23.17-2.03 38.92-1.19 4.34-4.69 2.45l-15.6-9.24q-9.18-6.09-12.6-10-.99-1.13-1.06-2.6-.07-1.12.5-4.62m224.69-10.7q9.03 1.18 16.1 3.14 7.42 1.96 9.73 1.2 2.1-.78 1.9-4.98-.22-4.97-1.06-9.3 4.2 13.5 4.2 20.22 0 2.17-1.89 1.33-3.57-1.54-10.99-3.5-8.75-2.24-13.93-2.38zm-53.69-51.6q2.6 9.03 12.25 22.26 10.43 14.35 18.27 17.15-6.16.42-10.85-1.26-4.2-1.47-7.7-5.8-2.66-3.44-6.93-12.6-3.78-8.2-6.23-14.92-.7-1.96-.42-3.22.35-1.26 1.61-1.6"/><path fill="#898885" d="m552.18 144.76 6.58-4.55 7.56.35q3.22-.14 6.8 1.82 3.42 1.96 6.71 5.53l-3.36 2.66q-4.06.7-12.1 3.43-8.9 3.01-15.48 6.23 1.4-3.7 4.27-7.9 4.83-4.7 10.5-7l-5.18-.7z"/><path fill="#c9caca" d="M563.24 192.64q.63-3.5 2.8-7.2 15.12 4.96 23.73 8.4-6.37 4.82-11.69 10.63-5.6 6.1-8.12 11.13v-6.16q0-3.57.35-6.16-2.73 2.38-7.56 4.62l2.73-7.56q2.1-5.1 3.64-7.98z"/><path fill="#898885" d="M542.1 168.7q4.41 5.53 9.45 9.8 5.53 4.55 7.91 4.27l7 2.6-1.47 2.37q-8.68 5.53-15.6 14.77-7.7 10.36-8.13 19.11-.42 9.87 3.22 23.66 3.85 14.7 10.01 23.8-3-.77-6.23-2.52-3-1.6-4.55-3.22-5.04-7.2-7.7-19.95-2.59-12.32-1.54-22.47.91-8.68 3.36-15.68 2.31-6.86 7-14.56-3.85-9.52-2.73-21.98m38.08 217.21q6.16 47.53-28.98 68.25-15.26 9.03-36.12 11.13-20.09 2.03-41.79-2.59l-6.16 7.21q2.87-11.48 6.16-28.35l4.2-23.1q3.22 5.95 4.41 16.73 13.16 4.62 29.47 3.85 16.52-.7 31.15-6.72 15.75-6.5 25.41-17.64 10.78-12.39 12.25-28.77"/><path fill="#898885" d="M533 473.27q-5.8-5.25-14.77-8.6 29.26-5.12 44.73-18.98 16.94-15.12 17.92-41.16 11.76 3.3 21.14 14.07 11.48 13.23 10.5 30.03-6.65 7-15.26 10.3-7.84 3.07-19.46 3.7-8.05.42-12.95 3.5-4.69 2.94-5.25 7.5-4.83-.15-9.87 4.47-5.46 5.04-5.46 11.41-4.76-10.29-11.27-16.24"/><path fill="#898885" d="M544.83 507.15q-3 2.03-14.07-3.43-11.76-5.88-16.52-13.3 9.8 2.24 15.54-2.45 5.6-4.62 4.41-13.16 7 6.02 10.78 17.92 3.78 11.76-.14 14.42"/><path fill="#898885" d="m548.4 514.36-5.6-6.72q2.38-.14 3.78-2.59 3.92 5.25 6.1 9.24 1.25 2.31 1.04 3.64-.2 1.2-1.96 2.52-5.39 4.2-1.4 4.7 26.32 3.21 45.43 10.35-.42 2.52-.28 6.65-12.88-4.34-27.65-7.98-13.86-3.43-23.87-4.83-6.5-.98-2.73-4.97.91-.98 6.93-6.23 1.9-1.82.21-3.78"/><path fill="#dcdddd" d="M595.51 542.15q-.14-4.13.28-6.65 21.91 8.2 28.21 19.67-7.84-6.09-28.49-13.02"/><path fill="#898885" d="M456 452.48q-1.12 4.83-4.4 7.98l-.5 16.73-10.36 3.01-9.45 1.75q0 11.9-5.95 21l-7.63 4.48-1.12 8.05q-.9 5.18-2.17 8.2-3.64-11.2-6.65-26.12-.42-2.17-1.26-2.45-.77-.28-1.68 1.47-3.15 6.3-5.95 14.28-3.22 8.96-4.55 16.1-1.26-4.4-3.78-7.2-2.3-2.6-4.97-3.16l1.26-2.59q-3.64-5.6-6.58-14.56-3.08-9.24-3.08-15.05 4.76 3.71 12.25 3.01 7.5-.77 11.06-5.46l2.6-10.29q-17.86-17.57-8.83-43.6 10.08 14 29.9 17.84 19.03 3.64 32.9-4.27-.36 7.7-1.06 10.85"/><path fill="#dcdddd" d="M358.56 571.27q2.03-8.05 6.72-14.98 4.97-7.28 11.83-11.48.56 6.65-.2 9.6l-.92 2.44-2.52 1.61q-4.55 2.1-9.59 7.77-4.48 5.04-5.32 5.04"/><path fill="#898885" d="M377.11 544.81q6.93-4.27 14.77-4.55-.77 4.27-1.68 12.25-3.08.14-7.2 1.26-4.56 1.33-6.94 2.94.98-2.45 1.26-5.74.35-3.36-.2-6.16m227.35-235.83q5.95 4.2 12.74 6.3-3.64 9.66 2.45 12.25-.84 2.17-5.04.63-4.34-1.75-7.49-3.5-2.94-1.75-3.64-6.72-.7-4.69.98-8.96m48.86 41.93q3.22 6.02 7 11.62-1.6 1.26-2.8 3.08-1.26 1.9-1.4 3.15-.07 2.66.84 6.02-2.73.42-5.04-2.45-2.73-3.43-4.4-6.65-1.83-3.36-.7-6.3 1.88-4.9 6.5-8.47m-391.3 60.41q-2.8 9.52-1.75 24.3 1.33 17.7 8.2 29.95-5.05-.07-19.96-3-14.9-2.95-17.5-4.35-3.85-2.1-5.32-23.66-1.54-23.17 4.2-34.65 6.3 3.36 15.61 6.58 8.2 2.8 16.52 4.83m31.01 49.42q-9.03 2.38-15.82 3.43-4.34-8.26-6.09-22.4-1.96-15.89 1.33-27.37 16.6 5.04 30.8 7.5-1.19 7.41-.7 15.11.7 10.3 4.34 19.32-4.55 1.96-13.86 4.41"/><path fill="#c9caca" d="M259.93 440.51q-1.75-14.42 2.24-27.79 6.37 2.31 10.36 3.15-3.36 11.06-2.52 21.35.91 11.62 7.21 26.95l-6.65 1.75q-2.1.5-3.64-2.17-5.46-10.5-7-23.24m60.69 9.45q.56.91.35 1.33l-1.4.91-12.39 4.34q-3.7-6.44-4.9-15.6-1.4-10.02 1.2-17.72l6.71 2.03 6.72 1.96q-1.05 5.4-.35 10.92.91 6.37 4.06 11.83"/><path fill="#898885" d="M217.8 479.36q3.14-20.02 9.8-32.76.41 3.64 1.4 7.21 1.04 3.78 2.02 4.41 1.12.77 17.85 4.41 17.15 3.78 19.67 3.57 3.92-.35 7.84-1.75 10.5-2.17 22.68-5.67 12.81-3.64 19.88-6.58 1.54-.63 1.75-1.4.28-.63-.35-2.1-4.4-9.87-2.87-22.68 12.6 7.98 37.17 7.63 23.73-.35 40.74-7.84-2.1 6.37-3.08 12.67-1.12 7.21-.2 11.97l-9.46-4.2-4.55.21q-7.2 5.25-15.96 8.96-8.6 3.71-16.59 5.04-2.1.35-3.57 1.2l-2.59 1.74-17.99 13.93L303.9 490q-2.03 1.33-3.57 1.68l-3.99-.42q-23.94-8.96-40.25-10.22-13.72-.98-33.04 3.22-3 .63-4.4-.63-1.34-1.26-.85-4.27m116.68-82.81q-2.66 4.2-3.78 9.17-.98 4.62-.42 8.9l-7.56-5.6q2.38-4.07 5.74-7.57 3.15-3.29 6.02-4.9"/><path fill="#898885" d="M341.34 462.21q2.03-1.12 5.32-1.89 4.7-1.05 11.76-3.64 7-2.59 12.46-5.32-5.8 11.7-18.69 15.96-11.55 3.85-16.52-.56 3.64-3.36 5.67-4.55m-17.57 13.3q10.15 4.2 20.3 2.31-6.79 3.43-15.54 5.81-10.5 2.8-19.8 2.8z"/><path fill="#898885" d="M347.43 476.42q8.2-2.1 14.91-9.8 6.3-7.14 9.17-16.3 3.71-2.04 7-4.56-2.24 6.37-2.59 10.57l-.56 11.2-.49 9.45q-.35 4.76-5.39 3.43-12.6-3.29-22.05-3.99"/><path fill="#c9caca" d="M335.18 466.76q5.74 3.5 15.12.77 10.5-3 19.81-12.67-7.77 15.9-19.8 21.14-11.84 5.11-26.54-.49z"/><path fill="#b9c3c9" d="M505.63 280.21q3.36 20.37-2.59 28.21-5.1 6.8-18.4 5.04l-11.07 11.7q-2.87 3.14-7.28 4.82-4.27 1.61-8.12 1.05 4-3.5 3.92-4.2-.07-.42-1.68-1.54-1.54-1.05-2.24-1.19l-3.08.84q-2.45.91-4.55 2.1.42-12.18 1.54-15.6 2.03-6.3 10.5-14.64 18.27-4.4 22.2-4.97 2.8-.42 5.45-2.17l5.04-4.06 4.55-2.87q3.15-1.68 5.81-2.52m-37.66-10.64q4.83-4.69 14.77-5.6 8.68-.84 16.52 1.26 2.52 3.3 3.92 7.42-9.3-5.74-20.02-4.4-11.27 1.4-17.78 10.35z"/><path fill="#c9caca" d="M515.57 11.48q-3.92-5.25-11.48-9.8 9.94 3.22 17.78 11.83zm-50.96-3.85q20.72.98 39.48 20.23-4.06-1.12-8.47-1.47-4.83-5.25-12.39-10.15-9.3-6.09-18.62-8.61m105.07 77.28q-3.22-4.55-10.29-6.16-11.27-2.52-19.53-7.35-9.59-5.53-19.6-16.38Q510.18 44.1 502 38.5q-10.7-7.28-23.1-9.38 12.6-1.61 26.4 4.34 14.27 6.23 23.16 17.99 7.5 9.94 15.12 15.05 6.65 4.48 16.94 7.42 6.72 1.96 11.06 6.1 4.7 4.4 5.11 10 .35 4 2.8 8.82 1.96 3.85 5.88 9.17l10.15 11.62q6.23 7.35 8.47 11.7l-5.32-2.67q-2.94-4.27-7.63-9.73l-8.05-9.3-6.44-7.85q-2.52-3.5-3.36-7.2-1.4-6.59-3.5-9.67m59.28 94.92q-3.7 2.45-8.19 3.5l-4.27-.77q-1.89-3.92-1.05-9.66 2.24 3.15 7.21 3.92 5.18.77 10.3-1.47-.36 2.03-4 4.48"/><path fill="#dcdddd" d="m599.71 171.5-1.26 5.18-2.73-1.75q1.26-2.87 4-3.43m7.41 1.82q-1.12 3.57-1.4 6.02l-3.29-1.05q2.6-4.4 4.7-4.97"/><path fill="#c9caca" d="M594.32 304.22q4.9 4.13 9.8 6.58-1.05 5.18-.28 9.17l-10.99-5.04.63-5.67 3.85 4.48q-.63-4.27-3-9.52m38.7 23.73q4.7 5.18 18.2 24.36-2.94 3.71-3.99 6.44-16.24-23.59-19.1-26.1-1.62-1.34-4.9-3.23-3.09-1.82-4.7-2.45-1.68-.63-2.24-3.15-.7-2.8.63-6.37 4.41 1.75 9.31 5.04 4.48 2.94 6.8 5.46m23.02 40.39q.35-1.47.84-2.3.77-1.13 2.52-2.1 3.15 4.47 10.92 7.48 8.47 3.22 16.17 1.96.21 3.43-.07 4.41-1.26-2.1-2.73-1.89-.98.21-2.87 1.33-2.38 1.4-3.92 3.01 0-3.78-2.24-6.02-1.96-1.96-4.76-1.82t-4.55 2.45q-1.89 2.6-1.4 6.8-2.17-.99-3.29-1.69-2.03-1.19-2.66-2.73-.84-1.96-1.47-4.76-.77-3-.49-4.13m19.18 20.44 1.54-5.88 3.71 6.51z"/><path fill="#dcdddd" d="m668.73 408.24-.7-6.37q3.36-4.2 7.42-13.09l3.71.63-1.68 6.86q-4.55 7.14-8.75 11.97m1.19-35.49q.5 7.7-.49 15.47-1.05 9.03-3.92 16.31l-.56-13.02-.77-11.62q-.28-2.8 1.05-4.76 1.54-2.3 4.7-2.38m6.99 7.49 3.5-3q6.8 13.78 7 27.64l-5.1-11.76q-3.09-6.5-5.54-10.22z"/><path fill="#c9caca" d="M174.46 309.33q2.24 4.27 7.5 17.01 5.38 12.95 7.27 16.6 1.75 3.35-.63 3.84-2.3.42-3.78-2.66-4.27-9.24-10.36-34.79m-37.1-21.91q6.02 6.65 12.88 19.25 7.07 12.74 10.57 23.66.91 2.87-1.4 3.85-2.24.91-3.5-2.45l-7.56-20.09q-5.67-14.42-10.99-24.22m-.14 21.49 13.02 30.87q8.9 19.81 16.6 31.3 2.16 3.28-.15 4.82-2.3 1.47-4.62-2.38-6.16-10.29-13.09-27.5-8.05-20.03-11.76-37.1m-18.69 74.75-5.39-6.3q-2.66-2.8-5.18-4.2l-37.8-20.5-13.3 4.54-3.64.42q-1.4-.35-2.94-2.17-16.03-20.16-30.59-31.36 7.28 2.66 17.43 10.64 8.54 6.72 14.91 13.72 1.33 1.4 3.29 1.4 1.33.07 3.57-.7 4.83-1.6 12.32-2.73l8.82-.63q2.73.7 10.71 5.53 8.82 5.18 16.8 7.98 4.13 1.4 8.9 1.68l7-.14q5.1-.35 9.51 1.9 3.64 1.74 9.38 6.85 18.83 16.52 42.07 28.14 21.63 10.85 42.28 15.26-.9 7.7-.84 16.38.07 10.5 1.68 18.2-3.22 4.27-6.23 15.26-2.8 10.01-3.43 17.71-.14 2.17 1.12 3.15 1.4 1.12 4.06.56 18.34-4.06 27.37-3.29-8.12 9.45-20.79 18.34-13.79 9.73-28.84 15.75l4.27-13.3q-10.5 8.75-28.49 17.3.98-7.64 3.78-20.24 2.87-12.74 5.67-21.7-3 3.22-10.85 8.75l-10.43 6.86q.91-8.26 4.9-17.64 4.2-10 11.13-19.53-8.12-5.18-13.44-6.09-3.15-.56-5.67-2.17-2.73-1.75-5.32-5.18l-11.27-14.77q-7.42-9.3-12.25-13.79-2.17-1.96-3.36-3.92-.9-1.54-1.89-4.34l-3.92-10.08zm105.21-25.06q14-.28 18.48 1.68 4.76 2.17 8.4 6.93l-2.45 2.94-3.57-3.64q-2.1-1.82-3.92-2.24l-6.02-.7q-4.2-.28-8.33 0z"/><path fill="#898885" d="M371.86 410q6.23 4.47 8.96 9.93-12.32-1.33-20.23-15.19 5.53 1.2 11.27 5.25"/><path fill="#dcdddd" d="M426.81 540.33q16.24 8.82 19.32 23.94-10.5-11.55-19.18-12.25.35-4.83-.14-11.69m218.26-5.53q8.82 4.41 11.83 8.61l-4.76-.98-5.88-1.12z"/><path fill="#c9caca" d="m609.86 169.2 5.11 4.26q-.2 1.75.21 4.55.42 2.6 1.05 4.48l-4.69-1.05q-1.26-6.58-1.68-12.25m-31.99-16.94-1.4-1.68 3.36-2.66q2.03 2.1 6.02 4.7l5.25 2.93.07 1.96q-8.33-2.94-13.3-5.25"/><path fill="#efefef" d="m461.6 328.16-8.6 7.63-6.38-1.33q-3.7-1.33-5.8-2.87 12.73-5.95 15.95-7.14 1.61-.56 2.45 0l2.45 1.54q1.2.98-.07 2.17"/><path fill="#898885" d="M582.56 318.08q.21 3.78-.7 10.5-2.94-10.15-11.2-20.86-1.68 6.16-8.75 11.97-6.02 5.04-13.58 8.05l-2.94.5q-.49-.43-.07-2.67.84-4.69.42-7.49l-3.7 5.11-2.8-2.8q6.01-7.42 8.4-14.42 1.6 2.45 2.1 7.91.41 5.11-.36 9.8 7.98-4.13 13.02-14 4.2-8.19 4.76-16.1 4.34 4.41 9.03 12.25 3.57 6.02 6.37 12.25"/><path fill="#c9caca" d="m525.02 335.02-3.29.28q-.56-.49.14-2.87 1.61-5.25 2.1-12.25-2.45 2.31-4.9 3.57l-4.34 1.9.21-5.96q2.17-.9 6.58-4.2l6.37-5.46q.91 3.57.28 10.15-.63 7.07-2.59 10.85 6.1-1.6 13.65-10.64l2.8 2.8q-7.56 9.03-17 11.83"/><path fill="#0f141b" d="M609.23 168.21q-2.1 1.05-5.04 1.4l-6.16-.28q-3.78-.77-6.44-5.1-2.66-4.42-2.17-9.6l2.8 1.75q-.42 3.71 1.4 7.07 1.9 3.43 4.83 4.13l4.34.14q2.6-.35 4.27-1.26z"/><path fill="#0f141b" d="m600.13 161.84 1.05.77-.84 1.4-.9.14q-.36-.2-.15-1.05.21-.84.84-1.26m-55.23-.49q6.65.42 13.23-.14l2.03.07 1.26.91 5.53 5.88q4.41 5.18 6.72 9.8.98 1.96.5 2.8-.5.84-2.8 1.12l-10.93 2.03-2.66.14q-1.12-.2-2.73-1.26l-6.16-5.1q-3.99-3.79-6.09-6.87-.7-1.05-1.05-3.15l-.07-3.7q.14-1.55.7-2.04.7-.56 2.52-.49m-.14 8.05q1.96 2.94 5.88 6.51l5.95 4.83 1.75.91 1.96-.07 11.41-1.75q.84-.07.42-.77-2.24-4.48-6.5-9.73l-5.4-5.88q-.63-.63-1.6-.56l-13.87.56q-.7 0-.77.5-.28 3.91.77 5.45"/><path fill="#0f141b" d="M572.9 179.48q8.9 1.61 15.12 4.7 1.61.83 1.4 1.32l-1.82-.14q-7.35-2.87-16.24-4.2zm38.15 9.1q-5.32 1.33-11.62 1.33-1.47 0-1.47-.42t1.4-.56l5.46-.7 5.95-1.33q5.67-1.26 9.03-.98 1.33.14 1.33.5 0 .34-1.33.48z"/><path fill="#0f141b" d="M542.66 161.63q6.51-3.36 16.24-6.93 8.9-3.29 15.68-5.1l2.31-.15 1.61 1.47 16.87 22.05 2.38 2.31 2.8 1.2q11.7 4.33 27.93 7.97 2.1.42 2.1 1.33 0 .84-2.03 1.4-2.87.77-14.42 5.32l-12.67 4.9-2.59.56-2.59-.56q-9.24-3.85-39.13-13.65l3.92-1.26q30.8 10.36 36.2 12.6l1.81.35 1.75-.49q23.38-8.4 25.41-9.03-17-3.78-26.46-7.28-2.17-.77-3.29-1.54l-2.87-2.66-16.94-21.77q-.7-1.05-2.1-.7-6.16 1.68-13.86 4.48-8.26 3.01-14.84 6.16z"/><path fill="#0f141b" d="M577.1 150.85q-3.08 4.2-6.44 6.37-1.19.77-1.54.42-.35-.28.84-1.33 2.94-2.59 5.32-6.02zm-18.48 10.71 7.07-2.38 1.54-.14-.98 1.05q-3.15 2.03-5.95 2.94zm38.29-2.1 1.26.84q-.9 1.47-.77 2.94.14 1.33 1.05 2.03l2.52.35q1.54-.35 2.1-1.6l1.33.7q-.77 1.6-2.94 2.1-2.1.48-3.7-.57-1.34-.9-1.69-2.8-.35-2.03.84-3.99m4.62 13.16q.84 2.17 1.26 5.32l-1.96-.49-.63-3.64-.7-1.82q-.7-.14-3.15 3.22l-1.33-1.33q1.54-1.89 2.94-2.8 1.33-.9 1.96-.77.77.14 1.61 2.31"/><path fill="#0f141b" d="M608.04 179.9q-.7-5.67-1.05-5.74l-3.7 4.2-1.83-.7q4.13-5.67 5.95-5.32.77.14 1.47 2.38.77 2.38.98 5.67zm-32.34-29.82 2.73-3 1.68 1.81-2.24 2.52zm44.38 23.59.98 2.87-.14.63-.49-.42-1.4-2.52q-.42-.77.07-1.05.5-.35.98.5m9.66 7.27q-3.78 2.1-7.63 2.87l-3.64-1.19q4-.56 8.47-2.8 4.55-2.3 4.83-3.92.56-3.08-3.99-9.1-1.05-1.33-.63-1.68.42-.42 1.68.77 2.66 2.6 4.2 5.67 1.61 2.94 1.26 4.76-.42 2.24-4.55 4.62"/><path fill="#0f141b" d="M628.83 185.92q-.98-2.3-2.94-4.27l1.9-.9q1.95 2.23 2.72 4.82zm-24.5-53.41q5.32 24.43 6.3 36.75l-2.38-1.26q-1.26-13.23-5.88-35.07-.42-1.89.5-2.52.83-.7 2.3.28l3.85 2.8q1.26 1.05 1.9 2.87 4.96 14.7 10.77 27.8.91 2.02.35 2.23-.56.28-1.6-1.68-5.82-11.27-11.42-27.58-.7-1.82-1.12-2.17z"/><path fill="#0f141b" d="M583.33 135.66q3.08 1.61 7.63 5.4 8.05 6.78 16.52 12.66l.35 3.15q-6.16-4.34-18.13-14.42-4.55-3.92-7.14-5.46-2.66-1.6-5.95-2.3-1.47-.36-1.4-.85l1.61-.28q3.43.5 6.51 2.1m10.43-40.25q-.14.07-.07.35.77 3.22 5.4 16.38l6.85 20.1h-2.45l-11.62-36.06q-.63-2.73.5-3.36 1.04-.63 2.72 1.2 7.07 7.48 19.4 24.35 11.54 15.75 12.73 18.83.91 2.45.42 13.16-.42 8.05-1.12 14-.14 1.68-.9 2.03-.7.35-2.18-.56l-2.66-1.89-1.33-3.5q2.87 2.52 4.76 3.57.42.35.42-.2l.84-14q.28-9.8-.49-11.9-1.05-2.8-12.6-18.77-12.1-16.73-18.34-23.45z"/><path fill="#0f141b" d="M618.26 115.85q11.34 18.41 12.6 27.3 2.24 15.75-.14 25.7l-1.47-1.34q.84-5.8.35-13.09l-1.19-10.92q-1.26-8.89-12.6-27.02-10.36-16.38-16.52-21.98l-9.38-8.26q-4.83-3.85-9.24-6.44-1.6-.98-1.54-1.54l1.75.14q9.6 4.34 20.16 14.07 6.72 6.16 17.22 23.38"/><path fill="#0f141b" d="M577.52 58.1q1.12 6.93 4.34 13.58 3.57 7.42 8.96 12.81l-4.62-2.1q-8.82-9.66-11.13-23.87-.7-4.2-2.3-7.63-1.62-3.64-5.05-8.12Q554 24.5 539.8 14.98 524.74 4.97 505.7 2.31q8.12 4.2 12.25 9.52l-3.5-.42q-2.66-3.01-6.09-5.32-3.15-2.03-8.05-4.2-1.6-.7-1.33-1.33.21-.63 1.96-.56 21 .7 38.15 11.27 16.03 10.01 30.6 29.96 3.56 4.9 5.31 8.68 1.82 3.92 2.52 8.19"/><path fill="#0f141b" d="M519.28 13.58q-9.52-3.78-25.69-5.39-15.12-1.47-26.1-.21 8.88 2.59 16.86 7.56 7.77 4.83 13.37 11.06l-3.36-.07q-5.67-5.81-13.23-10.22-7.2-4.13-17.36-7.7-1.33-.42-1.33-.98 0-.63 1.54-.98 10.5-2.52 27.23-1.05 17.43 1.54 28.63 6.51 2.6 1.12 2.38 1.82z"/><path fill="#0f141b" d="m602.02 130.13-2.94-1.26q-25.27-25.69-26.8-34.5-1.06-6.24-4.56-9.6-3.7-3.57-11.83-5.53-10.78-2.59-19.04-7.91-8.26-5.39-17.64-15.89-9.38-10.43-17.29-15.82-10.92-7.42-23.94-9.1-1.82-.28-1.82-.91-.07-.7 1.26-1.4 4.76-2.52 11.62-2.87 7.14-.42 13.72 1.68 2.03.7 1.9 1.33l-2.18.14q-11.62-2.66-21.7.42 12.46 2.17 23.24 9.38 8.2 5.53 17.08 15.4 9.24 10.36 17.08 15.47 7.84 5.18 18.34 7.7 9.38 2.24 13.23 6.51 2.87 3.22 4.48 10.71 1.54 6.72 27.8 36.05"/><path fill="#0f141b" d="M581.3 115.85q-11.83-10.08-20.93-19.18-7.98-8.12-16.59-11.83-26.8-11.48-65.17-43.89l-.14 3.92q0 .84.77 1.89l10.43 13.79 13.37 17.3-5.32-3.02q-11.13-14-20.23-26.95-1.12-1.54-1.12-2.94l.14-4.27q0-1.89.91-2.24.91-.28 2.45 1.05 13.37 11.27 27.16 21.07Q528.38 75.6 544.7 82.6q9.03 3.92 17.43 12.46 8.75 8.75 20.58 18.9 11.62 9.94 21.42 17.15l-.56 2.31q-10.43-7.49-22.26-17.57"/><path fill="#0f141b" d="M478.96 68.6q.21 2.1 1.05 3.08 4.13 5.04 17.57 17.85 10.57 10.08 18.2 16.87 3.3 3.01 5.11 7.35l2.45 6.16.84 1.47 1.9 1.47 22.11 13.51q1.75 1.12 3.64 1.33l5.18.98 5.53.7 7.84.56q5.25 1.54 9.73 6.58l2.6 2.66 3.56 2.6q7.07 3.84 15.4 9.65 9.73 6.72 13.93 11.27l.21.5q.21 5.17 1.54 9.16l-2.3-.28q-1.27-3.5-1.48-8.12-4.2-4.48-13.44-10.99-7.84-5.46-14.84-9.38-3.57-1.96-6.79-5.6-2.24-2.45-4.13-3.7-2.03-1.4-4.62-2.1l-7.28-.57-6.02-.77-5.1-.7q-2.46-.14-4.42-1.33l-22.26-13.79q-1.54-.9-2.24-1.82-.7-.84-1.19-2.24l-2.45-6.23q-1.54-3.57-4.69-6.37l-18.2-16.94q-13.5-12.95-17.7-17.92-1.48-1.82-1.62-4.69l-.28-6.72q0-2.24 1.05-2.8t2.73.7q23.45 17.57 36.4 25.97 2.03 1.33 1.61 1.96-.42.7-2.45-.56-14.14-8.68-36.26-25.2-.56-.49-.56.07z"/><path fill="#0f141b" d="m560.65 140.7-13.5 8.54q-5.82 4.06-8.4 7.35 5.38-2.66 13.78-4.9 2.73-.77 1.12 1.47-2.45 3.5-4.13 7.56l-2.52.91q1.47-4.06 4.06-7.7-6.65 2.03-13.93 5.6-3 1.54-1.6-1.54 1.95-4.13 8.81-9.24 4.55-3.43 13.51-8.82zm5.05 44.45 1.88.35q-1.82 2.66-3.22 6.1l5.11-.08q1.4 0 .63 1.26-4.06 7.42-5.95 13.65 3.57-1.89 5.88-4.13l.21 2.24q-2.94 2.52-7 4.62-2.38 1.12-1.68-1.4 1.33-4.76 6.44-14.63l-4.83.5-1.26-.08q-.2-.35.07-1.4 1.26-3.43 3.71-7"/><path fill="#0f141b" d="M591.45 194.25q-4.27 3.01-13.02 16.1-7.98 11.9-8.6 11.76-.85-.2-.99-7.84-.14-7.9.91-12.25.5-1.96 1.12-1.82.7.14.42 2.1-1.05 7.98-.56 16.66 5.4-9.66 8.75-14.49 5.11-7.42 9.94-11.06zm-27.02-4.48q-18.48 13.86-21.42 29.54-3.5 18.55 11.97 47.95 1.26 2.45.63 3.22-.7.84-3.36-.49-13.3-6.44-22.75-15.19-10.36-9.59-12.46-18.76-2.59-11.27 2.1-29.82 6.37-25.13 23.94-39.83l.21 2.73q-15.96 14.5-21.7 38.57-4.2 17.43-2.03 27.8 1.82 8.4 12.04 17.91 9.24 8.61 20.51 13.86-15.47-30.45-11.06-50.26 3.92-17.57 25-31.5zm-26.67-32.62q-18.27 10.57-33.8 32.62-15.55 22.05-21.43 45.78l-3-1.4q6.22-24.78 22.74-47.32 16.73-22.89 36.61-33.1zm56.84 153.79q-1.6 13.16 3.71 22.75 4.13 7.63 4.97 10.57 1.05 3.5.07 4.41l-4.4-.07q-9.04-2.52-19.89-8.96l.98-2.45q11.76 6.93 19.25 9.1l1.9.14q.27-.35 0-1.75-.36-1.6-1.83-4.4l-3.15-5.75q-2.94-5.67-3.92-12.6-.98-6.79 0-13.65z"/><path fill="#0f141b" d="M549.6 216.93q16.51 11 28.27 16.8 6.3 3.15 11.83 8.9l15.47 17q8.33 9.6 12.46 15.33 3.92 5.53-2.66 7.14-7.28 1.9-12.67 8.96-5.04 6.58-7 15.82l-1.75-4.55q2.45-8.54 7.56-14.42 5.6-6.37 13.37-8.4 1.47-.42 1.61-1.12.21-.63-.77-2.03-3.99-5.53-12.32-14.98-7.7-8.82-15.4-16.73-5.1-5.32-10.99-8.26-12.32-6.23-28.2-16.8l-2.1.07q-3.09 2.1-5.26 3.92l-.2-3.5 3.98-2.94q1.47-1.05 2.38-1.05 1.05-.07 2.38.84m-19.25 42.7q-5.95-3.64-12.46-6.44-1.33-.63-1.12-1.12l1.61-.07q6.86 2.31 12.6 6.58 1.26.98.98 1.4-.35.42-1.6-.35"/><path fill="#0f141b" d="M544.83 245.98q21.56 14.5 35.28 31.78 13.86 17.5 18.62 36.47.5 2.03-.07 2.24-.56.21-1.82-1.4-6.37-8.54-14.98-14.42l-1.33-3.5 8.26 6.02q3.92 3.3 6.8 7.28-5.47-16.1-18.28-31.7-12.95-15.83-31.78-29.13z"/><path fill="#0f141b" d="M578.36 295.54q-1.12-2.03-.49-2.38.56-.35 1.9 1.54 3.35 5.04 4.68 11.76 1.26 6.8-.07 12.18-.56 2.17-1.33 2.17-.7-.07-1.47-1.82-6.93-15.4-13.93-23.38-1.12 10.92-6.79 18.83-4.34 6.1-10.99 10.01-1.6.98-2.03.56-.42-.35.07-2.17 1.9-7.07-.28-14.56-2.73 7.56-9.3 15.05-6.66 7.5-11.84 8.75-1.54.35-1.89 0-.28-.28.21-1.75 3.64-10.7 2.66-18.48-4.83 5.32-12.18 9.6l-.07-2.74q6.65-3.99 11.97-9.03.98-.98 1.47-.7l.56 1.4q.63 3.5.14 8.9-.56 5.45-2.03 10.21 4.9-2.1 10.78-9.24t8.47-14.14q.56-1.4 1.2-1.4.62 0 1.11 1.33 3.08 8.54 1.47 15.4 5.46-3.57 9.24-9.3 5.11-7.7 6.44-18.28.35-2.52 2.1-.7 8.75 10.08 14.42 22.61.7-4.83-.42-10.22-1.12-5.25-3.78-10"/><path fill="#0f141b" d="M505.42 246.9q9.03 6.08 16.17 14.27 7.56 8.54 14.91 21.42 1.68 2.8-1.12 4.97-4.55 3.36-9.45 10.01-5.39 7.21-7.98 14.28-2.17 5.95-1.68 17.57.35 10.36 2.31 18.13.98 4.06-2.24 5.53-3.15 1.47-4.9-1.26-5.6-8.68-13.72-14.9-10.5-8.13-24.22-11.42l1.75-2.1q13.65 3.43 24.22 11.9 8.05 6.44 13.72 15.26.98 1.54 2.45.63 1.54-.98.98-3.22-2.1-8.47-2.66-18.69-.7-11.97 1.54-18.06 2.66-7.42 8.33-15.05 5.18-7 10.01-10.64l.63-.7-.35-1.05q-7.28-12.67-14.42-20.86-6.86-7.77-15.68-13.79-12.74-8.68-41.09-21.28-22.89-10.08-37.38-15.05l-1.19-.14-.77.91q-4.83 7.63-8.6 11.48l-1.55 1.96q-.49.91-.7 2.38-1.33 10.64-7.14 34.1l-8.6 32.68q-.29.91-.15 1.54l.7 1.4q9.31 14.07 15.54 26.18.42.91 1.61.56 10.78-3.08 19.67-3.7l-.77 2.44q-8.33.42-18.55 3.57l-2.38.28q-.56-.28-1.33-1.68-6.44-12.95-16.17-26.25-1.54-2.24-.77-4.97 4.06-14.2 8.47-32.69 5.67-23.38 7-34.09.21-1.68 1.05-3l1.96-2.32q4.06-4.27 8.33-11.55.98-1.68 2.17-2.1l2.73.14q14.14 4.83 37.73 15.33 28.7 12.88 41.58 21.63"/><path fill="#0f141b" d="M473.43 267.33q-11.27 5.25-33.74 36.2-1.05 1.46-2.3 1.95l-3.3.5-18.2-1.34q-10-1.33-18.62-3.7l-1.47-2.67q8.54 2.45 19.04 4l19.18 1.46q2.45 0 3.78-1.75 10.3-13.79 16.87-21.35 10.85-12.32 17.85-15.47 4.34-2.03 11.7-2.52l13.22.84q4.62 1.12 17.36 7.63 12.11 6.16 19.88 11.2l.84 3.08q-8.26-5.1-20.5-11.48-13.73-7.07-18.2-8.12l-12.6-.56q-7.43.5-10.79 2.1"/><path fill="#0f141b" d="M453.97 292.6q.7-5.39.21-10.57-.77-6.5-4.76-21.56-4.2-16.03-6.09-17.92-2.24-2.17-11.48-6.72-9.38-4.62-19.67-8.47l.84-2.1q10.78 4.06 20.3 8.75 9.52 4.62 11.83 7 2.24 2.24 6.58 19.18 4 15.33 4.7 21.63.48 4.55 0 9.31z"/><path fill="#0f141b" d="M470.14 267.96q-4.2 9.66-6.3 18-.63 2.58-2.8 3.84-4.9 2.66-7.2 5.32-10.93 12.18-14.92 17.43l-2.38 6.16-2.87 8.68-1.96-1.4q4-13.37 5.25-14.98 5.46-7.14 14.98-17.92 2.38-2.59 7.84-5.8 1.05-.64 1.54-2.04 2.17-7.77 5.4-15.26z"/><path fill="#0f141b" d="M462.93 298.06q-4.97 4.62-8.26 9.24-1.19 1.68-1.68 1.33-.49-.28.56-2.1 2.38-4.27 7.63-9.38l.63-1.05-.2-1.19q-1.06-2.94-.85-6.79l1.47-1.54q.21 4.62 1.33 8.05.7 2.17-.63 3.43M453 311.85l-1.4 9.1q-.29 2.24-.92 2.17-.63 0-.49-2.24.42-5.88 1.33-9.24.42-1.54 1.12-1.47t.35 1.68m31.43-19.11-17.5 3.92-1.96-.14q-.2-.63 1.54-1.19 7.42-2.3 17.5-4.4l4.41-1.48 3.92-2.3q1.33-.92 1.75-.5.35.35-.77 1.47l-3.78 2.94q-2.1 1.12-5.1 1.68m11.27-8.47q2.23-1.96 5.24-3 1.75-.57 2.03 0 .28.55-1.33 1.32-2.3.98-5.04 2.94-1.4.98-1.82.42t.91-1.68m-.77 20.51q1.82.21 3.57 1.68 1.33 1.12.98 1.68t-1.82-.35q-3-1.68-4.62-.49-3.29 2.6-7.35 6.93l-11.2 11.97q-6.5 6.86-17.5 6.51l1.9-2.38q8.4-.49 13.57-6.02l10.92-11.13q4.62-4.55 8.54-7.7 1.26-.98 3.01-.7"/><path fill="#0f141b" d="M500.17 265.23q5.04 4.76 7 17.3 1.82 11.2.14 19.66-1.4 7.77-8.33 10.92-5.88 2.73-14.7 1.82l1.96-2.38q16.1.98 18.27-10.92 1.82-9.73-.63-21.56-2.8-13.37-8.96-15.33zm-19.11 52.43q6.51 2.24 12.4 9.87 1.4 1.75.76 2.17-.63.5-2.03-1.19-2.73-3.22-6.3-5.74-3.57-2.59-6.58-3.43zm86.74 32.55-.99-1.12q-.42-.14-1.19.56-3.08 2.66-6.02 6.8l-6.5 9.86q-8.27 12.81-14.43 20.37-7.63 9.24-15.96 15.75l-.63-2.73q7.84-6.23 15.05-15.19 5.81-7.2 13.86-19.67 4.13-6.37 7.14-10.15 3.15-3.99 6.58-7 1.54-1.26 2.52-1.05 1.2.21 2.45 2.52 11.27 20.86 12.18 48.1 1.12 32.4-16.24 47.66-20.79 18.2-47.74 21.84-19.1 2.6-45.92-2.24l2.1-3.08q28.7 5.4 50.4.84 21.7-4.48 39.41-19.6 16.66-14.14 15.54-46.34-.98-27.23-11.62-46.13"/><path fill="#0f141b" d="m509.27 408.1 7.14-4.27 2.17 1.54q-3.85 2.66-8.82 5.32zm-3.77 4.76-8.13 3.57-.2-2.66 5.87-2.52zm-12.26 5.11q-5.6 2.1-13.58 4.48l-.7-2.45 12.6-4.06zm87.43-79.66q-2.66 6.93-3.5 9.94-1.4 4.83-1.05 7.84.63 5.4.07 11.27l-2.3-4.9-.43-6.16q-.35-3.22 1.26-8.54l3.78-10.22q4.27-10.99 2.87-21.56l2.24.84q1.12 11-2.94 21.5m-40.6-18.91q4.62 4.62 9.38 12.95 4.06 7.21 5.88 12.81.77 2.17.91 6.3.14 4.41-.49 9.03l-2.8 3.22q.98-4.62.84-10.64-.14-5.25-.77-7.07-2.3-6.3-5.74-12.53-4.4-8.12-8.75-12.39zm-24.99 5.19q4.2 6.36 13.37 14.7 7.7 7 14.7 11.82 1.9 1.26 2.6 2.6.7 1.32.83 3.77.5 7.84-.63 17.57l-3.15 3.85 1.26-11.55q.35-5.95.14-9.73-.14-2.03-.56-2.87l-1.68-1.68q-6.58-4.48-13.79-10.99-8.6-7.63-13.23-13.93zm-144.55-99.62q9.17 7.14 37.45 23.87l-.84 2.45q-25.9-15.12-37.94-24.64-2.66-2.1-2.45-3.43.28-1.26 3.43-1.6 7-.78 20.58-.36l24.08 1.68-1.68 2.45-23.17-1.75q-13.65-.63-19.67-.07-1.47.14.21 1.4m28.35 60.69q-11.76 1.75-31 6.1l-1.62-1.69q15.9-3.85 33.25-7.2zm6.72 28.28-13.79-2.38-2.38-2.87q7.14 1.68 14.77 2.6zm238.35 3.5 1.54 2.1 2.66 4.83q.91 1.47.35 1.9-.49.34-1.6-.92-1.9-2.24-3.16-4.48-1.05-1.68-3.22-2.73l-14.56-6.58q-2.03-.9-3.92 0-2.24 1.05-3.64 4.41-1.54 3.5-1.4 6.23.07 2.66 1.68 3.43 5.25 2.24 8.75 4.76 2.03 1.47 4 4.06l16.37 23.31-1.19 2.94q-5.6-8.82-17.22-24.78-1.6-2.24-3.36-3.5l-8.47-4.69q-2.59-1.26-2.8-5.1-.14-3.44 1.61-7.5 1.61-3.78 4.48-5.39 2.94-1.68 6.02-.35l14.63 6.51zm7.35 11.41q4.76 6.16 7.91 12.04 1.12 2.1.56 2.45-.56.28-1.75-1.6l-7.9-12.12q-1.13-1.6-.57-1.96.63-.35 1.75 1.2"/><path fill="#0f141b" d="M627.57 307.37q-4.06-2.03-9.03-5.04-3.29-1.89-6.5-.84-4.2 1.47-6.45 7.42-1.75 4.48-1.19 8.61.56 4.41 3.5 5.88l7.28 3.43q2.73 1.33 4.83.7l2.1 1.4q-1.82.98-3.99 1.05t-3.99-.84l-7.42-3.57q-3.64-1.68-4.4-7.35-.7-5.18 1.25-10.15 1.26-3.29 3.36-5.6 2.1-2.38 4.48-3.22 4.13-1.47 8.26.91l8.96 5.04q1.75.91 2.52 3.08.7 2.1.07 4.27l-2.03-.84q.5-3.15-1.6-4.34"/><path fill="#0f141b" d="M609.58 301.63q-6.02-2.52-11.4-5.88l.9-2.17q5.4 3.43 12.88 6.37zm-4.97 20.17-11.2-5.26-.2-3q3.7 2.02 10.35 4.96zm71.61 36.67q.84 1.2 1.12 2.8.21 1.68-.35 3.08l-2.03-1.05q.42-1.75-.63-3.43-3.15-4.83-6.58-8.89-1.89-2.17-6.23-1.96-4.62.21-7.98 3.01-3.22 2.73-4.97 6.44-1.75 3.64-.7 5.53l5.32 8.05q1.26 1.82 3.64 2.38l.63 2.31q-4.4-.56-6.23-3.22l-5.39-8.26q-1.6-2.8.28-7.14 1.82-4.4 6.1-7.77 4.47-3.64 9.93-3.7 5.04-.08 7.28 2.58z"/><path fill="#0f141b" d="M674.4 361.41q6.02 2.94 11.34 9.17 2.03 2.31 2.17 5.6.14 2.24-.49 4l-1.82-2.74q.28-3.15-1.54-5.32-4.69-5.39-9.66-8.05-4.2-2.24-7.63-2.17-3.57.07-6.5 2.6-2.74 2.3-2.95 4.54-.2 2.87.63 5.6 1.05 3.22 3.08 4.34t3.15 2.1l.63 4.13q-1.96-2.59-4.76-4.13-2.66-1.4-4.2-5.46-1.33-3.57-1.12-6.72.21-3.29 3.92-6.37 3.78-3.08 7.98-3.22 3.36-.07 7.77 2.1"/><path fill="#0f141b" d="M674.4 372.2q2.6 1.46 3.22 4.61 1.47 7.5-2.94 16.52-3.22 6.72-8.12 11.9-2.3 2.45-2.3-.84.06-11.62-1.48-25.2-.77-6.86 6.37-7.98 2.94-.42 5.25.98m-4.83 1.68q-4.83.77-4.34 5.04 1.12 10.5 1.12 23.31 4.41-5.46 6.93-11.13 3.43-7.84 2.03-13.79-.98-4.27-5.74-3.43"/><path fill="#0f141b" d="M676.92 378.5q2.94-2.95 5.74-3.86 1.4-.49 2.38 0 .98.5 1.82 2.03 2.73 5.04 3.3 13.37.48 8.2-1.34 15.26-.42 1.61-1.19 1.68-.7 0-1.33-1.47-5.46-14-9.52-20.5l1.05-2.74q2.38 3.57 4.97 9.38l4.55 10.64q1.2-6.44.5-13.37t-2.95-11.06q-.63-1.12-1.68-.77-2.45.84-5.8 4.2z"/><path fill="#0f141b" d="m679.51 390.53-4.2-.42.7-2.38 3.36.35z"/><path fill="#0f141b" d="M668.94 400.96q.7 6.23 1.4 9.17 2.8-4.9 5.04-10.92t2.94-10.78q1.05.5 2.1.91-.84 5.25-3.43 11.97-2.59 6.51-5.8 11.7-1.55 2.44-2.39-.5-.98-3.36-1.75-9.3zM502.7 381.5q-1.13 1.05-.29 5.25.84 4.48 2.87 6.1l17.72 15.1q-2.59-14.84-10.29-22.68-3-3.08-5.88-4.06-2.73-.9-4.13.28m3.78-2.66q3.64.84 7.28 4.27 9.17 8.75 11.55 26.81.28 1.9-.28 2.03-.42.14-1.68-.9l-9.8-8.48-9.73-7.98q-3.22-2.73-3.99-7.98-.77-5.04 1.26-6.86 1.96-1.75 5.4-.9m-18.78 11.97q-2.24 0-3.64 4.13-1.54 4.7 1.2 9.24 5.38 8.75 11.05 15.4.14-10.64-3.22-20.16-3-8.6-5.39-8.6m0-2.67q4.06-.2 7.63 10.36 3.64 10.92 3.01 23.17-.2 3.15-2.24.91-7.84-8.89-12.88-17.15-3.36-5.6-1.19-11.55 2.03-5.53 5.67-5.74"/><path fill="#0f141b" d="M506.96 396.13q2.87 9.94 4.76 19.53.35 1.54-.07 1.9-.42.27-1.75-.5-6.09-3.7-13.86-10.64l-.56-3.5q8.9 7.98 13.93 11.34-1.82-8.6-4.69-17.99z"/><path fill="#0f141b" d="M508.08 396.76q-.49.56-1.68.77l-1.75-.07q-2.87-.63-5.53 1.12-2.73 1.9-3.64 5.32l-.9-3.5q1.18-2.87 3.77-4.34 2.87-1.68 6.37-.98l1.75-.28zm-1.68-19.53q2.94 1.96 4.62 4.83l-4.62-1.82q-2.73-2.73-7.98-3.64l-6.02-1.4q-2.59-.84-5.39-2.52-1.54-.9-1.33-1.54.28-.56 1.9.21 5.1 2.38 11.2 3.08 4.2.5 7.62 2.8"/><path fill="#0f141b" d="m454.81 336.35 12.25.91q3.36 1.33 5.18 6.51.63 1.54 1.4 2.24 10.22 8.9 14.5 15.47 2.3 3.43 4.61 5.04 7.77 5.18 11.83 10.15l-4.13-.42q-3.57-3.7-9.52-7.7l-2.66-2.24-2.24-3.15q-3.7-6.02-14.35-15.75-1.05-1.05-1.75-2.87-.84-2.38-1.6-3.43-.78-1.12-1.97-1.6l-10.57-.85z"/><path fill="#0f141b" d="M502.97 339.64q1.2 3.71 1.68 7.63.5 4 0 6.1-.7 2.72-5.74 6.92-4.48 3.64-9.3 6.16l-1.55-1.96q4.48-2.38 8.82-5.88 4.7-3.85 5.25-5.88.63-2.1-.07-7-.7-5.04-2.3-8.33zm-35.49 5.81q2.1.91 1.75 1.54l-2.38-.07q-8.68-3-12.39-8.89-.7-.98-1.82-1.05-9.24-.56-21.49-10.5l-1.12-.2q-4.55 1.95-8.75 4.82-.49.5.14.98 2.17 1.68 4.62 4.83l-3.36-.9-3.15-2.95q-2.3-1.89 0-3.5 4.27-3.15 9.45-5.32l1.9-.49q.7.07 1.6.84 12.04 9.45 20.23 9.94 2.1.14 3.64 2.52 3.22 4.9 11.13 8.4"/><path fill="#0f141b" d="M259.93 212.1q-62.65-36.33-105.42-46.9 1.47 5.18 13.44 18.7 4.34 4.96 10.3 13.92 5.38 8.12 7.27 12.04 2.1 4.41 6.44 18.7l5.4 17.21.97 1.82 1.82 1.33q17.43 8.47 31.78 18.2 18.06 12.18 27.3 23.73l-5.32-1.82q-9.59-10.5-25.76-21.14-13.23-8.68-29.12-16.38l-2.73-1.82q-.7-.84-1.47-2.73-1.12-2.87-5.6-18.06-4.13-13.79-6.02-17.92-1.82-3.85-7-11.69-5.74-8.68-10-13.58-14.5-16.73-14.5-21.35 0-2.24 2.24-1.75 42.91 10.3 106.4 46.83 60.48 34.8 91.28 64.75l18.2 17.3q12.46 11.26 19.11 15.32 1.96 1.12 3.08 2.66l11.27 14.77q1.47 1.82 2.94 2.8 5.32 3.36 12.88 6.51 8.2 3.36 15.61 5.04 2.31.56 2.17 1.26-.07.77-2.45.28-7.49-1.47-15.96-4.76-7.84-3-13.58-6.44l-3.36-3.15-11.62-14.63q-.98-1.4-2.38-2.3-11.55-7-37.59-32.49-30.59-29.75-90.02-64.26"/><path fill="#0f141b" d="M484.7 406.35q-4.83-3.5-8.4-8.6l-2.87-3.58-3.64-2.38q-4.55-2.1-11.4-8.12-6.03-5.25-11.77-11.62-16.45 1.4-25.76-.56-10.29-2.1-20.58-9.66-2.52-1.82-4.62-2.73-2.38-1.12-5.88-1.75-36.19-7.35-54.74-10.64-12.6-2.24-24.78-6.72-11.97-4.48-20.65-10-13.16-8.55-31.99-19.26-20.93-12.04-32.34-17.22l-1.96-1.19-1.05-1.82-5.88-14q-.49-1.12-.14-1.54l1.68-.14q12.95 2.17 32.55 11 17.57 7.9 28.91 15.67 2.17 1.4 1.75 2.03-.42.7-2.59-.7-10.99-6.93-28.49-14.7-19.1-8.47-31.08-11.06l5.6 12.46.63 1.12 1.26.84q11.48 5.18 32.41 17.15 18.9 10.71 32.06 19.18 8.47 5.46 20.16 9.8 11.83 4.41 24.3 6.65l28.97 5.53 25.9 4.83q3.57.63 6.37 1.96 2.17.98 4.9 2.94 10.57 7.5 20.44 9.52 8.96 1.82 25.27.5l.7.27q5.88 6.51 11.55 11.62 6.8 6.02 11.27 8.05 4.55 2.1 7.42 6.3 2.8 4.06 5.11 5.81zm-22.33-77.7-8.26 7.7-2.87-.56 9.66-8.54q.35-.35 0-.56l-2.1-1.54q-.56-.35-1.4 0-7.63 3.01-15.96 7.28l-2.24-1.4q8.82-4.13 17.57-7.7l1.47-.35q.63 0 1.4.42l2.87 1.96q.91.91.98 1.61 0 .77-1.12 1.68m-15.47 15.26q-2.87-4.97-6.3-7.07-1.54-.9-1.26-1.54l1.9.07q2.37 1.05 3.91 2.73 1.75 1.82 3.08 5.04 1.05 2.45.5 2.73-.57.28-1.83-1.96m37.03 26.39q-7.56-1.89-15.96-7.07-8.68-5.39-15.54-12.74-1.75-1.96-1.26-2.45.5-.49 2.38 1.33 6.37 6.37 14.21 11.27 7.63 4.76 14.77 6.93-.56-1.68-.77-4.55-.07-1.89.5-1.96.62-.07.9 1.82.35 2.94 1.82 5.95.63 1.2.35 1.47-.28.28-1.4 0"/><path fill="#0f141b" d="M387.61 346.3q5.4 2.37 13.44 1.88 3.22-.2 7.14.91 4.2 1.2 7.91 3.64 2.1 1.4 1.75 1.96-.35.5-2.52-.56-7.9-3.85-14.14-3.5h-6.58q-4.4-.42-7.9-2.1-18.42-8.89-36.76-15.89-2.24-.84-1.96-1.54l2.6.07q14.76 5.25 37.02 15.12m-55.37-79.59q13.72 11.9 29.12 27.58 13.86 14.07 24.08 26.04 5.46 6.37 12.18 9.8 5.04 2.52 13.37 4.41 2.45.56 2.17 1.26l-2.52.28q-7.84-1.12-13.79-3.99-7.49-3.5-13.23-10.15-10.15-11.62-23.73-25.76-15.33-15.89-28.7-28.35-1.75-1.54-1.19-2.1.5-.56 2.24.98m147.77 141.54q.42 2.17-4.55 29.05-4.97 26.81-6.86 32.62-2.66 8.33-5.74 15.26-3.29 7.28-8.05 15.33-1.82 3.08-3.15 2.8t-1.47-3.78q-.77-15.33 0-39.55l.28-.63q3.78-2.87 4.27-7.42 1.26-10.22.14-30.3-.56-9.18-6.86-16.25-3.5-3.99-13.79-11.34l-.35-.56q-.77-7.98-1.33-21.9l2.24-.22q.5 9.8 1.54 21 10.08 7.21 14.07 11.97 6.37 7.56 6.93 17.3 1.26 20.43 0 30.8-.56 5.31-4.62 8.6l-.63 22.82q-.2 10.3 0 15.54.07 1.12.35 1.12l.84-.98q8.33-14.63 13.02-30.3 1.82-6.1 6.58-32.28 4.76-26.1 4.41-28.14-.28-1.6-6.09-9.3l-13.93-17.3 6.93 4.55q15.26 18.76 15.82 21.5"/><path fill="#0f141b" d="M477.98 415.8q4.13 6.44 4.41 17.64.14 2.31-.63 2.38-.7 0-.9-2.24-.85-8.19-3.86-14.14zm-10.22 51.6q7.5-7.64 14.21-22.4.91-2.04 1.54-1.76.7.28-.07 2.38-6.44 17.5-16.38 26.32zm-51.16 15.53q-2.74-1.33-5.54-3.64-1.6-1.33-1.19-1.89.35-.56 2.1.56 6.1 3.92 9.52 3.71l14.35-2.1q9.6-1.89 15.54-4.27l-.2 3.22q-6.3 2.38-15.76 4.06l-13.93 1.68q-1.96.07-4.9-1.33m17.71-101.85q-15.33 8.26-27.5 26.25-13.1 19.18-13.73 37.52-.2 7.91 4 16.45 3.63 7.35 8.95 12.46 1.75 1.75 1.33 2.38-.49.56-2.24-1.05-6.72-6.09-10.64-13.23-4.69-8.6-4.4-17.15.62-19.18 14-38.7 12.73-18.77 29.95-27.87z"/><path fill="#0f141b" d="M405.04 406.77q4.2-2.45 8.61-1.4t7.7 5.32q5.32 6.93 8.4 19.95 2.8 11.76 1.75 17.78-1.05 5.88-7.2 13.72-6.59 8.4-14 12.11-1.76.84-2.1.28-.36-.56 1.46-1.68 5.95-3.7 12.11-11.9 5.95-8.05 6.86-13.23.98-5.53-1.75-16.8-3-12.18-7.63-18.4-3.22-4.28-7.35-4.7-4.13-.49-8.89 3.01zM379 484.68q-.63 4.55 1.82 12.88 2.52 8.26 6.44 14.77l-1.33 2.66q-4.76-7.35-7.56-16.52-2.8-9.03-2.03-14.14.77-5.18 7.28-12.39 6.02-6.72 12.25-10.15l1.26 2.1q-5.74 3.15-11.48 9.6-6.02 6.71-6.65 11.2"/><path fill="#0f141b" d="M392.93 503.8q-4.62 8.53-7.42 16.51-1.19 3.36-3.92 4.76-7.28 3.57-11.13 7-3.99 3.57-5.04 7.77l-3.08 4.7q-.14-6.38 4.34-11.84 4.34-5.18 13.51-10.08l1.82-1.33 1.2-2.1q3.91-9.52 8.4-16.17 1.18-1.82 1.81-1.54.63.35-.49 2.31m11.13-30.52q-1.68 5.95-5.53 22.61-.63 2.73-1.33 2.6-.7-.15-.2-2.95 2.1-11.76 5.03-24.7zm18.76 9.53q-3.22 3.98-4.83 9.3-1.26 4.34-2.1 11.76-.28 2.24-.98 2.1-.7-.07-.63-2.3.42-7.22 1.54-11.77 1.26-5.32 4-9.03z"/><path fill="#0f141b" d="M436.82 480.83q.28 9.24-2.52 14.28-4.27 7.91-17.85 13.72-1.96.84-2.38.28t1.61-1.68q6.8-3.7 10.5-6.72 4-3.29 5.95-7 2.45-4.48 2.24-12.6z"/><path fill="#0f141b" d="M392.3 553.5q4.55 4.54 13.1 10.28 7.55 5.18 14.83 9.03 2.38 1.26 3.01-.84 3.36-10.92 2.6-32.55-.78-23.45-6.45-30.73-.84-1.05-.98.07-.28 7-2.38 13.65-2.66 8.2-7.2 11.48-1.76 1.26-2.18.63-.42-.56 1.26-1.89 3.01-2.45 5.18-7.63-4.69-16.52-6.65-28.07l-.35-.49-.56.5q-3.99 6.78-7.77 21.7-3.64 14.48-6.16 32.61-.2 1.33.7 2.24m3.15-35.28q3.85-14.7 8.47-22.33 1.26-2.03 2.52-1.82 1.33.14 1.82 2.52 1.12 5.4 3.22 13.58l2.94 11q1.75-5.89 2.1-11.84.14-2.45 1.68-2.73 1.61-.35 3.3 1.9 5.73 7.7 6.64 30.72.77 21.5-2.87 33.4-1.4 4.33-5.8 2.16-7.29-3.57-15.62-9.03-8.82-5.88-13.44-10.36-1.05-1.05-1.33-1.96t0-2.45q2.66-18.83 6.37-32.76m-34.02 34.65q-2.73 9.87-2.73 16.38 0 1.68 1.26-.07 5.67-7.98 13.51-12.25 1.12-.63 1.54-1.33l.63-1.96q1.82-11.13-2.73-16.17-1.4-1.6-2.66-1.54-1.12.14-2.45 1.82-3.5 4.48-6.37 15.12m4.34-16.66q2.1-2.59 4.48-2.73 2.45-.14 4.48 2.17 2.6 2.94 3.57 7.7.91 4.9-.07 10.71l-1.05 3.01-2.66 2.17q-4.06 2.31-7 4.76-3 2.66-6.02 6.44-4.69 5.95-4.9-1.33-.14-7.28 2.45-17.22 2.8-10.7 6.72-15.68"/><path fill="#0f141b" d="M390.7 553.91q-6.17-1.05-16.32 5.04l1.9-3.5q7.9-4.48 13.92-3.92zm35.83-3.29q5.4.5 10.85 4.2 4.55 3.01 8.12 7.5.42.48.5-.29.41-10.64-4.49-18.06-4.83-7.35-15.33-12.1l-.14-2.74q23.38 9.45 22.05 33.04-.2 3.3-1.26 3.57-.98.28-2.94-2.1-3-3.92-7.07-6.65-4.9-3.29-10.29-4.06zm154-147.14q3.15-.07 5.32 1.26 10.64 6.58 16.45 12.46 7.98 8.05 10.15 17.5 1.68 7.63.21 21.28-1.19 11.13-3.7 20.51 6.15-7.14 12.87-16.45 7.91-10.85 9.52-15.26 1.61-4.55.56-18.27-1.12-13.72-3.5-18.62-2.3-4.69-19.39-17.78-17.15-13.09-29.26-19.53-1.75-.9-3.43-.63l-.49-2.66q2.73-.49 4.9.7 12.53 6.58 30.1 20.23 17.57 13.58 20.02 18.55 2.52 5.11 3.57 19.67 1.12 14.5-.63 19.4-1.75 4.75-9.8 15.67-7.7 10.3-13.79 16.6-2.73 2.8-3.36 2.3-.63-.49.14-3.92 2.31-9.73 3.43-21.2 1.33-13.94-.35-20.1-2.59-9.17-11.27-17.64-6.09-5.88-14.14-10.64-1.82-1.05-4.13-.98zm-45.57 71.54q-.84-18.06 16.8-18.2 9.1 0 16.52-3 8.05-3.3 10.5-8.83 1.4-3.08.77-7.56-.77-4.97-3.85-8.89l1.26-3.08q3.57 4.62 4.76 10.85 1.05 5.88-.63 9.52-2.8 6.16-11.2 9.8-7.84 3.36-18.13 3.64-7.28.21-11.13 4.34-4.2 4.34-4.27 12.81z"/><path fill="#0f141b" d="M562.33 481.74q1.33 3.22 4.41 5.95 10.92 9.8 19.4 18.76 1.53 1.54 3.77 1.96l23.66 5.88q2.6.7 4.55-2.17 1.75-2.73 1.47-5.8-.98-8.83-3.78-15.55-1.68-3.99-.42-4.76t4.55 1.9q11.34 9.1 19.18 25.9 7.84 16.65 8.68 33.38.14 1.96-.63 2.45l-2.66-.2q-15.54-5.68-24.5-5.75l-1.19-2.45q4.48-.2 12.53 1.75 7.14 1.82 13.72 4.48.7.28.7-.28-.9-15.89-8.6-32.4-7.7-16.53-18.35-25.35-2.3-1.96-1.19.63 3.3 7.84 4.06 16.17.35 4.83-2.24 8.2-2.66 3.42-6.37 2.37-12.88-3.64-23.66-6.16l-2.66-.84-2.03-1.6q-8.75-9.25-19.1-18.56-7.29-6.44-7.29-15.12 0-5.46 4.27-8.6 5.32-3.93 18.2-5.12 23.31-2.1 31.36-15.12l-.14 4.9q-8.89 11.27-30.94 13.3-11.97 1.12-16.59 4.2-3.43 2.31-3.43 6.51 0 4.13 1.26 7.14"/><path fill="#0f141b" d="M645.7 540.2q4.48.48 9.24 2.16 1.4.56 1.2-.77-1.06-4.13-4.7-8.33-3.92-4.48-8.96-6.86l-.7-2.94q6.02 2.31 10.78 7.56 4.41 4.9 5.6 9.94.63 2.73-.2 3.5l-3.58-.07q-4.4-1.47-8.26-1.96zm-86.17-54.82q.7-1.47 2.73-1.4l1.33 2.38q-1.26-.35-1.68.42-.42.7.07 2.24 2.66 9.17 7.28 18.2 4.97 9.6 9.03 12.74 2.03 1.54 4.34 2.24l5.6.63q12.6 0 23.45 8.68 11.2 8.96 13.44 21.63.91 5.53-3.5 2.17-10.85-8.26-39.48-16.24-17.78-4.97-38.85-8.96-3-.56-3.92-2.03-.98-1.4.28-3.29 1.4-2.17 7.91-7.28.84-.63.07-1.75-2.45-3.64-6.65-7.98l2.94-.14q3.01 3.08 5.53 6.58 1.2 1.54 1.12 2.73 0 1.2-1.47 2.31l-4.62 3.64q-2.17 1.75-2.94 3.01-1.12 1.54 2.1 2.24 22.2 4.06 39.62 8.96 28.28 7.84 39.62 16.6l.21-.15q-2.52-11.83-12.8-20.09-10.23-8.19-22.06-8.19-7.28 0-11.34-3.22-4.34-3.43-9.66-13.65-4.9-9.52-7.63-18.9-.84-2.66-.07-4.13"/><path fill="#0f141b" d="M594.6 541.66q-1.05-4.97.56-9.38 1.75-4.83 5.74-5.74l2.52 1.75q-4.4-.2-6.16 5.25-1.54 4.83-.14 9.03zm-76.3-74.55q-1.12.35-2.03 1.68-2.24 3.3-3.36 7.91-1.12 4.9-.14 8.4 2.17 7.35 12.81 14.07 7.56 4.7 15.12 7.07 2.31.7 3.57-.35t1.26-3.57q0-6.02-2.87-13.44-3.08-7.84-7.7-12.95-1.96-2.03-1.54-2.52t2.52 1.47q5.32 5.04 8.75 13.37 3.3 7.77 3.3 14.07 0 4.13-2.1 5.81-2.1 1.61-5.82.56-8.33-2.38-16.45-7.56-11.06-7.14-13.44-15.33-1.19-3.99.14-9.38 1.2-5.04 3.92-8.96 1.47-2.17 3.22-2.8l4.55.35q3.64 1.4 6.72 3.78 1.4 1.12 1.12 1.61-.28.56-1.82-.42-2.38-1.47-6.86-2.8zM386 417.55q6.51-2.52 15.47-5.04l-1.19 3.36q-6.5 1.61-13.65 4.34l-5.46.77q-2.87-.2-5.04-1.54-1.6-.9-1.33-1.54l1.96.07q4.06 1.61 9.24-.42m-43.4-51.65q-1.6-1.62-4.69-2.32-45.36-10.64-88.27-32.9l-1.89-.35q-.35.5.07 2.73 1.2 6.23 3.64 15.33 2.24 8.12 4.41 14.63l-2.3 1.82q-2.04-6.09-4.49-15.33-2.45-9.38-3.78-16.17-.84-4.27.56-5.6 1.26-1.26 4.48.42 43.2 22.4 88.13 32.9 3.71.84 5.67 2.8 2.1 1.96 3.36 5.95 4.34 13.72 9.38 24.71 6.93 15.26 13.1 20.37 2.1 1.75 1.67 2.24-.49.5-2.59-.98-6.86-4.76-14.14-19.88-5.39-11.27-9.87-25.69-1.05-3.22-2.45-4.69"/><path fill="#0f141b" d="M317.61 341.11q-1.68 7.77-2.45 15.05l-2.94-.84q.77-6.65 2.73-15.05zm-55.3-14.56q.21-7.56 1.12-13.72l2.52 1.12q-1.26 6.8-2.03 12.74-.35 2.73-.98 2.66-.7-.07-.63-2.8m-63.77 2.17 14.77-1.19 10.92-.42q1.61.21 4.9 1.68 3.22 1.47 6.16 3.3 10.36-15.27 18.13-25.2l1.96 1.46q-10 13.16-18.76 26.46l-.77.63-.84-.35q-7.14-4.83-11.13-5.46-1.47-.14-9.3.21l-14 1.05zm11.69 12.53q13.16-.28 23.1-.07l3.36.42q1.33.35 3.08 1.61l11.34 7.77.7 3.5q-3.64-2.03-13.3-8.89l-2.73-1.6-2.45-.43q-12.67-.28-21.28 0zm16.59 23.25-1.12-2.32q4.06-.14 8.54.14l6.37.77q2.17.56 4.48 2.24 2.38 1.68 4 3.92l-1.83 1.61q-3.78-4.69-7.2-5.53zm102.69 24.21q-17.64 7.7-23.66 29.2-5.8 20.36 2.31 37.86l-2.59.84q-8.33-16.94-2.45-38.7 6.23-23.1 24.3-30.95z"/><path fill="#0f141b" d="M299.83 372.82q-2.3-1.33-4.55-2.3l-1.96.13q-22.82 11.41-29.89 41.23-6.93 28.91 5.6 52.43.35.56 1.05.42l5.11-1.12-.14-.28q-10.08-24.78-3.22-50.54 6.8-25.62 26.74-39.2zm2.1 2.03q-.77.14-1.96.91-19.04 12.74-25.48 37.8-6.37 25.06 3.22 48.93l.35.42.5-.07q18.82-3.78 40.52-11.9.35-.07.21-.42-6.3-13.72-2.03-30.52 4.06-15.89 14.35-23.66l1.05-.98q.14-.35-.28-1.05l-2.38-3.43-2.24-2.24q-3.78-2.66-10.85-6.72-7.56-4.34-12.88-6.79zm-73.92 26.6q8.9-29.05 32.62-43.26 1.2-.7 2.1-.84l2.31.21q16.1 3.5 35.91 13.02 16.24 7.77 28.07 16.03l2.94 2.94 2.45 3.64q.91 1.75.7 2.73-.28 1.05-2.1 2.45-9.87 7.5-13.5 22.2-3.93 15.46 2.16 28.76.77 1.68.56 2.52-.28.91-2.1 1.61-9.1 3.43-23.45 7.56-16.45 4.76-26.25 6.37l-13.58-1.4q-11.9-2.1-25.06-5.95-1.4-.42-2.03-1.05l-1.05-2.03q-9.45-27.3-.7-55.5m49.63-37.53q-7.7-2.52-13.16-3.7-1.4-.36-2.66.41-21.77 13.1-30.66 40.88-8.89 27.8.14 54.46.35 1.2 1.54 1.47l16.38 4.06q11.27 2.52 16.94 3.15-12.18-23.94-5.1-53.27 7.27-30.52 30.37-42.42-6.02-2.52-13.79-5.04"/><path fill="#0f141b" d="M239.63 415.24q1.26 4.62 4 5.32 2.58.63 5.31-2.3 3.08-3.44 5.04-10.37 1.61-5.53 1.2-10.08-.43-5.18-3.37-5.95-3.29-.9-6.5 2.03-3.65 3.3-5.33 9.73-1.75 6.58-.35 11.62m12.67-25.34q3.78 1.05 4.97 6.16 1.2 5.18-.9 12.46-2.39 8.26-6.59 11.9-3.43 2.87-6.79 2.03-4.06-.98-5.67-6.37-1.6-5.53.35-13.02 1.96-7.42 6.58-11.06 4.13-3.29 8.05-2.1m33.67 12.74q-3.22 3.22-4.69 9.45-1.68 7-.77 11.55.91 4.2 3.64 4.83 2.66.56 5.6-2.66 3.43-3.57 4.97-10 1.61-6.52.91-10.86-.7-3.99-3.15-4.62-3.43-.84-6.5 2.31m11.75 1.61q1.12 4.9-.63 12.11-1.75 7.07-5.8 11.13-3.79 3.78-7.57 2.94-3.99-.84-5.32-5.53-1.47-5.04.5-13.3 1.53-6.37 5.24-10.15 4.06-4.2 8.82-3.08 3.64.91 4.76 5.88m-94.22-72.38q18.7 19.11 27.1 38.15 1.04 2.31.34 2.6-.63.27-1.75-1.9-8.96-17.64-26.53-35.9-14.63-15.2-27.02-23.1 1.96 8.53 10.01 30.72 1.12 3.01.5 3.22-.64.28-1.97-2.59-8.54-18.62-11.2-33.32-.28-1.75.07-1.89.21-.07 1.82.77 13.1 7.21 28.63 23.24"/><path fill="#0f141b" d="M176.77 320.11q-8.05-8.4-18.48-16.87-10.43-8.4-18.9-13.44 8.82 16.8 17.43 40.4.91 2.51.21 2.72-.7.28-1.68-2.1-11.2-27.16-19.18-43.05-.7-1.54-.35-1.82t1.9.5q8.67 4.54 19.1 12.45 11.13 8.33 18.9 16.45z"/><path fill="#0f141b" d="M150.1 316.96q-6.5-4.13-11.83-6.09 5.53 18 10.01 29.96 7.42 19.67 14.98 31.92 1.54 2.38.84 2.73-.7.42-2.17-1.89-8.19-12.32-15.68-31.85-5.88-15.26-10.43-32.27-.28-1.05-.07-1.33l1.33.07q7 2.31 12.32 5.81z"/><path fill="#0f141b" d="M116.08 339.08q-4.06-.14-9.45-1.4l-11.2-3.15q-5.04-1.75-7.9-3.22-1.9-.9-3.86-.77-2.03.14-3.78 1.4l-2.66-1.05q2.8-2.17 5.88-2.52 2.8-.28 5.25.98 2.8 1.33 7.91 3.08l10.78 3.15q9.31 2.1 16.45.28l20.3-4.76.77 2.17-20.58 4.9z"/><path fill="#0f141b" d="M127.63 351.12q-11.62.7-17.64-2.17-15.12-7.28-28.56-14.98-2.73-1.6-6.44-2.45-9.73-2.59-21.21-9.1-12.46-7.07-24.85-11.06-13.02-4.2-23.45-4.27 10.5 3.57 19.95 8.9 11.27 6.43 17.99 13.92l-4.13-.98q-13.51-12.39-38.01-21.49-1.4-.56-1.33-1.19.07-.7 1.61-.84 11.48-1.05 25.13 2.73Q40.62 312 54.83 320.4q6.23 3.64 11.62 5.81l9.1 2.94q4.48 1.26 7 2.66 14.5 8.33 28.28 14.98 2.73 1.33 6.72 1.75 3.85.42 10.01.07l9.87-1.12 11.55-2.38 1.05 2.45-12.04 2.31z"/><path fill="#0f141b" d="m166.13 413.5 3.78 3.07q1.9 1.2 5.11 2.6l20.8 9.51q2.8 1.33 4.26 2.31l4.06 3.78q3.85 4.7 6.8 7.5 3.84 3.7 7.48 3.7l9.24.5.56 2.8-9.87-.5q-4.69 0-9.17-4.27l-7-7.7-3.57-3.43q-1.26-.9-3.78-2.03-13.79-6.65-20.72-9.73-6.3-2.73-9.8-6.09-8.05-7.77-18.2-19.39-9.87-11.4-16.73-20.79-1.4-2.03-3.15-3-1.54-.92-3.99-1.34l-11.48-1.54q-3-.28-6.02-1.54-2.45-.98-5.95-3.08-8.54-5.1-17.85-11.76-1.12-.84-1.82-.98-.7-.2-1.6 0-7.85 1.4-20.94 6.44-1.89.7-2.94.56-1.26-.14-2.8-1.54-2.52-2.1-7-7.98l-6.65-8.26q-4.06-4.34-9.24-8.89-5.39-4.76-9.8-7.84-2.73-2.03.56-2.03 5.25-.07 12.32 2.03 6.44 1.9 12.95 5.18 2.17 1.12 1.82 1.75-.28.7-2.45-.28-12.32-5.6-21.91-6.65 8.05 6.1 17.15 15.2 2.24 2.23 7 8.32 4.27 5.46 6.58 7.5.98.83 1.75.97l1.96-.35q13.16-5.04 21.35-6.5l2.52-.08q1.05.28 2.52 1.33 10.71 7.56 17.64 11.83 3.85 2.38 5.95 3.15 2.24.91 5.11 1.05l11.62 1.4q3.01.56 4.9 1.54 2.38 1.2 4.06 3.57 6.86 9.38 16.6 20.65 10 11.55 17.98 19.32m185.15-28.98q11.48 1.05 19.67 10.57 8.12 9.52 10.78 24.78l-2.59-.2q-2.87-14.08-9.87-22.48t-17.15-9.87z"/><path fill="#0f141b" d="M355.41 394.31q7.84.14 14.98 6.51 7.91 7.07 11.41 18.9l-2.66.14q-3.15-10.29-10.08-16.52-5.88-5.32-12.53-6.3zm-7.35-18.69q7.5 2.24 15.33 9.6 7.63 7.13 11.06 14.76l-8.26-7.07q-7.14-9.8-17.08-13.79zm-30.73 65.73q20.65-4.48 33.25-8.33l5.25-.98 6.72.5 14.98 1.67q6.37-.07 16.52-3l-.84 2.8q-8.75 2.1-15.68 2.44l-6.79-.56-8.47-1.19-11.2.42q-12.8 4-33.39 8.54z"/><path fill="#0f141b" d="m323.14 408.03 33.74 25.13-3.22.5-31.7-23.39zm-97.64 39.69 2.65.14q-8.05 17.5-9.03 32.97-.07 1.4.84 1.82l3.71-.07q9.94-1.96 17.01-2.66 8.33-.77 15.68-.2 7.28.55 19.46 3.91l21.77 6.58 2.52.35q1.05-.07 2.31-.98 11.13-7.42 36.75-27.65 2.73-2.1 6.23-2.8 7.91-1.54 16.45-5.1 9.6-4.07 15.61-8.97 2.52-2.03 5.46-.35l9.1 4.41.35 3.22q-5.88-2.38-10.64-4.97-1.05-.63-1.68-.63t-1.33.56q-6.16 4.97-16.03 9.17-8.89 3.78-16.87 5.4l-2.8.76-2.45 1.61q-26.88 21.07-36.82 27.65-1.68 1.2-3.29 1.33l-3.57-.49-21.49-6.58q-11.97-3.22-19.18-3.85l-15.4.42q-6.65.7-16.73 2.8l-6.02-.35q-1.75-1.12-1.54-4.34.5-7.49 2.87-16.24 2.31-8.6 6.1-16.87"/><path fill="#0f141b" d="M324.68 474.74q9.52 3.78 19.95 1.26 8.82-2.17 14.28-7.42 2.6-2.52 5.53-7 3.22-4.83 5.74-10.29l3.43-1.4q-3.08 6.72-6.5 12.25-3.58 5.88-6.38 8.47-6.23 6.02-16.73 8.12-11.69 2.31-21.42-2.17z"/><path fill="#0f141b" d="M335.81 466.06q8.05 3.92 18.97-1.19 10.3-4.9 15.96-14l-1.4 6.1q-7.35 8.4-17.43 11.68-10.57 3.43-18.2-.84zm-25.55 19.25q16.66-1.4 32.48-7.98l9.31-.98q-8.12 4.83-20.93 8.33-13.3 3.57-23.94 3.64z"/><path fill="#0f141b" d="M380.05 445.48q-.98 2.38-1.89 5.88-.9 3.43-1.05 5.11l-1.05 21.07q-.28 6.16-7.28 4.06-11.4-3.22-23.17-3.78l3.5-2.3q10.57.83 20.23 3.63l3.22.14q.84-.42.84-1.96 0-6.16 1.05-21.07.28-3.15 2.1-8.75zM145.27 413.7q2.38 2.8 5.4 4.41l10.84 5.11q2.17 1.05 4.34 3.43l12.6 14.21q2.66 2.87 5.67 4.13 2.52 1.12 8.2 2.1 7.83 1.33 15.67 4.41 6.86 2.66 15.47 3.92l-.56 2.87q-7.84-1.12-15.82-4.2-6.86-2.87-15.19-4.34-5.88-1.05-8.82-2.3-3.64-1.48-6.5-4.63l-12.68-14.14-1.6-1.75-1.9-1.12-10.92-5.6q-3.36-1.82-5.95-4.9l-15.6-18.83-15.55-18.27q-2.1-2.3-5.32-4.27-23.8-13.44-38.36-20.72l3.08-.98 36.05 19.67q3.71 2.1 6.3 4.9 7 7.84 31.15 36.9"/><path fill="#0f141b" d="M133.02 411.95q7.42 6.8 24.08 28.98 4.2 5.67 8.61 6.72 10.57 2.73 15.9 7.5l-1.69 2.02q-4.69-4.4-14.84-6.93-5.74-1.47-9.87-7.14-5.67-7.84-12.18-15.82-7.63-9.38-11.69-13.16-3.08-2.8-4.06-5.8-2.52-8.2-10.36-25.9l4.62 4.33q5.88 12.74 8.26 20.58.77 2.38 3.22 4.62"/><path fill="#0f141b" d="M185.73 479.64q-9.24 8.54-20.5 14.07l-1.48.28q-.35-.28-.28-1.47.98-10.5 7.14-22.6 5.81-11.28 13.3-18.84 1.54-1.54 2.03-1.05.56.56-.9 2.17-6.66 7.42-11.98 18-5.67 11.2-7.07 20.64 11.55-6.44 21.07-16.1z"/><path fill="#0f141b" d="M190.56 467.4q-4.13 11.26-7.77 25.68-3.22 12.81-5.04 24.08 18.48-8.4 33.04-21.49 1.68-1.47 2.17-.98.42.5-1.12 2.17-6.65 7-16.52 13.44-9.24 6.02-18.55 9.73l-1.4.21-.14-1.47q1.61-12.95 5.04-26.18 3.64-14 8.82-25.76.91-2.03 1.61-1.82.63.28-.14 2.38"/><path fill="#0f141b" d="M202.25 513.73q10.71-4.4 25.55-14.84 13.93-9.73 22.33-18.2l3.01.14q-9.45 9.94-24.43 20.23-15.6 10.85-27.65 15.33-1.82.63-1.33-1.05 1.82-7.14 3.85-12.74l3.08-1.82q-2.94 7.56-4.4 12.95m-3.3-324.59q-14.28-9.24-42.9-18.55l-.78-2.59q11.97 3.64 23.38 8.54 13.23 5.74 21.21 11.27 2.31 1.68 1.82 2.24-.42.56-2.73-.9"/></svg>