<svg xmlns="http://www.w3.org/2000/svg" width="707" height="529" viewBox="-0.2 -0.4 707.2 529.15"><path fill="#e4e5e8" d="M704.75 30.05q.95 3.4-16.95 15.65-15.05 10.25-22.8 13.9l-3.45-18-3.3-11.9q6.6-1.9 25.8-2.1 20-.25 20.7 2.45m-57.1 93.9 5.75-15.35 4.3-13.25q9.5 1.25 21.65 4.35 16 4.15 15.65 7.3-.3 3.15-20.8 9.8-17.9 5.8-26.55 7.15"/><path fill="#dbe5ee" d="M660.1 34.4q6 24.95 5.55 31-.55 7.25-11 40.15-10.65 33.8-13.7 35.7-2.1 1.25-26.05 1.95-25.3.75-32.25 3.1-8.05 2.75-31.1 18.6l-25.5 18q-3.15 2.2-29.15 11-26.65 8.9-27.4 9.35-1.85 1-6.45 15.15l-5.45 16.4q-.75 1.4 5 12.5 6.35 12.3 6.55 18.6l-38-6.15L405 217.4q2.85-15.05 7.8-34.9 5.7-22.95 9.25-31.4 6.5-15.65 32.1-44.65 9.5-10.85 17.65-18.9 7.8-7.65 8.75-7.35 1.4.6-3.8 27.3l-5.45 26.6 17.7-6.7q9.25-3.6 10.3-4.4.55-.5 23.35-39.4 23.15-39.45 26.45-43 4.05-4.2 32.55-22.1Q609.7 1.05 611.1 1.3q1.05.25 4.45 9.3l3.7 10q7.65-3.05 20.2-7 12.6-4.05 13.65-3.8 1.25.35 7 24.6M111.5 288.45q5.35 1.45 14.7 2.15l14.2.75q-2.75 4.25-9.75 6.6-6.2 1.95-11 1.3-4.35-.6-9.55-5.5-5-4.75-8.05-10.8l2.8 2.35q3.5 2.45 6.65 3.15"/><path fill="#8f9294" d="M421.25 224.75q3.1 1.95 10.25 9.45 7.3 7.6 9.5 11.35 4.55 2.8 13.2 9.1 13.2 9.65 34.8 26.3 17 12.65 25.65 16.7l90.75 55.55v35.9l-42.25-4.7q-8.25-3.1-35.65-18-30.65-16.65-36.85-19.5-7.65-3.65-24.25-6.75-14.1-2.75-29.75-4.3.05.9 1.45 5.55 1.1 3.8.65 5-.95 2.25-4 7 2.8 2.85 11.35 22.15.45 1 .65 3.4l.05 3.1q.5 1.3.95 4.65.65 4.4 0 6.85-.75 3.15-3.8 9.45-3.25 6.7-5.85 10l-.1-1.9q-.25-.8-1.15-1-3.05-.75-8.25 3.7-2.6 2.2-4.6 4.55l-2.25-6.75q-2.15-6.15-3.7-6.5.25-1.45 8-16.85l-4.95-3.05-4.55-3.15-2.45-3.5-3.7-5.7q0 3.65-1.85 5.9-4.8 5.85-7.7 6.65l-8.9-.4q-.1 2.65-2.35 9.3-2.8 8.25-6.4 12.55-3.8 4.65-12.2 10.4-8 5.45-10.2 5.45l-8.8-1.2q0 3.6 1.5 11.55 1.3 6.85 2.15 9.35 1.95 5.9 4.95 13.3 4.6 11.5 6.35 12.1l14.3 2q10.55 1.25 11.4 3.05l-11.45 9.5-38.8 12.75-4.3-2.75q-3.95-2.4-4.75-3.15-.9-.9-.5-5.6.25-2.85 1.35-9.9.85-5.1.6-11.1-.35-5.65-1.45-9.25l-2.5-7.9q-1.6-5-1.75-7.3-4.9-6.55-11.4-21.75l-4.55-11.85q-11.2 6-22.35 10.3-7.75 2.9-11.05 3.55-1.95.4-8.45.05l-8.8-.95q-2.45-.8-10.1-6.55-8.2-6.15-10.25-9.3-3.55 5.95-7.3 11.15l-3.85 4.75q-1.75 1.5-4.95 2.15-4.7.9-10.35-.65-3.15-.85-8.35-5.35-.35 3.55-1.95 9.9-1.95 7.2-3.8 9.9 1.45 16.3 3.35 22.15 2.6 8.6 3.5 10.05 2.2 3.85 8.45 6.45l12.9 5.15 7.5 2.65q2.1.6 5.25 3.4 3.85 3.3 4.65 6.5l-42.25 15.35q-3.65.25-8.45 0l-24.25-10.25-1.7-2.25q-1.5-2.55-.7-3.45.7-.9 2.75-10.05l2.6-11.55q1.15-4 1.15-26-.75-1.45-2.55-3.35-2.15-2.1-6.55-11.65-4.25-9.05-7.3-17.75-2.6-7.35-1.65-22.95.95-13.85 2.5-16.35l1.25-1.4 1.4-6.75q1.3-5.45 1.9-6.25.85-1.2 11.95-1.2l-2.4-7.25q-1.9-6.4-.25-22.15.3-3.35 3.1-13 3.05-10.4 6.4-18.65-7.75-3.2-11.55-3l-9.65 1.95q-11 2.05-23.15-.4l-7-.55-8.4-.9q-3.9-.8-7.6-6.35-3.35-4.9-5.3-11.6-2.85-9.7-.8-32.05l2.6-20.4 35.85-9.45L178.2 229q3.8 3.3 7.35 9.95 3.45 6.4 4.8 12.25 2.25 9.6 2.8 10.75 2.95 5.8 12.45 11.3l8.05-3.3q11.8-9.3 35.55-20.75 26.25-12.6 53.25-20.75l67.1-15.85 11.8-1.75 6.5-.25q2.5.4 16.5 6.3 13.8 5.9 16.9 7.85"/><path fill="#e4e5e8" d="M230.4 121.85q3.15.65 3.95 6.45.75 5-.35 10.2-1.2 5.4-3.85 9.75-3.1 5.2-6.25 4.55-6.15-1.3-33.45-14.55Q161 124 162.35 120.5q1.55-3.85 32.85-2 26.9 1.55 35.2 3.35m-7 62.3q3.15.2 4.95 5.8 1.45 4.85 1.15 10.2-.4 5.3-2.55 9.95-2.45 5.3-5.65 5.1-66.95-10.9-65.85-16.8.65-3.55 32.2-9.25 29.55-5.4 35.75-5"/><path fill="#dbe5ee" d="M226.05 100.75q1.5-.9 7.8-2.95 7-2.25 8.6-1.75 8.8 2.95 22.6 9.1 11.7 5.3 14.1 6.8l2.2-15.7q1.85-11.75 2.75-12.15 1.1-.45 39.2 36.85 38.3 37.6 40.1 41.75 1.8 4.2 5.2 37.9 3.3 33.35 2.35 34.1-.85.6-24.5-19.5L340 240.25q-4.25 17.55-3 20.35 1 2.25 13.7 23.9 12.45 21.7 13.2 27 1.2 7.85.95 25-.35 19-2.55 24.25-2.15 5.15-5.9 10.55-3.2 4.55-4.2 5.05l-2.85.7q-2.25.2-2.25-1.05l-1.65-15.6q-.2-1.6-4.8-14.3-5.15-13.8-5.6-15.45-.95-3.4-10.4-19.35-9.35-15.95-12.1-18.95l-1.85-1.6q-6.15 1.05-14.65 4.8-8.2 3.6-9.7 5.65-1.85 2.65-6.15 15.55-4.8 14.15-4.1 18.25l-5.15 9.65q-3.55-4.05-8.3-19.45-4.1-13.4-4.1-15.85 0-1 2.35-5.1l6.05-10.8 7.55-14.55q3.95-7.9 4.4-8.3.3-.25 5.45-2.3 5.15-2 6-2.9 1.05-1.05 6.75-17.3 5.45-15.8 5.7-17.55.1-.7-1.1-5.65-1.3-5.55-3-11-1.45.15-11.3-2.8-9.55-2.9-10.3-2.65-.8.25-23.75 14.8l-23.4 14.6-3.25.1q-2.6-.1-3.5-.65-.85-.5-3.4-5.5-2.15-4.1-2.85-5.95-.5-1.2-3.4-12.8-3.05-12.2-3.35-15-.25-2.15-.8-14.35l-1.05-19.45q-.5-7.15 8.1-35.55 8.15-27.1 9.6-27.95"/><path fill="#edf2f8" d="m218.6 121.85 11.8.65q3.15.65 3.95 6.15.75 4.65-.35 9.85t-3.8 9.2q-3.1 4.55-6.25 3.8-1.8-.3-12.5-4.95 3.1-12.15 7.15-24.7m5 62.95q3.15.2 4.8 5.45 1.4 4.55 1.1 9.9-.4 5.25-2.4 9.55-2.4 4.95-5.6 4.75l-8-1.75q-2.9-11.6-3.3-14.65-.35-3.1-.65-11.9z"/><path fill="#dbe1e7" d="M224.15 126.55q3.15-4.7 6.25-4.05 3.15.65 3.9 6.35.7 4.8-.45 10.2t-3.85 9.4q-3.1 4.75-6.2 4.05-3.15-.65-4-6.25-.7-4.8.55-10.2 1.15-5.4 3.8-9.5"/><path fill="#fff7ab" d="M234 138.5q-.65 2.8-2.1 4.95-1.75 2.4-3.55 2-1.85-.35-2.35-3.3-.45-2.55.2-5.35.65-2.75 2.05-4.9 1.7-2.4 3.5-2.05 1.85.4 2.35 3.4.55 2.55-.1 5.25"/><path fill="#dbe1e7" d="M228.4 190.25q1.4 4.55 1.1 9.9-.4 5.25-2.4 9.55-2.4 4.95-5.6 4.75-3.25-.2-4.85-5.5-1.4-4.45-1.05-9.85.4-5.25 2.45-9.55 2.4-4.95 5.55-4.75t4.8 5.45"/><path fill="#fff7ab" d="M229.5 200.15q-.2 2.85-1.35 5.05-1.4 2.65-3.2 2.55-1.9-.1-2.85-2.95-.8-2.4-.6-5.25.25-2.85 1.35-5.15 1.4-2.65 3.2-2.5 1.8.1 2.8 2.95.85 2.4.65 5.3"/><path fill="#dbe5ee" d="M666.7 198.55q.9-.3 5.2 12.7 4.45 13.8 5.9 23.15.65 4.3 4.8 24.7 3.2 16 3.2 20.6l.6 38.85q.7 33.4 1.15 37.3t.5 15.45l-.2 14.55q-.05 1.4 2.5 14.35 2.35 12.15 1.75 14.5-1.05 4.2-21.25 11.5-2.85.9-9.7 4.1-5.7 2.65-7.65 2.9-6.3 1-17.55 3.85-10 2.55-12.8 2.75-2.15.1-25.75-10.95-25.8-12.05-35.65-14.5l-12.85 2.05-5.85.25q-.4-.7 2.1-4.3l5.5-7.35-14.35-.5-13.15-1.05q-.25-1.25 10.1-6.3 11.3-5.55 25.85-10.85 12.1-4.45 22.3-5.65 8.05-.9 8.7-1.45 2.05-1.5 3.4-4.95 1.25-3.25 2.55-10.05.35-2.2.5-5.55l.15-5.45q-14.9-7-38.85-20.1-32.15-17.45-35.7-22.65-4.55-6.6-8.85-17.05-4.65-11-2.85-12.35 1.15-.9 18.95 13.25 16.45 13 20.35 16.9-11.75-25.8-10.4-27.15 1.6-1.55 18 15.9l18.8 20.15-1.85-8.9q-1.65-8.95-1.15-9.1.65-.2 5.5 3.7l4.75 3.9q2.25 0 4.45.65 0-1.45-1.9-9.85l-2.55-11.85-1.75-11.8q-.9-7.8 0-8.15 1.4-.45 20.9 14.3 20.9 15.95 29.55 25.55v-5.45q.15-5.45.8-5.65.5-.2 11.5 19.8l-1.25-31.45q-1.05-29.7-.15-30.15.85-.45 5.55 8.45l4.55 8.95 1.1-16q1.1-16.1 1.3-16.75l1.15-3.25q.95-3.4.95-8.2l.1-9.55q.25-4 1.65-5.45 2.85-2.8 5.05-9.3 2.1-5.9 2.3-6"/><path fill="#fff03e" d="M632.1 308.55v-5.45q.15-5.45.8-5.65.7-.25 16.7 29.25 15.7 29 16.7 31.65 1.05 2.8 1.75 15.25l-20.55-21.55q-.6-.75-7.4-21.45-6.75-20.75-8-22.05"/><path fill="#dbe5ee" d="M423.6 349.9q-2.85 1.6-10.8 3.7-6.85 1.8-7.85 1.8-.65 0-1.25-.7-.7-.8-.15-1.5l5.1-8.65 5.25-9.6 2.8-.2 19.9 1.5q-1.25 3.1-5.45 7.55-4.1 4.2-7.55 6.1M36.95 158.75q7.9 1.45 19.4 4.9 32.95 9.95 75.65 30.1l-7.5-15.2q-3.25-7.1-3.05-7.8.4-1.15 13.75 6.35 14.35 8.2 22.15 15.5 7.8 7.2 12.75 14.75 3.55 5.45 5.1 10.15 1.25 3.75 1.95 12.65.75 9.25-.5 9.5-.45.15-10.55-8.95-10.85-9.85-15.75-11.65-5.75-2.1-13.35 4.05-5.6 4.4-11.65 12.7-3.75 5.3-6.1 13.65-3 10.7 1.05 14.75 4.95 4.95 19.9 9.5l14.05 4.15q.35 1.15-6.45 7.1-7.05 6.2-9.95 6.2-19.5 0-29.95-4.3-5-2-8.55-7.7Q51 254.35 22.2 233.8 1.55 219.1 1.15 215.55.9 213.35 39 226.9l53.65 19.85q.2-2.3 1.6-9Q83.7 231.9 75.3 226q-10.1-7.15-9.45-9.3.35-1.35 13.25 1.45 11.7 2.5 20.7 5.5 4.1-7.85 8.45-12.4Q82.55 195.2 60 180.2q-30.25-20.05-29.8-21.95.2-.7 6.75.5"/><path fill="#e4e5e8" d="M351.55 479.45q4.05-.65 6.65 1.55 2.1 1.8 3.1 4.2 2.3-3.9 6.25-6.65 3.8-2.75 6.2-2.3 3.6.65 7.45 4.8 7.2-8.5 11.45-8.2 2.9.2 6.65 5.85 2.65 4.05 4 7.7 1.25 3.1 2.2 9.1 1.05 6.35.1 6.95-.8.45-8.1-5.15-8.45-6.5-9.9-7.25 4 7.05 5.7 12.9 1.35 4.9.6 6-.45.6-12.05-6.05-14.1-8.05-18.6-10 1.3 6.1 1.6 13.25.15 6.5-.55 7t-6.7-5.1q-8.85-8.15-15.2-12.95-2.85-2.15-1.5-6.65 1.25-3.95 4.35-6.3 2.95-2.2 6.3-2.7m-143.05 8.9q2.45-1.5 6.45-1.25 5.85.35 9.15 5.75 1.35 2.3 2.15 5.75 1.55-4.2 5.4-9.35 3.75-5.05 5.3-5.05 8.35 0 14.15 14.2 2.05 5.1 3.05 10.15.9 4.6.25 5.25t-10.1-3.9q-11.3-5.45-17.55-6.55 1.1 7.5.75 14.9-.35 7.45-1.85 7.9-1.4.55-8.3-7.85-9.35-11.35-13.9-15.55-1.45-1.3 1.1-7.6 2.45-5.9 3.95-6.8m-35.1 5.15q1.15-2.9 6.05-5.95 5.05-3.15 8.4-2.8 3.5.45 6.8 6.8 3.4 6.5 1.85 10.55-1.85 5.05-7.7 15.25-6.25 10.85-7.65 10.45-1.65-.45-5.2-16.05-3.65-15.65-2.55-18.25m248.75-81.2 1.9 6.7q2-2.8 4.6-5.3 5.25-5 8.35-3.6 2.95 1.35-1.9 15.25-4.9 13.9-6.75 12.9-.95-.55-2.7-6.65-1.8-6.3-1.95-10.25-11.95 13-14.35 11.7-.9-.5 3.05-13.75 3.9-13.3 5.9-13.2 1.9.15 3.85 6.2m-108-9q1.55-6.65 1.45-9.4 2.45 1.1 3.35 2.15 6.55 6.95 11.05 16 4.35 8.65 2.65 10.3-.7.75-9.6-6.2L314.3 409q-.15 5-2.1 12.5-2.05 7.65-3.4 8.2-.6.15-2.75-6.5-2.9-8.9-4.8-13l-3.75-7.65q-1-1.95-.55-2.85 1.25-2.75 3.9-3.15l5.75.35q2.9.5 4.2 1.15 1.5.65 2.1 1.65.6.9 1.25 3.6"/><path fill="#8f9294" d="m625.6 375.95-.05-9.5 18.65 6.85q3.75 1.35 6.15 3.95 2.55 2.8 4.5 8l2.85 8.3q1.1 3.35 1.55 4.05l3.6 5.25q3 4.7 3.5 6.6l-7-.3-4.5-.35q-3.5-2.8-22.3-13.2-1.75-2.6-4.2-7.55L626 383.1q-.2-.45-.4-7.15"/><path fill="#0d161f" d="M630 376.1q-3.55-7.35-4.45-9.65l18.65 6.85q3.75 1.35 6.15 3.95 2.55 2.8 4.5 8l1.5 4.3q-19.95-3.6-21.25-4.45-.9-.55-5.1-9"/><path fill="#fff03e" d="M638.8 381.3q-.7-.25-3.5-5.15l-4-7.45 12.9 4.6q3.75 1.35 6.15 3.95 2.55 2.8 4.5 8l.8 2.3-9.95-3.6z"/><path fill="#fff" d="M632.6 390.6q2.9-2.35 3.35-2.35.7 0 2.15 10.45l-9.2-5.15zm16.35 14.35-8.45-4.9q.7-.9 3.65-3.25 2.9-2.3 3.4-2.3t.95 4.75zm11.25 4.15-5.4-.3-4.65-3.2 3.4-3.65q3.4-3.55 3.75-3.35.4.15 1.65 5.05z"/><path fill="#dbe5ee" d="m322.7 372.85 6.45 3-10.35.8q-7.45.5-9.4.2-1.95-.25-7.7-3.8-5.2-3.35-7.55-5.5l2.95-5.55 2.45-5.2 5.3-2.3q1.2 2.35 4.2 6.45 3.65 5 6.05 7.15 2.35 2.05 7.6 4.75m51.55 5q6-1 9.15-2.1 5.15-1.8 10.1-4.1l3.35-1.95 1.3-1.2q1.9.2 9.25.2 1.5 2.85 3 4.9-.45 2.7-1.1 4.05l-.9 1.35-2.55 2.8q-2.55 2.55-4.5 3.4-2.2.9-5.95.5-3.45-.45-6.8-1.8z"/><path fill="#c6c8cb" d="M195.25 504.8q-11.5.9-18-4.7-2.05-1.75-3.35-3.95l-.8-1.85q2.3-2.65 5.3-5.2 6.05-5.05 9.45-4.35 3.5.65 6.6 6.7 2.55 5 2.55 7.1 0 1.5-1.75 6.25m14.9 1.1-4-.85q-2.7-2.3-3.15-3.5-.55-1.5 2.05-7.25 2.5-5.55 3.45-5.95 3.85-1.5 7.4-.9 3.65.55 6.25 3.1 2.15 2.2 3.65 7.15l1.1 4.55q-5 2.8-9.5 3.75-2.8.6-7.25-.1"/><path fill="#c6c8cb" d="M236.95 484.2q2.15 0 5.95 2.85l3.35 2.8q-.1 8.05-9.75 11.05-2.95.9-6.6 1.2l-3 .15v-4.7q1.95-4.7 5.05-8.95 3.25-4.5 5-4.4m109.7-3.35q9.15-3.15 13.3 2.05 2.15 2.6 2.4 5.85L360 490.7q-3.1 2.2-6.85 3.45-3.75 1.2-8.1.65l-3.55-.95q-2.1-2.95-.2-7.45 1.8-4.3 5.35-5.55"/><path fill="#c6c8cb" d="m364.9 490.9-2.15-.3-1.45-5.4q2.35-3.4 6-6.2 2.65-2.15 4.15-2.6 3.65-1.1 7.5 2.45 1.95 1.75 3.15 3.75-4 6.8-12.05 8.1zm16.2-11q2-2.1 4.55-3.95 5.05-3.85 7.45-3.1 2.45.75 4.35 3.1l1.35 2.2-2.5 3.7q-4.05 3.65-11.45 3.2zm57.55-67.55q-3.75 3.9-9.85 6.3l-5.35 1.65q-3.35-2.5-5.5-5.65-1.6-2.25-2.1-4l2.35-4.35 1.7 2.55q2 3.95 3.55 11.45l4.1-4.35q4.55-4.55 6.75-5.5 2.8-1.1 3.85.3.6.7.5 1.6"/><path fill="#edf2f8" d="M154.75 198.4q.05-1.15 2.65-2.5l2.55-1.1 9.4 10.35-9.35-3.45q-5.3-2.15-5.25-3.3"/><path fill="#c6c8cb" d="M296.65 399.4q.05-.5 1.35-1.55 1.55-1.2 3.3-1.4 1.85-.2 5.5.7 3.25.85 4.8 1.7 1.8.95 1.9 5.4-2.5 1.85-8.65 1.35-5.75-.5-7.05-1.9-1.75-1.7-1.15-4.3"/><path fill="#c6c8cb" d="m298.55 405.15 6.3.7q3.15.45 8.05-1.15l-11.65 5.5zM314.3 409l-.1-5.05 1.9-9.45 3.6 2.95q4.25 3.85 7.05 8.3 3.35 5.25 5.45 11.1 2.15 5.8 1.05 6.75-.9.85-10-6.8z"/><path fill="#b7c0c9" d="M588.25 410.95q1.45-.2 15.05 4.6 12.35 4.4 18.8 7.15 4.4 1.95 8.5 2.25 2.1.2 3.25-.05l9.8-1.25 13.8-1.85q5.25-.95 24.85-.35l-26.75 11.2q-2.7.2-18.5 3.8l-15.3 3.65q-5.3-2.85-29.7-13.65l-26.2-11.5-.9-1.25zm-5.7-134.55 11.2 14.75q9.75 12.65 11.2 15.4 2.45 4.6 15.2 38.45l1.9 3.7q2.5 4.1 5.85 6.25l19.2 11.8q2.4 1.55 7.5 6.1 6.25 5.6 7.45 8.2l5.2 11.8q4.05 9.05 5 10.2 1.45 1.7 8.1 6.6 7.2 5.3 10.6 6.75-1 1.85-3.45 2.8l-18.3-9.95H667l-9.3-16.8q-.9-3.35-2.5-7.2-3.2-7.65-6.5-9.8-2.55-1.7-20.25-7.6-17.1-5.75-18.85-7.3-3.05-2.8-28.85-43.8-2.75-4.3-2.35-5.55.4-1.2 4.15-.95l5.05.3z"/><path fill="#b7c0c9" d="m614.75 362.55 10.65 4.2-.25 15.75q.15 1.9 4.8 10.1l-1.15 1.25-5.75-3.4-6.4-9.8q-.95-1.4-1.45-8.65-.45-5.55-.45-9.45M654.4 249.6q.5-7.65 1.25-8.65 1.3-1.6 1.95-8.75l-.2-8.8q0-7.95 1.35-9.25 2.3-2.1 4.35-7.95l-.45 37.85q0 6.15-4.1 45.2l-1.4 15.4q-.35 3.4.7 10.45.85 6 1.55 8.1.65 1.95.8 22.25l-16.4-30.2q-1.6-35.45-1.3-42.45l.4-10.45q.25-5.3.7-5.45.35-.1 5 8.15l4.65 8.25.75-14.45zm-86.15 63.1 8.1 6.9-1.75-8.25q-1.7-8.45-1.45-9.15.25-.8 5.6 3.35l5.3 4.3q-3.6 0-5.65 1.25-1.3.75 9 16.9 5.05 8.05 10.45 15.9l-1.25 8.55-5.25-1.65q-4.6-4.8-13.4-20.3zM300.1 355.85l5.1-2.2q1.4 4 10.35 14.75l12.7 7.55-19.05 1.25q-1.85-.25-8.6-5.35l-6.35-5zm21.7-49.1q-9.1-14.95-11.25-16.2-2.1-1.25-13.4 4.2l-10.85 5.75-4.6 12.65q-4.75 14.05-5.45 21.2l-3.4 6.75q-1.6-5.7-3.1-12.7-3.05-14.15-2.6-20.65.2-2.95 1.65-5.95 1.05-2.15 2.35-3.65.9-1.05 11.25-7.45 10.35-6.45 12.35-7.25 1.35-.5 6.7-6.75 5.15-6.1 5.9-6.15l4.2.35q3.05.65 3.75 1.45.9 1.05 9.5 19.5 8.7 18.7 8.7 20.15 0 2-3.05 9.4zm92.15 29.3q2.15 2.15 5.1 4.05 5.3 3.35 10.9 4.05l-9.1 7.25q-1.75.9-9.5 3-8.1 2.05-8.1 1.2 0-.75 5.4-10.25zm-77.6-128.95 10.4 8.3-11.45 45.05q-.95-.95-.05-26.6zm-48.3-30.1q-.3.65.8 6.8l1.1 6 8.5 24-20.8-5.35-23.2 14.45q-23.35 14.5-24 14.6-1.1.35-6.95 0 5.6-7.45 7.75-13.6l3.2-9.75 1.6-5.2q28.3-13.3 29.05-13.3.85 0 8.25-9.9zm-3.95-93.15 9.55 33.85-2.1 2.95-8.05-6.65-4.75-2.15zM639.45 117q11.35-3.65 13.8-5.2l-11.8 29.65-26.5 2L585 145q-3.1.2-30.2 18.75l-28.75 19.85q-1.45.8-29.1 10.3-26.9 9.3-27.65 10.05-.95.95-6.45 16.6l-5.4 15.55 2.15 4.4 4.3 8.45q2.85 5.4 4.65 15.75l-30-22.2-13.6-16.05 38.95-47.85 40.05-10.7 32.45-27.55 15.75-8.9 9.3-8.1q9.4-8.1 10.35-8.35l17.15-.65 16.05-.4 23.6 6.45zm-81.6 279.65-7.5 8.5-26.6-1.35zM65.55 216.5l35.3 6.05 1.05-1.25-1.55 2.05q-2.2 2.65-4.55 9.1-1.1 3.15-1.85 5.85L70.9 223.1q-2.65-1.8-4.3-4-1.5-2-1.05-2.6m45.05 71.4 10 2.2 18.05 1.25 1 1q-2.95 3-9.95 5.1-6.75 2.05-10.85 1.5-3.3-.45-9.1-6.65l-5.1-6.05zM1.35 215.75q0 .9 39.3 20.45 40.6 20.1 53.65 25.15l1.55 7.8q2.1 8.35 4.5 10.55-36.3-18.8-58.9-32.5Q25.8 237.65 12.6 227 .5 217.25 1.35 215.75m29.7-56.9q2.65 1.55 45.85 23l42.55 21.1-10.7 8.5q-19.35-11.7-43.2-27.2-20.7-13.65-29.7-20.85z"/><path fill="#b7c0c9" d="M100.85 249.9q9.7 3.15 17.5 4.1l-.4 1.4q-.3 1.65-.05 3.45.9 5.45 7.55 8.8 5.85 3 18.2 6.7 10.2 3.05 10.2 3.65 0 1.75-3.45 5.4-4.6 4.85-11.75 7.95l-13.75-1q-14.6-1.7-19.4-4.95-6.05-4.15-9.65-14.15Q92 260.4 93.2 247.7q.05-.25 7.65 2.2"/><path fill="#636465" d="M625.45 384q-.35-.75-.1-8.15l.3-7.3q8.15 15.85 8.85 16.55l11.2 2.55 10.7 2 9.7 19.05-6.25.35q-2-9.55-2.8-10-.45-.3-4 3.05l-3.55 3.35-.9-.65q-.2-9.65-.65-10.25-.25-.35-3.95 2.6l-3.65 3-2.2-1.45-1-4.85q-1.1-4.9-1.35-5.1t-3.1 1.85l-2.75 2zm-62.55.6-75.7-38.65q-6.5-3.4-34.95-7.35-26.95-3.85-36.7-3.55-6.45.2-16.15 2.15-8.55 1.65-10.05 1.5-2.4-.25-9.05-11.25-6.3-10.4-6.3-12.05-1.05-4.55-.25-10.55l.95-5.05q48.1 5.7 63.05 10.65l35.7 11.25q25.8 8.25 30 10.95l36.3 22.45q33.05 20.1 44.45 25.45l-7.8.85q-8.7 1.2-13.5 3.2m28.45-33.8 5.25 1.65q.25 4.7-1.2 13.15-1.4 7.65-2.6 10.9-.95 2.3-3.55 3.6l-2.45.95q2.4-4.65 3.45-17.3z"/><path fill="#636465" d="m374.7 299.8-.7 15.6q0 2.05 6.75 12.35t8.6 10.95q2.4.9 24.75-3.75l-5.65 10q-5.6 10.1-5.2 10.65.6.9 9.15-2.35-8.9 10.6-15.45 16.35-6.6 5.7-32.95 9.5-1.1 0-5.75-7.75l-2.25 1.4 7.15-15.2q1.2-2.6 1.95-20.65l.65-19.95q.2-2.15-2.5-9.2l-2.7-6.6 6.6-.8z"/><path fill="#b7c0c9" d="M333.05 313.15q.2-1 0-2.6l-.25-1.35 10 .45 10-.75q2.55-.75 4.8-3.8l2.95-3.95 2 3.9q2.1 4.55 2.6 7.55.6 3.35-.4 22.65-.9 18.75-1.6 22.3-.6 2.95-4.75 9.75-3.85 6.25-5.85 8.35-1.45 1.4-3.3 1.65h-1.6l-2.6-18-4.2-12.55-4.95-13.8-3.1-6.85-2.35-4.7q2.35-6.5 2.6-8.25"/><path fill="#636465" d="M422.4 350.4q1.6-.95 7.55-6.25 1.2 1.9 2.6 5.35 1.65 3.7 1.65 4.95-11.8 13.45-14.05 14.05-2.35.5-21.8.05l14.05-15.3 4.45-1q4.6-1.25 5.55-1.85m-96.75-38.35 4.1 6.1q4 6.5 3.6 8.45-.5 2.7-3.45 8.85-3.1 6.6-5.1 8.4-2.85 2.55-24.7 12 1.55-5.1.95-11.55l-.9-5.35q1.3-.5 6.3-4 5.45-3.8 7.4-5.75 2.4-2.4 6.5-8.25 4.45-6.3 5.3-8.9"/><path fill="#636465" d="M324.8 343.85q1.95-2 8.55-17.25l11.7 32.7 2.05 16.9-5.95 1.2-6.35.75q-1.45 0-8.2-3.45-6.45-3.3-8.95-5.1-2.7-1.9-6.5-6.7-4.3-5.25-5.95-9.25 17.55-7.8 19.6-9.8m-65 14.9 5.7-24.05 5.4 9.65q-7.75 14.65-7.75 15.8l-.5 12.3-1.5 1.8q-1.55 2.25-1.95 4.25-.5 2.85.35 6.5 1 4.2 3.35 5.2l16.15 5.4q13.9 4.75 15.65 6.6 2.85 3.2 6.55 8.35-3.45 1.75-8 3.5-9 3.55-14.6 3.95l-10.4.4q-4.05-.25-7.05-1.8-3.3-1.85-10.85-7.8-7.6-6.15-8.05-7.45 3.45-6.85 7.35-15.65 7.8-17.5 10.15-26.95"/><path fill="#636465" d="m328.25 375.95 6.55 2.2q2.15.75 12.3-1.95.2 2.35 3.3 1.1 1.45-.55 4.3-3.6l3.55-2.35 5.75 7.75q-9.2 1.95-26.6 11.35-8.65 4.75-15.55 9.05-.45-.85-3.3-3.25l-2.8-2.2q-8-8.55-18-15.1l-8.45-4.9 4.7-6.1 6 4.35q6.35 4.45 8 4.85z"/><path fill="#636465" d="m355.85 381.35 4.45-1.6q2.65-.85 3.7-.65l12.35-1.15 10.4 5.05-4 11.85q-2.9 8-5.1 10.55l-8 8.45q-4.7 4.5-10.2 8.45l-9.1-1.95q-1.95-.3-23.4-23.4l13.5-7.4q13.8-7.6 15.4-8.2"/><path fill="#b7c0c9" d="M408.5 369.65q-1.4 2.95-4.15 7-3.95 6-6.9 8.3l-3.9.65-8.45-3.4q-8.5-3.5-8.75-4.25 15.9-4.4 17.2-5.7t4.8-3.7z"/><path fill="#636465" d="M183.3 385.25q-4.3-5.65-1.75-10.55l3.35-3.75q-7.9-11.95-10.25-25.1-.75-4.1-.85-7.8l.05-2.85 17.25 10.4q4.45 2.65 21 4.3 15.2 1.4 20.9.6 5.25-.8 17.5-5.5 12.65-4.8 14.05-6.85l-3.7 16.15q-4.25 17.35-6.7 22.85-2.9 6.5-11.5 22.15-8.55 15.55-10.3 17.5-1.8 2.05-7.25 2.95-5.85.95-10.3-.7-4.1-1.5-15.55-14.35-8.95-10.1-15.95-19.45m138.55 14.25 5.1-2.55 23.4 23.4 2.05 1.1.2 4.3.7 8.5q.75 5.8 6.9 20.25-9.75-1.5-17.6 5.7-4.95 4.55-7.6 10.55l-.9-13.1q-.15-2.25-3.2-12.1l-3-9.4q-2.85-3.45-8.2-15.45l-4.65-11.4 8.55 7.6q8.8 7.5 9.85 6.65 1.65-2.35-4.75-13.4z"/><path fill="#636465" d="M159.35 375.05q8.4-7.3 15.15-4.05l3.7-1.35q4-1.25 5.65-.7l2.05 3.8 1.15 17.2 6.05 8.55q7.45 9.85 14.95 15.6l-2 7.1q-2.4 7.65-4.45 10.4l1.2 10.35q1.4 10.9 2.3 13.85-4-2.35-9.75-2.3-11.4.05-19.95 11.9 1.3-18.4.75-24.25-2.8-3.65-6.25-9.7-6.95-12.15-10.2-24.35-2.55-12.35-1.7-23.4zm139.7-38.75q1.3.25 1.6 7.3.35 6.6-.45 11.05-.5 3.45-5.75 11.75l-5.15 7.65-3.2-.75-2.35-2.8q-2.3-3.05-2.1-4.4.35-2.55 5-12.3 4.45-9.35 6.35-12.05 1.5-2.05 3.9-3.95zm-39.85 42.2q1.75 2.2 8.15 4.95 5.3 2.25 9.75 3.35 3.8 1 11.3 4.45 7.8 3.6 10.3 5.75l-1.2 1.85q-1.25 2.25-.85 4.45-6.9-3.9-15.95-7.15L268 391.9q-6.2-2.1-7.1-3.6-1.5-2.4-1.75-6.35zm169.4 5.9-2.75 3.3-4.65-2.25q-4.75-2.55-4.95-3.45-.15-.7-3.85-6.05-3.7-5.3-3.9-6.3l11.65-1.15 9.95-8.75 6.1 10.5q3.65 6.7 4.7 9.35l-4.5-1.15q-6.65 4.8-7.8 5.95M118.35 254q6.8 3.9 21.3 9.2 19.65 7.15 34.1 8.5l17.05 8.1-6.3 13.3-4.65-2.05q-4.95-2-6.1-1.6l-6.9 1.9q-5.95 1.4-8.45 1.4-16.2 0-18.95-1.8l7.3-5q7.3-5.5 7.1-7.95-.1-.6-14.85-4.8-15.65-4.5-19.35-9.65-2.85-3.95-2.35-7.15z"/><path fill="#fff" d="m695.5 31.9-33.05 7.75-2.2-6.7 35.15-2.25q2.55-.1 2.35.3t-2.25.9M657.65 99q17.8 3.45 25.8 5.4 1.7.4 1.45.85-.3.35-1.75.45l-27.25-1.2z"/><path fill="#0d161f" d="M439.9 246.2q-2.15-3.6-9.35-11.15-7.05-7.35-9.95-9.2-3.3-2-16.95-7.85-13.75-5.85-16-6.1l-8.8.7-9.1 1.3q-.5.1-.75-1.8-.35-1.85.2-1.9 16.15-2.2 19.4-1.75 2.75.4 16.8 6.45 13.75 5.9 17.15 8 3.1 1.95 10.25 10.25 6.9 7.95 9.3 11.95.25.4-.9.9-1.1.55-1.3.2"/><path fill="#0d161f" d="M424.9 239.65q-7.6-2.2-15.4.05-16.4 4.85-25.05 28.1-4.8 13.2-7.4 29.2-2.4 14.5-1.15 18.05 1.45 4.35 6.3 12.35 5.25 8.8 7.8 9.75 1.2.5 9-1.1 11.15-2.35 17.65-2.6 11.55-.45 35.75 3 27.55 3.95 38.85 9.3 6.35 2.95 29.65 15.6 34.55 18.75 44 22.35.65.25-2.2 1.95-13.2-5.1-43.45-21.45-21-11.6-29.5-15.6-10.9-5.1-38-9-24.05-3.35-35.05-2.9-6.7.25-16.9 2.35-8 1.7-10.8.55-3.35-1.35-9.4-11.05-5.3-8.3-6.7-12.6-1.45-4.2.9-19.4 2.55-16.55 7.45-29.8 4.5-12.2 11.8-20.35 7.25-8.2 16.05-10.8 8.25-2.4 16.45.1 11.25 3.45 29.8 16.95l22.5 16.95 20.95 16.2q10.35 7.85 16.45 10.65.5.2.45 1.9t-.6 1.45q-6.55-3.1-17.35-10.8l-21.7-16.25Q462.9 262.6 453.4 255.7q-17.7-12.95-28.5-16.05"/><path fill="#0d161f" d="M528.75 295.5q-16.95-13.45-17.5-12.95-.65.7 3.6 10.75 4.5 10.7 8.3 16.35 3.25 4.8 34 21.6 24.1 13.25 40.1 20.8.65.3-.4 2.15-18.25-8.65-38.2-19.2-34.05-17.8-37.9-23.35-4-5.9-8.45-16.6-5.3-12.95-2.65-15.05 1.1-.85 3.75.6 4.85 2.55 17.05 12.3 8.75 6.9 17.65 15.8.4.35.8 2.15.35 1.65-.05 1.3-3.45-3.45-20.1-16.65"/><path fill="#0d161f" d="M582.5 310.55q-5.6-4.6-8.1-7l3.3 17.05q.45 2.45-.65 2.2l-1.5-1.05-6.3-6.35-16.65-17.95q-11.55-12.3-12-11.85-.4.35 3.45 10.15l6.8 17.6q.85 2.35.2 2.6-.65.35-1.75-1.85-2.95-5.5-7.15-16.1-3.4-8.3-4.05-11.8-.9-4.45 1.45-3.95 1.15.15 2.7 1.4 6.2 4.1 29.25 29.9l2.8 3.15-2.7-14.8q-.25-1.65.55-1.8l1.25.35q1.45.55 4.5 2.9 3.75 2.8 6.8 5.9.4.4-.7 1.05-1.1.6-1.5.25m82.3-104.85q-2.3 6.8-4.9 9.4-.95.95-1.2 4.75-.15 2.1-.15 9.25 0 4.5-.5 7.25l-1.1 3.9q-.6 2.05-2.55 32.9-.2 2.95-1.25 2.25-.55-.45-1.2-1.8-5.3-10.85-8.3-15.75-.25 8.85 2.05 59.4 0 .55-1.4-.3-1.35-.85-1.35-1.4l-1.25-30.4q-.8-30.05 1.05-30.4 1.25-.3 3.85 3.9 2.1 3.3 5.7 10.7.2-9.15.95-18.85.55-8.7 1-10.6l1.2-4q.75-3.15.85-7.05.1-8.05.3-9.65.4-4.85 1.85-6.25Q661.4 210 664 201.5l1.1-3q.5-.9 1.15-1.15l1.2.1q1.85 1.1 6.4 14.6 4.65 13.7 5.95 22.2 1.05 6.4 3.7 19.1l3 15.4q1.35 7.7 1.35 10.95l.4 39.05q.55 32.95 1 36.75.45 3.9.25 15.65l-.35 14.75q-.05 1.3 1.85 10.8 2.8 14.5 1.8 18.25-.85 3.4-10.6 7.75l-10.85 4.15q-1.6.6-4.4 2l-4.55 2.3-4.7 2.15-3.65 1.05q-8.95 1.15-21.45 4.6l-5.45 1.5-3.75.55q-1.35 0-5.4-1.8l-11.3-5.4q-32.9-15.55-44.95-18.6-.5-.05.15-1 .6-1 1.05-.85 12.65 3.15 44.95 18.3 14.05 6.7 15.35 6.85 1.2.1 8.8-1.9 12.75-3.55 21.3-4.6 1.7-.25 8.05-3.2 5.85-2.8 9.05-3.85 5.6-1.8 12.2-4.9 8.1-3.8 8.55-5.7.4-1.35-.6-7l-2-10.15q-1.9-9.6-1.85-11.45l.35-14.55q.2-11.55-.25-15.35-.45-3.95-1.05-37.8-.55-29.7-.55-38.55 0-4.8-4.35-25.8-2.2-11.1-3.5-19.25-1.1-7.4-5.8-21.65-4.35-13.2-4.85-13.2-.2 0-1.95 6.1"/><path fill="#0d161f" d="m575.1 380.4 9.75-1.25 4.85-.85q1.7-1.25 2.8-4.55.95-2.85 2.25-9.8 1.3-6.8.9-21.15-.1-.85 1.05.15 1.1 1.05 1.15 1.85l.45 9q.05 6.3-.8 10.9-1.35 7.4-2.65 10.65-1.3 3.45-3.5 5.1-.85.65-2.3.95l-3.5.4-9.8 1.2q-7.75 1.35-16.2 4.45-11.55 4.25-23.85 9.95-10.9 5.1-10.9 5.75l12.1.5 13.75.05q.55 0 .55 1.3t-.55 1.3l-14.4-.5-11.65-.8q-2.45-.3-2.65-1.2-.55-1.9 11.15-7.8 12.6-6.35 25.7-11.05 8.7-3.2 16.3-4.55"/><path fill="#0d161f" d="m625.75 425.05-17.1-6.45q-15.2-5.55-19.95-5.9l-12.7.9-16.45 2.45L545.6 418q-3.05.2-3.65-.75-1.25-1.9 5.65-10.3 4.35-5.25 8.9-9.8 1.65-1.65 2.15-1 .6.65-.95 2.3-2.55 2.65-8.2 9.9-5.95 7.3-5.65 7.7l5.7-.7 9.55-1.9 16.7-2.45 13.1-.9q5.2.35 19.75 6.1 10.4 4 17.45 7.35 1.65.75 1.3 1.35-.3.65-1.65.15m-30.1-62.35q-68.3-27.9-82.05-40.75-28.35-26.7-47.5-36-13.5-6.6-36.8-14.7-22.05-7.75-41.7-13.05-.55-.15-.3-.95.35-.7.85-.65 18.65 4.25 42.05 12.45 22.4 7.8 36.95 14.8 13 6.3 30.1 20.6 5.5 4.6 18.05 16.25 13.35 12.55 81.2 40.1.65.25-.85 1.9M439.9 321.05q-8.7-3.7-33.55-8.65-22.3-4.45-32.15-5.2-.55-.1-.2-1 .3-.95.85-.95 10.45.5 33.7 5.4 25.2 5.25 34.35 9.65.65.35-3 .75"/><path fill="#0d161f" d="M571.4 382.25q-8.35-3.35-26.6-14.6l-30.1-19.25q-13.25-8.7-16.45-10.55-5.5-3.1-53.45-15.8-8-1.55-34.15 1.8-18.8 2.3-29.1 4.4-.55.15-.85-1-.4-1.1.1-1.2 12.05-2.2 29.45-4.35 26.15-3.2 34.55-1.6l25.4 6.7q24.7 6.7 28.65 9 2.8 1.55 16.6 10.5 20.95 13.75 31 19.9 19.15 11.9 27.35 15.2.65.3-2.4.85m35.1-73.65 6.55 16.85q6.2 15.85 6.85 18.35.5 1.8.1 2.25t-1.35-1.8l-14.1-34.9q-1.05-2.9-7.6-12.3l-10.15-14.1q-1.05-1.35-.6-1.65.4-.2 1.55 1.05 4.5 5 10.7 13.45 6.85 9.45 8.05 12.8m16.75 41.75q6.6 5.65 18.35 11.9 6.05 3.25 11.3 7.8 3.6 3.05 5.45 5.4 1 1.1.55 1.4-.45.35-1.45-.55l-4.85-4.3q-5.95-4.7-12.05-7.85-7.45-3.9-12.15-7.45-3.3-2.45-6.3-5.65-1.35-1.4-.85-1.75.5-.25 2 1.05m37.95 29.05q1.4 2.15 4.75 9.9l3.7 8.45q3.55 6.15 7.7 9.1 8.25 5.75 13.45 8.9.5.25-.7 1.15-5.65-2.25-13.95-8.4-3.15-2.3-5.3-5-1.45-1.85-3.05-5-1-1.8-3.9-9.15l-3.85-9.45q-.9-1.8-.4-2 .45-.2 1.55 1.5"/><path fill="#0d161f" d="m670.9 378.6 4.15 14.7 5.95 5.75q1.2 1.15.7 1.65-.5.6-1.8-.45-6.5-5.05-6.9-6.4-.85-3-3.45-15.05-.4-1.85.2-2.05.55-.25 1.15 1.85m13.8 42.75-12.55.7-12.7.4L645.6 424l-11.75 1.5q-1.4.05-1.5-.45-.1-.6 1.4-.85l12.4-2.2 13.3-1.65 12.8-.3 12.7-.55q.45-.05.3.85-.1.9-.55 1m-62.2 14.75-1.5-4.5-1.2-5.05q-.25-1.45.15-1.5.4-.1.9 1.3l1.5 4.55 1.3 4.65q.25 1.4-.2 1.55t-.95-1m-7.6-59.95q-.35-1.7-.75-7.2l-.3-6.7q0-.4.95-.25.9.05.9.5l.4 13.6q-.05 1.75-.45 1.75-.45 0-.75-1.7m5.9 9.55 3.1 4.1 31.4 18.05 6.25.2q6.05.2 7.4.8 1.9.85 6.3 3.05 5.15 2.6 7.8 4.25 1.85 1 1.65 1.4t-2.1-.4q-2.4-1-8.05-3.75t-6.3-3l-6.5-.2-7.15-.65-16.6-9.4-15.15-9.05q-1.45-1.45-3.4-4.3-1.85-2.65-3-5.1-.85-1.85-.55-2.05.4-.2 1.5 1.45z"/><path fill="#0d161f" d="M626.2 382.7q.3 1 2.15 4.9l2.05 4.3q.25.35-.3.75-.6.45-.8.2l-2.25-3.95q-2.05-3.6-2.55-5.2-.65-1.7-.4-8.35.2-5.05.65-8.8.05-.45.9-.55.85-.05.8.4-.5 15.1-.25 16.3m5.05-14.65q.8-.5.9-.1l3.65 6.95q2.6 4.75 3.3 5.4 2.15 1 7.5 3 6.7 2.6 8.65 3.05.5.15-.15 1.85l-9.35-3.1q-6.8-2.45-7.85-3.1-1.05-.6-4.1-6.65l-3.05-6.5q-.2-.35.5-.8"/><path fill="#0d161f" d="M630.95 375.95q3.8 7.5 4.65 8.25.6.35 10.5 2.5l10.1 2.2q.4.1.2.9-.2.7-.55.7-19.7-3.7-21.55-4.65-1.2-.65-5.25-9.35l-3.85-8.65q-.1-.4.6-.75t.85 0q.7 1.9 4.3 8.85m.85 14.2q3.6-2.7 4.25-2.45 1.2.5 3.2 11.65 0 .45-1.05 0t-1.05-.9l-.75-4.75q-.7-4.05-1.05-4.15-.2-.05-2.6 2l-2.8 2.4-1.35-.2q-1.05-.45-.7-.7zm17.85 9.2.35 5.4q.1.4-.95.6l-1.1-.15q-.1-9.6-.5-9.8-.35-.15-2.8 2.05l-3.05 2.95q-.25.3-1.1-.25-.85-.65-.6-1 .9-1.1 3.75-3.25 3.35-2.5 4.25-2.15 1.15.45 1.75 5.6"/><path fill="#0d161f" d="m658.9 409.15-1-4.9q-.9-4.3-1.25-4.35-.35-.15-5.75 6.3-.25.3-1.05-.35-.7-.65-.45-.95 2.6-3.4 4.95-5.4 2.25-1.95 3.05-1.7 1.1.25 3.55 11.65 0 .45-1.05.3-1-.1-1-.6m-202.55-304.1q-24.3 27.75-33.15 46.6-3.75 8-9.45 31.4-4.4 18.1-7.45 34.55-.05.55-1.35.3-1.3-.2-1.25-.75 4.2-22.35 6.65-33.25 5.35-24.9 9.35-33.35 9.6-20.55 35.1-48.95 5.45-6 16.65-16.3 4.9-4.65 7.3-5.95 1.4-.7 2.25-.4 1.2.55.95 4.2-.4 5.45-3.65 24.55-2.4 13.85-5 26.6-.1.5-1.95.65-1.8.05-1.7-.45l7.15-33.05q4.2-20 3.35-20.55-.55-.3-7.5 6.65-7.7 7.65-16.3 17.5"/><path fill="#0d161f" d="M581.6 19.9Q553.5 37.85 550 41.55q-2.05 2.2-13.05 21l-20.1 34.7q-15.15 26-16.25 26.95-1.35 1.05-8.75 4-9.35 3.6-23.8 8.25l-2.45.1q-.5-.5 1.75-1.4l23.1-9.65q7.25-3.05 7.95-3.5 1.15-1.45 15.75-26.45l20.4-35.5q10.7-18.65 12.9-21 2.45-2.5 15.9-11.1 7.05-4.6 17.9-11.3 15.5-9.7 21.35-12.95 7.25-4.1 8.75-3.65 1.3.4 5.3 10.1L620.4 20q.25.55-.9 1.1l-1.45.1Q611.7 3.1 610.4 2.6q-1.05-.45-28.8 17.3"/><path fill="#0d161f" d="M581.1 47.2q-2.1 1.15-2.5.7-.45-.45 1.65-2.25l12.8-9.6 12.8-9.2q2.25-1.55 2.7-1 .5.55-1.8 2.4l-13 9.85zm84.3 3.45q1.8 11.05 1.55 14.8-.6 9.45-10 40.25-10.15 33.2-15.35 36.65-1.5 1.05-7.4 1.45l-15.75.65-20.15.8q-10.7.75-15.25 2.3-6.35 2.15-30.4 18.7L526.8 184q-8.5 4.3-32.6 12.7-23.15 8-23.75 8.35-1.05.65-6.25 15.1l-5.45 15.2q-.2.65 1.5 3.85l3.05 5.65q6.5 12.35 6.65 21.4 0 .5-1.05.4-1.05-.15-1.05-.65-.15-4.1-2.6-10.1-1.45-3.55-4.85-10.15-3.1-5.5-3.85-7.2-1.2-2.65-.55-3.95 2.6-7.95 5.35-15.6 5.35-15.3 7.5-16.85.3-.25 27.45-9.6 27.2-9.4 29-10.7l25.9-18.45q24.15-16.75 31.05-19.15Q587 142.6 598 142l20.4-.7 13.95-.25q6.7-.2 7.9-.9 2.85-2.15 13.3-35.3 10.25-32.5 10.8-39.6.45-5.5-4.7-28.2-4.75-20.85-6.9-26.15-5.85 1.3-38.45 12.55-2.2.8-2.4.25-.2-.5 1.8-1.6 5.8-3.1 22.05-8.6 16-5.4 17.65-5 2.75.75 8.75 25.9 1.65 6.95 3.25 16.25"/><path fill="#0d161f" d="M705.3 32.75q-5 6.25-22.5 17.8l-16.9 10.4q-.2.15-.7-1.35-.55-1.55-.1-1.8 17.05-9.9 28.95-18.55 10.7-7.8 10.2-9.15-.45-1.2-12.95-1.05l-32.15 1.65-.65-3.4q31.15-2.3 44.5.05 3.4.65 3.7 2.15.3 1.2-1.4 3.25m-56.05 89.4q10.6-2.4 27.9-8.2 17.4-5.9 17.4-7.2 0-1.4-12.6-4.85-12.75-3.5-24-5.1-.5-.1-.3-1.7.15-1.7.65-1.65l14.8 3.45q15.6 3.9 20.8 6.9 2.6 1.5 2.95 2.65.45 1.45-2.2 3.05-5.35 3.35-25.7 10.1l-19.8 6.15q-.15 0-.2-1.75-.1-1.8.3-1.85m-165.3 51.9q-19.1 4.95-19.95 5.6-.9.65-13.5 16.25l-15.95 19.7q-1.8 2.2-2.4 1.9-.55-.35 1.1-2.85 3.9-5.7 15.15-20.1 12.45-16 14.3-17.15 2.95-1.75 41.95-10.35 2.55-.5 2.8 0 .2.5-2.3 1.35zM643.8 49.7q-10.45 10.5-17.3 16.6l-48.1 44q-22.1 20.2-24.1 21.5l-8.8 4.9q-7 3.7-9.55 5.6l-12.15 9.65-9.8 7.95q-2.45 1.95-2.75 1.5-.15-.55 2.25-2.85l9.55-8.8q7.6-6.7 11.35-9.55 2.6-1.95 9.45-5.85l8.55-5q2.2-1.45 28.35-25.05l44.05-39.9q11.55-10.5 17.9-15.5 1.9-1.5 2.35-1.25.45.3-1.25 2.05"/><path fill="#0d161f" d="M636.65 118.75q-7.65 2.8-9.1 2.8-1.15 0-11.45-2.95l-11.6-3.15q-2.1-.4-14.15-.25l-19.8 1q-.5.1-.5-.9.05-.95.55-1.1l19.7-1.3q12.25-.4 14.55-.05l11.6 3.25q9.85 2.85 11.05 2.85 1.15 0 8.5-2.2 8-2.5 8.9-2.7 1.95-.45 2.2 0 .3.5-1.55 1.3-2.25 1.05-8.9 3.4M302.3 98.8l22.05 20.8 24.3 23.7q15.8 15.7 16.85 18.15 1.1 2.55 2.6 18.1l1.8 20.9q2 20.8 2.4 31.8.15 3.55-1.05 3.85-.75.1-3.05-1.45-2.35-1.65-16.65-13.6-13.95-11.7-15.45-13.2-1.55-1.55-1.05-2.05.45-.55 2.2.75l15.55 12.55q14.25 11.6 16.95 13.55-.05-8.8-2.95-36.75-3.1-29.1-4.65-32.7-1.5-3.55-36.2-38.1-33.35-33.15-41.6-40.1-.95 4.55-3.95 27.1l-1.5-.05q-1.45-.6-1.35-1.1 3.75-23 4.6-25.65.65-2.3 1.55-2.5.7-.1 2.4 1.2 1.5 1.15 16.2 14.8"/><path fill="#0d161f" d="M283.95 84q.8-.35 1 .15 1.1 2.9 5.4 17.25 4.4 14.9 4.4 16.25 0 1.15-.85 2.2-.85 1.2-3.35 3.2-1.5 1.25-2.1.9-.5-.4.85-1.9 2.6-2.85 2.85-4.4l-3.85-15.55q-3.8-14.6-4.9-17.35-.2-.5.55-.75M210.8 185.3l-3.15.6-.1-2.65q-.4-9.65-1.15-19.25-.25-4.45 2.95-16.5l3.05 1.1q-3 11.95-2.75 15.5.5 6.4 1 18.85zm4.55 29.4q2.45 9.8 2.85 10.65.65 1.75 2.8 5.85 2.25 4.4 2.95 5l2.75.45 2.85-.05q1.4-.7 21.7-13.6 24.4-15.45 25.35-15.8l3 .3 8.2 2.2 10.65 3q.55.1.8 1.2.3 1.1-.2 1.05l-11.95-2.75-5.8-1.6-3.9-.9-8.75 5.95q-9.45 6.6-15.45 10.35-19.2 12.2-22.9 13.05l-4.2.1q-2.7-.2-3.55-.75-1.25-.7-4.5-6.55l-3.05-5.8-3-11.7z"/><path fill="#0d161f" d="m220.55 120.45-3.1-.4q6.35-19.45 7.95-20.4 1.55-.9 7.95-3 7.5-2.45 9.55-1.8 8.95 3.05 24.35 10 13.4 6.1 15.7 7.6 2 1.15 7.5 5.8l1.95 1.5q.4.3-.35 1.35-.8 1.05-1.2.7l-2-1.55-7.3-5.65q-2.45-1.5-15.5-7.5-15.45-6.95-24-9.8-1.25-.3-8.05 1.55-6.7 1.9-7.15 2.5-.6 1-6.3 19.1m19.85 6.35q4.2.75 16.05 5.1 11.6 4.2 12.3 5.05l2.95 5q2.5 4.45 3.35 5.2 2.3 2 4.8 8.6 1.8 4.65 2.3 7.2.3 1.65-.2 1.8-.5.2-1.1-1.3l-3-6.95q-2.7-5.75-4.55-7.4-.95-.9-3.65-5.5l-2.9-5q-.6-.65-11.7-4.95-11.2-4.3-14.85-5.3-.5-.1-.45-.9.15-.7.65-.65m32 62.1-4.1 5q-2.6 2.85-4.5 3.75l-10.4 4.8-12.15 5.15q-1.85.7-2.25.25-.4-.5 1.6-1.5l22.1-11.05q2.35-1.15 7.6-8.05l2.15-2.6 6.85-4.15q5.85-3.3 7.4-3.95 1.9-.85 2.2-.45.4.45-1.3 1.6-12.4 7.95-13.25 8.8zm38.8-12.05 5.8 7.35q1.15 1.85.9 2.35-.25.6-2.2-1.45l-6.5-7.25-5.1-5.55q-.9-.65-19.05-4.6-2-.45-1.95-1.1.1-.7 2.25-.45l10.7 1.85q8.65 1.65 9.35 2.25 1.05.85 5.8 6.6"/><path fill="#0d161f" d="m240.55 118.25 1.45 15q1.15 14.55.95 17.3-.15 1.95-.7 1.95t-.75-1.95l-3.95-31.8-2.25-6.1-2.7-6.65-3.35-.55q-1.55-.3-1.55-.8 0-.6 1.55-.8 4.65-.65 5.45.6l3.1 6.9zM242.9 182q-.8 12.15-1.85 14.95-1.1 2.85-4 12-3.2 9.75-3.7 12.25-.8 3.55-5.35 11.15-.9 1.5-1.45 1.25-.5-.25.2-2.05l2.4-5.4 2.05-5.5q.55-2.7 3.5-12.4 2.9-9.5 3.95-12.2.9-2.4 2.15-14.4 1.25-12.25 1.2-18.9 0-2 .5-2 .45 0 .65 2 .6 6.7-.25 19.25m48.3 8.25q2.45 5.05 8.05 21.85 5.65 16.85 5.45 18.65-.2 2.35-6 17.95-5.9 16.05-7.45 17.6-.6.6-5.85 2.75t-5.6 2.45q-.65.7-9.95 18.8-9.5 18.25-9.55 19.3-.1 1.55 4.1 15.05 4.55 14.4 7.15 18.95.25.45-.6 1.05-.9.55-1.1.3-3.8-5.05-8.45-19.9-3.95-12.6-4.15-15.7-.05-1.6 9.6-20.3 9.45-18.25 10.55-19.45.6-.7 6.1-2.7l5.85-2.4q1-1.3 6.45-16.8 5.35-15.25 5.7-17.35-.05-1.35-4.9-17.35l-6.85-22.05q-.95-3.05-.45-3.35.45-.25 1.9 2.65"/><path fill="#89959d" d="M235.15 133.05q.5 2.75-.2 5.7-.6 2.75-2.6 5.35-2.25 3-4.2 2.35-2.05-.65-2.95-3.5-.85-2.95-.05-6.4.7-2.85 2.15-5.05 1.8-2.85 4-2.75 1.45.15 2.5 1.4 1.05 1.15 1.35 2.9m-3.4-2.75q-1.3-.45-2.7 2.05-1.25 2.05-1.85 4.65-.7 3-.25 5.5.45 2.25 1.5 2.5 1.2.25 2.55-2.05 1.3-2.25 1.7-4.7.5-2.9.25-5.35-.25-2.25-1.2-2.6"/><path fill="#89959d" d="M225.15 126.75q-2.65 3.9-3.7 9.05-1.1 4.9-.45 9.75.65 5.45 3.15 5.95.55.15-.35 1.5-3.75-.85-4.75-6.8-.95-5.1.35-10.85 1.15-5.5 4-9.75 3.15-4.85 7.45-3.8.45.05.15.7-.25.65-.7.6-2.35-.6-5.15 3.65m.05 82.15q-2.7-.2-3.95-3.45-1.05-2.7-.8-5.95.35-3.25 1.55-5.75 1.65-3.1 4.1-2.9 2.5.2 3.7 3.65.95 2.65.75 5.7-.25 3-1.55 5.65-1.65 3.2-3.8 3.05m2.95-13.2q-.65-3.1-2.15-3.25-.9-.05-1.9 1.45-1.35 2-1.55 5.7-.15 2.8.45 5.1.7 2.5 2 2.65 1.25.05 2.3-2.4.95-2.3 1.15-4.9.05-2.2-.3-4.35"/><path fill="#89959d" d="M218.9 190q-1.9 4.3-2.25 9.2-.35 5.05.8 9.4 1.4 5.05 3.9 5.25.6.05-.1 1.6-3.9-.3-5.65-6-1.45-4.55-1.05-10.4.45-5.8 2.8-10.25 2.65-5.1 6.45-4.85.45.05.3.8t-.6.7q-2.45-.2-4.6 4.55"/><path fill="#0d161f" d="M342.2 237.45q-4.85 20.65-4 22.6l13.1 21.6q13.05 22.15 14.7 29.55 1.55 7.05.85 24.7-.8 18.35-3.2 24.2-2.05 5-6.3 10.9-3.5 4.95-4.85 5.95l-1.65 1-2.1.4q-1.2 0-1.95-.45-.55-.3-.55-2.2l-1.05-7.85-1.05-7.3-4.65-13.7-5.7-15.85q-1.1-3.35-10.25-19.15-9.3-16.1-11.85-18.9-3.95-4.3-11.5-3.45-1.85.15-2.05-.4-.15-.5 1.75-.85l6.55-.3q4.3.45 7.1 3.5 2.85 3.15 12.45 19.1 9.65 16 10.75 19.45l5.5 16.3q4.4 12.95 4.5 14l1.55 16.2 2.5-.2q.95-.75 4.2-5.4 4.05-5.8 6.1-10.6 2.3-5.6 2.95-24.05.65-18.2-1-24.65-1.65-6.7-14.6-27.9-13.25-21.55-13.7-23-.8-2.5 4-22.35 4.3-17.5 6.4-23.45.2-.55 1.4-.2 1.25.3 1.1.85z"/><path fill="#0d161f" d="M281.25 317.35q-4.7 13.7-4.1 17.45.1.55-.9.75-1.05.15-1.1-.35-.75-4.4 3.75-18.9 4.15-13.25 6.1-16 1.65-2.3 9.8-5.7 8.3-3.55 14.7-4.65.55-.05 1.4.8.75.9.25.95-6 1.05-14.5 4.95-8 3.6-9.15 5.35-1.9 2.6-6.25 15.35m-13.6-9q3 21.6 3.9 25.55.4 1.75-.2 1.75-.6-.05-1.15-1.8-1.1-3.25-2.35-10.6-1.35-8.6-1.35-14.65 0-1.8.45-1.95.45-.1.7 1.7"/><path fill="#0d161f" d="M333.35 317.2q-1 3.25-2.45 4.3-.25.1-.8-.45-.55-.65-.2-.95.65-.5 1.6-3.1.9-2.65.9-4.4-.35-2.05-8.6-20.55-8.05-18.15-9.1-19.55-.4-.4-2.45-.85l-4.6-.45q-.5.05-2.15 1.95l-2.8 3.25-4.1 4.7q-2.35 2.55-3.95 3.2-2.9 1.2-10.9 6.2-6.8 4.2-11.8 7.7-1.7 1.2-2.2.8-.55-.4.95-1.75 3.4-3.05 11.05-7.8 6.95-4.35 11.65-6.55 2-.95 7.55-7.25l3.75-4.35q1.65-1.7 2.75-1.7 6.8 0 8.65 1.9 1.1 1.05 9.45 19.5 8.65 18.9 8.65 21.45 0 1.95-.85 4.75m20.15-8q1.95 7.55 3 23.35 1.05 16.35-.4 22.35-.45 1.7-1 1.7-.55-.1-.3-1.85 1-5.55 0-21.5-.95-14.6-2.45-23.6-.35-2 .15-2.2.5-.25 1 1.75m-5.65 67.95q3.45-5.95 5.65-13.85.45-1.65.85-1.6.45.1.25 1.7-.7 7.55-4.35 13.8-.2.3-1.4.4-1.2 0-1-.45m-35.3-123.7q-1.2 7.6-2.5 10.9-.85 2.15-1.4 1.9t-.05-2.6l2-10.75q1.45-8.75 2.15-16.1.35-2.75 1.05-2.75t.6 2.75q-.6 8.9-1.85 16.65m48.3-9.25q2.85.65 13.85 5.35 11.7 5 13.45 6.7.35.3-.2 1l-.7.4q-1.35-1.25-12.85-5.85-11.05-4.35-14.1-5.05-10.3-2.3-21-.65-.55.1-.55-1.2 0-1.2.55-1.35 10.95-1.7 21.55.65m13 70.85-9.2.4q-.55 0-.6-1.45-.05-1.5.45-1.5l9.35.55q.55 0 .55 1.05 0 .95-.55.95m-18.45 56.7q3.5-2.35 16.95-16.7 11.2-11.9 15.7-17.3.3-.4 1.15.25t.6 1.1q-2.15 3.85-15.55 17.8-14.35 14.95-19.95 17.95-.2.15.25-1.35t.85-1.75"/><path fill="#0d161f" d="M364.7 377.85q1.15.4 13.05-1.9 3.05-.6 9.3-3 7.3-2.8 9.55-4.8 4.35-3.9 14.5-14.5l1.65-.2q1.15.15.85.55l-7.9 8.95q-4.6 5-7.4 7.55-2.65 2.4-10.55 5.2-6.3 2.25-9.65 2.85l-7.7 1.25-6.55.5q-1.05-.25-3.75-4.15-2.6-3.65-3.2-5.2-.25-.45.8-.7.95-.2 1.15.25.45 1.15 2.8 4.15 2.35 2.95 3.05 3.2"/><path fill="#0d161f" d="M374.1 378.35q-.45-.25.4-.85.8-.55 1.3-.35l8.85 3.55 8.15 3.1 3.55.55 4.15-.25q1.75-.45 4.05-2.6 1.7-1.7 3-3.6 2-2.7 2-5.3 0-.55.8-.35.75.25.75.8l-.05 2.65q-.25 2.2-1.45 3.85-5.05 6.75-8.5 7.05l-8.8-.25q-2.1-.6-8.95-3.55-6.65-2.95-9.25-4.45m50.15-27.3q-3 1.65-11 3.65l-8.1 1.75q-2.9.35-3.35-.7-.4-.8.75-2.85l5-8.9 5.2-9.65q.25-.45 1.6 0 1.45.55 1.2 1L404.3 354.4q-.3.55 7.65-1.7 8.2-2.35 11-3.9 3.25-1.85 7.2-5.85 4.1-4.25 5.2-7.15l1.45-.1q1.2.5 1 1-1.35 3.45-5.75 8-4.15 4.35-7.8 6.35"/><path fill="#0d161f" d="M429.55 361.8q-5.9 5.9-8.95 7.45-1.9.9-10.1.8l-11.85-.85q-.55-.05-.35-1 .25-.9.8-.95 18.45.45 20.45-.35 2.35-1.1 7.8-6.6 7.3-7.4 10.2-14.35.25-.6-.45-4.5l-.85-4.6q0-.55.85-.5.9 0 1.05.55 2.9 8.1 2.15 9.85-3 7.25-10.75 15.05"/><path fill="#0d161f" d="M425.3 388.55q-7.95-4.1-9.6-5.5-.95-.85-4.6-6.55l-4.65-7.55q-.3-.45.75-.75l1.3.15 4.95 7.4q3.2 4.65 3.95 5.35l4.1 2.85 4.7 2.85q.45.2-.15 1.05zm7.65-9.15q-.7-1.9-3.9-7.85-3.2-6-3.9-6.7-.35-.4.25-1 .6-.5.9-.2 1.25 1.25 4 6.15 2.95 5.25 4 8.65.15.45-.5.9zm2.15-26.9q1.7 1.7 6.75 11.35 4.8 9.1 5.35 11 .45 1.55.55 3.85.15 2.2-.1 3.7-.1.5-1.2.25-1-.25-.95-.8v-2.65l-.65-3.3q-.65-1.85-5.15-10.85-4.8-9.65-5.85-10.75-.4-.4.25-1.3t1-.5m228.45-117.55q-.55 21.4-1.1 27.85l-1.25 11.8q-1.95 18.55-2.05 20.75-.15 2.1-.7 1.95-.55-.05-.65-2.15-.35-6.3 1.2-20.7l1.25-11.8q.6-6.8 1.35-27.5.75-20.15.75-27.55 0-.45.9-.75l.85.05zm-4.8 80.6 1.45 8.1q.45 1.65.75 11.1.4 9.25.2 12.5 0 .35-.95-.2-1.05-.55-1-1 .2-3.05-.25-11.8-.4-8.6-.8-10.1-.55-2.4-1.2-7.85-.85-6.9-.55-10.95.15-2.05.75-2 .5.05.5 2.15 0 3 1.1 10.05m-324.65 63.6q-3.35-.65-9.5-3.8-6.05-3.1-10.1-6.1-1.5-1.05-5-5.9-3.75-5.15-5.45-8.7-.25-.45.65-.9.9-.5 1.15 0 1.6 3.25 5.5 8.15 3.45 4.35 4.75 5.3 3.4 2.6 9.65 5.65 5.55 2.7 9.1 3.8 1.7.55 5.6-.05 3.45-.5 6.2-1.4.5-.15.9.65.4.75-.15 1-2 1.05-6.15 1.85z"/><path fill="#0d161f" d="m320.9 377.65-9.95.5h-1.7q-2.25-.25-8.05-3.9-5.65-3.6-8.25-6.4-.35-.4.4-1.2.7-.75 1-.4 2.5 2.6 8.2 6 5.25 3.1 6.9 3.3l9.5-.2 10.05-.65q.55-.05.8 1 .25 1.1-.25 1.15zm-59.3-4.95v-7q.05-5.2.25-6 .4-1.95 8-15.8 3.45-6.75 4.95-9.2 1.15-1.9 6-3.55 4.85-1.6 8.45-1 1.55.25 2.8 2.2 1.15 1.7 1.15 3.2 0 .55-.5.65-.55.1-.8-.4-2-3.45-2.8-3.6-2.9-.45-7.2.9-3.85 1.25-4.65 2.35l-1.45 2.8-3.65 6.9q-7.25 13.2-7.7 14.6l-.45 5.35q-.45 5.2-.4 6.55.1.6-.95 1.1z"/><path fill="#0d161f" d="M302.05 352.9q-.4 3.25-4.25 9.95l-7.2 11.7-1.65-.85q9.75-15.5 10.5-21.15.7-5.5.4-9.2-.5-4.3-2.45-7.15-.3-.4-1.3-.6l-1.8.2q-1.1.3-1.5.7-3.85 4.15-7.75 11.3-3.75 6.9-4.35 10.35-.5 3.3.75 6.8 1.35 4.05 4.65 7.15.4.4-.25.6l-1.05-.2q-6.95-6.05-5.45-15.15.65-3.9 4.5-10.85 3.9-7 7.7-11.25 1.7-1.85 4.5-1.65 2.2.15 3.25 1.75 4.25 6.2 2.75 17.55m.2 59.15q-14.1 7-21.4 8.3l-10.4.45q-4.8-.3-7.95-1.3-4.85-1.35-11.9-7.25-6.5-5.55-9.35-10.1-.3-.45.55-1.25.75-.75 1.15-.3 3.5 4.1 9.05 8.7 6.8 5.7 10.9 6.95 8.05 2.35 17.45.6 7.25-1.5 20.45-7.85zm61-34.35q.55-.05 1.05 1 .45 1.1-.05 1.15-4.45.8-17.3 7.55l-24 13.3-1.6-2.75q33.6-18.75 41.9-20.25"/><path fill="#0d161f" d="M392.5 385.25q-.2 3.3-2.05 9.55-2.6 8.45-6.25 12.9-3.9 4.65-12.35 10.7-8.3 6-11.05 6.1l-5.25-.65q-4.1-.9-5.85-2.2-21.55-20.4-23.95-24.05-.25-.45.85-1.45 1.1-.9 1.45-.45 1.35 2.25 23.3 23.5 1.5 1.1 4.1 1.75l5.3.45q1.95-.15 9.45-5.25 8.3-5.6 12.05-10.15 3.4-4.1 6.1-12.15 2.2-6.45 2.3-8.9.05-.55.95-.4 1 .2.9.7m-65.85-41.4q-1.75 2.6-12.7 7.8-9.25 4.35-15.1 6.25-.15 0 .15-1.3t.7-1.45q5.15-1.6 13.9-6.35 9.15-4.9 10.6-6.95l4.55-7.6q2.95-5.35 3.65-7.55.2-.55 1.15 0 1 .45.85.95-.85 2.95-3.45 8.4-2.45 4.95-4.3 7.8m-23.9-114.15q-26.45 8-54.85 21.5-24.1 11.45-33.3 18.5-7.35 2.05-6.8 1.6 10.4-8.95 36.95-22.2 29.9-14.95 57.2-23.15.55-.15.95 1.75.35 1.9-.15 2m-4.7 18.8q-38.2 11.05-53.1 16.2l-1.4-.4q-1.4-.45-.9-.65 15.6-6.65 54.7-17.65.55-.1.85 1.15.4 1.2-.15 1.35m35.5 200.65 1.1 3.85q1.2 3.9 1.45 9.8.25 6.05-.6 11.1-2.15 13.1-1.15 14.4.65.7 5.2 3.4 1.55.95 2.2 2.75.7 1.8-.4 1.15-8.35-4.45-9.2-5.3-1.2-1.2-.85-5.2.2-2.6 1.7-11.65.75-4.85.15-10.8-.45-4.9-1.6-8.55l-1.1-3.9-2.2-8.7q-1.6-5.8-3-8.2-.25-.45 1.1.25l1.6 1.25q2.95 4.85 5.6 14.35"/><path fill="#0d161f" d="M356.9 442q2.4 7.15 5.5 14.7 3.75 9 5.05 9.85l4.4.75 6.1.55q7.55.85 11 2.05 3.2 1.1 3.95 2.9.25.45-.5.7l-.9-.1q-1-1.3-14.45-2.8-8.2-.85-10.45-1.55-2.35-.8-7.6-13.1-3.65-8.6-5.05-12.9-.8-2.6-2.2-9.75-1.5-8.2-1.5-11.95 0-.55 1.6-.5 1.45.15 1.45.65 0 3.4 1.5 11.2 1.3 6.9 2.1 9.3"/><path fill="#0d161f" d="M348 431.4q-.9.25-3.85 17.15-3 17.3-2.65 22.75.2 2.8 2.85 5.4l2.85 3.25q.25.4-.2.9-.5.55-.7.3l-2.65-2.95q-1.85-1.7-2.6-2.85-1.25-1.75-1.4-3.85-.3-6.05 2.6-23.35 2.05-11.8 3.45-15.85.85-2.35 1.85-2.45 1.35-.25 4.1 2l2.4 2.35q.4.4-.15 1.05-.5.65-.9.25l-2.2-2.15q-2.35-2.1-2.8-1.95m12.1 37.65q-3.2-3.5-5.4-9.35-.85-2.3-.55-2.55.35-.25 1.6 1.9l5.45 9.45q.75 1.4.4 1.5-.5.15-1.5-.95m4.8 2.65q6.8.85 9.6 4.05.35.35-.4.85l-.95.15q-2.3-2.5-8.6-3.9-1.95-.45-1.75-.8.15-.5 2.1-.35m-49.1-61.25q1-.15 1.2.35 4.65 12.4 10.2 22.1 5.2 9.15 7 8.75 1.7-.3 1.9-11.75.2-10.85-1.05-23.2-.05-.5.85-.3.9.15 1.05.7 1.6 8.9 1.4 19.45-.25 10.2-1.75 14.1-.85 2.3-2.15 2.5-1 .15-2.65-.95-4.2-2.85-10.15-14.65-5-10.05-6.7-16.45-.05-.5.85-.65m-133.3-108.9q-6 17.15-6.55 23.2-1.65 15.4.2 21.7 1.15 3.75 4.45 12.8 3.4 9.25 4.65 11.85.65 1.5.1 1.55-.5 0-1.4-1.3-1.85-2.6-5.55-11.5-3.45-8.25-4.75-12.7-2.35-7.85-.85-22.5.65-6.35 7.05-23.95 7-19.45 11.15-22.2 4-2.5 17.9-8.55 15.4-6.65 20.45-7.2 2.8-.3 9.5.05 7.75.3 9.75 1.25 4.1 1.8 9.55 8.75 7.55 9.55 9.2 20.85.05.55-1.3 1.85-1.3 1.2-1.4.7-1.5-10.65-8.5-20.6-5.4-7.65-8.6-9.15l-8.7-1.05q-6.7-.35-9.2-.05-1.95.15-17.9 6.75-16.25 6.6-19.35 8.65-3.45 2.2-9.9 20.8m-.4 80q5.65 9.15 16.25 21.1 12.15 13.65 17.7 15.15 5.8 1.65 10.25.45 2.6-.55 3.85-1.65 2.85-2.55 10.85-16.15 10.9-18.6 15.75-35.65 4.45-16.1 6.3-26.35 1.15-6.5.9-7.3-.05-.5.85.6t1.05 1.65q.35 1.55-.35 6.75-1.3 9.5-5.9 26.05-4.9 17.35-15.75 35.5-8.45 14.1-12.1 16.9-3.3 2.75-9.4 2.75-3.4 0-7-1-6.6-1.8-18.7-15.45-11.7-13.2-15.7-22.55-.7-1.8-.25-2.1.35-.35 1.4 1.3"/><path fill="#0d161f" d="M177.3 352.7q.5 0 .5 1.3t-.5 1.3h-.05q-9.95 0-10.95.75-.9 1.3-4.25 13.45-.1.5-1.3.6-1.2.05-1.05-.4l1.4-6.75q1.7-6.7 3.2-8.5.9-1.05 3.9-1.45zm-.4 86.95q1.1 4.55.65 15.4-.3 9.45-1.1 12.95-1.15 5.35-5.65 22.05-.05 1.2 2.4 4.1.35.35-.2 1.2-.5.85-.75.6l-3.05-2.85q-1.8-2.1-1.15-3.9l2.95-10.4 3-11.45q.7-3.4 1.1-12.6.45-10.75-.6-14.95-.05-.55 1.1-.6 1.2-.05 1.3.45m18.65 66.25.2-1.05q.4-1.05.85-.95 4.6.25 8.2 0 .5-.1 1.1.9.6 1.05.05 1.1l-5.2.3zm7.35-74.15q1.5 17.85 3.25 23.5l.9 3.05q1.65 5.65 3.1 7.6 2 2.9 7.25 5.1l20.5 8.35q2.85 1.25 5.45 3.75 3.3 3.15 4.2 6.8.15.5-.7.65-.8.05-.9-.4-.65-2.7-4.25-5.75-2.8-2.45-4.8-3.2-11.45-4.05-20.55-7.85-5.9-2.5-8.45-6.05-1.6-2.3-3.35-8.25l-.9-3q-1.85-5.85-3.1-24.65-.95-14.95-.95-24.25 0-.5 1.05.2t1.05 1.25q0 8.05 1.2 23.15"/><path fill="#0d161f" d="M169.25 364.15q1.75 0 4.85 4.4 2.95 4.15 3.35 6.3l2.25 15.6q1.85 14.1 1.65 19.05l-1.05 16.3q-.85 9.45-1.55 11.7-.6 2.05-1 2.7-.6.95-1.6.95-1.05 0-2.5-1.55-3.7-3.95-8.05-12.75-4.3-8.75-6.95-17.6-2.3-7.6-1.45-23.3.8-14.35 2.5-17 1.3-2.1 4.3-3.45 2.75-1.35 5.25-1.35m-4.35 3.3q-2.5 1.35-3.4 2.85-1.25 2.15-1.9 15.65-.7 15.3 1.6 22.55 3.1 10.1 8.7 21 5.05 9.85 6.1 9.55.8-.15 1.7-11.2l1.05-18.4q.1-4.95-1.65-18.85l-2.25-15.4q-.35-1.45-2.55-5.1t-3.2-4.15q-1.75.05-4.2 1.5m36.3 64.2q1.85-2.9 3.4-9.2 1.3-5.35 1.55-8.8.1-.5 1.25.25 1.25.85 1.15 1.4-.2 3.1-2.15 8.75-2 5.85-4.05 8.9-.2.25-.8-.3-.6-.6-.35-1m-7.4-3.9q2.3 3 5.85 10.1 3.15 6.15 3.65 7.8.2.5-.3 1.7-.55 1.2-.65.7-.75-2.3-5.2-10.8-4.65-8.85-5.4-8.95-.45-.1-5.85 21.25-5.55 21.75-5.35 25.2.15 2.3 1.5 5.55l1.9 4.15q.25.6-.55 1.15l-1.05.1-2.05-4.55q-1.45-3.65-1.55-6.2-.2-3.2 5.1-25.35 3.45-14.15 5.95-21.3.75-2.3 1.8-2.3.85 0 2.2 1.75m5.6 45.2q-1.35-5.3-1.6-10.85-.1-1.2.3-1.2.35-.05.65 1.05 1.5 5.15 1.75 10.75.15 1.65-.3 1.75-.4.1-.8-1.5m5.6 4q3.45 1.1 9.5 5.2 6.35 4.25 6.35 5.85 0 .55-1.15.85-1.25.25-1.4-.2.2-1.55-6.35-5.85l-7.85-4.75q-1.4-.75-1.6-1.35-.15-.65 2.5.25M188.15 312.3q.4-3.05 4.3-15.5 3.55-11.25 4.85-14.55 1-2.35 1.6-1.9.65.45-.1 2.6l-4.15 13.9-5 16.2q-.7 2.15-1.25 2.05-.55 0-.25-2.8m5.4 41.05q1.8 6.4 2 11.8.2 4.1-.5 6.4-1.65 5.3-3.25 6.35l-5.35-.25q-1.4-.25-1.4-.8 0-.45 1.4-.45l4.25-.3q.85-.55 2.25-5.35.45-1.3.35-4.95-.25-5.4-2.1-11.95-1.95-6.9-3.05-14.9-1.05-7.25-1.05-12.85 0-1.95.55-1.9.5.1.75 2.05 2.7 18.45 5.15 27.1m9.7 50.8q-1.5-.7-1.25-1.1.2-.4 1.65-.25l4.6.8q3.7.5 5.9.05 3.15-.6 8.45-13.65 4.55-11.3 8-24.3 1-3.5.2-33.1-.85-30.6-2.6-41.35-1.35-8.65-5.35-13.1-2.25-2.55-6.1-4.2-2-.8-1.55-1.15.3-.25 2.1 0 3.6.65 6.75 3.65 5.2 4.85 6.75 14.35 1.7 10.8 2.85 41.35 1.1 30.2.05 34.1-2.4 9.2-6.8 20.35-6.95 17.65-11.85 19.05-2 .6-6.2-.05-3.75-.6-5.6-1.45M40.5 165.75q8.35 6.15 17.2 11.85l51.2 32.55q.65.4-1.45 2.85l-26-16.7-25.2-16.5-11.75-8.35q-9.85-7.2-13.45-10.85-1.7-1.75-1.45-2.6.35-.95 3.45-.9 4.7.2 12.9 1.95 9.55 2.1 18.75 5.4 33.35 12 67.5 27.75.45.2.95 2.1.45 1.85-.05 1.6-41.25-18.95-69.2-29-9.75-3.45-20.9-6.15-10.3-2.5-10.65-1.85-.3.65 8.15 6.85M2.45 216.2q28.6 26.2 95.5 60.5.45.2 1.3 2.55l.65 2.15q-42.35-21.75-71.05-41.15Q7.05 225.5 1.15 218q-1.35-1.75-1.1-2.85.4-1.3 3-1.05 4.95.55 17.85 4.55 9.55 3 14.1 4.75 49.2 17.75 58.25 21.4.55.2.2 1.85-.25 1.7-.8 1.5-18.75-7.6-59.15-22.3Q3.3 215 2.45 216.2"/><path fill="#0d161f" d="M91.85 253.5q-1.15-21.45 11.35-37.55 8.4-10.95 18.2-15.25 2.35-.95 2.75-.3.35.7-1.85 2-8.25 5.15-15.15 13.4-13.85 16.65-13.55 37.55.05 2.4-.8 2.4-.85.1-.95-2.25m46-73.6q-10.35-6.5-15.85-8.75l7.2 13.75q6.7 12.75 8.25 16.85.8 2.1.35 2.3-.55.1-1.7-1.85-2.2-3.75-8.7-16.3-6.2-12.05-6.85-13.6-1.55-3.95 2.6-2.5 5.6 1.8 16.65 8.3 12.55 7.3 19.1 13.4l3 2.9-3.6.9-1.85-1.8q-6.5-6.05-18.6-13.6"/><path fill="#89959d" d="M161.9 194.4q5.35 5.45 9.3 11.6-3.25-.85-4.8-1.65-3.9-4.95-8.1-9.05z"/><path fill="#0d161f" d="M149.85 220.3q-5.25-1.95-12.65 4.25-5.15 4.4-10.75 12.05-3.6 4.85-5.95 13.15-2.85 10 .75 13.55 3.55 3.5 12.75 6.95l13.75 4.25q3.55.9 4.9 1.55 1.85.9 2.15 2.3.35 1.3-.7 2.85-.85 1.35-3.05 3.35-3.2 2.95-6.85 5.3-4.45 2.9-6.7 2.9-18.65 0-30.15-4.75-5.6-2.25-9.65-9.55-2.95-5.2-3.85-9.95-.6-2.8.1-2.65.65.15 1.3 2 1.2 3.8 4 8.55 4.35 7.25 9.1 9.2 10.25 4.25 29.5 4.25 1.25 0 4.8-2.25 3.25-2.05 6.9-4.9 3.45-2.75 3.05-3.7-.3-.65-5.25-1.95-10.35-2.8-16.2-5.15-8.2-3.2-11.75-6.75-4.8-4.85-2.05-15.55 2.15-8.3 6.7-14.9 5.95-8.55 12.5-13.4 8-5.7 14.25-3.5 3.5 1.3 9.15 6.05l9.8 9 3.5 3.25q2.7 2.4 3.1 2.2.9-.45-.3-9.3-1.15-8.45-2.05-11.1-1.9-5.95-7.6-13.55 1.55.8 4.8 1.65 3.45 5.4 5.25 11.1.8 2.4 1.75 9.9 1 7.65.75 10.25-.35 2.9-1.95 3.45-1.2.3-2.55-.65l-6.65-5.8q-12.55-11.95-17.95-13.95"/><path fill="#0d161f" d="M118 299.95q-3.8-.8-8.95-6-5.05-5.2-7.85-11.05-.25-.5.75-.75t1.25.2q2.55 5.35 7.65 10 4.65 4.25 7.9 5.15 3.45 1 10-.6 7.65-1.8 10.35-5.85.3-.45 1.2 0 .95.55.65 1-1.95 4.35-10.05 6.8-7.6 2.35-12.9 1.1m-17.7-78q.5.2-.2 1.5-.65 1.25-1.2 1.1-8.1-2.6-20.05-5.35-12.05-2.8-12.5-2.15-.45.75 9.05 7.6 10 7.15 19.15 12.2.45.2-.1 1.5-.6 1.3-.8 1.15-6.05-3.5-12.55-7.85-12.95-8.55-16.1-13.1-.85-1.25-.6-2.25.3-1.3 2.55-1.3 4.65.1 16.95 2.8 10.8 2.35 16.4 4.15"/><path fill="#0d161f" d="M183.6 294.1q-5.95-2.45-9.35-2.5-1.7 0-6.3 1.15l-5 1.1q-5.35 1-13.15.35l-10.15-1.3q-.45-.1.45-1.3.85-1.25 1.3-1.2l9.25.85 12.05-.65 4.8-1.05q4.45-1.1 6.9-.9 3.5.35 10.2 3.05.7.3-1 2.4m9.1-39.9q1 5.85 2.5 8.4 2.6 4.6 10.05 9.1.65.3-1.3 2.2-8.2-4.95-11.25-9.85-1.95-3.1-2.9-9.1l-.65-3.4q-1.4-5.85-4.85-12.15-3.4-6.4-6.95-9.45-.35-.3 0-1.35.4-.95.85-.65 4.8 3.85 8.8 10.6 3.7 6.35 5 12.15zm-74.35-1.35q10.45 5.05 23.8 9.8 19.5 6.95 32.5 8.2.7.05.3 1.9-18.05-1.4-39.25-9.85l-17.85-8.35q-.5-.25-.2-1.1.25-.85.7-.6"/><path fill="#0d161f" d="M151.1 242.65q10.85 8.45 14.55 12.65 3.35 3.7 6.4 8.8 2.9 4.8 3.55 7.45l15.7 7.7q.45.2-.3 1.35-.7 1.1-.9 1l-9.7-5.35-6.6-4.15q0-1.2-2.8-5.6-3.2-4.95-7.2-9.5-3.35-3.55-15.9-13.3-13.1-10.2-18.2-12.8-.45-.3 0-1 .4-.8.95-.6 7.85 3.55 20.45 13.35m433.75 45.9 2.35 11.55 1.95 10.25q.05.8-.35 1l-1.1.15-5.3-.35-3.2.2q-.45.85 13.3 23.15 5 8.1 10.1 15.25 4.95 6.95 6.75 8.55 2.8 2.3 19.05 8.15l16.1 5.55q4.1 1.5 6.8 4.6 2.5 3.05 4.55 8.5 3.15 8.45 4.9 11.35 5.5 8.7 6.6 12.7.1.5-.75.75t-.95-.2q-.8-2.6-6.65-12.4-3.35-5.95-5.5-11.65-1.85-4.8-4.05-7.35-2.25-2.6-5.85-3.85L627.5 369q-16.25-5.8-19.25-8.3-4.05-3.35-17.9-25-14.3-22.4-13-25.05 1.2-2.3 9-1.75l-1.55-7.25q-1.65-7.05-2.6-13.45-1.95-12.8-2.05-17.15-.05-3.2 1.05-3.6.65-.15 1.7.35 1.6.8 6.1 3.85 6.4 4.35 14.25 10.4 18.15 13.65 27.5 23.2 0-5.6.55-7.6.35-1.2 1.2-1.45 1.05-.3 4.3 4.8 3.5 5.8 13.95 25.1 16 29.6 16.8 31.8 1.15 3.05 1.8 15.65.2 3.6-2.2 1-18.4-18.3-20.9-21.65-1.15-1.65-7.65-22.3-6.35-20.55-7.3-21.6-4.45-5.3-26.95-23-21.7-17.1-22.45-16.85-.5.15 2.95 19.4m48.05 19.95q1.5 2.45 8.95 25.15 5.6 17.1 6.2 17.95l10.4 11.3 9.1 9.5q.25 0-.75-6.45-.95-6.45-1.4-7.55-.75-1.9-16.45-30.8-15.7-28.85-15.95-28.8z"/><path fill="#89959d" d="M172.7 495.75q-.2-.45.4-1.1.5-.7.7-.35 2.35 4.4 8.95 7.45 6.75 3.1 12.9 2.45.45-.05.45.8-.1.85-.55.9-8.1 1.35-15.15-2.5-5.9-3.15-7.7-7.65m54.35 5.2q8.45-.05 13.8-4.15 4.55-3.5 4.75-7.75.1-.45.6-.85.45-.45.5 0 1 6.7-4.6 10.85-5.6 4.2-14.6 3.65l-.45-.85q-.4-.9 0-.9m114.65-6.05q-.45-.05-.55-.85-.05-.7.4-.65 6.45 1.4 12.55-.7 4.15-1.45 7.5-4.15.3-.25.7.25.4.6.05.95-2.35 2.8-7 4.65-6.75 2.7-13.65.5m43.45-8.95q-.3 0-.65-.65-.3-.65.1-.65 4.3.2 8.1-1.55 4-1.85 6-5.15.2-.4.65.1t.2.85q-2.15 4-6.1 5.85-3.9 1.85-8.3 1.2m-22 3.55q4.4 1.05 9.5-.5 5.95-1.85 8.8-6.4.3-.35.8 0t.3.8q-2.2 4.9-7.7 6.95-5.55 2-12.1.55-.45-.1-.25-.8.2-.65.65-.6"/><path fill="#89959d" d="M206.15 503.95q6.25 2.2 12.1 1.05 4.1-.85 8.4-3.55.4-.25.75.35.4.65.1.9-9.45 8-22 2.85-.4-.1-.05-.95.25-.8.7-.65M300.8 409l6.25-3 4.6-.45 1.05-.95.95-.9.6-1.05q.4-.9.55-.95l6.55-3.75q.4-.2 1.25 1.2.75 1.4.35 1.55l-8.8 5.1-11.9 6.25q-.2.05-1.45-3.05"/><path fill="#89959d" d="M296.75 404.05q-.3-.25 0-.9.35-.65.65-.4 2.7 2.05 7.65 2.2 5.2.2 7.9-2.1.35-.25.85.45.45.75.15 1-2.3 2.25-6.6 2.85-5.55.7-10.6-3.1m126.1 16.65q-3.4-1.8-5.75-5.75l-1.85-4q-.05-.5.45-.6.55-.2.6.25.45 1.5 2.2 3.95 2.05 2.9 4.45 4.9zm1.15.15v-.65l.65-.75q2.75-.8 6.1-2.5 4.45-2.2 7.45-5 .35-.3.65.2.35.45 0 .8-3.55 3.7-8.1 5.95-4 1.95-6.75 1.95M215 127.8l2.45-7.75 3.1.4q-5.05 16-8.15 28.15l-3.05-1.1q2.25-8.6 5.65-19.7m.35 86.9-3.35-.35q-3.15-12.9-3.65-16.3l-.7-12.15 3.15-.6.7 12.55q.5 3.8 3.85 16.85"/><path fill="#0d161f" d="M358.8 480.15q4.1 3.5 6.05 14.45 1.6 9.1 1 16.05-.25 3.25-1.65 3.35-.65.1-2.1-.95l-6.3-5.2q-8.65-7.55-14.2-11.7-2.45-1.9-2.4-5.15 0-2.7 1.7-5.65 1.5-2.75 3.6-4.2 3.9-2.95 8.5-2.95 3.55 0 5.8 1.95m-5.65.05q-3.85 0-7.25 2.5-1.6 1.2-2.9 3.65-1.45 2.6-1.45 4.65 0 1.75 1.65 3.05 6.75 5.15 14.3 11.85l6.2 5.9q.5-5.05-1.1-15.05-1.95-11.85-5.25-14.7-2.1-1.85-4.2-1.85"/><path fill="#0d161f" d="M367.3 477.5q3.9-3.05 6.65-2.55 3.75.65 7.45 4.25 3.9 3.7 7.3 10.2 5.75 11.3 6.2 17.2.3 3.3-.9 3.65-.7.2-2.7-.85-6.4-3.4-11.9-6.55-11.65-6.65-16.65-8.8-.45-.25.05-1.4.45-1.2 1-1 5.2 2.35 16.9 9l6.95 4.05 5.5 3.35q0-1.9-1.55-6.25-1.95-5.35-5.2-11.1-6.9-12.1-12.95-13.2-1.8-.35-5.2 2.05-3.6 2.55-5.85 6.3l-.95-.05q-.7-.6-.45-1.05 2.55-4.35 6.3-7.25"/><path fill="#0d161f" d="M392.7 471.55q3.85.2 8.2 7.3 2.2 3.5 3.65 7.1.6 1.35 1.5 5.7 1.2 5.6.95 8.5-.25 3-1.3 3.25-.55.15-2.15-.9-6.15-3.95-8.95-6.05-6-4.4-7.6-5.25-.45-.25.05-1.45.6-1.15 1.05-.9 2 1.05 8.05 5.55 1.05.7 4.9 3.9 3.1 2.6 4.1 3.05.1-1.75-1-6.95-1.05-4.9-2-7.55-1.45-3.65-4.05-7.6-3.35-4.95-5.6-5.1-1.75-.1-3.9 1-3.15 1.7-6.5 5.65l-1.85-1.35q2.2-2.75 5-4.8 4.15-3.25 7.45-3.1m-184.85 15.7q2.4-1.45 6.3-1.45 7.2 0 11.05 6.4 3.2 5.3 3.65 16.9.45 10.55-1.35 15.5-.95 2.55-2.05 2.7-.7 0-2.2-1.3-4.3-3.8-8.05-8.35-7.8-9.55-12.7-13.95-1-1-.8-3.2.3-2.95 2.45-7.65 2.2-4.75 3.7-5.6m-3.55 14.85q5.55 5.1 12.9 13.85l4.65 5.65q2.6 3.2 3.4 3.6 1.65-2.6 1.25-14.1-.45-12.5-3.5-17.55-3.4-5.6-8.6-5.6l-3.3.4q-1.45.4-1.9.7-1.3.9-3.45 6.4-2.05 5.5-1.45 6.65"/><path fill="#0d161f" d="M230.8 487.65q3.5-4.55 6.15-4.65 9-.3 15.15 14.5 1.6 3.7 2.7 8.05 1.15 4.75 1.1 7.3-.15 2.1-.9 2.4l-1.95-.3-7.7-3.25-9.3-4.1q-5.5-2.25-9.5-3-.5-.05-.3-1.35.25-1.25.8-1.2 4.2.8 10.05 3.3l9.3 4.45q5.85 3 7.55 3.5-.15-4.05-2.3-10.35-2.5-7.4-6.25-12.25-1.95-2.55-4.4-4.05-2.4-1.5-4.05-1.15-1.6.25-4.8 4.45-3.25 4.35-4.8 8.6-.15.5-.9-.6-.8-1.15-.6-1.7 1.7-4.6 4.95-8.6m-56.15 6.3q-.8 1.85 2 15.5t4.7 17.1q2.5-2.45 8.15-12.6 6-10.85 6.05-14.35.15-4.1-2.95-9.1-2.9-4.7-4.9-4.95-2.4-.25-7.3 2.9-4.8 3.2-5.75 5.5m-2.4-1q1.3-3.2 6.6-6.5 5.45-3.45 9.1-3 3.6.55 7.1 6.2 1.9 3.1 2.65 6.35 1 3.9 0 6.6-1.05 2.95-5.65 11.35-5.4 9.8-8.55 13.05-1.8 1.75-2.5 1.65-.75-.05-1.8-2.3-2.2-4.4-5.1-17.2-2.95-13.55-1.85-16.2m275.9-110.5q.6 1.5 1 4.55.55 4.25-.15 6.9-.85 3.25-3.95 9.35-3.2 6.25-5.55 9.25-.25 4.75-3.1 12.75-2.8 7.8-5.75 12-1.95 2.85-2.75 2.6-.75-.25-1.6-3.45l-2.4-9.7q-1.3-5.75-1.4-7.2l-.55-2.2q-2.4-10.15-4.4-11l-.35-.5.2-.8q.25-1.5 3.5-9 3.4-7.95 5.15-10.7.9-1.5 4.5-4.6 4-3.45 5.7-3.45.9 0 5.85 1.9 5.55 2.05 6.05 3.3m-16-.05q-3.05 2.7-3.7 3.85l-4.55 9.1q-4 8.15-4.65 9.9 2.85 2.55 4.9 11.9 4-3.95 7.35-6.15 5.3-3.45 7.35-1.35 2.3-3.55 4.7-8.75 2.25-4.9 3-7.65.5-2.1.1-5.65l-.75-4.3q-1-.65-4.9-2.15t-4.75-1.6q-.9.1-4.1 2.85m5 28.15q-.75-.55-5.1 2.65t-7.55 6.55q.25 3 3.95 17.65 3.65-6.15 5.95-12.8 1.95-5.7 2.7-9.6.8-3.95.05-4.45"/><path fill="#0d161f" d="M424.45 422.25q-7.15 7.6-12.65 11.05-2.25 1.4-2.95.75-.55-.5-.35-2.65.4-4.5 3.2-12.95 3.05-9.1 6.15-14.15.3-.5.95.25.65.8.35 1.25-2.9 4.8-6.3 16.2l-2.8 10.3q8.6-6.5 12.9-12.2.3-.45 1.05.6.75 1.1.45 1.55m-163.95-39.1q.65 3.6 1.75 4.7 1.3 1.3 11.7 4.6 9.75 3.15 13.7 4.75 7.35 3.15 10.95 6.85.4.4.1 1.5-.15 1.1-.45.85-3.3-3.4-11.15-6.8-5.15-2.15-14.1-5l-7.9-2.65q-3.1-1.3-4.35-2.55-1.8-1.75-2.65-6.1-.65-3.5-.4-5.2.45-3 3.3-5.8 1.9-1.95 5.8-1.3 1.75.35 1.75.75 0 .35-1.6.7-3.8.85-4.45 1.45-1.8 1.8-2.25 4.6-.25 1.5.25 4.65m27.35-10.7q18.1 9.05 28.9 21 5.9 3.65 11.2 12.4 4.75 7.85 6.05 14.5.75 3.5-.5 3.95-.85.35-2.65-.85-3.85-2.4-8.4-6-5-4.05-8.7-7.9-.35-.4.2-1.2.5-.95.9-.55 5.8 5.8 12.35 10.95l5.45 3.95q-1.1-4.6-3.75-10.4-5.35-11.5-13.1-17.1-4-4.6-9.15-8.5-7.95-6.15-19.95-12-1.3-.55-4.95-1.35l-9.2-1.05q-1.9 0-2.15-.7-.2-.8 1.65-.9l10.05.3q4.2.65 5.75 1.45"/><path fill="#0d161f" d="M314.15 400.05q.95 1.9 1.3 6.25.3 3.5-1.25 11.05-1.65 7.9-3.8 12.35-.9 2.05-1.8 1.75-.95-.2-1.7-2.5l-3.8-11.15q-2.5-6.35-5.35-11.7l-1.7-3.1q-.7-1.45-.65-2.3.15-2 1.7-3.6 1.7-1.75 4.2-1.85 4.9-.25 9.1 1.65 2.7 1.15 3.75 3.15m-7.7-2.1-4.95-.6q-1.55.05-2.8 1.35-1.1 1.2-1.15 2.15-.05.9 2.2 4.5 2.95 4.65 4.55 9.35 3 8.3 4.65 14.45 4.45-16.65 4.05-22-.3-4.2-.9-5.9-.55-1.55-1.85-2.15-1.05-.5-3.8-1.15"/><path fill="#0d161f" d="M312.95 404.1q2.15-8.05 2-10.7 0-.55.95-.15.85.4.85.9.05 3.2-2.25 10.65-.1.45-.9.15-.75-.35-.65-.85M236 128.45q.7 4.85-.6 10.45-1.15 5.15-4.6 10.2-3.9 5.75-7.2 5-5.3-1.1-28.9-12.2-26.45-12.55-32.4-18.9-3.35-3.55 1.2-4.65 5.1-1.15 15.3-1.35l31.5 1.1q16.1 1.25 20.65 2.4 1.6.35 2.9 2.1 1.65 2.15 2.15 5.85m-5.8-5.15q-4.35-1.05-20.8-2.45l-30.8-1.6q-15 0-15.45 1.45-.15.65 3.25 3.1 3.55 2.7 8.5 5.3 11.85 6.35 29.25 14.1 16.5 7.35 20.1 8.05l.35.05q2.15 0 4.65-4.2 2.35-3.95 3.45-8.85 1.1-4.85.45-9.6-.75-4.85-2.95-5.35m-1.05 66.25q1.95 5.6 1.65 10.65-.45 6-2.65 10.8-2.7 5.85-6.5 5.65-9.2-.35-36.35-6.3-20.3-4.35-28.8-8.8-3.25-1.7-3.1-3.45.05-1.8 3.6-3.15 8.75-3.25 29.1-7.15 10.85-2.05 22.4-3.6l14.15-1.4q4.2-.15 6.5 6.75m-6-3.85q-8.55-.2-37.4 4.8-30.1 5.2-30.1 7.9 0 2.65 29.3 9 28.3 6.2 36.35 6.2h.25q2.3 0 4.35-4.45 1.95-4.2 2.3-9.15.3-4.1-1-8.75-1.55-5.5-4.05-5.55"/><path fill="#fff" d="M194.05 499.85q-.35 4.5-8.95 18.7-.8 1.3-1.05 1-.25-.35-.05-1.5l2.4-14.55 2-13q.45-2.75 1.95-.55 4 5.6 3.7 9.9m28.6-3.25q2.9 6.9 2.75 18.8-.05 2-.4 1.75-.25-.2-.55-1.55-1.5-7.95-4.7-15.25-2.45-5.55-5.05-9.1-.75-.9-.4-1.3l1.35-.1q4.7 1.15 7 6.75m28.05 9.5q-4.45-9.25-11.25-17.45-.9-1-.4-1.2l1.05.2q3.35 1.65 6.6 6.95 3.45 5.65 4.9 11.1.45 1.7 0 1.55-.4-.1-.9-1.15m110.8-2.35q-4.3-12.1-10.3-20.4-.75-1-.35-1.5.35-.45 1.35-.4 4 .25 5.6 3.85 3.4 7.6 4.45 18.1.1 1.25-.15 1.2t-.6-.85m26.9-4.15-7-10.15q-4.35-6-7.35-8.8-.85-.75-.65-1.1.25-.35 1.3 0 2.2.85 5.1 3.9 4.2 4.5 9.15 15.9.5 1.2.25 1.15zm13.95-6.25q-4.1-8.7-10.15-16.3-.8-1.05-.45-1.3.25-.35 1.3.2 1.85.95 3.65 3.4 3.55 4.95 6.15 13.65.35 1.4.15 1.25-.3-.05-.65-.9M309.1 419.3q-.15-6.5-1.55-18.05-.1-.85.25-1.1.35-.35 1 0 2.9 1.6 3 5.25.2 5.9-1.65 13.9-.4 1.55-.7 1.4-.35-.2-.35-1.4m19.4-3.75q-6.1-9.25-10.45-13.9-.95-.95-.65-2.05.1-.5.65-.5.45-.05 1.15.6 5.9 5.5 10 15.3.55 1.05.25 1.3-.25.3-.95-.75m107.85-1.75q-.85 5.95-5.3 15.9-.7 1.55-.95 1.3-.25-.2-.1-1.5.95-5.05 1.65-12.85.2-1.5 1.15-2.45l1.85-1.45q1.15-.65 1.4-.65.45.05.3 1.7m-18.8-3.2q.6-1.45 1.05-.65l.45.9q.45 1.4-.15 2.35l-5.05 10.8q-.65 1.35-.85 1.15t.2-1.5zM227.8 133q-8.7-2.3-25.95-5.75l-25.6-4.9q-2.85-.6-3.1-1.15-.25-.5 3.25-.45 29.35.65 50.05 3.7 4.75.65 4.85 6.45 0 3-3.5 2.1m-2.7 59q.7 1.75.05 2.85-.7 1.25-3.05 1.2-10.6-.1-53.1 1.15l-2.95-.25q-.4-.45 2.55-1.05 29.2-6.05 50.75-7.8 4.15-.3 5.75 3.9"/></svg>