<svg xmlns="http://www.w3.org/2000/svg" width="297" height="319" viewBox="-1.42 -0.6 296.53 319.49"><path fill="#fff3c3" d="M145.21 21.33q.43-1.8 1.38-2.07.94-.3 1.2 1.5 2.07 16.18-3.22 30.5-5.2 13.97-17.2 25.67 1.76 1.37 1.8 3.82.05 2.37-1.46 4.09-1.6 1.85 2.24 2.1 6.53-3.65 12.64-3.09 6.62.6 8.77 6.1 3.57 9.12-2.88 16.69-5.93 6.92-14.96 7.48-2.37 3.92-7.27 7.83-8.21 2.28-16.86.34-8.12-1.76-14.79-6.8-6.66-4.98-10.02-11.73-3.57-7.14-2.5-14.45 8.7-3.22 17.98-3.22 9.85 0 14.84 3.74 1.85 1.33 3.52.73 1.85-.69 4.22-2.15 1.29-.78.9-1.46-.34-.7-2.02-.78l-1.64-.3q-.68-.34-1.11-1.25 3.26-6.06 2.7-11.82-.47-4.52-3.13-8.17 11.56-9.33 18.36-21.24 5.33-9.38 8.51-22.06"/><path fill="#3e4e57" d="M110.2 87.55q2.37 2.75 3.36 6.96 1.12 4.6.3 8.13-.86 3.53-3.3 4.09-2.46.51-5.04-2.41-2.45-2.75-3.52-6.62-1.12-4.22-.35-7.92.82-4 3.49-4.6 2.58-.56 5.07 2.37"/><path fill="#ee869a" d="M132.44 114.12q-1.5 2.32-4.21 3.44-2.67 1.12-5.85.86-2.8-.26-4.95-3.05-1.85-2.4-1.5-3.57.21-.77 1.8-.73 1.47 0 2.46.56 2.02 1.16 5.41 1.89 3.66.82 6.84.6"/><path fill="#e8390e" d="M122.08 39.04q5.03-.17 7.78 2.5 2.62 2.54 2.97 7.4-3.79 6.57-14.5 15.69 3.7 3.78 3.27 10.62-.38 5.72-2.83 9.37l-97.23-13.5q-7.26-8.25-5.16-17.2 2.07-8.73 12.39-16-3.23-.85-7.27-.94l-6.4.39q-2.37.38-2.84-.43-.4-.6.25-2.07 1.12-2.62 4.17-4.34 3.27-1.9 7.49-1.98-5.6-3.18-8.3-8.64-2.37-4.69-1.72-8.69.34-2.1 1.33-2.53.99-.4 2.45 1.03 6.92 6.8 15.83 8.34 8.94 1.55 19.43-2.32 23.7-8.82 41.41-4.47 20.81 5.16 27.48 27.77M47.26 122.2q4.25 8.4-1.2 14.71-4.65 5.42-15.23 8.39-9.5 2.66-13.5 8.86-3.48 5.41-1.9 11.78.74 2.92-2.01 1.42-3.31-1.85-4.95-5-1.42-2.74-1.72-7.04-2.7-1.94-3.95-5.72-1.55-4.73.04-10.4-2.93-3.23-1.5-9.3 1.58-7 8.64-10.53L46.3 98.73q3.87 1.33 8.47 2.36 5.94 1.3 9.38 1.08.34 5.85 5.59 8.81.73.39.56 1.04-.18.64-1.2 1.2-4.1 2.15-7.8.73-3.82-1.46-5.24-6.2-2.62.05-5.63 3.06-2.92 2.93-3.96 6.4-.38 1.26-.17 2.46.17 1.07.95 2.54"/><path fill="#00568b" d="M125.43 39.17q1.46-4.55 4.6-2.92 3.36 1.72 4.86 9.8l-2.06 2.88q-.05-3.87-2.32-6.75-2.2-2.83-5.08-3"/><path fill="#fff3c3" d="M87.68 212.55q2.45-3.48 5.72-9.98.64 2.54 2.1 5.85 1.42 3.23 3.06 5.85-1.55 5.07-5.68 15.52l-5.72 14.36q-2.7 7.36-5.59 53.54-6.75 3.48-14.83 2.88-6.67-.52-12.47-3.53 2.02-8.51 8.04-23.73 4.51-11.35 7.44-17.42l2.92-6.7q1.38-3.44 2.67-7.92 1.16-4.17 2.15-9.54l1.72-10.88q4.68-2.97 8.47-8.3m53.96-45.24 1.68-.56.82-.81q15.65-3.87 27.09 3.14 10.32 6.32 13.2 21.32 1.85 9.68.86 28.94-.65 13.5 5.5 27.74 4.34 9.97 7.44 20.64 3.61 12.3 4.04 20.72-5.97 3.14-13.46 3.36-7.82.21-13.63-2.93 1-9.8 1.42-23.82.39-12.12.22-18.83-.13-4.22-1.38-7.96-1.33-3.91-3.35-5.72-4.13-3.65-9.03-10.83-4.78-6.97-7.31-12.9-2.54-.3-5.98.82-2.24.68-5.85 2.4-7.22 3.4-13.46 4.09.13 4.51-.51 14.23-.6 8.43-1.2 12.94-1.21 9.2.98 20.13 1.33 6.8 2.97 18.83 1.76 13.29 2.28 21.37-6.15 3.92-14.32 4.13-8.04.22-13.85-3.27 1.6-14.92 7.1-37.4 1.12-4.56 1.63-11.36.39-5.76.22-9.85l-.82-7.9-1.76-11.75q1.24-3 .9-10.02-.17-3.65-1.03-10.32 3.1 4.18 6.58 6.88 3.65 2.84 5.16 1.98 2.49-1.37-.05-20.55-2.53-19-5.8-25.03-.56-.99-3.66-10.4 2.93 4 7.01 7.05 3.4 2.58 7.18 4.13 1.94.81 3.53.64 1.38-.13 2.92-1.12 1.68-1.07 5.72-2.15"/><path fill="#fff3c3" d="M128.31 250.05q-.04-4.09.65-9 .99-7.3 1.5-24.93 3.44-.26 9.03-2.2 5.72-1.97 10.54-4.68-1.85 8.04-6.24 20-1.85 5.07-2.32 9.58-.52 4.99.52 10.92 1.11 6.71 2.23 16.65 1.25 10.87 1.72 18.74-4.21 2.33-12.34 3.23-.6-4.99-2.23-14.97l-2.28-13.97q-.78-4.99-.78-9.37"/><path fill="#59bded" d="M142.8 164.95q1.42.17 1.3.9-.14.73-1.25 1.03-4.43.95-6.93 2.58-1.72 1.12-3.18 1.2-1.42.05-3.87-.77-2.4-.81-6.66-4.3t-6.93-6.83q.65 2.58 1.72 5.59 1.12 3.26 1.94 4.81 3.78 7.18 5.98 26.15 2.15 18.53-.13 19.43-1.68.69-5.5-2.58-2.89-2.45-6.54-6.7 1.54 6.62 1.29 14.36-.26 7.22-1.5 7.56-4.1 1.17-10.76-8.2-6.15-8.65-8.38-16.6-3.1 8.94-10.84 15.52-2.97 2.53-5.63 3.82-2.58 1.25-3.53.73-1.63-.86-.86-7.82.3-2.5 2.24-13.76-2.07 2.36-4.43 3.74-2.32 1.38-3.31.86-1.55-.77-1.25-5.25.3-4.6 2.4-11.13 5.25-16.17 16.4-29.93 7.65-9.5 9.88-18.58 1.25-4.99.04-8.43-1.07-2.96-3.52-4.04-14.7-6.45-21.89-15.1 1.2-.5 1.25-1.15.04-.65-.86-1.08-3.05-1.5-4.39-4.81-1.2-2.97-.94-6.8 6.19-5.5 17.93-10.06-.65 7.35 2.7 14.32 3.23 6.75 9.5 11.61 6.42 4.99 14.5 6.84 8.6 1.93 17.46-.13-2.88 2.28-8.52 4.86-2.27 1.07-3.74 3.35-1.67 2.58-1.67 5.98 0 8.21 3.74 13.07 4.38 5.63 13.46 6.06 4.94.22 8.2 1.34 3.28 1.11 3.28 2.62 0 2.5-6.24 3.65 3.44 1.6 8.04 2.07m148.35-.43q3.1 6.66.82 15.9-2.32 9.34-8.77 15.49-3.14 13.54-16.3 20.17-11.26 5.67-25.02 4.47-18.28-1.64-29.12-13.55-10.49-11.6-9.84-28.16.3-7.66-2.54-12.99-2.7-5.12-7.65-6.92-5-1.8-10.93.34-6.36 2.32-12.42 8.82-1.94-1-5.16-2.02 1.59-14.71 9.54-25.16 8.56-11.3 21.98-13.8 9.2-1.72 11.48-8.34 2.15-6.15-2.45-13.5-.95-1.51-.73-2.46.21-.94 1.59-1.2 2.45-.47 5.11.64 2.71 1.17 5.16 3.79 3.7.64 6.45 3.61 2.67 2.88 3.79 6.97 2.53 9.41-3.57 15.86 5.29-.38 9.63 2.8 4.17 3.05 6.15 8.25 2.45 6.45 4.73 9 2.62 2.87 5.8 1.45 2.41-1.11 2.67-4.21.34-3.7-3.4-7.18-1.2-1.12-1.33-2.41-.13-1.46 1.55-1.68 8.08-1.03 13.16 3.96 4.6 4.56 4.94 11.87.3 7.35-3.91 13.07-4.73 6.36-13.33 7.65 3.18 3.27 8.17 4.52 5.03 1.25 10.4.13 12.6-2.58 18.7-14.88 1.04-2.06 2.29-2.24 1.33-.21 2.36 1.94"/><path fill="#fff3c3" d="M95.98 161.5q1.2.14 2.4 4.95 1.2 4.6 1.12 8.09-.08 3.48-1.63 8.77-1.64 5.46-2.8 5.42-2.1-.09-4.64-4.35-2.67-4.55-2.54-9.11.09-3.14 3.36-8.56 3.22-5.37 4.73-5.2"/><path fill="#e8390e" d="M148.95 86.69q.9.86 1.77 2.54.9 1.84 1.07 3.3-1.2.65-2.06.3-.9-.3-1.68-1.76-.73-1.41-.43-2.75.3-1.37 1.33-1.63m-12.04 2.97q.95-.05 1.55 1.07.52.99.56 2.45.09 1.46-.39 2.45-.51 1.12-1.55 1.2-1.03.05-1.67-1.11-.6-1.12-.6-2.71 0-1.5.55-2.4.6-.91 1.55-.95"/><path fill="#fff" d="M107.2 105.7q1.63 1.2 3.53.77 1.59-.39 3-1.8-.47 1.15-1.54 2.23-1.12 1.16-2.28 1.5-3.18.86-5.12.6-2.58-.34-3.4-.9-4.3-3-5.41-10.53-1.08-6.97 1.16-11.35 2.28-.22 5.89.08-2.15 4.82-1.38 9.98.86 5.93 5.55 9.41"/><path fill="#00568b" d="M53.15 303.92q0-2.49 1.33-6.75 4.82 2.93 12.64 3.31 8.56.43 14.45-2.8-.08 4.3-.82 6.55-.81 2.4-2.83 3.65-4.09 2.5-10.28 2.8-6.32.25-11.65-1.9-2.8-1.16-2.84-4.86m53.66.56q5.12 3.62 13.76 3.4 8.73-.21 14.15-4.21.3 4.98 0 7.05-.56 3.61-3.01 4.56-5.33 2.1-10.84 2.49-6.23.47-10.75-1.5-2.4-1.08-3.18-3.4-.82-2.67-.13-8.39m27.78-6.96-.99-9.16q6.67-.39 12.17-3.18.43 9.28-1.2 10.75-.9.81-4.56 1.24zm40.76-8.73q4.78 3.18 13.42 2.92 8.3-.26 13.63-3.3 1.2 12.93-5.07 13.92l-10.02.7q-5.9-.14-9.38-1.34-3.44-1.2-3.4-5.08.1-2.19.82-7.82"/><path fill="#28343b" d="M110.9 87.72q1.59 2.92 2.36 5.76-5.07-2.1-11.95-1.29.3-3.65 1.68-6.1 4.38.34 7.9 1.63"/><path fill="#fff" d="M107.76 86.73q.94-.26 1.98.73 1.11 1.08 1.46 2.84.34 1.72-.09 2.88-.43 1.2-1.46 1.46-.99.26-1.93-.6-1.04-.9-1.42-2.7-.3-1.56.04-2.89.34-1.46 1.42-1.72"/><path fill="#bae3f9" d="M208.94 139.88q-1.8 1.8-4.9 2.67l-5.5.38q-2.85-.47-3.32-2.06-.52-1.72 1.33-3.44 1.85-1.76 5-2.58l5.62-.35q2.54.43 3.01 1.94.52 1.68-1.24 3.44m27 41.84q2.88 4.64 3.57 8.6.69 3.74-.86 4.73l-3.01-.13q.65 1.85.56 3.22-.13 1.34-.9 1.9-1.12.86-3.7-.26-2.88-1.25-5.2-4.26-2.33-3.05-3.32-6.8-.94-3.73.4-4.64l2.7-.08q-1.46-3.61-1.68-6.58-.21-3.1 1.04-3.74 1.72-.95 4.81 1.5 2.97 2.37 5.6 6.54"/><path fill="#c93008" d="M46.18 98.64q8.39 3.14 17.63 3.74-.26 3.53.69 6.67t2.8 4.81q-3.23 1.04-5.94 0-3.61-1.41-5.29-6.32-2.62.7-4.68 2.63-1.85 1.67-4.35 5.41-.56.86-.73 2.2-.17 1.63.43 3.1-3 3.73-12.94 4.64-10.8 1.03-17.37-3.36 10.32 1.77 18.96-2.5 4.04-1.97 4.99-4.6 1.07-2.92-2.02-5.97 7.13-.26 9.46-3.52 2.23-3.23-1.64-6.93m-45.1 34.23q.04-3.96 2.53-8-1.55 7.36.17 11.48l-1.03 2.76q-1.76-2.76-1.67-6.24"/><path fill="#c93008" d="M3.7 136.61q-.39 4.39.47 8.34.86 4.09 2.71 6.24v4.04q-3.53-2.28-4.6-7.31-1.16-5.46 1.42-11.3"/><path fill="#c93008" d="M8.21 145.81q-.25 5.46 1.68 10.24 1.9 4.68 5.2 7.05l.6 3.74q.3 1.46-1.67.82-4.73-1.6-6.45-7.74-1.8-6.32.64-14.1M117 63.3q4.39 3.78 4.78 10.7.38 6.71-3.23 10.45l-1.85-4.34q1.72-4.3 1.9-7.91.17-4.13-1.6-8.9M14.66 10.62q.18 5.46 4.9 11 4.13 4.91 10.41 8.35-3.65-1.29-6.23-1.42-4.22-2.66-6.54-6.5-3.05-4.98-2.54-11.43m-2.53 26.02q3.6-1.47 9.41-1.68 5.5-.17 10.67.77l-3.14 2.07-6.84-.78q-3.65-.17-5.85.13-3.52.52-4.25-.51"/><path fill="#c93008" d="M16.73 53.23q2.75-10.32 15.48-17.5-5.38 4.78-6.67 13.46-1.2 8.52 2.5 13.03.21 2.2 1.76 4.56 1.46 2.32 3.91 4.43-7.91-.95-12.38.04-7.18-8.25-4.6-18.02"/><path fill="#004370" d="M140.61 73.66q-2.4 7.14-7.57 11.78l-3.65 1.6q-3.18-.4-1.72-2.29 1.42-1.85 1.55-4.04.12-2.54-1.9-3.78 4.73-5 7.53-8.43 3.61-4.56 5.93-8.77 2.45 6.19-.17 13.93"/><path fill="#4da5ce" d="M67.34 109.3q-3.23-2.7-3.4-10.01 7.53-6.2 18.23-9.98-.25 5.63.6 9.38-8 4.34-15.43 10.62"/><path fill="#dcd2a9" d="M82.17 89.31q7.83-2.7 15.1-3.22-1.34 3.22-1.64 7.26-6.15 1.68-12.85 5.34-.86-3.75-.6-9.38"/><path fill="#dcdddd" d="M97.27 86.09q2.92-.22 5.72 0-1.38 2.45-1.68 6.1-2.75.35-5.68 1.16.3-4.04 1.64-7.26"/><path fill="#dcd2a9" d="M140.18 49.62q6.54-13.93 7.4-29.45 2.88 16-3.31 31.47-5.34 13.33-16.95 25.29 1.9 1.42 1.8 4-.08 2.28-1.45 3.82-.78.86 0 1.55.69.65 2.28.73-2.2 1.16-6.2 4.52-3.26 2.1-6.27 2.62l-1.81.04-2.2-.64-.2-.09q-.78-2.84-2.37-5.76 2.4.9 4.43 2.24 1.85 1.2 3.4.51 2.92-1.33 4.12-2.1.99-.65.73-1.34-.26-.77-1.72-.81l-1.8-.43q-1.04-.4-1.42-.95 1.29-2.1 2.15-5.25.73-2.83.86-5.54 11.7-9.9 18.53-24.43"/><path fill="#dcdddd" d="M111.2 90.3q.26 1.42 0 2.5l-4.69-.78-.21-.69q-.3-1.55.04-2.88.34-1.46 1.42-1.72.94-.26 1.98.73 1.11 1.08 1.46 2.84"/><path fill="#cf7487" d="M126.68 113.95q-3.23-.04-5.08.9-1.8.86-2.02 2.41-1.29-.6-2.62-2.62t-1.03-3.01q.17-.65 1.37-.65 1.12 0 2.33.48l3.22 1.33z"/><path fill="#dcd2a9" d="M152 93.48q1.08 6.15-1.97 11.18-2.75 4.56-8.26 7.14-5.33 2.5-11.4 2.32-6.31-.21-11.26-3.35 9.93 3.1 21.03-2.1 11.7-5.51 11.87-15.19"/><path fill="#4da5ce" d="M113.18 122.8q5.72.61 12.04-.25-3.23 2.28-6.41 3.83-3.31 1.63-4.77 3.82-1.42 2.11-1.5 5.47-3.8 2.75-8.78 3.1-4.99.3-8.56-1.99-.21-6.66-4.64-8.68-4.6-2.11-9.03-4.69-5.08-2.88-7.91-5.2 9.54 4.73 21.28 5.76 10.28.9 18.28-1.16"/><path fill="#dcd2a9" d="M132.61 115.2q-2.36 3.7-7.4 7.35-6.31.86-12.03.26 5.97-1.5 10.92-4.3 1.8.04 4.21-.9 2.32-.9 4.3-2.41"/><path fill="#4da5ce" d="M142.67 166.88q-4.34 1.16-6.36 2.28-2.2 1.25-3.74 1.38-1.55.13-3.57-.73-6.23-2.67-12.3-9.38 5.8 3.87 13.68 5.16 7.3 1.25 13.37-.13.39 1-1.08 1.42"/><path fill="#4da5ce" d="M135.7 162.67q-4.08.64-7.6-.65-1.5-.55-.78-1.59.73-1.03 2.11-.6 2.92.9 6.1.73 3.06-.21 5.42-1.37-.77 2.75-5.24 3.48M71.25 204.2q-2.54 1.68-4.34 1.38 2.92-1.93 5.98-6.15 2.45-3.4 4.38-7.26l-2.36 8.77q-1.6 1.9-3.66 3.27m22.06-1.89q-2.7 7.82-9.29 14.53-6.75 6.84-10.88 5.5 5.34-2.36 11.18-9.67 6.28-7.83 7.83-15.1z"/><path fill="#4da5ce" d="M108.23 225.84q-2.97-2.02-5.93-5.6-7.91-9.58-9.94-23.04 3.57 11.05 10.63 20.2 6.14 7.96 8.08 7.19.9-.39 1.25-9.03.34-8.51-.26-13.5 1.93 8.73 1.98 16.55.08 8.09-1.98 8.69-1.16.34-3.83-1.46"/><path fill="#4da5ce" d="M111.97 201.2q5.08 7.3 12.9 13.28-1.42.65-4.99-1.84-3.78-2.67-7.13-7.1z"/><path fill="#dcd2a9" d="M88.58 174.54q.22 4.17 2.67 8 2.06 3.3 3.26 3.26.78-.04 2.37-3.82 1.63-3.87 2.36-7.61-.04 3.74-1.5 8.81t-2.58 5.38q-1.6.47-4.43-4-3.27-5.03-2.15-10.02m42.02 35.56q4.72-1.3 8.16-3.79l5.6-4.73q2.74-2.36 8.2-3.26l1.5 5.89q.74 2.7 1.56 4.43-2.11-.18-5.6.86-3.05.9-5.41 2.19-2.2 1.25-5.8 2.4-3.92 1.25-8.3 2.03zm-41.2.26q2.36-3.74 3.91-8.04 2.28 7.13 5.46 12.94l-.77-.22-4.04 11.79q-1.94-4.22-3.1-8.35-5.03 4-12.21 7.18.34-1.29.34-4.81 2.24-1.12 5.68-4.73 3-3.14 4.73-5.76m23.56-4.56q3.01 3.48 4.95 5.2 2.15 1.94 4.73 3.31 2.1 1.08 3.18-.73l-.39 3.44q-.39 1.64-.9 2.02-1.12.82-5.03-1.93 0 3.05-1.72 7.22-1.6 3.79-3.79 6.67l-.64-4.52q.82-3.87.73-9.24-.09-5.55-1.12-11.44"/><path fill="#dcd2a9" d="M160.7 218.05q-6.29-10.14-8.14-19.73 3.32 8.38 9 16.8 5.02 7.5 10.44 12.9 4.17 4.18 5.46 9.51 1.46 6.02 0 15.87-.17-8.77-1.9-14.15-1.5-4.73-4.55-7.87-5.63-5.72-10.32-13.33m-66.91 9.46q-6.45 15.23-8.08 24.51-.86 4.86-2.28 20.73-1.38 15.18-1.9 24.81-3.56 1.76-7.13 2.5 4.9-34.2 8.43-49.71 1.68-7.36 10.96-22.84m31.48 21.59q.21-2.97 1.25-6.45 1.63-5.72 3.44-18.5.13 7.92-1 18.2-.55 5.29-.68 8.08-.13 3.96.39 6.75 1.97 10.88 3.57 22.02 2.15 15.18 2.62 24.64-4.04 2.1-8.09 3.1.74-12.05.43-24.99-.3-13.46-1.67-24.98-.52-4.6-.26-7.87"/><path fill="#004370" d="m73.01 309.64 1.38-9.59q3.57-.73 7.14-2.49l-.17 3.57q-.09 3.48-2.67 5.68-1.85 1.59-5.68 2.83m59.73 4.95q-1.12.73-2.75 1.25l-4.04 1.11.81-10.02q4.05-.98 8.09-3.1l.13 4.82q0 4.43-2.24 5.94"/><path fill="#dcd2a9" d="M134.25 251.46q-2.71-1.03-6.11-.08-.04-4.26.73-9.6 1.38-9.28 1.64-25.66 4.3-.26 10.23-2.67l9.07-4q-.81 4-3.1 11.05l-4.2 12.69q-1.13 3.4-1.17 7.1-.08 3.22.65 8.38 3 22.62 3.65 36.6-2.92 1.37-6.28 2.14.39-9.03-.21-18.62-.47-8.17-1.42-13.28-.52-2.97-3.48-4.05"/><path fill="#004370" d="M138.55 297.6q.56-4.64.81-10.19 3.36-.77 6.28-2.15l.22 6.62q0 1.5-.65 2.84-.73 1.6-2.06 2.02z"/><path fill="#dcd2a9" d="M187.65 246.86q-1.8-6.49-2.36-10.1-.78-5.16-.65-12.26 1.03 6.32 1.94 10.07 1.33 5.67 3.44 10.79 4.99 12 7.65 20.68 3.74 12.26 4.52 22.58-3.4 1.89-7.44 2.53-.43-20.2-7.1-44.29"/><path fill="#004370" d="M194.75 291.15q4.04-.64 7.44-2.53.3 4.38.17 7.9-.13 2.85-2.45 4.44-2.11 1.42-5.38 1.37.35-5.8.22-11.18"/><path fill="#4da5ce" d="M212.25 103.07q4.08 2.62 6.1 7.61 2.03 5.03 1.72 12.13-.08 1.76-1.46 1.76-1.42 0-1.2-2.02.6-5.33-.56-10.1-1.3-5.34-4.6-9.38m10.88 7.87q3.65 5.2 3.6 11.48-.03 6.54-4.25 10.15l-3.05.3q4.34-3.74 5.25-9.46.86-5.5-1.55-12.47m37.49 31.09q3.44 2.5 4.9 7.61 1.47 5.07.35 10.4-1.25 5.81-5.2 9.68-4.52 4.39-11.66 5.25l-1.2-1.12q-.73-.86-.26-1.68.43-.86 1.85-1.16 9.16-1.76 12.81-10.02 3.92-8.81-1.59-18.96m31.61 38.01q-2.24 8.69-9.29 15.87-7.14 7.22-16.17 9.89-9.84 2.92-18.83-.78 19.74-.6 32.42-14.36 5.59-6.06 8.3-13.37 2.67-7.31 1.9-14.28 4.12 7.7 1.67 17.03"/><path fill="#4da5ce" d="M271.42 204.12q7.56-3.22 11.78-8.21-2.02 11-13.03 18.1-10.8 7.01-24.94 6.92-17.46-.08-29.24-11-12.08-11.23-12.77-29.07 4.77 17.2 21.89 24.8 7.65 3.4 16.08 3.8 8.51.42 16.08-2.37 6.7.17 14.15-2.97m-105.1-37.41q4-6.23 11.1-8.73 7-2.4 14.23-.21-6.53-.22-12.04 2.28-5.8 2.62-9.76 7.95z"/><path fill="#0f141b" d="M112.79 94.69q-1.16-4.95-3.48-7.36-2.02-2.1-4.05-1.54-2.32.64-3 4.12-.7 3.4.47 7.61 1.16 4.22 3.57 6.67 2.23 2.32 4.17 1.85 2.15-.52 2.8-3.79.6-3.18-.48-7.56m1.5-.4q1.2 4.91.22 8.52-.99 3.66-3.83 4.35-2.5.6-5.16-1.77-2.96-2.62-4.3-7.48-1.37-4.99-.21-8.9 1.12-3.87 4-4.47 2.8-.6 5.37 1.98 2.71 2.7 3.91 7.78m-17.84-7.96 1.8-.04q-2.75 4.99-1.54 11.61 1.07 6.1 4.51 9.42.86.82.56 1.12-.26.25-1.12-.3-4.17-2.67-5.59-9.85-1.42-7.23 1.38-11.96m49.06 24.21q-5.07 3.7-11.7 4.26l-.64.04q-4.6 5-10.02 4.48-2.75-.26-4.73-1.85-2.02-1.6-3.1-4.3-.51-1.38-.08-2.07.39-.64 1.72-.73 1.6-.17 3.05.52 6.54 3.05 13.2 2.53 6.2-.47 10.97-3.82 4.73-3.31 6.45-8.34 1.9-5.3-.22-10.88-2.1-5.72-9.41-5.8-7.91-.14-16.56 6.96-.94.81-1.24.47t.6-1.2q8.08-7.61 17.07-7.7 8.68-.09 11.22 6.62 2.24 6.02.26 11.74-1.85 5.46-6.84 9.07m-28.94 2.2q1.85 4.64 6.75 5.11 4.05.35 7.7-2.92-5.76-.13-11.48-2.8-1.25-.6-2.5-.43-.9.09-.47 1.04"/><path fill="#0f141b" d="M138.8 90.13q.82 1.16.86 3.1.05 2.06-.81 3.18-.73.94-1.85.94t-1.9-1.16q-.81-1.2-.85-3.18-.05-1.55.73-2.71.77-1.12 1.93-1.16 1.12-.09 1.9.99m-.26 3.1q-.05-1.55-.52-2.41-.47-.73-1.07-.73t-1.12.81q-.52.9-.48 2.1.05 1.64.56 2.55.43.77 1.08.77.69 0 1.12-.82.47-.9.43-2.28m13.33-.38q-.7.99-2.02.6-1.51-.39-2.33-2.28-.94-2.15-.38-3.61.47-1.3 1.67-1.03l.95.99q-1.12-.56-1.6.25-.5.86.4 2.93.81 1.85 1.89 1.89 1.03 0 1.07-1.2zm-17.38 21.33q-2.1 3.95-6.92 7.65-3.48 2.62-9.07 5.55-2.5 1.33-3.91 3.48-1.34 2.06-1.38 4.47-.39 18.28 15.18 19.18 6.06.34 9.8 1.68 3.83 1.33 3.79 3.26-.09 2.5-4.56 3.66-4.77 1.25-9.12-.9-.99-.48-.77-.9l1.25.04q3.9 1.72 7.95.51 3.53-1.07 3.57-2.58.04-1.07-3.05-2.02-3.44-1.07-9.03-1.42-8.13-.47-12.43-5.63-4.34-5.25-4.17-14.88.08-2.8 1.59-5.24 1.63-2.54 4.56-4.09 5.11-2.67 8.21-4.94 4.17-3.19 6.32-6.8z"/><path fill="#0f141b" d="M142.67 167.61q-3.18.65-6.36 2.54-4.13 2.54-9.24-.3-7.83-4.3-11.53-9.59l-.64-3.74q4.21 7.1 12.81 11.87 2.4 1.29 3.91 1.5 1.94.22 3.92-.99 2.19-1.37 6.92-2.53.82-.17.73-.52-.04-.3-.9-.39-5.46-.51-9.85-2.27l2.75-.48q3.66 1.08 7.23 1.55 2.62.34 2.66 1.6.05 1.24-2.4 1.75m-17.38-44.97q-7.44 2.19-15.9.3-8.13-1.77-14.97-6.71-6.97-5.03-10.5-11.78-3.78-7.31-2.49-14.92l1.64-.43q-1.2 7.7 2.7 15.05 3.62 6.79 10.76 11.65 7.05 4.82 15.22 6.2 8.68 1.45 16.08-1.47zm-55.73-9.68q3.62 4.13 9.34 8 5.63 3.83 12.47 6.75 5.59 2.37 4.38 11.18-1.33 9.85-11 21.67-3.88 4.73-8.6 13.12-5.04 8.86-6.97 14.79-1.77 5.68-2.32 10.92-.52 5.08.47 5.55t3.48-1.16q2.58-1.72 4.17-4.09l-.13 2.2q-1.97 2.27-4.6 3.74-2.58 1.42-3.7.9-1.76-.82-1.16-7.1.52-5.5 2.33-11.4 2.06-6.74 7.09-15.64 4.34-7.66 8.56-12.99 8.6-10.8 10.49-19.78 1.76-8.47-3.14-10.53-14.66-6.28-22.4-15.4z"/><path fill="#0f141b" d="M93.61 203.13q-3 9.08-10.58 15.83-7 6.23-10.45 4.9-2.23-.86-.55-12.17 1.54-10.54 4.6-19.35.47-1.42.9-1.3.43.1.04 1.56-2.58 9.33-3.82 18.87-1.3 9.6 0 10.1 3.05 1.21 9.58-5.06 7.06-6.8 9.6-15.27z"/><path fill="#0f141b" d="M112.62 202.4q1.98 6.54 2.32 15.35.34 9.29-1.85 10.67-1.55.94-4.56-1-3.1-1.97-6.36-6.14-8.04-10.2-10.5-23.52-.2-1.25.26-1.3.43-.08.74 1.13 2.96 13.2 10.53 22.4 2.84 3.44 5.5 5.24 2.46 1.68 3.36 1.12 1.46-.86 1.25-9.16-.18-8.08-1.64-14.57-.3-1.5.09-1.6.43-.08.86 1.38"/><path fill="#0f141b" d="M120.1 169.94q3.65 8.17 5.63 26.44 2.02 18.23-.56 19.4-1.5.68-5.2-1.94-3.83-2.75-7-6.97l-.14-2.66q2.54 3.7 6.4 6.92 3.88 3.23 5.13 2.67 1.59-1.25-.35-18.06-2.02-17.46-5.29-25.2-2.19-5.25-3.44-9.38-1.29-4.3-1.97-9.03-.26-1.72.17-1.8.47-.09.77 1.63.86 4.65 2.24 8.86 1.29 3.91 3.6 9.12m-20.46-1.38q.65 3.27.56 6.28-.04 3.4-1.12 7.1-.99 3.39-2.53 6.23-.65 1.12-1.2 1.25-.65.12-1.86-.78-2.58-1.85-4.34-5.2-1.94-3.61-1.94-7.4 0-3.18 2.15-7.4 2.07-4.04 4.9-6.92 1.25-1.2 1.98-1.11.74.12 1.47 1.67 1.24 2.8 1.93 6.28m-4.56-5.93q-2.4 2.53-4.34 6.49-2.06 4.17-2.06 6.97 0 3.3 1.67 6.7 1.6 3.14 3.79 4.82.9.69 1.37-.17 1.2-2.24 2.15-5.85 1-3.78 1.08-6.84.08-2.84-.47-6.02-.6-3.3-1.72-5.85-.52-1.16-1.47-.25m-38.7-54.27q-2.83.69-4.9 2.54-2.15 1.93-4.04 5.59-1.16 2.23.13 4.64 4.47 8.86.6 14.88-4.3 6.62-19.35 10.92-7.31 2.07-10.92 7.61-3.48 5.38-1.76 11.18.77 2.5-.1 2.97-.8.47-3.13-.73-4.04-2.07-5.85-7.27-1.63-4.86-.77-10.53.9-5.8 4.08-9.72 3.49-4.39 8.73-4.9 1.34-.13 1.34.3t-1.3.64q-4.6.73-7.7 4.9-2.74 3.75-3.56 9.12-.77 5.25.6 9.68 1.5 4.73 4.99 6.53 1.2.65 1.5.47.26-.17-.08-1.2-2.02-6.06 1.5-11.91 3.79-6.28 12.04-8.69 14.24-4.12 18.28-10.57 3.52-5.55-.47-13.08-1.55-3-.05-5.89 1.8-3.61 4.3-5.93 2.63-2.5 5.6-3.1z"/><path fill="#0f141b" d="M11.7 127.07q.3.34-.73 1.16-7.57 6.1-8.26 14.75-.6 8.08 4.64 12.16l-.04 1.81q-6.54-4.26-5.93-13.63.56-9.85 8.98-15.87 1.08-.77 1.34-.38"/><path fill="#0f141b" d="M2.92 127.67q-2.75 5.93.09 10.79l-.69 1.98q-3.74-5.3-1.42-12.04 2.28-6.58 8.52-9.68l1.33 1.04q-5.25 2.32-7.83 7.9m119.03-56.88q1.85 8.68-2.93 14.79l-.94-1.5q3.95-5.72 2.45-13.08-1.63-8-9.07-9.76-1.2-.26-1.12-.69.04-.43 1.29-.25 8.34 1.24 10.32 10.49m7.91 9.59q.13 3-1.9 5.03-.16.17-.12.39l.26.25 3.3.22-1.93 1.25-1.93-.43q-.86-.3-1.03-1.04-.22-.73.51-1.46 1.72-1.72 1.5-4.13-.2-2.32-1.97-2.83l.99-1.25q2.15.99 2.32 4"/><path fill="#0f141b" d="M145.73 21.46q-2.58 12.6-9.38 23.78-6.92 11.52-17.5 20.16l-1.03-1.37q10.23-8.26 17.16-19.4 6.96-11.18 9.46-23.43.56-2.71 2.15-2.71 1.59.04 1.93 2.7 1.98 14.29-2.75 28.56-5.55 16.77-19.18 28.47-1.12.94-1.42.64-.34-.34.78-1.37 13.2-12.56 18.53-28.86 4.56-13.93 2.62-27.26-.17-1.25-.64-1.25-.43.05-.73 1.34"/><path fill="#0f141b" d="M141.34 58.44q2.54 6.15.43 14.14-2.23 8.26-8.08 12.73l-3.01.82q6.4-4.09 9.11-12.13 2.54-7.56.56-14.1zM31.78 36.68q-12.13 7.65-14.4 17.29-2.16 9.11 5.07 16.98l-1.94.52q-6.96-7.57-4.86-17.42 2.41-10.92 15.61-18.23 1.2-.69 1.46-.26.22.39-.94 1.12m100.96 1.59q2.15 3.18 2.67 7.48l-1.3 1.72q-.12-3.87-1.88-7.4-1.81-3.6-3.66-3.56-.82.04-1.6 1.03-.72.9-1.02 2.06l-1.25-.34q.34-1.46 1.42-2.71 1.2-1.33 2.4-1.38 2.16-.04 4.22 3.1m11.06 126.98q10.27-2.71 19.51-.39 9.03 2.28 14.45 8.65 6.54 7.65 8.26 21.62 1.25 10.1-.04 25.98-.82 9.63 4.47 23.13 6.92 17.5 9.54 26.79 3.66 13.03 3.36 23.78-.26 7.48-6.67 8.34l-8.77.6q-6.1.05-9.07-.86-3.44-.99-4.52-2.75-.94-1.55-.56-4.9 1.2-10.45 1.9-25.8.6-13.76.47-22.23-.09-5.3-1.25-8.47-1.12-3.14-3.91-5.94-7.1-7.14-12.26-16.25-5.24-9.29-6.45-17.16-.17-1.33.26-1.37.43-.1.73 1.2 2.07 8.64 7.4 17.5 4.9 8.26 11.48 14.92 2.84 2.88 4.17 6.62t1.42 9.03q.17 8.82-.39 22.28-.6 15.52-1.8 25.84-.3 2.84.43 3.96.68 1.07 3.35 1.85 2.5.73 7.96.77l9.24-.52q4.95-.68 5.12-6.75.3-10.62-3.27-23.48-2.58-9.28-9.42-26.53-2.06-5.2-3.27-10.36-1.72-7.44-1.29-13.33 1.12-15.35-.08-25.2-1.68-13.93-7.96-21.07-5.24-6.02-13.84-8.12-8.6-2.07-18.84.25z"/><path fill="#0f141b" d="M202.4 289.22q-4.26 3.05-13.41 3.27-9.42.25-13.72-2.97l.21-1.55q3.44 3.36 13.72 3.01 10.02-.3 12.99-3.35zm-71.98-74q5.72-.22 15.48-5.04 4.99-2.45 9.55-2.49l.73 1.85-4.6.43q-2.11.52-4.95 1.9-3.48 1.71-7.18 3.04-5.46 1.94-9.07 2.07z"/><path fill="#0f141b" d="M130.98 211.13q.17 19.22-1.55 32.77-.64 5.03-.34 9.59.25 3.9 1.54 11 2.76 15.35 3.96 25.46 1.42 11.78 1.16 19.6-.13 3.19-1.12 4.57-.77 1.11-3.3 2.23-5.12 2.24-12 2.37-7.53.17-11.18-2.58-2.8-2.11-2.54-7.1.9-15.6 7.52-42.57 1.3-5.2 1.72-11.48.39-5.98-.08-11.1-.86-8.85-2.15-16.55l1.29-2.02q1.67 9.25 2.45 18.49.43 5.03-.04 11.27-.43 6.32-1.64 11.78-2.84 12.98-4.26 20.55-2.66 13.93-3.1 21.72-.12 2.15.3 3.44.44 1.29 1.56 2.1 3.48 2.58 10.53 2.33 6.28-.3 11.01-2.37 1.9-.82 2.58-1.9.69-1.07.73-3.26.26-7.35-1.33-20.04-1-7.87-3.7-24.76-1.2-7.44-1.42-10.93-.34-4.9.3-9.93.95-7.48 1.42-14.53.52-7.66.69-18.15.04-1.68.52-1.68.43 0 .47 1.68"/><path fill="#0f141b" d="m134.38 296.7 7.74-.64q1.54-.35 2.1-1.17t.65-3.13q.56-14.1-2.93-36.77-1.46-9.89-1.37-14.19.13-5.46 2.58-12.17 3.7-10.1 5.72-18.83l1.97-.39q-.9 4.34-2.45 9.16l-3.7 10.58q-2.4 6.58-2.53 11.78-.09 4 1.42 13.93 1.63 10.88 2.45 20.77.82 10.06.56 16.21-.13 2.84-1.08 4.17-.94 1.3-3 1.77l-8 .68z"/><path fill="#0f141b" d="m133.39 287.58 6.62-.9q3.65-.86 5.63-2.32l.04 1.5q-2.45 1.55-6.53 2.46l-5.68.73zm1.51 16.86q-6.24 3.91-14.71 4.13-8.35.17-13.38-3.31l.13-1.68q4.95 3.83 13.8 3.44 8.43-.34 14.02-4.04zm-42.06-92.19q2.32 1.37 5.85 2.2l.94 2.01-3.61-.94q-1.98-.7-3.74-1.81-1.68-1.12-1.38-1.76.26-.7 1.94.3"/><path fill="#0f141b" d="m94.21 228.89-5.24 13.2q-2.02 4.9-3.4 16.73-1.5 12.73-3.35 42.22-.22 3.19-1 4.65-.68 1.37-2.79 2.7-4.25 2.8-10.7 3.06-5.6.21-10.84-1.46-2.62-.9-3.66-2.67-1.07-1.8-.68-4.99 1.03-9.16 7.78-26.4 2.58-6.53 10.28-24.04l2.36-5.5q.99-2.62 1.85-6.06 2.75-11.27 3.57-19.27l1.76-.86q-.56 5.25-1.42 9.8l-2.45 10.67-1.85 6.24-2.32 5.54q-6.53 14.92-10.15 24.34-6.66 17.33-7.7 25.72-.3 2.53.48 3.87.73 1.24 2.67 1.89 4.47 1.46 9.33 1.46 6.45.04 10.75-2.8 1.72-1.07 2.36-2.53.56-1.25.65-3.49.6-10.87 1.5-22.4 1.03-12.86 1.94-19.86 1.59-11.79 3.57-17.03l5.33-14.15 4.43-12.6 1.67.52q-2.02 6.4-4.73 13.5"/><path fill="#0f141b" d="M54.7 296.4q4.17 3.14 12.9 3.48 9.2.35 14.01-3.1v1.51q-5.24 3.31-13.8 3.14-8.38-.21-13.46-3.57zm149.68-193.24q-.13.56.64 1.59 2.71 3.78 3.4 7.7.65 3.82-.77 7.22-2.84 6.7-10.84 8.04-12.73 2.2-21.37 12.73-8.6 10.49-10.45 25.97l-1.72-.47q1.76-16.04 10.8-26.8 9.02-10.83 22.57-13.02 3.4-.56 5.89-2.32 2.54-1.85 3.74-4.69 2.71-6.54-2.4-13.59-1.25-1.76-.87-3 .48-1.3 2.63-1.64 6.66-1 11.05 5.29 4.51 6.36 3.57 16.04-.18 1.46-.6 1.46-.44-.04-.4-1.5.3-9.25-3.6-15.01-3.92-5.72-9.77-4.82-1.33.22-1.5.82"/><path fill="#0f141b" d="M227.34 125.22q-.86 4.64-4.04 7.26l-2.2.13q3.32-2.2 4.48-6.32 1.03-3.78.04-8.17-.99-4.26-3.48-7.4-2.71-3.3-6.2-4.08l-.98-1.63q4.08.25 7.35 3.57 3.01 3.05 4.43 7.7 1.38 4.64.6 8.94"/><path fill="#0f141b" d="M240.63 146.85q3.3 8.64 7.91 6.32 2.2-1.08 2.1-4.17-.12-3.27-2.96-5.81-2.32-2.06-1.9-3.7.48-1.67 3.53-1.93 8.09-.65 13.12 4.64 5.07 5.33 4.82 14.36-.22 7.36-4.86 12.6-4.86 5.5-12.65 6.4l-1.11-1.32q7.7-.52 12.38-6.24 4.09-4.99 4.3-11.52.22-8.13-4.17-13.03-4.43-4.99-11.7-4.39-1.85.17-2.06 1-.17.8 1.25 2.1 3.44 3.1 3.52 7.22.09 3.92-2.8 5.38-6.31 3.1-10.1-7.36-6.15-16.94-19.09-13.93l-1.33-.13q-.13-.47 1.07-.81 13.63-4.13 20.73 14.32"/><path fill="#0f141b" d="M292.14 164.9q2.97 8.26.13 17.38-2.62 8.6-9.5 15.3-6.97 6.84-15.78 9.2-9.6 2.59-18.75-.94-1.33-.56-1.16-.94l1.55.04q8.77 2.62 17.84-.04 8.43-2.46 15-8.82 6.54-6.28 9.12-14.28 2.71-8.47.09-16.38-.73-2.15-1.8-2.1-1.04.08-1.94 2.19-2.58 6.02-7.87 10.02-4.9 3.74-11 4.98-5.94 1.25-11.23-.25-5.55-1.55-8.69-5.68-.73-.95-.38-1.2.3-.3 1.11.56 3.32 3.65 8.69 4.9 5.07 1.12 10.66-.22 12.65-2.96 17.42-13.89 1.42-3.26 3.35-3.26 1.94.04 3.14 3.44"/><path fill="#0f141b" d="M284.75 194.02q-3.7 15.82-17.63 23-11.96 6.2-27.22 4.43-15.87-1.9-25.89-11.82-11.78-11.61-11.74-31.44 0-7.82-3.14-12.81-2.88-4.6-7.87-5.9-4.85-1.2-10.36 1.13-5.76 2.45-10.66 8.17l-1.77-.86q5.3-6.41 11.7-9.12 6.06-2.54 11.57-1.12 5.54 1.46 8.81 6.58 3.49 5.5 3.36 13.98-.22 18.74 11.6 30.05 9.85 9.42 24.56 11.18 14.4 1.72 25.58-3.65 12.82-6.15 17.08-20zm-179.87-84.58q-.86-.13-.86-.56.04-.43.94-.4l4.73-.42q.9-.17 1 .21.08.43-.78.74-2.41.86-5.03.43m16.42-70.05q-6.23-20.08-23.26-26.1-18.36-6.54-47.21 4.21-9.12 3.4-18.84 1.12-9.41-2.24-14.66-8.6-.99-1.2-1.68-.69-.64.47-.86 2.4-.43 4.91 3.1 10.07 3.4 4.99 8.21 6.97l-2.88.04q-4.47-2.5-7.35-7.27-3.06-5.07-2.63-9.93.3-3.22 2.03-3.83 1.59-.56 3.1 1.3 5.15 6.1 13.97 8.08 9.07 2.02 17.93-1.3Q79.42 5 98.34 11.4q18.02 6.06 24.17 26.83 4.47-.35 7.7 2.53 3.3 3.01 3.3 7.87l-1.63 1.6q.65-5.04-2.7-8.13-3.06-2.84-7.36-2.37-.43.09-.52-.34"/><path fill="#0f141b" d="M14.45 36.64q7.95-1 15.13.64l-1.2 1.16-13.76-.43q-2.4.35-3.14-.73-.77-1.07.52-2.97 2.92-4.3 7.6-5.67 5-1.46 10.29.99 1.11.51.94.9l-1.37-.04q-4.86-1.94-9.5-.48-4.35 1.34-6.76 5-.6.9-.26 1.33.3.47 1.5.3"/><path fill="#00568b" d="M82 60.07q-1.33-3.57-.26-5.33 1.12-1.85 4.52-1.12 7.82 1.72 18.19 11.35 10.58 9.85 13.63 18.75.82 2.5 4.43 2.58.94.04 1.16.6.21.52-.39 1.08-1.46 1.29-4.21 2.4-1.72.78-4-.64-8.86-5.07-22.96-2.8Q77 89.4 64.03 99.3l-.09 3.1-8.6-1.12q-5.2-1.04-9.03-2.5 3.96 4.39 1.12 7.35-2.58 2.71-9.2 2.97 4.47 3.23 1.33 7.27-3.35 4.3-12.94 5.8-6.8 1.04-12.39-.64-5.72-1.72-6.02-5.12-.3-3.27 4.05-6.15 4.04-2.66 9.63-3.52-4.26-1-8.34-4.05-4.52-3.4-4.7-6.62-.12-3.18 4.91-5.24 4.26-1.77 9.98-2.07-4.05-2.62-6.88-5.97-3.53-4.22-2.71-7.27.86-3.18 7.57-4.3 6.06-1.08 12.3.04-6.59-6.1-5.9-9.29.86-3.82 9.5-4.08 8.9-.26 17.25 3.7-1.68-2.28-2.58-4.73-.95-2.58-.3-3.44 2.28-3.01 12.3-.52 9.24 2.32 17.71 7.18"/><path fill="#e8390e" d="M103.89 19.14q3.44 4.98 4.73 12.98.34 2.28-19.18 2.45-19.56.17-21.28-2.5-2.89-4.5-4.73-9.5-1.98-5.41-.7-6.32 1.51-.98 5.51.95 4.34 2.06 7.57 5.8L70.09 7.1q-1.8-4.82-.39-5.81 1.34-.9 4.69.26t7.35 3.91q9.76 6.88 13.94 16.43.68-3.14 1.29-4.56.9-2.15 2.19-2.15 2.02 0 4.73 3.96"/><path fill="#004370" d="M77.92 65.19q7.26 3.35 14.23 8-4.77-3.62-8.39-9.42.13-2.28 3.32-2.02 3.05.26 6.49 2.5 6.15 3.9 13.07 10.31 6.88 6.32 9.76 10.67 1.16 1.72 3.01 2.15l4.3-.22q-.56.95-2.4 2.07l-2.67 1.24q-1.5.56-3.36-.56-9.28-5.59-24.2-2.8-14.71 2.76-26.84 12.1l-.13 3.09-8.47-.95q-3.61-.69-9.24-2.58 3.4 3.87 1.42 6.84-2.11 3.14-9.6 3.44 2.76 2.58 2.33 5.07-.43 2.45-4.04 4.95-4.22 2.92-11.74 3.44-7.14.51-11.1-1.38-3.44-1.98-.21-6.75 3.4-5.03 11.1-7.44l-2.76-.26q-4.73-1.54-7.48-3.6-3.78-2.85-.69-7.23Q17 91.12 26.06 89.3l-2.54-.51q-1.98-1.38-4.47-4.05-1.68-1.89-1.03-3.65.69-1.8 3.44-2.67 3.7-1.12 10.4-.9 6.75.21 14.1 1.72-6.06-3.18-12.12-8.13-.9-1.63.47-3.1 1.42-1.46 4.3-1.89l11.1.35q8 1.07 13.46 3.52-2.75-1.89-7.05-6.83-.78-2.02.55-2.97l5.72-.26q7.31 1.46 15.53 5.25"/><path fill="#0f141b" d="M76.37 24.55q-2.84-3.65-7.31-6.15-4.26-2.36-5.55-1.54-1.07.64.3 4.94 1.42 4.43 4.39 9.25.73 1.2.34 1.42t-1.2-.9q-3.4-4.74-5.03-10.07-1.68-5.37 0-6.4 1.89-1.21 6.83 1.63 5.16 2.92 8.05 7.26.77 1.17.43 1.42-.4.26-1.25-.86"/><path fill="#0f141b" d="M83.08 5.46q10.96 8.21 14.06 19.48.38 1.38-.05 1.5-.38.1-.86-1.24Q92.5 14.75 82.35 7q-3.96-3.04-7.53-4.5-3.44-1.38-4.73-.6-.99.6 2.06 8.85 3.96 10.75 4.48 13.12l-1.9-2.03-4.38-11.7Q67.17 1.65 69.1.44q1.68-1.03 5.6.34 3.99 1.47 8.38 4.7"/><path fill="#0f141b" d="M108.15 31.7q-1.51-6.54-4.4-11.32-2.83-4.64-4.85-4.3-1.07.17-1.8 2.71-.65 2.37-.65 5.42l-1.2-2.97q.12-2.66.98-4.64.95-2.15 2.33-2.37 3.05-.51 6.4 5.16 3.19 5.42 4.17 12.13.22 1.33-.21 1.38-.43.08-.77-1.2m-7.96 28.72q14.28 11 18.7 23.52.3.9 1.08 1.29l2.24.38q1.76.05 2.1 1.08.3.9-.73 1.72-1.8 1.42-4.77 2.7-1.85.82-3.57-.34-8.13-5.8-23.13-3.3-15.83 2.62-28.94 13.1-.95.78-1.3.44-.3-.35.65-1.16 12.73-10.93 29.24-13.68 15.7-2.62 24.21 3.4 1.12.77 2.32.34l2.54-1.03 1.85-1.2.39-.6-.86-.26-2.67-.48q-1.38-.51-1.85-1.89-4.26-11.7-17.93-22.44-5.68-4.43-10.36-6.45-4.86-2.07-6.58-.65-1.76 1.46 1.07 7.48 3.06 6.41 8.13 9.6 1.38.85 1.12 1.28-.22.39-1.6-.43-5.97-3.44-9.28-10.36-3.18-6.67-.65-8.86 2.2-1.85 7.49.17 5.07 1.94 11.09 6.63"/><path fill="#0f141b" d="M82.95 61.75q-8.56-5.55-18.8-8.09-9.88-2.49-11.43.18-1.08 1.76 2.28 6.83 3.44 5.25 8.3 8.47 1.03.74.77 1.12T62.78 70q-5.29-3.22-9.12-8.81-3.87-5.68-2.45-8.3 1.77-3.27 12.22-.95 10.36 2.33 18.92 7.74zm-5.59 18.32q-3.87-3.23-8.39-6.07-1.03-.64-.77-1.03t1.29.22q5.03 2.96 8.47 6.15 1.03.94.73 1.29-.3.34-1.33-.56"/><path fill="#0f141b" d="M27.26 61.53q.86-4.08 9.42-4.6 9.07-.51 17.93 3.92l1.33 2.4q-8.64-4.77-17.8-4.68-8.38.13-9.07 3.44-.6 2.8 4.04 7.44 4.9 4.9 13.03 8.98 1.03.52.77.9l-1.2-.04q-8.51-3.7-13.85-8.77-5.41-5.16-4.6-8.99"/><path fill="#0f141b" d="M17.37 82.17q3.01 4.13 7.61 6.71l-1.85.04q-4.3-2.23-7.35-6.53-2.97-4.13-2.54-6.84.56-3.4 7.57-4.9 6.84-1.5 13.03.13l1.8 2.02q-5.84-2.28-13.2-1.03-7.09 1.2-7.52 4.04-.34 2.5 2.45 6.36"/><path fill="#0f141b" d="M26.83 89.01q-.04.43-1.33.39-6.45-.09-11.1 1.85-4.55 1.85-4.81 4.51-.22 2.62 3.61 5.8 4 3.4 9.9 5l-2.03.38q-5.63-1.46-9.55-4.77-3.95-3.36-3.6-6.58.34-3.35 5.71-5.6 5.5-2.27 11.91-1.54 1.3.13 1.3.56"/><path fill="#0f141b" d="M38.7 108.88q1.08.56 1.9 1.85.85 1.29.9 2.53.12 3.49-4.26 6.32-4.77 3.06-12.43 3.66-6.75.51-11.7-1.3-5.41-1.93-5.71-5.84-.3-3.65 4.77-6.7 5.07-3.1 11.7-3.28 1.29-.04 1.33.4.04.42-1.25.55-6.5.65-10.96 3.57-4.17 2.7-3.92 5.33.26 3.1 4.65 4.65 4.3 1.54 11.05 1.07 6.92-.52 11.3-3.35 3.83-2.5 3.8-5.08-.05-1.46-.91-2.58t-2.37-1.72z"/><path fill="#0f141b" d="M47.04 98.81q1.42 1.25 1.94 2.89.56 1.63.08 3.05-1.07 3.4-7.18 4.51-5.2.9-10.45-.08-1.2-.22-1.11-.65.04-.43 1.24-.3l10.62-.47q4.65-1.16 5.42-3.57.47-1.46-.6-3.31-1.12-1.94-3.27-3.05z"/><path fill="#0f141b" d="M64.16 102.99q-5.03-.1-10.54-1.34-5.89-1.33-10.28-3.61-1.24-.64-1.07-1.03l1.46.13q4.6 1.98 10.15 3.18 5.46 1.2 10.23 1.29zm-9.03-18.11q1.85 1.25 5.67 2.75 1.08.48.9.86l-1.28.05q-2.76-.86-5.81-2.84-.95-.6-.69-1.03.26-.39 1.2.21"/><path fill="#0f141b" d="M65.15 98.6q-.78 3.57.21 6.7 1.12 3.49 4.17 5 1.55.77 1.55 1.72.04.94-1.55 1.8-5.12 2.8-9.54.35-4.6-2.5-4.56-8.82.04-1.42.43-1.42.43 0 .56 1.38.43 5.5 4.17 7.6 3.65 2.07 8.25-.38 1.04-.51 0-1.07-3.22-1.55-4.64-5.08-1.2-3.1-.73-6.8z"/></svg>