<svg xmlns="http://www.w3.org/2000/svg" width="288" height="347" viewBox="-1.32 0 288.27 346.71"><path fill="#a688bd" d="M168.47 135.2q-3.36-2.26-6.04-.9l2.51-4.12q7.35 4.54 11.14 13.8-4-6.37-7.61-8.79"/><path fill="#28343b" d="M94.1 72.16q-4 0-12.03 7.57-8.89 8.29-10.67 16.02l-4 1.2-.85-2.43q.22-2.34 1.28-6.16 1.06-3.87 2.04-5.87 3.74-3.27 13.43-9.22 9.26-5.7 13.47-7.48h3.02q11.64 6.46 20.7 13 13.98 10.16 14.02 15.56-7.73-1.28-12.54-.98-.8-4.38-10.28-12.45-10.33-8.76-17.6-8.76"/><path fill="#a688bd" d="M144.97 62.05q7.3 2.89 19.59 16.2 12.32 13.3 18.53 24.98l-8.42 8.93-1.14-.85-5.32.08q-2.42-3.74-5.22-6.71-3.06-3.23-5.36-4.21-3.1-1.32-9.4-3.06-7.17-1.96-13.72-3.06-.04-5.4-14.02-15.56-9.06-6.54-20.7-13l23.88-.77 17.34-.93q3.2-.38 3.96-2.04m-.51 105.48q-1.92-6.12-1.87-11.17 9.13-7.53 15.8-16.37-2.37 7.23-.67 16.8 1.82 10.32 7.43 15.84 3.87 3.79 7.27 3.79 3.36 0 5.23-3.66-1.53 5.57-4.34 9.44-2.93 3.99-6.8 5.44-9 3.31-16.87-8.89-3.27-5.01-5.18-11.22"/><path fill="#fabe00" d="M168.47 63.75q0-4.04.13-4.46l8.28.38 8.89.55q6.24 7.95 12.02 17.34 5.06 8.12 7.19 13-7.61-8.92-16.83-15.6-8.59-6.2-19.68-11.21"/><path fill="#a688bd" d="m178.97 165.83 11.68 1.75q7.65.72 15.77.38l1.15-1.4 6.63 1.74q-2.3 2.42-3.57 3.06-5.95 1.27-16.24.42-8.41-.72-15.93-2.42z"/><path fill="#e7d5e8" d="M157.67 156.95q-1.74-9.48.73-16.96l4.03-5.7q3.4-1.73 8.5 3.11 5.4 5.14 7.19 13.13-9.57 1.2-8.93 4.04.68 2.85 9.95 3.4.76 13.1-3.36 17.17-4.04 3.95-10.63-2.5-5.6-5.53-7.48-15.69"/><path fill="#3e4e57" d="M166.56 52.91q2.08.51 4.16 1.74 1.96 1.15 2.85 2.21.55.6.64 2.55l-1.66-.08z"/><path fill="#a688bd" d="m232.39 168.09-3.74-14.37-4.21-14.66q-1.44-4.38 3.1-1.02 6.08 4.59 13.39 13.39 8.16 9.9 15.13 21.93 17.64 30.55 20.23 61.75.17 2.38-1.15 5.1-1.27 2.59-3.06 3.78.81-5.14.09-8.03-1.24-5.02-9.14-10.07-3.1-2-5.74-2.98-2.68-.98-3.31-.34-.77.34-1.7 9.9-.94 9.65-.22 11.65l1.36 4.42q-2.63-2.47-3.52-3.74-1.02-1.4-1.24-3.23-.68-5.27-5.22-26.05-4.34-19.64-9.35-40.55.55.26 1.48.85-.63-3.65-3.18-7.73M85.38 254.36q2.08 2.63 4.76.55 2.25-1.74 7.57-5.1 6.67 8.76 12.07 28.05 5.86 20.83 4.46 35.66-7.78-.77-19.34-6.84-9.82-5.19-15.98-10.5l-5.27 7.01-2.12.38q5.86-7.94 5.9-30.34.05-20.83-4.2-31.62 8.16 7.73 12.15 12.75"/><path fill="#a688bd" d="M133.66 216.07q-2.34 4.25-3.57 7.6-1.66 4.51-1.91 8.72-4.17 1.48-20.19 11.17-14.66 8.89-17.85 11.35-2.68 2.08-4.76-.55-3.27-4.17-8.71-9.56-6.08-6.08-10.2-8.93-.34-.21-1.15-.3-.9-.04-1.19.3-2.6 2.68-5.9 7.48-4.04 5.87-5.79 10.24-2.33-.5 1.4-8.54 4-8.54 10.46-14.57 7.7-4.9 29.75-9.31 21.12-4.25 39.61-5.1"/><path fill="#a688bd" d="m73.23 241.61 1.44 4.33q-4.67 1.5-10.7 3.57-7.53 2.6-11.36 4.13l-.17-.05q1.75-4.37 5.78-10.24 3.32-4.8 5.91-7.48.3-.34 1.2-.3.8.09 1.14.3 2.42 1.66 6.76 5.74"/><path fill="#e7d5e8" d="M78.92 296.18q3.57 3.1 9.7 6.8 6.54 3.95 12.83 6.71-4.08 2.09-21.47 7.1-17.25 4.97-20.78 5.14.85-1.57 19.72-25.75"/><path fill="#a688bd" d="M168.6 154.78q-1.24-6.5.93-7.05 3.27-.8 12.2 1.36 6.03 1.49 17.76 5.27l1.75 9.05q-7.53-1.49-17.09-1.57-10.41-.04-12.03-.3-2.25-.34-3.52-6.76"/><path fill="#28343b" d="M168.43 83.09q-12.63-14.96-20.96-19.8 8 3.14 20.57 9.34 14.7 7.23 17.51 10.12l.9 7.22q.76 6.33.63 8.71l-4 4.55q-3.82-7.27-14.65-20.14"/><path fill="#a688bd" d="M164 70.89q-16.06-7.74-19.03-8.84.97-2.08-1.02-7.06 13.17 3.66 25.03 9.14 13.6 6.25 23.12 13.9 12.32 9.9 20.4 22.31 10.24 15.64 16.49 38.85-3.1-2.55-4.46-2.3-1.28.21-.09 2.17.85 1.4 3.66 11.94l-5.06 6.84-3.87-2.97q-.93-2.47-17.25-16.28l-24.82-20.4q-2.6-2.12-2.9-3.87-.2-1.48 1.15-2.97l11.73-12.67q.13-2.38-.63-8.7l-.9-7.23q-2.63-2.72-21.54-11.86m37.19 191.93q.38-6.38 1.27-7.19 1.27-1.1 13.09 2.43 10.92 3.23 17.68 6.2.55 0 1.61-1.23 14.66 13.09 30.1 31.92 19.71 24.1 21.11 36-5.35-3.92-20.7-11.23-16.95-8.11-22.52-8.41-.64.38-5.95 9.05l-5.56 9.18q-.81 1.2-1.53.77-.64-.39-.73-1.4-1.65-24.06-8.03-39.49-6.63-16.02-19.85-26.6m-70.25-71.36q-4.67-1.06-9.52-5.1-6-5.1-8.88-12.62 16.49-6.2 30.05-17.38-.09 7.3 3.9 16.44 4.43 10.2 10.63 13.86-3.57 3.06-11.43 4.63-8.25 1.66-14.75.17"/><path fill="#a688bd" d="M168.6 59.29q-.13.42-.13 4.46-11.14-5.06-24.52-8.76-3.4-8.5-8.38-17.38-5.65-10.24-8.92-12.54 8.41 3.32 25.33 16.28 15.64 12.03 20.57 17.98zm-10.97 41.18q4.04 1.74 8.29 7.35 3.44 4.6 5.23 9.05-4.08 11.22-12.33 22.27-7.4 9.95-16.23 17.22-15.26 12.58-34.22 18.65-13.8 4.42-25.37 4.42-9.65 0-20.06-6.97-10.8-7.18-14.36-16.7 3.27 5.36 6.92 7.4 2.47 4.46 10.33 8.7 8.16 4.43 14.8 4.43 10.79 0 21.96-2.9 11.22-2.92 18.87-7.73 6.2-1.74 11.18-4.42 5.06-2.72 6.16-4.97 2.09-4.3 3.4-13.77 1.4-10.41-.17-14.83-6.33 2.25-16.4 10.7-8.97 7.53-10.46 10.38-1.48 2.8-3.4 9.18-1.74 5.82-2.16 8.84-8.63 2.42-17.47 3.87-8.5 1.36-14.5 1.36-2.97 0-10.02-2.98-7.1-3.02-9.95-5.48.47-6.8-2.89-17.85-3.57-11.73-7.95-15.47-1.65 1.83-2.5 4.8-.94 3.36-.56 7.31-2.38-7.01-1.53-19.17.43-5.6 4.08-12.28 2.55-4.67 5.23-7.6 1.7-.9 10.37-4.13 8.08-3.02 9.48-3.4-1.96 8.33 2.12 19.9 3.83 10.7 8.5 13.8 3.1-.25 9.01-3.65 6.04-3.44 12.24-8.54 15.47-12.71 18.7-23.89 5.27-.34 16.96 1.91 12.11 2.34 18.7 5.19m-24.99 141.99q-4.72-6.67-4.46-10.07.38-6.2 5.01-15.26l5.95-11.77q1.24-3.78.81-7.27-.42-3.44-2.38-6 5.4.05 10.37-1.14 5.9-1.44 9.18-4.3l1.36.69q.09 8.37 4.08 11.47 3.32 2.64 12.88 3.57 1.27.34 2.89 3.96l2.12 5.56q-4.42-2.84-8.41-5.27-2.64-1.61-3.61-1.27-.9.3-.51 2.38 1.19 6.37 4.12 15.64-3.19 7.01-12.62 15.72-9.78 8.97-18.15 12.16-4.04-2.21-8.63-8.8"/><path fill="#a688bd" d="M87.46 184.24q.22-.26 2.85-2.43l4-3.31 5.1-.94q2.63 4.34 5.78 7.61-13.65.68-17.73-.93m-7.86-5.1q-2.85 2.2-6.16 5.52-3.49 3.49-4.34 5.06l4.64-.21q-7.14 4.8-23.6 21.67-7.13 7.27-25.53 26.99-.85.93-3.1 1.36l-4.13-.26 1.49-2.04q.85-3.36 0-9.39-.9-5.9-2.6-8.88-6.33 1.66-10.2 7.22-.72-5.22 5.45-12.83 5.73-7.14 16.02-14.66 10.2-7.48 21.8-13.18 12.24-6 22.78-8.33 3.78 1.45 7.48 1.96"/><path fill="#a688bd" d="m86.06 179.18 8.25-.68-4 3.31q-2.63 2.17-2.85 2.43 3.57 1.4 11.78 1.23-4.04 1.06-15.9 2.72l-14.24 1.53q.85-1.57 4.34-5.06 3.31-3.31 6.16-5.52 1.45.25 6.46.04m26.48-5.44q1.95 5.1 5.65 9.48 4.2 4.93 9.3 7.14-1.35 2.59-4.58 3.14-3.19.55-7.23-.98-9.39-3.65-16.27-14.96 6.58-1.4 13.13-3.82"/><path fill="#fff" d="M55.5 163.16q1.53.89 1.92.68l.25-.3q2.85 2.46 9.95 5.48Q74.67 172 77.65 172q5.99 0 14.49-1.36 8.84-1.45 17.47-3.87l-.05.6q5.06.16 11.9-1.7-7.65 4.8-18.87 7.73-11.17 2.89-21.97 2.89-6.63 0-14.79-4.42-7.86-4.25-10.33-8.71"/><path fill="#e7d5e8" d="m233.24 326.65 5.82-9.69q3.14-5.31 3.78-5.65 3.1.17 13.73 4.55 10.8 4.37 20.06 9.35l-5.44 10.15q-4.38 7.7-6.67 10.8-3.79-1.91-16.15-9.82zM131.4 247.56q-3.43-7.74-3.26-14.11 4.84 13.26 13.13 17.8 8.37-3.18 18.15-12.15 9.43-8.71 12.62-15.72 2.63 8.5 6.54 18.82-5.01 8.72-15.85 16.88-9.14 6.84-14.5 8.16-.71-.3-4.24-2.6l-4.63-3.27q-5.4-8.16-7.95-13.81"/><path fill="#a688bd" d="M96.77 65.79q-4.2 1.78-13.47 7.48-9.7 5.95-13.43 9.22-.98 2-2.04 5.87-1.06 3.82-1.28 6.16l.85 2.42-5.48 1.91-1.27-2.25q-.6-1.27-.51-2.25.08-1.06 2.63-8.03l3.15-8.2q1.57-2.13 10.4-8.12 6.64-4.47 13.7-8.8l4.2 4.5zm88.57 193.29q-.47 9.73-3.61 20.31-3.02 9.99-6.8 15.64-10.12-5.23-18.66-13.26-8.84-8.29-16.91-20.4 2.12 2.04 4.88 3.78 2.3 1.45 4 2.09 5.35-1.32 14.5-8.16 10.83-8.16 15.84-16.88 3.23 8.72 6.76 16.88"/><path fill="#a688bd" d="M82.07 79.73q8.03-7.57 12.02-7.57 7.61 0 18.58 9.95 4.2 3.82 6.97 7.44 2.72 3.57 2.3 4.63-5.1 12.96-21.73 25.54-6.16 4.68-11.73 7.6-5.22 2.73-6.46 2.13-1.23-.6-3.4-3.82-2.38-3.61-4.29-8.16-5.14-12.24-2.93-21.72 1.78-7.73 10.67-16.02"/><path fill="#e7d5e8" d="M138.46 43.01q7.78 14.75 6.68 18.57-.26.98-1.02 1.53-1.02.72-3.1.98l-23.98 1.27q-22.14.94-22.82.34L61.54 30.68q-.6-4.46 4.55-15.68Q71.49 3.1 76.33.72q8.46 1.02 29.5 12.28 17.08 9.14 21.84 12.84 3.61 3.53 10.8 17.17"/><path fill="#e95477" d="M142.03 127.67q2.26 6.29 1.45 14.58-.77 8.11-4.17 15.08-2.38 4.76-13.47 7.78-9.14 2.47-16.28 2.25.26-4.88 1.58-9.22 1.27-4.2 4.03-9.4 2.9-5.47 9.65-11.17 7.82-6.59 17.21-9.9"/><path fill="#e7d5e8" d="M16.28 218.96q1.7 2.97 2.59 8.88.85 6.03 0 9.4l-6.84 7.85-9.65 10.93q-3.44-12.24.38-23.2 4-11.35 13.52-13.86"/><path fill="#a688bd" d="M167.92 207.74q-.39-2.08.5-2.38.98-.34 3.62 1.27 15.6 9.52 27.33 18.45 23.16 17.68 36.97 36.08l-1.53 1.74q-1.28 1.36-1.57 1.36-6.76-2.97-17.68-6.2-11.82-3.53-13.1-2.43-.93.81-2.5 12.54l-1.57 12.8q-.26 1.23-.68 1.9-.55.94-1.02.1-7.86-13.44-17.13-37.75-9.05-23.84-11.64-37.48"/><path fill="#e7d5e8" d="M252.06 244.12q-.72-2 .22-11.65.93-9.56 1.7-9.9.63-.64 3.31.34 2.64.98 5.74 2.98 7.9 5.05 9.14 10.07 1.53 5.99-2.51 16.78-3.57 9.52-8.67 16.37-1.1-1.45-4.93-12.84z"/><path fill="#a688bd" d="m201.49 164.98-3.82-21.67q11.98 4.76 21.76 11.86 14.15 10.15 16.14 20.65-4.07-2.46-16.65-6.12z"/><path fill="#e95477" d="M46.88 130.18q5.86 6.03 9.1 19.33 2.88 11.73 1.44 14.33-4.25-1.5-7.02-4.98-2.04-2.59-4.46-8.2-2.59-5.95-2.34-11.6.3-5.61 3.28-8.88"/><path fill="#3e4e57" d="M76.63 6.76q1.44 0 6.03 6.84 4.55 6.84 3.87 8.03-.55.9-9.4 2.34-8.88 1.49-9.43.76-.6-.85 3.57-9.39 4.12-8.58 5.36-8.58m39.77 115.85q1.54-1.19 3.66-1.91 2.5-.85 3.53 0 1.1.98.17 3.02-.85 1.87-2.64 3.18-2 1.5-4.42 2l-2.89-.13q-1.1-.93-.2-2.8.8-1.79 2.8-3.36m-58.78-.76q1.1-.64 2.63.72 1.28 1.15 2.26 3.1.93 1.91.97 3.87.05 2.17-1.19 2.72-1.27.6-2.84-.55-1.53-1.1-2.3-3.1-.8-2.09-.76-4 .08-2.08 1.23-2.76"/><path fill="#28343b" d="m173.53 111.3 1.14.86q-.68.72-.17 2.59.51 1.83 1.5 2.6l22.3 17.63q13.77 11.43 20.87 19.89-9.6-6.84-21.5-11.56.42 3.7 1.82 11.05l-10.62-3.57q-7.01-2.3-11.18-2.6-1.36-6.07-4.33-10.32-3.1-4.42-8.42-7.7 3.7-6.45 6.2-13.3-.89-2.2-2.93-5.48zM94.1 72.16q-4 0-12.03 7.57-8.89 8.29-10.67 16.02l-4 1.2-.85-2.43q.22-2.34 1.28-6.16 1.06-3.87 2.04-5.87 3.74-3.27 13.43-9.22 9.26-5.7 13.47-7.48h3.02q11.64 6.46 20.7 13 13.98 10.16 14.02 15.56-7.73-1.28-12.54-.98-.8-4.38-10.28-12.45-10.33-8.76-17.6-8.76"/><path fill="#9075a4" d="M144.97 62.05q7.3 2.89 19.59 16.2 12.32 13.3 18.53 24.98l-8.42 8.93-1.14-.85-5.32.08q-2.42-3.74-5.22-6.71-3.06-3.23-5.36-4.21-3.1-1.32-9.4-3.06-7.17-1.96-13.72-3.06-.04-5.4-14.02-15.56-9.06-6.54-20.7-13l23.33-1.2 16.75-1.3q3.01-.4 5.1-1.24m29.28 114.03q2.08-.77 3.4-3.32-1.53 5.57-4.34 9.44-2.93 3.99-6.8 5.44-3.86 1.44-7.82-.3-3.52-1.53-6.8-5.48 5.91.76 10.25-.77 4.12-1.49 7.43-5.31 2.55 1.1 4.68.3m-17.77-33.66q-2.72 12.4-12.92 21.84-.97-4.3-.97-7.9 7.82-6.46 13.9-13.94"/><path fill="#d8a500" d="M195.12 80.37q-5.44-4.98-10.63-8.46.8-7.95.85-11.77 14.4 18.53 19.64 30.43-4.51-5.32-9.86-10.2"/><path fill="#c8b8c9" d="M176.46 174.3q-2.6 3.56-6.97 1.52 7.3-6.42 9.73-13.85-.04 8.62-2.76 12.32"/><path fill="#9075a4" d="M265.24 204q-9.9-30.39-10.07-33.24 18.53 34.56 21.12 64.35.17 2.38-1.15 5.1-1.27 2.59-3.06 3.78.81-5.14.09-8.03-.68-2.85-4-6.08 5.57 2.46-2.93-25.88M93.63 260.27q-8.67-5.19-17.51-6.5-1.15-7.83-2.9-12.16 8.17 7.73 12.16 12.75 2.08 2.63 4.76.55 2.25-1.74 7.57-5.1 2.63 3.44 5.44 9.56 2.72 6 5.14 13.48-6.33-7.53-14.66-12.58"/><path fill="#9075a4" d="M77.82 243.22q9.13 6.93 12.02 5.61l19.13-10.96q11.22-6 19.55-8.33-.3 1.57-.34 2.85-4.17 1.48-20.19 11.17-14.66 8.89-17.85 11.35-2.68 2.08-4.76-.55-1.87-2.34-8.75-9.01-7.57-7.27-11.35-10.03 2.5.25 12.54 7.9"/><path fill="#9075a4" d="m73.23 241.61 1.44 4.33q-4.67 1.5-10.7 3.57-7.53 2.6-11.36 4.13l-.17-.05q1.75-4.37 5.78-10.24 3.32-4.8 5.91-7.48.3-.34 1.2-.3.8.09 1.14.3 2.42 1.66 6.76 5.74"/><path fill="#c8b8c9" d="M78.92 296.18q3.57 3.1 9.7 6.8 6.54 3.95 12.83 6.71-1.28.68-5.32 2.09-13.17-8.59-24.52-6.2z"/><path fill="#9075a4" d="M170.3 159.67q-1.24-1.95-1.5-3.27 12.16-1.23 31.84 4.55l.43 2.3q-4.9-.99-14.33-1.28-4.25-.17-14.36-.22-.77 0-2.08-2.08"/><path fill="#28343b" d="M168.43 83.09q-12.63-14.96-20.96-19.8 8 3.14 20.57 9.34 14.7 7.23 17.51 10.12l.9 7.22q.76 6.33.63 8.71l-4 4.55q-3.82-7.27-14.65-20.14m10.54 82.74.25-2.08-.04-2.17 10.88.6 11.22.93.21 1.87 6.08 1.58-1.15 1.4q-8.12.34-15.77-.38z"/><path fill="#9075a4" d="M174.93 116.7q-.9-.68-.9-1.14 0-.43.81-.09 8.08 3.74 17.94 11.35 13.17 10.2 21.12 21.72-6.59-6.68-20.61-17.64zm26.27 146.12q.38-6.38 1.27-7.19 1.06-.89 16.66 3.36 15.55 4.25 15.72 4.04l8.97 8.58q-7.35-2.93-15.9-2.29-8.54.68-15.68 4.72-4.54-6-11.05-11.22m-58.6-106.46q0 3.48 1.02 7.82-6 5.56-13.6 9.1-7.65 3.48-15.69 4.37l-1.78-3.91q16.49-6.2 30.05-17.38m-100.35-33.2q.26-3.52 3.02-9.98 3.06-7.27 5.95-9.35-2.5 4.59-3.74 12.58-1.19 7.56-.64 13.8-1.57 1.75-2.38 4.73-.85 3.1-.68 6.97-2.38-7.06-1.53-18.75m116.88 69.96q-7.1 8.92-19.68 11.26.98-3.53.47-6.71-.47-3.2-2.34-5.57 5.4.04 10.37-1.15 5.9-1.44 9.18-4.3l1.36.69q.09 3.61.64 5.78m-60.48-7.35q-5.65.2-9.9-1.4 6.59 0 13.47-2.68l2.98 3.48z"/><path fill="#9075a4" d="M88.27 184.5q3.7 1.14 10.97.97-4.72 1.23-14.2 2.63-10.88 1.58-16.15 1.36l10.2-2.63zm24.27-10.76 1.06 2.42q-6.12 2.6-14.15 1.53l-.04-.13q6.58-1.4 13.13-3.82m11.18 14.49q1.82 1.23 3.78 2.13-1.83 3.4-6.59 3.27-4.89-.13-10.33-3.87 4.21 1.57 8.16 1.15 3.91-.47 4.98-2.68"/><path fill="#c8b8c9" d="m238.93 330.3-5.7-3.65 5.83-9.69q3.14-5.31 3.78-5.65 3.1.17 13.73 4.55 10.8 4.37 20.06 9.35l-1.45 2.8q-8.8-5.6-19.2-5.48-11.48.08-17.05 7.78"/><path fill="#9075a4" d="M185.34 259.08q-.47 9.73-3.61 20.31-3.02 9.99-6.8 15.64-7.44-3.87-16.7-11.77-9.1-7.78-15.6-15.64 2.63 2.46 5.57 4.55 3.01 2.16 4.2 2.33 9.48-.8 17.47-7.14 8-6.29 12.28-16.32zM73.35 115.05q6.55 9.69 23.08.89 10.75-5.74 24.31-18.4-7.86 13.09-22.86 23.88-5.57 4-10.37 6.38-4.42 2.16-5.49 1.65-1.4-.68-3.9-4.63-2.81-4.42-4.77-9.77"/><path fill="#c8b8c9" d="M145.14 61.58q-.22.77-1.62 1.1l-3.65.6-23.38 1.66-22.27.76q-28.98-31.9-32.6-34.97l16.62-2.55 15.85-2.21q11.18 5.01 30.4 18.82 17.67 12.75 20.65 16.8"/><path fill="#ca4768" d="M143.14 138.08q-.26 6.55-1.02 10.92-.85 4.68-2.42 7.9-2.04 4.13-11.1 7.4-9.35 3.36-18.48 2.8 16.57-4.16 24.4-12.57 4.96-5.4 8.62-16.45"/><path fill="#c8b8c9" d="M.85 245.99q11.05-3.96 18.4-13.56.09 3.1-.38 4.8l-6.84 7.86-9.65 10.93q-1.4-4.98-1.53-10.03m265.96 2.25q4-6.25 5.02-13.35l.34 1.07q1.53 5.99-2.51 16.78-3.57 9.52-8.67 16.37-.94-1.28-4.2-10.71 6.03-4.04 10.02-10.16"/><path fill="#9075a4" d="m201.49 164.98-1.02-5.65q18.15 2.68 34.72 14.15l.38 2.34q-4.07-2.46-16.65-6.12z"/><path fill="#ca4768" d="M43.82 138.93q1.61 7.44 5.48 14.37 3.7 6.75 8.12 10.54-6.8-2.43-11.48-13.18-1.1-2.55-1.44-3.74-1.02-3.65-.68-7.99"/><path fill="#9075a4" d="M19.72 235.36q7.1-4.54 27.24-24.6 17.68-17.68 23.76-19.43-3.57 2.26-19.25 18.75l-23.2 24.94q-2.22 2.38-4.81 3.4-2.34.94-5.44.94-.13-1.15 1.7-4M162.18 134.8Q149.9 154.96 126 167.54q-21.76 11.48-43.94 12.33-3.4-.13-6.42-1.02-1.57-.43-5.48-1.96 13.8 1.58 25.5-.76 12.07-2.42 23.67-9.3 7.99-1.45 12.88-3.96 5.99-3.06 8.67-8.29 5.4-4.04 10.5-8.8 4.84-4.54 10.79-10.96m40.3 120.81q-.94.81-2.64 13.14l-1.7 13.34q-.21.85-.68 1.1-.46.3-.76-.25-.47-.64.72-13.9 1.23-13.98 3.23-15.68 1.15-.98 13.26 1.74 11.39 2.6 15.85 4.42 3.49 1.4-8.11-11.64-10.37-11.6-20.53-21.46 21.93 17 35.23 34.72l-1.53 1.74q-1.28 1.36-1.57 1.36-6.76-2.97-17.68-6.2-11.82-3.53-13.1-2.43"/><path fill="#f4b2ba" d="M116.66 155.85q-1.02-.56-1.19-1.92-.17-1.31.55-2.67.64-1.15 1.7-1.75l2.55-.08q.98.6 1.2 1.91.16 1.36-.56 2.68t-1.87 1.87zm-66.34-7.87q-.21-1.31.13-2.42.34-1.06 1.06-1.27.9-.22 1.57.8.51.81.72 2 .22 1.36-.12 2.42-.34 1.07-1.07 1.24-.8.2-1.44-.64-.6-.8-.85-2.13"/><path fill="#0f141b" d="M172.38 117.17q-10.63 29.03-37.83 46.8-24.82 16.19-51.55 16.19-11.77-.39-22.23-8.12-10.11-7.52-13.6-17.68l1.5 1.61 1.73 2.09q5.27 9.1 14.41 14.87 9.1 5.78 18.2 5.78 12.02 0 25.07-4.2 13.21-4.3 25.2-12.2 26.9-17.77 37.1-45.4-1.78-4.33-5.78-9.3-4.16-5.19-7.22-6.46-5.44-2.34-15.81-4.72-12.37-2.85-19.26-2.34-.3.05-.38-.68-.04-.72.26-.76 7.1-.55 19.76 2.12 10.96 2.3 16.2 4.55 3.35 1.45 7.98 7.18 4.38 5.49 6.25 10.12zM48.4 113.13q-1.27 5.49-1.18 12.54.04 2.98-.43 2.9-.47-.1-.55-2.81-.26-7.23 1.36-12.71.47-1.53.8-1.57.35-.05 0 1.65"/><path fill="#0f141b" d="M94.1 71.44q7.9 0 19.46 9.82 4.63 3.9 7.44 7.6 2.89 3.75 2.3 5.28-5.02 12.7-20.54 25.07-6.16 4.93-11.94 8.03-5.6 3.02-8.33 3.02-1.91 0-4.5-3.44-2.51-3.36-4.68-8.59-5.18-12.62-3.44-21.97 1.49-8.12 11.18-16.87 8.7-7.95 13.04-7.95m-11.94 9.14q-8.8 8.41-10.2 15.98-1.74 9.3 3.19 21.3 1.87 4.62 4.08 7.81 2.12 3.1 3.27 3.15 1.83.04 6.97-2.8 5.57-3.11 11.43-7.7 15.6-12.24 20.36-24.4.38-1.06-2.25-4.46-2.72-3.44-6.84-7.1-10.76-9.47-18.07-9.47-3.9 0-11.94 7.69m-5.1-10.24q-8.63 5.73-10.28 7.82-1.32 1.82-3.57 8.33-2.17 6.12-2.34 7.94-.09.85.55 2l1.15 1.96q.13.25-.51.5l-.8.13q-2.18-2.93-1.96-4.88.25-2.6 2.5-8.93 2.17-6.2 3.49-8.2.9-1.36 10.2-7.44l14.02-8.84q.26-.17.64.47t.13.76q-7.06 4.25-13.22 8.38m93.16 13.04q11.3 13.26 13.73 18.96.08.3-.68.8-.72.52-.8.26-2.64-6.33-15.3-21-14.29-16.48-22.5-19.71l1.37-.13q1.78.04 2.55.5 8.92 5.5 21.63 20.32"/><path fill="#0f141b" d="M144.33 61.7q.76-1.44-6.04-16.14-7.05-15.22-11.13-19.21-6.04-4.63-23.46-13.64Q84.02 2.46 76.46 1.44q-4.6 2.47-9.74 13.82-4.8 10.58-4.46 15.04 1.87 1.66 16.96 18.02l15.38 16.7 26.57-.8q22.52-1.28 23.16-2.51m26.69-2.55q-4.38-5.36-17.98-15.64-11.47-8.71-21.63-15.17 4.38 6.37 9.73 18.74 5.53 12.75 4.68 15.26-.73 2.12-26.18 3.4-25.04 1.23-25.97.46L78.03 49.43l-16.96-18.2-.25-.46q-.64-4.76 4.5-16.1Q70.8 2.62 76 .03l.4-.03q17.22 2.04 51.73 23.63 14.83 9.26 27.03 18.78 12.62 9.86 18.27 16.75l-1.06.17z"/><path fill="#0f141b" d="M165.4 51.72q5.79 1.79 8.68 4.63.8.77.8 2.85 0 .34-.72.34-.76 0-.76-.34l-.09-1.49-.2-.72q-1.96-2.17-5.36-2.89-.34-.04-1.5-1.27-1.14-1.2-.84-1.1"/><path fill="#0f141b" d="M168.17 58.7q.47-.35 9.05.16l8.63.64q.3 0 .47.25 6.54 8.33 12.92 18.7 5.23 8.46 6.93 12.37.17.34-1.07-.3-1.23-.63-1.53-1.23-2.72-5.31-7.05-12.32-5.57-8.93-11.14-16.07l-7.99-.55-8.11-.43h-.05l-.04 4.25-1.44-.93q0-3.57.12-4.17.09-.25.3-.38"/><path fill="#0f141b" d="M143.44 54.14q34.85 9.57 53.76 26.6 22.4 20.24 32.9 58.74l-.94-.12-1.06-.64q-9.23-33.96-29.16-53.64-19.93-19.63-54.82-29.2-.3-.04-.64-.93-.34-.85-.04-.8m69.7 114.23 1.7.34q-2.98 3.06-3.87 3.49-2.38 1.1-12.24.8-11.05-.38-20.32-2.5-.3-.09-.25-1.02t.34-.9q8.46 2 17.47 2.64 9.47.64 14.45-.6zm14.4-17.8q.17-.22.51.5.39.73.26.94l-4.6 6.16-1.14-.89zm-53.5-37.88q-2.04-.97-5.83-.46-.3.04-.3-.68t.3-.76q5.4-.3 6.76.8.21.22-.3.73zm-35.15 46.16q-4.5 5.44-16.79 8.2-4.72 1.07-8.63 1.2-3.82.12-4.59-.68-.3-.3-.17-2.47.17-2.63.98-5.78 2.47-9.22 9.35-17.25 6.63-7.74 15.17-12.07 6.5-3.36 8.04-2.77 1.14.43 1.87 4.04.76 3.7.6 8.5-.35 12.45-5.83 19.08m2.68-30.26q-.3-.2-2.9.9-3.14 1.36-6.54 3.57-10.11 6.46-16.32 16.02-2.6 3.95-4.42 10.5-1.7 6.03-1.02 7.05.34.43 4.17.04 4.25-.42 8.75-1.53 12.75-3.14 15.43-8.58 4.38-9.01 4.25-19.13-.04-3.44-.6-6.29-.46-2.33-.8-2.55m-72.93 29.71q5.52 3.23 7.6 3.23 8.38-1.06 17.98-4.76 9.56-3.7 17.55-8.97 2.55-1.7 1.83-.72-.76.98-3.4 2.68-8.07 5.27-16.66 8.58-8.67 3.32-17.21 4.38-2.5 0-7.65-2.93-5.31-3.06-9.35-6.93-1.36-1.36-1.62-2.17-.25-.85 1.15.47 4 3.74 9.78 7.14"/><path fill="#0f141b" d="M76.07 166.17q-.38-2.42-.46-4.03 0-.39.6-.39.54-.04.54.39l.17 3.86q.13 2.13-.25 1.87-.38-.2-.6-1.7"/><path fill="#0f141b" d="M56.52 163.24q2.64 4.04 9.82 8 7.86 4.33 14.28 4.33 9.56 0 19.68-2.34 9.99-2.38 17.6-6.33.42-.26 2.2-.39l1.4.05q-7.73 4.63-19 7.52Q91.17 177 80.63 177q-6.97 0-15.13-4.63-7.7-4.34-10.37-9.01-.17-.26.55-.3zm88.7-41.31q2.47-2.85 5.65-8.03 3.2-5.27 4.98-9.56.72-1.79 1.02-1.66t-.3 1.87q-1.66 4.89-4.97 10.24-3.02 4.85-5.66 7.48-.97.98-1.36.94-.34-.09.64-1.28m18.62-52.02q19.2 9.18 22.22 12.33 1.07 1.1 1.92 8.03.89 7.22-.3 8.88-2.04 2.76-11.99 13-.85.9-.76 2.3.08 1.36.98 2 16.4 12.7 23.97 18.91 17.59 14.5 20.4 19.55l-1.2-.04q-1.31-.34-1.57-.68-4.67-5.95-20.35-18.91l-21.8-17.47q-1.62-1.28-1.83-3.36-.17-2 1.06-3.36 8.2-9 11.39-13.04.8-2.51.13-8.59-.6-5.6-1.24-6.42-3.06-2.84-21.42-11.56l-18.7-8.5q-.3-.12-.04-.93.21-.85.47-.72zm42.24 97.33.77-1.02.8.08q.64.34.47.6l-1.19 1.53q-.93 1.02-10.11.6-10.12-.43-18.15-2.52-.3-.04-.17-.76.13-.68.42-.64 7.27 1.62 14.7 2.25 8.04.68 12.46-.12"/><path fill="#0f141b" d="M141.65 157.33q.04-.34.9-.63l.89-.05q-.26 5.78 3.1 14.37 3.87 9.9 9.6 14.2 4.9 3.6 10.12 1.74 5.78-2.09 9.1-10.12 2.71-6.59 3.05-14.83.05-.68.98-.55.98.12.98.46-.38 8.63-3.4 15.56-3.74 8.5-10.24 10.84-3.23 1.19-6.2.55-2.56-.55-5.24-2.51-6.07-4.5-10.24-14.4-3.65-8.72-3.4-14.63m23.04-26.47q-.13-.09.2-.73l.48-.55q4.97 3.1 8.45 8 3.23 4.54 4.85 10.23.08.22-.94.17-.97-.04-1.06-.25-3.44-11.52-11.98-16.87"/><path fill="#0f141b" d="M131.11 190.74q5.65 1.27 12.88.25 8.29-1.19 12.24-4.88.21-.17.72.34.47.55.26.72-4.5 4.2-12.67 5.57-7.3 1.19-13.81-.26-5.61-1.27-11.18-6.63-5.74-5.52-7.48-11.64-.04-.3.51-.73.6-.42.64-.12 1.83 6.41 7.65 11.64 5.18 4.63 10.24 5.74"/><path fill="#0f141b" d="M111.05 191.16q-7.35-4.71-11.98-13.09-.17-.25.63-.46l.9.04q2.93 6.2 9.81 11 6.68 4.64 11.56 4.43 3.49-.22 4.76-3.1.13-.3.81 0 .64.29.51.59-.8 1.83-2.5 2.97-1.75 1.2-3.87 1.28-4.55.25-10.63-3.66m19.21-25.5q-1.49 1.28-2.89 5.1-1.19 3.23-1.83 6.97l-.46.9q-.43.2-.9-.73l-2.84-2.42q-2.77-2-4.55-2.76-.26-.13.21-.51.43-.38.72-.3.94.43 3.4 2.3l3.53 2.89 1.57-5.74q1.1-3.53 2.04-4.63l1.2-.73q1.06-.55.8-.34"/><path fill="#0f141b" d="M130.18 184.24q4.08 4.16 8.5 5.95l1.14.68q.05.25-2.08-.47-4.16-1.45-8.37-5.61-3.61-3.57-4.8-6.42-.13-.3.34-.55.42-.3.55 0 1.23 2.89 4.72 6.42m37.69-48.58q-3.35-2.08-5.73-.34l.5-1.06.73-1.07q5.06-1.14 11.26 7.36.72.97 1.2 4.25-4.22-6.76-7.96-9.14m-10.71 22.61q-2.3-9.82.05-17.47l1.31-1.27 1.36-1.32q-3.18 6.46-1.44 17.34 1.78 11.18 7.22 16.53 8.63 8.54 12.33-2.85.13 3.57-.21 4.21-1.96 3.7-5.44 3.74-3.62 0-7.7-4.04-5.18-5.14-7.48-14.87m36.26-75.52q1.27 4.59 1.9 10.45.6 5.74 0 7.23-.8 2.04-5.22 6.37-4.33 4.3-9.73 8.37-1.45 1.1-1.62.68-.12-.38.9-1.4l9.6-9.14q4-4 4.72-5.52.6-1.66 0-7.31-.51-4.76-1.53-9.7-.38-1.82 0-1.9.42-.09.98 1.87m-47.35 65.32q6.89-6.89 14.37-16.53 3.48-4.47 3.52-3.91.05.6-2.76 4.33-8.16 10.97-14.36 16.66-1.62 1.45-1.92 1.15-.25-.3 1.15-1.7m53.21-45.65q7.35 5.66 13.52 13.77 5.27 6.89 10.2 16.32.93 1.75.46 1.87-.46.13-1.31-1.31-4.64-8.25-10.12-15.47-7.48-9.82-14.53-15-2-1.45-1.11-1.58.9-.13 2.89 1.4M183 119.08q8.89 5.36 18.7 14.7 9.18 8.8 16.15 18.16-4.76-3.87-5.48-4.76-7.14-8.38-14.28-15-8.88-8.25-16.79-12.76-2.33-1.36-1.74-1.74.55-.34 3.44 1.4M92.14 20.44q-2.76-6.12-7.6-11.94-4.9-5.87-8.42-7.23-.26-.08.3-.38.55-.3.76-.17 3.53 1.79 7.86 7.01 4.34 5.19 7.14 10.88 1.06 2.17 1.02 3.06-.08.94-1.06-1.23m48.36 37.23q-8.28-7.14-21.54-16.32-15.6-10.84-25.08-15.09L82.5 28.1l-16.02 2.6-2.8-.13q.04-.47 2.33-.81l15.81-2.55 12.28-1.83q2.9.21 19.85 11.6 17 11.44 25.76 19.04 1.78 1.53 2.12 2.34.38.8-1.32-.68M70.46 82.96q-1.19 1.87-2.2 5.44-1.11 3.7-.98 6.03l.72 2.3q.08.3-.6.5l-.76-.03-.77-2.47q-.5-1.53 1.02-7.05 1.45-5.32 2.3-6 3.44-3.01 12.32-8.33 8.08-4.84 13.1-7.18l2.54-.3 1.62.09q-2.6.64-13.3 7.01-10.97 6.5-15 9.99"/><path fill="#0f141b" d="m100.38 65.32 6.08 3.53q6.59 3.9 12.03 7.7 16.96 11.72 16.91 17.54 0 .3-.8.3-.85.04-.85-.25.04-4.25-12.2-13.48-9.95-7.43-22.57-14.49-.25-.17.47-.6.68-.42.93-.25m40.17 29.5q.08-3.1-10.46-15.73-1.32-1.57-.64-1.36.68.17 2.26 1.83 4.2 4.42 7.18 9.22 2.76 4.5 2.68 6.38l-.51.08q-.56-.17-.51-.42m-34.68 91.28-9.1.26q-5.57-.21-8.54-1.1-1.57-.47-1.62-.9-.04-.38 1.1-1.36l4.39-3.65q.2-.26 1.57-.43l1.15.05-5.95 4.97q2.84.8 8.92.8l6.8-.38q.3-.04.94.81.63.9.34.94"/><path fill="#0f141b" d="m86.1 189.2-15.8 1.24q-1.7-.04-1.92-.42-.17-.39.72-1.75 1.7-2.42 3.83-4.8 2.6-2.85 4.59-4.2.25-.18 1.83 0l1.27.25q-2.72 1.53-5.95 4.63-2.72 2.64-4.25 4.8 8.37-.25 25.76-3.57l2.76.17q2.17.3 1.87.39-5.14 1.9-14.7 3.27M72.5 177.95q-21.29 4.76-43.47 20.7-9.95 7.13-15.94 14.02-6.25 7.22-6.42 12.28l-.68.94q-.68.63-.72.38-.72-6.16 5.65-14.11 5.82-7.27 16.45-14.8 10.03-7.13 21.76-12.66 11.86-5.6 21.72-7.82.3-.08 1.1.47.85.51.55.6"/><path fill="#0f141b" d="M74.5 189.85q-7.18 4.42-24.35 22.48L26.9 237.44q-1.87 2-5.1 2.64l-4.76-.3q-.3-.17 0-.89.26-.77.51-.64 1.45.72 4.12-.04 2.51-.72 3.74-2 38.04-41.18 47.48-47.04l1.06.17q.8.34.55.5m-24.78-1.52q-7.3 3.48-16.7 12.1-8.63 7.91-13 14.33-1.07 1.62-1.45 1.36-.34-.3.68-1.83 4.38-6.67 12.58-14.32 9.14-8.46 16.87-12.03 1.79-.85 2.3-.68.55.17-1.28 1.07"/><path fill="#0f141b" d="M14.28 218.83q1.83-.72 2.3-.55 1.27.5 2.84 6.54 1.83 6.97.47 12.28-.26 1.02-4.72 6.17l-11 11.9q-1.58 1.61-2 1.57-.43-.04-.9-2.04-2.59-11.26.05-20.7 2.2-7.9 8.58-12.62 2.17-1.66 4.38-2.55m-3.7 3.95q-5.35 4.47-7.48 11.69-1.36 4.67-1.44 9.94-.09 5.23 1.1 10.16 2.93-2.76 8.93-9.6 6.33-7.23 6.54-8.25.94-4.29-.34-10.75-1.15-5.74-1.95-6.16-.26-.13-1.75.6-1.78.89-3.6 2.37m126.13-30.98q1.57.04 1.74.3 1.87 2.63 2.26 6.12.34 3.53-.9 7.35-.46 1.57-1.57 3.66l-2.25 4.12q-4.93 8.67-6.25 13.85-2.34 8.88 1.28 17.38 5.9 13.99 16.91 27.08 12.5 14.87 26.73 22.4 3.62-5.7 6.46-15.35 3.06-10.54 3.36-20.23 0-.34 1.02 1.06t.98 1.7q-.43 9.01-3.7 18.7-2.72 8.04-6.54 14.33-.73 1.14-1.2 1.27t-1.7-.55q-14.36-7.82-27.15-22.82-11.56-13.52-17.38-27.29-3.74-8.84-.9-18.19 1.32-4.37 6.8-14.06 3.02-5.32 3.74-7.53 1.28-3.95.47-7.56-.85-3.7-3.53-5.57zm42.38 13.6 2.63 6.97q.13.34-1.1-.47l-1.37-1.14q-2.55-7.19-4-7.7-9.51-.89-13.12-3.86-4.21-3.36-4.21-11.7 0-.29.98-.2.97.12.93.42-.55 7.23 3.27 10.33 3.45 2.76 12.75 3.7 1.58.12 3.23 3.65"/><path fill="#0f141b" d="M74.71 247.1Q53 254.35 52.2 254.22q-3.57-.76 1.53-11.3 5.01-10.5 10.28-13.77 7.78-4.93 30.05-9.14 20.49-3.82 39.1-4.63.3-.04.34.68t-.25.76q-17.98.77-38.72 4.93-21.93 4.38-29.8 9.31-5.35 3.91-9.73 12.96-4.12 8.46-2.46 8.84 4.08-1.61 11.35-4.12l10.24-3.36q.3-.08.6.77t0 .93"/><path fill="#0f141b" d="M109.22 244.29q-13.72 8.28-18.65 12.07-1.66 1.27-2.98.85-1.15-.39-2.76-2.43-2.98-3.74-9.14-9.77-6.42-6.33-9.65-8.54-.55-.34-.8-.34-.22 0-.6.25-2.17 2.21-4.97 6.04-3.36 4.54-5.27 8.41-1.1 2.25-1.32 1.62-.25-.68.8-2.9 2-4.24 5.1-8.54 2.43-3.4 4.64-5.65.72-.72 1.45-.76.76-.05 1.82.68 3.28 2.3 9.82 8.67 6.25 6.16 9.27 9.94 1.27 1.66 2 1.74.63.05 2.29-1.1 6.84-4.72 19.63-12.58 15.05-9.27 18.28-10.24.25-.09.13 1.14-.17 1.2-.34 1.28-4.25 1.44-18.75 10.16m58.74-39.57q1.32-.55 4.42 1.28 44.07 25.75 64.51 54.73 1.28 1.75.81 2.21l-3.06-.2q-9.1-2.52-19.3-4.51-10.83-2.13-12.15-1.45-.98.94-2.63 14.32-1.62 12.75-3.23 12.92-1.36.13-7.61-12.83-6.12-12.7-11.3-26.22-8.3-21.63-11.23-37.1-.46-2.64.77-3.15m.68 2.89q1.06 5.78 3.9 15.05 2.94 9.56 6.72 19.46 5.44 14.28 11.6 27.96 5.74 12.71 6.42 12.54.6-.17 2-13.13 1.4-13.3 2.72-14.4 1.19-1.03 17.3 2.63 15.98 3.65 16.15 3.44-21.12-27.92-63.8-53.93-2.16-1.28-2.71-1.23-.6.04-.3 1.61"/><path fill="#0f141b" d="M74.2 242.46q4.64 12.5 3.83 32.98-.85 20.31-6.2 28.86l-1.92 2.89q-.64-.81-.5-2.04.12-1.24.97-2.38 5.35-7.23 6.08-28.05.76-22.1-5.44-34.94l1.48 1.02q1.58 1.32 1.7 1.66"/><path fill="#0f141b" d="M79.69 316.2q13.85-3.96 19.55-6.2-5.7-2.47-11.18-6-5.19-3.32-9.01-6.76L60.69 321q5.48-.98 19-4.8m17.8-65.41q-.08-.17.6-.68.68-.55.76-.43 7.1 9.7 12.16 27.03 5.78 19.77 4.08 35.66-.17 1.4-.47 1.66l-1.61.04q-4.76-.55-10.59-2.8-5.65 2.59-21.12 6.58-13.3 3.4-20.65 4.64l-2.09-.17q-.3-.43.73-1.87 12.45-17.13 17.85-23.55 1.06-1.19 1.57-1.23.6-.09 1.95 1.02 6.34 5.01 15.69 9.77 10.45 5.32 17.25 6.25 1.15-14.7-4.55-34.8-5.18-18.28-11.56-27.12m186.24 79.43q-7.95-5.27-22.49-11.43-13.68-5.87-18.1-6.33-.43.42-5.23 8.11l-5.99 9.4q-1.1 1.61-2.55 1.27t-1.53-2q-1.74-25.33-7.56-39.3-5.74-13.86-19.21-25.64-.22-.17.04-1.36.25-1.14.47-.97 13.6 11.85 20.06 27.11 6.46 15.34 8.16 39.78.12 1.45.93.26l6.12-10q4.84-7.98 5.65-8.45 1.4-.8 16.83 5.61 16.53 6.89 25.71 13.05-2.59-12.2-23.37-37.19-18.19-21.93-29.7-30.68l1.4.3q1.52.38 1.74.55 14.57 12.36 29.4 30.17 18.66 22.4 21.9 36.25.55 2.43.08 2.68-.47.3-2.76-1.19"/><path fill="#0f141b" d="M277.44 326.06q-2.68 6.03-7.23 13.38-4.5 7.27-5.52 7.27-1.36 0-15-8.29-11.99-7.26-16.96-10.66-.17-.13.12-1.1.26-.99.47-.82 3.19 2.64 16.7 11.05 13.35 8.33 14.28 8.33.85 0 4.72-6.71 3.83-6.72 6.89-13.6.12-.3.89.3.76.55.64.85M143.78 203.19q.2-6.33-3.96-11.26-.17-.21.68-.13.85.09 1.02.34 3.79 5.1 3.23 11.73-.38 4.76-3.6 13.43-1.8 4.85-2.35 9.65-.38 3.02-.68 2.68-.3-.3-.08-3.1.04-1.2.6-3.75.72-3.44 1.78-6.37 3.14-8.5 3.36-13.22m-5.7 39.23q-.64-3.74-.13-3.4.56.38 1.28 4.25 3.23 17.3 18.7 39.05.17.26-1.06-.42l-1.62-1.23q-14.02-20.57-17.17-38.25"/><path fill="#0f141b" d="M178.84 242.97q-5.31 8.97-17.34 17.55-10.2 7.31-13.26 7.31-.98-.21-3.57-1.74-3.02-1.83-4.72-3.57-.47-.47-.76-1.66-.34-1.19-.13-.93 1.44 1.95 4.04 4.03 2.55 2.04 4.42 2.81 5.6-1.53 14.87-8.42 11-8.2 15.77-16.61.13-.22.47.42zm-50.44-11.3q1.4 5.1 5.05 10.66 3.9 5.95 7.86 8.25 7.06-2.8 16.07-10.37 10.62-8.97 14.23-17.38l.47.42.26.85q-4 8.54-14.8 17.47-9.17 7.6-16.06 10.24-1.32.51-5.48-3.95-4.93-5.27-7.6-12.33-.26-.76-.18-2.46.09-1.79.17-1.4m-49.17 59.45q.98-5.48 1.36-9.6.3-2.77.72-2.21.43.5.13 3.27l-.43 3.87-.55 3.7q-.55 2.76-1.1 3.18-.56.47-.13-2.2m-.17-43.74q2.25 9.26 2.72 20.14.17 2.94-.26 4-.42 1.06-.5-1.62-.39-11.34-3.36-23.2l.63.08zM238.68 298q3.06 5.96 4.67 13.1l-.47.72q-.5.5-.55.3-1.32-6.38-4.84-14.67-.81-1.9-.34-1.74.46.21 1.53 2.3m-9.05-16.2q-8.2-13.64-18.96-24.48-.17-.2.26-.59.46-.43.63-.26 9.9 10.03 18.28 23.76 1.74 2.8 1.61 3.57-.17.77-1.82-2m-32.18-33.11-16.36-23.03q-1.15-1.61-.9-1.74.3-.13 1.54 1.49 12.96 17.04 16.53 22.7 1.36 2.2.98 2.41-.43.17-1.79-1.82m-20.52-29.54q-3.36-4.04-6.08-8.16-1.2-1.83-.9-1.91.26-.13 1.58 1.49l6.03 8.28q1.2 1.58.9 1.7-.3.09-1.53-1.4m55.8-45.05 2.08.9q5.06 21.03 9.4 40.75 4.58 20.78 5.18 25.71.17 1.49.89 2.64l2.55 2.84q.38.39.3 2.26-3.1-2.8-3.96-3.87-1.31-1.7-1.57-3.66-.72-5.82-5.44-27.02-4.25-19.21-9.43-40.55m44.67 60.39q.25 2.55-1.32 5.74-1.53 3.02-3.15 3.82-.3.17-.6-.5-.33-.64-.04-.77 1.15-.6 2.26-2.93 1.19-2.55 1.02-4.72-2.3-27.67-17.51-56.86-14.41-27.54-30.94-39.66-1.87-1.36-2.17-1.23-.21.13.26 1.66l3.06 10.45q2.76 10 5.4 20.83l-1.2-1.49-1.36-1.4q-2.33-9.9-4.67-18.53l-2.64-9.35q-1.78-6.55 4.17-2.08 17.6 13.21 31.66 39.4 15.34 28.51 17.76 57.62"/><path fill="#0f141b" d="M254.44 223.08q-.93.34-1.87 8.76-.97 8.75.17 12.02l3.45 10.92q3.4 10.42 4.84 13.01 6.5-8.97 9.27-19.13 2.25-8.24 1.19-12.53-1.4-5.74-8.89-10.03-2.59-1.49-5.27-2.42-2.33-.77-2.89-.6m2.47-.9q3.02.82 6.16 2.56 8.76 4.72 10.5 11.77 1.15 4.55-1.53 13-3.02 9.52-9.56 18.75-1.1 1.53-1.62 1.48-.47-.04-1.27-1.57-1.83-3.61-5.32-13.68l-3.4-10.25q-1.23-3.52-.17-12.2 1.02-8.75 2.85-10.06zm-25.16-68.03q3.36 7.56 10.28 28.39 6.63 20.1 8.76 28.64.51 2.13.51 3.49-.04 1.4-.55-.6-2.21-8.58-9.52-30.47-7.7-23.16-10.92-30.22-.73-1.7-.05-1.32.73.34 1.49 2.09M77.3 24.73q-9.34 1.62-10.2.39-.89-1.28 3.53-10.16 4.42-8.93 6-8.93 1.65 0 6.54 7.14 4.93 7.19 3.95 8.84-.63 1.11-9.81 2.72m-5.23-9.39q-3.27 6.72-3.66 8.84 2.3.17 9.27-1.02 6.84-1.15 8.2-1.91 0-1.53-3.87-7.35-3.9-5.78-5.3-6.38-1.28.9-4.64 7.82m52.36 108.46q-.8 2.42-3.1 3.87-2.43 1.53-4.72 2-2.21.42-3.23-.43-1.28-1.1-.55-3.27.76-2.25 3.31-4.2 1.7-1.37 4.2-1.88 2.56-.5 3.62.34 1.32 1.15.47 3.57m-7.57-.98q-1.95 1.53-2.72 3.28-.68 1.61.05 2.2.6.56 2.72.05 2.25-.55 4.08-1.91 1.78-1.28 2.33-3.06.51-1.62-.17-2.21l-2.46-.17q-2 .42-3.83 1.82m16.58 20.4q-.9-1.95-1.83-1.95-.93.04-1.57 2.3-.77 2.5-.51 5.94.25 3.7 1.49 5.7.97 1.57 1.65 1.36.77-.21 1.4-1.74.94-2.26.69-6-.26-3.44-1.32-5.6m-1.79-3.1q1.4-.05 2.72 2.29 1.4 2.55 1.58 6.33.2 4.08-.81 6.59-.94 2.33-2.5 2.42-1.54.13-2.81-2.25-1.32-2.38-1.58-6-.2-3.23.73-6.16 1.02-3.23 2.67-3.23m-11.86 8.63q1.07-2.25 2.39-2.34 1.31-.08 2.55 1.96 1.48 2.38 1.9 6.41.4 3.79-.84 6.25-.98 2.04-2.25 2.13-1.62.08-3.02-2.21-1.45-2.34-1.66-5.66-.25-3.86.94-6.54m2.38-1.15q-.98.09-1.66 2.3-.68 2.33-.47 5.35.21 3.06 1.45 5.06 1.02 1.7 1.9 1.66.94-.05 1.58-2.38.6-2.3.34-4.8-.38-3.53-1.44-5.57-.9-1.66-1.7-1.62m48.31 11.77q1.07 2 1.7 1.96 9.44-.3 15.73-.09l13.14 1.02q.34.05.46 2-4.84-.98-12.92-1.27l-16.61-.22q-1.2 0-2.51-2.3-1.32-2.24-1.91-5.13-.6-2.94-.17-5.32.42-2.46 1.82-2.89 3.7-1.23 13.9 1.28 8.71 2.12 16.32 5.31.3.13.43 1.1.17.94-.13.81-8.08-3.31-16.24-5.52-10.32-2.76-13.85-1.62-.9.3-1.1 2.26-.22 1.9.3 4.25.54 2.38 1.65 4.37"/><path fill="#0f141b" d="M199.45 143.22q12.16 4.76 21.55 11.9 10.58 8.04 14.06 16.5 1.4 3.35 1.02 4.29-.34.85-2.12-.17-3.78-2.21-16.4-5.57-11.6-3.06-16.62-3.57-.51 0-.51-.68l-1.53-10.12-1.79-11.13q-.3-1.79.13-2 .34-.17 2.21.55m2.72 21.17 6.12 1.61 13.94 3.83q8.12 2.42 12.28 4.55-2.46-8.72-13.77-17.39-9.43-7.26-22.18-12.58l1.87 10.25zM78.24 176.03l-.9-3.65q-.03-.26.56-.38l.64.12.93 4.04-.55.13q-.6-.04-.68-.26m12.79-.13-.55-2.33-.34-2q-.04-.25.51-.34.51-.08.55.17.39 2.8.81 4.17.09.2-.42.38zm12.29-2.84-.98-3.91q-.04-.21.47-.34l.55.08 1.15 3.83q.04.25-.51.38zM50.2 133.1q2.67 4.22 5 11.14 1.62 4.8 2.47 9.48.9 4.89.77 8.37-.05 2.13-.77 2.34-.5.17-1.61-.34-2.34-1.02-5.06-3.87-3.66-3.95-6.2-9.86-3.02-6.92-1.4-14.2.59-2.67 1.7-4.58.97-1.79 1.7-1.87 1.14-.13 3.4 3.4m-5.66 2.6q-1.53 6.4 1.44 14.06 2.13 5.4 6.42 9.99 3.78 3.95 4.76 3.48.47-.21-.5-6.67-1.11-6.97-2.73-11.86-2.34-6.97-4.67-11-1.75-2.98-2.38-2.94-.26 0-.94 1.28-.89 1.57-1.4 3.65"/><path fill="#0f141b" d="M52.06 103.83q-3.27 3.23-6.08 9-2.8 5.83-3.14 10.38-.55 7.77 1.15 16.66.17.85-.09 2.55-.25 1.7-.38 1.23-3.15-12.16-2.55-20.32.34-4.67 4.08-12.1 3.7-7.32 6.16-8.6 3.7-1.95 9.01-4.07 5.78-2.34 11.52-4.04.3-.09-.13.98l-.64 1.1q-11.98 3.57-18.9 7.23m15.76 64.38q6.84 3.02 9.77 3.02 6.8 0 15.3-1.4 9.1-1.53 16.66-4.12.3-.09.34.85.09.93-.2 1.02-8.25 2.38-16.84 3.78-8.58 1.36-15.21 1.36-3.28 0-10.59-3.15-7.26-3.14-9.69-5.6-.2-.22.22-.94.46-.72.68-.51 2.55 2.6 9.56 5.7"/><path fill="#0f141b" d="M63.03 125.42q1.02 2.04.89 4.42-.13 2.42-1.36 2.97-1.36.64-3.15-.42-1.87-1.2-2.8-3.53-.94-2.3-.8-4.42.12-2.34 1.52-3.1 1.02-.6 2.68.46 1.78 1.15 3.02 3.62m-5.1-3.02q-.85.47-.94 2.25-.04 1.79.72 3.74.73 1.83 2.04 2.8 1.28.98 2.3.52.64-.3.76-1.92.13-1.87-.85-3.82-1.02-2.04-2.3-3.06-1.14-.9-1.73-.51m-7.65 29.4q.3-2.8 1.27-4.2.77-1.15 1.53-1.06.8.08 1.28 1.32.6 1.53.42 4.16-.17 2.5-.9 4.08-.76 1.66-1.82 1.53-1.06-.08-1.57-1.57-.51-1.53-.21-4.25m1.06 3.74q.3 1.15.8 1.15.47.04.98-1.24.56-1.36.68-3.35.17-2.17-.08-3.4-.26-1.15-.77-1.2-.42-.04-.85.94-.6 1.23-.85 3.53-.2 2.2.09 3.57"/><path fill="#0f141b" d="M48.1 140q.77-1.11 1.62-1.03.77.05 1.28 1.32.68 1.7.34 4.89-.51 4.93-2.8 4.67-.98-.08-1.45-1.4-.6-1.53-.3-4.3.3-2.75 1.32-4.16m-.34 4.17q-.26 2.42.08 3.74.3 1.06.81 1.15.55.04 1.06-1.15.56-1.28.77-3.4.17-1.7-.13-3.19-.3-1.36-.72-1.44-.51-.05-1.06 1.14-.6 1.28-.81 3.15m21.93 29.58.34-3.61q.04-.26.55-.13.55.08.51.34l-.21 3.4q0 .25-.6.25t-.6-.25m-5.09-5.87q-.6 1.2-.8 2.47l-.6.13q-.56-.13-.51-.39.2-.97.97-2.67.13-.22.6 0 .47.25.34.46"/></svg>