<svg xmlns="http://www.w3.org/2000/svg" viewBox="0 0 256 256"><defs><mask id="a"><rect width="100%" height="100%" fill="#fff"/><path d="M187.4 155.5c.5.1 1 .7 1 1.3 1.7 16.7-.1 19.5-15 25.2-18.4 7-37.2 12.5-56.4 16.6a28 28 0 0 1-18.5-1.5 148.8 148.8 0 0 1-26.8-17.2 11.2 11.2 0 0 1-4.4-9c-.2-5.9.3-11.9 0-17.8-.3-5.3 1.7-8.3 7-8.3l42 .1c2.6 0 5.6.4 6 3.8 1 6 5.2 6 9.7 6h45c3.3 0 6.7-.4 10.4.8ZM66.8 97c0-7.7-.2-15.3 0-23 .3-8.2 1.3-9.1 9.3-9.5 12.4-.5 13.6.7 13.6 13.3v43c-.2 8.5-2.2 10.3-10.8 10.5-9.2.2-11.8-1.8-12-10.3-.3-8 0-16 0-24h-.1ZM162.9 146.6h-20c-6 0-9.2-3-9.4-9 0-3.4-.2-6.7 0-10 .4-5.4 3.1-8.8 8.8-8.8h41c4.1 0 5.5 2 6 6 2.3 20.8 1.4 21.8-19.4 21.8h-7ZM122.8 98.2c0 8 .2 16 0 23.9-.4 7.4-2.8 9.1-11.2 9.2-8.7 0-11.4-1.5-11.5-8.8-.4-16.6-.1-33.2-.2-49.8 0-6 3-8.4 8.8-8.1h4c8.8.2 9.9 1 10 9.6.3 8 .1 16 .1 24ZM189.2 87.8v16.9c0 4-1.9 6.2-6.1 6h-2q-14.9.5-14.9-14.1v-22c.2-9 1.3-10 10.6-10.1h5c5 0 7.3 2.5 7.4 7.3v16ZM156.1 88v16c.2 4.8-2 6.6-6.6 6.6-19.3.1-16 .6-16.3-14.8-.2-7.6 0-15.3 0-23 0-5.9 2.7-8.5 8.6-8.3 2.3.2 4.6.1 7 0 5 0 7.2 2.8 7.2 7.6v16Z"/></mask></defs><circle cx="128" cy="128" r="128" fill="#e49021" mask="url(#a)"/></svg>