<svg xmlns="http://www.w3.org/2000/svg" viewBox="0 0 256 256"><defs><mask id="a"><rect width="100%" height="100%" fill="#fff"/><path d="M194.3 86.1c2.2-2.1 1.8 4.2 1.5 6.2-4 32.6-9 65-16.1 97.1-2 8.6-3.4 9.7-12.1 9.9h-29a2.4 2.4 0 0 1-2.2-3.3c16-38.1 37.4-90 57.9-109.9ZM121.5 180.6c-.9-23.7 2-37.1 5-68.6.1-1.3.6-2.6 1.1-3.8C131.2 100.7 145 72 153 62c1.7-2 5-1 5.2 1.7V69c-1 20.3-3.3 40.5-6.2 60.6-.6 3.8-2.3 7.6-4 11.2-5.7 11.6 1-2.3-17.8 34.6-1.2 2.3-2.1 5.3-4.3 7-1.8 1.3-4.3.5-4.4-1.8ZM116.8 86.1c2.2-2.1 1.8 4.2 1.5 6.2-4 32.6-9 65-16.1 97.1-2 8.6-3.3 9.7-12.1 9.9H61A2.4 2.4 0 0 1 59 196c16-38.1 37.4-90 58-109.9Z"/></mask></defs><circle cx="128" cy="128" r="128" fill="#439837" mask="url(#a)"/></svg>