<svg xmlns="http://www.w3.org/2000/svg" viewBox="0 0 256 256"><defs><mask id="a"><rect width="100%" height="100%" fill="#fff"/><path d="M126.2 184.8c-2.5-.7-6.4-1.6-10-3L65.5 161c-1.5-.6-3-1.5-4.4-2.3-7.4-4.3-7.7-9.3-.2-12.9 20.6-10 42-18.1 63.6-25.4 2.7-1 5.2-.6 7.8.3 21 7.1 41.7 15 61.8 24.6.9.4 1.9.7 2.7 1.2 4.8 3.4 5 8.2 0 11.2-4.6 2.6-9.6 4.6-14.5 6.7a682.2 682.2 0 0 1-49 19.3c-1.9.6-3.7 1.4-7 1Z"/><path d="M127.6 210c-4.2 0-16.2-4.2-23.9-7-14.6-5.5-29-11.6-43.2-18l-5.2-3c-5-2.9-5.4-3.7-2.6-9.2 2-3.7 2.7-3.3 7.8-1 16 7.3 32.4 13.6 48.7 20.1s21 6.9 37.5 0c16-6.5 31.7-13.5 47.8-19.7 4.9-1.8 6.9-3.8 9.2 1.4 1.8 4.1 3.8 5.5-3.8 8.8-16.7 7.3-33 15.5-50.4 21.4-7.2 2.4-17.2 6.1-22 6.1ZM93.6 71.2q0 14.2-14.1 14.2h-4c-8.8-.3-9.2-.8-9.5-10q-.5-18 17.7-17.6c9.4.2 9.7.5 9.9 10.4v3ZM185.3 87.7c-.1 10.2-.3 10.4-12 10.3-10-.1-10.2-.4-10.1-12 0-10.3.3-10.5 12-10.3 10 .1 10.3.3 10.1 12ZM119.4 99.5c0 8.1-1 9.2-9.2 9.2-8.1 0-9.4-1.2-9.4-9 0-7.6 1-8.4 9.8-8.3 8.2 0 8.8.6 8.8 8.1Z"/></mask></defs><circle cx="128" cy="128" r="128" fill="#a4733c" mask="url(#a)"/></svg>