<svg xmlns="http://www.w3.org/2000/svg" viewBox="0 0 256 256"><defs><mask id="a"><rect width="100%" height="100%" fill="#fff"/><path d="M128.3 206.2a46.5 46.5 0 0 1-43.8-64.7c4.2-11 10.8-20.6 16.8-30.5a171 171 0 0 0 20-49.7c.5-2.2.9-4.5 1.8-6.6 1-2 2.2-4.3 5-4.2 2.9.1 3.9 2.4 5 4.5.7 1.4 1 3 1.3 4.7 4.5 22.1 14 42 26 61 7.8 12 14.5 24.5 14.2 39.7a45.2 45.2 0 0 1-46.3 45.9Z"/></mask></defs><circle cx="128" cy="128" r="128" fill="#3099e1" mask="url(#a)"/><path fill="#3a9de2" d="M129.2 193.5c-13.8-1-25.6-4.5-33-16.5-1.3-2.2-3-5-1.7-7.5 2-3.2 4.8-.7 7 .1a78 78 0 0 0 53.6-.2c2-.8 4.3-2.8 6.3-.5 2 2.2 0 4.4-.9 6.4-6.5 13.4-18.8 16.5-31.3 18.2Z"/></svg>